<svg xmlns="http://www.w3.org/2000/svg" width="144" height="144" fill="none" xmlns:v="https://vecta.io/nano"><style><![CDATA[.B{fill:#fff}.C{fill:#373535}]]></style><g clip-path="url(#N)"><mask id="A" maskUnits="userSpaceOnUse" x="-23" y="-15" width="396" height="512"><path d="M-22.463-14.202h394.578v510.631H-22.463V-14.202z" class="B"/></mask><g mask="url(#A)" class="C"><path d="M17.183 103.696c1.176 0 2.29.279 2.848.836.093.867-.681 2.26-1.177 2.26-.588-.217-1.145-.341-1.826-.341-2.816 0-4.209 2.909-4.209 5.788 0 1.794.619 2.878 2.043 2.878 1.516 0 3.064-1.021 3.93-1.795.217.154.495.65.495 1.207 0 .619-.186 1.207-.743 1.764-.99.991-2.661 1.826-5.076 1.826-2.785 0-4.704-1.578-4.704-5.262 0-4.827 3.188-9.161 8.387-9.161h.031zm9.097 11.266c1.517 0 4.271-2.662 5.045-7.737.031-.31.062-.403.124-.712-.34-.124-.805-.217-1.27-.217-1.145 0-2.321.341-3.373 1.764-1.083 1.517-1.547 3.404-1.547 4.921 0 1.3.371 1.981.99 1.981h.031zm-4.983-1.393c0-1.825.619-5.014 2.941-7.335 1.981-2.042 4.395-2.538 6.592-2.538 1.455 0 3.435.464 4.673.712-.309 1.362-1.052 6.499-1.393 9.47-.155 1.27-.217 3.034-.155 3.684-1.021.433-2.94.557-3.467.557-.278 0-.34-1.269-.247-2.476l.123-1.238c-1.207 2.012-3.59 3.714-6.097 3.714-1.795 0-2.972-1.486-2.972-4.519v-.031zm21.911-9.873c1.269 0 2.476.465 3.033 1.053-.031.867-.712 2.321-1.796 1.918-.464-.154-.928-.278-1.547-.278-.836 0-1.547.372-1.547 1.145 0 .588.433 1.022 2.507 2.476 1.486 1.083 2.074 2.043 2.074 3.405 0 2.259-2.136 4.704-5.85 4.704-1.516 0-2.848-.588-3.281-1.207-.557-.928-.124-2.754.496-2.445.805.402 2.135.836 3.218.836 1.021 0 1.671-.465 1.671-1.084 0-.525-.464-.99-2.352-2.321-1.579-1.176-2.074-2.259-2.074-3.497 0-2.569 2.198-4.705 5.416-4.705h.031zm10.677 0c1.27 0 2.476.465 3.033 1.053-.031.867-.711 2.321-1.795 1.918-.464-.154-.929-.278-1.547-.278-.836 0-1.547.372-1.547 1.145 0 .588.433 1.022 2.507 2.476 1.485 1.083 2.073 2.043 2.073 3.405 0 2.259-2.136 4.704-5.85 4.704-1.516 0-2.847-.588-3.28-1.207-.557-.928-.124-2.754.495-2.445.805.402 2.135.836 3.219.836 1.021 0 1.671-.465 1.671-1.084 0-.525-.464-.99-2.352-2.321-1.578-1.176-2.073-2.259-2.073-3.497 0-2.569 2.197-4.705 5.416-4.705h.03zm9.747 11.266c1.517 0 4.271-2.662 5.045-7.737.031-.31.063-.403.124-.712a3.88 3.88 0 0 0-1.269-.217c-1.145 0-2.321.341-3.374 1.764-1.083 1.517-1.547 3.404-1.547 4.921 0 1.3.371 1.981.991 1.981h.03zm-4.983-1.393c0-1.825.62-5.014 2.941-7.335 1.981-2.042 4.395-2.538 6.593-2.538 1.454 0 3.436.464 4.674.712-.309 1.362-1.052 6.499-1.393 9.47-.155 1.27-.217 3.034-.155 3.684-1.021.433-2.939.557-3.466.557-.278 0-.34-1.269-.248-2.476l.124-1.238c-1.207 2.012-3.59 3.714-6.097 3.714-1.796 0-2.972-1.486-2.972-4.519v-.031zm21.2-5.849c1.424-2.291 3.28-4.024 5.881-4.024 2.197 0 2.909 2.043 2.507 4.952l-.836 5.107c-.217 1.517-.371 2.878-.34 3.807-.805.402-3.157.557-3.683.557-.217 0-.248-1.703.031-3.498l1.021-5.725c.155-.897.124-1.981-.743-1.981-1.146 0-3.868 1.826-5.231 9.316-.094.619-.34.99-.681 1.207-.464.279-1.455.526-3.466.557.371-1.887.959-5.756 1.393-8.604.402-2.599.557-4.271.463-4.921.527-.186 3.282-.774 3.59-.774.342 0 .403.96.093 3.281l-.093.743h.093zm15.722 7.211c1.361 0 4.117-2.538 4.889-7.026.032-.247.125-.711.186-.991-.402-.371-.929-.619-1.764-.619-3.127 0-4.52 3.746-4.52 6.439 0 1.454.496 2.197 1.176 2.197h.032zm-2.043 3.188c-1.981 0-3.219-1.764-3.219-4.797 0-5.014 3.125-9.626 8.387-9.626.929 0 1.764.247 2.29.557.279-1.424.929-5.819.96-7.119.866-.155 2.724-.433 3.559-.433.341 0 .434.34.31 1.113l-2.321 15.538c-.187 1.671-.217 3.311-.187 4.24-.989.433-3.002.526-3.527.526-.218 0-.341-1.424-.279-2.693l.093-1.083c-1.547 2.538-3.683 3.776-6.035 3.776h-.03zm18.134-9.966c1.641-3.652 3.59-4.457 4.86-4.457a2.07 2.07 0 0 1 1.3.557c.124 1.021-.681 3.064-1.393 3.838-.372-.186-.835-.372-1.362-.372-1.053 0-3.126 1.641-4.426 8.697-.093.589-.278.836-.618.991-.526.31-2.6.557-3.59.588.463-2.538 1.267-7.706 1.578-10.74.092-.774.123-2.197.061-2.754.588-.279 2.91-.805 3.436-.805.279 0 .495 1.703.061 4.457h.093zm10.924 6.809c1.518 0 4.272-2.662 5.046-7.737.03-.31.062-.403.124-.712a3.88 3.88 0 0 0-1.27-.217c-1.145 0-2.321.341-3.374 1.764-1.082 1.517-1.547 3.404-1.547 4.921 0 1.3.371 1.981.991 1.981h.03zm-4.983-1.393c0-1.825.62-5.014 2.941-7.335 1.98-2.042 4.394-2.538 6.592-2.538 1.455 0 3.435.464 4.675.712-.31 1.362-1.053 6.499-1.394 9.47-.154 1.27-.217 3.034-.154 3.684-1.022.433-2.94.557-3.467.557-.278 0-.34-1.269-.248-2.476l.125-1.238c-1.208 2.012-3.59 3.714-6.098 3.714-1.795 0-2.972-1.486-2.972-4.519v-.031z"/></g><mask id="B" maskUnits="userSpaceOnUse" x="-23" y="-15" width="396" height="512"><path d="M-22.463-14.202h394.578v510.631H-22.463V-14.202z" class="B"/></mask><g mask="url(#B)"><path d="M113.498 51.25c1.021 11.897-17.702 23.219-41.817 25.289s-44.493-5.9-45.513-17.796 17.701-23.221 41.817-25.29 44.493 5.899 45.513 17.797z" fill="#bbe6fb"/></g><mask id="C" maskUnits="userSpaceOnUse" x="-23" y="-15" width="396" height="512"><path d="M-22.463-14.202h394.578v510.631H-22.463V-14.202z" class="B"/></mask><g mask="url(#C)"><mask id="D" maskUnits="userSpaceOnUse" x="39" y="34" width="58" height="41"><path d="M39.437 34.844H96.36v40.087H39.437V34.844z" class="B"/></mask><g mask="url(#D)" class="B"><g opacity=".35"><path d="M68.692 34.848c-9.199-.15-19.964 3.503-27.973 6.923-.834 2.402-1.282 4.957-1.282 7.606 0 14.112 12.743 25.554 28.462 25.554s28.462-11.442 28.462-25.553c0-4.466-1.279-8.662-3.522-12.315-6.408-.996-15.222-2.069-24.146-2.214z"/></g></g></g><mask id="E" maskUnits="userSpaceOnUse" x="-23" y="-15" width="396" height="512"><path d="M-22.463-14.202h394.578v510.631H-22.463V-14.202z" class="B"/></mask><g mask="url(#E)" class="B"><path d="M67.898 34.845c-5.093-.311-13.871 2.346-21.19 4.997a21.75 21.75 0 0 0-1.73 8.511c0 12.365 11.211 22.388 23.07 22.388 11.781 0 22.205-10.04 23.07-22.388.281-4.021-1.103-7.81-3.025-11.077-7.588-1.337-15.642-2.153-20.194-2.431z"/></g><mask id="F" maskUnits="userSpaceOnUse" x="-23" y="-15" width="396" height="512"><path d="M-22.463-14.202h394.578v510.631H-22.463V-14.202z" class="B"/></mask><g mask="url(#F)" class="C"><path d="M54.829 46.73c.625-1.384 1.571-2.061 2.488-3.221-.102-.275-.325-1.173-.325-1.484a2.52 2.52 0 0 1 2.518-2.518 2.51 2.51 0 0 1 .928.179c4.168-3.177 9.656-4.561 15.17-3.329.504.114.997.251 1.482.402-5.45-.756-11.593 1.175-15.772 4.547.128.301.482 1.162.482 1.508 0 1.391-.9 1.729-2.291 1.729a2.51 2.51 0 0 1-.897-.167c-.944 1.268-2.101 3.682-2.667 5.191 2.311 2.067 4.398 2.816 7.119 3.833-.007-.13.093-.25.093-.382 0-4.193 3.691-7.6 7.885-7.6 3.757 0 6.869 2.732 7.476 6.317 1.875-1.193 3.688-2.107 5.07-3.875-.322-.393-.67-1.507-.67-2.055 0-1.262 1.024-2.285 2.286-2.285a2.28 2.28 0 0 1 .517.064 20.01 20.01 0 0 0 1.569-4.545c-6.557-4.854-19.244-4.192-19.244-4.192s-10.095-.527-16.929 2.804c.456 3.295 1.77 6.428 3.71 9.078zm31.34-1.892a4.24 4.24 0 0 1 .916 1.142c.613 1.102-.617 2.111-1.879 2.111a2.26 2.26 0 0 1-.375-.038c-1.422 2.222-3.912 5.071-6.124 6.505 3.392.556 6.591 1.914 9.136 4.014 1.854-3.321 3.275-8.117 3.275-12.19 0-3.101-1.369-5.373-3.435-7.041-.108 1.661-.995 3.984-1.514 5.497zM58.635 65.873c1.13-3.121 3.91-5.54 6.54-7.667-.385-.527-.962-1.831-1.203-2.449-3.208-.976-6.046-2.801-8.247-5.218-.016.07-.036.139-.053.209a16.68 16.68 0 0 0-.284 5.534 3.31 3.31 0 0 1 2.698 3.251c0 .96-.841 2.351-1.494 2.957.71 1.532 1.194 2.271 2.043 3.384zm-.199 2.619c-1.348-1.34-2.28-4.014-3.155-5.693-.164.025-.331.042-.503.042-1.828 0-3.744-1.535-3.311-3.31.24-.983.918-1.625 2.023-2.162-.252-2.035-.32-4.961.153-7.077.135-.605.422-.889.612-1.466-2.017-2.952-3.321-6.827-3.321-10.672 0-.141.007-.279.01-.418-3.409 1.71-5.966 4.404-5.966 8.644 0 9.38 5.402 18.581 13.44 22.187l.017-.076zM78.2 55.526a7.59 7.59 0 0 1-7.156 5.076c-1.77 0-3.395-.611-4.685-1.625-2.661 2.072-5.075 5.712-6.302 8.87.551.593.934 1.08 1.552 1.605 1.861.485 4.425 0 6.44 0 8.104 0 15.282-3.605 19.398-9.928-2.736-1.895-5.964-3.698-9.246-3.999z"/></g><mask id="G" maskUnits="userSpaceOnUse" x="-23" y="-15" width="396" height="512"><path d="M-22.463-14.202h394.578v510.631H-22.463V-14.202z" class="B"/></mask><g mask="url(#G)"><path d="M54.621 47.826c.625-1.384 1.408-2.664 2.324-3.824a2.52 2.52 0 0 1 2.357-3.4 2.51 2.51 0 0 1 .928.179 18.35 18.35 0 0 1 15.17-3.329l1.482.402c-5.45-.756-11.081.915-15.26 4.288a2.49 2.49 0 0 1 .197.978 2.52 2.52 0 0 1-2.518 2.518 2.51 2.51 0 0 1-.897-.167c-.944 1.268-1.716 2.668-2.282 4.178 1.985 2.139 4.42 3.83 7.141 4.846-.007-.13-.02-.258-.02-.39 0-4.193 3.398-7.592 7.592-7.592 3.758 0 6.869 2.732 7.476 6.317a19.68 19.68 0 0 0 4.922-4.492c-.322-.393-.522-.889-.522-1.437 0-1.262 1.024-2.285 2.286-2.285a2.26 2.26 0 0 1 .517.065 20.01 20.01 0 0 0 1.569-4.545c-6.557-4.854-19.243-4.192-19.243-4.192s-10.095-.527-16.93 2.804c.456 3.295 1.77 6.428 3.71 9.078zm31.902-2.614a2.27 2.27 0 0 1 .761 1.69c0 1.262-1.024 2.286-2.286 2.286a2.26 2.26 0 0 1-.375-.038c-1.422 2.222-3.305 4.116-5.518 5.55a18.48 18.48 0 0 1 8.893 3.998 22.95 22.95 0 0 0 2.913-11.22c0-3.101-1.369-5.373-3.435-7.041a18.39 18.39 0 0 1-.952 4.775zm-27.54 21.411a18.42 18.42 0 0 1 5.724-8.049 7.58 7.58 0 0 1-.943-1.721 18.4 18.4 0 0 1-8.247-5.218l-.053.209a16.65 16.65 0 0 0-.284 5.534 3.31 3.31 0 0 1 2.698 3.251c0 .96-.412 1.823-1.065 2.429a19.87 19.87 0 0 0 2.17 3.565zm-.556 1.832a18.45 18.45 0 0 1-3.354-4.558c-.164.025-.332.042-.503.042a3.31 3.31 0 0 1-3.311-3.31c0-1.31.763-2.44 1.868-2.976a18.33 18.33 0 0 1 .308-6.263 18.73 18.73 0 0 1 .491-1.772 18.31 18.31 0 0 1-3.199-10.365c0-.141.006-.279.01-.418-3.409 1.709-5.966 4.404-5.966 8.643 0 9.38 5.601 17.446 13.639 21.053l.017-.076zm19.566-11.833a7.59 7.59 0 0 1-7.157 5.076c-1.77 0-3.394-.611-4.685-1.625-2.661 2.072-4.669 4.897-5.895 8.055a20.45 20.45 0 0 0 1.756 1.676 23.1 23.1 0 0 0 5.83.745c8.104 0 15.229-4.184 19.345-10.506-2.736-1.896-5.911-3.12-9.193-3.42z" fill="#1287b1"/></g><mask id="H" maskUnits="userSpaceOnUse" x="-23" y="-15" width="396" height="512"><path d="M-22.463-14.202h394.578v510.631H-22.463V-14.202z" class="B"/></mask><g mask="url(#H)"><mask id="I" maskUnits="userSpaceOnUse" x="55" y="39" width="31" height="31"><path d="M55.68 39.712h29.593v29.567H55.68V39.712z" class="B"/></mask><g mask="url(#I)" class="B"><path d="M78.259 54.664l7.014-1.673-7.04-.359 5.73-4.379-6.502 2.331 4.418-6.123-6.102 4.056 2.134-7.168-4.191 5.908-.096-7.465-2.757 6.65-2.299-6.729.124 7.927-3.974-7.106 2.15 7.545-6.445-4.687 5.049 6.344-8.002-2.943 6.315 4.672-8.098.249 8.28 2.137-8.287 1.792 8.18.593-6.898 4.417 7.103-2.575-4.928 6.242 6.227-5.022-2.242 8.376 4.808-6.816-.674 8.05 2.729-7.298 2.323 7.67.565-7.694 3.448 6.564-2.037-7.508 6.314 4.891-4.076-6.236 6.927 2.699-5.296-5.205 7.102.558-6.995-2.685z"/></g></g><mask id="J" maskUnits="userSpaceOnUse" x="-23" y="-15" width="396" height="512"><path d="M-22.463-14.202h394.578v510.631H-22.463V-14.202z" class="B"/></mask><g mask="url(#J)"><mask id="K" maskUnits="userSpaceOnUse" x="3" y="28" width="138" height="41"><path d="M3.586 28.23h136.943v39.856H3.586V28.23z" class="B"/></mask><g mask="url(#K)" class="C"><g opacity=".35"><path d="M3.586 68.086C25.34 46.333 42.713 39.618 58.481 36.552c2.086-.406 2.481-4.965 2.481-4.965s.292 3.358 1.752 3.796 3.357-5.256 3.357-5.256-1.752 5.11 0 5.402 4.964-4.964 4.964-4.964-1.313 4.525-.437 4.818 5.255-6.569 5.255-6.569-2.628 4.525-.146 4.964 6.104-3.089 6.104-3.089-2.847 3.227-1.578 3.672c5.402 1.899 9.774-5.122 9.774-5.122s-1.013 3.079-3.641 6.436c5.693 1.46 9.922-7.117 9.922-7.117l-4.229 8.577c2.19 1.169 10.951-8.905 10.951-8.905s-4.526 7.884-7.154 9.489c1.46 1.168 6.716-3.503 6.716-3.503s-4.234 5.255-2.628 5.547c2.336 1.898 10.949-9.781 10.949-9.781s-3.357 6.861-8.321 12.264c4.149 2.075 14.453-11.242 14.453-11.242s-.292 4.234-7.738 10.95c5.548-.73 12.702-11.242 12.702-11.242s-2.628 7.884-8.906 13.431c5.447-.567 14.161-14.015 14.161-14.015s-3.357 9.343-10.219 14.746c7.592 1.679 18.542-9.636 18.542-9.636s-4.307 8.03-9.929 11.315c6.279 2.409 14.893-7.519 14.893-7.519s-8.614 13.286-22.337 12.702c-4.503-.191-18.123-13.661-47.303-12.556-38.542 1.46-46.718 17.811-67.303 28.907z"/></g></g><path d="M4.478 66.434C26.231 44.681 43.604 37.966 59.372 34.9c2.087-.406 2.482-4.964 2.482-4.964s.291 3.358 1.752 3.796 3.357-5.255 3.357-5.255-1.752 5.11 0 5.402 4.964-4.964 4.964-4.964-1.313 4.525-.438 4.817 5.256-6.57 5.256-6.57-2.628 4.526-.146 4.964 6.104-3.088 6.104-3.088-2.847 3.227-1.578 3.672c5.402 1.898 9.772-5.122 9.772-5.122s-1.013 3.079-3.639 6.436c5.693 1.46 9.922-7.118 9.922-7.118l-4.229 8.578c2.19 1.168 10.949-8.905 10.949-8.905s-4.524 7.883-7.152 9.489c1.46 1.168 6.715-3.504 6.715-3.504s-4.234 5.256-2.628 5.547c2.336 1.899 10.949-9.781 10.949-9.781s-3.358 6.862-8.321 12.264c4.149 2.076 14.454-11.242 14.454-11.242s-.292 4.235-7.738 10.95c5.548-.73 12.702-11.242 12.702-11.242s-2.628 7.884-8.907 13.432c5.448-.567 14.161-14.015 14.161-14.015s-3.357 9.344-10.218 14.745c7.592 1.679 18.541-9.635 18.541-9.635s-4.307 8.029-9.928 11.314c6.278 2.409 14.892-7.519 14.892-7.519s-8.614 13.286-22.338 12.702c-4.502-.192-18.122-13.661-47.302-12.556-38.542 1.46-46.718 17.811-67.303 28.906z" class="C"/></g><mask id="L" maskUnits="userSpaceOnUse" x="-23" y="-15" width="396" height="512"><path d="M-22.463-14.202h394.578v510.631H-22.463V-14.202z" class="B"/></mask><g mask="url(#L)"><mask id="M" maskUnits="userSpaceOnUse" x="3" y="52" width="129" height="49"><path d="M3.017 52.436h128.547v47.593H3.017V52.436z" class="B"/></mask><g mask="url(#M)" class="C"><g opacity=".35"><path d="M3.017 70.465c11.497 5.767 22.009-.876 35.258 2.858 10.073 2.839 22.337 6.34 38.979 3.93s30.878-9.635 37.668-22.556c2.117-5.766 10.73 1.315 10.73 1.315s-6.277-2.628-6.131-1.387 9.416 5.547 9.416 5.547-8.395-2.628-7.884-.657 10.511 9.855 10.511 9.855-11.314-8.614-12.262-7.446 4.817 5.913 4.817 5.913-9.563-5.913-12.921-4.169c-2.415 1.253 9.928 9.352 9.928 9.352s-8.03-6.133-9.928-4.527 9.052 14.746 9.052 14.746-12.41-13.432-13.65-12.775 3.43 7.081 3.43 7.081-6.132-6.716-7.81-5.548 8.759 18.614 8.759 18.614S99.665 72.729 94.993 75.72c7.337 16.097 4.599 18.396 4.599 18.396s-.936-16.421-10.074-15.987c-4.599.219 2.19 12.263 2.19 12.263s-6.248-11-10.409-10.781c7.669 14.514 4.936 20.417 4.936 20.417s1.268-12.396-9.133-19.294c3.941 3.503-2.473 19.294-2.473 19.294s5.643-23.269-4.162-18.833c-1.549.7-.11 11.606-.11 11.606s-1.971-12.483-4.926-11.826c-1.723.382-10.95 17.3-10.95 17.3s7.556-18.286 5.257-17.519c-1.675.559-4.818 8.103-4.818 8.103s1.532-7.446 0-7.884-10.074 7.884-10.074 7.884 6.351-7.446 5.256-8.979c-1.66-2.323-3.605-2.432-5.913-1.533-3.358 1.309-7.883 7.445-7.883 7.445s4.511-6.213 3.722-8.541c-1.266-3.74-14.234 7.227-14.234 7.227s7.665-7.227 5.913-8.76-11.264-1.059-14.234-1.067c-8.759-.027-11.795-2.082-14.454-4.188z"/></g></g><path d="M2.579 69.151c11.497 5.767 22.009-.876 35.257 2.859 10.073 2.838 22.338 6.339 38.981 3.93s30.877-9.635 37.667-22.555c2.116-5.766 10.73 1.313 10.73 1.313s-6.278-2.627-6.131-1.386 9.416 5.547 9.416 5.547-8.395-2.627-7.884-.656 10.512 9.854 10.512 9.854-11.315-8.614-12.263-7.445 4.818 5.912 4.818 5.912-9.564-5.912-12.922-4.169c-2.415 1.253 9.928 9.352 9.928 9.352s-8.03-6.132-9.928-4.526 9.053 14.746 9.053 14.746-12.411-13.432-13.651-12.775 3.431 7.081 3.431 7.081-6.133-6.716-7.811-5.547 8.759 18.614 8.759 18.614-11.314-17.884-15.986-14.892c7.336 16.096 4.599 18.396 4.599 18.396s-.936-16.421-10.074-15.986c-4.599.219 2.19 12.263 2.19 12.263s-6.248-11.001-10.409-10.782c7.67 14.514 4.935 20.417 4.935 20.417s1.268-12.396-9.133-19.294c3.941 3.504-2.473 19.294-2.473 19.294s5.644-23.269-4.16-18.833c-1.549.7-.11 11.607-.11 11.607s-1.972-12.483-4.927-11.826c-1.724.382-10.951 17.3-10.951 17.3s7.556-18.286 5.257-17.519c-1.675.558-4.818 8.102-4.818 8.102s1.533-7.445 0-7.883-10.073 7.883-10.073 7.883 6.351-7.445 5.255-8.979c-1.66-2.323-3.605-2.431-5.912-1.532-3.359 1.308-7.884 7.445-7.884 7.445s4.511-6.214 3.723-8.541c-1.266-3.739-14.234 7.227-14.234 7.227s7.665-7.227 5.912-8.759-11.264-1.059-14.234-1.068c-8.759-.028-11.794-2.082-14.453-4.188z" class="C"/></g></g><defs><clipPath id="N"><path transform="translate(0 24)" d="M0 0h144v96.699H0z" class="B"/></clipPath></defs></svg>