<svg xmlns="http://www.w3.org/2000/svg" xmlns:xlink="http://www.w3.org/1999/xlink" width="144" height="144" fill="none" xmlns:v="https://vecta.io/nano"><g clip-path="url(#B)"><mask id="A" maskUnits="userSpaceOnUse" x="-1" y="51" width="145" height="42"><path d="M144 51H0v41.974h144V51z" fill="#fff"/></mask><g mask="url(#A)"><path d="M59.626 77.825c-.83.564-1.968.846-3.415.846-2.035 0-3.689-.624-4.961-1.873-1.272-1.262-1.908-2.973-1.908-5.135 0-2.041.643-3.698 1.928-4.974 1.299-1.289 2.926-1.933 4.881-1.933 1.406 0 2.551.242 3.435.725v1.671c-.589-.309-1.118-.53-1.587-.665s-1.085-.201-1.848-.201c-1.46 0-2.678.497-3.656 1.49-.964.993-1.446 2.289-1.446 3.886 0 1.664.482 2.993 1.446 3.987s2.243 1.49 3.837 1.49c1.286 0 2.383-.342 3.294-1.027v1.712zm3.466.685h-1.587V64.274h1.587V78.51zm4.186 0h-1.587V68.301h1.587V78.51zm-.06-14.156c.201.201.301.45.301.745s-.1.544-.301.745c-.201.188-.448.282-.743.282s-.542-.094-.743-.282c-.187-.201-.281-.45-.281-.745s.094-.544.281-.745c.201-.201.449-.302.743-.302s.542.101.743.302zm9.59 13.793c-.643.389-1.433.584-2.37.584-1.607 0-2.886-.51-3.837-1.53-.938-1.034-1.406-2.289-1.406-3.766 0-1.45.468-2.698 1.406-3.745.951-1.047 2.243-1.571 3.877-1.571.87 0 1.647.188 2.33.564v1.51c-.616-.416-1.339-.624-2.169-.624-1.152 0-2.076.376-2.772 1.128-.683.738-1.024 1.658-1.024 2.759.013 1.101.348 2.02 1.004 2.759.656.725 1.587 1.087 2.792 1.087.777 0 1.5-.221 2.169-.664v1.51zm3.509.362h-1.567V64.354h1.567V78.51zm2.069-5.356l4.138 5.356h-1.908l-4.098-5.356 3.997-4.853h1.888l-4.017 4.853zm15.416 5.356h-1.627v-6.142h-6.568v6.142h-1.627V64.938h1.627v5.96h6.568v-5.96h1.627V78.51zm11.46-5.074c0 1.517-.428 2.772-1.285 3.766s-2.036 1.49-3.535 1.49c-1.46 0-2.618-.49-3.475-1.47-.844-.993-1.266-2.242-1.266-3.745 0-1.517.435-2.779 1.306-3.786.884-1.02 2.029-1.53 3.435-1.53 1.54 0 2.725.497 3.555 1.49.844.993 1.265 2.255 1.265 3.785zm-7.914.02c0 1.061.282 1.967.844 2.718.562.738 1.312 1.108 2.25 1.108 1.017 0 1.801-.362 2.35-1.087.549-.738.823-1.651.823-2.739 0-1.128-.261-2.054-.783-2.779-.522-.738-1.319-1.108-2.39-1.108-.964 0-1.721.376-2.27 1.128s-.824 1.671-.824 2.759zm17.647 5.054h-1.587v-1.772c-.536 1.262-1.6 1.893-3.194 1.893-1.004 0-1.801-.295-2.39-.886-.576-.604-.864-1.409-.864-2.416v-7.028h1.587v6.625c0 .738.188 1.302.562 1.691s.884.584 1.527.584c.844 0 1.513-.295 2.009-.886.509-.591.763-1.389.763-2.396v-5.618h1.587V78.51zm8.557-2.718c0 .873-.308 1.564-.924 2.074-.602.51-1.432.765-2.49.765-1.232 0-2.23-.208-2.993-.624v-1.55c.897.537 1.861.805 2.892.805.616 0 1.085-.121 1.406-.362s.482-.57.482-.987c0-.483-.18-.859-.542-1.128-.348-.268-.937-.57-1.767-.906-.764-.295-1.38-.665-1.848-1.108-.456-.443-.683-1.04-.683-1.792 0-.846.314-1.517.944-2.014.642-.51 1.439-.765 2.39-.765 1.058 0 1.908.148 2.551.443v1.51c-.616-.376-1.46-.564-2.531-.564-.536 0-.964.128-1.285.383-.309.242-.462.557-.462.946a1.42 1.42 0 0 0 .14.644c.094.174.275.349.542.523l.603.362.844.362c.857.349 1.526.745 2.008 1.188s.723 1.04.723 1.792zm9.082 2.195c-.79.416-1.755.624-2.893.624-1.54 0-2.785-.47-3.736-1.41-.937-.953-1.406-2.208-1.406-3.766 0-1.624.422-2.906 1.265-3.846s1.929-1.41 3.254-1.41c1.273 0 2.284.41 3.033 1.228s1.125 1.98 1.125 3.484a6.55 6.55 0 0 1-.1 1.188h-6.95c.12 1.007.502 1.779 1.145 2.316s1.486.805 2.531.805c1.138 0 2.049-.235 2.732-.705v1.49zm-3.516-8.417c-.763 0-1.412.275-1.948.826s-.85 1.336-.944 2.356h5.463v-.403c0-.846-.227-1.517-.682-2.014-.456-.51-1.085-.765-1.889-.765z" fill="#000"/><path d="M8.481 54.563H5.381c-.228 0-.413.185-.413.414v34.586c0 .229.185.414.413.414h3.099c.228 0 .413-.185.413-.414V54.976c0-.229-.185-.414-.413-.414z" fill="#ffb200"/><path d="M4.968 86.043h3.925v3.521c0 .229-.185.414-.413.414h-3.1c-.228 0-.413-.186-.413-.414v-3.521z" fill="red"/><path d="M16.332 54.563h-3.1c-.228 0-.413.185-.413.414v34.586c0 .229.185.414.413.414h3.1c.228 0 .413-.185.413-.414V54.976c0-.229-.185-.414-.413-.414z" fill="#ffb200"/><use xlink:href="#C" fill="#ffb200"/><path d="M32.032 54.563h-3.099c-.228 0-.413.185-.413.414v34.586c0 .229.185.414.413.414h3.099c.228 0 .413-.185.413-.414V54.976c0-.229-.185-.414-.413-.414zm7.852 13.773h-3.099c-.228 0-.413.185-.413.414v7.042c0 .229.185.414.413.414h3.099c.228 0 .413-.185.413-.414V68.75c0-.229-.185-.414-.413-.414z" fill="#ffb200"/></g></g><defs><clipPath id="B"><path fill="#fff" transform="translate(0 51)" d="M0 0h144v42H0z"/></clipPath><path id="C" d="M24.182 54.563h-3.099c-.228 0-.413.185-.413.414v34.586c0 .229.185.414.413.414h3.099c.228 0 .413-.185.413-.414V54.976c0-.229-.185-.414-.413-.414z"/></defs></svg>