<svg xmlns="http://www.w3.org/2000/svg" width="144" height="144" fill="none" xmlns:v="https://vecta.io/nano"><path d="M28.211 53.774h9.522c6.079.038 11.656 3.911 13.779 9.565.915 2.441 1.113 4.967.852 7.561-.382 3.809-1.521 7.344-3.678 10.512-3.328 4.89-8.02 7.608-13.83 8.513-1.97.306-3.946.27-5.925.27-.821 0-1.26-.375-1.309-1.053-.053-.727.405-1.285 1.216-1.334.897-.055 1.801-.009 2.702-.034 5.47-.148 10.206-2.03 13.957-6.069 2.629-2.832 3.961-6.282 4.412-10.084.313-2.638.28-5.26-.764-7.759-1.602-3.823-4.473-6.168-8.425-7.255-1.535-.422-3.107-.502-4.681-.511l-17.626-.015c-.247 0-.497.009-.743-.012a1.18 1.18 0 0 1-1.071-1.109 1.15 1.15 0 0 1 .946-1.15 4.57 4.57 0 0 1 .81-.039h9.861l-.004.004zm-6.016 28.052H11.658a5.11 5.11 0 0 1-.675-.015c-.609-.082-.993-.432-1.052-1.047s.23-1.036.811-1.252c.369-.135.755-.107 1.136-.107l20.795-.012c2.432-.008 4.531-.908 6.199-2.688 1.431-1.527 2.18-3.372 2.403-5.449.176-1.629-.057-3.128-1.07-4.458-1.127-1.484-2.649-2.228-4.479-2.236l-19.647-.02c-.696 0-1.393-.057-2.086-.121-.598-.055-.929-.415-.97-1.017-.044-.655.292-1.127.888-1.242a3.21 3.21 0 0 1 .602-.028h21.073c3.54.007 6.602 2.145 7.717 5.486.792 2.372.509 4.764-.378 7.063-1.705 4.414-5.718 7.129-10.468 7.141H22.195zM6.482 64.428H4.05c-.675-.012-1.194-.456-1.271-1.06s.303-1.123 1.033-1.272a6.4 6.4 0 0 1 1.208-.08h3.308a4.37 4.37 0 0 1 1 .116c.596.151.921.658.851 1.275s-.443.987-1.067 1.008c-.877.03-1.756.008-2.633.008l.003.005zm14.785 25.76H18.97c-.727-.016-1.216-.427-1.29-1.034-.028-.319.071-.636.276-.883a1.21 1.21 0 0 1 .819-.432 31.99 31.99 0 0 1 4.914-.007 1.13 1.13 0 0 1 .445.112c.139.068.263.162.364.278a1.13 1.13 0 0 1 .272.855c-.05.674-.526 1.087-1.277 1.117h-2.228v-.005z" fill="#29f1fb"/><path d="M75.362 79.704c-.885.979-1.838 1.699-2.86 2.158a8.42 8.42 0 0 1-3.472.685c-2.315 0-4.056-.629-5.225-1.888s-1.754-2.952-1.756-5.081a13.88 13.88 0 0 1 .596-4.217 8.55 8.55 0 0 1 1.787-3.191c.818-.896 1.831-1.592 2.961-2.035 1.18-.477 2.553-.716 4.119-.716 1.093-.015 2.175.216 3.166.674.953.45 1.758 1.185 2.417 2.206l1.366-10.636h2.213l-3.439 24.844h-2.213l.34-2.804zm-5.991.765c1.634 0 2.921-.252 3.863-.755a5.3 5.3 0 0 0 2.128-1.96 6.91 6.91 0 0 0 .902-2.697 23.93 23.93 0 0 0 .188-2.967 6.93 6.93 0 0 0-.238-1.895c-.15-.54-.437-1.033-.834-1.43a3.77 3.77 0 0 0-1.599-.9c-.67-.203-1.515-.305-2.535-.305-2.178 0-3.858.68-5.039 2.041s-1.771 3.323-1.772 5.887c0 3.321 1.645 4.982 4.936 4.981zm24.272-15.056l-.307 2.142h-.34c-1.272 0-2.321.149-3.149.448a4.88 4.88 0 0 0-2.009 1.293 5.55 5.55 0 0 0-1.158 2.073 18.25 18.25 0 0 0-.63 2.785l-1.191 8.362h-2.179l2.417-17.061h2.179l-.34 2.871c.93-1.027 1.934-1.768 3.012-2.223 1.06-.451 2.2-.683 3.353-.683l.342-.008zm15.862.034h2.179l-2.383 17.061h-2.178l.341-2.766a8.56 8.56 0 0 1-3.03 2.142c-1.07.435-2.215.658-3.37.657-.781.002-1.556-.121-2.297-.365a5.24 5.24 0 0 1-1.924-1.114 4.78 4.78 0 0 1-1.243-1.879c-.284-.754-.346-1.653-.188-2.697l1.599-11.042h2.213l-1.599 11.008c-.1.595-.047 1.205.153 1.774.174.471.46.892.834 1.227a3.49 3.49 0 0 0 1.276.712 4.86 4.86 0 0 0 1.486.232c1.271 0 2.321-.149 3.149-.448a4.88 4.88 0 0 0 2.009-1.293 5.55 5.55 0 0 0 1.157-2.072c.282-.911.493-1.842.63-2.785l1.186-8.351zm7.659 0h2.174l-2.417 17.061h-2.176l2.419-17.061zm.528-5.642a1.97 1.97 0 0 1 .648-.432 1.96 1.96 0 0 1 .765-.146c.206-.008.41.028.601.104a1.47 1.47 0 0 1 .506.338c.141.149.251.324.324.516a1.54 1.54 0 0 1 .101.601 1.79 1.79 0 0 1-.155.756c-.106.238-.262.45-.458.621a2.01 2.01 0 0 1-1.395.561 1.46 1.46 0 0 1-.6-.095 1.45 1.45 0 0 1-.838-.839c-.073-.191-.105-.395-.094-.599-.003-.26.049-.517.152-.756s.253-.453.443-.631zm18.331 19.899c-.885.979-1.838 1.699-2.859 2.158a8.42 8.42 0 0 1-3.472.685c-2.314 0-4.056-.629-5.225-1.888s-1.754-2.952-1.756-5.081a13.85 13.85 0 0 1 .596-4.217c.358-1.18.968-2.268 1.787-3.191.818-.896 1.831-1.592 2.961-2.035 1.18-.477 2.552-.716 4.119-.716 1.092-.015 2.174.216 3.166.674.953.45 1.758 1.185 2.417 2.206l1.361-10.633h2.213l-3.438 24.845h-2.21l.34-2.807zm-5.991.765c1.634 0 2.922-.252 3.864-.755a5.3 5.3 0 0 0 2.127-1.96c.485-.827.792-1.746.903-2.697a23.93 23.93 0 0 0 .188-2.967c.008-.639-.072-1.277-.238-1.895a3.25 3.25 0 0 0-.834-1.43c-.45-.427-1-.736-1.599-.9-.67-.203-1.515-.305-2.536-.305-2.178 0-3.858.68-5.038 2.041s-1.772 3.323-1.773 5.887c0 3.321 1.646 4.982 4.936 4.981z" fill="#000"/></svg>