<svg xmlns="http://www.w3.org/2000/svg" width="144" height="144" fill="none" xmlns:v="https://vecta.io/nano"><path d="M40.847 75.826c-1.405 0-2.529-.422-3.337-1.23s-1.194-1.969-1.194-3.41c0-1.476.386-2.672 1.124-3.515s1.756-1.266 3.056-1.266c1.194 0 2.142.352 2.845 1.09s1.054 1.722 1.054 3.023v1.055h-6.076c.035.879.281 1.547.702 2.039s1.089.703 1.897.703c.527 0 1.054-.035 1.51-.141s.948-.281 1.51-.492v1.582a6.97 6.97 0 0 1-1.44.492c-.492.105-1.054.07-1.651.07zm-.386-7.944c-.632 0-1.124.211-1.475.598s-.597.949-.667 1.722h4.144c0-.738-.176-1.336-.527-1.722s-.843-.598-1.475-.598zm8.042 7.803h-1.932v-12.83h1.932v12.831zm8.465 0l-.386-1.266h-.07c-.421.563-.878.949-1.335 1.125a4.7 4.7 0 0 1-1.721.316c-.878 0-1.581-.246-2.107-.738s-.738-1.16-.738-2.039c0-.949.351-1.652 1.054-2.109s1.756-.738 3.196-.773l1.581-.035v-.492c0-.598-.141-1.02-.422-1.301s-.702-.422-1.264-.422a4.24 4.24 0 0 0-1.335.211 12.74 12.74 0 0 0-1.229.492l-.632-1.371a7.32 7.32 0 0 1 1.616-.598c.597-.141 1.124-.211 1.651-.211 1.159 0 2.037.246 2.634.773s.878 1.301.878 2.39v6.046h-1.37zm-2.88-1.336c.703 0 1.264-.211 1.686-.598s.632-.949.632-1.652v-.773l-1.159.035c-.913.035-1.581.176-2.002.457s-.632.703-.632 1.265c0 .422.105.738.351.949s.632.316 1.124.316zm13.066-1.265c0 .879-.316 1.582-.983 2.039s-1.581.703-2.775.703c-1.229 0-2.178-.176-2.915-.562v-1.687c1.054.492 2.072.738 2.985.738 1.194 0 1.791-.352 1.791-1.09 0-.246-.07-.422-.211-.562a2.97 2.97 0 0 0-.667-.492c-.316-.176-.738-.351-1.264-.562-1.054-.422-1.756-.808-2.142-1.23s-.562-.949-.562-1.582a2.13 2.13 0 0 1 .948-1.828c.632-.457 1.475-.633 2.564-.633a6.89 6.89 0 0 1 3.021.668l-.632 1.441c-.983-.422-1.791-.598-2.494-.598-1.018 0-1.545.281-1.545.879 0 .281.14.527.386.738s.843.457 1.756.809c.738.281 1.299.563 1.651.808s.597.527.773.844c.246.352.316.703.316 1.16zm5.478 1.195a4.85 4.85 0 0 0 1.405-.211v1.441c-.211.105-.492.176-.843.246s-.702.105-1.054.105c-1.826 0-2.739-.984-2.739-2.883v-4.921h-1.229v-.844l1.335-.703.667-1.933h1.194v2.039h2.599v1.476h-2.599v4.886c0 .457.105.809.351 1.02s.562.281.913.281zm3.126-10.124c0-.352.105-.598.281-.809s.457-.281.808-.281a1.19 1.19 0 0 1 .808.281c.211.175.281.457.281.809 0 .316-.105.598-.281.773s-.457.281-.808.281-.632-.105-.808-.281-.281-.457-.281-.773zm2.072 11.53h-1.932v-9.104h1.932v9.104zm6.428.141c-1.37 0-2.423-.387-3.126-1.195s-1.089-1.968-1.089-3.48c0-1.547.386-2.707 1.124-3.55s1.826-1.23 3.231-1.23c.948 0 1.826.176 2.599.527l-.597 1.547c-.808-.316-1.475-.492-2.037-.492-1.581 0-2.353 1.055-2.353 3.129 0 1.019.211 1.793.597 2.32s.983.773 1.721.773c.878 0 1.686-.211 2.459-.633v1.687c-.351.211-.703.352-1.124.422s-.843.176-1.405.176zm10.782-2.742c0 .879-.316 1.582-.983 2.039s-1.581.703-2.775.703c-1.229 0-2.177-.176-2.915-.562v-1.687c1.054.492 2.072.738 2.985.738 1.194 0 1.791-.352 1.791-1.09 0-.246-.07-.422-.211-.562a2.97 2.97 0 0 0-.667-.492c-.316-.176-.738-.351-1.264-.562-1.054-.422-1.756-.808-2.142-1.23s-.562-.949-.562-1.582a2.13 2.13 0 0 1 .948-1.828c.632-.457 1.475-.633 2.564-.633a6.89 6.89 0 0 1 3.02.668l-.632 1.441c-.983-.422-1.791-.598-2.494-.598-1.019 0-1.545.281-1.545.879 0 .281.141.527.386.738s.843.457 1.756.809c.737.281 1.299.563 1.651.808s.597.527.773.844c.246.352.316.703.316 1.16zm6.076 2.742c-1.405 0-2.529-.422-3.337-1.23s-1.194-1.969-1.194-3.41c0-1.476.386-2.672 1.124-3.515s1.756-1.266 3.056-1.266c1.194 0 2.142.352 2.845 1.09s1.053 1.722 1.053 3.023v1.055h-6.076c.035.879.281 1.547.702 2.039s1.088.703 1.897.703c.527 0 1.054-.035 1.51-.141s.949-.281 1.511-.492v1.582c-.457.211-.949.387-1.44.492s-1.019.07-1.651.07zm-.351-7.944c-.633 0-1.124.211-1.475.598s-.597.949-.667 1.722h4.145c0-.738-.176-1.336-.527-1.722s-.878-.598-1.475-.598zm11.766 7.803l-.387-1.266h-.07c-.421.563-.878.949-1.335 1.125s-1.018.316-1.72.316c-.879 0-1.581-.246-2.108-.738s-.737-1.16-.737-2.039c0-.949.351-1.652 1.053-2.109s1.756-.738 3.196-.773l1.581-.035v-.492c0-.598-.141-1.02-.422-1.301s-.702-.422-1.264-.422c-.457 0-.913.07-1.335.211a12.82 12.82 0 0 0-1.229.492l-.632-1.371a7.31 7.31 0 0 1 1.616-.598c.597-.141 1.123-.211 1.65-.211 1.159 0 2.037.246 2.634.773s.878 1.301.878 2.39v6.046h-1.369zm-2.88-1.336c.702 0 1.264-.211 1.686-.598s.632-.949.632-1.652v-.773l-1.159.035c-.913.035-1.581.176-2.002.457s-.632.703-.632 1.265c0 .422.105.738.351.949s.667.316 1.124.316zm11.59-7.944c.386 0 .702.035.948.07l-.175 1.793a3.46 3.46 0 0 0-.843-.105c-.773 0-1.405.246-1.897.773s-.738 1.16-.738 1.969v4.781h-1.931v-9.105h1.51l.246 1.617h.105c.316-.527.703-.984 1.194-1.301s1.019-.492 1.581-.492zm6.322 9.421c-1.37 0-2.423-.387-3.126-1.195s-1.089-1.968-1.089-3.48c0-1.547.387-2.707 1.124-3.55s1.827-1.23 3.232-1.23c.948 0 1.826.176 2.599.527l-.597 1.547c-.808-.316-1.476-.492-2.038-.492-1.58 0-2.353 1.055-2.353 3.129 0 1.019.211 1.793.597 2.32s.984.773 1.721.773c.878 0 1.686-.211 2.459-.633v1.687c-.351.211-.703.352-1.124.422s-.843.176-1.405.176zm12.679-.141h-1.932v-5.624c0-.703-.14-1.23-.421-1.582s-.738-.527-1.335-.527c-.808 0-1.405.246-1.791.738s-.562 1.301-.562 2.425v4.57h-1.932v-12.83h1.932v3.269c0 .527-.035 1.09-.105 1.687h.14a3.03 3.03 0 0 1 1.089-1.02c.457-.246 1.018-.352 1.651-.352 2.212 0 3.301 1.125 3.301 3.34v5.906h-.035z" fill="#000"/><path d="M22.759 67.425h-7.341c.035.176.105.352.141.492.246.844.386 1.722.457 2.636.035.352.035.738.035 1.09l-.035 1.09c-.07.914-.211 1.793-.457 2.636-.035.176-.105.351-.141.492h7.341c2.318 0 4.18-1.898 4.18-4.218s-1.861-4.218-4.18-4.218z" fill="#00a9e5"/><path d="M16.016 72.733c.035-.352.035-.738.035-1.09l-.035-1.09c-.07-.914-.211-1.793-.457-2.636-.035-.176-.105-.352-.141-.492H4.074c-.421 1.336-.632 2.742-.632 4.218s.211 2.882.632 4.218h11.344c.035-.176.105-.352.141-.492.246-.844.386-1.722.457-2.636z" fill="#353535"/><path d="M24.023 77.267h-9.132a14.44 14.44 0 0 1-.948 1.793c-.527.879-1.159 1.652-1.861 2.39l-.738.703c-.492.457-1.054.844-1.616 1.23a13.89 13.89 0 0 0 7.727 2.32c4.882 0 9.167-2.496 11.696-6.257a7.16 7.16 0 0 0-5.128-2.179z" fill="#00bfb3"/><path d="M13.944 79.06c.351-.562.667-1.16.948-1.793H4.601c1.089 2.496 2.88 4.64 5.163 6.117l1.616-1.23c.246-.211.492-.457.738-.703.667-.703 1.3-1.511 1.826-2.39z" fill="#019b8f"/><path d="M12.082 61.835l-.738-.703c-.492-.457-1.054-.844-1.616-1.23-2.248 1.476-4.039 3.621-5.163 6.117h10.291c-.281-.633-.597-1.23-.948-1.793-.492-.879-1.124-1.687-1.826-2.39z" fill="#f9b110"/><path d="M17.456 57.582a13.89 13.89 0 0 0-7.727 2.32l1.616 1.23c.246.211.492.457.738.703.702.738 1.335 1.511 1.861 2.39a14.44 14.44 0 0 1 .948 1.793h9.132a7.16 7.16 0 0 0 5.128-2.179c-2.529-3.761-6.814-6.257-11.696-6.257z" fill="#fed10a"/></svg>