<svg xmlns="http://www.w3.org/2000/svg" width="144" height="144" fill="none" xmlns:v="https://vecta.io/nano"><g clip-path="url(#A)" fill="#000"><path d="M16.391 55.264c-3.746.835-7.594 3.624-9.345 6.76l-.55 1.018 1.568-.896c4.214-2.403 9.121-2.749 13.009-.876 1.588.733 3.481 2.729 4.336 4.5.814 1.71 1.588 4.459 1.771 6.251.122 1.425.142 1.446.529 1.1.611-.55 1.771-3.136 2.097-4.683.835-3.95-.142-7.432-2.83-9.998-2.972-2.851-6.84-4.011-10.586-3.176zM7.84 64.489l-2.321 2.179C2.934 68.928 1 73.143 1 76.523c0 1.609.611 4.134 1.364 5.681 1.649 3.4 5.985 5.722 11.238 6.027 1.914.122 1.934.122 1.446-.244-1.405-.998-2.911-2.668-3.502-3.889-.57-1.161-.672-1.588-.733-3.299-.081-1.731-.02-2.118.407-3.197.896-2.199 2.016-3.177 4.459-3.93 2.199-.672 3.054-1.568 3.848-4.113.448-1.466.305-1.934-.672-2.077-4.173-.611-5.314-1.079-7.329-3.075-.814-.815-1.527-1.324-1.792-1.324s-.998.55-1.893 1.405zm4.662 1.731c.346.244.346.367.122 1.527-.224 1.099-.204 1.344.081 1.771.509.794 1.323.652 2.362-.428.896-.916 1.14-1.018 2.362-.957.468.041.631.122.55.326-.122.326.427.937.855.937.366 0 .366.102-.061.774-1.099 1.772-2.647 2.688-4.581 2.688-2.87-.02-4.703-2.26-4.153-5.152.285-1.487 1.466-2.219 2.463-1.487zm38.742 1.507l-5.456.041v7.738 7.738h1.73 1.73v-3.258-3.258h3.766 3.766v-1.425-1.425h-3.766-3.766v-1.629-1.629h3.868 3.868v-1.405c0-.794-.061-1.446-.142-1.486-.102-.041-2.606-.041-5.599 0zm78.828 7.737v7.799l5.049-.061c5.741-.061 6.128-.163 7.268-1.772.55-.774.611-1.038.611-2.342s-.081-1.588-.57-2.321a4.83 4.83 0 0 0-1.425-1.242c-.468-.244-.692-.428-.509-.428.407 0 1.506-.896 1.832-1.507.692-1.283.468-3.523-.468-4.52-1.059-1.14-1.323-1.201-6.759-1.303l-5.029-.102v7.799zm8.897-4.317c.428.428.489.652.387 1.263-.204 1.283-.631 1.466-3.502 1.466h-2.524v-1.629-1.629h2.545c2.483 0 2.585.02 3.094.529zm.041 6.109c.468.387.631.692.631 1.201 0 1.649-.591 1.934-3.868 1.934h-2.443v-1.833-1.833h2.524c2.423 0 2.565.02 3.156.529zm-26.243-1.752v7.778l4.337-.081 4.316-.061 1.343-.631c2.81-1.344 4.214-3.38 4.398-6.434.224-3.563-1.303-6.21-4.398-7.677-1.099-.509-1.282-.529-5.558-.591l-4.438-.061v7.758zm8.021-4.643c1.079.326 2.464 1.71 2.749 2.729.549 1.955.142 4.072-.957 5.233-1.079 1.14-1.954 1.446-4.316 1.446l-2.138.02-.061-4.846-.04-4.826h1.954c1.079 0 2.341.122 2.809.244zm-88.843-2.097c0 .224-.265 1.201-.59 2.158-1.568 4.704-5.232 8.572-9.182 9.774-2.097.611-7.064.611-9.202-.02-1.038-.305.163 2.097 1.954 3.91 2.911 2.932 6.535 3.93 10.668 2.932 7.471-1.792 11.156-8.104 8.876-15.272-.692-2.199-2.524-4.724-2.524-3.482zm73.025.164c-.081.061-.142.794-.142 1.629v1.486h-.916-.917v1.222 1.222h.896.896l.081 3.502c.062 3.91.245 4.561 1.385 5.152.712.367 3.013.407 3.766.061.57-.244.591-.489.224-1.69-.224-.794-.244-.814-1.079-.753-1.181.102-1.282-.204-1.282-3.502v-2.769h1.119 1.12v-1.222-1.222h-1.12-1.119v-1.629-1.629h-1.385c-.773 0-1.466.061-1.527.142zm-41.897 2.993c-1.588.428-2.932 1.629-3.644 3.238-.651 1.446-.611 3.706.102 5.152.631 1.303 1.832 2.382 3.115 2.81 1.995.692 5.66.204 6.616-.855.305-.346.305-.428-.204-1.181l-.59-.876c-.041-.041-.489.143-.998.387-1.995.957-4.092.59-4.988-.855-.733-1.201-.794-1.181 3.766-1.181h4.173v-.977c0-1.71-.529-3.014-1.69-4.215-1.547-1.588-3.4-2.057-5.66-1.446zm3.074 2.423c.529.265 1.425 1.446 1.425 1.894 0 .224-.57.285-2.748.285s-2.748-.061-2.748-.285c0-.448.896-1.629 1.425-1.894.651-.326 1.995-.326 2.647 0zm12.154-2.423c-.407.163-1.079.529-1.466.814l-.713.55v-.611-.631h-1.527-1.527v5.6 5.6h1.527 1.527v-3.869-3.889l1.079-.489c.57-.285 1.364-.509 1.73-.509h.651v-1.425c0-1.568-.02-1.588-1.283-1.14zm9.202-.102a5.13 5.13 0 0 0-2.056 1.201l-.57.529v-.753-.753h-1.425-1.425v5.6 5.6h1.425 1.425v-3.767-3.767l.774-.509c.468-.306 1.221-.57 1.832-.652l1.059-.122v-1.385c0-1.487-.02-1.507-1.038-1.222zm6.576.184a5.66 5.66 0 0 0-3.176 2.688c-.57 1.038-.631 1.263-.631 2.953.02 1.466.102 1.996.468 2.667.611 1.181 1.588 2.097 2.85 2.688.977.448 1.303.489 3.054.407 1.649-.081 2.158-.183 3.054-.631.57-.306 1.059-.652 1.059-.753 0-.224-1.018-1.833-1.16-1.833-.041 0-.448.183-.875.407-2.219 1.14-4.54.489-5.273-1.486l-.224-.55h4.316 4.296l-.142-1.222c-.184-1.568-.489-2.403-1.263-3.502-1.282-1.833-4.092-2.627-6.352-1.833zm3.42 2.403c.59.366 1.222 1.262 1.222 1.792 0 .285-.366.326-2.769.326h-2.748l.142-.468c.224-.733.713-1.364 1.283-1.67.712-.387 2.178-.387 2.87.02z"/></g><defs><clipPath id="A"><path fill="#fff" transform="translate(1 55)" d="M0 0h142v33.304H0z"/></clipPath></defs></svg>