<svg xmlns="http://www.w3.org/2000/svg" width="144" height="144" fill="none" xmlns:v="https://vecta.io/nano"><g clip-path="url(#A)"><path d="M44.784 79.395h-1.625V69.007h6.535v1.468h-4.911v3.189h4.497v1.425h-4.497v4.304zm10.169-1.224c1.349 0 2.118-.993 2.118-2.699 0-1.699-.769-2.692-2.118-2.692-1.356 0-2.118.993-2.118 2.692 0 1.713.762 2.699 2.118 2.699zm0 1.375c-2.314 0-3.728-1.533-3.728-4.074 0-2.526 1.422-4.067 3.728-4.067 2.299 0 3.721 1.54 3.721 4.067 0 2.541-1.414 4.074-3.721 4.074zm12.251-7.99v7.839h-1.502v-1.245h-.123c-.384.893-1.189 1.396-2.386 1.396-1.748 0-2.72-1.058-2.72-2.901v-5.089h1.56v4.686c0 1.267.515 1.872 1.661 1.872 1.262 0 1.951-.741 1.951-1.972v-4.585h1.56zm2.263 7.839v-7.839h1.501v1.245h.116c.385-.871 1.168-1.396 2.357-1.396 1.763 0 2.735 1.051 2.735 2.915v5.075h-1.559v-4.686c0-1.26-.551-1.886-1.705-1.886s-1.886.763-1.886 1.987v4.585h-1.559zm11.787.13c-2.009 0-3.278-1.569-3.278-4.053 0-2.476 1.284-4.045 3.278-4.045 1.081 0 1.995.511 2.423 1.375h.116v-4.305h1.559v10.898h-1.494v-1.238h-.123c-.471.856-1.393 1.368-2.481 1.368zm.443-6.709c-1.313 0-2.111 1.008-2.111 2.656 0 1.663.791 2.663 2.111 2.663 1.313 0 2.125-1.015 2.125-2.656 0-1.634-.82-2.663-2.125-2.663zm8.573 5.406c1.175 0 2.046-.742 2.046-1.713v-.655l-1.929.122c-1.088.072-1.581.439-1.581 1.13 0 .706.617 1.116 1.465 1.116zm-.399 1.303c-1.523 0-2.633-.914-2.633-2.347 0-1.411 1.059-2.224 2.938-2.339l2.14-.122v-.677c0-.828-.551-1.296-1.617-1.296-.87 0-1.472.317-1.647.871h-1.509c.16-1.346 1.436-2.21 3.228-2.21 1.98 0 3.097.979 3.097 2.635v5.355h-1.501v-1.101h-.123c-.471.784-1.335 1.231-2.372 1.231zm6.767-9.919h1.559v1.987h1.712v1.303h-1.712v4.031c0 .821.341 1.18 1.117 1.18.239 0 .377-.014.595-.036v1.289c-.254.043-.544.079-.849.079-1.734 0-2.423-.605-2.423-2.116v-4.427h-1.255v-1.303h1.255v-1.987zm5.135 9.79v-7.839h1.553v7.839h-1.553zm.777-9.214c-.581 0-1.009-.41-1.009-.943 0-.54.428-.95 1.009-.95s1.008.41 1.008.95c0 .533-.428.943-1.008.943zm6.404 7.99c1.349 0 2.118-.993 2.118-2.699 0-1.699-.769-2.692-2.118-2.692-1.356 0-2.118.993-2.118 2.692 0 1.713.762 2.699 2.118 2.699zm0 1.375c-2.314 0-3.728-1.533-3.728-4.074 0-2.526 1.422-4.067 3.728-4.067 2.299 0 3.721 1.54 3.721 4.067 0 2.541-1.414 4.074-3.721 4.074zm5.592-.151v-7.839h1.502v1.245h.116c.384-.871 1.168-1.396 2.357-1.396 1.763 0 2.735 1.051 2.735 2.915v5.075h-1.56v-4.686c0-1.26-.551-1.886-1.704-1.886s-1.886.763-1.886 1.987v4.585h-1.56zM123.583 69h4.12c3.112 0 4.91 1.872 4.91 5.125 0 3.376-1.777 5.269-4.91 5.269h-4.12V69zm2.19 1.857v6.68h1.582c1.936 0 3.024-1.181 3.024-3.376 0-2.102-1.124-3.304-3.024-3.304h-1.582zm13.608 8.537h-4.701V69.007h4.577c2.031 0 3.243.986 3.243 2.591 0 1.101-.82 2.059-1.894 2.217v.13c1.386.101 2.394 1.137 2.394 2.476 0 1.821-1.385 2.973-3.619 2.973zm-2.51-8.724v2.642h1.647c1.182 0 1.827-.482 1.827-1.317 0-.828-.602-1.324-1.646-1.324h-1.828zm0 7.061h1.951c1.262 0 1.944-.525 1.944-1.497 0-.95-.704-1.454-1.995-1.454h-1.9v2.951z" fill="#0081ff"/><path d="M1 79.371v-.841h6.728v-3.419l6.685.665v2.754h6.78v-3.419l11.889 1.235v3.025H1z" fill="#0073e0"/><path d="M1 73.971l6.728-.979v-3.419l6.685 1.644v2.754l6.78-.979v-3.419l11.889 2.974v3.039l-11.889-1.644-6.78.884-6.685-.884L1 74.825v-.855z" fill="#289dfc"/><path d="M14.413 69.46l6.78-2.042V64l11.889 4.843v2.944l-11.889-3.324-6.78 1.852v-.855z" fill="#9acefe"/></g><defs><clipPath id="A"><path fill="#fff" transform="translate(1 64)" d="M0 0h142v15.546H0z"/></clipPath></defs></svg>