<svg xmlns="http://www.w3.org/2000/svg" width="144" height="144" fill="#231f20" xmlns:v="https://vecta.io/nano"><path d="M15.948 45.676a3.84 3.84 0 0 0-2.772-1.189c-1.044 0-2.016.432-2.736 1.189s-1.152 1.766-1.116 2.811c0 1.045.396 2.054 1.116 2.811s1.728 1.153 2.736 1.153c1.044 0 2.052-.396 2.772-1.153s1.152-1.766 1.116-2.811c.036-1.045-.396-2.054-1.116-2.811zm-2.772 54.495a3.95 3.95 0 0 0 2.772-1.153c.72-.757 1.152-1.766 1.116-2.811a4.1 4.1 0 0 0-1.116-2.847c-.72-.757-1.728-1.153-2.772-1.153s-2.016.396-2.736 1.153c-.756.757-1.152 1.802-1.116 2.847 0 1.045.432 2.018 1.152 2.739.72.757 1.728 1.153 2.736 1.153l-.036.072zm21.276-12.038c1.008-.252 1.872-.937 2.376-1.838l.072-.144a3.92 3.92 0 0 0 .324-2.847 3.86 3.86 0 0 0-1.836-2.415l-.072-.036a3.9 3.9 0 0 0-5.292 1.514c-1.08 1.91-.468 4.325 1.44 5.442.9.469 1.98.613 2.988.324zm-17.28-19.895c-2.16-2.199-5.688-2.271-7.884-.108l-.108.108c-1.08 1.081-1.656 2.559-1.656 4.073s.576 2.991 1.656 4.073c2.16 2.199 5.724 2.235 7.92.072l.072-.072c1.044-1.081 1.656-2.559 1.656-4.073a5.82 5.82 0 0 0-1.656-4.073zm-2.268-6.776a10.85 10.85 0 0 1 5.868 3.1l.72.793 3.888-2.307c-1.224-3.82.324-8.037 3.816-10.092l.072-.036c1.908-1.117 4.176-1.406 6.336-.829 2.16.613 4.032 2.054 5.112 4.001a8.7 8.7 0 0 1 .828 6.488 8.59 8.59 0 0 1-3.924 5.226l-.54.324h-.072c-1.8.865-3.852 1.081-5.796.541-1.584-.433-2.988-1.334-4.068-2.559l-3.888 2.307c.468 1.225.72 2.559.72 3.893a10.97 10.97 0 0 1-.72 3.892l3.888 2.271c1.08-1.225 2.484-2.126 4.068-2.559a8.15 8.15 0 0 1 6.408.865l.144.072a8.46 8.46 0 0 1 3.78 5.154c.576 2.199.288 4.541-.828 6.488l-.072.144c-1.116 1.91-2.916 3.28-5.04 3.892-2.16.577-4.464.288-6.408-.865-3.456-2.054-5.04-6.235-3.816-10.092l-3.888-2.307c-.216.288-.468.541-.72.793-1.584 1.622-3.636 2.703-5.868 3.064v4.577c1.584.361 3.06 1.153 4.212 2.343 3.312 3.352 3.312 8.758 0 12.146-3.204 3.279-8.46 3.352-11.772.144l-.144-.144c-3.312-3.352-3.312-8.758 0-12.146 1.152-1.153 2.592-1.982 4.212-2.343v-4.577c-2.232-.36-4.284-1.442-5.868-3.064a11.13 11.13 0 0 1 0-15.534 10.85 10.85 0 0 1 5.868-3.1v-4.505c-1.584-.36-3.06-1.153-4.212-2.343-3.312-3.352-3.312-8.758 0-12.146 3.204-3.28 8.46-3.352 11.736-.144.072.036.108.108.144.144 3.312 3.388 3.312 8.758 0 12.146-1.152 1.153-2.592 1.982-4.212 2.343l.036 4.541zm21.924-3.028v-.036c-.504-.901-1.368-1.55-2.34-1.802a3.78 3.78 0 0 0-2.988.396c-.9.541-1.548 1.406-1.8 2.415s-.144 2.09.396 3.027c.504.901 1.368 1.55 2.376 1.838s2.052.144 2.952-.397h.036c.864-.541 1.512-1.406 1.764-2.379.252-1.081.108-2.163-.396-3.064zm17.28 1.335h4.356v13.552l6.264-7.064h5.22l-7.56 8.182 7.596 10.38H64.98l-6.552-9.263v9.263h-4.356l.036-25.049zm20.917 15.822a5.52 5.52 0 0 0 5.4 5.659h.144c2.052.072 3.96-1.117 4.86-2.992.432-.793.648-1.694.72-2.595.036-.901-.144-1.802-.504-2.595-.864-2.018-2.88-3.352-5.076-3.28-3.528 0-5.544 2.883-5.544 5.803zm15.408 9.227h-4.356V82.15c-1.152 2.126-3.564 3.244-6.156 3.244-5.832 0-9.252-4.649-9.252-9.875 0-5.839 4.14-9.839 9.252-9.839 3.312 0 5.364 1.802 6.156 3.28v-2.703h4.356v18.562zm4.895-15.173H93.06v-3.424h2.268v-1.045c0-5.514 4.104-5.839 7.236-5.875v3.424c-1.116 0-2.88 0-2.88 2.595v.901h2.88v3.424h-2.88v15.138h-4.356V69.645zm10.224-9.876h4.356v13.552l6.264-7.064h5.22l-7.56 8.145 7.596 10.38h-5.004l-6.552-9.263v9.263h-4.356l.036-25.013zm20.88 15.822a5.52 5.52 0 0 0 5.4 5.659h.144c2.052.072 3.96-1.117 4.86-2.992.432-.793.648-1.694.72-2.595.036-.901-.144-1.802-.504-2.595-.864-2.054-2.88-3.352-5.076-3.28-3.528 0-5.508 2.883-5.544 5.803zm15.408 9.227h-4.356V82.15c-1.152 2.126-3.564 3.244-6.156 3.244-5.832 0-9.252-4.649-9.252-9.875 0-5.839 4.14-9.839 9.252-9.839 3.312 0 5.364 1.802 6.156 3.28v-2.703h4.356v18.562z"/></svg>