<svg xmlns="http://www.w3.org/2000/svg" width="144" height="144" fill="none" xmlns:v="https://vecta.io/nano"><path d="M1.584 78.942v-12.55c0-10.137 1.44-11.585 11.518-11.585h12.515c10.078 0 11.517 1.448 11.517 11.585v12.55c0 10.137-1.44 11.585-11.518 11.585H13.102c-10.078 0-11.518-1.448-11.518-11.585z" fill="url(#A)"/><path d="M9.259 61.543c-1.747 11.128-.833 21.545-.833 21.545h5.462c-.52-2.778-2.384-15.469-.833-15.511.831.133 4.629 10.767 4.629 10.767s.836-.105 1.678-.105 1.678.105 1.678.105 3.798-10.635 4.629-10.767c1.552.042-.313 12.733-.832 15.511h5.462s.914-10.418-.834-21.546h-5.057c-.963.011-4.625 6.465-5.046 6.465s-4.083-6.453-5.046-6.464H9.259z" fill="url(#B)"/><path d="M18.285 81.789c0 .717-.579 1.298-1.293 1.298s-1.292-.582-1.292-1.298.579-1.299 1.292-1.299 1.293.582 1.293 1.299z" fill="url(#C)"/><path d="M23.025 81.789c0 .717-.579 1.298-1.292 1.298s-1.292-.582-1.292-1.298.578-1.299 1.292-1.299 1.292.582 1.292 1.299h0z" fill="url(#D)"/><path opacity=".1" d="M29.207 61.91c.788 5.361.973 10.506.959 14.339-.015 3.92-.238 6.467-.238 6.467h-4.599l-.494.372h5.463s.914-10.418-.833-21.546l-.257.368zm-14.474-.135c1.435 1.604 3.918 5.86 4.258 5.86-.91-1.169-3.144-4.899-4.258-5.86zm-2.048 5.43c-1.551.042.314 12.733.833 15.511H8.75l-.324.372h5.462c-.517-2.764-2.365-15.342-.857-15.511-.14-.212-.262-.359-.347-.372h0zm12.614 0c-.831.133-4.629 10.767-4.629 10.767s-.836-.105-1.678-.105a13.2 13.2 0 0 0-1.216.058l-.09.419s.836-.105 1.678-.105a15.47 15.47 0 0 1 1.678.105s3.769-10.565 4.618-10.767c-.091-.233-.204-.368-.359-.372H25.3z" fill="#1c1c1c"/><path opacity=".3" d="M9.26 61.543c-1.748 11.127-.834 21.545-.834 21.545l.322-.363c-.165-2.458-.604-11.346.882-20.81h5.057c.107.001.25.089.417.232-.331-.37-.606-.602-.787-.605l-5.056.001zm15.148 0c-.963.011-4.625 6.465-5.046 6.465.172.221.311.373.37.373.421 0 4.083-6.454 5.046-6.465h4.463l.224-.372h-5.057zm-11.005 6.407c1.229 1.854 4.282 10.395 4.282 10.395l.089-.417c-.754-2.077-3.626-9.863-4.348-9.978-.008 0-.016-.001-.023 0zm12.637 0c.824 2.112-.736 12.64-1.204 15.138l.496-.388c.633-3.728 2.155-14.711.708-14.75h-.001z" fill="#fff"/><g fill="#2a9790"><path d="M44.596 76.923h-1.229v-8.471h8.055v8.471h-1.228v-7.236h-5.597l-.001 7.236z"/><path d="M46.779 69.068h1.231v7.854h-1.231v-7.854zm15.218.618h-6.29v6.009h6.29v1.237h-7.518v-8.491h7.518v1.246z"/><path d="M55.091 72.078h3.454v1.237h-3.454v-1.237zm10.774 4.845h-1.23v-8.471h7.976v8.471h-1.231v-7.236h-5.516v7.236z"/><path d="M68.009 69.068h1.231v7.854h-1.231v-7.854zm15.297.618h-6.212v6.009h6.211v1.237h-7.438v-8.491h7.438l.001 1.246zm4.423 7.236h-1.228v-8.471h7.897v8.471h-1.231v-7.236H87.73v7.236z"/><path d="M87.513 72.078h6.267v1.237h-6.267v-1.237zm17.459-2.379h-6.687v6.009h6.687v1.237h-7.916v-8.491h7.916V69.7zm2.837-1.269h1.231v8.493h-1.231V68.43zm7.037-.04h1.231v8.533h-1.231V68.39z"/><path d="M108.426 72.078h6.548v1.237h-6.548v-1.237zm17.698-2.378h-6.528v6.009h6.528v1.237h-7.758v-8.491h7.758V69.7z"/><path d="M118.98 72.078h3.57v1.237h-3.57v-1.237zm16.408 4.865h-6.267v-8.491h6.3l.178.171c1.393 1.346 2.065 2.783 2 4.275-.1 2.311-1.964 3.846-2.044 3.908l-.167.136zm-5.039-1.237h4.585c.374-.369 1.376-1.457 1.433-2.873.043-1.058-.447-2.128-1.453-3.147h-4.567l.002 6.02z"/></g><defs><linearGradient id="A" x1="19.359" y1="90.526" x2="19.359" y2="54.807" gradientUnits="userSpaceOnUse"><stop stop-color="#574c4a"/><stop offset="1" stop-color="#80716d"/></linearGradient><linearGradient id="B" x1="28.01" y1="82.742" x2="14.825" y2="59.726" gradientUnits="userSpaceOnUse"><stop stop-color="#268d83"/><stop offset="1" stop-color="#2ea19e"/></linearGradient><radialGradient id="C" cx="0" cy="0" r="1" gradientUnits="userSpaceOnUse" gradientTransform="translate(16.7698 81.5997) scale(1.29272 1.29888)"><stop stop-color="#db7c7c"/><stop offset="1" stop-color="#c83737"/></radialGradient><radialGradient id="D" cx="0" cy="0" r="1" gradientUnits="userSpaceOnUse" gradientTransform="translate(21.5836 81.5997) scale(1.29272 1.29888)"><stop stop-color="#db7c7c"/><stop offset="1" stop-color="#c83737"/></radialGradient></defs></svg>