<svg xmlns="http://www.w3.org/2000/svg" width="144" height="144" fill="none" xmlns:v="https://vecta.io/nano"><g clip-path="url(#A)" fill="#001e2b"><path d="M11.608 57.691l-2.831-3.672c-.026-.026-.064-.026-.09 0l-2.831 3.672c-11.93 15.216 1.879 25.485 1.879 25.485l.116.077c.103 1.585.36 3.865.36 3.865h.515.515s.257-2.268.36-3.865l.116-.09c.013.013 13.822-10.256 1.892-25.472zM8.725 82.944s-.618-.528-.785-.799v-.026l.746-16.569c0-.051.077-.051.077 0l.747 16.57v.026c-.167.27-.785.799-.785.799zm25.842-3.38l-5.754-14.055-.013-.039h-4.477v.945h.723a.82.82 0 0 1 .581.246c.155.155.232.363.232.583L25.73 81.39c0 .44-.361.802-.8.815l-.735.013v.932h4.361v-.932l-.452-.013c-.439-.013-.8-.375-.8-.815V68.058l6.27 15.091c.09.22.297.362.529.362s.439-.142.529-.362l6.128-14.754.09 12.994a.83.83 0 0 1-.813.828h-.465v.932h5.109v-.932h-.697c-.439 0-.8-.375-.813-.815l-.039-14.146a.83.83 0 0 1 .8-.828l.748-.013v-.945h-4.361l-5.754 14.094zm40.122 2.406c-.142-.143-.22-.337-.22-.57v-6.95c0-1.322-.388-2.36-1.164-3.099-.763-.739-1.824-1.115-3.143-1.115-1.85 0-3.312.752-4.334 2.23-.013.026-.052.039-.09.039s-.065-.026-.065-.065l-.479-1.854h-.802l-2.057 1.18v.648h.53c.246 0 .453.065.595.195s.22.324.22.596v8.181c0 .233-.078.428-.22.57a.78.78 0 0 1-.569.22h-.518v.947h4.734v-.947h-.517a.78.78 0 0 1-.569-.22c-.142-.143-.22-.337-.22-.57v-5.419c0-.687.155-1.374.44-2.049a4.1 4.1 0 0 1 1.319-1.646c.582-.428 1.281-.635 2.083-.635.905 0 1.591.285 2.018.856s.647 1.309.647 2.191v6.69c0 .233-.078.428-.22.57a.78.78 0 0 1-.569.22h-.517v.946h4.734v-.946h-.517c-.194.026-.375-.052-.53-.194zm43.254-15.442c-1.308-.697-2.771-1.058-4.349-1.058h-6.159v.942h.604c.23 0 .436.09.641.297.192.194.295.413.295.645V81.24c0 .232-.103.452-.295.645s-.411.297-.641.297h-.604v.942h6.159c1.578 0 3.041-.361 4.349-1.058s2.374-1.73 3.144-3.046 1.167-2.904 1.167-4.711-.398-3.381-1.167-4.711a8.01 8.01 0 0 0-3.144-3.072zm1.835 7.756c0 1.652-.295 3.046-.873 4.168s-1.347 1.962-2.296 2.504-2.002.813-3.131.813h-1.244c-.231 0-.436-.09-.642-.297-.192-.194-.295-.413-.295-.645V67.728c0-.232.09-.439.295-.645.193-.194.411-.297.642-.297h1.244a6.23 6.23 0 0 1 3.131.813c.949.542 1.719 1.381 2.296 2.504.578 1.136.873 2.542.873 4.182zm17.033.942c-.57-.658-1.669-1.213-2.961-1.51 1.784-.89 2.702-2.142 2.702-3.755 0-.878-.232-1.665-.699-2.336s-1.124-1.213-1.965-1.587-1.824-.568-2.936-.568h-6.971v.942h.556c.233 0 .44.09.647.297.194.194.297.413.297.645V81.24c0 .232-.103.452-.297.645s-.414.297-.647.297h-.608v.942h7.567c1.15 0 2.224-.194 3.194-.581s1.746-.955 2.303-1.703c.568-.749.853-1.665.853-2.723-.013-1.136-.35-2.104-1.035-2.891zm-8.678 6.259c-.195-.194-.298-.413-.298-.645v-6.234h3.596c1.267 0 2.237.323 2.91.968s1.009 1.484 1.009 2.517c0 .62-.156 1.226-.44 1.781-.297.568-.738 1.02-1.332 1.368-.583.349-1.307.529-2.147.529h-2.652c-.233 0-.44-.09-.646-.284zm-.285-8.208v-5.536c0-.232.09-.439.297-.645.194-.194.414-.297.647-.297h1.707c1.228 0 2.134.31 2.704.903.568.607.853 1.381.853 2.336 0 .981-.272 1.768-.802 2.362-.53.581-1.332.878-2.392.878h-3.014zM56.666 71.06a6.77 6.77 0 0 0-3.286-.823c-1.194 0-2.31.27-3.286.823-.988.54-1.771 1.325-2.349 2.315s-.873 2.148-.873 3.434.295 2.444.873 3.434 1.361 1.775 2.349 2.315a6.77 6.77 0 0 0 3.286.823c1.194 0 2.31-.27 3.286-.823.988-.54 1.771-1.325 2.349-2.315s.873-2.148.873-3.434-.295-2.444-.873-3.434-1.36-1.775-2.349-2.315zm.95 5.749c0 1.582-.385 2.868-1.155 3.794-.757.926-1.797 1.402-3.08 1.402s-2.323-.476-3.08-1.402c-.77-.926-1.155-2.212-1.155-3.794s.385-2.868 1.155-3.794c.757-.926 1.797-1.402 3.08-1.402s2.323.476 3.08 1.402c.77.926 1.155 2.212 1.155 3.794zm44.536-5.749a6.77 6.77 0 0 0-3.285-.823c-1.193 0-2.31.27-3.286.823-.988.54-1.771 1.325-2.349 2.315s-.873 2.148-.873 3.434.295 2.444.873 3.434 1.36 1.775 2.349 2.315a6.77 6.77 0 0 0 3.286.823c1.193 0 2.31-.27 3.285-.823a6.06 6.06 0 0 0 2.349-2.315c.578-.99.873-2.148.873-3.434s-.295-2.444-.873-3.434-1.373-1.775-2.349-2.315zm.95 5.749c0 1.582-.385 2.868-1.155 3.794-.757.926-1.797 1.402-3.08 1.402s-2.323-.476-3.08-1.402c-.77-.926-1.155-2.212-1.155-3.794 0-1.595.385-2.868 1.155-3.794.757-.926 1.797-1.402 3.08-1.402s2.323.476 3.08 1.402 1.155 2.212 1.155 3.794zm-19.294-6.572c-1.034 0-1.978.22-2.831.659s-1.525 1.034-2.004 1.796c-.478.749-.724 1.589-.724 2.481 0 .801.181 1.538.556 2.197.362.633.853 1.163 1.474 1.602l-1.849 2.507c-.233.31-.258.724-.09 1.059.181.349.517.556.905.556h.53c-.517.349-.931.762-1.215 1.253a3.31 3.31 0 0 0-.504 1.731c0 1.111.491 2.029 1.461 2.714.957.685 2.301 1.034 3.994 1.034 1.176 0 2.301-.194 3.322-.569 1.034-.375 1.874-.93 2.495-1.654a3.85 3.85 0 0 0 .957-2.61c0-1.059-.388-1.809-1.293-2.532-.775-.607-1.991-.93-3.503-.93h-5.17c-.013 0-.026-.013-.026-.013s-.013-.026 0-.039l1.344-1.809a4.76 4.76 0 0 0 .995.336c.31.065.659.091 1.047.091 1.086 0 2.068-.22 2.921-.659s1.538-1.034 2.029-1.796a4.46 4.46 0 0 0 .737-2.481c0-.956-.465-2.701-1.732-3.592l2.792.297v-1.279H85.98c-.698-.22-1.422-.349-2.171-.349zm1.551 8.088a3.34 3.34 0 0 1-1.551.401c-.866 0-1.629-.31-2.275-.917s-.969-1.499-.969-2.636.323-2.029.969-2.636 1.409-.917 2.275-.917c.543 0 1.06.129 1.551.401.491.258.892.659 1.215 1.189.31.53.478 1.189.478 1.964 0 .788-.155 1.447-.478 1.964-.31.53-.724.93-1.215 1.189zm-3.503 4.755h3.503c.969 0 1.59.194 2.004.607s.62.969.62 1.615a2.78 2.78 0 0 1-1.124 2.3c-.749.582-1.758.879-2.999.879-1.086 0-1.991-.245-2.65-.711s-.995-1.176-.995-2.08c0-.569.155-1.098.465-1.563s.685-.801 1.176-1.047zm58.612-.171c-.255-.14-.447-.343-.6-.584a1.64 1.64 0 0 1-.218-.812c0-.292.077-.571.218-.812a1.47 1.47 0 0 1 .6-.584 1.76 1.76 0 0 1 .857-.216c.32 0 .601.076.857.216a1.65 1.65 0 0 1 .6.584 1.64 1.64 0 0 1 .218.812c0 .292-.077.571-.218.812-.14.254-.345.444-.6.584s-.537.216-.857.216c-.307 0-.6-.063-.857-.216zm1.574-.178c.216-.114.371-.292.498-.495a1.52 1.52 0 0 0 .179-.723 1.52 1.52 0 0 0-.179-.723 1.18 1.18 0 0 0-.498-.495 1.5 1.5 0 0 0-.717-.178c-.268 0-.499.063-.716.178s-.371.292-.499.495c-.115.216-.179.456-.179.723s.064.507.179.723.282.38.499.495.448.178.716.178.512-.063.717-.178zm-1.408-.444v-.114l.026-.013h.077a.1.1 0 0 0 .064-.025c.025-.025.025-.038.025-.063v-1.18c0-.025-.012-.051-.025-.063-.026-.025-.039-.025-.064-.025h-.077l-.026-.013v-.114l.026-.013h.665c.192 0 .333.038.447.127s.166.203.166.355a.39.39 0 0 1-.127.304.5.5 0 0 1-.32.152l.154.051.293.469c.026.038.052.051.091.051h.076l.013.013v.114l-.013.013h-.396l-.026-.013-.409-.685h-.102v.457c0 .025.013.051.026.063.025.025.038.025.063.025h.077l.026.013v.114l-.026.013h-.678l-.026-.013zm.652-.837c.103 0 .192-.025.244-.089a.35.35 0 0 0 .089-.241.37.37 0 0 0-.076-.241c-.052-.063-.129-.089-.218-.089h-.051c-.026 0-.051.013-.064.025-.025.025-.025.038-.025.063v.571h.101z"/></g><defs><clipPath id="A"><path fill="#fff" transform="translate(1 54)" d="M0 0h142v35.826H0z"/></clipPath></defs></svg>