<svg xmlns="http://www.w3.org/2000/svg" width="144" height="144" fill="none" xmlns:v="https://vecta.io/nano"><path d="M96.655 51.523l-15.293 5.007-13.305 5.888-3.722.985-3.017 2.747-3.121 2.619a23.31 23.31 0 0 0-3.028 3.013c-1.052 1.321-1.884 2.724-2.243 3.802-.636 1.947-.324 3.917.902 5.737 1.572 2.318 4.705 4.682 8.358 6.293 1.861.823 4.994 1.878 7.352 2.469 3.918.997 11.502 2.075 15.674 2.237.844.035 1.977.035 2.023 0 .093-.058.74-1.298 1.492-2.84 2.566-5.251 4.416-10.176 5.421-14.383.601-2.55 1.075-5.946 1.387-9.967a83.65 83.65 0 0 0 .046-6.166c-.104-2.086-.289-3.778-.578-5.436-.046-.243-.058-.464-.035-.475.046-.035.185-.081 2.069-.626l-.381-.904h0 0 0zm-3.491 2.052c.139 0 .508 3.558.601 5.807.023.475.011.788-.012.788-.092 0-1.954-1.101-3.283-1.935-1.156-.73-3.352-2.191-3.699-2.469-.116-.081-.104-.093.844-.417 1.607-.545 5.421-1.773 5.549-1.773zm-7.791 2.573c.104 0 .37.151 1.006.545 2.381 1.495 5.618 3.303 7.005 3.906.428.185.474.116-.509.788-2.104 1.437-4.728 2.851-7.942 4.277-.566.255-1.04.452-1.052.452-.023 0 .046-.29.138-.637.775-2.886 1.214-5.807 1.237-8.148.012-1.159.012-1.159.116-1.194-.023.012-.012.012 0 .012zm-1.607.614c.069.069.023 2.666-.069 3.373-.208 1.692-.532 3.268-1.063 5.042-.127.428-.243.788-.266.811-.046.058-1.63-1.495-2.15-2.098-.902-1.043-1.607-2.086-2.127-3.106-.266-.522-.682-1.541-.647-1.576.185-.127 6.277-2.492 6.323-2.445zm-7.56 2.979c.011 0 .023 0 .035.011.023.023.104.209.173.417.37 1.008 1.202 2.492 1.919 3.442.786 1.043 1.815 2.156 2.67 2.886l.566.487c.07.07.093.058-1.792.777-2.184.834-4.566 1.669-7.294 2.55l-1.953.638c-.104.035-.07-.023.231-.498 1.352-2.121 3.41-6.282 4.566-9.226l.428-1.136c.046-.162.104-.22.254-.302.081-.023.162-.046.197-.046zm-2.312.962c.035.023-.555 1.263-1.133 2.399-1.121 2.19-2.347 4.346-3.988 6.966l-.578.916c-.058.081-.081.058-.266-.301-.393-.777-.717-1.773-.89-2.689-.173-.904-.139-2.48.058-3.454.15-.718.139-.707.486-.881 1.48-.753 6.265-3.002 6.312-2.956zm19.94.812v.487a63.21 63.21 0 0 1-.682 8.716l-.139.835-.728-.209c-1.734-.545-3.618-1.344-5.317-2.283-1.122-.614-2.751-1.623-2.705-1.669.011-.011.497-.267 1.063-.568 2.266-1.182 4.439-2.457 6.323-3.72.705-.475 1.768-1.24 2-1.449l.185-.139zm-28.668 3.43c.046 0 .035.093-.035.51a16.46 16.46 0 0 0-.127 1.24c-.093 1.692.185 2.944 1.017 4.659.231.475.416.869.405.881-.081.07-7.733 2.318-10.138 2.979l-1.387.382c-.081.023-.092.012-.058-.186.266-1.704 1.561-3.929 3.364-5.807 1.202-1.252 2.162-1.982 3.803-2.921l3.133-1.727c0-.012.012-.012.023-.012zM83.2 68.179c.011-.011.289.139.624.336 2.474 1.437 5.918 2.77 8.854 3.454l.266.058-.37.208c-1.537.858-6.589 2.967-11.756 4.903l-1.63.614c-.139.058-.266.093-.266.081s.208-.417.474-.916c1.445-2.712 2.902-6.015 3.641-8.31.093-.22.15-.417.162-.429zm-1.838.603c.012.012-.081.255-.197.533-1.006 2.445-2.324 5.111-4.011 8.102l-.798 1.379c-.011 0-.358-.209-.774-.464-2.451-1.507-4.624-3.361-6.045-5.158l-.208-.255 1.052-.29c3.768-1.031 6.97-2.144 10.149-3.512l.832-.336zm11.421 3.999c.011.267-.578 2.654-1.064 4.381-.405 1.449-.751 2.585-1.387 4.59l-.532 1.611c-.012 0-.081-.012-.15-.035-3.433-.626-6.508-1.495-9.398-2.654-.809-.325-1.965-.846-2.034-.904-.023-.023.671-.348 1.549-.73 5.26-2.306 10.716-4.926 12.588-6.05.219-.139.393-.209.428-.209zm-26.367.904c.023.023-1.445 2.144-3.503 5.03l-1.861 2.631A46.15 46.15 0 0 0 60 82.898l-.486.753-.52-.44a19.29 19.29 0 0 1-2.15-2.202c-.994-1.24-1.665-2.55-1.93-3.743-.127-.556-.127-.835-.012-.869.173-.046 3.26-.777 6.15-1.449l4.138-.974 1.225-.29zm1.48.568l.37.417c1.665 1.866 3.364 3.245 5.422 4.451.37.209.647.394.624.406-.081.058-7.144 2.573-10.415 3.709l-3.364 1.171c-.011 0-.116-.069-.231-.151l-.208-.151.335-.487c1.087-1.576 2.451-3.303 5.421-6.896l2.046-2.469zm9.225 6.618c.011-.011.52.174 1.144.406 1.503.568 2.693.927 4.289 1.333 1.965.498 4.809.985 6.485 1.124.254.023.393.046.347.081-.081.046-1.78.614-3.029 1.008-1.988.626-8.057 2.422-13.004 3.848l-1.746.498c-.115.023-.497-.081-.497-.128 0-.023.277-.382.613-.776 1.664-1.993 3.318-4.219 4.693-6.328l.705-1.066zm-2.035.058c.012.012-.809 1.333-2.242 3.604l-1.538 2.434-.774 1.275-.335.591-.173-.046a96.11 96.11 0 0 1-4.115-1.46 28.58 28.58 0 0 1-2.694-1.24c-.925-.498-2.08-1.24-1.988-1.263.023-.012 1.607-.441 3.514-.962l9.71-2.758c.335-.104.624-.186.636-.174zm14.392 3.384h.011c.046.116-1.826 5.332-2.508 6.977-.15.371-.208.464-.289.452-.197-.011-2.913-.394-4.566-.637-2.878-.44-7.71-1.287-8.924-1.565l-.277-.058 1.722-.394c3.699-.834 5.479-1.286 7.282-1.843a51.39 51.39 0 0 0 6.809-2.631c.358-.162.659-.29.74-.301z" fill="url(#A)"/><path d="M80.888 15.779c-.254-.035-4.358 1.449-7.005 2.527-3.572 1.46-6.346 2.851-8.057 4.057-.636.452-1.433 1.252-1.56 1.565-.046.116-.07.255-.07.394l1.549 1.472 3.687 1.182 8.774 1.576 10.034 1.727.104-.869c-.035 0-.058-.012-.092-.012l-1.318-.209-.266-.475-3.745-7.418c-.682-1.565-1.329-3.373-1.688-4.671-.197-.788-.22-.834-.347-.846h0 0 0zm-.185.591h.012c.011.011.058.336.104.718.196 1.623.555 3.187 1.121 4.88.428 1.275.428 1.206-.069 1.055-1.179-.324-6.462-1.24-10.288-1.773-.613-.081-1.133-.162-1.133-.174-.046-.046 2.763-1.518 3.999-2.098 1.584-.73 5.93-2.55 6.254-2.608zM69.56 21.563l.451.151c2.45.835 8.611 2.017 12.01 2.295l.716.07c.011.012-.312.185-.728.382a63.78 63.78 0 0 0-4.693 2.608c-.37.232-.705.417-.751.417s-.289-.046-.543-.081l-.462-.07-1.156-1.136-4.243-4.091-.601-.545zm-.462.359l1.63 2.04 1.988 2.469c.196.244.358.441.347.452-.046.035-2.358-.417-3.583-.695-1.26-.29-1.78-.429-2.555-.672l-.636-.209v-.162c.011-.777.994-1.936 2.659-3.118l.15-.105zm13.848 2.782c.046 0 .104.104.243.417.393.869 1.619 3.211 1.919 3.663.093.151.254.162-1.375-.104l-5.179-.869c0-.012.116-.093.266-.174a22.57 22.57 0 0 0 3.526-2.445l.555-.464c.012-.023.035-.035.046-.023z" fill="url(#B)"/><path d="M64.346 23.765s-.254.406-.011 1.009c.15.371.59.823 1.087 1.286l5.768 5.749c2.844 3.291 4.081 6.537 4.196 11.011.069 2.874-.474 5.401-1.826 8.333-2.404 5.262-7.479 11.069-15.305 17.513l1.145-.382c.74-.556 1.745-1.147 4.104-2.446 5.444-2.99 11.571-5.737 19.085-8.565 10.819-4.08 28.61-8.855 38.736-10.408l1.052-.162-.162-.255c-.925-1.437-1.561-2.33-2.324-3.28-2.219-2.759-4.912-4.995-8.207-6.85-4.531-2.538-10.392-4.52-17.813-5.992-1.399-.278-4.474-.811-6.97-1.194l-12.484-2.04-4.716-.869c-.694-.151-2.023-.464-3.063-.823-.832-.325-2.034-.649-2.289-1.634zm2.983 2.898c.011-.011.196.058.439.139.439.15 1.006.324 1.676.51l1.526.406 1.283.336c.081.081 1.249 3.825 1.642 5.262.15.545.266 1.008.254 1.008-.012.012-.139-.185-.289-.452-1.352-2.388-3.491-4.81-5.965-6.757-.323-.232-.566-.44-.566-.452zm5.687 1.576c.058 0 .312.035.624.104a185.71 185.71 0 0 0 7.745 1.495c.381.058.682.128.682.151s-.139.104-.312.197a41.94 41.94 0 0 0-2.427 1.46c-1.283.858-2.439 1.785-3.271 2.619l-.624.614s-.069-.197-.127-.441a37.62 37.62 0 0 0-2.069-5.679c-.127-.267-.231-.51-.231-.533 0 .023 0 .012.012.012zm10.01 1.912c.069.023.185.417.416 1.286.428 1.681.624 3.558.555 5.308-.023.487-.046.939-.07.997l-.035.116-.601-.197c-1.237-.394-3.248-.985-4.971-1.472-.983-.267-1.78-.51-1.78-.533 0-.07 1.433-1.507 2.046-2.051 1.167-1.032 4.335-3.489 4.439-3.454zm.798.116c.035-.035 4.786.788 6.947 1.205l4.081.858c.069.023-.174.162-.948.51-3.052 1.379-5.317 2.619-7.571 4.126l-1.098.718c-.011 0-.023-.336-.023-.742 0-2.202-.439-4.427-1.249-6.305-.081-.185-.15-.359-.139-.371zm12.288 2.434c.035.035-.116.974-.254 1.53-.416 1.727-1.537 4.289-2.913 6.699-.243.429-.462.776-.486.788s-.335-.162-.693-.371c-1.341-.788-2.867-1.53-4.531-2.225-.462-.197-.867-.359-.879-.382-.081-.07 3.641-2.538 5.606-3.721 1.561-.95 4.103-2.364 4.15-2.318zm.879.139c.104 0 2.208.58 3.306.904 2.717.811 5.838 1.959 7.872 2.886l.844.383-.59.139c-4.97 1.147-9.224 2.469-13.328 4.138-.335.139-.636.255-.659.255s.092-.267.243-.591c1.237-2.631 2.035-5.378 2.231-7.719.012-.22.046-.394.081-.394zm-20.946 4.822c.035-.035 1.641.348 2.508.591 1.318.371 4.115 1.31 4.115 1.379 0 .011-.312.278-.682.603-1.514 1.263-2.971 2.596-4.716 4.288-.52.499-.959.904-.982.904s-.035-.07-.023-.162c.266-1.947.208-4.451-.162-6.989-.035-.325-.069-.603-.058-.614zm33.765.035c.023.023-.74 1.228-1.226 1.912-.693.997-1.711 2.318-4.011 5.216l-3.028 3.836-.856 1.066c-.011 0-.161-.209-.323-.463a23.94 23.94 0 0 0-4.682-5.181l-.855-.695c-.127-.093-.231-.185-.231-.197 0-.035 1.965-.881 3.456-1.483 2.612-1.066 6.172-2.341 8.843-3.164 1.398-.44 2.889-.869 2.913-.846zm.89.232c.046-.011.323.128.659.325 2.809 1.611 5.56 3.686 7.733 5.818.613.603 2.127 2.179 2.104 2.191l-1.156.093c-4.867.371-11.097 1.402-17.085 2.851l-.786.174c-.023 0 .428-.452.994-.997 3.514-3.396 5.121-5.54 7.017-9.365l.52-1.089zm-25.743 2.643c.162.035 1.665.742 2.797 1.31 1.04.521 2.601 1.356 2.682 1.425.011.012-.543.301-1.225.638-2.173 1.09-4.034 2.121-5.977 3.303l-1.029.614c-.046 0-.035-.047.277-.614 1.04-1.901 1.873-4.172 2.347-6.386.046-.174.092-.29.127-.29zm-1.503.278c.035.035-.358 1.46-.601 2.237-.474 1.472-1.272 3.315-2.046 4.706l-.613 1.066-.289.464-.647-.626c-.751-.73-1.364-1.182-2.15-1.588-.312-.162-.555-.301-.555-.324 0-.093 1.977-1.889 3.491-3.187 1.087-.939 3.375-2.782 3.41-2.747zm9.19 3.79l.566.371c1.294.846 2.82 1.97 3.988 2.956.659.545 1.93 1.692 2.185 1.97l.139.151-.936.267c-5.294 1.472-9.386 2.781-14.16 4.543-.532.197-.983.359-1.017.359-.069 0-.127.058 1.064-1.043 3.052-2.816 5.756-5.922 7.768-8.948l.405-.626zm-2.416.603c.023.023-1.561 2.26-2.509 3.523a156.59 156.59 0 0 1-4.531 5.679l-1.098 1.263c-.035.012-.046-.162-.046-.429 0-1.403-.358-2.898-.983-4.172-.266-.533-.312-.661-.254-.718.22-.197 3.583-2.121 5.71-3.269 1.433-.765 3.676-1.901 3.711-1.877zm-14.611 3.593c.035 0 .301.139.601.301.74.406 1.399.858 1.988 1.345.023.023-.277.267-.67.556a107.9 107.9 0 0 0-3.733 2.828c-1.017.811-1.052.834-.937.661.763-1.171 1.144-1.831 1.549-2.677a21.61 21.61 0 0 0 .971-2.422c.092-.336.208-.591.231-.591zm3.896 3.06c.058-.011.127.093.439.556.659.985 1.168 2.306 1.295 3.373l.023.232-1.583.614c-2.832 1.101-5.445 2.191-7.213 3.002l-1.93.927c-.567.29-1.029.51-1.029.498s.358-.278.797-.603c3.457-2.515 6.45-5.273 8.693-8.032l.486-.568h.023zm-1.792.441c.046.046-1.272 1.541-2.173 2.457a38.36 38.36 0 0 1-7.178 5.807l-.694.44c-.081.046.023-.07 1.225-1.379.763-.823 1.341-1.518 2-2.376.439-.568.52-.649 1.156-1.101 1.699-1.229 5.618-3.894 5.664-3.848z" fill="url(#C)"/><path d="M27.664 100.323l-.638.021c-4.307.23-7.212 2.13-8.91 5.842-1.453 3.356-1.294 7.744.016 11.121 1.524 3.3 3.986 5.042 8.096 5.699.869.143 1.453.622 3.137 2.593l2.072 2.435h3.758l-2.499-2.526c-1.381-1.385-2.499-2.591-2.499-2.697s.528-.338 1.168-.534c2.109-.64 3.86-2.273 5.085-4.776.992-2.011 1.134-2.632 1.276-5.133.372-7.445-3.543-12.1-10.062-12.047v.002zm3.295 19.469c-1.828.888-4.483 1.066-6.216.428-1.792-.66-3.527-2.526-4.307-4.638-.867-2.31-.744-6.571.248-8.49 1.595-3.055 3.704-4.461 6.785-4.461 4.571 0 7.171 2.807 7.51 8.083.268 4.404-1.203 7.708-4.018 9.077l-.002.001zm64.924-13.109c-1.576 0-2.783.639-3.596 1.9l-.638.998v-2.595h-2.728v15.562h2.726v-4.974c0-4.548.057-5.08.691-6.325.874-1.707 2.377-2.558 3.83-2.15l.975.285v-2.697h-1.26v-.004zm-16.029-.143c-.534 0-1.101.071-1.666.196-3.651.957-5.709 4.46-5.583 8.066 0 3.019.585 4.528 2.038 6.111 2.976 2.448 5.668 2.643 9.3 1.33l1.294-.57v-2.449l-1.294.672c-2.94 1.284-5.154 1.284-6.928-.228-1.131-1.155-1.629-2.54-1.859-4.12h11.001v-2.099c0-4.277-2.568-6.978-6.306-6.909h.002zm-4.449 6.824s.406-2.669 1.914-3.716a4.11 4.11 0 0 1 2.373-.761c.817 0 1.631.264 2.304.78 1.382 1.065 1.613 3.677 1.613 3.677h-8.203v.02h0zM9.63 110.557c-2.958-1.797-4.27-3.092-4.11-4.62.459-4.227 5.668-3.642 8.553-2.043l.021-2.843s-1.595-.693-3.88-.73c-3.506-.053-5.774 1.1-6.836 3.447-1.56 3.463-.179 6.074 4.815 8.987 2.803 1.635 4.043 3.055 4.043 4.603 0 3.198-3.846 4.315-7.813 2.308l-1.544-.748c-.142.907-.069 3.076-.069 3.076s1.219.514 3.047.868c4.534.906 8.66-1.226 9.05-4.689.339-3.251-.833-4.956-5.276-7.618v.002zm110.4-4.054c-.532 0-1.097.074-1.686.198-3.647.957-5.701 4.461-5.561 8.066 0 3.015.583 4.51 2.036 6.091 2.976 2.45 5.668 2.648 9.319 1.332l1.29-.566v-2.452l-1.292.676c-2.946 1.279-5.16 1.279-6.928-.233-1.138-1.152-1.631-2.521-1.861-4.12h10.983v-2.098c0-4.257-2.568-6.961-6.306-6.889l.006-.005zm-4.449 6.824s.41-2.664 1.915-3.732a4.09 4.09 0 0 1 2.371-.763c.813 0 1.632.264 2.304.782 1.382 1.065 1.613 3.695 1.613 3.695h-8.201l-.002.018zm-50.008-2.735c-2.958-1.793-4.266-3.093-4.108-4.62.459-4.229 5.668-3.642 8.553-2.043l.02-2.844s-1.595-.692-3.88-.725c-3.506-.053-5.774 1.1-6.838 3.446-1.558 3.463-.158 6.075 4.819 8.987 2.8 1.634 4.039 3.036 4.039 4.584 0 3.198-3.844 4.332-7.811 2.307-.813-.407-1.503-.743-1.544-.743-.142.906-.069 3.076-.069 3.076s1.204.495 3.027.867c4.538.909 8.667-1.222 9.055-4.685.337-3.234-.833-4.939-5.262-7.604v-.003h0zm70.488-3.946c-1.577 0-2.798.642-3.596 1.903l-.638.994v-2.591h-2.728v15.558h2.726v-4.974c0-4.547.055-5.081.691-6.323.873-1.705 2.376-2.558 3.829-2.149l.975.285v-2.703h-1.259zm-92.185 3.856v-9.912h-2.751v21.954h11.568v-2.593h-8.817v-9.449h0zm63.611 3.09l-2.267 5.915-2.18-5.948-2.214-6.591H98.01c1.825 5.186 3.809 10.461 5.81 15.576.868.021 1.737 0 2.604 0l3.062-7.707 3.119-7.867h-2.692l-2.428 6.624.002-.002zM50.214 94.608c.443 0 .813-.142 1.117-.448s.459-.656.459-1.1a1.46 1.46 0 0 0-.459-1.1c-.305-.285-.656-.428-1.097-.428-.447 0-.817.143-1.117.444s-.443.672-.443 1.1c0 .448.142.819.443 1.1.285.285.654.428 1.097.428v.004zm-.975-2.526c.264-.265.585-.387.995-.387a1.32 1.32 0 0 1 .975.387 1.33 1.33 0 0 1 .406.978 1.37 1.37 0 0 1-.406.994c-.268.265-.589.391-.975.391-.392 0-.711-.122-.975-.391a1.37 1.37 0 0 1-.406-.994c0-.391.122-.713.386-.978zm.656 1.12h.179c.126 0 .25.122.355.354l.214.481h.335l-.264-.534c-.108-.214-.213-.338-.337-.373.156-.037.28-.09.37-.195a.49.49 0 0 0 .122-.357c0-.163-.051-.285-.158-.375-.122-.102-.317-.157-.569-.157h-.565v1.99h.284v-.835h.034zm0-.925h.248c.179 0 .305.037.374.09s.085.122.085.248c0 .23-.142.338-.406.338h-.305v-.676h.004zm-45.437.748c0-.693-.02-1.208-.037-1.511h.016a4.55 4.55 0 0 0 .23.803l2.641 5.915h.443l2.641-5.968c.071-.163.142-.407.23-.748h.02a17.16 17.16 0 0 0-.071 1.513v5.221h.904v-7.761h-1.133l-2.428 5.398a29.26 29.26 0 0 0-.372.957h-.037c-.053-.21-.177-.53-.353-.921l-2.373-5.453H3.574v7.761h.869v-5.202l.014-.004zm8.998.014h.78v4.834h-.78v-4.834zm.39-1.772a.55.55 0 0 0 .406-.163c.108-.106.179-.244.179-.407s-.053-.302-.177-.407c-.11-.108-.25-.163-.411-.163s-.3.055-.406.163-.179.248-.179.407a.49.49 0 0 0 .179.407c.122.108.248.163.406.163h.002zm5.953 6.712v-.852c-.427.32-.886.479-1.361.479-.569 0-1.03-.196-1.367-.57s-.514-.886-.514-1.528c0-.672.179-1.206.548-1.613.356-.391.817-.587 1.382-.587.461 0 .904.143 1.312.428v-.906c-.372-.196-.796-.285-1.276-.285-.886 0-1.576.285-2.092.835s-.776 1.297-.776 2.2c0 .802.229 1.477.707 1.992.498.529 1.134.798 1.914.798.603-.017 1.097-.143 1.523-.391zm2.233-2.577c0-.638.142-1.153.406-1.507.248-.32.549-.481.904-.481.301 0 .514.055.67.179v-.925c-.122-.053-.299-.071-.528-.071-.319 0-.603.108-.853.306-.264.209-.475.529-.599.937h-.02v-1.135h-.884v5.54h.886v-2.843h.018zm5.085 2.953c.833 0 1.503-.269 2.001-.802s.743-1.243.743-2.131c0-.906-.227-1.599-.691-2.114s-1.097-.764-1.93-.764-1.503.249-2.001.729c-.532.53-.813 1.277-.813 2.237 0 .835.228 1.528.707 2.043.496.533 1.152.8 1.983.8v.002zm-1.259-4.514c.337-.357.78-.534 1.329-.534.569 0 .995.177 1.312.534.319.373.477.904.477 1.615 0 .676-.142 1.208-.443 1.564-.3.373-.743.57-1.329.57-.569 0-1.01-.198-1.347-.57s-.496-.888-.496-1.564c-.034-.672.142-1.222.496-1.615zm7.882 4.031c.337-.301.516-.672.516-1.137 0-.407-.142-.745-.406-1.012-.215-.214-.548-.407-1.03-.603-.427-.179-.691-.338-.833-.462a.76.76 0 0 1-.229-.57.67.67 0 0 1 .264-.55c.179-.142.406-.212.711-.212.477 0 .886.126 1.259.393v-.888a2.59 2.59 0 0 0-1.188-.265c-.569 0-1.048.157-1.402.46a1.42 1.42 0 0 0-.549 1.153c0 .407.122.746.353.994.195.212.529.428.992.621.443.196.744.373.904.515s.23.32.23.53c0 .517-.353.784-1.044.784-.532 0-1.01-.175-1.436-.53v.957c.386.232.849.338 1.361.338.656-.035 1.17-.195 1.524-.515l.004-.002zm4.218-5.329c-.833 0-1.503.249-2.001.729-.528.53-.813 1.277-.813 2.237 0 .835.23 1.528.707 2.043.498.534 1.152.8 1.985.8.853 0 1.503-.269 2.001-.803s.746-1.242.746-2.131c0-.906-.232-1.599-.691-2.114-.479-.515-1.117-.764-1.93-.764l-.004.002zm1.719 2.913c0 .676-.142 1.208-.443 1.564-.301.373-.744.57-1.329.57-.569 0-1.01-.198-1.347-.57s-.495-.888-.495-1.564c0-.713.177-1.263.532-1.634.335-.354.778-.534 1.329-.534s.989.179 1.308.534c.285.391.443.923.443 1.634h.002zm2.393 2.772h.884v-4.797h1.294v-.746h-1.294v-.855c0-.778.3-1.169.922-1.169a1.22 1.22 0 0 1 .581.143v-.8c-.158-.071-.372-.087-.638-.087-.477 0-.867.143-1.186.444-.372.354-.569.815-.569 1.438v.909h-.935v.745h.935v4.779l.006-.003zm3.63-1.511c0 1.084.478 1.636 1.453 1.636.354 0 .62-.057.833-.183v-.762c-.162.122-.355.179-.569.179-.301 0-.512-.072-.636-.232s-.197-.428-.197-.799v-3.127h1.402v-.746h-1.402v-1.633c-.305.106-.603.196-.886.285v1.348h-.955v.746h.955v3.286l.002.002zm95.076 10.213a1.52 1.52 0 0 0-1.097-.428c-.447 0-.817.143-1.118.449-.3.299-.443.672-.443 1.1 0 .444.143.814.441 1.099s.671.428 1.118.428c.44 0 .812-.142 1.117-.444a1.5 1.5 0 0 0 .457-1.1c-.016-.448-.177-.819-.477-1.104h.002zm-.142 2.098c-.264.265-.585.387-.976.387-.385 0-.706-.122-.975-.387a1.38 1.38 0 0 1-.406-.998c0-.387.122-.709.39-.978.264-.264.583-.387.991-.387.387 0 .708.123.976.387.264.269.406.591.406.978 0 .412-.122.729-.406.998zm-.797-.906a.76.76 0 0 0 .372-.196c.09-.092.122-.216.122-.358 0-.159-.051-.285-.158-.373-.122-.102-.319-.157-.569-.157h-.565v1.988h.285v-.835h.176c.122 0 .244.122.354.354l.211.479h.337l-.264-.534c-.091-.232-.197-.338-.304-.373l.003.005zm-.195-.179h-.304v-.672h.249c.177 0 .301.032.372.087s.088.122.088.249c0 .23-.143.336-.407.336h.002zM90.215 92.457h.248v-1.99h.656v-.249h-1.56v.249h.656v1.99h0zm1.503-1.495c0-.194 0-.352-.014-.442.016.106.053.177.069.23l.762 1.707h.122l.764-1.723c.02-.053.037-.122.071-.214-.016.177-.016.32-.016.428v1.507h.264v-2.237h-.319l-.691 1.544c-.016.055-.071.163-.106.285h-.02c-.014-.071-.051-.143-.102-.265l-.691-1.564h-.358v2.241h.25v-1.495l.014-.002z" fill="#231f1f"/><defs><linearGradient id="A" x1="64.11" y1="84.773" x2="69.648" y2="81.51" gradientUnits="userSpaceOnUse"><stop stop-color="#909ca9"/><stop offset="1" stop-color="#ededee"/></linearGradient><linearGradient id="B" x1="64.237" y1="23.006" x2="68.686" y2="23.006" gradientUnits="userSpaceOnUse"><stop stop-color="#939fab"/><stop offset="1" stop-color="#dcdee1"/></linearGradient><radialGradient id="C" cx="0" cy="0" r="1" gradientUnits="userSpaceOnUse" gradientTransform="translate(86.6894 43.4674) rotate(-171.435) scale(5.73707 11.5061)"><stop stop-color="#ee352c"/><stop offset="1" stop-color="#a91d22"/></radialGradient></defs></svg>