<svg xmlns="http://www.w3.org/2000/svg" width="144" height="144" fill="none" xmlns:v="https://vecta.io/nano"><path d="M36.608 110.595h-5.27c-.185-8.909-.699-17.287-1.539-25.134h-.046l-8.024 25.134h-4.012L9.741 85.461h-.047c-.592 7.537-.964 15.914-1.119 25.134H3.77c.311-11.213 1.088-21.724 2.331-31.537h6.532l7.603 23.173h.047l7.65-23.172h6.25c1.369 11.492 2.177 22.007 2.425 31.537m22.86-23.268c-2.146 11.663-4.977 20.137-8.49 25.424-2.738 4.074-5.737 6.111-9.002 6.111-.871 0-1.944-.262-3.218-.784v-2.812c.622.092 1.353.14 2.193.14 1.523 0 2.751-.421 3.685-1.263 1.119-1.026 1.679-2.179 1.679-3.456 0-.873-.437-2.663-1.306-5.372l-5.784-17.988h5.177l4.151 13.453c.933 3.055 1.322 5.187 1.166 6.403 2.27-6.074 3.856-12.693 4.759-19.856h4.991" fill="#00758f"/><g fill="#f29111"><path d="M82.553 101.853c0 2.674-.981 4.87-2.937 6.588-1.957 1.71-4.587 2.568-7.88 2.568-3.08 0-6.065-.987-8.956-2.945l1.353-2.709c2.488 1.246 4.74 1.868 6.761 1.868 1.896 0 3.381-.423 4.454-1.258 1.071-.841 1.714-2.014 1.714-3.502 0-1.873-1.304-3.473-3.696-4.816l-6.622-3.748c-2.391-1.747-3.59-3.622-3.59-6.711 0-2.555.894-4.62 2.68-6.191s4.099-2.361 6.927-2.361c2.923 0 5.581.781 7.975 2.338l-1.216 2.706c-2.048-.87-4.068-1.306-6.06-1.306-1.616 0-2.861.389-3.729 1.17-.873.775-1.413 1.772-1.413 2.988 0 1.868 1.332 3.488 3.792 4.856l6.758 3.798c2.46 1.744 3.685 3.603 3.685 6.666z"/><path fill-rule="evenodd" d="M91.974 104.287c-1.275-2.056-1.914-5.355-1.914-9.904 0-7.941 2.411-11.914 7.23-11.914 2.52 0 4.37.95 5.552 2.849 1.274 2.057 1.913 5.327 1.913 9.812 0 8.005-2.411 12.009-7.23 12.009-2.519 0-4.369-.95-5.55-2.852m18.751 7.069l-5.787-2.858c.515-.424 1.005-.88 1.448-1.409 2.457-2.893 3.687-7.176 3.687-12.846 0-10.433-4.09-15.653-12.268-15.653-4.012 0-7.138 1.323-9.376 3.973-2.458 2.897-3.686 7.163-3.686 12.801 0 5.544 1.088 9.61 3.264 12.194 1.983 2.335 4.983 3.504 8.998 3.504 1.498 0 2.873-.185 4.122-.554l7.537 4.392 2.055-3.544"/><path d="M129.618 110.595h-14.972V79.059h5.038v27.658h9.934v3.879m3.592-.004h.835v-3.208h1.093v-.656h-3.062v.656h1.134v3.208zm6.353 0h.787v-3.864h-1.184l-.963 2.634-1.049-2.634h-1.14v3.864h.744v-2.94h.043l1.098 2.94h.567l1.097-2.94v2.94z"/></g><path d="M135.943 68.495c-3.045-.076-5.404.228-7.381 1.067-.571.228-1.483.228-1.561.953.307.304.343.799.611 1.22.456.762 1.253 1.789 1.977 2.324l2.436 1.751c1.483.918 3.158 1.45 4.601 2.364.84.533 1.674 1.218 2.514 1.791.417.305.681.801 1.216.989v-.115c-.269-.342-.343-.837-.608-1.221l-1.143-1.103c-1.103-1.486-2.475-2.78-3.955-3.847-1.218-.841-3.883-1.984-4.376-3.389l-.077-.078c.837-.077 1.828-.383 2.627-.614 1.291-.342 2.471-.265 3.802-.606l1.83-.533v-.345c-.689-.684-1.181-1.6-1.904-2.247-1.938-1.676-4.071-3.313-6.278-4.687-1.181-.762-2.702-1.255-3.958-1.905-.455-.229-1.215-.342-1.482-.725-.685-.838-1.067-1.942-1.561-2.934l-3.119-6.631c-.684-1.485-1.103-2.97-1.94-4.343-3.92-6.479-8.18-10.402-14.723-14.251-1.408-.801-3.082-1.144-4.868-1.563l-2.854-.151c-.61-.268-1.219-.992-1.751-1.335-2.169-1.371-7.76-4.343-9.358-.419-1.028 2.478 1.522 4.916 2.397 6.174.646.875 1.484 1.868 1.939 2.857.267.648.343 1.335.61 2.02.608 1.676 1.178 3.544 1.978 5.107.417.8.873 1.64 1.406 2.36.307.422.838.61.953 1.298-.531.761-.572 1.904-.876 2.858-1.369 4.306-.837 9.64 1.104 12.802.607.952 2.055 3.049 3.995 2.247 1.712-.685 1.332-2.857 1.826-4.761.114-.46.038-.763.266-1.067v.077l1.56 3.162c1.181 1.865 3.234 3.809 4.947 5.103.911.689 1.634 1.868 2.775 2.288v-.115h-.074c-.23-.342-.571-.495-.876-.761-.684-.686-1.443-1.525-1.978-2.287-1.598-2.133-3.007-4.497-4.26-6.935-.61-1.184-1.142-2.478-1.637-3.659-.227-.455-.227-1.143-.609-1.371-.572.837-1.407 1.562-1.825 2.588-.723 1.641-.799 3.66-1.067 5.756-.151.04-.075 0-.151.076-1.216-.305-1.635-1.562-2.092-2.625-1.141-2.709-1.333-7.053-.342-10.178.265-.799 1.41-3.314.951-4.076-.23-.727-.99-1.142-1.408-1.716-.493-.724-1.029-1.637-1.368-2.438-.914-2.133-1.373-4.496-2.359-6.63-.457-.992-1.258-2.021-1.902-2.934-.724-1.029-1.522-1.753-2.094-2.971-.189-.42-.455-1.107-.152-1.562.075-.305.229-.42.534-.497.492-.419 1.901.113 2.395.342 1.409.57 2.588 1.106 3.766 1.905.533.382 1.104 1.106 1.787 1.298h.801c1.217.265 2.587.074 3.729.418 2.015.647 3.841 1.6 5.478 2.629 4.982 3.163 9.091 7.66 11.867 13.032.457.875.649 1.676 1.067 2.589.799 1.871 1.789 3.776 2.587 5.603.798 1.791 1.56 3.618 2.703 5.107.569.799 2.852 1.218 3.88 1.638.759.342 1.94.647 2.625 1.066 1.294.799 2.584 1.715 3.804 2.593.607.457 2.51 1.409 2.625 2.172M97.136 35.379a6.08 6.08 0 0 0-1.56.191v.077h.074c.307.608.841 1.031 1.218 1.563l.877 1.828.074-.077c.537-.379.802-.988.802-1.904-.23-.269-.266-.533-.458-.801-.228-.38-.723-.571-1.027-.876z" fill="#00758f" fill-rule="evenodd"/></svg>