<svg xmlns="http://www.w3.org/2000/svg" width="144" height="144" fill="none" xmlns:v="https://vecta.io/nano"><path d="M2.786 81.207h13.929l7.987 7.393v-7.393h10.661V54.802H2.786v26.405zm5.248-20.233h6.106l11.75 10.958V60.974h3.895v14.16h-5.908L11.929 63.978v11.156H8.034v-14.16z" fill="#27aae1"/><path d="M11.928 63.978l11.948 11.156h5.908v-14.16H25.89v10.958L14.14 60.975H8.034v14.16h3.895V63.978z" fill="#fff"/><path d="M54.111 63.417l-4.225 6.04h8.45l-4.225-6.04zm-16.008 17.79H70.68V54.802H38.103v26.405zm13.533-20.299h5.182l10.166 14.259H62.33l-1.914-2.74H47.839l-1.914 2.74h-4.456l10.166-14.259z" fill="#34a574"/><path d="M47.839 72.394h12.575l1.914 2.739h4.654L56.817 60.908h-5.182L41.469 75.167h4.456l1.914-2.772zm6.271-8.978l4.225 6.04h-8.45l4.225-6.04z" fill="#fff"/><path d="M73.419 81.207h32.577V54.802H73.419v26.405zm5.116-20.233h22.015v3.202h-8.977v10.958h-4.027V64.176h-9.011v-3.202z" fill="#375c93"/><path d="M87.546 75.134h4.027V64.176h8.977v-3.202H78.535v3.202h9.011v10.958z" fill="#fff"/><path d="M108.736 54.802v26.405h32.577V54.802h-32.577zm25.25 18.715c-1.056 1.056-3.367 1.881-8.846 1.881-4.06 0-7.954-.627-10.133-1.551v-3.301c2.08.924 6.635 1.815 10.133 1.815 3.07 0 5.215-.099 5.776-.693.198-.198.231-.429.231-.66 0-.264-.066-.429-.231-.594-.33-.33-.858-.561-5.743-.693-5.182-.132-7.723-.66-8.912-1.848-.561-.561-.858-1.452-.858-2.475 0-1.089.198-2.046 1.09-2.938 1.188-1.188 3.531-1.749 8.284-1.749 3.565 0 7.129.561 9.011 1.32v3.334c-2.146-.924-5.875-1.584-8.978-1.584-3.433 0-4.885.198-5.347.66-.165.165-.264.363-.264.627 0 .297.066.495.231.66.429.429 2.013.561 5.71.627 5.413.132 7.757.594 8.912 1.716.594.594.924 1.551.924 2.541.033 1.056-.198 2.112-.99 2.904z" fill="#8dc63f"/><path d="M125.206 66.322c-3.697-.066-5.281-.198-5.71-.627-.165-.165-.231-.363-.231-.66 0-.264.099-.462.264-.627.429-.429 1.914-.66 5.347-.66 3.103 0 6.832.66 8.978 1.584v-3.301c-1.882-.759-5.479-1.32-9.011-1.32-4.786 0-7.129.594-8.284 1.749-.892.891-1.09 1.848-1.09 2.938 0 1.023.33 1.914.858 2.475 1.189 1.188 3.73 1.716 8.912 1.848 4.885.132 5.413.363 5.743.693.165.165.231.33.231.594 0 .231-.033.429-.231.66-.594.594-2.739.693-5.776.693-3.498 0-8.02-.858-10.133-1.815v3.334c2.179.924 6.073 1.551 10.133 1.551 5.479 0 7.79-.825 8.846-1.881.792-.792 1.023-1.848 1.023-2.938 0-1.023-.33-1.947-.924-2.541-1.188-1.155-3.532-1.617-8.945-1.749z" fill="#fff"/></svg>