<svg xmlns="http://www.w3.org/2000/svg" width="144" height="144" fill="none" xmlns:v="https://vecta.io/nano"><g clip-path="url(#A)"><path d="M62.437 75.18h9.365l-4.947-8.11-9.095 14.647h-4.136l11.061-17.573a2.65 2.65 0 0 1 .934-.837c.373-.199.787-.305 1.209-.308s.837.096 1.213.29.7.476.946.823L80.08 81.717h-4.136l-1.948-3.275H64.52l-2.065-3.263m42.973 3.263V63.177h-3.515v16.768a1.77 1.77 0 0 0 .135.678c.09.214.222.408.388.569.166.173.365.31.584.403a1.76 1.76 0 0 0 .694.14h15.977l2.084-3.275H105.41m-58.097-2.745a6.13 6.13 0 0 0 4.367-1.836c1.158-1.176 1.809-2.77 1.809-4.433s-.651-3.257-1.809-4.433a6.13 6.13 0 0 0-4.367-1.836H31.951v18.54h3.509V66.459h11.639c.784 0 1.536.316 2.09.879s.866 1.326.866 2.122-.311 1.559-.866 2.122-1.306.879-2.09.879h-9.9l10.484 9.257h5.094l-7.042-6.001h1.579zm-36.945 6.001h10.613c2.38-.063 4.642-1.067 6.304-2.798s2.591-4.052 2.591-6.469-.93-4.738-2.591-6.469a9.07 9.07 0 0 0-6.303-2.797H10.369a9.01 9.01 0 0 0-3.567.635 9.12 9.12 0 0 0-3.043 1.992c-.873.864-1.567 1.896-2.041 3.036a9.39 9.39 0 0 0 0 7.206 9.28 9.28 0 0 0 2.041 3.036 9.12 9.12 0 0 0 3.043 1.992 9.01 9.01 0 0 0 3.567.635zm10.373-3.263h-10.14a5.87 5.87 0 0 1-4.056-1.824 6.05 6.05 0 0 1 0-8.349 5.87 5.87 0 0 1 4.056-1.824h10.14c.792-.026 1.581.11 2.32.4a5.9 5.9 0 0 1 1.983 1.287c.569.559 1.022 1.23 1.331 1.97a6.08 6.08 0 0 1 0 4.682c-.309.741-.762 1.411-1.331 1.97a5.9 5.9 0 0 1-1.983 1.287c-.739.29-1.528.426-2.32.4zm66.669 3.263h10.834l2.052-3.263H87.65c-.792.026-1.581-.11-2.32-.4a5.9 5.9 0 0 1-1.983-1.287c-.569-.56-1.022-1.23-1.331-1.97a6.08 6.08 0 0 1 0-4.682c.309-.741.762-1.411 1.331-1.97a5.9 5.9 0 0 1 1.983-1.287c.739-.29 1.528-.426 2.32-.4h10.293l2.078-3.275h-12.61a9.01 9.01 0 0 0-3.567.635 9.12 9.12 0 0 0-3.043 1.992c-.873.864-1.567 1.896-2.041 3.036a9.39 9.39 0 0 0 0 7.206c.474 1.14 1.168 2.173 2.041 3.036a9.12 9.12 0 0 0 3.043 1.992 9.01 9.01 0 0 0 3.567.635zm42.936-3.263c-1.287 0-2.54-.426-3.567-1.214a6 6 0 0 1-2.123-3.153h15.006l2.065-3.269h-17.071c.349-1.258 1.095-2.366 2.122-3.154s2.28-1.214 3.568-1.213h10.299l2.059-3.275h-12.598c-2.38.063-4.641 1.067-6.303 2.798a9.34 9.34 0 0 0-2.591 6.469c0 2.417.929 4.738 2.591 6.469s3.923 2.735 6.303 2.797h10.834L143 78.449h-12.659" fill="#c74634"/></g><defs><clipPath id="A"><path fill="#fff" transform="translate(1 63)" d="M0 0h142v18.584H0z"/></clipPath></defs></svg>