<svg xmlns="http://www.w3.org/2000/svg" width="144" height="144" fill="none" xmlns:v="https://vecta.io/nano"><g clip-path="url(#A)"><path d="M27.339 94.798c-1.63 0-2.69-.631-3.335-1.241-.973-.919-1.359-2.104-1.589-2.812l-.1-.296c-.464-1.255-.621-3.063-.714-5.39l-.035-1.092-.031-.996c-.587.281-1.21.478-1.852.587-1.149.197-2.384.133-3.671-.19-.908-.227-1.853-.699-2.39-1.428-1.568 1.376-3.064 1.189-3.879.917-1.437-.48-2.724-1.83-3.933-4.126-.861-1.635-1.695-3.766-2.477-6.333-1.362-4.471-2.227-9.18-2.304-10.725-.242-4.839 1.058-8.3 3.863-10.285 4.426-3.132 11.131-1.291 13.576-.454 1.642-.992 3.574-1.475 5.758-1.44 1.173.019 2.289.123 3.326.307 1.082-.341 3.219-.83 5.665-.8 4.507.054 8.242 1.814 10.801 5.09 1.825 2.337.923 7.245.222 9.963-.985 3.822-2.713 7.888-4.834 11.428.576.004 1.411-.066 2.597-.31 2.341-.485 3.025.773 3.211 1.336.744 2.259-2.491 3.965-3.501 4.435-1.293.602-3.401.968-5.128.889l-.075-.005-.453-.04-.045.379-.043.371c-.116 4.485-.756 7.326-2.072 9.203-1.379 1.967-3.296 2.519-4.985 2.882-.517.115-1.044.174-1.573.178zM23.91 78.473c1.052.843 1.144 2.43 1.226 5.396l.033 1.047c.04.99.133 3.31.495 4.29.051.138.097.279.145.428.404 1.24.607 1.862 2.354 1.487 1.467-.315 2.221-.597 2.811-1.439.858-1.224 1.338-3.686 1.426-7.318l1.784.044-1.772-.213.052-.443c.17-1.461.292-2.517 1.267-3.215.782-.56 1.674-.506 2.384-.378-.78-.59-.996-1.283-1.053-1.567l-.149-.734.418-.622c2.409-3.581 4.396-7.983 5.451-12.076 1.084-4.206.753-6.44.423-6.862-4.376-5.602-11.965-3.29-12.757-3.027l-.134.072-.672.126-.344-.072c-.948-.197-2.002-.306-3.131-.325-1.775-.03-3.206.39-4.38 1.283l-.814.619-.945-.39c-2.019-.827-7.95-2.49-11.08-.269-1.737 1.233-2.528 3.648-2.352 7.18.058 1.166.849 5.579 2.153 9.86 1.802 5.916 3.44 7.88 4.124 8.109.119.04.429-.201.737-.571 2.004-2.415 3.91-4.428 3.99-4.513l1.033-1.089 1.249.832a3.3 3.3 0 0 0 1.63.561l2.98-2.546-.432 4.414c-.01.099-.014.234.024.485l.13.837-.562.63-.065.073 1.637.758.686-.86z" fill="#000"/><g fill="#156b95"><path d="M145 70.315c-.753.012-1.421.206-2.003.582a2.98 2.98 0 0 0-1.216 1.524v5.513h-1.506v-8.937h1.404v2.072a4.13 4.13 0 0 1 1.215-1.489c.514-.388 1.05-.605 1.61-.651h.291a1.1 1.1 0 0 1 .205.017v1.37zm-10.886 7.79c-.673 0-1.289-.12-1.848-.359a4.75 4.75 0 0 1-1.439-1.01 4.93 4.93 0 0 1-.941-1.489 4.88 4.88 0 0 1-.325-1.781c0-.845.194-1.615.582-2.311a4.54 4.54 0 0 1 1.609-1.678c.696-.422 1.489-.633 2.38-.633.901 0 1.683.217 2.345.651.673.422 1.193.982 1.558 1.678a4.54 4.54 0 0 1 .565 2.226l-.017.342c0 .103-.006.183-.017.24h-7.413a3.51 3.51 0 0 0 .479 1.558c.285.445.651.799 1.096 1.062a2.88 2.88 0 0 0 1.438.377c.548 0 1.061-.137 1.541-.411.49-.274.827-.633 1.01-1.079l1.301.359c-.194.434-.485.822-.873 1.164a4.1 4.1 0 0 1-1.353.805 4.71 4.71 0 0 1-1.678.291zm-3.013-5.17h6.095a3.29 3.29 0 0 0-.496-1.541 3.1 3.1 0 0 0-1.096-1.044c-.445-.251-.936-.377-1.472-.377a2.92 2.92 0 0 0-1.456.377 3.09 3.09 0 0 0-1.095 1.044c-.274.445-.434.959-.48 1.541zm-6.382 5.17c-.674 0-1.29-.12-1.849-.359-.548-.251-1.028-.593-1.438-1.027-.4-.434-.714-.93-.942-1.489a4.88 4.88 0 0 1-.325-1.781c0-.845.188-1.615.565-2.311s.907-1.25 1.592-1.661c.685-.422 1.478-.633 2.379-.633.879 0 1.644.2 2.295.599.662.388 1.152.913 1.472 1.575l-1.472.462c-.229-.422-.548-.748-.959-.976a2.67 2.67 0 0 0-1.37-.359c-.548 0-1.05.143-1.506.428a3.05 3.05 0 0 0-1.062 1.181c-.262.491-.394 1.056-.394 1.695 0 .628.132 1.198.394 1.712a3.32 3.32 0 0 0 1.079 1.198c.456.297.959.445 1.506.445.354 0 .691-.063 1.01-.188a2.85 2.85 0 0 0 .856-.497c.252-.217.423-.451.514-.702l1.472.445c-.182.434-.462.822-.839 1.164-.365.331-.804.593-1.318.787-.502.194-1.055.291-1.66.291zm-6.298-.171h-1.506v-4.999c0-.947-.149-1.638-.445-2.072-.286-.445-.725-.668-1.319-.668-.411 0-.821.103-1.232.308-.4.206-.759.485-1.079.839a3.1 3.1 0 0 0-.668 1.198v5.393h-1.506v-8.937h1.369v1.917a3.88 3.88 0 0 1 .925-1.096c.377-.308.805-.548 1.284-.719a4.45 4.45 0 0 1 1.507-.257c.513 0 .941.097 1.284.291.353.183.627.445.821.788a3.29 3.29 0 0 1 .428 1.181c.092.457.137.953.137 1.49v5.341zm-18.123-3.578v-5.358h1.507v5.067c0 .913.16 1.598.479 2.054s.793.685 1.421.685a2.82 2.82 0 0 0 1.181-.257 3.4 3.4 0 0 0 1.045-.77 3.53 3.53 0 0 0 .719-1.181v-5.598h1.506v7.225c0 .183.035.32.103.411.08.08.205.126.377.137v1.164l-.411.034a2.22 2.22 0 0 1-.274.017c-.285 0-.531-.086-.736-.257-.206-.183-.314-.405-.326-.668l-.034-1.044c-.388.662-.913 1.176-1.575 1.541-.65.365-1.364.548-2.14.548-.936 0-1.643-.314-2.123-.942-.479-.639-.719-1.575-.719-2.808zm-6.26 3.749c-.673 0-1.284-.12-1.832-.359a4.53 4.53 0 0 1-1.421-1.01 4.67 4.67 0 0 1-.924-1.489 4.83 4.83 0 0 1-.325-1.763c0-.628.108-1.221.325-1.78s.525-1.05.924-1.472a4.2 4.2 0 0 1 1.421-1.01 4.42 4.42 0 0 1 1.832-.377c.673 0 1.284.126 1.832.377a4.19 4.19 0 0 1 1.421 1.01c.411.422.725.913.942 1.472s.325 1.153.325 1.78a4.83 4.83 0 0 1-.325 1.763 4.67 4.67 0 0 1-.924 1.489c-.4.422-.879.759-1.438 1.01a4.52 4.52 0 0 1-1.832.359zM91.076 73.5c0 .616.131 1.176.394 1.678a3.32 3.32 0 0 0 1.079 1.198c.445.285.942.428 1.489.428s1.044-.148 1.489-.445a3.13 3.13 0 0 0 1.079-1.198c.274-.514.411-1.079.411-1.695s-.137-1.176-.411-1.678a3.13 3.13 0 0 0-1.079-1.198c-.445-.297-.942-.445-1.489-.445a2.56 2.56 0 0 0-1.489.462c-.445.297-.805.696-1.079 1.198-.262.502-.394 1.067-.394 1.695zm-2.856 1.301c0 .628-.16 1.176-.479 1.644s-.753.833-1.301 1.096c-.536.263-1.13.394-1.78.394h-5.769V65.778h6.043c.571 0 1.061.154 1.472.462a2.81 2.81 0 0 1 .959 1.164 3.32 3.32 0 0 1 .342 1.472 3.26 3.26 0 0 1-.462 1.678c-.297.514-.725.896-1.284 1.147.696.205 1.244.588 1.644 1.147.411.548.616 1.198.616 1.952zm-1.558-.274c0-.377-.086-.725-.257-1.044a1.99 1.99 0 0 0-.668-.77c-.274-.194-.594-.291-.959-.291H80.43v4.177h4.229c.377 0 .713-.097 1.01-.291.308-.194.548-.445.719-.753.183-.32.274-.662.274-1.027zm-6.232-7.413v4.057h3.869c.365 0 .685-.091.959-.274a1.89 1.89 0 0 0 .668-.736c.171-.308.257-.645.257-1.01a2.13 2.13 0 0 0-.24-1.027 1.81 1.81 0 0 0-.633-.736 1.55 1.55 0 0 0-.907-.274H80.43z"/></g><g fill="#030303"><path d="M71.547 78.019a5.01 5.01 0 0 1-2.243-.514 6.14 6.14 0 0 1-1.798-1.404 6.77 6.77 0 0 1-1.198-1.986 6.34 6.34 0 0 1-.428-2.294c0-.822.143-1.598.428-2.328.285-.742.679-1.398 1.181-1.969a5.56 5.56 0 0 1 1.798-1.335c.696-.331 1.45-.497 2.26-.497 1.176 0 2.146.245 2.91.736s1.341 1.13 1.729 1.918l-1.181.822c-.354-.708-.839-1.233-1.455-1.575s-1.296-.514-2.037-.514c-.616 0-1.176.131-1.678.394s-.936.622-1.301 1.079c-.354.445-.628.953-.822 1.524-.183.571-.274 1.164-.274 1.781 0 .651.103 1.267.308 1.849a5 5 0 0 0 .907 1.524c.388.434.839.776 1.352 1.027a3.73 3.73 0 0 0 1.661.377c.696 0 1.358-.177 1.986-.531s1.221-.896 1.781-1.626v1.592c-1.096 1.301-2.391 1.952-3.886 1.952zm3.698-4.982h-2.619v-1.164h3.92v6.061h-1.301v-4.896zm-19.244 4.897V65.778h5.067a3.18 3.18 0 0 1 1.472.342c.445.217.833.514 1.164.89a4.02 4.02 0 0 1 .77 1.25 3.75 3.75 0 0 1 .274 1.404c0 .662-.148 1.295-.445 1.9-.297.594-.713 1.079-1.25 1.455-.536.365-1.164.548-1.883.548h-3.629v4.366H56zm1.541-5.735h3.544c.422 0 .787-.114 1.096-.342a2.19 2.19 0 0 0 .736-.924 2.93 2.93 0 0 0 .274-1.267c0-.479-.103-.907-.308-1.284a2.39 2.39 0 0 0-.805-.907 1.96 1.96 0 0 0-1.096-.325h-3.441v5.05z"/></g><path d="M33.372 81.944c.286-2.408.2-2.762 1.971-2.372l.45.04c1.362.063 3.144-.222 4.19-.714 2.253-1.059 3.589-2.827 1.367-2.362-5.068 1.059-5.416-.679-5.416-.679 5.352-8.042 7.589-18.25 5.658-20.749-5.266-6.816-14.382-3.593-14.535-3.509l-.049.01c-1.001-.211-2.122-.336-3.38-.357-2.293-.038-4.033.609-5.353 1.623 0 0-16.263-6.786-15.506 8.534.161 3.259 4.612 24.661 9.922 18.196 1.94-2.363 3.816-4.362 3.816-4.362.931.627 2.046.946 3.216.831l.09-.078c-.028.293-.016.58.037.92-1.368 1.548-.966 1.82-3.7 2.39-2.766.578-1.141 1.606-.08 1.874 1.287.326 4.263.788 6.274-2.064l-.08.325c.537.435.5 3.125.576 5.046s.203 3.715.59 4.773.843 3.781 4.437 3.001c3.003-.653 5.299-1.591 5.508-10.318z" fill="#000"/><path d="M41.352 76.536c-5.068 1.059-5.417-.679-5.417-.679 5.351-8.042 7.588-18.25 5.657-20.749-5.267-6.816-14.383-3.592-14.535-3.508l-.049.009c-1.001-.21-2.122-.335-3.381-.356-2.293-.038-4.033.609-5.353 1.623 0 0-16.263-6.785-15.507 8.534.161 3.259 4.612 24.66 9.922 18.196 1.94-2.363 3.815-4.362 3.815-4.362.931.627 2.046.946 3.215.831l.091-.078c-.028.293-.015.58.036.92-1.367 1.548-.966 1.82-3.7 2.39-2.767.578-1.141 1.606-.08 1.874 1.287.326 4.263.788 6.273-2.064l-.08.325c.536.435.912 2.828.849 4.997s-.105 3.659.317 4.822.843 3.781 4.437 3.001c3.003-.652 4.56-2.341 4.776-5.159.154-2.003.501-1.707.523-3.498l.279-.848c.321-2.716.051-3.592 1.901-3.184l.45.04c1.362.063 3.144-.222 4.19-.714 2.253-1.059 3.589-2.827 1.368-2.363z" fill="#336791"/><path d="M26.875 93.075c-2.996 0-3.945-2.403-4.334-3.385-.568-1.44-.691-7.029-.564-11.613a.59.59 0 0 1 .187-.401c.111-.104.258-.159.41-.155a.58.58 0 0 1 .4.178.59.59 0 0 1 .164.41c-.146 5.287.061 10.077.482 11.143.657 1.662 1.652 3.116 4.468 2.506 2.673-.581 3.674-1.607 4.119-4.224.343-2.009 1.019-7.723 1.102-8.851a.59.59 0 0 1 .2-.402c.117-.102.269-.153.422-.141a.58.58 0 0 1 .397.203c.101.118.151.272.139.427-.087 1.174-.76 6.877-1.116 8.963-.526 3.092-1.887 4.494-5.02 5.175-.478.107-.966.163-1.456.167zM10.63 81.338c-.262 0-.522-.044-.77-.129-1.946-.658-3.8-3.868-5.51-9.542-1.301-4.319-2.126-8.828-2.198-10.293-.215-4.343.89-7.417 3.283-9.134 4.734-3.397 12.698-.162 13.034-.023.141.06.254.174.312.317s.059.304.001.448-.169.258-.311.319-.3.063-.442.005h0c-.077-.032-7.714-3.131-11.926-.105-2.046 1.47-2.986 4.199-2.793 8.114.061 1.234.831 5.634 2.15 10.008 1.526 5.065 3.264 8.262 4.766 8.769.235.08.953.322 1.98-.927 1.93-2.352 3.704-4.23 3.722-4.249.108-.106.252-.165.403-.166s.295.058.404.163a.59.59 0 0 1 .179.401c.006.152-.046.301-.146.415a88.86 88.86 0 0 0-3.667 4.187c-.902 1.097-1.766 1.42-2.47 1.42zm25.269-4.956c-.105 0-.209-.029-.299-.084s-.164-.134-.214-.228-.073-.2-.067-.307a.59.59 0 0 1 .099-.298c5.41-8.13 7.308-17.953 5.682-20.058-2.047-2.649-4.938-4.033-8.591-4.112-2.705-.059-4.856.64-5.207.762l-.088.036a.58.58 0 0 1-.727-.313c-.058-.131-.067-.28-.025-.417a.59.59 0 0 1 .254-.329l.156-.065-.008.002.008-.003c.597-.221 2.78-.885 5.485-.853 4.043.043 7.382 1.623 9.657 4.566 1.076 1.393 1.079 4.603.007 8.806-1.093 4.285-3.149 8.89-5.64 12.635a.58.58 0 0 1-.209.191.57.57 0 0 1-.273.069zm.276 3.764c-.924 0-1.751-.131-2.247-.433-.51-.309-.607-.73-.619-.952-.139-2.473 1.208-2.904 1.896-3.1-.096-.147-.232-.319-.373-.497-.401-.507-.949-1.202-1.372-2.241-.066-.162-.274-.54-.514-.976-1.303-2.366-4.013-7.289-2.272-9.81.806-1.167 2.41-1.626 4.775-1.369-.695-2.146-4.008-8.86-11.866-8.99-2.364-.04-4.302.696-5.759 2.185-3.261 3.336-3.143 9.372-3.141 9.432.002.077-.011.154-.038.226a.59.59 0 0 1-.121.194.58.58 0 0 1-.185.132c-.07.032-.145.049-.221.051s-.152-.011-.223-.039a.58.58 0 0 1-.191-.123c-.055-.053-.1-.117-.131-.187s-.048-.147-.05-.224c-.007-.268-.129-6.602 3.477-10.29 1.688-1.726 3.909-2.578 6.603-2.534 5.029.084 8.265 2.672 10.094 4.83 1.994 2.351 2.971 4.944 3.052 5.809.06.643-.396.773-.488.791l-.209.005c-2.32-.376-3.809-.115-4.424.776-1.324 1.917 1.24 6.574 2.334 8.563.28.507.481.874.573 1.1.36.883.829 1.477 1.206 1.954.331.42.619.783.722 1.211.047.085.724 1.098 4.739.258 1.006-.21 1.61-.03 1.794.535.363 1.112-1.673 2.408-2.8 2.938-1.011.475-2.623.776-4.018.776zm-1.709-1.482c.127.13.764.355 2.084.297 1.173-.051 2.411-.31 3.154-.659.95-.447 1.583-.946 1.912-1.287l-.183.034c-2.567.537-4.383.466-5.396-.213a2.17 2.17 0 0 1-.197-.148c-.11.044-.212.073-.284.093-.575.163-1.17.332-1.09 1.882zm-16.583 3.286c-.638 0-1.309-.087-1.994-.262-.71-.18-1.907-.721-1.889-1.611.02-.998 1.453-1.297 1.993-1.41 1.948-.407 2.075-.569 2.685-1.353.178-.228.399-.513.7-.853.447-.507.936-.764 1.453-.764.36 0 .655.124.85.205.622.261 1.14.892 1.354 1.647.192.681.101 1.336-.259 1.845-1.178 1.672-2.87 2.555-4.893 2.555zm-2.629-1.822c.175.137.526.32.916.419.594.15 1.169.227 1.713.227 1.655 0 2.983-.694 3.948-2.062.201-.286.141-.648.087-.838-.113-.399-.393-.762-.682-.884-.157-.066-.286-.116-.406-.116-.064 0-.259 0-.587.372-.277.314-.477.57-.653.797-.758.975-1.106 1.306-3.362 1.777-.55.115-.833.232-.973.309zm4.466-2.713c-.139 0-.273-.051-.378-.142a.59.59 0 0 1-.196-.357 2.8 2.8 0 0 1-.029-.295c-1.479-.028-2.906-.671-3.99-1.816-1.37-1.448-1.993-3.453-1.71-5.502.307-2.225.192-4.19.131-5.245a11.82 11.82 0 0 1-.028-.652c.001-.186.004-.68 1.633-1.516.579-.297 1.741-.816 3.01-.95 2.103-.22 3.489.729 3.904 2.671 1.12 5.245.089 7.565-.664 9.259a14.54 14.54 0 0 0-.379.902l-.094.255c-.398 1.08-.742 2.013-.636 2.711.023.154-.015.311-.106.437a.58.58 0 0 1-.38.234l-.089.006zm-5.035-13.847l.023.42c.064 1.096.184 3.136-.14 5.478-.233 1.69.277 3.34 1.399 4.525.887.937 2.054 1.454 3.254 1.454h.025c.135-.573.358-1.178.597-1.831l.093-.253c.12-.326.26-.641.408-.975.725-1.631 1.627-3.661.588-8.528-.206-.963-.705-1.521-1.525-1.705-1.685-.377-4.195.906-4.722 1.414zm3.505-.249c-.029.208.376.763.904.837s.979-.359 1.007-.567-.376-.437-.905-.512-.979.033-1.007.242zm1.026 1.042l-.148-.011c-.328-.046-.659-.255-.885-.56-.08-.107-.21-.315-.184-.499.037-.271.363-.433.874-.433.114 0 .233.009.352.025.278.039.537.121.728.229.331.188.356.396.341.505-.041.299-.512.744-1.078.744zm-.833-1.007a1.03 1.03 0 0 0 .738.609l.094.007c.377 0 .659-.301.692-.399-.035-.067-.277-.234-.737-.298a2.12 2.12 0 0 0-.299-.022c-.295 0-.452.067-.489.104zm15.87-.459c.029.208-.376.763-.904.838s-.979-.359-1.008-.567.377-.437.905-.511.979.034 1.008.241zm-1.026.944c-.508 0-.946-.401-.982-.66-.042-.312.465-.549.987-.622a2.39 2.39 0 0 1 .338-.025c.45 0 .749.134.779.35.019.14-.086.356-.269.55-.12.128-.373.35-.718.398l-.135.009zm.343-1.111a2.3 2.3 0 0 0-.312.022c-.525.074-.837.287-.822.402.018.125.353.491.791.491l.108-.008c.287-.041.502-.23.604-.339.161-.172.225-.333.217-.388-.009-.072-.203-.18-.586-.18zm1.443 12.107c-.105 0-.208-.029-.299-.084s-.164-.133-.214-.227-.073-.2-.068-.306.039-.209.098-.298c1.236-1.87 1.01-3.778.791-5.623-.093-.786-.19-1.599-.164-2.379.025-.802.126-1.464.223-2.105.115-.758.224-1.476.179-2.326-.003-.153.052-.301.155-.413a.58.58 0 0 1 .395-.188c.151-.008.299.043.413.144a.59.59 0 0 1 .198.394c.052.972-.072 1.783-.191 2.568-.092.605-.188 1.232-.211 1.963-.022.691.065 1.424.157 2.201.233 1.962.497 4.186-.979 6.418a.58.58 0 0 1-.483.261z" fill="#fff"/></g><defs><clipPath id="A"><path fill="#fff" d="M0 0h144v144H0z"/></clipPath></defs></svg>