<svg xmlns="http://www.w3.org/2000/svg" width="144" height="144" fill="none" xmlns:v="https://vecta.io/nano"><g clip-path="url(#A)"><g fill="#000"><path d="M96.953 84.484c.715-5.965.501-6.84 4.935-5.874l1.126.1c3.41.155 7.872-.55 10.491-1.77 5.641-2.622 8.986-7.002 3.424-5.852-12.69 2.622-13.562-1.681-13.562-1.681 13.4-19.919 19.002-45.203 14.167-51.393C104.348 1.132 81.522 9.115 81.14 9.322l-.122.024c-2.507-.523-5.312-.833-8.464-.884-5.742-.094-10.099 1.509-13.404 4.02 0 0-40.72-16.808-38.826 21.138.403 8.073 11.549 61.082 24.842 45.071 4.858-5.854 9.554-10.805 9.554-10.805 2.332 1.552 5.123 2.343 8.051 2.059l.226-.193c-.07.727-.04 1.437.092 2.279-3.425 3.835-2.418 4.508-9.265 5.92-6.927 1.431-2.857 3.977-.201 4.642 3.222.808 10.673 1.952 15.709-5.111l-.2.806c1.344 1.077 1.252 7.739 1.443 12.499s.509 9.202 1.478 11.823 2.111 9.365 11.11 7.433c7.52-1.617 13.269-3.94 13.792-25.558z"/><path d="M80.229 114.747c-3.98 0-6.571-1.542-8.146-3.032-2.376-2.245-3.319-5.14-3.881-6.868l-.243-.722c-1.134-3.067-1.517-7.481-1.745-13.165l-.085-2.666-.077-2.433c-1.434.685-2.956 1.167-4.522 1.433-2.806.481-5.822.324-8.968-.464-2.219-.555-4.525-1.707-5.838-3.487-3.83 3.361-7.483 2.904-9.474 2.24-3.511-1.173-6.653-4.469-9.607-10.078-2.103-3.994-4.139-9.199-6.05-15.47-3.326-10.92-5.44-22.422-5.628-26.197-.591-11.82 2.584-20.273 9.436-25.121 10.811-7.651 27.189-3.153 33.16-1.11 4.011-2.423 8.73-3.603 14.064-3.517 2.865.046 5.592.299 8.125.75 2.642-.832 7.862-2.027 13.838-1.953 11.009.131 20.131 4.43 26.38 12.431 4.46 5.709 2.255 17.696.544 24.335-2.407 9.335-6.626 19.267-11.808 27.912 1.407.01 3.445-.16 6.344-.758 5.718-1.183 7.389 1.889 7.843 3.264 1.818 5.517-6.085 9.686-8.55 10.832-3.159 1.47-8.309 2.365-12.527 2.171l-.184-.013-1.108-.097-.11.925-.105.906c-.283 10.955-1.845 17.893-5.06 22.479-3.368 4.805-8.051 6.153-12.176 7.039a18.26 18.26 0 0 1-3.842.434zm-8.375-39.875c2.57 2.06 2.795 5.936 2.995 13.18l.08 2.559c.097 2.419.325 8.085 1.21 10.479a26.15 26.15 0 0 1 .355 1.045c.987 3.029 1.482 4.547 5.749 3.631 3.583-.769 5.424-1.459 6.866-3.515 2.096-2.991 3.268-9.002 3.483-17.874l4.358.107-4.329-.52.127-1.083c.415-3.569.714-6.149 3.096-7.854 1.91-1.368 4.088-1.236 5.822-.923-1.906-1.441-2.433-3.135-2.573-3.828l-.363-1.793 1.021-1.519c5.884-8.747 10.737-19.497 13.314-29.495 2.648-10.273 1.84-15.729 1.033-16.761-10.688-13.684-29.224-8.035-31.159-7.392l-.328.177-1.641.307-.841-.175c-2.316-.482-4.889-.748-7.649-.793-4.335-.073-7.831.953-10.698 3.133l-1.989 1.511-2.309-.953c-4.931-2.02-19.418-6.082-27.062-.658-4.243 3.011-6.175 8.911-5.745 17.537.141 2.848 2.074 13.627 5.258 24.084 4.402 14.449 8.403 19.248 10.073 19.807.291.099 1.048-.491 1.8-1.395 4.895-5.898 9.55-10.815 9.745-11.022l2.524-2.661 3.052 2.031c1.23.82 2.587 1.283 3.98 1.371l7.279-6.219-1.055 10.781c-.024.243-.035.571.06 1.184l.317 2.044-1.373 1.539-.158.178 3.999 1.85 1.677-2.101z"/></g><path d="M116.931 71.089c-12.69 2.622-13.563-1.682-13.563-1.682 13.399-19.919 19-45.205 14.166-51.393-13.187-16.882-36.013-8.898-36.394-8.69l-.123.022c-2.507-.52-5.312-.831-8.466-.882-5.742-.094-10.098 1.508-13.403 4.019 0 0-40.721-16.807-38.827 21.139.403 8.073 11.549 61.082 24.842 45.071 4.858-5.854 9.553-10.805 9.553-10.805 2.332 1.552 5.123 2.343 8.05 2.059l.227-.193c-.07.727-.038 1.438.091 2.279-3.424 3.835-2.419 4.508-9.264 5.92-6.928 1.431-2.858 3.977-.2 4.642 3.221.808 10.673 1.952 15.708-5.112l-.201.806c1.342 1.077 2.284 7.005 2.126 12.378s-.264 9.062.794 11.944 2.111 9.365 11.111 7.434c7.52-1.616 11.416-5.8 11.959-12.779.385-4.962 1.255-4.228 1.31-8.666l.699-2.101c.805-6.727.128-8.897 4.761-7.887l1.126.099c3.41.156 7.873-.55 10.492-1.77 5.642-2.623 8.987-7.002 3.426-5.852z" fill="#336791"/><path d="M80.971 112.411c-7.503.001-9.879-5.952-10.852-8.386-1.422-3.566-1.73-17.41-1.413-28.763a1.46 1.46 0 0 1 .468-.992c.279-.257.647-.395 1.026-.384s.738.169 1.002.441a1.46 1.46 0 0 1 .412 1.017c-.365 13.095.154 24.961 1.206 27.6 1.644 4.117 4.137 7.719 11.187 6.206 6.692-1.438 9.199-3.981 10.314-10.463.858-4.976 2.55-19.129 2.758-21.922a1.46 1.46 0 0 1 .501-.996 1.45 1.45 0 0 1 1.057-.349c.385.029.742.209.994.502a1.46 1.46 0 0 1 .348 1.059c-.217 2.907-1.903 17.034-2.794 22.201-1.318 7.658-4.725 11.132-12.57 12.817-1.197.265-2.418.404-3.644.413zM40.294 83.339c-.656-.001-1.307-.108-1.928-.319-4.873-1.629-9.514-9.58-13.796-23.635-3.259-10.699-5.323-21.865-5.504-25.494-.537-10.758 2.229-18.37 8.22-22.624 11.853-8.415 31.794-.401 32.637-.057.354.148.635.431.782.786a1.46 1.46 0 0 1 .003 1.109c-.145.356-.425.64-.777.79a1.45 1.45 0 0 1-1.107.012v.001c-.192-.079-19.314-7.754-29.861-.26-5.123 3.64-7.475 10.401-6.992 20.098.153 3.056 2.082 13.956 5.382 24.789 3.822 12.546 8.172 20.464 11.935 21.72.59.198 2.386.798 4.957-2.297 4.834-5.827 9.275-10.477 9.319-10.523.27-.263.632-.41 1.008-.411s.739.144 1.011.405a1.46 1.46 0 0 1 .081 2.021 220.97 220.97 0 0 0-9.183 10.37c-2.257 2.718-4.422 3.516-6.185 3.516zm63.271-12.276c-.264 0-.523-.071-.75-.207s-.411-.331-.535-.565a1.46 1.46 0 0 1-.168-.761c.014-.264.1-.52.248-.739 13.544-20.138 18.299-44.469 14.227-49.681-5.126-6.561-12.364-9.99-21.511-10.186-6.774-.147-12.159 1.586-13.038 1.889l-.221.09c-.885.279-1.564-.207-1.819-.775-.146-.325-.168-.693-.062-1.033a1.46 1.46 0 0 1 .637-.816l.391-.161-.019.006.02-.007c1.495-.548 6.961-2.191 13.732-2.113 10.123.107 18.484 4.019 24.18 11.31 2.695 3.451 2.701 11.401.017 21.811-2.736 10.613-7.884 22.021-14.123 31.296-.133.198-.313.361-.523.473a1.45 1.45 0 0 1-.684.17zm.691 9.322c-2.313 0-4.385-.325-5.627-1.071-1.276-.765-1.52-1.807-1.551-2.359-.349-6.126 3.026-7.193 4.747-7.679-.24-.363-.582-.79-.934-1.231-1.003-1.256-2.377-2.977-3.436-5.55-.165-.401-.686-1.336-1.288-2.418-3.262-5.86-10.048-18.054-5.689-24.299 2.019-2.89 6.035-4.027 11.955-3.392-1.741-5.316-10.035-21.945-29.711-22.268-5.919-.1-10.773 1.724-14.419 5.413-8.166 8.263-7.869 23.213-7.866 23.362a1.46 1.46 0 0 1-.399 1.041c-.131.139-.289.25-.463.328a1.45 1.45 0 0 1-1.112.029c-.178-.069-.341-.172-.48-.303a1.46 1.46 0 0 1-.452-1.019c-.018-.663-.324-16.352 8.706-25.489 4.226-4.276 9.788-6.387 16.533-6.277 12.591.207 20.693 6.619 25.274 11.963 4.992 5.822 7.441 12.245 7.642 14.388.151 1.594-.991 1.914-1.222 1.96l-.524.012c-5.81-.932-9.537-.286-11.078 1.922-3.316 4.748 3.104 16.282 5.845 21.209.7 1.256 1.205 2.164 1.436 2.725.901 2.188 2.075 3.658 3.019 4.839.829 1.04 1.549 1.94 1.807 2.998.119.21 1.814 2.72 11.867.641 2.519-.52 4.03-.075 4.491 1.324.909 2.754-4.188 5.964-7.01 7.278-2.532 1.178-6.568 1.923-10.061 1.923zm-4.278-3.671c.318.323 1.913.879 5.218.737 2.938-.127 6.037-.767 7.897-1.631 2.378-1.106 3.964-2.343 4.787-3.188l-.457.084c-6.428 1.33-10.974 1.153-13.512-.527a5.43 5.43 0 0 1-.492-.366c-.275.109-.53.18-.711.231-1.44.405-2.929.823-2.73 4.66zm-41.521 8.138c-1.596 0-3.277-.216-4.993-.648-1.777-.446-4.776-1.787-4.729-3.989.051-2.472 3.639-3.214 4.991-3.493 4.879-1.007 5.197-1.41 6.722-3.35.445-.566.998-1.27 1.752-2.114 1.12-1.255 2.344-1.892 3.639-1.892.901 0 1.641.307 2.128.509 1.557.646 2.856 2.208 3.39 4.079.482 1.687.252 3.31-.647 4.571-2.951 4.141-7.187 6.328-12.251 6.328zm-6.582-4.512c.439.339 1.317.792 2.293 1.038 1.487.372 2.928.561 4.288.561 4.143 0 7.469-1.72 9.886-5.108.503-.707.353-1.604.218-2.077-.283-.989-.984-1.888-1.707-2.189-.393-.163-.717-.288-1.016-.288-.161 0-.648 0-1.471.922-.695.778-1.194 1.413-1.636 1.974-1.899 2.416-2.769 3.235-8.419 4.402-1.378.286-2.085.574-2.436.765zm11.181-6.72c-.347-.001-.682-.125-.946-.352a1.46 1.46 0 0 1-.49-.884 6.82 6.82 0 0 1-.072-.73c-3.704-.07-7.277-1.662-9.99-4.498-3.43-3.586-4.991-8.553-4.283-13.629.769-5.512.482-10.377.327-12.991a29.03 29.03 0 0 1-.071-1.615c.002-.46.011-1.683 4.09-3.754 1.451-.737 4.359-2.022 7.537-2.352 5.266-.544 8.736 1.805 9.775 6.616 2.804 12.991.222 18.738-1.663 22.933-.352.78-.683 1.519-.948 2.233l-.234.632c-.996 2.675-1.857 4.987-1.592 6.715a1.46 1.46 0 0 1-.265 1.083c-.228.312-.57.52-.951.579l-.223.016zM50.449 39.324l.058 1.041c.161 2.715.459 7.769-.351 13.568-.584 4.185.692 8.272 3.502 11.209 2.22 2.322 5.144 3.603 8.148 3.603h.062c.337-1.421.895-2.919 1.496-4.535l.233-.627c.3-.807.651-1.588 1.022-2.415 1.815-4.04 4.073-9.069 1.472-21.123-.516-2.386-1.765-3.768-3.819-4.224-4.218-.934-10.503 2.245-11.823 3.502zm8.776-.618c-.072.515.943 1.89 2.264 2.073s2.451-.89 2.522-1.405-.943-1.083-2.265-1.267-2.451.083-2.521.599zm2.568 2.581l-.371-.026c-.82-.114-1.65-.633-2.217-1.386-.199-.264-.525-.779-.46-1.237.093-.672.91-1.073 2.187-1.073.286 0 .583.021.883.062.697.098 1.345.299 1.824.567.829.465.89.982.853 1.25-.103.74-1.282 1.843-2.699 1.843zm-2.086-2.495c.042.317.826 1.366 1.849 1.508l.236.017c.944 0 1.65-.745 1.732-.988-.087-.166-.694-.579-1.845-.738-.248-.036-.498-.054-.748-.054-.738-.001-1.133.165-1.224.256zm39.738-1.137c.071.516-.941 1.891-2.264 2.075s-2.452-.89-2.524-1.406.944-1.083 2.265-1.266 2.451.084 2.523.597zm-2.568 2.337c-1.273 0-2.369-.992-2.46-1.635-.104-.772 1.164-1.359 2.472-1.541.287-.041.573-.061.847-.061 1.128 0 1.875.332 1.95.866.049.347-.216.881-.673 1.362-.301.317-.935.867-1.797.986l-.34.023zm.859-2.751a5.8 5.8 0 0 0-.781.056c-1.315.183-2.097.712-2.059.995.044.311.883 1.215 1.98 1.215l.27-.019c.717-.101 1.256-.569 1.513-.84.403-.425.563-.824.544-.961-.024-.178-.508-.446-1.468-.446zm3.614 29.988a1.45 1.45 0 0 1-.747-.208c-.226-.136-.411-.33-.535-.563a1.46 1.46 0 0 1 .075-1.496c3.096-4.633 2.529-9.359 1.981-13.928-.234-1.948-.475-3.96-.412-5.893.064-1.987.315-3.626.559-5.214.289-1.878.561-3.655.448-5.761a1.46 1.46 0 0 1 .388-1.023c.257-.278.612-.444.989-.465s.748.107 1.033.356a1.46 1.46 0 0 1 .495.976c.129 2.408-.18 4.417-.479 6.361-.231 1.5-.469 3.051-.527 4.863-.056 1.711.163 3.528.394 5.45.583 4.86 1.243 10.368-2.452 15.897-.281.419-.741.647-1.21.647z" fill="#fff"/><path d="M2.868 115.217c1.625-.264 3.268-.393 4.914-.384 2.529 0 4.383.59 5.56 1.651 1.088.943 1.736 2.387 1.736 4.157 0 1.798-.531 3.213-1.531 4.244-1.353 1.445-3.56 2.181-6.06 2.181-.765 0-1.471-.029-2.058-.176v7.959h-2.56v-19.632zm2.56 9.579c.559.147 1.265.206 2.118.206 3.088 0 4.972-1.503 4.972-4.244 0-2.623-1.853-3.891-4.677-3.891-1.118 0-1.971.089-2.412.207v7.722zm25.152 2.8c0 5.276-3.649 7.576-7.091 7.576-3.854 0-6.825-2.83-6.825-7.34 0-4.775 3.118-7.575 7.06-7.575 4.09-.001 6.855 2.977 6.855 7.339zm-11.296.147c0 3.125 1.794 5.482 4.324 5.482 2.471 0 4.323-2.328 4.323-5.541 0-2.417-1.205-5.482-4.266-5.482s-4.382 2.83-4.382 5.541zm14.208 4.451a6.78 6.78 0 0 0 3.413 1.031c1.883 0 2.765-.943 2.765-2.122 0-1.238-.734-1.916-2.648-2.623-2.559-.914-3.766-2.328-3.766-4.038 0-2.299 1.853-4.185 4.913-4.185 1.441 0 2.707.412 3.502.884l-.647 1.886a5.54 5.54 0 0 0-2.912-.825c-1.53 0-2.383.884-2.383 1.945 0 1.179.854 1.71 2.708 2.417 2.471.943 3.736 2.181 3.736 4.304 0 2.505-1.942 4.273-5.325 4.273-1.559 0-3.001-.383-4.001-.972l.645-1.975zm15.122-15.711v4.097h3.706v1.975h-3.706v7.692c0 1.769.499 2.771 1.942 2.771a5.75 5.75 0 0 0 1.5-.177l.118 1.945c-.499.207-1.294.354-2.294.354-1.206 0-2.178-.383-2.796-1.09-.734-.767-1-2.034-1-3.714v-7.781h-2.206v-1.975h2.206v-3.419l2.53-.678zm18.71 4.098a62.01 62.01 0 0 0-.118 3.92v8.282c0 3.272-.647 5.276-2.03 6.515-1.383 1.297-3.383 1.71-5.178 1.71-1.706 0-3.589-.413-4.737-1.179l.647-1.975c.941.59 2.412 1.12 4.177 1.12 2.648 0 4.589-1.385 4.589-4.981v-1.592h-.059c-.794 1.327-2.324 2.388-4.53 2.388-3.53 0-6.06-3.007-6.06-6.957 0-4.834 3.148-7.575 6.413-7.575 2.472 0 3.825 1.297 4.443 2.476h.059l.118-2.152h2.265zm-2.677 5.63c0-.443-.029-.826-.147-1.179-.471-1.504-1.736-2.742-3.618-2.742-2.472 0-4.236 2.093-4.236 5.394 0 2.8 1.412 5.129 4.207 5.129 1.589 0 3.03-1.002 3.589-2.653a4.52 4.52 0 0 0 .207-1.385l-.001-2.564zm6.677-1.179c0-1.68-.029-3.125-.118-4.451h2.266l.087 2.8h.118c.647-1.916 2.206-3.124 3.942-3.124.294 0 .499.029.734.088v2.447a3.84 3.84 0 0 0-.881-.089c-1.824 0-3.119 1.385-3.471 3.331-.073.399-.112.803-.118 1.208v7.605h-2.559v-9.815zm10.768 3.153c.059 3.508 2.293 4.952 4.882 4.952 1.855 0 2.971-.324 3.942-.737l.441 1.857c-.912.413-2.471.884-4.736.884-4.383 0-7.001-2.888-7.001-7.191s2.53-7.694 6.678-7.694c4.648 0 5.884 4.097 5.884 6.72 0 .53-.059.943-.088 1.208l-10.001.001zm7.59-1.857c.028-1.65-.678-4.214-3.589-4.214-2.618 0-3.765 2.417-3.972 4.214h7.561z" fill="#000"/><path d="M95.123 131.722a9.06 9.06 0 0 0 4.589 1.297c2.618 0 4.148-1.386 4.148-3.39 0-1.857-1.059-2.918-3.736-3.949-3.236-1.15-5.236-2.83-5.236-5.63 0-3.095 2.559-5.394 6.413-5.394 2.029 0 3.5.472 4.383.973l-.706 2.093c-1.157-.624-2.452-.948-3.766-.944-2.706 0-3.736 1.621-3.736 2.977 0 1.857 1.205 2.771 3.942 3.832 3.354 1.298 5.06 2.918 5.06 5.836 0 3.065-2.265 5.718-6.942 5.718-1.912 0-4.001-.56-5.061-1.267l.648-2.152zm31.212 6.042l-7.59-2.299c-.411-.147-.823-.295-1.206-.295-4.707-.176-8.737-3.654-8.737-10.05 0-6.367 3.883-10.464 9.237-10.464 5.384 0 8.886 4.186 8.886 10.051 0 5.099-2.354 8.371-5.649 9.52v.118c1.971.501 4.119.973 5.796 1.268l-.737 2.151zm-2.118-12.939c0-3.979-2.058-8.077-6.266-8.077-4.324 0-6.442 4.008-6.413 8.313-.029 4.215 2.295 8.017 6.295 8.017 4.091 0 6.384-3.714 6.384-8.253zm6.03-9.845h2.56v17.715h8.472v2.151h-11.032V114.98z" fill="#336791"/></g><defs><clipPath id="A"><path fill="#fff" d="M0 0h144v144H0z"/></clipPath></defs></svg>