<svg xmlns="http://www.w3.org/2000/svg" width="144" height="144" fill="#188fff" xmlns:v="https://vecta.io/nano"><path d="M51.546 64.199H44.93v2.455h6.467c2.674 0 4.21 1.253 4.21 3.502 0 2.127-1.695 3.502-4.31 3.502H44.93v8.538h2.547v-6.111h3.775c3.449 0 6.925-1.856 6.925-6.055-.014-3.544-2.615-5.831-6.63-5.831zM72.86 74.622c0 3.488-1.695 5.41-4.763 5.41s-4.84-2.015-4.84-5.536V64.199H60.71v10.423c0 4.854 2.801 7.879 7.315 7.879s7.365-3.002 7.365-8.033V64.199h-2.547l.018 10.423zM81.788 64.2H79.26v18.016h12.01v-2.464h-9.481V64.199zm18.695 7.748c-3.653-.809-4.323-1.66-4.323-3.114s1.337-2.469 3.245-2.469c1.718 0 3.372.645 4.659 1.814l.254.21 1.505-2.025-.236-.196c-1.704-1.487-3.884-2.277-6.118-2.207-3.385 0-5.846 2.128-5.846 5.115 0 3.325 2.361 4.536 5.901 5.331s4.133 1.604 4.133 3.035c0 1.548-1.413 2.628-3.444 2.628-2.144 0-3.757-.655-5.565-2.375l-.24-.225-1.586 1.936.231.21c1.913 1.87 4.46 2.894 7.093 2.862 3.571 0 6.06-2.156 6.06-5.251.009-2.81-1.704-4.381-5.72-5.279zm14.96-7.874l-7.958 18.142h2.638l1.998-4.596h8.761l1.976 4.596h2.733l-7.963-18.142h-2.185zm-2.298 11.166l3.368-7.748 3.349 7.748h-6.717zm24.58-.24c2.732-.655 4.341-2.628 4.341-5.326a5.18 5.18 0 0 0-.34-1.969c-.235-.626-.593-1.197-1.047-1.683a6.87 6.87 0 0 0-5.013-1.833h-7.559v18.026h2.547v-6.757h4.343l4.885 6.752H143L137.725 75zm-7.094-1.969v-6.378h4.887c2.547 0 3.997 1.132 3.997 3.151s-1.578 3.282-4.021 3.282l-4.863-.056zm-90.795-8.776h-9.49c-2.565-5.073-5.28-9.015-8.974-9.015-4.809 0-7.066 4.325-9.25 8.538l-.19.369H1v2.502h6.368c2.248 0 2.706.781 2.706.781-1.763 2.824-3.884 5.616-7.419 5.616H1v2.623h1.668c6.853 0 9.844-5.733 12.246-10.334 2.203-4.241 3.739-6.808 6.463-6.808 2.828 0 5.801 6.345 8.416 11.947l1.165 2.474c-10.034.327-14.815 2.749-18.704 4.727-2.846 1.445-5.094 3.236-8.792 3.236H1v2.628h2.438c4.455 0 7.233-1.417 10.188-2.922 4.093-2.076 8.733-4.428 19.674-4.428h6.322V73.56h-3.571c-.295.023-.589-.023-.861-.14a1.92 1.92 0 0 1-.711-.519c-.626-1.248-1.237-2.562-1.836-3.876l-.829-1.749s.594-.655 2.234-.655h5.788v-2.366z"/></svg>