<svg xmlns="http://www.w3.org/2000/svg" width="144" height="144" fill="none" xmlns:v="https://vecta.io/nano"><path d="M21.978 70.398h-6.002c-.236-.032-.453-.149-.609-.33s-.241-.413-.239-.652v-6.33a.98.98 0 0 0-.275-.708.97.97 0 0 0-.696-.295H12.06a.97.97 0 0 0-.686.286c-.182.183-.284.431-.284.689v6.392c-.018.234-.118.454-.282.621a.99.99 0 0 1-.614.293H8.615c-.224-.031-.431-.139-.585-.305a.99.99 0 0 1-.262-.608v-6.365a.98.98 0 0 0-.275-.708.97.97 0 0 0-.696-.295H4.698a.97.97 0 0 0-.696.295.99.99 0 0 0-.209.326.98.98 0 0 0-.066.382v18.469c0 .258.102.507.284.689a.97.97 0 0 0 .686.285h17.287a.97.97 0 0 0 .686-.285.98.98 0 0 0 .284-.689V71.373a.98.98 0 0 0-.287-.692.97.97 0 0 0-.691-.283zm-2.734 6.983c0 .258-.102.507-.284.689a.97.97 0 0 1-.686.286H16.14a.97.97 0 0 1-.686-.286c-.182-.183-.284-.431-.284-.689V75.39c.007-.254.112-.495.294-.672a.97.97 0 0 1 .677-.276h2.099a.97.97 0 0 1 .686.285.98.98 0 0 1 .284.689l.034 1.964zM36.94 82.55l-1.005-4.71a17.38 17.38 0 0 0-.479-1.867c-.15-.5-.393-.966-.718-1.373a2.9 2.9 0 0 0-1.203-.845 5.57 5.57 0 0 0-1.955-.288h-2.112v9.084h-2.297v-20.4h5.031a11.25 11.25 0 0 1 2.42.261c.73.157 1.425.448 2.051.858.606.393 1.108.928 1.463 1.558.387.752.576 1.591.547 2.437a6.71 6.71 0 0 1-.26 1.957c-.156.533-.419 1.028-.772 1.456a4.46 4.46 0 0 1-1.285 1.03 7.68 7.68 0 0 1-1.804.687v.055a5.44 5.44 0 0 1 1.606.687 3.35 3.35 0 0 1 .964.947 4.55 4.55 0 0 1 .554 1.263l.376 1.627 1.21 5.575H36.94zm-.56-15.009a3.68 3.68 0 0 0-.444-1.97c-.284-.451-.693-.809-1.176-1.03a4.85 4.85 0 0 0-1.641-.398l-1.914-.069h-1.709v7.477h1.265a13.81 13.81 0 0 0 2.051-.151 5.45 5.45 0 0 0 1.811-.584 3.43 3.43 0 0 0 1.292-1.222c.341-.63.502-1.343.465-2.06v.007zm13.452 15.008v-1.868h-.055a3.18 3.18 0 0 1-.772.961 4.85 4.85 0 0 1-1.073.687 5.9 5.9 0 0 1-2.447.549 4.24 4.24 0 0 1-1.606-.282 3.13 3.13 0 0 1-1.189-.796 3.45 3.45 0 0 1-.725-1.243c-.174-.524-.26-1.074-.253-1.627-.009-.499.098-.993.314-1.442a3.8 3.8 0 0 1 .841-1.119 5.29 5.29 0 0 1 1.217-.831c.457-.233.936-.421 1.429-.563s.986-.249 1.49-.316a10.62 10.62 0 0 1 1.367-.103h.684a3.91 3.91 0 0 0 .683-.082v-1.861c-.008-.469-.096-.934-.26-1.373a2.15 2.15 0 0 0-.772-1.002c-.478-.285-1.031-.417-1.586-.378-.375-.003-.748.036-1.114.117a2.31 2.31 0 0 0-.855.371 1.95 1.95 0 0 0-.581.687 3.24 3.24 0 0 0-.308 1.064h-2.208a3.56 3.56 0 0 1 .451-1.813c.284-.487.674-.903 1.142-1.215.491-.322 1.035-.554 1.606-.687a7.69 7.69 0 0 1 1.832-.22 5.03 5.03 0 0 1 3.541 1.085c.77.723 1.155 1.868 1.155 3.433v9.866h-1.948zm-1.237-6.378a7.8 7.8 0 0 0-1.47.151 5.62 5.62 0 0 0-1.49.501 3.54 3.54 0 0 0-1.155.913 2.14 2.14 0 0 0-.465 1.373 2.07 2.07 0 0 0 .533 1.51 1.88 1.88 0 0 0 .653.443 1.86 1.86 0 0 0 .776.134c.349.004.695-.052 1.025-.165a3.67 3.67 0 0 0 .909-.453 3.94 3.94 0 0 0 .772-.687 3.63 3.63 0 0 0 .561-.879l.28-.687c.072-.213.127-.431.164-.652a4.69 4.69 0 0 0 .068-.686v-.79h-1.162v-.027zm18.332-.508a12.55 12.55 0 0 1-.315 2.685 6.83 6.83 0 0 1-.943 2.307 4.94 4.94 0 0 1-1.729 1.613 5.36 5.36 0 0 1-2.666.604 5.98 5.98 0 0 1-2.481-.46 4.1 4.1 0 0 1-1.62-1.284 5.26 5.26 0 0 1-.813-1.936 10.57 10.57 0 0 1-.267-2.437V62.151h1.996v8.658h.068c.116-.407.306-.789.56-1.126a3.82 3.82 0 0 1 .875-.831 4.02 4.02 0 0 1 1.107-.515 4.36 4.36 0 0 1 1.251-.178c.603-.013 1.203.097 1.764.323a4.01 4.01 0 0 1 1.312.892 5.06 5.06 0 0 1 .902 1.298 7.87 7.87 0 0 1 .588 1.579 11.65 11.65 0 0 1 .308 1.71 14.05 14.05 0 0 1 .103 1.703zm-2.297-.055l-.048-1.105-.171-1.25c-.08-.425-.195-.843-.342-1.25a4.39 4.39 0 0 0-.56-1.092 2.74 2.74 0 0 0-.834-.769 2.13 2.13 0 0 0-1.135-.295 2.32 2.32 0 0 0-1.224.316c-.357.219-.668.506-.916.845a4.89 4.89 0 0 0-.649 1.181 9.22 9.22 0 0 0-.41 1.373 11.66 11.66 0 0 0-.219 1.373l-.068 1.181a13.62 13.62 0 0 0 .116 1.703c.069.573.221 1.133.451 1.662a3.26 3.26 0 0 0 .964 1.263 2.59 2.59 0 0 0 1.661.494c.42.008.837-.081 1.217-.261a2.84 2.84 0 0 0 .895-.687 3.84 3.84 0 0 0 .615-1.016 7.42 7.42 0 0 0 .39-1.195 9.31 9.31 0 0 0 .205-1.236l.062-1.236zm16.454.055a12.55 12.55 0 0 1-.28 2.685 6.83 6.83 0 0 1-.943 2.307 4.94 4.94 0 0 1-1.729 1.613 5.36 5.36 0 0 1-2.666.604 5.98 5.98 0 0 1-2.481-.46 4.1 4.1 0 0 1-1.62-1.284 5.26 5.26 0 0 1-.875-1.943 10.57 10.57 0 0 1-.267-2.437V62.151h1.996v8.658h.068a3.44 3.44 0 0 1 .561-1.126c.246-.322.541-.602.875-.831a4.02 4.02 0 0 1 1.107-.515 4.36 4.36 0 0 1 1.251-.178c.603-.013 1.203.097 1.764.323a4.01 4.01 0 0 1 1.312.892 5.06 5.06 0 0 1 .923 1.305c.252.504.449 1.033.588 1.579a11.66 11.66 0 0 1 .308 1.709 14.04 14.04 0 0 1 .109 1.696zm-2.297-.055l-.048-1.105-.171-1.25c-.08-.425-.195-.843-.342-1.25a4.37 4.37 0 0 0-.561-1.092c-.222-.312-.505-.574-.834-.769a2.13 2.13 0 0 0-1.135-.295 2.32 2.32 0 0 0-1.224.316 3.25 3.25 0 0 0-.923.845 4.9 4.9 0 0 0-.649 1.181 9.22 9.22 0 0 0-.41 1.373 11.66 11.66 0 0 0-.219 1.373l-.068 1.181a13.62 13.62 0 0 0 .116 1.703 5.91 5.91 0 0 0 .451 1.662 3.26 3.26 0 0 0 .964 1.263 2.59 2.59 0 0 0 1.661.494c.42.008.837-.081 1.217-.261a2.84 2.84 0 0 0 .895-.687 3.84 3.84 0 0 0 .615-1.016 7.41 7.41 0 0 0 .39-1.195c.096-.407.165-.82.205-1.236l.061-1.236h.007zm5.823-10.779v-2.678h2.645v2.678H84.61zm.314 17.741V68.475h1.996V82.55l-1.996.021zm9.892-12.413v8.665a2.55 2.55 0 0 0 .547 1.751 2.21 2.21 0 0 0 .804.5 2.22 2.22 0 0 0 .939.118 3.17 3.17 0 0 0 .684-.069 5.66 5.66 0 0 0 .684-.206v1.806l-.889.117a8.37 8.37 0 0 1-.889.041 7 7 0 0 1-1.716-.185 2.88 2.88 0 0 1-1.217-.618 2.53 2.53 0 0 1-.725-1.119c-.172-.555-.253-1.135-.239-1.717v-9.083h-2.263v-1.689h2.283v-3.275l1.996-1.27v4.545h3.78v1.689h-3.78z" fill="#f60"/><path d="M118.194 82.604V64.657h-.055l-5.981 17.94h-2.269l-5.961-17.94h-.068v17.94h-2.058V62.206h3.452l5.762 17.35h.055l5.776-17.35h3.404v20.398h-2.057zm13.356.007a6.91 6.91 0 0 1-2.516-.426 6.15 6.15 0 0 1-1.914-1.167 6.92 6.92 0 0 1-1.367-1.737c-.378-.674-.681-1.388-.902-2.128-.233-.769-.4-1.557-.499-2.355a19.88 19.88 0 0 1-.151-2.417 23.33 23.33 0 0 1 .137-2.534 15.64 15.64 0 0 1 .458-2.437 10.63 10.63 0 0 1 .868-2.183 6.47 6.47 0 0 1 1.367-1.751 6.19 6.19 0 0 1 1.976-1.167 7.65 7.65 0 0 1 2.666-.426 7.06 7.06 0 0 1 2.597.439 5.89 5.89 0 0 1 1.914 1.202 6.44 6.44 0 0 1 1.319 1.785 10.8 10.8 0 0 1 .882 2.183 15.23 15.23 0 0 1 .424 2.417l.123 2.472-.041 1.373-.151 1.579a15.9 15.9 0 0 1-.3 1.662 10.03 10.03 0 0 1-.533 1.565 6.97 6.97 0 0 1-.725 1.373 3.44 3.44 0 0 1-.984.954l.054.055 4.184-.323v1.991h-8.886zm4.825-10.264l-.047-1.737a16.18 16.18 0 0 0-.219-1.888 11.56 11.56 0 0 0-.458-1.833 5.79 5.79 0 0 0-.841-1.572c-.346-.453-.784-.827-1.285-1.099-.565-.288-1.192-.429-1.825-.412-.662-.018-1.32.118-1.921.398a4.1 4.1 0 0 0-1.367 1.064 5.59 5.59 0 0 0-.895 1.545c-.227.592-.401 1.203-.52 1.826-.118.631-.198 1.268-.239 1.909l-.055 1.799.069 1.716a14.92 14.92 0 0 0 .259 1.847c.124.609.3 1.207.527 1.785.214.561.513 1.084.888 1.552a4.11 4.11 0 0 0 1.292 1.064c.559.277 1.175.413 1.798.398.678.019 1.352-.11 1.975-.378.523-.233.99-.577 1.367-1.009a4.85 4.85 0 0 0 .841-1.449 9.27 9.27 0 0 0 .465-1.765c.102-.625.163-1.255.185-1.888l.034-1.874h-.028z" fill="#b8b8b8"/></svg>