<svg xmlns="http://www.w3.org/2000/svg" width="144" height="144" fill="none" xmlns:v="https://vecta.io/nano"><g clip-path="url(#B)"><mask id="A" maskUnits="userSpaceOnUse" x="0" y="47" width="58" height="50"><path d="M57.384 47.994H1v48.305h56.384V47.994z" fill="#fff"/></mask><g mask="url(#A)"><path d="M55.188 85.215c-3.004 1.578-18.602 7.968-21.953 9.738s-5.161 1.694-7.78.462-19.18-7.967-22.184-9.392C1.77 85.292 1 84.715 1 84.137v-5.696s21.606-4.696 25.072-5.928c3.505-1.27 4.699-1.309 7.664-.192 2.966 1.078 20.72 4.272 23.648 5.35v5.62c0 .539-.655 1.116-2.195 1.924z" fill="#a0252b"/><path d="M55.189 79.557c-3.004 1.578-18.602 7.967-21.953 9.7s-5.161 1.694-7.78.462c-2.619-1.27-19.18-7.968-22.184-9.392s-3.043-2.425-.116-3.58l22.916-8.853c3.466-1.232 4.699-1.309 7.664-.192l21.414 8.314c2.927 1.078 3.043 1.963.038 3.541z" fill="#f04937"/><path d="M55.188 75.939c-3.004 1.578-18.602 7.967-21.953 9.7s-5.161 1.694-7.78.462-19.18-7.967-22.184-9.392C1.77 76.016 1 75.4 1 74.861v-5.697s21.606-4.696 25.072-5.966c3.505-1.27 4.699-1.309 7.664-.192s20.72 4.272 23.648 5.35v5.62c0 .577-.655 1.155-2.195 1.963z" fill="#a0252b"/><path d="M55.189 70.242c-3.004 1.578-18.602 7.967-21.953 9.699s-5.161 1.732-7.78.462-19.18-7.929-22.184-9.353-3.043-2.425-.116-3.541l22.916-8.853c3.466-1.232 4.699-1.347 7.664-.27s18.448 7.275 21.375 8.314c2.966 1.078 3.081 1.963.077 3.541z" fill="#f04937"/><path d="M55.188 66.316c-3.004 1.578-18.602 7.967-21.953 9.7s-5.161 1.694-7.78.462-19.18-7.967-22.184-9.391C1.77 66.393 1 65.777 1 65.2v-5.697s21.606-4.696 25.072-5.927 4.699-1.309 7.664-.193 20.72 4.272 23.648 5.35v5.62c0 .577-.655 1.155-2.195 1.963z" fill="#a0252b"/><path d="M55.189 60.62c-3.004 1.54-18.602 8.006-21.953 9.7s-5.161 1.694-7.78.462-19.18-7.967-22.184-9.391-3.043-2.425-.116-3.58l22.916-8.853c3.466-1.232 4.699-1.27 7.664-.192s18.448 7.236 21.375 8.314c2.966 1.078 3.081 1.963.077 3.541z" fill="#f04937"/></g><g fill="#fff"><path d="M30.078 52.539l3.736-1.232-1.04 2.425 3.813 1.386-4.891.539-1.078 2.617-1.772-2.925-5.661-.539 4.236-1.501-1.271-2.348 3.928 1.578zm.231 15.357l-9.128-3.772 13.056-2.001-3.928 5.774zM17.677 56.58c3.851 0 6.971 1.232 6.971 2.694s-3.12 2.694-6.971 2.694-6.971-1.232-6.971-2.694 3.12-2.694 6.971-2.694z"/></g><path d="M42.363 55.849l7.741 3.041-7.741 3.079v-6.12z" fill="#6d0020"/><path d="M42.364 55.849v6.12l-.847.308-7.703-3.041 8.55-3.387z" fill="#a0252b"/><g fill="#4a4b4c"><path d="M75.331 63.932c.655-.731 1.502-1.309 2.388-1.655.886-.385 1.849-.577 2.812-.616.693-.077 1.386.154 1.926.616.385.385.616.924.578 1.463 0 .539-.193 1.078-.578 1.463-.385.423-.886.654-1.464.616-2.388.192-5.739 2.617-5.739 5.85v7.39c-.038 1.155-.963 2.04-2.08 2.079-.578.038-1.117-.231-1.502-.654-.385-.385-.616-.924-.616-1.463V63.625c0-.539.231-1.078.616-1.463.462-.346 1.001-.5 1.579-.539.539 0 1.078.193 1.463.616.424.385.655.885.616 1.463v.231zm25.304 6.774c0 .5-.193 1.001-.539 1.347-.386.385-.925.577-1.464.616H86.308a3.95 3.95 0 0 0 1.348 2.54 5.61 5.61 0 0 0 3.659 1.771c1.425.231 2.889-.077 4.082-.924.424-.423.963-.654 1.579-.616.501-.039 1.001.154 1.348.539.693.616.732 1.694.116 2.386l-.116.115c-1.849 1.694-4.275 2.617-6.778 2.502-2.58.038-5.045-1.001-6.778-2.925-1.772-1.848-2.773-4.311-2.811-6.89s.963-5.081 2.811-6.89c1.695-1.847 4.082-2.848 6.586-2.81 2.426-.077 4.776.847 6.432 2.617 1.772 1.694 2.811 4.003 2.927 6.428v.192h-.077zm-9.282-5.543c-1.309.038-2.542.5-3.505 1.347-.847.693-1.425 1.655-1.656 2.694H97.13c-.308-1.039-.963-1.963-1.887-2.617-1.117-.808-2.465-1.347-3.89-1.424zm28.923 13.665c0 .539-.231 1.078-.616 1.463s-.924.616-1.463.616c-1.002-.038-1.849-.731-2.08-1.655-1.541 1.116-3.428 1.694-5.315 1.655-2.503.039-4.93-1.001-6.663-2.81a9.19 9.19 0 0 1-2.696-6.89 10.2 10.2 0 0 1 2.696-6.89c1.733-1.848 4.16-2.925 6.663-2.925 1.887-.038 3.697.577 5.199 1.655v-7.236c0-.539.232-1.078.617-1.463s.924-.616 1.463-.616 1.079.231 1.464.616.616.924.616 1.463v23.017h.115zm-9.397-2.079c1.387.038 2.735-.577 3.659-1.655 2.08-2.155 2.08-5.581 0-7.698-.924-1.039-2.234-1.655-3.659-1.655a4.57 4.57 0 0 0-3.659 1.655c-2.079 2.155-2.079 5.581 0 7.698.925 1.039 2.273 1.655 3.659 1.655zm15.559-20.938v.847c.039.577-.231 1.155-.654 1.578-.385.385-.925.577-1.464.539-.539 0-1.078-.192-1.463-.616-.424-.423-.655-.962-.617-1.578v-.77c0-.539.232-1.078.617-1.463s.924-.616 1.463-.616 1.079.231 1.464.616c.423.346.654.885.654 1.463zm-3.543 6.351c.385-.385.925-.616 1.464-.616s1.078.231 1.463.616c.385.423.616.962.616 1.54v15.242c.039.577-.192 1.116-.616 1.463-.385.385-.924.616-1.463.616s-1.079-.231-1.464-.616-.616-.924-.616-1.463V63.74c-.039-.616.193-1.155.616-1.578zm18.333 1.463c.423.308.731.731.847 1.232a3.14 3.14 0 0 1-.193 1.578c-.308.423-.731.731-1.271.847s-1.116 0-1.579-.308c-1.463-.924-2.618-1.463-3.543-1.463-.809-.039-1.656.192-2.311.731-.423.308-.616.539-.616.731-.038.192 0 .346.116.539a1.71 1.71 0 0 0 .423.308 6.09 6.09 0 0 0 2.812.924 15.59 15.59 0 0 1 3.736 1.155c1.04.423 1.925 1.193 2.503 2.194a5.54 5.54 0 0 1 .847 2.694c0 1.809-.924 3.464-2.388 4.465a8.59 8.59 0 0 1-5.006 1.578c-2.388 0-4.699-.924-6.894-2.694-.385-.347-.655-.847-.732-1.347-.116-1.116.693-2.079 1.81-2.194.501-.038 1.002.115 1.425.423 1.156 1.078 2.696 1.694 4.275 1.655a4.5 4.5 0 0 0 2.619-.731c.424-.423.732-.731.732-1.039s0-.423-.116-.539c0-.115-.192-.308-.539-.423-.963-.577-2.003-.962-3.119-1.116a11.57 11.57 0 0 1-3.544-1.155c-1.001-.5-1.887-1.232-2.503-2.194-.424-.731-.616-1.54-.616-2.386 0-1.732.847-3.31 2.31-4.272 1.425-.962 3.082-1.463 4.776-1.463 1.772.115 3.659.847 5.739 2.194"/></g></g><defs><clipPath id="B"><path fill="#fff" transform="translate(1 48)" d="M0 0h142v48.305H0z"/></clipPath></defs></svg>