<svg xmlns="http://www.w3.org/2000/svg" width="144" height="144" fill="none" xmlns:v="https://vecta.io/nano"><path d="M5.776 126.309a13.87 13.87 0 0 1-2.522-.634v-3.219c1.646.557 3.37.851 5.107.871 1.4 0 2.439-.272 3.128-.816a2.85 2.85 0 0 0 1.024-2.376 3.17 3.17 0 0 0-.313-1.477 2.88 2.88 0 0 0-1.045-1.073 9.12 9.12 0 0 0-2-.899l-1.366-.46c-3.338-1.136-5.007-3.249-5.01-6.341a6.67 6.67 0 0 1 .906-3.554c.643-1.021 1.588-1.818 2.703-2.278a11.12 11.12 0 0 1 4.438-.788c.792-.001 1.584.05 2.369.154a12.2 12.2 0 0 1 2.062.432v3.205c-1.332-.404-2.719-.602-4.111-.585-3.045 0-4.568 1.043-4.571 3.128-.015.485.082.967.286 1.408a2.7 2.7 0 0 0 .948 1.011c.577.359 1.197.643 1.846.843l1.366.459a8.82 8.82 0 0 1 3.951 2.432 6.01 6.01 0 0 1 1.345 4.056c.037 1.266-.285 2.517-.927 3.609a5.97 5.97 0 0 1-2.703 2.313 10.31 10.31 0 0 1-4.278.802 16.14 16.14 0 0 1-2.634-.223zm13.071-19.03c-.176-.178-.312-.391-.4-.625a1.77 1.77 0 0 1-.109-.734c-.015-.25.022-.501.11-.736s.223-.45.399-.629a2.56 2.56 0 0 1 3.017.006 1.8 1.8 0 0 1 .401.626c.089.234.128.484.114.733a1.77 1.77 0 0 1-.109.734c-.088.234-.224.447-.4.625-.442.313-.97.481-1.512.481s-1.07-.168-1.512-.481zm3.498 2.237h-3.728v16.724h3.728v-16.724zm3.302 0h3.094l.279 1.791h.202c.505-.641 1.145-1.162 1.874-1.526a5.3 5.3 0 0 1 2.383-.53 4.39 4.39 0 0 1 1.835.303 4.4 4.4 0 0 1 1.545 1.035c.829.892 1.247 2.334 1.247 4.313v11.33h-3.707v-11.044a2.88 2.88 0 0 0-.564-2.007 2.11 2.11 0 0 0-.741-.47c-.277-.104-.573-.147-.868-.129-.555.007-1.101.14-1.596.39a3 3 0 0 0-1.275 1.192v12.082h-3.707v-16.73zm20.095 20.793c1.421 0 2.469-.328 3.142-.983s1.013-1.758 1.01-3.31v-1.47h-.181a3.93 3.93 0 0 1-1.47 1.394c-.653.356-1.388.537-2.132.522-.979.007-1.937-.284-2.745-.836a5.71 5.71 0 0 1-2-2.689c-.555-1.516-.813-3.125-.76-4.739 0-2.982.667-5.214 2-6.696s3.352-2.23 6.062-2.237a16.08 16.08 0 0 1 2.592.216c.799.12 1.586.316 2.348.585v15.344c0 2.766-.627 4.78-1.867 6.027-1.247 1.248-3.142 1.87-5.685 1.868-.132 0-.181 0-.313-.007v-2.989zm3.156-7.296c.405-.194.751-.492 1.003-.864v-9.811a7.12 7.12 0 0 0-1.533-.167 3.49 3.49 0 0 0-2.968 1.303c-.662.871-.989 2.327-.989 4.383-.038 1.13.091 2.259.383 3.351.161.658.536 1.244 1.066 1.666.517.324 1.119.484 1.728.46a2.86 2.86 0 0 0 1.31-.321zm8.02 3.233v-24.778h3.707v24.772h-3.707v.006zm18.84-7.177h-8.751c-.004.914.169 1.82.509 2.669a2.72 2.72 0 0 0 1.366 1.38c.78.306 1.615.446 2.453.411a13.66 13.66 0 0 0 3.651-.586v3.018a17.14 17.14 0 0 1-2.091.446 14.54 14.54 0 0 1-2 .139c-1.499.06-2.991-.243-4.348-.885-1.134-.606-2.018-1.593-2.495-2.787a13.06 13.06 0 0 1-.815-5.052c0-2.864.564-5.003 1.693-6.432s2.727-2.141 4.794-2.139c4.027 0 6.041 2.892 6.041 8.675v1.143h-.007zm-7.49-6.835c-.454.394-.773.92-.913 1.505-.255.965-.375 1.962-.355 2.961h5.261c.021-.997-.087-1.992-.321-2.961-.12-.58-.42-1.106-.857-1.505a2.18 2.18 0 0 0-1.379-.432c-.513-.018-1.017.134-1.436.432zm12.436 14.075a13.87 13.87 0 0 1-2.522-.634v-3.219c1.646.557 3.37.851 5.107.871 1.401 0 2.438-.272 3.128-.816a2.85 2.85 0 0 0 1.024-2.376 3.17 3.17 0 0 0-.314-1.477c-.248-.444-.608-.814-1.045-1.073a9.12 9.12 0 0 0-2-.899l-1.365-.46c-3.345-1.143-5.015-3.259-5.01-6.348a6.67 6.67 0 0 1 .906-3.553 5.81 5.81 0 0 1 2.704-2.279c1.41-.563 2.921-.831 4.438-.787.792-.002 1.584.049 2.369.153a12.2 12.2 0 0 1 2.063.432v3.205c-1.332-.404-2.719-.602-4.111-.585-3.045 0-4.569 1.043-4.571 3.129a3.12 3.12 0 0 0 .286 1.407 2.69 2.69 0 0 0 .948 1.01c.576.36 1.197.644 1.846.843l1.366.46a8.82 8.82 0 0 1 3.95 2.432 6.01 6.01 0 0 1 1.345 4.056c.037 1.266-.285 2.517-.927 3.609a5.98 5.98 0 0 1-2.704 2.314c-1.353.568-2.811.841-4.278.801-.883.004-1.764-.068-2.634-.216zm21.454-3.164v3.094c-.824.197-1.668.296-2.516.293-1.749 0-3.073-.46-3.985-1.387s-1.368-2.394-1.366-4.404v-8.264h-2.557v-2.961h2.557l.662-5.965h3.052v5.965h4.013v2.961h-4.013v7.819c-.025.614.063 1.228.258 1.811a1.71 1.71 0 0 0 .815.941c.466.209.974.307 1.484.286.537-.018 1.07-.081 1.596-.189zm2.815 1.311c-1.157-1.394-1.735-3.564-1.735-6.509 0-5.797 2.234-8.694 6.703-8.689 2.146 0 3.8.711 4.961 2.132 1.156 1.422 1.742 3.596 1.742 6.529 0 5.756-2.232 8.634-6.696 8.634-2.16 0-3.818-.704-4.975-2.097zm6.556-1.234a3.31 3.31 0 0 0 .962-1.749c.259-1.147.371-2.322.334-3.498a14.98 14.98 0 0 0-.334-3.589c-.124-.684-.463-1.312-.969-1.79-.463-.33-1.018-.508-1.587-.509a2.75 2.75 0 0 0-1.59.502c-.499.473-.836 1.093-.961 1.77-.446 2.339-.446 4.74 0 7.079.125.677.462 1.296.961 1.77a2.46 2.46 0 0 0 1.603.502c.568.027 1.127-.146 1.581-.488zm7.699-13.706h3.066l.293 2.299h.181a4.18 4.18 0 0 1 1.665-1.895 4.66 4.66 0 0 1 2.383-.606 5.96 5.96 0 0 1 1.059.09v3.463a7.51 7.51 0 0 0-1.289-.09c-.737-.001-1.463.176-2.118.515a3.7 3.7 0 0 0-1.533 1.422v11.525h-3.707v-16.723zm22.06 9.553h-8.751c-.004.914.169 1.82.509 2.669a2.72 2.72 0 0 0 1.366 1.38 6.02 6.02 0 0 0 2.452.411 13.66 13.66 0 0 0 3.651-.586v3.018c-.687.191-1.385.341-2.09.446a14.55 14.55 0 0 1-2 .139c-1.499.06-2.991-.243-4.348-.885-1.134-.606-2.017-1.593-2.494-2.787-.602-1.614-.879-3.331-.815-5.052 0-2.864.564-5.003 1.693-6.432s2.726-2.141 4.794-2.139c4.027 0 6.04 2.892 6.041 8.675v1.143h-.008zm-7.49-6.835a2.89 2.89 0 0 0-.913 1.505 10.79 10.79 0 0 0-.355 2.961h5.261c.021-.997-.087-1.992-.321-2.961-.12-.58-.42-1.107-.857-1.505a2.18 2.18 0 0 0-1.379-.432c-.513-.018-1.018.134-1.436.432z" fill="#1b1a21"/><path d="M73.809 9.837c8.379 2.331 16.014 8.203 19.179 15.382 4.841 11.653 3.724 26.383-1.583 35.145-4.469 7.178-11.358 11-19.272 10.907-2.934.003-5.839-.573-8.55-1.694s-5.174-2.765-7.249-4.839a22.33 22.33 0 0 1-6.546-15.794 22.33 22.33 0 0 1 6.546-15.794c2.075-2.073 4.538-3.718 7.249-4.839s5.616-1.697 8.55-1.694c2.868-.001 5.708.571 8.353 1.682 0 0-2.409-1.427-8.598-2.386-17.782-2.331-38.765 11.145-33.923 42.188 4.244 7.557 10.879 13.489 18.861 16.864a39.09 39.09 0 0 0 25.237 1.782c8.377-2.22 15.779-7.161 21.043-14.046a39.09 39.09 0 0 0 8.036-23.991c0-20.696-16.851-38.315-37.333-38.874z" fill="url(#A)"/><path d="M88.425 26.336c-2.98-6.246-9.124-11.187-16.665-13.144a24.35 24.35 0 0 0-5.4-.746 33.77 33.77 0 0 0-8.565 1.119 33.85 33.85 0 0 0-15.175 9.602 38.87 38.87 0 0 0-7.821 13.517c0 .093-.093.187-.093.373-.187.582-.343 1.173-.466 1.771-.093.186-.093.466-.186.653l-.279 1.119c.006.051.001.102-.015.15a.34.34 0 0 1-.078.129c-2.42 12.026 1.601 22.818 4.021 26.826l1.601 2.607C33.811 40.48 49.602 26.243 67.571 25.87c9.403-.186 18.806 3.636 23.368 11.28-.279-4.195-.559-6.525-2.514-10.814z" fill="url(#B)"/><defs><linearGradient id="A" x1="109.447" y1="23.243" x2="52.351" y2="73.504" gradientUnits="userSpaceOnUse"><stop stop-color="#f0f"/><stop offset=".404" stop-color="#a0f"/><stop offset="1" stop-color="#1e0a78"/></linearGradient><linearGradient id="B" x1="39.041" y1="22.263" x2="73.743" y2="57.483" gradientUnits="userSpaceOnUse"><stop offset=".035" stop-color="#f0f"/><stop offset=".513" stop-color="#80c"/><stop offset="1" stop-color="#311b92"/></linearGradient></defs></svg>