<svg xmlns="http://www.w3.org/2000/svg" width="144" height="144" fill="none" xmlns:v="https://vecta.io/nano"><g clip-path="url(#E)"><mask id="A" maskUnits="userSpaceOnUse" x="0" y="60" width="35" height="48"><path d="M0 60.304h34.276v46.882H0V60.304z" fill="#fff"/></mask><g mask="url(#A)"><path d="M28.541 84.834c-1.644-.879-3.498-1.49-5.512-1.834-1.98-.335-3.994-.503-5.981-.503-1.63 0-3.274-.143-4.897-.42-1.574-.272-3.008-.766-4.246-1.483-1.21-.692-2.21-1.659-2.973-2.875-.755-1.202-1.133-2.79-1.133-4.709.036-1.694.426-3.142 1.161-4.309a8.84 8.84 0 0 1 2.903-2.861c1.21-.731 2.602-1.265 4.141-1.596 2.623-.56 5.393-.664 8.184-.269 1.105.157 2.189.434 3.239.822 1.028.385 1.994.907 2.875 1.56.86.642 1.63 1.448 2.273 2.397l.358.53 2.651-1.118-.563-.794a17.4 17.4 0 0 0-2.371-2.741c-.874-.808-1.896-1.497-3.05-2.045-1.133-.538-2.434-.956-3.861-1.23-1.413-.275-3.064-.415-4.897-.415-1.763 0-3.581.203-5.407.604-1.854.406-3.574 1.082-5.106 2.003a11.65 11.65 0 0 0-3.847 3.732c-.993 1.56-1.504 3.486-1.504 5.721 0 2.348.47 4.344 1.392 5.939.923 1.582 2.154 2.868 3.665 3.81 1.483.928 3.211 1.596 5.134 1.982 1.882.379 3.847.571 5.855.571a36.32 36.32 0 0 1 5.008.363c1.686.233 3.26.703 4.666 1.406 1.371.681 2.518 1.631 3.4 2.811.853 1.153 1.287 2.699 1.287 4.611 0 1.715-.418 3.177-1.238 4.358-.846 1.209-1.952 2.207-3.274 2.973-1.35.781-2.882 1.35-4.554 1.701-1.7.357-3.372.539-4.987.539-2.707 0-5.386-.519-7.974-1.547a18.99 18.99 0 0 1-6.743-4.554l-.513-.538-2.113 1.842.593.596c1.889 1.898 4.239 3.556 6.981 4.92 2.77 1.385 6.058 2.081 9.723 2.081 1.763 0 3.63-.201 5.554-.601 1.952-.404 3.784-1.097 5.442-2.06 1.686-.977 3.085-2.256 4.169-3.802 1.112-1.589 1.672-3.571 1.672-5.905 0-2.362-.527-4.365-1.574-5.946-1.028-1.56-2.399-2.812-4.085-3.711" fill="#231e28"/></g><mask id="B" maskUnits="userSpaceOnUse" x="37" y="72" width="33" height="36"><path d="M37.075 72.252h32.877v34.933H37.075V72.252z" fill="#fff"/></mask><g mask="url(#B)"><path d="M53.443 104.375c-1.91 0-3.658-.395-5.197-1.181-1.56-.787-2.931-1.87-4.085-3.198-1.161-1.343-2.085-2.91-2.742-4.66a17.6 17.6 0 0 1-1.112-5.447c0-1.708.317-3.451.937-5.187a15.32 15.32 0 0 1 2.686-4.688c1.154-1.378 2.56-2.509 4.183-3.388 1.595-.857 3.386-1.293 5.33-1.293a11.23 11.23 0 0 1 5.134 1.209c1.602.815 3.008 1.905 4.183 3.24 1.175 1.343 2.12 2.91 2.798 4.66s1.021 3.585 1.021 5.447c0 1.708-.314 3.451-.937 5.187-.62 1.729-1.525 3.31-2.679 4.688-1.154 1.37-2.56 2.502-4.183 3.352-1.595.844-3.386 1.266-5.337 1.266m11.612-26.288c-1.385-1.631-3.071-2.973-5.008-4.007-1.966-1.04-4.183-1.567-6.582-1.567-2.189 0-4.281.47-6.219 1.399a16.1 16.1 0 0 0-5.05 3.781c-1.427 1.581-2.567 3.444-3.4 5.539s-1.252 4.323-1.252 6.635c0 2.179.388 4.316 1.154 6.347.762 2.024 1.854 3.866 3.232 5.469 1.385 1.609 3.078 2.924 5.016 3.915 1.959.991 4.148 1.518 6.498 1.56h.027c2.231-.041 4.337-.546 6.275-1.49a16.7 16.7 0 0 0 5.05-3.817c1.427-1.581 2.553-3.423 3.365-5.475.811-2.059 1.217-4.245 1.217-6.509 0-2.052-.377-4.14-1.119-6.213s-1.826-3.943-3.204-5.574" fill="#231e28"/></g><mask id="C" maskUnits="userSpaceOnUse" x="74" y="59" width="13" height="49"><path d="M74.148 59.599h11.892v47.585H74.148V59.599z" fill="#fff"/></mask><g mask="url(#C)"><path d="M83.941 103.602l-1.224.263-1.175.184c-.391.055-.777.085-1.147.085-.937 0-1.623-.312-2.105-.956-.533-.702-.79-1.405-.79-2.143V60.057h-2.784v40.978c0 1.539.483 2.895 1.434 4.041.986 1.188 2.399 1.793 4.183 1.793a14.12 14.12 0 0 0 1.658-.097l1.399-.19 1.469-.288.944-.219-1.238-2.636-.623.163z" fill="#231e28"/></g><path d="M95.833 75.345c-1.448 1.026-2.728 2.326-3.826 3.88v-6.214h-2.784v33.527h2.784V85.664c.385-1.371.916-2.65 1.581-3.817.669-1.174 1.497-2.207 2.476-3.065.972-.864 2.105-1.56 3.365-2.081s2.679-.822 4.218-.9l.742-.038v-2.762h-.777c-2.973 0-5.589.78-7.764 2.327" fill="#231e28"/><g fill="#d93321"><path d="M135.704 42.451l-23.083 25.093 29.029-13.425a23.43 23.43 0 0 0-5.925-11.597m-17.507-7.521a23.35 23.35 0 0 0-9.024 1.806l-3.099 26.217 15.459-27.764a23.25 23.25 0 0 0-3.357-.245"/></g><mask id="D" maskUnits="userSpaceOnUse" x="114" y="55" width="29" height="17"><path d="M114.021 55.386h27.98v16.166h-27.98V55.386z" fill="#fff"/></mask><g mask="url(#D)"><path d="M142 55.525l-27.491 15.463 25.812-3.079c1.224-2.861 1.903-6.003 1.903-9.278a24.13 24.13 0 0 0-.203-3.072" fill="#d93321"/></g><g fill="#d93321"><path d="M131.507 78.157c3.071-2.088 5.624-4.892 7.415-8.153l-24.203 4.822 16.788 3.332zm-8.394-42.668l-13.43 29.31 24.972-23.195c-3.126-3.022-7.065-5.187-11.472-6.108m-2.868 46.597c2.602-.217 5.079-.85 7.345-1.856l-13.57-1.617 6.225 3.472zM97.231 48.918a23.55 23.55 0 0 0-1.98 7.591l3.644 6.551-1.665-14.142zm10.493-11.141c-3.315 1.785-6.148 4.337-8.254 7.451l3.407 17.221 4.847-24.671z"/></g></g><defs><clipPath id="E"><path fill="#fff" transform="translate(0 35)" d="M0 0h142v72.397H0z"/></clipPath></defs></svg>