<svg xmlns="http://www.w3.org/2000/svg" width="144" height="144" fill="none" xmlns:v="https://vecta.io/nano"><g clip-path="url(#A)"><g fill="#1e154b"><path d="M140.817 68.658c.903-.468 1.772-1.505 1.772-2.91 0-2.409-1.906-3.748-4.579-3.748h-5.681v14.654h5.881c3.076 0 5.115-1.606 5.115-4.35 0-1.94-1.136-3.145-2.507-3.647l-.001.001zm-5.749-4.45h2.708c1.505 0 2.24.635 2.24 1.774s-.735 1.74-2.206 1.74h-2.742v-3.514zm2.842 10.037h-2.842v-4.182h2.842c1.871 0 2.773.77 2.773 2.109s-.902 2.073-2.773 2.073zm-15.272-12.244h-4.746v14.654h4.746c4.077 0 7.52-2.442 7.52-7.327s-3.443-7.327-7.52-7.327zm-.201 12.245h-1.772v-9.87h1.772c2.507 0 4.913 1.305 4.913 4.952s-2.406 4.918-4.913 4.918zm-9.025-1.103c-.267 1.003-1.136 1.538-2.472 1.538-1.605 0-2.709-1.07-2.909-2.775h7.787a5.77 5.77 0 0 0 .066-.87c0-2.544-1.604-5.12-5.146-5.12s-5.18 2.643-5.18 5.42 1.938 5.487 5.381 5.487c2.607 0 4.577-1.438 4.979-3.68h-2.506zm-2.674-5.287c1.538 0 2.439 1.004 2.573 2.342h-5.213c.267-1.573 1.203-2.342 2.64-2.342zm-6.048.401v-2.175h-2.908v-3.179H99.21v3.179h-2.072v2.175h2.072v4.718c0 2.342 1.503 3.68 3.809 3.68h1.671V74.48h-1.403c-.936 0-1.505-.535-1.505-1.606v-4.617h2.908zm-10.761-2.174l-2.406 7.26-2.472-7.26h-2.607l3.843 10.573-1.47 4.282h2.439l1.638-4.785 3.676-10.07h-2.64zm-12.768-.168c-1.37 0-2.507.602-3.108 1.472v-5.383H75.48v14.65h2.573V75.35c.602.904 1.772 1.472 3.042 1.472 3.176 0 5.047-2.208 5.047-5.454s-1.872-5.453-4.98-5.453zm-.435 8.7c-1.705 0-2.841-1.305-2.841-3.247s1.136-3.211 2.841-3.211 2.841 1.271 2.841 3.211-1.136 3.247-2.841 3.247zm-12.097-8.699c-2.741 0-4.512 1.639-4.645 3.748h2.306c.033-.937.869-1.807 2.24-1.807s2.138.737 2.138 1.773c0 .402-.233.704-.768.704h-1.939c-2.372 0-3.976 1.271-3.976 3.346 0 1.807 1.436 3.145 3.509 3.145 1.538 0 2.739-.703 3.174-1.74v1.573h2.541v-6.792c0-2.375-1.905-3.948-4.579-3.948h-.001zm2.038 6.29c0 1.573-.935 2.71-2.54 2.71-.969 0-1.638-.535-1.638-1.372 0-.903.736-1.505 1.805-1.505h2.372v.168zm-23.862-6.123v5.788c0 1.54-1.036 2.677-2.474 2.677s-2.205-1.004-2.205-2.442v-6.023h-2.54v6.558c0 2.475 1.471 4.182 3.91 4.182 1.504 0 2.707-.635 3.309-1.807v1.639h2.574V66.083h-2.574zm-11.197 0l-2.439 7.26-2.44-7.26h-2.607l3.843 10.573-1.471 4.282h2.44l1.637-4.785 3.678-10.07h-2.641zm23.696 0v1.205c-.601-.804-1.738-1.372-3.075-1.372-3.141 0-4.979 2.242-4.979 5.453s1.838 5.454 5.014 5.454c1.537 0 2.54-.535 3.074-1.338v.168c0 1.974-.634 3.313-2.707 3.313-1.303 0-1.972-.535-2.407-1.573h-2.573c.568 2.576 2.306 3.713 4.979 3.713 3.342 0 5.147-2.007 5.147-5.453l.1-9.569h-2.573l-.001-.002zm-2.674 8.532c-1.705 0-2.841-1.305-2.841-3.247s1.136-3.211 2.841-3.211 2.874 1.271 2.874 3.211-1.136 3.247-2.874 3.247z"/></g><g fill="#ff5f3b"><path d="M6.6 62c.477 0 .716 0 .898.093a.85.85 0 0 1 .372.373c.093.182.093.421.093.899v6.001c0 .712 0 1.068-.15 1.287a.85.85 0 0 1-.562.358c-.261.044-.583-.107-1.228-.408l-1.679-.784c-1.212-.566-1.818-.849-2.262-1.285-.392-.386-.692-.856-.875-1.376C1 66.571 1 65.901 1 64.562v-1.197c0-.478 0-.717.093-.899a.85.85 0 0 1 .372-.373C1.648 62 1.886 62 2.363 62H6.6zm13.929 0c.477 0 .716 0 .898.093a.85.85 0 0 1 .372.373c.093.182.093.421.093.899v1.198c0 1.339 0 2.009-.208 2.596-.184.519-.483.99-.875 1.376-.444.437-1.05.72-2.262 1.285l-3.618 1.689v-8.144c0-.478 0-.717.093-.899a.85.85 0 0 1 .372-.373c.182-.093.421-.093.898-.093h4.237z"/><path d="M14.929 71.509v8.145c0 .478 0 .717-.093.899-.082.16-.212.291-.372.373-.182.093-.421.093-.898.093H9.328c-.477 0-.716 0-.898-.093-.16-.082-.291-.212-.372-.373-.093-.182-.093-.421-.093-.899v-1.198c0-1.339 0-2.009.208-2.596.184-.519.483-.989.875-1.376.444-.437 1.05-.72 2.262-1.285l3.618-1.689z"/></g></g><defs><clipPath id="A"><path fill="#fff" transform="translate(1 62)" d="M0 0h143v19H0z"/></clipPath></defs></svg>