<svg width="72" height="62" viewBox="0 0 72 62" fill="none" xmlns="http://www.w3.org/2000/svg">
<path d="M18.4679 44.9512H14.2514L12.1431 48.5878H16.3597L18.4679 44.9512Z" fill="#F79133"/>
<path d="M15.4116 39.6816H11.1962L9.08789 43.3171H13.3044L15.4116 39.6816Z" fill="#F79133"/>
<path d="M21.5224 39.6816H17.307L15.1987 43.3171H19.4142L21.5224 39.6816Z" fill="#F79133"/>
<path d="M44.5267 0H40.3112L18.2534 38.0472H22.4699L44.5267 0Z" fill="#F79133"/>
<path d="M24.3643 38.0472H67.8005L71.8866 31L53.915 0H46.421L24.3643 38.0472Z" fill="#F79133"/>
<path d="M8.14027 44.9512L8.11377 44.9966L10.1956 48.5878H10.2486L12.3568 44.9512H8.14027Z" fill="#F79133"/>
<path d="M11.1964 50.2217L11.1699 50.2671L13.2516 53.8583H13.3036L15.4118 50.2217H11.1964Z" fill="#F79133"/>
<path d="M60.7432 50.2217H17.307L15.1987 53.8583H58.6349L60.7432 50.2217Z" fill="#F79133"/>
<path d="M4.13809 38.0472L26.1959 0H17.9717L0 31L4.08509 38.0472H4.13809Z" fill="#F79133"/>
<path d="M23.4168 39.6816L21.3096 43.3171H64.7458L66.853 39.6816H23.4168Z" fill="#F79133"/>
<path d="M14.2511 55.4912L14.2246 55.5366L17.9716 62.0001L53.9149 61.999L57.6873 55.4912H14.2511Z" fill="#F79133"/>
<path d="M12.1431 38.0472H16.3597L38.4164 0H34.2009L12.1431 38.0472Z" fill="#F79133"/>
<path d="M6.0332 38.0472H10.2487L32.3054 0H28.09L6.0332 38.0472Z" fill="#F79133"/>
<path d="M5.05908 39.727L7.14084 43.3171H7.19384L9.30105 39.6816H5.08558L5.05908 39.727Z" fill="#F79133"/>
<path d="M20.3617 44.9512L18.2534 48.5878H61.6896L63.7979 44.9512H20.3617Z" fill="#F79133"/>
</svg>
