<?xml version="1.0" encoding="UTF-8" standalone="no"?>
<svg xmlns:rdf="http://www.w3.org/1999/02/22-rdf-syntax-ns#" xmlns="http://www.w3.org/2000/svg" xml:space="preserve" height="168.98" viewBox="0 0 331.62189 168.97772" width="331.62" version="1.1" xmlns:cc="http://creativecommons.org/ns#" xmlns:dc="http://purl.org/dc/elements/1.1/"><g transform="matrix(1.25 0 0 -1.25 -390.11 305.09)"><g fill="#bf5700" transform="translate(574.03 241.88)"><path d="m0 0c-9.484 2.578-20.969 0.665-30.204-2.164-17.64-5.659-32.699-17.641-49.091-26.211-8.655-3.661-20.555-4.41-28.542 0.583-1.913 1.358-5.38 0.388-5.38 0.388-1.109 0.831-2.352 1.148-3.856 0.611-3.994-2.914-8.155 1.58-12.396-0.75-4.242 2.33-8.402-2.164-12.396 0.75-1.505 0.537-2.747 0.22-3.856-0.611 0 0-3.469 0.97-5.382-0.388-7.986-4.993-19.885-4.244-28.539-0.583-16.394 8.57-31.452 20.552-49.092 26.211-9.236 2.829-20.72 4.742-30.205 2.164-1.248-0.832-2.664-2.331-2.331-4.161 0.666-1.082 1.333-2.58 2.747-2.83 33.95 5.076 52.254-28.623 80.712-37.526 0.055-0.361-1.609-1.747-3.413-2.718-4.021-2.22-9.985-1.359-10.4-6.851 1.081-3.413 5.241-4.661 8.237-5.991 7.073-3.997 15.562-0.668 21.967 2.578 0.748 0.75 1.997 0.334 2.578-0.416-0.499-15.395 11.234-25.63 13.397-39.941 1.249-6.657-2.912-11.564-3.411-17.806-0.055-2.303 1.747-0.778 2.718-8.404 0.417-1.387 3.884-5.271 7.018-6.906 2.893-1.14 6.246-1.472 9.651-1.383 3.404-0.089 6.757 0.243 9.65 1.383 3.134 1.635 6.602 5.519 7.015 6.906 0.974 7.626 2.776 6.101 2.721 8.404-0.5 6.242-4.66 11.149-3.412 17.806 2.164 14.311 13.896 24.546 13.396 39.941 0.584 0.75 1.833 1.166 2.581 0.416 6.405-3.246 14.892-6.575 21.967-2.578 2.995 1.33 7.155 2.578 8.237 5.991-0.417 5.492-6.381 4.631-10.4 6.851-1.805 0.971-3.469 2.357-3.415 2.718 28.459 8.903 46.765 42.602 80.714 37.526 1.414 0.25 2.08 1.748 2.744 2.83 0.323 1.828-1.09 3.327-2.338 4.159" fill="#bf5700"/></g></g></svg>
