<svg width="22" height="40" viewBox="0 0 22 40" fill="none" xmlns="http://www.w3.org/2000/svg">
<path d="M4.98803 14.3514C4.98803 14.3514 3.27603 12.0974 2.12803 8.87237C2.12803 8.87237 0.575031 4.83937 1.52603 2.95837C1.52603 2.95837 2.35103 1.22137 3.99003 1.31837C3.99003 1.31837 4.09403 1.31237 4.26603 1.35237C4.78203 1.47337 5.90903 2.01137 6.68103 4.37937C6.68103 4.37937 7.23803 5.89037 7.40803 8.14737C7.40803 8.14737 7.51103 9.33737 7.49103 10.8604L7.29903 13.3584C7.28539 13.5057 7.26066 13.6518 7.22503 13.7954C7.15203 14.0944 7.01203 14.6264 6.86903 14.9834L6.68103 15.4034C6.68103 15.4034 6.47103 15.9224 6.06603 15.5354C6.06603 15.5354 5.37803 14.9054 4.98903 14.3504L4.98803 14.3514Z" fill="#2A140B"/>
<path d="M9.66697 22.8002C9.66697 22.8002 9.16997 20.9672 7.33997 20.1272C7.33997 20.1272 6.68597 19.7662 5.84097 20.1692C5.84097 20.1692 5.67097 20.2252 5.41897 20.3882C5.05197 20.6242 4.51197 21.0832 4.06697 21.9192C4.06697 21.9192 3.81697 22.3772 3.70497 22.8392C3.70497 22.8392 3.57097 23.3012 3.75197 23.8622C3.79114 23.984 3.8424 24.1016 3.90497 24.2132C3.90497 24.2132 4.15197 24.6992 4.86397 25.2592L4.93097 25.3122C5.13297 25.4662 5.76997 25.9172 6.58197 26.1542C6.58197 26.1542 7.40797 26.4072 8.03997 26.4152C8.03997 26.4152 9.10397 26.5132 9.45597 26.0262C9.45597 26.0262 10.063 25.2142 9.95297 24.1612C9.95297 24.1612 9.88597 23.3552 9.66697 22.8002ZM12.337 22.8002C12.337 22.8002 12.834 20.9672 14.664 20.1272C14.664 20.1272 15.318 19.7662 16.163 20.1692C16.163 20.1692 16.333 20.2252 16.585 20.3882C16.952 20.6242 17.492 21.0832 17.937 21.9192C18.023 22.2384 18.1444 22.547 18.299 22.8392C18.299 22.8392 18.433 23.3012 18.252 23.8622C18.2127 23.984 18.1614 24.1015 18.099 24.2132C18.099 24.2132 17.852 24.6992 17.14 25.2592L17.073 25.3122C16.871 25.4662 16.234 25.9172 15.422 26.1542C15.422 26.1542 14.596 26.4072 13.964 26.4152C13.964 26.4152 12.9 26.5132 12.548 26.0262C12.548 26.0262 11.941 25.2142 12.051 24.1612C12.051 24.1612 12.118 23.3552 12.337 22.8002Z" fill="white"/>
<path d="M17.0168 14.3514C17.0168 14.3514 18.7288 12.0974 19.8768 8.87237C19.8768 8.87237 21.4298 4.83937 20.4788 2.95837C20.4788 2.95837 19.6538 1.22137 18.0148 1.31837C18.0148 1.31837 17.9108 1.31237 17.7388 1.35237C17.2228 1.47337 16.0958 2.01137 15.3238 4.37937C15.3238 4.37937 14.7668 5.89037 14.5968 8.14737C14.5968 8.14737 14.4938 9.33737 14.5138 10.8604L14.7058 13.3584C14.7194 13.5057 14.7442 13.6518 14.7798 13.7954C14.8744 14.1982 14.9933 14.5949 15.1358 14.9834L15.3238 15.4034C15.3238 15.4034 15.5338 15.9224 15.9388 15.5354C15.9388 15.5354 16.6278 14.9054 17.0158 14.3504L17.0168 14.3514Z" fill="#2A140B"/>
<path d="M7.62286 26.1867C7.62286 26.1867 8.85186 26.3797 9.47086 25.2787C9.47086 25.2787 9.79386 24.6667 9.64086 24.1207C9.64086 24.1207 9.45886 23.7157 9.08186 24.0317C9.08186 24.0317 8.88886 24.2547 8.55886 24.1937C8.24186 24.1357 8.02786 23.8907 8.02786 23.5237C8.02786 23.5237 8.02586 23.2447 8.33786 23.0367C8.33786 23.0367 8.64586 22.7637 8.31786 22.4517C8.31786 22.4517 8.18086 22.3147 7.83086 22.3327C7.83086 22.3327 6.94586 22.2947 6.37086 22.9667C6.37086 22.9667 5.69186 23.5987 5.93886 24.7377C6.18586 25.8767 7.17686 26.1737 7.62186 26.1887L7.62286 26.1867ZM16.1499 24.2167C16.1669 23.8667 16.0309 23.7297 16.0309 23.7297C15.7189 23.4017 15.4469 23.7097 15.4469 23.7097C15.2389 24.0227 14.9609 24.0207 14.9609 24.0207C14.5949 24.0207 14.3499 23.8067 14.2919 23.4887C14.2309 23.1577 14.4539 22.9657 14.4539 22.9657C14.7699 22.5877 14.3649 22.4057 14.3649 22.4057C13.8199 22.2517 13.2089 22.5757 13.2089 22.5757C12.1089 23.1957 12.3019 24.4267 12.3019 24.4267C12.3169 24.8727 12.6139 25.8657 13.7509 26.1127C14.8879 26.3597 15.5189 25.6797 15.5189 25.6797C16.1889 25.1037 16.1509 24.2177 16.1509 24.2177L16.1499 24.2167Z" fill="#060707"/>
<path d="M21.4501 2.18483C21.4501 2.18483 20.5921 0.422835 18.6541 0.0568346C17.7431 -0.115165 16.8171 0.104835 16.1311 0.729835C15.4911 1.31183 14.7531 2.36783 14.3121 4.27083C14.3121 4.27083 13.5111 7.22684 13.4031 10.0448L13.3311 11.6778C12.8241 11.7378 12.4941 12.0038 12.3151 12.2288C12.1221 11.5858 11.6841 10.9778 11.6631 10.9478L11.2231 10.3418L11.4211 11.0638C11.6451 11.8818 11.3421 12.5068 11.1601 12.7878C10.9236 12.3147 10.7891 11.7972 10.7651 11.2688V10.8868L10.5231 11.1818C10.2051 11.5698 10.0521 11.9568 9.98013 12.2658C9.56813 11.3318 9.03413 11.0528 9.00813 11.0398L8.72313 10.8958L8.81713 11.2018C8.93613 11.5908 8.82213 12.0728 8.72813 12.3638C8.72213 12.3508 8.71813 12.3378 8.71213 12.3258L8.60913 10.2128L8.65413 10.0068L8.60413 10.0818L8.60313 10.0478C8.49613 7.22984 7.69413 4.27383 7.69413 4.27383C7.25313 2.37083 6.51413 1.31483 5.87413 0.732835C5.18713 0.104835 4.26213 -0.116165 3.35113 0.0568346C1.41213 0.422835 0.55513 2.18483 0.55513 2.18483C-0.33587 3.96383 0.11313 6.44283 0.11313 6.44283C0.38913 8.77383 1.77713 11.8758 1.77713 11.8758C2.45613 13.5728 4.00613 16.3178 4.00613 16.3178C4.19013 16.6458 3.98413 16.7938 3.98413 16.7938C3.17613 17.5658 2.66313 18.4788 2.66313 18.4788C1.59513 20.2358 1.88013 23.1138 2.00513 24.0248L2.07713 24.6678L2.47213 29.6938C2.60213 32.2368 3.69613 34.8318 4.07713 35.6668C4.05113 36.4268 4.24213 37.3768 5.08313 38.2178C5.11913 38.2588 5.98213 39.2258 8.23713 39.7678C8.25113 39.7698 9.60813 40.0008 11.0011 40.0008C12.3941 40.0008 13.7511 39.7698 13.7741 39.7658C16.0201 39.2258 16.8831 38.2588 16.9131 38.2248C17.7581 37.3808 17.9511 36.4268 17.9271 35.6668C18.3081 34.8308 19.4021 32.2368 19.5321 29.6948L19.9271 24.6688L19.9991 24.0258C20.1241 23.1158 20.4091 20.2378 19.3411 18.4798C19.3411 18.4798 18.8281 17.5668 18.0201 16.7948C18.0201 16.7948 17.8141 16.6458 17.9981 16.3188L20.2271 11.8768C20.2271 11.8768 21.6151 8.77383 21.8911 6.44383C21.8911 6.44383 22.3401 3.96483 21.4501 2.18583V2.18483ZM8.87813 12.7338C8.89213 12.7028 9.16713 12.0888 9.13713 11.4828C9.36713 11.7078 9.70313 12.1468 9.93013 12.9308L10.1961 12.8758C10.1951 12.8688 10.1341 12.2958 10.5231 11.6508C10.595 12.1646 10.7648 12.6599 11.0231 13.1098L11.1171 13.2708L11.2421 13.1318C11.2681 13.1028 11.7691 12.5328 11.7721 11.6488C11.9211 11.9278 12.0731 12.2748 12.1181 12.5958L12.1871 13.0878L12.3781 12.6298C12.4748 12.4318 12.6221 12.2629 12.8051 12.1401C12.9881 12.0174 13.2002 11.9452 13.4201 11.9308C13.2709 12.1586 13.1773 12.4183 13.1467 12.6889C13.1161 12.9595 13.1495 13.2335 13.2441 13.4888L13.2761 13.5788L13.3711 13.5798C13.4572 13.5738 13.5412 13.5504 13.618 13.511C13.6948 13.4717 13.7629 13.4172 13.8181 13.3508C14.0811 13.0678 14.2191 12.5788 14.2311 11.8908C14.5021 12.5738 14.8061 13.6968 14.3061 14.5028L14.2541 14.5888L14.3201 14.6648C14.3471 14.6958 14.8991 15.3538 14.4811 16.7618C14.4081 16.3708 14.2431 15.8928 13.8711 15.6368L13.5741 15.4328L13.6611 15.7828C13.6631 15.7918 13.8541 16.6088 13.2071 18.0498C13.1881 17.3448 12.9361 16.2498 11.7671 15.2748L11.3301 14.9108L11.5551 15.4348C11.5601 15.4468 12.0091 16.5438 10.8871 18.1558C10.8921 17.6168 10.8051 16.7188 10.2671 16.0418L10.2271 15.9908L10.1631 15.9898C10.1281 15.9978 10.0011 15.9948 9.84013 16.1558C9.56613 16.4318 9.25213 17.1338 9.20913 18.8928C9.00313 18.2068 8.78013 17.1258 8.97113 16.0628L9.03813 15.6938L8.75013 15.9338C8.72713 15.9528 8.25713 16.3588 8.24313 17.4728C7.95313 16.9548 7.57013 16.0528 7.87713 15.2818L7.91413 15.1868L7.83513 15.1238C7.76613 15.0688 6.26713 13.8368 7.31813 10.9268C7.33613 11.3698 7.40413 11.9928 7.59713 12.7568L7.90113 13.9578L7.86613 12.7198C7.86613 12.7118 7.85213 12.0538 8.18713 11.2968C8.20213 11.7028 8.30013 12.2458 8.64313 12.7568L8.77913 12.9588L8.88013 12.7368L8.87813 12.7338ZM2.12813 8.87183C2.12813 8.87183 0.57413 4.83883 1.52613 2.95783C1.52613 2.95783 2.35113 1.22083 3.99013 1.31783C3.99013 1.31783 4.09413 1.31183 4.26613 1.35183C4.78213 1.47283 5.90913 2.01083 6.68113 4.37883C6.68113 4.37883 7.23813 5.88984 7.40813 8.14684L7.48713 9.82983L7.34913 10.1298C6.36213 12.2768 6.63513 13.6868 7.03413 14.4918L6.87013 14.9818L6.68213 15.4018C6.68213 15.4018 6.47213 15.9208 6.06713 15.5338C6.06713 15.5338 5.37813 14.9038 4.99013 14.3488C4.99013 14.3488 3.27813 12.0948 2.13013 8.86983L2.12813 8.87183ZM3.75213 23.8628C3.57113 23.3008 3.70513 22.8398 3.70513 22.8398C3.81813 22.3778 4.06713 21.9198 4.06713 21.9198C4.51213 21.0848 5.05213 20.6248 5.41913 20.3888C5.67113 20.2268 5.84113 20.1698 5.84113 20.1698C6.68613 19.7668 7.34013 20.1278 7.34013 20.1278C9.17013 20.9678 9.66713 22.8008 9.66713 22.8008C9.88713 23.3558 9.95313 24.1618 9.95313 24.1618C10.0631 25.2148 9.45613 26.0268 9.45613 26.0268C9.10313 26.5148 8.04013 26.4158 8.04013 26.4158C7.40813 26.4078 6.58213 26.1548 6.58213 26.1548C5.77013 25.9178 5.13313 25.4668 4.93113 25.3128L4.86413 25.2598C4.15113 24.6998 3.90513 24.2138 3.90513 24.2138C3.83813 24.0948 3.78913 23.9768 3.75213 23.8628ZM16.7151 38.0368C16.7071 38.0458 15.8631 38.9808 13.7201 39.4968C13.7071 39.4988 12.3721 39.7258 11.0021 39.7258C9.63213 39.7258 8.29813 39.4988 8.29313 39.4978C6.14113 38.9798 5.29713 38.0448 5.28313 38.0288C3.68313 36.4308 4.58713 34.4588 4.63013 34.3668C5.39013 32.4378 6.35413 31.4278 6.37213 31.4088C7.76913 29.6838 9.62513 29.2508 10.5031 29.1418L11.0021 29.1128C11.0031 29.1128 11.3111 29.1098 11.7841 29.1798C12.7351 29.3438 14.3731 29.8548 15.6401 31.4188C15.6491 31.4288 16.6141 32.4388 17.3741 34.3678L17.3781 34.3758C17.3871 34.3958 18.3251 36.4278 16.7151 38.0368ZM17.9371 21.9188C17.9371 21.9188 18.1861 22.3778 18.2991 22.8388C18.2991 22.8388 18.4331 23.3008 18.2521 23.8618C18.2151 23.9758 18.1651 24.0938 18.0991 24.2128C18.0991 24.2128 17.8531 24.6988 17.1401 25.2588L17.0731 25.3118C16.8711 25.4658 16.2341 25.9168 15.4221 26.1538C15.4221 26.1538 14.5961 26.4068 13.9641 26.4148C13.9641 26.4148 12.9001 26.5138 12.5481 26.0258C12.5481 26.0258 11.9411 25.2138 12.0511 24.1608C12.0511 24.1608 12.1181 23.3548 12.3371 22.7998C12.3371 22.7998 12.8341 20.9668 14.6641 20.1268C14.6641 20.1268 15.3181 19.7658 16.1631 20.1688C16.1631 20.1688 16.3331 20.2248 16.5851 20.3878C16.9521 20.6238 17.4921 21.0828 17.9371 21.9188ZM19.8771 8.87183C18.7291 12.0968 17.0171 14.3508 17.0171 14.3508C16.6281 14.9068 15.9391 15.5358 15.9391 15.5358C15.5341 15.9228 15.3241 15.4038 15.3241 15.4038L15.1361 14.9838C15.0034 14.6244 14.8922 14.2575 14.8031 13.8848C14.9021 13.2738 14.7761 12.6378 14.6061 12.1268L14.5151 10.8608L14.5981 8.14783C14.7681 5.88983 15.3251 4.37983 15.3251 4.37983C16.0971 2.01183 17.2241 1.47383 17.7401 1.35283C17.9121 1.31283 18.0161 1.31883 18.0161 1.31883C19.6561 1.22183 20.4801 2.95883 20.4801 2.95883C21.4311 4.83983 19.8781 8.87284 19.8781 8.87284L19.8771 8.87183Z" fill="#073D47"/>
<path d="M14.5861 14.542C15.3401 13.178 14.2371 11.214 14.1881 11.13L13.8801 10.591L13.9311 11.21L13.9541 11.665L13.7061 11.64C13.4449 11.6052 13.1792 11.6389 12.935 11.7378C12.6908 11.8367 12.4765 11.9973 12.3131 12.204C12.1593 11.7481 11.9396 11.3172 11.6611 10.925L11.2161 10.312L11.4161 11.043C11.4976 11.3316 11.5167 11.6343 11.472 11.9309C11.4274 12.2275 11.32 12.5112 11.1571 12.763C10.7681 11.988 10.7641 11.255 10.7641 11.247V10.86L10.5191 11.159C10.2031 11.545 10.0491 11.93 9.97707 12.238C9.56507 11.307 9.03306 11.029 9.00606 11.016L8.71707 10.87L8.81207 11.18C8.93007 11.566 8.81807 12.046 8.72407 12.337C8.31907 11.535 8.49407 10.702 8.49607 10.693L8.65407 9.975L8.24707 10.587C7.98822 10.9781 7.80035 11.4117 7.69207 11.868C7.52107 10.824 7.60607 10.196 7.60707 10.188L7.74107 9.25L7.34507 10.111C5.85807 13.345 7.22807 14.916 7.58507 15.252C7.15707 16.526 8.24206 17.979 8.28906 18.042L8.58607 18.434L8.53707 17.945C8.48007 17.379 8.53807 16.968 8.62507 16.681C8.56207 18.25 9.18606 19.643 9.21606 19.71L9.49206 20.316L9.48006 19.65C9.43006 16.894 9.94307 16.365 10.1071 16.266C10.7691 17.183 10.5861 18.546 10.5841 18.56L10.5141 19.055L10.8281 18.667C11.8821 17.363 11.9731 16.321 11.9111 15.759C13.2931 17.151 12.8901 18.626 12.8711 18.693L12.5401 19.846L13.1241 18.799C13.8361 17.524 13.9631 16.605 13.9631 16.11C14.2711 16.594 14.2601 17.347 14.2601 17.356L14.2461 18.066L14.5251 17.414C15.2381 15.748 14.7681 14.816 14.5851 14.545L14.5861 14.542ZM13.7901 11.875L13.9551 11.709C13.9651 12.551 13.7901 12.945 13.6271 13.129C13.5823 13.1819 13.5271 13.2251 13.4651 13.256C13.3986 13.0171 13.3937 12.7654 13.4507 12.5241C13.5077 12.2828 13.6248 12.0599 13.7911 11.876L13.7901 11.875Z" fill="#2A140B"/>
<path d="M17.653 34.3045C16.851 32.2695 15.842 31.2295 15.842 31.2295C15.2478 30.5063 14.5073 29.917 13.6692 29.5001C12.8311 29.0832 11.9143 28.8482 10.979 28.8105C10.0436 28.8481 9.12662 29.083 8.28835 29.4999C7.45007 29.9168 6.70944 30.5062 6.11504 31.2295C6.11504 31.2295 5.10604 32.2695 4.30404 34.3045C4.30404 34.3045 3.26904 36.4815 5.00604 38.2155C5.00604 38.2155 5.87404 39.2105 8.16404 39.7615C8.16404 39.7615 9.54404 39.9985 10.979 39.9985C12.414 39.9985 13.794 39.7615 13.794 39.7615C16.084 39.2115 16.952 38.2155 16.952 38.2155C18.689 36.4805 17.653 34.3045 17.653 34.3045Z" fill="#C5875D"/>
<path d="M7.60408 34.9177C8.11142 35.2551 8.6471 35.5479 9.20508 35.7927C9.20508 35.7927 9.58908 36.0067 9.75908 35.9287C9.75908 35.9287 9.95308 35.8687 9.96608 35.6897C9.96608 35.6897 9.96008 35.5967 9.89908 35.5177C9.89908 35.5177 9.13408 34.5617 8.93208 33.7157C8.93208 33.7157 8.84808 33.5257 8.83108 33.0817C8.83108 33.0817 8.84608 32.3787 8.28708 32.0417C8.28708 32.0417 7.95908 31.7917 7.45208 31.8327C7.45208 31.8327 6.42008 31.9027 6.31108 32.9987C6.31108 32.9987 6.30008 33.5607 6.64108 34.0467C6.98208 34.5327 7.60308 34.9167 7.60308 34.9167L7.60408 34.9177ZM12.2441 35.9297C12.4141 36.0067 12.7981 35.7937 12.7981 35.7937C13.6911 35.4067 14.3991 34.9187 14.3991 34.9187C14.3991 34.9187 15.0201 34.5347 15.3611 34.0487C15.7021 33.5627 15.6911 33.0007 15.6911 33.0007C15.5821 31.9047 14.5501 31.8347 14.5501 31.8347C14.0431 31.7937 13.7151 32.0437 13.7151 32.0437C13.1571 32.3807 13.1711 33.0837 13.1711 33.0837C13.1541 33.5277 13.0701 33.7177 13.0701 33.7177C12.8681 34.5637 12.1031 35.5197 12.1031 35.5197C12.0421 35.5987 12.0361 35.6917 12.0361 35.6917C12.0491 35.8707 12.2431 35.9307 12.2431 35.9307L12.2441 35.9297Z" fill="#060707"/>
<path d="M6.12695 36.5449C6.67883 37.3225 7.40837 37.9571 8.25489 38.3959C9.10141 38.8347 10.0405 39.0651 10.994 39.0679C11.084 39.0719 14.012 39.1809 15.877 36.5449C15.877 36.5449 13.459 38.1949 10.993 38.1979C8.52695 38.1939 6.12695 36.5449 6.12695 36.5449Z" fill="white"/>
</svg>
