<svg width="27" height="29" viewBox="0 0 27 29" fill="none" xmlns="http://www.w3.org/2000/svg">
<path d="M20.304 28.9726H6.52C2.93 28.9726 0 26.0726 0 22.5176V11.8536C0 11.3456 0.418 10.9316 0.931 10.9316H25.879C26.393 10.9316 26.811 11.3456 26.811 11.8536V22.5316C26.825 26.0726 23.895 28.9726 20.304 28.9726ZM1.876 12.7756V22.5316C1.876 25.0706 3.969 27.1416 6.534 27.1416H20.318C22.882 27.1416 24.975 25.0706 24.975 22.5316V12.7756H1.876Z" fill="#2B2B2B"/>
<path d="M16.6732 24.0946H10.1522C9.90667 24.0951 9.67092 23.9984 9.49646 23.8257C9.32201 23.6529 9.22304 23.4181 9.22119 23.1726V19.9526C9.22119 17.6666 11.0972 15.8096 13.4052 15.8096C15.7142 15.8096 17.5912 17.6666 17.5912 19.9526V23.1726C17.5929 23.2938 17.5704 23.4141 17.5249 23.5265C17.4795 23.6389 17.412 23.7411 17.3264 23.827C17.2409 23.9129 17.139 23.9808 17.0269 24.0268C16.9147 24.0727 16.7944 24.0958 16.6732 24.0946ZM11.0832 22.2506H15.7412V19.9526C15.7412 18.6826 14.7012 17.6526 13.4192 17.6526C12.1362 17.6526 11.0972 18.6826 11.0972 19.9526V22.2506H11.0832Z" fill="#2B2B2B"/>
<path fill-rule="evenodd" clip-rule="evenodd" d="M25.8932 9.181H20.8712C20.6256 9.18154 20.3899 9.08485 20.2154 8.91209C20.041 8.73932 19.942 8.50452 19.9402 8.259C19.9402 7.751 20.3582 7.337 20.8712 7.337L24.9482 7.35V1.844H21.8162V3.394C21.8162 3.635 21.7212 3.876 21.5462 4.049C21.4592 4.13545 21.3558 4.20368 21.2422 4.2497C21.1285 4.29572 21.0068 4.3186 20.8842 4.317H15.8902C15.6443 4.3178 15.4081 4.2211 15.2334 4.04809C15.0587 3.87508 14.9597 3.63987 14.9582 3.394V1.844H11.8262V3.394C11.8246 3.63987 11.7256 3.87508 11.5509 4.04809C11.3762 4.2211 11.14 4.3178 10.8942 4.317H5.89916C5.65228 4.31744 5.41503 4.22125 5.23816 4.049C5.15132 3.96366 5.08264 3.86165 5.03624 3.74908C4.98984 3.63652 4.96668 3.51574 4.96816 3.394V1.844H1.87716V7.35H5.91316C6.42616 7.35 6.84516 7.765 6.84516 8.272C6.84331 8.51769 6.74421 8.75265 6.56954 8.92544C6.39487 9.09824 6.15886 9.1948 5.91316 9.194H0.94516C0.699636 9.19454 0.463883 9.09785 0.28943 8.92509C0.114976 8.75232 0.0160096 8.51752 0.0141602 8.272V0.922C0.0141602 0.414 0.43116 0 0.94516 0H5.94016C6.45316 0 6.87216 0.414 6.87216 0.922V2.472H10.0032V0.922C10.0032 0.414 10.4222 0 10.9352 0H15.9302C16.4432 0 16.8622 0.414 16.8622 0.922V2.472H19.9932V0.922C19.9932 0.414 20.4122 0 20.9252 0H25.9202C26.4332 0 26.8512 0.414 26.8512 0.922V8.272C26.8512 8.512 26.7572 8.753 26.5812 8.927C26.3792 9.087 26.1362 9.181 25.8932 9.181Z" fill="#2B2B2B"/>
</svg>
