<svg xmlns="http://www.w3.org/2000/svg" data-name="Layer 1" viewBox="0 0 635.13 87.47"><path d="M84.17 36.45H63.31l-8.42 14.58h20.86L63.12 72.9H21.16l-8.42 14.58h58.8l21.04-36.45-8.42-14.58ZM40.16 69.23 69.6 18.24H52.77L23.33 69.23zm12.62-32.78-8.42 14.58h-4.23l8.42-14.58zm-14.73 0H16.84l12.63-21.87h42.29L80.16 0H21.04L0 36.45l8.42 14.58h21.21zm109 1.7h-6.15c-1.6 0-2.82-.3-3.65-.91S136 35.91 136 35.08v-2.5c0-1.54.51-2.6 1.54-3.17 1.15-.51 3.62-.77 7.4-.77 1.28 0 6.92.38 16.92 1.15v-8.94c-7.95-.58-13.46-.87-16.54-.87q-11.64 0-17.4 2.55c-3.85 1.7-5.77 4.57-5.77 8.6v5.67c0 3.78 1.35 6.65 4.04 8.6 2.69 1.96 6.5 2.93 11.44 2.93h6.06c2.63 0 4.39.34 5.29 1.01s1.35 1.81 1.35 3.41v2.88c0 1.54-.71 2.6-2.12 3.17-1.41.58-3.59.86-6.54.86-3.46 0-9.65-.67-18.55-2.02v9.33q10.86 1.44 18.36 1.44c2.63 0 4.93-.1 6.92-.29 2.18-.19 4.28-.54 6.3-1.06 2.02-.51 3.67-1.22 4.95-2.11 1.35-.96 2.44-2.27 3.27-3.94s1.25-3.62 1.25-5.87v-5.86c0-7.43-5.71-11.15-17.11-11.15Zm25.47-22.69h14.04V4.12h-14.04zm0 52.01h14.04V20.94h-14.04zm90.37-46.09c-2.18-.93-5.29-1.39-9.33-1.39-4.49 0-7.84.55-10.05 1.63-2.21 1.09-3.7 2.85-4.47 5.29-.77-2.37-2.28-4.12-4.52-5.24q-3.36-1.68-9.9-1.68c-8.27 0-12.85 2.21-13.75 6.63v-5.67h-14.04v46.53h14.04V35.27c0-2.05.18-3.51.53-4.37s1.09-1.46 2.21-1.78 2.99-.48 5.62-.48q3.18 0 4.47.48c.87.32 1.43.91 1.68 1.78.26.87.38 2.32.38 4.37v32.21h14.04V35.27c0-2.05.18-3.51.53-4.37s1.09-1.46 2.21-1.78 3-.48 5.62-.48c2.11 0 3.61.16 4.47.48.87.32 1.43.91 1.68 1.78.26.87.38 2.32.38 4.37v32.21h14.04V33.35c0-3.2-.43-5.77-1.3-7.69s-2.39-3.35-4.57-4.28Zm60.18 2.64c-1.28-1.41-3.16-2.43-5.62-3.08-2.47-.64-5.72-.96-9.76-.96-4.81 0-8.43.42-10.86 1.25-2.44.83-4.07 2.28-4.9 4.33v-4.61h-13.27v66.53h14.04V62.77c.58 2.24 1.89 3.75 3.94 4.52s5.38 1.15 10 1.15 8.6-.51 11.39-1.54c2.79-1.02 4.86-2.79 6.2-5.29 1.35-2.5 2.02-6.06 2.02-10.67V35.65c0-2.95-.23-5.27-.67-6.97-.45-1.7-1.28-3.25-2.5-4.66Zm-10.86 28.74c0 1.92-.26 3.36-.77 4.33-.51.96-1.48 1.63-2.88 2.02-1.41.38-3.49.58-6.25.58s-4.81-.19-6.15-.58c-1.35-.38-2.26-1.06-2.74-2.02s-.72-2.4-.72-4.33V35.55c0-1.79.24-3.17.72-4.13s1.41-1.67 2.79-2.11c1.38-.45 3.38-.67 6.01-.67q4.62 0 6.63.48c1.35.32 2.24.95 2.69 1.88s.67 2.45.67 4.57v17.21Zm22.98 14.71h14.04V.18h-14.04v67.3Zm44.7-13.65-10.48-32.88h-15.29l18.55 46.15-8.46 20.38h14.23l25.48-66.53H389.4l-9.52 32.88Zm73.07-29.8c-1.28-1.41-3.16-2.43-5.62-3.08-2.47-.64-5.72-.96-9.76-.96-4.74 0-8.24.4-10.48 1.2s-3.78 2.26-4.61 4.37V.18h-14.04v50.76c0 4.17.74 7.51 2.21 10.05 1.47 2.53 3.92 4.41 7.35 5.62 3.43 1.22 8.09 1.83 13.99 1.83 8.52 0 14.68-1.35 18.46-4.04s5.67-7.18 5.67-13.46V35.65c0-2.95-.23-5.27-.67-6.97-.45-1.7-1.28-3.25-2.5-4.66m-10.87 28.74c0 1.92-.26 3.36-.77 4.33-.51.96-1.48 1.63-2.88 2.02-1.41.38-3.49.58-6.25.58s-4.82-.19-6.2-.58c-1.38-.38-2.31-1.06-2.79-2.02s-.72-2.4-.72-4.33V35.55c0-1.79.26-3.17.77-4.13s1.46-1.67 2.84-2.11c1.38-.45 3.38-.67 6.01-.67q4.62 0 6.63.48c1.35.32 2.24.95 2.69 1.88s.67 2.45.67 4.57v17.21Zm22.98 14.71h14.04V.18h-14.04v67.3Zm65.13-43.16c-1.44-1.22-3.32-2.18-5.62-2.88q-3.165-.96-5.82-1.2c-1.76-.16-4.12-.24-7.07-.24-1.99 0-4.2.06-6.63.19-2.12.19-4.28.66-6.49 1.39-2.21.74-3.99 1.65-5.34 2.74-1.54 1.28-2.79 3.08-3.75 5.38-.96 2.31-1.44 5-1.44 8.08v13.75c0 3.01.48 5.58 1.44 7.69.96 2.18 2.15 3.86 3.56 5.05s3.27 2.1 5.58 2.74c2.12.58 4.1.96 5.96 1.15s4.23.29 7.11.29c2.69 0 5-.1 6.92-.29 2.11-.19 4.28-.62 6.49-1.3 2.21-.67 3.96-1.55 5.24-2.64 1.47-1.22 2.68-2.92 3.61-5.1s1.39-4.71 1.39-7.6V37.76c0-3.2-.48-5.96-1.44-8.27-1.03-2.24-2.26-3.97-3.7-5.19Zm-8.89 28.84c0 1.73-.27 3.04-.82 3.94-.54.9-1.49 1.56-2.84 1.97-1.35.42-3.33.63-5.96.63s-4.61-.21-5.96-.63-2.29-1.07-2.84-1.97-.82-2.21-.82-3.94V35.56c0-2.56.67-4.36 2.02-5.38s3.88-1.54 7.59-1.54 6.25.51 7.59 1.54c1.35 1.03 2.02 2.82 2.02 5.38v17.59Zm35.47-.87V35.17c0-4.36 3.24-6.54 9.71-6.54 3.52 0 8.59.77 15.19 2.31v-9.23c-5.83-1.15-10.54-1.73-14.13-1.73h-5.1c-1.47.06-3.17.23-5.1.48-1.92.26-3.46.58-4.61.96-1.41.51-2.8 1.2-4.18 2.07s-2.42 1.81-3.12 2.84c-1.92 2.82-2.88 6.35-2.88 10.58v15.48c0 5.26 1.31 8.97 3.94 11.15 1.41 1.28 2.77 2.24 4.09 2.88 1.31.64 3 1.09 5.05 1.35s3.78.43 5.19.53 3.33.14 5.77.14c4.68 0 9.93-.55 15.77-1.63v-9.23c-6.47 1.41-11.44 2.11-14.9 2.11-7.11 0-10.67-2.47-10.67-7.4Zm60.86-11.05 16.15-20.29h-16.06l-15.29 20.38 16.82 26.15h15.86l-17.5-26.25Zm-29.81 26.24h14.04V.18h-14.04v67.3Z" style="fill:#2776ea;stroke-width:0"/></svg>