<svg width="649" height="99" viewBox="0 0 649 99" fill="none" xmlns="http://www.w3.org/2000/svg">
<g clip-path="url(#clip0_358_1916)">
<path d="M278.588 91.5097L250.143 12.3596C249.769 11.2361 249.27 9.86279 249.27 8.48953C249.27 5.11878 252.139 1.74805 256.381 1.74805C259.999 1.74805 262.37 4.12006 263.492 7.4908L287.072 75.7796L310.776 7.36595C311.899 4.12005 314.02 1.74805 317.638 1.74805H318.387C322.254 1.74805 324.5 4.12005 325.623 7.36595L349.202 75.7796L373.156 7.2411C374.03 4.36973 376.026 1.74805 379.893 1.74805C383.886 1.74805 386.755 4.8691 386.755 8.23985C386.755 9.48827 386.256 10.9864 385.882 12.11L357.312 91.5097C355.815 95.6295 352.945 97.8767 349.701 97.8767H349.202C345.584 97.8767 342.84 95.7543 341.592 91.5097L318.262 24.2197L294.682 91.5097C293.435 95.6295 290.69 97.8767 287.072 97.8767H286.698C282.955 97.7518 279.961 95.6295 278.588 91.5097Z" fill="#6A6667"/>
<path d="M485.69 8.73908C485.69 4.86896 488.809 1.62305 492.551 1.62305C496.544 1.62305 499.663 4.74412 499.663 8.73908V24.8437C506.524 9.23844 521.87 1.87275 531.975 1.87275C536.217 1.87275 538.837 4.99382 538.837 8.98878C538.837 12.8589 536.342 15.4806 532.599 16.1048C514.509 18.2271 499.538 31.9598 499.538 58.9257V90.7605C499.538 94.6306 496.668 97.8765 492.676 97.8765C488.684 97.8765 485.565 94.7555 485.565 90.7605L485.69 8.73908Z" fill="#6A6667"/>
<path d="M583.875 98.7506C558.674 98.7506 538.089 79.1503 538.089 50.4366V50.062C538.089 23.3458 556.803 1.74805 582.129 1.74805C609.326 1.74805 624.797 24.2197 624.797 48.8136C624.797 52.5589 621.802 55.3054 618.434 55.3054H552.062C554.058 75.4051 568.031 86.7657 584.374 86.7657C595.728 86.7657 604.086 82.2714 610.823 76.0293C611.946 75.1554 613.194 74.4063 614.691 74.4063C618.06 74.4063 620.679 77.1528 620.679 80.3987C620.679 82.0217 619.931 83.6446 618.559 84.8931C609.825 93.2575 599.595 98.7506 583.875 98.7506ZM611.073 45.0683C609.701 28.2146 600.094 13.4832 581.754 13.4832C565.785 13.4832 553.684 26.9662 551.937 45.0683H611.073Z" fill="#6A6667"/>
<path d="M387.129 69.7866V69.4121C387.129 49.687 403.348 39.2003 427.052 39.2003C439.029 39.2003 447.513 40.8232 455.872 43.1952V39.9493C455.872 23.0956 445.517 14.4815 428.051 14.4815C418.694 14.4815 413.204 15.7299 406.342 18.7261C405.469 19.1006 404.596 19.2255 403.847 19.2255C400.603 19.2255 397.734 16.4789 397.734 13.233C397.734 10.3617 398.982 8.61388 401.601 7.4903C410.834 3.49534 417.695 2.12207 429.672 2.12207C442.897 2.12207 453.002 5.49282 459.864 12.484C466.227 18.851 469.471 27.8396 469.471 39.8245V91.5092C469.471 95.5042 466.601 98.3755 462.734 98.3755C458.741 98.3755 456.121 95.5042 456.121 91.8837V83.0199C449.634 91.5092 438.78 99.1246 422.312 99.1246C404.72 98.9997 387.129 89.0124 387.129 69.7866ZM455.997 62.5458V53.5571C449.135 51.5596 439.903 49.5622 428.55 49.5622C411.083 49.5622 401.227 57.1776 401.227 68.9127V69.2873C401.227 81.0225 412.081 87.8888 424.682 87.8888C441.899 87.8888 455.997 77.402 455.997 62.5458Z" fill="#6A6667"/>
<path d="M25.5757 7.8649C22.4568 1.12342 14.9712 -1.87282 7.85985 1.24824C0.748547 4.36929 -1.87142 12.2344 1.37233 18.9759L31.0652 83.5194C35.6813 93.6316 40.6717 98.875 49.9039 98.875C59.7599 98.875 64.1265 93.1322 68.7426 83.5194C68.7426 83.5194 94.5679 27.0906 94.9421 26.4664C95.1917 25.8422 96.065 24.0944 98.6849 24.0944C100.931 24.0944 102.802 25.8422 102.802 28.2142V83.3945C102.802 91.8838 107.543 98.875 116.526 98.875C125.633 98.875 130.499 91.8838 130.499 83.3945V38.2016C130.499 29.4626 136.737 23.8447 145.22 23.8447C153.704 23.8447 159.318 29.7123 159.318 38.2016V83.3945C159.318 91.8838 164.059 98.875 173.042 98.875C182.149 98.875 187.015 91.8838 187.015 83.3945V38.2016C187.015 29.4626 193.253 23.8447 201.736 23.8447C210.22 23.8447 215.834 29.7123 215.834 38.2016V83.3945C215.834 91.8838 220.575 98.875 229.558 98.875C238.665 98.875 243.531 91.8838 243.531 83.3945V31.9595C243.531 13.1083 228.31 -0.125 210.095 -0.125C191.88 -0.125 180.403 12.484 180.403 12.484C174.289 4.61898 165.93 -0.125 151.833 -0.125C136.861 -0.125 123.762 12.484 123.762 12.484C117.648 4.61898 107.293 -0.125 98.8097 -0.125C85.5851 -0.125 75.1053 5.74258 68.6178 20.3491L49.6544 65.0427L25.5757 7.8649Z" fill="#6A6667"/>
<path d="M625.919 13.6082C625.919 7.24126 631.035 1.87305 637.522 1.87305C644.01 1.87305 649.125 7.11641 649.125 13.4834C649.125 19.8503 644.01 25.0937 637.522 25.0937C630.91 25.0937 625.919 19.8503 625.919 13.6082ZM646.754 13.4834C646.754 8.23999 642.762 3.99534 637.397 3.99534C632.157 3.99534 628.04 8.36483 628.04 13.4834C628.04 18.6019 632.033 22.9714 637.397 22.9714C642.762 22.9714 646.754 18.6019 646.754 13.4834Z" fill="#6A6667"/>
<path d="M633.155 8.73866C633.155 7.9896 633.654 7.49023 634.403 7.49023H638.271C639.768 7.49023 640.891 7.86475 641.514 8.61381C642.138 9.23802 642.512 10.1119 642.512 11.1107C642.512 12.8584 641.639 13.982 640.267 14.4814L642.013 16.6037C642.263 16.8534 642.388 17.2279 642.388 17.6025C642.388 18.2267 641.764 18.726 641.265 18.726C640.766 18.726 640.392 18.4764 640.017 18.1018L637.647 15.1056H635.651V17.6025C635.651 18.3515 635.152 18.8509 634.403 18.8509C633.654 18.8509 633.155 18.3515 633.155 17.6025V8.73866ZM638.146 12.9833C639.393 12.9833 640.017 12.3591 640.017 11.3604C640.017 10.3616 639.269 9.73738 638.146 9.73738H635.651V12.9833H638.146Z" fill="#6A6667"/>
</g>
<defs>
<clipPath id="clip0_358_1916">
<rect width="649" height="99" fill="white"/>
</clipPath>
</defs>
</svg>
