<?xml version="1.0" encoding="utf-8"?>
<!-- Generator: Adobe Illustrator 19.0.0, SVG Export Plug-In . SVG Version: 6.00 Build 0)  -->
<svg version="1.1" id="Layer_1" xmlns="http://www.w3.org/2000/svg" xmlns:xlink="http://www.w3.org/1999/xlink" x="0px" y="0px"
	 viewBox="334 -334 700 700" style="enable-background:new 334 -334 700 700;" xml:space="preserve">
<style type="text/css">
	.st0{fill:#173D4B;}
</style>
<g id="XMLID_15_">
	<path id="XMLID_80_" class="st0" d="M967.9,104l0-1c-0.7-17.7-8.3-29.3-14.9-36.2c-10.8-11.2-27-17.6-44.2-17.6
		c-3.7,0-7.2,0.3-10.7,0.9c-37.7,6.4-49,37.9-47.5,58.3c-0.2,19.9-4.6,34.3-13.2,42.8c-8.9,8.8-22.3,13.1-40.8,13.1
		c-8.7,0-16.1-0.9-22.5-2.7c0.2,0.1,0.5,0.2,0.6,0.2l3.7,1.1l2.8,2c19.7,13.4,27.5,38.3,19.7,63.5c-7.2,23.4-25.9,39.1-46.5,39.1
		c-2.1,0-4.2-0.3-6.3-0.6c15,3.1,31.1,4.7,48.3,4.7c50.6,0,92-13.4,123.1-39.7c32.2-27.3,48.5-69.3,48.5-124.7l0-0.9
		C967.9,105.6,967.9,104.8,967.9,104z"/>
	<path id="XMLID_81_" class="st0" d="M701.3-194.7L701.3-194.7c27.4,27.3,41.3,67.1,41.3,118.1v0.1c0.2-40.5,15.3-56.3,53.9-56.3
		c18.5,0,31.8,4.3,40.8,13.1c8.7,8.7,13.2,23.4,13.2,43c-0.7,20.6,7.7,33.8,14.9,41.2c10.8,11.2,27,17.6,44.2,17.6
		c3.7,0,7.3-0.3,10.7-0.9c37.6-6.4,48.9-37.7,47.5-58.1c-0.2-54.9-16.5-96.5-48.5-123.7c-31-26.4-72.4-39.7-123.1-39.7
		c-45,0-82.5,10.6-112,31.4v0c3.4,2.4,6.7,4.8,9.8,7.5C696.6-199.2,699-197,701.3-194.7z"/>
	<g id="XMLID_1_">
		<g id="XMLID_63_">
			<path id="XMLID_64_" class="st0" d="M621-76.5c0-20.5-4.4-35.3-13.2-43.9c-8.9-8.8-22.3-13.1-40.8-13.1c-38.8,0-53.9,16-53.9,57
				v183.1c0,41,15.1,57,53.9,57c18.5,0,31.8-4.3,40.8-13.1c8.6-8.5,13.1-23.1,13.2-43.2 M696,225.6c-2,2-4.1,3.9-6.2,5.7
				c-3.6,3-7.3,5.9-11.2,8.6c-29.5,20.6-67.1,31.1-111.9,31.1c-50.7,0-92-13.4-122.9-39.8c-32-27.3-48.2-69.3-48.2-124.7V-76.6
				c0-55.4,16.2-97.3,48.2-124.7c30.8-26.4,72.2-39.8,122.9-39.8c50.6,0,92,13.4,123.1,39.7c2.5,2.1,4.8,4.3,7.1,6.6"/>
		</g>
		<g id="XMLID_58_">
			<path id="XMLID_59_" class="st0" d="M697-194.7c27.4,27.3,41.3,67.1,41.3,118.1l0,183.8c-0.1,51.4-14.4,91.2-42.3,118.4
				 M621,107.3l0-183.8"/>
		</g>
		<g id="XMLID_49_">
			<path id="XMLID_52_" class="st0" d="M738.3,107.5c-0.6,42.2,28.7,53.2,32.1,54.3l3.7,1.1l2.8,2c19.7,13.4,27.5,38.3,19.7,63.5
				c-7.2,23.4-25.9,39.1-46.5,39.1l0,0c-2.6,0-5.1-0.2-7.7-0.7c-24.9-4.6-46.3-13.6-63.9-26.9"/>
		</g>
	</g>
</g>
</svg>
