<svg xmlns="http://www.w3.org/2000/svg" width="32" height="32" fill="none" xmlns:v="https://vecta.io/nano"><g clip-path="url(#A)" fill="#1971bd"><path d="M0 14.705c0-.607.16-1.247.256-1.822.096-.607.192-.831.288-1.247a.67.67 0 0 1 .128-.192c.064-.032.128-.064.224-.032h11.413.16c.064 0 .096.032.128.064a.44.44 0 0 1 .096.128c.032.032.032.096.032.128a18.05 18.05 0 0 1 0 8.663c0 .032-.032.064-.064.096s-.064.064-.096.064-.064.032-.128.032c-.032 0-.064 0-.128-.032H1.055c-.064 0-.16 0-.224-.064-.064-.032-.128-.096-.128-.192C.32 19.341.096 18.318 0 17.263v-.447-2.11zm32-8.12c-1.215 1.183-2.749 1.982-4.412 2.27a11.76 11.76 0 0 1-2.11.192l-11.253-.096c-.224 0-.288 0-.352-.288-.735-1.982-1.79-3.836-3.069-5.53-.352-.48-.767-.895-1.151-1.343C13.395.032 17.582-.448 21.642.416A18.87 18.87 0 0 1 32 6.586zM7.8 2.781c1.662 1.918 3.069 4.028 4.188 6.33H1.79a15.71 15.71 0 0 1 6.01-6.33zm-.224 26.182a16.21 16.21 0 0 1-5.978-6.138h10.198a16.63 16.63 0 0 1-4.22 6.138zm14.898-10.805c1.918-.416 3.644-.192 5.179.799.48-.544.831-1.183.991-1.886.192-.735.16-1.503-.032-2.238a4.02 4.02 0 0 0-1.119-1.918 4.94 4.94 0 0 0-1.758-1.151c-.671-.256-1.375-.384-2.078-.352h-8.855a18.45 18.45 0 0 1 0 9.143v.032h3.868c1.023-1.279 2.43-2.11 3.804-2.43zm-7.289 12.531c-.575-1.886.064-3.9 1.662-5.051.288-.224.415-.416.415-.799 0-.703.096-1.375.288-1.982l-3.229.032c-.096 0-.192 0-.288.064s-.128.16-.16.256c-.927 2.558-2.334 4.859-4.188 6.841v.128a22 22 0 0 0 4.923 1.534l1.183.16a3.2 3.2 0 0 1-.607-1.183zm11.221-9.206l4.859 4.827h-2.366v5.019h-5.051v-4.987H21.45l4.955-4.859z"/></g><defs><clipPath id="A"><path fill="#fff" d="M0 0h32v31.872H0z"/></clipPath></defs></svg>