<svg xmlns="http://www.w3.org/2000/svg" width="32" height="32" fill="none" xmlns:v="https://vecta.io/nano"><g clip-path="url(#A)" fill="#1971bd"><path d="M12.553 12.656c1.144 0 2.102.928 2.102 2.102 0 1.144-.927 2.102-2.102 2.102-1.144 0-2.102-.928-2.102-2.102.031-1.175.958-2.102 2.102-2.102zm6.894 0c1.206 0 2.103 1.02 2.072 2.164-.031 1.113-.989 2.041-2.164 2.01s-2.072-1.02-2.01-2.195c.031-1.082.989-2.01 2.102-1.979zm-4.019 18.396c-.557-1.824.062-3.772 1.608-4.885.278-.216.402-.402.402-.773 0-.804.155-1.546.371-2.226-.062 0-.124 0-.186.031l-1.639.093a21.07 21.07 0 0 1-4.823-.649c-.093-.031-.155-.062-.216-.155-1.299-2.041-2.164-4.236-2.628-6.616-.155-.835-.247-1.639-.309-2.473a.5.5 0 0 1 .093-.278c2.102-2.535 4.669-4.421 7.73-5.627a.34.34 0 0 1 .247 0 18.79 18.79 0 0 1 7.76 5.658.5.5 0 0 1 .093.278c-.124 1.855-.495 3.679-1.144 5.411 2.226-.402 4.236.124 5.936 1.793.155.155.464.278.711.278a4.68 4.68 0 0 1 1.639.309 15.21 15.21 0 0 0 .897-4.267c-.618.062-1.237.093-1.824 0a5.94 5.94 0 0 1-1.731-.557c0-.062.031-.124.031-.185l.216-1.824a17.39 17.39 0 0 0 .093-2.535.43.43 0 0 0-.093-.278c-.773-1.113-1.639-2.133-2.566-3.092l-.371-.371c.309-.587.68-1.082 1.144-1.515.371-.371.773-.649 1.237-.928.062-.031.093-.062.155-.093-1.7-2.041-3.803-3.556-6.276-4.576a7.83 7.83 0 0 1-.556 1.7c-.278.557-.618 1.02-1.051 1.484-.062-.031-.124-.062-.155-.093-1.299-.68-2.659-1.237-4.081-1.67a.43.43 0 0 0-.278 0c-1.422.433-2.783.989-4.081 1.67-.062.031-.093.062-.155.093-.031-.031-.062-.093-.093-.124-.278-.278-.495-.587-.711-.897-.371-.618-.618-1.268-.773-1.979 0-.062-.031-.093-.031-.155-2.473 1.02-4.576 2.566-6.307 4.607 1.082.587 1.948 1.422 2.535 2.535-.031.031-.093.062-.124.093a22.8 22.8 0 0 0-2.844 3.37c-.062.062-.062.155-.062.216l.062 2.133.216 1.917c.031.186.062.34.062.526-1.144.526-2.319.711-3.556.526a15.73 15.73 0 0 0 2.412 7.42c.093-.093.216-.185.309-.247a6.07 6.07 0 0 1 2.721-1.329c.062 0 .124 0 .155-.031l.031.031c.031.062.062.093.093.155.649 1.268 1.391 2.504 2.257 3.648a.56.56 0 0 0 .216.155l2.875.804 1.608.309c0 .031.031.093.031.124.062.587.062 1.144-.031 1.701a6.58 6.58 0 0 1-.464 1.515c-.031.062-.031.124-.062.185.031 0 .062.031.093.031 1.175.278 2.381.433 3.617.464-.217-.247-.34-.526-.433-.835zm10.852-8.873l4.7 4.669h-2.288v4.854h-4.885v-4.823h-2.319l4.792-4.699z"/></g><defs><clipPath id="A"><path fill="#fff" transform="translate(0 1)" d="M0 0h32v30.918H0z"/></clipPath></defs></svg>