<svg xmlns="http://www.w3.org/2000/svg" width="32" height="32" fill="none" xmlns:v="https://vecta.io/nano"><g clip-path="url(#A)" fill="#1971bd"><path d="M29.28 7.104C26.944 3.552 23.296 1.12 19.136.32c-2.4-.48-4.864-.416-7.2.224.032.064.064.096.096.096.192.192.384.352.576.544a8.32 8.32 0 0 1 1.216 1.376c.064.16.256.256.416.192.608-.064 1.248-.064 1.888.064.8.16 1.6.512 2.24.992.16.096.288.224.448.352.032-.448-.096-.864-.32-1.216a8.15 8.15 0 0 1 2.688 1.696c.8.736 1.472 1.6 1.952 2.56a2.35 2.35 0 0 0-.032-1.408h.032l.064.032c.608.256 1.184.576 1.664 1.024.96.8 1.568 1.952 1.696 3.2.064.704 0 1.44-.224 2.144-.16.512-.384 1.024-.64 1.472-.032.032-.032.096-.032.16.064.448.128.896.16 1.312.064 1.056 0 2.08-.16 3.136-.064.448-.16.896-.256 1.312-.16.768-.448 1.472-.832 2.144-.032.032-.032.096 0 .128.128.384.192.768.16 1.184-.032.512-.16.992-.416 1.408-.448.864-1.344 1.376-2.272 1.312-.192 0-.352-.032-.512-.064-.064 0-.128 0-.128.096-.064.352-.288.64-.608.768-.064.032-.16.032-.224.096s0 .16 0 .256v.032c.064.384.032.8-.064 1.184a2.41 2.41 0 0 1-.864 1.344c-.544.384-1.184.672-1.856.768-.096.032-.16.032-.256.032.384-.448.608-.992.672-1.6.032-.576-.096-1.184-.448-1.664a4.68 4.68 0 0 1 .416.288c.576.352.768 1.088.512 1.696-.032.096-.064.192-.128.256l.032.032c.064-.032.096-.064.16-.096.736-.512 1.088-1.408.864-2.272-.128-.608-.384-1.152-.768-1.632-.096-.128-.192-.224-.288-.352a8.17 8.17 0 0 1 .672.448 1 1 0 0 0 .8.16c.256-.064.384-.288.352-.544-.064-.224-.192-.384-.384-.48a13.01 13.01 0 0 0-1.76-.896c-.128-.064-.288-.096-.416-.16.032-.032.064-.032.096-.032.384 0 .768.032 1.152.128.736.192 1.408.512 2.048.96a1.37 1.37 0 0 0 .768.32c.448 0 .864-.224 1.152-.544s.512-.704.608-1.12c.096-.352.064-.704-.064-1.024-.096-.192-.192-.352-.288-.544.16-.288.32-.544.448-.832a10.22 10.22 0 0 0 .672-2.336c.096-.48.16-.96.224-1.44.096-.832.128-1.664.096-2.496-.032-.768-.096-1.536-.224-2.272a8.87 8.87 0 0 0-.608-1.984c0-.032-.032-.096-.032-.128.128.128.256.224.352.32.384.448.704.96.928 1.504.032.032.032.064.064.096h.032c.032-.256.096-.48.128-.736.096-.544.096-1.088-.032-1.6-.064-.384-.192-.768-.384-1.152-.256-.512-.608-.992-1.056-1.344l-.192-.096c.192.8.032 1.632-.448 2.304-.096-.224-.192-.448-.288-.64a12.89 12.89 0 0 0-1.632-2.496A6.23 6.23 0 0 0 20 5.024a2.04 2.04 0 0 0-.448-.256l-.032.032a3.02 3.02 0 0 1 .032 1.6c-.064-.064-.128-.096-.16-.128-.416-.384-.8-.768-1.248-1.152-.576-.512-1.28-.896-2.016-1.152-.416-.16-.832-.256-1.28-.288-.384-.032-.768-.064-1.152-.064-.512.032-1.024.064-1.536.16-.448.064-.896.224-1.344.32-.16.032-.32.096-.448.128.672-.448 1.44-.8 2.208-1.088-.032-.096-.096-.16-.128-.192-.512-.704-1.12-1.344-1.824-1.888-.064-.064-.16-.064-.256-.032-1.12.416-2.208.96-3.2 1.632-1.472.96-2.752 2.176-3.84 3.552C2.368 7.424 1.6 8.8 1.056 10.24c-.192.512-.352 1.056-.512 1.6a19.56 19.56 0 0 0-.32 1.312c-.064.32-.096.608-.128.928-.032.352-.096.768-.096 1.184 0 .608 0 1.216.032 1.856.032.672.128 1.312.256 1.952.256-.096.512-.16.768-.224 1.184-.256 2.304-.256 3.36 0 .032-.032.032-.064.064-.096.256-.32.576-.576.864-.864.032-.032.064-.032.096-.064a3.84 3.84 0 0 0-.48 1.184c.896.32 1.76.864 2.56 1.632.16.16.48.288.736.288 2.24.032 4.096 1.44 4.48 3.648.128.736.416 1.12 1.088 1.44.032.032.064.032.096.064.512-.096 1.056-.032 1.536.128.416.16.736.512.864.928a1.84 1.84 0 0 1-.224 1.536 4.19 4.19 0 0 1 .192.864 1.89 1.89 0 0 0 .448-.064c.384-.16.736-.416.992-.768l.032.032c-.064.16-.128.32-.224.448-.288.448-.736.8-1.248.928h-.032c0 .128-.032.256-.032.384a4.63 4.63 0 0 1-.448 1.472c4.064.064 8.128-1.44 11.2-4.384 5.728-5.344 6.688-14.016 2.304-20.48zm-8.896 15.328c-.032.128-.064.224-.096.352s-.032.224-.064.352l-.096-.384c-.096-.32-.032-.704.16-.992a.81.81 0 0 1 .736-.288c.448.032.832.288 1.056.704 0 .032.032.064.032.096-.256-.192-.544-.288-.864-.352-.352-.064-.736.16-.864.512zm2.4 1.344c0 .032 0 .032 0 0l-.32.032c-.224 0-.48-.032-.704-.032-.192 0-.384-.064-.48-.224a1.42 1.42 0 0 1-.256-.352c-.096-.16-.064-.32.064-.448s.32-.128.48-.032c.192.128.352.288.512.448.192.192.416.352.64.512l.064.096zm-9.408-9.696c-.896.096-1.76-.192-2.432-.736-.128-.096-.288-.224-.448-.32a.62.62 0 0 0-.576-.096c-.192.064-.352.224-.384.448-.128.448-.032.96.256 1.344.256.384.576.672.992.896l.16.096v.032l-.448-.096a3.82 3.82 0 0 1-1.408-.672c-.48-.384-.768-.992-.672-1.632a1.62 1.62 0 0 1 .416-.96 1.19 1.19 0 0 1 .704-.32c.544-.064 1.12.096 1.536.48l1.152.864a3.5 3.5 0 0 0 1.856.64c-.288 0-.512.032-.704.032zm1.696-.864c-.896-.096-1.728-.48-2.4-1.056-.576-.512-1.024-1.184-1.248-1.92a4.06 4.06 0 0 1-.128-2.048 4.63 4.63 0 0 1 1.76-2.784 6.56 6.56 0 0 1 2.272-1.12l.128-.032c-.128.192-.256.352-.352.512-.416.672-.672 1.408-.736 2.208-.064.576.032 1.184.256 1.728.32.8 1.088 1.344 1.952 1.44l.192.032s.032 0 .032.032c-.416.096-.864.096-1.28.064-.672-.032-1.28-.416-1.632-.992-.192-.384-.32-.8-.288-1.216a4.42 4.42 0 0 1 1.12-3.04l.064-.064.032-.032-.032-.128c-.224.192-.448.352-.672.544-.64.576-1.12 1.344-1.312 2.208a4.1 4.1 0 0 0-.096 1.76c.064.672.32 1.344.672 1.92a3.81 3.81 0 0 0 1.472 1.376c.512.256 1.088.384 1.664.32.512-.032 1.024-.192 1.472-.512.352-.256.576-.608.672-1.024a1.58 1.58 0 0 0-.416-1.568c-.224-.224-.512-.384-.832-.416-.256-.032-.544-.032-.832-.032.192-.096.384-.224.576-.32.288-.16.608-.224.928-.256a1.36 1.36 0 0 1 1.344.832c.224.448.256.96.128 1.44-.256.864-.896 1.536-1.76 1.824a6.83 6.83 0 0 1-1.344.32c-.48.064-.928.064-1.376 0zm2.464 2.88c-.32-.16-.64-.256-.992-.32-.128-.032-.288 0-.448-.032.192-.16.384-.256.608-.32.512-.16 1.024-.128 1.504.096.288.096.544.224.832.352a.68.68 0 0 0 .768-.128s.032 0 .064-.032h.032c.192.544.64.96 1.184 1.152.352.16 1.088.416 1.088.416h-.608c-.416-.032-.832-.128-1.248-.288-.256-.096-.448-.256-.544-.512-.096.032-.16.064-.224.096-.032.032-.032.032-.032.064-.064.384-.384.672-.8.672-.288.064-.544-.064-.736-.256-.128-.192-.192-.416-.192-.64 0-.128-.096-.288-.256-.32zM4.96 22.112l4.864 4.832H7.456v5.024H2.4v-4.992H0l4.96-4.864z"/></g><defs><clipPath id="A"><path fill="#fff" d="M0 0h32v32H0z"/></clipPath></defs></svg>