<svg xmlns="http://www.w3.org/2000/svg" width="32" height="32" fill="none" xmlns:v="https://vecta.io/nano"><g clip-path="url(#A)" fill="#1971bd"><path opacity=".3" d="M6.559 19.487a4.86 4.86 0 0 0 .35.509c.255.191.509.414.764.637a1.16 1.16 0 0 0 .732.287c.127 0 .223 0 .35.032-.764-.605-1.433-1.305-2.038-2.07s-1.051-1.56-1.305-2.515c-.255-1.56-.318-3.152-.127-4.744-.191 1.083-.414 2.133-.318 3.248.159 1.624.7 3.216 1.592 4.617zm18.818-3.98c-.032-.127-.095-.255-.159-.382a7.59 7.59 0 0 0-2.77-3.311 8.57 8.57 0 0 0-4.521-1.465c-.828-.032-1.624.096-2.42.287a7.24 7.24 0 0 0-1.178.382c-.382.127-.764.414-1.146.51-.095.032-.191 0-.255-.064-.255-.223-.127-.796 0-1.083.191-.382.478-.732.828-.987 2.229-1.783 5.317-1.847 7.992-1.305.223.064.478.096.701.159l.032-.096a1.5 1.5 0 0 0-.318-.159c-2.133-.605-4.33-.796-6.496-.191-2.515.701-5.158 2.452-6.05 5.031-.509 1.497-.318 3.216.382 4.617.892 1.751 2.706 3.312 4.649 3.725l.669.159a.25.25 0 0 1 .127.127c0 .032-.064.096-.095.127-1.083.7-2.324.923-3.566.7a3.83 3.83 0 0 1 .828 1.274c1.751.35 3.598.223 5.254-.541 1.083-.478 2.038-1.178 2.834-2.038 1.369-1.465 2.293-3.566 2.324-5.604 0-.095.032-.159.095-.223.064.032.127.064.191.127 1.433 1.114 1.656 3.407 1.305 5.031-.382 1.751-1.369 3.28-2.611 4.521-.095.096-.191.223-.255.318.064.032.159.032.223 0l.669-.509c2.484-2.197 3.885-5.891 2.738-9.138z"/><path d="M20.697 15.921a1.8 1.8 0 0 0-.127-.382c-.318-.732-.892-1.369-1.624-1.719-.605-.287-1.274-.414-1.942-.382-.318.032-.669.064-.987.159-.286.064-.541.255-.796.319-.032 0-.096 0-.127-.032-.255-.223.127-.669.255-.828.255-.223.541-.414.86-.509a4.37 4.37 0 0 1 1.56-.287 6.73 6.73 0 0 1 .828.064c.223.032.478.127.701.095-.032-.032-.096-.064-.159-.064-1.528-.573-3.407-.191-4.617.86-.414.35-.764.796-.923 1.305a2.62 2.62 0 0 0 .191 2.07c.414.764 1.21 1.465 2.038 1.656.096.032.191.032.287.064.032 0 .032.032.064.064 0 0-.032.032-.032.064-.064.032-.127.096-.191.127-.573.318-1.305.287-1.91.032-.541-.223-.987-.573-1.369-.987-.318-.318-.605-.701-.764-1.114-.318-.796-.255-1.656-.191-2.516-.032.478-.159.923-.127 1.433.032.414.096.796.223 1.178.287.764.764 1.433 1.401 1.91.892.7 2.038 1.019 3.152.828a3.83 3.83 0 0 0 2.993-2.547 3.28 3.28 0 0 0 .191-1.114c0-.032.032-.064.032-.096.032 0 .064.032.096.064.541.541.732 1.274.605 2.006-.127.86-.573 1.592-1.21 2.197l-.127.127c.032.032.064.032.096 0 .095-.064.191-.159.287-.223 1.146-.923 1.751-2.388 1.369-3.821zm11.016-2.452l-.509-.732c-.096-.127-.223-.255-.255-.446-.191-.86-.509-1.687-.86-2.452-.382-.828-.796-1.624-1.306-2.356L27.988 6.4c-.127-.191-.287-.35-.414-.509s-.35-.287-.414-.478c-.032-.096-.127-.287-.127-.287l-.223-.541-.191-.446c-.032-.064-.064-.096-.127-.127h-.095c-.127 0-.318-.064-.446-.096a4.51 4.51 0 0 1-.637-.127c-.064-.032-.127-.032-.159-.096l-.159-.127c-.764-.541-1.56-1.051-2.42-1.465-.828-.382-1.687-.732-2.547-.955L18.691.828c-.382-.064-.86-.191-1.274-.159-.095 0-.191 0-.287-.064-.318-.127-.637-.318-.923-.478C16.143.096 16.08 0 15.984 0c-.032 0-.127.032-.127.032l-.828.446c-.127 0-.287.127-.414.127s-.287.032-.414.032l-.987.127c-1.91.318-3.757 1.051-5.413 2.07-.223.127-.414.255-.605.414l-.096.064-.382.287c-.032.032-.064.032-.096.032a6.36 6.36 0 0 1-.828.159c-.159.032-.382.032-.478.223-.191.414-.255.892-.573 1.242L3.248 7.069c-1.051 1.497-1.783 3.12-2.293 4.84l-.096.35a.52.52 0 0 1-.127.223c-.159.255-.382.541-.605.796-.287.318.032.764.127 1.114a3.57 3.57 0 0 1 .127.573v.287l.032 1.91c.032.605.127 1.242.223 1.815.191-.064.382-.127.573-.159a8.38 8.38 0 0 1 1.719-.191l-.127-.7-.127-1.433c0-.446.096-.923 0-1.369l-.127-.509c-.032-.159-.096-.318-.159-.478-.096-.159-.064-.287.064-.446l.509-.669c.032-.064.096-.127.096-.191l.414-1.305c.318-.86.7-1.688 1.21-2.452.509-.796 1.114-1.465 1.688-2.197.255-.318.255-.732.478-1.051.064-.096.159-.159.287-.159s.287-.064.414-.064c.127-.032.287-.032.414-.096 1.051-.764 2.101-1.369 3.248-1.783a10.76 10.76 0 0 1 1.974-.573l1.019-.159c.287-.032.573 0 .86-.096.318-.127.573-.318.891-.446.127.032.223.096.318.127l.414.223c.096-.032.191.032.287.064a.7.7 0 0 0 .255.032c1.274.032 2.579.446 3.757.955 1.019.414 1.91 1.019 2.834 1.592.064.032.096.064.127.064l.478.096c.159.032.318.064.478.127.032 0 .096.064.096.096.159.35.255.796.478 1.114.35.509.796.923 1.146 1.401a11.51 11.51 0 0 1 1.337 2.356 8.71 8.71 0 0 1 .478 1.274c.127.382.159.828.446 1.115.191.191.35.478.509.732.032.064.032.127.032.191l-.032.096c-.096.318-.255.637-.287.955v.637c.032 1.911-.318 3.885-1.051 5.636-.064.191-.255.414-.255.637v.223c-.032.318.064.732-.191.987-.159.159-.446.382-.669.446s-.35.287-.478.478c-.191 0-.796.955-.955 1.114-.35.382-.764.732-1.178 1.083-.796.669-1.719 1.242-2.579 1.751-.159.096-.287.255-.414.414s-.255.35-.414.478c-.032.032-.096.064-.159.064-.382 0-.764-.064-1.114-.064-.255 0-.478.064-.701.127-.86.223-1.719.319-2.611.35.032.35.032.669-.032 1.019-.064.478-.191.955-.414 1.369a11.31 11.31 0 0 0 1.465-.096c.605-.064 1.178-.159 1.783-.287l.892-.191c.509-.127 1.082.064 1.592.032.064 0 .159-.032.191-.096.032-.032.064-.096.096-.127.287-.318.509-.732.86-.923.064-.032.159-.096.223-.127.732-.382 1.465-.86 2.133-1.337.701-.541 1.369-1.146 2.006-1.783.318-.318.605-.669.892-1.019l.414-.541a1.32 1.32 0 0 1 .382-.35c.032 0 .032-.032.064-.064.191-.191.478-.35.701-.478.191-.096.287-.287.287-.478v-.7-.318c0-.096.032-.159.064-.255l.732-1.91c.287-.923.478-1.879.605-2.834s.095-1.879.095-2.834a1.3 1.3 0 0 1 .032-.605c.127-.255.191-.541.287-.828l.032-.096c.064.032.064-.032 0-.095zM5.126 22.161l4.84 4.808H7.61v4.999H2.579v-4.967H.191l4.935-4.84z"/></g><defs><clipPath id="A"><path fill="#fff" d="M0 0h31.777v32H0z"/></clipPath></defs></svg>