<svg xmlns="http://www.w3.org/2000/svg" width="32" height="32" fill="none" xmlns:v="https://vecta.io/nano"><g clip-path="url(#A)" fill="#1971bd"><path d="M32 8.782v1.948a.42.42 0 0 1-.096.383c-.064.128-.192.192-.319.256l-13.317 5.269-2.044.798a.79.79 0 0 1-.543 0L.383 11.369c-.128-.032-.224-.096-.287-.224A.64.64 0 0 1 0 10.794V6.77a.85.85 0 0 1 .096-.383.59.59 0 0 1 .319-.224l15.234-6.1C15.777.032 15.872 0 16 0s.224.032.351.064l15.202 6.068a1.56 1.56 0 0 1 .224.096c.064.064.128.128.16.192s.064.16.096.224c0 .096 0 .16-.032.255v1.98-.096zM7.792 5.269a8.53 8.53 0 0 0-1.277 0 3.82 3.82 0 0 0-1.852.671.75.75 0 0 0-.255.287c-.063.127-.096.224-.096.351s.032.255.096.351c.064.128.16.192.255.287a3.72 3.72 0 0 0 .99.543c1.469.511 3.066.575 4.567.128.415-.128.83-.319 1.15-.607.096-.064.192-.16.223-.255.064-.096.096-.224.096-.319a.54.54 0 0 0-.096-.319c-.064-.096-.128-.192-.223-.255a1.94 1.94 0 0 0-.767-.479 6.98 6.98 0 0 0-2.81-.383zm19.96 1.469h-.192l-4.184-1.661a.78.78 0 0 0-.383 0l-3.545 1.405-.287.128.192.128 4.216 1.725a.91.91 0 0 0 .415 0l3.449-1.533.319-.192zm-9.07-4.375L16 2.81a1.2 1.2 0 0 1-.671 0l-2.044-.83h-.351l.671 1.373-3.002.607h.224l2.874.255c.096 0 .192.032.287.064a.43.43 0 0 1 .192.224l.575 1.15 1.309-1.086c.128-.128.319-.192.511-.192l2.299.192h.926v-.064l-2.587-.99 1.469-1.15zm-2.012 9.581l1.629-3.194-7.441.766 5.812 2.427zm14.755 1.948l-15.042 5.972a.85.85 0 0 1-.383.096.85.85 0 0 1-.383-.096L7.984 16.83 0 13.764v.16 4.024c0 .128.032.255.096.351l.096.096c.415-.192.83-.319 1.246-.415 2.427-.511 4.631 0 6.451 1.788.16.16.479.287.735.287 2.204.032 3.992 1.373 4.439 3.513l2.587 1.022c.096.032.224.064.319.064a1.13 1.13 0 0 0 .319-.064l15.297-5.94c.128-.032.224-.096.287-.224.064-.096.096-.224.096-.351v-4.024-.287l-.543.128zM32 25.229v-3.96-.319l-.511.192-15.138 6.036c-.064.032-.096.032-.16.064.383.766.511 1.629.383 2.459s-.447 1.597-.894 2.203c.096.032.192.064.287.064.128 0 .224-.032.319-.064l15.234-6.036a.61.61 0 0 0 .351-.223c.096-.16.128-.288.128-.415zM5.333 21.333l4.854 4.822H7.824v5.014H2.778v-4.982H.383l4.95-4.854z"/></g><defs><clipPath id="A"><path fill="#fff" d="M0 0h32v31.936H0z"/></clipPath></defs></svg>