<svg xmlns="http://www.w3.org/2000/svg" width="85" height="85" fill="none"><path fill="#2600FF" d="M79.849 84.947H5.151A5.16 5.16 0 0 1 0 79.796V5.152A5.16 5.16 0 0 1 5.152 0h74.697A5.16 5.16 0 0 1 85 5.152v74.644a5.126 5.126 0 0 1-5.151 5.151"/><path fill="#fff" d="M22.13 13.667a5.63 5.63 0 0 0-5.624 5.625v46.153a5.63 5.63 0 0 0 5.625 5.625 5.63 5.63 0 0 0 5.624-5.625V19.292c.053-3.102-2.47-5.625-5.624-5.625m41.001 0c-1.314 0-2.523.473-3.521 1.367l-10.409 9.462-.157.158-17.4 15.77c-.63.525-1.314 1.156-1.314 2.05 0 1.156.788 1.84 1.524 2.418.158.157.368.315.526.42l12.3 10.619 14.93 13.877c1.103.946 2.47 1.42 3.89 1.262s2.733-.841 3.627-1.998c1.892-2.365 1.576-5.887-.684-7.832L45.733 42.369l10.093-9.147a2.3 2.3 0 0 0 .368-.315l10.46-9.515c2.208-1.997 2.471-5.52.526-7.832-.946-1.104-2.26-1.788-3.68-1.893z"/></svg>