<?xml version="1.0" encoding="utf-8"?>
<svg xmlns="http://www.w3.org/2000/svg" viewBox="0 0 500 500">
  <defs>
    <linearGradient id="paint0_linear_1011_17476" x1="87.2601" y1="63.3351" x2="263.008" y2="301.478" gradientUnits="userSpaceOnUse" gradientTransform="matrix(1, 0, 0, 1, 51.037846, 22.887829)">
      <stop stop-color="#00FAFF"/>
      <stop offset="1" stop-color="#8BFF95"/>
    </linearGradient>
    <linearGradient id="paint1_linear_1011_17476" x1="87.2601" y1="63.3351" x2="263.008" y2="301.478" gradientUnits="userSpaceOnUse" gradientTransform="matrix(1, 0, 0, 1, 51.037846, 22.887829)">
      <stop stop-color="#00FAFF"/>
      <stop offset="1" stop-color="#8BFF95"/>
    </linearGradient>
    <linearGradient id="paint2_linear_1011_17476" x1="87.2601" y1="63.3351" x2="263.008" y2="301.478" gradientUnits="userSpaceOnUse" gradientTransform="matrix(1, 0, 0, 1, 51.037846, 22.887829)">
      <stop stop-color="#00FAFF"/>
      <stop offset="1" stop-color="#8BFF95"/>
    </linearGradient>
    <linearGradient id="paint3_linear_1011_17476" x1="87.2601" y1="63.3351" x2="263.008" y2="301.478" gradientUnits="userSpaceOnUse" gradientTransform="matrix(1, 0, 0, 1, 51.037846, 22.887829)">
      <stop stop-color="#00FAFF"/>
      <stop offset="1" stop-color="#8BFF95"/>
    </linearGradient>
    <linearGradient id="paint4_linear_1011_17476" x1="87.2601" y1="63.3351" x2="263.008" y2="301.478" gradientUnits="userSpaceOnUse" gradientTransform="matrix(1, 0, 0, 1, 51.037846, 22.887829)">
      <stop stop-color="#00FAFF"/>
      <stop offset="1" stop-color="#8BFF95"/>
    </linearGradient>
    <linearGradient id="paint5_linear_1011_17476" x1="87.2601" y1="63.3351" x2="263.008" y2="301.478" gradientUnits="userSpaceOnUse" gradientTransform="matrix(1, 0, 0, 1, 51.037846, 22.887829)">
      <stop stop-color="#00FAFF"/>
      <stop offset="1" stop-color="#8BFF95"/>
    </linearGradient>
  </defs>
  <path d="M 340.156 22.888 L 123.852 22.888 C 83.638 22.888 51.038 55.543 51.038 95.824 L 51.038 312.49 C 51.038 352.771 83.638 385.426 123.852 385.426 L 340.156 385.426 C 380.369 385.426 412.969 352.771 412.969 312.49 L 412.969 95.824 C 412.969 55.543 380.369 22.888 340.156 22.888 Z" fill="black" style="stroke-width: 1;"/>
  <path d="M 266.154 112.884 C 266.158 117.382 267.95 121.695 271.136 124.875 C 274.321 128.055 278.641 129.844 283.146 129.848 C 287.651 129.844 291.971 128.055 295.156 124.875 C 298.342 121.695 300.133 117.382 300.138 112.884 C 300.133 108.387 298.342 104.074 295.156 100.894 C 291.971 97.713 287.651 95.925 283.146 95.92 C 278.641 95.925 274.321 97.713 271.136 100.894 C 267.95 104.074 266.158 108.387 266.154 112.884 Z" fill="white" style="stroke-width: 1;"/>
  <path d="M 163.869 295.324 C 163.874 299.821 165.665 304.134 168.851 307.314 C 172.037 310.495 176.356 312.283 180.861 312.288 C 185.366 312.283 189.686 310.495 192.872 307.314 C 196.057 304.134 197.849 299.821 197.853 295.324 C 197.849 290.826 196.057 286.513 192.872 283.333 C 189.686 280.152 185.366 278.364 180.861 278.359 C 176.356 278.364 172.037 280.152 168.851 283.333 C 165.665 286.513 163.874 290.826 163.869 295.324 Z" fill="white" style="stroke-width: 1;"/>
  <path d="M 264.9 204.104 C 264.904 208.602 266.696 212.914 269.881 216.094 C 273.067 219.275 277.386 221.064 281.892 221.068 C 286.397 221.064 290.716 219.275 293.902 216.094 C 297.088 212.914 298.879 208.602 298.884 204.104 C 298.879 199.606 297.088 195.294 293.902 192.113 C 290.716 188.933 286.397 187.144 281.892 187.14 C 277.386 187.144 273.067 188.933 269.881 192.113 C 266.696 195.294 264.904 199.606 264.9 204.104 Z" fill="white" style="stroke-width: 1;"/>
  <path d="M 111.431 204.104 C 111.436 208.602 113.227 212.914 116.413 216.094 C 119.599 219.275 123.918 221.064 128.423 221.068 C 132.928 221.064 137.248 219.275 140.434 216.094 C 143.619 212.914 145.411 208.602 145.415 204.104 C 145.411 199.606 143.619 195.294 140.434 192.113 C 137.248 188.933 132.928 187.144 128.423 187.14 C 123.918 187.144 119.599 188.933 116.413 192.113 C 113.227 195.294 111.436 199.606 111.431 204.104 Z" fill="white" style="stroke-width: 1;"/>
  <path d="M 195.001 122.41 C 195.702 121.301 196.665 120.381 197.806 119.729 C 198.946 119.077 200.229 118.714 201.542 118.671 L 211.502 118.671 C 212.816 118.711 214.1 119.073 215.241 119.725 C 216.381 120.377 217.344 121.299 218.044 122.41 C 219.602 124.685 221.694 126.547 224.136 127.833 C 226.578 129.119 229.298 129.791 232.059 129.79 C 234.586 129.795 237.081 129.234 239.362 128.149 C 241.644 127.064 243.652 125.482 245.24 123.52 C 246.85 121.54 247.993 119.223 248.585 116.742 C 249.176 114.26 249.202 111.678 248.658 109.185 C 247.97 105.938 246.336 102.966 243.962 100.642 C 241.588 98.318 238.579 96.746 235.313 96.123 C 231.975 95.48 228.52 95.848 225.393 97.181 C 222.266 98.513 219.61 100.749 217.766 103.601 C 217.033 104.645 216.051 105.49 214.909 106.061 C 213.767 106.631 212.5 106.908 211.224 106.867 L 201.722 106.867 C 200.447 106.9 199.183 106.62 198.042 106.051 C 196.901 105.481 195.918 104.64 195.18 103.601 C 193.317 100.78 190.655 98.578 187.532 97.275 C 184.409 95.972 180.968 95.628 177.649 96.287 C 174.385 96.913 171.378 98.487 169.005 100.81 C 166.631 103.133 164.996 106.103 164.304 109.348 C 163.769 111.841 163.798 114.422 164.39 116.902 C 164.981 119.382 166.119 121.699 167.722 123.684 C 169.315 125.644 171.327 127.224 173.61 128.309 C 175.894 129.394 178.391 129.956 180.92 129.953 C 183.707 129.947 186.449 129.255 188.905 127.939 C 191.361 126.624 193.454 124.725 195.001 122.41 Z" fill="url(#paint0_linear_1011_17476)" style="stroke-width: 1;"/>
  <path d="M 220.573 168.125 C 221.274 167.016 222.237 166.096 223.378 165.444 C 224.518 164.792 225.801 164.429 227.114 164.386 L 237.074 164.386 C 238.388 164.426 239.672 164.788 240.813 165.44 C 241.953 166.092 242.916 167.014 243.616 168.125 C 245.174 170.401 247.266 172.262 249.708 173.548 C 252.15 174.834 254.87 175.506 257.631 175.505 C 260.158 175.51 262.653 174.949 264.935 173.864 C 267.216 172.779 269.224 171.198 270.813 169.236 C 272.422 167.255 273.565 164.938 274.157 162.457 C 274.748 159.975 274.774 157.393 274.231 154.9 C 273.542 151.653 271.908 148.681 269.534 146.357 C 267.16 144.033 264.151 142.461 260.886 141.838 C 257.547 141.195 254.092 141.563 250.965 142.896 C 247.838 144.228 245.182 146.464 243.338 149.316 C 242.605 150.36 241.623 151.205 240.481 151.776 C 239.339 152.346 238.072 152.623 236.796 152.582 L 227.294 152.582 C 226.019 152.616 224.755 152.335 223.614 151.766 C 222.473 151.196 221.491 150.355 220.753 149.316 C 218.89 146.495 216.227 144.293 213.104 142.99 C 209.981 141.687 206.541 141.343 203.221 142.002 C 199.957 142.628 196.95 144.202 194.577 146.525 C 192.203 148.848 190.568 151.818 189.876 155.064 C 189.341 157.556 189.37 160.137 189.962 162.617 C 190.553 165.097 191.692 167.414 193.294 169.399 C 194.887 171.359 196.899 172.94 199.182 174.024 C 201.466 175.109 203.963 175.671 206.492 175.669 C 209.279 175.662 212.021 174.97 214.477 173.655 C 216.933 172.339 219.026 170.44 220.573 168.125 Z" fill="url(#paint1_linear_1011_17476)" style="stroke-width: 1;"/>
  <path d="M 172.18 256.664 C 171.04 257.316 170.077 258.236 169.375 259.345 C 167.829 261.66 165.735 263.559 163.279 264.875 C 160.824 266.19 158.081 266.882 155.294 266.889 C 152.766 266.891 150.269 266.329 147.985 265.244 C 145.702 264.16 143.69 262.579 142.097 260.619 C 140.494 258.634 139.356 256.317 138.765 253.837 C 138.173 251.357 138.144 248.776 138.679 246.284 C 139.371 243.038 141.006 240.068 143.38 237.745 C 145.753 235.422 148.76 233.849 152.024 233.222 C 155.343 232.563 158.784 232.907 161.907 234.21 C 165.029 235.513 167.692 237.715 169.555 240.536 C 170.293 241.575 171.276 242.416 172.417 242.986 C 173.558 243.555 174.822 243.836 176.097 243.802 L 185.599 243.802 C 186.875 243.843 188.141 243.566 189.283 242.996 C 190.425 242.426 191.407 241.58 192.14 240.536 C 193.984 237.684 196.64 235.448 199.768 234.116 C 202.895 232.783 206.35 232.415 209.688 233.058 C 212.954 233.681 215.963 235.253 218.337 237.577 C 219.352 238.571 220.232 239.684 220.961 240.886 C 221.663 241.764 222.549 242.482 223.559 242.986 C 224.7 243.555 225.964 243.836 227.239 243.802 L 236.741 243.802 C 238.017 243.843 239.284 243.566 240.426 242.996 C 241.568 242.426 242.55 241.58 243.283 240.536 C 245.127 237.684 247.783 235.448 250.91 234.116 C 254.037 232.783 257.492 232.415 260.831 233.058 C 264.096 233.681 267.105 235.253 269.479 237.577 C 271.853 239.901 273.487 242.873 274.176 246.12 C 274.719 248.613 274.694 251.195 274.102 253.677 C 273.51 256.158 272.367 258.475 270.758 260.456 C 269.169 262.418 267.161 263.999 264.88 265.084 C 262.599 266.169 260.103 266.73 257.576 266.725 C 254.815 266.726 252.095 266.054 249.653 264.768 C 247.211 263.482 245.12 261.621 243.561 259.345 C 242.861 258.234 241.899 257.312 240.758 256.66 C 239.617 256.008 238.333 255.646 237.019 255.606 L 227.059 255.606 C 225.746 255.649 224.463 256.012 223.323 256.664 C 222.183 257.316 221.22 258.236 220.518 259.345 C 218.971 261.66 216.878 263.559 214.422 264.875 C 211.966 266.19 209.224 266.882 206.437 266.889 C 203.908 266.891 201.411 266.329 199.128 265.244 C 196.844 264.16 194.832 262.579 193.239 260.619 C 192.672 259.916 192.163 259.172 191.715 258.393 C 191.121 257.702 190.412 257.115 189.615 256.66 C 188.474 256.008 187.19 255.646 185.877 255.606 L 175.917 255.606 C 174.604 255.649 173.321 256.012 172.18 256.664 Z" fill="url(#paint2_linear_1011_17476)" style="stroke-width: 1;"/>
  <path d="M 248.948 302.274 C 247.808 302.926 246.845 303.847 246.143 304.956 C 244.597 307.271 242.503 309.17 240.047 310.485 C 237.591 311.801 234.849 312.492 232.062 312.499 C 229.533 312.501 227.036 311.94 224.753 310.855 C 222.469 309.77 220.458 308.19 218.864 306.229 C 217.262 304.244 216.123 301.927 215.532 299.447 C 214.941 296.967 214.912 294.387 215.446 291.894 C 216.139 288.648 217.774 285.678 220.147 283.355 C 222.521 281.032 225.527 279.459 228.791 278.832 C 232.111 278.174 235.552 278.518 238.674 279.82 C 241.797 281.123 244.46 283.326 246.323 286.147 C 247.061 287.185 248.044 288.027 249.185 288.596 C 250.326 289.166 251.589 289.446 252.865 289.412 L 262.366 289.412 C 263.643 289.453 264.909 289.176 266.051 288.606 C 267.193 288.036 268.175 287.191 268.908 286.147 C 270.752 283.295 273.408 281.059 276.535 279.726 C 279.663 278.394 283.117 278.025 286.456 278.669 C 289.722 279.292 292.73 280.864 295.105 283.187 C 297.479 285.511 299.113 288.483 299.801 291.731 C 300.344 294.223 300.319 296.806 299.727 299.287 C 299.136 301.768 297.993 304.085 296.383 306.066 C 294.795 308.028 292.786 309.61 290.505 310.694 C 288.224 311.779 285.728 312.34 283.201 312.336 C 280.44 312.336 277.721 311.665 275.278 310.379 C 272.836 309.093 270.745 307.231 269.186 304.956 C 268.486 303.845 267.524 302.923 266.383 302.271 C 265.242 301.618 263.958 301.257 262.644 301.217 L 252.685 301.217 C 251.371 301.259 250.088 301.623 248.948 302.274 Z" fill="url(#paint3_linear_1011_17476)" style="stroke-width: 1;"/>
  <path d="M 318.591 204.104 C 318.595 208.602 320.387 212.914 323.573 216.095 C 326.758 219.275 331.078 221.064 335.583 221.068 C 340.088 221.064 344.408 219.275 347.593 216.095 C 350.779 212.914 352.571 208.602 352.575 204.104 C 352.571 199.606 350.779 195.294 347.593 192.113 C 344.408 188.933 340.088 187.144 335.583 187.14 C 331.078 187.144 326.758 188.933 323.573 192.113 C 320.387 195.294 318.595 199.606 318.591 204.104 Z" fill="url(#paint4_linear_1011_17476)" style="stroke-width: 1;"/>
  <path d="M 167.597 216.095 C 164.411 212.914 162.619 208.602 162.615 204.104 C 162.619 199.606 164.411 195.294 167.597 192.113 C 170.782 188.933 175.102 187.144 179.607 187.14 C 184.112 187.144 188.432 188.933 191.617 192.113 C 194.803 195.294 196.595 199.606 196.599 204.104 C 196.595 208.602 194.803 212.914 191.617 216.095 C 188.432 219.275 184.112 221.064 179.607 221.068 C 175.102 221.064 170.782 219.275 167.597 216.095 Z" fill="url(#paint5_linear_1011_17476)" style="stroke-width: 1;"/>
  <path d="M 291.671 158.493 C 291.675 162.991 293.467 167.304 296.653 170.484 C 299.838 173.665 304.158 175.453 308.663 175.458 C 313.168 175.453 317.488 173.665 320.673 170.484 C 323.859 167.304 325.651 162.991 325.655 158.493 C 325.651 153.996 323.859 149.683 320.673 146.503 C 317.488 143.322 313.168 141.534 308.663 141.529 C 304.158 141.534 299.838 143.322 296.653 146.503 C 293.467 149.683 291.675 153.996 291.671 158.493 Z" fill="white" style="stroke-width: 1;"/>
  <path d="M 138.351 158.493 C 138.356 162.991 140.147 167.304 143.333 170.484 C 146.519 173.665 150.838 175.453 155.343 175.458 C 159.848 175.453 164.168 173.665 167.353 170.484 C 170.539 167.304 172.331 162.991 172.335 158.493 C 172.331 153.996 170.539 149.683 167.353 146.503 C 164.168 143.322 159.848 141.534 155.343 141.529 C 150.838 141.534 146.519 143.322 143.333 146.503 C 140.147 149.683 138.356 153.996 138.351 158.493 Z" fill="white" style="stroke-width: 1;"/>
  <path d="M 291.671 249.714 C 291.675 254.212 293.467 258.524 296.653 261.705 C 299.838 264.885 304.158 266.674 308.663 266.678 C 313.168 266.674 317.488 264.885 320.673 261.705 C 323.859 258.524 325.651 254.212 325.655 249.714 C 325.651 245.216 323.859 240.904 320.673 237.723 C 317.488 234.543 313.168 232.754 308.663 232.75 C 304.158 232.754 299.838 234.543 296.653 237.723 C 293.467 240.904 291.675 245.216 291.671 249.714 Z" fill="white" style="stroke-width: 1;"/>
</svg>