<svg xmlns="http://www.w3.org/2000/svg" id="Logos" viewBox="16.549999237060547 0 163.6099853515625 72">
  <defs>
    <style>
      .cls-1 {
        fill: #ffcf25;
      }

      .cls-1, .cls-2 {
        stroke-width: 0px;
      }

      .cls-2 {
        fill: #fff;
      }
    </style>
  </defs>
  <path class="cls-1" d="m16.55,10.39l26.46,51.5,26.65-51.5H16.55Zm22.34,20.44h-4.22v-4.21h4.22v4.21Zm0-6.32h-4.22v-4.22h4.22v4.22Zm6.32,12.65h-4.22v-4.22h4.22v4.22Zm0-6.32h-4.22v-4.21h4.22v4.21Zm0-6.32h-4.22v-4.22h4.22v4.22Zm6.29,6.32h-4.22v-4.21h4.22v4.21Zm-4.22-6.32v-4.22h4.22v4.22h-4.22Z"/>
  <path class="cls-2" d="m94.16,50.99l-8.2-28h5.4l6.5,23.4h1.4l6.6-23.4h5.1l-8.2,28h-8.6Zm23.5.3c-4.1,0-6.7-2.2-6.7-5.8,0-4.2,3-5.6,6.6-6.4l6.1-1.4v-.4c0-2.1-1.4-3.4-3.5-3.4s-3.5,1.2-3.9,3.1l-4.4-.5c.7-3.8,3.9-6.2,8.5-6.2,5,0,8.3,3.2,8.3,7.8v8.4c0,.5.1.7.5.7h1.1v3.9h-3c-1.9,0-2.8-.6-2.8-2.2,0-.5.1-1.1.3-1.8l-.4-.2c-1.5,3-3.7,4.4-6.7,4.4Zm-1.8-6.2c0,1.6,1.2,2.6,3,2.6,2.8,0,4.7-2,4.7-5.2v-1.6l-4.5,1.1c-2.2.6-3.2,1.3-3.2,3.1Zm30.9-3.3v-11.2h5v20.4h-4.9v-.8c0-1,.1-1.8.3-3.2l-.4-.2c-1.2,3-3.2,4.7-6.6,4.7-4.4,0-6.8-2.8-6.8-7.5v-13.4h5v12.8c0,2.7,1.2,4,3.7,4,2.7.1,4.7-2,4.7-5.6Zm15.7-19.6v23.9c0,.8.3,1,.8,1h2.4v3.9h-4.7c-2.4,0-3.6-1.3-3.6-3.7v-21.1h-3v-4h8.1Zm13.3,28.8c-3.9,0-5.6-1.6-5.6-5.1v-11.3h-3.6v-4h3.6v-5.2h5v5.2h5v4h-5v10.6c0,1.3.5,1.8,1.5,1.8h3.5v4h-4.4Z"/>
</svg>