<svg xmlns="http://www.w3.org/2000/svg" xmlns:xlink="http://www.w3.org/1999/xlink" width="1080" zoomAndPan="magnify" viewBox="0 0 810 809.999993" height="1080" preserveAspectRatio="xMidYMid meet" version="1.0"><defs><clipPath id="c4a99cb6e6"><path d="M 243 354 L 348.75 354 L 348.75 457 L 243 457 Z M 243 354 " clip-rule="nonzero"/></clipPath></defs><g clip-path="url(#c4a99cb6e6)"><path fill="#ffcf25" d="M 243.386719 354.472656 L 295.660156 456.398438 L 348.308594 354.472656 Z M 287.523438 394.925781 L 279.183594 394.925781 L 279.183594 386.59375 L 287.523438 386.59375 Z M 287.523438 382.417969 L 279.183594 382.417969 L 279.183594 374.066406 L 287.523438 374.066406 Z M 300.007812 407.453125 L 291.671875 407.453125 L 291.671875 399.101562 L 300.007812 399.101562 Z M 300.007812 394.945312 L 291.671875 394.945312 L 291.671875 386.613281 L 300.007812 386.613281 Z M 300.007812 382.4375 L 291.671875 382.4375 L 291.671875 374.085938 L 300.007812 374.085938 Z M 312.433594 394.945312 L 304.097656 394.945312 L 304.097656 386.613281 L 312.433594 386.613281 Z M 304.097656 382.4375 L 304.097656 374.085938 L 312.433594 374.085938 L 312.433594 382.4375 Z M 304.097656 382.4375 " fill-opacity="1" fill-rule="nonzero"/></g></svg>