<svg xmlns="http://www.w3.org/2000/svg" viewBox="0 0 460 360" fill="none" role="img" aria-label="Secret Access Request">
  <defs>
    <radialGradient id="kvGlowTR" cx="50%" cy="50%" r="50%"><stop offset="0%" stop-color="#CFE0FB" stop-opacity="0.9"/><stop offset="40%" stop-color="#DCE8FD" stop-opacity="0.5"/><stop offset="75%" stop-color="#EAF1FE" stop-opacity="0.14"/><stop offset="100%" stop-color="#EAF1FE" stop-opacity="0"/></radialGradient>
    <radialGradient id="kvGlowBL" cx="50%" cy="50%" r="50%"><stop offset="0%" stop-color="#BFD6FA" stop-opacity="0.85"/><stop offset="40%" stop-color="#D3E1FC" stop-opacity="0.45"/><stop offset="75%" stop-color="#E6EFFE" stop-opacity="0.12"/><stop offset="100%" stop-color="#E6EFFE" stop-opacity="0"/></radialGradient>
    <filter id="kvSoften" x="-120" y="-120" width="720" height="620" filterUnits="userSpaceOnUse"><feGaussianBlur stdDeviation="22"/></filter>
    <radialGradient id="spotWhite" cx="50%" cy="46%" r="55%"><stop offset="0%" stop-color="#FFFFFF" stop-opacity="0.9"/><stop offset="62%" stop-color="#FFFFFF" stop-opacity="0.25"/><stop offset="100%" stop-color="#FFFFFF" stop-opacity="0"/></radialGradient>
    <linearGradient id="podG" x1="0.2" y1="0" x2="0.6" y2="1"><stop offset="0%" stop-color="#6EA0F9"/><stop offset="100%" stop-color="#254FAC"/></linearGradient>
    <radialGradient id="podGlow" cx="50%" cy="50%" r="50%"><stop offset="0%" stop-color="#4C84F1" stop-opacity="0.4"/><stop offset="100%" stop-color="#4C84F1" stop-opacity="0"/></radialGradient>
    <linearGradient id="cardG" x1="0" y1="0" x2="0" y2="1"><stop offset="0%" stop-color="#FFFFFF"/><stop offset="100%" stop-color="#EDF3FD"/></linearGradient>
    <linearGradient id="lockG" x1="0.2" y1="0" x2="0.6" y2="1"><stop offset="0%" stop-color="#6EA0F9"/><stop offset="100%" stop-color="#254FAC"/></linearGradient>
    <linearGradient id="amber" x1="0" y1="0" x2="1" y2="0"><stop offset="0%" stop-color="#FBC63F"/><stop offset="100%" stop-color="#E9930A"/></linearGradient>
    <linearGradient id="blueA" x1="1" y1="0" x2="0" y2="0"><stop offset="0%" stop-color="#4C84F1"/><stop offset="100%" stop-color="#2A5FCF"/></linearGradient>
    <filter id="dropBig" x="-60%" y="-60%" width="220%" height="220%"><feDropShadow dx="0" dy="12" stdDeviation="13" flood-color="#14337A" flood-opacity="0.30"/></filter>
    <filter id="dropSm" x="-60%" y="-60%" width="220%" height="220%"><feDropShadow dx="0" dy="4" stdDeviation="5" flood-color="#14337A" flood-opacity="0.26"/></filter>
  </defs>
  <circle cx="402" cy="46" r="188" fill="url(#kvGlowTR)" filter="url(#kvSoften)"/>
  <circle cx="52" cy="322" r="150" fill="url(#kvGlowBL)" filter="url(#kvSoften)"/>
  <circle cx="420" cy="300" r="4" fill="#BFD6FA"/><circle cx="34" cy="66" r="3" fill="#8FB4F2"/>
  <ellipse cx="230" cy="192" rx="184" ry="150" fill="url(#spotWhite)"/>

  <!-- k8s pod (left) -->
  <g transform="translate(120 200)">
    <polygon points="0,-52 45,-26 45,26 0,52 -45,26 -45,-26" fill="url(#podGlow)"/>
    <g filter="url(#dropBig)"><polygon points="0,-46 40,-23 40,23 0,46 -40,23 -40,-23" fill="url(#podG)"/></g>
    <polygon points="0,-46 40,-23 40,23 0,46 -40,23 -40,-23" fill="none" stroke="#FFFFFF" stroke-opacity="0.4" stroke-width="1.5"/>
    <circle r="18" fill="none" stroke="#FFFFFF" stroke-width="3"/>
    <g stroke="#FFFFFF" stroke-width="3" stroke-linecap="round"><line x1="0" y1="-18" x2="0" y2="-30"/><line x1="15" y1="9" x2="26" y2="16"/><line x1="-15" y1="9" x2="-26" y2="16"/></g>
    <circle r="5" fill="#FFFFFF"/>
  </g>

  <path d="M172 178 C208 162 232 158 262 164" fill="none" stroke="url(#amber)" stroke-width="5" stroke-linecap="round"/>
  <polygon points="268,165 250,155 252,173" fill="#E9930A"/>
  <path d="M262 222 C232 232 208 236 176 232" fill="none" stroke="url(#blueA)" stroke-width="5" stroke-linecap="round"/>
  <polygon points="170,232 188,224 187,240" fill="#2A5FCF"/>

  <!-- SecretAccessRequest badge chip -->
  <g transform="translate(220 92)">
    <g filter="url(#dropSm)"><rect x="-84" y="-17" width="168" height="34" rx="17" fill="url(#cardG)"/></g>
    <rect x="-83.5" y="-16.5" width="167" height="33" rx="16.5" fill="none" stroke="#FFFFFF" stroke-opacity="0.7" stroke-width="1"/>
    <text x="0" y="5" font-family="'DejaVu Sans Mono','Courier New',monospace" font-size="13" font-weight="700" fill="#254FAC" text-anchor="middle">SecretAccessRequest</text>
  </g>

  <!-- locked credential (right) -->
  <g transform="translate(342 200)">
    <ellipse cx="0" cy="8" rx="56" ry="48" fill="url(#spotWhite)" opacity="0.5"/>
    <g filter="url(#dropBig)"><rect x="-50" y="-30" width="100" height="88" rx="16" fill="url(#lockG)"/></g>
    <rect x="-50" y="-30" width="100" height="26" rx="16" fill="#FFFFFF" opacity="0.14"/>
    <rect x="-49.5" y="-29.5" width="99" height="87" rx="15.5" fill="none" stroke="#FFFFFF" stroke-opacity="0.5" stroke-width="1"/>
    <rect x="-15" y="4" width="30" height="24" rx="5" fill="#FFFFFF"/>
    <path d="M-9 4 v-8 a9 9 0 0 1 18 0 v8" fill="none" stroke="#FFFFFF" stroke-width="4.5"/>
    <circle cx="0" cy="15" r="3.4" fill="#254FAC"/>
    <rect x="-30" y="36" width="60" height="5" rx="2.5" fill="#FFFFFF" opacity="0.7"/>
    <rect x="-30" y="46" width="40" height="5" rx="2.5" fill="#FFFFFF" opacity="0.45"/>
  </g>
  <g fill="#7FB0F5"><circle cx="230" cy="300" r="2.4"/></g>
</svg>
