<svg xmlns="http://www.w3.org/2000/svg" viewBox="0 0 460 360" fill="none" role="img" aria-label="Store and Unseal your Secret with GCP">
  <defs>
    <radialGradient id="kvGlowTR" cx="50%" cy="50%" r="50%"><stop offset="0%" stop-color="#CFE0FB" stop-opacity="0.9"/><stop offset="40%" stop-color="#DCE8FD" stop-opacity="0.5"/><stop offset="75%" stop-color="#EAF1FE" stop-opacity="0.14"/><stop offset="100%" stop-color="#EAF1FE" stop-opacity="0"/></radialGradient>
    <radialGradient id="kvGlowBL" cx="50%" cy="50%" r="50%"><stop offset="0%" stop-color="#BFD6FA" stop-opacity="0.85"/><stop offset="40%" stop-color="#D3E1FC" stop-opacity="0.45"/><stop offset="75%" stop-color="#E6EFFE" stop-opacity="0.12"/><stop offset="100%" stop-color="#E6EFFE" stop-opacity="0"/></radialGradient>
    <filter id="kvSoften" x="-120" y="-120" width="720" height="620" filterUnits="userSpaceOnUse"><feGaussianBlur stdDeviation="22"/></filter>
    <radialGradient id="spotWhite" cx="50%" cy="46%" r="55%"><stop offset="0%" stop-color="#FFFFFF" stop-opacity="0.9"/><stop offset="62%" stop-color="#FFFFFF" stop-opacity="0.24"/><stop offset="100%" stop-color="#FFFFFF" stop-opacity="0"/></radialGradient>
    <linearGradient id="vframe" x1="0.2" y1="0" x2="0.6" y2="1"><stop offset="0%" stop-color="#4C7CE8"/><stop offset="100%" stop-color="#173A82"/></linearGradient>
    <linearGradient id="vface" x1="0.15" y1="0" x2="0.55" y2="1"><stop offset="0%" stop-color="#6EA0F9"/><stop offset="50%" stop-color="#3F73E4"/><stop offset="100%" stop-color="#254FAC"/></linearGradient>
    <linearGradient id="vsheen" x1="0" y1="0" x2="0.8" y2="1"><stop offset="0%" stop-color="#FFFFFF" stop-opacity="0.4"/><stop offset="30%" stop-color="#FFFFFF" stop-opacity="0"/></linearGradient>
    <linearGradient id="vdoor" x1="0.1" y1="0" x2="0.4" y2="1"><stop offset="0%" stop-color="#CBDCF7"/><stop offset="34%" stop-color="#E9F1FE"/><stop offset="100%" stop-color="#FAFCFF"/></linearGradient>
    <linearGradient id="cardG" x1="0" y1="0" x2="0" y2="1"><stop offset="0%" stop-color="#FFFFFF"/><stop offset="100%" stop-color="#EDF3FD"/></linearGradient>
    <linearGradient id="keyGrad" x1="0" y1="0" x2="1" y2="1"><stop offset="0%" stop-color="#FFD463"/><stop offset="100%" stop-color="#E39A00"/></linearGradient>
    <radialGradient id="keyGlow" cx="50%" cy="50%" r="50%"><stop offset="0%" stop-color="#FBC63F" stop-opacity="0.7"/><stop offset="100%" stop-color="#FBC63F" stop-opacity="0"/></radialGradient>
    <radialGradient id="brandGlow" cx="50%" cy="50%" r="50%"><stop offset="0%" stop-color="#4285F4" stop-opacity="0.32"/><stop offset="100%" stop-color="#4285F4" stop-opacity="0"/></radialGradient>
    <filter id="dropBig" x="-60%" y="-60%" width="220%" height="220%"><feDropShadow dx="0" dy="10" stdDeviation="12" flood-color="#14337A" flood-opacity="0.28"/></filter>
    <filter id="dropSm" x="-60%" y="-60%" width="220%" height="220%"><feDropShadow dx="0" dy="4" stdDeviation="5" flood-color="#14337A" flood-opacity="0.26"/></filter>
  </defs>
  <circle cx="402" cy="46" r="188" fill="url(#kvGlowTR)" filter="url(#kvSoften)"/>
  <circle cx="52" cy="322" r="150" fill="url(#kvGlowBL)" filter="url(#kvSoften)"/>
  <circle cx="420" cy="300" r="4" fill="#BFD6FA"/><circle cx="34" cy="66" r="3" fill="#8FB4F2"/>
  <ellipse cx="230" cy="192" rx="184" ry="148" fill="url(#spotWhite)"/>

  <!-- vault left -->
  <ellipse cx="110" cy="278" rx="58" ry="11" fill="#1A3E92" opacity="0.20"/>
  <g filter="url(#dropBig)">
    <rect x="62" y="264" width="14" height="12" rx="3" fill="#12306E"/><rect x="144" y="264" width="14" height="12" rx="3" fill="#12306E"/>
    <rect x="52" y="152" width="116" height="118" rx="17" fill="url(#vframe)"/>
    <rect x="59" y="159" width="102" height="104" rx="12" fill="url(#vface)"/>
    <rect x="59" y="159" width="102" height="104" rx="12" fill="url(#vsheen)"/>
  </g>
  <rect x="70" y="169" width="80" height="84" rx="9" fill="url(#vdoor)" filter="url(#dropSm)"/>
  <circle cx="110" cy="211" r="23" fill="#F3F8FF" stroke="#B7CCEE" stroke-width="2"/>
  <circle cx="110" cy="211" r="15" fill="none" stroke="#3F73E4" stroke-width="4"/>
  <circle cx="110" cy="211" r="5.5" fill="#2A5FCF"/>

  <path d="M176 182 C214 168 236 164 262 168" fill="none" stroke="#E9930A" stroke-width="5" stroke-linecap="round"/>
  <polygon points="268,169 250,159 252,177" fill="#E9930A"/>
  <path d="M262 232 C236 240 214 244 178 240" fill="none" stroke="#2A5FCF" stroke-width="5" stroke-linecap="round"/>
  <polygon points="172,240 190,232 189,248" fill="#2A5FCF"/>
  <g transform="translate(220 200)"><circle r="16" fill="url(#keyGlow)"/><circle r="9" fill="none" stroke="url(#keyGrad)" stroke-width="4.5"/><rect x="7" y="-2.2" width="20" height="4.4" rx="2.2" fill="url(#keyGrad)"/></g>

  <!-- GCP provider card -->
  <g transform="translate(346 200)">
    <ellipse cx="0" cy="-10" rx="52" ry="44" fill="url(#brandGlow)"/>
    <g filter="url(#dropBig)"><rect x="-66" y="-58" width="132" height="116" rx="20" fill="url(#cardG)"/></g>
    <rect x="-65.5" y="-57.5" width="131" height="115" rx="19.5" fill="none" stroke="#FFFFFF" stroke-opacity="0.7" stroke-width="1"/>
    <g transform="translate(-3 -18)">
      <clipPath id="gcpClip2"><path d="M-27 12 a13 13 0 0 1 -1 -25 a17 17 0 0 1 32 -4 a12 12 0 0 1 20 5 a12 12 0 0 1 -4 23 Z"/></clipPath>
      <g clip-path="url(#gcpClip2)">
        <rect x="-42" y="-32" width="42" height="32" fill="#EA4335"/><rect x="0" y="-32" width="46" height="32" fill="#FBBC05"/>
        <rect x="0" y="0" width="46" height="32" fill="#34A853"/><rect x="-42" y="0" width="42" height="32" fill="#4285F4"/>
      </g>
    </g>
    <text x="0" y="34" font-family="'Segoe UI',system-ui,sans-serif" font-size="16" font-weight="700" fill="#4285F4" text-anchor="middle">Cloud KMS</text>
  </g>
  <g fill="#7FB0F5"><circle cx="230" cy="110" r="2.4"/></g>
</svg>
