<svg id="Layer_1" data-name="Layer 1" xmlns="http://www.w3.org/2000/svg" viewBox="0 0 511 511"><defs><style>.cls-1{fill:#fff;}.cls-2{fill:#1971bd;}</style></defs><title>marketplace_512x512</title><path class="cls-1" d="M241.67,9.09,62,95.6a31.18,31.18,0,0,0-16.87,21.15L.78,311.14a31.19,31.19,0,0,0,6,26.37L131.13,493.4a31.14,31.14,0,0,0,24.36,11.73H354.9a31.14,31.14,0,0,0,24.36-11.73L503.59,337.51a31.19,31.19,0,0,0,6-26.37L465.24,116.75A31.18,31.18,0,0,0,448.37,95.6L268.72,9.09A31.14,31.14,0,0,0,241.67,9.09Z"/><path class="cls-2" d="M124.52,77.84C138,82.18,145.79,93.78,143.07,106c-2.08,9.31-4.55,18.52-6.93,27.75-10.77,41.91-21.42,83.86-32.52,125.68-1.65,6.2-.38,9.58,5.73,12.86q75.57,40.59,150.92,81.57c5.91,3.21,9.84,2.85,14.06-2.19,10.82-12.92,22.26-25.35,33.55-37.89q43.69-48.56,87.5-97c13.45-14.85,31.19-23.66,52.34-18.91a235,235,0,0,1,33.46,10.58L461,120a30.49,30.49,0,0,0-16.51-20.7L268.56,14.55a30.51,30.51,0,0,0-26.48,0L112,77.21A24.36,24.36,0,0,1,124.52,77.84ZM224.29,277.7l-9.48,10.8a2.55,2.55,0,0,1-2.05.87l-14.36-.68a2.52,2.52,0,0,1-2-1.05L188,276a2.58,2.58,0,0,1-.39-2.19L191.48,260a2.58,2.58,0,0,1,1.47-1.67l13.23-5.62a2.55,2.55,0,0,1,2.22.11L221,259.6a2.57,2.57,0,0,1,1.31,1.81l2.53,14.14A2.58,2.58,0,0,1,224.29,277.7Zm.14-60L215,228.47a2.62,2.62,0,0,1-2,.87l-14.36-.68a2.5,2.5,0,0,1-1.95-1.06L188.16,216a2.58,2.58,0,0,1-.39-2.19l3.85-13.85a2.58,2.58,0,0,1,1.47-1.67l13.23-5.62a2.55,2.55,0,0,1,2.22.1l12.64,6.84a2.58,2.58,0,0,1,1.31,1.8L225,215.52A2.55,2.55,0,0,1,224.43,217.66Zm50.66,85.65-9.48,10.8a2.54,2.54,0,0,1-2.05.87l-14.35-.67a2.59,2.59,0,0,1-2-1.06l-8.42-11.65a2.55,2.55,0,0,1-.39-2.19l3.85-13.84a2.59,2.59,0,0,1,1.47-1.68L257,278.27a2.6,2.6,0,0,1,2.23.11l12.64,6.84a2.57,2.57,0,0,1,1.3,1.8l2.54,14.14A2.59,2.59,0,0,1,275.09,303.31Zm.5-58-9.48,10.81a2.6,2.6,0,0,1-2.05.87l-14.35-.68a2.53,2.53,0,0,1-2-1.06l-8.42-11.64a2.55,2.55,0,0,1-.4-2.19l3.86-13.85a2.54,2.54,0,0,1,1.46-1.67l13.23-5.62a2.54,2.54,0,0,1,2.22.1l12.64,6.84a2.58,2.58,0,0,1,1.31,1.8l2.54,14.15A2.59,2.59,0,0,1,275.59,245.33ZM175.24,130.41c5.55-10.21,16.72-12.27,30.27-5.25,21.93,11.37,43.76,22.91,65.64,34.37S315,182.36,336.73,194c4.19,2.24,8.58,5,11.49,8.53,6.42,7.69,6,17.89-.06,24.49-6.24,6.83-17.3,8.08-28.1,2.46Q253.62,194.89,187.37,160C173.87,152.82,169.37,141.21,175.24,130.41Zm-16.86,95.3L171,232.55a2.52,2.52,0,0,1,1.3,1.8l2.54,14.15a2.54,2.54,0,0,1-.6,2.14l-9.48,10.8a2.52,2.52,0,0,1-2,.87l-14.36-.67a2.59,2.59,0,0,1-2-1.06L138,248.94a2.56,2.56,0,0,1-.39-2.19l3.85-13.85a2.55,2.55,0,0,1,1.47-1.67l13.23-5.62A2.55,2.55,0,0,1,158.38,225.71Z"/><path class="cls-2" d="M455.44,245.9c-9-3.79-16.83-4.08-23.37,3.42-12.14,13.95-24.65,27.59-37,41.37-31.78,35.45-63.24,71.19-95.48,106.26-15.93,17.33-22.26,17.42-44.91,5.18Q209.33,377.62,164,353.08v0q-48.87-26.43-97.71-52.89c-12.59-6.86-18.32-15.64-17-25.69a119.14,119.14,0,0,1,3-13.58q12-46.65,24.1-93.28c6.52-25.3,12.76-50.7,19.63-75.89a19.54,19.54,0,0,1,6.4-9.93L66.16,99.27A30.49,30.49,0,0,0,49.65,120L6.2,310.33a30.51,30.51,0,0,0,5.89,25.82L133.83,488.81a30.52,30.52,0,0,0,23.86,11.49H353a30.52,30.52,0,0,0,23.86-11.49L498.55,336.15a30.51,30.51,0,0,0,5.89-25.82l-11.36-49.76a28.54,28.54,0,0,1-6.51-1.76C476.16,254.61,465.79,250.28,455.44,245.9ZM128,381.26c-7.64,14.14-24.57,19.37-38.49,11.9-13.62-7.32-19.11-25.27-11.87-38.83A28.32,28.32,0,0,1,116.26,343C130.8,350.86,135.71,366.9,128,381.26ZM212.05,424c-7.63,14.14-24.56,19.38-38.49,11.9-13.61-7.32-19.1-25.26-11.87-38.83a28.33,28.33,0,0,1,38.67-11.29C214.9,393.63,219.8,409.67,212.05,424Z"/><path class="cls-1" d="M447.72,197.84c-21.15-4.75-38.89,4.06-52.34,18.91q-43.87,48.41-87.5,97c-11.29,12.54-22.73,25-33.55,37.89-4.22,5-8.15,5.4-14.06,2.19q-75.39-40.92-150.92-81.57c-6.11-3.28-7.38-6.66-5.73-12.86,11.1-41.82,21.75-83.77,32.52-125.68,2.38-9.23,4.85-18.44,6.93-27.75,2.72-12.2-5.07-23.8-18.55-28.14A24.36,24.36,0,0,0,112,77.21l-9.55,4.59A19.54,19.54,0,0,0,96,91.73c-6.87,25.19-13.11,50.59-19.63,75.89q-12,46.65-24.1,93.28a119.14,119.14,0,0,0-3,13.58c-1.34,10,4.39,18.83,17,25.69q48.78,26.58,97.71,52.89v0q45.34,24.53,90.69,49.05c22.65,12.24,29,12.15,44.91-5.18,32.24-35.07,63.7-70.81,95.48-106.26,12.35-13.78,24.86-27.42,37-41.37,6.54-7.5,14.38-7.21,23.37-3.42,10.35,4.38,20.72,8.71,31.13,12.91a28.54,28.54,0,0,0,6.51,1.76l-11.9-52.15A235,235,0,0,0,447.72,197.84Z"/><path class="cls-1" d="M187.37,160q66.24,35,132.69,69.54c10.8,5.62,21.86,4.37,28.1-2.46,6-6.6,6.48-16.8.06-24.49-2.91-3.49-7.3-6.29-11.49-8.53C315,182.36,293,171,271.15,159.53s-43.71-23-65.64-34.37c-13.55-7-24.72-5-30.27,5.25C169.37,141.21,173.87,152.82,187.37,160Z"/><path class="cls-1" d="M200.36,385.8a28.33,28.33,0,0,0-38.67,11.29c-7.23,13.57-1.74,31.51,11.87,38.83,13.93,7.48,30.86,2.24,38.49-11.9C219.8,409.67,214.9,393.63,200.36,385.8Z"/><path class="cls-1" d="M116.26,343A28.32,28.32,0,0,0,77.6,354.33c-7.24,13.56-1.75,31.51,11.87,38.83,13.92,7.47,30.85,2.24,38.49-11.9C135.71,366.9,130.8,350.86,116.26,343Z"/><path class="cls-1" d="M141.46,232.9l-3.85,13.85a2.56,2.56,0,0,0,.39,2.19l8.42,11.64a2.59,2.59,0,0,0,2,1.06l14.36.67a2.52,2.52,0,0,0,2-.87l9.48-10.8a2.54,2.54,0,0,0,.6-2.14l-2.54-14.15a2.52,2.52,0,0,0-1.3-1.8l-12.64-6.84a2.55,2.55,0,0,0-2.22-.1l-13.23,5.62A2.55,2.55,0,0,0,141.46,232.9Z"/><path class="cls-1" d="M222.35,261.41A2.57,2.57,0,0,0,221,259.6l-12.64-6.83a2.55,2.55,0,0,0-2.22-.11L193,258.28a2.58,2.58,0,0,0-1.47,1.67l-3.85,13.85A2.58,2.58,0,0,0,188,276l8.43,11.65a2.52,2.52,0,0,0,2,1.05l14.36.68a2.55,2.55,0,0,0,2.05-.87l9.48-10.8a2.58,2.58,0,0,0,.59-2.15Z"/><path class="cls-1" d="M222.49,201.37a2.58,2.58,0,0,0-1.31-1.8l-12.64-6.84a2.55,2.55,0,0,0-2.22-.1l-13.23,5.62a2.58,2.58,0,0,0-1.47,1.67l-3.85,13.85a2.58,2.58,0,0,0,.39,2.19l8.43,11.64a2.5,2.5,0,0,0,1.95,1.06l14.36.68a2.62,2.62,0,0,0,2-.87l9.48-10.81a2.55,2.55,0,0,0,.59-2.14Z"/><path class="cls-1" d="M273.15,287a2.57,2.57,0,0,0-1.3-1.8l-12.64-6.84a2.6,2.6,0,0,0-2.23-.11l-13.22,5.62a2.59,2.59,0,0,0-1.47,1.68l-3.85,13.84a2.55,2.55,0,0,0,.39,2.19l8.42,11.65a2.59,2.59,0,0,0,2,1.06l14.35.67a2.54,2.54,0,0,0,2.05-.87l9.48-10.8a2.59,2.59,0,0,0,.6-2.15Z"/><path class="cls-1" d="M273.65,229a2.58,2.58,0,0,0-1.31-1.8L259.7,220.4a2.54,2.54,0,0,0-2.22-.1l-13.23,5.62a2.54,2.54,0,0,0-1.46,1.67l-3.86,13.85a2.55,2.55,0,0,0,.4,2.19l8.42,11.64a2.53,2.53,0,0,0,2,1.06l14.35.68a2.6,2.6,0,0,0,2.05-.87l9.48-10.81a2.59,2.59,0,0,0,.6-2.14Z"/></svg>