<svg id="Layer_1" data-name="Layer 1" xmlns="http://www.w3.org/2000/svg" viewBox="0 0 1279 639"><defs><style>.cls-1{fill:#fff;}.cls-2{fill:#1971bd;}.cls-3{fill:#003466;}</style></defs><title>marketplace_1280x640</title><path class="cls-1" d="M633,131.36l-86.72,41.76a15,15,0,0,0-8.14,10.2L516.7,277.16a15,15,0,0,0,2.9,12.72l60,75.25a15.06,15.06,0,0,0,11.76,5.67h96.26a15.06,15.06,0,0,0,11.76-5.67l60-75.25a15,15,0,0,0,2.9-12.72l-21.41-93.84a15,15,0,0,0-8.14-10.2L646,131.36A15,15,0,0,0,633,131.36Z"/><path class="cls-2" d="M576.42,164.54c6.51,2.1,10.27,7.7,9,13.59-1,4.49-2.2,8.93-3.35,13.39-5.2,20.23-10.34,40.48-15.7,60.66-.79,3-.18,4.63,2.77,6.21Q605.58,278,642,297.77c2.85,1.55,4.75,1.37,6.79-1.06,5.22-6.23,10.74-12.24,16.19-18.29Q686,255,707.17,231.59c6.49-7.17,15.05-11.41,25.26-9.12a113.55,113.55,0,0,1,16.15,5.1l-9.74-42.69a14.72,14.72,0,0,0-8-10L646,134a14.76,14.76,0,0,0-12.78,0l-62.8,30.25A11.69,11.69,0,0,1,576.42,164.54ZM624.58,261,620,266.23a1.25,1.25,0,0,1-1,.42l-6.93-.33a1.23,1.23,0,0,1-1-.51l-4.06-5.62a1.25,1.25,0,0,1-.19-1.06l1.86-6.68a1.25,1.25,0,0,1,.71-.81l6.38-2.71a1.22,1.22,0,0,1,1.07,0l6.11,3.3a1.21,1.21,0,0,1,.62.87l1.23,6.83A1.21,1.21,0,0,1,624.58,261Zm.07-29-4.58,5.21a1.24,1.24,0,0,1-1,.42l-6.92-.33a1.2,1.2,0,0,1-.95-.51l-4.07-5.62a1.19,1.19,0,0,1-.18-1.05l1.85-6.69a1.3,1.3,0,0,1,.71-.81l6.39-2.71A1.22,1.22,0,0,1,617,220l6.1,3.3a1.23,1.23,0,0,1,.63.87l1.23,6.83A1.27,1.27,0,0,1,624.65,232Zm24.45,41.34-4.57,5.21a1.24,1.24,0,0,1-1,.42l-6.93-.33a1.19,1.19,0,0,1-.94-.51l-4.07-5.62a1.23,1.23,0,0,1-.19-1.05l1.86-6.69A1.25,1.25,0,0,1,634,264l6.38-2.71a1.24,1.24,0,0,1,1.08,0l6.1,3.3a1.25,1.25,0,0,1,.63.87l1.22,6.83A1.24,1.24,0,0,1,649.1,273.38Zm.24-28-4.57,5.22a1.27,1.27,0,0,1-1,.42l-6.93-.33a1.21,1.21,0,0,1-.94-.51l-4.07-5.62a1.25,1.25,0,0,1-.19-1.06l1.86-6.68a1.25,1.25,0,0,1,.71-.81l6.38-2.71a1.24,1.24,0,0,1,1.08.05l6.1,3.3a1.25,1.25,0,0,1,.63.87l1.22,6.83A1.21,1.21,0,0,1,649.34,245.39Zm-48.43-55.47c2.68-4.93,8.07-5.92,14.61-2.53,10.58,5.48,21.12,11.05,31.68,16.58s21.14,11,31.66,16.65a18.64,18.64,0,0,1,5.54,4.12,8.88,8.88,0,0,1,0,11.82c-3,3.29-8.36,3.9-13.57,1.18q-32.07-16.69-64-33.56C600.24,200.74,598.07,195.13,600.91,189.92Zm-8.14,46,6.1,3.3a1.25,1.25,0,0,1,.63.87l1.22,6.83a1.24,1.24,0,0,1-.28,1l-4.58,5.22a1.24,1.24,0,0,1-1,.42l-6.93-.33a1.23,1.23,0,0,1-.94-.51l-4.07-5.62a1.24,1.24,0,0,1-.19-1.06l1.86-6.68a1.25,1.25,0,0,1,.71-.81l6.38-2.71A1.24,1.24,0,0,1,592.77,235.92Z"/><path class="cls-2" d="M736.16,245.67c-4.34-1.84-8.13-2-11.28,1.65-5.86,6.73-11.9,13.31-17.86,20-15.34,17.12-30.53,34.37-46.09,51.3-7.69,8.36-10.75,8.4-21.68,2.5L595.47,297.4h0q-23.58-12.76-47.16-25.53c-6.08-3.31-8.85-7.55-8.2-12.4a56.24,56.24,0,0,1,1.44-6.55q5.79-22.53,11.63-45c3.15-12.21,6.16-24.47,9.48-36.63a9.4,9.4,0,0,1,3.09-4.79l-17.51,8.43a14.72,14.72,0,0,0-8,10l-21,91.89a14.71,14.71,0,0,0,2.85,12.46l58.76,73.69a14.73,14.73,0,0,0,11.52,5.54h94.24a14.73,14.73,0,0,0,11.52-5.54L757,289.23a14.74,14.74,0,0,0,2.84-12.46l-5.48-24a13.72,13.72,0,0,1-3.14-.85C746.16,249.87,741.15,247.78,736.16,245.67ZM578.08,311a13.63,13.63,0,0,1-18.58,5.74A14.16,14.16,0,0,1,553.77,298a13.69,13.69,0,0,1,18.67-5.45C579.46,296.33,581.82,304.07,578.08,311Zm40.59,20.64a13.62,13.62,0,0,1-18.57,5.75,14.16,14.16,0,0,1-5.73-18.75A13.67,13.67,0,0,1,613,313.2C620.05,317,622.42,324.71,618.67,331.64Z"/><path class="cls-1" d="M732.43,222.47c-10.21-2.29-18.77,1.95-25.26,9.12Q686,255,664.93,278.42c-5.45,6.05-11,12.06-16.19,18.29-2,2.43-3.94,2.61-6.79,1.06Q605.56,278,569.1,258.39c-3-1.58-3.56-3.21-2.77-6.21,5.36-20.18,10.5-40.43,15.7-60.66,1.15-4.46,2.34-8.9,3.35-13.39,1.31-5.89-2.45-11.49-9-13.59a11.69,11.69,0,0,0-6-.3l-4.61,2.22a9.4,9.4,0,0,0-3.09,4.79c-3.32,12.16-6.33,24.42-9.48,36.63q-5.81,22.51-11.63,45a56.24,56.24,0,0,0-1.44,6.55c-.65,4.85,2.12,9.09,8.2,12.4q23.55,12.83,47.16,25.53h0l43.78,23.68c10.93,5.9,14,5.86,21.68-2.5,15.56-16.93,30.75-34.18,46.09-51.3,6-6.65,12-13.23,17.86-20,3.15-3.62,6.94-3.49,11.28-1.65,5,2.11,10,4.2,15,6.23a13.72,13.72,0,0,0,3.14.85l-5.75-25.18A113.55,113.55,0,0,0,732.43,222.47Z"/><path class="cls-1" d="M606.76,204.18q32,16.88,64,33.56c5.21,2.72,10.55,2.11,13.57-1.18a8.88,8.88,0,0,0,0-11.82,18.64,18.64,0,0,0-5.54-4.12C668.34,215,657.76,209.51,647.2,204s-21.1-11.1-31.68-16.58c-6.54-3.39-11.93-2.4-14.61,2.53C598.07,195.13,600.24,200.74,606.76,204.18Z"/><path class="cls-1" d="M613,313.2a13.67,13.67,0,0,0-18.66,5.44,14.16,14.16,0,0,0,5.73,18.75,13.62,13.62,0,0,0,18.57-5.75C622.42,324.71,620.05,317,613,313.2Z"/><path class="cls-1" d="M572.44,292.55A13.69,13.69,0,0,0,553.77,298a14.16,14.16,0,0,0,5.73,18.74A13.63,13.63,0,0,0,578.08,311C581.82,304.07,579.46,296.33,572.44,292.55Z"/><path class="cls-1" d="M584.6,239.39l-1.86,6.68a1.24,1.24,0,0,0,.19,1.06l4.07,5.62a1.23,1.23,0,0,0,.94.51l6.93.33a1.24,1.24,0,0,0,1-.42l4.58-5.22a1.24,1.24,0,0,0,.28-1l-1.22-6.83a1.25,1.25,0,0,0-.63-.87l-6.1-3.3a1.24,1.24,0,0,0-1.08,0l-6.38,2.71A1.25,1.25,0,0,0,584.6,239.39Z"/><path class="cls-1" d="M623.64,253.15a1.21,1.21,0,0,0-.62-.87l-6.11-3.3a1.22,1.22,0,0,0-1.07,0l-6.38,2.71a1.25,1.25,0,0,0-.71.81l-1.86,6.68a1.25,1.25,0,0,0,.19,1.06l4.06,5.62a1.23,1.23,0,0,0,1,.51l6.93.33a1.25,1.25,0,0,0,1-.42l4.57-5.22a1.21,1.21,0,0,0,.29-1Z"/><path class="cls-1" d="M623.71,224.17a1.23,1.23,0,0,0-.63-.87L617,220a1.22,1.22,0,0,0-1.07-.05l-6.39,2.71a1.3,1.3,0,0,0-.71.81L607,230.16a1.19,1.19,0,0,0,.18,1.05l4.07,5.62a1.2,1.2,0,0,0,.95.51l6.92.33a1.24,1.24,0,0,0,1-.42l4.58-5.21a1.27,1.27,0,0,0,.29-1Z"/><path class="cls-1" d="M648.17,265.51a1.25,1.25,0,0,0-.63-.87l-6.1-3.3a1.24,1.24,0,0,0-1.08,0L634,264a1.25,1.25,0,0,0-.71.81l-1.86,6.69a1.23,1.23,0,0,0,.19,1.05l4.07,5.62a1.19,1.19,0,0,0,.94.51l6.93.33a1.24,1.24,0,0,0,1-.42l4.57-5.21a1.24,1.24,0,0,0,.29-1Z"/><path class="cls-1" d="M648.41,237.53a1.25,1.25,0,0,0-.63-.87l-6.1-3.3a1.24,1.24,0,0,0-1.08-.05L634.22,236a1.25,1.25,0,0,0-.71.81l-1.86,6.68a1.25,1.25,0,0,0,.19,1.06l4.07,5.62a1.21,1.21,0,0,0,.94.51l6.93.33a1.27,1.27,0,0,0,1-.42l4.57-5.22a1.21,1.21,0,0,0,.29-1Z"/><path class="cls-3" d="M396.05,403.88v78.19a2.71,2.71,0,0,1-3,3H380a2.71,2.71,0,0,1-3-3V433.46L362,469.68a3.36,3.36,0,0,1-3.44,2.28h-8.08a3.36,3.36,0,0,1-3.44-2.28l-15.08-36.22v48.61a2.71,2.71,0,0,1-3,3H315.88a2.71,2.71,0,0,1-3-3V403.88a2.7,2.7,0,0,1,3-3H331.8a3.36,3.36,0,0,1,3.44,2.28l19.24,46.31,19.24-46.31a3.37,3.37,0,0,1,3.45-2.28h15.91A2.71,2.71,0,0,1,396.05,403.88Z"/><path class="cls-3" d="M459,447.19v34.88a2.71,2.71,0,0,1-3,3H444.6a2.71,2.71,0,0,1-3-3v-1.72c-3.18,3.78-7.86,6.41-15.32,6.41-10.45,0-19.6-6.25-19.6-18.76s9.15-18.77,19.6-18.77c7.46,0,12.14,2.13,15.32,4.59v-5.43c0-5.9-2.37-8.54-7.36-8.54-3.68,0-5.94,1.44-6.89,3.49-.71,1.68-1.31,2.64-3.09,2.64H412.65a2.69,2.69,0,0,1-3-3.12c1.54-13,12.46-19.61,24.58-19.61C447.33,423.25,459,431,459,447.19ZM441.63,468c0-3.73-3.21-6-9-6-5.46,0-8.07,2.53-8.07,6s2.61,6,8.07,6C438.42,474,441.63,471.48,441.63,468Z"/><path class="cls-3" d="M503.73,426.86v14.19c0,1.93-.83,2.89-2.38,2.89-6.65-.24-13.06,3.13-13.06,12.75v25.38a2.71,2.71,0,0,1-3,3H473.44a2.7,2.7,0,0,1-3-3V427.94a2.71,2.71,0,0,1,3-3h11.88a2.71,2.71,0,0,1,3,3v6.5c1.77-6,6.45-9.57,12.35-10.47C502.66,423.61,503.73,424.93,503.73,426.86Z"/><path class="cls-3" d="M562.86,485.08H549.32a3.91,3.91,0,0,1-3.56-1.93L529.25,458.7v23.37a2.71,2.71,0,0,1-3,3H514.41a2.71,2.71,0,0,1-3-3V403.88a2.71,2.71,0,0,1,3-3h11.87a2.71,2.71,0,0,1,3,3v47.19l15.32-24.21a3.93,3.93,0,0,1,3.57-1.93h13.65c2.38,0,3.21,1.57,1.9,3.61L546.24,455l18.4,26.46C566.07,483.51,565.24,485.08,562.86,485.08Z"/><path class="cls-3" d="M629.59,455c0,1.56-.12,3-.24,4.45a2.88,2.88,0,0,1-3.2,2.76H586.49c2.16,7.15,7.7,10,13.89,10a14.17,14.17,0,0,0,8.79-3,5.38,5.38,0,0,1,3.68-1.57l11.4-.12c2.14,0,3.32,1.45,2.37,3.37-4.63,10.47-14.37,15.88-26.48,15.88-19.72,0-32.31-13.83-32.31-31.75s13.07-31.76,31.83-31.76C617,423.25,629.59,436.84,629.59,455Zm-17.73-6.5c-1.84-6.84-7.08-9.26-12.32-9.26-6.67,0-11.29,3.26-13.13,9.26Z"/><path class="cls-3" d="M670.91,427.94v11.31a2.71,2.71,0,0,1-3,3H661.4v39.81a2.71,2.71,0,0,1-3,3H646.56a2.71,2.71,0,0,1-3-3V442.26h-6.53a2.71,2.71,0,0,1-3-3V427.94a2.71,2.71,0,0,1,3-3h6.53V408.69a2.71,2.71,0,0,1,3-3h11.88a2.7,2.7,0,0,1,3,3v16.24h6.54A2.71,2.71,0,0,1,670.91,427.94Z"/><path class="cls-3" d="M713.85,423.65c17.06,0,30.88,13.63,30.88,31.36s-13.82,31.35-30.88,31.35a29.14,29.14,0,0,1-27.08-17.46v39a1.09,1.09,0,0,1-1.19,1.2h-1.82a1.09,1.09,0,0,1-1.19-1.2V426.14a1.1,1.1,0,0,1,1.19-1.21h1.82a1.1,1.1,0,0,1,1.19,1.21v15a29.14,29.14,0,0,1,27.08-17.46ZM740.53,455c0-15.36-11.8-27.35-26.88-27.35s-26.88,12-26.88,27.35,11.8,27.34,26.88,27.34S740.53,470.36,740.53,455Z"/><path class="cls-3" d="M760.11,483.87v-84.2a1.09,1.09,0,0,1,1.19-1.2h1.82a1.09,1.09,0,0,1,1.19,1.2v84.2a1.09,1.09,0,0,1-1.19,1.21H761.3A1.09,1.09,0,0,1,760.11,483.87Z"/><path class="cls-3" d="M803.89,423.65c12,0,21.38,7.58,21.38,21.53v38.69a1.09,1.09,0,0,1-1.19,1.2h-1.82a1.09,1.09,0,0,1-1.19-1.2v-6.66c-3.6,6.59-11.13,9.15-19.68,9.15-11.24,0-21.26-6.38-21.26-18.56s10-18.57,21.26-18.57c8.64,0,16,3.07,19.68,9.07V445.18c0-11.63-7.6-17.52-17.18-17.52-9.27,0-16.47,5-17.11,13.95a1.19,1.19,0,0,1-1.22,1.17h-1.82a1.09,1.09,0,0,1-1.19-1.25c.67-10.54,9.06-17.88,21.34-17.88ZM802,482.43c10.29,0,19-4.33,19-14.63,0-10.47-9.15-14.64-19-14.64-11.13,0-17.7,5.93-17.7,14.64s6.57,14.63,17.7,14.63Z"/><path class="cls-3" d="M897.3,468.81c-3.91,10.53-14.52,17.55-27.24,17.55C852.29,486.36,839,472.73,839,455s13.3-31.36,31.07-31.36c12.72,0,23.29,7,27.24,17.54.34.84-.11,1.39-1,1.39h-1.91a1.42,1.42,0,0,1-1.4-.92c-3.59-8.45-12.33-14-23-14-15.4,0-26.88,12-26.88,27.35s11.48,27.34,26.88,27.34c10.6,0,19.35-5.59,23-14a1.42,1.42,0,0,1,1.41-.91h1.91C897.19,467.44,897.64,468,897.3,468.81Z"/><path class="cls-3" d="M966.08,455.24v.89a1.1,1.1,0,0,1-1.22,1.16h-53c1,15.06,11.53,25.06,25.86,25.06,10.12,0,18.07-4.91,21.3-12.23a1.48,1.48,0,0,1,1.4-.88h2.11c.89,0,1.35.47,1.06,1.19-3.76,9.56-13.56,15.93-25.91,15.93-17.77,0-30.09-13.19-30.09-31.35,0-17.69,11.92-31.36,29.77-31.36C955.4,423.65,966.08,438.77,966.08,455.24Zm-54.23-2h50.06c-1-15.86-11.46-25.62-24.53-25.62C922.89,427.66,912.58,438.23,911.85,453.28Z"/></svg>