<svg id="Layer_1" data-name="Layer 1" xmlns="http://www.w3.org/2000/svg" viewBox="0 0 1279 639"><defs><style>.cls-1{fill:#fff;}.cls-2{fill:#1971bd;}.cls-3{fill:#003466;}</style></defs><title>marketplace_1280x640</title><path class="cls-1" d="M629.87,56.8,511.93,113.6a20.47,20.47,0,0,0-11.07,13.88L471.74,255.09a20.42,20.42,0,0,0,3.95,17.31L557.3,374.74a20.45,20.45,0,0,0,16,7.7H704.2a20.45,20.45,0,0,0,16-7.7L801.81,272.4a20.42,20.42,0,0,0,4-17.31L776.64,127.48a20.47,20.47,0,0,0-11.07-13.88L647.63,56.8A20.48,20.48,0,0,0,629.87,56.8Z"/><path class="cls-2" d="M553,101.94c8.85,2.84,14,10.46,12.17,18.47-1.36,6.11-3,12.15-4.54,18.21-7.08,27.52-14.07,55.06-21.36,82.51-1.08,4.07-.24,6.29,3.77,8.44q49.61,26.66,99.07,53.55c3.88,2.11,6.46,1.87,9.23-1.44,7.1-8.48,14.61-16.64,22-24.87q28.68-31.87,57.44-63.69c8.83-9.75,20.47-15.52,34.36-12.41a153.5,153.5,0,0,1,22,6.95L773.85,129.6A20.06,20.06,0,0,0,763,116L647.53,60.39a20,20,0,0,0-17.39,0l-85.41,41.13A16,16,0,0,1,553,101.94Zm65.49,131.2-6.22,7.09a1.71,1.71,0,0,1-1.35.57l-9.42-.44a1.7,1.7,0,0,1-1.29-.7L594.65,232a1.68,1.68,0,0,1-.25-1.44l2.53-9.09a1.67,1.67,0,0,1,1-1.1l8.68-3.69a1.7,1.7,0,0,1,1.46.07l8.3,4.49a1.68,1.68,0,0,1,.86,1.18l1.66,9.29A1.69,1.69,0,0,1,618.46,233.14Zm.09-39.41-6.22,7.09a1.71,1.71,0,0,1-1.34.57l-9.43-.44a1.68,1.68,0,0,1-1.28-.7l-5.53-7.64a1.69,1.69,0,0,1-.26-1.44l2.53-9.09a1.7,1.7,0,0,1,1-1.1l8.68-3.69a1.7,1.7,0,0,1,1.46.07l8.3,4.49a1.68,1.68,0,0,1,.86,1.18l1.66,9.29A1.69,1.69,0,0,1,618.55,193.73ZM651.81,250,645.59,257a1.65,1.65,0,0,1-1.35.57l-9.42-.44a1.68,1.68,0,0,1-1.28-.7L628,248.83a1.68,1.68,0,0,1-.26-1.44l2.53-9.09a1.67,1.67,0,0,1,1-1.1l8.68-3.69a1.7,1.7,0,0,1,1.46.07l8.3,4.49a1.7,1.7,0,0,1,.86,1.18l1.66,9.29A1.68,1.68,0,0,1,651.81,250Zm.33-38.06L645.92,219a1.66,1.66,0,0,1-1.35.57l-9.42-.44a1.69,1.69,0,0,1-1.29-.69l-5.53-7.65a1.71,1.71,0,0,1-.26-1.44l2.53-9.09a1.7,1.7,0,0,1,1-1.09l8.68-3.69a1.67,1.67,0,0,1,1.46.07L650,200a1.69,1.69,0,0,1,.85,1.19l1.67,9.28A1.67,1.67,0,0,1,652.14,211.89Zm-65.88-75.44c3.65-6.71,11-8.06,19.88-3.45,14.39,7.46,28.72,15,43.08,22.56s28.76,15,43,22.64a25.62,25.62,0,0,1,7.55,5.6,12.06,12.06,0,0,1,0,16.07c-4.1,4.49-11.36,5.31-18.45,1.62q-43.61-22.71-87.1-45.65C585.36,151.16,582.41,143.54,586.26,136.45ZM575.19,199l8.3,4.49a1.68,1.68,0,0,1,.86,1.18L586,214a1.66,1.66,0,0,1-.39,1.4l-6.22,7.1a1.71,1.71,0,0,1-1.35.57l-9.42-.45a1.67,1.67,0,0,1-1.28-.69l-5.53-7.64a1.69,1.69,0,0,1-.26-1.44l2.53-9.09a1.65,1.65,0,0,1,1-1.1l8.68-3.69A1.7,1.7,0,0,1,575.19,199Z"/><path class="cls-2" d="M770.2,212.27c-5.9-2.5-11-2.69-15.34,2.24-8,9.15-16.18,18.11-24.29,27.15-20.86,23.28-41.51,46.74-62.67,69.76-10.46,11.38-14.62,11.44-29.49,3.4q-29.77-16.08-59.53-32.2h0q-32.07-17.36-64.14-34.72c-8.26-4.5-12-10.27-11.15-16.86a77.51,77.51,0,0,1,2-8.92q7.87-30.63,15.82-61.24c4.28-16.61,8.38-33.28,12.88-49.82a12.9,12.9,0,0,1,4.21-6.51L514.65,116a20.06,20.06,0,0,0-10.84,13.6l-28.52,125a20,20,0,0,0,3.87,16.95l79.92,100.22a20.05,20.05,0,0,0,15.66,7.54H702.92a20.07,20.07,0,0,0,15.67-7.54L798.5,271.51a20,20,0,0,0,3.87-16.95l-7.45-32.66a18.72,18.72,0,0,1-4.28-1.17C783.81,218,777,215.14,770.2,212.27Zm-215,88.85A18.53,18.53,0,0,1,530,308.93a19.25,19.25,0,0,1-7.8-25.49A18.6,18.6,0,0,1,547.55,276C557.09,281.17,560.31,291.7,555.22,301.12Zm55.21,28.08a18.55,18.55,0,0,1-25.27,7.8,19.25,19.25,0,0,1-7.79-25.49,18.59,18.59,0,0,1,25.38-7.4C612.29,309.24,615.52,319.77,610.43,329.2Z"/><path class="cls-1" d="M765.14,180.71c-13.89-3.11-25.53,2.66-34.36,12.41q-28.8,31.78-57.44,63.69c-7.42,8.23-14.93,16.39-22,24.87-2.77,3.31-5.35,3.55-9.23,1.44Q592.6,256.26,543,229.57c-4-2.15-4.85-4.37-3.77-8.44,7.29-27.45,14.28-55,21.36-82.51,1.55-6.06,3.18-12.1,4.54-18.21,1.79-8-3.32-15.63-12.17-18.47a16,16,0,0,0-8.24-.42l-6.27,3a12.9,12.9,0,0,0-4.21,6.51c-4.5,16.54-8.6,33.21-12.88,49.82q-7.9,30.63-15.82,61.24a77.51,77.51,0,0,0-2,8.92c-.88,6.59,2.89,12.36,11.15,16.86q32,17.44,64.14,34.72h0q29.76,16.11,59.53,32.2c14.87,8,19,8,29.49-3.4,21.16-23,41.81-46.48,62.67-69.76,8.11-9,16.32-18,24.29-27.15,4.3-4.93,9.44-4.74,15.34-2.24,6.8,2.87,13.61,5.71,20.44,8.46a18.72,18.72,0,0,0,4.28,1.17l-7.82-34.24A153.5,153.5,0,0,0,765.14,180.71Z"/><path class="cls-1" d="M594.23,155.84q43.49,22.95,87.1,45.65c7.09,3.69,14.35,2.87,18.45-1.62a12.06,12.06,0,0,0,0-16.07,25.62,25.62,0,0,0-7.55-5.6c-14.29-7.65-28.69-15.11-43-22.64s-28.69-15.1-43.08-22.56c-8.9-4.61-16.23-3.26-19.88,3.45C582.41,143.54,585.36,151.16,594.23,155.84Z"/><path class="cls-1" d="M602.75,304.11a18.59,18.59,0,0,0-25.38,7.4A19.25,19.25,0,0,0,585.16,337a18.55,18.55,0,0,0,25.27-7.8C615.52,319.77,612.29,309.24,602.75,304.11Z"/><path class="cls-1" d="M547.55,276a18.6,18.6,0,0,0-25.39,7.41,19.25,19.25,0,0,0,7.8,25.49,18.53,18.53,0,0,0,25.26-7.81C560.31,291.7,557.09,281.17,547.55,276Z"/><path class="cls-1" d="M564.09,203.73l-2.53,9.09a1.69,1.69,0,0,0,.26,1.44l5.53,7.64a1.67,1.67,0,0,0,1.28.69l9.42.45a1.71,1.71,0,0,0,1.35-.57l6.22-7.1A1.66,1.66,0,0,0,586,214l-1.66-9.29a1.68,1.68,0,0,0-.86-1.18l-8.3-4.49a1.7,1.7,0,0,0-1.46-.07l-8.68,3.69A1.65,1.65,0,0,0,564.09,203.73Z"/><path class="cls-1" d="M617.19,222.44a1.68,1.68,0,0,0-.86-1.18l-8.3-4.49a1.7,1.7,0,0,0-1.46-.07l-8.68,3.69a1.67,1.67,0,0,0-1,1.1l-2.53,9.09a1.68,1.68,0,0,0,.25,1.44l5.53,7.64a1.7,1.7,0,0,0,1.29.7l9.42.44a1.71,1.71,0,0,0,1.35-.57l6.22-7.09a1.69,1.69,0,0,0,.39-1.41Z"/><path class="cls-1" d="M617.28,183a1.68,1.68,0,0,0-.86-1.18l-8.3-4.49a1.7,1.7,0,0,0-1.46-.07L598,181a1.7,1.7,0,0,0-1,1.1l-2.53,9.09a1.69,1.69,0,0,0,.26,1.44l5.53,7.64a1.68,1.68,0,0,0,1.28.7l9.43.44a1.71,1.71,0,0,0,1.34-.57l6.22-7.09a1.69,1.69,0,0,0,.39-1.41Z"/><path class="cls-1" d="M650.54,239.25a1.7,1.7,0,0,0-.86-1.18l-8.3-4.49a1.7,1.7,0,0,0-1.46-.07l-8.68,3.69a1.67,1.67,0,0,0-1,1.1l-2.53,9.09a1.68,1.68,0,0,0,.26,1.44l5.53,7.64a1.68,1.68,0,0,0,1.28.7l9.42.44a1.65,1.65,0,0,0,1.35-.57l6.22-7.09a1.68,1.68,0,0,0,.39-1.41Z"/><path class="cls-1" d="M650.86,201.2A1.69,1.69,0,0,0,650,200l-8.3-4.48a1.67,1.67,0,0,0-1.46-.07l-8.68,3.69a1.7,1.7,0,0,0-1,1.09l-2.53,9.09a1.71,1.71,0,0,0,.26,1.44l5.53,7.65a1.69,1.69,0,0,0,1.29.69l9.42.44a1.66,1.66,0,0,0,1.35-.57l6.22-7.09a1.67,1.67,0,0,0,.39-1.41Z"/><path class="cls-3" d="M274.25,426.64V543.71c0,2.88-1.6,4.5-4.45,4.5H250.25c-2.85,0-4.45-1.62-4.45-4.5V470.92l-22.58,54.24a5,5,0,0,1-5.16,3.42H206a5,5,0,0,1-5.16-3.42l-22.58-54.24v72.79c0,2.88-1.6,4.5-4.45,4.5H154.22c-2.84,0-4.44-1.62-4.44-4.5V426.64c0-2.88,1.6-4.5,4.44-4.5h23.83a5,5,0,0,1,5.16,3.42L212,494.9l28.81-69.34a5,5,0,0,1,5.16-3.42H269.8C272.65,422.14,274.25,423.76,274.25,426.64Z"/><path class="cls-3" d="M368.46,491.48v52.23c0,2.88-1.6,4.5-4.45,4.5H346.94c-2.84,0-4.44-1.62-4.44-4.5v-2.58c-4.77,5.66-11.77,9.6-22.94,9.6-15.65,0-29.34-9.37-29.34-28.1s13.69-28.09,29.34-28.09c11.17,0,18.17,3.19,22.94,6.87v-8.13c0-8.83-3.56-12.79-11-12.79-5.51,0-8.89,2.16-10.31,5.22-1.07,2.52-2,4-4.62,4H299.11c-2.85,0-4.62-1.62-4.44-4.69,2.3-19.45,18.66-29.35,36.8-29.35C351,455.64,368.46,467.16,368.46,491.48Zm-26,31.15c0-5.58-4.81-9-13.52-9-8.18,0-12.09,3.78-12.09,9s3.91,9,12.09,9C337.69,531.64,342.5,527.86,342.5,522.63Z"/><path class="cls-3" d="M435.47,461v21.25c0,2.88-1.25,4.32-3.56,4.32-10-.36-19.55,4.69-19.55,19.09v38c0,2.88-1.61,4.5-4.45,4.5H390.13c-2.85,0-4.45-1.62-4.45-4.5v-81c0-2.88,1.6-4.5,4.45-4.5h17.78c2.84,0,4.45,1.62,4.45,4.5v9.73c2.65-9,9.65-14.33,18.49-15.67C433.87,456.18,435.47,458.16,435.47,461Z"/><path class="cls-3" d="M524,548.21H503.73a5.86,5.86,0,0,1-5.33-2.88l-24.72-36.62v35c0,2.88-1.6,4.5-4.44,4.5H451.46c-2.85,0-4.45-1.62-4.45-4.5V426.64c0-2.88,1.6-4.5,4.45-4.5h17.78c2.84,0,4.44,1.62,4.44,4.5v70.65L496.62,461a5.87,5.87,0,0,1,5.34-2.88H522.4c3.56,0,4.81,2.34,2.85,5.4l-26.14,39.62,27.56,39.63C528.8,545.86,527.56,548.21,524,548.21Z"/><path class="cls-3" d="M623.92,503.18c0,2.34-.18,4.51-.36,6.67-.35,2.88-2.13,4.14-4.8,4.14H559.38c3.23,10.7,11.53,15,20.79,15a21.15,21.15,0,0,0,13.16-4.5c1.78-1.45,3.2-2.35,5.51-2.35l17.07-.18c3.21,0,5,2.16,3.56,5.05-6.93,15.67-21.52,23.77-39.65,23.77-29.52,0-48.37-20.71-48.37-47.55s19.56-47.54,47.66-47.54C605.07,455.64,623.92,476,623.92,503.18Zm-26.56-9.72c-2.74-10.25-10.59-13.87-18.43-13.87-10,0-16.91,4.89-19.66,13.87Z"/><path class="cls-3" d="M685.77,462.66v16.93c0,2.88-1.6,4.5-4.44,4.5h-9.78v59.62c0,2.88-1.6,4.5-4.45,4.5H649.32c-2.84,0-4.45-1.62-4.45-4.5V484.09h-9.78c-2.84,0-4.44-1.62-4.44-4.5V462.66c0-2.88,1.6-4.5,4.44-4.5h9.78V433.85c0-2.89,1.61-4.51,4.45-4.51H667.1c2.85,0,4.45,1.62,4.45,4.51v24.31h9.78C684.17,458.16,685.77,459.78,685.77,462.66Z"/><path class="cls-3" d="M750.07,456.24c25.55,0,46.23,20.41,46.23,46.94s-20.68,46.95-46.23,46.95A43.64,43.64,0,0,1,709.52,524v58.43a1.63,1.63,0,0,1-1.77,1.8H705a1.63,1.63,0,0,1-1.78-1.8V460a1.63,1.63,0,0,1,1.78-1.8h2.73a1.63,1.63,0,0,1,1.77,1.8v22.42a43.64,43.64,0,0,1,40.55-26.14ZM790,503.18c0-23-17.67-40.94-40.25-40.94s-40.24,17.95-40.24,40.94,17.66,40.95,40.24,40.95S790,526.18,790,503.18Z"/><path class="cls-3" d="M819.33,546.41V420.34a1.63,1.63,0,0,1,1.78-1.8h2.72a1.63,1.63,0,0,1,1.78,1.8V546.41a1.63,1.63,0,0,1-1.78,1.8h-2.72A1.63,1.63,0,0,1,819.33,546.41Z"/><path class="cls-3" d="M884.88,456.23c17.9,0,32,11.35,32,32.24V546.4a1.63,1.63,0,0,1-1.77,1.8h-2.73a1.64,1.64,0,0,1-1.78-1.8v-10c-5.39,9.87-16.66,13.71-29.46,13.71-16.83,0-31.83-9.55-31.83-27.8s15-27.79,31.83-27.79c12.92,0,24,4.59,29.46,13.57V488.48c0-17.41-11.38-26.24-25.73-26.24-13.87,0-24.65,7.51-25.6,20.89a1.8,1.8,0,0,1-1.84,1.75H854.7a1.63,1.63,0,0,1-1.77-1.87c1-15.79,13.57-26.77,31.94-26.77Zm-2.79,88c15.41,0,28.51-6.49,28.51-21.91,0-15.67-13.69-21.92-28.51-21.92-16.66,0-26.49,8.88-26.49,21.91s9.83,21.91,26.49,21.91Z"/><path class="cls-3" d="M1024.74,523.86c-5.86,15.77-21.74,26.27-40.78,26.27-26.62,0-46.53-20.41-46.53-46.95s19.91-46.94,46.53-46.94c19,0,34.87,10.5,40.78,26.27.5,1.25-.17,2.06-1.44,2.06h-2.86a2.14,2.14,0,0,1-2.11-1.37c-5.36-12.64-18.45-21-34.38-21-23.05,0-40.24,17.95-40.24,40.94S960.9,544.13,984,544.13c15.87,0,29-8.38,34.38-21a2.14,2.14,0,0,1,2.11-1.37h2.86C1024.57,521.79,1025.24,522.6,1024.74,523.86Z"/><path class="cls-3" d="M1127.72,503.54v1.32a1.66,1.66,0,0,1-1.84,1.74h-79.31c1.45,22.55,17.26,37.53,38.71,37.53,15.15,0,27.06-7.36,31.89-18.32a2.22,2.22,0,0,1,2.1-1.32h3.17c1.32,0,2,.71,1.58,1.79-5.63,14.32-20.31,23.85-38.79,23.85-26.61,0-45-19.75-45-46.95,0-26.47,17.84-46.94,44.57-46.94C1111.72,456.24,1127.72,478.87,1127.72,503.54Zm-81.2-2.94h74.94c-1.54-23.74-17.15-38.36-36.71-38.36C1063.05,462.24,1047.62,478.07,1046.52,500.6Z"/></svg>