<svg id="Layer_1" data-name="Layer 1" xmlns="http://www.w3.org/2000/svg" viewBox="0 0 187.82 39"><defs><style>.cls-1{fill:#fff;}.cls-2{fill:#1971bd;}.cls-3{fill:#003466;}</style></defs><title>marketplace</title><path class="cls-1" d="M19,.48,5.06,7.2A2.39,2.39,0,0,0,3.75,8.84L.3,23.94a2.42,2.42,0,0,0,.47,2l9.65,12.11a2.45,2.45,0,0,0,1.9.91H27.8a2.43,2.43,0,0,0,1.89-.91L39.34,26a2.38,2.38,0,0,0,.47-2L36.37,8.84A2.44,2.44,0,0,0,35.06,7.2L21.11.48A2.42,2.42,0,0,0,19,.48Z"/><path class="cls-2" d="M9.91,5.82A1.91,1.91,0,0,1,11.35,8c-.16.72-.35,1.43-.54,2.15-.83,3.26-1.66,6.51-2.52,9.76a.74.74,0,0,0,.44,1q5.87,3.15,11.72,6.33a.74.74,0,0,0,1.09-.17c.84-1,1.73-2,2.61-2.94,2.26-2.51,4.52-5,6.79-7.53A4.11,4.11,0,0,1,35,15.14,19,19,0,0,1,37.6,16L36,9.09a2.35,2.35,0,0,0-1.28-1.6L21.1.91A2.33,2.33,0,0,0,19,.91L8.94,5.77A2,2,0,0,1,9.91,5.82Zm7.75,15.52-.74.84a.24.24,0,0,1-.16.07l-1.11-.06a.18.18,0,0,1-.15-.08l-.66-.9a.25.25,0,0,1,0-.17l.3-1.08a.24.24,0,0,1,.11-.13l1-.43a.2.2,0,0,1,.17,0l1,.53a.23.23,0,0,1,.1.14l.19,1.1A.21.21,0,0,1,17.66,21.34Zm0-4.66-.74.84a.19.19,0,0,1-.16.06l-1.11,0a.18.18,0,0,1-.15-.08l-.66-.9a.26.26,0,0,1,0-.17l.3-1.08a.2.2,0,0,1,.12-.13l1-.44a.23.23,0,0,1,.18,0l1,.53a.21.21,0,0,1,.1.14l.19,1.1A.18.18,0,0,1,17.67,16.68Zm3.93,6.65-.73.84a.19.19,0,0,1-.16.06l-1.12-.05a.19.19,0,0,1-.15-.08l-.65-.9a.18.18,0,0,1,0-.17l.3-1.08a.16.16,0,0,1,.11-.13l1-.44a.2.2,0,0,1,.17,0l1,.53a.21.21,0,0,1,.1.14l.2,1.1A.22.22,0,0,1,21.6,23.33Zm0-4.5-.73.84a.19.19,0,0,1-.16.06l-1.12-.05a.18.18,0,0,1-.15-.08l-.65-.91a.2.2,0,0,1,0-.17l.3-1.07a.2.2,0,0,1,.12-.13l1-.44a.2.2,0,0,1,.17,0l1,.53a.21.21,0,0,1,.1.14l.2,1.1A.22.22,0,0,1,21.64,18.83ZM13.85,9.9c.43-.79,1.3-1,2.35-.4l5.1,2.66q2.55,1.34,5.09,2.68a3.27,3.27,0,0,1,.89.66,1.45,1.45,0,0,1,0,1.91,1.81,1.81,0,0,1-2.19.19q-5.14-2.69-10.3-5.4C13.74,11.64,13.39,10.74,13.85,9.9Zm-1.31,7.4,1,.53a.21.21,0,0,1,.1.14l.2,1.1a.22.22,0,0,1-.05.17l-.73.84a.24.24,0,0,1-.16.07l-1.12-.06a.19.19,0,0,1-.15-.08l-.65-.9a.17.17,0,0,1,0-.17l.3-1.08a.18.18,0,0,1,.11-.13l1-.43A.17.17,0,0,1,12.54,17.3Z"/><path class="cls-2" d="M35.61,18.87a1.42,1.42,0,0,0-1.82.27c-.94,1.08-1.91,2.14-2.87,3.21C28.45,25.1,26,27.88,23.5,30.6,22.27,32,21.78,32,20,31l-7-3.81h0c-2.53-1.37-5.07-2.73-7.59-4.11-1-.53-1.42-1.21-1.32-2A8.89,8.89,0,0,1,4.3,20c.62-2.42,1.25-4.83,1.87-7.25.51-2,1-3.93,1.53-5.89a1.41,1.41,0,0,1,.5-.77L5.38,7.49A2.35,2.35,0,0,0,4.1,9.09L.72,23.87a2.37,2.37,0,0,0,.46,2l9.45,11.85a2.37,2.37,0,0,0,1.86.89H27.65a2.35,2.35,0,0,0,1.85-.89L39,25.88a2.37,2.37,0,0,0,.46-2L38.53,20a1.94,1.94,0,0,1-.51-.14C37.21,19.55,36.41,19.21,35.61,18.87ZM10.18,29.38a2.2,2.2,0,0,1-3,.93,2.28,2.28,0,0,1-.92-3,2.21,2.21,0,0,1,3-.88A2.12,2.12,0,0,1,10.18,29.38Zm6.53,3.32a2.2,2.2,0,0,1-3,.93,2.28,2.28,0,0,1-.92-3,2.21,2.21,0,0,1,3-.88A2.12,2.12,0,0,1,16.71,32.7Z"/><path class="cls-1" d="M35,15.14a4.11,4.11,0,0,0-4.07,1.47c-2.27,2.5-4.53,5-6.79,7.53-.88,1-1.77,1.94-2.61,2.94a.74.74,0,0,1-1.09.17Q14.6,24.07,8.73,20.92a.74.74,0,0,1-.44-1c.86-3.25,1.69-6.5,2.52-9.76.19-.72.38-1.43.54-2.15A1.91,1.91,0,0,0,9.91,5.82a2,2,0,0,0-1-.05l-.74.36a1.41,1.41,0,0,0-.5.77c-.54,2-1,3.93-1.53,5.89C5.55,15.21,4.92,17.62,4.3,20a8.89,8.89,0,0,0-.23,1.05c-.1.78.34,1.46,1.32,2,2.52,1.38,5.06,2.74,7.59,4.11h0L20,31c1.76.95,2.25.95,3.48-.4,2.51-2.72,4.95-5.5,7.42-8.25,1-1.07,1.93-2.13,2.87-3.21a1.42,1.42,0,0,1,1.82-.27c.8.34,1.6.68,2.41,1a1.94,1.94,0,0,0,.51.14L37.6,16A19,19,0,0,0,35,15.14Z"/><path class="cls-1" d="M14.79,12.2q5.15,2.72,10.3,5.4a1.81,1.81,0,0,0,2.19-.19,1.45,1.45,0,0,0,0-1.91,3.27,3.27,0,0,0-.89-.66q-2.54-1.35-5.09-2.68L16.2,9.5c-1-.55-1.92-.39-2.35.4S13.74,11.64,14.79,12.2Z"/><path class="cls-1" d="M15.8,29.73a2.21,2.21,0,0,0-3,.88,2.28,2.28,0,0,0,.92,3,2.2,2.2,0,0,0,3-.93A2.12,2.12,0,0,0,15.8,29.73Z"/><path class="cls-1" d="M9.27,26.41a2.21,2.21,0,0,0-3,.88,2.28,2.28,0,0,0,.92,3,2.2,2.2,0,0,0,3-.93A2.12,2.12,0,0,0,9.27,26.41Z"/><path class="cls-1" d="M11.23,17.86l-.3,1.08a.17.17,0,0,0,0,.17l.65.9a.19.19,0,0,0,.15.08l1.12.06a.24.24,0,0,0,.16-.07l.73-.84a.22.22,0,0,0,.05-.17l-.2-1.1a.21.21,0,0,0-.1-.14l-1-.53a.17.17,0,0,0-.17,0l-1,.43A.18.18,0,0,0,11.23,17.86Z"/><path class="cls-1" d="M17.51,20.07a.23.23,0,0,0-.1-.14l-1-.53a.2.2,0,0,0-.17,0l-1,.43a.24.24,0,0,0-.11.13L14.81,21a.25.25,0,0,0,0,.17l.66.9a.18.18,0,0,0,.15.08l1.11.06a.24.24,0,0,0,.16-.07l.74-.84a.21.21,0,0,0,0-.17Z"/><path class="cls-1" d="M17.52,15.41a.21.21,0,0,0-.1-.14l-1-.53a.23.23,0,0,0-.18,0l-1,.44a.2.2,0,0,0-.12.13l-.3,1.08a.26.26,0,0,0,0,.17l.66.9a.18.18,0,0,0,.15.08l1.11,0a.19.19,0,0,0,.16-.06l.74-.84a.18.18,0,0,0,0-.17Z"/><path class="cls-1" d="M21.45,22.06a.21.21,0,0,0-.1-.14l-1-.53a.2.2,0,0,0-.17,0l-1,.44a.16.16,0,0,0-.11.13L18.76,23a.18.18,0,0,0,0,.17l.65.9a.19.19,0,0,0,.15.08l1.12.05a.19.19,0,0,0,.16-.06l.73-.84a.22.22,0,0,0,0-.17Z"/><path class="cls-1" d="M21.49,17.56a.21.21,0,0,0-.1-.14l-1-.53a.2.2,0,0,0-.17,0l-1,.44a.2.2,0,0,0-.12.13l-.3,1.07a.2.2,0,0,0,0,.17l.65.91a.18.18,0,0,0,.15.08l1.12.05a.19.19,0,0,0,.16-.06l.73-.84a.22.22,0,0,0,.05-.17Z"/><path class="cls-3" d="M64.85,10.93V27.66a.58.58,0,0,1-.63.64h-2.8a.58.58,0,0,1-.63-.64V17.26L57.56,25a.73.73,0,0,1-.74.49H55.09a.72.72,0,0,1-.73-.49l-3.23-7.75v10.4a.58.58,0,0,1-.64.64H47.7a.58.58,0,0,1-.64-.64V10.93a.59.59,0,0,1,.64-.65h3.4a.73.73,0,0,1,.74.49L56,20.68l4.11-9.91a.74.74,0,0,1,.74-.49h3.41A.58.58,0,0,1,64.85,10.93Z"/><path class="cls-3" d="M78.32,20.19v7.47a.58.58,0,0,1-.64.64H75.24a.57.57,0,0,1-.63-.64v-.37a4,4,0,0,1-3.28,1.37,3.88,3.88,0,0,1-4.2-4,3.88,3.88,0,0,1,4.2-4,5.19,5.19,0,0,1,3.28,1V20.45c0-1.26-.51-1.83-1.58-1.83a1.47,1.47,0,0,0-1.47.75c-.16.36-.28.57-.66.57H68.4a.58.58,0,0,1-.63-.67c.33-2.78,2.67-4.2,5.26-4.2C75.82,15.07,78.32,16.72,78.32,20.19Zm-3.71,4.46c0-.8-.69-1.29-1.94-1.29S71,23.9,71,24.65s.55,1.28,1.72,1.28S74.61,25.39,74.61,24.65Z"/><path class="cls-3" d="M87.89,15.84v3c0,.41-.18.62-.51.62a2.49,2.49,0,0,0-2.79,2.73v5.43a.58.58,0,0,1-.64.64H81.41a.58.58,0,0,1-.63-.64V16.08a.58.58,0,0,1,.63-.65H84a.58.58,0,0,1,.64.65v1.39a3.09,3.09,0,0,1,2.64-2.24C87.66,15.15,87.89,15.43,87.89,15.84Z"/><path class="cls-3" d="M100.54,28.3H97.65a.83.83,0,0,1-.76-.41l-3.54-5.23v5a.58.58,0,0,1-.63.64H90.18a.58.58,0,0,1-.64-.64V10.93a.59.59,0,0,1,.64-.65h2.54a.58.58,0,0,1,.63.65V21l3.28-5.18a.84.84,0,0,1,.76-.41h2.93c.5,0,.68.34.4.77L97,21.87l3.94,5.66C101.23,28,101.05,28.3,100.54,28.3Z"/><path class="cls-3" d="M114.82,21.87c0,.33,0,.64,0,.95a.61.61,0,0,1-.68.59H105.6a2.88,2.88,0,0,0,3,2.14,3,3,0,0,0,1.88-.65,1.19,1.19,0,0,1,.79-.33l2.44,0c.46,0,.71.31.51.72a5.82,5.82,0,0,1-5.67,3.4,6.56,6.56,0,0,1-6.91-6.79,6.6,6.6,0,0,1,6.81-6.8C112.13,15.07,114.82,18,114.82,21.87ZM111,20.48a2.55,2.55,0,0,0-2.64-2,2.71,2.71,0,0,0-2.81,2Z"/><path class="cls-3" d="M123.66,16.08v2.41a.58.58,0,0,1-.63.65h-1.4v8.52a.58.58,0,0,1-.64.64h-2.54a.58.58,0,0,1-.63-.64V19.14h-1.4a.58.58,0,0,1-.64-.65V16.08a.58.58,0,0,1,.64-.65h1.4V12a.58.58,0,0,1,.63-.65H121a.59.59,0,0,1,.64.65v3.47H123A.58.58,0,0,1,123.66,16.08Z"/><path class="cls-3" d="M132.85,15.16a6.71,6.71,0,0,1,0,13.42,6.23,6.23,0,0,1-5.79-3.74v8.35a.24.24,0,0,1-.26.26h-.39a.23.23,0,0,1-.25-.26V15.69a.23.23,0,0,1,.25-.26h.39a.24.24,0,0,1,.26.26v3.2a6.22,6.22,0,0,1,5.79-3.73Zm5.71,6.71a5.75,5.75,0,1,0-11.5,0,5.75,5.75,0,1,0,11.5,0Z"/><path class="cls-3" d="M142.75,28V10a.23.23,0,0,1,.25-.26h.39a.24.24,0,0,1,.26.26V28a.24.24,0,0,1-.26.26H143A.23.23,0,0,1,142.75,28Z"/><path class="cls-3" d="M152.12,15.16a4.31,4.31,0,0,1,4.57,4.6V28a.23.23,0,0,1-.25.26h-.39a.24.24,0,0,1-.26-.26V26.62c-.77,1.41-2.38,2-4.21,2-2.4,0-4.55-1.37-4.55-4s2.15-4,4.55-4a4.73,4.73,0,0,1,4.21,1.94V19.76A3.46,3.46,0,0,0,152.12,16c-2,0-3.53,1.07-3.66,3,0,.16-.11.25-.27.25h-.39a.23.23,0,0,1-.25-.27c.14-2.25,1.94-3.82,4.57-3.82Zm-.4,12.58c2.2,0,4.07-.93,4.07-3.14s-1.95-3.13-4.07-3.13c-2.38,0-3.79,1.27-3.79,3.13s1.41,3.13,3.79,3.13Z"/><path class="cls-3" d="M172.1,24.82a6,6,0,0,1-5.82,3.76,6.54,6.54,0,0,1-6.65-6.71,6.54,6.54,0,0,1,6.65-6.71,6,6,0,0,1,5.82,3.75c.08.18,0,.3-.2.3h-.41a.31.31,0,0,1-.3-.2,5.16,5.16,0,0,0-4.91-3,5.7,5.7,0,0,0-5.76,5.85,5.7,5.7,0,0,0,5.76,5.85,5.21,5.21,0,0,0,4.91-3,.3.3,0,0,1,.3-.19h.41C172.08,24.53,172.18,24.64,172.1,24.82Z"/><path class="cls-3" d="M186.82,21.92v.19a.24.24,0,0,1-.26.25H175.22a5.41,5.41,0,0,0,5.54,5.36,4.76,4.76,0,0,0,4.55-2.62.33.33,0,0,1,.3-.19h.46c.19,0,.28.1.22.26a5.71,5.71,0,0,1-5.54,3.41c-3.8,0-6.44-2.83-6.44-6.71s2.55-6.71,6.37-6.71S186.82,18.39,186.82,21.92Zm-11.6-.42h10.71c-.22-3.4-2.45-5.48-5.25-5.48A5.39,5.39,0,0,0,175.22,21.5Z"/></svg>