<svg id="Layer_1" data-name="Layer 1" xmlns="http://www.w3.org/2000/svg" viewBox="0 0 216 216"><defs><style>.cls-1{fill:#fff;}.cls-2{fill:#2272b9;}.cls-3{fill:#1b3765;}</style></defs><title>marketplace_3x3</title><path class="cls-1" d="M105.29,18.53,56,42.27a8.54,8.54,0,0,0-4.63,5.8L39.2,101.4a8.57,8.57,0,0,0,1.65,7.24L75,151.41a8.56,8.56,0,0,0,6.69,3.22h54.7a8.56,8.56,0,0,0,6.69-3.22l34.11-42.77a8.57,8.57,0,0,0,1.65-7.24L166.63,48.07a8.54,8.54,0,0,0-4.63-5.8L112.71,18.53A8.54,8.54,0,0,0,105.29,18.53Z"/><path class="cls-2" d="M73.15,37.4c3.7,1.19,5.83,4.37,5.09,7.72-.57,2.55-1.25,5.08-1.9,7.61-3,11.5-5.88,23-8.93,34.48-.45,1.7-.1,2.63,1.58,3.53q20.73,11.13,41.4,22.38c1.62.88,2.7.78,3.86-.6,3-3.54,6.11-7,9.2-10.4q12-13.32,24-26.61c3.69-4.08,8.56-6.49,14.36-5.19a65.5,65.5,0,0,1,9.18,2.9L165.46,49a8.36,8.36,0,0,0-4.53-5.69L112.67,20a8.42,8.42,0,0,0-7.27,0L69.7,37.22A6.68,6.68,0,0,1,73.15,37.4Zm27.37,54.83-2.6,3a.71.71,0,0,1-.56.24l-3.94-.18a.73.73,0,0,1-.54-.29l-2.31-3.2a.74.74,0,0,1-.11-.6l1.06-3.8a.76.76,0,0,1,.4-.46l3.63-1.54a.72.72,0,0,1,.61,0l3.47,1.87a.74.74,0,0,1,.36.5l.69,3.88A.7.7,0,0,1,100.52,92.23Zm0-16.47-2.6,3a.71.71,0,0,1-.56.24l-3.94-.18a.72.72,0,0,1-.54-.29l-2.31-3.2a.68.68,0,0,1-.11-.6l1.06-3.8a.71.71,0,0,1,.4-.46l3.63-1.54a.72.72,0,0,1,.61,0l3.47,1.87a.74.74,0,0,1,.36.5l.69,3.88A.7.7,0,0,1,100.56,75.76Zm13.9,23.5-2.6,3a.71.71,0,0,1-.56.24l-3.94-.19a.69.69,0,0,1-.54-.29l-2.31-3.19a.69.69,0,0,1-.11-.6l1.06-3.8a.68.68,0,0,1,.4-.46l3.63-1.54a.66.66,0,0,1,.61,0l3.47,1.87a.72.72,0,0,1,.36.5l.69,3.88A.7.7,0,0,1,114.46,99.26Zm.14-15.91-2.61,3a.67.67,0,0,1-.56.24l-3.94-.18a.7.7,0,0,1-.53-.29l-2.31-3.2a.68.68,0,0,1-.11-.6l1.06-3.8A.7.7,0,0,1,106,78l3.63-1.54a.73.73,0,0,1,.61,0l3.47,1.88a.68.68,0,0,1,.35.49l.7,3.88A.7.7,0,0,1,114.6,83.35ZM87.06,51.82c1.53-2.8,4.59-3.37,8.31-1.44,6,3.12,12,6.28,18,9.43s12,6.26,18,9.46a10.57,10.57,0,0,1,3.15,2.34,5,5,0,0,1,0,6.72c-1.72,1.87-4.75,2.22-7.71.67q-18.22-9.5-36.41-19.08C86.69,58,85.45,54.78,87.06,51.82ZM82.44,78l3.47,1.87a.7.7,0,0,1,.35.5l.7,3.88a.7.7,0,0,1-.16.59l-2.61,3a.69.69,0,0,1-.56.24l-3.94-.19a.67.67,0,0,1-.53-.29l-2.31-3.19a.69.69,0,0,1-.11-.6l1.06-3.8a.66.66,0,0,1,.4-.46l3.63-1.54A.66.66,0,0,1,82.44,78Z"/><path class="cls-2" d="M163.94,83.51c-2.47-1.05-4.62-1.12-6.41.93-3.33,3.83-6.77,7.57-10.15,11.35-8.72,9.73-17.35,19.54-26.2,29.16-4.37,4.75-6.11,4.78-12.32,1.42Q96.41,119.65,84,112.91h0c-8.94-4.84-17.89-9.65-26.81-14.52-3.45-1.88-5-4.29-4.66-7a31.82,31.82,0,0,1,.82-3.73q3.3-12.8,6.61-25.59c1.79-6.94,3.5-13.91,5.39-20.82a5.36,5.36,0,0,1,1.75-2.73l-9.94,4.79A8.36,8.36,0,0,0,52.61,49L40.68,101.18a8.4,8.4,0,0,0,1.62,7.09l33.4,41.88a8.38,8.38,0,0,0,6.55,3.15h53.57a8.38,8.38,0,0,0,6.55-3.15l33.4-41.88a8.36,8.36,0,0,0,1.61-7.09l-3.11-13.65a7.56,7.56,0,0,1-1.79-.48Q168.19,85.31,163.94,83.51ZM74.09,120.64a7.75,7.75,0,0,1-10.56,3.27,8.05,8.05,0,0,1-3.26-10.66,7.77,7.77,0,0,1,10.61-3.09A7.47,7.47,0,0,1,74.09,120.64Zm23.07,11.74a7.75,7.75,0,0,1-10.56,3.26A8,8,0,0,1,83.35,125,7.76,7.76,0,0,1,94,121.89,7.49,7.49,0,0,1,97.16,132.38Z"/><path class="cls-1" d="M161.82,70.32c-5.8-1.3-10.67,1.11-14.36,5.19q-12,13.27-24,26.61c-3.09,3.44-6.23,6.86-9.2,10.4-1.16,1.38-2.24,1.48-3.86.6Q89.7,101.89,69,90.74c-1.68-.9-2-1.83-1.58-3.53,3-11.47,6-23,8.93-34.48.65-2.53,1.33-5.06,1.9-7.61.74-3.35-1.39-6.53-5.09-7.72a6.68,6.68,0,0,0-3.45-.18l-2.62,1.26a5.36,5.36,0,0,0-1.75,2.73c-1.89,6.91-3.6,13.88-5.39,20.82q-3.3,12.8-6.61,25.59a31.82,31.82,0,0,0-.82,3.73c-.36,2.75,1.21,5.16,4.66,7C66.09,103.26,75,108.07,84,112.91h0q12.43,6.74,24.88,13.46c6.21,3.36,8,3.33,12.32-1.42,8.85-9.62,17.48-19.43,26.2-29.16,3.38-3.78,6.82-7.52,10.15-11.35,1.79-2,3.94-2,6.41-.93q4.26,1.8,8.54,3.54a7.56,7.56,0,0,0,1.79.48L171,73.22A65.5,65.5,0,0,0,161.82,70.32Z"/><path class="cls-1" d="M90.39,59.92Q108.57,69.52,126.8,79c3,1.55,6,1.2,7.71-.67a5,5,0,0,0,0-6.72,10.57,10.57,0,0,0-3.15-2.34c-6-3.2-12-6.32-18-9.46s-12-6.31-18-9.43c-3.72-1.93-6.78-1.36-8.31,1.44C85.45,54.78,86.69,58,90.39,59.92Z"/><path class="cls-1" d="M94,121.89A7.76,7.76,0,0,0,83.35,125a8,8,0,0,0,3.25,10.65,7.75,7.75,0,0,0,10.56-3.26A7.49,7.49,0,0,0,94,121.89Z"/><path class="cls-1" d="M70.88,110.16a7.77,7.77,0,0,0-10.61,3.09,8.05,8.05,0,0,0,3.26,10.66,7.75,7.75,0,0,0,10.56-3.27A7.47,7.47,0,0,0,70.88,110.16Z"/><path class="cls-1" d="M77.8,79.94l-1.06,3.8a.69.69,0,0,0,.11.6l2.31,3.19a.67.67,0,0,0,.53.29l3.94.19a.69.69,0,0,0,.56-.24l2.61-3a.7.7,0,0,0,.16-.59l-.7-3.88a.7.7,0,0,0-.35-.5L82.44,78a.66.66,0,0,0-.61,0L78.2,79.48A.66.66,0,0,0,77.8,79.94Z"/><path class="cls-1" d="M100,87.76a.74.74,0,0,0-.36-.5l-3.47-1.87a.72.72,0,0,0-.61,0L91.92,86.9a.76.76,0,0,0-.4.46l-1.06,3.8a.74.74,0,0,0,.11.6L92.88,95a.73.73,0,0,0,.54.29l3.94.18a.71.71,0,0,0,.56-.24l2.6-3a.7.7,0,0,0,.16-.59Z"/><path class="cls-1" d="M100,71.29a.74.74,0,0,0-.36-.5L96.2,68.92a.72.72,0,0,0-.61,0L92,70.43a.71.71,0,0,0-.4.46l-1.06,3.8a.68.68,0,0,0,.11.6l2.31,3.2a.72.72,0,0,0,.54.29L97.4,79a.71.71,0,0,0,.56-.24l2.6-3a.7.7,0,0,0,.16-.59Z"/><path class="cls-1" d="M113.93,94.79a.72.72,0,0,0-.36-.5l-3.47-1.87a.66.66,0,0,0-.61,0l-3.63,1.54a.68.68,0,0,0-.4.46l-1.06,3.8a.69.69,0,0,0,.11.6l2.31,3.19a.69.69,0,0,0,.54.29l3.94.19a.71.71,0,0,0,.56-.24l2.6-3a.7.7,0,0,0,.16-.59Z"/><path class="cls-1" d="M114.06,78.88a.68.68,0,0,0-.35-.49l-3.47-1.88a.73.73,0,0,0-.61,0L106,78a.7.7,0,0,0-.4.46l-1.06,3.8a.68.68,0,0,0,.11.6l2.31,3.2a.7.7,0,0,0,.53.29l3.94.18a.67.67,0,0,0,.56-.24l2.61-3a.7.7,0,0,0,.16-.59Z"/><path class="cls-3" d="M39.1,168v22.45a.78.78,0,0,1-.85.87H34.5a.78.78,0,0,1-.86-.87V176.46l-4.33,10.4a1,1,0,0,1-1,.65H26a1,1,0,0,1-1-.65l-4.33-10.4v13.95a.78.78,0,0,1-.86.87H16.08a.78.78,0,0,1-.85-.87V168a.78.78,0,0,1,.85-.86h4.57a1,1,0,0,1,1,.66l5.53,13.29,5.52-13.29a1,1,0,0,1,1-.66h4.57A.78.78,0,0,1,39.1,168Z"/><path class="cls-3" d="M57.17,180.4v10a.78.78,0,0,1-.86.87H53a.78.78,0,0,1-.85-.87v-.49a5.39,5.39,0,0,1-4.4,1.84c-3,0-5.63-1.8-5.63-5.39S44.79,181,47.79,181a6.92,6.92,0,0,1,4.4,1.32v-1.56c0-1.69-.68-2.45-2.12-2.45a2,2,0,0,0-2,1c-.21.49-.38.76-.89.76H43.87a.77.77,0,0,1-.85-.9c.44-3.73,3.58-5.63,7-5.63C53.83,173.52,57.17,175.73,57.17,180.4Zm-5,6c0-1.07-.92-1.72-2.59-1.72s-2.32.72-2.32,1.72.75,1.73,2.32,1.73S52.19,187.37,52.19,186.37Z"/><path class="cls-3" d="M70,174.56v4.08c0,.55-.24.82-.68.82a3.35,3.35,0,0,0-3.75,3.67v7.28a.79.79,0,0,1-.86.87H61.32a.78.78,0,0,1-.85-.87V174.87a.78.78,0,0,1,.85-.86h3.41a.78.78,0,0,1,.86.86v1.87a4.15,4.15,0,0,1,3.54-3C69.71,173.63,70,174,70,174.56Z"/><path class="cls-3" d="M87,191.28H83.11a1.11,1.11,0,0,1-1-.56l-4.74-7v6.71a.78.78,0,0,1-.86.87H73.08a.78.78,0,0,1-.85-.87V168a.78.78,0,0,1,.85-.86h3.41a.78.78,0,0,1,.86.86v13.55l4.39-6.95a1.13,1.13,0,0,1,1-.55h3.92c.68,0,.92.45.54,1l-5,7.6,5.29,7.6C87.92,190.83,87.68,191.28,87,191.28Z"/><path class="cls-3" d="M106.16,182.64c0,.45,0,.87-.07,1.28a.83.83,0,0,1-.92.79H93.78a3.86,3.86,0,0,0,4,2.87,4,4,0,0,0,2.52-.86,1.53,1.53,0,0,1,1.06-.45l3.27,0c.61,0,1,.42.68,1-1.33,3-4.12,4.56-7.6,4.56-5.66,0-9.28-4-9.28-9.12a8.86,8.86,0,0,1,9.14-9.12C102.54,173.52,106.16,177.43,106.16,182.64Zm-5.1-1.86a3.41,3.41,0,0,0-3.53-2.66,3.61,3.61,0,0,0-3.77,2.66Z"/><path class="cls-3" d="M118,174.87v3.25a.78.78,0,0,1-.86.86h-1.87v11.43a.78.78,0,0,1-.85.87H111a.78.78,0,0,1-.86-.87V179H108.3a.77.77,0,0,1-.85-.86v-3.25a.77.77,0,0,1,.85-.86h1.87v-4.66a.78.78,0,0,1,.86-.87h3.41a.78.78,0,0,1,.85.87V174h1.87A.78.78,0,0,1,118,174.87Z"/><path class="cls-3" d="M130.35,173.64a9,9,0,0,1,0,18,8.36,8.36,0,0,1-7.78-5v11.21a.31.31,0,0,1-.34.34h-.52a.31.31,0,0,1-.34-.34V174.35a.31.31,0,0,1,.34-.34h.52a.31.31,0,0,1,.34.34v4.3a8.38,8.38,0,0,1,7.78-5Zm7.66,9a7.72,7.72,0,1,0-7.72,7.85A7.7,7.7,0,0,0,138,182.64Z"/><path class="cls-3" d="M143.63,190.93V166.76a.31.31,0,0,1,.34-.35h.52a.31.31,0,0,1,.34.35v24.17a.31.31,0,0,1-.34.35H144A.31.31,0,0,1,143.63,190.93Z"/><path class="cls-3" d="M156.2,173.64a5.8,5.8,0,0,1,6.14,6.18v11.11a.32.32,0,0,1-.34.35h-.53a.32.32,0,0,1-.34-.35V189c-1,1.89-3.19,2.62-5.65,2.62-3.23,0-6.1-1.83-6.1-5.33s2.87-5.33,6.1-5.33c2.48,0,4.6.89,5.65,2.61v-3.77a4.64,4.64,0,0,0-4.93-5c-2.66,0-4.73,1.44-4.91,4,0,.2-.15.33-.35.33h-.53a.32.32,0,0,1-.34-.36c.2-3,2.6-5.13,6.13-5.13Zm-.54,16.88c3,0,5.47-1.25,5.47-4.2s-2.62-4.21-5.47-4.21c-3.19,0-5.08,1.71-5.08,4.2s1.89,4.21,5.08,4.21Z"/><path class="cls-3" d="M183,186.61a8.1,8.1,0,0,1-7.82,5,9,9,0,0,1,0-18,8.1,8.1,0,0,1,7.82,5c.1.24,0,.39-.28.39h-.55a.4.4,0,0,1-.4-.26,6.94,6.94,0,0,0-6.59-4,7.85,7.85,0,0,0,0,15.7,7,7,0,0,0,6.59-4,.41.41,0,0,1,.4-.26h.55C183,186.21,183.12,186.37,183,186.61Z"/><path class="cls-3" d="M202.77,182.71V183a.32.32,0,0,1-.35.34H187.21a7.24,7.24,0,0,0,7.42,7.19,6.42,6.42,0,0,0,6.12-3.51.41.41,0,0,1,.4-.25h.6c.26,0,.39.13.31.34-1.08,2.75-3.9,4.57-7.44,4.57-5.1,0-8.64-3.78-8.64-9s3.42-9,8.55-9S202.77,178,202.77,182.71Zm-15.57-.56h14.37c-.3-4.56-3.29-7.36-7-7.36C190.37,174.79,187.41,177.83,187.2,182.15Z"/></svg>