<?xml version="1.0" encoding="UTF-8"?>
<svg width="207px" height="46px" viewBox="0 0 207 46" version="1.1" xmlns="http://www.w3.org/2000/svg" xmlns:xlink="http://www.w3.org/1999/xlink">
    <!-- Generator: Sketch 52.2 (67145) - http://www.bohemiancoding.com/sketch -->
    <title>logo-Royal-Blue</title>
    <desc>Created with Sketch.</desc>
    <g id="Page-1" stroke="none" stroke-width="1" fill="none" fill-rule="evenodd">
        <g id="logo-blue-_-elements-green" transform="translate(-69.000000, -19.000000)">
            <g id="header" transform="translate(0.000000, -1.000000)">
                <g id="logo-Royal-Blue" transform="translate(70.000000, 21.000000)">
                    <g id="figura" stroke="#4093E2">
                        <path d="M0,31.3313293 C0,38.3262195 5.62948753,44.3287922 12.5738123,44.3287922 C19.5181371,44.3287922 25.1476246,38.6583133 25.1476246,31.663423" id="Oval-1"></path>
                        <path d="M5.38877671,31.663423 C5.38877671,38.6583133 8.60562673,44.3287922 12.5738123,44.3287922 L12.5738123,44.3287922 C16.5419979,44.3287922 19.7588479,38.6583133 19.7588479,31.663423" id="Oval-1-Copy"></path>
                        <polyline id="Path-8" points="25.1516554 31.7784386 25.1516554 22.9480029 20.0686183 22.9417118 20.0686183 0.0106162964 5.38877671 -3.35841103e-16 5.38877671 31.8815198"></polyline>
                        <polyline id="Path-9" points="0 31.572426 9.97123996e-16 14.6758635 5.55805306 11.7607 12.615588 11.7607 12.6155884 44.4049912"></polyline>
                        <path d="M19.9467998,22.8228579 L12.5283374,22.8228579" id="Path-10"></path>
                        <path d="M0,31.7550351 L25.2215516,31.7550351" id="Path-11"></path>
                    </g>
                    <path d="M50.6378037,20.7984321 C50.6378037,22.838138 49.9500914,24.4015684 48.5746462,25.4887701 C47.1992009,26.5759718 45.2506827,27.1195645 42.7290331,27.1195645 L39.491022,27.1195645 L39.491022,35.8363773 L38.0296187,35.8363773 L38.0296187,14.7370722 L43.1588576,14.7370722 C48.1448466,14.7370722 50.6378037,16.7575053 50.6378037,20.7984321 L50.6378037,20.7984321 Z M39.491022,25.8495653 L42.3708461,25.8495653 C44.7301167,25.8495653 46.4350701,25.4575051 47.4857575,24.6733729 C48.5364448,23.8892407 49.0617806,22.6168489 49.0617806,20.8561593 C49.0617806,19.2301674 48.5650995,18.0251233 47.5717224,17.2409911 C46.5783452,16.4568589 45.0405441,16.0647987 42.9582729,16.0647987 L39.491022,16.0647987 L39.491022,25.8495653 Z M62.0809173,19.8459327 C62.7399848,19.8459327 63.4468002,19.9132805 64.2013848,20.047978 L63.9291626,21.4189999 C63.2796468,21.2554386 62.6062618,21.1736591 61.9089875,21.1736591 C60.5813008,21.1736591 59.492423,21.7413046 58.6423214,22.8766126 C57.7922198,24.0119206 57.3671754,25.445466 57.3671754,27.1772918 L57.3671754,35.8363773 L55.9487546,35.8363773 L55.9487546,20.1490007 L57.1522632,20.1490007 L57.295538,22.9776353 L57.3958304,22.9776353 C58.0357945,21.8230848 58.718731,21.0125063 59.4446604,20.5458754 C60.1705899,20.0792446 61.0493334,19.8459327 62.0809173,19.8459327 L62.0809173,19.8459327 Z M69.8991777,35.8363773 L68.4807569,35.8363773 L68.4807569,20.1490007 L69.8991777,20.1490007 L69.8991777,35.8363773 Z M68.2801721,15.7905943 C68.2801721,14.8669539 68.5810463,14.4051406 69.1828036,14.4051406 C69.4789064,14.4051406 69.7105317,14.5254045 69.8776865,14.7659358 C70.0448413,15.0064672 70.1284174,15.3480166 70.1284174,15.7905943 C70.1284174,16.2235507 70.0448413,16.5651001 69.8776865,16.8152528 C69.7105317,17.0654054 69.4789064,17.1904798 69.1828036,17.1904798 C68.5810463,17.1904798 68.2801721,16.723856 68.2801721,15.7905943 L68.2801721,15.7905943 Z M82.4455075,36.1250135 C80.2199607,36.1250135 78.476801,35.4178619 77.2159762,34.0035376 C75.9551514,32.5892132 75.3247485,30.6168856 75.3247485,28.0864958 C75.3247485,25.4887571 75.9790303,23.4659188 77.2876136,22.01792 C78.596197,20.5699212 80.3871144,19.8459327 82.6604197,19.8459327 C84.0072099,19.8459327 85.2966704,20.0816499 86.5288401,20.5530913 L86.1419981,21.8230906 C84.7952079,21.3708916 83.6251419,21.1447955 82.6317648,21.1447955 C80.7214242,21.1447955 79.2743629,21.7388991 78.2905374,22.927124 C77.306712,24.1153489 76.8148067,25.8255012 76.8148067,28.0576322 C76.8148067,30.1743081 77.306712,31.8315443 78.2905374,33.0293904 C79.2743629,34.2272366 80.6497875,34.8261507 82.4168525,34.8261507 C83.8305046,34.8261507 85.143844,34.5711913 86.3569103,34.0612648 L86.3569103,35.3889912 C85.3635332,35.8796752 84.0597453,36.1250135 82.4455075,36.1250135 L82.4455075,36.1250135 Z M97.5707842,36.1250135 C95.3070306,36.1250135 93.5423799,35.4226725 92.2767792,34.0179694 C91.0111786,32.6132662 90.3783878,30.6457493 90.3783878,28.1153594 C90.3783878,25.6138333 90.9896876,23.6102371 92.2123056,22.1045108 C93.4349236,20.5987845 95.0825676,19.8459327 97.1552872,19.8459327 C98.9892142,19.8459327 100.436275,20.4905471 101.496514,21.7797951 C102.556754,23.0690432 103.086865,24.8200852 103.086865,27.0329737 L103.086865,28.1875184 L91.868446,28.1875184 C91.8875494,30.3426794 92.3866184,31.9878892 93.3656679,33.1231972 C94.3447175,34.2585052 95.7464089,34.8261507 97.5707842,34.8261507 C98.4590926,34.8261507 99.2399326,34.7636135 99.9133276,34.6385372 C100.586723,34.5134609 101.439199,34.2440698 102.470783,33.8303558 L102.470783,35.1292187 C101.592027,35.5140688 100.780144,35.7762441 100.035111,35.9157523 C99.2900784,36.0552605 98.4686443,36.1250135 97.5707842,36.1250135 L97.5707842,36.1250135 Z M97.1552872,21.1159319 C95.6556698,21.1159319 94.4521733,21.6138243 93.5447615,22.6096242 C92.6373497,23.605424 92.1072381,25.0413746 91.9544109,26.9175192 L101.582479,26.9175192 C101.582479,25.0991022 101.190865,23.6775832 100.407626,22.6529196 C99.6243861,21.628256 98.5402841,21.1159319 97.1552872,21.1159319 L97.1552872,21.1159319 Z M124.0291,35.8363773 L122.553369,35.8363773 L122.553369,25.4599065 L110.317699,25.4599065 L110.317699,35.8363773 L108.856295,35.8363773 L108.856295,14.7370722 L110.317699,14.7370722 L110.317699,24.1033164 L122.553369,24.1033164 L122.553369,14.7370722 L124.0291,14.7370722 L124.0291,35.8363773 Z M131.947653,20.1490007 L131.947653,30.3089944 C131.947653,31.8868801 132.277181,33.0341975 132.936249,33.7509809 C133.595316,34.4677643 134.617333,34.8261507 136.00233,34.8261507 C137.855361,34.8261507 139.218846,34.3547163 140.092827,33.4118334 C140.966808,32.4689505 141.403791,30.9343834 141.403791,28.8080862 L141.403791,20.1490007 L142.807885,20.1490007 L142.807885,35.8363773 L141.604376,35.8363773 L141.346481,33.6716059 L141.260517,33.6716059 C140.248036,35.3072192 138.447567,36.1250135 135.859055,36.1250135 C132.315374,36.1250135 130.543559,34.2152232 130.543559,30.3955852 L130.543559,20.1490007 L131.947653,20.1490007 Z M155.712402,19.8459327 C157.89019,19.8459327 159.53067,20.5362473 160.633892,21.9168973 C161.737114,23.2975473 162.288716,25.3155751 162.288716,27.9710413 C162.288716,30.5784012 161.708459,32.5892132 160.547927,34.0035376 C159.387395,35.4178619 157.756466,36.1250135 155.655092,36.1250135 C154.547094,36.1250135 153.548956,35.8941069 152.660648,35.4322867 C151.772339,34.9704665 151.0703,34.316231 150.554508,33.4695606 L150.42556,33.4695606 L150.024391,35.8363773 L149.136087,35.8363773 L149.136087,13.3804822 L150.554508,13.3804822 L150.554508,19.0233196 C150.554508,19.8699899 150.535405,20.6492998 150.497198,21.3612727 L150.454215,22.5879764 L150.554508,22.5879764 C151.146713,21.6450935 151.860692,20.9523736 152.696466,20.5097959 C153.53224,20.0672182 154.537542,19.8459327 155.712402,19.8459327 L155.712402,19.8459327 Z M155.683747,21.1447955 C153.84982,21.1447955 152.53648,21.6739566 151.743689,22.7322945 C150.950897,23.7906325 150.554508,25.536864 150.554508,27.9710413 L150.554508,28.2163821 C150.554508,30.5832106 150.967613,32.2813365 151.793835,33.3108107 C152.620057,34.3402849 153.90713,34.8550143 155.655092,34.8550143 C157.355295,34.8550143 158.635204,34.2561002 159.494857,33.0582541 C160.35451,31.8604079 160.78433,30.1550662 160.78433,27.9421777 C160.78433,23.4105669 159.084153,21.1447955 155.683747,21.1447955 L155.683747,21.1447955 Z M174.290602,19.8459327 C176.46839,19.8459327 178.10887,20.5362473 179.212092,21.9168973 C180.315314,23.2975473 180.866916,25.3155751 180.866916,27.9710413 C180.866916,30.5784012 180.286659,32.5892132 179.126127,34.0035376 C177.965595,35.4178619 176.334666,36.1250135 174.233292,36.1250135 C173.125294,36.1250135 172.127156,35.8941069 171.238848,35.4322867 C170.350539,34.9704665 169.6485,34.316231 169.132708,33.4695606 L169.00376,33.4695606 L168.602591,35.8363773 L167.714287,35.8363773 L167.714287,13.3804822 L169.132708,13.3804822 L169.132708,19.0233196 C169.132708,19.8699899 169.113605,20.6492998 169.075398,21.3612727 L169.032415,22.5879764 L169.132708,22.5879764 C169.724913,21.6450935 170.438892,20.9523736 171.274666,20.5097959 C172.11044,20.0672182 173.115742,19.8459327 174.290602,19.8459327 L174.290602,19.8459327 Z M174.261947,21.1447955 C172.42802,21.1447955 171.11468,21.6739566 170.321889,22.7322945 C169.529098,23.7906325 169.132708,25.536864 169.132708,27.9710413 L169.132708,28.2163821 C169.132708,30.5832106 169.545813,32.2813365 170.372035,33.3108107 C171.198257,34.3402849 172.48533,34.8550143 174.233292,34.8550143 C175.933495,34.8550143 177.213404,34.2561002 178.073057,33.0582541 C178.93271,31.8604079 179.362531,30.1550662 179.362531,27.9421777 C179.362531,23.4105669 177.662353,21.1447955 174.261947,21.1447955 L174.261947,21.1447955 Z M187.710908,35.8363773 L186.292487,35.8363773 L186.292487,13.3804822 L187.710908,13.3804822 L187.710908,35.8363773 Z M200.328875,36.1250135 C198.065121,36.1250135 196.300471,35.4226725 195.03487,34.0179694 C193.769269,32.6132662 193.136479,30.6457493 193.136479,28.1153594 C193.136479,25.6138333 193.747778,23.6102371 194.970396,22.1045108 C196.193014,20.5987845 197.840658,19.8459327 199.913378,19.8459327 C201.747305,19.8459327 203.194366,20.4905471 204.254605,21.7797951 C205.314844,23.0690432 205.844956,24.8200852 205.844956,27.0329737 L205.844956,28.1875184 L194.626537,28.1875184 C194.64564,30.3426794 195.144709,31.9878892 196.123759,33.1231972 C197.102808,34.2585052 198.5045,34.8261507 200.328875,34.8261507 C201.217183,34.8261507 201.998023,34.7636135 202.671418,34.6385372 C203.344814,34.5134609 204.19729,34.2440698 205.228874,33.8303558 L205.228874,35.1292187 C204.350118,35.5140688 203.538235,35.7762441 202.793202,35.9157523 C202.048169,36.0552605 201.226735,36.1250135 200.328875,36.1250135 L200.328875,36.1250135 Z M199.913378,21.1159319 C198.413761,21.1159319 197.210264,21.6138243 196.302852,22.6096242 C195.395441,23.605424 194.865329,25.0413746 194.712502,26.9175192 L204.34057,26.9175192 C204.34057,25.0991022 203.948956,23.6775832 203.165717,22.6529196 C202.382477,21.628256 201.298375,21.1159319 199.913378,21.1159319 L199.913378,21.1159319 Z" id="PriceHubble" fill="#374048"></path>
                </g>
            </g>
        </g>
    </g>
</svg>