<?xml version="1.0" encoding="utf-8"?>
<!-- Generator: Adobe Illustrator 21.1.0, SVG Export Plug-In . SVG Version: 6.00 Build 0)  -->
<svg version="1.1" id="Layer_1" xmlns="http://www.w3.org/2000/svg" xmlns:xlink="http://www.w3.org/1999/xlink" x="0px" y="0px"
	 viewBox="0 0 2500 2500" style="enable-background:new 0 0 2500 2500;" xml:space="preserve">
<style type="text/css">
	.st0{fill:#0F95C0;}
	.st1{fill:#FFFFFF;}
</style>
<circle class="st0" cx="1248.4" cy="1257.6" r="1214.9"/>
<g>
	<line class="st1" x1="1068.6" y1="1437.4" x2="839.8" y2="1775.2"/>
	<path class="st1" d="M839.8,1791.5c-3.2,0-6.3-0.9-9.2-2.8c-7.5-5.1-9.4-15.2-4.4-22.7l228.8-337.8c5.1-7.5,15.2-9.4,22.7-4.4
		c7.5,5.1,9.4,15.2,4.4,22.7l-228.8,337.8C850.2,1789,845.1,1791.5,839.8,1791.5z"/>
</g>
<g>
	<line class="st1" x1="1346.5" y1="1442.9" x2="1477.2" y2="1671.7"/>
	<path class="st1" d="M1477.2,1688c-5.7,0-11.2-3-14.2-8.2L1332.3,1451c-4.5-7.8-1.8-17.8,6.1-22.3c7.8-4.5,17.8-1.8,22.3,6.1
		l130.7,228.8c4.5,7.8,1.8,17.8-6.1,22.3C1482.8,1687.3,1480,1688,1477.2,1688z"/>
</g>
<g>
	<line class="st1" x1="1466.3" y1="1159.6" x2="2032.9" y2="1028.8"/>
	<path class="st1" d="M1466.3,1175.9c-7.4,0-14.2-5.1-15.9-12.7c-2-8.8,3.5-17.6,12.2-19.6l566.6-130.7c8.8-2,17.6,3.4,19.6,12.2
		c2,8.8-3.5,17.6-12.2,19.6L1470,1175.5C1468.8,1175.8,1467.5,1175.9,1466.3,1175.9z"/>
</g>
<g>
	<line class="st1" x1="1302.9" y1="952.6" x2="1488.1" y2="593"/>
	<path class="st1" d="M1302.9,968.9c-2.5,0-5.1-0.6-7.5-1.8c-8-4.1-11.2-14-7-22l185.2-359.6c4.1-8,14-11.2,22-7c8,4.1,11.2,14,7,22
		l-185.2,359.6C1314.5,965.7,1308.8,968.9,1302.9,968.9z"/>
</g>
<g>
	<line class="st1" x1="986.9" y1="1028.8" x2="779.9" y2="854.5"/>
	<path class="st1" d="M986.9,1045.2c-3.7,0-7.5-1.3-10.5-3.8L769.4,867c-6.9-5.8-7.8-16.1-2-23c5.8-6.9,16.1-7.8,23-2l207,174.3
		c6.9,5.8,7.8,16.1,2,23C996.2,1043.2,991.6,1045.2,986.9,1045.2z"/>
</g>
<circle class="st1" cx="1199.4" cy="1208.6" r="305.1"/>
<circle class="st1" cx="1488.1" cy="1704.4" r="70.8"/>
<circle class="st1" cx="736.3" cy="821.8" r="92.6"/>
<circle class="st1" cx="1531.7" cy="484.1" r="158"/>
<circle class="st1" cx="2120.1" cy="996.1" r="125.3"/>
<circle class="st1" cx="730.9" cy="1895" r="207"/>
</svg>
