<?xml version="1.0" encoding="utf-8"?>
<!-- Generator: Adobe Illustrator 21.1.0, SVG Export Plug-In . SVG Version: 6.00 Build 0)  -->
<svg version="1.1" id="Layer_1" xmlns="http://www.w3.org/2000/svg" xmlns:xlink="http://www.w3.org/1999/xlink" x="0px" y="0px"
	 viewBox="0 0 2500 2500" style="enable-background:new 0 0 2500 2500;" xml:space="preserve">
<style type="text/css">
	.st0{fill:#304052;}
	.st1{fill:#326DE6;}
	.st2{fill:#FFFFFF;}
</style>
<g>
	<path class="st0" d="M772,47.1c17.3,1.3,34.6,1.5,52-0.2c5.7,1.5,11.5,1.5,17.3,0.2c17.3,1.3,34.6,1.5,52-0.2
		c5.7,1.5,11.5,1.5,17.3,0.2c17.3,1.3,34.6,1.5,52-0.2c5.7,1.5,11.5,1.5,17.3,0.2c17.3,1.3,34.6,1.5,52-0.2
		c5.7,1.5,11.5,1.5,17.3,0.2c17.3,1.3,34.6,1.5,52-0.2c5.7,1.5,11.5,1.5,17.3,0.2c17.3,1.3,34.6,1.5,52-0.2
		c5.7,1.5,11.5,1.5,17.3,0.2c17.3,1.3,34.6,1.5,52-0.2c5.7,1.5,11.5,1.5,17.3,0.2c17.3,1.3,34.6,1.5,52-0.2
		c5.7,1.5,11.5,1.5,17.3,0.2c17.3,1.3,34.6,1.5,52-0.2c5.7,1.5,11.5,1.5,17.3,0.2c17.3,1.3,34.6,1.5,52-0.2
		c5.7,1.5,11.5,1.5,17.3,0.2c17.3,1.3,34.6,1.5,52-0.2c5.7,1.5,11.5,1.5,17.3,0.2c17.3,1.3,34.6,1.5,52-0.2
		c5.7,0.4,11.4,0.8,17.1,1.2c13.9,3.1,27.8,6.1,41.8,9.2c2.4,3.4,6.3,3.6,9.9,4.5c11.5,7.2,23.1,14.4,34.6,21.6c2.3,2,4.7,3.9,7,5.9
		c7,7.8,13.9,15.7,20.9,23.5c2.4,3.4,4.7,6.9,7.1,10.3c5.6,12.8,11.2,25.6,16.8,38.4c0.5,4.7,0,9.7,3.3,13.8
		c0.6,16,1.2,32.1,1.8,48.1c0,5.9,0.1,11.7,0.1,17.6c0,17.2-0.1,34.5-0.1,51.7c0,5.9,0.1,11.7,0.1,17.6c0,17.2-0.1,34.5-0.1,51.7
		c0,5.9,0.1,11.7,0.1,17.6c0,17.2-0.1,34.5-0.1,51.7c0,5.9,0.1,11.7,0.1,17.6c0,17.2-0.1,34.5-0.1,51.7c0,5.9,0.1,11.7,0.1,17.6
		c0,17.2-0.1,34.5-0.1,51.7c0,5.9,0.1,11.7,0.1,17.6c0,17.2-0.1,34.5-0.1,51.7c0,5.9,0.1,11.7,0.1,17.6c0,17.2-0.1,34.5-0.1,51.7
		c0,5.9,0.1,11.7,0.1,17.6c0,17.2-0.1,34.5-0.1,51.7c0,5.9,0.1,11.7,0.1,17.6c0,17.2-0.1,34.5-0.1,51.7c0,5.9,0.1,11.7,0.1,17.6
		c0,17.2-0.1,34.5-0.1,51.7c0,5.9,0.1,11.7,0.1,17.6c0,17.2-0.1,34.5-0.1,51.7c0,5.9,0.1,11.7,0.1,17.6c0,17.2-0.1,34.5-0.1,51.7
		c0,5.9,0.1,11.7,0.1,17.6c0,17.2-0.1,34.5-0.1,51.7c0,5.9,0.1,11.8,0.1,17.7c-0.2,16.6-0.3,33.2-0.5,49.8c-1,7.6-2,15.2-3,22.7
		c-17.1,66.7-59.3,108.2-125.8,125.3c-7,1-13.9,2-20.9,3c-17.3,0.1-34.6,0.2-51.9,0.3c-5.8,0-11.6-0.1-17.4-0.1
		c-17.3,0-34.6,0.1-51.9,0.1c-5.8,0-11.6-0.1-17.4-0.1c-17.3,0-34.6,0.1-51.9,0.1c-5.8,0-11.6-0.1-17.4-0.1
		c-17.3,0-34.6,0.1-51.9,0.1c-5.8,0-11.6-0.1-17.4-0.1c-17.3,0-34.6,0.1-51.9,0.1c-5.8,0-11.6-0.1-17.4-0.1
		c-17.3,0-34.6,0.1-51.9,0.1c-5.8,0-11.6-0.1-17.4-0.1c-17.3,0-34.6,0.1-51.9,0.1c-5.8,0-11.6-0.1-17.4-0.1
		c-17.3,0-34.6,0.1-51.9,0.1c-5.8,0-11.6-0.1-17.4-0.1c-17.3,0-34.6,0.1-51.9,0.1c-5.8,0-11.6-0.1-17.4-0.1
		c-17.3,0-34.6,0.1-51.9,0.1c-5.8,0-11.6-0.1-17.4-0.1c-17.3,0-34.6,0.1-51.9,0.1c-5.8,0-11.6-0.1-17.4-0.1
		c-17.3,0-34.6,0.1-51.9,0.1c-5.8,0-11.6-0.1-17.4-0.1c-17.3,0-34.6,0.1-51.9,0.1c-5.8,0-11.6-0.1-17.4-0.1
		c-17.3,0-34.6,0.1-51.9,0.1c-5.8,0-11.6-0.1-17.4-0.1c-17.3,0-34.6,0.1-51.9,0.1c-5.8,0-11.6-0.1-17.4-0.1
		c-17.3,0-34.6,0.1-51.9,0.1c-5.8,0-11.6-0.1-17.4-0.1c-17.3,0-34.6,0.1-51.9,0.1c-5.8,0-11.6-0.1-17.4-0.1
		c-17.3,0-34.6,0.1-51.9,0.1c-5.8,0-11.6-0.1-17.4-0.1c-17.3,0-34.6,0.1-51.9,0.1c-5.8,0-11.6-0.1-17.4-0.1
		c-17.3,0-34.6,0.1-51.9,0.1c-5.8-0.1-11.6-0.2-17.4-0.2c-14.9-2.8-29.8-5.7-44.7-8.5c-4.7-1.9-9.4-3.8-14.1-5.7
		c-10.3-6.1-20.6-12.3-30.9-18.4c-2.4-2-4.8-4-7.2-6c-7.8-8.2-15.5-16.4-23.3-24.6c-2.4-3.4-4.8-6.8-7.2-10.2
		c-5.1-10.3-10.1-20.6-15.2-30.9c-2-5.8-4.1-11.6-6.1-17.4c-7.8-88.1-3.2-176.3-3.5-264.5c-0.8-245.7-0.2-491.5-0.2-737.2
		c0-90.2,50.2-151.7,138.5-169.6c6.9-0.7,13.9-1.4,20.8-2.2c17.3,1.1,34.7,1.5,52-0.3c5.7,1.5,11.5,1.5,17.3,0.2
		c17.3,1.3,34.6,1.5,52-0.2c5.7,1.5,11.5,1.5,17.3,0.2c17.3,1.3,34.6,1.5,52-0.2c5.7,1.5,11.5,1.5,17.3,0.2
		c17.3,1.3,34.6,1.5,52-0.2c5.7,1.5,11.5,1.5,17.3,0.2c17.3,1.3,34.6,1.5,52-0.2c5.7,1.5,11.5,1.5,17.3,0.2
		c17.3,1.3,34.6,1.5,52-0.2c5.7,1.5,11.5,1.5,17.3,0.2c17.3,1.3,34.6,1.5,52-0.2c5.7,1.5,11.5,1.5,17.3,0.2
		c17.3,1.3,34.6,1.5,52-0.2C760.5,48.4,766.2,48.4,772,47.1z M152.2,1054.7c-33.2-1.1-26.8-4-26.9,25.7c0,0.6,0.2,1.1,0.3,1.7
		c0,5.8,0.1,11.7,0.1,17.5c0,17.2-0.1,34.5-0.1,51.7c0,5.8,0.1,11.7,0.1,17.5c-1.7,15.5-0.6,30.5,6.1,44.9
		c1.2,7.3,4.4,13.6,9.5,18.9c4.7,9.8,11.9,17.3,21.2,22.8c3.6,4.8,8.7,7.2,14.1,9.3c14,7.6,28.9,11.3,44.8,10.1
		c4.7,0.1,9.3,0.1,14,0.2c18.4-0.1,36.8-0.1,55.2-0.2c4.7,0.1,9.3,0.1,14,0.2c18.4-0.1,36.8-0.1,55.2-0.2c4.7,0.1,9.3,0.1,14,0.2
		c18.4-0.1,36.8-0.1,55.2-0.2c4.7,0.1,9.3,0.1,14,0.2c18.4-0.1,36.8-0.1,55.2-0.2c4.7,0.1,9.3,0.1,14,0.2
		c18.4-0.1,36.8-0.1,55.2-0.2c4.7,0.1,9.3,0.1,14,0.2c18.4-0.1,36.8-0.1,55.2-0.2c4.7,0.1,9.3,0.1,14,0.2
		c18.4-0.1,36.8-0.1,55.2-0.2c4.7,0.1,9.3,0.1,14,0.2c18.4-0.1,36.8-0.1,55.2-0.2c4.7,0.1,9.3,0.1,14,0.2c23.1,0,46.1-0.1,69.2-0.1
		c18.4,0,36.9-0.1,55.3-0.1c4.7,0.1,9.3,0.1,14,0.2c18.4-0.1,36.8-0.1,55.2-0.2c4.7,0.1,9.3,0.1,14,0.2c18.4-0.1,36.8-0.1,55.2-0.2
		c4.7,0.1,9.3,0.1,14,0.2c18.4-0.1,36.8-0.1,55.2-0.2c4.7,0.1,9.3,0.1,14,0.2c18.4-0.1,36.8-0.1,55.2-0.2c4.7,0.1,9.3,0.1,14,0.2
		c18.4-0.1,36.8-0.1,55.2-0.2c4.7,0.1,9.3,0.1,14,0.2c18.4-0.1,36.8-0.1,55.2-0.2c4.7,0.1,9.3,0.1,14,0.2
		c18.4-0.1,36.8-0.1,55.2-0.2c4.7,0.1,9.3,0.1,14,0.2c18.4,0,36.8-0.1,55.2-0.1c4.7,0.1,9.4,0.1,14.1,0.2c18.4,0,36.7,0,55.1,0
		c1.3,0,2.6,0.1,3.9,0.1c3.4-0.1,6.9-0.1,10.3-0.2c18.5,0.2,37.1,3.2,55.3-2.6c37.5-5.5,67-35,72.5-72.5c5.8-18.2,2.8-36.8,2.6-55.3
		c-0.1-5.8-0.1-11.7-0.2-17.5c0.1-17.2,0.1-34.5,0.2-51.7c-0.2-6.9,3.8-14.2-2.5-20.3c-18.4-1.7-36.8-1.3-55.2-0.2
		c-5.8-0.1-11.6-0.1-17.4-0.2c-17.3,0.1-34.6,0.1-51.9,0.2c-5.8-0.1-11.6-0.1-17.4-0.2c-17.3,0.1-34.6,0.1-51.9,0.2
		c-5.8-0.1-11.6-0.1-17.4-0.2c-17.3,0.1-34.6,0.1-51.9,0.2c-5.8-0.1-11.6-0.1-17.4-0.2c-17.3,0.1-34.6,0.1-51.9,0.2
		c-5.8-0.1-11.6-0.1-17.4-0.2c-17.3,0.1-34.6,0.1-51.9,0.2c-5.8-0.1-11.6-0.1-17.4-0.2c-17.3,0.1-34.6,0.1-51.9,0.2
		c-5.8-0.1-11.6-0.1-17.4-0.2c-17.3,0.1-34.6,0.1-51.9,0.2c-5.8-0.1-11.6-0.1-17.4-0.2c-17.3,0.1-34.6,0.1-51.9,0.2
		c-5.8-0.1-11.6-0.1-17.4-0.2c-17.3,0.1-34.6,0.1-51.9,0.2c-5.8-0.1-11.6-0.1-17.4-0.2c-17.3,0.1-34.6,0.1-51.9,0.2
		c-5.8,0-11.6-0.1-17.4-0.1c-17.3,0.1-34.6,0.1-51.9,0.2c-5.8-0.1-11.6-0.1-17.4-0.2c-17.3,0.1-34.6,0.1-51.9,0.2
		c-5.8-0.1-11.6-0.1-17.4-0.2c-17.3,0.1-34.6,0.1-51.9,0.2c-5.8-0.1-11.6-0.1-17.4-0.2c-17.3,0.1-34.6,0.1-51.9,0.2
		c-5.8-0.1-11.6-0.1-17.4-0.2c-17.3,0.1-34.6,0.1-51.9,0.2c-5.8-0.1-11.6-0.1-17.4-0.2c-17.3,0.1-34.6,0.1-51.9,0.2
		c-5.8-0.1-11.6-0.1-17.4-0.2c-17.3,0.1-34.6,0.1-51.9,0.2c-5.8-0.1-11.6-0.1-17.4-0.2c-17.3,0.1-34.6,0.1-51.9,0.2
		c-5.8-0.1-11.6-0.1-17.4-0.2c-17.3,0.1-34.6,0.1-51.9,0.2c-5.8-0.1-11.6-0.1-17.4-0.2c-17.3,0-34.6,0.1-51.9,0.1
		c-5.8-0.1-11.6-0.1-17.4-0.2c-17.3,0.1-34.6,0.1-51.9,0.2C163.8,1054.8,158,1054.8,152.2,1054.7z M1634.4,986.5
		c12.5,0.4,25.1,0.4,37.6,1.2c8.7,0.5,10.7-3.7,10.3-11.4c-0.6-13.1-0.5-26.3-0.7-39.4c-0.1-4.7-0.1-9.3-0.2-14
		c0.1-18.4,0.1-36.8,0.2-55.2c-0.1-4.7-0.1-9.3-0.2-14c0.1-18.4,0.1-36.8,0.2-55.2c-0.1-4.7-0.1-9.3-0.2-14
		c0.1-18.4,0.1-36.8,0.2-55.2c-0.1-4.7-0.1-9.3-0.2-14c0.1-18.4,0.1-36.8,0.2-55.2c-0.1-4.7-0.1-9.3-0.2-14
		c0.1-18.4,0.1-36.8,0.2-55.2c-0.1-4.7-0.1-9.3-0.2-14c0.1-18.4,0.1-36.8,0.2-55.2c-0.1-4.7-0.1-9.3-0.2-14
		c0.1-18.4,0.1-36.8,0.2-55.2c-0.1-4.7-0.1-9.3-0.2-14c0.1-18.4,0.1-36.8,0.2-55.2c-0.1-4.7-0.1-9.3-0.2-14
		c0.1-18.4,0.1-36.8,0.2-55.2c-0.1-4.7-0.1-9.3-0.2-14c0.1-18.4,0.2-36.8,0.3-55.2c0-4.7-0.1-9.5-0.1-14.2c1.2-16.5,1.8-33-4.2-48.9
		c-1.3-6.5-3.1-12.8-7.9-17.8c-4.3-11.2-11.6-19.9-21.7-26.5c-3.4-4.8-8.2-7.6-13.6-9.7c-12.7-7.8-26.3-12.6-41.5-11.2
		c-5.7-1.6-11.5-1.6-17.3-0.3c-17.3-1.3-34.7-1.5-52,0.2c-5.7-1.5-11.5-1.6-17.3-0.2c-17.3-1.3-34.7-1.5-52,0.2
		c-5.7-1.5-11.5-1.6-17.3-0.2c-17.3-1.3-34.7-1.5-52,0.2c-5.7-1.5-11.5-1.6-17.3-0.2c-17.3-1.3-34.7-1.5-52,0.2
		c-5.7-1.5-11.5-1.6-17.3-0.2c-17.3-1.3-34.7-1.5-52,0.2c-5.7-1.5-11.5-1.6-17.3-0.2c-17.3-1.3-34.7-1.5-52,0.2
		c-5.7-1.5-11.5-1.5-17.3-0.2c-17.3-1.3-34.7-1.5-52,0.2c-5.7-1.5-11.5-1.6-17.3-0.2c-17.3-1.3-34.7-1.5-52,0.2
		c-5.7-1.5-11.5-1.6-17.3-0.2c-17.3-1.3-34.7-1.5-52,0.2c-5.7-1.5-11.5-1.6-17.3-0.2c-17.3-1.3-34.7-1.5-52,0.2
		c-5.7-1.5-11.5-1.6-17.3-0.2c-17.3-1.3-34.7-1.5-52,0.2c-5.7-1.5-11.5-1.6-17.3-0.2c-17.3-1.3-34.7-1.5-52,0.2
		c-5.7-1.5-11.5-1.5-17.3-0.2c-17.3-1.3-34.7-1.5-52,0.2c-5.7-1.5-11.5-1.6-17.3-0.2c-17.3-1.3-34.7-1.5-52,0.2
		c-5.7-1.5-11.5-1.5-17.3-0.2c-17.3-1.3-34.7-1.5-52,0.2c-5.7-1.5-11.5-1.6-17.3-0.2c-17.3-1.3-34.7-1.5-52,0.2
		c-5.7-1.5-11.5-1.6-17.3-0.2c-17.3-1.3-34.7-1.5-52,0.2c-5.7-1.5-11.5-1.6-17.3-0.2c-17.3-1.3-34.7-1.5-52,0.2
		c-5.7-1.5-11.5-1.6-17.3-0.2c-17.3-1.3-34.7-1.5-52,0.2c-5.7-1.5-11.5-1.6-17.3-0.2c-17.3-1.2-34.7-1.9-51.9,0.7
		c-42.2,3-77,37.2-80.2,79c-5,18.4-2,37-1.9,55.5c0,4.7,0.1,9.3,0.1,14c0,18.4-0.1,36.8-0.1,55.2c0,4.7,0.1,9.3,0.1,14
		c0,18.4-0.1,36.8-0.1,55.2c0,4.7,0.1,9.3,0.1,14c0,18.4-0.1,36.8-0.1,55.2c0,4.7,0.1,9.3,0.1,14c0,18.4-0.1,36.8-0.1,55.2
		c0,4.7,0.1,9.3,0.1,14c0,18.4-0.1,36.8-0.1,55.2c0,4.7,0.1,9.3,0.1,14c0,18.4-0.1,36.8-0.1,55.2c0,4.7,0.1,9.3,0.1,14
		c0,18.4-0.1,36.8-0.1,55.2c0,4.7,0.1,9.3,0.1,14c0,18.4-0.1,36.8-0.1,55.2c0,4.7,0.1,9.3,0.1,14c0,18.4-0.1,36.8-0.1,55.2
		c0,4.7,0.1,9.3,0.1,14c0,18.4-0.1,36.8-0.1,55.2c0,4.7,0.1,9.3,0.1,14c-1.7,37.4-3.8,28.8,28.3,29.8c2.8,0.1,5.6-0.8,8.4-1.2
		c5.9,2,11.8,2.1,17.7,0.3c17.2,1.6,34.4,2,51.6-0.3c5.9,2,11.8,2.1,17.7,0.3c17.2,1.6,34.4,2,51.6-0.3c5.9,2,11.7,2.1,17.7,0.3
		c17.2,1.6,34.4,2,51.6-0.3c5.9,2,11.8,2.1,17.7,0.3c17.2,1.6,34.4,2,51.6-0.3c5.9,2,11.8,2.1,17.7,0.3c17.2,1.6,34.4,2,51.6-0.3
		c5.9,2,11.8,2.1,17.7,0.3c17.2,1.6,34.4,2,51.6-0.3c5.6,2,11.3,2.1,17,0.3c17.4,1.6,34.9,2,52.3-0.3c5.9,2,11.8,2.1,17.7,0.3
		c17.2,1.6,34.4,2,51.6-0.3c5.9,2,11.8,2.1,17.7,0.3c17.2,1.6,34.4,2,51.6-0.3c5.9,2,11.8,2.1,17.7,0.3c17.2,1.6,34.4,2,51.6-0.3
		c5.9,2,11.8,2.1,17.7,0.3c15.9,1.9,31.9,1.3,47.8,0.3c7.2,2.1,14.5,2.1,21.7,0.2c17.1,0.4,34.2,1.8,51.3-0.9
		c5.9,2,11.8,2.1,17.7,0.3c17.2,1.6,34.4,2,51.6-0.3c5.9,2,11.8,2.1,17.7,0.3c17.2,1.6,34.4,2,51.6-0.3c5.9,2,11.8,2.1,17.7,0.3
		c17.2,1.6,34.4,2,51.6-0.3c5.9,2,11.8,2.1,17.7,0.3c17.2,1.6,34.4,2,51.6-0.3c5.9,2,11.8,2.1,17.7,0.3c17.2,1.6,34.4,2,51.6-0.3
		c5.9,2,11.8,2.1,17.7,0.3c17.2,1.6,34.4,2,51.6-0.3c5.9,2,11.8,2.1,17.7,0.3c17.2,1.6,34.4,2,51.6-0.3c5.9,2,11.8,2.1,17.7,0.3
		c17.2,1.6,34.4,2,51.6-0.3c5.9,2,11.8,2.1,17.7,0.3c17.2,1.6,34.4,2,51.6-0.3C1622.6,988.2,1628.5,988.3,1634.4,986.5z"/>
	<path class="st1" d="M1069.7,846.6c-6.9,1.5-13.8,3-20.7,4.4c-15.2,1-30.1-0.4-44.7-5c-2.6-1.4-5.2-2.8-7.8-4.1
		c-11.5-8-20.9-18.1-29-29.4c-1.4-2.5-2.9-5-4.3-7.5c-4.7-12.7-9.3-25.4-14-38.1c-0.3-3.7-0.2-7.7-3.6-10.3
		c-2.6-14.5-7.3-28.3-13.6-41.7c-0.4-3.7-0.2-7.6-3.7-10.3c-2.7-14.5-7.4-28.3-13.8-41.6c-0.3-3.8-0.2-7.7-3.7-10.3
		c-1.8-13.6-7.8-26-12.2-38.8c-1.8-4.4-3.6-8.7-5.3-13.1c-1.9-13.6-7.6-26-12.4-38.7c-1.7-4.4-3.4-8.9-5.1-13.3
		c-2.6-13.4-7.1-26.1-12.6-38.4c-0.6-4.8-1.6-9.6-4.8-13.5c-2.7-13.3-7-26.1-12.8-38.4c-2.1-6.4-4.2-12.8-6.2-19.2
		c-3.7-10.9-7.4-21.8-11.1-32.8c-1.7-10.5-5-20.4-11.5-33.7c-11.2,23.8-20.9,44.5-30.7,65.3c-18.2,32.7-35.4,66-49.9,100.6
		c-6.7,10.8-12.6,22.1-16.6,34.2c-5.1,9.6-10.2,19.2-15.4,28.8c-12.5,22.9-31,38.3-56.6,44.7c-5.8,0.2-11.6,0.5-17.4,0.7
		c-13.1-0.5-25.5-4.1-37.8-8.3c-4.7-3.3-9.4-6.5-14.1-9.8c-6.6-8.4-13.2-16.7-19.8-25.1c-1.6-3.4-3.1-6.7-4.7-10.1
		c-3.9-12.9-7.8-25.9-11.7-38.8c-1.7-4.4-1.1-9.7-5.1-13.2c-2.6-14.5-7.2-28.4-13.6-41.6c-0.3-3.8-0.3-7.7-3.7-10.3
		c-2.1-13.5-7.5-26-12.8-38.5c-1.7-4.5-3.4-8.9-5.1-13.4c-1.2-4.4-2.6-8.7-3.7-13.1c-2.5-9.7-7.3-9.6-14.3-4
		c-15,12.1-32.5,19.1-50.8,24.3c-5.9,0.4-11.8,0.8-17.7,1.3c-18.3,0.6-36.7,1.3-55,2c-4.6-0.1-9.2-0.1-13.8-0.2
		c-13.5-1.4-27.7,0.3-40-7.6c-2.4-3.3-4.9-6.6-7.3-9.8c-4.9-34.6,3.5-42.7,47.2-45.4c5.8,0.1,11.6,0.1,17.4,0.2
		c17.3-0.1,34.6-0.1,51.8-0.2c15.7,1.2,27.2-6.7,37.7-17c8.6-8.4,16.8-17.2,25.2-25.8c15.8-9.1,31.7-9.4,47.6-0.3
		c2.2,2,4.4,3.9,6.5,5.9c5.1,11.4,10.2,22.9,15.3,34.3c1.9,4.7,3.7,9.4,5.6,14.1c3,13.7,7.6,26.9,13.9,39.5c0.3,3.3,0.3,6.7,3.2,9.1
		c4.3,12.9,8.5,25.8,12.8,38.7c1.8,4.4,3.6,8.7,5.4,13.1c4.1,12.9,8.3,25.8,12.4,38.7c1.3,4.5,1,9.7,4.9,13.2
		c4.3,14.8,3.2,33.1,24.1,37.3c23.5,5.8,20.9-15.6,27.9-26.9c17.4-34.6,34.8-69.3,52.2-103.9c7.2-10.8,13.1-22.2,17-34.6
		c19.1-33.7,36.2-68.5,52.2-103.8c6.6-9.3,14.5-17.2,23.9-23.6c16.6-6.7,32.7-5.1,48.4,3.2c2.3,2.2,4.7,4.4,7,6.6
		c6.9,9.4,10.4,20.5,14.7,31.1c1.9,4.7,3.9,9.3,5.8,14c2.8,13.3,7.4,26.1,13.1,38.4c0.8,3.6,0.6,7.5,3.9,10.2
		c2.9,14.4,7.6,28.3,14.1,41.5c0.2,3.8,0.3,7.7,3.7,10.3c1.9,13.6,7.8,25.9,12.3,38.7c1.7,4.4,3.5,8.8,5.3,13.2
		c2.4,13.4,7.3,26,12.4,38.6c1.7,4.4,3.4,8.9,5,13.3c2.5,13.4,7.2,26.1,12.4,38.6c1.7,4.5,3.3,8.9,5,13.4c2.4,13.4,7.2,26,12.3,38.6
		c1.7,4.5,3.3,8.9,5,13.4c4,12.9,8,25.8,12.1,38.7c1.7,4.4,3.4,8.8,5.1,13.2c2.6,14.5,7.3,28.4,13.5,41.7c0.1,3.8,0.1,7.6,3.5,10.3
		c1.7,14.7,8.4,24.1,24.3,26.7c16.5,2.7,19.2-10.4,24-19.8c14.8-28.6,28.4-57.8,42.5-86.7c7.1-10.8,12.8-22.3,16.7-34.6
		c16.7-33.5,33.4-67,50.1-100.5c6.4-11,12.6-22,16.5-34.2c17.6-34.6,35.1-69.2,52.7-103.7c6.4-6.5,12.9-13,19.3-19.4
		c18.6-9.9,39.2-6.6,59-8.7c4.6,0.1,9.2,0.1,13.9,0.2c8.6,0.3,17.2,0,25.7,0.9c13.6,1.5,23.8-1.6,31.6-14.4
		c7.1-11.6,20.8-15.5,32.7-21c5.8-0.2,11.6-0.5,17.3-0.7c12.1,1,22.6,6.3,33,11.8c3.8,3.5,7.6,7.1,11.4,10.6
		c5.7,9.6,11.6,19.2,14.7,30c-0.2,4.9-0.3,9.7,2.7,13.9c-4.4,11-2.4,23.4-8.8,34.2c-13.6,23.1-33.7,34.5-60,36.1
		c-5.6-1-11.2-1.9-16.8-2.9c-9.3-5.3-18.5-10.6-27.8-15.9c-2.1-2.3-4.2-4.7-6.3-7c-2.2-7.6-7-11-15.2-10.6
		c-12.6,0.7-25.2,0.6-37.8,0.9c-4.7,0-9.3-0.1-14-0.1c-20.2-4.5-34,1.7-39.7,23c-2,7.6-6.2,14.6-9.4,21.9
		c-7,10.8-12.8,22.2-16.7,34.5c-18.7,32.4-33.8,66.6-50.2,100.1c-5.6,11.5-11.1,23-16.7,34.5c-18.8,34.2-36.1,69.1-52.3,104.5
		c-7.1,10.6-12.3,22.1-17,33.9C1104.6,817.3,1091.5,836.2,1069.7,846.6z"/>
	<path class="st1" d="M931.1,1117.6c1.9,1.1,3.9,2.2,5.8,3.3c8.6,8.1,16.6,16.7,22.5,27.1c1.5,4.8,2.9,9.6,4.4,14.4
		c3.9,46.9-29.9,78.9-77.5,73.2c-14.1-4.8-25.1-13.8-34.3-25.3c-1.7-3.6-3.4-7.2-5.1-10.9c-5.2-15.9-5.5-31.9-1.2-48
		c8.1-16.3,19.9-28.9,37-36.1C899.1,1110.5,915.2,1112.1,931.1,1117.6z"/>
</g>
<g>
	<path class="st1" d="M1097.5,2441c-46.8,0-90.9-20.8-120.8-58.5l-454.8-565.4c-29.9-37.7-41.6-85.8-29.9-132.6l162.4-705.6
		c10.4-46.8,41.6-84.5,84.5-105.3l657.5-314.6c20.8-10.4,44.2-15.5,67.6-15.5s46.8,5.1,67.6,15.7l657.5,313.2
		c42.8,20.8,74.1,58.5,84.5,105.3l162.4,705.6c10.4,46.8,0,94.9-29.9,132.6l-454.8,565.4c-29.9,36.4-74.1,58.5-120.8,58.5
		L1097.5,2441L1097.5,2441z"/>
	<path class="st2" d="M1462.6,576.1c18.2,0,36.4,3.9,53.3,11.6l657.5,313.2c33.8,16.9,59.7,48.1,67.6,84.5l162.4,705.6
		c9.1,37.7,0,76.6-24.7,106.6L1924.1,2363c-23.4,29.9-59.7,46.8-97.4,46.8h-729c-37.7,0-74.1-16.9-97.4-46.8l-454.8-565.4
		c-23.4-29.9-32.6-68.9-24.7-106.6l162.4-705.6c9.1-37.7,33.8-68.9,67.6-84.5l657.7-314.6C1424.9,580,1444.5,576.1,1462.6,576.1
		L1462.6,576.1z M1462.6,515c-27.3,0-54.6,6.5-80.5,18.2L724.6,847.7c-52,24.7-88.4,70.1-101.4,126.1l-162.4,705.6
		c-13,55.8,0,113.1,36.4,158.5L952,2403.3c35.1,44.2,88.4,68.9,144.3,68.9h729c55.8,0,109.2-24.7,144.3-68.9l454.8-565.4
		c36.4-44.2,49.3-102.7,36.4-158.5l-162.4-705.6c-13-55.8-49.3-101.3-101.3-126.1l-655-314.6C1517.2,521.5,1489.9,515,1462.6,515z"
		/>
	<path class="st2" d="M2121.5,1635.2C2120.1,1635.2,2120.1,1635.2,2121.5,1635.2h-1.2c-1.2,0-2.6,0-2.6-1.2c-2.6,0-5.1-1.2-7.8-1.2
		c-9.1-1.2-16.9-2.6-24.7-2.6c-3.9,0-7.8,0-13-1.2h-1.2c-27.3-2.6-49.3-5.1-70.1-11.6c-9.1-3.9-11.6-9.1-14.3-14.3
		c0-1.2-1.2-1.2-1.2-2.6l-16.9-5.1c8-61.1,4.8-123.2-9.1-183.2c-14.1-60.6-38.8-118.2-72.7-170.3l13-11.6v-2.6
		c0-6.5,1.2-13,6.5-19.5c15.7-14.3,35.1-26.1,58.5-40.3c3.9-2.6,7.8-3.9,11.6-6.5c7.8-3.9,14.3-7.8,22-13c1.2-1.2,3.9-2.6,6.5-5.1
		c1.2-1.2,2.6-1.2,2.6-2.6c18.2-15.7,22-41.6,9.1-58.5c-6.5-9.1-18.2-14.3-29.9-14.3c-10.4,0-19.5,3.9-28.5,10.4l-2.6,2.6
		c-2.6,1.2-3.9,3.9-6.5,5.3c-6.5,6.5-11.6,11.6-16.9,18.2c-2.6,2.6-5.1,6.5-9.1,9.1c-18.2,19.5-35.1,35.1-52,46.8
		c-3.9,2.6-7.8,3.9-11.6,3.9c-2.6,0-5.3,0-7.8-1.2h-2.6l-15.7,10.4c-16.9-18.2-35.1-33.8-53.2-49.3
		c-78.3-61.2-172.7-98.7-271.6-107.8l-1.2-16.9l-2.6-2.6c-3.9-3.9-9.1-7.8-10.4-16.9c-1.2-20.8,1.2-44.2,3.9-70.1V908
		c0-3.9,1.2-9.1,2.6-13c1.2-7.8,2.6-15.7,3.9-24.7v-11.6c0-23.4-18.2-42.8-40.3-42.8c-10.4,0-20.8,5.1-28.5,13
		c-7.8,7.8-11.6,18.2-11.6,29.9v10.4c0,9.1,1.2,16.9,3.9,24.7c1.2,3.9,1.2,7.8,2.6,13v1.2c2.6,26.1,6.5,49.3,3.9,70.1
		c-1.2,9.1-6.5,13-10.4,16.9l-2.6,2.6l-1.2,16.9c-23.4,2.6-46.8,5.1-70.1,10.4c-100,22-188.5,72.7-257.3,145.5l-13-9.1h-2.6
		c-2.6,0-5.3,1.2-7.8,1.2c-3.9,0-7.8-1.2-11.6-3.9c-16.9-11.6-33.8-28.5-52-48.1c-2.6-2.6-5.1-6.5-9.1-9.1
		c-5.3-6.5-10.4-11.6-16.9-18.2c-1.2-1.2-3.9-2.6-6.5-5.3c-1.2-1.2-2.6-1.2-2.6-2.6c-8-6.7-18.2-10.4-28.5-10.4
		c-11.6,0-23.4,5.3-29.9,14.3c-13,16.9-9.1,42.8,9.1,58.5c1.2,0,1.2,1.2,2.6,1.2c2.6,1.2,3.9,3.9,6.5,5.1c7.8,5.1,14.3,9.1,22,13
		c3.9,1.2,7.8,3.9,11.6,6.5c23.4,14.3,42.8,26.1,58.5,40.3c6.5,6.5,6.5,13,6.5,19.5v2.6l13,11.6c-2.6,3.9-5.1,6.5-6.5,10.4
		c-65,102.7-89.7,223.5-72.7,343.1l-16.9,5.1c0,1.2-1.2,1.2-1.2,2.6c-2.6,5.3-6.5,10.4-14.3,14.3c-19.5,6.5-42.8,9.1-70.1,11.6h-1.2
		c-3.9,0-9.1,0-13,1.2c-7.8,0-15.7,1.2-24.7,2.6c-2.6,0-5.1,1.2-7.8,1.2c-1.2,0-2.6,0-3.9,1.2c-23.4,5.1-37.7,27.3-33.8,48.1
		c3.9,18.2,20.8,29.9,41.6,29.9c3.9,0,6.5,0,10.4-1.2c1.2,0,2.6,0,2.6-1.2c2.6,0,5.1-1.2,7.8-1.2c9.1-2.6,15.7-5.1,23.4-9.1
		c3.9-1.2,7.8-3.9,11.6-5.1h1.2c24.7-9.1,46.8-16.9,67.6-19.5h2.6c7.8,0,13,3.9,16.9,6.5c1.2,0,1.2,1.2,2.6,1.2l18.2-2.6
		c31.2,96.2,90.9,181.9,170.3,244.3c18.2,14.3,36.4,26.1,55.8,37.7l-7.8,16.9c0,1.2,1.2,1.2,1.2,2.6c2.6,5.3,5.1,11.6,2.6,20.8
		c-7.8,19.5-19.5,38.9-33.8,61.1v1.2c-2.6,3.9-5.1,6.5-7.8,10.4c-5.3,6.5-9.1,13-14.3,20.8c-1.2,1.2-2.6,3.9-3.9,6.5
		c0,1.2-1.2,2.6-1.2,2.6c-10.4,22-2.6,46.8,16.9,55.8c5.1,2.6,10.4,3.9,15.7,3.9c15.7,0,31.2-10.4,38.9-24.7c0-1.2,1.2-2.6,1.2-2.6
		c1.2-2.6,2.6-5.1,3.9-6.5c3.9-9.1,5.3-15.7,7.8-23.4l3.9-11.6c9.1-26.1,15.7-46.8,27.3-65c5.1-7.8,11.6-9.1,16.9-11.6
		c1.2,0,1.2,0,2.6-1.2l9.1-16.9c57.2,22,119.6,33.8,181.9,33.8c37.7,0,76.6-3.9,113.1-13c22.9-5.1,45.5-11.6,67.6-19.5l7.8,14.3
		c1.2,0,1.2,0,2.6,1.2c6.5,1.2,11.6,3.9,16.9,11.6c10.4,18.2,18.2,40.3,27.3,65v1.2l3.9,11.6c2.6,7.8,3.9,15.7,7.8,23.4
		c1.2,2.6,2.6,3.9,3.9,6.5c0,1.2,1.2,2.6,1.2,2.6c7.8,15.7,23.4,24.7,38.9,24.7c5.3,0,10.4-1.2,15.7-3.9c9.1-5.1,16.9-13,19.5-23.4
		c2.6-10.4,2.6-22-2.6-32.4c0-1.2-1.2-1.2-1.2-2.6c-1.2-2.6-2.6-5.1-3.9-6.5c-3.9-7.8-9.1-14.3-14.3-20.8c-2.6-3.9-5.1-6.5-7.8-10.4
		v-1.2c-14.3-22-27.3-41.6-33.8-61.1c-2.6-9.1,0-14.3,1.2-20.8c0-1.2,1.2-1.2,1.2-2.6l-6.5-15.7c68.9-40.3,127.3-97.4,171.5-167.7
		c23.4-36.4,41.6-76.6,54.6-117l15.7,2.6c1.2,0,1.2-1.2,2.6-1.2c5.3-2.6,9.1-6.5,16.9-6.5h2.6c20.8,2.6,42.8,10.4,67.6,19.5h1.2
		c3.9,1.2,7.8,3.9,11.6,5.1c7.8,3.9,14.3,6.5,23.4,9.1c2.6,0,5.1,1.2,7.8,1.2c1.2,0,2.6,0,3.9,1.2c3.9,1.2,6.5,1.2,10.4,1.2
		c19.5,0,36.4-13,41.6-29.9C2159.2,1662.5,2144.8,1641.7,2121.5,1635.2L2121.5,1635.2z M1519.7,1571.6l-57.2,27.3l-57.2-27.3
		l-14.3-61.1l38.9-49.3h63.7l38.9,49.3L1519.7,1571.6L1519.7,1571.6z M1858.9,1436.4c10.1,43,13.2,87.3,9.1,131.2l-198.8-57.2
		c-18.2-5.1-28.5-23.4-24.7-41.6c1.2-5.3,3.9-10.4,7.8-14.3l157.3-141.6C1831.6,1349.3,1848.5,1390.9,1858.9,1436.4L1858.9,1436.4z
		 M1747.2,1235l-170.3,120.8c-14.3,9.1-33.8,6.5-45.5-7.8c-3.9-3.9-5.1-9.1-6.5-14.3l-11.6-211.9
		C1601.8,1132.1,1684.2,1172,1747.2,1235L1747.2,1235z M1370.3,1128.4c14.3-2.6,27.3-5.1,41.6-7.8l-11.6,207.9
		c-1.2,18.2-15.7,33.8-35.1,33.8c-5.1,0-11.6-1.2-15.7-3.9L1176.8,1235C1230,1181.7,1296.2,1145.4,1370.3,1128.4L1370.3,1128.4z
		 M1114.3,1312.9l154.6,137.7c14.3,11.6,15.7,33.8,3.9,48.1c-3.9,5.1-9.1,9.1-15.7,10.4l-201.5,58.5
		C1048,1479.3,1067.6,1389.7,1114.3,1312.9L1114.3,1312.9z M1079.2,1665.1l206.6-35.1c16.9-1.2,32.4,10.4,36.4,27.3
		c1.2,7.8,1.2,14.3-1.2,20.8l-79.3,191.1C1168.9,1822.4,1110.4,1750.9,1079.2,1665.1L1079.2,1665.1z M1553.5,1923.7
		c-29.9,6.5-59.7,10.4-91,10.4c-45.5,0-89.7-7.8-131.2-20.8l102.7-185.8c10.4-11.6,27.3-16.9,41.6-9.1c6.1,3.7,11.4,8.6,15.7,14.3
		l100,180.7C1579.6,1917.2,1566.6,1919.8,1553.5,1923.7L1553.5,1923.7z M1807,1743.1c-32.4,52-75.4,93.5-124.7,126.1l-81.9-196.2
		c-3.9-15.5,2.6-32.4,18.2-40.3c5.1-2.6,11.6-3.9,18.2-3.9l208,35.1C1836.9,1692.4,1823.9,1718.3,1807,1743.1L1807,1743.1z"/>
</g>
</svg>
