<?xml version="1.0" encoding="utf-8"?>
<!-- Generator: Adobe Illustrator 21.1.0, SVG Export Plug-In . SVG Version: 6.00 Build 0)  -->
<svg version="1.1" id="Layer_1" xmlns="http://www.w3.org/2000/svg" xmlns:xlink="http://www.w3.org/1999/xlink" x="0px" y="0px"
	 viewBox="0 0 2500 2500" style="enable-background:new 0 0 2500 2500;" xml:space="preserve">
<style type="text/css">
	.st0{fill:#FBB713;}
	.st1{fill:#FFFFFF;}
	.st2{fill:#FF3A2F;}
	.st3{opacity:0.25;fill:#020403;enable-background:new    ;}
	.st4{opacity:0.35;fill:#020403;enable-background:new    ;}
	.st5{fill:#142A3B;}
	.st6{fill:#0CB04A;}
</style>
<g>
	<g id="group-80svg">
		<path id="path-1_147_" class="st0" d="M1267.1,777.5c-551.4,0-998.3,446.6-998.3,989h1996.7
			C2265.5,1224.1,1818.5,777.5,1267.1,777.5z"/>
		<path id="path-2_147_" class="st1" d="M501,1611.8c-21.9,0-39.6-17.5-39.6-39.2c0-353.1,290-640.4,646.5-640.4
			c21.9,0,39.6,17.5,39.6,39.2c0,21.7-17.7,39.2-39.6,39.2c-312.8,0-567.4,252.1-567.4,562C540.6,1594.3,522.9,1611.8,501,1611.8z"
			/>
		<path id="path-3_147_" class="st2" d="M1475.9,516c0,114.2-93.5,206.8-208.8,206.8c-115.3,0-208.7-92.6-208.7-206.8
			s93.5-206.8,208.7-206.8C1382.4,309.2,1475.9,401.8,1475.9,516z"/>
		<path id="path-4_146_" class="st3" d="M1703.6,877.6c43.9,38.1,84.5,79.8,121.1,124.8c202.7,248.6,20.6,619.5-302,619.5H279.6
			c-7.1,47.3-10.8,95.6-10.8,144.7h1996.7C2265.5,1378.1,2036.2,1038.9,1703.6,877.6z"/>
		<path id="path-5_146_" class="st4" d="M1373.5,338.3c18.5,30.9,29.4,66.8,29.4,105.4c0,114.2-93.5,206.8-208.8,206.8
			c-38.9,0-75.2-10.7-106.4-29.1c36.4,60.7,103,101.4,179.4,101.4c115.3,0,208.8-92.6,208.8-206.8
			C1475.9,440.4,1434.7,374.4,1373.5,338.3z"/>
		<path id="path-6_144_" class="st1" d="M1238.3,492.3c-22.8,22.6-59.7,22.6-82.5,0s-22.8-59.2,0-81.7c22.8-22.6,59.7-22.6,82.5,0
			C1261.1,433.1,1261.1,469.7,1238.3,492.3z"/>
		<path id="path-7_144_" class="st5" d="M2433.4,1904.7H114.6v-137.2h2318.9V1904.7z"/>
		<path id="path-8_141_" class="st6" d="M508.7,1876.9h-130c-25.1,0-45.4,23.4-45.4,52.3c0,28.9,20.3,52.3,45.4,52.3h6.1
			c25.1,0,45.4,23.4,45.4,52.3c0,28.9-20.3,52.3-45.4,52.3H105.1c-25.1,0-45.4,23.4-45.4,52.3c0,28.9,20.3,52.3,45.4,52.3h336h686.7
			c25.1,0,45.4-23.4,45.4-52.3c0-28.9-20.3-52.3-45.4-52.3h-77.6c-25.1,0-45.4-23.4-45.4-52.3c0-28.9,20.3-52.3,45.4-52.3h369.3
			c25.1,0,45.4-23.4,45.4-52.3c0-28.9-20.3-52.3-45.4-52.3h-87.3H508.7z"/>
		<path id="path-9_135_" class="st6" d="M1622.4,2185.4c-41.2,0-74.6-16.3-74.6-36.5c0-20.1,33.4-36.5,74.6-36.5H1851
			c41.2,0,74.6,16.3,74.6,36.5c0,20.1-33.4,36.5-74.6,36.5H1622.4z"/>
		<path id="path-10_123_" class="st6" d="M2083,598h-46.6c-9,0-16.3,5.4-16.3,12.2c0,6.7,7.3,12.2,16.3,12.2h2.2
			c9,0,16.3,5.4,16.3,12.2c0,6.7-7.3,12.2-16.3,12.2h-100.1c-9,0-16.3,5.5-16.3,12.2c0,6.7,7.3,12.2,16.3,12.2h120.3h246
			c9,0,16.3-5.4,16.3-12.2c0-6.7-7.3-12.2-16.3-12.2H2277c-9,0-16.3-5.4-16.3-12.2c0-6.7,7.3-12.2,16.3-12.2h132.3
			c9,0,16.3-5.4,16.3-12.2c0-6.7-7.3-12.2-16.3-12.2H2378H2083z"/>
	</g>
</g>
</svg>
