<svg width="48" height="48" viewBox="0 0 48 48" fill="none" xmlns="http://www.w3.org/2000/svg">
<path d="M6 6H42C43.6569 6 45 7.34315 45 9V33H3V9C3 7.34315 4.34315 6 6 6Z" fill="#1962A4" stroke="#145085" stroke-width="2"/>
<path d="M13 21H14C16.7614 21 19 23.2386 19 26V33H8V26C8 23.2386 10.2386 21 13 21Z" stroke="white" stroke-width="2"/>
<circle cx="13.0909" cy="13.1818" r="3.90909" stroke="white" stroke-width="2"/>
<mask id="path-4-inside-1_1311_79" fill="white">
<path d="M0 33C0 32.4477 0.447715 32 1 32H47C47.5523 32 48 32.4477 48 33V38.0909C48 40.3 46.2091 42.0909 44 42.0909H4C1.79086 42.0909 0 40.3 0 38.0909V33Z"/>
</mask>
<path d="M0 33C0 32.4477 0.447715 32 1 32H47C47.5523 32 48 32.4477 48 33V38.0909C48 40.3 46.2091 42.0909 44 42.0909H4C1.79086 42.0909 0 40.3 0 38.0909V33Z" stroke="#145085" stroke-width="4" mask="url(#path-4-inside-1_1311_79)"/>
<path d="M4.36353 37.0455H43.0908" stroke="#1962A4" stroke-width="2" stroke-linecap="round"/>
<circle cx="26.1818" cy="13.7273" r="2.52273" stroke="white" stroke-width="1.5"/>
<path d="M29.4545 12.9773L28.7045 12.9773L28.7045 14.4773L29.4545 14.4773L29.4545 12.9773ZM40.3636 14.4773C40.7778 14.4773 41.1136 14.1415 41.1136 13.7273C41.1136 13.313 40.7778 12.9773 40.3636 12.9773L40.3636 14.4773ZM29.4545 13.7273L29.4545 14.4773L40.3636 14.4773L40.3636 13.7273L40.3636 12.9773L29.4545 12.9773L29.4545 13.7273Z" fill="white"/>
<circle cx="26.1818" cy="26.8181" r="2.52273" stroke="white" stroke-width="1.5"/>
<path d="M29.4545 26.0681L28.7045 26.0681L28.7045 27.5681L29.4545 27.5681L29.4545 26.0681ZM40.3636 27.5681C40.7778 27.5681 41.1136 27.2324 41.1136 26.8181C41.1136 26.4039 40.7778 26.0681 40.3636 26.0681L40.3636 27.5681ZM29.4545 26.8181L29.4545 27.5681L40.3636 27.5681L40.3636 26.8181L40.3636 26.0681L29.4545 26.0681L29.4545 26.8181Z" fill="white"/>
<circle cx="38.1818" cy="20.2727" r="2.52273" transform="rotate(-180 38.1818 20.2727)" stroke="white" stroke-width="1.5"/>
<path d="M34.9091 21.0227L35.6591 21.0227L35.6591 19.5227L34.9091 19.5227L34.9091 21.0227ZM24 19.5227C23.5858 19.5227 23.25 19.8585 23.25 20.2727C23.25 20.6869 23.5858 21.0227 24 21.0227L24 19.5227ZM34.9091 20.2727L34.9091 19.5227L24 19.5227L24 20.2727L24 21.0227L34.9091 21.0227L34.9091 20.2727Z" fill="white"/>
</svg>
