<svg width="163" height="46" viewBox="0 0 163 46" fill="none" xmlns="http://www.w3.org/2000/svg">
<path d="M14.5393 0.183549L3.72636 5.38877C3.47541 5.51024 3.25473 5.68617 3.08039 5.90375C2.90606 6.12132 2.78248 6.37506 2.71864 6.64645L0.046071 18.3444C-0.0156582 18.6167 -0.0153515 18.8994 0.046967 19.1715C0.109285 19.4436 0.23202 19.6983 0.406082 19.9165L7.88771 29.2988C8.06215 29.5175 8.2836 29.6941 8.53561 29.8155C8.78763 29.9368 9.06375 29.9999 9.34347 30H21.3417C21.6215 29.9999 21.8976 29.9368 22.1496 29.8155C22.4016 29.6941 22.6231 29.5175 22.7975 29.2988L30.2791 19.9165C30.4532 19.6983 30.5759 19.4436 30.6382 19.1715C30.7006 18.8994 30.7009 18.6167 30.6391 18.3444L27.9666 6.64645C27.9033 6.37503 27.7801 6.1212 27.606 5.90358C27.4319 5.68596 27.2113 5.51006 26.9604 5.38877L16.1491 0.183549C15.898 0.0627327 15.6229 0 15.3442 0C15.0655 0 14.7904 0.0627327 14.5393 0.183549Z" fill="#46CDCF"/>
<path opacity="0.8" d="M9.37158 24.5354C12.2976 24.3402 15.2333 24.3375 18.1596 24.5275C17.46 24.8105 10.351 24.8293 9.37158 24.5354Z" fill="white"/>
<path opacity="0.7" d="M15.8189 25.2114C14.4606 25.3625 13.0897 25.3625 11.7314 25.2114V25.0887H15.8189V25.2114Z" fill="white"/>
<path d="M18.1646 8.44971C19.1235 12.4884 21.1924 14.5982 25.2547 15.1547" stroke="black" stroke-width="0.2" stroke-miterlimit="10"/>
<path d="M18.0923 12.2855C18.4146 13.7712 22.6514 17.3162 24.6951 17.4907" stroke="black" stroke-width="0.2" stroke-miterlimit="10"/>
<path d="M17.2559 15.5382C18.0985 16.9201 19.3609 18.0033 20.6705 18.1762" stroke="black" stroke-width="0.2" stroke-miterlimit="10"/>
<path d="M9.7836 9.40549C9.98771 9.41055 10.1827 9.49122 10.3307 9.63187C10.6231 9.89441 10.7772 9.91014 11.0004 9.68061C10.7954 9.54895 10.6056 9.39499 10.4344 9.22156C10.1656 8.8867 9.84805 8.98574 9.51162 9.0219C9.45285 9.02029 9.3953 9.03893 9.34865 9.07471C9.30199 9.11049 9.26906 9.16123 9.25537 9.21841L9.50062 9.45423C9.59339 9.43 9.68806 9.4137 9.7836 9.40549Z" fill="#FF2E63"/>
<path d="M9.18782 9.68215C9.2317 9.64394 9.27968 9.61073 9.33088 9.58311C9.34784 9.55036 9.37188 9.52181 9.40124 9.49951C9.43061 9.47722 9.46457 9.46174 9.50067 9.4542L9.25542 9.21838C9.23184 9.30328 9.23498 9.40074 9.21455 9.48092C9.19783 9.54847 9.1873 9.61741 9.18311 9.68687L9.18782 9.68215Z" fill="#FF2E63"/>
<path d="M14.5015 6.44994V7.03947L24.7641 10.4368V4.50525L14.5015 6.44994Z" fill="url(#paint0_linear)"/>
<path d="M7.81365 23.4978H7.9237H7.83252H7.79479L5.73219 23.644C5.68628 23.6468 5.64188 23.6614 5.60328 23.6864C5.58913 23.6959 5.57812 23.7053 5.57812 23.7131C5.57812 23.721 5.60014 23.7336 5.62372 23.7446C5.65758 23.7609 5.69462 23.7695 5.73219 23.7697C6.53239 23.7996 16.6661 24.1502 21.895 23.7572C21.9228 23.7559 21.9504 23.7506 21.9767 23.7414C22.0144 23.7257 22.104 23.7116 22.104 23.6974C22.104 23.6833 22.0412 23.6613 21.9987 23.6471C21.9759 23.6391 21.9521 23.6343 21.928 23.633L19.0982 23.4758C19.0778 23.4734 19.0572 23.4734 19.0369 23.4758C17.666 23.6927 7.81365 23.4978 7.81365 23.4978Z" fill="white"/>
<path d="M13.2124 7.31462C13.2124 7.29104 13.2203 7.26746 13.225 7.24231C13.2188 7.26603 13.2146 7.29022 13.2124 7.31462Z" fill="black"/>
<path d="M13.9986 7.0647L13.876 7.10243C13.9596 7.1281 14.0415 7.15908 14.1212 7.19518C14.0833 7.14896 14.0424 7.10537 13.9986 7.0647Z" fill="#0B102D"/>
<path d="M13.876 7.09603C13.7834 7.06514 13.6872 7.04612 13.5898 7.03943C13.6008 7.08502 13.6103 7.13061 13.6166 7.17463L13.876 7.09603Z" fill="#0B102D"/>
<path d="M14.121 7.18889C14.0413 7.15279 13.9594 7.12181 13.8757 7.09613L13.6163 7.17474C13.6163 7.13072 13.6006 7.08512 13.5896 7.03953C13.4245 7.0301 13.2752 7.07412 13.2264 7.24234C13.2264 7.26749 13.217 7.29107 13.2139 7.31465L14.121 7.18889Z" fill="#0B102D"/>
<path d="M14.2908 7.17317V6.37769H14.0141C14.0015 6.37769 13.9968 6.37769 13.9968 6.39341C13.9968 6.40913 13.9968 6.43271 13.9968 6.45157C13.9968 6.47044 13.9968 6.46729 13.9827 6.46572H13.2862C13.2563 6.46572 13.2563 6.46572 13.2563 6.49717V7.18889C13.2563 7.21021 13.2606 7.23132 13.269 7.25092C13.2774 7.27053 13.2897 7.28822 13.3051 7.30293C13.3206 7.31763 13.3389 7.32904 13.3588 7.33647C13.3788 7.34389 13.4001 7.34717 13.4214 7.3461H13.6777C13.7218 7.34579 13.7646 7.33123 13.7997 7.3046C13.8348 7.27796 13.8604 7.24068 13.8726 7.19832C13.8836 7.16374 13.8899 7.12758 13.8993 7.09299C13.8993 7.08513 13.8993 7.07727 13.9151 7.07884H13.9827C13.9846 7.07858 13.9865 7.07877 13.9884 7.07939C13.9902 7.08001 13.9919 7.08104 13.9932 7.08241C13.9946 7.08378 13.9956 7.08545 13.9963 7.08728C13.9969 7.08912 13.9971 7.09107 13.9968 7.09299C13.9968 7.11343 13.9968 7.13387 13.9968 7.1543C13.9968 7.17474 13.9968 7.16688 14.0094 7.16688H14.2908V7.17317ZM13.8192 7.0867C13.8192 7.09456 13.8192 7.09928 13.8192 7.10557C13.8192 7.11186 13.8066 7.14801 13.8034 7.17159C13.7982 7.19758 13.7843 7.22102 13.764 7.23814C13.7438 7.25525 13.7183 7.26504 13.6918 7.26592H13.4324C13.4222 7.26637 13.412 7.26468 13.4024 7.26097C13.3929 7.25725 13.3842 7.25159 13.377 7.24435C13.3697 7.23711 13.3641 7.22843 13.3603 7.21888C13.3566 7.20934 13.3549 7.19912 13.3554 7.18889C13.3554 7.16216 13.3554 7.13544 13.3554 7.10871C13.3554 7.08199 13.3554 7.0867 13.3774 7.0867H13.8223H13.8192ZM13.5299 6.73141H13.6069C13.6148 6.73141 13.6195 6.73141 13.6195 6.74398C13.6179 6.76596 13.6179 6.78803 13.6195 6.81001C13.6195 6.81945 13.6195 6.82259 13.6054 6.82259H13.4481C13.4371 6.82259 13.434 6.82259 13.434 6.80687C13.434 6.79114 13.434 6.76757 13.434 6.74713C13.434 6.72669 13.434 6.73141 13.4497 6.73141H13.5299ZM14.033 6.81159L14.0251 6.81945C14.0251 6.81945 14.0172 6.81944 14.0172 6.80844C14.0172 6.79743 14.0172 6.79586 14.0031 6.79429C13.9889 6.79272 14.0031 6.79429 13.9952 6.78486C13.9874 6.77543 13.9952 6.78486 14.0047 6.78486C14.0107 6.78648 14.016 6.78992 14.0199 6.79471C14.0239 6.7995 14.0262 6.8054 14.0267 6.81159H14.033ZM14.0078 6.85561C13.9764 6.85561 13.9654 6.8556 13.9685 6.8273C13.9717 6.79901 13.9685 6.81945 13.9685 6.8163C13.9695 6.8199 13.9695 6.8237 13.9685 6.8273C13.9685 6.83674 13.9685 6.83988 13.9811 6.84145C13.9937 6.84302 13.9968 6.84932 14.0015 6.85561H14.0078Z" fill="#EAEAEA"/>
<path d="M9.93164 13.5684L9.94578 13.5448L9.78857 13.669V13.68L9.93164 13.5684Z" fill="black"/>
<path d="M8.91414 14.3687L8.80566 14.4551L8.90313 14.3781L8.91414 14.3687Z" fill="black"/>
<path d="M9.9313 13.5684L9.78981 13.68V13.6674L8.91415 14.3686L8.90315 14.378L8.80568 14.455L8.75537 14.4959L9.9313 13.5684Z" fill="black"/>
<path d="M13.6103 12.8893L13.9247 12.0372C13.8663 12.0499 13.8068 12.0572 13.7471 12.0592L13.5898 12.1803V12.4837L13.6103 12.8893Z" fill="#111738"/>
<path d="M9.96752 12.7242C9.98953 12.7132 9.92035 12.3673 9.81817 12.3091C9.53047 12.1441 9.5572 11.9868 9.71127 11.751C9.83648 11.571 9.93054 11.3712 9.98953 11.1599C10.098 10.7009 9.91564 10.4682 9.48174 10.443C9.42729 10.4319 9.37447 10.414 9.32453 10.3896C9.2886 10.1385 9.28543 9.88376 9.3151 9.63184L9.18304 9.69787C9.15789 10.061 9.24121 10.4462 8.98495 10.77C8.96609 10.792 8.98495 10.8424 8.98495 10.8785C9.03683 11.2008 9.09343 11.5215 9.14216 11.8438C9.17832 12.0906 9.08557 12.2227 8.81674 12.2604C8.71613 12.2745 8.55891 12.4255 8.56206 12.5104C8.5641 12.5844 8.58249 12.657 8.61592 12.723C8.64936 12.7891 8.697 12.8469 8.75543 12.8924C9.27108 13.1785 9.36855 13.9928 8.91264 14.3654L9.78987 13.6658C9.81502 13.2823 9.54305 12.9505 9.96752 12.7242Z" fill="#0B102D"/>
<path d="M13.7437 11.6237C13.7437 11.2652 13.7688 10.9037 13.7358 10.5484C13.7165 10.4269 13.7298 10.3026 13.7742 10.188C13.8187 10.0733 13.8928 9.97258 13.9889 9.89594C14.1288 9.78118 14.2735 9.6727 14.3631 9.60196V9.05958C14.297 9.03757 14.1508 8.98884 14.0031 8.94639C13.8553 8.90394 13.7264 8.87407 13.566 8.8332C14.2703 7.84907 14.3914 7.51578 14.1241 7.1825L13.2154 7.30826C13.206 7.35542 13.1981 7.40259 13.1919 7.44975C13.1337 7.84592 13.1793 8.25624 13.1384 8.65555C13.1181 8.72033 13.0845 8.78019 13.0399 8.83134C12.9952 8.88248 12.9405 8.9238 12.879 8.95268C12.7218 9.03757 12.5269 9.05172 12.552 9.3064C12.5724 9.51549 12.4876 9.75759 12.8161 9.8252C12.8837 9.83777 12.9733 10.0249 12.956 10.1223C12.8806 10.7779 12.7249 11.4303 12.7061 12.0859C12.7033 12.1418 12.697 12.1974 12.6872 12.2525C12.6872 12.2431 12.6872 12.2352 12.6872 12.2242C12.7422 11.957 13.2736 11.685 13.7437 11.6237Z" fill="#0B102D"/>
<path d="M21.1031 17.8178L21.0779 17.7455L25.942 14.845L25.8681 14.6878C25.7469 14.7078 25.6286 14.7427 25.5159 14.7915C24.7205 15.2522 23.9438 15.7348 23.1358 16.186C22.0825 16.7771 21.0166 17.3446 19.9523 17.9153C19.8481 17.9651 19.7344 17.9919 19.619 17.9939C19.402 18.0018 19.3203 18.0945 19.2621 18.3083C18.9681 19.4088 18.1507 20.0471 17.0062 20.1021C16.8002 20.1131 16.5927 20.1477 16.3868 20.1493C15.8067 20.1571 15.2281 20.1493 14.6291 20.1493C14.5726 19.7106 14.4955 19.2767 14.4719 18.8397C14.4758 18.7658 14.4971 18.6938 14.534 18.6296C14.5708 18.5655 14.6223 18.5109 14.6842 18.4703C16.3207 17.7267 17.308 16.4422 17.8001 14.7475C18.2984 13.0292 18.245 11.2889 18.0076 9.53759C17.9557 9.15085 17.7906 8.75154 18.3346 8.5L18.1774 8.39624L13.851 11.6772L13.7456 11.6222L12.4958 12.6786V12.6692C12.3087 12.8972 12.0242 13.0276 11.7616 13.199C11.7729 13.8256 11.7144 14.4515 11.5871 15.0651C12.2836 15.3103 12.2741 15.3088 12.172 16.0256C11.9817 17.3682 11.8041 18.7124 11.6107 20.1383C11.1391 19.7468 10.4961 19.5912 10.4945 18.8491C10.496 18.8366 10.496 18.8239 10.4945 18.8114C10.3373 18.1244 10.3876 17.5207 10.831 16.8934C11.1973 16.3715 11.3419 15.6924 11.5919 15.0651C11.7196 14.4542 11.7792 13.8309 11.7695 13.2069H11.7601C11.8135 12.7981 11.5258 12.3406 11.9912 12.0089C11.6029 12.2557 11.2586 12.5246 10.9143 12.795L9.93328 13.5637L8.75578 14.4913L8.80609 14.4504C8.14581 14.9723 7.48081 15.488 6.8221 16.0099C6.7303 16.092 6.64416 16.1803 6.56428 16.274L6.64603 16.3574L7.66946 15.5587L7.74964 15.6593L7.0815 16.2457C8.37848 16.7079 9.30759 17.8178 9.10007 18.8035C9.07492 18.4891 9.0419 18.2973 8.7039 18.2847C7.42107 18.2329 6.14138 18.1181 4.85855 18.0662C3.95144 18.0301 3.88542 18.2077 3.95302 18.967C3.94966 19.1105 3.99139 19.2513 4.07234 19.3698C4.15328 19.4883 4.26936 19.5783 4.40421 19.6273C5.16353 19.9858 5.8977 20.4008 6.61773 20.8331C6.8049 20.9404 6.95911 21.0969 7.0636 21.2856C7.16808 21.4744 7.21886 21.6882 7.21041 21.9037C7.23124 22.2005 7.30805 22.4907 7.43679 22.7589C7.56103 23.0126 7.70177 23.2579 7.85811 23.4931C7.85811 23.4931 17.8677 23.6912 19.1159 23.4711C20.4019 22.7982 20.8955 21.6836 21.2854 20.4951C21.3907 20.1807 21.5087 19.8663 21.6281 19.5519C21.7137 19.2983 21.8528 19.066 22.0358 18.8707C22.2189 18.6754 22.4417 18.5217 22.6893 18.42C23.2993 18.1731 23.9234 17.9578 24.546 17.7408C24.7393 17.6732 24.8855 17.6119 24.7393 17.3525L21.1031 17.8178ZM16.1462 17.211C16.4465 16.1593 16.2877 15.0604 16.7971 14.0589C17.2891 15.4235 17.0722 16.4973 16.1462 17.211ZM17.2546 15.5383C17.0738 14.3765 16.7499 13.3122 17.3803 12.2856C18.017 13.3531 17.7749 14.3938 17.2561 15.5383H17.2546ZM17.9117 13.0968C17.3253 11.9963 17.5108 11.0012 17.7969 9.99821H17.9117V13.0968ZM13.59 12.1803L13.7472 12.0592L15.6903 10.5532L15.7815 10.4824L16.2736 10.102L16.5377 9.89917L17.5485 9.11312L18.1271 8.63363L17.5485 9.11312L17.6209 9.05652C17.4998 9.57689 16.9134 10.0438 16.272 10.0973L15.7799 10.4777C15.379 11.2512 14.593 11.902 13.9248 12.0325L13.6104 12.8846C13.6937 14.801 13.7928 17.09 13.8934 19.4135L14.9514 17.6842C15.3539 17.0066 15.7501 16.3353 16.1462 15.6656C16.382 16.9925 15.8145 17.9578 14.6087 18.2643C14.7235 18.0694 14.8382 17.8776 14.9514 17.6842L13.8934 19.4135C13.9044 19.6478 13.9138 19.8851 13.9248 20.1162L13.8211 20.1964C13.7456 20.1162 13.6026 20.0392 13.6026 19.9559C13.5916 17.4625 13.5916 14.9676 13.5916 12.927L13.59 12.1803ZM13.0948 15.3386H13.4737L13.4265 15.7144L13.0445 15.7049L13.0948 15.3386ZM13.0319 15.837H13.4281L13.3778 16.2127L12.9784 16.2017L13.0319 15.837ZM12.9753 19.6761L12.4879 19.6651L12.5524 19.3003H13.0382L12.9753 19.6761ZM12.9753 19.7955V20.1398H12.4549C12.4172 19.7279 12.4188 19.7279 12.9784 19.7987L12.9753 19.7955ZM12.5603 19.1667L12.6247 18.8004H13.1105L13.0492 19.1761L12.5603 19.1667ZM12.6546 18.6668L12.7175 18.3005H13.1781L13.1184 18.6762L12.6546 18.6668ZM13.1765 18.1606L12.7128 18.1511L12.7741 17.7848H13.2347L13.1765 18.1606ZM13.2095 17.6308L12.7678 17.6213L12.8259 17.255H13.2646L13.2095 17.6308ZM12.8558 17.145L12.9156 16.7802H13.3542L13.2992 17.156L12.8558 17.145ZM12.9281 16.634L12.9863 16.2677H13.4265L13.3699 16.6435L12.9281 16.634ZM12.5713 15.3182H12.9486L12.9014 15.6939L12.5194 15.6845L12.5713 15.3182ZM12.4832 15.815H12.8794L12.8275 16.1907L12.4298 16.1813L12.4832 15.815ZM12.3795 16.252H12.8181L12.7631 16.6278L12.3213 16.6183L12.3795 16.252ZM12.3072 16.7645H12.7473L12.6907 17.1403L12.249 17.1308L12.3072 16.7645ZM12.2191 17.2362H12.6577L12.6027 17.6119L12.1594 17.6025L12.2191 17.2362ZM12.1374 17.766H12.598L12.5398 18.1417L12.0682 18.1323L12.1374 17.766ZM12.0792 18.28H12.5414L12.4817 18.6558L12.01 18.6463L12.0792 18.28ZM11.9534 18.78H12.4392L12.3779 19.1557L11.889 19.1463L11.9534 18.78ZM11.8921 19.2893H12.3779L12.3166 19.6651L11.8277 19.654L11.8921 19.2893ZM12.337 19.7877L12.2741 20.132H11.7632C11.7443 19.7327 11.7569 19.7264 12.3402 19.7987L12.337 19.7877ZM9.28244 14.4771C9.34846 16.0932 9.41502 17.7104 9.48209 19.3286L9.36419 19.3491C9.30627 19.2459 9.2659 19.1338 9.24471 19.0173C9.23999 17.5144 9.24313 16.0021 9.28558 14.4881L9.28244 14.4771ZM10.1722 20.6398C9.68142 20.2765 9.2092 19.8887 8.75735 19.478C8.4684 19.2043 8.09446 19.0379 7.69776 19.0063C6.98088 18.912 6.26558 18.791 5.55027 18.6825V18.6731V18.5677C6.49353 18.6872 7.42107 18.802 8.3549 18.9325C8.46442 18.9714 8.56268 19.0368 8.64102 19.1227C9.05605 19.4748 9.47738 19.8207 9.87512 20.1917C10.2438 20.5234 10.7233 20.7051 11.2193 20.7011C12.293 20.7404 13.3683 20.7844 14.4546 20.8268H14.3886H14.4546C13.1298 20.9622 11.7938 20.9463 10.4725 20.7797C10.3622 20.7592 10.2589 20.711 10.1722 20.6398ZM13.7079 23.2573H13.656C12.8038 23.2636 11.9524 23.2048 11.1092 23.0812H16.283C15.4293 23.1955 14.5692 23.2543 13.7079 23.2573ZM13.6073 22.7668H13.5821C12.7293 22.7751 11.8773 22.7109 11.0353 22.575H16.3412C15.435 22.6981 14.5217 22.7611 13.6073 22.7637V22.7668ZM11.0228 22.0924H16.1352C15.2819 22.2165 14.4208 22.2785 13.5585 22.2779H13.513C12.6793 22.2795 11.8467 22.2165 11.0228 22.0892V22.0924ZM13.5853 21.8063H13.5475C12.6082 21.8095 11.6698 21.7449 10.7398 21.6129H16.4261C15.4844 21.7394 14.5354 21.8029 13.5853 21.8031V21.8063ZM18.0831 20.1823C16.97 20.6115 15.8035 20.6036 14.6354 20.5942C15.4121 20.5061 16.1902 20.437 16.9637 20.3253C17.8472 20.1933 18.6757 19.9245 19.2668 19.1856C19.0247 19.7059 18.5877 19.9858 18.0831 20.1791V20.1823Z" fill="#111738"/>
<path d="M12.502 12.677C12.6004 12.5545 12.6644 12.408 12.6875 12.2526C12.6573 12.4059 12.594 12.5508 12.502 12.677Z" fill="#2B2E4A"/>
<path d="M13.7436 11.6238C13.272 11.6788 12.7422 11.9508 12.6934 12.2243C12.6934 12.2353 12.6934 12.2432 12.6934 12.2526C12.6688 12.406 12.6043 12.5502 12.5063 12.6708V12.6802L13.7436 11.6238Z" fill="#111738"/>
<path d="M13.4482 7.37281C13.4873 7.37281 13.5189 7.34114 13.5189 7.30207C13.5189 7.263 13.4873 7.23132 13.4482 7.23132C13.4091 7.23132 13.3774 7.263 13.3774 7.30207C13.3774 7.34114 13.4091 7.37281 13.4482 7.37281Z" fill="#46CDCF"/>
<path d="M13.7031 7.37281C13.7421 7.37281 13.7738 7.34114 13.7738 7.30207C13.7738 7.263 13.7421 7.23132 13.7031 7.23132C13.664 7.23132 13.6323 7.263 13.6323 7.30207C13.6323 7.34114 13.664 7.37281 13.7031 7.37281Z" fill="#46CDCF"/>
<path d="M34.7832 20.3426C36.1032 21.0788 37.5872 21.4708 39.0986 21.4824C41.1911 21.4824 42.356 20.5014 42.356 19.0456C42.356 17.6952 41.4567 16.8997 39.1788 16.0791C36.2389 15.0195 34.3587 13.4584 34.3587 10.8912C34.3587 7.97806 36.7955 5.75354 40.6613 5.75354C42.5949 5.75354 44.0256 6.17644 44.9515 6.65436L44.1576 9.27504C43.0618 8.70719 41.8436 8.41627 40.6094 8.42768C38.5436 8.42768 37.6428 9.54073 37.6428 10.5736C37.6428 11.9492 38.6757 12.5859 41.059 13.5119C44.1576 14.6784 45.6668 16.2394 45.6668 18.8083C45.6668 21.6695 43.4958 24.1534 38.8879 24.1534C37.0014 24.1534 35.0473 23.6236 34.0679 23.0403L34.7832 20.3426Z" fill="#111738"/>
<path d="M50.9395 18.3571C51.0197 20.6869 52.8465 21.6931 54.9122 21.6931C56.4214 21.6931 57.5077 21.4824 58.4872 21.1114L58.9588 23.3627C57.5222 23.9096 55.9949 24.1791 54.4579 24.1566C50.2729 24.1566 47.811 21.5878 47.811 17.6418C47.811 14.0668 49.9821 10.7041 54.1136 10.7041C58.2969 10.7041 59.6741 14.147 59.6741 16.9799C59.6788 17.4412 59.6436 17.9019 59.5688 18.3571H50.9395ZM56.6069 16.0791C56.6337 14.8875 56.1039 12.9349 53.9344 12.9349C51.9221 12.9349 51.0747 14.7617 50.9474 16.0791H56.6069Z" fill="#111738"/>
<path d="M69.5594 23.8861L69.3487 22.4571H69.2685C68.4825 23.4632 67.1242 24.1785 65.4546 24.1785C62.8607 24.1785 61.4033 22.292 61.4033 20.3379C61.4033 17.0805 64.2897 15.4392 69.0563 15.4644V15.2521C69.0563 14.4048 68.712 13.0009 66.4356 13.0009C65.2145 13.003 64.0164 13.3325 62.966 13.9551L62.3371 11.836C63.2898 11.2543 64.9578 10.6978 66.9969 10.6978C71.1283 10.6978 72.32 13.3184 72.32 16.1262V20.7875C72.3043 21.823 72.3663 22.8583 72.5055 23.8845L69.5594 23.8861ZM69.1365 17.5836C66.8318 17.5317 64.634 18.0347 64.634 19.9936C64.634 21.2654 65.4546 21.8471 66.4875 21.8471C67.0441 21.8576 67.5898 21.6917 68.0464 21.3731C68.5031 21.0546 68.8472 20.5998 69.0296 20.0738C69.1023 19.8424 69.1384 19.601 69.1365 19.3585V17.5836Z" fill="#111738"/>
<path d="M75.7617 15.153C75.7617 13.4049 75.735 12.1661 75.6548 10.9948H78.4846L78.5899 13.4583H78.6952C79.3319 11.63 80.8411 10.704 82.2183 10.704C82.4762 10.7017 82.7335 10.728 82.9855 10.7826V13.8545C82.6724 13.7863 82.3532 13.751 82.0328 13.7492C80.4701 13.7492 79.4105 14.7553 79.1197 16.2126C79.0534 16.5441 79.0176 16.8808 79.0128 17.2188V23.8861H75.7617V15.153Z" fill="#111738"/>
<path d="M94.4366 23.4947C93.7481 23.8091 92.3929 24.1566 90.7831 24.1566C86.7569 24.1566 84.1362 21.5878 84.1362 17.5883C84.1362 13.7225 86.7837 10.7041 91.3129 10.7041C92.5045 10.7041 93.7229 10.9682 94.4571 11.3125L93.8754 13.7493C93.1016 13.4014 92.2602 13.2296 91.4119 13.2462C88.9233 13.2462 87.4392 15.073 87.4659 17.4295C87.4659 20.0785 89.1953 21.5878 91.4119 21.5878C92.2937 21.5993 93.1684 21.428 93.9807 21.0847L94.4366 23.4947Z" fill="#111738"/>
<path d="M96.8447 5.09009H100.129V12.7698H100.182C100.585 12.1456 101.141 11.6347 101.797 11.2857C102.474 10.8994 103.242 10.6988 104.021 10.7041C106.222 10.7041 108.524 12.1598 108.524 16.2913V23.8861H105.266V16.6545C105.266 14.7679 104.578 13.3703 102.776 13.3703C102.218 13.3721 101.675 13.5495 101.224 13.8774C100.772 14.2053 100.435 14.6671 100.261 15.1971C100.158 15.5135 100.114 15.8458 100.129 16.1781V23.8814H96.8447V5.09009Z" fill="#111738"/>
<path d="M111.997 5.09009H115.281V23.8861H111.997V5.09009Z" fill="#46CDCF"/>
<path d="M122.272 7.3932C122.272 8.37262 121.558 9.14138 120.419 9.14138C119.334 9.14138 118.619 8.37262 118.619 7.3932C118.619 6.38706 119.361 5.61987 120.445 5.61987C121.558 5.61987 122.247 6.38706 122.272 7.3932Z" fill="#111738"/>
<path d="M122.088 10.9949H118.804V23.8908H122.088V10.9949Z" fill="#46CDCF"/>
<path d="M137.369 10.9949C137.317 11.869 137.264 12.9286 137.264 14.702V22.0122C137.264 24.7131 136.707 26.6452 135.357 27.8636C134.007 29.0552 132.153 29.4262 130.378 29.4262C128.737 29.4262 126.989 29.082 125.877 28.3934L126.591 25.9299C127.742 26.5684 129.035 26.9053 130.351 26.9093C132.471 26.9093 134.06 25.7963 134.06 23.0168V21.9053H134.007C133.265 23.0435 131.941 23.8123 130.246 23.8123C127.042 23.8123 124.764 21.1633 124.764 17.5097C124.764 13.2729 127.518 10.7041 130.617 10.7041C132.576 10.7041 133.742 11.6568 134.351 12.7164H134.404L134.536 10.9949H137.369ZM134.007 16.1593C134.012 15.8645 133.976 15.5703 133.901 15.2852C133.557 14.0936 132.629 13.1927 131.252 13.1927C129.425 13.1959 128.08 14.7821 128.08 17.4044C128.08 19.6053 129.191 21.3755 131.224 21.3755C131.817 21.3739 132.393 21.1829 132.87 20.8306C133.346 20.4782 133.698 19.9828 133.873 19.4167C133.957 19.034 134.001 18.6436 134.005 18.2518L134.007 16.1593Z" fill="#46CDCF"/>
<path d="M140.763 5.09009H144.047V12.7698H144.099C144.503 12.1458 145.059 11.6351 145.715 11.2857C146.393 10.8994 147.16 10.6988 147.94 10.7041C150.141 10.7041 152.441 12.1598 152.441 16.2913V23.8861H149.183V16.6545C149.183 14.7679 148.496 13.3703 146.695 13.3703C146.137 13.3721 145.593 13.5495 145.142 13.8774C144.69 14.2053 144.354 14.6671 144.179 15.1971C144.076 15.5134 144.031 15.8458 144.047 16.1781V23.8814H140.763V5.09009Z" fill="#46CDCF"/>
<path d="M159.521 7.31458V10.9949H162.62V13.4316H159.521V19.1242C159.521 20.6869 159.944 21.5075 161.189 21.5075C161.619 21.5123 162.046 21.4594 162.461 21.3503L162.513 23.8405C162.042 24.026 161.189 24.1549 160.155 24.1549C158.963 24.1549 157.954 23.7572 157.349 23.0953C156.66 22.3533 156.341 21.1884 156.341 19.4936V13.4316H154.491V10.9949H156.344V8.08176L159.521 7.31458Z" fill="#46CDCF"/>
<path d="M122.489 6.21722C122.754 6.56481 122.903 6.98636 122.917 7.42302C122.909 7.62775 122.871 7.83019 122.804 8.02357L133.896 10.4415L133.953 3.89209L122.489 6.21722Z" fill="url(#paint1_linear)"/>
<path d="M4.97183 39.8575H1.47811V42.439H5.56191V43.6029H0V35.2132H5.52101V36.3887H1.47811V38.7051H4.97183V39.8575Z" fill="#FC6011"/>
<path d="M20.0104 37.3683L20.0513 38.0885C20.5187 37.5315 21.1321 37.253 21.8916 37.253C23.2081 37.253 23.878 37.9963 23.9014 39.483V43.6029H22.4817V39.5636C22.4817 39.168 22.3941 38.876 22.2188 38.6878C22.0474 38.4957 21.7651 38.3997 21.3717 38.3997C20.7991 38.3997 20.3726 38.6551 20.0922 39.1661V43.6029H18.6725V37.3683H20.0104Z" fill="#FC6011"/>
<path d="M39.1971 35.8528V37.3683H40.3129V38.4054H39.1971V41.8858C39.1971 42.124 39.2438 42.2968 39.3373 42.4044C39.4346 42.5081 39.606 42.56 39.8514 42.56C40.015 42.56 40.1805 42.5408 40.348 42.5024V43.5856C40.0247 43.674 39.7131 43.7182 39.4132 43.7182C38.3227 43.7182 37.7774 43.1247 37.7774 41.9377V38.4054H36.7374V37.3683H37.7774V35.8528H39.1971Z" fill="#FC6011"/>
<path d="M56.2513 43.7182C55.3515 43.7182 54.6212 43.4397 54.0604 42.8827C53.5034 42.3218 53.2249 41.5766 53.2249 40.6469V40.4741C53.2249 39.8518 53.3457 39.2967 53.5871 38.8088C53.8325 38.3171 54.1753 37.9349 54.6154 37.6621C55.0555 37.3894 55.5463 37.253 56.0877 37.253C56.9484 37.253 57.6125 37.5238 58.0799 38.0655C58.5512 38.6071 58.7868 39.3735 58.7868 40.3646V40.9293H54.6563C54.6991 41.444 54.8725 41.8512 55.1763 42.1509C55.484 42.4505 55.8695 42.6003 56.333 42.6003C56.9835 42.6003 57.5132 42.341 57.9222 41.8224L58.6875 42.5427C58.4343 42.9153 58.0955 43.2053 57.6709 43.4128C57.2503 43.6164 56.7771 43.7182 56.2513 43.7182ZM56.0818 38.3766C55.6923 38.3766 55.3768 38.5111 55.1354 38.78C54.8978 39.0489 54.7459 39.4234 54.6797 39.9036H57.3847V39.7999C57.3535 39.3312 57.2269 38.9778 57.0049 38.7397C56.7829 38.4976 56.4752 38.3766 56.0818 38.3766Z" fill="#FC6011"/>
<path d="M75.2685 38.6475C75.0815 38.6167 74.8887 38.6014 74.6901 38.6014C74.0396 38.6014 73.6014 38.8472 73.3755 39.3389V43.6029H71.9559V37.3683H73.3113L73.3463 38.0655C73.6891 37.5238 74.1643 37.253 74.7719 37.253C74.9744 37.253 75.1419 37.2799 75.2743 37.3337L75.2685 38.6475Z" fill="#FC6011"/>
<path d="M93.7657 40.549C93.7657 41.5132 93.5437 42.2834 93.0997 42.8596C92.6557 43.432 92.0597 43.7182 91.3119 43.7182C90.6186 43.7182 90.0636 43.4935 89.6469 43.044V46H88.2272V37.3683H89.5359L89.5943 38.0021C90.011 37.5027 90.5777 37.253 91.2944 37.253C92.0656 37.253 92.6693 37.5373 93.1055 38.1058C93.5456 38.6705 93.7657 39.4561 93.7657 40.4625V40.549ZM92.3519 40.428C92.3519 39.8057 92.2253 39.312 91.9721 38.9471C91.7228 38.5822 91.3645 38.3997 90.8971 38.3997C90.3168 38.3997 89.9 38.6359 89.6469 39.1084V41.8743C89.9039 42.3583 90.3246 42.6003 90.9088 42.6003C91.3606 42.6003 91.7131 42.4217 91.9663 42.0644C92.2233 41.7033 92.3519 41.1578 92.3519 40.428Z" fill="#FC6011"/>
<path d="M110.347 38.6475C110.16 38.6167 109.967 38.6014 109.768 38.6014C109.118 38.6014 108.68 38.8472 108.454 39.3389V43.6029H107.034V37.3683H108.389L108.425 38.0655C108.767 37.5238 109.242 37.253 109.85 37.253C110.053 37.253 110.22 37.2799 110.353 37.3337L110.347 38.6475Z" fill="#FC6011"/>
<path d="M124.819 43.6029H123.399V37.3683H124.819V43.6029ZM123.311 35.7491C123.311 35.534 123.379 35.3553 123.516 35.2132C123.656 35.0711 123.855 35 124.112 35C124.369 35 124.567 35.0711 124.708 35.2132C124.848 35.3553 124.918 35.534 124.918 35.7491C124.918 35.9604 124.848 36.1371 124.708 36.2792C124.567 36.4175 124.369 36.4866 124.112 36.4866C123.855 36.4866 123.656 36.4175 123.516 36.2792C123.379 36.1371 123.311 35.9604 123.311 35.7491Z" fill="#FC6011"/>
<path d="M141.978 41.9089C141.978 41.6592 141.873 41.469 141.662 41.3384C141.456 41.2078 141.111 41.0925 140.628 40.9927C140.145 40.8928 139.742 40.766 139.419 40.6124C138.71 40.2743 138.356 39.7845 138.356 39.143C138.356 38.6052 138.585 38.1558 139.045 37.7947C139.505 37.4336 140.089 37.253 140.798 37.253C141.553 37.253 142.163 37.4374 142.626 37.8062C143.094 38.175 143.327 38.6532 143.327 39.241H141.908C141.908 38.9721 141.807 38.7493 141.604 38.5726C141.401 38.392 141.133 38.3017 140.798 38.3017C140.486 38.3017 140.231 38.3728 140.032 38.5149C139.838 38.6571 139.74 38.8472 139.74 39.0854C139.74 39.3005 139.832 39.4676 140.015 39.5867C140.198 39.7058 140.568 39.8268 141.125 39.9497C141.682 40.0688 142.118 40.2129 142.434 40.3819C142.753 40.5471 142.989 40.7468 143.141 40.9811C143.296 41.2155 143.374 41.4997 143.374 41.8339C143.374 42.3948 143.139 42.85 142.667 43.1996C142.196 43.5453 141.579 43.7182 140.815 43.7182C140.297 43.7182 139.836 43.626 139.431 43.4416C139.026 43.2572 138.71 43.0037 138.484 42.681C138.258 42.3583 138.145 42.0107 138.145 41.638H139.524C139.544 41.9684 139.67 42.2239 139.904 42.4044C140.138 42.5811 140.447 42.6695 140.833 42.6695C141.207 42.6695 141.491 42.6003 141.686 42.462C141.881 42.3199 141.978 42.1355 141.978 41.9089Z" fill="#FC6011"/>
<path d="M159.464 43.7182C158.565 43.7182 157.834 43.4397 157.274 42.8827C156.717 42.3218 156.438 41.5766 156.438 40.6469V40.4741C156.438 39.8518 156.559 39.2967 156.8 38.8088C157.046 38.3171 157.388 37.9349 157.829 37.6621C158.269 37.3894 158.759 37.253 159.301 37.253C160.162 37.253 160.826 37.5238 161.293 38.0655C161.764 38.6071 162 39.3735 162 40.3646V40.9293H157.869C157.912 41.444 158.086 41.8512 158.389 42.1509C158.697 42.4505 159.083 42.6003 159.546 42.6003C160.197 42.6003 160.726 42.341 161.135 41.8224L161.901 42.5427C161.648 42.9153 161.309 43.2053 160.884 43.4128C160.463 43.6164 159.99 43.7182 159.464 43.7182ZM159.295 38.3766C158.906 38.3766 158.59 38.5111 158.349 38.78C158.111 39.0489 157.959 39.4234 157.893 39.9036H160.598V39.7999C160.567 39.3312 160.44 38.9778 160.218 38.7397C159.996 38.4976 159.688 38.3766 159.295 38.3766Z" fill="#FC6011"/>
<defs>
<linearGradient id="paint0_linear" x1="14.5015" y1="7.47023" x2="24.7641" y2="7.47023" gradientUnits="userSpaceOnUse">
<stop stop-color="white"/>
<stop offset="1" stop-color="#F6FCFF" stop-opacity="0"/>
</linearGradient>
<linearGradient id="paint1_linear" x1="122.489" y1="7.16677" x2="133.951" y2="7.16677" gradientUnits="userSpaceOnUse">
<stop stop-color="#46CDCF"/>
<stop offset="1" stop-color="#F6FCFF" stop-opacity="0"/>
</linearGradient>
</defs>
</svg>
