<svg id="Layer_1" data-name="Layer 1" xmlns="http://www.w3.org/2000/svg" xmlns:xlink="http://www.w3.org/1999/xlink" viewBox="0 0 511 511"><defs><style>.cls-1{fill:#46cdcf;}.cls-2,.cls-3,.cls-7{fill:#fff;}.cls-2{opacity:0.8;}.cls-3{opacity:0.7;}.cls-12,.cls-4,.cls-9{fill:none;}.cls-4{stroke:#000;stroke-width:0.51px;}.cls-12,.cls-4{stroke-miterlimit:10;}.cls-5{fill:#ff2e63;}.cls-6{fill:url(#linear-gradient);}.cls-8{fill:#0b102d;}.cls-10{fill:#eaeaea;}.cls-11{fill:#111738;}.cls-12{stroke:#fff;stroke-width:0px;}.cls-13{fill:#2b2e4a;}</style><linearGradient id="linear-gradient" x1="241.66" y1="130.36" x2="412.4" y2="130.36" gradientUnits="userSpaceOnUse"><stop offset="0" stop-color="#fff"/><stop offset="1" stop-color="#f6fcff" stop-opacity="0"/></linearGradient></defs><title>searchlight-512x512</title><path class="cls-1" d="M242.28,9.1,62.41,95.73a31,31,0,0,0-16.76,21L1.23,311.38a31,31,0,0,0,6,26.21L131.68,493.68a31,31,0,0,0,24.22,11.66H355.55a31,31,0,0,0,24.22-11.66L504.24,337.59a31,31,0,0,0,6-26.21L465.8,116.74a31,31,0,0,0-16.76-21L269.17,9.1A31,31,0,0,0,242.28,9.1Z"/><path class="cls-2" d="M156.3,414.28a1111.3,1111.3,0,0,1,146.22-.13C290.87,418.85,172.61,419.1,156.3,414.28Z"/><path class="cls-3" d="M263.57,425.52a307.24,307.24,0,0,1-68.12,0c0-.68,0-1.36,0-2h68C263.5,424.18,263.54,424.85,263.57,425.52Z"/><path class="cls-4" d="M302.6,146.64c15.95,67.19,50.37,102.29,118,111.55"/><path class="cls-4" d="M301.4,210.46c5.35,24.72,75.77,83.74,109.94,86.62"/><path class="cls-4" d="M287.47,264.58c14,23,35,41,56.82,43.89"/><path class="cls-5" d="M163.16,162.55c2.88-.35,6.73,1.66,9.09,3.76,4.87,4.36,7.45,4.64,11.14.81-3.15-2.49-6.92-4.54-9.4-7.63-4.47-5.58-9.75-3.93-15.36-3.33-2.83.31-3.83,1.65-4.26,3.28l4.07,3.92A29.35,29.35,0,0,1,163.16,162.55Z"/><path class="cls-5" d="M153.23,167.16a11.72,11.72,0,0,1,2.41-1.65,4,4,0,0,1,2.8-2.15l-4.07-3.92c-.38,1.41-.33,3-.67,4.37a20.83,20.83,0,0,0-.55,3.42l0,0Z"/><polygon class="cls-6" points="241.66 113.37 241.66 123.18 412.4 179.71 412.4 81.01 241.66 113.37"/><path class="cls-7" d="M130.31,397l1.83.12-1.52-.1a4.28,4.28,0,0,0-.62,0l-34.32,2.44a4.39,4.39,0,0,0-2.16.7c-.24.16-.42.32-.41.44s.36.34.75.52a4.59,4.59,0,0,0,1.82.44c13.32.48,181.9,6.33,268.9-.21a4.58,4.58,0,0,0,1.37-.28c.63-.25,2.11-.48,2.12-.73s-1.05-.61-1.75-.83a4.25,4.25,0,0,0-1.17-.22l-47-2.64a4.23,4.23,0,0,0-1,.06C294.3,400.26,130.31,397,130.31,397Z"/><polygon points="235.34 125.67 235.33 125.67 235.34 125.68 235.34 125.67"/><path d="M220.21,127.75h0c.07-.4.15-.79.22-1.18A7.71,7.71,0,0,0,220.21,127.75Z"/><path class="cls-8" d="M233.27,123.5l-2,.61a32.3,32.3,0,0,1,4.08,1.56A21.47,21.47,0,0,0,233.27,123.5Z"/><path class="cls-8" d="M231.25,124.11a20.78,20.78,0,0,0-4.77-.93c.18.76.34,1.51.46,2.25Z"/><path class="cls-8" d="M235.33,125.67a32.3,32.3,0,0,0-4.08-1.56l-4.31,1.32c-.12-.74-.28-1.49-.46-2.25-2.74-.15-5.24.58-6,3.39-.07.39-.15.78-.22,1.18l15.11-2.07Z"/><polygon class="cls-9" points="199.32 318.71 198.24 324.8 206.36 324.96 207.39 318.71 199.32 318.71"/><path class="cls-9" d="M196.13,341.2h8.51c.33-1.78.66-3.57,1.05-5.72C196,334.27,195.85,334.37,196.13,341.2Z"/><polygon class="cls-9" points="209.08 310.39 201.41 310.39 200.38 316.48 208.1 316.64 209.08 310.39"/><polygon class="cls-9" points="198.3 327.16 197.22 333.25 205.34 333.41 206.37 327.16 198.3 327.16"/><polygon class="cls-9" points="211.03 293.01 203.72 293.01 202.74 299.1 210.1 299.26 211.03 293.01"/><polygon class="cls-9" points="209.24 327.16 208.16 333.25 216.29 333.41 217.32 327.16 209.24 327.16"/><polygon class="cls-9" points="201.34 307.91 209.05 308.07 210.03 301.82 202.36 301.82 201.34 307.91"/><path class="cls-9" d="M216.32,341.14v-5.72c-9.32-1.14-9.35-1.13-8.68,5.72Z"/><polygon class="cls-9" points="222.88 283.07 223.81 276.82 216.5 276.82 215.52 282.91 222.88 283.07"/><path class="cls-9" d="M269,266.72,243.44,310C263.48,304.86,272.94,288.81,269,266.72Z"/><path class="cls-9" d="M287.47,264.58c8.64-19,12.68-36.5,2.09-54.12C279.07,227.55,284.48,245.24,287.47,264.58Z"/><path class="cls-9" d="M298.4,224v-51.6l-1.89.06C291.75,189.1,288.65,205.76,298.4,224Z"/><path class="cls-9" d="M271.11,174.15c10.68-.9,20.43-8.67,22.43-17.32l0,0v0l-22.43,17.32h0Z"/><path class="cls-9" d="M269,292.41c15.39-11.79,19-29.73,10.83-52.43C271.38,256.64,274,274.91,269,292.41Z"/><path class="cls-9" d="M262.92,180.47l-33.84,26.24C240.75,206.13,255.63,194.5,262.92,180.47Z"/><polygon class="cls-9" points="218.55 318.95 210.48 318.95 209.4 325.05 217.53 325.21 218.55 318.95"/><path class="cls-9" d="M230.33,342.15l1.72-1.32c-2-45.39-4-90.77-5.53-127.08,0,35.23,0,79.83.16,124.42C226.69,339.5,229.06,340.82,230.33,342.15Z"/><polygon class="cls-9" points="224.58 261.27 218.28 261.27 217.44 267.36 223.78 267.52 224.58 261.27"/><polygon class="cls-9" points="223.81 269.54 217.22 269.54 216.34 275.63 222.97 275.79 223.81 269.54"/><path class="cls-9" d="M270.36,381.61H184a249.9,249.9,0,0,0,42.36,3.19h.43a345.07,345.07,0,0,0,45.48-3.18h-1.89Z"/><path class="cls-9" d="M269.43,390H185.2A281,281,0,0,0,227.58,393h.87A334.26,334.26,0,0,0,271.28,390h-1.85Z"/><path class="cls-9" d="M226,376.67a298.41,298.41,0,0,0,42.89-3.09H183.77a267.35,267.35,0,0,0,41.43,3.09Z"/><path class="cls-9" d="M241,352.64l-1.08-.05,1.08-.11c-18.07-.7-36-1.42-53.82-2.08-8.42-.31-16-2.53-22.35-8.47-6.63-6.17-13.65-11.92-20.55-17.8-1.46-1.23-3.05-2.91-4.75-3.14-15.54-2.18-31.11-4.09-46.68-6.08,0,.58,0,1.17,0,1.75h0v.15c11.91,1.82,23.79,3.81,35.73,5.39,6.76.9,12.45,2.9,17.62,7.94,7.24,7,15.54,13,23.49,19.31a10.89,10.89,0,0,0,5.11,2.42C196.71,354.41,218.73,355.13,241,352.64Z"/><path class="cls-9" d="M156.24,328.18l1.95-.36-3.33-80.72c-.71,25.19-.76,50.37-.62,75.55C154.25,324.5,155.54,326.33,156.24,328.18Z"/><path class="cls-9" d="M271.77,365.59h-92.7a323.05,323.05,0,0,0,46.72,3.24h.6a355.1,355.1,0,0,0,47.27-3.23h-1.89Z"/><polygon class="cls-9" points="219.67 310.64 212.01 310.64 210.98 316.73 218.7 316.89 219.67 310.64"/><path class="cls-9" d="M282.6,344.16c-12.84,1.91-25.8,3-38.71,4.49,19.41.15,38.84.29,57.35-6.85,8.38-3.23,15.67-7.88,19.68-16.59C311.09,337.49,297.3,342,282.6,344.16Z"/><polygon class="cls-9" points="213.82 293.25 212.84 299.35 220.2 299.51 221.13 293.25 213.82 293.25"/><path class="cls-9" d="M175,319.67c0,12.34,10.62,14.92,18.56,21.45,3.23-23.72,6.18-46.09,9.35-68.43,1.69-11.94,1.85-11.91-9.73-16-4.16,10.43-6.56,21.73-12.67,30.41-7.36,10.44-8.21,20.49-5.6,31.91A2.82,2.82,0,0,1,175,319.67Z"/><polygon class="cls-9" points="222.62 285.34 215.31 285.34 214.33 291.43 221.69 291.59 222.62 285.34"/><polygon class="cls-9" points="212.96 302.07 211.94 308.16 219.65 308.32 220.63 302.07 212.96 302.07"/><polygon class="cls-9" points="213.7 276.57 206.39 276.57 205.41 282.66 212.77 282.82 213.7 276.57"/><path class="cls-10" d="M238.15,125.39V112.18l-.23,0c-1.46,0-2.92,0-4.37,0-.21,0-.29,0-.28.27s0,.65,0,1-.07.24-.23.23H221.45c-.49,0-.48-.11-.48.51,0,3.84,0,7.67,0,11.51a2.73,2.73,0,0,0,2.76,2.75H228a3.42,3.42,0,0,0,3.25-2.45c.16-.58.29-1.17.43-1.76,0-.14.08-.25.26-.25H233c.17,0,.24.07.23.25,0,.33,0,.66,0,1,0,.14,0,.23.19.22h4.61ZM230.21,124c0,.13,0,.22-.06.3-.09.37-.21.73-.28,1.1A2,2,0,0,1,228,127H223.7a1.26,1.26,0,0,1-1.28-1.29c0-.44,0-.88,0-1.33s0-.37.37-.37h7.42Zm-4.83-5.91h1.28c.15,0,.21,0,.21.21q0,.54,0,1.08c0,.17-.07.21-.23.21h-2.52c-.19,0-.23-.08-.23-.24,0-.33,0-.67,0-1s.08-.27.27-.26Zm8.38,1.33-.13.14c0-.06-.13-.13-.13-.19s-.09-.22-.25-.25-.08-.1-.12-.16.1-.09.16-.09C233.56,118.83,233.76,119,233.76,119.39Zm-.43.74c-.52,0-.7-.11-.64-.48,0-.07.09-.12.13-.18s.11.12.11.17,0,.22.2.26S233.24,120,233.33,120.13Z"/><polygon class="cls-9" points="212.51 285.09 205.2 285.09 204.22 291.18 211.58 291.34 212.51 285.09"/><polygon class="cls-9" points="215.87 261.02 209.57 261.02 208.73 267.11 215.07 267.27 215.87 261.02"/><polygon class="cls-9" points="214.7 269.29 208.11 269.29 207.23 275.38 213.86 275.54 214.7 269.29"/><path d="M165.62,231.8l.22-.37-2.57,2a1.09,1.09,0,0,0,0,.18Z"/><path d="M148.66,245.13l-1.8,1.44,1.63-1.29C148.55,245.24,148.6,245.18,148.66,245.13Z"/><path d="M165.62,231.8h0l-2.36,1.86a1.09,1.09,0,0,1,0-.18l-14.61,11.65c-.06.05-.11.11-.17.15l-1.63,1.29-.84.67Z"/><polygon class="cls-9" points="198.3 327.16 197.22 333.25 205.34 333.41 206.37 327.16 198.3 327.16"/><polygon class="cls-9" points="209.08 310.39 201.41 310.39 200.38 316.48 208.1 316.64 209.08 310.39"/><path class="cls-9" d="M196.13,341.2h8.51c.33-1.78.66-3.57,1.05-5.72C196,334.27,195.85,334.37,196.13,341.2Z"/><polygon class="cls-9" points="211.03 293.01 203.72 293.01 202.74 299.1 210.1 299.26 211.03 293.01"/><path class="cls-9" d="M216.32,341.14v-5.72c-9.32-1.14-9.35-1.13-8.68,5.72Z"/><polygon class="cls-9" points="209.24 327.16 208.16 333.25 216.29 333.41 217.32 327.16 209.24 327.16"/><polygon class="cls-9" points="222.88 283.07 223.81 276.82 216.5 276.82 215.52 282.91 222.88 283.07"/><polygon class="cls-9" points="201.34 307.91 209.05 308.07 210.03 301.82 202.36 301.82 201.34 307.91"/><polygon class="cls-9" points="218.55 318.95 210.48 318.95 209.4 325.05 217.53 325.21 218.55 318.95"/><path class="cls-9" d="M287.47,264.58c8.64-19,12.68-36.5,2.09-54.12C279.07,227.55,284.48,245.24,287.47,264.58Z"/><path class="cls-9" d="M298.4,224v-51.6l-1.89.06C291.75,189.1,288.65,205.76,298.4,224Z"/><path class="cls-9" d="M269,292.41c15.39-11.79,19-29.73,10.83-52.43C271.38,256.64,274,274.91,269,292.41Z"/><path class="cls-9" d="M271.08,174.15h0l4.38-3.39Z"/><path class="cls-9" d="M271.11,174.15c10.68-.9,20.43-8.67,22.43-17.32l0,0v0l-1.21.93h0l-16.83,13-4.38,3.39h0Z"/><path class="cls-9" d="M262.92,180.47l-1.52,1.18,1.52-1.18Z"/><path class="cls-9" d="M232.06,206.33c11.12-2.16,24.18-13,30.86-25.86l-1.52,1.18-32.32,25.06h0l4-3.08Z"/><path class="cls-9" d="M226.68,338.17c0,1.33,2.38,2.65,3.65,4l1.72-1.32c-1.86-42.62-3.71-85.23-5.24-120.33l-.29.8v-.09C226.52,255.17,226.5,296.66,226.68,338.17Z"/><polygon class="cls-9" points="224.58 261.27 218.28 261.27 217.44 267.36 223.78 267.52 224.58 261.27"/><path class="cls-9" d="M269,266.72,243.44,310C263.48,304.86,272.94,288.81,269,266.72Z"/><polygon class="cls-9" points="223.81 269.54 217.22 269.54 216.34 275.63 222.97 275.79 223.81 269.54"/><polygon class="cls-9" points="199.32 318.71 198.24 324.8 206.36 324.96 207.39 318.71 199.32 318.71"/><path class="cls-9" d="M270.36,381.61H184a249.9,249.9,0,0,0,42.36,3.19h.43a345.07,345.07,0,0,0,45.48-3.18h-1.89Z"/><path class="cls-9" d="M226,376.67a298.41,298.41,0,0,0,42.89-3.09H183.77a267.35,267.35,0,0,0,41.43,3.09Z"/><path class="cls-9" d="M269.43,390H185.2A281,281,0,0,0,227.58,393h.87A334.26,334.26,0,0,0,271.28,390h-1.85Z"/><path class="cls-9" d="M241,352.64l-1.08-.05,1.08-.11c-18.07-.7-36-1.42-53.82-2.08-8.42-.31-16-2.53-22.35-8.47-6.63-6.17-13.65-11.92-20.55-17.8-1.46-1.23-3.05-2.91-4.75-3.14-15.54-2.18-31.11-4.09-46.68-6.08,0,.58,0,1.17,0,1.75h0v.15c11.91,1.82,23.79,3.81,35.73,5.39,6.76.9,12.45,2.9,17.62,7.94,7.24,7,15.54,13,23.49,19.31a10.89,10.89,0,0,0,5.11,2.42C196.71,354.41,218.73,355.13,241,352.64Z"/><path class="cls-9" d="M156.24,328.18l1.95-.36-3.33-80.72c-.71,25.19-.76,50.37-.62,75.55C154.25,324.5,155.54,326.33,156.24,328.18Z"/><path class="cls-9" d="M271.77,365.59h-92.7a323.05,323.05,0,0,0,46.72,3.24h.6a355.1,355.1,0,0,0,47.27-3.23h-1.89Z"/><path class="cls-9" d="M282.6,344.16c-12.84,1.91-25.8,3-38.71,4.49,19.41.15,38.84.29,57.35-6.85,8.38-3.23,15.67-7.88,19.68-16.59C311.09,337.49,297.3,342,282.6,344.16Z"/><polygon class="cls-9" points="212.51 285.09 205.2 285.09 204.22 291.18 211.58 291.34 212.51 285.09"/><polygon class="cls-9" points="215.87 261.02 209.57 261.02 208.73 267.11 215.07 267.27 215.87 261.02"/><polygon class="cls-9" points="222.62 285.34 215.31 285.34 214.33 291.43 221.69 291.59 222.62 285.34"/><polygon class="cls-9" points="213.82 293.25 212.84 299.35 220.2 299.51 221.13 293.25 213.82 293.25"/><polygon class="cls-9" points="212.96 302.07 211.94 308.16 219.65 308.32 220.63 302.07 212.96 302.07"/><polygon class="cls-9" points="219.67 310.64 212.01 310.64 210.98 316.73 218.7 316.89 219.67 310.64"/><polygon class="cls-9" points="214.7 269.29 208.11 269.29 207.23 275.38 213.86 275.54 214.7 269.29"/><path class="cls-9" d="M175,319.67c0,12.34,10.62,14.92,18.56,21.45,3.23-23.72,6.18-46.09,9.35-68.43,1.69-11.94,1.85-11.91-9.73-16-4.16,10.43-6.56,21.73-12.67,30.41-7.36,10.44-8.21,20.49-5.6,31.91A2.82,2.82,0,0,1,175,319.67Z"/><polygon class="cls-9" points="213.7 276.57 206.39 276.57 205.41 282.66 212.77 282.82 213.7 276.57"/><path class="cls-11" d="M226.81,220.5l5.25-14.17a20.87,20.87,0,0,1-3,.38l-2.58,2v5C226.62,216,226.71,218.22,226.81,220.5Z"/><polygon class="cls-12" points="222.88 283.07 223.81 276.82 216.5 276.82 215.52 282.91 222.88 283.07"/><path class="cls-12" d="M207.64,341.14h8.68v-5.72C207,334.28,207,334.29,207.64,341.14Z"/><polygon class="cls-12" points="209.24 327.16 208.16 333.25 216.29 333.41 217.32 327.16 209.24 327.16"/><polygon class="cls-12" points="218.55 318.95 210.48 318.95 209.4 325.05 217.53 325.21 218.55 318.95"/><polygon class="cls-12" points="222.62 285.34 215.31 285.34 214.33 291.43 221.69 291.59 222.62 285.34"/><polygon class="cls-12" points="219.67 310.64 212.01 310.64 210.98 316.73 218.7 316.89 219.67 310.64"/><polygon class="cls-12" points="213.82 293.25 212.84 299.35 220.2 299.51 221.13 293.25 213.82 293.25"/><polygon class="cls-12" points="212.96 302.07 211.94 308.16 219.65 308.32 220.63 302.07 212.96 302.07"/><polygon class="cls-12" points="223.81 269.54 217.22 269.54 216.34 275.63 222.97 275.79 223.81 269.54"/><path class="cls-12" d="M287.47,264.58c8.64-19,12.68-36.5,2.09-54.12C279.07,227.55,284.48,245.24,287.47,264.58Z"/><path class="cls-12" d="M269,292.41c15.39-11.79,19-29.73,10.83-52.43C271.38,256.64,274,274.91,269,292.41Z"/><path class="cls-12" d="M269,266.72l-19.86,33.59h0L243.44,310C263.48,304.86,272.94,288.81,269,266.72Z"/><path class="cls-12" d="M175,319a2.82,2.82,0,0,1,.09.64c0,12.34,10.62,14.92,18.56,21.45,3.23-23.72,6.18-46.09,9.35-68.43,1.69-11.94,1.85-11.91-9.73-16-4.16,10.43-6.56,21.73-12.67,30.41C173.19,297.56,172.34,307.61,175,319Z"/><path class="cls-12" d="M226.68,338.17c0,1.33,2.38,2.65,3.65,4l1.72-1.32-.51-11.7h0c-1.68-38.65-3.34-76.74-4.73-108.63l5.25-14.17c11.12-2.16,24.18-13,30.86-25.86h0l-1.52,1.18-32.32,25.06h0l-2.58,2v12.49C226.52,255.17,226.5,296.66,226.68,338.17Z"/><path class="cls-12" d="M298.4,224v-51.6l-1.89.06C291.75,189.1,288.65,205.76,298.4,224Z"/><polygon class="cls-12" points="224.58 261.27 218.28 261.27 217.44 267.36 223.78 267.52 224.58 261.27"/><polygon class="cls-12" points="215.87 261.02 209.57 261.02 208.73 267.11 215.07 267.27 215.87 261.02"/><path class="cls-12" d="M271.11,174.15c10.68-.9,20.43-8.67,22.43-17.32l0,0v0l-1.21.93-16.83,13-4.39,3.4h0Z"/><path class="cls-12" d="M270.36,381.61H184a249.9,249.9,0,0,0,42.36,3.19h.43a345.07,345.07,0,0,0,45.48-3.18h-1.89Z"/><path class="cls-12" d="M269.43,390H185.2A281,281,0,0,0,227.58,393h.87A334.26,334.26,0,0,0,271.28,390h-1.85Z"/><path class="cls-12" d="M241,352.64l-1.08-.05,1.08-.11c-18.07-.7-36-1.42-53.82-2.08-8.42-.31-16-2.53-22.35-8.47-6.63-6.17-13.65-11.92-20.55-17.8-1.46-1.23-3.05-2.91-4.75-3.14-15.54-2.18-31.11-4.09-46.68-6.08,0,.58,0,1.17,0,1.75h0v.15c11.91,1.82,23.79,3.81,35.73,5.39,6.76.9,12.45,2.9,17.62,7.94,7.24,7,15.54,13,23.49,19.31a10.89,10.89,0,0,0,5.11,2.42C196.71,354.41,218.73,355.13,241,352.64Z"/><path class="cls-12" d="M226,376.67a298.41,298.41,0,0,0,42.89-3.09H183.77a267.35,267.35,0,0,0,41.43,3.09Z"/><path class="cls-12" d="M271.77,365.59h-92.7a323.05,323.05,0,0,0,46.72,3.24h.6a355.1,355.1,0,0,0,47.27-3.23h-1.89Z"/><path class="cls-12" d="M282.6,344.16c-12.84,1.91-25.8,3-38.71,4.49,19.41.15,38.84.29,57.35-6.85,8.38-3.23,15.67-7.88,19.68-16.59C311.09,337.49,297.3,342,282.6,344.16Z"/><path class="cls-12" d="M156.24,328.18l1.95-.36-3.33-80.72c-.71,25.19-.76,50.37-.62,75.55C154.25,324.5,155.54,326.33,156.24,328.18Z"/><path class="cls-12" d="M204.64,341.2c.33-1.78.66-3.57,1.05-5.72-9.7-1.21-9.84-1.11-9.56,5.72Z"/><polygon class="cls-12" points="211.03 293.01 203.72 293.01 202.74 299.1 210.1 299.26 211.03 293.01"/><polygon class="cls-12" points="212.51 285.09 205.2 285.09 204.22 291.18 211.58 291.34 212.51 285.09"/><polygon class="cls-12" points="213.7 276.57 206.39 276.57 205.41 282.66 212.77 282.82 213.7 276.57"/><polygon class="cls-12" points="210.03 301.82 202.36 301.82 201.34 307.91 209.05 308.07 210.03 301.82"/><polygon class="cls-12" points="214.7 269.29 208.11 269.29 207.23 275.38 213.86 275.54 214.7 269.29"/><polygon class="cls-12" points="206.37 327.16 198.3 327.16 197.22 333.25 205.34 333.41 206.37 327.16"/><polygon class="cls-12" points="207.39 318.71 199.32 318.71 198.24 324.8 206.36 324.96 207.39 318.71"/><polygon class="cls-12" points="209.08 310.39 201.41 310.39 200.38 316.48 208.1 316.64 209.08 310.39"/><polygon class="cls-9" points="215.87 261.02 209.57 261.02 208.73 267.11 215.07 267.27 215.87 261.02"/><polygon class="cls-9" points="219.67 310.64 212.01 310.64 210.98 316.73 218.7 316.89 219.67 310.64"/><polygon class="cls-9" points="223.81 269.54 217.22 269.54 216.34 275.63 222.97 275.79 223.81 269.54"/><polygon class="cls-9" points="209.24 327.16 208.16 333.25 216.29 333.41 217.32 327.16 209.24 327.16"/><path class="cls-9" d="M207.64,341.14h8.68v-5.72C207,334.28,207,334.29,207.64,341.14Z"/><polygon class="cls-9" points="222.62 285.34 215.31 285.34 214.33 291.43 221.69 291.59 222.62 285.34"/><polygon class="cls-9" points="223.81 276.82 216.5 276.82 215.52 282.91 222.88 283.07 223.81 276.82"/><polygon class="cls-9" points="213.82 293.25 212.84 299.35 220.2 299.51 221.13 293.25 213.82 293.25"/><polygon class="cls-9" points="212.96 302.07 211.94 308.16 219.65 308.32 220.63 302.07 212.96 302.07"/><polygon class="cls-9" points="218.55 318.95 210.48 318.95 209.4 325.05 217.53 325.21 218.55 318.95"/><path class="cls-9" d="M298.4,224v-51.6l-1.89.06C291.75,189.1,288.65,205.76,298.4,224Z"/><path class="cls-9" d="M269,292.41c15.39-11.79,19-29.73,10.83-52.43C271.38,256.64,274,274.91,269,292.41Z"/><path class="cls-9" d="M287.47,264.58c8.64-19,12.68-36.5,2.09-54.12C279.07,227.55,284.48,245.24,287.47,264.58Z"/><polygon class="cls-9" points="224.58 261.27 218.28 261.27 217.44 267.36 223.78 267.52 224.58 261.27"/><path class="cls-9" d="M175,319a2.82,2.82,0,0,1,.09.64c0,12.34,10.62,14.92,18.56,21.45,3.23-23.72,6.18-46.09,9.35-68.43,1.69-11.94,1.85-11.91-9.73-16-4.16,10.43-6.56,21.73-12.67,30.41C173.19,297.56,172.34,307.61,175,319Z"/><path class="cls-9" d="M226.68,338.17c0,1.33,2.38,2.65,3.65,4l1.72-1.32-.51-11.7c-1.68-38.65-3.34-76.74-4.73-108.63l5.25-14.17c11.12-2.16,24.18-13,30.86-25.86h0l-1.52,1.18-32.32,25.06h0l-2.58,2v12.49C226.52,255.17,226.5,296.66,226.68,338.17Z"/><path class="cls-9" d="M271.11,174.15c10.68-.9,20.43-8.67,22.43-17.32l0,0v0l-1.21.93-16.83,13-4.39,3.4h0Z"/><path class="cls-9" d="M269,266.72l-19.86,33.59L243.44,310C263.48,304.86,272.94,288.81,269,266.72Z"/><path class="cls-9" d="M282.6,344.16c-12.84,1.91-25.8,3-38.71,4.49,19.41.15,38.84.29,57.35-6.85,8.38-3.23,15.67-7.88,19.68-16.59C311.09,337.49,297.3,342,282.6,344.16Z"/><path class="cls-9" d="M241,352.64l-1.08-.05,1.08-.11c-18.07-.7-36-1.42-53.82-2.08-8.42-.31-16-2.53-22.35-8.47-6.63-6.17-13.65-11.92-20.55-17.8-1.46-1.23-3.05-2.91-4.75-3.14-15.54-2.18-31.11-4.09-46.68-6.08,0,.58,0,1.17,0,1.75h0v.15c11.91,1.82,23.79,3.81,35.73,5.39,6.76.9,12.45,2.9,17.62,7.94,7.24,7,15.54,13,23.49,19.31a10.89,10.89,0,0,0,5.11,2.42C196.71,354.41,218.73,355.13,241,352.64Z"/><polygon class="cls-9" points="214.7 269.29 208.11 269.29 207.23 275.38 213.86 275.54 214.7 269.29"/><path class="cls-9" d="M156.24,328.18l1.95-.36-3.33-80.72c-.71,25.19-.76,50.37-.62,75.55C154.25,324.5,155.54,326.33,156.24,328.18Z"/><path class="cls-9" d="M270.36,381.61H184a249.9,249.9,0,0,0,42.36,3.19h.43a345.07,345.07,0,0,0,45.48-3.18h-1.89Z"/><path class="cls-9" d="M271.77,365.59h-92.7a323.05,323.05,0,0,0,46.72,3.24h.6a355.1,355.1,0,0,0,47.27-3.23h-1.89Z"/><path class="cls-9" d="M226,376.67a298.41,298.41,0,0,0,42.89-3.09H183.77a267.35,267.35,0,0,0,41.43,3.09Z"/><path class="cls-9" d="M204.64,341.2c.33-1.78.66-3.57,1.05-5.72-9.7-1.21-9.84-1.11-9.56,5.72Z"/><path class="cls-9" d="M269.43,390H185.2A281,281,0,0,0,227.58,393h.87A334.26,334.26,0,0,0,271.28,390h-1.85Z"/><polygon class="cls-9" points="211.03 293.01 203.72 293.01 202.74 299.1 210.1 299.26 211.03 293.01"/><polygon class="cls-9" points="212.51 285.09 205.2 285.09 204.22 291.18 211.58 291.34 212.51 285.09"/><polygon class="cls-9" points="213.7 276.57 206.39 276.57 205.41 282.66 212.77 282.82 213.7 276.57"/><polygon class="cls-9" points="206.37 327.16 198.3 327.16 197.22 333.25 205.34 333.41 206.37 327.16"/><polygon class="cls-9" points="207.39 318.71 199.32 318.71 198.24 324.8 206.36 324.96 207.39 318.71"/><polygon class="cls-9" points="210.03 301.82 202.36 301.82 201.34 307.91 209.05 308.07 210.03 301.82"/><polygon class="cls-9" points="209.08 310.39 201.41 310.39 200.38 316.48 208.1 316.64 209.08 310.39"/><path class="cls-8" d="M166.23,217.82c.35-.18-.8-5.94-2.51-6.92-4.78-2.75-4.32-5.34-1.78-9.27a32.28,32.28,0,0,0,4.63-9.83c1.81-7.66-1.21-11.52-8.43-12a9.54,9.54,0,0,1-2.61-.88c-.49-6.59-.77-10.36-.17-12.6l-2.19,1.09c-.43,6,1,12.44-3.31,17.85-.29.37-.07,1.2,0,1.8.85,5.35,1.79,10.69,2.58,16,.59,4.11-1,6.32-5.41,7-1.67.24-4.28,2.73-4.25,4.15,0,2.2,1.43,5.36,3.22,6.36,8.57,4.75,10.22,18.29,2.64,24.51l14.61-11.65C163.68,227.06,159,221.53,166.23,217.82Z"/><path class="cls-8" d="M229.06,199.57c0-6,.4-12-.13-17.91-.42-4.59.78-8,4.21-10.85,2.32-1.9,4.72-3.71,6.2-4.88v-9c-1.1-.35-3.51-1.18-6-1.89-2.29-.66-4.62-1.2-7.27-1.88,11.71-16.36,13.73-21.92,9.27-27.44l-15.12,2.07c-.14.79-.27,1.57-.39,2.36-1,6.59-.22,13.41-.89,20.06-.18,1.82-2.45,4-4.3,5-2.65,1.4-5.87,1.65-5.45,5.89.35,3.48-1.07,7.49,4.4,8.61,1.11.23,2.5,3.33,2.31,4.95-1.25,10.91-3.82,21.76-4.15,32.68a19.61,19.61,0,0,1-.29,2.78l.09-.47C212.38,205,221.23,200.48,229.06,199.57Z"/><path class="cls-11" d="M351.47,302.5l-.4-1.2L432,253c-.4-.87-.81-1.73-1.21-2.6-2,.56-4.15.74-5.87,1.73-13.24,7.68-26.25,15.74-39.6,23.22-17.51,9.83-35.25,19.26-53,28.75a13,13,0,0,1-5.56,1.32c-3.59.13-5,1.68-5.93,5.27-4.88,18.36-18.48,28.95-37.53,29.87-3.44.17-6.87.75-10.3.79-9.65.11-19.29,0-29.24,0-1-7.29-2.23-14.52-2.66-21.79-.12-2,1.73-5.32,3.54-6.14,27.24-12.39,43.65-33.74,51.84-61.93,8.29-28.59,7.42-57.61,3.46-86.7-.88-6.44-3.63-13.06,5.44-17.27l-2.63-1.73-72,54.61-1.75-.91-20.82,17.58.14-.18c-3.12,3.81-7.89,6-12.22,8.83.06,4.29,0,18.24-2.94,30.91,11.58,4.07,11.42,4,9.73,16-3.17,22.34-6.12,44.71-9.35,68.43-7.94-6.53-18.55-9.11-18.56-21.45A2.82,2.82,0,0,0,175,319c-2.61-11.42-1.76-21.47,5.6-31.91,6.11-8.68,8.51-20,12.67-30.41,2.95-12.67,3-26.62,2.94-30.91l-.14.09c.89-6.8-3.91-14.4,3.85-19.94-6.48,4.13-12.21,8.58-17.93,13.05l-16.32,12.8h0L146,247.24l.84-.67c-11,8.66-22,17.24-33,25.92a47.1,47.1,0,0,0-4.28,4.42l1.37,1.38L128,265l1.33,1.67-11.1,9.76c21.57,7.69,37,26.23,33.58,42.56-.42-5.33-1-8.41-6.6-8.63-21.34-.86-42.64-2.78-64-3.63-15.08-.59-16.18,2.35-15.05,15,.49,5.51,2.1,8.44,7.5,11,12.62,6,24.84,12.87,36.82,20.07,6.3,3.79,9.84,9.69,9.85,17.81,0,4.76,1.92,9.7,3.79,14.23,1.74,4.24,4.56,8,7,12.2,0,0,166.54,3.31,187.29-.37,21.39-11.18,29.62-29.72,36.1-49.5,1.74-5.32,3.73-10.57,5.7-15.82,3.28-8.7,9-15.34,17.65-18.84,10.16-4.11,20.54-7.7,30.9-11.31C412,300,414.4,299,412,294.72ZM269,292.41c5-17.5,2.34-35.77,10.83-52.43C288,262.68,284.43,280.62,269,292.41Zm18.43-27.83c-3-19.34-8.4-37,2.09-54.12C300.15,228.08,296.11,245.55,287.47,264.58ZM298.4,224c-9.75-18.2-6.65-34.86-1.89-51.54l1.89-.06Zm-71.88-15.24,2.58-2h0l32.32-25.06,0,0,0,0,1.52-1.18h0l8.17-6.33h0l4.39-3.4,0,0,0,0,16.83-13,9.62-8-9.62,8,1.21-.93v0l0,0c-2,8.65-11.75,16.42-22.43,17.32h0l-8.17,6.33c-6.68,12.86-19.74,23.7-30.86,25.86l-5.25,14.17c1.39,31.89,3.05,70,4.73,108.63l17.61-28.82L269,266.72c3.93,22.09-5.53,38.14-25.57,43.24l5.71-9.65-17.61,28.82.51,11.7-1.72,1.32c-1.27-1.33-3.64-2.65-3.65-4-.18-41.51-.16-83-.16-117Zm-8.24,52.55h6.3l-.8,6.25-6.34-.16Zm-1.06,8.27h6.59l-.84,6.25-6.63-.16Zm-.93,63.87-8.13-.16,1.08-6.09h8.08Zm0,2v5.72h-8.68C207,334.29,207,334.28,216.32,335.42Zm-6.92-10.37,1.08-6.09h8.07l-1,6.25Zm1.58-8.32,1-6.09h7.66l-1,6.25Zm8.67-8.41-7.71-.16,1-6.09h7.67Zm.55-8.81-7.36-.17,1-6.09h7.31Zm-5.87-8.08,1-6.09h7.31l-.93,6.25Zm1.19-8.52,1-6.09h7.31l-.93,6.25Zm-6-21.89h6.3l-.8,6.25-6.34-.16Zm-1.46,8.27h6.59l-.84,6.25-6.63-.16Zm-1.72,7.28h7.31l-.93,6.25-7.36-.16Zm-1.19,8.52h7.31l-.93,6.25-7.35-.16ZM203.72,293H211l-.93,6.25-7.36-.16Zm-1.36,8.81H210l-1,6.25-7.71-.16Zm-1,8.57h7.67l-1,6.25-7.72-.16Zm-2.09,8.32h8.07l-1,6.25-8.12-.16Zm-1,8.45h8.07l-1,6.25-8.12-.16Zm7.39,8.32c-.39,2.15-.72,3.94-1.05,5.72h-8.51C195.85,334.37,196,334.27,205.69,335.48ZM154.86,247.1l3.33,80.72-1.95.36c-.7-1.85-2-3.68-2-5.53C154.1,297.47,154.15,272.29,154.86,247.1Zm14.75,102.35c-8-6.3-16.25-12.27-23.49-19.31-5.17-5-10.86-7-17.62-7.94-11.94-1.58-23.82-3.57-35.73-5.39v-.15h0c0-.58,0-1.17,0-1.75,15.57,2,31.14,3.9,46.68,6.08,1.7.23,3.29,1.91,4.75,3.14,6.9,5.88,13.92,11.63,20.55,17.8,6.39,5.94,13.93,8.16,22.35,8.47,17.87.66,35.75,1.38,53.82,2.08l-1.08.11,1.08.05c-22.23,2.49-44.25,1.77-66.24-.77A10.89,10.89,0,0,1,169.61,349.45ZM228.45,393h-.87A281,281,0,0,1,185.2,390h86.08A334.26,334.26,0,0,1,228.45,393Zm-1.68-8.17h-.43A249.9,249.9,0,0,1,184,381.61h88.27A345.07,345.07,0,0,1,226.77,384.79Zm-43-11.21h85.07A298.41,298.41,0,0,1,226,376.67h-.75A267.35,267.35,0,0,1,183.77,373.58Zm42.62-4.76h-.6a323.05,323.05,0,0,1-46.72-3.24h94.59A355.1,355.1,0,0,1,226.39,368.82Zm74.85-27c-18.51,7.14-37.94,7-57.35,6.85,12.91-1.46,25.87-2.58,38.71-4.49,14.7-2.17,28.49-6.67,38.32-19C316.91,333.92,309.62,338.57,301.24,341.8Z"/><path class="cls-13" d="M208.38,217a14.67,14.67,0,0,0,3.11-6.94A17.77,17.77,0,0,1,208.38,217Z"/><path class="cls-11" d="M229.06,199.57c-7.83.91-16.68,5.42-17.48,10l-.09.47a14.67,14.67,0,0,1-3.11,6.94l-.14.18Z"/><circle class="cls-1" cx="224.12" cy="127.56" r="1.19"/><circle class="cls-1" cx="228.37" cy="127.56" r="1.19"/></svg>