<svg width="64" height="64" viewBox="0 0 64 64" fill="none" xmlns="http://www.w3.org/2000/svg">
<path d="M30.2935 0.281442L13.7137 8.26278C13.329 8.44904 12.9906 8.7188 12.7233 9.05242C12.456 9.38603 12.2665 9.77509 12.1686 10.1912L8.07064 28.1282C7.97599 28.5456 7.97646 28.9791 8.07202 29.3963C8.16757 29.8136 8.35576 30.204 8.62266 30.5387L20.0945 44.9249C20.362 45.2602 20.7015 45.5309 21.0879 45.717C21.4744 45.9032 21.8977 45.9999 22.3267 46H40.724C41.1529 45.9999 41.5763 45.9032 41.9627 45.717C42.3491 45.5309 42.6887 45.2602 42.9562 44.9249L54.428 30.5387C54.6949 30.204 54.8831 29.8136 54.9786 29.3963C55.0742 28.9791 55.0747 28.5456 54.98 28.1282L50.8821 10.1912C50.7851 9.77505 50.5962 9.38585 50.3293 9.05216C50.0623 8.71847 49.7241 8.44875 49.3393 8.26278L32.7619 0.281442C32.3769 0.0961902 31.955 0 31.5277 0C31.1004 0 30.6786 0.0961902 30.2935 0.281442V0.281442Z" fill="#46CDCF"/>
<path opacity="0.8" d="M22.3701 37.6208C26.8567 37.3215 31.358 37.3175 35.8451 37.6088C34.7724 38.0427 23.8719 38.0716 22.3701 37.6208Z" fill="white"/>
<path opacity="0.7" d="M32.2557 38.6575C30.173 38.8892 28.071 38.8892 25.9883 38.6575V38.4695H32.2557V38.6575Z" fill="white"/>
<path d="M35.8525 12.9561C37.323 19.1488 40.4953 22.3837 46.7241 23.2371" stroke="black" stroke-width="0.2" stroke-miterlimit="10"/>
<path d="M35.7412 18.8379C36.2354 21.1159 42.7318 26.5517 45.8655 26.8192" stroke="black" stroke-width="0.2" stroke-miterlimit="10"/>
<path d="M34.459 23.8254C35.751 25.9443 37.6867 27.6052 39.6947 27.8703" stroke="black" stroke-width="0.2" stroke-miterlimit="10"/>
<path d="M23.0014 14.4217C23.3143 14.4294 23.6133 14.5531 23.8402 14.7688C24.2886 15.1714 24.5248 15.1955 24.8671 14.8435C24.5528 14.6416 24.2617 14.4056 23.9993 14.1396C23.5871 13.6262 23.1002 13.7781 22.5843 13.8335C22.4942 13.831 22.406 13.8596 22.3344 13.9145C22.2629 13.9693 22.2124 14.0471 22.1914 14.1348L22.5675 14.4964C22.7097 14.4593 22.8549 14.4343 23.0014 14.4217V14.4217Z" fill="#FF2E63"/>
<path d="M22.0878 14.8461C22.1551 14.7875 22.2286 14.7366 22.3072 14.6943C22.3332 14.644 22.37 14.6003 22.415 14.5661C22.4601 14.5319 22.5122 14.5082 22.5675 14.4966L22.1914 14.135C22.1553 14.2652 22.1601 14.4146 22.1288 14.5376C22.1031 14.6411 22.087 14.7468 22.0806 14.8533V14.8533L22.0878 14.8461Z" fill="#FF2E63"/>
<path d="M30.2358 9.88981V10.7938L45.9719 16.003V6.90796L30.2358 9.88981Z" fill="url(#paint0_linear)"/>
<path d="M19.9815 36.0301H20.1503H20.0104H19.9526L16.7899 36.2543C16.7196 36.2586 16.6515 36.281 16.5923 36.3194C16.5706 36.3338 16.5537 36.3483 16.5537 36.3603C16.5537 36.3724 16.5875 36.3917 16.6236 36.4086C16.6755 36.4335 16.7323 36.4467 16.7899 36.4471C18.0169 36.4929 33.5553 37.0305 41.5728 36.4278C41.6156 36.4259 41.6578 36.4178 41.6982 36.4037C41.756 36.3796 41.8934 36.3579 41.8934 36.3362C41.8934 36.3145 41.797 36.2808 41.7319 36.2591C41.697 36.2468 41.6605 36.2395 41.6235 36.2374L37.2845 35.9964C37.2532 35.9928 37.2217 35.9928 37.1905 35.9964C35.0885 36.329 19.9815 36.0301 19.9815 36.0301Z" fill="white"/>
<path d="M28.2593 11.2156C28.2593 11.1795 28.2713 11.1433 28.2786 11.1047C28.2691 11.1411 28.2627 11.1782 28.2593 11.2156V11.2156Z" fill="black"/>
<path d="M29.4644 10.8325L29.2764 10.8904C29.4046 10.9297 29.5302 10.9772 29.6524 11.0326C29.5943 10.9617 29.5315 10.8949 29.4644 10.8325V10.8325Z" fill="#0B102D"/>
<path d="M29.2766 10.8807C29.1346 10.8334 28.9872 10.8042 28.8379 10.7939C28.8548 10.8639 28.8692 10.9338 28.8789 11.0013L29.2766 10.8807Z" fill="#0B102D"/>
<path d="M29.6526 11.0228C29.5304 10.9675 29.4048 10.92 29.2766 10.8806L28.8788 11.0011C28.8788 10.9337 28.8547 10.8637 28.8378 10.7938C28.5847 10.7794 28.3557 10.8469 28.281 11.1048C28.281 11.1434 28.2665 11.1795 28.2617 11.2157L29.6526 11.0228Z" fill="#0B102D"/>
<path d="M29.9128 10.9988V9.77905H29.4885C29.4693 9.77905 29.462 9.77905 29.462 9.80316C29.462 9.82727 29.462 9.86342 29.462 9.89235C29.462 9.92128 29.462 9.91645 29.4403 9.91404H28.3725C28.3267 9.91404 28.3267 9.91405 28.3267 9.96226V11.0229C28.3266 11.0556 28.3332 11.088 28.3461 11.118C28.359 11.1481 28.3778 11.1752 28.4015 11.1978C28.4251 11.2203 28.4532 11.2378 28.4838 11.2492C28.5145 11.2606 28.5471 11.2656 28.5798 11.264H28.9727C29.0403 11.2635 29.1059 11.2412 29.1598 11.2003C29.2137 11.1595 29.2529 11.1023 29.2716 11.0374C29.2885 10.9843 29.2981 10.9289 29.3126 10.8759C29.3126 10.8638 29.3126 10.8517 29.3367 10.8542H29.4403C29.4433 10.8538 29.4463 10.854 29.4491 10.855C29.4519 10.8559 29.4545 10.8575 29.4566 10.8596C29.4587 10.8617 29.4602 10.8643 29.4612 10.8671C29.4621 10.8699 29.4624 10.8729 29.462 10.8759C29.462 10.9072 29.462 10.9385 29.462 10.9699C29.462 11.0012 29.462 10.9891 29.4813 10.9891H29.9128V10.9988ZM29.1896 10.8662C29.1896 10.8783 29.1896 10.8855 29.1896 10.8951C29.1896 10.9048 29.1704 10.9602 29.1655 10.9964C29.1574 11.0362 29.1361 11.0722 29.1051 11.0984C29.074 11.1247 29.035 11.1397 28.9944 11.141H28.5966C28.581 11.1417 28.5653 11.1391 28.5506 11.1334C28.536 11.1277 28.5227 11.119 28.5116 11.1079C28.5005 11.0968 28.4918 11.0835 28.4861 11.0689C28.4804 11.0543 28.4778 11.0386 28.4785 11.0229C28.4785 10.9819 28.4785 10.9409 28.4785 10.9C28.4785 10.859 28.4785 10.8662 28.5123 10.8662H29.1945H29.1896ZM28.7461 10.3214H28.8642C28.8763 10.3214 28.8835 10.3214 28.8835 10.3407C28.8811 10.3744 28.8811 10.4083 28.8835 10.442C28.8835 10.4564 28.8835 10.4612 28.8618 10.4612H28.6207C28.6039 10.4612 28.5991 10.4612 28.5991 10.4371C28.5991 10.413 28.5991 10.3769 28.5991 10.3455C28.5991 10.3142 28.5991 10.3214 28.6232 10.3214H28.7461ZM29.5175 10.4444L29.5054 10.4564C29.5054 10.4564 29.4934 10.4564 29.4934 10.4395C29.4934 10.4227 29.4934 10.4203 29.4717 10.4178C29.45 10.4154 29.4717 10.4178 29.4596 10.4034C29.4476 10.3889 29.4596 10.4034 29.4741 10.4034C29.4833 10.4059 29.4915 10.4111 29.4975 10.4185C29.5035 10.4258 29.5072 10.4349 29.5078 10.4444H29.5175ZM29.4789 10.5119C29.4307 10.5119 29.4138 10.5119 29.4186 10.4685C29.4235 10.4251 29.4186 10.4564 29.4186 10.4516C29.4202 10.4571 29.4202 10.4629 29.4186 10.4685C29.4186 10.4829 29.4186 10.4878 29.4379 10.4902C29.4572 10.4926 29.462 10.5022 29.4693 10.5119H29.4789Z" fill="#EAEAEA"/>
<path d="M23.2282 20.805L23.2498 20.7688L23.0088 20.9592V20.9761L23.2282 20.805Z" fill="black"/>
<path d="M21.6688 22.0317L21.5024 22.1643L21.6519 22.0462L21.6688 22.0317Z" fill="black"/>
<path d="M23.2284 20.8049L23.0114 20.9761V20.9568L21.6688 22.0319L21.6519 22.0464L21.5024 22.1645L21.4253 22.2272L23.2284 20.8049Z" fill="black"/>
<path d="M28.8692 19.7635L29.3513 18.457C29.2617 18.4764 29.1706 18.4877 29.0789 18.4908L28.8379 18.6764V19.1416L28.8692 19.7635Z" fill="#111738"/>
<path d="M23.2835 19.5104C23.3173 19.4935 23.2112 18.9632 23.0545 18.874C22.6134 18.6209 22.6544 18.3798 22.8906 18.0182C23.0826 17.7421 23.2268 17.4358 23.3173 17.1119C23.4836 16.408 23.204 16.0512 22.5387 16.0126C22.4552 15.9956 22.3742 15.968 22.2976 15.9307C22.2425 15.5457 22.2377 15.1551 22.2831 14.7688L22.0807 14.87C22.0421 15.4269 22.1698 16.0175 21.7769 16.514C21.748 16.5478 21.7769 16.6249 21.7769 16.6804C21.8565 17.1745 21.9433 17.6663 22.018 18.1604C22.0734 18.5389 21.9312 18.7414 21.519 18.7992C21.3647 18.8209 21.1237 19.0524 21.1285 19.1825C21.1316 19.296 21.1598 19.4074 21.2111 19.5086C21.2623 19.6099 21.3354 19.6986 21.425 19.7683C22.2157 20.207 22.3651 21.4557 21.666 22.027L23.0111 20.9543C23.0497 20.3661 22.6327 19.8575 23.2835 19.5104Z" fill="#0B102D"/>
<path d="M29.0742 17.823C29.0742 17.2734 29.1128 16.719 29.0622 16.1742C29.0326 15.988 29.0529 15.7973 29.1211 15.6216C29.1893 15.4458 29.3029 15.2913 29.4503 15.1738C29.6648 14.9978 29.8866 14.8315 30.024 14.723V13.8914C29.9228 13.8576 29.6986 13.7829 29.472 13.7178C29.2454 13.6527 29.0477 13.6069 28.8018 13.5443C29.8818 12.0353 30.0674 11.5242 29.6576 11.0132L28.2643 11.206C28.2498 11.2783 28.2378 11.3507 28.2281 11.423C28.1389 12.0304 28.2088 12.6596 28.1462 13.2719C28.115 13.3712 28.0636 13.463 27.9951 13.5414C27.9266 13.6198 27.8426 13.6832 27.7484 13.7275C27.5074 13.8576 27.2085 13.8793 27.247 14.2698C27.2784 14.5904 27.1482 14.9617 27.652 15.0653C27.7557 15.0846 27.8931 15.3715 27.8665 15.5209C27.7508 16.5261 27.5122 17.5265 27.4833 18.5317C27.479 18.6174 27.4694 18.7027 27.4543 18.7872C27.4543 18.7728 27.4543 18.7607 27.4543 18.7438C27.5387 18.334 28.3535 17.917 29.0742 17.823Z" fill="#0B102D"/>
<path d="M40.3578 27.3207L40.3192 27.2098L47.7774 22.7624L47.6641 22.5213C47.4783 22.552 47.297 22.6054 47.1242 22.6804C45.9044 23.3867 44.7136 24.1267 43.4746 24.8186C41.8595 25.7249 40.2252 26.5951 38.5932 27.4702C38.4335 27.5465 38.2592 27.5876 38.0822 27.5907C37.7495 27.6027 37.6242 27.745 37.535 28.0728C37.0842 29.7602 35.8307 30.7389 34.0759 30.8232C33.7601 30.8401 33.4419 30.8932 33.1261 30.8956C32.2366 30.9076 31.3495 30.8956 30.4311 30.8956C30.3443 30.223 30.2262 29.5577 30.19 28.8876C30.196 28.7742 30.2286 28.6639 30.2851 28.5655C30.3417 28.4671 30.4206 28.3834 30.5155 28.3211C33.0249 27.1809 34.5387 25.2115 35.2932 22.6129C36.0573 19.9782 35.9754 17.3097 35.6114 14.6243C35.5318 14.0313 35.2787 13.4191 36.1128 13.0334L35.8717 12.8743L29.2379 17.9051L29.0764 17.8207L27.16 19.4406V19.4261C26.8731 19.7757 26.4368 19.9758 26.0343 20.2385C26.0516 21.1993 25.9618 22.159 25.7667 23.0998C26.8346 23.4759 26.8201 23.4735 26.6634 24.5727C26.3717 26.6313 26.0993 28.6923 25.8028 30.8787C25.0797 30.2785 24.0938 30.0398 24.0913 28.902C24.0937 28.8828 24.0937 28.8634 24.0913 28.8442C23.8503 27.7908 23.9274 26.8651 24.6072 25.9033C25.1689 25.103 25.3906 24.0616 25.7739 23.0998C25.9698 22.1631 26.0612 21.2075 26.0463 20.2506H26.0318C26.1138 19.6238 25.6727 18.9223 26.3862 18.4137C25.7908 18.7922 25.2629 19.2044 24.735 19.619L23.2308 20.7978L21.4253 22.22L21.5024 22.1573C20.49 22.9576 19.4703 23.7483 18.4603 24.5486C18.3195 24.6745 18.1874 24.8098 18.065 24.9535L18.1903 25.0813L19.7596 23.8567L19.8825 24.011L18.858 24.9102C20.8467 25.6189 22.2714 27.3207 21.9532 28.8321C21.9146 28.35 21.864 28.0559 21.3457 28.0366C19.3787 27.9571 17.4165 27.7811 15.4495 27.7016C14.0586 27.6461 13.9574 27.9185 14.061 29.0828C14.0559 29.3028 14.1199 29.5188 14.244 29.7004C14.3681 29.882 14.5461 30.0201 14.7529 30.0953C15.9172 30.6449 17.0429 31.2812 18.1469 31.9442C18.4339 32.1086 18.6704 32.3486 18.8306 32.638C18.9908 32.9274 19.0687 33.2552 19.0557 33.5857C19.0876 34.0408 19.2054 34.4858 19.4028 34.8971C19.5933 35.286 19.8091 35.6621 20.0488 36.0228C20.0488 36.0228 35.3968 36.3265 37.3108 35.9891C39.2827 34.9573 40.0396 33.2483 40.6374 31.4259C40.7989 30.9438 40.9797 30.4617 41.1629 29.9796C41.2942 29.5907 41.5073 29.2345 41.788 28.9351C42.0687 28.6357 42.4104 28.4 42.79 28.244C43.7253 27.8655 44.6823 27.5353 45.6369 27.2026C45.9334 27.0989 46.1575 27.0049 45.9334 26.6072L40.3578 27.3207ZM32.7573 26.3902C33.2177 24.7776 32.9742 23.0926 33.7553 21.5571C34.5098 23.6494 34.1771 25.2959 32.7573 26.3902ZM34.4567 23.8254C34.1795 22.044 33.6829 20.4121 34.6496 18.838C35.6258 20.4747 35.2546 22.0705 34.4591 23.8254H34.4567ZM35.4643 20.0818C34.5652 18.3944 34.8496 16.8686 35.2884 15.3306H35.4643V20.0818ZM28.8377 18.6765L29.0788 18.4909L32.0582 16.1815L32.198 16.0731L32.9525 15.4897L33.3575 15.1788L34.9075 13.9735L35.7946 13.2383L34.9075 13.9735L35.0184 13.8867C34.8328 14.6846 33.9336 15.4005 32.9501 15.4825L32.1956 16.0658C31.5809 17.2518 30.3757 18.2498 29.3512 18.4499L28.8691 19.7564C28.9968 22.6949 29.1487 26.2046 29.303 29.7674L30.9253 27.1158C31.5424 26.0769 32.1498 25.0476 32.7573 24.0207C33.1189 26.0552 32.2487 27.5353 30.3998 28.0053C30.5757 27.7064 30.7517 27.4123 30.9253 27.1158L29.303 29.7674C29.3198 30.1266 29.3343 30.4906 29.3512 30.8449L29.1921 30.9679C29.0764 30.8449 28.857 30.7268 28.857 30.5991C28.8401 26.7759 28.8401 22.9504 28.8401 19.8215L28.8377 18.6765ZM28.0784 23.5193H28.6593L28.587 24.0954L28.0013 24.0809L28.0784 23.5193ZM27.982 24.2834H28.5894L28.5123 24.8595L27.9 24.8427L27.982 24.2834ZM27.8952 30.17L27.1479 30.1531L27.2468 29.5939H27.9916L27.8952 30.17ZM27.8952 30.3532V30.8811H27.0973C27.0395 30.2495 27.0419 30.2495 27.9 30.358L27.8952 30.3532ZM27.2588 29.389L27.3576 28.8273H28.1025L28.0085 29.4034L27.2588 29.389ZM27.4034 28.6224L27.4999 28.0608H28.2062L28.1146 28.6369L27.4034 28.6224ZM28.2037 27.8462L27.4926 27.8317L27.5866 27.2701H28.2929L28.2037 27.8462ZM28.2544 27.0339L27.577 27.0194L27.6662 26.4577H28.3387L28.2544 27.0339ZM27.712 26.289L27.8036 25.7297H28.4761L28.3918 26.3059L27.712 26.289ZM27.8229 25.5056L27.9121 24.9439H28.587L28.5002 25.52L27.8229 25.5056ZM27.2757 23.4879H27.8542L27.7819 24.0641L27.1961 24.0496L27.2757 23.4879ZM27.1407 24.2497H27.7482L27.6686 24.8258L27.0587 24.8113L27.1407 24.2497ZM26.9816 24.9198H27.6541L27.5698 25.4959L26.8924 25.4815L26.9816 24.9198ZM26.8707 25.7056H27.5457L27.4589 26.2818L26.7815 26.2673L26.8707 25.7056ZM26.7357 26.4288H27.4083L27.3239 27.0049L26.6441 26.9905L26.7357 26.4288ZM26.6104 27.2412H27.3167L27.2275 27.8173L26.5043 27.8028L26.6104 27.2412ZM26.5212 28.0294H27.2299L27.1383 28.6055L26.4151 28.5911L26.5212 28.0294ZM26.3283 28.796H27.0732L26.9792 29.3721L26.2295 29.3576L26.3283 28.796ZM26.2343 29.577H26.9792L26.8852 30.1531L26.1355 30.1362L26.2343 29.577ZM26.9165 30.3411L26.8201 30.869H26.0367C26.0077 30.2568 26.027 30.2471 26.9213 30.358L26.9165 30.3411ZM22.2328 22.1983C22.3341 24.6763 22.4361 27.156 22.5389 29.6373L22.3582 29.6686C22.2694 29.5104 22.2075 29.3385 22.175 29.16C22.1677 26.8555 22.1725 24.5365 22.2376 22.2152L22.2328 22.1983ZM23.5972 31.6477C22.8446 31.0906 22.1205 30.4961 21.4277 29.8663C20.9846 29.4467 20.4112 29.1915 19.803 29.1431C18.7038 28.9985 17.607 28.8128 16.5102 28.6465V28.6321V28.4706C17.9565 28.6538 19.3787 28.8297 20.8106 29.0298C20.9785 29.0896 21.1292 29.1898 21.2493 29.3215C21.8857 29.8614 22.5317 30.3918 23.1416 30.9606C23.7069 31.4693 24.4422 31.7479 25.2026 31.7417C26.849 31.8019 28.4978 31.8694 30.1635 31.9345H30.0623H30.1635C28.1321 32.142 26.0836 32.1177 24.0576 31.8622C23.8885 31.8308 23.73 31.757 23.5972 31.6477V31.6477ZM29.0185 35.6612H28.939C27.6323 35.6709 26.3268 35.5807 25.0339 35.3912H32.967C31.6581 35.5665 30.3391 35.6567 29.0185 35.6612V35.6612ZM28.8642 34.9091H28.8257C27.518 34.9219 26.2116 34.8235 24.9206 34.615H33.0562C31.6668 34.8037 30.2664 34.9004 28.8642 34.9043V34.9091ZM24.9013 33.875H32.7404C31.4321 34.0653 30.1116 34.1603 28.7895 34.1595H28.7196C27.4413 34.162 26.1647 34.0653 24.9013 33.8702V33.875ZM28.8305 33.4363H28.7726C27.3323 33.4413 25.8935 33.3422 24.4674 33.1398H33.1864C31.7425 33.3338 30.2873 33.4312 28.8305 33.4315V33.4363ZM35.7271 30.9462C34.0204 31.6043 32.2318 31.5922 30.4407 31.5778C31.6316 31.4428 32.8248 31.3367 34.0108 31.1655C35.3655 30.9631 36.6359 30.5509 37.5422 29.4179C37.171 30.2158 36.5009 30.6449 35.7271 30.9414V30.9462Z" fill="#111738"/>
<path d="M27.1694 19.4382C27.3203 19.2504 27.4185 19.0257 27.4539 18.7874C27.4076 19.0224 27.3105 19.2446 27.1694 19.4382V19.4382Z" fill="#2B2E4A"/>
<path d="M29.0739 17.823C28.3507 17.9074 27.5383 18.3244 27.4636 18.7438C27.4636 18.7607 27.4636 18.7728 27.4636 18.7872C27.4259 19.0224 27.327 19.2436 27.1768 19.4284V19.4429L29.0739 17.823Z" fill="#111738"/>
<path d="M28.6212 11.3048C28.6811 11.3048 28.7296 11.2563 28.7296 11.1964C28.7296 11.1365 28.6811 11.0879 28.6212 11.0879C28.5613 11.0879 28.5127 11.1365 28.5127 11.1964C28.5127 11.2563 28.5613 11.3048 28.6212 11.3048Z" fill="#46CDCF"/>
<path d="M29.0113 11.3048C29.0712 11.3048 29.1198 11.2563 29.1198 11.1964C29.1198 11.1365 29.0712 11.0879 29.0113 11.0879C28.9514 11.0879 28.9028 11.1365 28.9028 11.1964C28.9028 11.2563 28.9514 11.3048 29.0113 11.3048Z" fill="#46CDCF"/>
<path d="M6.66219 58.8078C6.57773 59.6931 6.2476 60.3846 5.67178 60.8824C5.09597 61.3763 4.33013 61.6233 3.37428 61.6233C2.70633 61.6233 2.11708 61.4675 1.60653 61.156C1.09981 60.8406 0.708253 60.3941 0.431862 59.8166C0.15547 59.239 0.0115163 58.5684 0 57.8047V57.0295C0 56.2468 0.140115 55.5572 0.420345 54.9606C0.700576 54.3641 1.10173 53.9043 1.6238 53.5813C2.14971 53.2584 2.75624 53.0969 3.44338 53.0969C4.36852 53.0969 5.11324 53.3458 5.67754 53.8435C6.24184 54.3413 6.57006 55.0442 6.66219 55.9523H5.21113C5.14203 55.3558 4.96545 54.9264 4.68138 54.6642C4.40115 54.3983 3.98848 54.2653 3.44338 54.2653C2.80998 54.2653 2.32246 54.4952 1.98081 54.9549C1.64299 55.4109 1.47025 56.0815 1.46257 56.9668V57.7021C1.46257 58.5988 1.6238 59.2827 1.94626 59.7539C2.27255 60.225 2.74856 60.4606 3.37428 60.4606C3.94626 60.4606 4.3762 60.3333 4.66411 60.0788C4.95202 59.8242 5.13436 59.4005 5.21113 58.8078H6.66219Z" fill="#00A651"/>
<path d="M8.06334 58.3689C8.06334 57.7648 8.18426 57.2214 8.4261 56.7389C8.66795 56.2525 9.00768 55.8801 9.4453 55.6218C9.88292 55.3596 10.3858 55.2285 10.9539 55.2285C11.7946 55.2285 12.476 55.4964 12.9981 56.0321C13.524 56.5679 13.8081 57.2784 13.8503 58.1637L13.856 58.4886C13.856 59.0965 13.737 59.6399 13.499 60.1187C13.2649 60.5974 12.9271 60.9679 12.4856 61.2301C12.048 61.4922 11.5413 61.6233 10.9655 61.6233C10.0864 61.6233 9.38196 61.3345 8.85221 60.757C8.3263 60.1756 8.06334 59.4024 8.06334 58.4373V58.3689ZM9.46257 58.4886C9.46257 59.1231 9.59501 59.6209 9.85988 59.9819C10.1248 60.339 10.4933 60.5176 10.9655 60.5176C11.4376 60.5176 11.8042 60.3352 12.0653 59.9705C12.3301 59.6057 12.4626 59.0718 12.4626 58.3689C12.4626 57.7458 12.3263 57.2518 12.0537 56.887C11.785 56.5223 11.4184 56.3399 10.9539 56.3399C10.4971 56.3399 10.1344 56.5204 9.86564 56.8813C9.59693 57.2385 9.46257 57.7743 9.46257 58.4886Z" fill="#00A651"/>
<path d="M16.8464 55.3425L16.8868 55.9865C17.3244 55.4812 17.9232 55.2285 18.6833 55.2285C19.5163 55.2285 20.0864 55.5439 20.3935 56.1746C20.8464 55.5439 21.4837 55.2285 22.3052 55.2285C22.9923 55.2285 23.5029 55.4166 23.8369 55.7927C24.1747 56.1689 24.3474 56.7237 24.3551 57.457V61.5093H22.9559V57.4969C22.9559 57.1055 22.8695 56.8187 22.6967 56.6363C22.524 56.4539 22.238 56.3627 21.8388 56.3627C21.5202 56.3627 21.2591 56.4482 21.0557 56.6192C20.856 56.7864 20.7159 57.0067 20.6353 57.2803L20.6411 61.5093H19.2418V57.4513C19.2226 56.7256 18.8484 56.3627 18.119 56.3627C17.5585 56.3627 17.1612 56.5888 16.9271 57.0409V61.5093H15.5278V55.3425H16.8464Z" fill="#00A651"/>
<path d="M27.5988 55.3425L27.6392 55.9865C28.0768 55.4812 28.6756 55.2285 29.4357 55.2285C30.2687 55.2285 30.8388 55.5439 31.1459 56.1746C31.5988 55.5439 32.2361 55.2285 33.0576 55.2285C33.7447 55.2285 34.2553 55.4166 34.5893 55.7927C34.9271 56.1689 35.0998 56.7237 35.1075 57.457V61.5093H33.7083V57.4969C33.7083 57.1055 33.6219 56.8187 33.4491 56.6363C33.2764 56.4539 32.9904 56.3627 32.5912 56.3627C32.2726 56.3627 32.0115 56.4482 31.8081 56.6192C31.6084 56.7864 31.4683 57.0067 31.3877 57.2803L31.3935 61.5093H29.9942V57.4513C29.975 56.7256 29.6008 56.3627 28.8714 56.3627C28.3109 56.3627 27.9136 56.5888 27.6795 57.0409V61.5093H26.2802V55.3425H27.5988Z" fill="#00A651"/>
<path d="M40.81 60.9052C40.3992 61.3839 39.8157 61.6233 39.0595 61.6233C38.3839 61.6233 37.8714 61.4276 37.5221 61.0363C37.1766 60.6449 37.0038 60.0788 37.0038 59.3378V55.3425H38.4031V59.3207C38.4031 60.1035 38.7313 60.4948 39.3877 60.4948C40.0672 60.4948 40.5259 60.2535 40.7639 59.771V55.3425H42.1631V61.5093H40.8445L40.81 60.9052Z" fill="#00A651"/>
<path d="M45.3781 55.3425L45.4184 56.0549C45.8791 55.504 46.4837 55.2285 47.2322 55.2285C48.5297 55.2285 49.19 55.9637 49.2131 57.4342V61.5093H47.8138V57.514C47.8138 57.1226 47.7274 56.8339 47.5547 56.6477C47.3858 56.4577 47.1075 56.3627 46.7198 56.3627C46.1555 56.3627 45.7351 56.6154 45.4587 57.1207V61.5093H44.0595V55.3425H45.3781Z" fill="#00A651"/>
<path d="M52.6238 61.5093H51.2246V55.3425H52.6238V61.5093ZM51.1382 53.7409C51.1382 53.5282 51.2054 53.3515 51.3397 53.2109C51.4779 53.0703 51.6737 53 51.9271 53C52.1804 53 52.3762 53.0703 52.5144 53.2109C52.6526 53.3515 52.7217 53.5282 52.7217 53.7409C52.7217 53.9499 52.6526 54.1247 52.5144 54.2653C52.3762 54.4021 52.1804 54.4705 51.9271 54.4705C51.6737 54.4705 51.4779 54.4021 51.3397 54.2653C51.2054 54.1247 51.1382 53.9499 51.1382 53.7409Z" fill="#00A651"/>
<path d="M56.3973 53.8435V55.3425H57.4971V56.3684H56.3973V59.8109C56.3973 60.0465 56.4434 60.2174 56.5355 60.3238C56.6315 60.4264 56.8004 60.4777 57.0422 60.4777C57.2035 60.4777 57.3666 60.4587 57.5317 60.4207V61.4922C57.2131 61.5796 56.9059 61.6233 56.6104 61.6233C55.5355 61.6233 54.9981 61.0363 54.9981 59.8622V56.3684H53.9731V55.3425H54.9981V53.8435H56.3973Z" fill="#00A651"/>
<path d="M61.2418 59.5259L62.5086 55.3425H64L61.524 62.444C61.144 63.4813 60.499 64 59.5892 64C59.3858 64 59.1612 63.9658 58.9155 63.8974V62.8259L59.1804 62.843C59.5336 62.843 59.7985 62.7784 59.975 62.6492C60.1555 62.5238 60.2975 62.3111 60.4011 62.0109L60.6027 61.4808L58.4146 55.3425H59.9232L61.2418 59.5259Z" fill="#00A651"/>
<defs>
<linearGradient id="paint0_linear" x1="30.2358" y1="11.4543" x2="45.9719" y2="11.4543" gradientUnits="userSpaceOnUse">
<stop stop-color="white"/>
<stop offset="1" stop-color="#F6FCFF" stop-opacity="0"/>
</linearGradient>
</defs>
</svg>
