<svg width="64" height="64" viewBox="0 0 64 64" fill="none" xmlns="http://www.w3.org/2000/svg">
<g clip-path="url(#clip0)">
<path d="M30.2935 0.281442L13.7137 8.26278C13.329 8.44904 12.9906 8.7188 12.7233 9.05242C12.456 9.38603 12.2665 9.77509 12.1686 10.1912L8.07064 28.1282C7.97599 28.5456 7.97646 28.9791 8.07202 29.3963C8.16757 29.8136 8.35576 30.204 8.62266 30.5387L20.0945 44.9249C20.362 45.2602 20.7015 45.5309 21.0879 45.717C21.4744 45.9032 21.8977 45.9999 22.3267 46H40.724C41.1529 45.9999 41.5763 45.9032 41.9627 45.717C42.3491 45.5309 42.6887 45.2602 42.9562 44.9249L54.428 30.5387C54.6949 30.204 54.8831 29.8136 54.9786 29.3963C55.0742 28.9791 55.0747 28.5456 54.98 28.1282L50.8821 10.1912C50.7851 9.77505 50.5962 9.38585 50.3293 9.05216C50.0623 8.71847 49.7241 8.44875 49.3393 8.26278L32.7619 0.281442C32.3769 0.0961902 31.955 0 31.5277 0C31.1004 0 30.6786 0.0961902 30.2935 0.281442V0.281442Z" fill="#46CDCF"/>
<path opacity="0.8" d="M22.3701 37.621C26.8567 37.3217 31.358 37.3176 35.8451 37.6089C34.7724 38.0428 23.8719 38.0717 22.3701 37.621Z" fill="white"/>
<path opacity="0.7" d="M32.2557 38.6575C30.173 38.8892 28.071 38.8892 25.9883 38.6575V38.4695H32.2557V38.6575Z" fill="white"/>
<path d="M35.8525 12.9562C37.323 19.1489 40.4953 22.3838 46.7241 23.2372" stroke="black" stroke-width="0.2" stroke-miterlimit="10"/>
<path d="M35.7412 18.8379C36.2354 21.1159 42.7318 26.5517 45.8655 26.8192" stroke="black" stroke-width="0.2" stroke-miterlimit="10"/>
<path d="M34.459 23.8253C35.751 25.9442 37.6867 27.6051 39.6947 27.8702" stroke="black" stroke-width="0.2" stroke-miterlimit="10"/>
<path d="M23.0014 14.4218C23.3143 14.4296 23.6133 14.5532 23.8402 14.7689C24.2886 15.1715 24.5248 15.1956 24.8671 14.8437C24.5528 14.6418 24.2617 14.4057 23.9993 14.1398C23.5871 13.6263 23.1002 13.7782 22.5843 13.8336C22.4942 13.8312 22.406 13.8597 22.3344 13.9146C22.2629 13.9695 22.2124 14.0473 22.1914 14.1349L22.5675 14.4965C22.7097 14.4594 22.8549 14.4344 23.0014 14.4218V14.4218Z" fill="#FF2E63"/>
<path d="M22.0878 14.846C22.1551 14.7874 22.2286 14.7365 22.3072 14.6941C22.3332 14.6439 22.37 14.6001 22.415 14.566C22.4601 14.5318 22.5122 14.508 22.5675 14.4965L22.1914 14.1349C22.1553 14.2651 22.1601 14.4145 22.1288 14.5374C22.1031 14.641 22.087 14.7467 22.0806 14.8532V14.8532L22.0878 14.846Z" fill="#FF2E63"/>
<path d="M30.2358 9.88993V10.7939L45.9719 16.0031V6.90808L30.2358 9.88993Z" fill="url(#paint0_linear)"/>
<path d="M19.9815 36.03H20.1503H20.0104H19.9526L16.7899 36.2542C16.7196 36.2585 16.6515 36.2809 16.5923 36.3192C16.5706 36.3337 16.5537 36.3482 16.5537 36.3602C16.5537 36.3723 16.5875 36.3916 16.6236 36.4084C16.6755 36.4334 16.7323 36.4466 16.7899 36.447C18.0169 36.4928 33.5553 37.0304 41.5728 36.4277C41.6156 36.4258 41.6578 36.4176 41.6982 36.4036C41.756 36.3795 41.8934 36.3578 41.8934 36.3361C41.8934 36.3144 41.797 36.2807 41.7319 36.259C41.697 36.2467 41.6605 36.2394 41.6235 36.2373L37.2845 35.9962C37.2532 35.9926 37.2217 35.9926 37.1905 35.9962C35.0885 36.3289 19.9815 36.03 19.9815 36.03Z" fill="white"/>
<path d="M28.2593 11.2157C28.2593 11.1796 28.2713 11.1434 28.2786 11.1049C28.2691 11.1412 28.2627 11.1783 28.2593 11.2157V11.2157Z" fill="black"/>
<path d="M29.4644 10.8325L29.2764 10.8904C29.4046 10.9297 29.5302 10.9772 29.6524 11.0326C29.5943 10.9617 29.5315 10.8949 29.4644 10.8325V10.8325Z" fill="#0B102D"/>
<path d="M29.2766 10.8807C29.1346 10.8334 28.9872 10.8042 28.8379 10.7939C28.8548 10.8639 28.8692 10.9338 28.8789 11.0013L29.2766 10.8807Z" fill="#0B102D"/>
<path d="M29.6526 11.0228C29.5304 10.9675 29.4048 10.92 29.2766 10.8806L28.8788 11.0011C28.8788 10.9337 28.8547 10.8637 28.8378 10.7938C28.5847 10.7794 28.3557 10.8469 28.281 11.1048C28.281 11.1434 28.2665 11.1795 28.2617 11.2157L29.6526 11.0228Z" fill="#0B102D"/>
<path d="M29.9128 10.9988V9.77905H29.4885C29.4693 9.77905 29.462 9.77905 29.462 9.80316C29.462 9.82727 29.462 9.86342 29.462 9.89235C29.462 9.92128 29.462 9.91645 29.4403 9.91404H28.3725C28.3267 9.91404 28.3267 9.91405 28.3267 9.96226V11.0229C28.3266 11.0556 28.3332 11.088 28.3461 11.118C28.359 11.1481 28.3778 11.1752 28.4015 11.1978C28.4251 11.2203 28.4532 11.2378 28.4838 11.2492C28.5145 11.2606 28.5471 11.2656 28.5798 11.264H28.9727C29.0403 11.2635 29.1059 11.2412 29.1598 11.2003C29.2137 11.1595 29.2529 11.1023 29.2716 11.0374C29.2885 10.9843 29.2981 10.9289 29.3126 10.8759C29.3126 10.8638 29.3126 10.8517 29.3367 10.8542H29.4403C29.4433 10.8538 29.4463 10.854 29.4491 10.855C29.4519 10.8559 29.4545 10.8575 29.4566 10.8596C29.4587 10.8617 29.4602 10.8643 29.4612 10.8671C29.4621 10.8699 29.4624 10.8729 29.462 10.8759C29.462 10.9072 29.462 10.9385 29.462 10.9699C29.462 11.0012 29.462 10.9891 29.4813 10.9891H29.9128V10.9988ZM29.1896 10.8662C29.1896 10.8783 29.1896 10.8855 29.1896 10.8951C29.1896 10.9048 29.1704 10.9602 29.1655 10.9964C29.1574 11.0362 29.1361 11.0722 29.1051 11.0984C29.074 11.1247 29.035 11.1397 28.9944 11.141H28.5966C28.581 11.1417 28.5653 11.1391 28.5506 11.1334C28.536 11.1277 28.5227 11.119 28.5116 11.1079C28.5005 11.0968 28.4918 11.0835 28.4861 11.0689C28.4804 11.0543 28.4778 11.0386 28.4785 11.0229C28.4785 10.9819 28.4785 10.9409 28.4785 10.9C28.4785 10.859 28.4785 10.8662 28.5123 10.8662H29.1945H29.1896ZM28.7461 10.3214H28.8642C28.8763 10.3214 28.8835 10.3214 28.8835 10.3407C28.8811 10.3744 28.8811 10.4083 28.8835 10.442C28.8835 10.4564 28.8835 10.4612 28.8618 10.4612H28.6207C28.6039 10.4612 28.5991 10.4612 28.5991 10.4371C28.5991 10.413 28.5991 10.3769 28.5991 10.3455C28.5991 10.3142 28.5991 10.3214 28.6232 10.3214H28.7461ZM29.5175 10.4444L29.5054 10.4564C29.5054 10.4564 29.4934 10.4564 29.4934 10.4395C29.4934 10.4227 29.4934 10.4203 29.4717 10.4178C29.45 10.4154 29.4717 10.4178 29.4596 10.4034C29.4476 10.3889 29.4596 10.4034 29.4741 10.4034C29.4833 10.4059 29.4915 10.4111 29.4975 10.4185C29.5035 10.4258 29.5072 10.4349 29.5078 10.4444H29.5175ZM29.4789 10.5119C29.4307 10.5119 29.4138 10.5119 29.4186 10.4685C29.4235 10.4251 29.4186 10.4564 29.4186 10.4516C29.4202 10.4571 29.4202 10.4629 29.4186 10.4685C29.4186 10.4829 29.4186 10.4878 29.4379 10.4902C29.4572 10.4926 29.462 10.5022 29.4693 10.5119H29.4789Z" fill="#EAEAEA"/>
<path d="M23.2282 20.8048L23.2498 20.7687L23.0088 20.9591V20.976L23.2282 20.8048Z" fill="black"/>
<path d="M21.6688 22.0319L21.5024 22.1644L21.6519 22.0463L21.6688 22.0319Z" fill="black"/>
<path d="M23.2284 20.8049L23.0114 20.9761V20.9568L21.6688 22.0319L21.6519 22.0464L21.5024 22.1645L21.4253 22.2272L23.2284 20.8049Z" fill="black"/>
<path d="M28.8692 19.7635L29.3513 18.457C29.2617 18.4764 29.1706 18.4877 29.0789 18.4908L28.8379 18.6764V19.1416L28.8692 19.7635Z" fill="#111738"/>
<path d="M23.2835 19.5104C23.3173 19.4935 23.2112 18.9632 23.0545 18.874C22.6134 18.6209 22.6544 18.3798 22.8906 18.0182C23.0826 17.7421 23.2268 17.4358 23.3173 17.1119C23.4836 16.408 23.204 16.0512 22.5387 16.0126C22.4552 15.9956 22.3742 15.968 22.2976 15.9307C22.2425 15.5457 22.2377 15.1551 22.2831 14.7688L22.0807 14.87C22.0421 15.4269 22.1698 16.0175 21.7769 16.514C21.748 16.5478 21.7769 16.6249 21.7769 16.6804C21.8565 17.1745 21.9433 17.6663 22.018 18.1604C22.0734 18.5389 21.9312 18.7414 21.519 18.7992C21.3647 18.8209 21.1237 19.0524 21.1285 19.1825C21.1316 19.296 21.1598 19.4074 21.2111 19.5086C21.2623 19.6099 21.3354 19.6986 21.425 19.7683C22.2157 20.207 22.3651 21.4557 21.666 22.027L23.0111 20.9543C23.0497 20.3661 22.6327 19.8575 23.2835 19.5104Z" fill="#0B102D"/>
<path d="M29.0742 17.823C29.0742 17.2734 29.1128 16.719 29.0622 16.1742C29.0326 15.988 29.0529 15.7973 29.1211 15.6216C29.1893 15.4458 29.3029 15.2913 29.4503 15.1738C29.6648 14.9978 29.8866 14.8315 30.024 14.723V13.8914C29.9228 13.8576 29.6986 13.7829 29.472 13.7178C29.2454 13.6527 29.0477 13.6069 28.8018 13.5443C29.8818 12.0353 30.0674 11.5242 29.6576 11.0132L28.2643 11.206C28.2498 11.2783 28.2378 11.3507 28.2281 11.423C28.1389 12.0304 28.2088 12.6596 28.1462 13.2719C28.115 13.3712 28.0636 13.463 27.9951 13.5414C27.9266 13.6198 27.8426 13.6832 27.7484 13.7275C27.5074 13.8576 27.2085 13.8793 27.247 14.2698C27.2784 14.5904 27.1482 14.9617 27.652 15.0653C27.7557 15.0846 27.8931 15.3715 27.8665 15.5209C27.7508 16.5261 27.5122 17.5265 27.4833 18.5317C27.479 18.6174 27.4694 18.7027 27.4543 18.7872C27.4543 18.7728 27.4543 18.7607 27.4543 18.7438C27.5387 18.334 28.3535 17.917 29.0742 17.823Z" fill="#0B102D"/>
<path d="M40.3578 27.3207L40.3192 27.2098L47.7774 22.7624L47.6641 22.5213C47.4783 22.552 47.297 22.6054 47.1242 22.6804C45.9044 23.3867 44.7136 24.1267 43.4746 24.8186C41.8595 25.7249 40.2252 26.5951 38.5932 27.4702C38.4335 27.5465 38.2592 27.5876 38.0822 27.5907C37.7495 27.6027 37.6242 27.745 37.535 28.0728C37.0842 29.7602 35.8307 30.7389 34.0759 30.8232C33.7601 30.8401 33.4419 30.8932 33.1261 30.8956C32.2366 30.9076 31.3495 30.8956 30.4311 30.8956C30.3443 30.223 30.2262 29.5577 30.19 28.8876C30.196 28.7742 30.2286 28.6639 30.2851 28.5655C30.3417 28.4671 30.4206 28.3834 30.5155 28.3211C33.0249 27.1809 34.5387 25.2115 35.2932 22.6129C36.0573 19.9782 35.9754 17.3097 35.6114 14.6243C35.5318 14.0313 35.2787 13.4191 36.1128 13.0334L35.8717 12.8743L29.2379 17.9051L29.0764 17.8207L27.16 19.4406V19.4261C26.8731 19.7757 26.4368 19.9758 26.0343 20.2385C26.0516 21.1993 25.9618 22.159 25.7667 23.0998C26.8346 23.4759 26.8201 23.4735 26.6634 24.5727C26.3717 26.6313 26.0993 28.6923 25.8028 30.8787C25.0797 30.2785 24.0938 30.0398 24.0913 28.902C24.0937 28.8828 24.0937 28.8634 24.0913 28.8442C23.8503 27.7908 23.9274 26.8651 24.6072 25.9033C25.1689 25.103 25.3906 24.0616 25.7739 23.0998C25.9698 22.1631 26.0612 21.2075 26.0463 20.2506H26.0318C26.1138 19.6238 25.6727 18.9223 26.3862 18.4137C25.7908 18.7922 25.2629 19.2044 24.735 19.619L23.2308 20.7978L21.4253 22.22L21.5024 22.1573C20.49 22.9576 19.4703 23.7483 18.4603 24.5486C18.3195 24.6745 18.1874 24.8098 18.065 24.9535L18.1903 25.0813L19.7596 23.8567L19.8825 24.011L18.858 24.9102C20.8467 25.6189 22.2714 27.3207 21.9532 28.8321C21.9146 28.35 21.864 28.0559 21.3457 28.0366C19.3787 27.9571 17.4165 27.7811 15.4495 27.7016C14.0586 27.6461 13.9574 27.9185 14.061 29.0828C14.0559 29.3028 14.1199 29.5188 14.244 29.7004C14.3681 29.882 14.5461 30.0201 14.7529 30.0953C15.9172 30.6449 17.0429 31.2812 18.1469 31.9442C18.4339 32.1086 18.6704 32.3486 18.8306 32.638C18.9908 32.9274 19.0687 33.2552 19.0557 33.5857C19.0876 34.0408 19.2054 34.4858 19.4028 34.8971C19.5933 35.286 19.8091 35.6621 20.0488 36.0228C20.0488 36.0228 35.3968 36.3265 37.3108 35.9891C39.2827 34.9573 40.0396 33.2483 40.6374 31.4259C40.7989 30.9438 40.9797 30.4617 41.1629 29.9796C41.2942 29.5907 41.5073 29.2345 41.788 28.9351C42.0687 28.6357 42.4104 28.4 42.79 28.244C43.7253 27.8655 44.6823 27.5353 45.6369 27.2026C45.9334 27.0989 46.1575 27.0049 45.9334 26.6072L40.3578 27.3207ZM32.7573 26.3902C33.2177 24.7776 32.9742 23.0926 33.7553 21.5571C34.5098 23.6494 34.1771 25.2959 32.7573 26.3902ZM34.4567 23.8254C34.1795 22.044 33.6829 20.4121 34.6496 18.838C35.6258 20.4747 35.2546 22.0705 34.4591 23.8254H34.4567ZM35.4643 20.0818C34.5652 18.3944 34.8496 16.8686 35.2884 15.3306H35.4643V20.0818ZM28.8377 18.6765L29.0788 18.4909L32.0582 16.1815L32.198 16.0731L32.9525 15.4897L33.3575 15.1788L34.9075 13.9735L35.7946 13.2383L34.9075 13.9735L35.0184 13.8867C34.8328 14.6846 33.9336 15.4005 32.9501 15.4825L32.1956 16.0658C31.5809 17.2518 30.3757 18.2498 29.3512 18.4499L28.8691 19.7564C28.9968 22.6949 29.1487 26.2046 29.303 29.7674L30.9253 27.1158C31.5424 26.0769 32.1498 25.0476 32.7573 24.0207C33.1189 26.0552 32.2487 27.5353 30.3998 28.0053C30.5757 27.7064 30.7517 27.4123 30.9253 27.1158L29.303 29.7674C29.3198 30.1266 29.3343 30.4906 29.3512 30.8449L29.1921 30.9679C29.0764 30.8449 28.857 30.7268 28.857 30.5991C28.8401 26.7759 28.8401 22.9504 28.8401 19.8215L28.8377 18.6765ZM28.0784 23.5193H28.6593L28.587 24.0954L28.0013 24.0809L28.0784 23.5193ZM27.982 24.2834H28.5894L28.5123 24.8595L27.9 24.8427L27.982 24.2834ZM27.8952 30.17L27.1479 30.1531L27.2468 29.5939H27.9916L27.8952 30.17ZM27.8952 30.3532V30.8811H27.0973C27.0395 30.2495 27.0419 30.2495 27.9 30.358L27.8952 30.3532ZM27.2588 29.389L27.3576 28.8273H28.1025L28.0085 29.4034L27.2588 29.389ZM27.4034 28.6224L27.4999 28.0608H28.2062L28.1146 28.6369L27.4034 28.6224ZM28.2037 27.8462L27.4926 27.8317L27.5866 27.2701H28.2929L28.2037 27.8462ZM28.2544 27.0339L27.577 27.0194L27.6662 26.4577H28.3387L28.2544 27.0339ZM27.712 26.289L27.8036 25.7297H28.4761L28.3918 26.3059L27.712 26.289ZM27.8229 25.5056L27.9121 24.9439H28.587L28.5002 25.52L27.8229 25.5056ZM27.2757 23.4879H27.8542L27.7819 24.0641L27.1961 24.0496L27.2757 23.4879ZM27.1407 24.2497H27.7482L27.6686 24.8258L27.0587 24.8113L27.1407 24.2497ZM26.9816 24.9198H27.6541L27.5698 25.4959L26.8924 25.4815L26.9816 24.9198ZM26.8707 25.7056H27.5457L27.4589 26.2818L26.7815 26.2673L26.8707 25.7056ZM26.7357 26.4288H27.4083L27.3239 27.0049L26.6441 26.9905L26.7357 26.4288ZM26.6104 27.2412H27.3167L27.2275 27.8173L26.5043 27.8028L26.6104 27.2412ZM26.5212 28.0294H27.2299L27.1383 28.6055L26.4151 28.5911L26.5212 28.0294ZM26.3283 28.796H27.0732L26.9792 29.3721L26.2295 29.3576L26.3283 28.796ZM26.2343 29.577H26.9792L26.8852 30.1531L26.1355 30.1362L26.2343 29.577ZM26.9165 30.3411L26.8201 30.869H26.0367C26.0077 30.2568 26.027 30.2471 26.9213 30.358L26.9165 30.3411ZM22.2328 22.1983C22.3341 24.6763 22.4361 27.156 22.5389 29.6373L22.3582 29.6686C22.2694 29.5104 22.2075 29.3385 22.175 29.16C22.1677 26.8555 22.1725 24.5365 22.2376 22.2152L22.2328 22.1983ZM23.5972 31.6477C22.8446 31.0906 22.1205 30.4961 21.4277 29.8663C20.9846 29.4467 20.4112 29.1915 19.803 29.1431C18.7038 28.9985 17.607 28.8128 16.5102 28.6465V28.6321V28.4706C17.9565 28.6538 19.3787 28.8297 20.8106 29.0298C20.9785 29.0896 21.1292 29.1898 21.2493 29.3215C21.8857 29.8614 22.5317 30.3918 23.1416 30.9606C23.7069 31.4693 24.4422 31.7479 25.2026 31.7417C26.849 31.8019 28.4978 31.8694 30.1635 31.9345H30.0623H30.1635C28.1321 32.142 26.0836 32.1177 24.0576 31.8622C23.8885 31.8308 23.73 31.757 23.5972 31.6477V31.6477ZM29.0185 35.6612H28.939C27.6323 35.6709 26.3268 35.5807 25.0339 35.3912H32.967C31.6581 35.5665 30.3391 35.6567 29.0185 35.6612V35.6612ZM28.8642 34.9091H28.8257C27.518 34.9219 26.2116 34.8235 24.9206 34.615H33.0562C31.6668 34.8037 30.2664 34.9004 28.8642 34.9043V34.9091ZM24.9013 33.875H32.7404C31.4321 34.0653 30.1116 34.1603 28.7895 34.1595H28.7196C27.4413 34.162 26.1647 34.0653 24.9013 33.8702V33.875ZM28.8305 33.4363H28.7726C27.3323 33.4413 25.8935 33.3422 24.4674 33.1398H33.1864C31.7425 33.3338 30.2873 33.4312 28.8305 33.4315V33.4363ZM35.7271 30.9462C34.0204 31.6043 32.2318 31.5922 30.4407 31.5778C31.6316 31.4428 32.8248 31.3367 34.0108 31.1655C35.3655 30.9631 36.6359 30.5509 37.5422 29.4179C37.171 30.2158 36.5009 30.6449 35.7271 30.9414V30.9462Z" fill="#111738"/>
<path d="M27.1694 19.4382C27.3203 19.2504 27.4185 19.0257 27.4539 18.7874C27.4076 19.0224 27.3105 19.2446 27.1694 19.4382V19.4382Z" fill="#2B2E4A"/>
<path d="M29.0739 17.823C28.3507 17.9074 27.5383 18.3244 27.4636 18.7438C27.4636 18.7607 27.4636 18.7728 27.4636 18.7872C27.4259 19.0224 27.327 19.2436 27.1768 19.4284V19.4429L29.0739 17.823Z" fill="#111738"/>
<path d="M28.6212 11.305C28.6811 11.305 28.7296 11.2564 28.7296 11.1965C28.7296 11.1366 28.6811 11.088 28.6212 11.088C28.5613 11.088 28.5127 11.1366 28.5127 11.1965C28.5127 11.2564 28.5613 11.305 28.6212 11.305Z" fill="#46CDCF"/>
<path d="M29.0113 11.305C29.0712 11.305 29.1198 11.2564 29.1198 11.1965C29.1198 11.1366 29.0712 11.088 29.0113 11.088C28.9514 11.088 28.9028 11.1366 28.9028 11.1965C28.9028 11.2564 28.9514 11.305 29.0113 11.305Z" fill="#46CDCF"/>
<path d="M5.98633 57.9395H2.48242V60.5645H6.57812V61.748H1V53.2168H6.53711V54.4121H2.48242V56.7676H5.98633V57.9395Z" fill="#FC6011"/>
<path d="M9.81875 55.4082L9.85977 56.1406C10.3285 55.5742 10.9438 55.291 11.7055 55.291C13.0258 55.291 13.6977 56.0469 13.7211 57.5586V61.748H12.2973V57.6406C12.2973 57.2383 12.2094 56.9414 12.0336 56.75C11.8617 56.5547 11.5785 56.457 11.184 56.457C10.6098 56.457 10.182 56.7168 9.90078 57.2363V61.748H8.47695V55.4082H9.81875Z" fill="#FC6011"/>
<path d="M17.8113 53.8672V55.4082H18.9305V56.4629H17.8113V60.002C17.8113 60.2441 17.8582 60.4199 17.952 60.5293C18.0496 60.6348 18.2215 60.6875 18.4676 60.6875C18.6316 60.6875 18.7977 60.668 18.9656 60.6289V61.7305C18.6414 61.8203 18.3289 61.8652 18.0281 61.8652C16.9344 61.8652 16.3875 61.2617 16.3875 60.0547V56.4629H15.3445V55.4082H16.3875V53.8672H17.8113Z" fill="#FC6011"/>
<path d="M23.6652 61.8652C22.7629 61.8652 22.0305 61.582 21.468 61.0156C20.9094 60.4453 20.6301 59.6875 20.6301 58.7422V58.5664C20.6301 57.9336 20.7512 57.3691 20.9934 56.873C21.2395 56.373 21.5832 55.9844 22.0246 55.707C22.466 55.4297 22.9582 55.291 23.5012 55.291C24.3645 55.291 25.0305 55.5664 25.4992 56.1172C25.9719 56.668 26.2082 57.4473 26.2082 58.4551V59.0293H22.0656C22.1086 59.5527 22.2824 59.9668 22.5871 60.2715C22.8957 60.5762 23.2824 60.7285 23.7473 60.7285C24.3996 60.7285 24.9309 60.4648 25.341 59.9375L26.1086 60.6699C25.8547 61.0488 25.5148 61.3438 25.0891 61.5547C24.6672 61.7617 24.1926 61.8652 23.6652 61.8652ZM23.4953 56.4336C23.1047 56.4336 22.7883 56.5703 22.5461 56.8438C22.3078 57.1172 22.1555 57.498 22.0891 57.9863H24.802V57.8809C24.7707 57.4043 24.6437 57.0449 24.4211 56.8027C24.1984 56.5566 23.8898 56.4336 23.4953 56.4336Z" fill="#FC6011"/>
<path d="M31.4879 56.709C31.3004 56.6777 31.107 56.6621 30.9078 56.6621C30.2555 56.6621 29.816 56.9121 29.5895 57.4121V61.748H28.1656V55.4082H29.525L29.5602 56.1172C29.9039 55.5664 30.3805 55.291 30.9898 55.291C31.193 55.291 31.3609 55.3184 31.4937 55.373L31.4879 56.709Z" fill="#FC6011"/>
<path d="M38.7891 58.6426C38.7891 59.623 38.5664 60.4062 38.1211 60.9922C37.6758 61.5742 37.0781 61.8652 36.3281 61.8652C35.6328 61.8652 35.0762 61.6367 34.6582 61.1797V64.1855H33.2344V55.4082H34.5469L34.6055 56.0527C35.0234 55.5449 35.5918 55.291 36.3105 55.291C37.084 55.291 37.6895 55.5801 38.127 56.1582C38.5684 56.7324 38.7891 57.5312 38.7891 58.5547V58.6426ZM37.3711 58.5195C37.3711 57.8867 37.2441 57.3848 36.9902 57.0137C36.7402 56.6426 36.3809 56.457 35.9121 56.457C35.3301 56.457 34.9121 56.6973 34.6582 57.1777V59.9902C34.916 60.4824 35.3379 60.7285 35.9238 60.7285C36.377 60.7285 36.7305 60.5469 36.9844 60.1836C37.2422 59.8164 37.3711 59.2617 37.3711 58.5195Z" fill="#FC6011"/>
<path d="M44.1684 56.709C43.9809 56.6777 43.7875 56.6621 43.5883 56.6621C42.9359 56.6621 42.4965 56.9121 42.2699 57.4121V61.748H40.8461V55.4082H42.2055L42.2406 56.1172C42.5844 55.5664 43.0609 55.291 43.6703 55.291C43.8734 55.291 44.0414 55.3184 44.1742 55.373L44.1684 56.709Z" fill="#FC6011"/>
<path d="M47.4324 61.748H46.0086V55.4082H47.4324V61.748ZM45.9207 53.7617C45.9207 53.543 45.9891 53.3613 46.1258 53.2168C46.2664 53.0723 46.4656 53 46.7234 53C46.9813 53 47.1805 53.0723 47.3211 53.2168C47.4617 53.3613 47.532 53.543 47.532 53.7617C47.532 53.9766 47.4617 54.1562 47.3211 54.3008C47.1805 54.4414 46.9813 54.5117 46.7234 54.5117C46.4656 54.5117 46.2664 54.4414 46.1258 54.3008C45.9891 54.1562 45.9207 53.9766 45.9207 53.7617Z" fill="#FC6011"/>
<path d="M53.3918 60.0254C53.3918 59.7715 53.2863 59.5781 53.0754 59.4453C52.8684 59.3125 52.5227 59.1953 52.0383 59.0938C51.5539 58.9922 51.1496 58.8633 50.8254 58.707C50.1145 58.3633 49.759 57.8652 49.759 57.2129C49.759 56.666 49.9895 56.209 50.4504 55.8418C50.9113 55.4746 51.4973 55.291 52.2082 55.291C52.966 55.291 53.5773 55.4785 54.0422 55.8535C54.5109 56.2285 54.7453 56.7148 54.7453 57.3125H53.3215C53.3215 57.0391 53.2199 56.8125 53.0168 56.6328C52.8137 56.4492 52.5441 56.3574 52.2082 56.3574C51.8957 56.3574 51.6398 56.4297 51.4406 56.5742C51.2453 56.7188 51.1477 56.9121 51.1477 57.1543C51.1477 57.373 51.2395 57.543 51.423 57.6641C51.6066 57.7852 51.9777 57.9082 52.5363 58.0332C53.0949 58.1543 53.5324 58.3008 53.8488 58.4727C54.1691 58.6406 54.4055 58.8438 54.5578 59.082C54.7141 59.3203 54.7922 59.6094 54.7922 59.9492C54.7922 60.5195 54.5559 60.9824 54.0832 61.3379C53.6105 61.6895 52.9914 61.8652 52.2258 61.8652C51.7062 61.8652 51.2434 61.7715 50.8371 61.584C50.4309 61.3965 50.1145 61.1387 49.8879 60.8105C49.6613 60.4824 49.548 60.1289 49.548 59.75H50.9309C50.9504 60.0859 51.0773 60.3457 51.3117 60.5293C51.5461 60.709 51.8566 60.7988 52.2434 60.7988C52.6184 60.7988 52.9035 60.7285 53.0988 60.5879C53.2941 60.4434 53.3918 60.2559 53.3918 60.0254Z" fill="#FC6011"/>
<path d="M59.6793 61.8652C58.777 61.8652 58.0445 61.582 57.482 61.0156C56.9234 60.4453 56.6441 59.6875 56.6441 58.7422V58.5664C56.6441 57.9336 56.7652 57.3691 57.0074 56.873C57.2535 56.373 57.5973 55.9844 58.0387 55.707C58.4801 55.4297 58.9723 55.291 59.5152 55.291C60.3785 55.291 61.0445 55.5664 61.5133 56.1172C61.9859 56.668 62.2223 57.4473 62.2223 58.4551V59.0293H58.0797C58.1227 59.5527 58.2965 59.9668 58.6012 60.2715C58.9098 60.5762 59.2965 60.7285 59.7613 60.7285C60.4137 60.7285 60.9449 60.4648 61.3551 59.9375L62.1227 60.6699C61.8688 61.0488 61.5289 61.3438 61.1031 61.5547C60.6813 61.7617 60.2066 61.8652 59.6793 61.8652ZM59.5094 56.4336C59.1188 56.4336 58.8023 56.5703 58.5602 56.8438C58.3219 57.1172 58.1695 57.498 58.1031 57.9863H60.816V57.8809C60.7848 57.4043 60.6578 57.0449 60.4352 56.8027C60.2125 56.5566 59.9039 56.4336 59.5094 56.4336Z" fill="#FC6011"/>
</g>
<defs>
<linearGradient id="paint0_linear" x1="30.2358" y1="11.4544" x2="45.9719" y2="11.4544" gradientUnits="userSpaceOnUse">
<stop stop-color="white"/>
<stop offset="1" stop-color="#F6FCFF" stop-opacity="0"/>
</linearGradient>
<clipPath id="clip0">
<rect width="64" height="64" fill="white"/>
</clipPath>
</defs>
</svg>
