<svg width="163" height="46" viewBox="0 0 163 46" fill="none" xmlns="http://www.w3.org/2000/svg">
<g clip-path="url(#clip0)">
<path d="M14.5393 0.183549L3.72636 5.38877C3.47541 5.51024 3.25473 5.68617 3.08039 5.90375C2.90606 6.12132 2.78248 6.37506 2.71864 6.64645L0.046071 18.3444C-0.0156582 18.6167 -0.0153515 18.8994 0.046967 19.1715C0.109285 19.4436 0.23202 19.6983 0.406082 19.9165L7.88771 29.2988C8.06215 29.5175 8.2836 29.6941 8.53561 29.8155C8.78763 29.9368 9.06375 29.9999 9.34347 30H21.3417C21.6215 29.9999 21.8976 29.9368 22.1496 29.8155C22.4016 29.6941 22.6231 29.5175 22.7975 29.2988L30.2791 19.9165C30.4532 19.6983 30.5759 19.4436 30.6382 19.1715C30.7006 18.8994 30.7009 18.6167 30.6391 18.3444L27.9666 6.64645C27.9033 6.37503 27.7801 6.1212 27.606 5.90358C27.4319 5.68596 27.2113 5.51006 26.9604 5.38877L16.1491 0.183549C15.898 0.0627327 15.6229 0 15.3442 0C15.0655 0 14.7904 0.0627327 14.5393 0.183549Z" fill="#46CDCF"/>
<path opacity="0.8" d="M9.37158 24.5354C12.2976 24.3402 15.2333 24.3375 18.1596 24.5275C17.46 24.8105 10.351 24.8293 9.37158 24.5354Z" fill="white"/>
<path opacity="0.7" d="M15.8189 25.2115C14.4606 25.3626 13.0897 25.3626 11.7314 25.2115V25.0889H15.8189V25.2115Z" fill="white"/>
<path d="M18.1646 8.44971C19.1235 12.4884 21.1924 14.5982 25.2547 15.1547" stroke="black" stroke-width="0.2" stroke-miterlimit="10"/>
<path d="M18.0923 12.2856C18.4146 13.7713 22.6514 17.3164 24.6951 17.4909" stroke="black" stroke-width="0.2" stroke-miterlimit="10"/>
<path d="M17.2559 15.5383C18.0985 16.9202 19.3609 18.0034 20.6705 18.1763" stroke="black" stroke-width="0.2" stroke-miterlimit="10"/>
<path d="M9.7836 9.40562C9.98771 9.41067 10.1827 9.49134 10.3307 9.63199C10.6231 9.89453 10.7772 9.91026 11.0004 9.68073C10.7954 9.54907 10.6056 9.39511 10.4344 9.22168C10.1656 8.88682 9.84805 8.98586 9.51162 9.02202C9.45285 9.02041 9.3953 9.03905 9.34865 9.07484C9.30199 9.11062 9.26906 9.16135 9.25537 9.21853L9.50062 9.45435C9.59339 9.43012 9.68806 9.41382 9.7836 9.40562Z" fill="#FF2E63"/>
<path d="M9.18782 9.68227C9.2317 9.64407 9.27968 9.61085 9.33088 9.58323C9.34784 9.55049 9.37188 9.52193 9.40124 9.49963C9.43061 9.47734 9.46457 9.46186 9.50067 9.45432L9.25542 9.21851C9.23184 9.3034 9.23498 9.40087 9.21455 9.48104C9.19783 9.54859 9.1873 9.61753 9.18311 9.68699L9.18782 9.68227Z" fill="#FF2E63"/>
<path d="M14.5015 6.45006V7.0396L24.7641 10.4369V4.50537L14.5015 6.45006Z" fill="url(#paint0_linear)"/>
<path d="M7.81365 23.4979H7.9237H7.83252H7.79479L5.73219 23.6441C5.68628 23.6469 5.64188 23.6615 5.60328 23.6865C5.58913 23.696 5.57812 23.7054 5.57812 23.7133C5.57812 23.7211 5.60014 23.7337 5.62372 23.7447C5.65758 23.761 5.69462 23.7696 5.73219 23.7699C6.53239 23.7997 16.6661 24.1503 21.895 23.7573C21.9228 23.756 21.9504 23.7507 21.9767 23.7416C22.0144 23.7258 22.104 23.7117 22.104 23.6975C22.104 23.6834 22.0412 23.6614 21.9987 23.6472C21.9759 23.6392 21.9521 23.6345 21.928 23.6331L19.0982 23.4759C19.0778 23.4735 19.0572 23.4735 19.0369 23.4759C17.666 23.6928 7.81365 23.4979 7.81365 23.4979Z" fill="white"/>
<path d="M13.2124 7.3145C13.2124 7.29092 13.2203 7.26734 13.225 7.24219C13.2188 7.26591 13.2146 7.2901 13.2124 7.3145Z" fill="black"/>
<path d="M13.9986 7.0647L13.876 7.10243C13.9596 7.1281 14.0415 7.15908 14.1212 7.19518C14.0833 7.14896 14.0424 7.10537 13.9986 7.0647Z" fill="#0B102D"/>
<path d="M13.876 7.09615C13.7834 7.06526 13.6872 7.04624 13.5898 7.03955C13.6008 7.08514 13.6103 7.13074 13.6166 7.17475L13.876 7.09615Z" fill="#0B102D"/>
<path d="M14.121 7.18889C14.0413 7.15279 13.9594 7.12181 13.8757 7.09613L13.6163 7.17474C13.6163 7.13072 13.6006 7.08512 13.5896 7.03953C13.4245 7.0301 13.2752 7.07412 13.2264 7.24234C13.2264 7.26749 13.217 7.29107 13.2139 7.31465L14.121 7.18889Z" fill="#0B102D"/>
<path d="M14.2908 7.17317V6.37769H14.0141C14.0015 6.37769 13.9968 6.37769 13.9968 6.39341C13.9968 6.40913 13.9968 6.43271 13.9968 6.45157C13.9968 6.47044 13.9968 6.46729 13.9827 6.46572H13.2862C13.2563 6.46572 13.2563 6.46572 13.2563 6.49717V7.18889C13.2563 7.21021 13.2606 7.23132 13.269 7.25092C13.2774 7.27053 13.2897 7.28822 13.3051 7.30293C13.3206 7.31763 13.3389 7.32904 13.3588 7.33647C13.3788 7.34389 13.4001 7.34717 13.4214 7.3461H13.6777C13.7218 7.34579 13.7646 7.33123 13.7997 7.3046C13.8348 7.27796 13.8604 7.24068 13.8726 7.19832C13.8836 7.16374 13.8899 7.12758 13.8993 7.09299C13.8993 7.08513 13.8993 7.07727 13.9151 7.07884H13.9827C13.9846 7.07858 13.9865 7.07877 13.9884 7.07939C13.9902 7.08001 13.9919 7.08104 13.9932 7.08241C13.9946 7.08378 13.9956 7.08545 13.9963 7.08728C13.9969 7.08912 13.9971 7.09107 13.9968 7.09299C13.9968 7.11343 13.9968 7.13387 13.9968 7.1543C13.9968 7.17474 13.9968 7.16688 14.0094 7.16688H14.2908V7.17317ZM13.8192 7.0867C13.8192 7.09456 13.8192 7.09928 13.8192 7.10557C13.8192 7.11186 13.8066 7.14801 13.8034 7.17159C13.7982 7.19758 13.7843 7.22102 13.764 7.23814C13.7438 7.25525 13.7183 7.26504 13.6918 7.26592H13.4324C13.4222 7.26637 13.412 7.26468 13.4024 7.26097C13.3929 7.25725 13.3842 7.25159 13.377 7.24435C13.3697 7.23711 13.3641 7.22843 13.3603 7.21888C13.3566 7.20934 13.3549 7.19912 13.3554 7.18889C13.3554 7.16216 13.3554 7.13544 13.3554 7.10871C13.3554 7.08199 13.3554 7.0867 13.3774 7.0867H13.8223H13.8192ZM13.5299 6.73141H13.6069C13.6148 6.73141 13.6195 6.73141 13.6195 6.74398C13.6179 6.76596 13.6179 6.78803 13.6195 6.81001C13.6195 6.81945 13.6195 6.82259 13.6054 6.82259H13.4481C13.4371 6.82259 13.434 6.82259 13.434 6.80687C13.434 6.79114 13.434 6.76757 13.434 6.74713C13.434 6.72669 13.434 6.73141 13.4497 6.73141H13.5299ZM14.033 6.81159L14.0251 6.81945C14.0251 6.81945 14.0172 6.81944 14.0172 6.80844C14.0172 6.79743 14.0172 6.79586 14.0031 6.79429C13.9889 6.79272 14.0031 6.79429 13.9952 6.78486C13.9874 6.77543 13.9952 6.78486 14.0047 6.78486C14.0107 6.78648 14.016 6.78992 14.0199 6.79471C14.0239 6.7995 14.0262 6.8054 14.0267 6.81159H14.033ZM14.0078 6.85561C13.9764 6.85561 13.9654 6.8556 13.9685 6.8273C13.9717 6.79901 13.9685 6.81945 13.9685 6.8163C13.9695 6.8199 13.9695 6.8237 13.9685 6.8273C13.9685 6.83674 13.9685 6.83988 13.9811 6.84145C13.9937 6.84302 13.9968 6.84932 14.0015 6.85561H14.0078Z" fill="#EAEAEA"/>
<path d="M9.93164 13.5685L9.94578 13.5449L9.78857 13.6691V13.6801L9.93164 13.5685Z" fill="black"/>
<path d="M8.91414 14.3687L8.80566 14.4551L8.90313 14.3781L8.91414 14.3687Z" fill="black"/>
<path d="M9.9313 13.5684L9.78981 13.68V13.6674L8.91415 14.3686L8.90315 14.378L8.80568 14.455L8.75537 14.4959L9.9313 13.5684Z" fill="black"/>
<path d="M13.6103 12.8892L13.9247 12.0371C13.8663 12.0498 13.8068 12.0571 13.7471 12.0591L13.5898 12.1802V12.4836L13.6103 12.8892Z" fill="#111738"/>
<path d="M9.96752 12.7242C9.98953 12.7132 9.92035 12.3673 9.81817 12.3091C9.53047 12.1441 9.5572 11.9868 9.71127 11.751C9.83648 11.571 9.93054 11.3712 9.98953 11.1599C10.098 10.7009 9.91564 10.4682 9.48174 10.443C9.42729 10.4319 9.37447 10.414 9.32453 10.3896C9.2886 10.1385 9.28543 9.88376 9.3151 9.63184L9.18304 9.69787C9.15789 10.061 9.24121 10.4462 8.98495 10.77C8.96609 10.792 8.98495 10.8424 8.98495 10.8785C9.03683 11.2008 9.09343 11.5215 9.14216 11.8438C9.17832 12.0906 9.08557 12.2227 8.81674 12.2604C8.71613 12.2745 8.55891 12.4255 8.56206 12.5104C8.5641 12.5844 8.58249 12.657 8.61592 12.723C8.64936 12.7891 8.697 12.8469 8.75543 12.8924C9.27108 13.1785 9.36855 13.9928 8.91264 14.3654L9.78987 13.6658C9.81502 13.2823 9.54305 12.9505 9.96752 12.7242Z" fill="#0B102D"/>
<path d="M13.7437 11.6238C13.7437 11.2654 13.7688 10.9038 13.7358 10.5485C13.7165 10.4271 13.7298 10.3027 13.7742 10.1881C13.8187 10.0735 13.8928 9.9727 13.9889 9.89606C14.1288 9.7813 14.2735 9.67283 14.3631 9.60208V9.05971C14.297 9.0377 14.1508 8.98896 14.0031 8.94651C13.8553 8.90407 13.7264 8.8742 13.566 8.83332C14.2703 7.84919 14.3914 7.5159 14.1241 7.18262L13.2154 7.30838C13.206 7.35555 13.1981 7.40271 13.1919 7.44988C13.1337 7.84605 13.1793 8.25636 13.1384 8.65567C13.1181 8.72046 13.0845 8.78032 13.0399 8.83146C12.9952 8.88261 12.9405 8.92393 12.879 8.9528C12.7218 9.0377 12.5269 9.05185 12.552 9.30653C12.5724 9.51562 12.4876 9.75772 12.8161 9.82532C12.8837 9.83789 12.9733 10.025 12.956 10.1224C12.8806 10.778 12.7249 11.4304 12.7061 12.086C12.7033 12.1419 12.697 12.1975 12.6872 12.2526C12.6872 12.2432 12.6872 12.2353 12.6872 12.2243C12.7422 11.9571 13.2736 11.6851 13.7437 11.6238Z" fill="#0B102D"/>
<path d="M21.1031 17.8178L21.0779 17.7455L25.942 14.845L25.8681 14.6878C25.7469 14.7078 25.6286 14.7427 25.5159 14.7915C24.7205 15.2522 23.9438 15.7348 23.1358 16.186C22.0825 16.7771 21.0166 17.3446 19.9523 17.9153C19.8481 17.9651 19.7344 17.9919 19.619 17.9939C19.402 18.0018 19.3203 18.0945 19.2621 18.3083C18.9681 19.4088 18.1507 20.0471 17.0062 20.1021C16.8002 20.1131 16.5927 20.1477 16.3868 20.1493C15.8067 20.1571 15.2281 20.1493 14.6291 20.1493C14.5726 19.7106 14.4955 19.2767 14.4719 18.8397C14.4758 18.7658 14.4971 18.6938 14.534 18.6296C14.5708 18.5655 14.6223 18.5109 14.6842 18.4703C16.3207 17.7267 17.308 16.4422 17.8001 14.7475C18.2984 13.0292 18.245 11.2889 18.0076 9.53759C17.9557 9.15085 17.7906 8.75154 18.3346 8.5L18.1774 8.39624L13.851 11.6772L13.7456 11.6222L12.4958 12.6786V12.6692C12.3087 12.8972 12.0242 13.0276 11.7616 13.199C11.7729 13.8256 11.7144 14.4515 11.5871 15.0651C12.2836 15.3103 12.2741 15.3088 12.172 16.0256C11.9817 17.3682 11.8041 18.7124 11.6107 20.1383C11.1391 19.7468 10.4961 19.5912 10.4945 18.8491C10.496 18.8366 10.496 18.8239 10.4945 18.8114C10.3373 18.1244 10.3876 17.5207 10.831 16.8934C11.1973 16.3715 11.3419 15.6924 11.5919 15.0651C11.7196 14.4542 11.7792 13.8309 11.7695 13.2069H11.7601C11.8135 12.7981 11.5258 12.3406 11.9912 12.0089C11.6029 12.2557 11.2586 12.5246 10.9143 12.795L9.93328 13.5637L8.75578 14.4913L8.80609 14.4504C8.14581 14.9723 7.48081 15.488 6.8221 16.0099C6.7303 16.092 6.64416 16.1803 6.56428 16.274L6.64603 16.3574L7.66946 15.5587L7.74964 15.6593L7.0815 16.2457C8.37848 16.7079 9.30759 17.8178 9.10007 18.8035C9.07492 18.4891 9.0419 18.2973 8.7039 18.2847C7.42107 18.2329 6.14138 18.1181 4.85855 18.0662C3.95144 18.0301 3.88542 18.2077 3.95302 18.967C3.94966 19.1105 3.99139 19.2513 4.07234 19.3698C4.15328 19.4883 4.26936 19.5783 4.40421 19.6273C5.16353 19.9858 5.8977 20.4008 6.61773 20.8331C6.8049 20.9404 6.95911 21.0969 7.0636 21.2856C7.16808 21.4744 7.21886 21.6882 7.21041 21.9037C7.23124 22.2005 7.30805 22.4907 7.43679 22.7589C7.56103 23.0126 7.70177 23.2579 7.85811 23.4931C7.85811 23.4931 17.8677 23.6912 19.1159 23.4711C20.4019 22.7982 20.8955 21.6836 21.2854 20.4951C21.3907 20.1807 21.5087 19.8663 21.6281 19.5519C21.7137 19.2983 21.8528 19.066 22.0358 18.8707C22.2189 18.6754 22.4417 18.5217 22.6893 18.42C23.2993 18.1731 23.9234 17.9578 24.546 17.7408C24.7393 17.6732 24.8855 17.6119 24.7393 17.3525L21.1031 17.8178ZM16.1462 17.211C16.4465 16.1593 16.2877 15.0604 16.7971 14.0589C17.2891 15.4235 17.0722 16.4973 16.1462 17.211ZM17.2546 15.5383C17.0738 14.3765 16.7499 13.3122 17.3803 12.2856C18.017 13.3531 17.7749 14.3938 17.2561 15.5383H17.2546ZM17.9117 13.0968C17.3253 11.9963 17.5108 11.0012 17.7969 9.99821H17.9117V13.0968ZM13.59 12.1803L13.7472 12.0592L15.6903 10.5532L15.7815 10.4824L16.2736 10.102L16.5377 9.89917L17.5485 9.11312L18.1271 8.63363L17.5485 9.11312L17.6209 9.05652C17.4998 9.57689 16.9134 10.0438 16.272 10.0973L15.7799 10.4777C15.379 11.2512 14.593 11.902 13.9248 12.0325L13.6104 12.8846C13.6937 14.801 13.7928 17.09 13.8934 19.4135L14.9514 17.6842C15.3539 17.0066 15.7501 16.3353 16.1462 15.6656C16.382 16.9925 15.8145 17.9578 14.6087 18.2643C14.7235 18.0694 14.8382 17.8776 14.9514 17.6842L13.8934 19.4135C13.9044 19.6478 13.9138 19.8851 13.9248 20.1162L13.8211 20.1964C13.7456 20.1162 13.6026 20.0392 13.6026 19.9559C13.5916 17.4625 13.5916 14.9676 13.5916 12.927L13.59 12.1803ZM13.0948 15.3386H13.4737L13.4265 15.7144L13.0445 15.7049L13.0948 15.3386ZM13.0319 15.837H13.4281L13.3778 16.2127L12.9784 16.2017L13.0319 15.837ZM12.9753 19.6761L12.4879 19.6651L12.5524 19.3003H13.0382L12.9753 19.6761ZM12.9753 19.7955V20.1398H12.4549C12.4172 19.7279 12.4188 19.7279 12.9784 19.7987L12.9753 19.7955ZM12.5603 19.1667L12.6247 18.8004H13.1105L13.0492 19.1761L12.5603 19.1667ZM12.6546 18.6668L12.7175 18.3005H13.1781L13.1184 18.6762L12.6546 18.6668ZM13.1765 18.1606L12.7128 18.1511L12.7741 17.7848H13.2347L13.1765 18.1606ZM13.2095 17.6308L12.7678 17.6213L12.8259 17.255H13.2646L13.2095 17.6308ZM12.8558 17.145L12.9156 16.7802H13.3542L13.2992 17.156L12.8558 17.145ZM12.9281 16.634L12.9863 16.2677H13.4265L13.3699 16.6435L12.9281 16.634ZM12.5713 15.3182H12.9486L12.9014 15.6939L12.5194 15.6845L12.5713 15.3182ZM12.4832 15.815H12.8794L12.8275 16.1907L12.4298 16.1813L12.4832 15.815ZM12.3795 16.252H12.8181L12.7631 16.6278L12.3213 16.6183L12.3795 16.252ZM12.3072 16.7645H12.7473L12.6907 17.1403L12.249 17.1308L12.3072 16.7645ZM12.2191 17.2362H12.6577L12.6027 17.6119L12.1594 17.6025L12.2191 17.2362ZM12.1374 17.766H12.598L12.5398 18.1417L12.0682 18.1323L12.1374 17.766ZM12.0792 18.28H12.5414L12.4817 18.6558L12.01 18.6463L12.0792 18.28ZM11.9534 18.78H12.4392L12.3779 19.1557L11.889 19.1463L11.9534 18.78ZM11.8921 19.2893H12.3779L12.3166 19.6651L11.8277 19.654L11.8921 19.2893ZM12.337 19.7877L12.2741 20.132H11.7632C11.7443 19.7327 11.7569 19.7264 12.3402 19.7987L12.337 19.7877ZM9.28244 14.4771C9.34846 16.0932 9.41502 17.7104 9.48209 19.3286L9.36419 19.3491C9.30627 19.2459 9.2659 19.1338 9.24471 19.0173C9.23999 17.5144 9.24313 16.0021 9.28558 14.4881L9.28244 14.4771ZM10.1722 20.6398C9.68142 20.2765 9.2092 19.8887 8.75735 19.478C8.4684 19.2043 8.09446 19.0379 7.69776 19.0063C6.98088 18.912 6.26558 18.791 5.55027 18.6825V18.6731V18.5677C6.49353 18.6872 7.42107 18.802 8.3549 18.9325C8.46442 18.9714 8.56268 19.0368 8.64102 19.1227C9.05605 19.4748 9.47738 19.8207 9.87512 20.1917C10.2438 20.5234 10.7233 20.7051 11.2193 20.7011C12.293 20.7404 13.3683 20.7844 14.4546 20.8268H14.3886H14.4546C13.1298 20.9622 11.7938 20.9463 10.4725 20.7797C10.3622 20.7592 10.2589 20.711 10.1722 20.6398ZM13.7079 23.2573H13.656C12.8038 23.2636 11.9524 23.2048 11.1092 23.0812H16.283C15.4293 23.1955 14.5692 23.2543 13.7079 23.2573ZM13.6073 22.7668H13.5821C12.7293 22.7751 11.8773 22.7109 11.0353 22.575H16.3412C15.435 22.6981 14.5217 22.7611 13.6073 22.7637V22.7668ZM11.0228 22.0924H16.1352C15.2819 22.2165 14.4208 22.2785 13.5585 22.2779H13.513C12.6793 22.2795 11.8467 22.2165 11.0228 22.0892V22.0924ZM13.5853 21.8063H13.5475C12.6082 21.8095 11.6698 21.7449 10.7398 21.6129H16.4261C15.4844 21.7394 14.5354 21.8029 13.5853 21.8031V21.8063ZM18.0831 20.1823C16.97 20.6115 15.8035 20.6036 14.6354 20.5942C15.4121 20.5061 16.1902 20.437 16.9637 20.3253C17.8472 20.1933 18.6757 19.9245 19.2668 19.1856C19.0247 19.7059 18.5877 19.9858 18.0831 20.1791V20.1823Z" fill="#111738"/>
<path d="M12.502 12.6772C12.6004 12.5546 12.6644 12.4081 12.6875 12.2527C12.6573 12.406 12.594 12.5509 12.502 12.6772Z" fill="#2B2E4A"/>
<path d="M13.7436 11.6238C13.272 11.6788 12.7422 11.9508 12.6934 12.2243C12.6934 12.2353 12.6934 12.2432 12.6934 12.2526C12.6688 12.406 12.6043 12.5502 12.5063 12.6708V12.6802L13.7436 11.6238Z" fill="#111738"/>
<path d="M13.4482 7.37269C13.4873 7.37269 13.5189 7.34102 13.5189 7.30195C13.5189 7.26288 13.4873 7.2312 13.4482 7.2312C13.4091 7.2312 13.3774 7.26288 13.3774 7.30195C13.3774 7.34102 13.4091 7.37269 13.4482 7.37269Z" fill="#46CDCF"/>
<path d="M13.7031 7.37269C13.7421 7.37269 13.7738 7.34102 13.7738 7.30195C13.7738 7.26288 13.7421 7.2312 13.7031 7.2312C13.664 7.2312 13.6323 7.26288 13.6323 7.30195C13.6323 7.34102 13.664 7.37269 13.7031 7.37269Z" fill="#46CDCF"/>
<path d="M34.7832 20.3425C36.1032 21.0787 37.5872 21.4706 39.0986 21.4823C41.1911 21.4823 42.356 20.5013 42.356 19.0455C42.356 17.6951 41.4567 16.8996 39.1788 16.079C36.2389 15.0194 34.3587 13.4583 34.3587 10.891C34.3587 7.97794 36.7955 5.75342 40.6613 5.75342C42.5949 5.75342 44.0256 6.17631 44.9515 6.65423L44.1576 9.27492C43.0618 8.70707 41.8436 8.41615 40.6094 8.42756C38.5436 8.42756 37.6428 9.54061 37.6428 10.5735C37.6428 11.9491 38.6757 12.5858 41.059 13.5117C44.1576 14.6782 45.6668 16.2393 45.6668 18.8081C45.6668 21.6694 43.4958 24.1533 38.8879 24.1533C37.0014 24.1533 35.0473 23.6235 34.0679 23.0402L34.7832 20.3425Z" fill="#111738"/>
<path d="M50.9395 18.3571C51.0197 20.6869 52.8465 21.6931 54.9122 21.6931C56.4214 21.6931 57.5077 21.4824 58.4872 21.1114L58.9588 23.3627C57.5222 23.9096 55.9949 24.1791 54.4579 24.1566C50.2729 24.1566 47.811 21.5878 47.811 17.6418C47.811 14.0668 49.9821 10.7041 54.1136 10.7041C58.2969 10.7041 59.6741 14.147 59.6741 16.9799C59.6788 17.4412 59.6436 17.9019 59.5688 18.3571H50.9395ZM56.6069 16.0791C56.6337 14.8875 56.1039 12.9349 53.9344 12.9349C51.9221 12.9349 51.0747 14.7617 50.9474 16.0791H56.6069Z" fill="#111738"/>
<path d="M69.5594 23.8861L69.3487 22.4571H69.2685C68.4825 23.4632 67.1242 24.1785 65.4546 24.1785C62.8607 24.1785 61.4033 22.292 61.4033 20.3379C61.4033 17.0805 64.2897 15.4392 69.0563 15.4644V15.2521C69.0563 14.4048 68.712 13.0009 66.4356 13.0009C65.2145 13.003 64.0164 13.3325 62.966 13.9551L62.3371 11.836C63.2898 11.2543 64.9578 10.6978 66.9969 10.6978C71.1283 10.6978 72.32 13.3184 72.32 16.1262V20.7875C72.3043 21.823 72.3663 22.8583 72.5055 23.8845L69.5594 23.8861ZM69.1365 17.5836C66.8318 17.5317 64.634 18.0347 64.634 19.9936C64.634 21.2654 65.4546 21.8471 66.4875 21.8471C67.0441 21.8576 67.5898 21.6917 68.0464 21.3731C68.5031 21.0546 68.8472 20.5998 69.0296 20.0738C69.1023 19.8424 69.1384 19.601 69.1365 19.3585V17.5836Z" fill="#111738"/>
<path d="M75.7617 15.153C75.7617 13.4049 75.735 12.1661 75.6548 10.9948H78.4846L78.5899 13.4583H78.6952C79.3319 11.63 80.8411 10.704 82.2183 10.704C82.4762 10.7017 82.7335 10.728 82.9855 10.7826V13.8545C82.6724 13.7863 82.3532 13.751 82.0328 13.7492C80.4701 13.7492 79.4105 14.7553 79.1197 16.2126C79.0534 16.5441 79.0176 16.8808 79.0128 17.2188V23.8861H75.7617V15.153Z" fill="#111738"/>
<path d="M94.4366 23.4947C93.7481 23.8091 92.3929 24.1566 90.7831 24.1566C86.7569 24.1566 84.1362 21.5878 84.1362 17.5883C84.1362 13.7225 86.7837 10.7041 91.3129 10.7041C92.5045 10.7041 93.7229 10.9682 94.4571 11.3125L93.8754 13.7493C93.1016 13.4014 92.2602 13.2296 91.4119 13.2462C88.9233 13.2462 87.4392 15.073 87.4659 17.4295C87.4659 20.0785 89.1953 21.5878 91.4119 21.5878C92.2937 21.5993 93.1684 21.428 93.9807 21.0847L94.4366 23.4947Z" fill="#111738"/>
<path d="M96.8447 5.09009H100.129V12.7698H100.182C100.585 12.1456 101.141 11.6347 101.797 11.2857C102.474 10.8994 103.242 10.6988 104.021 10.7041C106.222 10.7041 108.524 12.1598 108.524 16.2913V23.8861H105.266V16.6545C105.266 14.7679 104.578 13.3703 102.776 13.3703C102.218 13.3721 101.675 13.5495 101.224 13.8774C100.772 14.2053 100.435 14.6671 100.261 15.1971C100.158 15.5135 100.114 15.8458 100.129 16.1781V23.8814H96.8447V5.09009Z" fill="#111738"/>
<path d="M111.997 5.09009H115.281V23.8861H111.997V5.09009Z" fill="#46CDCF"/>
<path d="M122.272 7.3932C122.272 8.37262 121.558 9.14138 120.419 9.14138C119.334 9.14138 118.619 8.37262 118.619 7.3932C118.619 6.38706 119.361 5.61987 120.445 5.61987C121.558 5.61987 122.247 6.38706 122.272 7.3932Z" fill="#111738"/>
<path d="M122.088 10.9949H118.804V23.8908H122.088V10.9949Z" fill="#46CDCF"/>
<path d="M137.369 10.9949C137.317 11.869 137.264 12.9286 137.264 14.702V22.0122C137.264 24.7131 136.707 26.6452 135.357 27.8636C134.007 29.0552 132.153 29.4262 130.378 29.4262C128.737 29.4262 126.989 29.082 125.877 28.3934L126.591 25.9299C127.742 26.5684 129.035 26.9053 130.351 26.9093C132.471 26.9093 134.06 25.7963 134.06 23.0168V21.9053H134.007C133.265 23.0435 131.941 23.8123 130.246 23.8123C127.042 23.8123 124.764 21.1633 124.764 17.5097C124.764 13.2729 127.518 10.7041 130.617 10.7041C132.576 10.7041 133.742 11.6568 134.351 12.7164H134.404L134.536 10.9949H137.369ZM134.007 16.1593C134.012 15.8645 133.976 15.5703 133.901 15.2852C133.557 14.0936 132.629 13.1927 131.252 13.1927C129.425 13.1959 128.08 14.7821 128.08 17.4044C128.08 19.6053 129.191 21.3755 131.224 21.3755C131.817 21.3739 132.393 21.1829 132.87 20.8306C133.346 20.4782 133.698 19.9828 133.873 19.4167C133.957 19.034 134.001 18.6436 134.005 18.2518L134.007 16.1593Z" fill="#46CDCF"/>
<path d="M140.763 5.09009H144.047V12.7698H144.099C144.503 12.1458 145.059 11.6351 145.715 11.2857C146.393 10.8994 147.16 10.6988 147.94 10.7041C150.141 10.7041 152.441 12.1598 152.441 16.2913V23.8861H149.183V16.6545C149.183 14.7679 148.496 13.3703 146.695 13.3703C146.137 13.3721 145.593 13.5495 145.142 13.8774C144.69 14.2053 144.354 14.6671 144.179 15.1971C144.076 15.5134 144.031 15.8458 144.047 16.1781V23.8814H140.763V5.09009Z" fill="#46CDCF"/>
<path d="M159.521 7.3147V10.995H162.62V13.4317H159.521V19.1243C159.521 20.687 159.944 21.5076 161.189 21.5076C161.619 21.5124 162.046 21.4595 162.461 21.3504L162.513 23.8406C162.042 24.0261 161.189 24.155 160.155 24.155C158.963 24.155 157.954 23.7573 157.349 23.0954C156.66 22.3534 156.341 21.1885 156.341 19.4938V13.4317H154.491V10.995H156.344V8.08188L159.521 7.3147Z" fill="#46CDCF"/>
<path d="M122.489 6.21722C122.754 6.56481 122.903 6.98636 122.917 7.42302C122.909 7.62775 122.871 7.83019 122.804 8.02357L133.896 10.4415L133.953 3.89209L122.489 6.21722Z" fill="url(#paint1_linear)"/>
<path d="M6.37695 41.2227C6.29102 42.1328 5.95508 42.8438 5.36914 43.3555C4.7832 43.8633 4.00391 44.1172 3.03125 44.1172C2.35156 44.1172 1.75195 43.957 1.23242 43.6367C0.716797 43.3125 0.318359 42.8535 0.0371094 42.2598C-0.244141 41.666 -0.390625 40.9766 -0.402344 40.1914V39.3945C-0.402344 38.5898 -0.259766 37.8809 0.0253906 37.2676C0.310547 36.6543 0.71875 36.1816 1.25 35.8496C1.78516 35.5176 2.40234 35.3516 3.10156 35.3516C4.04297 35.3516 4.80078 35.6074 5.375 36.1191C5.94922 36.6309 6.2832 37.3535 6.37695 38.2871H4.90039C4.83008 37.6738 4.65039 37.2324 4.36133 36.9629C4.07617 36.6895 3.65625 36.5527 3.10156 36.5527C2.45703 36.5527 1.96094 36.7891 1.61328 37.2617C1.26953 37.7305 1.09375 38.4199 1.08594 39.3301V40.0859C1.08594 41.0078 1.25 41.7109 1.57812 42.1953C1.91016 42.6797 2.39453 42.9219 3.03125 42.9219C3.61328 42.9219 4.05078 42.791 4.34375 42.5293C4.63672 42.2676 4.82227 41.832 4.90039 41.2227H6.37695Z" fill="#00A651"/>
<path d="M20.0227 40.7715C20.0227 40.1504 20.1458 39.5918 20.3919 39.0957C20.638 38.5957 20.9837 38.2129 21.429 37.9473C21.8743 37.6777 22.386 37.543 22.9641 37.543C23.8196 37.543 24.513 37.8184 25.0442 38.3691C25.5794 38.9199 25.8684 39.6504 25.9114 40.5605L25.9173 40.8945C25.9173 41.5195 25.7962 42.0781 25.554 42.5703C25.3157 43.0625 24.972 43.4434 24.5227 43.7129C24.0774 43.9824 23.5618 44.1172 22.9759 44.1172C22.0813 44.1172 21.3645 43.8203 20.8255 43.2266C20.2903 42.6289 20.0227 41.834 20.0227 40.8418V40.7715ZM21.4466 40.8945C21.4466 41.5469 21.5813 42.0586 21.8509 42.4297C22.1204 42.7969 22.4954 42.9805 22.9759 42.9805C23.4563 42.9805 23.8294 42.793 24.095 42.418C24.3645 42.043 24.4993 41.4941 24.4993 40.7715C24.4993 40.1309 24.3606 39.623 24.0833 39.248C23.8098 38.873 23.4368 38.6855 22.9641 38.6855C22.4993 38.6855 22.1302 38.8711 21.8567 39.2422C21.5833 39.6094 21.4466 40.1602 21.4466 40.8945Z" fill="#00A651"/>
<path d="M41.1802 37.6602L41.2213 38.3223C41.6666 37.8027 42.2759 37.543 43.0494 37.543C43.897 37.543 44.4771 37.8672 44.7896 38.5156C45.2505 37.8672 45.899 37.543 46.7349 37.543C47.4341 37.543 47.9537 37.7363 48.2935 38.123C48.6373 38.5098 48.813 39.0801 48.8209 39.834V44H47.397V39.875C47.397 39.4727 47.3091 39.1777 47.1334 38.9902C46.9576 38.8027 46.6666 38.709 46.2603 38.709C45.9361 38.709 45.6705 38.7969 45.4634 38.9727C45.2603 39.1445 45.1177 39.3711 45.0357 39.6523L45.0416 44H43.6177V39.8281C43.5982 39.082 43.2173 38.709 42.4752 38.709C41.9048 38.709 41.5005 38.9414 41.2623 39.4062V44H39.8384V37.6602H41.1802Z" fill="#00A651"/>
<path d="M64.3416 37.6602L64.3827 38.3223C64.828 37.8027 65.4373 37.543 66.2108 37.543C67.0584 37.543 67.6385 37.8672 67.951 38.5156C68.412 37.8672 69.0604 37.543 69.8963 37.543C70.5956 37.543 71.1151 37.7363 71.4549 38.123C71.7987 38.5098 71.9745 39.0801 71.9823 39.834V44H70.5584V39.875C70.5584 39.4727 70.4706 39.1777 70.2948 38.9902C70.119 38.8027 69.828 38.709 69.4217 38.709C69.0975 38.709 68.8319 38.7969 68.6248 38.9727C68.4217 39.1445 68.2791 39.3711 68.1971 39.6523L68.203 44H66.7791V39.8281C66.7596 39.082 66.3788 38.709 65.6366 38.709C65.0663 38.709 64.662 38.9414 64.4237 39.4062V44H62.9998V37.6602H64.3416Z" fill="#00A651"/>
<path d="M90.005 43.3789C89.587 43.8711 88.9933 44.1172 88.2238 44.1172C87.5363 44.1172 87.0148 43.916 86.6593 43.5137C86.3077 43.1113 86.132 42.5293 86.132 41.7676V37.6602H87.5558V41.75C87.5558 42.5547 87.8898 42.957 88.5577 42.957C89.2491 42.957 89.7159 42.709 89.9581 42.2129V37.6602H91.382V44H90.0402L90.005 43.3789Z" fill="#00A651"/>
<path d="M106.873 37.6602L106.914 38.3926C107.383 37.8262 107.998 37.543 108.76 37.543C110.08 37.543 110.752 38.2988 110.776 39.8105V44H109.352V39.8926C109.352 39.4902 109.264 39.1934 109.088 39.002C108.916 38.8066 108.633 38.709 108.239 38.709C107.664 38.709 107.237 38.9688 106.955 39.4883V44H105.532V37.6602H106.873Z" fill="#00A651"/>
<path d="M126.466 44H125.043V37.6602H126.466V44ZM124.955 36.0137C124.955 35.7949 125.023 35.6133 125.16 35.4688C125.3 35.3242 125.5 35.252 125.757 35.252C126.015 35.252 126.215 35.3242 126.355 35.4688C126.496 35.6133 126.566 35.7949 126.566 36.0137C126.566 36.2285 126.496 36.4082 126.355 36.5527C126.215 36.6934 126.015 36.7637 125.757 36.7637C125.5 36.7637 125.3 36.6934 125.16 36.5527C125.023 36.4082 124.955 36.2285 124.955 36.0137Z" fill="#00A651"/>
<path d="M142.526 36.1191V37.6602H143.645V38.7148H142.526V42.2539C142.526 42.4961 142.573 42.6719 142.667 42.7812C142.765 42.8867 142.936 42.9395 143.183 42.9395C143.347 42.9395 143.513 42.9199 143.681 42.8809V43.9824C143.356 44.0723 143.044 44.1172 142.743 44.1172C141.649 44.1172 141.103 43.5137 141.103 42.3066V38.7148H140.06V37.6602H141.103V36.1191H142.526Z" fill="#00A651"/>
<path d="M159.676 41.9609L160.965 37.6602H162.483L159.963 44.9609C159.576 46.0273 158.92 46.5605 157.994 46.5605C157.787 46.5605 157.559 46.5254 157.309 46.4551V45.3535L157.578 45.3711C157.938 45.3711 158.207 45.3047 158.387 45.1719C158.571 45.043 158.715 44.8242 158.821 44.5156L159.026 43.9707L156.799 37.6602H158.334L159.676 41.9609Z" fill="#00A651"/>
</g>
<defs>
<linearGradient id="paint0_linear" x1="14.5015" y1="7.47035" x2="24.7641" y2="7.47035" gradientUnits="userSpaceOnUse">
<stop stop-color="white"/>
<stop offset="1" stop-color="#F6FCFF" stop-opacity="0"/>
</linearGradient>
<linearGradient id="paint1_linear" x1="122.489" y1="7.16677" x2="133.951" y2="7.16677" gradientUnits="userSpaceOnUse">
<stop stop-color="#46CDCF"/>
<stop offset="1" stop-color="#F6FCFF" stop-opacity="0"/>
</linearGradient>
<clipPath id="clip0">
<rect width="163" height="46" fill="white"/>
</clipPath>
</defs>
</svg>
