<svg id="Layer_1" data-name="Layer 1" xmlns="http://www.w3.org/2000/svg" xmlns:xlink="http://www.w3.org/1999/xlink" viewBox="0 0 211.21 39"><defs><style>.cls-1{fill:#fff;}.cls-2{fill:#46cdcf;}.cls-3,.cls-7,.cls-9{fill:none;}.cls-3{stroke:#000;stroke-width:0.04px;}.cls-3,.cls-9{stroke-miterlimit:10;}.cls-4{fill:#ff2e63;}.cls-5{fill:url(#linear-gradient);}.cls-6{fill:#0b102d;}.cls-8{fill:#111738;}.cls-9{stroke:#fff;stroke-width:0px;}.cls-10{fill:#2b2e4a;}.cls-11{fill:url(#linear-gradient-2);}</style><linearGradient id="linear-gradient" x1="18.93" y1="9.71" x2="32.22" y2="9.71" gradientUnits="userSpaceOnUse"><stop offset="0" stop-color="#fff"/><stop offset="0" stop-color="#46cdcf"/><stop offset="1" stop-color="#f6fcff" stop-opacity="0"/></linearGradient><linearGradient id="linear-gradient-2" x1="158.56" y1="8.64" x2="173.44" y2="8.64" gradientUnits="userSpaceOnUse"><stop offset="0" stop-color="#fff"/><stop offset="1" stop-color="#f6fcff" stop-opacity="0"/></linearGradient></defs><title>searchlight white</title><path class="cls-1" d="M19,.28,5,7A2.37,2.37,0,0,0,3.68,8.65L.22,23.8a2.43,2.43,0,0,0,.47,2L10.38,38a2.41,2.41,0,0,0,1.88.91H27.79A2.43,2.43,0,0,0,29.68,38l9.68-12.14a2.43,2.43,0,0,0,.47-2L36.37,8.65A2.38,2.38,0,0,0,35.07,7L21.07.28A2.4,2.4,0,0,0,19,.28Z"/><path class="cls-2" d="M12.29,31.8a88.19,88.19,0,0,1,11.38,0C22.76,32.16,13.56,32.18,12.29,31.8Z"/><path class="cls-2" d="M20.64,32.68a24.08,24.08,0,0,1-5.3,0v-.16h5.29Z"/><path class="cls-3" d="M23.67,11c1.25,5.23,3.92,8,9.18,8.68"/><path class="cls-3" d="M23.58,15.94c.42,1.93,5.9,6.52,8.56,6.74"/><path class="cls-3" d="M22.5,20.15a6.73,6.73,0,0,0,4.42,3.42"/><path class="cls-4" d="M12.82,12.22a1,1,0,0,1,.71.29c.38.34.58.36.87.06a3.85,3.85,0,0,1-.73-.59c-.35-.44-.76-.31-1.2-.26a.32.32,0,0,0-.33.25l.32.31A1.49,1.49,0,0,1,12.82,12.22Z"/><path class="cls-4" d="M12.05,12.57a.66.66,0,0,1,.19-.12.3.3,0,0,1,.22-.17L12.14,12c0,.11,0,.24-.05.34a1.26,1.26,0,0,0,0,.27h0Z"/><polygon class="cls-5" points="18.93 8.39 18.93 9.15 32.22 13.55 32.22 5.87 18.93 8.39"/><path class="cls-2" d="M10.27,30.46h0l-2.67.19a.3.3,0,0,0-.16.05l0,0s0,0,.06,0a.35.35,0,0,0,.14,0c1,0,14.16.5,20.93,0l.1,0s.17,0,.17-.06-.08,0-.14-.07h-.09l-3.66-.21H24.8C23,30.71,10.27,30.46,10.27,30.46Z"/><polygon points="18.44 9.35 18.44 9.35 18.44 9.35 18.44 9.35"/><path d="M17.26,9.51h0a.29.29,0,0,0,0-.09A.64.64,0,0,0,17.26,9.51Z"/><path class="cls-6" d="M18.28,9.18l-.16,0a2.72,2.72,0,0,1,.32.13A.85.85,0,0,0,18.28,9.18Z"/><path class="cls-6" d="M18.12,9.22a2,2,0,0,0-.37-.07,1.16,1.16,0,0,1,0,.18Z"/><path class="cls-6" d="M18.44,9.35a2.72,2.72,0,0,0-.32-.13l-.33.11a1.16,1.16,0,0,0,0-.18c-.21,0-.41,0-.47.27a.29.29,0,0,1,0,.09l1.18-.16Z"/><polygon class="cls-7" points="15.64 24.37 15.55 24.84 16.19 24.85 16.27 24.37 15.64 24.37"/><path class="cls-7" d="M15.39,26.12h.66l.08-.45C15.38,25.58,15.37,25.58,15.39,26.12Z"/><polygon class="cls-7" points="16.4 23.72 15.8 23.72 15.72 24.19 16.32 24.2 16.4 23.72"/><polygon class="cls-7" points="15.56 25.02 15.47 25.5 16.11 25.51 16.19 25.02 15.56 25.02"/><polygon class="cls-7" points="16.55 22.37 15.98 22.37 15.9 22.84 16.48 22.85 16.55 22.37"/><polygon class="cls-7" points="16.41 25.02 16.33 25.5 16.96 25.51 17.04 25.02 16.41 25.02"/><polygon class="cls-7" points="15.79 23.53 16.4 23.54 16.47 23.05 15.88 23.05 15.79 23.53"/><path class="cls-7" d="M17,26.11v-.44c-.72-.09-.73-.09-.67.44Z"/><polygon class="cls-7" points="17.47 21.59 17.54 21.11 16.98 21.11 16.9 21.58 17.47 21.59"/><path class="cls-7" d="M21.06,20.32l-2,3.37A2.66,2.66,0,0,0,21.06,20.32Z"/><path class="cls-7" d="M22.5,20.15c.67-1.48,1-2.84.16-4.21C21.84,17.27,22.26,18.65,22.5,20.15Z"/><path class="cls-7" d="M23.35,17V13H23.2A5,5,0,0,0,23.35,17Z"/><path class="cls-7" d="M21.22,13.12A2,2,0,0,0,23,11.77h0l-1.75,1.35Z"/><path class="cls-7" d="M21.06,22.32c1.2-.92,1.48-2.31.85-4.08C21.25,19.54,21.45,21,21.06,22.32Z"/><path class="cls-7" d="M20.59,13.61l-2.64,2A3.74,3.74,0,0,0,20.59,13.61Z"/><polygon class="cls-7" points="17.14 24.39 16.51 24.39 16.42 24.86 17.05 24.87 17.14 24.39"/><path class="cls-7" d="M18.05,26.19l.13-.1c-.15-3.53-.3-7.07-.43-9.89,0,2.74,0,6.21,0,9.68C17.77,26,18,26.09,18.05,26.19Z"/><polygon class="cls-7" points="17.6 19.9 17.11 19.9 17.05 20.37 17.54 20.38 17.6 19.9"/><polygon class="cls-7" points="17.54 20.54 17.03 20.54 16.96 21.01 17.48 21.03 17.54 20.54"/><path class="cls-7" d="M21.17,29.26H14.44a19.87,19.87,0,0,0,3.3.25h0a26.57,26.57,0,0,0,3.54-.25Z"/><path class="cls-7" d="M21.09,29.92H14.54a21.53,21.53,0,0,0,3.3.22h.06a26.64,26.64,0,0,0,3.34-.22h-.15Z"/><path class="cls-7" d="M17.71,28.88a23.56,23.56,0,0,0,3.34-.24H14.43a21.71,21.71,0,0,0,3.22.24Z"/><path class="cls-7" d="M18.88,27h0l-4.19-.16A2.52,2.52,0,0,1,13,26.17c-.51-.48-1.06-.92-1.6-1.38a.81.81,0,0,0-.37-.25c-1.21-.17-2.42-.31-3.63-.47v.14h0c.92.14,1.85.3,2.78.42a2.22,2.22,0,0,1,1.37.62c.56.54,1.21,1,1.83,1.5a.89.89,0,0,0,.39.19A23.42,23.42,0,0,0,18.88,27Z"/><path class="cls-7" d="M12.29,25.1l.15,0c-.09-2.1-.17-4.19-.26-6.29-.06,2-.06,3.92,0,5.88A1.19,1.19,0,0,0,12.29,25.1Z"/><path class="cls-7" d="M21.28,28H14.06a25.15,25.15,0,0,0,3.64.26h0A26.78,26.78,0,0,0,21.42,28Z"/><polygon class="cls-7" points="17.22 23.74 16.63 23.74 16.55 24.21 17.15 24.23 17.22 23.74"/><path class="cls-7" d="M22.12,26.35c-1,.15-2,.23-3,.35a11.82,11.82,0,0,0,4.46-.54,2.54,2.54,0,0,0,1.53-1.29A4.39,4.39,0,0,1,22.12,26.35Z"/><polygon class="cls-7" points="16.77 22.39 16.69 22.86 17.26 22.87 17.34 22.39 16.77 22.39"/><path class="cls-7" d="M13.75,24.44c0,1,.83,1.16,1.44,1.67.25-1.85.48-3.59.73-5.32.13-.93.14-.93-.76-1.25a11.68,11.68,0,0,1-1,2.37,2.88,2.88,0,0,0-.44,2.48A.09.09,0,0,1,13.75,24.44Z"/><polygon class="cls-7" points="17.45 21.77 16.88 21.77 16.81 22.24 17.38 22.26 17.45 21.77"/><polygon class="cls-7" points="16.7 23.07 16.62 23.55 17.22 23.56 17.3 23.07 16.7 23.07"/><polygon class="cls-7" points="16.76 21.09 16.19 21.09 16.11 21.56 16.68 21.57 16.76 21.09"/><path class="cls-6" d="M18.66,9.32v-1H18.3s0,0,0,0v.07s0,0,0,0h-.9s0,0,0,0v.89a.22.22,0,0,0,.22.22h.33a.27.27,0,0,0,.25-.19l0-.14s0,0,0,0h.08s0,0,0,0v.08s0,0,0,0h.37ZM18,9.21v0a.24.24,0,0,0,0,.08.17.17,0,0,1-.15.13h-.33a.11.11,0,0,1-.1-.1V9.24s0,0,0,0H18Zm-.37-.46h.1s0,0,0,0v.08s0,0,0,0h-.19s0,0,0,0V8.77a0,0,0,0,1,0,0Zm.65.11h0v0l0,0h0A0,0,0,0,1,18.32,8.86Zm0,.05s-.05,0-.05,0l0,0v0l0,0Z"/><polygon class="cls-7" points="16.66 21.75 16.1 21.75 16.02 22.22 16.59 22.24 16.66 21.75"/><polygon class="cls-7" points="16.93 19.88 16.44 19.88 16.37 20.35 16.86 20.36 16.93 19.88"/><polygon class="cls-7" points="16.84 20.52 16.32 20.52 16.25 21 16.77 21.01 16.84 20.52"/><path d="M13,17.6v0l-.2.16v0Z"/><path d="M11.7,18.64l-.14.11.12-.1Z"/><path d="M13,17.6h0l-.19.15v0l-1.13.91h0l-.12.1-.07.06Z"/><polygon class="cls-7" points="15.56 25.02 15.47 25.5 16.11 25.51 16.19 25.02 15.56 25.02"/><polygon class="cls-7" points="16.4 23.72 15.8 23.72 15.72 24.19 16.32 24.2 16.4 23.72"/><path class="cls-7" d="M15.39,26.12h.66l.08-.45C15.38,25.58,15.37,25.58,15.39,26.12Z"/><polygon class="cls-7" points="16.55 22.37 15.98 22.37 15.9 22.84 16.48 22.85 16.55 22.37"/><path class="cls-7" d="M17,26.11v-.44c-.72-.09-.73-.09-.67.44Z"/><polygon class="cls-7" points="16.41 25.02 16.33 25.5 16.96 25.51 17.04 25.02 16.41 25.02"/><polygon class="cls-7" points="17.47 21.59 17.54 21.11 16.98 21.11 16.9 21.58 17.47 21.59"/><polygon class="cls-7" points="15.79 23.53 16.4 23.54 16.47 23.05 15.88 23.05 15.79 23.53"/><polygon class="cls-7" points="17.14 24.39 16.51 24.39 16.42 24.86 17.05 24.87 17.14 24.39"/><path class="cls-7" d="M22.5,20.15c.67-1.48,1-2.84.16-4.21C21.84,17.27,22.26,18.65,22.5,20.15Z"/><path class="cls-7" d="M23.35,17V13H23.2A5,5,0,0,0,23.35,17Z"/><path class="cls-7" d="M21.06,22.32c1.2-.92,1.48-2.31.85-4.08C21.25,19.54,21.45,21,21.06,22.32Z"/><path class="cls-7" d="M21.22,13.12h0l.34-.27Z"/><path class="cls-7" d="M21.22,13.12A2,2,0,0,0,23,11.77h0l-.1.07h0l-1.31,1-.34.27Z"/><path class="cls-7" d="M20.59,13.61l-.12.09.12-.09Z"/><path class="cls-7" d="M18.19,15.62a4,4,0,0,0,2.4-2l-.12.09-2.52,2h0l.3-.24Z"/><path class="cls-7" d="M17.77,25.88c0,.1.18.21.28.31l.13-.1c-.14-3.32-.28-6.63-.4-9.37l0,.07h0C17.75,19.42,17.75,22.65,17.77,25.88Z"/><polygon class="cls-7" points="17.6 19.9 17.11 19.9 17.05 20.37 17.54 20.38 17.6 19.9"/><path class="cls-7" d="M21.06,20.32l-2,3.37A2.66,2.66,0,0,0,21.06,20.32Z"/><polygon class="cls-7" points="17.54 20.54 17.03 20.54 16.96 21.01 17.48 21.03 17.54 20.54"/><polygon class="cls-7" points="15.64 24.37 15.55 24.84 16.19 24.85 16.27 24.37 15.64 24.37"/><path class="cls-7" d="M21.17,29.26H14.44a19.87,19.87,0,0,0,3.3.25h0a26.57,26.57,0,0,0,3.54-.25Z"/><path class="cls-7" d="M17.71,28.88a23.56,23.56,0,0,0,3.34-.24H14.43a21.71,21.71,0,0,0,3.22.24Z"/><path class="cls-7" d="M21.09,29.92H14.54a21.53,21.53,0,0,0,3.3.22h.06a26.64,26.64,0,0,0,3.34-.22h-.15Z"/><path class="cls-7" d="M18.88,27h0l-4.19-.16A2.52,2.52,0,0,1,13,26.17c-.51-.48-1.06-.92-1.6-1.38a.81.81,0,0,0-.37-.25c-1.21-.17-2.42-.31-3.63-.47v.14h0c.92.14,1.85.3,2.78.42a2.22,2.22,0,0,1,1.37.62c.56.54,1.21,1,1.83,1.5a.89.89,0,0,0,.39.19A23.42,23.42,0,0,0,18.88,27Z"/><path class="cls-7" d="M12.29,25.1l.15,0c-.09-2.1-.17-4.19-.26-6.29-.06,2-.06,3.92,0,5.88A1.19,1.19,0,0,0,12.29,25.1Z"/><path class="cls-7" d="M21.28,28H14.06a25.15,25.15,0,0,0,3.64.26h0A26.78,26.78,0,0,0,21.42,28Z"/><path class="cls-7" d="M22.12,26.35c-1,.15-2,.23-3,.35a11.82,11.82,0,0,0,4.46-.54,2.54,2.54,0,0,0,1.53-1.29A4.39,4.39,0,0,1,22.12,26.35Z"/><polygon class="cls-7" points="16.66 21.75 16.1 21.75 16.02 22.22 16.59 22.24 16.66 21.75"/><polygon class="cls-7" points="16.93 19.88 16.44 19.88 16.37 20.35 16.86 20.36 16.93 19.88"/><polygon class="cls-7" points="17.45 21.77 16.88 21.77 16.81 22.24 17.38 22.26 17.45 21.77"/><polygon class="cls-7" points="16.77 22.39 16.69 22.86 17.26 22.87 17.34 22.39 16.77 22.39"/><polygon class="cls-7" points="16.7 23.07 16.62 23.55 17.22 23.56 17.3 23.07 16.7 23.07"/><polygon class="cls-7" points="17.22 23.74 16.63 23.74 16.55 24.21 17.15 24.23 17.22 23.74"/><polygon class="cls-7" points="16.84 20.52 16.32 20.52 16.25 21 16.77 21.01 16.84 20.52"/><path class="cls-7" d="M13.75,24.44c0,1,.83,1.16,1.44,1.67.25-1.85.48-3.59.73-5.32.13-.93.14-.93-.76-1.25a11.68,11.68,0,0,1-1,2.37,2.88,2.88,0,0,0-.44,2.48A.09.09,0,0,1,13.75,24.44Z"/><polygon class="cls-7" points="16.76 21.09 16.19 21.09 16.11 21.56 16.68 21.57 16.76 21.09"/><path class="cls-8" d="M17.78,16.72l.41-1.1-.23,0-.21.16v.39Z"/><polygon class="cls-9" points="17.47 21.59 17.54 21.11 16.98 21.11 16.9 21.58 17.47 21.59"/><path class="cls-9" d="M16.29,26.11H17v-.44C16.24,25.58,16.23,25.58,16.29,26.11Z"/><polygon class="cls-9" points="16.41 25.02 16.33 25.5 16.96 25.51 17.04 25.02 16.41 25.02"/><polygon class="cls-9" points="17.14 24.39 16.51 24.39 16.42 24.86 17.05 24.87 17.14 24.39"/><polygon class="cls-9" points="17.45 21.77 16.88 21.77 16.81 22.24 17.38 22.26 17.45 21.77"/><polygon class="cls-9" points="17.22 23.74 16.63 23.74 16.55 24.21 17.15 24.23 17.22 23.74"/><polygon class="cls-9" points="16.77 22.39 16.69 22.86 17.26 22.87 17.34 22.39 16.77 22.39"/><polygon class="cls-9" points="16.7 23.07 16.62 23.55 17.22 23.56 17.3 23.07 16.7 23.07"/><polygon class="cls-9" points="17.54 20.54 17.03 20.54 16.96 21.01 17.48 21.03 17.54 20.54"/><path class="cls-9" d="M22.5,20.15c.67-1.48,1-2.84.16-4.21C21.84,17.27,22.26,18.65,22.5,20.15Z"/><path class="cls-9" d="M21.06,22.32c1.2-.92,1.48-2.31.85-4.08C21.25,19.54,21.45,21,21.06,22.32Z"/><path class="cls-9" d="M21.06,20.32l-1.54,2.61h0l-.45.76A2.66,2.66,0,0,0,21.06,20.32Z"/><path class="cls-9" d="M13.74,24.39a.09.09,0,0,1,0,.05c0,1,.83,1.16,1.44,1.67.25-1.85.48-3.59.73-5.32.13-.93.14-.93-.76-1.25a11.68,11.68,0,0,1-1,2.37A2.88,2.88,0,0,0,13.74,24.39Z"/><path class="cls-9" d="M17.77,25.88c0,.1.18.21.28.31l.13-.1,0-.91h0l-.37-8.46.41-1.1a4,4,0,0,0,2.4-2h0l-.12.09-2.52,2h0l-.21.16v1C17.75,19.42,17.75,22.65,17.77,25.88Z"/><path class="cls-9" d="M23.35,17V13H23.2A5,5,0,0,0,23.35,17Z"/><polygon class="cls-9" points="17.6 19.9 17.11 19.9 17.05 20.37 17.54 20.38 17.6 19.9"/><polygon class="cls-9" points="16.93 19.88 16.44 19.88 16.37 20.35 16.86 20.36 16.93 19.88"/><path class="cls-9" d="M21.22,13.12A2,2,0,0,0,23,11.77h0l-.1.07-1.31,1-.34.27Z"/><path class="cls-9" d="M21.17,29.26H14.44a19.87,19.87,0,0,0,3.3.25h0a26.57,26.57,0,0,0,3.54-.25Z"/><path class="cls-9" d="M21.09,29.92H14.54a21.53,21.53,0,0,0,3.3.22h.06a26.64,26.64,0,0,0,3.34-.22h-.15Z"/><path class="cls-9" d="M18.88,27h0l-4.19-.16A2.52,2.52,0,0,1,13,26.17c-.51-.48-1.06-.92-1.6-1.38a.81.81,0,0,0-.37-.25c-1.21-.17-2.42-.31-3.63-.47v.14h0c.92.14,1.85.3,2.78.42a2.22,2.22,0,0,1,1.37.62c.56.54,1.21,1,1.83,1.5a.89.89,0,0,0,.39.19A23.42,23.42,0,0,0,18.88,27Z"/><path class="cls-9" d="M17.71,28.88a23.56,23.56,0,0,0,3.34-.24H14.43a21.71,21.71,0,0,0,3.22.24Z"/><path class="cls-9" d="M21.28,28H14.06a25.15,25.15,0,0,0,3.64.26h0A26.78,26.78,0,0,0,21.42,28Z"/><path class="cls-9" d="M22.12,26.35c-1,.15-2,.23-3,.35a11.82,11.82,0,0,0,4.46-.54,2.54,2.54,0,0,0,1.53-1.29A4.39,4.39,0,0,1,22.12,26.35Z"/><path class="cls-9" d="M12.29,25.1l.15,0c-.09-2.1-.17-4.19-.26-6.29-.06,2-.06,3.92,0,5.88A1.19,1.19,0,0,0,12.29,25.1Z"/><path class="cls-9" d="M16.05,26.12l.08-.45c-.75-.09-.76-.09-.74.45Z"/><polygon class="cls-9" points="16.55 22.37 15.98 22.37 15.9 22.84 16.48 22.85 16.55 22.37"/><polygon class="cls-9" points="16.66 21.75 16.1 21.75 16.02 22.22 16.59 22.24 16.66 21.75"/><polygon class="cls-9" points="16.76 21.09 16.19 21.09 16.11 21.56 16.68 21.57 16.76 21.09"/><polygon class="cls-9" points="16.47 23.05 15.88 23.05 15.79 23.53 16.4 23.54 16.47 23.05"/><polygon class="cls-9" points="16.84 20.52 16.32 20.52 16.25 21 16.77 21.01 16.84 20.52"/><polygon class="cls-9" points="16.19 25.02 15.56 25.02 15.47 25.5 16.11 25.51 16.19 25.02"/><polygon class="cls-9" points="16.27 24.37 15.64 24.37 15.55 24.84 16.19 24.85 16.27 24.37"/><polygon class="cls-9" points="16.4 23.72 15.8 23.72 15.72 24.19 16.32 24.2 16.4 23.72"/><polygon class="cls-7" points="16.93 19.88 16.44 19.88 16.37 20.35 16.86 20.36 16.93 19.88"/><polygon class="cls-7" points="17.22 23.74 16.63 23.74 16.55 24.21 17.15 24.23 17.22 23.74"/><polygon class="cls-7" points="17.54 20.54 17.03 20.54 16.96 21.01 17.48 21.03 17.54 20.54"/><polygon class="cls-7" points="16.41 25.02 16.33 25.5 16.96 25.51 17.04 25.02 16.41 25.02"/><path class="cls-7" d="M16.29,26.11H17v-.44C16.24,25.58,16.23,25.58,16.29,26.11Z"/><polygon class="cls-7" points="17.45 21.77 16.88 21.77 16.81 22.24 17.38 22.26 17.45 21.77"/><polygon class="cls-7" points="17.54 21.11 16.98 21.11 16.9 21.58 17.47 21.59 17.54 21.11"/><polygon class="cls-7" points="16.77 22.39 16.69 22.86 17.26 22.87 17.34 22.39 16.77 22.39"/><polygon class="cls-7" points="16.7 23.07 16.62 23.55 17.22 23.56 17.3 23.07 16.7 23.07"/><polygon class="cls-7" points="17.14 24.39 16.51 24.39 16.42 24.86 17.05 24.87 17.14 24.39"/><path class="cls-7" d="M23.35,17V13H23.2A5,5,0,0,0,23.35,17Z"/><path class="cls-7" d="M21.06,22.32c1.2-.92,1.48-2.31.85-4.08C21.25,19.54,21.45,21,21.06,22.32Z"/><path class="cls-7" d="M22.5,20.15c.67-1.48,1-2.84.16-4.21C21.84,17.27,22.26,18.65,22.5,20.15Z"/><polygon class="cls-7" points="17.6 19.9 17.11 19.9 17.05 20.37 17.54 20.38 17.6 19.9"/><path class="cls-7" d="M13.74,24.39a.09.09,0,0,1,0,.05c0,1,.83,1.16,1.44,1.67.25-1.85.48-3.59.73-5.32.13-.93.14-.93-.76-1.25a11.68,11.68,0,0,1-1,2.37A2.88,2.88,0,0,0,13.74,24.39Z"/><path class="cls-7" d="M17.77,25.88c0,.1.18.21.28.31l.13-.1,0-.91-.37-8.46.41-1.1a4,4,0,0,0,2.4-2h0l-.12.09-2.52,2h0l-.21.16v1C17.75,19.42,17.75,22.65,17.77,25.88Z"/><path class="cls-7" d="M21.22,13.12A2,2,0,0,0,23,11.77h0l-.1.07-1.31,1-.34.27Z"/><path class="cls-7" d="M21.06,20.32l-1.54,2.61-.45.76A2.66,2.66,0,0,0,21.06,20.32Z"/><path class="cls-7" d="M22.12,26.35c-1,.15-2,.23-3,.35a11.82,11.82,0,0,0,4.46-.54,2.54,2.54,0,0,0,1.53-1.29A4.39,4.39,0,0,1,22.12,26.35Z"/><path class="cls-7" d="M18.88,27h0l-4.19-.16A2.52,2.52,0,0,1,13,26.17c-.51-.48-1.06-.92-1.6-1.38a.81.81,0,0,0-.37-.25c-1.21-.17-2.42-.31-3.63-.47v.14h0c.92.14,1.85.3,2.78.42a2.22,2.22,0,0,1,1.37.62c.56.54,1.21,1,1.83,1.5a.89.89,0,0,0,.39.19A23.42,23.42,0,0,0,18.88,27Z"/><polygon class="cls-7" points="16.84 20.52 16.32 20.52 16.25 21 16.77 21.01 16.84 20.52"/><path class="cls-7" d="M12.29,25.1l.15,0c-.09-2.1-.17-4.19-.26-6.29-.06,2-.06,3.92,0,5.88A1.19,1.19,0,0,0,12.29,25.1Z"/><path class="cls-7" d="M21.17,29.26H14.44a19.87,19.87,0,0,0,3.3.25h0a26.57,26.57,0,0,0,3.54-.25Z"/><path class="cls-7" d="M21.28,28H14.06a25.15,25.15,0,0,0,3.64.26h0A26.78,26.78,0,0,0,21.42,28Z"/><path class="cls-7" d="M17.71,28.88a23.56,23.56,0,0,0,3.34-.24H14.43a21.71,21.71,0,0,0,3.22.24Z"/><path class="cls-7" d="M16.05,26.12l.08-.45c-.75-.09-.76-.09-.74.45Z"/><path class="cls-7" d="M21.09,29.92H14.54a21.53,21.53,0,0,0,3.3.22h.06a26.64,26.64,0,0,0,3.34-.22h-.15Z"/><polygon class="cls-7" points="16.55 22.37 15.98 22.37 15.9 22.84 16.48 22.85 16.55 22.37"/><polygon class="cls-7" points="16.66 21.75 16.1 21.75 16.02 22.22 16.59 22.24 16.66 21.75"/><polygon class="cls-7" points="16.76 21.09 16.19 21.09 16.11 21.56 16.68 21.57 16.76 21.09"/><polygon class="cls-7" points="16.19 25.02 15.56 25.02 15.47 25.5 16.11 25.51 16.19 25.02"/><polygon class="cls-7" points="16.27 24.37 15.64 24.37 15.55 24.84 16.19 24.85 16.27 24.37"/><polygon class="cls-7" points="16.47 23.05 15.88 23.05 15.79 23.53 16.4 23.54 16.47 23.05"/><polygon class="cls-7" points="16.4 23.72 15.8 23.72 15.72 24.19 16.32 24.2 16.4 23.72"/><path class="cls-6" d="M13.06,16.52s-.06-.47-.19-.54c-.37-.22-.34-.42-.14-.72a2.57,2.57,0,0,0,.36-.77c.14-.59-.09-.89-.66-.93a.68.68,0,0,1-.2-.07,3.48,3.48,0,0,1,0-1l-.17.09c0,.47.07,1-.26,1.39a.22.22,0,0,0,0,.14c.07.41.14.83.2,1.25s-.07.49-.42.54a.46.46,0,0,0-.33.32.62.62,0,0,0,.25.49,1.21,1.21,0,0,1,.21,1.91l1.13-.91C12.87,17.23,12.5,16.8,13.06,16.52Z"/><path class="cls-6" d="M18,15.1c0-.47,0-.94,0-1.4a.89.89,0,0,1,.33-.84l.48-.38v-.7c-.08,0-.27-.1-.46-.15l-.57-.15c.91-1.27,1.07-1.7.72-2.13l-1.17.16,0,.18c-.08.51,0,1.05-.07,1.56a.67.67,0,0,1-.34.39c-.2.11-.45.13-.42.46s-.08.58.34.67c.09,0,.2.26.18.38-.1.85-.3,1.69-.32,2.54a.78.78,0,0,1,0,.22v0C16.65,15.52,17.34,15.17,18,15.1Z"/><path class="cls-8" d="M27.48,23.11l0-.1,6.29-3.75-.09-.21a2.06,2.06,0,0,0-.46.14c-1,.6-2,1.22-3.08,1.81-1.36.76-2.74,1.49-4.12,2.23a1.09,1.09,0,0,1-.43.11c-.28,0-.39.13-.47.41a3,3,0,0,1-2.92,2.32c-.26,0-.53.06-.8.06-.75,0-1.5,0-2.27,0-.08-.56-.18-1.13-.21-1.69a.61.61,0,0,1,.28-.48,7.18,7.18,0,0,0,4-4.82,16,16,0,0,0,.27-6.74c-.07-.5-.28-1,.42-1.35l-.2-.13-5.6,4.25L18,15.1l-1.62,1.36h0a4,4,0,0,1-.95.69,10.51,10.51,0,0,1-.23,2.4c.9.32.89.32.76,1.25-.25,1.73-.48,3.47-.73,5.32-.61-.51-1.44-.71-1.44-1.67a.09.09,0,0,0,0-.05,2.88,2.88,0,0,1,.44-2.48,11.68,11.68,0,0,0,1-2.37,10.51,10.51,0,0,0,.23-2.4h0c.07-.53-.3-1.12.3-1.55a16.61,16.61,0,0,0-1.39,1L13,17.6h0l-1.53,1.21.07-.06c-.86.68-1.72,1.34-2.57,2a3.64,3.64,0,0,0-.34.34l.11.11,1.32-1,.11.13-.87.76c1.68.59,2.89,2,2.62,3.31,0-.42-.08-.66-.52-.67-1.66-.07-3.31-.22-5-.29-1.18,0-1.26.19-1.18,1.17a.88.88,0,0,0,.59.85c1,.47,1.93,1,2.86,1.57a1.51,1.51,0,0,1,.77,1.38,3.15,3.15,0,0,0,.29,1.11,9.29,9.29,0,0,0,.55.95s13,.26,14.57,0a5.9,5.9,0,0,0,2.81-3.85c.14-.42.29-.82.45-1.23a2.4,2.4,0,0,1,1.37-1.47c.79-.32,1.6-.6,2.4-.88.25-.09.44-.16.25-.5Zm-6.42-.79c.39-1.36.19-2.78.85-4.08C22.54,20,22.26,21.4,21.06,22.32Zm1.44-2.17c-.24-1.5-.66-2.88.16-4.21C23.48,17.31,23.17,18.67,22.5,20.15ZM23.35,17a5,5,0,0,1-.15-4h.15Zm-5.6-1.18.21-.16h0l2.52-2h0l.12-.09h0l.63-.49h0l.34-.27h0l1.31-1,.75-.62-.75.62.1-.07h0a2,2,0,0,1-1.75,1.35h0l-.63.49a4,4,0,0,1-2.4,2l-.41,1.1.37,8.46,1.37-2.25,1.54-2.61a2.66,2.66,0,0,1-2,3.37l.45-.76-1.37,2.25,0,.91-.13.1c-.1-.1-.28-.21-.28-.31,0-3.23,0-6.46,0-9.1Zm-.64,4.09h.49l-.06.48h-.49Zm-.08.64h.51l-.06.49L17,21Zm-.07,5h-.63l.08-.48H17Zm0,.16v.44h-.67C16.23,25.58,16.24,25.58,17,25.67Zm-.54-.81.09-.47h.62l-.08.48Zm.13-.65.08-.47h.59l-.07.48Zm.67-.65h-.6l.08-.48h.6Zm0-.69h-.57l.08-.47h.57Zm-.45-.63.07-.47h.57l-.07.49Zm.09-.66.07-.47h.57l-.07.48Zm-.46-1.7h.49l-.07.48h-.49Zm-.12.64h.52l-.07.49h-.52Zm-.13.57h.57l-.08.48h-.57Zm-.09.66h.56l-.07.49-.57,0Zm-.12.62h.57l-.07.48H15.9Zm-.1.68h.59l-.07.49h-.6Zm-.08.67h.6l-.08.49-.6,0Zm-.16.65h.63l-.08.48h-.64Zm-.08.65h.63l-.08.49h-.64Zm.57.65-.08.45h-.66C15.37,25.58,15.38,25.58,16.13,25.67Zm-3.95-6.88c.09,2.1.17,4.19.26,6.29l-.15,0a1.19,1.19,0,0,1-.16-.43C12.12,22.71,12.12,20.75,12.18,18.79Zm1.15,8c-.62-.49-1.27-1-1.83-1.5a2.22,2.22,0,0,0-1.37-.62c-.93-.12-1.86-.28-2.78-.42h0v-.14c1.21.16,2.42.3,3.63.47a.81.81,0,0,1,.37.25c.54.46,1.09.9,1.6,1.38a2.52,2.52,0,0,0,1.74.66l4.19.16h0A23.42,23.42,0,0,1,13.72,27,.89.89,0,0,1,13.33,26.76Zm4.57,3.38h-.06a21.53,21.53,0,0,1-3.3-.22h6.7A26.64,26.64,0,0,1,17.9,30.14Zm-.13-.63h0a19.87,19.87,0,0,1-3.3-.25h6.87A26.57,26.57,0,0,1,17.77,29.51Zm-3.34-.87h6.62a23.56,23.56,0,0,1-3.34.24h-.06A21.71,21.71,0,0,1,14.43,28.64Zm3.31-.37h0A25.15,25.15,0,0,1,14.06,28h7.36A26.78,26.78,0,0,1,17.74,28.27Zm5.83-2.11a11.82,11.82,0,0,1-4.46.54c1-.12,2-.2,3-.35a4.39,4.39,0,0,0,3-1.48A2.54,2.54,0,0,1,23.57,26.16Z"/><path class="cls-10" d="M16.34,16.45a1,1,0,0,0,.24-.54A1.23,1.23,0,0,1,16.34,16.45Z"/><path class="cls-8" d="M18,15.1c-.61.07-1.3.42-1.36.77v0a1,1,0,0,1-.24.54h0Z"/><circle class="cls-2" cx="17.57" cy="9.49" r="0.09"/><circle class="cls-2" cx="17.9" cy="9.49" r="0.09"/><path class="cls-1" d="M44.63,25.75a11.63,11.63,0,0,0,5.61,1.48c2.71,0,4.23-1.27,4.23-3.16s-1.17-2.79-4.13-3.85c-3.82-1.38-6.26-3.41-6.26-6.75,0-3.78,3.16-6.67,8.19-6.67A12.24,12.24,0,0,1,57.84,8l-1,3.41a9.83,9.83,0,0,0-4.61-1.1c-2.69,0-3.86,1.44-3.86,2.78,0,1.79,1.35,2.62,4.44,3.82,4,1.51,6,3.54,6,6.88,0,3.71-2.82,7-8.81,7a13.72,13.72,0,0,1-6.26-1.45Z"/><path class="cls-1" d="M65.62,23.17c.1,3,2.47,4.34,5.16,4.34a12.59,12.59,0,0,0,4.64-.76L76,29.68a15.86,15.86,0,0,1-5.85,1c-5.43,0-8.63-3.34-8.63-8.46,0-4.65,2.82-9,8.19-9S77,17.71,77,21.39a10.05,10.05,0,0,1-.14,1.78Zm7.36-3c0-1.55-.65-4.1-3.48-4.1-2.61,0-3.71,2.38-3.88,4.1Z"/><path class="cls-1" d="M89.8,30.36l-.27-1.85h-.1a6.26,6.26,0,0,1-5,2.23,5,5,0,0,1-5.26-5c0-4.23,3.75-6.36,9.94-6.32v-.28c0-1.1-.45-2.92-3.41-2.92a8.86,8.86,0,0,0-4.5,1.23l-.83-2.75a12.16,12.16,0,0,1,6.06-1.48c5.36,0,6.91,3.41,6.91,7.06v6.05a27.09,27.09,0,0,0,.24,4Zm-.55-8.18c-3-.07-5.84.58-5.84,3.13a2.22,2.22,0,0,0,2.4,2.41,3.44,3.44,0,0,0,3.31-2.31,3.11,3.11,0,0,0,.13-.93Z"/><path class="cls-1" d="M97.86,19c0-2.27,0-3.88-.14-5.4h3.68l.14,3.2h.14a5,5,0,0,1,4.57-3.58,4.44,4.44,0,0,1,1,.11v4a5.82,5.82,0,0,0-1.24-.14,3.72,3.72,0,0,0-3.78,3.2,7.11,7.11,0,0,0-.14,1.31v8.66H97.86Z"/><path class="cls-1" d="M122.11,29.85a12.29,12.29,0,0,1-4.75.86c-5.22,0-8.63-3.34-8.63-8.53,0-5,3.44-8.95,9.32-8.95a10.75,10.75,0,0,1,4.1.79l-.76,3.17a7.48,7.48,0,0,0-3.2-.65c-3.23,0-5.16,2.37-5.13,5.43,0,3.44,2.24,5.4,5.13,5.4a8.38,8.38,0,0,0,3.34-.65Z"/><path class="cls-1" d="M125.25,5.94h4.26v10h.07a5.68,5.68,0,0,1,2.1-1.93,5.73,5.73,0,0,1,2.89-.76c2.85,0,5.85,1.9,5.85,7.26v9.87h-4.24V21c0-2.44-.89-4.26-3.23-4.26a3.46,3.46,0,0,0-3.27,2.37,3.76,3.76,0,0,0-.17,1.27v10h-4.26Z"/><path class="cls-1" d="M144.93,5.94h4.26V30.36h-4.26Z"/><path class="cls-1" d="M158.27,8.93a2.37,2.37,0,0,1-4.74,0,2.37,2.37,0,0,1,4.74,0Z"/><rect class="cls-1" x="153.77" y="13.61" width="4.27" height="16.75"/><path class="cls-1" d="M177.88,13.61c-.06,1.14-.13,2.51-.13,4.82v9.49c0,3.51-.73,6-2.48,7.6a9.62,9.62,0,0,1-6.47,2A11.76,11.76,0,0,1,163,36.21l.92-3.2a10.13,10.13,0,0,0,4.89,1.28c2.75,0,4.81-1.45,4.81-5.06V27.78h-.06a5.68,5.68,0,0,1-4.89,2.48c-4.16,0-7.12-3.44-7.12-8.19,0-5.5,3.58-8.84,7.6-8.84A5.26,5.26,0,0,1,174,15.85H174l.17-2.24Zm-4.36,6.71a4.29,4.29,0,0,0-.14-1.14,3.52,3.52,0,0,0-3.44-2.71c-2.38,0-4.13,2.06-4.13,5.47,0,2.85,1.45,5.16,4.09,5.16a3.61,3.61,0,0,0,3.44-2.55,6.86,6.86,0,0,0,.18-1.51Z"/><path class="cls-1" d="M182.29,5.94h4.27v10h.07A5.65,5.65,0,0,1,188.72,14a5.79,5.79,0,0,1,2.89-.76c2.86,0,5.85,1.9,5.85,7.26v9.87h-4.23V21c0-2.44-.89-4.26-3.23-4.26a3.46,3.46,0,0,0-3.27,2.37,3.52,3.52,0,0,0-.17,1.27v10h-4.27Z"/><path class="cls-1" d="M206.65,8.83v4.78h4v3.17h-4v7.39c0,2,.55,3.1,2.17,3.1a6.38,6.38,0,0,0,1.65-.21l.07,3.24a9.33,9.33,0,0,1-3.06.41,4.9,4.9,0,0,1-3.65-1.38c-.89-1-1.31-2.47-1.31-4.68V16.78h-2.4V13.61h2.4V9.83Z"/><path class="cls-11" d="M158.56,7.41A2.72,2.72,0,0,1,159.11,9a2.51,2.51,0,0,1-.15.78l14.41,3.14.07-8.5Z"/></svg>