<svg id="Layer_1" data-name="Layer 1" xmlns="http://www.w3.org/2000/svg" xmlns:xlink="http://www.w3.org/1999/xlink" viewBox="0 0 1279 639"><defs><style>.cls-1,.cls-12,.cls-5{fill:none;}.cls-2{fill:#46cdcf;}.cls-3,.cls-4,.cls-8{fill:#fff;}.cls-3{opacity:0.8;}.cls-4{opacity:0.7;}.cls-5{stroke:#000;stroke-width:0.2px;}.cls-12,.cls-5{stroke-miterlimit:10;}.cls-6{fill:#ff2e63;}.cls-7{fill:url(#linear-gradient);}.cls-9{fill:#0b102d;}.cls-10{fill:#eaeaea;}.cls-11{fill:#111738;}.cls-12{stroke:#fff;stroke-width:0px;}.cls-13{fill:#2b2e4a;}.cls-14{fill:url(#linear-gradient-2);}</style><linearGradient id="linear-gradient" x1="214.54" y1="271.58" x2="279.82" y2="271.58" gradientUnits="userSpaceOnUse"><stop offset="0" stop-color="#fff"/><stop offset="1" stop-color="#f6fcff" stop-opacity="0"/></linearGradient><linearGradient id="linear-gradient-2" x1="901.44" y1="269.65" x2="974.35" y2="269.65" gradientUnits="userSpaceOnUse"><stop offset="0" stop-color="#fff"/><stop offset="0" stop-color="#46cdcf"/><stop offset="1" stop-color="#f6fcff" stop-opacity="0"/></linearGradient></defs><title>searchlight-logo-1280x640</title><path class="cls-1" d="M214.83,473.59V424.73l-1.79,0C208.53,440.58,205.59,456.36,214.83,473.59Z"/><path class="cls-1" d="M214.83,473.59V424.73l-1.79,0C208.53,440.58,205.59,456.36,214.83,473.59Z"/><path class="cls-1" d="M214.83,473.59V424.73l-1.79,0C208.53,440.58,205.59,456.36,214.83,473.59Z"/><path class="cls-2" d="M214.78,225.23,146,258.34a11.92,11.92,0,0,0-6.41,8l-17,74.41a11.84,11.84,0,0,0,2.29,10l47.59,59.68a11.85,11.85,0,0,0,9.26,4.46h76.32a11.85,11.85,0,0,0,9.26-4.46l47.59-59.68a11.84,11.84,0,0,0,2.29-10l-17-74.41a11.88,11.88,0,0,0-6.4-8l-68.77-33.11A11.81,11.81,0,0,0,214.78,225.23Z"/><path class="cls-3" d="M181.91,380.13a425.61,425.61,0,0,1,55.9-.05C233.36,381.88,188.14,382,181.91,380.13Z"/><path class="cls-4" d="M222.92,384.43a117.56,117.56,0,0,1-26,0v-.78h26Z"/><path class="cls-5" d="M237.84,277.81c6.1,25.69,19.26,39.11,45.1,42.65"/><path class="cls-5" d="M237.38,302.21c2.05,9.45,29,32,42,33.11"/><path class="cls-5" d="M232.06,322.9c5.36,8.79,13.39,15.68,21.72,16.78"/><path class="cls-6" d="M184.53,283.89a5.24,5.24,0,0,1,3.48,1.44c1.86,1.67,2.84,1.77,4.26.31a21,21,0,0,1-3.6-2.92c-1.71-2.13-3.73-1.5-5.87-1.27a1.63,1.63,0,0,0-1.63,1.25l1.56,1.5A10.77,10.77,0,0,1,184.53,283.89Z"/><path class="cls-6" d="M180.74,285.65a5,5,0,0,1,.91-.63,1.58,1.58,0,0,1,1.08-.82l-1.56-1.5c-.15.54-.13,1.16-.26,1.67a7.28,7.28,0,0,0-.2,1.31h0Z"/><polygon class="cls-7" points="214.54 265.09 214.54 268.84 279.82 290.45 279.82 252.72 214.54 265.09"/><path class="cls-8" d="M172,373.53l.7,0-.58,0h-.24l-13.12.93a1.7,1.7,0,0,0-.82.27c-.09.06-.16.12-.16.17s.14.13.29.2a1.62,1.62,0,0,0,.69.16c5.09.19,69.55,2.42,102.81-.08a1.84,1.84,0,0,0,.52-.1c.24-.1.81-.19.81-.28s-.4-.23-.67-.32a1.63,1.63,0,0,0-.45-.09l-18-1a1.7,1.7,0,0,0-.39,0C234.67,374.77,172,373.53,172,373.53Z"/><polygon points="212.13 269.79 212.12 269.79 212.12 269.79 212.13 269.79"/><path d="M206.34,270.59h0c0-.15.05-.3.08-.46A2.88,2.88,0,0,0,206.34,270.59Z"/><path class="cls-9" d="M211.34,269l-.78.24a13.1,13.1,0,0,1,1.56.59A8.4,8.4,0,0,0,211.34,269Z"/><path class="cls-9" d="M210.56,269.2a7.34,7.34,0,0,0-1.82-.36c.07.29.13.58.17.86Z"/><path class="cls-9" d="M212.12,269.79a13.1,13.1,0,0,0-1.56-.59l-1.65.5c0-.28-.1-.57-.17-.86-1.05-.06-2,.22-2.31,1.29,0,.16-.06.31-.08.46l5.77-.8Z"/><polygon class="cls-1" points="198.35 343.59 197.94 345.92 201.05 345.98 201.44 343.59 198.35 343.59"/><path class="cls-1" d="M197.14,352.19h3.25l.4-2.19C197.08,349.54,197,349.58,197.14,352.19Z"/><polygon class="cls-1" points="202.09 340.41 199.15 340.41 198.76 342.74 201.71 342.8 202.09 340.41"/><polygon class="cls-1" points="197.96 346.83 197.55 349.15 200.66 349.22 201.05 346.83 197.96 346.83"/><polygon class="cls-1" points="202.83 333.77 200.04 333.77 199.66 336.1 202.48 336.16 202.83 333.77"/><polygon class="cls-1" points="202.15 346.83 201.74 349.15 204.84 349.22 205.24 346.83 202.15 346.83"/><polygon class="cls-1" points="199.13 339.47 202.08 339.53 202.45 337.14 199.52 337.14 199.13 339.47"/><path class="cls-1" d="M204.85,352.17V350c-3.56-.43-3.57-.43-3.31,2.19Z"/><polygon class="cls-1" points="207.36 329.97 207.72 327.58 204.92 327.58 204.55 329.91 207.36 329.97"/><path class="cls-1" d="M225,323.72l-9.78,16.53C222.89,338.3,226.5,332.16,225,323.72Z"/><path class="cls-1" d="M232.06,322.9c3.3-7.28,4.84-13.95.8-20.69C228.85,308.74,230.91,315.51,232.06,322.9Z"/><path class="cls-1" d="M236.24,307.37V287.64l-.73,0C233.69,294,232.51,300.41,236.24,307.37Z"/><path class="cls-1" d="M225.8,288.32c4.08-.34,7.81-3.31,8.58-6.62l0,0v0l-8.57,6.62Z"/><path class="cls-1" d="M225,333.54c5.88-4.51,7.26-11.37,4.14-20.05C225.91,319.86,226.92,326.85,225,333.54Z"/><path class="cls-1" d="M222.67,290.74l-12.94,10C214.19,300.55,219.89,296.11,222.67,290.74Z"/><polygon class="cls-1" points="205.71 343.69 202.62 343.69 202.21 346.02 205.32 346.08 205.71 343.69"/><path class="cls-1" d="M210.21,352.56l.66-.51c-.76-17.35-1.51-34.7-2.12-48.58,0,13.47,0,30.52.07,47.56C208.82,351.54,209.73,352.05,210.21,352.56Z"/><polygon class="cls-1" points="208.01 321.63 205.6 321.63 205.28 323.96 207.71 324.02 208.01 321.63"/><polygon class="cls-1" points="207.72 324.8 205.2 324.8 204.86 327.13 207.4 327.19 207.72 324.8"/><path class="cls-1" d="M225.51,367.64h-33a95.79,95.79,0,0,0,16.2,1.22h.16a132,132,0,0,0,17.39-1.22h-.73Z"/><path class="cls-1" d="M225.16,370.86H193a106.31,106.31,0,0,0,16.2,1.12h.33a126.74,126.74,0,0,0,16.38-1.12h-.71Z"/><path class="cls-1" d="M208.54,365.75a113.36,113.36,0,0,0,16.39-1.18H192.41a102.45,102.45,0,0,0,15.84,1.19Z"/><path class="cls-1" d="M214.28,356.57l-.42,0,.42,0c-6.91-.27-13.75-.55-20.58-.8a12.63,12.63,0,0,1-8.55-3.24c-2.53-2.36-5.21-4.56-7.85-6.8a4.51,4.51,0,0,0-1.82-1.21c-5.94-.83-11.89-1.56-17.84-2.32l0,.67h0v.06c4.55.69,9.1,1.46,13.66,2.06a11.08,11.08,0,0,1,6.74,3,115.77,115.77,0,0,0,9,7.39,4.22,4.22,0,0,0,2,.92A111.71,111.71,0,0,0,214.28,356.57Z"/><path class="cls-1" d="M181.88,347.21l.75-.13q-.63-15.43-1.27-30.86c-.27,9.63-.29,19.25-.24,28.88A6.8,6.8,0,0,0,181.88,347.21Z"/><path class="cls-1" d="M226.05,361.52H190.61a124.06,124.06,0,0,0,17.86,1.23h.24a135.91,135.91,0,0,0,18.07-1.23h-.73Z"/><polygon class="cls-1" points="206.14 340.51 203.21 340.51 202.81 342.84 205.76 342.9 206.14 340.51"/><path class="cls-1" d="M230.2,353.33c-4.92.72-9.87,1.15-14.81,1.71,7.43.06,14.85.11,21.93-2.62,3.21-1.23,6-3,7.53-6.34C241.09,350.78,235.82,352.49,230.2,353.33Z"/><polygon class="cls-1" points="203.9 333.86 203.53 336.19 206.34 336.25 206.69 333.86 203.9 333.86"/><path class="cls-1" d="M189.07,344c0,4.72,4.06,5.71,7.1,8.2,1.23-9.07,2.36-17.62,3.57-26.16.65-4.56.71-4.55-3.72-6.11-1.59,4-2.51,8.31-4.84,11.63-2.82,4-3.14,7.83-2.14,12.2A1,1,0,0,1,189.07,344Z"/><polygon class="cls-1" points="207.26 330.83 204.47 330.83 204.09 333.16 206.91 333.23 207.26 330.83"/><polygon class="cls-1" points="203.57 337.23 203.18 339.56 206.13 339.62 206.5 337.23 203.57 337.23"/><polygon class="cls-1" points="203.85 327.48 201.06 327.48 200.69 329.81 203.5 329.88 203.85 327.48"/><path class="cls-10" d="M213.2,269.69v-5.06h-1.76c-.08,0-.11,0-.11.1s0,.25,0,.37,0,.1-.09.09h-4.43c-.19,0-.19,0-.19.2v4.4a1,1,0,0,0,1.05,1h1.63a1.3,1.3,0,0,0,1.24-.94c.07-.22.11-.45.17-.67,0-.05,0-.1.1-.09h.43a.08.08,0,0,1,.09.09c0,.13,0,.26,0,.39s0,.08.08.08h1.79Zm-3-.55c0,.05,0,.08,0,.12s-.08.27-.1.42a.75.75,0,0,1-.71.6h-1.65a.47.47,0,0,1-.49-.49c0-.17,0-.34,0-.51s0-.14.14-.14h2.83Zm-1.84-2.26h.49c.05,0,.08,0,.08.08a2.94,2.94,0,0,0,0,.42c0,.06,0,.08-.09.08h-1c-.07,0-.09,0-.09-.1s0-.25,0-.38,0-.1.1-.1Zm3.2.51-.05.05s-.05,0-.05-.07,0-.08-.09-.09,0,0-.05-.06,0,0,.06,0A.19.19,0,0,1,211.52,267.39Zm-.16.28c-.2,0-.27,0-.25-.18s0-.05,0-.07a.13.13,0,0,1,0,.07c0,.06,0,.08.08.09S211.33,267.63,211.36,267.67Z"/><polygon class="cls-1" points="203.4 330.74 200.6 330.74 200.23 333.07 203.04 333.13 203.4 330.74"/><polygon class="cls-1" points="204.68 321.54 202.28 321.54 201.95 323.87 204.38 323.93 204.68 321.54"/><polygon class="cls-1" points="204.24 324.7 201.72 324.7 201.38 327.03 203.91 327.09 204.24 324.7"/><path d="M185.47,310.37l.09-.15-1,.79v.07Z"/><path d="M179,315.46l-.69.55.62-.49Z"/><path d="M185.47,310.37h0l-.9.71V311L179,315.46l-.07.06-.62.49-.32.26Z"/><polygon class="cls-1" points="197.96 346.83 197.55 349.15 200.66 349.22 201.05 346.83 197.96 346.83"/><polygon class="cls-1" points="202.09 340.41 199.15 340.41 198.76 342.74 201.71 342.8 202.09 340.41"/><path class="cls-1" d="M197.14,352.19h3.25l.4-2.19C197.08,349.54,197,349.58,197.14,352.19Z"/><polygon class="cls-1" points="202.83 333.77 200.04 333.77 199.66 336.1 202.48 336.16 202.83 333.77"/><path class="cls-1" d="M204.85,352.17V350c-3.56-.43-3.57-.43-3.31,2.19Z"/><polygon class="cls-1" points="202.15 346.83 201.74 349.15 204.84 349.22 205.24 346.83 202.15 346.83"/><polygon class="cls-1" points="207.36 329.97 207.72 327.58 204.92 327.58 204.55 329.91 207.36 329.97"/><polygon class="cls-1" points="199.13 339.47 202.08 339.53 202.45 337.14 199.52 337.14 199.13 339.47"/><polygon class="cls-1" points="205.71 343.69 202.62 343.69 202.21 346.02 205.32 346.08 205.71 343.69"/><path class="cls-1" d="M232.06,322.9c3.3-7.28,4.84-13.95.8-20.69C228.85,308.74,230.91,315.51,232.06,322.9Z"/><path class="cls-1" d="M236.24,307.37V287.64l-.73,0C233.69,294,232.51,300.41,236.24,307.37Z"/><path class="cls-1" d="M225,333.54c5.88-4.51,7.26-11.37,4.14-20.05C225.91,319.86,226.92,326.85,225,333.54Z"/><path class="cls-1" d="M225.79,288.32h0l1.67-1.29Z"/><path class="cls-1" d="M225.8,288.32c4.08-.34,7.81-3.31,8.58-6.62l0,0v0l-.46.36h0l-6.43,5-1.67,1.29Z"/><path class="cls-1" d="M222.67,290.74l-.58.45.58-.45Z"/><path class="cls-1" d="M210.87,300.63c4.25-.83,9.25-5,11.8-9.89l-.58.45-12.36,9.58h0l1.51-1.17Z"/><path class="cls-1" d="M208.82,351c0,.51.91,1,1.39,1.53l.66-.51c-.71-16.29-1.42-32.58-2-46l-.12.3v0C208.75,319.3,208.75,335.17,208.82,351Z"/><polygon class="cls-1" points="208.01 321.63 205.6 321.63 205.28 323.96 207.71 324.02 208.01 321.63"/><path class="cls-1" d="M225,323.72l-9.78,16.53C222.89,338.3,226.5,332.16,225,323.72Z"/><polygon class="cls-1" points="207.72 324.8 205.2 324.8 204.86 327.13 207.4 327.19 207.72 324.8"/><polygon class="cls-1" points="198.35 343.59 197.94 345.92 201.05 345.98 201.44 343.59 198.35 343.59"/><path class="cls-1" d="M225.51,367.64h-33a95.79,95.79,0,0,0,16.2,1.22h.16a132,132,0,0,0,17.39-1.22h-.73Z"/><path class="cls-1" d="M208.54,365.75a113.36,113.36,0,0,0,16.39-1.18H192.41a102.45,102.45,0,0,0,15.84,1.19Z"/><path class="cls-1" d="M225.16,370.86H193a106.31,106.31,0,0,0,16.2,1.12h.33a126.74,126.74,0,0,0,16.38-1.12h-.71Z"/><path class="cls-1" d="M214.28,356.57l-.42,0,.42,0c-6.91-.27-13.75-.55-20.58-.8a12.63,12.63,0,0,1-8.55-3.24c-2.53-2.36-5.21-4.56-7.85-6.8a4.51,4.51,0,0,0-1.82-1.21c-5.94-.83-11.89-1.56-17.84-2.32l0,.67h0v.06c4.55.69,9.1,1.46,13.66,2.06a11.08,11.08,0,0,1,6.74,3,115.77,115.77,0,0,0,9,7.39,4.22,4.22,0,0,0,2,.92A111.71,111.71,0,0,0,214.28,356.57Z"/><path class="cls-1" d="M181.88,347.21l.75-.13q-.63-15.43-1.27-30.86c-.27,9.63-.29,19.25-.24,28.88A6.8,6.8,0,0,0,181.88,347.21Z"/><path class="cls-1" d="M226.05,361.52H190.61a124.06,124.06,0,0,0,17.86,1.23h.24a135.91,135.91,0,0,0,18.07-1.23h-.73Z"/><path class="cls-1" d="M230.2,353.33c-4.92.72-9.87,1.15-14.81,1.71,7.43.06,14.85.11,21.93-2.62,3.21-1.23,6-3,7.53-6.34C241.09,350.78,235.82,352.49,230.2,353.33Z"/><polygon class="cls-1" points="203.4 330.74 200.6 330.74 200.23 333.07 203.04 333.13 203.4 330.74"/><polygon class="cls-1" points="204.68 321.54 202.28 321.54 201.95 323.87 204.38 323.93 204.68 321.54"/><polygon class="cls-1" points="207.26 330.83 204.47 330.83 204.09 333.16 206.91 333.23 207.26 330.83"/><polygon class="cls-1" points="203.9 333.86 203.53 336.19 206.34 336.25 206.69 333.86 203.9 333.86"/><polygon class="cls-1" points="203.57 337.23 203.18 339.56 206.13 339.62 206.5 337.23 203.57 337.23"/><polygon class="cls-1" points="206.14 340.51 203.21 340.51 202.81 342.84 205.76 342.9 206.14 340.51"/><polygon class="cls-1" points="204.24 324.7 201.72 324.7 201.38 327.03 203.91 327.09 204.24 324.7"/><path class="cls-1" d="M189.07,344c0,4.72,4.06,5.71,7.1,8.2,1.23-9.07,2.36-17.62,3.57-26.16.65-4.56.71-4.55-3.72-6.11-1.59,4-2.51,8.31-4.84,11.63-2.82,4-3.14,7.83-2.14,12.2A1,1,0,0,1,189.07,344Z"/><polygon class="cls-1" points="203.85 327.48 201.06 327.48 200.69 329.81 203.5 329.88 203.85 327.48"/><path class="cls-11" d="M208.87,306.05l2-5.42a6.34,6.34,0,0,1-1.13.14l-1,.77v1.93Z"/><polygon class="cls-12" points="207.36 329.97 207.72 327.58 204.92 327.58 204.55 329.91 207.36 329.97"/><path class="cls-12" d="M201.54,352.17h3.31V350C201.29,349.55,201.28,349.55,201.54,352.17Z"/><polygon class="cls-12" points="202.15 346.83 201.74 349.15 204.84 349.22 205.24 346.83 202.15 346.83"/><polygon class="cls-12" points="205.71 343.69 202.62 343.69 202.21 346.02 205.32 346.08 205.71 343.69"/><polygon class="cls-12" points="207.26 330.83 204.47 330.83 204.09 333.16 206.91 333.23 207.26 330.83"/><polygon class="cls-12" points="206.14 340.51 203.21 340.51 202.81 342.84 205.76 342.9 206.14 340.51"/><polygon class="cls-12" points="203.9 333.86 203.53 336.19 206.34 336.25 206.69 333.86 203.9 333.86"/><polygon class="cls-12" points="203.57 337.23 203.18 339.56 206.13 339.62 206.5 337.23 203.57 337.23"/><polygon class="cls-12" points="207.72 324.8 205.2 324.8 204.86 327.13 207.4 327.19 207.72 324.8"/><path class="cls-12" d="M232.06,322.9c3.3-7.28,4.84-13.95.8-20.69C228.85,308.74,230.91,315.51,232.06,322.9Z"/><path class="cls-12" d="M225,333.54c5.88-4.51,7.26-11.37,4.14-20.05C225.91,319.86,226.92,326.85,225,333.54Z"/><path class="cls-12" d="M225,323.72c-2.52,4.26-5,8.53-7.6,12.84h0c-.72,1.23-1.45,2.45-2.18,3.69C222.89,338.3,226.5,332.16,225,323.72Z"/><path class="cls-12" d="M189,343.72a1,1,0,0,1,0,.24c0,4.72,4.06,5.71,7.1,8.2,1.23-9.07,2.36-17.62,3.57-26.16.65-4.56.71-4.55-3.72-6.11-1.59,4-2.51,8.31-4.84,11.63C188.36,335.51,188,339.35,189,343.72Z"/><path class="cls-12" d="M208.82,351c0,.51.91,1,1.39,1.53l.66-.51c-.07-1.49-.13-3-.2-4.47h0c-.64-14.78-1.27-29.34-1.8-41.53l2-5.42c4.25-.83,9.25-5,11.8-9.89h0l-.58.45-12.36,9.58h0l-1,.77v4.78C208.75,319.3,208.75,335.17,208.82,351Z"/><path class="cls-12" d="M236.24,307.37V287.64l-.73,0C233.69,294,232.51,300.41,236.24,307.37Z"/><polygon class="cls-12" points="208.01 321.63 205.6 321.63 205.28 323.96 207.71 324.02 208.01 321.63"/><polygon class="cls-12" points="204.68 321.54 202.28 321.54 201.95 323.87 204.38 323.93 204.68 321.54"/><path class="cls-12" d="M225.8,288.32c4.08-.34,7.81-3.31,8.58-6.62l0,0v0l-.46.36-6.43,5-1.68,1.29Z"/><path class="cls-12" d="M225.51,367.64h-33a95.79,95.79,0,0,0,16.2,1.22h.16a132,132,0,0,0,17.39-1.22h-.73Z"/><path class="cls-12" d="M225.16,370.86H193a106.31,106.31,0,0,0,16.2,1.12h.33a126.74,126.74,0,0,0,16.38-1.12h-.71Z"/><path class="cls-12" d="M214.28,356.57l-.42,0,.42,0c-6.91-.27-13.75-.55-20.58-.8a12.63,12.63,0,0,1-8.55-3.24c-2.53-2.36-5.21-4.56-7.85-6.8a4.51,4.51,0,0,0-1.82-1.21c-5.94-.83-11.89-1.56-17.84-2.32l0,.67h0v.06c4.55.69,9.1,1.46,13.66,2.06a11.08,11.08,0,0,1,6.74,3,115.77,115.77,0,0,0,9,7.39,4.22,4.22,0,0,0,2,.92A111.71,111.71,0,0,0,214.28,356.57Z"/><path class="cls-12" d="M208.54,365.75a113.36,113.36,0,0,0,16.39-1.18H192.41a102.45,102.45,0,0,0,15.84,1.19Z"/><path class="cls-12" d="M226.05,361.52H190.61a124.06,124.06,0,0,0,17.86,1.23h.24a135.91,135.91,0,0,0,18.07-1.23h-.73Z"/><path class="cls-12" d="M230.2,353.33c-4.92.72-9.87,1.15-14.81,1.71,7.43.06,14.85.11,21.93-2.62,3.21-1.23,6-3,7.53-6.34C241.09,350.78,235.82,352.49,230.2,353.33Z"/><path class="cls-12" d="M181.88,347.21l.75-.13q-.63-15.43-1.27-30.86c-.27,9.63-.29,19.25-.24,28.88A6.8,6.8,0,0,0,181.88,347.21Z"/><path class="cls-12" d="M200.39,352.19l.4-2.19c-3.71-.46-3.76-.42-3.65,2.19Z"/><polygon class="cls-12" points="202.83 333.77 200.04 333.77 199.66 336.1 202.48 336.16 202.83 333.77"/><polygon class="cls-12" points="203.4 330.74 200.6 330.74 200.23 333.07 203.04 333.13 203.4 330.74"/><polygon class="cls-12" points="203.85 327.48 201.06 327.48 200.69 329.81 203.5 329.88 203.85 327.48"/><polygon class="cls-12" points="202.45 337.14 199.52 337.14 199.13 339.47 202.08 339.53 202.45 337.14"/><polygon class="cls-12" points="204.24 324.7 201.72 324.7 201.38 327.03 203.91 327.09 204.24 324.7"/><polygon class="cls-12" points="201.05 346.83 197.96 346.83 197.55 349.15 200.66 349.22 201.05 346.83"/><polygon class="cls-12" points="201.44 343.59 198.35 343.59 197.94 345.92 201.05 345.98 201.44 343.59"/><polygon class="cls-12" points="202.09 340.41 199.15 340.41 198.76 342.74 201.71 342.8 202.09 340.41"/><polygon class="cls-1" points="204.68 321.54 202.28 321.54 201.95 323.87 204.38 323.93 204.68 321.54"/><polygon class="cls-1" points="206.14 340.51 203.21 340.51 202.81 342.84 205.76 342.9 206.14 340.51"/><polygon class="cls-1" points="207.72 324.8 205.2 324.8 204.86 327.13 207.4 327.19 207.72 324.8"/><polygon class="cls-1" points="202.15 346.83 201.74 349.15 204.84 349.22 205.24 346.83 202.15 346.83"/><path class="cls-1" d="M201.54,352.17h3.31V350C201.29,349.55,201.28,349.55,201.54,352.17Z"/><polygon class="cls-1" points="207.26 330.83 204.47 330.83 204.09 333.16 206.91 333.23 207.26 330.83"/><polygon class="cls-1" points="207.72 327.58 204.92 327.58 204.55 329.91 207.36 329.97 207.72 327.58"/><polygon class="cls-1" points="203.9 333.86 203.53 336.19 206.34 336.25 206.69 333.86 203.9 333.86"/><polygon class="cls-1" points="203.57 337.23 203.18 339.56 206.13 339.62 206.5 337.23 203.57 337.23"/><polygon class="cls-1" points="205.71 343.69 202.62 343.69 202.21 346.02 205.32 346.08 205.71 343.69"/><path class="cls-1" d="M236.24,307.37V287.64l-.73,0C233.69,294,232.51,300.41,236.24,307.37Z"/><path class="cls-1" d="M225,333.54c5.88-4.51,7.26-11.37,4.14-20.05C225.91,319.86,226.92,326.85,225,333.54Z"/><path class="cls-1" d="M232.06,322.9c3.3-7.28,4.84-13.95.8-20.69C228.85,308.74,230.91,315.51,232.06,322.9Z"/><polygon class="cls-1" points="208.01 321.63 205.6 321.63 205.28 323.96 207.71 324.02 208.01 321.63"/><path class="cls-1" d="M189,343.72a1,1,0,0,1,0,.24c0,4.72,4.06,5.71,7.1,8.2,1.23-9.07,2.36-17.62,3.57-26.16.65-4.56.71-4.55-3.72-6.11-1.59,4-2.51,8.31-4.84,11.63C188.36,335.51,188,339.35,189,343.72Z"/><path class="cls-1" d="M208.82,351c0,.51.91,1,1.39,1.53l.66-.51c-.07-1.49-.13-3-.2-4.47-.64-14.78-1.27-29.34-1.8-41.53l2-5.42c4.25-.83,9.25-5,11.8-9.89h0l-.58.45-12.36,9.58h0l-1,.77v4.78C208.75,319.3,208.75,335.17,208.82,351Z"/><path class="cls-1" d="M225.8,288.32c4.08-.34,7.81-3.31,8.58-6.62l0,0v0l-.46.36-6.43,5-1.68,1.29Z"/><path class="cls-1" d="M225,323.72c-2.52,4.26-5,8.53-7.6,12.84-.72,1.23-1.45,2.45-2.18,3.69C222.89,338.3,226.5,332.16,225,323.72Z"/><path class="cls-1" d="M230.2,353.33c-4.92.72-9.87,1.15-14.81,1.71,7.43.06,14.85.11,21.93-2.62,3.21-1.23,6-3,7.53-6.34C241.09,350.78,235.82,352.49,230.2,353.33Z"/><path class="cls-1" d="M214.28,356.57l-.42,0,.42,0c-6.91-.27-13.75-.55-20.58-.8a12.63,12.63,0,0,1-8.55-3.24c-2.53-2.36-5.21-4.56-7.85-6.8a4.51,4.51,0,0,0-1.82-1.21c-5.94-.83-11.89-1.56-17.84-2.32l0,.67h0v.06c4.55.69,9.1,1.46,13.66,2.06a11.08,11.08,0,0,1,6.74,3,115.77,115.77,0,0,0,9,7.39,4.22,4.22,0,0,0,2,.92A111.71,111.71,0,0,0,214.28,356.57Z"/><polygon class="cls-1" points="204.24 324.7 201.72 324.7 201.38 327.03 203.91 327.09 204.24 324.7"/><path class="cls-1" d="M181.88,347.21l.75-.13q-.63-15.43-1.27-30.86c-.27,9.63-.29,19.25-.24,28.88A6.8,6.8,0,0,0,181.88,347.21Z"/><path class="cls-1" d="M225.51,367.64h-33a95.79,95.79,0,0,0,16.2,1.22h.16a132,132,0,0,0,17.39-1.22h-.73Z"/><path class="cls-1" d="M226.05,361.52H190.61a124.06,124.06,0,0,0,17.86,1.23h.24a135.91,135.91,0,0,0,18.07-1.23h-.73Z"/><path class="cls-1" d="M208.54,365.75a113.36,113.36,0,0,0,16.39-1.18H192.41a102.45,102.45,0,0,0,15.84,1.19Z"/><path class="cls-1" d="M200.39,352.19l.4-2.19c-3.71-.46-3.76-.42-3.65,2.19Z"/><path class="cls-1" d="M225.16,370.86H193a106.31,106.31,0,0,0,16.2,1.12h.33a126.74,126.74,0,0,0,16.38-1.12h-.71Z"/><polygon class="cls-1" points="202.83 333.77 200.04 333.77 199.66 336.1 202.48 336.16 202.83 333.77"/><polygon class="cls-1" points="203.4 330.74 200.6 330.74 200.23 333.07 203.04 333.13 203.4 330.74"/><polygon class="cls-1" points="203.85 327.48 201.06 327.48 200.69 329.81 203.5 329.88 203.85 327.48"/><polygon class="cls-1" points="201.05 346.83 197.96 346.83 197.55 349.15 200.66 349.22 201.05 346.83"/><polygon class="cls-1" points="201.44 343.59 198.35 343.59 197.94 345.92 201.05 345.98 201.44 343.59"/><polygon class="cls-1" points="202.45 337.14 199.52 337.14 199.13 339.47 202.08 339.53 202.45 337.14"/><polygon class="cls-1" points="202.09 340.41 199.15 340.41 198.76 342.74 201.71 342.8 202.09 340.41"/><path class="cls-9" d="M185.7,305c.14-.07-.3-2.27-.95-2.64-1.83-1.05-1.66-2.05-.68-3.55a12.45,12.45,0,0,0,1.77-3.76c.69-2.92-.47-4.4-3.23-4.56a4.2,4.2,0,0,1-1-.34,18.64,18.64,0,0,1-.06-4.82l-.84.42c-.16,2.31.37,4.76-1.26,6.82-.12.14,0,.46,0,.69.33,2.05.69,4.09,1,6.14.23,1.57-.36,2.41-2.07,2.65-.64.09-1.64,1.05-1.62,1.59a3.19,3.19,0,0,0,1.23,2.43c3.28,1.82,3.9,7,1,9.37l5.58-4.45C184.73,308.55,183,306.44,185.7,305Z"/><path class="cls-9" d="M209.72,298c0-2.28.16-4.58-.05-6.84a4.42,4.42,0,0,1,1.61-4.15c.89-.73,1.81-1.42,2.38-1.87v-3.45c-.42-.14-1.35-.45-2.29-.72s-1.76-.46-2.78-.72c4.48-6.26,5.25-8.38,3.55-10.5l-5.78.8q-.09.45-.15.9c-.37,2.52-.08,5.13-.34,7.67a3.12,3.12,0,0,1-1.65,1.89c-1,.54-2.24.63-2.08,2.25.13,1.33-.41,2.87,1.68,3.3.43.08,1,1.27.89,1.89-.48,4.17-1.47,8.32-1.59,12.49A8.42,8.42,0,0,1,203,302c0-.06,0-.11,0-.18C203.35,300.12,206.73,298.39,209.72,298Z"/><path class="cls-11" d="M256.53,337.4l-.16-.46,30.94-18.45-.47-1a9.53,9.53,0,0,0-2.24.66c-5.06,2.93-10,6-15.14,8.87-6.7,3.76-13.48,7.37-20.25,11a5.12,5.12,0,0,1-2.12.5c-1.38.05-1.9.64-2.27,2-1.87,7-7.07,11.06-14.35,11.41-1.31.07-2.63.29-3.94.3-3.69.05-7.37,0-11.18,0-.36-2.79-.85-5.55-1-8.33a3,3,0,0,1,1.35-2.35c10.41-4.73,16.69-12.9,19.82-23.68,3.17-10.93,2.83-22,1.32-33.14-.33-2.46-1.38-5,2.08-6.6l-1-.66-27.52,20.87-.67-.35-7.95,6.72,0-.06c-1.19,1.45-3,2.28-4.67,3.37A53.68,53.68,0,0,1,196,319.89c4.43,1.56,4.37,1.55,3.72,6.11-1.21,8.54-2.34,17.09-3.57,26.16-3-2.49-7.09-3.48-7.1-8.2a1,1,0,0,0,0-.24c-1-4.37-.68-8.21,2.14-12.2,2.33-3.32,3.25-7.64,4.84-11.63a53.68,53.68,0,0,0,1.13-11.82l-.06,0c.34-2.6-1.49-5.51,1.47-7.62-2.47,1.57-4.66,3.28-6.85,5l-6.24,4.89h0l-7.49,5.9.32-.26c-4.2,3.32-8.43,6.6-12.62,9.92a17.36,17.36,0,0,0-1.64,1.68l.52.53,6.51-5.08.51.64-4.25,3.73c8.25,2.94,14.16,10,12.84,16.27-.16-2-.37-3.22-2.52-3.3-8.16-.33-16.3-1.06-24.46-1.39-5.77-.23-6.19.9-5.76,5.73a4.36,4.36,0,0,0,2.87,4.2c4.83,2.28,9.5,4.92,14.08,7.67a7.51,7.51,0,0,1,3.77,6.81,15,15,0,0,0,1.44,5.44,41.08,41.08,0,0,0,2.68,4.67s63.67,1.26,71.61-.14c8.18-4.28,11.32-11.37,13.8-18.93.67-2,1.42-4,2.18-6a11.9,11.9,0,0,1,6.75-7.2c3.88-1.57,7.85-2.94,11.81-4.32,1.23-.43,2.16-.82,1.23-2.47ZM225,333.54c1.91-6.69.9-13.68,4.14-20.05C232.27,322.17,230.89,329,225,333.54Zm7.05-10.64c-1.15-7.39-3.21-14.16.8-20.69C236.9,309,235.36,315.62,232.06,322.9Zm4.18-15.53c-3.73-7-2.55-13.33-.73-19.71l.73,0Zm-27.49-5.83,1-.77h0l12.36-9.58v0l.58-.45h0l3.13-2.42h0l1.68-1.29h0l6.43-5,3.68-3.05-3.68,3.05.46-.36v0l0,0c-.77,3.31-4.5,6.28-8.58,6.62h0l-3.13,2.42c-2.55,4.92-7.55,9.06-11.8,9.89l-2,5.42c.53,12.19,1.16,26.75,1.8,41.53l6.73-11c2.56-4.31,5.08-8.58,7.6-12.84,1.5,8.44-2.11,14.58-9.78,16.53.73-1.24,1.46-2.46,2.18-3.69l-6.73,11c.07,1.49.13,3,.2,4.47l-.66.51c-.48-.51-1.39-1-1.39-1.53-.07-15.86-.07-31.73-.07-44.71Zm-3.15,20.09H208l-.3,2.39-2.43-.06Zm-.4,3.17h2.52l-.32,2.39-2.54-.07Zm-.36,24.42-3.1-.07.41-2.32h3.09Zm0,.76v2.19h-3.31C201.28,349.55,201.29,349.55,204.85,350Zm-2.64-4,.41-2.33h3.09l-.39,2.39Zm.6-3.18.4-2.33h2.93l-.38,2.39Zm3.32-3.22-2.95-.06.39-2.33h2.93Zm.21-3.37-2.81-.06.37-2.33h2.79Zm-2.25-3.09.38-2.32h2.79l-.35,2.39Zm.46-3.25.37-2.33h2.8l-.36,2.39Zm-2.27-8.37h2.4l-.3,2.39-2.43-.06Zm-.56,3.16h2.52l-.33,2.39-2.53-.06Zm-.66,2.78h2.79l-.35,2.39-2.81-.06Zm-.46,3.26h2.8l-.36,2.39-2.81-.06Zm-.56,3h2.79l-.35,2.39-2.82-.06Zm-.52,3.37h2.93l-.37,2.39-3-.06Zm-.37,3.27h2.94l-.38,2.39-3-.06Zm-.8,3.18h3.09l-.39,2.39-3.11-.06Zm-.39,3.24h3.09l-.39,2.39-3.11-.07Zm2.83,3.17-.4,2.19h-3.25C197,349.58,197.08,349.54,200.79,350Zm-19.43-33.78q.63,15.42,1.27,30.86l-.75.13a6.8,6.8,0,0,1-.76-2.11C181.07,335.47,181.09,325.85,181.36,316.22ZM187,355.35a115.77,115.77,0,0,1-9-7.39,11.08,11.08,0,0,0-6.74-3c-4.56-.6-9.11-1.37-13.66-2.06v-.06h0l0-.67c6,.76,11.9,1.49,17.84,2.32a4.51,4.51,0,0,1,1.82,1.21c2.64,2.24,5.32,4.44,7.85,6.8a12.63,12.63,0,0,0,8.55,3.24c6.83.25,13.67.53,20.58.8l-.42,0,.42,0a111.71,111.71,0,0,1-25.33-.3A4.22,4.22,0,0,1,187,355.35ZM209.49,372h-.33a106.31,106.31,0,0,1-16.2-1.12h32.91A126.74,126.74,0,0,1,209.49,372Zm-.64-3.12h-.16a95.79,95.79,0,0,1-16.2-1.22h33.75A132,132,0,0,1,208.85,368.86Zm-16.44-4.29h32.52a113.36,113.36,0,0,1-16.39,1.18h-.29A102.45,102.45,0,0,1,192.41,364.57Zm16.3-1.82h-.24a124.06,124.06,0,0,1-17.86-1.23h36.17A135.91,135.91,0,0,1,208.71,362.75Zm28.61-10.33c-7.08,2.73-14.5,2.68-21.93,2.62,4.94-.56,9.89-1,14.81-1.71,5.62-.84,10.89-2.55,14.65-7.25C243.31,349.41,240.53,351.19,237.32,352.42Z"/><path class="cls-13" d="M201.82,304.7A5.63,5.63,0,0,0,203,302,6.82,6.82,0,0,1,201.82,304.7Z"/><path class="cls-11" d="M209.72,298c-3,.35-6.37,2.08-6.68,3.82,0,.07,0,.12,0,.18a5.63,5.63,0,0,1-1.19,2.66l0,.06Z"/><circle class="cls-2" cx="207.84" cy="270.51" r="0.45"/><circle class="cls-2" cx="209.46" cy="270.51" r="0.45"/><path class="cls-11" d="M343.55,353.46A57.26,57.26,0,0,0,371,360.71c13.31,0,20.72-6.24,20.72-15.5,0-8.59-5.72-13.65-20.21-18.87-18.7-6.74-30.66-16.67-30.66-33,0-18.53,15.5-32.68,40.09-32.68,12.3,0,21.4,2.69,27.29,5.73l-5.05,16.67a48.09,48.09,0,0,0-22.57-5.39c-13.14,0-18.87,7.08-18.87,13.65,0,8.75,6.57,12.8,21.73,18.69,19.71,7.42,29.31,17.35,29.31,33.69,0,18.2-13.81,34-43.12,34-12,0-24.43-3.37-30.66-7.08Z"/><path class="cls-11" d="M446.32,340.83c.51,14.82,12.13,21.22,25.27,21.22,9.6,0,16.51-1.34,22.74-3.7l3,14.32a77.28,77.28,0,0,1-28.63,5.05c-26.62,0-42.28-16.34-42.28-41.44,0-22.74,13.81-44.13,40.09-44.13,26.61,0,35.37,21.9,35.37,39.92a50.78,50.78,0,0,1-.67,8.76Zm36.05-14.49c.17-7.58-3.2-20-17-20-12.8,0-18.19,11.62-19,20Z"/><path class="cls-11" d="M564.76,376l-1.34-9.09h-.51c-5,6.4-13.64,10.95-24.26,10.95-16.5,0-25.77-12-25.77-24.43,0-20.72,18.36-31.16,48.68-31v-1.35c0-5.39-2.19-14.32-16.67-14.32a43.43,43.43,0,0,0-22.07,6.07l-4-13.48c6.06-3.7,16.67-7.24,29.64-7.24,26.28,0,33.86,16.67,33.86,34.53v29.65a131.7,131.7,0,0,0,1.18,19.7Zm-2.69-40.09c-14.66-.33-28.64,2.87-28.64,15.33,0,8.09,5.22,11.79,11.79,11.79a16.78,16.78,0,0,0,16.17-11.28,14.79,14.79,0,0,0,.68-4.55Z"/><path class="cls-11" d="M604.21,320.45c0-11.12-.17-19-.68-26.45h18l.67,15.67h.67c4.05-11.63,13.65-17.52,22.41-17.52a22.12,22.12,0,0,1,4.88.5v19.54a29.28,29.28,0,0,0-6.06-.67c-9.94,0-16.68,6.4-18.53,15.67a35.19,35.19,0,0,0-.68,6.4V376H604.21Z"/><path class="cls-11" d="M723,373.51c-4.38,2-13,4.21-23.24,4.21-25.61,0-42.28-16.34-42.28-41.78,0-24.59,16.84-43.79,45.65-43.79,7.58,0,15.33,1.68,20,3.87l-3.7,15.5a36.48,36.48,0,0,0-15.67-3.2c-15.83,0-25.27,11.62-25.1,26.61,0,16.85,11,26.45,25.1,26.45a40.6,40.6,0,0,0,16.34-3.2Z"/><path class="cls-11" d="M738.32,256.44h20.89v48.85h.34a27.72,27.72,0,0,1,10.27-9.44,28.18,28.18,0,0,1,14.15-3.7c14,0,28.64,9.26,28.64,35.54V376H791.89v-46c0-12-4.38-20.89-15.84-20.89a16.9,16.9,0,0,0-16,11.62,17.6,17.6,0,0,0-.84,6.24v49H738.32Z"/><path class="cls-2" d="M834.7,256.44h20.89V376H834.7Z"/><path class="cls-11" d="M900.06,271.09c0,6.23-4.54,11.12-11.79,11.12-6.9,0-11.45-4.89-11.45-11.12,0-6.4,4.72-11.28,11.62-11.28C895.52,259.81,899.9,264.69,900.06,271.09Z"/><rect class="cls-2" x="878" y="294" width="20.89" height="82.03"/><path class="cls-2" d="M996.09,294c-.33,5.56-.67,12.3-.67,23.58v46.5c0,17.18-3.54,29.47-12.13,37.22-8.59,7.58-20.38,9.94-31.67,9.94-10.44,0-21.56-2.19-28.63-6.57L927.53,389a49.61,49.61,0,0,0,23.92,6.23c13.48,0,23.59-7.08,23.59-24.76V363.4h-.34c-4.72,7.24-13.14,12.13-23.92,12.13-20.38,0-34.87-16.85-34.87-40.09,0-26.95,17.52-43.29,37.23-43.29,12.46,0,19.88,6.06,23.75,12.8h.34l.84-10.95ZM974.7,326.85a20.32,20.32,0,0,0-.67-5.56c-2.19-7.58-8.09-13.31-16.85-13.31C945.56,308,937,318.09,937,334.77c0,14,7.07,25.26,20,25.26a17.69,17.69,0,0,0,16.85-12.46,36.1,36.1,0,0,0,.84-7.41Z"/><path class="cls-2" d="M1017.68,256.44h20.89v48.85h.33a27.82,27.82,0,0,1,10.28-9.44,28.18,28.18,0,0,1,14.15-3.7c14,0,28.63,9.26,28.63,35.54V376h-20.72v-46c0-12-4.37-20.89-15.83-20.89a16.9,16.9,0,0,0-16,11.62,17.38,17.38,0,0,0-.84,6.24v49h-20.89Z"/><path class="cls-2" d="M1137,270.59V294h19.71v15.5H1137v36.21c0,9.94,2.69,15.16,10.61,15.16a30.49,30.49,0,0,0,8.09-1l.33,15.84c-3,1.18-8.42,2-15,2-7.58,0-14-2.53-17.85-6.74-4.38-4.72-6.41-12.13-6.41-22.91V309.5H1105V294h11.79V275.47Z"/><path class="cls-14" d="M901.44,263.61a13.34,13.34,0,0,1,2.72,7.67,13,13,0,0,1-.72,3.82L974,290.48l.36-41.66Z"/></svg>