<svg id="Layer_1" data-name="Layer 1" xmlns="http://www.w3.org/2000/svg" xmlns:xlink="http://www.w3.org/1999/xlink" viewBox="0 0 1279 639"><defs><style>.cls-1,.cls-12,.cls-5{fill:none;}.cls-2{fill:#46cdcf;}.cls-3,.cls-4,.cls-8{fill:#fff;}.cls-3{opacity:0.8;}.cls-4{opacity:0.7;}.cls-5{stroke:#000;stroke-width:0.24px;}.cls-12,.cls-5{stroke-miterlimit:10;}.cls-6{fill:#ff2e63;}.cls-7{fill:url(#linear-gradient);}.cls-9{fill:#0b102d;}.cls-10{fill:#eaeaea;}.cls-11{fill:#111738;}.cls-12{stroke:#fff;stroke-width:0px;}.cls-13{fill:#2b2e4a;}.cls-14{fill:url(#linear-gradient-2);}</style><linearGradient id="linear-gradient" x1="633.06" y1="140.18" x2="711.26" y2="140.18" gradientUnits="userSpaceOnUse"><stop offset="0" stop-color="#fff"/><stop offset="1" stop-color="#f6fcff" stop-opacity="0"/></linearGradient><linearGradient id="linear-gradient-2" x1="813.07" y1="395.72" x2="895.44" y2="395.72" gradientUnits="userSpaceOnUse"><stop offset="0" stop-color="#fff"/><stop offset="0" stop-color="#46cdcf"/><stop offset="1" stop-color="#f6fcff" stop-opacity="0"/></linearGradient></defs><title>searchlight-1280x640</title><path class="cls-1" d="M214.83,473.59V424.73l-1.79,0C208.53,440.58,205.59,456.36,214.83,473.59Z"/><path class="cls-1" d="M214.83,473.59V424.73l-1.79,0C208.53,440.58,205.59,456.36,214.83,473.59Z"/><path class="cls-1" d="M214.83,473.59V424.73l-1.79,0C208.53,440.58,205.59,456.36,214.83,473.59Z"/><path class="cls-2" d="M633.15,84.74l-82,39.48a14.66,14.66,0,0,0-7.92,9.94L523,222.89a14.66,14.66,0,0,0,2.82,12.38l56.75,71.16A14.65,14.65,0,0,0,594,311.94h91a14.65,14.65,0,0,0,11.45-5.51l56.75-71.16A14.66,14.66,0,0,0,756,222.89l-20.25-88.73a14.66,14.66,0,0,0-7.92-9.94l-82-39.48A14.58,14.58,0,0,0,633.15,84.74Z"/><path class="cls-3" d="M594,270.23a510.79,510.79,0,0,1,67-.06C655.6,272.32,601.43,272.44,594,270.23Z"/><path class="cls-4" d="M643.1,275.38a141,141,0,0,1-31.21,0v-.93H643Z"/><path class="cls-5" d="M661,147.64c7.31,30.78,23.07,46.85,54,51.1"/><path class="cls-5" d="M660.42,176.87c2.45,11.33,34.71,38.36,50.36,39.68"/><path class="cls-5" d="M654,201.66c6.43,10.54,16.05,18.79,26,20.11"/><path class="cls-6" d="M597.1,154.93a6.2,6.2,0,0,1,4.16,1.72c2.24,2,3.42,2.13,5.11.37-1.44-1.14-3.17-2.08-4.31-3.49-2-2.56-4.46-1.8-7-1.53a2,2,0,0,0-2,1.5l1.87,1.8A14.13,14.13,0,0,1,597.1,154.93Z"/><path class="cls-6" d="M592.55,157a5.71,5.71,0,0,1,1.11-.76,1.83,1.83,0,0,1,1.28-1l-1.87-1.8c-.17.65-.15,1.39-.3,2a8.18,8.18,0,0,0-.25,1.56l0,0Z"/><polygon class="cls-7" points="633.06 132.4 633.06 136.9 711.26 162.79 711.26 117.58 633.06 132.4"/><path class="cls-8" d="M582.05,262.32l.84.05-.69,0h-.29l-15.72,1.12a2,2,0,0,0-1,.32c-.11.07-.19.15-.19.2s.17.16.35.24a2.15,2.15,0,0,0,.83.2c6.1.22,83.32,2.9,123.17-.1a2,2,0,0,0,.63-.13c.29-.11,1-.22,1-.33s-.48-.28-.8-.38a2,2,0,0,0-.54-.1l-21.55-1.21a1.81,1.81,0,0,0-.46,0C657.17,263.81,582.05,262.32,582.05,262.32Z"/><polygon points="630.16 138.04 630.16 138.04 630.16 138.04 630.16 138.04"/><path d="M623.23,139h0c0-.18.06-.36.1-.54A2.71,2.71,0,0,0,623.23,139Z"/><path class="cls-9" d="M629.22,137l-.93.28a14.18,14.18,0,0,1,1.87.72A10.69,10.69,0,0,0,629.22,137Z"/><path class="cls-9" d="M628.29,137.32a9.87,9.87,0,0,0-2.19-.42c.09.34.16.69.22,1Z"/><path class="cls-9" d="M630.16,138a14.18,14.18,0,0,0-1.87-.72l-2,.6c-.06-.33-.13-.68-.22-1-1.25-.08-2.39.26-2.76,1.55,0,.18-.07.36-.1.54l6.92-1Z"/><polygon class="cls-1" points="613.66 226.46 613.17 229.25 616.89 229.32 617.36 226.46 613.66 226.46"/><path class="cls-1" d="M612.2,236.76h3.9l.48-2.62C612.14,233.59,612.07,233.63,612.2,236.76Z"/><polygon class="cls-1" points="618.13 222.64 614.62 222.64 614.15 225.43 617.69 225.51 618.13 222.64"/><polygon class="cls-1" points="613.2 230.33 612.7 233.12 616.42 233.19 616.89 230.33 613.2 230.33"/><polygon class="cls-1" points="619.03 214.68 615.68 214.68 615.23 217.47 618.6 217.55 619.03 214.68"/><polygon class="cls-1" points="618.21 230.33 617.71 233.12 621.44 233.19 621.91 230.33 618.21 230.33"/><polygon class="cls-1" points="614.59 221.51 618.12 221.58 618.57 218.72 615.06 218.72 614.59 221.51"/><path class="cls-1" d="M621.45,236.73v-2.62c-4.27-.52-4.28-.52-4,2.62Z"/><polygon class="cls-1" points="624.45 210.13 624.88 207.27 621.53 207.27 621.08 210.06 624.45 210.13"/><path class="cls-1" d="M645.59,202.64l-11.72,19.81C643.05,220.11,647.38,212.76,645.59,202.64Z"/><path class="cls-1" d="M654,201.66c4-8.71,5.81-16.72,1-24.79C650.19,184.7,652.67,192.8,654,201.66Z"/><path class="cls-1" d="M659.05,183.06V159.42l-.87,0C656,167.09,654.58,174.72,659.05,183.06Z"/><path class="cls-1" d="M646.55,160.24c4.89-.41,9.35-4,10.27-7.93h0l-10.28,7.93Z"/><path class="cls-1" d="M645.6,214.41c7-5.4,8.7-13.62,5-24C646.67,198,647.89,206.39,645.6,214.41Z"/><path class="cls-1" d="M642.8,163.14l-15.5,12C632.64,174.89,639.46,169.56,642.8,163.14Z"/><polygon class="cls-1" points="622.47 226.57 618.77 226.57 618.28 229.36 622 229.43 622.47 226.57"/><path class="cls-1" d="M627.87,237.19l.79-.6c-.91-20.79-1.81-41.58-2.54-58.21,0,16.14,0,36.56.08,57C626.2,236,627.29,236.58,627.87,237.19Z"/><polygon class="cls-1" points="625.24 200.15 622.35 200.15 621.96 202.94 624.87 203.01 625.24 200.15"/><polygon class="cls-1" points="624.88 203.93 621.86 203.93 621.46 206.72 624.5 206.8 624.88 203.93"/><path class="cls-1" d="M646.2,255.27H606.64a115.52,115.52,0,0,0,19.4,1.46h.2a160.6,160.6,0,0,0,20.83-1.46h-.87Z"/><path class="cls-1" d="M645.78,259.13H607.2a129.25,129.25,0,0,0,19.41,1.34h.4a153.72,153.72,0,0,0,19.62-1.33h-.85Z"/><path class="cls-1" d="M625.86,253a135.69,135.69,0,0,0,19.65-1.41h-39a123.09,123.09,0,0,0,19,1.42Z"/><path class="cls-1" d="M632.74,242l-.5,0,.5,0c-8.28-.33-16.47-.66-24.66-1a15.07,15.07,0,0,1-10.23-3.88c-3-2.82-6.25-5.46-9.42-8.15a5.2,5.2,0,0,0-2.17-1.44c-7.12-1-14.25-1.87-21.38-2.78l0,.8h0v.07c5.45.83,10.9,1.74,16.37,2.47a13.25,13.25,0,0,1,8.07,3.63,136.94,136.94,0,0,0,10.75,8.85,5,5,0,0,0,2.35,1.1A133.22,133.22,0,0,0,632.74,242Z"/><path class="cls-1" d="M593.93,230.79l.89-.16q-.75-18.49-1.52-37c-.33,11.53-.35,23.07-.29,34.6A8.25,8.25,0,0,0,593.93,230.79Z"/><path class="cls-1" d="M646.85,247.93H604.39a149.15,149.15,0,0,0,21.4,1.48h.28a163,163,0,0,0,21.65-1.48h-.87Z"/><polygon class="cls-1" points="622.99 222.76 619.48 222.76 619.01 225.55 622.54 225.62 622.99 222.76"/><path class="cls-1" d="M651.81,238.12c-5.88.87-11.82,1.38-17.73,2,8.89.07,17.79.13,26.27-3.14,3.84-1.48,7.18-3.61,9-7.6C664.86,235.06,658.55,237.12,651.81,238.12Z"/><polygon class="cls-1" points="620.31 214.8 619.86 217.59 623.23 217.66 623.65 214.8 620.31 214.8"/><path class="cls-1" d="M602.54,226.9c0,5.65,4.87,6.83,8.5,9.82,1.48-10.87,2.84-21.11,4.29-31.34.77-5.47.84-5.46-4.46-7.32-1.91,4.78-3,9.95-5.81,13.92-3.37,4.79-3.76,9.39-2.56,14.62A1,1,0,0,1,602.54,226.9Z"/><polygon class="cls-1" points="624.34 211.17 620.99 211.17 620.54 213.96 623.91 214.03 624.34 211.17"/><polygon class="cls-1" points="619.91 218.83 619.44 221.62 622.98 221.7 623.42 218.83 619.91 218.83"/><polygon class="cls-1" points="620.25 207.16 616.9 207.16 616.46 209.94 619.83 210.02 620.25 207.16"/><path class="cls-10" d="M631.45,137.91v-6h-2.11c-.1,0-.13,0-.13.12s0,.3,0,.45a.1.1,0,0,1-.11.11H623.8c-.22,0-.22-.05-.22.23V138a1.25,1.25,0,0,0,1.26,1.26h1.95a1.55,1.55,0,0,0,1.49-1.12c.07-.27.13-.54.2-.81a.11.11,0,0,1,.12-.11h.51a.1.1,0,0,1,.11.11c0,.16,0,.31,0,.46s0,.11.09.11h2.15Zm-3.64-.65c0,.05,0,.1,0,.13a4.77,4.77,0,0,0-.13.51.89.89,0,0,1-.84.72h-2a.58.58,0,0,1-.59-.59v-.61c0-.17,0-.17.17-.17h3.4Zm-2.21-2.71h.59c.06,0,.09,0,.09.09v.5c0,.08,0,.1-.1.1H625c-.08,0-.1,0-.1-.11s0-.31,0-.46,0-.12.12-.12Zm3.84.61-.06.06s-.06-.05-.06-.08,0-.11-.11-.12,0-.05-.06-.07a.13.13,0,0,1,.07,0C629.35,134.9,629.44,135,629.44,135.16Zm-.2.34c-.23,0-.32-.05-.29-.22s0-.06.06-.08,0,.05,0,.07,0,.11.09.12S629.2,135.45,629.24,135.5Z"/><polygon class="cls-1" points="619.71 211.06 616.36 211.06 615.91 213.85 619.28 213.92 619.71 211.06"/><polygon class="cls-1" points="621.25 200.03 618.36 200.03 617.98 202.82 620.88 202.9 621.25 200.03"/><polygon class="cls-1" points="620.71 203.82 617.69 203.82 617.29 206.61 620.33 206.68 620.71 203.82"/><path d="M598.23,186.65l.1-.17-1.18.94v.08Z"/><path d="M590.46,192.75l-.83.66.75-.59Z"/><path d="M598.23,186.65h0l-1.08.85v-.08l-6.69,5.33-.08.07-.75.59-.38.31Z"/><polygon class="cls-1" points="613.2 230.33 612.7 233.12 616.42 233.19 616.89 230.33 613.2 230.33"/><polygon class="cls-1" points="618.13 222.64 614.62 222.64 614.15 225.43 617.69 225.51 618.13 222.64"/><path class="cls-1" d="M612.2,236.76h3.9l.48-2.62C612.14,233.59,612.07,233.63,612.2,236.76Z"/><polygon class="cls-1" points="619.03 214.68 615.68 214.68 615.23 217.47 618.6 217.55 619.03 214.68"/><path class="cls-1" d="M621.45,236.73v-2.62c-4.27-.52-4.28-.52-4,2.62Z"/><polygon class="cls-1" points="618.21 230.33 617.71 233.12 621.44 233.19 621.91 230.33 618.21 230.33"/><polygon class="cls-1" points="624.45 210.13 624.88 207.27 621.53 207.27 621.08 210.06 624.45 210.13"/><polygon class="cls-1" points="614.59 221.51 618.12 221.58 618.57 218.72 615.06 218.72 614.59 221.51"/><polygon class="cls-1" points="622.47 226.57 618.77 226.57 618.28 229.36 622 229.43 622.47 226.57"/><path class="cls-1" d="M654,201.66c4-8.71,5.81-16.72,1-24.79C650.19,184.7,652.67,192.8,654,201.66Z"/><path class="cls-1" d="M659.05,183.06V159.42l-.87,0C656,167.09,654.58,174.72,659.05,183.06Z"/><path class="cls-1" d="M645.6,214.41c7-5.4,8.7-13.62,5-24C646.67,198,647.89,206.39,645.6,214.41Z"/><path class="cls-1" d="M646.53,160.24h0l2-1.56Z"/><path class="cls-1" d="M646.55,160.24c4.89-.41,9.35-4,10.27-7.93h0l-.56.42h0c-2.56,2-5,3.89-7.7,6l-2,1.56Z"/><path class="cls-1" d="M642.8,163.14l-.7.54.7-.54Z"/><path class="cls-1" d="M628.66,175c5.09-1,11.08-5.95,14.14-11.84l-.7.54-14.8,11.47h0l1.82-1.41Z"/><path class="cls-1" d="M626.2,235.37c0,.61,1.09,1.21,1.67,1.82l.79-.6-2.4-55.12-.14.37v0C626.12,197.35,626.11,216.36,626.2,235.37Z"/><polygon class="cls-1" points="625.24 200.15 622.35 200.15 621.96 202.94 624.87 203.01 625.24 200.15"/><path class="cls-1" d="M645.59,202.64l-11.72,19.81C643.05,220.11,647.38,212.76,645.59,202.64Z"/><polygon class="cls-1" points="624.88 203.93 621.86 203.93 621.46 206.72 624.5 206.8 624.88 203.93"/><polygon class="cls-1" points="613.66 226.46 613.17 229.25 616.89 229.32 617.36 226.46 613.66 226.46"/><path class="cls-1" d="M646.2,255.27H606.64a115.52,115.52,0,0,0,19.4,1.46h.2a160.6,160.6,0,0,0,20.83-1.46h-.87Z"/><path class="cls-1" d="M625.86,253a135.69,135.69,0,0,0,19.65-1.41h-39a123.09,123.09,0,0,0,19,1.42Z"/><path class="cls-1" d="M645.78,259.13H607.2a129.25,129.25,0,0,0,19.41,1.34h.4a153.72,153.72,0,0,0,19.62-1.33h-.85Z"/><path class="cls-1" d="M632.74,242l-.5,0,.5,0c-8.28-.33-16.47-.66-24.66-1a15.07,15.07,0,0,1-10.23-3.88c-3-2.82-6.25-5.46-9.42-8.15a5.2,5.2,0,0,0-2.17-1.44c-7.12-1-14.25-1.87-21.38-2.78l0,.8h0v.07c5.45.83,10.9,1.74,16.37,2.47a13.25,13.25,0,0,1,8.07,3.63,136.94,136.94,0,0,0,10.75,8.85,5,5,0,0,0,2.35,1.1A133.22,133.22,0,0,0,632.74,242Z"/><path class="cls-1" d="M593.93,230.79l.89-.16q-.75-18.49-1.52-37c-.33,11.53-.35,23.07-.29,34.6A8.25,8.25,0,0,0,593.93,230.79Z"/><path class="cls-1" d="M646.85,247.93H604.39a149.15,149.15,0,0,0,21.4,1.48h.28a163,163,0,0,0,21.65-1.48h-.87Z"/><path class="cls-1" d="M651.81,238.12c-5.88.87-11.82,1.38-17.73,2,8.89.07,17.79.13,26.27-3.14,3.84-1.48,7.18-3.61,9-7.6C664.86,235.06,658.55,237.12,651.81,238.12Z"/><polygon class="cls-1" points="619.71 211.06 616.36 211.06 615.91 213.85 619.28 213.92 619.71 211.06"/><polygon class="cls-1" points="621.25 200.03 618.36 200.03 617.98 202.82 620.88 202.9 621.25 200.03"/><polygon class="cls-1" points="624.34 211.17 620.99 211.17 620.54 213.96 623.91 214.03 624.34 211.17"/><polygon class="cls-1" points="620.31 214.8 619.86 217.59 623.23 217.66 623.65 214.8 620.31 214.8"/><polygon class="cls-1" points="619.91 218.83 619.44 221.62 622.98 221.7 623.42 218.83 619.91 218.83"/><polygon class="cls-1" points="622.99 222.76 619.48 222.76 619.01 225.55 622.54 225.62 622.99 222.76"/><polygon class="cls-1" points="620.71 203.82 617.69 203.82 617.29 206.61 620.33 206.68 620.71 203.82"/><path class="cls-1" d="M602.54,226.9c0,5.65,4.87,6.83,8.5,9.82,1.48-10.87,2.84-21.11,4.29-31.34.77-5.47.84-5.46-4.46-7.32-1.91,4.78-3,9.95-5.81,13.92-3.37,4.79-3.76,9.39-2.56,14.62A1,1,0,0,1,602.54,226.9Z"/><polygon class="cls-1" points="620.25 207.16 616.9 207.16 616.46 209.94 619.83 210.02 620.25 207.16"/><path class="cls-11" d="M626.26,181.47l2.4-6.49a9.19,9.19,0,0,1-1.36.17l-1.18.92v2.31C626.17,179.4,626.21,180.43,626.26,181.47Z"/><polygon class="cls-12" points="624.45 210.13 624.88 207.27 621.53 207.27 621.08 210.06 624.45 210.13"/><path class="cls-12" d="M617.47,236.73h4v-2.62C617.18,233.59,617.17,233.59,617.47,236.73Z"/><polygon class="cls-12" points="618.21 230.33 617.71 233.12 621.44 233.19 621.91 230.33 618.21 230.33"/><polygon class="cls-12" points="622.47 226.57 618.77 226.57 618.28 229.36 622 229.43 622.47 226.57"/><polygon class="cls-12" points="624.34 211.17 620.99 211.17 620.54 213.96 623.91 214.03 624.34 211.17"/><polygon class="cls-12" points="622.99 222.76 619.48 222.76 619.01 225.55 622.54 225.62 622.99 222.76"/><polygon class="cls-12" points="620.31 214.8 619.86 217.59 623.23 217.66 623.65 214.8 620.31 214.8"/><polygon class="cls-12" points="619.91 218.83 619.44 221.62 622.98 221.7 623.42 218.83 619.91 218.83"/><polygon class="cls-12" points="624.88 203.93 621.86 203.93 621.46 206.72 624.5 206.8 624.88 203.93"/><path class="cls-12" d="M654,201.66c4-8.71,5.81-16.72,1-24.79C650.19,184.7,652.67,192.8,654,201.66Z"/><path class="cls-12" d="M645.6,214.41c7-5.4,8.7-13.62,5-24C646.67,198,647.89,206.39,645.6,214.41Z"/><path class="cls-12" d="M645.59,202.64c-3,5.11-6.05,10.22-9.1,15.39h0l-2.62,4.42C643.05,220.11,647.38,212.76,645.59,202.64Z"/><path class="cls-12" d="M602.5,226.6a1,1,0,0,1,0,.3c0,5.65,4.87,6.83,8.5,9.82,1.48-10.87,2.84-21.11,4.29-31.34.77-5.47.84-5.46-4.46-7.32-1.91,4.78-3,9.95-5.81,13.92C601.69,216.77,601.3,221.37,602.5,226.6Z"/><path class="cls-12" d="M626.2,235.37c0,.61,1.09,1.21,1.67,1.82l.79-.6-.24-5.36h0c-.77-17.71-1.53-35.15-2.16-49.76l2.4-6.49c5.09-1,11.08-5.95,14.14-11.84h0l-.7.54-14.8,11.47h0l-1.18.92v5.73C626.12,197.35,626.11,216.36,626.2,235.37Z"/><path class="cls-12" d="M659.05,183.06V159.42l-.87,0C656,167.09,654.58,174.72,659.05,183.06Z"/><polygon class="cls-12" points="625.24 200.15 622.35 200.15 621.96 202.94 624.87 203.01 625.24 200.15"/><polygon class="cls-12" points="621.25 200.03 618.36 200.03 617.98 202.82 620.88 202.9 621.25 200.03"/><path class="cls-12" d="M646.55,160.24c4.89-.41,9.35-4,10.27-7.93h0l-.56.42c-2.56,2-5,3.89-7.7,6l-2,1.56h0Z"/><path class="cls-12" d="M646.2,255.27H606.64a115.52,115.52,0,0,0,19.4,1.46h.2a160.6,160.6,0,0,0,20.83-1.46h-.87Z"/><path class="cls-12" d="M645.78,259.13H607.2a129.25,129.25,0,0,0,19.41,1.34h.4a153.72,153.72,0,0,0,19.62-1.33h-.85Z"/><path class="cls-12" d="M632.74,242l-.5,0,.5,0c-8.28-.33-16.47-.66-24.66-1a15.07,15.07,0,0,1-10.23-3.88c-3-2.82-6.25-5.46-9.42-8.15a5.2,5.2,0,0,0-2.17-1.44c-7.12-1-14.25-1.87-21.38-2.78l0,.8h0v.07c5.45.83,10.9,1.74,16.37,2.47a13.25,13.25,0,0,1,8.07,3.63,136.94,136.94,0,0,0,10.75,8.85,5,5,0,0,0,2.35,1.1A133.22,133.22,0,0,0,632.74,242Z"/><path class="cls-12" d="M625.86,253a135.69,135.69,0,0,0,19.65-1.41h-39a123.09,123.09,0,0,0,19,1.42Z"/><path class="cls-12" d="M646.85,247.93H604.39a149.15,149.15,0,0,0,21.4,1.48h.28a163,163,0,0,0,21.65-1.48h-.87Z"/><path class="cls-12" d="M651.81,238.12c-5.88.87-11.82,1.38-17.73,2,8.89.07,17.79.13,26.27-3.14,3.84-1.48,7.18-3.61,9-7.6C664.86,235.06,658.55,237.12,651.81,238.12Z"/><path class="cls-12" d="M593.93,230.79l.89-.16q-.75-18.49-1.52-37c-.33,11.53-.35,23.07-.29,34.6A8.25,8.25,0,0,0,593.93,230.79Z"/><path class="cls-12" d="M616.1,236.76l.48-2.62c-4.44-.55-4.51-.51-4.38,2.62Z"/><polygon class="cls-12" points="619.03 214.68 615.68 214.68 615.23 217.47 618.6 217.55 619.03 214.68"/><polygon class="cls-12" points="619.71 211.06 616.36 211.06 615.91 213.85 619.28 213.92 619.71 211.06"/><polygon class="cls-12" points="620.25 207.16 616.9 207.16 616.46 209.94 619.83 210.02 620.25 207.16"/><polygon class="cls-12" points="618.57 218.72 615.06 218.72 614.59 221.51 618.12 221.58 618.57 218.72"/><polygon class="cls-12" points="620.71 203.82 617.69 203.82 617.29 206.61 620.33 206.68 620.71 203.82"/><polygon class="cls-12" points="616.89 230.33 613.2 230.33 612.7 233.12 616.42 233.19 616.89 230.33"/><polygon class="cls-12" points="617.36 226.46 613.66 226.46 613.17 229.25 616.89 229.32 617.36 226.46"/><polygon class="cls-12" points="618.13 222.64 614.62 222.64 614.15 225.43 617.69 225.51 618.13 222.64"/><polygon class="cls-1" points="621.25 200.03 618.36 200.03 617.98 202.82 620.88 202.9 621.25 200.03"/><polygon class="cls-1" points="622.99 222.76 619.48 222.76 619.01 225.55 622.54 225.62 622.99 222.76"/><polygon class="cls-1" points="624.88 203.93 621.86 203.93 621.46 206.72 624.5 206.8 624.88 203.93"/><polygon class="cls-1" points="618.21 230.33 617.71 233.12 621.44 233.19 621.91 230.33 618.21 230.33"/><path class="cls-1" d="M617.47,236.73h4v-2.62C617.18,233.59,617.17,233.59,617.47,236.73Z"/><polygon class="cls-1" points="624.34 211.17 620.99 211.17 620.54 213.96 623.91 214.03 624.34 211.17"/><polygon class="cls-1" points="624.88 207.27 621.53 207.27 621.08 210.06 624.45 210.13 624.88 207.27"/><polygon class="cls-1" points="620.31 214.8 619.86 217.59 623.23 217.66 623.65 214.8 620.31 214.8"/><polygon class="cls-1" points="619.91 218.83 619.44 221.62 622.98 221.7 623.42 218.83 619.91 218.83"/><polygon class="cls-1" points="622.47 226.57 618.77 226.57 618.28 229.36 622 229.43 622.47 226.57"/><path class="cls-1" d="M659.05,183.06V159.42l-.87,0C656,167.09,654.58,174.72,659.05,183.06Z"/><path class="cls-1" d="M645.6,214.41c7-5.4,8.7-13.62,5-24C646.67,198,647.89,206.39,645.6,214.41Z"/><path class="cls-1" d="M654,201.66c4-8.71,5.81-16.72,1-24.79C650.19,184.7,652.67,192.8,654,201.66Z"/><polygon class="cls-1" points="625.24 200.15 622.35 200.15 621.96 202.94 624.87 203.01 625.24 200.15"/><path class="cls-1" d="M602.5,226.6a1,1,0,0,1,0,.3c0,5.65,4.87,6.83,8.5,9.82,1.48-10.87,2.84-21.11,4.29-31.34.77-5.47.84-5.46-4.46-7.32-1.91,4.78-3,9.95-5.81,13.92C601.69,216.77,601.3,221.37,602.5,226.6Z"/><path class="cls-1" d="M626.2,235.37c0,.61,1.09,1.21,1.67,1.82l.79-.6-.24-5.36c-.77-17.71-1.53-35.15-2.16-49.76l2.4-6.49c5.09-1,11.08-5.95,14.14-11.84h0l-.7.54-14.8,11.47h0l-1.18.92v5.73C626.12,197.35,626.11,216.36,626.2,235.37Z"/><path class="cls-1" d="M646.55,160.24c4.89-.41,9.35-4,10.27-7.93h0l-.56.42c-2.56,2-5,3.89-7.7,6l-2,1.56h0Z"/><path class="cls-1" d="M645.59,202.64c-3,5.11-6.05,10.22-9.1,15.39l-2.62,4.42C643.05,220.11,647.38,212.76,645.59,202.64Z"/><path class="cls-1" d="M651.81,238.12c-5.88.87-11.82,1.38-17.73,2,8.89.07,17.79.13,26.27-3.14,3.84-1.48,7.18-3.61,9-7.6C664.86,235.06,658.55,237.12,651.81,238.12Z"/><path class="cls-1" d="M632.74,242l-.5,0,.5,0c-8.28-.33-16.47-.66-24.66-1a15.07,15.07,0,0,1-10.23-3.88c-3-2.82-6.25-5.46-9.42-8.15a5.2,5.2,0,0,0-2.17-1.44c-7.12-1-14.25-1.87-21.38-2.78l0,.8h0v.07c5.45.83,10.9,1.74,16.37,2.47a13.25,13.25,0,0,1,8.07,3.63,136.94,136.94,0,0,0,10.75,8.85,5,5,0,0,0,2.35,1.1A133.22,133.22,0,0,0,632.74,242Z"/><polygon class="cls-1" points="620.71 203.82 617.69 203.82 617.29 206.61 620.33 206.68 620.71 203.82"/><path class="cls-1" d="M593.93,230.79l.89-.16q-.75-18.49-1.52-37c-.33,11.53-.35,23.07-.29,34.6A8.25,8.25,0,0,0,593.93,230.79Z"/><path class="cls-1" d="M646.2,255.27H606.64a115.52,115.52,0,0,0,19.4,1.46h.2a160.6,160.6,0,0,0,20.83-1.46h-.87Z"/><path class="cls-1" d="M646.85,247.93H604.39a149.15,149.15,0,0,0,21.4,1.48h.28a163,163,0,0,0,21.65-1.48h-.87Z"/><path class="cls-1" d="M625.86,253a135.69,135.69,0,0,0,19.65-1.41h-39a123.09,123.09,0,0,0,19,1.42Z"/><path class="cls-1" d="M616.1,236.76l.48-2.62c-4.44-.55-4.51-.51-4.38,2.62Z"/><path class="cls-1" d="M645.78,259.13H607.2a129.25,129.25,0,0,0,19.41,1.34h.4a153.72,153.72,0,0,0,19.62-1.33h-.85Z"/><polygon class="cls-1" points="619.03 214.68 615.68 214.68 615.23 217.47 618.6 217.55 619.03 214.68"/><polygon class="cls-1" points="619.71 211.06 616.36 211.06 615.91 213.85 619.28 213.92 619.71 211.06"/><polygon class="cls-1" points="620.25 207.16 616.9 207.16 616.46 209.94 619.83 210.02 620.25 207.16"/><polygon class="cls-1" points="616.89 230.33 613.2 230.33 612.7 233.12 616.42 233.19 616.89 230.33"/><polygon class="cls-1" points="617.36 226.46 613.66 226.46 613.17 229.25 616.89 229.32 617.36 226.46"/><polygon class="cls-1" points="618.57 218.72 615.06 218.72 614.59 221.51 618.12 221.58 618.57 218.72"/><polygon class="cls-1" points="618.13 222.64 614.62 222.64 614.15 225.43 617.69 225.51 618.13 222.64"/><path class="cls-9" d="M598.51,180.24c.16-.08-.37-2.72-1.15-3.17-2.19-1.25-2-2.44-.82-4.24a14.66,14.66,0,0,0,2.12-4.51c.83-3.5-.55-5.27-3.86-5.47a4.27,4.27,0,0,1-1.19-.4c-.23-3-.36-4.74-.08-5.77-.36.17-.73.36-1,.5-.2,2.77.43,5.7-1.52,8.17-.13.17,0,.55,0,.83.39,2.45.82,4.89,1.18,7.35.27,1.88-.43,2.89-2.48,3.18-.77.11-2,1.25-2,1.91a3.89,3.89,0,0,0,1.48,2.91c3.93,2.17,4.68,8.37,1.21,11.22l6.69-5.33C597.34,184.48,595.22,181.94,598.51,180.24Z"/><path class="cls-9" d="M627.28,171.88c0-2.73.19-5.49,0-8.2a5.28,5.28,0,0,1,1.92-5c1.07-.87,2.17-1.7,2.85-2.23v-4.14c-.51-.17-1.61-.54-2.74-.87s-2.12-.55-3.33-.86c5.36-7.5,6.29-10,4.24-12.57l-6.92,1-.18,1.08c-.43,3-.1,6.14-.4,9.19a3.82,3.82,0,0,1-2,2.27c-1.21.64-2.68.75-2.49,2.69.16,1.6-.49,3.43,2,3.95.5.1,1.14,1.52,1,2.26-.57,5-1.75,10-1.9,15a8.13,8.13,0,0,1-.13,1.27c0-.07,0-.14,0-.21C619.65,174.37,623.7,172.3,627.28,171.88Z"/><path class="cls-11" d="M683.36,219l-.19-.55,37.06-22.1c-.18-.4-.37-.8-.55-1.19A11.31,11.31,0,0,0,717,196c-6.06,3.51-12,7.21-18.14,10.64-8,4.5-16.15,8.82-24.26,13.16a6.09,6.09,0,0,1-2.54.61c-1.65.06-2.28.77-2.72,2.41-2.24,8.41-8.47,13.26-17.19,13.68-1.58.08-3.15.35-4.72.36-4.42,0-8.83,0-13.39,0-.44-3.34-1-6.65-1.22-10a3.55,3.55,0,0,1,1.62-2.81c12.48-5.67,20-15.45,23.75-28.37,3.79-13.09,3.39-26.38,1.58-39.71-.4-3-1.66-6,2.5-7.91l-1.21-.79-33,25-.81-.42-9.53,8.06.07-.09c-1.43,1.75-3.62,2.74-5.6,4.05a64.12,64.12,0,0,1-1.35,14.16c5.3,1.86,5.23,1.85,4.46,7.32-1.45,10.23-2.81,20.47-4.29,31.34-3.63-3-8.49-4.17-8.5-9.82a1,1,0,0,0,0-.3c-1.2-5.23-.81-9.83,2.56-14.62,2.8-4,3.9-9.14,5.81-13.92a64.12,64.12,0,0,0,1.35-14.16l-.07,0c.41-3.11-1.79-6.59,1.76-9.13-3,1.89-5.59,3.93-8.21,6l-7.47,5.86h0l-9,7.07.38-.31c-5,4-10.09,7.9-15.12,11.88a20.81,20.81,0,0,0-2,2l.63.63,7.79-6.09.61.77-5.08,4.46c9.88,3.53,17,12,15.38,19.5-.19-2.44-.45-3.85-3-4-9.78-.4-19.54-1.28-29.31-1.66-6.91-.28-7.41,1.07-6.89,6.86.22,2.52,1,3.86,3.43,5,5.78,2.73,11.38,5.89,16.87,9.19a9,9,0,0,1,4.51,8.16,18.06,18.06,0,0,0,1.73,6.52,47.41,47.41,0,0,0,3.21,5.59s76.29,1.51,85.79-.17c9.8-5.12,13.57-13.61,16.54-22.68.8-2.43,1.71-4.84,2.61-7.24a14.26,14.26,0,0,1,8.08-8.63c4.66-1.88,9.41-3.53,14.16-5.18,1.48-.52,2.59-1,1.47-2.95Zm-37.76-4.62c2.29-8,1.07-16.38,5-24C654.3,200.79,652.65,209,645.6,214.41ZM654,201.66c-1.37-8.86-3.85-17,1-24.79C659.85,184.94,658,193,654,201.66Zm5-18.6c-4.47-8.34-3-16-.87-23.61l.87,0Zm-32.93-7,1.18-.92h0l14.8-11.47h0l.7-.54h0l3.74-2.9h0l2-1.56h0c2.67-2.06,5.14-4,7.7-6l4.41-3.65-4.41,3.65.56-.42h0c-.92,4-5.38,7.52-10.27,7.93h0l-3.74,2.9c-3.06,5.89-9,10.85-14.14,11.84l-2.4,6.49c.63,14.61,1.39,32.05,2.16,49.76l8.07-13.2c3-5.17,6.08-10.28,9.1-15.39,1.79,10.12-2.54,17.47-11.72,19.81l2.62-4.42-8.07,13.2.24,5.36-.79.6c-.58-.61-1.67-1.21-1.67-1.82-.09-19-.08-38-.08-53.57Zm-3.77,24.08h2.88l-.36,2.86-2.91-.07Zm-.49,3.78h3l-.38,2.87-3-.08Zm-.42,29.26-3.73-.07.5-2.79h3.7Zm0,.92v2.62h-4C617.17,233.59,617.18,233.59,621.45,234.11Zm-3.17-4.75.5-2.79h3.69l-.47,2.86Zm.73-3.81.47-2.79H623l-.45,2.86Zm4-3.85-3.54-.08.47-2.79h3.51Zm.25-4-3.37-.07.45-2.79h3.35Zm-2.69-3.7.45-2.79h3.35l-.43,2.86Zm.54-3.9.45-2.79h3.35l-.43,2.86Zm-2.72-10h2.89l-.37,2.87-2.91-.08Zm-.67,3.79h3l-.39,2.86-3-.07Zm-.79,3.34h3.35l-.42,2.86-3.37-.07Zm-.54,3.9h3.35l-.43,2.86-3.37-.07Zm-.68,3.62H619l-.43,2.87-3.37-.08Zm-.62,4h3.51l-.45,2.86-3.53-.07Zm-.44,3.92h3.51l-.44,2.87-3.54-.08Zm-1,3.82h3.7l-.47,2.86-3.72-.07Zm-.46,3.87h3.69l-.47,2.86-3.72-.07Zm3.38,3.81-.48,2.62h-3.9C612.07,233.63,612.14,233.59,616.58,234.14ZM593.3,193.66q.76,18.48,1.52,37l-.89.16a8.25,8.25,0,0,1-.92-2.53C593,216.73,593,205.19,593.3,193.66Zm6.75,46.88a136.94,136.94,0,0,1-10.75-8.85,13.25,13.25,0,0,0-8.07-3.63c-5.47-.73-10.92-1.64-16.37-2.47v-.07h0l0-.8c7.13.91,14.26,1.78,21.38,2.78a5.2,5.2,0,0,1,2.17,1.44c3.17,2.69,6.38,5.33,9.42,8.15A15.07,15.07,0,0,0,608.08,241c8.19.3,16.38.63,24.66,1l-.5,0,.5,0a133.22,133.22,0,0,1-30.34-.36A5,5,0,0,1,600.05,240.54Zm27,19.92h-.4a129.25,129.25,0,0,1-19.41-1.34h39.43A153.72,153.72,0,0,1,627,260.46Zm-.77-3.73H626a115.52,115.52,0,0,1-19.4-1.46h40.43A160.6,160.6,0,0,1,626.24,256.73Zm-19.7-5.14h39A135.69,135.69,0,0,1,625.86,253h-.34A123.09,123.09,0,0,1,606.54,251.59Zm19.53-2.18h-.28a149.15,149.15,0,0,1-21.4-1.48h43.33A163,163,0,0,1,626.07,249.41ZM660.35,237c-8.48,3.27-17.38,3.21-26.27,3.14,5.91-.67,11.85-1.18,17.73-2,6.74-1,13.05-3.06,17.55-8.69C667.53,233.42,664.19,235.55,660.35,237Z"/><path class="cls-13" d="M617.82,179.85a6.76,6.76,0,0,0,1.42-3.18A8.23,8.23,0,0,1,617.82,179.85Z"/><path class="cls-11" d="M627.28,171.88c-3.58.42-7.63,2.49-8,4.58,0,.07,0,.14,0,.21a6.76,6.76,0,0,1-1.42,3.18l-.07.09Z"/><circle class="cls-2" cx="625.02" cy="138.9" r="0.54"/><circle class="cls-2" cx="626.97" cy="138.9" r="0.54"/><path class="cls-11" d="M182.68,490.43a64.77,64.77,0,0,0,31,8.18c15,0,23.41-7,23.41-17.51,0-9.71-6.47-15.42-22.84-21.32-21.12-7.61-34.64-18.84-34.64-37.3,0-20.94,17.51-36.93,45.3-36.93,13.9,0,24.17,3.05,30.84,6.47l-5.71,18.85a54.28,54.28,0,0,0-25.51-6.09c-14.85,0-21.32,8-21.32,15.41,0,9.9,7.43,14.47,24.56,21.13,22.27,8.38,33.11,19.61,33.11,38.07,0,20.55-15.6,38.45-48.72,38.45-13.51,0-27.6-3.81-34.64-8Z"/><path class="cls-11" d="M298.81,476.15c.57,16.75,13.7,24,28.55,24,10.85,0,18.65-1.52,25.69-4.18l3.43,16.18c-8,3.23-19,5.71-32.36,5.71-30.07,0-47.77-18.47-47.77-46.83,0-25.69,15.61-49.86,45.3-49.86,30.07,0,40,24.74,40,45.11a57.65,57.65,0,0,1-.76,9.89Zm40.73-16.37c.19-8.56-3.62-22.65-19.22-22.65-14.47,0-20.56,13.14-21.51,22.65Z"/><path class="cls-11" d="M432.64,515.93l-1.52-10.28h-.58c-5.71,7.24-15.41,12.38-27.4,12.38-18.66,0-29.13-13.52-29.13-27.6,0-23.41,20.75-35.21,55-35v-1.53c0-6.09-2.47-16.18-18.84-16.18-9.14,0-18.65,2.86-24.94,6.86l-4.56-15.23c6.85-4.19,18.84-8.18,33.5-8.18,29.69,0,38.25,18.84,38.25,39v33.5a147.39,147.39,0,0,0,1.34,22.27Zm-3.05-45.3c-16.56-.38-32.35,3.24-32.35,17.32,0,9.14,5.9,13.33,13.32,13.33a19,19,0,0,0,18.27-12.76,16.8,16.8,0,0,0,.76-5.13Z"/><path class="cls-11" d="M477.2,453.12c0-12.56-.19-21.51-.76-29.88h20.37l.76,17.7h.76c4.57-13.13,15.42-19.79,25.32-19.79a24.71,24.71,0,0,1,5.52.57V443.8a32,32,0,0,0-6.86-.77c-11.23,0-18.84,7.24-20.93,17.71a40.13,40.13,0,0,0-.76,7.23v48H477.2Z"/><path class="cls-11" d="M611.4,513.08c-4.94,2.28-14.65,4.76-26.26,4.76-28.93,0-47.78-18.47-47.78-47.21,0-27.79,19-49.48,51.59-49.48,8.56,0,17.32,1.9,22.65,4.37L607.41,443a41.33,41.33,0,0,0-17.7-3.61c-17.9,0-28.55,13.13-28.36,30.07,0,19,12.37,29.88,28.36,29.88a45.87,45.87,0,0,0,18.46-3.61Z"/><path class="cls-11" d="M628.75,380.79h23.6V436h.38a31.47,31.47,0,0,1,11.61-10.66,31.81,31.81,0,0,1,16-4.18c15.8,0,32.36,10.46,32.36,40.16v54.62H689.27V464c0-13.51-4.94-23.6-17.89-23.6-9.13,0-15.6,6.09-18.08,13.13a19.8,19.8,0,0,0-.95,7.05v55.38h-23.6Z"/><path class="cls-2" d="M737.65,380.79h23.6V515.93h-23.6Z"/><path class="cls-11" d="M811.51,397.35c0,7-5.14,12.57-13.33,12.57-7.8,0-12.94-5.52-12.94-12.57,0-7.23,5.33-12.75,13.13-12.75C806.37,384.6,811.32,390.12,811.51,397.35Z"/><rect class="cls-2" x="786.57" y="423.24" width="23.6" height="92.69"/><path class="cls-2" d="M920,423.24c-.38,6.28-.76,13.89-.76,26.65v52.53c0,19.41-4,33.31-13.7,42.06-9.71,8.57-23,11.23-35.79,11.23-11.8,0-24.36-2.47-32.35-7.42l5.14-17.7a56,56,0,0,0,27,7c15.23,0,26.65-8,26.65-28v-8h-.38c-5.33,8.18-14.85,13.7-27,13.7-23,0-39.4-19-39.4-45.3,0-30.45,19.8-48.91,42.07-48.91,14.08,0,22.46,6.85,26.83,14.46h.38l1-12.37Zm-24.17,37.11a22.81,22.81,0,0,0-.76-6.28c-2.48-8.56-9.14-15-19-15-13.13,0-22.84,11.42-22.84,30.26,0,15.8,8,28.55,22.65,28.55a20,20,0,0,0,19-14.08,40.44,40.44,0,0,0,1-8.38Z"/><path class="cls-2" d="M944.4,380.79H968V436h.39A31.39,31.39,0,0,1,980,425.33a31.75,31.75,0,0,1,16-4.18c15.8,0,32.36,10.46,32.36,40.16v54.62h-23.41V464c0-13.51-4.95-23.6-17.89-23.6-9.14,0-15.61,6.09-18.08,13.13a19.57,19.57,0,0,0-1,7.05v55.38H944.4Z"/><path class="cls-2" d="M1079.19,396.78v26.46h22.27v17.51h-22.27v40.92c0,11.23,3,17.13,12,17.13a34.64,34.64,0,0,0,9.14-1.14l.38,17.89c-3.43,1.33-9.52,2.29-16.94,2.29-8.56,0-15.8-2.86-20.17-7.62-4.95-5.33-7.24-13.7-7.24-25.88V440.75H1043V423.24h13.32V402.3Z"/><path class="cls-14" d="M813.07,388.9a15.15,15.15,0,0,1,3.06,8.67,15,15,0,0,1-.81,4.32L895,419.26l.4-47.07Z"/></svg>