<svg width="198" height="119" viewBox="0 0 198 119" fill="none" xmlns="http://www.w3.org/2000/svg">
<path d="M56.2737 43.4149C56.2737 45.8341 56.5342 47.7957 56.9901 49.2341C57.5112 50.6726 58.1625 52.2418 59.0743 53.9418C59.4 54.4649 59.5303 54.988 59.5303 55.4457C59.5303 56.0995 59.1395 56.7534 58.2928 57.4072L54.1895 60.1534C53.6033 60.5457 53.0171 60.7418 52.496 60.7418C51.8447 60.7418 51.1934 60.4149 50.5421 59.8264C49.6303 58.8457 48.8487 57.7995 48.1974 56.7534C47.5461 55.6418 46.8947 54.3995 46.1783 52.8957C41.098 58.9111 34.7151 61.9187 27.0296 61.9187C21.5585 61.9187 17.1947 60.3495 14.0033 57.2111C10.8118 54.0726 9.18355 49.888 9.18355 44.6572C9.18355 39.0995 11.1375 34.588 15.1105 31.188C19.0835 27.788 24.3592 26.088 31.0678 26.088C33.2822 26.088 35.5618 26.2841 37.9717 26.6111C40.3816 26.938 42.8566 27.4611 45.4618 28.0495V23.2764C45.4618 18.3072 44.4197 14.8418 42.4007 12.8149C40.3164 10.788 36.7993 9.80721 31.7842 9.80721C29.5046 9.80721 27.1599 10.0687 24.75 10.6572C22.3401 11.2457 19.9954 11.9649 17.7158 12.8803C16.6737 13.338 15.8921 13.5995 15.4362 13.7303C14.9803 13.8611 14.6546 13.9264 14.3941 13.9264C13.4822 13.9264 13.0263 13.2726 13.0263 11.8995V8.69567C13.0263 7.64952 13.1566 6.8649 13.4822 6.40721C13.8079 5.94952 14.3941 5.49183 15.3059 5.03413C17.5855 3.85721 20.321 2.87644 23.5125 2.09183C26.7039 1.24183 30.0908 0.849519 33.673 0.849519C41.4237 0.849519 47.0901 2.6149 50.7375 6.14567C54.3197 9.67644 56.1434 15.038 56.1434 22.2303V43.4149H56.2737ZM29.8303 53.3534C31.9796 53.3534 34.1941 52.9611 36.5388 52.1764C38.8835 51.3918 40.9678 49.9534 42.7263 47.9918C43.7684 46.7495 44.55 45.3764 44.9408 43.8072C45.3316 42.238 45.5921 40.3418 45.5921 38.1187V35.3726C43.7033 34.9149 41.6842 34.5226 39.6 34.2611C37.5158 33.9995 35.4967 33.8688 33.4776 33.8688C29.1138 33.8688 25.9224 34.7187 23.773 36.4841C21.6237 38.2495 20.5816 40.7341 20.5816 44.0034C20.5816 47.0764 21.3632 49.3649 22.9914 50.9341C24.5546 52.5688 26.8342 53.3534 29.8303 53.3534ZM82.1309 60.4149C80.9586 60.4149 80.177 60.2188 79.6559 59.7611C79.1349 59.3688 78.6789 58.4534 78.2882 57.2111L62.9822 6.66875C62.5914 5.36106 62.3961 4.51106 62.3961 4.05337C62.3961 3.00721 62.9171 2.41875 63.9592 2.41875H70.3421C71.5796 2.41875 72.4263 2.6149 72.8822 3.0726C73.4033 3.4649 73.7941 4.38029 74.1849 5.6226L85.127 48.9072L95.2875 5.6226C95.6132 4.3149 96.0039 3.4649 96.525 3.0726C97.046 2.68029 97.9579 2.41875 99.1303 2.41875H104.341C105.578 2.41875 106.425 2.6149 106.946 3.0726C107.467 3.4649 107.923 4.38029 108.184 5.6226L118.474 49.4303L129.742 5.6226C130.133 4.3149 130.589 3.4649 131.045 3.0726C131.566 2.68029 132.412 2.41875 133.585 2.41875H139.642C140.684 2.41875 141.27 2.94183 141.27 4.05337C141.27 4.38029 141.205 4.70721 141.14 5.09952C141.075 5.49183 140.945 6.0149 140.684 6.73413L124.987 57.2764C124.597 58.5841 124.141 59.4341 123.62 59.8264C123.099 60.2188 122.252 60.4803 121.145 60.4803H115.543C114.306 60.4803 113.459 60.2841 112.938 59.8264C112.417 59.3688 111.961 58.5188 111.701 57.2111L101.605 15.038L91.575 57.1457C91.2493 58.4534 90.8585 59.3034 90.3375 59.7611C89.8164 60.2188 88.9046 60.4149 87.7322 60.4149H82.1309ZM165.825 62.1803C162.438 62.1803 159.051 61.788 155.795 61.0034C152.538 60.2188 149.998 59.3688 148.305 58.388C147.262 57.7995 146.546 57.1457 146.286 56.5572C146.025 55.9688 145.895 55.3149 145.895 54.7264V51.3918C145.895 50.0187 146.416 49.3649 147.393 49.3649C147.784 49.3649 148.174 49.4303 148.565 49.5611C148.956 49.6918 149.542 49.9534 150.193 50.2149C152.408 51.1957 154.818 51.9803 157.358 52.5034C159.963 53.0264 162.503 53.288 165.109 53.288C169.212 53.288 172.403 52.5687 174.618 51.1303C176.832 49.6918 178.005 47.5995 178.005 44.9187C178.005 43.088 177.418 41.5841 176.246 40.3418C175.074 39.0995 172.859 37.988 169.668 36.9418L160.224 33.9995C155.469 32.4957 151.952 30.2726 149.803 27.3303C147.653 24.4534 146.546 21.2495 146.546 17.8495C146.546 15.1034 147.132 12.6841 148.305 10.5918C149.477 8.49952 151.04 6.66875 152.994 5.23029C154.948 3.72644 157.162 2.6149 159.768 1.83029C162.373 1.04567 165.109 0.71875 167.974 0.71875C169.407 0.71875 170.905 0.784135 172.338 0.980288C173.836 1.17644 175.204 1.43798 176.572 1.69952C177.874 2.02644 179.112 2.35337 180.284 2.74567C181.457 3.13798 182.368 3.53029 183.02 3.9226C183.932 4.44567 184.583 4.96875 184.974 5.55721C185.364 6.08029 185.56 6.79952 185.56 7.7149V10.788C185.56 12.1611 185.039 12.8803 184.062 12.8803C183.541 12.8803 182.694 12.6187 181.587 12.0957C177.874 10.3957 173.706 9.54567 169.082 9.54567C165.369 9.54567 162.438 10.1341 160.419 11.3764C158.4 12.6187 157.358 14.5149 157.358 17.1957C157.358 19.0264 158.009 20.5957 159.312 21.838C160.614 23.0803 163.024 24.3226 166.476 25.4341L175.725 28.3764C180.414 29.8803 183.801 31.9726 185.82 34.6534C187.839 37.3341 188.816 40.4072 188.816 43.8072C188.816 46.6188 188.23 49.1687 187.123 51.3918C185.951 53.6149 184.387 55.5764 182.368 57.1457C180.349 58.7803 177.939 59.9572 175.139 60.8072C172.208 61.7226 169.147 62.1803 165.825 62.1803Z" fill="#252F3E"/>
<path fill-rule="evenodd" clip-rule="evenodd" d="M178.135 93.9569C156.707 109.845 125.574 118.28 98.8046 118.28C61.2888 118.28 27.4855 104.353 1.95394 81.2069C-0.0651351 79.3761 1.75855 76.8915 4.16842 78.33C31.7842 94.4146 65.848 104.157 101.084 104.157C124.857 104.157 150.975 99.1877 175.009 88.9877C178.591 87.3531 181.652 91.3415 178.135 93.9569Z" fill="#FF9900"/>
<path fill-rule="evenodd" clip-rule="evenodd" d="M187.058 83.7571C184.322 80.2264 168.951 82.0571 161.982 82.9071C159.898 83.1687 159.572 81.3379 161.461 79.9648C173.706 71.3341 193.832 73.8187 196.176 76.6956C198.521 79.6379 195.525 99.8418 184.062 109.519C182.303 111.023 180.61 110.238 181.391 108.276C183.997 101.803 189.793 87.2225 187.058 83.7571Z" fill="#FF9900"/>
</svg>
