<svg xmlns="http://www.w3.org/2000/svg" width="149" height="48" fill="none" xmlns:v="https://vecta.io/nano"><path d="M106.811 38.407c-3.306-.212-5.228-2.092-5.736-5.61-.136-.936-.136-.96-.15-7.035l-.014-5.88h2.926l.011 5.687.066 6.087c.199 1.464.595 2.449 1.271 3.155.54.565 1.172.896 2.047 1.072.412.083 1.588.083 1.965 0a4.34 4.34 0 0 0 2.225-1.207c.716-.714 1.245-1.728 1.502-2.873l.085-.386.009-5.735.01-5.738h2.987V37.98h-2.956v-1.431l-.033-1.42a1.167 1.167 0 0 0-.169.258 6.008 6.008 0 0 1-2.287 2.288c-1.114.611-2.232.83-3.759.732zm33.543-.014a7.76 7.76 0 0 1-3.399-1.11c-2.117-1.307-3.369-3.463-3.735-6.427-.127-1.027-.143-2.405-.036-3.277.236-1.95 1.003-3.863 2.095-5.227a10.49 10.49 0 0 1 1.264-1.265 7.889 7.889 0 0 1 3.228-1.539 10.57 10.57 0 0 1 2.62-.152c1.828.17 3.502 1.029 4.64 2.381 1.158 1.375 1.792 3.296 1.875 5.66l.006 1.445-.016.77-6.401.008-6.401.008v.286c0 .868.211 1.857.576 2.7.315.725.859 1.517 1.302 1.901a5.726 5.726 0 0 0 3.245 1.371c.453.042 1.606-.002 2.121-.081 1.471-.226 2.87-.803 3.997-1.647l.283-.207c.033-.02.042.239.04 1.332v1.356l-.304.188a10.599 10.599 0 0 1-4.289 1.485 24.43 24.43 0 0 1-2.711.04zm5.57-11.45c0-1.454-.614-3.07-1.482-3.902a4.075 4.075 0 0 0-2.261-1.095c-.421-.066-1.309-.04-1.753.048a4.583 4.583 0 0 0-2.394 1.272 6.51 6.51 0 0 0-1.585 2.533 8.287 8.287 0 0 0-.307 1.246l-.02.153h9.802v-.255zM59.094 37.94l4.83-12.675 4.818-12.635h3.095l.128.327 9.643 25.008c0 .009-.741.015-1.647.015h-1.647l-1.332-3.546-1.335-3.546H64.911l-.046.122-1.266 3.544-1.218 3.426H60.73c-1.305 0-1.647-.008-1.636-.04zm15.574-9.757c0-.006-.896-2.435-1.993-5.4l-2.329-6.768c-.076-.417-.115-.43-.16-.049a8.94 8.94 0 0 1-.278 1.22l-2.054 5.628a884.088 884.088 0 0 0-1.956 5.352c0 .015 1.974.027 4.385.027l4.385-.01zm7.935 9.337v-.463l5.349-7.344 5.349-7.345-4.844-.015-4.841-.016-.009-1.228-.008-1.227h14.008v.828l-5.35 7.385-5.349 7.399c0 .008 2.378.015 5.285.015h5.285v2.47H82.603v-.46zm39.248.44c-.012-.013-.021-4.085-.021-9.05v-9.03h2.923v1.861l.027 1.861c.016 0 .087-.167.159-.371a6.427 6.427 0 0 1 1.633-2.513 4.237 4.237 0 0 1 2.31-1.147c.25-.04.462-.048.963-.035.63.017.958.063 1.341.188l.121.038v3.033l-.345-.172a3.681 3.681 0 0 0-1.936-.388c-.471.024-.78.085-1.157.226a3.66 3.66 0 0 0-1.842 1.502 8.735 8.735 0 0 0-1.223 3.512c-.024.214-.037 1.964-.043 5.412l-.009 5.094h-1.44c-.792 0-1.449-.01-1.461-.023z" fill="#0089d6"/><path d="M16.643 0h14.773L16.081 45.44a2.355 2.355 0 0 1-2.232 1.602H2.352a2.354 2.354 0 0 1-2.228-3.103L14.412 1.603A2.355 2.355 0 0 1 16.643 0Z" fill="url(#A)"/><path d="M38.11 30.478H14.684a1.084 1.084 0 0 0-.741 1.877l15.053 14.05a2.368 2.368 0 0 0 1.615.636h13.265L38.11 30.478Z" fill="#0078d4"/><path d="M16.64 0a2.336 2.336 0 0 0-2.237 1.634L.138 43.899a2.35 2.35 0 0 0 2.217 3.142H14.15a2.52 2.52 0 0 0 1.935-1.645l2.844-8.384L29.09 46.49a2.4 2.4 0 0 0 1.512.551h13.216l-5.796-16.564-16.897.004L31.466.001H16.64z" fill="url(#B)"/><path d="M35.51 1.6A2.351 2.351 0 0 0 33.28 0H16.817a2.352 2.352 0 0 1 2.229 1.6l14.288 42.337a2.352 2.352 0 0 1-2.228 3.105H47.57a2.353 2.353 0 0 0 2.228-3.105L35.509 1.601Z" fill="url(#C)"/><defs><linearGradient id="A" x1="22.028" y1="3.487" x2="6.686" y2="48.811" gradientUnits="userSpaceOnUse"><stop stop-color="#114a8b"/><stop offset="1" stop-color="#0669bc"/></linearGradient><linearGradient id="B" x1="26.817" y1="24.609" x2="23.268" y2="25.809" gradientUnits="userSpaceOnUse"><stop stop-opacity=".3"/><stop offset=".071" stop-opacity=".2"/><stop offset=".321" stop-opacity=".1"/><stop offset=".623" stop-opacity=".05"/><stop offset="1" stop-opacity="0"/></linearGradient><linearGradient id="C" x1="24.866" y1="2.165" x2="41.707" y2="47.032" gradientUnits="userSpaceOnUse"><stop stop-color="#3ccbf4"/><stop offset="1" stop-color="#2892df"/></linearGradient></defs></svg>