<svg xmlns="http://www.w3.org/2000/svg" width="176" height="88" fill="none" xmlns:v="https://vecta.io/nano"><path d="M95.144 16.972l1.678.029 4.559-4.558.22-1.932c-3.623-3.222-8.39-5.183-13.607-5.183-9.445 0-17.418 6.427-19.779 15.133.499-.348 1.562-.088 1.562-.088l9.111-1.499s.469-.777.704-.729a11.38 11.38 0 0 1 15.552-1.173z" fill="#ea4335"/><path d="M107.8 20.478c-1.047-3.853-3.196-7.317-6.183-9.967l-6.456 6.456c1.325 1.065 2.394 2.413 3.129 3.946s1.117 3.211 1.117 4.911v1.14a5.7 5.7 0 0 1 5.69 5.691c0 3.134-2.556 5.691-5.69 5.691H88.022l-1.14 1.144v6.832l1.14 1.134h11.384a14.83 14.83 0 0 0 14.788-14.799c-.006-5.04-2.546-9.504-6.409-12.178h.014z" fill="#4285f4"/><path d="M76.61 47.464h11.381v-9.111H76.61a5.63 5.63 0 0 1-2.342-.509l-1.643.503-4.558 4.558-.399 1.54a14.61 14.61 0 0 0 8.944 3.021l-.001-.003z" fill="#34a853"/><path d="M76.609 17.857a14.83 14.83 0 0 0-14.805 14.805c0 2.285.53 4.539 1.548 6.585s2.496 3.828 4.319 5.207l6.6-6.6a5.69 5.69 0 0 1-3.356-5.189 5.7 5.7 0 0 1 5.691-5.691c1.096.002 2.168.319 3.088.915s1.65 1.443 2.101 2.441l6.6-6.6c-2.707-3.564-6.981-5.867-11.792-5.867l.006-.006z" fill="#fbbc05"/><path d="M17.601 76.174c-3.109 0-5.779-1.1-8.029-3.3s-3.373-4.846-3.373-7.932 1.122-5.732 3.373-7.932 4.924-3.301 8.029-3.301c1.424-.021 2.839.242 4.16.773s2.525 1.32 3.538 2.321l-2.166 2.166a7.8 7.8 0 0 0-5.534-2.193c-2.244 0-4.151.792-5.714 2.386-.761.755-1.36 1.657-1.763 2.65s-.6 2.058-.579 3.13c0 2.267.777 4.19 2.342 5.779a7.7 7.7 0 0 0 5.714 2.386c2.285 0 4.173-.733 5.676-2.25.88-.88 1.467-2.2 1.672-3.865h-7.342v-3.068h10.331c.11.546.147 1.173.147 1.907 0 3.015-.884 5.406-2.659 7.179-2.012 2.105-4.62 3.153-7.839 3.153l.016.009zm24.009-2.053c-1.408 1.379-3.124 2.053-5.151 2.053s-3.746-.689-5.151-2.053-2.109-3.099-2.109-5.163.704-3.784 2.109-5.163 3.124-2.053 5.151-2.053 3.746.689 5.151 2.053 2.109 3.103 2.109 5.163-.704 3.784-2.109 5.163zm-8.029-2.024a3.86 3.86 0 0 0 2.879 1.245c1.115 0 2.074-.414 2.879-1.247s1.206-1.877 1.206-3.139c0-1.276-.396-2.329-1.192-3.153a3.86 3.86 0 0 0-2.892-1.232 3.87 3.87 0 0 0-2.892 1.232c-.796.821-1.192 1.871-1.192 3.153 0 1.258.4 2.307 1.206 3.139v.001zm23.867 2.024c-1.408 1.379-3.124 2.053-5.151 2.053s-3.746-.689-5.151-2.053-2.109-3.099-2.109-5.163.704-3.784 2.109-5.163 3.124-2.053 5.151-2.053 3.746.689 5.151 2.053 2.109 3.103 2.109 5.163-.704 3.784-2.109 5.163zm-8.029-2.024a3.86 3.86 0 0 0 1.307.928c.496.215 1.031.322 1.572.317 1.115 0 2.074-.414 2.879-1.247s1.206-1.877 1.206-3.139c0-1.276-.396-2.329-1.192-3.153a3.86 3.86 0 0 0-2.892-1.232 3.87 3.87 0 0 0-2.892 1.232c-.796.821-1.192 1.871-1.192 3.153 0 1.258.4 2.307 1.206 3.139v.001zm18.44 10.589c-1.606 0-2.958-.431-4.054-1.291s-1.88-1.854-2.355-2.989l2.769-1.148a4.52 4.52 0 0 0 1.368 1.81c.635.512 1.379.766 2.276.766 1.206 0 2.153-.367 2.835-1.096s1.027-1.784 1.027-3.153v-1.027h-.11c-.88 1.096-2.166 1.646-3.808 1.646-1.845 0-3.461-.704-4.85-2.109a6.98 6.98 0 0 1-2.083-5.098 7.07 7.07 0 0 1 2.083-5.138c1.386-1.412 3.007-2.122 4.85-2.122.821 0 1.566.154 2.232.466s1.192.695 1.575 1.148h.11v-1.165h3.015v12.99c0 2.523-.642 4.406-1.933 5.661-1.291 1.247-2.936 1.877-4.947 1.877l-.002-.029zm.22-9.346a3.53 3.53 0 0 0 1.518-.313c.477-.215.899-.534 1.238-.932.739-.832 1.109-1.867 1.109-3.112 0-1.258-.37-2.311-1.109-3.153a3.52 3.52 0 0 0-2.756-1.258c-1.115 0-2.065.422-2.848 1.258s-1.179 1.889-1.179 3.153c0 1.241.392 2.281 1.179 3.112s1.735 1.245 2.848 1.245zm12.03-18.869v21.267h-3.178V54.472h3.178zm8.712 21.701c-2.047 0-3.755-.695-5.124-2.083s-2.056-3.103-2.056-5.151c0-2.118.66-3.857 1.986-5.207.622-.654 1.373-1.173 2.206-1.522a6.53 6.53 0 0 1 2.632-.508c.876 0 1.691.158 2.439.48a5.75 5.75 0 0 1 1.863 1.232c.446.444.841.935 1.179 1.465a8.98 8.98 0 0 1 .713 1.426l.33.821-9.671 4.007c.733 1.461 1.907 2.193 3.508 2.193 1.461 0 2.65-.664 3.561-1.999l2.464 1.646c-.55.821-1.324 1.562-2.329 2.219s-2.241.983-3.702.983l.003-.001zm-4.027-7.451l6.453-2.684c-.185-.458-.519-.827-1.027-1.109s-1.087-.432-1.672-.422c-.933 0-1.804.381-2.615 1.148s-1.203 1.792-1.166 3.068l.026-.001zm26.884 7.451c-2.889 0-5.309-.977-7.263-2.933s-2.933-4.393-2.933-7.316.976-5.362 2.933-7.316 4.375-2.933 7.263-2.933c2.958 0 5.362 1.071 7.206 3.205l-1.753 1.701c-1.32-1.663-3.153-2.493-5.456-2.493-2.141 0-3.939.722-5.427 2.166s-2.206 3.332-2.206 5.67.734 4.23 2.206 5.676 3.275 2.166 5.427 2.166c2.355 0 4.366-.95 6.013-2.848l1.753 1.753c-.918 1.096-2.071 1.971-3.373 2.562-1.381.635-2.886.957-4.406.942l.016-.001zm12.549-.434h-2.523v-19.62h2.523v19.62zm4.111-11.821c1.298-1.36 2.933-2.043 4.96-2.043s3.662.682 4.96 2.043 1.947 3.08 1.947 5.111-.646 3.75-1.947 5.111-2.933 2.043-4.96 2.043-3.662-.682-4.96-2.043-1.946-3.08-1.946-5.111.645-3.75 1.946-5.111zm1.877 8.628c.88.884 1.898 1.329 3.08 1.329s2.2-.444 3.08-1.329 1.303-2.061 1.303-3.52-.436-2.637-1.303-3.52-1.898-1.329-3.08-1.329-2.2.444-3.08 1.329-1.302 2.061-1.302 3.52.435 2.637 1.302 3.52zm23.936 3.193h-2.413v-1.863h-.109c-.382.638-.969 1.184-1.753 1.613s-1.614.675-2.494.675c-1.682 0-2.953-.51-3.82-1.536s-1.303-2.395-1.303-4.111v-8.222h2.523v7.809c0 2.505 1.104 3.755 3.315 3.755a3.08 3.08 0 0 0 2.549-1.258c.652-.827 1-1.853.985-2.906v-7.399h2.523v13.43l-.003.013zm8.548.436c-1.735 0-3.236-.686-4.494-2.056s-1.889-3.068-1.889-5.098.631-3.728 1.889-5.098 2.76-2.056 4.494-2.056c1.021 0 1.942.22 2.757.656s1.423.986 1.823 1.646h.11l-.11-1.863v-6.189h2.523v19.624h-2.413v-1.863h-.11c-.4.656-1.007 1.206-1.823 1.646-.814.431-1.735.653-2.757.653zm.411-2.303c.569.008 1.133-.106 1.655-.332s.99-.562 1.373-.983c.832-.876 1.247-2.056 1.247-3.52s-.414-2.659-1.247-3.52a4.02 4.02 0 0 0-1.373-.983c-.522-.227-1.086-.34-1.655-.332-1.171 0-2.176.444-3.016 1.329s-1.258 2.061-1.258 3.52.418 2.637 1.258 3.52a4.01 4.01 0 0 0 1.365.989 4 4 0 0 0 1.651.34v-.026z" fill="#5f6368"/></svg>