<svg xmlns="http://www.w3.org/2000/svg" width="16" height="16" fill="#1971bd" xmlns:v="https://vecta.io/nano"><path d="M8.183 15.986l-.903-.126a11.57 11.57 0 0 1-2.457-.766v-.057c.919-.992 1.63-2.157 2.091-3.429a.21.21 0 0 1 .083-.125c.042-.03.094-.042.146-.035l5.6-.034a4.38 4.38 0 0 1 3.12 1.143l.091.091a7.19 7.19 0 0 1-1.051 1.074c-1.414 1.165-3.131 1.902-4.949 2.126l-.709.137H8.183zM0 7.358c0-.309.08-.617.126-.914s.091-.423.137-.629c.008-.037.031-.07.063-.092A.15.15 0 0 1 .435 5.7h5.714c.025-.005.051-.005.075.001s.048.016.069.031.038.034.05.056a.18.18 0 0 1 .023.072 8.96 8.96 0 0 1 0 4.331c-.006.019-.016.037-.03.051s-.03.026-.049.034a.13.13 0 0 1-.058.01c-.02-.001-.04-.006-.057-.015H.526c-.039.005-.078-.004-.112-.025s-.058-.052-.071-.089A5.79 5.79 0 0 1 0 8.637V8.42 7.357zm16-4.069a4.2 4.2 0 0 1-2.206 1.143 5.46 5.46 0 0 1-1.051.103L7.12 4.489c-.114 0-.149 0-.183-.149-.371-.992-.887-1.924-1.531-2.766-.183-.24-.389-.446-.583-.674A9.43 9.43 0 0 1 16 3.289zm-8.595 6.983c.39-1.499.39-3.073 0-4.571h4.446a2.57 2.57 0 0 1 1.92.754c.263.27.454.603.552.966a2.22 2.22 0 0 1-.516 2.092c-.257.276-.58.482-.939.598a3.27 3.27 0 0 1-.994.183H7.405v-.023zm-3.508-8.88a14.27 14.27 0 0 1 2.091 3.166H.902a7.72 7.72 0 0 1 2.994-3.166zm-.103 13.097A8.25 8.25 0 0 1 .8 11.415h5.097a8.63 8.63 0 0 1-2.103 3.074z"/></svg>