<svg xmlns="http://www.w3.org/2000/svg" width="32" height="32" fill="none" xmlns:v="https://vecta.io/nano"><path d="M30.932 16.188l-.438.018a5.7 5.7 0 0 1-2.513-.586 23.25 23.25 0 0 0 .338-4.445c-.838-1.212-1.796-2.356-2.877-3.409.469-.879 1.162-1.636 2.028-2.173l.372-.23-.29-.327c-1.492-1.68-3.273-2.979-5.292-3.861L21.858 1l-.102.426a5.7 5.7 0 0 1-1.435 2.605 22.99 22.99 0 0 0-4.146-1.708 23.01 23.01 0 0 0-4.139 1.705c-.688-.717-1.19-1.61-1.43-2.599l-.103-.426-.401.174a15.3 15.3 0 0 0-5.291 3.858l-.29.327.371.23c.863.534 1.554 1.287 2.023 2.161a23.19 23.19 0 0 0-2.872 3.396c-.033 1.481.071 2.979.33 4.476a5.69 5.69 0 0 1-2.498.581c-.154 0-.298-.006-.438-.017L1 16.155l.041.435c.214 2.203.898 4.299 2.034 6.229l.222.377.333-.283a5.7 5.7 0 0 1 2.697-1.263 23.11 23.11 0 0 0 2.308 3.759c1.403.491 2.864.857 4.374 1.075.145.998.03 2.031-.364 2.985l-.166.404.427.094a15.3 15.3 0 0 0 3.277.363l3.276-.363.428-.094-.166-.405a5.7 5.7 0 0 1-.363-2.987c1.503-.218 2.96-.584 4.357-1.073a23.13 23.13 0 0 0 2.31-3.763 5.72 5.72 0 0 1 2.71 1.264l.333.282.221-.376c1.139-1.933 1.823-4.028 2.033-6.228l.041-.435-.429.033zm-10.068 5.325c-1.55.422-3.124.634-4.688.634s-3.141-.213-4.692-.634c-.849-1.318-1.524-2.739-2.008-4.23a17.96 17.96 0 0 1-.846-4.641c1.002-1.239 2.141-2.323 3.4-3.237a18.1 18.1 0 0 1 4.147-2.255c1.471.567 2.863 1.323 4.139 2.25 1.264.918 2.408 2.012 3.414 3.258-.086 1.592-.372 3.139-.854 4.621-.484 1.493-1.16 2.916-2.01 4.235zm-3.408-7.471a1.98 1.98 0 1 0 3.96 0 1.98 1.98 0 0 0-1.979-1.98c-1.093 0-1.981.889-1.981 1.98h0zm-2.559 0a1.98 1.98 0 0 1-1.981 1.981 1.98 1.98 0 0 1 0-3.96c1.093 0 1.98.889 1.98 1.979h0z" fill="#1971bd"/></svg>