<svg xmlns="http://www.w3.org/2000/svg" width="16" height="16" fill="none" xmlns:v="https://vecta.io/nano"><g clip-path="url(#A)"><path d="M15.408 2.457c-.343.114-.571.229-.914.229-1.371.114-1.828.571-2.857 2.171-1.143 1.943-1.6 2.286-4.229 3.086-2.171.686-2.514.8-2.971 1.257l-1.029 1.029c-.457.571-.571.686-.914.686-.229 0-.571 0-.8-.114-.457-.114-1.029-.114-1.486.114-.114.114-.229.114-.229.229.229.229.571.457.914.686.114 0 .114.114 0 .229-.343.457-.457.571-.457.686s0 .114.229.114.457 0 .571-.114c.8-.229 1.486-.571 2.171-1.029 1.371-.8 1.714-.914 3.657-.686.571.114 1.143.114 1.371.114.457 0 .457 0 .571-.229.114-.114.229-.229.229-.457.114-.229.114-.457.343-.686 0 .571-.114 1.143-.343 1.6s-.457.8-.8 1.143l-.114.114h.229c.457-.114.914-.229 1.371-.457.686-.457 1.143-1.143 1.486-1.829 0-.114.114-.229.229-.343v.343.343l.229-.114c.457-.343.914-.8 1.143-1.257.572-1.143.914-2.4 1.143-3.543.229-.914.343-1.029 1.257-1.714.457-.229.686-.686.686-1.143 0-.686-.229-.8-.686-.457z" fill="#1971bd"/></g><defs><clipPath id="A"><path fill="#fff" d="M0 0h16v16H0z"/></clipPath></defs></svg>