<svg xmlns="http://www.w3.org/2000/svg" width="16" height="16" fill="none" xmlns:v="https://vecta.io/nano"><g clip-path="url(#A)" fill="#1971bd"><path d="M7.674 0h1.029.629c.771.058 1.536.184 2.286.377a8.56 8.56 0 0 1 2.149.869 3.76 3.76 0 0 1 1.143.971 1.67 1.67 0 0 1 .309 1.577c-.123.381-.349.721-.651.983a5.21 5.21 0 0 1-1.554.971 11.27 11.27 0 0 1-3.04.789 16 16 0 0 1-2.663.08 12.81 12.81 0 0 1-2.571-.331 8.34 8.34 0 0 1-2.183-.857 3.72 3.72 0 0 1-1.143-.994c-.251-.299-.393-.675-.401-1.066a1.71 1.71 0 0 1 .356-1.082 3.63 3.63 0 0 1 .537-.571 6.37 6.37 0 0 1 2-1.063C4.976.28 6.095.061 7.229 0h.446zm7.623 12.686a2.73 2.73 0 0 1 0 .286c-.11.446-.358.846-.708 1.143a5.36 5.36 0 0 1-1.669 1.029 11.56 11.56 0 0 1-2.537.674A14.71 14.71 0 0 1 7.857 16a13 13 0 0 1-3.68-.56 6.74 6.74 0 0 1-2.171-1.063c-.376-.277-.678-.642-.88-1.063A1.59 1.59 0 0 1 1 12.663V9.76a6.12 6.12 0 0 0 2.126 1.337 11 11 0 0 0 2.069.606h.091v2.777h1.429c-.23-.854-.353-1.733-.366-2.617h.217.674a.09.09 0 0 1 .04.003c.013.004.025.01.036.019a.11.11 0 0 1 .026.031c.007.012.011.025.012.039l.343 1.143v.057h.846v-.057l.354-1.143a.08.08 0 0 1 .103 0l.891-.069c-.007.881-.13 1.757-.366 2.606h1.486v-2.754l.754-.183a8.51 8.51 0 0 0 2.789-1.143c.24-.171.446-.377.674-.56h.069v2.834zm-6.468 1.68c.045 0 .09-.009.131-.026a.36.36 0 0 0 .111-.074c.032-.031.057-.07.074-.111s.026-.086.026-.131c-.015-.082-.058-.155-.122-.209a.35.35 0 0 0-.227-.082c-.083 0-.163.029-.227.082s-.107.127-.122.209c0 .046.009.091.027.134a.34.34 0 0 0 .077.113.33.33 0 0 0 .115.073c.043.016.089.024.135.023zm-.971-.331a.33.33 0 0 0-.023-.135.35.35 0 0 0-.074-.115.34.34 0 0 0-.113-.077c-.043-.018-.088-.027-.134-.027a.34.34 0 0 0-.242.101c-.064.065-.1.152-.1.242a.33.33 0 0 0 .023.133.34.34 0 0 0 .187.187.33.33 0 0 0 .133.023.33.33 0 0 0 .13-.022c.042-.016.079-.04.111-.071a.33.33 0 0 0 .101-.239zm7.428-8.926v.114 2.663a1.99 1.99 0 0 1-.571 1.383 4.72 4.72 0 0 1-1.543 1.143 9.94 9.94 0 0 1-2.16.697H11a14.02 14.02 0 0 0-.251-2.171h-.309-.937c-.039-.005-.078.003-.113.021s-.063.047-.081.082l-1.143 1.451v.069L7.023 9.063c-.018-.022-.04-.04-.066-.052a.18.18 0 0 0-.082-.017H5.731c-.069 0-.103 0-.103.091 0 .389-.126.777-.171 1.143s0 .572-.057.846a.18.18 0 0 0 0 .08l-.469-.103c-.774-.195-1.52-.491-2.217-.88a4.05 4.05 0 0 1-1.269-1.029A1.92 1.92 0 0 1 1 7.909V5.211v-.103l.491.423a7.35 7.35 0 0 0 1.863 1.006c.849.315 1.731.533 2.629.651A16.19 16.19 0 0 0 9 7.314a13.1 13.1 0 0 0 3.92-.754 6.86 6.86 0 0 0 2.149-1.211l.217-.24zm-8.948 6.137l.103-.96a4.38 4.38 0 0 1 .583.983l-.686-.023zm2.914.057a4.92 4.92 0 0 1 .571-1.017l.103.914-.674.103z"/></g><defs><clipPath id="A"><path fill="#fff" d="M0 0h16v16H0z"/></clipPath></defs></svg>