<svg xmlns="http://www.w3.org/2000/svg" width="16" height="16" fill="#1971bd" xmlns:v="https://vecta.io/nano"><path d="M13.174 13.349l-.172-.206-1.225-1.316c-2.659.816-5.479.958-8.206.412a7.62 7.62 0 0 1-2.644-.95 1.67 1.67 0 0 1-.916-1.202c.069 1.007 0 2.037 0 3.044a2.29 2.29 0 0 0 .092.79 1.74 1.74 0 0 0 .641.71 6.58 6.58 0 0 0 2.289.95 16.77 16.77 0 0 0 5.654.332c1.407-.104 2.777-.494 4.029-1.145.177-.07.333-.184.455-.329a1.14 1.14 0 0 0 .243-.506.98.98 0 0 0-.24-.584zM11.24 7.421a15.65 15.65 0 0 1-4.361.607C3.091 8.028.012 6.884.012 5.499v3.433c0 1.385 3.079 2.529 6.867 2.529 1.501.016 2.997-.184 4.441-.595a5.43 5.43 0 0 1-.069-3.433l-.011-.011z"/><path d="M11.881 5.738a13.49 13.49 0 0 1 1.866-2.667 1.43 1.43 0 0 0-.378-1.385 3.31 3.31 0 0 0-1.339-.79A15.53 15.53 0 0 0 4.019.256 7.44 7.44 0 0 0 .585 1.515a1.49 1.49 0 0 0-.549.698c-.046.28-.046.566 0 .847-.077.598-.03 1.206.137 1.785.222.397.568.71.984.893a9.59 9.59 0 0 0 3.124.938c2.375.368 4.802.228 7.119-.412.098-.019.192-.058.275-.114.088-.085.158-.186.206-.298v-.114zm3.434.79c-.026-.067-.056-.132-.092-.195-.309-.572-.721-1.076-1.076-1.614l-.263-.423c-.034-.075-.072-.147-.114-.217-.057 0-.103 0-.137.069l-.595.824c-.348.512-.647 1.056-.893 1.625-.409.923-.567 1.938-.458 2.941a3.72 3.72 0 0 0 1.454 2.552 1.39 1.39 0 0 1 .195.172.87.87 0 0 1 .091.24 7.02 7.02 0 0 1 .137.984h.446l.057-.996a.56.56 0 0 1 0-.24.54.54 0 0 1 .149-.172 4.83 4.83 0 0 0 1.454-2.712 4.75 4.75 0 0 0-.309-2.793l-.046-.046z"/></svg>