<svg xmlns="http://www.w3.org/2000/svg" width="16" height="16" fill="none" xmlns:v="https://vecta.io/nano"><g clip-path="url(#A)" fill="#1971bd"><path d="M8.091 3.34a.49.49 0 0 0-.56.297c-.229.434.16.926.297 1.143a3.14 3.14 0 0 1 .263.56c0 .126 0 .24.069.366l.24.971a3.28 3.28 0 0 0 .194.457c0 .08.137.126.137.251a2.21 2.21 0 0 0-.194.503 3.23 3.23 0 0 0 0 2.354c.091.183.297.583.64.48s.286-.503.4-.846c0-.069 0-.137.069-.183l.217.606a4.06 4.06 0 0 0 .731 1.017c.149.137.263.32.434.457s.114.32 2.411 1.417l1.372.629c.407.17.828.308 1.257.412 0-.08 0-.171-.08-.24l-.171-.229a3.26 3.26 0 0 0-.606-.754c-.183-.183-.617-.446-.674-.697.153-.008.306-.027.457-.057h.651l.32-.069v-.103a4.25 4.25 0 0 0-.286-.446 9.74 9.74 0 0 0-1.04-.994l-.64-.411c-.069 0-.194-.08-.24-.16a3.6 3.6 0 0 1-.206-.571l-.412-1.257c-.061-.279-.141-.554-.24-.823-.485-1.144-1.276-2.133-2.286-2.857a2.86 2.86 0 0 0-.8-.366l-.48-.08c-.091 0-.183-.206-.274-.274a2.28 2.28 0 0 0-1.017-.537l.046.034zm1.531 1.257c.103 0 .16.103.24.183a.57.57 0 0 1-.263.868 2.04 2.04 0 0 0-.309-.72c-.194-.16 0-.366.274-.309l.057-.023zm1.2 7.863l-.137-.114a2.47 2.47 0 0 1-.343-.354 1.07 1.07 0 0 0-.149-.206l-.206-.217a11.3 11.3 0 0 1-4.274.777c-3.177 0-5.714-.937-5.714-2.091v2.503c0 1.143 2.537 2.091 5.714 2.091s5.531-.891 5.714-2a2.43 2.43 0 0 1-.491-.389h-.114zm-2.936-1.931a3.59 3.59 0 0 1-.16-2.08c-.667.092-1.339.137-2.011.137C2.537 8.586 0 7.66 0 6.506v2.503c0 1.143 2.537 2.08 5.714 2.08a14.5 14.5 0 0 0 2.434-.194c-.095-.116-.183-.238-.263-.366zM7.794 6.62c-.088-.262-.161-.529-.217-.8a2.45 2.45 0 0 0 0-.297.78.78 0 0 1 0-.217v-.171a2.4 2.4 0 0 0-.206-.423l-.194-.126c-.022-.048-.049-.094-.08-.137a1.53 1.53 0 0 1-.24-1.44.87.87 0 0 1 .926-.491 2.68 2.68 0 0 1 1.28.663c.056.05.11.104.16.16l.069.08.503.091h.114a3.05 3.05 0 0 1 .846.411l.571.48V3.58c0-1.143-2.537-2.08-5.611-2.08S0 2.437 0 3.58v1.669C0 6.391 2.537 7.34 5.714 7.34A13.86 13.86 0 0 0 8 7.146a3.05 3.05 0 0 1-.229-.526h.023z"/></g><defs><clipPath id="A"><path fill="#fff" d="M0 0h16v16H0z"/></clipPath></defs></svg>