<svg xmlns="http://www.w3.org/2000/svg" width="32" height="32" fill="#1971bd" xmlns:v="https://vecta.io/nano"><path d="M.762 0v20.008c.914-1.726 2.651-2.867 4.632-2.867h.274V5.857h5.699L22.37 16.216V5.857h3.657v13.41H20.48L9.326 8.724V18.96c.091.123.213.247.305.37.549-.247 1.158-.401 1.768-.401 2.469 0 4.48 2.127 4.48 4.748a7.51 7.51 0 0 1-.061.832c1.524.462 2.621 1.942 2.621 3.699 0 .339-.03.678-.122.986l2.956 2.775v-6.967h9.966V0H.762zm6.522 19.792l4.632 4.655H9.661v4.84H4.846v-4.809H2.56l4.724-4.686z"/></svg>