<svg xmlns="http://www.w3.org/2000/svg" width="16" height="16" fill="none" xmlns:v="https://vecta.io/nano"><g clip-path="url(#A)"><path d="M4.942 13.904c.083.067.17.128.262.182a.99.99 0 0 0 .604 0c.351-.05.678-.209.934-.455h-.216c-.201.073-.413.111-.626.114-.174.005-.345-.039-.496-.125s-.275-.213-.358-.365l-.08-.137-.08.114c-.309.444-.695.83-1.139 1.139l-.342.068c-.014.012-.033.019-.051.019s-.037-.007-.051-.019c-.296-.208-.578-.437-.843-.683-.381-.345-.728-.727-1.036-1.139a8.23 8.23 0 0 1-.581-.957c-.197-.406-.357-.829-.478-1.264l-.205-.82A5.75 5.75 0 0 1 0 8.438v-.911c.008-.206.027-.411.057-.615.013-.153.035-.305.068-.456 0-.216.091-.433.148-.649a8.06 8.06 0 0 1 .262-.797c.273-.723.657-1.399 1.139-2.004a8.11 8.11 0 0 1 1.902-1.731A9.11 9.11 0 0 1 5.17.467c.019-.011.041-.017.063-.017s.044.006.063.017c.35.259.654.574.9.934a.4.4 0 0 1 .068.102 5.5 5.5 0 0 0-1.139.535l.228-.068.672-.159c.264-.037.53-.056.797-.057.193-.011.387-.011.581 0a2.47 2.47 0 0 1 .638.148 3.13 3.13 0 0 1 1.002.569l.615.569.08.08a1.46 1.46 0 0 0 0-.797l.228.125a3.14 3.14 0 0 1 .66.626c.318.383.593.799.82 1.241l.137.33c.119-.162.2-.348.24-.544a1.38 1.38 0 0 0-.012-.595h.091a1.89 1.89 0 0 1 .524.672c.088.18.149.372.182.569.051.263.051.534 0 .797l-.091.433c-.104-.28-.259-.538-.455-.763l-.171-.159v.057a4.32 4.32 0 0 1 .296.991c.066.376.104.757.114 1.139.01.415-.009.829-.057 1.241a2.56 2.56 0 0 1-.103.717 5.31 5.31 0 0 1-.342 1.139l-.216.421.137.262c.057.166.057.346 0 .512a1.14 1.14 0 0 1-.308.558.82.82 0 0 1-.581.285.73.73 0 0 1-.387-.159 3.06 3.06 0 0 0-1.013-.478 1.63 1.63 0 0 0-.569-.068l.205.08a6.46 6.46 0 0 1 .888.444.41.41 0 0 1 .182.25c.007.029.008.059.003.089s-.016.058-.032.083-.037.047-.061.065-.052.03-.081.036c-.138.026-.281-.003-.399-.08l-.342-.228.137.182a1.97 1.97 0 0 1 .387.809c.058.21.049.433-.026.638s-.214.38-.395.501h-.08l.057-.125a.67.67 0 0 0-.273-.786l-.205-.148a1.32 1.32 0 0 1 .216.831c-.044.287-.162.558-.342.786h.125a2.28 2.28 0 0 0 .934-.387 1.22 1.22 0 0 0 .478-.729c.04-.191.04-.389 0-.581v-.125c0-.034.068 0 .103-.057.08-.033.15-.086.204-.154s.089-.148.104-.233h.068.262a1.22 1.22 0 0 0 1.139-.66 1.41 1.41 0 0 0 .205-.706c.014-.197-.013-.395-.08-.581-.005-.023-.005-.046 0-.068.191-.333.329-.694.41-1.07.057-.216.091-.444.137-.66a7.07 7.07 0 0 0 .08-1.549c-.015-.221-.041-.442-.08-.66-.006-.012-.009-.026-.009-.04s.003-.027.009-.04a3.89 3.89 0 0 0 .307-.74c.102-.343.137-.703.103-1.059-.055-.627-.353-1.208-.831-1.617-.249-.21-.53-.379-.831-.501.062.231.062.475 0 .706-.245-.508-.585-.964-1.002-1.344-.38-.375-.833-.666-1.332-.854a.91.91 0 0 1 .159.615l-.262-.137a2.89 2.89 0 0 0-1.139-.49 3.21 3.21 0 0 0-.934 0c-.045.005-.09-.007-.127-.032s-.065-.062-.078-.105a4.8 4.8 0 0 0-.592-.683L5.978.296c1.156-.33 2.372-.385 3.553-.159 1.028.2 2.004.606 2.871 1.193s1.606 1.343 2.173 2.223a7.97 7.97 0 0 1-.753 9.898 7.97 7.97 0 0 1-9.815 1.489c.362-.296.676-.646.934-1.036zM7.709 2.061a3.35 3.35 0 0 0-1.139.569c-.464.341-.781.846-.888 1.412-.085.336-.085.689 0 1.025.112.373.33.705.626.957.319.287.715.473 1.139.535a2.56 2.56 0 0 0 .66 0c.23-.015.457-.065.672-.148.209-.069.398-.188.551-.347s.265-.352.326-.564a1.07 1.07 0 0 0 0-.729c-.061-.128-.158-.236-.279-.309s-.262-.108-.404-.101a1.14 1.14 0 0 0-.467.159l-.285.159h.41a.67.67 0 0 1 .467.182c.096.106.161.236.189.377a.8.8 0 0 1-.03.42c-.048.207-.17.389-.342.512a1.31 1.31 0 0 1-.729.251c-.287.032-.577-.023-.831-.159a1.8 1.8 0 0 1-.717-.683c-.18-.291-.297-.617-.342-.957-.051-.294-.051-.594 0-.888.103-.436.333-.832.66-1.139l.33-.273a2.2 2.2 0 0 0-.467 1.617 1.22 1.22 0 0 0 .091.581c.084.143.201.264.342.351s.301.139.467.15c.215.034.434.034.649 0h-.102a1.14 1.14 0 0 1-.968-.717c-.128-.289-.172-.609-.125-.922.018-.404.139-.796.353-1.139 0-.08.125-.159.182-.251v.068zM6.821 12.97a.98.98 0 0 1 .399.182.68.68 0 0 1 .237.254c.056.104.084.22.082.338a1.14 1.14 0 0 1-.205.569c-.176.24-.396.445-.649.603l.581.08c.288.026.578-.005.854-.091a1.14 1.14 0 0 0 .615-.467l.103-.228a1.14 1.14 0 0 1-.501.387c-.103.034-.211.046-.319.036s-.212-.041-.307-.093l.251-.137c.111-.121.189-.268.227-.427s.034-.326-.011-.484a.74.74 0 0 0-.433-.467 1.54 1.54 0 0 0-.922-.057zM2.687 8.848l-.433.433c-.247.257-.41.582-.467.934-.028.189-.028.381 0 .569a1.72 1.72 0 0 0 .285.66 1.47 1.47 0 0 0 1.002.649.57.57 0 0 0 .239 0 1.72 1.72 0 0 1-.66-.649c-.163-.29-.26-.613-.285-.945a3.13 3.13 0 0 1 0-.979c.046-.241.135-.473.262-.683l.057.011zM5.432 7.8h-.08a1.25 1.25 0 0 1-.501-.444c-.069-.096-.115-.206-.135-.323s-.013-.236.021-.349c.009-.051.031-.098.066-.136s.079-.066.128-.08c.045-.02.093-.03.142-.03s.098.01.142.03l.216.148a1.63 1.63 0 0 0 1.218.376h.307a2.05 2.05 0 0 1-.922-.33l-.569-.421c-.102-.093-.223-.163-.355-.204s-.271-.053-.408-.035a.56.56 0 0 0-.342.159c-.122.131-.195.3-.205.478a.9.9 0 0 0 .342.808 1.64 1.64 0 0 0 .706.342h.228V7.8zm.285 4.555a.74.74 0 0 1-.854-.308c-.114-.169-.156-.377-.118-.577s.154-.378.323-.493h-.148a.89.89 0 0 0-.638.706.75.75 0 0 0 .216.695c.105.1.231.175.369.218s.285.054.428.032h.08a.49.49 0 0 0 0 .182c.028.114.094.216.187.288s.208.111.325.11a1.14 1.14 0 0 0 .478-.102h.114a1 1 0 0 1-.501-.137c-.095-.057-.169-.143-.212-.246s-.052-.216-.027-.324c-.006-.03-.006-.061 0-.091l-.023.046zM9.884 7.8a.4.4 0 0 1-.41.137l-.376-.228c-.241-.096-.51-.096-.752 0-.111.031-.213.09-.296.171h.216a2.46 2.46 0 0 1 .455.057c.04.013.074.039.097.074s.033.077.028.119c-.01.11.022.22.091.307.056.057.126.098.202.12s.158.023.235.003.148-.059.205-.115.099-.125.121-.202h.114a.41.41 0 0 0 .262.251c.198.076.404.126.615.148H11l-.535-.216a.99.99 0 0 1-.592-.581l.011-.046zm1.492 4.031l-.319-.262a.99.99 0 0 0-.262-.228c-.034-.023-.075-.034-.116-.031s-.08.02-.11.047-.05.065-.057.105.001.082.021.118l.125.171a.33.33 0 0 0 .251.114h.467v-.034zm-.33-.752c-.05-.115-.13-.214-.233-.286s-.223-.115-.348-.123c-.068-.005-.136.006-.2.031s-.12.066-.165.117a.57.57 0 0 0-.08.49v.194a1.26 1.26 0 0 0 0-.182v-.171c.033-.087.095-.16.177-.206a.4.4 0 0 1 .267-.045 1.14 1.14 0 0 1 .421.182h.159z" fill="#1971bd"/></g><defs><clipPath id="A"><path fill="#fff" d="M0 0h16v16H0z"/></clipPath></defs></svg>