<svg xmlns="http://www.w3.org/2000/svg" width="16" height="16" fill="none" xmlns:v="https://vecta.io/nano"><g clip-path="url(#A)"><path d="M10.527 8.18c.114.571.457 1.143 1.028 1.6-.114 0-.229.114-.457.114-.457.114-.914.114-1.485.114-.686 0-1.372-.114-1.943-.457-.686-.343-1.143-.914-1.485-1.486s-.572-1.257-.686-1.943c0-.229-.114-.343-.114-.571v-.114c0 .114 0 .229.114.343l.343 1.714c.114.457.343.914.686 1.257.343.457.572 1.029.686 1.6 0 .229.114.457.114.571-.114 0-.343-.114-.457-.114-.457-.114-.914-.229-1.372-.457-.229-.114-.343-.114-.571-.229 0 0-.114 0-.114-.114 0-.343-.114-.8-.114-1.143-.114-.686-.114-1.486-.114-2.171 0-.343 0-.686.114-1.029v.114c-.114.343-.114.8-.114 1.143 0 .571-.114 1.029 0 1.6 0 .457 0 .914.114 1.371v.114c-.114-.114-.228-.114-.343-.229-.343-.114-.685-.343-.914-.457 0 0-.114 0-.114-.114 0-.457-.114-1.029 0-1.486 0-.571.114-1.029.228-1.6v-.114c0-.114 0 0 0 0-.343 1.029-.457 2.057-.457 3.086l-.114-.114c-.343-.229-.686-.457-1.028-.8l-.114-.114c0-.686 0-1.371.229-2.057-.114.114-.115.229-.229.457 0 .114-.114.343-.114.457s-.114.343-.114.457 0 .343-.114.457c-.114-.114-.229-.229-.229-.457-.229-.457-.343-.914-.457-1.371-.114-1.029.114-2.171.571-3.086.343-.686.914-1.257 1.6-1.714S4.355.523 5.041.294C5.384.18 5.841.18 6.184.18c.457 0 .914.114 1.371.229h.114C7.327.18 6.984.066 6.527-.049h.229c.457 0 .8-.114 1.257-.114h1.257c.457 0 .915.114 1.372.229.8.114 1.486.457 2.057 1.029.571.457 1.029 1.143 1.257 1.829.114.457.114.914 0 1.257-.114.229-.114.457-.114.686 0 .114 0 .229.114.343-.343-.114-.8-.114-1.143.114-.457.229-.8.457-1.143.8.114-.114.229-.229.343-.229.343-.229.8-.343 1.143-.457s.686 0 1.028.229c0 0 0 0 .114.114s.114.229.228.343a1.73 1.73 0 0 0-1.485.343c-.114.114-.343.229-.457.343h.114c.343-.229.8-.343 1.257-.457h.8s.114 0 .114.114c.114.114.228.343.228.457v.114c-.686 0-1.257.229-1.714.571a1.93 1.93 0 0 1 1.143-.343h.686c.114.229.228.571.343.8-.457 0-1.028.114-1.485.457.343-.114.8-.229 1.143-.229.229 0 .228 0 .343.229 0 .229.114.343.114.571-.457 0-.8.114-1.257.457.114 0 .114 0 .229-.114.343-.114.571-.114.914-.114h.114c0 .229 0 .571.114.8-.229 0-.572 0-.8.114-.114 0-.228.114-.343.114h.229.8v.686h-.914c.343 0 .571 0 .8.114 0 .229-.114.571-.114.8h-.686l.686.114c-.114.229-.114.457-.114.8h-.343l.343.114c-.114.229-.114.343-.229.571 0 .114 0 .114-.114.114s.001 0-.114 0h-.229l.229.114c0 .114-.114.229-.114.229-.343.571-.915 1.029-1.486 1.371-.343.229-.8.343-1.257.229-.572 0-1.143-.343-1.601-.686-.229-.229-.343-.571-.343-.8 0-.686 0-1.371.343-1.943.114-.229.229-.457.229-.8v-.457c0-.229 0-.229.229-.229s.457 0 .571.114c.229 0 .457 0 .685-.114h.114c.114 0 .114 0 .114.114v.229l-.343.686c-.229.343-.343.8-.458 1.143-.114.229 0 .571 0 .8 0 .114.115.229.229.343v.114c-.114.114-.228.229-.457.343 0 0-.114 0-.114.114h.114c.343-.114.685-.343.914-.686s.343-.686.457-1.143.114-.8.114-1.257-.114-.914-.343-1.371a1.38 1.38 0 0 0-.571-.571c-.457-.229-.8-.571-1.143-1.029-.114 0-.229-.114-.229-.343zM7.212 4.066l.343.343a.35.35 0 0 0 .458 0v-.114c0-.114-.114-.229-.114-.229-.229 0-.457-.114-.686 0z" fill="#1971bd"/></g><defs><clipPath id="A"><path fill="#fff" d="M0 0h16v16H0z"/></clipPath></defs></svg>