<svg xmlns="http://www.w3.org/2000/svg" width="16" height="16" fill="none" xmlns:v="https://vecta.io/nano"><g clip-path="url(#A)" fill="#1971bd"><path d="M9.029 15.996c-.103.011-.207.011-.31 0-.259-.066-.499-.194-.698-.372s-.354-.401-.45-.651a4.42 4.42 0 0 1-.391-1.665v-1.149a2.87 2.87 0 0 1-2.676-.368c-.263.201-.587.305-.918.295s-.648-.135-.897-.352c-.333-.287-.61-.634-.816-1.022-.42-.75-.759-1.544-1.011-2.366C.533 7.301.276 6.234.093 5.153c-.16-.879-.113-1.784.138-2.642A3.03 3.03 0 0 1 2.735.294c.735-.149 1.493-.149 2.228 0l1.149.287c.034.011.07.011.103 0C6.817.27 7.491.127 8.168.168L9.19.26h.126A6.5 6.5 0 0 1 12.05.065c1.184.159 2.259.773 2.998 1.711.221.306.352.668.379 1.045a6.26 6.26 0 0 1-.138 1.907 14.83 14.83 0 0 1-1.665 4.296v.115l.643-.103a1.4 1.4 0 0 1 .689 0c.117.03.226.086.319.164s.167.175.218.285.076.23.075.351-.03.24-.083.349c-.116.229-.285.426-.494.574-.512.404-1.131.652-1.78.712h-.781c-.005.084-.005.168 0 .253a8.78 8.78 0 0 1-.195 1.815 3.63 3.63 0 0 1-.747 1.459 2.4 2.4 0 0 1-1.309.838c-.253.069-.505.103-.758.149h-.391v.011zm-1.505-4.882v.115a21.17 21.17 0 0 0 .08 2.412 2.55 2.55 0 0 0 .276 1.011c.126.277.332.508.593.664s.563.229.866.209a2.93 2.93 0 0 0 1.286-.333 1.55 1.55 0 0 0 .758-.816 2.74 2.74 0 0 0 .172-.517l.31-2.182c0-.241.058-.494.092-.735h.31a4.01 4.01 0 0 0 1.045 0c.547-.084 1.056-.333 1.459-.712.097-.091.175-.201.23-.322a.31.31 0 0 0-.01-.279.31.31 0 0 0-.231-.157.76.76 0 0 0-.23 0l-.586.103c-.308.052-.622.052-.93 0l-.253-.08.092-.149c.925-1.457 1.582-3.067 1.941-4.755a5.51 5.51 0 0 0 .138-1.711c-.007-.294-.103-.578-.276-.816A3.94 3.94 0 0 0 12.751.719a5.57 5.57 0 0 0-3.446 0c-.037.012-.077.012-.115 0-.323-.055-.649-.082-.976-.08a3.33 3.33 0 0 0-1.953.505c-.016.009-.034.014-.052.014s-.036-.005-.052-.014A8.9 8.9 0 0 0 4.423.719a4.95 4.95 0 0 0-1.746.057c-.431.089-.833.286-1.167.573s-.588.655-.74 1.069C.525 3.115.442 3.858.53 4.59c0 .379.115.77.184 1.149.229 1.195.564 2.367.999 3.503.195.522.449 1.019.758 1.482a2.1 2.1 0 0 0 .528.528c.155.117.345.181.54.181s.384-.063.54-.181c.129-.096.244-.208.345-.333l1.149-1.321c.016-.013.037-.02.057-.02s.041.007.057.02a1.62 1.62 0 0 0 .563.184h.264l-.253.31a.62.62 0 0 1-.345.241c-.172 0-.356.08-.528.138-.163.038-.321.096-.471.172-.057.032-.105.078-.139.135s-.051.121-.051.187.018.13.051.187.081.103.139.135c.079.072.163.137.253.195a2.48 2.48 0 0 0 .77.161c.534.052 1.066-.109 1.482-.448l.103-.08z"/><path d="M12.291 4.177h-.62a2.78 2.78 0 0 0-.517.115c-.238.074-.443.23-.578.44s-.19.461-.157.709c.019.403.108.8.264 1.172a12.42 12.42 0 0 0 .655 1.424l.333.632a3.02 3.02 0 0 0 .448.678 1.17 1.17 0 0 1 .092.126c-.174.044-.329.144-.439.286s-.17.316-.17.495c-.069 1.149-.23 2.24-.39 3.365a3.51 3.51 0 0 1-.115.471 1.24 1.24 0 0 1-.884.861c-.226.081-.462.135-.701.161a1.07 1.07 0 0 1-1.149-.609c-.17-.281-.279-.594-.322-.919-.08-.999-.08-1.998-.069-2.998a1.79 1.79 0 0 0 0-.494c-.03-.167-.111-.319-.233-.437s-.277-.194-.445-.218c-.084-.012-.169-.012-.253 0v-.138l.448-1.149a3.71 3.71 0 0 0 .264-1.895 8.04 8.04 0 0 0-.149-1.034 1.15 1.15 0 0 0-.455-.766 1.15 1.15 0 0 0-.866-.21c-.402.045-.792.166-1.149.356h-.103c0-.161 0-.299.057-.448a4.95 4.95 0 0 1 .528-1.665 2.63 2.63 0 0 1 1.275-1.16 2.95 2.95 0 0 1 1.275-.184c.769.021 1.519.244 2.175.648s1.193.972 1.558 1.65c.149.241.253.517.379.77 0-.069.011-.057.011-.034z"/><path d="M5.813 1.5a3.48 3.48 0 0 0-.586.793 5.58 5.58 0 0 0-.632 1.734 7.88 7.88 0 0 0 0 1.803 10.29 10.29 0 0 1-.069 1.447c-.039.349.003.703.123 1.033a2.31 2.31 0 0 0 .566.873v.057l-.218.23-1.011 1.149a1.15 1.15 0 0 1-.253.218.45.45 0 0 1-.505 0 1.4 1.4 0 0 1-.402-.379c-.273-.384-.497-.801-.666-1.24a18.85 18.85 0 0 1-.965-3.182l-.207-1.39c-.097-.651-.042-1.315.161-1.941a2.16 2.16 0 0 1 1.734-1.562 4.61 4.61 0 0 1 1.436 0 8.92 8.92 0 0 1 1.424.333l.069.023zm6.685 7.535c-.069 0-.08-.092 0-.172a2.39 2.39 0 0 0 .299-1.321c0-.333 0-.655-.08-.988a4.6 4.6 0 0 1 0-1.149 8.87 8.87 0 0 0 .08-.953c-.003-.135-.034-.268-.092-.391-.22-.648-.567-1.246-1.021-1.759a5.17 5.17 0 0 0-1.621-1.228l-.069-.046.551-.08a5.02 5.02 0 0 1 1.757.092 3.56 3.56 0 0 1 1.999 1.252 1.01 1.01 0 0 1 .195.574 5.1 5.1 0 0 1-.138 1.723 14.08 14.08 0 0 1-1.838 4.468l-.023-.023z"/><path d="M5.032 5.991v-.724c-.013-.016-.02-.037-.02-.057s.007-.041.02-.057a2.72 2.72 0 0 1 1.275-.459 1.15 1.15 0 0 1 .345 0 .64.64 0 0 1 .331.193.65.65 0 0 1 .163.347 5.87 5.87 0 0 1 .184 1.654 3.18 3.18 0 0 1-.276 1.149 7.07 7.07 0 0 0-.459 1.218c0 .057 0 0-.08 0a1.53 1.53 0 0 1-1.022-.448 1.91 1.91 0 0 1-.552-1.608c0-.425.069-.85.103-1.275l-.011.069zm1.447-1.068h-.241c-.019.006-.037.016-.052.03a.14.14 0 0 0-.034.049c-.008.019-.011.039-.01.059s.006.04.016.058a.43.43 0 0 0 .106.205c.053.057.121.1.196.122a.44.44 0 0 0 .231.005c.076-.019.146-.059.201-.114.115-.115.092-.241 0-.299-.135-.049-.273-.088-.413-.115zm5.881-.264a5.87 5.87 0 0 1-.08.62 5.19 5.19 0 0 0 0 1.574 3.45 3.45 0 0 1 0 1.149c0 .161-.092.322-.138.505l-.735-1.401c-.231-.43-.401-.89-.505-1.367a1.32 1.32 0 0 1 0-.563c.018-.145.084-.28.188-.382s.24-.166.386-.181a2.48 2.48 0 0 1 .873 0l.012.046zm-.816.632c.077-.004.152-.029.216-.071s.117-.101.151-.17c.057-.092 0-.161-.069-.195-.098-.031-.202-.039-.304-.023a.66.66 0 0 0-.282.115c-.017.009-.031.022-.041.038s-.015.035-.015.054.005.038.015.054.024.029.041.038a.38.38 0 0 0 .287.161zm-6.317 5.674l.448-.103.471-.138c.199-.073.369-.211.482-.39l.322-.391c.103-.138.31-.149.459 0a.4.4 0 0 1 .121.287c0 .054-.011.106-.031.156a.38.38 0 0 1-.089.131c-.185.231-.428.409-.705.514a1.66 1.66 0 0 1-.868.084 3.61 3.61 0 0 1-.482-.103l-.138-.069.011.023zm9.2-1.011l-.103.08a2.5 2.5 0 0 1-1.287.494 2.57 2.57 0 0 1-.838 0c-.207 0-.218 0-.207-.253-.002-.06.009-.119.031-.175a.46.46 0 0 1 .096-.149c.041-.043.092-.077.147-.1a.45.45 0 0 1 .174-.035 1.48 1.48 0 0 0 .953.23l1.034-.092z"/></g><defs><clipPath id="A"><path fill="#fff" d="M0 0h16v16H0z"/></clipPath></defs></svg>