<svg xmlns="http://www.w3.org/2000/svg" width="16" height="16" fill="none" xmlns:v="https://vecta.io/nano"><g clip-path="url(#A)" fill="#1971bd"><path d="M8.007 16.057h-.631l-.7-.092c-.229 0-.447-.115-.677-.149h-.149-.378a2.8 2.8 0 0 1-.287 0c-.044-.012-.084-.035-.115-.069l-.138-.149-.252-.298h-.08-.103c-.398-.198-.782-.424-1.147-.677a8.02 8.02 0 0 1-.998-.883c-.264-.275-.482-.596-.734-.883l-.138-.241-.218-.149s-.138-.172-.241-.172c-.028-.016-.051-.04-.068-.068s-.024-.06-.024-.093v-.528a.7.7 0 0 0 0-.207C.527 10.52.275 9.578.185 8.614v-.952a.32.32 0 0 0 0-.149c-.018-.093-.04-.185-.069-.275 0-.172-.206-.401-.069-.562.107-.128.206-.262.298-.401.01-.034.01-.07 0-.103a1.63 1.63 0 0 0 0-.184c.246-.864.634-1.682 1.147-2.42.229-.333.493-.608.746-.918a3.13 3.13 0 0 0 .287-.631c0-.08.161-.092.241-.103l.401-.092.195-.138.31-.206C4.569.917 5.572.546 6.619.39c.161 0 .333 0 .493-.069h.218s.149-.057.195-.057L8.007 0s.08 0 .115.057.31.172.47.241c.045.012.093.012.138 0 .222.005.441.04.654.103.218 0 .447.092.665.161.441.124.871.286 1.285.482.444.202.867.448 1.262.734v.057h.08a2.99 2.99 0 0 0 .31.069c.076.005.153.005.229 0 .024.013.044.033.057.057l.092.229.115.275.069.149c0 .092.149.161.206.241s.149.172.218.252l.402.551c.249.364.468.747.654 1.147a6.57 6.57 0 0 1 .424 1.239.63.63 0 0 0 .138.218 4.45 4.45 0 0 1 .264.379c.009.018.014.037.014.057s-.005.04-.014.057v.126a2.5 2.5 0 0 1-.138.413.54.54 0 0 0 0 .298 11.99 11.99 0 0 1 0 1.434c-.06.478-.159.95-.298 1.411-.103.333-.241.642-.367.952-.01.041-.01.085 0 .126v.516c-.002.047-.015.092-.039.133s-.058.073-.099.097a1.49 1.49 0 0 0-.356.241c-.083.039-.151.103-.195.184l-.206.264-.436.505a7.33 7.33 0 0 1-.998.895 8.87 8.87 0 0 1-1.067.688l-.115.057c-.171.131-.318.29-.436.47-.034.008-.069.008-.103 0-.263-.023-.528-.023-.791 0l-.447.092-.883.138a5.93 5.93 0 0 1-.872.264zm-1.847-1.48h.08c.493 0 .952.195 1.445.218.617.025 1.235-.036 1.835-.184a1.15 1.15 0 0 1 .344-.057h.573c.026.009.054.009.08 0l.206-.241a1.15 1.15 0 0 1 .207-.207 9.93 9.93 0 0 0 1.296-.883 6.5 6.5 0 0 0 .585-.539c.08-.08.378-.562.482-.562s.126-.206.241-.241a.88.88 0 0 0 .333-.218c.126-.126.08-.333.092-.493v-.115a.86.86 0 0 1 .126-.321 7.44 7.44 0 0 0 .528-2.833c-.012-.107-.012-.214 0-.321.035-.163.081-.324.138-.482.01-.03.01-.062 0-.092a1.61 1.61 0 0 0-.252-.367 1.42 1.42 0 0 1-.229-.562 4.28 4.28 0 0 0-.229-.642c-.187-.404-.414-.788-.677-1.147-.172-.241-.402-.459-.574-.711-.095-.175-.172-.36-.229-.551a.08.08 0 0 0-.057 0h-.241l-.241-.057h-.069c-.45-.311-.926-.583-1.422-.814-.596-.262-1.232-.421-1.881-.47h-.138s-.092-.057-.149-.08l-.206-.344c-.046-.043-.096-.081-.149-.115l-.436.229a2.7 2.7 0 0 1-.424.057 3.57 3.57 0 0 0-.505.08 6.56 6.56 0 0 0-.986.287 7.1 7.1 0 0 0-1.629.895c-.068.017-.139.017-.206 0h-.218c-.052.008-.099.035-.132.075s-.052.091-.051.143c-.103.161-.115.367-.241.528-.303.367-.586.75-.849 1.147-.238.359-.434.744-.585 1.147-.085.218-.157.44-.218.665a.23.23 0 0 1 0 .092l-.31.39c-.025.031-.039.069-.039.109s.014.078.039.109a1.97 1.97 0 0 1 .08.241l.069.252v.688a5.14 5.14 0 0 0 .057.734c.081.599.239 1.185.47 1.743.057.095.092.2.103.31.005.076.005.153 0 .229v.229c-.004.027.001.055.013.079s.032.045.055.058c.111.062.218.131.321.206a1.74 1.74 0 0 1 .378.39 6.24 6.24 0 0 0 1.434 1.365l.459.298a3.45 3.45 0 0 0 .459.241h.069l.069.092.206.229c.033.012.07.012.103 0h.275c.111.013.22.044.321.092z"/><path opacity=".3" d="M12.664 7.604c-.295-.678-.781-1.256-1.399-1.663-.679-.46-1.474-.718-2.294-.745a4.44 4.44 0 0 0-1.227.149c-.198.051-.393.112-.585.184a4.28 4.28 0 0 1-.562.206c-.019.011-.041.017-.063.017s-.044-.006-.063-.017c-.138-.115 0-.401 0-.539a1.32 1.32 0 0 1 .39-.482c.582-.392 1.243-.654 1.936-.767s1.402-.074 2.079.113l.356.08a.7.7 0 0 0-.161-.08 5.94 5.94 0 0 0-3.257-.092c-.657.157-1.269.461-1.79.891s-.937.972-1.215 1.587a3.03 3.03 0 0 0 .195 2.294 3.74 3.74 0 0 0 2.294 1.881l.321.08c.016.005.031.014.043.026s.021.027.026.043v.069c-.373.233-.799.368-1.238.392s-.877-.064-1.274-.255A4.93 4.93 0 0 1 3.42 9.474c-.309-.367-.532-.798-.654-1.262a8.66 8.66 0 0 1 0-2.374 6.01 6.01 0 0 0-.172 1.629c.082.817.357 1.604.803 2.294a4.59 4.59 0 0 0 5.551 1.824c.746-.334 1.383-.87 1.841-1.547a4.39 4.39 0 0 0 .751-2.284.49.49 0 0 1 0-.115h.103a2.64 2.64 0 0 1 .654 2.523 4.52 4.52 0 0 1-1.319 2.294l-.092.161c.017.011.037.017.057.017s.04-.006.057-.017a3.62 3.62 0 0 0 .333-.252 4.38 4.38 0 0 0 1.399-4.588l-.069-.172z"/><path d="M10.301 7.822c-.155-.381-.445-.691-.814-.872-.3-.144-.631-.211-.963-.195-.176.022-.35.064-.516.126-.149 0-.275.138-.413.172-.115-.115 0-.333.138-.413.127-.116.275-.205.436-.264.251-.089.514-.139.78-.149.141-.017.283-.017.424 0 .118.017.238.017.356 0-.026-.006-.054-.006-.08 0-.387-.132-.801-.162-1.202-.087s-.777.25-1.092.512a1.65 1.65 0 0 0-.493.642c-.053.17-.073.348-.057.525s.066.349.149.507a1.65 1.65 0 0 0 1.055.849h.149l-.149.138c-.149.068-.312.103-.476.103s-.327-.035-.476-.103a1.95 1.95 0 0 1-.688-.493c-.165-.16-.298-.351-.39-.562-.126-.408-.162-.839-.103-1.262 0 .252-.08.47-.069.723a1.85 1.85 0 0 0 .126.596 2.17 2.17 0 0 0 .7.963c.222.172.477.298.749.369s.556.086.834.044a1.94 1.94 0 0 0 1.502-1.25 1.57 1.57 0 0 0 .103-.562c.129.131.224.291.278.467s.065.362.032.542a1.94 1.94 0 0 1-.596 1.147l-.057.069.149-.115c.303-.219.535-.52.67-.868s.165-.728.088-1.093l-.08-.206z"/></g><defs><clipPath id="A"><path fill="#fff" d="M0 0h16v16H0z"/></clipPath></defs></svg>