<svg xmlns="http://www.w3.org/2000/svg" width="16" height="16" fill="none" xmlns:v="https://vecta.io/nano"><g clip-path="url(#A)" fill="#1971bd"><path d="M15.987 4.396v.971c.008.069-.007.139-.045.197a.3.3 0 0 1-.161.123L9.136 8.312l-1.028.4a.38.38 0 0 1-.274 0L.196 5.675c-.061-.016-.115-.054-.151-.106s-.051-.116-.044-.179V3.38a.27.27 0 0 1 .047-.187c.038-.055.094-.094.159-.11L7.823.034C7.877.012 7.936 0 7.994 0s.117.012.171.034l7.593 3.037c.041.009.08.027.114.052a.3.3 0 0 1 .084.093c.021.037.035.077.04.119a.31.31 0 0 1-.01.125v.982-.046zM3.895 2.626a5.79 5.79 0 0 0-.639 0c-.334.025-.655.144-.925.343a.38.38 0 0 0-.13.137c-.031.056-.047.119-.047.183s.016.127.047.183a.38.38 0 0 0 .13.137 2.08 2.08 0 0 0 .491.274 3.78 3.78 0 0 0 2.284.069 1.64 1.64 0 0 0 .582-.297.34.34 0 0 0 .119-.125c.028-.051.043-.108.043-.167s-.015-.116-.043-.167a.34.34 0 0 0-.119-.125 1.14 1.14 0 0 0-.377-.24 3.54 3.54 0 0 0-1.416-.206zm9.968.742h-.091l-2.09-.834a.28.28 0 0 0-.194 0l-1.77.696-.137.08.091.057 2.101.856a.32.32 0 0 0 .206 0l1.724-.765.16-.091zM9.33 1.176l-1.336.217c-.112.029-.23.029-.343 0L6.636.982h-.171l.343.685-1.507.297h.114l1.439.126c.049-.003.098.01.139.036s.073.066.09.112l.285.582.651-.537a.4.4 0 0 1 .251-.091l1.142.091h.457v-.034l-1.256-.491.719-.582zM8.326 5.972l.811-1.599-3.722.377 2.912 1.222zM.002 10.47l3.619 1.439L7.8 13.576a.48.48 0 0 0 .377 0l7.559-3.014.251-.091v.16 1.975c.01.069-.007.14-.047.197s-.101.097-.17.111l-7.616 3.014a.43.43 0 0 1-.166.034c-.057 0-.113-.011-.166-.034L.208 12.914a.3.3 0 0 1-.161-.123c-.038-.059-.053-.128-.045-.197V10.63v-.16zm0-3.585l3.985 1.53L7.8 9.934c.061.028.127.043.194.043s.133-.015.194-.043l7.524-2.992.274-.057v.137 2.01c.008.063-.008.127-.043.179a.26.26 0 0 1-.151.106l-7.639 2.969a.43.43 0 0 1-.166.034c-.057 0-.113-.011-.166-.034L.196 9.26c-.06-.018-.112-.056-.148-.108s-.052-.114-.046-.177v-2.01-.08z"/></g><defs><clipPath id="A"><path fill="#fff" d="M0 0h16v16H0z"/></clipPath></defs></svg>