<svg xmlns="http://www.w3.org/2000/svg" width="143" height="46" fill="none" xmlns:v="https://vecta.io/nano"><g clip-path="url(#A)"><g fill="#00a651"><path d="M6.779 40.971c-.086.91-.422 1.621-1.008 2.133s-1.365.762-2.338.762c-.68 0-1.279-.16-1.799-.48S.72 42.603.439 42.009.012 40.725 0 39.94v-.797c0-.805.143-1.514.428-2.127s.693-1.086 1.225-1.418 1.152-.498 1.852-.498c.941 0 1.699.256 2.273.768s.908 1.234 1.002 2.168H5.303c-.07-.613-.25-1.055-.539-1.324s-.705-.41-1.26-.41c-.645 0-1.141.236-1.488.709s-.52 1.158-.527 2.068v.756c0 .922.164 1.625.492 2.109s.816.727 1.453.727c.582 0 1.02-.131 1.312-.393s.479-.697.557-1.307H6.78zm11.006-.451c0-.621.123-1.18.369-1.676s.592-.883 1.037-1.148.957-.404 1.535-.404c.855 0 1.549.275 2.08.826s.824 1.281.867 2.191l.006.334c0 .625-.121 1.184-.363 1.676a2.64 2.64 0 0 1-1.031 1.143c-.445.27-.961.404-1.547.404-.895 0-1.611-.297-2.15-.891s-.803-1.393-.803-2.385v-.07zm1.424.123c0 .652.135 1.164.404 1.535s.645.551 1.125.551a1.29 1.29 0 0 0 1.119-.562c.27-.375.404-.924.404-1.646 0-.641-.139-1.148-.416-1.523a1.31 1.31 0 0 0-1.119-.562 1.3 1.3 0 0 0-1.107.557c-.273.371-.41.918-.41 1.652zm17.094-3.235l.041.662c.445-.52 1.055-.779 1.828-.779.848 0 1.428.324 1.74.973.461-.648 1.109-.973 1.945-.973.699 0 1.219.193 1.559.58s.52.957.527 1.711v4.166h-1.424v-4.125c0-.402-.088-.697-.264-.885s-.467-.281-.873-.281c-.324 0-.59.088-.797.264s-.346.398-.428.68l.006 4.348H38.74v-4.172c-.02-.746-.4-1.119-1.143-1.119-.57 0-.975.233-1.213.697v4.594H34.96v-6.34h1.342zm20.521 0l.041.662c.445-.52 1.055-.779 1.828-.779.848 0 1.428.324 1.74.973.461-.648 1.109-.973 1.945-.973.699 0 1.219.193 1.559.58s.52.957.527 1.711v4.166H63.04v-4.125c0-.402-.088-.697-.264-.885s-.467-.281-.873-.281c-.324 0-.59.088-.797.264s-.346.398-.428.68l.006 4.348H59.26v-4.172c-.02-.746-.4-1.119-1.143-1.119-.57 0-.975.233-1.213.697v4.594H55.48v-6.34h1.342zm23.023 5.719c-.418.492-1.012.738-1.781.738-.687 0-1.209-.201-1.565-.604s-.527-.984-.527-1.746v-4.107h1.424v4.09c0 .805.334 1.207 1.002 1.207.691 0 1.158-.248 1.4-.744v-4.553h1.424v6.34h-1.342l-.035-.621zm14.229-5.719l.041.732c.469-.566 1.084-.85 1.846-.85 1.32 0 1.992.756 2.016 2.268v4.189h-1.424V39.64c0-.402-.088-.699-.264-.891s-.455-.293-.85-.293c-.574 0-1.002.26-1.283.779v4.512h-1.424v-6.34h1.342zm16.953 6.34h-1.424v-6.34h1.424v6.34zm-1.512-7.986a.76.76 0 0 1 .205-.545c.141-.145.34-.217.598-.217s.457.072.597.217.211.326.211.545a.74.74 0 0 1-.211.539c-.14.141-.339.211-.597.211s-.457-.07-.598-.211a.73.73 0 0 1-.205-.539zm14.932.105v1.541h1.119v1.055h-1.119v3.539c0 .242.047.418.14.527s.27.158.516.158a2.19 2.19 0 0 0 .498-.059v1.102a3.51 3.51 0 0 1-.938.135c-1.093 0-1.64-.604-1.64-1.811v-3.592h-1.043v-1.055h1.043v-1.541h1.424zm14.509 5.842l1.289-4.301h1.518l-2.52 7.301c-.386 1.066-1.043 1.6-1.968 1.6-.207 0-.436-.035-.686-.105v-1.102l.27.018c.359 0 .629-.066.808-.199s.328-.348.434-.656l.205-.545-2.227-6.311h1.536l1.341 4.301z"/></g><g fill="#7272e9"><path d="M27.027 6.665v16.869l-13.241 5.624V21.72l7.437-3.083V9.024l5.805-2.358z"/><path d="M13.786.862l13.241 5.803-5.805 2.358-7.437-3.264-7.437 3.264L.725 6.665 13.786.862z"/><path d="M13.786 21.72v7.438L.725 23.534V6.665l5.624 2.358v9.613l7.437 3.083z"/></g><path d="M27.934 6.666v-.182-.182l-.182-.181L14.148.136C14.048.048 13.919 0 13.786 0s-.262.048-.363.136L.182 5.759 0 5.94v.182.181 16.869a1 1 0 0 0 .142.531 1 1 0 0 0 .402.376l13.059 5.624h1.086l13.059-5.624c.166-.085.306-.215.402-.375s.145-.345.141-.532l-.363-16.505h.006zM13.786 1.95l10.702 4.717-3.265 1.45-7.074-3.084c-.101-.087-.229-.136-.363-.136s-.262.048-.363.136L6.349 7.936h-.182l-3.084-1.27L13.786 1.95zm-.907 25.757L1.632 22.804V7.936l3.81 1.629v8.893c-.004.187.045.371.141.532s.235.29.402.375l6.894 2.895v5.446zm.907-6.892l-6.53-2.716V9.75l6.53-2.903 6.53 2.903v8.344l-6.53 2.721zm12.154 1.989l-11.246 4.898v-5.255l6.892-2.901c.167-.085.306-.215.402-.375s.145-.345.141-.532v-9.07l3.81-1.629.001 14.865z" fill="#4949a3"/><g fill="#fff"><path d="M21.223 18.637V9.024L13.786 5.76v9.613l7.437 3.264z"/><path d="M21.222 18.637l-7.437-3.264-7.437 3.264 7.437 3.083 7.437-3.083z"/><path d="M13.786 15.373V5.76L6.349 9.024v9.613l7.437-3.264z"/></g><path d="M21.585 8.117l-7.437-3.084h-1.086L5.988 8.117c-.364.182-.726.543-.726.907v9.613c0 .364.182.726.726.907l7.435 3.26c.1.089.229.139.363.139s.263-.049.363-.139l7.437-3.259c.364-.181.726-.543.726-.907V9.025c0-.364-.363-.726-.726-.908zM7.261 9.75l5.623-2.358v7.619l-5.623 2.362V9.75zm6.53 11.065l-5.079-2.172 5.079-2.172 5.079 2.172-5.079 2.172zm6.53-3.628l-5.623-2.358V7.21l5.623 2.358v7.618z" fill="#4949a3"/><g fill="#7272e9"><path d="M142.592 3.911v22.661l-.03.232a2.79 2.79 0 0 1-.96 1.805 2.83 2.83 0 0 1-1.929.711h-13.799c-.609-.007-1.199-.216-1.677-.592a2.8 2.8 0 0 1-1.126-2.309V9.47 4.039a2.77 2.77 0 0 1 .437-1.534 2.83 2.83 0 0 1 1.071-1.018 2.82 2.82 0 0 1 1.437-.339h13.622a3.55 3.55 0 0 1 .588.049 2.89 2.89 0 0 1 1.532.811 2.88 2.88 0 0 1 .789 1.543l.045.361zm-17.564 11.324v11.122a1.09 1.09 0 0 0 .011.206c.036.213.148.407.316.544a.9.9 0 0 0 .595.205h13.732a.92.92 0 0 0 .68-.274.92.92 0 0 0 .201-.316.93.93 0 0 0 .058-.37v-7.196V4.152c.002-.106-.01-.212-.036-.315a.89.89 0 0 0-.332-.488c-.164-.12-.363-.181-.565-.173h-12.899c-.293 0-.587-.008-.88 0-.12.004-.238.03-.349.077a.88.88 0 0 0-.402.343c-.095.153-.141.331-.132.511l.002 11.128zm14.186-1.048h-12.709v-.075-5.628c-.013-.724.19-1.436.581-2.045a2.72 2.72 0 0 1 .817-.818 2.71 2.71 0 0 1 1.084-.404 3.73 3.73 0 0 1 1.863.172c.848.304 1.377.911 1.629 1.765l.041.149a.27.27 0 0 0 .045.065.21.21 0 0 0 .039-.065c.047-.312.135-.617.262-.906a2.82 2.82 0 0 1 2.112-1.684 3.59 3.59 0 0 1 2.088.166c.814.323 1.358.925 1.711 1.716a4.76 4.76 0 0 1 .384 1.502l.054 1.173v4.815l-.001.1zm-2.026-3.028v-.083-1.358a2.67 2.67 0 0 0-.057-.535 1.52 1.52 0 0 0-.328-.719c-.17-.207-.392-.365-.643-.459a2.01 2.01 0 0 0-1.049-.076 1.24 1.24 0 0 0-.649.272 1.25 1.25 0 0 0-.398.581c-.094.278-.14.57-.136.864v1.442c.001.022.003.044.007.066l3.253.004zm-8.72 0h3.072v-.065-1.116a2.83 2.83 0 0 0-.059-.527 1.33 1.33 0 0 0-.268-.617c-.14-.18-.324-.32-.534-.409a1.89 1.89 0 0 0-.898-.136 1.29 1.29 0 0 0-1.128.752 1.98 1.98 0 0 0-.187.866v1.183l.002.067v.003zm10.746 14.284h-12.713v-.08-4.991a4.87 4.87 0 0 1 .479-2.172 4.05 4.05 0 0 1 1.847-1.829c.591-.294 1.222-.498 1.874-.607a12.36 12.36 0 0 1 2.726-.156 9.59 9.59 0 0 1 2.615.425 5.08 5.08 0 0 1 1.594.815 3.94 3.94 0 0 1 1.419 2.24 5.83 5.83 0 0 1 .157 1.405v4.858l.002.092zm-10.727-3.052h8.655c.038 0 .051-.016.05-.053l-.03-1.462a1.94 1.94 0 0 0-.202-.742 1.93 1.93 0 0 0-.477-.604 3.12 3.12 0 0 0-1.222-.636 7.64 7.64 0 0 0-1.819-.271 10.85 10.85 0 0 0-2.409.115 4.26 4.26 0 0 0-1.374.455 2.16 2.16 0 0 0-1.164 1.889l-.013 1.242c0 .016.004.038.005.073v-.005z"/></g><g fill="#4949a3"><path d="M66.869 23.263c.004.303-.111.595-.319.815a1.02 1.02 0 0 1-.783.349h-3.191a1.02 1.02 0 0 1-.783-.349c-.209-.219-.324-.512-.319-.815V1.101h-3.005l-4.773 6.778v14.456c0 .091.015.167.016.258l3.238 4.617 1.781 2.546c.71.158 1.435.24 2.163.244h1.222c2.437 0 4.255-.679 5.454-2.037v1.451h7.078V1.101h-7.78v22.162zm53.45-5.252V8.844c0-5.106-2.399-7.659-7.196-7.659h-6.554c-4.798 0-7.197 2.553-7.197 7.659v13.491c0 5.105 2.399 7.658 7.197 7.658h6.555c4.797 0 7.196-2.553 7.196-7.658V20.13h-7.776v3.132a1.16 1.16 0 0 1-.319.815 1.02 1.02 0 0 1-.353.261 1.03 1.03 0 0 1-.43.088h-3.191c-.148.002-.295-.028-.43-.088a1.02 1.02 0 0 1-.354-.261 1.16 1.16 0 0 1-.319-.815V18.01h13.171zM107.148 7.683c-.004-.303.111-.595.319-.815a1.03 1.03 0 0 1 .354-.261 1.02 1.02 0 0 1 .43-.088h3.191a1.03 1.03 0 0 1 .43.088 1.02 1.02 0 0 1 .353.261 1.17 1.17 0 0 1 .319.815v5.222h-5.396V7.683z"/></g><path d="M51.57 10.058l.001.024-.017-.008.016-.016z" fill="#fff"/><path d="M50.268 10.075l.861-1.026 4.853-6.893.693-1.043h-.517c-2.606 0-5.214.058-7.818-.026-1.166-.037-1.872.261-2.562 1.297-2.398 3.597-4.957 7.085-7.442 10.623-1.16 1.651-1.134 2.874.039 4.526l.783 1.113 4.771 6.684c.835 1.184 1.639 2.39 2.444 3.595a.9.9 0 0 0 .361.351c.151.081.322.116.493.103l8.921-.009h.504c-.103-.19-.157-.316-.235-.428l-1.966-2.808-6.246-8.912c-.65-.936-.937-1.991-.437-3.069.367-.794.891-1.517 1.358-2.265l1.166-1.83-.023.016zm-20.072 5.173l-.011 13.479c0 .489.102.663.627.656h6.819c.486 0 .577-.163.573-.603l-.023-7.5c-.019-.322-.123-.633-.303-.901-.439-.693-.941-1.344-1.396-2.027-1.24-1.864-1.428-3.802-.272-5.762.468-.794 1.017-1.544 1.56-2.291.295-.39.447-.869.432-1.358V1.701c0-.453-.109-.607-.58-.602h-6.817c-.475 0-.623.117-.622.614l.012 13.534z" fill="#7272e9"/><path d="M90.459 7.223h-1.222c-1.934 0-3.518.464-4.752 1.393V1.245h-7.776v28.167h6.555v-2.088C84.463 29.108 86.455 30 89.239 30h1.222c4.797 0 7.196-2.553 7.196-7.659v-7.458c-.004-5.106-2.403-7.659-7.199-7.659zm-1.252 16.039c.004.303-.111.595-.319.815-.098.111-.218.2-.353.261a1.02 1.02 0 0 1-.43.088h-3.191a1.02 1.02 0 0 1-.783-.349 1.16 1.16 0 0 1-.319-.815v-9.309a1.16 1.16 0 0 1 .319-.815 1.02 1.02 0 0 1 .353-.261c.135-.06.282-.09.43-.088h3.191a1.02 1.02 0 0 1 .784.349 1.17 1.17 0 0 1 .319.815v9.309z" fill="#4949a3"/></g><defs><clipPath id="A"><path fill="#fff" d="M0 0h143v46H0z"/></clipPath></defs></svg>