<svg width="143" height="46" viewBox="0 0 143 46" fill="none" xmlns="http://www.w3.org/2000/svg">
<g clip-path="url(#clip0)">
<path d="M6.7793 40.9707C6.69336 41.8809 6.35742 42.5918 5.77148 43.1035C5.18555 43.6113 4.40625 43.8652 3.43359 43.8652C2.75391 43.8652 2.1543 43.7051 1.63477 43.3848C1.11914 43.0605 0.720703 42.6016 0.439453 42.0078C0.158203 41.4141 0.0117188 40.7246 0 39.9395V39.1426C0 38.3379 0.142578 37.6289 0.427734 37.0156C0.712891 36.4023 1.12109 35.9297 1.65234 35.5977C2.1875 35.2656 2.80469 35.0996 3.50391 35.0996C4.44531 35.0996 5.20312 35.3555 5.77734 35.8672C6.35156 36.3789 6.68555 37.1016 6.7793 38.0352H5.30273C5.23242 37.4219 5.05273 36.9805 4.76367 36.7109C4.47852 36.4375 4.05859 36.3008 3.50391 36.3008C2.85938 36.3008 2.36328 36.5371 2.01562 37.0098C1.67188 37.4785 1.49609 38.168 1.48828 39.0781V39.834C1.48828 40.7559 1.65234 41.459 1.98047 41.9434C2.3125 42.4277 2.79688 42.6699 3.43359 42.6699C4.01562 42.6699 4.45312 42.5391 4.74609 42.2773C5.03906 42.0156 5.22461 41.5801 5.30273 40.9707H6.7793Z" fill="#00A651"/>
<path d="M17.7851 40.5195C17.7851 39.8984 17.9081 39.3398 18.1542 38.8438C18.4003 38.3438 18.746 37.9609 19.1913 37.6953C19.6366 37.4258 20.1484 37.291 20.7265 37.291C21.582 37.291 22.2753 37.5664 22.8066 38.1172C23.3417 38.668 23.6308 39.3984 23.6737 40.3086L23.6796 40.6426C23.6796 41.2676 23.5585 41.8262 23.3163 42.3184C23.078 42.8105 22.7343 43.1914 22.2851 43.4609C21.8398 43.7305 21.3241 43.8652 20.7382 43.8652C19.8437 43.8652 19.1269 43.5684 18.5878 42.9746C18.0527 42.377 17.7851 41.582 17.7851 40.5898V40.5195ZM19.2089 40.6426C19.2089 41.2949 19.3437 41.8066 19.6132 42.1777C19.8827 42.5449 20.2577 42.7285 20.7382 42.7285C21.2187 42.7285 21.5917 42.541 21.8573 42.166C22.1269 41.791 22.2616 41.2422 22.2616 40.5195C22.2616 39.8789 22.123 39.3711 21.8456 38.9961C21.5722 38.6211 21.1991 38.4336 20.7265 38.4336C20.2616 38.4336 19.8925 38.6191 19.6191 38.9902C19.3456 39.3574 19.2089 39.9082 19.2089 40.6426Z" fill="#00A651"/>
<path d="M36.3026 37.4082L36.3436 38.0703C36.7889 37.5508 37.3983 37.291 38.1717 37.291C39.0194 37.291 39.5995 37.6152 39.912 38.2637C40.3729 37.6152 41.0213 37.291 41.8573 37.291C42.5565 37.291 43.076 37.4844 43.4159 37.8711C43.7596 38.2578 43.9354 38.8281 43.9432 39.582V43.748H42.5194V39.623C42.5194 39.2207 42.4315 38.9258 42.2557 38.7383C42.0799 38.5508 41.7889 38.457 41.3827 38.457C41.0584 38.457 40.7928 38.5449 40.5858 38.7207C40.3827 38.8926 40.2401 39.1191 40.158 39.4004L40.1639 43.748H38.7401V39.5762C38.7205 38.8301 38.3397 38.457 37.5975 38.457C37.0272 38.457 36.6229 38.6895 36.3846 39.1543V43.748H34.9608V37.4082H36.3026Z" fill="#00A651"/>
<path d="M56.824 37.4082L56.865 38.0703C57.3103 37.5508 57.9197 37.291 58.6931 37.291C59.5408 37.291 60.1209 37.6152 60.4334 38.2637C60.8943 37.6152 61.5427 37.291 62.3787 37.291C63.0779 37.291 63.5974 37.4844 63.9373 37.8711C64.281 38.2578 64.4568 38.8281 64.4646 39.582V43.748H63.0408V39.623C63.0408 39.2207 62.9529 38.9258 62.7771 38.7383C62.6013 38.5508 62.3103 38.457 61.9041 38.457C61.5798 38.457 61.3142 38.5449 61.1072 38.7207C60.9041 38.8926 60.7615 39.1191 60.6795 39.4004L60.6853 43.748H59.2615V39.5762C59.242 38.8301 58.8611 38.457 58.1189 38.457C57.5486 38.457 57.1443 38.6895 56.906 39.1543V43.748H55.4822V37.4082H56.824Z" fill="#00A651"/>
<path d="M79.8473 43.127C79.4294 43.6191 78.8356 43.8652 78.0661 43.8652C77.3786 43.8652 76.8571 43.6641 76.5016 43.2617C76.1501 42.8594 75.9743 42.2773 75.9743 41.5156V37.4082H77.3981V41.498C77.3981 42.3027 77.7321 42.7051 78.4001 42.7051C79.0915 42.7051 79.5583 42.457 79.8005 41.9609V37.4082H81.2243V43.748H79.8825L79.8473 43.127Z" fill="#00A651"/>
<path d="M94.0758 37.4082L94.1168 38.1406C94.5855 37.5742 95.2008 37.291 95.9625 37.291C97.2828 37.291 97.9547 38.0469 97.9781 39.5586V43.748H96.5543V39.6406C96.5543 39.2383 96.4664 38.9414 96.2906 38.75C96.1188 38.5547 95.8355 38.457 95.441 38.457C94.8668 38.457 94.4391 38.7168 94.1578 39.2363V43.748H92.734V37.4082H94.0758Z" fill="#00A651"/>
<path d="M111.029 43.748H109.605V37.4082H111.029V43.748ZM109.517 35.7617C109.517 35.543 109.585 35.3613 109.722 35.2168C109.863 35.0723 110.062 35 110.32 35C110.578 35 110.777 35.0723 110.917 35.2168C111.058 35.3613 111.128 35.543 111.128 35.7617C111.128 35.9766 111.058 36.1562 110.917 36.3008C110.777 36.4414 110.578 36.5117 110.32 36.5117C110.062 36.5117 109.863 36.4414 109.722 36.3008C109.585 36.1562 109.517 35.9766 109.517 35.7617Z" fill="#00A651"/>
<path d="M124.449 35.8672V37.4082H125.568V38.4629H124.449V42.002C124.449 42.2441 124.496 42.4199 124.589 42.5293C124.687 42.6348 124.859 42.6875 125.105 42.6875C125.269 42.6875 125.435 42.668 125.603 42.6289V43.7305C125.279 43.8203 124.966 43.8652 124.665 43.8652C123.572 43.8652 123.025 43.2617 123.025 42.0547V38.4629H121.982V37.4082H123.025V35.8672H124.449Z" fill="#00A651"/>
<path d="M138.958 41.709L140.247 37.4082H141.765L139.245 44.709C138.859 45.7754 138.202 46.3086 137.277 46.3086C137.07 46.3086 136.841 46.2734 136.591 46.2031V45.1016L136.861 45.1191C137.22 45.1191 137.49 45.0527 137.669 44.9199C137.853 44.791 137.997 44.5723 138.103 44.2637L138.308 43.7188L136.081 37.4082H137.617L138.958 41.709Z" fill="#00A651"/>
<path d="M27.027 6.66504V23.5341L13.7859 29.1581V21.7201L21.2225 18.6366V9.02351L27.027 6.66504Z" fill="#7272E9"/>
<path d="M13.7859 0.862061L27.027 6.66523L21.2225 9.0237L13.7859 5.75959L6.34928 9.0237L0.725342 6.66523L13.7859 0.862061Z" fill="#7272E9"/>
<path d="M13.7859 21.7201V29.1581L0.725342 23.5341V6.66504L6.34928 9.02351V18.6366L13.7859 21.7201Z" fill="#7272E9"/>
<path d="M27.9339 6.66647V6.48453V6.30259L27.7519 6.122L14.1483 0.135534C14.0477 0.0481327 13.919 0 13.7858 0C13.6525 0 13.5238 0.0481327 13.4232 0.135534L0.182117 5.75948L0.000173868 5.94006V6.122V6.30259V23.1717C-0.00331436 23.3586 0.0457463 23.5427 0.141767 23.703C0.237787 23.8634 0.376908 23.9935 0.543288 24.0787L13.6025 29.7026H14.6887L27.7479 24.0787C27.9144 23.9938 28.0537 23.8637 28.1498 23.7033C28.2458 23.5429 28.2948 23.3586 28.291 23.1717L27.9284 6.66647H27.9339ZM13.7858 1.94953L24.4878 6.66647L21.2223 8.11659L14.1483 5.03306C14.0477 4.94566 13.919 4.89753 13.7858 4.89753C13.6525 4.89753 13.5238 4.94566 13.4232 5.03306L6.34917 7.936H6.16723L3.0837 6.66647L13.7858 1.94953ZM12.8788 27.7067L1.63223 22.8037V7.936L5.44217 9.56534V18.4588C5.43853 18.6457 5.48752 18.8299 5.58356 18.9903C5.67959 19.1507 5.81881 19.2808 5.98529 19.3658L12.8788 22.2606V27.7067ZM13.7858 20.8146L7.25617 18.099V9.75L13.7858 6.84706L20.3153 9.75V18.0936L13.7858 20.8146ZM25.9393 22.8037L14.6928 27.7013V22.4466L21.5849 19.5451C21.7516 19.4603 21.8909 19.3302 21.987 19.1698C22.0831 19.0093 22.1319 18.825 22.128 18.6381V9.56806L25.9379 7.93872L25.9393 22.8037Z" fill="#4949A3"/>
<path d="M21.2225 18.6367V9.02364L13.7859 5.75952V15.3726L21.2225 18.6367Z" fill="white"/>
<path d="M21.2223 18.6367L13.7857 15.3726L6.34912 18.6367L13.7857 21.7202L21.2223 18.6367Z" fill="white"/>
<path d="M13.7857 15.3726V5.75952L6.34912 9.02364V18.6367L13.7857 15.3726Z" fill="white"/>
<path d="M21.5848 8.11673L14.1482 5.0332H13.0619L5.98789 8.11673C5.624 8.29867 5.26147 8.65985 5.26147 9.02373V18.6368C5.26147 19.0007 5.44342 19.3633 5.98789 19.5438L13.4231 22.8039C13.5227 22.8932 13.6518 22.9426 13.7856 22.9426C13.9194 22.9426 14.0485 22.8932 14.1482 22.8039L21.5848 19.5452C21.9486 19.3646 22.3112 19.0021 22.3112 18.6382V9.02509C22.3112 8.6612 21.9486 8.29867 21.5848 8.11673ZM7.26149 9.75014L12.8841 7.39167V15.0102L7.26149 17.3727V9.75014ZM13.7911 20.8147L8.7116 18.6423L13.7911 16.4698L18.8705 18.6423L13.7911 20.8147ZM20.3207 17.1867L14.6981 14.8283V7.20973L20.3207 9.5682V17.1867Z" fill="#4949A3"/>
<path d="M142.592 3.91147V26.5729C142.583 26.6503 142.572 26.7277 142.562 26.8051C142.482 27.5062 142.139 28.1509 141.602 28.6096C141.071 29.0801 140.382 29.334 139.673 29.321H125.874C125.265 29.3136 124.675 29.1055 124.197 28.7291C123.839 28.4619 123.55 28.1131 123.354 27.7115C123.158 27.31 123.061 26.8674 123.071 26.4208C123.071 20.7697 123.071 15.1195 123.071 9.47024V4.0391C123.063 3.49579 123.215 2.96206 123.508 2.50481C123.769 2.07643 124.138 1.72492 124.579 1.48632C125.019 1.24772 125.515 1.13062 126.016 1.14702C130.557 1.14702 135.097 1.14702 139.638 1.14702C139.835 1.14694 140.031 1.16329 140.226 1.1959C140.807 1.30251 141.342 1.58565 141.758 2.00687C142.173 2.42809 142.449 2.96697 142.547 3.5503C142.564 3.67793 142.577 3.7947 142.592 3.91147ZM125.028 15.2354C125.028 18.9467 125.028 22.6539 125.028 26.357C125.025 26.426 125.029 26.4951 125.039 26.5634C125.075 26.7769 125.187 26.9702 125.355 27.1078C125.522 27.2455 125.733 27.3183 125.95 27.3129H139.682C139.808 27.3164 139.934 27.2938 140.051 27.2466C140.168 27.1993 140.273 27.1283 140.362 27.0382C140.45 26.948 140.518 26.8406 140.563 26.7226C140.607 26.6047 140.627 26.4788 140.621 26.3529C140.621 23.9524 140.621 21.5536 140.621 19.1567C140.621 14.1546 140.621 9.15297 140.621 4.1518C140.623 4.04571 140.611 3.93982 140.585 3.83679C140.533 3.64103 140.416 3.4689 140.253 3.34872C140.089 3.22853 139.89 3.16746 139.688 3.17555H126.789C126.496 3.17555 126.202 3.16741 125.909 3.17555C125.789 3.17928 125.671 3.20553 125.56 3.25294C125.394 3.3231 125.254 3.44276 125.158 3.5956C125.063 3.74844 125.017 3.92703 125.026 4.10699C125.029 7.81646 125.03 11.5259 125.028 15.2354Z" fill="#7272E9"/>
<path d="M139.214 14.1873H126.505C126.505 14.1602 126.505 14.1371 126.505 14.1127C126.505 12.2362 126.505 10.3611 126.505 8.48464C126.492 7.7606 126.695 7.04907 127.086 6.43982C127.297 6.11159 127.575 5.83255 127.903 5.62169C128.231 5.41082 128.601 5.27307 128.987 5.21781C129.613 5.11615 130.254 5.1755 130.85 5.39025C131.698 5.69439 132.227 6.30132 132.479 7.15537C132.494 7.20425 132.502 7.25585 132.52 7.30473C132.532 7.32846 132.547 7.3504 132.565 7.3699C132.582 7.35063 132.595 7.32857 132.604 7.30473C132.651 6.99259 132.739 6.68805 132.866 6.39908C133.049 5.96424 133.338 5.58225 133.707 5.28811C134.076 4.99396 134.513 4.79706 134.978 4.71543C135.675 4.56222 136.402 4.61989 137.066 4.88108C137.88 5.20423 138.424 5.80573 138.777 6.59732C138.986 7.07339 139.116 7.58075 139.161 8.09903C139.195 8.48871 139.214 8.88111 139.215 9.27215C139.215 10.8771 139.215 12.482 139.215 14.0869L139.214 14.1873ZM137.188 11.1595C137.188 11.1282 137.188 11.1024 137.188 11.0767C137.188 10.6245 137.188 10.1737 137.188 9.71887C137.187 9.53906 137.168 9.35978 137.131 9.1839C137.087 8.91974 136.974 8.6719 136.803 8.46526C136.633 8.25862 136.411 8.10047 136.16 8.0067C135.823 7.88877 135.461 7.86252 135.111 7.93066C134.873 7.95707 134.647 8.05155 134.462 8.20279C134.276 8.35402 134.138 8.5556 134.064 8.78335C133.97 9.06148 133.924 9.35346 133.928 9.6469C133.928 10.1276 133.928 10.6082 133.928 11.0889C133.929 11.1112 133.931 11.1334 133.935 11.1554L137.188 11.1595ZM128.468 11.1595H131.54C131.54 11.1337 131.54 11.1133 131.54 11.0943C131.54 10.7223 131.54 10.3502 131.54 9.9782C131.537 9.80116 131.517 9.62479 131.481 9.45138C131.446 9.22611 131.354 9.01358 131.213 8.83394C131.073 8.65429 130.889 8.5135 130.679 8.4249C130.395 8.30714 130.087 8.26053 129.781 8.28912C129.542 8.29769 129.31 8.37256 129.111 8.50538C128.911 8.6382 128.753 8.82375 128.653 9.04133C128.526 9.31235 128.462 9.60843 128.466 9.9076C128.466 10.3014 128.466 10.6965 128.466 11.0902C128.466 11.112 128.467 11.1269 128.468 11.1568V11.1595Z" fill="#7272E9"/>
<path d="M139.214 25.4433H126.501V25.3632C126.501 23.6985 126.501 22.0352 126.501 20.372C126.491 19.6205 126.655 18.877 126.98 18.1995C127.378 17.4032 128.027 16.7603 128.827 16.3706C129.418 16.077 130.049 15.8725 130.701 15.7636C131.601 15.6111 132.515 15.5587 133.427 15.6075C134.314 15.6277 135.194 15.7707 136.042 16.0325C136.617 16.2077 137.157 16.4836 137.636 16.8471C138.354 17.4074 138.855 18.1991 139.055 19.0875C139.164 19.5479 139.217 20.0197 139.212 20.4928C139.212 22.1122 139.212 23.7316 139.212 25.3509L139.214 25.4433ZM128.487 22.391H137.142C137.18 22.391 137.193 22.3747 137.192 22.338C137.184 21.8506 137.192 21.3618 137.162 20.8757C137.145 20.6171 137.076 20.3646 136.96 20.1332C136.843 19.9018 136.681 19.6962 136.483 19.5288C136.128 19.2286 135.711 19.0116 135.261 18.8933C134.668 18.7299 134.057 18.6387 133.442 18.6218C132.637 18.5705 131.829 18.6092 131.033 18.7372C130.553 18.8096 130.088 18.9635 129.659 19.192C129.312 19.3721 129.021 19.6429 128.816 19.9755C128.611 20.3081 128.5 20.6901 128.495 21.0807C128.475 21.4948 128.486 21.909 128.482 22.3231C128.482 22.3394 128.486 22.3611 128.487 22.3964V22.391Z" fill="#7272E9"/>
<path d="M66.8685 23.2626C66.8723 23.5653 66.7579 23.8576 66.5495 24.0773C66.4519 24.1887 66.3314 24.2776 66.1961 24.3378C66.0608 24.3981 65.9141 24.4282 65.766 24.4262H62.5752C62.4271 24.4283 62.2804 24.3982 62.1451 24.338C62.0098 24.2777 61.8892 24.1888 61.7918 24.0773C61.5829 23.8579 61.4683 23.5654 61.4727 23.2626V1.10083H58.4679C56.8811 3.3638 55.2903 5.62315 53.6953 7.87889V22.3352C53.6953 22.4262 53.7102 22.5022 53.7116 22.5932C54.7924 24.132 55.8718 25.6708 56.9499 27.2097C57.5446 28.0569 58.1384 28.9055 58.7313 29.7555C59.4416 29.9133 60.1667 29.9953 60.8943 29.9999H62.1163C64.5531 29.9999 66.3711 29.321 67.5705 27.9632V29.4147H74.6486V1.10083H66.8685V23.2626Z" fill="#4949A3"/>
<path d="M120.319 18.0107V8.84432C120.319 3.73815 117.92 1.18506 113.123 1.18506H106.569C101.771 1.18506 99.3723 3.73815 99.3723 8.84432V22.3353C99.3723 27.4405 101.771 29.9932 106.569 29.9932H113.124C117.921 29.9932 120.32 27.4405 120.32 22.3353V20.1302H112.544V23.2626C112.548 23.5654 112.434 23.8577 112.225 24.0773C112.128 24.1887 112.007 24.2776 111.872 24.3379C111.736 24.3981 111.59 24.4283 111.442 24.4263H108.251C108.103 24.4283 107.956 24.3981 107.821 24.3379C107.686 24.2776 107.565 24.1887 107.467 24.0773C107.259 23.858 107.144 23.5655 107.148 23.2626V18.0107H120.319ZM107.148 7.68342C107.144 7.38064 107.259 7.0883 107.467 6.86874C107.565 6.75732 107.686 6.6684 107.821 6.60815C107.956 6.5479 108.103 6.51775 108.251 6.51979H111.442C111.59 6.51775 111.736 6.5479 111.872 6.60815C112.007 6.6684 112.128 6.75732 112.225 6.86874C112.433 7.08869 112.547 7.38077 112.544 7.68342V12.9055H107.148V7.68342Z" fill="#4949A3"/>
<path d="M51.5702 10.0581L51.5715 10.0824L51.554 10.0743L51.5702 10.0581Z" fill="white"/>
<path d="M50.2682 10.0745C50.556 9.73369 50.871 9.41189 51.129 9.04801C52.7584 6.75607 54.3759 4.45824 55.9817 2.15454C56.2044 1.83682 56.4122 1.50823 56.6742 1.11176H56.1569C53.5513 1.11176 50.943 1.17014 48.3388 1.08596C47.1724 1.0493 46.4664 1.34666 45.7766 2.38265C43.3788 5.97942 40.8194 9.46756 38.3346 13.0059C37.1751 14.657 37.2009 15.8804 38.374 17.5314C38.6374 17.9008 38.894 18.2755 39.1574 18.6448C40.7488 20.8729 42.3496 23.0929 43.9287 25.3292C44.7637 26.5132 45.5675 27.7189 46.3727 28.9246C46.4572 29.0736 46.5824 29.1956 46.7337 29.2761C46.8849 29.3566 47.0559 29.3925 47.2268 29.3795C50.2003 29.3605 53.1738 29.37 56.1474 29.37H56.6511C56.5479 29.1799 56.4936 29.0536 56.4162 28.9423C55.7636 28.0054 55.1082 27.0694 54.4502 26.1344C52.366 23.1635 50.2736 20.2008 48.2044 17.2219C47.554 16.2864 47.2675 15.2314 47.7672 14.1533C48.1338 13.359 48.6579 12.6366 49.1249 11.8885C49.5051 11.2734 49.9016 10.6665 50.2913 10.0582L50.2682 10.0745ZM30.1961 15.2477C30.1961 19.7406 30.2029 24.2335 30.1852 28.7264C30.1852 29.2152 30.287 29.389 30.8125 29.3822C33.0854 29.3523 35.3584 29.3523 37.6313 29.3822C38.1174 29.3822 38.2084 29.2192 38.2043 28.7793C38.1853 26.2796 38.2043 23.7786 38.1812 21.2789C38.1622 20.9568 38.0577 20.6456 37.8784 20.3774C37.4398 19.6849 36.9375 19.0332 36.4826 18.3502C35.2429 16.486 35.0542 14.5484 36.211 12.5878C36.6795 11.7934 37.228 11.044 37.7711 10.2972C38.0656 9.90703 38.218 9.42797 38.2029 8.93939C38.1812 6.52706 38.1812 4.11427 38.2029 1.70104C38.2029 1.24754 38.0943 1.09411 37.6231 1.09954C35.3502 1.12126 33.0777 1.12126 30.8057 1.09954C30.3305 1.09954 30.1825 1.21631 30.1838 1.71326C30.2083 6.22653 30.1961 10.7371 30.1961 15.2477Z" fill="#7272E9"/>
<path d="M90.4585 7.2232H89.2365C87.303 7.2232 85.719 7.68756 84.4843 8.61628V1.24487H76.7083V29.4121H83.2636V27.3238C84.463 29.108 86.4549 30 89.2392 30H90.4613C95.2588 30 97.6575 27.4469 97.6575 22.3408V14.8825C97.6539 9.77628 95.2542 7.2232 90.4585 7.2232ZM89.2067 23.2627C89.2102 23.5654 89.0957 23.8576 88.8876 24.0774C88.7901 24.1888 88.6695 24.2777 88.5342 24.338C88.3989 24.3982 88.2522 24.4284 88.1041 24.4263H84.9133C84.7653 24.4285 84.6185 24.3983 84.4832 24.3381C84.3479 24.2778 84.2274 24.1889 84.1299 24.0774C83.9212 23.8579 83.8067 23.5655 83.8108 23.2627V13.9537C83.8069 13.651 83.9214 13.3586 84.1299 13.1391C84.2274 13.0276 84.3479 12.9386 84.4832 12.8783C84.6185 12.8181 84.7653 12.788 84.9133 12.7901H88.1041C88.2522 12.7881 88.3989 12.8182 88.5342 12.8785C88.6695 12.9387 88.7901 13.0276 88.8876 13.1391C89.0955 13.359 89.2099 13.6511 89.2067 13.9537V23.2627Z" fill="#4949A3"/>
</g>
<defs>
<clipPath id="clip0">
<rect width="143" height="46" fill="white"/>
</clipPath>
</defs>
</svg>
