<svg width="143" height="46" viewBox="0 0 143 46" fill="none" xmlns="http://www.w3.org/2000/svg">
<g clip-path="url(#clip0_1849_168)">
<path d="M5.98633 39.9395H2.48242V42.5645H6.57812V43.748H1V35.2168H6.53711V36.4121H2.48242V38.7676H5.98633V39.9395Z" fill="#FC6011"/>
<path d="M18.6688 37.4082L18.7098 38.1406C19.1785 37.5742 19.7938 37.291 20.5555 37.291C21.8758 37.291 22.5477 38.0469 22.5711 39.5586V43.748H21.1473V39.6406C21.1473 39.2383 21.0594 38.9414 20.8836 38.75C20.7117 38.5547 20.4285 38.457 20.034 38.457C19.4598 38.457 19.032 38.7168 18.7508 39.2363V43.748H17.327V37.4082H18.6688Z" fill="#FC6011"/>
<path d="M35.5113 35.8672V37.4082H36.6305V38.4629H35.5113V42.002C35.5113 42.2441 35.5582 42.4199 35.652 42.5293C35.7496 42.6348 35.9215 42.6875 36.1676 42.6875C36.3316 42.6875 36.4977 42.668 36.6656 42.6289V43.7305C36.3414 43.8203 36.0289 43.8652 35.7281 43.8652C34.6344 43.8652 34.0875 43.2617 34.0875 42.0547V38.4629H33.0445V37.4082H34.0875V35.8672H35.5113Z" fill="#FC6011"/>
<path d="M50.2152 43.8652C49.3129 43.8652 48.5805 43.582 48.018 43.0156C47.4594 42.4453 47.1801 41.6875 47.1801 40.7422V40.5664C47.1801 39.9336 47.3012 39.3691 47.5434 38.873C47.7895 38.373 48.1332 37.9844 48.5746 37.707C49.016 37.4297 49.5082 37.291 50.0512 37.291C50.9145 37.291 51.5805 37.5664 52.0492 38.1172C52.5219 38.668 52.7582 39.4473 52.7582 40.4551V41.0293H48.6156C48.6586 41.5527 48.8324 41.9668 49.1371 42.2715C49.4457 42.5762 49.8324 42.7285 50.2973 42.7285C50.9496 42.7285 51.4809 42.4648 51.891 41.9375L52.6586 42.6699C52.4047 43.0488 52.0648 43.3438 51.6391 43.5547C51.2172 43.7617 50.7426 43.8652 50.2152 43.8652ZM50.0453 38.4336C49.6547 38.4336 49.3383 38.5703 49.0961 38.8438C48.8578 39.1172 48.7055 39.498 48.6391 39.9863H51.352V39.8809C51.3207 39.4043 51.1937 39.0449 50.9711 38.8027C50.7484 38.5566 50.4398 38.4336 50.0453 38.4336Z" fill="#FC6011"/>
<path d="M66.8879 38.709C66.7004 38.6777 66.507 38.6621 66.3078 38.6621C65.6555 38.6621 65.216 38.9121 64.9895 39.4121V43.748H63.5656V37.4082H64.925L64.9602 38.1172C65.3039 37.5664 65.7805 37.291 66.3898 37.291C66.593 37.291 66.7609 37.3184 66.8938 37.373L66.8879 38.709Z" fill="#FC6011"/>
<path d="M83.0391 40.6426C83.0391 41.623 82.8164 42.4062 82.3711 42.9922C81.9258 43.5742 81.3281 43.8652 80.5781 43.8652C79.8828 43.8652 79.3262 43.6367 78.9082 43.1797V46.1855H77.4844V37.4082H78.7969L78.8555 38.0527C79.2734 37.5449 79.8418 37.291 80.5605 37.291C81.334 37.291 81.9395 37.5801 82.377 38.1582C82.8184 38.7324 83.0391 39.5312 83.0391 40.5547V40.6426ZM81.6211 40.5195C81.6211 39.8867 81.4941 39.3848 81.2402 39.0137C80.9902 38.6426 80.6309 38.457 80.1621 38.457C79.5801 38.457 79.1621 38.6973 78.9082 39.1777V41.9902C79.166 42.4824 79.5879 42.7285 80.1738 42.7285C80.627 42.7285 80.9805 42.5469 81.2344 42.1836C81.4922 41.8164 81.6211 41.2617 81.6211 40.5195Z" fill="#FC6011"/>
<path d="M97.2684 38.709C97.0809 38.6777 96.8875 38.6621 96.6883 38.6621C96.0359 38.6621 95.5965 38.9121 95.3699 39.4121V43.748H93.9461V37.4082H95.3055L95.3406 38.1172C95.6844 37.5664 96.1609 37.291 96.7703 37.291C96.9734 37.291 97.1414 37.3184 97.2742 37.373L97.2684 38.709Z" fill="#FC6011"/>
<path d="M109.382 43.748H107.959V37.4082H109.382V43.748ZM107.871 35.7617C107.871 35.543 107.939 35.3613 108.076 35.2168C108.216 35.0723 108.416 35 108.673 35C108.931 35 109.13 35.0723 109.271 35.2168C109.412 35.3613 109.482 35.543 109.482 35.7617C109.482 35.9766 109.412 36.1562 109.271 36.3008C109.13 36.4414 108.931 36.5117 108.673 36.5117C108.416 36.5117 108.216 36.4414 108.076 36.3008C107.939 36.1562 107.871 35.9766 107.871 35.7617Z" fill="#FC6011"/>
<path d="M124.192 42.0254C124.192 41.7715 124.086 41.5781 123.875 41.4453C123.668 41.3125 123.323 41.1953 122.838 41.0938C122.354 40.9922 121.95 40.8633 121.625 40.707C120.914 40.3633 120.559 39.8652 120.559 39.2129C120.559 38.666 120.789 38.209 121.25 37.8418C121.711 37.4746 122.297 37.291 123.008 37.291C123.766 37.291 124.377 37.4785 124.842 37.8535C125.311 38.2285 125.545 38.7148 125.545 39.3125H124.121C124.121 39.0391 124.02 38.8125 123.817 38.6328C123.614 38.4492 123.344 38.3574 123.008 38.3574C122.696 38.3574 122.44 38.4297 122.241 38.5742C122.045 38.7188 121.948 38.9121 121.948 39.1543C121.948 39.373 122.039 39.543 122.223 39.6641C122.407 39.7852 122.778 39.9082 123.336 40.0332C123.895 40.1543 124.332 40.3008 124.649 40.4727C124.969 40.6406 125.205 40.8438 125.358 41.082C125.514 41.3203 125.592 41.6094 125.592 41.9492C125.592 42.5195 125.356 42.9824 124.883 43.3379C124.411 43.6895 123.791 43.8652 123.026 43.8652C122.506 43.8652 122.043 43.7715 121.637 43.584C121.231 43.3965 120.914 43.1387 120.688 42.8105C120.461 42.4824 120.348 42.1289 120.348 41.75H121.731C121.75 42.0859 121.877 42.3457 122.112 42.5293C122.346 42.709 122.657 42.7988 123.043 42.7988C123.418 42.7988 123.704 42.7285 123.899 42.5879C124.094 42.4434 124.192 42.2559 124.192 42.0254Z" fill="#FC6011"/>
<path d="M139.329 43.8652C138.427 43.8652 137.695 43.582 137.132 43.0156C136.573 42.4453 136.294 41.6875 136.294 40.7422V40.5664C136.294 39.9336 136.415 39.3691 136.657 38.873C136.904 38.373 137.247 37.9844 137.689 37.707C138.13 37.4297 138.622 37.291 139.165 37.291C140.029 37.291 140.695 37.5664 141.163 38.1172C141.636 38.668 141.872 39.4473 141.872 40.4551V41.0293H137.73C137.773 41.5527 137.946 41.9668 138.251 42.2715C138.56 42.5762 138.946 42.7285 139.411 42.7285C140.064 42.7285 140.595 42.4648 141.005 41.9375L141.773 42.6699C141.519 43.0488 141.179 43.3438 140.753 43.5547C140.331 43.7617 139.857 43.8652 139.329 43.8652ZM139.159 38.4336C138.769 38.4336 138.452 38.5703 138.21 38.8438C137.972 39.1172 137.82 39.498 137.753 39.9863H140.466V39.8809C140.435 39.4043 140.308 39.0449 140.085 38.8027C139.863 38.5566 139.554 38.4336 139.159 38.4336Z" fill="#FC6011"/>
<path d="M28.0279 6.90808V23.7777L14.7864 29.4019V21.9637L22.2232 18.8801V9.26663L28.0279 6.90808Z" fill="#7272E9"/>
<path d="M14.7863 1.10461L28.0278 6.90798L22.2231 9.26652L14.7863 6.0023L7.34947 9.26652L1.72534 6.90798L14.7863 1.10461Z" fill="#7272E9"/>
<path d="M14.7863 21.9637V29.4019L1.72534 23.7777V6.90808L7.34947 9.26663V18.8801L14.7863 21.9637Z" fill="#7272E9"/>
<path d="M28.9348 6.90912V6.72718V6.54523L28.7528 6.36464L15.1487 0.37797C15.0482 0.290566 14.9194 0.242432 14.7862 0.242432C14.653 0.242432 14.5242 0.290566 14.4237 0.37797L1.18212 6.0021L1.00017 6.18269V6.36464V6.54523V23.4149C0.996686 23.6018 1.04575 23.7859 1.14177 23.9462C1.2378 24.1066 1.37692 24.2368 1.54331 24.3219L14.6029 29.946H15.6892L28.7488 24.3219C28.9154 24.237 29.0547 24.1069 29.1507 23.9465C29.2468 23.7861 29.2957 23.6018 29.2919 23.4149L28.9294 6.90912H28.9348ZM14.7862 2.19203L25.4886 6.90912L22.223 8.35928L15.1487 5.27566C15.0482 5.18825 14.9194 5.14012 14.7862 5.14012C14.653 5.14012 14.5242 5.18825 14.4237 5.27566L7.34938 8.1787H7.16743L4.0838 6.90912L14.7862 2.19203ZM13.8792 27.95L2.63228 23.0469V8.1787L6.44235 9.80809V18.7019C6.4387 18.8888 6.4877 19.0729 6.58374 19.2333C6.67978 19.3937 6.819 19.5239 6.98548 19.6089L13.8792 22.5038V27.95ZM14.7862 21.0577L8.25641 18.342V9.99275L14.7862 7.08972L21.316 9.99275V18.3366L14.7862 21.0577ZM26.9401 23.0469L15.6932 27.9446V22.6898L22.5856 19.7881C22.7523 19.7034 22.8917 19.5733 22.9877 19.4128C23.0838 19.2524 23.1327 19.0681 23.1287 18.8811V9.8108L26.9388 8.18141L26.9401 23.0469Z" fill="#4949A3"/>
<path d="M22.2232 18.88V9.26654L14.7864 6.00232V15.6157L22.2232 18.88Z" fill="white"/>
<path d="M22.2228 18.8799L14.7859 15.6157L7.34912 18.8799L14.7859 21.9636L22.2228 18.8799Z" fill="white"/>
<path d="M14.7859 15.6157V6.00232L7.34912 9.26654V18.88L14.7859 15.6157Z" fill="white"/>
<path d="M22.5853 8.35951L15.1485 5.27588H14.0622L6.98791 8.35951C6.62401 8.54146 6.26147 8.90264 6.26147 9.26654V18.88C6.26147 19.2439 6.44342 19.6064 6.98791 19.787L14.4234 23.0471C14.523 23.1365 14.6521 23.1859 14.7859 23.1859C14.9197 23.1859 15.0488 23.1365 15.1485 23.0471L22.5853 19.7884C22.9492 19.6078 23.3117 19.2452 23.3117 18.8813V9.26789C23.3117 8.904 22.9492 8.54146 22.5853 8.35951ZM8.26156 9.99297L13.8843 7.63443V15.2532L8.26156 17.6158V9.99297ZM14.7914 21.0579L9.71172 18.8854L14.7914 16.7129L19.871 18.8854L14.7914 21.0579ZM21.3212 17.4298L15.6984 15.0713V7.45248L21.3212 9.81103V17.4298Z" fill="#4949A3"/>
<path d="M67.8707 23.5059C67.8745 23.8086 67.76 24.1009 67.5516 24.3206C67.4541 24.432 67.3335 24.5209 67.1982 24.5812C67.0629 24.6414 66.9162 24.6716 66.7681 24.6695H63.5772C63.4291 24.6717 63.2824 24.6415 63.1471 24.5813C63.0118 24.521 62.8912 24.4321 62.7938 24.3206C62.5848 24.1012 62.4703 23.8087 62.4747 23.5059V1.34338H59.4698C57.8829 3.60643 56.292 5.86586 54.697 8.12166V22.5785C54.697 22.6694 54.712 22.7455 54.7133 22.8365C55.7941 24.3753 56.8736 25.9142 57.9517 27.4531C58.5465 28.3004 59.1403 29.149 59.7332 29.999C60.4435 30.1568 61.1686 30.2388 61.8962 30.2434H63.1183C65.5551 30.2434 67.3733 29.5645 68.5727 28.2067V29.6582H75.651V1.34338H67.8707V23.5059Z" fill="#4949A3"/>
<path d="M121.322 18.2538V9.08712C121.322 3.98078 118.924 1.42761 114.126 1.42761H107.572C102.774 1.42761 100.375 3.98078 100.375 9.08712V22.5785C100.375 27.6839 102.774 30.2367 107.572 30.2367H114.127C118.925 30.2367 121.324 27.6839 121.324 22.5785V20.3734H113.548V23.5059C113.551 23.8087 113.437 24.101 113.228 24.3206C113.131 24.432 113.01 24.521 112.875 24.5812C112.74 24.6415 112.593 24.6716 112.445 24.6696H109.254C109.106 24.6716 108.959 24.6415 108.824 24.5812C108.689 24.521 108.568 24.432 108.471 24.3206C108.262 24.1013 108.147 23.8088 108.152 23.5059V18.2538H121.322ZM108.152 7.92618C108.148 7.62339 108.262 7.33104 108.471 7.11148C108.568 7.00005 108.689 6.91113 108.824 6.85088C108.959 6.79063 109.106 6.76048 109.254 6.76252H112.445C112.593 6.76048 112.74 6.79063 112.875 6.85088C113.01 6.91113 113.131 7.00005 113.228 7.11148C113.436 7.33143 113.551 7.62353 113.548 7.92618V13.1484H108.152V7.92618Z" fill="#4949A3"/>
<path d="M52.5743 10.3011L52.5759 10.3292L52.5557 10.3198L52.5743 10.3011Z" fill="white"/>
<path d="M51.2696 10.3173C51.5574 9.97653 51.8725 9.65472 52.1304 9.29082C53.7598 6.99881 55.3775 4.70091 56.9833 2.39713C57.206 2.07939 57.4137 1.7508 57.6758 1.35431H57.1585C54.5528 1.35431 51.9444 1.4127 49.3401 1.32852C48.1737 1.29185 47.4677 1.58922 46.7779 2.62524C44.38 6.22213 41.8205 9.71039 39.3356 13.2489C38.176 14.9 38.2018 16.1234 39.375 17.7745C39.6384 18.1439 39.895 18.5186 40.1585 18.888C41.7498 21.1162 43.3507 23.3362 44.9299 25.5725C45.7649 26.7566 46.5688 27.9623 47.374 29.1681C47.4585 29.3171 47.5837 29.439 47.7349 29.5196C47.8862 29.6001 48.0572 29.636 48.228 29.6229C51.2017 29.6039 54.1753 29.6134 57.149 29.6134H57.6527C57.5495 29.4233 57.4952 29.2971 57.4178 29.1857C56.7652 28.2488 56.1098 27.3128 55.4517 26.3777C53.3674 23.4068 51.275 20.444 49.2057 17.465C48.5553 16.5294 48.2688 15.4744 48.7685 14.3963C49.1351 13.6019 49.6592 12.8796 50.1263 12.1314C50.5065 11.5163 50.903 10.9094 51.2927 10.301L51.2696 10.3173ZM31.1968 15.4907C31.1968 19.9837 31.2036 24.4768 31.1859 28.9698C31.1859 29.4587 31.2878 29.6325 31.8133 29.6257C34.0863 29.5958 36.3593 29.5958 38.6323 29.6257C39.1184 29.6257 39.2093 29.4627 39.2053 29.0228C39.1863 26.523 39.2053 24.0219 39.1822 21.5221C39.1632 21.2 39.0587 20.8888 38.8794 20.6205C38.4408 19.9281 37.9384 19.2763 37.4835 18.5933C36.2438 16.729 36.0551 14.7914 37.212 12.8307C37.6804 12.0364 38.229 11.2868 38.7721 10.54C39.0666 10.1499 39.219 9.6708 39.2039 9.1822C39.1822 6.76979 39.1822 4.35693 39.2039 1.94361C39.2039 1.4901 39.0953 1.33666 38.6241 1.34209C36.3511 1.36382 34.0786 1.36382 31.8065 1.34209C31.3312 1.34209 31.1832 1.45887 31.1846 1.95583C31.209 6.46925 31.1968 10.98 31.1968 15.4907V15.4907Z" fill="#7272E9"/>
<path d="M91.4617 7.46582H90.2396C88.3061 7.46582 86.7219 7.9302 85.4872 8.85896V1.4873H77.7109V29.6555H84.2665V27.5671C85.466 29.3513 87.4579 30.2434 90.2423 30.2434H91.4644C96.262 30.2434 98.6609 27.6902 98.6609 22.5839V15.1253C98.6573 10.019 96.2575 7.46582 91.4617 7.46582ZM90.2098 23.5059C90.2133 23.8086 90.0988 24.1008 89.8907 24.3206C89.7931 24.432 89.6726 24.5209 89.5373 24.5812C89.402 24.6414 89.2553 24.6716 89.1072 24.6695H85.9163C85.7682 24.6716 85.6214 24.6415 85.4861 24.5813C85.3509 24.521 85.2303 24.4321 85.1328 24.3206C84.9242 24.1011 84.8096 23.8087 84.8137 23.5059V14.1966C84.8098 13.8938 84.9243 13.6014 85.1328 13.3819C85.2303 13.2704 85.3509 13.1814 85.4861 13.1212C85.6214 13.0609 85.7682 13.0308 85.9163 13.0329H89.1072C89.2553 13.0309 89.402 13.061 89.5373 13.1213C89.6726 13.1815 89.7931 13.2705 89.8907 13.3819C90.0986 13.6018 90.213 13.8939 90.2098 14.1966V23.5059Z" fill="#4949A3"/>
<path d="M123.341 4.16167C123.341 2.53101 124.663 1.20911 126.293 1.20911H140.048C141.678 1.20911 143 2.53101 143 4.16167V27.1674C143 28.7981 141.678 30.12 140.048 30.12H126.293C124.663 30.12 123.341 28.7981 123.341 27.1674V4.16167Z" fill="#4949A3"/>
<path d="M139.745 14.0802L126.81 14.0802L126.81 8.90083C126.81 7.94918 126.951 7.15543 127.233 6.51959C127.515 5.88375 127.907 5.40581 128.408 5.08579C128.904 4.76576 129.477 4.60575 130.126 4.60575C130.631 4.60575 131.075 4.70681 131.458 4.90893C131.837 5.11105 132.149 5.38897 132.393 5.74268C132.633 6.09218 132.804 6.49222 132.905 6.94278L133.031 6.94278C133.052 6.45011 133.191 5.98902 133.448 5.55951C133.705 5.12579 134.065 4.77418 134.528 4.50469C134.987 4.23519 135.534 4.10044 136.17 4.10044C136.857 4.10044 137.469 4.27098 138.008 4.61207C138.543 4.94893 138.966 5.44792 139.278 6.10903C139.59 6.77013 139.745 7.58494 139.745 8.55344L139.745 14.0802ZM137.509 11.3452L137.509 9.11559C137.509 8.35342 137.364 7.79758 137.074 7.44808C136.779 7.09858 136.387 6.92383 135.899 6.92383C135.541 6.92383 135.225 7.01015 134.951 7.1828C134.678 7.35544 134.463 7.60178 134.307 7.92181C134.151 8.23762 134.073 8.61449 134.073 9.05242L134.073 11.3452L137.509 11.3452ZM132.223 11.3452L132.223 9.31771C132.223 8.94294 132.157 8.61028 132.027 8.31973C131.892 8.02497 131.703 7.79337 131.458 7.62494C131.214 7.45229 130.921 7.36597 130.58 7.36597C130.113 7.36597 129.736 7.5323 129.45 7.86496C129.163 8.19341 129.02 8.66081 129.02 9.26718L129.02 11.3452L132.223 11.3452Z" fill="white"/>
<path d="M139.745 22.4352L139.745 27.0209L126.81 27.0209L126.81 22.3973C126.81 21.0962 127.069 19.9761 127.586 19.0371C128.1 18.098 128.839 17.3759 129.803 16.8706C130.768 16.3611 131.922 16.1063 133.265 16.1063C134.612 16.1063 135.77 16.3611 136.739 16.8706C137.707 17.3759 138.451 18.1023 138.968 19.0497C139.486 19.9929 139.745 21.1214 139.745 22.4352ZM137.402 24.2859L137.402 22.5489C137.402 21.7404 137.259 21.0604 136.972 20.5088C136.682 19.9529 136.233 19.5361 135.627 19.2581C135.017 18.976 134.229 18.8349 133.265 18.8349C132.309 18.8349 131.528 18.976 130.921 19.2581C130.315 19.5361 129.869 19.9508 129.582 20.5025C129.296 21.0541 129.153 21.7341 129.153 22.5426L129.153 24.2859L137.402 24.2859Z" fill="white"/>
</g>
<defs>
<clipPath id="clip0_1849_168">
<rect width="143" height="46" fill="white"/>
</clipPath>
</defs>
</svg>
