<svg width="143" height="46" viewBox="0 0 143 46" fill="none" xmlns="http://www.w3.org/2000/svg">
<g clip-path="url(#clip0)">
<path d="M27.027 6.66516V23.5343L13.7859 29.1582V21.7203L21.2225 18.6367V9.02363L27.027 6.66516Z" fill="#7272E9"/>
<path d="M13.7859 0.861938L27.027 6.66511L21.2225 9.02358L13.7859 5.75947L6.34928 9.02358L0.725342 6.66511L13.7859 0.861938Z" fill="#7272E9"/>
<path d="M13.7859 21.7203V29.1582L0.725342 23.5343V6.66516L6.34928 9.02363V18.6367L13.7859 21.7203Z" fill="#7272E9"/>
<path d="M27.9339 6.66647V6.48453V6.30259L27.7519 6.122L14.1483 0.135534C14.0477 0.0481327 13.919 0 13.7858 0C13.6525 0 13.5238 0.0481327 13.4232 0.135534L0.182117 5.75948L0.000173868 5.94006V6.122V6.30259V23.1717C-0.00331436 23.3586 0.0457463 23.5427 0.141767 23.703C0.237787 23.8634 0.376908 23.9935 0.543288 24.0787L13.6025 29.7026H14.6887L27.7479 24.0787C27.9144 23.9938 28.0537 23.8637 28.1498 23.7033C28.2458 23.5429 28.2948 23.3586 28.291 23.1717L27.9284 6.66647H27.9339ZM13.7858 1.94953L24.4878 6.66647L21.2223 8.11659L14.1483 5.03306C14.0477 4.94566 13.919 4.89753 13.7858 4.89753C13.6525 4.89753 13.5238 4.94566 13.4232 5.03306L6.34917 7.936H6.16723L3.0837 6.66647L13.7858 1.94953ZM12.8788 27.7067L1.63223 22.8037V7.936L5.44217 9.56534V18.4588C5.43853 18.6457 5.48752 18.8299 5.58356 18.9903C5.67959 19.1507 5.81881 19.2808 5.98529 19.3658L12.8788 22.2606V27.7067ZM13.7858 20.8146L7.25617 18.099V9.75L13.7858 6.84706L20.3153 9.75V18.0936L13.7858 20.8146ZM25.9393 22.8037L14.6928 27.7013V22.4466L21.5849 19.5451C21.7516 19.4603 21.8909 19.3302 21.987 19.1698C22.0831 19.0093 22.1319 18.825 22.128 18.6381V9.56806L25.9379 7.93872L25.9393 22.8037Z" fill="#4949A3"/>
<path d="M21.2225 18.6367V9.02364L13.7859 5.75952V15.3726L21.2225 18.6367Z" fill="white"/>
<path d="M21.2223 18.6367L13.7857 15.3726L6.34912 18.6367L13.7857 21.7202L21.2223 18.6367Z" fill="white"/>
<path d="M13.7857 15.3726V5.75952L6.34912 9.02364V18.6367L13.7857 15.3726Z" fill="white"/>
<path d="M21.5848 8.11661L14.1482 5.03308H13.0619L5.98789 8.11661C5.624 8.29855 5.26147 8.65972 5.26147 9.02361V18.6367C5.26147 19.0006 5.44342 19.3631 5.98789 19.5437L13.4231 22.8038C13.5227 22.8931 13.6518 22.9425 13.7856 22.9425C13.9194 22.9425 14.0485 22.8931 14.1482 22.8038L21.5848 19.5451C21.9486 19.3645 22.3112 19.002 22.3112 18.6381V9.02497C22.3112 8.66108 21.9486 8.29855 21.5848 8.11661ZM7.26149 9.75002L12.8841 7.39155V15.0101L7.26149 17.3726V9.75002ZM13.7911 20.8146L8.7116 18.6422L13.7911 16.4697L18.8705 18.6422L13.7911 20.8146ZM20.3207 17.1866L14.6981 14.8281V7.20961L20.3207 9.56808V17.1866Z" fill="#4949A3"/>
<path d="M142.592 3.91147V26.5729C142.583 26.6503 142.572 26.7277 142.562 26.8051C142.482 27.5062 142.139 28.1509 141.602 28.6096C141.071 29.0801 140.382 29.334 139.673 29.321H125.874C125.265 29.3136 124.675 29.1055 124.197 28.7291C123.839 28.4619 123.55 28.1131 123.354 27.7115C123.158 27.31 123.061 26.8674 123.071 26.4208C123.071 20.7697 123.071 15.1195 123.071 9.47024V4.0391C123.063 3.49579 123.215 2.96206 123.508 2.50481C123.769 2.07643 124.138 1.72492 124.579 1.48632C125.019 1.24772 125.515 1.13062 126.016 1.14702C130.557 1.14702 135.097 1.14702 139.638 1.14702C139.835 1.14694 140.031 1.16329 140.226 1.1959C140.807 1.30251 141.342 1.58565 141.758 2.00687C142.173 2.42809 142.449 2.96697 142.547 3.5503C142.564 3.67793 142.577 3.7947 142.592 3.91147ZM125.028 15.2354C125.028 18.9467 125.028 22.6539 125.028 26.357C125.025 26.426 125.029 26.4951 125.039 26.5634C125.075 26.7769 125.187 26.9702 125.355 27.1078C125.522 27.2455 125.733 27.3183 125.95 27.3129H139.682C139.808 27.3164 139.934 27.2938 140.051 27.2466C140.168 27.1993 140.273 27.1283 140.362 27.0382C140.45 26.948 140.518 26.8406 140.563 26.7226C140.607 26.6047 140.627 26.4788 140.621 26.3529C140.621 23.9524 140.621 21.5536 140.621 19.1567C140.621 14.1546 140.621 9.15297 140.621 4.1518C140.623 4.04571 140.611 3.93982 140.585 3.83679C140.533 3.64103 140.416 3.4689 140.253 3.34872C140.089 3.22853 139.89 3.16746 139.688 3.17555H126.789C126.496 3.17555 126.202 3.16741 125.909 3.17555C125.789 3.17928 125.671 3.20553 125.56 3.25294C125.394 3.3231 125.254 3.44276 125.158 3.5956C125.063 3.74844 125.017 3.92703 125.026 4.10699C125.029 7.81646 125.03 11.5259 125.028 15.2354Z" fill="#7272E9"/>
<path d="M139.214 14.1872H126.505C126.505 14.1601 126.505 14.137 126.505 14.1125C126.505 12.2361 126.505 10.361 126.505 8.48452C126.492 7.76047 126.695 7.04895 127.086 6.4397C127.297 6.11147 127.575 5.83243 127.903 5.62157C128.231 5.4107 128.601 5.27295 128.987 5.21769C129.613 5.11603 130.254 5.17538 130.85 5.39013C131.698 5.69427 132.227 6.3012 132.479 7.15525C132.494 7.20413 132.502 7.25572 132.52 7.3046C132.532 7.32834 132.547 7.35028 132.565 7.36977C132.582 7.3505 132.595 7.32845 132.604 7.3046C132.651 6.99246 132.739 6.68793 132.866 6.39896C133.049 5.96411 133.338 5.58213 133.707 5.28799C134.076 4.99384 134.513 4.79694 134.978 4.71531C135.675 4.5621 136.402 4.61977 137.066 4.88096C137.88 5.20411 138.424 5.80561 138.777 6.5972C138.986 7.07327 139.116 7.58063 139.161 8.09891C139.195 8.48859 139.214 8.88099 139.215 9.27203C139.215 10.8769 139.215 12.4818 139.215 14.0867L139.214 14.1872ZM137.188 11.1594C137.188 11.1281 137.188 11.1023 137.188 11.0765C137.188 10.6244 137.188 10.1736 137.188 9.71874C137.187 9.53893 137.168 9.35966 137.131 9.18378C137.087 8.91962 136.974 8.67178 136.803 8.46514C136.633 8.2585 136.411 8.10035 136.16 8.00658C135.823 7.88864 135.461 7.8624 135.111 7.93054C134.873 7.95694 134.647 8.05143 134.462 8.20266C134.276 8.3539 134.138 8.55548 134.064 8.78323C133.97 9.06136 133.924 9.35333 133.928 9.64678C133.928 10.1274 133.928 10.6081 133.928 11.0887C133.929 11.111 133.931 11.1332 133.935 11.1553L137.188 11.1594ZM128.468 11.1594H131.54C131.54 11.1336 131.54 11.1132 131.54 11.0942C131.54 10.7221 131.54 10.3501 131.54 9.97808C131.537 9.80104 131.517 9.62467 131.481 9.45126C131.446 9.22599 131.354 9.01345 131.213 8.83381C131.073 8.65417 130.889 8.51338 130.679 8.42478C130.395 8.30702 130.087 8.2604 129.781 8.289C129.542 8.29757 129.31 8.37244 129.111 8.50526C128.911 8.63808 128.753 8.82363 128.653 9.04121C128.526 9.31223 128.462 9.60831 128.466 9.90747C128.466 10.3012 128.466 10.6963 128.466 11.0901C128.466 11.1118 128.467 11.1268 128.468 11.1566V11.1594Z" fill="#7272E9"/>
<path d="M139.214 25.4433H126.501V25.3632C126.501 23.6985 126.501 22.0352 126.501 20.372C126.491 19.6205 126.655 18.877 126.98 18.1995C127.378 17.4032 128.027 16.7603 128.827 16.3706C129.418 16.077 130.049 15.8725 130.701 15.7636C131.601 15.6111 132.515 15.5587 133.427 15.6075C134.314 15.6277 135.194 15.7707 136.042 16.0325C136.617 16.2077 137.157 16.4836 137.636 16.8471C138.354 17.4074 138.855 18.1991 139.055 19.0875C139.164 19.5479 139.217 20.0197 139.212 20.4928C139.212 22.1122 139.212 23.7316 139.212 25.3509L139.214 25.4433ZM128.487 22.391H137.142C137.18 22.391 137.193 22.3747 137.192 22.338C137.184 21.8506 137.192 21.3618 137.162 20.8757C137.145 20.6171 137.076 20.3646 136.96 20.1332C136.843 19.9018 136.681 19.6962 136.483 19.5288C136.128 19.2286 135.711 19.0116 135.261 18.8933C134.668 18.7299 134.057 18.6387 133.442 18.6218C132.637 18.5705 131.829 18.6092 131.033 18.7372C130.553 18.8096 130.088 18.9635 129.659 19.192C129.312 19.3721 129.021 19.6429 128.816 19.9755C128.611 20.3081 128.5 20.6901 128.495 21.0807C128.475 21.4948 128.486 21.909 128.482 22.3231C128.482 22.3394 128.486 22.3611 128.487 22.3964V22.391Z" fill="#7272E9"/>
<path d="M66.8685 23.2627C66.8723 23.5655 66.7579 23.8577 66.5495 24.0774C66.4519 24.1888 66.3314 24.2777 66.1961 24.338C66.0608 24.3982 65.9141 24.4284 65.766 24.4263H62.5752C62.4271 24.4285 62.2804 24.3984 62.1451 24.3381C62.0098 24.2778 61.8892 24.1889 61.7918 24.0774C61.5829 23.8581 61.4683 23.5656 61.4727 23.2627V1.10095H58.4679C56.8811 3.36393 55.2903 5.62328 53.6953 7.87901V22.3353C53.6953 22.4263 53.7102 22.5023 53.7116 22.5933C54.7924 24.1321 55.8718 25.671 56.9499 27.2098C57.5446 28.057 58.1384 28.9057 58.7313 29.7556C59.4416 29.9135 60.1667 29.9954 60.8943 30H62.1163C64.5531 30 66.3711 29.3211 67.5705 27.9634V29.4148H74.6486V1.10095H66.8685V23.2627Z" fill="#4949A3"/>
<path d="M120.319 18.0107V8.84432C120.319 3.73815 117.92 1.18506 113.123 1.18506H106.569C101.771 1.18506 99.3723 3.73815 99.3723 8.84432V22.3353C99.3723 27.4405 101.771 29.9932 106.569 29.9932H113.124C117.921 29.9932 120.32 27.4405 120.32 22.3353V20.1302H112.544V23.2626C112.548 23.5654 112.434 23.8577 112.225 24.0773C112.128 24.1887 112.007 24.2776 111.872 24.3379C111.736 24.3981 111.59 24.4283 111.442 24.4263H108.251C108.103 24.4283 107.956 24.3981 107.821 24.3379C107.686 24.2776 107.565 24.1887 107.467 24.0773C107.259 23.858 107.144 23.5655 107.148 23.2626V18.0107H120.319ZM107.148 7.68342C107.144 7.38064 107.259 7.0883 107.467 6.86874C107.565 6.75732 107.686 6.6684 107.821 6.60815C107.956 6.5479 108.103 6.51775 108.251 6.51979H111.442C111.59 6.51775 111.736 6.5479 111.872 6.60815C112.007 6.6684 112.128 6.75732 112.225 6.86874C112.433 7.08869 112.547 7.38077 112.544 7.68342V12.9055H107.148V7.68342Z" fill="#4949A3"/>
<path d="M51.5702 10.0582L51.5715 10.0825L51.554 10.0744L51.5702 10.0582Z" fill="white"/>
<path d="M50.2682 10.0745C50.556 9.73369 50.871 9.41189 51.129 9.04801C52.7584 6.75607 54.3759 4.45824 55.9817 2.15454C56.2044 1.83682 56.4122 1.50823 56.6742 1.11176H56.1569C53.5513 1.11176 50.943 1.17014 48.3388 1.08596C47.1724 1.0493 46.4664 1.34666 45.7766 2.38265C43.3788 5.97942 40.8194 9.46756 38.3346 13.0059C37.1751 14.657 37.2009 15.8804 38.374 17.5314C38.6374 17.9008 38.894 18.2755 39.1574 18.6448C40.7488 20.8729 42.3496 23.0929 43.9287 25.3292C44.7637 26.5132 45.5675 27.7189 46.3727 28.9246C46.4572 29.0736 46.5824 29.1956 46.7337 29.2761C46.8849 29.3566 47.0559 29.3925 47.2268 29.3795C50.2003 29.3605 53.1738 29.37 56.1474 29.37H56.6511C56.5479 29.1799 56.4936 29.0536 56.4162 28.9423C55.7636 28.0054 55.1082 27.0694 54.4502 26.1344C52.366 23.1635 50.2736 20.2008 48.2044 17.2219C47.554 16.2864 47.2675 15.2314 47.7672 14.1533C48.1338 13.359 48.6579 12.6366 49.1249 11.8885C49.5051 11.2734 49.9016 10.6665 50.2913 10.0582L50.2682 10.0745ZM30.1961 15.2477C30.1961 19.7406 30.2029 24.2335 30.1852 28.7264C30.1852 29.2152 30.287 29.389 30.8125 29.3822C33.0854 29.3523 35.3584 29.3523 37.6313 29.3822C38.1174 29.3822 38.2084 29.2192 38.2043 28.7793C38.1853 26.2796 38.2043 23.7786 38.1812 21.2789C38.1622 20.9568 38.0577 20.6456 37.8784 20.3774C37.4398 19.6849 36.9375 19.0332 36.4826 18.3502C35.2429 16.486 35.0542 14.5484 36.211 12.5878C36.6795 11.7934 37.228 11.044 37.7711 10.2972C38.0656 9.90703 38.218 9.42797 38.2029 8.93939C38.1812 6.52706 38.1812 4.11427 38.2029 1.70104C38.2029 1.24754 38.0943 1.09411 37.6231 1.09954C35.3502 1.12126 33.0777 1.12126 30.8057 1.09954C30.3305 1.09954 30.1825 1.21631 30.1838 1.71326C30.2083 6.22653 30.1961 10.7371 30.1961 15.2477Z" fill="#7272E9"/>
<path d="M90.4585 7.2232H89.2365C87.303 7.2232 85.719 7.68756 84.4843 8.61628V1.24487H76.7083V29.4121H83.2636V27.3238C84.463 29.108 86.4549 30 89.2392 30H90.4613C95.2588 30 97.6575 27.4469 97.6575 22.3408V14.8825C97.6539 9.77628 95.2542 7.2232 90.4585 7.2232ZM89.2067 23.2627C89.2102 23.5654 89.0957 23.8576 88.8876 24.0774C88.7901 24.1888 88.6695 24.2777 88.5342 24.338C88.3989 24.3982 88.2522 24.4284 88.1041 24.4263H84.9133C84.7653 24.4285 84.6185 24.3983 84.4832 24.3381C84.3479 24.2778 84.2274 24.1889 84.1299 24.0774C83.9212 23.8579 83.8067 23.5655 83.8108 23.2627V13.9537C83.8069 13.651 83.9214 13.3586 84.1299 13.1391C84.2274 13.0276 84.3479 12.9386 84.4832 12.8783C84.6185 12.8181 84.7653 12.788 84.9133 12.7901H88.1041C88.2522 12.7881 88.3989 12.8182 88.5342 12.8785C88.6695 12.9387 88.7901 13.0276 88.8876 13.1391C89.0955 13.359 89.2099 13.6511 89.2067 13.9537V23.2627Z" fill="#4949A3"/>
<path d="M5.98633 39.9395H2.48242V42.5645H6.57812V43.748H1V35.2168H6.53711V36.4121H2.48242V38.7676H5.98633V39.9395Z" fill="#FC6011"/>
<path d="M18.6688 37.4082L18.7098 38.1406C19.1785 37.5742 19.7938 37.291 20.5555 37.291C21.8758 37.291 22.5477 38.0469 22.5711 39.5586V43.748H21.1473V39.6406C21.1473 39.2383 21.0594 38.9414 20.8836 38.75C20.7117 38.5547 20.4285 38.457 20.034 38.457C19.4598 38.457 19.032 38.7168 18.7508 39.2363V43.748H17.327V37.4082H18.6688Z" fill="#FC6011"/>
<path d="M35.5113 35.8672V37.4082H36.6305V38.4629H35.5113V42.002C35.5113 42.2441 35.5582 42.4199 35.652 42.5293C35.7496 42.6348 35.9215 42.6875 36.1676 42.6875C36.3316 42.6875 36.4977 42.668 36.6656 42.6289V43.7305C36.3414 43.8203 36.0289 43.8652 35.7281 43.8652C34.6344 43.8652 34.0875 43.2617 34.0875 42.0547V38.4629H33.0445V37.4082H34.0875V35.8672H35.5113Z" fill="#FC6011"/>
<path d="M50.2152 43.8652C49.3129 43.8652 48.5805 43.582 48.018 43.0156C47.4594 42.4453 47.1801 41.6875 47.1801 40.7422V40.5664C47.1801 39.9336 47.3012 39.3691 47.5434 38.873C47.7895 38.373 48.1332 37.9844 48.5746 37.707C49.016 37.4297 49.5082 37.291 50.0512 37.291C50.9145 37.291 51.5805 37.5664 52.0492 38.1172C52.5219 38.668 52.7582 39.4473 52.7582 40.4551V41.0293H48.6156C48.6586 41.5527 48.8324 41.9668 49.1371 42.2715C49.4457 42.5762 49.8324 42.7285 50.2973 42.7285C50.9496 42.7285 51.4809 42.4648 51.891 41.9375L52.6586 42.6699C52.4047 43.0488 52.0648 43.3438 51.6391 43.5547C51.2172 43.7617 50.7426 43.8652 50.2152 43.8652ZM50.0453 38.4336C49.6547 38.4336 49.3383 38.5703 49.0961 38.8438C48.8578 39.1172 48.7055 39.498 48.6391 39.9863H51.352V39.8809C51.3207 39.4043 51.1937 39.0449 50.9711 38.8027C50.7484 38.5566 50.4398 38.4336 50.0453 38.4336Z" fill="#FC6011"/>
<path d="M66.8879 38.709C66.7004 38.6777 66.507 38.6621 66.3078 38.6621C65.6555 38.6621 65.216 38.9121 64.9895 39.4121V43.748H63.5656V37.4082H64.925L64.9602 38.1172C65.3039 37.5664 65.7805 37.291 66.3898 37.291C66.593 37.291 66.7609 37.3184 66.8938 37.373L66.8879 38.709Z" fill="#FC6011"/>
<path d="M83.0391 40.6426C83.0391 41.623 82.8164 42.4062 82.3711 42.9922C81.9258 43.5742 81.3281 43.8652 80.5781 43.8652C79.8828 43.8652 79.3262 43.6367 78.9082 43.1797V46.1855H77.4844V37.4082H78.7969L78.8555 38.0527C79.2734 37.5449 79.8418 37.291 80.5605 37.291C81.334 37.291 81.9395 37.5801 82.377 38.1582C82.8184 38.7324 83.0391 39.5312 83.0391 40.5547V40.6426ZM81.6211 40.5195C81.6211 39.8867 81.4941 39.3848 81.2402 39.0137C80.9902 38.6426 80.6309 38.457 80.1621 38.457C79.5801 38.457 79.1621 38.6973 78.9082 39.1777V41.9902C79.166 42.4824 79.5879 42.7285 80.1738 42.7285C80.627 42.7285 80.9805 42.5469 81.2344 42.1836C81.4922 41.8164 81.6211 41.2617 81.6211 40.5195Z" fill="#FC6011"/>
<path d="M97.2684 38.709C97.0809 38.6777 96.8875 38.6621 96.6883 38.6621C96.0359 38.6621 95.5965 38.9121 95.3699 39.4121V43.748H93.9461V37.4082H95.3055L95.3406 38.1172C95.6844 37.5664 96.1609 37.291 96.7703 37.291C96.9734 37.291 97.1414 37.3184 97.2742 37.373L97.2684 38.709Z" fill="#FC6011"/>
<path d="M109.382 43.748H107.959V37.4082H109.382V43.748ZM107.871 35.7617C107.871 35.543 107.939 35.3613 108.076 35.2168C108.216 35.0723 108.416 35 108.673 35C108.931 35 109.13 35.0723 109.271 35.2168C109.412 35.3613 109.482 35.543 109.482 35.7617C109.482 35.9766 109.412 36.1562 109.271 36.3008C109.13 36.4414 108.931 36.5117 108.673 36.5117C108.416 36.5117 108.216 36.4414 108.076 36.3008C107.939 36.1562 107.871 35.9766 107.871 35.7617Z" fill="#FC6011"/>
<path d="M124.192 42.0254C124.192 41.7715 124.086 41.5781 123.875 41.4453C123.668 41.3125 123.323 41.1953 122.838 41.0938C122.354 40.9922 121.95 40.8633 121.625 40.707C120.914 40.3633 120.559 39.8652 120.559 39.2129C120.559 38.666 120.789 38.209 121.25 37.8418C121.711 37.4746 122.297 37.291 123.008 37.291C123.766 37.291 124.377 37.4785 124.842 37.8535C125.311 38.2285 125.545 38.7148 125.545 39.3125H124.121C124.121 39.0391 124.02 38.8125 123.817 38.6328C123.614 38.4492 123.344 38.3574 123.008 38.3574C122.696 38.3574 122.44 38.4297 122.241 38.5742C122.045 38.7188 121.948 38.9121 121.948 39.1543C121.948 39.373 122.039 39.543 122.223 39.6641C122.407 39.7852 122.778 39.9082 123.336 40.0332C123.895 40.1543 124.332 40.3008 124.649 40.4727C124.969 40.6406 125.205 40.8438 125.358 41.082C125.514 41.3203 125.592 41.6094 125.592 41.9492C125.592 42.5195 125.356 42.9824 124.883 43.3379C124.411 43.6895 123.791 43.8652 123.026 43.8652C122.506 43.8652 122.043 43.7715 121.637 43.584C121.231 43.3965 120.914 43.1387 120.688 42.8105C120.461 42.4824 120.348 42.1289 120.348 41.75H121.731C121.75 42.0859 121.877 42.3457 122.112 42.5293C122.346 42.709 122.657 42.7988 123.043 42.7988C123.418 42.7988 123.704 42.7285 123.899 42.5879C124.094 42.4434 124.192 42.2559 124.192 42.0254Z" fill="#FC6011"/>
<path d="M139.329 43.8652C138.427 43.8652 137.695 43.582 137.132 43.0156C136.573 42.4453 136.294 41.6875 136.294 40.7422V40.5664C136.294 39.9336 136.415 39.3691 136.657 38.873C136.904 38.373 137.247 37.9844 137.689 37.707C138.13 37.4297 138.622 37.291 139.165 37.291C140.029 37.291 140.695 37.5664 141.163 38.1172C141.636 38.668 141.872 39.4473 141.872 40.4551V41.0293H137.73C137.773 41.5527 137.946 41.9668 138.251 42.2715C138.56 42.5762 138.946 42.7285 139.411 42.7285C140.064 42.7285 140.595 42.4648 141.005 41.9375L141.773 42.6699C141.519 43.0488 141.179 43.3438 140.753 43.5547C140.331 43.7617 139.857 43.8652 139.329 43.8652ZM139.159 38.4336C138.769 38.4336 138.452 38.5703 138.21 38.8438C137.972 39.1172 137.82 39.498 137.753 39.9863H140.466V39.8809C140.435 39.4043 140.308 39.0449 140.085 38.8027C139.863 38.5566 139.554 38.4336 139.159 38.4336Z" fill="#FC6011"/>
</g>
<defs>
<clipPath id="clip0">
<rect width="143" height="46" fill="white"/>
</clipPath>
</defs>
</svg>
