<svg xmlns="http://www.w3.org/2000/svg" viewBox="0 0 511 511" xmlns:v="https://vecta.io/nano"><g fill="#7272e9"><path d="M477.97 114.68V404.9l-227.8 96.74V373.69l127.94-53.05V155.25h0l99.86-40.57z"/><path d="M250.17 14.82l227.8 99.86-99.86 40.57h0L250.17 99.08l-127.95 56.17-96.74-40.57 224.69-99.86z"/><path d="M250.17 373.69v127.95L25.48 404.9V114.68l96.74 40.57h0v165.39l127.95 53.05z"/></g><path d="M493.57,114.68h0v-3.12h0v-3.12h0l-3.12-3.12h0l-234-103c-3.12-3.12-9.36-3.12-12.48,0L16.12,99.08h0L13,102.2h0v3.12h0v3.12h0V398.66a17.16,17.16,0,0,0,9.36,15.6L247.05,511h18.72l224.68-96.74a17.17,17.17,0,0,0,9.37-15.6l-6.25-284ZM250.17,33.55l184.11,81.13-56.17,25L256.41,86.6c-3.12-3.12-9.36-3.12-12.48,0L122.22,136.53H119.1l-53-21.85ZM234.56,476.67,41.09,392.42V136.53l65.53,28.08V317.52A17.18,17.18,0,0,0,116,333.13l118.58,49.92Zm15.61-118.58L137.82,311.28V167.73L250.17,117.8l112.34,49.93V311.28Zm209.08,34.33L265.77,476.67V386.18l118.58-49.93a17.17,17.17,0,0,0,9.36-15.61v-156l65.54-28.08Z" fill="#4949a3"/><g fill="#fff"><path d="M378.11 320.64V155.25L250.17 99.08v165.39l127.94 56.17z"/><path d="M378.11 320.64l-127.94-56.17-127.95 56.17 127.95 53.05 127.94-53.05z"/><path d="M250.17 264.47V99.08l-127.95 56.17v165.39h0l127.95-56.17z"/></g><path d="M384.35 139.65L256.41 86.6h-18.73L116 139.65c-6.24 3.12-12.48 9.36-12.48 15.6v165.39c0 6.24 3.12 12.49 12.48 15.61h0l128 56.17c3.12 3.12 9.36 3.12 12.48 0l127.94-56.17h0c6.24-3.12 12.49-9.37 12.49-15.61V155.25c-.07-6.25-6.32-12.48-12.56-15.6zm-246.53 28.08l96.74-40.57v131.07l-96.74 40.57zm112.35 190.36l-87.38-37.45 87.38-37.44h0l87.37 37.44zm112.34-62.41l-96.74-40.57V124l96.74 40.57z" fill="#4949a3"/></svg>