<svg id="Layer_1" data-name="Layer 1" xmlns="http://www.w3.org/2000/svg" viewBox="0 0 216 216"><defs><style>.cls-1{fill:#6c6fb4;}.cls-2{fill:#4b4ca0;}.cls-3{fill:#fff;}</style></defs><title>kubedb</title><polygon class="cls-1" points="163.23 43.49 163.23 117.32 105.28 141.93 105.28 109.38 137.82 95.88 137.82 53.81 137.82 53.81 163.23 43.49"/><polygon class="cls-1" points="105.28 18.08 163.23 43.49 137.82 53.81 137.82 53.81 105.28 39.52 72.72 53.81 48.12 43.49 105.28 18.08"/><polygon class="cls-1" points="105.28 109.38 105.28 141.93 48.12 117.32 48.12 43.49 72.72 53.81 72.72 53.81 72.72 95.88 105.28 109.38"/><path class="cls-2" d="M167.2,43.49h0v-.8h0V41.9h0l-.8-.8h0L106.86,14.91a2.39,2.39,0,0,0-3.17,0l-58,24.61h0l-.79.79h0v.79h0v.8h0v73.83a4.35,4.35,0,0,0,2.38,4l57.16,24.61h4.76L166.4,119.7a4.36,4.36,0,0,0,2.39-4L167.2,43.49ZM105.28,22.85l46.83,20.64-14.29,6.35-31-13.5a2.42,2.42,0,0,0-3.17,0L72.73,49h-.8L58.44,43.49Zm-4,112.73L52.08,114.14V49l16.68,7.15v38.9a4.37,4.37,0,0,0,2.38,4l30.17,12.7Zm4-30.17L76.69,93.5V57l28.59-12.7L133.86,57V93.5Zm53.19,8.73-49.23,21.44v-23l30.17-12.7a4.35,4.35,0,0,0,2.38-4V56.19L158.47,49Z"/><polygon class="cls-3" points="137.82 95.88 137.82 53.81 105.28 39.52 105.28 81.59 137.82 95.88"/><polygon class="cls-3" points="137.82 95.88 105.28 81.59 72.72 95.88 105.28 109.38 137.82 95.88"/><polygon class="cls-3" points="105.28 81.59 105.28 39.52 72.72 53.81 72.72 95.88 72.72 95.88 105.28 81.59"/><path class="cls-2" d="M139.41,49.84l-32.55-13.5H102.1l-31,13.5c-1.59.79-3.18,2.38-3.18,4V95.88c0,1.59.8,3.18,3.18,4h0l32.55,14.29a2.39,2.39,0,0,0,3.17,0l32.55-14.29h0c1.59-.79,3.18-2.38,3.18-4V53.81C142.59,52.22,141,50.63,139.41,49.84ZM76.69,57l24.62-10.32V80L76.69,90.33Zm28.59,48.43L83.05,95.88l22.23-9.52h0l22.22,9.52Zm28.58-15.88L109.24,79.21V45.87l24.62,10.32Z"/><path class="cls-1" d="M177,162.7V191c0,.1,0,.2,0,.3a3.47,3.47,0,0,1-1.19,2.25,3.56,3.56,0,0,1-2.41.89H156.14a3.41,3.41,0,0,1-2.1-.73,3.5,3.5,0,0,1-1.4-2.88V162.87a3.58,3.58,0,0,1,3.67-3.61h17a4.62,4.62,0,0,1,.74.06,3.59,3.59,0,0,1,2.89,2.94Zm-21.92,14.13v13.88a1.06,1.06,0,0,0,0,.25,1.12,1.12,0,0,0,1.13.94h17.14a1.09,1.09,0,0,0,.61-.16,1.12,1.12,0,0,0,.56-1V163a1.67,1.67,0,0,0,0-.39,1.12,1.12,0,0,0-1.12-.83h-16.1c-.36,0-.73,0-1.1,0a1.28,1.28,0,0,0-.43.1,1.09,1.09,0,0,0-.67,1.07Z"/><path class="cls-1" d="M172.78,175.52H156.93a.31.31,0,0,1,0-.09c0-2.35,0-4.69,0-7a4.52,4.52,0,0,1,.72-2.55,3.41,3.41,0,0,1,2.38-1.53,4.74,4.74,0,0,1,2.33.22,3.18,3.18,0,0,1,2,2.21c0,.06,0,.12.05.18a.56.56,0,0,0,.05.08s0,0,0-.08a4.89,4.89,0,0,1,.33-1.13,3.52,3.52,0,0,1,2.64-2.1,4.41,4.41,0,0,1,2.59.21,3.8,3.8,0,0,1,2.13,2.14,5.55,5.55,0,0,1,.48,1.87c0,.49.07,1,.07,1.47,0,2,0,4,0,6Zm-2.52-3.78v-.1c0-.57,0-1.13,0-1.69a3.71,3.71,0,0,0-.07-.67,1.94,1.94,0,0,0-1.21-1.47,2.44,2.44,0,0,0-1.31-.09,1.54,1.54,0,0,0-1.31,1.06,3.05,3.05,0,0,0-.17,1.08c0,.6,0,1.2,0,1.8,0,0,0,.05,0,.08Zm-10.88,0h3.83v-.08c0-.47,0-.93,0-1.4a4.93,4.93,0,0,0-.07-.66,1.71,1.71,0,0,0-1-1.28,2.36,2.36,0,0,0-1.12-.16,1.59,1.59,0,0,0-1.4.94,2.54,2.54,0,0,0-.24,1.08v1.48A.28.28,0,0,0,159.38,171.74Z"/><path class="cls-1" d="M172.78,189.57H156.92v-6.33a6.24,6.24,0,0,1,.6-2.72,5.1,5.1,0,0,1,2.31-2.28,8.27,8.27,0,0,1,2.33-.76,15.5,15.5,0,0,1,3.4-.19,11.71,11.71,0,0,1,3.27.53,6.37,6.37,0,0,1,2,1,4.93,4.93,0,0,1,1.77,2.79,7.47,7.47,0,0,1,.19,1.76v6.18Zm-13.38-3.81h10.8c.05,0,.06,0,.06-.07,0-.61,0-1.22,0-1.82a2.41,2.41,0,0,0-.83-1.69,4.11,4.11,0,0,0-1.54-.79,9.17,9.17,0,0,0-2.27-.34,13.78,13.78,0,0,0-3,.14,5.31,5.31,0,0,0-1.71.57,2.69,2.69,0,0,0-1.45,2.35c0,.52,0,1,0,1.55C159.39,185.69,159.4,185.72,159.4,185.76Z"/><path class="cls-2" d="M82.5,186.84a1.44,1.44,0,0,1-.4,1,1.26,1.26,0,0,1-1,.43h-4a1.25,1.25,0,0,1-1-.43,1.44,1.44,0,0,1-.4-1V159.19H72l-6,8.46v18c0,.11,0,.21,0,.32l4,5.76L72.35,195a13.12,13.12,0,0,0,2.69.29h1.52q4.56,0,6.81-2.53v1.81H92.2V159.19H82.5Z"/><path class="cls-2" d="M149.21,180.29V168.85q0-9.56-9-9.56h-8.18q-9,0-9,9.56v16.84q0,9.56,9,9.55h8.18q9,0,9-9.55v-2.76H139.5v3.91a1.48,1.48,0,0,1-.39,1,1.29,1.29,0,0,1-1,.43h-4a1.26,1.26,0,0,1-1-.43,1.44,1.44,0,0,1-.4-1v-6.55ZM132.77,167.4a1.44,1.44,0,0,1,.4-1,1.27,1.27,0,0,1,1-.44h4a1.3,1.3,0,0,1,1,.44,1.47,1.47,0,0,1,.39,1v6.52h-6.73Z"/><polygon class="cls-3" points="63.41 170.37 63.42 170.4 63.39 170.39 63.41 170.37"/><path class="cls-1" d="M61.79,170.39c.36-.43.75-.83,1.07-1.28,2-2.87,4-5.74,6.06-8.61.28-.39.54-.8.86-1.3h-.64c-3.25,0-6.51.07-9.76,0a3.21,3.21,0,0,0-3.2,1.62c-3,4.49-6.18,8.84-9.28,13.25-1.45,2.06-1.42,3.59.05,5.65.33.46.65.93,1,1.39,2,2.78,4,5.55,6,8.34,1,1.48,2,3,3,4.49a1.15,1.15,0,0,0,1.07.57c3.71,0,7.42,0,11.13,0h.63c-.13-.24-.2-.4-.29-.54L67,190.43c-2.6-3.71-5.21-7.41-7.79-11.13a3.72,3.72,0,0,1-.55-3.82,27.09,27.09,0,0,1,1.69-2.83c.48-.77,1-1.52,1.46-2.28Zm-25,6.45h0c0,5.61,0,11.22,0,16.82,0,.61.12.83.78.82q4.25-.06,8.51,0c.6,0,.72-.2.71-.75,0-3.12,0-6.24,0-9.36a2.33,2.33,0,0,0-.37-1.13c-.55-.86-1.18-1.68-1.75-2.53a6.33,6.33,0,0,1-.33-7.19c.58-1,1.27-1.93,1.94-2.86a2.61,2.61,0,0,0,.54-1.69q0-4.51,0-9c0-.57-.13-.76-.72-.75-2.84,0-5.67,0-8.51,0-.59,0-.78.15-.77.77C36.75,165.58,36.74,171.21,36.74,176.84Z"/><path class="cls-2" d="M111.94,166.83h-1.52a9.65,9.65,0,0,0-5.94,1.74v-9.2h-9.7v35.15H103v-2.61q2.25,3.33,7.46,3.33h1.52q9,0,9-9.55v-9.3Q120.92,166.82,111.94,166.83Zm-1.56,20a1.44,1.44,0,0,1-.4,1,1.26,1.26,0,0,1-1,.43h-4a1.25,1.25,0,0,1-1-.43,1.44,1.44,0,0,1-.4-1V175.23a1.44,1.44,0,0,1,.4-1,1.25,1.25,0,0,1,1-.43h4a1.26,1.26,0,0,1,1,.43,1.44,1.44,0,0,1,.4,1Z"/></svg>