<svg width="1280" height="640" viewBox="0 0 1280 640" fill="none" xmlns="http://www.w3.org/2000/svg">
<g clip-path="url(#clip0_5585_2256)">
<path d="M779.811 148.427V329.204L637.913 389.473V309.764L717.607 276.72V173.701L779.811 148.427Z" fill="#7272E9"/>
<path d="M637.913 86.2372L779.811 148.427L717.607 173.701L637.913 138.721L558.219 173.701L497.95 148.427L637.913 86.2372Z" fill="#7272E9"/>
<path d="M637.913 309.764V389.473L497.95 329.204V148.427L558.219 173.701V276.72L637.913 309.764Z" fill="#7272E9"/>
<path d="M789.53 148.441V146.491V144.542L787.58 142.606L641.797 78.4524C640.72 77.5158 639.34 77 637.912 77C636.485 77 635.105 77.5158 634.027 78.4524L492.129 138.721L490.18 140.656V142.606V144.542V325.319C490.142 327.321 490.668 329.294 491.697 331.013C492.726 332.731 494.217 334.126 496 335.039L635.948 395.307H647.589L787.537 335.039C789.322 334.129 790.815 332.734 791.844 331.015C792.874 329.296 793.398 327.322 793.357 325.319L789.472 148.441H789.53ZM637.912 97.8921L752.601 148.441L717.606 163.981L641.797 130.937C640.72 130 639.34 129.484 637.912 129.484C636.485 129.484 635.105 130 634.027 130.937L558.218 162.046H556.269L523.224 148.441L637.912 97.8921ZM628.193 373.918L507.669 321.376V162.046L548.499 179.507V274.813C548.46 276.816 548.985 278.79 550.014 280.509C551.043 282.228 552.535 283.622 554.319 284.533L628.193 315.555V373.918ZM637.912 300.059L567.938 270.958V181.486L637.912 150.376L707.886 181.486V270.899L637.912 300.059ZM768.155 321.376L647.632 373.86V317.549L721.491 286.454C723.278 285.546 724.771 284.151 725.801 282.432C726.831 280.713 727.354 278.738 727.312 276.734V179.536L768.141 162.075L768.155 321.376Z" fill="#4949A3"/>
<path d="M717.607 276.72V173.701L637.913 138.721V241.74L717.607 276.72Z" fill="white"/>
<path d="M717.607 276.72L637.913 241.74L558.219 276.72L637.913 309.764L717.607 276.72Z" fill="white"/>
<path d="M637.913 241.74V138.721L558.219 173.701V276.72L637.913 241.74Z" fill="white"/>
<path d="M721.49 163.981L641.797 130.937H630.156L554.347 163.981C550.448 165.931 546.562 169.802 546.562 173.701V276.72C546.562 280.619 548.512 284.504 554.347 286.44L634.026 321.376C635.094 322.333 636.478 322.862 637.912 322.862C639.345 322.862 640.729 322.333 641.797 321.376L721.49 286.454C725.39 284.519 729.275 280.634 729.275 276.734V173.716C729.275 169.816 725.39 165.931 721.49 163.981ZM567.996 181.486L628.25 156.211V237.855L567.996 263.173V181.486ZM637.97 300.059L583.536 276.778L637.97 253.497L692.404 276.778L637.97 300.059ZM707.944 261.18L647.69 235.905V154.261L707.944 179.536V261.18Z" fill="#4949A3"/>
</g>
<path d="M554.128 532.856C554.145 534.211 553.632 535.519 552.7 536.501C552.264 537 551.724 537.397 551.119 537.667C550.514 537.937 549.857 538.072 549.195 538.062H534.919C534.257 538.072 533.6 537.937 532.995 537.668C532.39 537.398 531.85 537 531.414 536.501C530.479 535.52 529.967 534.211 529.987 532.856V433.704H516.543C509.444 443.829 502.326 453.937 495.19 464.029V528.707C495.19 529.114 495.257 529.454 495.263 529.861C500.099 536.746 504.928 543.631 509.752 550.516C512.412 554.306 515.069 558.103 517.722 561.906C520.9 562.612 524.143 562.978 527.399 562.999H532.866C543.768 562.999 551.902 559.962 557.268 553.887V560.381H588.936V433.704H554.128V532.856Z" fill="#4949A3"/>
<path d="M793.264 509.359V468.349C793.264 445.504 782.532 434.081 761.068 434.081H731.745C710.281 434.081 699.549 445.504 699.549 468.349V528.707C699.549 551.548 710.281 562.969 731.745 562.969H761.074C782.538 562.969 793.27 551.548 793.27 528.707V518.842H758.48V532.856C758.497 534.211 757.985 535.519 757.052 536.501C756.616 537 756.077 537.398 755.471 537.667C754.866 537.937 754.21 538.072 753.547 538.063H739.272C738.609 538.072 737.953 537.937 737.347 537.667C736.742 537.398 736.203 537 735.766 536.501C734.832 535.52 734.319 534.211 734.339 532.856V509.359H793.264ZM734.339 463.155C734.321 461.8 734.833 460.492 735.766 459.51C736.203 459.012 736.742 458.614 737.347 458.344C737.953 458.075 738.609 457.94 739.272 457.949H753.547C754.21 457.94 754.866 458.075 755.471 458.344C756.077 458.614 756.616 459.012 757.052 459.51C757.983 460.494 758.494 461.801 758.48 463.155V486.518H734.339V463.155Z" fill="#4949A3"/>
<path d="M485.683 473.78L485.689 473.888L485.61 473.852L485.683 473.78Z" fill="white"/>
<path d="M479.858 473.853C481.145 472.328 482.555 470.888 483.709 469.26C490.999 459.006 498.236 448.725 505.42 438.419C506.416 436.997 507.346 435.527 508.518 433.753H506.204C494.546 433.753 482.877 434.014 471.225 433.638C466.007 433.474 462.848 434.804 459.762 439.439C449.034 455.531 437.583 471.137 426.467 486.968C421.279 494.355 421.394 499.828 426.643 507.215C427.821 508.867 428.97 510.544 430.148 512.196C437.268 522.165 444.43 532.097 451.495 542.102C455.231 547.4 458.827 552.794 462.429 558.188C462.807 558.855 463.367 559.401 464.044 559.761C464.721 560.121 465.486 560.282 466.25 560.223C479.554 560.138 492.858 560.181 506.161 560.181H508.415C507.953 559.33 507.71 558.765 507.364 558.267C504.444 554.076 501.512 549.888 498.568 545.705C489.243 532.413 479.882 519.158 470.624 505.83C467.714 501.645 466.432 496.925 468.668 492.101C470.308 488.547 472.653 485.316 474.743 481.968C476.444 479.217 478.217 476.501 479.961 473.78L479.858 473.853ZM390.055 496.997C390.055 517.099 390.085 537.2 390.006 557.301C390.006 559.488 390.462 560.266 392.813 560.236C402.982 560.102 413.151 560.102 423.32 560.236C425.495 560.236 425.902 559.507 425.884 557.538C425.799 546.355 425.884 535.165 425.78 523.981C425.695 522.54 425.228 521.148 424.426 519.948C422.463 516.85 420.216 513.934 418.181 510.878C412.635 502.538 411.79 493.869 416.966 485.097C419.062 481.543 421.516 478.19 423.946 474.849C425.263 473.103 425.945 470.96 425.877 468.774C425.78 457.981 425.78 447.187 425.877 436.39C425.877 434.361 425.391 433.674 423.284 433.699C413.114 433.796 402.947 433.796 392.782 433.699C390.656 433.699 389.994 434.221 390 436.444C390.109 456.637 390.055 476.817 390.055 496.997V496.997Z" fill="#7272E9"/>
<path d="M659.67 461.096H654.203C645.553 461.096 638.465 463.173 632.941 467.328V434.349H598.151V560.369H627.48V551.026C632.846 559.008 641.758 562.999 654.215 562.999H659.682C681.147 562.999 691.879 551.577 691.879 528.732V495.363C691.862 472.518 681.126 461.096 659.67 461.096ZM654.069 532.857C654.085 534.211 653.573 535.518 652.642 536.501C652.205 537 651.666 537.398 651.061 537.667C650.456 537.937 649.799 538.072 649.137 538.063H634.861C634.199 538.072 633.542 537.937 632.937 537.668C632.331 537.398 631.792 537 631.356 536.501C630.422 535.519 629.91 534.211 629.928 532.857V491.208C629.911 489.853 630.423 488.546 631.356 487.563C631.792 487.064 632.331 486.666 632.937 486.397C633.542 486.127 634.199 485.993 634.861 486.002H649.137C649.799 485.993 650.456 486.128 651.061 486.397C651.666 486.667 652.205 487.065 652.642 487.563C653.572 488.547 654.084 489.854 654.069 491.208V532.857Z" fill="#4949A3"/>
<path d="M802.295 443.344C802.295 437.689 806.88 433.104 812.535 433.104H880.008C885.664 433.104 890.248 437.689 890.248 443.344V552.208C890.248 557.863 885.664 562.448 880.008 562.448H812.535C806.88 562.448 802.295 557.863 802.295 552.208V443.344Z" fill="#4949A3"/>
<path d="M875.685 490.687L817.812 490.687L817.812 467.515C817.812 463.257 818.444 459.706 819.706 456.861C820.968 454.017 822.72 451.878 824.962 450.447C827.185 449.015 829.747 448.299 832.648 448.299C834.909 448.299 836.896 448.751 838.611 449.655C840.306 450.56 841.7 451.803 842.793 453.386C843.867 454.949 844.63 456.739 845.082 458.755L845.647 458.755C845.741 456.551 846.363 454.488 847.512 452.566C848.661 450.626 850.272 449.053 852.344 447.847C854.398 446.641 856.847 446.038 859.691 446.038C862.762 446.038 865.503 446.801 867.914 448.327C870.307 449.834 872.2 452.067 873.594 455.025C874.988 457.982 875.685 461.628 875.685 465.961L875.685 490.687ZM865.682 478.451L865.682 468.476C865.682 465.066 865.032 462.579 863.732 461.015C862.413 459.452 860.661 458.67 858.476 458.67C856.875 458.67 855.462 459.056 854.237 459.828C853.013 460.601 852.052 461.703 851.355 463.135C850.658 464.548 850.31 466.234 850.31 468.193L850.31 478.451L865.682 478.451ZM842.03 478.451L842.03 469.38C842.03 467.703 841.738 466.215 841.154 464.915C840.551 463.596 839.703 462.56 838.611 461.807C837.518 461.034 836.209 460.648 834.683 460.648C832.592 460.648 830.906 461.392 829.624 462.88C828.343 464.35 827.703 466.441 827.703 469.154L827.703 478.451L842.03 478.451Z" fill="white"/>
<path d="M875.685 528.066L875.685 548.581L817.812 548.581L817.812 527.896C817.812 522.075 818.971 517.064 821.288 512.863C823.587 508.662 826.893 505.431 831.207 503.17C835.521 500.891 840.683 499.751 846.692 499.751C852.721 499.751 857.902 500.891 862.235 503.17C866.567 505.431 869.893 508.68 872.21 512.919C874.527 517.139 875.685 522.188 875.685 528.066ZM865.202 536.345L865.202 528.574C865.202 524.957 864.561 521.915 863.28 519.447C861.98 516.96 859.974 515.095 857.261 513.852C854.529 512.59 851.007 511.958 846.692 511.958C842.416 511.958 838.921 512.59 836.209 513.852C833.496 515.095 831.499 516.951 830.218 519.419C828.937 521.887 828.296 524.929 828.296 528.546L828.296 536.345L865.202 536.345Z" fill="white"/>
<defs>
<clipPath id="clip0_5585_2256">
<rect width="318.307" height="318.307" fill="white" transform="translate(480.23 77)"/>
</clipPath>
</defs>
</svg>
