<svg id="Layer_1" data-name="Layer 1" xmlns="http://www.w3.org/2000/svg" viewBox="0 0 1279 639"><defs><style>.cls-1{fill:#7272e9;}.cls-2{fill:#4949a3;}.cls-3{fill:#fff;}</style></defs><title>kibedb-1280x1280</title><polygon class="cls-1" points="781.52 148.78 781.52 333.38 636.62 394.92 636.62 313.53 718 279.79 718 174.59 718 174.59 781.52 148.78"/><polygon class="cls-1" points="636.62 85.26 781.52 148.78 718 174.59 718 174.59 636.62 138.86 555.24 174.59 493.7 148.78 636.62 85.26"/><polygon class="cls-1" points="636.62 313.53 636.62 394.92 493.7 333.38 493.7 148.78 555.24 174.59 555.24 174.59 555.24 279.79 636.62 313.53"/><path class="cls-2" d="M791.45,148.78h0v-2h0v-2h0l-2-2h0L640.59,77.32a6,6,0,0,0-7.94,0l-144.9,61.54h0l-2,2h0v2h0v2h0v184.6a10.93,10.93,0,0,0,6,9.93l142.91,61.53h11.91l142.92-61.53a10.93,10.93,0,0,0,6-9.93l-4-180.63ZM636.62,97.17l117.11,51.61L718,164.66l-77.41-33.74a6,6,0,0,0-7.94,0l-77.42,31.76h-2l-33.74-13.9ZM626.69,379l-123.06-53.6V162.68l41.68,17.86V277.8a10.92,10.92,0,0,0,6,9.93l75.43,31.76Zm9.93-75.43-71.46-29.78v-91.3l71.46-31.76,71.46,31.76v91.3Zm133,21.83L646.54,379V321.47L722,289.71a10.91,10.91,0,0,0,6-9.92V180.54l41.68-17.86Z"/><polygon class="cls-3" points="718 279.79 718 174.59 636.62 138.86 636.62 244.06 718 279.79"/><polygon class="cls-3" points="718 279.79 636.62 244.06 555.24 279.79 636.62 313.53 718 279.79"/><polygon class="cls-3" points="636.62 244.06 636.62 138.86 555.24 174.59 555.24 279.79 555.24 279.79 636.62 244.06"/><path class="cls-2" d="M722,164.66l-81.38-33.74H628.68l-77.42,33.74c-4,2-7.94,6-7.94,9.93v105.2c0,4,2,7.94,7.94,9.92h0l81.39,35.73a6,6,0,0,0,7.94,0L722,289.71h0c4-2,7.94-5.95,7.94-9.92V174.59C729.91,170.62,725.94,166.65,722,164.66ZM565.16,182.53l61.53-25.81v83.37l-61.53,25.8Zm71.46,121.08L581,279.79,636.62,256h0l55.58,23.82Zm71.46-39.7-61.54-25.8V154.74l61.54,25.8Z"/><path class="cls-1" d="M888.28,446.68v99.87c0,.34-.09.68-.13,1a12.34,12.34,0,0,1-4.23,7.95,12.53,12.53,0,0,1-8.51,3.14H814.6a12.13,12.13,0,0,1-7.39-2.6,12.31,12.31,0,0,1-5-10.15q0-37.35,0-74.7V447.29a12.2,12.2,0,0,1,1.92-6.76,12.48,12.48,0,0,1,11.05-6h60a16,16,0,0,1,2.59.22,12.67,12.67,0,0,1,10.23,10.37C888.15,445.66,888.21,446.17,888.28,446.68Zm-77.4,49.9v49a4.63,4.63,0,0,0,0,.91,4,4,0,0,0,4,3.3h60.52a4.1,4.1,0,0,0,2.15-.55,4,4,0,0,0,2-3.68q0-15.87,0-31.75V447.71a5.32,5.32,0,0,0-.16-1.38,3.93,3.93,0,0,0-3.95-2.92H818.64c-1.29,0-2.58,0-3.88,0a4,4,0,0,0-1.53.34,3.85,3.85,0,0,0-2.36,3.76Q810.89,472.06,810.88,496.58Z"/><path class="cls-1" d="M873.39,492h-56c0-.12,0-.23,0-.33,0-8.27,0-16.54,0-24.8a16.14,16.14,0,0,1,2.56-9,12,12,0,0,1,8.4-5.39,16.49,16.49,0,0,1,8.21.76,11.12,11.12,0,0,1,7.18,7.8c.07.22.11.44.18.66a1.31,1.31,0,0,0,.2.28c.06-.09.16-.18.17-.29a15.81,15.81,0,0,1,1.16-4,12.44,12.44,0,0,1,9.3-7.43,15.89,15.89,0,0,1,9.15.73,13.53,13.53,0,0,1,7.55,7.57,20.78,20.78,0,0,1,1.69,6.61c.15,1.72.23,3.45.24,5.17,0,7.07,0,14.15,0,21.22Zm-8.93-13.35c0-.13,0-.25,0-.36,0-2,0-4,0-6a11.5,11.5,0,0,0-.25-2.35,6.71,6.71,0,0,0-4.28-5.19,8.85,8.85,0,0,0-4.62-.34,5.5,5.5,0,0,0-4.62,3.76,11.46,11.46,0,0,0-.6,3.81c0,2.11,0,4.23,0,6.35a2.83,2.83,0,0,0,0,.29Zm-38.42,0h13.53c0-.12,0-.2,0-.29,0-1.64,0-3.28,0-4.92a13,13,0,0,0-.26-2.32,5.89,5.89,0,0,0-3.54-4.52,8.22,8.22,0,0,0-3.95-.58,5.69,5.69,0,0,0-5,3.32,9,9,0,0,0-.82,3.81c0,1.74,0,3.48,0,5.21C826,478.41,826,478.5,826,478.61Z"/><path class="cls-1" d="M873.39,541.57h-56v-.35c0-7.34,0-14.67,0-22a21.47,21.47,0,0,1,2.11-9.58,17.8,17.8,0,0,1,8.14-8.06,29.48,29.48,0,0,1,8.26-2.67,54.2,54.2,0,0,1,12-.7,42.11,42.11,0,0,1,11.52,1.87,22.45,22.45,0,0,1,7,3.61,17.34,17.34,0,0,1,6.25,9.87,25.83,25.83,0,0,1,.69,6.19q0,10.71,0,21.41Zm-47.27-13.45h38.14c.17,0,.23-.07.22-.23,0-2.15,0-4.31-.13-6.45a8.5,8.5,0,0,0-3-5.93A13.79,13.79,0,0,0,856,512.7a34.51,34.51,0,0,0-8-1.22,48.3,48.3,0,0,0-10.61.51,18.68,18.68,0,0,0-6.05,2,9.49,9.49,0,0,0-5.13,8.32c-.09,1.82,0,3.65-.06,5.48C826.1,527.89,826.11,528,826.12,528.12Z"/><path class="cls-2" d="M554.55,532a5.14,5.14,0,0,1-1.4,3.58,4.53,4.53,0,0,1-3.46,1.54H535.63a4.52,4.52,0,0,1-3.45-1.54,5.1,5.1,0,0,1-1.4-3.58V434.29H517.54q-10.48,15-21,29.88v63.7c0,.41.07.74.08,1.14q7.14,10.17,14.26,20.35,3.95,5.61,7.86,11.22a45,45,0,0,0,9.51,1h5.37q16.11,0,24-9v6.4h31.19V434.29H554.55Z"/><path class="cls-2" d="M790.12,508.82v-40.4q0-33.75-31.7-33.75H729.53q-31.71,0-31.71,33.75v59.45q0,33.75,31.71,33.75h28.89q31.7,0,31.7-33.75v-9.71H755.86V532a5.11,5.11,0,0,1-1.41,3.58,4.52,4.52,0,0,1-3.45,1.54H736.94a4.49,4.49,0,0,1-3.45-1.54,5.11,5.11,0,0,1-1.41-3.58V508.82Zm-58-45.52a5.1,5.1,0,0,1,1.41-3.57,4.46,4.46,0,0,1,3.45-1.54H751a4.49,4.49,0,0,1,3.45,1.54,5.1,5.1,0,0,1,1.41,3.57v23H732.08Z"/><polygon class="cls-3" points="487.14 473.77 487.15 473.88 487.07 473.84 487.14 473.77"/><path class="cls-1" d="M481.41,473.84c1.27-1.5,2.66-2.92,3.79-4.52q10.74-15.15,21.39-30.38c1-1.4,1.9-2.85,3.05-4.6h-2.28c-11.48,0-23,.26-34.45-.11-5.14-.16-8.25,1.15-11.3,5.72-10.56,15.84-21.84,31.22-32.79,46.81-5.11,7.28-5,12.67.17,19.94,1.16,1.63,2.29,3.28,3.46,4.91,7,9.82,14.06,19.61,21,29.46,3.68,5.22,7.22,10.53,10.76,15.84a4,4,0,0,0,3.76,2c13.11-.09,26.21,0,39.32,0h2.22c-.46-.84-.7-1.4-1-1.89-2.87-4.13-5.77-8.25-8.66-12.38-9.19-13.08-18.41-26.14-27.54-39.27-2.86-4.13-4.12-8.77-1.92-13.52a94.63,94.63,0,0,1,6-10c1.68-2.71,3.42-5.38,5.14-8.07ZM393,496.64h0c0,19.8,0,39.6,0,59.4,0,2.15.45,2.92,2.76,2.89q15-.2,30,0c2.15,0,2.54-.71,2.53-2.65-.08-11,0-22-.11-33.06a8,8,0,0,0-1.33-4c-1.93-3-4.15-5.92-6.15-8.94-5.46-8.21-6.3-16.72-1.19-25.39,2.07-3.5,4.48-6.8,6.88-10.09a9.47,9.47,0,0,0,1.9-6q-.15-15.94,0-31.89c0-2-.48-2.68-2.56-2.66q-15,.15-30,0c-2.09,0-2.75.52-2.74,2.71C393,456.88,393,476.76,393,496.64Z"/><path class="cls-2" d="M658.53,461.28h-5.37q-12.79,0-21,6.13V434.93H597.93V559.06h28.89v-9.2q7.92,11.76,26.34,11.76h5.37q31.69,0,31.7-33.75V495Q690.23,461.28,658.53,461.28ZM653,532a5.11,5.11,0,0,1-1.41,3.58,4.49,4.49,0,0,1-3.45,1.54H634.09a4.49,4.49,0,0,1-3.45-1.54,5.11,5.11,0,0,1-1.41-3.58v-41a5.11,5.11,0,0,1,1.41-3.58,4.49,4.49,0,0,1,3.45-1.54h14.06a4.49,4.49,0,0,1,3.45,1.54,5.11,5.11,0,0,1,1.41,3.58Z"/></svg>