<svg width="1592" height="512" viewBox="0 0 1592 512" fill="none" xmlns="http://www.w3.org/2000/svg">
<g clip-path="url(#clip0_5585_2281)">
<path d="M75.4565 456.022C74.5 466.152 70.7609 474.065 64.2391 479.761C57.7174 485.413 49.0435 488.239 38.2174 488.239C30.6522 488.239 23.9783 486.456 18.1957 482.891C12.4565 479.283 8.02174 474.174 4.8913 467.565C1.76087 460.956 0.130435 453.283 0 444.543V435.674C0 426.717 1.58696 418.826 4.76087 412C7.93478 405.174 12.4783 399.913 18.3913 396.217C24.3478 392.522 31.2174 390.674 39 390.674C49.4783 390.674 57.913 393.522 64.3043 399.217C70.6956 404.913 74.413 412.956 75.4565 423.348H59.0217C58.2391 416.522 56.2391 411.609 53.0217 408.609C49.8478 405.565 45.1739 404.043 39 404.043C31.8261 404.043 26.3043 406.674 22.4348 411.935C18.6087 417.152 16.6522 424.826 16.5652 434.956V443.37C16.5652 453.63 18.3913 461.456 22.0435 466.848C25.7391 472.239 31.1304 474.935 38.2174 474.935C44.6956 474.935 49.5652 473.478 52.8261 470.565C56.087 467.652 58.1522 462.804 59.0217 456.022H75.4565Z" fill="#00A651"/>
<path d="M197.956 451C197.956 444.087 199.325 437.87 202.064 432.348C204.803 426.783 208.651 422.522 213.608 419.565C218.564 416.565 224.26 415.065 230.695 415.065C240.217 415.065 247.934 418.13 253.847 424.261C259.803 430.391 263.021 438.522 263.499 448.652L263.564 452.37C263.564 459.326 262.217 465.543 259.521 471.022C256.869 476.5 253.043 480.739 248.043 483.739C243.086 486.739 237.347 488.239 230.825 488.239C220.869 488.239 212.89 484.935 206.89 478.326C200.934 471.674 197.956 462.826 197.956 451.783V451ZM213.803 452.37C213.803 459.63 215.303 465.326 218.303 469.456C221.303 473.543 225.477 475.587 230.825 475.587C236.173 475.587 240.325 473.5 243.282 469.326C246.282 465.152 247.782 459.043 247.782 451C247.782 443.87 246.238 438.217 243.151 434.043C240.108 429.87 235.956 427.783 230.695 427.783C225.521 427.783 221.412 429.848 218.369 433.978C215.325 438.065 213.803 444.196 213.803 452.37Z" fill="#00A651"/>
<path d="M404.063 416.37L404.52 423.739C409.476 417.956 416.259 415.065 424.868 415.065C434.303 415.065 440.759 418.674 444.237 425.891C449.368 418.674 456.585 415.065 465.89 415.065C473.672 415.065 479.455 417.217 483.237 421.522C487.063 425.826 489.02 432.174 489.107 440.565V486.935H473.259V441.022C473.259 436.543 472.281 433.261 470.324 431.174C468.368 429.087 465.129 428.043 460.607 428.043C456.998 428.043 454.042 429.022 451.737 430.978C449.476 432.891 447.89 435.413 446.976 438.543L447.042 486.935H431.194V440.5C430.976 432.196 426.737 428.043 418.476 428.043C412.129 428.043 407.629 430.63 404.976 435.804V486.935H389.129V416.37H404.063Z" fill="#00A651"/>
<path d="M632.476 416.37L632.932 423.739C637.889 417.956 644.671 415.065 653.28 415.065C662.715 415.065 669.171 418.674 672.649 425.891C677.78 418.674 684.997 415.065 694.302 415.065C702.084 415.065 707.867 417.217 711.649 421.522C715.476 425.826 717.432 432.174 717.519 440.565V486.935H701.671V441.022C701.671 436.543 700.693 433.261 698.736 431.174C696.78 429.087 693.541 428.043 689.019 428.043C685.41 428.043 682.454 429.022 680.149 430.978C677.889 432.891 676.302 435.413 675.389 438.543L675.454 486.935H659.606V440.5C659.389 432.196 655.149 428.043 646.889 428.043C640.541 428.043 636.041 430.63 633.389 435.804V486.935H617.541V416.37H632.476Z" fill="#00A651"/>
<path d="M888.736 480.022C884.083 485.5 877.475 488.239 868.91 488.239C861.257 488.239 855.453 486 851.496 481.522C847.583 477.043 845.627 470.565 845.627 462.087V416.37H861.475V461.891C861.475 470.848 865.192 475.326 872.627 475.326C880.323 475.326 885.518 472.565 888.214 467.043V416.37H904.062V486.935H889.127L888.736 480.022Z" fill="#00A651"/>
<path d="M1047.1 416.37L1047.56 424.522C1052.78 418.217 1059.63 415.065 1068.1 415.065C1082.8 415.065 1090.28 423.478 1090.54 440.304V486.935H1074.69V441.217C1074.69 436.739 1073.71 433.435 1071.76 431.304C1069.84 429.13 1066.69 428.043 1062.3 428.043C1055.91 428.043 1051.15 430.935 1048.02 436.717V486.935H1032.17V416.37H1047.1Z" fill="#00A651"/>
<path d="M1235.8 486.935H1219.95V416.37H1235.8V486.935ZM1218.97 398.043C1218.97 395.609 1219.73 393.587 1221.26 391.978C1222.82 390.37 1225.04 389.565 1227.91 389.565C1230.78 389.565 1232.99 390.37 1234.56 391.978C1236.13 393.587 1236.91 395.609 1236.91 398.043C1236.91 400.435 1236.13 402.435 1234.56 404.043C1232.99 405.609 1230.78 406.391 1227.91 406.391C1225.04 406.391 1222.82 405.609 1221.26 404.043C1219.73 402.435 1218.97 400.435 1218.97 398.043Z" fill="#00A651"/>
<path d="M1385.17 399.217V416.37H1397.62V428.109H1385.17V467.5C1385.17 470.196 1385.69 472.152 1386.73 473.37C1387.82 474.543 1389.73 475.13 1392.47 475.13C1394.3 475.13 1396.15 474.913 1398.02 474.478V486.739C1394.41 487.739 1390.93 488.239 1387.58 488.239C1375.41 488.239 1369.32 481.522 1369.32 468.087V428.109H1357.71V416.37H1369.32V399.217H1385.17Z" fill="#00A651"/>
<path d="M1546.67 464.239L1561.01 416.37H1577.91L1549.86 497.63C1545.56 509.5 1538.25 515.435 1527.95 515.435C1525.65 515.435 1523.1 515.043 1520.32 514.261V502L1523.32 502.196C1527.32 502.196 1530.32 501.456 1532.32 499.978C1534.36 498.543 1535.97 496.109 1537.15 492.674L1539.43 486.609L1514.65 416.37H1531.73L1546.67 464.239Z" fill="#00A651"/>
<path d="M300.328 76.7614V264.215L153.189 326.71V244.058L235.827 209.793V102.969L300.328 76.7614Z" fill="#7272E9"/>
<path d="M153.194 12.2741L300.333 76.7605L235.832 102.968L153.194 66.6967L70.5572 102.968L8.0625 76.7605L153.194 12.2741Z" fill="#7272E9"/>
<path d="M153.194 244.058V326.71L8.0625 264.215V76.7614L70.5572 102.969V209.793L153.194 244.058Z" fill="#7272E9"/>
<path d="M310.408 76.7734V74.7516V72.7298L308.386 70.7231L157.219 4.19996C156.102 3.22874 154.671 2.69387 153.191 2.69387C151.71 2.69387 150.28 3.22874 149.162 4.19996L2.02374 66.6946L0.00193206 68.7013V70.7231V72.7298V260.184C-0.03683 262.26 0.508344 264.306 1.57535 266.088C2.64235 267.87 4.1883 269.316 6.03715 270.262L151.154 332.757H163.224L308.341 270.262C310.192 269.319 311.74 267.873 312.808 266.091C313.875 264.308 314.419 262.261 314.376 260.184L310.348 76.7734H310.408ZM153.191 24.3576L272.115 76.7734L235.828 92.8874L157.219 58.6225C156.102 57.6513 154.671 57.1164 153.191 57.1164C151.71 57.1164 150.28 57.6513 149.162 58.6225L70.5536 90.8807H68.5318L34.2669 76.7734L153.191 24.3576ZM143.112 310.578L18.1378 256.095V90.8807L60.4748 108.986V207.813C60.4343 209.89 60.9787 211.936 62.0459 213.719C63.1131 215.501 64.66 216.947 66.51 217.892L143.112 250.06V310.578ZM153.191 233.991L80.6324 203.815V111.038L153.191 78.7802L225.749 111.038V203.754L153.191 233.991ZM288.244 256.095L163.27 310.517V252.127L239.856 219.883C241.709 218.941 243.258 217.496 244.325 215.713C245.393 213.93 245.936 211.882 245.892 209.805V109.017L288.229 90.9109L288.244 256.095Z" fill="#4949A3"/>
<path d="M235.827 209.792V102.968L153.189 66.6968V173.52L235.827 209.792Z" fill="white"/>
<path d="M235.83 209.791L153.193 173.52L70.5557 209.791L153.193 244.056L235.83 209.791Z" fill="white"/>
<path d="M153.193 173.52V66.6968L70.5557 102.968V209.792L153.193 173.52Z" fill="white"/>
<path d="M239.856 92.8895L157.219 58.6246H145.149L66.5399 92.8895C62.4963 94.9113 58.4678 98.9248 58.4678 102.968V209.792C58.4678 213.835 60.4896 217.864 66.5399 219.87L149.162 256.097C150.269 257.089 151.704 257.638 153.19 257.638C154.677 257.638 156.112 257.089 157.219 256.097L239.856 219.886C243.9 217.879 247.928 213.85 247.928 209.807V102.983C247.928 98.9398 243.9 94.9113 239.856 92.8895ZM80.6925 111.04L143.172 84.8325V169.492L80.6925 195.745V111.04ZM153.251 233.993L96.8065 209.852L153.251 185.711L209.695 209.852L153.251 233.993ZM225.809 193.678L163.33 167.47V82.8107L225.809 109.019V193.678Z" fill="#4949A3"/>
<path d="M743.062 261.195C743.104 264.559 741.832 267.807 739.516 270.248C738.433 271.486 737.093 272.474 735.59 273.144C734.086 273.813 732.456 274.148 730.81 274.125H695.354C693.708 274.149 692.077 273.815 690.574 273.145C689.07 272.475 687.731 271.487 686.648 270.248C684.326 267.811 683.053 264.56 683.102 261.195V14.928H649.712C632.079 40.0747 614.401 65.1812 596.678 90.2474V250.89C596.678 251.901 596.844 252.746 596.859 253.757C608.869 270.856 620.864 287.956 632.844 305.056C639.452 314.471 646.051 323.901 652.639 333.346C660.532 335.1 668.589 336.01 676.675 336.062H690.254C717.332 336.062 737.535 328.518 750.862 313.43V329.559H829.516V14.928H743.062V261.195Z" fill="#4949A3"/>
<path d="M1337.01 202.835V100.976C1337.01 44.2346 1310.35 15.8641 1257.04 15.8641H1184.21C1130.9 15.8641 1104.24 44.2346 1104.24 100.976V250.89C1104.24 307.621 1130.9 335.987 1184.21 335.987H1257.06C1310.37 335.987 1337.02 307.621 1337.02 250.89V226.387H1250.61V261.196C1250.66 264.56 1249.38 267.808 1247.07 270.248C1245.98 271.487 1244.64 272.475 1243.14 273.144C1241.64 273.814 1240.01 274.149 1238.36 274.126H1202.9C1201.26 274.149 1199.63 273.814 1198.13 273.144C1196.62 272.475 1195.28 271.487 1194.2 270.248C1191.88 267.811 1190.6 264.561 1190.65 261.196V202.835H1337.01ZM1190.65 88.0754C1190.61 84.7109 1191.88 81.4623 1194.2 79.0226C1195.28 77.7844 1196.62 76.7963 1198.13 76.1268C1199.63 75.4573 1201.26 75.1223 1202.9 75.145H1238.36C1240.01 75.1223 1241.64 75.4573 1243.14 76.1268C1244.64 76.7963 1245.98 77.7844 1247.07 79.0226C1249.38 81.4667 1250.65 84.7124 1250.61 88.0754V146.104H1190.65V88.0754Z" fill="#4949A3"/>
<path d="M573.088 114.466L573.106 114.777L572.881 114.673L573.088 114.466Z" fill="white"/>
<path d="M558.59 114.645C561.788 110.858 565.289 107.283 568.155 103.239C586.261 77.7703 604.236 52.2363 622.08 26.6369C624.555 23.1063 626.863 19.455 629.775 15.0493H624.026C595.072 15.0493 566.088 15.6981 537.149 14.7627C524.189 14.3553 516.343 17.6596 508.678 29.1717C482.033 69.14 453.592 107.901 425.981 147.221C413.096 165.568 413.382 179.162 426.418 197.509C429.345 201.613 432.197 205.777 435.124 209.881C452.807 234.641 470.596 259.31 488.144 284.16C497.423 297.316 506.355 310.715 515.302 324.113C516.241 325.769 517.632 327.124 519.313 328.019C520.993 328.914 522.894 329.312 524.792 329.167C557.835 328.956 590.878 329.062 623.921 329.062H629.518C628.372 326.949 627.768 325.546 626.908 324.309C619.656 313.898 612.373 303.497 605.061 293.107C581.901 260.094 558.65 227.172 535.656 194.069C528.429 183.673 525.245 171.95 530.797 159.97C534.871 151.143 540.695 143.117 545.885 134.803C550.11 127.968 554.516 121.224 558.846 114.464L558.59 114.645ZM335.543 172.131C335.543 222.057 335.619 271.984 335.422 321.91C335.422 327.342 336.554 329.273 342.393 329.197C367.65 328.865 392.908 328.865 418.165 329.197C423.567 329.197 424.578 327.387 424.532 322.498C424.321 294.721 424.532 266.929 424.276 239.152C424.065 235.573 422.904 232.114 420.911 229.134C416.038 221.439 410.455 214.196 405.401 206.607C391.625 185.891 389.528 164.361 402.383 142.573C407.588 133.747 413.684 125.418 419.719 117.12C422.992 112.785 424.685 107.461 424.517 102.032C424.276 75.2255 424.276 48.414 424.517 21.5975C424.517 16.5581 423.31 14.8532 418.075 14.9135C392.817 15.1549 367.565 15.1549 342.318 14.9135C337.037 14.9135 335.392 16.2111 335.407 21.7333C335.679 71.886 335.543 122.008 335.543 172.131V172.131Z" fill="#7272E9"/>
<path d="M1005.2 82.9594H991.621C970.135 82.9594 952.533 88.1196 938.813 98.4398V16.5268H852.403V329.528H925.248V306.323C938.576 326.149 960.71 336.061 991.651 336.061H1005.23C1058.54 336.061 1085.2 307.691 1085.2 250.95V168.071C1085.16 111.33 1058.49 82.9594 1005.2 82.9594ZM991.289 261.194C991.328 264.558 990.056 267.805 987.743 270.247C986.659 271.486 985.32 272.474 983.816 273.143C982.313 273.813 980.683 274.148 979.037 274.125H943.58C941.935 274.149 940.304 273.814 938.801 273.144C937.297 272.475 935.958 271.486 934.875 270.247C932.556 267.808 931.283 264.559 931.329 261.194V157.751C931.285 154.386 932.557 151.138 934.875 148.698C935.958 147.459 937.297 146.47 938.801 145.801C940.304 145.131 941.935 144.797 943.58 144.82H979.037C980.683 144.798 982.313 145.133 983.816 145.802C985.32 146.472 986.659 147.46 987.743 148.698C990.054 151.142 991.325 154.388 991.289 157.751V261.194Z" fill="#4949A3"/>
<path d="M1359.44 46.2442C1359.44 28.1246 1374.13 13.4357 1392.25 13.4357H1545.08C1563.2 13.4357 1577.89 28.1246 1577.89 46.2443V301.882C1577.89 320.002 1563.2 334.69 1545.08 334.69H1392.25C1374.13 334.69 1359.44 320.001 1359.44 301.882V46.2442Z" fill="#4949A3"/>
<path d="M1541.72 156.458L1397.98 156.458L1397.98 98.9052C1397.98 88.3305 1399.55 79.5105 1402.68 72.4451C1405.82 65.3797 1410.17 60.069 1415.74 56.5129C1421.26 52.9568 1427.62 51.1787 1434.83 51.1787C1440.44 51.1787 1445.38 52.3017 1449.64 54.5477C1453.85 56.7936 1457.31 59.8818 1460.03 63.8122C1462.69 67.6958 1464.59 72.1409 1465.71 77.1475L1467.12 77.1475C1467.35 71.673 1468.89 66.5495 1471.75 61.7768C1474.6 56.9574 1478.6 53.0504 1483.75 50.0558C1488.85 47.0611 1494.93 45.5638 1502 45.5638C1509.63 45.5638 1516.43 47.4589 1522.42 51.2489C1528.36 54.9922 1533.07 60.5369 1536.53 67.883C1539.99 75.2291 1541.72 84.2831 1541.72 95.045L1541.72 156.458ZM1516.88 126.067L1516.88 101.292C1516.88 92.8224 1515.26 86.6461 1512.03 82.7624C1508.76 78.8788 1504.41 76.937 1498.98 76.937C1495 76.937 1491.49 77.8962 1488.45 79.8146C1485.41 81.733 1483.02 84.4703 1481.29 88.0264C1479.56 91.5357 1478.7 95.7235 1478.7 100.59L1478.7 126.067L1516.88 126.067ZM1458.13 126.067L1458.13 103.538C1458.13 99.3731 1457.41 95.6767 1455.96 92.4481C1454.46 89.1728 1452.35 86.5993 1449.64 84.7276C1446.93 82.8092 1443.67 81.85 1439.88 81.85C1434.69 81.85 1430.5 83.6983 1427.32 87.3947C1424.14 91.0444 1422.55 96.2382 1422.55 102.976L1422.55 126.067L1458.13 126.067Z" fill="white"/>
<path d="M1541.72 249.297L1541.72 300.253L1397.98 300.253L1397.98 248.876C1397.98 234.418 1400.86 221.972 1406.62 211.537C1412.32 201.103 1420.54 193.078 1431.25 187.464C1441.97 181.802 1454.79 178.971 1469.71 178.971C1484.69 178.971 1497.55 181.802 1508.31 187.464C1519.08 193.078 1527.34 201.15 1533.09 211.678C1538.85 222.159 1541.72 234.699 1541.72 249.297ZM1515.68 269.862L1515.68 250.561C1515.68 241.577 1514.09 234.02 1510.91 227.891C1507.68 221.714 1502.7 217.082 1495.96 213.994C1489.18 210.859 1480.43 209.291 1469.71 209.291C1459.09 209.291 1450.41 210.859 1443.67 213.994C1436.94 217.082 1431.98 221.691 1428.79 227.821C1425.61 233.95 1424.02 241.507 1424.02 250.491L1424.02 269.862L1515.68 269.862Z" fill="white"/>
</g>
<defs>
<clipPath id="clip0_5585_2281">
<rect width="1591.65" height="512" fill="white"/>
</clipPath>
</defs>
</svg>
