<svg width="1280" height="1280" viewBox="0 0 1280 1280" fill="none" xmlns="http://www.w3.org/2000/svg">
<path d="M301.68 576.216V705.841L199.933 749.056V691.902L257.077 668.208V594.339L301.68 576.216Z" fill="#7272E9"/>
<path d="M199.932 531.624L301.679 576.216L257.076 594.339L199.932 569.257L142.788 594.339L99.5732 576.216L199.932 531.624Z" fill="#7272E9"/>
<path d="M199.932 691.902V749.056L99.5732 705.841V576.216L142.788 594.339V668.208L199.932 691.902Z" fill="#7272E9"/>
<path d="M308.648 576.226V574.828V573.43L307.25 572.042L202.718 526.041C201.945 525.37 200.956 525 199.932 525C198.908 525 197.919 525.37 197.146 526.041L95.3994 569.257L94.0013 570.644V572.042V573.43V703.055C93.9745 704.491 94.3515 705.905 95.0894 707.138C95.8272 708.37 96.8962 709.37 98.1747 710.024L198.523 753.239H206.87L307.219 710.024C308.499 709.372 309.569 708.372 310.307 707.139C311.045 705.907 311.421 704.491 311.392 703.055L308.606 576.226H308.648ZM199.932 539.981L282.168 576.226L257.076 587.369L202.718 563.675C201.945 563.003 200.956 562.633 199.932 562.633C198.908 562.633 197.919 563.003 197.146 563.675L142.788 585.981H141.39L117.696 576.226L199.932 539.981ZM192.962 737.902L106.542 700.227V585.981L135.818 598.502V666.84C135.79 668.277 136.167 669.692 136.905 670.924C137.643 672.157 138.713 673.157 139.992 673.81L192.962 696.054V737.902ZM199.932 684.942L149.758 664.076V599.92L199.932 577.614L250.106 599.92V664.034L199.932 684.942ZM293.321 700.227L206.901 737.861V697.483L259.861 675.187C261.142 674.536 262.213 673.536 262.951 672.303C263.69 671.07 264.065 669.654 264.035 668.218V598.522L293.311 586.002L293.321 700.227Z" fill="#4949A3"/>
<path d="M257.077 668.207V594.339L199.933 569.257V643.126L257.077 668.207Z" fill="white"/>
<path d="M257.076 668.207L199.932 643.125L142.788 668.207L199.932 691.901L257.076 668.207Z" fill="white"/>
<path d="M199.932 643.126V569.257L142.788 594.339V668.207L199.932 643.126Z" fill="white"/>
<path d="M259.86 587.369L202.716 563.675H194.369L140.011 587.369C137.215 588.767 134.429 591.543 134.429 594.339V668.207C134.429 671.004 135.827 673.789 140.011 675.177L197.144 700.228C197.91 700.914 198.902 701.293 199.93 701.293C200.958 701.293 201.95 700.914 202.716 700.228L259.86 675.187C262.656 673.8 265.442 671.014 265.442 668.218V594.349C265.442 591.553 262.656 588.767 259.86 587.369ZM149.798 599.921L193.002 581.798V640.34L149.798 658.494V599.921ZM199.972 684.943L160.94 668.249L199.972 651.556L239.003 668.249L199.972 684.943ZM250.146 657.065L206.941 638.942V580.4L250.146 598.523V657.065Z" fill="#4949A3"/>
<path d="M607.829 703.754C607.858 706.08 606.979 708.326 605.377 710.014C604.628 710.87 603.701 711.553 602.662 712.016C601.622 712.479 600.495 712.711 599.357 712.695H574.839C573.701 712.711 572.573 712.48 571.533 712.017C570.494 711.554 569.567 710.87 568.818 710.014C567.213 708.328 566.333 706.081 566.367 703.754V533.459H543.277C531.084 550.848 518.86 568.21 506.604 585.543V696.627C506.604 697.327 506.719 697.911 506.729 698.61C515.034 710.434 523.329 722.259 531.613 734.083C536.183 740.594 540.746 747.115 545.302 753.646C550.76 754.859 556.331 755.488 561.922 755.524H571.312C590.037 755.524 604.007 750.307 613.223 739.874V751.027H667.612V533.459H607.829V703.754Z" fill="#4949A3"/>
<path d="M1018.55 663.398V592.962C1018.55 553.725 1000.12 534.107 963.251 534.107H912.889C876.024 534.107 857.592 553.725 857.592 592.962V696.628C857.592 735.858 876.024 755.472 912.889 755.472H963.261C1000.13 755.472 1018.56 735.858 1018.56 696.628V679.684H958.806V703.754C958.836 706.08 957.956 708.326 956.354 710.014C955.605 710.87 954.679 711.554 953.639 712.016C952.6 712.479 951.472 712.711 950.334 712.695H925.816C924.678 712.711 923.551 712.479 922.511 712.016C921.472 711.554 920.545 710.87 919.796 710.014C918.191 708.329 917.31 706.081 917.344 703.754V663.398H1018.55ZM917.344 584.041C917.314 581.714 918.193 579.468 919.796 577.781C920.545 576.925 921.472 576.241 922.511 575.779C923.551 575.316 924.678 575.084 925.816 575.1H950.334C951.472 575.084 952.6 575.316 953.639 575.779C954.679 576.241 955.605 576.925 956.354 577.781C957.952 579.471 958.831 581.715 958.806 584.041V624.168H917.344V584.041Z" fill="#4949A3"/>
<path d="M490.271 602.289L490.282 602.473L490.148 602.412L490.271 602.289Z" fill="white"/>
<path d="M480.268 602.414C482.48 599.795 484.9 597.322 486.882 594.526C499.403 576.915 511.832 559.258 524.171 541.556C525.883 539.114 527.479 536.589 529.492 533.543H525.517C505.496 533.543 485.453 533.991 465.442 533.345C456.479 533.063 451.054 535.348 445.754 543.309C427.329 570.947 407.662 597.75 388.568 624.94C379.658 637.627 379.856 647.027 388.871 659.714C390.895 662.552 392.867 665.432 394.891 668.27C407.119 685.391 419.42 702.449 431.554 719.633C437.971 728.731 444.147 737.996 450.334 747.261C450.984 748.406 451.946 749.343 453.108 749.962C454.27 750.581 455.584 750.856 456.897 750.756C479.746 750.61 502.595 750.683 525.444 750.683H529.315C528.522 749.222 528.105 748.252 527.51 747.397C522.495 740.197 517.459 733.005 512.403 725.82C496.387 702.992 480.309 680.226 464.409 657.335C459.411 650.147 457.21 642.04 461.049 633.756C463.866 627.652 467.894 622.102 471.483 616.353C474.404 611.626 477.451 606.963 480.445 602.289L480.268 602.414ZM326.03 642.165C326.03 676.689 326.083 711.213 325.947 745.738C325.947 749.494 326.73 750.829 330.767 750.777C348.233 750.547 365.698 750.547 383.164 750.777C386.899 750.777 387.598 749.525 387.567 746.145C387.421 726.937 387.567 707.718 387.389 688.51C387.244 686.035 386.441 683.644 385.063 681.583C381.693 676.262 377.832 671.253 374.337 666.005C364.811 651.68 363.361 636.792 372.251 621.726C375.85 615.623 380.065 609.863 384.239 604.125C386.502 601.127 387.672 597.446 387.556 593.691C387.389 575.155 387.389 556.615 387.556 538.071C387.556 534.586 386.722 533.407 383.101 533.449C365.636 533.616 348.174 533.616 330.715 533.449C327.063 533.449 325.926 534.346 325.937 538.165C326.124 572.846 326.03 607.505 326.03 642.165V642.165Z" fill="#7272E9"/>
<path d="M789.097 580.504H779.707C764.849 580.504 752.677 584.072 743.19 591.209V534.566H683.438V751.007H733.81V734.96C743.026 748.67 758.332 755.525 779.728 755.525H789.118C825.982 755.525 844.415 735.906 844.415 696.67V639.359C844.387 600.122 825.948 580.504 789.097 580.504ZM779.477 703.754C779.504 706.08 778.625 708.325 777.025 710.014C776.276 710.87 775.349 711.553 774.31 712.016C773.271 712.479 772.143 712.711 771.005 712.695H746.487C745.349 712.712 744.221 712.48 743.181 712.017C742.142 711.554 741.216 710.871 740.467 710.014C738.863 708.328 737.983 706.081 738.015 703.754V632.222C737.984 629.896 738.864 627.65 740.467 625.962C741.216 625.106 742.142 624.422 743.181 623.959C744.221 623.496 745.349 623.265 746.487 623.281H771.005C772.143 623.265 773.271 623.497 774.31 623.96C775.349 624.423 776.276 625.106 777.025 625.962C778.623 627.653 779.502 629.897 779.477 632.222V703.754Z" fill="#4949A3"/>
<path d="M1034.05 555.482C1034.05 542.75 1044.37 532.429 1057.1 532.429H1162.06C1174.79 532.429 1185.11 542.75 1185.11 555.482V731.525C1185.11 744.257 1174.79 754.577 1162.06 754.577H1057.1C1044.37 754.577 1034.05 744.257 1034.05 731.525V555.482Z" fill="#4949A3"/>
<path d="M1160.11 631.328L1060.71 631.328L1060.71 591.53C1060.71 584.217 1061.79 578.118 1063.96 573.233C1066.13 568.347 1069.14 564.674 1072.99 562.215C1076.81 559.756 1081.21 558.527 1086.19 558.527C1090.07 558.527 1093.49 559.303 1096.43 560.856C1099.34 562.41 1101.74 564.545 1103.61 567.263C1105.46 569.948 1106.77 573.022 1107.55 576.484L1108.52 576.484C1108.68 572.699 1109.75 569.156 1111.72 565.855C1113.69 562.523 1116.46 559.821 1120.02 557.75C1123.55 555.679 1127.75 554.644 1132.64 554.644C1137.91 554.644 1142.62 555.955 1146.76 558.575C1150.87 561.164 1154.12 564.998 1156.52 570.078C1158.91 575.158 1160.11 581.419 1160.11 588.86L1160.11 631.328ZM1142.93 610.312L1142.93 593.18C1142.93 587.324 1141.81 583.053 1139.58 580.367C1137.31 577.681 1134.3 576.339 1130.55 576.339C1127.8 576.339 1125.37 577.002 1123.27 578.329C1121.17 579.655 1119.52 581.548 1118.32 584.007C1117.12 586.434 1116.52 589.33 1116.52 592.695L1116.52 610.312L1142.93 610.312ZM1102.3 610.312L1102.3 594.733C1102.3 591.853 1101.8 589.297 1100.8 587.065C1099.76 584.8 1098.31 583.02 1096.43 581.726C1094.55 580.399 1092.31 579.736 1089.68 579.736C1086.09 579.736 1083.2 581.014 1081 583.57C1078.8 586.094 1077.7 589.686 1077.7 594.345L1077.7 610.312L1102.3 610.312Z" fill="white"/>
<path d="M1160.11 695.526L1160.11 730.761L1060.71 730.761L1060.71 695.234C1060.71 685.236 1062.7 676.63 1066.68 669.414C1070.63 662.199 1076.31 656.65 1083.71 652.767C1091.12 648.852 1099.99 646.895 1110.31 646.895C1120.67 646.895 1129.56 648.852 1137.01 652.767C1144.45 656.65 1150.16 662.231 1154.14 669.511C1158.12 676.759 1160.11 685.431 1160.11 695.526ZM1142.1 709.746L1142.1 696.399C1142.1 690.187 1141 684.961 1138.8 680.723C1136.57 676.452 1133.12 673.249 1128.46 671.113C1123.77 668.945 1117.72 667.861 1110.31 667.861C1102.97 667.861 1096.96 668.945 1092.31 671.113C1087.65 673.249 1084.22 676.436 1082.02 680.674C1079.82 684.913 1078.72 690.138 1078.72 696.351L1078.72 709.746L1142.1 709.746Z" fill="white"/>
</svg>
