<svg width="1280" height="1280" viewBox="0 0 1280 1280" fill="none" xmlns="http://www.w3.org/2000/svg">
<g clip-path="url(#clip0_5585_2256)">
<path d="M993.317 205.911V663.785L633.916 816.435V614.548L835.766 530.853V269.926L993.317 205.911Z" fill="#7272E9"/>
<path d="M633.919 48.3961L993.32 205.91L835.769 269.926L633.919 181.329L432.069 269.926L279.42 205.91L633.919 48.3961Z" fill="#7272E9"/>
<path d="M633.919 614.548V816.435L279.42 663.785V205.911L432.069 269.926V530.853L633.919 614.548Z" fill="#7272E9"/>
<path d="M1017.93 205.947V201.008V196.07L1013 191.168L643.755 28.6788C641.026 26.3065 637.531 25 633.915 25C630.299 25 626.805 26.3065 624.075 28.6788L264.675 181.328L259.736 186.23V191.168V196.07V653.944C259.641 659.017 260.973 664.014 263.579 668.366C266.186 672.718 269.962 676.252 274.478 678.563L628.94 831.212H658.423L1012.89 678.563C1017.41 676.258 1021.19 672.727 1023.8 668.373C1026.4 664.019 1027.73 659.018 1027.63 653.944L1017.79 205.947H1017.93ZM633.915 77.9158L924.399 205.947L835.765 245.307L643.755 161.611C641.026 159.239 637.531 157.933 633.915 157.933C630.299 157.933 626.805 159.239 624.075 161.611L432.066 240.405H427.127L343.432 205.947L633.915 77.9158ZM609.297 777.037L304.035 643.957V240.405L407.447 284.63V526.024C407.348 531.097 408.678 536.096 411.285 540.449C413.891 544.802 417.67 548.335 422.189 550.643L609.297 629.215V777.037ZM633.915 589.966L456.684 516.258V289.642L633.915 210.848L811.146 289.642V516.11L633.915 589.966ZM963.796 643.957L658.534 776.89V634.264L845.605 555.507C850.129 553.206 853.913 549.675 856.52 545.321C859.128 540.966 860.454 535.964 860.346 530.889V284.704L963.759 240.479L963.796 643.957Z" fill="#4949A3"/>
<path d="M835.766 530.853V269.926L633.916 181.329V442.255L835.766 530.853Z" fill="white"/>
<path d="M835.767 530.852L633.917 442.255L432.067 530.852L633.917 614.548L835.767 530.852Z" fill="white"/>
<path d="M633.917 442.255V181.329L432.067 269.926V530.853L633.917 442.255Z" fill="white"/>
<path d="M845.603 245.307L643.754 161.612H614.27L422.261 245.307C412.384 250.246 402.544 260.049 402.544 269.926V530.852C402.544 540.729 407.482 550.569 422.261 555.471L624.074 643.957C626.778 646.382 630.282 647.722 633.914 647.722C637.545 647.722 641.049 646.382 643.754 643.957L845.603 555.508C855.48 550.606 865.32 540.766 865.32 530.889V269.963C865.32 260.086 855.48 250.246 845.603 245.307ZM456.83 289.643L609.443 225.627V432.415L456.83 496.541V289.643ZM634.061 589.966L496.19 531L634.061 472.033L771.932 531L634.061 589.966ZM811.292 491.492L658.68 427.477V220.689L811.292 284.704V491.492Z" fill="#4949A3"/>
</g>
<path d="M421.705 1179.6C421.749 1183.03 420.451 1186.34 418.09 1188.83C416.984 1190.09 415.618 1191.1 414.085 1191.78C412.552 1192.47 410.89 1192.81 409.212 1192.78H373.054C371.376 1192.81 369.713 1192.47 368.18 1191.78C366.647 1191.1 365.281 1190.09 364.176 1188.83C361.809 1186.35 360.511 1183.03 360.561 1179.6V928.466H326.511C308.53 954.109 290.502 979.712 272.429 1005.27V1169.09C272.429 1170.12 272.598 1170.98 272.613 1172.01C284.861 1189.45 297.093 1206.89 309.309 1224.33C316.049 1233.93 322.777 1243.54 329.496 1253.18C337.545 1254.96 345.761 1255.89 354.006 1255.94H367.854C395.467 1255.94 416.069 1248.25 429.66 1232.87V1249.31H509.868V928.466H421.705V1179.6Z" fill="#4949A3"/>
<path d="M1027.39 1120.09V1016.21C1027.39 958.351 1000.21 929.42 945.846 929.42H871.577C817.213 929.42 790.03 958.351 790.03 1016.21V1169.09C790.03 1226.94 817.213 1255.87 871.577 1255.87H945.861C1000.23 1255.87 1027.41 1226.94 1027.41 1169.09V1144.1H939.291V1179.6C939.335 1183.03 938.037 1186.34 935.676 1188.83C934.571 1190.09 933.204 1191.1 931.671 1191.78C930.139 1192.47 928.476 1192.81 926.798 1192.78H890.64C888.963 1192.81 887.3 1192.47 885.767 1191.78C884.234 1191.1 882.868 1190.09 881.763 1188.83C879.395 1186.35 878.097 1183.03 878.147 1179.6V1120.09H1027.39ZM878.147 1003.06C878.102 999.627 879.399 996.314 881.763 993.826C882.868 992.564 884.234 991.556 885.767 990.873C887.3 990.191 888.963 989.849 890.64 989.872H926.798C928.476 989.849 930.139 990.191 931.671 990.873C933.204 991.556 934.571 992.564 935.676 993.826C938.032 996.319 939.328 999.629 939.291 1003.06V1062.23H878.147V1003.06Z" fill="#4949A3"/>
<path d="M248.345 1029.97L248.36 1030.24L248.161 1030.15L248.345 1029.97Z" fill="white"/>
<path d="M233.592 1030.15C236.854 1026.29 240.424 1022.64 243.347 1018.52C261.811 992.549 280.141 966.511 298.337 940.406C300.861 936.805 303.215 933.082 306.184 928.589H300.322C270.796 928.589 241.239 929.251 211.729 928.297C198.512 927.881 190.511 931.251 182.695 942.991C155.523 983.749 126.52 1023.28 98.3633 1063.37C85.2235 1082.08 85.5158 1095.94 98.8095 1114.65C101.794 1118.84 104.702 1123.09 107.687 1127.27C125.72 1152.52 143.86 1177.68 161.754 1203.02C171.217 1216.43 180.325 1230.1 189.449 1243.76C190.407 1245.45 191.826 1246.83 193.54 1247.74C195.253 1248.66 197.191 1249.06 199.127 1248.91C232.823 1248.7 266.519 1248.81 300.214 1248.81H305.923C304.753 1246.65 304.138 1245.22 303.261 1243.96C295.865 1233.34 288.439 1222.74 280.982 1212.14C257.364 1178.48 233.654 1144.9 210.205 1111.15C202.835 1100.54 199.589 1088.59 205.251 1076.37C209.405 1067.37 215.344 1059.19 220.637 1050.71C224.945 1043.74 229.438 1036.86 233.854 1029.97L233.592 1030.15ZM6.13857 1088.77C6.13857 1139.69 6.21548 1190.6 6.01546 1241.51C6.01546 1247.05 7.16946 1249.02 13.1239 1248.94C38.8804 1248.61 64.6368 1248.61 90.3933 1248.94C95.9015 1248.94 96.9324 1247.1 96.8862 1242.11C96.6708 1213.79 96.8862 1185.45 96.6246 1157.12C96.4099 1153.47 95.2255 1149.94 93.1935 1146.9C88.2238 1139.06 82.5309 1131.67 77.3765 1123.93C63.3289 1102.81 61.1903 1080.85 74.2993 1058.63C79.6075 1049.63 85.8236 1041.14 91.978 1032.68C95.3153 1028.26 97.0416 1022.83 96.8708 1017.29C96.6246 989.954 96.6246 962.613 96.8708 935.267C96.8708 930.128 95.6399 928.389 90.3009 928.451C64.5444 928.697 38.7931 928.697 13.0469 928.451C7.66179 928.451 5.98472 929.774 6.0001 935.405C6.27706 986.549 6.13857 1037.66 6.13857 1088.77V1088.77Z" fill="#7272E9"/>
<path d="M689.022 997.843H675.174C653.264 997.843 635.314 1003.1 621.323 1013.63V930.097H533.206V1249.28H607.491V1225.62C621.082 1245.84 643.653 1255.95 675.205 1255.95H689.053C743.417 1255.95 770.599 1227.01 770.599 1169.15V1084.64C770.558 1026.77 743.366 997.843 689.022 997.843ZM674.836 1179.6C674.876 1183.03 673.579 1186.34 671.22 1188.83C670.115 1190.09 668.749 1191.1 667.216 1191.78C665.683 1192.47 664.02 1192.81 662.342 1192.79H626.185C624.507 1192.81 622.843 1192.47 621.31 1191.79C619.777 1191.1 618.411 1190.09 617.307 1188.83C614.942 1186.34 613.645 1183.03 613.691 1179.6V1074.11C613.646 1070.68 614.944 1067.37 617.307 1064.88C618.411 1063.62 619.777 1062.61 621.31 1061.93C622.843 1061.24 624.507 1060.9 626.185 1060.93H662.342C664.02 1060.9 665.683 1061.24 667.216 1061.93C668.749 1062.61 670.115 1063.62 671.22 1064.88C673.576 1067.37 674.873 1070.68 674.836 1074.11V1179.6Z" fill="#4949A3"/>
<path d="M1050.26 940.214C1050.26 932.887 1056.2 926.947 1063.53 926.947H1259.77C1267.09 926.947 1273.03 932.887 1273.03 940.214V1241.28C1273.03 1248.61 1267.09 1254.55 1259.77 1254.55H1063.53C1056.2 1254.55 1050.26 1248.61 1050.26 1241.28V940.214Z" fill="#4949A3"/>
<path d="M1236.15 1072.79L1089.57 1072.79L1089.57 1014.1C1089.57 1003.32 1091.17 994.323 1094.37 987.118C1097.56 979.913 1102 974.498 1107.68 970.871C1113.31 967.245 1119.8 965.432 1127.15 965.432C1132.87 965.432 1137.91 966.577 1142.25 968.867C1146.54 971.158 1150.08 974.307 1152.84 978.315C1155.56 982.275 1157.49 986.808 1158.64 991.914L1160.07 991.914C1160.31 986.331 1161.88 981.106 1164.8 976.239C1167.71 971.325 1171.79 967.34 1177.03 964.287C1182.24 961.233 1188.44 959.706 1195.64 959.706C1203.42 959.706 1210.36 961.638 1216.47 965.503C1222.53 969.321 1227.33 974.975 1230.86 982.466C1234.39 989.957 1236.15 999.19 1236.15 1010.16L1236.15 1072.79ZM1210.82 1041.8L1210.82 1016.53C1210.82 1007.9 1209.17 1001.6 1205.88 997.64C1202.54 993.679 1198.1 991.699 1192.57 991.699C1188.51 991.699 1184.93 992.677 1181.83 994.634C1178.73 996.59 1176.29 999.381 1174.53 1003.01C1172.76 1006.59 1171.88 1010.86 1171.88 1015.82L1171.88 1041.8L1210.82 1041.8ZM1150.91 1041.8L1150.91 1018.83C1150.91 1014.58 1150.17 1010.81 1148.69 1007.52C1147.16 1004.18 1145.02 1001.55 1142.25 999.644C1139.48 997.687 1136.17 996.709 1132.3 996.709C1127 996.709 1122.73 998.594 1119.49 1002.36C1116.25 1006.09 1114.62 1011.38 1114.62 1018.25L1114.62 1041.8L1150.91 1041.8Z" fill="white"/>
<path d="M1236.15 1167.47L1236.15 1219.43L1089.57 1219.43L1089.57 1167.04C1089.57 1152.29 1092.51 1139.6 1098.38 1128.96C1104.2 1118.32 1112.57 1110.14 1123.5 1104.41C1134.42 1098.64 1147.5 1095.75 1162.72 1095.75C1177.99 1095.75 1191.11 1098.64 1202.08 1104.41C1213.06 1110.14 1221.48 1118.37 1227.35 1129.1C1233.22 1139.79 1236.15 1152.58 1236.15 1167.47ZM1209.6 1188.44L1209.6 1168.75C1209.6 1159.59 1207.98 1151.89 1204.73 1145.64C1201.44 1139.34 1196.36 1134.61 1189.49 1131.46C1182.57 1128.27 1173.65 1126.67 1162.72 1126.67C1151.89 1126.67 1143.04 1128.27 1136.17 1131.46C1129.3 1134.61 1124.24 1139.31 1120.99 1145.56C1117.75 1151.81 1116.13 1159.52 1116.13 1168.68L1116.13 1188.44L1209.6 1188.44Z" fill="white"/>
<defs>
<clipPath id="clip0_5585_2256">
<rect width="806.212" height="806.212" fill="white" transform="translate(234.537 25)"/>
</clipPath>
</defs>
</svg>
