<svg width="191" height="41" viewBox="0 0 191 41" fill="none" xmlns="http://www.w3.org/2000/svg">
<path d="M36.4539 9.3623V31.8544L18.7991 39.353V29.4358L28.7145 25.3244V12.5069L36.4539 9.3623Z" fill="#7272E9"/>
<path d="M18.799 1.62463L36.4538 9.36219L28.7145 12.5068L18.799 8.15467L8.8836 12.5068L1.38501 9.36219L18.799 1.62463Z" fill="#7272E9"/>
<path d="M18.799 29.4358V39.353L1.38501 31.8544V9.3623L8.88359 12.5069V25.3244L18.799 29.4358Z" fill="#7272E9"/>
<path d="M37.6631 9.36397V9.12138V8.87879L37.4205 8.63801L19.2823 0.656054C19.1483 0.539519 18.9766 0.475342 18.799 0.475342C18.6213 0.475342 18.4497 0.539519 18.3156 0.656054L0.660792 8.15464L0.418201 8.39542V8.63801V8.87879V31.3709C0.41355 31.6201 0.478964 31.8655 0.606991 32.0794C0.735018 32.2932 0.920513 32.4667 1.14235 32.5803L18.5546 40.0788H20.0029L37.4151 32.5803C37.6372 32.4671 37.8229 32.2936 37.951 32.0797C38.0791 31.8658 38.1443 31.6202 38.1392 31.3709L37.6559 9.36397H37.6631ZM18.799 3.07472L33.0684 9.36397L28.7144 11.2975L19.2823 7.18608C19.1483 7.06955 18.9766 7.00538 18.799 7.00538C18.6213 7.00538 18.4497 7.06955 18.3156 7.18608L8.88353 11.0567H8.64094L4.52957 9.36397L18.799 3.07472ZM17.5896 37.4176L2.59428 30.8803V11.0567L7.6742 13.2291V25.0871C7.66933 25.3363 7.73466 25.5819 7.86271 25.7957C7.99076 26.0095 8.17637 26.1831 8.39835 26.2964L17.5896 30.1562V37.4176ZM18.799 28.2281L10.0929 24.6074V13.4753L18.799 9.60475L27.5051 13.4753V24.6001L18.799 28.2281ZM35.0037 30.8803L20.0083 37.4103V30.4042L29.1978 26.5354C29.42 26.4224 29.6059 26.2489 29.734 26.035C29.8621 25.8211 29.9272 25.5754 29.9219 25.3261V13.2327L35.0018 11.0603L35.0037 30.8803Z" fill="#4949A3"/>
<path d="M28.7145 25.3244V12.5069L18.7991 8.15479V20.9723L28.7145 25.3244Z" fill="white"/>
<path d="M28.7142 25.3243L18.7987 20.9722L8.8833 25.3243L18.7987 29.4357L28.7142 25.3243Z" fill="white"/>
<path d="M18.7987 20.9723V8.15479L8.8833 12.5069V25.3244L18.7987 20.9723Z" fill="white"/>
<path d="M29.1977 11.2974L19.2823 7.18604H17.834L8.4019 11.2974C7.91672 11.54 7.43335 12.0216 7.43335 12.5067V25.3242C7.43335 25.8094 7.67594 26.2928 8.4019 26.5335L18.3155 30.8803C18.4484 30.9993 18.6205 31.0652 18.7989 31.0652C18.9773 31.0652 19.1494 30.9993 19.2823 30.8803L29.1977 26.5354C29.6829 26.2946 30.1663 25.8112 30.1663 25.326V12.5085C30.1663 12.0234 29.6829 11.54 29.1977 11.2974ZM10.1 13.4753L17.5968 10.3307V20.4887L10.1 23.6387V13.4753ZM18.8061 28.2281L12.0335 25.3315L18.8061 22.4348L25.5788 25.3315L18.8061 28.2281ZM27.5122 23.3907L20.0155 20.2461V10.0881L27.5122 13.2327V23.3907Z" fill="#4949A3"/>
<path d="M89.5758 31.4922C89.5808 31.8959 89.4282 32.2856 89.1503 32.5785C89.0203 32.727 88.8595 32.8456 88.6792 32.9259C88.4988 33.0062 88.3032 33.0464 88.1057 33.0437H83.8513C83.6539 33.0466 83.4582 33.0064 83.2778 32.9261C83.0975 32.8457 82.9367 32.7271 82.8068 32.5785C82.5282 32.286 82.3755 31.896 82.3813 31.4922V1.94324H78.375C76.2592 4.96053 74.1381 7.973 72.0115 10.9806V30.2557C72.0115 30.377 72.0314 30.4784 72.0332 30.5997C73.4743 32.6515 74.9135 34.7032 76.351 36.755C77.1439 37.8847 77.9356 39.0162 78.7262 40.1495C79.6732 40.3599 80.64 40.4691 81.6101 40.4753H83.2394C86.4885 40.4753 88.9126 39.5701 90.5117 37.7598V39.695H99.9492V1.94324H89.5758V31.4922Z" fill="#4949A3"/>
<path d="M160.843 24.4897V12.2679C160.843 5.45966 157.645 2.05554 151.248 2.05554H142.509C136.113 2.05554 132.914 5.45966 132.914 12.2679V30.2558C132.914 37.0628 136.113 40.4663 142.509 40.4663H151.25C157.646 40.4663 160.845 37.0628 160.845 30.2558V27.3157H150.477V31.4923C150.482 31.896 150.329 32.2857 150.051 32.5785C149.921 32.7271 149.761 32.8456 149.58 32.926C149.4 33.0063 149.204 33.0465 149.007 33.0438H144.752C144.555 33.0465 144.359 33.0063 144.179 32.926C143.999 32.8456 143.838 32.7271 143.708 32.5785C143.429 32.2861 143.276 31.8961 143.282 31.4923V24.4897H160.843ZM143.282 10.72C143.277 10.3163 143.43 9.92652 143.708 9.63379C143.838 9.48521 143.999 9.36666 144.179 9.28632C144.359 9.20599 144.555 9.1658 144.752 9.16852H149.007C149.204 9.1658 149.4 9.20599 149.58 9.28632C149.761 9.36666 149.921 9.48521 150.051 9.63379C150.329 9.92704 150.481 10.3165 150.477 10.72V17.6827H143.282V10.72Z" fill="#4949A3"/>
<path d="M69.1784 13.8862L69.1803 13.9188L69.1567 13.9079L69.1784 13.8862Z" fill="white"/>
<path d="M67.4424 13.9079C67.8262 13.4535 68.2463 13.0245 68.5902 12.5393C70.7627 9.48339 72.9194 6.41962 75.0605 3.34802C75.3574 2.92439 75.6344 2.48628 75.9838 1.95765H75.2941C71.8199 1.95765 68.3422 2.03549 64.8699 1.92325C63.3148 1.87437 62.3734 2.27084 61.4537 3.65216C58.2566 8.44785 54.844 13.0987 51.531 17.8166C49.985 20.018 50.0194 21.6491 51.5835 23.8505C51.9348 24.343 52.2769 24.8426 52.6281 25.3351C54.7499 28.3059 56.8843 31.2659 58.9898 34.2475C60.1032 35.8262 61.1749 37.4338 62.2485 39.0414C62.3612 39.2401 62.5281 39.4027 62.7297 39.5101C62.9314 39.6175 63.1594 39.6653 63.3872 39.6479C67.3519 39.6226 71.3167 39.6352 75.2814 39.6352H75.953C75.8154 39.3818 75.743 39.2134 75.6398 39.065C74.7697 37.8158 73.8958 36.5678 73.0184 35.3211C70.2395 31.36 67.4497 27.4097 64.6907 23.4378C63.8235 22.1904 63.4415 20.7838 64.1077 19.3463C64.5965 18.2873 65.2953 17.3241 65.9181 16.3266C66.425 15.5065 66.9536 14.6973 67.4732 13.8862L67.4424 13.9079ZM40.6796 20.8055C40.6796 26.796 40.6887 32.7866 40.6651 38.7771C40.6651 39.4288 40.8009 39.6606 41.5015 39.6515C44.5321 39.6117 47.5627 39.6117 50.5933 39.6515C51.2414 39.6515 51.3627 39.4343 51.3572 38.8477C51.3319 35.5148 51.3572 32.1801 51.3265 28.8472C51.3012 28.4177 51.1618 28.0028 50.9227 27.6451C50.338 26.7218 49.6682 25.8528 49.0617 24.9422C47.4088 22.4566 47.1572 19.8731 48.6996 17.259C49.3242 16.1999 50.0556 15.2006 50.7797 14.2049C51.1724 13.6847 51.3755 13.0459 51.3554 12.3945C51.3265 9.17804 51.3265 5.961 51.3554 2.74335C51.3554 2.13868 51.2106 1.93411 50.5824 1.94135C47.5518 1.97032 44.5219 1.97032 41.4925 1.94135C40.8589 1.94135 40.6615 2.09705 40.6633 2.75964C40.6959 8.77734 40.6796 14.7914 40.6796 20.8055V20.8055Z" fill="#7272E9"/>
<path d="M121.029 10.1062H119.4C116.822 10.1062 114.71 10.7254 113.064 11.9637V2.13513H102.696V39.6914H111.436V36.9071C113.035 39.2859 115.691 40.4753 119.404 40.4753H121.033C127.43 40.4753 130.628 37.0712 130.628 30.263V20.3186C130.623 13.5103 127.424 10.1062 121.029 10.1062ZM119.36 31.4922C119.365 31.8958 119.212 32.2854 118.935 32.5784C118.805 32.727 118.644 32.8456 118.464 32.9259C118.283 33.0062 118.088 33.0464 117.89 33.0437H113.636C113.438 33.0466 113.243 33.0064 113.062 32.9261C112.882 32.8457 112.721 32.7271 112.591 32.5784C112.313 32.2858 112.16 31.896 112.166 31.4922V19.0803C112.161 18.6766 112.313 18.2868 112.591 17.994C112.721 17.8454 112.882 17.7268 113.062 17.6464C113.243 17.5661 113.438 17.5259 113.636 17.5288H117.89C118.088 17.5261 118.283 17.5663 118.464 17.6466C118.644 17.7269 118.805 17.8455 118.935 17.994C119.212 18.2873 119.365 18.6767 119.36 19.0803V31.4922Z" fill="#4949A3"/>
<path d="M164.304 5.83771C164.304 3.58808 166.128 1.7644 168.378 1.7644H186.443C188.692 1.7644 190.516 3.58809 190.516 5.83771V36.2377C190.516 38.4873 188.692 40.311 186.443 40.311H168.378C166.128 40.311 164.304 38.4873 164.304 36.2377V5.83771Z" fill="#4949A3"/>
<path d="M186.177 18.925L168.93 18.925L168.93 12.0195C168.93 10.7506 169.118 9.69233 169.494 8.84457C169.87 7.99681 170.392 7.35959 171.061 6.9329C171.723 6.50621 172.487 6.29287 173.351 6.29287C174.025 6.29287 174.617 6.42761 175.128 6.6971C175.633 6.96658 176.049 7.33713 176.374 7.80873C176.695 8.27472 176.922 8.80807 177.057 9.4088L177.225 9.4088C177.253 8.75193 177.438 8.13716 177.781 7.56451C178.123 6.98623 178.603 6.51744 179.221 6.15812C179.833 5.79881 180.563 5.61915 181.411 5.61915C182.326 5.61915 183.143 5.84653 183.861 6.30129C184.574 6.75043 185.138 7.41573 185.554 8.29717C185.969 9.17862 186.177 10.265 186.177 11.5563L186.177 18.925ZM183.196 15.2786L183.196 12.3058C183.196 11.2896 183.002 10.5485 182.615 10.0825C182.222 9.61653 181.7 9.38354 181.048 9.38354C180.571 9.38354 180.15 9.49863 179.785 9.72882C179.42 9.95901 179.134 10.2874 178.926 10.7141C178.718 11.1352 178.615 11.6377 178.615 12.2216L178.615 15.2786L183.196 15.2786ZM176.147 15.2786L176.147 12.5753C176.147 12.0756 176.06 11.6321 175.886 11.2447C175.706 10.8517 175.454 10.5429 175.128 10.3183C174.802 10.0881 174.412 9.97304 173.958 9.97304C173.334 9.97304 172.832 10.1948 172.45 10.6383C172.068 11.0763 171.877 11.6994 171.877 12.5079L171.877 15.2786L176.147 15.2786Z" fill="white"/>
<path d="M186.177 30.0644L186.177 36.1783L168.93 36.1783L168.93 30.0138C168.93 28.279 169.275 26.7856 169.966 25.5336C170.651 24.2816 171.636 23.3188 172.922 22.6451C174.207 21.9657 175.746 21.6261 177.537 21.6261C179.333 21.6261 180.877 21.9657 182.168 22.6451C183.46 23.3188 184.451 24.2873 185.141 25.5505C185.832 26.8081 186.177 28.3127 186.177 30.0644ZM183.053 32.5319L183.053 30.216C183.053 29.138 182.862 28.2313 182.48 27.4958C182.093 26.7547 181.495 26.1989 180.686 25.8284C179.872 25.4522 178.822 25.2641 177.537 25.2641C176.262 25.2641 175.221 25.4522 174.412 25.8284C173.604 26.1989 173.009 26.7519 172.627 27.4874C172.245 28.2229 172.054 29.1296 172.054 30.2075L172.054 32.5319L183.053 32.5319Z" fill="white"/>
</svg>
