<svg xmlns="http://www.w3.org/2000/svg" viewBox="0 0 216 216" xmlns:v="https://vecta.io/nano"><g fill="#6c6fb4"><path d="M163.23 43.49v73.83l-57.95 24.61v-32.55l32.54-13.5V53.81h0l25.41-10.32z"/><path d="M105.28 18.08l57.95 25.41-25.41 10.32h0l-32.54-14.29-32.56 14.29-24.6-10.32 57.16-25.41z"/><path d="M105.28 109.38v32.55l-57.16-24.61V43.49l24.6 10.32h0v42.07l32.56 13.5z"/></g><path d="M167.2 43.49h0v-.8h0v-.79h0l-.8-.8h0l-59.54-26.19a2.39 2.39 0 0 0-3.17 0l-58 24.61h0l-.79.79h0v.79h0v.8h0v73.83a4.35 4.35 0 0 0 2.38 4l57.16 24.61h4.76l57.2-24.64a4.36 4.36 0 0 0 2.39-4l-1.59-72.21zm-61.92-20.64l46.83 20.64-14.29 6.35-31-13.5a2.42 2.42 0 0 0-3.17 0L72.73 49h-.8l-13.49-5.51zm-4 112.73l-49.2-21.44V49l16.68 7.15v38.9a4.37 4.37 0 0 0 2.38 4l30.17 12.7zm4-30.17L76.69 93.5V57l28.59-12.7L133.86 57v36.5zm53.19 8.73l-49.23 21.44v-23l30.17-12.7a4.35 4.35 0 0 0 2.38-4V56.19L158.47 49z" fill="#4b4ca0"/><g fill="#fff"><path d="M137.82 95.88V53.81l-32.54-14.29v42.07l32.54 14.29z"/><path d="M137.82 95.88l-32.54-14.29-32.56 14.29 32.56 13.5 32.54-13.5z"/><path d="M105.28 81.59V39.52L72.72 53.81v42.07h0l32.56-14.29z"/></g><path d="M139.41 49.84l-32.55-13.5h-4.76l-31 13.5c-1.59.79-3.18 2.38-3.18 4v42.04c0 1.59.8 3.18 3.18 4h0l32.55 14.29a2.39 2.39 0 0 0 3.17 0l32.55-14.29h0c1.59-.79 3.18-2.38 3.18-4V53.81c.04-1.59-1.55-3.18-3.14-3.97zM76.69 57l24.62-10.32V80L76.69 90.33zm28.59 48.43l-22.23-9.55 22.23-9.52h0l22.22 9.52zm28.58-15.88l-24.62-10.34V45.87l24.62 10.32z" fill="#4b4ca0"/><path d="M177 162.7V191v.3a3.47 3.47 0 0 1-1.19 2.25 3.56 3.56 0 0 1-2.41.89h-17.26a3.41 3.41 0 0 1-2.1-.73 3.5 3.5 0 0 1-1.4-2.88v-27.96a3.58 3.58 0 0 1 3.67-3.61h17a4.62 4.62 0 0 1 .74.06 3.59 3.59 0 0 1 2.89 2.94zm-21.92 14.13v13.88a1.06 1.06 0 0 0 0 .25 1.12 1.12 0 0 0 1.13.94h17.14a1.09 1.09 0 0 0 .61-.16 1.12 1.12 0 0 0 .56-1V163a1.67 1.67 0 0 0 0-.39 1.12 1.12 0 0 0-1.12-.83h-16.1-1.1a1.28 1.28 0 0 0-.43.1 1.09 1.09 0 0 0-.67 1.07zm17.7-1.31h-15.85a.31.31 0 0 1 0-.09v-7a4.52 4.52 0 0 1 .72-2.55 3.41 3.41 0 0 1 2.38-1.53 4.74 4.74 0 0 1 2.33.22 3.18 3.18 0 0 1 2 2.21c0 .06 0 .12.05.18a.56.56 0 0 0 .05.08v-.08a4.89 4.89 0 0 1 .33-1.13 3.52 3.52 0 0 1 2.64-2.1 4.41 4.41 0 0 1 2.59.21 3.8 3.8 0 0 1 2.13 2.14 5.55 5.55 0 0 1 .48 1.87l.07 1.47v6zm-2.52-3.78v-.1-1.69a3.71 3.71 0 0 0-.07-.67 1.94 1.94 0 0 0-1.21-1.47 2.44 2.44 0 0 0-1.31-.09 1.54 1.54 0 0 0-1.31 1.06 3.05 3.05 0 0 0-.17 1.08v1.8.08zm-10.88 0h3.83v-.08-1.4a4.93 4.93 0 0 0-.07-.66 1.71 1.71 0 0 0-1-1.28 2.36 2.36 0 0 0-1.12-.16 1.59 1.59 0 0 0-1.4.94 2.54 2.54 0 0 0-.24 1.08v1.48a.28.28 0 0 0 0 .08zm13.4 17.83h-15.86v-6.33a6.24 6.24 0 0 1 .6-2.72 5.1 5.1 0 0 1 2.31-2.28 8.27 8.27 0 0 1 2.33-.76 15.5 15.5 0 0 1 3.4-.19 11.71 11.71 0 0 1 3.27.53 6.37 6.37 0 0 1 2 1 4.93 4.93 0 0 1 1.77 2.79 7.47 7.47 0 0 1 .19 1.76v6.18zm-13.38-3.81h10.8c.05 0 .06 0 .06-.07v-1.82a2.41 2.41 0 0 0-.83-1.69 4.11 4.11 0 0 0-1.54-.79 9.17 9.17 0 0 0-2.27-.34 13.78 13.78 0 0 0-3 .14 5.31 5.31 0 0 0-1.71.57 2.69 2.69 0 0 0-1.45 2.35v1.55c-.07.03-.06.06-.06.1z" fill="#6c6fb4"/><path d="M82.5 186.84a1.44 1.44 0 0 1-.4 1 1.26 1.26 0 0 1-1 .43h-4a1.25 1.25 0 0 1-1-.43 1.44 1.44 0 0 1-.4-1v-27.65H72l-6 8.46v18 .32l4 5.76 2.35 3.27a13.12 13.12 0 0 0 2.69.29h1.52q4.56 0 6.81-2.53v1.81h8.83v-35.38h-9.7zm66.71-6.55v-11.44q0-9.56-9-9.56h-8.18q-9 0-9 9.56v16.84q0 9.56 9 9.55h8.18q9 0 9-9.55v-2.76h-9.71v3.91a1.48 1.48 0 0 1-.39 1 1.29 1.29 0 0 1-1 .43h-4a1.26 1.26 0 0 1-1-.43 1.44 1.44 0 0 1-.4-1v-6.55zm-16.44-12.89a1.44 1.44 0 0 1 .4-1 1.27 1.27 0 0 1 1-.44h4a1.3 1.3 0 0 1 1 .44 1.47 1.47 0 0 1 .39 1v6.52h-6.73z" fill="#4b4ca0"/><path d="M63.41 170.37l.01.03-.03-.01.02-.02z" fill="#fff"/><path d="M61.79 170.39l1.07-1.28 6.06-8.61.86-1.3h-.64-9.76a3.21 3.21 0 0 0-3.2 1.62c-3 4.49-6.18 8.84-9.28 13.25-1.45 2.06-1.42 3.59.05 5.65l1 1.39 6 8.34 3 4.49a1.15 1.15 0 0 0 1.07.57h11.13.63c-.13-.24-.2-.4-.29-.54L67 190.43l-7.79-11.13a3.72 3.72 0 0 1-.55-3.82 27.09 27.09 0 0 1 1.69-2.83l1.46-2.28zm-25 6.45h0v16.82c0 .61.12.83.78.82q4.25-.06 8.51 0c.6 0 .72-.2.71-.75v-9.36a2.33 2.33 0 0 0-.37-1.13c-.55-.86-1.18-1.68-1.75-2.53a6.33 6.33 0 0 1-.33-7.19c.58-1 1.27-1.93 1.94-2.86a2.61 2.61 0 0 0 .54-1.69q0-4.51 0-9c0-.57-.13-.76-.72-.75h-8.51c-.59 0-.78.15-.77.77l-.08 16.85z" fill="#6c6fb4"/><path d="M111.94 166.83h-1.52a9.65 9.65 0 0 0-5.94 1.74v-9.2h-9.7v35.15H103v-2.61q2.25 3.33 7.46 3.33h1.52q9 0 9-9.55v-9.3q-.06-9.57-9.04-9.56zm-1.56 20a1.44 1.44 0 0 1-.4 1 1.26 1.26 0 0 1-1 .43h-4a1.25 1.25 0 0 1-1-.43 1.44 1.44 0 0 1-.4-1v-11.6a1.44 1.44 0 0 1 .4-1 1.25 1.25 0 0 1 1-.43h4a1.26 1.26 0 0 1 1 .43 1.44 1.44 0 0 1 .4 1z" fill="#4b4ca0"/></svg>