<svg width="143" height="181" viewBox="0 0 143 181" fill="none" xmlns="http://www.w3.org/2000/svg">
<path d="M128.469 28.7226V101.418L71.4082 125.654V93.6008L103.455 80.3127V38.8862L128.469 28.7226Z" fill="#7272E9"/>
<path d="M71.4088 3.71456L128.47 28.7226L103.456 38.8862L71.4088 24.8199L39.3617 38.8862L15.126 28.7226L71.4088 3.71456Z" fill="#7272E9"/>
<path d="M71.4088 93.6008V125.654L15.126 101.418V28.7226L39.3617 38.8862V80.3127L71.4088 93.6008Z" fill="#7272E9"/>
<path d="M132.378 28.7284V27.9443V27.1603L131.594 26.382L72.9704 0.584067C72.537 0.207422 71.9822 0 71.4081 0C70.8339 0 70.2791 0.207422 69.8458 0.584067L12.7848 24.8198L12.0007 25.598V26.382V27.1603V99.8557C11.9857 100.661 12.1971 101.454 12.6109 102.145C13.0247 102.836 13.6242 103.397 14.3412 103.764L70.6182 128H75.2991L131.576 103.764C132.294 103.398 132.894 102.838 133.308 102.146C133.722 101.455 133.933 100.661 133.917 99.8557L132.354 28.7284H132.378ZM71.4081 8.40128L117.527 28.7284L103.455 34.9775L72.9704 21.6894C72.537 21.3127 71.9822 21.1053 71.4081 21.1053C70.8339 21.1053 70.2791 21.3127 69.8458 21.6894L39.361 34.1993H38.5769L25.2888 28.7284L71.4081 8.40128ZM67.4995 119.399L19.0339 98.27V34.1993L35.4524 41.2207V79.5461C35.4367 80.3516 35.6478 81.1452 36.0617 81.8364C36.4755 82.5275 37.0755 83.0883 37.7929 83.4547L67.4995 95.9295V119.399ZM71.4081 89.698L43.2696 77.9956V42.0165L71.4081 29.5066L99.5466 42.0165V77.9722L71.4081 89.698ZM123.782 98.27L75.3167 119.375V96.7311L105.017 84.2271C105.736 83.8618 106.336 83.3012 106.75 82.6098C107.164 81.9184 107.375 81.1242 107.358 80.3185V41.2324L123.776 34.211L123.782 98.27Z" fill="#4949A3"/>
<path d="M103.455 80.3128V38.8862L71.4082 24.8199V66.2465L103.455 80.3128Z" fill="white"/>
<path d="M103.455 80.3127L71.4084 66.2464L39.3613 80.3127L71.4084 93.6008L103.455 80.3127Z" fill="white"/>
<path d="M71.4084 66.2465V24.8199L39.3613 38.8862V80.3128L71.4084 66.2465Z" fill="white"/>
<path d="M105.017 34.9776L72.97 21.6895H68.289L37.8042 34.9776C36.2361 35.7616 34.6738 37.3181 34.6738 38.8862V80.3127C34.6738 81.8809 35.4579 83.4431 37.8042 84.2213L69.8455 98.2701C70.2748 98.655 70.8311 98.8678 71.4077 98.8678C71.9843 98.8678 72.5406 98.655 72.97 98.2701L105.017 84.2272C106.585 83.449 108.147 81.8867 108.147 80.3186V38.892C108.147 37.3239 106.585 35.7616 105.017 34.9776ZM43.2927 42.0166L67.5225 31.853V64.6842L43.2927 74.8653V42.0166ZM71.4311 89.6981L49.5417 80.3362L71.4311 70.9742L93.3205 80.3362L71.4311 89.6981ZM99.5696 74.0637L75.3397 63.9001V31.069L99.5696 41.2325V74.0637Z" fill="#4949A3"/>
<path d="M46.9176 171.515C46.9224 171.902 46.776 172.276 46.5095 172.557C46.3848 172.699 46.2306 172.813 46.0576 172.89C45.8846 172.967 45.6969 173.006 45.5075 173.003H41.4267C41.2373 173.006 41.0496 172.967 40.8766 172.89C40.7036 172.813 40.5494 172.7 40.4247 172.557C40.1575 172.276 40.011 171.902 40.0166 171.515V143.171H36.1737C34.1443 146.066 32.1097 148.955 30.0698 151.84V170.329C30.0698 170.445 30.0889 170.543 30.0907 170.659C31.4729 172.627 32.8535 174.595 34.2323 176.563C34.9929 177.647 35.7523 178.732 36.5106 179.819C37.419 180.021 38.3463 180.126 39.2769 180.132H40.8397C43.9562 180.132 46.2814 179.263 47.8154 177.527V179.383H56.8678V143.171H46.9176V171.515Z" fill="#4949A3"/>
<path d="M115.277 164.798V153.075C115.277 146.544 112.209 143.279 106.074 143.279H97.6914C91.5557 143.279 88.4878 146.544 88.4878 153.075V170.329C88.4878 176.858 91.5557 180.123 97.6914 180.123H106.075C112.211 180.123 115.279 176.858 115.279 170.329V167.509H105.334V171.515C105.339 171.902 105.192 172.276 104.926 172.557C104.801 172.699 104.647 172.813 104.474 172.89C104.301 172.967 104.113 173.006 103.924 173.003H99.8429C99.6536 173.006 99.4659 172.967 99.2929 172.89C99.1199 172.813 98.9657 172.699 98.8409 172.557C98.5738 172.276 98.4272 171.902 98.4329 171.515V164.798H115.277ZM98.4329 151.59C98.4278 151.203 98.5742 150.829 98.8409 150.548C98.9657 150.406 99.1199 150.292 99.2929 150.215C99.4659 150.138 99.6536 150.099 99.8429 150.102H103.924C104.113 150.099 104.301 150.138 104.474 150.215C104.647 150.292 104.801 150.406 104.926 150.548C105.192 150.83 105.338 151.203 105.334 151.59V158.269H98.4329V151.59Z" fill="#4949A3"/>
<path d="M27.3518 154.627L27.3535 154.658L27.3311 154.648L27.3518 154.627Z" fill="white"/>
<path d="M25.6867 154.648C26.0548 154.212 26.4577 153.801 26.7876 153.335C28.8714 150.404 30.9402 147.465 32.994 144.519C33.2787 144.113 33.5444 143.692 33.8796 143.185H33.218C29.8856 143.185 26.5497 143.26 23.2191 143.152C21.7274 143.105 20.8244 143.486 19.9422 144.811C16.8755 149.411 13.6022 153.872 10.4244 158.397C8.94137 160.509 8.97437 162.074 10.4747 164.185C10.8116 164.657 11.1398 165.137 11.4767 165.609C13.5119 168.459 15.5593 171.298 17.5788 174.158C18.6468 175.672 19.6748 177.214 20.7046 178.756C20.8127 178.947 20.9728 179.103 21.1662 179.206C21.3596 179.309 21.5784 179.355 21.7968 179.338C25.5998 179.314 29.4028 179.326 33.2058 179.326H33.8501C33.7181 179.083 33.6486 178.921 33.5496 178.779C32.715 177.581 31.8768 176.384 31.0351 175.188C28.3696 171.388 25.6936 167.599 23.0471 163.789C22.2154 162.593 21.8489 161.243 22.488 159.865C22.9568 158.849 23.6271 157.925 24.2245 156.968C24.7107 156.181 25.2178 155.405 25.7162 154.627L25.6867 154.648ZM0.0156399 161.264C0.0156399 167.01 0.0243195 172.757 0.00174474 178.503C0.00174474 179.128 0.131988 179.35 0.804023 179.342C3.71096 179.303 6.6179 179.303 9.52484 179.342C10.1465 179.342 10.2629 179.133 10.2577 178.57C10.2333 175.374 10.2577 172.175 10.2281 168.978C10.2039 168.566 10.0702 168.168 9.84089 167.825C9.27999 166.939 8.63748 166.106 8.05574 165.232C6.47029 162.848 6.22892 160.37 7.70844 157.862C8.30754 156.847 9.0091 155.888 9.7037 154.933C10.0804 154.434 10.2752 153.821 10.2559 153.196C10.2281 150.111 10.2281 147.025 10.2559 143.939C10.2559 143.359 10.117 143.163 9.51442 143.17C6.60748 143.198 3.70112 143.198 0.795337 143.17C0.187554 143.17 -0.0017247 143.319 1.18188e-05 143.955C0.0312692 149.727 0.0156399 155.496 0.0156399 161.264V161.264Z" fill="#7272E9"/>
<path d="M77.0877 151.002H75.5249C73.052 151.002 71.0261 151.595 69.447 152.783V143.356H59.502V179.38H67.8859V176.709C69.4198 178.991 71.9673 180.132 75.5283 180.132H77.0912C83.2269 180.132 86.2948 176.866 86.2948 170.336V160.797C86.2901 154.267 83.2211 151.002 77.0877 151.002ZM75.4867 171.515C75.4912 171.902 75.3448 172.276 75.0786 172.557C74.9538 172.699 74.7996 172.813 74.6266 172.89C74.4536 172.967 74.266 173.006 74.0766 173.003H69.9958C69.8064 173.006 69.6187 172.967 69.4456 172.89C69.2726 172.813 69.1185 172.7 68.9938 172.557C68.7269 172.276 68.5805 171.902 68.5857 171.515V159.609C68.5807 159.222 68.7271 158.848 68.9938 158.568C69.1185 158.425 69.2726 158.311 69.4456 158.234C69.6187 158.157 69.8064 158.119 69.9958 158.121H74.0766C74.266 158.119 74.4536 158.157 74.6266 158.234C74.7996 158.311 74.9538 158.425 75.0786 158.568C75.3445 158.849 75.4908 159.222 75.4867 159.609V171.515Z" fill="#4949A3"/>
<path d="M117.858 146.837C117.858 144.718 119.576 143 121.695 143H139.163C141.282 143 143 144.718 143 146.837V176.137C143 178.256 141.282 179.974 139.163 179.974H121.695C119.576 179.974 117.858 178.256 117.858 176.137V146.837Z" fill="#4949A3"/>
<path d="M138.838 159.46L122.294 159.46L122.294 152.837C122.294 151.62 122.475 150.604 122.836 149.791C123.196 148.978 123.697 148.367 124.338 147.958C124.974 147.548 125.706 147.344 126.535 147.344C127.182 147.344 127.75 147.473 128.24 147.731C128.724 147.99 129.123 148.345 129.435 148.798C129.742 149.245 129.96 149.756 130.09 150.332L130.251 150.332C130.278 149.702 130.456 149.113 130.784 148.563C131.113 148.009 131.573 147.559 132.166 147.214C132.753 146.87 133.453 146.697 134.266 146.697C135.144 146.697 135.927 146.916 136.617 147.352C137.3 147.783 137.842 148.421 138.24 149.266C138.639 150.112 138.838 151.154 138.838 152.392L138.838 159.46ZM135.978 155.963L135.978 153.111C135.978 152.137 135.793 151.426 135.421 150.979C135.044 150.532 134.543 150.308 133.919 150.308C133.461 150.308 133.057 150.419 132.707 150.639C132.357 150.86 132.082 151.175 131.883 151.585C131.684 151.988 131.584 152.47 131.584 153.03L131.584 155.963L135.978 155.963ZM129.217 155.963L129.217 153.37C129.217 152.89 129.134 152.465 128.967 152.093C128.794 151.716 128.552 151.42 128.24 151.205C127.927 150.984 127.553 150.874 127.117 150.874C126.519 150.874 126.037 151.086 125.671 151.512C125.305 151.932 125.122 152.53 125.122 153.305L125.122 155.963L129.217 155.963Z" fill="white"/>
<path d="M138.838 170.146L138.838 176.01L122.294 176.01L122.294 170.097C122.294 168.433 122.626 167.001 123.288 165.8C123.945 164.599 124.89 163.675 126.123 163.029C127.357 162.377 128.832 162.051 130.55 162.051C132.273 162.051 133.754 162.377 134.993 163.029C136.232 163.675 137.182 164.604 137.844 165.816C138.507 167.022 138.838 168.465 138.838 170.146ZM135.841 172.512L135.841 170.291C135.841 169.257 135.658 168.387 135.292 167.682C134.92 166.971 134.347 166.438 133.571 166.082C132.79 165.722 131.783 165.541 130.55 165.541C129.328 165.541 128.329 165.722 127.553 166.082C126.778 166.438 126.207 166.968 125.841 167.674C125.474 168.379 125.291 169.249 125.291 170.283L125.291 172.512L135.841 172.512Z" fill="white"/>
</svg>
