<svg xmlns="http://www.w3.org/2000/svg" width="64" height="64" fill="none" xmlns:v="https://vecta.io/nano"><path d="M6.662 58.808c-.084.885-.415 1.577-.99 2.075s-1.342.741-2.297.741c-.668 0-1.257-.156-1.768-.467s-.898-.762-1.175-1.339S.012 58.57 0 57.806v-.775c0-.783.14-1.472.42-2.069s.681-1.056 1.203-1.379 1.132-.484 1.82-.484c.925 0 1.67.249 2.234.747s.893 1.201.985 2.109H5.211c-.069-.596-.246-1.026-.53-1.288s-.693-.399-1.238-.399c-.633 0-1.121.23-1.463.69s-.511 1.127-.518 2.012v.735c0 .897.161 1.581.484 2.052s.802.707 1.428.707c.572 0 1.002-.127 1.29-.382s.47-.678.547-1.271h1.451zm1.401-.439c0-.604.121-1.147.363-1.63a2.61 2.61 0 0 1 1.019-1.117c.438-.262.941-.393 1.509-.393.841 0 1.522.268 2.044.804s.81 1.246.852 2.132l.006.325c0 .608-.119 1.151-.357 1.63s-.572.849-1.013 1.111-.944.393-1.52.393c-.879 0-1.584-.289-2.113-.866s-.789-1.355-.789-2.32v-.068zm1.399.12c0 .635.132 1.132.397 1.493s.633.536 1.106.536.839-.182 1.1-.547.397-.899.397-1.602c0-.623-.136-1.117-.409-1.482a1.29 1.29 0 0 0-1.1-.547c-.457 0-.82.181-1.088.541s-.403.893-.403 1.607zm7.384-3.146l.04.644c.438-.505 1.036-.758 1.796-.758.833 0 1.403.315 1.71.946.453-.631 1.09-.946 1.912-.946.687 0 1.198.188 1.532.564s.511.931.518 1.664v4.052h-1.399v-4.012c0-.391-.086-.678-.259-.861s-.459-.274-.858-.274c-.319 0-.58.086-.783.257a1.32 1.32 0 0 0-.42.661l.006 4.229h-1.399v-4.058c-.019-.726-.393-1.089-1.123-1.089-.561 0-.958.226-1.192.678v4.468h-1.399v-6.167h1.319zm10.753 0l.04.644c.438-.505 1.036-.758 1.797-.758.833 0 1.403.315 1.71.946.453-.631 1.09-.946 1.912-.946.687 0 1.198.188 1.532.564s.511.931.518 1.664v4.052h-1.399v-4.012c0-.391-.086-.678-.259-.861s-.459-.274-.858-.274c-.319 0-.58.086-.783.257a1.32 1.32 0 0 0-.42.661l.006 4.229h-1.399v-4.058c-.019-.726-.393-1.089-1.123-1.089-.561 0-.958.226-1.192.678v4.468H26.28v-6.167h1.319zm13.211 5.562c-.411.479-.994.718-1.751.718-.676 0-1.188-.196-1.537-.587s-.518-.957-.518-1.698v-3.995h1.399v3.978c0 .783.328 1.174.985 1.174.679 0 1.138-.241 1.376-.724v-4.428h1.399v6.167h-1.319l-.034-.604zm4.568-5.562l.04.712c.461-.551 1.065-.826 1.814-.826 1.297 0 1.958.735 1.981 2.206v4.075h-1.399v-3.995c0-.391-.086-.68-.259-.866s-.447-.285-.835-.285c-.564 0-.985.253-1.261.758v4.389H44.06v-6.167h1.319zm7.246 6.166h-1.399v-6.167h1.399v6.167zm-1.486-7.768c0-.213.067-.389.202-.53s.334-.211.587-.211.449.07.587.211.207.317.207.53a.71.71 0 0 1-.207.524c-.138.14-.334.205-.587.205s-.449-.068-.587-.205a.73.73 0 0 1-.202-.524zm5.259.103v1.499h1.1v1.026h-1.1v3.442c0 .236.046.407.138.513s.265.154.507.154c.161 0 .324-.019.489-.057v1.072a3.48 3.48 0 0 1-.921.131c-1.075 0-1.612-.587-1.612-1.761v-3.494h-1.025v-1.026h1.025v-1.499h1.399zm4.845 5.682l1.267-4.183H64l-2.476 7.102C61.144 63.481 60.499 64 59.589 64a2.53 2.53 0 0 1-.674-.103v-1.072l.265.017c.353 0 .618-.065.795-.194s.322-.338.426-.638l.202-.53-2.188-6.138h1.509l1.319 4.183z" fill="#00a651"/><g fill="#7272e9"><path d="M51.856 10.322v26.125l-20.506 8.71V33.638l11.517-4.775V13.975l8.989-3.652z"/><path d="M31.35 1.335l20.506 8.987-8.989 3.653L31.35 8.92l-11.517 5.055-8.71-3.653L31.35 1.335z"/><path d="M31.35 33.638v11.519l-20.227-8.71V10.322l8.71 3.653v14.888l11.517 4.775z"/></g><path d="M53.261 10.324v-.282-.282l-.282-.28L31.911.21C31.756.075 31.556 0 31.35 0s-.406.075-.561.21L10.282 8.92l-.282.28v.282.28 26.125c-.005.289.071.575.219.823s.364.45.622.582L31.066 46h1.682l20.225-8.71a1.54 1.54 0 0 0 .841-1.405l-.562-25.561h.008zM31.35 3.019l16.574 7.305-5.057 2.246-10.955-4.775c-.156-.135-.355-.21-.561-.21s-.406.075-.561.21L19.833 12.29h-.282l-4.775-1.966L31.35 3.019zm-1.405 39.89l-17.417-7.593V12.29l5.9 2.523v13.773c-.006.289.07.575.219.823s.364.45.622.582l10.676 4.483v8.434zm1.405-10.674L21.238 28.03V15.1l10.112-4.496L41.462 15.1v12.922L31.35 32.235zm18.822 3.081l-17.417 7.585v-8.138l10.674-4.494a1.54 1.54 0 0 0 .841-1.405V14.818l5.9-2.523.002 23.021z" fill="#4949a3"/><g fill="#fff"><path d="M42.867 28.862V13.975L31.35 8.92v14.888l11.517 5.055z"/><path d="M42.867 28.863L31.35 23.807l-11.517 5.055 11.517 4.775 11.517-4.775z"/><path d="M31.35 23.807V8.92l-11.517 5.055v14.888l11.517-5.055z"/></g><path d="M43.428 12.57L31.911 7.795h-1.682L19.273 12.57c-.563.282-1.125.841-1.125 1.405v14.888c0 .564.282 1.125 1.125 1.405l11.515 5.049a.84.84 0 0 0 1.123 0l11.517-5.047c.564-.28 1.125-.841 1.125-1.405V13.977c0-.564-.561-1.125-1.125-1.407zM21.246 15.1l8.708-3.652v11.799l-8.708 3.659V15.1zm10.112 17.136l-7.867-3.365 7.867-3.364 7.867 3.364-7.867 3.365zm10.112-5.619l-8.708-3.652V11.165l8.708 3.653v11.799z" fill="#4949a3"/></svg>