<svg xmlns="http://www.w3.org/2000/svg" width="258" height="50" fill="#141429" xmlns:v="https://vecta.io/nano"><path d="M74.961 39.077l2.423-6.808h12.077l1.192 3.404 1.231 3.404h4.077l-2.885-7.827-2.635-6.827-2.558-6.173-2.654-5.827h-3.423l-2.654 5.827-2.558 6.173-2.635 6.827-2.885 7.827h3.885zm13.423-9.885h-9.923l2.404-6.481 2.558-6.019 2.519 6.019 2.442 6.481zm16.115 10.346c2.539 0 4.494-.474 5.866-1.423s2.057-2.346 2.057-4.192c0-.949-.141-1.75-.423-2.404a4.65 4.65 0 0 0-1.211-1.673c-.526-.462-1.161-.865-1.904-1.212l-2.539-1.058-1.846-.731c-.513-.231-.942-.481-1.288-.75s-.603-.571-.769-.904-.25-.718-.25-1.154a1.97 1.97 0 0 1 1.115-1.865c.744-.398 1.615-.596 2.615-.596 1.154 0 2.141.109 2.962.327s1.423.429 1.808.635l.653-3.077a10.7 10.7 0 0 0-.865-.269l-1.288-.288-1.577-.231a14.99 14.99 0 0 0-1.693-.096c-2.256 0-4.038.519-5.346 1.558s-1.961 2.442-1.961 4.212c0 .897.154 1.654.462 2.269a4.95 4.95 0 0 0 1.231 1.577c.513.436 1.122.814 1.827 1.135l2.211.942c1.59.641 2.731 1.218 3.423 1.731a2.45 2.45 0 0 1 1.039 2.077c0 .846-.353 1.462-1.058 1.846s-1.788.577-3.25.577c-1.487 0-2.679-.154-3.577-.462l-1.961-.692-.654 3.077c.359.154 1.038.378 2.038.673s2.385.442 4.154.442zm19.231-.038c1.154 0 2.18-.135 3.077-.404s1.526-.494 1.885-.673l-.693-2.962-1.365.519c-.654.244-1.519.365-2.596.365-.616 0-1.154-.077-1.616-.231s-.846-.417-1.154-.788-.538-.885-.692-1.538-.231-1.481-.231-2.481v-9.231h7.577v-3h-7.577v-6.192l-3.577.615v17.846c0 1.333.109 2.506.327 3.519s.597 1.865 1.135 2.558 1.25 1.212 2.135 1.558 2.006.519 3.365.519zm12.308-.423V22.269l1.288-.288a9.37 9.37 0 0 1 1.981-.212c1.026 0 1.865.07 2.519.212l1.404.365.615-3.115a6.41 6.41 0 0 0-.711-.173l-1.058-.192-1.173-.154-1.058-.058c-1.564 0-2.974.135-4.23.404s-2.308.558-3.154.865v19.154h3.577zm19.538.5c1.359 0 2.616-.25 3.769-.75a8.54 8.54 0 0 0 2.981-2.135c.834-.923 1.481-2.026 1.942-3.308s.693-2.718.693-4.308c0-1.564-.231-2.994-.693-4.288s-1.108-2.404-1.942-3.327a8.54 8.54 0 0 0-2.981-2.135c-1.153-.5-2.41-.75-3.769-.75s-2.615.25-3.769.75a8.55 8.55 0 0 0-2.981 2.135c-.833.923-1.481 2.032-1.942 3.327s-.692 2.724-.692 4.288c0 1.59.23 3.026.692 4.308s1.109 2.385 1.942 3.308a8.55 8.55 0 0 0 2.981 2.135c1.154.5 2.41.75 3.769.75zm0-3.154c-1.743 0-3.122-.66-4.134-1.981s-1.52-3.109-1.52-5.365.507-4.045 1.52-5.365 2.391-1.981 4.134-1.981 3.122.66 4.135 1.981 1.519 3.109 1.519 5.365-.506 4.045-1.519 5.365-2.391 1.981-4.135 1.981zm18.385 2.654V26.423c1.077.667 2.186 1.474 3.327 2.423l3.384 3.096 3.173 3.5a37.63 37.63 0 0 1 2.654 3.635h4.385c-.692-1.205-1.558-2.474-2.596-3.808l-3.327-3.923-3.616-3.615c-1.23-1.128-2.397-2.077-3.5-2.846l3.039-3 3.25-3.288 3.134-3.269 2.693-2.904h-4.5l-2.366 2.596-2.98 3.096-3.193 3.211-2.961 2.865V12.423h-3.731v26.654h3.731zm27.731.423c1.769 0 3.326-.115 4.673-.346l3.25-.654V19.077h-3.577v16.885c-.128.051-.34.096-.635.135l-.981.115-1.154.096-1.192.039c-1.82 0-3.115-.526-3.884-1.577s-1.154-2.795-1.154-5.231V19.077h-3.577v11.231c0 1.359.141 2.596.423 3.711s.743 2.083 1.384 2.904 1.488 1.455 2.539 1.904 2.346.673 3.885.673zm21.653.038c1.539 0 2.923-.244 4.154-.731s2.282-1.179 3.154-2.077 1.545-1.994 2.019-3.288.712-2.75.712-4.365c0-1.538-.199-2.949-.596-4.231s-.981-2.385-1.75-3.308-1.712-1.641-2.827-2.154-2.391-.769-3.827-.769c-1.154 0-2.173.154-3.058.461s-1.545.603-1.981.885V9.231l-3.577.615V38.5c.821.231 1.872.462 3.154.692s2.757.346 4.423.346zm-.038-3.154c-.974 0-1.789-.045-2.442-.135s-1.161-.186-1.52-.288V23.308c.436-.359 1.065-.705 1.885-1.038s1.718-.5 2.692-.5c1.026 0 1.904.186 2.635.558a4.83 4.83 0 0 1 1.788 1.539c.462.654.795 1.429 1 2.327s.308 1.859.308 2.885c0 2.333-.577 4.135-1.731 5.404s-2.692 1.904-4.615 1.904zm24.077 3.154c1.384 0 2.622-.128 3.711-.385s1.853-.5 2.289-.731l-.5-3c-.436.205-1.083.417-1.942.635s-1.917.327-3.174.327c-2.23 0-3.871-.538-4.923-1.615s-1.653-2.654-1.807-4.731h13.692c.026-.205.038-.429.038-.673v-.596c0-3.436-.717-5.994-2.153-7.673s-3.5-2.519-6.193-2.519c-1.154 0-2.282.218-3.384.654a8.27 8.27 0 0 0-2.923 1.962c-.847.872-1.526 1.968-2.039 3.288s-.769 2.865-.769 4.635c0 1.513.199 2.904.596 4.173s1.007 2.365 1.827 3.288 1.865 1.648 3.135 2.173 2.775.788 4.519.788zm3.654-12.385h-9.923a8.76 8.76 0 0 1 .48-2.038 5.76 5.76 0 0 1 1.02-1.769c.436-.513.968-.93 1.596-1.25s1.352-.481 2.173-.481c1.461 0 2.609.519 3.442 1.558s1.237 2.365 1.212 3.981zm-196.53 5.279c6.115-1.987 9.172-4.347 9.172-7.078s-3.057-5.212-9.172-7.441v14.519zm-41.168 2.3v1.828l18.995 11.075V37.262c-9.131-.61-15.463-1.454-18.995-2.531zm-.001-20.32V32.96c3.986 1.303 10.088 2.164 18.306 2.583l.69.034V25.448L13.339 14.412zm-1.584 2.64l.041-.011c-6.094 1.725-9.405 3.989-9.932 6.792-.898 4.77 5.662 7.071 9.893 8.57l-.001-15.351zm21.39-15.105L14.137 13.023l-.005.008 19.085 11.068L52.22 13.027 33.145 1.947zm11.01 32.861c-3.46.494-7.059.751-10.797.77l-1.023-.001v1.686h.81a83.59 83.59 0 0 0 11.178-.838c3.428-.489 6.585-1.149 9.469-1.982l.716-.212v3.284L33.145 49.939 11.756 37.482v-3.297C3.668 31.227-.815 27.967.15 23.832c.943-4.041 4.811-6.879 11.606-8.516V12.56L33.145.102 54.508 12.56v3.592c7.21 2.595 10.815 5.663 10.815 9.203s-3.605 6.499-10.815 8.876V32.44c-3.127 1.039-6.578 1.829-10.353 2.368z"/></svg>