<svg xmlns="http://www.w3.org/2000/svg" xmlns:xlink="http://www.w3.org/1999/xlink" width="674" height="234" fill="none" xmlns:v="https://vecta.io/nano"><path d="M43.96 85.46c2.57 0 4.79-.2 6.69-.59 1.89-.4 3.51-.9 4.86-1.51s2.5-1.27 3.43-1.99l2.52-2c.75-.61 1.45-1.11 2.1-1.5.65-.4 1.35-.6 2.1-.6s1.36.13 1.85.39.85.55 1.08.88l7.98 9.59c-4.43 5.27-9.7 9.28-15.79 12-6.09 2.73-13.01 4.1-20.75 4.1-6.44 0-12.15-1.13-17.12-3.4-4.97-2.26-9.16-5.38-12.56-9.34-3.41-3.97-5.98-8.67-7.73-14.11S0 66.08 0 59.78c0-5.83.65-11.36 1.96-16.59S5.11 33.13 7.49 28.7s5.24-8.42 8.57-11.97c3.34-3.55 7.04-6.56 11.1-9.03a52.99 52.99 0 0 1 13.09-5.71C44.92.66 49.79 0 54.88 0c3.83 0 7.31.36 10.47 1.08 3.15.72 6 1.73 8.54 3.01s4.82 2.81 6.83 4.58 3.76 3.73 5.25 5.88l-7.98 9.24c-.56.65-1.21 1.24-1.96 1.75s-1.73.77-2.94.77a4.33 4.33 0 0 1-2.17-.56c-.65-.37-1.32-.83-2-1.36l-2.27-1.79c-.84-.65-1.84-1.25-3.01-1.79s-2.55-.99-4.17-1.36c-1.61-.37-3.51-.56-5.71-.56-4.29 0-8.29.91-12 2.73s-6.93 4.42-9.66 7.81c-2.73 3.38-4.87 7.49-6.41 12.32s-2.31 10.23-2.31 16.21c0 4.34.52 8.21 1.58 11.62 1.05 3.41 2.48 6.29 4.3 8.65s3.99 4.15 6.51 5.39c2.52 1.22 5.25 1.84 8.19 1.84zm130.48 17.64H156.8c-1.96 0-3.54-.46-4.73-1.37s-1.9-2.11-2.13-3.61l-3.15-18.34h-34.65l-7.56 18.34c-.51 1.31-1.52 2.46-3.01 3.47a8.73 8.73 0 0 1-4.97 1.5H78.68L127.4 1.1h23.38l23.66 102zm-55.93-38.85h25.62l-4.97-29.12-1.36-7.38-1.23-6.83-1.47 3.81-1.78 4.17-1.68 3.78-1.15 2.59-11.98 28.98zm94.08.77l-4.69 38.08h-22.68L197.68 1.11h30.94c6.25 0 11.58.67 16 2 4.41 1.33 8.02 3.16 10.81 5.5 2.8 2.33 4.84 5.1 6.12 8.29 1.28 3.2 1.92 6.66 1.92 10.4 0 3.78-.5 7.35-1.5 10.71s-2.46 6.45-4.38 9.27c-1.91 2.82-4.26 5.32-7.04 7.49s-5.94 3.96-9.48 5.35c1.4.79 2.72 1.75 3.96 2.87s2.21 2.52 2.9 4.2l14.84 35.91h-20.58c-1.91 0-3.52-.37-4.83-1.12s-2.22-1.82-2.73-3.22l-11.06-30.17c-.51-1.31-1.2-2.23-2.06-2.77s-2.13-.81-3.81-.81h-5.11v.01zm5.81-46.9l-3.85 31.15h8.33c3.27 0 6.04-.5 8.33-1.5s4.14-2.35 5.56-4.02c1.42-1.68 2.45-3.64 3.08-5.88s.95-4.6.95-7.07c0-1.91-.28-3.65-.84-5.21s-1.44-2.89-2.62-3.99c-1.19-1.1-2.68-1.95-4.48-2.55-1.8-.61-3.91-.91-6.33-.91h-8.13v-.02zM353.36 1.11l-2.38 18.06h-25.9l-10.36 83.93h-22.68l10.22-83.93h-26.04l2.24-18.06h74.9zm58.52 66.22l2.34-4.55 2.56-4.48L448 4.61c.93-1.59 2.1-2.57 3.5-2.94s2.75-.56 4.06-.56h17.92l-12.6 101.99h-20.02L448 43.74l.67-4.17 1.01-4.73-30.66 52.64c-.93 1.59-2.15 2.76-3.64 3.54-1.49.77-3.13 1.16-4.9 1.16h-3.08c-1.77 0-3.33-.4-4.66-1.19s-2.25-1.96-2.76-3.5l-17.92-52.78-.24 4.62-.32 4.06-7 59.71h-20.16l12.6-101.92h17.36 2.59c.75 0 1.41.11 2 .32.58.21 1.08.55 1.5 1.02s.77 1.14 1.05 2.03l17.92 53.75c.98 2.93 1.82 5.95 2.52 9.03zM567.7 103.1h-17.64c-1.96 0-3.54-.46-4.73-1.37s-1.9-2.11-2.13-3.61l-3.15-18.34H505.4l-7.56 18.34c-.51 1.31-1.52 2.46-3.01 3.47a8.73 8.73 0 0 1-4.97 1.5h-17.92L520.66 1.1h23.38l23.66 102zm-55.93-38.85h25.62l-4.97-29.12-1.36-7.38-1.23-6.83-1.47 3.81-1.79 4.17-1.68 3.78-1.16 2.59-11.96 28.98zM605.6 1.21c.68.07 1.28.23 1.82.49s1.01.62 1.43 1.08c.42.47.84 1.07 1.26 1.82l35.77 63 .42-4.69.49-4.2 6.86-57.61h20.16l-12.6 101.99h-11.9c-1.77 0-3.24-.26-4.41-.77s-2.17-1.52-3.01-3.01l-35.63-62.93-.31 3.78-.32 3.43-7 59.5h-20.16L591.07 1.1h12.04l2.49.11z" fill="#f200e7"/><g fill="#231f20"><path d="M402.52 214.1c-1.23 0-2.06-.32-2.49-.95-.44-.63-.66-1.4-.66-2.31l1-11.08c-1.33 2.28-2.78 4.34-4.36 6.2s-3.23 3.44-4.96 4.75-3.54 2.33-5.41 3.04-3.77 1.08-5.7 1.08c-4.55 0-8.08-1.65-10.58-4.96s-3.75-8.11-3.75-14.41c0-2.87.3-5.74.89-8.61s1.44-5.62 2.55-8.24 2.43-5.07 3.99-7.32c1.56-2.26 3.29-4.21 5.2-5.85s3.98-2.94 6.22-3.88a17.82 17.82 0 0 1 7.04-1.42c2.59 0 4.96.51 7.11 1.52s3.98 2.47 5.49 4.36l3.62-29.24h9.19l-9.56 77.32h-4.83zm-19.06-6.77c1.68 0 3.37-.52 5.07-1.55s3.34-2.47 4.94-4.31c1.59-1.84 3.08-4.02 4.46-6.56s2.58-5.31 3.6-8.32l1.73-14.07c-1.33-1.85-2.92-3.17-4.78-3.94s-3.73-1.16-5.62-1.16c-2.76 0-5.26.82-7.48 2.47s-4.11 3.77-5.67 6.38-2.76 5.52-3.6 8.74-1.26 6.39-1.26 9.5c0 4.17.75 7.34 2.26 9.53s3.62 3.29 6.35 3.29z"/><use xlink:href="#B"/><path d="M495.28 175.67c-.04 1.75-.25 3.33-.66 4.73-.4 1.4-.9 2.7-1.5 3.88-.6 1.19-1.24 2.31-1.94 3.36l-1.94 3.15c-.6 1.05-1.09 2.13-1.5 3.23s-.6 2.3-.6 3.6c0 1.47.36 2.8 1.08 3.99l2.36 3.67c.86 1.25 1.65 2.63 2.36 4.12.72 1.49 1.08 3.25 1.08 5.28a15.16 15.16 0 0 1-1.73 7.06c-1.16 2.22-2.8 4.19-4.94 5.91-2.13 1.71-4.73 3.07-7.8 4.07-3.06 1-6.5 1.5-10.32 1.5-3.04 0-5.82-.31-8.32-.94s-4.64-1.52-6.41-2.68-3.13-2.55-4.09-4.17c-.96-1.63-1.44-3.42-1.44-5.38 0-2.77.72-5.15 2.15-7.14s3.32-3.64 5.67-4.93c2.34-1.29 5.01-2.24 8.01-2.83 2.99-.59 6.05-.89 9.16-.89a42.42 42.42 0 0 1 3.75.16c1.24.11 2.48.25 3.7.42-.31-.66-.57-1.36-.76-2.07-.19-.72-.29-1.5-.29-2.34 0-1.08.17-2.21.5-3.36.33-1.16.88-2.45 1.65-3.88-1.33.91-2.82 1.61-4.46 2.1-1.65.49-3.52.74-5.62.74-2.03 0-3.93-.33-5.7-1-1.77-.66-3.32-1.64-4.65-2.94-1.33-1.29-2.38-2.91-3.15-4.86-.77-1.94-1.16-4.21-1.16-6.8 0-2.52.46-5 1.39-7.43a19.74 19.74 0 0 1 4.07-6.51c1.79-1.91 3.99-3.44 6.62-4.59 2.62-1.16 5.65-1.73 9.08-1.73 3.85 0 7.19.91 10.03 2.73h14.44l-.42 3.1a3.62 3.62 0 0 1-.6 1.63c-.33.49-.83.79-1.5.89l-6.62 1.16c.32.91.56 1.86.74 2.86.2.95.28 2.01.28 3.13zm-9.76 39.74c0-.91-.09-1.76-.26-2.55a14.88 14.88 0 0 0-.68-2.23c-1.89-.32-3.67-.54-5.33-.68s-3.23-.21-4.7-.21c-2.87 0-5.36.25-7.46.76s-3.83 1.18-5.2 2.02-2.38 1.81-3.05 2.91-1 2.25-1 3.44c0 2.52 1.06 4.44 3.18 5.78 2.12 1.33 5.12 1.99 9 1.99 2.31 0 4.42-.31 6.33-.92s3.54-1.43 4.88-2.44c1.35-1.02 2.4-2.21 3.15-3.57.76-1.36 1.14-2.8 1.14-4.3zm-10.5-25.31c1.89 0 3.55-.41 4.99-1.23 1.43-.82 2.65-1.91 3.65-3.25 1-1.35 1.76-2.86 2.28-4.54s.79-3.38.79-5.09c0-3.08-.78-5.41-2.34-6.98-1.56-1.58-3.7-2.36-6.43-2.36-1.89 0-3.55.39-4.99 1.15a10.92 10.92 0 0 0-3.62 3.1c-.98 1.3-1.72 2.77-2.23 4.41-.51 1.65-.76 3.36-.76 5.15 0 3.15.76 5.55 2.28 7.19 1.52 1.63 3.65 2.45 6.38 2.45z"/><use xlink:href="#B" x="83.16"/><path d="M543.95 204.07l.03-.81.11-1.44.24-2.47.47-3.99 3.31-26.62h-5.93c-.46 0-.83-.13-1.13-.39s-.45-.67-.45-1.23c0-.11.02-.32.05-.63l.13-1.08.16-1.23.13-1.21 8.19-1.1 3.94-16.43a2.5 2.5 0 0 1 .79-1.29c.38-.33.86-.5 1.42-.5h4.94l-2.31 18.32H572l-.79 6.77h-14.02l-3.2 26.15-.39 3.46-.21 2.1-.11 1.1-.03.47c0 1.79.41 3.11 1.23 3.96s1.95 1.29 3.39 1.29c.91 0 1.71-.13 2.42-.39.7-.26 1.3-.55 1.81-.87l1.29-.87c.35-.26.66-.39.94-.39s.5.07.66.21.32.37.5.68l1.94 4.46c-1.68 1.5-3.61 2.69-5.8 3.54-2.19.86-4.38 1.29-6.59 1.29-3.4 0-6.07-.93-8.03-2.78-1.97-1.85-2.99-4.54-3.06-8.08zm74.87 10.03h-4.83c-1.23 0-2.06-.32-2.49-.95s-.66-1.4-.66-2.31l.95-10.65c-1.26 2.22-2.62 4.24-4.07 6.04-1.45 1.81-2.99 3.34-4.62 4.61s-3.33 2.25-5.12 2.95a15.32 15.32 0 0 1-5.56 1.04c-2.1 0-4.01-.41-5.72-1.23-1.72-.82-3.18-2.03-4.38-3.62-1.21-1.59-2.14-3.55-2.81-5.88s-1-5-1-8.01c0-3.15.39-6.22 1.18-9.21s1.91-5.82 3.36-8.48 3.19-5.1 5.22-7.32 4.3-4.15 6.8-5.77c2.5-1.63 5.19-2.89 8.06-3.78s5.88-1.34 9.03-1.34c2.28 0 4.49.19 6.64.56s4.28 1.02 6.38 1.94l-6.36 51.41zm-22.89-7.04c1.71 0 3.39-.53 5.04-1.58 1.64-1.05 3.2-2.51 4.67-4.37s2.84-4.07 4.12-6.64 2.41-5.38 3.39-8.45l2.26-17.98c-.77-.62-1.53-.93-2.28-.93h-2.23a18.45 18.45 0 0 0-6.09 1.02 21.69 21.69 0 0 0-5.51 2.85 24.67 24.67 0 0 0-4.67 4.37 28.34 28.34 0 0 0-3.6 5.58 31.51 31.51 0 0 0-2.34 6.47c-.56 2.29-.84 4.63-.84 7.04-.01 8.42 2.69 12.62 8.08 12.62zm42.1 7.04l9.4-77.33h9.19l-9.4 77.33h-9.19z"/></g><defs ><path id="B" d="M443.05 160.92l-6.41 53.18h-9.19l6.41-53.18h9.19zm3.51-16.7c0 .91-.18 1.76-.55 2.55a7.36 7.36 0 0 1-1.47 2.1 7.01 7.01 0 0 1-2.07 1.44c-.77.35-1.57.53-2.42.53-.81 0-1.59-.17-2.36-.53a6.43 6.43 0 0 1-2.02-1.44c-.58-.61-1.04-1.31-1.39-2.1s-.53-1.64-.53-2.55.17-1.77.53-2.57c.35-.8.82-1.51 1.42-2.13.59-.61 1.28-1.1 2.05-1.47s1.56-.55 2.36-.55c.84 0 1.64.18 2.42.53a7.01 7.01 0 0 1 2.07 1.44c.61.61 1.09 1.33 1.44 2.15s.52 1.69.52 2.6z"/></defs></svg>