<svg xmlns="http://www.w3.org/2000/svg" width="1034" height="254" xmlns:v="https://vecta.io/nano"><path d="M0 0h1034v254H0V0z" fill="#fefefe"/><path d="M117 51c6.784 5.55 12.855 11.764 19 18 3.152-1.393 5.262-3.025 7.672-5.477l2.012-2.031 2.066-2.117 2.113-2.141L155 52c3.411 1.605 5.618 3.405 8.25 6.125l2.141 2.195L167 62c-5.55 6.784-11.764 12.855-18 19 4.962 5.995 10.348 11.464 15.875 16.938l2.664 2.65L174 107c3.259-1.426 5.402-3.167 7.891-5.695l2.148-2.168 2.211-2.262 2.258-2.285L194 89l3.348 2.852 1.883 1.604c2.017 1.761 3.913 3.614 5.769 5.544-1.575 3.853-4.177 6.447-7.092 9.319l-1.567 1.568-5.129 5.097-3.556 3.548-9.361 9.311-9.552 9.512L150 156c1.58 3.321 3.079 5.68 6 8 3.655-.328 5.391-2.037 7.891-4.598l2.148-2.178 2.211-2.287 2.258-2.299L176 147l3.348 2.852 1.883 1.604c2.017 1.761 3.913 3.614 5.769 5.544-1.582 3.884-4.228 6.502-7.164 9.395l-1.548 1.547-3.253 3.23-4.898 4.878c-6.454 6.433-13.061 12.57-20.076 18.39-15.826 12.557-15.826 12.557-23.912 30.206-.429 6.546-.001 12.86.852 19.355h-16l.766-4.922c.859-9.273 1.332-18.302-4.48-26.024-6.587-7.863-14.368-14.709-22.163-21.344-2.852-2.434-5.496-5.032-8.122-7.709l-3.812-3.312-1.832-1.551L70 178c1.393-3.152 3.025-5.262 5.477-7.672l2.031-2.012 2.117-2.066 2.141-2.113L87 159c-1.58-3.321-3.079-5.68-6-8-2.044-.305-2.044-.305-4 1-1.194 1.393-2.38 2.793-3.504 4.242-2.312 2.716-5.013 4.938-7.727 7.242-1.853 1.548-1.853 1.548-3.77 3.516-3.173-.34-4.821-1.45-7.024-3.684l-1.698-1.699-1.793-1.84-1.866-1.879-5.868-5.961-3.992-4.033L30 138l2.852-3.348 1.604-1.883c1.761-2.017 3.614-3.913 5.544-5.769 3.166 1.389 5.181 2.99 7.531 5.512l1.957 2.045 4.023 4.297 1.957 2.033 1.764 1.882c1.689 1.454 1.689 1.454 3.808 1.074 3.238-1.393 5.574-3.871 8.084-6.28l1.715-1.625 3.47-3.32 4.799-4.497 2.766-2.621 2.492-2.344c1.861-1.957 1.861-1.957 1.473-4.034-1.079-2.725-2.563-4.184-4.657-6.231l-2.314-2.285-2.432-2.355-2.443-2.402L68 100l2.82-3.348 1.586-1.883C74.4 92.555 76.603 90.762 79 89c6.784 5.55 12.855 11.764 19 18 3.152-1.393 5.262-3.025 7.672-5.477l2.012-2.031 2.066-2.117 2.113-2.141L117 90c3.411 1.605 5.618 3.405 8.25 6.125l2.141 2.195L129 100c-4.168 4.966-8.499 9.659-13.078 14.246l-1.978 1.988-4.104 4.112-6.293 6.332-4 4.006-1.9 1.922C93.229 137 93.229 137 91 137c5.918 7.085 12.431 13.528 19 20-1.393 3.152-3.025 5.262-5.477 7.672l-2.031 2.012-2.117 2.066-2.141 2.113L93 176c4.962 5.995 10.348 11.464 15.875 16.938l2.664 2.65L118 202c3.518-1.499 5.744-3.524 8.406-6.246l2.504-2.537 2.59-2.654 5.094-5.184 2.271-2.326c1.95-1.876 3.932-3.487 6.135-5.053-1.357-3.03-2.879-5.127-5.225-7.468l-1.982-1.991-2.137-2.115-2.197-2.195-4.6-4.576-7.051-7.031-4.465-4.447-2.137-2.134-1.982-1.963-1.745-1.733c-1.457-1.448-1.457-1.448-3.48-2.346 1.477-3.452 3.438-5.65 6.125-8.25l2.195-2.141L118 128c3.01 1.351 5.12 2.863 7.453 5.188l1.875 1.867L129.25 137l1.969 1.945 1.859 1.867 1.7 1.707C136 144 136 144 136 146c6.319-5.34 12.182-11.061 18-16.937l2.637-2.65L163 120c-1.095-3.285-1.777-3.881-4.371-6.002-5.524-4.691-10.585-9.829-15.691-14.963l-3.127-3.131-8.147-8.172-8.347-8.367L107 63c1.605-3.411 3.405-5.618 6.125-8.25l2.195-2.141L117 51z" fill="#5db25b"/><path d="M431 84c47.861 0 47.861 0 60.438 11.875 8.44 9.129 10.806 20.721 10.875 32.875l.017 2.111c-.092 6.723-1.771 12.789-3.954 19.139l-.789 2.313L497 154h-2l-.742 2.246c-3.303 7.231-11.133 11.86-18.258 14.754-14.657 3.257-29.985 2-45 2V84z" fill="#301950"/><path d="M948 84c46.938 0 46.938 0 59.109 10.887 9.128 9.927 12.249 22.355 12.043 35.633-.537 8.749-2.523 16.517-6.152 24.48h-2l-.562 2.125c-3.578 7.156-11.24 11.025-18.437 13.875-14.243 3.561-29.318 2-44 2V84z" fill="#2f1850"/><path d="M274 84c45.515 0 45.515 0 58 10 9.634 9.634 12.176 21.096 12.25 34.25l.063 2.738c.036 6.23-.961 11.253-3.312 17.012l-1.105 2.785C335.177 160.714 328.331 167.126 318 171c-14.243 3.561-29.318 2-44 2V84z" fill="#2e174f"/><path d="M662 84h25l8.737 27.282 4.059 12.674 3.929 12.274 1.486 4.639L715 173h-22l-2.5-8.812-.791-2.765-.615-2.192-.635-2.238C688 155 688 155 688 152l-27 1-3.201 12.416-.608 2.33-.619 2.396C656 172 656 172 655 173l-4.691.098-2.861-.01-3.01-.025-3.021-.014L634 173c1.869-7.319 4.162-14.371 6.746-21.469 1.541-4.34 2.896-8.721 4.227-13.129l3.465-11.215 1.281-4.094.645-2.059 1.855-5.941L662 84z" fill="#2f184f"/><path d="M358 84h56v17h-36v18h31v17h-31v20h38v17h-58V84z" fill="#2e174f"/><path d="M873 84h56v17h-36v18h30v17h-30v20h37v17h-57V84z" fill="#2e174e"/><path d="M621.91 90.184L624 92c0 4.795-.99 5.676-4 9.25l-2.25 2.703L616 106c-2.73-1.05-5.129-2.08-7.625-3.625-5.815-2.369-11.761-2.263-17.687-.25-7.234 5.047-10.562 10.063-12.242 18.738-1.568 11.046-.545 20.577 5.43 30.137 5.491 5.168 10.621 5.522 17.926 5.363 4.426-.503 7.495-2.008 11.199-4.363l4-2 10 11c-6.115 8.207-13.486 12.087-23.574 13.719-9.44 1.094-18.969-.099-27.426-4.719v-2l-2.25-.754c-7.44-3.371-11.792-11.228-14.785-18.504-4.86-13.814-4.562-29.539 1.477-42.941 6.058-11.203 14.712-18.58 26.84-22.547 13.398-3.42 23.155-.106 34.629 6.93z" fill="#301950"/><path d="M787 84h69v17h-25v72h-20v-72h-24V84z" fill="#5bb158"/><path d="M710 84h69v17h-24v72h-20v-72h-25V84z" fill="#2e174f"/><path d="M520 84h21v89h-21V84z" fill="#341e54"/><path d="M968 100c18.535 1.236 18.535 1.236 24.516 7.617 6.037 8.084 6.204 19.896 5.082 29.559-1.322 6.247-3.806 11.818-8.91 15.824-6.677 4.081-12.808 4-20.687 4v-57z" fill="#f8f8f9"/><path d="M294 100c9.434 0 14.24.079 21.75 4.688 7.017 7.212 7.504 15.8 7.499 25.378-.105 7.526-.77 13.869-5.624 19.872C309.834 156.059 304.084 157 294 157v-57z" fill="#fafafb"/><path d="M452 100c15.143 0 15.143 0 21.813 5.188 7.707 9.909 8.176 20.66 7.188 32.813-1.276 6.289-3.862 10.934-9.02 14.816C465.148 156.9 460.157 157 452 157v-57z" fill="#fcfcfc"/><path d="M673 99h2l3.418 13.879 1.164 4.72 1.668 6.792.53 2.125c.801 3.303 1.22 6.057 1.22 9.485h-18c1.607-9.162 3.38-17.929 6.133-26.816.922-3.383 1.437-6.706 1.867-10.184z" fill="#f7f6f8"/><path d="M195 128c3.806 3.221 7.541 6.402 11 10-1.47 3.399-3.38 5.65-6 8.25l-2.125 2.141C196 150 196 150 194 150c-1.656-1.609-1.656-1.609-3.5-3.75l-1.844-2.109C187 142 187 142 185 138l10-10z" fill="#60b35e"/><path d="M117 14c3.452 1.477 5.65 3.438 8.25 6.125l2.141 2.195L129 24c-3.208 3.806-6.407 7.546-10 11-3.399-1.47-5.65-3.38-8.25-6l-2.141-2.125C107 25 107 25 107 23c1.68-1.656 1.68-1.656 3.875-3.5 2.115-1.789 4.165-3.54 6.125-5.5z" fill="#61b35e"/><path d="M214 109c3.806 3.208 7.546 6.407 11 10-1.477 3.452-3.438 5.65-6.125 8.25l-2.195 2.141L215 131c-3.806-3.208-7.546-6.407-11-10 1.477-3.452 3.438-5.65 6.125-8.25l2.195-2.141L214 109zm-192-1c3.806 3.208 7.546 6.407 11 10-1.477 3.452-3.438 5.65-6.125 8.25l-2.195 2.141L23 130c-3.806-3.208-7.546-6.407-11-10 1.477-3.452 3.438-5.65 6.125-8.25l2.195-2.141L22 108z" fill="#5fb35c"/><path d="M59 108c3.452 1.477 5.65 3.438 8.25 6.125l2.141 2.195L71 118c-3.208 3.806-6.407 7.546-10 11-3.452-1.477-5.65-3.438-8.25-6.125l-2.141-2.195L49 119c3.208-3.806 6.407-7.546 10-11z" fill="#60b35d"/><path d="M41 89c3.806 3.208 7.546 6.407 11 10-1.477 3.452-3.438 5.65-6.125 8.25l-2.195 2.141L42 111c-3.806-3.208-7.546-6.407-11-10 1.477-3.452 3.438-5.65 6.125-8.25l2.195-2.141L41 89zm19-19c3.806 3.208 7.546 6.407 11 10-1.477 3.452-3.438 5.65-6.125 8.25l-2.195 2.141L61 92c-3.806-3.208-7.546-6.407-11-10 1.477-3.452 3.438-5.65 6.125-8.25l2.195-2.141L60 70z" fill="#5fb35c"/><path d="M79 51c3.806 3.208 7.546 6.407 11 10-1.477 3.452-3.438 5.65-6.125 8.25l-2.195 2.141L80 73c-3.806-3.208-7.546-6.407-11-10 1.477-3.452 3.438-5.65 6.125-8.25l2.195-2.141L79 51zm57-19c3.806 3.208 7.546 6.407 11 10-1.477 3.452-3.438 5.65-6.125 8.25l-2.195 2.141L137 54c-3.806-3.208-7.546-6.407-11-10 1.477-3.452 3.438-5.65 6.125-8.25l2.195-2.141L136 32zm1.961 78.047c2.66 1.243 4.268 2.894 6.289 5.016l2.141 2.223L148 119c-1.477 3.452-3.438 5.65-6.125 8.25l-2.195 2.141L138 131c-3.806-3.208-7.546-6.407-11-10 1.39-3.104 3.016-5.366 5.375-7.812l1.773-1.895C136 110 136 110 137.961 110.047z" fill="#5fb35d"/><path d="M98.961 33.047c2.66 1.243 4.268 2.894 6.289 5.016l2.141 2.223L109 42c-1.477 3.452-3.438 5.65-6.125 8.25l-2.195 2.141L99 54c-3.806-3.208-7.546-6.407-11-10 1.39-3.104 3.016-5.366 5.375-7.812l1.773-1.895C97 33 97 33 98.961 33.047zM175 72c4.378 1.751 5.802 2.437 8.813 5.625l1.832 1.914L187 81c-1.47 3.399-3.38 5.65-6 8.25l-2.125 2.141C177 93 177 93 175 93c-1.656-1.609-1.656-1.609-3.5-3.75l-1.844-2.109C168 85 168 85 166 81l9-9z" fill="#60b35d"/><path d="M120 166l5 5 2.375 2.063C129 175 129 175 128.855 176.855c-1.119 2.806-2.738 4.318-4.918 6.395l-2.223 2.141L120 187c-3.239-1.444-5.62-3.258-8.25-5.625l-2.141-1.914L108 178c1.47-3.399 3.38-5.65 6-8.25l2.125-2.141C118 166 118 166 120 166z" fill="#60b35e"/><path d="M98 70c3.806 3.208 7.546 6.407 11 10-1.448 3.444-3.277 5.361-6.125 7.75l-2.195 1.859L99 91c-3.215-1.408-5.322-3.103-7.75-5.625l-1.859-1.914L88 82c1.477-3.452 3.438-5.65 6.125-8.25l2.195-2.141L98 70z" fill="#5fb35c"/></svg>