<svg xmlns="http://www.w3.org/2000/svg" height="50" width="164" viewBox="0 0 800.71 243.97">
  <path style="fill:#112749" d="M19.1 0h41.84l-6.69 37.91h45.72L106.66 0h42.01l-19.09 108.32H87.55l7.73-43.82H49.56l-7.72 43.82H0L19.1 0zM157.14 69.31c2.11-11.97 8.9-21.84 20.37-29.59 11.46-7.76 25.79-11.64 42.97-11.64 19.64 0 33.67 4.56 42.1 13.68 6.77 7.33 9.21 16.37 7.31 27.11-2.13 12.07-8.87 21.96-20.24 29.66-11.37 7.71-25.88 11.56-43.56 11.56-15.76 0-27.94-3.2-36.54-9.6-10.55-7.93-14.69-18.33-12.42-31.18m37.7-.07c-1.23 6.99-.38 12.17 2.57 15.52 2.95 3.35 7.1 5.02 12.46 5.02s10.15-1.65 14.21-4.95c4.06-3.3 6.74-8.59 8.02-15.88 1.2-6.79.34-11.86-2.58-15.18-2.92-3.33-6.97-4.98-12.14-4.98-5.48 0-10.31 1.69-14.47 5.06-4.17 3.38-6.86 8.51-8.07 15.41M294.87 29.85h35.01l-2.26 12.78c6.15-5.22 12.11-8.95 17.86-11.19s12.47-3.36 20.17-3.36c10.41 0 18.12 2.48 23.12 7.43 5 4.95 6.6 12.6 4.77 22.94l-8.79 49.87h-37.78l7.61-43.15c.87-4.92.34-8.41-1.58-10.45-1.92-2.04-4.94-3.07-9.06-3.07-4.56 0-8.49 1.38-11.82 4.14-3.31 2.76-5.61 7.72-6.86 14.85l-6.65 37.68h-37.59l13.84-78.46ZM489.28 29.85h35.19l-13.06 74.1-.53 3.47c-.87 4.93-3 9.62-6.41 14.08-3.41 4.46-7.52 8.07-12.35 10.83-4.82 2.76-10.69 4.75-17.58 5.98-6.9 1.23-14.66 1.85-23.28 1.85-19.7 0-32.82-2.37-39.34-7.09-6.52-4.73-9.09-11.06-7.69-18.99.17-.98.47-2.31.89-3.99l35.9 3.32c.45 2.71 1.53 4.59 3.26 5.62 2.5 1.53 5.84 2.29 10.03 2.29 5.42 0 9.67-1.16 12.76-3.47 3.09-2.32 5.14-6.36 6.15-12.12l2.1-11.9c-4.31 3.51-8.45 6.04-12.42 7.61-6.23 2.47-12.69 3.7-19.4 3.7-13.11 0-22.9-4.58-29.35-13.74-4.58-6.5-5.92-15.09-4.04-25.78 2.16-12.22 7.49-21.53 16.01-27.93 8.51-6.4 18.75-9.6 30.69-9.6 7.64 0 13.75 1.03 18.34 3.1 4.59 2.06 8.62 5.49 12.09 10.27l2.04-11.6ZM447.2 67.9c-1 5.66-.23 9.87 2.31 12.6 2.53 2.73 6.26 4.1 11.19 4.1s8.85-1.42 12.53-4.25c3.67-2.83 6-7.11 7.01-12.82 1.01-5.71.12-10.08-2.67-13.11-2.79-3.03-6.58-4.54-11.39-4.54s-8.88 1.39-12.24 4.17c-3.36 2.79-5.6 7.4-6.74 13.86M555.13 0h41.84l-7.22 40.94L640.8 0h55.64l-56.62 40.89 39.74 67.43h-51.53l-20.69-44.55-24.81 18.11-4.66 26.44h-41.84L555.13 0zM798.94 76.54h-75.37c-.17 4.83.82 8.43 2.99 10.79 3.04 3.4 7.47 5.1 13.32 5.1 3.7 0 7.34-.74 10.92-2.22 2.19-.93 4.67-2.58 7.43-4.95L794.78 88c-7.05 7.88-14.88 13.53-23.49 16.95-8.61 3.43-20.39 5.14-35.35 5.14-12.99 0-22.96-1.47-29.89-4.4-6.93-2.93-12.28-7.59-16.06-13.97-3.77-6.38-4.9-13.87-3.38-22.5 2.16-12.27 8.82-22.19 19.98-29.78s25.39-11.38 42.69-11.38c14.04 0 24.82 1.7 32.35 5.09 7.53 3.4 12.85 8.33 15.96 14.78 3.11 6.45 3.75 14.85 1.93 25.19l-.59 3.39Zm-35.7-14.41c.28-5.81-.93-9.97-3.66-12.49-2.73-2.51-6.68-3.77-11.85-3.77-5.97 0-11.08 1.89-15.32 5.69-2.7 2.37-4.76 5.89-6.2 10.57h37.03Z"/>
  <path d="M2.24 182.58c0-11.28 9.16-20.46 20.45-20.46h40.93c11.29 0 20.46 9.18 20.46 20.46v40.93c0 11.28-9.18 20.46-20.46 20.46H22.69c-11.28 0-20.45-9.18-20.45-20.46v-40.93Z" style="fill:#c00d54;fill-rule:evenodd"/>
  <path d="M100.45 182.58c0-11.28 9.16-20.46 20.47-20.46h40.91c11.31 0 20.46 9.18 20.46 20.46v40.93c0 11.28-9.16 20.46-20.46 20.46h-40.91c-11.31 0-20.47-9.18-20.47-20.46v-40.93Z" style="fill:#b91c22;fill-rule:evenodd"/>
  <path d="M198.67 182.58c0-11.28 9.16-20.46 20.46-20.46h40.92c11.29 0 20.45 9.18 20.45 20.46v40.93c0 11.28-9.16 20.46-20.45 20.46h-40.92c-11.3 0-20.46-9.18-20.46-20.46v-40.93Z" style="fill:#dd5418;fill-rule:evenodd"/>
  <path d="M296.87 182.58c0-11.28 9.18-20.46 20.47-20.46h40.93c11.28 0 20.45 9.18 20.45 20.46v40.93c0 11.28-9.16 20.46-20.45 20.46h-40.93c-11.29 0-20.47-9.18-20.47-20.46v-40.93Z" style="fill:#eda32e;fill-rule:evenodd"/>
  <path d="M395.09 182.58c0-11.28 9.18-20.46 20.46-20.46h40.92c11.29 0 20.46 9.18 20.46 20.46v40.93c0 11.28-9.18 20.46-20.46 20.46h-40.92c-11.28 0-20.46-9.18-20.46-20.46v-40.93Z" style="fill:#f3e247;fill-rule:evenodd"/>
  <path d="M493.32 182.58c0-11.28 9.16-20.46 20.45-20.46h40.94c11.28 0 20.46 9.18 20.46 20.46v40.93c0 11.28-9.18 20.46-20.46 20.46h-40.94c-11.28 0-20.45-9.18-20.45-20.46v-40.93Z" style="fill:#d0d620;fill-rule:evenodd"/>
  <path d="M696.27 228.45v9.96h-51.45v-3.67l-4.76 1.31c-.21-1.22-.41-2.62-.83-4.02-13.15 1.92-27.02 3.93-37.68 5.41l-1.86-10.04c5.28-.52 11.8-1.22 18.94-2.1v-15.02h-5.8v3.41H603v-36.68h15.73v-15.37h10.97v15.37h15.22v33.27H629.6v13.62l7.04-.79c-.83-2.45-1.66-4.89-2.59-7.07l9.32-2.36c1.97 4.54 3.93 10.04 5.28 14.76h15.63v-49.78h-17.39v-9.96h47.31v9.96h-16.87v49.78h18.94Zm-83.43-26.63h6.94v-16.33h-6.94v16.33Zm22.46-16.33h-6.73v16.33h6.73v-16.33ZM737.47 217.1c-1.24-2.45-3.73-6.11-6.21-9.61v35.46h-11.9v-31.44c-3.42 6.72-7.25 12.92-11.28 17.29-1.14-2.97-3.83-7.25-5.69-9.87 5.8-5.59 11.59-14.93 15.32-23.4h-13.97v-9.69h15.63v-9.87c-4.04.52-7.87 1.05-11.7 1.4-.41-2.36-1.97-5.76-3.31-8.03 11.8-1.48 24.74-4.19 33.33-7.16l6.94 8.47c-4.04 1.31-8.59 2.36-13.35 3.23v11.96h13.66v9.69h-13.66v.7c3 2.45 11.49 10.65 13.46 12.66l-7.25 8.21Zm51.03 3.75v22.01h-12.11v-20.17l-31.26 4.54-1.97-9.87 33.23-4.8v-51.17h12.11v49.43l10.25-1.48 1.97 9.69-12.21 1.83Zm-25.98-12.14c-3.21-3.84-10.46-9.43-16.46-13.36l7.87-5.94c5.9 3.49 13.56 8.91 16.98 12.66l-8.38 6.64Zm2.69-23.05c-2.9-3.75-9.63-9.34-15.42-13.1l8.07-5.94c5.59 3.58 12.84 8.73 15.94 12.58l-8.59 6.46Z" style="fill:#112749"/>
</svg>
