<svg xmlns="http://www.w3.org/2000/svg" width="32" height="32" fill="#326ce5" xmlns:v="https://vecta.io/nano"><path d="M3 15.967V3.697c0-.976.386-1.912 1.074-2.605A3.69 3.69 0 0 1 6.672.002h13.685a2.28 2.28 0 0 1 1.802.775l5.839 5.953a2.85 2.85 0 0 1 .844 2.098v19.433c-.003.491-.104.977-.296 1.428a3.69 3.69 0 0 1-.826 1.202 3.71 3.71 0 0 1-1.227.789c-.457.179-.946.265-1.437.252H6.809a3.7 3.7 0 0 1-1.449-.248 3.71 3.71 0 0 1-1.238-.793c-.356-.344-.638-.757-.83-1.213A3.71 3.71 0 0 1 3 28.238V15.967zM19.969 1.644H6.855c-.307-.032-.618.005-.91.108a2.07 2.07 0 0 0-1.264 1.264c-.103.292-.14.602-.108.91v24.222a2.1 2.1 0 0 0 .116.905 2.11 2.11 0 0 0 .489.77 2.1 2.1 0 0 0 1.675.606h18.064a2.1 2.1 0 0 0 1.675-.606c.218-.218.385-.48.49-.77a2.1 2.1 0 0 0 .116-.905V9.307c0-.251 0-.319-.342-.319h-3.763a3.04 3.04 0 0 1-1.2-.208 3.03 3.03 0 0 1-1.021-.663c-.292-.288-.523-.632-.678-1.011a3.03 3.03 0 0 1-.226-1.196V1.644zm.092 13.775h.502c.456 0 .593.16.593.639v5.999c0 .433-.137.57-.57.57h-9.351c-.456 0-.593-.137-.593-.616v-5.93c0-.525.137-.661.661-.661h.433a3.36 3.36 0 0 0 0-.479 17.07 17.07 0 0 1 .182-2.44c.236-.956.809-1.796 1.613-2.365s1.786-.831 2.767-.736a4.27 4.27 0 0 1 2.623 1.352c.686.748 1.082 1.717 1.118 2.731v1.551a2.29 2.29 0 0 0 .023.388h0zm-6.843 0h5.428v-1.916c-.021-.698-.302-1.362-.787-1.864s-1.14-.805-1.836-.85a2.72 2.72 0 0 0-1.838.605 2.71 2.71 0 0 0-.968 1.676 18.61 18.61 0 0 0-.023 2.326l.023.023z"/></svg>