<svg xmlns="http://www.w3.org/2000/svg" width="32" height="32" fill="none" xmlns:v="https://vecta.io/nano"><path d="M16.529 31.984h-.445-.305c-2.773-.934-5.309-2.462-7.431-4.478a16.13 16.13 0 0 1-3.798-6.142C3.3 17.276 2.8 12.995 3.072 8.729h0V7.721c-.007-.879.33-1.727.939-2.362s1.441-1.007 2.32-1.038c3.316-.071 6.475-1.424 8.815-3.774h0c.37-.351.861-.547 1.371-.547s1.001.196 1.371.547h0c2.331 2.349 5.483 3.702 8.791 3.774a3.4 3.4 0 0 1 3.141 3.329v1.008c.306 4.276-.163 8.573-1.383 12.683a16.41 16.41 0 0 1-3.798 6.048c-2.105 2.002-4.615 3.529-7.361 4.478h-.305l-.445.117zm0-23.771a3.68 3.68 0 0 0-1.149.188 4.01 4.01 0 0 0-2.813 3.47 11.7 11.7 0 0 0 0 1.289v.61c-.774.211-.961.445-.938 1.242v7.033a.96.96 0 0 0 .985.703h7.736c.245.027.491-.045.684-.198a.94.94 0 0 0 .347-.622v-7.15a.89.89 0 0 0-.727-.961h-.164v-1.477a4.08 4.08 0 0 0-1.008-2.743c-.37-.429-.826-.774-1.34-1.012s-1.072-.365-1.638-.371h.023zm.727 11.933h-1.453c-.011-.156-.011-.313 0-.469 0-.375.141-.75.234-1.102.025-.075.023-.157-.008-.23s-.086-.133-.157-.169c-.105-.077-.194-.173-.262-.284s-.113-.235-.132-.363-.014-.26.018-.386.088-.245.165-.349a.96.96 0 0 1 .93-.375.96.96 0 0 1 .758.657.96.96 0 0 1-.211 1.102c-.037.015-.071.038-.098.066a.28.28 0 0 0-.062.101c-.013.038-.018.078-.015.118a.28.28 0 0 0 .035.113c0 .281 0 .586.164.891l.141.703-.047-.024zm1.899-6.353h-5.298v-.821a3.94 3.94 0 0 1 .258-1.875c.204-.453.533-.84.948-1.114s.899-.424 1.397-.434h.445c.568.103 1.087.387 1.48.81s.639.961.7 1.535v1.242.61l.07.047z" fill="#326ce5"/></svg>