<svg xmlns="http://www.w3.org/2000/svg" width="32" height="32" fill="none" xmlns:v="https://vecta.io/nano"><g clip-path="url(#A)"><path d="M27.555 4.038l-11.333-4c-.143-.051-.301-.051-.444 0l-11.333 4A.67.67 0 0 0 4 4.667v8C4 23.02 5.535 26.804 15.7 31.929A.67.67 0 0 0 16 32c.103 0 .206-.024.3-.072C26.465 26.804 28 23.02 28 12.667v-8a.67.67 0 0 0-.445-.629zM16.312 28.923c-.205.108-.462.1-.656-.018a.67.67 0 0 1-.323-.571v-11c0-.369-.298-.667-.667-.667H7.398c-.357 0-.65-.279-.666-.636a74.53 74.53 0 0 1-.065-3.364V6.554a.67.67 0 0 1 .445-.628l8.668-3.059A.65.65 0 0 1 16 2.828a.66.66 0 0 1 .385.122.67.67 0 0 1 .282.544v11.172c0 .368.298.667.667.667h7.269a.67.67 0 0 1 .482.205c.125.131.192.311.184.492-.308 6.724-2.066 9.255-8.956 12.892z" fill="#326ce5"/></g><defs><clipPath id="A"><path fill="#fff" d="M0 0h32v32H0z"/></clipPath></defs></svg>