<svg xmlns="http://www.w3.org/2000/svg" width="32" height="32" fill="none" xmlns:v="https://vecta.io/nano"><g clip-path="url(#A)"><g fill-rule="evenodd" fill="#326ce5"><path d="M.366 18.411c0-1.273 7.086-2.315 15.817-2.315S32 17.138 32 18.411c0 1.296-7.086 2.315-15.817 2.315S.366 19.707.366 18.411z"/><g stroke="#326ce5"><path d="M0 12.114c0 1.196 7.136 2.175 15.93 2.175s15.93-.979 15.93-2.175v5.916c0 1.196-7.136 2.175-15.93 2.175S0 19.227 0 18.031v-5.916z" stroke-width=".11" stroke-miterlimit="10"/></g></g><g stroke-width=".5" stroke-linejoin="round"><path d="M31.749 22.114c0 1.296-7.086 2.315-15.817 2.315S0 23.41 0 22.114c0-1.273 7.086-2.315 15.817-2.315s15.931 1.042 15.931 2.315zm0 0v6.296c0 1.273-7.086 2.315-15.817 2.315S.114 29.683.114 28.41v-6.296" stroke="#326ce5" stroke-dasharray="0.86 0.22"/><path d="M31.749 11.837c0 1.273-7.086 2.315-15.817 2.315S0 13.11 0 11.837m31.749 0c0-1.296-7.2-2.315-15.931-2.315S0 10.541 0 11.837m31.749 0v6.273c0 1.296-7.086 2.315-15.817 2.315S0 19.406 0 18.11v-6.273" stroke="#326ce5"/><path d="M31.749 4.315c0 1.296-7.086 2.315-15.817 2.315S0 5.611 0 4.315m31.749 0c0-1.273-7.2-2.315-15.931-2.315S0 3.042 0 4.315m31.749 0v6.296c0 1.296-7.086 2.315-15.817 2.315S0 11.907 0 10.61V4.315" stroke="#326ce5" stroke-dasharray="0.86 0.22"/></g></g><defs><clipPath id="A"><path fill="#fff" d="M0 0h32v32H0z"/></clipPath></defs></svg>