<svg xmlns="http://www.w3.org/2000/svg" width="32" height="32" fill="none" xmlns:v="https://vecta.io/nano"><g clip-path="url(#A)" fill="#326ce5"><path d="M15.913 31.826L0 0h31.826l-7.229 14.39h-.409c-.75 0-.909.136-.977 1.637 0 .637-1.705 1.569-2.569 1.569a.71.71 0 0 1-.318 0l-.182-.136c-.705-.5-1.046-.75-1.364-.75s-.659.296-1.319.977l-.409.364c-.089.072-.161.161-.212.263s-.079.214-.083.328c.017.186.107.358.25.477a1.96 1.96 0 0 1 .537.588c.137.231.225.487.258.753a2.09 2.09 0 0 1-.25.909l-.432.887a1.18 1.18 0 0 1-.227.409.8.8 0 0 1-.5.182h-.682-.159c-.318 0-.682 0-.818.341a1.52 1.52 0 0 0 0 .546v1.273c0 1.159 0 1.182 1.182 1.296h.364c.523 0 1.182.955 1.5 1.773l-1.864 3.751zm-.932-17.14v1.841h1.864v-1.841h-1.864zm-2.751-2.773V13.8h1.841v-1.887H12.23zm5.524 0v1.841h1.864v-1.841h-1.864zm-2.773 0v1.864h1.887v-1.864h-1.887zm-2.751-2.82v1.864h1.841V9.093H12.23zm2.751 0v1.841h1.887V9.093h-1.887zm2.773 0v1.841h1.864V9.093h-1.864zM12.23 6.388v1.864h1.841V6.388H12.23zm5.524 0v1.841h1.841V6.388h-1.841zm-2.773 0v1.841h1.887V6.388h-1.887zm16.026 17.049c-.34-.217-.617-.521-.8-.881a2.27 2.27 0 0 1-.245-1.165v-.114c.75-1 .75-1-.114-1.887s-.705-.636-1.319 0a.93.93 0 0 1-.988.345c-.12-.032-.232-.087-.33-.163a.75.75 0 0 0-.364-.159h-.136a.91.91 0 0 1-.682-1.091h0v-.318c-.022-.117-.089-.221-.187-.289s-.218-.095-.336-.075h-.5c-1.137 0-1.296-.25-1.364 1.137 0 .523-1.569 1.296-2.023 1.069h-.136c-1.023-1.046-1.023-1.046-1.819-.159l-.273.273a.48.48 0 0 0-.136.637h0a1.32 1.32 0 0 1 .546 1.068c-.004.217-.067.429-.182.614l-.296.637a.75.75 0 0 1-.159.296c-.1.071-.218.111-.341.114h-.477c-.227 0-.591 0-.682.25-.023.128-.023.259 0 .387v1.046c0 .818 0 .818.818.909h.273c.568 0 1.364 1.523 1.137 2.023v.136c-.705 1.023-.705 1.023.182 1.932l.227.227c.227.227.523.318.75 0V30.1c.121-.125.266-.225.426-.293s.332-.103.506-.103.346.035.506.103a1.29 1.29 0 0 1 .426.293l.296.114a.57.57 0 0 1 .477.614v.591a.25.25 0 0 0 0 .182c.011.066.035.128.071.184a.49.49 0 0 0 .139.14c.055.037.118.061.184.072a.48.48 0 0 0 .197-.009h1.091c.432 0 .659-.182.637-.591v-.136a1.18 1.18 0 0 1 1.068-1.273h0a.72.72 0 0 0 .296-.136h0c.164-.118.367-.168.567-.138a.77.77 0 0 1 .502.297h0a4.4 4.4 0 0 0 .614.477 2.91 2.91 0 0 0 1.546-1.432.68.68 0 0 0-.182-.386 1.27 1.27 0 0 1-.341-1.751l.114-.159a.78.78 0 0 0 0-.205.73.73 0 0 1 .275-.466c.148-.114.335-.167.521-.147 1 0 1 0 1-1.068s.182-1.25-.977-1.432zm-2.978 1.273a3.07 3.07 0 0 1-5.27 2.092 3.07 3.07 0 0 1 2.247-5.206 3.05 3.05 0 0 1 2.133.916c.563.575.874 1.349.868 2.153l.023.045z"/></g><defs><clipPath id="A"><path fill="#fff" d="M0 0h32v32H0z"/></clipPath></defs></svg>