<svg version="1.1" id="Layer_1" xmlns="http://www.w3.org/2000/svg" xmlns:xlink="http://www.w3.org/1999/xlink" x="0px" y="0px" viewBox="0 0 787.1 275.4" style="enable-background:new 0 0 787.1 275.4;" xml:space="preserve">
<style type="text/css">
	.st0aa{fill:#7F9FB4;}
	.st1aa{fill:none;stroke:#4099D4;stroke-miterlimit:10;}
	.st2aa{fill:#3A7D3D;}
	.st3aa{fill:#73BF69;}
	.st4aa{fill:#A2D296;}
	.st5aa{fill:#80A1B6;}
</style>
<g>
	<path class="st0aa" d="M221.6,170.4c-8,0.3-15.7,0.4-22.7,0.4c-16.9,0-32.8-0.9-32.8-22V70.9h11v71.8c0,15.7,3,18.9,21.4,18.9h23.1
		V170.4z"></path>
</g>
<g>
	<path class="st0aa" d="M230.6,78.6c0-5.6,1.4-7.6,6.2-7.6c4.8,0,6.3,2,6.3,7.6c0,5.6-1.3,7.5-6.3,7.5S230.6,84.2,230.6,78.6z
		 M231.7,94.3H242v76.2h-10.4V94.3z"></path>
</g>
<g>
	<path class="st0aa" d="M295.1,164.1c-1.9,5-4.3,7.4-8.1,7.4c-4,0-6.5-2.4-8.4-7.4l-26.8-69.8h11.1l24.3,64.8l24.6-64.8h10.6
		L295.1,164.1z"></path>
</g>
<g>
	<path class="st0aa" d="M324.5,132.4c0-27.6,8.3-39.1,33.3-39.1c25.8,0,32.8,13.5,32.8,34.3c0,2.1-0.1,5-0.2,7.2
		c-8.7,1.5-26.8,3.2-37.4,3.6l-18,0.7c1.3,15.6,6,23.6,25.2,23.6c9.9,0,19.1-1.1,26.9-2.1l0.9,8.4c-8.7,1.3-17.5,2.5-31.9,2.5
		C331.1,171.5,324.5,155,324.5,132.4z M354.8,130.3c6.7-0.3,18.1-1.2,25.1-2.1c0.1-1.5,0.2-3.8,0.2-5.3c0-12.9-5.6-21.1-22.3-21.1
		c-19.2,0-23.2,9.8-23.2,29.5L354.8,130.3z"></path>
</g>
<g>
	<path class="st0aa" d="M426.5,170.5h-20.2V72.6c8.6-1.6,20.5-2.7,32.4-2.7c22,0,40,4.4,40,31.3c0,17.6-7.4,25.9-19.1,29.5l22.8,39.9
		h-23.3l-20.4-37.6c-4.1,0-8.7-0.2-12.2-0.4V170.5z M426.5,116.4c4.1,0.5,8.2,0.5,12.3,0.5c12.5,0,19.9-3.2,19.9-15.9
		c0-11-5-15.4-19.5-15.4c-4,0-8.6,0.3-12.7,0.9V116.4z"></path>
</g>
<g>
	<path class="st0aa" d="M488.4,147.2c0-13.5,5.9-21.8,21.1-24.2c8-1.3,16-1.6,24.4-1.9c0-8.8-4.1-12.7-14-12.7c-9.2,0-19.2,1-26.9,2
		l-1.5-14.1c8-1.4,18.7-2.9,29.9-2.9c17,0,31.1,4.7,31.1,24.5V150c0,5.2-0.2,9.6-0.6,14.5c-8.8,5.1-20.3,7.1-34,7.1
		C496.7,171.5,488.4,163.4,488.4,147.2z M533.9,133.5c-5.7,0.3-12.3,0.5-17.6,1.7c-6.7,1.6-9.2,3.8-9.2,11.8c0,8,4.6,10.1,12.9,10.1
		c4.2,0,9.3-0.3,13.4-2.1c0.3-3.1,0.5-6.8,0.5-10.2V133.5z"></path>
</g>
<g>
	<path class="st0aa" d="M583.6,170.5h-18.9v-55.7c0-5.2,0.2-9.6,0.6-14.5c8.5-4.5,20.4-7.1,32.2-7.1c8.4,0,14.3,1.6,18.4,4.4
		c6.8-2.6,15.2-4.4,23.3-4.4c24.4,0,28,13.1,28,28.7v48.5h-18.9v-46.8c0-9.9-2.4-15.2-13-15.2c-3,0-7.4,0.8-10.9,2.5
		c0.8,3.4,1,7.1,1,10.9v48.5h-18.9v-46.8c0-9.7-2.3-15.2-12.7-15.2c-3.3,0-7.4,0.9-9.7,2c-0.3,3.1-0.5,6.8-0.5,10.2V170.5z"></path>
</g>
<g>
	<path class="st0aa" d="M699.8,206.2h-18.9v-91.4c0-5.2,0.2-9.6,0.6-14.5c8.6-5,20.3-7.1,30.7-7.1c25.4,0,36.1,9.2,36.1,39.1
		c0,29.5-10.4,39.1-33.9,39.1c-4.6,0-10-0.6-14.5-1.6V206.2z M710.5,156.6c18.2,0,18.6-10.3,18.6-24.1c0-12.4-0.7-24.2-17-24.2
		c-4.2,0-9,0.7-11.9,2c-0.3,3.1-0.5,6.8-0.5,10.2v34.5C703,155.9,707.2,156.6,710.5,156.6z"></path>
</g>
<g>
	<path class="st1aa" d="M196,249.7"></path>
</g>
<g>
	<path class="st1aa" d="M191.8,249.6"></path>
</g>
<g>
	<path class="st1aa" d="M152.9,16.8"></path>
</g>
<g>
	<path class="st1aa" d="M148.8,16.7"></path>
</g>
<g>
	<path class="st1aa" d="M157.2,173.2"></path>
</g>
<g>
	<path class="st1aa" d="M153.1,173.2"></path>
</g>
<polygon class="st0aa" points="50,172.7 19,205.3 59.1,205.3 "></polygon>
<g>
	<path class="st1aa" d="M194.8,537.2"></path>
</g>
<g>
	<path class="st1aa" d="M190.7,537.1"></path>
</g>
<polygon class="st2aa" points="56.1,171.7 65.5,205.3 148.1,205.3 148.1,193.8 "></polygon>
<polygon class="st3aa" points="59.8,166.3 148,187.5 148,135.6 "></polygon>
<polygon class="st4aa" points="63.2,158.6 148,129.1 148,69.5 "></polygon>
<g>
	<path class="st5aa" d="M768.4,101.8c0,1.1-0.2,2.1-0.6,3c-0.4,0.9-0.9,1.7-1.6,2.3c-0.7,0.6-1.4,1.1-2.3,1.5s-1.8,0.5-2.8,0.5
		c-1.1,0-2-0.2-2.9-0.6c-0.9-0.4-1.7-0.9-2.3-1.6c-0.6-0.7-1.1-1.4-1.5-2.3c-0.4-0.9-0.5-1.9-0.5-2.9c0-1.1,0.2-2.1,0.6-3
		c0.4-0.9,0.9-1.7,1.6-2.3c0.7-0.6,1.4-1.1,2.3-1.5c0.9-0.4,1.8-0.5,2.8-0.5c1,0,1.9,0.2,2.8,0.5s1.6,0.9,2.3,1.5s1.2,1.4,1.6,2.3
		C768.2,99.7,768.4,100.7,768.4,101.8z M766.8,101.8c0-0.9-0.1-1.7-0.4-2.5c-0.3-0.8-0.7-1.4-1.2-1.9s-1.1-1-1.8-1.3
		c-0.7-0.3-1.4-0.4-2.2-0.4c-0.8,0-1.6,0.1-2.2,0.4c-0.7,0.3-1.3,0.7-1.8,1.3s-0.9,1.2-1.2,1.9c-0.3,0.8-0.4,1.6-0.4,2.5
		c0,0.8,0.1,1.6,0.4,2.4s0.6,1.4,1.1,1.9c0.5,0.6,1.1,1,1.8,1.3c0.7,0.3,1.5,0.5,2.4,0.5c0.8,0,1.5-0.1,2.2-0.4
		c0.7-0.3,1.3-0.7,1.8-1.3c0.5-0.5,0.9-1.2,1.2-1.9C766.7,103.5,766.8,102.7,766.8,101.8z M759.7,106h-1.3v-8.2h3.1
		c1,0,1.7,0.2,2.2,0.6c0.5,0.4,0.8,1,0.8,1.8c0,0.7-0.2,1.3-0.6,1.6s-0.9,0.5-1.5,0.6l2.3,3.6h-1.5l-2.1-3.5h-1.3V106z M761.2,101.4
		c0.2,0,0.5,0,0.7,0c0.2,0,0.4-0.1,0.6-0.2c0.2-0.1,0.3-0.2,0.4-0.4c0.1-0.2,0.2-0.4,0.2-0.7c0-0.2-0.1-0.4-0.2-0.6
		c-0.1-0.1-0.3-0.3-0.4-0.3S762.2,99,762,99c-0.2,0-0.4,0-0.6,0h-1.6v2.4H761.2z"></path>
</g>
</svg>
