<svg xmlns="http://www.w3.org/2000/svg" viewBox="0 0 80.5 19.7" fill="#fff" xmlns:v="https://vecta.io/nano"><path d="M79.5 4.2v12.5.1c-.1.4-.2.7-.5 1s-.7.4-1.1.4h-7.6-.1c-.3 0-.7-.1-.9-.3-.4-.3-.6-.7-.6-1.3V7.3v-3c0-.3.1-.6.2-.8.3-.5.8-.7 1.4-.7h7.5.3a1.73 1.73 0 0 1 1.3 1.3c.1 0 .1 0 .1.1zm-9.6 6.2v6.1.1c0 .2.2.4.5.4h1.1H78c.1 0 .2 0 .3-.1.2-.1.2-.3.2-.5v-4-8.3-.2c-.1-.2-.3-.4-.5-.4h-7.1-.5-.2a.55.55 0 0 0-.3.5v6.4zm7.8-.5h-7V6.8c0-.4.1-.8.3-1.1.2-.5.6-.7 1-.8.3-.1.7 0 1 .1.5.2.8.5.9 1v.1c0-.2.1-.3.1-.5.2-.5.6-.8 1.2-.9.4-.1.8-.1 1.1.1.5.2.8.5.9.9.1.3.2.5.2.8v.6c.3.9.3 1.8.3 2.8 0-.1 0-.1 0 0zm-1.1-1.7v-.8-.3c-.1-.3-.2-.5-.5-.6-.2-.1-.4-.1-.6 0-.3 0-.5.2-.6.5-.1.2-.1.3-.1.5v.8c.6-.1 1.2-.1 1.8-.1zm-4.9 0h1.7v-.6-.3c0-.3-.2-.5-.4-.6s-.3-.1-.5-.1c-.3 0-.5.2-.6.4s-.1.3-.1.5c-.1.2-.1.4-.1.7zm6 7.9h-7v-2.8c0-.4.1-.8.3-1.2.2-.5.6-.8 1-1a1.93 1.93 0 0 1 1-.3c.5-.1 1-.1 1.5-.1s1 .1 1.4.2c.3.1.6.2.9.5.4.3.7.7.8 1.2.1.3.1.5.1.8v2.7c0-.1 0-.1 0 0zm-5.9-1.7h4.7v-.8c0-.3-.1-.5-.4-.7-.2-.2-.4-.3-.7-.4s-.7-.1-1-.2c-.4 0-.9 0-1.3.1-.3 0-.5.1-.8.3a1.1 1.1 0 0 0-.6 1c.1.2.1.4.1.7zm-34 .5c0 .2-.1.3-.2.4a.76.76 0 0 1-.4.2h-1.8c-.2 0-.3-.1-.4-.2a.76.76 0 0 1-.2-.4V2.6h-1.7l-2.6 3.7v8 .1l1.8 2.5c.3.5.7.9 1 1.4.4.1.8.1 1.2.1h.7c1.3 0 2.3-.4 3-1.1v.8h3.9V2.6h-4.3v12.3zM67.3 12V6.9c0-2.8-1.3-4.2-4-4.2h-3.6c-2.6 0-4 1.4-4 4.2v7.4c0 2.8 1.3 4.2 4 4.2h3.6c2.6 0 4-1.4 4-4.2v-1.2H63v1.7c0 .2-.1.3-.2.4a.76.76 0 0 1-.4.2h-1.8c-.2 0-.3-.1-.4-.2-.1 0-.2-.2-.2-.3V12h7.3zM60 6.3c0-.2.1-.3.2-.4a.76.76 0 0 1 .4-.2h1.8c.2 0 .3.1.4.2s.2.2.2.4v2.9h-3V6.3zM29.4 7.6h0-.1zM15.8 6h0v-.1-.1l-.1-.1-7.5-3.3c-.1-.1-.3-.1-.4 0L.5 5.5l-.1.1v.1.1h0 0v9.3a.55.55 0 0 0 .3.5l7.2 3.1H8h.1.1.1.1.1l7.2-3.1a.55.55 0 0 0 .3-.5L15.8 6h0 0zM8 3.5L13.9 6l-1.8.8-3.9-1.7c-.1-.1-.3-.1-.4 0L3.9 6.8h-.1L2.1 6 8 3.5zm-.5 14.2L1.3 15V6.8l2.1.9v4.9a.55.55 0 0 0 .3.5l3.8 1.6v3zm.5-3.9l-3.6-1.5V7.7L8 6.2l3.6 1.6v4.6L8 13.8zm6.7 1.2l-6.2 2.7v-2.9l3.8-1.6a.55.55 0 0 0 .3-.5v-5l2.1-.9V15z"/><path d="M12.4 6.9L8.2 5.1h-.1H8h-.1-.1-.1-.1L3.7 6.9c-.2.1-.4.3-.4.5v5.3c0 .2.1.4.4.5h0L7.8 15c.1.1.3.1.4 0l4.1-1.8h0c.2-.1.4-.3.4-.5V7.4c0-.2-.2-.4-.3-.5zm-8 .8l3.1-1.3v4.2l-3.1 1.3V7.7zM8 13.8l-2.8-1.2L8 11.5h0l2.8 1.2L8 13.8zm3.6-1.9l-3.1-1.3V6.4l3.1 1.3v4.2zm17-4.3c.2-.2.4-.4.5-.6l2.7-3.8c.1-.2.2-.4.4-.6h-.3-4.3c-.6 0-1 .1-1.4.7l-4.1 5.9c-.6.9-.6 1.6 0 2.5.1.2.3.4.4.6l2.6 3.7 1.3 2c.1.2.2.3.5.3h4.9.3c-.1-.1-.1-.2-.1-.2l-1.1-1.5-3.4-4.9c-.4-.5-.5-1.1-.2-1.7.2-.6.4-1 .7-1.4l.6-1h0zm-11 2.8v7.4c0 .3.1.4.3.4h3.8c.3 0 .3-.1.3-.3v-4.1c0-.2-.1-.4-.2-.5-.2-.4-.5-.7-.8-1.1-.7-1-.8-2.1-.1-3.2l.9-1.3c.1-.2.2-.4.2-.7V3c0-.3-.1-.3-.3-.3h-3.8c-.3 0-.3.1-.3.3v7.4zM50.8 6h-.7c-1.1 0-1.9.3-2.6.8V2.7h-4.3v15.5h3.6V17c.7 1 1.8 1.5 3.3 1.5h.7c2.6 0 4-1.4 4-4.2v-4.1c0-2.8-1.4-4.2-4-4.2zm-.7 8.9c0 .2-.1.3-.2.4a.76.76 0 0 1-.4.2h-1.8c-.2 0-.3-.1-.4-.2a.76.76 0 0 1-.2-.4V9.7c0-.2.1-.3.2-.4a.76.76 0 0 1 .4-.2h1.8c.2 0 .3.1.4.2a.76.76 0 0 1 .2.4v5.2z"/></svg>