<?xml version="1.0" encoding="utf-8"?>
<!-- Generator: Adobe Illustrator 21.0.0, SVG Export Plug-In . SVG Version: 6.00 Build 0)  -->
<svg version="1.1" id="Layer_1" xmlns="http://www.w3.org/2000/svg" xmlns:xlink="http://www.w3.org/1999/xlink" x="0px" y="0px"
	 viewBox="0 0 80.5 19.7" style="enable-background:new 0 0 80.5 19.7;" xml:space="preserve">
<style type="text/css">
	.st0{display:none;fill:#FFFFFF;}
	.st1{display:none;}
	.st2{display:inline;fill:#193D4B;}
	.st3{display:inline;}
	.st4{fill:#FFFFFF;}
	.st5{fill:#00A651;}
	.st6{fill:#7272E9;}
	.st7{fill:#4949A3;}
</style>
<path id="XMLID_127_" class="st0" d="M108.3,38.5c-0.3,1-1.1,1.6-2.2,1.6c-1.3,0-2.3-0.8-3.4-1.4c-0.2-0.1-0.5-0.4-0.5-0.7
	c0-0.5,0.3-1,0.5-1.5s0.4-1.1,0.6-1.6c0.4-1.1,0.9-2.2,1.4-3.2c0.6-1.3,1.1-2.5,1.7-3.8c0.7-1.5,1.4-2.9,2-4.4
	c0.8-1.6,1.6-3.2,2.4-4.9c0.1-0.2,0.2-0.4,0.3-0.6c1.6-3.3,3.2-6.7,4.8-10c1.2-2.5,2.2-5.1,3.2-7.7c0.6-1.7,1.4-3.4,1.1-5.2
	c-0.2-1.3-1.3-2-1.7-3.2c-0.7-2,4-2.1,5.1-2.3c1.7-0.2,3.4-0.4,5.1-0.5c1.3-0.1,2.7-0.1,4-0.1c1.1,0,2.5-0.1,3.4,0.5
	c1.1,0.7,1.1,2.5,1.3,3.7c0.3,2,0.5,3.9,0.6,5.9c0.1,1.1,0.1,2.2,0.1,3.4c0.1,3.5,0.2,7,0.2,10.5c0,2.4,0,4.9,0,7.3
	c0,5.8,0.5,9.8,1.5,12.2c0.4,0.9,0.8,1.3,1.1,1.3c0.8,0,1.5-0.3,2.2-0.6c0.5-0.2,0.9-0.6,1.3-0.9c0.4-0.2,0.8-0.5,1.2,0
	c0.3,0.3,0.4,0.8,0.6,1.1c0.2,0.3,0.5,0.6,0.4,1s-0.5,0.6-0.8,0.8c-0.4,0.3-0.8,0.6-1.2,0.9c-0.8,0.6-1.6,1.1-2.5,1.6
	c-0.5,0.3-1,0.5-1.5,0.7c-2.2,1-4.2,1.5-6.1,1.5c-0.9,0-2-0.3-2.9-0.7c-0.9-0.3-1.6-0.9-2.2-1.6c-1.7-2.1-2.1-5-2.3-7.6
	c0-0.9,0-1.8,0-2.7c0-0.6,0.1-1.3,0.2-1.9s0.4-1.3,0.1-1.9c-0.2-0.5-0.8-0.6-1.3-0.7c-3.1-0.2-6.2-0.1-9.3,0.2
	c-1.2,0.1-2.7,0-3.5,1.1c-0.6,0.8-0.9,2.1-1.3,3.1c-0.5,1.2-1,2.4-1.4,3.7c-0.3,0.7-0.5,1.4-0.8,2.1c-0.3,0.8-0.6,1.7-0.9,2.5
	C108.8,36.7,108.6,37.6,108.3,38.5z M127.7,18.7l0.1-8.2c0-7.2-0.3-12.1-0.9-14.6c-0.4,0-0.7,0-0.9,0.1c-1.3,3.6-2.6,6.7-3.7,9.3
	c-1.2,2.5-2.4,5.2-3.8,8.1c-1.3,2.9-2.2,4.7-2.5,5.4L127.7,18.7L127.7,18.7z"/>
<path id="XMLID_125_" class="st0" d="M148.1,9.2c0.3-0.1,0.6-0.1,0.9-0.2c0.6-0.1,1.2-0.2,1.7-0.3c1.6-0.2,3.1-0.3,4.7-0.3
	c1,0,2.1,0,3.1-0.1c0.3,0,0.7-0.1,1,0.2c0.2,0.3,0.2,0.6,0.3,0.9s0.2,0.6,0.3,1c0.1,0.3,0.1,0.7,0.2,1.1c0,0.2,0,0.4,0.1,0.6
	c0,0.1,0.1,0.5,0,0.5c3.6-3,6.7-4.5,9.1-4.5c2.4,0,4.4,1,5.9,3.1c1.5,2,2.2,5,2.2,8.9c0,6.9-1.3,12-3.8,15.3c-2.4,3.2-6,5.2-10,5
	c-1.3-0.1-2.7-0.2-3.9-0.6c-0.5-0.2-1.1-0.4-1.1-1.1c0-0.4,0.1-0.9,0.4-1.2c0.2-0.2,0.6-0.3,0.9-0.4c0.3-0.2,0.7-0.4,1-0.6
	c0.7-0.4,1.3-0.9,1.9-1.5c1.4-1.3,2.4-3,3.2-4.8c1.6-3.8,2.5-8.6,1.2-12.6c-0.4-1.2-1.1-2.5-2.3-2.9c-1-0.4-2,0-2.8,0.7
	c-2.1,1.8-2.6,5-2.9,7.6c-0.6,4.1-1.2,8.1-2.1,12.2c-0.6,2.6-1.1,5.3-1.4,8c-0.3,2.4-0.7,4.8-0.8,7.1c0,0.7,0,1.4,0,2
	c0,0.5,0,1-0.4,1.3c-0.5,0.4-1.2,0.4-1.8,0.5c-0.9,0.3-1.9,0.5-2.9,0.6c-0.5,0.1-1.1,0.2-1.6,0.2c-0.6,0.1-1.3,0.1-1.9,0.2
	c-0.4,0.1-0.9,0.1-1.2-0.1l-0.1-0.1c-0.4-0.3-0.4-0.9-0.4-1.4c0-0.6,0-1.2,0-1.8c0-1.2,0.2-2.4,0.4-3.6c0.2-1,0.3-2.1,0.5-3.1
	c0.2-1.3,0.5-2.6,0.8-3.9c0.3-1.6,0.7-3.2,1-4.8c0-0.2,0.1-0.4,0.1-0.6c1.8-8.5,2.8-15,2.8-19.6c0-0.9-0.2-1.9-0.6-2.9
	c-0.3-0.7-0.6-1.3-1-1.9c-0.2-0.3-0.4-0.6-0.6-0.9c-0.2-0.2-0.4-0.5-0.3-0.9C147.7,9.4,147.9,9.3,148.1,9.2z"/>
<path id="XMLID_122_" class="st0" d="M236.7,30.1c0,3-1.3,5.4-3.9,7.3c-1,0.7-1.9,1.1-3,1.5c-0.6,0.2-1.2,0.4-1.8,0.6
	c-1.3,0.4-2.7,0.6-4.1,0.7c-2.8,0.2-6-0.2-8.4-1.8c-2-1.4-2.8-3.7-1.5-5.9c1.1-2,3.5-3.5,5.8-3.1c2.5,0.4,3.7,2.9,4.5,4.9
	c0.2,0.5,0.3,0.9,0.5,1.4c0.2,0.7,0.7,1.2,1.4,1s1.4-0.8,1.6-1.6c0.1-0.3,0.1-0.6,0.1-0.9c0-2.2-1.9-5.3-5.8-9.3
	c-3.8-4-5.8-7.2-5.8-9.6s1.1-4.2,3.2-5.5c2.1-1.3,4.7-2,7.7-2s5.3,0.5,6.8,1.6s2.3,2.5,2.3,4.3s-1.4,4.3-4.3,7.6
	c0.3,0.3,0.8,0.8,1.3,1.3s1.2,1.6,2.1,3.1C236.3,27.4,236.7,28.8,236.7,30.1z M232.9,13.9c0-1.7-1.1-2.5-3.4-2.5
	c-1.1,0-2,0.2-2.7,0.7s-1.1,1-1.1,1.5c0,1,1,2.5,3.1,4.4l1.1,0.9C231.9,17.3,232.9,15.6,232.9,13.9z"/>
<path id="XMLID_120_" class="st0" d="M256.8,40.3c-4.4,0-8.1-1.8-10.9-5.4c-2.9-3.6-4.3-8.2-4.3-14s1-11,3-15.8s4.8-8.6,8.5-11.6
	s7.6-4.5,11.8-4.5s7.6,0.9,10.2,2.8S279-4,279-1.4c0,1.2-0.2,2.5-0.6,3.7c-0.3,0.8-0.6,1.7-1.2,2.4c-0.8,1-1.7,0.6-2.8,0.4
	c-1-0.2-1.9-0.5-2.9-0.8c-1.2-0.4-2.5-1-3.5-1.8c-1-0.7-0.6-1.5-0.4-2.5c0.1-0.7,0.3-1.4,0.4-2.1s0.3-1.4,0.4-2
	c0.2-1.2-0.2-1.6-1.3-2c-0.9-0.3-1.9-0.4-2.9-0.4c-2.9,0-5.4,2.5-7.7,7.4c-2.2,4.9-3.3,11-3.3,18.3c0,4.8,0.8,8.2,2.4,10.4
	s3.5,3.2,5.8,3.2c1.4,0,3-0.3,4.3-0.8c1.5-0.6,3-1.4,4.2-2.5c0.5-0.4,0.9-0.8,1.4-1.2c0.2-0.2,0.4-0.5,0.8-0.6s0.6,0.2,0.9,0.4
	c0.5,0.5,0.9,0.9,1.4,1.3c0.4,0.3,0.8,0.8,0.4,1.3c-0.3,0.4-0.7,0.7-1,1.1c-0.5,0.5-1,1-1.5,1.5c-1.4,1.3-2.7,2.4-4,3.3
	c-1.3,0.9-3,1.7-5,2.4C260.9,39.9,258.8,40.3,256.8,40.3z"/>
<path id="XMLID_117_" class="st0" d="M288.4,40.3c-3.3,0-5.8-1.1-7.7-3.4c-1.8-2.3-2.8-5.5-2.8-9.6c0-5.3,1.4-9.8,4.2-13.6
	c2.8-3.8,6.7-5.7,11.7-5.7l2.6,0.1c0.8-0.4,1.7-0.6,2.7-0.6c3.7,0,5.6,3.5,5.6,10.6c1.9-0.1,3.9-0.4,5.9-0.8l1.1-0.3l0.4,2.8
	c-1.6,0.7-3.7,1.3-6.3,1.8l-1.4,0.3c-0.9,5-2.7,9.3-5.5,13C296.3,38.4,292.7,40.3,288.4,40.3z M292.3,34.2c2,0,3.8-1.3,5.4-3.8
	c1.6-2.6,2.7-5.3,3.3-8.1c-5.1,0-7.6-1.9-7.6-5.7c0-1.5,0.3-2.9,0.9-4.3l0.4-0.7c-0.2-0.1-0.4-0.1-0.7-0.1c-0.3,0-0.5,0-0.6,0.1
	c-1.2,0.8-2.3,2.5-3.3,5.3s-1.6,6-1.6,9.6C288.4,31.6,289.7,34.2,292.3,34.2z"/>
<path id="XMLID_114_" class="st0" d="M341.1,35.1c0,0.1-0.1,0.2-0.2,0.3c-0.5,0.5-1.2,1-1.8,1.4c-0.8,0.6-1.6,1.1-2.5,1.6
	c-1.3,0.7-2.6,1.4-4,1.7c-0.7,0.1-1.4,0.2-2.1,0.2c-3.1,0-4.8-1.5-5.3-4.5c-1.4,1.4-3,2.5-4.8,3.3s-3.3,1.2-4.6,1.2
	c-2.3,0-4.2-1-5.8-3c-1.6-2-2.4-5.1-2.4-9.2c0-6.3,1.3-11.2,4-14.7c2.7-3.6,5.6-5.4,9-5.4c3.3,0,6.1,0.8,8.4,2.3
	c0.5-2.8,1-5.6,1.4-8.4c0.3-2.3,0.5-4.5,0.7-6.8c0.1-1.6,0.1-3.1-0.1-4.6c-0.1-0.8,0.1-1.5,1-1.7c0.4-0.1,0.9-0.2,1.3-0.4
	c1.2-0.3,2.4-0.6,3.7-0.8c0.7-0.1,1.4-0.2,2-0.2c1.1-0.1,2.5-0.5,2.7,1c0.3,2.2,0.1,4.4-0.1,6.6c-0.2,1.4-0.4,2.8-0.6,4.2
	c-0.2,1.7-0.6,3.4-0.9,5.1c-0.4,2-0.7,4.1-1.1,6.1c-0.1,0.3-0.1,0.5-0.2,0.8c-2.1,10.6-3.1,17.8-3.1,21.6c0,1.1,0.3,1.7,0.8,1.7
	c0.4,0,0.8-0.3,1.1-0.5c0.3-0.2,0.7-0.4,1-0.6c0.3-0.2,0.6-0.5,0.9-0.6s0.5,0.1,0.7,0.3c0.2,0.3,0.4,0.7,0.6,1
	C340.9,34.4,341.2,34.7,341.1,35.1z M324.1,12.1c-1.7,0-3.1,1.6-4.3,4.9c-1.2,3.3-1.8,6.5-1.8,9.7s0.2,5.2,0.7,6.1
	c0.4,0.9,1.1,1.3,2,1.3c1.6,0,3.1-0.6,4.6-1.9c0.1-1.9,1.2-8.2,3.2-18.9C326.9,12.6,325.4,12.1,324.1,12.1z"/>
<path id="XMLID_111_" class="st0" d="M342.9,27.1c0-5.9,1.8-10.6,5.4-14S355.9,8,360.5,8c2.8,0,5.1,0.7,6.9,2.1s2.7,3.2,2.7,5.5
	s-0.6,4.2-1.7,5.8c-1.2,1.6-2.6,2.8-4.2,3.6c-3.4,1.7-6.4,2.7-9.2,3.1l-1.7,0.2c0.3,4.5,2.2,6.7,5.5,6.7c1.1,0,2.3-0.3,3.6-0.9
	c0.6-0.2,1.1-0.5,1.6-0.8c0.6-0.3,1-0.7,1.5-1.1c0.4-0.3,0.8-0.6,1.3-0.2c0.3,0.3,0.5,0.6,0.8,1c0.2,0.3,0.6,0.5,0.4,1
	c-0.1,0.3-0.4,0.5-0.6,0.7c-0.5,0.4-1,0.8-1.5,1.2c-1.1,0.9-2.2,1.6-3.2,2.1c-2.7,1.5-5.8,2.3-9,2.3c-3.3,0-5.8-1.2-7.7-3.5
	C343.9,34.5,342.9,31.3,342.9,27.1z M358.8,21.7c1.4-1.6,2.1-3.7,2.1-6.2c0-2.6-0.8-3.8-2.3-3.8c-1.8,0-3.2,1.5-4.2,4.6
	s-1.5,5.9-1.5,8.6C355.5,24.4,357.4,23.3,358.8,21.7z"/>
<g class="st1">
	<path id="XMLID_81_" class="st2" d="M80.8,51.2c0,3.2-2.6,5.8-5.8,5.8H11.4c-3.2,0-5.8-2.6-5.8-5.8v-63.6c0-3.2,2.6-5.8,5.8-5.8H75
		c3.2,0,5.8,2.6,5.8,5.8V51.2z"/>
	<g class="st3">
		<g>
			<g>
				<g id="XMLID_161_">
					<g id="XMLID_167_">
						<path id="XMLID_171_" class="st4" d="M71.4,29.4c0.1-3.2-2.8-3.9-4.5-3.6c-3.3,0.6-3,3.6-3,3.6l0,0c0,3-0.7,5.2-2.2,6.6
							c-1.5,1.5-3.6,2.2-6.3,2.2c-5.7,0-8.5-2.9-8.5-8.8l0,0c0,4.9-1.3,8.5-3.8,11c0.2,0.2,0.4,0.4,0.6,0.6
							c2.9,2.5,6.8,3.7,11.7,3.7s8.8-1.2,11.7-3.7C70,38.5,71.4,34.6,71.4,29.4L71.4,29.4z"/>
						<path id="XMLID_168_" class="st4" d="M55.4,47.3c-5.5,0-10-1.5-13.4-4.3c-0.3-0.2-0.5-0.5-0.8-0.7l-1.9-2l1.9-1.9
							c2-1.9,3-5,3-9.1h5.3c0,4.5,1.6,6.2,5.9,6.2c2,0,3.5-0.5,4.4-1.4s1.4-2.5,1.4-4.7c-0.2-2.2,1.1-5.6,5.2-6.3
							c0.4-0.1,0.8-0.1,1.2-0.1c1.9,0,3.6,0.7,4.8,1.9c0.7,0.7,1.5,2,1.6,3.9v0.1c0,0.1,0,0.2,0,0.3v0.1c0,6-1.8,10.6-5.3,13.6
							C65.4,45.8,60.9,47.3,55.4,47.3z M46.8,40c2.2,1.4,5.1,2.1,8.6,2.1c4.2,0,7.6-1,10-3.1c2.2-1.9,3.4-4.9,3.4-9.1l0,0v-0.5
							c0-0.2,0-0.5-0.1-0.6c-0.2-0.2-0.8-0.4-1.3-0.3c-0.4,0.1-0.8,0.1-0.8,0.7l0,0v0.3c0,3.7-1,6.6-3,8.5c-2,2-4.7,3-8.1,3
							c-3.2,0-5.8-0.9-7.7-2.5C47.4,38.9,47.1,39.5,46.8,40z"/>
					</g>
					<g id="XMLID_162_">
						<path id="XMLID_166_" class="st4" d="M63.9,9.4c0-3-0.7-5.2-2.2-6.6c-1.5-1.5-3.6-2.2-6.3-2.2c-5.6,0-8.5,2.9-8.5,8.7
							c0-4.9-1.2-8.5-3.7-11c0.2-0.2,0.4-0.3,0.5-0.5c2.9-2.5,6.8-3.7,11.7-3.7s8.8,1.2,11.7,3.7s4.4,6.3,4.4,11.6
							c0,0,0.3,3.1-3,3.6C66.7,13.4,63.8,12.6,63.9,9.4z"/>
						<path id="XMLID_163_" class="st4" d="M67.7,15.8c-1.9,0-3.6-0.7-4.8-1.9c-0.8-0.8-1.7-2.2-1.6-4.5c0-2.1-0.5-3.7-1.4-4.7
							c-1-1-2.4-1.4-4.4-1.4c-4.2,0-5.9,1.7-5.9,6.1h-5.3c0-4.1-1-7.2-3-9.1l-1.9-2l1.9-1.9C41.5-3.8,41.7-4,42-4.2
							c3.4-2.9,7.9-4.3,13.4-4.3s10,1.5,13.4,4.3c3.5,3,5.3,7.5,5.3,13.5c0.2,2.2-1.1,5.6-5.2,6.3C68.5,15.7,68.1,15.8,67.7,15.8z
							 M55.4-2c3.4,0,6.2,1,8.1,3c2,2,3,4.8,3,8.5c0,0.3,0,0.6,0.1,0.7c0.2,0.2,0.8,0.4,1.3,0.3c0.3,0,0.9-0.1,0.8-0.8V9.4
							c0-4.5-1.1-7.6-3.4-9.6c-2.4-2-5.8-3.1-10-3.1c-3.4,0-6.3,0.7-8.5,2c0.3,0.5,0.6,1,0.9,1.6C49.6-1.2,52.2-2,55.4-2z"/>
					</g>
				</g>
			</g>
			<g>
				<g>
					<path id="XMLID_74_" class="st5" d="M37.2,35.9c-1.5,1.5-3.6,2.2-6.3,2.2c-5.7,0-8.5-2.9-8.5-8.8V9.4c0-5.9,2.8-8.8,8.5-8.8
						c2.7,0,4.8,0.7,6.3,2.2s2.2,3.7,2.2,6.6l0,0c0-4.9,1.3-8.5,3.8-11C43-1.8,42.8-2,42.6-2.2c-2.9-2.5-6.8-3.7-11.7-3.7
						s-8.8,1.2-11.7,3.7s-4.3,6.3-4.3,11.6v19.9c0,5.3,1.4,9.1,4.3,11.6s6.8,3.7,11.7,3.7s8.8-1.2,11.7-3.7c0.2-0.2,0.4-0.3,0.5-0.5
						c-2.5-2.5-3.7-6.1-3.7-11C39.4,32.3,38.6,34.5,37.2,35.9z"/>
					<path class="st5" d="M30.8,47.2c-5.5,0-10-1.5-13.4-4.3c-3.5-3-5.2-7.5-5.2-13.6V9.4c0-6,1.8-10.6,5.2-13.6
						c3.4-2.9,7.9-4.3,13.4-4.3s10,1.5,13.4,4.3C44.5-4,44.7-3.7,45-3.5l1.9,1.9L45,0.3c-2,1.9-3,5-3,9.1h-5.3
						c0-2.2-0.5-3.8-1.4-4.8c-1-1-2.4-1.4-4.4-1.4c-4.2,0-5.9,1.7-5.9,6.2v19.9c0,4.5,1.6,6.2,5.9,6.2c2,0,3.5-0.5,4.4-1.4
						s1.4-2.5,1.4-4.7H42c0,4.1,1,7.2,2.9,9.1l1.9,1.9l-1.9,1.9c-0.2,0.2-0.4,0.4-0.7,0.6C40.9,45.7,36.4,47.2,30.8,47.2z M30.8-3.3
						c-4.2,0-7.6,1-10,3.1c-2.3,2-3.4,5.1-3.4,9.6v19.9c0,4.5,1.1,7.6,3.4,9.6c2.4,2,5.7,3.1,10,3.1c3.4,0,6.3-0.7,8.5-2
						c-0.3-0.5-0.6-1.1-0.9-1.6c-1.9,1.6-4.5,2.5-7.6,2.5c-7.1,0-11.1-4.2-11.1-11.5v-20c0-7.3,4.1-11.5,11.1-11.5
						c3.2,0,5.7,0.8,7.7,2.5c0.3-0.6,0.6-1.1,0.9-1.6C37.2-2.6,34.3-3.3,30.8-3.3z"/>
				</g>
				<g>
					<path id="XMLID_71_" class="st5" d="M39.4,9.4v19.9v0.1c0,4.9,1.2,8.5,3.7,11c2.5-2.5,3.8-6.1,3.8-11v-20V9.3
						c0-4.9-1.2-8.5-3.7-11C40.6,0.8,39.4,4.5,39.4,9.4z"/>
					<path class="st5" d="M43,44.1l-1.8-1.8c-3-3-4.5-7.3-4.5-12.9v-20c0-5.6,1.6-9.9,4.6-12.9l1.9-1.8L45-3.5c3,3,4.5,7.3,4.5,12.9
						v20c0,5.6-1.6,9.9-4.6,12.9L43,44.1z M43.1,3C42.4,4.7,42,6.9,42,9.4v19.9c0,2.6,0.4,4.7,1.1,6.4c0.8-1.7,1.1-3.9,1.1-6.4V9.4
						C44.3,6.9,43.9,4.7,43.1,3z"/>
				</g>
				<g>
					<path id="XMLID_68_" class="st5" d="M39.4,30c0,0-0.3,6.1,3.7,10.4c1.6,1.8,4,3.2,7.4,3.8c2.6,0.5,4.5-4.5,1.8-6.3
						c-0.3-0.1-5.4-1.8-5.4-8.5L39.4,30z"/>
					<path class="st5" d="M50.8,46.8L50.8,46.8c-0.3,0-0.6,0-0.8-0.1c-3.7-0.7-6.6-2.2-8.8-4.6c-4.7-5-4.4-12-4.4-12.3l0.1-2.3
						l12.7-1v2.9c-0.1,4.6,3.1,5.8,3.5,5.9l0.4,0.1l0.3,0.2c2.1,1.5,3,4.2,2.1,6.9C55.1,45.1,53,46.8,50.8,46.8z M42.2,32.4
						c0.3,1.8,1,4.3,2.8,6.2c1.4,1.5,3.2,2.4,5.6,2.9c0.1-0.2,0.3-0.6,0.3-1c0-0.1,0-0.3-0.1-0.3c-2.2-0.9-5.4-3.3-6.4-7.9
						L42.2,32.4z"/>
				</g>
			</g>
		</g>
	</g>
</g>
<path id="XMLID_109_" class="st0" d="M182,9.2c0.3-0.1,0.6-0.1,0.9-0.2c0.6-0.1,1.2-0.2,1.7-0.3c1.6-0.2,3.1-0.3,4.7-0.3
	c1,0,2.1,0,3.1-0.1c0.3,0,0.7-0.1,1,0.2c0.2,0.3,0.2,0.6,0.3,0.9s0.2,0.6,0.3,1c0.1,0.3,0.1,0.7,0.2,1.1c0,0.2,0,0.4,0.1,0.6
	c0,0.1,0.1,0.5,0,0.5c3.6-3,6.7-4.5,9.1-4.5c2.4,0,4.4,1,5.9,3.1c1.5,2,2.2,5,2.2,8.9c0,6.9-1.3,12-3.8,15.3c-2.4,3.2-6,5.2-10,5
	c-1.3-0.1-2.7-0.2-3.9-0.6c-0.5-0.2-1.1-0.4-1.1-1.1c0-0.4,0.1-0.9,0.4-1.2c0.2-0.2,0.6-0.3,0.9-0.4c0.3-0.2,0.7-0.4,1-0.6
	c0.7-0.4,1.3-0.9,1.9-1.5c1.4-1.3,2.4-3,3.2-4.8c1.6-3.8,2.5-8.6,1.2-12.6c-0.4-1.2-1.1-2.5-2.3-2.9c-1-0.4-2,0-2.8,0.7
	c-2.1,1.8-2.6,5-2.9,7.6c-0.6,4.1-1.2,8.1-2.1,12.2c-0.6,2.6-1.1,5.3-1.4,8c-0.3,2.4-0.7,4.8-0.8,7.1c0,0.7,0,1.4,0,2
	c0,0.5,0,1-0.4,1.3c-0.5,0.4-1.2,0.4-1.8,0.5c-0.9,0.3-1.9,0.5-2.9,0.6c-0.5,0.1-1.1,0.2-1.6,0.2c-0.6,0.1-1.3,0.1-1.9,0.2
	c-0.4,0.1-0.9,0.1-1.2-0.1l-0.1-0.1c-0.4-0.3-0.4-0.9-0.4-1.4c0-0.6,0-1.2,0-1.8c0-1.2,0.2-2.4,0.4-3.6c0.2-1,0.3-2.1,0.5-3.1
	c0.2-1.3,0.5-2.6,0.8-3.9c0.3-1.6,0.7-3.2,1-4.8c0-0.2,0.1-0.4,0.1-0.6c1.8-8.5,2.8-15,2.8-19.6c0-0.9-0.2-1.9-0.6-2.9
	c-0.3-0.7-0.6-1.3-1-1.9c-0.2-0.3-0.4-0.6-0.6-0.9c-0.2-0.2-0.4-0.5-0.3-0.9C181.6,9.4,181.8,9.3,182,9.2z"/>
<g>
	<polygon class="st6" points="16.1,5.9 16.1,15.2 8.8,18.3 8.8,14.2 12.9,12.5 12.9,7.2 12.9,7.2 	"/>
	<polygon class="st6" points="8.8,2.7 16.1,5.9 12.9,7.2 12.9,7.2 8.8,5.4 4.7,7.2 1.6,5.9 	"/>
	<polygon class="st6" points="8.8,14.2 8.8,18.3 1.6,15.2 1.6,5.9 4.7,7.2 4.7,7.2 4.7,12.5 	"/>
	<path class="st7" d="M16.6,5.9L16.6,5.9L16.6,5.9L16.6,5.9V5.7l0,0c0,0,0,0-0.1-0.1l0,0l0,0l0,0l0,0L9,2.3c-0.1-0.1-0.3-0.1-0.4,0
		L1.3,5.4l0,0l0,0l0,0l0,0c0,0,0,0-0.1,0.1l0,0v0.1l0,0v0.1l0,0l0,0V15c0,0.2,0.1,0.4,0.3,0.5l7.2,3.1l0,0c0,0,0,0,0.1,0
		c0,0,0,0,0.1,0c0,0,0,0,0.1,0s0,0,0.1,0c0,0,0,0,0.1,0c0,0,0,0,0.1,0l0,0l7.2-3.1c0.2-0.1,0.3-0.3,0.3-0.5L16.6,5.9L16.6,5.9
		L16.6,5.9z M8.8,3.3l5.9,2.6l-1.8,0.8L9,5C8.9,4.9,8.7,4.9,8.6,5L4.7,6.6H4.6L2.9,5.9L8.8,3.3z M8.3,17.5l-6.2-2.7V6.6l2.1,0.9v4.9
		c0,0.2,0.1,0.4,0.3,0.5l3.8,1.6V17.5z M8.8,13.7l-3.6-1.5V7.6L8.8,6l3.6,1.6v4.6L8.8,13.7z M15.5,14.8l-6.2,2.7v-2.9l3.8-1.6
		c0.2-0.1,0.3-0.3,0.3-0.5v-5l2.1-0.9V14.8z"/>
	<path class="st7" d="M13.1,6.7L9,5l0,0c0,0,0,0-0.1,0c0,0,0,0-0.1,0c0,0,0,0-0.1,0s0,0-0.1,0c0,0,0,0-0.1,0c0,0,0,0-0.1,0l0,0
		L4.5,6.7C4.3,6.8,4.1,7,4.1,7.2v5.3c0,0.2,0.1,0.4,0.4,0.5l0,0l4.1,1.8c0.1,0.1,0.3,0.1,0.4,0l4.1-1.8l0,0c0.2-0.1,0.4-0.3,0.4-0.5
		V7.2C13.5,7,13.3,6.8,13.1,6.7z M5.2,7.6l3.1-1.3v4.2l-3.1,1.3C5.2,11.8,5.2,7.6,5.2,7.6z M8.8,13.7L6,12.5l2.8-1.2l0,0l2.8,1.2
		L8.8,13.7z M12.4,11.7l-3.1-1.3V6.2l3.1,1.3V11.7z"/>
</g>
<g>
	<g>
		<path class="st6" d="M79.8,4.4c0,4.2,0,8.3,0,12.5V17c-0.1,0.4-0.2,0.7-0.5,1s-0.7,0.4-1.1,0.4c-2.5,0-5,0-7.6,0c0,0,0,0-0.1,0
			c-0.3,0-0.7-0.1-0.9-0.3c-0.4-0.3-0.6-0.7-0.6-1.3c0-3.1,0-6.2,0-9.3c0-1,0-2,0-3c0-0.3,0.1-0.6,0.2-0.8c0.4-0.6,0.9-0.8,1.5-0.8
			c2.5,0,5,0,7.5,0c0.1,0,0.2,0,0.3,0c0.6,0.1,1.2,0.7,1.3,1.3C79.8,4.3,79.8,4.3,79.8,4.4z M70.1,10.6c0,2,0,4.1,0,6.1v0.1
			c0,0.2,0.2,0.4,0.5,0.4c0.4,0,0.7,0,1.1,0c2.2,0,4.3,0,6.5,0c0.1,0,0.2,0,0.3-0.1c0.2-0.1,0.2-0.3,0.2-0.5c0-1.3,0-2.6,0-4
			c0-2.8,0-5.5,0-8.3c0-0.1,0-0.1,0-0.2c-0.1-0.2-0.3-0.4-0.5-0.4c-2.4,0-4.7,0-7.1,0c-0.2,0-0.3,0-0.5,0c-0.1,0-0.1,0-0.2,0
			c-0.2,0.1-0.3,0.3-0.3,0.5C70.1,6.5,70.1,8.6,70.1,10.6z"/>
		<path class="st6" d="M77.9,10c-2.3,0-4.7,0-7,0l0,0c0-1,0-2.1,0-3.1c0-0.4,0.1-0.8,0.3-1.1c0.3-0.4,0.6-0.6,1.1-0.7
			c0.3-0.1,0.7,0,1,0.1c0.5,0.2,0.8,0.5,0.9,1v0.1l0,0l0,0c0-0.2,0.1-0.3,0.1-0.5c0.2-0.5,0.6-0.8,1.2-0.9c0.5-0.2,0.9-0.1,1.3,0
			c0.5,0.2,0.8,0.5,0.9,0.9c0.1,0.3,0.2,0.5,0.2,0.8c0,0.2,0,0.4,0,0.6C78,8.2,77.9,9.1,77.9,10L77.9,10z M76.8,8.4
			C76.8,8.4,76.8,8.3,76.8,8.4c0-0.3,0-0.5,0-0.8c0-0.1,0-0.2,0-0.3c-0.1-0.3-0.2-0.5-0.5-0.6c-0.2-0.1-0.4-0.1-0.6,0
			c-0.3,0-0.5,0.2-0.6,0.5c0,0-0.1,0.2-0.1,0.3c0,0.3,0,0.5,0,0.8l0,0C75.6,8.4,76.2,8.4,76.8,8.4z M72,8.4c0.6,0,1.1,0,1.7,0l0,0
			c0-0.2,0-0.4,0-0.6c0-0.1,0-0.2,0-0.3c-0.1-0.3-0.2-0.5-0.4-0.6c-0.2-0.1-0.3-0.1-0.5-0.1c-0.3,0-0.5,0.2-0.6,0.4
			C72.1,7.4,72,7.5,72,7.7C72,7.9,72,8.1,72,8.4L72,8.4z"/>
		<path class="st6" d="M77.9,16.3c-2.3,0-4.7,0-7,0l0,0c0-0.9,0-1.8,0-2.8c0-0.4,0.1-0.8,0.3-1.2c0.2-0.5,0.6-0.8,1-1
			c0.3-0.2,0.7-0.3,1-0.3c0.5-0.1,1-0.1,1.5-0.1s1,0.1,1.4,0.2c0.3,0.1,0.6,0.2,0.9,0.5c0.4,0.3,0.7,0.7,0.8,1.2
			c0.1,0.3,0.1,0.5,0.1,0.8C77.9,14.4,77.9,15.3,77.9,16.3C77.9,16.2,77.9,16.2,77.9,16.3z M72,14.6C72.1,14.6,72.1,14.6,72,14.6
			c1.6,0,3.2,0,4.7,0l0,0l0,0c0-0.3,0-0.5,0-0.8s-0.1-0.5-0.4-0.7c-0.2-0.2-0.4-0.3-0.7-0.4c-0.3-0.1-0.7-0.1-1-0.2
			c-0.4,0-0.9,0-1.3,0.1c-0.3,0-0.5,0.1-0.8,0.3c-0.4,0.2-0.6,0.6-0.6,1C72,14.1,72,14.3,72,14.6C72,14.5,72,14.6,72,14.6z"/>
	</g>
	<path class="st7" d="M38.1,15.1c0,0.2-0.1,0.3-0.2,0.4c-0.1,0.1-0.3,0.2-0.4,0.2h-1.8c-0.2,0-0.3-0.1-0.4-0.2
		c-0.1-0.1-0.2-0.3-0.2-0.4V2.8h-1.7c-0.9,1.2-1.8,2.5-2.6,3.7v8c0,0.1,0,0.1,0,0.1c0.6,0.8,1.2,1.7,1.8,2.5c0.3,0.5,0.7,0.9,1,1.4
		c0.4,0.1,0.8,0.1,1.2,0.1h0.7c1.3,0,2.3-0.4,3-1.1v0.8h3.9V2.8h-4.3V15.1z"/>
	<path class="st7" d="M67.5,12.2V7.1c0-2.8-1.3-4.2-4-4.2H60c-2.6,0-4,1.4-4,4.2v7.4c0,2.8,1.3,4.2,4,4.2h3.6c2.6,0,4-1.4,4-4.2
		v-1.2h-4.3V15c0,0.2-0.1,0.3-0.2,0.4c-0.1,0.1-0.3,0.2-0.4,0.2h-1.8c-0.2,0-0.3-0.1-0.4-0.2c-0.1-0.1-0.2-0.3-0.2-0.4v-2.9h7.2
		V12.2z M60.3,6.5c0-0.2,0.1-0.3,0.2-0.4c0.1-0.1,0.3-0.2,0.4-0.2h1.8c0.2,0,0.3,0.1,0.4,0.2c0.1,0.1,0.2,0.3,0.2,0.4v2.9h-3
		C60.3,9.4,60.3,6.5,60.3,6.5z"/>
	<path class="st4" d="M29.6,7.8L29.6,7.8L29.6,7.8z"/>
	<path class="st6" d="M28.9,7.8c0.2-0.2,0.3-0.4,0.5-0.6c0.9-1.3,1.8-2.5,2.7-3.8c0.1-0.2,0.2-0.4,0.4-0.6c-0.1,0-0.2,0-0.3,0
		c-1.4,0-2.9,0-4.3,0c-0.6,0-1,0.1-1.4,0.7c-1.3,2-2.7,3.9-4.1,5.9c-0.6,0.9-0.6,1.6,0,2.5c0.1,0.2,0.3,0.4,0.4,0.6
		c0.9,1.2,1.8,2.5,2.6,3.7c0.5,0.7,0.9,1.3,1.3,2c0.1,0.2,0.2,0.3,0.5,0.3c1.6,0,3.3,0,4.9,0c0.1,0,0.2,0,0.3,0
		c-0.1-0.1-0.1-0.2-0.1-0.2c-0.4-0.5-0.7-1-1.1-1.5c-1.1-1.6-2.3-3.3-3.4-4.9c-0.4-0.5-0.5-1.1-0.2-1.7c0.2-0.4,0.5-0.8,0.7-1.2
		C28.5,8.4,28.7,8.1,28.9,7.8L28.9,7.8z M17.8,10.6L17.8,10.6c0,2.5,0,5,0,7.4c0,0.3,0.1,0.4,0.3,0.4c1.3,0,2.5,0,3.8,0
		c0.3,0,0.3-0.1,0.3-0.3c0-1.4,0-2.8,0-4.1c0-0.2-0.1-0.4-0.2-0.5c-0.2-0.4-0.5-0.7-0.8-1.1c-0.7-1-0.8-2.1-0.1-3.2
		c0.3-0.5,0.6-0.9,0.9-1.3c0.2-0.2,0.2-0.5,0.2-0.7c0-1.3,0-2.7,0-4c0-0.3-0.1-0.3-0.3-0.3c-1.3,0-2.5,0-3.8,0
		c-0.3,0-0.3,0.1-0.3,0.3C17.9,5.7,17.8,8.1,17.8,10.6z"/>
	<path class="st7" d="M51.1,6.2h-0.7c-1.1,0-1.9,0.3-2.6,0.8V2.9h-4.3v15.5h3.6v-1.2c0.7,1,1.8,1.5,3.3,1.5h0.7c2.6,0,4-1.4,4-4.2
		v-4.1C55,7.6,53.7,6.2,51.1,6.2z M50.4,15.1c0,0.2-0.1,0.3-0.2,0.4c-0.1,0.1-0.3,0.2-0.4,0.2H48c-0.2,0-0.3-0.1-0.4-0.2
		c-0.1-0.1-0.2-0.3-0.2-0.4V9.9c0-0.2,0.1-0.3,0.2-0.4c0.1-0.1,0.3-0.2,0.4-0.2h1.8c0.2,0,0.3,0.1,0.4,0.2c0.1,0.1,0.2,0.3,0.2,0.4
		V15.1z"/>
</g>
</svg>
