<?xml version="1.0" encoding="utf-8"?>
<!-- Generator: Adobe Illustrator 21.0.0, SVG Export Plug-In . SVG Version: 6.00 Build 0)  -->
<svg version="1.1" id="Layer_1" xmlns="http://www.w3.org/2000/svg" xmlns:xlink="http://www.w3.org/1999/xlink" x="0px" y="0px"
	 viewBox="0 0 80.5 19.7" style="enable-background:new 0 0 80.5 19.7;" xml:space="preserve">
<style type="text/css">
	.st0{fill:#FFFFFF;}
</style>
<g>
	<path class="st0" d="M79.5,4.2c0,4.2,0,8.3,0,12.5c0,0,0,0.1,0,0.1c-0.1,0.4-0.2,0.7-0.5,1c-0.3,0.3-0.7,0.4-1.1,0.4
		c-2.5,0-5,0-7.6,0c0,0,0,0-0.1,0c-0.3,0-0.7-0.1-0.9-0.3c-0.4-0.3-0.6-0.7-0.6-1.3c0-3.1,0-6.2,0-9.3c0-1,0-2,0-3
		c0-0.3,0.1-0.6,0.2-0.8c0.3-0.5,0.8-0.7,1.4-0.7c2.5,0,5,0,7.5,0c0.1,0,0.2,0,0.3,0c0.6,0.1,1.2,0.7,1.3,1.3
		C79.5,4.1,79.5,4.1,79.5,4.2z M69.9,10.4c0,2,0,4.1,0,6.1c0,0,0,0.1,0,0.1c0,0.2,0.2,0.4,0.5,0.4c0.4,0,0.7,0,1.1,0
		c2.2,0,4.3,0,6.5,0c0.1,0,0.2,0,0.3-0.1c0.2-0.1,0.2-0.3,0.2-0.5c0-1.3,0-2.6,0-4c0-2.8,0-5.5,0-8.3c0-0.1,0-0.1,0-0.2
		c-0.1-0.2-0.3-0.4-0.5-0.4c-2.4,0-4.7,0-7.1,0c-0.2,0-0.3,0-0.5,0c-0.1,0-0.1,0-0.2,0c-0.2,0.1-0.3,0.3-0.3,0.5
		C69.9,6.3,69.9,8.4,69.9,10.4z"/>
	<path class="st0" d="M77.7,9.9c-2.3,0-4.7,0-7,0c0,0,0,0,0,0c0-1,0-2.1,0-3.1c0-0.4,0.1-0.8,0.3-1.1C71.2,5.2,71.6,5,72,4.9
		c0.3-0.1,0.7,0,1,0.1c0.5,0.2,0.8,0.5,0.9,1c0,0,0,0.1,0,0.1c0,0,0,0,0,0c0,0,0,0,0,0c0-0.2,0.1-0.3,0.1-0.5
		c0.2-0.5,0.6-0.8,1.2-0.9c0.4-0.1,0.8-0.1,1.1,0.1c0.5,0.2,0.8,0.5,0.9,0.9c0.1,0.3,0.2,0.5,0.2,0.8c0,0.2,0,0.4,0,0.6
		C77.7,8,77.7,8.9,77.7,9.9C77.7,9.8,77.7,9.8,77.7,9.9z M76.6,8.2C76.6,8.2,76.6,8.2,76.6,8.2c0-0.3,0-0.5,0-0.8c0-0.1,0-0.2,0-0.3
		c-0.1-0.3-0.2-0.5-0.5-0.6c-0.2-0.1-0.4-0.1-0.6,0c-0.3,0-0.5,0.2-0.6,0.5c-0.1,0.2-0.1,0.3-0.1,0.5c0,0.3,0,0.5,0,0.8c0,0,0,0,0,0
		C75.4,8.2,76,8.2,76.6,8.2z M71.7,8.2c0.6,0,1.1,0,1.7,0c0,0,0,0,0,0c0-0.2,0-0.4,0-0.6c0-0.1,0-0.2,0-0.3C73.4,7,73.2,6.8,73,6.7
		c-0.2-0.1-0.3-0.1-0.5-0.1c-0.3,0-0.5,0.2-0.6,0.4c-0.1,0.2-0.1,0.3-0.1,0.5C71.7,7.7,71.7,7.9,71.7,8.2
		C71.7,8.2,71.7,8.2,71.7,8.2z"/>
	<path class="st0" d="M77.7,16.1c-2.3,0-4.7,0-7,0c0,0,0,0,0,0c0-0.9,0-1.8,0-2.8c0-0.4,0.1-0.8,0.3-1.2c0.2-0.5,0.6-0.8,1-1
		c0.3-0.2,0.7-0.3,1-0.3c0.5-0.1,1-0.1,1.5-0.1c0.5,0,1,0.1,1.4,0.2c0.3,0.1,0.6,0.2,0.9,0.5c0.4,0.3,0.7,0.7,0.8,1.2
		c0.1,0.3,0.1,0.5,0.1,0.8C77.7,14.2,77.7,15.1,77.7,16.1C77.7,16,77.7,16,77.7,16.1z M71.8,14.4C71.8,14.4,71.8,14.4,71.8,14.4
		c1.6,0,3.2,0,4.7,0c0,0,0,0,0,0c0,0,0,0,0,0c0-0.3,0-0.5,0-0.8c0-0.3-0.1-0.5-0.4-0.7c-0.2-0.2-0.4-0.3-0.7-0.4
		c-0.3-0.1-0.7-0.1-1-0.2c-0.4,0-0.9,0-1.3,0.1c-0.3,0-0.5,0.1-0.8,0.3c-0.4,0.2-0.6,0.6-0.6,1C71.8,13.9,71.8,14.1,71.8,14.4
		C71.8,14.4,71.8,14.4,71.8,14.4z"/>
</g>
<path class="st0" d="M37.8,14.9c0,0.2-0.1,0.3-0.2,0.4c-0.1,0.1-0.3,0.2-0.4,0.2h-1.8c-0.2,0-0.3-0.1-0.4-0.2
	c-0.1-0.1-0.2-0.3-0.2-0.4V2.6h-1.7c-0.9,1.2-1.8,2.5-2.6,3.7v8c0,0.1,0,0.1,0,0.1c0.6,0.8,1.2,1.7,1.8,2.5c0.3,0.5,0.7,0.9,1,1.4
	c0.4,0.1,0.8,0.1,1.2,0.1h0.7c1.3,0,2.3-0.4,3-1.1v0.8h3.9V2.6h-4.3V14.9z"/>
<path class="st0" d="M67.3,12V6.9c0-2.8-1.3-4.2-4-4.2h-3.6c-2.6,0-4,1.4-4,4.2v7.4c0,2.8,1.3,4.2,4,4.2h3.6c2.6,0,4-1.4,4-4.2v-1.2
	H63v1.7c0,0.2-0.1,0.3-0.2,0.4c-0.1,0.1-0.3,0.2-0.4,0.2h-1.8c-0.2,0-0.3-0.1-0.4-0.2C60.1,15.2,60,15,60,14.9V12H67.3z M60,6.3
	c0-0.2,0.1-0.3,0.2-0.4c0.1-0.1,0.3-0.2,0.4-0.2h1.8c0.2,0,0.3,0.1,0.4,0.2C62.9,6,63,6.1,63,6.3v2.9h-3V6.3z"/>
<polygon class="st0" points="29.4,7.6 29.4,7.6 29.3,7.6 "/>
<path class="st0" d="M15.8,6L15.8,6c0,0,0-0.1,0-0.1c0,0,0,0,0,0c0,0,0-0.1,0-0.1c0,0,0,0,0,0c0,0,0,0-0.1-0.1c0,0,0,0,0,0
	c0,0,0,0,0,0c0,0,0,0,0,0c0,0,0,0,0,0L8.2,2.4c-0.1-0.1-0.3-0.1-0.4,0L0.5,5.5c0,0,0,0,0,0c0,0,0,0,0,0c0,0,0,0,0,0c0,0,0,0,0,0
	c0,0,0,0-0.1,0.1c0,0,0,0,0,0c0,0,0,0.1,0,0.1c0,0,0,0,0,0c0,0,0,0.1,0,0.1l0,0l0,0v9.3c0,0.2,0.1,0.4,0.3,0.5l7.2,3.1c0,0,0,0,0,0
	c0,0,0,0,0.1,0s0,0,0.1,0c0,0,0,0,0.1,0s0,0,0.1,0c0,0,0,0,0.1,0c0,0,0,0,0.1,0c0,0,0,0,0,0l7.2-3.1c0.2-0.1,0.3-0.3,0.3-0.5L15.8,6
	L15.8,6L15.8,6z M8,3.5L13.9,6l-1.8,0.8L8.2,5.1c-0.1-0.1-0.3-0.1-0.4,0L3.9,6.8l-0.1,0L2.1,6L8,3.5z M7.5,17.7L1.3,15V6.8l2.1,0.9
	v4.9c0,0.2,0.1,0.4,0.3,0.5l3.8,1.6V17.7z M8,13.8l-3.6-1.5V7.7L8,6.2l3.6,1.6v4.6L8,13.8z M14.7,15l-6.2,2.7v-2.9l3.8-1.6
	c0.2-0.1,0.3-0.3,0.3-0.5V7.7l2.1-0.9V15z"/>
<path class="st0" d="M12.4,6.9L8.2,5.1c0,0,0,0,0,0c0,0,0,0-0.1,0c0,0,0,0-0.1,0s0,0-0.1,0c0,0,0,0-0.1,0c0,0,0,0-0.1,0
	c0,0,0,0-0.1,0c0,0,0,0,0,0L3.7,6.9C3.5,7,3.3,7.2,3.3,7.4v5.3c0,0.2,0.1,0.4,0.4,0.5l0,0l4.1,1.8c0.1,0.1,0.3,0.1,0.4,0l4.1-1.8
	l0,0c0.2-0.1,0.4-0.3,0.4-0.5V7.4C12.7,7.2,12.5,7,12.4,6.9z M4.4,7.7l3.1-1.3v4.2l-3.1,1.3V7.7z M8,13.8l-2.8-1.2L8,11.5l0,0
	l2.8,1.2L8,13.8z M11.6,11.9l-3.1-1.3V6.4l3.1,1.3V11.9z"/>
<path class="st0" d="M28.6,7.6C28.8,7.4,29,7.2,29.1,7c0.9-1.3,1.8-2.5,2.7-3.8c0.1-0.2,0.2-0.4,0.4-0.6c-0.1,0-0.2,0-0.3,0
	c-1.4,0-2.9,0-4.3,0c-0.6,0-1,0.1-1.4,0.7c-1.3,2-2.7,3.9-4.1,5.9c-0.6,0.9-0.6,1.6,0,2.5c0.1,0.2,0.3,0.4,0.4,0.6
	c0.9,1.2,1.8,2.5,2.6,3.7c0.5,0.7,0.9,1.3,1.3,2c0.1,0.2,0.2,0.3,0.5,0.3c1.6,0,3.3,0,4.9,0c0.1,0,0.2,0,0.3,0
	c-0.1-0.1-0.1-0.2-0.1-0.2c-0.4-0.5-0.7-1-1.1-1.5c-1.1-1.6-2.3-3.3-3.4-4.9c-0.4-0.5-0.5-1.1-0.2-1.7C27.5,9.4,27.7,9,28,8.6
	C28.2,8.3,28.4,7.9,28.6,7.6L28.6,7.6z M17.6,10.4C17.6,10.4,17.6,10.4,17.6,10.4c0,2.5,0,5,0,7.4c0,0.3,0.1,0.4,0.3,0.4
	c1.3,0,2.5,0,3.8,0c0.3,0,0.3-0.1,0.3-0.3c0-1.4,0-2.8,0-4.1c0-0.2-0.1-0.4-0.2-0.5c-0.2-0.4-0.5-0.7-0.8-1.1
	c-0.7-1-0.8-2.1-0.1-3.2c0.3-0.4,0.6-0.9,0.9-1.3C21.9,7.5,22,7.3,22,7c0-1.3,0-2.7,0-4c0-0.3-0.1-0.3-0.3-0.3c-1.3,0-2.5,0-3.8,0
	c-0.3,0-0.3,0.1-0.3,0.3C17.6,5.5,17.6,8,17.6,10.4z"/>
<path class="st0" d="M50.8,6h-0.7c-1.1,0-1.9,0.3-2.6,0.8V2.7h-4.3v15.5h3.6v-1.2c0.7,1,1.8,1.5,3.3,1.5h0.7c2.6,0,4-1.4,4-4.2v-4.1
	C54.8,7.4,53.4,6,50.8,6z M50.1,14.9c0,0.2-0.1,0.3-0.2,0.4c-0.1,0.1-0.3,0.2-0.4,0.2h-1.8c-0.2,0-0.3-0.1-0.4-0.2
	c-0.1-0.1-0.2-0.3-0.2-0.4V9.7c0-0.2,0.1-0.3,0.2-0.4c0.1-0.1,0.3-0.2,0.4-0.2h1.8c0.2,0,0.3,0.1,0.4,0.2c0.1,0.1,0.2,0.3,0.2,0.4
	V14.9z"/>
</svg>
