<?xml version="1.0" encoding="utf-8"?>
<!-- Generator: Adobe Illustrator 21.0.0, SVG Export Plug-In . SVG Version: 6.00 Build 0)  -->
<svg version="1.1" id="Layer_1" xmlns="http://www.w3.org/2000/svg" xmlns:xlink="http://www.w3.org/1999/xlink" x="0px" y="0px"
	 viewBox="0 0 200 200" style="enable-background:new 0 0 200 200;" xml:space="preserve">
<style type="text/css">
	.st0{fill:#7272E9;}
	.st1{fill:#4949A3;}
	.st2{fill:#FFFFFF;}
</style>
<g>
	<polygon class="st0" points="185.4,45.2 185.4,157.1 97.6,194.4 97.6,145.1 146.9,124.6 146.9,60.9 146.9,60.9 	"/>
	<polygon class="st0" points="97.6,6.7 185.4,45.2 146.9,60.9 146.9,60.9 97.6,39.2 48.3,60.9 11,45.2 	"/>
	<polygon class="st0" points="97.6,145.1 97.6,194.4 11,157.1 11,45.2 48.3,60.9 48.3,60.9 48.3,124.6 	"/>
	<path class="st1" d="M191.4,45.2L191.4,45.2V44l0,0v-1.2l0,0c0,0,0,0-1.2-1.2l0,0l0,0l0,0l0,0L100,1.9c-1.2-1.2-3.6-1.2-4.8,0
		L7.4,39.2l0,0l0,0l0,0l0,0c0,0,0,0-1.2,1.2l0,0v1.2l0,0v1.2l0,0l0,0v111.9c0,2.4,1.2,4.8,3.6,6L96.4,198l0,0c0,0,0,0,1.2,0
		c0,0,0,0,1.2,0c0,0,0,0,1.2,0s0,0,1.2,0c0,0,0,0,1.2,0c0,0,0,0,1.2,0l0,0l86.6-37.3c2.4-1.2,3.6-3.6,3.6-6L191.4,45.2L191.4,45.2
		L191.4,45.2z M97.6,13.9l71,31.3l-21.7,9.6L100,34.4c-1.2-1.2-3.6-1.2-4.8,0L48.3,53.6h-1.2l-20.5-8.4L97.6,13.9z M91.6,184.8
		L17,152.3V53.6l25.3,10.8v59c0,2.4,1.2,4.8,3.6,6l45.7,19.3V184.8z M97.6,139.1l-43.3-18V65.7l43.3-19.3l43.3,19.3V121L97.6,139.1z
		 M178.2,152.3l-74.6,32.5v-34.9l45.7-19.3c2.4-1.2,3.6-3.6,3.6-6V64.5l25.3-10.8V152.3z"/>
	<g>
		<polygon class="st2" points="146.9,124.6 146.9,60.9 97.6,39.2 97.6,103 		"/>
		<polygon class="st2" points="146.9,124.6 97.6,103 48.3,124.6 97.6,145.1 		"/>
		<polygon class="st2" points="97.6,103 97.6,39.2 48.3,60.9 48.3,124.6 48.3,124.6 		"/>
	</g>
	<path class="st1" d="M149.3,54.8L100,34.4l0,0c0,0,0,0-1.2,0c0,0,0,0-1.2,0c0,0,0,0-1.2,0c-1.2,0,0,0-1.2,0c0,0,0,0-1.2,0
		c0,0,0,0-1.2,0l0,0L45.9,54.8c-2.4,1.2-4.8,3.6-4.8,6v63.8c0,2.4,1.2,4.8,4.8,6l0,0l49.3,21.7c1.2,1.2,3.6,1.2,4.8,0l49.3-21.7l0,0
		c2.4-1.2,4.8-3.6,4.8-6V60.9C154.1,58.5,151.7,56,149.3,54.8z M54.3,65.7L91.6,50v50.5l-37.3,15.6C54.3,116.2,54.3,65.7,54.3,65.7z
		 M97.6,139.1l-33.7-14.4l33.7-14.4l0,0l33.7,14.4L97.6,139.1z M140.9,115l-37.3-15.6V48.8l37.3,15.6V115z"/>
</g>
</svg>
