<svg xmlns="http://www.w3.org/2000/svg" viewBox="0 0 200 200" xmlns:v="https://vecta.io/nano"><g fill="#7272e9"><path d="M185.4 45.2v111.9l-87.8 37.3v-49.3l49.3-20.5V60.9h0z"/><path d="M97.6 6.7l87.8 38.5-38.5 15.7h0L97.6 39.2 48.3 60.9 11 45.2z"/><path d="M97.6 145.1v49.3L11 157.1V45.2l37.3 15.7h0v63.7z"/></g><path d="M191.4 45.2h0V44h0v-1.2h0l-1.2-1.2h0 0 0 0L100 1.9c-1.2-1.2-3.6-1.2-4.8 0L7.4 39.2h0 0 0 0l-1.2 1.2h0v1.2h0v1.2h0 0v111.9c0 2.4 1.2 4.8 3.6 6L96.4 198h0 1.2 1.2 1.2 1.2 1.2 1.2 0l86.6-37.3c2.4-1.2 3.6-3.6 3.6-6l-2.4-109.5h0 0zM97.6 13.9l71 31.3-21.7 9.6L100 34.4c-1.2-1.2-3.6-1.2-4.8 0L48.3 53.6h-1.2l-20.5-8.4 71-31.3zm-6 170.9L17 152.3V53.6l25.3 10.8v59c0 2.4 1.2 4.8 3.6 6l45.7 19.3v36.1zm6-45.7l-43.3-18V65.7l43.3-19.3 43.3 19.3V121l-43.3 18.1zm80.6 13.2l-74.6 32.5v-34.9l45.7-19.3c2.4-1.2 3.6-3.6 3.6-6V64.5l25.3-10.8v98.6z" fill="#4949a3"/><g fill="#fff"><path d="M146.9 124.6V60.9L97.6 39.2V103z"/><path d="M146.9 124.6L97.6 103l-49.3 21.6 49.3 20.5z"/><path d="M97.6 103V39.2L48.3 60.9v63.7h0z"/></g><path d="M149.3 54.8L100 34.4h0-1.2-1.2-1.2-1.2H94h-1.2 0L45.9 54.8c-2.4 1.2-4.8 3.6-4.8 6v63.8c0 2.4 1.2 4.8 4.8 6h0l49.3 21.7c1.2 1.2 3.6 1.2 4.8 0l49.3-21.7h0c2.4-1.2 4.8-3.6 4.8-6V60.9c0-2.4-2.4-4.9-4.8-6.1zm-95 10.9L91.6 50v50.5l-37.3 15.6c0 .1 0-50.4 0-50.4zm43.3 73.4l-33.7-14.4 33.7-14.4h0l33.7 14.4-33.7 14.4zm43.3-24.1l-37.3-15.6V48.8l37.3 15.6V115z" fill="#4949a3"/></svg>