<svg xmlns="http://www.w3.org/2000/svg" viewBox="0 0 80.5 19.7" xmlns:v="https://vecta.io/nano"><g fill="#7272e9"><path d="M16.1 5.9v9.3l-7.3 3.1v-4.1l4.1-1.7V7.2h0z"/><path d="M8.8 2.7l7.3 3.2-3.2 1.3h0L8.8 5.4 4.7 7.2 1.6 5.9z"/><path d="M8.8 14.2v4.1l-7.2-3.1V5.9l3.1 1.3h0v5.3z"/></g><g fill="#4949a3"><path d="M16.6 5.9h0 0 0v-.2h0l-.1-.1h0 0 0 0L9 2.3c-.1-.1-.3-.1-.4 0L1.3 5.4h0 0 0 0l-.1.1h0v.1h0v.1h0 0V15a.55.55 0 0 0 .3.5l7.2 3.1h0 .1.1.1.1.1.1 0l7.2-3.1a.55.55 0 0 0 .3-.5l-.2-9.1h0 0zM8.8 3.3l5.9 2.6-1.8.8L9 5c-.1-.1-.3-.1-.4 0L4.7 6.6h-.1l-1.7-.7 5.9-2.6zm-.5 14.2l-6.2-2.7V6.6l2.1.9v4.9a.55.55 0 0 0 .3.5l3.8 1.6v3zm.5-3.8l-3.6-1.5V7.6L8.8 6l3.6 1.6v4.6l-3.6 1.5zm6.7 1.1l-6.2 2.7v-2.9l3.8-1.6a.55.55 0 0 0 .3-.5v-5l2.1-.9v8.2z"/><path d="M13.1 6.7L9 5h0-.1-.1-.1-.1-.1-.1 0L4.5 6.7c-.2.1-.4.3-.4.5v5.3c0 .2.1.4.4.5h0l4.1 1.8c.1.1.3.1.4 0l4.1-1.8h0c.2-.1.4-.3.4-.5V7.2c0-.2-.2-.4-.4-.5zm-7.9.9l3.1-1.3v4.2l-3.1 1.3c0 0 0-4.2 0-4.2zm3.6 6.1L6 12.5l2.8-1.2h0l2.8 1.2-2.8 1.2zm3.6-2l-3.1-1.3V6.2l3.1 1.3v4.2z"/></g><path d="M79.8 4.4v12.5.1c-.1.4-.2.7-.5 1s-.7.4-1.1.4h-7.6-.1c-.3 0-.7-.1-.9-.3-.4-.3-.6-.7-.6-1.3V7.5v-3c0-.3.1-.6.2-.8.4-.6.9-.8 1.5-.8h7.5.3a1.73 1.73 0 0 1 1.3 1.3v.2zm-9.7 6.2v6.1.1c0 .2.2.4.5.4h1.1 6.5c.1 0 .2 0 .3-.1.2-.1.2-.3.2-.5v-4-8.3-.2c-.1-.2-.3-.4-.5-.4h-7.1-.5-.2a.55.55 0 0 0-.3.5v6.4zm7.8-.6h-7 0V6.9c0-.4.1-.8.3-1.1.3-.4.6-.6 1.1-.7.3-.1.7 0 1 .1.5.2.8.5.9 1v.1h0 0c0-.2.1-.3.1-.5.2-.5.6-.8 1.2-.9.5-.2.9-.1 1.3 0 .5.2.8.5.9.9.1.3.2.5.2.8v.6c.1 1 0 1.9 0 2.8h0zm-1.1-1.6s0-.1 0 0v-.8-.3c-.1-.3-.2-.5-.5-.6-.2-.1-.4-.1-.6 0-.3 0-.5.2-.6.5 0 0-.1.2-.1.3v.8h0c.6.1 1.2.1 1.8.1zm-4.8 0h1.7 0v-.6-.3c-.1-.3-.2-.5-.4-.6s-.3-.1-.5-.1c-.3 0-.5.2-.6.4s-.2.3-.2.5v.7h0zm5.9 7.9h-7 0v-2.8c0-.4.1-.8.3-1.2.2-.5.6-.8 1-1a1.93 1.93 0 0 1 1-.3c.5-.1 1-.1 1.5-.1s1 .1 1.4.2c.3.1.6.2.9.5.4.3.7.7.8 1.2.1.3.1.5.1.8v2.7c0-.1 0-.1 0 0zM72 14.6h0 4.7 0 0v-.8c0-.3-.1-.5-.4-.7-.2-.2-.4-.3-.7-.4s-.7-.1-1-.2c-.4 0-.9 0-1.3.1-.3 0-.5.1-.8.3a1.1 1.1 0 0 0-.6 1c.1.2.1.4.1.7 0-.1 0 0 0 0z" fill="#7272e9"/><path d="M38.1 15.1c0 .2-.1.3-.2.4a.76.76 0 0 1-.4.2h-1.8c-.2 0-.3-.1-.4-.2a.76.76 0 0 1-.2-.4V2.8h-1.7l-2.6 3.7v8 .1l1.8 2.5c.3.5.7.9 1 1.4.4.1.8.1 1.2.1h.7c1.3 0 2.3-.4 3-1.1v.8h3.9V2.8h-4.3v12.3zm29.4-2.9V7.1c0-2.8-1.3-4.2-4-4.2H60c-2.6 0-4 1.4-4 4.2v7.4c0 2.8 1.3 4.2 4 4.2h3.6c2.6 0 4-1.4 4-4.2v-1.2h-4.3V15c0 .2-.1.3-.2.4a.76.76 0 0 1-.4.2h-1.8c-.2 0-.3-.1-.4-.2a.76.76 0 0 1-.2-.4v-2.9h7.2v.1zm-7.2-5.7c0-.2.1-.3.2-.4a.76.76 0 0 1 .4-.2h1.8c.2 0 .3.1.4.2a.76.76 0 0 1 .2.4v2.9h-3V6.5z" fill="#4949a3"/><path d="M29.6 7.8h0 0z" fill="#fff"/><path d="M28.9 7.8c.2-.2.3-.4.5-.6l2.7-3.8c.1-.2.2-.4.4-.6h-.3-4.3c-.6 0-1 .1-1.4.7l-4.1 5.9c-.6.9-.6 1.6 0 2.5.1.2.3.4.4.6l2.6 3.7 1.3 2c.1.2.2.3.5.3h4.9.3c-.1-.1-.1-.2-.1-.2l-1.1-1.5-3.4-4.9c-.4-.5-.5-1.1-.2-1.7.2-.4.5-.8.7-1.2.2-.6.4-.9.6-1.2h0zm-11.1 2.8h0V18c0 .3.1.4.3.4h3.8c.3 0 .3-.1.3-.3V14c0-.2-.1-.4-.2-.5-.2-.4-.5-.7-.8-1.1-.7-1-.8-2.1-.1-3.2.3-.5.6-.9.9-1.3.2-.2.2-.5.2-.7v-4c0-.3-.1-.3-.3-.3h-3.8c-.3 0-.3.1-.3.3v7.4z" fill="#7272e9"/><path d="M51.1 6.2h-.7c-1.1 0-1.9.3-2.6.8V2.9h-4.3v15.5h3.6v-1.2c.7 1 1.8 1.5 3.3 1.5h.7c2.6 0 4-1.4 4-4.2v-4.1c-.1-2.8-1.4-4.2-4-4.2zm-.7 8.9c0 .2-.1.3-.2.4a.76.76 0 0 1-.4.2H48c-.2 0-.3-.1-.4-.2a.76.76 0 0 1-.2-.4V9.9c0-.2.1-.3.2-.4a.76.76 0 0 1 .4-.2h1.8c.2 0 .3.1.4.2a.76.76 0 0 1 .2.4v5.2z" fill="#4949a3"/></svg>