<?xml version="1.0" encoding="utf-8"?>
<!-- Generator: Adobe Illustrator 22.1.0, SVG Export Plug-In . SVG Version: 6.00 Build 0)  -->
<svg version="1.1" id="Layer_1" xmlns="http://www.w3.org/2000/svg" xmlns:xlink="http://www.w3.org/1999/xlink" x="0px" y="0px"
	 viewBox="0 0 302.8 66.3" style="enable-background:new 0 0 302.8 66.3;" xml:space="preserve">
<style type="text/css">
	.st0{fill:#326CE5;}
	.st1{opacity:0.8;fill:#326CE5;}
	.st2{opacity:0.5;fill:#326CE5;}
</style>
<g>
	<g>
		<path class="st0" d="M32.2,9c0.2,0,0.4,0,0.6,0C33.4,9,34,9.2,34.6,9.4c0.4,0.2,0.9,0.4,1.3,0.6c4.7,2.3,9.5,4.5,14.2,6.8
			c0.5,0.2,1,0.5,1.5,0.7c1.3,0.7,2.1,1.8,2.4,3.3c0.6,2.5,1.1,5,1.7,7.4c0.8,3.5,1.6,7,2.4,10.5c0.3,1.5,0,2.9-0.9,4.1
			c-3.8,4.7-7.6,9.5-11.5,14.2c-0.6,0.7-1.2,1.3-2.1,1.7c-0.6,0.2-1.2,0.4-1.9,0.4c-5.7,0-11.4,0-17.1,0c-0.7,0-1.3,0-2,0
			c-0.6,0-1.3-0.3-1.8-0.6c-0.5-0.3-1-0.7-1.4-1.1c-3.9-4.8-7.8-9.7-11.7-14.5c-0.8-1-1.1-2.1-1-3.3c0-0.6,0.2-1.2,0.3-1.8
			c1.1-4.8,2.2-9.5,3.3-14.3c0.2-1,0.4-2,0.7-2.9c0.4-1.4,1.2-2.5,2.5-3.1c3.6-1.7,7.2-3.4,10.8-5.2c2-1,4-1.9,6.1-2.9
			C31,9.2,31.6,9,32.2,9z M32.5,57.5c3.1,0,6.2,0,9.3,0c1.1,0,2-0.4,2.7-1.3c2.4-3,4.9-6,7.3-9c1.4-1.8,2.9-3.6,4.3-5.4
			c0.7-0.8,0.9-1.7,0.6-2.7c-0.3-1.2-0.5-2.4-0.8-3.5c-1.1-4.8-2.2-9.5-3.3-14.3c-0.3-1.1-0.9-2-1.9-2.5c-3.6-1.7-7.2-3.4-10.7-5.1
			c-2-0.9-4-1.9-6-2.8c-1-0.5-2-0.4-2.9,0c-1.9,0.9-3.8,1.8-5.7,2.7c-3.7,1.8-7.3,3.5-11,5.3c-0.9,0.4-1.5,1.2-1.8,2.1
			c-0.4,1.9-0.9,3.7-1.3,5.6c-0.9,4.1-1.9,8.2-2.8,12.3c-0.1,0.5-0.2,0.9-0.1,1.4c0.1,0.6,0.4,1.2,0.8,1.7c1.2,1.5,2.5,3.1,3.7,4.6
			c2.6,3.2,5.2,6.5,7.8,9.7c0.7,0.9,1.6,1.3,2.7,1.3C26.4,57.5,29.4,57.5,32.5,57.5z"/>
		<g>
			<path class="st0" d="M33,53.8c-0.6-0.2-1.1-0.5-1.6-0.9c-3.4-2.2-6.1-5.2-8.2-8.6c-2.7-4.4-4.3-9.2-4.9-14.2
				c-0.3-2.2-0.3-4.4-0.2-6.6c0-0.3,0.1-0.4,0.4-0.3c1.5,0,3,0,4.4-0.6c1.1-0.4,2.2-1.1,3.1-1.8c1.1-0.8,2.3-1.6,3.7-2
				c1-0.3,2.1-0.5,3.2-0.4c0,0.7,0,1.4,0,2.2c-1,0-1.9,0.1-2.8,0.5C29,21.4,28,22.2,27,22.9c-1.9,1.4-4.1,2.3-6.4,2.4
				c-0.3,0-0.2,0.2-0.2,0.4c0,2.2,0.2,4.3,0.6,6.4c1,5,2.8,9.5,5.9,13.6c1.7,2.3,3.7,4.2,6.2,5.7C33,52.2,33,53,33,53.8z"/>
			<path class="st0" d="M33,53.8c0-0.8,0-1.7,0-2.5c0.1,0,0.1-0.1,0.2-0.1c2.3-1.4,4.2-3.2,5.8-5.3c2.9-3.7,4.8-7.9,5.8-12.5
				c0.6-2.6,0.9-5.2,0.9-7.8c0-0.3-0.1-0.3-0.3-0.4c-0.4,0-0.9-0.1-1.3-0.2c-2-0.3-3.8-1.3-5.4-2.5c-1.7-1.3-3.5-2.2-5.7-2.1
				c0-0.7,0-1.4,0-2.2c2,0,3.9,0.4,5.5,1.5c0.7,0.5,1.4,0.9,2.1,1.4c1.8,1.3,3.8,1.8,6,1.8c0.1,0,0.2,0,0.3,0c0.8,0,0.8,0,0.8,0.8
				c0.4,7.9-1.6,15.2-6,21.8c-2,3-4.5,5.6-7.6,7.5C33.8,53.4,33.5,53.7,33,53.8z"/>
			<path class="st0" d="M31.1,47.2c-1.6-1.5-2.9-3.2-4.1-5c-2.4-3.9-3.8-8.2-4.3-12.8c-0.1-0.6-0.1-1.2-0.2-1.8c0-0.2,0-0.3,0.2-0.3
				c1.2-0.2,2.3-0.7,3.4-1.2c1.7,2.1,3.2,4.4,4.3,6.9c0.9,2.1,1.5,4.4,1.6,6.7c0.1,2.2-0.1,4.4-0.6,6.5
				C31.3,46.4,31.1,46.8,31.1,47.2z"/>
			<path class="st1" d="M39.1,25.5c1.3,0.7,2.7,1.3,4.2,1.6c0.3,0.1,0.2,0.2,0.2,0.4c-0.1,1.8-0.4,3.6-0.8,5.4
				c-1.1,4.6-3,8.7-6,12.3c-0.5,0.6-1.1,1.3-1.8,1.8c0-0.1,0-0.2,0.1-0.4c0.9-1.6,1.7-3.3,2.3-5c0.7-2.1,1.2-4.2,1.5-6.3
				c0.2-1.5,0.4-3.1,0.4-4.6C39.2,29.1,39.2,27.3,39.1,25.5z"/>
			<path class="st2" d="M31.1,47.2c0-0.4,0.2-0.7,0.3-1.1c0.6-2.1,0.8-4.3,0.6-6.5c-0.1-2.3-0.7-4.5-1.6-6.7
				c-1.1-2.5-2.5-4.8-4.3-6.9c0.9-0.5,1.7-1,2.5-1.6c0.2-0.2,0.3-0.1,0.5,0.1c0.9,1.4,1.6,2.8,2.3,4.3c1.8,4.4,2.4,8.9,2,13.6
				c-0.2,1.8-0.5,3.6-0.9,5.4c0,0.1,0,0.2-0.1,0.4C31.9,47.9,31.5,47.6,31.1,47.2z"/>
			<path class="st0" d="M39.1,25.5c0.2,1.8,0.2,3.5,0.2,5.3c0,1.6-0.2,3.1-0.4,4.6c-0.3,2.2-0.8,4.3-1.5,6.3c-0.6,1.7-1.4,3.4-2.3,5
				c-0.1,0.1-0.1,0.2-0.1,0.4l0,0c-0.1,0-0.1,0.1-0.1,0.1c-0.4,0.4-0.8,0.7-1.2,1c0,0,0,0-0.1,0c1.1-2.1,1.9-4.4,2.5-6.7
				c0.8-3.1,1-6.2,0.8-9.3c-0.2-3.1-0.8-6.1-1.7-9.1c0,0,0-0.1,0-0.2C36.6,23.6,37.7,24.7,39.1,25.5z"/>
			<path class="st0" d="M34.7,47.3c0-0.1,0.1-0.1,0.1-0.1C34.8,47.2,34.8,47.3,34.7,47.3z"/>
			<path class="st0" d="M33.5,48.3C33.5,48.3,33.5,48.3,33.5,48.3C33.5,48.3,33.5,48.3,33.5,48.3C33.5,48.3,33.5,48.3,33.5,48.3z"/>
		</g>
	</g>
	<g>
		<path class="st0" d="M88.4,47.6h-7.3l-6.9-9.5v9.5h-6.4V17.5h6.4v18l6.4-9.4h7.5l-7.8,10.7L88.4,47.6z"/>
		<path class="st0" d="M103.8,26.1h6.4v21.5h-6.4v-2c-1.3,1.7-3.3,2.6-6.1,2.6c-2.3,0-4.2-0.8-5.7-2.4c-1.5-1.6-2.3-3.8-2.3-6.5
			V26.1H96v12.2c0,1.3,0.4,2.2,1.1,2.9c0.7,0.7,1.6,1,2.7,1c1.2,0,2.2-0.4,2.9-1.1c0.7-0.7,1.1-1.8,1.1-3.3V26.1z"/>
		<path class="st0" d="M127.8,25.5c2.8,0,5.3,1.1,7.3,3.3c2,2.2,3,4.9,3,8.1c0,3.2-1,5.9-3,8.1c-2,2.2-4.4,3.3-7.3,3.3
			c-2.8,0-4.9-0.9-6.4-2.6v2H115V17.5h6.4v10.6C122.9,26.4,125.1,25.5,127.8,25.5z M122.8,40.7c1,0.9,2.2,1.4,3.7,1.4
			c1.5,0,2.7-0.5,3.7-1.4c1-0.9,1.4-2.2,1.4-3.8c0-1.6-0.5-2.9-1.4-3.8c-1-0.9-2.2-1.4-3.7-1.4c-1.5,0-2.7,0.5-3.7,1.4
			c-1,0.9-1.4,2.2-1.4,3.8C121.4,38.5,121.9,39.7,122.8,40.7z"/>
		<path class="st0" d="M147.5,39.4c0.7,2,2.5,3,5.2,3c1.7,0,3.1-0.5,4.1-1.6l5.2,3c-2.1,3-5.2,4.4-9.4,4.4c-3.6,0-6.5-1.1-8.7-3.2
			c-2.2-2.1-3.2-4.9-3.2-8.1c0-3.2,1.1-5.9,3.2-8.1c2.1-2.2,4.9-3.2,8.2-3.2c3.1,0,5.7,1.1,7.8,3.2c2.1,2.2,3.1,4.9,3.1,8.1
			c0,0.9-0.1,1.8-0.3,2.6H147.5z M147.4,34.6h9.2c-0.6-2.3-2.1-3.4-4.6-3.4C149.6,31.2,148,32.4,147.4,34.6z"/>
		<path class="st0" d="M188.2,48.2c-3.1,0-5.6-0.7-7.7-2c-2-1.3-3.5-3.1-4.4-5.4l5.9-3.4c1.2,2.8,3.3,4.2,6.3,4.2
			c2.7,0,4.1-0.8,4.1-2.4c0-0.9-0.4-1.6-1.3-2.1c-0.9-0.5-2.5-1.1-4.9-1.7c-1.3-0.3-2.4-0.7-3.3-1.2c-0.9-0.4-1.9-1-2.8-1.7
			c-0.9-0.7-1.6-1.6-2.1-2.6c-0.5-1.1-0.7-2.3-0.7-3.7c0-2.8,1-5,3-6.7c2-1.7,4.4-2.5,7.1-2.5c2.5,0,4.6,0.6,6.5,1.7
			c1.9,1.2,3.4,2.8,4.5,5.1l-5.8,3.4c-0.5-1.1-1.2-2-2-2.6c-0.8-0.6-1.9-0.9-3.2-0.9c-1,0-1.8,0.2-2.4,0.7c-0.6,0.4-0.8,1-0.8,1.6
			c0,0.7,0.4,1.4,1.1,1.9c0.7,0.5,2.2,1.1,4.4,1.8c1.2,0.4,2.1,0.7,2.8,0.9c0.7,0.2,1.5,0.6,2.5,1.1c1,0.5,1.8,1.1,2.3,1.7
			c0.5,0.6,1,1.4,1.4,2.3c0.4,1,0.6,2.1,0.6,3.3c0,2.9-1,5.1-3.1,6.8C194.2,47.4,191.5,48.2,188.2,48.2z"/>
		<path class="st0" d="M215.1,25.5c2.3,0,4.2,0.8,5.7,2.4c1.5,1.6,2.3,3.8,2.3,6.5v13.2h-6.4V35.4c0-1.3-0.4-2.2-1.1-2.9
			c-0.7-0.7-1.6-1-2.7-1c-1.2,0-2.2,0.4-2.9,1.1c-0.7,0.7-1.1,1.8-1.1,3.3v11.7h-6.4V17.5h6.4v10.6
			C210.3,26.4,212.3,25.5,215.1,25.5z"/>
		<path class="st0" d="M233.6,23.1c-0.8,0.8-1.7,1.1-2.7,1.1c-1.1,0-2-0.4-2.7-1.1c-0.8-0.8-1.1-1.7-1.1-2.7c0-1.1,0.4-2,1.1-2.7
			c0.8-0.8,1.7-1.1,2.7-1.1c1.1,0,2,0.4,2.7,1.1c0.8,0.8,1.1,1.7,1.1,2.7C234.7,21.4,234.3,22.3,233.6,23.1z M227.6,47.6V26.1h6.4
			v21.5H227.6z"/>
		<path class="st0" d="M244.5,39.4c0.7,2,2.5,3,5.2,3c1.7,0,3.1-0.5,4.1-1.6l5.2,3c-2.1,3-5.2,4.4-9.4,4.4c-3.6,0-6.5-1.1-8.7-3.2
			c-2.2-2.1-3.2-4.9-3.2-8.1c0-3.2,1.1-5.9,3.2-8.1c2.1-2.2,4.9-3.2,8.2-3.2c3.1,0,5.7,1.1,7.8,3.2c2.1,2.2,3.1,4.9,3.1,8.1
			c0,0.9-0.1,1.8-0.3,2.6H244.5z M244.4,34.6h9.2c-0.6-2.3-2.1-3.4-4.6-3.4C246.6,31.2,245,32.4,244.4,34.6z"/>
		<path class="st0" d="M263.7,47.6V16.2h6.4v31.4H263.7z"/>
		<path class="st0" d="M290.5,17.5h6.4v30.1h-6.4v-2c-1.5,1.7-3.7,2.6-6.4,2.6c-2.8,0-5.3-1.1-7.3-3.3c-2-2.2-3-4.9-3-8.1
			c0-3.2,1-5.9,3-8.1c2-2.2,4.4-3.3,7.3-3.3c2.8,0,4.9,0.9,6.4,2.6V17.5z M281.7,40.7c0.9,0.9,2.2,1.4,3.7,1.4
			c1.5,0,2.8-0.5,3.7-1.4c0.9-0.9,1.4-2.2,1.4-3.8c0-1.6-0.5-2.9-1.4-3.8c-0.9-0.9-2.2-1.4-3.7-1.4c-1.5,0-2.8,0.5-3.7,1.4
			c-0.9,0.9-1.4,2.2-1.4,3.8C280.3,38.5,280.7,39.7,281.7,40.7z"/>
	</g>
</g>
</svg>
