<?xml version="1.0" encoding="utf-8"?>
<!-- Generator: Adobe Illustrator 22.1.0, SVG Export Plug-In . SVG Version: 6.00 Build 0)  -->
<svg version="1.1" id="Layer_1" xmlns="http://www.w3.org/2000/svg" xmlns:xlink="http://www.w3.org/1999/xlink" x="0px" y="0px"
	 viewBox="0 0 58.9 56.2" style="enable-background:new 0 0 58.9 56.2;" xml:space="preserve">
<style type="text/css">
	.st0{fill:#326CE5;}
	.st1{opacity:0.8;fill:#326CE5;}
	.st2{opacity:0.5;fill:#326CE5;}
</style>
<g>
	<path class="st0" d="M29.2,3.2c0.2,0,0.4,0,0.6,0c0.6,0.1,1.2,0.2,1.8,0.5c0.4,0.2,0.9,0.4,1.3,0.6c4.7,2.3,9.5,4.5,14.2,6.8
		c0.5,0.2,1,0.5,1.5,0.7c1.3,0.7,2.1,1.8,2.4,3.3c0.6,2.5,1.1,5,1.7,7.4c0.8,3.5,1.6,7,2.4,10.5c0.3,1.5,0,2.9-0.9,4.1
		c-3.8,4.7-7.6,9.5-11.5,14.2c-0.6,0.7-1.2,1.3-2.1,1.7c-0.6,0.2-1.2,0.4-1.9,0.4c-5.7,0-11.4,0-17.1,0c-0.7,0-1.3,0-2,0
		c-0.6,0-1.3-0.3-1.8-0.6c-0.5-0.3-1-0.7-1.4-1.1c-3.9-4.8-7.8-9.7-11.7-14.5c-0.8-1-1.1-2.1-1-3.3c0-0.6,0.2-1.2,0.3-1.8
		c1.1-4.8,2.2-9.5,3.3-14.3c0.2-1,0.4-2,0.7-2.9c0.4-1.4,1.2-2.5,2.5-3.1c3.6-1.7,7.2-3.4,10.8-5.2c2-1,4-1.9,6.1-2.9
		C28,3.4,28.6,3.3,29.2,3.2z M29.5,51.8c3.1,0,6.2,0,9.3,0c1.1,0,2-0.4,2.7-1.3c2.4-3,4.9-6,7.3-9c1.4-1.8,2.9-3.6,4.3-5.4
		c0.7-0.8,0.9-1.7,0.6-2.7c-0.3-1.2-0.5-2.4-0.8-3.5c-1.1-4.8-2.2-9.5-3.3-14.3c-0.3-1.1-0.9-2-1.9-2.5c-3.6-1.7-7.2-3.4-10.7-5.1
		c-2-0.9-4-1.9-6-2.8c-1-0.5-2-0.4-2.9,0c-1.9,0.9-3.8,1.8-5.7,2.7c-3.7,1.8-7.3,3.5-11,5.3c-0.9,0.4-1.5,1.2-1.8,2.1
		c-0.4,1.9-0.9,3.7-1.3,5.6C7.3,24.9,6.4,29,5.4,33.1c-0.1,0.5-0.2,0.9-0.1,1.4c0.1,0.6,0.4,1.2,0.8,1.7c1.2,1.5,2.5,3.1,3.7,4.6
		c2.6,3.2,5.2,6.5,7.8,9.7c0.7,0.9,1.6,1.3,2.7,1.3C23.4,51.8,26.4,51.8,29.5,51.8z"/>
	<g>
		<path class="st0" d="M30,48.1c-0.6-0.2-1.1-0.5-1.6-0.9C25,45,22.4,42,20.3,38.6c-2.7-4.4-4.3-9.2-4.9-14.2
			c-0.3-2.2-0.3-4.4-0.2-6.6c0-0.3,0.1-0.4,0.4-0.3c1.5,0,3,0,4.4-0.6c1.1-0.4,2.2-1.1,3.1-1.8c1.1-0.8,2.3-1.6,3.7-2
			c1-0.3,2.1-0.5,3.2-0.4c0,0.7,0,1.4,0,2.2c-1,0-1.9,0.1-2.8,0.5C26,15.7,25,16.4,24,17.1c-1.9,1.4-4.1,2.3-6.4,2.4
			c-0.3,0-0.2,0.2-0.2,0.4c0,2.2,0.2,4.3,0.6,6.4c1,5,2.8,9.5,5.9,13.6c1.7,2.3,3.7,4.2,6.2,5.7C30,46.4,30,47.2,30,48.1z"/>
		<path class="st0" d="M30,48.1c0-0.8,0-1.7,0-2.5c0.1,0,0.1-0.1,0.2-0.1c2.3-1.4,4.2-3.2,5.8-5.3c2.9-3.7,4.8-7.9,5.8-12.5
			c0.6-2.6,0.9-5.2,0.9-7.8c0-0.3-0.1-0.3-0.3-0.4c-0.4,0-0.9-0.1-1.3-0.2c-2-0.3-3.8-1.3-5.4-2.5c-1.7-1.3-3.5-2.2-5.7-2.1
			c0-0.7,0-1.4,0-2.2c2,0,3.9,0.4,5.5,1.5c0.7,0.5,1.4,0.9,2.1,1.4c1.8,1.3,3.8,1.8,6,1.8c0.1,0,0.2,0,0.3,0c0.8,0,0.8,0,0.8,0.8
			c0.4,7.9-1.6,15.2-6,21.8c-2,3-4.5,5.6-7.6,7.5C30.8,47.7,30.5,47.9,30,48.1z"/>
		<path class="st0" d="M28.1,41.4c-1.6-1.5-2.9-3.2-4.1-5c-2.4-3.9-3.8-8.2-4.3-12.8c-0.1-0.6-0.1-1.2-0.2-1.8c0-0.2,0-0.3,0.2-0.3
			c1.2-0.2,2.3-0.7,3.4-1.2c1.7,2.1,3.2,4.4,4.3,6.9c0.9,2.1,1.5,4.4,1.6,6.7c0.1,2.2-0.1,4.4-0.6,6.5C28.3,40.7,28.1,41,28.1,41.4z
			"/>
		<path class="st1" d="M36.1,19.8c1.3,0.7,2.7,1.3,4.2,1.6c0.3,0.1,0.2,0.2,0.2,0.4c-0.1,1.8-0.4,3.6-0.8,5.4c-1.1,4.6-3,8.7-6,12.3
			c-0.5,0.6-1.1,1.3-1.8,1.8c0-0.1,0.1-0.2,0.1-0.4c0.9-1.6,1.7-3.3,2.3-5c0.7-2.1,1.2-4.2,1.5-6.3c0.2-1.5,0.4-3.1,0.4-4.6
			C36.2,23.3,36.2,21.5,36.1,19.8z"/>
		<path class="st2" d="M28.1,41.4c0-0.4,0.2-0.7,0.3-1.1c0.6-2.1,0.8-4.3,0.6-6.5c-0.1-2.3-0.7-4.5-1.6-6.7
			c-1.1-2.5-2.5-4.8-4.3-6.9c0.9-0.5,1.7-1,2.5-1.6c0.2-0.2,0.3-0.1,0.5,0.1c0.9,1.4,1.6,2.8,2.3,4.3c1.8,4.4,2.4,8.9,2,13.6
			c-0.2,1.8-0.5,3.6-0.9,5.4c0,0.1,0,0.2-0.1,0.4C28.9,42.1,28.5,41.8,28.1,41.4z"/>
		<path class="st0" d="M36.1,19.8c0.2,1.8,0.2,3.5,0.2,5.3c0,1.6-0.2,3.1-0.4,4.6c-0.3,2.2-0.8,4.3-1.5,6.3c-0.6,1.7-1.4,3.4-2.3,5
			c-0.1,0.1-0.1,0.2-0.1,0.4l0,0c-0.1,0-0.1,0.1-0.1,0.1c-0.4,0.4-0.8,0.7-1.2,1c0,0,0,0-0.1,0c1.1-2.1,1.9-4.4,2.5-6.7
			c0.8-3.1,1-6.2,0.8-9.3c-0.2-3.1-0.8-6.1-1.7-9.1c0,0,0-0.1,0-0.2C33.6,17.9,34.7,19,36.1,19.8z"/>
		<path class="st0" d="M31.7,41.6c0-0.1,0.1-0.1,0.1-0.1C31.8,41.5,31.8,41.5,31.7,41.6z"/>
		<path class="st0" d="M30.5,42.6C30.5,42.6,30.5,42.6,30.5,42.6C30.5,42.6,30.5,42.5,30.5,42.6C30.5,42.5,30.5,42.5,30.5,42.6z"/>
	</g>
</g>
</svg>
