<svg width="795" height="110" viewBox="0 0 795 110" fill="none" xmlns="http://www.w3.org/2000/svg">
<path d="M56.2958 0.0062618C55.2818 0.0663135 54.2902 0.329349 53.3797 0.779774L13.9306 19.6071C12.913 20.0915 12.018 20.7995 11.3122 21.6781C10.6063 22.5567 10.1079 23.5832 9.85416 24.6813L0.192992 66.946C-0.0349352 67.9261 -0.0612732 68.9423 0.115576 69.933C0.292425 70.9236 0.668772 71.8679 1.22176 72.7087C1.35584 72.9149 1.49765 73.1135 1.64719 73.3043L28.9367 107.215C29.6474 108.088 30.544 108.79 31.5611 109.272C32.5782 109.754 33.69 110.003 34.8154 110H78.5652C79.6951 110.002 80.8111 109.751 81.8312 109.265C82.8512 108.779 83.7493 108.071 84.4594 107.192L111.726 73.2656C112.431 72.3899 112.929 71.3653 113.181 70.2693C113.433 69.1732 113.432 68.0342 113.18 66.9383L103.449 24.6271C103.195 23.5291 102.697 22.5025 101.991 21.6239C101.285 20.7453 100.39 20.0374 99.3727 19.5529L59.9545 0.779774C58.8186 0.220755 57.5608 -0.0451575 56.2958 0.0062618Z" fill="#326CE5"/>
<path d="M56.6903 14.3945C56.037 14.4403 55.4278 14.7407 54.9938 15.2311C54.5598 15.7215 54.3357 16.3627 54.3698 17.0167V17.682C54.4349 18.4353 54.5433 19.1843 54.6946 19.9251C54.9112 21.3426 54.9889 22.7778 54.9267 24.2104C54.7909 24.6833 54.5225 25.1074 54.1532 25.4325L54.099 26.4381C52.6647 26.5571 51.2405 26.7768 49.837 27.0956C43.9329 28.426 38.5616 31.4915 34.4132 35.8982L33.5623 35.2948C33.0953 35.4331 32.5928 35.3831 32.1622 35.1556C31.0118 34.3045 29.9471 33.3434 28.9831 32.2859C28.4995 31.7075 27.9829 31.1574 27.4361 30.6383L26.9101 30.2206C26.4435 29.8446 25.8689 29.6278 25.2702 29.6018C24.9133 29.5835 24.5572 29.6497 24.2306 29.7948C23.904 29.94 23.6162 30.16 23.3906 30.4372C23.0068 30.976 22.8523 31.645 22.9611 32.2975C23.0698 32.95 23.4329 33.5328 23.9707 33.918L24.4581 34.3047C25.0878 34.7237 25.7412 35.1059 26.415 35.4495C27.6702 36.1471 28.8542 36.9658 29.95 37.8938C30.2313 38.2947 30.3948 38.7663 30.4218 39.2552L31.1953 39.9282C27.023 46.1884 25.3096 53.7691 26.3841 61.2152L25.394 61.5014C25.1362 61.9127 24.79 62.2615 24.3807 62.5225C22.9963 62.8915 21.5792 63.1247 20.1496 63.2186C19.3913 63.2343 18.6346 63.2937 17.8832 63.3965L17.2644 63.5512H17.187C16.7506 63.6093 16.339 63.788 15.9985 64.0671C15.658 64.3463 15.4022 64.7149 15.2597 65.1315C15.1172 65.5481 15.0938 65.9962 15.192 66.4254C15.2902 66.8546 15.5061 67.2479 15.8156 67.5611C16.1251 67.8744 16.516 68.0951 16.9441 68.1984C17.3722 68.3017 17.8207 68.2835 18.239 68.1459H18.2854L18.9274 68.0685C19.6481 67.8514 20.3557 67.5931 21.0469 67.295C22.3761 66.7601 23.7543 66.3559 25.162 66.0883C25.6492 66.1183 26.1182 66.2845 26.5156 66.5679L27.5444 66.39C29.8467 73.5351 34.6871 79.5891 41.1504 83.4073L40.7173 84.3123C40.9169 84.7254 40.9896 85.1884 40.9261 85.6427C40.34 86.9973 39.625 88.2924 38.7912 89.5103C38.3325 90.1145 37.909 90.7447 37.5227 91.3977L37.2133 92.0319C36.9918 92.4107 36.88 92.8435 36.8903 93.2821C36.9005 93.7207 37.0325 94.1478 37.2714 94.5157C37.5104 94.8837 37.8469 95.178 38.2434 95.3658C38.6398 95.5536 39.0807 95.6275 39.5168 95.5793C39.9528 95.531 40.3669 95.3625 40.7127 95.0927C41.0585 94.8228 41.3226 94.462 41.4753 94.0508L41.7693 93.4475C42.0376 92.7392 42.2649 92.0161 42.4499 91.2816C43.0688 89.7346 43.4168 88.0716 44.2754 87.0428C44.5557 86.7796 44.9089 86.607 45.2887 86.5477L45.8302 85.5809C52.835 88.2745 60.5865 88.2938 67.6046 85.635L68.0687 86.54C68.5505 86.6152 68.9837 86.8762 69.2753 87.2671C69.942 88.5341 70.4834 89.8631 70.892 91.2352C71.0797 91.9698 71.3095 92.6929 71.5804 93.4011L71.8743 94.0044C72.0271 94.4157 72.2911 94.7764 72.637 95.0463C72.9829 95.3162 73.397 95.4847 73.833 95.5329C74.2691 95.5811 74.71 95.5072 75.1065 95.3194C75.503 95.1316 75.8395 94.8372 76.0784 94.4693C76.3173 94.1013 76.4492 93.6742 76.4595 93.2356C76.4697 92.797 76.3579 92.3642 76.1364 91.9855L75.827 91.3513C75.4406 90.7008 75.0171 90.0732 74.5584 89.4716C73.7423 88.2945 73.0428 87.0406 72.4699 85.7278C72.4135 85.4878 72.4056 85.2389 72.4468 84.9958C72.488 84.7527 72.5774 84.5203 72.7097 84.3123C72.5582 84.0038 72.4264 83.6861 72.3152 83.3609C78.77 79.5176 83.5916 73.4411 85.8672 66.2817L86.8727 66.4596C87.2329 66.1303 87.7078 65.9554 88.1954 65.9723C89.6031 66.2399 90.9813 66.644 92.3105 67.179C93.0007 67.4928 93.7083 67.7666 94.43 67.9989C94.6001 68.0453 94.8476 68.0763 95.0488 68.1304H95.0952C95.5135 68.2681 95.9619 68.2864 96.39 68.1831C96.8182 68.0799 97.209 67.8593 97.5186 67.5461C97.8282 67.2329 98.0442 66.8395 98.1425 66.4102C98.2407 65.9809 98.2173 65.5327 98.0747 65.116C97.9317 64.6983 97.6746 64.329 97.3326 64.0497C96.9906 63.7705 96.5773 63.5924 96.1394 63.5358L95.4433 63.3811C94.6918 63.2783 93.9351 63.2189 93.1769 63.2031C91.7472 63.1093 90.3301 62.8761 88.9458 62.507C88.5173 62.2679 88.1638 61.9144 87.9247 61.4859L86.9733 61.2075C87.9929 53.7671 86.245 46.2113 82.0615 39.9746L82.8969 39.2011C82.8631 38.7145 83.0214 38.2341 83.3378 37.8629C84.4252 36.928 85.6014 36.1016 86.8495 35.3954C87.5233 35.0516 88.1767 34.6694 88.8065 34.2506L89.3248 33.8329C89.7052 33.5962 90.0108 33.2567 90.2065 32.8537C90.4021 32.4506 90.4798 32.0004 90.4304 31.5551C90.3811 31.1098 90.2068 30.6876 89.9276 30.3371C89.6485 29.9867 89.2759 29.7224 88.8529 29.5747C88.4299 29.427 87.9737 29.402 87.5371 29.5026C87.1004 29.6033 86.7012 29.8253 86.3854 30.1432L85.8594 30.5609C85.3127 31.0801 84.7962 31.6302 84.3124 32.2085C83.3772 33.2778 82.3411 34.2543 81.2184 35.1247C80.765 35.3083 80.2695 35.3619 79.7874 35.2794L78.8901 35.9214C73.7158 30.4966 66.748 27.135 59.2816 26.4613C59.2816 26.1519 59.2352 25.5795 59.2274 25.4093C58.8259 25.1336 58.5482 24.7115 58.4539 24.2336C58.4052 22.8024 58.4959 21.3698 58.7246 19.9561C58.8759 19.2152 58.9844 18.4662 59.0495 17.7129V17.0399C59.0836 16.3859 58.8595 15.7447 58.4255 15.2543C57.9915 14.7639 57.3823 14.4635 56.729 14.4177L56.6903 14.3945ZM53.7355 32.6958L53.0393 45.072H52.9852C52.9691 45.4479 52.8513 45.8125 52.6444 46.1268C52.4376 46.4411 52.1494 46.6934 51.8105 46.8569C51.4716 47.0204 51.0947 47.0889 50.7199 47.0552C50.3452 47.0215 49.9866 46.8868 49.6823 46.6655L39.5338 39.4718C42.7648 36.2983 46.8183 34.0907 51.237 33.0981C52.065 32.9214 52.9015 32.7871 53.7432 32.6958H53.7355ZM59.6451 32.6958C64.9753 33.3572 69.9406 35.7515 73.7772 39.5105L63.7215 46.6577C63.4176 46.9009 63.0515 47.0539 62.6649 47.0994C62.2783 47.1448 61.8867 47.0809 61.5346 46.915C61.1825 46.749 60.884 46.4876 60.673 46.1604C60.4621 45.8333 60.3472 45.4535 60.3413 45.0643L59.6451 32.6958ZM35.8364 44.1361L45.1186 52.4127V52.4668C45.4018 52.7143 45.6126 53.034 45.7286 53.3918C45.8446 53.7496 45.8614 54.1322 45.7773 54.4988C45.6932 54.8654 45.5113 55.2024 45.2509 55.4739C44.9905 55.7453 44.6614 55.9411 44.2986 56.0404V56.0791L32.3866 59.5058C31.796 54.139 33.0098 48.7284 35.8364 44.1283V44.1361ZM77.4746 44.1361C80.2943 48.7241 81.5408 54.1066 81.025 59.4671L69.0974 56.0327V55.9863C68.7346 55.887 68.4055 55.6912 68.1452 55.4197C67.8848 55.1483 67.7029 54.8113 67.6187 54.4447C67.5346 54.0781 67.5515 53.6955 67.6675 53.3377C67.7835 52.9799 67.9943 52.6602 68.2775 52.4127L77.4823 44.167L77.4746 44.1361ZM54.7875 53.0701H58.5777L60.8982 56.0095L60.0473 59.6914L56.6439 61.3312L53.225 59.6914L52.4205 56.0017L54.7875 53.0701ZM66.9548 63.1258C67.1141 63.1072 67.2751 63.1072 67.4344 63.1258L79.7178 65.1988C77.9095 70.3035 74.4497 74.6589 69.8864 77.575L65.1371 66.0651C65.0063 65.7569 64.9516 65.4218 64.9774 65.0881C65.0033 64.7543 65.109 64.4316 65.2857 64.1473C65.4624 63.8629 65.7049 63.6252 65.9926 63.4542C66.2804 63.2831 66.6051 63.1838 66.9393 63.1645L66.9548 63.1258ZM46.3252 63.1799C46.6668 63.1853 47.0018 63.2747 47.3007 63.4402C47.5995 63.6057 47.853 63.8422 48.0388 64.1289C48.2245 64.4156 48.3369 64.7436 48.3658 65.084C48.3948 65.4244 48.3395 65.7667 48.2049 66.0806V66.127L43.4787 77.5131C38.9706 74.6154 35.5405 70.3155 33.717 65.2762L45.8921 63.2031C46.0284 63.1898 46.1657 63.1898 46.302 63.2031L46.3252 63.1799ZM56.613 68.1768C56.9999 68.1652 57.3825 68.2609 57.7184 68.4534C58.0543 68.646 58.3303 68.9277 58.5158 69.2675H58.5622L64.5647 80.0967C63.7771 80.3609 62.9768 80.5855 62.1668 80.7696C57.7515 81.7803 53.1421 81.542 48.8546 80.0812L54.8416 69.252C55.0211 68.9394 55.2788 68.6789 55.5893 68.4958C55.8998 68.3127 56.2525 68.2135 56.613 68.2078V68.1768Z" fill="white" stroke="white" stroke-width="0.053987"/>
<path d="M172.659 60.967L178.131 54.9943C180.011 52.9169 181.835 50.8642 183.603 48.8362L188.611 43.0491C190.169 41.2189 191.511 39.6238 192.636 38.2635H213.93C209.676 43.148 205.534 47.8037 201.502 52.2306C197.459 56.6575 193.032 61.2328 188.222 65.9566C190.861 68.3834 193.339 70.9795 195.641 73.7284C198.201 76.7333 200.674 79.8247 203.06 83.0027C205.447 86.1807 207.648 89.3958 209.664 92.648C211.667 95.863 213.349 98.7937 214.709 101.44H194.12C192.883 99.3378 191.424 97.0254 189.743 94.5028C188.061 91.9678 186.33 89.4823 184.549 87.0463C182.694 84.5731 180.753 82.1433 178.725 79.7567C176.877 77.619 174.848 75.6455 172.659 73.8582V101.57H154.741V11.1084L172.659 8.21483V60.9855V60.967ZM277.088 99.3254C273.215 100.385 269.282 101.208 265.309 101.792C260.302 102.571 255.241 102.956 250.174 102.942C245.606 103.078 241.055 102.341 236.763 100.772C233.46 99.5184 230.539 97.4284 228.286 94.7068C226.14 91.9795 224.62 88.8132 223.835 85.4326C222.921 81.5302 222.479 77.5322 222.518 73.5244V38.2821H240.436V71.2985C240.436 77.0733 241.196 81.2406 242.717 83.8003C244.238 86.36 247.082 87.6398 251.25 87.6398C252.486 87.6398 253.846 87.578 255.33 87.4544C256.814 87.3307 258.094 87.1885 259.17 87.0277V38.245H277.088V99.3254ZM352.729 69.8703C352.792 74.5343 352.039 79.1734 350.503 83.5777C349.13 87.485 346.936 91.0524 344.067 94.0391C341.155 96.9964 337.627 99.2762 333.735 100.717C329.268 102.343 324.54 103.135 319.787 103.054C317.623 103.054 315.36 102.955 312.998 102.757C310.648 102.559 308.324 102.299 306.024 101.978C303.736 101.656 301.553 101.273 299.476 100.828C297.399 100.383 295.544 99.919 293.911 99.4367V11.0899L311.829 8.19629V39.7289C313.841 38.8461 315.935 38.1627 318.08 37.6885C320.372 37.1935 322.71 36.9509 325.054 36.9651C329.145 36.8817 333.207 37.6787 336.963 39.3022C340.338 40.8104 343.307 43.0991 345.625 45.9797C348.052 49.0684 349.848 52.604 350.911 56.3855C352.162 60.7696 352.775 65.3113 352.729 69.8703ZM334.459 69.388C334.459 57.8508 330.211 52.0822 321.716 52.0822C319.868 52.0832 318.028 52.3264 316.244 52.8056C314.692 53.1943 313.209 53.8199 311.848 54.6605V87.1761C312.713 87.3369 313.826 87.4791 315.187 87.6027C316.547 87.7264 318.031 87.7882 319.638 87.7882C321.766 87.9351 323.897 87.5509 325.84 86.6703C327.782 85.7897 329.476 84.4401 330.767 82.743C333.401 78.8046 334.69 74.1194 334.44 69.388H334.459ZM363.524 70.3526C363.416 65.3223 364.292 60.3195 366.102 55.625C367.64 51.7009 369.948 48.1247 372.891 45.108C375.651 42.3674 378.947 40.2266 382.574 38.82C386.148 37.3887 389.963 36.6521 393.814 36.6498C402.792 36.6498 409.883 39.395 415.089 44.8854C420.283 50.3757 422.88 58.4506 422.88 69.1098C422.88 70.1485 422.842 71.2924 422.768 72.5413C422.694 73.7779 422.614 74.8784 422.527 75.8429H381.906C382.065 77.5974 382.611 79.2946 383.506 80.8119C384.401 82.3293 385.622 83.6287 387.081 84.6164C390.729 86.95 395.016 88.0849 399.341 87.8624C402.59 87.864 405.832 87.5598 409.024 86.9535C411.683 86.5007 414.283 85.7542 416.777 84.7277L419.188 99.2698C417.951 99.8573 416.666 100.341 415.349 100.717C413.592 101.234 411.809 101.655 410.007 101.978C408.028 102.349 405.926 102.658 403.7 102.905C401.464 103.142 399.216 103.26 396.967 103.258C391.906 103.367 386.87 102.511 382.128 100.735C378.177 99.2226 374.606 96.8608 371.667 93.8165C368.879 90.8459 366.788 87.2911 365.546 83.4108C364.169 79.2022 363.48 74.7991 363.506 70.3711L363.524 70.3526ZM405.592 63.4896C405.515 61.9795 405.253 60.4845 404.813 59.0379C404.392 57.6364 403.699 56.3316 402.773 55.1984C401.813 54.0473 400.626 53.1065 399.286 52.4346C397.652 51.6659 395.859 51.2971 394.055 51.3588C392.276 51.3121 390.508 51.6606 388.88 52.379C387.502 53.0163 386.275 53.9394 385.282 55.0871C384.302 56.2411 383.547 57.5686 383.056 59.0008C382.537 60.4653 382.152 61.9739 381.906 63.5081H405.592V63.4896ZM474.816 54.1226C473.208 53.7269 471.353 53.3064 469.251 52.8613C466.955 52.406 464.618 52.1823 462.277 52.1935C460.93 52.209 459.586 52.3081 458.252 52.4903C457.056 52.6228 455.871 52.846 454.709 53.158V101.384H436.791V41.6023C440.49 40.3477 444.255 39.295 448.069 38.449C452.863 37.4028 457.759 36.8988 462.666 36.9466C463.631 36.9466 464.793 37.0084 466.153 37.1321C467.514 37.2557 468.874 37.4165 470.234 37.6143C471.594 37.8122 472.955 38.0595 474.315 38.3563C475.507 38.5864 476.674 38.928 477.802 39.3764L474.816 54.1226ZM487.429 40.4337C491.302 39.3761 495.235 38.5523 499.207 37.9668C504.221 37.1873 509.287 36.8028 514.361 36.8167C518.936 36.6818 523.496 37.3988 527.809 38.9313C531.105 40.1439 534.027 42.1963 536.286 44.8854C538.424 47.5617 539.945 50.6782 540.737 54.0113C541.654 57.8691 542.097 61.8245 542.054 65.7896V101.514H524.118V67.9412C524.118 62.1665 523.357 58.0858 521.836 55.6992C520.315 53.3002 517.471 52.1008 513.304 52.1008C512.067 52.1008 510.707 52.1626 509.223 52.2863C507.739 52.4099 506.459 52.5521 505.384 52.7129V101.496H487.466V40.4337H487.429ZM555.224 70.3526C555.116 65.3224 555.992 60.3196 557.802 55.625C559.339 51.7009 561.648 48.1247 564.591 45.108C567.329 42.3763 570.599 40.2361 574.199 38.82C577.774 37.3891 581.589 36.6526 585.439 36.6498C594.417 36.6498 601.509 39.395 606.715 44.8854C611.908 50.3757 614.505 58.4506 614.505 69.1098C614.505 70.1485 614.462 71.2924 614.375 72.5413C614.289 73.7779 614.208 74.8784 614.134 75.8429H573.513C573.671 77.5974 574.218 79.2946 575.113 80.8119C576.008 82.3293 577.229 83.6287 578.688 84.6164C582.336 86.95 586.623 88.0849 590.948 87.8624C594.197 87.8639 597.439 87.5596 600.631 86.9535C603.289 86.5006 605.89 85.7541 608.384 84.7277L610.795 99.2698C609.558 99.8572 608.273 100.341 606.956 100.717C605.199 101.234 603.416 101.655 601.614 101.978C599.635 102.349 597.533 102.658 595.307 102.905C593.071 103.142 590.823 103.26 588.574 103.258C583.512 103.367 578.476 102.511 573.735 100.735C569.784 99.2226 566.212 96.8608 563.274 93.8165C560.492 90.8261 558.413 87.2519 557.19 83.3551C555.838 79.1611 555.168 74.7774 555.205 70.3711L555.224 70.3526ZM597.292 63.4896C597.215 61.9795 596.953 60.4845 596.513 59.0379C596.092 57.6364 595.398 56.3316 594.472 55.1984C593.512 54.0473 592.325 53.1065 590.985 52.4346C589.352 51.6659 587.559 51.2971 585.755 51.3588C583.975 51.3115 582.208 51.66 580.58 52.379C579.202 53.0163 577.975 53.9394 576.981 55.0871C576.001 56.2408 575.246 57.5684 574.755 59.0008C574.236 60.4651 573.851 61.9738 573.605 63.5081H597.292V63.4896ZM627.804 22.4972L645.722 19.6037V38.1522H667.239V52.9911H645.722V75.2494C645.575 78.3769 646.26 81.4876 647.707 84.264C649.03 86.4898 651.689 87.6027 655.683 87.6027C657.679 87.5974 659.672 87.4174 661.637 87.0648C663.535 86.7402 665.398 86.2371 667.202 85.5624L669.724 99.5109C667.379 100.45 664.967 101.213 662.509 101.792C659.311 102.492 656.043 102.815 652.771 102.757C648.637 102.884 644.518 102.21 640.64 100.772C637.645 99.5978 634.997 97.6833 632.942 95.2077C630.949 92.698 629.571 89.757 628.917 86.6197C628.124 82.9637 627.739 79.2313 627.767 75.4905V22.4972H627.804ZM676.773 70.3526C676.665 65.3224 677.541 60.3196 679.351 55.625C680.888 51.7009 683.197 48.1247 686.14 45.108C688.9 42.3678 692.196 40.2271 695.822 38.82C699.397 37.3891 703.212 36.6526 707.062 36.6498C716.04 36.6498 723.132 39.395 728.338 44.8854C733.531 50.3757 736.128 58.432 736.128 69.0542C736.128 70.0929 736.085 71.2367 735.998 72.4857C735.912 73.7222 735.831 74.8228 735.757 75.7873H695.136C695.297 77.5433 695.846 79.2415 696.744 80.759C697.643 82.2764 698.867 83.575 700.329 84.5608C703.978 86.8944 708.265 88.0293 712.59 87.8068C715.839 87.8083 719.08 87.504 722.272 86.8979C724.931 86.445 727.531 85.6984 730.026 84.6721L732.437 99.2141C731.199 99.8016 729.915 100.285 728.597 100.661C726.841 101.178 725.057 101.599 723.255 101.922C721.277 102.293 719.175 102.602 716.949 102.85C714.712 103.087 712.465 103.204 710.216 103.202C705.154 103.312 700.118 102.456 695.377 100.679C691.425 99.1669 687.854 96.8051 684.915 93.7609C682.1 90.7975 679.984 87.2422 678.72 83.3551C677.375 79.1601 676.711 74.7764 676.754 70.3711L676.773 70.3526ZM718.878 63.4896C718.801 61.9795 718.539 60.4845 718.099 59.0379C717.678 57.6364 716.984 56.3316 716.058 55.1984C715.098 54.0473 713.911 53.1065 712.571 52.4346C710.938 51.6659 709.145 51.2971 707.341 51.3588C705.561 51.3115 703.794 51.66 702.166 52.379C700.756 52.9995 699.497 53.9169 698.474 55.0685C697.494 56.2223 696.739 57.5499 696.249 58.9823C695.729 60.4466 695.344 61.9553 695.099 63.4896H718.878ZM768.087 88.6229C770.453 88.7673 772.824 88.4394 775.061 87.6584C775.739 87.322 776.298 86.7863 776.663 86.1232C777.028 85.4601 777.181 84.7013 777.102 83.9487C777.024 83.152 776.738 82.3898 776.272 81.7387C775.807 81.0875 775.178 80.5703 774.449 80.239C771.88 78.7682 769.186 77.5268 766.399 76.5292C763.799 75.5773 761.248 74.4939 758.757 73.2832C756.615 72.2584 754.649 70.8998 752.933 69.2582C751.324 67.6803 750.061 65.7854 749.223 63.6936C748.285 61.1999 747.838 58.5482 747.906 55.8847C747.802 53.1839 748.348 50.4975 749.497 48.051C750.646 45.6046 752.365 43.4695 754.51 41.8249C758.912 38.3625 764.959 36.6313 772.65 36.6313C776.384 36.6142 780.111 36.9559 783.779 37.6514C786.644 38.1549 789.461 38.8995 792.2 39.8773L789.084 53.8258C786.856 53.0871 784.59 52.468 782.295 51.9709C779.59 51.3854 776.828 51.1054 774.06 51.1362C768.446 51.1362 765.639 52.7005 765.639 55.829C765.633 56.4645 765.753 57.0947 765.991 57.6839C766.32 58.3419 766.82 58.8992 767.438 59.2976C768.372 59.9419 769.358 60.5066 770.387 60.9855C771.624 61.6038 773.207 62.2716 775.136 62.9888C778.481 64.186 781.736 65.6242 784.874 67.292C787.133 68.4766 789.182 70.0244 790.939 71.8735C792.373 73.4353 793.438 75.2989 794.055 77.3268C794.694 79.589 795.001 81.9321 794.964 84.2825C795.115 87.0479 794.547 89.8052 793.315 92.2855C792.083 94.7659 790.229 96.8846 787.934 98.4351C783.235 101.625 776.607 103.233 768.05 103.258C763.34 103.354 758.636 102.868 754.046 101.811C751.407 101.194 748.816 100.388 746.293 99.3996L749.297 84.8575C752.336 86.0569 755.469 87 758.665 87.6769C761.764 88.319 764.922 88.6361 768.087 88.6229Z" fill="black"/>
</svg>
