<svg width="895" height="99" viewBox="0 0 895 99" fill="none" xmlns="http://www.w3.org/2000/svg">
<g clip-path="url(#clip0_362_1852)">
<path d="M357.523 1.14062L325.638 42.9193L293.974 1.14062H279.327V97.8721H292.847V21.6022L325.644 64.9396L358.656 21.6022V97.8721H372.176V1.14062H357.523Z" fill="#001021"/>
<path d="M405.948 1.14062H392.434V97.872H405.948V1.14062Z" fill="#001021"/>
<mask id="mask0_362_1852" style="mask-type:luminance" maskUnits="userSpaceOnUse" x="0" y="0" width="895" height="99">
<path d="M895 0H0V99H895V0Z" fill="white"/>
</mask>
<g mask="url(#mask0_362_1852)">
<path d="M439.727 48.4385H461.315C467.481 49.1472 473.676 47.3838 478.546 43.5339C481.71 40.0689 483.376 35.4925 483.181 30.803C483.181 18.9532 475.703 13.0389 460.745 13.06H439.72L439.727 48.4385ZM426.213 97.8656V1.13443H461.885C471.013 0.615752 480.036 3.30521 487.393 8.73829C490.517 11.3768 492.985 14.7073 494.601 18.4655C496.217 22.2238 496.936 26.3066 496.702 30.3911C497.066 37.2368 494.856 43.9709 490.508 49.2685C486.41 53.9213 481.034 57.2646 475.05 58.8816L500.736 97.8783H484.809L461.46 61.0553H439.733V97.8783L426.213 97.8656Z" fill="#001021"/>
<path d="M552.587 17.9843L567.95 58.1344H537.231L552.587 17.9843ZM546.077 1.13477L507.505 97.8663H522.013L532.418 70.7445H572.763L583.161 97.8663H597.669L559.243 1.13477H546.077Z" fill="#001021"/>
<path d="M677.303 1.14095V78.114L623.241 1.13477H607.878V97.8659H621.398V20.3923L675.859 97.8659H690.791V1.13477L677.303 1.14095Z" fill="#001021"/>
<path d="M706.306 1.14062V13.7446H738.717V97.8721H752.237V13.7446H784.856V1.14062H706.306Z" fill="#001021"/>
<path d="M813.91 1.14062H800.396V97.872H813.91V1.14062Z" fill="#001021"/>
<path d="M830.027 27.2611C829.972 23.6453 830.676 20.0582 832.094 16.7321C833.512 13.406 835.613 10.415 838.259 7.95287C845.419 2.08644 854.577 -0.765322 863.799 0.000141435C872.448 -0.00687361 880.979 2.00914 888.712 5.88714V19.0361C881.697 14.7654 873.631 12.5379 865.42 12.6041C850.821 12.6041 843.522 17.4898 843.522 27.2611C843.563 28.6309 843.935 29.9706 844.605 31.1655C845.276 32.3605 846.225 33.3755 847.372 34.1239C850.24 36.229 853.455 37.8141 856.871 38.8069C860.637 39.9771 864.764 41.4915 869.251 43.3503C873.492 45.0886 877.63 47.0692 881.644 49.2818C885.546 51.4926 888.816 54.6667 891.143 58.5015C893.741 62.7576 895.061 67.6721 894.943 72.658C895.103 76.4005 894.34 80.1248 892.721 83.5022C891.102 86.8797 888.677 89.8065 885.659 92.0235C878.097 97.07 869.099 99.5166 860.025 98.9939C850.031 98.921 840.188 96.5512 831.255 92.0676V78.1648C839.494 83.436 849.044 86.2899 858.822 86.4026C873.847 86.4026 881.381 81.8273 881.423 72.677C881.504 68.9724 880.141 65.382 877.623 62.6651C875.04 59.8785 871.778 57.8106 868.156 56.664L855.725 52.4436C851.208 50.8721 847.066 49.2627 843.3 47.6152C839.502 45.9518 836.221 43.2968 833.801 39.9285C831.174 36.2363 829.826 31.7853 829.964 27.2549" fill="#001021"/>
<path d="M65.2012 37.4127C78.8125 42.1426 91.2131 49.8193 101.519 59.8956C111.17 54.4966 120.713 48.8951 130.256 43.6165C133.528 41.8042 136.794 40.0976 140.053 38.4965C136.773 35.6069 133.486 32.7299 130.041 30.0684C117.358 20.0747 101.973 14.115 85.8708 12.9589C70.1417 12.0903 54.4021 14.4664 39.629 19.9397C24.856 25.4131 11.3648 33.8668 -0.00646973 44.776C9.77531 39.126 20.6178 35.5581 31.8415 34.2954C43.0653 33.0327 54.4288 34.1027 65.2202 37.4383" fill="#001021"/>
<path d="M165.276 56.5881C159.817 54.0759 154.708 50.8637 150.077 47.0322C139.673 52.8114 129.401 58.8631 119.136 64.5408C116.761 65.8526 114.387 67.1071 112.019 68.3428C114.821 70.4523 117.729 72.4173 120.732 74.2298C159.418 97.4225 212.739 84.6793 244.105 54.2563C220.288 68.9133 190.227 67.5636 165.289 56.6136" fill="#001021"/>
<path d="M230.015 16.5516C194.227 14.468 158.611 22.9088 127.559 40.8341C91.4627 60.795 55.24 85.4578 13.9637 86.0535C49.7574 88.1347 85.3772 79.6893 116.432 61.7583C152.528 41.7973 188.751 17.1345 230.027 16.5389" fill="#EF2369"/>
</g>
</g>
<defs>
<clipPath id="clip0_362_1852">
<rect width="895" height="99" fill="white"/>
</clipPath>
</defs>
</svg>
