<svg width="783" height="99" viewBox="0 0 783 99" fill="none" xmlns="http://www.w3.org/2000/svg">
<g clip-path="url(#clip0_358_1914)">
<path d="M350.08 20.8283H310.796C310.759 20.8283 310.737 20.8578 310.737 20.8872V97.5179C310.737 98.3286 310.075 98.992 309.266 98.992H290.29C289.481 98.992 288.819 98.3286 288.819 97.5179V20.8872C288.819 20.8504 288.79 20.8283 288.76 20.8283H249.587C248.778 20.8283 248.116 20.1649 248.116 19.3542V2.19576C248.116 1.38501 248.778 0.721668 249.587 0.721668H350.08C350.889 0.721668 351.55 1.38501 351.55 2.19576V19.3542C351.55 20.1649 350.896 20.8283 350.08 20.8283ZM629.179 0.721668H610.203C609.394 0.721668 608.732 1.38501 608.732 2.19576V97.5253C608.732 98.336 609.394 98.9994 610.203 98.9994H629.179C629.988 98.9994 630.65 98.336 630.65 97.5253V2.19576C630.65 1.37764 629.988 0.721668 629.179 0.721668ZM782.53 96.6113C782.956 96.9799 783.11 97.5842 782.912 98.1149C782.713 98.6456 782.206 98.9994 781.64 98.9994H752.414C752.09 98.9994 751.774 98.8814 751.524 98.6677L719.416 70.8147C719.122 70.5568 718.945 70.1809 718.945 69.7902C718.945 69.3922 719.115 69.0237 719.416 68.7657L734.025 56.0886C734.533 55.6463 735.29 55.6463 735.797 56.0886L782.53 96.6113ZM734.04 43.6325C734.297 43.8536 734.614 43.9641 734.93 43.9641C735.246 43.9641 735.562 43.8536 735.819 43.6325L782.537 3.10233C782.963 2.7338 783.118 2.12943 782.919 1.59875C782.721 1.06808 782.213 0.714297 781.647 0.714297H752.421C752.098 0.714297 751.782 0.832225 751.532 1.04597L719.423 28.8989C719.129 29.1569 718.953 29.5328 718.953 29.9234C718.953 30.3214 719.122 30.69 719.423 30.9479L734.04 43.6325ZM727.923 49.8605C727.923 49.4625 727.754 49.094 727.452 48.836L672.375 1.05334C672.132 0.839595 671.816 0.721668 671.485 0.721668H642.259C641.693 0.721668 641.186 1.07545 640.987 1.60612C640.789 2.1368 640.943 2.7338 641.37 3.1097L695.212 49.8163C695.241 49.8384 695.241 49.8826 695.212 49.9121L641.37 96.6187C640.943 96.9872 640.789 97.5916 640.987 98.1223C641.186 98.653 641.693 99.0067 642.259 99.0067H671.485C671.809 99.0067 672.125 98.8888 672.375 98.6751L727.452 50.8924C727.754 50.627 727.923 50.2512 727.923 49.8605ZM21.9177 32.6652C21.9177 32.6136 21.9765 32.5842 22.0133 32.6136C24.8954 35.2007 90.4867 94.0759 93.6483 96.5671C96.4422 98.7635 99.6699 100.127 103.876 99.5079C109.316 98.8446 115.301 94.1865 115.301 86.3443V2.19576C115.301 1.38501 114.64 0.721668 113.831 0.721668H94.8541C94.0453 0.721668 93.3836 1.38501 93.3836 2.19576V66.9895C93.3836 67.0411 93.3248 67.0705 93.288 67.0411C90.4058 64.454 24.8145 5.5788 21.653 3.08758C18.8591 0.891188 15.6313 -0.472347 11.4257 0.146772C5.9849 0.810113 0 5.47561 0 13.3104V97.5179C0 98.3286 0.661721 98.992 1.47049 98.992H20.4472C21.256 98.992 21.9177 98.3286 21.9177 97.5179V32.6652ZM503.614 32.6652C503.614 32.6136 503.673 32.5842 503.71 32.6136C506.592 35.2007 572.183 94.0759 575.345 96.5671C578.139 98.7635 581.366 100.127 585.572 99.5079C591.013 98.8446 596.998 94.1865 596.998 86.3443V2.19576C596.998 1.38501 596.336 0.721668 595.527 0.721668H576.55C575.742 0.721668 575.08 1.38501 575.08 2.19576V66.9895C575.08 67.0411 575.021 67.0705 574.984 67.0411C572.102 64.454 506.511 5.5788 503.349 3.08758C500.555 0.891188 497.328 -0.472347 493.122 0.146772C487.681 0.810113 481.696 5.47561 481.696 13.3104V97.5179C481.696 98.3286 482.358 98.992 483.167 98.992H502.144C502.952 98.992 503.614 98.3286 503.614 97.5179V32.6652ZM188.017 100.945C199.84 100.916 213.015 100.245 221.103 95.4615C231.867 89.0935 237.102 80.2489 237.102 68.4341L237.109 2.19576C237.109 1.38501 236.448 0.721668 235.639 0.721668H216.478C215.67 0.721668 215.008 1.38501 215.008 2.19576L215.001 67.1442C214.817 80.072 198.84 80.2047 187.311 80.2047H176.834C165.305 80.2047 149.336 80.0794 149.145 67.1442L149.137 2.19576C149.137 1.38501 148.476 0.721668 147.667 0.721668H128.506C127.697 0.721668 127.036 1.38501 127.036 2.19576L127.043 68.4341C127.043 80.2489 132.278 89.0935 143.042 95.4615C151.13 100.245 164.305 100.923 176.128 100.945H188.017ZM472.66 96.7809C472.962 97.2083 472.998 97.7685 472.763 98.2402C472.528 98.7045 472.05 98.9994 471.528 98.9994H448.096C447.625 98.9994 447.184 98.7709 446.912 98.3802L433.244 78.7896C433.229 78.7748 433.214 78.7601 433.192 78.7601H362.932C362.91 78.7601 362.895 78.7675 362.881 78.7896L349.161 98.4023C348.904 98.7782 348.477 98.9994 348.029 98.9994H324.596C324.074 98.9994 323.596 98.7045 323.361 98.2402C323.126 97.7759 323.163 97.2083 323.464 96.7809C323.464 96.7809 383.056 11.512 386.732 6.41903C390.408 1.32605 394.106 -0.000637196 398.092 -0.000637196C402.481 -0.000637196 405.87 1.64298 409.135 6.0284L472.66 96.7809ZM418.973 58.5577L398.121 28.9653C398.099 28.9284 398.047 28.9284 398.018 28.9653L377.159 58.5577C377.13 58.6019 377.159 58.6535 377.211 58.6535H418.921C418.972 58.6535 419.002 58.5945 418.973 58.5577Z" fill="#131313"/>
</g>
<defs>
<clipPath id="clip0_358_1914">
<rect width="783" height="99" fill="white"/>
</clipPath>
</defs>
</svg>
