<svg width="555" height="119" viewBox="0 0 555 119" fill="none" xmlns="http://www.w3.org/2000/svg">
<path d="M174.5 17.9958L172.618 6.62585C172.009 2.96838 170.578 0 169.464 0C168.325 0 167.424 3.02139 167.424 6.73186V9.70024C167.424 13.3842 164.402 16.4321 160.692 16.4321H157.723C157.511 16.4321 157.299 16.4321 157.087 16.4586V24.6216C157.299 24.6216 157.511 24.6481 157.723 24.6481H168.908C172.592 24.6216 175.11 21.6533 174.5 17.9958Z" fill="#2453FF"/>
<path d="M147.705 8.37507H129.577C129.418 8.37507 129.286 8.37507 129.126 8.40157H110.521C110.309 8.40157 110.097 8.42808 109.885 8.45458V6.73186C109.885 3.04789 108.957 0 107.844 0C106.705 0 105.3 2.99488 104.69 6.62585L102.809 17.9958C102.199 21.6533 104.717 24.6217 108.427 24.6217H119.612C120.751 24.6217 121.838 24.4361 122.792 24.1181C122.448 26.0263 120.778 27.4575 118.764 27.4575H103.1C100.556 27.4575 98.6476 25.1782 99.0451 22.6869L100.635 13.1722C101.059 10.6809 99.1247 8.40157 96.5803 8.40157H18.5809C16.9111 8.40157 15.48 9.3822 14.8439 10.8134L0.161007 33.1557C-0.0775232 33.5268 -0.051018 34.0304 0.240519 34.3749L3.10288 37.7408C3.44743 38.1649 4.08351 38.2179 4.50756 37.8733L14.4993 30.0018V77.814C14.4993 80.0932 16.3281 81.922 18.6074 81.922H40.7377C43.017 81.922 44.8457 80.0932 44.8457 77.814V61.1963C44.8457 58.9435 46.6744 57.0883 48.9537 57.0883H104.213C106.493 57.0883 108.321 58.917 108.321 61.1963V77.814C108.321 80.0932 110.15 81.922 112.429 81.922H134.56C136.812 81.922 138.668 80.0932 138.668 77.814V59.9242H126.9C123.216 59.9242 120.168 56.9028 120.168 53.1923V41.6898C120.168 39.49 121.228 37.5553 122.872 36.3361V50.0649C122.872 53.7489 125.893 56.7968 129.604 56.7968H147.732C151.416 56.7968 154.464 53.7754 154.464 50.0649V15.1069C154.437 11.423 151.416 8.37507 147.705 8.37507Z" fill="#2453FF"/>
<path d="M531.236 118.681C528.692 118.681 526.624 116.614 526.624 114.069V100.367C526.624 97.8228 528.692 95.7555 531.236 95.7555H541.758C542.579 95.7555 543.242 96.4181 543.242 97.2397C543.242 98.0613 542.579 98.7239 541.758 98.7239H531.236C530.335 98.7239 529.593 99.466 529.593 100.367V105.747H539.902C540.671 105.747 541.307 106.383 541.307 107.152C541.307 107.921 540.671 108.557 539.902 108.557H529.593V114.043C529.593 114.944 530.335 115.686 531.236 115.686H541.758C542.579 115.686 543.242 116.349 543.242 117.17C543.242 117.992 542.579 118.654 541.758 118.654H531.236V118.681ZM484.113 118.973C481.091 118.973 478.759 118.204 477.169 116.693C475.605 115.183 474.81 112.903 474.81 109.908V97.1602C474.81 96.2061 475.579 95.4375 476.533 95.4375C477.487 95.4375 478.256 96.2061 478.256 97.1602V109.431C478.256 111.658 478.733 113.327 479.687 114.387C480.641 115.448 482.125 116.004 484.113 116.004C486.101 116.004 487.585 115.448 488.539 114.387C489.493 113.327 489.97 111.658 489.97 109.431V97.1602C489.97 96.2061 490.739 95.4375 491.693 95.4375C492.647 95.4375 493.416 96.2061 493.416 97.1602V109.908C493.416 112.877 492.62 115.156 491.057 116.693C489.467 118.204 487.134 118.973 484.113 118.973ZM510.113 118.973C506.217 118.973 503.248 117.859 501.287 115.686C500.73 115.05 500.757 114.069 501.367 113.46C501.685 113.142 502.082 112.983 502.533 112.983C503.01 112.983 503.434 113.168 503.725 113.539C504.282 114.175 504.891 114.679 505.581 115.077C506.773 115.739 508.284 116.084 510.06 116.084C511.756 116.084 513.081 115.792 514.062 115.209C515.069 114.599 515.572 113.751 515.572 112.638C515.572 111.737 515.122 110.995 514.221 110.465C513.346 109.935 511.862 109.484 509.689 109.087C507.568 108.689 505.872 108.212 504.626 107.629C503.407 107.072 502.506 106.357 501.95 105.509C501.393 104.687 501.128 103.654 501.128 102.434C501.128 101.162 501.473 99.9961 502.188 98.9359C502.904 97.9023 503.937 97.0542 505.263 96.4446C506.614 95.835 508.204 95.517 509.98 95.517C512.074 95.517 513.876 95.8881 515.36 96.6567C516.341 97.1602 517.242 97.8758 518.037 98.7239C518.647 99.3865 518.567 100.42 517.905 101.03C517.613 101.295 517.216 101.454 516.818 101.454C516.314 101.454 515.837 101.215 515.519 100.818C515.069 100.235 514.565 99.7841 514.035 99.413C513.028 98.7769 511.676 98.4324 510.007 98.4324C508.363 98.4324 507.065 98.7769 506.164 99.4395C505.236 100.102 504.759 100.977 504.759 102.037C504.759 103.017 505.21 103.813 506.137 104.396C507.012 104.952 508.549 105.429 510.828 105.853C512.896 106.224 514.539 106.701 515.758 107.258C516.951 107.815 517.825 108.504 518.382 109.352C518.912 110.173 519.203 111.207 519.203 112.426C519.203 113.751 518.832 114.917 518.09 115.898C517.348 116.905 516.261 117.674 514.91 118.204C513.505 118.707 511.915 118.973 510.113 118.973ZM458.299 118.999C454.403 118.999 451.434 117.886 449.473 115.713C448.916 115.077 448.943 114.096 449.552 113.486C449.87 113.168 450.268 113.009 450.719 113.009C451.196 113.009 451.62 113.195 451.911 113.566C452.468 114.202 453.077 114.705 453.766 115.103C454.959 115.766 456.47 116.11 458.246 116.11C459.942 116.11 461.267 115.819 462.248 115.236C463.255 114.626 463.758 113.778 463.758 112.665C463.758 111.764 463.308 111.021 462.407 110.491C461.532 109.961 460.048 109.511 457.874 109.113C455.781 108.716 454.058 108.239 452.812 107.656C451.593 107.072 450.666 106.383 450.136 105.535C449.579 104.714 449.314 103.68 449.314 102.461C449.314 101.189 449.658 100.023 450.374 98.9624C451.09 97.9288 452.123 97.0807 453.448 96.4711C454.8 95.8616 456.364 95.5435 458.166 95.5435C460.26 95.5435 462.062 95.9146 463.546 96.6832C464.553 97.1867 465.428 97.9023 466.223 98.7504C466.833 99.413 466.753 100.447 466.091 101.056C465.799 101.321 465.401 101.48 465.004 101.48C464.5 101.48 464.023 101.242 463.705 100.844C463.255 100.261 462.751 99.8106 462.221 99.4395C461.214 98.8034 459.862 98.4589 458.193 98.4589C456.549 98.4589 455.251 98.8034 454.35 99.466C453.422 100.129 452.945 101.03 452.945 102.063C452.945 103.044 453.395 103.839 454.323 104.422C455.198 104.979 456.735 105.456 459.014 105.88C461.081 106.251 462.725 106.728 463.944 107.285C465.136 107.841 466.011 108.557 466.568 109.378C467.098 110.2 467.389 111.234 467.389 112.453C467.389 113.778 467.018 114.944 466.276 115.925C465.534 116.932 464.447 117.7 463.096 118.23C461.691 118.707 460.101 118.999 458.299 118.999Z" fill="black"/>
<path d="M405.16 118.973H396.387V95.4375H404.815C409.771 95.4375 412.263 98.1408 412.263 101.401C412.263 104.369 410.407 106.092 408.154 106.834C410.725 107.285 412.819 109.749 412.819 112.638C412.819 116.216 410.036 118.973 405.16 118.973ZM404.55 97.9818H399.461V105.615H404.63C407.492 105.615 409.162 104.21 409.162 101.798C409.162 99.466 407.571 97.9818 404.55 97.9818ZM404.789 108.133H399.461V116.428H404.895C407.942 116.428 409.745 114.917 409.745 112.347C409.745 109.776 407.81 108.133 404.789 108.133Z" fill="black"/>
<path d="M416.821 95.4375H420.24L426.044 107.364L431.848 95.4375H435.267L427.608 110.094V118.973H424.533V110.094L416.821 95.4375Z" fill="black"/>
<path d="M189.395 10.708H214.335C226.182 10.708 234.159 16.4592 234.159 27.5642C234.159 36.6283 227.984 42.088 221.968 43.9698C223.77 45.5069 225.095 47.5477 226.182 49.721C228.7 54.8361 230.396 60.4814 235.696 60.4814C237.048 60.4814 238.108 60.0308 238.108 60.0308L236.942 70.7117C236.942 70.7117 233.709 71.5068 230.926 71.5068C223.743 71.5068 219.635 68.7239 215.421 59.1297C213.619 54.8361 211.128 47.2827 207.788 47.2827H204.369V71.2152H189.395V10.708ZM204.369 21.5479V36.4428H209.75C214.043 36.4428 219.079 35.0911 219.079 28.6508C219.079 23.3501 215.66 21.5744 211.552 21.5744H204.369V21.5479Z" fill="black"/>
<path d="M254.382 10.708H269.542L289.976 71.2417H274.816L271.052 59.7658H250.777L247.093 71.2417H234L254.382 10.708ZM254.382 48.6344H267.395L263.26 35.9127C261.829 31.6192 261.193 25.5234 261.193 25.5234H260.822C260.822 25.5234 259.921 31.6987 258.569 35.8332L254.382 48.6344Z" fill="black"/>
<path d="M290.611 10.708H306.672L322.548 40.7363C323.9 43.3337 325.675 47.9188 327.133 51.4967H327.504C327.319 48.0778 326.868 43.2542 326.868 39.7557V10.708H339.139V71.2417H323.449L306.964 41.2929C305.427 38.5896 303.837 34.6671 302.564 31.4337H302.193C302.458 34.8526 302.909 38.8811 302.909 42.194V71.2417H290.611V10.708Z" fill="black"/>
<path d="M342.319 40.5505C342.319 18.6852 353.159 9.62109 369.936 9.62109C387.587 9.62109 394.69 19.2948 392.702 32.3875L378.708 33.6332C380.246 24.0389 376.456 20.1959 369.644 20.1959C363.098 20.1959 357.797 25.0461 357.797 40.6301C357.797 57.1417 363.549 61.3557 370.068 61.3557C376.244 61.3557 381.279 57.4862 380.193 49.6147L393.285 50.9664C394.266 63.2374 385.387 72.3016 369.247 72.3016C352.921 72.3016 342.319 62.6279 342.319 40.5505Z" fill="black"/>
<path d="M396.387 10.708H411.361V33.5804H429.755V10.708H444.729V71.2417H429.755V45.5865H411.361V71.2417H396.387V10.708Z" fill="black"/>
<path d="M450.719 10.708H490.792V21.8129H465.693V34.8261H486.763V45.931H465.693V60.1103H491.693V71.2417H450.719V10.708Z" fill="black"/>
<path d="M494.555 10.708H519.495C531.342 10.708 539.319 16.4592 539.319 27.5642C539.319 36.6283 533.144 42.088 527.128 43.9698C528.93 45.5069 530.255 47.5477 531.342 49.721C533.86 54.8361 535.556 60.4814 540.857 60.4814C542.208 60.4814 543.268 60.0308 543.268 60.0308L542.102 70.7117C542.102 70.7117 538.869 71.5068 536.086 71.5068C528.904 71.5068 524.796 68.7239 520.582 59.1297C518.779 54.8361 516.288 47.2827 512.949 47.2827H509.53V71.2152H494.555V10.708ZM509.53 21.5479V36.4428H514.91C519.203 36.4428 524.239 35.0911 524.239 28.6508C524.239 23.3501 520.82 21.5744 516.712 21.5744H509.53V21.5479Z" fill="black"/>
<path d="M544.806 14.5242C544.806 11.1053 547.35 9.62109 549.683 9.62109C552.041 9.62109 554.559 11.0788 554.559 14.5242C554.559 17.8636 552.015 19.3478 549.683 19.3478C547.324 19.3478 544.806 17.8902 544.806 14.5242ZM553.393 14.4977C553.393 11.8209 551.644 10.6547 549.683 10.6547C547.721 10.6547 545.919 11.8209 545.919 14.4977C545.919 17.1481 547.721 18.3142 549.683 18.3142C551.644 18.3142 553.393 17.1746 553.393 14.4977ZM548.066 12.0859H549.789C550.663 12.0859 551.538 12.3244 551.538 13.5701C551.538 14.3122 551.061 14.7097 550.398 14.8423L551.538 16.8035H550.478L549.418 14.8953H548.993V16.8035H548.039V12.0859H548.066ZM549.868 14.2327C550.266 14.2327 550.61 13.9942 550.61 13.5436C550.61 13.04 550.213 12.9075 549.868 12.9075H549.02V14.2327H549.868Z" fill="black"/>
</svg>
