<svg width="525" height="124" viewBox="0 0 525 124" fill="none" xmlns="http://www.w3.org/2000/svg">
<path d="M108.762 71.0886C119.478 71.0886 134.982 68.8786 134.982 56.1325C135.014 55.1488 134.925 54.1649 134.716 53.203L128.335 25.4836C126.861 19.3847 125.568 16.6179 114.861 11.2642C106.552 7.01549 88.4518 0 83.0981 0C78.1127 0 76.6651 6.42445 70.7203 6.42445C64.9983 6.42445 60.7496 1.62753 55.3959 1.62753C50.2563 1.62753 46.907 5.13099 44.3201 12.3349C44.3201 12.3349 37.1162 32.6533 36.191 35.6C36.044 36.1411 35.9805 36.7015 36.0026 37.2618C36.0026 45.1596 67.0969 71.0544 108.762 71.0544M136.627 61.3063C138.108 68.3218 138.108 69.0585 138.108 69.9836C138.108 81.9759 124.626 88.6317 106.903 88.6317C66.8485 88.6574 31.7625 65.1867 31.7625 49.6738C31.7602 47.5145 32.2004 45.3776 33.0559 43.395C18.648 44.1145 0 46.6843 0 63.148C0 90.1136 63.8933 123.349 114.484 123.349C153.27 123.349 163.052 105.806 163.052 91.9552C163.052 81.0594 153.63 68.6902 136.644 61.3063" fill="#EE0000"/>
<path d="M136.627 61.3061C138.108 68.3216 138.108 69.0583 138.108 69.9834C138.108 81.9757 124.626 88.6315 106.903 88.6315C66.8485 88.6572 31.7625 65.1865 31.7625 49.6736C31.7601 47.5143 32.2003 45.3774 33.0559 43.3948L36.191 35.6341C36.0474 36.1641 35.9839 36.7127 36.0026 37.2616C36.0026 45.1594 67.0969 71.0542 108.762 71.0542C119.478 71.0542 134.982 68.8442 134.982 56.0981C135.014 55.1143 134.925 54.1304 134.716 53.1685L136.627 61.3061ZM496.173 79.0633C496.173 89.2482 502.297 94.1993 513.467 94.1993C516.906 94.1137 520.324 93.6308 523.652 92.7602V80.9478C521.525 81.6219 519.305 81.9573 517.074 81.9415C512.474 81.9415 510.769 80.5024 510.769 76.1766V58.0768H524.098V45.9132H510.769V30.4945L496.207 33.6468V45.9132H486.536V58.0768H496.173V79.0633ZM450.773 79.3374C450.773 76.1852 453.934 74.6519 458.705 74.6519C461.622 74.6688 464.526 75.0311 467.357 75.7312V81.8558C464.567 83.3797 461.43 84.1558 458.251 84.1086C453.574 84.1086 450.773 82.3098 450.773 79.3374ZM455.228 94.3792C460.367 94.3792 464.513 93.2999 468.385 90.6873V93.574H482.793V63.0279C482.793 51.4125 474.964 45.0395 461.901 45.0395C454.602 45.0395 447.39 46.7526 439.629 50.2647L444.854 60.9892C450.439 58.6421 455.133 57.2031 459.271 57.2031C465.267 57.2031 468.368 59.5416 468.368 64.3214V66.6599C464.838 65.746 461.204 65.2911 457.558 65.3064C445.3 65.3064 437.916 70.446 437.916 79.6372C437.916 88.0147 444.58 94.4049 455.211 94.4049L455.228 94.3792ZM376.027 93.5997H391.523V68.887H417.469V93.574H433.008V30.5116H417.529V54.7447H391.583V30.5116H376.087L376.027 93.5997ZM317.042 69.7008C317.042 62.848 322.447 57.6228 329.565 57.6228C333.269 57.5477 336.865 58.8687 339.639 61.3233V77.984C338.295 79.2539 336.713 80.2452 334.984 80.9009C333.255 81.5566 331.414 81.8637 329.565 81.8044C322.541 81.8044 317.042 76.5792 317.042 69.735V69.7008ZM339.836 93.6083H354.253V27.3594L339.69 30.5116V48.4401C335.983 46.3385 331.788 45.2513 327.527 45.2879C313.659 45.2879 302.754 56.0038 302.754 69.7008C302.714 72.9146 303.315 76.1041 304.521 79.0832C305.728 82.0623 307.515 84.7712 309.78 87.0519C312.045 89.3325 314.741 91.1392 317.712 92.3663C320.682 93.5935 323.867 94.2166 327.081 94.1993C331.677 94.2212 336.159 92.7713 339.87 90.062L339.836 93.6083ZM273.681 56.9632C278.273 56.9632 282.145 59.9356 283.678 64.5269H263.805C265.244 59.79 268.85 56.9632 273.681 56.9632ZM249.123 69.8121C249.123 83.6889 260.473 94.4991 275.06 94.4991C283.078 94.4991 288.937 92.3319 294.976 87.2866L285.331 78.7207C283.078 81.0677 279.746 82.3269 275.789 82.3269C273.3 82.397 270.849 81.7119 268.757 80.3618C266.665 79.0117 265.031 77.0599 264.07 74.7632H298.034V71.1398C298.034 56.0038 287.858 45.108 273.981 45.108C270.719 45.0588 267.48 45.6623 264.455 46.883C261.429 48.1037 258.678 49.9171 256.364 52.2163C254.05 54.5156 252.218 57.2545 250.978 60.2718C249.737 63.2892 249.112 66.5241 249.14 69.7864L249.123 69.8121ZM223.999 43.7546C229.139 43.7546 232.017 46.9925 232.017 50.8728C232.017 54.7532 229.139 57.9911 223.999 57.9911H208.675V43.7546H223.999ZM193.162 93.574H208.657V70.6002H220.453L232.351 93.574H249.697L235.82 68.3473C239.347 66.9131 242.363 64.4564 244.482 61.2934C246.601 58.1304 247.725 54.4058 247.709 50.5987C247.709 39.2489 238.792 30.5116 225.438 30.5116H193.162V93.574Z" fill="black"/>
</svg>
