<svg width="296" height="100" viewBox="0 0 296 100" fill="none" xmlns="http://www.w3.org/2000/svg">
<path d="M108.618 90.9603C99.8195 90.9603 92.9019 84.1034 92.9019 75.3654C92.9019 66.6274 99.8195 59.7705 108.618 59.7705C117.417 59.7705 124.395 66.6274 124.395 75.3654C124.456 84.1034 117.478 90.9603 108.618 90.9603ZM108.618 63.9575C102.368 63.9575 97.5136 68.8726 97.5136 75.3654C97.5136 81.8583 102.368 86.7734 108.618 86.7734C114.868 86.7734 119.783 81.7976 119.783 75.3654C119.783 68.9333 114.929 63.9575 108.618 63.9575Z" fill="#010202"/>
<path d="M128.764 68.4471H133.012V70.5709C134.893 68.9325 137.259 68.083 139.747 68.083C145.997 68.083 150.852 73.0588 150.852 79.4303C150.852 85.7411 145.937 90.7776 139.626 90.7776C137.259 90.7776 134.953 90.0494 133.012 88.593V99.3335H128.703L128.764 68.4471ZM133.072 74.5152V84.4668C134.468 86.0445 136.774 87.076 139.201 87.076C143.449 87.076 146.665 83.86 146.665 79.491C146.665 75.122 143.449 71.9059 139.201 71.9059C136.713 71.9059 134.468 72.8161 133.072 74.5152Z" fill="#010202"/>
<path d="M165.597 90.8382C159.104 90.8382 154.068 85.8624 154.068 79.4303C154.068 73.0588 158.922 68.083 165.112 68.083C171.18 68.083 175.731 73.1195 175.731 79.5516V80.8259H158.376C158.922 84.4668 162.078 87.1974 165.779 87.1367C167.782 87.1974 169.784 86.5299 171.362 85.1949L174.153 87.9256C171.726 89.928 168.692 90.9596 165.597 90.8382ZM158.376 77.6099H171.423C170.755 74.2117 168.206 71.7238 164.99 71.7238C161.714 71.7845 159.044 74.1511 158.376 77.6099Z" fill="#010202"/>
<path d="M179.857 68.4476H184.165V70.6321C185.925 68.8724 188.292 67.9015 190.78 68.0229C195.816 68.0229 199.396 71.5423 199.396 76.6395V90.4747H195.088V77.3677C195.088 73.9089 192.964 71.7851 189.627 71.7851C187.442 71.7244 185.379 72.8166 184.165 74.637V90.4747H179.857V68.4476Z" fill="#010202"/>
<path d="M204.918 82.2829C208.195 85.499 211.593 87.016 215.355 87.016C219.724 87.016 222.698 84.9528 222.698 81.9795C222.698 79.3095 220.999 77.9746 216.569 77.2464L211.533 76.3969C206.011 75.4866 203.28 72.8774 203.28 68.5084C203.28 63.2292 207.71 59.8311 214.445 59.8311C218.875 59.8311 223.123 61.2874 226.642 63.9573L224.154 67.4161C220.877 64.9282 217.601 63.7146 214.263 63.7146C210.319 63.7146 207.71 65.535 207.71 68.205C207.71 70.6929 209.227 71.8458 213.11 72.5133L217.965 73.3022C224.336 74.3337 227.249 77.0037 227.249 81.6761C227.249 87.2587 222.394 90.9602 215.173 90.9602C210.319 90.9602 205.647 89.0184 202.188 85.4989L204.918 82.2829Z" fill="#010202"/>
<path d="M230.829 60.1955L235.137 59.2246V70.6326C236.897 68.8728 239.263 67.9019 241.751 68.0233C246.788 68.0233 250.368 71.5428 250.368 76.64V90.4751H246.06V77.3681C246.06 73.9093 243.936 71.7855 240.598 71.7855C238.414 71.7248 236.351 72.8171 235.137 74.6375V90.4751H230.829V60.1955Z" fill="#010202"/>
<path d="M254.858 62.2578C254.858 60.8015 256.011 59.5879 257.468 59.5879C258.924 59.6486 260.077 60.9229 260.016 62.3792C259.956 63.7748 258.863 64.9278 257.468 64.9278C256.072 64.9278 254.858 63.7142 254.858 62.2578ZM259.713 90.4743H255.405V68.4473H259.713V90.4743Z" fill="#010202"/>
<path d="M268.087 68.4478V65.1104C268.087 60.5593 270.696 58.0107 275.551 58.0107C276.582 58.0107 277.674 58.1321 278.645 58.3748V62.137C277.735 61.8336 276.825 61.7123 275.915 61.7729C273.548 61.7729 272.395 62.8652 272.395 65.1711V68.3871H278.645V72.028H272.395V90.4142H268.087V72.028H262.99V68.3871H268.087V68.4478Z" fill="#010202"/>
<path d="M285.26 72.088H280.587V68.4472H285.26V62.8646L289.507 61.833V68.5079H296V72.1487H289.507V84.0421C289.507 86.2873 290.417 87.1368 292.723 87.1368C293.816 87.1368 294.847 87.0155 295.879 86.5907V90.2315C294.544 90.6563 293.148 90.8383 291.752 90.899C287.444 90.899 285.199 88.8966 285.199 85.0737L285.26 72.088Z" fill="#010202"/>
<path d="M52.7921 34.5273C58.0107 34.5273 65.5351 33.435 65.5351 27.2456C65.5351 26.7602 65.5351 26.2747 65.4137 25.8499L62.319 12.3788C61.5908 9.4055 60.984 8.07052 55.7655 5.46125C51.6999 3.39811 42.9619 0 40.3526 0C37.9254 0 37.1972 3.1554 34.3452 3.1554C31.5539 3.1554 29.4908 0.849534 26.8815 0.849534C24.3936 0.849534 22.7552 2.54859 21.4809 6.06806C21.4809 6.06806 17.9615 15.8983 17.5367 17.3547C17.476 17.5974 17.4153 17.9008 17.4153 18.1435C17.476 21.9664 32.5248 34.5273 52.7921 34.5273ZM66.3239 29.7942C67.0521 33.1923 67.0521 33.5564 67.0521 33.9811C67.0521 39.8065 60.4986 43.0226 51.8819 43.0226C32.4034 43.0226 15.4129 31.6146 15.4129 24.0902C15.4129 23.0586 15.6556 22.0271 16.0197 21.0562C9.04141 21.4203 0 22.6945 0 30.6437C0 43.7507 31.0078 59.8311 55.5834 59.8311C74.3944 59.8311 79.1275 51.3358 79.1275 44.6002C79.1275 39.3817 74.5158 33.3743 66.3239 29.7942Z" fill="#E41814"/>
<path d="M66.3239 29.793C67.052 33.1912 67.052 33.5552 67.052 33.98C67.052 39.8053 60.4985 43.0214 51.8819 43.0214C32.4034 43.0214 15.4128 31.6741 15.4128 24.1497C15.4128 23.1182 15.6556 22.0866 16.0196 21.1157L17.5367 17.3535C17.476 17.5962 17.4153 17.8996 17.4153 18.1424C17.4153 21.9652 32.5248 34.5261 52.7314 34.5261C57.9499 34.5261 65.4743 33.4339 65.4743 27.2445C65.4743 26.759 65.4743 26.2736 65.353 25.8488L66.3239 29.793Z" fill="#010202"/>
<path d="M240.781 38.4107C240.781 43.3258 243.754 45.7531 249.155 45.7531C250.854 45.6924 252.492 45.4497 254.07 45.0249V39.3209C253.038 39.6243 251.946 39.8064 250.854 39.8064C248.609 39.8064 247.82 39.0782 247.82 37.015V28.2164H254.313V22.3303H247.82V14.8666L240.781 16.3836V22.3303H236.108V28.2164H240.781V38.4107ZM218.754 38.5321C218.754 37.015 220.271 36.2869 222.577 36.2869C223.972 36.2869 225.429 36.4689 226.764 36.833V39.8064C225.429 40.5345 223.912 40.8986 222.334 40.8986C220.089 40.8379 218.754 39.9884 218.754 38.5321ZM220.877 45.8744C223.365 45.8744 225.368 45.3283 227.249 44.054V45.4497H234.227V30.6436C234.227 25.0003 230.404 21.9056 224.094 21.9056C220.574 21.9056 217.055 22.7551 213.292 24.4542L215.841 29.6727C218.572 28.5198 220.817 27.8523 222.819 27.8523C225.732 27.8523 227.249 29.0052 227.249 31.3111V32.464C225.55 32.0392 223.79 31.7965 222.03 31.7965C216.084 31.7965 212.504 34.2844 212.504 38.7748C212.504 42.7797 215.72 45.8744 220.877 45.8744ZM182.467 45.4497H189.991V33.4349H202.552V45.389H210.076V14.8059H202.552V26.578H189.991V14.8059H182.467V45.4497ZM153.825 33.8597C153.825 30.5222 156.435 27.9736 159.893 27.9736C161.714 27.913 163.413 28.5804 164.809 29.7941V37.8646C163.474 39.0782 161.714 39.7457 159.893 39.685C156.495 39.7457 153.825 37.1971 153.825 33.8597ZM164.93 45.4497H171.908V13.3496L164.869 14.8666V23.544C163.049 22.5124 161.046 21.9663 158.983 22.0269C152.248 22.0269 146.969 27.2455 146.969 33.8597C146.908 40.3525 152.066 45.6924 158.559 45.7531C158.619 45.7531 158.68 45.7531 158.741 45.7531C160.986 45.7531 163.17 45.0856 164.93 43.7506V45.4497ZM132.83 27.6702C135.075 27.6702 136.956 29.1266 137.684 31.3111H128.036C128.704 29.0659 130.463 27.6702 132.83 27.6702ZM120.876 33.9203C120.876 40.6559 126.398 45.8744 133.437 45.8744C137.32 45.8744 140.172 44.8428 143.085 42.3549L138.413 38.168C137.32 39.3209 135.682 39.9277 133.801 39.9277C131.313 39.9884 129.068 38.5321 128.097 36.2869H144.602V34.5271C144.602 27.1848 139.687 21.9056 132.951 21.9056C126.398 21.7842 120.997 27.0634 120.876 33.6169C120.876 33.7383 120.876 33.799 120.876 33.9203ZM108.679 21.2988C111.167 21.2988 112.563 22.8765 112.563 24.7576C112.563 26.6387 111.167 28.2164 108.679 28.2164H101.276V21.2988H108.679ZM93.6909 45.4497H101.215V34.2844H106.919L112.684 45.4497H121.058L114.322 33.1922C117.842 31.7965 120.087 28.3377 120.087 24.5755C120.087 19.0536 115.779 14.8059 109.286 14.8059H93.6909V45.4497Z" fill="#010202"/>
</svg>
