<svg xmlns="http://www.w3.org/2000/svg" xmlns:xlink="http://www.w3.org/1999/xlink" viewBox="0 0 150 69.53">
 <defs>
  <style>
   .cls-1{fill:#253746;}.cls-2{fill:url(#linear-gradient);}.cls-3{fill:#fff;stroke:#231f20;stroke-miterlimit:10;}
  </style>
  <linearGradient id="linear-gradient" x1="93.71" y1="67.2" x2="71.31" y2="35.21" gradientUnits="userSpaceOnUse">
   <stop offset="0" stop-color="#b1e001">
   </stop>
   <stop offset="0.5" stop-color="#ff6d15">
   </stop>
   <stop offset="1" stop-color="#ff00c0">
   </stop>
  </linearGradient>
 </defs>
 <g id="Layer_1" data-name="Layer 1">
  <path class="cls-1" d="M216.59,105.29h-10.5V52.8h10.5Z" transform="translate(-66.59 -35.77)">
  </path>
  <path class="cls-2" d="M83.62,35.77a17,17,0,1,0,17,17A17,17,0,0,0,83.62,35.77Zm0,26.64a9.62,9.62,0,1,1,9.62-9.62A9.62,9.62,0,0,1,83.62,62.41Z" transform="translate(-66.59 -35.77)">
  </path>
  <polygon class="cls-1" points="101.14 38.04 101.14 17.03 90.63 17.03 90.63 69.52 101.14 69.52 101.14 48.54 111.45 48.54 121.93 38.04 101.14 38.04">
  </polygon>
  <path class="cls-1" d="M108.36,68.53a15.1,15.1,0,0,1,1.24-6.11A16,16,0,0,1,118,54a15.16,15.16,0,0,1,6.12-1.25h31.22L144.9,63.3H124.1a5.21,5.21,0,0,0-4.84,3.18,5.2,5.2,0,0,0-.4,2,5.27,5.27,0,0,0,.4,2.07,5.14,5.14,0,0,0,1.12,1.69,5.3,5.3,0,0,0,1.67,1.11,5.13,5.13,0,0,0,2,.4h10.5A15.4,15.4,0,0,1,140.73,75a15.69,15.69,0,0,1,8.39,8.38,16,16,0,0,1,0,12.25,15.91,15.91,0,0,1-3.37,5,16.14,16.14,0,0,1-5,3.38,15.24,15.24,0,0,1-6.13,1.25H100.65l10.63-10.51H134.6a5.18,5.18,0,0,0,3.72-1.52,5.37,5.37,0,0,0,1.11-1.66,5.21,5.21,0,0,0,.41-2,5.14,5.14,0,0,0-.41-2,5.3,5.3,0,0,0-1.11-1.67,5.16,5.16,0,0,0-1.67-1.12,5.35,5.35,0,0,0-2.05-.4H124.1A15.15,15.15,0,0,1,118,83.07a16,16,0,0,1-8.38-8.4A15.28,15.28,0,0,1,108.36,68.53Z" transform="translate(-66.59 -35.77)">
  </path>
  <path class="cls-1" d="M199.2,105.29H188.7V52.79h10.5Z" transform="translate(-66.59 -35.77)">
  </path>
 </g>
 <g id="Layer_2" data-name="Layer 2">
  <path class="cls-3" d="M216.79,95.44" transform="translate(-66.59 -35.77)">
  </path>
 </g>
</svg>