<svg width="548" height="99" viewBox="0 0 548 99" fill="none" xmlns="http://www.w3.org/2000/svg">
<path d="M541.814 70.2464H506.583C503.867 70.2464 501.655 68.0372 501.655 65.3185V47.5198H535.662C538.583 47.5198 540.954 45.1521 540.954 42.2281C540.954 39.3041 538.583 36.9337 535.662 36.9337H501.655V19.4183C501.655 16.6997 503.867 14.4878 506.583 14.4878H541.814C544.881 14.4878 547.371 12.0057 547.371 8.93614C547.371 5.86919 544.881 3.38185 541.814 3.38185H506.583C497.746 3.38185 490.549 10.5736 490.549 19.4183V65.3185C490.549 74.1607 497.746 81.3524 506.583 81.3524H541.814C544.881 81.3524 547.371 78.8702 547.371 75.8033C547.371 72.7338 544.881 70.2464 541.814 70.2464ZM438.214 37.0792C430.765 35.7407 425.585 34.1604 422.687 32.3151C419.783 30.4723 418.333 27.985 418.333 24.8478C418.333 21.4794 419.822 18.7114 422.801 16.5541C425.782 14.4021 429.977 13.3208 435.391 13.3208C440.88 13.3208 445.27 14.3761 448.566 16.4969C450.338 17.6379 451.952 19.1532 453.408 21.0506C455.555 23.8264 459.607 24.1955 462.216 21.8459C464.678 19.6263 464.893 15.8212 462.679 13.352C460.007 10.3682 456.969 8.00565 453.564 6.26425C448.503 3.67554 442.406 2.38379 435.274 2.38379C429.156 2.38379 423.804 3.43903 419.219 5.5573C414.632 7.67297 411.118 10.5372 408.69 14.1421C406.258 17.7523 405.044 21.7497 405.044 26.1422C405.044 30.2982 406 33.8252 407.926 36.7258C409.844 39.6316 412.927 42.0591 417.161 44.0188C421.392 45.9812 427.076 47.6264 434.214 48.9597C441.351 50.2957 446.349 51.8214 449.21 53.5472C452.075 55.273 453.504 57.5446 453.504 60.3646C453.504 63.8968 451.919 66.6233 448.737 68.544C445.566 70.4647 441.192 71.4264 435.625 71.4264C429.743 71.4264 424.823 70.3296 420.862 68.1307C418.601 66.8754 416.576 65.2119 414.783 63.1405C412.527 60.5232 408.477 60.4608 406.037 62.9039L406.016 62.9299C403.781 65.16 403.609 68.7805 405.717 71.1301C412.428 78.6207 422.44 82.3634 435.742 82.3634C441.858 82.3634 447.251 81.4408 451.919 79.598C456.584 77.7578 460.205 75.1119 462.793 71.6629C465.385 68.2113 466.679 64.2113 466.679 59.6603C466.679 55.4289 465.738 51.8811 463.856 49.0195C461.972 46.1579 458.975 43.7641 454.856 41.846C450.741 39.9227 445.192 38.3346 438.214 37.0792ZM264.51 37.1026C257.061 35.7641 251.886 34.1812 248.986 32.3385C246.083 30.4957 244.635 28.0058 244.635 24.866C244.635 21.4976 246.124 18.7322 249.103 16.5775C252.084 14.4228 256.279 13.3416 261.69 13.3416C267.174 13.3416 271.569 14.4021 274.862 16.5177C276.64 17.6587 278.254 19.1766 279.71 21.0714C281.851 23.8524 285.906 24.2189 288.516 21.8693C290.979 19.647 291.193 15.842 288.978 13.3754C286.306 10.389 283.265 8.02645 279.863 6.28505C274.805 3.69894 268.705 2.40459 261.571 2.40459C255.455 2.40459 250.103 3.46242 245.519 5.57809C240.929 7.69376 237.42 10.5606 234.99 14.1681C232.559 17.7731 231.343 21.7705 231.343 26.163C231.343 30.319 232.3 33.8512 234.225 36.7466C236.146 39.6498 239.226 42.0851 243.457 44.0422C247.691 46.0046 253.378 47.6498 260.513 48.9831C267.647 50.3165 272.645 51.8474 275.51 53.5706C278.371 55.2938 279.803 57.568 279.803 60.3906C279.803 63.9202 278.215 66.6441 275.042 68.5648C271.863 70.4881 267.491 71.4472 261.927 71.4472C256.042 71.4472 251.12 70.3504 247.161 68.1515C244.903 66.8988 242.875 65.2353 241.087 63.1639C238.831 60.544 234.779 60.4842 232.333 62.9299L232.315 62.9507C230.08 65.1808 229.908 68.8013 232.016 71.1509C238.727 78.6441 248.736 82.3842 262.044 82.3842C268.159 82.3842 273.55 81.4641 278.215 79.6214C282.881 77.7812 286.506 75.1301 289.095 71.6811C291.684 68.2347 292.976 64.2295 292.976 59.6836C292.976 55.4497 292.035 51.9045 290.153 49.0403C288.269 46.1761 285.274 43.7875 281.152 41.8668C277.038 39.9435 271.491 38.358 264.51 37.1026ZM380.36 8.7334V51.4315C380.36 61.6226 377.654 69.3263 372.246 74.5427C366.834 79.7591 358.954 82.3634 348.607 82.3634C338.252 82.3634 330.372 79.7591 324.96 74.5427C319.551 69.3263 316.848 61.6226 316.848 51.4315V8.7334C316.848 5.22461 319.687 2.38379 323.195 2.38379C326.702 2.38379 329.55 5.22461 329.55 8.7334V49.9006C329.55 57.2743 331.097 62.7038 334.195 66.1918C337.293 69.6798 342.094 71.4264 348.607 71.4264C355.115 71.4264 359.913 69.6798 363.011 66.1918C366.109 62.7038 367.658 57.2743 367.658 49.9006V8.7334C367.658 5.22461 370.504 2.38379 374.008 2.38379C377.517 2.38379 380.36 5.22461 380.36 8.7334Z" fill="#0C322C"/>
<path d="M185.596 34.9873C184.544 35.6865 183.135 35.6865 182.08 34.9873C180.354 33.8411 180.187 31.4447 181.581 30.0594C182.818 28.7781 184.858 28.7781 186.095 30.0568C187.486 31.4447 187.317 33.8411 185.596 34.9873ZM190.628 28.0035C192.635 36.539 184.962 44.2141 176.427 42.2076C172.081 41.1888 168.632 37.7398 167.61 33.3967C165.609 24.8664 173.279 17.1964 181.812 19.1952C186.155 20.2114 189.607 23.6578 190.628 28.0035ZM133.157 73.9089C134.131 75.3098 134.942 76.664 135.397 78.0181C135.719 78.9798 136.133 80.2481 137.081 80.7576C137.133 80.7861 137.18 80.8121 137.237 80.8277C138.979 81.4619 143.457 81.3554 143.457 81.3554H151.693C152.398 81.3657 158.586 81.3476 158.43 80.6562C157.684 77.3475 153.859 76.7549 150.945 75.0239C148.26 73.4229 145.713 71.6087 144.559 68.4872C143.956 66.8757 144.312 63.159 145.349 61.8049C146.105 60.825 147.22 60.1752 148.419 59.9127C149.747 59.6294 151.124 59.8737 152.452 60.0089C154.09 60.1752 155.707 60.4715 157.339 60.6743C160.489 61.0849 163.67 61.2487 166.846 61.1629C172.089 61.0174 177.344 60.183 182.314 58.4884C185.783 57.324 189.201 55.749 192.151 53.5579C195.504 51.0654 194.623 51.2993 191.223 51.6476C187.153 52.0634 183.047 52.1258 178.963 51.8841C175.153 51.6632 171.395 51.2135 167.948 49.4435C165.235 48.0426 162.903 46.6391 160.751 44.4689C160.429 44.1414 160.229 43.1849 160.819 42.5741C161.391 41.9815 162.602 42.3246 162.974 42.6417C166.727 45.7788 172.325 48.3623 178.121 48.643C181.256 48.799 184.304 48.8561 187.442 48.721C189.009 48.6482 191.374 48.6586 192.946 48.643C193.757 48.6326 195.969 48.8665 196.383 48.0062C196.507 47.7567 196.497 47.4682 196.486 47.1875C196.026 34.6442 195.099 20.4973 181.973 14.5012C172.18 10.0229 157.497 3.08591 151.296 0.208697C149.859 -0.474868 148.177 0.606363 148.177 2.20741C148.177 6.39717 148.39 12.4167 148.393 17.8956C145.422 14.8702 140.419 12.9599 136.606 11.2081C132.276 9.2224 127.805 7.53818 123.257 6.12166C114.1 3.28604 104.624 1.53944 95.0928 0.593366C84.2831 -0.485262 73.2915 0.0319574 62.6482 2.2308C45.1198 5.86435 27.8903 14.2933 14.8116 26.6208C6.78301 34.1842 0.482771 44.9367 0.0565173 55.8503C-0.551673 71.2968 3.77584 79.5906 11.7291 88.139C24.4127 101.764 51.7111 103.671 62.7677 87.5152C67.7424 80.2429 68.821 70.3793 65.2109 62.3403C61.6007 54.3065 53.3018 48.5001 44.5038 48.2038C37.676 47.9776 30.4011 51.4501 27.7838 57.7633C25.7877 62.5846 26.9235 68.5418 30.5596 72.2845C31.9761 73.7452 33.8943 74.9408 35.9891 74.4729C37.2237 74.1974 38.2556 73.2695 38.4427 72.0168C38.7182 70.1688 37.1016 68.9706 36.1061 67.5515C34.3101 64.9914 34.674 61.1473 36.9222 58.9719C38.8196 57.1343 41.6292 56.5911 44.2699 56.5989C46.7286 56.6041 49.242 57.0433 51.3629 58.2831C54.344 60.0375 56.3245 63.25 57.0107 66.6444C59.0562 76.7887 50.8092 85.0305 39.6279 85.6777C33.9073 86.0155 28.0853 84.5133 23.62 80.9187C12.3113 71.8218 9.54065 53.2278 22.466 43.3019C34.7364 33.8801 50.227 36.3077 59.3603 41.2044C66.669 45.1212 72.1167 51.5306 76.2441 58.6158C78.3156 62.1792 80.0804 65.9037 81.7178 69.6854C83.2929 73.3215 84.7665 76.9863 87.9193 79.6503C90.0063 81.4177 92.582 81.3554 95.3163 81.3554H110.924C113.045 81.3554 112.528 79.9414 111.613 79.0058C109.544 76.8901 106.57 76.4119 103.818 75.6555C97.5255 73.9245 98.1675 65.5944 99.9089 65.5944C105.533 65.5944 105.71 65.7633 110.638 65.7009C117.749 65.6022 119.901 65.1889 125.463 67.2448C128.437 68.3468 131.293 71.2526 133.157 73.9089Z" fill="#30BA78"/>
</svg>
