<svg xmlns="http://www.w3.org/2000/svg" xmlns:xlink="http://www.w3.org/1999/xlink" width="252.048" height="244" viewBox="0 0 252.048 244">
  <defs>
    <filter id="Polygon_2" x="0" y="0" width="252.048" height="244" filterUnits="userSpaceOnUse">
      <feOffset dy="4" input="SourceAlpha"/>
      <feGaussianBlur stdDeviation="12.5" result="blur"/>
      <feFlood flood-color="#0f5064" flood-opacity="0.122"/>
      <feComposite operator="in" in2="blur"/>
      <feComposite in="SourceGraphic"/>
    </filter>
  </defs>
  <g id="Group_9012" data-name="Group 9012" transform="translate(-1184.5 -363.5)">
    <g transform="matrix(1, 0, 0, 1, 1184.5, 363.5)" filter="url(#Polygon_2)">
      <path id="Polygon_2-2" data-name="Polygon 2" d="M86.391,1.005a5,5,0,0,1,4.265,0l66.67,31.435a5,5,0,0,1,2.737,3.387l16.427,70.466a5,5,0,0,1-.993,4.293l-46.077,56.57A5,5,0,0,1,125.544,169H51.5a5,5,0,0,1-3.877-1.842L1.55,110.587a5,5,0,0,1-.993-4.293L16.984,35.828a5,5,0,0,1,2.737-3.387Z" transform="translate(37.5 33.5)" fill="#fff"/>
    </g>
    <g id="Group_7195" data-name="Group 7195" transform="translate(1267.54 430.789)">
      <path id="Path_2131" data-name="Path 2131" d="M7.68,14.021l6.061,39.841a24.244,24.244,0,0,0,6.95,11.354A67.237,67.237,0,0,0,39.035,78.51a1.818,1.818,0,0,0,2.02,0A69.822,69.822,0,0,0,59.441,65.216a24.527,24.527,0,0,0,6.91-11.354l6.1-39.841a144.207,144.207,0,0,0-20.2-3.111,21.7,21.7,0,0,1,2.707,4.041,132.042,132.042,0,0,1,13.132,1.98L62.552,53.3a22.547,22.547,0,0,1-6.021,9.374A62.953,62.953,0,0,1,40.086,74.793,62.225,62.225,0,0,1,23.6,62.671,22.83,22.83,0,0,1,17.62,53.3L12.084,16.931a130.275,130.275,0,0,1,13.051-1.859,18.587,18.587,0,0,1,2.748-4.041,142.431,142.431,0,0,0-20.2,2.99Z" transform="translate(6.75 17.329)" fill="#3cad5c" fill-rule="evenodd"/>
      <path id="Path_2132" data-name="Path 2132" d="M35.244,60.693a20.2,20.2,0,0,1-10.425,0l-1.7,5.657A42.1,42.1,0,0,0,11,53.581,97.946,97.946,0,0,0,11,27.4h.889c1.94-8.324,5.617-15.92,13.981-17.7.444.808.889,1.616,1.253,2.465C20.617,13.256,16.576,18.67,15,26.226a43.72,43.72,0,0,0,11.475-2.02,24.85,24.85,0,0,1-12.4,5.7,99.926,99.926,0,0,1,0,22.547,27.719,27.719,0,0,1,8.081,8.081,60.61,60.61,0,0,0,2.869-20.2L18.031,37.1l.444-4.323-1.616-1.9,9.576,4.041,1.374-.646-.364,1.051a24.244,24.244,0,0,1-.646,9.011l3.192,3.03,3.192-3.03a25.173,25.173,0,0,1-.647-9.172l-.4-1.051,1.374.647,9.576-4.041-1.657,1.9.485,4.324-6.99,3.233a61.62,61.62,0,0,0,2.828,20.2,28.285,28.285,0,0,1,8.081-8.081,97.623,97.623,0,0,1,0-22.547,25.133,25.133,0,0,1-12.445-5.7A44,44,0,0,0,44.9,26.065C43.325,18.993,39.285,13.5,33.062,12.205c.364-.808.808-1.616,1.212-2.424C42.355,11.72,45.911,19.2,47.81,27.358h.929a96.288,96.288,0,0,0,0,26.183A42.1,42.1,0,0,0,36.618,66.31Z" transform="translate(16.845 13.65)" fill="#0b1726" fill-rule="evenodd"/>
      <path id="Path_2133" data-name="Path 2133" d="M46.8,9.208c4.97,2.707,7.071,6.505,4.041,12.324A15.637,15.637,0,0,0,46.8,9.208Zm0,20.567a22.991,22.991,0,0,0-5.334-10.748A5.657,5.657,0,0,1,45.5,20.441c-1.9-2.707-4.93-4.364-11.314-2.909.687-1.374,2.748-2.182,5.172-2.909-3.111-.566-6.91,1.01-11.516,5.9a12.122,12.122,0,0,1-16.526,2.344,16.163,16.163,0,0,0,9.617-1.818C13.622,22.865,8.369,20.8,5.46,14.218c6.99,5.172,13.617,1.98,20.2-4.849A13.94,13.94,0,0,1,44.008,8.036c-7.152-1.253-11.152,0-13.253,2.99,6.829-2.828,12.4-3.111,15.435,2.263a4.849,4.849,0,0,0-.929-2.909,12.122,12.122,0,0,1,1.333,1.535C49.22,15.471,49.826,20.845,46.8,29.774Z" transform="translate(0 0)" fill="#d84e27" fill-rule="evenodd"/>
    </g>
  </g>
</svg>
