<svg xmlns="http://www.w3.org/2000/svg" xmlns:xlink="http://www.w3.org/1999/xlink" width="252.048" height="244" viewBox="0 0 252.048 244">
  <defs>
    <filter id="Polygon_2" x="0" y="0" width="252.048" height="244" filterUnits="userSpaceOnUse">
      <feOffset dy="4" input="SourceAlpha"/>
      <feGaussianBlur stdDeviation="12.5" result="blur"/>
      <feFlood flood-color="#0f5064" flood-opacity="0.122"/>
      <feComposite operator="in" in2="blur"/>
      <feComposite in="SourceGraphic"/>
    </filter>
  </defs>
  <g id="Group_9010" data-name="Group 9010" transform="translate(-482.5 -363.5)">
    <g transform="matrix(1, 0, 0, 1, 482.5, 363.5)" filter="url(#Polygon_2)">
      <path id="Polygon_2-2" data-name="Polygon 2" d="M86.391,1.005a5,5,0,0,1,4.265,0l66.67,31.435a5,5,0,0,1,2.737,3.387l16.427,70.466a5,5,0,0,1-.993,4.293l-46.077,56.57A5,5,0,0,1,125.544,169H51.5a5,5,0,0,1-3.877-1.842L1.55,110.587a5,5,0,0,1-.993-4.293L16.984,35.828a5,5,0,0,1,2.737-3.387Z" transform="translate(37.5 33.5)" fill="#fff"/>
    </g>
    <g id="kubeshild_icon" data-name="kubeshild icon" transform="translate(582.491 453.001)">
      <path id="Path_2251" data-name="Path 2251" d="M25.235,56.419a12.073,12.073,0,0,1-2.6-1.41A41.58,41.58,0,0,1,9.664,41.3,56.418,56.418,0,0,1,1.906,18.732,54.273,54.273,0,0,1,1.652,8.238c0-.451.169-.536.592-.536a18.392,18.392,0,0,0,7-.9,20.846,20.846,0,0,0,4.993-2.821A20.451,20.451,0,0,1,20.186.706,16.925,16.925,0,0,1,25.235,0v3.47A15.092,15.092,0,0,0,20.75,4.2,19.746,19.746,0,0,0,15.7,7.194a19.323,19.323,0,0,1-10.24,3.836c-.451,0-.395.31-.395.564A53.6,53.6,0,0,0,6,21.806a51.086,51.086,0,0,0,9.394,21.58,35.064,35.064,0,0,0,9.845,9.055Z" transform="translate(0 0.001)" fill="#2516c7"/>
      <path id="Path_2252" data-name="Path 2252" d="M9.92,56.42V52.47l.31-.169a35.882,35.882,0,0,0,9.2-8.463,50.776,50.776,0,0,0,9.253-19.746,53.992,53.992,0,0,0,1.41-12.384c0-.395,0-.564-.508-.564a16.536,16.536,0,0,1-2.087-.282,19.746,19.746,0,0,1-8.463-3.921A14.1,14.1,0,0,0,10,3.584V0a15.176,15.176,0,0,1,8.6,2.482l3.272,2.257A16.051,16.051,0,0,0,31.5,7.562h.536c1.241,0,1.241,0,1.3,1.213A56.107,56.107,0,0,1,23.968,43.5,39.69,39.69,0,0,1,11.81,55.376,9.365,9.365,0,0,1,9.92,56.42Z" transform="translate(15.315)" fill="#2516c7"/>
      <path id="Path_2253" data-name="Path 2253" d="M17.656,37.953A35.966,35.966,0,0,1,11.2,29.97,49.309,49.309,0,0,1,4.285,9.632c0-.959-.141-1.946-.226-2.821-.085-.367-.085-.536.31-.536A21.269,21.269,0,0,0,9.616,4.3a46.263,46.263,0,0,1,6.77,10.889,31.622,31.622,0,0,1,2.6,10.635,32.44,32.44,0,0,1-.9,10.409A6.15,6.15,0,0,0,17.656,37.953Z" transform="translate(4.561 7.832)" fill="#2516c7"/>
      <path id="Path_2254" data-name="Path 2254" d="M17.627,4a22.567,22.567,0,0,0,6.657,2.821c.451,0,.339.395.31.649a49,49,0,0,1-1.213,8.6A46.432,46.432,0,0,1,13.791,35.82a22.567,22.567,0,0,1-2.821,2.821.987.987,0,0,1,.2-.564,43.5,43.5,0,0,0,3.667-7.983,50.776,50.776,0,0,0,2.426-10.014,58.844,58.844,0,0,0,.592-7.616C17.853,9.642,17.909,6.821,17.627,4Z" transform="translate(17.227 7.285)" fill="#2516c7"/>
      <path id="Path_2255" data-name="Path 2255" d="M14.04,39.7a6.15,6.15,0,0,1,.423-1.721A32.44,32.44,0,0,0,15.478,27.57a31.622,31.622,0,0,0-2.6-10.635A46.263,46.263,0,0,0,6,6.046,41.355,41.355,0,0,0,9.977,3.508c.339-.254.508-.226.733.141a43.808,43.808,0,0,1,3.752,6.827,45.388,45.388,0,0,1,3.131,21.636,55.741,55.741,0,0,1-1.467,8.632,1.044,1.044,0,0,1-.226.592A14.358,14.358,0,0,1,14.04,39.7Z" transform="translate(8.177 6.085)" fill="#e86830"/>
      <path id="Path_2256" data-name="Path 2256" d="M18.993,6.513c.282,2.821.226,5.642.226,8.463a58.846,58.846,0,0,1-.564,7.391A50.776,50.776,0,0,1,16.229,32.38a43.5,43.5,0,0,1-3.667,7.983.987.987,0,0,0-.2.564h0a.282.282,0,0,0-.254.226,10.353,10.353,0,0,1-1.89,1.608h0a50.494,50.494,0,0,0,3.949-10.607A48.548,48.548,0,0,0,15.5,17.345,56.925,56.925,0,0,0,12.674,2.93a1.185,1.185,0,0,1,0-.31,49,49,0,0,1,6.319,3.893Z" transform="translate(15.861 4.772)" fill="#e86830"/>
      <path id="Path_2257" data-name="Path 2257" d="M10.89,16.456a.282.282,0,0,1,.254-.226Z" transform="translate(17.081 29.555)" fill="#326ce5"/>
      <path id="Path_2258" data-name="Path 2258" d="M10.22,16.88Z" transform="translate(15.861 30.738)" fill="#326ce5"/>
    </g>
  </g>
</svg>
