<svg xmlns="http://www.w3.org/2000/svg" xmlns:xlink="http://www.w3.org/1999/xlink" width="252.048" height="244" viewBox="0 0 252.048 244">
  <defs>
    <filter id="Polygon_2" x="0" y="0" width="252.048" height="244" filterUnits="userSpaceOnUse">
      <feOffset dy="4" input="SourceAlpha"/>
      <feGaussianBlur stdDeviation="12.5" result="blur"/>
      <feFlood flood-color="#0f5064" flood-opacity="0.122"/>
      <feComposite operator="in" in2="blur"/>
      <feComposite in="SourceGraphic"/>
    </filter>
  </defs>
  <g id="Group_9015" data-name="Group 9015" transform="translate(-1707.5 -600.5)">
    <g transform="matrix(1, 0, 0, 1, 1707.5, 600.5)" filter="url(#Polygon_2)">
      <path id="Polygon_2-2" data-name="Polygon 2" d="M86.391,1.005a5,5,0,0,1,4.265,0l66.67,31.435a5,5,0,0,1,2.737,3.387l16.427,70.466a5,5,0,0,1-.993,4.293l-46.077,56.57A5,5,0,0,1,125.544,169H51.5a5,5,0,0,1-3.877-1.842L1.55,110.587a5,5,0,0,1-.993-4.293L16.984,35.828a5,5,0,0,1,2.737-3.387Z" transform="translate(37.5 33.5)" fill="#fff"/>
    </g>
    <g id="Group_9014" data-name="Group 9014" transform="translate(-4 0)">
      <path id="Path_2239" data-name="Path 2239" d="M83.344,36.369a12.746,12.746,0,0,0-7.606-6.853c-.411,0-.548-.308-.548-.72a11.342,11.342,0,0,0,0-1.884,12.2,12.2,0,0,0-3.426-6.853,12.369,12.369,0,0,0-6.339-3.426c-1.028-.24-2.3,0-2.878-1.3a4.762,4.762,0,0,0-.514-.651,20.352,20.352,0,0,0-6.853-4.9,16.481,16.481,0,0,0-6.2-1.61H31.538a2.09,2.09,0,0,0-1.576,2.022,2.056,2.056,0,0,0,2.056,1.953h5.653a1.782,1.782,0,0,1,1.645,1.61,2.022,2.022,0,0,1-2.227,2.227H22.835a2.056,2.056,0,0,0-1.919,1.439,1.816,1.816,0,0,0,.857,2.227,2.912,2.912,0,0,0,1.4.411h5.79a20.866,20.866,0,0,0-1.542,9.217H5.738a2.022,2.022,0,1,0,0,4.009H16.016a2.227,2.227,0,0,1,2.3,1.268,1.987,1.987,0,0,1-1.953,2.707H8.1a2.056,2.056,0,0,0,0,4.112h2.261a7.812,7.812,0,0,0,0,1.268,20.558,20.558,0,0,0,.651,3.426,12.472,12.472,0,0,0,4.317,6.065,12.061,12.061,0,0,0,7.641,2.878H71.934a12.266,12.266,0,0,0,2.707-.377,12.712,12.712,0,0,0,8.7-7.093,12.4,12.4,0,0,0,0-11.17Zm-43.754-1.1a.925.925,0,0,1-1.233,0L36.814,33.73a.891.891,0,0,1,0-1.233l.891-1.131a9.97,9.97,0,0,1-.754-1.747l-1.4-.171a.891.891,0,0,1-.822-.925V26.364a.925.925,0,0,1,.822-.925h1.336a8.6,8.6,0,0,1,.754-1.919l-.822-1.062a.891.891,0,0,1,0-1.233l1.542-1.542a.891.891,0,0,1,1.233,0l.994.788a7.675,7.675,0,0,1,2.056-.857V18.346a.959.959,0,0,1,.925-.822h2.159a.925.925,0,0,1,.925.822v1.268a6.853,6.853,0,0,1,2.022.822l.959-.754a.891.891,0,0,1,1.233,0L52.4,21.224a.925.925,0,0,1,0,1.2l-.788,1.028a9.011,9.011,0,0,1,.754,1.884h1.3a.959.959,0,0,1,.788.925v2.193a.891.891,0,0,1-.788.891l-1.3.171a9.525,9.525,0,0,1-.822,1.919L52.4,32.5a.994.994,0,0,1,0,1.233l-1.542,1.542a.891.891,0,0,1-1.233,0l-1.1-.857a8.052,8.052,0,0,1-1.953.788v1.4a.959.959,0,0,1-.925.788H43.461a.891.891,0,0,1-.891-.788V35.169a8.84,8.84,0,0,1-1.85-.788Zm15.179,9.422a.959.959,0,0,1-.822.925h-.617a5.516,5.516,0,0,1-.548,1.3l.377.48a.891.891,0,0,1,.137,1.3l-.651.651a.925.925,0,0,1-1.233,0l-.514-.411a4.694,4.694,0,0,1-1.3.514v.685a.959.959,0,0,1-.925.788h-.925a.857.857,0,0,1-.891-.788v-.72a6.647,6.647,0,0,1-1.233-.514l-.548.411a.891.891,0,0,1-1.2,0l-.857-.617a.891.891,0,0,1,0-1.2l.411-.548a6.853,6.853,0,0,1-.411-1.336h-.651a.925.925,0,0,1-.822-.925V43.77a.925.925,0,0,1,.822-.891h.617a8.19,8.19,0,0,1,.514-1.268l-.48-.685a.925.925,0,0,1,0-1.2l.685-.651a.891.891,0,0,1,1.2,0l.445.343a7.024,7.024,0,0,1,1.4-.548v-.582a.891.891,0,0,1,.891-.788h.925a.994.994,0,0,1,.925.822V38.9a5.859,5.859,0,0,1,1.336.582l.445-.343a.925.925,0,0,1,1.2,0l.651.685a.891.891,0,0,1,0,1.2l-.377.445a8.566,8.566,0,0,1,.514,1.3h.582a.891.891,0,0,1,.788.891Zm13.157-7.812-.891.171a5.482,5.482,0,0,1-.548,1.645l.685.685a.925.925,0,0,1,0,1.233l-.994,1.131a.857.857,0,0,1-1.2.171l-.822-.548a6.544,6.544,0,0,1-1.542.788v.994a.891.891,0,0,1-.822.891H60.285a.925.925,0,0,1-.959-.72L59.12,42.3a5.824,5.824,0,0,1-1.542-.514l-.754.685a.891.891,0,0,1-1.233,0l-.994-.617a.891.891,0,0,1-.171-1.2l.582-.857a6.853,6.853,0,0,1-.754-1.4h-.959a.891.891,0,0,1-.891-.822V36.06A.925.925,0,0,1,52.952,35l.959-.206a8.7,8.7,0,0,1,.48-1.61l-.651-.72a.891.891,0,0,1,0-1.2L54.7,30.1a.959.959,0,0,1,1.2,0l.788.514a6.579,6.579,0,0,1,1.61-.857v-.891a.959.959,0,0,1,.822-.891h1.508a.925.925,0,0,1,.959.72v.891a6.236,6.236,0,0,1,1.713.548l.617-.617a.994.994,0,0,1,1.233,0l1.131.994a.891.891,0,0,1,.171,1.2l-.514.754a5.722,5.722,0,0,1,.788,1.508h.891a.925.925,0,0,1,.891.857v1.508a.925.925,0,0,1-.445.548Z" transform="translate(1792.547 686.83)" fill="#1c7bd4"/>
      <path id="Path_2240" data-name="Path 2240" d="M20.872,29.985a.891.891,0,0,0,.891.788h2.193a.959.959,0,0,0,.925-.788v-1.4a8.052,8.052,0,0,0,1.953-.788l1.1.857a.891.891,0,0,0,1.233,0l1.542-1.542a.994.994,0,0,0,0-1.233l-.857-1.062a9.525,9.525,0,0,0,.822-1.919l1.3-.171a.891.891,0,0,0,.788-.891V19.637a.959.959,0,0,0-.788-.925h-1.3a9.011,9.011,0,0,0-.754-1.884l.788-1.028a.925.925,0,0,0,0-1.2l-1.542-1.542a.891.891,0,0,0-1.233,0l-.959.754a6.853,6.853,0,0,0-2.022-.822V11.722a.925.925,0,0,0-.925-.822H21.866a.959.959,0,0,0-.925.822V12.99a7.675,7.675,0,0,0-2.056.857l-1.439-1.062a.891.891,0,0,0-1.233,0l-1.542,1.542a.891.891,0,0,0,0,1.233l.822,1.062a8.6,8.6,0,0,0-.754,1.919H13.4a.925.925,0,0,0-.822.925v2.159a.891.891,0,0,0,.822.925l1.4.171a9.971,9.971,0,0,0,.754,1.747L14.671,25.6a.891.891,0,0,0,0,1.233l1.542,1.542a.925.925,0,0,0,1.233,0l1.1-.891a8.84,8.84,0,0,0,1.85.788Z" transform="translate(1814.691 693.454)" fill="none"/>
      <path id="Path_2241" data-name="Path 2241" d="M18.617,21.114A4.317,4.317,0,1,1,22.934,16.8a4.317,4.317,0,0,1-4.317,4.317Zm0-7.2A2.878,2.878,0,1,0,21.5,16.8a2.878,2.878,0,0,0-2.878-2.878Z" transform="translate(1818.864 697.287)" fill="#1c7bd4"/>
      <path id="Path_2242" data-name="Path 2242" d="M33.247,19.827h-.788a5.722,5.722,0,0,0-.788-1.508l.514-.754a.891.891,0,0,0-.171-1.2l-1.131-.994a.994.994,0,0,0-1.233,0l-.617.617a6.236,6.236,0,0,0-1.713-.548v-.891a.925.925,0,0,0-.959-.72H24.852a.959.959,0,0,0-.822.891v.891a6.579,6.579,0,0,0-1.61.857l-.788-.514a.959.959,0,0,0-1.2,0l-.959,1.165a.891.891,0,0,0,0,1.2l.651.72a8.7,8.7,0,0,0-.48,1.61l-1.233.617a.925.925,0,0,0-.72.959v1.508a.891.891,0,0,0,.891.822h.994a6.853,6.853,0,0,0,.754,1.4l-.582.857a.891.891,0,0,0,.171,1.2l1.131.959a.891.891,0,0,0,1.233,0l.754-.685a5.824,5.824,0,0,0,1.542.514l.206,1.028a.925.925,0,0,0,.959.72h1.508a.891.891,0,0,0,.822-.891v-.994a6.544,6.544,0,0,0,1.542-.788l.822.548a.857.857,0,0,0,1.2-.171l.994-1.131a.925.925,0,0,0,0-1.233l-.685-.685a5.482,5.482,0,0,0,.548-1.645l.891-.171a.925.925,0,0,0,.754-.959V20.924a.925.925,0,0,0-.891-1.1Z" transform="translate(1827.088 700.562)" fill="none"/>
      <path id="Path_2243" data-name="Path 2243" d="M22.727,22.559a3.666,3.666,0,0,1-3.666-3.426,3.6,3.6,0,0,1,.857-2.673,3.426,3.426,0,0,1,2.5-1.3,3.711,3.711,0,1,1,.548,7.4h-.308Zm0-5.893h-.206a2.4,2.4,0,0,0-1.508.788,2.3,2.3,0,0,0-.514,1.61,2.261,2.261,0,0,0,.788,1.508,1.987,1.987,0,0,0,1.61.514h0a2.193,2.193,0,0,0,2.022-2.4,2.227,2.227,0,0,0-.754-1.508,2.261,2.261,0,0,0-1.439-.514Z" transform="translate(1830.379 703.758)" fill="#1c7bd4"/>
      <path id="Path_2244" data-name="Path 2244" d="M27.1,22.037h-.582a8.566,8.566,0,0,0-.514-1.3l.377-.445a.891.891,0,0,0,0-1.2l-.651-.685a.925.925,0,0,0-1.2,0l-.445.343a5.859,5.859,0,0,0-1.336-.582v-.582a.994.994,0,0,0-.925-.822H20.792a.891.891,0,0,0-.891.788v.582a7.024,7.024,0,0,0-1.4.548l-.445-.343a.891.891,0,0,0-1.2,0l-.685.651a.925.925,0,0,0,0,1.2l.377.514a8.189,8.189,0,0,0-.514,1.268h-.617a.925.925,0,0,0-.822.891v.925a.925.925,0,0,0,.822.925h.651a6.853,6.853,0,0,0,.48,1.165l-.548.617a.891.891,0,0,0,0,1.371l.651.651a.891.891,0,0,0,1.2,0l.548-.411a6.648,6.648,0,0,0,1.233.514v.72a.857.857,0,0,0,.891.788h.925a.959.959,0,0,0,.925-.788v-.685a4.694,4.694,0,0,0,1.3-.514l.514.411a.925.925,0,0,0,1.233,0l.857-.685a.891.891,0,0,0,0-1.233l-.377-.48a5.516,5.516,0,0,0,.548-1.3h.617a.959.959,0,0,0,.822-.925V23A.891.891,0,0,0,27.1,22.037Z" transform="translate(1819.568 707.672)" fill="none"/>
      <path id="Path_2245" data-name="Path 2245" d="M18.669,24h0a3.339,3.339,0,1,0-.034,0Zm0-4.8a1.679,1.679,0,0,0-1.679,1.645,1.576,1.576,0,0,0,.48,1.2,1.679,1.679,0,0,0,1.165.514,1.782,1.782,0,0,0,1.2-.48A1.68,1.68,0,0,0,18.669,19.2Z" transform="translate(1822.067 710.099)" fill="#1c7bd4"/>
    </g>
  </g>
</svg>
