<svg xmlns="http://www.w3.org/2000/svg" xmlns:xlink="http://www.w3.org/1999/xlink" width="252.048" height="244" viewBox="0 0 252.048 244"><defs><filter id="a" x="0" y="0" width="252.048" height="244" filterUnits="userSpaceOnUse"><feOffset dy="4" input="SourceAlpha"/><feGaussianBlur stdDeviation="12.5" result="b"/><feFlood flood-color="#0f5064" flood-opacity="0.122"/><feComposite operator="in" in2="b"/><feComposite in="SourceGraphic"/></filter></defs><g transform="translate(-482.5 -363.5)"><g transform="translate(-874 -237)"><g transform="matrix(1, 0, 0, 1, 1356.5, 600.5)" filter="url(#a)"><path d="M86.391,1.005a5,5,0,0,1,4.265,0l66.67,31.435a5,5,0,0,1,2.737,3.387l16.427,70.466a5,5,0,0,1-.993,4.293l-46.077,56.57A5,5,0,0,1,125.544,169H51.5a5,5,0,0,1-3.877-1.842L1.55,110.587a5,5,0,0,1-.993-4.293L16.984,35.828a5,5,0,0,1,2.737-3.387Z" transform="translate(37.5 33.5)" fill="#fff"/></g><g transform="translate(-10780.396 346.424)"><g transform="translate(12230.898 339.014)"><path d="M38.513,5.9V43.754L8.8,56.372V39.684l16.688-6.92V11.191h0Z" transform="translate(22.134 9.003)" fill="#7272e9"/><path d="M30.906,2.7,60.62,15.725,47.595,21.016h0L30.906,13.69,14.218,21.016,1.6,15.725Z" transform="translate(0.028 -0.767)" fill="#7272e9"/><path d="M30.906,39.684V56.372L1.6,43.754V5.9l12.618,5.291h0V32.764Z" transform="translate(0.028 9.003)" fill="#7272e9"/><path d="M63.883,17.171h0v-.813h0l-.407-.407h0L32.948,2.53a1.239,1.239,0,0,0-1.628,0L1.607,15.138h0l-.407.407h0v.407h0v.407h0V54.18a2.236,2.236,0,0,0,1.221,2.033L31.727,68.821H34.17L63.476,56.214A2.236,2.236,0,0,0,64.7,54.18l-.814-37.009ZM32.134,6.6,56.149,17.171l-7.327,3.254L32.948,13.511a1.239,1.239,0,0,0-1.628,0L15.446,20.018h-.407L8.12,17.171ZM30.1,64.348,4.863,53.367V20.018l8.548,3.66V43.606a2.236,2.236,0,0,0,1.221,2.033L30.1,52.147Zm2.035-15.454-14.653-6.1V24.085l14.653-6.507,14.653,6.507V42.793Zm27.271,4.474L34.17,64.348V52.554l15.467-6.507a2.236,2.236,0,0,0,1.221-2.033V23.678l8.548-3.66Z" transform="translate(-1.2 -2.225)" fill="#4949a3"/><path d="M40.733,11.92,24.045,5H21.6L5.728,11.92A2.7,2.7,0,0,0,4.1,13.955V35.527a2.077,2.077,0,0,0,1.628,2.035h0l16.688,7.327a1.238,1.238,0,0,0,1.628,0l16.688-7.327h0a2.7,2.7,0,0,0,1.628-2.035V13.955A2.7,2.7,0,0,0,40.733,11.92ZM8.577,15.583,21.2,10.291v17.1L8.577,32.678ZM23.231,40.412l-11.4-4.884,11.4-4.884h0l11.4,4.884Zm14.653-8.141L25.266,26.98V9.884l12.618,5.291Z" transform="translate(7.704 6.272)" fill="#4949a3"/></g></g></g></g></svg>