<svg xmlns="http://www.w3.org/2000/svg" xmlns:xlink="http://www.w3.org/1999/xlink" width="252.048" height="244" viewBox="0 0 252.048 244">
  <defs>
    <filter id="Polygon_2" x="0" y="0" width="252.048" height="244" filterUnits="userSpaceOnUse">
      <feOffset dy="4" input="SourceAlpha"/>
      <feGaussianBlur stdDeviation="12.5" result="blur"/>
      <feFlood flood-color="#0f5064" flood-opacity="0.122"/>
      <feComposite operator="in" in2="blur"/>
      <feComposite in="SourceGraphic"/>
    </filter>
    <linearGradient id="linear-gradient" x1="-0.085" y1="1.487" x2="0.915" y2="1.487" gradientUnits="objectBoundingBox">
      <stop offset="0" stop-color="#0369d3"/>
      <stop offset="0.475" stop-color="#00baff"/>
      <stop offset="1" stop-color="#0043b5"/>
    </linearGradient>
    <linearGradient id="linear-gradient-2" x1="-0.094" y1="1.914" x2="0.906" y2="1.914" xlink:href="#linear-gradient"/>
    <linearGradient id="linear-gradient-3" x1="-0.116" y1="1.982" x2="0.884" y2="1.982" xlink:href="#linear-gradient"/>
    <linearGradient id="linear-gradient-4" x1="-0.178" y1="2.011" x2="0.82" y2="2.011" xlink:href="#linear-gradient"/>
  </defs>
  <g id="Group_9022" data-name="Group 9022" transform="translate(-303.5 -600.5)">
    <g transform="matrix(1, 0, 0, 1, 303.5, 600.5)" filter="url(#Polygon_2)">
      <path id="Polygon_2-2" data-name="Polygon 2" d="M86.391,1.005a5,5,0,0,1,4.265,0l66.67,31.435a5,5,0,0,1,2.737,3.387l16.427,70.466a5,5,0,0,1-.993,4.293l-46.077,56.57A5,5,0,0,1,125.544,169H51.5a5,5,0,0,1-3.877-1.842L1.55,110.587a5,5,0,0,1-.993-4.293L16.984,35.828a5,5,0,0,1,2.737-3.387Z" transform="translate(37.5 33.5)" fill="#fff"/>
    </g>
    <g id="Group_7045" data-name="Group 7045" transform="translate(398 685)">
      <path id="Path_14261" data-name="Path 14261" d="M20.3,24.737a1.948,1.948,0,0,0,.022-2.516l-8.286-8.244h0A22.419,22.419,0,0,0,8.3,27.826L19.334,25.34A1.97,1.97,0,0,0,20.3,24.737Z" transform="translate(-0.995 12.265)" fill="none"/>
      <path id="Path_14262" data-name="Path 14262" d="M20.233,21.283,8.67,22.546a25.14,25.14,0,0,0,3.359,6.606,24.083,24.083,0,0,0,3.425,3.791h0c.6.465,1.134.969,1.688,1.377l4.725-10.281a3.021,3.021,0,0,0,.124-1.162A1.936,1.936,0,0,0,20.233,21.283Z" transform="translate(-0.392 23.015)" fill="none"/>
      <path id="Path_14263" data-name="Path 14263" d="M21.341,23.181a1.855,1.855,0,0,0,2-1.708l1.05-11.388a22.368,22.368,0,0,0-13.17,5.454l9.151,7.266A1.455,1.455,0,0,0,21.341,23.181Z" transform="translate(3.361 6.54)" fill="none"/>
      <path id="Path_14264" data-name="Path 14264" d="M16.419,23.752l3.071,1.722h0l3.124-1.355.913-3.337L21.451,17.9,18,17.7l-2.235,2.59Z" transform="translate(10.042 17.748)" fill="none"/>
      <path id="Path_14265" data-name="Path 14265" d="M22.471,23.584a1.893,1.893,0,0,0-2.375.457l-6.008,9.952a22.73,22.73,0,0,0,9.641,1.641h0a14.091,14.091,0,0,0,4.733-.813L23.237,24.283A2.381,2.381,0,0,0,22.471,23.584Z" transform="translate(7.58 26.054)" fill="none"/>
      <path id="Path_14266" data-name="Path 14266" d="M29.792,15.606h0a22.294,22.294,0,0,0-11.025-5.38l.175,11.756a1.769,1.769,0,0,0,.336.83,1.965,1.965,0,0,0,2.639.517l9.574-6.087C30.911,16.676,30.372,16.172,29.792,15.606Z" transform="translate(14.464 6.746)" fill="none"/>
      <path id="Path_14267" data-name="Path 14267" d="M21.882,22.208a1.554,1.554,0,0,0-.42.749A1.965,1.965,0,0,0,22.6,25.268l10.894,3.865A22.23,22.23,0,0,0,30.868,14.94Z" transform="translate(18.335 13.682)" fill="none"/>
      <path id="Path_14268" data-name="Path 14268" d="M21.441,21.887a1.914,1.914,0,0,0-1.033,2.442l3.952,10.824a21.783,21.783,0,0,0,5.509-4.587h0A22.348,22.348,0,0,0,33.716,24.4L22.328,21.785A1.667,1.667,0,0,0,21.441,21.887Z" transform="translate(16.696 23.721)" fill="none"/>
      <path id="Path_14269" data-name="Path 14269" d="M8.423,49.6a28.921,28.921,0,0,0,4.436,9.317,26.984,26.984,0,0,0,4.258,4.708,33.013,33.013,0,0,0,3.064,2.442l4.265,2.291a27.783,27.783,0,0,0,13,2.437A27.007,27.007,0,0,0,44.4,69.549l4.028-1.915a27.314,27.314,0,0,0,7.8-6.243,28.766,28.766,0,0,0,5.155-8.714l1.31-4.6a34.716,34.716,0,0,0,.447-3.984,29.375,29.375,0,0,0-4.083-15.735l.7-.6.03-.2a1.47,1.47,0,0,1,.408-1.008,24.459,24.459,0,0,1,3.23-2.056l.057-.04a2.384,2.384,0,0,1,.66-.3c.388-.19.774-.378,1.218-.61l.519-.371a2.313,2.313,0,0,0,.583-3.19,2.363,2.363,0,0,0-1.507-.88,2.2,2.2,0,0,0-1.7.42l-.46.331a4,4,0,0,0-.964.961c-.131.183-.3.306-.492.531l-.057.042a17.938,17.938,0,0,1-2.975,2.41,1.481,1.481,0,0,1-1.085.067l-.2-.035-.791.477A37.229,37.229,0,0,0,53.5,21.462a28.145,28.145,0,0,0-14.823-7.026l-.022-.877-.084-.119c-.084-.116-.227-.2-.311-.311a1.207,1.207,0,0,1-.21-.655,19.113,19.113,0,0,1,.432-3.882,3.356,3.356,0,0,0,.106-.7,12.037,12.037,0,0,0,.255-1.344c.015-.1-.012-.259.017-.46.015-.1-.027-.161.03-.2a2.559,2.559,0,0,0-.472-1.626,2.075,2.075,0,0,0-1.606-.9,2.323,2.323,0,0,0-2.288,2.271c.042.059-.015.1.027.161.027.158-.047.3-.017.46a10.648,10.648,0,0,0,.143,1.414,2.768,2.768,0,0,1,.094.736,21.166,21.166,0,0,1,.126,3.932,1.29,1.29,0,0,1-.65.914l-.116.082-.094.961a2.444,2.444,0,0,0-.67.037,27.034,27.034,0,0,0-17.544,7.619l-.778-.6c-.059.042-.1-.017-.158.022a1.648,1.648,0,0,1-1.1-.193,18.478,18.478,0,0,1-2.8-2.8l-.042-.059a2.6,2.6,0,0,0-.482-.549,10.5,10.5,0,0,0-.919-1.035c-.084-.116-.227-.193-.311-.311a.274.274,0,0,0-.185-.136,2.326,2.326,0,0,0-3.228,0,2.231,2.231,0,0,0,.035,2.835,1.632,1.632,0,0,0,.4.43c.044.059.086.119.143.077.084.119.227.193.311.311A7.185,7.185,0,0,0,7.86,20.7c.185.133.428.227.61.363l.042.059a18.046,18.046,0,0,1,3.067,2.442l.084.116a1.619,1.619,0,0,1,.262.974c.044.059-.015.1.027.158l.709.741A28.023,28.023,0,0,0,7.408,41.043a29.244,29.244,0,0,0,.156,3.729ZM36.814,39l2.076,2.884-.914,3.339-3.124,1.354h0l-3.069-1.722-.657-3.46,2.234-2.59ZM33.072,19.985l-1.05,11.388a1.855,1.855,0,0,1-2,1.708,1.455,1.455,0,0,1-.969-.376L19.9,25.439A22.368,22.368,0,0,1,33.072,19.985ZM12.63,43.45A22.419,22.419,0,0,1,16.356,29.6h0l8.286,8.244a1.948,1.948,0,0,1-.022,2.516,1.97,1.97,0,0,1-.961.6ZM26.8,50.411,22.07,60.692c-.554-.408-1.092-.912-1.688-1.377h0a24.084,24.084,0,0,1-3.425-3.791A25.14,25.14,0,0,1,13.6,48.919l11.563-1.263a1.936,1.936,0,0,1,1.757,1.594A3.021,3.021,0,0,1,26.8,50.411Zm9.833,14.635h0a22.73,22.73,0,0,1-9.641-1.641L33,53.454A1.893,1.893,0,0,1,35.371,53a2.381,2.381,0,0,1,.766.7l5.224,10.538A14.091,14.091,0,0,1,36.628,65.046Zm2.434-32.129a1.769,1.769,0,0,1-.336-.83l-.175-11.756a22.294,22.294,0,0,1,11.025,5.38h0c.581.566,1.119,1.07,1.7,1.636L41.7,33.433A1.965,1.965,0,0,1,39.063,32.917ZM51.884,57.645h0a21.783,21.783,0,0,1-5.509,4.587L42.424,51.407a1.914,1.914,0,0,1,1.033-2.442,1.667,1.667,0,0,1,.887-.1l11.388,2.615A22.348,22.348,0,0,1,51.884,57.645Zm5.264-11.472L46.254,42.308A1.965,1.965,0,0,1,45.117,40a1.554,1.554,0,0,1,.42-.749l8.986-7.268A22.23,22.23,0,0,1,57.148,46.173Z" transform="translate(-5.32 -3.358)" fill="#326de6"/>
      <g id="Group_7044" data-name="Group 7044" transform="translate(2.139 31.657)">
        <path id="Path_14270" data-name="Path 14270" d="M61.834,26.59l-.01.015c.042-.306.086-.61.114-.917-1.762,2.214-11.225,12.937-23.7,5.378-15.25-9.243-13.2-14.875-24.078-14.9a11.331,11.331,0,0,0-7.738,3.366A27.213,27.213,0,0,0,13.06,41.153l0,.01.032.035c.425.474.867.939,1.33,1.389l.074.074q.712.689,1.478,1.33l.054.047q.782.652,1.624,1.253l.03.022c.571.408,1.162.8,1.772,1.166a28.372,28.372,0,0,0,5.091,2.432q1.309.467,2.642.8A28.438,28.438,0,0,0,43.146,49.1q1.271-.426,2.5-.969c.41-.183.813-.373,1.213-.573q1.2-.6,2.345-1.322.571-.356,1.124-.746a27.4,27.4,0,0,0,4.493-3.937l.094-.1c.319-.348.63-.709.932-1.077.059-.069.119-.141.175-.213.284-.351.559-.714.828-1.082.052-.074.109-.146.163-.22.306-.432.605-.875.892-1.33l.01-.015.007-.015c.257-.408.5-.823.732-1.241l.047-.086c.044-.082.084-.163.129-.242.173-.321.339-.643.5-.966l.082-.168c.042-.089.084-.175.124-.264.141-.3.274-.6.4-.9l.074-.178.044-.111.074-.175c.124-.311.242-.625.356-.939l.025-.074a26.844,26.844,0,0,0,1.117-4.132l-.025.064c.017-.1.032-.2.049-.3.015-.079.035-.158.047-.237l-.01.025c.04-.247.077-.492.111-.739C61.809,26.75,61.824,26.669,61.834,26.59Z" transform="translate(-6.184 -16.168)" fill="#fff"/>
        <g id="Group_7043" data-name="Group 7043" transform="translate(0 1.463)">
          <path id="Path_14271" data-name="Path 14271" d="M19.457,47.071A28.225,28.225,0,0,0,57.9,38.115a27.015,27.015,0,0,0,4.033-11.835c-1.762,2.214-11.225,12.937-23.7,5.378-15.25-9.243-13.2-14.875-24.078-14.9a11.331,11.331,0,0,0-7.738,3.366A27.291,27.291,0,0,0,19.457,47.071Z" transform="translate(-6.186 -16.76)" fill="url(#linear-gradient)"/>
          <path id="Path_14272" data-name="Path 14272" d="M54.852,31.912a27.072,27.072,0,0,0,3.929-10.936c-2.469,4.172-9.253,13.585-25.43,8.41-5.462-1.747-15.3-12.09-22.1-6.178-3.877,3.373-3.648,7.928-1.243,12.344a27.871,27.871,0,0,0,6.4,5.316A28.225,28.225,0,0,0,54.852,31.912Z" transform="translate(-3.134 -10.557)" fill="url(#linear-gradient-2)"/>
          <path id="Path_14273" data-name="Path 14273" d="M49.129,31.2A27.087,27.087,0,0,0,52.9,21.363a18.317,18.317,0,0,1-2.442,4.043c-2.835,3.709-9.369,10.681-25.311,7.767-11.01-2.012-14.512,2.269-12.394,8.116A28.212,28.212,0,0,0,49.129,31.2Z" transform="translate(2.611 -9.988)" fill="url(#linear-gradient-3)"/>
          <path id="Path_14274" data-name="Path 14274" d="M40.62,30.973a27.115,27.115,0,0,0,3.7-9.482c-.336.939-5.143,9.883-14.287,11.87-11.467,2.491-12.315,4.866-12.055,7.614a5.387,5.387,0,0,0,1.068,2.951A27.964,27.964,0,0,0,40.62,30.973Z" transform="translate(11.114 -9.799)" fill="url(#linear-gradient-4)"/>
        </g>
      </g>
    </g>
  </g>
</svg>
