<svg xmlns="http://www.w3.org/2000/svg" xmlns:xlink="http://www.w3.org/1999/xlink" width="252.048" height="244" viewBox="0 0 252.048 244">
  <defs>
    <filter id="Polygon_2" x="0" y="0" width="252.048" height="244" filterUnits="userSpaceOnUse">
      <feOffset dy="4" input="SourceAlpha"/>
      <feGaussianBlur stdDeviation="12.5" result="blur"/>
      <feFlood flood-color="#0f5064" flood-opacity="0.122"/>
      <feComposite operator="in" in2="blur"/>
      <feComposite in="SourceGraphic"/>
    </filter>
    <linearGradient id="linear-gradient" y1="0.5" x2="1" y2="0.5" gradientUnits="objectBoundingBox">
      <stop offset="0" stop-color="#fff"/>
      <stop offset="0" stop-color="#46cdcf"/>
      <stop offset="1" stop-color="#f6fcff" stop-opacity="0"/>
    </linearGradient>
  </defs>
  <g id="Group_9013" data-name="Group 9013" transform="translate(-1535.5 -363.5)">
    <g transform="matrix(1, 0, 0, 1, 1535.5, 363.5)" filter="url(#Polygon_2)">
      <path id="Polygon_2-2" data-name="Polygon 2" d="M86.391,1.005a5,5,0,0,1,4.265,0l66.67,31.435a5,5,0,0,1,2.737,3.387l16.427,70.466a5,5,0,0,1-.993,4.293l-46.077,56.57A5,5,0,0,1,125.544,169H51.5a5,5,0,0,1-3.877-1.842L1.55,110.587a5,5,0,0,1-.993-4.293L16.984,35.828a5,5,0,0,1,2.737-3.387Z" transform="translate(37.5 33.5)" fill="#fff"/>
    </g>
    <g id="searchlight_icon" data-name="searchlight icon" transform="translate(1617.947 440.23)">
      <path id="Path_2419" data-name="Path 2419" d="M5,19.38a253.7,253.7,0,0,1,34.47,0A175.668,175.668,0,0,1,5,19.38Z" transform="translate(16.369 59.637)" fill="#46cdcf"/>
      <path id="Path_2420" data-name="Path 2420" d="M23.139,19.9a71.224,71.224,0,0,1-16.029,0V19.43H23.1Z" transform="translate(23.35 61.742)" fill="#46cdcf"/>
      <path id="Path_2421" data-name="Path 2421" d="M13,4.35c3.749,15.77,11.849,24,27.705,26.154" transform="translate(42.839 11.845)" fill="none" stroke="#000" stroke-miterlimit="10" stroke-width="0.03"/>
      <path id="Path_2422" data-name="Path 2422" d="M12.89,7.82c1.25,5.817,17.752,19.691,25.853,20.337" transform="translate(42.475 23.327)" fill="none" stroke="#000" stroke-miterlimit="10" stroke-width="0.03"/>
      <path id="Path_2423" data-name="Path 2423" d="M12.13,10.77a20.294,20.294,0,0,0,13.314,10.3" transform="translate(39.96 33.088)" fill="none" stroke="#000" stroke-miterlimit="10" stroke-width="0.03"/>
      <path id="Path_2424" data-name="Path 2424" d="M6.905,6.485a3.1,3.1,0,0,1,2.154.9c1.163,1.034,1.767,1.077,2.628,0A12.926,12.926,0,0,1,9.706,5.8C8.629,4.46,7.379,4.848,6.086,4.977s-1.12.6-1.206.6l.948.948Z" transform="translate(15.972 13.416)" fill="#ff2e63"/>
      <path id="Path_2425" data-name="Path 2425" d="M4.81,6.982l.819-.388c0-.259.3-.388.646-.474L5.112,5V6.034a2.5,2.5,0,0,0,0,.819h0Z" transform="translate(15.74 13.996)" fill="#ff2e63"/>
      <path id="Path_2426" data-name="Path 2426" d="M9.63,8.353V10.68L49.7,23.951V.77Z" transform="translate(31.688 0)" fill="url(#linear-gradient)"/>
      <path id="Path_2427" data-name="Path 2427" d="M10.154,18h0L2.1,18.56a.819.819,0,0,0-.517,0h0a.69.69,0,0,0,.431,0c3.1,0,42.7,1.508,63.124,0h.819a.6.6,0,0,1-.431-.215h-.259L54.233,18h-.259C48.632,18.689,10.154,18,10.154,18Z" transform="translate(5.053 57.01)" fill="#46cdcf"/>
      <path id="Path_2428" data-name="Path 2428" d="M9.29,3.2Z" transform="translate(30.563 8.04)"/>
      <path id="Path_2429" data-name="Path 2429" d="M8.463,3.552h0v-.3A2.759,2.759,0,0,0,8.463,3.552Z" transform="translate(27.814 8.206)"/>
      <path id="Path_2430" data-name="Path 2430" d="M9.534,3.09H9.06l.991.345A2.8,2.8,0,0,0,9.534,3.09Z" transform="translate(29.802 7.676)" fill="#0b102d"/>
      <path id="Path_2431" data-name="Path 2431" d="M9.92,3.285A3.232,3.232,0,0,0,8.8,3.07v.517Z" transform="translate(28.942 7.61)" fill="#0b102d"/>
      <path id="Path_2432" data-name="Path 2432" d="M11.871,3.655,10.88,3.31l-.991.3V3.095A1.163,1.163,0,0,0,8.51,3.87v.3l3.576-.517Z" transform="translate(27.983 7.585)" fill="#0b102d"/>
      <path id="Path_2433" data-name="Path 2433" d="M7.529,13.72,7.27,15.142l1.9.043.215-1.465Z" transform="translate(23.88 42.849)" fill="none"/>
      <path id="Path_2434" data-name="Path 2434" d="M7.158,16.262H9.14L9.4,14.883C7.114,14.409,7.114,14.409,7.158,16.262Z" transform="translate(23.475 45.822)" fill="none"/>
      <path id="Path_2435" data-name="Path 2435" d="M9.448,13.27H7.639L7.38,14.692l1.81.043Z" transform="translate(24.244 41.36)" fill="none"/>
      <path id="Path_2436" data-name="Path 2436" d="M7.469,14.18,7.21,15.6l1.9.043.259-1.465Z" transform="translate(23.681 44.371)" fill="none"/>
      <path id="Path_2437" data-name="Path 2437" d="M9.449,12.32H7.769L7.51,13.742l1.724.043Z" transform="translate(24.674 38.216)" fill="none"/>
      <path id="Path_2438" data-name="Path 2438" d="M8.069,14.18,7.81,15.6l1.9.043.215-1.465Z" transform="translate(25.666 44.371)" fill="none"/>
      <path id="Path_2439" data-name="Path 2439" d="M7.43,14.222l1.853.043L9.5,12.8H7.689Z" transform="translate(24.409 39.805)" fill="none"/>
      <path id="Path_2440" data-name="Path 2440" d="M9.857,16.063V14.728c-2.2-.259-2.2-.259-2.025,1.336Z" transform="translate(25.516 45.762)" fill="none"/>
      <path id="Path_2441" data-name="Path 2441" d="M9.934,12.9l.215-1.465H8.425L8.21,12.862Z" transform="translate(26.99 35.305)" fill="none"/>
      <path id="Path_2442" data-name="Path 2442" d="M15.719,10.89,9.73,21.016A7.971,7.971,0,0,0,15.719,10.89Z" transform="translate(32.019 33.485)" fill="none"/>
      <path id="Path_2443" data-name="Path 2443" d="M12.837,20.531A12.926,12.926,0,0,0,13.31,7.82C10.854,11.827,12.276,16.007,12.837,20.531Z" transform="translate(39.254 23.327)" fill="none"/>
      <path id="Path_2444" data-name="Path 2444" d="M13.867,17.858V5.75h-.431a15.081,15.081,0,0,0,.431,12.108Z" transform="translate(40.765 16.478)" fill="none"/>
      <path id="Path_2445" data-name="Path 2445" d="M11.273,8.95A5.9,5.9,0,0,0,16.53,4.9h0l-5.3,4.05Z" transform="translate(36.982 13.665)" fill="none"/>
      <path id="Path_2446" data-name="Path 2446" d="M11.12,21.753A9.91,9.91,0,0,0,13.662,9.43C11.68,13.351,12.326,17.617,11.12,21.753Z" transform="translate(36.618 28.654)" fill="none"/>
      <path id="Path_2447" data-name="Path 2447" d="M16.713,6.19,9,12.352A11.375,11.375,0,0,0,16.713,6.19Z" transform="translate(29.604 17.934)" fill="none"/>
      <path id="Path_2448" data-name="Path 2448" d="M10.024,13.73h-1.9L7.87,15.152l1.939.043Z" transform="translate(25.865 42.882)" fill="none"/>
      <path id="Path_2449" data-name="Path 2449" d="M9.629,38.161l.431-.3C9.629,27.174,9.155,16.618,8.81,8V37.214C8.853,37.515,9.629,37.817,9.629,38.161Z" transform="translate(28.975 23.922)" fill="none"/>
      <path id="Path_2450" data-name="Path 2450" d="M9.99,10.59H8.525L8.31,12.012l1.508.043Z" transform="translate(27.321 32.492)" fill="none"/>
      <path id="Path_2451" data-name="Path 2451" d="M10.017,11.04H8.465L8.25,12.462,9.8,12.5Z" transform="translate(27.122 33.981)" fill="none"/>
      <path id="Path_2452" data-name="Path 2452" d="M26.784,17.15H6.49a62.95,62.95,0,0,0,9.953.732h0a82.47,82.47,0,0,0,10.686-.732Z" transform="translate(21.299 54.198)" fill="none"/>
      <path id="Path_2453" data-name="Path 2453" d="M26.294,17.61H6.56a70.1,70.1,0,0,0,9.91.689h.215a88.071,88.071,0,0,0,10.083-.689Z" transform="translate(21.53 55.72)" fill="none"/>
      <path id="Path_2454" data-name="Path 2454" d="M16.39,17.442A72,72,0,0,0,26.43,16.71H6.48a61.228,61.228,0,0,0,9.695.732Z" transform="translate(21.266 52.742)" fill="none"/>
      <path id="Path_2455" data-name="Path 2455" d="M36.292,22.452h0l-12.625-.474A7.885,7.885,0,0,1,18.41,20c-1.551-1.465-3.188-2.8-4.826-4.309a2.973,2.973,0,0,0-1.077-.776L1.52,13.49v.431h0l8.618,1.25a6.894,6.894,0,0,1,4.309,1.853,63.341,63.341,0,0,0,5.127,4.7,2.628,2.628,0,0,0,1.163.56,72.172,72.172,0,0,0,15.555.172Z" transform="translate(4.854 42.088)" fill="none"/>
      <path id="Path_2456" data-name="Path 2456" d="M5.331,28.865h.431L4.9,9.82V27.529a3.835,3.835,0,0,0,.431,1.336Z" transform="translate(16.038 29.944)" fill="none"/>
      <path id="Path_2457" data-name="Path 2457" d="M27.814,16.27H6.27a73.681,73.681,0,0,0,10.987.776h0a80.833,80.833,0,0,0,11.117-.776Z" transform="translate(20.571 51.286)" fill="none"/>
      <path id="Path_2458" data-name="Path 2458" d="M9.985,13.28H8.219L7.96,14.7l1.81.043Z" transform="translate(26.163 41.393)" fill="none"/>
      <path id="Path_2459" data-name="Path 2459" d="M18.842,18.551c-3.016.431-6.032.689-9.092,1.034a35.72,35.72,0,0,0,13.486-1.508,7.8,7.8,0,0,0,4.826-4.007,13.357,13.357,0,0,1-9.221,4.481Z" transform="translate(32.085 44.007)" fill="none"/>
      <path id="Path_2460" data-name="Path 2460" d="M8.319,12.33,8.06,13.752l1.724.043L10,12.33Z" transform="translate(26.494 38.249)" fill="none"/>
      <path id="Path_2461" data-name="Path 2461" d="M6.27,25.119c0,2.887,2.5,3.533,4.309,5.041.776-5.558,1.465-10.815,2.2-16.072.388-2.8.431-2.8-2.284-3.749a31.239,31.239,0,0,1-2.93,7.153,8.618,8.618,0,0,0-1.293,7.5Z" transform="translate(19.408 31.665)" fill="none"/>
      <path id="Path_2462" data-name="Path 2462" d="M10.079,11.9H8.4L8.14,13.322l1.724.043Z" transform="translate(26.758 36.827)" fill="none"/>
      <path id="Path_2463" data-name="Path 2463" d="M8.269,12.81,8.01,14.232l1.81.043.259-1.465Z" transform="translate(26.328 39.838)" fill="none"/>
      <path id="Path_2464" data-name="Path 2464" d="M9.6,11.43H7.875L7.66,12.852l1.724.043Z" transform="translate(25.17 35.272)" fill="none"/>
      <path id="Path_2465" data-name="Path 2465" d="M12.451,5.572V2.47H11.288v.259H8.53V5.615a.646.646,0,0,0,.646.646H10.21a.732.732,0,0,0,.732-.56V5.271H11.2v.259h1.163Zm-1.9-.345h0v.259a.474.474,0,0,1-.431.345H9.047a.3.3,0,0,1-.3-.3V5.314h1.81ZM9.392,3.849H9.78v.259h-.6V3.892h.345Zm1.982.3h0s.043-.086.043,0Zm0,0Z" transform="translate(28.049 5.625)" fill="#0b102d"/>
      <path id="Path_2466" data-name="Path 2466" d="M9.529,11.89H7.805L7.59,13.312l1.724.043Z" transform="translate(24.938 36.794)" fill="none"/>
      <path id="Path_2467" data-name="Path 2467" d="M9.52,10.58H8.012L7.84,12l1.465.043Z" transform="translate(25.766 32.459)" fill="none"/>
      <path id="Path_2468" data-name="Path 2468" d="M9.484,11.03H7.932L7.76,12.452l1.551.043Z" transform="translate(25.501 33.948)" fill="none"/>
      <path id="Path_2469" data-name="Path 2469" d="M5.953,9h0l-.6.474h0Z" transform="translate(17.527 27.231)"/>
      <path id="Path_2470" data-name="Path 2470" d="M4.9,9.71l-.431.345.388-.3Z" transform="translate(14.615 29.58)"/>
      <path id="Path_2471" data-name="Path 2471" d="M8.832,9h0l-.56.431h0l-3.4,2.715h0l-.388.3h0Z" transform="translate(14.648 27.231)"/>
      <path id="Path_2472" data-name="Path 2472" d="M7.469,14.18,7.21,15.6l1.9.043.259-1.465Z" transform="translate(23.681 44.371)" fill="none"/>
      <path id="Path_2473" data-name="Path 2473" d="M9.448,13.27H7.639L7.38,14.692l1.81.043Z" transform="translate(24.244 41.36)" fill="none"/>
      <path id="Path_2474" data-name="Path 2474" d="M7.158,16.262H9.14L9.4,14.883C7.114,14.409,7.114,14.409,7.158,16.262Z" transform="translate(23.475 45.822)" fill="none"/>
      <path id="Path_2475" data-name="Path 2475" d="M9.449,12.32H7.769L7.51,13.742l1.724.043Z" transform="translate(24.674 38.216)" fill="none"/>
      <path id="Path_2476" data-name="Path 2476" d="M9.857,16.063V14.728c-2.2-.259-2.2-.259-2.025,1.336Z" transform="translate(25.516 45.762)" fill="none"/>
      <path id="Path_2477" data-name="Path 2477" d="M8.069,14.18,7.81,15.6l1.9.043.215-1.465Z" transform="translate(25.666 44.371)" fill="none"/>
      <path id="Path_2478" data-name="Path 2478" d="M9.934,12.9l.215-1.465H8.425L8.21,12.862Z" transform="translate(26.99 35.305)" fill="none"/>
      <path id="Path_2479" data-name="Path 2479" d="M7.43,14.222l1.853.043L9.5,12.8H7.689Z" transform="translate(24.409 39.805)" fill="none"/>
      <path id="Path_2480" data-name="Path 2480" d="M10.024,13.73h-1.9L7.87,15.152l1.939.043Z" transform="translate(25.865 42.882)" fill="none"/>
      <path id="Path_2481" data-name="Path 2481" d="M12.837,20.531A12.926,12.926,0,0,0,13.31,7.82C10.854,11.827,12.276,16.007,12.837,20.531Z" transform="translate(39.254 23.327)" fill="none"/>
      <path id="Path_2482" data-name="Path 2482" d="M13.867,17.858V5.75h-.431a15.081,15.081,0,0,0,.431,12.108Z" transform="translate(40.765 16.478)" fill="none"/>
      <path id="Path_2483" data-name="Path 2483" d="M11.12,21.753A9.91,9.91,0,0,0,13.662,9.43C11.68,13.351,12.326,17.617,11.12,21.753Z" transform="translate(36.618 28.654)" fill="none"/>
      <path id="Path_2484" data-name="Path 2484" d="M11.23,6.436h0l.991-.776Z" transform="translate(36.982 16.18)" fill="none"/>
      <path id="Path_2485" data-name="Path 2485" d="M11.24,8.95A5.9,5.9,0,0,0,16.5,4.9h-.3L12.231,7.959l-.991.776Z" transform="translate(37.015 13.665)" fill="none"/>
      <path id="Path_2486" data-name="Path 2486" d="M11.055,6.19l-.345.259Z" transform="translate(35.262 17.934)" fill="none"/>
      <path id="Path_2487" data-name="Path 2487" d="M9.474,12.265A11.978,11.978,0,0,0,16.713,6.19l-.345.259L9,12.352H9l.9-.732Z" transform="translate(29.604 17.934)" fill="none"/>
      <path id="Path_2488" data-name="Path 2488" d="M8.845,35.989c0,.3.56.6.819.948l.431-.3L8.845,8.37h0C8.8,16.514,8.8,26.251,8.845,35.989Z" transform="translate(28.983 25.147)" fill="none"/>
      <path id="Path_2489" data-name="Path 2489" d="M9.99,10.59H8.525L8.31,12.012l1.508.043Z" transform="translate(27.321 32.492)" fill="none"/>
      <path id="Path_2490" data-name="Path 2490" d="M15.719,10.89,9.73,21.016A7.971,7.971,0,0,0,15.719,10.89Z" transform="translate(32.019 33.485)" fill="none"/>
      <path id="Path_2491" data-name="Path 2491" d="M10.017,11.04H8.465L8.25,12.462,9.8,12.5Z" transform="translate(27.122 33.981)" fill="none"/>
      <path id="Path_2492" data-name="Path 2492" d="M7.529,13.72,7.27,15.142l1.9.043.215-1.465Z" transform="translate(23.88 42.849)" fill="none"/>
      <path id="Path_2493" data-name="Path 2493" d="M26.784,17.15H6.49a62.95,62.95,0,0,0,9.953.732h0a82.47,82.47,0,0,0,10.686-.732Z" transform="translate(21.299 54.198)" fill="none"/>
      <path id="Path_2494" data-name="Path 2494" d="M16.39,17.442A72,72,0,0,0,26.43,16.71H6.48a61.228,61.228,0,0,0,9.695.732Z" transform="translate(21.266 52.742)" fill="none"/>
      <path id="Path_2495" data-name="Path 2495" d="M26.294,17.61H6.56a70.1,70.1,0,0,0,9.91.689h.215a88.071,88.071,0,0,0,10.083-.689Z" transform="translate(21.53 55.72)" fill="none"/>
      <path id="Path_2496" data-name="Path 2496" d="M36.292,22.452h0l-12.625-.474A7.885,7.885,0,0,1,18.41,20c-1.551-1.465-3.188-2.8-4.826-4.309a2.973,2.973,0,0,0-1.077-.776L1.52,13.49v.431h0l8.618,1.25a6.894,6.894,0,0,1,4.309,1.853,63.341,63.341,0,0,0,5.127,4.7,2.628,2.628,0,0,0,1.163.56,72.172,72.172,0,0,0,15.555.172Z" transform="translate(4.854 42.088)" fill="none"/>
      <path id="Path_2497" data-name="Path 2497" d="M5.331,28.865h.431L4.9,9.82V27.529a3.835,3.835,0,0,0,.431,1.336Z" transform="translate(16.038 29.944)" fill="none"/>
      <path id="Path_2498" data-name="Path 2498" d="M27.814,16.27H6.27a73.681,73.681,0,0,0,10.987.776h0a80.833,80.833,0,0,0,11.117-.776Z" transform="translate(20.571 51.286)" fill="none"/>
      <path id="Path_2499" data-name="Path 2499" d="M18.842,18.551c-3.016.431-6.032.689-9.092,1.034a35.72,35.72,0,0,0,13.486-1.508,7.8,7.8,0,0,0,4.826-4.007,13.357,13.357,0,0,1-9.221,4.481Z" transform="translate(32.085 44.007)" fill="none"/>
      <path id="Path_2500" data-name="Path 2500" d="M9.529,11.89H7.805L7.59,13.312l1.724.043Z" transform="translate(24.938 36.794)" fill="none"/>
      <path id="Path_2501" data-name="Path 2501" d="M9.52,10.58H8.012L7.84,12l1.465.043Z" transform="translate(25.766 32.459)" fill="none"/>
      <path id="Path_2502" data-name="Path 2502" d="M10.079,11.9H8.4L8.14,13.322l1.724.043Z" transform="translate(26.758 36.827)" fill="none"/>
      <path id="Path_2503" data-name="Path 2503" d="M8.319,12.33,8.06,13.752l1.724.043L10,12.33Z" transform="translate(26.494 38.249)" fill="none"/>
      <path id="Path_2504" data-name="Path 2504" d="M8.269,12.81,8.01,14.232l1.81.043.259-1.465Z" transform="translate(26.328 39.838)" fill="none"/>
      <path id="Path_2505" data-name="Path 2505" d="M9.985,13.28H8.219L7.96,14.7l1.81.043Z" transform="translate(26.163 41.393)" fill="none"/>
      <path id="Path_2506" data-name="Path 2506" d="M9.484,11.03H7.932L7.76,12.452l1.551.043Z" transform="translate(25.501 33.948)" fill="none"/>
      <path id="Path_2507" data-name="Path 2507" d="M6.27,25.119c0,2.887,2.5,3.533,4.309,5.041.776-5.558,1.465-10.815,2.2-16.072.388-2.8.431-2.8-2.284-3.749a31.239,31.239,0,0,1-2.93,7.153,8.618,8.618,0,0,0-1.293,7.5Z" transform="translate(19.408 31.665)" fill="none"/>
      <path id="Path_2508" data-name="Path 2508" d="M9.6,11.43H7.875L7.66,12.852l1.724.043Z" transform="translate(25.17 35.272)" fill="none"/>
      <path id="Path_2509" data-name="Path 2509" d="M8.82,10.918,10.07,7.6,9.6,7.686l-.6.474v2.758Z" transform="translate(29.008 22.599)" fill="#111738"/>
      <path id="Path_2510" data-name="Path 2510" d="M9.934,12.9l.215-1.465H8.425L8.21,12.862Z" transform="translate(26.99 35.305)" fill="none" stroke="#fff" stroke-miterlimit="10" stroke-width="1"/>
      <path id="Path_2511" data-name="Path 2511" d="M7.832,16.063H9.857V14.728C7.659,14.469,7.659,14.469,7.832,16.063Z" transform="translate(25.516 45.762)" fill="none" stroke="#fff" stroke-miterlimit="10" stroke-width="1"/>
      <path id="Path_2512" data-name="Path 2512" d="M8.069,14.18,7.81,15.6l1.9.043.215-1.465Z" transform="translate(25.666 44.371)" fill="none" stroke="#fff" stroke-miterlimit="10" stroke-width="1"/>
      <path id="Path_2513" data-name="Path 2513" d="M10.024,13.73h-1.9L7.87,15.152l1.939.043Z" transform="translate(25.865 42.882)" fill="none" stroke="#fff" stroke-miterlimit="10" stroke-width="1"/>
      <path id="Path_2514" data-name="Path 2514" d="M10.079,11.9H8.4L8.14,13.322l1.724.043Z" transform="translate(26.758 36.827)" fill="none" stroke="#fff" stroke-miterlimit="10" stroke-width="1"/>
      <path id="Path_2515" data-name="Path 2515" d="M9.985,13.28H8.219L7.96,14.7l1.81.043Z" transform="translate(26.163 41.393)" fill="none" stroke="#fff" stroke-miterlimit="10" stroke-width="1"/>
      <path id="Path_2516" data-name="Path 2516" d="M8.319,12.33,8.06,13.752l1.724.043L10,12.33Z" transform="translate(26.494 38.249)" fill="none" stroke="#fff" stroke-miterlimit="10" stroke-width="1"/>
      <path id="Path_2517" data-name="Path 2517" d="M8.269,12.81,8.01,14.232l1.81.043.259-1.465Z" transform="translate(26.328 39.838)" fill="none" stroke="#fff" stroke-miterlimit="10" stroke-width="1"/>
      <path id="Path_2518" data-name="Path 2518" d="M10.017,11.04H8.465L8.25,12.462,9.8,12.5Z" transform="translate(27.122 33.981)" fill="none" stroke="#fff" stroke-miterlimit="10" stroke-width="1"/>
      <path id="Path_2519" data-name="Path 2519" d="M12.837,20.531A12.926,12.926,0,0,0,13.31,7.82C10.854,11.827,12.276,16.007,12.837,20.531Z" transform="translate(39.254 23.327)" fill="none" stroke="#fff" stroke-miterlimit="10" stroke-width="1"/>
      <path id="Path_2520" data-name="Path 2520" d="M11.12,21.753A9.91,9.91,0,0,0,13.662,9.43C11.68,13.351,12.326,17.617,11.12,21.753Z" transform="translate(36.618 28.654)" fill="none" stroke="#fff" stroke-miterlimit="10" stroke-width="1"/>
      <path id="Path_2521" data-name="Path 2521" d="M15.852,10.89l-4.826,7.885h0L9.69,21.016A7.971,7.971,0,0,0,15.852,10.89Z" transform="translate(31.887 33.485)" fill="none" stroke="#fff" stroke-miterlimit="10" stroke-width="1"/>
      <path id="Path_2522" data-name="Path 2522" d="M6.27,25.089h0c0,2.887,2.5,3.533,4.309,5.041.776-5.558,1.465-10.815,2.2-16.072.388-2.8.431-2.8-2.284-3.749a31.239,31.239,0,0,1-2.93,7.282A8.618,8.618,0,0,0,6.27,25.089Z" transform="translate(19.408 31.566)" fill="none" stroke="#fff" stroke-miterlimit="10" stroke-width="1"/>
      <path id="Path_2523" data-name="Path 2523" d="M8.837,43.2c0,.3.56.6.819.948l.431-.3V41.091h0L8.837,15.583l1.25-3.318A11.978,11.978,0,0,0,17.326,6.19h0l-.345.259-7.368,5.9h0l-.6.474v2.93C8.794,23.727,8.794,33.465,8.837,43.2Z" transform="translate(28.991 17.934)" fill="none" stroke="#fff" stroke-miterlimit="10" stroke-width="1"/>
      <path id="Path_2524" data-name="Path 2524" d="M13.867,17.858V5.75h-.431a15.081,15.081,0,0,0,.431,12.108Z" transform="translate(40.765 16.478)" fill="none" stroke="#fff" stroke-miterlimit="10" stroke-width="1"/>
      <path id="Path_2525" data-name="Path 2525" d="M9.99,10.59H8.525L8.31,12.012l1.508.043Z" transform="translate(27.321 32.492)" fill="none" stroke="#fff" stroke-miterlimit="10" stroke-width="1"/>
      <path id="Path_2526" data-name="Path 2526" d="M9.52,10.58H8.012L7.84,12l1.465.043Z" transform="translate(25.766 32.459)" fill="none" stroke="#fff" stroke-miterlimit="10" stroke-width="1"/>
      <path id="Path_2527" data-name="Path 2527" d="M11.273,8.95A5.9,5.9,0,0,0,16.53,4.9h-.3L12.264,7.959l-1.034.776Z" transform="translate(36.982 13.665)" fill="none" stroke="#fff" stroke-miterlimit="10" stroke-width="1"/>
      <path id="Path_2528" data-name="Path 2528" d="M26.784,17.15H6.49a62.95,62.95,0,0,0,9.953.732h0a82.47,82.47,0,0,0,10.686-.732Z" transform="translate(21.299 54.198)" fill="none" stroke="#fff" stroke-miterlimit="10" stroke-width="1"/>
      <path id="Path_2529" data-name="Path 2529" d="M26.294,17.61H6.56a70.1,70.1,0,0,0,9.91.689h.215a88.071,88.071,0,0,0,10.083-.689Z" transform="translate(21.53 55.72)" fill="none" stroke="#fff" stroke-miterlimit="10" stroke-width="1"/>
      <path id="Path_2530" data-name="Path 2530" d="M36.292,22.452h0l-12.625-.474A7.885,7.885,0,0,1,18.41,20c-1.551-1.465-3.188-2.8-4.826-4.309a2.973,2.973,0,0,0-1.077-.776L1.52,13.49v.431h0l8.618,1.25a6.894,6.894,0,0,1,4.309,1.853,63.341,63.341,0,0,0,5.127,4.7,2.628,2.628,0,0,0,1.163.56,72.172,72.172,0,0,0,15.555.172Z" transform="translate(4.854 42.088)" fill="none" stroke="#fff" stroke-miterlimit="10" stroke-width="1"/>
      <path id="Path_2531" data-name="Path 2531" d="M16.39,17.442A72,72,0,0,0,26.43,16.71H6.48a61.228,61.228,0,0,0,9.695.732Z" transform="translate(21.266 52.742)" fill="none" stroke="#fff" stroke-miterlimit="10" stroke-width="1"/>
      <path id="Path_2532" data-name="Path 2532" d="M27.814,16.27H6.27a73.681,73.681,0,0,0,10.987.776h0a80.833,80.833,0,0,0,11.117-.776Z" transform="translate(20.571 51.286)" fill="none" stroke="#fff" stroke-miterlimit="10" stroke-width="1"/>
      <path id="Path_2533" data-name="Path 2533" d="M18.842,18.551c-3.016.431-6.032.689-9.092,1.034a35.72,35.72,0,0,0,13.486-1.508,7.8,7.8,0,0,0,4.826-4.007,13.357,13.357,0,0,1-9.221,4.481Z" transform="translate(32.085 44.007)" fill="none" stroke="#fff" stroke-miterlimit="10" stroke-width="1"/>
      <path id="Path_2534" data-name="Path 2534" d="M5.331,28.865h.431L4.9,9.82V27.529a3.835,3.835,0,0,0,.431,1.336Z" transform="translate(16.038 29.944)" fill="none" stroke="#fff" stroke-miterlimit="10" stroke-width="1"/>
      <path id="Path_2535" data-name="Path 2535" d="M9.14,16.156,9.4,14.777c-2.284-.259-2.284-.259-2.241,1.379Z" transform="translate(23.475 45.928)" fill="none" stroke="#fff" stroke-miterlimit="10" stroke-width="1"/>
      <path id="Path_2536" data-name="Path 2536" d="M9.449,12.32H7.769L7.51,13.742l1.724.043Z" transform="translate(24.674 38.216)" fill="none" stroke="#fff" stroke-miterlimit="10" stroke-width="1"/>
      <path id="Path_2537" data-name="Path 2537" d="M9.529,11.89H7.805L7.59,13.312l1.724.043Z" transform="translate(24.938 36.794)" fill="none" stroke="#fff" stroke-miterlimit="10" stroke-width="1"/>
      <path id="Path_2538" data-name="Path 2538" d="M9.6,11.43H7.875L7.66,12.852l1.724.043Z" transform="translate(25.17 35.272)" fill="none" stroke="#fff" stroke-miterlimit="10" stroke-width="1"/>
      <path id="Path_2539" data-name="Path 2539" d="M9.5,12.8H7.689L7.43,14.222l1.853.043Z" transform="translate(24.409 39.805)" fill="none" stroke="#fff" stroke-miterlimit="10" stroke-width="1"/>
      <path id="Path_2540" data-name="Path 2540" d="M9.484,11.03H7.932L7.76,12.452l1.551.043Z" transform="translate(25.501 33.948)" fill="none" stroke="#fff" stroke-miterlimit="10" stroke-width="1"/>
      <path id="Path_2541" data-name="Path 2541" d="M9.364,14.18h-1.9L7.21,15.6l1.9.043Z" transform="translate(23.681 44.371)" fill="none" stroke="#fff" stroke-miterlimit="10" stroke-width="1"/>
      <path id="Path_2542" data-name="Path 2542" d="M9.381,13.72H7.529L7.27,15.142l1.9.043Z" transform="translate(23.88 42.849)" fill="none" stroke="#fff" stroke-miterlimit="10" stroke-width="1"/>
      <path id="Path_2543" data-name="Path 2543" d="M9.448,13.27H7.639L7.38,14.692l1.81.043Z" transform="translate(24.244 41.36)" fill="none" stroke="#fff" stroke-miterlimit="10" stroke-width="1"/>
      <path id="Path_2544" data-name="Path 2544" d="M9.52,10.58H8.012L7.84,12l1.465.043Z" transform="translate(25.766 32.459)" fill="none"/>
      <path id="Path_2545" data-name="Path 2545" d="M9.985,13.28H8.219L7.96,14.7l1.81.043Z" transform="translate(26.163 41.393)" fill="none"/>
      <path id="Path_2546" data-name="Path 2546" d="M10.017,11.04H8.465L8.25,12.462,9.8,12.5Z" transform="translate(27.122 33.981)" fill="none"/>
      <path id="Path_2547" data-name="Path 2547" d="M8.069,14.18,7.81,15.6l1.9.043.215-1.465Z" transform="translate(25.666 44.371)" fill="none"/>
      <path id="Path_2548" data-name="Path 2548" d="M7.832,16.063H9.857V14.728C7.659,14.469,7.659,14.469,7.832,16.063Z" transform="translate(25.516 45.762)" fill="none"/>
      <path id="Path_2549" data-name="Path 2549" d="M10.079,11.9H8.4L8.14,13.322l1.724.043Z" transform="translate(26.758 36.827)" fill="none"/>
      <path id="Path_2550" data-name="Path 2550" d="M10.149,11.44H8.425L8.21,12.862l1.724.043Z" transform="translate(26.99 35.305)" fill="none"/>
      <path id="Path_2551" data-name="Path 2551" d="M8.319,12.33,8.06,13.752l1.724.043L10,12.33Z" transform="translate(26.494 38.249)" fill="none"/>
      <path id="Path_2552" data-name="Path 2552" d="M8.269,12.81,8.01,14.232l1.81.043.259-1.465Z" transform="translate(26.328 39.838)" fill="none"/>
      <path id="Path_2553" data-name="Path 2553" d="M10.024,13.73h-1.9L7.87,15.152l1.939.043Z" transform="translate(25.865 42.882)" fill="none"/>
      <path id="Path_2554" data-name="Path 2554" d="M13.867,17.858V5.75h-.431a15.081,15.081,0,0,0,.431,12.108Z" transform="translate(40.765 16.478)" fill="none"/>
      <path id="Path_2555" data-name="Path 2555" d="M11.12,21.753A9.91,9.91,0,0,0,13.662,9.43C11.68,13.351,12.326,17.617,11.12,21.753Z" transform="translate(36.618 28.654)" fill="none"/>
      <path id="Path_2556" data-name="Path 2556" d="M12.837,20.531A12.926,12.926,0,0,0,13.31,7.82C10.854,11.827,12.276,16.007,12.837,20.531Z" transform="translate(39.254 23.327)" fill="none"/>
      <path id="Path_2557" data-name="Path 2557" d="M9.99,10.59H8.525L8.31,12.012l1.508.043Z" transform="translate(27.321 32.492)" fill="none"/>
      <path id="Path_2558" data-name="Path 2558" d="M6.27,25.089h0c0,2.887,2.5,3.533,4.309,5.041.776-5.558,1.465-10.815,2.2-16.072.388-2.8.431-2.8-2.284-3.749a31.239,31.239,0,0,1-2.93,7.282A8.618,8.618,0,0,0,6.27,25.089Z" transform="translate(19.408 31.566)" fill="none"/>
      <path id="Path_2559" data-name="Path 2559" d="M8.837,43.2c0,.3.56.6.819.948l.431-.3V41.091L8.837,15.583l1.25-3.318A11.978,11.978,0,0,0,17.326,6.19h0l-.345.259-7.368,5.9h0l-.6.474v2.93C8.794,23.727,8.794,33.465,8.837,43.2Z" transform="translate(28.991 17.934)" fill="none"/>
      <path id="Path_2560" data-name="Path 2560" d="M11.273,8.95A5.9,5.9,0,0,0,16.53,4.9h-.3L12.264,7.959l-1.034.776Z" transform="translate(36.982 13.665)" fill="none"/>
      <path id="Path_2561" data-name="Path 2561" d="M15.852,10.89l-4.826,7.885L9.69,21.016A7.971,7.971,0,0,0,15.852,10.89Z" transform="translate(31.887 33.485)" fill="none"/>
      <path id="Path_2562" data-name="Path 2562" d="M18.842,18.551c-3.016.431-6.032.689-9.092,1.034a35.72,35.72,0,0,0,13.486-1.508,7.8,7.8,0,0,0,4.826-4.007,13.357,13.357,0,0,1-9.221,4.481Z" transform="translate(32.085 44.007)" fill="none"/>
      <path id="Path_2563" data-name="Path 2563" d="M36.292,22.452h0l-12.625-.474A7.885,7.885,0,0,1,18.41,20c-1.551-1.465-3.188-2.8-4.826-4.309a2.973,2.973,0,0,0-1.077-.776L1.52,13.49v.431h0l8.618,1.25a6.894,6.894,0,0,1,4.309,1.853,63.341,63.341,0,0,0,5.127,4.7,2.628,2.628,0,0,0,1.163.56,72.172,72.172,0,0,0,15.555.172Z" transform="translate(4.854 42.088)" fill="none"/>
      <path id="Path_2564" data-name="Path 2564" d="M9.484,11.03H7.932L7.76,12.452l1.551.043Z" transform="translate(25.501 33.948)" fill="none"/>
      <path id="Path_2565" data-name="Path 2565" d="M5.331,28.865h.431L4.9,9.82V27.529a3.835,3.835,0,0,0,.431,1.336Z" transform="translate(16.038 29.944)" fill="none"/>
      <path id="Path_2566" data-name="Path 2566" d="M26.784,17.15H6.49a62.95,62.95,0,0,0,9.953.732h0a82.47,82.47,0,0,0,10.686-.732Z" transform="translate(21.299 54.198)" fill="none"/>
      <path id="Path_2567" data-name="Path 2567" d="M27.814,16.27H6.27a73.681,73.681,0,0,0,10.987.776h0a80.833,80.833,0,0,0,11.117-.776Z" transform="translate(20.571 51.286)" fill="none"/>
      <path id="Path_2568" data-name="Path 2568" d="M16.39,17.442A72,72,0,0,0,26.43,16.71H6.48a61.228,61.228,0,0,0,9.695.732Z" transform="translate(21.266 52.742)" fill="none"/>
      <path id="Path_2569" data-name="Path 2569" d="M9.14,16.156,9.4,14.777c-2.284-.259-2.284-.259-2.241,1.379Z" transform="translate(23.475 45.928)" fill="none"/>
      <path id="Path_2570" data-name="Path 2570" d="M26.294,17.61H6.56a70.1,70.1,0,0,0,9.91.689h.215a88.071,88.071,0,0,0,10.083-.689Z" transform="translate(21.53 55.72)" fill="none"/>
      <path id="Path_2571" data-name="Path 2571" d="M9.449,12.32H7.769L7.51,13.742l1.724.043Z" transform="translate(24.674 38.216)" fill="none"/>
      <path id="Path_2572" data-name="Path 2572" d="M9.529,11.89H7.805L7.59,13.312l1.724.043Z" transform="translate(24.938 36.794)" fill="none"/>
      <path id="Path_2573" data-name="Path 2573" d="M9.6,11.43H7.875L7.66,12.852l1.724.043Z" transform="translate(25.17 35.272)" fill="none"/>
      <path id="Path_2574" data-name="Path 2574" d="M9.364,14.18h-1.9L7.21,15.6l1.9.043Z" transform="translate(23.681 44.371)" fill="none"/>
      <path id="Path_2575" data-name="Path 2575" d="M9.381,13.72H7.529L7.27,15.142l1.9.043Z" transform="translate(23.88 42.849)" fill="none"/>
      <path id="Path_2576" data-name="Path 2576" d="M9.5,12.8H7.689L7.43,14.222l1.853.043Z" transform="translate(24.409 39.805)" fill="none"/>
      <path id="Path_2577" data-name="Path 2577" d="M9.448,13.27H7.639L7.38,14.692l1.81.043Z" transform="translate(24.244 41.36)" fill="none"/>
      <path id="Path_2578" data-name="Path 2578" d="M9.747,17.319s0-1.379-.56-1.594c-1.12-.646-1.034-1.25-.431-2.2a6.937,6.937,0,0,0,1.077-2.284c.431-1.81-.3-2.715-1.982-2.8h-.6a11.332,11.332,0,0,1,0-2.973l-.517.259a6.722,6.722,0,0,1-.776,4.309v.431a30.089,30.089,0,0,0,.6,3.792c.172,1.293,0,1.465-1.25,1.594s-1.077.517-1.034.517a1.982,1.982,0,0,0,.732,1.508,3.619,3.619,0,0,1,.646,5.731l3.4-2.715C9.144,19.517,8.067,18.224,9.747,17.319Z" transform="translate(13.862 15.551)" fill="#0b102d"/>
      <path id="Path_2579" data-name="Path 2579" d="M12.286,20.564V16.256a2.715,2.715,0,0,1,.991-2.542l1.465-1.12V10.525l-1.422-.431L11.6,9.663c2.758-3.835,3.232-5.171,2.2-6.463l-3.533.517V8.974c0,.431-.6.948-1.034,1.163s-1.379.388-1.293,1.379-.215,1.767,1.034,2.025c.259,0,.6.776.56,1.163a33.608,33.608,0,0,0-1.293,7.67,3.275,3.275,0,0,1,0,.646h0C8.236,21.814,10.476,20.78,12.286,20.564Z" transform="translate(26.059 8.04)" fill="#0b102d"/>
      <path id="Path_2580" data-name="Path 2580" d="M67.085,41.1v-.3L86,29.463l-.3-.6a5.645,5.645,0,0,0-1.379.431c-3.1,1.767-6.162,3.662-9.264,5.429-4.309,2.327-8.273,4.524-12.452,6.765a4.309,4.309,0,0,1-1.293.3c-.862,0-1.163.388-1.379,1.25a9.005,9.005,0,0,1-8.618,6.98l-2.413.215H41.835c-.259-1.724-.517-3.4-.646-5.127a1.939,1.939,0,0,1,.819-1.422A21.759,21.759,0,0,0,54.2,29.119,49.077,49.077,0,0,0,55.02,8.781c-.215-1.508-.862-3.059,1.25-4.05L55.839,4.3,38.6,17.14h-.431L33.3,21.449h0a12.022,12.022,0,0,1-2.887,2.068,31.239,31.239,0,0,1-.431,6.808c2.715.948,2.671.948,2.284,3.749-.732,5.257-1.422,10.513-2.2,16.072-1.853-1.508-4.309-2.154-4.309-5.041h0a8.618,8.618,0,0,1,1.206-7.627,31.239,31.239,0,0,0,3.016-7.153,31.239,31.239,0,0,0,.689-7.239h0c0-1.594-.948-3.361.862-4.653a43.432,43.432,0,0,0-4.309,3.059L23.48,24.551h0l-4.61,3.619h0l-7.54,5.86A11.719,11.719,0,0,0,10.3,35.065l.345.345,4.007-3.145.3.388L12.32,34.978c5.084,1.81,8.618,6.162,7.885,10,0-1.293-.215-1.982-1.551-2.068-5,0-10-.646-14.995-.819-3.533,0-3.792.56-3.533,3.49a2.671,2.671,0,0,0,1.767,2.585,92.9,92.9,0,0,1,8.618,4.74,4.309,4.309,0,0,1,2.327,4.309,8.617,8.617,0,0,0,.9,3.318,19.606,19.606,0,0,0,1.637,2.887s39.081.776,43.95,0a17.838,17.838,0,0,0,8.618-11.634c.388-1.25.862-2.5,1.336-3.706a7.282,7.282,0,0,1,4.309-4.309c2.37-.948,4.826-1.81,7.239-2.671.776-.259,1.336-.474.776-1.508Zm-19.346-2.37c1.206-4.309.56-8.4,2.542-12.323a9.91,9.91,0,0,1-2.542,12.323Zm4.309-6.549c-.732-4.309-1.982-8.618.474-12.711a12.926,12.926,0,0,1-.431,12.711Zm2.542-9.522a15.081,15.081,0,0,1-.431-12.108h.431Zm-16.8-3.576.819-.474h0l7.583-5.9h0l.345-.259h0l1.939-1.508h0l1.034-.776h0l3.706-2.844,2.241-1.853L53.211,7.316h.3a5.9,5.9,0,0,1-5.257,4.05h0l-1.939,1.508a11.978,11.978,0,0,1-7.239,5.644l-1.25,3.318,1.12,25.508,4.309-6.765,4.653-7.885A7.971,7.971,0,0,1,41.922,42.82l1.336-2.241-4.309,6.765V50.1l-.345.3c-.259-.345-.819-.646-.819-.948V19.079ZM35.846,31.4h1.465v1.465h-1.68Zm-.259,1.767h1.551l-.215,1.465H35.372Zm-.215,14.995h-1.9l.259-1.422h1.9Zm0,.474v1.336H33.347c-.172-1.422-.172-1.422,2.025-1.163Zm-1.637-2.413.259-1.465h1.9v1.465Zm.56-1.81V42.993h1.767v1.465Zm2.025-1.982H34.3l.259-1.465h1.81Zm0-2.068H34.6l.259-1.465h1.68Zm-1.379-1.9.259-1.422h1.68l-.215,1.465Zm.3-1.982V35.065h1.724l-.215,1.465Zm-1.422-5.127h1.508l-.215,1.465H33.606Zm-.388,1.81h1.551v1.465H33.261Zm-.388,1.68h1.724v1.508H33.045Zm-.259,2.025H34.3v1.465H32.572ZM32.4,38.727h1.9v1.465H32.572ZM32.1,40.8h1.81V42.26H31.839Zm0,2.025h1.81l-.259,1.465H31.624Zm-.517,1.939h1.9v1.465H31.15Zm-.215,1.982h1.9L33,48.206H30.891Zm1.724,1.939L32.615,50.4H30.633c-.043-1.853-.043-1.853,2.241-1.594Zm-12.151-20.6.776,18.959h-.431a3.835,3.835,0,0,1-.474-1.336C20.765,39.891,20.765,33.987,20.938,28.084Zm3.49,24.043a63.337,63.337,0,0,1-5.515-4.567A6.894,6.894,0,0,0,14.6,45.707l-8.4-1.25h0v-.431l10.987,1.422a2.973,2.973,0,0,1,1.077.776,64,64,0,0,1,4.826,4.309,7.885,7.885,0,0,0,5.257,1.982l12.625.474h0a72.173,72.173,0,0,1-15.555,0,2.628,2.628,0,0,1-.991-.862ZM38.216,62.339H38a70.1,70.1,0,0,1-9.91-.689H48.3a88.071,88.071,0,0,1-10.083.689ZM37.828,60.4h0a62.95,62.95,0,0,1-9.953-.732H48.514a82.47,82.47,0,0,1-10.686.732ZM27.746,57.772H47.7a72,72,0,0,1-10.039.733h0a61.227,61.227,0,0,1-9.91-.732Zm10-1.12h0a73.678,73.678,0,0,1-10.987-.776H48.988a80.831,80.831,0,0,1-11.246.776ZM55.322,50.4A35.72,35.72,0,0,1,41.835,52c3.059-.345,6.075-.6,9.092-1.034a13.357,13.357,0,0,0,9.005-4.309,7.8,7.8,0,0,1-4.61,3.749Z" transform="translate(0 11.68)" fill="#111738"/>
      <path id="Path_2581" data-name="Path 2581" d="M7.82,9.437A3.576,3.576,0,0,0,8.6,7.8,4.309,4.309,0,0,1,7.82,9.437Z" transform="translate(25.699 23.261)" fill="#2b2e4a"/>
      <path id="Path_2582" data-name="Path 2582" d="M12.646,7.23c-1.81,0-3.878,1.25-4.093,2.327h0a3.576,3.576,0,0,1-.732,1.637h0Z" transform="translate(25.699 21.375)" fill="#111738"/>
      <circle id="Ellipse_161" data-name="Ellipse 161" cx="0.259" cy="0.259" r="0.259" transform="translate(36.966 11.456)" fill="#46cdcf"/>
      <circle id="Ellipse_162" data-name="Ellipse 162" cx="0.259" cy="0.259" r="0.259" transform="translate(37.957 11.456)" fill="#46cdcf"/>
    </g>
  </g>
</svg>
