<svg xmlns="http://www.w3.org/2000/svg" xmlns:xlink="http://www.w3.org/1999/xlink" width="252.048" height="244" viewBox="0 0 252.048 244">
  <defs>
    <filter id="Polygon_2" x="0" y="0" width="252.048" height="244" filterUnits="userSpaceOnUse">
      <feOffset dy="4" input="SourceAlpha"/>
      <feGaussianBlur stdDeviation="12.5" result="blur"/>
      <feFlood flood-color="#0f5064" flood-opacity="0.122"/>
      <feComposite operator="in" in2="blur"/>
      <feComposite in="SourceGraphic"/>
    </filter>
  </defs>
  <g id="Group_9011" data-name="Group 9011" transform="translate(-833.5 -363.5)">
    <g transform="matrix(1, 0, 0, 1, 833.5, 363.5)" filter="url(#Polygon_2)">
      <path id="Polygon_2-2" data-name="Polygon 2" d="M86.391,1.005a5,5,0,0,1,4.265,0l66.67,31.435a5,5,0,0,1,2.737,3.387l16.427,70.466a5,5,0,0,1-.993,4.293l-46.077,56.57A5,5,0,0,1,125.544,169H51.5a5,5,0,0,1-3.877-1.842L1.55,110.587a5,5,0,0,1-.993-4.293L16.984,35.828a5,5,0,0,1,2.737-3.387Z" transform="translate(37.5 33.5)" fill="#fff"/>
    </g>
    <g id="Group_7190" data-name="Group 7190" transform="translate(919.003 442.48)">
      <g id="Group_7197" data-name="Group 7197" transform="translate(3.997 7.52)">
        <path id="Path_3053" data-name="Path 3053" d="M6.35,19.509V16.146a2.354,2.354,0,0,1,.235-1.278c.572-.841,1.513-.336,2.186,0a27.543,27.543,0,0,0,3.161,1.345,38.506,38.506,0,0,0,6.423,1.715l2.623.471a90.092,90.092,0,0,0,19.269.841,75.463,75.463,0,0,0,12.039-1.614A30.569,30.569,0,0,0,60.56,14.6a1.244,1.244,0,0,1,1.984,1.177V22.2a1.244,1.244,0,0,1-1.917,1.211,16.512,16.512,0,0,0-19.2,3.9,15.6,15.6,0,0,0-2.589,3.6,2.186,2.186,0,0,1-.942,1.042,2.556,2.556,0,0,1-1.143.168,103.442,103.442,0,0,1-14.057-.841l-1.681-.235a33.629,33.629,0,0,1-10.829-3.195,9.013,9.013,0,0,1-2.623-1.984,6.457,6.457,0,0,1-1.177-4.574Z" transform="translate(1.529 8.605)" fill="#5e2dea"/>
        <path id="Path_3054" data-name="Path 3054" d="M32.375,36.6a84.408,84.408,0,0,1-13.922-1.547A25.894,25.894,0,0,1,8.9,31.686a5.28,5.28,0,0,1-2.556-4.2q0-3.581,0-7.163A1.244,1.244,0,0,1,8.33,19.176a35.277,35.277,0,0,0,11.03,3.363,92.043,92.043,0,0,0,16.108,1.345c.572,0,1.244,0,1.513.673a6.726,6.726,0,0,1,0,2.556,16.041,16.041,0,0,0,1.076,6.423,5.414,5.414,0,0,1,.5,2.051c0,.841-.841,1.076-1.581,1.076C35.469,36.73,33.889,36.663,32.375,36.6Z" transform="translate(1.533 19.43)" fill="#5e2dea"/>
        <path id="Path_3055" data-name="Path 3055" d="M17.471,29.646a11.131,11.131,0,1,1,11.131,11,11.131,11.131,0,0,1-11.131-11ZM28.6,21.373a8.306,8.306,0,1,0,8.407,8.306A8.306,8.306,0,0,0,28.6,21.373Z" transform="translate(27.837 18.141)" fill="#5e2dea"/>
        <path id="Path_3056" data-name="Path 3056" d="M20.45,21.143l.4-.3-.3-.235a1.009,1.009,0,0,0,.37-1.143,3.735,3.735,0,0,0-.336-.975,1.076,1.076,0,0,1,.235-1.244,1.177,1.177,0,0,1,1.278,0,1.11,1.11,0,0,1,.4,1.48,8.979,8.979,0,0,0-.3.874.942.942,0,0,0,.37,1.143l-.3.235.471.37H20.45Z" transform="translate(34.879 15.008)" fill="#5e2dea"/>
        <path id="Path_3057" data-name="Path 3057" d="M20.622,25.785l.269-.235-.471-.37h2.388l-.471.37.269.235a.942.942,0,0,0-.336,1.143,7.7,7.7,0,0,0,.3.942,1.076,1.076,0,0,1-.235,1.278,1.177,1.177,0,0,1-1.278,0,1.143,1.143,0,0,1-.4-1.48,4.506,4.506,0,0,0,.3-.874A.942.942,0,0,0,20.622,25.785Z" transform="translate(34.809 34.209)" fill="#5e2dea"/>
        <path id="Path_3058" data-name="Path 3058" d="M19.533,24.3h.4V24l1.412,1.513h-.471v.336a.942.942,0,0,0-1.009.5c-.168.269-.269.605-.4.874a1.177,1.177,0,0,1-1.177.807,1.11,1.11,0,0,1-.168-2.152,6.456,6.456,0,0,0,.841-.4.874.874,0,0,0,.572-1.177Z" transform="translate(27.558 31.421)" fill="#5e2dea"/>
        <path id="Path_3059" data-name="Path 3059" d="M23.437,25.867v-.4H23l1.412-1.513v.471h.336a.841.841,0,0,0,.471.942,8.207,8.207,0,0,0,.942.471,1.071,1.071,0,1,1-1.379,1.312,9.148,9.148,0,0,0-.37-.841A.942.942,0,0,0,23.437,25.867Z" transform="translate(40.905 31.302)" fill="#5e2dea"/>
        <path id="Path_3060" data-name="Path 3060" d="M23,20.71h.437v-.168a1.009,1.009,0,0,0,1.143-.673,9.416,9.416,0,0,1,.5-1.009.975.975,0,0,1,1.143-.471,1.11,1.11,0,0,1,.807,1.042,1.143,1.143,0,0,1-.673,1.11l-.673.3c-.471.235-.807.538-.706,1.143h-.37v.37L23,20.542Z" transform="translate(40.905 18.064)" fill="#5e2dea"/>
        <path id="Path_3061" data-name="Path 3061" d="M20.949,20.5v.37h.471l-1.446,1.581v-.437h-.437A.975.975,0,0,0,18.9,20.9c-.336-.2-.74-.336-1.042-.538a.975.975,0,0,1-.471-1.11,1.076,1.076,0,0,1,2.119,0,7.063,7.063,0,0,0,.437.874.908.908,0,0,0,1.009.37Z" transform="translate(27.554 18.109)" fill="#5e2dea"/>
        <path id="Path_3062" data-name="Path 3062" d="M24.707,23.453c0-.269-.235-.437-.437,0V21.637l.235.168.2-.269a1.009,1.009,0,0,0,1.211.336l.942-.336a1.143,1.143,0,0,1,1.244.269,1.11,1.11,0,0,1-1.379,1.48l-.942-.336A.908.908,0,0,0,24.707,23.453Z" transform="translate(43.906 25.409)" fill="#5e2dea"/>
        <path id="Path_3063" data-name="Path 3063" d="M19.645,21.43c0,.235.235.437.471,0v1.917h-.269l-.2.3a.942.942,0,0,0-1.143-.37,5.582,5.582,0,0,0-.975.336,1.11,1.11,0,0,1-1.244-.269,1.177,1.177,0,0,1,0-1.278,1.143,1.143,0,0,1,1.48-.4L18.67,22a.942.942,0,0,0,.975-.572Z" transform="translate(24.587 25.348)" fill="#5e2dea"/>
        <path id="Path_3064" data-name="Path 3064" d="M22.787,26.064a.942.942,0,0,0,.437-.841.437.437,0,0,0-.168-.235,1.379,1.379,0,0,1-.975-.639,8.043,8.043,0,0,1-.4-.74c-.3-.605-.3-.605-.975-.437V22.5h-.639v-.37a14.36,14.36,0,0,1,1.278-1.211h.235a.841.841,0,0,1,0,.269v.5h.673c0,.673,0,.673.5.975a2.657,2.657,0,0,1,.841.5,3.565,3.565,0,0,1,.639.773,1.38,1.38,0,0,1,0,.235,1.211,1.211,0,0,0,.605,0c.37-.168.437-.37.235-.74a1.177,1.177,0,0,1,0-1.009,8.237,8.237,0,0,1,.269-.975.486.486,0,0,0-.269-.706c-.269-.135,0,0-.2,0l.572-.538-.673-.5a6.221,6.221,0,0,1,2.489,0l-.605.572.538.5-.3.168a.336.336,0,0,0-.1.034,8.274,8.274,0,0,0,.3.975,1.95,1.95,0,0,1,0,1.312s0,.269,0,.3a2.186,2.186,0,0,0,.5.336c.4,0,.5,0,.639-.37a1.513,1.513,0,0,1,.706-.807l.639-.336c.639-.3.639-.3.5-.975h.673v-.437a.673.673,0,0,1,0-.235h.235a14.1,14.1,0,0,1,1.345,1.312,1.379,1.379,0,0,1,0,.3h-.773V23h0c-.572-.168-.572-.168-.874.4a3.767,3.767,0,0,1-.538.942,5.817,5.817,0,0,1-.841.706h-.269a1.917,1.917,0,0,0,0,.605c0,.37.437.37.706.2a1.076,1.076,0,0,1,1.009,0l.874.235c.605.2.572.2,1.009-.5l.37.639.5-.538c.3,0,.269.2.269.4,0,1.547,0,1.715-.235,1.883l-.5-.538-.471.538-.235-.269c0-.3-.3-.37-.639-.269a3.363,3.363,0,0,1-.841.269,1.581,1.581,0,0,1-1.581-.2v.2c-.4.471-.37.841,0,1.009a1.379,1.379,0,0,1,.74.706,3.161,3.161,0,0,1,.4.74c.3.572.3.572.942.37v.74h.74a.269.269,0,0,1,0,.235l-1.379,1.345c-.168,0-.269,0-.269-.168v-.538h-.74a1.244,1.244,0,0,0,0-.3c0-.269,0-.437-.235-.572L28.4,30.7a1.379,1.379,0,0,1-.673-.942c0-.2-.5-.235-.74,0l-.37.336a1.883,1.883,0,0,1,0,1.883v.3c-.2.639-.2.639.4,1.009l-.235.471.572.538a5.851,5.851,0,0,1-2.421,0l.605-.572-.538-.5h.269a.4.4,0,0,0,.235-.572,1.057,1.057,0,0,0-.269-.841,1.715,1.715,0,0,1,.2-1.648,2.925,2.925,0,0,0-.37-.3H24.6c-.3,0-.2.168-.269.3a1.715,1.715,0,0,1-.874.942l-.673.37c-.572.269-.572.269-.37.908h-.706a3.364,3.364,0,0,0,0,.572c0,.235,0,.3-.269.168l-1.379-1.345a.572.572,0,0,1,0-.269h.773v-.639h0c.605.168.572,0,.841-.37a5.683,5.683,0,0,1,.572-.975,4.44,4.44,0,0,1,.74-.605h.3a3.362,3.362,0,0,0,0-.605.443.443,0,0,0-.3-.37c-.74.572-1.48.235-2.253,0s-.605-.2-.975.5l-.471-.605-.572.572a.575.575,0,0,0-.168-.4c0-1.244,0-1.782.235-1.95l.5.538.5-.538v.269a.4.4,0,0,0,.572.235l.841-.269A1.782,1.782,0,0,1,22.787,26.064ZM26.15,24.45A2.388,2.388,0,0,0,23.83,26.8a2.354,2.354,0,0,0,2.32,2.388,2.421,2.421,0,0,0,2.388-2.32,2.455,2.455,0,0,0-2.522-2.522Z" transform="translate(30.39 20.983)" fill="#5e2dea"/>
        <path id="Path_3065" data-name="Path 3065" d="M21.961,21.25a1.681,1.681,0,1,1-1.681,1.681A1.681,1.681,0,0,1,21.961,21.25Zm.908,1.648a.942.942,0,0,0-.908-.942.874.874,0,0,0-.908.908.841.841,0,0,0,.874.908.874.874,0,0,0,.942-.874Z" transform="translate(34.478 24.923)" fill="#5e2dea"/>
        <path id="Path_3066" data-name="Path 3066" d="M59.341,21.342V15.356A2.892,2.892,0,0,0,58.4,13a14.023,14.023,0,0,0-2.791-1.883,32.486,32.486,0,0,0-9.08-2.489A91.335,91.335,0,0,0,33.346,7.52c-2.69,0-5.381,0-8.1.2s-4.708.269-7.062.605a12.443,12.443,0,0,1,1.009,2.489,73.075,73.075,0,0,1,10.728-.841,83.7,83.7,0,0,1,13.452.841,31.578,31.578,0,0,1,8.744,2.421,6.961,6.961,0,0,1,1.513.908c.841.673.874,1.379,0,1.917a15.47,15.47,0,0,1-3.363,1.681,46.307,46.307,0,0,1-11.333,2.186,84.508,84.508,0,0,1-11.669.235h0a8.542,8.542,0,0,1-8.643,8.643h-11l.773.37a27.105,27.105,0,0,0,5.65,1.85,74.992,74.992,0,0,0,13.99,1.648H31.4A96.347,96.347,0,0,0,42.628,32a37.563,37.563,0,0,0,13.115-3.363,7.6,7.6,0,0,0,2.993-2.421,8.374,8.374,0,0,0,.605-4.876Z" transform="translate(4.563 -7.52)" fill="#5e2dea"/>
        <path id="Path_3067" data-name="Path 3067" d="M29.129,12.1c1.85-.538,2.791-1.211,2.791-1.917s-1.581-.605-2.926-.437l-6.053,1.143c-1.312.2-1.11.605.3.773l1.749.235h-.5a34.537,34.537,0,0,1-9.45.4,13.183,13.183,0,0,1-1.749-.2,4.782,4.782,0,0,0,.37,1.11A45.5,45.5,0,0,0,29.129,12.1Z" transform="translate(17.961 -2.549)" fill="#5e2dea"/>
        <path id="Path_3068" data-name="Path 3068" d="M15.826,10.687l-1.85-.235h.807a33.629,33.629,0,0,1,13.889.4,6.726,6.726,0,0,0,2.993,0c.975,0,1.076-.471.2-.74a35.579,35.579,0,0,0-9.618-1.278A46.644,46.644,0,0,0,12.16,9.61a8.441,8.441,0,0,1,2.589,2.152l1.446-.235C17.642,11.292,17.507,10.888,15.826,10.687Z" transform="translate(15.291 -4.465)" fill="#5e2dea"/>
        <g id="backup" transform="translate(0 0.167)">
          <path id="Path_3069" data-name="Path 3069" d="M27.816,14.633A9.147,9.147,0,0,0,18.77,7.571a8.979,8.979,0,0,0-8.037,4.809,7.105,7.105,0,1,0,.74,14.191H27.345a5.986,5.986,0,0,0,6.12-5.919A6.12,6.12,0,0,0,27.816,14.633ZM21.09,18.2v4.708H16.315V18.2H12.65l6.12-5.818L24.857,18.3Z" transform="translate(-3.997 -7.57)" fill="#5e2dea"/>
        </g>
      </g>
    </g>
  </g>
</svg>
