<svg xmlns="http://www.w3.org/2000/svg" xmlns:xlink="http://www.w3.org/1999/xlink" width="252.048" height="244" viewBox="0 0 252.048 244">
  <defs>
    <filter id="Polygon_2" x="0" y="0" width="252.048" height="244" filterUnits="userSpaceOnUse">
      <feOffset dy="4" input="SourceAlpha"/>
      <feGaussianBlur stdDeviation="12.5" result="blur"/>
      <feFlood flood-color="#0f5064" flood-opacity="0.122"/>
      <feComposite operator="in" in2="blur"/>
      <feComposite in="SourceGraphic"/>
    </filter>
  </defs>
  <g id="Group_9009" data-name="Group 9009" transform="translate(-131 -363.5)">
    <g transform="matrix(1, 0, 0, 1, 131, 363.5)" filter="url(#Polygon_2)">
      <path id="Polygon_2-2" data-name="Polygon 2" d="M86.391,1.005a5,5,0,0,1,4.265,0l66.67,31.435a5,5,0,0,1,2.737,3.387l16.427,70.466a5,5,0,0,1-.993,4.293l-46.077,56.57A5,5,0,0,1,125.544,169H51.5a5,5,0,0,1-3.877-1.842L1.55,110.587a5,5,0,0,1-.993-4.293L16.984,35.828a5,5,0,0,1,2.737-3.387Z" transform="translate(37.5 33.5)" fill="#fff"/>
    </g>
    <g id="Group_7188" data-name="Group 7188" transform="translate(205.778 442.891)">
      <g id="Group_7187" data-name="Group 7187" transform="translate(17.443 0.059)">
        <path id="Path_6612" data-name="Path 6612" d="M22.055,33.4a20.774,20.774,0,0,1,41.542.006,20.349,20.349,0,0,1-7.7,15.856c2.514.784,5.008,1.419,7.428,1.929A26.779,26.779,0,0,0,70.172,33.3c0-14.737-12.365-26.869-27.345-26.831C27.72,6.5,15.432,18.585,15.462,33.374A26.658,26.658,0,0,0,17.3,43.048c2.309-.273,4.687-.453,6.994-.493A19.983,19.983,0,0,1,22.055,33.4Z" transform="translate(-3.837 5.58)" fill="#041f60"/>
        <path id="Path_6613" data-name="Path 6613" d="M28.61,10.5h5.6l-1.162-.94.733-.583a2.281,2.281,0,0,1-.9-2.8c.2-.722.472-1.429.744-2.13.613-1.574.227-3.027-.989-3.649a2.869,2.869,0,0,0-3.147.3,2.813,2.813,0,0,0-.607,3.1c.269.8.6,1.579.825,2.389a2.275,2.275,0,0,1-.893,2.794l.728.634-.991.722Z" transform="translate(7.688 -0.059)" fill="#041f60"/>
        <path id="Path_6614" data-name="Path 6614" d="M43.211,14.5l.931.079c-.278-1.465.577-2.262,1.72-2.856.534-.276,1.1-.489,1.654-.731a2.918,2.918,0,0,0,2-2.653,2.854,2.854,0,0,0-2.013-2.538,2.356,2.356,0,0,0-2.811,1.113c-.5.784-.807,1.684-1.248,2.506-.59,1.1-1.372,1.927-2.8,1.647v.936l-.517-.064,3.173,3.448Z" transform="translate(17.872 4.896)" fill="#041f60"/>
        <path id="Path_6615" data-name="Path 6615" d="M40.118,8.854l-.29.235.572.07Z" transform="translate(17.605 7.681)" fill="#041f60"/>
        <path id="Path_6616" data-name="Path 6616" d="M20.18,8.9l-.165.186.32-.032Z" transform="translate(0.17 7.72)" fill="#041f60"/>
        <path id="Path_6617" data-name="Path 6617" d="M16.128,10.506c.81.513,1.739.831,2.585,1.293,1.066.583,1.852,1.371,1.57,2.754H21.2L21.14,15.64c1.184-1.31,2.279-2.523,3.369-3.732l-.78.079.068-.917A2.279,2.279,0,0,1,21.28,9.89,15.85,15.85,0,0,1,20.251,7.78,2.923,2.923,0,0,0,17.476,5.7,2.841,2.841,0,0,0,15,7.782,2.329,2.329,0,0,0,16.128,10.506Z" transform="translate(-4.325 4.895)" fill="#041f60"/>
        <path id="Path_6618" data-name="Path 6618" d="M46.5,24.591a2.249,2.249,0,0,1,2.7-1.013,22.512,22.512,0,0,1,2.3.79c1.527.585,2.967.22,3.593-.944a2.765,2.765,0,0,0-.231-3.147A2.7,2.7,0,0,0,51.8,19.6c-.773.252-1.521.581-2.3.81a2.374,2.374,0,0,1-2.963-.869l-.532.671-.611-.376v4.5C45.968,23.57,46.246,23.956,46.5,24.591Z" transform="translate(22.507 16.968)" fill="#041f60"/>
        <path id="Path_6619" data-name="Path 6619" d="M13.011,24.431c.8-.271,1.579-.6,2.389-.823a2.271,2.271,0,0,1,2.8.9l.528-.673.609.374V19.69c-.577.9-.81.353-1.1-.218a2.278,2.278,0,0,1-2.769.983,22.865,22.865,0,0,1-2.215-.771c-1.577-.611-3.012-.224-3.643,1.006a2.875,2.875,0,0,0,.306,3.143A2.846,2.846,0,0,0,13.011,24.431Z" transform="translate(-9.278 16.961)" fill="#041f60"/>
        <path id="Path_6620" data-name="Path 6620" d="M32.262,39.562a4.177,4.177,0,0,0,2.136-2.29c.132-.376-.055-.912.66-.728a6.239,6.239,0,0,1,1.179.282,4.742,4.742,0,0,1,.9.771,4.036,4.036,0,0,0-.731,3.04c1.412.37,2.955.812,4.689,1.337.489-1.5.713-2.985-.414-4.36.367-.325.635-.6.944-.827.588-.429,1.715-.327,1.816.149a3.284,3.284,0,0,0,1.626,2.3c.895.5,1.8,1,2.717,1.453a.969.969,0,0,1,.581,1.389c-.075.188-.12.387-.214.7h1.812c-.041.476-.073.91-.115,1.344-.053.562.259.726.63.393,1.166-1.047,2.28-2.151,3.392-3.256a.6.6,0,0,0,.049-.568c-.07-.118-.346-.156-.532-.154-.427,0-.854.045-1.312.075V38.84c-1.622.461-1.615.455-2.307-.949-.306-.622-.632-1.241-1-1.831a3.49,3.49,0,0,0-1.884-1.7c-1.316-.447-1.384-1.365-.359-2.474.139-.149.265-.308.429-.5a4.087,4.087,0,0,0,3.886.519c.69-.22,1.4-.4,2.07-.666a1.052,1.052,0,0,1,1.589.641,5.083,5.083,0,0,0,.337.57l1.19-1.307q.609.643,1.211,1.277c.765-.374.818-.769.645-4.621-.021-.485.019-1-.671-1.021l-1.254,1.359c-.352-.613-.624-1.089-.9-1.562-1.055,1.705-1.053,1.7-2.508,1.239-.72-.227-1.444-.453-2.177-.626a2.928,2.928,0,0,0-2.438.179c-.664.423-1.419.462-1.777-.449a4.937,4.937,0,0,1-.271-1.54c0-.079.515-.126.714-.286a14.57,14.57,0,0,0,2.036-1.784,9.354,9.354,0,0,0,1.111-1.966c.7-1.414.69-1.418,2.168-1.034.045.011.107-.043.28-.118L52.1,18.572l1.9.1c-.049-.3,0-.622-.145-.765-1.081-1.092-2.194-2.154-3.316-3.205-.122-.113-.38-.081-.575-.117a4.755,4.755,0,0,0-.083.585c-.013.425,0,.85,0,1.254H48.225c.357,1.675.355,1.668-1.2,2.435a18.054,18.054,0,0,0-1.589.87,3.53,3.53,0,0,0-1.763,1.95c-.34,1.075-.6,1.158-1.564.891a3.2,3.2,0,0,1-1.218-.837c-.077-.073.16-.468.243-.718a4.8,4.8,0,0,0,.135-3.207c-.282-.8-.47-1.626-.76-2.42a.891.891,0,0,1,.511-1.258c.209-.105.412-.222.773-.414L40.48,12.467l1.472-1.386a15.138,15.138,0,0,0-6.1.068l1.6,1.277-1.361,1.261a2.7,2.7,0,0,0,.432.278c.925.31,1.092.885.737,1.767a17.585,17.585,0,0,0-.707,2.341A3.2,3.2,0,0,0,36.7,20.6c.521.936.346,1.386-.543,1.824a3.5,3.5,0,0,1-1.472.194c-.073,0-.1-.466-.233-.652a10.633,10.633,0,0,0-1.517-1.9,10.046,10.046,0,0,0-2.109-1.222c-1.53-.763-1.538-.748-1.194-2.433H27.91c.019-.419.049-.8.051-1.175a6.155,6.155,0,0,0-.073-.666c-.22.056-.5.045-.65.18-1.064.983-2.113,1.983-3.128,3.016-.182.184-.184.545-.29.889h1.944v1.658c1.666-.406,1.658-.4,2.393,1.094.306.622.658,1.224.995,1.831a3.561,3.561,0,0,0,2.472,1.848c.156.034.331.353.357.558a2.206,2.206,0,0,1-1.057,2.089c-1.48-.617-1.794-1.089-4.051-.412-.694.209-1.4.393-2.074.656a.949.949,0,0,1-1.38-.581c-.085-.182-.194-.355-.37-.679l-1.233,1.329L20.6,26.733c-.692.436-.859,1.739-.594,4.8a3.322,3.322,0,0,0,.425.966l1.34-1.408,1.209,1.489c.9-1.673.9-1.666,2.41-1.19,1.857.583,3.713,1.421,5.527-.036.312.35.641.577.76.887a5.2,5.2,0,0,1,.3,1.536c.006.085-.489.156-.694.308a10.069,10.069,0,0,0-1.893,1.543,12.82,12.82,0,0,0-1.346,2.354,3.425,3.425,0,0,1-.615.995,46.252,46.252,0,0,1,4.681.666Zm6.6-15.831a6.126,6.126,0,0,1,5.931,5.992,5.89,5.89,0,0,1-5.888,5.672,5.778,5.778,0,0,1-5.777-5.843A5.868,5.868,0,0,1,38.863,23.73Z" transform="translate(0.056 9.397)" fill="#041f60"/>
        <path id="Path_6621" data-name="Path 6621" d="M31.872,26.7a3.851,3.851,0,0,0,4.025-3.98,3.856,3.856,0,0,0-3.939-4.063,4.022,4.022,0,1,0-.086,8.043Zm.039-6.262a2.237,2.237,0,1,1-2.25,2.224A2.184,2.184,0,0,1,31.912,20.435Z" transform="translate(7.088 16.306)" fill="#041f60"/>
      </g>
      <path id="Path_6622" data-name="Path 6622" d="M9.657,29.825a68.551,68.551,0,0,1,27.307,2.391c14.609,4.369,24.609,7.913,35.566,6.759s13.654-3.049,13.654-3.049A90.225,90.225,0,0,1,56.877,32.3c-14.869-4.615-18.435-5.441-26.523-5.523S12.7,28.671,9.657,29.825Z" transform="translate(8.498 23.507)" fill="#3f51b6"/>
      <path id="Path_6623" data-name="Path 6623" d="M0,33.945a84.444,84.444,0,0,1,35.4,3.271C54.347,43.191,67.313,48.04,81.52,46.46s17.7-4.172,17.7-4.172a111.15,111.15,0,0,1-38-4.961c-19.281-6.313-23.9-7.441-34.391-7.554S3.946,32.368,0,33.945Z" transform="translate(0 26.146)" fill="#3f51b6"/>
    </g>
  </g>
</svg>
