<?xml version="1.0" encoding="utf-8"?>
<!-- Generator: Adobe Illustrator 21.1.0, SVG Export Plug-In . SVG Version: 6.00 Build 0)  -->
<svg version="1.1" id="Layer_1" xmlns="http://www.w3.org/2000/svg" xmlns:xlink="http://www.w3.org/1999/xlink" x="0px" y="0px"
	 viewBox="0 0 2500 2500" style="enable-background:new 0 0 2500 2500;" xml:space="preserve">
<style type="text/css">
	.st0{fill:#FBCE00;}
	.st1{fill:#243E4A;}
	.st2{fill:#415D6D;}
	.st3{fill:#E7E7E7;}
	.st4{fill:#D1D3D3;}
	.st5{fill:#F8CC02;}
	.st6{fill:#94C025;}
	.st7{fill:#E35F5B;}
	.st8{fill:#36B88F;}
	.st9{fill:#1AB5DE;}
	.st10{fill:#FFFFFF;}
</style>
<g>
	<circle class="st0" cx="1215.9" cy="1229.6" r="1178.9"/>
	<path class="st1" d="M2245.8,1982.3H246.2c-5.5,0-10-4.5-10-10V445.2c0-5.5,4.5-10,10-10h1999.6c5.5,0,10,4.5,10,10v1527.1
		C2255.8,1977.8,2251.3,1982.3,2245.8,1982.3z"/>
	<path class="st2" d="M1246.8,695.2c312,0,624,0.2,936-0.5c21.9-0.1,27.2,6.3,27.2,28.3c-0.7,381.9-0.5,763.7-0.5,1145.6
		c0,47.1-19.8,67.4-66,67.4c-597.7,0-1195.5,0-1793.2,0c-48,0-67.2-19.6-67.2-68.5c0-381.1,0.2-762.2-0.5-1143.3
		c0-23,5-29.7,28.3-29.6C622.8,695.5,934.8,695.2,1246.8,695.2z"/>
	<path class="st3" d="M2204.8,666.8H282.5V506.5c0-23,5-29.7,28.3-29.6c312,0.9,624,0.6,936,0.6c312,0,624,0.2,936-0.5
		c21.9-0.1,27.2,6.3,27.2,28.3L2204.8,666.8z"/>
	<path class="st4" d="M908,616.2c-1.7-1.7-3.4-3.4-5.1-5.1c0.1-24.6,0.2-49.3,0.2-73.9c-1-10.3,3.6-15,14-14
		c401.5,0,802.9-0.1,1204.4-0.1c18.8-2.8,25.9,5.5,23.3,23.9c-0.8,5.9-0.1,11.9-0.1,17.9c0.1,6.2,0.1,12.5,0.2,18.7
		c-1.4,34.3,6,32.1-34,32.4c-30.4,0.2-60.9,0.2-91.3,0.3c-98.8-0.1-197.7-0.2-296.5-0.3c-24.7,0.1-49.4,0.2-74.1,0.3
		c-98.8-0.1-197.7-0.2-296.5-0.3c-24.7,0.1-49.4,0.2-74.1,0.3c-37.1-0.1-74.2-0.2-111.2-0.3c-24.7,0.1-49.4,0.2-74.1,0.3
		c-37.1-0.1-74.2-0.2-111.2-0.3C957.3,616.1,932.6,616.1,908,616.2z"/>
	<path class="st5" d="M713.2,523.4c6.2-0.3,12.4-0.7,18.6-1c18.8,3.4,31.4,14.9,40.4,31.1c0.7,5.4,1.3,10.7,2,16.1
		c-6.1,30.8-16.2,40.9-47,47c-5.4-0.7-10.8-1.3-16.1-2c-16.1-9-27.6-21.6-31-40.4c0.3-6.2,0.7-12.4,1-18.6c0,0,0.8-0.9,0.8-0.9
		s-0.4-1.2-0.4-1.2c1.3-2.4,2.6-4.8,3.9-7.1c6.2-6.2,12.4-12.4,18.6-18.6c2.4-1.3,4.8-2.6,7.2-3.9c0,0,1.2,0.4,1.2,0.4L713.2,523.4z
		"/>
	<path class="st6" d="M542.7,613.1c-4.6-2.8-9.3-5.5-13.9-8.3c-10.6-13-16.4-27.5-14.9-44.5c6.3-18.5,18.7-30.9,37.3-37.3
		c17-1.5,31.6,4.3,44.5,14.9c2.8,4.6,5.5,9.3,8.3,13.9C612.2,596.9,587.8,621.3,542.7,613.1z"/>
	<path class="st7" d="M361.6,605.5c-1.3-1.3-2.6-2.6-3.9-3.9c-17.5-36-9.8-64.3,20.3-76c17.8-6.9,32.7,0,47.8,7.9
		c1.3,1.3,2.6,2.6,3.9,3.9c17.4,36,9.7,64.2-20.3,75.9C391.6,620.3,376.6,613.4,361.6,605.5z"/>
	<path class="st8" d="M941.5,884.5H401.7c-4.4,0-8-3.6-8-8v-58.1c0-4.4,3.6-8,8-8h539.9c4.4,0,8,3.6,8,8v58.1
		C949.5,880.9,945.9,884.5,941.5,884.5z"/>
	<path class="st9" d="M1038.8,1218H401.7c-4.4,0-8-3.6-8-8v-58.1c0-4.4,3.6-8,8-8h637.1c4.4,0,8,3.6,8,8v58.1
		C1046.8,1214.4,1043.2,1218,1038.8,1218z"/>
	<path class="st6" d="M1719.7,1218h-544.5c-4.4,0-8-3.6-8-8v-58.1c0-4.4,3.6-8,8-8h544.5c4.4,0,8,3.6,8,8v58.1
		C1727.7,1214.4,1724.1,1218,1719.7,1218z"/>
	<path class="st5" d="M2090.3,1218h-243.4c-4.4,0-8-3.6-8-8v-58.1c0-4.4,3.6-8,8-8h243.4c4.4,0,8,3.6,8,8v58.1
		C2098.3,1214.4,2094.7,1218,2090.3,1218z"/>
	<path class="st7" d="M2071.8,1551.6h-261.9c-4.4,0-8-3.6-8-8v-58.1c0-4.4,3.6-8,8-8h261.9c4.4,0,8,3.6,8,8v58.1
		C2079.8,1548,2076.2,1551.6,2071.8,1551.6z"/>
	<path class="st9" d="M1650.2,1551.6h-433.3c-4.4,0-8-3.6-8-8v-58.1c0-4.4,3.6-8,8-8h433.3c4.4,0,8,3.6,8,8v58.1
		C1658.2,1548,1654.6,1551.6,1650.2,1551.6z"/>
	<path class="st6" d="M1052.7,1551.6h-651c-4.4,0-8-3.6-8-8v-58.1c0-4.4,3.6-8,8-8h651c4.4,0,8,3.6,8,8v58.1
		C1060.7,1548,1057.1,1551.6,1052.7,1551.6z"/>
	<path class="st9" d="M923,1718.3H401.7c-4.4,0-8-3.6-8-8v-58.1c0-4.4,3.6-8,8-8H923c4.4,0,8,3.6,8,8v58.1
		C931,1714.7,927.4,1718.3,923,1718.3z"/>
	<path class="st7" d="M719.2,1384.8H401.7c-4.4,0-8-3.6-8-8v-58.1c0-4.4,3.6-8,8-8h317.5c4.4,0,8,3.6,8,8v58.1
		C727.2,1381.2,723.6,1384.8,719.2,1384.8z"/>
	<path class="st5" d="M1409.4,1384.8H878.8c-4.4,0-8-3.6-8-8v-58.1c0-4.4,3.6-8,8-8h530.6c4.4,0,8,3.6,8,8v58.1
		C1417.4,1381.2,1413.8,1384.8,1409.4,1384.8z"/>
	<path class="st10" d="M1905,1384.8h-373.1c-4.4,0-8-3.6-8-8v-58.1c0-4.4,3.6-8,8-8H1905c4.4,0,8,3.6,8,8v58.1
		C1913,1381.2,1909.4,1384.8,1905,1384.8z"/>
	<path class="st10" d="M1515.9,1051.3H401.7c-4.4,0-8-3.6-8-8v-58.1c0-4.4,3.6-8,8-8h1114.2c4.4,0,8,3.6,8,8v58.1
		C1523.9,1047.7,1520.3,1051.3,1515.9,1051.3z"/>
	<path class="st7" d="M1608.6,884.5h-539.9c-4.4,0-8-3.6-8-8v-58.1c0-4.4,3.6-8,8-8h539.9c4.4,0,8,3.6,8,8v58.1
		C1616.6,880.9,1613,884.5,1608.6,884.5z"/>
</g>
</svg>
