<?xml version="1.0" encoding="utf-8"?>
<!-- Generator: Adobe Illustrator 21.1.0, SVG Export Plug-In . SVG Version: 6.00 Build 0)  -->
<svg version="1.1" id="Layer_1" xmlns="http://www.w3.org/2000/svg" xmlns:xlink="http://www.w3.org/1999/xlink" x="0px" y="0px"
	 viewBox="0 0 2500 2500" style="enable-background:new 0 0 2500 2500;" xml:space="preserve">
<style type="text/css">
	.st0{fill:#B3404A;}
	.st1{fill:#F4B2B0;}
</style>
<path class="st0" d="M2145.8,2448h-1802c-158.3,0-287.1-128.8-287.1-287.1V934.6c0-158.3,128.8-287.1,287.1-287.1h1802
	c158.3,0,287.1,128.8,287.1,287.1v1226.3C2432.9,2319.2,2304.1,2448,2145.8,2448z M343.8,780.6c-84.9,0-154,69.1-154,154v1226.3
	c0,84.9,69.1,154,154,154h1802c84.9,0,154-69.1,154-154V934.6c0-84.9-69.1-154-154-154L343.8,780.6L343.8,780.6z"/>
<path class="st1" d="M1580,515.5h-95.5c-2.7-130.1-108.9-234.7-239.7-234.7s-237,104.6-239.7,234.7h-95.5
	c-109.6,0-198.5,88.9-198.5,198.5l0,0c0,109.6,88.9,198.5,198.5,198.5H1580c109.6,0,198.5-88.9,198.5-198.5l0,0
	C1778.5,604.4,1689.7,515.5,1580,515.5z"/>
<g>
	<path class="st0" d="M1580,979.1H909.6c-146.2,0-265.1-118.9-265.1-265.1S763.5,449,909.6,449h37.4
		c32.6-134.1,154.7-234.7,297.7-234.7s265.1,100.6,297.7,234.7h37.4c146.2,0,265.1,118.9,265.1,265.1S1726.2,979.1,1580,979.1z
		 M909.6,582.1c-72.8,0-132,59.2-132,132s59.2,132,132,132H1580c72.8,0,132-59.2,132-132s-59.2-132-132-132h-95.5
		c-36.2,0-65.8-29-66.6-65.2c-1.9-93.5-79.6-169.6-173.1-169.6s-171.2,76.1-173.1,169.6c-0.8,36.2-30.3,65.2-66.6,65.2
		C1005.1,582.1,909.6,582.1,909.6,582.1z"/>
	<path class="st0" d="M886.3,1941.2c-198.4,0-359.8-161.4-359.8-359.8s161.4-359.8,359.8-359.8c31.6,0,63,4.1,93.4,12.2
		c35.5,9.5,56.6,46,47.1,81.5c-9.5,35.5-46,56.6-81.5,47.1c-19.1-5.1-38.9-7.7-58.9-7.7c-125,0-226.7,101.7-226.7,226.7
		S761.3,1808,886.3,1808s226.7-101.7,226.7-226.7c0-36.8,29.8-66.6,66.6-66.6s66.6,29.8,66.6,66.6
		C1246.2,1779.7,1084.7,1941.2,886.3,1941.2z"/>
</g>
<path class="st1" d="M1103.8,1955.8c-63.4-39.1-138-61.7-217.5-61.7l0,0c-229.3,0-416.9,187.6-416.9,416.9v62.2h833.7V2311
	C1303.2,2161.2,1223.2,2029.3,1103.8,1955.8"/>
<g>
	<path class="st0" d="M1303.2,2439.7H469.5c-36.8,0-66.6-29.8-66.6-66.6V2311c0-266.6,216.9-483.4,483.4-483.4
		c89.2,0,176.4,24.7,252.4,71.6c144.6,89.1,231,243.1,231,411.9v62.2C1369.8,2409.9,1339.9,2439.7,1303.2,2439.7z M536.1,2306.6
		h700.5c-1.5-120.5-63.9-230.2-167.7-294.1c-55-33.9-118.1-51.8-182.6-51.8C694.7,1960.7,538.4,2115.4,536.1,2306.6z"/>
	<path class="st0" d="M2020.2,1657.5h-446c-36.8,0-66.6-29.8-66.6-66.6s29.8-66.6,66.6-66.6h446c36.8,0,66.6,29.8,66.6,66.6
		C2086.7,1627.7,2056.9,1657.5,2020.2,1657.5z"/>
	<path class="st0" d="M2020.2,2136.8h-446c-36.8,0-66.6-29.8-66.6-66.6s29.8-66.6,66.6-66.6h446c36.8,0,66.6,29.8,66.6,66.6
		S2056.9,2136.8,2020.2,2136.8z"/>
</g>
</svg>
