<svg width="64" height="64" viewBox="0 0 64 64" fill="none" xmlns="http://www.w3.org/2000/svg">
<g clip-path="url(#clip0)">
<path d="M31.0194 0.328402L14.9116 8.09862C14.4489 8.32068 14.0424 8.64431 13.7222 9.04537C13.402 9.44644 13.1764 9.9146 13.0623 10.415L9.08474 27.8455C8.97125 28.3464 8.97176 28.8665 9.08623 29.3672C9.20071 29.868 9.42622 30.3366 9.7461 30.7385L20.8921 44.7149C21.2122 45.1159 21.6184 45.4396 22.0808 45.6621C22.5431 45.8846 23.0496 46.0001 23.5626 46H41.4288C41.9423 46.0001 42.4493 45.8846 42.9121 45.6621C43.3749 45.4397 43.7817 45.1159 44.1025 44.7149L55.2453 30.7385C55.5658 30.337 55.7917 29.8683 55.9062 29.3675C56.0207 28.8666 56.0208 28.3464 55.9067 27.8455L51.9291 10.4181C51.815 9.91773 51.5894 9.44957 51.2692 9.0485C50.949 8.64744 50.5425 8.32382 50.0798 8.10176L33.9752 0.344071C33.5151 0.120327 33.0106 0.00276056 32.4991 4.80299e-05C31.9875 -0.0026645 31.4818 0.10955 31.0194 0.328402V0.328402Z" fill="#1D93D1"/>
<path d="M47.19 18.5079C47.2168 18.7541 47.1812 19.0031 47.0866 19.232V19.2477V19.2633C46.9925 19.4561 46.8791 19.6389 46.7481 19.8087C46.4434 20.2051 46.0041 20.4761 45.5131 20.5704C44.6856 20.7491 43.9083 20.6174 43.3629 19.9435C43.0179 19.5726 42.8119 19.0938 42.7798 18.5883C42.7477 18.0828 42.8915 17.5817 43.1868 17.1702C43.4821 16.7586 43.9107 16.4619 44.3998 16.3304C44.889 16.1989 45.4086 16.2406 45.8704 16.4486C46.0542 16.535 46.2285 16.64 46.3907 16.7621C46.558 16.8802 46.6989 17.0318 46.8045 17.2072C46.9009 17.3813 46.9787 17.5652 47.0364 17.7557C47.1164 17.9997 47.168 18.2521 47.19 18.5079V18.5079Z" fill="white"/>
<path opacity="0.8" d="M45.8641 31.0393C45.2929 31.2181 44.6744 31.166 44.1412 30.8941C43.608 30.6222 43.2025 30.1523 43.0118 29.585C42.6137 28.5224 43.3785 27.0492 44.4442 26.7076C45.5099 26.3659 46.9768 27.068 47.2965 28.2121C47.4618 28.7771 47.4056 29.3839 47.1396 29.909C46.8735 30.4342 46.4174 30.8383 45.8641 31.0393V31.0393Z" fill="white"/>
<path d="M39.5888 10.5216C40.0277 11.697 39.3694 12.91 38.1125 13.305C37.5518 13.4845 36.9428 13.434 36.4193 13.1645C35.8958 12.895 35.5009 12.4286 35.3213 11.8679C35.1418 11.3071 35.1923 10.6981 35.4618 10.1746C35.7313 9.65117 36.1978 9.25622 36.7585 9.07665C37.0388 8.97816 37.3363 8.93765 37.6328 8.95757C37.9293 8.9775 38.2187 9.05744 38.4833 9.19256C38.748 9.32768 38.9825 9.51517 39.1725 9.74363C39.3625 9.97209 39.5042 10.2368 39.5888 10.5216V10.5216Z" fill="white"/>
<path opacity="0.9" d="M17.7421 19.5706C17.6383 19.2913 17.5921 18.994 17.6062 18.6964C17.6204 18.3988 17.6945 18.1072 17.8242 17.839C17.9539 17.5708 18.1365 17.3316 18.361 17.1358C18.5855 16.9399 18.8473 16.7915 19.1306 16.6995C20.2747 16.2701 21.5379 16.9784 21.9516 18.1852C22.0427 18.4611 22.0781 18.7524 22.0557 19.042C22.0333 19.3317 21.9536 19.6141 21.8213 19.8728C21.6889 20.1314 21.5064 20.3612 21.2845 20.5488C21.0626 20.7363 20.8057 20.8779 20.5286 20.9654C20.2545 21.0648 19.963 21.1074 19.6719 21.0904C19.3808 21.0735 19.0963 20.9974 18.8355 20.8669C18.5748 20.7364 18.3434 20.5542 18.1554 20.3313C17.9674 20.1084 17.8268 19.8496 17.7421 19.5706V19.5706Z" fill="white"/>
<path d="M29.5809 35.8664C30.0604 36.8067 29.3521 38.3551 28.2237 38.6874C27.944 38.779 27.649 38.8146 27.3555 38.7922C27.0621 38.7697 26.7759 38.6897 26.5134 38.5567C26.2509 38.4237 26.0171 38.2403 25.8254 38.0169C25.6338 37.7936 25.488 37.5347 25.3964 37.255C25.3048 36.9753 25.2692 36.6803 25.2917 36.3868C25.3141 36.0934 25.3941 35.8072 25.5271 35.5447C25.6601 35.2821 25.8435 35.0484 26.0669 34.8567C26.2902 34.6651 26.5492 34.5193 26.8289 34.4277C27.8413 34.0955 29.3333 34.6252 29.5809 35.8664Z" fill="white"/>
<path opacity="0.8" d="M19.3878 27.1874C20.2623 26.736 21.7198 27.341 22.1178 28.6041C22.5159 29.8673 22.0207 30.886 20.7763 31.3655C19.7012 31.7824 18.4318 31.3311 17.9271 29.9707C17.8244 29.6928 17.7812 29.3963 17.8003 29.1006C17.8194 28.8049 17.9005 28.5165 18.0382 28.2541C18.1759 27.9917 18.3672 27.7611 18.5997 27.5774C18.8322 27.3936 19.1006 27.2607 19.3878 27.1874V27.1874Z" fill="white"/>
<path opacity="0.5" d="M39.5985 17.2196C39.2049 17.3622 38.7707 17.3426 38.3916 17.1651C38.0124 16.9875 37.7193 16.6667 37.5768 16.273C37.4342 15.8794 37.4538 15.4453 37.6314 15.0661C37.8089 14.687 38.1297 14.3939 38.5234 14.2513C38.7204 14.1833 38.9291 14.1553 39.1371 14.1689C39.3451 14.1825 39.5483 14.2374 39.7349 14.3306C39.9214 14.4237 40.0874 14.5531 40.2233 14.7111C40.3592 14.8692 40.4622 15.0528 40.5263 15.2512C40.6566 15.6356 40.6327 16.0556 40.4597 16.4227C40.2867 16.7899 39.9779 17.0755 39.5985 17.2196Z" fill="white"/>
<path opacity="0.4" d="M24.8792 18.7555C24.686 18.8339 24.4784 18.8706 24.27 18.8633C24.0617 18.856 23.8572 18.8048 23.67 18.7131C23.4827 18.6214 23.3169 18.4912 23.1834 18.3311C23.0499 18.171 22.9516 17.9845 22.8951 17.7839C22.6412 17.0379 23.1458 15.9251 23.8793 15.7559C24.7538 15.5553 25.5844 15.8593 25.8822 16.7589C25.9492 16.9558 25.9763 17.164 25.962 17.3715C25.9478 17.579 25.8923 17.7815 25.799 17.9674C25.7056 18.1532 25.5762 18.3186 25.4183 18.4539C25.2604 18.5892 25.0771 18.6918 24.8792 18.7555V18.7555Z" fill="white"/>
<path opacity="0.48" d="M25.4966 30.4721C25.687 30.4072 25.8886 30.3813 26.0892 30.3961C26.2899 30.411 26.4854 30.4661 26.6643 30.5583C26.8431 30.6505 27.0014 30.7778 27.1299 30.9326C27.2583 31.0875 27.3542 31.2667 27.4118 31.4594C27.5396 31.8477 27.5172 32.2699 27.3489 32.6425C27.1806 33.0151 26.8787 33.311 26.5028 33.4717C25.7317 33.7507 24.6378 33.2617 24.4278 32.4969C24.3613 32.2939 24.3363 32.0796 24.3543 31.8667C24.3724 31.6538 24.433 31.4468 24.5328 31.2578C24.6325 31.0689 24.7692 30.902 24.9348 30.767C25.1004 30.632 25.2915 30.5317 25.4966 30.4721V30.4721Z" fill="white"/>
<path opacity="0.4" d="M40.0747 28.9957C40.2663 28.9119 40.4738 28.8709 40.6829 28.8753C40.8919 28.8798 41.0975 28.9297 41.2854 29.0215C41.4732 29.1134 41.6389 29.245 41.7708 29.4072C41.9027 29.5694 41.9978 29.7584 42.0494 29.9611C42.1795 30.3493 42.1582 30.7724 41.9896 31.1455C41.821 31.5187 41.5177 31.8144 41.1404 31.9734C40.4195 32.2335 39.2221 31.6599 39.0466 30.9265C38.8554 30.1115 39.2597 29.0991 40.0747 28.9957Z" fill="white"/>
<path opacity="0.48" d="M31.8281 14.9443C30.8878 15.1856 30.1324 14.7719 29.8848 13.8848C29.7972 13.4742 29.8702 13.0455 30.0888 12.687C30.3074 12.3285 30.655 12.0673 31.0602 11.9572C31.4515 11.8836 31.8563 11.9525 32.2012 12.1514C32.5461 12.3504 32.8085 12.6661 32.9409 13.0417C33.0125 13.4394 32.9398 13.8496 32.7358 14.1984C32.5318 14.5472 32.2099 14.8117 31.8281 14.9443V14.9443Z" fill="white"/>
<path opacity="0.48" d="M44.2498 22.2475C44.5633 23.1377 44.2091 23.9526 43.4067 24.2347C43.2135 24.3104 43.0069 24.346 42.7994 24.3394C42.592 24.3327 42.3881 24.2839 42.2002 24.1959C42.0122 24.108 41.8441 23.9827 41.7061 23.8277C41.5682 23.6727 41.4631 23.4912 41.3975 23.2944C41.106 22.47 41.479 21.6927 42.2908 21.2883C42.9929 20.9498 43.9803 21.4701 44.2498 22.2475Z" fill="white"/>
<path opacity="0.4" d="M23.5531 24.4665C23.8665 25.3567 23.5311 26.0337 22.6504 26.3472C21.71 26.6606 20.9766 26.3221 20.6694 25.4225C20.5436 25.0457 20.5691 24.6347 20.7404 24.2763C20.9118 23.9178 21.2156 23.6399 21.5878 23.5011C22.4811 23.1783 23.2396 23.5544 23.5531 24.4665Z" fill="white"/>
<path d="M40.3977 19.7617C40.231 19.8077 40.0545 19.8039 39.8899 19.7509C39.7253 19.6978 39.5798 19.5978 39.4713 19.4632C39.3628 19.3286 39.296 19.1651 39.2791 18.993C39.2623 18.8209 39.2961 18.6476 39.3764 18.4945C39.4568 18.3414 39.5801 18.215 39.7313 18.1311C39.8825 18.0471 40.0549 18.0092 40.2274 18.0219C40.3998 18.0347 40.5648 18.0976 40.702 18.2029C40.8392 18.3081 40.9426 18.4512 40.9995 18.6145C41.0571 18.8462 41.0277 19.0911 40.9168 19.3025C40.8058 19.514 40.6211 19.6774 40.3977 19.7617V19.7617Z" fill="white"/>
<path d="M37.674 32.3528C37.4452 32.4211 37.1991 32.3998 36.9855 32.2933C36.7719 32.1867 36.6068 32.003 36.5236 31.7792C36.4704 31.5331 36.5149 31.2759 36.6476 31.0619C36.7804 30.8479 36.991 30.6938 37.2351 30.632C37.3481 30.6032 37.4657 30.5969 37.5811 30.6136C37.6965 30.6302 37.8075 30.6694 37.9078 30.7289C38.0081 30.7884 38.0956 30.8671 38.1655 30.9604C38.2353 31.0538 38.2861 31.16 38.3149 31.273C38.3438 31.386 38.35 31.5036 38.3334 31.619C38.3168 31.7344 38.2776 31.8454 38.2181 31.9457C38.1586 32.0459 38.0799 32.1335 37.9865 32.2034C37.8932 32.2732 37.7869 32.324 37.674 32.3528V32.3528Z" fill="white"/>
<path d="M24.0358 29.0084C23.8634 28.4881 24.0546 28.1308 24.5969 27.9615C24.8252 27.8894 25.0725 27.9089 25.2867 28.016C25.5008 28.123 25.6648 28.3092 25.7441 28.5351C25.7987 28.7561 25.7713 28.9894 25.667 29.1917C25.5627 29.3941 25.3885 29.5517 25.1768 29.6353C24.6126 29.8234 24.2364 29.6165 24.0358 29.0084Z" fill="white"/>
<path d="M26.7282 16.4394C26.5621 15.9441 26.7596 15.5711 27.2862 15.3831C27.5023 15.3181 27.7345 15.333 27.9405 15.4251C28.1465 15.5172 28.3125 15.6802 28.4083 15.8846C28.4787 16.1116 28.4626 16.3567 28.3631 16.5726C28.2635 16.7884 28.0876 16.9598 27.8692 17.0537C27.3081 17.2449 26.932 17.0412 26.7282 16.4394Z" fill="white"/>
<path d="M34.1194 14.1322C34.2315 14.0968 34.3496 14.084 34.4667 14.0948C34.5838 14.1055 34.6976 14.1395 34.8014 14.1948C34.9052 14.25 34.997 14.3255 35.0712 14.4166C35.1455 14.5078 35.2009 14.6129 35.234 14.7257C35.2672 14.8386 35.2775 14.9569 35.2644 15.0737C35.2512 15.1906 35.2149 15.3037 35.1575 15.4063C35.1001 15.509 35.0228 15.5991 34.9301 15.6715C34.8375 15.7439 34.7313 15.7971 34.6178 15.8279C34.5089 15.8616 34.3943 15.8726 34.2811 15.8604C34.1678 15.8482 34.0582 15.813 33.959 15.757C33.8598 15.7009 33.7731 15.6252 33.7042 15.5344C33.6353 15.4437 33.5857 15.3399 33.5583 15.2293C33.5042 15.0095 33.5311 14.7776 33.6341 14.576C33.7372 14.3745 33.9095 14.2169 34.1194 14.1322V14.1322Z" fill="white"/>
<path d="M23.2808 21.1723C23.3884 21.1236 23.5047 21.0969 23.6228 21.0938C23.7409 21.0907 23.8585 21.1112 23.9685 21.1541C24.0786 21.197 24.179 21.2615 24.2638 21.3438C24.3486 21.426 24.4162 21.5244 24.4624 21.6331C24.5341 21.8613 24.5179 22.108 24.417 22.3249C24.3161 22.5418 24.1378 22.7131 23.917 22.8053C23.6971 22.8627 23.4638 22.8383 23.2604 22.7369C23.057 22.6355 22.8972 22.4638 22.8106 22.2537C22.6131 21.7208 22.7698 21.3541 23.2808 21.1723Z" fill="white"/>
<path d="M30.866 33.594C30.6348 33.6644 30.3853 33.6432 30.1694 33.5347C29.9534 33.4261 29.7876 33.2386 29.7063 33.011C29.6558 32.7829 29.6921 32.5442 29.808 32.3414C29.9239 32.1387 30.1111 31.9863 30.3331 31.9139C30.5529 31.8523 30.7879 31.8781 30.9891 31.9859C31.1903 32.0936 31.342 32.275 31.4124 32.4921C31.4829 32.7092 31.4667 32.9451 31.3672 33.1504C31.2676 33.3558 31.0926 33.5147 30.8785 33.594H30.866Z" fill="white"/>
<path d="M42.1436 25.5102C42.1983 25.6119 42.2284 25.725 42.2313 25.8404C42.2343 25.9558 42.2101 26.0702 42.1607 26.1745C42.1112 26.2789 42.038 26.3701 41.9468 26.4409C41.8557 26.5117 41.7492 26.5601 41.6359 26.5822C41.125 26.7577 40.7833 26.6073 40.6046 26.0901C40.5474 25.9858 40.5132 25.8704 40.5045 25.7518C40.4957 25.6331 40.5125 25.5139 40.5538 25.4023C40.5951 25.2907 40.6598 25.1893 40.7437 25.1049C40.8276 25.0205 40.9286 24.9552 41.04 24.9132C41.1513 24.8713 41.2704 24.8537 41.3891 24.8618C41.5078 24.8698 41.6234 24.9033 41.728 24.9599C41.8327 25.0165 41.9239 25.0949 41.9957 25.1899C42.0674 25.2848 42.1178 25.3941 42.1436 25.5102Z" fill="white"/>
<path opacity="0.66" d="M27.0827 13.5901C28.31 13.5901 29.305 12.5952 29.305 11.3678C29.305 10.1405 28.31 9.14551 27.0827 9.14551C25.8553 9.14551 24.8604 10.1405 24.8604 11.3678C24.8604 12.5952 25.8553 13.5901 27.0827 13.5901Z" fill="white"/>
<path opacity="0.9" d="M37.9153 38.747C39.1495 38.747 40.1501 37.7465 40.1501 36.5122C40.1501 35.2779 39.1495 34.2773 37.9153 34.2773C36.681 34.2773 35.6804 35.2779 35.6804 36.5122C35.6804 37.7465 36.681 38.747 37.9153 38.747Z" fill="white"/>
<path opacity="0.4" d="M33.5865 35.9573C34.4504 35.9573 35.1506 35.257 35.1506 34.3932C35.1506 33.5294 34.4504 32.8291 33.5865 32.8291C32.7227 32.8291 32.0225 33.5294 32.0225 34.3932C32.0225 35.257 32.7227 35.9573 33.5865 35.9573Z" fill="white"/>
<path d="M6.66219 58.9933C6.57773 59.8786 6.2476 60.5702 5.67178 61.0679C5.09597 61.5619 4.33013 61.8089 3.37428 61.8089C2.70633 61.8089 2.11708 61.6531 1.60653 61.3415C1.09981 61.0261 0.708253 60.5797 0.431862 60.0021C0.15547 59.4246 0.0115163 58.7539 0 57.9902V57.2151C0 56.4324 0.140115 55.7427 0.420345 55.1462C0.700576 54.5496 1.10173 54.0899 1.6238 53.7669C2.14971 53.4439 2.75624 53.2824 3.44338 53.2824C4.36852 53.2824 5.11324 53.5313 5.67754 54.0291C6.24184 54.5268 6.57006 55.2298 6.66219 56.1379H5.21113C5.14203 55.5413 4.96545 55.112 4.68138 54.8498C4.40115 54.5838 3.98848 54.4508 3.44338 54.4508C2.80998 54.4508 2.32246 54.6807 1.98081 55.1405C1.64299 55.5964 1.47025 56.2671 1.46257 57.1524V57.8876C1.46257 58.7843 1.6238 59.4683 1.94626 59.9394C2.27255 60.4106 2.74856 60.6462 3.37428 60.6462C3.94626 60.6462 4.3762 60.5189 4.66411 60.2643C4.95202 60.0097 5.13436 59.5861 5.21113 58.9933H6.66219Z" fill="#00A651"/>
<path d="M8.06334 58.5545C8.06334 57.9503 8.18426 57.407 8.4261 56.9244C8.66795 56.4381 9.00768 56.0657 9.4453 55.8073C9.88292 55.5451 10.3858 55.414 10.9539 55.414C11.7946 55.414 12.476 55.6819 12.9981 56.2177C13.524 56.7534 13.8081 57.464 13.8503 58.3493L13.856 58.6741C13.856 59.2821 13.737 59.8254 13.499 60.3042C13.2649 60.783 12.9271 61.1534 12.4856 61.4156C12.048 61.6778 11.5413 61.8089 10.9655 61.8089C10.0864 61.8089 9.38196 61.5201 8.85221 60.9425C8.3263 60.3612 8.06334 59.588 8.06334 58.6229V58.5545ZM9.46257 58.6741C9.46257 59.3087 9.59501 59.8064 9.85988 60.1674C10.1248 60.5246 10.4933 60.7032 10.9655 60.7032C11.4376 60.7032 11.8042 60.5208 12.0653 60.156C12.3301 59.7912 12.4626 59.2574 12.4626 58.5545C12.4626 57.9313 12.3263 57.4374 12.0537 57.0726C11.785 56.7078 11.4184 56.5254 10.9539 56.5254C10.4971 56.5254 10.1344 56.7059 9.86564 57.0669C9.59693 57.4241 9.46257 57.9598 9.46257 58.6741Z" fill="#00A651"/>
<path d="M16.8464 55.528L16.8868 56.1721C17.3244 55.6667 17.9232 55.414 18.6833 55.414C19.5163 55.414 20.0864 55.7294 20.3935 56.3602C20.8464 55.7294 21.4837 55.414 22.3052 55.414C22.9923 55.414 23.5029 55.6021 23.8369 55.9783C24.1747 56.3545 24.3474 56.9092 24.3551 57.6425V61.6949H22.9559V57.6824C22.9559 57.2911 22.8695 57.0042 22.6967 56.8218C22.524 56.6394 22.238 56.5482 21.8388 56.5482C21.5202 56.5482 21.2591 56.6337 21.0557 56.8047C20.856 56.9719 20.7159 57.1923 20.6353 57.4659L20.6411 61.6949H19.2418V57.6368C19.2226 56.9111 18.8484 56.5482 18.119 56.5482C17.5585 56.5482 17.1612 56.7743 16.9271 57.2265V61.6949H15.5278V55.528H16.8464Z" fill="#00A651"/>
<path d="M27.5988 55.528L27.6392 56.1721C28.0768 55.6667 28.6756 55.414 29.4357 55.414C30.2687 55.414 30.8388 55.7294 31.1459 56.3602C31.5988 55.7294 32.2361 55.414 33.0576 55.414C33.7447 55.414 34.2553 55.6021 34.5893 55.9783C34.9271 56.3545 35.0998 56.9092 35.1075 57.6425V61.6949H33.7083V57.6824C33.7083 57.2911 33.6219 57.0042 33.4491 56.8218C33.2764 56.6394 32.9904 56.5482 32.5912 56.5482C32.2726 56.5482 32.0115 56.6337 31.8081 56.8047C31.6084 56.9719 31.4683 57.1923 31.3877 57.4659L31.3935 61.6949H29.9942V57.6368C29.975 56.9111 29.6008 56.5482 28.8714 56.5482C28.3109 56.5482 27.9136 56.7743 27.6795 57.2265V61.6949H26.2802V55.528H27.5988Z" fill="#00A651"/>
<path d="M40.81 61.0907C40.3992 61.5695 39.8157 61.8089 39.0595 61.8089C38.3839 61.8089 37.8714 61.6132 37.5221 61.2218C37.1766 60.8305 37.0038 60.2643 37.0038 59.5234V55.528H38.4031V59.5063C38.4031 60.289 38.7313 60.6804 39.3877 60.6804C40.0672 60.6804 40.5259 60.4391 40.7639 59.9565V55.528H42.1631V61.6949H40.8445L40.81 61.0907Z" fill="#00A651"/>
<path d="M45.3781 55.528L45.4184 56.2405C45.8791 55.6895 46.4837 55.414 47.2322 55.414C48.5297 55.414 49.19 56.1493 49.2131 57.6197V61.6949H47.8138V57.6995C47.8138 57.3082 47.7274 57.0194 47.5547 56.8332C47.3858 56.6432 47.1075 56.5482 46.7198 56.5482C46.1555 56.5482 45.7351 56.8009 45.4587 57.3063V61.6949H44.0595V55.528H45.3781Z" fill="#00A651"/>
<path d="M52.6238 61.6949H51.2246V55.528H52.6238V61.6949ZM51.1382 53.9265C51.1382 53.7137 51.2054 53.537 51.3397 53.3964C51.4779 53.2558 51.6737 53.1855 51.9271 53.1855C52.1804 53.1855 52.3762 53.2558 52.5144 53.3964C52.6526 53.537 52.7217 53.7137 52.7217 53.9265C52.7217 54.1355 52.6526 54.3102 52.5144 54.4508C52.3762 54.5876 52.1804 54.656 51.9271 54.656C51.6737 54.656 51.4779 54.5876 51.3397 54.4508C51.2054 54.3102 51.1382 54.1355 51.1382 53.9265Z" fill="#00A651"/>
<path d="M56.3973 54.0291V55.528H57.4971V56.5539H56.3973V59.9964C56.3973 60.232 56.4434 60.403 56.5355 60.5094C56.6315 60.612 56.8004 60.6633 57.0422 60.6633C57.2035 60.6633 57.3666 60.6443 57.5317 60.6063V61.6778C57.2131 61.7652 56.9059 61.8089 56.6104 61.8089C55.5355 61.8089 54.9981 61.2218 54.9981 60.0477V56.5539H53.9731V55.528H54.9981V54.0291H56.3973Z" fill="#00A651"/>
<path d="M61.2418 59.7115L62.5086 55.528H64L61.524 62.6296C61.144 63.6669 60.499 64.1855 59.5892 64.1855C59.3858 64.1855 59.1612 64.1513 58.9155 64.083V63.0115L59.1804 63.0286C59.5336 63.0286 59.7985 62.964 59.975 62.8348C60.1555 62.7094 60.2975 62.4966 60.4011 62.1964L60.6027 61.6664L58.4146 55.528H59.9232L61.2418 59.7115Z" fill="#00A651"/>
</g>
<defs>
<clipPath id="clip0">
<rect width="64" height="64" fill="white"/>
</clipPath>
</defs>
</svg>
