<svg id="Layer_1" data-name="Layer 1" xmlns="http://www.w3.org/2000/svg" viewBox="0 0 1279 639"><defs><style>.cls-1{fill:#1d93d1;}.cls-2,.cls-3,.cls-4,.cls-5,.cls-6,.cls-7,.cls-8{fill:#fff;}.cls-3{opacity:0.8;}.cls-4{opacity:0.9;}.cls-5{opacity:0.5;}.cls-6{opacity:0.4;}.cls-7{opacity:0.48;}.cls-8{opacity:0.66;}.cls-9{fill:#2d2f3a;}</style></defs><title>servicebroker-1280x640</title><path class="cls-1" d="M635.3,125.74,549.73,167a9.66,9.66,0,0,0-5.23,6.56L523.37,266.1a9.68,9.68,0,0,0,1.86,8.19l59.22,74.25a9.65,9.65,0,0,0,7.56,3.65h95a9.65,9.65,0,0,0,7.56-3.65l59.22-74.25a9.68,9.68,0,0,0,1.86-8.19L734.5,173.51a9.66,9.66,0,0,0-5.23-6.56L643.7,125.74A9.67,9.67,0,0,0,635.3,125.74Z"/><path class="cls-2" d="M711.87,216.81a7.18,7.18,0,0,1-.51,3.57l0,.08,0,.08a15.71,15.71,0,0,1-1.67,2.67,10.14,10.14,0,0,1-6.09,3.77c-4.08.88-7.9.22-10.59-3.1-2.52-3.12-3.7-6.81-2.21-10.89a10.73,10.73,0,0,1,14.56-6.33,14.24,14.24,0,0,1,2.56,1.56,7.35,7.35,0,0,1,2,2.19,13.18,13.18,0,0,1,1.14,2.71A15.94,15.94,0,0,1,711.87,216.81Z"/><path class="cls-3" d="M705.33,278.56a11.3,11.3,0,0,1-14.05-7.17c-1.95-5.24,1.81-12.5,7.07-14.19,5.42-1.74,12.47,1.79,14,7.42A11.42,11.42,0,0,1,705.33,278.56Z"/><path class="cls-2" d="M674.42,177.46c2.17,5.78-1.08,11.77-7.28,13.72a10.94,10.94,0,0,1-6.66-20.84C666.42,168.32,672.34,171.35,674.42,177.46Z"/><path class="cls-4" d="M566.77,222.05c-2.18-6.75,1.44-12.12,6.85-14.15,5.65-2.11,11.87,1.37,13.92,7.33a10.86,10.86,0,0,1-7,13.69A10.59,10.59,0,0,1,566.77,222.05Z"/><path class="cls-2" d="M625.11,302.33c2.37,4.56-1.12,12.27-6.69,13.83-5.91,1.65-12.12-1.44-14-6.87a11.44,11.44,0,0,1,7.12-14.09C616.54,293.61,623.9,296.22,625.11,302.33Z"/><path class="cls-3" d="M574.89,259.58c4.31-2.23,11.49.75,13.45,7,1.89,6-.48,11.24-6.6,13.62-5.3,2.05-11.56-.19-14-6.88C565.53,267.45,568.75,261.43,574.89,259.58Z"/><path class="cls-5" d="M674.46,210.46a7.94,7.94,0,0,1-10.19-4.73c-1.34-3.84,1-8.83,4.91-9.9,4.46-1.22,8.47.87,9.86,4.94A7.65,7.65,0,0,1,674.46,210.46Z"/><path class="cls-6" d="M602,218c-4.45,2-8.54-1.15-9.75-4.72s1.24-9.16,4.85-10c4.3-1,8.4.51,9.88,4.94A7.64,7.64,0,0,1,602,218Z"/><path class="cls-7" d="M605,275.76a7.35,7.35,0,0,1,9.44,4.87c1.31,4-.76,8.56-4.47,9.9s-9.19-1-10.23-4.8C598.52,281.36,600.59,277.09,605,275.76Z"/><path class="cls-6" d="M676.81,268.48c4.51-1.51,8.27.33,9.73,4.76,1.32,4-.75,8.59-4.47,9.92-3.55,1.27-9.46-1.51-10.32-5.16C670.81,274,672.8,269,676.81,268.48Z"/><path class="cls-7" d="M636.18,199.26c-4.63,1.18-8.36-.85-9.58-5.23-1.08-3.88,1.73-8.5,5.79-9.5,3.67-.91,8.34,1.8,9.23,5.35C642.54,193.58,639.79,198.34,636.18,199.26Z"/><path class="cls-7" d="M697.38,235.23c1.52,4.39-.19,8.41-4.15,9.79a7.52,7.52,0,0,1-9.89-4.56c-1.44-4.06.39-7.9,4.39-9.89C691.19,228.86,696.07,231.41,697.38,235.23Z"/><path class="cls-6" d="M595.42,246.16c1.51,4.4-.11,7.75-4.46,9.23-4.62,1.57-8.24-.12-9.76-4.55a7.57,7.57,0,0,1,4.53-9.48C590.13,239.82,593.87,241.68,595.42,246.16Z"/><path class="cls-2" d="M678.41,223a4.37,4.37,0,1,1,3-5.65A4.81,4.81,0,0,1,678.41,223Z"/><path class="cls-2" d="M665,285a4.66,4.66,0,0,1-5.66-2.82,4.77,4.77,0,0,1,3.5-5.65A4.37,4.37,0,1,1,665,285Z"/><path class="cls-2" d="M597.79,268.54c-.85-2.55.1-4.31,2.76-5.15a4.53,4.53,0,0,1,5.66,2.82,4.6,4.6,0,0,1-2.8,5.42C600.64,272.56,598.78,271.54,597.79,268.54Z"/><path class="cls-2" d="M611.06,206.61c-.82-2.43.15-4.27,2.74-5.19,2.07-.74,4.91.53,5.54,2.47a4.74,4.74,0,0,1-2.67,5.76C613.92,210.58,612.06,209.58,611.06,206.61Z"/><path class="cls-2" d="M647.47,195.24a4.36,4.36,0,1,1,2.46,8.37,4.12,4.12,0,0,1-5.22-3A4.6,4.6,0,0,1,647.47,195.24Z"/><path class="cls-2" d="M594.07,229.93c2.51-.9,5,.08,5.82,2.27a4.75,4.75,0,0,1-2.68,5.79,4.67,4.67,0,0,1-5.45-2.72C590.78,232.64,591.56,230.83,594.07,229.93Z"/><path class="cls-2" d="M631.45,291.14c-2.32.73-5.16-.69-5.73-2.87a4.72,4.72,0,0,1,3-5.41c2.38-.8,4.38.3,5.23,2.89S633.84,290.39,631.45,291.14Z"/><path class="cls-2" d="M687,251.31c1,2.66.12,4.36-2.5,5.28s-4.2.13-5.08-2.43.18-5.12,2.32-5.82S686.2,249.06,687,251.31Z"/><circle class="cls-8" cx="612.8" cy="181.63" r="10.94"/><circle class="cls-4" cx="666.18" cy="305.52" r="11.01"/><circle class="cls-6" cx="644.85" cy="295.07" r="7.71"/><path class="cls-9" d="M176.83,483.8c-.15-2.54,1.34-3.88,3.74-3.88H197c2.24,0,3.44,1.2,3.88,3.59,1.2,5.37,5.68,8.06,14.49,8.06,9.72,0,12.85-3.73,12.85-8.06,0-6.13-7.47-8.82-16.58-11.95-14.79-5.08-33.47-11.21-33.47-34.07,0-20.91,17-31.37,34.81-31.37,17.48,0,34.21,9.42,36,31.08.15,2.54-1.35,3.88-3.74,3.88H228.82c-2.24,0-3.44-1.19-3.89-3.59-1.19-5.52-5.07-8.06-12-8.06-7.46,0-10.9,3.73-10.9,8.06,0,6.28,6.12,9.27,14.79,12.4,14.94,5.23,35.25,10.61,35.25,33.62,0,20.91-16.73,31.37-36.75,31.37C195.8,514.88,178.62,505.47,176.83,483.8Z"/><path class="cls-9" d="M331.83,475.44c0,1.94-.15,3.74-.3,5.52-.3,2.39-1.79,3.44-4,3.44H277.61c2.72,8.88,9.69,12.4,17.47,12.4a17.91,17.91,0,0,0,11.06-3.73,6.8,6.8,0,0,1,4.63-1.94l14.34-.16c2.69,0,4.18,1.8,3,4.19-5.83,13-18.08,19.72-33.32,19.72-24.79,0-40.63-17.18-40.63-39.44s16.43-39.44,40-39.44C316,436,331.83,452.88,331.83,475.44Zm-22.3-8.07c-2.32-8.5-8.9-11.5-15.49-11.5-8.4,0-14.21,4.05-16.52,11.5Z"/><path class="cls-9" d="M380.62,440.48v17.63c0,2.39-1.05,3.59-3,3.59-8.37-.31-16.43,3.88-16.43,15.83v31.52a3.39,3.39,0,0,1-3.74,3.74H342.52a3.39,3.39,0,0,1-3.73-3.74V441.83a3.39,3.39,0,0,1,3.73-3.74h14.94a3.39,3.39,0,0,1,3.74,3.74v8.07c2.23-7.5,8.11-11.89,15.53-13C379.27,436.45,380.62,438.09,380.62,440.48Z"/><path class="cls-9" d="M458.86,442.43,434.51,509.8a4.17,4.17,0,0,1-4.18,3H414.2a4.18,4.18,0,0,1-4.19-3l-24.35-67.37c-.89-2.69.45-4.34,3.14-4.34h16a4,4,0,0,1,4.19,3.14l13.29,42.83,13.3-42.83a4,4,0,0,1,4.18-3.14h16.13C458.56,438.09,459.76,439.74,458.86,442.43Z"/><path class="cls-9" d="M466.25,425.39V412a3.39,3.39,0,0,1,3.74-3.74h14.93a3.39,3.39,0,0,1,3.74,3.74v13.44a3.39,3.39,0,0,1-3.74,3.74H470A3.39,3.39,0,0,1,466.25,425.39Zm0,83.66V441.83a3.39,3.39,0,0,1,3.74-3.74h14.93a3.39,3.39,0,0,1,3.74,3.74v67.22a3.39,3.39,0,0,1-3.74,3.74H470A3.39,3.39,0,0,1,466.25,509.05Z"/><path class="cls-9" d="M575.82,488.58c-4.63,15.54-19.27,26.3-36.75,26.3-22.7,0-39.59-17.18-39.59-39.44S516.37,436,539.07,436c17.48,0,32.12,10.76,36.75,26.29.9,2.54-.6,4.19-3.14,4.19H556.25a5.26,5.26,0,0,1-4.48-2.54c-2.69-3.74-7.32-5.83-12.7-5.83-9.71,0-17.18,7-17.18,17.33s7.47,17.33,17.18,17.33c5.38,0,10-2.09,12.7-5.68,1.19-1.79,2.39-2.69,4.48-2.69h16.43C575.22,484.4,576.72,486.05,575.82,488.58Z"/><path class="cls-9" d="M661.76,475.44c0,1.94-.15,3.74-.3,5.52-.29,2.39-1.79,3.44-4,3.44H607.55c2.71,8.88,9.68,12.4,17.46,12.4a17.91,17.91,0,0,0,11.06-3.73,6.8,6.8,0,0,1,4.63-1.94L655,491c2.69,0,4.18,1.8,3,4.19-5.83,13-18.08,19.72-33.32,19.72-24.8,0-40.63-17.18-40.63-39.44s16.44-39.44,40-39.44C645.93,436,661.76,452.88,661.76,475.44Zm-22.3-8.07c-2.31-8.5-8.9-11.5-15.49-11.5-8.4,0-14.21,4.05-16.52,11.5Z"/><path class="cls-1" d="M742.71,450.11c10.53,5.81,17.3,16.58,17.3,29.81,0,18.82-14,32.87-33,32.87H674.11a3.39,3.39,0,0,1-3.73-3.74V412a3.39,3.39,0,0,1,3.73-3.74h40.34c18.37,0,32.11,12.26,32.11,29.14a23.66,23.66,0,0,1-3.85,12.76Zm-48.43-19.49v14.94h25.39a9.28,9.28,0,0,0,3-6.72c0-4.93-3.29-8.22-8.21-8.22Zm41.83,47.81c0-6.73-3.44-11.95-12-11.95H694.28v23.9H724C732.67,490.38,736.11,485.15,736.11,478.43Z"/><path class="cls-1" d="M810,440.48v17.63c0,2.39-1.05,3.59-3,3.59-8.37-.31-16.43,3.88-16.43,15.83v31.52a3.39,3.39,0,0,1-3.74,3.74H771.86a3.39,3.39,0,0,1-3.73-3.74V441.83a3.39,3.39,0,0,1,3.73-3.74H786.8a3.39,3.39,0,0,1,3.74,3.74v8.07c2.23-7.5,8.11-11.89,15.53-13C808.61,436.45,810,438.09,810,440.48Z"/><path class="cls-1" d="M814.49,475.44a39.59,39.59,0,1,1,39.59,39.44A39.15,39.15,0,0,1,814.49,475.44Zm56.77,0c0-10.61-7.47-17.63-17.18-17.63s-17.18,7-17.18,17.63,7.47,17.63,17.18,17.63S871.26,486.05,871.26,475.44Z"/><path class="cls-1" d="M966.53,512.79h-17A5,5,0,0,1,945,510.4L924.25,480v29a3.39,3.39,0,0,1-3.74,3.74H905.58a3.39,3.39,0,0,1-3.74-3.74V412a3.39,3.39,0,0,1,3.74-3.74h14.93a3.39,3.39,0,0,1,3.74,3.74v58.59l19.27-30.06a5,5,0,0,1,4.48-2.39h17.18c3,0,4,2,2.39,4.48l-22,32.87,23.16,32.87C970.56,510.84,969.51,512.79,966.53,512.79Z"/><path class="cls-1" d="M1051.46,475.44c0,1.94-.14,3.74-.3,5.52-.29,2.39-1.79,3.44-4,3.44H997.25c2.71,8.88,9.68,12.4,17.46,12.4a17.91,17.91,0,0,0,11.06-3.73,6.8,6.8,0,0,1,4.63-1.94l14.34-.16c2.69,0,4.19,1.8,3,4.19-5.83,13-18.08,19.72-33.32,19.72-24.79,0-40.63-17.18-40.63-39.44s16.44-39.44,40-39.44C1035.63,436,1051.46,452.88,1051.46,475.44Zm-22.3-8.07c-2.31-8.5-8.9-11.5-15.49-11.5-8.4,0-14.21,4.05-16.52,11.5Z"/><path class="cls-1" d="M1102.18,440.48v17.63c0,2.39-1,3.59-3,3.59-8.37-.31-16.43,3.88-16.43,15.83v31.52a3.39,3.39,0,0,1-3.74,3.74h-14.94a3.39,3.39,0,0,1-3.73-3.74V441.83a3.39,3.39,0,0,1,3.73-3.74H1079a3.39,3.39,0,0,1,3.74,3.74v8.07c2.22-7.5,8.11-11.89,15.53-13C1100.83,436.45,1102.18,438.09,1102.18,440.48Z"/></svg>