<svg id="Layer_1" data-name="Layer 1" xmlns="http://www.w3.org/2000/svg" viewBox="0 0 511 511"><defs><style>.cls-1{fill:#1d93d1;}.cls-2,.cls-3,.cls-4,.cls-5,.cls-6,.cls-7,.cls-8{fill:#fff;}.cls-3{opacity:0.8;}.cls-4{opacity:0.9;}.cls-5{opacity:0.5;}.cls-6{opacity:0.4;}.cls-7{opacity:0.48;}.cls-8{opacity:0.66;}</style></defs><title>servicebroker-512x512</title><path class="cls-1" d="M246.51,7.52,59.28,97.68a21.17,21.17,0,0,0-11.45,14.37L1.59,314.64a21.16,21.16,0,0,0,4.09,17.92L135.24,495a21.17,21.17,0,0,0,16.55,8H359.6a21.15,21.15,0,0,0,16.55-8L505.72,332.56a21.23,21.23,0,0,0,4.09-17.92L463.56,112.05a21.17,21.17,0,0,0-11.45-14.37L264.88,7.52A21.14,21.14,0,0,0,246.51,7.52Z"/><path class="cls-2" d="M414.05,206.77a15.73,15.73,0,0,1-1.13,7.83c0,.06-.05.11-.07.17l-.08.17a33.09,33.09,0,0,1-3.65,5.85A22.23,22.23,0,0,1,395.8,229c-8.92,1.92-17.29.48-23.16-6.78-5.53-6.83-8.11-14.9-4.85-23.84,4.8-13.14,18.94-19.48,31.86-13.84a32.81,32.81,0,0,1,5.61,3.41,15.94,15.94,0,0,1,4.45,4.8,29.49,29.49,0,0,1,2.51,5.93A35.45,35.45,0,0,1,414.05,206.77Z"/><path class="cls-3" d="M399.74,341.88C387,345.49,374,339.69,369,326.21c-4.27-11.47,3.95-27.35,15.46-31,11.86-3.8,27.3,3.91,30.76,16.23A25,25,0,0,1,399.74,341.88Z"/><path class="cls-2" d="M332.11,120.68c4.73,12.66-2.37,25.75-15.93,30-11.83,3.73-25.35-2.84-29.35-14.67-4.43-13.11,2-26.6,14.77-30.93C314.6,100.69,327.56,107.3,332.11,120.68Z"/><path class="cls-4" d="M96.57,218.24c-4.77-14.77,3.13-26.52,15-31,12.36-4.62,26,3,30.46,16,3.74,10.88-1.21,24.92-15.33,30C113.91,237.86,100.92,231,96.57,218.24Z"/><path class="cls-2" d="M224.2,393.91c5.19,10-2.44,26.85-14.62,30.26-13,3.61-26.54-3.15-30.61-15.05-4.22-12.32,3.38-26.91,15.57-30.81C205.45,374.82,221.56,380.53,224.2,393.91Z"/><path class="cls-3" d="M114.34,300.36c9.41-4.89,25.12,1.65,29.4,15.25,4.15,13.16-1.05,24.6-14.44,29.8-11.58,4.49-25.28-.4-30.72-15.05C93.84,317.58,100.9,304.41,114.34,300.36Z"/><path class="cls-5" d="M332.2,192.88c-9.3,3.18-19.2-1.42-22.31-10.35-2.92-8.39,2.19-19.31,10.74-21.65,9.76-2.67,18.54,1.89,21.58,10.8C345.19,180.41,340.58,190,332.2,192.88Z"/><path class="cls-6" d="M173.54,209.3c-9.74,4.31-18.7-2.52-21.34-10.33-2.73-8,2.72-20,10.61-21.85,9.42-2.15,18.38,1.1,21.61,10.79C187.44,197,182.66,206.22,173.54,209.3Z"/><path class="cls-7" d="M180.17,335.76c8.77-2.92,17.69,1.69,20.64,10.66,2.87,8.69-1.66,18.73-9.77,21.66-8.31,3-20.11-2.25-22.38-10.49C166,348,170.57,338.68,180.17,335.76Z"/><path class="cls-6" d="M337.34,319.84c9.85-3.31,18.08.72,21.29,10.41C361.51,339,357,349,348.85,352c-7.78,2.79-20.7-3.3-22.58-11.28C324.2,331.88,328.55,321.07,337.34,319.84Z"/><path class="cls-7" d="M248.44,168.38c-10.13,2.58-18.3-1.87-21-11.44-2.38-8.49,3.78-18.6,12.67-20.8,8-2,18.23,4,20.18,11.72C262.35,156,256.32,166.36,248.44,168.38Z"/><path class="cls-7" d="M382.35,247.09c3.31,9.61-.42,18.39-9.09,21.42-9.31,3.25-18.49-1.07-21.64-10s.86-17.29,9.61-21.63C368.81,233.14,379.47,238.72,382.35,247.09Z"/><path class="cls-6" d="M159.24,271c3.32,9.62-.23,17-9.75,20.19-10.11,3.43-18-.26-21.36-10A16.57,16.57,0,0,1,138,260.49C147.67,257.13,155.86,261.19,159.24,271Z"/><path class="cls-2" d="M340.84,220.29c-4.93,1.7-11.16-1-12.78-5.64s1.57-10.67,6.49-12.37,11.16,1.06,12.78,5.65S345.76,218.6,340.84,220.29Z"/><path class="cls-2" d="M311.45,356c-4.9,1.59-11-1.48-12.38-6.18-1.46-5.11,2-10.69,7.65-12.36,4.33-1.27,10.58,2.18,11.76,6.51C319.77,348.73,316.45,354.42,311.45,356Z"/><path class="cls-2" d="M164.43,320c-1.85-5.59.22-9.44,6-11.27a9.91,9.91,0,0,1,12.37,6.17c1.44,4.58-1.51,10.3-6.11,11.85C170.67,328.77,166.61,326.54,164.43,320Z"/><path class="cls-2" d="M193.47,184.47c-1.8-5.33.32-9.35,6-11.37,4.52-1.61,10.73,1.17,12.12,5.41,1.62,5-1.19,11-5.84,12.6C199.72,193.15,195.66,191,193.47,184.47Z"/><path class="cls-2" d="M273.14,159.6c4.36-1.48,10.55,1.57,12.05,5.93,1.6,4.6-1.76,10.81-6.68,12.37s-9.75-1.19-11.41-6.45A10,10,0,0,1,273.14,159.6Z"/><path class="cls-2" d="M156.29,235.5c5.49-2,11,.17,12.74,5s-1.26,11.23-5.87,12.66a10.22,10.22,0,0,1-11.93-5.94C149.08,241.42,150.8,237.46,156.29,235.5Z"/><path class="cls-2" d="M238.07,369.43c-5.07,1.59-11.28-1.53-12.52-6.3s1.86-10.22,6.64-11.82c5.22-1.75,9.58.65,11.45,6.31S243.32,367.78,238.07,369.43Z"/><path class="cls-2" d="M359.63,282.27c2.08,5.82.27,9.54-5.47,11.54-5.5,1.92-9.19.3-11.11-5.3-1.86-5.42.39-11.2,5.08-12.75C352.53,274.31,357.88,277.33,359.63,282.27Z"/><circle class="cls-8" cx="197.27" cy="129.8" r="23.94"/><circle class="cls-4" cx="314.07" cy="400.88" r="24.1"/><circle class="cls-6" cx="267.41" cy="378.03" r="16.86"/></svg>