<svg width="179" height="36" viewBox="0 0 179 36" fill="none" xmlns="http://www.w3.org/2000/svg">
<g clip-path="url(#clip0)">
<path d="M9.60368 0.142784L2.6003 3.52114C2.39914 3.61769 2.22236 3.7584 2.08314 3.93277C1.94392 4.10715 1.84586 4.31069 1.79625 4.52824L0.0668731 12.1067C0.0175303 12.3245 0.0177514 12.5506 0.0675219 12.7684C0.117292 12.9861 0.215341 13.1898 0.354422 13.3646L5.2005 19.4413C5.33967 19.6156 5.51631 19.7563 5.71731 19.8531C5.91832 19.9498 6.13853 20 6.3616 20H14.1295C14.3528 20 14.5732 19.9498 14.7744 19.8531C14.9756 19.7564 15.1525 19.6156 15.292 19.4413L20.1367 13.3646C20.276 13.19 20.3742 12.9862 20.424 12.7685C20.4738 12.5507 20.4739 12.3245 20.4242 12.1067L18.6949 4.5296C18.6452 4.31205 18.5472 4.10851 18.408 3.93413C18.2687 3.75976 18.092 3.61905 17.8908 3.5225L10.8888 0.149596C10.6888 0.0523161 10.4694 0.00120024 10.247 2.08826e-05C10.0246 -0.00115848 9.80473 0.0476304 9.60368 0.142784V0.142784Z" fill="#1D93D1"/>
<path d="M16.6338 8.04699C16.6454 8.15404 16.6299 8.26229 16.5888 8.36179V8.36861V8.37542C16.5479 8.45925 16.4986 8.5387 16.4416 8.61255C16.3092 8.78489 16.1181 8.90271 15.9047 8.94371C15.5449 9.02139 15.2069 8.96415 14.9698 8.67115C14.8198 8.50989 14.7302 8.3017 14.7163 8.08191C14.7023 7.86212 14.7648 7.64428 14.8932 7.46534C15.0216 7.28641 15.2079 7.1574 15.4206 7.10022C15.6333 7.04304 15.8592 7.06121 16.06 7.15164C16.1399 7.18919 16.2157 7.23485 16.2862 7.28792C16.359 7.33928 16.4202 7.40517 16.4661 7.48143C16.5081 7.55715 16.5419 7.63709 16.567 7.71992C16.6018 7.82601 16.6242 7.93576 16.6338 8.04699V8.04699Z" fill="white"/>
<path opacity="0.8" d="M16.0579 13.4954C15.8096 13.5732 15.5406 13.5505 15.3088 13.4323C15.077 13.3141 14.9007 13.1097 14.8178 12.8631C14.6447 12.4011 14.9772 11.7606 15.4406 11.612C15.9039 11.4635 16.5417 11.7688 16.6807 12.2662C16.7525 12.5119 16.7281 12.7757 16.6124 13.004C16.4968 13.2323 16.2985 13.408 16.0579 13.4954V13.4954Z" fill="white"/>
<path d="M13.3294 4.57463C13.5202 5.08567 13.234 5.61307 12.6875 5.78478C12.4437 5.86285 12.1789 5.84088 11.9513 5.7237C11.7237 5.60652 11.552 5.40373 11.474 5.15994C11.3959 4.91615 11.4179 4.65134 11.535 4.42375C11.6522 4.19617 11.855 4.02445 12.0988 3.94638C12.2207 3.90355 12.35 3.88594 12.4789 3.8946C12.6079 3.90327 12.7337 3.93802 12.8487 3.99677C12.9638 4.05552 13.0658 4.13703 13.1484 4.23636C13.231 4.3357 13.2926 4.45078 13.3294 4.57463V4.57463Z" fill="white"/>
<path opacity="0.9" d="M3.83089 8.50889C3.78578 8.38747 3.7657 8.25818 3.77183 8.1288C3.77797 7.99942 3.8102 7.87261 3.86659 7.75601C3.92299 7.6394 4.00238 7.5354 4.09999 7.45026C4.1976 7.36512 4.31142 7.3006 4.43461 7.26057C4.93203 7.07387 5.48123 7.38186 5.66112 7.90653C5.70073 8.02649 5.71611 8.15313 5.70638 8.27908C5.69665 8.40504 5.66201 8.52781 5.60445 8.64026C5.54689 8.75272 5.46756 8.85262 5.37108 8.93417C5.2746 9.01573 5.16288 9.0773 5.04241 9.11533C4.92324 9.15855 4.79651 9.17704 4.66995 9.16968C4.54339 9.16232 4.41966 9.12926 4.3063 9.07251C4.19294 9.01577 4.09233 8.93653 4.01059 8.83963C3.92886 8.74273 3.86771 8.63019 3.83089 8.50889V8.50889Z" fill="white"/>
<path d="M8.97806 15.5942C9.18656 16.003 8.87857 16.6762 8.38797 16.8207C8.26636 16.8605 8.1381 16.876 8.01052 16.8662C7.88293 16.8565 7.75851 16.8217 7.64436 16.7638C7.53022 16.706 7.42858 16.6263 7.34526 16.5292C7.26193 16.432 7.19855 16.3195 7.15873 16.1979C7.11891 16.0763 7.10344 15.948 7.11318 15.8204C7.12293 15.6928 7.15771 15.5684 7.21555 15.4543C7.27338 15.3401 7.35313 15.2385 7.45024 15.1552C7.54735 15.0718 7.65992 15.0085 7.78153 14.9686C8.22171 14.8242 8.8704 15.0545 8.97806 15.5942Z" fill="white"/>
<path opacity="0.8" d="M4.54612 11.8204C4.92634 11.6242 5.56003 11.8872 5.73311 12.4364C5.90618 12.9856 5.69086 13.4285 5.14983 13.637C4.6824 13.8183 4.13047 13.622 3.91106 13.0306C3.86639 12.9097 3.8476 12.7808 3.85592 12.6523C3.86424 12.5237 3.89948 12.3983 3.95935 12.2842C4.01922 12.1701 4.10239 12.0699 4.20347 11.99C4.30455 11.9101 4.42129 11.8523 4.54612 11.8204V11.8204Z" fill="white"/>
<path opacity="0.5" d="M13.3334 7.48681C13.1622 7.5488 12.9735 7.54026 12.8086 7.46308C12.6438 7.3859 12.5163 7.24639 12.4544 7.07525C12.3924 6.90411 12.4009 6.71535 12.4781 6.55051C12.5553 6.38566 12.6948 6.25824 12.8659 6.19625C12.9516 6.16667 13.0423 6.15447 13.1328 6.16039C13.2232 6.1663 13.3116 6.1902 13.3926 6.23068C13.4737 6.27117 13.5459 6.32742 13.605 6.39616C13.6641 6.46489 13.7089 6.54473 13.7367 6.63098C13.7934 6.7981 13.783 6.98069 13.7078 7.14032C13.6326 7.29995 13.4983 7.42416 13.3334 7.48681Z" fill="white"/>
<path opacity="0.4" d="M6.93354 8.1546C6.84953 8.18866 6.75929 8.20462 6.6687 8.20144C6.57811 8.19826 6.48921 8.17601 6.4078 8.13615C6.32639 8.09628 6.25431 8.03969 6.19626 7.97007C6.1382 7.90046 6.09548 7.81938 6.07089 7.73213C5.9605 7.40779 6.17991 6.924 6.49881 6.85041C6.87902 6.76319 7.24016 6.89538 7.36963 7.2865C7.39876 7.3721 7.41056 7.46264 7.40435 7.55284C7.39814 7.64305 7.37404 7.73112 7.33345 7.81191C7.29286 7.89271 7.2366 7.96462 7.16794 8.02346C7.09928 8.08229 7.0196 8.12687 6.93354 8.1546V8.1546Z" fill="white"/>
<path opacity="0.48" d="M7.2025 13.2488C7.28528 13.2205 7.37292 13.2093 7.46015 13.2158C7.54738 13.2222 7.63242 13.2462 7.71016 13.2863C7.78791 13.3263 7.85676 13.3817 7.91261 13.449C7.96845 13.5163 8.01013 13.5942 8.03516 13.678C8.09076 13.8469 8.08101 14.0304 8.00783 14.1924C7.93466 14.3544 7.80339 14.4831 7.63995 14.553C7.3047 14.6742 6.82909 14.4617 6.73778 14.1291C6.70886 14.0409 6.698 13.9477 6.70584 13.8551C6.71368 13.7626 6.74007 13.6725 6.78343 13.5904C6.82679 13.5083 6.88624 13.4357 6.95823 13.377C7.03023 13.3183 7.1133 13.2747 7.2025 13.2488V13.2488Z" fill="white"/>
<path opacity="0.4" d="M13.5406 12.6069C13.6239 12.5705 13.7141 12.5526 13.805 12.5546C13.8959 12.5565 13.9853 12.5782 14.067 12.6181C14.1487 12.6581 14.2207 12.7153 14.278 12.7858C14.3354 12.8564 14.3767 12.9385 14.3992 13.0267C14.4557 13.1954 14.4465 13.3794 14.3732 13.5416C14.2999 13.7039 14.168 13.8324 14.0039 13.9016C13.6905 14.0147 13.1699 13.7653 13.0936 13.4464C13.0105 13.0921 13.1863 12.6519 13.5406 12.6069Z" fill="white"/>
<path opacity="0.48" d="M9.95465 6.49761C9.54581 6.60255 9.21738 6.42266 9.10972 6.03699C9.07162 5.85844 9.10335 5.67208 9.1984 5.5162C9.29345 5.36032 9.44459 5.24677 9.62077 5.19887C9.79091 5.1669 9.96688 5.19687 10.1168 5.28335C10.2668 5.36983 10.3809 5.50712 10.4384 5.6704C10.4696 5.84331 10.438 6.02166 10.3493 6.17333C10.2606 6.32499 10.1206 6.43999 9.95465 6.49761V6.49761Z" fill="white"/>
<path opacity="0.48" d="M15.3562 9.67273C15.4925 10.0598 15.3385 10.4141 14.9896 10.5367C14.9056 10.5697 14.8158 10.5851 14.7256 10.5822C14.6354 10.5793 14.5468 10.5581 14.465 10.5199C14.3833 10.4816 14.3102 10.4272 14.2502 10.3598C14.1902 10.2924 14.1446 10.2135 14.116 10.1279C13.9893 9.76949 14.1515 9.43151 14.5044 9.25571C14.8097 9.10853 15.239 9.33476 15.3562 9.67273Z" fill="white"/>
<path opacity="0.4" d="M6.35738 10.6376C6.49366 11.0246 6.34784 11.319 5.9649 11.4553C5.55606 11.5916 5.23717 11.4444 5.10362 11.0533C5.04893 10.8894 5.06 10.7107 5.13449 10.5549C5.20898 10.399 5.34107 10.2782 5.50291 10.2179C5.89131 10.0775 6.22111 10.241 6.35738 10.6376Z" fill="white"/>
<path d="M13.6813 8.59206C13.6088 8.61204 13.5321 8.61041 13.4605 8.58735C13.3889 8.56429 13.3257 8.52082 13.2785 8.46228C13.2313 8.40374 13.2023 8.33268 13.195 8.25785C13.1876 8.18302 13.2023 8.10768 13.2373 8.0411C13.2722 7.97452 13.3258 7.9196 13.3915 7.88309C13.4573 7.84659 13.5322 7.8301 13.6072 7.83565C13.6822 7.84119 13.7539 7.86853 13.8136 7.9143C13.8732 7.96008 13.9182 8.02228 13.9429 8.09328C13.968 8.19403 13.9552 8.30048 13.907 8.39242C13.8587 8.48436 13.7784 8.5554 13.6813 8.59206V8.59206Z" fill="white"/>
<path d="M12.497 14.0665C12.3975 14.0962 12.2905 14.087 12.1976 14.0406C12.1048 13.9943 12.033 13.9144 11.9968 13.8171C11.9737 13.7101 11.993 13.5983 12.0508 13.5053C12.1085 13.4122 12.2 13.3452 12.3062 13.3184C12.3553 13.3058 12.4064 13.3031 12.4566 13.3103C12.5068 13.3176 12.555 13.3346 12.5986 13.3605C12.6422 13.3864 12.6803 13.4206 12.7107 13.4612C12.7411 13.5018 12.7631 13.5479 12.7757 13.5971C12.7882 13.6462 12.7909 13.6973 12.7837 13.7475C12.7765 13.7977 12.7594 13.8459 12.7336 13.8895C12.7077 13.9331 12.6735 13.9712 12.6329 14.0016C12.5923 14.0319 12.5461 14.054 12.497 14.0665V14.0665Z" fill="white"/>
<path d="M6.56677 12.6123C6.49181 12.3861 6.57494 12.2308 6.8107 12.1572C6.90995 12.1258 7.01751 12.1343 7.1106 12.1808C7.2037 12.2274 7.27503 12.3083 7.30949 12.4066C7.33324 12.5026 7.32132 12.6041 7.27596 12.692C7.2306 12.78 7.15487 12.8485 7.06282 12.8849C6.81752 12.9667 6.65398 12.8767 6.56677 12.6123Z" fill="white"/>
<path d="M7.73733 7.14746C7.66511 6.93214 7.75096 6.76997 7.97991 6.6882C8.07386 6.65996 8.17484 6.66645 8.26441 6.70648C8.35397 6.74651 8.42616 6.81741 8.46779 6.90625C8.49841 7.00497 8.4914 7.11152 8.44812 7.20538C8.40484 7.29924 8.32835 7.37376 8.23339 7.41457C7.98945 7.4977 7.82592 7.40912 7.73733 7.14746Z" fill="white"/>
<path d="M10.9511 6.14448C10.9999 6.12906 11.0512 6.12352 11.1021 6.12819C11.1531 6.13286 11.2025 6.14765 11.2477 6.17168C11.2928 6.19571 11.3327 6.2285 11.365 6.26814C11.3973 6.30778 11.4213 6.35347 11.4358 6.40253C11.4502 6.45159 11.4547 6.50303 11.4489 6.55384C11.4432 6.60465 11.4274 6.65381 11.4025 6.69844C11.3775 6.74307 11.3439 6.78227 11.3036 6.81375C11.2633 6.84522 11.2172 6.86835 11.1678 6.88175C11.1205 6.89637 11.0707 6.90118 11.0214 6.89587C10.9722 6.89056 10.9245 6.87526 10.8814 6.85089C10.8383 6.82652 10.8006 6.7936 10.7706 6.75415C10.7407 6.7147 10.7191 6.66955 10.7072 6.62146C10.6836 6.52591 10.6953 6.42507 10.7402 6.33745C10.785 6.24983 10.8599 6.18132 10.9511 6.14448V6.14448Z" fill="white"/>
<path d="M6.23861 9.20528C6.28541 9.18412 6.33598 9.17252 6.38733 9.17116C6.43868 9.1698 6.48978 9.17871 6.53764 9.19737C6.5855 9.21603 6.62915 9.24406 6.66602 9.27982C6.7029 9.31558 6.73226 9.35835 6.75238 9.40561C6.78353 9.50484 6.77648 9.61212 6.73261 9.70642C6.68874 9.80071 6.61122 9.87521 6.51526 9.9153C6.41962 9.94021 6.3182 9.92964 6.22976 9.88555C6.14132 9.84145 6.07185 9.76682 6.03419 9.67545C5.94834 9.44377 6.01647 9.28433 6.23861 9.20528Z" fill="white"/>
<path d="M9.53682 14.606C9.4363 14.6367 9.32784 14.6275 9.23395 14.5803C9.14006 14.5331 9.06795 14.4515 9.03259 14.3526C9.01067 14.2534 9.02644 14.1496 9.07682 14.0615C9.1272 13.9733 9.20859 13.907 9.30515 13.8756C9.40069 13.8488 9.50289 13.86 9.59035 13.9069C9.67781 13.9537 9.74377 14.0326 9.7744 14.127C9.80504 14.2213 9.79799 14.3239 9.75472 14.4132C9.71145 14.5025 9.63533 14.5716 9.54227 14.606H9.53682Z" fill="white"/>
<path d="M14.4402 11.0914C14.464 11.1356 14.4771 11.1847 14.4784 11.2349C14.4796 11.2851 14.4691 11.3348 14.4476 11.3802C14.4262 11.4256 14.3943 11.4652 14.3547 11.496C14.315 11.5268 14.2687 11.5478 14.2195 11.5574C13.9973 11.6338 13.8488 11.5683 13.7711 11.3435C13.7462 11.2981 13.7314 11.248 13.7275 11.1964C13.7237 11.1448 13.731 11.093 13.749 11.0445C13.7669 10.9959 13.7951 10.9518 13.8316 10.9151C13.868 10.8785 13.912 10.85 13.9604 10.8318C14.0088 10.8135 14.0605 10.8059 14.1122 10.8094C14.1638 10.8129 14.214 10.8275 14.2595 10.8521C14.305 10.8767 14.3447 10.9108 14.3759 10.9521C14.4071 10.9934 14.429 11.0409 14.4402 11.0914Z" fill="white"/>
<path opacity="0.66" d="M7.89175 5.90863C8.42538 5.90863 8.85797 5.47604 8.85797 4.94241C8.85797 4.40879 8.42538 3.9762 7.89175 3.9762C7.35813 3.9762 6.92554 4.40879 6.92554 4.94241C6.92554 5.47604 7.35813 5.90863 7.89175 5.90863Z" fill="white"/>
<path opacity="0.9" d="M12.6018 16.8465C13.1384 16.8465 13.5735 16.4115 13.5735 15.8749C13.5735 15.3382 13.1384 14.9032 12.6018 14.9032C12.0652 14.9032 11.6301 15.3382 11.6301 15.8749C11.6301 16.4115 12.0652 16.8465 12.6018 16.8465Z" fill="white"/>
<path opacity="0.4" d="M10.7198 15.6336C11.0954 15.6336 11.3999 15.3292 11.3999 14.9536C11.3999 14.578 11.0954 14.2736 10.7198 14.2736C10.3443 14.2736 10.0398 14.578 10.0398 14.9536C10.0398 15.3292 10.3443 15.6336 10.7198 15.6336Z" fill="white"/>
<path d="M26.4315 14.0434C26.4061 13.6236 26.6522 13.401 27.0485 13.401H29.763C30.1339 13.401 30.3312 13.5983 30.4054 13.9946C30.6026 14.8831 31.3446 15.3283 32.8013 15.3283C34.4082 15.3283 34.9258 14.7094 34.9258 13.9946C34.9258 12.9812 33.6898 12.536 32.1842 12.0185C29.7376 11.177 26.6504 10.1654 26.6504 6.38518C26.6504 2.92883 29.4662 1.19885 32.4068 1.19885C35.3022 1.19885 38.0636 2.75511 38.3586 6.33632C38.3839 6.75615 38.136 6.97873 37.7415 6.97873H35.0271C34.6652 6.97873 34.4607 6.78148 34.3865 6.38518C34.1893 5.47133 33.5468 5.05331 32.4104 5.05331C31.1745 5.05331 30.6008 5.67038 30.6008 6.38518C30.6008 7.42389 31.6142 7.91792 33.0456 8.43547C35.5175 9.30046 38.8761 10.1908 38.8761 13.9946C38.8761 17.4509 36.1092 19.1809 32.7995 19.1809C29.5675 19.1809 26.7264 17.6246 26.4315 14.0434Z" fill="#2D2F3A"/>
<path d="M52.0585 12.661C52.0585 12.9813 52.0332 13.2781 52.0097 13.5658C52.0063 13.6481 51.9859 13.7289 51.9498 13.803C51.9138 13.8771 51.8628 13.9429 51.8001 13.9964C51.7374 14.0499 51.6644 14.0899 51.5856 14.1139C51.5067 14.1379 51.4238 14.1454 51.3419 14.1358H43.0938C43.5425 15.6016 44.6953 16.1843 45.9891 16.1843C46.6502 16.1889 47.2938 15.9716 47.8168 15.5672C48.0223 15.3675 48.2958 15.253 48.5823 15.2469L50.9547 15.2216C51.398 15.2216 51.646 15.5184 51.4487 15.9129C50.4842 18.0627 48.4592 19.1702 45.9403 19.1702C41.8397 19.1702 39.2212 16.3291 39.2212 12.6556C39.2212 8.98207 41.9356 6.14099 45.8407 6.14099C49.4419 6.13918 52.0585 8.93141 52.0585 12.661ZM48.3706 11.3255C47.9887 9.92126 46.8994 9.42362 45.81 9.42362C44.4202 9.42362 43.4575 10.095 43.0775 11.3255H48.3706Z" fill="#2D2F3A"/>
<path d="M60.1184 6.87937V9.79465C60.1184 10.1891 59.9374 10.3882 59.6226 10.3882C58.24 10.3375 56.9082 11.0306 56.9082 13.0049V18.2184C56.9173 18.3016 56.9077 18.3859 56.8799 18.465C56.8522 18.544 56.807 18.6158 56.7477 18.675C56.6885 18.7343 56.6167 18.7794 56.5377 18.8072C56.4586 18.835 56.3743 18.8446 56.2911 18.8354H53.8264C53.743 18.8446 53.6587 18.8349 53.5796 18.8071C53.5005 18.7794 53.4286 18.7342 53.3692 18.675C53.3099 18.6158 53.2645 18.5441 53.2365 18.4651C53.2085 18.386 53.1986 18.3017 53.2075 18.2184V7.10195C53.1986 7.01858 53.2085 6.93428 53.2365 6.85525C53.2645 6.77622 53.3099 6.70446 53.3692 6.64526C53.4286 6.58606 53.5005 6.54093 53.5796 6.51318C53.6587 6.48542 53.743 6.47575 53.8264 6.48487H56.2965C56.3798 6.47569 56.464 6.48534 56.5431 6.5131C56.6221 6.54087 56.6939 6.58604 56.7532 6.64528C56.8124 6.70452 56.8576 6.77632 56.8853 6.85536C56.9131 6.9344 56.9228 7.01868 56.9136 7.10195V8.43744C57.2755 7.19786 58.2563 6.47221 59.4832 6.28763C59.903 6.21343 60.1184 6.48487 60.1184 6.87937Z" fill="#2D2F3A"/>
<path d="M73.0628 7.20124L69.0364 18.3412C68.9929 18.4889 68.9012 18.6178 68.7759 18.7073C68.6506 18.7969 68.499 18.8419 68.3451 18.8352H65.6777C65.5237 18.8417 65.372 18.7966 65.2464 18.7071C65.1209 18.6176 65.0288 18.4889 64.9847 18.3412L60.9601 7.20124C60.8117 6.75607 61.0343 6.47739 61.4777 6.47739H64.1215C64.2796 6.46792 64.4359 6.51495 64.5625 6.61008C64.6892 6.70522 64.7778 6.84226 64.8128 6.99675L67.0114 14.0777L69.2101 7.00942C69.2447 6.85475 69.3333 6.71749 69.46 6.6223C69.5867 6.5271 69.7432 6.48021 69.9014 6.49006H72.5687C73.0139 6.48463 73.2111 6.75607 73.0628 7.20124Z" fill="#2D2F3A"/>
<path d="M74.2846 4.38547V2.16146C74.2754 2.07819 74.2851 1.99391 74.3128 1.91487C74.3406 1.83583 74.3858 1.76403 74.445 1.70479C74.5043 1.64555 74.5761 1.60038 74.6551 1.57262C74.7341 1.54485 74.8184 1.5352 74.9017 1.54438H77.3718C77.4551 1.5352 77.5393 1.54485 77.6184 1.57262C77.6974 1.60038 77.7692 1.64555 77.8285 1.70479C77.8877 1.76403 77.9329 1.83583 77.9606 1.91487C77.9884 1.99391 77.9981 2.07819 77.9889 2.16146V4.38547C77.9981 4.46874 77.9884 4.55301 77.9606 4.63206C77.9329 4.7111 77.8877 4.78289 77.8285 4.84213C77.7692 4.90137 77.6974 4.94655 77.6184 4.97431C77.5393 5.00208 77.4551 5.01173 77.3718 5.00254H74.9017C74.8184 5.01173 74.7341 5.00208 74.6551 4.97431C74.5761 4.94655 74.5043 4.90137 74.445 4.84213C74.3858 4.78289 74.3406 4.7111 74.3128 4.63206C74.2851 4.55301 74.2754 4.46874 74.2846 4.38547ZM74.2846 18.2181V7.1035C74.2755 7.02015 74.2852 6.93583 74.3129 6.85671C74.3407 6.7776 74.3858 6.70572 74.445 6.64634C74.5042 6.58697 74.576 6.54162 74.655 6.51363C74.734 6.48565 74.8183 6.47573 74.9017 6.48461H77.3718C77.4552 6.47538 77.5397 6.48506 77.6189 6.51292C77.6981 6.54079 77.77 6.58613 77.8293 6.64558C77.8885 6.70503 77.9337 6.77706 77.9613 6.85633C77.9889 6.9356 77.9983 7.02008 77.9889 7.1035V18.2181C77.9981 18.3014 77.9884 18.3857 77.9606 18.4647C77.9329 18.5437 77.8877 18.6155 77.8285 18.6748C77.7692 18.734 77.6974 18.7792 77.6184 18.8069C77.5393 18.8347 77.4551 18.8444 77.3718 18.8352H74.9017C74.8184 18.8444 74.7341 18.8347 74.6551 18.8069C74.5761 18.7792 74.5043 18.734 74.445 18.6748C74.3858 18.6155 74.3406 18.5437 74.3128 18.4647C74.2851 18.3857 74.2754 18.3014 74.2846 18.2181V18.2181Z" fill="#2D2F3A"/>
<path d="M92.3996 14.8325C91.6341 17.4021 89.2147 19.1755 86.3229 19.1755C82.5698 19.1755 79.7776 16.3344 79.7776 12.6609C79.7776 8.98745 82.5698 6.14636 86.3229 6.14636C89.2183 6.14636 91.6341 7.92521 92.3996 10.4894C92.548 10.9092 92.3019 11.1807 91.8802 11.1807H89.1658C89.0169 11.1804 88.8706 11.1418 88.741 11.0686C88.6114 10.9954 88.5028 10.89 88.4257 10.7627C87.9805 10.1438 87.2151 9.79815 86.3247 9.79815C84.7196 9.79815 83.4855 10.9599 83.4855 12.6646C83.4855 14.3692 84.7196 15.5292 86.3247 15.5292C87.2151 15.5292 87.9805 15.1835 88.4257 14.59C88.6229 14.2932 88.8202 14.1466 89.1658 14.1466H91.8802C92.3019 14.143 92.548 14.4145 92.3996 14.8325Z" fill="#2D2F3A"/>
<path d="M106.611 12.661C106.611 12.9813 106.586 13.2781 106.562 13.5658C106.559 13.6481 106.539 13.7289 106.503 13.803C106.466 13.8771 106.416 13.9429 106.353 13.9964C106.29 14.0499 106.217 14.0899 106.138 14.1139C106.059 14.1379 105.977 14.1454 105.895 14.1358H97.6465C98.0953 15.6016 99.248 16.1843 100.542 16.1843C101.203 16.1886 101.846 15.9713 102.37 15.5672C102.575 15.3675 102.849 15.253 103.135 15.2469L105.507 15.2216C105.951 15.2216 106.199 15.5184 106.001 15.9129C105.037 18.0627 103.012 19.1702 100.493 19.1702C96.3924 19.1702 93.7739 16.3291 93.7739 12.6556C93.7739 8.98207 96.4883 6.14099 100.393 6.14099C103.993 6.13918 106.611 8.93141 106.611 12.661ZM102.923 11.3255C102.541 9.92126 101.452 9.42362 100.363 9.42362C98.9729 9.42362 98.0102 10.095 97.632 11.3255H102.923Z" fill="#2D2F3A"/>
<path d="M119.995 8.47152C120.877 8.95309 121.61 9.66726 122.115 10.5364C122.619 11.4054 122.876 12.3962 122.856 13.4009C122.856 16.5134 120.535 18.8297 117.397 18.8297H108.655C108.571 18.8388 108.487 18.8292 108.408 18.8014C108.329 18.7737 108.257 18.7285 108.197 18.6693C108.138 18.6101 108.093 18.5384 108.065 18.4593C108.037 18.3803 108.027 18.296 108.036 18.2126V2.16143C108.027 2.07806 108.037 1.99376 108.065 1.91473C108.093 1.83569 108.138 1.76394 108.197 1.70474C108.257 1.64555 108.329 1.60041 108.408 1.57265C108.487 1.54489 108.571 1.53522 108.655 1.54435H115.323C118.359 1.54435 120.632 3.57111 120.632 6.36153C120.626 7.11188 120.405 7.84476 119.995 8.47333V8.47152ZM111.988 5.25042V7.71873H116.186C116.34 7.57709 116.463 7.40543 116.548 7.21433C116.633 7.02323 116.678 6.81675 116.68 6.60763C116.691 6.42658 116.663 6.24529 116.599 6.07573C116.534 5.90616 116.435 5.75218 116.307 5.62393C116.178 5.49568 116.024 5.39608 115.855 5.33169C115.685 5.26731 115.504 5.23961 115.323 5.25042H111.988ZM118.904 13.162C118.904 12.0509 118.336 11.1859 116.928 11.1859H111.988V15.1381H116.903C118.336 15.1291 118.904 14.2659 118.904 13.162Z" fill="#1D93D1"/>
<path d="M131.115 6.87937V9.79465C131.115 10.1891 130.934 10.3882 130.619 10.3882C129.237 10.3375 127.905 11.0306 127.905 13.0049V18.2184C127.914 18.3016 127.904 18.3859 127.877 18.465C127.849 18.544 127.804 18.6158 127.744 18.675C127.685 18.7343 127.613 18.7794 127.534 18.8072C127.455 18.835 127.371 18.8446 127.288 18.8354H124.816C124.732 18.8446 124.648 18.835 124.569 18.8072C124.49 18.7794 124.418 18.7343 124.359 18.675C124.3 18.6158 124.255 18.544 124.227 18.465C124.199 18.3859 124.189 18.3016 124.199 18.2184V7.10195C124.189 7.01868 124.199 6.9344 124.227 6.85536C124.255 6.77632 124.3 6.70452 124.359 6.64528C124.418 6.58604 124.49 6.54087 124.569 6.5131C124.648 6.48534 124.732 6.47569 124.816 6.48487H127.286C127.369 6.47569 127.453 6.48534 127.532 6.5131C127.612 6.54087 127.683 6.58604 127.743 6.64528C127.802 6.70452 127.847 6.77632 127.875 6.85536C127.902 6.9344 127.912 7.01868 127.903 7.10195V8.43744C128.265 7.19786 129.246 6.47221 130.473 6.28763C130.892 6.21343 131.115 6.48487 131.115 6.87937Z" fill="#1D93D1"/>
<path d="M131.864 12.661C131.858 11.3651 132.237 10.0966 132.953 9.01621C133.668 7.93579 134.688 7.09207 135.884 6.59195C137.079 6.09183 138.396 5.95781 139.668 6.20688C140.939 6.45595 142.109 7.07689 143.027 7.99104C143.945 8.90519 144.572 10.0714 144.827 11.3419C145.082 12.6124 144.954 13.93 144.46 15.1278C143.965 16.3256 143.126 17.3497 142.049 18.0703C140.972 18.7909 139.706 19.1755 138.41 19.1755C137.55 19.1852 136.697 19.0235 135.901 18.6999C135.104 18.3763 134.38 17.8973 133.771 17.2908C133.162 16.6844 132.679 15.9626 132.352 15.1677C132.025 14.3728 131.859 13.5206 131.864 12.661V12.661ZM141.251 12.661C141.251 10.9056 140.015 9.74568 138.41 9.74568C136.805 9.74568 135.569 10.9056 135.569 12.661C135.569 14.4163 136.805 15.5744 138.41 15.5744C140.015 15.5744 141.251 14.4145 141.251 12.661Z" fill="#1D93D1"/>
<path d="M157.003 18.8352H154.186C154.038 18.842 153.891 18.8087 153.761 18.739C153.631 18.6692 153.522 18.5655 153.446 18.4389L150.007 13.419V18.2181C150.016 18.3015 150.006 18.3858 149.978 18.4648C149.95 18.5438 149.905 18.6156 149.846 18.6748C149.786 18.734 149.714 18.7791 149.635 18.8069C149.556 18.8346 149.472 18.8443 149.389 18.8352H146.924C146.841 18.8444 146.756 18.8347 146.677 18.8069C146.598 18.7792 146.526 18.734 146.467 18.6748C146.408 18.6155 146.363 18.5437 146.335 18.4647C146.307 18.3857 146.298 18.3014 146.307 18.2181V2.16146C146.298 2.07819 146.307 1.99391 146.335 1.91487C146.363 1.83583 146.408 1.76403 146.467 1.70479C146.526 1.64555 146.598 1.60038 146.677 1.57262C146.756 1.54485 146.841 1.5352 146.924 1.54438H149.394C149.477 1.53526 149.562 1.54493 149.641 1.57269C149.72 1.60044 149.792 1.64558 149.851 1.70478C149.911 1.76398 149.956 1.83573 149.984 1.91476C150.012 1.99379 150.022 2.07809 150.013 2.16146V11.8501L153.198 6.88092C153.274 6.75386 153.383 6.64988 153.514 6.58009C153.645 6.51029 153.792 6.47729 153.94 6.48461H156.781C157.275 6.48461 157.447 6.80672 157.175 7.22655L153.545 12.6554L157.373 18.0842C157.669 18.5131 157.497 18.8352 157.003 18.8352Z" fill="#1D93D1"/>
<path d="M171.047 12.661C171.047 12.9813 171.024 13.2781 170.998 13.5658C170.995 13.6481 170.975 13.7289 170.939 13.803C170.903 13.8771 170.852 13.9429 170.789 13.9964C170.726 14.0499 170.653 14.0899 170.574 14.1139C170.495 14.1379 170.413 14.1454 170.331 14.1358H162.083C162.531 15.6016 163.684 16.1843 164.978 16.1843C165.64 16.1888 166.284 15.9716 166.807 15.5672C167.012 15.3669 167.286 15.2523 167.573 15.2469L169.943 15.2216C170.389 15.2216 170.635 15.5184 170.437 15.9129C169.475 18.0627 167.448 19.1702 164.929 19.1702C160.828 19.1702 158.21 16.3291 158.21 12.6556C158.21 8.98207 160.924 6.14099 164.831 6.14099C168.429 6.13918 171.047 8.93141 171.047 12.661ZM167.359 11.3255C166.977 9.92126 165.888 9.42362 164.799 9.42362C163.409 9.42362 162.446 10.095 162.068 11.3255H167.359Z" fill="#1D93D1"/>
<path d="M179.432 6.87937V9.79465C179.432 10.1891 179.251 10.3882 178.938 10.3882C177.553 10.3375 176.223 11.0306 176.223 13.0049V18.2184C176.232 18.3016 176.223 18.3859 176.195 18.465C176.167 18.544 176.122 18.6158 176.063 18.675C176.004 18.7343 175.932 18.7794 175.853 18.8072C175.774 18.835 175.689 18.8446 175.606 18.8354H173.136C173.053 18.8446 172.969 18.835 172.889 18.8072C172.81 18.7794 172.739 18.7343 172.679 18.675C172.62 18.6158 172.575 18.544 172.547 18.465C172.519 18.3859 172.51 18.3016 172.519 18.2184V7.10195C172.51 7.01868 172.519 6.9344 172.547 6.85536C172.575 6.77632 172.62 6.70452 172.679 6.64528C172.739 6.58604 172.81 6.54087 172.889 6.5131C172.969 6.48534 173.053 6.47569 173.136 6.48487H175.606C175.689 6.47569 175.774 6.48534 175.853 6.5131C175.932 6.54087 176.004 6.58604 176.063 6.64528C176.122 6.70452 176.167 6.77632 176.195 6.85536C176.223 6.9344 176.232 7.01868 176.223 7.10195V8.43744C176.585 7.19786 177.566 6.47221 178.793 6.28763C179.209 6.21343 179.432 6.48487 179.432 6.87937Z" fill="#1D93D1"/>
<path d="M4.94565 29.8575H1.47033V32.439H5.53262V33.6029H0V25.2132H5.49194V26.3887H1.47033V28.7051H4.94565V29.8575Z" fill="#FC6011"/>
<path d="M21.8887 27.3683L21.9294 28.0885C22.3943 27.5315 23.0045 27.253 23.76 27.253C25.0696 27.253 25.736 27.9963 25.7592 29.483V33.6029H24.347V29.5636C24.347 29.168 24.2598 28.876 24.0855 28.6878C23.915 28.4957 23.6341 28.3997 23.2428 28.3997C22.6733 28.3997 22.249 28.6551 21.9701 29.1661V33.6029H20.5579V27.3683H21.8887Z" fill="#FC6011"/>
<path d="M42.958 25.8528V27.3683H44.068V28.4054H42.958V31.8858C42.958 32.124 43.0045 32.2968 43.0975 32.4044C43.1943 32.5081 43.3648 32.56 43.6089 32.56C43.7716 32.56 43.9363 32.5408 44.1029 32.5024V33.5856C43.7813 33.674 43.4714 33.7182 43.173 33.7182C42.0882 33.7182 41.5458 33.1247 41.5458 31.9377V28.4054H40.5113V27.3683H41.5458V25.8528H42.958Z" fill="#FC6011"/>
<path d="M61.9061 33.7182C61.0111 33.7182 60.2846 33.4397 59.7267 32.8827C59.1727 32.3218 58.8957 31.5766 58.8957 30.6469V30.4741C58.8957 29.8518 59.0158 29.2967 59.256 28.8088C59.5001 28.3171 59.841 27.9349 60.2788 27.6621C60.7166 27.3894 61.2048 27.253 61.7433 27.253C62.5996 27.253 63.2602 27.5238 63.7251 28.0655C64.1939 28.6071 64.4283 29.3735 64.4283 30.3646V30.9293H60.3195C60.3621 31.444 60.5345 31.8512 60.8367 32.1509C61.1428 32.4505 61.5264 32.6003 61.9874 32.6003C62.6344 32.6003 63.1614 32.341 63.5682 31.8224L64.3295 32.5427C64.0777 32.9153 63.7406 33.2053 63.3183 33.4128C62.8998 33.6164 62.4291 33.7182 61.9061 33.7182ZM61.7375 28.3766C61.3501 28.3766 61.0363 28.5111 60.796 28.78C60.5597 29.0489 60.4086 29.4234 60.3427 29.9036H63.0335V29.7999C63.0025 29.3312 62.8766 28.9778 62.6558 28.7397C62.4349 28.4976 62.1288 28.3766 61.7375 28.3766Z" fill="#FC6011"/>
<path d="M82.8068 28.6475C82.6208 28.6167 82.4291 28.6014 82.2315 28.6014C81.5844 28.6014 81.1486 28.8472 80.9239 29.3389V33.6029H79.5116V27.3683H80.8599L80.8948 28.0655C81.2357 27.5238 81.7084 27.253 82.3128 27.253C82.5143 27.253 82.6809 27.2799 82.8126 27.3337L82.8068 28.6475Z" fill="#FC6011"/>
<path d="M103.19 30.549C103.19 31.5132 102.969 32.2834 102.528 32.8596C102.086 33.432 101.493 33.7182 100.749 33.7182C100.06 33.7182 99.5077 33.4935 99.0932 33.044V36H97.6809V27.3683H98.9827L99.0409 28.0021C99.4554 27.5027 100.019 27.253 100.732 27.253C101.499 27.253 102.1 27.5373 102.534 28.1058C102.971 28.6705 103.19 29.4561 103.19 30.4625V30.549ZM101.784 30.428C101.784 29.8057 101.658 29.312 101.406 28.9471C101.158 28.5822 100.802 28.3997 100.337 28.3997C99.7596 28.3997 99.345 28.6359 99.0932 29.1084V31.8743C99.3489 32.3583 99.7673 32.6003 100.348 32.6003C100.798 32.6003 101.149 32.4217 101.4 32.0644C101.656 31.7033 101.784 31.1578 101.784 30.428Z" fill="#FC6011"/>
<path d="M121.668 28.6475C121.482 28.6167 121.29 28.6014 121.092 28.6014C120.445 28.6014 120.009 28.8472 119.785 29.3389V33.6029H118.372V27.3683H119.721L119.756 28.0655C120.097 27.5238 120.569 27.253 121.174 27.253C121.375 27.253 121.542 27.2799 121.673 27.3337L121.668 28.6475Z" fill="#FC6011"/>
<path d="M138.047 33.6029H136.635V27.3683H138.047V33.6029ZM136.548 25.7491C136.548 25.534 136.615 25.3553 136.751 25.2132C136.89 25.0711 137.088 25 137.344 25C137.599 25 137.797 25.0711 137.937 25.2132C138.076 25.3553 138.146 25.534 138.146 25.7491C138.146 25.9604 138.076 26.1371 137.937 26.2792C137.797 26.4175 137.599 26.4866 137.344 26.4866C137.088 26.4866 136.89 26.4175 136.751 26.2792C136.615 26.1371 136.548 25.9604 136.548 25.7491Z" fill="#FC6011"/>
<path d="M157.1 31.9089C157.1 31.6592 156.995 31.469 156.786 31.3384C156.58 31.2078 156.238 31.0925 155.757 30.9927C155.277 30.8928 154.876 30.766 154.554 30.6124C153.849 30.2743 153.496 29.7845 153.496 29.143C153.496 28.6052 153.725 28.1558 154.182 27.7947C154.639 27.4336 155.221 27.253 155.926 27.253C156.677 27.253 157.284 27.4374 157.745 27.8062C158.21 28.175 158.442 28.6532 158.442 29.241H157.03C157.03 28.9721 156.929 28.7493 156.728 28.5726C156.526 28.392 156.259 28.3017 155.926 28.3017C155.616 28.3017 155.362 28.3728 155.164 28.5149C154.971 28.6571 154.874 28.8472 154.874 29.0854C154.874 29.3005 154.965 29.4676 155.147 29.5867C155.329 29.7058 155.697 29.8268 156.251 29.9497C156.805 30.0688 157.239 30.2129 157.553 30.3819C157.871 30.5471 158.105 30.7468 158.256 30.9811C158.411 31.2155 158.489 31.4997 158.489 31.8339C158.489 32.3948 158.254 32.85 157.785 33.1996C157.317 33.5453 156.703 33.7182 155.943 33.7182C155.428 33.7182 154.969 33.626 154.566 33.4416C154.163 33.2572 153.849 33.0037 153.624 32.681C153.4 32.3583 153.287 32.0107 153.287 31.638H154.659C154.678 31.9684 154.804 32.2239 155.037 32.4044C155.269 32.5811 155.577 32.6695 155.961 32.6695C156.333 32.6695 156.615 32.6003 156.809 32.462C157.003 32.3199 157.1 32.1355 157.1 31.9089Z" fill="#FC6011"/>
<path d="M176.478 33.7182C175.583 33.7182 174.856 33.4397 174.298 32.8827C173.744 32.3218 173.467 31.5766 173.467 30.6469V30.4741C173.467 29.8518 173.587 29.2967 173.828 28.8088C174.072 28.3171 174.413 27.9349 174.851 27.6621C175.288 27.3894 175.777 27.253 176.315 27.253C177.171 27.253 177.832 27.5238 178.297 28.0655C178.766 28.6071 179 29.3735 179 30.3646V30.9293H174.891C174.934 31.444 175.106 31.8512 175.408 32.1509C175.715 32.4505 176.098 32.6003 176.559 32.6003C177.206 32.6003 177.733 32.341 178.14 31.8224L178.901 32.5427C178.649 32.9153 178.312 33.2053 177.89 33.4128C177.472 33.6164 177.001 33.7182 176.478 33.7182ZM176.309 28.3766C175.922 28.3766 175.608 28.5111 175.368 28.78C175.131 29.0489 174.98 29.4234 174.914 29.9036H177.605V29.7999C177.574 29.3312 177.448 28.9778 177.227 28.7397C177.007 28.4976 176.701 28.3766 176.309 28.3766Z" fill="#FC6011"/>
</g>
<defs>
<clipPath id="clip0">
<rect width="179" height="36" fill="white"/>
</clipPath>
</defs>
</svg>
