<svg width="64" height="64" viewBox="0 0 64 64" fill="none" xmlns="http://www.w3.org/2000/svg">
<g clip-path="url(#clip0)">
<path d="M31.0194 0.328402L14.9116 8.09862C14.4489 8.32068 14.0424 8.64431 13.7222 9.04537C13.402 9.44644 13.1764 9.9146 13.0623 10.415L9.08474 27.8455C8.97125 28.3464 8.97176 28.8665 9.08623 29.3672C9.20071 29.868 9.42622 30.3366 9.7461 30.7385L20.8921 44.7149C21.2122 45.1159 21.6184 45.4396 22.0808 45.6621C22.5431 45.8846 23.0496 46.0001 23.5626 46H41.4288C41.9423 46.0001 42.4493 45.8846 42.9121 45.6621C43.3749 45.4397 43.7817 45.1159 44.1025 44.7149L55.2453 30.7385C55.5658 30.337 55.7917 29.8683 55.9062 29.3675C56.0207 28.8666 56.0208 28.3464 55.9067 27.8455L51.9291 10.4181C51.815 9.91773 51.5894 9.44957 51.2692 9.0485C50.949 8.64744 50.5425 8.32382 50.0798 8.10176L33.9752 0.344071C33.5151 0.120327 33.0106 0.00276056 32.4991 4.80299e-05C31.9875 -0.0026645 31.4818 0.10955 31.0194 0.328402V0.328402Z" fill="#1D93D1"/>
<path d="M47.19 18.5081C47.2168 18.7543 47.1812 19.0033 47.0866 19.2321V19.2478V19.2635C46.9925 19.4563 46.8791 19.639 46.7481 19.8088C46.4434 20.2052 46.0041 20.4762 45.5131 20.5705C44.6856 20.7492 43.9083 20.6175 43.3629 19.9436C43.0179 19.5727 42.8119 19.0939 42.7798 18.5884C42.7477 18.0829 42.8915 17.5818 43.1868 17.1703C43.4821 16.7587 43.9107 16.462 44.3998 16.3305C44.889 16.199 45.4086 16.2408 45.8704 16.4488C46.0542 16.5351 46.2285 16.6401 46.3907 16.7622C46.558 16.8803 46.6989 17.0319 46.8045 17.2073C46.9009 17.3814 46.9787 17.5653 47.0364 17.7558C47.1164 17.9998 47.168 18.2522 47.19 18.5081V18.5081Z" fill="white"/>
<path opacity="0.8" d="M45.8641 31.0395C45.2929 31.2183 44.6744 31.1661 44.1412 30.8942C43.608 30.6224 43.2025 30.1524 43.0118 29.5851C42.6137 28.5225 43.3785 27.0493 44.4442 26.7077C45.5099 26.366 46.9768 27.0682 47.2965 28.2122C47.4618 28.7773 47.4056 29.384 47.1396 29.9092C46.8735 30.4343 46.4174 30.8385 45.8641 31.0395V31.0395Z" fill="white"/>
<path d="M39.5888 10.5215C40.0277 11.6969 39.3694 12.9099 38.1125 13.3049C37.5518 13.4844 36.9428 13.4339 36.4193 13.1644C35.8958 12.8949 35.5009 12.4284 35.3213 11.8677C35.1418 11.307 35.1923 10.6979 35.4618 10.1745C35.7313 9.65105 36.1978 9.25609 36.7585 9.07653C37.0388 8.97804 37.3363 8.93753 37.6328 8.95745C37.9293 8.97738 38.2187 9.05732 38.4833 9.19244C38.748 9.32756 38.9825 9.51504 39.1725 9.74351C39.3625 9.97197 39.5042 10.2367 39.5888 10.5215V10.5215Z" fill="white"/>
<path opacity="0.9" d="M17.7421 19.5706C17.6383 19.2913 17.5921 18.994 17.6062 18.6964C17.6204 18.3988 17.6945 18.1072 17.8242 17.839C17.9539 17.5708 18.1365 17.3316 18.361 17.1358C18.5855 16.9399 18.8473 16.7915 19.1306 16.6995C20.2747 16.2701 21.5379 16.9784 21.9516 18.1852C22.0427 18.4611 22.0781 18.7524 22.0557 19.042C22.0333 19.3317 21.9536 19.6141 21.8213 19.8728C21.6889 20.1314 21.5064 20.3612 21.2845 20.5488C21.0626 20.7363 20.8057 20.8779 20.5286 20.9654C20.2545 21.0648 19.963 21.1074 19.6719 21.0904C19.3808 21.0735 19.0963 20.9974 18.8355 20.8669C18.5748 20.7364 18.3434 20.5542 18.1554 20.3313C17.9674 20.1084 17.8268 19.8496 17.7421 19.5706V19.5706Z" fill="white"/>
<path d="M29.5809 35.8664C30.0604 36.8067 29.3521 38.3551 28.2237 38.6874C27.944 38.779 27.649 38.8146 27.3555 38.7922C27.0621 38.7697 26.7759 38.6897 26.5134 38.5567C26.2509 38.4237 26.0171 38.2403 25.8254 38.0169C25.6338 37.7936 25.488 37.5347 25.3964 37.255C25.3048 36.9753 25.2692 36.6803 25.2917 36.3868C25.3141 36.0934 25.3941 35.8072 25.5271 35.5447C25.6601 35.2821 25.8435 35.0484 26.0669 34.8567C26.2902 34.6651 26.5492 34.5193 26.8289 34.4277C27.8413 34.0955 29.3333 34.6252 29.5809 35.8664Z" fill="white"/>
<path opacity="0.8" d="M19.3878 27.1872C20.2623 26.7359 21.7198 27.3408 22.1178 28.604C22.5159 29.8672 22.0207 30.8859 20.7763 31.3654C19.7012 31.7823 18.4318 31.3309 17.9271 29.9706C17.8244 29.6926 17.7812 29.3962 17.8003 29.1005C17.8194 28.8048 17.9005 28.5164 18.0382 28.254C18.1759 27.9915 18.3672 27.761 18.5997 27.5772C18.8322 27.3935 19.1006 27.2606 19.3878 27.1872V27.1872Z" fill="white"/>
<path opacity="0.5" d="M39.5985 17.2198C39.2049 17.3623 38.7707 17.3427 38.3916 17.1652C38.0124 16.9877 37.7193 16.6668 37.5768 16.2732C37.4342 15.8795 37.4538 15.4454 37.6314 15.0663C37.8089 14.6871 38.1297 14.394 38.5234 14.2515C38.7204 14.1834 38.9291 14.1554 39.1371 14.169C39.3451 14.1826 39.5483 14.2376 39.7349 14.3307C39.9214 14.4238 40.0874 14.5532 40.2233 14.7113C40.3592 14.8694 40.4622 15.053 40.5263 15.2514C40.6566 15.6357 40.6327 16.0557 40.4597 16.4228C40.2867 16.79 39.9779 17.0757 39.5985 17.2198Z" fill="white"/>
<path opacity="0.4" d="M24.8792 18.7557C24.686 18.834 24.4784 18.8707 24.27 18.8634C24.0617 18.8561 23.8572 18.8049 23.67 18.7132C23.4827 18.6215 23.3169 18.4914 23.1834 18.3312C23.0499 18.1711 22.9516 17.9846 22.8951 17.784C22.6412 17.038 23.1458 15.9253 23.8793 15.756C24.7538 15.5554 25.5844 15.8595 25.8822 16.759C25.9492 16.9559 25.9763 17.1641 25.962 17.3716C25.9478 17.5791 25.8923 17.7816 25.799 17.9675C25.7056 18.1533 25.5762 18.3187 25.4183 18.454C25.2604 18.5893 25.0771 18.6919 24.8792 18.7557V18.7557Z" fill="white"/>
<path opacity="0.48" d="M25.4966 30.4721C25.687 30.4072 25.8886 30.3813 26.0892 30.3961C26.2899 30.411 26.4854 30.4661 26.6643 30.5583C26.8431 30.6505 27.0014 30.7778 27.1299 30.9326C27.2583 31.0875 27.3542 31.2667 27.4118 31.4594C27.5396 31.8477 27.5172 32.2699 27.3489 32.6425C27.1806 33.0151 26.8787 33.311 26.5028 33.4717C25.7317 33.7507 24.6378 33.2617 24.4278 32.4969C24.3613 32.2939 24.3363 32.0796 24.3543 31.8667C24.3724 31.6538 24.433 31.4468 24.5328 31.2578C24.6325 31.0689 24.7692 30.902 24.9348 30.767C25.1004 30.632 25.2915 30.5317 25.4966 30.4721V30.4721Z" fill="white"/>
<path opacity="0.4" d="M40.0747 28.9958C40.2663 28.9121 40.4738 28.871 40.6829 28.8755C40.8919 28.8799 41.0975 28.9298 41.2854 29.0216C41.4732 29.1135 41.6389 29.2451 41.7708 29.4073C41.9027 29.5696 41.9978 29.7586 42.0494 29.9612C42.1795 30.3494 42.1582 30.7725 41.9896 31.1457C41.821 31.5188 41.5177 31.8145 41.1404 31.9735C40.4195 32.2337 39.2221 31.66 39.0466 30.9266C38.8554 30.1116 39.2597 29.0992 40.0747 28.9958Z" fill="white"/>
<path opacity="0.48" d="M31.8281 14.9441C30.8878 15.1855 30.1324 14.7717 29.8848 13.8847C29.7972 13.474 29.8702 13.0454 30.0888 12.6869C30.3074 12.3284 30.655 12.0672 31.0602 11.957C31.4515 11.8835 31.8563 11.9524 32.2012 12.1513C32.5461 12.3502 32.8085 12.666 32.9409 13.0415C33.0125 13.4392 32.9398 13.8494 32.7358 14.1983C32.5318 14.5471 32.2099 14.8116 31.8281 14.9441V14.9441Z" fill="white"/>
<path opacity="0.48" d="M44.2498 22.2474C44.5633 23.1375 44.2091 23.9525 43.4067 24.2346C43.2135 24.3103 43.0069 24.3459 42.7994 24.3392C42.592 24.3326 42.3881 24.2838 42.2002 24.1958C42.0122 24.1078 41.8441 23.9825 41.7061 23.8276C41.5682 23.6726 41.4631 23.4911 41.3975 23.2943C41.106 22.4699 41.479 21.6926 42.2908 21.2882C42.9929 20.9497 43.9803 21.47 44.2498 22.2474Z" fill="white"/>
<path opacity="0.4" d="M23.5531 24.4665C23.8665 25.3567 23.5311 26.0337 22.6504 26.3472C21.71 26.6606 20.9766 26.3221 20.6694 25.4225C20.5436 25.0457 20.5691 24.6347 20.7404 24.2763C20.9118 23.9178 21.2156 23.6399 21.5878 23.5011C22.4811 23.1783 23.2396 23.5544 23.5531 24.4665Z" fill="white"/>
<path d="M40.3977 19.7617C40.231 19.8077 40.0545 19.8039 39.8899 19.7509C39.7253 19.6978 39.5798 19.5978 39.4713 19.4632C39.3628 19.3286 39.296 19.1651 39.2791 18.993C39.2623 18.8209 39.2961 18.6476 39.3764 18.4945C39.4568 18.3414 39.5801 18.215 39.7313 18.1311C39.8825 18.0471 40.0549 18.0092 40.2274 18.0219C40.3998 18.0347 40.5648 18.0976 40.702 18.2029C40.8392 18.3081 40.9426 18.4512 40.9995 18.6145C41.0571 18.8462 41.0277 19.0911 40.9168 19.3025C40.8058 19.514 40.6211 19.6774 40.3977 19.7617V19.7617Z" fill="white"/>
<path d="M37.674 32.3527C37.4452 32.4209 37.1991 32.3997 36.9855 32.2931C36.7719 32.1866 36.6068 32.0029 36.5236 31.7791C36.4704 31.5329 36.5149 31.2758 36.6476 31.0618C36.7804 30.8478 36.991 30.6937 37.2351 30.6319C37.3481 30.6031 37.4657 30.5968 37.5811 30.6134C37.6965 30.6301 37.8075 30.6692 37.9078 30.7288C38.0081 30.7883 38.0956 30.867 38.1655 30.9603C38.2353 31.0537 38.2861 31.1599 38.3149 31.2729C38.3438 31.3859 38.35 31.5034 38.3334 31.6189C38.3168 31.7343 38.2776 31.8453 38.2181 31.9455C38.1586 32.0458 38.0799 32.1334 37.9865 32.2032C37.8932 32.2731 37.7869 32.3239 37.674 32.3527V32.3527Z" fill="white"/>
<path d="M24.0358 29.0083C23.8634 28.488 24.0546 28.1307 24.5969 27.9614C24.8252 27.8893 25.0725 27.9088 25.2867 28.0159C25.5008 28.1229 25.6648 28.3091 25.7441 28.535C25.7987 28.756 25.7713 28.9893 25.667 29.1916C25.5627 29.3939 25.3885 29.5515 25.1768 29.6352C24.6126 29.8232 24.2364 29.6164 24.0358 29.0083Z" fill="white"/>
<path d="M26.7282 16.4394C26.5621 15.9441 26.7596 15.5711 27.2862 15.3831C27.5023 15.3181 27.7345 15.333 27.9405 15.4251C28.1465 15.5172 28.3125 15.6802 28.4083 15.8846C28.4787 16.1116 28.4626 16.3567 28.3631 16.5726C28.2635 16.7884 28.0876 16.9598 27.8692 17.0537C27.3081 17.2449 26.932 17.0412 26.7282 16.4394Z" fill="white"/>
<path d="M34.1194 14.1323C34.2315 14.0969 34.3496 14.0841 34.4667 14.0949C34.5838 14.1056 34.6976 14.1396 34.8014 14.1949C34.9052 14.2502 34.997 14.3256 35.0712 14.4168C35.1455 14.5079 35.2009 14.613 35.234 14.7259C35.2672 14.8387 35.2775 14.957 35.2644 15.0739C35.2512 15.1907 35.2149 15.3038 35.1575 15.4065C35.1001 15.5091 35.0228 15.5993 34.9301 15.6717C34.8375 15.7441 34.7313 15.7972 34.6178 15.8281C34.5089 15.8617 34.3943 15.8727 34.2811 15.8605C34.1678 15.8483 34.0582 15.8131 33.959 15.7571C33.8598 15.701 33.7731 15.6253 33.7042 15.5346C33.6353 15.4438 33.5857 15.34 33.5583 15.2294C33.5042 15.0096 33.5311 14.7777 33.6341 14.5762C33.7372 14.3746 33.9095 14.2171 34.1194 14.1323V14.1323Z" fill="white"/>
<path d="M23.2808 21.1723C23.3884 21.1236 23.5047 21.0969 23.6228 21.0938C23.7409 21.0907 23.8585 21.1112 23.9685 21.1541C24.0786 21.197 24.179 21.2615 24.2638 21.3438C24.3486 21.426 24.4162 21.5244 24.4624 21.6331C24.5341 21.8613 24.5179 22.108 24.417 22.3249C24.3161 22.5418 24.1378 22.7131 23.917 22.8053C23.6971 22.8627 23.4638 22.8383 23.2604 22.7369C23.057 22.6355 22.8972 22.4638 22.8106 22.2537C22.6131 21.7208 22.7698 21.3541 23.2808 21.1723Z" fill="white"/>
<path d="M30.866 33.594C30.6348 33.6644 30.3853 33.6432 30.1694 33.5347C29.9534 33.4261 29.7876 33.2386 29.7063 33.011C29.6558 32.7829 29.6921 32.5442 29.808 32.3414C29.9239 32.1387 30.1111 31.9863 30.3331 31.9139C30.5529 31.8523 30.7879 31.8781 30.9891 31.9859C31.1903 32.0936 31.342 32.275 31.4124 32.4921C31.4829 32.7092 31.4667 32.9451 31.3672 33.1504C31.2676 33.3558 31.0926 33.5147 30.8785 33.594H30.866Z" fill="white"/>
<path d="M42.1436 25.5102C42.1983 25.6119 42.2284 25.725 42.2313 25.8404C42.2343 25.9558 42.2101 26.0702 42.1607 26.1745C42.1112 26.2789 42.038 26.3701 41.9468 26.4409C41.8557 26.5117 41.7492 26.5601 41.6359 26.5822C41.125 26.7577 40.7833 26.6073 40.6046 26.0901C40.5474 25.9858 40.5132 25.8704 40.5045 25.7518C40.4957 25.6331 40.5125 25.5139 40.5538 25.4023C40.5951 25.2907 40.6598 25.1893 40.7437 25.1049C40.8276 25.0205 40.9286 24.9552 41.04 24.9132C41.1513 24.8713 41.2704 24.8537 41.3891 24.8618C41.5078 24.8698 41.6234 24.9033 41.728 24.9599C41.8327 25.0165 41.9239 25.0949 41.9957 25.1899C42.0674 25.2848 42.1178 25.3941 42.1436 25.5102Z" fill="white"/>
<path opacity="0.66" d="M27.0827 13.5901C28.31 13.5901 29.305 12.5952 29.305 11.3678C29.305 10.1405 28.31 9.14551 27.0827 9.14551C25.8553 9.14551 24.8604 10.1405 24.8604 11.3678C24.8604 12.5952 25.8553 13.5901 27.0827 13.5901Z" fill="white"/>
<path opacity="0.9" d="M37.9153 38.747C39.1495 38.747 40.1501 37.7465 40.1501 36.5122C40.1501 35.2779 39.1495 34.2773 37.9153 34.2773C36.681 34.2773 35.6804 35.2779 35.6804 36.5122C35.6804 37.7465 36.681 38.747 37.9153 38.747Z" fill="white"/>
<path opacity="0.4" d="M33.5865 35.9573C34.4504 35.9573 35.1506 35.257 35.1506 34.3932C35.1506 33.5294 34.4504 32.8291 33.5865 32.8291C32.7227 32.8291 32.0225 33.5294 32.0225 34.3932C32.0225 35.257 32.7227 35.9573 33.5865 35.9573Z" fill="white"/>
<path d="M5.98633 57.9395H2.48242V60.5645H6.57812V61.748H1V53.2168H6.53711V54.4121H2.48242V56.7676H5.98633V57.9395Z" fill="#FC6011"/>
<path d="M9.81875 55.4082L9.85977 56.1406C10.3285 55.5742 10.9438 55.291 11.7055 55.291C13.0258 55.291 13.6977 56.0469 13.7211 57.5586V61.748H12.2973V57.6406C12.2973 57.2383 12.2094 56.9414 12.0336 56.75C11.8617 56.5547 11.5785 56.457 11.184 56.457C10.6098 56.457 10.182 56.7168 9.90078 57.2363V61.748H8.47695V55.4082H9.81875Z" fill="#FC6011"/>
<path d="M17.8113 53.8672V55.4082H18.9305V56.4629H17.8113V60.002C17.8113 60.2441 17.8582 60.4199 17.952 60.5293C18.0496 60.6348 18.2215 60.6875 18.4676 60.6875C18.6316 60.6875 18.7977 60.668 18.9656 60.6289V61.7305C18.6414 61.8203 18.3289 61.8652 18.0281 61.8652C16.9344 61.8652 16.3875 61.2617 16.3875 60.0547V56.4629H15.3445V55.4082H16.3875V53.8672H17.8113Z" fill="#FC6011"/>
<path d="M23.6652 61.8652C22.7629 61.8652 22.0305 61.582 21.468 61.0156C20.9094 60.4453 20.6301 59.6875 20.6301 58.7422V58.5664C20.6301 57.9336 20.7512 57.3691 20.9934 56.873C21.2395 56.373 21.5832 55.9844 22.0246 55.707C22.466 55.4297 22.9582 55.291 23.5012 55.291C24.3645 55.291 25.0305 55.5664 25.4992 56.1172C25.9719 56.668 26.2082 57.4473 26.2082 58.4551V59.0293H22.0656C22.1086 59.5527 22.2824 59.9668 22.5871 60.2715C22.8957 60.5762 23.2824 60.7285 23.7473 60.7285C24.3996 60.7285 24.9309 60.4648 25.341 59.9375L26.1086 60.6699C25.8547 61.0488 25.5148 61.3438 25.0891 61.5547C24.6672 61.7617 24.1926 61.8652 23.6652 61.8652ZM23.4953 56.4336C23.1047 56.4336 22.7883 56.5703 22.5461 56.8438C22.3078 57.1172 22.1555 57.498 22.0891 57.9863H24.802V57.8809C24.7707 57.4043 24.6437 57.0449 24.4211 56.8027C24.1984 56.5566 23.8898 56.4336 23.4953 56.4336Z" fill="#FC6011"/>
<path d="M31.4879 56.709C31.3004 56.6777 31.107 56.6621 30.9078 56.6621C30.2555 56.6621 29.816 56.9121 29.5895 57.4121V61.748H28.1656V55.4082H29.525L29.5602 56.1172C29.9039 55.5664 30.3805 55.291 30.9898 55.291C31.193 55.291 31.3609 55.3184 31.4937 55.373L31.4879 56.709Z" fill="#FC6011"/>
<path d="M38.7891 58.6426C38.7891 59.623 38.5664 60.4062 38.1211 60.9922C37.6758 61.5742 37.0781 61.8652 36.3281 61.8652C35.6328 61.8652 35.0762 61.6367 34.6582 61.1797V64.1855H33.2344V55.4082H34.5469L34.6055 56.0527C35.0234 55.5449 35.5918 55.291 36.3105 55.291C37.084 55.291 37.6895 55.5801 38.127 56.1582C38.5684 56.7324 38.7891 57.5312 38.7891 58.5547V58.6426ZM37.3711 58.5195C37.3711 57.8867 37.2441 57.3848 36.9902 57.0137C36.7402 56.6426 36.3809 56.457 35.9121 56.457C35.3301 56.457 34.9121 56.6973 34.6582 57.1777V59.9902C34.916 60.4824 35.3379 60.7285 35.9238 60.7285C36.377 60.7285 36.7305 60.5469 36.9844 60.1836C37.2422 59.8164 37.3711 59.2617 37.3711 58.5195Z" fill="#FC6011"/>
<path d="M44.1684 56.709C43.9809 56.6777 43.7875 56.6621 43.5883 56.6621C42.9359 56.6621 42.4965 56.9121 42.2699 57.4121V61.748H40.8461V55.4082H42.2055L42.2406 56.1172C42.5844 55.5664 43.0609 55.291 43.6703 55.291C43.8734 55.291 44.0414 55.3184 44.1742 55.373L44.1684 56.709Z" fill="#FC6011"/>
<path d="M47.4324 61.748H46.0086V55.4082H47.4324V61.748ZM45.9207 53.7617C45.9207 53.543 45.9891 53.3613 46.1258 53.2168C46.2664 53.0723 46.4656 53 46.7234 53C46.9813 53 47.1805 53.0723 47.3211 53.2168C47.4617 53.3613 47.532 53.543 47.532 53.7617C47.532 53.9766 47.4617 54.1562 47.3211 54.3008C47.1805 54.4414 46.9813 54.5117 46.7234 54.5117C46.4656 54.5117 46.2664 54.4414 46.1258 54.3008C45.9891 54.1562 45.9207 53.9766 45.9207 53.7617Z" fill="#FC6011"/>
<path d="M53.3918 60.0254C53.3918 59.7715 53.2863 59.5781 53.0754 59.4453C52.8684 59.3125 52.5227 59.1953 52.0383 59.0938C51.5539 58.9922 51.1496 58.8633 50.8254 58.707C50.1145 58.3633 49.759 57.8652 49.759 57.2129C49.759 56.666 49.9895 56.209 50.4504 55.8418C50.9113 55.4746 51.4973 55.291 52.2082 55.291C52.966 55.291 53.5773 55.4785 54.0422 55.8535C54.5109 56.2285 54.7453 56.7148 54.7453 57.3125H53.3215C53.3215 57.0391 53.2199 56.8125 53.0168 56.6328C52.8137 56.4492 52.5441 56.3574 52.2082 56.3574C51.8957 56.3574 51.6398 56.4297 51.4406 56.5742C51.2453 56.7188 51.1477 56.9121 51.1477 57.1543C51.1477 57.373 51.2395 57.543 51.423 57.6641C51.6066 57.7852 51.9777 57.9082 52.5363 58.0332C53.0949 58.1543 53.5324 58.3008 53.8488 58.4727C54.1691 58.6406 54.4055 58.8438 54.5578 59.082C54.7141 59.3203 54.7922 59.6094 54.7922 59.9492C54.7922 60.5195 54.5559 60.9824 54.0832 61.3379C53.6105 61.6895 52.9914 61.8652 52.2258 61.8652C51.7062 61.8652 51.2434 61.7715 50.8371 61.584C50.4309 61.3965 50.1145 61.1387 49.8879 60.8105C49.6613 60.4824 49.548 60.1289 49.548 59.75H50.9309C50.9504 60.0859 51.0773 60.3457 51.3117 60.5293C51.5461 60.709 51.8566 60.7988 52.2434 60.7988C52.6184 60.7988 52.9035 60.7285 53.0988 60.5879C53.2941 60.4434 53.3918 60.2559 53.3918 60.0254Z" fill="#FC6011"/>
<path d="M59.6793 61.8652C58.777 61.8652 58.0445 61.582 57.482 61.0156C56.9234 60.4453 56.6441 59.6875 56.6441 58.7422V58.5664C56.6441 57.9336 56.7652 57.3691 57.0074 56.873C57.2535 56.373 57.5973 55.9844 58.0387 55.707C58.4801 55.4297 58.9723 55.291 59.5152 55.291C60.3785 55.291 61.0445 55.5664 61.5133 56.1172C61.9859 56.668 62.2223 57.4473 62.2223 58.4551V59.0293H58.0797C58.1227 59.5527 58.2965 59.9668 58.6012 60.2715C58.9098 60.5762 59.2965 60.7285 59.7613 60.7285C60.4137 60.7285 60.9449 60.4648 61.3551 59.9375L62.1227 60.6699C61.8688 61.0488 61.5289 61.3438 61.1031 61.5547C60.6813 61.7617 60.2066 61.8652 59.6793 61.8652ZM59.5094 56.4336C59.1188 56.4336 58.8023 56.5703 58.5602 56.8438C58.3219 57.1172 58.1695 57.498 58.1031 57.9863H60.816V57.8809C60.7848 57.4043 60.6578 57.0449 60.4352 56.8027C60.2125 56.5566 59.9039 56.4336 59.5094 56.4336Z" fill="#FC6011"/>
</g>
<defs>
<clipPath id="clip0">
<rect width="64" height="64" fill="white"/>
</clipPath>
</defs>
</svg>
