<svg id="Layer_1" data-name="Layer 1" xmlns="http://www.w3.org/2000/svg" viewBox="0 0 1279 639"><defs><style>.cls-1{fill:#1d93d1;}.cls-2,.cls-3,.cls-4,.cls-5,.cls-6,.cls-7,.cls-8{fill:#fff;}.cls-3{opacity:0.8;}.cls-4{opacity:0.9;}.cls-5{opacity:0.5;}.cls-6{opacity:0.4;}.cls-7{opacity:0.48;}.cls-8{opacity:0.66;}.cls-9{fill:#2d2f3a;}</style></defs><title>servicebroker-logo-1280x640</title><path class="cls-1" d="M204.92,247.21,153.53,272a10.88,10.88,0,0,0-5.9,7.39L134.94,335a10.94,10.94,0,0,0,2.11,9.23l35.56,44.59a10.9,10.9,0,0,0,8.52,4.1h57a10.92,10.92,0,0,0,8.53-4.1l35.55-44.59a10.91,10.91,0,0,0,2.11-9.23l-12.69-55.6a10.88,10.88,0,0,0-5.9-7.39l-51.38-24.75A10.9,10.9,0,0,0,204.92,247.21Z"/><path class="cls-2" d="M256.51,305.21a4.71,4.71,0,0,1-.33,2.31l0,.05,0,.05a10.09,10.09,0,0,1-1.08,1.74,6.52,6.52,0,0,1-3.94,2.43c-2.64.57-5.12.15-6.86-2a7,7,0,0,1,8-11.15,9.44,9.44,0,0,1,1.66,1,4.72,4.72,0,0,1,1.32,1.42,9,9,0,0,1,.74,1.75A10.63,10.63,0,0,1,256.51,305.21Z"/><path class="cls-3" d="M252.28,345.19a7.3,7.3,0,0,1-9.1-4.64c-1.27-3.39,1.17-8.09,4.57-9.18s8.08,1.15,9.1,4.8A7.39,7.39,0,0,1,252.28,345.19Z"/><path class="cls-2" d="M232.26,279.73c1.4,3.75-.7,7.62-4.71,8.88a7.08,7.08,0,0,1-4.32-13.49A7,7,0,0,1,232.26,279.73Z"/><path class="cls-4" d="M162.56,308.6a7.05,7.05,0,0,1,4.43-9.16c3.65-1.37,7.68.89,9,4.74a7,7,0,0,1-4.54,8.87A6.85,6.85,0,0,1,162.56,308.6Z"/><path class="cls-2" d="M200.33,360.59c1.53,3-.73,7.94-4.33,9A7.14,7.14,0,1,1,191.55,356C194.78,354.94,199.54,356.63,200.33,360.59Z"/><path class="cls-3" d="M167.81,332.9c2.79-1.44,7.44.49,8.71,4.52s-.31,7.28-4.28,8.81c-3.43,1.33-7.48-.11-9.09-4.45A6.75,6.75,0,0,1,167.81,332.9Z"/><path class="cls-5" d="M232.29,301.1a5,5,0,1,1-3.43-9.47,5,5,0,0,1,6.39,3.19A5,5,0,0,1,232.29,301.1Z"/><path class="cls-6" d="M185.33,306A4.73,4.73,0,0,1,179,302.9c-.81-2.38.8-5.93,3.14-6.47,2.79-.64,5.44.33,6.39,3.2A5,5,0,0,1,185.33,306Z"/><path class="cls-7" d="M187.3,343.38a4.77,4.77,0,0,1,6.11,3.15,5.21,5.21,0,0,1-2.9,6.42c-2.46.89-5.95-.67-6.62-3.11A5.08,5.08,0,0,1,187.3,343.38Z"/><path class="cls-6" d="M233.81,338.67a4.6,4.6,0,0,1,6.3,3.08,5.18,5.18,0,0,1-2.9,6.42c-2.3.83-6.12-1-6.68-3.34C229.92,342.23,231.21,339,233.81,338.67Z"/><path class="cls-7" d="M207.5,293.84c-3,.77-5.41-.55-6.2-3.38a5.24,5.24,0,0,1,3.75-6.15,5.32,5.32,0,0,1,6,3.46A5.41,5.41,0,0,1,207.5,293.84Z"/><path class="cls-7" d="M247.13,317.14c1,2.84-.13,5.44-2.69,6.34a4.88,4.88,0,0,1-6.41-3c-.93-2.63.26-5.11,2.85-6.4C243.12,313,246.27,314.66,247.13,317.14Z"/><path class="cls-6" d="M181.1,324.22c1,2.84-.07,5-2.88,6-3,1-5.34-.08-6.32-2.95a4.89,4.89,0,0,1,2.93-6.13C177.68,320.11,180.1,321.31,181.1,324.22Z"/><path class="cls-2" d="M234.84,309.21a2.83,2.83,0,1,1,1.92-3.66A3.11,3.11,0,0,1,234.84,309.21Z"/><path class="cls-2" d="M226.15,349.38a3,3,0,0,1-3.67-1.83,3.1,3.1,0,0,1,2.27-3.66,2.83,2.83,0,1,1,1.4,5.49Z"/><path class="cls-2" d="M182.64,338.71c-.55-1.66.06-2.8,1.79-3.34a2.94,2.94,0,0,1,3.66,1.83,3,3,0,0,1-1.81,3.51C184.48,341.31,183.28,340.65,182.64,338.71Z"/><path class="cls-2" d="M191.23,298.61c-.53-1.58.1-2.77,1.78-3.37a3,3,0,0,1,3.58,1.6,3.07,3.07,0,0,1-1.72,3.73C193.08,301.18,191.88,300.53,191.23,298.61Z"/><path class="cls-2" d="M214.81,291.25a2.82,2.82,0,1,1,1.59,5.41,2.67,2.67,0,0,1-3.38-1.91A3,3,0,0,1,214.81,291.25Z"/><path class="cls-2" d="M180.23,313.71a2.83,2.83,0,0,1,3.77,1.47,3.06,3.06,0,0,1-1.74,3.74,3,3,0,0,1-3.53-1.76C178.1,315.46,178.6,314.29,180.23,313.71Z"/><path class="cls-2" d="M204.43,353.34a3,3,0,0,1-3.7-1.86,3,3,0,0,1,2-3.5,2.82,2.82,0,0,1,1.74,5.36Z"/><path class="cls-2" d="M240.41,327.55a2.35,2.35,0,0,1-1.62,3.42c-1.63.56-2.72.08-3.29-1.57a2.65,2.65,0,1,1,4.91-1.85Z"/><circle class="cls-8" cx="192.36" cy="282.43" r="7.09"/><circle class="cls-4" cx="226.92" cy="362.65" r="7.13"/><circle class="cls-6" cx="213.11" cy="355.89" r="4.99"/><path class="cls-9" d="M298.84,339.87c-.14-2.32,1.22-3.55,3.41-3.55h15c2.05,0,3.14,1.09,3.55,3.28,1.09,4.91,5.19,7.37,13.24,7.37,8.88,0,11.74-3.42,11.74-7.37,0-5.6-6.83-8.06-15.15-10.92-13.52-4.65-30.58-10.24-30.58-31.13,0-19.1,15.56-28.66,31.81-28.66,16,0,31.26,8.6,32.89,28.39.14,2.32-1.23,3.55-3.41,3.55h-15c-2,0-3.13-1.09-3.54-3.28-1.09-5.05-4.64-7.36-10.92-7.36-6.83,0-10,3.41-10,7.36,0,5.74,5.6,8.47,13.51,11.33,13.66,4.78,32.22,9.7,32.22,30.72,0,19.1-15.29,28.66-33.58,28.66C316.17,368.26,300.47,359.66,298.84,339.87Z"/><path class="cls-9" d="M440.46,332.23c0,1.77-.14,3.41-.27,5a3.31,3.31,0,0,1-3.69,3.15H390.92c2.48,8.1,8.85,11.32,16,11.32a16.33,16.33,0,0,0,10.1-3.41,6.26,6.26,0,0,1,4.23-1.77l13.11-.14c2.45,0,3.82,1.64,2.73,3.82-5.33,11.88-16.52,18-30.44,18-22.66,0-37.13-15.7-37.13-36s15-36,36.58-36C426,296.19,440.46,311.62,440.46,332.23Zm-20.38-7.38c-2.11-7.76-8.13-10.51-14.15-10.51-7.68,0-13,3.71-15.1,10.51Z"/><path class="cls-9" d="M485,300.28v16.11c0,2.18-1,3.28-2.74,3.28-7.64-.28-15,3.55-15,14.46v28.81a3.09,3.09,0,0,1-3.41,3.41H450.23a3.1,3.1,0,0,1-3.42-3.41V301.51a3.1,3.1,0,0,1,3.42-3.41h13.65a3.09,3.09,0,0,1,3.41,3.41v7.38c2-6.85,7.42-10.86,14.2-11.88C483.81,296.6,485,298.1,485,300.28Z"/><path class="cls-9" d="M556.53,302.06l-22.25,61.56a3.81,3.81,0,0,1-3.82,2.73H515.72a3.83,3.83,0,0,1-3.83-2.73l-22.24-61.56c-.82-2.46.41-4,2.86-4h14.61a3.69,3.69,0,0,1,3.82,2.87l12.15,39.13L535.24,301a3.68,3.68,0,0,1,3.82-2.87H553.8C556.26,298.1,557.35,299.6,556.53,302.06Z"/><path class="cls-9" d="M563.28,286.5V274.21a3.09,3.09,0,0,1,3.41-3.41h13.65a3.09,3.09,0,0,1,3.41,3.41V286.5a3.09,3.09,0,0,1-3.41,3.41H566.69A3.09,3.09,0,0,1,563.28,286.5Zm0,76.44V301.52a3.1,3.1,0,0,1,3.41-3.42h13.65a3.09,3.09,0,0,1,3.41,3.42v61.42a3.09,3.09,0,0,1-3.41,3.41H566.69A3.09,3.09,0,0,1,563.28,362.94Z"/><path class="cls-9" d="M663.39,344.23c-4.23,14.2-17.6,24-33.58,24-20.74,0-36.17-15.7-36.17-36s15.43-36,36.17-36c16,0,29.35,9.83,33.58,24,.82,2.32-.54,3.82-2.87,3.82h-15a4.79,4.79,0,0,1-4.09-2.31c-2.46-3.42-6.69-5.33-11.61-5.33-8.87,0-15.69,6.42-15.69,15.84s6.82,15.83,15.69,15.83c4.92,0,9.15-1.91,11.61-5.19,1.09-1.64,2.18-2.45,4.09-2.45h15C662.85,340.42,664.21,341.92,663.39,344.23Z"/><path class="cls-9" d="M741.92,332.23c0,1.77-.14,3.41-.27,5a3.31,3.31,0,0,1-3.69,3.15H692.38c2.48,8.1,8.85,11.32,16,11.32a16.35,16.35,0,0,0,10.1-3.41,6.26,6.26,0,0,1,4.23-1.77l13.11-.14c2.45,0,3.82,1.64,2.73,3.82-5.33,11.88-16.52,18-30.44,18-22.66,0-37.13-15.7-37.13-36s15-36,36.58-36C727.45,296.19,741.92,311.62,741.92,332.23Zm-20.38-7.38c-2.11-7.76-8.13-10.51-14.15-10.51-7.68,0-13,3.71-15.09,10.51Z"/><path class="cls-1" d="M815.88,309.08a30.37,30.37,0,0,1,15.81,27.24c0,17.2-12.83,30-30.17,30H753.21a3.1,3.1,0,0,1-3.42-3.41V274.21a3.1,3.1,0,0,1,3.42-3.41h36.85c16.78,0,29.34,11.2,29.34,26.62a21.69,21.69,0,0,1-3.52,11.67Zm-44.25-17.8v13.64h23.2a8.46,8.46,0,0,0,2.73-6.14,7.09,7.09,0,0,0-7.5-7.5ZM809.85,335c0-6.14-3.14-10.92-10.92-10.92h-27.3v21.84h27.16C806.71,345.87,809.85,341.1,809.85,335Z"/><path class="cls-1" d="M877.33,300.28v16.11c0,2.18-1,3.28-2.74,3.28-7.64-.28-15,3.55-15,14.46v28.81a3.09,3.09,0,0,1-3.41,3.41H842.52a3.09,3.09,0,0,1-3.41-3.41V301.51a3.09,3.09,0,0,1,3.41-3.41h13.65a3.09,3.09,0,0,1,3.41,3.41v7.38c2-6.85,7.42-10.86,14.2-11.88C876.1,296.6,877.33,298.1,877.33,300.28Z"/><path class="cls-1" d="M881.47,332.23a36.17,36.17,0,1,1,36.17,36A35.77,35.77,0,0,1,881.47,332.23Zm51.87,0c0-9.7-6.83-16.11-15.7-16.11s-15.7,6.41-15.7,16.11,6.83,16.1,15.7,16.1S933.34,341.92,933.34,332.23Z"/><path class="cls-1" d="M1020.39,366.35h-15.57a4.53,4.53,0,0,1-4.09-2.19l-19-27.74v26.52a3.1,3.1,0,0,1-3.42,3.41H964.69a3.09,3.09,0,0,1-3.41-3.41V274.21a3.09,3.09,0,0,1,3.41-3.41h13.65a3.1,3.1,0,0,1,3.42,3.41v53.54l17.6-27.46a4.52,4.52,0,0,1,4.1-2.19h15.7c2.73,0,3.68,1.78,2.18,4.1l-20.06,30,21.15,30C1024.07,364.57,1023.12,366.35,1020.39,366.35Z"/><path class="cls-1" d="M1098,332.23c0,1.77-.13,3.41-.27,5a3.31,3.31,0,0,1-3.69,3.15h-45.58c2.48,8.1,8.85,11.32,16,11.32a16.36,16.36,0,0,0,10.11-3.41,6.22,6.22,0,0,1,4.23-1.77l13.1-.14c2.46,0,3.82,1.64,2.73,3.82-5.32,11.88-16.52,18-30.44,18-22.66,0-37.13-15.7-37.13-36s15-36,36.59-36C1083.53,296.19,1098,311.62,1098,332.23Zm-20.38-7.38c-2.11-7.76-8.13-10.51-14.15-10.51-7.68,0-13,3.71-15.09,10.51Z"/><path class="cls-1" d="M1144.33,300.28v16.11c0,2.18-1,3.28-2.73,3.28-7.65-.28-15,3.55-15,14.46v28.81a3.09,3.09,0,0,1-3.41,3.41h-13.65a3.09,3.09,0,0,1-3.41-3.41V301.51a3.09,3.09,0,0,1,3.41-3.41h13.65a3.09,3.09,0,0,1,3.41,3.41v7.38c2-6.85,7.42-10.86,14.2-11.88C1143.1,296.6,1144.33,298.1,1144.33,300.28Z"/></svg>