<svg width="179" height="36" viewBox="0 0 179 36" fill="none" xmlns="http://www.w3.org/2000/svg">
<g clip-path="url(#clip0)">
<path d="M9.60368 0.142784L2.6003 3.52114C2.39914 3.61769 2.22236 3.7584 2.08314 3.93277C1.94392 4.10715 1.84586 4.31069 1.79625 4.52824L0.0668731 12.1067C0.0175303 12.3245 0.0177514 12.5506 0.0675219 12.7684C0.117292 12.9861 0.215341 13.1898 0.354422 13.3646L5.2005 19.4413C5.33967 19.6156 5.51631 19.7563 5.71731 19.8531C5.91832 19.9498 6.13853 20 6.3616 20H14.1295C14.3528 20 14.5732 19.9498 14.7744 19.8531C14.9756 19.7564 15.1525 19.6156 15.292 19.4413L20.1367 13.3646C20.276 13.19 20.3742 12.9862 20.424 12.7685C20.4738 12.5507 20.4739 12.3245 20.4242 12.1067L18.6949 4.5296C18.6452 4.31205 18.5472 4.10851 18.408 3.93413C18.2687 3.75976 18.092 3.61905 17.8908 3.5225L10.8888 0.149596C10.6888 0.0523161 10.4694 0.00120024 10.247 2.08826e-05C10.0246 -0.00115848 9.80473 0.0476304 9.60368 0.142784Z" fill="#1D93D1"/>
<path d="M16.6338 8.04711C16.6454 8.15416 16.6299 8.26241 16.5888 8.36192V8.36873V8.37554C16.5479 8.45937 16.4986 8.53882 16.4416 8.61267C16.3092 8.78501 16.1181 8.90283 15.9047 8.94383C15.5449 9.02151 15.2069 8.96427 14.9698 8.67127C14.8198 8.51001 14.7302 8.30182 14.7163 8.08203C14.7023 7.86225 14.7648 7.6444 14.8932 7.46546C15.0216 7.28653 15.2079 7.15752 15.4206 7.10034C15.6333 7.04316 15.8592 7.06133 16.06 7.15176C16.1399 7.18931 16.2157 7.23497 16.2862 7.28804C16.359 7.3394 16.4202 7.4053 16.4661 7.48155C16.5081 7.55727 16.5419 7.63721 16.567 7.72004C16.6018 7.82613 16.6242 7.93588 16.6338 8.04711Z" fill="white"/>
<path opacity="0.8" d="M16.0579 13.4955C15.8096 13.5733 15.5406 13.5506 15.3088 13.4324C15.077 13.3142 14.9007 13.1099 14.8178 12.8632C14.6447 12.4012 14.9772 11.7607 15.4406 11.6122C15.9039 11.4636 16.5417 11.7689 16.6807 12.2663C16.7525 12.512 16.7281 12.7758 16.6124 13.0041C16.4968 13.2324 16.2985 13.4082 16.0579 13.4955Z" fill="white"/>
<path d="M13.3294 4.57475C13.5202 5.08579 13.234 5.61319 12.6875 5.7849C12.4437 5.86297 12.1789 5.841 11.9513 5.72382C11.7237 5.60664 11.552 5.40385 11.474 5.16006C11.3959 4.91628 11.4179 4.65146 11.535 4.42387C11.6522 4.19629 11.855 4.02457 12.0988 3.9465C12.2207 3.90368 12.35 3.88606 12.4789 3.89472C12.6079 3.90339 12.7337 3.93814 12.8487 3.99689C12.9638 4.05564 13.0658 4.13716 13.1484 4.23649C13.231 4.33582 13.2926 4.4509 13.3294 4.57475Z" fill="white"/>
<path opacity="0.9" d="M3.83089 8.50901C3.78578 8.38759 3.7657 8.2583 3.77183 8.12892C3.77797 7.99954 3.8102 7.87274 3.86659 7.75613C3.92299 7.63953 4.00238 7.53553 4.09999 7.45038C4.1976 7.36524 4.31142 7.30072 4.43461 7.26069C4.93203 7.07399 5.48123 7.38198 5.66112 7.90665C5.70073 8.02662 5.71611 8.15325 5.70638 8.2792C5.69665 8.40516 5.662 8.52793 5.60445 8.64039C5.54689 8.75284 5.46756 8.85274 5.37108 8.93429C5.2746 9.01585 5.16288 9.07742 5.04241 9.11545C4.92324 9.15867 4.79651 9.17716 4.66995 9.1698C4.54339 9.16244 4.41966 9.12938 4.3063 9.07263C4.19294 9.01589 4.09233 8.93665 4.01059 8.83975C3.92886 8.74285 3.86771 8.63031 3.83089 8.50901Z" fill="white"/>
<path d="M8.97806 15.5943C9.18656 16.0031 8.87857 16.6763 8.38797 16.8208C8.26636 16.8606 8.1381 16.8761 8.01052 16.8663C7.88293 16.8566 7.75851 16.8218 7.64436 16.764C7.53022 16.7061 7.42858 16.6264 7.34526 16.5293C7.26193 16.4322 7.19855 16.3196 7.15873 16.198C7.11891 16.0764 7.10344 15.9481 7.11318 15.8205C7.12293 15.693 7.15771 15.5685 7.21555 15.4544C7.27338 15.3402 7.35313 15.2386 7.45024 15.1553C7.54735 15.072 7.65992 15.0086 7.78153 14.9688C8.22171 14.8243 8.8704 15.0546 8.97806 15.5943Z" fill="white"/>
<path opacity="0.8" d="M4.54612 11.8205C4.92634 11.6243 5.56003 11.8873 5.73311 12.4365C5.90618 12.9857 5.69086 13.4286 5.14983 13.6372C4.6824 13.8184 4.13047 13.6222 3.91106 13.0307C3.86639 12.9099 3.8476 12.781 3.85592 12.6524C3.86424 12.5238 3.89948 12.3984 3.95935 12.2843C4.01922 12.1702 4.10239 12.07 4.20347 11.9901C4.30455 11.9102 4.42129 11.8525 4.54612 11.8205Z" fill="white"/>
<path opacity="0.5" d="M13.3334 7.48681C13.1622 7.5488 12.9735 7.54026 12.8086 7.46308C12.6438 7.38589 12.5163 7.24639 12.4544 7.07525C12.3924 6.90411 12.4009 6.71535 12.4781 6.55051C12.5553 6.38566 12.6948 6.25824 12.8659 6.19625C12.9516 6.16667 13.0423 6.15447 13.1328 6.16039C13.2232 6.1663 13.3116 6.1902 13.3926 6.23068C13.4737 6.27117 13.5459 6.32742 13.605 6.39616C13.6641 6.46489 13.7089 6.54473 13.7367 6.63098C13.7934 6.7981 13.783 6.98069 13.7078 7.14032C13.6326 7.29995 13.4983 7.42416 13.3334 7.48681Z" fill="white"/>
<path opacity="0.4" d="M6.93354 8.1546C6.84953 8.18866 6.75929 8.20462 6.6687 8.20144C6.57811 8.19826 6.48921 8.17601 6.4078 8.13615C6.32639 8.09628 6.25431 8.03969 6.19626 7.97007C6.1382 7.90046 6.09548 7.81938 6.07089 7.73213C5.9605 7.40779 6.17991 6.924 6.49881 6.85041C6.87902 6.76319 7.24016 6.89538 7.36963 7.2865C7.39876 7.3721 7.41056 7.46264 7.40435 7.55284C7.39814 7.64305 7.37404 7.73112 7.33345 7.81191C7.29286 7.89271 7.2366 7.96462 7.16794 8.02346C7.09928 8.08229 7.0196 8.12687 6.93354 8.1546Z" fill="white"/>
<path opacity="0.48" d="M7.2025 13.2486C7.28528 13.2204 7.37292 13.2092 7.46015 13.2156C7.54738 13.2221 7.63242 13.246 7.71016 13.2861C7.78791 13.3262 7.85676 13.3816 7.91261 13.4489C7.96845 13.5162 8.01013 13.5941 8.03516 13.6779C8.09076 13.8468 8.08101 14.0303 8.00783 14.1923C7.93466 14.3543 7.80338 14.4829 7.63995 14.5528C7.3047 14.6741 6.82909 14.4615 6.73778 14.129C6.70886 14.0407 6.698 13.9476 6.70584 13.855C6.71368 13.7624 6.74007 13.6724 6.78343 13.5903C6.82679 13.5081 6.88624 13.4356 6.95823 13.3769C7.03023 13.3182 7.1133 13.2746 7.2025 13.2486Z" fill="white"/>
<path opacity="0.4" d="M13.5406 12.6069C13.6239 12.5705 13.7141 12.5526 13.805 12.5546C13.8959 12.5565 13.9853 12.5782 14.067 12.6181C14.1487 12.6581 14.2207 12.7153 14.278 12.7858C14.3354 12.8564 14.3767 12.9385 14.3992 13.0267C14.4557 13.1954 14.4465 13.3794 14.3732 13.5416C14.2999 13.7039 14.168 13.8324 14.0039 13.9016C13.6905 14.0147 13.1699 13.7653 13.0936 13.4464C13.0105 13.0921 13.1863 12.6519 13.5406 12.6069Z" fill="white"/>
<path opacity="0.48" d="M9.95465 6.49749C9.54581 6.60243 9.21738 6.42254 9.10972 6.03687C9.07162 5.85832 9.10335 5.67195 9.1984 5.51608C9.29345 5.3602 9.44459 5.24665 9.62077 5.19875C9.79091 5.16678 9.96688 5.19675 10.1168 5.28323C10.2668 5.36971 10.3809 5.507 10.4384 5.67028C10.4696 5.84319 10.438 6.02154 10.3493 6.17321C10.2606 6.32487 10.1206 6.43987 9.95465 6.49749Z" fill="white"/>
<path opacity="0.48" d="M15.3562 9.67273C15.4925 10.0598 15.3385 10.4141 14.9896 10.5367C14.9056 10.5697 14.8158 10.5851 14.7256 10.5822C14.6354 10.5793 14.5468 10.5581 14.465 10.5199C14.3833 10.4816 14.3102 10.4272 14.2502 10.3598C14.1902 10.2924 14.1446 10.2135 14.116 10.1279C13.9893 9.76949 14.1515 9.43151 14.5044 9.25571C14.8097 9.10853 15.239 9.33476 15.3562 9.67273Z" fill="white"/>
<path opacity="0.4" d="M6.35738 10.6377C6.49366 11.0248 6.34784 11.3191 5.9649 11.4554C5.55606 11.5917 5.23717 11.4445 5.10362 11.0534C5.04893 10.8895 5.06 10.7109 5.13449 10.555C5.20898 10.3992 5.34107 10.2783 5.50291 10.218C5.89131 10.0776 6.22111 10.2412 6.35738 10.6377Z" fill="white"/>
<path d="M13.6813 8.59218C13.6088 8.61217 13.5321 8.61053 13.4605 8.58747C13.3889 8.56441 13.3257 8.52094 13.2785 8.4624C13.2313 8.40386 13.2023 8.3328 13.195 8.25797C13.1876 8.18314 13.2023 8.1078 13.2373 8.04122C13.2722 7.97464 13.3258 7.91972 13.3915 7.88322C13.4573 7.84671 13.5322 7.83022 13.6072 7.83577C13.6822 7.84131 13.7539 7.86865 13.8136 7.91442C13.8732 7.9602 13.9182 8.0224 13.9429 8.0934C13.968 8.19416 13.9552 8.3006 13.907 8.39254C13.8587 8.48449 13.7784 8.55552 13.6813 8.59218Z" fill="white"/>
<path d="M12.497 14.0665C12.3975 14.0962 12.2905 14.087 12.1976 14.0406C12.1048 13.9943 12.033 13.9144 11.9968 13.8171C11.9737 13.7101 11.993 13.5983 12.0508 13.5053C12.1085 13.4122 12.2 13.3452 12.3062 13.3184C12.3553 13.3058 12.4064 13.3031 12.4566 13.3103C12.5068 13.3176 12.5551 13.3346 12.5986 13.3605C12.6422 13.3864 12.6803 13.4206 12.7107 13.4612C12.7411 13.5018 12.7631 13.5479 12.7757 13.5971C12.7882 13.6462 12.7909 13.6973 12.7837 13.7475C12.7765 13.7977 12.7594 13.8459 12.7336 13.8895C12.7077 13.9331 12.6735 13.9712 12.6329 14.0016C12.5923 14.0319 12.5461 14.054 12.497 14.0665Z" fill="white"/>
<path d="M6.56677 12.6122C6.49181 12.386 6.57494 12.2306 6.8107 12.157C6.90995 12.1257 7.01751 12.1342 7.1106 12.1807C7.2037 12.2273 7.27503 12.3082 7.30949 12.4064C7.33324 12.5025 7.32132 12.604 7.27596 12.6919C7.2306 12.7799 7.15487 12.8484 7.06282 12.8848C6.81752 12.9665 6.65398 12.8766 6.56677 12.6122Z" fill="white"/>
<path d="M7.73733 7.14746C7.66511 6.93214 7.75096 6.76997 7.97991 6.6882C8.07386 6.65996 8.17484 6.66645 8.26441 6.70648C8.35397 6.74651 8.42616 6.81741 8.46779 6.90625C8.49841 7.00497 8.4914 7.11152 8.44812 7.20538C8.40484 7.29924 8.32835 7.37376 8.23339 7.41457C7.98945 7.4977 7.82592 7.40912 7.73733 7.14746Z" fill="white"/>
<path d="M10.9511 6.14461C10.9999 6.12918 11.0512 6.12365 11.1021 6.12831C11.1531 6.13298 11.2025 6.14777 11.2477 6.1718C11.2928 6.19583 11.3327 6.22863 11.365 6.26827C11.3973 6.30791 11.4213 6.3536 11.4358 6.40265C11.4502 6.45171 11.4547 6.50315 11.4489 6.55396C11.4432 6.60477 11.4274 6.65393 11.4025 6.69856C11.3775 6.74319 11.3439 6.78239 11.3036 6.81387C11.2633 6.84535 11.2172 6.86847 11.1678 6.88188C11.1205 6.8965 11.0707 6.9013 11.0214 6.89599C10.9722 6.89068 10.9245 6.87538 10.8814 6.85101C10.8383 6.82664 10.8006 6.79372 10.7706 6.75427C10.7407 6.71482 10.7191 6.66967 10.7072 6.62158C10.6836 6.52603 10.6953 6.42519 10.7402 6.33757C10.785 6.24995 10.8599 6.18144 10.9511 6.14461Z" fill="white"/>
<path d="M6.23861 9.20541C6.28541 9.18424 6.33598 9.17264 6.38733 9.17128C6.43868 9.16992 6.48978 9.17883 6.53764 9.19749C6.5855 9.21615 6.62915 9.24418 6.66602 9.27995C6.7029 9.31571 6.73226 9.35847 6.75238 9.40574C6.78353 9.50496 6.77648 9.61225 6.73261 9.70654C6.68874 9.80084 6.61122 9.87533 6.51526 9.91542C6.41962 9.94034 6.3182 9.92977 6.22976 9.88567C6.14132 9.84157 6.07185 9.76694 6.03419 9.67557C5.94834 9.4439 6.01647 9.28445 6.23861 9.20541Z" fill="white"/>
<path d="M9.53682 14.606C9.4363 14.6367 9.32784 14.6275 9.23395 14.5803C9.14006 14.5331 9.06795 14.4515 9.03259 14.3526C9.01067 14.2534 9.02644 14.1496 9.07682 14.0615C9.1272 13.9733 9.20859 13.907 9.30515 13.8756C9.40069 13.8488 9.50289 13.86 9.59035 13.9069C9.67781 13.9537 9.74376 14.0326 9.7744 14.127C9.80504 14.2213 9.79799 14.3239 9.75472 14.4132C9.71145 14.5025 9.63533 14.5716 9.54227 14.606H9.53682Z" fill="white"/>
<path d="M14.4402 11.0914C14.464 11.1356 14.4771 11.1847 14.4784 11.2349C14.4796 11.2851 14.4691 11.3348 14.4476 11.3802C14.4262 11.4256 14.3943 11.4652 14.3547 11.496C14.315 11.5268 14.2687 11.5478 14.2195 11.5574C13.9973 11.6338 13.8488 11.5683 13.7711 11.3435C13.7462 11.2981 13.7314 11.248 13.7275 11.1964C13.7237 11.1448 13.731 11.093 13.749 11.0445C13.7669 10.9959 13.7951 10.9518 13.8316 10.9151C13.868 10.8785 13.912 10.85 13.9604 10.8318C14.0088 10.8135 14.0605 10.8059 14.1122 10.8094C14.1638 10.8129 14.214 10.8275 14.2595 10.8521C14.305 10.8767 14.3447 10.9108 14.3759 10.9521C14.4071 10.9934 14.429 11.0409 14.4402 11.0914Z" fill="white"/>
<path opacity="0.66" d="M7.89175 5.90875C8.42538 5.90875 8.85797 5.47616 8.85797 4.94254C8.85797 4.40891 8.42538 3.97632 7.89175 3.97632C7.35813 3.97632 6.92554 4.40891 6.92554 4.94254C6.92554 5.47616 7.35813 5.90875 7.89175 5.90875Z" fill="white"/>
<path opacity="0.9" d="M12.6018 16.8467C13.1384 16.8467 13.5735 16.4116 13.5735 15.875C13.5735 15.3384 13.1384 14.9033 12.6018 14.9033C12.0652 14.9033 11.6301 15.3384 11.6301 15.875C11.6301 16.4116 12.0652 16.8467 12.6018 16.8467Z" fill="white"/>
<path opacity="0.4" d="M10.7198 15.6337C11.0954 15.6337 11.3999 15.3293 11.3999 14.9537C11.3999 14.5781 11.0954 14.2737 10.7198 14.2737C10.3443 14.2737 10.0398 14.5781 10.0398 14.9537C10.0398 15.3293 10.3443 15.6337 10.7198 15.6337Z" fill="white"/>
<path d="M26.4315 14.0433C26.4061 13.6235 26.6522 13.4009 27.0485 13.4009H29.763C30.1339 13.4009 30.3312 13.5982 30.4054 13.9945C30.6026 14.883 31.3446 15.3281 32.8013 15.3281C34.4082 15.3281 34.9258 14.7093 34.9258 13.9945C34.9258 12.9811 33.6898 12.5359 32.1842 12.0184C29.7376 11.1769 26.6504 10.1653 26.6504 6.38506C26.6504 2.92871 29.4662 1.19873 32.4068 1.19873C35.3022 1.19873 38.0636 2.75499 38.3586 6.3362C38.3839 6.75603 38.136 6.97861 37.7415 6.97861H35.0271C34.6652 6.97861 34.4607 6.78136 34.3865 6.38506C34.1893 5.47121 33.5468 5.05319 32.4104 5.05319C31.1745 5.05319 30.6008 5.67026 30.6008 6.38506C30.6008 7.42377 31.6142 7.9178 33.0456 8.43535C35.5175 9.30034 38.8761 10.1907 38.8761 13.9945C38.8761 17.4508 36.1093 19.1808 32.7995 19.1808C29.5675 19.1808 26.7264 17.6245 26.4315 14.0433Z" fill="#2D2F3A"/>
<path d="M52.0585 12.6609C52.0585 12.9812 52.0332 13.278 52.0097 13.5657C52.0063 13.648 51.9859 13.7288 51.9498 13.8029C51.9138 13.877 51.8628 13.9428 51.8001 13.9963C51.7374 14.0498 51.6644 14.0898 51.5856 14.1138C51.5067 14.1378 51.4238 14.1452 51.3419 14.1357H43.0938C43.5425 15.6015 44.6953 16.1842 45.9891 16.1842C46.6502 16.1887 47.2938 15.9715 47.8168 15.5671C48.0223 15.3674 48.2958 15.2529 48.5823 15.2468L50.9547 15.2215C51.398 15.2215 51.646 15.5183 51.4487 15.9127C50.4842 18.0626 48.4592 19.17 45.9403 19.17C41.8397 19.17 39.2212 16.329 39.2212 12.6555C39.2212 8.98195 41.9356 6.14087 45.8407 6.14087C49.4419 6.13906 52.0585 8.93128 52.0585 12.6609ZM48.3706 11.3254C47.9887 9.92114 46.8994 9.42349 45.81 9.42349C44.4202 9.42349 43.4575 10.0949 43.0775 11.3254H48.3706Z" fill="#2D2F3A"/>
<path d="M60.1184 6.87912V9.7944C60.1184 10.1889 59.9374 10.388 59.6226 10.388C58.24 10.3373 56.9082 11.0304 56.9082 13.0046V18.2181C56.9173 18.3014 56.9077 18.3857 56.8799 18.4647C56.8521 18.5438 56.807 18.6155 56.7477 18.6748C56.6885 18.734 56.6167 18.7792 56.5377 18.807C56.4586 18.8347 56.3743 18.8444 56.2911 18.8352H53.8264C53.743 18.8443 53.6587 18.8346 53.5796 18.8069C53.5005 18.7791 53.4286 18.734 53.3692 18.6748C53.3099 18.6156 53.2645 18.5438 53.2365 18.4648C53.2085 18.3858 53.1986 18.3015 53.2075 18.2181V7.1017C53.1986 7.01834 53.2085 6.93404 53.2365 6.855C53.2645 6.77597 53.3099 6.70422 53.3692 6.64502C53.4286 6.58582 53.5005 6.54069 53.5796 6.51293C53.6587 6.48517 53.743 6.4755 53.8264 6.48463H56.2965C56.3798 6.47545 56.464 6.48509 56.5431 6.51286C56.6221 6.54062 56.6939 6.58579 56.7532 6.64503C56.8124 6.70427 56.8576 6.77607 56.8853 6.85512C56.9131 6.93416 56.9228 7.01843 56.9136 7.1017V8.4372C57.2755 7.19762 58.2563 6.47196 59.4832 6.28738C59.903 6.21319 60.1184 6.48463 60.1184 6.87912Z" fill="#2D2F3A"/>
<path d="M73.0628 7.20111L69.0364 18.3411C68.9929 18.4888 68.9012 18.6177 68.7759 18.7072C68.6506 18.7967 68.499 18.8418 68.3451 18.8351H65.6777C65.5237 18.8415 65.372 18.7965 65.2464 18.707C65.1209 18.6175 65.0288 18.4887 64.9847 18.3411L60.9601 7.20111C60.8117 6.75595 61.0343 6.47727 61.4777 6.47727H64.1215C64.2796 6.4678 64.4359 6.51482 64.5625 6.60996C64.6892 6.70509 64.7778 6.84214 64.8128 6.99663L67.0114 14.0776L69.2101 7.0093C69.2447 6.85463 69.3333 6.71737 69.46 6.62218C69.5867 6.52698 69.7432 6.48009 69.9014 6.48994H72.5687C73.0139 6.48451 73.2111 6.75595 73.0628 7.20111Z" fill="#2D2F3A"/>
<path d="M74.2846 4.38522V2.16122C74.2754 2.07794 74.2851 1.99367 74.3128 1.91463C74.3406 1.83558 74.3858 1.76379 74.445 1.70455C74.5043 1.64531 74.5761 1.60014 74.6551 1.57237C74.7341 1.54461 74.8184 1.53496 74.9017 1.54414H77.3718C77.4551 1.53496 77.5393 1.54461 77.6184 1.57237C77.6974 1.60014 77.7692 1.64531 77.8285 1.70455C77.8877 1.76379 77.9329 1.83558 77.9606 1.91463C77.9884 1.99367 77.9981 2.07794 77.9889 2.16122V4.38522C77.9981 4.4685 77.9884 4.55277 77.9606 4.63181C77.9329 4.71086 77.8877 4.78265 77.8285 4.84189C77.7692 4.90113 77.6974 4.9463 77.6184 4.97407C77.5393 5.00183 77.4551 5.01148 77.3718 5.0023H74.9017C74.8184 5.01148 74.7341 5.00183 74.6551 4.97407C74.5761 4.9463 74.5043 4.90113 74.445 4.84189C74.3858 4.78265 74.3406 4.71086 74.3128 4.63181C74.2851 4.55277 74.2754 4.4685 74.2846 4.38522ZM74.2846 18.2179V7.10325C74.2755 7.01991 74.2852 6.93558 74.3129 6.85647C74.3407 6.77735 74.3858 6.70547 74.445 6.6461C74.5042 6.58673 74.576 6.54138 74.655 6.51339C74.734 6.4854 74.8183 6.47549 74.9017 6.48437H77.3718C77.4552 6.47514 77.5397 6.48481 77.6189 6.51268C77.6981 6.54054 77.77 6.58588 77.8293 6.64533C77.8885 6.70478 77.9337 6.77681 77.9613 6.85609C77.9889 6.93536 77.9984 7.01984 77.9889 7.10325V18.2179C77.9981 18.3011 77.9884 18.3854 77.9606 18.4644C77.9329 18.5435 77.8877 18.6153 77.8285 18.6745C77.7692 18.7338 77.6974 18.7789 77.6184 18.8067C77.5393 18.8345 77.4551 18.8441 77.3718 18.8349H74.9017C74.8184 18.8441 74.7341 18.8345 74.6551 18.8067C74.5761 18.7789 74.5043 18.7338 74.445 18.6745C74.3858 18.6153 74.3406 18.5435 74.3128 18.4644C74.2851 18.3854 74.2754 18.3011 74.2846 18.2179Z" fill="#2D2F3A"/>
<path d="M92.3996 14.8324C91.6341 17.402 89.2147 19.1754 86.3229 19.1754C82.5698 19.1754 79.7776 16.3343 79.7776 12.6608C79.7776 8.98732 82.5698 6.14624 86.3229 6.14624C89.2183 6.14624 91.6341 7.92508 92.3996 10.4893C92.548 10.9091 92.3019 11.1806 91.8802 11.1806H89.1658C89.0169 11.1803 88.8706 11.1417 88.741 11.0685C88.6114 10.9953 88.5028 10.8899 88.4257 10.7625C87.9805 10.1437 87.2151 9.79803 86.3247 9.79803C84.7196 9.79803 83.4855 10.9598 83.4855 12.6644C83.4855 14.3691 84.7196 15.529 86.3247 15.529C87.2151 15.529 87.9805 15.1834 88.4257 14.5899C88.6229 14.2931 88.8202 14.1465 89.1658 14.1465H91.8802C92.3019 14.1429 92.548 14.4143 92.3996 14.8324Z" fill="#2D2F3A"/>
<path d="M106.611 12.6609C106.611 12.9812 106.586 13.278 106.562 13.5657C106.559 13.648 106.539 13.7288 106.503 13.8029C106.466 13.877 106.416 13.9428 106.353 13.9963C106.29 14.0498 106.217 14.0898 106.138 14.1138C106.059 14.1378 105.977 14.1452 105.895 14.1357H97.6465C98.0953 15.6015 99.248 16.1842 100.542 16.1842C101.203 16.1885 101.846 15.9712 102.37 15.5671C102.575 15.3674 102.849 15.2529 103.135 15.2468L105.507 15.2215C105.951 15.2215 106.199 15.5183 106.001 15.9127C105.037 18.0626 103.012 19.17 100.493 19.17C96.3924 19.17 93.7739 16.329 93.7739 12.6555C93.7739 8.98195 96.4883 6.14087 100.393 6.14087C103.993 6.13906 106.611 8.93128 106.611 12.6609ZM102.923 11.3254C102.541 9.92114 101.452 9.42349 100.363 9.42349C98.9729 9.42349 98.0102 10.0949 97.632 11.3254H102.923Z" fill="#2D2F3A"/>
<path d="M119.995 8.47152C120.877 8.95309 121.61 9.66726 122.115 10.5364C122.619 11.4054 122.876 12.3962 122.856 13.4009C122.856 16.5134 120.535 18.8297 117.397 18.8297H108.655C108.571 18.8388 108.487 18.8292 108.408 18.8014C108.329 18.7737 108.257 18.7285 108.197 18.6693C108.138 18.6101 108.093 18.5384 108.065 18.4593C108.037 18.3803 108.027 18.296 108.036 18.2126V2.16143C108.027 2.07806 108.037 1.99376 108.065 1.91473C108.093 1.83569 108.138 1.76394 108.197 1.70474C108.257 1.64555 108.329 1.60041 108.408 1.57265C108.487 1.54489 108.571 1.53522 108.655 1.54435H115.323C118.359 1.54435 120.632 3.57111 120.632 6.36153C120.626 7.11188 120.405 7.84476 119.995 8.47333V8.47152ZM111.988 5.25043V7.71873H116.186C116.34 7.57709 116.463 7.40543 116.548 7.21433C116.633 7.02323 116.678 6.81675 116.68 6.60763C116.691 6.42658 116.663 6.24529 116.599 6.07573C116.534 5.90616 116.435 5.75218 116.307 5.62393C116.178 5.49568 116.024 5.39608 115.855 5.33169C115.685 5.26731 115.504 5.23961 115.323 5.25043H111.988ZM118.904 13.162C118.904 12.0509 118.336 11.1859 116.928 11.1859H111.988V15.1381H116.903C118.336 15.1291 118.904 14.2659 118.904 13.162Z" fill="#1D93D1"/>
<path d="M131.115 6.87912V9.7944C131.115 10.1889 130.934 10.388 130.619 10.388C129.237 10.3373 127.905 11.0304 127.905 13.0046V18.2181C127.914 18.3014 127.904 18.3857 127.877 18.4647C127.849 18.5438 127.804 18.6155 127.744 18.6748C127.685 18.734 127.613 18.7792 127.534 18.807C127.455 18.8347 127.371 18.8444 127.288 18.8352H124.816C124.732 18.8444 124.648 18.8347 124.569 18.807C124.49 18.7792 124.418 18.734 124.359 18.6748C124.3 18.6155 124.255 18.5438 124.227 18.4647C124.199 18.3857 124.189 18.3014 124.199 18.2181V7.1017C124.189 7.01843 124.199 6.93416 124.227 6.85512C124.255 6.77607 124.3 6.70427 124.359 6.64503C124.418 6.58579 124.49 6.54062 124.569 6.51286C124.648 6.48509 124.732 6.47545 124.816 6.48463H127.286C127.369 6.47545 127.453 6.48509 127.532 6.51286C127.612 6.54062 127.683 6.58579 127.743 6.64503C127.802 6.70427 127.847 6.77607 127.875 6.85512C127.902 6.93416 127.912 7.01843 127.903 7.1017V8.4372C128.265 7.19762 129.246 6.47196 130.473 6.28738C130.892 6.21319 131.115 6.48463 131.115 6.87912Z" fill="#1D93D1"/>
<path d="M131.864 12.6608C131.858 11.365 132.237 10.0965 132.952 9.01609C133.668 7.93567 134.688 7.09195 135.884 6.59183C137.079 6.09171 138.396 5.95769 139.668 6.20676C140.939 6.45583 142.109 7.07677 143.027 7.99092C143.945 8.90506 144.572 10.0713 144.827 11.3418C145.082 12.6123 144.954 13.9299 144.46 15.1277C143.965 16.3255 143.126 17.3496 142.049 18.0702C140.972 18.7907 139.706 19.1754 138.41 19.1754C137.55 19.185 136.697 19.0233 135.901 18.6998C135.104 18.3762 134.38 17.8972 133.771 17.2907C133.162 16.6843 132.679 15.9625 132.352 15.1676C132.025 14.3727 131.859 13.5205 131.864 12.6608ZM141.251 12.6608C141.251 10.9055 140.015 9.74555 138.41 9.74555C136.805 9.74555 135.569 10.9055 135.569 12.6608C135.569 14.4162 136.805 15.5743 138.41 15.5743C140.015 15.5743 141.251 14.4143 141.251 12.6608Z" fill="#1D93D1"/>
<path d="M157.003 18.8349H154.186C154.038 18.8417 153.891 18.8085 153.761 18.7387C153.631 18.669 153.522 18.5653 153.446 18.4386L150.007 13.4188V18.2179C150.016 18.3012 150.006 18.3855 149.978 18.4646C149.95 18.5436 149.905 18.6153 149.846 18.6745C149.786 18.7337 149.714 18.7789 149.635 18.8066C149.556 18.8344 149.472 18.8441 149.389 18.8349H146.924C146.841 18.8441 146.756 18.8345 146.677 18.8067C146.598 18.7789 146.526 18.7338 146.467 18.6745C146.408 18.6153 146.363 18.5435 146.335 18.4644C146.307 18.3854 146.298 18.3011 146.307 18.2179V2.16122C146.298 2.07794 146.307 1.99367 146.335 1.91463C146.363 1.83558 146.408 1.76379 146.467 1.70455C146.526 1.64531 146.598 1.60014 146.677 1.57237C146.756 1.54461 146.841 1.53496 146.924 1.54414H149.394C149.477 1.53501 149.562 1.54468 149.641 1.57244C149.72 1.6002 149.792 1.64534 149.851 1.70453C149.911 1.76373 149.956 1.83548 149.984 1.91451C150.012 1.99355 150.022 2.07785 150.013 2.16122V11.8499L153.198 6.88067C153.274 6.75362 153.383 6.64964 153.514 6.57984C153.645 6.51004 153.792 6.47704 153.94 6.48437H156.781C157.275 6.48437 157.447 6.80648 157.175 7.22631L153.545 12.6551L157.373 18.084C157.669 18.5128 157.497 18.8349 157.003 18.8349Z" fill="#1D93D1"/>
<path d="M171.047 12.6609C171.047 12.9812 171.024 13.278 170.998 13.5657C170.995 13.648 170.975 13.7288 170.939 13.8029C170.903 13.877 170.852 13.9428 170.789 13.9963C170.726 14.0498 170.653 14.0898 170.574 14.1138C170.495 14.1378 170.413 14.1452 170.331 14.1357H162.083C162.531 15.6015 163.684 16.1842 164.978 16.1842C165.64 16.1887 166.284 15.9715 166.807 15.5671C167.012 15.3668 167.286 15.2522 167.573 15.2468L169.943 15.2215C170.389 15.2215 170.635 15.5183 170.437 15.9127C169.475 18.0626 167.448 19.17 164.929 19.17C160.828 19.17 158.21 16.329 158.21 12.6555C158.21 8.98195 160.924 6.14087 164.831 6.14087C168.429 6.13906 171.047 8.93128 171.047 12.6609ZM167.359 11.3254C166.977 9.92114 165.888 9.42349 164.799 9.42349C163.409 9.42349 162.446 10.0949 162.068 11.3254H167.359Z" fill="#1D93D1"/>
<path d="M179.432 6.87912V9.7944C179.432 10.1889 179.251 10.388 178.938 10.388C177.553 10.3373 176.223 11.0304 176.223 13.0046V18.2181C176.232 18.3014 176.223 18.3857 176.195 18.4647C176.167 18.5438 176.122 18.6155 176.063 18.6748C176.004 18.734 175.932 18.7792 175.853 18.807C175.774 18.8347 175.689 18.8444 175.606 18.8352H173.136C173.053 18.8444 172.969 18.8347 172.889 18.807C172.81 18.7792 172.739 18.734 172.679 18.6748C172.62 18.6155 172.575 18.5438 172.547 18.4647C172.519 18.3857 172.51 18.3014 172.519 18.2181V7.1017C172.51 7.01843 172.519 6.93416 172.547 6.85512C172.575 6.77607 172.62 6.70427 172.679 6.64503C172.739 6.58579 172.81 6.54062 172.889 6.51286C172.969 6.48509 173.053 6.47545 173.136 6.48463H175.606C175.689 6.47545 175.774 6.48509 175.853 6.51286C175.932 6.54062 176.004 6.58579 176.063 6.64503C176.122 6.70427 176.167 6.77607 176.195 6.85512C176.223 6.93416 176.232 7.01843 176.223 7.1017V8.4372C176.585 7.19762 177.566 6.47196 178.793 6.28738C179.209 6.21319 179.432 6.48463 179.432 6.87912Z" fill="#1D93D1"/>
<path d="M6.73546 30.3358C6.65008 31.3016 6.31631 32.056 5.73416 32.599C5.15202 33.1378 4.37776 33.4073 3.41139 33.4073C2.7361 33.4073 2.14037 33.2373 1.62419 32.8974C1.1119 32.5534 0.716043 32.0663 0.436611 31.4363C0.15718 30.8062 0.011643 30.0746 0 29.2415V28.3959C0 27.542 0.141656 26.7896 0.424969 26.1389C0.708281 25.4881 1.11384 24.9865 1.64166 24.6342C2.17335 24.2819 2.78655 24.1057 3.48125 24.1057C4.41657 24.1057 5.16948 24.3772 5.73999 24.9202C6.31049 25.4632 6.64232 26.2301 6.73546 27.2207H5.26845C5.19859 26.5699 5.02006 26.1016 4.73287 25.8155C4.44956 25.5254 4.03235 25.3803 3.48125 25.3803C2.84089 25.3803 2.348 25.6311 2.00259 26.1326C1.66106 26.6301 1.48642 27.3617 1.47866 28.3275V29.1295C1.47866 30.1078 1.64166 30.8539 1.96766 31.3679C2.29755 31.8819 2.77879 32.1389 3.41139 32.1389C3.98966 32.1389 4.42433 32 4.7154 31.7223C5.00648 31.4446 5.19083 30.9824 5.26845 30.3358H6.73546Z" fill="#00A651"/>
<path d="M22.439 29.857C22.439 29.1979 22.5613 28.6052 22.8058 28.0788C23.0503 27.5482 23.3938 27.142 23.8362 26.8601C24.2786 26.5741 24.787 26.4311 25.3614 26.4311C26.2114 26.4311 26.9002 26.7233 27.4281 27.3078C27.9597 27.8922 28.2469 28.6674 28.2896 29.6332L28.2955 29.9876C28.2955 30.6508 28.1751 31.2435 27.9345 31.7658C27.6978 32.2881 27.3563 32.6922 26.9099 32.9782C26.4675 33.2642 25.9552 33.4073 25.3731 33.4073C24.4843 33.4073 23.7722 33.0922 23.2366 32.4622C22.7049 31.828 22.439 30.9845 22.439 29.9316V29.857ZM23.8537 29.9876C23.8537 30.6798 23.9876 31.2228 24.2553 31.6166C24.5231 32.0062 24.8957 32.201 25.3731 32.201C25.8504 32.201 26.2211 32.0021 26.485 31.6041C26.7528 31.2062 26.8867 30.6238 26.8867 29.857C26.8867 29.1772 26.7489 28.6383 26.4733 28.2404C26.2017 27.8425 25.831 27.6435 25.3614 27.6435C24.8996 27.6435 24.5328 27.8404 24.2612 28.2342C23.9895 28.6238 23.8537 29.2083 23.8537 29.9876Z" fill="#00A651"/>
<path d="M45.6058 26.5554L45.6465 27.258C46.0889 26.7067 46.6944 26.4311 47.4628 26.4311C48.305 26.4311 48.8813 26.7751 49.1918 27.4632C49.6498 26.7751 50.294 26.4311 51.1245 26.4311C51.8192 26.4311 52.3354 26.6363 52.673 27.0466C53.0146 27.457 53.1892 28.0622 53.197 28.8622V33.2829H51.7824V28.9057C51.7824 28.4788 51.695 28.1658 51.5204 27.9668C51.3457 27.7679 51.0566 27.6684 50.653 27.6684C50.3309 27.6684 50.067 27.7617 49.8613 27.9482C49.6595 28.1306 49.5178 28.371 49.4363 28.6694L49.4421 33.2829H48.0275V28.856C48.0081 28.0642 47.6297 27.6684 46.8923 27.6684C46.3257 27.6684 45.924 27.915 45.6873 28.4083V33.2829H44.2726V26.5554H45.6058Z" fill="#00A651"/>
<path d="M70.7634 26.5554L70.8042 27.258C71.2466 26.7067 71.852 26.4311 72.6205 26.4311C73.4627 26.4311 74.039 26.7751 74.3495 27.4632C74.8074 26.7751 75.4517 26.4311 76.2822 26.4311C76.9769 26.4311 77.4931 26.6363 77.8307 27.0466C78.1722 27.457 78.3469 28.0622 78.3546 28.8622V33.2829H76.94V28.9057C76.94 28.4788 76.8527 28.1658 76.6781 27.9668C76.5034 27.7679 76.2143 27.6684 75.8107 27.6684C75.4885 27.6684 75.2246 27.7617 75.0189 27.9482C74.8171 28.1306 74.6755 28.371 74.594 28.6694L74.5998 33.2829H73.1852V28.856C73.1658 28.0642 72.7874 27.6684 72.05 27.6684C71.4833 27.6684 71.0817 27.915 70.8449 28.4083V33.2829H69.4303V26.5554H70.7634Z" fill="#00A651"/>
<path d="M98.4069 32.6238C97.9916 33.1461 97.4017 33.4073 96.6371 33.4073C95.9541 33.4073 95.436 33.1938 95.0828 32.7668C94.7335 32.3399 94.5589 31.7223 94.5589 30.914V26.5554H95.9735V30.8953C95.9735 31.7492 96.3053 32.1762 96.969 32.1762C97.6559 32.1762 98.1197 31.913 98.3603 31.3865V26.5554H99.7749V33.2829H98.4418L98.4069 32.6238Z" fill="#00A651"/>
<path d="M117.312 26.5554L117.353 27.3326C117.819 26.7316 118.43 26.4311 119.187 26.4311C120.499 26.4311 121.166 27.2332 121.189 28.8373V33.2829H119.775V28.9244C119.775 28.4974 119.687 28.1824 119.513 27.9793C119.342 27.772 119.061 27.6684 118.669 27.6684C118.098 27.6684 117.673 27.944 117.394 28.4953V33.2829H115.979V26.5554H117.312Z" fill="#00A651"/>
<path d="M138.925 33.2829H137.51V26.5554H138.925V33.2829ZM137.423 24.8083C137.423 24.5762 137.491 24.3834 137.626 24.2301C137.766 24.0767 137.964 24 138.22 24C138.476 24 138.674 24.0767 138.814 24.2301C138.954 24.3834 139.024 24.5762 139.024 24.8083C139.024 25.0363 138.954 25.2269 138.814 25.3803C138.674 25.5295 138.476 25.6041 138.22 25.6041C137.964 25.6041 137.766 25.5295 137.626 25.3803C137.491 25.2269 137.423 25.0363 137.423 24.8083Z" fill="#00A651"/>
<path d="M157.027 24.9202V26.5554H158.139V27.6746H157.027V31.4301C157.027 31.687 157.073 31.8736 157.166 31.9896C157.263 32.1016 157.434 32.1575 157.679 32.1575C157.842 32.1575 158.007 32.1368 158.174 32.0953V33.2642C157.851 33.3596 157.541 33.4073 157.242 33.4073C156.155 33.4073 155.612 32.7668 155.612 31.486V27.6746H154.576V26.5554H155.612V24.9202H157.027Z" fill="#00A651"/>
<path d="M176.212 31.1192L177.492 26.5554H179L176.497 34.3026C176.113 35.4342 175.461 36 174.541 36C174.335 36 174.108 35.9627 173.86 35.8881V34.7192L174.127 34.7378C174.484 34.7378 174.752 34.6674 174.931 34.5264C175.113 34.3896 175.257 34.1575 175.362 33.8301L175.565 33.2518L173.353 26.5554H174.878L176.212 31.1192Z" fill="#00A651"/>
</g>
<defs>
<clipPath id="clip0">
<rect width="179" height="36" fill="white"/>
</clipPath>
</defs>
</svg>
