<svg id="Layer_1" data-name="Layer 1" xmlns="http://www.w3.org/2000/svg" viewBox="0 0 1279 639"><defs><style>.cls-1{fill:#003466;}.cls-2{fill:#1971bd;}.cls-3,.cls-4,.cls-5,.cls-6,.cls-7,.cls-8,.cls-9{fill:#fff;}.cls-4{opacity:0.4;}.cls-5{opacity:0.9;}.cls-6{opacity:0.5;}.cls-7{opacity:0.8;}.cls-8{opacity:0.7;}.cls-9{opacity:0.6;}</style></defs><title>console_1280x640</title><path class="cls-1" d="M773.33,201.08a4,4,0,0,0-2.18,1.59c-4.62,10.73-12.75,14.67-24,11.3-1.88-.56-2.34.59-3.1,1.58Q730,234,715.91,252.54c-3.56,4.69-5.93,5.12-11,2-5.87-3.6-11.75-7.18-18-11l-19.12,28.79H797l-3.53-15.49q-7.66,0-15.31,0c-4.26,0-6.8-2.19-6.89-5.81s2.51-6.18,6.84-6.19,8.41,0,12.62,0L780.7,201h-5.13A6.42,6.42,0,0,0,773.33,201.08Z"/><path class="cls-1" d="M754,203.3a6.2,6.2,0,1,0-6.42-6.19A6.3,6.3,0,0,0,754,203.3Z"/><path class="cls-1" d="M631.75,297h83.19c.22,1.22.4,2.14.55,3a13.73,13.73,0,0,0,13.32,11.7c6.13.13,12.28.13,18.41,0A13.44,13.44,0,0,0,760.43,300c.31-2.79,1.44-3.08,3.74-3.08l21.53,0,8-10a17.34,17.34,0,0,0,1.71-2.65H658.65c-6.21,0-8-1.85-8-8.14q0-50.44,0-100.88c0-4.61,2.28-7.24,6.13-7.18a5.7,5.7,0,0,1,5.75,5.17,26.8,26.8,0,0,1,.08,3.11V257l.69.28c1.88-2.8,3.77-5.58,5.63-8.39q5.1-7.67,10.18-15.34c3.15-4.75,5.84-5.36,10.63-2.43,6.12,3.73,12.24,7.48,18.56,11.35.65-.77,1.26-1.45,1.82-2.17,8.52-11.2,17-22.42,25.58-33.59a4.17,4.17,0,0,0,.73-4.34A18.14,18.14,0,0,1,768.82,187a4.28,4.28,0,0,0,4.15,2.11h5l-7.88-34.49H631.75Z"/><path class="cls-1" d="M646.27,314.44c-3.39-.08-6.79,0-10.18,0s-6.78-.06-10.17,0c-3.93.09-6.63,2.71-6.62,6.25s2.74,6.16,6.66,6.19q10.17.09,20.35,0c3.92,0,6.62-2.67,6.6-6.23S650.21,314.53,646.27,314.44Z"/><path class="cls-2" d="M596.32,325.61c0-4.63,0-9.26,0-13.89.06-9.06,5.65-14.7,14.65-14.79,2.18,0,4.35-.05,6.52,0,1.43,0,2.12-.48,2-2-.06-.84,0-1.7,0-2.55q0-72.69,0-145.37c0-5.51,1.56-10.26,6.49-13a18.65,18.65,0,0,1,8.59-2.11q55.68-.11,111.35-.09L647,84.24a17.13,17.13,0,0,0-14.89,0L519.18,138.6a17.16,17.16,0,0,0-9.29,11.64L482,272.39a17.16,17.16,0,0,0,3.32,14.52l78.11,97.95a17.16,17.16,0,0,0,13.42,6.47H702.15a17.13,17.13,0,0,0,13.41-6.47L749.77,342H612.58C601.54,342,596.32,336.72,596.32,325.61Z"/><path class="cls-3" d="M764.17,296.89c-2.3,0-3.43.29-3.74,3.08a13.44,13.44,0,0,1-13.21,11.75c-6.13.14-12.28.14-18.41,0A13.73,13.73,0,0,1,715.49,300c-.15-.91-.33-1.83-.55-3H631.75V154.62H770.11l-1-4.38a17.14,17.14,0,0,0-9.28-11.64l-13.92-6.7q-55.67,0-111.35.09A18.65,18.65,0,0,0,626,134.1c-4.93,2.69-6.49,7.44-6.49,13q.07,72.69,0,145.37c0,.85-.06,1.71,0,2.55.11,1.49-.58,2-2,2-2.17-.06-4.34,0-6.52,0-9,.09-14.59,5.73-14.65,14.79,0,4.63,0,9.26,0,13.89,0,11.11,5.22,16.36,16.26,16.36H749.77l35.93-45.06Zm-117.86,30q-10.17.09-20.35,0c-3.92,0-6.64-2.65-6.66-6.19s2.69-6.16,6.62-6.25c3.39-.08,6.78,0,10.17,0s6.79-.06,10.18,0c3.94.09,6.62,2.66,6.64,6.21S650.23,326.84,646.31,326.88Z"/><path class="cls-3" d="M797,272.39v-.05H667.79l19.12-28.79c6.22,3.81,12.1,7.39,18,11,5.1,3.13,7.47,2.7,11-2Q730,234,744,215.55c.76-1,1.22-2.14,3.1-1.58,11.27,3.37,19.4-.57,24-11.3a4,4,0,0,1,2.18-1.59,6.42,6.42,0,0,1,2.24-.06h5.13L778,189.11h-5a4.28,4.28,0,0,1-4.15-2.11,18.14,18.14,0,0,0-32.43,15.4,4.17,4.17,0,0,1-.73,4.34c-8.57,11.17-17.06,22.39-25.58,33.59-.56.72-1.17,1.4-1.82,2.17-6.32-3.87-12.44-7.62-18.56-11.35-4.79-2.93-7.48-2.32-10.63,2.43q-5.1,7.66-10.18,15.34c-1.86,2.81-3.75,5.59-5.63,8.39l-.69-.28v-80.7a26.8,26.8,0,0,0-.08-3.11,5.7,5.7,0,0,0-5.75-5.17c-3.85-.06-6.13,2.57-6.13,7.18q0,50.43,0,100.88c0,6.29,1.84,8.14,8,8.14H795.39A17.13,17.13,0,0,0,797,272.39Zm-43.31-81.48a6.2,6.2,0,1,1-6.12,6.2A6.29,6.29,0,0,1,753.68,190.91Z"/><path class="cls-3" d="M771.25,251c.09,3.62,2.63,5.79,6.89,5.81q7.65,0,15.31,0l-2.74-12c-4.21,0-8.42,0-12.62,0S771.16,247.29,771.25,251Z"/><path class="cls-3" d="M692.86,207.73c-4.77,0-9.54,0-14.31,0-3,0-4.84-1.56-4.9-4.14s1.78-4.4,4.86-4.41q14.41,0,28.82,0c3,0,4.8,1.69,4.81,4.27s-1.8,4.26-4.77,4.28C702.53,207.75,697.7,207.73,692.86,207.73Z"/><path class="cls-3" d="M699.24,192.36c-2.69,0-5.38,0-8.07,0s-4.63-1.73-4.66-4.21,1.83-4.33,4.75-4.35q8.07-.06,16.13,0c2.94,0,4.77,1.75,4.75,4.33s-1.77,4.17-4.64,4.23S702,192.36,699.24,192.36Z"/><polygon class="cls-3" points="566.29 220.35 561.56 218.7 557.32 221.37 556.76 226.35 560.3 229.89 565.28 229.33 567.95 225.09 566.29 220.35"/><polygon class="cls-3" points="526.52 206.42 528.23 211.5 533.27 213.33 537.84 210.53 538.51 205.21 534.76 201.38 529.43 201.91 526.52 206.42"/><polygon class="cls-3" points="552.89 274.04 554.58 277.96 558.7 279.09 562.14 276.57 562.32 272.31 559.1 269.51 554.91 270.28 552.89 274.04"/><path class="cls-3" d="M541.14,233.19l2.86,2.63a1,1,0,0,0,.82.25l3.85-.59a1,1,0,0,0,.7-.49l1.94-3.37a1,1,0,0,0,.06-.86l-1.44-3.61a1,1,0,0,0-.63-.58l-3.72-1.14a1,1,0,0,0-.85.14l-3.2,2.2a1,1,0,0,0-.43.74l-.27,3.88A1,1,0,0,0,541.14,233.19Z"/><polygon class="cls-3" points="541.97 260.71 545.34 264.88 550.7 264.84 554.01 260.63 552.79 255.41 547.94 253.12 543.13 255.48 541.97 260.71"/><polygon class="cls-4" points="589.4 267.9 592.59 270.41 596.53 269.48 598.25 265.81 596.47 262.18 592.52 261.31 589.37 263.86 589.4 267.9"/><polygon class="cls-3" points="578.1 231.2 581.29 233.7 585.23 232.77 586.96 229.11 585.17 225.47 581.22 224.6 578.07 227.15 578.1 231.2"/><polygon class="cls-4" points="593.87 197.89 597.19 201.29 601.92 200.81 604.5 196.82 602.98 192.31 598.51 190.69 594.45 193.17 593.87 197.89"/><polygon class="cls-3" points="567.16 253.96 570.55 256.62 574.75 255.63 576.6 251.73 574.7 247.85 570.48 246.93 567.13 249.64 567.16 253.96"/><polygon class="cls-5" points="537.44 186.95 541.25 189.94 545.96 188.83 548.03 184.45 545.89 180.1 541.17 179.06 537.4 182.11 537.44 186.95"/><polygon class="cls-3" points="544 217.61 548.65 218.97 552.61 216.18 552.9 211.35 549.3 208.11 544.53 208.9 542.17 213.13 544 217.61"/><polygon class="cls-3" points="551.98 248.38 555.93 248.57 558.55 245.59 557.86 241.69 554.38 239.81 550.73 241.35 549.66 245.16 551.98 248.38"/><polygon class="cls-3" points="565.67 238.54 567.96 240.89 571.23 240.56 573.01 237.8 571.96 234.69 568.87 233.57 566.07 235.28 565.67 238.54"/><polygon class="cls-3" points="576.9 284.39 578.59 288.31 582.71 289.44 586.15 286.92 586.34 282.66 583.12 279.86 578.92 280.63 576.9 284.39"/><polygon class="cls-6" points="545.18 166.55 548.74 169.83 553.53 169.09 555.93 164.89 554.15 160.39 549.51 158.98 545.52 161.72 545.18 166.55"/><polygon class="cls-7" points="555.23 200.22 559.87 201.58 563.83 198.8 564.12 193.97 560.52 190.72 555.75 191.52 553.39 195.75 555.23 200.22"/><polygon class="cls-3" points="580.57 244.73 581.99 246.18 584.01 245.98 585.11 244.27 584.46 242.35 582.55 241.65 580.82 242.71 580.57 244.73"/><polygon class="cls-8" points="602.45 213.31 603.87 214.76 605.89 214.56 606.99 212.85 606.34 210.93 604.43 210.23 602.7 211.29 602.45 213.31"/><polygon class="cls-3" points="531.09 194.85 532.51 196.3 534.53 196.1 535.63 194.39 534.99 192.47 533.08 191.77 531.35 192.83 531.09 194.85"/><polygon class="cls-3" points="565.9 283.28 567.32 284.73 569.34 284.53 570.44 282.82 569.79 280.9 567.88 280.21 566.15 281.27 565.9 283.28"/><polygon class="cls-3" points="559.54 210.96 560.95 212.42 562.97 212.21 564.07 210.51 563.43 208.58 561.52 207.89 559.79 208.95 559.54 210.96"/><polygon class="cls-3" points="511 310.68 512.41 312.13 514.43 311.93 515.53 310.23 514.89 308.3 512.98 307.61 511.25 308.67 511 310.68"/><polygon class="cls-3" points="558.77 260.44 560.18 261.89 562.2 261.69 563.3 259.98 562.66 258.06 560.75 257.36 559.02 258.42 558.77 260.44"/><polygon class="cls-3" points="574.65 268.18 577.22 270.81 580.88 270.44 582.87 267.35 581.7 263.87 578.24 262.61 575.11 264.53 574.65 268.18"/><polygon class="cls-4" points="593 250.16 595.57 252.8 599.22 252.43 601.22 249.34 600.04 245.85 596.59 244.6 593.45 246.52 593 250.16"/><polygon class="cls-9" points="597.29 233.63 599.86 236.27 603.52 235.9 605.52 232.81 604.34 229.32 600.89 228.07 597.75 229.99 597.29 233.63"/><polygon class="cls-3" points="544.8 300.14 543.44 303.95 545.58 307.39 549.6 307.87 552.48 305.03 552.05 301 548.63 298.83 544.8 300.14"/><polygon class="cls-3" points="539.69 277.86 537.51 282.09 539.47 286.42 544.08 287.6 547.87 284.73 547.99 279.98 544.35 276.92 539.69 277.86"/><polygon class="cls-4" points="565.4 189.26 569.4 188.64 571.42 185.13 569.93 181.37 566.06 180.18 562.72 182.47 562.42 186.51 565.4 189.26"/><polygon class="cls-9" points="591.76 185.86 595.93 183.4 596.6 178.6 593.28 175.09 588.45 175.49 585.76 179.52 587.24 184.13 591.76 185.86"/><polygon class="cls-4" points="573.73 210.9 577.01 210.83 579 208.22 578.21 205.04 575.22 203.68 572.29 205.16 571.63 208.38 573.73 210.9"/><polygon class="cls-6" points="574.32 172.14 576.35 172.1 577.58 170.49 577.09 168.51 575.24 167.67 573.43 168.59 573.02 170.58 574.32 172.14"/><polygon class="cls-9" points="539.19 174.66 541.22 174.62 542.46 173 541.97 171.03 540.12 170.19 538.31 171.11 537.9 173.1 539.19 174.66"/><polygon class="cls-8" points="585.57 201.66 587.6 201.62 588.83 200.01 588.34 198.04 586.5 197.2 584.68 198.11 584.27 200.1 585.57 201.66"/><polygon class="cls-9" points="577.12 191.89 579.15 191.85 580.38 190.24 579.89 188.27 578.04 187.42 576.23 188.34 575.82 190.33 577.12 191.89"/><polygon class="cls-9" points="586.45 215.56 588.42 219.4 592.65 220.25 595.95 217.47 595.84 213.16 592.4 210.56 588.22 211.63 586.45 215.56"/><path class="cls-3" d="M552.44,287.33l-1.61,4.5a.07.07,0,0,0,0,.05l2.52,4.07,0,0,4.75.56s0,0,.05,0l3.4-3.35a.07.07,0,0,0,0-.06l-.5-4.75,0-.05-4-2.57H557l-4.52,1.55S552.45,287.31,552.44,287.33Z"/><polygon class="cls-3" points="529.97 294.34 530.15 299.18 534.05 302.05 538.73 300.79 540.66 296.36 538.39 292.08 533.64 291.18 529.97 294.34"/><polygon class="cls-3" points="523.37 303.09 521.71 306.33 523.2 309.65 526.73 310.55 529.64 308.36 529.73 304.71 526.95 302.37 523.37 303.09"/><polygon class="cls-3" points="513.45 188.75 517.39 192.38 522.69 191.56 525.36 186.91 523.38 181.93 518.25 180.37 513.83 183.4 513.45 188.75"/><path class="cls-1" d="M740.49,146a2.75,2.75,0,0,0,0-5.5,2.75,2.75,0,1,0,0,5.5Z"/><path class="cls-1" d="M286.51,488.84a67.22,67.22,0,0,1,4.29-23.48,63,63,0,0,1,32.62-35.55,62.1,62.1,0,0,1,27.05-5.67q17.91,0,31,7.86a50.15,50.15,0,0,1,19.46,20.47l-19.37,13.34a33.25,33.25,0,0,0-6.21-9.23,31.56,31.56,0,0,0-7.86-5.94,35.37,35.37,0,0,0-8.77-3.19,41.66,41.66,0,0,0-9-1,34,34,0,0,0-16.54,3.84,36.34,36.34,0,0,0-11.69,10,43.75,43.75,0,0,0-7,13.89,52.35,52.35,0,0,0-2.38,15.44,50.31,50.31,0,0,0,2.75,16.54,43.86,43.86,0,0,0,7.76,14,38.91,38.91,0,0,0,12.06,9.69,33,33,0,0,0,15.45,3.65,40.72,40.72,0,0,0,9.14-1.09,34.53,34.53,0,0,0,9-3.48,34,34,0,0,0,7.95-6.12,28.2,28.2,0,0,0,5.85-9l20.65,11.87a38.94,38.94,0,0,1-8.86,12.89,57.08,57.08,0,0,1-13,9.41,66.19,66.19,0,0,1-15.44,5.85,67.62,67.62,0,0,1-16.08,2A55.3,55.3,0,0,1,324,549.88a66.24,66.24,0,0,1-19.83-15.26,70.87,70.87,0,0,1-13-21.38A66.66,66.66,0,0,1,286.51,488.84Z"/><path class="cls-1" d="M461.59,556.46a52.57,52.57,0,0,1-21-4,47.41,47.41,0,0,1-15.81-10.87,48.19,48.19,0,0,1-10-15.81,53.29,53.29,0,0,1,0-37.83,48.19,48.19,0,0,1,10-15.81,47.29,47.29,0,0,1,15.81-10.88,52.57,52.57,0,0,1,21-4,51.9,51.9,0,0,1,20.92,4,47.31,47.31,0,0,1,15.72,10.88,48,48,0,0,1,10,15.81,53.29,53.29,0,0,1,0,37.83,48.62,48.62,0,0,1-9.87,15.81,46.29,46.29,0,0,1-15.71,10.87A52.64,52.64,0,0,1,461.59,556.46Zm-25-49.53a33.38,33.38,0,0,0,1.92,11.61,28.32,28.32,0,0,0,5.3,9.05,23.55,23.55,0,0,0,8,5.93,24.14,24.14,0,0,0,19.74,0,23.75,23.75,0,0,0,8-5.93,28.3,28.3,0,0,0,5.3-9.14,34.11,34.11,0,0,0,1.92-11.7,33.54,33.54,0,0,0-1.92-11.51,28.19,28.19,0,0,0-5.3-9.14,23.78,23.78,0,0,0-8-5.94,23.37,23.37,0,0,0-9.87-2.1,22.5,22.5,0,0,0-9.87,2.19,24.66,24.66,0,0,0-8,6,28.12,28.12,0,0,0-5.3,9.14A33.54,33.54,0,0,0,436.55,506.93Z"/><path class="cls-1" d="M617.11,554.63H592.62V500.9q0-11.5-4-16.81a13.22,13.22,0,0,0-11.15-5.3,21.09,21.09,0,0,0-7.49,1.46,28,28,0,0,0-7.22,4.11,33.67,33.67,0,0,0-6.12,6.31,24.89,24.89,0,0,0-4,8v55.92H528.11V458.87h22.11v17.72a36.3,36.3,0,0,1,15.35-14.25,49.28,49.28,0,0,1,22.67-5.12q8.94,0,14.62,3.29a23.79,23.79,0,0,1,8.77,8.59,36,36,0,0,1,4.29,12.07,78.14,78.14,0,0,1,1.19,13.7Z"/><path class="cls-1" d="M674.68,556.46a74,74,0,0,1-23.57-3.84,57.49,57.49,0,0,1-19.74-11l9.14-15.36a78.22,78.22,0,0,0,17.08,9.42,45.86,45.86,0,0,0,16.54,3.2q7.3,0,11.52-2.74a8.84,8.84,0,0,0,4.2-7.86q0-5.12-4.94-7.5a106.55,106.55,0,0,0-16.08-5.48q-9.32-2.57-15.9-4.94a40.79,40.79,0,0,1-10.6-5.39,18.45,18.45,0,0,1-5.85-6.94,22.16,22.16,0,0,1-1.82-9.41,29.77,29.77,0,0,1,2.83-13.16,28.68,28.68,0,0,1,8-10,36.77,36.77,0,0,1,12-6.31,48.69,48.69,0,0,1,14.9-2.19,64.11,64.11,0,0,1,20.19,3.11,49.24,49.24,0,0,1,17.27,10.05L699.9,485a57.54,57.54,0,0,0-14.16-8,38.87,38.87,0,0,0-13.62-2.56A19.8,19.8,0,0,0,661.7,477q-4.2,2.57-4.2,8.22a8,8,0,0,0,1,4.21,8.7,8.7,0,0,0,3.19,2.92,31,31,0,0,0,5.76,2.47c2.38.79,5.33,1.62,8.87,2.47q9.85,2.55,16.9,5.11a46.16,46.16,0,0,1,11.51,5.85,20.78,20.78,0,0,1,6.58,7.59,23.28,23.28,0,0,1,2.11,10.32q0,14.08-10.42,22.21T674.68,556.46Z"/><path class="cls-1" d="M773.55,556.46a52.6,52.6,0,0,1-21-4,47.27,47.27,0,0,1-15.8-10.87,47.86,47.86,0,0,1-10-15.81,53.14,53.14,0,0,1,0-37.83,47.86,47.86,0,0,1,10-15.81,47.15,47.15,0,0,1,15.8-10.88,52.6,52.6,0,0,1,21-4,52,52,0,0,1,20.93,4,47.37,47.37,0,0,1,15.71,10.88,48,48,0,0,1,10,15.81,53.29,53.29,0,0,1,0,37.83,49,49,0,0,1-9.87,15.81,46.43,46.43,0,0,1-15.72,10.87A52.57,52.57,0,0,1,773.55,556.46Zm-25-49.53a33.38,33.38,0,0,0,1.92,11.61,28.5,28.5,0,0,0,5.3,9.05,23.75,23.75,0,0,0,7.95,5.93,24.14,24.14,0,0,0,19.74,0,23.75,23.75,0,0,0,8-5.93,28.3,28.3,0,0,0,5.3-9.14,34.11,34.11,0,0,0,1.92-11.7,33.54,33.54,0,0,0-1.92-11.51,28.19,28.19,0,0,0-5.3-9.14,23.78,23.78,0,0,0-8-5.94,23.37,23.37,0,0,0-9.87-2.1,22.56,22.56,0,0,0-9.87,2.19,24.88,24.88,0,0,0-7.95,6,28.3,28.3,0,0,0-5.3,9.14A33.54,33.54,0,0,0,748.51,506.93Z"/><path class="cls-1" d="M839.89,421.22h24.49V523.93c0,3.53.85,6.28,2.56,8.22a9.18,9.18,0,0,0,7.31,2.93,18.66,18.66,0,0,0,4.84-.73,33.31,33.31,0,0,0,5-1.83l3.29,18.64a47.85,47.85,0,0,1-11.52,3.66A62.88,62.88,0,0,1,864,556.09q-11.5,0-17.81-6.12t-6.31-17.45Z"/><path class="cls-1" d="M942.42,556.46a53.13,53.13,0,0,1-20.84-3.93,47,47,0,0,1-26-26.41A50.33,50.33,0,0,1,892,507.3,53.23,53.23,0,0,1,895.45,488a46.94,46.94,0,0,1,10-15.9,48,48,0,0,1,16-10.88,53.22,53.22,0,0,1,21.11-4,51.87,51.87,0,0,1,20.92,4A48,48,0,0,1,979.24,472a45.83,45.83,0,0,1,9.87,15.71,52.47,52.47,0,0,1,3.38,18.65q0,2.37-.09,4.56a18.06,18.06,0,0,1-.46,3.66h-74a28.29,28.29,0,0,0,2.74,10,24.65,24.65,0,0,0,13.52,12.25,25.94,25.94,0,0,0,9.14,1.64,28.32,28.32,0,0,0,13.8-3.56,18.89,18.89,0,0,0,8.86-9.42l21,5.85a42.7,42.7,0,0,1-16.91,18Q958.51,556.47,942.42,556.46Zm24.85-57.75q-.91-10.79-7.95-17.27a25,25,0,0,0-33.9.09A25.15,25.15,0,0,0,920,489a26.43,26.43,0,0,0-2.47,9.69Z"/></svg>