<svg xmlns="http://www.w3.org/2000/svg" viewBox="0 0 216 216" xmlns:v="https://vecta.io/nano"><path d="M166.93 70.19a1.76 1.76 0 0 0-1 .7c-2 4.72-5.61 6.46-10.57 5-.83-.25-1 .26-1.37.7l-12.34 16.26c-1.57 2.06-2.61 2.25-4.86.88l-7.91-4.84-8.42 12.68h56.89l-1.55-6.82h-6.75c-1.87 0-3-1-3-2.56s1.11-2.72 3-2.72h5.56l-4.41-19.3h-2.26a2.72 2.72 0 0 0-1.01.02zm-8.52.97a2.73 2.73 0 1 0-2.82-2.72 2.76 2.76 0 0 0 2.82 2.72zm-53.82 41.26h36.63l.25 1.34a6 6 0 0 0 5.86 5.15h8.11a5.92 5.92 0 0 0 5.82-5.17c.13-1.23.63-1.36 1.64-1.36h9.48l3.52-4.38a7.92 7.92 0 0 0 .75-1.16h-60.22c-2.73 0-3.54-.82-3.54-3.59V58.81c0-2 1-3.19 2.7-3.16a2.49 2.49 0 0 1 2.53 2.27 10.4 10.4 0 0 1 0 1.37v35.54l.31.12 2.47-3.69 4.49-6.76c1.38-2.09 2.57-2.36 4.68-1.07l8.17 5 .8-1 11.27-14.78a1.86 1.86 0 0 0 .32-1.92A8 8 0 0 1 165 64a1.9 1.9 0 0 0 1.83.93H169l-3.47-15.18h-60.94zm6.41 7.69h-4.48-4.48a2.75 2.75 0 1 0 0 5.48q4.47 0 9 0a2.75 2.75 0 1 0 0-5.48z" fill="#1b3765"/><path d="M89 125v-6.12c0-4 2.49-6.47 6.45-6.51h2.87c.63 0 .94-.21.89-.87v-1.12q0-32 0-64c0-2.42.69-4.52 2.86-5.7a8.25 8.25 0 0 1 3.78-.93q24.53 0 49 0l-43.58-21a7.55 7.55 0 0 0-6.56 0L55 42.67a7.57 7.57 0 0 0-4.09 5.13l-12.26 53.79A7.53 7.53 0 0 0 40.1 108l34.41 43.14a7.53 7.53 0 0 0 5.9 2.85h55.18a7.57 7.57 0 0 0 5.91-2.85l15.06-18.89H96.15c-4.87-.02-7.15-2.33-7.15-7.25z" fill="#2272b9"/><g fill="#fff"><path d="M162.9 112.38c-1 0-1.51.13-1.64 1.36a5.92 5.92 0 0 1-5.82 5.17h-8.11a6 6 0 0 1-5.86-5.15l-.25-1.34h-36.63V49.73h60.93l-.44-1.93a7.57 7.57 0 0 0-4.08-5.13l-6.13-3q-24.51 0-49 0a8.25 8.25 0 0 0-3.78.93c-2.17 1.18-2.86 3.28-2.86 5.7q0 32 0 64v1.12c0 .66-.26.89-.89.87h-2.87c-4 0-6.43 2.52-6.45 6.51v6.12c0 4.89 2.29 7.2 7.16 7.2h60.41l15.82-19.84zM111 125.59q-4.48 0-9 0a2.75 2.75 0 1 1 0-5.48h4.48 4.48a2.75 2.75 0 1 1 0 5.48zm66.36-24h0-56.9l8.42-12.68 7.91 4.84c2.25 1.37 3.29 1.18 4.86-.88L154 76.56c.34-.44.54-1 1.37-.7 5 1.49 8.54-.25 10.57-5a1.76 1.76 0 0 1 1-.7 2.72 2.72 0 0 1 1 0h2.26l-1.2-5.25h-2.21A1.9 1.9 0 0 1 165 64a8 8 0 0 0-14.28 6.78 1.86 1.86 0 0 1-.32 1.92l-11.27 14.78c-.24.32-.52.62-.8 1l-8.17-5c-2.11-1.29-3.3-1-4.68 1.07l-4.49 6.76-2.52 3.69-.31-.12V59.29a10.4 10.4 0 0 0 0-1.37 2.49 2.49 0 0 0-2.53-2.27c-1.69 0-2.7 1.13-2.7 3.16v44.42c0 2.77.81 3.59 3.54 3.59h60.22a7.57 7.57 0 0 0 .67-5.23zm-19.08-35.88a2.73 2.73 0 1 1-2.69 2.73 2.76 2.76 0 0 1 2.69-2.73zM166 92.18c0 1.6 1.16 2.55 3 2.56h6.75l-1.21-5.29H169c-1.87.01-3 1.09-3 2.73zm-34.5-19.07h-6.3c-1.34 0-2.14-.69-2.16-1.82s.78-1.94 2.14-2q6.34 0 12.69 0a1.89 1.89 0 1 1 0 3.76l-6.37.06zm2.81-6.76h-3.55a1.89 1.89 0 1 1 0-3.77q3.56 0 7.11 0a1.88 1.88 0 0 1 2.13 1.9 1.85 1.85 0 0 1-2 1.86l-3.69.01zM75.76 78.67l-2.08-.72-1.87 1.17-.25 2.19 1.56 1.56 2.2-.24 1.17-1.87-.73-2.09zm-17.51-6.13l.75 2.24 2.22.8 2.01-1.23.29-2.34-1.64-1.69-2.35.23-1.28 1.99zm11.61 29.78l.74 1.72 1.82.5 1.51-1.11.08-1.88-1.42-1.23-1.84.34-.89 1.66zm-5.17-17.99L66 85.49a.43.43 0 0 0 .36.11l1.64-.27a.42.42 0 0 0 .31-.21l.85-1.49a.4.4 0 0 0 0-.37l-.63-1.59a.43.43 0 0 0-.28-.26l-1.64-.5a.41.41 0 0 0-.37.06l-1.41 1a.42.42 0 0 0-.19.33l-.09 1.7a.43.43 0 0 0 .14.33zm.36 12.12l1.48 1.83 2.36-.01 1.46-1.86-.54-2.3-2.13-1.01-2.12 1.04-.51 2.31z"/><path d="M85.94 99.61l1.4 1.11 1.74-.41.76-1.62-.79-1.6-1.74-.38-1.39 1.12.02 1.78z" opacity=".4"/><path d="M80.96 83.45l1.4 1.1 1.74-.41.76-1.61-.78-1.6-1.75-.38-1.38 1.12.01 1.78z"/><path d="M87.9 68.78l1.47 1.5 2.08-.21 1.14-1.76-.67-1.99-1.97-.71-1.79 1.09-.26 2.08z" opacity=".4"/><path d="M76.14 93.47l1.5 1.18 1.85-.44.81-1.72-.84-1.71-1.85-.4-1.48 1.19.01 1.9z"/><path d="M63.05 63.96l1.68 1.32 2.08-.49.91-1.93-.94-1.91-2.08-.46-1.66 1.34.01 2.13z" opacity=".9"/><path d="M65.94 77.47l2.05.59 1.74-1.22.13-2.13-1.58-1.43-2.1.35-1.04 1.86.8 1.98zm3.52 13.55l1.74.08 1.15-1.31-.3-1.72-1.54-.83-1.6.68-.47 1.68 1.02 1.42zm6.02-4.34l1.02 1.04 1.43-.15.79-1.21-.46-1.37-1.36-.5-1.24.76-.18 1.43zm4.95 20.19l.75 1.73 1.81.5 1.52-1.11.08-1.88-1.42-1.23-1.85.34-.89 1.65z"/><path d="M66.46 54.98l1.57 1.44 2.11-.32 1.06-1.85-.79-1.98-2.04-.62-1.76 1.2-.15 2.13z" opacity=".5"/><path d="M70.89 69.81l2.04.6 1.75-1.23.13-2.13-1.59-1.42-2.1.34-1.04 1.87.81 1.97z" opacity=".8"/><path d="M82.05 89.41l.62.64.89-.09.49-.75-.29-.85-.84-.31-.76.47-.11.89z"/><path d="M91.68 75.57l.63.64.89-.09.48-.75-.28-.85-.84-.3-.77.46-.11.89z" opacity=".7"/><path d="M60.26 67.44l.62.64.89-.09.49-.75-.29-.85-.84-.3-.76.47-.11.88zm15.33 38.95l.62.64.89-.09.49-.75-.29-.85-.84-.31-.76.47-.11.89zm-2.81-31.85l.63.64.89-.09.48-.75-.28-.85-.84-.3-.76.46-.12.89zm-21.37 43.91l.62.64.89-.09.49-.75-.29-.84-.84-.31-.76.47-.11.88zm21.04-22.12l.62.64.89-.09.48-.75-.28-.85-.84-.31-.76.47-.11.89zm6.99 3.4l1.13 1.16 1.61-.16.88-1.36-.51-1.53-1.53-.56-1.38.85-.2 1.6z"/><path d="M87.52 91.8l1.13 1.16 1.61-.16.88-1.36-.51-1.54-1.53-.55-1.38.85-.2 1.6z" opacity=".4"/><path d="M89.41 84.52l1.14 1.16 1.61-.16.87-1.36-.51-1.54-1.52-.55-1.39.85-.2 1.6z" opacity=".6"/><path d="M66.3 113.81l-.6 1.68.94 1.51 1.77.22 1.27-1.26-.19-1.77-1.51-.96-1.68.58zM64.05 104l-.96 1.86.86 1.91 2.03.52 1.67-1.27.05-2.09-1.6-1.35-2.05.42z"/><path d="M75.37 64.98l1.76-.27.89-1.55-.66-1.65-1.7-.53-1.47 1.01-.13 1.78 1.31 1.21z" opacity=".4"/><path d="M86.98 63.48l1.83-1.08.3-2.11-1.47-1.55-2.12.18-1.18 1.77.64 2.03 2 .76z" opacity=".6"/><path d="M79.03 74.51l1.45-.03.88-1.15-.35-1.4-1.32-.6-1.29.65-.29 1.42.92 1.11z" opacity=".4"/><path d="M79.3 57.44l.89-.02.54-.71-.21-.86-.82-.38-.8.41-.18.87.58.69z" opacity=".5"/><path d="M63.83 58.55l.89-.02.54-.71-.21-.87-.82-.37-.79.41-.18.87.57.69z" opacity=".6"/><path d="M84.25 70.44l.89-.02.55-.7-.22-.87-.81-.37-.8.4-.18.88.57.68z" opacity=".7"/><path d="M80.53 66.14l.89-.02.55-.71-.22-.87-.81-.37-.8.41-.18.87.57.69zm4.11 10.42l.86 1.69 1.87.38 1.45-1.22-.05-1.91-1.51-1.14-1.84.47-.78 1.73z" opacity=".6"/><path d="M69.66 108.17l-.71 2 1.1 1.79h0l2.09.25h0l1.5-1.48h0l-.22-2.1-1.78-1.13h0l-2 .68a0 0 0 0 0 .02-.01zm-9.89 3.09l.08 2.13 1.71 1.26 2.06-.55.85-1.96-.99-1.88-2.1-.4-1.61 1.4zm-2.91 3.85l-.73 1.42.65 1.47 1.56.4 1.28-.97.04-1.61-1.23-1.03-1.57.32zm-4.37-50.35l1.74 1.6 2.33-.36 1.17-2.05-.87-2.2-2.26-.69-1.94 1.34-.17 2.36z"/></g><path d="M152.48 45.93a1.21 1.21 0 0 0 0-2.42 1.24 1.24 0 0 0-1.23 1.2 1.23 1.23 0 0 0 1.23 1.22zM19.72 181.1a16.72 16.72 0 0 1 1.07-5.87 16.19 16.19 0 0 1 3.13-5.23 15.83 15.83 0 0 1 5-3.7 15.57 15.57 0 0 1 6.76-1.42 14.76 14.76 0 0 1 7.75 2 12.59 12.59 0 0 1 4.9 5.12l-4.85 3.33a8.07 8.07 0 0 0-1.55-2.3 7.64 7.64 0 0 0-2-1.49 9.14 9.14 0 0 0-2.19-.8 10.25 10.25 0 0 0-2.24-.25 8.55 8.55 0 0 0-4.14 1 9.15 9.15 0 0 0-2.89 2.51 10.82 10.82 0 0 0-1.76 3.47 13.1 13.1 0 0 0-.6 3.87 12.47 12.47 0 0 0 .69 4.13 11 11 0 0 0 1.94 3.5 9.73 9.73 0 0 0 3 2.42 8.24 8.24 0 0 0 3.86.92 9.88 9.88 0 0 0 2.29-.28 8.53 8.53 0 0 0 2.26-.87 8.21 8.21 0 0 0 2-1.53 6.94 6.94 0 0 0 1.46-2.26l5.17 3a9.78 9.78 0 0 1-2.22 3.22 14.16 14.16 0 0 1-3.25 2.36 16.28 16.28 0 0 1-3.86 1.46 16.63 16.63 0 0 1-4 .5 13.71 13.71 0 0 1-6.35-1.46 16.38 16.38 0 0 1-5-3.82 17.63 17.63 0 0 1-3.25-5.34 16.65 16.65 0 0 1-1.13-6.19zM63.5 198a13.11 13.11 0 0 1-5.25-1 11.79 11.79 0 0 1-4-2.72 12 12 0 0 1-2.49-3.95 13.29 13.29 0 0 1 0-9.46 12 12 0 0 1 2.49-4 11.79 11.79 0 0 1 4-2.72 14.26 14.26 0 0 1 10.49 0 11.78 11.78 0 0 1 6.42 6.68 13.29 13.29 0 0 1 0 9.46 12.15 12.15 0 0 1-2.47 3.95 11.66 11.66 0 0 1-3.93 2.76 13.16 13.16 0 0 1-5.26 1zm-6.26-12.39a8.32 8.32 0 0 0 .48 2.9 7 7 0 0 0 1.33 2.26 5.95 5.95 0 0 0 6.95 1.51 5.92 5.92 0 0 0 2-1.49 7.13 7.13 0 0 0 1.33-2.28 8.54 8.54 0 0 0 .48-2.93 8.45 8.45 0 0 0-.48-2.88 7.13 7.13 0 0 0-1.33-2.28 5.92 5.92 0 0 0-2-1.49 5.82 5.82 0 0 0-2.47-.52A5.54 5.54 0 0 0 61 179a6 6 0 0 0-2 1.5 7 7 0 0 0-1.33 2.29 8.37 8.37 0 0 0-.43 2.84zm45.16 11.95h-6.12v-13.44a7 7 0 0 0-1-4.2 3.29 3.29 0 0 0-2.79-1.33 5.1 5.1 0 0 0-1.87.37 6.94 6.94 0 0 0-1.81 1 8.84 8.84 0 0 0-1.53 1.58 6.11 6.11 0 0 0-1 2v14h-6.14v-23.93h5.53V178a9 9 0 0 1 3.84-3.56 12.26 12.26 0 0 1 5.67-1.28 7.24 7.24 0 0 1 3.66.82 6 6 0 0 1 2.19 2.15 8.76 8.76 0 0 1 1.07 3 19.61 19.61 0 0 1 .3 3.43zm14.4.44a18.55 18.55 0 0 1-5.9-1 14.33 14.33 0 0 1-4.93-2.75l2.28-3.84a19.49 19.49 0 0 0 4.27 2.36 11.56 11.56 0 0 0 4.14.8 5.2 5.2 0 0 0 2.88-.69 2.2 2.2 0 0 0 1-2 2 2 0 0 0-1.23-1.88 27.85 27.85 0 0 0-4-1.37l-4-1.23a10.35 10.35 0 0 1-2.65-1.35 4.52 4.52 0 0 1-1.46-1.74 5.44 5.44 0 0 1-.46-2.35 7.33 7.33 0 0 1 .71-3.29 7 7 0 0 1 2-2.49 9 9 0 0 1 3-1.58 12 12 0 0 1 3.72-.55 16 16 0 0 1 5.06.78 12.34 12.34 0 0 1 4.31 2.51l-2.46 3.7a14.51 14.51 0 0 0-3.55-2 9.78 9.78 0 0 0-3.4-.64 5 5 0 0 0-2.61.64 2.24 2.24 0 0 0-1 2.06 2 2 0 0 0 .25 1.05 2.2 2.2 0 0 0 .8.73 7.73 7.73 0 0 0 1.44.62l2.22.62a43.58 43.58 0 0 1 4.23 1.28 11.36 11.36 0 0 1 2.88 1.46 5.24 5.24 0 0 1 1.64 1.9 5.79 5.79 0 0 1 .53 2.58 6.64 6.64 0 0 1-2.61 5.55 11.17 11.17 0 0 1-7.1 2.11zm24.73 0a13.16 13.16 0 0 1-5.26-1 11.85 11.85 0 0 1-4-2.72 11.72 11.72 0 0 1-2.49-3.95 13.29 13.29 0 0 1 0-9.46 11.66 11.66 0 0 1 2.49-4 11.85 11.85 0 0 1 4-2.72 13.16 13.16 0 0 1 5.26-1 13 13 0 0 1 5.23 1 11.78 11.78 0 0 1 6.42 6.68 13.29 13.29 0 0 1 0 9.46 12.15 12.15 0 0 1-2.47 3.95 11.47 11.47 0 0 1-3.93 2.72 13.11 13.11 0 0 1-5.25 1.04zm-6.27-12.39a8.1 8.1 0 0 0 .49 2.9 6.94 6.94 0 0 0 1.32 2.26 5.92 5.92 0 0 0 2 1.49 5.91 5.91 0 0 0 6.92-1.49 7 7 0 0 0 1.33-2.28 8.54 8.54 0 0 0 .48-2.93 8.45 8.45 0 0 0-.48-2.88 7 7 0 0 0-1.33-2.28 5.8 5.8 0 0 0-4.45-2 5.55 5.55 0 0 0-2.47.55 6.08 6.08 0 0 0-2 1.5 7 7 0 0 0-1.32 2.29 8.14 8.14 0 0 0-.49 2.89zm22.86-21.42h6.12v25.69a3.08 3.08 0 0 0 .64 2.06 2.34 2.34 0 0 0 1.83.73 4.61 4.61 0 0 0 1.21-.18 9.89 9.89 0 0 0 1.26-.46l.82 4.66a11.47 11.47 0 0 1-2.88.91 15.07 15.07 0 0 1-3 .32 6.08 6.08 0 0 1-4.45-1.53 5.76 5.76 0 0 1-1.58-4.36zM183.76 198a13.19 13.19 0 0 1-5.21-1 11.68 11.68 0 0 1-6.51-6.6 12.48 12.48 0 0 1-.89-4.71 13.29 13.29 0 0 1 .86-4.82 11.73 11.73 0 0 1 2.52-4 12 12 0 0 1 4-2.72 13.33 13.33 0 0 1 5.28-1 13 13 0 0 1 5.23 1 12 12 0 0 1 3.93 2.7 11.49 11.49 0 0 1 2.47 3.93 13.16 13.16 0 0 1 .84 4.66v1.14a4.37 4.37 0 0 1-.11.92h-18.53a7.19 7.19 0 0 0 .68 2.51 6.34 6.34 0 0 0 1.42 1.88 6.25 6.25 0 0 0 2 1.19 6.58 6.58 0 0 0 2.29.41 7.09 7.09 0 0 0 3.45-.89 4.76 4.76 0 0 0 2.22-2.36l5.25 1.46a10.72 10.72 0 0 1-4.22 4.51 13.17 13.17 0 0 1-6.97 1.79zm6.24-14.43a6.41 6.41 0 0 0-2-4.32 6.1 6.1 0 0 0-4.28-1.62 6.23 6.23 0 0 0-2.3.43 6 6 0 0 0-1.9 1.22 6.15 6.15 0 0 0-1.35 1.87 6.6 6.6 0 0 0-.62 2.42z" fill="#1b3765"/></svg>