<svg id="Layer_1" data-name="Layer 1" xmlns="http://www.w3.org/2000/svg" viewBox="0 0 171.3 39"><defs><style>.cls-1{fill:#fff;}.cls-2,.cls-4,.cls-5,.cls-6,.cls-7,.cls-8,.cls-9{fill:#1971bd;}.cls-3{fill:#003466;}.cls-4{opacity:0.4;}.cls-5{opacity:0.9;}.cls-6{opacity:0.5;}.cls-7{opacity:0.8;}.cls-8{opacity:0.7;}.cls-9{opacity:0.6;}</style></defs><title>Console_white</title><path class="cls-1" d="M36.53,15.05a.51.51,0,0,0-.27.2,2.25,2.25,0,0,1-3,1.41c-.23-.07-.29.08-.39.2l-3.51,4.62c-.44.59-.74.64-1.38.25l-2.24-1.37L23.35,24H39.49L39,22H37.13c-.53,0-.85-.28-.86-.73s.32-.77.86-.77H38.7l-1.25-5.47h-.64A.88.88,0,0,0,36.53,15.05Z"/><path class="cls-1" d="M34.12,15.33a.78.78,0,1,0-.81-.77A.79.79,0,0,0,34.12,15.33Z"/><path class="cls-1" d="M18.85,27H29.24c0,.15.05.27.07.38A1.71,1.71,0,0,0,31,28.87c.77,0,1.54,0,2.3,0a1.68,1.68,0,0,0,1.65-1.47c0-.35.18-.38.47-.38h2.69l1-1.25a1.46,1.46,0,0,0,.22-.33H22.21c-.78,0-1-.23-1-1,0-4.2,0-8.39,0-12.59,0-.58.28-.91.76-.9a.72.72,0,0,1,.72.64c0,.13,0,.26,0,.39V22l.09,0,.7-1,1.27-1.92c.39-.59.73-.67,1.33-.3l2.32,1.42.22-.27,3.2-4.2a.53.53,0,0,0,.09-.54,2.26,2.26,0,0,1,4-1.92.54.54,0,0,0,.52.26h.62l-1-4.31H18.85Z"/><path class="cls-1" d="M20.66,29.21c-.42,0-.84,0-1.27,0s-.84,0-1.27,0a.78.78,0,1,0,0,1.55h2.54a.76.76,0,0,0,.82-.77A.78.78,0,0,0,20.66,29.21Z"/><path class="cls-1" d="M14.43,30.61c0-.58,0-1.16,0-1.74A1.72,1.72,0,0,1,16.26,27h.81c.18,0,.27-.05.25-.24V8.31a1.66,1.66,0,0,1,.81-1.62,2.33,2.33,0,0,1,1.07-.27H33.11L20.75.46a2.16,2.16,0,0,0-1.86,0L4.79,7.25A2.15,2.15,0,0,0,3.63,8.7L.15,24a2.18,2.18,0,0,0,.41,1.81L10.32,38a2.14,2.14,0,0,0,1.68.8H27.64a2.15,2.15,0,0,0,1.68-.8l4.27-5.36H16.46A1.78,1.78,0,0,1,14.43,30.61Z"/><path class="cls-2" d="M35.39,27c-.29,0-.43,0-.47.38a1.68,1.68,0,0,1-1.65,1.47c-.76,0-1.53,0-2.3,0a1.71,1.71,0,0,1-1.66-1.46c0-.11,0-.23-.07-.38H18.85V9.25H36.13L36,8.7a2.18,2.18,0,0,0-1.16-1.45l-1.74-.84H19.2a2.33,2.33,0,0,0-1.07.27,1.66,1.66,0,0,0-.81,1.62V26.78c0,.19-.07.25-.25.24h-.81a1.72,1.72,0,0,0-1.83,1.85c0,.58,0,1.16,0,1.74a1.78,1.78,0,0,0,2,2H33.59L38.08,27ZM20.67,30.76H18.13a.78.78,0,1,1,0-1.55c.43,0,.85,0,1.27,0s.85,0,1.27,0a.78.78,0,0,1,.83.78A.76.76,0,0,1,20.67,30.76Z"/><path class="cls-3" d="M39.49,24H23.35l2.39-3.59L28,21.73c.64.39.94.34,1.38-.25l3.51-4.62c.1-.12.16-.27.39-.2a2.25,2.25,0,0,0,3-1.41.51.51,0,0,1,.27-.2.88.88,0,0,1,.28,0h.64l-.34-1.49h-.62A.54.54,0,0,1,36,13.3a2.26,2.26,0,0,0-4,1.92.53.53,0,0,1-.09.54L28.63,20l-.22.27-2.32-1.42c-.6-.37-.94-.29-1.33.3L23.49,21l-.7,1-.09,0V12c0-.13,0-.26,0-.39a.72.72,0,0,0-.72-.64c-.48,0-.76.32-.76.9,0,4.2,0,8.39,0,12.59,0,.79.22,1,1,1H39.29A2.16,2.16,0,0,0,39.49,24ZM34.08,13.78a.78.78,0,1,1-.77.78A.79.79,0,0,1,34.08,13.78Z"/><path class="cls-3" d="M36.27,21.29c0,.45.33.72.86.73H39l-.34-1.5H37.13C36.59,20.52,36.26,20.82,36.27,21.29Z"/><path class="cls-3" d="M26.48,15.88H24.7c-.38,0-.61-.19-.62-.51a.55.55,0,0,1,.61-.56h3.6a.54.54,0,0,1,.6.54.53.53,0,0,1-.6.53Z"/><path class="cls-3" d="M27.28,14h-1a.52.52,0,0,1-.58-.52.55.55,0,0,1,.59-.55h2a.54.54,0,0,1,.59.55.52.52,0,0,1-.58.52Z"/><polygon class="cls-2" points="10.68 17.46 10.09 17.25 9.56 17.59 9.48 18.21 9.93 18.65 10.55 18.58 10.88 18.05 10.68 17.46"/><polygon class="cls-2" points="5.71 15.72 5.92 16.35 6.55 16.58 7.12 16.23 7.21 15.57 6.74 15.09 6.07 15.16 5.71 15.72"/><polygon class="cls-2" points="9 24.16 9.21 24.66 9.73 24.8 10.16 24.48 10.18 23.95 9.78 23.6 9.25 23.7 9 24.16"/><path class="cls-2" d="M7.54,19.06l.35.33a.11.11,0,0,0,.11,0l.47-.07a.15.15,0,0,0,.09-.06l.24-.42a.11.11,0,0,0,0-.11l-.18-.45a.1.1,0,0,0-.08-.07l-.46-.15a.14.14,0,0,0-.11,0l-.4.28a.11.11,0,0,0,0,.09l0,.48A.1.1,0,0,0,7.54,19.06Z"/><polygon class="cls-2" points="7.64 22.5 8.06 23.02 8.73 23.02 9.14 22.49 8.99 21.84 8.38 21.55 7.78 21.85 7.64 22.5"/><polygon class="cls-4" points="13.56 23.4 13.96 23.71 14.45 23.59 14.67 23.14 14.45 22.68 13.95 22.57 13.56 22.89 13.56 23.4"/><polygon class="cls-2" points="12.15 18.82 12.55 19.13 13.04 19.01 13.26 18.55 13.03 18.1 12.54 17.99 12.15 18.31 12.15 18.82"/><polygon class="cls-4" points="14.12 14.65 14.54 15.08 15.13 15.02 15.45 14.52 15.26 13.96 14.7 13.76 14.19 14.06 14.12 14.65"/><polygon class="cls-2" points="10.79 21.66 11.21 21.99 11.73 21.87 11.96 21.38 11.73 20.89 11.2 20.78 10.78 21.12 10.79 21.66"/><polygon class="cls-5" points="7.07 13.29 7.55 13.66 8.14 13.52 8.39 12.98 8.13 12.43 7.54 12.3 7.07 12.68 7.07 13.29"/><polygon class="cls-2" points="7.89 17.12 8.47 17.29 8.97 16.94 9 16.34 8.55 15.93 7.96 16.03 7.66 16.56 7.89 17.12"/><polygon class="cls-2" points="8.89 20.96 9.38 20.98 9.71 20.61 9.62 20.13 9.19 19.89 8.73 20.08 8.6 20.56 8.89 20.96"/><polygon class="cls-2" points="10.6 19.73 10.88 20.02 11.29 19.98 11.52 19.64 11.38 19.25 11 19.11 10.65 19.32 10.6 19.73"/><polygon class="cls-2" points="12 25.46 12.21 25.95 12.73 26.09 13.16 25.77 13.18 25.24 12.78 24.89 12.25 24.99 12 25.46"/><polygon class="cls-6" points="8.04 10.74 8.48 11.15 9.08 11.06 9.38 10.53 9.16 9.97 8.58 9.79 8.08 10.14 8.04 10.74"/><polygon class="cls-7" points="9.29 14.95 9.87 15.12 10.37 14.77 10.4 14.16 9.96 13.76 9.36 13.86 9.06 14.39 9.29 14.95"/><polygon class="cls-2" points="12.46 20.5 12.64 20.68 12.89 20.66 13.03 20.45 12.95 20.21 12.71 20.12 12.49 20.25 12.46 20.5"/><polygon class="cls-8" points="15.19 16.58 15.37 16.76 15.62 16.74 15.76 16.52 15.68 16.28 15.44 16.2 15.22 16.33 15.19 16.58"/><polygon class="cls-2" points="6.28 14.28 6.46 14.46 6.71 14.43 6.85 14.22 6.77 13.98 6.53 13.89 6.31 14.02 6.28 14.28"/><polygon class="cls-2" points="10.63 25.32 10.8 25.5 11.06 25.48 11.19 25.26 11.11 25.02 10.88 24.93 10.66 25.07 10.63 25.32"/><polygon class="cls-2" points="9.83 16.29 10.01 16.47 10.26 16.44 10.4 16.23 10.32 15.99 10.08 15.9 9.86 16.04 9.83 16.29"/><polygon class="cls-2" points="3.77 28.74 3.95 28.92 4.2 28.9 4.34 28.68 4.26 28.44 4.02 28.36 3.8 28.49 3.77 28.74"/><polygon class="cls-2" points="9.74 22.47 9.91 22.65 10.16 22.62 10.3 22.41 10.22 22.17 9.98 22.08 9.77 22.21 9.74 22.47"/><polygon class="cls-2" points="11.72 23.43 12.04 23.76 12.5 23.71 12.75 23.33 12.6 22.89 12.17 22.74 11.78 22.98 11.72 23.43"/><polygon class="cls-4" points="14.01 21.18 14.33 21.51 14.79 21.47 15.04 21.08 14.89 20.64 14.46 20.49 14.07 20.73 14.01 21.18"/><polygon class="cls-9" points="14.55 19.12 14.87 19.45 15.33 19.4 15.57 19.02 15.43 18.58 15 18.42 14.61 18.66 14.55 19.12"/><polygon class="cls-2" points="7.99 27.42 7.82 27.9 8.09 28.33 8.59 28.39 8.95 28.04 8.9 27.53 8.47 27.26 7.99 27.42"/><polygon class="cls-2" points="7.35 24.64 7.08 25.17 7.33 25.71 7.9 25.86 8.38 25.5 8.39 24.91 7.94 24.52 7.35 24.64"/><polygon class="cls-4" points="10.56 13.58 11.06 13.5 11.32 13.06 11.13 12.59 10.65 12.44 10.23 12.73 10.19 13.23 10.56 13.58"/><polygon class="cls-9" points="13.86 13.15 14.38 12.85 14.46 12.25 14.05 11.81 13.44 11.86 13.11 12.36 13.29 12.94 13.86 13.15"/><polygon class="cls-4" points="11.6 16.28 12.01 16.27 12.26 15.95 12.16 15.55 11.79 15.38 11.43 15.56 11.34 15.96 11.6 16.28"/><polygon class="cls-6" points="11.68 11.44 11.93 11.43 12.09 11.23 12.02 10.99 11.79 10.88 11.57 11 11.52 11.24 11.68 11.44"/><polygon class="cls-9" points="7.29 11.75 7.54 11.75 7.7 11.55 7.64 11.3 7.41 11.2 7.18 11.31 7.13 11.56 7.29 11.75"/><polygon class="cls-8" points="13.08 15.13 13.34 15.12 13.49 14.92 13.43 14.67 13.2 14.57 12.97 14.68 12.92 14.93 13.08 15.13"/><polygon class="cls-9" points="12.03 13.9 12.28 13.9 12.44 13.7 12.37 13.45 12.14 13.35 11.92 13.46 11.87 13.71 12.03 13.9"/><polygon class="cls-9" points="13.19 16.86 13.44 17.34 13.97 17.45 14.38 17.1 14.37 16.56 13.94 16.24 13.41 16.37 13.19 16.86"/><polygon class="cls-2" points="8.95 25.82 8.75 26.39 8.75 26.39 9.06 26.9 9.07 26.9 9.66 26.98 9.67 26.97 10.09 26.55 10.09 26.55 10.03 25.95 10.03 25.95 9.52 25.63 9.52 25.63 8.95 25.82 8.95 25.82"/><polygon class="cls-2" points="6.14 26.7 6.16 27.3 6.65 27.66 7.23 27.51 7.47 26.95 7.19 26.42 6.6 26.31 6.14 26.7"/><polygon class="cls-2" points="5.32 27.79 5.11 28.2 5.29 28.61 5.74 28.73 6.1 28.45 6.11 28 5.76 27.7 5.32 27.79"/><polygon class="cls-2" points="4.08 13.51 4.57 13.97 5.23 13.87 5.56 13.28 5.32 12.66 4.68 12.47 4.13 12.85 4.08 13.51"/><path class="cls-1" d="M32.43,8.18a.36.36,0,0,0,.35-.35.34.34,0,0,0-.34-.34.35.35,0,0,0-.35.34A.37.37,0,0,0,32.43,8.18Z"/><path class="cls-1" d="M46.49,20.36a11.67,11.67,0,0,1,.75-4.08,11,11,0,0,1,5.67-6.17,10.71,10.71,0,0,1,4.7-1A10.25,10.25,0,0,1,63,10.49a8.74,8.74,0,0,1,3.38,3.56L63,16.36a5.49,5.49,0,0,0-1.08-1.6,5.25,5.25,0,0,0-1.36-1A6.63,6.63,0,0,0,59,13.17,7.68,7.68,0,0,0,57.48,13a5.83,5.83,0,0,0-2.87.67,6.23,6.23,0,0,0-2,1.73,7.6,7.6,0,0,0-1.22,2.41,9.28,9.28,0,0,0-.41,2.68,8.64,8.64,0,0,0,.48,2.87,7.19,7.19,0,0,0,1.35,2.43,6.86,6.86,0,0,0,2.09,1.69,5.78,5.78,0,0,0,2.68.63,6.89,6.89,0,0,0,1.59-.19,6.22,6.22,0,0,0,1.57-.6,5.82,5.82,0,0,0,1.38-1.07,4.64,4.64,0,0,0,1-1.57l3.59,2.07A6.86,6.86,0,0,1,65.15,29a9.68,9.68,0,0,1-2.26,1.64,12,12,0,0,1-2.68,1,11.82,11.82,0,0,1-2.79.34A9.61,9.61,0,0,1,53,31a11.52,11.52,0,0,1-3.44-2.65A12.17,12.17,0,0,1,47.3,24.6,11.57,11.57,0,0,1,46.49,20.36Z"/><path class="cls-1" d="M76.91,32.11a9.07,9.07,0,0,1-3.65-.7,8,8,0,0,1-2.75-1.89,8.23,8.23,0,0,1-1.73-2.74,9.29,9.29,0,0,1,0-6.57,8.14,8.14,0,0,1,4.48-4.64,9.84,9.84,0,0,1,7.29,0,8.55,8.55,0,0,1,2.73,1.89A8.44,8.44,0,0,1,85,20.21a9.29,9.29,0,0,1,0,6.57,8.54,8.54,0,0,1-1.72,2.74,7.85,7.85,0,0,1-2.73,1.89A9.07,9.07,0,0,1,76.91,32.11Zm-4.35-8.6a5.8,5.8,0,0,0,.33,2,5.13,5.13,0,0,0,.92,1.58,4.38,4.38,0,0,0,1.39,1,4.24,4.24,0,0,0,3.42,0,4.38,4.38,0,0,0,1.39-1,5.18,5.18,0,0,0,.92-1.59,6,6,0,0,0,.33-2,5.87,5.87,0,0,0-.33-2A5,5,0,0,0,80,19.89a4.1,4.1,0,0,0-1.39-1,4.09,4.09,0,0,0-3.42,0,4.6,4.6,0,0,0-1.39,1.05,5,5,0,0,0-.92,1.59A5.87,5.87,0,0,0,72.56,23.51Z"/><path class="cls-1" d="M103.93,31.79H99.67V22.46A4.91,4.91,0,0,0,99,19.54,2.32,2.32,0,0,0,97,18.62a3.61,3.61,0,0,0-1.3.25,4.67,4.67,0,0,0-1.26.72,5.78,5.78,0,0,0-1.06,1.09,4.38,4.38,0,0,0-.7,1.4v9.71H88.47V15.16h3.84v3.08A6.24,6.24,0,0,1,95,15.76a8.55,8.55,0,0,1,3.93-.89,5,5,0,0,1,2.54.57,4.08,4.08,0,0,1,1.53,1.5,6.25,6.25,0,0,1,.74,2.09,13.5,13.5,0,0,1,.21,2.38Z"/><path class="cls-1" d="M113.93,32.11a13,13,0,0,1-4.1-.66,10,10,0,0,1-3.42-1.91L108,26.87a13.85,13.85,0,0,0,3,1.64,7.94,7.94,0,0,0,2.87.55,3.59,3.59,0,0,0,2-.47,1.53,1.53,0,0,0,.73-1.37,1.36,1.36,0,0,0-.85-1.3,19.33,19.33,0,0,0-2.8-1c-1.08-.3-2-.58-2.76-.86a7,7,0,0,1-1.84-.94,3.2,3.2,0,0,1-1-1.2,3.9,3.9,0,0,1-.31-1.64,5.12,5.12,0,0,1,.49-2.28,5,5,0,0,1,1.38-1.73,6.46,6.46,0,0,1,2.08-1.1,8.58,8.58,0,0,1,2.59-.38,11.12,11.12,0,0,1,3.51.54,8.48,8.48,0,0,1,3,1.75l-1.72,2.57a10.06,10.06,0,0,0-2.46-1.4,6.61,6.61,0,0,0-2.36-.44,3.37,3.37,0,0,0-1.81.44,1.54,1.54,0,0,0-.73,1.43,1.34,1.34,0,0,0,.17.73,1.56,1.56,0,0,0,.56.51,5.13,5.13,0,0,0,1,.43c.41.13.92.28,1.54.43,1.14.29,2.12.59,2.93.88a8.09,8.09,0,0,1,2,1,3.67,3.67,0,0,1,1.15,1.32,4.08,4.08,0,0,1,.36,1.79,4.62,4.62,0,0,1-1.81,3.86A7.82,7.82,0,0,1,113.93,32.11Z"/><path class="cls-1" d="M131.11,32.11a9.08,9.08,0,0,1-3.66-.7,8.09,8.09,0,0,1-2.74-1.89A8.23,8.23,0,0,1,123,26.78a9.29,9.29,0,0,1,0-6.57,8.27,8.27,0,0,1,1.73-2.75,8.38,8.38,0,0,1,2.74-1.89,9.08,9.08,0,0,1,3.66-.7,8.94,8.94,0,0,1,3.63.7,8.19,8.19,0,0,1,4.46,4.64,9.15,9.15,0,0,1,0,6.57,8.34,8.34,0,0,1-1.71,2.74,7.85,7.85,0,0,1-2.73,1.89A9.07,9.07,0,0,1,131.11,32.11Zm-4.35-8.6a5.8,5.8,0,0,0,.33,2A4.94,4.94,0,0,0,128,27.1a4.23,4.23,0,0,0,1.38,1,4.27,4.27,0,0,0,3.43,0,4.23,4.23,0,0,0,1.38-1,5,5,0,0,0,.92-1.59,6,6,0,0,0,.34-2,5.87,5.87,0,0,0-.34-2,4.78,4.78,0,0,0-.92-1.59,4.1,4.1,0,0,0-4.81-1A4.44,4.44,0,0,0,128,19.92a4.78,4.78,0,0,0-.92,1.59A5.87,5.87,0,0,0,126.76,23.51Z"/><path class="cls-1" d="M142.63,8.62h4.26V26.46a2.09,2.09,0,0,0,.44,1.43,1.6,1.6,0,0,0,1.27.51,3.45,3.45,0,0,0,.84-.13,4.73,4.73,0,0,0,.87-.32l.58,3.24a8.24,8.24,0,0,1-2,.64,11.69,11.69,0,0,1-2.07.22A4.25,4.25,0,0,1,143.73,31a4,4,0,0,1-1.1-3Z"/><path class="cls-1" d="M160.44,32.11a9.34,9.34,0,0,1-3.62-.68,8.17,8.17,0,0,1-4.52-4.59,8.84,8.84,0,0,1-.62-3.27,9.34,9.34,0,0,1,.6-3.35A8.11,8.11,0,0,1,154,17.46a8.45,8.45,0,0,1,2.78-1.89,9.15,9.15,0,0,1,3.66-.7,9,9,0,0,1,3.64.7,8.44,8.44,0,0,1,2.73,1.87,8.08,8.08,0,0,1,1.71,2.73,8.94,8.94,0,0,1,.59,3.24c0,.28,0,.54,0,.8a4.46,4.46,0,0,1-.08.63H156.19a5,5,0,0,0,.47,1.75,4.44,4.44,0,0,0,1,1.3A4.45,4.45,0,0,0,160.6,29a4.93,4.93,0,0,0,2.4-.62,3.31,3.31,0,0,0,1.54-1.63l3.65,1a7.41,7.41,0,0,1-2.94,3.13A9.14,9.14,0,0,1,160.44,32.11Zm4.32-10a4.46,4.46,0,0,0-1.38-3,4.45,4.45,0,0,0-4.57-.83,4.13,4.13,0,0,0-1.32.84,4.52,4.52,0,0,0-.94,1.31,4.78,4.78,0,0,0-.43,1.68Z"/></svg>