<svg xmlns="http://www.w3.org/2000/svg" viewBox="0 0 511 511" xmlns:v="https://vecta.io/nano"><path d="M471.11 199.45c-1.32.53-3 1.4-3.51 2.57-7.43 17.29-20.54 23.63-38.69 18.2-3-.9-3.77.95-5 2.55q-22.68 29.79-45.31 59.6c-5.74 7.55-9.56 8.24-17.77 3.21l-29-17.71-30.8 46.39h208.2l-5.7-24.95q-12.33 0-24.66 0c-6.86 0-10.95-3.54-11.09-9.37-.15-6 4-10 11-10h20.34L483 199.36h-8.27c-1.21 0-2.56-.36-3.62.09zM439.94 203a10 10 0 1 0-10.35-10 10.16 10.16 0 0 0 10.35 10zM243 354h134l.89 4.92c1.87 10.84 10.53 18.62 21.45 18.84q14.83.3 29.67 0c10.82-.23 20.09-8.21 21.28-18.93.5-4.5 2.32-5 6-5q17.34 0 34.68 0l12.86-16.12a28 28 0 0 0 2.76-4.27H286.36c-10 0-13-3-13-13.12q0-81.27 0-162.53c0-7.42 3.68-11.67 9.87-11.56a9.18 9.18 0 0 1 9.27 8.32 44.11 44.11 0 0 1 .13 5v130l1.12.46 9.07-13.52q8.2-12.35 16.39-24.72c5.08-7.64 9.41-8.63 17.13-3.92l29.91 18.29c1-1.23 2-2.32 2.92-3.49l41.21-54.11a6.7 6.7 0 0 0 1.19-7 29.22 29.22 0 0 1 52.25-24.81c1.81 2.72 3.71 3.41 6.69 3.4h8.07l-12.64-55.53H243zm23.4 28.1c-5.46-.13-10.92 0-16.39 0s-10.93-.1-16.39 0c-6.33.15-10.69 4.36-10.66 10.07s4.41 9.92 10.73 10q16.38.15 32.78 0c6.32-.06 10.67-4.3 10.64-10s-4.35-9.93-10.71-10.07z" fill="#003466"/><path d="M185.93 400.09v-22.37c.1-14.6 9.11-23.69 23.61-23.83h10.5c2.31.07 3.42-.77 3.25-3.17-.1-1.36 0-2.74 0-4.11q0-117.1 0-234.21c0-8.88 2.5-16.53 10.45-20.87a30 30 0 0 1 13.84-3.4Q337.24 88 427 88L267.5 11.21a27.65 27.65 0 0 0-24 0L61.64 98.79a27.65 27.65 0 0 0-15 18.76L1.76 314.35a27.65 27.65 0 0 0 5.34 23.39L133 495.56A27.63 27.63 0 0 0 154.58 506h201.85a27.63 27.63 0 0 0 21.62-10.41l55.11-69.1h-221c-17.82-.03-26.22-8.49-26.23-26.4z" fill="#1971bd"/><g fill="#fff"><path d="M456.37 353.83c-3.71 0-5.53.46-6 5-1.19 10.72-10.46 18.7-21.28 18.93q-14.83.33-29.67 0c-10.92-.22-19.58-8-21.45-18.84l-.89-4.92H243V124.6h222.94l-1.61-7a27.65 27.65 0 0 0-15-18.76L427 88q-89.7 0-179.41.15a30 30 0 0 0-13.84 3.4c-7.95 4.34-10.46 12-10.45 20.87q.12 117.1 0 234.21c0 1.37-.09 2.75 0 4.11.17 2.4-.94 3.24-3.25 3.17-3.49-.1-7 0-10.5 0-14.5.14-23.51 9.23-23.61 23.83v22.37c0 17.91 8.41 26.37 26.2 26.37h221l57.89-72.6q-17.32-.03-34.66-.05zm-189.9 48.31q-16.4.15-32.78 0c-6.32-.05-10.7-4.26-10.73-10s4.33-9.92 10.66-10.07c5.46-.13 10.93 0 16.39 0h16.39c6.36.14 10.68 4.28 10.71 10s-4.32 10.01-10.64 10.07zm242.78-87.79v-.09H301.08l30.8-46.39 29 17.71c8.21 5 12 4.34 17.77-3.21q22.65-29.81 45.31-59.6c1.22-1.6 2-3.45 5-2.55 18.15 5.43 31.26-.91 38.69-18.2.51-1.17 2.19-2 3.51-2.57 1.06-.41 2.41-.09 3.62-.09H483l-4.38-19.19h-8.07c-3 0-4.88-.68-6.69-3.4a29.22 29.22 0 0 0-52.25 24.81 6.7 6.7 0 0 1-1.19 7l-41.21 54.11c-.89 1.17-1.89 2.26-2.92 3.49l-29.91-18.29c-7.72-4.71-12.05-3.72-17.13 3.92q-8.21 12.36-16.39 24.72l-9.07 13.52-1.12-.46v-130a44.11 44.11 0 0 0-.13-5 9.18 9.18 0 0 0-9.27-8.32c-6.19-.11-9.87 4.14-9.87 11.56q0 81.27 0 162.53c0 10.14 2.95 13.12 13 13.12h220.27a27.64 27.64 0 0 0 2.58-19.13zm-69.78-131.28a10 10 0 1 1-9.88 10 10.12 10.12 0 0 1 9.88-10zm28.31 96.86c.14 5.83 4.23 9.34 11.09 9.37q12.33 0 24.66 0l-4.41-19.3h-20.34c-6.96 0-11.15 3.9-11 9.93zm-126.31-69.76h-23.05c-4.89 0-7.81-2.52-7.91-6.67-.1-4.3 2.88-7.1 7.85-7.11q23.2-.07 46.43 0c4.78 0 7.72 2.73 7.74 6.88s-2.9 6.87-7.68 6.9h-23.38zm10.28-24.75h-13c-4.57-.1-7.46-2.79-7.51-6.8s2.95-7 7.66-7q13-.09 26 0c4.73 0 7.68 2.82 7.65 7s-2.84 6.72-7.47 6.82c-4.45.05-8.89-.02-13.33-.02zm-214.2 45.09l-7.62-2.67-6.84 4.3-.9 8.02 5.71 5.71 8.02-.9 4.3-6.84-2.67-7.62zm-64.08-22.45l2.76 8.18 8.12 2.95 7.36-4.5 1.07-8.57-6.03-6.18-8.59.86-4.69 7.26zm42.49 108.95l2.72 6.32 6.63 1.81 5.56-4.05.29-6.87-5.19-4.52-6.76 1.25-3.25 6.06zM97 251.19l4.61 4.24a1.6 1.6 0 0 0 1.32.41l6.19-1a1.61 1.61 0 0 0 1.14-.78l3.12-5.44a1.59 1.59 0 0 0 .09-1.38l-2.31-5.82a1.6 1.6 0 0 0-1-.94l-6-1.82a1.54 1.54 0 0 0-1.36.21l-5.17 3.54a1.59 1.59 0 0 0-.68 1.2l-.45 6.25a1.6 1.6 0 0 0 .5 1.33zm1.36 44.35l5.44 6.71 8.63-.06 5.34-6.79-1.98-8.4-7.81-3.7-7.75 3.8-1.87 8.44z"/><path d="M174.78 307.12l5.13 4.03 6.35-1.5 2.79-5.9-2.88-5.85-6.37-1.41-5.07 4.11.05 6.52z" opacity=".4"/><path d="M156.58 247.98l5.13 4.03 6.35-1.5 2.79-5.89-2.88-5.86-6.37-1.4-5.07 4.1.05 6.52z"/><path d="M181.98 194.32l5.35 5.48 7.63-.77 4.15-6.44-2.45-7.26-7.2-2.62-6.54 4-.94 7.61z" opacity=".4"/><path d="M138.95 284.65l5.47 4.29 6.76-1.59 2.97-6.29-3.06-6.24-6.79-1.5-5.4 4.38.05 6.95z"/><path d="M91.07 176.69l6.13 4.82 7.59-1.8 3.33-7.05-3.43-7-7.62-1.68-6.06 4.91.06 7.8z" opacity=".9"/><path d="M101.64 226.09l7.49 2.19 6.37-4.49.47-7.78-5.79-5.22-7.7 1.27-3.8 6.81 2.96 7.22zm12.85 49.57l6.37.31 4.22-4.79-1.12-6.29-5.61-3.04-5.88 2.49-1.72 6.14 3.74 5.18zm22.05-15.85l3.7 3.78 5.26-.53 2.87-4.44-1.69-5.02-4.97-1.8-4.51 2.76-.66 5.25zm18.11 73.87l2.72 6.32 6.63 1.81 5.55-4.05.29-6.87-5.18-4.51-6.77 1.24-3.24 6.06z"/><path d="M103.54 143.82l5.73 5.29 7.71-1.2 3.88-6.76-2.88-7.25-7.46-2.27-6.43 4.41-.55 7.78z" opacity=".5"/><path d="M119.72 198.08l7.49 2.19 6.38-4.49.46-7.79-5.79-5.22-7.7 1.28-3.79 6.81 2.95 7.22z" opacity=".8"/><path d="M160.55 269.78l2.29 2.34 3.25-.33 1.78-2.75-1.05-3.1-3.07-1.11-2.79 1.7-.41 3.25z"/><path d="M195.81 219.16l2.28 2.34 3.25-.33 1.78-2.75-1.05-3.1-3.07-1.11-2.79 1.7-.4 3.25z" opacity=".7"/><path d="M80.84 189.42l2.29 2.34 3.25-.33 1.77-2.75-1.04-3.1-3.07-1.12-2.79 1.71-.41 3.25zm56.08 142.47l2.28 2.35 3.26-.33 1.77-2.75-1.04-3.1-3.08-1.12-2.79 1.71-.4 3.24zm-10.25-116.51l2.28 2.34 3.25-.32 1.78-2.75-1.05-3.1-3.07-1.12-2.79 1.71-.4 3.24zM48.46 376.04l2.28 2.34 3.26-.32 1.77-2.75-1.04-3.1-3.07-1.12-2.79 1.71-.41 3.24zm76.96-80.95l2.29 2.34 3.25-.33 1.78-2.75-1.05-3.1-3.07-1.11-2.79 1.7-.41 3.25zm25.6 12.47l4.13 4.24 5.9-.59 3.21-4.98-1.89-5.61-5.57-2.03-5.05 3.09-.73 5.88z"/><path d="M180.57 278.54l4.14 4.24 5.9-.59 3.21-4.98-1.89-5.62-5.57-2.02-5.05 3.09-.74 5.88z" opacity=".4"/><path d="M187.5 251.91l4.14 4.24 5.89-.6 3.22-4.97-1.89-5.62-5.57-2.02-5.06 3.09-.73 5.88z" opacity=".6"/><path d="M102.93 359.06l-2.19 6.14 3.43 5.55 6.48.77 4.64-4.59-.69-6.48-5.5-3.51-6.17 2.12zm-8.24-35.9l-3.5 6.81 3.14 6.99 7.43 1.89 6.11-4.62.19-7.66-5.86-4.93-7.51 1.52z"/><path d="M136.11 180.41l6.45-.99 3.25-5.66-2.4-6.06-6.24-1.91-5.38 3.69-.47 6.5 4.79 4.43z" opacity=".4"/><path d="M178.58 174.93l6.72-3.97 1.09-7.72-5.36-5.67-7.78.66-4.32 6.49 2.37 7.43 7.28 2.78z" opacity=".6"/><path d="M149.53 215.28l5.29-.11 3.21-4.2-1.28-5.13-4.81-2.2-4.72 2.39-1.07 5.18 3.38 4.07z" opacity=".4"/><path d="M150.48 152.83l3.27-.07 1.99-2.6-.8-3.17-2.97-1.36-2.92 1.48-.66 3.2 2.09 2.52z" opacity=".5"/><path d="M93.89 156.89l3.27-.07 1.99-2.6-.79-3.17-2.98-1.36-2.92 1.48-.66 3.2 2.09 2.52z" opacity=".6"/><path d="M168.61 200.4l3.27-.07 1.99-2.6-.79-3.17-2.98-1.36-2.92 1.48-.66 3.2 2.09 2.52z" opacity=".7"/><path d="M154.99 184.65l3.27-.07 1.99-2.59-.79-3.18-2.98-1.36-2.91 1.48-.67 3.2 2.09 2.52zm15.03 38.14l3.18 6.18 6.81 1.37 5.33-4.47-.19-6.95-5.54-4.2-6.74 1.73-2.85 6.34z" opacity=".6"/><path d="M115.23 338.41l-2.59 7.26a.14.14 0 0 0 0 .09l4.06 6.54s0 .05.07.05l7.65.91h.09l5.47-5.41a.07.07 0 0 0 0-.08l-.81-7.66a.1.1 0 0 0-.05-.08l-6.49-4.13a.1.1 0 0 0-.09 0l-7.28 2.5a.11.11 0 0 0-.03.01zm-36.2 11.31l.3 7.79 6.28 4.63 7.53-2.03 3.11-7.15-3.65-6.89-7.66-1.44-5.91 5.09zM68.4 363.81l-2.68 5.22 2.41 5.35 5.68 1.45 4.69-3.54.15-5.86-4.49-3.78-5.76 1.16zM52.42 179.59l6.35 5.85 8.53-1.32 4.29-7.49-3.18-8.03-8.26-2.51-7.12 4.89-.61 8.61z"/></g><path d="M418.22,110.73a4.44,4.44,0,0,0,.07-8.87,4.44,4.44,0,1,0-.07,8.87Z" fill="#003466"/></svg>