<svg xmlns="http://www.w3.org/2000/svg" viewBox="0 0 171.3 39" xmlns:v="https://vecta.io/nano"><path d="M36.53 15.05a.51.51 0 0 0-.27.2 2.25 2.25 0 0 1-3 1.41c-.23-.07-.29.08-.39.2l-3.51 4.62c-.44.59-.74.64-1.38.25l-2.24-1.37L23.35 24h16.14L39 22h-1.87c-.53 0-.85-.28-.86-.73s.32-.77.86-.77h1.57l-1.25-5.47h-.64a.88.88 0 0 0-.28.02zm-2.41.28a.78.78 0 1 0-.81-.77.79.79 0 0 0 .81.77zM18.85 27h10.39c0 .15.05.27.07.38A1.71 1.71 0 0 0 31 28.87h2.3a1.68 1.68 0 0 0 1.65-1.47c0-.35.18-.38.47-.38h2.69l1-1.25a1.46 1.46 0 0 0 .22-.33H22.21c-.78 0-1-.23-1-1V11.85c0-.58.28-.91.76-.9a.72.72 0 0 1 .72.64v.39V22h.09l.7-1 1.27-1.92c.39-.59.73-.67 1.33-.3l2.32 1.42.22-.27 3.2-4.2a.53.53 0 0 0 .09-.54 2.26 2.26 0 0 1 4-1.92.54.54 0 0 0 .52.26h.62l-1-4.31h-17.2zm1.81 2.21h-1.27-1.27a.78.78 0 1 0 0 1.55h2.54a.76.76 0 0 0 .82-.77.78.78 0 0 0-.82-.78z" fill="#003466"/><path d="M14.43 30.61v-1.74A1.72 1.72 0 0 1 16.26 27h.81c.18 0 .27-.05.25-.24V8.31a1.66 1.66 0 0 1 .81-1.62 2.33 2.33 0 0 1 1.07-.27h13.91L20.75.46a2.16 2.16 0 0 0-1.86 0L4.79 7.25A2.15 2.15 0 0 0 3.63 8.7L.15 24a2.18 2.18 0 0 0 .41 1.81L10.32 38a2.14 2.14 0 0 0 1.68.8h15.64a2.15 2.15 0 0 0 1.68-.8l4.27-5.36H16.46a1.78 1.78 0 0 1-2.03-2.03z" fill="#1971bd"/><g fill="#fff"><path d="M35.39 27c-.29 0-.43 0-.47.38a1.68 1.68 0 0 1-1.65 1.47h-2.3a1.71 1.71 0 0 1-1.66-1.46c0-.11 0-.23-.07-.38H18.85V9.25h17.28L36 8.7a2.18 2.18 0 0 0-1.16-1.45l-1.74-.84H19.2a2.33 2.33 0 0 0-1.07.27 1.66 1.66 0 0 0-.81 1.62v18.48c0 .19-.07.25-.25.24h-.81a1.72 1.72 0 0 0-1.83 1.85v1.74a1.78 1.78 0 0 0 2 2h17.16L38.08 27zm-14.72 3.76h-2.54a.78.78 0 1 1 0-1.55h1.27 1.27a.78.78 0 0 1 .83.78.76.76 0 0 1-.83.77zM39.49 24H23.35l2.39-3.59L28 21.73c.64.39.94.34 1.38-.25l3.51-4.62c.1-.12.16-.27.39-.2a2.25 2.25 0 0 0 3-1.41.51.51 0 0 1 .27-.2.88.88 0 0 1 .28 0h.64l-.34-1.49h-.62a.54.54 0 0 1-.51-.26 2.26 2.26 0 0 0-4 1.92.53.53 0 0 1-.09.54L28.63 20l-.22.27-2.32-1.42c-.6-.37-.94-.29-1.33.3L23.49 21l-.7 1h-.09V12v-.39a.72.72 0 0 0-.72-.64c-.48 0-.76.32-.76.9v12.59c0 .79.22 1 1 1h17.07a2.16 2.16 0 0 0 .2-1.46zm-5.41-10.22a.78.78 0 1 1-.77.78.79.79 0 0 1 .77-.78zm2.19 7.51c0 .45.33.72.86.73H39l-.34-1.5h-1.53c-.54 0-.87.3-.86.77zm-9.79-5.41H24.7c-.38 0-.61-.19-.62-.51a.55.55 0 0 1 .61-.56h3.6a.54.54 0 0 1 .6.54.53.53 0 0 1-.6.53zm.8-1.88h-1a.52.52 0 0 1-.58-.52.55.55 0 0 1 .59-.55h2a.54.54 0 0 1 .59.55.52.52 0 0 1-.58.52zm-16.6 3.46l-.59-.21-.53.34-.08.62.45.44.62-.07.33-.53-.2-.59zm-4.97-1.74l.21.63.63.23.57-.35.09-.66-.47-.48-.67.07-.36.56zM9 24.16l.21.5.52.14.43-.32.02-.53-.4-.35-.53.1-.25.46zm-1.46-5.1l.35.33a.11.11 0 0 0 .11 0l.47-.07a.15.15 0 0 0 .09-.06l.24-.42a.11.11 0 0 0 0-.11l-.18-.45a.1.1 0 0 0-.08-.07l-.46-.15a.14.14 0 0 0-.11 0l-.4.28a.11.11 0 0 0 0 .09v.48a.1.1 0 0 0-.03.15zm.1 3.44l.42.52h.67l.41-.53-.15-.65-.61-.29-.6.3-.14.65z"/><path d="M13.56 23.4l.4.31.49-.12.22-.45-.22-.46-.5-.11-.39.32v.51z" opacity=".4"/><path d="M12.15 18.82l.4.31.49-.12.22-.46-.23-.45-.49-.11-.39.32v.51z"/><path d="M14.12 14.65l.42.43.59-.06.32-.5-.19-.56-.56-.2-.51.3-.07.59z" opacity=".4"/><path d="M10.79 21.66l.42.33.52-.12.23-.49-.23-.49-.53-.11-.42.34.01.54z"/><path d="M7.07 13.29l.48.37.59-.14.25-.54-.26-.55-.59-.13-.47.38v.61z" opacity=".9"/><path d="M7.89 17.12l.58.17.5-.35.03-.6-.45-.41-.59.1-.3.53.23.56zm1 3.84l.49.02.33-.37-.09-.48-.43-.24-.46.19-.13.48.29.4zm1.71-1.23l.28.29.41-.04.23-.34-.14-.39-.38-.14-.35.21-.05.41zm1.4 5.73l.21.49.52.14.43-.32.02-.53-.4-.35-.53.1-.25.47z"/><path d="M8.04 10.74l.44.41.6-.09.3-.53-.22-.56-.58-.18-.5.35-.04.6z" opacity=".5"/><path d="M9.29 14.95l.58.17.5-.35.03-.61-.44-.4-.6.1-.3.53.23.56z" opacity=".8"/><path d="M12.46 20.5l.18.18.25-.02.14-.21-.08-.24-.24-.09-.22.13-.03.25z"/><path d="M15.19 16.58l.18.18.25-.02.14-.22-.08-.24-.24-.08-.22.13-.03.25z" opacity=".7"/><path d="M6.28 14.28l.18.18.25-.03.14-.21-.08-.24-.24-.09-.22.13-.03.26zm4.35 11.04l.17.18.26-.02.13-.22-.08-.24-.23-.09-.22.14-.03.25zm-.8-9.03l.18.18.25-.03.14-.21-.08-.24-.24-.09-.22.14-.03.25zM3.77 28.74l.18.18.25-.02.14-.22-.08-.24-.24-.08-.22.13-.03.25zm5.97-6.27l.17.18.25-.03.14-.21-.08-.24-.24-.09-.21.13-.03.26zm1.98.96l.32.33.46-.05.25-.38-.15-.44-.43-.15-.39.24-.06.45z"/><path d="M14.01 21.18l.32.33.46-.04.25-.39-.15-.44-.43-.15-.39.24-.06.45z" opacity=".4"/><path d="M14.55 19.12l.32.33.46-.05.24-.38-.14-.44-.43-.16-.39.24-.06.46z" opacity=".6"/><path d="M7.99 27.42l-.17.48.27.43.5.06.36-.35-.05-.51-.43-.27-.48.16zm-.64-2.78l-.27.53.25.54.57.15.48-.36.01-.59-.45-.39-.59.12z"/><path d="M10.56 13.58l.5-.08.26-.44-.19-.47-.48-.15-.42.29-.04.5.37.35z" opacity=".4"/><path d="M13.86 13.15l.52-.3.08-.6-.41-.44-.61.05-.33.5.18.58.57.21z" opacity=".6"/><path d="M11.6 16.28l.41-.01.25-.32-.1-.4-.37-.17-.36.18-.09.4.26.32z" opacity=".4"/><path d="M11.68 11.44l.25-.01.16-.2-.07-.24-.23-.11-.22.12-.05.24.16.2z" opacity=".5"/><path d="M7.29 11.75h.25l.16-.2-.06-.25-.23-.1-.23.11-.05.25.16.19z" opacity=".6"/><path d="M13.08 15.13l.26-.01.15-.2-.06-.25-.23-.1-.23.11-.05.25.16.2z" opacity=".7"/><path d="M12.03 13.9h.25l.16-.2-.07-.25-.23-.1-.22.11-.05.25.16.19zm1.16 2.96l.25.48.53.11.41-.35-.01-.54-.43-.32-.53.13-.22.49z" opacity=".6"/><path d="M8.95 25.82l-.2.57h0l.31.51h.01l.59.08.01-.01.42-.42h0l-.06-.6h0l-.51-.32h0l-.57.19h0zm-2.81.88l.02.6.49.36.58-.15.24-.56-.28-.53-.59-.11-.46.39zm-.82 1.09l-.21.41.18.41.45.12.36-.28.01-.45-.35-.3-.44.09zM4.08 13.51l.49.46.66-.1.33-.59-.24-.62-.64-.19-.55.38-.05.66z"/></g><path d="M32.43 8.18a.36.36 0 0 0 .35-.35.34.34 0 0 0-.34-.34.35.35 0 0 0-.35.34.37.37 0 0 0 .34.35zm14.06 12.18a11.67 11.67 0 0 1 .75-4.08 11 11 0 0 1 5.67-6.17 10.71 10.71 0 0 1 4.7-1A10.25 10.25 0 0 1 63 10.49a8.74 8.74 0 0 1 3.38 3.56L63 16.36a5.49 5.49 0 0 0-1.08-1.6 5.25 5.25 0 0 0-1.36-1 6.63 6.63 0 0 0-1.56-.59 7.68 7.68 0 0 0-1.52-.17 5.83 5.83 0 0 0-2.87.67 6.23 6.23 0 0 0-2 1.73 7.6 7.6 0 0 0-1.22 2.41 9.28 9.28 0 0 0-.41 2.68 8.64 8.64 0 0 0 .48 2.87 7.19 7.19 0 0 0 1.35 2.43 6.86 6.86 0 0 0 2.09 1.69 5.78 5.78 0 0 0 2.68.63 6.89 6.89 0 0 0 1.59-.19 6.22 6.22 0 0 0 1.57-.6 5.82 5.82 0 0 0 1.38-1.07 4.64 4.64 0 0 0 1-1.57l3.59 2.07A6.86 6.86 0 0 1 65.15 29a9.68 9.68 0 0 1-2.26 1.64 12 12 0 0 1-2.68 1 11.82 11.82 0 0 1-2.79.34A9.61 9.61 0 0 1 53 31a11.52 11.52 0 0 1-3.44-2.65 12.17 12.17 0 0 1-2.26-3.75 11.57 11.57 0 0 1-.81-4.24zm30.42 11.75a9.07 9.07 0 0 1-3.65-.7 8 8 0 0 1-2.75-1.89 8.23 8.23 0 0 1-1.73-2.74 9.29 9.29 0 0 1 0-6.57 8.14 8.14 0 0 1 4.48-4.64 9.84 9.84 0 0 1 7.29 0 8.55 8.55 0 0 1 2.73 1.89A8.44 8.44 0 0 1 85 20.21a9.29 9.29 0 0 1 0 6.57 8.54 8.54 0 0 1-1.72 2.74 7.85 7.85 0 0 1-2.73 1.89 9.07 9.07 0 0 1-3.64.7zm-4.35-8.6a5.8 5.8 0 0 0 .33 2 5.13 5.13 0 0 0 .92 1.58 4.38 4.38 0 0 0 1.39 1 4.24 4.24 0 0 0 3.42 0 4.38 4.38 0 0 0 1.39-1 5.18 5.18 0 0 0 .92-1.59 6 6 0 0 0 .33-2 5.87 5.87 0 0 0-.33-2 5 5 0 0 0-.93-1.61 4.1 4.1 0 0 0-1.39-1 4.09 4.09 0 0 0-3.42 0 4.6 4.6 0 0 0-1.39 1.05 5 5 0 0 0-.92 1.59 5.87 5.87 0 0 0-.32 1.98zm31.37 8.28h-4.26v-9.33a4.91 4.91 0 0 0-.67-2.92 2.32 2.32 0 0 0-2-.92 3.61 3.61 0 0 0-1.3.25 4.67 4.67 0 0 0-1.26.72 5.78 5.78 0 0 0-1.06 1.09 4.38 4.38 0 0 0-.7 1.4v9.71h-4.21V15.16h3.84v3.08A6.24 6.24 0 0 1 95 15.76a8.55 8.55 0 0 1 3.93-.89 5 5 0 0 1 2.54.57 4.08 4.08 0 0 1 1.53 1.5 6.25 6.25 0 0 1 .74 2.09 13.5 13.5 0 0 1 .21 2.38zm10 .32a13 13 0 0 1-4.1-.66 10 10 0 0 1-3.42-1.91l1.59-2.67a13.85 13.85 0 0 0 3 1.64 7.94 7.94 0 0 0 2.87.55 3.59 3.59 0 0 0 2-.47 1.53 1.53 0 0 0 .73-1.37 1.36 1.36 0 0 0-.85-1.3 19.33 19.33 0 0 0-2.8-1l-2.76-.86a7 7 0 0 1-1.84-.94 3.2 3.2 0 0 1-1-1.2 3.9 3.9 0 0 1-.31-1.64 5.12 5.12 0 0 1 .49-2.28 5 5 0 0 1 1.38-1.73 6.46 6.46 0 0 1 2.08-1.1 8.58 8.58 0 0 1 2.59-.38 11.12 11.12 0 0 1 3.51.54 8.48 8.48 0 0 1 3 1.75l-1.72 2.57a10.06 10.06 0 0 0-2.46-1.4 6.61 6.61 0 0 0-2.36-.44 3.37 3.37 0 0 0-1.81.44 1.54 1.54 0 0 0-.73 1.43 1.34 1.34 0 0 0 .17.73 1.56 1.56 0 0 0 .56.51 5.13 5.13 0 0 0 1 .43l1.54.43 2.93.88a8.09 8.09 0 0 1 2 1 3.67 3.67 0 0 1 1.15 1.32 4.08 4.08 0 0 1 .36 1.79 4.62 4.62 0 0 1-1.81 3.86 7.82 7.82 0 0 1-4.98 1.48zm17.18 0a9.08 9.08 0 0 1-3.66-.7 8.09 8.09 0 0 1-2.74-1.89 8.23 8.23 0 0 1-1.71-2.74 9.29 9.29 0 0 1 0-6.57 8.27 8.27 0 0 1 1.73-2.75 8.38 8.38 0 0 1 2.74-1.89 9.08 9.08 0 0 1 3.66-.7 8.94 8.94 0 0 1 3.63.7 8.19 8.19 0 0 1 4.46 4.64 9.15 9.15 0 0 1 0 6.57 8.34 8.34 0 0 1-1.71 2.74 7.85 7.85 0 0 1-2.73 1.89 9.07 9.07 0 0 1-3.67.7zm-4.35-8.6a5.8 5.8 0 0 0 .33 2 4.94 4.94 0 0 0 .91 1.59 4.23 4.23 0 0 0 1.38 1 4.27 4.27 0 0 0 3.43 0 4.23 4.23 0 0 0 1.38-1 5 5 0 0 0 .92-1.59 6 6 0 0 0 .34-2 5.87 5.87 0 0 0-.34-2 4.78 4.78 0 0 0-.92-1.59 4.1 4.1 0 0 0-4.81-1 4.44 4.44 0 0 0-1.38 1 4.78 4.78 0 0 0-.92 1.59 5.87 5.87 0 0 0-.32 2zm15.87-14.89h4.26v17.84a2.09 2.09 0 0 0 .44 1.43 1.6 1.6 0 0 0 1.27.51 3.45 3.45 0 0 0 .84-.13 4.73 4.73 0 0 0 .87-.32l.58 3.24a8.24 8.24 0 0 1-2 .64 11.69 11.69 0 0 1-2.07.22 4.25 4.25 0 0 1-3.09-1.05 4 4 0 0 1-1.1-3zm17.81 23.49a9.34 9.34 0 0 1-3.62-.68 8.17 8.17 0 0 1-4.52-4.59 8.84 8.84 0 0 1-.62-3.27 9.34 9.34 0 0 1 .6-3.35 8.11 8.11 0 0 1 1.72-2.76 8.45 8.45 0 0 1 2.78-1.89 9.15 9.15 0 0 1 3.66-.7 9 9 0 0 1 3.64.7 8.44 8.44 0 0 1 2.73 1.87 8.08 8.08 0 0 1 1.71 2.73 8.94 8.94 0 0 1 .59 3.24v.8a4.46 4.46 0 0 1-.08.63h-12.84a5 5 0 0 0 .47 1.75 4.44 4.44 0 0 0 1 1.3A4.45 4.45 0 0 0 160.6 29a4.93 4.93 0 0 0 2.4-.62 3.31 3.31 0 0 0 1.54-1.63l3.65 1a7.41 7.41 0 0 1-2.94 3.13 9.14 9.14 0 0 1-4.81 1.23zm4.32-10a4.46 4.46 0 0 0-1.38-3 4.45 4.45 0 0 0-4.57-.83 4.13 4.13 0 0 0-1.32.84 4.52 4.52 0 0 0-.94 1.31 4.78 4.78 0 0 0-.43 1.68z" fill="#003466"/></svg>