<svg xmlns="http://www.w3.org/2000/svg" viewBox="0 0 1279 639" xmlns:v="https://vecta.io/nano"><path d="M773.33 201.08a4 4 0 0 0-2.18 1.59c-4.62 10.73-12.75 14.67-24 11.3-1.88-.56-2.34.59-3.1 1.58Q730 234 715.91 252.54c-3.56 4.69-5.93 5.12-11 2l-18-11-19.12 28.79H797l-3.53-15.49q-7.66 0-15.31 0c-4.26 0-6.8-2.19-6.89-5.81s2.51-6.18 6.84-6.19h12.62L780.7 201h-5.13a6.42 6.42 0 0 0-2.24.08zM754 203.3a6.2 6.2 0 1 0-6.42-6.19 6.3 6.3 0 0 0 6.42 6.19zM631.75 297h83.19l.55 3a13.73 13.73 0 0 0 13.32 11.7 434.57 434.57 0 0 0 18.41 0 13.44 13.44 0 0 0 13.21-11.7c.31-2.79 1.44-3.08 3.74-3.08h21.53l8-10a17.34 17.34 0 0 0 1.71-2.65H658.65c-6.21 0-8-1.85-8-8.14q0-50.44 0-100.88c0-4.61 2.28-7.24 6.13-7.18a5.7 5.7 0 0 1 5.75 5.17 26.8 26.8 0 0 1 .08 3.11V257l.69.28 5.63-8.39q5.1-7.67 10.18-15.34c3.15-4.75 5.84-5.36 10.63-2.43l18.56 11.35c.65-.77 1.26-1.45 1.82-2.17l25.58-33.59a4.17 4.17 0 0 0 .73-4.34A18.14 18.14 0 0 1 768.82 187a4.28 4.28 0 0 0 4.15 2.11h5l-7.88-34.49H631.75zm14.52 17.44c-3.39-.08-6.79 0-10.18 0s-6.78-.06-10.17 0c-3.93.09-6.63 2.71-6.62 6.25s2.74 6.16 6.66 6.19q10.17.09 20.35 0c3.92 0 6.62-2.67 6.6-6.23s-2.7-6.12-6.64-6.21z" fill="#003466"/><path d="M596.32 325.61v-13.89c.06-9.06 5.65-14.7 14.65-14.79h6.52c1.43 0 2.12-.48 2-2-.06-.84 0-1.7 0-2.55q0-72.69 0-145.37c0-5.51 1.56-10.26 6.49-13a18.65 18.65 0 0 1 8.59-2.11q55.68-.11 111.35-.09L647 84.24a17.13 17.13 0 0 0-14.89 0L519.18 138.6a17.16 17.16 0 0 0-9.29 11.64L482 272.39a17.16 17.16 0 0 0 3.32 14.52l78.11 97.95a17.16 17.16 0 0 0 13.42 6.47h125.3a17.13 17.13 0 0 0 13.41-6.47L749.77 342H612.58c-11.04 0-16.26-5.28-16.26-16.39z" fill="#1971bd"/><g fill="#fff"><path d="M764.17 296.89c-2.3 0-3.43.29-3.74 3.08a13.44 13.44 0 0 1-13.21 11.75 403.54 403.54 0 0 1-18.41 0A13.73 13.73 0 0 1 715.49 300l-.55-3h-83.19V154.62h138.36l-1-4.38a17.14 17.14 0 0 0-9.28-11.64l-13.92-6.7q-55.67 0-111.35.09a18.65 18.65 0 0 0-8.56 2.11c-4.93 2.69-6.49 7.44-6.49 13q.07 72.69 0 145.37c0 .85-.06 1.71 0 2.55.11 1.49-.58 2-2 2-2.17-.06-4.34 0-6.52 0-9 .09-14.59 5.73-14.65 14.79v13.89c0 11.11 5.22 16.36 16.26 16.36h137.17L785.7 297zm-117.86 30q-10.17.09-20.35 0c-3.92 0-6.64-2.65-6.66-6.19s2.69-6.16 6.62-6.25c3.39-.08 6.78 0 10.17 0h10.18c3.94.09 6.62 2.66 6.64 6.21s-2.68 6.18-6.6 6.22zM797 272.39v-.05H667.79l19.12-28.79 18 11c5.1 3.13 7.47 2.7 11-2Q730 234 744 215.55c.76-1 1.22-2.14 3.1-1.58 11.27 3.37 19.4-.57 24-11.3a4 4 0 0 1 2.18-1.59 6.42 6.42 0 0 1 2.24-.06h5.13L778 189.11h-5a4.28 4.28 0 0 1-4.15-2.11 18.14 18.14 0 0 0-32.43 15.4 4.17 4.17 0 0 1-.73 4.34l-25.58 33.59c-.56.72-1.17 1.4-1.82 2.17l-18.56-11.35c-4.79-2.93-7.48-2.32-10.63 2.43q-5.1 7.66-10.18 15.34l-5.63 8.39-.69-.28v-80.7a26.8 26.8 0 0 0-.08-3.11 5.7 5.7 0 0 0-5.75-5.17c-3.85-.06-6.13 2.57-6.13 7.18q0 50.43 0 100.88c0 6.29 1.84 8.14 8 8.14h136.75a17.13 17.13 0 0 0 1.61-11.86zm-43.31-81.48a6.2 6.2 0 1 1-6.12 6.2 6.29 6.29 0 0 1 6.11-6.2zM771.25 251c.09 3.62 2.63 5.79 6.89 5.81q7.65 0 15.31 0l-2.74-12h-12.62c-4.2 0-6.93 2.48-6.84 6.19zm-78.39-43.27h-14.31c-3 0-4.84-1.56-4.9-4.14s1.78-4.4 4.86-4.41q14.41 0 28.82 0c3 0 4.8 1.69 4.81 4.27s-1.8 4.26-4.77 4.28h-14.51zm6.38-15.37h-8.07c-2.69 0-4.63-1.73-4.66-4.21s1.83-4.33 4.75-4.35q8.07-.06 16.13 0c2.94 0 4.77 1.75 4.75 4.33s-1.77 4.17-4.64 4.23h-8.26zm-132.95 27.99l-4.73-1.65-4.24 2.67-.56 4.98 3.54 3.54 4.98-.56 2.67-4.24-1.66-4.74zm-39.77-13.93l1.71 5.08 5.04 1.83 4.57-2.8.67-5.32-3.75-3.83-5.33.53-2.91 4.51zm26.37 67.62l1.69 3.92 4.12 1.13 3.44-2.52.18-4.26-3.22-2.8-4.19.77-2.02 3.76zm-11.75-40.85l2.86 2.63a1 1 0 0 0 .82.25l3.85-.59a1 1 0 0 0 .7-.49l1.94-3.37a1 1 0 0 0 .06-.86l-1.44-3.61a1 1 0 0 0-.63-.58l-3.72-1.14a1 1 0 0 0-.85.14l-3.2 2.2a1 1 0 0 0-.43.74l-.27 3.88a1 1 0 0 0 .31.8zm.83 27.52l3.37 4.17 5.36-.04 3.31-4.21-1.22-5.22-4.85-2.29-4.81 2.36-1.16 5.23z"/><path d="M589.4 267.9l3.19 2.51 3.94-.93 1.72-3.67-1.78-3.63-3.95-.87-3.15 2.55.03 4.04z" opacity=".4"/><path d="M578.1 231.2l3.19 2.5 3.94-.93 1.73-3.66-1.79-3.64-3.95-.87-3.15 2.55.03 4.05z"/><path d="M593.87 197.89l3.32 3.4 4.73-.48 2.58-3.99-1.52-4.51-4.47-1.62-4.06 2.48-.58 4.72z" opacity=".4"/><path d="M567.16 253.96l3.39 2.66 4.2-.99 1.85-3.9-1.9-3.88-4.22-.92-3.35 2.71.03 4.32z"/><path d="M537.44 186.95l3.81 2.99 4.71-1.11 2.07-4.38-2.14-4.35-4.72-1.04-3.77 3.05.04 4.84z" opacity=".9"/><path d="M544 217.61l4.65 1.36 3.96-2.79.29-4.83-3.6-3.24-4.77.79-2.36 4.23 1.83 4.48zm7.98 30.77l3.95.19 2.62-2.98-.69-3.9-3.48-1.88-3.65 1.54-1.07 3.81 2.32 3.22zm13.69-9.84l2.29 2.35 3.27-.33 1.78-2.76-1.05-3.11-3.09-1.12-2.8 1.71-.4 3.26zm11.23 45.85l1.69 3.92 4.12 1.13 3.44-2.52.19-4.26-3.22-2.8-4.2.77-2.02 3.76z"/><path d="M545.18 166.55l3.56 3.28 4.79-.74 2.4-4.2-1.78-4.5-4.64-1.41-3.99 2.74-.34 4.83z" opacity=".5"/><path d="M555.23 200.22l4.64 1.36 3.96-2.78.29-4.83-3.6-3.25-4.77.8-2.36 4.23 1.84 4.47z" opacity=".8"/><path d="M580.57 244.73l1.42 1.45 2.02-.2 1.1-1.71-.65-1.92-1.91-.7-1.73 1.06-.25 2.02z"/><path d="M602.45 213.31l1.42 1.45 2.02-.2 1.1-1.71-.65-1.92-1.91-.7-1.73 1.06-.25 2.02z" opacity=".7"/><path d="M531.09 194.85l1.42 1.45 2.02-.2 1.1-1.71-.64-1.92-1.91-.7-1.73 1.06-.26 2.02zm34.81 88.43l1.42 1.45 2.02-.2 1.1-1.71-.65-1.92-1.91-.69-1.73 1.06-.25 2.01zm-6.36-72.32l1.41 1.46 2.02-.21 1.1-1.7-.64-1.93-1.91-.69-1.73 1.06-.25 2.01zM511 310.68l1.41 1.45 2.02-.2 1.1-1.7-.64-1.93-1.91-.69-1.73 1.06-.25 2.01zm47.77-50.24l1.41 1.45 2.02-.2 1.1-1.71-.64-1.92-1.91-.7-1.73 1.06-.25 2.02zm15.88 7.74l2.57 2.63 3.66-.37 1.99-3.09-1.17-3.48-3.46-1.26-3.13 1.92-.46 3.65z"/><path d="M593 250.16l2.57 2.64 3.65-.37 2-3.09-1.18-3.49-3.45-1.25-3.14 1.92-.45 3.64z" opacity=".4"/><path d="M597.29 233.63l2.57 2.64 3.66-.37 2-3.09-1.18-3.49-3.45-1.25-3.14 1.92-.46 3.64z" opacity=".6"/><path d="M544.8 300.14l-1.36 3.81 2.14 3.44 4.02.48 2.88-2.84-.43-4.03-3.42-2.17-3.83 1.31zm-5.11-22.28l-2.18 4.23 1.96 4.33 4.61 1.18 3.79-2.87.12-4.75-3.64-3.06-4.66.94z"/><path d="M565.4 189.26l4-.62 2.02-3.51-1.49-3.76-3.87-1.19-3.34 2.29-.3 4.04 2.98 2.75z" opacity=".4"/><path d="M591.76 185.86l4.17-2.46.67-4.8-3.32-3.51-4.83.4-2.69 4.03 1.48 4.61 4.52 1.73z" opacity=".6"/><path d="M573.73 210.9l3.28-.07 1.99-2.61-.79-3.18-2.99-1.36-2.93 1.48-.66 3.22 2.1 2.52z" opacity=".4"/><path d="M574.32 172.14l2.03-.04 1.23-1.61-.49-1.98-1.85-.84-1.81.92-.41 1.99 1.3 1.56z" opacity=".5"/><path d="M539.19 174.66l2.03-.04 1.24-1.62-.49-1.97-1.85-.84-1.81.92-.41 1.99 1.29 1.56z" opacity=".6"/><path d="M585.57 201.66l2.03-.04 1.23-1.61-.49-1.97-1.84-.84-1.82.91-.41 1.99 1.3 1.56z" opacity=".7"/><path d="M577.12 191.89l2.03-.04 1.23-1.61-.49-1.97-1.85-.85-1.81.92-.41 1.99 1.3 1.56zm9.33 23.67l1.97 3.84 4.23.85 3.3-2.78-.11-4.31-3.44-2.6-4.18 1.07-1.77 3.93z" opacity=".6"/><path d="M552.44 287.33l-1.61 4.5a.07.07 0 0 0 0 .05l2.52 4.07h0l4.75.56h.05l3.4-3.35a.07.07 0 0 0 0-.06l-.5-4.75v-.05l-4-2.57H557l-4.52 1.55s-.03.03-.04.05zm-22.47 7.01l.18 4.84 3.9 2.87 4.68-1.26 1.93-4.43-2.27-4.28-4.75-.9-3.67 3.16zm-6.6 8.75l-1.66 3.24 1.49 3.32 3.53.9 2.91-2.19.09-3.65-2.78-2.34-3.58.72zm-9.92-114.34l3.94 3.63 5.3-.82 2.67-4.65-1.98-4.98-5.13-1.56-4.42 3.03-.38 5.35z"/></g><path d="M740.49 146a2.75 2.75 0 0 0 0-5.5 2.75 2.75 0 1 0 0 5.5zM286.51 488.84a67.22 67.22 0 0 1 4.29-23.48 63 63 0 0 1 32.62-35.55 62.1 62.1 0 0 1 27.05-5.67q17.91 0 31 7.86a50.15 50.15 0 0 1 19.46 20.47l-19.37 13.34a33.25 33.25 0 0 0-6.21-9.23 31.56 31.56 0 0 0-7.86-5.94 35.37 35.37 0 0 0-8.77-3.19 41.66 41.66 0 0 0-9-1 34 34 0 0 0-16.54 3.84 36.34 36.34 0 0 0-11.69 10 43.75 43.75 0 0 0-7 13.89 52.35 52.35 0 0 0-2.38 15.44 50.31 50.31 0 0 0 2.75 16.54 43.86 43.86 0 0 0 7.76 14 38.91 38.91 0 0 0 12.06 9.69 33 33 0 0 0 15.45 3.65 40.72 40.72 0 0 0 9.14-1.09 34.53 34.53 0 0 0 9-3.48 34 34 0 0 0 7.95-6.12 28.2 28.2 0 0 0 5.85-9l20.65 11.87a38.94 38.94 0 0 1-8.86 12.89 57.08 57.08 0 0 1-13 9.41 66.19 66.19 0 0 1-15.44 5.85 67.62 67.62 0 0 1-16.08 2 55.3 55.3 0 0 1-25.34-5.95 66.24 66.24 0 0 1-19.83-15.26 70.87 70.87 0 0 1-13-21.38 66.66 66.66 0 0 1-4.66-24.4zm175.08 67.62a52.57 52.57 0 0 1-21-4 47.41 47.41 0 0 1-15.81-10.87 48.19 48.19 0 0 1-10-15.81 53.29 53.29 0 0 1 0-37.83 48.19 48.19 0 0 1 10-15.81 47.29 47.29 0 0 1 15.81-10.88 52.57 52.57 0 0 1 21-4 51.9 51.9 0 0 1 20.92 4 47.31 47.31 0 0 1 15.72 10.88 48 48 0 0 1 10 15.81 53.29 53.29 0 0 1 0 37.83 48.62 48.62 0 0 1-9.87 15.81 46.29 46.29 0 0 1-15.71 10.87 52.64 52.64 0 0 1-21.06 4zm-25-49.53a33.38 33.38 0 0 0 1.92 11.61 28.32 28.32 0 0 0 5.3 9.05 23.55 23.55 0 0 0 8 5.93 24.14 24.14 0 0 0 19.74 0 23.75 23.75 0 0 0 8-5.93 28.3 28.3 0 0 0 5.3-9.14 34.11 34.11 0 0 0 1.92-11.7 33.54 33.54 0 0 0-1.92-11.51 28.19 28.19 0 0 0-5.3-9.14 23.78 23.78 0 0 0-8-5.94 23.37 23.37 0 0 0-9.87-2.1 22.5 22.5 0 0 0-9.87 2.19 24.66 24.66 0 0 0-8 6 28.12 28.12 0 0 0-5.3 9.14 33.54 33.54 0 0 0-1.96 11.54zm180.52 47.7h-24.49V500.9q0-11.5-4-16.81a13.22 13.22 0 0 0-11.15-5.3 21.09 21.09 0 0 0-7.49 1.46 28 28 0 0 0-7.22 4.11 33.67 33.67 0 0 0-6.12 6.31 24.89 24.89 0 0 0-4 8v55.92h-24.53v-95.72h22.11v17.72a36.3 36.3 0 0 1 15.35-14.25 49.28 49.28 0 0 1 22.67-5.12q8.94 0 14.62 3.29a23.79 23.79 0 0 1 8.77 8.59 36 36 0 0 1 4.29 12.07 78.14 78.14 0 0 1 1.19 13.7zm57.57 1.83a74 74 0 0 1-23.57-3.84 57.49 57.49 0 0 1-19.74-11l9.14-15.36a78.22 78.22 0 0 0 17.08 9.42 45.86 45.86 0 0 0 16.54 3.2q7.3 0 11.52-2.74a8.84 8.84 0 0 0 4.2-7.86q0-5.12-4.94-7.5a106.55 106.55 0 0 0-16.08-5.48q-9.32-2.57-15.9-4.94a40.79 40.79 0 0 1-10.6-5.39 18.45 18.45 0 0 1-5.85-6.94 22.16 22.16 0 0 1-1.82-9.41 29.77 29.77 0 0 1 2.83-13.16 28.68 28.68 0 0 1 8-10 36.77 36.77 0 0 1 12-6.31 48.69 48.69 0 0 1 14.9-2.19 64.11 64.11 0 0 1 20.19 3.11 49.24 49.24 0 0 1 17.27 10.05L699.9 485a57.54 57.54 0 0 0-14.16-8 38.87 38.87 0 0 0-13.62-2.56A19.8 19.8 0 0 0 661.7 477q-4.2 2.57-4.2 8.22a8 8 0 0 0 1 4.21 8.7 8.7 0 0 0 3.19 2.92 31 31 0 0 0 5.76 2.47l8.87 2.47q9.85 2.55 16.9 5.11a46.16 46.16 0 0 1 11.51 5.85 20.78 20.78 0 0 1 6.58 7.59 23.28 23.28 0 0 1 2.11 10.32q0 14.08-10.42 22.21-10.42 8.13-28.32 8.09zm98.87 0a52.6 52.6 0 0 1-21-4 47.27 47.27 0 0 1-15.8-10.87 47.86 47.86 0 0 1-10-15.81 53.14 53.14 0 0 1 0-37.83 47.86 47.86 0 0 1 10-15.81 47.15 47.15 0 0 1 15.8-10.88 52.6 52.6 0 0 1 21-4 52 52 0 0 1 20.93 4 47.37 47.37 0 0 1 15.71 10.88 48 48 0 0 1 10 15.81 53.29 53.29 0 0 1 0 37.83 49 49 0 0 1-9.87 15.81 46.43 46.43 0 0 1-15.72 10.87 52.57 52.57 0 0 1-21.05 4zm-25-49.53a33.38 33.38 0 0 0 1.92 11.61 28.5 28.5 0 0 0 5.3 9.05 23.75 23.75 0 0 0 7.95 5.93 24.14 24.14 0 0 0 19.74 0 23.75 23.75 0 0 0 8-5.93 28.3 28.3 0 0 0 5.3-9.14 34.11 34.11 0 0 0 1.92-11.7 33.54 33.54 0 0 0-1.92-11.51 28.19 28.19 0 0 0-5.3-9.14 23.78 23.78 0 0 0-8-5.94 23.37 23.37 0 0 0-9.87-2.1 22.56 22.56 0 0 0-9.87 2.19 24.88 24.88 0 0 0-7.95 6 28.3 28.3 0 0 0-5.3 9.14 33.54 33.54 0 0 0-1.96 11.54zm91.34-85.71h24.49v102.71c0 3.53.85 6.28 2.56 8.22a9.18 9.18 0 0 0 7.31 2.93 18.66 18.66 0 0 0 4.84-.73 33.31 33.31 0 0 0 5-1.83l3.29 18.64a47.85 47.85 0 0 1-11.52 3.66 62.88 62.88 0 0 1-11.86 1.27q-11.5 0-17.81-6.12-6.31-6.12-6.31-17.45zm102.53 135.24a53.13 53.13 0 0 1-20.84-3.93 47 47 0 0 1-26-26.41A50.33 50.33 0 0 1 892 507.3a53.23 53.23 0 0 1 3.45-19.3 46.94 46.94 0 0 1 10-15.9 48 48 0 0 1 16-10.88 53.22 53.22 0 0 1 21.11-4 51.87 51.87 0 0 1 20.92 4A48 48 0 0 1 979.24 472a45.83 45.83 0 0 1 9.87 15.71 52.47 52.47 0 0 1 3.38 18.65q0 2.37-.09 4.56a18.06 18.06 0 0 1-.46 3.66h-74a28.29 28.29 0 0 0 2.74 10 24.65 24.65 0 0 0 13.52 12.25 25.94 25.94 0 0 0 9.14 1.64 28.32 28.32 0 0 0 13.8-3.56 18.89 18.89 0 0 0 8.86-9.42l21 5.85a42.7 42.7 0 0 1-16.91 18q-11.58 7.13-27.67 7.12zm24.85-57.75q-.91-10.79-7.95-17.27a25 25 0 0 0-33.9.09A25.15 25.15 0 0 0 920 489a26.43 26.43 0 0 0-2.47 9.69z" fill="#003466"/></svg>