<svg id="Layer_1" data-name="Layer 1" xmlns="http://www.w3.org/2000/svg" viewBox="0 0 511 511"><defs><style>.cls-1{fill:#003466;}.cls-2{fill:#1971bd;}.cls-3,.cls-4,.cls-5,.cls-6,.cls-7,.cls-8,.cls-9{fill:#fff;}.cls-4{opacity:0.4;}.cls-5{opacity:0.9;}.cls-6{opacity:0.5;}.cls-7{opacity:0.8;}.cls-8{opacity:0.7;}.cls-9{opacity:0.6;}</style></defs><title>console_512x512</title><path class="cls-1" d="M471.11,199.45c-1.32.53-3,1.4-3.51,2.57-7.43,17.29-20.54,23.63-38.69,18.2-3-.9-3.77.95-5,2.55q-22.68,29.79-45.31,59.6c-5.74,7.55-9.56,8.24-17.77,3.21-9.46-5.8-18.93-11.58-29-17.71-10.12,15.25-20.13,30.33-30.8,46.39H509.23l-5.7-24.95q-12.33,0-24.66,0c-6.86,0-10.95-3.54-11.09-9.37-.15-6,4-10,11-10,6.78,0,13.56,0,20.34,0L483,199.36h-8.27C473.52,199.36,472.17,199,471.11,199.45Z"/><path class="cls-1" d="M439.94,203a10,10,0,1,0-10.35-10A10.16,10.16,0,0,0,439.94,203Z"/><path class="cls-1" d="M243,354h134c.36,2,.63,3.44.89,4.92,1.87,10.84,10.53,18.62,21.45,18.84q14.83.3,29.67,0c10.82-.23,20.09-8.21,21.28-18.93.5-4.5,2.32-5,6-5q17.34,0,34.68,0l12.86-16.12a28,28,0,0,0,2.76-4.27H286.36c-10,0-13-3-13-13.12q0-81.27,0-162.53c0-7.42,3.68-11.67,9.87-11.56a9.18,9.18,0,0,1,9.27,8.32,44.11,44.11,0,0,1,.13,5v130l1.12.46c3-4.5,6.06-9,9.07-13.52q8.2-12.35,16.39-24.72c5.08-7.64,9.41-8.63,17.13-3.92l29.91,18.29c1-1.23,2-2.32,2.92-3.49,13.73-18,27.41-36.13,41.21-54.11a6.7,6.7,0,0,0,1.19-7,29.22,29.22,0,0,1,52.25-24.81c1.81,2.72,3.71,3.41,6.69,3.4,2.69,0,5.38,0,8.07,0L465.94,124.6H243Z"/><path class="cls-1" d="M266.4,382.1c-5.46-.13-10.92,0-16.39,0s-10.93-.1-16.39,0c-6.33.15-10.69,4.36-10.66,10.07s4.41,9.92,10.73,10q16.38.15,32.78,0c6.32-.06,10.67-4.3,10.64-10S272.76,382.24,266.4,382.1Z"/><path class="cls-2" d="M185.93,400.09c0-7.45,0-14.91,0-22.37.1-14.6,9.11-23.69,23.61-23.83,3.5,0,7-.09,10.5,0,2.31.07,3.42-.77,3.25-3.17-.1-1.36,0-2.74,0-4.11q0-117.1,0-234.21c0-8.88,2.5-16.53,10.45-20.87a30,30,0,0,1,13.84-3.4Q337.24,88,427,88L267.5,11.21a27.65,27.65,0,0,0-24,0L61.64,98.79a27.65,27.65,0,0,0-15,18.76L1.76,314.35A27.65,27.65,0,0,0,7.1,337.74L133,495.56A27.63,27.63,0,0,0,154.58,506H356.43a27.63,27.63,0,0,0,21.62-10.41l55.11-69.1h-221C194.34,426.46,185.94,418,185.93,400.09Z"/><path class="cls-3" d="M456.37,353.83c-3.71,0-5.53.46-6,5-1.19,10.72-10.46,18.7-21.28,18.93q-14.83.33-29.67,0c-10.92-.22-19.58-8-21.45-18.84-.26-1.48-.53-3-.89-4.92H243V124.6H465.94l-1.61-7a27.65,27.65,0,0,0-15-18.76L427,88q-89.7,0-179.41.15a30,30,0,0,0-13.84,3.4c-7.95,4.34-10.46,12-10.45,20.87q.12,117.1,0,234.21c0,1.37-.09,2.75,0,4.11.17,2.4-.94,3.24-3.25,3.17-3.49-.1-7,0-10.5,0-14.5.14-23.51,9.23-23.61,23.83-.05,7.46,0,14.92,0,22.37,0,17.91,8.41,26.37,26.2,26.37h221l57.89-72.6Q473.71,353.85,456.37,353.83Zm-189.9,48.31q-16.4.15-32.78,0c-6.32-.05-10.7-4.26-10.73-10s4.33-9.92,10.66-10.07c5.46-.13,10.93,0,16.39,0s10.93-.1,16.39,0c6.36.14,10.68,4.28,10.71,10S272.79,402.08,266.47,402.14Z"/><path class="cls-3" d="M509.25,314.35l0-.09H301.08c10.67-16.06,20.68-31.14,30.8-46.39,10,6.13,19.5,11.91,29,17.71,8.21,5,12,4.34,17.77-3.21q22.65-29.81,45.31-59.6c1.22-1.6,2-3.45,5-2.55,18.15,5.43,31.26-.91,38.69-18.2.51-1.17,2.19-2,3.51-2.57,1.06-.41,2.41-.09,3.62-.09H483l-4.38-19.19c-2.69,0-5.38,0-8.07,0-3,0-4.88-.68-6.69-3.4a29.22,29.22,0,0,0-52.25,24.81,6.7,6.7,0,0,1-1.19,7c-13.8,18-27.48,36.06-41.21,54.11-.89,1.17-1.89,2.26-2.92,3.49l-29.91-18.29c-7.72-4.71-12.05-3.72-17.13,3.92q-8.21,12.36-16.39,24.72c-3,4.52-6.05,9-9.07,13.52l-1.12-.46v-130a44.11,44.11,0,0,0-.13-5,9.18,9.18,0,0,0-9.27-8.32c-6.19-.11-9.87,4.14-9.87,11.56q0,81.27,0,162.53c0,10.14,2.95,13.12,13,13.12H506.67A27.64,27.64,0,0,0,509.25,314.35ZM439.47,183.07a10,10,0,1,1-9.88,10A10.12,10.12,0,0,1,439.47,183.07Z"/><path class="cls-3" d="M467.78,279.93c.14,5.83,4.23,9.34,11.09,9.37q12.33,0,24.66,0L499.12,270c-6.78,0-13.56,0-20.34,0C471.82,270,467.63,273.9,467.78,279.93Z"/><path class="cls-3" d="M341.47,210.17c-7.68,0-15.37,0-23.05,0-4.89,0-7.81-2.52-7.91-6.67-.1-4.3,2.88-7.1,7.85-7.11q23.2-.07,46.43,0c4.78,0,7.72,2.73,7.74,6.88s-2.9,6.87-7.68,6.9C357.06,210.2,349.27,210.17,341.47,210.17Z"/><path class="cls-3" d="M351.75,185.42c-4.34,0-8.67.07-13,0-4.57-.1-7.46-2.79-7.51-6.8s2.95-7,7.66-7q13-.09,26,0c4.73,0,7.68,2.82,7.65,7s-2.84,6.72-7.47,6.82C360.63,185.49,356.19,185.42,351.75,185.42Z"/><polygon class="cls-3" points="137.55 230.51 129.93 227.84 123.09 232.14 122.19 240.16 127.9 245.87 135.92 244.97 140.22 238.13 137.55 230.51"/><polygon class="cls-3" points="73.47 208.06 76.23 216.24 84.35 219.19 91.71 214.69 92.78 206.12 86.75 199.94 78.16 200.8 73.47 208.06"/><polygon class="cls-3" points="115.96 317.01 118.68 323.33 125.31 325.14 130.87 321.09 131.16 314.22 125.97 309.7 119.21 310.95 115.96 317.01"/><path class="cls-3" d="M97,251.19l4.61,4.24a1.6,1.6,0,0,0,1.32.41l6.19-1a1.61,1.61,0,0,0,1.14-.78l3.12-5.44a1.59,1.59,0,0,0,.09-1.38l-2.31-5.82a1.6,1.6,0,0,0-1-.94l-6-1.82a1.54,1.54,0,0,0-1.36.21l-5.17,3.54a1.59,1.59,0,0,0-.68,1.2l-.45,6.25A1.6,1.6,0,0,0,97,251.19Z"/><polygon class="cls-3" points="98.36 295.54 103.8 302.25 112.43 302.19 117.77 295.4 115.79 287 107.98 283.3 100.23 287.1 98.36 295.54"/><polygon class="cls-4" points="174.78 307.12 179.91 311.15 186.26 309.65 189.05 303.75 186.17 297.9 179.8 296.49 174.73 300.6 174.78 307.12"/><polygon class="cls-3" points="156.58 247.98 161.71 252.01 168.06 250.51 170.85 244.62 167.97 238.76 161.6 237.36 156.53 241.46 156.58 247.98"/><polygon class="cls-4" points="181.98 194.32 187.33 199.8 194.96 199.03 199.11 192.59 196.66 185.33 189.46 182.71 182.92 186.71 181.98 194.32"/><polygon class="cls-3" points="138.95 284.65 144.42 288.94 151.18 287.35 154.15 281.06 151.09 274.82 144.3 273.32 138.9 277.7 138.95 284.65"/><polygon class="cls-5" points="91.07 176.69 97.2 181.51 104.79 179.71 108.12 172.66 104.69 165.66 97.07 163.98 91.01 168.89 91.07 176.69"/><polygon class="cls-3" points="101.64 226.09 109.13 228.28 115.5 223.79 115.97 216.01 110.18 210.79 102.48 212.06 98.68 218.87 101.64 226.09"/><polygon class="cls-3" points="114.49 275.66 120.86 275.97 125.08 271.18 123.96 264.89 118.35 261.85 112.47 264.34 110.75 270.48 114.49 275.66"/><polygon class="cls-3" points="136.54 259.81 140.24 263.59 145.5 263.06 148.37 258.62 146.68 253.6 141.71 251.8 137.2 254.56 136.54 259.81"/><polygon class="cls-3" points="154.65 333.68 157.37 340 164 341.81 169.55 337.76 169.84 330.89 164.66 326.38 157.89 327.62 154.65 333.68"/><polygon class="cls-6" points="103.54 143.82 109.27 149.11 116.98 147.91 120.86 141.15 117.98 133.9 110.52 131.63 104.09 136.04 103.54 143.82"/><polygon class="cls-7" points="119.72 198.08 127.21 200.27 133.59 195.78 134.05 187.99 128.26 182.77 120.56 184.05 116.77 190.86 119.72 198.08"/><polygon class="cls-3" points="160.55 269.78 162.84 272.12 166.09 271.79 167.87 269.04 166.82 265.94 163.75 264.83 160.96 266.53 160.55 269.78"/><polygon class="cls-8" points="195.81 219.16 198.09 221.5 201.34 221.17 203.12 218.42 202.07 215.32 199 214.21 196.21 215.91 195.81 219.16"/><polygon class="cls-3" points="80.84 189.42 83.13 191.76 86.38 191.43 88.15 188.68 87.11 185.58 84.04 184.46 81.25 186.17 80.84 189.42"/><polygon class="cls-3" points="136.92 331.89 139.2 334.24 142.46 333.91 144.23 331.16 143.19 328.06 140.11 326.94 137.32 328.65 136.92 331.89"/><polygon class="cls-3" points="126.67 215.38 128.95 217.72 132.2 217.4 133.98 214.65 132.93 211.55 129.86 210.43 127.07 212.14 126.67 215.38"/><polygon class="cls-3" points="48.46 376.04 50.74 378.38 54 378.06 55.77 375.31 54.73 372.21 51.66 371.09 48.87 372.8 48.46 376.04"/><polygon class="cls-3" points="125.42 295.09 127.71 297.43 130.96 297.1 132.74 294.35 131.69 291.25 128.62 290.14 125.83 291.84 125.42 295.09"/><polygon class="cls-3" points="151.02 307.56 155.15 311.8 161.05 311.21 164.26 306.23 162.37 300.62 156.8 298.59 151.75 301.68 151.02 307.56"/><polygon class="cls-4" points="180.57 278.54 184.71 282.78 190.61 282.19 193.82 277.21 191.93 271.59 186.36 269.57 181.31 272.66 180.57 278.54"/><polygon class="cls-9" points="187.5 251.91 191.64 256.15 197.53 255.55 200.75 250.58 198.86 244.96 193.29 242.94 188.23 246.03 187.5 251.91"/><polygon class="cls-3" points="102.93 359.06 100.74 365.2 104.17 370.75 110.65 371.52 115.29 366.93 114.6 360.45 109.1 356.94 102.93 359.06"/><polygon class="cls-3" points="94.69 323.16 91.19 329.97 94.33 336.96 101.76 338.85 107.87 334.23 108.06 326.57 102.2 321.64 94.69 323.16"/><polygon class="cls-4" points="136.11 180.41 142.56 179.42 145.81 173.76 143.41 167.7 137.17 165.79 131.79 169.48 131.32 175.98 136.11 180.41"/><polygon class="cls-9" points="178.58 174.93 185.3 170.96 186.39 163.24 181.03 157.57 173.25 158.23 168.93 164.72 171.3 172.15 178.58 174.93"/><polygon class="cls-4" points="149.53 215.28 154.82 215.17 158.03 210.97 156.75 205.84 151.94 203.64 147.22 206.03 146.15 211.21 149.53 215.28"/><polygon class="cls-6" points="150.48 152.83 153.75 152.76 155.74 150.16 154.94 146.99 151.97 145.63 149.05 147.11 148.39 150.31 150.48 152.83"/><polygon class="cls-9" points="93.89 156.89 97.16 156.82 99.15 154.22 98.36 151.05 95.38 149.69 92.46 151.17 91.8 154.37 93.89 156.89"/><polygon class="cls-8" points="168.61 200.4 171.88 200.33 173.87 197.73 173.08 194.56 170.1 193.2 167.18 194.68 166.52 197.88 168.61 200.4"/><polygon class="cls-9" points="154.99 184.65 158.26 184.58 160.25 181.99 159.46 178.81 156.48 177.45 153.57 178.93 152.9 182.13 154.99 184.65"/><polygon class="cls-9" points="170.02 222.79 173.2 228.97 180.01 230.34 185.34 225.87 185.15 218.92 179.61 214.72 172.87 216.45 170.02 222.79"/><path class="cls-3" d="M115.23,338.41l-2.59,7.26a.14.14,0,0,0,0,.09l4.06,6.54s0,.05.07.05l7.65.91.09,0,5.47-5.41a.07.07,0,0,0,0-.08l-.81-7.66a.1.1,0,0,0-.05-.08l-6.49-4.13a.1.1,0,0,0-.09,0l-7.28,2.5A.11.11,0,0,0,115.23,338.41Z"/><polygon class="cls-3" points="79.03 349.72 79.33 357.51 85.61 362.14 93.14 360.11 96.25 352.96 92.6 346.07 84.94 344.63 79.03 349.72"/><polygon class="cls-3" points="68.4 363.81 65.72 369.03 68.13 374.38 73.81 375.83 78.5 372.29 78.65 366.43 74.16 362.65 68.4 363.81"/><polygon class="cls-3" points="52.42 179.59 58.77 185.44 67.3 184.12 71.59 176.63 68.41 168.6 60.15 166.09 53.03 170.98 52.42 179.59"/><path class="cls-1" d="M418.22,110.73a4.44,4.44,0,0,0,.07-8.87,4.44,4.44,0,1,0-.07,8.87Z"/></svg>