<svg id="Layer_1" data-name="Layer 1" xmlns="http://www.w3.org/2000/svg" viewBox="0 0 216 216"><defs><style>.cls-1{fill:#1b3765;}.cls-2{fill:#2272b9;}.cls-3,.cls-4,.cls-5,.cls-6,.cls-7,.cls-8,.cls-9{fill:#fff;}.cls-4{opacity:0.4;}.cls-5{opacity:0.9;}.cls-6{opacity:0.5;}.cls-7{opacity:0.8;}.cls-8{opacity:0.7;}.cls-9{opacity:0.6;}</style></defs><title>console_3x3</title><path class="cls-1" d="M166.93,70.19a1.76,1.76,0,0,0-1,.7c-2,4.72-5.61,6.46-10.57,5-.83-.25-1,.26-1.37.7L141.65,92.85c-1.57,2.06-2.61,2.25-4.86.88-2.58-1.59-5.17-3.17-7.91-4.84-2.77,4.16-5.51,8.29-8.42,12.68h56.89l-1.55-6.82h-6.75c-1.87,0-3-1-3-2.56s1.11-2.72,3-2.72h5.56l-4.41-19.3h-2.26A2.72,2.72,0,0,0,166.93,70.19Z"/><path class="cls-1" d="M158.41,71.16a2.73,2.73,0,1,0-2.82-2.72A2.76,2.76,0,0,0,158.41,71.16Z"/><path class="cls-1" d="M104.59,112.42h36.63c.1.54.18.94.25,1.34a6,6,0,0,0,5.86,5.15c2.7.06,5.41.06,8.11,0a5.92,5.92,0,0,0,5.82-5.17c.13-1.23.63-1.36,1.64-1.36h9.48L175.9,108a7.92,7.92,0,0,0,.75-1.16H116.43c-2.73,0-3.54-.82-3.54-3.59V58.81c0-2,1-3.19,2.7-3.16a2.49,2.49,0,0,1,2.53,2.27,10.4,10.4,0,0,1,0,1.37V94.83l.31.12,2.47-3.69,4.49-6.76c1.38-2.09,2.57-2.36,4.68-1.07l8.17,5c.28-.34.56-.64.8-1,3.75-4.93,7.49-9.87,11.27-14.78a1.86,1.86,0,0,0,.32-1.92A8,8,0,0,1,165,64a1.9,1.9,0,0,0,1.83.93H169l-3.47-15.18H104.59Z"/><path class="cls-1" d="M111,120.11c-1.49,0-3,0-4.48,0s-3,0-4.48,0a2.75,2.75,0,1,0,0,5.48q4.47,0,9,0a2.75,2.75,0,1,0,0-5.48Z"/><path class="cls-2" d="M89,125c0-2,0-4.08,0-6.12,0-4,2.49-6.47,6.45-6.51,1,0,1.92,0,2.87,0,.63,0,.94-.21.89-.87,0-.37,0-.74,0-1.12q0-32,0-64c0-2.42.69-4.52,2.86-5.7a8.25,8.25,0,0,1,3.78-.93q24.53,0,49,0l-43.58-21a7.55,7.55,0,0,0-6.56,0L55,42.67a7.57,7.57,0,0,0-4.09,5.13L38.65,101.59A7.53,7.53,0,0,0,40.1,108l34.41,43.14a7.53,7.53,0,0,0,5.9,2.85h55.18a7.57,7.57,0,0,0,5.91-2.85l15.06-18.89H96.15C91.28,132.23,89,129.92,89,125Z"/><path class="cls-3" d="M162.9,112.38c-1,0-1.51.13-1.64,1.36a5.92,5.92,0,0,1-5.82,5.17c-2.7.06-5.41.06-8.11,0a6,6,0,0,1-5.86-5.15c-.07-.4-.15-.8-.25-1.34H104.59V49.73h60.93l-.44-1.93A7.57,7.57,0,0,0,161,42.67l-6.13-3q-24.51,0-49,0a8.25,8.25,0,0,0-3.78.93c-2.17,1.18-2.86,3.28-2.86,5.7q0,32,0,64c0,.38,0,.75,0,1.12,0,.66-.26.89-.89.87-1,0-1.91,0-2.87,0-4,0-6.43,2.52-6.45,6.51,0,2,0,4.08,0,6.12,0,4.89,2.29,7.2,7.16,7.2h60.41l15.82-19.84ZM111,125.59q-4.48,0-9,0a2.75,2.75,0,1,1,0-5.48c1.49,0,3,0,4.48,0s3,0,4.48,0a2.75,2.75,0,1,1,0,5.48Z"/><path class="cls-3" d="M177.36,101.59v0H120.46c2.91-4.39,5.65-8.52,8.42-12.68,2.74,1.67,5.33,3.25,7.91,4.84,2.25,1.37,3.29,1.18,4.86-.88L154,76.56c.34-.44.54-1,1.37-.7,5,1.49,8.54-.25,10.57-5a1.76,1.76,0,0,1,1-.7,2.72,2.72,0,0,1,1,0h2.26L169,64.91h-2.21A1.9,1.9,0,0,1,165,64a8,8,0,0,0-14.28,6.78,1.86,1.86,0,0,1-.32,1.92c-3.78,4.91-7.52,9.85-11.27,14.78-.24.32-.52.62-.8,1l-8.17-5c-2.11-1.29-3.3-1-4.68,1.07l-4.49,6.76L118.47,95l-.31-.12V59.29a10.4,10.4,0,0,0,0-1.37,2.49,2.49,0,0,0-2.53-2.27c-1.69,0-2.7,1.13-2.7,3.16v44.42c0,2.77.81,3.59,3.54,3.59h60.22A7.57,7.57,0,0,0,177.36,101.59ZM158.28,65.71a2.73,2.73,0,1,1-2.69,2.73A2.76,2.76,0,0,1,158.28,65.71Z"/><path class="cls-3" d="M166,92.18c0,1.6,1.16,2.55,3,2.56h6.75l-1.21-5.29H169C167.13,89.46,166,90.54,166,92.18Z"/><path class="cls-3" d="M131.5,73.11c-2.1,0-4.2,0-6.3,0-1.34,0-2.14-.69-2.16-1.82s.78-1.94,2.14-2q6.34,0,12.69,0a1.89,1.89,0,1,1,0,3.76C135.76,73.12,133.63,73.11,131.5,73.11Z"/><path class="cls-3" d="M134.31,66.35c-1.19,0-2.37,0-3.55,0a1.89,1.89,0,1,1,0-3.77q3.56,0,7.11,0A1.88,1.88,0,0,1,140,64.48a1.85,1.85,0,0,1-2,1.86C136.73,66.37,135.52,66.35,134.31,66.35Z"/><polygon class="cls-3" points="75.76 78.67 73.68 77.95 71.81 79.12 71.56 81.31 73.12 82.87 75.32 82.63 76.49 80.76 75.76 78.67"/><polygon class="cls-3" points="58.25 72.54 59 74.78 61.22 75.58 63.23 74.35 63.52 72.01 61.88 70.32 59.53 70.55 58.25 72.54"/><polygon class="cls-3" points="69.86 102.32 70.6 104.04 72.42 104.54 73.93 103.43 74.01 101.55 72.59 100.32 70.75 100.66 69.86 102.32"/><path class="cls-3" d="M64.69,84.33,66,85.49a.43.43,0,0,0,.36.11L68,85.33a.42.42,0,0,0,.31-.21l.85-1.49a.4.4,0,0,0,0-.37l-.63-1.59a.43.43,0,0,0-.28-.26l-1.64-.5a.41.41,0,0,0-.37.06l-1.41,1a.42.42,0,0,0-.19.33L64.55,84A.43.43,0,0,0,64.69,84.33Z"/><polygon class="cls-3" points="65.05 96.45 66.53 98.28 68.89 98.27 70.35 96.41 69.81 94.11 67.68 93.1 65.56 94.14 65.05 96.45"/><polygon class="cls-4" points="85.94 99.61 87.34 100.72 89.08 100.31 89.84 98.69 89.05 97.09 87.31 96.71 85.92 97.83 85.94 99.61"/><polygon class="cls-3" points="80.96 83.45 82.36 84.55 84.1 84.14 84.86 82.53 84.08 80.93 82.33 80.55 80.95 81.67 80.96 83.45"/><polygon class="cls-4" points="87.9 68.78 89.37 70.28 91.45 70.07 92.59 68.31 91.92 66.32 89.95 65.61 88.16 66.7 87.9 68.78"/><polygon class="cls-3" points="76.14 93.47 77.64 94.65 79.49 94.21 80.3 92.49 79.46 90.78 77.61 90.38 76.13 91.57 76.14 93.47"/><polygon class="cls-5" points="63.05 63.96 64.73 65.28 66.81 64.79 67.72 62.86 66.78 60.95 64.7 60.49 63.04 61.83 63.05 63.96"/><polygon class="cls-3" points="65.94 77.47 67.99 78.06 69.73 76.84 69.86 74.71 68.28 73.28 66.18 73.63 65.14 75.49 65.94 77.47"/><polygon class="cls-3" points="69.46 91.02 71.2 91.1 72.35 89.79 72.05 88.07 70.51 87.24 68.91 87.92 68.44 89.6 69.46 91.02"/><polygon class="cls-3" points="75.48 86.68 76.5 87.72 77.93 87.57 78.72 86.36 78.26 84.99 76.9 84.49 75.66 85.25 75.48 86.68"/><polygon class="cls-3" points="80.43 106.87 81.18 108.6 82.99 109.1 84.51 107.99 84.59 106.11 83.17 104.88 81.32 105.22 80.43 106.87"/><polygon class="cls-6" points="66.46 54.98 68.03 56.42 70.14 56.1 71.2 54.25 70.41 52.27 68.37 51.65 66.61 52.85 66.46 54.98"/><polygon class="cls-7" points="70.89 69.81 72.93 70.41 74.68 69.18 74.81 67.05 73.22 65.63 71.12 65.97 70.08 67.84 70.89 69.81"/><polygon class="cls-3" points="82.05 89.41 82.67 90.05 83.56 89.96 84.05 89.21 83.76 88.36 82.92 88.05 82.16 88.52 82.05 89.41"/><polygon class="cls-8" points="91.68 75.57 92.31 76.21 93.2 76.12 93.68 75.37 93.4 74.52 92.56 74.22 91.79 74.68 91.68 75.57"/><polygon class="cls-3" points="60.26 67.44 60.88 68.08 61.77 67.99 62.26 67.24 61.97 66.39 61.13 66.09 60.37 66.56 60.26 67.44"/><polygon class="cls-3" points="75.59 106.39 76.21 107.03 77.1 106.94 77.59 106.19 77.3 105.34 76.46 105.03 75.7 105.5 75.59 106.39"/><polygon class="cls-3" points="72.78 74.54 73.41 75.18 74.3 75.09 74.78 74.34 74.5 73.49 73.66 73.19 72.9 73.65 72.78 74.54"/><polygon class="cls-3" points="51.41 118.45 52.03 119.09 52.92 119 53.41 118.25 53.12 117.41 52.28 117.1 51.52 117.57 51.41 118.45"/><polygon class="cls-3" points="72.45 96.33 73.07 96.97 73.96 96.88 74.44 96.13 74.16 95.28 73.32 94.97 72.56 95.44 72.45 96.33"/><polygon class="cls-3" points="79.44 99.73 80.57 100.89 82.18 100.73 83.06 99.37 82.55 97.84 81.02 97.28 79.64 98.13 79.44 99.73"/><polygon class="cls-4" points="87.52 91.8 88.65 92.96 90.26 92.8 91.14 91.44 90.63 89.9 89.1 89.35 87.72 90.2 87.52 91.8"/><polygon class="cls-9" points="89.41 84.52 90.55 85.68 92.16 85.52 93.03 84.16 92.52 82.62 91 82.07 89.61 82.92 89.41 84.52"/><polygon class="cls-3" points="66.3 113.81 65.7 115.49 66.64 117 68.41 117.22 69.68 115.96 69.49 114.19 67.98 113.23 66.3 113.81"/><polygon class="cls-3" points="64.05 104 63.09 105.86 63.95 107.77 65.98 108.29 67.65 107.02 67.7 104.93 66.1 103.58 64.05 104"/><polygon class="cls-4" points="75.37 64.98 77.13 64.71 78.02 63.16 77.36 61.51 75.66 60.98 74.19 61.99 74.06 63.77 75.37 64.98"/><polygon class="cls-9" points="86.98 63.48 88.81 62.4 89.11 60.29 87.64 58.74 85.52 58.92 84.34 60.69 84.98 62.72 86.98 63.48"/><polygon class="cls-4" points="79.03 74.51 80.48 74.48 81.36 73.33 81.01 71.93 79.69 71.33 78.4 71.98 78.11 73.4 79.03 74.51"/><polygon class="cls-6" points="79.3 57.44 80.19 57.42 80.73 56.71 80.52 55.85 79.7 55.47 78.9 55.88 78.72 56.75 79.3 57.44"/><polygon class="cls-9" points="63.83 58.55 64.72 58.53 65.26 57.82 65.05 56.95 64.23 56.58 63.44 56.99 63.26 57.86 63.83 58.55"/><polygon class="cls-8" points="84.25 70.44 85.14 70.42 85.69 69.72 85.47 68.85 84.66 68.48 83.86 68.88 83.68 69.76 84.25 70.44"/><polygon class="cls-9" points="80.53 66.14 81.42 66.12 81.97 65.41 81.75 64.54 80.94 64.17 80.14 64.58 79.96 65.45 80.53 66.14"/><polygon class="cls-9" points="84.64 76.56 85.5 78.25 87.37 78.63 88.82 77.41 88.77 75.5 87.26 74.36 85.42 74.83 84.64 76.56"/><path class="cls-3" d="M69.66,108.17l-.71,2s0,0,0,0l1.1,1.79,0,0,2.09.25h0l1.5-1.48v0l-.22-2.1s0,0,0,0l-1.78-1.13h0l-2,.68A0,0,0,0,0,69.66,108.17Z"/><polygon class="cls-3" points="59.77 111.26 59.85 113.39 61.56 114.65 63.62 114.1 64.47 112.14 63.48 110.26 61.38 109.86 59.77 111.26"/><polygon class="cls-3" points="56.86 115.11 56.13 116.53 56.78 118 58.34 118.4 59.62 117.43 59.66 115.82 58.43 114.79 56.86 115.11"/><polygon class="cls-3" points="52.49 64.76 54.23 66.36 56.56 66 57.73 63.95 56.86 61.75 54.6 61.06 52.66 62.4 52.49 64.76"/><path class="cls-1" d="M152.48,45.93a1.21,1.21,0,0,0,0-2.42,1.24,1.24,0,0,0-1.23,1.2A1.23,1.23,0,0,0,152.48,45.93Z"/><path class="cls-1" d="M19.72,181.1a16.72,16.72,0,0,1,1.07-5.87A16.19,16.19,0,0,1,23.92,170a15.83,15.83,0,0,1,5-3.7,15.57,15.57,0,0,1,6.76-1.42,14.76,14.76,0,0,1,7.75,2A12.59,12.59,0,0,1,48.33,172l-4.85,3.33a8.07,8.07,0,0,0-1.55-2.3,7.64,7.64,0,0,0-2-1.49,9.14,9.14,0,0,0-2.19-.8,10.25,10.25,0,0,0-2.24-.25,8.55,8.55,0,0,0-4.14,1A9.15,9.15,0,0,0,28.47,174a10.82,10.82,0,0,0-1.76,3.47,13.1,13.1,0,0,0-.6,3.87,12.47,12.47,0,0,0,.69,4.13,11,11,0,0,0,1.94,3.5,9.73,9.73,0,0,0,3,2.42,8.24,8.24,0,0,0,3.86.92,9.88,9.88,0,0,0,2.29-.28,8.53,8.53,0,0,0,2.26-.87,8.21,8.21,0,0,0,2-1.53,6.94,6.94,0,0,0,1.46-2.26l5.17,3a9.78,9.78,0,0,1-2.22,3.22,14.16,14.16,0,0,1-3.25,2.36,16.28,16.28,0,0,1-3.86,1.46,16.63,16.63,0,0,1-4,.5,13.71,13.71,0,0,1-6.35-1.46,16.38,16.38,0,0,1-5-3.82,17.63,17.63,0,0,1-3.25-5.34A16.65,16.65,0,0,1,19.72,181.1Z"/><path class="cls-1" d="M63.5,198a13.11,13.11,0,0,1-5.25-1,11.79,11.79,0,0,1-4-2.72,12,12,0,0,1-2.49-3.95,13.29,13.29,0,0,1,0-9.46,12,12,0,0,1,2.49-4,11.79,11.79,0,0,1,4-2.72,14.26,14.26,0,0,1,10.49,0,11.78,11.78,0,0,1,6.42,6.68,13.29,13.29,0,0,1,0,9.46,12.15,12.15,0,0,1-2.47,3.95A11.66,11.66,0,0,1,68.76,197,13.16,13.16,0,0,1,63.5,198Zm-6.26-12.39a8.32,8.32,0,0,0,.48,2.9,7,7,0,0,0,1.33,2.26A5.95,5.95,0,0,0,66,192.28a5.92,5.92,0,0,0,2-1.49,7.13,7.13,0,0,0,1.33-2.28,8.54,8.54,0,0,0,.48-2.93,8.45,8.45,0,0,0-.48-2.88A7.13,7.13,0,0,0,68,180.42a5.92,5.92,0,0,0-2-1.49,5.82,5.82,0,0,0-2.47-.52A5.54,5.54,0,0,0,61,179a6,6,0,0,0-2,1.5,7,7,0,0,0-1.33,2.29A8.37,8.37,0,0,0,57.24,185.63Z"/><path class="cls-1" d="M102.4,197.56H96.28V184.12a7,7,0,0,0-1-4.2,3.29,3.29,0,0,0-2.79-1.33,5.1,5.1,0,0,0-1.87.37,6.94,6.94,0,0,0-1.81,1,8.84,8.84,0,0,0-1.53,1.58,6.11,6.11,0,0,0-1,2v14H80.14V173.61h5.53V178a9,9,0,0,1,3.84-3.56,12.26,12.26,0,0,1,5.67-1.28,7.24,7.24,0,0,1,3.66.82,6,6,0,0,1,2.19,2.15,8.76,8.76,0,0,1,1.07,3,19.61,19.61,0,0,1,.3,3.43Z"/><path class="cls-1" d="M116.8,198a18.55,18.55,0,0,1-5.9-1,14.33,14.33,0,0,1-4.93-2.75l2.28-3.84a19.49,19.49,0,0,0,4.27,2.36,11.56,11.56,0,0,0,4.14.8,5.2,5.2,0,0,0,2.88-.69,2.2,2.2,0,0,0,1-2,2,2,0,0,0-1.23-1.88,27.85,27.85,0,0,0-4-1.37c-1.56-.42-2.88-.84-4-1.23a10.35,10.35,0,0,1-2.65-1.35,4.52,4.52,0,0,1-1.46-1.74,5.44,5.44,0,0,1-.46-2.35,7.33,7.33,0,0,1,.71-3.29,7,7,0,0,1,2-2.49,9,9,0,0,1,3-1.58,12,12,0,0,1,3.72-.55,16,16,0,0,1,5.06.78,12.34,12.34,0,0,1,4.31,2.51l-2.46,3.7a14.51,14.51,0,0,0-3.55-2,9.78,9.78,0,0,0-3.4-.64,5,5,0,0,0-2.61.64,2.24,2.24,0,0,0-1,2.06,2,2,0,0,0,.25,1.05,2.2,2.2,0,0,0,.8.73,7.73,7.73,0,0,0,1.44.62c.6.2,1.34.4,2.22.62a43.58,43.58,0,0,1,4.23,1.28,11.36,11.36,0,0,1,2.88,1.46,5.24,5.24,0,0,1,1.64,1.9,5.79,5.79,0,0,1,.53,2.58,6.64,6.64,0,0,1-2.61,5.55A11.17,11.17,0,0,1,116.8,198Z"/><path class="cls-1" d="M141.53,198a13.16,13.16,0,0,1-5.26-1,11.85,11.85,0,0,1-4-2.72,11.72,11.72,0,0,1-2.49-3.95,13.29,13.29,0,0,1,0-9.46,11.66,11.66,0,0,1,2.49-4,11.85,11.85,0,0,1,4-2.72,13.16,13.16,0,0,1,5.26-1,13,13,0,0,1,5.23,1,11.78,11.78,0,0,1,6.42,6.68,13.29,13.29,0,0,1,0,9.46,12.15,12.15,0,0,1-2.47,3.95,11.47,11.47,0,0,1-3.93,2.72A13.11,13.11,0,0,1,141.53,198Zm-6.27-12.39a8.1,8.1,0,0,0,.49,2.9,6.94,6.94,0,0,0,1.32,2.26,5.92,5.92,0,0,0,2,1.49,5.91,5.91,0,0,0,6.92-1.49,7,7,0,0,0,1.33-2.28,8.54,8.54,0,0,0,.48-2.93,8.45,8.45,0,0,0-.48-2.88,7,7,0,0,0-1.33-2.28,5.8,5.8,0,0,0-4.45-2,5.55,5.55,0,0,0-2.47.55,6.08,6.08,0,0,0-2,1.5,7,7,0,0,0-1.32,2.29A8.14,8.14,0,0,0,135.26,185.63Z"/><path class="cls-1" d="M158.12,164.19h6.12v25.69a3.08,3.08,0,0,0,.64,2.06,2.34,2.34,0,0,0,1.83.73,4.61,4.61,0,0,0,1.21-.18,9.89,9.89,0,0,0,1.26-.46l.82,4.66a11.47,11.47,0,0,1-2.88.91,15.07,15.07,0,0,1-3,.32,6.08,6.08,0,0,1-4.45-1.53,5.76,5.76,0,0,1-1.58-4.36Z"/><path class="cls-1" d="M183.76,198a13.19,13.19,0,0,1-5.21-1,11.68,11.68,0,0,1-6.51-6.6,12.48,12.48,0,0,1-.89-4.71,13.29,13.29,0,0,1,.86-4.82,11.73,11.73,0,0,1,2.52-4,12,12,0,0,1,4-2.72,13.33,13.33,0,0,1,5.28-1,13,13,0,0,1,5.23,1,12,12,0,0,1,3.93,2.7,11.49,11.49,0,0,1,2.47,3.93,13.16,13.16,0,0,1,.84,4.66c0,.4,0,.78,0,1.14a4.37,4.37,0,0,1-.11.92H177.64a7.19,7.19,0,0,0,.68,2.51,6.34,6.34,0,0,0,1.42,1.88,6.25,6.25,0,0,0,2,1.19,6.58,6.58,0,0,0,2.29.41,7.09,7.09,0,0,0,3.45-.89,4.76,4.76,0,0,0,2.22-2.36l5.25,1.46a10.72,10.72,0,0,1-4.22,4.51A13.17,13.17,0,0,1,183.76,198ZM190,183.57a6.41,6.41,0,0,0-2-4.32,6.1,6.1,0,0,0-4.28-1.62,6.23,6.23,0,0,0-2.3.43,6,6,0,0,0-1.9,1.22,6.15,6.15,0,0,0-1.35,1.87,6.6,6.6,0,0,0-.62,2.42Z"/></svg>