<svg width="527" height="170" viewBox="0 0 527 170" fill="none" xmlns="http://www.w3.org/2000/svg">
<path d="M0.00349069 36.3399L77.7192 85.0009L0.00348644 133.638L0.00348587 146.64L98.4951 85.0009L0.00349126 23.3621L0.00349069 36.3399Z" fill="#4949A3" fill-opacity="0.05"/>
<path d="M87.1432 -5.93512e-06L66.3673 -6.84326e-06L202.186 84.999L66.3673 169.998L87.1432 169.998L222.923 84.999L87.1432 -5.93512e-06Z" fill="#4949A3" fill-opacity="0.05"/>
<path d="M24.8906 -5.93681e-06L4.15346 -6.84326e-06L139.972 84.999L4.15345 169.998L24.8906 169.998L160.709 84.999L24.8906 -5.93681e-06Z" fill="#4949A3" fill-opacity="0.05"/>
<path d="M527 2.69334L522.659 0.000732232L501.922 0.000731326L527 15.6955L527 2.69334Z" fill="#4949A3" fill-opacity="0.05"/>
<path d="M527 41.6512L460.447 0.000729513L439.71 0.000728606L527 54.6291L527 41.6512Z" fill="#4949A3" fill-opacity="0.05"/>
<path d="M-1.9955e-05 75.2708L15.5044 84.9982L-2.08043e-05 94.7013L-2.13726e-05 107.703L36.2803 84.9982L-1.93877e-05 62.293L-1.9955e-05 75.2708Z" fill="#4949A3" fill-opacity="0.05"/>
<path d="M527 80.5849L398.236 0.000726793L377.46 0.000725885L513.279 84.9998L377.46 169.999L398.236 169.999L527 89.4147L527 80.5849Z" fill="#4949A3" fill-opacity="0.05"/>
<path d="M527 115.347L439.71 170L460.447 170L527 128.349L527 115.347Z" fill="#4949A3" fill-opacity="0.05"/>
<path d="M527 154.302L501.922 169.996L522.659 169.997L527 167.28L527 154.302Z" fill="#4949A3" fill-opacity="0.05"/>
<path d="M211.561 -5.93681e-06L190.823 -6.84326e-06L326.603 84.999L190.823 169.998L211.56 169.998L347.379 84.999L211.561 -5.93681e-06Z" fill="#4949A3" fill-opacity="0.05"/>
<path d="M149.348 -5.93681e-06L128.572 -6.84496e-06L264.39 84.999L128.572 169.998L149.348 169.998L285.166 84.999L149.348 -5.93681e-06Z" fill="#4949A3" fill-opacity="0.05"/>
<path d="M336.033 -5.93512e-06L315.257 -6.84326e-06L451.075 84.999L315.257 169.998L336.033 169.998L471.812 84.999L336.033 -5.93512e-06Z" fill="#4949A3" fill-opacity="0.05"/>
<path d="M273.777 -5.93681e-06L253.04 -6.84326e-06L388.859 84.999L253.04 169.998L273.777 169.998L409.596 84.999L273.777 -5.93681e-06Z" fill="#4949A3" fill-opacity="0.05"/>
</svg>
