<svg width="208" height="81" viewBox="0 0 208 81" fill="none" xmlns="http://www.w3.org/2000/svg">
<path d="M92.419 76.0568C115.004 75.5368 140.086 73.6647 164.734 68.0485C172.444 66.2804 179.936 64.2003 186.993 60.7682C190.142 59.2081 193.291 57.4401 196.114 55.36C198.177 53.7999 199.915 51.7198 201.218 49.5357C204.366 44.3355 203.498 39.0313 198.72 35.1832C195.897 32.8951 192.748 31.023 189.382 29.4629C179.827 24.8867 169.62 21.8706 159.305 19.4785C150.727 17.5024 141.932 16.6704 133.137 16.1504C132.051 16.0464 130.965 16.1504 130.097 15.7343C129.337 15.4223 128.468 14.4863 128.468 13.8623C128.577 13.0302 129.445 12.1982 130.205 11.7822C130.965 11.3662 132.051 11.5742 132.92 11.5742C147.253 11.4702 161.042 14.1743 174.398 18.6465C180.913 20.8306 187.319 23.4307 193.617 26.2388C196.874 27.6948 200.023 29.8789 202.629 32.271C208.275 37.3672 209.47 44.1275 206.212 50.8878C204.584 54.4239 201.978 57.2321 198.937 59.6242C193.4 63.8883 187.102 66.5924 180.587 68.7765C167.883 73.0407 154.745 75.5368 141.389 77.3049C125.536 79.489 109.683 80.633 93.6134 80.945C74.503 81.257 55.3927 80.321 36.7167 76.0568C29.2246 74.3928 22.0582 71.8967 15.4347 68.1525C11.0915 65.6564 7.18252 62.8483 4.14224 58.8961C-0.743931 52.5519 -1.28684 45.8956 2.40493 38.8233C4.46798 34.8711 7.39968 31.647 10.7657 28.7349C19.6694 21.0386 30.0932 15.8384 41.1685 11.6782C55.6099 6.26996 70.7027 3.35784 86.0127 1.58977C105.666 -0.698326 125.319 -0.386313 144.972 1.69377C161.911 3.46185 178.633 6.47797 194.703 12.3022C196.766 13.0302 198.72 13.9663 200.675 14.9023C202.086 15.5263 202.955 16.4624 202.412 18.0224C201.978 19.1665 200.566 19.5825 198.829 18.7505C188.731 14.3823 177.981 12.1982 167.232 10.0141C154.636 7.51801 141.824 6.16596 129.011 5.33392C106.209 3.98187 83.6239 5.64593 61.4733 10.8461C49.5293 13.4463 38.0197 17.5024 27.2701 23.4307C21.7324 26.4468 16.5205 29.9829 12.0687 34.4551C10.44 36.1192 8.91982 37.9913 7.61684 39.9673C3.70791 46.1036 4.3594 52.2399 9.57131 57.3361C12.1773 59.9362 15.3261 62.1203 18.5836 64.0963C25.7499 68.3605 33.785 70.5446 42.0372 72.1047C57.6729 75.1208 73.6344 76.1608 92.419 76.0568Z" fill="#000F07"/>
</svg>
