<svg width="48" height="83" viewBox="0 0 48 83" fill="none" xmlns="http://www.w3.org/2000/svg">
<g clip-path="url(#clip0_595_1548)">
<path d="M23.8639 27.7488L-0.000284684 13.9715L0.00300715 -13.5913L23.8705 -27.3752L47.7347 -13.5963L47.7315 13.9666L23.8639 27.7488ZM23.8639 110.149L-0.000284684 96.3721L0.00300715 68.8092L23.8705 55.0269L47.7347 68.8043L47.7315 96.3655L23.8639 110.149ZM47.7282 68.8043L23.8639 55.0269L23.8672 27.4657L47.7347 13.6818L71.599 27.4591L71.5957 55.022L47.7282 68.8043ZM-0.00686835 68.8043L-23.8711 55.0269L-23.8678 27.4657L-0.000284684 13.6818L23.8639 27.4591L23.8607 55.022L-0.00686835 68.8043Z" stroke="#F8F5FF" stroke-width="2"/>
</g>
<defs>
<clipPath id="clip0_595_1548">
<rect width="47.735" height="82.4911" fill="white"/>
</clipPath>
</defs>
</svg>
