<svg xmlns="http://www.w3.org/2000/svg" width="48" height="83" fill="none" xmlns:v="https://vecta.io/nano"><g clip-path="url(#A)"><path d="M23.864 27.749L0 13.972.003-13.591l23.867-13.784 23.864 13.779-.003 27.563-23.868 13.782zm0 82.4L0 96.372.003 68.809l23.867-13.782 23.864 13.777-.003 27.561-23.868 13.784zm23.864-41.345L23.864 55.027l.003-27.561 23.867-13.784 23.864 13.777-.003 27.563-23.867 13.782zm-47.735 0l-23.864-13.777.003-27.561L0 13.682l23.864 13.777-.003 27.563L-.007 68.804z" stroke="#f8f5ff" stroke-width="2"/></g><defs><clipPath id="A"><path fill="#fff" d="M0 0h47.735v82.491H0z"/></clipPath></defs></svg>