<svg width="146" height="146" viewBox="0 0 146 146" fill="none" xmlns="http://www.w3.org/2000/svg">
<path d="M145.485 107.758V145.489H107.754V107.758H145.485ZM143.68 143.685V109.563H109.559V143.685H143.68Z" fill="#4A3AFF" fill-opacity="0.05"/>
<path d="M109.559 71.8327V109.564H71.8281V71.8327H109.559ZM107.754 107.759V73.6374H73.6329V107.759H107.754Z" fill="#4A3AFF" fill-opacity="0.05"/>
<path d="M109.559 35.9257V73.6327H71.8281V35.9257H109.559ZM107.754 71.8279V37.7304H73.6329V71.852H107.754V71.8279Z" fill="#4A3AFF" fill-opacity="0.05"/>
<path d="M73.6328 71.8328V109.564H35.9258V71.8328H73.6328ZM71.828 107.759V73.6375H37.7305V107.759H71.828Z" fill="#4A3AFF" fill-opacity="0.05"/>
<path d="M145.485 71.8328V109.564H107.754V71.8328H145.485ZM143.68 107.759V73.6375H109.559V107.759H143.68Z" fill="#4A3AFF" fill-opacity="0.05"/>
<path d="M145.485 35.9257V73.6327H107.754V35.9257H145.485ZM143.68 71.8279V37.7304H109.559V71.852H143.68V71.8279Z" fill="#4A3AFF" fill-opacity="0.05"/>
<path d="M145.485 0V37.7311H107.754V0H145.485ZM143.68 35.9263V1.80474H109.559V35.9263H143.68Z" fill="#4A3AFF" fill-opacity="0.05"/>
<path d="M109.559 107.758V145.489H71.8281V107.758H109.559ZM107.754 143.685V109.563H73.6329V143.685H107.754Z" fill="#4A3AFF" fill-opacity="0.05"/>
<path d="M73.6328 107.758V145.489H35.9258V107.758H73.6328ZM71.828 143.685V109.563H37.7305V143.685H71.828Z" fill="#4A3AFF" fill-opacity="0.05"/>
<path d="M37.7311 107.758V145.489H0V107.758H37.7311ZM35.9263 143.685V109.563H1.80474V143.685H35.9263Z" fill="#4A3AFF" fill-opacity="0.05"/>
</svg>
