<svg width="21" height="20" viewBox="0 0 21 20" fill="none" xmlns="http://www.w3.org/2000/svg">
<mask id="path-1-inside-1_361_1909" fill="white">
<path d="M10.2259 0C4.57903 0 0 4.59039 0 10.2532C0 14.7833 2.93003 18.6266 6.9931 19.9824C7.50415 20.0773 7.69178 19.76 7.69178 19.4891C7.69178 19.2446 7.6823 18.437 7.67789 17.5802C4.83304 18.2005 4.23274 16.3705 4.23274 16.3705C3.76757 15.1853 3.09734 14.8702 3.09734 14.8702C2.16954 14.2339 3.16727 14.2469 3.16727 14.2469C4.19413 14.3193 4.73482 15.3035 4.73482 15.3035C5.64687 16.871 7.12704 16.4178 7.71058 16.1559C7.80236 15.4932 8.06737 15.0409 8.35981 14.7848C6.0885 14.5256 3.70085 13.6464 3.70085 9.71766C3.70085 8.59825 4.10032 7.6836 4.75447 6.96556C4.64829 6.70731 4.29827 5.66447 4.85353 4.25218C4.85353 4.25218 5.71223 3.97661 7.66638 5.30317C8.48207 5.07599 9.35687 4.96206 10.2259 4.95816C11.0949 4.96206 11.9704 5.07599 12.7876 5.30317C14.7394 3.97661 15.5969 4.25218 15.5969 4.25218C16.1535 5.66447 15.8033 6.70731 15.6972 6.96556C16.3528 7.6836 16.7496 8.59825 16.7496 9.71766C16.7496 13.6557 14.3574 14.5228 12.0803 14.7767C12.4471 15.0949 12.7739 15.7188 12.7739 16.6754C12.7739 18.0473 12.7621 19.1514 12.7621 19.4891C12.7621 19.762 12.9461 20.0817 13.4645 19.981C17.5253 18.6237 20.4516 14.7818 20.4516 10.2532C20.4516 4.59039 15.8733 0 10.2259 0ZM3.82993 14.6059C3.80741 14.6568 3.72748 14.6721 3.65467 14.6371C3.5805 14.6037 3.53884 14.5342 3.56289 14.4831C3.5849 14.4306 3.665 14.416 3.739 14.4512C3.81334 14.4846 3.85567 14.5548 3.82993 14.6059ZM4.33293 15.0559C4.28417 15.1012 4.18883 15.0802 4.12414 15.0085C4.05725 14.937 4.04472 14.8414 4.09417 14.7954C4.14446 14.7501 4.23692 14.7713 4.30398 14.8428C4.37087 14.9151 4.3839 15.01 4.33293 15.0559ZM4.67801 15.6317C4.61536 15.6753 4.51291 15.6344 4.44958 15.5432C4.38692 15.452 4.38692 15.3427 4.45093 15.2989C4.51443 15.2551 4.61536 15.2945 4.67954 15.385C4.74202 15.4777 4.74202 15.587 4.67801 15.6317ZM5.26161 16.2985C5.20556 16.3605 5.08618 16.3438 4.9988 16.2593C4.90939 16.1766 4.8845 16.0593 4.94072 15.9973C4.99745 15.9352 5.11751 15.9526 5.20556 16.0365C5.29429 16.119 5.32139 16.2372 5.26161 16.2985ZM6.01586 16.5236C5.99114 16.6039 5.87616 16.6404 5.76033 16.6063C5.64467 16.5712 5.56898 16.4771 5.59235 16.3959C5.61639 16.3151 5.73188 16.2771 5.84855 16.3136C5.96404 16.3486 6.0399 16.4419 6.01586 16.5236ZM6.87422 16.6191C6.8771 16.7037 6.77889 16.7738 6.6573 16.7753C6.53504 16.778 6.43615 16.7096 6.43479 16.6264C6.43479 16.541 6.53081 16.4716 6.65307 16.4695C6.77465 16.4671 6.87422 16.5351 6.87422 16.6191ZM7.71747 16.5867C7.73203 16.6692 7.64753 16.7539 7.5268 16.7765C7.40809 16.7982 7.29819 16.7473 7.28312 16.6655C7.26839 16.5809 7.35441 16.4962 7.47295 16.4743C7.59385 16.4532 7.70206 16.5028 7.71747 16.5867Z"/>
</mask>
<path d="M10.2259 0C4.57903 0 0 4.59039 0 10.2532C0 14.7833 2.93003 18.6266 6.9931 19.9824C7.50415 20.0773 7.69178 19.76 7.69178 19.4891C7.69178 19.2446 7.6823 18.437 7.67789 17.5802C4.83304 18.2005 4.23274 16.3705 4.23274 16.3705C3.76757 15.1853 3.09734 14.8702 3.09734 14.8702C2.16954 14.2339 3.16727 14.2469 3.16727 14.2469C4.19413 14.3193 4.73482 15.3035 4.73482 15.3035C5.64687 16.871 7.12704 16.4178 7.71058 16.1559C7.80236 15.4932 8.06737 15.0409 8.35981 14.7848C6.0885 14.5256 3.70085 13.6464 3.70085 9.71766C3.70085 8.59825 4.10032 7.6836 4.75447 6.96556C4.64829 6.70731 4.29827 5.66447 4.85353 4.25218C4.85353 4.25218 5.71223 3.97661 7.66638 5.30317C8.48207 5.07599 9.35687 4.96206 10.2259 4.95816C11.0949 4.96206 11.9704 5.07599 12.7876 5.30317C14.7394 3.97661 15.5969 4.25218 15.5969 4.25218C16.1535 5.66447 15.8033 6.70731 15.6972 6.96556C16.3528 7.6836 16.7496 8.59825 16.7496 9.71766C16.7496 13.6557 14.3574 14.5228 12.0803 14.7767C12.4471 15.0949 12.7739 15.7188 12.7739 16.6754C12.7739 18.0473 12.7621 19.1514 12.7621 19.4891C12.7621 19.762 12.9461 20.0817 13.4645 19.981C17.5253 18.6237 20.4516 14.7818 20.4516 10.2532C20.4516 4.59039 15.8733 0 10.2259 0ZM3.82993 14.6059C3.80741 14.6568 3.72748 14.6721 3.65467 14.6371C3.5805 14.6037 3.53884 14.5342 3.56289 14.4831C3.5849 14.4306 3.665 14.416 3.739 14.4512C3.81334 14.4846 3.85567 14.5548 3.82993 14.6059ZM4.33293 15.0559C4.28417 15.1012 4.18883 15.0802 4.12414 15.0085C4.05725 14.937 4.04472 14.8414 4.09417 14.7954C4.14446 14.7501 4.23692 14.7713 4.30398 14.8428C4.37087 14.9151 4.3839 15.01 4.33293 15.0559ZM4.67801 15.6317C4.61536 15.6753 4.51291 15.6344 4.44958 15.5432C4.38692 15.452 4.38692 15.3427 4.45093 15.2989C4.51443 15.2551 4.61536 15.2945 4.67954 15.385C4.74202 15.4777 4.74202 15.587 4.67801 15.6317ZM5.26161 16.2985C5.20556 16.3605 5.08618 16.3438 4.9988 16.2593C4.90939 16.1766 4.8845 16.0593 4.94072 15.9973C4.99745 15.9352 5.11751 15.9526 5.20556 16.0365C5.29429 16.119 5.32139 16.2372 5.26161 16.2985ZM6.01586 16.5236C5.99114 16.6039 5.87616 16.6404 5.76033 16.6063C5.64467 16.5712 5.56898 16.4771 5.59235 16.3959C5.61639 16.3151 5.73188 16.2771 5.84855 16.3136C5.96404 16.3486 6.0399 16.4419 6.01586 16.5236ZM6.87422 16.6191C6.8771 16.7037 6.77889 16.7738 6.6573 16.7753C6.53504 16.778 6.43615 16.7096 6.43479 16.6264C6.43479 16.541 6.53081 16.4716 6.65307 16.4695C6.77465 16.4671 6.87422 16.5351 6.87422 16.6191ZM7.71747 16.5867C7.73203 16.6692 7.64753 16.7539 7.5268 16.7765C7.40809 16.7982 7.29819 16.7473 7.28312 16.6655C7.26839 16.5809 7.35441 16.4962 7.47295 16.4743C7.59385 16.4532 7.70206 16.5028 7.71747 16.5867Z" fill="white"/>
<path d="M6.9931 19.9824L6.67657 20.931L6.74234 20.9529L6.8105 20.9656L6.9931 19.9824ZM7.67789 17.5802L8.67788 17.5751L8.67153 16.3401L7.46488 16.6032L7.67789 17.5802ZM4.23274 16.3705L5.18292 16.0588L5.17403 16.0317L5.1636 16.0051L4.23274 16.3705ZM3.09734 14.8702L2.53171 15.6949L2.59853 15.7407L2.67185 15.7752L3.09734 14.8702ZM3.16727 14.2469L3.23754 13.2494L3.20899 13.2474L3.18038 13.247L3.16727 14.2469ZM4.73482 15.3035L3.85836 15.785L3.86429 15.7958L3.87049 15.8064L4.73482 15.3035ZM7.71058 16.1559L8.12015 17.0681L8.62518 16.8414L8.70112 16.293L7.71058 16.1559ZM8.35981 14.7848L9.01854 15.5372L10.7198 14.0477L8.47323 13.7913L8.35981 14.7848ZM4.75447 6.96556L5.49369 7.63902L5.92012 7.17094L5.67935 6.58531L4.75447 6.96556ZM4.85353 4.25218L4.54797 3.3L4.0964 3.44492L3.92287 3.88628L4.85353 4.25218ZM7.66638 5.30317L7.10472 6.13054L7.48819 6.39085L7.93468 6.2665L7.66638 5.30317ZM10.2259 4.95816L10.2304 3.95813L10.2214 3.95817L10.2259 4.95816ZM12.7876 5.30317L12.5198 6.26663L12.9664 6.39078L13.3497 6.13022L12.7876 5.30317ZM15.5969 4.25218L16.5273 3.88551L16.3537 3.44499L15.9029 3.30013L15.5969 4.25218ZM15.6972 6.96556L14.7723 6.58531L14.5312 7.17169L14.9587 7.63987L15.6972 6.96556ZM12.0803 14.7767L11.9695 13.7828L9.70022 14.0358L11.425 15.532L12.0803 14.7767ZM13.4645 19.981L13.6551 20.9627L13.7194 20.9502L13.7815 20.9294L13.4645 19.981ZM3.82993 14.6059L2.93681 14.156L2.92551 14.1785L2.91535 14.2015L3.82993 14.6059ZM3.65467 14.6371L4.08765 13.7357L4.07677 13.7305L4.06577 13.7255L3.65467 14.6371ZM3.56289 14.4831L4.46774 14.9088L4.47678 14.8896L4.48501 14.87L3.56289 14.4831ZM3.739 14.4512L3.30998 15.3545L3.31929 15.3589L3.32868 15.3631L3.739 14.4512ZM4.33293 15.0559L3.66422 14.3124L3.65811 14.3179L3.6521 14.3234L4.33293 15.0559ZM4.12414 15.0085L4.8664 14.3384L4.86042 14.3318L4.85432 14.3252L4.12414 15.0085ZM4.09417 14.7954L3.42464 14.0526L3.41874 14.058L3.41294 14.0634L4.09417 14.7954ZM4.30398 14.8428L5.03818 14.1638L5.03329 14.1586L4.30398 14.8428ZM4.67801 15.6317L5.24952 16.4523L5.25016 16.4518L4.67801 15.6317ZM4.44958 15.5432L3.6254 16.1096L3.62827 16.1137L4.44958 15.5432ZM4.45093 15.2989L5.0157 16.1241L5.01876 16.122L4.45093 15.2989ZM4.67954 15.385L5.50876 14.826L5.50211 14.8162L5.49523 14.8065L4.67954 15.385ZM5.26161 16.2985L4.5457 15.6003L4.53257 15.6138L4.51996 15.6277L5.26161 16.2985ZM4.9988 16.2593L5.6942 15.5407L5.68607 15.5328L5.67777 15.5251L4.9988 16.2593ZM4.94072 15.9973L4.20216 15.3231L4.20007 15.3254L4.94072 15.9973ZM5.20556 16.0365L4.5158 16.7606L4.52457 16.7688L5.20556 16.0365ZM6.01586 16.5236L6.97167 16.8179L6.97514 16.8061L6.01586 16.5236ZM5.76033 16.6063L5.46956 17.5631L5.4777 17.5655L5.76033 16.6063ZM5.59235 16.3959L4.63383 16.1108L4.63139 16.1192L5.59235 16.3959ZM5.84855 16.3136L5.54994 17.268L5.5587 17.2707L5.84855 16.3136ZM6.87422 16.6191H5.87422V16.6361L5.8748 16.6531L6.87422 16.6191ZM6.6573 16.7753L6.64473 15.7753L6.63509 15.7756L6.6573 16.7753ZM6.43479 16.6264H5.43479V16.6345L5.43493 16.6427L6.43479 16.6264ZM6.65307 16.4695L6.66973 17.4694L6.67262 17.4693L6.65307 16.4695ZM7.71747 16.5867L8.70227 16.4129L8.70101 16.406L7.71747 16.5867ZM7.5268 16.7765L7.70689 17.7602L7.71064 17.7595L7.5268 16.7765ZM7.28312 16.6655L6.29792 16.8371L6.29966 16.8466L7.28312 16.6655ZM7.47295 16.4743L7.30139 15.4891L7.29125 15.4909L7.47295 16.4743ZM10.2259 -1C4.02429 -1 -1 4.04057 -1 10.2532H1C1 5.14022 5.13377 1 10.2259 1V-1ZM-1 10.2532C-1 15.225 2.21619 19.4426 6.67657 20.931L7.30962 19.0338C3.64388 17.8106 1 14.3416 1 10.2532H-1ZM6.8105 20.9656C7.29459 21.0555 7.81261 20.9733 8.20896 20.6108C8.5748 20.2763 8.69178 19.833 8.69178 19.4891H6.69178C6.69178 19.4161 6.71495 19.2669 6.85921 19.135C6.93465 19.066 7.01958 19.026 7.09311 19.009C7.16178 18.9932 7.1955 19.0029 7.17569 18.9992L6.8105 20.9656ZM8.69178 19.4891C8.69178 19.2443 8.6822 18.4161 8.67788 17.5751L6.67791 17.5854C6.68239 18.4579 6.69178 19.245 6.69178 19.4891H8.69178ZM7.46488 16.6032C6.279 16.8617 5.72606 16.5864 5.48921 16.4085C5.35321 16.3063 5.26852 16.1963 5.22002 16.1184C5.1959 16.0796 5.18188 16.0506 5.17602 16.0375C5.17314 16.0312 5.17245 16.0291 5.17365 16.0322C5.17426 16.0338 5.17536 16.0367 5.17691 16.0411C5.17769 16.0433 5.17858 16.0459 5.17958 16.0488C5.18009 16.0503 5.18062 16.0518 5.18117 16.0535C5.18145 16.0543 5.18174 16.0552 5.18203 16.0561C5.18217 16.0565 5.1824 16.0572 5.18247 16.0574C5.18269 16.0581 5.18292 16.0588 4.23274 16.3705C3.28256 16.6822 3.28279 16.6829 3.28302 16.6836C3.28311 16.6838 3.28334 16.6846 3.28351 16.685C3.28384 16.686 3.28418 16.6871 3.28453 16.6881C3.28523 16.6902 3.28599 16.6924 3.28679 16.6948C3.28839 16.6995 3.29018 16.7047 3.29218 16.7103C3.29618 16.7215 3.301 16.7347 3.3067 16.7495C3.31809 16.7792 3.33307 16.8158 3.35216 16.8582C3.39024 16.9429 3.44535 17.0519 3.52195 17.1751C3.67491 17.4209 3.9181 17.7296 4.28778 18.0074C5.0623 18.5894 6.23193 18.919 7.89091 18.5573L7.46488 16.6032ZM5.1636 16.0051C4.88079 15.2846 4.52116 14.794 4.19961 14.4707C4.0401 14.3104 3.89319 14.1944 3.77478 14.1132C3.71565 14.0727 3.66378 14.0409 3.62113 14.0167C3.59981 14.0046 3.5808 13.9943 3.56434 13.9858C3.55611 13.9815 3.54851 13.9777 3.54158 13.9743C3.53812 13.9726 3.53482 13.971 3.53169 13.9695C3.53013 13.9687 3.52861 13.968 3.52713 13.9673C3.52639 13.9669 3.52566 13.9666 3.52495 13.9663C3.52459 13.9661 3.52406 13.9658 3.52388 13.9658C3.52335 13.9655 3.52283 13.9653 3.09734 14.8702C2.67185 15.7752 2.67133 15.7749 2.67081 15.7747C2.67064 15.7746 2.67013 15.7744 2.66979 15.7742C2.66911 15.7739 2.66844 15.7736 2.66779 15.7733C2.66647 15.7726 2.66519 15.772 2.66396 15.7714C2.66148 15.7702 2.65915 15.7691 2.65697 15.768C2.6526 15.7659 2.64883 15.764 2.64562 15.7623C2.6392 15.759 2.63504 15.7567 2.63296 15.7555C2.62879 15.7531 2.6329 15.7552 2.64388 15.7628C2.66568 15.7777 2.71539 15.8146 2.78159 15.8811C2.91145 16.0117 3.11953 16.2713 3.30188 16.7358L5.1636 16.0051ZM3.66296 14.0456C3.57686 13.9865 3.54156 13.9541 3.53545 13.9481C3.52228 13.9351 3.58635 13.9917 3.63934 14.1183C3.66835 14.1877 3.69779 14.2872 3.70188 14.4104C3.70612 14.5377 3.68242 14.6686 3.62902 14.7916C3.52504 15.0311 3.35282 15.1469 3.2806 15.1881C3.20413 15.2318 3.14758 15.2454 3.14049 15.2471C3.12727 15.2504 3.12494 15.25 3.1355 15.2488C3.14436 15.2478 3.15394 15.2473 3.16096 15.247C3.16402 15.2469 3.16546 15.2469 3.16471 15.2469C3.16431 15.2469 3.16329 15.2469 3.16158 15.2469C3.16072 15.2469 3.15968 15.2469 3.15845 15.2469C3.15784 15.2469 3.15717 15.2469 3.15646 15.2469C3.1561 15.2469 3.15574 15.2469 3.15535 15.2469C3.15516 15.2469 3.15487 15.2469 3.15477 15.2469C3.15447 15.2468 3.15417 15.2468 3.16727 14.2469C3.18038 13.247 3.18007 13.247 3.17975 13.247C3.17964 13.247 3.17932 13.247 3.1791 13.247C3.17866 13.247 3.1782 13.247 3.17772 13.247C3.17677 13.247 3.17575 13.247 3.17466 13.247C3.17247 13.2469 3.17002 13.2469 3.1673 13.2469C3.16187 13.2469 3.15536 13.2469 3.14788 13.247C3.13297 13.2471 3.11388 13.2474 3.09147 13.2482C3.04755 13.2497 2.98643 13.2531 2.91625 13.2609C2.81571 13.2719 2.54424 13.3054 2.28817 13.4517C2.14921 13.5312 1.92476 13.695 1.79447 13.9951C1.6509 14.3258 1.69413 14.6508 1.79436 14.8904C1.95359 15.2709 2.29099 15.5298 2.53171 15.6949L3.66296 14.0456ZM3.09701 15.2445C3.29333 15.2583 3.47546 15.361 3.64059 15.5208C3.71968 15.5974 3.78069 15.674 3.82063 15.7299C3.84014 15.7572 3.85332 15.7778 3.85991 15.7884C3.86317 15.7937 3.8647 15.7963 3.86448 15.7959C3.86436 15.7957 3.8638 15.7947 3.86278 15.7929C3.86227 15.792 3.86165 15.7909 3.86091 15.7896C3.86055 15.789 3.86015 15.7882 3.85972 15.7875C3.85951 15.7871 3.85929 15.7867 3.85906 15.7863C3.85895 15.7861 3.85878 15.7857 3.85872 15.7856C3.85854 15.7853 3.85836 15.785 4.73482 15.3035C5.61128 14.8221 5.6111 14.8217 5.61091 14.8214C5.61085 14.8213 5.61066 14.8209 5.61053 14.8207C5.61027 14.8202 5.61 14.8197 5.60972 14.8192C5.60917 14.8182 5.60857 14.8171 5.60794 14.816C5.60668 14.8137 5.60526 14.8112 5.6037 14.8085C5.60058 14.8029 5.59685 14.7964 5.59252 14.789C5.58387 14.7742 5.57279 14.7556 5.55926 14.7338C5.53227 14.6903 5.49518 14.6334 5.44796 14.5673C5.35443 14.4364 5.21609 14.2624 5.03165 14.0839C4.66972 13.7335 4.06808 13.3079 3.23754 13.2494L3.09701 15.2445ZM3.87049 15.8064C4.49316 16.8766 5.3837 17.3336 6.25667 17.4118C7.06019 17.4837 7.76048 17.2296 8.12015 17.0681L7.301 15.2436C7.07713 15.3441 6.74558 15.4475 6.43512 15.4197C6.19411 15.3981 5.88853 15.2979 5.59916 14.8006L3.87049 15.8064ZM8.70112 16.293C8.76596 15.8249 8.9378 15.6079 9.01854 15.5372L7.70109 14.0324C7.19694 14.4738 6.83875 15.1615 6.72003 16.0187L8.70112 16.293ZM8.47323 13.7913C7.39611 13.6683 6.47455 13.4124 5.82351 12.863C5.22036 12.3541 4.70085 11.4638 4.70085 9.71766H2.70085C2.70085 11.9002 3.37517 13.4139 4.53367 14.3915C5.64429 15.3287 7.05221 15.6421 8.2464 15.7784L8.47323 13.7913ZM4.70085 9.71766C4.70085 8.85851 4.99968 8.18128 5.49369 7.63902L4.01524 6.29211C3.20096 7.18591 2.70085 8.33799 2.70085 9.71766H4.70085ZM5.67935 6.58531C5.63672 6.48163 5.35206 5.71718 5.78418 4.61807L3.92287 3.88628C3.24448 5.61177 3.65986 6.933 3.82958 7.34581L5.67935 6.58531ZM4.85353 4.25218C5.15909 5.20435 5.15813 5.20466 5.15718 5.20496C5.15687 5.20506 5.15591 5.20536 5.15529 5.20556C5.15403 5.20596 5.15279 5.20635 5.15155 5.20673C5.14909 5.2075 5.14667 5.20825 5.14429 5.20897C5.13954 5.21041 5.13497 5.21175 5.13059 5.213C5.12183 5.2155 5.11382 5.21764 5.10657 5.21945C5.09205 5.22309 5.08065 5.22543 5.07246 5.22692C5.05597 5.2299 5.05296 5.22931 5.06418 5.22879C5.08596 5.22779 5.16947 5.22673 5.32051 5.25863C5.62421 5.32277 6.20829 5.522 7.10472 6.13054L8.22803 4.47579C7.17032 3.75777 6.34798 3.43151 5.73379 3.3018C5.42589 3.23677 5.17258 3.22169 4.97229 3.2309C4.87247 3.23549 4.7871 3.24606 4.71602 3.25894C4.68053 3.26536 4.64878 3.27234 4.62073 3.27936C4.60671 3.28287 4.59364 3.28639 4.58151 3.28985C4.57544 3.29158 4.56962 3.2933 4.56403 3.295C4.56123 3.29584 4.55849 3.29668 4.55582 3.29752C4.55448 3.29794 4.55316 3.29835 4.55185 3.29877C4.55119 3.29897 4.55022 3.29928 4.5499 3.29939C4.54893 3.2997 4.54797 3.3 4.85353 4.25218ZM7.93468 6.2665C8.65784 6.0651 9.44339 5.96168 10.2304 5.95815L10.2214 3.95817C9.27035 3.96244 8.30631 4.08688 7.39808 4.33983L7.93468 6.2665ZM10.2214 5.95815C11.0084 5.96168 11.7948 6.06509 12.5198 6.26663L13.0555 4.3397C12.146 4.08689 11.1815 3.96244 10.2304 3.95817L10.2214 5.95815ZM13.3497 6.13022C14.245 5.52174 14.8281 5.32264 15.1311 5.25858C15.2817 5.22672 15.3649 5.2278 15.3864 5.22879C15.3975 5.2293 15.3944 5.22988 15.3778 5.22687C15.3696 5.22538 15.3581 5.22302 15.3436 5.21937C15.3363 5.21755 15.3283 5.21541 15.3195 5.2129C15.3151 5.21165 15.3106 5.2103 15.3058 5.20886C15.3034 5.20814 15.301 5.20739 15.2985 5.20662C15.2973 5.20623 15.296 5.20584 15.2948 5.20544C15.2942 5.20524 15.2932 5.20494 15.2929 5.20484C15.2919 5.20453 15.291 5.20423 15.5969 4.25218C15.9029 3.30013 15.9019 3.29982 15.9009 3.29951C15.9006 3.2994 15.8996 3.29909 15.899 3.29889C15.8977 3.29847 15.8963 3.29806 15.895 3.29764C15.8923 3.2968 15.8896 3.29596 15.8868 3.29511C15.8812 3.29341 15.8754 3.29169 15.8693 3.28995C15.8572 3.28648 15.8441 3.28295 15.83 3.27944C15.802 3.2724 15.7702 3.26542 15.7347 3.25898C15.6636 3.24608 15.5782 3.2355 15.4784 3.23091C15.2782 3.22168 15.025 3.23678 14.7173 3.30185C14.1035 3.43164 13.282 3.75803 12.2255 4.47611L13.3497 6.13022ZM14.6666 4.61884C15.0996 5.7176 14.8149 6.48167 14.7723 6.58531L16.6221 7.34581C16.7918 6.93296 17.2075 5.61135 16.5273 3.88551L14.6666 4.61884ZM14.9587 7.63987C15.4523 8.18042 15.7496 8.85681 15.7496 9.71766H17.7496C17.7496 8.33969 17.2534 7.18677 16.4356 6.29125L14.9587 7.63987ZM15.7496 9.71766C15.7496 11.4688 15.2289 12.3568 14.626 12.8628C13.9743 13.4097 13.0511 13.6623 11.9695 13.7828L12.1911 15.7705C13.3866 15.6373 14.798 15.3294 15.9117 14.3948C17.0742 13.4192 17.7496 11.9046 17.7496 9.71766H15.7496ZM11.425 15.532C11.5268 15.6203 11.7739 15.9415 11.7739 16.6754H13.7739C13.7739 15.4961 13.3674 14.5694 12.7356 14.0213L11.425 15.532ZM11.7739 16.6754C11.7739 17.3586 11.771 17.9754 11.768 18.464C11.7651 18.9487 11.7621 19.3163 11.7621 19.4891H13.7621C13.7621 19.3243 13.765 18.971 13.768 18.4761C13.7709 17.9854 13.7739 17.3642 13.7739 16.6754H11.7739ZM11.7621 19.4891C11.7621 19.8262 11.8735 20.2739 12.2436 20.6127C12.6459 20.981 13.1709 21.0567 13.6551 20.9627L13.2738 18.9994C13.2508 19.0038 13.2838 18.9934 13.3534 19.0089C13.4286 19.0257 13.5163 19.0663 13.5942 19.1376C13.7426 19.2735 13.7621 19.4249 13.7621 19.4891H11.7621ZM13.7815 20.9294C18.2396 19.4394 21.4516 15.2231 21.4516 10.2532H19.4516C19.4516 14.3405 16.8111 17.8081 13.1475 19.0326L13.7815 20.9294ZM21.4516 10.2532C21.4516 4.04062 16.4281 -1 10.2259 -1V1C15.3185 1 19.4516 5.14017 19.4516 10.2532H21.4516ZM2.91535 14.2015C3.07722 13.8354 3.39629 13.7037 3.58181 13.6699C3.7764 13.6344 3.95174 13.6704 4.08765 13.7357L3.22168 15.5385C3.43041 15.6388 3.68212 15.6846 3.94051 15.6375C4.18983 15.592 4.56012 15.4273 4.74452 15.0102L2.91535 14.2015ZM4.06577 13.7255C4.19222 13.7825 4.33015 13.886 4.4305 14.054C4.52798 14.2172 4.63854 14.5458 4.46774 14.9088L2.65804 14.0574C2.46319 14.4715 2.58255 14.8604 2.71339 15.0794C2.84711 15.3034 3.04295 15.4582 3.24357 15.5487L4.06577 13.7255ZM4.48501 14.87C4.32783 15.2446 4.00342 15.3831 3.81011 15.4182C3.61229 15.4541 3.43897 15.4157 3.30998 15.3545L4.16802 13.5479C3.96503 13.4515 3.71466 13.4028 3.45279 13.4504C3.19543 13.4971 2.81996 13.6691 2.64077 14.0962L4.48501 14.87ZM3.32868 15.3631C3.20196 15.3061 3.06274 15.2021 2.96179 15.0319C2.86317 14.8655 2.75086 14.5253 2.93681 14.156L4.72306 15.0557C4.93475 14.6353 4.81414 14.2345 4.6822 14.0119C4.54793 13.7855 4.35037 13.6297 4.14932 13.5392L3.32868 15.3631ZM3.6521 14.3234C3.94235 14.0536 4.28146 14.0616 4.45401 14.1004C4.63636 14.1415 4.77369 14.2357 4.8664 14.3384L3.38188 15.6786C3.53928 15.853 3.75663 15.9935 4.01501 16.0517C4.26358 16.1076 4.67475 16.1035 5.01377 15.7883L3.6521 14.3234ZM4.85432 14.3252C4.94569 14.4229 5.03018 14.5671 5.05618 14.756C5.08145 14.9395 5.05477 15.2675 4.7754 15.5275L3.41294 14.0634C3.08413 14.3693 3.03898 14.7681 3.07488 15.0288C3.11151 15.2949 3.2357 15.5226 3.39397 15.6918L4.85432 14.3252ZM4.7637 15.5382C4.48145 15.7926 4.15307 15.7917 3.97148 15.7505C3.78799 15.7089 3.65763 15.6154 3.57466 15.527L5.03329 14.1586C4.88326 13.9987 4.67315 13.8589 4.41409 13.8001C4.15694 13.7417 3.75719 13.7529 3.42464 14.0526L4.7637 15.5382ZM3.56979 15.5217C3.48377 15.4287 3.398 15.2864 3.37182 15.0944C3.34576 14.9033 3.37774 14.57 3.66422 14.3124L5.00165 15.7994C5.3391 15.4959 5.39004 15.0923 5.35348 14.8242C5.31681 14.5552 5.19107 14.3292 5.03816 14.1638L3.56979 15.5217ZM4.10651 14.8111C4.43303 14.5837 4.76799 14.644 4.92821 14.7066C5.09486 14.7718 5.20445 14.8771 5.27088 14.9727L3.62827 16.1137C3.75804 16.3005 3.95051 16.4718 4.19988 16.5693C4.44282 16.6643 4.86034 16.7233 5.24952 16.4523L4.10651 14.8111ZM5.27374 14.9768C5.3426 15.077 5.40345 15.2227 5.40275 15.4071C5.40205 15.5885 5.33019 15.9089 5.0157 16.1241L3.88616 14.4736C3.50766 14.7327 3.4038 15.1297 3.40276 15.3994C3.40172 15.6723 3.4939 15.9182 3.62541 16.1096L5.27374 14.9768ZM5.01876 16.122C4.70331 16.3396 4.37711 16.2901 4.20914 16.2261C4.03925 16.1614 3.92922 16.0556 3.86384 15.9634L5.49523 14.8065C5.36568 14.6238 5.17309 14.4531 4.92082 14.357C4.67047 14.2617 4.26205 14.2143 3.8831 14.4757L5.01876 16.122ZM3.85031 15.9439C3.78513 15.8472 3.72544 15.7045 3.72622 15.522C3.72699 15.3418 3.79799 15.0263 4.10586 14.8115L5.25016 16.4518C5.62204 16.1924 5.72505 15.7999 5.7262 15.5306C5.72736 15.2591 5.63643 15.0155 5.50876 14.826L3.85031 15.9439ZM4.51996 15.6277C4.77947 15.3408 5.11096 15.3187 5.28658 15.3443C5.46859 15.371 5.60431 15.4537 5.6942 15.5407L4.3034 16.9779C4.48067 17.1494 4.71977 17.2828 4.99733 17.3233C5.26849 17.363 5.6877 17.3182 6.00327 16.9693L4.51996 15.6277ZM5.67777 15.5251C5.76591 15.6066 5.8539 15.7324 5.89205 15.9068C5.92886 16.0751 5.93152 16.3934 5.68137 16.6692L4.20007 15.3254C3.8937 15.6631 3.8807 16.0711 3.93825 16.3342C3.99714 16.6034 4.14228 16.8292 4.31983 16.9934L5.67777 15.5251ZM5.67927 16.6715C5.41837 16.9573 5.08752 16.9768 4.91563 16.9515C4.73714 16.9252 4.60424 16.8448 4.51585 16.7606L5.89527 15.3124C5.71882 15.1444 5.48187 15.0133 5.20715 14.9728C4.93904 14.9333 4.5198 14.9751 4.20217 15.3231L5.67927 16.6715ZM4.52457 16.7688C4.43959 16.6898 4.35094 16.5655 4.31237 16.3891C4.27447 16.2158 4.27305 15.8799 4.5457 15.6003L5.97753 16.9967C6.30995 16.6558 6.32487 16.2301 6.26619 15.9618C6.20683 15.6904 6.06027 15.4658 5.88656 15.3042L4.52457 16.7688ZM5.06012 16.2294C5.17213 15.8655 5.45578 15.7075 5.61601 15.6559C5.78251 15.6024 5.93139 15.6142 6.04296 15.6471L5.4777 17.5655C5.70509 17.6325 5.96938 17.6432 6.2285 17.5598C6.48136 17.4785 6.83486 17.262 6.9716 16.8178L5.06012 16.2294ZM6.05108 15.6495C6.16365 15.6837 6.29524 15.7565 6.40491 15.8935C6.51078 16.0257 6.65734 16.3113 6.55331 16.6726L4.63139 16.1192C4.50398 16.5617 4.6767 16.9349 4.8435 17.1433C5.01408 17.3564 5.24135 17.4937 5.46957 17.5631L6.05108 15.6495ZM6.55082 16.6811C6.44204 17.0467 6.15864 17.2087 5.99383 17.2621C5.82243 17.3176 5.66733 17.3047 5.54995 17.268L6.14716 15.3592C5.91311 15.286 5.64192 15.2738 5.3776 15.3594C5.11987 15.4429 4.7667 15.6643 4.63387 16.1108L6.55082 16.6811ZM5.5587 17.2707C5.4477 17.237 5.31518 17.1649 5.20421 17.0265C5.09567 16.891 4.95014 16.6027 5.05657 16.2412L6.97514 16.8061C7.10562 16.3629 6.93418 15.987 6.76485 15.7757C6.59309 15.5614 6.3649 15.4251 6.13841 15.3565L5.5587 17.2707ZM5.8748 16.6531C5.86161 16.2657 6.0856 16.0192 6.2291 15.9161C6.37625 15.8104 6.52664 15.7769 6.64473 15.7754L6.66987 17.7752C6.90955 17.7722 7.16984 17.7028 7.39577 17.5406C7.61806 17.3809 7.88971 17.0571 7.87364 16.5851L5.8748 16.6531ZM6.63509 15.7756C6.75808 15.7728 6.91119 15.8035 7.06086 15.9047C7.20446 16.0018 7.42853 16.2334 7.43466 16.6101L5.43493 16.6427C5.44241 17.1026 5.7166 17.41 5.94056 17.5615C6.17058 17.717 6.43426 17.7805 6.67952 17.7751L6.63509 15.7756ZM7.43479 16.6264C7.43479 16.9876 7.22924 17.2225 7.08246 17.3282C6.93485 17.4345 6.78469 17.4675 6.66973 17.4694L6.63641 15.4697C6.39918 15.4736 6.13989 15.5423 5.91371 15.7052C5.68836 15.8675 5.43479 16.1798 5.43479 16.6264H7.43479ZM6.67262 17.4693C6.55123 17.4717 6.3983 17.4415 6.24797 17.3395C6.10234 17.2408 5.87422 17.0031 5.87422 16.6191H7.87422C7.87422 16.1511 7.59632 15.8374 7.37051 15.6843C7.14 15.5279 6.87649 15.465 6.63352 15.4697L6.67262 17.4693ZM6.73269 16.7605C6.66706 16.3886 6.84422 16.1182 6.96657 15.9962C7.09251 15.8705 7.23176 15.8144 7.34295 15.7936L7.71064 17.7595C7.94257 17.7161 8.18444 17.6063 8.37917 17.412C8.57032 17.2213 8.78244 16.8673 8.70225 16.4129L6.73269 16.7605ZM7.34671 15.7929C7.4686 15.7705 7.62214 15.7772 7.78259 15.8507C7.93486 15.9205 8.19765 16.11 8.26658 16.4844L6.29966 16.8466C6.38366 17.3027 6.70894 17.5587 6.94961 17.669C7.19845 17.783 7.46629 17.8042 7.70689 17.7602L7.34671 15.7929ZM8.26828 16.4938C8.33236 16.8616 8.15824 17.1304 8.03524 17.2534C7.90983 17.3789 7.76984 17.4364 7.65465 17.4576L7.29125 15.4909C7.05752 15.5341 6.81525 15.6449 6.62088 15.8394C6.42891 16.0314 6.21915 16.3848 6.29796 16.8371L8.26828 16.4938ZM7.6445 17.4595C7.53388 17.4787 7.38197 17.4755 7.21746 17.3999C7.05416 17.3249 6.80076 17.1312 6.73393 16.7674L8.70101 16.406C8.61876 15.9583 8.30357 15.6979 8.05208 15.5824C7.79939 15.4663 7.53293 15.4488 7.3014 15.4891L7.6445 17.4595Z" fill="#636363" mask="url(#path-1-inside-1_361_1909)"/>
</svg>
