<svg width="17" height="17" viewBox="0 0 17 17" fill="none" xmlns="http://www.w3.org/2000/svg">
<path d="M10.375 7.0001C9.75251 7.0001 9.25 6.49759 9.25 5.87508V2.12502C9.25 1.50251 9.75251 1 10.375 1C10.9975 1 11.5 1.50251 11.5 2.12502V5.87508C11.5 6.49759 10.9975 7.0001 10.375 7.0001Z" stroke="#636363" stroke-width="1.5" stroke-linecap="round" stroke-linejoin="round"/>
<path d="M14.875 7.00004H13.75V5.87502C13.75 5.25251 14.2525 4.75 14.875 4.75C15.4975 4.75 16 5.25251 16 5.87502C16 6.49753 15.4975 7.00004 14.875 7.00004Z" stroke="#636363" stroke-width="1.5" stroke-linecap="round" stroke-linejoin="round"/>
<path d="M6.62502 9.99976C7.24753 9.99976 7.75004 10.5023 7.75004 11.1248V14.8748C7.75004 15.4974 7.24753 15.9999 6.62502 15.9999C6.00251 15.9999 5.5 15.4974 5.5 14.8748V11.1248C5.5 10.5023 6.00251 9.99976 6.62502 9.99976Z" stroke="#636363" stroke-width="1.5" stroke-linecap="round" stroke-linejoin="round"/>
<path d="M2.12502 9.99976H3.25004V11.1248C3.25004 11.7473 2.74753 12.2498 2.12502 12.2498C1.50251 12.2498 1 11.7473 1 11.1248C1 10.5023 1.50251 9.99976 2.12502 9.99976Z" stroke="#636363" stroke-width="1.5" stroke-linecap="round" stroke-linejoin="round"/>
<path d="M10 10.3758C10 9.75324 10.5025 9.25073 11.125 9.25073H14.8751C15.4976 9.25073 16.0001 9.75324 16.0001 10.3758C16.0001 10.9983 15.4976 11.5008 14.8751 11.5008H11.125C10.5025 11.5008 10 10.9983 10 10.3758Z" stroke="#636363" stroke-width="1.5" stroke-linecap="round" stroke-linejoin="round"/>
<path d="M11.125 13.7502H10V14.8753C10 15.4978 10.5025 16.0003 11.125 16.0003C11.7475 16.0003 12.25 15.4978 12.25 14.8753C12.25 14.2528 11.7475 13.7502 11.125 13.7502Z" stroke="#636363" stroke-width="1.5" stroke-linecap="round" stroke-linejoin="round"/>
<path d="M7.0001 6.62575C7.0001 6.00324 6.49759 5.50073 5.87508 5.50073H2.12502C1.50251 5.50073 1 6.00324 1 6.62575C1 7.24826 1.50251 7.75077 2.12502 7.75077H5.87508C6.49759 7.75077 7.0001 7.24826 7.0001 6.62575Z" stroke="#636363" stroke-width="1.5" stroke-linecap="round" stroke-linejoin="round"/>
<path d="M5.87502 3.25004H7.00004V2.12502C7.00004 1.50251 6.49753 1 5.87502 1C5.25251 1 4.75 1.50251 4.75 2.12502C4.75 2.74753 5.25251 3.25004 5.87502 3.25004Z" stroke="#636363" stroke-width="1.5" stroke-linecap="round" stroke-linejoin="round"/>
</svg>
