<svg width="18" height="20" viewBox="0 0 18 20" fill="none" xmlns="http://www.w3.org/2000/svg">
<path d="M1.40432 1C0.757321 1 0.378071 1.72877 0.748071 2.25977L6.73635 10.8184L0.724633 17.8457C0.335633 18.2997 0.657883 19 1.25588 19H1.91995C2.21295 19 2.49166 18.8714 2.68166 18.6484L7.91995 12.5117L11.8633 18.1465C12.2383 18.6805 12.85 19 13.502 19H16.836C17.483 19 17.8622 18.2722 17.4922 17.7422L11.1739 8.69922L16.9004 1.99023C17.2324 1.60023 16.9554 1 16.4434 1H15.5977C15.3057 1 15.0279 1.12761 14.8379 1.34961L9.99612 7.00977L6.39456 1.85547C6.02056 1.31947 5.40988 1 4.75588 1H1.40432Z" fill="#8A8A8A"/>
</svg>
