<svg width="21" height="17" viewBox="0 0 21 17" fill="none" xmlns="http://www.w3.org/2000/svg">
<path d="M19.3909 1.00841C18.5904 1.57307 17.704 2.00495 16.766 2.28741C16.2625 1.70852 15.5934 1.29822 14.8492 1.112C14.1049 0.925781 13.3215 0.972624 12.6047 1.24619C11.888 1.51977 11.2725 2.00686 10.8416 2.64161C10.4107 3.27636 10.1852 4.02813 10.1954 4.79525V5.6312C8.72637 5.6693 7.27068 5.34348 5.95802 4.68277C4.64536 4.02207 3.51647 3.04698 2.6719 1.84435C2.6719 1.84435 -0.671897 9.36789 6.85164 12.7117C5.13003 13.8803 3.07914 14.4663 1 14.3836C8.52354 18.5633 17.719 14.3836 17.719 4.77018C17.7182 4.53733 17.6958 4.30505 17.6521 4.07634C18.5053 3.23495 19.1073 2.17264 19.3909 1.00841V1.00841Z" stroke="#636363" stroke-width="1.5" stroke-linecap="round" stroke-linejoin="round"/>
</svg>
