<svg xmlns="http://www.w3.org/2000/svg" xmlns:xlink="http://www.w3.org/1999/xlink" width="64" height="64" fill="none" xmlns:v="https://vecta.io/nano"><g clip-path="url(#A)"><path d="M30.913.362L14.998 8.027c-.495.238-.929.584-1.271 1.013s-.584.929-.706 1.464l-3.93 17.224c-.122.534-.121 1.09.001 1.624s.363 1.035.705 1.463L20.812 44.63c.343.428.777.773 1.271 1.01s1.035.36 1.583.36h17.667c.548 0 1.089-.123 1.583-.36s.928-.582 1.271-1.01l11.015-13.815c.342-.429.583-.929.705-1.463s.122-1.09.001-1.624l-3.932-17.224c-.122-.535-.363-1.035-.705-1.464s-.776-.775-1.27-1.013L34.083.362C33.588.124 33.047 0 32.498 0s-1.09.124-1.585.362h0z" fill="#1c7bd4"/><g fill="#fff"><path d="M49.441 25.242a5.71 5.71 0 0 0-3.425-3.039.29.29 0 0 1-.189-.116c-.045-.062-.064-.139-.053-.215a6.14 6.14 0 0 0-.062-.847 5.8 5.8 0 0 0-4.425-4.727c-.457-.103-1.03 0-1.295-.575a1.25 1.25 0 0 0-.228-.297 9.01 9.01 0 0 0-3.026-2.206 7.59 7.59 0 0 0-2.793-.724l-5.252-.075H26.75c-.176 0-.352.048-.527.059-.368.025-.76.559-.717.913a.94.94 0 0 0 .913.884h2.548c.188.017.364.098.498.23s.219.306.239.494c.071.685-.473 1.009-.996 1.005-2.158-.018-4.316 0-6.471 0a.95.95 0 0 0-.87.649.85.85 0 0 0 .386 1.005 1.44 1.44 0 0 0 .639.187h2.598a9.32 9.32 0 0 0-.685 4.144h-.345-9.403c-.131-.023-.265-.017-.393.017a.91.91 0 0 0-.349.181c-.102.085-.184.191-.241.311a.91.91 0 0 0-.088.384c-.001.133.027.264.082.385s.135.228.236.315a.91.91 0 0 0 .739.209h4.686c.434 0 .838.117 1.032.562a.89.89 0 0 1-.873 1.219h-3.761c-.121.004-.241.032-.351.083s-.21.122-.292.211-.147.193-.189.307a.94.94 0 0 0-.058.356c.004.121.033.241.083.351a.91.91 0 0 0 .211.292c.089.082.193.147.307.189a.94.94 0 0 0 .356.058h1.009c-.013.187-.013.375 0 .562a10.25 10.25 0 0 0 .29 1.598 5.63 5.63 0 0 0 1.872 2.719 5.46 5.46 0 0 0 3.441 1.299h21.996a4.78 4.78 0 0 0 1.208-.155c1.783-.47 3.117-1.503 3.912-3.197a5.61 5.61 0 0 0 .016-5.005h0zm-19.605-.493c-.079.064-.179.096-.281.09s-.197-.048-.269-.12l-.685-.685c-.071-.072-.114-.168-.119-.27a.42.42 0 0 1 .089-.281l.402-.507a3.66 3.66 0 0 1-.333-.79l-.637-.073c-.1-.012-.193-.061-.26-.136s-.105-.173-.105-.275v-.98c0-.101.038-.199.105-.274s.16-.124.26-.137l.605-.068a3.58 3.58 0 0 1 .34-.863l-.377-.477c-.064-.079-.096-.179-.09-.281s.048-.197.12-.27l.685-.685c.072-.072.168-.114.269-.12a.42.42 0 0 1 .281.088l.457.358a3.57 3.57 0 0 1 .913-.39l.066-.562a.41.41 0 0 1 .135-.262c.076-.068.174-.105.276-.105h.977c.102 0 .2.037.276.105a.41.41 0 0 1 .135.262l.066.562a3.54 3.54 0 0 1 .9.377l.434-.345c.08-.063.18-.095.281-.089s.197.049.269.121l.685.685c.071.072.114.168.119.27s-.026.201-.09.281l-.354.457a3.58 3.58 0 0 1 .347.856l.575.066c.101.012.194.06.262.136a.42.42 0 0 1 .106.275v.979c-.001.102-.038.2-.106.275a.42.42 0 0 1-.262.136l-.582.066c-.083.303-.205.594-.363.865l.379.48c.063.08.095.18.089.282s-.049.198-.121.27l-.685.685c-.072.072-.168.115-.269.121s-.202-.026-.281-.089l-.486-.386a3.59 3.59 0 0 1-.879.356l-.073.626c-.012.101-.06.194-.136.261s-.174.104-.275.104h-.98c-.101 0-.199-.037-.275-.104s-.124-.16-.136-.261l-.075-.648a3.7 3.7 0 0 1-.82-.347l-.5.384zm6.818 4.243a.41.41 0 0 1-.368.402l-.272.03a2.41 2.41 0 0 1-.249.573l.176.228a.41.41 0 0 1-.039.543l-.297.29a.41.41 0 0 1-.543.025l-.228-.185c-.186.101-.384.178-.589.228l-.036.299a.41.41 0 0 1-.413.356h-.413a.41.41 0 0 1-.404-.368l-.032-.315c-.19-.052-.373-.129-.543-.228l-.244.189a.41.41 0 0 1-.546-.039l-.29-.297c-.07-.072-.111-.167-.116-.267s.029-.199.093-.276l.196-.242a2.31 2.31 0 0 1-.217-.53l-.306-.039a.41.41 0 0 1-.356-.411v-.416a.41.41 0 0 1 .368-.402l.285-.03a2.44 2.44 0 0 1 .228-.575l-.176-.228a.41.41 0 0 1 .039-.543l.297-.292a.41.41 0 0 1 .546-.023l.203.167a2.51 2.51 0 0 1 .619-.253l.032-.256a.41.41 0 0 1 .413-.356h.413a.41.41 0 0 1 .404.368l.025.258a2.27 2.27 0 0 1 .596.258l.199-.153a.41.41 0 0 1 .546.039l.29.297a.41.41 0 0 1 .023.543l-.164.203a2.43 2.43 0 0 1 .228.573l.265.034a.41.41 0 0 1 .359.411v.409zm5.921-3.519l-.411.084a2.97 2.97 0 0 1-.228.731l.299.317a.41.41 0 0 1 .112.269c.003.101-.031.198-.096.275l-.436.516a.41.41 0 0 1-.539.078l-.372-.247a3.02 3.02 0 0 1-.685.352l-.014.457a.41.41 0 0 1-.377.395l-.674.057a.41.41 0 0 1-.434-.329l-.094-.457a2.97 2.97 0 0 1-.685-.228l-.374.311a.41.41 0 0 1-.544.014l-.516-.436a.41.41 0 0 1-.078-.539l.258-.388c-.132-.195-.242-.404-.327-.623l-.457-.014a.41.41 0 0 1-.395-.377l-.057-.674a.41.41 0 0 1 .329-.434l.425-.089a3.03 3.03 0 0 1 .228-.726l-.299-.317a.41.41 0 0 1-.016-.546l.436-.518a.41.41 0 0 1 .541-.078l.34.228c.223-.16.467-.289.726-.381l.014-.399c.002-.101.042-.197.111-.27s.163-.118.263-.126l.674-.057a.41.41 0 0 1 .436.327l.08.393a2.99 2.99 0 0 1 .76.247l.285-.267a.41.41 0 0 1 .543-.014l.516.436a.4.4 0 0 1 .073.539l-.228.338a2.93 2.93 0 0 1 .343.685l.411.014a.41.41 0 0 1 .395.374l.057.685c.002.096-.029.189-.088.265s-.143.128-.236.149h.002zm-10.403-2.378c-.385 0-.761-.114-1.081-.328s-.569-.518-.716-.873a1.95 1.95 0 0 1-.111-1.124c.075-.377.26-.724.532-.996s.619-.457.996-.532a1.95 1.95 0 0 1 1.124.111c.356.147.659.397.873.716a1.94 1.94 0 0 1 .328 1.081c0 .516-.205 1.011-.57 1.376s-.86.57-1.376.57h0zm0-3.235a1.29 1.29 0 0 0-.912 2.202 1.29 1.29 0 0 0 2.203-.912 1.29 1.29 0 0 0-1.29-1.29h0zm7.019 6.786a1.61 1.61 0 0 1-1.055-2.763c.301-.294.706-.459 1.127-.459A1.61 1.61 0 0 1 40.875 25a1.61 1.61 0 0 1-1.54 1.646h0-.144zm0-2.649h-.087a1 1 0 0 0-.957 1.08 1 1 0 0 0 1.124.906h0a1 1 0 0 0 .902-1.034 1 1 0 0 0-.985-.957l.002.005zm-5.544 6.145h-.016c-.375-.002-.733-.153-.997-.419a1.41 1.41 0 0 1-.41-1.001 1.42 1.42 0 0 1 1.416-1.411 1.42 1.42 0 0 1 1 .413c.266.264.415.624.416.999a1.42 1.42 0 0 1-.41 1.001c-.263.266-.623.417-.997.419h0zm0-2.158a.75.75 0 0 0-.693.461.76.76 0 0 0-.046.432c.027.145.097.28.2.386.069.071.151.127.242.166a.75.75 0 0 0 .82-.155c.106-.104.178-.237.209-.383a.75.75 0 0 0-.31-.774.75.75 0 0 0-.415-.133h-.007z"/></g><g fill="#fc6011"><path d="M5.986 57.94H2.482v2.625h4.096v1.183H1v-8.531h5.537v1.195H2.482v2.355h3.504v1.172zm3.833-2.532l.041.732c.469-.566 1.084-.85 1.846-.85 1.32 0 1.992.756 2.016 2.268v4.189h-1.424V57.64c0-.402-.088-.699-.264-.891s-.455-.293-.85-.293c-.574 0-1.002.26-1.283.779v4.512H8.477v-6.34h1.342zm7.992-1.541v1.541h1.119v1.055h-1.119v3.539c0 .242.047.418.141.527s.269.158.516.158a2.19 2.19 0 0 0 .498-.059v1.102a3.5 3.5 0 0 1-.937.135c-1.094 0-1.641-.604-1.641-1.811v-3.592h-1.043v-1.055h1.043v-1.541h1.424zm5.854 7.998c-.902 0-1.635-.283-2.197-.85s-.838-1.328-.838-2.273v-.176c0-.633.121-1.197.363-1.693a2.8 2.8 0 0 1 1.031-1.166 2.72 2.72 0 0 1 1.477-.416c.863 0 1.529.275 1.998.826s.709 1.33.709 2.338v.574h-4.143c.043.523.217.938.521 1.242s.695.457 1.16.457c.652 0 1.184-.264 1.594-.791l.768.732a2.58 2.58 0 0 1-1.02.885 3.19 3.19 0 0 1-1.424.311zm-.17-5.432c-.391 0-.707.137-.949.41s-.391.654-.457 1.142h2.713v-.105c-.031-.477-.158-.836-.381-1.078s-.531-.369-.926-.369z"/><use xlink:href="#B"/><path d="M38.789 58.643c0 .98-.223 1.764-.668 2.35a2.14 2.14 0 0 1-1.793.873c-.695 0-1.252-.229-1.67-.686v3.006h-1.424v-8.777h1.313l.059.645c.418-.508.986-.762 1.705-.762.774 0 1.379.289 1.817.867s.662 1.373.662 2.396v.088zm-1.418-.123c0-.633-.127-1.135-.381-1.506a1.22 1.22 0 0 0-1.078-.557c-.582 0-1 .24-1.254.721v2.813c.258.492.68.738 1.266.738a1.22 1.22 0 0 0 1.061-.545c.258-.367.387-.922.387-1.664zm6.797-1.811a3.52 3.52 0 0 0-.58-.047c-.652 0-1.092.25-1.318.75v4.336h-1.424v-6.34h1.359l.035.709c.344-.551.82-.826 1.43-.826.203 0 .371.027.504.082l-.006 1.336zm3.264 5.039h-1.424v-6.34h1.424v6.34zm-1.512-7.986a.76.76 0 0 1 .205-.545c.141-.145.34-.217.598-.217s.457.072.598.217a.75.75 0 0 1 .211.545.74.74 0 0 1-.211.539c-.141.144-.34.211-.598.211s-.457-.07-.598-.211a.73.73 0 0 1-.205-.539zm7.472 6.263c0-.254-.106-.447-.316-.58s-.553-.25-1.037-.352-.889-.23-1.213-.387c-.711-.344-1.066-.842-1.066-1.494 0-.547.23-1.004.691-1.371s1.047-.551 1.758-.551c.758 0 1.369.188 1.834.563a1.78 1.78 0 0 1 .703 1.459h-1.424a.87.87 0 0 0-.305-.68c-.203-.184-.473-.275-.809-.275-.312 0-.568.072-.768.217s-.293.338-.293.58c0 .219.092.389.275.51s.555.244 1.113.369.996.268 1.313.44.557.371.709.609a1.58 1.58 0 0 1 .234.867c0 .57-.236 1.033-.709 1.389s-1.092.527-1.857.527c-.52 0-.982-.094-1.389-.281s-.723-.445-.949-.774a1.83 1.83 0 0 1-.34-1.06h1.383c.02.336.146.596.381.779s.545.27.932.27c.375 0 .66-.07.855-.211a.67.67 0 0 0 .293-.562zm6.287 1.84c-.902 0-1.635-.283-2.197-.85s-.838-1.328-.838-2.273v-.176c0-.633.121-1.197.363-1.693a2.8 2.8 0 0 1 1.031-1.166 2.72 2.72 0 0 1 1.477-.416c.863 0 1.529.275 1.998.826s.709 1.33.709 2.338v.574H58.08c.043.523.217.938.521 1.242s.695.457 1.16.457c.652 0 1.184-.264 1.594-.791l.768.732a2.58 2.58 0 0 1-1.02.885c-.422.207-.896.311-1.424.311zm-.17-5.432c-.391 0-.707.137-.949.41s-.391.654-.457 1.142h2.713v-.105c-.031-.477-.158-.836-.381-1.078s-.531-.369-.926-.369z"/></g></g><defs><clipPath id="A"><path fill="#fff" d="M0 0h64v64H0z"/></clipPath><path id="B" d="M31.488 56.709a3.52 3.52 0 0 0-.58-.047c-.652 0-1.092.25-1.318.75v4.336h-1.424v-6.34h1.359l.035.709c.344-.551.82-.826 1.43-.826.203 0 .371.027.504.082l-.006 1.336z"/></defs></svg>