<svg width="64" height="64" viewBox="0 0 64 64" fill="none" xmlns="http://www.w3.org/2000/svg">
<path d="M30.9134 0.361573L14.9981 8.02696C14.5036 8.2649 14.069 8.61118 13.7267 9.04008C13.3844 9.46899 13.143 9.9695 13.0207 10.5045L9.09092 27.7282C8.96938 28.2627 8.9697 28.8178 9.09184 29.3522C9.21398 29.8866 9.45481 30.3867 9.7965 30.8154L20.8116 44.63C21.1542 45.0578 21.5886 45.4031 22.0827 45.6402C22.5767 45.8774 23.1178 46.0003 23.6659 46H41.3326C41.8807 46.0003 42.4218 45.8774 42.9159 45.6402C43.4099 45.4031 43.8443 45.0578 44.1869 44.63L55.202 30.8154C55.5437 30.3867 55.7845 29.8866 55.9067 29.3522C56.0288 28.8178 56.0291 28.2627 55.9076 27.7282L51.9756 10.5045C51.8534 9.96972 51.6125 9.46934 51.2705 9.04045C50.9286 8.61156 50.4945 8.26517 50.0004 8.02696L34.0828 0.361573C33.5884 0.123584 33.0468 0 32.4981 0C31.9494 0 31.4078 0.123584 30.9134 0.361573V0.361573Z" fill="#1C7BD4"/>
<path d="M49.4411 25.2415C49.1109 24.5259 48.6361 23.8865 48.0466 23.3634C47.4571 22.8403 46.7657 22.445 46.016 22.2023C45.9402 22.1899 45.8724 22.1483 45.8271 22.0863C45.7818 22.0244 45.7627 21.9471 45.7739 21.8712C45.7729 21.5877 45.7523 21.3047 45.7123 21.024C45.5282 19.8855 45.0089 18.8276 44.2206 17.9857C43.4324 17.1438 42.411 16.556 41.287 16.2974C40.8303 16.1946 40.2572 16.2974 39.9923 15.722C39.9315 15.6121 39.8546 15.5121 39.764 15.4251C38.9211 14.4861 37.8903 13.7347 36.7385 13.2194C35.8624 12.8018 34.9145 12.5561 33.9459 12.4955C32.1991 12.427 30.4477 12.4384 28.694 12.4202C28.0456 12.4202 27.3994 12.4202 26.7509 12.4202C26.575 12.4202 26.3992 12.4681 26.2234 12.4795C25.8558 12.5047 25.463 13.039 25.5064 13.3929C25.5206 13.6277 25.6222 13.8487 25.7913 14.0123C25.9604 14.1759 26.1846 14.2702 26.4198 14.2766C27.2692 14.2537 28.1186 14.2766 28.9681 14.2766C29.1557 14.2934 29.3317 14.3747 29.4662 14.5067C29.6006 14.6387 29.6852 14.8131 29.7056 15.0004C29.7764 15.6854 29.2329 16.0097 28.71 16.0051C26.5522 15.9868 24.3944 16.0051 22.2389 16.0051C22.0449 16.0111 21.8574 16.0765 21.7019 16.1925C21.5463 16.3085 21.43 16.4694 21.3689 16.6536C21.3073 16.8399 21.3121 17.0417 21.3824 17.2249C21.4527 17.408 21.5843 17.5612 21.7548 17.6583C21.9503 17.7698 22.1693 17.8339 22.3941 17.8455C23.2504 17.8661 24.1067 17.8455 24.9926 17.8455C24.4519 19.1569 24.2176 20.5743 24.3076 21.9899H23.9628C20.8277 21.9899 17.6926 21.9899 14.5598 21.9899C14.4291 21.967 14.2949 21.9729 14.1667 22.0071C14.0385 22.0413 13.9193 22.103 13.8173 22.188C13.7154 22.273 13.6332 22.3791 13.5765 22.4991C13.5197 22.619 13.4898 22.7499 13.4888 22.8826C13.4878 23.0153 13.5157 23.1467 13.5706 23.2675C13.6255 23.3883 13.7061 23.4957 13.8067 23.5822C13.9073 23.6687 14.0256 23.7322 14.1533 23.7684C14.281 23.8045 14.415 23.8124 14.5461 23.7915C16.1079 23.7687 17.6698 23.7778 19.2316 23.7915C19.6655 23.7915 20.0696 23.908 20.2637 24.3532C20.319 24.4919 20.3386 24.6422 20.3206 24.7904C20.3026 24.9386 20.2477 25.0799 20.1609 25.2013C20.074 25.3227 19.958 25.4204 19.8236 25.4852C19.6891 25.5501 19.5405 25.5801 19.3914 25.5726H15.6307C15.5094 25.5769 15.3901 25.6051 15.2797 25.6556C15.1693 25.706 15.07 25.7777 14.9873 25.8665C14.9046 25.9554 14.8402 26.0596 14.7978 26.1734C14.7554 26.2871 14.7358 26.408 14.7402 26.5293C14.7445 26.6506 14.7727 26.7699 14.8231 26.8803C14.8736 26.9907 14.9452 27.0901 15.0341 27.1727C15.1229 27.2554 15.2272 27.3198 15.3409 27.3622C15.4546 27.4046 15.5756 27.4242 15.6969 27.4199C16.0211 27.4199 16.35 27.4199 16.7062 27.4199C16.6935 27.6069 16.6935 27.7945 16.7062 27.9816C16.7604 28.5212 16.8574 29.0557 16.9962 29.58C17.3345 30.6532 17.9867 31.6004 18.8686 32.2995C19.8307 33.1177 21.0468 33.5769 22.3096 33.5988C29.6424 33.617 36.9744 33.617 44.3057 33.5988C44.7133 33.5985 45.1192 33.5464 45.5136 33.4435C47.297 32.9731 48.6305 31.941 49.4251 30.2467C49.8148 29.4705 50.0191 28.6145 50.0219 27.746C50.0247 26.8775 49.8259 26.0201 49.4411 25.2415V25.2415ZM29.8358 24.7483C29.7564 24.8119 29.6564 24.844 29.5549 24.8385C29.4534 24.8331 29.3575 24.7904 29.2855 24.7186L28.6004 24.0336C28.5291 23.9613 28.4867 23.8654 28.4812 23.764C28.4758 23.6627 28.5076 23.5628 28.5707 23.4833L28.9726 22.9764C28.8309 22.727 28.719 22.4618 28.6392 22.1863L28.0022 22.1132C27.9017 22.101 27.8091 22.0525 27.7418 21.9768C27.6745 21.9011 27.6372 21.8035 27.6368 21.7022V20.7226C27.6372 20.6214 27.6745 20.5237 27.7418 20.448C27.8091 20.3724 27.9017 20.3239 28.0022 20.3116L28.6073 20.2431C28.6825 19.9418 28.7969 19.6516 28.9475 19.38L28.5707 18.9028C28.5071 18.8234 28.475 18.7235 28.4805 18.6219C28.486 18.5204 28.5287 18.4245 28.6004 18.3525L29.2855 17.6674C29.3574 17.5958 29.4531 17.553 29.5545 17.5471C29.6559 17.5412 29.756 17.5726 29.8358 17.6355L30.2924 17.994C30.5772 17.8219 30.8846 17.6905 31.2058 17.6035L31.272 17.0418C31.2833 16.9407 31.3314 16.8472 31.4072 16.7794C31.4831 16.7116 31.5813 16.6741 31.683 16.6742H32.6603C32.7621 16.6741 32.8603 16.7116 32.9361 16.7794C33.0119 16.8472 33.0601 16.9407 33.0713 17.0418L33.1376 17.6035C33.4534 17.687 33.7561 17.8138 34.0372 17.9803L34.4711 17.6355C34.5507 17.5722 34.6508 17.5404 34.7523 17.5463C34.8538 17.5522 34.9496 17.5953 35.0214 17.6674L35.7064 18.3525C35.7777 18.4247 35.8201 18.5206 35.8256 18.622C35.831 18.7234 35.7992 18.8232 35.7361 18.9028L35.3821 19.3594C35.5343 19.6287 35.6509 19.9165 35.7292 20.2157L36.3046 20.2819C36.4056 20.2937 36.4987 20.3419 36.5664 20.4177C36.6342 20.4934 36.6718 20.5913 36.6723 20.6929V21.6725C36.6718 21.7741 36.6342 21.8721 36.5664 21.9478C36.4987 22.0235 36.4056 22.0718 36.3046 22.0835L35.7224 22.1498C35.6396 22.4528 35.5175 22.7438 35.3593 23.0152L35.7383 23.4947C35.8018 23.5746 35.8336 23.6752 35.8277 23.7771C35.8219 23.879 35.7787 23.9752 35.7064 24.0473L35.0214 24.7323C34.9496 24.8044 34.8538 24.8475 34.7523 24.8534C34.6508 24.8593 34.5507 24.8276 34.4711 24.7643L33.9847 24.3784C33.7087 24.5355 33.4131 24.6553 33.1056 24.7346L33.0325 25.3602C33.0208 25.4609 32.9724 25.5538 32.8966 25.6212C32.8208 25.6885 32.7229 25.7257 32.6215 25.7256H31.6419C31.5405 25.7257 31.4426 25.6885 31.3668 25.6212C31.291 25.5538 31.2427 25.4609 31.2309 25.3602L31.1556 24.7117C30.8693 24.6295 30.5941 24.5129 30.3358 24.3647L29.8358 24.7483ZM36.654 28.9908C36.6528 29.0913 36.6147 29.1878 36.5469 29.2619C36.4791 29.3361 36.3863 29.3826 36.2864 29.3927L36.0146 29.4224C35.9569 29.6234 35.8732 29.8161 35.7657 29.9955L35.9416 30.2239C36.0031 30.3034 36.0331 30.4028 36.0259 30.503C36.0188 30.6033 35.9749 30.6974 35.9028 30.7673L35.6059 31.0573C35.5342 31.1275 35.4392 31.1688 35.339 31.1734C35.2388 31.1781 35.1403 31.1457 35.0625 31.0824L34.8341 30.8975C34.6484 30.9986 34.4504 31.0753 34.245 31.1258L34.2085 31.425C34.1951 31.5246 34.1456 31.6159 34.0695 31.6815C33.9933 31.7472 33.8957 31.7826 33.7952 31.7812H33.3819C33.2812 31.78 33.1844 31.742 33.1099 31.6742C33.0354 31.6065 32.9883 31.5137 32.9777 31.4135L32.9457 31.0984C32.7555 31.046 32.5729 30.9692 32.4023 30.8701L32.158 31.0596C32.0783 31.1217 31.9784 31.1521 31.8777 31.145C31.7769 31.1378 31.6823 31.0936 31.6122 31.0208L31.3222 30.7239C31.252 30.6522 31.2107 30.557 31.2065 30.4566C31.2023 30.3563 31.2354 30.2579 31.2994 30.1805L31.4958 29.9385C31.402 29.7715 31.3291 29.5935 31.2789 29.4087L30.9729 29.3699C30.8736 29.3565 30.7827 29.3074 30.7171 29.2317C30.6515 29.156 30.6158 29.059 30.6167 28.9589V28.5433C30.6178 28.4428 30.656 28.3463 30.7238 28.2722C30.7916 28.1981 30.8843 28.1515 30.9843 28.1414L31.2697 28.1117C31.3211 27.911 31.3978 27.7176 31.4981 27.5363L31.3222 27.308C31.2608 27.2285 31.2307 27.1291 31.2379 27.0288C31.2451 26.9286 31.2889 26.8345 31.3611 26.7645L31.6579 26.4722C31.7303 26.4023 31.8258 26.3613 31.9264 26.3571C32.027 26.3528 32.1257 26.3857 32.2036 26.4494L32.4069 26.6161C32.6009 26.5044 32.809 26.4192 33.0257 26.3626L33.0576 26.1069C33.0706 26.007 33.1199 25.9155 33.1961 25.8497C33.2724 25.784 33.3703 25.7487 33.4709 25.7507H33.8842C33.9849 25.7518 34.0817 25.7899 34.1562 25.8576C34.2307 25.9254 34.2778 26.0182 34.2884 26.1183L34.3135 26.3763C34.5235 26.4333 34.7242 26.5202 34.9095 26.6344L35.1081 26.4814C35.1878 26.4193 35.2877 26.3888 35.3885 26.396C35.4892 26.4032 35.5838 26.4474 35.6539 26.5202L35.9439 26.817C36.0137 26.889 36.0546 26.9842 36.0588 27.0844C36.063 27.1846 36.0302 27.2829 35.9667 27.3605L35.8023 27.5637C35.9024 27.7443 35.9792 27.9369 36.0306 28.1368L36.2955 28.1711C36.3952 28.1839 36.4867 28.2328 36.5527 28.3086C36.6188 28.3843 36.6548 28.4816 36.654 28.5821V28.9908ZM42.5749 25.4721L42.1639 25.5566C42.1196 25.809 42.0428 26.0546 41.9355 26.2873L42.2346 26.6047C42.3039 26.6773 42.3439 26.773 42.3469 26.8733C42.3498 26.9737 42.3155 27.0716 42.2506 27.1481L41.8145 27.6642C41.7499 27.7411 41.6593 27.7915 41.5599 27.8058C41.4605 27.8201 41.3593 27.7973 41.2756 27.7418L40.9034 27.4952C40.6911 27.6413 40.4609 27.7595 40.2184 27.8469L40.2047 28.3035C40.2011 28.4041 40.1608 28.4998 40.0914 28.5726C40.0219 28.6454 39.9282 28.6902 39.8279 28.6986L39.1543 28.7557C39.0543 28.7637 38.9547 28.7346 38.8747 28.674C38.7947 28.6133 38.7398 28.5254 38.7205 28.4268L38.6269 27.9702C38.3901 27.9222 38.16 27.8455 37.9418 27.7418L37.5674 28.0524C37.4942 28.1209 37.3984 28.1601 37.2982 28.1627C37.198 28.1652 37.1004 28.1308 37.0239 28.0661L36.5079 27.6299C36.431 27.5653 36.3806 27.4747 36.3663 27.3753C36.3519 27.2759 36.3747 27.1747 36.4302 27.091L36.6882 26.7029C36.5558 26.5083 36.4462 26.2992 36.3617 26.0795L35.905 26.0658C35.8045 26.0622 35.7087 26.0219 35.6359 25.9525C35.5631 25.883 35.5183 25.7893 35.51 25.689L35.4529 25.0154C35.4454 24.9155 35.4747 24.8162 35.5352 24.7363C35.5958 24.6564 35.6834 24.6014 35.7817 24.5816L36.2065 24.4925C36.2517 24.2419 36.3285 23.9979 36.4348 23.7664L36.1357 23.449C36.0667 23.3758 36.0269 23.2798 36.024 23.1792C36.021 23.0786 36.0551 22.9804 36.1197 22.9033L36.5558 22.3849C36.6208 22.3079 36.7118 22.2574 36.8116 22.2431C36.9114 22.2288 37.0129 22.2516 37.097 22.3073L37.4372 22.5357C37.6602 22.3752 37.9046 22.2469 38.1633 22.1543L38.177 21.7547C38.1795 21.6542 38.2192 21.5582 38.2884 21.4853C38.3575 21.4123 38.4513 21.3676 38.5515 21.3597L39.2251 21.3026C39.3251 21.2944 39.4247 21.3231 39.505 21.3832C39.5854 21.4434 39.641 21.5308 39.6612 21.6291L39.7412 22.0219C40.0045 22.0697 40.2603 22.1526 40.5015 22.2685L40.787 22.0013C40.8601 21.9328 40.9559 21.8936 41.0561 21.891C41.1563 21.8885 41.2539 21.9229 41.3304 21.9876L41.8465 22.4238C41.9239 22.4881 41.9745 22.5792 41.988 22.679C42.0015 22.7788 41.9771 22.88 41.9195 22.9626L41.6912 23.3006C41.8352 23.5128 41.9504 23.7431 42.0337 23.9856L42.4447 23.9993C42.5449 24.0028 42.6404 24.0428 42.7131 24.1118C42.7859 24.1808 42.8309 24.2739 42.8397 24.3738L42.8968 25.0588C42.8991 25.1546 42.868 25.2482 42.8088 25.3236C42.7497 25.399 42.6662 25.4515 42.5726 25.4721H42.5749Z" fill="white"/>
<path d="M32.1715 23.095C31.7868 23.095 31.4106 22.9809 31.0907 22.7672C30.7708 22.5534 30.5214 22.2495 30.3742 21.8941C30.2269 21.5386 30.1884 21.1474 30.2635 20.77C30.3385 20.3926 30.5238 20.046 30.7959 19.7739C31.068 19.5018 31.4146 19.3166 31.792 19.2415C32.1694 19.1664 32.5605 19.2049 32.916 19.3522C33.2715 19.4994 33.5754 19.7488 33.7891 20.0687C34.0029 20.3887 34.117 20.7648 34.117 21.1496C34.117 21.6655 33.912 22.1604 33.5472 22.5252C33.1823 22.8901 32.6875 23.095 32.1715 23.095V23.095ZM32.1715 19.8594C31.9164 19.8594 31.6669 19.9351 31.4548 20.0769C31.2426 20.2186 31.0773 20.4201 30.9796 20.6559C30.882 20.8916 30.8564 21.151 30.9062 21.4012C30.956 21.6515 31.0789 21.8814 31.2593 22.0618C31.4397 22.2422 31.6696 22.3651 31.9198 22.4149C32.1701 22.4647 32.4295 22.4391 32.6652 22.3415C32.901 22.2438 33.1025 22.0785 33.2442 21.8663C33.386 21.6542 33.4617 21.4047 33.4617 21.1496C33.4611 20.8076 33.3249 20.4798 33.0831 20.238C32.8413 19.9962 32.5135 19.86 32.1715 19.8594V19.8594Z" fill="white"/>
<path d="M39.1905 26.6459C38.7696 26.6271 38.3728 26.4443 38.085 26.1365C37.7973 25.8288 37.6414 25.4207 37.6508 24.9994C37.6602 24.5782 37.8341 24.1774 38.1353 23.8829C38.4366 23.5883 38.8412 23.4233 39.2625 23.4233C39.6838 23.4233 40.0884 23.5883 40.3896 23.8829C40.6908 24.1774 40.8648 24.5782 40.8742 24.9994C40.8836 25.4207 40.7277 25.8288 40.4399 26.1365C40.1521 26.4443 39.7553 26.6271 39.3344 26.6459V26.6459H39.1905ZM39.1905 23.9971H39.1038C38.9689 24.0022 38.8365 24.0345 38.7145 24.0922C38.5925 24.1498 38.4835 24.2316 38.394 24.3327C38.3045 24.4337 38.2365 24.5518 38.1939 24.6798C38.1514 24.8079 38.1353 24.9433 38.1466 25.0777C38.1579 25.2122 38.1963 25.343 38.2596 25.4622C38.3229 25.5814 38.4097 25.6865 38.5147 25.7712C38.6198 25.8559 38.7409 25.9184 38.8708 25.9549C39.0007 25.9914 39.1367 26.0012 39.2705 25.9837V25.9837C39.5247 25.9595 39.76 25.8388 39.9279 25.6463C40.0957 25.4539 40.1834 25.2044 40.1729 24.9492C40.1624 24.694 40.0544 24.4526 39.8712 24.2747C39.6881 24.0967 39.4436 23.9957 39.1883 23.9926L39.1905 23.9971Z" fill="white"/>
<path d="M33.6468 30.1417H33.6309C33.2561 30.1396 32.8975 29.989 32.6336 29.7228C32.3697 29.4567 32.2221 29.0968 32.2232 28.722C32.2242 28.3472 32.3738 27.9882 32.6392 27.7235C32.9046 27.4589 33.2641 27.3103 33.6389 27.3103C34.0136 27.3103 34.3731 27.4589 34.6385 27.7235C34.9039 27.9882 35.0535 28.3472 35.0546 28.722C35.0556 29.0968 34.908 29.4567 34.6441 29.7228C34.3803 29.989 34.0216 30.1396 33.6468 30.1417V30.1417ZM33.6468 27.9839C33.4988 27.9842 33.3542 28.028 33.231 28.11C33.1078 28.192 33.0114 28.3084 32.9539 28.4448C32.8965 28.5812 32.8804 28.7314 32.9078 28.8769C32.9352 29.0223 33.0048 29.1565 33.108 29.2626C33.1768 29.3333 33.2589 29.3897 33.3496 29.4285C33.4403 29.4674 33.5378 29.4879 33.6365 29.489C33.7351 29.49 33.833 29.4716 33.9246 29.4347C34.0161 29.3978 34.0994 29.3432 34.1697 29.274C34.2755 29.1698 34.348 29.0368 34.3784 28.8915C34.4088 28.7462 34.3956 28.5952 34.3405 28.4574C34.2854 28.3197 34.1908 28.2012 34.0686 28.117C33.9464 28.0327 33.8021 27.9864 33.6537 27.9839H33.6468Z" fill="white"/>
<path d="M6.66219 58.8078C6.57773 59.6931 6.2476 60.3846 5.67178 60.8824C5.09597 61.3763 4.33013 61.6233 3.37428 61.6233C2.70633 61.6233 2.11708 61.4675 1.60653 61.156C1.09981 60.8406 0.708253 60.3941 0.431862 59.8166C0.15547 59.239 0.0115163 58.5684 0 57.8047V57.0295C0 56.2468 0.140115 55.5572 0.420345 54.9606C0.700576 54.3641 1.10173 53.9043 1.6238 53.5813C2.14971 53.2584 2.75624 53.0969 3.44338 53.0969C4.36852 53.0969 5.11324 53.3458 5.67754 53.8435C6.24184 54.3413 6.57006 55.0442 6.66219 55.9523H5.21113C5.14203 55.3558 4.96545 54.9264 4.68138 54.6642C4.40115 54.3983 3.98848 54.2653 3.44338 54.2653C2.80998 54.2653 2.32246 54.4952 1.98081 54.9549C1.64299 55.4109 1.47025 56.0815 1.46257 56.9668V57.7021C1.46257 58.5988 1.6238 59.2827 1.94626 59.7539C2.27255 60.225 2.74856 60.4606 3.37428 60.4606C3.94626 60.4606 4.3762 60.3333 4.66411 60.0788C4.95202 59.8242 5.13436 59.4005 5.21113 58.8078H6.66219Z" fill="#00A651"/>
<path d="M8.06334 58.3689C8.06334 57.7648 8.18426 57.2214 8.4261 56.7389C8.66795 56.2525 9.00768 55.8801 9.4453 55.6218C9.88292 55.3596 10.3858 55.2285 10.9539 55.2285C11.7946 55.2285 12.476 55.4964 12.9981 56.0321C13.524 56.5679 13.8081 57.2784 13.8503 58.1637L13.856 58.4886C13.856 59.0965 13.737 59.6399 13.499 60.1187C13.2649 60.5974 12.9271 60.9679 12.4856 61.2301C12.048 61.4922 11.5413 61.6233 10.9655 61.6233C10.0864 61.6233 9.38196 61.3345 8.85221 60.757C8.3263 60.1756 8.06334 59.4024 8.06334 58.4373V58.3689ZM9.46257 58.4886C9.46257 59.1231 9.59501 59.6209 9.85988 59.9819C10.1248 60.339 10.4933 60.5176 10.9655 60.5176C11.4376 60.5176 11.8042 60.3352 12.0653 59.9705C12.3301 59.6057 12.4626 59.0718 12.4626 58.3689C12.4626 57.7458 12.3263 57.2518 12.0537 56.887C11.785 56.5223 11.4184 56.3399 10.9539 56.3399C10.4971 56.3399 10.1344 56.5204 9.86564 56.8813C9.59693 57.2385 9.46257 57.7743 9.46257 58.4886Z" fill="#00A651"/>
<path d="M16.8464 55.3425L16.8868 55.9865C17.3244 55.4812 17.9232 55.2285 18.6833 55.2285C19.5163 55.2285 20.0864 55.5439 20.3935 56.1746C20.8464 55.5439 21.4837 55.2285 22.3052 55.2285C22.9923 55.2285 23.5029 55.4166 23.8369 55.7927C24.1747 56.1689 24.3474 56.7237 24.3551 57.457V61.5093H22.9559V57.4969C22.9559 57.1055 22.8695 56.8187 22.6967 56.6363C22.524 56.4539 22.238 56.3627 21.8388 56.3627C21.5202 56.3627 21.2591 56.4482 21.0557 56.6192C20.856 56.7864 20.7159 57.0067 20.6353 57.2803L20.6411 61.5093H19.2418V57.4513C19.2226 56.7256 18.8484 56.3627 18.119 56.3627C17.5585 56.3627 17.1612 56.5888 16.9271 57.0409V61.5093H15.5278V55.3425H16.8464Z" fill="#00A651"/>
<path d="M27.5988 55.3425L27.6392 55.9865C28.0768 55.4812 28.6756 55.2285 29.4357 55.2285C30.2687 55.2285 30.8388 55.5439 31.1459 56.1746C31.5988 55.5439 32.2361 55.2285 33.0576 55.2285C33.7447 55.2285 34.2553 55.4166 34.5893 55.7927C34.9271 56.1689 35.0998 56.7237 35.1075 57.457V61.5093H33.7083V57.4969C33.7083 57.1055 33.6219 56.8187 33.4491 56.6363C33.2764 56.4539 32.9904 56.3627 32.5912 56.3627C32.2726 56.3627 32.0115 56.4482 31.8081 56.6192C31.6084 56.7864 31.4683 57.0067 31.3877 57.2803L31.3935 61.5093H29.9942V57.4513C29.975 56.7256 29.6008 56.3627 28.8714 56.3627C28.3109 56.3627 27.9136 56.5888 27.6795 57.0409V61.5093H26.2802V55.3425H27.5988Z" fill="#00A651"/>
<path d="M40.81 60.9052C40.3992 61.3839 39.8157 61.6233 39.0595 61.6233C38.3839 61.6233 37.8714 61.4276 37.5221 61.0363C37.1766 60.6449 37.0038 60.0788 37.0038 59.3378V55.3425H38.4031V59.3207C38.4031 60.1035 38.7313 60.4948 39.3877 60.4948C40.0672 60.4948 40.5259 60.2535 40.7639 59.771V55.3425H42.1631V61.5093H40.8445L40.81 60.9052Z" fill="#00A651"/>
<path d="M45.3781 55.3425L45.4184 56.0549C45.8791 55.504 46.4837 55.2285 47.2322 55.2285C48.5297 55.2285 49.19 55.9637 49.2131 57.4342V61.5093H47.8138V57.514C47.8138 57.1226 47.7274 56.8339 47.5547 56.6477C47.3858 56.4577 47.1075 56.3627 46.7198 56.3627C46.1555 56.3627 45.7351 56.6154 45.4587 57.1207V61.5093H44.0595V55.3425H45.3781Z" fill="#00A651"/>
<path d="M52.6238 61.5093H51.2246V55.3425H52.6238V61.5093ZM51.1382 53.7409C51.1382 53.5282 51.2054 53.3515 51.3397 53.2109C51.4779 53.0703 51.6737 53 51.9271 53C52.1804 53 52.3762 53.0703 52.5144 53.2109C52.6526 53.3515 52.7217 53.5282 52.7217 53.7409C52.7217 53.9499 52.6526 54.1247 52.5144 54.2653C52.3762 54.4021 52.1804 54.4705 51.9271 54.4705C51.6737 54.4705 51.4779 54.4021 51.3397 54.2653C51.2054 54.1247 51.1382 53.9499 51.1382 53.7409Z" fill="#00A651"/>
<path d="M56.3973 53.8435V55.3425H57.4971V56.3684H56.3973V59.8109C56.3973 60.0465 56.4434 60.2174 56.5355 60.3238C56.6315 60.4264 56.8004 60.4777 57.0422 60.4777C57.2035 60.4777 57.3666 60.4587 57.5317 60.4207V61.4922C57.2131 61.5796 56.9059 61.6233 56.6104 61.6233C55.5355 61.6233 54.9981 61.0363 54.9981 59.8622V56.3684H53.9731V55.3425H54.9981V53.8435H56.3973Z" fill="#00A651"/>
<path d="M61.2418 59.5259L62.5086 55.3425H64L61.524 62.444C61.144 63.4813 60.499 64 59.5892 64C59.3858 64 59.1612 63.9658 58.9155 63.8974V62.8259L59.1804 62.843C59.5336 62.843 59.7985 62.7784 59.975 62.6492C60.1555 62.5238 60.2975 62.3111 60.4011 62.0109L60.6027 61.4808L58.4146 55.3425H59.9232L61.2418 59.5259Z" fill="#00A651"/>
</svg>
