<svg xmlns="http://www.w3.org/2000/svg" width="64" height="64" fill="none" xmlns:v="https://vecta.io/nano"><path d="M30.913.362L14.998 8.027c-.495.238-.929.584-1.271 1.013s-.584.929-.706 1.464l-3.93 17.224c-.122.534-.121 1.09.001 1.624s.363 1.035.705 1.463L20.812 44.63c.343.428.777.773 1.271 1.01s1.035.36 1.583.36h17.667c.548 0 1.089-.123 1.583-.36s.928-.582 1.271-1.01l11.015-13.815c.342-.429.583-.929.705-1.463s.122-1.09.001-1.624l-3.932-17.224c-.122-.535-.363-1.035-.705-1.464s-.776-.775-1.27-1.013L34.083.362C33.588.124 33.047 0 32.498 0s-1.09.124-1.585.362h0z" fill="#1c7bd4"/><path d="M49.441 25.242a5.71 5.71 0 0 0-3.425-3.039.29.29 0 0 1-.189-.116c-.045-.062-.064-.139-.053-.215a6.16 6.16 0 0 0-.062-.847 5.8 5.8 0 0 0-4.425-4.727c-.457-.103-1.03 0-1.295-.575a1.25 1.25 0 0 0-.228-.297 9.01 9.01 0 0 0-3.026-2.206 7.59 7.59 0 0 0-2.793-.724l-5.252-.075H26.75c-.176 0-.352.048-.527.059-.368.025-.76.559-.717.913a.94.94 0 0 0 .913.884h2.548c.188.017.364.098.498.23s.219.306.239.494c.071.685-.473 1.009-.996 1.005-2.158-.018-4.316 0-6.471 0-.194.006-.382.071-.537.187a.95.95 0 0 0-.333.461.85.85 0 0 0 .386 1.005 1.44 1.44 0 0 0 .639.187h2.598a9.32 9.32 0 0 0-.685 4.144h-.345-9.403c-.131-.023-.265-.017-.393.017a.91.91 0 0 0-.349.181c-.102.085-.184.191-.241.311a.91.91 0 0 0-.088.384c-.001.133.027.264.082.385s.135.228.236.315.219.15.347.186.262.044.393.023h4.686c.434 0 .838.117 1.032.562a.89.89 0 0 1-.873 1.219h-3.761a.92.92 0 0 0-.351.083.91.91 0 0 0-.292.211c-.082.089-.147.193-.189.307a.94.94 0 0 0-.058.356c.004.121.033.241.083.351a.91.91 0 0 0 .211.292c.089.082.193.147.307.19a.92.92 0 0 0 .356.058h1.009c-.013.187-.013.375 0 .562a10.25 10.25 0 0 0 .29 1.598 5.63 5.63 0 0 0 1.872 2.72 5.46 5.46 0 0 0 3.441 1.299h21.996a4.8 4.8 0 0 0 1.208-.155c1.783-.47 3.117-1.503 3.912-3.197a5.61 5.61 0 0 0 .016-5.005h0zm-19.605-.493c-.079.064-.179.096-.281.09s-.197-.048-.269-.12l-.685-.685c-.071-.072-.114-.168-.119-.27a.42.42 0 0 1 .089-.281l.402-.507a3.66 3.66 0 0 1-.333-.79l-.637-.073c-.1-.012-.193-.061-.26-.136s-.105-.173-.105-.275v-.98c0-.101.038-.199.105-.275s.16-.124.26-.136l.605-.069a3.58 3.58 0 0 1 .34-.863l-.377-.477c-.064-.079-.096-.179-.09-.281s.048-.197.12-.269l.685-.685c.072-.072.168-.114.269-.12a.42.42 0 0 1 .281.088l.457.358a3.57 3.57 0 0 1 .913-.39l.066-.562a.41.41 0 0 1 .135-.262c.076-.067.174-.105.276-.105h.977c.102 0 .2.037.276.105a.41.41 0 0 1 .135.262l.066.562a3.54 3.54 0 0 1 .9.377l.434-.345c.08-.063.18-.095.281-.089s.197.049.269.121l.685.685c.071.072.114.168.119.27s-.026.201-.09.281l-.354.457c.152.269.269.557.347.856l.575.066c.101.012.194.06.262.136a.42.42 0 0 1 .106.275v.98c-.001.102-.038.2-.106.275a.42.42 0 0 1-.262.136l-.582.066c-.083.303-.205.594-.363.865l.379.48c.063.08.095.18.089.282s-.049.198-.121.27l-.685.685c-.072.072-.168.115-.269.121s-.202-.026-.281-.089l-.486-.386a3.59 3.59 0 0 1-.879.356l-.073.626c-.012.101-.06.194-.136.261s-.174.104-.275.104h-.98c-.101 0-.199-.037-.275-.104s-.124-.16-.136-.261l-.075-.648a3.7 3.7 0 0 1-.82-.347l-.5.384zm6.818 4.243a.41.41 0 0 1-.368.402l-.272.03a2.39 2.39 0 0 1-.249.573l.176.228a.41.41 0 0 1-.039.543l-.297.29a.41.41 0 0 1-.267.116c-.1.005-.199-.028-.276-.091l-.228-.185a2.46 2.46 0 0 1-.589.228l-.036.299a.41.41 0 0 1-.413.356h-.413a.41.41 0 0 1-.404-.368l-.032-.315c-.19-.052-.373-.129-.543-.228l-.244.189a.41.41 0 0 1-.546-.039l-.29-.297c-.07-.072-.111-.167-.116-.267s.029-.199.093-.276l.196-.242a2.33 2.33 0 0 1-.217-.53l-.306-.039a.41.41 0 0 1-.356-.411v-.416a.41.41 0 0 1 .368-.402l.285-.03a2.44 2.44 0 0 1 .228-.575l-.176-.228a.41.41 0 0 1 .039-.543l.297-.292a.41.41 0 0 1 .546-.023l.203.167a2.51 2.51 0 0 1 .619-.253l.032-.256a.41.41 0 0 1 .413-.356h.413a.41.41 0 0 1 .404.368l.025.258a2.27 2.27 0 0 1 .596.258l.199-.153a.41.41 0 0 1 .546.039l.29.297a.41.41 0 0 1 .023.543l-.164.203a2.43 2.43 0 0 1 .228.573l.265.034a.41.41 0 0 1 .359.411v.409zm5.921-3.519l-.411.084a2.97 2.97 0 0 1-.228.731l.299.317a.41.41 0 0 1 .112.269c.003.101-.031.198-.096.275l-.436.516a.41.41 0 0 1-.539.078l-.372-.247a3.02 3.02 0 0 1-.685.352l-.014.457a.41.41 0 0 1-.377.395l-.674.057a.41.41 0 0 1-.434-.329l-.094-.457a2.97 2.97 0 0 1-.685-.228l-.374.311a.41.41 0 0 1-.544.014l-.516-.436a.41.41 0 0 1-.078-.539l.258-.388c-.132-.195-.242-.404-.327-.623l-.457-.014a.41.41 0 0 1-.395-.377l-.057-.674a.41.41 0 0 1 .329-.434l.425-.089a3.03 3.03 0 0 1 .228-.726l-.299-.317a.41.41 0 0 1-.016-.546l.436-.518a.41.41 0 0 1 .541-.078l.34.228c.223-.16.467-.289.726-.381l.014-.4a.4.4 0 0 1 .111-.269c.069-.072.163-.118.263-.126l.674-.057a.41.41 0 0 1 .436.326l.08.393a2.99 2.99 0 0 1 .76.247l.285-.267a.41.41 0 0 1 .543-.014l.516.436a.4.4 0 0 1 .073.539l-.228.338a2.91 2.91 0 0 1 .343.685l.411.014a.41.41 0 0 1 .395.374l.057.685c.002.096-.029.189-.088.265s-.143.128-.236.149h.002zm-10.403-2.378c-.385 0-.761-.114-1.081-.328s-.569-.518-.716-.873a1.95 1.95 0 0 1-.111-1.124c.075-.377.26-.724.532-.996s.619-.457.996-.532a1.94 1.94 0 0 1 1.124.111c.356.148.659.397.873.716a1.94 1.94 0 0 1 .328 1.081c0 .516-.205 1.011-.57 1.376s-.86.57-1.376.57h0zm0-3.236a1.29 1.29 0 0 0-.912 2.202 1.29 1.29 0 0 0 2.203-.912 1.29 1.29 0 0 0-1.29-1.29h0zm7.019 6.787A1.61 1.61 0 0 1 37.651 25a1.61 1.61 0 0 1 1.612-1.576A1.61 1.61 0 0 1 40.875 25a1.61 1.61 0 0 1-1.54 1.646h0-.144zm0-2.649h-.087a1 1 0 0 0-.389.095c-.122.058-.231.139-.321.241a1 1 0 0 0 .121 1.439 1 1 0 0 0 .756.213h0a1 1 0 0 0 .6-1.709 1 1 0 0 0-.683-.282l.002.005zm-5.544 6.145h-.016c-.375-.002-.733-.153-.997-.419a1.41 1.41 0 0 1-.41-1.001 1.42 1.42 0 0 1 1.416-1.411 1.42 1.42 0 0 1 1 .413c.266.264.415.624.416.999a1.42 1.42 0 0 1-.41 1.001c-.263.266-.623.417-.997.419h0zm0-2.158a.75.75 0 0 0-.693.461.76.76 0 0 0-.046.432c.027.145.097.28.2.386.069.071.151.127.242.166a.75.75 0 0 0 .82-.155c.106-.104.178-.237.209-.383a.75.75 0 0 0-.31-.774.75.75 0 0 0-.415-.133h-.007z" fill="#fff"/><path d="M6.662 58.808c-.084.885-.415 1.577-.99 2.075s-1.342.741-2.297.741c-.668 0-1.257-.156-1.768-.467s-.898-.762-1.175-1.339S.012 58.57 0 57.806v-.775c0-.783.14-1.472.42-2.069s.681-1.056 1.203-1.379 1.132-.484 1.82-.484c.925 0 1.67.249 2.234.747s.893 1.201.985 2.109H5.211c-.069-.596-.246-1.026-.53-1.288s-.693-.399-1.238-.399c-.633 0-1.121.23-1.463.69s-.511 1.127-.518 2.012v.735c0 .897.161 1.581.484 2.052s.802.707 1.428.707c.572 0 1.002-.127 1.29-.382s.47-.678.547-1.271h1.451zm1.401-.439c0-.604.121-1.147.363-1.63a2.61 2.61 0 0 1 1.019-1.117c.438-.262.941-.393 1.509-.393.841 0 1.522.268 2.044.804s.81 1.246.852 2.132l.006.325c0 .608-.119 1.151-.357 1.63s-.572.849-1.013 1.111-.944.393-1.52.393c-.879 0-1.584-.289-2.113-.866s-.789-1.355-.789-2.32v-.068zm1.399.12c0 .635.132 1.132.397 1.493s.633.536 1.106.536.839-.182 1.1-.547.397-.899.397-1.602c0-.623-.136-1.117-.409-1.482a1.29 1.29 0 0 0-1.1-.547c-.457 0-.82.181-1.088.541s-.403.893-.403 1.607zm7.384-3.146l.04.644c.438-.505 1.036-.758 1.796-.758.833 0 1.403.315 1.71.946.453-.631 1.09-.946 1.912-.946.687 0 1.198.188 1.532.564s.511.931.518 1.664v4.052h-1.399v-4.012c0-.391-.086-.678-.259-.861s-.459-.274-.858-.274c-.319 0-.58.086-.783.257a1.32 1.32 0 0 0-.42.661l.006 4.229h-1.399v-4.058c-.019-.726-.393-1.089-1.123-1.089-.561 0-.958.226-1.192.678v4.468h-1.399v-6.167h1.319zm10.753 0l.04.644c.438-.505 1.036-.758 1.797-.758.833 0 1.403.315 1.71.946.453-.631 1.09-.946 1.912-.946.687 0 1.198.188 1.532.564s.511.931.518 1.664v4.052h-1.399v-4.012c0-.391-.086-.678-.259-.861s-.459-.274-.858-.274c-.319 0-.58.086-.783.257a1.32 1.32 0 0 0-.42.661l.006 4.229h-1.399v-4.058c-.019-.726-.393-1.089-1.123-1.089-.561 0-.958.226-1.192.678v4.468H26.28v-6.167h1.319zm13.211 5.562c-.411.479-.994.718-1.751.718-.676 0-1.188-.196-1.537-.587s-.518-.957-.518-1.698v-3.995h1.399v3.978c0 .783.328 1.174.985 1.174.679 0 1.138-.241 1.376-.724v-4.428h1.399v6.167h-1.319l-.034-.604zm4.568-5.562l.04.712c.461-.551 1.065-.826 1.814-.826 1.297 0 1.958.735 1.981 2.206v4.075h-1.399v-3.995c0-.391-.086-.68-.259-.866s-.447-.285-.835-.285c-.564 0-.985.253-1.261.758v4.389H44.06v-6.167h1.319zm7.246 6.166h-1.399v-6.167h1.399v6.167zm-1.486-7.768c0-.213.067-.389.202-.53s.334-.211.587-.211.449.07.587.211.207.317.207.53a.71.71 0 0 1-.207.524c-.138.14-.334.205-.587.205s-.449-.068-.587-.205a.73.73 0 0 1-.202-.524zm5.259.103v1.499h1.1v1.026h-1.1v3.442c0 .236.046.407.138.513s.265.154.507.154c.161 0 .324-.019.489-.057v1.072a3.48 3.48 0 0 1-.921.131c-1.075 0-1.612-.587-1.612-1.761v-3.494h-1.025v-1.026h1.025v-1.499h1.399zm4.845 5.682l1.267-4.183H64l-2.476 7.102C61.144 63.481 60.499 64 59.589 64a2.53 2.53 0 0 1-.674-.103v-1.072l.265.017c.353 0 .618-.065.795-.194s.322-.338.426-.638l.202-.53-2.188-6.138h1.509l1.319 4.183z" fill="#00a651"/></svg>