<svg xmlns="http://www.w3.org/2000/svg" viewBox="0 0 511 511" xmlns:v="https://vecta.io/nano"><path d="M238.28 8.93L65.21 92.27a39.71 39.71 0 0 0-21.47 26.93L1 306.47a39.68 39.68 0 0 0 7.66 33.58l119.76 150.18a39.71 39.71 0 0 0 31 14.95h192.12a39.71 39.71 0 0 0 31-14.95l119.8-150.18a39.68 39.68 0 0 0 7.66-33.58L467.26 119.2a39.71 39.71 0 0 0-21.47-26.93L272.72 8.93a39.69 39.69 0 0 0-34.44 0z" fill="#1c7bd4"/><path d="M439.65 279.44c-7.58-16.11-20.24-27.21-37.19-33-2.07-.71-2.62-1.59-2.63-3.61a66 66 0 0 0-.66-9.21c-1.92-13.23-8-24.55-17.17-34a61 61 0 0 0-31-17.37c-5-1.13-11.19-.07-14.07-6.27a13.91 13.91 0 0 0-2.49-3.22 98.19 98.19 0 0 0-32.91-24c-9.71-4.31-19.82-7.46-30.36-7.86-19-.73-38-.63-57-.83q-10.57-.1-21.14 0c-1.91 0-3.82.51-5.73.64-4 .28-8.26 6.08-7.81 9.91.76 6.33 5.62 9.71 10 9.6 9.24-.24 18.49-.1 27.73-.06 4 0 7.59 3.89 8 7.86.78 7.38-5.13 11-10.83 10.92l-70.35-.07a10.3 10.3 0 0 0-9.45 7.06c-1.22 4.29.25 8.72 4.19 10.92a15.7 15.7 0 0 0 6.95 2c9.3.23 18.62.09 28.25.09a101.34 101.34 0 0 0-7.52 45.06h-3.75c-34.08 0-68.16.1-102.24-.09a9.82 9.82 0 1 0-.14 19.59l51-.05c4.71 0 9.1 1.28 11.23 6.1 2.68 6.06-2 13.29-9.5 13.28q-20.45 0-40.9 0a9.75 9.75 0 0 0-9.81 9.64c0 6.25 4 10.25 10.51 10.44 3.55.09 7.1 0 11 0a42.79 42.79 0 0 0 0 6.13c.9 5.81 1.35 11.79 3.15 17.33a61.33 61.33 0 0 0 20.34 29.56c11 8.77 23.42 14.1 37.43 14.13q119.57.3 239.14 0A52.06 52.06 0 0 0 397 368.4c19.37-5.11 33.87-16.35 42.53-34.7 8.57-18.09 8.53-36.38.12-54.26zm-213.14-5.35a4.5 4.5 0 0 1-6-.34l-7.51-7.52a4.52 4.52 0 0 1-.34-6l4.37-5.51a40.32 40.32 0 0 1-3.62-8.59l-6.91-.8a4.51 4.51 0 0 1-4-4.47v-10.62a4.51 4.51 0 0 1 4-4.47l6.56-.75a38.34 38.34 0 0 1 3.7-9.39l-4.1-5.18a4.51 4.51 0 0 1 .34-6l7.52-7.52a4.53 4.53 0 0 1 6-.34l4.9 3.89a39.26 39.26 0 0 1 10-4.25l.71-6.11a4.51 4.51 0 0 1 4.47-4h10.64a4.5 4.5 0 0 1 4.47 4l.72 6.11a40 40 0 0 1 9.78 4.1l4.79-3.73a4.51 4.51 0 0 1 6 .34l7.5 7.5a4.53 4.53 0 0 1 .34 6l-3.85 4.86a39.65 39.65 0 0 1 3.78 9.3l6.25.73a4.52 4.52 0 0 1 4 4.48v10.63a4.52 4.52 0 0 1-4 4.48l-6.34.73a39.58 39.58 0 0 1-3.94 9.4l4.11 5.22a4.5 4.5 0 0 1-.33 6l-7.52 7.52a4.53 4.53 0 0 1-6 .34l-5.29-4.19a40.18 40.18 0 0 1-9.57 3.87l-.78 6.79a4.52 4.52 0 0 1-4.48 4H246.2a4.52 4.52 0 0 1-4.48-4l-.82-7a39.79 39.79 0 0 1-8.92-3.78zm74.14 46.11a4.46 4.46 0 0 1-4 4.39l-3 .3a25.6 25.6 0 0 1-2.71 6.24l1.91 2.47a4.46 4.46 0 0 1-.41 5.92l-3.23 3.15a4.43 4.43 0 0 1-5.91.27l-2.5-2a26.89 26.89 0 0 1-6.41 2.49l-.41 3.24a4.45 4.45 0 0 1-4.47 3.89l-4.51-.06a4.45 4.45 0 0 1-4.39-4l-.35-3.42a25.93 25.93 0 0 1-5.92-2.58l-2.65 2.05a4.46 4.46 0 0 1-5.92-.41l-3.15-3.23a4.43 4.43 0 0 1-.27-5.91l2.14-2.64a25.35 25.35 0 0 1-2.35-5.76l-3.32-.42a4.44 4.44 0 0 1-3.88-4.47v-4.51a4.46 4.46 0 0 1 4-4.39l3.12-.32a25.85 25.85 0 0 1 2.55-6.23l-1.91-2.46a4.46 4.46 0 0 1 .41-5.92l3.24-3.17a4.46 4.46 0 0 1 5.92-.27l2.23 1.82a26.6 26.6 0 0 1 6.72-2.74l.35-2.78a4.45 4.45 0 0 1 4.47-3.89l4.51.06a4.45 4.45 0 0 1 4.39 4l.28 2.8a26.3 26.3 0 0 1 6.49 2.81l2.15-1.66a4.46 4.46 0 0 1 5.92.41l3.15 3.23a4.44 4.44 0 0 1 .27 5.91l-1.8 2.21a26.79 26.79 0 0 1 2.44 6.24l2.89.37a4.44 4.44 0 0 1 3.88 4.48zM365 282l-4.45.91a31.91 31.91 0 0 1-2.55 7.89l3.26 3.46a4.45 4.45 0 0 1 .16 5.92l-4.74 5.61a4.46 4.46 0 0 1-5.86.84l-4-2.68a33.21 33.21 0 0 1-7.54 3.82l-.16 4.91A4.47 4.47 0 0 1 335 317l-7.32.62a4.47 4.47 0 0 1-4.74-3.56l-1-5a32 32 0 0 1-7.54-2.45l-3.68 3.39a4.44 4.44 0 0 1-5.92.16l-5.61-4.74a4.44 4.44 0 0 1-.84-5.86l2.8-4.22a32.38 32.38 0 0 1-3.55-6.77l-5-.16a4.47 4.47 0 0 1-4.29-4.08l-.63-7.32a4.49 4.49 0 0 1 3.57-4.74l4.63-.95a33.74 33.74 0 0 1 2.39-7.91l-3.27-3.47a4.42 4.42 0 0 1-.16-5.91l4.74-5.65a4.46 4.46 0 0 1 5.86-.84l3.7 2.46a32.57 32.57 0 0 1 7.9-4.15l.14-4.35a4.46 4.46 0 0 1 4.08-4.29l7.32-.63a4.49 4.49 0 0 1 4.74 3.57l.88 4.27a31.94 31.94 0 0 1 8.26 2.68l3.1-2.91a4.45 4.45 0 0 1 5.92-.16l5.61 4.74a4.42 4.42 0 0 1 .8 5.88l-2.44 3.67a32.52 32.52 0 0 1 3.73 7.34l4.47.15a4.45 4.45 0 0 1 4.29 4.08l.63 7.32A4.5 4.5 0 0 1 365 282zm-113-25.9a21.14 21.14 0 1 1 21.09-21.1A21.16 21.16 0 0 1 252 256.1zm0-35.17a14 14 0 1 0 14 14 14 14 0 0 0-14-14zm76.26 73.79a18.09 18.09 0 1 1 1.56-.07h0l-1.56.07zm.07-28.8h-.94a10.84 10.84 0 0 0-6.08 19.08 10.64 10.64 0 0 0 7.9 2.52h0a10.84 10.84 0 0 0-.89-21.64zM268 332.72h-.17a15.38 15.38 0 1 1 .17 0zm0-23.45a8.17 8.17 0 0 0-5.85 13.88 8.18 8.18 0 1 0 5.93-13.88z" fill="#fff"/></svg>