<svg width="1805" height="512" viewBox="0 0 1805 512" fill="none" xmlns="http://www.w3.org/2000/svg">
<path d="M109.802 1.81173L30.0546 40.2207C27.5768 41.4129 25.3993 43.148 23.684 45.2971C21.9687 47.4462 20.7595 49.9542 20.1463 52.6347L0.455579 138.938C-0.153409 141.616 -0.151834 144.397 0.460171 147.075C1.07218 149.753 2.27893 152.258 3.991 154.406L59.1846 223.627C60.9009 225.771 63.0775 227.501 65.5532 228.689C68.0289 229.878 70.7403 230.494 73.4864 230.492H162.009C164.755 230.494 167.466 229.878 169.942 228.689C172.418 227.501 174.594 225.771 176.311 223.627L231.504 154.406C233.216 152.258 234.423 149.753 235.035 147.075C235.647 144.397 235.649 141.616 235.04 138.938L215.338 52.6347C214.726 49.9552 213.518 47.448 211.805 45.299C210.092 43.1499 207.916 41.4142 205.441 40.2207L125.682 1.81173C123.205 0.619244 120.491 0 117.742 0C114.993 0 112.279 0.619244 109.802 1.81173V1.81173Z" fill="#1C7BD4"/>
<path d="M202.637 126.477C200.982 122.892 198.603 119.688 195.65 117.067C192.696 114.446 189.232 112.465 185.475 111.249C185.095 111.187 184.755 110.978 184.528 110.668C184.301 110.357 184.206 109.97 184.262 109.59C184.257 108.169 184.153 106.751 183.953 105.345C183.031 99.6399 180.428 94.3394 176.479 90.1207C172.529 85.902 167.411 82.9567 161.779 81.6611C159.491 81.1463 156.619 81.6611 155.292 78.7779C154.987 78.2275 154.602 77.7261 154.148 77.2905C149.924 72.5854 144.759 68.82 138.988 66.238C134.598 64.1459 129.848 62.9146 124.995 62.6111C116.242 62.2678 107.467 62.3251 98.6798 62.2335C95.4304 62.2335 92.1925 62.2335 88.9431 62.2335C88.0621 62.2335 87.1811 62.4738 86.3001 62.531C84.458 62.6569 82.4901 65.3342 82.7075 67.1076C82.7786 68.2842 83.2879 69.3915 84.1351 70.2111C84.9822 71.0307 86.1057 71.5032 87.2841 71.5354C91.5403 71.421 95.7965 71.5354 100.053 71.5354C100.993 71.6198 101.875 72.0273 102.549 72.6885C103.222 73.3497 103.646 74.2239 103.748 75.1624C104.103 78.5948 101.38 80.2195 98.7598 80.1966C87.9477 80.1051 77.1355 80.1966 66.3348 80.1966C65.3629 80.2267 64.4236 80.5545 63.644 81.1356C62.8644 81.7167 62.282 82.5232 61.9756 83.446C61.6669 84.3793 61.6909 85.3907 62.0433 86.3084C62.3958 87.2261 63.0551 87.9935 63.9092 88.4802C64.8891 89.0389 65.9863 89.3603 67.1128 89.4184C71.4033 89.5214 75.6939 89.4184 80.1332 89.4184C77.4238 95.9892 76.2499 103.092 76.7007 110.185H74.9731C59.264 110.185 43.5548 110.185 27.8572 110.185C27.2022 110.07 26.5301 110.099 25.8876 110.271C25.2452 110.442 24.6478 110.751 24.137 111.177C23.6262 111.603 23.2144 112.135 22.9301 112.736C22.6458 113.337 22.4959 113.993 22.4909 114.658C22.4858 115.323 22.6257 115.981 22.9008 116.586C23.1759 117.191 23.5796 117.73 24.0839 118.163C24.5881 118.596 25.1807 118.915 25.8205 119.096C26.4603 119.277 27.1319 119.317 27.7885 119.212C35.6145 119.098 43.4404 119.143 51.2664 119.212C53.4402 119.212 55.4654 119.795 56.4379 122.027C56.7151 122.721 56.8131 123.475 56.723 124.217C56.633 124.96 56.3577 125.668 55.9225 126.276C55.4873 126.884 54.9062 127.374 54.2325 127.699C53.5589 128.024 52.8143 128.174 52.0673 128.136H33.2232C32.6154 128.158 32.0179 128.299 31.4647 128.552C30.9116 128.805 30.4136 129.164 29.9993 129.609C29.5849 130.054 29.2623 130.577 29.0498 131.147C28.8374 131.716 28.7392 132.323 28.761 132.93C28.7828 133.538 28.9241 134.136 29.1768 134.689C29.4295 135.242 29.7887 135.74 30.2339 136.154C30.679 136.569 31.2014 136.891 31.7713 137.104C32.3411 137.316 32.9472 137.414 33.555 137.392C35.1797 137.392 36.8273 137.392 38.6121 137.392C38.5487 138.33 38.5487 139.27 38.6121 140.207C38.8841 142.911 39.37 145.589 40.0652 148.216C41.7606 153.594 45.0285 158.34 49.4472 161.843C54.2681 165.943 60.3618 168.244 66.6894 168.353C103.432 168.445 140.17 168.445 176.905 168.353C178.947 168.352 180.981 168.091 182.958 167.575C191.893 165.218 198.575 160.047 202.557 151.557C204.51 147.668 205.533 143.378 205.547 139.027C205.561 134.675 204.565 130.379 202.637 126.477V126.477ZM104.401 124.006C104.003 124.325 103.502 124.486 102.993 124.458C102.485 124.431 102.004 124.217 101.643 123.857L98.2107 120.425C97.8533 120.063 97.6409 119.582 97.6135 119.074C97.5861 118.566 97.7456 118.066 98.0619 117.667L100.076 115.127C99.3653 113.878 98.8046 112.549 98.4052 111.169L95.213 110.802C94.7093 110.741 94.2454 110.498 93.9083 110.119C93.5712 109.74 93.3842 109.25 93.3824 108.743V103.835C93.3842 103.327 93.5712 102.838 93.9083 102.459C94.2454 102.08 94.7093 101.837 95.213 101.775L98.245 101.432C98.622 99.9221 99.1952 98.4681 99.9498 97.1071L98.0619 94.7158C97.7432 94.3184 97.5822 93.8174 97.6096 93.3087C97.6371 92.8 97.8511 92.3193 98.2107 91.9584L101.643 88.526C102.004 88.167 102.483 87.9524 102.991 87.9229C103.499 87.8934 104.001 88.051 104.401 88.3658L106.689 90.1621C108.116 89.2999 109.656 88.6414 111.265 88.2056L111.597 85.391C111.653 84.8843 111.895 84.4162 112.275 84.0763C112.655 83.7364 113.147 83.5487 113.657 83.549H118.554C119.063 83.5487 119.555 83.7364 119.935 84.0763C120.315 84.4162 120.557 84.8843 120.613 85.391L120.945 88.2056C122.527 88.6241 124.044 89.2594 125.453 90.0935L127.627 88.3658C128.025 88.0486 128.527 87.8895 129.036 87.9191C129.545 87.9486 130.025 88.1647 130.384 88.526L133.816 91.9584C134.174 92.3205 134.386 92.8009 134.414 93.3089C134.441 93.8169 134.282 94.3174 133.965 94.7158L132.192 97.0041C132.954 98.3533 133.539 99.7954 133.931 101.295L136.814 101.626C137.32 101.685 137.787 101.927 138.126 102.307C138.465 102.686 138.654 103.177 138.656 103.686V108.594C138.654 109.103 138.465 109.594 138.126 109.974C137.787 110.353 137.32 110.595 136.814 110.654L133.897 110.986C133.482 112.504 132.87 113.962 132.077 115.322L133.977 117.725C134.295 118.125 134.454 118.629 134.425 119.14C134.395 119.65 134.179 120.132 133.816 120.493L130.384 123.926C130.025 124.287 129.545 124.503 129.036 124.533C128.527 124.562 128.025 124.403 127.627 124.086L125.19 122.152C123.807 122.94 122.325 123.54 120.785 123.937L120.419 127.072C120.36 127.577 120.117 128.042 119.737 128.38C119.358 128.717 118.867 128.903 118.359 128.903H113.451C112.943 128.903 112.452 128.717 112.072 128.38C111.693 128.042 111.45 127.577 111.391 127.072L111.014 123.823C109.579 123.411 108.2 122.827 106.906 122.084L104.401 124.006ZM138.565 145.264C138.559 145.768 138.368 146.251 138.028 146.623C137.688 146.994 137.223 147.227 136.723 147.278L135.361 147.427C135.072 148.434 134.653 149.399 134.114 150.298L134.995 151.443C135.303 151.841 135.453 152.339 135.418 152.841C135.382 153.344 135.162 153.815 134.8 154.166L133.313 155.619C132.954 155.97 132.478 156.177 131.975 156.2C131.473 156.224 130.98 156.061 130.59 155.745L129.446 154.818C128.515 155.324 127.523 155.709 126.494 155.962L126.311 157.461C126.244 157.96 125.996 158.417 125.614 158.746C125.233 159.075 124.744 159.253 124.24 159.246H122.169C121.664 159.24 121.179 159.049 120.806 158.71C120.433 158.37 120.197 157.905 120.144 157.404L119.984 155.825C119.031 155.562 118.115 155.177 117.261 154.68L116.036 155.63C115.637 155.941 115.137 156.094 114.632 156.058C114.127 156.022 113.653 155.8 113.302 155.436L111.849 153.948C111.497 153.589 111.29 153.111 111.269 152.609C111.248 152.106 111.414 151.613 111.734 151.225L112.718 150.012C112.248 149.176 111.883 148.284 111.631 147.358L110.098 147.163C109.601 147.097 109.145 146.85 108.817 146.471C108.488 146.092 108.309 145.606 108.313 145.104V143.022C108.319 142.518 108.51 142.035 108.85 141.663C109.19 141.292 109.655 141.059 110.156 141.008L111.586 140.859C111.843 139.853 112.228 138.885 112.73 137.976L111.849 136.832C111.541 136.433 111.39 135.935 111.426 135.433C111.462 134.931 111.682 134.459 112.043 134.109L113.531 132.644C113.893 132.294 114.372 132.088 114.876 132.067C115.38 132.046 115.875 132.211 116.265 132.53L117.284 133.365C118.256 132.805 119.299 132.378 120.384 132.095L120.544 130.814C120.609 130.313 120.856 129.854 121.238 129.525C121.621 129.196 122.111 129.019 122.615 129.029H124.686C125.191 129.034 125.676 129.225 126.049 129.565C126.422 129.904 126.658 130.369 126.711 130.871L126.837 132.164C127.89 132.449 128.895 132.884 129.823 133.457L130.819 132.69C131.218 132.379 131.718 132.226 132.223 132.262C132.728 132.298 133.202 132.52 133.553 132.885L135.006 134.372C135.356 134.733 135.561 135.21 135.582 135.712C135.603 136.214 135.439 136.706 135.121 137.095L134.297 138.113C134.799 139.018 135.183 139.983 135.441 140.985L136.768 141.157C137.268 141.221 137.726 141.466 138.057 141.846C138.388 142.225 138.569 142.713 138.565 143.216V145.264ZM168.232 127.633L166.173 128.056C165.951 129.321 165.567 130.552 165.029 131.717L166.528 133.308C166.875 133.672 167.075 134.151 167.09 134.654C167.105 135.157 166.933 135.647 166.608 136.031L164.422 138.617C164.099 139.002 163.644 139.254 163.146 139.326C162.648 139.398 162.141 139.284 161.722 139.006L159.857 137.77C158.793 138.502 157.64 139.094 156.425 139.532L156.356 141.82C156.338 142.324 156.136 142.804 155.788 143.169C155.44 143.533 154.971 143.758 154.468 143.8L151.093 144.086C150.592 144.126 150.093 143.98 149.692 143.676C149.291 143.373 149.016 142.932 148.919 142.438L148.45 140.15C147.264 139.91 146.111 139.525 145.018 139.006L143.141 140.562C142.775 140.905 142.295 141.102 141.793 141.114C141.291 141.127 140.802 140.955 140.418 140.63L137.832 138.445C137.447 138.121 137.195 137.667 137.123 137.169C137.051 136.671 137.165 136.164 137.443 135.745L138.736 133.8C138.073 132.825 137.524 131.777 137.1 130.676L134.812 130.608C134.308 130.59 133.828 130.388 133.464 130.04C133.099 129.692 132.874 129.222 132.832 128.72L132.546 125.345C132.509 124.844 132.655 124.346 132.959 123.946C133.262 123.545 133.702 123.27 134.194 123.171L136.322 122.724C136.549 121.468 136.933 120.246 137.466 119.086L135.967 117.496C135.622 117.129 135.423 116.648 135.408 116.144C135.393 115.64 135.564 115.148 135.887 114.761L138.073 112.164C138.398 111.778 138.855 111.525 139.354 111.453C139.854 111.382 140.363 111.496 140.784 111.775L142.489 112.919C143.607 112.115 144.831 111.472 146.127 111.008L146.196 109.006C146.209 108.503 146.408 108.022 146.754 107.656C147.101 107.29 147.57 107.066 148.073 107.027L151.448 106.741C151.949 106.7 152.448 106.843 152.85 107.145C153.253 107.446 153.531 107.884 153.633 108.377L154.034 110.345C155.353 110.584 156.635 111 157.844 111.581L159.274 110.242C159.64 109.899 160.12 109.702 160.622 109.689C161.124 109.677 161.613 109.849 161.997 110.173L164.583 112.359C164.971 112.681 165.224 113.137 165.292 113.637C165.359 114.137 165.237 114.645 164.949 115.059L163.805 116.752C164.526 117.815 165.103 118.969 165.521 120.184L167.58 120.253C168.082 120.271 168.56 120.471 168.925 120.817C169.29 121.162 169.515 121.629 169.56 122.13L169.846 125.562C169.857 126.042 169.701 126.511 169.405 126.889C169.108 127.267 168.69 127.53 168.221 127.633H168.232Z" fill="white"/>
<path d="M116.108 115.723C114.18 115.723 112.295 115.151 110.692 114.08C109.089 113.009 107.839 111.486 107.101 109.705C106.364 107.924 106.171 105.964 106.547 104.073C106.923 102.182 107.851 100.445 109.215 99.0817C110.578 97.7184 112.315 96.79 114.206 96.4139C116.097 96.0377 118.057 96.2308 119.838 96.9686C121.619 97.7064 123.142 98.9559 124.213 100.559C125.284 102.162 125.856 104.047 125.856 105.975C125.856 108.56 124.829 111.04 123 112.868C121.172 114.696 118.693 115.723 116.108 115.723V115.723ZM116.108 99.5102C114.829 99.5102 113.579 99.8894 112.516 100.6C111.453 101.31 110.624 102.32 110.135 103.501C109.646 104.682 109.518 105.982 109.767 107.236C110.017 108.49 110.632 109.642 111.536 110.546C112.441 111.45 113.592 112.065 114.846 112.315C116.1 112.564 117.4 112.436 118.581 111.947C119.763 111.458 120.772 110.629 121.482 109.566C122.193 108.503 122.572 107.253 122.572 105.975C122.569 104.261 121.887 102.619 120.675 101.407C119.464 100.195 117.821 99.5133 116.108 99.5102V99.5102Z" fill="white"/>
<path d="M151.276 133.514C149.167 133.42 147.179 132.503 145.737 130.962C144.295 129.42 143.513 127.374 143.561 125.264C143.608 123.153 144.479 121.145 145.989 119.669C147.498 118.193 149.525 117.366 151.636 117.366C153.747 117.366 155.775 118.193 157.284 119.669C158.793 121.145 159.665 123.153 159.712 125.264C159.759 127.374 158.978 129.42 157.536 130.962C156.094 132.503 154.106 133.42 151.997 133.514V133.514H151.276ZM151.276 120.242H150.841C150.165 120.267 149.502 120.429 148.891 120.718C148.279 121.007 147.733 121.417 147.285 121.923C146.836 122.429 146.495 123.021 146.282 123.662C146.069 124.304 145.988 124.982 146.045 125.656C146.101 126.33 146.294 126.985 146.611 127.582C146.928 128.18 147.363 128.706 147.889 129.131C148.416 129.555 149.023 129.868 149.674 130.051C150.325 130.234 151.006 130.283 151.676 130.196V130.196C152.95 130.074 154.129 129.469 154.97 128.505C155.812 127.541 156.251 126.291 156.198 125.012C156.145 123.734 155.604 122.524 154.687 121.632C153.769 120.74 152.544 120.235 151.264 120.219L151.276 120.242Z" fill="white"/>
<path d="M123.499 151.031H123.419C121.541 151.02 119.744 150.266 118.422 148.932C117.1 147.599 116.36 145.795 116.365 143.917C116.371 142.039 117.12 140.24 118.45 138.914C119.78 137.588 121.581 136.844 123.459 136.844C125.337 136.844 127.138 137.588 128.468 138.914C129.798 140.24 130.547 142.039 130.553 143.917C130.558 145.795 129.818 147.599 128.496 148.932C127.174 150.266 125.377 151.02 123.499 151.031V151.031ZM123.499 140.219C122.757 140.22 122.033 140.44 121.415 140.851C120.798 141.261 120.315 141.845 120.027 142.528C119.739 143.212 119.659 143.965 119.796 144.693C119.933 145.422 120.282 146.094 120.799 146.626C121.144 146.98 121.555 147.263 122.01 147.457C122.464 147.652 122.953 147.755 123.447 147.76C123.941 147.766 124.432 147.673 124.891 147.488C125.349 147.304 125.767 147.03 126.119 146.683C126.649 146.161 127.012 145.494 127.165 144.767C127.317 144.039 127.251 143.282 126.975 142.592C126.698 141.901 126.224 141.308 125.612 140.886C125 140.463 124.277 140.231 123.533 140.219H123.499Z" fill="white"/>
<path d="M1804.09 95.7314C1794.72 95.7314 1786.35 97.5753 1778.97 101.263C1771.59 104.797 1766.29 109.945 1763.07 116.706V189.772H1732.18V68.9943H1760.53V94.8094C1764.83 86.5117 1770.29 79.9811 1776.9 75.2176C1783.5 70.4541 1790.49 67.8418 1797.87 67.3809C1799.56 67.3809 1800.87 67.3809 1801.79 67.3809C1802.71 67.3809 1803.48 67.4577 1804.09 67.6114V95.7314Z" fill="#1C7BD4"/>
<path d="M1650.21 192.077C1640.53 192.077 1631.77 190.464 1623.93 187.237C1616.09 183.856 1609.41 179.323 1603.88 173.638C1598.35 167.799 1594.04 161.191 1590.97 153.815C1588.05 146.286 1586.59 138.372 1586.59 130.075C1586.59 118.55 1589.13 108.024 1594.2 98.4972C1599.42 88.9702 1606.8 81.364 1616.32 75.6785C1626 69.8394 1637.38 66.9198 1650.44 66.9198C1663.65 66.9198 1674.95 69.8394 1684.32 75.6785C1693.69 81.364 1700.84 88.9702 1705.76 98.4972C1710.83 107.871 1713.36 118.012 1713.36 128.922C1713.36 130.766 1713.28 132.687 1713.13 134.684C1712.98 136.528 1712.82 138.065 1712.67 139.294H1619.32C1619.94 145.441 1621.7 150.819 1624.62 155.429C1627.7 160.039 1631.54 163.573 1636.15 166.031C1640.91 168.336 1645.98 169.489 1651.36 169.489C1657.51 169.489 1663.27 168.029 1668.65 165.109C1674.18 162.036 1677.94 158.041 1679.94 153.124L1706.45 160.5C1703.53 166.646 1699.3 172.101 1693.77 176.865C1688.39 181.628 1682.01 185.393 1674.64 188.159C1667.26 190.771 1659.12 192.077 1650.21 192.077ZM1618.63 119.703H1681.78C1681.17 113.556 1679.4 108.255 1676.48 103.799C1673.72 99.1887 1670.03 95.6545 1665.42 93.1959C1660.81 90.5837 1655.66 89.2775 1649.98 89.2775C1644.44 89.2775 1639.37 90.5837 1634.76 93.1959C1630.31 95.6545 1626.62 99.1887 1623.7 103.799C1620.93 108.255 1619.24 113.556 1618.63 119.703Z" fill="#1C7BD4"/>
<path d="M1521.46 192.077C1511.63 192.077 1502.79 190.464 1494.95 187.237C1487.12 183.856 1480.43 179.246 1474.9 173.407C1469.37 167.414 1465.07 160.653 1461.99 153.124C1459.07 145.594 1457.61 137.681 1457.61 129.383C1457.61 118.012 1460.15 107.64 1465.22 98.2667C1470.44 88.7397 1477.82 81.1335 1487.35 75.448C1496.87 69.7625 1508.17 66.9198 1521.23 66.9198C1534.29 66.9198 1545.51 69.7625 1554.88 75.448C1564.25 81.1335 1571.25 88.5861 1575.86 97.8058L1545.66 107.025C1543.05 102.569 1539.59 99.1887 1535.29 96.8838C1530.99 94.4252 1526.22 93.1959 1521 93.1959C1515.16 93.1959 1509.78 94.7325 1504.86 97.8058C1500.1 100.725 1496.34 104.951 1493.57 110.483C1490.8 115.861 1489.42 122.161 1489.42 129.383C1489.42 136.452 1490.8 142.752 1493.57 148.284C1496.49 153.662 1500.33 157.964 1505.09 161.191C1509.86 164.264 1515.16 165.801 1521 165.801C1524.69 165.801 1528.14 165.186 1531.37 163.957C1534.75 162.728 1537.75 161.037 1540.36 158.886C1542.97 156.735 1544.89 154.276 1546.12 151.51L1576.32 160.73C1573.55 166.723 1569.48 172.101 1564.1 176.865C1558.88 181.628 1552.65 185.393 1545.43 188.159C1538.36 190.771 1530.37 192.077 1521.46 192.077Z" fill="#1C7BD4"/>
<path d="M1438.37 189.772H1407.48V122.007C1407.48 112.327 1405.79 105.258 1402.41 100.802C1399.03 96.346 1394.34 94.1179 1388.35 94.1179C1384.2 94.1179 1379.98 95.1935 1375.67 97.3448C1371.52 99.496 1367.76 102.492 1364.38 106.334C1361 110.022 1358.54 114.324 1357 119.242V189.772H1326.12V68.9942H1354.01V91.352C1357.08 86.1275 1361 81.7481 1365.76 78.2139C1370.53 74.526 1375.98 71.7601 1382.13 69.9162C1388.43 67.9186 1395.03 66.9198 1401.95 66.9198C1409.48 66.9198 1415.62 68.3027 1420.39 71.0687C1425.31 73.6809 1428.99 77.2919 1431.45 81.9018C1434.06 86.358 1435.83 91.4288 1436.75 97.1143C1437.83 102.8 1438.37 108.562 1438.37 114.401V189.772Z" fill="#1C7BD4"/>
<path d="M1201.92 213.282C1204.69 213.897 1207.22 214.435 1209.53 214.896C1211.99 215.357 1214.06 215.587 1215.75 215.587C1218.67 215.587 1221.05 214.819 1222.9 213.282C1224.9 211.899 1226.82 209.287 1228.66 205.445C1230.5 201.758 1232.43 196.533 1234.42 189.772L1186.71 68.9941H1218.75L1251.25 158.195L1279.83 68.9941H1309.33L1258.62 213.743C1256.78 219.121 1253.94 223.962 1250.1 228.264C1246.41 232.72 1241.72 236.178 1236.04 238.636C1230.5 241.249 1224.28 242.555 1217.37 242.555C1214.91 242.555 1212.45 242.324 1209.99 241.863C1207.53 241.556 1204.84 240.941 1201.92 240.019V213.282Z" fill="#1C7BD4"/>
<path d="M1162.35 68.9941C1161.28 67.9185 1159.28 66.4587 1156.36 64.6147C1153.6 62.7708 1150.14 61.0037 1145.99 59.3134C1141.99 57.6231 1137.61 56.1634 1132.85 54.9341C1128.09 53.5511 1123.25 52.8596 1118.33 52.8596C1109.72 52.8596 1103.19 54.4731 1098.74 57.7C1094.44 60.9269 1092.28 65.4599 1092.28 71.299C1092.28 75.7552 1093.67 79.2894 1096.43 81.9016C1099.2 84.5139 1103.35 86.742 1108.88 88.5859C1114.41 90.4299 1121.33 92.4275 1129.62 94.5787C1140.38 97.191 1149.68 100.418 1157.51 104.259C1165.5 107.947 1171.57 112.864 1175.72 119.011C1180.02 125.004 1182.18 132.994 1182.18 142.982C1182.18 151.741 1180.56 159.27 1177.34 165.57C1174.11 171.717 1169.65 176.711 1163.97 180.552C1158.28 184.394 1151.83 187.237 1144.61 189.08C1137.38 190.771 1129.7 191.616 1121.56 191.616C1113.41 191.616 1105.27 190.771 1097.12 189.08C1088.98 187.39 1081.14 185.008 1073.61 181.935C1066.08 178.708 1059.17 174.867 1052.87 170.411L1066.93 142.982C1068.31 144.365 1070.77 146.209 1074.31 148.514C1077.84 150.665 1082.14 152.893 1087.21 155.198C1092.28 157.349 1097.82 159.193 1103.81 160.73C1109.8 162.267 1115.87 163.035 1122.02 163.035C1130.62 163.035 1137.15 161.575 1141.61 158.656C1146.07 155.736 1148.29 151.587 1148.29 146.209C1148.29 141.292 1146.53 137.45 1142.99 134.684C1139.46 131.918 1134.54 129.537 1128.24 127.539C1121.94 125.388 1114.49 123.083 1105.88 120.624C1095.59 117.705 1086.98 114.478 1080.07 110.944C1073.15 107.256 1068.01 102.646 1064.63 97.1141C1061.24 91.5823 1059.55 84.6676 1059.55 76.3698C1059.55 65.1526 1062.17 55.7792 1067.39 48.2498C1072.77 40.5667 1079.99 34.8044 1089.06 30.9629C1098.12 26.9677 1108.19 24.9701 1119.25 24.9701C1126.93 24.9701 1134.16 25.8152 1140.92 27.5055C1147.83 29.1958 1154.29 31.4239 1160.28 34.1898C1166.27 36.9557 1171.65 39.9521 1176.41 43.179L1162.35 68.9941Z" fill="#1C7BD4"/>
<path d="M907.653 190.463C899.663 190.463 892.287 188.927 885.526 185.854C878.918 182.627 873.156 178.171 868.239 172.485C863.475 166.8 859.787 160.269 857.175 152.893C854.563 145.517 853.257 137.681 853.257 129.383C853.257 120.624 854.64 112.48 857.406 104.951C860.172 97.4215 864.013 90.814 868.93 85.1286C874.001 79.2894 879.917 74.8332 886.678 71.76C893.593 68.5331 901.199 66.9197 909.497 66.9197C918.87 66.9197 927.091 69.0709 934.16 73.3735C941.228 77.5223 947.067 83.131 951.677 90.1994V68.9941H978.645V184.01C978.645 195.995 975.725 206.214 969.886 214.665C964.2 223.27 956.287 229.801 946.145 234.257C936.003 238.867 924.479 241.172 911.571 241.172C898.51 241.172 887.446 238.944 878.38 234.487C869.314 230.185 861.555 224.038 855.101 216.048L871.927 199.683C876.537 205.369 882.299 209.825 889.214 213.052C896.282 216.279 903.735 217.892 911.571 217.892C918.179 217.892 924.172 216.663 929.55 214.204C935.082 211.899 939.461 208.211 942.688 203.141C946.068 198.223 947.759 191.846 947.759 184.01V168.797C943.763 175.712 938.078 181.09 930.702 184.932C923.48 188.62 915.797 190.463 907.653 190.463ZM918.025 165.801C921.406 165.801 924.633 165.263 927.706 164.187C930.779 163.112 933.622 161.652 936.234 159.808C938.846 157.964 941.151 155.813 943.149 153.354C945.146 150.742 946.683 148.13 947.759 145.517V116.706C945.915 111.942 943.302 107.794 939.922 104.259C936.695 100.725 933.007 98.0361 928.858 96.1922C924.863 94.1946 920.637 93.1958 916.181 93.1958C911.418 93.1958 907.115 94.1946 903.274 96.1922C899.432 98.1898 896.128 101.033 893.362 104.72C890.597 108.255 888.445 112.25 886.909 116.706C885.526 121.009 884.834 125.542 884.834 130.305C884.834 135.222 885.679 139.832 887.37 144.135C889.06 148.437 891.365 152.202 894.284 155.429C897.358 158.656 900.892 161.191 904.887 163.035C909.036 164.879 913.415 165.801 918.025 165.801Z" fill="#000144"/>
<path d="M736.779 98.958H720.875V75.4478H736.779V68.0721C736.779 61.311 737.855 55.0109 740.006 49.1717C742.311 43.3326 745.538 38.1849 749.687 33.7288C753.989 29.1189 759.137 25.5847 765.13 23.1261C771.276 20.5139 778.191 19.2078 785.874 19.2078C791.713 19.2078 797.168 19.8224 802.239 21.0517C807.463 22.281 812.38 24.0481 816.99 26.353C821.754 28.6579 826.287 31.2702 830.589 34.1898L818.373 57.239C814.378 53.7047 809.691 50.862 804.313 48.7107C798.935 46.5595 793.48 45.4839 787.948 45.4839C783.492 45.4839 779.727 46.4827 776.654 48.4803C773.581 50.4779 771.276 53.0901 769.739 56.317C768.356 59.5439 767.665 63.0781 767.665 66.9196V75.4478H832.433V189.772H801.547V98.958H767.665V189.772H736.779V98.958Z" fill="#000144"/>
<path d="M703.223 189.772H672.337V122.007C672.337 112.327 670.647 105.258 667.267 100.802C663.886 96.3458 659.199 94.1178 653.207 94.1178C649.058 94.1178 644.832 95.1934 640.529 97.3446C636.381 99.4959 632.616 102.492 629.235 106.334C625.855 110.022 623.396 114.324 621.86 119.241V189.772H590.974V68.9941H618.863V91.3519C621.936 86.1274 625.855 81.748 630.618 78.2138C635.382 74.5259 640.837 71.76 646.983 69.9161C653.283 67.9185 659.891 66.9197 666.806 66.9197C674.335 66.9197 680.481 68.3026 685.245 71.0685C690.162 73.6808 693.85 77.2918 696.309 81.9017C698.921 86.3578 700.688 91.4287 701.61 97.1142C702.685 102.8 703.223 108.562 703.223 114.401V189.772Z" fill="#000144"/>
<path d="M506.969 192.077C497.135 192.077 488.299 190.463 480.463 187.237C472.626 183.856 465.942 179.246 460.41 173.407C455.032 167.568 450.883 160.884 447.963 153.354C445.044 145.825 443.584 137.911 443.584 129.614C443.584 121.162 445.044 113.172 447.963 105.642C450.883 98.113 455.032 91.4287 460.41 85.5895C465.942 79.7504 472.626 75.2174 480.463 71.9905C488.299 68.6099 497.135 66.9197 506.969 66.9197C516.804 66.9197 525.562 68.6099 533.245 71.9905C541.082 75.2174 547.766 79.7504 553.298 85.5895C558.83 91.4287 562.979 98.113 565.745 105.642C568.664 113.172 570.124 121.162 570.124 129.614C570.124 137.911 568.664 145.825 565.745 153.354C562.979 160.884 558.83 167.568 553.298 173.407C547.92 179.246 541.313 183.856 533.476 187.237C525.639 190.463 516.804 192.077 506.969 192.077ZM475.392 129.614C475.392 136.682 476.775 142.982 479.541 148.514C482.307 153.892 486.071 158.118 490.835 161.191C495.598 164.264 500.977 165.801 506.969 165.801C512.808 165.801 518.11 164.264 522.873 161.191C527.637 157.964 531.401 153.662 534.167 148.283C537.087 142.752 538.547 136.451 538.547 129.383C538.547 122.468 537.087 116.245 534.167 110.713C531.401 105.181 527.637 100.879 522.873 97.8056C518.11 94.7324 512.808 93.1958 506.969 93.1958C500.977 93.1958 495.598 94.8092 490.835 98.0361C486.071 101.109 482.307 105.412 479.541 110.944C476.775 116.322 475.392 122.545 475.392 129.614Z" fill="#000144"/>
<path d="M286.714 106.795C286.714 96.8069 288.481 87.0494 292.015 77.5224C295.703 67.8417 301.004 59.083 307.919 51.2463C314.834 43.2559 323.285 36.9558 333.273 32.3459C343.261 27.5824 354.632 25.2007 367.386 25.2007C382.445 25.2007 395.429 28.5044 406.339 35.1119C417.403 41.7193 425.624 50.3243 431.002 60.927L406.57 77.7529C403.804 71.6064 400.193 66.7661 395.737 63.2319C391.28 59.544 386.517 57.0086 381.446 55.6256C376.375 54.089 371.381 53.3207 366.464 53.3207C358.474 53.3207 351.482 54.9342 345.489 58.161C339.65 61.3879 334.733 65.6136 330.738 70.8381C326.743 76.0626 323.746 81.9017 321.749 88.3555C319.905 94.8093 318.983 101.263 318.983 107.717C318.983 114.939 320.135 121.931 322.44 128.692C324.745 135.299 327.972 141.215 332.121 146.44C336.423 151.51 341.494 155.582 347.333 158.656C353.326 161.575 359.857 163.035 366.925 163.035C371.996 163.035 377.144 162.19 382.368 160.5C387.593 158.809 392.433 156.12 396.889 152.432C401.345 148.744 404.803 143.981 407.261 138.142L433.307 153.124C430.08 161.268 424.779 168.183 417.403 173.868C410.181 179.554 402.037 183.856 392.971 186.776C383.905 189.695 374.916 191.155 366.003 191.155C354.325 191.155 343.645 188.773 333.965 184.01C324.284 179.093 315.91 172.639 308.841 164.648C301.926 156.504 296.471 147.438 292.476 137.45C288.635 127.309 286.714 117.09 286.714 106.795Z" fill="#000144"/>
<path d="M1736.62 449.313L1769.26 341.044H1801.11L1752.27 481.275C1751.14 484.277 1749.68 487.54 1747.88 491.067C1746.15 494.593 1743.82 497.932 1740.9 501.083C1737.97 504.31 1734.3 506.936 1729.87 508.961C1725.52 510.987 1720.23 512 1714 512C1711.3 512 1708.9 511.813 1706.8 511.437C1704.7 511.062 1702.48 510.575 1700.16 509.974V487.69C1700.91 487.765 1701.77 487.803 1702.75 487.803C1703.8 487.878 1704.7 487.916 1705.45 487.916C1709.8 487.916 1713.4 487.39 1716.25 486.34C1719.1 485.364 1721.39 483.751 1723.12 481.5C1724.92 479.325 1726.42 476.473 1727.62 472.947L1736.62 449.313ZM1720.53 341.044L1748.1 430.743L1752.94 462.143L1732.46 465.857L1688.45 341.044H1720.53Z" fill="#00A651"/>
<path d="M1605.08 341.044V362.428H1535.3V341.044H1605.08ZM1553.98 311.107H1583.8V427.704C1583.8 431.305 1584.29 434.081 1585.27 436.032C1586.24 437.983 1587.71 439.296 1589.66 439.971C1591.61 440.646 1593.93 440.984 1596.63 440.984C1598.59 440.984 1600.39 440.871 1602.04 440.646C1603.69 440.421 1605.08 440.196 1606.2 439.971L1606.31 462.255C1603.84 463.08 1601.02 463.756 1597.87 464.281C1594.8 464.806 1591.31 465.069 1587.41 465.069C1580.73 465.069 1574.88 463.943 1569.85 461.692C1564.82 459.366 1560.92 455.652 1558.14 450.55C1555.37 445.373 1553.98 438.545 1553.98 430.067V311.107Z" fill="#00A651"/>
<path d="M1443.03 341.044V462.818H1413.21V341.044H1443.03ZM1411.18 309.194C1411.18 304.767 1412.68 301.091 1415.68 298.164C1418.76 295.238 1422.88 293.775 1428.06 293.775C1433.24 293.775 1437.33 295.238 1440.33 298.164C1443.41 301.091 1444.94 304.767 1444.94 309.194C1444.94 313.546 1443.41 317.185 1440.33 320.111C1437.33 323.037 1433.24 324.5 1428.06 324.5C1422.88 324.5 1418.76 323.037 1415.68 320.111C1412.68 317.185 1411.18 313.546 1411.18 309.194Z" fill="#00A651"/>
<path d="M1235.85 367.042V462.818H1206.14V341.044H1234.05L1235.85 367.042ZM1231.13 397.542H1222.35C1222.42 388.688 1223.62 380.66 1225.95 373.457C1228.28 366.254 1231.54 360.064 1235.74 354.887C1240.02 349.71 1245.08 345.734 1250.94 342.957C1256.79 340.181 1263.32 338.793 1270.52 338.793C1276.37 338.793 1281.66 339.619 1286.39 341.269C1291.11 342.92 1295.17 345.546 1298.54 349.147C1301.99 352.749 1304.62 357.476 1306.42 363.328C1308.3 369.105 1309.23 376.233 1309.23 384.712V462.818H1279.3V384.487C1279.3 378.934 1278.47 374.545 1276.82 371.319C1275.25 368.093 1272.92 365.804 1269.84 364.454C1266.84 363.103 1263.13 362.428 1258.7 362.428C1254.12 362.428 1250.11 363.366 1246.66 365.241C1243.28 367.042 1240.43 369.556 1238.11 372.782C1235.85 376.008 1234.13 379.722 1232.93 383.924C1231.73 388.126 1231.13 392.665 1231.13 397.542Z" fill="#00A651"/>
<path d="M1074.36 433.894V341.044H1104.3V462.818H1076.17L1074.36 433.894ZM1078.19 408.684L1087.42 408.459C1087.42 416.637 1086.52 424.178 1084.72 431.08C1082.92 437.983 1080.1 443.985 1076.28 449.087C1072.53 454.115 1067.76 458.054 1061.98 460.905C1056.21 463.681 1049.38 465.069 1041.5 465.069C1035.5 465.069 1030.02 464.244 1025.07 462.593C1020.12 460.867 1015.84 458.204 1012.24 454.602C1008.71 450.926 1005.97 446.236 1004.02 440.534C1002.07 434.757 1001.1 427.816 1001.1 419.713V341.044H1030.81V419.938C1030.81 423.99 1031.26 427.366 1032.16 430.067C1033.14 432.768 1034.45 434.982 1036.1 436.708C1037.82 438.358 1039.81 439.559 1042.06 440.309C1044.39 440.984 1046.87 441.322 1049.49 441.322C1056.69 441.322 1062.36 439.896 1066.49 437.045C1070.69 434.119 1073.69 430.217 1075.49 425.341C1077.29 420.389 1078.19 414.836 1078.19 408.684Z" fill="#00A651"/>
<path d="M755.092 366.029V462.818H725.38V341.044H753.404L755.092 366.029ZM750.703 397.542H741.586C741.586 389.063 742.599 381.26 744.625 374.132C746.726 367.005 749.802 360.815 753.854 355.563C757.905 350.235 762.895 346.109 768.822 343.183C774.825 340.256 781.765 338.793 789.643 338.793C795.12 338.793 800.147 339.619 804.724 341.269C809.301 342.845 813.24 345.358 816.541 348.81C819.918 352.186 822.506 356.613 824.307 362.09C826.108 367.492 827.008 373.982 827.008 381.56V462.818H797.296V384.599C797.296 378.897 796.471 374.433 794.82 371.206C793.245 367.98 790.956 365.729 787.955 364.454C784.954 363.103 781.352 362.428 777.151 362.428C772.499 362.428 768.485 363.366 765.108 365.241C761.807 367.042 759.068 369.556 756.892 372.782C754.792 376.008 753.216 379.722 752.166 383.924C751.19 388.126 750.703 392.665 750.703 397.542ZM824.757 392.027L812.49 394.278C812.565 386.625 813.615 379.46 815.641 372.782C817.667 366.029 820.63 360.139 824.532 355.112C828.509 350.01 833.423 346.034 839.275 343.183C845.203 340.256 852.03 338.793 859.759 338.793C865.761 338.793 871.163 339.656 875.965 341.382C880.842 343.033 885.006 345.696 888.458 349.373C891.909 352.974 894.535 357.663 896.336 363.441C898.211 369.218 899.149 376.271 899.149 384.599V462.818H869.212V384.487C869.212 378.559 868.387 374.02 866.736 370.869C865.161 367.717 862.872 365.542 859.871 364.341C856.87 363.066 853.344 362.428 849.292 362.428C845.165 362.428 841.564 363.216 838.488 364.791C835.486 366.292 832.935 368.393 830.835 371.094C828.809 373.795 827.271 376.946 826.22 380.548C825.245 384.074 824.757 387.9 824.757 392.027Z" fill="#00A651"/>
<path d="M478.701 366.029V462.818H448.989V341.044H477.013L478.701 366.029ZM474.312 397.542H465.196C465.196 389.063 466.209 381.26 468.234 374.132C470.335 367.005 473.412 360.815 477.463 355.563C481.515 350.235 486.504 346.109 492.432 343.183C498.434 340.256 505.374 338.793 513.252 338.793C518.73 338.793 523.757 339.619 528.333 341.269C532.91 342.845 536.849 345.358 540.151 348.81C543.527 352.186 546.116 356.613 547.916 362.09C549.717 367.492 550.617 373.982 550.617 381.56V462.818H520.905V384.599C520.905 378.897 520.08 374.433 518.43 371.206C516.854 367.98 514.565 365.729 511.564 364.454C508.563 363.103 504.962 362.428 500.76 362.428C496.108 362.428 492.094 363.366 488.718 365.241C485.416 367.042 482.678 369.556 480.502 372.782C478.401 376.008 476.825 379.722 475.775 383.924C474.8 388.126 474.312 392.665 474.312 397.542ZM548.366 392.027L536.099 394.278C536.174 386.625 537.225 379.46 539.25 372.782C541.276 366.029 544.24 360.139 548.141 355.112C552.118 350.01 557.032 346.034 562.885 343.183C568.812 340.256 575.64 338.793 583.368 338.793C589.37 338.793 594.773 339.656 599.574 341.382C604.451 343.033 608.616 345.696 612.067 349.373C615.518 352.974 618.144 357.663 619.945 363.441C621.821 369.218 622.759 376.271 622.759 384.599V462.818H592.822V384.487C592.822 378.559 591.996 374.02 590.346 370.869C588.77 367.717 586.482 365.542 583.48 364.341C580.479 363.066 576.953 362.428 572.901 362.428C568.775 362.428 565.173 363.216 562.097 364.791C559.096 366.292 556.545 368.393 554.444 371.094C552.418 373.795 550.88 376.946 549.83 380.548C548.854 384.074 548.366 387.9 548.366 392.027Z" fill="#00A651"/>
<path d="M237.198 403.169V400.806C237.198 391.877 238.474 383.661 241.025 376.158C243.576 368.58 247.29 362.015 252.167 356.463C257.044 350.911 263.009 346.596 270.061 343.52C277.114 340.369 285.142 338.793 294.146 338.793C303.3 338.793 311.403 340.369 318.456 343.52C325.584 346.596 331.586 350.911 336.463 356.463C341.34 362.015 345.054 368.58 347.605 376.158C350.156 383.661 351.431 391.877 351.431 400.806V403.169C351.431 412.023 350.156 420.238 347.605 427.816C345.054 435.319 341.34 441.885 336.463 447.512C331.586 453.064 325.621 457.378 318.568 460.454C311.515 463.531 303.45 465.069 294.371 465.069C285.367 465.069 277.302 463.531 270.174 460.454C263.046 457.378 257.044 453.064 252.167 447.512C247.29 441.885 243.576 435.319 241.025 427.816C238.474 420.238 237.198 412.023 237.198 403.169ZM266.91 400.806V403.169C266.91 408.496 267.435 413.486 268.486 418.138C269.536 422.789 271.149 426.879 273.325 430.405C275.501 433.931 278.315 436.707 281.766 438.733C285.292 440.684 289.494 441.659 294.371 441.659C299.173 441.659 303.3 440.684 306.751 438.733C310.202 436.707 313.016 433.931 315.192 430.405C317.443 426.879 319.093 422.789 320.144 418.138C321.194 413.486 321.72 408.496 321.72 403.169V400.806C321.72 395.554 321.194 390.639 320.144 386.062C319.093 381.41 317.443 377.321 315.192 373.795C313.016 370.193 310.165 367.38 306.638 365.354C303.187 363.253 299.023 362.203 294.146 362.203C289.344 362.203 285.217 363.253 281.766 365.354C278.315 367.38 275.501 370.193 273.325 373.795C271.149 377.321 269.536 381.41 268.486 386.062C267.435 390.639 266.91 395.554 266.91 400.806Z" fill="#00A651"/>
<path d="M113.755 408.909H144.705C143.88 419.863 140.841 429.579 135.589 438.058C130.337 446.461 123.021 453.064 113.643 457.866C104.264 462.668 92.8968 465.069 79.5414 465.069C69.2623 465.069 59.9961 463.268 51.7428 459.666C43.5645 455.99 36.5492 450.775 30.6969 444.023C24.9196 437.195 20.4928 429.017 17.4166 419.488C14.3404 409.884 12.8022 399.117 12.8022 387.187V374.695C12.8022 362.765 14.3779 351.998 17.5291 342.395C20.6804 332.791 25.1822 324.612 31.0345 317.86C36.9619 311.032 44.0522 305.78 52.3055 302.103C60.6339 298.427 69.9376 296.589 80.2167 296.589C93.572 296.589 104.864 299.065 114.093 304.017C123.321 308.894 130.487 315.609 135.589 324.162C140.691 332.716 143.767 342.545 144.818 353.649H113.868C113.267 346.746 111.767 340.894 109.366 336.092C107.04 331.29 103.513 327.651 98.7866 325.175C94.1348 322.624 87.9448 321.349 80.2167 321.349C74.2143 321.349 68.9247 322.474 64.3478 324.725C59.846 326.976 56.0945 330.352 53.0933 334.854C50.0921 339.281 47.8412 344.833 46.3406 351.511C44.8401 358.113 44.0898 365.766 44.0898 374.47V387.187C44.0898 395.516 44.765 402.981 46.1156 409.584C47.4661 416.187 49.5669 421.776 52.4181 426.353C55.2692 430.93 58.9457 434.419 63.4475 436.82C67.9493 439.221 73.3139 440.421 79.5414 440.421C87.1194 440.421 93.2719 439.221 97.9988 436.82C102.801 434.419 106.44 430.892 108.916 426.241C111.467 421.589 113.08 415.811 113.755 408.909Z" fill="#00A651"/>
</svg>
