<svg xmlns="http://www.w3.org/2000/svg" width="1771" height="512" fill="none" xmlns:v="https://vecta.io/nano"><path d="M107.775 1.778L29.5 39.478a17.97 17.97 0 0 0-9.725 12.185L.447 136.373a17.97 17.97 0 0 0 .005 7.987 17.97 17.97 0 0 0 3.466 7.196l54.175 67.943c1.685 2.104 3.821 3.803 6.251 4.969a17.97 17.97 0 0 0 7.787 1.769h86.888a17.97 17.97 0 0 0 7.787-1.769 17.96 17.96 0 0 0 6.251-4.969l54.175-67.943c1.681-2.108 2.865-4.568 3.466-7.196s.602-5.358.004-7.987l-19.338-84.71a17.97 17.97 0 0 0-3.468-7.2 17.96 17.96 0 0 0-6.246-4.985l-78.287-37.7C120.931.608 118.267 0 115.569 0s-5.363.608-7.794 1.778h0z" fill="#1c7bd4"/><path d="M198.896 124.143c-1.624-3.52-3.959-6.665-6.858-9.237a28.09 28.09 0 0 0-9.987-5.711 1.44 1.44 0 0 1-.929-.57c-.223-.305-.317-.685-.262-1.058a30.27 30.27 0 0 0-.303-4.167 28.52 28.52 0 0 0-21.764-23.246c-2.246-.505-5.065 0-6.368-2.83a6.14 6.14 0 0 0-1.123-1.46 44.32 44.32 0 0 0-14.88-10.848c-4.309-2.053-8.971-3.262-13.735-3.56-8.591-.337-17.204-.281-25.829-.371h-9.557c-.865 0-1.729.236-2.594.292-1.808.123-3.74 2.751-3.526 4.492a4.63 4.63 0 0 0 4.492 4.346c4.178-.112 8.355 0 12.533 0a4.01 4.01 0 0 1 3.628 3.56c.348 3.369-2.325 4.964-4.897 4.941-10.613-.09-21.225 0-31.827 0a4.66 4.66 0 0 0-4.279 3.189 4.18 4.18 0 0 0 1.897 4.942 7.09 7.09 0 0 0 3.144.921c4.211.101 8.423 0 12.78 0a45.84 45.84 0 0 0-3.369 20.383h-1.696-46.246a4.49 4.49 0 0 0-5.268 4.39 4.49 4.49 0 0 0 .402 1.893 4.5 4.5 0 0 0 4.798 2.577c7.681-.112 15.363-.067 23.044 0 2.134 0 4.122.573 5.076 2.763a4.38 4.38 0 0 1-2.165 5.567 4.38 4.38 0 0 1-2.125.43H32.61a4.54 4.54 0 0 0-1.726.408 4.55 4.55 0 0 0-1.439 1.038 4.54 4.54 0 0 0-.932 1.509 4.52 4.52 0 0 0-.283 1.75c.022.596.16 1.184.408 1.726a4.55 4.55 0 0 0 2.547 2.371 4.54 4.54 0 0 0 1.751.283H37.9a20.48 20.48 0 0 0 0 2.763 50.45 50.45 0 0 0 1.426 7.861 27.69 27.69 0 0 0 9.209 13.375c4.732 4.025 10.713 6.283 16.924 6.39H173.64c2.005-.001 4.001-.257 5.941-.763 8.771-2.314 15.329-7.39 19.237-15.723 1.917-3.817 2.922-8.027 2.936-12.299a27.6 27.6 0 0 0-2.857-12.317h0zm-96.423-2.426a2.03 2.03 0 0 1-1.381.444c-.499-.027-.971-.237-1.326-.59l-3.369-3.369c-.351-.356-.559-.827-.586-1.326s.13-.99.44-1.381l1.977-2.493a18.01 18.01 0 0 1-1.64-3.885l-3.133-.36c-.494-.06-.95-.299-1.281-.671a2.04 2.04 0 0 1-.516-1.35v-4.818a2.04 2.04 0 0 1 1.797-2.021l2.976-.337a17.5 17.5 0 0 1 1.673-4.245l-1.853-2.347a2.03 2.03 0 0 1 .146-2.706l3.369-3.369a2.05 2.05 0 0 1 1.324-.592c.499-.029.991.126 1.383.435l2.246 1.763a17.56 17.56 0 0 1 4.492-1.92l.326-2.763a2.03 2.03 0 0 1 .665-1.29c.373-.334.856-.518 1.356-.518h4.807c.5 0 .983.184 1.356.518a2.03 2.03 0 0 1 .665 1.29l.326 2.763a17.44 17.44 0 0 1 4.425 1.853l2.133-1.696c.392-.311.884-.468 1.384-.439a2.03 2.03 0 0 1 1.323.596l3.369 3.369a2.04 2.04 0 0 1 .586 1.326c.027.499-.13.99-.44 1.381l-1.741 2.246a17.6 17.6 0 0 1 1.707 4.211l2.83.326c.497.058.955.296 1.288.668s.518.854.52 1.354v4.818c-.002.499-.187.981-.52 1.354a2.04 2.04 0 0 1-1.288.667l-2.863.326c-.407 1.49-1.008 2.921-1.786 4.256l1.864 2.358c.312.394.469.888.44 1.389s-.242.975-.597 1.329l-3.369 3.369a2.03 2.03 0 0 1-2.707.157l-2.392-1.897c-1.357.772-2.811 1.361-4.323 1.751l-.36 3.078c-.057.495-.295.952-.668 1.283a2.03 2.03 0 0 1-1.353.513h-4.818a2.03 2.03 0 0 1-2.021-1.796l-.371-3.19c-1.408-.404-2.761-.978-4.032-1.707l-2.459 1.887zm33.534 20.866c-.006.494-.194.968-.527 1.333s-.79.594-1.282.643l-1.336.146c-.284.989-.695 1.937-1.224 2.819l.865 1.123c.302.391.45.88.415 1.373a2.01 2.01 0 0 1-.606 1.3l-1.46 1.426a2.01 2.01 0 0 1-2.673.124l-1.123-.91a12.11 12.11 0 0 1-2.897 1.123l-.18 1.471a2.02 2.02 0 0 1-2.033 1.752h-2.032a2.02 2.02 0 0 1-1.338-.526c-.367-.333-.598-.789-.65-1.282l-.157-1.55a11.27 11.27 0 0 1-2.673-1.123l-1.202.932a2.01 2.01 0 0 1-2.684-.191l-1.426-1.46a1.99 1.99 0 0 1-.569-1.314c-.021-.494.142-.978.457-1.358l.965-1.191c-.461-.821-.819-1.696-1.066-2.605l-1.505-.191a2.02 2.02 0 0 1-1.258-.68c-.323-.372-.499-.849-.494-1.342v-2.043a2.01 2.01 0 0 1 1.808-1.977l1.404-.146c.252-.987.63-1.938 1.123-2.83l-.865-1.123c-.302-.391-.45-.88-.415-1.373a2.01 2.01 0 0 1 .606-1.3l1.46-1.437c.356-.344.826-.546 1.32-.567a2.03 2.03 0 0 1 1.364.454l.999.82a12.37 12.37 0 0 1 3.044-1.246l.157-1.258a2.01 2.01 0 0 1 2.033-1.752h2.032a2.02 2.02 0 0 1 1.988 1.808l.124 1.269a11.14 11.14 0 0 1 2.931 1.269l.977-.752a2.01 2.01 0 0 1 2.684.191l1.426 1.459c.343.355.545.823.565 1.316s-.14.976-.453 1.357l-.808 1c.492.888.87 1.835 1.123 2.819l1.302.168c.491.063.941.304 1.266.676a2.02 2.02 0 0 1 .498 1.345v2.011zm29.12-17.306l-2.022.415c-.217 1.242-.595 2.45-1.123 3.594l1.471 1.561c.341.357.538.828.552 1.321a2 2 0 0 1-.473 1.352l-2.145 2.538a2.01 2.01 0 0 1-1.252.696c-.489.071-.987-.041-1.398-.314l-1.831-1.213a14.78 14.78 0 0 1-3.369 1.729l-.067 2.246a2.02 2.02 0 0 1-1.853 1.943l-3.313.281c-.492.04-.982-.103-1.376-.402a2.01 2.01 0 0 1-.758-1.215l-.46-2.246a14.62 14.62 0 0 1-3.37-1.123l-1.841 1.527c-.36.337-.831.53-1.324.543a2.01 2.01 0 0 1-1.349-.476l-2.538-2.145a2.01 2.01 0 0 1-.697-1.252c-.07-.489.042-.986.315-1.398l1.269-1.909c-.651-.957-1.19-1.986-1.606-3.066l-2.246-.067a2.02 2.02 0 0 1-1.323-.558c-.359-.341-.579-.802-.62-1.295l-.281-3.313a2.02 2.02 0 0 1 1.618-2.134l2.088-.438c.223-1.233.6-2.433 1.123-3.571l-1.471-1.561a2.02 2.02 0 0 1-.549-1.327c-.015-.495.153-.978.471-1.357l2.145-2.549c.319-.379.767-.628 1.258-.698a2.02 2.02 0 0 1 1.403.316l1.674 1.123c1.096-.789 2.299-1.421 3.571-1.876l.067-1.965c.013-.494.208-.966.548-1.325a2 2 0 0 1 1.294-.618l3.313-.281c.492-.04.981.101 1.377.397a2.02 2.02 0 0 1 .768 1.209l.393 1.932c1.295.235 2.553.643 3.74 1.213l1.403-1.314c.36-.337.831-.53 1.324-.543a2.01 2.01 0 0 1 1.349.475l2.538 2.145c.381.317.63.765.696 1.256a1.98 1.98 0 0 1-.336 1.395l-1.123 1.662c.708 1.043 1.274 2.176 1.684 3.369l2.021.067a2.02 2.02 0 0 1 1.32.554c.358.339.58.797.623 1.288l.281 3.369a2.03 2.03 0 0 1-.433 1.302c-.291.371-.701.629-1.162.731h.012zm-51.16-11.69a9.56 9.56 0 0 1-8.84-5.907 9.57 9.57 0 0 1 6.973-13.046 9.57 9.57 0 0 1 9.822 4.068 9.56 9.56 0 0 1 1.613 5.316c0 2.537-1.008 4.971-2.803 6.765a9.57 9.57 0 0 1-6.765 2.803h0zm0-15.913a6.35 6.35 0 0 0-3.526 1.069 6.34 6.34 0 0 0-2.336 2.848c-.481 1.159-.606 2.435-.362 3.666a6.35 6.35 0 0 0 1.737 3.248 6.34 6.34 0 0 0 3.249 1.737c1.231.245 2.506.119 3.666-.361a6.34 6.34 0 0 0 3.917-5.862 6.36 6.36 0 0 0-1.862-4.484c-1.189-1.189-2.801-1.859-4.483-1.862h0zm34.515 33.375c-2.07-.092-4.022-.991-5.437-2.505a7.93 7.93 0 0 1 5.791-13.344c2.072 0 4.062.811 5.543 2.26a7.93 7.93 0 0 1 .248 11.084 7.93 7.93 0 0 1-5.437 2.505h0-.708zm0-13.027h-.427c-.663.025-1.314.184-1.914.468a4.92 4.92 0 0 0-1.577 1.182c-.44.497-.774 1.078-.983 1.708s-.289 1.296-.233 1.957a4.91 4.91 0 0 0 1.81 3.41c.517.417 1.113.724 1.751.904s1.308.228 1.966.142h0c1.25-.119 2.408-.713 3.233-1.66a4.91 4.91 0 0 0-.278-6.746c-.901-.875-2.103-1.372-3.359-1.387l.011.022zm-27.262 30.221h-.079a6.96 6.96 0 0 1-4.905-2.06c-1.298-1.309-2.023-3.079-2.018-4.922s.741-3.609 2.046-4.911a6.96 6.96 0 0 1 9.833 0c1.305 1.301 2.041 3.068 2.046 4.911s-.72 3.613-2.018 4.922a6.96 6.96 0 0 1-4.905 2.06h0zm0-10.612a3.7 3.7 0 0 0-2.045.62 3.71 3.71 0 0 0-1.363 1.646c-.283.671-.362 1.41-.227 2.126a3.71 3.71 0 0 0 .984 1.897 3.7 3.7 0 0 0 1.189.816 3.68 3.68 0 0 0 4.034-.76 3.72 3.72 0 0 0 1.026-1.881 3.71 3.71 0 0 0-.187-2.135c-.271-.678-.736-1.26-1.337-1.675s-1.311-.642-2.04-.654h-.034z" fill="#fff"/><path d="M1770.79 93.964c-9.2 0-17.42 1.81-24.66 5.43-7.24 3.469-12.44 8.522-15.61 15.158v71.717h-30.31V67.721h27.83V93.06c4.22-8.144 9.57-14.555 16.06-19.23 6.48-4.676 13.35-7.24 20.59-7.692h3.84c.91 0 1.66.075 2.26.226v27.601zm-151.04 94.567c-9.51 0-18.1-1.583-25.79-4.751-7.7-3.318-14.26-7.767-19.69-13.348-5.43-5.731-9.65-12.217-12.67-19.456-2.86-7.391-4.3-15.158-4.3-23.303 0-11.311 2.49-21.643 7.47-30.994 5.13-9.351 12.37-16.817 21.72-22.397 9.5-5.731 20.66-8.597 33.48-8.597 12.97 0 24.06 2.866 33.26 8.597 9.2 5.581 16.21 13.046 21.04 22.397 4.98 9.2 7.47 19.155 7.47 29.863 0 1.81-.08 3.695-.23 5.656-.15 1.81-.3 3.318-.45 4.525h-91.63c.6 6.033 2.34 11.312 5.2 15.837 3.02 4.524 6.79 7.993 11.32 10.406 4.67 2.263 9.65 3.394 14.93 3.394 6.03 0 11.69-1.433 16.97-4.299 5.42-3.016 9.12-6.937 11.08-11.764l26.02 7.24c-2.87 6.033-7.02 11.387-12.44 16.063-5.28 4.675-11.54 8.37-18.78 11.085-7.24 2.564-15.24 3.846-23.98 3.846zm-31-71.038h61.99c-.6-6.033-2.34-11.237-5.2-15.611-2.72-4.524-6.34-7.993-10.86-10.407-4.53-2.564-9.58-3.846-15.16-3.846-5.43 0-10.41 1.282-14.93 3.846-4.38 2.413-8 5.882-10.86 10.407-2.72 4.374-4.38 9.578-4.98 15.611zm-95.37 71.038c-9.66 0-18.33-1.583-26.02-4.751-7.69-3.318-14.25-7.843-19.68-13.574-5.43-5.882-9.66-12.518-12.67-19.909-2.87-7.39-4.3-15.158-4.3-23.302 0-11.161 2.49-21.342 7.46-30.542 5.13-9.351 12.37-16.817 21.72-22.398s20.44-8.371 33.26-8.371 23.83 2.79 33.03 8.371 16.06 12.896 20.59 21.945l-29.64 9.05c-2.56-4.374-5.96-7.692-10.18-9.955-4.22-2.413-8.9-3.62-14.03-3.62-5.73 0-11.01 1.508-15.83 4.525-4.68 2.866-8.37 7.014-11.09 12.443-2.71 5.279-4.07 11.463-4.07 18.552 0 6.938 1.36 13.121 4.07 18.551 2.87 5.279 6.64 9.502 11.31 12.669 4.68 3.017 9.88 4.525 15.61 4.525 3.62 0 7.02-.603 10.19-1.81 3.31-1.206 6.25-2.865 8.82-4.977 2.56-2.111 4.45-4.525 5.65-7.24l29.64 9.05c-2.71 5.882-6.71 11.161-11.99 15.837-5.13 4.675-11.24 8.37-18.32 11.085-6.94 2.564-14.79 3.846-23.53 3.846zm-81.56-2.262h-30.32v-66.514c0-9.502-1.66-16.44-4.98-20.814-3.31-4.374-7.91-6.561-13.8-6.561-4.07 0-8.22 1.056-12.44 3.167-4.07 2.111-7.77 5.052-11.08 8.823-3.32 3.62-5.74 7.843-7.24 12.669v69.229h-30.32V67.721h27.37v21.945c3.02-5.128 6.87-9.427 11.54-12.895 4.68-3.62 10.03-6.335 16.07-8.145 6.18-1.961 12.66-2.941 19.45-2.941 7.39 0 13.43 1.357 18.1 4.072 4.83 2.564 8.45 6.108 10.86 10.633 2.56 4.374 4.3 9.351 5.2 14.932 1.06 5.581 1.59 11.237 1.59 16.968v73.98zm-232.08 23.076l7.46 1.584c2.42.452 4.45.678 6.11.678 2.87 0 5.21-.754 7.02-2.262 1.96-1.357 3.84-3.921 5.65-7.692 1.81-3.62 3.7-8.748 5.66-15.384L1164.81 67.72h31.44l31.9 87.554 28.06-87.554h28.95l-49.77 142.077c-1.81 5.279-4.6 10.03-8.37 14.253-3.62 4.374-8.22 7.768-13.8 10.181-5.43 2.564-11.54 3.846-18.32 3.846-2.42 0-4.83-.226-7.24-.679-2.42-.301-5.06-.904-7.92-1.809v-26.244zM1140.9 67.721c-1.06-1.056-3.02-2.489-5.88-4.299-2.72-1.81-6.11-3.544-10.18-5.203-3.92-1.659-8.22-3.092-12.9-4.298-4.67-1.358-9.43-2.036-14.25-2.036-8.45 0-14.86 1.584-19.23 4.751-4.23 3.167-6.34 7.617-6.34 13.348 0 4.374 1.36 7.843 4.08 10.407 2.71 2.564 6.78 4.751 12.21 6.561s12.22 3.771 20.36 5.882c10.56 2.564 19.69 5.731 27.38 9.502 7.84 3.62 13.8 8.446 17.87 14.479 4.22 5.882 6.34 13.725 6.34 23.529 0 8.597-1.59 15.987-4.76 22.171-3.16 6.033-7.54 10.935-13.12 14.706s-11.91 6.56-19 8.37c-7.09 1.659-14.63 2.489-22.62 2.489-8 0-15.99-.83-23.99-2.489-7.99-1.659-15.68-3.996-23.07-7.013-7.39-3.167-14.18-6.938-20.36-11.312l13.8-26.922c1.35 1.357 3.77 3.167 7.24 5.43 3.47 2.111 7.69 4.298 12.67 6.56 4.97 2.112 10.4 3.922 16.29 5.43 5.88 1.508 11.83 2.263 17.87 2.263 8.44 0 14.85-1.433 19.23-4.299 4.37-2.866 6.56-6.938 6.56-12.217 0-4.826-1.74-8.597-5.2-11.312-3.47-2.715-8.3-5.052-14.48-7.013-6.19-2.112-13.5-4.374-21.95-6.787-10.1-2.866-18.55-6.033-25.34-9.502-6.78-3.62-11.84-8.145-15.16-13.574-3.31-5.43-4.97-12.217-4.97-20.361 0-11.01 2.56-20.211 7.69-27.601 5.28-7.541 12.37-13.197 21.27-16.968 8.89-3.922 18.77-5.882 29.63-5.882 7.54 0 14.63.829 21.27 2.489 6.79 1.659 13.12 3.846 19 6.561 5.89 2.715 11.16 5.656 15.84 8.823l-13.8 25.339z" fill="#1c7bd4"/><path d="M890.903 186.948c-7.843 0-15.083-1.509-21.719-4.525-6.485-3.167-12.141-7.541-16.968-13.122-4.675-5.58-8.295-11.99-10.859-19.23s-3.846-14.932-3.846-23.076c0-8.597 1.357-16.591 4.072-23.981s6.485-13.876 11.312-19.457c4.977-5.731 10.784-10.105 17.42-13.122 6.787-3.167 14.253-4.751 22.398-4.751 9.2 0 17.269 2.112 24.207 6.335 6.938 4.072 12.669 9.577 17.194 16.515V67.721h26.47v112.893c0 11.764-2.866 21.794-8.597 30.09-5.581 8.446-13.348 14.856-23.303 19.23-9.954 4.525-21.266 6.787-33.935 6.787-12.82 0-23.68-2.187-32.578-6.561-8.899-4.223-16.516-10.256-22.85-18.099l16.515-16.063c4.525 5.581 10.181 9.955 16.968 13.122 6.938 3.167 14.253 4.751 21.945 4.751 6.485 0 12.367-1.207 17.646-3.62 5.43-2.262 9.729-5.882 12.896-10.859 3.318-4.827 4.977-11.086 4.977-18.778v-14.932c-3.921 6.787-9.502 12.066-16.741 15.837a49.06 49.06 0 0 1-22.624 5.43zm10.18-24.208c3.319 0 6.486-.528 9.502-1.583a33.78 33.78 0 0 0 8.371-4.299c2.564-1.81 4.827-3.921 6.787-6.335 1.961-2.564 3.469-5.128 4.525-7.692v-28.279c-1.81-4.676-4.374-8.748-7.692-12.217-3.167-3.469-6.787-6.109-10.859-7.918a27.46 27.46 0 0 0-12.443-2.941c-4.676 0-8.899.98-12.67 2.941s-7.013 4.751-9.728 8.371c-2.715 3.469-4.826 7.391-6.335 11.765-1.357 4.223-2.036 8.672-2.036 13.348 0 4.826.83 9.351 2.489 13.574s3.921 7.918 6.787 11.086c3.016 3.167 6.485 5.655 10.407 7.465 4.072 1.81 8.371 2.715 12.895 2.715zM723.18 97.131h-15.611V74.055h15.611v-7.24c0-6.636 1.055-12.82 3.167-18.551 2.262-5.731 5.43-10.784 9.502-15.158 4.223-4.525 9.276-7.994 15.158-10.407 6.033-2.564 12.82-3.846 20.361-3.846 5.732 0 11.086.603 16.063 1.81 5.128 1.207 9.955 2.941 14.479 5.203a105.69 105.69 0 0 1 13.348 7.692l-11.99 22.624c-3.922-3.469-8.522-6.259-13.801-8.371s-10.633-3.167-16.063-3.167c-4.373 0-8.069.98-11.085 2.941s-5.279 4.525-6.787 7.692c-1.358 3.167-2.036 6.636-2.036 10.407v8.371h63.572v112.214h-30.316V97.131h-33.256v89.138H723.18V97.131zm-32.936 89.138h-30.316v-66.514c0-9.502-1.659-16.44-4.977-20.814s-7.918-6.561-13.8-6.561c-4.073 0-8.22 1.056-12.444 3.167-4.072 2.111-7.767 5.052-11.085 8.823-3.318 3.62-5.732 7.843-7.24 12.669v69.229h-30.316V67.721h27.375v21.945c3.017-5.128 6.863-9.427 11.538-12.895 4.676-3.62 10.03-6.335 16.063-8.145 6.184-1.961 12.669-2.941 19.457-2.941 7.39 0 13.423 1.357 18.099 4.072 4.826 2.564 8.446 6.108 10.859 10.633 2.564 4.374 4.298 9.351 5.203 14.932a91.06 91.06 0 0 1 1.584 16.968v73.98zm-192.633 2.262c-9.653 0-18.325-1.583-26.017-4.751-7.693-3.318-14.253-7.843-19.683-13.574-5.279-5.731-9.351-12.292-12.217-19.683s-4.298-15.158-4.298-23.302c0-8.295 1.432-16.138 4.298-23.529s6.938-13.951 12.217-19.682c5.43-5.731 11.99-10.181 19.683-13.348 7.692-3.318 16.364-4.977 26.017-4.977s18.25 1.659 25.791 4.977c7.692 3.167 14.253 7.617 19.683 13.348a56.8 56.8 0 0 1 12.216 19.682c2.866 7.391 4.299 15.234 4.299 23.529 0 8.144-1.433 15.912-4.299 23.302-2.714 7.391-6.787 13.952-12.216 19.683-5.279 5.731-11.765 10.256-19.457 13.574-7.692 3.168-16.364 4.751-26.017 4.751zm-30.995-61.31c0 6.938 1.358 13.122 4.073 18.551 2.714 5.279 6.41 9.427 11.085 12.443s9.955 4.525 15.837 4.525c5.731 0 10.935-1.508 15.61-4.525 4.676-3.167 8.371-7.39 11.086-12.669 2.866-5.43 4.298-11.613 4.298-18.551 0-6.787-1.432-12.896-4.298-18.326-2.715-5.429-6.41-9.652-11.086-12.669s-9.879-4.525-15.61-4.525c-5.882 0-11.161 1.584-15.837 4.751-4.675 3.017-8.371 7.24-11.085 12.67-2.715 5.279-4.073 11.387-4.073 18.325zm-185.192-22.397c0-9.804 1.734-19.382 5.203-28.733 3.62-9.502 8.824-18.099 15.611-25.791 6.787-7.843 15.082-14.027 24.886-18.551 9.803-4.675 20.964-7.013 33.483-7.013 14.781 0 27.526 3.243 38.234 9.728 10.86 6.485 18.929 14.932 24.208 25.339l-23.982 16.515c-2.715-6.033-6.259-10.784-10.633-14.253-4.374-3.62-9.049-6.108-14.027-7.466-4.977-1.508-9.879-2.262-14.705-2.262-7.843 0-14.705 1.584-20.588 4.751-5.731 3.167-10.557 7.315-14.479 12.443s-6.862 10.859-8.823 17.194c-1.81 6.335-2.715 12.669-2.715 19.004a63.35 63.35 0 0 0 3.394 20.587c2.262 6.486 5.429 12.292 9.502 17.42 4.223 4.978 9.2 8.974 14.931 11.991 5.882 2.866 12.293 4.298 19.23 4.298 4.978 0 10.03-.829 15.158-2.488s9.879-4.299 14.253-7.918 7.768-8.296 10.181-14.027l25.565 14.705c-3.167 7.994-8.371 14.781-15.61 20.362-7.089 5.58-15.083 9.803-23.982 12.669s-17.722 4.298-26.469 4.298c-11.463 0-21.946-2.337-31.447-7.013-9.502-4.826-17.722-11.161-24.66-19.004-6.787-7.994-12.142-16.892-16.063-26.696-3.771-9.954-5.656-19.984-5.656-30.089z" fill="#000144"/><path d="M1705.1 465.825c-9.56 0-18.15-1.555-25.77-4.664s-14.11-7.424-19.48-12.944c-5.28-5.597-9.36-12.088-12.24-19.473-2.8-7.462-4.2-15.469-4.2-24.02v-4.664c0-9.717 1.4-18.54 4.2-26.469 2.8-8.007 6.76-14.887 11.89-20.64a52.47 52.47 0 0 1 18.43-13.292c7.15-3.11 15.04-4.665 23.67-4.665 8.94 0 16.83 1.516 23.67 4.548 6.84 2.954 12.55 7.152 17.14 12.593s8.05 11.972 10.38 19.59c2.33 7.54 3.5 15.897 3.5 25.07v12.943h-98.88v-21.222h68.56v-2.332c-.16-4.898-1.09-9.367-2.8-13.41-1.71-4.12-4.35-7.385-7.93-9.795-3.57-2.487-8.2-3.731-13.87-3.731-4.59 0-8.59 1.011-12.01 3.032-3.35 1.943-6.15 4.742-8.4 8.395-2.18 3.576-3.81 7.852-4.9 12.827s-1.63 10.494-1.63 16.558v4.664c0 5.286.7 10.183 2.1 14.692 1.48 4.509 3.61 8.435 6.41 11.777 2.88 3.265 6.3 5.83 10.26 7.696 4.05 1.788 8.63 2.682 13.76 2.682 6.45 0 12.28-1.244 17.49-3.731 5.29-2.566 9.88-6.336 13.76-11.311l15.51 16.091c-2.64 3.887-6.22 7.619-10.73 11.194-4.43 3.576-9.79 6.491-16.09 8.746-6.29 2.176-13.56 3.265-21.8 3.265zm-184.22-36.847c0-2.643-.7-5.014-2.1-7.113s-4.04-4.004-7.93-5.714c-3.81-1.788-9.4-3.459-16.79-5.014-6.53-1.399-12.55-3.148-18.07-5.247s-10.26-4.625-14.23-7.579c-3.96-3.032-7.07-6.569-9.33-10.611-2.17-4.12-3.26-8.862-3.26-14.226 0-5.208 1.13-10.106 3.38-14.692 2.25-4.664 5.52-8.746 9.8-12.244 4.27-3.576 9.48-6.374 15.62-8.395 6.14-2.099 13.06-3.149 20.76-3.149 10.72 0 19.94 1.749 27.63 5.248 7.77 3.498 13.72 8.317 17.84 14.459 4.12 6.063 6.18 12.904 6.18 20.522h-30.78c0-3.343-.78-6.374-2.33-9.095-1.48-2.721-3.77-4.898-6.88-6.53-3.11-1.71-7.04-2.565-11.78-2.565-4.28 0-7.89.699-10.84 2.099-2.88 1.399-5.06 3.226-6.53 5.48-1.48 2.254-2.22 4.742-2.22 7.463 0 2.021.39 3.848 1.17 5.48.85 1.555 2.21 2.993 4.08 4.314 1.86 1.322 4.39 2.527 7.58 3.615 3.26 1.088 7.26 2.138 12.01 3.149 9.4 1.865 17.6 4.353 24.6 7.462 7.07 3.032 12.59 7.074 16.56 12.127 3.96 5.053 5.94 11.505 5.94 19.356 0 5.597-1.2 10.728-3.61 15.392-2.41 4.587-5.91 8.59-10.49 12.011-4.59 3.42-10.07 6.102-16.45 8.045-6.37 1.866-13.56 2.799-21.57 2.799-11.58 0-21.37-2.06-29.38-6.18-8.01-4.198-14.07-9.484-18.19-15.859-4.12-6.452-6.18-13.137-6.18-20.056h29.5c.23 4.898 1.55 8.824 3.96 11.778s5.44 5.091 9.1 6.413c3.73 1.244 7.66 1.865 11.78 1.865 4.66 0 8.59-.621 11.77-1.865 3.19-1.322 5.6-3.071 7.23-5.247 1.63-2.255 2.45-4.82 2.45-7.696zm-172.79-91.651v126.166h-30.91V337.327h30.91zm-33-33c0-4.586 1.55-8.395 4.66-11.427 3.19-3.031 7.46-4.547 12.83-4.547 5.36 0 9.6 1.516 12.71 4.547 3.18 3.032 4.78 6.841 4.78 11.427 0 4.509-1.6 8.279-4.78 11.311-3.11 3.032-7.35 4.548-12.71 4.548-5.37 0-9.64-1.516-12.83-4.548-3.11-3.032-4.66-6.802-4.66-11.311zm-128.95 58.769v100.397h-30.79V337.326h29.15l1.64 25.77zm38.36-26.586l-.47 28.685c-1.71-.311-3.65-.544-5.83-.7l-5.95-.233c-4.74 0-8.9.661-12.47 1.982-3.58 1.244-6.57 3.071-8.98 5.481-2.33 2.41-4.12 5.364-5.36 8.862-1.25 3.42-1.95 7.307-2.1 11.66l-6.65-.816c0-8.007.82-15.431 2.45-22.271s4-12.827 7.11-17.958 7-9.095 11.66-11.893c4.74-2.876 10.19-4.315 16.33-4.315 1.71 0 3.53.156 5.48.467 2.02.233 3.61.583 4.78 1.049zm-246.722 25.07V512h-30.9V337.326h28.568l2.332 24.254zm81.042 37.547v2.448c0 9.173-1.09 17.685-3.27 25.537-2.1 7.773-5.2 14.575-9.32 20.406-4.12 5.752-9.26 10.261-15.4 13.526-6.06 3.187-13.06 4.781-20.99 4.781-7.77 0-14.532-1.477-20.285-4.431-5.752-3.032-10.611-7.308-14.575-12.827s-7.152-11.933-9.562-19.24c-2.332-7.385-4.081-15.43-5.247-24.137v-7.812c1.166-9.251 2.915-17.647 5.247-25.187 2.41-7.618 5.597-14.187 9.562-19.706 3.964-5.597 8.784-9.912 14.459-12.943 5.752-3.032 12.481-4.548 20.171-4.548 8.01 0 15.04 1.516 21.11 4.548 6.14 3.031 11.31 7.385 15.51 13.059 4.19 5.675 7.34 12.438 9.44 20.29s3.15 16.596 3.15 26.236zm-30.9 2.448v-2.448c0-5.597-.51-10.767-1.52-15.509-1.01-4.819-2.56-9.017-4.66-12.593-2.1-3.654-4.82-6.491-8.16-8.512-3.35-2.021-7.39-3.032-12.13-3.032s-8.824.777-12.245 2.332-6.219 3.77-8.395 6.647-3.887 6.296-5.131 10.261c-1.166 3.887-1.943 8.201-2.332 12.943v19.356c.7 5.753 2.06 10.922 4.081 15.509s4.975 8.24 8.862 10.961c3.965 2.72 9.095 4.081 15.39 4.081 4.74 0 8.79-1.05 12.13-3.149s6.06-4.975 8.16-8.628c2.1-3.732 3.62-8.007 4.55-12.827s1.4-9.95 1.4-15.392zm-210.227-38.479v100.396h-30.784V337.326h29.151l1.633 25.77zm38.363-26.586l-.467 28.685c-1.71-.311-3.653-.544-5.83-.7l-5.947-.233c-4.742 0-8.901.661-12.476 1.982-3.576 1.244-6.569 3.071-8.979 5.481-2.332 2.409-4.12 5.363-5.364 8.862-1.244 3.42-1.943 7.307-2.099 11.66l-6.646-.816c0-8.007.816-15.431 2.449-22.272s4.003-12.826 7.112-17.957 6.997-9.095 11.661-11.893c4.742-2.877 10.183-4.315 16.325-4.315 1.71 0 3.537.156 5.48.467 2.021.233 3.615.583 4.781 1.049zM641.049 465.825c-9.562 0-18.151-1.555-25.77-4.665s-14.109-7.423-19.473-12.943c-5.286-5.597-9.367-12.088-12.243-19.473-2.799-7.462-4.198-15.469-4.198-24.02v-4.664c0-9.718 1.399-18.541 4.198-26.47 2.799-8.007 6.763-14.886 11.894-20.639s11.271-10.183 18.423-13.293 15.042-4.664 23.671-4.664c8.94 0 16.83 1.516 23.671 4.548 6.84 2.954 12.554 7.151 17.141 12.593s8.045 11.971 10.377 19.59c2.332 7.54 3.498 15.897 3.498 25.07v12.943h-98.88v-21.222h68.563v-2.332c-.155-4.898-1.088-9.368-2.798-13.41-1.71-4.12-4.353-7.385-7.929-9.795-3.576-2.487-8.202-3.731-13.876-3.731-4.587 0-8.59 1.01-12.011 3.032-3.342 1.943-6.141 4.742-8.395 8.395-2.177 3.576-3.809 7.852-4.897 12.827s-1.633 10.494-1.633 16.558v4.664c0 5.286.7 10.183 2.099 14.692 1.477 4.509 3.615 8.434 6.413 11.777 2.876 3.265 6.297 5.83 10.261 7.696 4.043 1.788 8.629 2.682 13.76 2.682 6.452 0 12.282-1.244 17.49-3.732 5.287-2.565 9.873-6.335 13.76-11.31l15.508 16.091c-2.643 3.887-6.219 7.618-10.727 11.194-4.431 3.576-9.795 6.491-16.092 8.746-6.297 2.176-13.565 3.265-21.805 3.265zM489.826 337.326v22.155h-72.295v-22.155h72.295zm-52.938-31.017h30.9v120.803c0 3.731.505 6.607 1.516 8.629s2.526 3.381 4.547 4.081 4.431 1.049 7.23 1.049c2.021 0 3.887-.116 5.597-.35l4.314-.699.117 23.087c-2.566.856-5.481 1.555-8.746 2.099-3.187.544-6.802.817-10.844.817-6.918 0-12.982-1.166-18.19-3.499-5.208-2.409-9.251-6.257-12.127-11.543-2.876-5.364-4.314-12.438-4.314-21.222V306.309zm-183.984 57.953v99.23H222.12V337.326h28.918l1.866 26.936zm-4.898 31.6h-9.095c.078-9.173 1.322-17.491 3.732-24.954s5.791-13.876 10.144-19.239c4.431-5.364 9.678-9.484 15.742-12.36s12.826-4.315 20.289-4.315c6.063 0 11.544.855 16.441 2.565s9.095 4.431 12.594 8.163c3.575 3.731 6.296 8.629 8.162 14.692 1.943 5.986 2.915 13.371 2.915 22.155v80.923h-31.017v-81.156c0-5.753-.855-10.3-2.565-13.643-1.633-3.343-4.042-5.714-7.23-7.113-3.109-1.399-6.957-2.099-11.544-2.099-4.741 0-8.9.972-12.476 2.915-3.498 1.866-6.452 4.47-8.862 7.813-2.332 3.342-4.12 7.19-5.364 11.544s-1.866 9.056-1.866 14.109zm-119.274 42.444v25.186H38.481v-25.186h90.252zm-80.457-144.59v169.776H16.209V293.716h32.066zm68.68 70.08v24.603H38.481v-24.603h78.475zm11.428-70.08v25.303H38.481v-25.303h89.903z" fill="#fc6011"/></svg>