<svg width="1771" height="512" viewBox="0 0 1771 512" fill="none" xmlns="http://www.w3.org/2000/svg">
<path d="M107.775 1.77829L29.4999 39.4783C27.0678 40.6485 24.9305 42.3515 23.2468 44.461C21.5632 46.5704 20.3763 49.0321 19.7745 51.6631L0.44717 136.373C-0.150577 139.002 -0.149031 141.732 0.451676 144.36C1.05238 146.988 2.23687 149.448 3.91733 151.556L58.0921 219.499C59.7767 221.603 61.9132 223.302 64.3432 224.468C66.7732 225.634 69.4345 226.239 72.1299 226.237H159.018C161.714 226.239 164.375 225.634 166.805 224.468C169.235 223.302 171.372 221.603 173.056 219.499L227.231 151.556C228.912 149.448 230.096 146.988 230.697 144.36C231.297 141.732 231.299 139.002 230.701 136.373L211.363 51.6631C210.762 49.0331 209.577 46.5722 207.895 44.4628C206.214 42.3534 204.079 40.6498 201.649 39.4783L123.362 1.77829C120.931 0.607813 118.267 0 115.569 0C112.87 0 110.206 0.607813 107.775 1.77829V1.77829Z" fill="#1C7BD4"/>
<path d="M198.896 124.143C197.272 120.623 194.937 117.478 192.038 114.906C189.139 112.333 185.738 110.389 182.051 109.195C181.678 109.134 181.345 108.929 181.122 108.625C180.899 108.32 180.805 107.94 180.86 107.567C180.855 106.173 180.754 104.781 180.557 103.4C179.652 97.8006 177.098 92.598 173.221 88.4572C169.344 84.3163 164.321 81.4254 158.793 80.1537C156.547 79.6483 153.728 80.1537 152.425 77.3237C152.126 76.7834 151.748 76.2913 151.302 75.8637C147.156 71.2456 142.087 67.5496 136.422 65.0153C132.113 62.9618 127.451 61.7533 122.687 61.4553C114.096 61.1184 105.483 61.1746 96.8579 61.0847C93.6685 61.0847 90.4903 61.0847 87.3009 61.0847C86.4362 61.0847 85.5715 61.3206 84.7067 61.3767C82.8987 61.5002 80.967 64.1281 81.1804 65.8688C81.2502 67.0237 81.7501 68.1106 82.5817 68.9151C83.4132 69.7196 84.516 70.1833 85.6725 70.2149C89.8502 70.1026 94.0278 70.2149 98.2055 70.2149C99.1284 70.2977 99.9941 70.6977 100.655 71.3467C101.317 71.9957 101.733 72.8537 101.833 73.7749C102.181 77.144 99.5082 78.7387 96.9365 78.7162C86.3239 78.6264 75.7113 78.7162 65.1099 78.7162C64.156 78.7457 63.2341 79.0675 62.4689 79.6379C61.7037 80.2083 61.132 80.9999 60.8312 81.9056C60.5282 82.8217 60.5518 83.8145 60.8977 84.7152C61.2437 85.616 61.8908 86.3692 62.7291 86.8469C63.6909 87.3953 64.7679 87.7107 65.8736 87.7678C70.0849 87.8689 74.2963 87.7678 78.6536 87.7678C75.9943 94.2173 74.842 101.189 75.2845 108.151H73.5888C58.1696 108.151 42.7505 108.151 27.3426 108.151C26.6997 108.038 26.04 108.067 25.4094 108.235C24.7788 108.403 24.1924 108.707 23.6911 109.125C23.1897 109.543 22.7855 110.065 22.5065 110.655C22.2274 111.245 22.0803 111.889 22.0753 112.541C22.0704 113.194 22.2077 113.84 22.4777 114.434C22.7477 115.028 23.144 115.556 23.6389 115.982C24.1339 116.407 24.7155 116.72 25.3435 116.898C25.9715 117.075 26.6307 117.114 27.2752 117.011C34.9567 116.899 42.6382 116.944 50.3197 117.011C52.4534 117.011 54.4412 117.584 55.3958 119.774C55.6678 120.456 55.764 121.195 55.6756 121.924C55.5872 122.653 55.317 123.348 54.8899 123.945C54.4627 124.542 53.8923 125.022 53.2311 125.341C52.5699 125.66 51.839 125.808 51.1058 125.771H32.6096C32.013 125.792 31.4265 125.931 30.8836 126.179C30.3406 126.427 29.8518 126.78 29.4451 127.217C29.0384 127.654 28.7218 128.166 28.5132 128.726C28.3047 129.285 28.2084 129.88 28.2298 130.476C28.2511 131.073 28.3898 131.66 28.6379 132.202C28.8859 132.745 29.2385 133.234 29.6754 133.641C30.1123 134.048 30.6251 134.364 31.1845 134.573C31.7438 134.781 32.3387 134.878 32.9352 134.856C34.5299 134.856 36.1471 134.856 37.899 134.856C37.8368 135.776 37.8368 136.699 37.899 137.619C38.1659 140.273 38.6429 142.902 39.3253 145.48C40.9894 150.759 44.1969 155.417 48.5341 158.855C53.266 162.88 59.2473 165.138 65.4581 165.245C101.522 165.335 137.583 165.335 173.639 165.245C175.644 165.244 177.64 164.988 179.58 164.482C188.351 162.168 194.909 157.092 198.817 148.759C200.734 144.942 201.739 140.732 201.753 136.46C201.766 132.189 200.788 127.972 198.896 124.143V124.143ZM102.473 121.717C102.083 122.03 101.591 122.188 101.092 122.161C100.593 122.134 100.121 121.924 99.7665 121.571L96.3974 118.202C96.0467 117.846 95.8382 117.375 95.8113 116.876C95.7844 116.378 95.941 115.886 96.2514 115.495L98.2279 113.002C97.5308 111.776 96.9805 110.472 96.5883 109.117L93.4551 108.757C92.9607 108.697 92.5054 108.458 92.1745 108.086C91.8437 107.714 91.6601 107.234 91.6583 106.736V101.918C91.6601 101.42 91.8437 100.94 92.1745 100.568C92.5054 100.195 92.9607 99.9567 93.4551 99.8965L96.4311 99.5596C96.8012 98.0776 97.3638 96.6505 98.1044 95.3146L96.2514 92.9674C95.9386 92.5773 95.7806 92.0856 95.8075 91.5863C95.8344 91.087 96.0445 90.6151 96.3974 90.2609L99.7665 86.8919C100.121 86.5395 100.591 86.3289 101.09 86.2999C101.589 86.271 102.081 86.4256 102.473 86.7346L104.719 88.4978C106.12 87.6515 107.632 87.0051 109.211 86.5774L109.537 83.8147C109.592 83.3174 109.829 82.8579 110.202 82.5243C110.575 82.1907 111.058 82.0064 111.558 82.0067H116.365C116.865 82.0064 117.348 82.1907 117.721 82.5243C118.094 82.8579 118.331 83.3174 118.386 83.8147L118.712 86.5774C120.265 86.9882 121.754 87.6118 123.137 88.4304L125.27 86.7346C125.662 86.4232 126.154 86.2671 126.654 86.2961C127.153 86.3252 127.624 86.5373 127.977 86.8919L131.346 90.2609C131.697 90.6164 131.905 91.0879 131.932 91.5865C131.959 92.0851 131.802 92.5763 131.492 92.9674L129.751 95.2135C130.5 96.5377 131.073 97.9533 131.458 99.4248L134.288 99.7505C134.785 99.8081 135.243 100.046 135.576 100.418C135.909 100.791 136.094 101.272 136.096 101.772V106.59C136.094 107.089 135.909 107.571 135.576 107.944C135.243 108.316 134.785 108.554 134.288 108.611L131.425 108.937C131.018 110.427 130.417 111.858 129.639 113.193L131.503 115.551C131.815 115.945 131.972 116.439 131.943 116.94C131.914 117.442 131.701 117.915 131.346 118.269L127.977 121.638C127.624 121.993 127.153 122.205 126.654 122.234C126.154 122.263 125.662 122.107 125.27 121.795L122.878 119.898C121.521 120.67 120.067 121.259 118.555 121.649L118.195 124.727C118.138 125.222 117.9 125.679 117.527 126.01C117.154 126.341 116.673 126.524 116.174 126.523H111.356C110.857 126.524 110.376 126.341 110.003 126.01C109.63 125.679 109.393 125.222 109.335 124.727L108.964 121.537C107.556 121.133 106.203 120.559 104.932 119.83L102.473 121.717ZM136.007 142.583C136.001 143.077 135.813 143.551 135.48 143.916C135.146 144.281 134.69 144.51 134.198 144.559L132.862 144.705C132.578 145.694 132.167 146.642 131.638 147.524L132.503 148.647C132.805 149.038 132.953 149.527 132.918 150.02C132.882 150.513 132.667 150.976 132.312 151.32L130.852 152.746C130.499 153.091 130.032 153.294 129.539 153.317C129.046 153.34 128.562 153.181 128.179 152.87L127.056 151.96C126.142 152.457 125.169 152.835 124.159 153.083L123.979 154.554C123.913 155.044 123.67 155.493 123.295 155.816C122.921 156.139 122.441 156.313 121.946 156.306H119.914C119.418 156.301 118.942 156.113 118.576 155.78C118.209 155.447 117.978 154.991 117.926 154.498L117.769 152.948C116.833 152.69 115.935 152.313 115.096 151.825L113.894 152.757C113.502 153.063 113.011 153.212 112.516 153.177C112.02 153.142 111.555 152.924 111.21 152.566L109.784 151.106C109.438 150.754 109.235 150.285 109.215 149.792C109.194 149.298 109.357 148.814 109.672 148.434L110.637 147.243C110.176 146.422 109.818 145.547 109.571 144.638L108.066 144.447C107.578 144.381 107.13 144.14 106.808 143.767C106.485 143.395 106.309 142.918 106.314 142.425V140.382C106.32 139.887 106.507 139.413 106.841 139.048C107.174 138.684 107.63 138.455 108.122 138.405L109.526 138.259C109.778 137.272 110.156 136.321 110.649 135.429L109.784 134.306C109.482 133.915 109.334 133.426 109.369 132.933C109.404 132.44 109.62 131.977 109.975 131.633L111.435 130.196C111.791 129.852 112.261 129.65 112.755 129.629C113.25 129.609 113.735 129.77 114.119 130.083L115.118 130.903C116.073 130.354 117.096 129.935 118.162 129.657L118.319 128.399C118.382 127.908 118.625 127.457 119 127.134C119.375 126.811 119.856 126.637 120.352 126.647H122.384C122.88 126.652 123.356 126.84 123.722 127.173C124.088 127.506 124.32 127.962 124.372 128.455L124.496 129.724C125.528 130.004 126.516 130.431 127.427 130.993L128.404 130.241C128.796 129.935 129.287 129.786 129.782 129.821C130.278 129.856 130.743 130.074 131.088 130.432L132.514 131.891C132.857 132.246 133.059 132.714 133.079 133.207C133.1 133.699 132.939 134.183 132.626 134.564L131.818 135.564C132.31 136.452 132.688 137.399 132.941 138.383L134.243 138.551C134.734 138.614 135.184 138.855 135.509 139.227C135.833 139.6 136.011 140.078 136.007 140.572V142.583ZM165.127 125.277L163.105 125.692C162.888 126.934 162.51 128.142 161.982 129.286L163.453 130.847C163.794 131.204 163.991 131.675 164.005 132.168C164.02 132.662 163.851 133.143 163.532 133.52L161.387 136.058C161.069 136.436 160.623 136.684 160.135 136.754C159.646 136.825 159.148 136.713 158.737 136.44L156.906 135.227C155.862 135.945 154.729 136.527 153.537 136.956L153.47 139.202C153.452 139.697 153.254 140.168 152.912 140.526C152.571 140.884 152.11 141.104 151.617 141.145L148.304 141.426C147.812 141.466 147.322 141.323 146.928 141.024C146.535 140.726 146.265 140.293 146.17 139.809L145.71 137.563C144.545 137.327 143.414 136.95 142.34 136.44L140.499 137.967C140.139 138.304 139.668 138.497 139.175 138.51C138.682 138.522 138.202 138.353 137.826 138.034L135.288 135.889C134.91 135.572 134.662 135.126 134.591 134.637C134.521 134.148 134.633 133.651 134.906 133.239L136.175 131.33C135.524 130.373 134.985 129.344 134.569 128.264L132.323 128.197C131.829 128.179 131.358 127.981 131 127.639C130.641 127.298 130.421 126.837 130.38 126.344L130.099 123.031C130.062 122.539 130.206 122.051 130.504 121.658C130.802 121.265 131.233 120.994 131.717 120.897L133.805 120.459C134.028 119.226 134.405 118.026 134.928 116.888L133.457 115.327C133.118 114.967 132.922 114.494 132.908 114C132.893 113.505 133.061 113.022 133.379 112.643L135.524 110.094C135.843 109.715 136.291 109.466 136.782 109.396C137.272 109.326 137.772 109.438 138.185 109.712L139.859 110.835C140.955 110.046 142.158 109.414 143.43 108.959L143.497 106.994C143.51 106.5 143.705 106.028 144.045 105.669C144.385 105.31 144.846 105.09 145.339 105.051L148.652 104.77C149.144 104.73 149.633 104.871 150.029 105.167C150.424 105.463 150.697 105.893 150.797 106.376L151.19 108.308C152.485 108.543 153.743 108.951 154.93 109.521L156.333 108.207C156.693 107.87 157.164 107.677 157.657 107.664C158.15 107.652 158.63 107.821 159.006 108.139L161.544 110.284C161.925 110.601 162.174 111.049 162.24 111.54C162.307 112.03 162.187 112.528 161.904 112.935L160.781 114.597C161.489 115.64 162.055 116.773 162.465 117.966L164.486 118.033C164.979 118.051 165.449 118.247 165.806 118.587C166.164 118.926 166.386 119.384 166.429 119.875L166.71 123.244C166.721 123.715 166.568 124.176 166.277 124.546C165.986 124.917 165.576 125.175 165.115 125.277H165.127Z" fill="white"/>
<path d="M113.967 113.587C112.074 113.587 110.224 113.026 108.651 111.974C107.077 110.923 105.851 109.429 105.127 107.68C104.403 105.932 104.213 104.008 104.582 102.152C104.951 100.296 105.863 98.5911 107.201 97.253C108.539 95.9149 110.244 95.0036 112.1 94.6344C113.956 94.2652 115.88 94.4547 117.628 95.1789C119.377 95.9031 120.871 97.1295 121.922 98.703C122.974 100.276 123.535 102.126 123.535 104.019C123.535 106.556 122.527 108.99 120.732 110.784C118.938 112.579 116.504 113.587 113.967 113.587V113.587ZM113.967 97.6736C112.712 97.6736 111.485 98.0458 110.441 98.743C109.398 99.4402 108.585 100.431 108.105 101.591C107.624 102.75 107.499 104.026 107.743 105.257C107.988 106.487 108.593 107.618 109.48 108.505C110.367 109.393 111.498 109.997 112.729 110.242C113.96 110.487 115.235 110.361 116.395 109.881C117.554 109.401 118.545 108.587 119.242 107.544C119.94 106.5 120.312 105.274 120.312 104.019C120.309 102.337 119.639 100.725 118.45 99.5354C117.261 98.3461 115.649 97.6766 113.967 97.6736V97.6736Z" fill="white"/>
<path d="M148.482 131.049C146.412 130.957 144.46 130.058 143.045 128.544C141.63 127.031 140.863 125.023 140.909 122.952C140.955 120.88 141.811 118.909 143.292 117.46C144.774 116.011 146.764 115.2 148.836 115.2C150.908 115.2 152.898 116.011 154.379 117.46C155.861 118.909 156.716 120.88 156.762 122.952C156.809 125.023 156.042 127.031 154.627 128.544C153.211 130.058 151.26 130.957 149.19 131.049V131.049H148.482ZM148.482 118.022H148.055C147.392 118.047 146.741 118.206 146.141 118.49C145.541 118.773 145.005 119.176 144.564 119.672C144.124 120.169 143.79 120.75 143.581 121.38C143.371 122.01 143.292 122.676 143.348 123.337C143.403 123.998 143.592 124.641 143.903 125.228C144.215 125.814 144.641 126.331 145.158 126.747C145.675 127.164 146.271 127.471 146.909 127.651C147.548 127.831 148.217 127.879 148.875 127.793V127.793C150.125 127.674 151.283 127.08 152.108 126.133C152.934 125.187 153.365 123.96 153.313 122.705C153.262 121.45 152.731 120.262 151.83 119.387C150.929 118.512 149.727 118.015 148.471 118L148.482 118.022Z" fill="white"/>
<path d="M121.22 148.243H121.141C119.298 148.233 117.534 147.492 116.236 146.183C114.938 144.874 114.213 143.104 114.218 141.261C114.223 139.418 114.959 137.652 116.264 136.35C117.569 135.049 119.337 134.318 121.181 134.318C123.024 134.318 124.792 135.049 126.097 136.35C127.402 137.652 128.138 139.418 128.143 141.261C128.148 143.104 127.423 144.874 126.125 146.183C124.827 147.492 123.063 148.233 121.22 148.243V148.243ZM121.22 137.631C120.492 137.632 119.781 137.848 119.175 138.251C118.569 138.654 118.095 139.227 117.812 139.897C117.529 140.568 117.45 141.307 117.585 142.023C117.72 142.738 118.062 143.398 118.569 143.92C118.908 144.267 119.312 144.545 119.758 144.736C120.204 144.927 120.684 145.028 121.169 145.033C121.654 145.038 122.136 144.948 122.586 144.766C123.036 144.585 123.446 144.316 123.792 143.976C124.311 143.463 124.668 142.809 124.818 142.095C124.967 141.38 124.902 140.637 124.631 139.96C124.36 139.282 123.895 138.7 123.294 138.285C122.693 137.871 121.983 137.643 121.254 137.631H121.22Z" fill="white"/>
<path d="M1770.79 93.9643C1761.59 93.9643 1753.37 95.7742 1746.13 99.394C1738.89 102.863 1733.69 107.916 1730.52 114.552V186.269H1700.21V67.7207H1728.04V93.0593C1732.26 84.9148 1737.61 78.5047 1744.1 73.8292C1750.58 69.1536 1757.45 66.5896 1764.69 66.1371C1766.34 66.1371 1767.63 66.1371 1768.53 66.1371C1769.44 66.1371 1770.19 66.2125 1770.79 66.3633V93.9643Z" fill="#1C7BD4"/>
<path d="M1619.75 188.531C1610.24 188.531 1601.65 186.948 1593.96 183.78C1586.26 180.462 1579.7 176.013 1574.27 170.432C1568.84 164.701 1564.62 158.215 1561.6 150.976C1558.74 143.585 1557.3 135.818 1557.3 127.673C1557.3 116.362 1559.79 106.03 1564.77 96.6789C1569.9 87.3277 1577.14 79.8619 1586.49 74.2814C1595.99 68.55 1607.15 65.6843 1619.97 65.6843C1632.94 65.6843 1644.03 68.55 1653.23 74.2814C1662.43 79.8619 1669.44 87.3277 1674.27 96.6789C1679.25 105.879 1681.74 115.834 1681.74 126.542C1681.74 128.352 1681.66 130.237 1681.51 132.198C1681.36 134.008 1681.21 135.516 1681.06 136.723H1589.43C1590.03 142.756 1591.77 148.035 1594.63 152.56C1597.65 157.084 1601.42 160.553 1605.95 162.966C1610.62 165.229 1615.6 166.36 1620.88 166.36C1626.91 166.36 1632.57 164.927 1637.85 162.061C1643.27 159.045 1646.97 155.124 1648.93 150.297L1674.95 157.537C1672.08 163.57 1667.93 168.924 1662.51 173.6C1657.23 178.275 1650.97 181.97 1643.73 184.685C1636.49 187.249 1628.49 188.531 1619.75 188.531ZM1588.75 117.493H1650.74C1650.14 111.46 1648.4 106.256 1645.54 101.882C1642.82 97.3576 1639.2 93.8886 1634.68 91.4754C1630.15 88.9114 1625.1 87.6294 1619.52 87.6294C1614.09 87.6294 1609.11 88.9114 1604.59 91.4754C1600.21 93.8886 1596.59 97.3576 1593.73 101.882C1591.01 106.256 1589.35 111.46 1588.75 117.493Z" fill="#1C7BD4"/>
<path d="M1493.38 188.531C1483.72 188.531 1475.05 186.948 1467.36 183.78C1459.67 180.462 1453.11 175.937 1447.68 170.206C1442.25 164.324 1438.02 157.688 1435.01 150.297C1432.14 142.907 1430.71 135.139 1430.71 126.995C1430.71 115.834 1433.2 105.653 1438.17 96.4526C1443.3 87.1015 1450.54 79.6356 1459.89 74.0551C1469.24 68.4746 1480.33 65.6843 1493.15 65.6843C1505.97 65.6843 1516.98 68.4746 1526.18 74.0551C1535.38 79.6356 1542.24 86.9507 1546.77 96.0002L1517.13 105.05C1514.57 100.676 1511.17 97.3576 1506.95 95.0952C1502.73 92.682 1498.05 91.4754 1492.92 91.4754C1487.19 91.4754 1481.91 92.9837 1477.09 96.0002C1472.41 98.8658 1468.72 103.014 1466 108.443C1463.29 113.722 1461.93 119.906 1461.93 126.995C1461.93 133.933 1463.29 140.116 1466 145.546C1468.87 150.825 1472.64 155.048 1477.31 158.215C1481.99 161.232 1487.19 162.74 1492.92 162.74C1496.54 162.74 1499.94 162.137 1503.11 160.93C1506.42 159.724 1509.36 158.065 1511.93 155.953C1514.49 153.842 1516.38 151.428 1517.58 148.713L1547.22 157.763C1544.51 163.645 1540.51 168.924 1535.23 173.6C1530.1 178.275 1523.99 181.97 1516.91 184.685C1509.97 187.249 1502.12 188.531 1493.38 188.531Z" fill="#1C7BD4"/>
<path d="M1411.82 186.269H1381.5V119.755C1381.5 110.253 1379.84 103.315 1376.52 98.9412C1373.21 94.5673 1368.61 92.3804 1362.72 92.3804C1358.65 92.3804 1354.5 93.4361 1350.28 95.5477C1346.21 97.6592 1342.51 100.6 1339.2 104.371C1335.88 107.991 1333.46 112.214 1331.96 117.04V186.269H1301.64V67.7205H1329.01V89.6655C1332.03 84.5375 1335.88 80.2389 1340.55 76.77C1345.23 73.1502 1350.58 70.4353 1356.62 68.6254C1362.8 66.6647 1369.28 65.6843 1376.07 65.6843C1383.46 65.6843 1389.5 67.0417 1394.17 69.7566C1399 72.3206 1402.62 75.865 1405.03 80.3898C1407.59 84.7637 1409.33 89.7409 1410.23 95.3214C1411.29 100.902 1411.82 106.558 1411.82 112.289V186.269Z" fill="#1C7BD4"/>
<path d="M1179.74 209.345C1182.45 209.948 1184.94 210.476 1187.2 210.929C1189.62 211.381 1191.65 211.607 1193.31 211.607C1196.18 211.607 1198.52 210.853 1200.33 209.345C1202.29 207.988 1204.17 205.424 1205.98 201.653C1207.79 198.033 1209.68 192.905 1211.64 186.269L1164.81 67.7203H1196.25L1228.15 155.274L1256.21 67.7203H1285.16L1235.39 209.797C1233.58 215.076 1230.79 219.827 1227.02 224.05C1223.4 228.424 1218.8 231.818 1213.22 234.231C1207.79 236.795 1201.68 238.077 1194.9 238.077C1192.48 238.077 1190.07 237.851 1187.66 237.398C1185.24 237.097 1182.6 236.494 1179.74 235.589V209.345Z" fill="#1C7BD4"/>
<path d="M1140.9 67.7206C1139.84 66.6649 1137.88 65.232 1135.02 63.4221C1132.3 61.6122 1128.91 59.8777 1124.84 58.2187C1120.92 56.5596 1116.62 55.1268 1111.94 53.9202C1107.27 52.5627 1102.51 51.884 1097.69 51.884C1089.24 51.884 1082.83 53.4677 1078.46 56.635C1074.23 59.8023 1072.12 64.2517 1072.12 69.983C1072.12 74.3569 1073.48 77.8259 1076.2 80.3899C1078.91 82.954 1082.98 85.1409 1088.41 86.9508C1093.84 88.7607 1100.63 90.7215 1108.77 92.833C1119.33 95.397 1128.46 98.5644 1136.15 102.335C1143.99 105.955 1149.95 110.781 1154.02 116.814C1158.24 122.696 1160.36 130.539 1160.36 140.343C1160.36 148.94 1158.77 156.33 1155.6 162.514C1152.44 168.547 1148.06 173.449 1142.48 177.22C1136.9 180.99 1130.57 183.78 1123.48 185.59C1116.39 187.249 1108.85 188.079 1100.86 188.079C1092.86 188.079 1084.87 187.249 1076.87 185.59C1068.88 183.931 1061.19 181.594 1053.8 178.577C1046.41 175.41 1039.62 171.639 1033.44 167.265L1047.24 140.343C1048.59 141.7 1051.01 143.51 1054.48 145.773C1057.95 147.884 1062.17 150.071 1067.15 152.333C1072.12 154.445 1077.55 156.255 1083.44 157.763C1089.32 159.271 1095.27 160.026 1101.31 160.026C1109.75 160.026 1116.16 158.593 1120.54 155.727C1124.91 152.861 1127.1 148.789 1127.1 143.51C1127.1 138.684 1125.36 134.913 1121.9 132.198C1118.43 129.483 1113.6 127.146 1107.42 125.185C1101.23 123.073 1093.92 120.811 1085.47 118.398C1075.37 115.532 1066.92 112.365 1060.13 108.896C1053.35 105.276 1048.29 100.751 1044.97 95.3216C1041.66 89.8919 1040 83.1048 1040 74.9602C1040 63.95 1042.56 54.7497 1047.69 47.3593C1052.97 39.818 1060.06 34.1621 1068.96 30.3915C1077.85 26.47 1087.73 24.5093 1098.59 24.5093C1106.13 24.5093 1113.22 25.3388 1119.86 26.9979C1126.65 28.657 1132.98 30.8439 1138.86 33.5588C1144.75 36.2736 1150.02 39.2147 1154.7 42.382L1140.9 67.7206Z" fill="#1C7BD4"/>
<path d="M890.903 186.948C883.06 186.948 875.82 185.439 869.184 182.423C862.699 179.256 857.043 174.882 852.216 169.301C847.541 163.721 843.921 157.311 841.357 150.071C838.793 142.831 837.511 135.139 837.511 126.995C837.511 118.398 838.868 110.404 841.583 103.014C844.298 95.6231 848.068 89.1376 852.895 83.5571C857.872 77.8257 863.679 73.4518 870.315 70.4353C877.102 67.268 884.568 65.6843 892.713 65.6843C901.913 65.6843 909.982 67.7959 916.92 72.019C923.858 76.0913 929.589 81.5964 934.114 88.5343V67.7205H960.584V180.613C960.584 192.377 957.718 202.407 951.987 210.703C946.406 219.149 938.639 225.559 928.684 229.933C918.73 234.458 907.418 236.72 894.749 236.72C881.929 236.72 871.069 234.533 862.171 230.159C853.272 225.936 845.655 219.903 839.321 212.06L855.836 195.997C860.361 201.578 866.017 205.952 872.804 209.119C879.742 212.286 887.057 213.87 894.749 213.87C901.234 213.87 907.116 212.663 912.395 210.25C917.825 207.988 922.124 204.368 925.291 199.391C928.609 194.564 930.268 188.305 930.268 180.613V165.681C926.347 172.468 920.766 177.747 913.527 181.518C906.438 185.138 898.896 186.948 890.903 186.948ZM901.083 162.74C904.402 162.74 907.569 162.212 910.585 161.157C913.602 160.101 916.392 158.668 918.956 156.858C921.52 155.048 923.783 152.937 925.743 150.523C927.704 147.959 929.212 145.395 930.268 142.831V114.552C928.458 109.876 925.894 105.804 922.576 102.335C919.409 98.8658 915.789 96.2264 911.717 94.4165C907.795 92.4558 903.647 91.4754 899.274 91.4754C894.598 91.4754 890.375 92.4558 886.604 94.4165C882.834 96.3772 879.591 99.1675 876.876 102.787C874.161 106.256 872.05 110.178 870.541 114.552C869.184 118.775 868.505 123.224 868.505 127.9C868.505 132.726 869.335 137.251 870.994 141.474C872.653 145.697 874.915 149.392 877.781 152.56C880.797 155.727 884.266 158.215 888.188 160.025C892.26 161.835 896.559 162.74 901.083 162.74Z" fill="#000144"/>
<path d="M723.18 97.1312H707.569V74.055H723.18V66.8154C723.18 60.1791 724.235 53.9952 726.347 48.2639C728.609 42.5325 731.777 37.4799 735.849 33.106C740.072 28.5812 745.125 25.1123 751.007 22.6991C757.04 20.135 763.827 18.853 771.368 18.853C777.1 18.853 782.454 19.4563 787.431 20.6629C792.559 21.8695 797.386 23.604 801.91 25.8664C806.586 28.1288 811.035 30.6928 815.258 33.5585L803.268 56.1822C799.346 52.7132 794.746 49.923 789.467 47.8114C784.188 45.6999 778.834 44.6441 773.404 44.6441C769.031 44.6441 765.335 45.6245 762.319 47.5852C759.302 49.5459 757.04 52.1099 755.532 55.2773C754.174 58.4446 753.496 61.9136 753.496 65.6842V74.055H817.068V186.269H786.752V97.1312H753.496V186.269H723.18V97.1312Z" fill="#000144"/>
<path d="M690.244 186.269H659.928V119.755C659.928 110.253 658.269 103.315 654.951 98.9412C651.633 94.5673 647.033 92.3804 641.151 92.3804C637.078 92.3804 632.931 93.4361 628.707 95.5477C624.635 97.6592 620.94 100.6 617.622 104.371C614.304 107.991 611.89 112.214 610.382 117.04V186.269H580.066V67.7205H607.441V89.6655C610.458 84.5375 614.304 80.2389 618.979 76.77C623.655 73.1502 629.009 70.4353 635.042 68.6254C641.226 66.6647 647.711 65.6843 654.499 65.6843C661.889 65.6843 667.922 67.0417 672.598 69.7566C677.424 72.3206 681.044 75.865 683.457 80.3898C686.021 84.7637 687.755 89.7409 688.66 95.3214C689.716 100.902 690.244 106.558 690.244 112.289V186.269Z" fill="#000144"/>
<path d="M497.611 188.531C487.958 188.531 479.286 186.948 471.594 183.78C463.901 180.462 457.341 175.937 451.911 170.206C446.632 164.475 442.56 157.914 439.694 150.523C436.828 143.133 435.396 135.365 435.396 127.221C435.396 118.926 436.828 111.083 439.694 103.692C442.56 96.3018 446.632 89.7409 451.911 84.0096C457.341 78.2782 463.901 73.8289 471.594 70.6615C479.286 67.3434 487.958 65.6843 497.611 65.6843C507.264 65.6843 515.861 67.3434 523.402 70.6615C531.094 73.8289 537.655 78.2782 543.085 84.0096C548.514 89.7409 552.587 96.3018 555.301 103.692C558.167 111.083 559.6 118.926 559.6 127.221C559.6 135.365 558.167 143.133 555.301 150.523C552.587 157.914 548.514 164.475 543.085 170.206C537.806 175.937 531.32 180.462 523.628 183.78C515.936 186.948 507.264 188.531 497.611 188.531ZM466.616 127.221C466.616 134.159 467.974 140.343 470.689 145.772C473.403 151.051 477.099 155.199 481.774 158.215C486.45 161.232 491.729 162.74 497.611 162.74C503.342 162.74 508.546 161.232 513.221 158.215C517.897 155.048 521.592 150.825 524.307 145.546C527.173 140.116 528.605 133.933 528.605 126.995C528.605 120.208 527.173 114.099 524.307 108.669C521.592 103.24 517.897 99.0167 513.221 96.0002C508.546 92.9837 503.342 91.4754 497.611 91.4754C491.729 91.4754 486.45 93.0591 481.774 96.2264C477.099 99.2429 473.403 103.466 470.689 108.896C467.974 114.175 466.616 120.283 466.616 127.221Z" fill="#000144"/>
<path d="M281.424 104.824C281.424 95.0199 283.158 85.4425 286.627 76.0914C290.247 66.5894 295.451 57.9924 302.238 50.3003C309.025 42.4574 317.32 36.2736 327.124 31.7488C336.927 27.0733 348.088 24.7355 360.607 24.7355C375.388 24.7355 388.133 27.9782 398.841 34.4637C409.701 40.9492 417.77 49.3954 423.049 59.8023L399.067 76.3176C396.352 70.2846 392.808 65.5336 388.434 62.0647C384.06 58.4449 379.385 55.9563 374.407 54.5988C369.43 53.0906 364.528 52.3365 359.702 52.3365C351.859 52.3365 344.997 53.9201 339.114 57.0874C333.383 60.2548 328.557 64.4025 324.635 69.5305C320.714 74.6585 317.773 80.3899 315.812 86.7246C314.002 93.0592 313.097 99.3939 313.097 105.729C313.097 112.817 314.228 119.68 316.491 126.316C318.753 132.802 321.92 138.608 325.993 143.736C330.216 148.714 335.193 152.71 340.924 155.727C346.806 158.593 353.217 160.025 360.154 160.025C365.132 160.025 370.184 159.196 375.312 157.537C380.44 155.878 385.191 153.238 389.565 149.619C393.939 145.999 397.333 141.323 399.746 135.592L425.311 150.297C422.144 158.291 416.94 165.078 409.701 170.659C402.612 176.239 394.618 180.462 385.719 183.328C376.821 186.194 367.997 187.626 359.25 187.626C347.787 187.626 337.304 185.289 327.803 180.613C318.301 175.787 310.081 169.452 303.143 161.609C296.356 153.615 291.001 144.717 287.08 134.913C283.309 124.959 281.424 114.929 281.424 104.824Z" fill="#000144"/>
<path d="M1705.1 465.825C1695.54 465.825 1686.95 464.27 1679.33 461.161C1671.71 458.051 1665.22 453.737 1659.85 448.217C1654.57 442.62 1650.49 436.129 1647.61 428.744C1644.81 421.282 1643.41 413.275 1643.41 404.724V400.06C1643.41 390.343 1644.81 381.52 1647.61 373.591C1650.41 365.584 1654.37 358.704 1659.5 352.951C1664.64 347.199 1670.78 342.768 1677.93 339.659C1685.08 336.549 1692.97 334.994 1701.6 334.994C1710.54 334.994 1718.43 336.51 1725.27 339.542C1732.11 342.496 1737.82 346.694 1742.41 352.135C1747 357.577 1750.46 364.107 1752.79 371.725C1755.12 379.265 1756.29 387.622 1756.29 396.795V409.738H1657.41V388.516H1725.97V386.184C1725.81 381.286 1724.88 376.817 1723.17 372.774C1721.46 368.654 1718.82 365.389 1715.24 362.979C1711.67 360.492 1707.04 359.248 1701.37 359.248C1696.78 359.248 1692.78 360.259 1689.36 362.28C1686.01 364.223 1683.21 367.022 1680.96 370.675C1678.78 374.251 1677.15 378.527 1676.06 383.502C1674.97 388.477 1674.43 393.996 1674.43 400.06V404.724C1674.43 410.01 1675.13 414.907 1676.53 419.416C1678.01 423.925 1680.14 427.851 1682.94 431.193C1685.82 434.458 1689.24 437.023 1693.2 438.889C1697.25 440.677 1701.83 441.571 1706.96 441.571C1713.41 441.571 1719.24 440.327 1724.45 437.84C1729.74 435.274 1734.33 431.504 1738.21 426.529L1753.72 442.62C1751.08 446.507 1747.5 450.239 1742.99 453.814C1738.56 457.39 1733.2 460.305 1726.9 462.56C1720.61 464.736 1713.34 465.825 1705.1 465.825Z" fill="#FC6011"/>
<path d="M1520.88 428.978C1520.88 426.335 1520.18 423.964 1518.78 421.865C1517.38 419.766 1514.74 417.861 1510.85 416.151C1507.04 414.363 1501.45 412.692 1494.06 411.137C1487.53 409.738 1481.51 407.989 1475.99 405.89C1470.47 403.791 1465.73 401.265 1461.76 398.311C1457.8 395.279 1454.69 391.742 1452.43 387.7C1450.26 383.58 1449.17 378.838 1449.17 373.474C1449.17 368.266 1450.3 363.368 1452.55 358.782C1454.8 354.118 1458.07 350.036 1462.35 346.538C1466.62 342.962 1471.83 340.164 1477.97 338.143C1484.11 336.044 1491.03 334.994 1498.73 334.994C1509.45 334.994 1518.67 336.743 1526.36 340.242C1534.13 343.74 1540.08 348.559 1544.2 354.701C1548.32 360.764 1550.38 367.605 1550.38 375.223H1519.6C1519.6 371.88 1518.82 368.849 1517.27 366.128C1515.79 363.407 1513.5 361.23 1510.39 359.598C1507.28 357.888 1503.35 357.033 1498.61 357.033C1494.33 357.033 1490.72 357.732 1487.77 359.132C1484.89 360.531 1482.71 362.358 1481.24 364.612C1479.76 366.866 1479.02 369.354 1479.02 372.075C1479.02 374.096 1479.41 375.923 1480.19 377.555C1481.04 379.11 1482.4 380.548 1484.27 381.869C1486.13 383.191 1488.66 384.396 1491.85 385.484C1495.11 386.572 1499.11 387.622 1503.86 388.633C1513.26 390.498 1521.46 392.986 1528.46 396.095C1535.53 399.127 1541.05 403.169 1545.02 408.222C1548.98 413.275 1550.96 419.727 1550.96 427.578C1550.96 433.175 1549.76 438.306 1547.35 442.97C1544.94 447.557 1541.44 451.56 1536.86 454.981C1532.27 458.401 1526.79 461.083 1520.41 463.026C1514.04 464.892 1506.85 465.825 1498.84 465.825C1487.26 465.825 1477.47 463.765 1469.46 459.645C1461.45 455.447 1455.39 450.161 1451.27 443.786C1447.15 437.334 1445.09 430.649 1445.09 423.73H1474.59C1474.82 428.628 1476.14 432.554 1478.55 435.508C1480.96 438.462 1483.99 440.599 1487.65 441.921C1491.38 443.165 1495.31 443.786 1499.43 443.786C1504.09 443.786 1508.02 443.165 1511.2 441.921C1514.39 440.599 1516.8 438.85 1518.43 436.674C1520.06 434.419 1520.88 431.854 1520.88 428.978Z" fill="#FC6011"/>
<path d="M1348.09 337.327V463.493H1317.18V337.327H1348.09ZM1315.09 304.327C1315.09 299.741 1316.64 295.932 1319.75 292.9C1322.94 289.869 1327.21 288.353 1332.58 288.353C1337.94 288.353 1342.18 289.869 1345.29 292.9C1348.47 295.932 1350.07 299.741 1350.07 304.327C1350.07 308.836 1348.47 312.606 1345.29 315.638C1342.18 318.67 1337.94 320.186 1332.58 320.186C1327.21 320.186 1322.94 318.67 1319.75 315.638C1316.64 312.606 1315.09 308.836 1315.09 304.327Z" fill="#FC6011"/>
<path d="M1186.14 363.096V463.493H1155.35V337.326H1184.5L1186.14 363.096ZM1224.5 336.51L1224.03 365.195C1222.32 364.884 1220.38 364.651 1218.2 364.495C1216.1 364.34 1214.12 364.262 1212.25 364.262C1207.51 364.262 1203.35 364.923 1199.78 366.244C1196.2 367.488 1193.21 369.315 1190.8 371.725C1188.47 374.135 1186.68 377.089 1185.44 380.587C1184.19 384.007 1183.49 387.894 1183.34 392.247L1176.69 391.431C1176.69 383.424 1177.51 376 1179.14 369.16C1180.77 362.319 1183.14 356.333 1186.25 351.202C1189.36 346.072 1193.25 342.107 1197.91 339.309C1202.65 336.433 1208.1 334.994 1214.24 334.994C1215.95 334.994 1217.77 335.15 1219.72 335.461C1221.74 335.694 1223.33 336.044 1224.5 336.51Z" fill="#FC6011"/>
<path d="M977.778 361.58V512H946.878V337.326H975.446L977.778 361.58ZM1058.82 399.127V401.575C1058.82 410.748 1057.73 419.26 1055.55 427.112C1053.45 434.885 1050.35 441.687 1046.23 447.518C1042.11 453.27 1036.97 457.779 1030.83 461.044C1024.77 464.231 1017.77 465.825 1009.84 465.825C1002.07 465.825 995.308 464.348 989.555 461.394C983.803 458.362 978.944 454.086 974.98 448.567C971.015 443.048 967.828 436.634 965.418 429.327C963.086 421.942 961.337 413.897 960.171 405.19V397.378C961.337 388.127 963.086 379.731 965.418 372.191C967.828 364.573 971.015 358.004 974.98 352.485C978.944 346.888 983.764 342.573 989.439 339.542C995.191 336.51 1001.92 334.994 1009.61 334.994C1017.62 334.994 1024.65 336.51 1030.72 339.542C1036.86 342.573 1042.03 346.927 1046.23 352.601C1050.42 358.276 1053.57 365.039 1055.67 372.891C1057.77 380.742 1058.82 389.487 1058.82 399.127ZM1027.92 401.575V399.127C1027.92 393.53 1027.41 388.36 1026.4 383.618C1025.39 378.799 1023.84 374.601 1021.74 371.025C1019.64 367.371 1016.92 364.534 1013.58 362.513C1010.23 360.492 1006.19 359.481 1001.45 359.481C996.707 359.481 992.626 360.258 989.205 361.813C985.785 363.368 982.986 365.583 980.81 368.46C978.633 371.336 976.923 374.756 975.679 378.721C974.513 382.608 973.736 386.922 973.347 391.664V411.02C974.047 416.773 975.407 421.942 977.428 426.529C979.449 431.115 982.403 434.769 986.29 437.49C990.255 440.21 995.385 441.571 1001.68 441.571C1006.42 441.571 1010.47 440.521 1013.81 438.422C1017.15 436.324 1019.87 433.447 1021.97 429.794C1024.07 426.062 1025.59 421.787 1026.52 416.967C1027.45 412.148 1027.92 407.017 1027.92 401.575Z" fill="#FC6011"/>
<path d="M817.693 363.096V463.492H786.909V337.326H816.06L817.693 363.096ZM856.056 336.51L855.589 365.195C853.879 364.884 851.936 364.651 849.759 364.495C847.66 364.34 845.678 364.262 843.812 364.262C839.07 364.262 834.911 364.923 831.336 366.244C827.76 367.488 824.767 369.315 822.357 371.725C820.025 374.134 818.237 377.088 816.993 380.587C815.749 384.007 815.05 387.894 814.894 392.247L808.248 391.431C808.248 383.424 809.064 376 810.697 369.159C812.329 362.318 814.7 356.333 817.809 351.202C820.919 346.072 824.806 342.107 829.47 339.309C834.212 336.432 839.653 334.994 845.795 334.994C847.505 334.994 849.332 335.15 851.275 335.461C853.296 335.694 854.89 336.044 856.056 336.51Z" fill="#FC6011"/>
<path d="M641.049 465.825C631.487 465.825 622.898 464.27 615.279 461.16C607.661 458.051 601.17 453.737 595.806 448.217C590.52 442.62 586.439 436.129 583.563 428.744C580.764 421.282 579.365 413.275 579.365 404.724V400.06C579.365 390.342 580.764 381.519 583.563 373.59C586.362 365.583 590.326 358.704 595.457 352.951C600.587 347.199 606.728 342.768 613.88 339.658C621.032 336.549 628.922 334.994 637.551 334.994C646.491 334.994 654.381 336.51 661.222 339.542C668.062 342.496 673.776 346.693 678.363 352.135C682.949 357.577 686.408 364.106 688.74 371.725C691.072 379.265 692.238 387.622 692.238 396.795V409.738H593.358V388.516H661.921V386.184C661.766 381.286 660.833 376.816 659.123 372.774C657.413 368.654 654.77 365.389 651.194 362.979C647.618 360.492 642.992 359.248 637.318 359.248C632.731 359.248 628.728 360.258 625.307 362.28C621.965 364.223 619.166 367.022 616.912 370.675C614.735 374.251 613.103 378.527 612.015 383.502C610.926 388.477 610.382 393.996 610.382 400.06V404.724C610.382 410.01 611.082 414.907 612.481 419.416C613.958 423.925 616.096 427.85 618.894 431.193C621.77 434.458 625.191 437.023 629.155 438.889C633.198 440.677 637.784 441.571 642.915 441.571C649.367 441.571 655.197 440.327 660.405 437.839C665.692 435.274 670.278 431.504 674.165 426.529L689.673 442.62C687.03 446.507 683.454 450.238 678.946 453.814C674.515 457.39 669.151 460.305 662.854 462.56C656.557 464.736 649.289 465.825 641.049 465.825Z" fill="#FC6011"/>
<path d="M489.826 337.326V359.481H417.531V337.326H489.826ZM436.888 306.309H467.788V427.112C467.788 430.843 468.293 433.719 469.304 435.741C470.314 437.762 471.83 439.122 473.851 439.822C475.872 440.521 478.282 440.871 481.081 440.871C483.102 440.871 484.968 440.755 486.678 440.521C488.388 440.288 489.826 440.055 490.992 439.822L491.109 462.909C488.543 463.765 485.628 464.464 482.363 465.008C479.176 465.552 475.561 465.825 471.519 465.825C464.601 465.825 458.537 464.659 453.329 462.326C448.121 459.917 444.078 456.069 441.202 450.783C438.326 445.419 436.888 438.345 436.888 429.561V306.309Z" fill="#FC6011"/>
<path d="M252.904 364.262V463.492H222.12V337.326H251.038L252.904 364.262ZM248.006 395.862H238.911C238.989 386.689 240.233 378.371 242.643 370.908C245.052 363.446 248.434 357.032 252.787 351.669C257.218 346.305 262.465 342.185 268.529 339.309C274.592 336.432 281.355 334.994 288.818 334.994C294.881 334.994 300.362 335.849 305.259 337.559C310.157 339.27 314.354 341.99 317.853 345.722C321.428 349.453 324.149 354.351 326.015 360.414C327.958 366.4 328.93 373.785 328.93 382.569V463.492H297.913V382.336C297.913 376.583 297.058 372.036 295.348 368.693C293.715 365.35 291.306 362.979 288.118 361.58C285.009 360.181 281.161 359.481 276.574 359.481C271.833 359.481 267.674 360.453 264.098 362.396C260.6 364.262 257.646 366.866 255.236 370.209C252.904 373.551 251.116 377.399 249.872 381.753C248.628 386.106 248.006 390.809 248.006 395.862Z" fill="#FC6011"/>
<path d="M128.732 438.306V463.492H38.4805V438.306H128.732ZM48.2753 293.716V463.492H16.209V293.716H48.2753ZM116.955 363.796V388.399H38.4805V363.796H116.955ZM128.383 293.716V319.019H38.4805V293.716H128.383Z" fill="#FC6011"/>
</svg>
