<svg xmlns="http://www.w3.org/2000/svg" width="1280" height="640" fill="none" xmlns:v="https://vecta.io/nano"><path d="M632.844 113.49l-65.583 31.587a15.06 15.06 0 0 0-5.239 4.175 15.05 15.05 0 0 0-2.91 6.035l-16.193 70.975c-.501 2.202-.5 4.49.003 6.692a15.06 15.06 0 0 0 2.904 6.029l45.391 56.927c1.412 1.763 3.202 3.186 5.238 4.163s4.265 1.484 6.524 1.483h72.8c2.259.001 4.489-.506 6.525-1.483s3.826-2.4 5.237-4.163l45.391-56.927a15.05 15.05 0 0 0 2.904-6.029 15.07 15.07 0 0 0 .004-6.692l-16.203-70.975a15.06 15.06 0 0 0-2.906-6.033 15.05 15.05 0 0 0-5.233-4.177l-65.593-31.587c-2.038-.981-4.27-1.49-6.531-1.49a15.05 15.05 0 0 0-6.53 1.49h0z" fill="#1c7bd4"/><path d="M709.191 216.014a23.53 23.53 0 0 0-5.746-7.739 23.55 23.55 0 0 0-8.368-4.785 1.2 1.2 0 0 1-.998-1.364c-.004-1.168-.089-2.335-.254-3.491-.758-4.692-2.898-9.051-6.146-12.52a23.9 23.9 0 0 0-12.089-6.957c-1.882-.424-4.244 0-5.335-2.372-.251-.452-.568-.865-.941-1.223a37.13 37.13 0 0 0-12.468-9.089c-3.61-1.721-7.516-2.733-11.507-2.983-7.198-.282-14.415-.235-21.642-.311h-8.007c-.725 0-1.449.198-2.174.245-1.515.104-3.133 2.305-2.954 3.764.058.967.477 1.878 1.174 2.552a3.87 3.87 0 0 0 2.589 1.089c3.501-.094 7.001 0 10.501 0 .773.07 1.499.405 2.053.949a3.35 3.35 0 0 1 .986 2.034c.292 2.823-1.947 4.159-4.102 4.14-8.892-.075-17.784 0-26.666 0-.8.025-1.572.294-2.213.772a3.91 3.91 0 0 0-1.372 1.9c-.254.768-.234 1.6.055 2.355a3.51 3.51 0 0 0 1.535 1.786c.806.459 1.708.723 2.635.771 3.528.085 7.057 0 10.707 0a38.41 38.41 0 0 0-2.822 17.078h-1.421-38.748a3.77 3.77 0 0 0-3.06.816c-.42.351-.758.788-.992 1.282a3.76 3.76 0 0 0-.361 1.581 3.77 3.77 0 0 0 .337 1.586 3.76 3.76 0 0 0 .973 1.297c.414.356.902.618 1.428.767s1.078.181 1.618.095c6.436-.094 12.872-.056 19.309 0 1.787 0 3.453.48 4.253 2.315a3.68 3.68 0 0 1 .234 1.801 3.67 3.67 0 0 1-.658 1.694 3.68 3.68 0 0 1-1.39 1.17c-.554.267-1.166.391-1.781.36h-15.497c-.5.018-.991.134-1.446.342a3.8 3.8 0 0 0-1.205.869c-.34.366-.607.796-.781 1.264a3.82 3.82 0 0 0-.238 1.467c.018.5.134.991.342 1.446s.503.865.869 1.206a3.79 3.79 0 0 0 1.265.78 3.8 3.8 0 0 0 1.467.238h4.159c-.052.77-.052 1.544 0 2.315a42.18 42.18 0 0 0 1.195 6.586 23.2 23.2 0 0 0 7.715 11.207c3.965 3.371 8.977 5.264 14.18 5.354h90.641a19.77 19.77 0 0 0 4.978-.64c7.348-1.939 12.844-6.192 16.118-13.173 1.606-3.199 2.448-6.726 2.459-10.305a23.12 23.12 0 0 0-2.393-10.321h0zm-80.789-2.032c-.327.262-.739.394-1.157.372s-.814-.199-1.111-.495l-2.823-2.822c-.294-.298-.468-.693-.491-1.111a1.71 1.71 0 0 1 .369-1.157l1.656-2.089c-.584-1.027-1.045-2.12-1.374-3.256l-2.625-.301a1.71 1.71 0 0 1-1.505-1.693v-4.037a1.71 1.71 0 0 1 .432-1.131c.277-.312.659-.512 1.073-.563l2.494-.282a14.65 14.65 0 0 1 1.402-3.557l-1.553-1.966a1.7 1.7 0 0 1-.372-1.157 1.71 1.71 0 0 1 .494-1.111l2.823-2.823a1.72 1.72 0 0 1 2.268-.132l1.882 1.478a14.7 14.7 0 0 1 3.763-1.609l.273-2.315c.047-.417.245-.802.558-1.081a1.7 1.7 0 0 1 1.136-.434h4.027c.42 0 .824.154 1.137.434a1.7 1.7 0 0 1 .557 1.081l.273 2.315a14.59 14.59 0 0 1 3.707 1.552l1.788-1.421a1.71 1.71 0 0 1 1.159-.367c.418.024.813.202 1.109.499l2.822 2.823a1.71 1.71 0 0 1 .123 2.268l-1.459 1.882c.627 1.109 1.108 2.295 1.43 3.528l2.372.273a1.71 1.71 0 0 1 1.515 1.694v4.036a1.71 1.71 0 0 1-1.515 1.694l-2.4.273c-.341 1.249-.844 2.448-1.496 3.566l1.562 1.976a1.71 1.71 0 0 1-.132 2.277l-2.822 2.823c-.296.297-.691.475-1.109.499s-.831-.106-1.159-.367l-2.004-1.591a14.75 14.75 0 0 1-3.623 1.468l-.301 2.579c-.049.415-.248.797-.56 1.075a1.7 1.7 0 0 1-1.134.43h-4.036c-.418.001-.822-.153-1.134-.43a1.7 1.7 0 0 1-.56-1.075l-.311-2.673c-1.179-.339-2.313-.819-3.378-1.43l-2.06 1.581zm28.096 17.482a1.69 1.69 0 0 1-1.515 1.657l-1.119.122a9.95 9.95 0 0 1-1.026 2.362l.725.941a1.68 1.68 0 0 1-.16 2.239l-1.224 1.195c-.295.289-.687.459-1.1.478a1.68 1.68 0 0 1-1.139-.374l-.941-.763a10.11 10.11 0 0 1-2.428.941l-.15 1.233a1.69 1.69 0 0 1-1.703 1.468h-1.703a1.7 1.7 0 0 1-1.121-.441c-.307-.279-.501-.661-.545-1.074l-.132-1.299a9.45 9.45 0 0 1-2.239-.941l-1.007.781a1.68 1.68 0 0 1-1.155.352c-.415-.029-.805-.212-1.094-.512l-1.195-1.223a1.68 1.68 0 0 1-.477-1.101c-.017-.414.119-.819.383-1.138l.809-.998a9.61 9.61 0 0 1-.893-2.183l-1.261-.16a1.69 1.69 0 0 1-1.468-1.693v-1.713c.005-.414.162-.811.441-1.117a1.69 1.69 0 0 1 1.074-.539l1.176-.122c.212-.827.528-1.624.941-2.371l-.725-.941c-.253-.328-.377-.737-.347-1.151s.21-.8.507-1.089l1.223-1.204a1.7 1.7 0 0 1 1.107-.475 1.69 1.69 0 0 1 1.142.381l.838.687a10.31 10.31 0 0 1 2.55-1.045l.131-1.054a1.69 1.69 0 0 1 .571-1.059 1.68 1.68 0 0 1 1.133-.408h1.703a1.69 1.69 0 0 1 1.121.44c.307.279.5.662.544 1.074l.104 1.064c.865.234 1.692.592 2.455 1.063l.819-.63a1.68 1.68 0 0 1 1.155-.352c.416.029.805.212 1.094.511l1.195 1.224c.288.296.456.689.474 1.102a1.68 1.68 0 0 1-.38 1.137l-.677.838c.412.744.728 1.537.94 2.361l1.092.142a1.69 1.69 0 0 1 1.477 1.693v1.684zm24.399-14.499l-1.694.348a12.19 12.19 0 0 1-.941 3.011l1.233 1.308c.285.299.45.693.462 1.107s-.129.817-.396 1.132l-1.797 2.127a1.69 1.69 0 0 1-2.221.32l-1.534-1.017c-.875.602-1.824 1.089-2.823 1.449l-.056 1.882c-.015.415-.181.809-.467 1.109s-.673.485-1.086.519l-2.775.235c-.413.033-.823-.086-1.153-.336a1.68 1.68 0 0 1-.635-1.019l-.386-1.882a12.21 12.21 0 0 1-2.823-.94l-1.543 1.279c-.301.283-.696.444-1.109.455a1.69 1.69 0 0 1-1.13-.398l-2.127-1.798a1.68 1.68 0 0 1-.583-1.049c-.059-.409.034-.826.263-1.171l1.063-1.6a12.6 12.6 0 0 1-1.345-2.569l-1.882-.056c-.414-.015-.809-.181-1.109-.467a1.69 1.69 0 0 1-.519-1.086l-.235-2.775c-.031-.412.089-.821.339-1.151a1.69 1.69 0 0 1 1.016-.637l1.75-.367a12.51 12.51 0 0 1 .941-2.992l-1.233-1.308c-.284-.302-.448-.698-.46-1.112s.128-.819.394-1.137l1.798-2.136c.267-.317.643-.525 1.054-.584s.829.035 1.176.264l1.402.941c.919-.661 1.926-1.19 2.992-1.571l.056-1.647c.011-.414.174-.81.459-1.11a1.68 1.68 0 0 1 1.084-.518l2.776-.235c.412-.034.823.084 1.154.332a1.69 1.69 0 0 1 .643 1.014l.33 1.618c1.085.197 2.139.539 3.133 1.016l1.176-1.101c.302-.282.696-.444 1.109-.454a1.69 1.69 0 0 1 1.131.398l2.126 1.797a1.65 1.65 0 0 1 .301 2.221l-.941 1.392c.594.875 1.068 1.824 1.412 2.823l1.693.057a1.69 1.69 0 0 1 1.628 1.543l.236 2.822c.009.395-.119.781-.363 1.092a1.71 1.71 0 0 1-.974.612h.01zm-42.868-9.795c-1.586 0-3.136-.47-4.454-1.351a8.02 8.02 0 0 1-2.953-3.598c-.606-1.465-.765-3.077-.456-4.632a8.02 8.02 0 0 1 2.194-4.104 8.01 8.01 0 0 1 8.737-1.738c1.465.606 2.717 1.634 3.598 2.952a8.02 8.02 0 0 1-6.666 12.471h0zm0-13.333a5.32 5.32 0 0 0-5.214 6.353c.205 1.032.711 1.979 1.455 2.722a5.31 5.31 0 0 0 9.075-3.759 5.32 5.32 0 0 0-5.316-5.316h0zm28.923 27.964c-1.735-.078-3.37-.831-4.556-2.099a6.64 6.64 0 0 1 .207-9.287c1.242-1.214 2.909-1.894 4.645-1.894s3.403.68 4.645 1.894a6.64 6.64 0 0 1 .207 9.287c-1.186 1.268-2.821 2.021-4.556 2.099h0-.592zm0-10.915h-.358a4.11 4.11 0 0 0-1.604.392c-.503.237-.952.574-1.321.991a4.12 4.12 0 0 0-.824 1.43 4.11 4.11 0 0 0-.195 1.64c.046.554.205 1.093.465 1.584a4.12 4.12 0 0 0 1.052 1.273c.433.349.932.607 1.467.757s1.096.191 1.647.119h0c1.048-.1 2.017-.597 2.709-1.39s1.053-1.821 1.01-2.873a4.11 4.11 0 0 0-4.058-3.942l.01.019zm-22.843 25.321h-.066a5.83 5.83 0 0 1-4.11-1.726 5.84 5.84 0 0 1-1.691-4.124c.005-1.544.621-3.024 1.715-4.114a5.83 5.83 0 0 1 8.238 0c1.094 1.09 1.71 2.57 1.715 4.114a5.84 5.84 0 0 1-1.691 4.124 5.83 5.83 0 0 1-4.11 1.726h0zm0-8.892a3.11 3.11 0 0 0-1.714.52c-.507.338-.905.818-1.141 1.38a3.1 3.1 0 0 0-.19 1.78c.112.599.399 1.152.824 1.59a3.09 3.09 0 0 0 .996.683c.374.161.776.245 1.182.25a3.09 3.09 0 0 0 1.187-.224c.377-.152.721-.377 1.011-.662a3.12 3.12 0 0 0 .86-1.577c.125-.598.07-1.22-.157-1.788s-.617-1.056-1.12-1.403a3.11 3.11 0 0 0-1.71-.549h-.028z" fill="#fff"/><path d="M1263.89 406.612c-7.71 0-14.6 1.516-20.67 4.549-6.06 2.907-10.42 7.14-13.07 12.701v60.089h-25.41v-99.327h23.32v21.23c3.54-6.824 8.02-12.195 13.46-16.112 5.43-3.918 11.18-6.066 17.25-6.445h3.22c.76 0 1.39.063 1.9.189v23.126zm-126.56 79.234c-7.96 0-15.16-1.327-21.61-3.981-6.44-2.78-11.94-6.508-16.49-11.183-4.55-4.802-8.09-10.236-10.61-16.302-2.4-6.192-3.61-12.7-3.61-19.524 0-9.478 2.09-18.135 6.26-25.97 4.3-7.834 10.36-14.09 18.2-18.766 7.96-4.802 17.31-7.203 28.05-7.203 10.87 0 20.16 2.401 27.87 7.203 7.7 4.676 13.58 10.932 17.62 18.766 4.18 7.709 6.26 16.05 6.26 25.022 0 1.516-.06 3.096-.19 4.739-.13 1.516-.25 2.78-.38 3.791h-76.77c.51 5.055 1.96 9.478 4.36 13.269 2.53 3.791 5.69 6.697 9.48 8.719 3.92 1.896 8.09 2.844 12.51 2.844 5.05 0 9.79-1.201 14.22-3.602 4.55-2.527 7.64-5.813 9.28-9.857l21.8 6.066c-2.4 5.055-5.87 9.541-10.42 13.458-4.42 3.918-9.67 7.014-15.74 9.289-6.06 2.148-12.76 3.222-20.09 3.222zm-25.97-59.52h51.94c-.5-5.055-1.96-9.415-4.36-13.08-2.27-3.791-5.31-6.697-9.1-8.719-3.79-2.149-8.02-3.223-12.7-3.223-4.55 0-8.72 1.074-12.51 3.223-3.66 2.022-6.7 4.928-9.1 8.719-2.27 3.665-3.66 8.025-4.17 13.08zm-79.91 59.52c-8.09 0-15.35-1.327-21.8-3.981-6.44-2.78-11.939-6.571-16.488-11.373a55.1 55.1 0 0 1-10.616-16.681c-2.401-6.192-3.601-12.7-3.601-19.524 0-9.351 2.085-17.881 6.255-25.59 4.297-7.835 10.363-14.09 18.2-18.766 7.83-4.676 17.12-7.014 27.86-7.014s19.97 2.338 27.68 7.014 13.46 10.805 17.25 18.387l-24.83 7.582c-2.15-3.665-5-6.445-8.53-8.34-3.54-2.022-7.46-3.033-11.76-3.033a24.57 24.57 0 0 0-13.27 3.791c-3.91 2.401-7.01 5.876-9.28 10.425-2.28 4.423-3.42 9.605-3.42 15.544 0 5.813 1.14 10.994 3.42 15.544 2.4 4.423 5.56 7.961 9.47 10.615 3.92 2.527 8.28 3.791 13.08 3.791 3.04 0 5.88-.506 8.53-1.517 2.78-1.011 5.25-2.401 7.4-4.17 2.14-1.769 3.72-3.791 4.73-6.066l24.84 7.583c-2.28 4.928-5.63 9.351-10.05 13.268-4.3 3.918-9.42 7.014-15.35 9.289-5.82 2.148-12.39 3.222-19.72 3.222zm-68.337-1.895h-25.4v-55.73c0-7.961-1.39-13.774-4.17-17.439s-6.635-5.497-11.563-5.497c-3.412 0-6.887.885-10.426 2.654-3.412 1.769-6.508 4.233-9.288 7.392-2.78 3.033-4.802 6.572-6.066 10.616v58.004h-25.4v-99.328h22.936v18.387c2.527-4.296 5.75-7.898 9.667-10.804 3.918-3.033 8.404-5.308 13.459-6.824 5.181-1.643 10.615-2.465 16.302-2.465 6.192 0 11.247 1.138 15.164 3.412 4.044 2.149 7.077 5.118 9.099 8.909 2.148 3.665 3.601 7.835 4.36 12.511.884 4.676 1.326 9.415 1.326 14.217v61.985zm-194.445 19.334l6.255 1.327c2.022.379 3.728.569 5.118.569 2.401 0 4.36-.632 5.876-1.896 1.643-1.137 3.223-3.286 4.739-6.445 1.517-3.033 3.096-7.329 4.739-12.89l-39.238-99.327h26.348l26.728 73.358 23.505-73.358h24.263l-41.702 119.041c-1.517 4.423-3.855 8.404-7.014 11.942-3.033 3.665-6.887 6.508-11.563 8.53-4.549 2.149-9.667 3.223-15.354 3.223a32.86 32.86 0 0 1-6.066-.569c-2.022-.253-4.233-.758-6.634-1.516v-21.989zm-32.545-118.662c-.885-.884-2.527-2.085-4.929-3.601-2.274-1.517-5.118-2.97-8.53-4.36-3.285-1.39-6.887-2.591-10.804-3.602-3.918-1.137-7.898-1.706-11.942-1.706-7.077 0-12.448 1.327-16.112 3.981-3.539 2.654-5.308 6.382-5.308 11.184 0 3.665 1.137 6.571 3.412 8.719s5.687 3.981 10.236 5.498 10.236 3.159 17.06 4.928c8.846 2.148 16.491 4.802 22.936 7.961 6.572 3.033 11.563 7.077 14.975 12.132 3.539 4.928 5.308 11.5 5.308 19.714 0 7.203-1.327 13.395-3.981 18.576-2.654 5.055-6.318 9.162-10.994 12.321s-9.983 5.497-15.923 7.014c-5.939 1.39-12.258 2.085-18.955 2.085s-13.396-.695-20.093-2.085-13.143-3.349-19.335-5.876c-6.192-2.654-11.879-5.813-17.06-9.478l11.563-22.557c1.137 1.137 3.159 2.654 6.066 4.549 2.906 1.769 6.445 3.602 10.615 5.497 4.17 1.769 8.719 3.286 13.648 4.55s9.92 1.895 14.975 1.895c7.076 0 12.447-1.2 16.112-3.601s5.497-5.813 5.497-10.236c0-4.044-1.453-7.204-4.36-9.478s-6.95-4.234-12.131-5.876c-5.182-1.77-11.31-3.665-18.387-5.687-8.467-2.401-15.544-5.055-21.23-7.961-5.687-3.033-9.921-6.824-12.701-11.374s-4.17-10.236-4.17-17.06c0-9.225 2.148-16.933 6.445-23.126 4.423-6.318 10.362-11.057 17.818-14.216 7.456-3.286 15.733-4.929 24.832-4.929 6.319 0 12.258.695 17.818 2.085 5.687 1.39 10.995 3.223 15.923 5.497s9.351 4.739 13.269 7.393l-11.563 21.23z" fill="#1c7bd4"/><path d="M526.659 484.519c-6.571 0-12.637-1.263-18.197-3.791-5.434-2.654-10.173-6.318-14.217-10.994-3.917-4.676-6.95-10.047-9.098-16.112s-3.223-12.511-3.223-19.335c0-7.203 1.138-13.901 3.412-20.093s5.434-11.626 9.478-16.302c4.17-4.802 9.036-8.467 14.596-10.994 5.687-2.654 11.942-3.981 18.766-3.981 7.708 0 14.469 1.77 20.282 5.308 5.813 3.412 10.616 8.024 14.407 13.837v-17.439h22.178v94.589c0 9.857-2.401 18.26-7.204 25.211-4.675 7.076-11.183 12.447-19.524 16.112-8.34 3.791-17.818 5.686-28.433 5.686-10.742 0-19.84-1.832-27.296-5.497-7.456-3.538-13.838-8.593-19.145-15.164l13.837-13.459c3.791 4.676 8.53 8.341 14.217 10.995 5.813 2.653 11.942 3.98 18.387 3.98 5.434 0 10.362-1.011 14.785-3.033 4.55-1.895 8.151-4.928 10.805-9.098 2.78-4.044 4.17-9.288 4.17-15.733v-12.511c-3.285 5.687-7.961 10.11-14.027 13.269a41.1 41.1 0 0 1-18.956 4.549zm8.53-20.282c2.781 0 5.434-.443 7.962-1.327s4.865-2.085 7.013-3.602a28.39 28.39 0 0 0 5.687-5.307c1.643-2.149 2.907-4.297 3.791-6.445v-23.695c-1.516-3.917-3.665-7.329-6.445-10.236-2.654-2.906-5.686-5.118-9.098-6.634-3.286-1.643-6.761-2.464-10.426-2.464-3.917 0-7.456.821-10.615 2.464s-5.876 3.981-8.151 7.014c-2.275 2.906-4.044 6.192-5.308 9.856-1.137 3.539-1.706 7.267-1.706 11.184 0 4.044.695 7.835 2.086 11.374s3.285 6.634 5.686 9.288c2.528 2.654 5.434 4.739 8.72 6.255 3.412 1.517 7.013 2.275 10.804 2.275zm-149.057-54.972h-13.08v-19.334h13.08v-6.066c0-5.56.884-10.742 2.653-15.544 1.896-4.802 4.55-9.035 7.962-12.7 3.538-3.791 7.772-6.698 12.7-8.719 5.055-2.149 10.741-3.223 17.06-3.223 4.802 0 9.288.506 13.458 1.517 4.297 1.01 8.341 2.464 12.132 4.359 3.917 1.896 7.645 4.044 11.184 6.445l-10.047 18.956c-3.285-2.907-7.14-5.245-11.563-7.014s-8.909-2.654-13.458-2.654c-3.665 0-6.761.822-9.288 2.465s-4.423 3.791-5.687 6.445c-1.137 2.653-1.706 5.56-1.706 8.719v7.014h53.265v94.019h-25.4v-74.685h-27.865v74.685h-25.4v-74.685zm-27.597 74.686h-25.4v-55.73c0-7.961-1.39-13.774-4.17-17.439s-6.635-5.497-11.563-5.497c-3.412 0-6.887.885-10.426 2.654-3.412 1.769-6.508 4.233-9.288 7.392-2.78 3.033-4.802 6.572-6.066 10.616v58.004h-25.4v-99.328h22.936v18.387c2.527-4.296 5.75-7.898 9.667-10.804 3.918-3.033 8.404-5.308 13.459-6.824 5.181-1.643 10.615-2.465 16.302-2.465 6.192 0 11.246 1.138 15.164 3.412 4.044 2.149 7.077 5.118 9.099 8.909 2.148 3.665 3.601 7.835 4.359 12.511a76.28 76.28 0 0 1 1.327 14.217v61.985zm-161.396 1.895c-8.088 0-15.354-1.327-21.799-3.981-6.445-2.78-11.942-6.571-16.491-11.373-4.423-4.802-7.835-10.299-10.236-16.491s-3.602-12.7-3.602-19.524c0-6.951 1.201-13.522 3.602-19.714s5.813-11.69 10.236-16.492c4.549-4.802 10.046-8.53 16.491-11.183 6.445-2.781 13.711-4.171 21.799-4.171s15.291 1.39 21.609 4.171c6.445 2.653 11.942 6.381 16.492 11.183a47.62 47.62 0 0 1 10.236 16.492c2.401 6.192 3.601 12.763 3.601 19.714 0 6.824-1.2 13.332-3.601 19.524-2.275 6.192-5.687 11.689-10.236 16.491-4.423 4.802-9.857 8.593-16.302 11.373-6.445 2.654-13.711 3.981-21.799 3.981zm-25.969-51.369c0 5.813 1.137 10.994 3.412 15.543 2.275 4.423 5.371 7.898 9.288 10.426s8.341 3.791 13.269 3.791c4.802 0 9.162-1.264 13.079-3.791 3.918-2.654 7.014-6.192 9.289-10.615 2.401-4.55 3.601-9.731 3.601-15.544 0-5.687-1.2-10.805-3.601-15.354-2.275-4.549-5.371-8.088-9.289-10.615s-8.277-3.791-13.079-3.791c-4.928 0-9.351 1.327-13.269 3.98-3.917 2.528-7.013 6.066-9.288 10.616-2.275 4.422-3.412 9.54-3.412 15.354zM16 415.711c0-8.215 1.453-16.239 4.36-24.074 3.033-7.961 7.393-15.165 13.079-21.609 5.687-6.572 12.637-11.753 20.851-15.544 8.214-3.917 17.566-5.876 28.054-5.876 12.384 0 23.063 2.717 32.035 8.151 9.099 5.434 15.86 12.51 20.283 21.23l-20.093 13.838c-2.275-5.055-5.244-9.036-8.909-11.943-3.665-3.032-7.582-5.118-11.753-6.255-4.17-1.264-8.277-1.895-12.321-1.895-6.571 0-12.321 1.326-17.25 3.98-4.802 2.654-8.846 6.129-12.132 10.426s-5.75 9.099-7.393 14.406c-1.517 5.308-2.275 10.615-2.275 15.923 0 5.939.948 11.689 2.843 17.249 1.896 5.434 4.549 10.3 7.961 14.596 3.538 4.17 7.709 7.519 12.511 10.047 4.928 2.401 10.299 3.601 16.112 3.601 4.17 0 8.404-.695 12.7-2.085s8.277-3.602 11.942-6.634 6.508-6.951 8.53-11.753l21.419 12.321c-2.653 6.698-7.013 12.385-13.079 17.06-5.939 4.676-12.637 8.214-20.093 10.615s-14.848 3.602-22.178 3.602c-9.604 0-18.387-1.959-26.348-5.876-7.961-4.044-14.849-9.352-20.662-15.923a80.53 80.53 0 0 1-13.458-22.368C17.58 432.581 16 424.177 16 415.711z" fill="#000144"/></svg>