<svg width="1280" height="640" viewBox="0 0 1280 640" fill="none" xmlns="http://www.w3.org/2000/svg">
<path d="M632.844 113.49L567.261 145.077C565.223 146.058 563.432 147.485 562.022 149.252C560.611 151.02 559.616 153.082 559.112 155.287L542.919 226.262C542.418 228.464 542.419 230.752 542.922 232.954C543.426 235.156 544.418 237.217 545.826 238.983L591.217 295.91C592.629 297.673 594.419 299.096 596.455 300.073C598.491 301.05 600.72 301.557 602.979 301.556H675.779C678.038 301.557 680.268 301.05 682.304 300.073C684.34 299.096 686.13 297.673 687.541 295.91L732.932 238.983C734.34 237.217 735.333 235.156 735.836 232.954C736.339 230.752 736.34 228.464 735.84 226.262L719.637 155.287C719.133 153.083 718.14 151.021 716.731 149.254C715.322 147.486 713.534 146.059 711.498 145.077L645.905 113.49C643.867 112.509 641.635 112 639.374 112C637.113 112 634.881 112.509 632.844 113.49V113.49Z" fill="#1C7BD4"/>
<path d="M709.191 216.014C707.83 213.066 705.874 210.43 703.445 208.275C701.016 206.12 698.166 204.491 695.077 203.49C694.765 203.439 694.485 203.268 694.299 203.012C694.112 202.757 694.033 202.439 694.079 202.126C694.075 200.958 693.99 199.791 693.825 198.635C693.067 193.943 690.927 189.584 687.679 186.115C684.43 182.645 680.222 180.223 675.59 179.158C673.708 178.734 671.346 179.158 670.255 176.786C670.004 176.334 669.687 175.921 669.314 175.563C665.84 171.694 661.593 168.597 656.846 166.474C653.236 164.753 649.33 163.741 645.339 163.491C638.141 163.209 630.924 163.256 623.697 163.18C621.025 163.18 618.362 163.18 615.69 163.18C614.965 163.18 614.241 163.378 613.516 163.425C612.001 163.529 610.383 165.73 610.562 167.189C610.62 168.156 611.039 169.067 611.736 169.741C612.432 170.415 613.356 170.804 614.325 170.83C617.826 170.736 621.326 170.83 624.826 170.83C625.599 170.9 626.325 171.235 626.879 171.779C627.433 172.322 627.782 173.041 627.865 173.813C628.157 176.636 625.918 177.972 623.763 177.953C614.871 177.878 605.979 177.953 597.097 177.953C596.297 177.978 595.525 178.247 594.884 178.725C594.243 179.203 593.764 179.867 593.512 180.625C593.258 181.393 593.278 182.225 593.567 182.98C593.857 183.734 594.4 184.365 595.102 184.766C595.908 185.225 596.81 185.489 597.737 185.537C601.265 185.622 604.794 185.537 608.444 185.537C606.216 190.941 605.251 196.782 605.622 202.615H604.201C591.282 202.615 578.363 202.615 565.453 202.615C564.914 202.521 564.362 202.545 563.833 202.686C563.305 202.827 562.813 203.081 562.393 203.431C561.973 203.782 561.635 204.219 561.401 204.713C561.167 205.208 561.044 205.747 561.04 206.294C561.036 206.841 561.151 207.382 561.377 207.88C561.603 208.378 561.935 208.82 562.35 209.177C562.764 209.533 563.252 209.795 563.778 209.944C564.304 210.093 564.856 210.125 565.396 210.039C571.832 209.945 578.268 209.983 584.705 210.039C586.492 210.039 588.158 210.519 588.958 212.354C589.185 212.925 589.266 213.545 589.192 214.155C589.118 214.766 588.892 215.348 588.534 215.849C588.176 216.349 587.698 216.751 587.144 217.019C586.59 217.286 585.978 217.41 585.363 217.379H569.866C569.366 217.397 568.875 217.513 568.42 217.721C567.965 217.928 567.555 218.224 567.215 218.59C566.874 218.956 566.608 219.386 566.434 219.854C566.259 220.323 566.178 220.821 566.196 221.321C566.214 221.821 566.33 222.312 566.538 222.767C566.746 223.222 567.041 223.632 567.407 223.973C567.774 224.313 568.203 224.579 568.672 224.753C569.14 224.928 569.639 225.009 570.139 224.991C571.475 224.991 572.83 224.991 574.298 224.991C574.246 225.761 574.246 226.535 574.298 227.306C574.521 229.529 574.921 231.732 575.493 233.892C576.887 238.315 579.574 242.218 583.208 245.099C587.173 248.47 592.185 250.363 597.388 250.453C627.605 250.528 657.819 250.528 688.029 250.453C689.709 250.452 691.381 250.237 693.007 249.813C700.355 247.874 705.851 243.621 709.125 236.64C710.731 233.441 711.573 229.914 711.584 226.335C711.596 222.756 710.777 219.223 709.191 216.014V216.014ZM628.402 213.982C628.075 214.244 627.663 214.376 627.245 214.354C626.826 214.331 626.431 214.155 626.134 213.859L623.311 211.037C623.017 210.739 622.843 210.344 622.82 209.926C622.798 209.508 622.929 209.097 623.189 208.769L624.845 206.68C624.261 205.653 623.8 204.56 623.471 203.424L620.846 203.123C620.432 203.073 620.05 202.873 619.773 202.561C619.496 202.249 619.342 201.847 619.341 201.43V197.393C619.342 196.976 619.496 196.573 619.773 196.262C620.05 195.95 620.432 195.75 620.846 195.699L623.34 195.417C623.65 194.175 624.121 192.98 624.742 191.86L623.189 189.894C622.927 189.567 622.794 189.155 622.817 188.737C622.84 188.318 623.016 187.923 623.311 187.626L626.134 184.803C626.431 184.508 626.825 184.332 627.243 184.307C627.661 184.283 628.073 184.413 628.402 184.671L630.284 186.149C631.457 185.44 632.724 184.898 634.047 184.54L634.32 182.225C634.367 181.808 634.565 181.423 634.878 181.144C635.19 180.864 635.595 180.71 636.014 180.71H640.041C640.461 180.71 640.865 180.864 641.178 181.144C641.49 181.423 641.689 181.808 641.735 182.225L642.008 184.54C643.309 184.884 644.557 185.406 645.715 186.092L647.503 184.671C647.831 184.411 648.244 184.28 648.662 184.304C649.08 184.328 649.475 184.506 649.771 184.803L652.593 187.626C652.887 187.924 653.062 188.319 653.084 188.737C653.107 189.154 652.976 189.566 652.716 189.894L651.257 191.776C651.884 192.885 652.365 194.071 652.687 195.304L655.059 195.577C655.475 195.625 655.858 195.824 656.137 196.136C656.417 196.448 656.572 196.852 656.574 197.271V201.307C656.572 201.726 656.417 202.13 656.137 202.442C655.858 202.754 655.475 202.953 655.059 203.001L652.659 203.274C652.318 204.523 651.815 205.722 651.163 206.84L652.725 208.816C652.987 209.146 653.118 209.56 653.093 209.98C653.069 210.4 652.891 210.796 652.593 211.093L649.771 213.916C649.475 214.213 649.08 214.391 648.662 214.415C648.244 214.439 647.831 214.309 647.503 214.048L645.499 212.457C644.361 213.105 643.143 213.599 641.876 213.925L641.575 216.504C641.526 216.919 641.327 217.301 641.015 217.579C640.703 217.856 640.299 218.01 639.881 218.009H635.845C635.427 218.01 635.023 217.856 634.711 217.579C634.399 217.301 634.199 216.919 634.151 216.504L633.84 213.831C632.661 213.492 631.527 213.012 630.462 212.401L628.402 213.982ZM656.498 231.464C656.493 231.878 656.336 232.276 656.057 232.582C655.777 232.887 655.395 233.079 654.983 233.121L653.864 233.243C653.626 234.071 653.281 234.865 652.838 235.605L653.563 236.546C653.816 236.873 653.94 237.283 653.91 237.696C653.881 238.109 653.7 238.497 653.403 238.785L652.179 239.98C651.884 240.269 651.492 240.439 651.079 240.458C650.666 240.478 650.261 240.344 649.94 240.084L648.999 239.321C648.234 239.738 647.418 240.054 646.571 240.262L646.421 241.495C646.366 241.906 646.162 242.282 645.848 242.552C645.534 242.823 645.132 242.969 644.718 242.963H643.015C642.6 242.958 642.201 242.801 641.894 242.522C641.587 242.243 641.393 241.861 641.349 241.448L641.217 240.149C640.434 239.933 639.681 239.617 638.978 239.208L637.971 239.989C637.643 240.245 637.231 240.371 636.816 240.341C636.401 240.312 636.011 240.129 635.722 239.829L634.527 238.606C634.238 238.311 634.068 237.918 634.05 237.505C634.033 237.091 634.169 236.686 634.433 236.367L635.242 235.369C634.856 234.681 634.556 233.948 634.349 233.186L633.088 233.026C632.679 232.971 632.304 232.769 632.034 232.457C631.763 232.145 631.616 231.745 631.62 231.333V229.62C631.625 229.206 631.782 228.809 632.061 228.503C632.341 228.198 632.723 228.006 633.135 227.964L634.311 227.842C634.523 227.015 634.839 226.218 635.252 225.471L634.527 224.53C634.274 224.202 634.15 223.793 634.18 223.379C634.209 222.966 634.39 222.579 634.687 222.29L635.91 221.086C636.209 220.798 636.602 220.629 637.017 220.611C637.432 220.594 637.838 220.729 638.159 220.992L638.997 221.679C639.796 221.218 640.654 220.867 641.547 220.634L641.678 219.58C641.732 219.169 641.935 218.792 642.249 218.521C642.564 218.25 642.967 218.104 643.382 218.113H645.085C645.5 218.117 645.899 218.274 646.206 218.553C646.513 218.832 646.706 219.215 646.75 219.627L646.854 220.691C647.719 220.925 648.546 221.283 649.309 221.754L650.128 221.124C650.456 220.868 650.868 220.742 651.283 220.772C651.699 220.801 652.088 220.984 652.377 221.283L653.572 222.507C653.86 222.803 654.028 223.196 654.046 223.609C654.063 224.021 653.928 224.426 653.666 224.746L652.989 225.584C653.401 226.328 653.717 227.121 653.929 227.945L655.021 228.087C655.432 228.139 655.809 228.341 656.081 228.653C656.353 228.965 656.502 229.366 656.498 229.78V231.464ZM680.897 216.965L679.203 217.313C679.021 218.353 678.705 219.365 678.262 220.324L679.495 221.632C679.78 221.931 679.945 222.325 679.957 222.739C679.969 223.152 679.828 223.556 679.561 223.871L677.764 225.998C677.497 226.314 677.124 226.522 676.714 226.581C676.305 226.64 675.888 226.546 675.543 226.318L674.009 225.301C673.134 225.903 672.185 226.39 671.186 226.75L671.13 228.632C671.115 229.047 670.949 229.441 670.663 229.741C670.377 230.041 669.99 230.226 669.577 230.26L666.802 230.495C666.389 230.528 665.979 230.409 665.649 230.159C665.32 229.909 665.093 229.546 665.014 229.14L664.628 227.258C663.652 227.061 662.704 226.745 661.805 226.318L660.262 227.597C659.961 227.88 659.566 228.041 659.153 228.052C658.74 228.062 658.338 227.92 658.023 227.654L655.896 225.856C655.579 225.59 655.372 225.217 655.313 224.807C655.254 224.398 655.347 223.981 655.576 223.636L656.639 222.036C656.094 221.235 655.642 220.373 655.294 219.467L653.412 219.411C652.998 219.396 652.603 219.23 652.303 218.944C652.003 218.658 651.818 218.272 651.784 217.858L651.549 215.083C651.518 214.671 651.638 214.262 651.888 213.932C652.138 213.603 652.499 213.376 652.904 213.295L654.654 212.928C654.841 211.895 655.157 210.89 655.595 209.936L654.362 208.628C654.078 208.326 653.914 207.93 653.902 207.516C653.89 207.101 654.03 206.697 654.296 206.379L656.094 204.243C656.361 203.926 656.737 203.718 657.148 203.659C657.559 203.6 657.977 203.694 658.324 203.923L659.726 204.864C660.645 204.203 661.652 203.674 662.718 203.293L662.774 201.646C662.785 201.232 662.948 200.836 663.233 200.536C663.518 200.235 663.904 200.051 664.317 200.018L667.093 199.783C667.505 199.749 667.916 199.867 668.247 200.115C668.578 200.363 668.807 200.724 668.89 201.129L669.22 202.747C670.305 202.944 671.359 203.286 672.353 203.763L673.529 202.662C673.831 202.38 674.225 202.218 674.638 202.208C675.051 202.197 675.453 202.339 675.769 202.606L677.895 204.403C678.215 204.668 678.423 205.043 678.478 205.455C678.534 205.866 678.434 206.283 678.196 206.624L677.255 208.016C677.849 208.891 678.323 209.84 678.667 210.839L680.36 210.896C680.773 210.91 681.167 211.075 681.466 211.359C681.766 211.643 681.952 212.027 681.988 212.439L682.224 215.261C682.233 215.656 682.105 216.042 681.861 216.353C681.617 216.663 681.273 216.88 680.887 216.965H680.897Z" fill="white"/>
<path d="M638.029 207.17C636.443 207.17 634.893 206.7 633.575 205.819C632.257 204.938 631.229 203.686 630.622 202.221C630.016 200.756 629.857 199.144 630.166 197.589C630.476 196.034 631.239 194.606 632.36 193.485C633.481 192.363 634.91 191.6 636.465 191.291C638.02 190.981 639.632 191.14 641.097 191.747C642.562 192.353 643.814 193.381 644.695 194.699C645.576 196.018 646.046 197.568 646.046 199.153C646.046 201.279 645.201 203.319 643.698 204.822C642.194 206.325 640.155 207.17 638.029 207.17V207.17ZM638.029 193.837C636.978 193.837 635.95 194.149 635.075 194.733C634.201 195.317 633.52 196.147 633.117 197.119C632.715 198.09 632.61 199.159 632.815 200.19C633.02 201.222 633.526 202.169 634.27 202.912C635.013 203.656 635.961 204.162 636.992 204.367C638.023 204.573 639.092 204.467 640.063 204.065C641.035 203.663 641.865 202.981 642.449 202.107C643.034 201.233 643.345 200.205 643.345 199.153C643.343 197.744 642.782 196.393 641.785 195.397C640.789 194.4 639.438 193.839 638.029 193.837V193.837Z" fill="white"/>
<path d="M666.952 221.801C665.217 221.723 663.582 220.97 662.396 219.702C661.21 218.434 660.568 216.752 660.607 215.016C660.645 213.281 661.362 211.629 662.603 210.415C663.845 209.201 665.512 208.521 667.248 208.521C668.984 208.521 670.651 209.201 671.893 210.415C673.134 211.629 673.851 213.281 673.889 215.016C673.928 216.752 673.286 218.434 672.1 219.702C670.914 220.97 669.279 221.723 667.544 221.801V221.801H666.952ZM666.952 210.886H666.594C666.038 210.907 665.493 211.04 664.99 211.278C664.487 211.515 664.038 211.852 663.669 212.269C663.301 212.685 663.02 213.172 662.845 213.699C662.67 214.227 662.603 214.785 662.65 215.339C662.696 215.893 662.855 216.432 663.115 216.923C663.376 217.414 663.734 217.847 664.167 218.196C664.6 218.545 665.099 218.803 665.634 218.953C666.169 219.104 666.73 219.144 667.281 219.072V219.072C668.329 218.972 669.298 218.475 669.99 217.682C670.682 216.889 671.043 215.861 671 214.809C670.956 213.758 670.511 212.763 669.757 212.03C669.002 211.296 667.995 210.88 666.942 210.867L666.952 210.886Z" fill="white"/>
<path d="M644.109 236.207H644.043C642.499 236.199 641.021 235.578 639.933 234.481C638.846 233.384 638.238 231.901 638.242 230.357C638.247 228.813 638.863 227.333 639.957 226.243C641.05 225.152 642.532 224.54 644.076 224.54C645.62 224.54 647.102 225.152 648.195 226.243C649.289 227.333 649.905 228.813 649.91 230.357C649.914 231.901 649.306 233.384 648.219 234.481C647.131 235.578 645.653 236.199 644.109 236.207V236.207ZM644.109 227.315C643.499 227.317 642.903 227.497 642.395 227.835C641.888 228.173 641.49 228.653 641.254 229.215C641.017 229.777 640.951 230.396 641.064 230.995C641.176 231.594 641.463 232.147 641.888 232.585C642.172 232.876 642.51 233.108 642.884 233.268C643.258 233.429 643.66 233.513 644.066 233.518C644.473 233.522 644.876 233.446 645.253 233.294C645.63 233.142 645.974 232.917 646.264 232.632C646.699 232.202 646.998 231.654 647.124 231.055C647.249 230.457 647.194 229.835 646.967 229.267C646.74 228.699 646.35 228.211 645.847 227.864C645.343 227.517 644.749 227.326 644.137 227.315H644.109Z" fill="white"/>
<path d="M1263.89 406.612C1256.18 406.612 1249.29 408.128 1243.22 411.161C1237.16 414.068 1232.8 418.301 1230.15 423.862V483.951H1204.74V384.624H1228.06V405.854C1231.6 399.03 1236.08 393.659 1241.52 389.742C1246.95 385.824 1252.7 383.676 1258.77 383.297C1260.16 383.297 1261.23 383.297 1261.99 383.297C1262.75 383.297 1263.38 383.36 1263.89 383.486V406.612Z" fill="#1C7BD4"/>
<path d="M1137.33 485.846C1129.37 485.846 1122.17 484.519 1115.72 481.865C1109.28 479.085 1103.78 475.357 1099.23 470.682C1094.68 465.88 1091.14 460.446 1088.62 454.38C1086.22 448.188 1085.01 441.68 1085.01 434.856C1085.01 425.378 1087.1 416.721 1091.27 408.886C1095.57 401.052 1101.63 394.796 1109.47 390.12C1117.43 385.318 1126.78 382.917 1137.52 382.917C1148.39 382.917 1157.68 385.318 1165.39 390.12C1173.09 394.796 1178.97 401.052 1183.01 408.886C1187.19 416.595 1189.27 424.936 1189.27 433.908C1189.27 435.424 1189.21 437.004 1189.08 438.647C1188.95 440.163 1188.83 441.427 1188.7 442.438H1111.93C1112.44 447.493 1113.89 451.916 1116.29 455.707C1118.82 459.498 1121.98 462.404 1125.77 464.426C1129.69 466.322 1133.86 467.27 1138.28 467.27C1143.33 467.27 1148.07 466.069 1152.5 463.668C1157.05 461.141 1160.14 457.855 1161.78 453.811L1183.58 459.877C1181.18 464.932 1177.71 469.418 1173.16 473.335C1168.74 477.253 1163.49 480.349 1157.42 482.624C1151.36 484.772 1144.66 485.846 1137.33 485.846ZM1111.36 426.326H1163.3C1162.8 421.271 1161.34 416.911 1158.94 413.246C1156.67 409.455 1153.63 406.549 1149.84 404.527C1146.05 402.378 1141.82 401.304 1137.14 401.304C1132.59 401.304 1128.42 402.378 1124.63 404.527C1120.97 406.549 1117.93 409.455 1115.53 413.246C1113.26 416.911 1111.87 421.271 1111.36 426.326Z" fill="#1C7BD4"/>
<path d="M1031.45 485.846C1023.36 485.846 1016.1 484.519 1009.65 481.865C1003.21 479.085 997.711 475.294 993.162 470.492C988.612 465.564 985.074 460.003 982.546 453.811C980.145 447.619 978.945 441.111 978.945 434.287C978.945 424.936 981.03 416.406 985.2 408.697C989.497 400.862 995.563 394.607 1003.4 389.931C1011.23 385.255 1020.52 382.917 1031.26 382.917C1042 382.917 1051.23 385.255 1058.94 389.931C1066.65 394.607 1072.4 400.736 1076.19 408.318L1051.36 415.9C1049.21 412.235 1046.36 409.455 1042.83 407.56C1039.29 405.538 1035.37 404.527 1031.07 404.527C1026.27 404.527 1021.85 405.79 1017.8 408.318C1013.89 410.719 1010.79 414.194 1008.52 418.743C1006.24 423.166 1005.1 428.348 1005.1 434.287C1005.1 440.1 1006.24 445.281 1008.52 449.831C1010.92 454.254 1014.08 457.792 1017.99 460.446C1021.91 462.973 1026.27 464.237 1031.07 464.237C1034.11 464.237 1036.95 463.731 1039.6 462.72C1042.38 461.709 1044.85 460.319 1047 458.55C1049.14 456.781 1050.72 454.759 1051.73 452.484L1076.57 460.067C1074.29 464.995 1070.94 469.418 1066.52 473.335C1062.22 477.253 1057.1 480.349 1051.17 482.624C1045.35 484.772 1038.78 485.846 1031.45 485.846Z" fill="#1C7BD4"/>
<path d="M963.113 483.951H937.713V428.221C937.713 420.26 936.323 414.447 933.543 410.782C930.763 407.117 926.908 405.285 921.98 405.285C918.568 405.285 915.093 406.17 911.554 407.939C908.142 409.708 905.046 412.172 902.266 415.331C899.486 418.364 897.464 421.903 896.2 425.947V483.951H870.8V384.623H893.736V403.01C896.263 398.714 899.486 395.112 903.403 392.206C907.321 389.173 911.807 386.898 916.862 385.382C922.043 383.739 927.477 382.917 933.164 382.917C939.356 382.917 944.411 384.055 948.328 386.329C952.372 388.478 955.405 391.447 957.427 395.238C959.575 398.903 961.028 403.073 961.787 407.749C962.671 412.425 963.113 417.164 963.113 421.966V483.951Z" fill="#1C7BD4"/>
<path d="M768.668 503.285C770.943 503.791 773.028 504.233 774.923 504.612C776.945 504.991 778.651 505.181 780.041 505.181C782.442 505.181 784.401 504.549 785.917 503.285C787.56 502.148 789.14 499.999 790.656 496.84C792.173 493.807 793.752 489.511 795.395 483.95L756.157 384.623H782.505L809.233 457.981L832.738 384.623H857.001L815.299 503.664C813.782 508.087 811.444 512.068 808.285 515.606C805.252 519.271 801.398 522.114 796.722 524.136C792.173 526.285 787.055 527.359 781.368 527.359C779.346 527.359 777.324 527.169 775.302 526.79C773.28 526.537 771.069 526.032 768.668 525.274V503.285Z" fill="#1C7BD4"/>
<path d="M736.123 384.623C735.238 383.739 733.596 382.538 731.194 381.022C728.92 379.505 726.076 378.052 722.664 376.662C719.379 375.272 715.777 374.071 711.86 373.06C707.942 371.923 703.962 371.354 699.918 371.354C692.841 371.354 687.47 372.681 683.806 375.335C680.267 377.989 678.498 381.717 678.498 386.519C678.498 390.184 679.635 393.09 681.91 395.238C684.185 397.387 687.597 399.219 692.146 400.736C696.695 402.252 702.382 403.895 709.206 405.664C718.052 407.812 725.697 410.466 732.142 413.625C738.714 416.658 743.705 420.702 747.117 425.757C750.656 430.685 752.425 437.257 752.425 445.471C752.425 452.674 751.098 458.866 748.444 464.047C745.79 469.102 742.126 473.209 737.45 476.368C732.774 479.528 727.467 481.865 721.527 483.382C715.588 484.772 709.269 485.467 702.572 485.467C695.874 485.467 689.176 484.772 682.479 483.382C675.781 481.992 669.336 480.033 663.144 477.506C656.952 474.852 651.265 471.693 646.084 468.028L657.647 445.471C658.784 446.608 660.806 448.125 663.713 450.02C666.619 451.789 670.158 453.622 674.328 455.517C678.498 457.286 683.047 458.803 687.976 460.067C692.904 461.33 697.896 461.962 702.951 461.962C710.027 461.962 715.398 460.762 719.063 458.361C722.728 455.96 724.56 452.548 724.56 448.125C724.56 444.081 723.107 440.921 720.2 438.647C717.294 436.372 713.25 434.413 708.069 432.771C702.887 431.001 696.759 429.106 689.682 427.084C681.215 424.683 674.138 422.029 668.452 419.123C662.765 416.09 658.531 412.299 655.751 407.749C652.971 403.2 651.581 397.513 651.581 390.689C651.581 381.464 653.729 373.756 658.026 367.563C662.449 361.245 668.388 356.506 675.844 353.347C683.3 350.061 691.577 348.418 700.676 348.418C706.995 348.418 712.934 349.113 718.494 350.503C724.181 351.893 729.489 353.726 734.417 356C739.345 358.275 743.768 360.739 747.686 363.393L736.123 384.623Z" fill="#1C7BD4"/>
<path d="M526.659 484.519C520.088 484.519 514.022 483.256 508.462 480.728C503.028 478.074 498.289 474.41 494.245 469.734C490.328 465.058 487.295 459.687 485.147 453.622C482.998 447.556 481.924 441.111 481.924 434.287C481.924 427.084 483.062 420.386 485.336 414.194C487.611 408.002 490.77 402.568 494.814 397.892C498.984 393.09 503.85 389.425 509.41 386.898C515.097 384.244 521.352 382.917 528.176 382.917C535.884 382.917 542.645 384.687 548.458 388.225C554.271 391.637 559.074 396.249 562.865 402.062V384.623H585.043V479.212C585.043 489.069 582.642 497.472 577.839 504.423C573.164 511.499 566.656 516.87 558.315 520.535C549.975 524.326 540.497 526.221 529.882 526.221C519.14 526.221 510.042 524.389 502.586 520.724C495.13 517.186 488.748 512.131 483.441 505.56L497.278 492.101C501.069 496.777 505.808 500.442 511.495 503.096C517.308 505.749 523.437 507.076 529.882 507.076C535.316 507.076 540.244 506.065 544.667 504.043C549.217 502.148 552.818 499.115 555.472 494.945C558.252 490.901 559.642 485.657 559.642 479.212V466.701C556.357 472.388 551.681 476.811 545.615 479.97C539.676 483.003 533.357 484.519 526.659 484.519ZM535.189 464.237C537.97 464.237 540.623 463.794 543.151 462.91C545.678 462.025 548.016 460.825 550.164 459.308C552.313 457.792 554.208 456.023 555.851 454.001C557.494 451.852 558.758 449.704 559.642 447.556V423.861C558.126 419.944 555.977 416.532 553.197 413.625C550.543 410.719 547.511 408.507 544.099 406.991C540.813 405.348 537.338 404.527 533.673 404.527C529.756 404.527 526.217 405.348 523.058 406.991C519.899 408.634 517.182 410.972 514.907 414.005C512.632 416.911 510.863 420.197 509.599 423.861C508.462 427.4 507.893 431.128 507.893 435.045C507.893 439.089 508.588 442.88 509.979 446.419C511.369 449.957 513.264 453.053 515.665 455.707C518.193 458.361 521.099 460.446 524.385 461.962C527.797 463.479 531.398 464.237 535.189 464.237Z" fill="#000144"/>
<path d="M386.132 409.265H373.052V389.931H386.132V383.865C386.132 378.305 387.016 373.123 388.785 368.321C390.681 363.519 393.335 359.286 396.747 355.621C400.285 351.83 404.519 348.923 409.447 346.902C414.502 344.753 420.188 343.679 426.507 343.679C431.309 343.679 435.795 344.185 439.965 345.196C444.262 346.206 448.306 347.66 452.097 349.555C456.014 351.451 459.742 353.599 463.281 356L453.234 374.956C449.949 372.049 446.094 369.711 441.671 367.942C437.248 366.173 432.762 365.288 428.213 365.288C424.548 365.288 421.452 366.11 418.925 367.753C416.397 369.395 414.502 371.544 413.238 374.198C412.101 376.851 411.532 379.758 411.532 382.917V389.931H464.797V483.95H439.397V409.265H411.532V483.95H386.132V409.265Z" fill="#000144"/>
<path d="M358.535 483.951H333.135V428.221C333.135 420.26 331.745 414.447 328.965 410.782C326.184 407.117 322.33 405.285 317.402 405.285C313.99 405.285 310.515 406.17 306.976 407.939C303.564 409.708 300.468 412.172 297.688 415.331C294.908 418.364 292.886 421.903 291.622 425.947V483.951H266.222V384.623H289.158V403.01C291.685 398.714 294.908 395.112 298.825 392.206C302.743 389.173 307.229 386.898 312.284 385.382C317.465 383.739 322.899 382.917 328.586 382.917C334.778 382.917 339.832 384.055 343.75 386.329C347.794 388.478 350.827 391.447 352.849 395.238C354.997 398.903 356.45 403.073 357.208 407.749C358.093 412.425 358.535 417.164 358.535 421.966V483.951Z" fill="#000144"/>
<path d="M197.139 485.846C189.051 485.846 181.785 484.519 175.34 481.865C168.895 479.085 163.398 475.294 158.849 470.492C154.426 465.69 151.014 460.193 148.613 454.001C146.212 447.809 145.011 441.301 145.011 434.477C145.011 427.526 146.212 420.955 148.613 414.763C151.014 408.571 154.426 403.073 158.849 398.271C163.398 393.469 168.895 389.741 175.34 387.088C181.785 384.307 189.051 382.917 197.139 382.917C205.227 382.917 212.43 384.307 218.748 387.088C225.193 389.741 230.69 393.469 235.24 398.271C239.789 403.073 243.201 408.571 245.476 414.763C247.877 420.955 249.077 427.526 249.077 434.477C249.077 441.301 247.877 447.809 245.476 454.001C243.201 460.193 239.789 465.69 235.24 470.492C230.817 475.294 225.383 479.085 218.938 481.865C212.493 484.519 205.227 485.846 197.139 485.846ZM171.17 434.477C171.17 440.29 172.307 445.471 174.582 450.02C176.857 454.443 179.953 457.918 183.87 460.446C187.788 462.973 192.211 464.237 197.139 464.237C201.941 464.237 206.301 462.973 210.218 460.446C214.136 457.792 217.232 454.254 219.507 449.831C221.908 445.281 223.108 440.1 223.108 434.287C223.108 428.6 221.908 423.482 219.507 418.933C217.232 414.384 214.136 410.845 210.218 408.318C206.301 405.79 201.941 404.527 197.139 404.527C192.211 404.527 187.788 405.854 183.87 408.507C179.953 411.035 176.857 414.573 174.582 419.123C172.307 423.545 171.17 428.663 171.17 434.477Z" fill="#000144"/>
<path d="M16 415.711C16 407.496 17.4533 399.472 20.3598 391.637C23.3927 383.676 27.7525 376.472 33.4391 370.028C39.1258 363.456 46.0762 358.275 54.2903 354.484C62.5043 350.567 71.8558 348.608 82.3445 348.608C94.7288 348.608 105.407 351.325 114.379 356.759C123.478 362.193 130.239 369.269 134.662 377.989L114.569 391.827C112.294 386.772 109.325 382.791 105.66 379.884C101.995 376.852 98.0776 374.766 93.9074 373.629C89.7372 372.365 85.6301 371.734 81.5863 371.734C75.015 371.734 69.2652 373.06 64.3367 375.714C59.5346 378.368 55.4908 381.843 52.2051 386.14C48.9195 390.436 46.4553 395.239 44.8125 400.546C43.296 405.854 42.5378 411.161 42.5378 416.469C42.5378 422.408 43.4856 428.158 45.3811 433.718C47.2767 439.152 49.9305 444.018 53.3425 448.314C56.8808 452.484 61.0511 455.833 65.8532 458.361C70.7816 460.762 76.1523 461.962 81.9654 461.962C86.1356 461.962 90.369 461.267 94.6656 459.877C98.9622 458.487 102.943 456.275 106.608 453.243C110.272 450.21 113.116 446.292 115.138 441.49L136.557 453.811C133.904 460.509 129.544 466.196 123.478 470.871C117.539 475.547 110.841 479.085 103.385 481.486C95.9293 483.887 88.5367 485.088 81.2072 485.088C71.603 485.088 62.8203 483.129 54.8589 479.212C46.8976 475.168 40.0104 469.86 34.1973 463.289C28.5107 456.591 24.0245 449.136 20.7389 440.921C17.5796 432.581 16 424.177 16 415.711Z" fill="#000144"/>
</svg>
