<svg xmlns="http://www.w3.org/2000/svg" width="1805" height="512" fill="none" xmlns:v="https://vecta.io/nano"><path d="M109.802 1.812L30.055 40.221c-2.478 1.192-4.655 2.927-6.371 5.076s-2.925 4.657-3.538 7.338L.456 138.938c-.609 2.678-.607 5.459.005 8.137s1.819 5.183 3.531 7.331l55.194 69.221a18.3 18.3 0 0 0 6.369 5.062c2.476 1.189 5.187 1.805 7.933 1.803h88.523c2.746.002 5.457-.614 7.933-1.803s4.652-2.918 6.369-5.062l55.193-69.221c1.712-2.148 2.919-4.653 3.531-7.331s.614-5.459.005-8.137l-19.702-86.303a18.31 18.31 0 0 0-9.897-12.414L125.682 1.812C123.205.619 120.491 0 117.742 0s-5.463.619-7.94 1.812h0z" fill="#1c7bd4"/><path d="M202.637 126.477c-1.655-3.585-4.034-6.789-6.987-9.41a28.6 28.6 0 0 0-10.175-5.818c-.38-.062-.72-.271-.947-.581s-.322-.698-.266-1.078a30.91 30.91 0 0 0-.309-4.245 29.06 29.06 0 0 0-7.474-15.224 29.07 29.07 0 0 0-14.7-8.46c-2.288-.515-5.16 0-6.487-2.883a6.27 6.27 0 0 0-1.144-1.487 45.14 45.14 0 0 0-15.16-11.052 38.06 38.06 0 0 0-13.993-3.627c-8.753-.343-17.528-.286-26.315-.378h-9.737c-.881 0-1.762.24-2.643.297-1.842.126-3.81 2.803-3.593 4.577.071 1.177.58 2.284 1.428 3.103a4.72 4.72 0 0 0 3.149 1.324c4.256-.114 8.512 0 12.769 0 .94.084 1.822.492 2.496 1.153a4.09 4.09 0 0 1 1.199 2.474c.355 3.432-2.368 5.057-4.988 5.034-10.812-.092-21.624 0-32.425 0a4.75 4.75 0 0 0-4.359 3.249 4.25 4.25 0 0 0 .068 2.862c.353.917 1.012 1.685 1.866 2.172a7.22 7.22 0 0 0 3.204.938c4.291.103 8.581 0 13.02 0-2.709 6.571-3.883 13.674-3.433 20.767h-1.728-47.116c-.655-.115-1.327-.086-1.97.086a4.58 4.58 0 0 0-2.958 2.465 4.58 4.58 0 0 0-.439 1.922c-.005.665.135 1.323.41 1.928s.679 1.144 1.183 1.577a4.58 4.58 0 0 0 1.737.933c.64.181 1.311.221 1.968.116 7.826-.114 15.652-.069 23.478 0 2.174 0 4.199.583 5.172 2.815a4.46 4.46 0 0 1-2.205 5.672 4.46 4.46 0 0 1-2.165.437H33.223a4.63 4.63 0 0 0-1.758.416A4.64 4.64 0 0 0 30 129.608a4.63 4.63 0 0 0-.822 5.08c.253.553.612 1.051 1.057 1.465a4.63 4.63 0 0 0 1.537.95c.57.212 1.176.31 1.784.288h5.057c-.063.938-.063 1.878 0 2.815.272 2.704.758 5.382 1.453 8.009a28.21 28.21 0 0 0 9.382 13.627 27.34 27.34 0 0 0 17.242 6.51h110.216c2.042-.001 4.076-.262 6.053-.778 8.935-2.357 15.617-7.528 19.599-16.018 1.953-3.889 2.976-8.179 2.99-12.53a28.13 28.13 0 0 0-2.91-12.55h0zm-98.236-2.471a2.07 2.07 0 0 1-2.758-.149l-3.432-3.432c-.357-.362-.57-.843-.597-1.351s.132-1.008.448-1.407l2.014-2.54a18.28 18.28 0 0 1-1.671-3.958l-3.192-.367a2.08 2.08 0 0 1-1.305-.683c-.337-.379-.524-.869-.526-1.376v-4.908a2.08 2.08 0 0 1 .526-1.376c.337-.379.801-.622 1.305-.684l3.032-.343c.377-1.51.95-2.964 1.705-4.325l-1.888-2.391a2.07 2.07 0 0 1 .149-2.757l3.432-3.432a2.08 2.08 0 0 1 1.348-.603c.508-.029 1.01.128 1.41.443l2.288 1.796a17.87 17.87 0 0 1 4.576-1.956l.332-2.815a2.07 2.07 0 0 1 2.06-1.842h4.897a2.07 2.07 0 0 1 2.059 1.842l.332 2.815a17.77 17.77 0 0 1 4.508 1.888l2.174-1.728a2.07 2.07 0 0 1 2.757.16l3.432 3.432c.358.362.57.843.598 1.35a2.08 2.08 0 0 1-.449 1.407l-1.773 2.288c.762 1.349 1.347 2.791 1.739 4.291l2.883.331a2.08 2.08 0 0 1 1.842 2.06v4.908c-.002.509-.191 1-.53 1.38a2.08 2.08 0 0 1-1.312.68l-2.917.332a18.07 18.07 0 0 1-1.82 4.336l1.9 2.403c.318.4.477.904.448 1.415a2.08 2.08 0 0 1-.609 1.353l-3.432 3.433c-.359.361-.839.577-1.348.607a2.07 2.07 0 0 1-1.409-.447l-2.437-1.934a17.95 17.95 0 0 1-4.405 1.785l-.366 3.135a2.07 2.07 0 0 1-.682 1.308c-.379.337-.87.523-1.378.523h-4.908a2.08 2.08 0 0 1-1.379-.523c-.379-.338-.622-.803-.681-1.308l-.377-3.249c-1.435-.412-2.814-.996-4.108-1.739l-2.505 1.922zm34.164 21.258a2.05 2.05 0 0 1-.537 1.359c-.34.371-.805.604-1.305.655l-1.362.149c-.289 1.007-.708 1.972-1.247 2.871l.881 1.145a2.05 2.05 0 0 1-.195 2.723l-1.487 1.453c-.359.351-.835.558-1.338.581a2.05 2.05 0 0 1-1.385-.455l-1.144-.927c-.931.506-1.923.891-2.952 1.144l-.183 1.499c-.067.499-.315.956-.697 1.285a2.06 2.06 0 0 1-1.374.5h-2.071c-.505-.006-.99-.197-1.363-.536a2.06 2.06 0 0 1-.662-1.306l-.16-1.579c-.953-.263-1.869-.648-2.723-1.145l-1.225.95c-.399.311-.899.464-1.404.428a2.05 2.05 0 0 1-1.33-.622l-1.453-1.488c-.352-.359-.559-.837-.58-1.339a2.04 2.04 0 0 1 .465-1.384l.984-1.213a11.67 11.67 0 0 1-1.087-2.654l-1.533-.195c-.497-.066-.953-.313-1.281-.692a2.06 2.06 0 0 1-.504-1.367v-2.082a2.05 2.05 0 0 1 .537-1.359c.34-.371.805-.604 1.306-.655l1.43-.149a12.22 12.22 0 0 1 1.144-2.883l-.881-1.144a2.05 2.05 0 0 1 .194-2.723l1.488-1.465a2.06 2.06 0 0 1 2.734-.114l1.019.835a12.56 12.56 0 0 1 3.1-1.27l.16-1.281a2.05 2.05 0 0 1 2.071-1.785h2.071c.505.005.99.196 1.363.536a2.06 2.06 0 0 1 .662 1.306l.126 1.293a11.3 11.3 0 0 1 2.986 1.293l.996-.767c.399-.311.899-.464 1.404-.428s.979.258 1.33.623l1.453 1.487a2.05 2.05 0 0 1 .115 2.723l-.824 1.018a12.18 12.18 0 0 1 1.144 2.872l1.327.172c.5.064.958.309 1.289.689a2.06 2.06 0 0 1 .508 1.37v2.048zm29.667-17.631l-2.059.423a14.86 14.86 0 0 1-1.144 3.661l1.499 1.591a2.04 2.04 0 0 1 .562 1.346c.015.503-.157.993-.482 1.377l-2.186 2.586a2.05 2.05 0 0 1-1.276.709c-.498.072-1.005-.042-1.424-.32l-1.865-1.236a15.07 15.07 0 0 1-3.432 1.762l-.069 2.288a2.06 2.06 0 0 1-.568 1.349c-.348.364-.817.589-1.32.631l-3.375.286a2.05 2.05 0 0 1-1.401-.41c-.401-.303-.676-.744-.773-1.238l-.469-2.288a14.89 14.89 0 0 1-3.432-1.144l-1.877 1.556c-.366.343-.846.54-1.348.552a2.05 2.05 0 0 1-1.375-.484l-2.586-2.185a2.05 2.05 0 0 1-.709-1.276c-.072-.498.042-1.005.32-1.424l1.293-1.945c-.663-.975-1.212-2.023-1.636-3.124l-2.288-.068c-.504-.018-.984-.22-1.348-.568a2.06 2.06 0 0 1-.632-1.32l-.286-3.375a2.06 2.06 0 0 1 .413-1.399c.303-.401.743-.676 1.235-.775l2.128-.447c.227-1.256.611-2.478 1.144-3.638l-1.499-1.59c-.345-.367-.544-.848-.559-1.352s.156-.996.479-1.383l2.186-2.597a2.06 2.06 0 0 1 1.281-.711c.5-.071 1.009.043 1.43.322l1.705 1.144a14.74 14.74 0 0 1 3.638-1.911l.069-2.002c.013-.503.212-.984.558-1.35a2.03 2.03 0 0 1 1.319-.629l3.375-.286c.501-.041 1 .102 1.402.404s.681.739.783 1.232l.401 1.968c1.319.239 2.601.655 3.81 1.236l1.43-1.339a2.05 2.05 0 0 1 1.348-.553c.502-.012.991.16 1.375.484l2.586 2.186c.388.322.641.778.709 1.278a2.02 2.02 0 0 1-.343 1.422l-1.144 1.693a14.54 14.54 0 0 1 1.716 3.432l2.059.069a2.06 2.06 0 0 1 1.98 1.877l.286 3.432c.011.48-.145.949-.441 1.327a2.07 2.07 0 0 1-1.184.744h.011zm-52.124-11.91a9.75 9.75 0 0 1-9.007-6.018c-.737-1.781-.93-3.741-.554-5.632a9.74 9.74 0 0 1 2.668-4.991 9.75 9.75 0 0 1 4.991-2.668c1.891-.376 3.851-.183 5.632.555a9.75 9.75 0 0 1 6.018 9.006c0 2.585-1.027 5.065-2.856 6.893a9.75 9.75 0 0 1-6.892 2.855h0zm0-16.213a6.46 6.46 0 0 0-5.973 3.991 6.47 6.47 0 0 0 1.401 7.045c.905.904 2.056 1.519 3.31 1.769a6.47 6.47 0 0 0 3.735-.368c1.182-.489 2.191-1.318 2.901-2.381a6.46 6.46 0 0 0 1.09-3.591c-.003-1.714-.685-3.356-1.897-4.568s-2.854-1.894-4.567-1.897h0zm35.168 34.004a8.08 8.08 0 0 1-5.539-2.552c-1.442-1.542-2.224-3.588-2.176-5.698a8.08 8.08 0 0 1 8.075-7.898 8.08 8.08 0 0 1 .361 16.148h0-.721zm0-13.272h-.435a4.99 4.99 0 0 0-4.559 3.42c-.213.642-.294 1.32-.237 1.994s.249 1.329.566 1.926.752 1.124 1.278 1.549a5.01 5.01 0 0 0 1.785.92c.651.183 1.332.232 2.002.145h0c1.274-.122 2.453-.727 3.294-1.691a5 5 0 0 0 1.228-3.493c-.053-1.279-.594-2.488-1.511-3.38a5 5 0 0 0-3.423-1.413l.012.023zm-27.777 30.789h-.08a7.09 7.09 0 0 1-4.997-2.099c-1.322-1.333-2.062-3.137-2.057-5.015a7.09 7.09 0 0 1 2.085-5.003c1.33-1.326 3.131-2.07 5.009-2.07s3.679.744 5.009 2.07 2.079 3.125 2.085 5.003a7.09 7.09 0 0 1-7.054 7.114h0zm0-10.812a3.77 3.77 0 0 0-2.084.632c-.617.41-1.1.994-1.388 1.677a3.78 3.78 0 0 0-.231 2.165c.137.729.486 1.401 1.003 1.933a3.74 3.74 0 0 0 2.648 1.134c.494.006.985-.087 1.444-.272a3.74 3.74 0 0 0 1.228-.805 3.78 3.78 0 0 0-.507-5.797 3.76 3.76 0 0 0-2.079-.667h-.034z" fill="#fff"/><path d="M1804.09 95.731c-9.37 0-17.74 1.844-25.12 5.532-7.38 3.534-12.68 8.682-15.9 15.443v73.066h-30.89V68.994h28.35v25.815c4.3-8.298 9.76-14.828 16.37-19.592 6.6-4.764 13.59-7.376 20.97-7.837h3.92c.92 0 1.69.077 2.3.231v28.12zm-153.88 96.346c-9.68 0-18.44-1.613-26.28-4.84-7.84-3.381-14.52-7.914-20.05-13.599-5.53-5.839-9.84-12.447-12.91-19.823-2.92-7.529-4.38-15.443-4.38-23.74 0-11.525 2.54-22.051 7.61-31.578 5.22-9.527 12.6-17.133 22.12-22.819 9.68-5.839 21.06-8.759 34.12-8.759 13.21 0 24.51 2.92 33.88 8.759 9.37 5.686 16.52 13.292 21.44 22.819 5.07 9.374 7.6 19.515 7.6 30.425 0 1.844-.08 3.765-.23 5.762-.15 1.844-.31 3.381-.46 4.61h-93.35c.62 6.147 2.38 11.525 5.3 16.135 3.08 4.61 6.92 8.144 11.53 10.602 4.76 2.305 9.83 3.458 15.21 3.458a35.68 35.68 0 0 0 17.29-4.38c5.53-3.073 9.29-7.068 11.29-11.985l26.51 7.376c-2.92 6.146-7.15 11.601-12.68 16.365-5.38 4.763-11.76 8.528-19.13 11.294-7.38 2.612-15.52 3.918-24.43 3.918zm-31.58-72.374h63.15c-.61-6.147-2.38-11.448-5.3-15.904-2.76-4.61-6.45-8.145-11.06-10.603-4.61-2.612-9.76-3.918-15.44-3.918-5.54 0-10.61 1.306-15.22 3.918-4.45 2.459-8.14 5.993-11.06 10.603-2.77 4.456-4.46 9.757-5.07 15.904zm-97.17 72.374c-9.83 0-18.67-1.613-26.51-4.84-7.83-3.381-14.52-7.991-20.05-13.83a67.18 67.18 0 0 1-12.91-20.283c-2.92-7.53-4.38-15.443-4.38-23.741 0-11.371 2.54-21.743 7.61-31.116 5.22-9.527 12.6-17.133 22.13-22.819 9.52-5.685 20.82-8.528 33.88-8.528s24.28 2.843 33.65 8.528 16.37 13.138 20.98 22.358l-30.2 9.219c-2.61-4.456-6.07-7.836-10.37-10.141-4.3-2.459-9.07-3.688-14.29-3.688-5.84 0-11.22 1.537-16.14 4.61-4.76 2.919-8.52 7.145-11.29 12.677-2.77 5.378-4.15 11.678-4.15 18.9 0 7.069 1.38 13.369 4.15 18.901 2.92 5.378 6.76 9.68 11.52 12.907 4.77 3.073 10.07 4.61 15.91 4.61 3.69 0 7.14-.615 10.37-1.844 3.38-1.229 6.38-2.92 8.99-5.071s4.53-4.61 5.76-7.376l30.2 9.22c-2.77 5.993-6.84 11.371-12.22 16.135-5.22 4.763-11.45 8.528-18.67 11.294-7.07 2.612-15.06 3.918-23.97 3.918zm-83.09-2.305h-30.89v-67.765c0-9.68-1.69-16.749-5.07-21.205s-8.07-6.684-14.06-6.684c-4.15 0-8.37 1.076-12.68 3.227-4.15 2.151-7.91 5.147-11.29 8.989-3.38 3.688-5.84 7.99-7.38 12.908v70.53h-30.88V68.994h27.89v22.358c3.07-5.225 6.99-9.604 11.75-13.138 4.77-3.688 10.22-6.454 16.37-8.298 6.3-1.998 12.9-2.996 19.82-2.996 7.53 0 13.67 1.383 18.44 4.149 4.92 2.612 8.6 6.223 11.06 10.833 2.61 4.456 4.38 9.527 5.3 15.213a92.43 92.43 0 0 1 1.62 17.287v75.371zm-236.45 23.51l7.61 1.614c2.46.461 4.53.691 6.22.691 2.92 0 5.3-.768 7.15-2.305 2-1.383 3.92-3.995 5.76-7.837 1.84-3.687 3.77-8.912 5.76-15.673l-47.71-120.778h32.04l32.5 89.201 28.58-89.201h29.5l-50.71 144.749c-1.84 5.378-4.68 10.219-8.52 14.521-3.69 4.456-8.38 7.914-14.06 10.372-5.54 2.613-11.76 3.919-18.67 3.919-2.46 0-4.92-.231-7.38-.692-2.46-.307-5.15-.922-8.07-1.844v-26.737zm-39.57-144.288c-1.07-1.076-3.07-2.535-5.99-4.379-2.76-1.844-6.22-3.611-10.37-5.301-4-1.69-8.38-3.15-13.14-4.379-4.76-1.383-9.6-2.075-14.52-2.075-8.61 0-15.14 1.614-19.59 4.84-4.3 3.227-6.46 7.76-6.46 13.599 0 4.456 1.39 7.99 4.15 10.603 2.77 2.612 6.92 4.84 12.45 6.684s12.45 3.842 20.74 5.993c10.76 2.612 20.06 5.839 27.89 9.68 7.99 3.688 14.06 8.605 18.21 14.752 4.3 5.993 6.46 13.983 6.46 23.971 0 8.759-1.62 16.288-4.84 22.588-3.23 6.147-7.69 11.141-13.37 14.982-5.69 3.842-12.14 6.685-19.36 8.528-7.23 1.691-14.91 2.536-23.05 2.536-8.15 0-16.29-.845-24.44-2.536-8.14-1.69-15.98-4.072-23.51-7.145-7.53-3.227-14.44-7.068-20.74-11.524l14.06-27.429c1.38 1.383 3.84 3.227 7.38 5.532 3.53 2.151 7.83 4.379 12.9 6.684 5.07 2.151 10.61 3.995 16.6 5.532s12.06 2.305 18.21 2.305c8.6 0 15.13-1.46 19.59-4.379s6.68-7.069 6.68-12.447c0-4.917-1.76-8.759-5.3-11.525-3.53-2.766-8.45-5.147-14.75-7.145-6.3-2.151-13.75-4.456-22.36-6.915-10.29-2.919-18.9-6.146-25.81-9.68-6.92-3.688-12.06-8.298-15.44-13.83-3.39-5.532-5.08-12.446-5.08-20.744 0-11.217 2.62-20.591 7.84-28.12 5.38-7.683 12.6-13.445 21.67-17.287 9.06-3.995 19.13-5.993 30.19-5.993 7.68 0 14.91.845 21.67 2.535 6.91 1.69 13.37 3.918 19.36 6.684s11.37 5.762 16.13 8.989l-14.06 25.815z" fill="#1c7bd4"/><path d="M907.653 190.463c-7.99 0-15.366-1.536-22.127-4.609-6.608-3.227-12.37-7.683-17.287-13.369-4.764-5.685-8.452-12.216-11.064-19.592s-3.918-15.212-3.918-23.51c0-8.759 1.383-16.903 4.149-24.432s6.607-14.137 11.524-19.822c5.071-5.839 10.987-10.295 17.748-13.369 6.915-3.227 14.521-4.84 22.819-4.84 9.373 0 17.594 2.151 24.663 6.454 7.068 4.149 12.907 9.757 17.517 16.826V68.994h26.968V184.01c0 11.985-2.92 22.204-8.759 30.655-5.686 8.605-13.599 15.136-23.741 19.592-10.142 4.61-21.666 6.915-34.574 6.915-13.061 0-24.125-2.228-33.191-6.685-9.066-4.302-16.825-10.449-23.279-18.439l16.826-16.365c4.61 5.686 10.372 10.142 17.287 13.369 7.068 3.227 14.521 4.84 22.357 4.84 6.608 0 12.601-1.229 17.979-3.688 5.532-2.305 9.911-5.993 13.138-11.063 3.38-4.918 5.071-11.295 5.071-19.131v-15.213c-3.996 6.915-9.681 12.293-17.057 16.135-7.222 3.688-14.905 5.531-23.049 5.531zm10.372-24.662c3.381 0 6.608-.538 9.681-1.614s5.916-2.535 8.528-4.379a34.5 34.5 0 0 0 6.915-6.454c1.997-2.612 3.534-5.224 4.61-7.837v-28.811c-1.844-4.764-4.457-8.912-7.837-12.447-3.227-3.534-6.915-6.223-11.064-8.067-3.995-1.998-8.221-2.996-12.677-2.996-4.763 0-9.066.999-12.907 2.996s-7.146 4.841-9.912 8.528c-2.765 3.535-4.917 7.53-6.453 11.986-1.383 4.303-2.075 8.836-2.075 13.599 0 4.917.845 9.527 2.536 13.83s3.995 8.067 6.914 11.294a34.49 34.49 0 0 0 10.603 7.606c4.149 1.844 8.528 2.766 13.138 2.766zM736.779 98.958h-15.904v-23.51h15.904v-7.376c0-6.761 1.076-13.061 3.227-18.9 2.305-5.839 5.532-10.987 9.681-15.443 4.302-4.61 9.45-8.144 15.443-10.603 6.146-2.612 13.061-3.918 20.744-3.918 5.839 0 11.294.615 16.365 1.844 5.224 1.229 10.141 2.996 14.751 5.301a107.69 107.69 0 0 1 13.599 7.837l-12.216 23.049c-3.995-3.534-8.682-6.377-14.06-8.528s-10.833-3.227-16.365-3.227c-4.456 0-8.221.999-11.294 2.996s-5.378 4.61-6.915 7.837c-1.383 3.227-2.074 6.761-2.074 10.603v8.528h64.768v114.324h-30.886V98.958h-33.882v90.814h-30.886V98.958zm-33.556 90.814h-30.886v-67.765c0-9.68-1.69-16.749-5.07-21.205s-8.068-6.684-14.06-6.684c-4.149 0-8.375 1.076-12.678 3.227-4.148 2.151-7.913 5.147-11.294 8.989-3.38 3.688-5.839 7.99-7.375 12.907v70.531h-30.886V68.994h27.889v22.358c3.073-5.225 6.992-9.604 11.755-13.138 4.764-3.688 10.219-6.454 16.365-8.298 6.3-1.998 12.908-2.996 19.823-2.996 7.529 0 13.675 1.383 18.439 4.149 4.917 2.612 8.605 6.223 11.064 10.833 2.612 4.456 4.379 9.527 5.301 15.212a92.85 92.85 0 0 1 1.613 17.287v75.371zm-196.254 2.305c-9.834 0-18.67-1.614-26.506-4.84-7.837-3.381-14.521-7.991-20.053-13.83-5.378-5.839-9.527-12.523-12.447-20.053s-4.379-15.443-4.379-23.74c0-8.452 1.46-16.442 4.379-23.972s7.069-14.213 12.447-20.052c5.532-5.839 12.216-10.372 20.053-13.599 7.836-3.381 16.672-5.071 26.506-5.071s18.593 1.69 26.276 5.071c7.837 3.227 14.521 7.76 20.053 13.599a57.89 57.89 0 0 1 12.447 20.052c2.919 7.53 4.379 15.52 4.379 23.972 0 8.297-1.46 16.211-4.379 23.74-2.766 7.53-6.915 14.214-12.447 20.053-5.378 5.839-11.985 10.449-19.822 13.83-7.837 3.226-16.672 4.84-26.507 4.84zm-31.577-62.463c0 7.068 1.383 13.368 4.149 18.9 2.766 5.378 6.53 9.604 11.294 12.677s10.142 4.61 16.134 4.61c5.839 0 11.141-1.537 15.904-4.61 4.764-3.227 8.528-7.529 11.294-12.908 2.92-5.531 4.38-11.832 4.38-18.9 0-6.915-1.46-13.138-4.38-18.67-2.766-5.532-6.53-9.834-11.294-12.907s-10.065-4.61-15.904-4.61c-5.992 0-11.371 1.613-16.134 4.84-4.764 3.073-8.528 7.376-11.294 12.908-2.766 5.378-4.149 11.601-4.149 18.67zm-188.678-22.819c0-9.988 1.767-19.746 5.301-29.273 3.688-9.681 8.989-18.439 15.904-26.276 6.915-7.99 15.366-14.29 25.354-18.9 9.988-4.764 21.359-7.145 34.113-7.145 15.059 0 28.043 3.304 38.953 9.911 11.064 6.607 19.285 15.212 24.663 25.815L406.57 77.753c-2.766-6.147-6.377-10.987-10.833-14.521-4.457-3.688-9.22-6.223-14.291-7.606-5.071-1.537-10.065-2.305-14.982-2.305-7.99 0-14.982 1.613-20.975 4.84-5.839 3.227-10.756 7.453-14.751 12.677s-6.992 11.064-8.989 17.517c-1.844 6.454-2.766 12.907-2.766 19.361 0 7.222 1.152 14.214 3.457 20.975 2.305 6.607 5.532 12.523 9.681 17.748 4.302 5.07 9.373 9.142 15.212 12.216 5.993 2.919 12.524 4.379 19.592 4.379 5.071 0 10.219-.845 15.443-2.535s10.065-4.38 14.521-8.068 7.914-8.451 10.372-14.29l26.046 14.982c-3.227 8.144-8.528 15.059-15.904 20.744-7.222 5.686-15.366 9.988-24.432 12.908s-18.055 4.379-26.968 4.379c-11.678 0-22.358-2.382-32.038-7.145-9.681-4.917-18.055-11.371-25.124-19.362-6.915-8.144-12.37-17.21-16.365-27.198-3.841-10.141-5.762-20.36-5.762-30.655z" fill="#000144"/><path d="M1736.62 449.313l32.64-108.269h31.85l-48.84 140.231c-1.13 3.002-2.59 6.265-4.39 9.792-1.73 3.526-4.06 6.865-6.98 10.016-2.93 3.227-6.6 5.853-11.03 7.878-4.35 2.026-9.64 3.039-15.87 3.039-2.7 0-5.1-.187-7.2-.563s-4.32-.862-6.64-1.463V487.69c.75.075 1.61.113 2.59.113 1.05.075 1.95.113 2.7.113 4.35 0 7.95-.526 10.8-1.576 2.85-.976 5.14-2.589 6.87-4.84 1.8-2.175 3.3-5.027 4.5-8.553l9-23.634zm-16.09-108.269l27.57 89.699 4.84 31.4-20.48 3.714-44.01-124.813h32.08zm-115.45 0v21.384h-69.78v-21.384h69.78zm-51.1-29.937h29.82v116.597c0 3.601.49 6.377 1.47 8.328.97 1.951 2.44 3.264 4.39 3.939s4.27 1.013 6.97 1.013c1.96 0 3.76-.113 5.41-.338l4.16-.675.11 22.284c-2.47.825-5.29 1.501-8.44 2.026-3.07.525-6.56.788-10.46.788-6.68 0-12.53-1.126-17.56-3.377-5.03-2.326-8.93-6.04-11.71-11.142-2.77-5.177-4.16-12.005-4.16-20.483v-118.96zm-110.95 29.937v121.774h-29.82V341.044h29.82zm-31.85-31.85c0-4.427 1.5-8.103 4.5-11.03 3.08-2.926 7.2-4.389 12.38-4.389s9.27 1.463 12.27 4.389c3.08 2.927 4.61 6.603 4.61 11.03 0 4.352-1.53 7.991-4.61 10.917-3 2.926-7.09 4.389-12.27 4.389s-9.3-1.463-12.38-4.389c-3-2.926-4.5-6.565-4.5-10.917zm-175.33 57.848v95.776h-29.71V341.044h27.91l1.8 25.998zm-4.72 30.5h-8.78c.07-8.854 1.27-16.882 3.6-24.085s5.59-13.393 9.79-18.57c4.28-5.177 9.34-9.153 15.2-11.93 5.85-2.776 12.38-4.164 19.58-4.164 5.85 0 11.14.826 15.87 2.476 4.72 1.651 8.78 4.277 12.15 7.878 3.45 3.602 6.08 8.329 7.88 14.181 1.88 5.777 2.81 12.905 2.81 21.384v78.106h-29.93v-78.331c0-5.553-.83-9.942-2.48-13.168-1.57-3.226-3.9-5.515-6.98-6.865-3-1.351-6.71-2.026-11.14-2.026-4.58 0-8.59.938-12.04 2.813-3.38 1.801-6.23 4.315-8.55 7.541-2.26 3.226-3.98 6.94-5.18 11.142s-1.8 8.741-1.8 13.618zm-156.77 36.352v-92.85h29.94v121.774h-28.13l-1.81-28.924zm3.83-25.21l9.23-.225c0 8.178-.9 15.719-2.7 22.621s-4.62 12.905-8.44 18.007c-3.75 5.028-8.52 8.967-14.3 11.818-5.77 2.776-12.6 4.164-20.48 4.164-6 0-11.48-.825-16.43-2.476-4.95-1.726-9.23-4.389-12.83-7.991-3.53-3.676-6.27-8.366-8.22-14.068-1.95-5.777-2.92-12.718-2.92-20.821v-78.669h29.71v78.894c0 4.052.45 7.428 1.35 10.129.98 2.701 2.29 4.915 3.94 6.641a15.67 15.67 0 0 0 5.96 3.601c2.33.675 4.81 1.013 7.43 1.013 7.2 0 12.87-1.426 17-4.277 4.2-2.926 7.2-6.828 9-11.704 1.8-4.952 2.7-10.505 2.7-16.657zm-323.098-42.655v96.789H725.38V341.044h28.024l1.688 24.985zm-4.389 31.513h-9.117c0-8.479 1.013-16.282 3.039-23.41 2.101-7.127 5.177-13.317 9.229-18.569 4.051-5.328 9.041-9.454 14.968-12.38 6.003-2.927 12.943-4.39 20.821-4.39 5.477 0 10.504.826 15.081 2.476 4.577 1.576 8.516 4.089 11.817 7.541 3.377 3.376 5.965 7.803 7.766 13.28 1.801 5.402 2.701 11.892 2.701 19.47v81.258h-29.712v-78.219c0-5.702-.825-10.166-2.476-13.393-1.575-3.226-3.864-5.477-6.865-6.752-3.001-1.351-6.603-2.026-10.804-2.026-4.652 0-8.666.938-12.043 2.813-3.301 1.801-6.04 4.315-8.216 7.541-2.1 3.226-3.676 6.94-4.726 11.142-.976 4.202-1.463 8.741-1.463 13.618zm74.054-5.515l-12.267 2.251c.075-7.653 1.125-14.818 3.151-21.496 2.026-6.753 4.989-12.643 8.891-17.67 3.977-5.102 8.891-9.078 14.743-11.929 5.928-2.927 12.755-4.39 20.484-4.39 6.002 0 11.404.863 16.206 2.589 4.877 1.651 9.041 4.314 12.493 7.991 3.451 3.601 6.077 8.29 7.878 14.068 1.875 5.777 2.813 12.83 2.813 21.158v78.219h-29.937v-78.331c0-5.928-.825-10.467-2.476-13.618-1.575-3.152-3.864-5.327-6.865-6.528-3.001-1.275-6.527-1.913-10.579-1.913-4.127 0-7.728.788-10.804 2.363-3.002 1.501-5.553 3.602-7.653 6.303-2.026 2.701-3.564 5.852-4.615 9.454-.975 3.526-1.463 7.352-1.463 11.479zm-346.056-25.998v96.789h-29.712V341.044h28.024l1.688 24.985zm-4.389 31.513h-9.116c0-8.479 1.013-16.282 3.038-23.41 2.101-7.127 5.178-13.317 9.229-18.569 4.052-5.328 9.041-9.454 14.969-12.38 6.002-2.927 12.942-4.39 20.82-4.39 5.478 0 10.505.826 15.081 2.476 4.577 1.576 8.516 4.089 11.818 7.541 3.376 3.376 5.965 7.803 7.765 13.28 1.801 5.402 2.701 11.892 2.701 19.47v81.258h-29.712v-78.219c0-5.702-.825-10.166-2.475-13.393-1.576-3.226-3.865-5.477-6.866-6.752-3.001-1.351-6.602-2.026-10.804-2.026-4.652 0-8.666.938-12.042 2.813-3.302 1.801-6.04 4.315-8.216 7.541-2.101 3.226-3.677 6.94-4.727 11.142-.975 4.202-1.463 8.741-1.463 13.618zm74.054-5.515l-12.267 2.251c.075-7.653 1.126-14.818 3.151-21.496 2.026-6.753 4.99-12.643 8.891-17.67 3.977-5.102 8.891-9.078 14.744-11.929 5.927-2.927 12.755-4.39 20.483-4.39 6.002 0 11.405.863 16.206 2.589 4.877 1.651 9.042 4.314 12.493 7.991 3.451 3.601 6.077 8.29 7.878 14.068 1.876 5.777 2.814 12.83 2.814 21.158v78.219h-29.937v-78.331c0-5.928-.826-10.467-2.476-13.618-1.576-3.152-3.864-5.327-6.866-6.528-3.001-1.275-6.527-1.913-10.579-1.913-4.126 0-7.728.788-10.804 2.363-3.001 1.501-5.552 3.602-7.653 6.303-2.026 2.701-3.564 5.852-4.614 9.454-.976 3.526-1.464 7.352-1.464 11.479zm-311.168 11.142v-2.363c0-8.929 1.276-17.145 3.827-24.648 2.551-7.578 6.265-14.143 11.142-19.695s10.842-9.867 17.894-12.943c7.053-3.151 15.081-4.727 24.085-4.727 9.154 0 17.257 1.576 24.31 4.727 7.128 3.076 13.13 7.391 18.007 12.943s8.591 12.117 11.142 19.695c2.551 7.503 3.826 15.719 3.826 24.648v2.363c0 8.854-1.275 17.069-3.826 24.647-2.551 7.503-6.265 14.069-11.142 19.696-4.877 5.552-10.842 9.866-17.895 12.942s-15.118 4.615-24.197 4.615c-9.004 0-17.069-1.538-24.197-4.615s-13.13-7.39-18.007-12.942c-4.877-5.627-8.591-12.193-11.142-19.696-2.551-7.578-3.827-15.793-3.827-24.647zm29.712-2.363v2.363c0 5.327.525 10.317 1.576 14.969s2.663 8.741 4.839 12.267 4.99 6.302 8.441 8.328c3.526 1.951 7.728 2.926 12.605 2.926 4.802 0 8.929-.975 12.38-2.926 3.451-2.026 6.265-4.802 8.441-8.328 2.251-3.526 3.901-7.616 4.952-12.267s1.576-9.642 1.576-14.969v-2.363c0-5.252-.526-10.167-1.576-14.744-1.051-4.652-2.701-8.741-4.952-12.267-2.176-3.602-5.027-6.415-8.554-8.441-3.451-2.101-7.615-3.151-12.492-3.151-4.802 0-8.929 1.05-12.38 3.151-3.451 2.026-6.265 4.839-8.441 8.441-2.176 3.526-3.789 7.615-4.839 12.267-1.051 4.577-1.576 9.492-1.576 14.744zm-153.155 8.103h30.95c-.825 10.954-3.864 20.67-9.116 29.149-5.252 8.403-12.568 15.006-21.946 19.808s-20.746 7.203-34.102 7.203c-10.279 0-19.545-1.801-27.799-5.403-8.178-3.676-15.194-8.891-21.046-15.643-5.777-6.828-10.204-15.006-13.28-24.535-3.076-9.604-4.614-20.371-4.614-32.301v-12.492c0-11.93 1.576-22.697 4.727-32.3s7.653-17.783 13.505-24.535a60.37 60.37 0 0 1 21.271-15.757c8.328-3.676 17.632-5.514 27.911-5.514 13.355 0 24.647 2.476 33.876 7.428 9.228 4.877 16.394 11.592 21.496 20.145s8.178 18.383 9.229 29.487h-30.95c-.601-6.903-2.101-12.755-4.502-17.557a23.67 23.67 0 0 0-10.579-10.917c-4.652-2.551-10.842-3.826-18.57-3.826-6.002 0-11.292 1.125-15.869 3.376-4.502 2.251-8.253 5.627-11.255 10.129-3.001 4.427-5.252 9.979-6.753 16.657-1.501 6.602-2.251 14.255-2.251 22.959v12.717c0 8.329.675 15.794 2.026 22.397s3.451 12.192 6.303 16.769 6.528 8.066 11.029 10.467 9.866 3.601 16.094 3.601c7.578 0 13.731-1.2 18.457-3.601 4.802-2.401 8.441-5.928 10.917-10.579 2.551-4.652 4.164-10.43 4.839-17.332z" fill="#00a651"/></svg>