<svg width="332" height="92" viewBox="0 0 332 92" fill="none" xmlns="http://www.w3.org/2000/svg">
<path d="M232.824 85.6979C232.774 85.8772 232.664 86.0342 232.513 86.143C232.363 86.2518 232.179 86.306 231.993 86.2965C231.501 86.2965 231.124 85.9972 230.708 85.7682C230.657 85.7422 230.614 85.7046 230.581 85.6585C230.549 85.6125 230.527 85.5593 230.519 85.5033C230.519 85.3148 230.633 85.1262 230.708 84.9361C230.782 84.7461 230.857 84.5216 230.935 84.3375C231.088 83.9248 231.265 83.5211 231.463 83.1284C231.691 82.6375 231.879 82.1841 232.105 81.6932C232.37 81.1261 232.635 80.5978 232.861 80.0306C233.16 79.432 233.46 78.8215 233.768 78.1795C233.805 78.1046 233.843 78.0298 233.882 77.9535C234.48 76.7069 235.089 75.4214 235.694 74.1748C236.143 73.2306 236.526 72.2489 236.903 71.2672C237.129 70.6252 237.431 69.9832 237.319 69.3023C237.243 68.8114 236.828 68.5465 236.677 68.0931C236.412 67.3448 238.187 67.2999 238.603 67.2251C239.245 67.1488 239.887 67.0755 240.529 67.0366C241.02 66.9977 241.55 66.9977 242.041 66.9977C242.457 66.9977 242.985 66.9602 243.325 67.1877C243.741 67.4511 243.741 68.132 243.815 68.5854C243.929 69.3239 244.005 70.0676 244.043 70.8137C244.08 71.2297 244.08 71.6443 244.08 72.0977C244.118 73.4206 244.157 74.742 244.157 76.0649V78.8215C244.157 81.0123 244.345 82.5238 244.722 83.4307C244.872 83.7704 245.022 83.9215 245.138 83.9215C245.428 83.904 245.711 83.8266 245.969 83.6941C246.147 83.6032 246.312 83.4889 246.46 83.3544C246.609 83.2795 246.759 83.1658 246.909 83.3544C247.022 83.4681 247.058 83.6536 247.136 83.7704C247.214 83.8871 247.325 83.9964 247.286 84.1475C247.247 84.2986 247.096 84.375 246.986 84.4468L246.538 84.7865C246.237 85.008 245.922 85.208 245.593 85.3851C245.412 85.4892 245.222 85.5778 245.026 85.65C244.307 86.0023 243.521 86.1957 242.721 86.2171C242.343 86.2011 241.97 86.1112 241.626 85.9523C241.3 85.8327 241.012 85.6256 240.795 85.3537C240.153 84.5605 240.002 83.4651 239.926 82.4834V81.4628C239.933 81.2222 239.958 80.9826 240.002 80.746C240.04 80.5185 240.152 80.2536 240.04 80.0276C239.965 79.8391 239.74 79.8002 239.549 79.7628C238.377 79.6939 237.202 79.7195 236.035 79.8391C235.586 79.8765 235.016 79.8391 234.714 80.2536C234.488 80.5529 234.374 81.0468 234.223 81.4254C234.034 81.8743 233.844 82.3322 233.693 82.8231C233.581 83.088 233.505 83.3514 233.394 83.6162C233.28 83.9155 233.166 84.2582 233.053 84.5605C233.025 84.9478 232.948 85.33 232.824 85.6979ZM240.156 78.2154L240.194 75.1176C240.194 72.3985 240.08 70.5473 239.854 69.6031C239.74 69.5922 239.624 69.6049 239.514 69.6405C239.024 71.0008 238.531 72.1725 238.117 73.1542C237.668 74.0985 237.21 75.1176 236.682 76.2131C236.189 77.3085 235.85 77.9894 235.737 78.2543L240.156 78.2154V78.2154Z" fill="white"/>
<path d="M247.859 74.6286C247.973 74.5912 248.087 74.5912 248.199 74.5538C248.426 74.5164 248.648 74.4775 248.842 74.4401C249.431 74.3649 250.024 74.3269 250.617 74.3263C250.994 74.3263 251.41 74.3263 251.788 74.2889C251.901 74.2889 252.052 74.2515 252.166 74.3652C252.22 74.4724 252.259 74.5868 252.28 74.7049C252.317 74.8187 252.355 74.9309 252.392 75.0821C252.431 75.1958 252.431 75.3469 252.468 75.4981C252.463 75.5753 252.475 75.6528 252.506 75.7241C252.506 75.763 252.543 75.9141 252.506 75.9141C253.866 74.7798 255.036 74.2141 255.948 74.2141C256.388 74.2058 256.823 74.3087 257.212 74.5132C257.602 74.7178 257.933 75.0174 258.176 75.3843C258.743 76.1401 259.008 77.2729 259.008 78.747C259.008 81.3524 258.517 83.2799 257.571 84.5264C256.674 85.7341 255.306 86.4898 253.794 86.415C253.297 86.3981 252.804 86.3222 252.325 86.189C252.136 86.1142 251.909 86.0394 251.909 85.7745C251.901 85.6115 251.955 85.4515 252.058 85.3256C252.16 85.2533 252.276 85.2024 252.398 85.1759C252.512 85.0996 252.663 85.0263 252.777 84.9485C253.04 84.7929 253.281 84.6026 253.494 84.3828C254.015 83.8662 254.426 83.2491 254.703 82.569C255.301 81.1339 255.647 79.3201 255.152 77.8102C255.002 77.3612 254.736 76.8659 254.282 76.7147C253.905 76.5651 253.534 76.7147 253.226 76.9781C252.433 77.659 252.242 78.8667 252.13 79.8499C251.903 81.3988 251.681 82.9087 251.337 84.4576C251.102 85.4542 250.925 86.4635 250.807 87.4805C250.694 88.3859 250.542 89.2928 250.508 90.1622V90.918C250.508 91.1065 250.508 91.2951 250.358 91.4088C250.17 91.5585 249.909 91.5585 249.679 91.5974C249.323 91.7102 248.956 91.7835 248.584 91.8159C248.387 91.86 248.186 91.8856 247.985 91.8922C247.759 91.9296 247.494 91.9296 247.267 91.967C247.118 92.0127 246.957 91.9993 246.818 91.9296L246.78 91.8922C246.631 91.7785 246.631 91.5525 246.631 91.3639V90.6785C246.643 90.2218 246.694 89.7668 246.78 89.3182C246.857 88.9411 246.894 88.5251 246.969 88.148C247.045 87.6571 247.159 87.1663 247.268 86.6754C247.382 86.0768 247.533 85.4662 247.647 84.8617C247.647 84.7853 247.684 84.712 247.684 84.6342C248.364 81.4242 248.742 78.9685 248.742 77.231C248.736 76.8548 248.659 76.4832 248.515 76.1356C248.412 75.8847 248.286 75.6441 248.138 75.4173C248.061 75.305 247.988 75.1913 247.91 75.0776C247.863 75.0363 247.827 74.9829 247.807 74.9231C247.788 74.8633 247.784 74.7993 247.798 74.7379C247.708 74.7049 247.784 74.666 247.859 74.6286Z" fill="white"/>
<path d="M281.327 82.5238C281.327 83.6567 280.836 84.5636 279.853 85.2819C279.503 85.5222 279.122 85.7126 278.72 85.8475L278.041 86.075C277.536 86.2209 277.016 86.3093 276.492 86.3384C275.434 86.4147 274.224 86.2636 273.318 85.659C272.569 85.1307 272.261 84.2613 272.752 83.4307C273.166 82.675 274.073 82.1078 274.943 82.2589C275.887 82.4086 276.341 83.3544 276.643 84.1101C276.718 84.2987 276.755 84.4498 276.831 84.6384C276.906 84.9033 277.096 85.0873 277.36 85.017C277.502 84.9753 277.631 84.8987 277.735 84.7941C277.84 84.6895 277.917 84.5603 277.958 84.4184C277.989 84.308 278.002 84.1932 277.996 84.0787C277.996 83.2481 277.279 82.0764 275.805 80.5649C274.37 79.055 273.614 77.8458 273.614 76.9389C273.614 76.032 274.03 75.3526 274.823 74.8618C275.616 74.3709 276.599 74.1135 277.732 74.1135C278.865 74.1135 279.735 74.3021 280.3 74.7121C280.866 75.1222 281.17 75.6564 281.17 76.3358C281.17 77.0152 280.646 77.958 279.551 79.2001L280.043 79.691C280.231 79.8795 280.492 80.2896 280.836 80.8612C281.176 81.5032 281.327 82.033 281.327 82.5238ZM279.892 76.4047C279.892 75.7627 279.476 75.4604 278.606 75.4604C278.247 75.439 277.891 75.5311 277.587 75.7238C277.322 75.9138 277.171 76.1024 277.171 76.2909C277.171 76.668 277.55 77.2352 278.343 77.9535L278.757 78.2932C279.513 77.6887 279.892 77.0467 279.892 76.4047V76.4047Z" fill="white"/>
<path d="M288.918 86.3782C287.257 86.3782 285.859 85.6972 284.801 84.3384C283.706 82.9781 283.177 81.2407 283.177 79.0498C283.152 77.0042 283.537 74.9742 284.31 73.0803C284.993 71.3716 286.098 69.864 287.522 68.6986C288.918 67.5657 290.392 66.9985 291.978 66.9985C293.565 66.9985 294.849 67.3397 295.832 68.0566C296.815 68.7734 297.304 69.6428 297.304 70.626C297.303 71.1009 297.227 71.5727 297.078 72.0238C296.982 72.3493 296.831 72.6557 296.629 72.9292C296.33 73.3078 295.987 73.1566 295.571 73.0788C295.194 73.004 294.853 72.8902 294.476 72.7795C294 72.63 293.553 72.4002 293.155 72.1001C292.776 71.8352 292.927 71.5329 293.005 71.1558C293.042 70.8909 293.117 70.6275 293.155 70.3627C293.192 70.0978 293.267 69.8344 293.304 69.6069C293.379 69.158 293.228 69.0083 292.812 68.8512C292.457 68.7439 292.087 68.6934 291.716 68.7015C290.621 68.7015 289.677 69.6458 288.809 71.497C287.977 73.3487 287.561 75.6533 287.562 78.4108C287.562 80.2231 287.862 81.5071 288.469 82.3391C289.077 83.1712 289.79 83.5468 290.66 83.5468C291.214 83.5423 291.764 83.441 292.284 83.2475C292.865 83.0293 293.402 82.709 293.87 82.3017C294.059 82.152 294.21 82.0024 294.4 81.8527C294.474 81.7483 294.578 81.669 294.699 81.6253C294.849 81.5879 294.925 81.7016 295.039 81.7749C295.205 81.9485 295.382 82.1123 295.567 82.2658C295.717 82.3795 295.866 82.5651 295.717 82.7566C295.603 82.9063 295.452 83.0215 295.34 83.1727L294.772 83.7398C294.298 84.1903 293.793 84.6068 293.261 84.9864C292.677 85.3688 292.045 85.6727 291.381 85.8903C290.597 86.2026 289.762 86.3679 288.918 86.3782V86.3782Z" fill="white"/>
<path d="M300.856 86.3771C299.61 86.3771 298.665 85.9611 297.947 85.0916C297.268 84.2237 296.891 83.0145 296.891 81.4656C296.891 79.4633 297.419 77.7633 298.477 76.3281C299.535 74.893 301.007 74.1747 302.896 74.1747L303.878 74.2136C304.195 74.0585 304.545 73.9805 304.898 73.9861C306.296 73.9861 307.013 75.309 307.013 77.9907C307.762 77.9445 308.508 77.8444 309.243 77.6914L309.657 77.5777L309.807 78.6357C309.041 78.9477 308.243 79.1755 307.427 79.3151L306.899 79.4289C306.559 81.3175 305.879 82.9426 304.821 84.3404C303.84 85.6588 302.48 86.3771 300.856 86.3771ZM302.329 84.0725C303.085 84.0725 303.766 83.5817 304.369 82.6374C304.957 81.6963 305.378 80.6611 305.615 79.577C303.689 79.577 302.745 78.8587 302.745 77.4236C302.745 76.8647 302.861 76.3119 303.085 75.7999L303.234 75.535C303.151 75.5016 303.06 75.4888 302.971 75.4976C302.857 75.4976 302.781 75.4976 302.743 75.535C302.294 75.8343 301.875 76.4793 301.497 77.5373C301.09 78.7026 300.888 79.9292 300.898 81.1633C300.856 83.0908 301.347 84.0725 302.329 84.0725Z" fill="white"/>
<path d="M320.764 84.4126C320.764 84.45 320.725 84.4889 320.688 84.5263C320.478 84.7227 320.251 84.8996 320.009 85.0546C319.708 85.2761 319.393 85.4761 319.064 85.6532C318.573 85.918 318.081 86.1814 317.553 86.2952C317.291 86.3391 317.025 86.3646 316.76 86.3715C315.588 86.3715 314.946 85.8043 314.757 84.6715C314.235 85.1958 313.62 85.6185 312.944 85.918C312.264 86.2173 311.697 86.367 311.206 86.367C310.338 86.367 309.62 85.9884 309.015 85.2326C308.411 84.4769 308.108 83.3067 308.108 81.7578C308.108 79.3784 308.601 77.5272 309.62 76.2043C310.64 74.8455 311.736 74.1646 313.02 74.1646C314.266 74.1646 315.324 74.4639 316.192 75.034C316.383 73.976 316.571 72.918 316.722 71.8615C316.834 70.992 316.911 70.1614 316.986 69.292C317.031 68.713 317.019 68.131 316.948 67.5545C316.911 67.2552 316.986 66.9874 317.327 66.9126C317.495 66.8799 317.66 66.8297 317.818 66.7629C318.267 66.6492 318.725 66.5354 319.215 66.4636C319.463 66.4222 319.713 66.3972 319.964 66.3888C320.378 66.3499 320.908 66.1987 320.983 66.7659C321.096 67.5965 321.02 68.4285 320.945 69.2591C320.87 69.7868 320.794 70.3156 320.718 70.8453C320.643 71.4873 320.492 72.1293 320.378 72.7713C320.229 73.5271 320.113 74.3202 319.964 75.0759C319.925 75.1897 319.925 75.2645 319.887 75.3752C319.094 79.3799 318.717 82.099 318.717 83.5341C318.717 83.9502 318.829 84.1776 319.016 84.1776C319.17 84.1541 319.314 84.0883 319.432 83.9876C319.546 83.9127 319.697 83.8379 319.811 83.7616C319.915 83.6728 320.029 83.5964 320.151 83.5341C320.263 83.4967 320.339 83.573 320.414 83.6479C320.49 83.7616 320.564 83.9127 320.642 84.0265C320.688 84.1477 320.802 84.2614 320.764 84.4126ZM314.341 75.7239C313.699 75.7239 313.171 76.3225 312.718 77.5751C312.275 78.7469 312.044 79.9876 312.034 81.24C312.034 82.4477 312.109 83.2034 312.297 83.5431C312.355 83.6942 312.46 83.823 312.595 83.9114C312.731 83.9998 312.891 84.0432 313.053 84.0355C313.651 84.0355 314.225 83.808 314.79 83.3171C314.829 82.5988 315.239 80.2194 315.999 76.1774C315.399 75.914 314.834 75.7239 314.341 75.7239Z" fill="white"/>
<path d="M321.444 81.3916C321.444 79.1619 322.123 77.387 323.483 76.103C324.844 74.819 326.354 74.1755 328.093 74.1755C329.149 74.1755 330.018 74.4399 330.698 74.9687C331.024 75.2067 331.287 75.5202 331.464 75.8822C331.642 76.2443 331.729 76.6441 331.719 77.0473C331.737 77.8265 331.512 78.592 331.077 79.2382C330.662 79.8095 330.118 80.2755 329.49 80.5985C328.205 81.2405 327.072 81.6176 326.014 81.7688L325.372 81.8451C325.486 83.5436 326.202 84.3757 327.449 84.3757C327.922 84.3617 328.386 84.2458 328.809 84.0359C329.019 83.9582 329.22 83.8578 329.408 83.7366C329.612 83.6191 329.802 83.4796 329.975 83.3206C330.125 83.2069 330.274 83.0946 330.466 83.2458C330.575 83.3638 330.675 83.4899 330.765 83.6229C330.84 83.7366 330.991 83.8115 330.915 84C330.861 84.1047 330.783 84.1953 330.687 84.2649L330.122 84.7139C329.749 85.0215 329.343 85.2875 328.913 85.507C327.872 86.0809 326.701 86.3802 325.513 86.3765C324.266 86.3765 323.322 85.9275 322.603 85.0536C321.821 84.1871 321.444 82.9779 321.444 81.3916ZM327.448 79.3519C327.977 78.7533 328.242 77.9542 328.242 77.0099C328.242 76.0267 327.943 75.5733 327.373 75.5733C326.693 75.5733 326.164 76.1404 325.786 77.3107C325.427 78.357 325.236 79.4535 325.219 80.5596C326.202 80.371 326.921 79.955 327.448 79.3519Z" fill="white"/>
<path d="M260.663 74.6286C260.776 74.5912 260.89 74.5912 261.004 74.5538C261.23 74.5164 261.453 74.4775 261.646 74.4401C262.234 74.3649 262.827 74.3269 263.421 74.3263C263.798 74.3263 264.214 74.3263 264.592 74.2889C264.705 74.2889 264.856 74.2515 264.969 74.3652C265.024 74.4724 265.062 74.5868 265.083 74.7049C265.121 74.8187 265.158 74.9309 265.195 75.0821C265.234 75.1958 265.234 75.3469 265.272 75.4981C265.266 75.5753 265.279 75.6528 265.309 75.7241C265.309 75.763 265.347 75.9141 265.309 75.9141C266.669 74.7798 267.84 74.2141 268.751 74.2141C269.191 74.2058 269.626 74.3087 270.015 74.5132C270.405 74.7178 270.737 75.0174 270.979 75.3843C271.547 76.1401 271.811 77.2729 271.811 78.747C271.811 81.3524 271.321 83.2799 270.376 84.5264C269.469 85.7341 268.109 86.4898 266.598 86.415C266.1 86.3979 265.605 86.3215 265.125 86.1876C264.937 86.1127 264.709 86.0379 264.709 85.773C264.702 85.61 264.755 85.45 264.859 85.3241C264.961 85.2518 265.076 85.2009 265.198 85.1744C265.312 85.0981 265.463 85.0248 265.577 84.947C265.841 84.7918 266.082 84.6015 266.294 84.3813C266.815 83.8647 267.227 83.2476 267.503 82.5675C268.102 81.1324 268.447 79.3186 267.952 77.8087C267.802 77.3597 267.536 76.8644 267.083 76.7132C266.705 76.5636 266.334 76.7132 266.026 76.9766C265.233 77.6575 265.043 78.8652 264.931 79.8484C264.703 81.3973 264.482 82.9072 264.137 84.4561C263.903 85.4527 263.726 86.462 263.608 87.479C263.494 88.3844 263.344 89.2913 263.308 90.1607V90.9165C263.308 91.105 263.308 91.2936 263.159 91.4073C262.97 91.557 262.71 91.557 262.479 91.5959C262.124 91.7112 261.756 91.787 261.384 91.8219C261.187 91.866 260.987 91.8916 260.785 91.8982C260.559 91.9356 260.294 91.9356 260.067 91.973C259.918 92.0195 259.757 92.006 259.618 91.9356L259.579 91.8982C259.429 91.7844 259.429 91.5585 259.429 91.3699V90.6785C259.442 90.2218 259.492 89.7668 259.579 89.3182C259.655 88.9411 259.693 88.5251 259.769 88.148C259.844 87.6571 259.958 87.1663 260.068 86.6754C260.182 86.0768 260.333 85.4662 260.447 84.8617C260.447 84.7853 260.484 84.712 260.484 84.6342C261.164 81.4242 261.542 78.9685 261.542 77.231C261.536 76.8548 261.459 76.4832 261.315 76.1356C261.213 75.8847 261.086 75.6441 260.938 75.4173L260.703 75.0821C260.655 75.0411 260.619 74.9879 260.599 74.928C260.579 74.8681 260.576 74.804 260.589 74.7424C260.511 74.7049 260.588 74.666 260.663 74.6286Z" fill="white"/>
<path d="M194.078 64.3553H196.627V82.5301L196.408 85.4084H194.078V64.3553ZM206.647 77.8699V78.1577C206.647 79.236 206.519 80.2365 206.263 81.1594C206.007 82.0732 205.633 82.8682 205.139 83.5444C204.646 84.2206 204.043 84.746 203.33 85.1206C202.617 85.4953 201.799 85.6826 200.876 85.6826C199.935 85.6826 199.108 85.5227 198.396 85.2029C197.692 84.8739 197.098 84.4033 196.614 83.7911C196.129 83.1789 195.741 82.4387 195.449 81.5706C195.165 80.7026 194.969 79.7248 194.859 78.6375V77.3765C194.969 76.2799 195.165 75.2976 195.449 74.4296C195.741 73.5615 196.129 72.8213 196.614 72.2091C197.098 71.5878 197.692 71.1172 198.396 70.7974C199.099 70.4684 199.917 70.3039 200.849 70.3039C201.781 70.3039 202.608 70.4867 203.33 70.8522C204.052 71.2085 204.655 71.7203 205.139 72.3873C205.633 73.0544 206.007 73.8539 206.263 74.7859C206.519 75.7088 206.647 76.7368 206.647 77.8699ZM204.098 78.1577V77.8699C204.098 77.1297 204.029 76.4353 203.892 75.7865C203.755 75.1286 203.536 74.5529 203.234 74.0595C202.932 73.5569 202.535 73.164 202.042 72.8807C201.548 72.5883 200.94 72.4421 200.219 72.4421C199.579 72.4421 199.022 72.5518 198.546 72.7711C198.08 72.9904 197.683 73.2874 197.354 73.662C197.025 74.0275 196.755 74.4478 196.545 74.923C196.344 75.389 196.193 75.8733 196.093 76.3759V79.6791C196.239 80.3188 196.477 80.9356 196.806 81.5295C197.144 82.1143 197.592 82.5941 198.149 82.9687C198.715 83.3433 199.414 83.5307 200.246 83.5307C200.931 83.5307 201.516 83.3936 202 83.1195C202.494 82.8362 202.891 82.4479 203.193 81.9544C203.504 81.461 203.732 80.8899 203.878 80.2411C204.024 79.5923 204.098 78.8979 204.098 78.1577ZM213.857 83.8733L217.982 70.578H220.696L214.747 87.6974C214.61 88.0629 214.428 88.4559 214.199 88.8762C213.98 89.3057 213.697 89.7123 213.349 90.0961C213.002 90.4798 212.582 90.7905 212.088 91.0281C211.604 91.2748 211.024 91.3982 210.348 91.3982C210.147 91.3982 209.891 91.3708 209.58 91.3159C209.269 91.2611 209.05 91.2154 208.922 91.1789L208.908 89.1229C208.982 89.132 209.096 89.1412 209.251 89.1503C209.416 89.1686 209.53 89.1777 209.594 89.1777C210.169 89.1777 210.658 89.1001 211.06 88.9447C211.462 88.7985 211.801 88.5472 212.075 88.1909C212.358 87.8436 212.6 87.3639 212.801 86.7517L213.857 83.8733ZM210.827 70.578L214.679 82.0915L215.337 84.7642L213.514 85.6963L208.059 70.578H210.827Z" fill="white"/>
<g clip-path="url(#clip0_4711_3192)">
<path d="M6.55523 34.3631C6.55496 32.56 7.02319 30.7879 7.91401 29.2202C8.80484 27.6526 10.0877 26.3434 11.6369 25.4208V18.9309C9.78543 19.5699 8.06412 20.5369 6.55523 21.7856V8.38262C6.55523 7.60597 6.40225 6.83692 6.10504 6.11939C5.80783 5.40185 5.3722 4.74989 4.82302 4.20071C4.27385 3.65154 3.62188 3.21591 2.90435 2.9187C2.18681 2.62148 1.41777 2.46851 0.641113 2.46851V34.3804C0.64114 38.2331 2.00412 41.9615 4.48883 44.9058C6.97354 47.8501 10.4198 49.8205 14.2176 50.4682C12.844 48.3311 11.991 45.9015 11.727 43.3747C10.151 42.4575 8.8436 41.1422 7.93592 39.5606C7.02823 37.979 6.5521 36.1866 6.55523 34.3631V34.3631Z" fill="white"/>
<path d="M33.1921 32.6534C32.7788 28.7452 30.9694 25.1173 28.0963 22.436C25.2232 19.7546 21.4791 18.1999 17.5518 18.0571V23.9747C20.166 24.1222 22.6286 25.2498 24.4483 27.1326C26.2679 29.0155 27.3109 31.5151 27.3691 34.1329C27.4273 36.7507 26.4965 39.2942 24.7624 41.256C23.0282 43.2179 20.6182 44.4539 18.0131 44.7175C18.6625 46.818 19.9606 48.6589 21.7211 49.976C25.3494 48.8733 28.4798 46.5404 30.5734 43.3786C32.6671 40.2169 33.5931 36.4242 33.1921 32.6534V32.6534Z" fill="white"/>
<path d="M43.1778 40.4885C43.1381 40.4973 43.0971 40.4972 43.0575 40.4882C43.0179 40.4792 42.9808 40.4615 42.9489 40.4364L42.1164 39.7809C42.0846 39.7561 42.0588 39.7246 42.0408 39.6886C42.0228 39.6526 42.0131 39.613 42.0123 39.5727V38.5113C42.0116 38.4707 42.0204 38.4304 42.0378 38.3937C42.0553 38.357 42.081 38.3249 42.1129 38.2997L42.935 37.6337C42.9666 37.6081 43.0036 37.5897 43.0432 37.5801C43.0828 37.5705 43.124 37.5699 43.1639 37.5782L43.8126 37.7205C43.5785 36.7797 43.2616 35.8616 42.8656 34.9767L42.4494 35.2681C42.4169 35.292 42.3792 35.3079 42.3394 35.3145C42.2997 35.3212 42.2589 35.3183 42.2204 35.3063L41.2041 35.0114C41.1646 34.9996 41.1283 34.9792 41.0977 34.9516C41.0671 34.924 41.043 34.8899 41.0272 34.8519L40.6248 33.8737C40.607 33.8369 40.5978 33.7966 40.5978 33.7557C40.5978 33.7149 40.607 33.6746 40.6248 33.6378L41.1417 32.7117C41.1609 32.6763 41.1882 32.6459 41.2213 32.623C41.2545 32.6001 41.2925 32.5853 41.3324 32.5799L41.4989 32.5521C40.88 31.6311 40.1687 30.7757 39.3761 29.9992L39.1853 30.3044C39.1631 30.3402 39.1332 30.3705 39.0978 30.3933C39.0624 30.4161 39.0224 30.4308 38.9807 30.4362L37.888 30.5576C37.8463 30.562 37.8042 30.5571 37.7646 30.5433C37.7251 30.5296 37.689 30.5072 37.6591 30.4778L36.8856 29.7009C36.8552 29.6717 36.8321 29.6357 36.8182 29.596C36.8043 29.5562 36.8001 29.5137 36.8058 29.4719L36.9272 28.3828C36.932 28.3412 36.9461 28.3013 36.9683 28.2659C36.9905 28.2305 37.0203 28.2005 37.0555 28.1781L37.111 28.1434C36.8752 27.9839 36.6358 27.8278 36.3896 27.6821L36.5907 28.185C36.6104 28.2256 36.6206 28.2701 36.6206 28.3151C36.6206 28.3602 36.6104 28.4046 36.5907 28.4452L36.008 29.4615C35.9857 29.5009 35.9547 29.5348 35.9175 29.5606C35.8803 29.5864 35.8377 29.6035 35.7929 29.6107L34.6344 29.7876C34.59 29.7943 34.5446 29.7913 34.5015 29.7787C34.4583 29.7662 34.4185 29.7443 34.3847 29.7147L33.5209 28.9169C33.4881 28.8869 33.4625 28.8496 33.4463 28.8081C33.4301 28.7667 33.4236 28.722 33.4273 28.6776L33.5105 27.5052C33.5136 27.4604 33.5267 27.4168 33.5489 27.3778C33.5712 27.3387 33.6019 27.3052 33.6389 27.2797L34.4991 26.69C33.2862 26.16 32.013 25.7802 30.7078 25.5592C32.0843 27.6949 32.9376 30.1253 33.1984 32.6527C34.9356 33.6705 36.3415 35.1691 37.2463 36.9678C37.2446 36.9505 37.2446 36.933 37.2463 36.9157L37.4822 36.0798C37.4905 36.048 37.5062 36.0186 37.5278 35.9939C37.5495 35.9692 37.5766 35.9499 37.6071 35.9376L38.4083 35.5907C38.4383 35.577 38.4708 35.5699 38.5037 35.5699C38.5366 35.5699 38.5692 35.577 38.5991 35.5907L39.3622 36.0035C39.3907 36.0201 39.4154 36.0426 39.4345 36.0695C39.4537 36.0965 39.4669 36.1271 39.4732 36.1596L39.6258 37.0129C39.6317 37.0454 39.63 37.0789 39.621 37.1108C39.612 37.1426 39.5958 37.172 39.5738 37.1967L39.0015 37.8488C38.9798 37.8742 38.9526 37.8943 38.9219 37.9075C38.8912 37.9207 38.8579 37.9268 38.8246 37.9251L37.9574 37.8835C37.9239 37.8813 37.8914 37.8717 37.862 37.8556C37.8326 37.8394 37.8072 37.8169 37.7874 37.7898L37.3608 37.1967C38.1137 38.791 38.4492 40.5505 38.3358 42.3101C38.2223 44.0696 37.6636 45.7715 36.7121 47.2559L37.5758 47.0998C37.6106 47.0936 37.6463 47.095 37.6805 47.104C37.7146 47.113 37.7464 47.1293 37.7736 47.1518L38.4673 47.7658C38.4946 47.7893 38.5163 47.8186 38.5308 47.8516C38.5452 47.8847 38.5519 47.9205 38.5505 47.9566L38.5089 48.8896C38.5074 48.9256 38.4978 48.9607 38.481 48.9925C38.4642 49.0243 38.4406 49.0519 38.4118 49.0735L37.6591 49.6215C37.6304 49.6436 37.5969 49.6586 37.5614 49.6652C37.5258 49.6719 37.4891 49.6699 37.4544 49.6597L36.5526 49.4134C36.518 49.4042 36.486 49.3872 36.4589 49.3638C36.4319 49.3403 36.4105 49.311 36.3965 49.2781L36.0462 48.4144C36.0307 48.3819 36.0227 48.3464 36.0227 48.3104C36.0227 48.2744 36.0307 48.2388 36.0462 48.2063L36.1051 48.0988C35.2979 49.1174 34.3073 49.9762 33.1845 50.6309L33.573 50.957C33.6036 50.9821 33.628 51.0139 33.6442 51.05C33.6605 51.0862 33.6681 51.1255 33.6666 51.1651L33.6424 52.2057C33.6409 52.2457 33.6305 52.2848 33.6119 52.3203C33.5933 52.3557 33.5669 52.3865 33.5348 52.4103L32.7058 53.0382C32.6741 53.0622 32.6373 53.0788 32.5983 53.0866C32.5592 53.0944 32.5189 53.0933 32.4803 53.0833L31.471 52.8266C31.4322 52.8177 31.396 52.7999 31.3653 52.7746C31.3346 52.7493 31.3102 52.7172 31.2941 52.6809L30.8674 51.7305C30.8543 51.6984 30.8461 51.6645 30.8431 51.6299C28.2215 52.3873 25.4073 52.0845 23.0067 50.7869C20.6062 49.4893 18.8114 47.3007 18.009 44.6925C17.5544 43.2205 17.4322 41.6659 17.6515 40.1409C17.8707 38.616 18.4258 37.1587 19.2768 35.8744C20.1277 34.59 21.2532 33.5107 22.5719 32.7142C23.8907 31.9177 25.3699 31.424 26.9027 31.2687C26.2527 29.1694 24.9561 27.329 23.1981 26.0102C21.132 26.6388 19.2113 27.6716 17.5476 29.0487V15.6665C17.5476 14.1026 16.9264 12.6028 15.8205 11.4969C14.7147 10.391 13.2148 9.76978 11.6509 9.76978V41.477C11.6509 41.4944 11.6509 41.5117 11.6509 41.5325C11.6509 41.5534 11.6509 41.6054 11.6509 41.6436C11.6512 42.2148 11.6813 42.7855 11.7411 43.3536C11.9886 45.6765 12.7312 47.9194 13.919 49.9309C15.1068 51.9425 16.712 53.676 18.6266 55.0146C20.5411 56.3532 22.7203 57.2657 25.0174 57.6907C27.3145 58.1157 29.676 58.0432 31.9427 57.4781L31.6166 56.7566C31.6029 56.7292 31.5958 56.6989 31.5958 56.6682C31.5958 56.6375 31.6029 56.6072 31.6166 56.5797L31.9843 55.8652C31.998 55.8374 32.0179 55.8131 32.0426 55.7945C32.0673 55.7758 32.0961 55.7632 32.1265 55.7576L32.9139 55.5981C32.9444 55.5914 32.9759 55.592 33.0061 55.5998C33.0362 55.6077 33.064 55.6225 33.0874 55.6432L33.7048 56.16C33.7276 56.1806 33.7458 56.2058 33.7583 56.2339C33.7709 56.2619 33.7774 56.2923 33.7776 56.323L33.7603 56.9058C34.7453 56.5359 35.6921 56.0712 36.5873 55.5183C36.5489 55.4966 36.5167 55.4656 36.4936 55.4281L35.9352 54.5263C35.9133 54.4921 35.8997 54.4533 35.8955 54.4129C35.8912 54.3726 35.8965 54.3318 35.9109 54.2939L36.2577 53.2949C36.2714 53.2569 36.2934 53.2225 36.3223 53.1942C36.3511 53.166 36.386 53.1447 36.4242 53.1318L37.4267 52.785C37.465 52.7714 37.5058 52.7668 37.5461 52.7716C37.5865 52.7764 37.6251 52.7905 37.6591 52.8127L38.5436 53.3746C38.5779 53.3962 38.6069 53.4251 38.6285 53.4593C38.6501 53.4935 38.6638 53.5322 38.6685 53.5724L38.7066 53.9192C39.6832 53.0579 40.5562 52.0859 41.3082 51.0229L41.0376 51.0506C41.0204 51.0521 41.0031 51.0497 40.9869 51.0437C40.9707 51.0377 40.9561 51.0282 40.9439 51.0159L40.6352 50.6968C40.6227 50.685 40.6133 50.6703 40.6078 50.6539C40.6024 50.6376 40.6011 50.6201 40.604 50.6032L40.656 50.1626C40.6591 50.1457 40.6655 50.1295 40.6751 50.1152C40.6846 50.1009 40.6971 50.0887 40.7115 50.0794L41.0896 49.8505C41.1044 49.8419 41.1211 49.8374 41.1382 49.8374C41.1552 49.8374 41.172 49.8419 41.1868 49.8505L41.6065 50.0031C41.6224 50.0088 41.637 50.018 41.649 50.03C41.661 50.042 41.6701 50.0565 41.6758 50.0725L41.766 50.343C41.9718 50.017 42.1661 49.684 42.3488 49.344C42.301 49.3562 42.2509 49.3562 42.2031 49.344L41.1868 49.0492C41.1473 49.0374 41.1109 49.017 41.0803 48.9894C41.0497 48.9618 41.0256 48.9277 41.0098 48.8896L40.6248 47.9011C40.607 47.8643 40.5978 47.824 40.5978 47.7831C40.5978 47.7423 40.607 47.702 40.6248 47.6652L41.1417 46.7391C41.1609 46.7037 41.1882 46.6733 41.2213 46.6504C41.2545 46.6275 41.2925 46.6127 41.3324 46.6072L42.373 46.4338C42.4129 46.4272 42.4537 46.4293 42.4927 46.4401C42.5316 46.4509 42.5677 46.47 42.5985 46.4962L43.3165 47.1449C43.4032 46.8986 43.4865 46.6523 43.5628 46.4026L43.3928 46.4199C43.3756 46.4214 43.3583 46.419 43.3422 46.413C43.326 46.407 43.3113 46.3975 43.2992 46.3852L42.9905 46.0696C42.9782 46.0576 42.9689 46.0429 42.9635 46.0266C42.958 46.0103 42.9566 45.9929 42.9593 45.9759L43.0113 45.5354C43.0139 45.5183 43.0202 45.502 43.0298 45.4876C43.0394 45.4732 43.052 45.4611 43.0668 45.4522L43.4449 45.2198C43.4602 45.2131 43.4767 45.2096 43.4934 45.2096C43.5101 45.2096 43.5267 45.2131 43.542 45.2198L43.8507 45.3308C44.1272 44.1259 44.2669 42.8936 44.2669 41.6574C44.2669 41.1811 44.2461 40.7128 44.2045 40.2526L43.1778 40.4885ZM42.3141 40.7001C42.34 40.6792 42.3703 40.6643 42.4027 40.6565C42.4351 40.6487 42.4688 40.6482 42.5014 40.655L43.3686 40.8457C43.402 40.853 43.4334 40.8677 43.4604 40.8887C43.4874 40.9097 43.5094 40.9365 43.5246 40.9672L43.9131 41.7649C43.9276 41.7953 43.9351 41.8285 43.9351 41.8621C43.9351 41.8957 43.9276 41.9289 43.9131 41.9592L43.5316 42.7605C43.5176 42.7911 43.497 42.8182 43.4712 42.8398C43.4454 42.8614 43.415 42.877 43.3824 42.8853L42.5187 43.0865C42.4859 43.0946 42.4516 43.095 42.4185 43.0878C42.3855 43.0806 42.3545 43.0659 42.328 43.0449L41.6342 42.4968C41.6072 42.4767 41.5853 42.4506 41.5702 42.4205C41.5551 42.3903 41.5474 42.3571 41.5475 42.3234V41.4354C41.5477 41.4017 41.5552 41.3683 41.5696 41.3378C41.584 41.3072 41.6048 41.2802 41.6307 41.2585L42.3141 40.7001ZM41.0307 35.3756C41.0593 35.3533 41.0924 35.3375 41.1277 35.3291C41.163 35.3207 41.1997 35.32 41.2353 35.3271L42.158 35.5317C42.193 35.5397 42.2257 35.5554 42.2539 35.5776C42.2821 35.5998 42.305 35.628 42.321 35.6601L42.7373 36.5099C42.7527 36.5424 42.7607 36.578 42.7607 36.614C42.7607 36.6499 42.7527 36.6855 42.7373 36.718L42.3314 37.5713C42.3162 37.6037 42.294 37.6323 42.2664 37.6551C42.2388 37.6779 42.2065 37.6943 42.1719 37.7031L41.2492 37.9216C41.2144 37.9291 41.1784 37.929 41.1436 37.9212C41.1089 37.9134 41.0763 37.8982 41.048 37.8766L40.3022 37.2903C40.2741 37.2679 40.2514 37.2394 40.2357 37.207C40.2201 37.1746 40.212 37.139 40.2121 37.103V36.1596C40.2115 36.1235 40.2194 36.0878 40.235 36.0552C40.2507 36.0227 40.2737 35.9943 40.3022 35.9722L41.0307 35.3756ZM34.846 32.7637C34.8037 32.7492 34.7654 32.725 34.7341 32.6931C34.7028 32.6612 34.6794 32.6224 34.6656 32.5799L34.291 31.4664C34.2771 31.424 34.2727 31.379 34.2781 31.3346C34.2835 31.2903 34.2985 31.2476 34.3222 31.2097L34.9605 30.2246C34.9839 30.1867 35.0159 30.1547 35.0538 30.1313C35.0917 30.1078 35.1346 30.0934 35.179 30.0894L36.3479 29.9714C36.3923 29.9668 36.4372 29.9722 36.4792 29.9872C36.5212 30.0022 36.5593 30.0264 36.5907 30.0581L37.4128 30.8976C37.4438 30.9301 37.4673 30.969 37.4816 31.0115C37.496 31.054 37.5009 31.0992 37.4961 31.1438L37.3504 32.3093C37.3443 32.354 37.3284 32.3967 37.3038 32.4345C37.2792 32.4723 37.2465 32.5042 37.2082 32.5278L36.2057 33.1522C36.1679 33.1762 36.1251 33.1912 36.0806 33.1961C36.0361 33.2009 35.9911 33.1954 35.949 33.1799L34.846 32.7637ZM38.5436 34.8865C38.542 34.9225 38.5325 34.9576 38.5157 34.9894C38.4989 35.0212 38.4753 35.0488 38.4465 35.0704L37.6938 35.6219C37.6645 35.6427 37.6308 35.6566 37.5954 35.6626C37.56 35.6686 37.5237 35.6665 37.4891 35.6566L36.5873 35.4103C36.5527 35.4011 36.5207 35.3841 36.4936 35.3607C36.4666 35.3372 36.4452 35.3079 36.4312 35.275L36.0635 34.4183C36.0481 34.3857 36.0401 34.3502 36.0401 34.3142C36.0401 34.2782 36.0481 34.2427 36.0635 34.2101L36.504 33.3881C36.5207 33.3558 36.5448 33.328 36.5744 33.3069C36.6039 33.2857 36.6381 33.272 36.674 33.2667L37.5932 33.0967C37.6282 33.0902 37.6642 33.0918 37.6985 33.1014C37.7328 33.1111 37.7644 33.1284 37.7909 33.1522L38.4846 33.7627C38.512 33.7862 38.5337 33.8155 38.5481 33.8486C38.5625 33.8816 38.5693 33.9174 38.5679 33.9535L38.5436 34.8865ZM37.9817 32.8053C37.9515 32.7779 37.928 32.744 37.913 32.7061C37.898 32.6682 37.8918 32.6274 37.895 32.5868L37.9678 31.5289C37.971 31.4881 37.9832 31.4486 38.0036 31.4132C38.024 31.3778 38.0521 31.3474 38.0857 31.3242L38.9599 30.7241C38.993 30.7015 39.0307 30.6867 39.0704 30.6807C39.11 30.6747 39.1505 30.6777 39.1888 30.6894L40.2051 30.9981C40.2441 31.0102 40.2799 31.0307 40.3099 31.0583C40.3399 31.0859 40.3633 31.1199 40.3786 31.1577L40.767 32.1428C40.7824 32.1802 40.7889 32.2207 40.7859 32.2611C40.7828 32.3014 40.7705 32.3405 40.7497 32.3752L40.2259 33.2944C40.2055 33.3299 40.1775 33.3604 40.144 33.3838C40.1104 33.4072 40.072 33.4229 40.0317 33.4297L38.9911 33.5893C38.951 33.5959 38.9098 33.5935 38.8708 33.582C38.8318 33.5706 38.7958 33.5506 38.7656 33.5234L37.9817 32.8053ZM39.442 35.6843C39.4146 35.6861 39.3872 35.6821 39.3615 35.6726C39.3358 35.663 39.3124 35.6481 39.2929 35.6288L38.7899 35.1155C38.7712 35.0951 38.7572 35.0709 38.7488 35.0445C38.7404 35.0182 38.7379 34.9903 38.7413 34.9629L38.828 34.2518C38.8311 34.2241 38.8405 34.1974 38.8555 34.1739C38.8706 34.1505 38.8908 34.1308 38.9148 34.1165L39.5287 33.7419C39.5533 33.7309 39.5799 33.7252 39.6068 33.7252C39.6337 33.7252 39.6603 33.7309 39.6848 33.7419L40.3612 33.9882C40.3869 33.9981 40.4101 34.0135 40.4292 34.0332C40.4484 34.053 40.4631 34.0767 40.4722 34.1026L40.7011 34.7964C40.7096 34.8227 40.7124 34.8505 40.7094 34.878C40.7064 34.9055 40.6977 34.932 40.6838 34.9559L40.278 35.5317C40.2629 35.5547 40.243 35.574 40.2196 35.5884C40.1962 35.6028 40.1699 35.6119 40.1427 35.615L39.442 35.6843ZM38.3216 39.6491L38.5783 38.5044C38.5868 38.4601 38.6056 38.4184 38.6334 38.3828C38.6611 38.3472 38.6969 38.3187 38.7379 38.2997L39.7785 37.7829C39.8184 37.7633 39.8623 37.7531 39.9068 37.7531C39.9513 37.7531 39.9952 37.7633 40.0351 37.7829L41.0966 38.2859C41.1371 38.305 41.1728 38.333 41.2011 38.3678C41.2293 38.4027 41.2493 38.4434 41.2596 38.487L41.5301 39.6317C41.5403 39.6754 41.5406 39.7208 41.531 39.7646C41.5214 39.8084 41.5021 39.8495 41.4747 39.8849L40.7462 40.8076C40.7184 40.8425 40.683 40.8706 40.6428 40.8898C40.6025 40.909 40.5584 40.9189 40.5138 40.9186H39.3414C39.2964 40.9182 39.252 40.9081 39.2113 40.8889C39.1706 40.8697 39.1345 40.842 39.1055 40.8076L38.3702 39.8953C38.3456 39.8605 38.3285 39.8209 38.3202 39.7791C38.3118 39.7372 38.3123 39.6941 38.3216 39.6525V39.6491ZM41.3186 43.0865L40.7532 43.9606C40.7315 43.9937 40.7029 44.0216 40.6693 44.0426C40.6358 44.0636 40.5981 44.077 40.5589 44.082L39.5183 44.1861C39.4788 44.1899 39.4389 44.1846 39.4016 44.1708C39.3644 44.157 39.3308 44.135 39.3033 44.1063L38.5748 43.3605C38.547 43.3327 38.526 43.2988 38.5133 43.2615C38.5007 43.2242 38.4968 43.1845 38.502 43.1455L38.6303 42.1049C38.6353 42.0652 38.6491 42.0272 38.6707 41.9936C38.6923 41.9599 38.7212 41.9316 38.7552 41.9106L39.6432 41.366C39.6771 41.3452 39.7153 41.3322 39.7549 41.328C39.7945 41.3238 39.8346 41.3285 39.8721 41.3418L40.8503 41.6886C40.8877 41.7017 40.9215 41.7232 40.9492 41.7514C40.9769 41.7797 40.9976 41.814 41.0098 41.8517L41.3567 42.8402C41.3724 42.8816 41.3772 42.9264 41.3705 42.9701C41.3638 43.0139 41.3459 43.0552 41.3186 43.09V43.0865ZM35.2241 54.7691L34.5928 55.3934C34.5693 55.4177 34.5404 55.4361 34.5084 55.447C34.4765 55.4578 34.4423 55.4609 34.4089 55.4559L33.5279 55.3518C33.494 55.3484 33.4614 55.3372 33.4325 55.3192C33.4036 55.3011 33.3793 55.2767 33.3614 55.2477L32.8966 54.4916C32.8778 54.4632 32.866 54.4308 32.8624 54.397C32.8588 54.3632 32.8634 54.329 32.8758 54.2973L33.1741 53.4648C33.1843 53.4322 33.2022 53.4026 33.2264 53.3784C33.2506 53.3542 33.2802 53.3363 33.3128 53.3261L34.1523 53.0382C34.1844 53.0274 34.2185 53.0239 34.2521 53.0281C34.2858 53.0323 34.318 53.0441 34.3465 53.0625L35.0923 53.5377C35.1212 53.5556 35.1457 53.5799 35.1637 53.6088C35.1818 53.6377 35.1929 53.6703 35.1963 53.7042L35.29 54.5852C35.2943 54.6194 35.2906 54.6541 35.2791 54.6867C35.2677 54.7192 35.2488 54.7486 35.2241 54.7725V54.7691ZM36.9203 50.9535L36.4971 51.9247C36.4815 51.9622 36.4575 51.9955 36.4267 52.022C36.396 52.0485 36.3595 52.0675 36.3202 52.0774L35.2969 52.3548C35.2578 52.3649 35.217 52.3661 35.1773 52.3583C35.1377 52.3505 35.1004 52.3339 35.068 52.3098L34.2147 51.6819C34.1819 51.6577 34.1549 51.6264 34.1357 51.5904C34.1165 51.5544 34.1055 51.5146 34.1037 51.4738L34.0621 50.4159C34.06 50.3752 34.0674 50.3346 34.0837 50.2973C34.0999 50.26 34.1246 50.227 34.1557 50.2008L34.9605 49.5071C34.9915 49.4815 35.0278 49.4629 35.0667 49.4528C35.1056 49.4426 35.1463 49.441 35.1859 49.4481L36.2265 49.6458C36.2669 49.6525 36.3052 49.6686 36.3383 49.6927C36.3714 49.7167 36.3985 49.7482 36.4173 49.7846L36.9133 50.7211C36.9353 50.7588 36.9475 50.8014 36.9487 50.8451C36.95 50.8887 36.9402 50.932 36.9203 50.9708V50.9535ZM39.8513 51.6785L39.1784 52.341C39.1526 52.3664 39.1214 52.3858 39.0873 52.3977C39.0531 52.4097 39.0167 52.414 38.9807 52.4103L38.0406 52.2959C38.0051 52.2922 37.9709 52.2803 37.9408 52.261C37.9106 52.2417 37.8854 52.2156 37.8672 52.1849L37.3677 51.3801C37.349 51.3498 37.3374 51.3157 37.3338 51.2802C37.3302 51.2448 37.3347 51.209 37.3469 51.1755L37.6626 50.2841C37.6748 50.2501 37.6946 50.2193 37.7204 50.1941C37.7463 50.1689 37.7775 50.1498 37.8117 50.1384L38.7066 49.8331C38.7408 49.8206 38.7774 49.8163 38.8136 49.8205C38.8497 49.8247 38.8844 49.8373 38.9148 49.8574L39.7091 50.3638C39.7399 50.3828 39.766 50.4086 39.7852 50.4393C39.8045 50.47 39.8164 50.5047 39.8201 50.5407L39.9207 51.4807C39.9271 51.5195 39.9242 51.5593 39.9121 51.5967C39.9 51.6341 39.8792 51.6681 39.8513 51.6958V51.6785ZM40.7011 48.7786C40.7096 48.805 40.7124 48.8328 40.7094 48.8603C40.7064 48.8877 40.6977 48.9143 40.6838 48.9382L40.278 49.5591C40.2629 49.582 40.243 49.6014 40.2196 49.6158C40.1962 49.6301 40.1699 49.6392 40.1427 49.6423L39.4281 49.7117C39.4009 49.7149 39.3734 49.7119 39.3476 49.7029C39.3217 49.6939 39.2983 49.6791 39.279 49.6597L38.776 49.1463C38.7573 49.1259 38.7433 49.1017 38.7349 49.0753C38.7266 49.049 38.724 49.0211 38.7275 48.9937L38.8142 48.2791C38.8177 48.252 38.8273 48.2261 38.8423 48.2033C38.8574 48.1804 38.8774 48.1613 38.9009 48.1473L39.5148 47.7727C39.5391 47.7608 39.5658 47.7546 39.5929 47.7546C39.6199 47.7546 39.6467 47.7608 39.6709 47.7727L40.3473 48.019C40.373 48.0289 40.3962 48.0443 40.4154 48.0641C40.4345 48.0838 40.4492 48.1075 40.4583 48.1335L40.7011 48.7786ZM40.7497 46.3887L40.2259 47.3079C40.2059 47.3434 40.178 47.3738 40.1443 47.3966C40.1106 47.4195 40.072 47.4343 40.0317 47.4397L38.9911 47.6028C38.9507 47.6095 38.9093 47.6067 38.8701 47.5947C38.831 47.5826 38.7952 47.5617 38.7656 47.5334L37.9886 46.8154C37.9583 46.7888 37.9347 46.7555 37.9196 46.7182C37.9045 46.6808 37.8985 46.6404 37.9019 46.6003L37.9747 45.5424C37.9779 45.5016 37.9901 45.4621 38.0105 45.4267C38.0309 45.3913 38.059 45.3609 38.0927 45.3377L38.9668 44.7376C38.9999 44.715 39.0377 44.7002 39.0773 44.6942C39.1169 44.6882 39.1574 44.6912 39.1957 44.7029L40.2121 45.0116C40.251 45.0237 40.2868 45.0442 40.3168 45.0718C40.3468 45.0994 40.3703 45.1334 40.3855 45.1712L40.774 46.1563C40.791 46.1967 40.7977 46.2406 40.7935 46.2843C40.7892 46.3279 40.7742 46.3697 40.7497 46.4061V46.3887ZM42.9246 45.0429L42.4875 45.7193C42.4716 45.7453 42.4498 45.7674 42.4239 45.7836C42.3981 45.7999 42.3688 45.8099 42.3384 45.8129L41.5371 45.8927C41.5064 45.896 41.4753 45.8921 41.4464 45.8812C41.4175 45.8704 41.3915 45.8529 41.3706 45.8302L40.8052 45.2545C40.7846 45.2323 40.7689 45.2059 40.7594 45.1772C40.7498 45.1485 40.7465 45.1181 40.7497 45.088L40.8503 44.2867C40.854 44.256 40.8646 44.2267 40.8815 44.2008C40.8983 44.1749 40.9209 44.1533 40.9474 44.1375L41.6411 43.7178C41.6676 43.7023 41.6971 43.6927 41.7277 43.6897C41.7582 43.6867 41.7891 43.6904 41.8181 43.7005L42.5742 43.9745C42.6033 43.9853 42.6296 44.0024 42.6512 44.0246C42.6728 44.0468 42.6892 44.0735 42.6991 44.1028L42.9558 44.866C42.9667 44.8984 42.9696 44.9331 42.9641 44.9669C42.9587 45.0008 42.9451 45.0328 42.9246 45.0602V45.0429ZM44.0866 43.8253L43.8438 44.2C43.8346 44.2143 43.8224 44.2264 43.808 44.2354C43.7936 44.2444 43.7774 44.25 43.7605 44.252L43.3165 44.2971C43.2999 44.2982 43.2832 44.2957 43.2676 44.2897C43.252 44.2837 43.2379 44.2744 43.2263 44.2624L42.9142 43.9433C42.9026 43.9315 42.8938 43.9173 42.8884 43.9017C42.883 43.8861 42.8811 43.8695 42.8829 43.8531L42.9384 43.4091C42.9404 43.3927 42.9461 43.377 42.9551 43.3631C42.9642 43.3493 42.9763 43.3377 42.9905 43.3293L43.372 43.0969C43.3871 43.0893 43.4037 43.0853 43.4206 43.0853C43.4375 43.0853 43.4541 43.0893 43.4692 43.0969L43.8854 43.2495C43.9019 43.2542 43.917 43.2631 43.9291 43.2752C43.9413 43.2873 43.9501 43.3024 43.9548 43.3189L44.097 43.7386C44.1044 43.7551 44.1079 43.773 44.1073 43.7911C44.1067 43.8091 44.102 43.8268 44.0935 43.8427L44.0866 43.8253Z" fill="white"/>
<path d="M39.7782 29.3612C39.8005 29.326 39.8146 29.2861 39.8194 29.2447C39.8242 29.2033 39.8196 29.1613 39.8059 29.1219L39.4417 28.0813C39.4277 28.0417 39.4052 28.0057 39.3759 27.9757C39.3465 27.9458 39.311 27.9226 39.2717 27.9078L38.2311 27.561C38.1917 27.5473 38.1497 27.5427 38.1083 27.5475C38.0668 27.5523 38.027 27.5664 37.9918 27.5887L37.1177 28.1368C37.9265 28.6866 38.6845 29.3077 39.3827 29.9925L39.7782 29.3612Z" fill="white"/>
<path d="M44.8428 38.8866L44.378 37.9362C44.3595 37.8996 44.3331 37.8675 44.3007 37.8423C44.2683 37.8171 44.2307 37.7994 44.1907 37.7905L43.8057 37.7073C44.0091 38.5346 44.1471 39.3766 44.2184 40.2255C44.2564 40.2159 44.2918 40.1978 44.3218 40.1726C44.3519 40.1473 44.3758 40.1156 44.3919 40.0799L44.8463 39.1225C44.8638 39.0855 44.8726 39.0451 44.872 39.0042C44.8714 38.9633 44.8614 38.9231 44.8428 38.8866V38.8866Z" fill="white"/>
<path d="M43.3095 34.6435C43.3433 34.6207 43.3712 34.5903 43.3911 34.5548C43.411 34.5193 43.4223 34.4795 43.424 34.4388L43.4899 33.3982C43.4967 33.3529 43.4919 33.3066 43.4762 33.2636C43.4604 33.2206 43.4341 33.1822 43.3997 33.152L42.6123 32.4582C42.5823 32.4308 42.5463 32.4106 42.5072 32.3992C42.4681 32.3877 42.427 32.3854 42.3869 32.3923L41.5093 32.538C42.0276 33.3073 42.479 34.1197 42.8586 34.9661L43.3095 34.6435Z" fill="white"/>
<path d="M42.4421 49.2812L43.3093 48.6708C43.3427 48.6476 43.3704 48.6171 43.3902 48.5817C43.41 48.5462 43.4215 48.5067 43.4238 48.4661L43.4897 47.4255C43.4919 47.3846 43.485 47.3438 43.4694 47.306C43.4538 47.2682 43.4299 47.2343 43.3995 47.207L43.3301 47.1445C43.0612 47.8984 42.7366 48.6311 42.3589 49.3367C42.39 49.3239 42.4183 49.305 42.4421 49.2812V49.2812Z" fill="white"/>
<path d="M41.4879 50.9906C41.505 50.9895 41.5215 50.9841 41.536 50.9751C41.5505 50.966 41.5625 50.9535 41.5711 50.9387L41.8135 50.5681C41.8211 50.5531 41.825 50.5365 41.825 50.5197C41.825 50.5028 41.8211 50.4862 41.8135 50.4712L41.765 50.3223C41.6149 50.5531 41.4625 50.784 41.3079 51.0149L41.4879 50.9906Z" fill="white"/>
<path d="M43.8476 46.3577C43.8642 46.3563 43.8804 46.3513 43.8948 46.3429C43.9092 46.3345 43.9215 46.3229 43.9309 46.3091L44.1737 45.9345C44.1813 45.9194 44.1853 45.9028 44.1853 45.8859C44.1853 45.869 44.1813 45.8524 44.1737 45.8373L44.0349 45.4142C44.0213 45.3832 43.9965 45.3584 43.9655 45.3448L43.8545 45.3066C43.7713 45.6535 43.6742 46.0316 43.5667 46.3854L43.8476 46.3577Z" fill="white"/>
<path d="M32.7822 50.285C32.7517 50.2595 32.7161 50.2409 32.6777 50.2307C32.6394 50.2206 32.5992 50.2189 32.5602 50.226L31.5404 50.4341C31.5009 50.4411 31.4637 50.4573 31.4318 50.4814C31.3998 50.5055 31.374 50.5368 31.3565 50.5729L30.8813 51.499C30.8608 51.5399 30.8501 51.585 30.8501 51.6308C31.6687 51.3938 32.455 51.0571 33.1915 50.6284L32.7822 50.285Z" fill="white"/>
<path d="M36.6845 55.5296L37.7251 55.6545C37.7655 55.6598 37.8066 55.6557 37.8451 55.6424C37.8836 55.6292 37.9185 55.6072 37.9471 55.5782L38.7033 54.8324C38.7316 54.8041 38.7532 54.7697 38.7664 54.7319C38.7796 54.694 38.7841 54.6537 38.7796 54.6139L38.7068 53.9202C38.0385 54.5054 37.3239 55.0355 36.5701 55.5054C36.606 55.5218 36.6451 55.5301 36.6845 55.5296V55.5296Z" fill="white"/>
<path d="M31.9538 57.4785C31.9651 57.5073 31.9834 57.5328 32.007 57.5528C32.0306 57.5728 32.0588 57.5866 32.089 57.593L32.8695 57.7942C32.8992 57.8015 32.9301 57.8022 32.9601 57.7962C32.9901 57.7902 33.0184 57.7777 33.0429 57.7595L33.6846 57.2739C33.7096 57.2552 33.73 57.2312 33.7444 57.2036C33.7588 57.176 33.7668 57.1455 33.7679 57.1143V56.8923C33.1716 57.119 32.5623 57.3101 31.9434 57.4647L31.9538 57.4785Z" fill="white"/>
<path d="M36.1676 27.0783C36.151 27.0364 36.1252 26.9988 36.0922 26.9682C36.0592 26.9376 36.0198 26.9148 35.9768 26.9014L34.8564 26.5545C34.8136 26.5406 34.7681 26.5368 34.7236 26.5434C34.679 26.5501 34.6366 26.5669 34.5997 26.5927L34.4922 26.6655C35.1489 26.9545 35.7862 27.2859 36.4 27.6576L36.1676 27.0783Z" fill="white"/>
<path d="M52.6414 32.2857L51.3406 31.8313L50.1717 32.5632L50.019 33.9333L50.9938 34.908L52.3639 34.7554L53.0992 33.5865L52.6414 32.2857Z" fill="white"/>
<path d="M41.6963 28.4488L42.1646 29.8466L43.552 30.3531L44.8112 29.583L44.995 28.1192L43.9648 27.0613L42.4941 27.2104L41.6963 28.4488Z" fill="white"/>
<path d="M48.9531 47.062L49.4179 48.1407L50.5522 48.4494L51.4991 47.7592L51.5512 46.5833L50.6632 45.8132L49.5081 46.0248L48.9531 47.062Z" fill="white"/>
<path d="M45.7199 35.8167L46.5073 36.5417C46.537 36.5697 46.5728 36.5906 46.6119 36.6026C46.651 36.6146 46.6923 36.6175 46.7327 36.611L47.7907 36.448C47.831 36.4412 47.8694 36.4255 47.903 36.4021C47.9365 36.3787 47.9645 36.3482 47.9849 36.3127L48.5156 35.3866C48.5362 35.3512 48.5484 35.3115 48.5514 35.2706C48.5545 35.2298 48.5481 35.1888 48.533 35.1507L48.1376 34.1552C48.1223 34.1174 48.0989 34.0834 48.0689 34.0558C48.0389 34.0282 48.0031 34.0077 47.9641 33.9956L46.9235 33.6835C46.8846 33.6716 46.8436 33.6686 46.8034 33.6746C46.7632 33.6806 46.7248 33.6955 46.6911 33.7182L45.8274 34.3252C45.7932 34.3478 45.7647 34.378 45.7442 34.4136C45.7238 34.4491 45.7119 34.4889 45.7095 34.5298L45.6332 35.5982C45.6294 35.6388 45.6354 35.6798 45.6504 35.7178C45.6655 35.7558 45.6893 35.7896 45.7199 35.8167V35.8167Z" fill="white"/>
<path d="M45.9497 43.3919L46.8758 44.54L48.35 44.5296L49.2623 43.371L48.9258 41.935L47.5904 41.3037L46.2654 41.9524L45.9497 43.3919Z" fill="white"/>
<path opacity="0.4" d="M59.0023 45.373L59.8765 46.0598L60.9622 45.8031L61.4374 44.7972L60.9483 43.7982L59.8591 43.5554L58.9919 44.2596L59.0023 45.373Z" fill="white"/>
<path d="M55.8907 35.2714L56.7683 35.9583L57.854 35.7016L58.3292 34.6922L57.8367 33.6932L56.751 33.4539L55.8838 34.1545L55.8907 35.2714Z" fill="white"/>
<path opacity="0.4" d="M60.2292 26.1045L61.145 27.041L62.4457 26.9092L63.1568 25.8061L62.7371 24.5678L61.5092 24.1204L60.3923 24.8037L60.2292 26.1045Z" fill="white"/>
<path d="M52.8802 41.5327L53.8168 42.2646L54.9718 41.994L55.4783 40.9187L54.9545 39.8539L53.796 39.5972L52.8733 40.3464L52.8802 41.5327Z" fill="white"/>
<path opacity="0.9" d="M44.7008 23.093L45.7484 23.9151L47.0457 23.6064L47.6145 22.4028L47.0283 21.2061L45.7276 20.9216L44.6904 21.7576L44.7008 23.093Z" fill="white"/>
<path d="M46.5074 31.5292L47.7839 31.9038L48.8765 31.1372L48.9563 29.8087L47.9643 28.9172L46.6496 29.1323L46.001 30.2978L46.5074 31.5292Z" fill="white"/>
<path d="M48.7034 39.9957L49.7926 40.0512L50.5106 39.2326L50.3198 38.1573L49.3625 37.637L48.3566 38.0636L48.0652 39.1146L48.7034 39.9957Z" fill="white"/>
<path d="M52.47 37.2908L53.1013 37.936L53.9997 37.8458L54.4887 37.0861L54.2009 36.2294L53.351 35.9207L52.581 36.3924L52.47 37.2908Z" fill="white"/>
<path d="M55.561 49.9099L56.0258 50.9886L57.1601 51.2973L58.1071 50.6071L58.1591 49.4312L57.2711 48.6611L56.116 48.8727L55.561 49.9099Z" fill="white"/>
<path opacity="0.5" d="M46.8296 17.4773L47.8112 18.3791L49.1259 18.1745L49.7884 17.0194L49.2993 15.7811L48.0228 15.3926L46.9267 16.1488L46.8296 17.4773Z" fill="white"/>
<path opacity="0.8" d="M49.595 26.7458L50.8749 27.1204L51.9641 26.3538L52.0439 25.0218L51.0553 24.1304L49.7407 24.3489L49.092 25.5109L49.595 26.7458Z" fill="white"/>
<path d="M56.5701 38.9943L56.962 39.3932L57.517 39.3377L57.8188 38.8694L57.6419 38.3387L57.1181 38.1479L56.6394 38.4393L56.5701 38.9943Z" fill="white"/>
<path opacity="0.7" d="M62.5918 30.3461L62.9838 30.745L63.5388 30.6895L63.8405 30.2212L63.6636 29.6905L63.1364 29.4998L62.6612 29.7911L62.5918 30.3461Z" fill="white"/>
<path d="M42.9531 25.2643L43.3451 25.6667L43.9001 25.6077L44.2053 25.1395L44.0249 24.6087L43.5012 24.418L43.026 24.7093L42.9531 25.2643Z" fill="white"/>
<path d="M52.533 49.6047L52.9249 50.0036L53.4799 49.9481L53.7817 49.4763L53.6048 48.9491L53.0775 48.7583L52.6023 49.0497L52.533 49.6047Z" fill="white"/>
<path d="M50.7817 29.7011L51.1737 30.1L51.7287 30.0445L52.0305 29.5762L51.8536 29.0455L51.3298 28.8547L50.8511 29.1461L50.7817 29.7011Z" fill="white"/>
<path d="M37.4231 57.1447L37.8116 57.5436L38.3701 57.4881L38.6718 57.0198L38.4949 56.4891L37.9677 56.2983L37.4925 56.5897L37.4231 57.1447Z" fill="white"/>
<path d="M50.5701 43.3156L50.962 43.7145L51.517 43.659L51.8188 43.1907L51.6419 42.66L51.1181 42.4692L50.6394 42.7606L50.5701 43.3156Z" fill="white"/>
<path d="M54.9407 45.446L55.6483 46.1709L56.6542 46.0703L57.2057 45.2205L56.8831 44.2597L55.9293 43.9163L55.069 44.4435L54.9407 45.446Z" fill="white"/>
<path opacity="0.4" d="M59.9902 40.4887L60.6978 41.2136L61.7038 41.113L62.2518 40.2632L61.9292 39.3024L60.9788 38.959L60.1151 39.4862L59.9902 40.4887Z" fill="white"/>
<path opacity="0.6" d="M61.1731 35.9414L61.8807 36.6663L62.8866 36.5623L63.4347 35.7124L63.1121 34.7551L62.1617 34.4082L61.298 34.9355L61.1731 35.9414Z" fill="white"/>
<path d="M46.7262 54.2421L46.3516 55.2931L46.9378 56.2401L48.0443 56.3719L48.8386 55.5879L48.7207 54.4814L47.7807 53.8813L46.7262 54.2421Z" fill="white"/>
<path d="M45.3176 48.1095L44.7209 49.2749L45.2586 50.4682L46.5281 50.7908L47.5722 50.0034L47.6034 48.6957L46.601 47.8528L45.3176 48.1095Z" fill="white"/>
<path opacity="0.4" d="M52.397 23.7279L53.4966 23.558L54.0516 22.5902L53.6423 21.5565L52.5774 21.2305L51.6582 21.8583L51.575 22.9717L52.397 23.7279Z" fill="white"/>
<path opacity="0.6" d="M59.6501 22.7914L60.7983 22.115L60.9821 20.7935L60.0664 19.8257L58.7413 19.9402L57.999 21.0467L58.4049 22.3162L59.6501 22.7914Z" fill="white"/>
<path opacity="0.4" d="M54.6866 29.6834L55.592 29.6626L56.14 28.948L55.9215 28.0704L55.0994 27.6958L54.2912 28.1016L54.1108 28.9896L54.6866 29.6834Z" fill="white"/>
<path opacity="0.5" d="M54.8495 19.014L55.4079 19.0036L55.7479 18.5596L55.6126 18.0185L55.1027 17.7861L54.6066 18.0393L54.4922 18.5839L54.8495 19.014Z" fill="white"/>
<path opacity="0.6" d="M45.1832 19.7076L45.7417 19.6972L46.0816 19.2532L45.9463 18.7121L45.4399 18.4797L44.9404 18.7329L44.8259 19.2775L45.1832 19.7076Z" fill="white"/>
<path opacity="0.7" d="M57.9476 27.141L58.5061 27.1306L58.846 26.6866L58.7107 26.142L58.2008 25.9131L57.7048 26.1628L57.5903 26.7109L57.9476 27.141Z" fill="white"/>
<path opacity="0.6" d="M55.62 24.4536L56.1784 24.4397L56.5184 23.9957L56.3831 23.4546L55.8766 23.2222L55.3772 23.4754L55.2627 24.0234L55.62 24.4536Z" fill="white"/>
<path opacity="0.6" d="M58.187 30.9669L58.7316 32.0214L59.8971 32.2573L60.8059 31.4907L60.7747 30.3044L59.8277 29.5898L58.6761 29.8812L58.187 30.9669Z" fill="white"/>
<path d="M48.8289 50.7186L48.3884 51.957L49.0822 53.0773L50.3864 53.2334L51.3229 52.3108L51.1842 51.0031L50.0777 50.3093H50.0603L48.8151 50.736L48.8289 50.7186Z" fill="white"/>
<path d="M42.6431 52.6465L42.6951 53.9784L43.7669 54.7693L45.0538 54.4224L45.5845 53.2015L44.9636 52.0256L43.6525 51.7793L42.6431 52.6465Z" fill="white"/>
<path d="M40.8285 55.0532L40.3706 55.9446L40.7799 56.8604L41.7511 57.1101L42.5524 56.5031L42.5802 55.5006L41.8101 54.8555L40.8285 55.0532Z" fill="white"/>
<path d="M38.0994 23.586L39.1851 24.5884L40.6419 24.363L41.3738 23.0795L40.8292 21.7094L39.4175 21.2793L38.2034 22.1153L38.0994 23.586Z" fill="white"/>
<path d="M100.48 43.4064C100.493 44.5331 100.25 45.6479 99.7694 46.667C99.3091 47.6401 98.662 48.5134 97.8651 49.2373C97.0554 49.97 96.1136 50.5421 95.0901 50.923C93.9968 51.3277 92.8393 51.531 91.6735 51.5231H76.8032V20.0413H91.9614C92.9934 20.0225 94.0138 20.2609 94.9306 20.7351C95.799 21.1931 96.5678 21.8192 97.1922 22.5769C97.8194 23.3429 98.3078 24.2128 98.6351 25.1472C98.9686 26.0803 99.141 27.0632 99.145 28.054C99.1595 29.593 98.7439 31.1056 97.9449 32.4211C97.1643 33.7202 96.0047 34.7491 94.6219 35.3695C96.3457 35.8496 97.8543 36.903 98.8988 38.356C99.9579 39.8243 100.513 41.5962 100.48 43.4064V43.4064ZM79.9077 22.7469V34.3635H90.7265C91.4715 34.3686 92.2076 34.2012 92.8771 33.8744C93.5251 33.5619 94.105 33.1246 94.5837 32.5876C95.0619 32.0476 95.4369 31.4245 95.6902 30.7492C95.9592 30.0485 96.0956 29.304 96.0926 28.5535C96.0961 27.7836 95.9682 27.0188 95.7145 26.2919C95.4813 25.6162 95.1197 24.992 94.6496 24.4535C94.1957 23.9395 93.6469 23.5178 93.0332 23.2117C92.3984 22.8978 91.6983 22.7385 90.9902 22.7469H79.9077ZM97.376 42.8653C97.3774 42.1006 97.2423 41.3418 96.9771 40.6245C96.4721 39.2207 95.4496 38.0629 94.1189 37.3882C93.4532 37.0484 92.7157 36.8736 91.9683 36.8783H79.9077V48.8071H91.6561C92.4302 48.8128 93.1957 48.6457 93.8969 48.3181C94.5807 48.0022 95.1977 47.5583 95.7145 47.0104C96.2357 46.4572 96.6487 45.8113 96.932 45.106C97.2247 44.3952 97.3755 43.634 97.376 42.8653Z" fill="white"/>
<path d="M105.802 58.6159C106.037 58.6436 106.266 58.6644 106.495 58.6818C106.724 58.6991 106.932 58.7026 107.137 58.7026C107.57 58.7219 108.002 58.6461 108.403 58.4806C108.794 58.25 109.109 57.9115 109.312 57.5059C109.698 56.808 110.03 56.0822 110.307 55.3345C110.68 54.3887 111.205 53.1169 111.882 51.5189L101.823 28.4175H104.927L113.467 48.7266L121.404 28.4209H124.286L112.316 58.217C111.979 59.0905 111.421 59.8615 110.696 60.4543C109.944 61.0902 108.918 61.4082 107.616 61.4082C107.322 61.4082 107.041 61.4012 106.773 61.3874C106.506 61.3874 106.183 61.3353 105.798 61.2764L105.802 58.6159Z" fill="white"/>
<path d="M138.566 50.413C138.389 50.4997 138.129 50.6211 137.789 50.7598C137.449 50.8986 137.06 51.0547 136.616 51.2038C136.122 51.3659 135.618 51.4991 135.108 51.6027C134.524 51.7229 133.93 51.7821 133.335 51.7796C132.705 51.7833 132.077 51.6945 131.472 51.516C130.905 51.351 130.377 51.0712 129.922 50.6939C129.469 50.3152 129.106 49.8415 128.857 49.3065C128.58 48.6948 128.443 48.0286 128.458 47.3571V30.8149H125.26V28.4215H128.455V20.6169H131.469V28.4215H136.79V30.8149H131.472V46.5107C131.471 46.873 131.552 47.2308 131.71 47.5571C131.867 47.8834 132.097 48.1697 132.381 48.3942C132.927 48.793 133.588 49.0036 134.265 48.9943C135.04 49.0113 135.81 48.8672 136.526 48.5711C136.954 48.4026 137.369 48.2032 137.768 47.9745L138.566 50.413Z" fill="white"/>
<path d="M150.717 51.9633C149.119 51.984 147.534 51.6598 146.072 51.0128C144.691 50.3915 143.447 49.5012 142.413 48.394C141.37 47.2803 140.546 45.98 139.985 44.5611C139.401 43.0779 139.107 41.4966 139.118 39.9026C139.109 38.3314 139.403 36.7733 139.985 35.3136C140.537 33.9178 141.349 32.6396 142.378 31.5466C143.428 30.4575 144.683 29.5885 146.072 28.9902C148.213 28.0264 150.602 27.7567 152.903 28.2189C155.205 28.6811 157.304 29.852 158.907 31.5674C160.975 33.8324 162.115 36.7936 162.098 39.861V40.5548C162.104 40.7191 162.089 40.8835 162.053 41.0438H142.281C142.358 42.2315 142.65 43.3953 143.145 44.4778C143.608 45.4918 144.247 46.416 145.032 47.2077C145.788 47.9686 146.683 48.5774 147.668 49.001C148.669 49.4331 149.748 49.6528 150.838 49.6462C151.588 49.6447 152.334 49.5396 153.055 49.334C153.768 49.1402 154.453 48.857 155.094 48.4911C155.715 48.1368 156.283 47.6966 156.78 47.1834C157.267 46.6914 157.658 46.1125 157.932 45.4768L160.547 46.1879C160.191 47.0486 159.681 47.8373 159.042 48.5154C158.375 49.2221 157.614 49.8337 156.78 50.333C155.895 50.8618 154.94 51.2646 153.943 51.5297C152.892 51.8162 151.807 51.962 150.717 51.9633V51.9633ZM159.229 38.751C159.156 37.5762 158.863 36.4254 158.365 35.3587C157.904 34.3777 157.273 33.4855 156.503 32.7225C155.749 31.983 154.862 31.3944 153.887 30.9881C152.882 30.5723 151.805 30.3613 150.717 30.3672C149.622 30.362 148.536 30.573 147.522 30.9881C146.54 31.3907 145.645 31.9797 144.886 32.7225C144.117 33.4856 143.5 34.3886 143.069 35.3829C142.601 36.4494 142.323 37.5891 142.246 38.751H159.229Z" fill="white"/>
<path d="M191.065 43.4063C191.104 44.5833 190.851 45.7516 190.329 46.8071C189.807 47.8626 189.031 48.7725 188.072 49.4557C187.093 50.1587 185.997 50.6835 184.836 51.0062C183.559 51.3666 182.239 51.5453 180.913 51.5369H165.702V20.0412H182.553C183.585 20.0235 184.605 20.2619 185.522 20.7349C186.391 21.193 187.16 21.8191 187.784 22.5768C188.414 23.3505 188.902 24.2302 189.224 25.1749C189.558 26.1075 189.731 27.0907 189.733 28.0816C189.74 29.5989 189.342 31.0905 188.582 32.4036C187.818 33.7439 186.634 34.7958 185.214 35.3971C186.912 35.86 188.413 36.8633 189.491 38.2553C190.538 39.6196 191.063 41.3366 191.065 43.4063ZM171.821 25.272V33.2083H179.98C180.468 33.2176 180.954 33.1284 181.407 32.946C181.861 32.7637 182.273 32.4919 182.619 32.1469C182.991 31.7592 183.279 31.2994 183.466 30.7958C183.653 30.2922 183.734 29.7557 183.705 29.2193C183.762 28.1648 183.403 27.1301 182.706 26.3369C182.396 25.9937 182.016 25.721 181.592 25.5373C181.168 25.3535 180.709 25.2631 180.247 25.272H171.821ZM184.902 42.2685C184.902 41.7158 184.805 41.1673 184.614 40.6487C184.435 40.157 184.172 39.7003 183.837 39.2993C183.519 38.9197 183.127 38.6092 182.685 38.3871C182.229 38.1654 181.728 38.0526 181.221 38.0576H171.821V46.3338H180.913C181.452 46.338 181.987 46.2318 182.484 46.0217C182.961 45.8244 183.392 45.5303 183.75 45.158C184.493 44.3746 184.906 43.3346 184.902 42.2547V42.2685Z" fill="white"/>
<path d="M201.349 51.9632C198.956 51.9632 197.138 51.1955 195.897 49.66C194.655 48.1246 194.034 45.8479 194.034 42.8302V28.2964H199.976V41.5537C199.976 45.1334 201.262 46.9221 203.833 46.9198C205.027 46.9078 206.19 46.546 207.18 45.8792C208.34 45.0905 209.254 43.992 209.82 42.7088V28.2964H215.762V44.7033C215.724 45.1726 215.846 45.6409 216.109 46.0318C216.248 46.1779 216.417 46.2929 216.604 46.3694C216.791 46.4459 216.992 46.4821 217.194 46.4758V51.5366C216.704 51.6381 216.208 51.7111 215.71 51.7551C215.307 51.7863 214.947 51.8002 214.621 51.8002C213.7 51.8426 212.791 51.5858 212.029 51.0683C211.703 50.8334 211.43 50.5326 211.228 50.1855C211.025 49.8383 210.898 49.4525 210.854 49.053L210.718 47.1903C209.745 48.7321 208.365 49.9746 206.729 50.7804C205.052 51.5861 203.21 51.991 201.349 51.9632Z" fill="white"/>
<path d="M220.65 25.0494V19.1526H226.582V25.0494H220.65ZM220.65 51.5363V28.296H226.582V51.5363H220.65Z" fill="white"/>
<path d="M230.879 19.1526H236.821V44.0716C236.776 44.7901 236.997 45.5 237.442 46.0661C237.668 46.3058 237.945 46.4924 238.252 46.6123C238.559 46.7323 238.889 46.7827 239.218 46.7599C239.615 46.7536 240.009 46.6941 240.39 46.583C240.808 46.4685 241.217 46.32 241.611 46.139L242.409 50.6483C241.519 51.0605 240.581 51.3578 239.617 51.5328C238.668 51.7286 237.703 51.8332 236.734 51.845C234.873 51.845 233.431 51.3501 232.409 50.3604C231.387 49.3706 230.877 47.9589 230.879 46.1251V19.1526Z" fill="white"/>
<path d="M253.581 51.9629C252.085 51.9792 250.603 51.6754 249.234 51.0717C247.866 50.4681 246.642 49.5786 245.645 48.463C244.651 47.338 243.877 46.0368 243.363 44.6266C242.806 43.1143 242.527 41.5137 242.541 39.9023C242.527 38.3037 242.79 36.7148 243.318 35.2057C243.802 33.816 244.53 32.5238 245.468 31.3901C246.367 30.3102 247.486 29.434 248.749 28.8198C250.047 28.1927 251.471 27.8734 252.912 27.8867C254.542 27.8649 256.146 28.2947 257.546 29.1285C258.877 29.9145 259.984 31.0288 260.762 32.3648V19.1526H266.703V44.6925C266.662 45.157 266.77 45.6226 267.012 46.021C267.147 46.1671 267.312 46.2824 267.496 46.359C267.68 46.4356 267.878 46.4717 268.077 46.465V51.5362C267.246 51.7179 266.399 51.8213 265.548 51.845C264.611 51.8836 263.689 51.6023 262.933 51.0472C262.606 50.8002 262.335 50.4873 262.136 50.1288C261.938 49.7703 261.817 49.3741 261.781 48.9659L261.646 47.5022C260.842 48.9332 259.636 50.097 258.177 50.8494C256.758 51.5876 255.181 51.9697 253.581 51.9629V51.9629ZM255.132 46.909C255.721 46.9044 256.307 46.8072 256.866 46.6211C257.451 46.4324 258.004 46.1564 258.507 45.8025C259.008 45.4473 259.463 45.0301 259.86 44.5607C260.251 44.0998 260.559 43.5738 260.768 43.0067V37.4568C260.533 36.81 260.195 36.2046 259.77 35.6635C259.351 35.1242 258.858 34.6466 258.306 34.2448C257.772 33.8527 257.189 33.5321 256.571 33.2909C255.999 33.0641 255.39 32.9465 254.775 32.9441C253.92 32.9357 253.077 33.1332 252.315 33.5199C251.566 33.8991 250.908 34.4364 250.387 35.0947C249.843 35.7772 249.423 36.5497 249.145 37.3771C248.848 38.2325 248.698 39.132 248.701 40.0376C248.692 40.9622 248.858 41.8802 249.19 42.7431C249.496 43.542 249.947 44.278 250.519 44.9145C251.083 45.5364 251.771 46.0347 252.537 46.3783C253.354 46.7395 254.239 46.9205 255.132 46.909V46.909Z" fill="white"/>
<path d="M282.312 51.9628C280.581 51.9886 278.862 51.6653 277.258 51.0123C275.811 50.4146 274.499 49.5309 273.401 48.4143C272.334 47.3191 271.497 46.0219 270.938 44.5987C270.362 43.1463 270.068 41.5968 270.075 40.034C270.064 38.4355 270.35 36.8491 270.918 35.3547C271.459 33.9188 272.285 32.607 273.346 31.4975C274.445 30.3636 275.765 29.4665 277.224 28.8613C278.847 28.1894 280.59 27.8566 282.347 27.8831C284.088 27.8537 285.816 28.1868 287.422 28.8613C288.855 29.4697 290.153 30.359 291.237 31.4767C292.286 32.5728 293.1 33.871 293.631 35.2923C294.176 36.7329 294.455 38.261 294.453 39.8016C294.453 40.1866 294.453 40.5543 294.428 40.9115C294.421 41.2094 294.384 41.5057 294.317 41.7961H276.37C276.442 42.6393 276.668 43.4622 277.036 44.2241C277.71 45.5984 278.884 46.6622 280.318 47.1968C281.027 47.4618 281.777 47.597 282.534 47.5957C283.706 47.5989 284.859 47.3002 285.882 46.7285C286.845 46.2446 287.606 45.4364 288.032 44.4461L293.131 45.8648C292.224 47.6923 290.798 49.2115 289.031 50.2319C287.149 51.3858 284.909 51.9628 282.312 51.9628ZM288.344 37.9527C288.265 36.3592 287.572 34.858 286.412 33.7626C285.29 32.7318 283.82 32.1616 282.296 32.1654C280.772 32.1693 279.305 32.7469 278.188 33.7834C277.644 34.3046 277.2 34.922 276.88 35.6044C276.533 36.342 276.331 37.1391 276.284 37.9527H288.344Z" fill="white"/>
<path d="M310.912 33.43C309.246 33.4295 307.599 33.7843 306.08 34.4706C304.733 35.0646 303.646 36.1268 303.021 37.4606V51.5365H297.079V28.2963H302.532V33.2635C302.929 32.4889 303.421 31.7665 303.996 31.1129C304.539 30.4939 305.148 29.9367 305.813 29.4514C306.419 29.0022 307.083 28.637 307.787 28.3657C308.401 28.1226 309.055 27.9945 309.716 27.9876H310.447C310.603 27.9866 310.759 28.0017 310.912 28.0327V33.43Z" fill="white"/>
<path d="M321.994 51.9637C320.051 51.9654 318.12 51.6515 316.278 51.0341C314.521 50.4724 312.893 49.5681 311.487 48.3736L313.704 44.6482C314.991 45.5797 316.389 46.3475 317.866 46.9341C319.145 47.4373 320.505 47.6996 321.879 47.7076C322.849 47.7564 323.812 47.5252 324.654 47.0416C324.979 46.8437 325.244 46.5628 325.423 46.2281C325.602 45.8933 325.689 45.5167 325.674 45.1373C325.684 44.7484 325.575 44.3657 325.361 44.0407C325.147 43.7158 324.839 43.4641 324.478 43.3197C323.214 42.7721 321.91 42.3267 320.575 41.9877C319.07 41.5738 317.784 41.1749 316.718 40.791C315.802 40.4831 314.936 40.0425 314.148 39.4833C313.541 39.0494 313.053 38.4697 312.729 37.7976C312.416 37.0782 312.265 36.2992 312.285 35.5152C312.27 34.4124 312.507 33.3207 312.979 32.324C313.432 31.3802 314.091 30.5504 314.907 29.8959C315.773 29.2101 316.759 28.6914 317.814 28.3662C318.983 28.003 320.201 27.8239 321.425 27.8355C323.089 27.8223 324.743 28.0764 326.326 28.5882C327.874 29.1032 329.3 29.9295 330.517 31.0163L328.123 34.6064C327.075 33.7972 325.918 33.1409 324.686 32.657C323.631 32.2538 322.513 32.0435 321.383 32.0361C320.499 32.0058 319.624 32.2207 318.855 32.657C318.519 32.8642 318.246 33.1598 318.066 33.5115C317.886 33.8632 317.806 34.2575 317.835 34.6515C317.82 35.0073 317.904 35.3602 318.078 35.6712C318.274 35.9685 318.541 36.2128 318.855 36.3823C319.296 36.6271 319.761 36.827 320.242 36.9789C320.818 37.1732 321.533 37.3709 322.393 37.579C323.988 37.993 325.355 38.4069 326.493 38.8208C327.48 39.1605 328.414 39.6381 329.268 40.2395C329.942 40.7125 330.49 41.3438 330.863 42.0779C331.223 42.8628 331.397 43.7195 331.373 44.5823C331.373 46.8624 330.532 48.6592 328.848 49.9726C327.165 51.2861 324.88 51.9498 321.994 51.9637Z" fill="white"/>
</g>
<defs>
<clipPath id="clip0_4711_3192">
<rect width="331.048" height="60.8823" fill="white" transform="translate(0.611084 0.525879)"/>
</clipPath>
</defs>
</svg>
