<svg width="332" height="92" viewBox="0 0 332 92" fill="none" xmlns="http://www.w3.org/2000/svg">
<path d="M232.825 85.6977C232.775 85.8771 232.665 86.0341 232.514 86.1429C232.363 86.2517 232.18 86.3058 231.994 86.2963C231.502 86.2963 231.125 85.997 230.709 85.7681C230.658 85.7421 230.615 85.7045 230.582 85.6584C230.55 85.6124 230.528 85.5592 230.52 85.5032C230.52 85.3146 230.634 85.1261 230.709 84.936C230.783 84.746 230.858 84.5215 230.936 84.3374C231.089 83.9247 231.266 83.521 231.464 83.1283C231.692 82.6374 231.88 82.184 232.106 81.6932C232.371 81.126 232.636 80.5977 232.862 80.0306C233.161 79.432 233.461 78.8214 233.769 78.1794C233.806 78.1046 233.844 78.0298 233.883 77.9534C234.481 76.7069 235.09 75.4214 235.695 74.1748C236.144 73.2305 236.527 72.2488 236.904 71.2671C237.13 70.6251 237.432 69.9831 237.32 69.3022C237.244 68.8114 236.829 68.5465 236.678 68.0931C236.413 67.3448 238.188 67.2999 238.604 67.2251C239.246 67.1488 239.888 67.0755 240.53 67.0366C241.021 66.9977 241.551 66.9977 242.041 66.9977C242.457 66.9977 242.986 66.9602 243.325 67.1877C243.741 67.4511 243.741 68.132 243.816 68.5854C243.93 69.3238 244.006 70.0676 244.044 70.8137C244.081 71.2297 244.081 71.6442 244.081 72.0977C244.119 73.4206 244.157 74.742 244.157 76.0649V78.8214C244.157 81.0123 244.346 82.5237 244.723 83.4306C244.873 83.7703 245.022 83.9214 245.139 83.9214C245.429 83.9039 245.712 83.8265 245.97 83.694C246.148 83.6031 246.313 83.4888 246.461 83.3542C246.61 83.2794 246.76 83.1657 246.91 83.3542C247.023 83.468 247.059 83.6535 247.137 83.7703C247.215 83.887 247.326 83.9962 247.287 84.1474C247.248 84.2985 247.097 84.3749 246.987 84.4467L246.538 84.7864C246.238 85.0079 245.923 85.2079 245.594 85.385C245.413 85.4891 245.223 85.5777 245.027 85.6499C244.308 86.0022 243.522 86.1956 242.722 86.217C242.343 86.201 241.971 86.111 241.627 85.9522C241.3 85.8326 241.013 85.6255 240.796 85.3536C240.154 84.5604 240.003 83.465 239.927 82.4833V81.4627C239.934 81.2221 239.959 80.9825 240.003 80.7459C240.041 80.5184 240.153 80.2535 240.041 80.0276C239.966 79.839 239.741 79.8001 239.55 79.7627C238.378 79.6938 237.203 79.7194 236.036 79.839C235.587 79.8764 235.017 79.839 234.715 80.2535C234.489 80.5528 234.375 81.0467 234.224 81.4253C234.035 81.8742 233.845 82.3321 233.694 82.823C233.582 83.0879 233.506 83.3513 233.395 83.6161C233.281 83.9154 233.167 84.2581 233.054 84.5604C233.026 84.9477 232.949 85.3299 232.825 85.6977ZM240.157 78.2153L240.195 75.1176C240.195 72.3985 240.081 70.5473 239.855 69.603C239.741 69.5922 239.625 69.6049 239.515 69.6404C239.025 71.0008 238.532 72.1725 238.118 73.1542C237.669 74.0985 237.211 75.1176 236.683 76.213C236.19 77.3084 235.851 77.9893 235.738 78.2542L240.157 78.2153V78.2153Z" fill="#193D4B"/>
<path d="M247.859 74.6286C247.973 74.5912 248.086 74.5912 248.199 74.5538C248.426 74.5164 248.648 74.4775 248.842 74.4401C249.431 74.3649 250.024 74.3269 250.617 74.3263C250.994 74.3263 251.41 74.3263 251.787 74.2889C251.901 74.2889 252.052 74.2515 252.166 74.3652C252.22 74.4724 252.258 74.5868 252.28 74.7049C252.317 74.8187 252.354 74.9309 252.392 75.0821C252.431 75.1958 252.431 75.3469 252.468 75.4981C252.462 75.5753 252.475 75.6528 252.506 75.724C252.506 75.763 252.543 75.9141 252.506 75.9141C253.866 74.7798 255.036 74.2141 255.947 74.2141C256.387 74.2058 256.822 74.3087 257.212 74.5132C257.601 74.7178 257.933 75.0174 258.176 75.3843C258.743 76.1401 259.008 77.2729 259.008 78.7469C259.008 81.3523 258.517 83.2798 257.571 84.5264C256.673 85.734 255.306 86.4898 253.794 86.4149C253.297 86.398 252.804 86.3222 252.324 86.189C252.136 86.1141 251.908 86.0393 251.908 85.7744C251.901 85.6114 251.954 85.4514 252.058 85.3255C252.16 85.2532 252.276 85.2023 252.398 85.1759C252.512 85.0995 252.663 85.0262 252.776 84.9484C253.04 84.7928 253.281 84.6026 253.493 84.3827C254.015 83.8661 254.426 83.2491 254.702 82.569C255.301 81.1338 255.647 79.3201 255.151 77.8101C255.002 77.3612 254.735 76.8659 254.282 76.7147C253.905 76.5651 253.534 76.7147 253.225 76.9781C252.432 77.659 252.242 78.8667 252.13 79.8499C251.902 81.3987 251.681 82.9087 251.337 84.4575C251.102 85.4541 250.925 86.4634 250.807 87.4804C250.693 88.3858 250.542 89.2927 250.508 90.1621V90.9179C250.508 91.1064 250.508 91.295 250.358 91.4087C250.17 91.5584 249.909 91.5584 249.679 91.5973C249.323 91.7101 248.955 91.7834 248.583 91.8158C248.387 91.8599 248.186 91.8855 247.985 91.8921C247.759 91.9295 247.494 91.9295 247.266 91.9669C247.117 92.0126 246.957 91.9992 246.817 91.9295L246.78 91.8921C246.63 91.7783 246.63 91.5524 246.63 91.3638V90.6784C246.643 90.2217 246.693 89.7667 246.78 89.3181C246.856 88.941 246.894 88.525 246.969 88.1479C247.045 87.657 247.159 87.1662 247.268 86.6753C247.382 86.0767 247.533 85.4662 247.646 84.8616C247.646 84.7853 247.684 84.7119 247.684 84.6341C248.363 81.4242 248.742 78.9684 248.742 77.231C248.736 76.8548 248.658 76.4832 248.514 76.1356C248.412 75.8846 248.286 75.6441 248.137 75.4173C248.061 75.305 247.988 75.1913 247.91 75.0776C247.862 75.0363 247.827 74.9829 247.807 74.9231C247.787 74.8633 247.784 74.7993 247.798 74.7379C247.708 74.7049 247.784 74.666 247.859 74.6286Z" fill="#193D4B"/>
<path d="M281.328 82.5235C281.328 83.6564 280.837 84.5632 279.854 85.2816C279.504 85.5219 279.123 85.7123 278.721 85.8472L278.041 86.0747C277.537 86.2206 277.017 86.3089 276.493 86.3381C275.435 86.4144 274.225 86.2633 273.319 85.6587C272.57 85.1304 272.262 84.261 272.753 83.4304C273.167 82.6747 274.074 82.1075 274.944 82.2587C275.888 82.4083 276.341 83.3541 276.644 84.1098C276.719 84.2984 276.756 84.4495 276.832 84.6381C276.907 84.9029 277.097 85.087 277.361 85.0167C277.503 84.975 277.632 84.8984 277.736 84.7938C277.841 84.6892 277.918 84.56 277.959 84.4181C277.99 84.3077 278.003 84.1929 277.997 84.0784C277.997 83.2478 277.28 82.0761 275.806 80.5646C274.371 79.0547 273.615 77.8455 273.615 76.9386C273.615 76.0318 274.031 75.3524 274.824 74.8615C275.617 74.3707 276.6 74.1133 277.733 74.1133C278.866 74.1133 279.736 74.3018 280.301 74.7119C280.867 75.1219 281.171 75.6562 281.171 76.3356C281.171 77.015 280.647 77.9578 279.551 79.1998L280.044 79.6907C280.232 79.8792 280.493 80.2893 280.837 80.8609C281.177 81.5029 281.328 82.0327 281.328 82.5235ZM279.893 76.4044C279.893 75.7624 279.477 75.4601 278.607 75.4601C278.248 75.4387 277.892 75.5309 277.588 75.7235C277.323 75.9136 277.172 76.1021 277.172 76.2907C277.172 76.6678 277.551 77.235 278.344 77.9533L278.758 78.293C279.514 77.6884 279.893 77.0464 279.893 76.4044V76.4044Z" fill="#193D4B"/>
<path d="M288.918 86.378C287.257 86.378 285.86 85.6971 284.802 84.3383C283.706 82.978 283.178 81.2406 283.178 79.0497C283.152 77.0041 283.537 74.9742 284.311 73.0803C284.993 71.3716 286.098 69.864 287.522 68.6985C288.918 67.5657 290.393 66.9985 291.979 66.9985C293.565 66.9985 294.849 67.3397 295.832 68.0566C296.815 68.7734 297.305 69.6428 297.305 70.626C297.304 71.1009 297.227 71.5726 297.079 72.0237C296.983 72.3493 296.831 72.6557 296.63 72.9291C296.331 73.3077 295.988 73.1566 295.572 73.0788C295.195 73.0039 294.854 72.8902 294.476 72.7795C294 72.6299 293.554 72.4001 293.155 72.1001C292.776 71.8352 292.928 71.5329 293.005 71.1558C293.043 70.8909 293.118 70.6275 293.155 70.3626C293.192 70.0978 293.267 69.8344 293.305 69.6069C293.38 69.158 293.228 69.0083 292.812 68.8512C292.457 68.7439 292.088 68.6934 291.717 68.7015C290.621 68.7015 289.677 69.6458 288.809 71.497C287.977 73.3486 287.562 75.6532 287.563 78.4107C287.563 80.223 287.862 81.507 288.47 82.339C289.077 83.1711 289.791 83.5467 290.66 83.5467C291.215 83.5422 291.764 83.4409 292.284 83.2474C292.865 83.0292 293.402 82.7089 293.87 82.3016C294.059 82.152 294.21 82.0023 294.4 81.8527C294.474 81.7482 294.579 81.6689 294.699 81.6252C294.849 81.5878 294.925 81.7015 295.039 81.7748C295.206 81.9484 295.382 82.1122 295.567 82.2657C295.717 82.3794 295.867 82.565 295.717 82.7565C295.603 82.9062 295.452 83.0214 295.34 83.1726L294.773 83.7397C294.299 84.1902 293.794 84.6067 293.261 84.9863C292.677 85.3686 292.045 85.6725 291.382 85.8902C290.597 86.2024 289.763 86.3678 288.918 86.378V86.378Z" fill="#00A651"/>
<path d="M300.857 86.3768C299.61 86.3768 298.666 85.9608 297.948 85.0913C297.268 84.2233 296.891 83.0142 296.891 81.4653C296.891 79.463 297.419 77.763 298.477 76.3279C299.535 74.8927 301.008 74.1744 302.897 74.1744L303.878 74.2133C304.196 74.0582 304.545 73.9803 304.899 73.9859C306.297 73.9859 307.013 75.3088 307.013 77.9905C307.763 77.9442 308.508 77.8442 309.243 77.6912L309.658 77.5774L309.807 78.6355C309.041 78.9475 308.243 79.1753 307.428 79.3149L306.9 79.4286C306.56 81.3172 305.879 82.9423 304.821 84.3401C303.841 85.6585 302.48 86.3768 300.857 86.3768ZM302.329 84.0722C303.085 84.0722 303.766 83.5813 304.369 82.6371C304.957 81.696 305.379 80.6608 305.616 79.5768C303.69 79.5768 302.745 78.8584 302.745 77.4233C302.745 76.8644 302.861 76.3116 303.085 75.7996L303.235 75.5347C303.151 75.5013 303.061 75.4885 302.971 75.4973C302.858 75.4973 302.781 75.4973 302.744 75.5347C302.295 75.834 301.876 76.479 301.497 77.537C301.091 78.7023 300.888 79.9289 300.899 81.163C300.857 83.0905 301.348 84.0722 302.329 84.0722Z" fill="#00A651"/>
<path d="M320.765 84.4125C320.765 84.4499 320.726 84.4888 320.688 84.5262C320.478 84.7226 320.251 84.8995 320.009 85.0545C319.709 85.2759 319.393 85.476 319.065 85.653C318.574 85.9179 318.081 86.1813 317.553 86.295C317.291 86.339 317.026 86.3645 316.76 86.3714C315.588 86.3714 314.946 85.8042 314.758 84.6713C314.236 85.1956 313.621 85.6183 312.944 85.9179C312.265 86.2172 311.697 86.3669 311.207 86.3669C310.339 86.3669 309.62 85.9883 309.016 85.2325C308.411 84.4768 308.109 83.3066 308.109 81.7577C308.109 79.3783 308.601 77.5271 309.62 76.2042C310.641 74.8454 311.736 74.1645 313.02 74.1645C314.267 74.1645 315.325 74.4638 316.193 75.034C316.383 73.976 316.572 72.9179 316.723 71.8614C316.835 70.992 316.911 70.1614 316.986 69.292C317.032 68.713 317.019 68.131 316.949 67.5545C316.911 67.2552 316.986 66.9874 317.327 66.9125C317.496 66.8799 317.66 66.8297 317.818 66.7629C318.267 66.6492 318.725 66.5354 319.216 66.4636C319.463 66.4222 319.713 66.3972 319.964 66.3888C320.379 66.3499 320.908 66.1987 320.983 66.7659C321.097 67.5964 321.021 68.4285 320.946 69.259C320.87 69.7868 320.794 70.3156 320.718 70.8453C320.643 71.4873 320.492 72.1293 320.379 72.7713C320.229 73.527 320.114 74.3202 319.964 75.0759C319.925 75.1896 319.925 75.2644 319.888 75.3752C319.095 79.3798 318.717 82.0989 318.717 83.534C318.717 83.95 318.83 84.1775 319.017 84.1775C319.17 84.154 319.314 84.0882 319.433 83.9875C319.547 83.9126 319.698 83.8378 319.811 83.7615C319.915 83.6726 320.029 83.5963 320.151 83.534C320.263 83.4966 320.34 83.5729 320.414 83.6478C320.491 83.7615 320.564 83.9126 320.642 84.0264C320.688 84.1476 320.802 84.2613 320.765 84.4125ZM314.342 75.7239C313.7 75.7239 313.171 76.3225 312.718 77.575C312.276 78.7468 312.044 79.9875 312.034 81.2399C312.034 82.4476 312.109 83.2033 312.298 83.543C312.356 83.694 312.46 83.8229 312.596 83.9113C312.732 83.9996 312.892 84.0431 313.053 84.0353C313.652 84.0353 314.225 83.8079 314.791 83.317C314.83 82.5987 315.24 80.2193 316 76.1773C315.4 75.9139 314.834 75.7239 314.342 75.7239Z" fill="#00A651"/>
<path d="M321.443 81.3916C321.443 79.1618 322.122 77.387 323.483 76.103C324.843 74.819 326.353 74.1755 328.092 74.1755C329.148 74.1755 330.017 74.4399 330.697 74.9687C331.023 75.2067 331.286 75.5202 331.464 75.8822C331.641 76.2443 331.729 76.6441 331.718 77.0473C331.736 77.8264 331.511 78.5919 331.076 79.2381C330.661 79.8095 330.117 80.2754 329.489 80.5985C328.204 81.2405 327.071 81.6176 326.013 81.7687L325.371 81.845C325.485 83.5435 326.202 84.3756 327.448 84.3756C327.921 84.3617 328.385 84.2458 328.809 84.0359C329.018 83.9581 329.219 83.8578 329.407 83.7366C329.611 83.6191 329.801 83.4795 329.974 83.3206C330.124 83.2068 330.274 83.0946 330.465 83.2457C330.574 83.3637 330.674 83.4898 330.764 83.6229C330.839 83.7366 330.99 83.8114 330.914 84C330.86 84.1046 330.782 84.1952 330.687 84.2648L330.121 84.7138C329.748 85.0215 329.343 85.2874 328.912 85.5069C327.871 86.0809 326.701 86.3801 325.512 86.3764C324.265 86.3764 323.321 85.9274 322.603 85.0535C321.82 84.187 321.443 82.9779 321.443 81.3916ZM327.447 79.3519C327.977 78.7533 328.241 77.9542 328.241 77.0099C328.241 76.0267 327.942 75.5733 327.372 75.5733C326.693 75.5733 326.163 76.1404 325.786 77.3107C325.427 78.357 325.235 79.4535 325.219 80.5595C326.202 80.371 326.92 79.955 327.447 79.3519Z" fill="#00A651"/>
<path d="M260.663 74.6286C260.777 74.5912 260.89 74.5912 261.004 74.5538C261.23 74.5164 261.453 74.4775 261.646 74.4401C262.235 74.3649 262.827 74.3269 263.421 74.3263C263.798 74.3263 264.214 74.3263 264.593 74.2889C264.705 74.2889 264.856 74.2515 264.97 74.3652C265.024 74.4724 265.062 74.5868 265.083 74.7049C265.121 74.8187 265.158 74.9309 265.196 75.0821C265.235 75.1958 265.235 75.3469 265.272 75.4981C265.266 75.5753 265.279 75.6528 265.309 75.724C265.309 75.763 265.347 75.9141 265.309 75.9141C266.67 74.7798 267.84 74.2141 268.751 74.2141C269.191 74.2058 269.626 74.3087 270.016 74.5132C270.405 74.7178 270.737 75.0174 270.98 75.3843C271.547 76.1401 271.812 77.2729 271.812 78.7469C271.812 81.3523 271.321 83.2798 270.376 84.5264C269.47 85.734 268.109 86.4898 266.598 86.4149C266.1 86.3978 265.605 86.3214 265.125 86.1875C264.937 86.1126 264.709 86.0378 264.709 85.7729C264.702 85.6099 264.755 85.4499 264.859 85.324C264.961 85.2517 265.076 85.2008 265.199 85.1744C265.312 85.098 265.464 85.0247 265.577 84.9469C265.841 84.7917 266.082 84.6014 266.294 84.3812C266.816 83.8646 267.227 83.2476 267.503 82.5675C268.102 81.1323 268.448 79.3186 267.952 77.8086C267.803 77.3597 267.536 76.8644 267.083 76.7132C266.706 76.5636 266.334 76.7132 266.026 76.9766C265.233 77.6575 265.043 78.8652 264.931 79.8484C264.703 81.3972 264.482 82.9072 264.138 84.456C263.903 85.4526 263.726 86.4619 263.608 87.4789C263.494 88.3843 263.344 89.2912 263.309 90.1606V90.9164C263.309 91.1049 263.309 91.2935 263.159 91.4072C262.97 91.5569 262.71 91.5569 262.48 91.5958C262.124 91.7111 261.756 91.7869 261.384 91.8217C261.187 91.8659 260.987 91.8915 260.786 91.8981C260.56 91.9355 260.295 91.9355 260.067 91.9729C259.918 92.0194 259.757 92.0059 259.618 91.9355L259.579 91.8981C259.43 91.7843 259.43 91.5584 259.43 91.3698V90.6784C259.443 90.2217 259.493 89.7667 259.579 89.3181C259.656 88.941 259.693 88.525 259.769 88.1479C259.844 87.657 259.958 87.1662 260.069 86.6753C260.182 86.0767 260.334 85.4662 260.447 84.8616C260.447 84.7853 260.485 84.7119 260.485 84.6341C261.164 81.4242 261.543 78.9684 261.543 77.231C261.536 76.8548 261.459 76.4832 261.315 76.1356C261.213 75.8846 261.087 75.6441 260.938 75.4173L260.703 75.0821C260.655 75.0411 260.619 74.9879 260.599 74.928C260.579 74.8681 260.576 74.804 260.589 74.7424C260.512 74.7049 260.588 74.666 260.663 74.6286Z" fill="#193D4B"/>
<path d="M194.08 64.3554H196.629V82.5301L196.41 85.4084H194.08V64.3554ZM206.648 77.8699V78.1578C206.648 79.236 206.52 80.2366 206.265 81.1595C206.009 82.0732 205.634 82.8682 205.141 83.5444C204.647 84.2206 204.044 84.746 203.331 85.1206C202.619 85.4953 201.801 85.6826 200.878 85.6826C199.937 85.6826 199.11 85.5227 198.397 85.2029C197.693 84.8739 197.1 84.4033 196.615 83.7911C196.131 83.1789 195.743 82.4387 195.45 81.5707C195.167 80.7026 194.97 79.7249 194.861 78.6375V77.3765C194.97 76.28 195.167 75.2977 195.45 74.4296C195.743 73.5616 196.131 72.8214 196.615 72.2092C197.1 71.5878 197.693 71.1173 198.397 70.7974C199.101 70.4685 199.918 70.304 200.85 70.304C201.783 70.304 202.609 70.4868 203.331 70.8523C204.053 71.2086 204.656 71.7203 205.141 72.3874C205.634 73.0544 206.009 73.854 206.265 74.786C206.52 75.7089 206.648 76.7369 206.648 77.8699ZM204.099 78.1578V77.8699C204.099 77.1298 204.03 76.4353 203.893 75.7866C203.756 75.1287 203.537 74.553 203.235 74.0596C202.934 73.557 202.536 73.1641 202.043 72.8808C201.55 72.5884 200.942 72.4422 200.22 72.4422C199.58 72.4422 199.023 72.5519 198.548 72.7712C198.082 72.9905 197.684 73.2874 197.355 73.6621C197.026 74.0276 196.757 74.4479 196.547 74.9231C196.346 75.3891 196.195 75.8734 196.094 76.3759V79.6792C196.241 80.3188 196.478 80.9356 196.807 81.5295C197.145 82.1143 197.593 82.5941 198.15 82.9687C198.717 83.3434 199.416 83.5307 200.247 83.5307C200.933 83.5307 201.518 83.3936 202.002 83.1195C202.495 82.8362 202.893 82.4479 203.194 81.9544C203.505 81.461 203.733 80.8899 203.88 80.2411C204.026 79.5924 204.099 78.8979 204.099 78.1578ZM213.858 83.8733L217.983 70.5781H220.697L214.749 87.6974C214.612 88.0629 214.429 88.4558 214.201 88.8762C213.981 89.3056 213.698 89.7123 213.351 90.096C213.003 90.4798 212.583 90.7905 212.09 91.0281C211.605 91.2748 211.025 91.3981 210.349 91.3981C210.148 91.3981 209.892 91.3707 209.581 91.3159C209.271 91.2611 209.051 91.2154 208.924 91.1788L208.91 89.1229C208.983 89.132 209.097 89.1412 209.253 89.1503C209.417 89.1686 209.531 89.1777 209.595 89.1777C210.171 89.1777 210.66 89.1 211.062 88.9447C211.464 88.7985 211.802 88.5472 212.076 88.1908C212.359 87.8436 212.601 87.3639 212.802 86.7517L213.858 83.8733ZM210.829 70.5781L214.68 82.0915L215.338 84.7642L213.515 85.6963L208.06 70.5781H210.829Z" fill="#193D4B"/>
<g clip-path="url(#clip0_4711_3107)">
<path d="M6.55523 34.3631C6.55496 32.56 7.02319 30.7879 7.91401 29.2202C8.80484 27.6526 10.0877 26.3434 11.6369 25.4208V18.9309C9.78543 19.5699 8.06412 20.5369 6.55523 21.7856V8.38262C6.55523 7.60597 6.40225 6.83692 6.10504 6.11939C5.80783 5.40185 5.3722 4.74989 4.82302 4.20071C4.27385 3.65154 3.62188 3.21591 2.90435 2.9187C2.18681 2.62148 1.41777 2.46851 0.641113 2.46851V34.3804C0.64114 38.2331 2.00412 41.9615 4.48883 44.9058C6.97354 47.8501 10.4198 49.8205 14.2176 50.4682C12.844 48.3311 11.991 45.9015 11.727 43.3747C10.151 42.4575 8.8436 41.1422 7.93592 39.5606C7.02823 37.979 6.5521 36.1866 6.55523 34.3631V34.3631Z" fill="#003466"/>
<path d="M33.1921 32.6534C32.7788 28.7452 30.9694 25.1173 28.0963 22.436C25.2232 19.7546 21.4791 18.1999 17.5518 18.0571V23.9747C20.166 24.1222 22.6286 25.2498 24.4483 27.1326C26.2679 29.0155 27.3109 31.5151 27.3691 34.1329C27.4273 36.7507 26.4965 39.2942 24.7624 41.256C23.0282 43.2179 20.6182 44.4539 18.0131 44.7175C18.6625 46.818 19.9606 48.6589 21.7211 49.976C25.3494 48.8733 28.4798 46.5404 30.5734 43.3786C32.6671 40.2169 33.5931 36.4242 33.1921 32.6534V32.6534Z" fill="#003466"/>
<path d="M43.1778 40.4885C43.1381 40.4973 43.0971 40.4972 43.0575 40.4882C43.0179 40.4792 42.9808 40.4615 42.9489 40.4364L42.1164 39.7809C42.0846 39.7561 42.0588 39.7246 42.0408 39.6886C42.0228 39.6526 42.0131 39.613 42.0123 39.5727V38.5113C42.0116 38.4707 42.0204 38.4304 42.0378 38.3937C42.0553 38.357 42.081 38.3249 42.1129 38.2997L42.935 37.6337C42.9666 37.6081 43.0036 37.5897 43.0432 37.5801C43.0828 37.5705 43.124 37.5699 43.1639 37.5782L43.8126 37.7205C43.5785 36.7797 43.2616 35.8616 42.8656 34.9767L42.4494 35.2681C42.4169 35.292 42.3792 35.3079 42.3394 35.3145C42.2997 35.3212 42.2589 35.3183 42.2204 35.3063L41.2041 35.0114C41.1646 34.9996 41.1283 34.9792 41.0977 34.9516C41.0671 34.924 41.043 34.8899 41.0272 34.8519L40.6248 33.8737C40.607 33.8369 40.5978 33.7966 40.5978 33.7557C40.5978 33.7149 40.607 33.6746 40.6248 33.6378L41.1417 32.7117C41.1609 32.6763 41.1882 32.6459 41.2213 32.623C41.2545 32.6001 41.2925 32.5853 41.3324 32.5799L41.4989 32.5521C40.88 31.6311 40.1687 30.7757 39.3761 29.9992L39.1853 30.3044C39.1631 30.3402 39.1332 30.3705 39.0978 30.3933C39.0624 30.4161 39.0224 30.4308 38.9807 30.4362L37.888 30.5576C37.8463 30.562 37.8042 30.5571 37.7646 30.5433C37.7251 30.5296 37.689 30.5072 37.6591 30.4778L36.8856 29.7009C36.8552 29.6717 36.8321 29.6357 36.8182 29.596C36.8043 29.5562 36.8001 29.5137 36.8058 29.4719L36.9272 28.3828C36.932 28.3412 36.9461 28.3013 36.9683 28.2659C36.9905 28.2305 37.0203 28.2005 37.0555 28.1781L37.111 28.1434C36.8752 27.9839 36.6358 27.8278 36.3896 27.6821L36.5907 28.185C36.6104 28.2256 36.6206 28.2701 36.6206 28.3151C36.6206 28.3602 36.6104 28.4046 36.5907 28.4452L36.008 29.4615C35.9857 29.5009 35.9547 29.5348 35.9175 29.5606C35.8803 29.5864 35.8377 29.6035 35.7929 29.6107L34.6344 29.7876C34.59 29.7943 34.5446 29.7913 34.5015 29.7787C34.4583 29.7662 34.4185 29.7443 34.3847 29.7147L33.5209 28.9169C33.4881 28.8869 33.4625 28.8496 33.4463 28.8081C33.4301 28.7667 33.4236 28.722 33.4273 28.6776L33.5105 27.5052C33.5136 27.4604 33.5267 27.4168 33.5489 27.3778C33.5712 27.3387 33.6019 27.3052 33.6389 27.2797L34.4991 26.69C33.2862 26.16 32.013 25.7802 30.7078 25.5592C32.0843 27.6949 32.9376 30.1253 33.1984 32.6527C34.9356 33.6705 36.3415 35.1691 37.2463 36.9678C37.2446 36.9505 37.2446 36.933 37.2463 36.9157L37.4822 36.0798C37.4905 36.048 37.5062 36.0186 37.5278 35.9939C37.5495 35.9692 37.5766 35.9499 37.6071 35.9376L38.4083 35.5907C38.4383 35.577 38.4708 35.5699 38.5037 35.5699C38.5366 35.5699 38.5692 35.577 38.5991 35.5907L39.3622 36.0035C39.3907 36.0201 39.4154 36.0426 39.4345 36.0695C39.4537 36.0965 39.4669 36.1271 39.4732 36.1596L39.6258 37.0129C39.6317 37.0454 39.63 37.0789 39.621 37.1108C39.612 37.1426 39.5958 37.172 39.5738 37.1967L39.0015 37.8488C38.9798 37.8742 38.9526 37.8943 38.9219 37.9075C38.8912 37.9207 38.8579 37.9268 38.8246 37.9251L37.9574 37.8835C37.9239 37.8813 37.8914 37.8717 37.862 37.8556C37.8326 37.8394 37.8072 37.8169 37.7874 37.7898L37.3608 37.1967C38.1137 38.791 38.4492 40.5505 38.3358 42.3101C38.2223 44.0696 37.6636 45.7715 36.7121 47.2559L37.5758 47.0998C37.6106 47.0936 37.6463 47.095 37.6805 47.104C37.7146 47.113 37.7464 47.1293 37.7736 47.1518L38.4673 47.7658C38.4946 47.7893 38.5163 47.8186 38.5308 47.8516C38.5452 47.8847 38.5519 47.9205 38.5505 47.9566L38.5089 48.8896C38.5074 48.9256 38.4978 48.9607 38.481 48.9925C38.4642 49.0243 38.4406 49.0519 38.4118 49.0735L37.6591 49.6215C37.6304 49.6436 37.5969 49.6586 37.5614 49.6652C37.5258 49.6719 37.4891 49.6699 37.4544 49.6597L36.5526 49.4134C36.518 49.4042 36.486 49.3872 36.4589 49.3638C36.4319 49.3403 36.4105 49.311 36.3965 49.2781L36.0462 48.4144C36.0307 48.3819 36.0227 48.3464 36.0227 48.3104C36.0227 48.2744 36.0307 48.2388 36.0462 48.2063L36.1051 48.0988C35.2979 49.1174 34.3073 49.9762 33.1845 50.6309L33.573 50.957C33.6036 50.9821 33.628 51.0139 33.6442 51.05C33.6605 51.0862 33.6681 51.1255 33.6666 51.1651L33.6424 52.2057C33.6409 52.2457 33.6305 52.2848 33.6119 52.3203C33.5933 52.3557 33.5669 52.3865 33.5348 52.4103L32.7058 53.0382C32.6741 53.0622 32.6373 53.0788 32.5983 53.0866C32.5592 53.0944 32.5189 53.0933 32.4803 53.0833L31.471 52.8266C31.4322 52.8177 31.396 52.7999 31.3653 52.7746C31.3346 52.7493 31.3102 52.7172 31.2941 52.6809L30.8674 51.7305C30.8543 51.6984 30.8461 51.6645 30.8431 51.6299C28.2215 52.3873 25.4073 52.0845 23.0067 50.7869C20.6062 49.4893 18.8114 47.3007 18.009 44.6925C17.5544 43.2205 17.4322 41.6659 17.6515 40.1409C17.8707 38.616 18.4258 37.1587 19.2768 35.8744C20.1277 34.59 21.2532 33.5107 22.5719 32.7142C23.8907 31.9177 25.3699 31.424 26.9027 31.2687C26.2527 29.1694 24.9561 27.329 23.1981 26.0102C21.132 26.6388 19.2113 27.6716 17.5476 29.0487V15.6665C17.5476 14.1026 16.9264 12.6028 15.8205 11.4969C14.7147 10.391 13.2148 9.76978 11.6509 9.76978V41.477C11.6509 41.4944 11.6509 41.5117 11.6509 41.5325C11.6509 41.5534 11.6509 41.6054 11.6509 41.6436C11.6512 42.2148 11.6813 42.7855 11.7411 43.3536C11.9886 45.6765 12.7312 47.9194 13.919 49.9309C15.1068 51.9425 16.712 53.676 18.6266 55.0146C20.5411 56.3532 22.7203 57.2657 25.0174 57.6907C27.3145 58.1157 29.676 58.0432 31.9427 57.4781L31.6166 56.7566C31.6029 56.7292 31.5958 56.6989 31.5958 56.6682C31.5958 56.6375 31.6029 56.6072 31.6166 56.5797L31.9843 55.8652C31.998 55.8374 32.0179 55.8131 32.0426 55.7945C32.0673 55.7758 32.0961 55.7632 32.1265 55.7576L32.9139 55.5981C32.9444 55.5914 32.9759 55.592 33.0061 55.5998C33.0362 55.6077 33.064 55.6225 33.0874 55.6432L33.7048 56.16C33.7276 56.1806 33.7458 56.2058 33.7583 56.2339C33.7709 56.2619 33.7774 56.2923 33.7776 56.323L33.7603 56.9058C34.7453 56.5359 35.6921 56.0712 36.5873 55.5183C36.5489 55.4966 36.5167 55.4656 36.4936 55.4281L35.9352 54.5263C35.9133 54.4921 35.8997 54.4533 35.8955 54.4129C35.8912 54.3726 35.8965 54.3318 35.9109 54.2939L36.2577 53.2949C36.2714 53.2569 36.2934 53.2225 36.3223 53.1942C36.3511 53.166 36.386 53.1447 36.4242 53.1318L37.4267 52.785C37.465 52.7714 37.5058 52.7668 37.5461 52.7716C37.5865 52.7764 37.6251 52.7905 37.6591 52.8127L38.5436 53.3746C38.5779 53.3962 38.6069 53.4251 38.6285 53.4593C38.6501 53.4935 38.6638 53.5322 38.6685 53.5724L38.7066 53.9192C39.6832 53.0579 40.5562 52.0859 41.3082 51.0229L41.0376 51.0506C41.0204 51.0521 41.0031 51.0497 40.9869 51.0437C40.9707 51.0377 40.9561 51.0282 40.9439 51.0159L40.6352 50.6968C40.6227 50.685 40.6133 50.6703 40.6078 50.6539C40.6024 50.6376 40.6011 50.6201 40.604 50.6032L40.656 50.1626C40.6591 50.1457 40.6655 50.1295 40.6751 50.1152C40.6846 50.1009 40.6971 50.0887 40.7115 50.0794L41.0896 49.8505C41.1044 49.8419 41.1211 49.8374 41.1382 49.8374C41.1552 49.8374 41.172 49.8419 41.1868 49.8505L41.6065 50.0031C41.6224 50.0088 41.637 50.018 41.649 50.03C41.661 50.042 41.6701 50.0565 41.6758 50.0725L41.766 50.343C41.9718 50.017 42.1661 49.684 42.3488 49.344C42.301 49.3562 42.2509 49.3562 42.2031 49.344L41.1868 49.0492C41.1473 49.0374 41.1109 49.017 41.0803 48.9894C41.0497 48.9618 41.0256 48.9277 41.0098 48.8896L40.6248 47.9011C40.607 47.8643 40.5978 47.824 40.5978 47.7831C40.5978 47.7423 40.607 47.702 40.6248 47.6652L41.1417 46.7391C41.1609 46.7037 41.1882 46.6733 41.2213 46.6504C41.2545 46.6275 41.2925 46.6127 41.3324 46.6072L42.373 46.4338C42.4129 46.4272 42.4537 46.4293 42.4927 46.4401C42.5316 46.4509 42.5677 46.47 42.5985 46.4962L43.3165 47.1449C43.4032 46.8986 43.4865 46.6523 43.5628 46.4026L43.3928 46.4199C43.3756 46.4214 43.3583 46.419 43.3422 46.413C43.326 46.407 43.3113 46.3975 43.2992 46.3852L42.9905 46.0696C42.9782 46.0576 42.9689 46.0429 42.9635 46.0266C42.958 46.0103 42.9566 45.9929 42.9593 45.9759L43.0113 45.5354C43.0139 45.5183 43.0202 45.502 43.0298 45.4876C43.0394 45.4732 43.052 45.4611 43.0668 45.4522L43.4449 45.2198C43.4602 45.2131 43.4767 45.2096 43.4934 45.2096C43.5101 45.2096 43.5267 45.2131 43.542 45.2198L43.8507 45.3308C44.1272 44.1259 44.2669 42.8936 44.2669 41.6574C44.2669 41.1811 44.2461 40.7128 44.2045 40.2526L43.1778 40.4885ZM42.3141 40.7001C42.34 40.6792 42.3703 40.6643 42.4027 40.6565C42.4351 40.6487 42.4688 40.6482 42.5014 40.655L43.3686 40.8457C43.402 40.853 43.4334 40.8677 43.4604 40.8887C43.4874 40.9097 43.5094 40.9365 43.5246 40.9672L43.9131 41.7649C43.9276 41.7953 43.9351 41.8285 43.9351 41.8621C43.9351 41.8957 43.9276 41.9289 43.9131 41.9592L43.5316 42.7605C43.5176 42.7911 43.497 42.8182 43.4712 42.8398C43.4454 42.8614 43.415 42.877 43.3824 42.8853L42.5187 43.0865C42.4859 43.0946 42.4516 43.095 42.4185 43.0878C42.3855 43.0806 42.3545 43.0659 42.328 43.0449L41.6342 42.4968C41.6072 42.4767 41.5853 42.4506 41.5702 42.4205C41.5551 42.3903 41.5474 42.3571 41.5475 42.3234V41.4354C41.5477 41.4017 41.5552 41.3683 41.5696 41.3378C41.584 41.3072 41.6048 41.2802 41.6307 41.2585L42.3141 40.7001ZM41.0307 35.3756C41.0593 35.3533 41.0924 35.3375 41.1277 35.3291C41.163 35.3207 41.1997 35.32 41.2353 35.3271L42.158 35.5317C42.193 35.5397 42.2257 35.5554 42.2539 35.5776C42.2821 35.5998 42.305 35.628 42.321 35.6601L42.7373 36.5099C42.7527 36.5424 42.7607 36.578 42.7607 36.614C42.7607 36.6499 42.7527 36.6855 42.7373 36.718L42.3314 37.5713C42.3162 37.6037 42.294 37.6323 42.2664 37.6551C42.2388 37.6779 42.2065 37.6943 42.1719 37.7031L41.2492 37.9216C41.2144 37.9291 41.1784 37.929 41.1436 37.9212C41.1089 37.9134 41.0763 37.8982 41.048 37.8766L40.3022 37.2903C40.2741 37.2679 40.2514 37.2394 40.2357 37.207C40.2201 37.1746 40.212 37.139 40.2121 37.103V36.1596C40.2115 36.1235 40.2194 36.0878 40.235 36.0552C40.2507 36.0227 40.2737 35.9943 40.3022 35.9722L41.0307 35.3756ZM34.846 32.7637C34.8037 32.7492 34.7654 32.725 34.7341 32.6931C34.7028 32.6612 34.6794 32.6224 34.6656 32.5799L34.291 31.4664C34.2771 31.424 34.2727 31.379 34.2781 31.3346C34.2835 31.2903 34.2985 31.2476 34.3222 31.2097L34.9605 30.2246C34.9839 30.1867 35.0159 30.1547 35.0538 30.1313C35.0917 30.1078 35.1346 30.0934 35.179 30.0894L36.3479 29.9714C36.3923 29.9668 36.4372 29.9722 36.4792 29.9872C36.5212 30.0022 36.5593 30.0264 36.5907 30.0581L37.4128 30.8976C37.4438 30.9301 37.4673 30.969 37.4816 31.0115C37.496 31.054 37.5009 31.0992 37.4961 31.1438L37.3504 32.3093C37.3443 32.354 37.3284 32.3967 37.3038 32.4345C37.2792 32.4723 37.2465 32.5042 37.2082 32.5278L36.2057 33.1522C36.1679 33.1762 36.1251 33.1912 36.0806 33.1961C36.0361 33.2009 35.9911 33.1954 35.949 33.1799L34.846 32.7637ZM38.5436 34.8865C38.542 34.9225 38.5325 34.9576 38.5157 34.9894C38.4989 35.0212 38.4753 35.0488 38.4465 35.0704L37.6938 35.6219C37.6645 35.6427 37.6308 35.6566 37.5954 35.6626C37.56 35.6686 37.5237 35.6665 37.4891 35.6566L36.5873 35.4103C36.5527 35.4011 36.5207 35.3841 36.4936 35.3607C36.4666 35.3372 36.4452 35.3079 36.4312 35.275L36.0635 34.4183C36.0481 34.3857 36.0401 34.3502 36.0401 34.3142C36.0401 34.2782 36.0481 34.2427 36.0635 34.2101L36.504 33.3881C36.5207 33.3558 36.5448 33.328 36.5744 33.3069C36.6039 33.2857 36.6381 33.272 36.674 33.2667L37.5932 33.0967C37.6282 33.0902 37.6642 33.0918 37.6985 33.1014C37.7328 33.1111 37.7644 33.1284 37.7909 33.1522L38.4846 33.7627C38.512 33.7862 38.5337 33.8155 38.5481 33.8486C38.5625 33.8816 38.5693 33.9174 38.5679 33.9535L38.5436 34.8865ZM37.9817 32.8053C37.9515 32.7779 37.928 32.744 37.913 32.7061C37.898 32.6682 37.8918 32.6274 37.895 32.5868L37.9678 31.5289C37.971 31.4881 37.9832 31.4486 38.0036 31.4132C38.024 31.3778 38.0521 31.3474 38.0857 31.3242L38.9599 30.7241C38.993 30.7015 39.0307 30.6867 39.0704 30.6807C39.11 30.6747 39.1505 30.6777 39.1888 30.6894L40.2051 30.9981C40.2441 31.0102 40.2799 31.0307 40.3099 31.0583C40.3399 31.0859 40.3633 31.1199 40.3786 31.1577L40.767 32.1428C40.7824 32.1802 40.7889 32.2207 40.7859 32.2611C40.7828 32.3014 40.7705 32.3405 40.7497 32.3752L40.2259 33.2944C40.2055 33.3299 40.1775 33.3604 40.144 33.3838C40.1104 33.4072 40.072 33.4229 40.0317 33.4297L38.9911 33.5893C38.951 33.5959 38.9098 33.5935 38.8708 33.582C38.8318 33.5706 38.7958 33.5506 38.7656 33.5234L37.9817 32.8053ZM39.442 35.6843C39.4146 35.6861 39.3872 35.6821 39.3615 35.6726C39.3358 35.663 39.3124 35.6481 39.2929 35.6288L38.7899 35.1155C38.7712 35.0951 38.7572 35.0709 38.7488 35.0445C38.7404 35.0182 38.7379 34.9903 38.7413 34.9629L38.828 34.2518C38.8311 34.2241 38.8405 34.1974 38.8555 34.1739C38.8706 34.1505 38.8908 34.1308 38.9148 34.1165L39.5287 33.7419C39.5533 33.7309 39.5799 33.7252 39.6068 33.7252C39.6337 33.7252 39.6603 33.7309 39.6848 33.7419L40.3612 33.9882C40.3869 33.9981 40.4101 34.0135 40.4292 34.0332C40.4484 34.053 40.4631 34.0767 40.4722 34.1026L40.7011 34.7964C40.7096 34.8227 40.7124 34.8505 40.7094 34.878C40.7064 34.9055 40.6977 34.932 40.6838 34.9559L40.278 35.5317C40.2629 35.5547 40.243 35.574 40.2196 35.5884C40.1962 35.6028 40.1699 35.6119 40.1427 35.615L39.442 35.6843ZM38.3216 39.6491L38.5783 38.5044C38.5868 38.4601 38.6056 38.4184 38.6334 38.3828C38.6611 38.3472 38.6969 38.3187 38.7379 38.2997L39.7785 37.7829C39.8184 37.7633 39.8623 37.7531 39.9068 37.7531C39.9513 37.7531 39.9952 37.7633 40.0351 37.7829L41.0966 38.2859C41.1371 38.305 41.1728 38.333 41.2011 38.3678C41.2293 38.4027 41.2493 38.4434 41.2596 38.487L41.5301 39.6317C41.5403 39.6754 41.5406 39.7208 41.531 39.7646C41.5214 39.8084 41.5021 39.8495 41.4747 39.8849L40.7462 40.8076C40.7184 40.8425 40.683 40.8706 40.6428 40.8898C40.6025 40.909 40.5584 40.9189 40.5138 40.9186H39.3414C39.2964 40.9182 39.252 40.9081 39.2113 40.8889C39.1706 40.8697 39.1345 40.842 39.1055 40.8076L38.3702 39.8953C38.3456 39.8605 38.3285 39.8209 38.3202 39.7791C38.3118 39.7372 38.3123 39.6941 38.3216 39.6525V39.6491ZM41.3186 43.0865L40.7532 43.9606C40.7315 43.9937 40.7029 44.0216 40.6693 44.0426C40.6358 44.0636 40.5981 44.077 40.5589 44.082L39.5183 44.1861C39.4788 44.1899 39.4389 44.1846 39.4016 44.1708C39.3644 44.157 39.3308 44.135 39.3033 44.1063L38.5748 43.3605C38.547 43.3327 38.526 43.2988 38.5133 43.2615C38.5007 43.2242 38.4968 43.1845 38.502 43.1455L38.6303 42.1049C38.6353 42.0652 38.6491 42.0272 38.6707 41.9936C38.6923 41.9599 38.7212 41.9316 38.7552 41.9106L39.6432 41.366C39.6771 41.3452 39.7153 41.3322 39.7549 41.328C39.7945 41.3238 39.8346 41.3285 39.8721 41.3418L40.8503 41.6886C40.8877 41.7017 40.9215 41.7232 40.9492 41.7514C40.9769 41.7797 40.9976 41.814 41.0098 41.8517L41.3567 42.8402C41.3724 42.8816 41.3772 42.9264 41.3705 42.9701C41.3638 43.0139 41.3459 43.0552 41.3186 43.09V43.0865ZM35.2241 54.7691L34.5928 55.3934C34.5693 55.4177 34.5404 55.4361 34.5084 55.447C34.4765 55.4578 34.4423 55.4609 34.4089 55.4559L33.5279 55.3518C33.494 55.3484 33.4614 55.3372 33.4325 55.3192C33.4036 55.3011 33.3793 55.2767 33.3614 55.2477L32.8966 54.4916C32.8778 54.4632 32.866 54.4308 32.8624 54.397C32.8588 54.3632 32.8634 54.329 32.8758 54.2973L33.1741 53.4648C33.1843 53.4322 33.2022 53.4026 33.2264 53.3784C33.2506 53.3542 33.2802 53.3363 33.3128 53.3261L34.1523 53.0382C34.1844 53.0274 34.2185 53.0239 34.2521 53.0281C34.2858 53.0323 34.318 53.0441 34.3465 53.0625L35.0923 53.5377C35.1212 53.5556 35.1457 53.5799 35.1637 53.6088C35.1818 53.6377 35.1929 53.6703 35.1963 53.7042L35.29 54.5852C35.2943 54.6194 35.2906 54.6541 35.2791 54.6867C35.2677 54.7192 35.2488 54.7486 35.2241 54.7725V54.7691ZM36.9203 50.9535L36.4971 51.9247C36.4815 51.9622 36.4575 51.9955 36.4267 52.022C36.396 52.0485 36.3595 52.0675 36.3202 52.0774L35.2969 52.3548C35.2578 52.3649 35.217 52.3661 35.1773 52.3583C35.1377 52.3505 35.1004 52.3339 35.068 52.3098L34.2147 51.6819C34.1819 51.6577 34.1549 51.6264 34.1357 51.5904C34.1165 51.5544 34.1055 51.5146 34.1037 51.4738L34.0621 50.4159C34.06 50.3752 34.0674 50.3346 34.0837 50.2973C34.0999 50.26 34.1246 50.227 34.1557 50.2008L34.9605 49.5071C34.9915 49.4815 35.0278 49.4629 35.0667 49.4528C35.1056 49.4426 35.1463 49.441 35.1859 49.4481L36.2265 49.6458C36.2669 49.6525 36.3052 49.6686 36.3383 49.6927C36.3714 49.7167 36.3985 49.7482 36.4173 49.7846L36.9133 50.7211C36.9353 50.7588 36.9475 50.8014 36.9487 50.8451C36.95 50.8887 36.9402 50.932 36.9203 50.9708V50.9535ZM39.8513 51.6785L39.1784 52.341C39.1526 52.3664 39.1214 52.3858 39.0873 52.3977C39.0531 52.4097 39.0167 52.414 38.9807 52.4103L38.0406 52.2959C38.0051 52.2922 37.9709 52.2803 37.9408 52.261C37.9106 52.2417 37.8854 52.2156 37.8672 52.1849L37.3677 51.3801C37.349 51.3498 37.3374 51.3157 37.3338 51.2802C37.3302 51.2448 37.3347 51.209 37.3469 51.1755L37.6626 50.2841C37.6748 50.2501 37.6946 50.2193 37.7204 50.1941C37.7463 50.1689 37.7775 50.1498 37.8117 50.1384L38.7066 49.8331C38.7408 49.8206 38.7774 49.8163 38.8136 49.8205C38.8497 49.8247 38.8844 49.8373 38.9148 49.8574L39.7091 50.3638C39.7399 50.3828 39.766 50.4086 39.7852 50.4393C39.8045 50.47 39.8164 50.5047 39.8201 50.5407L39.9207 51.4807C39.9271 51.5195 39.9242 51.5593 39.9121 51.5967C39.9 51.6341 39.8792 51.6681 39.8513 51.6958V51.6785ZM40.7011 48.7786C40.7096 48.805 40.7124 48.8328 40.7094 48.8603C40.7064 48.8877 40.6977 48.9143 40.6838 48.9382L40.278 49.5591C40.2629 49.582 40.243 49.6014 40.2196 49.6158C40.1962 49.6301 40.1699 49.6392 40.1427 49.6423L39.4281 49.7117C39.4009 49.7149 39.3734 49.7119 39.3476 49.7029C39.3217 49.6939 39.2983 49.6791 39.279 49.6597L38.776 49.1463C38.7573 49.1259 38.7433 49.1017 38.7349 49.0753C38.7266 49.049 38.724 49.0211 38.7275 48.9937L38.8142 48.2791C38.8177 48.252 38.8273 48.2261 38.8423 48.2033C38.8574 48.1804 38.8774 48.1613 38.9009 48.1473L39.5148 47.7727C39.5391 47.7608 39.5658 47.7546 39.5929 47.7546C39.6199 47.7546 39.6467 47.7608 39.6709 47.7727L40.3473 48.019C40.373 48.0289 40.3962 48.0443 40.4154 48.0641C40.4345 48.0838 40.4492 48.1075 40.4583 48.1335L40.7011 48.7786ZM40.7497 46.3887L40.2259 47.3079C40.2059 47.3434 40.178 47.3738 40.1443 47.3966C40.1106 47.4195 40.072 47.4343 40.0317 47.4397L38.9911 47.6028C38.9507 47.6095 38.9093 47.6067 38.8701 47.5947C38.831 47.5826 38.7952 47.5617 38.7656 47.5334L37.9886 46.8154C37.9583 46.7888 37.9347 46.7555 37.9196 46.7182C37.9045 46.6808 37.8985 46.6404 37.9019 46.6003L37.9747 45.5424C37.9779 45.5016 37.9901 45.4621 38.0105 45.4267C38.0309 45.3913 38.059 45.3609 38.0927 45.3377L38.9668 44.7376C38.9999 44.715 39.0377 44.7002 39.0773 44.6942C39.1169 44.6882 39.1574 44.6912 39.1957 44.7029L40.2121 45.0116C40.251 45.0237 40.2868 45.0442 40.3168 45.0718C40.3468 45.0994 40.3703 45.1334 40.3855 45.1712L40.774 46.1563C40.791 46.1967 40.7977 46.2406 40.7935 46.2843C40.7892 46.3279 40.7742 46.3697 40.7497 46.4061V46.3887ZM42.9246 45.0429L42.4875 45.7193C42.4716 45.7453 42.4498 45.7674 42.4239 45.7836C42.3981 45.7999 42.3688 45.8099 42.3384 45.8129L41.5371 45.8927C41.5064 45.896 41.4753 45.8921 41.4464 45.8812C41.4175 45.8704 41.3915 45.8529 41.3706 45.8302L40.8052 45.2545C40.7846 45.2323 40.7689 45.2059 40.7594 45.1772C40.7498 45.1485 40.7465 45.1181 40.7497 45.088L40.8503 44.2867C40.854 44.256 40.8646 44.2267 40.8815 44.2008C40.8983 44.1749 40.9209 44.1533 40.9474 44.1375L41.6411 43.7178C41.6676 43.7023 41.6971 43.6927 41.7277 43.6897C41.7582 43.6867 41.7891 43.6904 41.8181 43.7005L42.5742 43.9745C42.6033 43.9853 42.6296 44.0024 42.6512 44.0246C42.6728 44.0468 42.6892 44.0735 42.6991 44.1028L42.9558 44.866C42.9667 44.8984 42.9696 44.9331 42.9641 44.9669C42.9587 45.0008 42.9451 45.0328 42.9246 45.0602V45.0429ZM44.0866 43.8253L43.8438 44.2C43.8346 44.2143 43.8224 44.2264 43.808 44.2354C43.7936 44.2444 43.7774 44.25 43.7605 44.252L43.3165 44.2971C43.2999 44.2982 43.2832 44.2957 43.2676 44.2897C43.252 44.2837 43.2379 44.2744 43.2263 44.2624L42.9142 43.9433C42.9026 43.9315 42.8938 43.9173 42.8884 43.9017C42.883 43.8861 42.8811 43.8695 42.8829 43.8531L42.9384 43.4091C42.9404 43.3927 42.9461 43.377 42.9551 43.3631C42.9642 43.3493 42.9763 43.3377 42.9905 43.3293L43.372 43.0969C43.3871 43.0893 43.4037 43.0853 43.4206 43.0853C43.4375 43.0853 43.4541 43.0893 43.4692 43.0969L43.8854 43.2495C43.9019 43.2542 43.917 43.2631 43.9291 43.2752C43.9413 43.2873 43.9501 43.3024 43.9548 43.3189L44.097 43.7386C44.1044 43.7551 44.1079 43.773 44.1073 43.7911C44.1067 43.8091 44.102 43.8268 44.0935 43.8427L44.0866 43.8253Z" fill="#0071BD"/>
<path d="M39.7786 29.3612C39.801 29.326 39.815 29.2861 39.8199 29.2447C39.8247 29.2033 39.8201 29.1613 39.8064 29.1219L39.4422 28.0813C39.4282 28.0417 39.4057 28.0057 39.3764 27.9757C39.347 27.9458 39.3115 27.9226 39.2722 27.9078L38.2316 27.561C38.1922 27.5473 38.1502 27.5427 38.1088 27.5475C38.0673 27.5523 38.0275 27.5664 37.9923 27.5887L37.1182 28.1368C37.927 28.6866 38.685 29.3077 39.3832 29.9925L39.7786 29.3612Z" fill="#0071BD"/>
<path d="M44.8428 38.8866L44.378 37.9362C44.3595 37.8996 44.3331 37.8675 44.3007 37.8423C44.2683 37.8171 44.2307 37.7994 44.1907 37.7905L43.8057 37.7073C44.0091 38.5346 44.1471 39.3766 44.2184 40.2255C44.2564 40.2159 44.2918 40.1978 44.3218 40.1726C44.3519 40.1473 44.3758 40.1156 44.3919 40.0799L44.8463 39.1225C44.8638 39.0855 44.8726 39.0451 44.872 39.0042C44.8714 38.9633 44.8614 38.9231 44.8428 38.8866V38.8866Z" fill="#0071BD"/>
<path d="M43.3095 34.6435C43.3433 34.6207 43.3712 34.5903 43.3911 34.5548C43.411 34.5193 43.4223 34.4795 43.424 34.4388L43.4899 33.3982C43.4967 33.3529 43.4919 33.3066 43.4762 33.2636C43.4604 33.2206 43.4341 33.1822 43.3997 33.152L42.6123 32.4582C42.5823 32.4308 42.5463 32.4106 42.5072 32.3992C42.4681 32.3877 42.427 32.3854 42.3869 32.3923L41.5093 32.538C42.0276 33.3073 42.479 34.1197 42.8586 34.9661L43.3095 34.6435Z" fill="#0071BD"/>
<path d="M42.4421 49.2812L43.3093 48.6708C43.3427 48.6476 43.3704 48.6171 43.3902 48.5817C43.41 48.5462 43.4215 48.5067 43.4238 48.4661L43.4897 47.4255C43.4919 47.3846 43.485 47.3438 43.4694 47.306C43.4538 47.2682 43.4299 47.2343 43.3995 47.207L43.3301 47.1445C43.0612 47.8984 42.7366 48.6311 42.3589 49.3367C42.39 49.3239 42.4183 49.305 42.4421 49.2812V49.2812Z" fill="#0071BD"/>
<path d="M41.4877 50.9906C41.5048 50.9895 41.5213 50.9841 41.5358 50.9751C41.5503 50.966 41.5623 50.9535 41.5708 50.9387L41.8132 50.5681C41.8208 50.5531 41.8248 50.5365 41.8248 50.5197C41.8248 50.5028 41.8208 50.4862 41.8132 50.4712L41.7647 50.3223C41.6147 50.5531 41.4623 50.784 41.3076 51.0149L41.4877 50.9906Z" fill="#0071BD"/>
<path d="M43.8479 46.3577C43.8645 46.3563 43.8806 46.3513 43.895 46.3429C43.9094 46.3345 43.9218 46.3229 43.9311 46.3091L44.1739 45.9345C44.1815 45.9194 44.1855 45.9028 44.1855 45.8859C44.1855 45.869 44.1815 45.8524 44.1739 45.8373L44.0352 45.4142C44.0215 45.3832 43.9968 45.3584 43.9658 45.3448L43.8548 45.3066C43.7715 45.6535 43.6744 46.0316 43.5669 46.3854L43.8479 46.3577Z" fill="#0071BD"/>
<path d="M32.7822 50.285C32.7517 50.2595 32.7161 50.2409 32.6777 50.2307C32.6394 50.2206 32.5992 50.2189 32.5602 50.226L31.5404 50.4341C31.5009 50.4411 31.4637 50.4573 31.4318 50.4814C31.3998 50.5055 31.374 50.5368 31.3565 50.5729L30.8813 51.499C30.8608 51.5399 30.8501 51.585 30.8501 51.6308C31.6687 51.3938 32.455 51.0571 33.1915 50.6284L32.7822 50.285Z" fill="#0071BD"/>
<path d="M36.6848 55.5296L37.7254 55.6545C37.7658 55.6598 37.8068 55.6557 37.8453 55.6424C37.8839 55.6292 37.9188 55.6072 37.9474 55.5782L38.7036 54.8324C38.7319 54.8041 38.7534 54.7697 38.7666 54.7319C38.7798 54.694 38.7844 54.6537 38.7799 54.6139L38.707 53.9202C38.0387 54.5054 37.3242 55.0355 36.5703 55.5054C36.6062 55.5218 36.6453 55.5301 36.6848 55.5296V55.5296Z" fill="#0071BD"/>
<path d="M31.9533 57.4785C31.9646 57.5073 31.9829 57.5328 32.0065 57.5528C32.0301 57.5728 32.0583 57.5866 32.0886 57.593L32.869 57.7942C32.8987 57.8015 32.9296 57.8022 32.9596 57.7962C32.9896 57.7902 33.0179 57.7777 33.0424 57.7595L33.6841 57.2739C33.7091 57.2552 33.7295 57.2312 33.7439 57.2036C33.7583 57.176 33.7664 57.1455 33.7674 57.1143V56.8923C33.1711 57.119 32.5618 57.3101 31.9429 57.4647L31.9533 57.4785Z" fill="#0071BD"/>
<path d="M36.168 27.0783C36.1515 27.0364 36.1257 26.9988 36.0927 26.9682C36.0597 26.9376 36.0203 26.9148 35.9773 26.9014L34.8569 26.5545C34.8141 26.5406 34.7686 26.5368 34.7241 26.5434C34.6795 26.5501 34.6371 26.5669 34.6002 26.5927L34.4927 26.6655C35.1494 26.9545 35.7867 27.2859 36.4005 27.6576L36.168 27.0783Z" fill="#0071BD"/>
<path d="M52.6414 32.2857L51.3406 31.8313L50.1717 32.5632L50.019 33.9333L50.9938 34.908L52.3639 34.7554L53.0992 33.5865L52.6414 32.2857Z" fill="#0071BD"/>
<path d="M41.6958 28.4488L42.1641 29.8466L43.5516 30.3531L44.8107 29.583L44.9945 28.1192L43.9643 27.0613L42.4936 27.2104L41.6958 28.4488Z" fill="#0071BD"/>
<path d="M48.9526 47.062L49.4174 48.1407L50.5517 48.4494L51.4987 47.7592L51.5507 46.5833L50.6627 45.8132L49.5076 46.0248L48.9526 47.062Z" fill="#0071BD"/>
<path d="M45.7196 35.8167L46.507 36.5417C46.5368 36.5697 46.5726 36.5906 46.6117 36.6026C46.6508 36.6146 46.6921 36.6175 46.7325 36.611L47.7904 36.448C47.8308 36.4412 47.8691 36.4255 47.9027 36.4021C47.9363 36.3787 47.9643 36.3482 47.9847 36.3127L48.5154 35.3866C48.536 35.3512 48.5482 35.3115 48.5512 35.2706C48.5542 35.2298 48.5479 35.1888 48.5327 35.1507L48.1373 34.1552C48.1221 34.1174 48.0986 34.0834 48.0686 34.0558C48.0386 34.0282 48.0028 34.0077 47.9639 33.9956L46.9233 33.6835C46.8844 33.6716 46.8434 33.6686 46.8032 33.6746C46.763 33.6806 46.7246 33.6955 46.6909 33.7182L45.8272 34.3252C45.7929 34.3478 45.7645 34.378 45.744 34.4136C45.7235 34.4491 45.7116 34.4889 45.7092 34.5298L45.6329 35.5982C45.6292 35.6388 45.6351 35.6798 45.6502 35.7178C45.6652 35.7558 45.689 35.7896 45.7196 35.8167V35.8167Z" fill="#0071BD"/>
<path d="M45.9497 43.3919L46.8758 44.54L48.35 44.5296L49.2623 43.371L48.9258 41.935L47.5904 41.3037L46.2654 41.9524L45.9497 43.3919Z" fill="#0071BD"/>
<path opacity="0.4" d="M59.0021 45.373L59.8762 46.0598L60.9619 45.8031L61.4371 44.7972L60.948 43.7982L59.8589 43.5554L58.9917 44.2596L59.0021 45.373Z" fill="#0071BD"/>
<path d="M55.8907 35.2714L56.7683 35.9583L57.854 35.7016L58.3292 34.6922L57.8367 33.6932L56.751 33.4539L55.8838 34.1545L55.8907 35.2714Z" fill="#0071BD"/>
<path opacity="0.4" d="M60.2295 26.1045L61.1452 27.041L62.446 26.9092L63.1571 25.8061L62.7374 24.5678L61.5094 24.1204L60.3925 24.8037L60.2295 26.1045Z" fill="#0071BD"/>
<path d="M52.88 41.5327L53.8165 42.2646L54.9716 41.994L55.478 40.9187L54.9543 39.8539L53.7957 39.5972L52.873 40.3464L52.88 41.5327Z" fill="#0071BD"/>
<path opacity="0.9" d="M44.7003 23.093L45.7479 23.9151L47.0452 23.6064L47.614 22.4028L47.0278 21.2061L45.7271 20.9216L44.6899 21.7576L44.7003 23.093Z" fill="#0071BD"/>
<path d="M46.5069 31.5292L47.7834 31.9038L48.876 31.1372L48.9558 29.8087L47.9638 28.9172L46.6491 29.1323L46.0005 30.2978L46.5069 31.5292Z" fill="#0071BD"/>
<path d="M48.7032 39.9957L49.7923 40.0512L50.5104 39.2326L50.3196 38.1573L49.3622 37.637L48.3563 38.0636L48.0649 39.1146L48.7032 39.9957Z" fill="#0071BD"/>
<path d="M52.4707 37.2908L53.102 37.936L54.0004 37.8458L54.4895 37.0861L54.2016 36.2294L53.3518 35.9207L52.5817 36.3924L52.4707 37.2908Z" fill="#0071BD"/>
<path d="M55.5615 49.9099L56.0263 50.9886L57.1606 51.2973L58.1075 50.6071L58.1596 49.4312L57.2716 48.6611L56.1165 48.8727L55.5615 49.9099Z" fill="#0071BD"/>
<path opacity="0.5" d="M46.8296 17.4773L47.8112 18.3791L49.1259 18.1745L49.7884 17.0194L49.2993 15.7811L48.0228 15.3926L46.9267 16.1488L46.8296 17.4773Z" fill="#0071BD"/>
<path opacity="0.8" d="M49.5952 26.7458L50.8752 27.1204L51.9644 26.3538L52.0441 25.0218L51.0556 24.1304L49.7409 24.3489L49.0923 25.5109L49.5952 26.7458Z" fill="#0071BD"/>
<path d="M56.5698 38.9943L56.9618 39.3932L57.5168 39.3377L57.8186 38.8694L57.6416 38.3387L57.1179 38.1479L56.6392 38.4393L56.5698 38.9943Z" fill="#0071BD"/>
<path opacity="0.7" d="M62.5913 30.3461L62.9833 30.745L63.5383 30.6895L63.84 30.2212L63.6631 29.6905L63.1359 29.4998L62.6607 29.7911L62.5913 30.3461Z" fill="#0071BD"/>
<path d="M42.9531 25.2643L43.3451 25.6667L43.9001 25.6077L44.2053 25.1395L44.0249 24.6087L43.5012 24.418L43.026 24.7093L42.9531 25.2643Z" fill="#0071BD"/>
<path d="M52.5327 49.6047L52.9247 50.0036L53.4797 49.9481L53.7814 49.4763L53.6045 48.9491L53.0773 48.7583L52.6021 49.0497L52.5327 49.6047Z" fill="#0071BD"/>
<path d="M50.7817 29.7011L51.1737 30.1L51.7287 30.0445L52.0305 29.5762L51.8536 29.0455L51.3298 28.8547L50.8511 29.1461L50.7817 29.7011Z" fill="#0071BD"/>
<path d="M37.4229 57.1447L37.8114 57.5436L38.3698 57.4881L38.6716 57.0198L38.4947 56.4891L37.9674 56.2983L37.4922 56.5897L37.4229 57.1447Z" fill="#0071BD"/>
<path d="M50.5698 43.3156L50.9618 43.7145L51.5168 43.659L51.8185 43.1907L51.6416 42.66L51.1179 42.4692L50.6392 42.7606L50.5698 43.3156Z" fill="#0071BD"/>
<path d="M54.9409 45.446L55.6485 46.1709L56.6545 46.0703L57.206 45.2205L56.8834 44.2597L55.9295 43.9163L55.0693 44.4435L54.9409 45.446Z" fill="#0071BD"/>
<path opacity="0.4" d="M59.9902 40.4887L60.6978 41.2136L61.7038 41.113L62.2518 40.2632L61.9292 39.3024L60.9788 38.959L60.1151 39.4862L59.9902 40.4887Z" fill="#0071BD"/>
<path opacity="0.6" d="M61.1733 35.9414L61.881 36.6663L62.8869 36.5623L63.4349 35.7124L63.1123 34.7551L62.1619 34.4082L61.2982 34.9355L61.1733 35.9414Z" fill="#0071BD"/>
<path d="M46.7262 54.2421L46.3516 55.2931L46.9378 56.2401L48.0443 56.3719L48.8386 55.5879L48.7207 54.4814L47.7807 53.8813L46.7262 54.2421Z" fill="#0071BD"/>
<path d="M45.3178 48.1095L44.7212 49.2749L45.2588 50.4682L46.5284 50.7908L47.5725 50.0034L47.6037 48.6957L46.6012 47.8528L45.3178 48.1095Z" fill="#0071BD"/>
<path opacity="0.4" d="M52.3973 23.7279L53.4968 23.558L54.0518 22.5902L53.6425 21.5565L52.5776 21.2305L51.6584 21.8583L51.5752 22.9717L52.3973 23.7279Z" fill="#0071BD"/>
<path opacity="0.6" d="M59.6501 22.7914L60.7983 22.115L60.9821 20.7935L60.0664 19.8257L58.7413 19.9402L57.999 21.0467L58.4049 22.3162L59.6501 22.7914Z" fill="#0071BD"/>
<path opacity="0.4" d="M54.6866 29.6834L55.592 29.6626L56.14 28.948L55.9215 28.0704L55.0994 27.6958L54.2912 28.1016L54.1108 28.9896L54.6866 29.6834Z" fill="#0071BD"/>
<path opacity="0.5" d="M54.8495 19.014L55.4079 19.0036L55.7479 18.5596L55.6126 18.0185L55.1027 17.7861L54.6066 18.0393L54.4922 18.5839L54.8495 19.014Z" fill="#0071BD"/>
<path opacity="0.6" d="M45.183 19.7076L45.7414 19.6972L46.0814 19.2532L45.9461 18.7121L45.4396 18.4797L44.9402 18.7329L44.8257 19.2775L45.183 19.7076Z" fill="#0071BD"/>
<path opacity="0.7" d="M57.9476 27.141L58.5061 27.1306L58.846 26.6866L58.7107 26.142L58.2008 25.9131L57.7048 26.1628L57.5903 26.7109L57.9476 27.141Z" fill="#0071BD"/>
<path opacity="0.6" d="M55.62 24.4536L56.1784 24.4397L56.5184 23.9957L56.3831 23.4546L55.8766 23.2222L55.3772 23.4754L55.2627 24.0234L55.62 24.4536Z" fill="#0071BD"/>
<path opacity="0.6" d="M58.187 30.9669L58.7316 32.0214L59.8971 32.2573L60.8059 31.4907L60.7747 30.3044L59.8277 29.5898L58.6761 29.8812L58.187 30.9669Z" fill="#0071BD"/>
<path d="M48.8287 50.7186L48.3882 51.957L49.0819 53.0773L50.3862 53.2334L51.3227 52.3108L51.1839 51.0031L50.0774 50.3093H50.0601L48.8148 50.736L48.8287 50.7186Z" fill="#0071BD"/>
<path d="M42.6436 52.6465L42.6956 53.9784L43.7674 54.7693L45.0543 54.4224L45.585 53.2015L44.9641 52.0256L43.6529 51.7793L42.6436 52.6465Z" fill="#0071BD"/>
<path d="M40.8285 55.0532L40.3706 55.9446L40.7799 56.8604L41.7511 57.1101L42.5524 56.5031L42.5802 55.5006L41.8101 54.8555L40.8285 55.0532Z" fill="#0071BD"/>
<path d="M38.0991 23.586L39.1848 24.5884L40.6417 24.363L41.3736 23.0795L40.829 21.7094L39.4172 21.2793L38.2032 22.1153L38.0991 23.586Z" fill="#0071BD"/>
<path d="M100.481 43.4064C100.494 44.5331 100.251 45.6479 99.7699 46.667C99.3096 47.6401 98.6625 48.5134 97.8656 49.2373C97.0558 49.97 96.1141 50.5421 95.0906 50.923C93.9973 51.3277 92.8398 51.531 91.674 51.5231H76.8037V20.0413H91.9619C92.9939 20.0225 94.0143 20.2609 94.9311 20.7351C95.7995 21.1931 96.5683 21.8192 97.1927 22.5769C97.8199 23.3429 98.3083 24.2128 98.6356 25.1472C98.969 26.0803 99.1415 27.0632 99.1455 28.054C99.16 29.593 98.7444 31.1056 97.9454 32.4211C97.1648 33.7202 96.0052 34.7491 94.6224 35.3695C96.3462 35.8496 97.8548 36.903 98.8993 38.356C99.9584 39.8243 100.513 41.5962 100.481 43.4064V43.4064ZM79.9082 22.7469V34.3635H90.727C91.472 34.3686 92.2081 34.2012 92.8776 33.8744C93.5256 33.5619 94.1055 33.1246 94.5842 32.5876C95.0624 32.0476 95.4374 31.4245 95.6907 30.7492C95.9597 30.0485 96.0961 29.304 96.0931 28.5535C96.0966 27.7836 95.9687 27.0188 95.715 26.2919C95.4817 25.6162 95.1202 24.992 94.6501 24.4535C94.1962 23.9395 93.6474 23.5178 93.0337 23.2117C92.3989 22.8978 91.6988 22.7385 90.9907 22.7469H79.9082ZM97.3765 42.8653C97.3779 42.1006 97.2428 41.3418 96.9776 40.6245C96.4725 39.2207 95.4501 38.0629 94.1194 37.3882C93.4537 37.0484 92.7162 36.8736 91.9688 36.8783H79.9082V48.8071H91.6566C92.4306 48.8128 93.1962 48.6457 93.8974 48.3181C94.5812 48.0022 95.1982 47.5583 95.715 47.0104C96.2362 46.4572 96.6492 45.8113 96.9325 45.106C97.2251 44.3952 97.376 43.634 97.3765 42.8653Z" fill="#003466"/>
<path d="M105.802 58.6159C106.038 58.6436 106.267 58.6644 106.496 58.6818C106.724 58.6991 106.933 58.7026 107.137 58.7026C107.57 58.7219 108.003 58.6461 108.403 58.4806C108.794 58.25 109.109 57.9115 109.312 57.5059C109.698 56.808 110.031 56.0822 110.308 55.3345C110.68 54.3887 111.205 53.1169 111.882 51.5189L101.823 28.4175H104.928L113.468 48.7266L121.404 28.4209H124.286L112.316 58.217C111.979 59.0905 111.421 59.8615 110.696 60.4543C109.945 61.0902 108.918 61.4082 107.616 61.4082C107.322 61.4082 107.041 61.4012 106.773 61.3874C106.506 61.3874 106.183 61.3353 105.798 61.2764L105.802 58.6159Z" fill="#003466"/>
<path d="M138.566 50.413C138.389 50.4997 138.129 50.6211 137.789 50.7598C137.449 50.8986 137.06 51.0547 136.616 51.2038C136.121 51.3659 135.618 51.4991 135.107 51.6027C134.524 51.7229 133.93 51.7821 133.335 51.7796C132.704 51.7833 132.077 51.6945 131.472 51.516C130.905 51.351 130.377 51.0712 129.922 50.6939C129.469 50.3152 129.106 49.8415 128.857 49.3065C128.579 48.6948 128.443 48.0286 128.458 47.3571V30.8149H125.26V28.4215H128.454V20.6169H131.469V28.4215H136.79V30.8149H131.472V46.5107C131.471 46.873 131.552 47.2308 131.71 47.5571C131.867 47.8834 132.097 48.1697 132.381 48.3942C132.927 48.793 133.588 49.0036 134.264 48.9943C135.04 49.0113 135.81 48.8672 136.526 48.5711C136.954 48.4026 137.369 48.2032 137.768 47.9745L138.566 50.413Z" fill="#003466"/>
<path d="M150.717 51.9633C149.118 51.984 147.534 51.6598 146.072 51.0128C144.691 50.3915 143.447 49.5012 142.413 48.394C141.37 47.2803 140.546 45.98 139.985 44.5611C139.401 43.0779 139.107 41.4966 139.117 39.9026C139.109 38.3314 139.403 36.7733 139.985 35.3136C140.537 33.9178 141.349 32.6396 142.378 31.5466C143.427 30.4575 144.683 29.5885 146.072 28.9902C148.213 28.0264 150.601 27.7567 152.903 28.2189C155.205 28.6811 157.304 29.852 158.906 31.5674C160.975 33.8324 162.114 36.7936 162.098 39.861V40.5548C162.104 40.7191 162.089 40.8835 162.052 41.0438H142.281C142.357 42.2315 142.65 43.3953 143.145 44.4778C143.608 45.4918 144.247 46.416 145.032 47.2077C145.788 47.9686 146.682 48.5774 147.668 49.001C148.669 49.4331 149.748 49.6528 150.838 49.6462C151.588 49.6447 152.334 49.5396 153.055 49.334C153.767 49.1402 154.453 48.857 155.094 48.4911C155.715 48.1368 156.283 47.6966 156.78 47.1834C157.267 46.6914 157.658 46.1125 157.932 45.4768L160.547 46.1879C160.19 47.0486 159.68 47.8373 159.042 48.5154C158.375 49.2221 157.614 49.8337 156.78 50.333C155.894 50.8618 154.939 51.2646 153.943 51.5297C152.891 51.8162 151.807 51.962 150.717 51.9633V51.9633ZM159.229 38.751C159.156 37.5762 158.863 36.4254 158.365 35.3587C157.903 34.3777 157.273 33.4855 156.503 32.7225C155.749 31.983 154.861 31.3944 153.887 30.9881C152.882 30.5723 151.804 30.3613 150.717 30.3672C149.621 30.362 148.536 30.573 147.522 30.9881C146.54 31.3907 145.645 31.9797 144.886 32.7225C144.116 33.4856 143.499 34.3886 143.068 35.3829C142.601 36.4494 142.323 37.5891 142.246 38.751H159.229Z" fill="#003466"/>
<path d="M191.066 43.4063C191.104 44.5833 190.851 45.7516 190.329 46.8071C189.807 47.8626 189.031 48.7725 188.072 49.4557C187.093 50.1587 185.997 50.6835 184.836 51.0062C183.56 51.3666 182.239 51.5453 180.913 51.5369H165.703V20.0412H182.554C183.585 20.0235 184.606 20.2619 185.523 20.7349C186.391 21.193 187.16 21.8191 187.784 22.5768C188.415 23.3505 188.902 24.2302 189.224 25.1749C189.559 26.1075 189.731 27.0907 189.734 28.0816C189.74 29.5989 189.342 31.0905 188.582 32.4036C187.818 33.7439 186.635 34.7958 185.214 35.3971C186.912 35.86 188.414 36.8633 189.491 38.2553C190.538 39.6196 191.063 41.3366 191.066 43.4063ZM171.821 25.272V33.2083H179.98C180.468 33.2176 180.954 33.1284 181.408 32.946C181.861 32.7637 182.273 32.4919 182.619 32.1469C182.991 31.7592 183.279 31.2994 183.466 30.7958C183.653 30.2922 183.734 29.7557 183.705 29.2193C183.762 28.1648 183.403 27.1301 182.706 26.3369C182.396 25.9937 182.016 25.721 181.592 25.5373C181.168 25.3535 180.709 25.2631 180.247 25.272H171.821ZM184.902 42.2685C184.903 41.7158 184.805 41.1673 184.614 40.6487C184.436 40.157 184.173 39.7003 183.837 39.2993C183.519 38.9197 183.128 38.6092 182.685 38.3871C182.229 38.1654 181.728 38.0526 181.222 38.0576H171.821V46.3338H180.913C181.452 46.338 181.987 46.2318 182.484 46.0217C182.961 45.8244 183.392 45.5303 183.75 45.158C184.494 44.3746 184.906 43.3346 184.902 42.2547V42.2685Z" fill="#0071BD"/>
<path d="M201.35 51.9632C198.956 51.9632 197.139 51.1955 195.897 49.66C194.655 48.1246 194.034 45.8479 194.034 42.8302V28.2964H199.976V41.5537C199.976 45.1334 201.262 46.9221 203.833 46.9198C205.027 46.9078 206.191 46.546 207.18 45.8792C208.34 45.0905 209.255 43.992 209.82 42.7088V28.2964H215.762V44.7033C215.724 45.1726 215.846 45.6409 216.109 46.0318C216.249 46.1779 216.417 46.2929 216.604 46.3694C216.792 46.4459 216.993 46.4821 217.195 46.4758V51.5366C216.704 51.6381 216.209 51.7111 215.71 51.7551C215.308 51.7863 214.947 51.8002 214.621 51.8002C213.701 51.8426 212.792 51.5858 212.03 51.0683C211.704 50.8334 211.43 50.5326 211.228 50.1855C211.025 49.8383 210.898 49.4525 210.854 49.053L210.719 47.1903C209.746 48.7321 208.365 49.9746 206.73 50.7804C205.052 51.5861 203.21 51.991 201.35 51.9632Z" fill="#0071BD"/>
<path d="M220.65 25.0494V19.1526H226.581V25.0494H220.65ZM220.65 51.5363V28.296H226.581V51.5363H220.65Z" fill="#0071BD"/>
<path d="M230.879 19.1526H236.821V44.0716C236.776 44.7901 236.997 45.5 237.442 46.0661C237.668 46.3058 237.945 46.4924 238.252 46.6123C238.559 46.7323 238.889 46.7827 239.218 46.7599C239.615 46.7536 240.009 46.6941 240.39 46.583C240.808 46.4685 241.217 46.32 241.611 46.139L242.409 50.6483C241.519 51.0605 240.581 51.3578 239.617 51.5328C238.668 51.7286 237.703 51.8332 236.734 51.845C234.873 51.845 233.431 51.3501 232.409 50.3604C231.387 49.3706 230.877 47.9589 230.879 46.1251V19.1526Z" fill="#0071BD"/>
<path d="M253.581 51.9629C252.085 51.9792 250.603 51.6754 249.234 51.0717C247.865 50.4681 246.641 49.5786 245.645 48.463C244.651 47.338 243.877 46.0368 243.362 44.6266C242.806 43.1143 242.527 41.5137 242.54 39.9023C242.527 38.3037 242.789 36.7148 243.317 35.2057C243.801 33.816 244.529 32.5238 245.468 31.3901C246.367 30.3102 247.485 29.434 248.749 28.8198C250.046 28.1927 251.471 27.8734 252.911 27.8867C254.541 27.8649 256.145 28.2947 257.546 29.1285C258.877 29.9145 259.984 31.0288 260.761 32.3648V19.1526H266.703V44.6925C266.661 45.157 266.769 45.6226 267.012 46.021C267.147 46.1671 267.312 46.2824 267.496 46.359C267.679 46.4356 267.878 46.4717 268.077 46.465V51.5362C267.245 51.7179 266.399 51.8213 265.548 51.845C264.611 51.8836 263.688 51.6023 262.932 51.0472C262.606 50.8002 262.334 50.4873 262.136 50.1288C261.937 49.7703 261.816 49.3741 261.781 48.9659L261.646 47.5022C260.842 48.9332 259.636 50.097 258.177 50.8494C256.758 51.5876 255.18 51.9697 253.581 51.9629V51.9629ZM255.131 46.909C255.721 46.9044 256.306 46.8072 256.866 46.6211C257.451 46.4324 258.004 46.1564 258.506 45.8025C259.008 45.4473 259.462 45.0301 259.859 44.5607C260.251 44.0998 260.558 43.5738 260.768 43.0067V37.4568C260.532 36.81 260.195 36.2046 259.769 35.6635C259.35 35.1242 258.857 34.6466 258.305 34.2448C257.771 33.8527 257.188 33.5321 256.571 33.2909C255.999 33.0641 255.389 32.9465 254.774 32.9441C253.92 32.9357 253.076 33.1332 252.315 33.5199C251.566 33.8991 250.908 34.4364 250.386 35.0947C249.842 35.7772 249.422 36.5497 249.144 37.3771C248.848 38.2325 248.698 39.132 248.7 40.0376C248.691 40.9622 248.857 41.8802 249.19 42.7431C249.496 43.542 249.946 44.278 250.518 44.9145C251.083 45.5364 251.77 46.0347 252.537 46.3783C253.354 46.7395 254.238 46.9205 255.131 46.909V46.909Z" fill="#0071BD"/>
<path d="M282.312 51.9628C280.581 51.9886 278.862 51.6653 277.258 51.0123C275.811 50.4146 274.499 49.5309 273.401 48.4143C272.334 47.3191 271.497 46.0219 270.938 44.5987C270.361 43.1463 270.068 41.5968 270.074 40.034C270.064 38.4355 270.35 36.8491 270.917 35.3547C271.459 33.9188 272.285 32.607 273.345 31.4975C274.445 30.3636 275.765 29.4665 277.223 28.8613C278.847 28.1894 280.59 27.8566 282.347 27.8831C284.088 27.8537 285.816 28.1868 287.421 28.8613C288.855 29.4697 290.152 30.359 291.237 31.4767C292.286 32.5728 293.1 33.871 293.63 35.2923C294.176 36.7329 294.455 38.261 294.452 39.8016C294.452 40.1866 294.452 40.5543 294.428 40.9115C294.421 41.2094 294.384 41.5057 294.317 41.7961H276.37C276.442 42.6393 276.668 43.4622 277.036 44.2241C277.709 45.5984 278.884 46.6622 280.318 47.1968C281.026 47.4618 281.777 47.597 282.534 47.5957C283.706 47.5989 284.859 47.3002 285.881 46.7285C286.844 46.2446 287.606 45.4364 288.032 44.4461L293.131 45.8648C292.224 47.6923 290.798 49.2115 289.031 50.2319C287.149 51.3858 284.909 51.9628 282.312 51.9628ZM288.344 37.9527C288.264 36.3592 287.572 34.858 286.412 33.7626C285.289 32.7318 283.82 32.1616 282.296 32.1654C280.772 32.1693 279.305 32.7469 278.188 33.7834C277.643 34.3046 277.2 34.922 276.88 35.6044C276.533 36.342 276.331 37.1391 276.283 37.9527H288.344Z" fill="#0071BD"/>
<path d="M310.912 33.43C309.246 33.4295 307.599 33.7843 306.08 34.4706C304.733 35.0646 303.646 36.1268 303.021 37.4606V51.5365H297.079V28.2963H302.532V33.2635C302.929 32.4889 303.421 31.7665 303.996 31.1129C304.539 30.4939 305.148 29.9367 305.813 29.4514C306.419 29.0022 307.083 28.637 307.787 28.3657C308.401 28.1226 309.055 27.9945 309.716 27.9876H310.447C310.603 27.9866 310.759 28.0017 310.912 28.0327V33.43Z" fill="#0071BD"/>
<path d="M321.993 51.9637C320.05 51.9654 318.12 51.6515 316.277 51.0341C314.52 50.4724 312.892 49.5681 311.487 48.3736L313.703 44.6482C314.991 45.5797 316.389 46.3475 317.866 46.9341C319.144 47.4373 320.505 47.6996 321.879 47.7076C322.849 47.7564 323.812 47.5252 324.654 47.0416C324.978 46.8437 325.243 46.5628 325.423 46.2281C325.602 45.8933 325.689 45.5167 325.674 45.1373C325.684 44.7484 325.575 44.3657 325.361 44.0407C325.147 43.7158 324.838 43.4641 324.477 43.3197C323.214 42.7721 321.909 42.3267 320.575 41.9877C319.069 41.5738 317.784 41.1749 316.718 40.791C315.802 40.4831 314.936 40.0425 314.147 39.4833C313.54 39.0494 313.052 38.4697 312.729 37.7976C312.416 37.0782 312.264 36.2992 312.285 35.5152C312.269 34.4124 312.506 33.3207 312.978 32.324C313.431 31.3802 314.09 30.5504 314.907 29.8959C315.773 29.2101 316.758 28.6914 317.814 28.3662C318.983 28.003 320.201 27.8239 321.425 27.8355C323.088 27.8223 324.743 28.0764 326.326 28.5882C327.874 29.1032 329.3 29.9295 330.516 31.0163L328.123 34.6064C327.075 33.7972 325.917 33.1409 324.685 32.657C323.631 32.2538 322.512 32.0435 321.383 32.0361C320.499 32.0058 319.624 32.2207 318.854 32.657C318.518 32.8642 318.245 33.1598 318.065 33.5115C317.885 33.8632 317.806 34.2575 317.835 34.6515C317.82 35.0073 317.904 35.3602 318.077 35.6712C318.274 35.9685 318.541 36.2128 318.854 36.3823C319.296 36.6271 319.761 36.827 320.242 36.9789C320.818 37.1732 321.532 37.3709 322.392 37.579C323.988 37.993 325.355 38.4069 326.492 38.8208C327.48 39.1605 328.414 39.6381 329.267 40.2395C329.942 40.7125 330.489 41.3438 330.863 42.0779C331.222 42.8628 331.396 43.7195 331.373 44.5823C331.373 46.8624 330.531 48.6592 328.848 49.9726C327.164 51.2861 324.879 51.9498 321.993 51.9637Z" fill="#0071BD"/>
</g>
<defs>
<clipPath id="clip0_4711_3107">
<rect width="331.048" height="60.8823" fill="white" transform="translate(0.61084 0.525879)"/>
</clipPath>
</defs>
</svg>
