<svg width="612" height="443" viewBox="0 0 612 443" fill="none" xmlns="http://www.w3.org/2000/svg">
<path d="M600.766 94.5399L591.196 140.89L585.036 134.88L574.556 142.36L566.546 132.41L548.586 145.47L533.236 119.8L516.116 129.83L509.326 120.47L487.586 132.72L481.046 118.71L496.286 44.8999L577.986 61.7699L600.766 94.5399Z" fill="#EBEBEB"/>
<path d="M577.986 61.77L600.766 94.54L572.426 88.69L577.986 61.77Z" fill="#DBDBDB"/>
<path d="M589.155 150.15L575.125 218.15L465.075 195.43L479.005 127.98L485.545 141.98L507.295 129.73L514.075 139.09L531.205 129.07L546.545 154.74L564.515 141.68L572.515 151.62L583.005 144.15L589.155 150.15Z" fill="#EBEBEB"/>
<path d="M431.646 142.18L319.496 149.12L310.586 5.16L393.866 0L424.436 25.65L431.646 142.18Z" fill="#EBEBEB"/>
<path d="M153.496 305.18L41.3456 312.12L32.4355 168.16L115.716 163L146.286 188.65L153.496 305.18Z" fill="#EBEBEB"/>
<path d="M393.865 0L424.435 25.65L395.555 27.44L393.865 0Z" fill="#DBDBDB"/>
<path d="M362.816 96.8699L362.376 93.6199C361.246 86.8899 363.086 79.3599 368.936 71.4899C374.216 64.4899 377.076 59.4899 376.756 53.8099C376.396 47.4099 372.146 43.3699 364.236 43.6899C359.716 43.9247 355.374 45.529 351.786 48.2899L348.336 40.5599C352.336 37.3099 359.336 34.9099 365.986 34.5599C380.416 33.7599 387.436 42.2999 387.986 51.8299C388.466 60.3599 384.046 66.7699 378.426 74.2599C373.266 81.0899 371.576 86.7199 372.306 93.0899L372.616 96.3499L362.816 96.8699ZM361.036 114.58C360.776 109.94 363.726 106.5 368.116 106.26C372.506 106.02 375.706 109.1 375.966 113.75C376.206 118.14 373.516 121.68 368.876 121.94C364.446 122.19 361.246 118.97 360.996 114.58H361.036Z" fill="#DBDBDB"/>
<path d="M84.6656 259.87L84.2256 256.62C83.0956 249.89 84.9356 242.36 90.7856 234.49C96.0656 227.49 98.9256 222.49 98.6056 216.81C98.2456 210.41 93.9955 206.37 86.0855 206.69C81.5655 206.925 77.2236 208.529 73.6356 211.29L70.1855 203.56C74.1855 200.31 81.1855 197.91 87.8355 197.56C102.266 196.76 109.286 205.3 109.836 214.83C110.316 223.36 105.896 229.77 100.276 237.26C95.1155 244.09 93.4255 249.72 94.1555 256.09L94.4655 259.35L84.6656 259.87ZM82.8856 277.58C82.6256 272.94 85.5755 269.5 89.9655 269.26C94.3555 269.02 97.5556 272.1 97.8156 276.75C98.0556 281.14 95.3656 284.68 90.7256 284.94C86.2956 285.19 83.0956 281.97 82.8456 277.58H82.8856Z" fill="#DBDBDB"/>
<path d="M82.2954 72.38L71.0154 67.27L69.4454 70.72C69.2136 71.2131 68.8519 71.6337 68.3991 71.9367C67.9463 72.2397 67.4196 72.4137 66.8754 72.44C66.2555 72.4603 65.6376 72.5205 65.0254 72.62C64.488 72.6998 63.939 72.6322 63.4371 72.4244C62.9352 72.2166 62.4991 71.8763 62.1754 71.44L59.9654 68.35L49.8954 75.57L52.1054 78.66C52.4128 79.106 52.5937 79.6269 52.6289 80.1674C52.6641 80.708 52.5523 81.2479 52.3054 81.73C52.0203 82.28 51.7633 82.844 51.5354 83.42C51.3373 83.9279 51.0045 84.3723 50.5729 84.7053C50.1412 85.0383 49.6269 85.2473 49.0854 85.31L45.3154 85.68L46.5254 98.01L50.3154 97.63C50.8589 97.5866 51.404 97.6921 51.8921 97.9353C52.3801 98.1784 52.7927 98.55 53.0854 99.01C53.2454 99.27 53.4154 99.52 53.5954 99.77C53.7754 100.02 53.9554 100.26 54.1454 100.5C54.4905 100.92 54.7124 101.427 54.7865 101.966C54.8607 102.504 54.7841 103.052 54.5654 103.55L52.9854 107.03L64.2754 112.15L65.8454 108.68C66.0794 108.187 66.4432 107.768 66.8978 107.467C67.3524 107.165 67.8805 106.994 68.4254 106.97C69.0383 106.945 69.6493 106.885 70.2554 106.79C70.7928 106.71 71.3417 106.778 71.8437 106.986C72.3456 107.193 72.7817 107.534 73.1054 107.97L75.3154 111.06L85.3954 103.84L83.1854 100.75C82.8685 100.308 82.6819 99.7862 82.6465 99.2436C82.6112 98.701 82.7286 98.1593 82.9854 97.68C83.264 97.1332 83.5143 96.5725 83.7354 96C83.9277 95.4884 84.2588 95.0405 84.6916 94.7066C85.1244 94.3728 85.6417 94.1662 86.1854 94.11L89.9754 93.73L88.7554 81.4L84.9654 81.77C84.4252 81.8175 83.8825 81.7146 83.3972 81.4728C82.9119 81.231 82.5028 80.8598 82.2154 80.4C82.0454 80.14 81.8754 79.89 81.6954 79.64C81.5154 79.39 81.3354 79.14 81.1454 78.91C80.8026 78.485 80.5824 77.9744 80.5083 77.4334C80.4343 76.8924 80.5094 76.3415 80.7254 75.84L82.2954 72.38ZM75.8954 83.79C77.0648 85.4219 77.724 87.3639 77.7896 89.3705C77.8552 91.377 77.3243 93.3579 76.264 95.0627C75.2038 96.7675 73.6617 98.1196 71.833 98.9479C70.0042 99.7763 67.9709 100.044 65.9901 99.7164C64.0094 99.3891 62.1702 98.4817 60.7052 97.109C59.2401 95.7364 58.2151 93.9601 57.7597 92.0048C57.3042 90.0495 57.4388 88.0031 58.1465 86.1243C58.8542 84.2456 60.1031 82.6189 61.7354 81.45C63.9236 79.883 66.6445 79.2492 69.2999 79.688C71.9553 80.1268 74.3277 81.6023 75.8954 83.79Z" fill="#EBEBEB"/>
<path d="M592.195 235.98L584.675 240.32L586.005 242.62C586.203 242.95 586.302 243.33 586.29 243.715C586.278 244.1 586.154 244.473 585.935 244.79C585.705 245.15 585.485 245.52 585.285 245.91C585.121 246.255 584.861 246.546 584.537 246.748C584.212 246.95 583.837 247.055 583.455 247.05H580.815V255.74H583.475C583.857 255.735 584.232 255.84 584.557 256.042C584.881 256.244 585.141 256.535 585.305 256.88C585.505 257.27 585.725 257.64 585.955 258C586.174 258.317 586.298 258.69 586.31 259.075C586.322 259.46 586.223 259.84 586.025 260.17L584.695 262.47L592.215 266.81L593.555 264.5C593.749 264.172 594.03 263.905 594.368 263.729C594.705 263.552 595.085 263.473 595.465 263.5H596.745C597.125 263.474 597.504 263.554 597.841 263.73C598.178 263.907 598.46 264.173 598.655 264.5L599.995 266.82L607.505 262.48L606.175 260.17C605.986 259.838 605.893 259.46 605.907 259.079C605.921 258.697 606.042 258.327 606.255 258.01C606.485 257.65 606.705 257.27 606.905 256.89C607.069 256.545 607.329 256.254 607.653 256.052C607.977 255.85 608.353 255.745 608.735 255.75H611.395V247.06H608.715C608.333 247.065 607.957 246.96 607.633 246.758C607.309 246.556 607.049 246.265 606.885 245.92C606.685 245.54 606.465 245.16 606.235 244.8C606.022 244.483 605.901 244.113 605.887 243.731C605.873 243.35 605.966 242.972 606.155 242.64L607.485 240.33L599.975 235.99L598.635 238.27C598.441 238.598 598.159 238.865 597.822 239.041C597.485 239.218 597.105 239.297 596.725 239.27H596.085H595.445C595.064 239.296 594.683 239.216 594.345 239.039C594.006 238.863 593.722 238.597 593.525 238.27L592.195 235.98ZM596.085 244.28C597.494 244.278 598.872 244.694 600.044 245.476C601.217 246.257 602.131 247.369 602.671 248.671C603.211 249.972 603.353 251.404 603.079 252.787C602.804 254.169 602.126 255.438 601.129 256.435C600.133 257.431 598.864 258.109 597.481 258.384C596.099 258.658 594.667 258.516 593.366 257.976C592.064 257.436 590.952 256.522 590.171 255.349C589.389 254.177 588.973 252.799 588.975 251.39C588.974 250.455 589.157 249.53 589.513 248.666C589.87 247.802 590.393 247.017 591.054 246.356C591.714 245.695 592.498 245.17 593.362 244.812C594.225 244.454 595.15 244.27 596.085 244.27V244.28Z" fill="#EBEBEB"/>
<path d="M105.116 35.43L98.2258 40.71L99.8155 42.82C100.053 43.1206 100.199 43.4831 100.237 43.8642C100.274 44.2453 100.201 44.6291 100.026 44.97C99.8345 45.3592 99.6675 45.76 99.5255 46.17C99.4025 46.5311 99.1809 46.8507 98.8859 47.0928C98.5908 47.3348 98.2341 47.4897 97.8558 47.54L95.2158 47.88L96.3358 56.49L98.9758 56.15C99.3601 56.0964 99.7515 56.1525 100.106 56.3117C100.46 56.4709 100.762 56.7268 100.976 57.05C101.217 57.3979 101.478 57.7317 101.756 58.05C102.014 58.3333 102.185 58.6846 102.249 59.0622C102.312 59.4398 102.266 59.8277 102.116 60.18L101.116 62.64L109.116 65.97L110.116 63.51C110.265 63.1571 110.51 62.8529 110.823 62.632C111.135 62.4111 111.504 62.2822 111.886 62.26L112.526 62.19L113.156 62.09C113.526 62.0202 113.908 62.0533 114.261 62.1855C114.614 62.3177 114.923 62.5441 115.156 62.84L116.786 64.97L123.676 59.69L122.066 57.58C121.834 57.2752 121.691 56.9115 121.654 56.5299C121.617 56.1483 121.687 55.7639 121.856 55.42C122.046 55.0333 122.213 54.636 122.356 54.23C122.48 53.8688 122.701 53.5492 122.996 53.3072C123.291 53.0652 123.648 52.9103 124.026 52.86L126.666 52.52L125.546 43.91L122.906 44.25C122.523 44.3046 122.132 44.25 121.778 44.0926C121.425 43.9352 121.122 43.6813 120.906 43.36C120.656 43 120.396 42.66 120.116 42.36C119.883 42.0706 119.733 41.7238 119.68 41.3561C119.627 40.9884 119.674 40.6132 119.816 40.27L120.816 37.81L112.816 34.48L111.816 36.94C111.666 37.2915 111.42 37.5944 111.108 37.8151C110.795 38.0357 110.428 38.1655 110.046 38.19L109.406 38.25L108.816 38.27C108.446 38.3397 108.064 38.3067 107.711 38.1745C107.359 38.0422 107.049 37.8159 106.816 37.52L105.116 35.43ZM110.046 43.16C111.439 42.9809 112.854 43.2184 114.112 43.8425C115.37 44.4666 116.416 45.4493 117.116 46.6667C117.816 47.8841 118.14 49.2816 118.047 50.683C117.954 52.0843 117.448 53.4267 116.593 54.5409C115.738 55.655 114.572 56.4909 113.242 56.9432C111.913 57.3955 110.479 57.4438 109.122 57.0822C107.765 56.7205 106.545 55.9651 105.617 54.9111C104.689 53.8571 104.094 52.5519 103.906 51.16C103.781 50.2311 103.841 49.2867 104.083 48.3811C104.324 47.4755 104.742 46.6265 105.313 45.883C105.883 45.1396 106.595 44.5162 107.408 44.0489C108.22 43.5816 109.117 43.2795 110.046 43.16Z" fill="#EBEBEB"/>
<path d="M53.636 261.05C54.0117 251.383 53.8782 241.703 53.236 232.05C51.8052 212.117 48.7653 192.333 44.146 172.89C41.606 161.95 38.486 151.19 35.226 140.44C35.126 140.11 34.606 140.2 34.696 140.54C44.766 178.44 53.026 217.54 52.456 256.94C52.296 267.94 51.016 278.79 49.976 289.75C49.976 290.04 50.426 290.16 50.496 289.86C52.566 280.45 53.246 270.63 53.636 261.05Z" fill="#EBEBEB"/>
<path d="M93.7159 188.94C87.2688 193.397 81.3476 198.57 76.0659 204.36C70.6189 210.491 66.4174 217.624 63.6959 225.36C57.9038 241.478 54.7893 258.436 54.4759 275.56C54.2816 285.043 55.1911 294.517 57.1859 303.79C57.2021 303.857 57.2436 303.916 57.3017 303.954C57.3599 303.991 57.4304 304.005 57.4985 303.992C57.5666 303.98 57.6272 303.941 57.6677 303.885C57.7081 303.828 57.7254 303.759 57.7159 303.69C55.2337 287.326 55.3281 270.675 57.9959 254.34C60.6159 238.34 64.7259 220.92 74.9059 207.91C80.4459 200.82 87.3559 195.25 94.1859 189.49C94.5459 189.17 94.0859 188.68 93.7159 188.94Z" fill="#EBEBEB"/>
<path d="M87.8155 212.18C86.5512 211.992 85.2696 211.948 83.9955 212.05C83.8455 212.05 83.8555 212.31 83.9955 212.32C85.2555 212.32 86.5255 212.26 87.7855 212.32C87.7999 212.316 87.8129 212.309 87.8232 212.298C87.8335 212.287 87.8407 212.274 87.8438 212.259C87.8469 212.245 87.8459 212.23 87.8409 212.216C87.8359 212.202 87.8271 212.189 87.8155 212.18Z" fill="white"/>
<path d="M74.0255 237.07C71.9981 237.111 69.9939 237.511 68.1055 238.25C68.1055 238.25 68.1055 238.35 68.1055 238.34C70.1055 237.87 72.0355 237.68 74.0155 237.34C74.0414 237.329 74.0635 237.31 74.0794 237.287C74.0953 237.264 74.1042 237.236 74.1053 237.208C74.1063 237.18 74.0994 237.152 74.0853 237.127C74.0712 237.103 74.0505 237.083 74.0255 237.07Z" fill="white"/>
<path d="M69.8854 228.47C69.0436 228.463 68.2031 228.537 67.3753 228.69C67.36 228.696 67.3468 228.706 67.3375 228.719C67.3282 228.733 67.3232 228.749 67.3232 228.765C67.3232 228.781 67.3282 228.797 67.3375 228.811C67.3468 228.824 67.36 228.834 67.3753 228.84C68.2136 228.889 69.0546 228.852 69.8854 228.73C69.9198 228.73 69.9529 228.716 69.9773 228.692C70.0017 228.668 70.0153 228.635 70.0153 228.6C70.0153 228.566 70.0017 228.533 69.9773 228.508C69.9529 228.484 69.9198 228.47 69.8854 228.47Z" fill="white"/>
<path d="M0.425319 216.16C6.67452 218.279 12.6628 221.1 18.2753 224.57C24.0987 228.271 29.1487 233.066 33.1453 238.69C41.5542 250.395 47.9925 263.397 52.2053 277.18C54.5548 284.812 56.0046 292.692 56.5253 300.66C56.5143 300.712 56.486 300.758 56.4451 300.791C56.4041 300.824 56.353 300.843 56.3003 300.843C56.2476 300.843 56.1964 300.824 56.1555 300.791C56.1145 300.758 56.0862 300.712 56.0753 300.66C54.3101 286.844 50.3891 273.391 44.4553 260.79C38.6253 248.44 31.2753 235.3 20.0353 227.12C13.9153 222.67 7.03532 219.75 0.175319 216.67C-0.184681 216.55 0.0653194 216.04 0.425319 216.16Z" fill="#EBEBEB"/>
<path d="M2.77539 326.45L78.7854 326.21L154.796 326.12L306.816 325.95L458.836 326.12L534.846 326.21L610.856 326.45L534.846 326.7L458.836 326.78L306.816 326.95L154.796 326.78L78.7854 326.69L2.77539 326.45Z" fill="#1971BD"/>
<path d="M308.816 400.98C467.178 400.98 595.556 386.913 595.556 369.56C595.556 352.207 467.178 338.14 308.816 338.14C150.454 338.14 22.0752 352.207 22.0752 369.56C22.0752 386.913 150.454 400.98 308.816 400.98Z" fill="#EBEBEB"/>
<path d="M457.955 376.32H153.275L197.325 126.47H502.005L457.955 376.32Z" fill="#CBE3F8"/>
<path d="M301.605 100.59H201.895L197.325 126.47H304.035L301.605 100.59Z" fill="#1971BD"/>
<g opacity="0.1">
<path opacity="0.1" d="M469.68 380.85H165L209.05 131H513.73L469.68 380.85Z" fill="#F7AD2A"/>
</g>
<path d="M191.135 111.15C190.469 108.288 190.469 105.311 191.135 102.45C191.802 105.311 191.802 108.288 191.135 111.15Z" fill="#1971BD"/>
<path d="M182.275 113.71C181.256 112.654 180.379 111.471 179.664 110.19C178.915 108.936 178.327 107.592 177.914 106.19C178.936 107.24 179.813 108.42 180.525 109.7C181.272 110.959 181.86 112.306 182.275 113.71Z" fill="#1971BD"/>
<path d="M175.876 120.36C173.066 119.505 170.49 118.017 168.346 116.01C169.748 116.417 171.092 117.002 172.346 117.75C173.627 118.469 174.813 119.346 175.876 120.36Z" fill="#1971BD"/>
<path d="M173.636 129.32C170.774 129.987 167.798 129.987 164.936 129.32C167.798 128.653 170.774 128.653 173.636 129.32Z" fill="#1971BD"/>
<path d="M176.236 138.18C175.176 139.193 173.994 140.069 172.716 140.79C171.462 141.537 170.118 142.122 168.716 142.53C169.772 141.511 170.955 140.634 172.236 139.92C173.488 139.168 174.833 138.583 176.236 138.18Z" fill="#1971BD"/>
<path d="M182.875 144.57C182.024 147.384 180.535 149.964 178.525 152.11C178.932 150.706 179.52 149.362 180.275 148.11C180.988 146.824 181.861 145.635 182.875 144.57Z" fill="#1971BD"/>
<path d="M191.836 146.78C192.185 148.203 192.353 149.665 192.336 151.13C192.358 152.595 192.19 154.057 191.836 155.48C191.478 154.058 191.31 152.596 191.336 151.13C191.32 149.665 191.488 148.203 191.836 146.78Z" fill="#1971BD"/>
<path d="M200.695 144.27C201.713 145.326 202.59 146.509 203.305 147.79C204.056 149.042 204.641 150.387 205.045 151.79C203.035 149.644 201.546 147.064 200.695 144.25V144.27Z" fill="#1971BD"/>
<path d="M207.086 137.57C208.49 137.974 209.834 138.558 211.086 139.31C212.367 140.024 213.551 140.902 214.606 141.92C213.203 141.516 211.858 140.931 210.606 140.18C209.325 139.465 208.142 138.588 207.086 137.57Z" fill="#1971BD"/>
<path d="M209.296 128.61C212.161 127.943 215.141 127.943 218.006 128.61C215.141 129.276 212.161 129.276 209.296 128.61Z" fill="#1971BD"/>
<path d="M206.736 119.75C207.795 118.738 208.978 117.864 210.256 117.15C211.506 116.391 212.851 115.803 214.256 115.4C212.111 117.41 209.53 118.899 206.716 119.75H206.736Z" fill="#1971BD"/>
<path d="M200.086 113.36C200.498 111.959 201.083 110.616 201.826 109.36C202.541 108.079 203.418 106.896 204.436 105.84C204.033 107.243 203.448 108.588 202.696 109.84C201.982 111.121 201.105 112.304 200.086 113.36Z" fill="#1971BD"/>
<path d="M457.505 376.32H152.175L108.815 135.54H414.155L457.505 376.32Z" fill="#C1CFE8"/>
<path d="M214.626 282.73C221.634 282.73 227.316 277.048 227.316 270.04C227.316 263.031 221.634 257.35 214.626 257.35C207.618 257.35 201.936 263.031 201.936 270.04C201.936 277.048 207.618 282.73 214.626 282.73Z" fill="#1C1C1C"/>
<path d="M314.946 282.73C321.955 282.73 327.636 277.048 327.636 270.04C327.636 263.031 321.955 257.35 314.946 257.35C307.938 257.35 302.256 263.031 302.256 270.04C302.256 277.048 307.938 282.73 314.946 282.73Z" fill="#1C1C1C"/>
<path d="M283.015 284.76L282.315 283.43C282.255 283.31 275.695 271.19 262.505 271.19C250.505 271.19 247.505 282.6 247.425 283.09L247.065 284.54L244.155 283.84L244.505 282.38C244.505 282.24 248.085 268.19 262.505 268.19C277.505 268.19 284.675 281.47 284.975 282.04L285.675 283.36L283.015 284.76Z" fill="#1C1C1C"/>
<path d="M489.525 269.07L489.315 268.07C489.965 267.93 490.605 267.78 491.245 267.61L491.495 268.61C490.815 268.78 490.185 268.93 489.525 269.07Z" fill="#1971BD"/>
<path d="M495.365 267.46L495.045 266.52C496.295 266.09 497.545 265.62 498.755 265.11L499.145 266.03C497.915 266.55 496.645 267.03 495.365 267.46ZM502.815 264.27L502.365 263.39C503.535 262.78 504.705 262.12 505.815 261.39L506.335 262.24C505.195 263.03 504.005 263.7 502.815 264.27ZM509.695 260.04L509.105 259.23C510.185 258.44 511.225 257.61 512.205 256.76L512.865 257.51C511.815 258.42 510.815 259.27 509.685 260.08L509.695 260.04ZM515.795 254.72L515.065 254.03C515.985 253.03 516.855 252.03 517.655 251.03L518.445 251.64C517.615 252.74 516.725 253.77 515.815 254.76L515.795 254.72ZM520.745 248.32L519.895 247.79C520.586 246.673 521.201 245.51 521.735 244.31L522.655 244.72C522.089 245.971 521.448 247.187 520.735 248.36L520.745 248.32ZM524.055 240.9L523.055 240.62C523.42 239.365 523.691 238.085 523.865 236.79L524.865 236.92C524.699 238.28 524.425 239.624 524.045 240.94L524.055 240.9ZM525.165 232.9H524.165V232.61C524.165 231.4 524.095 230.17 523.975 228.96L524.975 228.86C525.106 230.106 525.173 231.357 525.175 232.61L525.165 232.9ZM523.365 225.07C523.096 223.781 522.762 222.506 522.365 221.25L523.365 220.95C523.775 222.25 524.125 223.57 524.365 224.86L523.365 225.07ZM520.995 217.54C520.515 216.36 519.995 215.15 519.355 213.93L520.255 213.48C520.865 214.72 521.425 215.96 521.915 217.16L520.995 217.54ZM517.495 210.41C516.875 209.32 516.195 208.17 515.495 206.99L516.345 206.46C517.075 207.65 517.765 208.81 518.345 209.92L517.495 210.41ZM513.315 203.62C512.585 202.52 511.845 201.41 511.085 200.3L511.915 199.74C512.675 200.85 513.415 201.96 514.145 203.08L513.315 203.62ZM508.815 197C508.065 195.9 507.305 194.79 506.565 193.69L507.395 193.13C508.135 194.23 508.885 195.34 509.635 196.43L508.815 197ZM504.345 190.34C503.615 189.22 502.905 188.08 502.205 186.94L503.055 186.42C503.755 187.56 504.465 188.68 505.185 189.8L504.345 190.34ZM500.175 183.47C499.495 182.26 498.865 181.06 498.295 179.91L499.195 179.46C499.755 180.6 500.385 181.78 501.045 182.98L500.175 183.47ZM496.625 176.27C496.095 175.02 495.625 173.75 495.185 172.51L496.185 172.19C496.605 173.4 497.075 174.65 497.595 175.88L496.625 176.27ZM494.025 168.64C493.695 167.34 493.405 166.01 493.185 164.64L494.185 164.48C494.405 165.76 494.675 167.06 495.005 168.34L494.025 168.64ZM492.685 160.64C492.585 159.41 492.535 158.17 492.535 156.93V156.6H493.535V156.92C493.535 158.13 493.535 159.35 493.685 160.55L492.685 160.64ZM493.685 152.64L492.685 152.54C492.685 152.27 492.735 151.99 492.765 151.7C492.885 150.63 493.035 149.56 493.215 148.54L494.215 148.71C494.045 149.71 493.895 150.76 493.775 151.81C493.815 152.12 493.815 152.39 493.735 152.67L493.685 152.64ZM495.075 144.86L494.075 144.59C494.445 143.27 494.875 141.98 495.355 140.75L496.285 141.11C495.83 142.348 495.443 143.61 495.125 144.89L495.075 144.86ZM544.905 139.03C544.345 139.03 543.765 138.95 543.195 138.87C542.415 138.76 541.635 138.63 540.865 138.48L541.065 137.48C541.805 137.62 542.575 137.75 543.335 137.86C543.875 137.93 544.425 137.98 544.955 138.01L544.905 139.03ZM549.015 138.72L548.805 137.72C550.06 137.461 551.263 136.994 552.365 136.34L552.885 137.19C551.707 137.919 550.416 138.446 549.065 138.75L549.015 138.72ZM497.955 137.53L497.065 137.06C497.701 135.867 498.406 134.712 499.175 133.6L499.995 134.17C499.264 135.259 498.599 136.391 498.005 137.56L497.955 137.53ZM536.955 137.47C535.664 137.06 534.395 136.583 533.155 136.04L533.565 135.12C534.767 135.654 535.999 136.118 537.255 136.51L536.955 137.47ZM555.955 134.35L555.125 133.79C555.837 132.757 556.258 131.552 556.345 130.3L557.345 130.37C557.26 131.804 556.79 133.19 555.985 134.38L555.955 134.35ZM529.555 134.2C528.384 133.52 527.253 132.775 526.165 131.97L526.755 131.17C527.814 131.951 528.915 132.672 530.055 133.33L529.555 134.2ZM502.455 131.08L501.715 130.41C502.62 129.403 503.585 128.451 504.605 127.56L505.265 128.31C504.284 129.188 503.355 130.123 502.485 131.11L502.455 131.08ZM523.045 129.39C522.049 128.472 521.104 127.501 520.215 126.48L520.965 125.82C521.83 126.812 522.748 127.756 523.715 128.65L523.045 129.39ZM555.595 126.68C555.022 125.537 554.23 124.518 553.265 123.68L553.925 122.93C554.987 123.849 555.86 124.966 556.495 126.22L555.595 126.68ZM508.375 125.89L507.805 125.07C508.923 124.306 510.082 123.602 511.275 122.96L511.745 123.84C510.596 124.475 509.481 125.169 508.405 125.92L508.375 125.89ZM517.715 123.29C517.335 122.75 516.965 122.2 516.615 121.63L515.315 122.14L514.935 121.22L516.085 120.76C515.905 120.46 515.725 120.16 515.555 119.86L516.425 119.37C516.625 119.72 516.825 120.07 517.035 120.37C517.595 120.17 518.165 119.98 518.745 119.8L519.035 120.8C518.545 120.95 518.035 121.11 517.575 121.28C517.885 121.77 518.205 122.28 518.575 122.71L517.715 123.29ZM550.045 121.57C549.077 121.088 548.074 120.68 547.045 120.35L546.385 120.14L546.675 119.14L547.355 119.36C548.426 119.701 549.469 120.126 550.475 120.63L550.045 121.57ZM522.865 119.78L522.655 118.78C523.945 118.49 525.285 118.25 526.655 118.06L526.805 119.06C525.485 119.27 524.175 119.52 522.895 119.81L522.865 119.78ZM542.565 119.24C541.315 119.02 539.995 118.85 538.645 118.73L538.725 117.73C540.115 117.85 541.465 118.02 542.725 118.25L542.565 119.24ZM530.715 118.66L530.645 117.66C531.835 117.59 533.025 117.55 534.205 117.55H534.695V118.55H534.215C533.085 118.58 531.905 118.61 530.745 118.69L530.715 118.66ZM513.815 116.27C513.275 115.05 512.815 113.78 512.365 112.49L513.365 112.18C513.785 113.44 514.255 114.68 514.775 115.87L513.815 116.27ZM511.285 108.59C510.985 107.3 510.735 105.96 510.545 104.59L511.545 104.45C511.735 105.77 511.975 107.08 512.265 108.35L511.285 108.59ZM510.165 100.59C510.115 99.6899 510.085 98.7699 510.085 97.8499C510.085 97.4199 510.085 96.9799 510.085 96.5499H511.085C511.085 96.9799 511.085 97.3999 511.085 97.8299C511.085 98.7299 511.085 99.6399 511.155 100.51L510.165 100.59ZM511.355 92.5899L510.355 92.4899C510.495 91.1699 510.685 89.8199 510.915 88.4899L511.915 88.6599C511.645 89.9899 511.455 91.2699 511.325 92.6099L511.355 92.5899ZM512.725 84.7799L511.725 84.5399C512.045 83.2499 512.415 81.9499 512.825 80.6499L513.825 80.9599C513.375 82.2699 513.005 83.5399 512.695 84.7999L512.725 84.7799ZM515.125 77.2099L514.195 76.8499C514.685 75.5999 515.195 74.3499 515.805 73.1399L516.705 73.5799C516.105 74.7799 515.575 75.9999 515.095 77.2699L515.125 77.2099ZM518.565 70.0799L517.695 69.5699C518.375 68.4199 519.105 67.2699 519.865 66.1699L520.685 66.7399C519.905 67.8399 519.195 68.9599 518.535 70.0999L518.565 70.0799ZM523.075 63.5699L522.295 62.9399C523.135 61.9399 524.035 60.8799 524.965 59.9399L525.685 60.6299C524.745 61.5699 523.865 62.5699 523.045 63.5899L523.075 63.5699ZM528.515 57.8099L527.845 57.0699C528.845 56.1799 529.845 55.2999 530.915 54.4499L531.535 55.2399C530.465 56.0899 529.445 56.9599 528.485 57.8299L528.515 57.8099ZM534.725 52.8699L534.155 52.0399C535.245 51.2899 536.385 50.5499 537.545 49.8499L538.055 50.6999C536.895 51.4099 535.815 52.1399 534.695 52.8899L534.725 52.8699ZM541.515 48.7399L541.045 47.8599C542.225 47.2299 543.445 46.6299 544.665 46.0699L545.085 46.9799C543.815 47.5499 542.645 48.1499 541.485 48.7599L541.515 48.7399ZM548.745 45.4199L548.375 44.4799C549.635 43.9899 550.905 43.4799 552.165 43.1099L552.485 44.1099C551.215 44.4899 549.955 44.9499 548.715 45.4399L548.745 45.4199Z" fill="#1971BD"/>
<path d="M556.455 42.8902L556.205 41.8902C557.445 41.5702 558.205 41.4302 558.205 41.4302L558.385 42.4302C558.385 42.4302 557.665 42.5802 556.455 42.8902Z" fill="#1971BD"/>
<path d="M574.135 36.4302C571.585 28.5302 554.505 31.3702 557.835 41.7002C561.165 52.0302 576.685 44.3402 574.135 36.4302Z" fill="#1971BD"/>
<path d="M548.546 33.2701C548.676 29.8001 553.496 27.1301 560.316 28.3601C567.136 29.5901 573.546 34.1901 573.546 34.1901C573.546 34.1901 566.816 38.2701 559.926 39.0201C553.036 39.7701 548.416 36.7301 548.546 33.2701Z" fill="#EBEBEB"/>
<path d="M573.546 34.1701C570.006 34.1701 566.476 34.0701 562.946 33.9601C559.416 33.8501 555.876 33.6701 552.346 33.3901C555.886 33.3901 559.426 33.4801 562.956 33.5901C566.486 33.7001 570.026 33.8801 573.546 34.1701Z" fill="#1971BD"/>
<path d="M555.396 30.1802C557.406 31.1416 559.3 32.3257 561.045 33.7102C560.039 33.2382 559.064 32.7039 558.125 32.1102C557.178 31.5206 556.268 30.8761 555.396 30.1802Z" fill="#1971BD"/>
<path d="M564.665 33.8398C562.856 35.3059 560.895 36.5732 558.815 37.6198C560.633 36.1519 562.605 34.8846 564.695 33.8398H564.665Z" fill="#1971BD"/>
<path d="M565.695 31.8901C566.704 32.3747 567.587 33.0866 568.275 33.9701C567.77 33.732 567.297 33.4331 566.865 33.0801C566.431 32.7294 566.038 32.3301 565.695 31.8901Z" fill="#1971BD"/>
<path d="M555.045 53.8202C557.175 56.5602 562.645 55.9002 567.455 50.9202C572.265 45.9402 574.815 38.4502 574.815 38.4502C574.815 38.4502 566.935 39.0502 560.925 42.4502C554.915 45.8502 552.905 51.0702 555.045 53.8202Z" fill="#EBEBEB"/>
<path d="M574.815 38.4502C571.935 40.4502 569.135 42.6702 566.325 44.8202C563.515 46.9702 560.765 49.1902 558.075 51.4802C560.955 49.4802 563.755 47.2702 566.555 45.1202C569.355 42.9702 572.085 40.7502 574.815 38.4502Z" fill="#1971BD"/>
<path d="M562.396 52.2699C562.931 51.2985 563.408 50.2968 563.826 49.2699C564.251 48.2401 564.611 47.1847 564.905 46.1099C564.369 47.0804 563.891 48.0822 563.475 49.1099C563.054 50.1412 562.694 51.1963 562.396 52.2699Z" fill="#1971BD"/>
<path d="M567.815 43.9099C565.475 43.7848 563.129 43.9089 560.815 44.2799C561.981 44.3499 563.149 44.3499 564.315 44.2799C565.488 44.2227 566.656 44.0992 567.815 43.9099Z" fill="#1971BD"/>
<path d="M569.745 44.8999C570.012 44.4061 570.22 43.8825 570.365 43.3399C570.513 42.8014 570.6 42.2479 570.625 41.6899C570.093 42.6799 569.792 43.7773 569.745 44.8999Z" fill="#1971BD"/>
<path d="M574.135 36.43C573.57 36.6134 572.964 36.6251 572.392 36.4635C571.821 36.302 571.31 35.9745 570.925 35.5226C570.54 35.0707 570.298 34.5146 570.229 33.9249C570.16 33.3351 570.267 32.7381 570.538 32.2096C570.809 31.681 571.23 31.2447 571.749 30.9557C572.267 30.6668 572.86 30.5383 573.452 30.5866C574.044 30.6348 574.608 30.8576 575.073 31.2267C575.538 31.5958 575.884 32.0946 576.065 32.66C576.308 33.4159 576.241 34.2371 575.879 34.9437C575.517 35.6504 574.89 36.1848 574.135 36.43Z" fill="#455A64"/>
<path d="M575.975 42.1399C575.41 42.3226 574.806 42.3338 574.235 42.1721C573.664 42.0104 573.154 41.6832 572.769 41.2317C572.384 40.7802 572.142 40.2247 572.073 39.6355C572.003 39.0463 572.11 38.4498 572.379 37.9214C572.649 37.3931 573.069 36.9566 573.587 36.6671C574.105 36.3776 574.698 36.2481 575.29 36.295C575.881 36.342 576.444 36.5632 576.91 36.9307C577.375 37.2983 577.722 37.7956 577.905 38.3599C578.026 38.7348 578.074 39.1301 578.043 39.523C578.012 39.9159 577.903 40.2988 577.724 40.6499C577.545 41.0009 577.298 41.3132 576.998 41.5689C576.698 41.8245 576.35 42.0186 575.975 42.1399Z" fill="#455A64"/>
<path d="M248.126 39.5898C247.647 44.1829 245.901 48.5526 243.083 52.2111C240.265 55.8696 236.485 58.6731 232.167 60.3087C227.848 61.9443 223.16 62.3477 218.625 61.4738C214.09 60.5999 209.888 58.4832 206.486 55.3598L194.016 57.1898L200.256 46.4098C198.829 42.9021 198.22 39.1155 198.476 35.3373C198.731 31.5592 199.845 27.889 201.731 24.6055C203.617 21.322 206.227 18.5115 209.362 16.3877C212.497 14.2638 216.075 12.8823 219.824 12.3482C223.573 11.8141 227.394 12.1414 230.998 13.3053C234.601 14.4691 237.892 16.4388 240.621 19.0649C243.349 21.691 245.443 24.9042 246.743 28.4607C248.044 32.0171 248.517 35.8232 248.126 39.5898Z" fill="white"/>
<path d="M248.126 39.5899C247.657 44.1807 245.927 48.5521 243.126 52.2199C241.758 54.075 240.108 55.7047 238.236 57.0499C236.405 58.4456 234.385 59.5736 232.236 60.3999C230.086 61.2467 227.827 61.7853 225.526 62C224.376 62.1032 223.22 62.1266 222.066 62.07C220.909 62.0402 219.755 61.9198 218.616 61.7099C214.02 60.8644 209.751 58.7556 206.286 55.6199L206.576 55.7099L194.126 57.6199L193.216 57.7599L193.676 56.9599L199.876 46.1599V46.5899C198.413 43.0176 197.791 39.1566 198.058 35.3055C198.325 31.4544 199.474 27.7162 201.416 24.3799C203.356 21.0541 206.022 18.2099 209.216 16.0599C212.405 13.9385 216.033 12.5666 219.827 12.047C223.622 11.5275 227.485 11.8738 231.126 13.0599C234.729 14.2857 238.013 16.3016 240.736 18.9599C243.454 21.6117 245.532 24.8476 246.812 28.4221C248.093 31.9966 248.542 35.8158 248.126 39.5899ZM248.126 39.5899C248.53 35.8344 248.066 32.0363 246.769 28.4887C245.472 24.9412 243.377 21.7391 240.646 19.1298C237.915 16.5205 234.621 14.5737 231.018 13.4398C227.415 12.3059 223.599 12.0151 219.866 12.5899C216.17 13.137 212.65 14.5261 209.576 16.6499C206.529 18.7905 203.984 21.568 202.116 24.7899C200.278 28.019 199.194 31.6224 198.946 35.3299C198.703 39.0626 199.304 42.802 200.706 46.2699L200.796 46.4899L200.676 46.6999L194.396 57.4599L193.956 56.7999L206.436 55.0499H206.606L206.726 55.1599C210.062 58.265 214.196 60.3805 218.666 61.2699C219.78 61.4969 220.91 61.634 222.046 61.68C223.182 61.7599 224.321 61.7599 225.456 61.68C227.733 61.4965 229.974 61.0019 232.116 60.2099C234.264 59.4282 236.285 58.3366 238.116 56.9699C239.98 55.6356 241.632 54.0274 243.016 52.1999C245.853 48.5499 247.622 44.1849 248.126 39.5899Z" fill="#1971BD"/>
<path d="M211.155 48.6201C211.136 48.289 211.185 47.9576 211.299 47.6462C211.413 47.3349 211.59 47.0504 211.819 46.8103C212.048 46.5703 212.324 46.3798 212.629 46.2508C212.935 46.1217 213.263 46.0568 213.595 46.0601C214.274 46.0601 214.925 46.3298 215.405 46.8099C215.885 47.29 216.155 47.9412 216.155 48.6201C216.155 49.2991 215.885 49.9502 215.405 50.4303C214.925 50.9104 214.274 51.1801 213.595 51.1801C213.263 51.1834 212.935 51.1185 212.629 50.9895C212.324 50.8604 212.048 50.6699 211.819 50.4299C211.59 50.1898 211.413 49.9053 211.299 49.594C211.185 49.2827 211.136 48.9512 211.155 48.6201ZM212.155 42.7101L211.575 22.8701H215.575L214.995 42.7101H212.155Z" fill="#1971BD"/>
<path d="M220.666 48.6201C220.646 48.2899 220.695 47.9593 220.809 47.6486C220.923 47.338 221.099 47.0539 221.326 46.814C221.554 46.5741 221.829 46.3834 222.133 46.2538C222.437 46.1241 222.765 46.0582 223.096 46.0601C223.775 46.0601 224.426 46.3298 224.906 46.8099C225.386 47.29 225.656 47.9412 225.656 48.6201C225.656 49.2991 225.386 49.9502 224.906 50.4303C224.426 50.9104 223.775 51.1801 223.096 51.1801C222.765 51.182 222.437 51.1161 222.133 50.9865C221.829 50.8568 221.554 50.6661 221.326 50.4262C221.099 50.1863 220.923 49.9023 220.809 49.5916C220.695 49.281 220.646 48.9503 220.666 48.6201ZM221.666 42.7101L221.116 22.8701H225.116L224.536 42.7101H221.666Z" fill="#1971BD"/>
<path d="M230.166 48.6201C230.146 48.289 230.195 47.9576 230.31 47.6462C230.424 47.3349 230.601 47.0504 230.83 46.8103C231.059 46.5703 231.334 46.3798 231.64 46.2508C231.945 46.1217 232.274 46.0568 232.606 46.0601C233.285 46.0601 233.936 46.3298 234.416 46.8099C234.896 47.29 235.166 47.9412 235.166 48.6201C235.166 49.2991 234.896 49.9502 234.416 50.4303C233.936 50.9104 233.285 51.1801 232.606 51.1801C232.274 51.1834 231.945 51.1185 231.64 50.9895C231.334 50.8604 231.059 50.6699 230.83 50.4299C230.601 50.1898 230.424 49.9053 230.31 49.594C230.195 49.2827 230.146 48.9512 230.166 48.6201ZM231.166 42.7101L230.586 22.8701H234.586L234.016 42.7101H231.166Z" fill="#1971BD"/>
<path d="M185.7 442C185.487 442 185.305 441.925 185.156 441.776C185.007 441.627 184.932 441.445 184.932 441.232V420.4C184.932 420.165 184.996 419.973 185.124 419.824C185.273 419.675 185.465 419.6 185.7 419.6H188.164C188.42 419.6 188.612 419.653 188.74 419.76C188.868 419.845 188.985 419.963 189.092 420.112L198.308 434.448V420.4C198.308 420.165 198.372 419.973 198.5 419.824C198.649 419.675 198.841 419.6 199.076 419.6H201.764C201.999 419.6 202.191 419.675 202.34 419.824C202.489 419.973 202.564 420.165 202.564 420.4V441.2C202.564 441.435 202.489 441.627 202.34 441.776C202.191 441.925 202.009 442 201.796 442H199.3C198.937 442 198.628 441.829 198.372 441.488L189.188 427.472V441.232C189.188 441.467 189.113 441.659 188.964 441.808C188.815 441.936 188.623 442 188.388 442H185.7ZM214.533 442.32C212.037 442.32 210.106 441.68 208.741 440.4C207.376 439.099 206.64 437.328 206.533 435.088L206.501 433.68L206.533 432.272C206.64 430.053 207.386 428.293 208.773 426.992C210.16 425.691 212.08 425.04 214.533 425.04C216.986 425.04 218.906 425.691 220.293 426.992C221.68 428.293 222.426 430.053 222.533 432.272C222.554 432.528 222.565 432.997 222.565 433.68C222.565 434.363 222.554 434.832 222.533 435.088C222.426 437.328 221.69 439.099 220.325 440.4C218.96 441.68 217.029 442.32 214.533 442.32ZM214.533 439.152C215.664 439.152 216.538 438.8 217.157 438.096C217.776 437.371 218.117 436.315 218.181 434.928C218.202 434.715 218.213 434.299 218.213 433.68C218.213 433.061 218.202 432.645 218.181 432.432C218.117 431.045 217.776 430 217.157 429.296C216.538 428.571 215.664 428.208 214.533 428.208C213.402 428.208 212.528 428.571 211.909 429.296C211.29 430 210.949 431.045 210.885 432.432L210.853 433.68L210.885 434.928C210.949 436.315 211.29 437.371 211.909 438.096C212.528 438.8 213.402 439.152 214.533 439.152ZM234.575 442C234.362 442 234.18 441.925 234.031 441.776C233.882 441.627 233.807 441.445 233.807 441.232V420.4C233.807 420.165 233.871 419.973 233.999 419.824C234.148 419.675 234.34 419.6 234.575 419.6H242.383C248.655 419.6 251.855 422.501 251.983 428.304C252.026 429.541 252.047 430.373 252.047 430.8C252.047 431.205 252.026 432.027 251.983 433.264C251.898 436.251 251.098 438.459 249.583 439.888C248.068 441.296 245.722 442 242.543 442H234.575ZM242.383 438.32C244.175 438.32 245.466 437.925 246.255 437.136C247.044 436.325 247.46 435.003 247.503 433.168C247.546 431.888 247.567 431.088 247.567 430.768C247.567 430.427 247.546 429.637 247.503 428.4C247.46 426.651 247.012 425.36 246.159 424.528C245.327 423.696 244.015 423.28 242.223 423.28H238.255V438.32H242.383ZM260.755 442.32C259.667 442.32 258.664 442.107 257.747 441.68C256.851 441.232 256.136 440.635 255.603 439.888C255.091 439.141 254.835 438.32 254.835 437.424C254.835 435.973 255.422 434.8 256.595 433.904C257.768 433.008 259.379 432.4 261.427 432.08L265.811 431.44V430.768C265.811 429.829 265.576 429.125 265.107 428.656C264.638 428.187 263.88 427.952 262.835 427.952C262.131 427.952 261.555 428.091 261.107 428.368C260.68 428.624 260.339 428.88 260.083 429.136C259.827 429.413 259.656 429.595 259.571 429.68C259.486 429.936 259.326 430.064 259.091 430.064H256.627C256.435 430.064 256.264 430 256.115 429.872C255.987 429.744 255.923 429.573 255.923 429.36C255.944 428.827 256.2 428.219 256.691 427.536C257.203 426.853 257.982 426.267 259.027 425.776C260.072 425.285 261.352 425.04 262.867 425.04C265.384 425.04 267.219 425.605 268.371 426.736C269.523 427.867 270.099 429.349 270.099 431.184V441.232C270.099 441.445 270.024 441.627 269.875 441.776C269.747 441.925 269.566 442 269.331 442H266.739C266.526 442 266.344 441.925 266.195 441.776C266.046 441.627 265.971 441.445 265.971 441.232V439.984C265.502 440.667 264.83 441.232 263.955 441.68C263.102 442.107 262.035 442.32 260.755 442.32ZM261.843 439.28C263.016 439.28 263.976 438.896 264.723 438.128C265.47 437.36 265.843 436.24 265.843 434.768V434.096L262.643 434.608C261.406 434.8 260.467 435.109 259.827 435.536C259.208 435.963 258.899 436.485 258.899 437.104C258.899 437.787 259.187 438.32 259.763 438.704C260.339 439.088 261.032 439.28 261.843 439.28ZM281.568 442C279.627 442 278.165 441.499 277.184 440.496C276.224 439.472 275.744 437.979 275.744 436.016V428.752H273.216C273.003 428.752 272.821 428.677 272.672 428.528C272.523 428.357 272.448 428.165 272.448 427.952V426.128C272.448 425.915 272.523 425.733 272.672 425.584C272.821 425.435 273.003 425.36 273.216 425.36H275.744V420.048C275.744 419.813 275.819 419.632 275.968 419.504C276.117 419.355 276.299 419.28 276.512 419.28H279.104C279.339 419.28 279.52 419.355 279.648 419.504C279.797 419.632 279.872 419.813 279.872 420.048V425.36H283.872C284.107 425.36 284.288 425.435 284.416 425.584C284.565 425.712 284.64 425.893 284.64 426.128V427.952C284.64 428.187 284.565 428.379 284.416 428.528C284.267 428.677 284.085 428.752 283.872 428.752H279.872V435.696C279.872 436.613 280.032 437.307 280.352 437.776C280.672 438.245 281.205 438.48 281.952 438.48H284.16C284.373 438.48 284.555 438.555 284.704 438.704C284.853 438.853 284.928 439.035 284.928 439.248V441.232C284.928 441.445 284.853 441.627 284.704 441.776C284.576 441.925 284.395 442 284.16 442H281.568ZM292.599 442.32C291.511 442.32 290.508 442.107 289.591 441.68C288.695 441.232 287.98 440.635 287.447 439.888C286.935 439.141 286.679 438.32 286.679 437.424C286.679 435.973 287.265 434.8 288.439 433.904C289.612 433.008 291.223 432.4 293.271 432.08L297.655 431.44V430.768C297.655 429.829 297.42 429.125 296.951 428.656C296.481 428.187 295.724 427.952 294.679 427.952C293.975 427.952 293.399 428.091 292.951 428.368C292.524 428.624 292.183 428.88 291.927 429.136C291.671 429.413 291.5 429.595 291.415 429.68C291.329 429.936 291.169 430.064 290.935 430.064H288.471C288.279 430.064 288.108 430 287.959 429.872C287.831 429.744 287.767 429.573 287.767 429.36C287.788 428.827 288.044 428.219 288.535 427.536C289.047 426.853 289.825 426.267 290.871 425.776C291.916 425.285 293.196 425.04 294.711 425.04C297.228 425.04 299.063 425.605 300.215 426.736C301.367 427.867 301.943 429.349 301.943 431.184V441.232C301.943 441.445 301.868 441.627 301.719 441.776C301.591 441.925 301.409 442 301.175 442H298.583C298.369 442 298.188 441.925 298.039 441.776C297.889 441.627 297.815 441.445 297.815 441.232V439.984C297.345 440.667 296.673 441.232 295.799 441.68C294.945 442.107 293.879 442.32 292.599 442.32ZM293.687 439.28C294.86 439.28 295.82 438.896 296.567 438.128C297.313 437.36 297.687 436.24 297.687 434.768V434.096L294.487 434.608C293.249 434.8 292.311 435.109 291.671 435.536C291.052 435.963 290.743 436.485 290.743 437.104C290.743 437.787 291.031 438.32 291.607 438.704C292.183 439.088 292.876 439.28 293.687 439.28ZM311.525 442C311.354 442 311.194 441.936 311.045 441.808C310.917 441.68 310.853 441.52 310.853 441.328L310.917 441.04L318.629 420.4C318.778 419.867 319.151 419.6 319.749 419.6H323.237C323.791 419.6 324.165 419.867 324.357 420.4L332.069 441.04C332.09 441.104 332.101 441.2 332.101 441.328C332.101 441.52 332.037 441.68 331.909 441.808C331.781 441.936 331.631 442 331.461 442H328.677C328.399 442 328.186 441.936 328.037 441.808C327.887 441.68 327.791 441.541 327.749 441.392L326.245 437.488H316.741L315.237 441.392C315.066 441.797 314.757 442 314.309 442H311.525ZM325.125 433.808L321.477 423.92L317.861 433.808H325.125ZM339.467 442C339.147 442 338.902 441.936 338.731 441.808C338.561 441.659 338.422 441.456 338.315 441.2L332.331 426.352L332.267 426.064C332.267 425.872 332.331 425.712 332.459 425.584C332.609 425.435 332.779 425.36 332.971 425.36H335.563C335.969 425.36 336.246 425.563 336.395 425.968L340.651 437.2L344.907 425.968C344.971 425.819 345.067 425.68 345.195 425.552C345.345 425.424 345.526 425.36 345.739 425.36H348.363C348.534 425.36 348.683 425.435 348.811 425.584C348.961 425.712 349.035 425.872 349.035 426.064C349.035 426.192 349.025 426.288 349.003 426.352L342.987 441.2C342.881 441.456 342.742 441.659 342.571 441.808C342.401 441.936 342.155 442 341.835 442H339.467ZM356.099 442.32C355.011 442.32 354.008 442.107 353.091 441.68C352.195 441.232 351.48 440.635 350.947 439.888C350.435 439.141 350.179 438.32 350.179 437.424C350.179 435.973 350.765 434.8 351.939 433.904C353.112 433.008 354.723 432.4 356.771 432.08L361.155 431.44V430.768C361.155 429.829 360.92 429.125 360.451 428.656C359.981 428.187 359.224 427.952 358.179 427.952C357.475 427.952 356.899 428.091 356.451 428.368C356.024 428.624 355.683 428.88 355.427 429.136C355.171 429.413 355 429.595 354.915 429.68C354.829 429.936 354.669 430.064 354.435 430.064H351.971C351.779 430.064 351.608 430 351.459 429.872C351.331 429.744 351.267 429.573 351.267 429.36C351.288 428.827 351.544 428.219 352.035 427.536C352.547 426.853 353.325 426.267 354.371 425.776C355.416 425.285 356.696 425.04 358.211 425.04C360.728 425.04 362.563 425.605 363.715 426.736C364.867 427.867 365.443 429.349 365.443 431.184V441.232C365.443 441.445 365.368 441.627 365.219 441.776C365.091 441.925 364.909 442 364.675 442H362.083C361.869 442 361.688 441.925 361.539 441.776C361.389 441.627 361.315 441.445 361.315 441.232V439.984C360.845 440.667 360.173 441.232 359.299 441.68C358.445 442.107 357.379 442.32 356.099 442.32ZM357.187 439.28C358.36 439.28 359.32 438.896 360.067 438.128C360.813 437.36 361.187 436.24 361.187 434.768V434.096L357.987 434.608C356.749 434.8 355.811 435.109 355.171 435.536C354.552 435.963 354.243 436.485 354.243 437.104C354.243 437.787 354.531 438.32 355.107 438.704C355.683 439.088 356.376 439.28 357.187 439.28ZM370.188 422.608C369.975 422.608 369.793 422.533 369.644 422.384C369.495 422.235 369.42 422.053 369.42 421.84V419.536C369.42 419.323 369.495 419.141 369.644 418.992C369.793 418.843 369.975 418.768 370.188 418.768H373.1C373.313 418.768 373.495 418.843 373.644 418.992C373.815 419.141 373.9 419.323 373.9 419.536V421.84C373.9 422.053 373.825 422.235 373.676 422.384C373.527 422.533 373.335 422.608 373.1 422.608H370.188ZM370.316 442C370.103 442 369.921 441.925 369.772 441.776C369.623 441.627 369.548 441.445 369.548 441.232V426.128C369.548 425.915 369.623 425.733 369.772 425.584C369.921 425.435 370.103 425.36 370.316 425.36H372.972C373.207 425.36 373.388 425.435 373.516 425.584C373.665 425.712 373.74 425.893 373.74 426.128V441.232C373.74 441.445 373.665 441.627 373.516 441.776C373.388 441.925 373.207 442 372.972 442H370.316ZM378.786 442C378.572 442 378.391 441.925 378.242 441.776C378.092 441.627 378.018 441.445 378.018 441.232V420.048C378.018 419.813 378.092 419.632 378.242 419.504C378.391 419.355 378.572 419.28 378.786 419.28H381.442C381.676 419.28 381.858 419.355 381.986 419.504C382.135 419.632 382.21 419.813 382.21 420.048V441.232C382.21 441.445 382.135 441.627 381.986 441.776C381.858 441.925 381.676 442 381.442 442H378.786ZM391.286 442.32C390.198 442.32 389.196 442.107 388.278 441.68C387.382 441.232 386.668 440.635 386.134 439.888C385.622 439.141 385.366 438.32 385.366 437.424C385.366 435.973 385.953 434.8 387.126 433.904C388.3 433.008 389.91 432.4 391.958 432.08L396.342 431.44V430.768C396.342 429.829 396.108 429.125 395.638 428.656C395.169 428.187 394.412 427.952 393.366 427.952C392.662 427.952 392.086 428.091 391.638 428.368C391.212 428.624 390.87 428.88 390.614 429.136C390.358 429.413 390.188 429.595 390.102 429.68C390.017 429.936 389.857 430.064 389.622 430.064H387.158C386.966 430.064 386.796 430 386.646 429.872C386.518 429.744 386.454 429.573 386.454 429.36C386.476 428.827 386.732 428.219 387.222 427.536C387.734 426.853 388.513 426.267 389.558 425.776C390.604 425.285 391.884 425.04 393.398 425.04C395.916 425.04 397.75 425.605 398.902 426.736C400.054 427.867 400.63 429.349 400.63 431.184V441.232C400.63 441.445 400.556 441.627 400.406 441.776C400.278 441.925 400.097 442 399.862 442H397.27C397.057 442 396.876 441.925 396.726 441.776C396.577 441.627 396.502 441.445 396.502 441.232V439.984C396.033 440.667 395.361 441.232 394.486 441.68C393.633 442.107 392.566 442.32 391.286 442.32ZM392.374 439.28C393.548 439.28 394.508 438.896 395.254 438.128C396.001 437.36 396.374 436.24 396.374 434.768V434.096L393.174 434.608C391.937 434.8 390.998 435.109 390.358 435.536C389.74 435.963 389.43 436.485 389.43 437.104C389.43 437.787 389.718 438.32 390.294 438.704C390.87 439.088 391.564 439.28 392.374 439.28ZM413.952 442.32C411.754 442.32 410.048 441.563 408.832 440.048V441.232C408.832 441.445 408.757 441.627 408.608 441.776C408.48 441.925 408.298 442 408.064 442H405.536C405.322 442 405.141 441.925 404.992 441.776C404.842 441.627 404.768 441.445 404.768 441.232V420.048C404.768 419.813 404.842 419.632 404.992 419.504C405.141 419.355 405.322 419.28 405.536 419.28H408.256C408.49 419.28 408.672 419.355 408.8 419.504C408.949 419.632 409.024 419.813 409.024 420.048V427.152C410.24 425.744 411.882 425.04 413.952 425.04C416.106 425.04 417.76 425.744 418.912 427.152C420.064 428.56 420.682 430.384 420.768 432.624C420.789 432.88 420.8 433.221 420.8 433.648C420.8 434.096 420.789 434.448 420.768 434.704C420.682 437.008 420.064 438.853 418.912 440.24C417.76 441.627 416.106 442.32 413.952 442.32ZM412.768 438.896C415.072 438.896 416.298 437.477 416.448 434.64C416.469 434.427 416.48 434.107 416.48 433.68C416.48 433.253 416.469 432.933 416.448 432.72C416.298 429.883 415.072 428.464 412.768 428.464C411.573 428.464 410.656 428.848 410.016 429.616C409.397 430.363 409.066 431.269 409.024 432.336L408.992 433.552L409.024 434.8C409.088 435.952 409.418 436.923 410.016 437.712C410.613 438.501 411.53 438.896 412.768 438.896ZM425.161 442C424.947 442 424.766 441.925 424.617 441.776C424.467 441.627 424.393 441.445 424.393 441.232V420.048C424.393 419.813 424.467 419.632 424.617 419.504C424.766 419.355 424.947 419.28 425.161 419.28H427.817C428.051 419.28 428.233 419.355 428.361 419.504C428.51 419.632 428.585 419.813 428.585 420.048V441.232C428.585 441.445 428.51 441.627 428.361 441.776C428.233 441.925 428.051 442 427.817 442H425.161ZM439.997 442.32C437.629 442.32 435.741 441.637 434.333 440.272C432.947 438.885 432.211 436.944 432.125 434.448L432.093 433.648L432.125 432.848C432.232 430.416 432.979 428.507 434.365 427.12C435.773 425.733 437.651 425.04 439.997 425.04C442.515 425.04 444.456 425.808 445.821 427.344C447.208 428.88 447.901 430.928 447.901 433.488V434.16C447.901 434.373 447.827 434.555 447.677 434.704C447.528 434.853 447.336 434.928 447.101 434.928H436.477V435.184C436.52 436.357 436.84 437.349 437.437 438.16C438.056 438.949 438.899 439.344 439.965 439.344C441.224 439.344 442.237 438.853 443.005 437.872C443.197 437.637 443.347 437.488 443.453 437.424C443.581 437.36 443.763 437.328 443.997 437.328H446.749C446.941 437.328 447.101 437.392 447.229 437.52C447.379 437.627 447.453 437.765 447.453 437.936C447.453 438.448 447.144 439.056 446.525 439.76C445.928 440.443 445.064 441.04 443.933 441.552C442.803 442.064 441.491 442.32 439.997 442.32ZM443.549 432.24V432.144C443.549 430.885 443.229 429.872 442.589 429.104C441.971 428.336 441.107 427.952 439.997 427.952C438.888 427.952 438.024 428.336 437.405 429.104C436.787 429.872 436.477 430.885 436.477 432.144V432.24H443.549Z" fill="#1C1C1C"/>
</svg>
