<?xml version="1.0" encoding="utf-8"?>
<!-- Generator: Adobe Illustrator 22.1.0, SVG Export Plug-In . SVG Version: 6.00 Build 0)  -->
<svg version="1.1" id="Layer_1" xmlns="http://www.w3.org/2000/svg" xmlns:xlink="http://www.w3.org/1999/xlink" x="0px" y="0px"
	 viewBox="0 0 98.7 33.7" style="enable-background:new 0 0 98.7 33.7;" xml:space="preserve">
<style type="text/css">
	.st0{fill:#326CE5;}
</style>
<g>
	<g>
		<g>
			<path class="st0" d="M37.8,24.6h-3.3l-3.1-4.3v4.3h-2.9V10.9h2.9v8.2l2.9-4.3h3.4l-3.6,4.9L37.8,24.6z"/>
			<path class="st0" d="M44.8,14.8h2.9v9.8h-2.9v-0.9c-0.6,0.8-1.5,1.2-2.8,1.2c-1,0-1.9-0.4-2.6-1.1c-0.7-0.7-1-1.7-1-3v-6h2.9v5.6
				c0,0.6,0.2,1,0.5,1.3c0.3,0.3,0.7,0.5,1.2,0.5c0.6,0,1-0.2,1.3-0.5c0.3-0.3,0.5-0.8,0.5-1.5V14.8z"/>
			<path class="st0" d="M55.7,14.6c1.3,0,2.4,0.5,3.3,1.5c0.9,1,1.4,2.2,1.4,3.7c0,1.4-0.5,2.7-1.4,3.7c-0.9,1-2,1.5-3.3,1.5
				c-1.2,0-2.2-0.4-2.9-1.2v0.9h-2.9V10.9h2.9v4.8C53.5,15,54.4,14.6,55.7,14.6z M53.4,21.4c0.4,0.4,1,0.6,1.7,0.6
				c0.7,0,1.2-0.2,1.7-0.6c0.4-0.4,0.7-1,0.7-1.7c0-0.7-0.2-1.3-0.7-1.7c-0.4-0.4-1-0.6-1.7-0.6c-0.7,0-1.2,0.2-1.7,0.6
				c-0.4,0.4-0.7,1-0.7,1.7C52.8,20.4,53,21,53.4,21.4z"/>
			<path class="st0" d="M64.6,20.9c0.3,0.9,1.1,1.4,2.3,1.4c0.8,0,1.4-0.2,1.9-0.7l2.3,1.3c-1,1.3-2.4,2-4.3,2c-1.6,0-3-0.5-3.9-1.5
				c-1-1-1.5-2.2-1.5-3.7c0-1.5,0.5-2.7,1.5-3.7c1-1,2.2-1.5,3.7-1.5c1.4,0,2.6,0.5,3.5,1.5c0.9,1,1.4,2.2,1.4,3.7
				c0,0.4,0,0.8-0.1,1.2H64.6z M64.6,18.7h4.2c-0.3-1-1-1.5-2.1-1.5C65.6,17.2,64.9,17.7,64.6,18.7z"/>
			<path class="st0" d="M84.8,24.9c-2,0-3.7-0.7-5.1-2c-1.3-1.4-2-3-2-5.1c0-2,0.7-3.7,2-5.1c1.3-1.4,3-2,5.1-2
				c1.2,0,2.4,0.3,3.4,0.8c1,0.6,1.9,1.3,2.5,2.3L88,15.4c-0.3-0.5-0.7-0.9-1.3-1.2c-0.6-0.3-1.2-0.4-1.9-0.4
				c-1.2,0-2.2,0.4-2.9,1.1c-0.7,0.7-1.1,1.7-1.1,2.9c0,1.2,0.4,2.2,1.1,2.9c0.7,0.7,1.7,1.1,2.9,1.1c0.7,0,1.3-0.1,1.9-0.4
				c0.6-0.3,1-0.7,1.3-1.2l2.7,1.6c-0.6,1-1.4,1.7-2.4,2.3C87.2,24.6,86.1,24.9,84.8,24.9z"/>
			<path class="st0" d="M92.2,10.9h3.1v13.7h-3.1V10.9z"/>
		</g>
	</g>
	<g>
		<g>
			<path class="st0" d="M15.1,23.5c0.4-0.8,0.6-1.3,1-3.1c0.4-1.7,0.6-2.5,0.7-2.6c0,0,0,0,0,0.1c0,0.1,0,0.1,0,0.1
				c0.2,0,1.1-0.5,2-0.9c1.7-1,2.6-1.7,2.9-2.4c0.2-0.3,0.2-0.4,0.2-0.7c0-0.4-0.1-0.5-0.3-0.7c-0.2-0.2-0.5-0.2-1-0.2
				c-0.6,0-1,0.1-1.6,0.3c-1.3,0.5-2.7,1.7-3.7,3.1c-0.3,0.5-0.5,0.7-1,1.9c-0.6,1.2-0.7,1.4-1.1,2c-1.1,1.8-2.1,2.7-3.5,3.2
				c-0.7,0.3-1.4,0.2-1.6-0.2c-0.2-0.4,0.4-1.2,1.4-1.9c0.7-0.5,2.2-1.3,2.3-1.3c0,0-0.1,0.3-0.3,0.5c-0.1,0.1-0.4,0.3-0.7,0.5
				c-1,0.5-1.5,1-1.8,1.4c-0.2,0.3-0.2,0.5,0,0.6c0.2,0.1,0.8,0,1.3-0.2c0.3-0.2,0.9-0.7,1.3-1.1c0.7-0.7,1.2-1.5,1.9-3
				c1.1-2.3,1.3-2.7,1.9-3.4c1.1-1.5,2.9-2.7,4.7-3c0.4-0.1,1.1-0.1,1.4-0.1c0.4,0.1,0.7,0.2,1,0.4c0-0.2-0.1-0.4-0.1-0.6
				c-0.1-0.3-0.2-0.6-0.5-0.8c-0.6-0.1-1.3,0-2,0.1c-1.1,0.3-2.2,0.8-3.2,1.5c-0.9,0.6-1.8,1.6-2.4,2.5c-0.4,0.7-0.7,1.3-1.2,2.7
				c-0.4,1-0.9,2.1-1.3,2.7C11.2,22,9.9,23.1,9.5,23c-0.2,0-0.1-0.3,0.3-0.6c0.2-0.2,1.1-0.8,1.3-0.9c0,0,0.1,0,0,0.1
				c0,0.1,0,0.1,0,0c0.1-0.1,0.4-0.6,0.6-1c0.4-0.7,0.4-0.9,1.1-3.1c0.6-1.8,1-2.6,1.8-3.6c1.1-1.3,2.5-2.3,4-2.8
				c0.3-0.1,1-0.3,1.2-0.3c0,0,0.1,0,0.1,0c-0.6-0.3-1.1-0.5-1.7-0.8c-0.9,0.4-1.8,0.9-2.6,1.4c-1.2,0.9-2.1,2-2.6,3.3
				c-0.4,0.9-0.6,1.8-1,3.6c-0.3,1.3-0.5,2.1-0.4,1.8c0-0.2,0-0.2-0.1-0.2c-0.3,0.1-1.4,0.6-2.1,1c-1.6,0.9-2.5,1.9-2.5,2.6
				c0,0,0,0.1,0,0.1c0.2,0.3,0.4,0.5,0.6,0.8c0,0,0.1,0,0.1,0c0.3,0.1,1.1,0,1.6-0.1c1.1-0.3,2.5-1.3,3.4-2.4
				c0.5-0.7,0.8-1.2,1.5-2.3c0.8-1.6,1-1.9,1.3-2.4c0.2-0.3,0.5-0.7,0.6-0.9c1.1-1.4,2.8-2.4,3.9-2.4c0.5,0,0.7,0.2,0.7,0.5
				c0,0.5-0.4,1-1.2,1.6c-0.9,0.6-2.5,1.6-2.7,1.6c-0.1,0-0.1-0.1,0-0.2c0.1-0.2,0.2-0.3,1-0.7c0.9-0.5,1.4-0.8,1.7-1.2
				c0.3-0.3,0.5-0.6,0.5-0.8c0-0.2,0-0.2-0.2-0.3c-0.3-0.1-0.7,0-1.3,0.3c-0.7,0.4-1.5,1-2.2,1.9c-0.6,0.8-0.8,1.1-2,3.6
				c-0.2,0.5-0.5,1-0.6,1.2c-1.3,2.2-3.7,3.6-5.6,3.7c0.2,0.2,0.4,0.5,0.6,0.7c0.3,0,0.6-0.1,0.9-0.2c1.6-0.4,3.3-1.7,4.3-3.1
				c0.5-0.8,0.9-1.6,1.8-3.7c0.7-1.7,1.4-2.7,2.4-3.5c0.5-0.4,1-0.6,1-0.4c0,0.2-1,1.1-1.6,1.4c-0.2,0.1-0.2,0.1-0.1-0.1
				c0.1-0.2-0.4,0.3-0.6,0.6c-0.4,0.6-0.6,1-1.4,3.6c-0.4,1.2-0.7,1.9-1.2,2.6c-1.2,1.8-3,3-4.9,3.4c0,0,0,0,0,0
				c0.3,0.3,0.6,0.5,1.1,0.5c0.3,0,0.6,0,0.9,0C12.9,26.2,14,25.3,15.1,23.5z"/>
			<path class="st0" d="M18.6,18.8C18.3,18.9,18,19,17.9,19c-0.4,0.2-0.7,0.3-1,0.3l-0.2,0.1l0,0.2c0,0.1,0,0.2,0,0.2
				c0.1,0.1,2.4-0.7,3.9-1.4c1.1-0.5,2-1,2.8-1.5c-0.1-0.3-0.1-0.5-0.2-0.8c-0.1,0.1-0.3,0.3-0.4,0.4C21.8,17.3,20.3,18.1,18.6,18.8
				z"/>
			<path class="st0" d="M10.9,16.3c0,0-0.1-0.4-0.6-1.1c-1.2-2-1.8-3.1-2-4.5c-0.4,0.2-0.7,0.3-1.1,0.5c0.3,0.7,0.9,1.6,1.4,2.3
				c0.4,0.6,1.1,1.3,1.1,1.4c0,0,0.1,0.1,0,0.1c-0.1,0-0.9-0.8-1.7-1.6c-0.6-0.6-1.1-1.2-1.6-1.8c-0.2,0.2-0.3,0.4-0.3,0.6
				c0,0,0,0.1,0,0.1c0.3,0.3,0.7,0.7,0.9,0.8c0.2,0.2,0.7,0.6,1.2,0.9C8.7,14.4,9,14.6,9,14.7c0.1,0.1-2-1.1-2.9-1.8c0,0,0,0-0.1,0
				C6,13,6,13.2,6,13.4c0.4,0.2,0.8,0.4,1,0.5c0.2,0.1,0.6,0.3,1,0.5c0.4,0.2,0.7,0.3,0.7,0.3c0,0,0,0,0.1,0c0,0.1-1.5-0.4-2.7-0.9
				c-0.1,0-0.1,0-0.2-0.1c0,0.2-0.1,0.3-0.1,0.5c0.3,0.1,0.6,0.2,0.9,0.3c1.3,0.3,2.8,0.8,2.7,0.8c0,0-0.2,0-0.5-0.1
				C8.4,15.1,8.3,15,7.8,15c-0.2,0-0.6-0.1-0.8-0.2c-0.2,0-0.7-0.1-1.1-0.2c-0.1,0-0.1,0-0.2,0c0,0.2-0.1,0.3-0.1,0.5
				c0.3,0,0.7,0.1,1,0.1c1.5,0.2,3.3,0.4,3.4,0.5c0,0-0.1,0-0.2,0c-0.4-0.1-2.5-0.1-4.3-0.2c0,0.2-0.1,0.4-0.1,0.6
				c0.3,0,0.5,0,0.5,0c0.1,0,0.6,0,1.1,0c0.5,0,1,0,1.1,0c0.1,0,0.5,0,0.9,0s0.9,0,1.1,0c0.4,0,0.5,0,0.5,0.1
				c0.1,0.1,0.1,0.2-0.5,0.2c-0.7,0-3.1,0.3-4.9,0.5c-0.1,0.2-0.1,0.5-0.2,0.7c1.3-0.2,2.9-0.5,4.6-0.8
				C10.5,16.4,10.9,16.4,10.9,16.3z"/>
			<path class="st0" d="M11.4,19.5c0.2-0.1,0.4-0.1,0.4-0.2c0,0,0.1-0.2,0.1-0.4c0.1-0.4,0.1-0.6,0.1-2.2c0.1-2.9,1.2-5.1,3.4-6.7
				c0.4-0.3,0.5-0.4,1.2-0.8c0.1,0,0.1-0.1,0.2-0.1c-0.6-0.3-1.2-0.6-1.8-0.9c-1.7,1.3-2.8,2.9-3.3,4.6c-0.2,0.8-0.2,1-0.2,2.2
				c0,0.9,0,1.2,0.1,1.8c0.2,1.2,0.2,1.1,0,1.1c-0.2,0-2.2,0.8-3.1,1.2c-0.2,0.1-0.4,0.2-0.4,0.2c0,0-1.6,0.8-2.1,1.1
				c-0.4,0.2-0.7,0.4-0.9,0.6c0.2,0.2,0.3,0.4,0.5,0.6c0.1-0.1,0.2-0.1,0.2-0.2c1.1-0.9,3-1.9,5.2-2.7c0.4-0.1,0.7-0.3,0.7-0.3
				c0,0,0,0.1,0,0.2l0,0.2l-0.5,0.2c-1.7,0.6-3.5,1.6-4.8,2.6C6.3,21.8,6.1,22,6,22.1c0.1,0.1,0.2,0.3,0.3,0.4
				c0.1,0.1,0.1,0.2,0.2,0.3c0.1-0.1,0.1-0.2,0.2-0.3C7.1,22,7.5,21.7,8.5,21C9.4,20.4,10.8,19.7,11.4,19.5z"/>
			<path class="st0" d="M10.9,17.9c0.3-0.1,0.6-0.2,0.6-0.2c0.1,0,0.1-0.1,0-0.4c0-0.2-0.2-0.8-0.3-1.4c-0.4-1.6-0.4-1.8-0.4-2.9
				c0-0.8,0-1,0.1-1.4c0.2-0.9,0.5-1.8,1.1-2.6c-0.2,0.1-0.4,0.2-0.6,0.3c-0.6,0.3-1.2,0.6-1.7,0.8c0,0.3,0,0.6,0,1
				c0,1.1,0.1,1.8,0.5,2.9c0.2,0.6,0.5,1.4,0.8,2.1c0.1,0.3,0.2,0.5,0.2,0.5c0,0-0.3,0.1-0.6,0.1c-0.6,0.1-1.7,0.3-2.1,0.4
				c-0.1,0-0.5,0.1-0.8,0.2c-0.8,0.2-1.9,0.4-2.7,0.6c-0.1,0.3-0.1,0.6-0.2,0.9c1.5-0.5,2.9-0.9,5.5-1.6l1.1-0.3l0.1,0.1
				c0,0.1,0.1,0.1,0,0.2s-0.3,0.1-0.7,0.2c-0.4,0.1-0.7,0.2-0.8,0.2c-0.1,0-0.3,0.1-0.6,0.2c-0.6,0.2-2.2,0.7-2.7,0.9
				c-0.8,0.3-1.5,0.6-2.1,0.9c0,0.1,0,0.3,0,0.4c0,0.2,0.1,0.3,0.1,0.4c0.6-0.4,1.2-0.7,2-1C7.9,18.9,10.1,18.1,10.9,17.9z"/>
			<path class="st0" d="M20.8,20.6c1.2-0.2,2.4-0.6,3.2-0.8c0-0.1,0-0.2,0-0.2c0-0.2-0.1-0.3-0.1-0.5c0,0,0,0-0.1,0
				c-0.8,0.4-2,0.7-5.1,1.5c-0.8,0.2-1.4,0.4-1.4,0.4c0,0-0.1,0-0.1-0.1c-0.1-0.1-0.1-0.1,0-0.2c0,0,0.3-0.1,0.6-0.2
				c2.4-0.6,4.6-1.4,6-2c0-0.1-0.1-0.2-0.1-0.4c0-0.1-0.1-0.3-0.1-0.4c-0.1,0.1-0.2,0.1-0.3,0.2c-1.2,0.7-3.3,1.5-5.5,2.1
				c-0.9,0.2-0.9,0.3-0.9,0.4c0,0.1,0.1,0.9,0.4,1.8c0.3,1.2,0.3,1.3,0.3,2.2c0,0.8-0.1,1.4-0.3,1.9c-0.1,0.2-0.2,0.4-0.3,0.7
				c0.3,0,0.7,0,1,0c0.2,0,0.4,0,0.5-0.1c0-0.2,0-0.5,0-0.7c0-0.2,0-0.7-0.1-1.2c0-0.3-0.1-0.6-0.2-0.9c-0.1-0.5-0.3-1-0.5-1.5
				c-0.1-0.2-0.2-0.4-0.3-0.6c0-0.1-0.1-0.2-0.1-0.2c0,0,0,0,0.1,0.1c0,0.1,0.3,0.6,0.6,1c0.6,1,1.1,2.3,1.3,2.9c0,0,0,0.1,0.1,0.2
				c0.2-0.3,0.4-0.5,0.7-0.8c-0.1-0.2-0.2-0.3-0.3-0.4c-0.2-0.3-0.7-0.9-1.1-1.5c-0.4-0.5-0.8-1-0.7-1c0,0,0.8,0,1.9,0.1
				c0.5,0,1.6,0,2.5,0c0.1-0.2,0.3-0.4,0.4-0.5c-0.8,0.1-2,0.1-3.8,0.2c-0.9,0-1.1,0-1.2,0c0,0-0.1-0.1-0.1-0.1c0,0,0.3,0,0.6-0.1
				c1.7-0.1,3.6-0.3,4.9-0.5c0.2-0.2,0.3-0.4,0.5-0.6c0.1-0.1,0.1-0.1,0.1-0.2c-0.1,0-0.2,0-0.2,0.1c-1.2,0.3-2.6,0.6-4,0.7
				c-1.2,0.1-2,0.3-2.1,0.3c-0.1,0,0,0.2-0.1-0.1c0,0-0.1-0.2,0-0.2C17.4,21.3,19.2,20.9,20.8,20.6z"/>
			<path class="st0" d="M18.2,22.3L18.2,22.3C18.1,22.3,18.1,22.3,18.2,22.3c0.6,1,1.4,1.7,2.2,2.4c0.1-0.1,0.2-0.3,0.3-0.4
				c-0.2-0.2-0.5-0.4-0.7-0.5c-0.5-0.4-0.9-0.7-0.8-0.7c0,0,0.2,0.1,0.4,0.2c0.3,0.2,0.8,0.5,1.4,0.8c0.1-0.1,0.2-0.2,0.2-0.3
				c-0.6-0.3-1.1-0.5-1.4-0.7c-0.4-0.2-0.4-0.2,1,0.3c0.2,0.1,0.4,0.1,0.6,0.2c0.1-0.1,0.2-0.2,0.2-0.3c-0.2,0-0.4-0.1-0.6-0.1
				c-1.3-0.3-2.6-0.7-1.8-0.5c0.8,0.2,1.7,0.3,2.5,0.4c0.1-0.1,0.2-0.2,0.2-0.3c0,0,0.1-0.1,0.1-0.1c-0.7,0-1.6-0.1-2.8-0.3
				C18.6,22.3,18.3,22.3,18.2,22.3z"/>
			<path class="st0" d="M16.7,19.7l0-0.6l0.4-0.1c0.8-0.3,2.6-1.1,3.4-1.6c0.9-0.5,1.5-1,2.3-1.7c0.1-0.1,0.2-0.2,0.2-0.2
				c-0.1-0.4-0.2-0.8-0.3-1.2c0,0.1-0.1,0.3-0.2,0.5c-0.4,0.9-1.7,1.9-3.7,2.9c-0.5,0.2-1.2,0.6-1.5,0.7c-0.3,0.1-0.6,0.3-0.6,0.3
				c0,0-0.2,1.2-0.3,2.3c-0.2,1.4-0.3,2.1-0.4,2.6c-0.2,0.5-0.6,1.4-1,1.9c-0.2,0.2-0.5,0.5-0.7,0.8c-0.2,0.2-0.5,0.4-0.8,0.6
				c0.3,0,0.5,0,0.8,0c0.4,0,0.8,0,1.2,0c0.4-0.5,0.7-1.1,0.9-1.6c0-0.1,0.1-0.1,0.1-0.2c0.5-1.2,0.6-2.3,0.4-3.9
				C16.7,20.7,16.7,20,16.7,19.7z"/>
		</g>
	</g>
</g>
</svg>
