<?xml version="1.0" encoding="utf-8"?>
<!-- Generator: Adobe Illustrator 22.1.0, SVG Export Plug-In . SVG Version: 6.00 Build 0)  -->
<svg version="1.1" id="Layer_1" xmlns="http://www.w3.org/2000/svg" xmlns:xlink="http://www.w3.org/1999/xlink" x="0px" y="0px"
	 viewBox="0 0 20.8 19.1" style="enable-background:new 0 0 20.8 19.1;" xml:space="preserve">
<style type="text/css">
	.st0{fill:#326CE5;}
</style>
<g>
	<g>
		<g>
			<path class="st0" d="M11.3,14.8c0.4-0.7,0.5-1.2,0.9-2.7c0.4-1.5,0.6-2.2,0.6-2.3c0,0,0,0,0,0.1c0,0.1,0,0.1,0,0.1
				c0.2,0,1-0.4,1.7-0.8c1.5-0.9,2.3-1.5,2.6-2.1c0.1-0.3,0.1-0.3,0.1-0.6c0-0.3,0-0.5-0.3-0.6c-0.2-0.1-0.4-0.2-0.9-0.2
				c-0.5,0-0.9,0.1-1.4,0.3c-1.2,0.5-2.4,1.5-3.3,2.7c-0.3,0.4-0.4,0.6-0.9,1.7c-0.5,1.1-0.6,1.2-1,1.8c-1,1.6-1.9,2.4-3.1,2.8
				c-0.7,0.2-1.2,0.2-1.4-0.2c-0.2-0.4,0.3-1.1,1.2-1.7c0.6-0.4,2-1.2,2-1.1c0,0-0.1,0.3-0.2,0.4c-0.1,0.1-0.4,0.3-0.7,0.4
				c-0.9,0.5-1.4,0.9-1.6,1.3c-0.1,0.2-0.2,0.5,0,0.6c0.2,0.1,0.7,0,1.1-0.2c0.3-0.1,0.8-0.6,1.2-1c0.6-0.6,1.1-1.3,1.7-2.7
				c1-2,1.2-2.4,1.7-3.1c1-1.3,2.6-2.4,4.2-2.7C16,5,16.6,5,16.9,5c0.3,0.1,0.6,0.2,0.9,0.4c0-0.2-0.1-0.3-0.1-0.5
				c-0.1-0.3-0.2-0.5-0.4-0.7c-0.5-0.1-1.2,0-1.7,0.1c-1,0.3-1.9,0.7-2.8,1.3c-0.8,0.6-1.6,1.5-2.1,2.3c-0.4,0.6-0.6,1.1-1.1,2.4
				c-0.3,0.9-0.8,1.9-1.1,2.4c-0.5,0.8-1.7,1.7-2,1.7c-0.1,0,0-0.3,0.2-0.5c0.2-0.2,1-0.7,1.2-0.8c0,0,0,0,0,0.1c0,0.1,0,0.1,0,0
				c0.1-0.1,0.4-0.5,0.6-0.9c0.3-0.6,0.4-0.8,1-2.8c0.5-1.6,0.9-2.3,1.6-3.2c0.9-1.1,2.2-2,3.6-2.5c0.2-0.1,0.9-0.3,1.1-0.3
				c0,0,0.1,0,0.1,0c-0.5-0.2-1-0.5-1.5-0.7C13.4,3,12.6,3.5,11.9,4c-1.1,0.8-1.9,1.8-2.3,2.9C9.3,7.7,9.1,8.5,8.7,10
				c-0.2,1.1-0.4,1.9-0.4,1.6c0-0.2,0-0.2-0.1-0.1C8,11.6,7,12,6.4,12.4c-1.4,0.8-2.2,1.7-2.2,2.3c0,0,0,0,0,0.1
				c0.2,0.2,0.4,0.5,0.6,0.7c0,0,0.1,0,0.1,0c0.3,0.1,1,0,1.4-0.1c1-0.3,2.2-1.1,3-2.1c0.5-0.6,0.8-1.1,1.3-2.1
				c0.7-1.4,0.9-1.7,1.2-2.1c0.2-0.3,0.4-0.6,0.6-0.8c1-1.2,2.5-2.2,3.4-2.1c0.4,0,0.6,0.1,0.6,0.5c0,0.4-0.4,0.9-1.1,1.4
				c-0.8,0.6-2.2,1.4-2.4,1.4c-0.1,0-0.1-0.1,0-0.2c0.1-0.2,0.2-0.3,0.9-0.6C14.6,8.2,15,8,15.3,7.6c0.3-0.3,0.4-0.5,0.4-0.7
				c0-0.2,0-0.2-0.2-0.2c-0.2-0.1-0.6,0-1.1,0.2c-0.6,0.3-1.3,0.9-1.9,1.7c-0.5,0.7-0.7,1-1.7,3.2c-0.2,0.4-0.4,0.9-0.5,1
				c-1.2,1.9-3.3,3.2-5,3.2c0.2,0.2,0.3,0.4,0.5,0.6c0.3,0,0.5-0.1,0.8-0.1c1.5-0.4,3-1.5,3.8-2.7c0.4-0.7,0.8-1.5,1.6-3.3
				c0.6-1.5,1.2-2.4,2.1-3.1C14.5,7.2,15,7,15,7.1c0,0.2-0.9,0.9-1.4,1.2c-0.2,0.1-0.2,0.1-0.1-0.1C13.6,8,13.2,8.5,13,8.8
				c-0.4,0.6-0.5,0.9-1.3,3.2c-0.3,1.1-0.6,1.7-1.1,2.3c-1,1.6-2.7,2.6-4.4,3c0,0,0,0,0,0c0.2,0.3,0.6,0.4,1,0.4c0.3,0,0.5,0,0.8,0
				C9.3,17.2,10.3,16.4,11.3,14.8z"/>
			<path class="st0" d="M14.4,10.6c-0.3,0.1-0.5,0.2-0.6,0.2c-0.3,0.1-0.6,0.2-0.8,0.3l-0.2,0.1l0,0.2c0,0.1,0,0.2,0,0.2
				c0.1,0.1,2.1-0.7,3.4-1.2c1-0.4,1.8-0.9,2.4-1.3c-0.1-0.2-0.1-0.5-0.2-0.7c-0.1,0.1-0.3,0.2-0.4,0.3C17.2,9.3,15.9,10,14.4,10.6z
				"/>
			<path class="st0" d="M7.5,8.4c0,0-0.1-0.4-0.5-1c-1.1-1.8-1.6-2.8-1.8-4c-0.3,0.2-0.6,0.3-1,0.5c0.3,0.6,0.8,1.4,1.3,2
				c0.4,0.5,0.9,1.2,1,1.3c0,0,0.1,0.1,0,0.1c-0.1,0-0.8-0.7-1.5-1.4c-0.5-0.5-1-1.1-1.4-1.6C3.6,4.4,3.5,4.6,3.4,4.8
				c0,0,0,0.1,0,0.1C3.7,5.2,4,5.5,4.2,5.6c0.2,0.1,0.7,0.5,1,0.8c0.4,0.3,0.7,0.5,0.7,0.6c0.1,0.1-1.7-1-2.6-1.6c0,0,0,0-0.1,0
				c0,0.2-0.1,0.3-0.1,0.5C3.5,6,3.9,6.2,4.1,6.3C4.2,6.3,4.6,6.5,5,6.7C5.3,6.8,5.6,7,5.6,7c0,0,0,0,0.1,0c0,0.1-1.3-0.4-2.4-0.8
				c-0.1,0-0.1,0-0.2-0.1C3.1,6.3,3,6.4,3,6.5c0.3,0.1,0.5,0.2,0.8,0.2C5,7.1,6.3,7.4,6.3,7.5c0,0-0.2,0-0.4-0.1
				c-0.5-0.1-0.6-0.1-1-0.2c-0.2,0-0.6-0.1-0.7-0.1c-0.2,0-0.6-0.1-1-0.2c-0.1,0-0.1,0-0.2,0c0,0.2-0.1,0.3-0.1,0.5
				c0.3,0,0.6,0.1,0.9,0.1c1.3,0.1,3,0.4,3,0.4c0,0-0.1,0-0.1,0C6.2,7.7,4.3,7.7,2.8,7.7c0,0.2-0.1,0.4-0.1,0.5c0.2,0,0.4,0,0.5,0
				c0.1,0,0.5,0,1,0c0.5,0,0.9,0,1,0c0.1,0,0.5,0,0.8,0s0.8,0,1,0c0.4,0,0.4,0,0.5,0.1c0.1,0.1,0,0.1-0.4,0.2
				c-0.6,0-2.8,0.2-4.4,0.4c0,0.2-0.1,0.4-0.1,0.6C3.5,9.1,5,8.8,6.5,8.6C7.2,8.5,7.5,8.5,7.5,8.4z"/>
			<path class="st0" d="M8,11.3c0.2-0.1,0.4-0.1,0.4-0.2c0,0,0.1-0.2,0.1-0.4c0.1-0.3,0.1-0.5,0.1-1.9c0.1-2.6,1.1-4.6,3-6
				C12,2.5,12,2.5,12.7,2.2c0.1,0,0.1-0.1,0.2-0.1c-0.5-0.3-1.1-0.5-1.6-0.8C9.7,2.4,8.7,3.8,8.3,5.4C8.1,6.1,8.1,6.3,8.1,7.3
				c0,0.8,0,1.1,0.1,1.6c0.1,1,0.1,1,0,1c-0.2,0-1.9,0.7-2.8,1.1c-0.2,0.1-0.4,0.2-0.4,0.2c0,0-1.4,0.7-1.8,0.9
				c-0.4,0.2-0.6,0.3-0.8,0.5c0.1,0.2,0.3,0.4,0.4,0.5C3,13.1,3,13,3.1,13c1-0.8,2.7-1.7,4.6-2.4c0.3-0.1,0.6-0.2,0.6-0.2
				c0,0,0,0.1,0,0.2l0,0.2l-0.5,0.2c-1.5,0.6-3.1,1.4-4.3,2.3c-0.2,0.1-0.3,0.2-0.4,0.4c0.1,0.1,0.2,0.2,0.3,0.3
				C3.6,14,3.6,14,3.7,14.1c0.1-0.1,0.1-0.2,0.2-0.3c0.3-0.4,0.7-0.7,1.6-1.3C6.2,12.1,7.5,11.4,8,11.3z"/>
			<path class="st0" d="M7.6,9.8c0.3-0.1,0.5-0.1,0.5-0.2c0.1,0,0.1-0.1,0-0.3C8.1,9.1,8,8.5,7.8,8C7.5,6.6,7.4,6.4,7.4,5.4
				c0-0.7,0-0.9,0.1-1.2C7.7,3.4,8,2.6,8.5,1.9C8.3,2,8.1,2.1,8,2.2c-0.5,0.2-1,0.5-1.5,0.7c0,0.3,0,0.5,0,0.9c0,1,0.1,1.6,0.4,2.5
				C7,6.9,7.2,7.6,7.5,8.2c0.1,0.2,0.2,0.4,0.2,0.4S7.5,8.7,7.2,8.8C6.7,8.8,5.7,9,5.4,9.1C5.3,9.1,5,9.2,4.7,9.3
				C4,9.4,3,9.6,2.2,9.8c-0.1,0.3-0.1,0.5-0.2,0.8c1.3-0.5,2.6-0.8,4.8-1.4l1-0.2L8,9.1C8,9.2,8,9.2,8,9.2S7.7,9.3,7.4,9.4
				C7,9.5,6.7,9.6,6.7,9.6c-0.1,0-0.3,0.1-0.5,0.2c-0.5,0.2-1.9,0.6-2.4,0.8c-0.7,0.2-1.4,0.5-1.9,0.8c0,0.1,0,0.2,0,0.4
				C1.9,11.8,2,11.9,2,12c0.6-0.3,1.1-0.6,1.8-0.9C4.9,10.7,6.8,10,7.6,9.8z"/>
			<path class="st0" d="M16.3,12.2c1-0.2,2.1-0.5,2.8-0.7c0-0.1,0-0.1,0-0.2c0-0.1-0.1-0.3-0.1-0.4c0,0,0,0-0.1,0
				c-0.7,0.3-1.8,0.6-4.6,1.4c-0.7,0.2-1.2,0.3-1.3,0.3c0,0-0.1,0-0.1-0.1c-0.1-0.1-0.1-0.1,0-0.2c0,0,0.3-0.1,0.5-0.2
				c2.1-0.5,4.1-1.2,5.3-1.8c0-0.1,0-0.2-0.1-0.3c0-0.1-0.1-0.2-0.1-0.4c-0.1,0.1-0.2,0.1-0.3,0.2c-1.1,0.6-2.9,1.3-4.9,1.9
				c-0.8,0.2-0.8,0.2-0.8,0.3c0,0.1,0.1,0.8,0.3,1.6c0.2,1,0.3,1.2,0.3,1.9c0,0.7-0.1,1.2-0.2,1.7c-0.1,0.2-0.2,0.4-0.2,0.6
				c0.3,0,0.6,0,0.9,0c0.2,0,0.3,0,0.4-0.1c0-0.2,0-0.4,0-0.6c0-0.2,0-0.7,0-1.1c0-0.3-0.1-0.5-0.1-0.8c-0.1-0.5-0.2-0.9-0.4-1.3
				c-0.1-0.2-0.2-0.4-0.2-0.6c0-0.1-0.1-0.1-0.1-0.1c0,0,0,0,0.1,0.1c0,0.1,0.3,0.5,0.5,0.9c0.5,0.9,0.9,2.1,1.1,2.5
				c0,0,0,0.1,0.1,0.2c0.2-0.2,0.4-0.5,0.6-0.7c-0.1-0.2-0.2-0.3-0.2-0.4c-0.2-0.2-0.6-0.8-1-1.3c-0.4-0.5-0.7-0.9-0.7-0.9
				c0,0,0.7,0,1.6,0.1c0.5,0,1.4,0,2.2,0c0.1-0.2,0.3-0.3,0.4-0.5c-0.7,0.1-1.8,0.1-3.4,0.2c-0.8,0-1,0-1.1,0c0,0-0.1-0.1-0.1-0.1
				c0,0,0.3,0,0.6-0.1c1.5-0.1,3.2-0.3,4.3-0.4c0.1-0.2,0.3-0.4,0.4-0.5c0-0.1,0.1-0.1,0.1-0.2c-0.1,0-0.1,0-0.2,0.1
				c-1.1,0.3-2.3,0.5-3.6,0.7c-1.1,0.1-1.8,0.2-1.9,0.3c-0.1,0,0,0.2-0.1-0.1c0,0-0.1-0.2,0-0.1C13.3,12.8,14.9,12.5,16.3,12.2z"/>
			<path class="st0" d="M14,13.7L14,13.7C14,13.7,14,13.7,14,13.7c0.6,0.9,1.3,1.5,1.9,2.2c0.1-0.1,0.2-0.3,0.3-0.4
				c-0.2-0.1-0.4-0.3-0.6-0.5c-0.4-0.3-0.8-0.6-0.7-0.6c0,0,0.1,0.1,0.3,0.2c0.3,0.2,0.7,0.4,1.2,0.7c0.1-0.1,0.1-0.2,0.2-0.3
				c-0.5-0.2-1-0.5-1.3-0.6c-0.3-0.2-0.4-0.2,0.9,0.2c0.2,0.1,0.4,0.1,0.5,0.2c0.1-0.1,0.1-0.2,0.2-0.3c-0.2,0-0.4-0.1-0.5-0.1
				c-1.2-0.3-2.3-0.6-1.6-0.5c0.7,0.2,1.5,0.3,2.2,0.4c0.1-0.1,0.1-0.2,0.2-0.3c0,0,0.1-0.1,0.1-0.1c-0.7,0-1.4-0.1-2.5-0.2
				C14.4,13.7,14.1,13.7,14,13.7z"/>
			<path class="st0" d="M12.7,11.4l0-0.6l0.3-0.1c0.7-0.2,2.3-1,3-1.4c0.8-0.5,1.3-0.9,2-1.5c0.1-0.1,0.1-0.1,0.2-0.2
				c-0.1-0.3-0.2-0.7-0.2-1c0,0.1-0.1,0.3-0.2,0.4c-0.4,0.8-1.5,1.7-3.3,2.6c-0.4,0.2-1,0.5-1.3,0.6c-0.3,0.1-0.5,0.2-0.5,0.2
				c0,0-0.2,1.1-0.3,2c-0.1,1.2-0.2,1.9-0.4,2.3c-0.1,0.5-0.5,1.3-0.9,1.7c-0.2,0.2-0.4,0.5-0.6,0.7c-0.2,0.2-0.4,0.4-0.7,0.5
				c0.2,0,0.4,0,0.7,0c0.4,0,0.7,0,1.1,0c0.3-0.5,0.6-1,0.8-1.5c0-0.1,0.1-0.1,0.1-0.2c0.4-1.1,0.5-2,0.3-3.5
				C12.7,12.3,12.7,11.7,12.7,11.4z"/>
		</g>
	</g>
</g>
</svg>
