<svg xmlns="http://www.w3.org/2000/svg" viewBox="0 0 1279 639" xmlns:v="https://vecta.io/nano"><path d="M230.25 157.89l-115.93 55.84a22.9 22.9 0 0 0-12.41 15.55L73.28 354.74a22.91 22.91 0 0 0 4.42 19.4l80.23 100.6a22.94 22.94 0 0 0 17.93 8.64h128.68a22.92 22.92 0 0 0 17.93-8.64l80.23-100.6a23 23 0 0 0 4.43-19.4L378.5 229.28a22.93 22.93 0 0 0-12.41-15.55l-115.94-55.84a23 23 0 0 0-19.9 0z" fill="#dbe1ee"/><g fill-rule="evenodd"><path d="M154.43 282.42l16.79 110c1.82 12.09 11 22.18 19.11 31.32 13.66 15.54 31.95 26.32 50.75 36.78a5 5 0 0 0 5.57-.06c18.67-10.59 37-21.24 50.69-36.72 8.08-9.14 17.22-19.23 19.1-31.32l16.79-110a413.59 413.59 0 0 0-55.88-8.53 58.72 58.72 0 0 1 7.52 11.47q18.22 1.88 36.27 5.45l-15.28 100.05c-1.44 9.34-10.47 18.92-16.61 25.88-12.28 13.91-29.32 23.93-45.48 33-16.16-9-33.14-19.1-45.42-33-6.08-7-15.1-16.54-16.54-25.88l-15.29-100.05q18-3.57 36.21-5.45a56 56 0 0 1 7.59-11.47 410.62 410.62 0 0 0-55.89 8.53z" fill="#3cad5c"/><path d="M258.18 401.2a56.52 56.52 0 0 1-28.76.06l-4.32 15.48c-12.28-17.17-16-22.75-33.14-35.21 3.44-25.25 3.07-47.18.06-72.3l2.44-.13c5.39-23 15.54-43.91 38.66-48.8a70.58 70.58 0 0 1 3.45 6.77c-18 3.07-29.07 18-34 38.84 10.34.31 20.92-2.88 31.76-5.58-12 8.46-22.61 15-34.33 15.67a274.73 274.73 0 0 1-.38 62.27c9.53 7 14 10.21 22.56 22.12 4.26-15.17 9.58-38 7.83-55.45l-19.23-9 1.25-11.9-4.51-5.2 26.44 11 3.76-1.81-1 2.94A67 67 0 0 1 235 355.9l8.83 8.34 8.77-8.34a72.7 72.7 0 0 1-1.69-24.9l-1.06-2.94 3.76 1.81 26.5-11-4.58 5.2 1.26 11.9-19.24 9c-1.75 17.48 3.64 40.28 7.83 55.45 8.52-11.91 13-15.17 22.62-22.12a271.8 271.8 0 0 1-.44-62.27c-11.71-.63-22.36-7.21-34.33-15.67 10.84 2.7 21.43 5.89 31.76 5.58-4.76-20.36-15.41-35-32.64-38.66 1.07-2.19 2.26-4.38 3.45-6.64 22.2 5.36 32.08 25.91 37.34 48.46l2.5.13c-3.07 25.12-3.38 47 0 72.3-17.16 12.46-20.8 18-33.14 35.21l-4.32-15.54z" fill="#0b1726"/><path d="M243.83 221.33c13.66 7.52 19.55 18 10.53 34 1.94-11.95-2.07-23.22-10.53-34zm0 56.76c-1.94-10.15-6.64-20-14.72-29.63a15.39 15.39 0 0 1 11.47 3.88c-5.27-7.51-13.66-12.09-31.2-8 1.81-3.75 7.51-6.07 14.22-8-8.9-1.63-19.42 2.81-32.64 16.53-19.3 18.42-32.58 12.72-45.68 6.39 13.91.38 21.87-1.69 26.63-5-20.24 5.08-34.77-.62-42.73-18.85 19.24 14.28 37.59 5.45 55.57-13.35 18.24-15.29 35.34-15.47 51.69-3.88-19.73-3.51-30.82.12-36.52 8.27 18.79-7.9 34.2-8.59 42.53 6.2a13.08 13.08 0 0 0-2.56-8 31.22 31.22 0 0 1 3.76 4.26c6.89 9.71 8.58 24.56.18 49.18z" fill="#d84e27"/></g><path d="M611.79 333.5a6.77 6.77 0 0 1 1.93 5.14v61.69a6.82 6.82 0 0 1-2.85 6l-1 .65a5.15 5.15 0 0 0-.86.64 109.32 109.32 0 0 1-30.13 15.57 111.18 111.18 0 0 1-35.27 5.42 107.86 107.86 0 0 1-28.92-3.86 106.27 106.27 0 0 1-26-11 110.65 110.65 0 0 1-39.06-39.15 108.32 108.32 0 0 1-14.85-55.16 107.8 107.8 0 0 1 14.85-54.8 112.18 112.18 0 0 1 17.07-22.08 108.24 108.24 0 0 1 22.06-17.15 109.83 109.83 0 0 1 26.13-11.07A107.24 107.24 0 0 1 544 210.4a104.24 104.24 0 0 1 21 2.08 113.55 113.55 0 0 1 20.07 6.1l8.14 3.74a91 91 0 0 1 9 5 47.66 47.66 0 0 1 7.28 5.59c2 1.92 3 3.73 3 5.45a7.82 7.82 0 0 1-1.29 4.57v-.15l-4.57 7.71a6.3 6.3 0 0 1-5.71 3.29 9.75 9.75 0 0 1-5.57-2 88.63 88.63 0 0 0-23.21-12 80.55 80.55 0 0 0-26.34-4.29 86.46 86.46 0 0 0-44.63 12.21 87.72 87.72 0 0 0-39.2 50.91 76.61 76.61 0 0 0-3 21.28 81.37 81.37 0 0 0 6.71 32.92 86.42 86.42 0 0 0 18.14 26.77 84.77 84.77 0 0 0 26.63 18 80.18 80.18 0 0 0 32.21 6.58 72.2 72.2 0 0 0 23.49-3.93 196.35 196.35 0 0 0 23.34-9.78V356.2H550a6.22 6.22 0 0 1-5.07-2.14 7.58 7.58 0 0 1-1.78-5v-10.28c0-2.48.66-4.28 2-5.43a7.2 7.2 0 0 1 4.85-1.71h56.55a7.18 7.18 0 0 1 5.24 1.86zM708 428.6a59.66 59.66 0 0 1-23.38-4.6 63.09 63.09 0 0 1-19.49-12.71 60.56 60.56 0 0 1-13.35-18.92 55.2 55.2 0 0 1-4.93-23.14v-77a6.4 6.4 0 0 1 1.57-4.72 6 6 0 0 1 4.43-1.57h14.42q3.29 0 4.71 1.36c.95.9 1.44 2.45 1.44 4.64v77.83a30.47 30.47 0 0 0 2.85 13 35.87 35.87 0 0 0 7.64 10.78 36.74 36.74 0 0 0 11 7.36 32.68 32.68 0 0 0 26.06 0 36.49 36.49 0 0 0 11.03-7.37 36.07 36.07 0 0 0 7.65-10.78 30.47 30.47 0 0 0 2.85-13v-77.82c0-2.19.47-3.74 1.43-4.64s2.52-1.36 4.71-1.36h14.42a6.07 6.07 0 0 1 4.36 1.57 6.22 6.22 0 0 1 1.64 4.72v77a54.49 54.49 0 0 1-5 23.14A61.7 61.7 0 0 1 731.25 424a59.86 59.86 0 0 1-23.25 4.6z" fill="#0b1726"/><path d="M858.06 330.64l-30.56 72.83h62.26l-31.7-72.83z" fill="#d84e27"/><path d="M797.94 428.6c-3.52 0-5.29-1.19-5.29-3.56a13.12 13.12 0 0 1 .15-2.57 3.67 3.67 0 0 1 .29-.86l58.55-133.1a16.08 16.08 0 0 1 1.57-2.49c.66-.91 2.19-1.36 4.57-1.36h1a8.07 8.07 0 0 1 3.14.5 4.42 4.42 0 0 1 1.71 1.21 4 4 0 0 1 .78 1.5 5 5 0 0 0 .5 1.22q7.14 16.56 12.36 28.27 5.22 11.71 9.5 20.85 4.28 9.14 8.06 17.06 3.78 7.92 8 17.07 4.21 9.14 9.28 20.85 5.07 11.71 11.89 28.42l-.14-.14.28 1.42.28 1.29a3.67 3.67 0 0 1 .15.86c0 2.37-1.72 3.56-5.14 3.56zm29.56-25.13h62.26l-31.7-72.83zM1045.85 422a5.39 5.39 0 0 1 .57 2.43 3.25 3.25 0 0 1-1.14 2.57 4 4 0 0 1-2.71 1l-14.43.57A8.17 8.17 0 0 1 1023 427a13.89 13.89 0 0 1-3.57-4.07l-23-41.41h-22.55v42.08a5.41 5.41 0 0 1-1.22 3.51 4.57 4.57 0 0 1-3.78 1.49h-14.43q-5.28 0-5.28-5.56v-64.7h34.56l-36.56-66.11a5.39 5.39 0 0 1-.71-2.15c0-.47.31-.86.93-1.14a4.59 4.59 0 0 1 1.92-.43h56.13a43.4 43.4 0 0 1 18 3.72 45.38 45.38 0 0 1 14.42 10.13 46.57 46.57 0 0 1 9.57 14.93 47.31 47.31 0 0 1 3.43 17.92A44.3 44.3 0 0 1 1049 348a50 50 0 0 1-5.21 11.71 47.69 47.69 0 0 1-8.14 10 45.69 45.69 0 0 1-10.64 7.5l-3.29.72zm-56.12-110.92H986l25 46.69a20.56 20.56 0 0 0 7.13-3.07 25.87 25.87 0 0 0 5.72-5.21 25.11 25.11 0 0 0 3.85-6.64 20.81 20.81 0 0 0 1.43-7.64 23.91 23.91 0 0 0-1.78-9.07 25.27 25.27 0 0 0-4.93-7.71 23.29 23.29 0 0 0-7.36-5.28 21.11 21.11 0 0 0-8.92-1.93h-16.41zm147.93-22.85a68.72 68.72 0 0 1 63 42.84 70 70 0 0 1 5.29 27.13 72 72 0 0 1-5.14 27.06 71.06 71.06 0 0 1-14.21 22.42 67.92 67.92 0 0 1-21.44 15.32 63.4 63.4 0 0 1-26.64 5.63h-48.12c-2.67-.19-4-1.85-4-5v-130.4c0-3.34 1.66-5 5-5zm-25.84 115h26.7a44.28 44.28 0 0 0 17.57-3.36 39.12 39.12 0 0 0 13.42-9.35 41.57 41.57 0 0 0 8.57-14.29 52.37 52.37 0 0 0 3-18 49.09 49.09 0 0 0-3.14-17.64 42.93 42.93 0 0 0-8.79-14.21 40.36 40.36 0 0 0-13.63-9.42 45 45 0 0 0-17.86-3.43h-25.84z" fill="#0b1726"/></svg>