<svg xmlns="http://www.w3.org/2000/svg" viewBox="0 0 511 511" xmlns:v="https://vecta.io/nano"><path d="M240.3 9.25L63.89 94.2A34.89 34.89 0 0 0 45 117.88L1.45 308.76a34.9 34.9 0 0 0 6.74 29.52l122.07 153.08a34.9 34.9 0 0 0 27.28 13.14h195.8a34.9 34.9 0 0 0 27.28-13.14L502.7 338.28a34.86 34.86 0 0 0 6.73-29.52l-43.57-190.88A34.89 34.89 0 0 0 447 94.2L270.58 9.25a34.88 34.88 0 0 0-30.28 0z" fill="#dbe1ee"/><g fill-rule="evenodd"><path d="M124.93 198.72l25.55 167.39c2.76 18.4 16.78 33.75 29.08 47.67 20.78 23.64 48.61 40 77.21 56 3.24 1.81 5.53 1.52 8.48-.1 28.41-16.11 56.34-32.32 77.12-55.86 12.3-13.92 26.22-29.27 29.08-47.67L397 198.72a629.54 629.54 0 0 0-85-13 88.32 88.32 0 0 1 11.4 17.48q27.75 2.87 55.2 8.29l-23.26 152.24c-2.19 14.21-15.92 28.79-25.26 39.37-18.69 21.16-44.62 36.42-69.21 50.24-24.6-13.73-50.43-29.08-69.11-50.24-9.25-10.58-23-25.16-25.17-39.37l-23.26-152.24q27.31-5.43 55.1-8.29A84.83 84.83 0 0 1 210 185.76a625.09 625.09 0 0 0-85.07 12.96z" fill="#3cad5c"/><path d="M282.79 379.46a86.25 86.25 0 0 1-43.75.1l-6.58 23.54c-18.68-26.1-24.31-34.6-50.46-53.57 5.25-38.42 4.67-71.78.1-110l3.72-.19c8.19-35 23.64-66.82 58.81-74.26a104.94 104.94 0 0 1 5.25 10.3c-27.36 4.67-44.24 27.35-51.67 59.1 15.73.47 31.84-4.39 48.33-8.49-18.21 12.87-34.41 22.88-52.24 23.84 3.53 29.55 3 67.39-.57 94.75 14.49 10.58 21.35 15.54 34.32 33.65 6.48-23.07 14.58-57.77 11.91-84.36l-29.26-13.63 1.9-18.12-6.86-7.91L246 271l5.72-2.77-1.53 4.48a101.88 101.88 0 0 1-2.67 37.85L261 323.22l13.35-12.68a110.5 110.5 0 0 1-2.57-37.85l-1.62-4.48 5.72 2.77 40.32-16.78-7 7.91 1.91 18.12-29.27 13.63c-2.67 26.59 5.53 61.29 11.92 84.36 13-18.11 19.82-23.07 34.41-33.65-3.72-27.36-4.19-65.2-.67-94.75-17.82-1-34-11-52.24-23.84 16.49 4.1 32.61 9 48.33 8.49-7.24-31-23.45-53.29-49.66-58.82 1.62-3.33 3.43-6.67 5.24-10.1C312.92 173.74 328 205 336 239.33l3.81.19c-4.67 38.23-5.15 71.59 0 110-26.12 19-31.65 27.45-50.43 53.57l-6.59-23.63z" fill="#0b1726"/><path d="M261 105.78c20.79 11.44 29.75 27.36 16 51.76 2.93-18.21-3.17-35.37-16-51.76zm0 86.36c-2.95-15.44-10.1-30.5-22.4-45.09 6.87-.57 12.49 1.81 17.45 5.91-8-11.44-20.78-18.39-47.48-12.2 2.77-5.72 11.44-9.24 21.64-12.2-13.53-2.48-29.55 4.29-49.66 25.17-29.36 28-49.57 19.35-69.49 9.72 21.16.57 33.26-2.57 40.51-7.63-30.79 7.72-52.91-.95-65-28.69 29.26 21.73 57.19 8.29 84.55-20.3 27.74-23.26 53.77-23.55 78.65-5.91-30-5.34-46.91.19-55.58 12.58 28.6-12 52.05-13.06 64.73 9.44.19-4.1-1.15-8.11-3.91-12.21a46.61 46.61 0 0 1 5.72 6.49c10.43 14.87 13.01 37.46.27 74.92z" fill="#d84e27"/></g></svg>