<svg xmlns="http://www.w3.org/2000/svg" width="64" height="64" fill="none" xmlns:v="https://vecta.io/nano"><path d="M6.662 58.808c-.084.885-.415 1.577-.99 2.075s-1.342.741-2.297.741c-.668 0-1.257-.156-1.768-.467s-.898-.762-1.175-1.339S.012 58.57 0 57.806v-.775c0-.783.14-1.472.42-2.069s.681-1.056 1.203-1.379 1.132-.484 1.82-.484c.925 0 1.67.249 2.234.747s.893 1.201.985 2.109H5.211c-.069-.596-.246-1.026-.53-1.288s-.693-.399-1.238-.399c-.633 0-1.121.23-1.463.69s-.511 1.127-.518 2.012v.735c0 .897.161 1.581.484 2.052s.802.707 1.428.707c.572 0 1.002-.127 1.29-.382s.47-.678.547-1.271h1.451zm1.401-.439c0-.604.121-1.147.363-1.63a2.61 2.61 0 0 1 1.019-1.117c.438-.262.941-.393 1.509-.393.841 0 1.522.268 2.044.804s.81 1.246.852 2.132l.006.325c0 .608-.119 1.151-.357 1.63s-.572.849-1.013 1.111-.944.393-1.52.393c-.879 0-1.584-.289-2.113-.866s-.789-1.355-.789-2.32v-.068zm1.399.12c0 .635.132 1.132.397 1.493s.633.536 1.106.536.839-.182 1.1-.547.397-.899.397-1.602c0-.623-.136-1.117-.409-1.482a1.29 1.29 0 0 0-1.1-.547c-.457 0-.82.181-1.088.541s-.403.893-.403 1.607zm7.384-3.146l.04.644c.438-.505 1.036-.758 1.796-.758.833 0 1.403.315 1.71.946.453-.631 1.09-.946 1.912-.946.687 0 1.198.188 1.532.564s.511.931.518 1.664v4.052h-1.399v-4.012c0-.391-.086-.678-.259-.861s-.459-.274-.858-.274c-.319 0-.58.086-.783.257a1.32 1.32 0 0 0-.42.661l.006 4.229h-1.399v-4.058c-.019-.726-.393-1.089-1.123-1.089-.561 0-.958.226-1.192.678v4.468h-1.399v-6.167h1.319zm10.753 0l.04.644c.438-.505 1.036-.758 1.797-.758.833 0 1.403.315 1.71.946.453-.631 1.09-.946 1.912-.946.687 0 1.198.188 1.532.564s.511.931.518 1.664v4.052h-1.399v-4.012c0-.391-.086-.678-.259-.861s-.459-.274-.858-.274c-.319 0-.58.086-.783.257a1.32 1.32 0 0 0-.42.661l.006 4.229h-1.399v-4.058c-.019-.726-.393-1.089-1.123-1.089-.561 0-.958.226-1.192.678v4.468H26.28v-6.167h1.319zm13.211 5.562c-.411.479-.994.718-1.751.718-.676 0-1.188-.196-1.537-.587s-.518-.957-.518-1.698v-3.995h1.399v3.978c0 .783.328 1.174.985 1.174.679 0 1.138-.241 1.376-.724v-4.428h1.399v6.167h-1.319l-.034-.604zm4.568-5.562l.04.712c.461-.551 1.065-.826 1.814-.826 1.297 0 1.958.735 1.981 2.206v4.075h-1.399v-3.995c0-.391-.086-.68-.259-.866s-.447-.285-.835-.285c-.564 0-.985.253-1.261.758v4.389H44.06v-6.167h1.319zm7.246 6.166h-1.399v-6.167h1.399v6.167zm-1.486-7.768c0-.213.067-.389.202-.53s.334-.211.587-.211.449.07.587.211.207.317.207.53a.71.71 0 0 1-.207.524c-.138.14-.334.205-.587.205s-.449-.068-.587-.205a.73.73 0 0 1-.202-.524zm5.259.103v1.499h1.1v1.026h-1.1v3.442c0 .236.046.407.138.513s.265.154.507.154c.161 0 .324-.019.489-.057v1.072a3.48 3.48 0 0 1-.921.131c-1.075 0-1.612-.587-1.612-1.761v-3.494h-1.025v-1.026h1.025v-1.499h1.399zm4.845 5.682l1.267-4.183H64l-2.476 7.102C61.144 63.481 60.499 64 59.589 64a2.53 2.53 0 0 1-.674-.103v-1.072l.265.017c.353 0 .618-.065.795-.194s.322-.338.426-.638l.202-.53-2.188-6.138h1.509l1.319 4.183z" fill="#00a651"/><path d="M30.112.318L13.841 8.155c-.436.209-.819.514-1.12.892s-.514.819-.622 1.29L8.081 27.946c-.108.471-.108.961-.001 1.432s.32.912.621 1.29l11.26 14.119A3.22 3.22 0 0 0 22.478 46h18.06a3.22 3.22 0 0 0 1.397-.319c.436-.21.818-.515 1.12-.894l11.26-14.119a3.23 3.23 0 0 0 .622-2.723l-4.018-17.608a3.22 3.22 0 0 0-1.742-2.182L32.905.318A3.23 3.23 0 0 0 31.508 0a3.23 3.23 0 0 0-1.396.318h0z" fill="#dbe1ee"/><g fill-rule="evenodd"><path d="M19.471 17.795l2.357 15.439c.255 1.697 1.544 3.113 2.682 4.396 1.917 2.181 4.484 3.694 7.123 5.162a.7.7 0 0 0 .782-.008c2.62-1.486 5.193-2.981 7.114-5.154 1.134-1.283 2.417-2.699 2.681-4.396l2.356-15.439c-2.584-.577-5.204-.977-7.843-1.197.413.494.768 1.034 1.056 1.61l5.09.765-2.145 14.042c-.202 1.311-1.469 2.655-2.331 3.632-1.724 1.952-4.115 3.359-6.383 4.632-2.268-1.263-4.651-2.681-6.375-4.632-.853-.982-2.119-2.321-2.321-3.632l-2.146-14.042 5.082-.765a7.86 7.86 0 0 1 1.065-1.61c-2.639.218-5.26.618-7.844 1.197h0z" fill="#3cad5c"/><path d="M34.032 34.466a7.93 7.93 0 0 1-4.036.009l-.606 2.173c-1.723-2.41-2.246-3.193-4.651-4.942.483-3.544.431-6.622.008-10.147l.342-.018c.756-3.228 2.181-6.163 5.426-6.849a9.91 9.91 0 0 1 .484.95c-2.526.431-4.08 2.526-4.772 5.451 1.451.043 2.936-.404 4.458-.783-1.684 1.187-3.173 2.105-4.818 2.199a38.56 38.56 0 0 1-.053 8.74c1.338.983 1.965 1.433 3.166 3.105.598-2.129 1.345-5.333 1.099-7.782l-2.699-1.263.175-1.67-.633-.73 3.711 1.544.528-.254-.14.413a9.4 9.4 0 0 1-.241 3.499l1.239 1.171 1.231-1.171c-.28-1.142-.36-2.325-.237-3.495l-.149-.413.528.254 3.719-1.544-.643.73.177 1.67-2.7 1.263c-.246 2.453.511 5.653 1.099 7.782 1.196-1.672 1.825-2.129 3.175-3.105a38.15 38.15 0 0 1-.062-8.739c-1.644-.088-3.138-1.012-4.818-2.199 1.521.379 3.008.827 4.457.783-.668-2.857-2.163-4.912-4.581-5.426.15-.307.317-.615.484-.932 3.116.752 4.502 3.637 5.241 6.801l.351.018c-.431 3.526-.474 6.596 0 10.147-2.408 1.749-2.919 2.526-4.651 4.942l-.606-2.181z" fill="#0b1726"/><path d="M32.018 9.222c1.917 1.055 2.744 2.526 1.478 4.772.272-1.677-.291-3.259-1.478-4.772zm0 7.966c-.272-1.425-.932-2.807-2.066-4.159a2.16 2.16 0 0 1 1.61.545c-.74-1.054-1.917-1.697-4.379-1.123.254-.526 1.054-.852 1.996-1.123-1.249-.229-2.726.394-4.581 2.32-2.709 2.585-4.573 1.785-6.411.897 1.952.053 3.069-.237 3.738-.702-2.841.713-4.88-.087-5.997-2.645 2.7 2.004 5.276.765 7.799-1.874 2.56-2.146 4.96-2.171 7.255-.545-2.769-.493-4.325.017-5.125 1.161 2.637-1.109 4.8-1.206 5.969.87.007-.404-.119-.798-.359-1.123a4.38 4.38 0 0 1 .528.598c.967 1.363 1.204 3.447.025 6.902h0z" fill="#d84e27"/></g></svg>