<svg xmlns="http://www.w3.org/2000/svg" width="104" height="46" fill="none" xmlns:v="https://vecta.io/nano"><path d="M14.421.207L3.809 5.318c-.284.137-.534.335-.731.582s-.335.534-.405.841L.053 18.225c-.07.307-.071.627-.001.934s.209.595.405.842l7.344 9.208A2.1 2.1 0 0 0 9.442 30h11.778a2.1 2.1 0 0 0 1.641-.791l7.344-9.208c.196-.247.334-.534.405-.842s.07-.626.001-.934L27.99 6.742a2.1 2.1 0 0 0-1.136-1.423L16.242.207C15.958.071 15.647 0 15.332 0s-.626.071-.911.207z" fill="#dbe1ee"/><g fill-rule="evenodd"><path d="M7.481 11.606l1.537 10.069c.167 1.107 1.007 2.03 1.749 2.867 1.25 1.422 2.925 2.409 4.645 3.367.076.05.165.076.256.075s.179-.029.254-.08c1.709-.969 3.387-1.944 4.64-3.361.74-.837 1.576-1.76 1.748-2.867l1.537-10.069c-1.685-.377-3.394-.637-5.115-.781.27.322.501.674.688 1.05l3.32.499-1.399 9.158c-.132.855-.958 1.732-1.52 2.369-1.124 1.273-2.684 2.19-4.163 3.021-1.479-.824-3.033-1.748-4.157-3.021-.556-.641-1.382-1.514-1.514-2.369l-1.4-9.158 3.314-.499c.188-.377.421-.73.695-1.05a37.58 37.58 0 0 0-5.116.781z" fill="#3cad5c"/><path d="M16.977 22.478c-.862.229-1.769.231-2.633.005l-.395 1.417c-1.124-1.572-1.465-2.082-3.033-3.223.315-2.311.281-4.318.005-6.618l.223-.012c.493-2.105 1.422-4.019 3.539-4.467.116.201.222.408.316.62-1.648.281-2.661 1.648-3.112 3.555.946.028 1.915-.264 2.907-.511-1.098.774-2.069 1.373-3.142 1.434a25.15 25.15 0 0 1-.035 5.7c.872.641 1.281.935 2.065 2.025.39-1.389.877-3.478.717-5.076l-1.76-.824.114-1.089-.413-.476 2.42 1.007.344-.166-.091.269c.091.764.038 1.538-.157 2.282l.808.763.803-.763c-.183-.745-.235-1.516-.155-2.279l-.097-.269.344.166 2.426-1.007-.419.476.115 1.089-1.761.824c-.16 1.6.333 3.687.717 5.075.78-1.09 1.19-1.389 2.071-2.025-.232-1.892-.245-3.805-.04-5.7-1.072-.058-2.047-.66-3.142-1.434.992.247 1.962.539 2.907.511-.436-1.864-1.411-3.204-2.988-3.539l.316-.608c2.032.491 2.936 2.372 3.418 4.436l.229.012c-.281 2.299-.309 4.302 0 6.618-1.571 1.141-1.904 1.648-3.033 3.223l-.395-1.422z" fill="#0b1726"/><path d="M15.664 6.014c1.25.688 1.789 1.648.964 3.112.177-1.094-.19-2.125-.964-3.112zm0 5.195c-.178-.929-.608-1.831-1.347-2.712a1.41 1.41 0 0 1 1.05.355c-.482-.687-1.25-1.107-2.856-.732.166-.343.687-.556 1.301-.732-.815-.149-1.777.257-2.988 1.513-1.767 1.686-2.982 1.164-4.181.585 1.273.035 2.002-.155 2.438-.458-1.853.465-3.183-.057-3.911-1.725 1.761 1.307 3.441.499 5.086-1.222 1.67-1.4 3.235-1.416 4.731-.355-1.806-.321-2.821.011-3.343.757 1.72-.723 3.13-.786 3.893.567.005-.263-.078-.521-.234-.732.126.119.242.25.344.39.631.889.785 2.248.016 4.502z" fill="#d84e27"/></g><path d="M49.344 16.281a.62.62 0 0 1 .177.471v5.647c.007.106-.013.212-.059.309a.62.62 0 0 1-.202.241l-.091.06a.47.47 0 0 0-.079.058 10.01 10.01 0 0 1-2.758 1.425c-1.042.338-2.133.506-3.228.496a9.87 9.87 0 0 1-2.647-.353 9.71 9.71 0 0 1-2.38-1.007 10.13 10.13 0 0 1-3.575-3.583 9.91 9.91 0 0 1-1.359-5.049c-.003-1.763.466-3.495 1.359-5.016.435-.736.96-1.415 1.562-2.021a9.91 9.91 0 0 1 2.019-1.57 10.04 10.04 0 0 1 2.392-1.013 9.83 9.83 0 0 1 2.664-.361 9.54 9.54 0 0 1 1.922.19 10.39 10.39 0 0 1 1.837.558l.745.342a8.34 8.34 0 0 1 .824.458 4.35 4.35 0 0 1 .666.512c.183.176.275.341.275.499.005.148-.036.294-.118.418v-.014l-.418.706c-.051.094-.127.171-.219.224s-.197.08-.304.077c-.185-.007-.363-.071-.51-.183a8.11 8.11 0 0 0-2.124-1.098c-.776-.264-1.591-.397-2.411-.393-1.438-.006-2.85.381-4.085 1.118a8.03 8.03 0 0 0-3.588 4.66 7.01 7.01 0 0 0-.275 1.948 7.45 7.45 0 0 0 .614 3.013 7.91 7.91 0 0 0 1.66 2.45 7.76 7.76 0 0 0 2.438 1.648 7.34 7.34 0 0 0 2.948.602 6.61 6.61 0 0 0 2.15-.36 17.96 17.96 0 0 0 2.136-.895V18.36h-3.615a.57.57 0 0 1-.464-.196.69.69 0 0 1-.163-.458v-.941c0-.227.06-.392.183-.497a.66.66 0 0 1 .444-.157h5.176a.66.66 0 0 1 .48.17zm8.806 8.705a5.46 5.46 0 0 1-2.14-.421 5.77 5.77 0 0 1-1.784-1.163 5.54 5.54 0 0 1-1.222-1.732 5.05 5.05 0 0 1-.451-2.118v-7.048c-.006-.078.003-.156.028-.231a.57.57 0 0 1 .116-.201.55.55 0 0 1 .405-.144h1.32c.201 0 .344.042.431.125s.132.224.132.425v7.124a2.79 2.79 0 0 0 .261 1.19c.17.369.407.704.699.987s.633.512 1.007.674a2.99 2.99 0 0 0 2.385 0 3.34 3.34 0 0 0 1.01-.675 3.3 3.3 0 0 0 .7-.987 2.79 2.79 0 0 0 .261-1.19v-7.123c0-.2.043-.342.131-.425s.231-.125.431-.125h1.32c.147-.007.29.045.399.144a.57.57 0 0 1 .15.432v7.048a4.98 4.98 0 0 1-.458 2.118c-.595 1.313-1.669 2.349-3.003 2.895a5.48 5.48 0 0 1-2.128.421z" fill="#0b1726"/><path d="M71.886 16.019l-2.797 6.666h5.699l-2.902-6.666z" fill="#d84e27"/><path d="M66.383 24.986c-.322 0-.484-.109-.484-.326a1.21 1.21 0 0 1 .014-.235.32.32 0 0 1 .027-.079l5.359-12.183a1.47 1.47 0 0 1 .144-.228c.06-.083.201-.124.418-.124h.092a.74.74 0 0 1 .287.046c.06.024.114.062.157.111a.36.36 0 0 1 .071.137c.01.039.026.077.046.112l1.131 2.588.87 1.908.738 1.562.732 1.563.849 1.908 1.088 2.601-.013-.013.026.13.026.118c.008.026.012.052.014.079 0 .217-.157.326-.47.326h-11.12zm2.706-2.3h5.699l-2.902-6.666-2.797 6.666zm19.985 1.696a.49.49 0 0 1 .052.222.3.3 0 0 1-.025.13c-.018.041-.045.077-.079.106-.068.06-.157.093-.248.091l-1.321.052a.75.75 0 0 1-.471-.144 1.27 1.27 0 0 1-.327-.373l-2.105-3.79h-2.064v3.852c.002.117-.038.231-.112.321a.42.42 0 0 1-.346.137h-1.321c-.322 0-.483-.17-.483-.509v-5.922h3.163l-3.346-6.051a.49.49 0 0 1-.065-.197c0-.043.028-.079.085-.104a.42.42 0 0 1 .176-.039h5.138a3.98 3.98 0 0 1 1.648.341c.496.22.945.535 1.32.927a4.26 4.26 0 0 1 .876 1.367 4.33 4.33 0 0 1 .314 1.64c.001.396-.057.791-.17 1.171a4.58 4.58 0 0 1-.477 1.072 4.37 4.37 0 0 1-.745.915 4.18 4.18 0 0 1-.974.686l-.301.066 2.209 4.034zm-5.137-10.153h-.341l2.288 4.274a1.88 1.88 0 0 0 .653-.281c.197-.132.374-.293.523-.477a2.3 2.3 0 0 0 .352-.608 1.9 1.9 0 0 0 .131-.699 2.19 2.19 0 0 0-.163-.83 2.31 2.31 0 0 0-.451-.706 2.13 2.13 0 0 0-.674-.483c-.256-.118-.535-.178-.817-.177h-1.502v-.013zm13.541-2.091c1.241.012 2.45.391 3.476 1.088a6.29 6.29 0 0 1 2.291 2.833c.324.787.489 1.631.484 2.483a6.59 6.59 0 0 1-.471 2.477 6.5 6.5 0 0 1-1.3 2.052 6.22 6.22 0 0 1-1.963 1.402c-.766.346-1.598.522-2.438.515h-4.404c-.244-.017-.366-.169-.366-.458V12.595a.4.4 0 0 1 .458-.458h4.234zm-2.365 10.526h2.444a4.05 4.05 0 0 0 1.608-.308c.465-.196.884-.487 1.228-.856.347-.379.614-.823.785-1.308a4.79 4.79 0 0 0 .274-1.648 4.5 4.5 0 0 0-.287-1.615 3.92 3.92 0 0 0-.805-1.301 3.68 3.68 0 0 0-1.247-.862 4.11 4.11 0 0 0-1.635-.314h-2.365v8.21z" fill="#0b1726"/><path d="M6.758 40.336c-.086.966-.421 1.72-1.005 2.263s-1.361.808-2.331.808c-.678 0-1.275-.17-1.793-.51s-.911-.831-1.192-1.461S.012 40.075 0 39.242v-.846c0-.854.142-1.606.426-2.257s.691-1.152 1.221-1.505 1.149-.529 1.846-.529c.938 0 1.694.272 2.266.815s.905 1.31.999 2.3H5.286c-.07-.651-.249-1.119-.537-1.405s-.703-.435-1.256-.435c-.643 0-1.137.251-1.484.752s-.518 1.229-.526 2.195v.802c0 .978.164 1.724.491 2.238s.814.771 1.449.771c.58 0 1.016-.139 1.308-.417s.477-.74.555-1.386h1.472zm6.306-.479c0-.659.123-1.252.368-1.778s.59-.937 1.034-1.219.954-.429 1.53-.429c.853 0 1.544.292 2.074.877s.822 1.36.864 2.325l.006.354c0 .663-.121 1.256-.362 1.778s-.58.926-1.028 1.212-.958.429-1.542.429c-.892 0-1.606-.315-2.144-.945s-.8-1.478-.8-2.531v-.075zm1.419.131c0 .692.134 1.235.403 1.629s.643.584 1.121.584.851-.199 1.116-.597.403-.98.403-1.747c0-.68-.138-1.219-.415-1.617a1.28 1.28 0 0 0-1.116-.597c-.463 0-.831.197-1.104.591s-.409.974-.409 1.753zm12.376-3.433l.041.703c.444-.551 1.051-.827 1.823-.827.845 0 1.423.344 1.735 1.032.459-.688 1.106-1.032 1.939-1.032.697 0 1.215.205 1.554.615s.518 1.016.526 1.816v4.421h-1.419v-4.377c0-.427-.088-.74-.263-.939s-.465-.298-.87-.298c-.323 0-.588.093-.794.28s-.345.423-.426.721l.006 4.613h-1.419v-4.427c-.019-.792-.399-1.188-1.139-1.188-.569 0-.971.247-1.209.74v4.875h-1.419v-6.727h1.338zm15.792 0l.041.703c.444-.551 1.051-.827 1.822-.827.845 0 1.423.344 1.735 1.032.459-.688 1.106-1.032 1.939-1.032.697 0 1.215.205 1.554.615s.518 1.016.526 1.816v4.421h-1.419v-4.377c0-.427-.088-.74-.263-.939s-.465-.298-.87-.298c-.323 0-.588.093-.794.28s-.345.423-.426.721l.006 4.613h-1.419v-4.427c-.019-.792-.399-1.188-1.139-1.188-.569 0-.972.247-1.209.74v4.875h-1.419v-6.727h1.338zm18.286 6.069c-.417.522-1.009.783-1.776.783-.685 0-1.205-.213-1.56-.64s-.526-1.045-.526-1.853v-4.359h1.419v4.34c0 .854.333 1.281.999 1.281.689 0 1.155-.263 1.396-.79v-4.831h1.419v6.727H60.97l-.035-.659zm9.519-6.069l.041.777c.467-.601 1.081-.901 1.84-.901 1.316 0 1.986.802 2.009 2.406v4.446h-1.419v-4.358c0-.427-.088-.742-.263-.945s-.454-.311-.847-.311c-.572 0-.999.276-1.279.827v4.788h-1.419v-6.727h1.338zm12.234 6.728h-1.419v-6.727h1.419v6.727zm-1.507-8.475c0-.232.068-.425.204-.578s.339-.23.596-.23.456.077.596.23.21.346.21.578-.07.419-.21.572-.339.224-.596.224-.456-.075-.596-.224a.83.83 0 0 1-.204-.572zm10.22.112v1.635h1.116v1.119h-1.116v3.756c0 .257.047.444.14.559s.269.168.514.168a2.09 2.09 0 0 0 .497-.062v1.169a3.31 3.31 0 0 1-.934.143c-1.09 0-1.636-.64-1.636-1.921v-3.811h-1.04v-1.119h1.04V34.92h1.419zm9.799 6.199l1.285-4.564H104l-2.512 7.747c-.385 1.132-1.039 1.697-1.962 1.697a2.4 2.4 0 0 1-.683-.112v-1.169l.269.019c.358 0 .627-.07.806-.211s.327-.369.432-.696l.205-.578-2.22-6.696h1.53l1.337 4.564z" fill="#00a651"/></svg>