<svg width="104" height="46" viewBox="0 0 104 46" fill="none" xmlns="http://www.w3.org/2000/svg">
<g clip-path="url(#clip0)">
<path d="M14.4207 0.207193L3.80943 5.31835C3.52523 5.45489 3.2755 5.65378 3.07883 5.90021C2.88215 6.14665 2.74361 6.43427 2.67351 6.74167L0.0529455 18.2253C-0.0174623 18.5327 -0.0176503 18.8519 0.0523953 19.1594C0.122441 19.4668 0.260916 19.7545 0.457518 20.001L7.80114 29.2092C7.99774 29.4558 8.24737 29.6549 8.5315 29.7918C8.81562 29.9287 9.12693 29.9999 9.44232 30H21.2207C21.5361 30 21.8474 29.9289 22.1316 29.792C22.4157 29.6551 22.6653 29.4559 22.8618 29.2092L30.2055 20.001C30.4017 19.7543 30.54 19.4666 30.6102 19.1593C30.6804 18.8519 30.6806 18.5328 30.611 18.2253L27.9904 6.74167C27.9201 6.43435 27.7815 6.14681 27.5848 5.9004C27.3882 5.65399 27.1386 5.45505 26.8545 5.31835L16.2422 0.207193C15.958 0.0708064 15.6468 0 15.3315 0C15.0162 0 14.705 0.0708064 14.4207 0.207193Z" fill="#DBE1EE"/>
<path fill-rule="evenodd" clip-rule="evenodd" d="M7.48071 11.6057L9.01754 21.6743C9.18413 22.7809 10.0244 23.7044 10.7667 24.541C12.017 25.9635 13.6912 26.9502 15.412 27.9076C15.4879 27.9574 15.5769 27.9834 15.6677 27.9824C15.7585 27.9814 15.847 27.9535 15.9218 27.9021C17.6307 26.9328 19.3085 25.958 20.5616 24.541C21.3012 23.7044 22.1378 22.7809 22.3098 21.6743L23.8467 11.6057C22.1615 11.2291 20.4526 10.9683 18.7318 10.825C19.0015 11.1468 19.2325 11.4992 19.4202 11.8748C20.532 11.9895 21.6386 12.1558 22.74 12.3737L21.3414 21.5315C21.2096 22.3864 20.3831 23.2633 19.8211 23.9003C18.6971 25.1735 17.1374 26.0907 15.6582 26.9209C14.179 26.0971 12.6248 25.1726 11.5008 23.9003C10.9443 23.2596 10.1187 22.3864 9.98686 21.5315L8.58734 12.3737C9.68572 12.1558 10.7905 11.9895 11.9017 11.8748C12.0893 11.4976 12.3226 11.145 12.5964 10.825C10.8753 10.9674 9.16599 11.2282 7.48071 11.6057Z" fill="#3CAD5C"/>
<path fill-rule="evenodd" clip-rule="evenodd" d="M16.9773 22.4779C16.1149 22.7067 15.2081 22.7086 14.3448 22.4834C14.213 22.9539 14.0812 23.4299 13.9494 23.9003C12.8254 22.3287 12.4849 21.818 10.916 20.6775C11.2309 18.3663 11.197 16.359 10.9215 14.0597L11.1448 14.0478C11.6382 11.9426 12.5673 10.0286 14.6835 9.58105C14.7998 9.78179 14.9052 9.98865 14.9993 10.2007C13.3517 10.4817 12.3384 11.8483 11.8872 13.7558C12.8336 13.7842 13.802 13.4922 14.7942 13.2451C13.6958 14.0194 12.7247 14.6181 11.6519 14.6794C11.8564 16.5745 11.8447 18.4867 11.6172 20.3791C12.4895 21.0198 12.8986 21.3137 13.6821 22.4038C14.072 21.0153 14.559 18.9256 14.3988 17.3283L12.6387 16.5045L12.7531 15.4153L12.3403 14.9393L14.7604 15.9462L15.1045 15.7805L15.013 16.0496C15.1041 16.8134 15.0507 17.5875 14.8556 18.3315L15.6638 19.0949L16.4665 18.3315C16.284 17.5864 16.2316 16.8153 16.3118 16.0524L16.2148 15.7833L16.559 15.9489L18.9846 14.9421L18.5654 15.4181L18.6807 16.5073L16.9196 17.3311C16.7594 18.9311 17.2528 21.018 17.6363 22.4065C18.4162 21.3164 18.8262 21.018 19.7068 20.3819C19.475 18.4898 19.4615 16.5773 19.6665 14.6821C18.5946 14.6245 17.6198 14.0222 16.5242 13.2478C17.5164 13.495 18.4857 13.787 19.4313 13.7586C18.9956 11.895 18.0207 10.555 16.4436 10.22C16.5416 10.0195 16.6505 9.81904 16.7594 9.61218C18.7914 10.1028 19.6958 11.9838 20.1772 14.0478L20.4061 14.0597C20.1251 16.359 20.0967 18.3617 20.4061 20.6775C18.8354 21.818 18.5022 22.3251 17.3727 23.9003C17.2409 23.4299 17.1091 22.9539 16.9773 22.4779Z" fill="#0B1726"/>
<path fill-rule="evenodd" clip-rule="evenodd" d="M15.6638 6.01402C16.9142 6.70234 17.4533 7.6616 16.6277 9.12611C16.8052 8.0323 16.4382 7.00074 15.6638 6.01402ZM15.6638 11.2094C15.4863 10.2803 15.0561 9.37874 14.3165 8.49729C14.5064 8.48242 14.6974 8.50623 14.8778 8.56727C15.0583 8.62831 15.2245 8.72532 15.3664 8.85243C14.884 8.16503 14.116 7.74581 12.5106 8.12017C12.6762 7.77693 13.198 7.56457 13.8121 7.38792C12.9975 7.23872 12.0346 7.64512 10.8245 8.90094C9.05797 10.587 7.84242 10.0652 6.64335 9.48584C7.91656 9.52062 8.64515 9.33115 9.08085 9.02817C7.22824 9.49316 5.89827 8.97142 5.16968 7.30279C6.93076 8.60987 8.61037 7.80164 10.2561 6.08084C11.9257 4.68131 13.4909 4.66483 14.9874 5.72569C13.1815 5.40441 12.1664 5.73668 11.6447 6.48266C13.3646 5.75956 14.7751 5.6964 15.5375 7.05016C15.542 6.78695 15.4597 6.52959 15.3032 6.31791C15.4295 6.43715 15.5447 6.56767 15.6474 6.70783C16.278 7.59661 16.4327 8.95586 15.6638 11.2094Z" fill="#D84E27"/>
<path d="M49.344 16.2812C49.4047 16.3429 49.4518 16.4167 49.4822 16.4977C49.5126 16.5788 49.5257 16.6653 49.5207 16.7517V22.3983C49.5276 22.5045 49.5073 22.6107 49.4616 22.7068C49.416 22.8029 49.3465 22.8858 49.2598 22.9475C49.2333 22.9658 49.2022 22.985 49.1683 23.007C49.1401 23.0237 49.1137 23.0434 49.0896 23.0656C48.25 23.6812 47.3195 24.162 46.3317 24.4907C45.2893 24.8288 44.1992 24.9964 43.1034 24.9868C42.2091 24.9895 41.3186 24.8706 40.4563 24.6335C39.6217 24.4052 38.8214 24.0666 38.0764 23.6267C36.6006 22.754 35.3704 21.521 34.5012 20.0432C33.6045 18.5121 33.1351 16.7685 33.1419 14.9943C33.1386 13.2309 33.608 11.4988 34.5012 9.9783C34.9358 9.24221 35.4607 8.56328 36.0636 7.95726C36.666 7.34896 37.3448 6.82131 38.0828 6.38749C38.8329 5.94773 39.6369 5.60713 40.4746 5.37423C41.342 5.13236 42.2386 5.01101 43.1391 5.01359C43.7846 5.01187 44.4286 5.07566 45.0612 5.20398C45.6895 5.33301 46.3045 5.51992 46.8983 5.76232C47.107 5.85386 47.356 5.96461 47.6434 6.10465C47.9264 6.24154 48.2014 6.39434 48.4672 6.56232C48.7052 6.71104 48.9284 6.88238 49.1335 7.07398C49.3166 7.24972 49.4081 7.41539 49.4081 7.57283C49.4131 7.72113 49.3718 7.86731 49.29 7.99113V7.9774L48.8717 8.68312C48.8209 8.77667 48.7452 8.85432 48.6529 8.90747C48.5607 8.96063 48.4555 8.9872 48.3491 8.98426C48.1643 8.97753 47.9861 8.91356 47.8392 8.80119C47.1892 8.33212 46.4733 7.96197 45.7148 7.70281C44.9386 7.43877 44.1237 7.30606 43.3038 7.31013C41.8659 7.30462 40.4536 7.69099 39.2187 8.42774C37.4764 9.47134 36.1943 11.1364 35.6307 13.0876C35.4481 13.7208 35.3556 14.3765 35.3561 15.0354C35.349 16.0717 35.5582 17.0979 35.9703 18.0487C36.3646 18.9627 36.9279 19.794 37.6307 20.499C38.3306 21.1986 39.158 21.7579 40.0682 22.1466C40.9988 22.5488 42.0026 22.7539 43.0164 22.7489C43.7481 22.7488 44.4747 22.6272 45.1665 22.3891C45.8971 22.137 46.6107 21.838 47.3029 21.494V18.359H43.6883C43.6011 18.3641 43.5139 18.3491 43.4334 18.3152C43.3529 18.2812 43.2813 18.2292 43.2242 18.1631C43.1165 18.0352 43.0586 17.8726 43.0613 17.7054V16.7645C43.0613 16.5375 43.1217 16.3727 43.2443 16.2675C43.368 16.1624 43.5261 16.1067 43.6883 16.111H48.8644C48.9516 16.106 49.039 16.1185 49.1214 16.1478C49.2037 16.177 49.2794 16.2224 49.344 16.2812Z" fill="#0B1726"/>
<path d="M58.1502 24.9859C57.4158 24.9909 56.688 24.8477 56.0102 24.5649C55.3486 24.291 54.7436 23.8965 54.2263 23.4015C53.7113 22.9082 53.2964 22.3202 53.0043 21.6697C52.7026 21.0046 52.5486 20.282 52.5531 19.5516V12.5037C52.547 12.4257 52.5565 12.3473 52.5812 12.2731C52.6059 12.1989 52.6452 12.1304 52.6968 12.0716C52.7512 12.0216 52.8152 11.9831 52.8848 11.9584C52.9545 11.9337 53.0285 11.9234 53.1022 11.9279H54.4221C54.6229 11.9279 54.7666 11.9694 54.8533 12.0524C54.9402 12.1348 54.9851 12.2767 54.9851 12.4771V19.6011C54.9833 20.0121 55.0724 20.4184 55.2459 20.791C55.4159 21.1604 55.653 21.4949 55.9452 21.7777C56.2373 22.0614 56.5785 22.2896 56.9521 22.4514C57.3284 22.615 57.7344 22.6994 58.1448 22.6994C58.5551 22.6994 58.9611 22.615 59.3374 22.4514C59.7123 22.2901 60.0545 22.0615 60.347 21.7768C60.6392 21.4938 60.8766 21.1593 61.0472 20.7901C61.2208 20.4175 61.3099 20.0112 61.3081 19.6002V12.4771C61.3081 12.2767 61.3511 12.1348 61.439 12.0524C61.5269 11.97 61.6697 11.9279 61.8701 11.9279H63.19C63.3368 11.9212 63.4803 11.9728 63.5891 12.0716C63.6426 12.1294 63.6836 12.1976 63.7094 12.2719C63.7353 12.3463 63.7454 12.4252 63.7392 12.5037V19.5516C63.7437 20.2827 63.5875 21.0058 63.2815 21.6697C62.6866 22.9826 61.6122 24.0184 60.2784 24.5649C59.6041 24.8456 58.8806 24.9888 58.1502 24.9859Z" fill="#0B1726"/>
<path d="M71.8856 16.0194L69.0884 22.6857H74.7872L71.8856 16.0194Z" fill="#D84E27"/>
<path d="M66.3826 24.9859C66.0604 24.9859 65.8984 24.877 65.8984 24.6601C65.8953 24.5814 65.8999 24.5026 65.9121 24.4248C65.9177 24.3976 65.9266 24.3712 65.9387 24.3461L71.2979 12.1632C71.3387 12.083 71.3868 12.0067 71.4416 11.9353C71.502 11.852 71.6421 11.8108 71.8599 11.8108H71.9514C72.0493 11.8068 72.147 11.8224 72.2388 11.8565C72.2991 11.8804 72.3528 11.9184 72.3954 11.9673C72.4287 12.0075 72.453 12.0543 72.4668 12.1046C72.477 12.1437 72.4924 12.1812 72.5125 12.2163C72.9482 13.2268 73.3253 14.0893 73.6439 14.8039C73.9624 15.5184 74.2523 16.1546 74.5134 16.7123C74.7746 17.2701 75.0205 17.7906 75.2512 18.2739C75.4818 18.7572 75.7259 19.278 75.9834 19.8363C76.2403 20.3941 76.5235 21.0302 76.8328 21.7448C77.1422 22.4593 77.505 23.3264 77.9212 24.3461L77.9084 24.3333L77.934 24.4633C77.9422 24.5072 77.9514 24.5466 77.9596 24.5814C77.9673 24.6069 77.9719 24.6334 77.9733 24.6601C77.9733 24.877 77.8159 24.9859 77.5029 24.9859H66.3826ZM69.0883 22.6857H74.7871L71.8855 16.0194L69.0883 22.6857Z" fill="#0B1726"/>
<path d="M89.0744 24.3818C89.109 24.4508 89.1269 24.527 89.1266 24.6042C89.1279 24.6487 89.1192 24.693 89.1012 24.7337C89.0831 24.7744 89.0562 24.8105 89.0223 24.8394C88.9539 24.8998 88.8654 24.9324 88.7742 24.931L87.4534 24.9831C87.2849 24.9897 87.1191 24.939 86.9829 24.8394C86.8506 24.7379 86.7396 24.6113 86.6562 24.4669L84.5509 20.6766H82.4869V24.5282C82.4887 24.6451 82.4492 24.759 82.3752 24.8495C82.3319 24.8974 82.2782 24.9346 82.2182 24.9583C82.1582 24.9819 82.0935 24.9914 82.0292 24.9859H80.7084C80.3862 24.9859 80.2251 24.8162 80.2251 24.477V18.5548H83.3885L80.042 12.5036C80.0067 12.4434 79.9845 12.3763 79.9771 12.3068C79.9771 12.2638 80.0054 12.2281 80.0622 12.2025C80.1172 12.1768 80.1772 12.1634 80.2379 12.1631H85.3756C85.9428 12.1577 86.5046 12.2738 87.0232 12.5036C87.5195 12.7235 87.9679 13.0385 88.3431 13.4309C88.7199 13.8261 89.0173 14.29 89.2191 14.7974C89.4291 15.3186 89.5358 15.8758 89.533 16.4377C89.5338 16.8342 89.4764 17.2286 89.3628 17.6084C89.2504 17.9847 89.0902 18.3449 88.8859 18.6802C88.6801 19.0177 88.4295 19.3256 88.1408 19.5956C87.8506 19.8697 87.5226 20.1009 87.1669 20.282L86.8658 20.348L89.0744 24.3818ZM83.9376 14.229H83.5962L85.8845 18.5027C86.1179 18.4513 86.3394 18.3559 86.5372 18.2217C86.7346 18.0898 86.9111 17.9291 87.0607 17.7448C87.2086 17.5614 87.3275 17.3565 87.4131 17.137C87.5003 16.9142 87.5447 16.6769 87.544 16.4377C87.5442 16.153 87.4889 15.871 87.3811 15.6075C87.2749 15.3468 87.1219 15.1076 86.9298 14.9018C86.7391 14.6982 86.5102 14.534 86.2562 14.4185C86.0001 14.3008 85.7215 14.2405 85.4397 14.2418H83.9376V14.229Z" fill="#0B1726"/>
<path d="M97.4781 12.1375C98.7189 12.1494 99.9284 12.5281 100.954 13.2258C101.981 13.9235 102.777 14.9092 103.245 16.0587C103.569 16.846 103.734 17.6902 103.729 18.542C103.733 19.3902 103.573 20.2312 103.258 21.0188C102.958 21.7785 102.516 22.4747 101.958 23.071C101.401 23.662 100.735 24.1384 99.9952 24.4732C99.2293 24.8196 98.3973 24.9954 97.5568 24.9886H93.1523C92.9079 24.9712 92.7861 24.8192 92.7861 24.5309V12.5951C92.7861 12.2894 92.9381 12.1375 93.2438 12.1375H97.4781ZM95.1129 22.6637H97.5568C98.1082 22.6716 98.6554 22.567 99.165 22.3561C99.6302 22.1606 100.049 21.8689 100.393 21.5003C100.74 21.1217 101.007 20.6768 101.178 20.1923C101.365 19.6634 101.458 19.1057 101.452 18.5447C101.456 17.9934 101.359 17.4461 101.165 16.9301C100.985 16.448 100.711 16.0061 100.36 15.6294C100.009 15.2588 99.5839 14.9652 99.1128 14.7672C98.595 14.5523 98.0387 14.4455 97.4781 14.4532H95.1129V22.6637Z" fill="#0B1726"/>
<path d="M4.98633 39.9395H1.48242V42.5645H5.57812V43.748H0V35.2168H5.53711V36.4121H1.48242V38.7676H4.98633V39.9395Z" fill="#FC6011"/>
<path d="M13.5688 37.4082L13.6098 38.1406C14.0785 37.5742 14.6938 37.291 15.4555 37.291C16.7758 37.291 17.4477 38.0469 17.4711 39.5586V43.748H16.0473V39.6406C16.0473 39.2383 15.9594 38.9414 15.7836 38.75C15.6117 38.5547 15.3285 38.457 14.934 38.457C14.3598 38.457 13.932 38.7168 13.6508 39.2363V43.748H12.227V37.4082H13.5688Z" fill="#FC6011"/>
<path d="M26.3113 35.8672V37.4082H27.4305V38.4629H26.3113V42.002C26.3113 42.2441 26.3582 42.4199 26.452 42.5293C26.5496 42.6348 26.7215 42.6875 26.9676 42.6875C27.1316 42.6875 27.2977 42.668 27.4656 42.6289V43.7305C27.1414 43.8203 26.8289 43.8652 26.5281 43.8652C25.4344 43.8652 24.8875 43.2617 24.8875 42.0547V38.4629H23.8445V37.4082H24.8875V35.8672H26.3113Z" fill="#FC6011"/>
<path d="M36.9152 43.8652C36.0129 43.8652 35.2805 43.582 34.718 43.0156C34.1594 42.4453 33.8801 41.6875 33.8801 40.7422V40.5664C33.8801 39.9336 34.0012 39.3691 34.2434 38.873C34.4895 38.373 34.8332 37.9844 35.2746 37.707C35.716 37.4297 36.2082 37.291 36.7512 37.291C37.6145 37.291 38.2805 37.5664 38.7492 38.1172C39.2219 38.668 39.4582 39.4473 39.4582 40.4551V41.0293H35.3156C35.3586 41.5527 35.5324 41.9668 35.8371 42.2715C36.1457 42.5762 36.5324 42.7285 36.9973 42.7285C37.6496 42.7285 38.1809 42.4648 38.591 41.9375L39.3586 42.6699C39.1047 43.0488 38.7648 43.3438 38.3391 43.5547C37.9172 43.7617 37.4426 43.8652 36.9152 43.8652ZM36.7453 38.4336C36.3547 38.4336 36.0383 38.5703 35.7961 38.8438C35.5578 39.1172 35.4055 39.498 35.3391 39.9863H38.052V39.8809C38.0207 39.4043 37.8937 39.0449 37.6711 38.8027C37.4484 38.5566 37.1398 38.4336 36.7453 38.4336Z" fill="#FC6011"/>
<path d="M49.4879 38.709C49.3004 38.6777 49.107 38.6621 48.9078 38.6621C48.2555 38.6621 47.816 38.9121 47.5895 39.4121V43.748H46.1656V37.4082H47.525L47.5602 38.1172C47.9039 37.5664 48.3805 37.291 48.9898 37.291C49.193 37.291 49.3609 37.3184 49.4938 37.373L49.4879 38.709Z" fill="#FC6011"/>
<path d="M61.5391 40.6426C61.5391 41.623 61.3164 42.4062 60.8711 42.9922C60.4258 43.5742 59.8281 43.8652 59.0781 43.8652C58.3828 43.8652 57.8262 43.6367 57.4082 43.1797V46.1855H55.9844V37.4082H57.2969L57.3555 38.0527C57.7734 37.5449 58.3418 37.291 59.0605 37.291C59.834 37.291 60.4395 37.5801 60.877 38.1582C61.3184 38.7324 61.5391 39.5312 61.5391 40.5547V40.6426ZM60.1211 40.5195C60.1211 39.8867 59.9941 39.3848 59.7402 39.0137C59.4902 38.6426 59.1309 38.457 58.6621 38.457C58.0801 38.457 57.6621 38.6973 57.4082 39.1777V41.9902C57.666 42.4824 58.0879 42.7285 58.6738 42.7285C59.127 42.7285 59.4805 42.5469 59.7344 42.1836C59.9922 41.8164 60.1211 41.2617 60.1211 40.5195Z" fill="#FC6011"/>
<path d="M71.6684 38.709C71.4809 38.6777 71.2875 38.6621 71.0883 38.6621C70.4359 38.6621 69.9965 38.9121 69.7699 39.4121V43.748H68.3461V37.4082H69.7055L69.7406 38.1172C70.0844 37.5664 70.5609 37.291 71.1703 37.291C71.3734 37.291 71.5414 37.3184 71.6742 37.373L71.6684 38.709Z" fill="#FC6011"/>
<path d="M79.6824 43.748H78.2586V37.4082H79.6824V43.748ZM78.1707 35.7617C78.1707 35.543 78.2391 35.3613 78.3758 35.2168C78.5164 35.0723 78.7156 35 78.9734 35C79.2312 35 79.4305 35.0723 79.5711 35.2168C79.7117 35.3613 79.782 35.543 79.782 35.7617C79.782 35.9766 79.7117 36.1562 79.5711 36.3008C79.4305 36.4414 79.2312 36.5117 78.9734 36.5117C78.7156 36.5117 78.5164 36.4414 78.3758 36.3008C78.2391 36.1562 78.1707 35.9766 78.1707 35.7617Z" fill="#FC6011"/>
<path d="M90.3918 42.0254C90.3918 41.7715 90.2863 41.5781 90.0754 41.4453C89.8684 41.3125 89.5227 41.1953 89.0383 41.0938C88.5539 40.9922 88.1496 40.8633 87.8254 40.707C87.1145 40.3633 86.759 39.8652 86.759 39.2129C86.759 38.666 86.9895 38.209 87.4504 37.8418C87.9113 37.4746 88.4973 37.291 89.2082 37.291C89.966 37.291 90.5773 37.4785 91.0422 37.8535C91.5109 38.2285 91.7453 38.7148 91.7453 39.3125H90.3215C90.3215 39.0391 90.2199 38.8125 90.0168 38.6328C89.8137 38.4492 89.5441 38.3574 89.2082 38.3574C88.8957 38.3574 88.6398 38.4297 88.4406 38.5742C88.2453 38.7188 88.1477 38.9121 88.1477 39.1543C88.1477 39.373 88.2395 39.543 88.423 39.6641C88.6066 39.7852 88.9777 39.9082 89.5363 40.0332C90.0949 40.1543 90.5324 40.3008 90.8488 40.4727C91.1691 40.6406 91.4055 40.8438 91.5578 41.082C91.7141 41.3203 91.7922 41.6094 91.7922 41.9492C91.7922 42.5195 91.5559 42.9824 91.0832 43.3379C90.6105 43.6895 89.9914 43.8652 89.2258 43.8652C88.7063 43.8652 88.2434 43.7715 87.8371 43.584C87.4309 43.3965 87.1145 43.1387 86.8879 42.8105C86.6613 42.4824 86.548 42.1289 86.548 41.75H87.9309C87.9504 42.0859 88.0773 42.3457 88.3117 42.5293C88.5461 42.709 88.8566 42.7988 89.2434 42.7988C89.6184 42.7988 89.9035 42.7285 90.0988 42.5879C90.2941 42.4434 90.3918 42.2559 90.3918 42.0254Z" fill="#FC6011"/>
<path d="M101.429 43.8652C100.527 43.8652 99.7945 43.582 99.232 43.0156C98.6734 42.4453 98.3941 41.6875 98.3941 40.7422V40.5664C98.3941 39.9336 98.5152 39.3691 98.7574 38.873C99.0035 38.373 99.3473 37.9844 99.7887 37.707C100.23 37.4297 100.722 37.291 101.265 37.291C102.129 37.291 102.795 37.5664 103.263 38.1172C103.736 38.668 103.972 39.4473 103.972 40.4551V41.0293H99.8297C99.8727 41.5527 100.046 41.9668 100.351 42.2715C100.66 42.5762 101.046 42.7285 101.511 42.7285C102.164 42.7285 102.695 42.4648 103.105 41.9375L103.873 42.6699C103.619 43.0488 103.279 43.3438 102.853 43.5547C102.431 43.7617 101.957 43.8652 101.429 43.8652ZM101.259 38.4336C100.869 38.4336 100.552 38.5703 100.31 38.8438C100.072 39.1172 99.9195 39.498 99.8531 39.9863H102.566V39.8809C102.535 39.4043 102.408 39.0449 102.185 38.8027C101.963 38.5566 101.654 38.4336 101.259 38.4336Z" fill="#FC6011"/>
</g>
<defs>
<clipPath id="clip0">
<rect width="104" height="46" fill="white"/>
</clipPath>
</defs>
</svg>
