<svg xmlns="http://www.w3.org/2000/svg" viewBox="0 0 1279 639" xmlns:v="https://vecta.io/nano"><path d="M629.42 72.65L512 129.21A23.23 23.23 0 0 0 499.41 145l-29 127.09a23.23 23.23 0 0 0 4.49 19.65l81.27 101.91a23.22 23.22 0 0 0 18.16 8.75h130.35a23.22 23.22 0 0 0 18.16-8.75l81.27-101.91a23.23 23.23 0 0 0 4.49-19.65L779.59 145A23.23 23.23 0 0 0 767 129.21L649.58 72.65a23.28 23.28 0 0 0-20.16 0z" fill="#dbe1ee"/><g fill-rule="evenodd"><path d="M552.61 198.79l17 111.45c1.85 12.25 11.18 22.46 19.39 31.76 13.83 15.74 32.37 26.65 51.41 37.25a5.05 5.05 0 0 0 5.64-.06c18.95-10.76 37.49-21.55 51.33-37.19 8.18-9.27 17.45-19.48 19.35-31.73l17-111.45a419.37 419.37 0 0 0-56.61-8.63 59.2 59.2 0 0 1 7.62 11.62q18.46 1.91 36.74 5.52L706 308.65c-1.46 9.46-10.6 19.17-16.82 26.21-12.44 14.09-29.7 24.24-46.08 33.45-16.37-9.14-33.57-19.36-46-33.45-6.15-7-15.29-16.75-16.75-26.21L564.86 207.3q18.18-3.62 36.68-5.52a56.85 56.85 0 0 1 7.68-11.62 416.49 416.49 0 0 0-56.61 8.63z" fill="#3cad5c"/><path d="M657.71 319.12a57.4 57.4 0 0 1-29.13.07l-4.38 15.67c-12.44-17.39-16.18-23-33.57-35.67 3.49-25.57 3.11-47.78.06-73.23l2.48-.13c5.46-23.29 15.74-44.49 39.16-49.44a73.47 73.47 0 0 1 3.49 6.85c-18.22 3.11-29.45 18.22-34.4 39.35 10.47.32 21.2-2.92 32.17-5.65-12.12 8.57-22.91 15.24-34.77 15.87a279.55 279.55 0 0 1-.38 63.08c9.64 7.05 14.21 10.35 22.84 22.41 4.32-15.36 9.71-38.46 7.94-56.17l-19.49-9.07L611 241l-4.57-5.27 26.78 11.17 3.81-1.84-1 3a68 68 0 0 1-1.78 25.2l8.95 8.44 8.88-8.44a73.89 73.89 0 0 1-1.71-25.2l-1.08-3 3.81 1.84 26.84-11.17-4.64 5.27 1.27 12.06-19.48 9.07c-1.78 17.71 3.68 40.81 7.93 56.17 8.63-12.06 13.2-15.36 22.91-22.41a274.88 274.88 0 0 1-.44-63.08c-11.87-.63-22.66-7.3-34.78-15.87 11 2.73 21.7 6 32.17 5.65-4.82-20.62-15.61-35.47-33.06-39.15 1.08-2.23 2.28-4.45 3.49-6.73 22.47 5.46 32.49 26.27 37.82 49.12l2.54.13c-3.11 25.45-3.42 47.66 0 73.23-17.39 12.63-21.07 18.28-33.57 35.67l-4.38-15.74z" fill="#0b1726"/><path d="M643.18 136.92c13.83 7.61 19.8 18.21 10.66 34.46 1.97-12.12-2.09-23.55-10.66-34.46zm0 57.49c-2-10.28-6.73-20.3-14.92-30a15.59 15.59 0 0 1 11.62 3.93c-5.33-7.61-13.84-12.25-31.61-8.12 1.84-3.81 7.62-6.16 14.41-8.13-9-1.65-19.68 2.86-33.07 16.76-19.54 18.66-33 12.88-46.26 6.47 14.09.38 22.15-1.71 27-5.08-20.5 5.15-35.22-.63-43.28-19.1 19.48 14.47 38.08 5.52 56.29-13.52 18.47-15.48 35.79-15.67 52.36-3.93-20-3.55-31.23.13-37 8.38 19-8 34.65-8.7 43.09 6.28a13.23 13.23 0 0 0-2.6-8.12 31.32 31.32 0 0 1 3.81 4.31c6.98 9.89 8.66 24.93.16 49.87z" fill="#d84e27"/></g><path d="M509.37 509.17a4.25 4.25 0 0 1 1.2 3.21v38.49a4.25 4.25 0 0 1-1.78 3.74l-.62.4a3.11 3.11 0 0 0-.54.41 68.37 68.37 0 0 1-18.8 9.71 69.39 69.39 0 0 1-22 3.38 67.08 67.08 0 0 1-18.05-2.41 66.25 66.25 0 0 1-16.21-6.86 69 69 0 0 1-24.37-24.43 67.84 67.84 0 0 1 0-68.61 69.86 69.86 0 0 1 10.65-13.77 67.34 67.34 0 0 1 13.76-10.7 68.38 68.38 0 0 1 16.3-6.91 66.81 66.81 0 0 1 18.18-2.45 64.76 64.76 0 0 1 13.05 1.3 70.2 70.2 0 0 1 12.53 3.8q2.13.9 5.07 2.33a59.76 59.76 0 0 1 5.62 3.14 30.13 30.13 0 0 1 4.54 3.49 5 5 0 0 1 1.87 3.4 4.91 4.91 0 0 1-.8 2.85v-.09l-2.85 4.81a4 4 0 0 1-3.57 2.06 6.1 6.1 0 0 1-3.47-1.25 55.32 55.32 0 0 0-14.48-7.49 50.41 50.41 0 0 0-16.44-2.67 53.95 53.95 0 0 0-38.71 16.17 55.26 55.26 0 0 0-8.29 10.78 53.94 53.94 0 0 0-5.3 12.39 47.71 47.71 0 0 0-1.86 13.32 50.77 50.77 0 0 0 4.18 20.54A54.12 54.12 0 0 0 429.49 538a52.9 52.9 0 0 0 16.62 11.23 50.14 50.14 0 0 0 20.09 4.1 45.15 45.15 0 0 0 14.66-2.45 121.67 121.67 0 0 0 14.56-6.11v-21.43h-24.59a3.89 3.89 0 0 1-3.16-1.34 4.73 4.73 0 0 1-1.11-3.12v-6.41a4.21 4.21 0 0 1 1.25-3.39 4.5 4.5 0 0 1 3-1.07h35.29a4.49 4.49 0 0 1 3.27 1.16zm60.01 59.34a37.29 37.29 0 0 1-14.57-2.89 39.57 39.57 0 0 1-12.16-7.93 37.86 37.86 0 0 1-8.33-11.81 34.47 34.47 0 0 1-3.08-14.43v-48a4 4 0 0 1 1-2.94 3.73 3.73 0 0 1 2.75-1h9a4.14 4.14 0 0 1 2.93.85 3.85 3.85 0 0 1 .9 2.89v48.55a19 19 0 0 0 1.78 8.11 22.49 22.49 0 0 0 4.77 6.73 22.93 22.93 0 0 0 6.86 4.59 20.4 20.4 0 0 0 16.26 0 22.87 22.87 0 0 0 6.9-4.59 22.49 22.49 0 0 0 4.77-6.73 19 19 0 0 0 1.78-8.11v-48.56a3.89 3.89 0 0 1 .89-2.89 4.18 4.18 0 0 1 2.94-.85h9a3.78 3.78 0 0 1 2.72 1 3.9 3.9 0 0 1 1 2.94v48a34 34 0 0 1-3.12 14.43 38.49 38.49 0 0 1-20.49 19.74 37.37 37.37 0 0 1-14.5 2.9z" fill="#0b1726"/><path d="M663.02 507.39l-19.06 45.44h38.84l-19.78-45.44z" fill="#d84e27"/><path d="M625.51 568.51c-2.19 0-3.29-.74-3.29-2.22a8.66 8.66 0 0 1 .09-1.61 3 3 0 0 1 .17-.53l36.54-83a9.93 9.93 0 0 1 1-1.55c.41-.57 1.36-.85 2.85-.85h.62a5.14 5.14 0 0 1 2 .31 2.73 2.73 0 0 1 1.07.76 2.58 2.58 0 0 1 .49.94 2.69 2.69 0 0 0 .31.75q4.46 10.34 7.71 17.64 3.25 7.3 5.92 13l5 10.65 5 10.65 5.79 13 7.44 17.73-.09-.09.18.89a16.97 16.97 0 0 0 .18.8 2.46 2.46 0 0 1 .09.54q0 2.22-3.21 2.22zM644 552.83h38.8L663 507.39zm136.19 11.58a3.33 3.33 0 0 1 .36 1.52 2 2 0 0 1-.71 1.6 2.49 2.49 0 0 1-1.7.63l-9 .35a5.13 5.13 0 0 1-3.21-1 8.53 8.53 0 0 1-2.23-2.54l-14.35-25.84h-14.06v26.28a3.41 3.41 0 0 1-.76 2.19 2.87 2.87 0 0 1-2.36.93h-9c-2.2 0-3.3-1.15-3.3-3.47v-40.38h21.56l-22.8-41.26a3.22 3.22 0 0 1-.45-1.34c0-.29.19-.53.58-.71a2.8 2.8 0 0 1 1.2-.27h35a27.15 27.15 0 0 1 11.22 2.32 28.25 28.25 0 0 1 9 6.33 28.9 28.9 0 0 1 6 9.31 29.5 29.5 0 0 1 2.14 11.18 27.86 27.86 0 0 1-1.16 8 31 31 0 0 1-3.25 7.3 30 30 0 0 1-5.08 6.24 28.86 28.86 0 0 1-6.64 4.68l-2 .44zm-35-69.23h-2.32l15.59 29.14a12.82 12.82 0 0 0 4.46-1.92 16.24 16.24 0 0 0 3.56-3.25 15.7 15.7 0 0 0 2.41-4.14 13.07 13.07 0 0 0 .89-4.77 14.69 14.69 0 0 0-1.12-5.66 15.61 15.61 0 0 0-3.07-4.81 14.77 14.77 0 0 0-4.59-3.3 13.25 13.25 0 0 0-5.57-1.2h-10.25zm92.29-14.25a42.86 42.86 0 0 1 39.29 26.73 43.63 43.63 0 0 1 3.3 16.93 44.74 44.74 0 0 1-3.21 16.88 44.2 44.2 0 0 1-8.86 14 42.4 42.4 0 0 1-13.37 9.53 39.63 39.63 0 0 1-16.63 3.51h-30c-1.66-.12-2.5-1.15-2.5-3.12v-81.34q0-3.12 3.12-3.12zm-16.13 71.72H838a27.62 27.62 0 0 0 11-2.09 24.15 24.15 0 0 0 8.37-5.84 25.76 25.76 0 0 0 5.35-8.91 32.86 32.86 0 0 0 1.87-11.22 30.73 30.73 0 0 0-2-11 26.85 26.85 0 0 0-5.48-8.86 25 25 0 0 0-8.51-5.88 27.94 27.94 0 0 0-11.14-2.14h-16.11z" fill="#0b1726"/></svg>