<svg xmlns="http://www.w3.org/2000/svg" xmlns:xlink="http://www.w3.org/1999/xlink" width="64" height="64" fill="none" xmlns:v="https://vecta.io/nano"><g clip-path="url(#A)"><path d="M30.112.318L13.841 8.155c-.436.209-.819.514-1.12.892s-.514.819-.622 1.29L8.081 27.946c-.108.471-.108.961-.001 1.432s.32.912.621 1.29l11.26 14.119A3.22 3.22 0 0 0 22.478 46h18.06a3.22 3.22 0 0 0 1.397-.319c.436-.21.818-.515 1.12-.894l11.26-14.119a3.23 3.23 0 0 0 .622-2.723l-4.018-17.608a3.22 3.22 0 0 0-1.742-2.182L32.905.318A3.23 3.23 0 0 0 31.508 0a3.23 3.23 0 0 0-1.396.318h0z" fill="#dbe1ee"/><g fill-rule="evenodd"><path d="M19.471 17.795l2.357 15.438c.255 1.697 1.544 3.113 2.682 4.396 1.917 2.181 4.484 3.694 7.123 5.162a.7.7 0 0 0 .782-.008c2.62-1.486 5.193-2.981 7.114-5.154 1.134-1.283 2.417-2.699 2.681-4.396l2.356-15.438a58.05 58.05 0 0 0-7.843-1.197 8.24 8.24 0 0 1 1.056 1.61l5.09.765-2.145 14.042c-.202 1.311-1.469 2.655-2.331 3.632-1.724 1.952-4.115 3.358-6.383 4.632-2.268-1.263-4.651-2.681-6.375-4.632-.853-.982-2.119-2.321-2.321-3.632l-2.146-14.042 5.082-.765c.288-.578.645-1.119 1.065-1.61a57.62 57.62 0 0 0-7.844 1.197h0z" fill="#3cad5c"/><path d="M34.032 34.466a7.93 7.93 0 0 1-4.036.009l-.606 2.173c-1.723-2.41-2.246-3.193-4.651-4.942.483-3.544.431-6.622.008-10.147l.342-.018c.756-3.228 2.181-6.163 5.426-6.849a9.91 9.91 0 0 1 .484.95c-2.526.431-4.08 2.526-4.772 5.451 1.451.043 2.936-.404 4.458-.783-1.684 1.187-3.173 2.105-4.818 2.199a38.56 38.56 0 0 1-.053 8.74c1.338.983 1.965 1.433 3.166 3.105.598-2.129 1.345-5.333 1.099-7.782l-2.699-1.263.175-1.67-.633-.73 3.711 1.544.528-.254-.14.413a9.4 9.4 0 0 1-.241 3.499l1.239 1.171 1.231-1.171c-.28-1.142-.36-2.325-.237-3.495l-.149-.413.528.254 3.719-1.544-.643.73.177 1.67-2.7 1.263c-.246 2.453.511 5.653 1.099 7.782 1.196-1.672 1.825-2.129 3.175-3.105a38.15 38.15 0 0 1-.062-8.739c-1.644-.088-3.138-1.012-4.818-2.199 1.521.379 3.008.827 4.457.783-.668-2.857-2.163-4.912-4.581-5.426.15-.307.317-.615.484-.932 3.116.752 4.502 3.637 5.241 6.801l.351.018c-.431 3.526-.474 6.596 0 10.147-2.408 1.749-2.919 2.526-4.651 4.942l-.606-2.181z" fill="#0b1726"/><path d="M32.018 9.221c1.917 1.055 2.744 2.526 1.478 4.772.272-1.677-.291-3.259-1.478-4.772zm0 7.966c-.272-1.425-.932-2.807-2.066-4.159a2.16 2.16 0 0 1 1.61.545c-.74-1.054-1.917-1.697-4.379-1.123.254-.526 1.054-.852 1.996-1.123-1.249-.229-2.726.394-4.581 2.32-2.709 2.585-4.573 1.785-6.411.897 1.952.053 3.069-.237 3.738-.702-2.841.713-4.88-.087-5.997-2.646 2.7 2.004 5.276.765 7.799-1.874 2.56-2.146 4.96-2.171 7.255-.545-2.769-.493-4.325.017-5.125 1.161 2.637-1.109 4.8-1.206 5.969.87.007-.404-.119-.798-.359-1.123.194.183.37.383.528.598.967 1.363 1.204 3.447.025 6.902h0z" fill="#d84e27"/></g><g fill="#fc6011"><path d="M5.986 57.94H2.482v2.625h4.096v1.183H1v-8.531h5.537v1.195H2.482v2.355h3.504v1.172zm3.833-2.532l.041.732c.469-.566 1.084-.85 1.846-.85 1.32 0 1.992.756 2.016 2.268v4.189h-1.424V57.64c0-.402-.088-.699-.264-.891s-.455-.293-.85-.293c-.574 0-1.002.26-1.283.779v4.512H8.477v-6.34h1.342zm7.992-1.541v1.541h1.119v1.055h-1.119v3.539c0 .242.047.418.141.527s.269.158.516.158a2.19 2.19 0 0 0 .498-.059v1.102a3.5 3.5 0 0 1-.937.135c-1.094 0-1.641-.604-1.641-1.811v-3.592h-1.043v-1.055h1.043v-1.541h1.424zm5.854 7.998c-.902 0-1.635-.283-2.197-.85s-.838-1.328-.838-2.273v-.176c0-.633.121-1.197.363-1.693a2.8 2.8 0 0 1 1.031-1.166 2.72 2.72 0 0 1 1.477-.416c.863 0 1.529.275 1.998.826s.709 1.33.709 2.338v.574h-4.143c.043.523.217.938.521 1.242s.695.457 1.16.457c.652 0 1.184-.264 1.594-.791l.768.732a2.58 2.58 0 0 1-1.02.885 3.19 3.19 0 0 1-1.424.311zm-.17-5.432c-.391 0-.707.137-.949.41s-.391.654-.457 1.142h2.713v-.105c-.031-.477-.158-.836-.381-1.078s-.531-.369-.926-.369z"/><use xlink:href="#B"/><path d="M38.789 58.643c0 .98-.223 1.764-.668 2.35a2.14 2.14 0 0 1-1.793.873c-.695 0-1.252-.229-1.67-.686v3.006h-1.424v-8.777h1.313l.059.645c.418-.508.986-.762 1.705-.762.774 0 1.379.289 1.817.867s.662 1.373.662 2.396v.088zm-1.418-.123c0-.633-.127-1.135-.381-1.506a1.22 1.22 0 0 0-1.078-.557c-.582 0-1 .24-1.254.721v2.813c.258.492.68.738 1.266.738a1.22 1.22 0 0 0 1.061-.545c.258-.367.387-.922.387-1.664zm6.797-1.811a3.52 3.52 0 0 0-.58-.047c-.652 0-1.092.25-1.318.75v4.336h-1.424v-6.34h1.359l.035.709c.344-.551.82-.826 1.43-.826.203 0 .371.027.504.082l-.006 1.336zm3.264 5.039h-1.424v-6.34h1.424v6.34zm-1.512-7.986a.76.76 0 0 1 .205-.545c.141-.145.34-.217.598-.217s.457.072.598.217a.75.75 0 0 1 .211.545.74.74 0 0 1-.211.539c-.141.144-.34.211-.598.211s-.457-.07-.598-.211a.73.73 0 0 1-.205-.539zm7.472 6.263c0-.254-.106-.447-.316-.58s-.553-.25-1.037-.352-.889-.23-1.213-.387c-.711-.344-1.066-.842-1.066-1.494 0-.547.23-1.004.691-1.371s1.047-.551 1.758-.551c.758 0 1.369.188 1.834.563a1.78 1.78 0 0 1 .703 1.459h-1.424a.87.87 0 0 0-.305-.68c-.203-.184-.473-.275-.809-.275-.312 0-.568.072-.768.217s-.293.338-.293.58c0 .219.092.389.275.51s.555.244 1.113.369.996.268 1.313.44.557.371.709.609a1.58 1.58 0 0 1 .234.867c0 .57-.236 1.033-.709 1.389s-1.092.527-1.857.527c-.52 0-.982-.094-1.389-.281s-.723-.445-.949-.774a1.83 1.83 0 0 1-.34-1.06h1.383c.02.336.146.596.381.779s.545.27.932.27c.375 0 .66-.07.855-.211a.67.67 0 0 0 .293-.562zm6.287 1.84c-.902 0-1.635-.283-2.197-.85s-.838-1.328-.838-2.273v-.176c0-.633.121-1.197.363-1.693a2.8 2.8 0 0 1 1.031-1.166 2.72 2.72 0 0 1 1.477-.416c.863 0 1.529.275 1.998.826s.709 1.33.709 2.338v.574H58.08c.043.523.217.938.521 1.242s.695.457 1.16.457c.652 0 1.184-.264 1.594-.791l.768.732a2.58 2.58 0 0 1-1.02.885c-.422.207-.896.311-1.424.311zm-.17-5.432c-.391 0-.707.137-.949.41s-.391.654-.457 1.142h2.713v-.105c-.031-.477-.158-.836-.381-1.078s-.531-.369-.926-.369z"/></g></g><defs><clipPath id="A"><path fill="#fff" d="M0 0h64v64H0z"/></clipPath><path id="B" d="M31.488 56.709a3.52 3.52 0 0 0-.58-.047c-.652 0-1.092.25-1.318.75v4.336h-1.424v-6.34h1.359l.035.709c.344-.551.82-.826 1.43-.826.203 0 .371.027.504.082l-.006 1.336z"/></defs></svg>