<svg width="104" height="46" viewBox="0 0 104 46" fill="none" xmlns="http://www.w3.org/2000/svg">
<path d="M14.4207 0.207193L3.80943 5.31835C3.52523 5.45489 3.2755 5.65378 3.07883 5.90021C2.88215 6.14665 2.74361 6.43427 2.67351 6.74167L0.0529455 18.2253C-0.0174623 18.5327 -0.0176503 18.8519 0.0523953 19.1594C0.122441 19.4668 0.260916 19.7545 0.457518 20.001L7.80114 29.2092C7.99774 29.4558 8.24737 29.6549 8.5315 29.7918C8.81562 29.9287 9.12693 29.9999 9.44232 30H21.2207C21.5361 30 21.8474 29.9289 22.1316 29.792C22.4157 29.6551 22.6653 29.4559 22.8618 29.2092L30.2055 20.001C30.4017 19.7543 30.54 19.4666 30.6102 19.1593C30.6804 18.8519 30.6806 18.5328 30.611 18.2253L27.9904 6.74167C27.9201 6.43435 27.7815 6.14681 27.5848 5.9004C27.3882 5.65399 27.1386 5.45505 26.8545 5.31835L16.2422 0.207193C15.958 0.0708064 15.6468 0 15.3315 0C15.0162 0 14.705 0.0708064 14.4207 0.207193Z" fill="#DBE1EE"/>
<path fill-rule="evenodd" clip-rule="evenodd" d="M7.48071 11.6057L9.01754 21.6743C9.18413 22.7809 10.0244 23.7044 10.7667 24.541C12.017 25.9635 13.6912 26.9502 15.412 27.9076C15.4879 27.9574 15.5769 27.9834 15.6677 27.9824C15.7585 27.9814 15.847 27.9535 15.9218 27.9021C17.6307 26.9328 19.3085 25.958 20.5616 24.541C21.3012 23.7044 22.1378 22.7809 22.3098 21.6743L23.8467 11.6057C22.1615 11.2291 20.4526 10.9683 18.7318 10.825C19.0015 11.1468 19.2325 11.4992 19.4202 11.8748C20.532 11.9895 21.6386 12.1558 22.74 12.3737L21.3414 21.5315C21.2096 22.3864 20.3831 23.2633 19.8211 23.9003C18.6971 25.1735 17.1374 26.0907 15.6582 26.9209C14.179 26.0971 12.6248 25.1726 11.5008 23.9003C10.9443 23.2596 10.1187 22.3864 9.98686 21.5315L8.58734 12.3737C9.68572 12.1558 10.7905 11.9895 11.9017 11.8748C12.0893 11.4976 12.3226 11.145 12.5964 10.825C10.8753 10.9674 9.16599 11.2282 7.48071 11.6057Z" fill="#3CAD5C"/>
<path fill-rule="evenodd" clip-rule="evenodd" d="M16.9773 22.4779C16.1149 22.7067 15.2081 22.7086 14.3448 22.4834C14.213 22.9539 14.0812 23.4299 13.9494 23.9003C12.8254 22.3287 12.4849 21.818 10.916 20.6775C11.2309 18.3663 11.197 16.359 10.9215 14.0597L11.1448 14.0478C11.6382 11.9426 12.5673 10.0286 14.6835 9.58105C14.7998 9.78179 14.9052 9.98865 14.9993 10.2007C13.3517 10.4817 12.3384 11.8483 11.8872 13.7558C12.8336 13.7842 13.802 13.4922 14.7942 13.2451C13.6958 14.0194 12.7247 14.6181 11.6519 14.6794C11.8564 16.5745 11.8447 18.4867 11.6172 20.3791C12.4895 21.0198 12.8986 21.3137 13.6821 22.4038C14.072 21.0153 14.559 18.9256 14.3988 17.3283L12.6387 16.5045L12.7531 15.4153L12.3403 14.9393L14.7604 15.9462L15.1045 15.7805L15.013 16.0496C15.1041 16.8134 15.0507 17.5875 14.8556 18.3315L15.6638 19.0949L16.4665 18.3315C16.284 17.5864 16.2316 16.8153 16.3118 16.0524L16.2148 15.7833L16.559 15.9489L18.9846 14.9421L18.5654 15.4181L18.6807 16.5073L16.9196 17.3311C16.7594 18.9311 17.2528 21.018 17.6363 22.4065C18.4162 21.3164 18.8262 21.018 19.7068 20.3819C19.475 18.4898 19.4615 16.5773 19.6665 14.6821C18.5946 14.6245 17.6198 14.0222 16.5242 13.2478C17.5164 13.495 18.4857 13.787 19.4313 13.7586C18.9956 11.895 18.0207 10.555 16.4436 10.22C16.5416 10.0195 16.6505 9.81904 16.7594 9.61218C18.7914 10.1028 19.6958 11.9838 20.1772 14.0478L20.4061 14.0597C20.1251 16.359 20.0967 18.3617 20.4061 20.6775C18.8354 21.818 18.5022 22.3251 17.3727 23.9003C17.2409 23.4299 17.1091 22.9539 16.9773 22.4779Z" fill="#0B1726"/>
<path fill-rule="evenodd" clip-rule="evenodd" d="M15.6638 6.01402C16.9142 6.70234 17.4533 7.6616 16.6277 9.12611C16.8052 8.0323 16.4382 7.00074 15.6638 6.01402ZM15.6638 11.2094C15.4863 10.2803 15.0561 9.37874 14.3165 8.49729C14.5064 8.48242 14.6974 8.50623 14.8778 8.56727C15.0583 8.62831 15.2245 8.72532 15.3664 8.85243C14.884 8.16503 14.116 7.74581 12.5106 8.12017C12.6762 7.77693 13.198 7.56457 13.8121 7.38792C12.9975 7.23872 12.0346 7.64512 10.8245 8.90094C9.05797 10.587 7.84242 10.0652 6.64335 9.48584C7.91656 9.52062 8.64515 9.33115 9.08085 9.02817C7.22824 9.49316 5.89827 8.97142 5.16968 7.30279C6.93076 8.60987 8.61037 7.80164 10.2561 6.08084C11.9257 4.68131 13.4909 4.66483 14.9874 5.72569C13.1815 5.40441 12.1664 5.73668 11.6447 6.48266C13.3646 5.75956 14.7751 5.6964 15.5375 7.05016C15.542 6.78695 15.4597 6.52959 15.3032 6.31791C15.4295 6.43715 15.5447 6.56767 15.6474 6.70783C16.278 7.59661 16.4327 8.95586 15.6638 11.2094Z" fill="#D84E27"/>
<path d="M49.344 16.2811C49.4047 16.3428 49.4518 16.4166 49.4822 16.4976C49.5126 16.5786 49.5257 16.6651 49.5207 16.7516V22.3982C49.5276 22.5044 49.5073 22.6106 49.4616 22.7067C49.416 22.8028 49.3465 22.8856 49.2598 22.9474C49.2333 22.9657 49.2022 22.9849 49.1683 23.0069C49.1401 23.0236 49.1137 23.0432 49.0896 23.0654C48.25 23.6811 47.3195 24.1619 46.3317 24.4906C45.2893 24.8287 44.1992 24.9962 43.1034 24.9867C42.2091 24.9894 41.3186 24.8705 40.4563 24.6334C39.6217 24.4051 38.8214 24.0665 38.0764 23.6265C36.6006 22.7539 35.3704 21.5209 34.5012 20.0431C33.6045 18.512 33.1351 16.7684 33.1419 14.9941C33.1386 13.2307 33.608 11.4987 34.5012 9.97817C34.9358 9.24209 35.4607 8.56315 36.0636 7.95714C36.666 7.34884 37.3448 6.82119 38.0828 6.38737C38.8329 5.9476 39.6369 5.60701 40.4746 5.3741C41.342 5.13224 42.2386 5.01089 43.1391 5.01347C43.7846 5.01174 44.4286 5.07553 45.0612 5.20386C45.6895 5.33289 46.3045 5.5198 46.8983 5.7622C47.107 5.85373 47.356 5.96449 47.6434 6.10453C47.9264 6.24142 48.2014 6.39422 48.4672 6.56219C48.7052 6.71091 48.9284 6.88226 49.1335 7.07386C49.3166 7.2496 49.4081 7.41527 49.4081 7.57271C49.4131 7.72101 49.3718 7.86718 49.29 7.99101V7.97728L48.8717 8.68299C48.8209 8.77654 48.7452 8.8542 48.6529 8.90735C48.5607 8.9605 48.4555 8.98708 48.3491 8.98413C48.1643 8.97741 47.9861 8.91344 47.8392 8.80107C47.1892 8.33199 46.4733 7.96184 45.7148 7.70268C44.9386 7.43865 44.1237 7.30594 43.3038 7.31001C41.8659 7.3045 40.4536 7.69087 39.2187 8.42762C37.4764 9.47122 36.1943 11.1363 35.6307 13.0875C35.4481 13.7207 35.3556 14.3764 35.3561 15.0353C35.349 16.0715 35.5582 17.0978 35.9703 18.0486C36.3646 18.9625 36.9279 19.7939 37.6307 20.4989C38.3306 21.1985 39.158 21.7577 40.0682 22.1465C40.9988 22.5487 42.0026 22.7538 43.0164 22.7487C43.7481 22.7487 44.4747 22.6271 45.1665 22.389C45.8971 22.1369 46.6107 21.8379 47.3029 21.4938V18.3589H43.6883C43.6011 18.364 43.5139 18.349 43.4334 18.315C43.3529 18.2811 43.2813 18.229 43.2242 18.163C43.1165 18.035 43.0586 17.8725 43.0613 17.7053V16.7644C43.0613 16.5374 43.1217 16.3726 43.2443 16.2674C43.368 16.1623 43.5261 16.1066 43.6883 16.1108H48.8644C48.9516 16.1059 49.039 16.1184 49.1214 16.1476C49.2037 16.1769 49.2794 16.2222 49.344 16.2811Z" fill="#0B1726"/>
<path d="M58.1502 24.9858C57.4158 24.9908 56.688 24.8476 56.0102 24.5647C55.3486 24.2909 54.7436 23.8964 54.2263 23.4014C53.7113 22.9081 53.2964 22.3201 53.0043 21.6696C52.7026 21.0045 52.5486 20.2819 52.5531 19.5515V12.5035C52.547 12.4256 52.5565 12.3472 52.5812 12.273C52.6059 12.1988 52.6452 12.1303 52.6968 12.0715C52.7512 12.0215 52.8152 11.983 52.8848 11.9583C52.9545 11.9336 53.0285 11.9232 53.1022 11.9278H54.4221C54.6229 11.9278 54.7666 11.9693 54.8533 12.0523C54.9402 12.1347 54.9851 12.2765 54.9851 12.477V19.6009C54.9833 20.012 55.0724 20.4183 55.2459 20.7909C55.4159 21.1602 55.653 21.4948 55.9452 21.7776C56.2373 22.0612 56.5785 22.2895 56.9521 22.4513C57.3284 22.6149 57.7344 22.6993 58.1448 22.6993C58.5551 22.6993 58.9611 22.6149 59.3374 22.4513C59.7123 22.29 60.0545 22.0613 60.347 21.7767C60.6392 21.4937 60.8766 21.1592 61.0472 20.79C61.2208 20.4174 61.3099 20.0111 61.3081 19.6V12.477C61.3081 12.2765 61.3511 12.1347 61.439 12.0523C61.5269 11.9699 61.6697 11.9278 61.8701 11.9278H63.19C63.3368 11.921 63.4803 11.9727 63.5891 12.0715C63.6426 12.1292 63.6836 12.1974 63.7094 12.2718C63.7353 12.3462 63.7454 12.4251 63.7392 12.5035V19.5515C63.7437 20.2825 63.5875 21.0056 63.2815 21.6696C62.6866 22.9825 61.6122 24.0183 60.2784 24.5647C59.6041 24.8455 58.8806 24.9887 58.1502 24.9858Z" fill="#0B1726"/>
<path d="M71.8856 16.0193L69.0884 22.6856H74.7872L71.8856 16.0193Z" fill="#D84E27"/>
<path d="M66.3826 24.9858C66.0604 24.9858 65.8984 24.8769 65.8984 24.6599C65.8953 24.5813 65.8999 24.5025 65.9121 24.4247C65.9177 24.3975 65.9266 24.371 65.9387 24.346L71.2979 12.1631C71.3387 12.0829 71.3868 12.0066 71.4416 11.9351C71.502 11.8518 71.6421 11.8107 71.8599 11.8107H71.9514C72.0493 11.8067 72.147 11.8223 72.2388 11.8564C72.2991 11.8803 72.3528 11.9183 72.3954 11.9672C72.4287 12.0073 72.453 12.0541 72.4668 12.1045C72.477 12.1436 72.4924 12.1811 72.5125 12.2161C72.9482 13.2267 73.3253 14.0892 73.6439 14.8038C73.9624 15.5183 74.2523 16.1545 74.5134 16.7122C74.7746 17.2699 75.0205 17.7905 75.2512 18.2737C75.4818 18.757 75.7259 19.2779 75.9834 19.8362C76.2403 20.3939 76.5235 21.0301 76.8328 21.7446C77.1422 22.4592 77.505 23.3263 77.9212 24.346L77.9084 24.3332L77.934 24.4632C77.9422 24.5071 77.9514 24.5464 77.9596 24.5812C77.9673 24.6068 77.9719 24.6333 77.9733 24.6599C77.9733 24.8769 77.8159 24.9858 77.5029 24.9858H66.3826ZM69.0883 22.6856H74.7871L71.8855 16.0193L69.0883 22.6856Z" fill="#0B1726"/>
<path d="M89.0744 24.3817C89.109 24.4507 89.1269 24.5269 89.1266 24.6041C89.1279 24.6486 89.1192 24.6928 89.1012 24.7336C89.0831 24.7743 89.0562 24.8104 89.0223 24.8393C88.9539 24.8997 88.8654 24.9323 88.7742 24.9308L87.4534 24.983C87.2849 24.9895 87.1191 24.9389 86.9829 24.8393C86.8506 24.7378 86.7396 24.6112 86.6562 24.4668L84.5509 20.6764H82.4869V24.5281C82.4887 24.645 82.4492 24.7588 82.3752 24.8494C82.3319 24.8973 82.2782 24.9345 82.2182 24.9581C82.1582 24.9818 82.0935 24.9913 82.0292 24.9858H80.7084C80.3862 24.9858 80.2251 24.8161 80.2251 24.4768V18.5547H83.3885L80.042 12.5035C80.0067 12.4433 79.9845 12.3762 79.9771 12.3067C79.9771 12.2637 80.0054 12.228 80.0622 12.2024C80.1172 12.1767 80.1772 12.1633 80.2379 12.163H85.3756C85.9428 12.1576 86.5046 12.2737 87.0232 12.5035C87.5195 12.7234 87.9679 13.0384 88.3431 13.4307C88.7199 13.826 89.0173 14.2899 89.2191 14.7973C89.4291 15.3185 89.5358 15.8756 89.533 16.4376C89.5338 16.834 89.4764 17.2285 89.3628 17.6083C89.2504 17.9845 89.0902 18.3448 88.8859 18.6801C88.6801 19.0175 88.4295 19.3255 88.1408 19.5954C87.8506 19.8696 87.5226 20.1008 87.1669 20.2819L86.8658 20.3478L89.0744 24.3817ZM83.9376 14.2289H83.5962L85.8845 18.5025C86.1179 18.4512 86.3394 18.3558 86.5372 18.2215C86.7346 18.0897 86.9111 17.929 87.0607 17.7447C87.2086 17.5613 87.3275 17.3563 87.4131 17.1369C87.5003 16.9141 87.5447 16.6768 87.544 16.4376C87.5442 16.1529 87.4889 15.8709 87.3811 15.6074C87.2749 15.3466 87.1219 15.1075 86.9298 14.9017C86.7391 14.698 86.5102 14.5338 86.2562 14.4184C86.0001 14.3007 85.7215 14.2404 85.4397 14.2417H83.9376V14.2289Z" fill="#0B1726"/>
<path d="M97.4781 12.1375C98.7189 12.1494 99.9284 12.5281 100.954 13.2258C101.981 13.9235 102.777 14.9092 103.245 16.0587C103.569 16.846 103.734 17.6902 103.729 18.542C103.733 19.3902 103.573 20.2312 103.258 21.0188C102.958 21.7785 102.516 22.4747 101.958 23.071C101.401 23.662 100.735 24.1384 99.9952 24.4732C99.2293 24.8196 98.3973 24.9954 97.5568 24.9886H93.1523C92.9079 24.9712 92.7861 24.8192 92.7861 24.5309V12.5951C92.7861 12.2894 92.9381 12.1375 93.2438 12.1375H97.4781ZM95.1129 22.6637H97.5568C98.1082 22.6716 98.6554 22.567 99.165 22.3561C99.6302 22.1606 100.049 21.8689 100.393 21.5003C100.74 21.1217 101.007 20.6768 101.178 20.1923C101.365 19.6634 101.458 19.1057 101.452 18.5447C101.456 17.9934 101.359 17.4461 101.165 16.9301C100.985 16.448 100.711 16.0061 100.36 15.6294C100.009 15.2588 99.5839 14.9652 99.1128 14.7672C98.595 14.5523 98.0387 14.4455 97.4781 14.4532H95.1129V22.6637Z" fill="#0B1726"/>
<path d="M6.75818 40.3358C6.67251 41.3016 6.33762 42.056 5.7535 42.599C5.16939 43.1378 4.39252 43.4073 3.4229 43.4073C2.74533 43.4073 2.14759 43.2373 1.62967 42.8974C1.11565 42.5534 0.718458 42.0663 0.438084 41.4363C0.15771 40.8062 0.0116822 40.0746 0 39.2415V38.3959C0 37.542 0.142134 36.7896 0.426402 36.1389C0.71067 35.4881 1.1176 34.9865 1.6472 34.6342C2.18069 34.2819 2.79595 34.1057 3.49299 34.1057C4.43146 34.1057 5.18692 34.3772 5.75935 34.9202C6.33178 35.4632 6.66472 36.2301 6.75818 37.2207H5.28622C5.21612 36.5699 5.03699 36.1016 4.74883 35.8155C4.46456 35.5254 4.04595 35.3803 3.49299 35.3803C2.85047 35.3803 2.35592 35.6311 2.00935 36.1326C1.66667 36.6301 1.49143 37.3617 1.48364 38.3275V39.1295C1.48364 40.1078 1.6472 40.8539 1.9743 41.3679C2.3053 41.8819 2.78816 42.1389 3.4229 42.1389C4.00312 42.1389 4.43925 42 4.73131 41.7223C5.02336 41.4446 5.20833 40.9824 5.28622 40.3358H6.75818Z" fill="#00A651"/>
<path d="M13.0643 39.857C13.0643 39.1979 13.1869 38.6052 13.4322 38.0788C13.6776 37.5482 14.0222 37.142 14.4661 36.8601C14.91 36.5741 15.4202 36.4311 15.9965 36.4311C16.8493 36.4311 17.5405 36.7233 18.0701 37.3078C18.6036 37.8922 18.8917 38.6674 18.9346 39.6332L18.9404 39.9876C18.9404 40.6508 18.8197 41.2435 18.5783 41.7658C18.3407 42.2881 17.9981 42.6922 17.5502 42.9782C17.1063 43.2642 16.5923 43.4073 16.0082 43.4073C15.1164 43.4073 14.4019 43.0922 13.8645 42.4622C13.331 41.828 13.0643 40.9845 13.0643 39.9316V39.857ZM14.4836 39.9876C14.4836 40.6798 14.618 41.2228 14.8867 41.6166C15.1554 42.0062 15.5292 42.201 16.0082 42.201C16.4871 42.201 16.859 42.0021 17.1238 41.6041C17.3925 41.2062 17.5269 40.6238 17.5269 39.857C17.5269 39.1772 17.3886 38.6383 17.1121 38.2404C16.8396 37.8425 16.4677 37.6435 15.9965 37.6435C15.5331 37.6435 15.1651 37.8404 14.8925 38.2342C14.6199 38.6238 14.4836 39.2083 14.4836 39.9876Z" fill="#00A651"/>
<path d="M26.8586 36.5554L26.8995 37.258C27.3435 36.7067 27.9509 36.4311 28.722 36.4311C29.567 36.4311 30.1452 36.7751 30.4568 37.4632C30.9163 36.7751 31.5627 36.4311 32.396 36.4311C33.0931 36.4311 33.611 36.6363 33.9498 37.0466C34.2924 37.457 34.4677 38.0622 34.4755 38.8622V43.2829H33.0561V38.9057C33.0561 38.4788 32.9685 38.1658 32.7932 37.9668C32.618 37.7679 32.3279 37.6684 31.9229 37.6684C31.5997 37.6684 31.3349 37.7617 31.1285 37.9482C30.926 38.1306 30.7839 38.371 30.7021 38.6694L30.7079 43.2829H29.2886V38.856C29.2691 38.0642 28.8894 37.6684 28.1495 37.6684C27.581 37.6684 27.178 37.915 26.9404 38.4083V43.2829H25.521V36.5554H26.8586Z" fill="#00A651"/>
<path d="M42.6507 36.5554L42.6916 37.258C43.1355 36.7067 43.743 36.4311 44.514 36.4311C45.359 36.4311 45.9373 36.7751 46.2488 37.4632C46.7083 36.7751 47.3548 36.4311 48.1881 36.4311C48.8851 36.4311 49.403 36.6363 49.7418 37.0466C50.0845 37.457 50.2597 38.0622 50.2675 38.8622V43.2829H48.8481V38.9057C48.8481 38.4788 48.7605 38.1658 48.5853 37.9668C48.41 37.7679 48.1199 37.6684 47.715 37.6684C47.3917 37.6684 47.1269 37.7617 46.9206 37.9482C46.7181 38.1306 46.5759 38.371 46.4942 38.6694L46.5 43.2829H45.0806V38.856C45.0611 38.0642 44.6815 37.6684 43.9416 37.6684C43.3731 37.6684 42.97 37.915 42.7325 38.4083V43.2829H41.3131V36.5554H42.6507Z" fill="#00A651"/>
<path d="M60.9369 42.6238C60.5202 43.1461 59.9283 43.4073 59.1612 43.4073C58.4759 43.4073 57.956 43.1938 57.6016 42.7668C57.2512 42.3399 57.0759 41.7223 57.0759 40.914V36.5554H58.4953V40.8953C58.4953 41.7492 58.8283 42.1762 59.4942 42.1762C60.1834 42.1762 60.6488 41.913 60.8902 41.3865V36.5554H62.3096V43.2829H60.972L60.9369 42.6238Z" fill="#00A651"/>
<path d="M70.4556 36.5554L70.4965 37.3326C70.9638 36.7316 71.5771 36.4311 72.3365 36.4311C73.6527 36.4311 74.3224 37.2332 74.3458 38.8373V43.2829H72.9264V38.9244C72.9264 38.4974 72.8388 38.1824 72.6636 37.9793C72.4922 37.772 72.2099 37.6684 71.8166 37.6684C71.2442 37.6684 70.8178 37.944 70.5374 38.4953V43.2829H69.118V36.5554H70.4556Z" fill="#00A651"/>
<path d="M82.6904 43.2829H81.271V36.5554H82.6904V43.2829ZM81.1834 34.8083C81.1834 34.5762 81.2516 34.3834 81.3879 34.2301C81.528 34.0767 81.7266 34 81.9836 34C82.2407 34 82.4393 34.0767 82.5794 34.2301C82.7196 34.3834 82.7897 34.5762 82.7897 34.8083C82.7897 35.0363 82.7196 35.2269 82.5794 35.3803C82.4393 35.5295 82.2407 35.6041 81.9836 35.6041C81.7266 35.6041 81.528 35.5295 81.3879 35.3803C81.2516 35.2269 81.1834 35.0363 81.1834 34.8083Z" fill="#00A651"/>
<path d="M91.403 34.9202V36.5554H92.5187V37.6746H91.403V41.4301C91.403 41.687 91.4498 41.8736 91.5432 41.9896C91.6406 42.1016 91.8119 42.1575 92.0572 42.1575C92.2208 42.1575 92.3863 42.1368 92.5537 42.0953V43.2642C92.2305 43.3596 91.919 43.4073 91.6192 43.4073C90.5288 43.4073 89.9837 42.7668 89.9837 41.486V37.6746H88.9439V36.5554H89.9837V34.9202H91.403Z" fill="#00A651"/>
<path d="M101.202 41.1192L102.487 36.5554H104L101.488 44.3026C101.103 45.4342 100.449 46 99.5257 46C99.3193 46 99.0915 45.9627 98.8423 45.8881V44.7192L99.111 44.7378C99.4692 44.7378 99.7379 44.6674 99.9171 44.5264C100.1 44.3896 100.244 44.1575 100.349 43.8301L100.554 43.2518L98.3341 36.5554H99.8645L101.202 41.1192Z" fill="#00A651"/>
</svg>
