<svg xmlns="http://www.w3.org/2000/svg" viewBox="0 0 216 216" xmlns:v="https://vecta.io/nano"><path d="M103.66 17.68l-46 22.14A9.11 9.11 0 0 0 52.75 46L41.39 95.75a9.12 9.12 0 0 0 1.76 7.7L75 143.35a9.1 9.1 0 0 0 7.11 3.42h51a9.09 9.09 0 0 0 7.11-3.42l31.83-39.9a9.11 9.11 0 0 0 1.75-7.7L162.45 46a9.06 9.06 0 0 0-4.92-6.17l-46-22.14a9 9 0 0 0-7.87-.01z" fill="#dbe1ee"/><g fill-rule="evenodd"><path d="M73.58 67.07l6.66 43.63c.72 4.8 4.37 8.8 7.58 12.43 5.42 6.16 12.67 10.43 20.13 14.58a2 2 0 0 0 2.21 0c7.41-4.2 14.69-8.43 20.1-14.56 3.21-3.63 6.84-7.63 7.58-12.43l6.66-43.63a163.86 163.86 0 0 0-22.16-3.38 23.59 23.59 0 0 1 3 4.54q7.23.75 14.39 2.17l-6.07 39.68c-.57 3.7-4.15 7.5-6.58 10.26-4.87 5.52-11.63 9.5-18 13.1-6.41-3.58-13.15-7.58-18-13.1-2.41-2.76-6-6.56-6.56-10.26l-6.14-39.7c4.74-1 9.54-1.67 14.36-2.17a22.38 22.38 0 0 1 3-4.54 162.8 162.8 0 0 0-22.16 3.38z" fill="#3cad5c"/><path d="M114.73 114.18a22.47 22.47 0 0 1-11.4 0l-1.72 6.14c-4.87-6.81-6.33-9-13.14-14a108 108 0 0 0 0-28.68h1c2.14-9.12 6.16-17.42 15.33-19.36a27.19 27.19 0 0 1 1.36 2.72C99 62.2 94.63 68.11 92.69 76.38c4.1.13 8.3-1.14 12.6-2.21-4.75 3.36-9 6-13.62 6.21a109 109 0 0 1-.15 24.71c3.78 2.75 5.57 4 9 8.77 1.69-6 3.8-15.06 3.11-22L96 88.31l.49-4.72-1.79-2.06 10.49 4.37 1.49-.72-.4 1.17a26.38 26.38 0 0 1-.69 9.86l3.5 3.31 3.48-3.31a28.87 28.87 0 0 1-.67-9.86l-.42-1.17 1.49.72 10.51-4.37-1.81 2.06.49 4.72-7.63 3.56c-.69 6.93 1.45 16 3.11 22 3.38-4.72 5.17-6 9-8.77a107.8 107.8 0 0 1-.17-24.71c-4.65-.24-8.87-2.85-13.62-6.21 4.3 1.07 8.5 2.34 12.6 2.21-1.89-8.07-6.12-13.89-13-15.33.42-.87.9-1.74 1.37-2.63 8.79 2.14 12.72 10.29 14.81 19.23h1a107.58 107.58 0 0 0 0 28.68c-6.81 4.94-8.25 7.15-13.14 14l-1.76-6.16z" fill="#0b1726"/><path d="M109 42.84c5.42 3 7.75 7.13 4.18 13.49.82-4.75-.78-9.22-4.18-13.49zm0 22.51a25.5 25.5 0 0 0-5.8-11.75 6.09 6.09 0 0 1 4.55 1.54c-2.09-3-5.42-4.8-12.38-3.18.73-1.49 3-2.41 5.65-3.18-3.53-.65-7.71 1.11-13 6.56-7.65 7.3-12.92 5-18.12 2.53 5.52.15 8.68-.67 10.56-2-8 2-13.79-.25-16.94-7.48 7.63 5.67 14.91 2.17 22-5.29 7.23-6.06 14-6.14 20.5-1.54-7.83-1.39-12.23 0-14.49 3.28 7.46-3.13 13.57-3.4 16.88 2.46a5.26 5.26 0 0 0-1-3.18 12.69 12.69 0 0 1 1.59 1.7c2.7 3.88 3.37 9.77 0 19.53z" fill="#d84e27"/></g><path d="M72.33 183.14a1.15 1.15 0 0 1 .33.87v10.43a1.16 1.16 0 0 1-.48 1l-.17.11a.48.48 0 0 0-.15.11 18.51 18.51 0 0 1-5.09 2.63 18.86 18.86 0 0 1-6 .92 18 18 0 0 1-4.89-.66 17.7 17.7 0 0 1-4.4-1.86 18.91 18.91 0 0 1-6.6-6.62 17.93 17.93 0 0 1-1.86-4.41 18.76 18.76 0 0 1 0-9.79 17.63 17.63 0 0 1 1.86-4.39 18.69 18.69 0 0 1 2.89-3.74 18.13 18.13 0 0 1 3.73-2.9A18.48 18.48 0 0 1 56 163a18.2 18.2 0 0 1 4.92-.67 17.28 17.28 0 0 1 3.54.36 18.88 18.88 0 0 1 3.39 1q.58.24 1.38.63a14.87 14.87 0 0 1 1.52.85 7.49 7.49 0 0 1 1.23.95 1.33 1.33 0 0 1 .51.92 1.29 1.29 0 0 1-.22.77h0l-.77 1.3a1.08 1.08 0 0 1-1 .56 1.69 1.69 0 0 1-.94-.34 14.9 14.9 0 0 0-3.92-2 13.76 13.76 0 0 0-4.46-.72 14.65 14.65 0 0 0-4 .54 14.66 14.66 0 0 0-6.51 3.85 14.74 14.74 0 0 0-2.25 2.93 14.22 14.22 0 0 0-1.42 3.32 12.84 12.84 0 0 0-.51 3.6 13.82 13.82 0 0 0 1.13 5.56 14.69 14.69 0 0 0 3.07 4.53 14.29 14.29 0 0 0 4.51 3 13.38 13.38 0 0 0 5.44 1.12 12 12 0 0 0 4-.67 31.93 31.93 0 0 0 4-1.65V187h-6.75a1.06 1.06 0 0 1-.86-.36 1.28 1.28 0 0 1-.3-.85V184a1.13 1.13 0 0 1 .34-.92 1.16 1.16 0 0 1 .82-.29h9.56a1.21 1.21 0 0 1 .88.35zm16.27 16.09a10.17 10.17 0 0 1-3.95-.79 10.63 10.63 0 0 1-3.3-2.15 10.38 10.38 0 0 1-2.26-3.2 9.43 9.43 0 0 1-.83-3.91v-13a1 1 0 0 1 1.01-1.06h2.44a1.16 1.16 0 0 1 .8.23 1 1 0 0 1 .24.78v13.17a5.14 5.14 0 0 0 .48 2.19 6.28 6.28 0 0 0 1.3 1.83 6.37 6.37 0 0 0 1.86 1.24 5.49 5.49 0 0 0 4.4 0 6.34 6.34 0 0 0 1.88-1.24 6.25 6.25 0 0 0 1.33-1.85 5.14 5.14 0 0 0 .48-2.19v-13.17a1 1 0 0 1 .24-.78 1.16 1.16 0 0 1 .8-.23h2.44a1 1 0 0 1 1.01 1.06v13a9.28 9.28 0 0 1-.84 3.91 10.72 10.72 0 0 1-2.26 3.2 10.4 10.4 0 0 1-3.3 2.15 10.18 10.18 0 0 1-3.97.81z" fill="#0b1726"/><path d="M113.98 182.66l-5.17 12.32h10.53l-5.36-12.32z" fill="#d84e27"/><path d="M103.81 199.23c-.59 0-.89-.21-.89-.61a3.28 3.28 0 0 1 0-.43.64.64 0 0 1 0-.15l9.9-22.51a4 4 0 0 1 .27-.42c.11-.15.37-.23.77-.23h.17a1.3 1.3 0 0 1 .53.09.65.65 0 0 1 .29.2.71.71 0 0 1 .13.26 1.29 1.29 0 0 0 .09.2q1.2 2.81 2.09 4.78l1.6 3.53 1.37 2.88 1.35 2.89 1.57 3.53 2 4.8h0v.24.22a1.15 1.15 0 0 1 0 .14c0 .4-.29.61-.87.61zm5-4.25h10.53L114 182.66zm36.93 3.13a1 1 0 0 1 .09.42.54.54 0 0 1-.19.43.69.69 0 0 1-.46.17l-2.44.1a1.41 1.41 0 0 1-.87-.28 2.49 2.49 0 0 1-.6-.69l-3.89-7h-3.82v7.12a.88.88 0 0 1-.2.59.78.78 0 0 1-.64.26h-2.44c-.6 0-.89-.32-.89-.95v-10.94h5.84l-6.18-11.18a.92.92 0 0 1-.12-.36.21.21 0 0 1 .15-.19.8.8 0 0 1 .33-.08h9.49a7.29 7.29 0 0 1 3 .63 7.55 7.55 0 0 1 2.44 1.72 7.73 7.73 0 0 1 1.66 2.52 8 8 0 0 1 .58 3 7.47 7.47 0 0 1-.31 2.16 8.79 8.79 0 0 1-.88 2 8 8 0 0 1-1.38 1.69 7.81 7.81 0 0 1-1.8 1.27l-.56.12zm-9.5-18.76h-.62l4.22 7.9a3.53 3.53 0 0 0 1.21-.52 4.8 4.8 0 0 0 1-.88 4.37 4.37 0 0 0 .65-1.13 3.52 3.52 0 0 0 .24-1.29 4 4 0 0 0-.3-1.53 4.2 4.2 0 0 0-.84-1.31 4 4 0 0 0-1.24-.89 3.54 3.54 0 0 0-1.51-.33h-2.78zm25.02-3.86a11.6 11.6 0 0 1 8.2 3.5 11.61 11.61 0 0 1 2.45 3.74 11.74 11.74 0 0 1 .9 4.59 12.15 12.15 0 0 1-.87 4.58 12 12 0 0 1-2.41 3.79 11.44 11.44 0 0 1-3.62 2.58 10.63 10.63 0 0 1-4.5 1h-8.14c-.45 0-.68-.32-.68-.85v-22a.75.75 0 0 1 .85-.84zm-4.37 19.44h4.52a7.49 7.49 0 0 0 3-.57 6.77 6.77 0 0 0 2.27-1.58 7 7 0 0 0 1.45-2.42 8.78 8.78 0 0 0 .5-3 8.13 8.13 0 0 0-.53-3 7.28 7.28 0 0 0-1.48-2.41 7 7 0 0 0-2.31-1.59 7.53 7.53 0 0 0-3-.58h-4.37z" fill="#0b1726"/></svg>