<svg width="130" height="44" viewBox="0 0 130 44" fill="none" xmlns="http://www.w3.org/2000/svg">
<g clip-path="url(#clip0)">
<path d="M63.0532 6.85564C62.9905 6.97102 62.9046 7.07212 62.8008 7.15253C62.6969 7.23294 62.5776 7.2909 62.4502 7.32275C62.3228 7.35459 62.1902 7.35963 62.0608 7.33753C61.9313 7.31543 61.8079 7.26669 61.6983 7.19438L61.655 7.16681C61.1634 6.85677 60.6475 6.58717 60.1123 6.36067C59.8138 6.23201 59.5039 6.11297 59.1827 6.00356C57.9889 5.57549 56.7239 5.38114 55.4566 5.43112C54.4124 5.48889 53.615 5.72434 53.0645 6.13747C52.4238 6.618 52.1034 7.29285 52.1034 8.16201C52.0864 8.60701 52.213 9.04568 52.4645 9.41322C52.7448 9.77954 53.1037 10.0783 53.5148 10.2876C54.0659 10.5774 54.6465 10.8071 55.2466 10.973C55.9468 11.1787 56.7529 11.3975 57.665 11.6294C58.8536 11.9498 59.9337 12.2925 60.9053 12.6575C61.797 12.9788 62.631 13.4421 63.3749 14.0295C64.0359 14.561 64.5694 15.2339 64.936 15.9989C65.3009 16.7656 65.4839 17.7087 65.4848 18.8282C65.4848 20.1315 65.2388 21.2462 64.7469 22.1722C64.2775 23.0724 63.5945 23.8437 62.7578 24.4186C61.8823 25.0085 60.9059 25.4326 59.8773 25.6699C58.759 25.9361 57.6131 26.0684 56.4637 26.0637C54.6264 26.0626 52.7999 25.7851 51.0452 25.2405C49.6133 24.8074 48.2448 24.1872 46.9751 23.3959C46.7728 23.2695 46.6251 23.0718 46.5614 22.8418C46.4977 22.6118 46.5226 22.3664 46.6312 22.1538L47.8233 19.8287C47.8846 19.7103 47.97 19.606 48.0741 19.5227C48.1781 19.4394 48.2985 19.3788 48.4274 19.3449C48.5564 19.311 48.691 19.3045 48.8225 19.3259C48.9541 19.3472 49.0798 19.396 49.1914 19.4689C49.2728 19.5227 49.3594 19.5766 49.4539 19.633C50.0668 20.0047 50.7027 20.3371 51.3577 20.6282C52.1432 20.9783 52.9576 21.2595 53.7919 21.4685C54.6885 21.6976 55.6104 21.8127 56.5359 21.8112C59.1425 21.8112 60.4458 20.9766 60.4458 19.3074C60.4591 18.8228 60.301 18.349 59.9994 17.9696C59.6494 17.5634 59.2171 17.2362 58.7311 17.0098C58.0913 16.7006 57.4258 16.448 56.742 16.2549C55.963 16.0264 55.0938 15.7752 54.1345 15.5013C53.0991 15.2247 52.0851 14.8737 51.1004 14.4509C50.3193 14.1215 49.5956 13.6699 48.9563 13.113C48.401 12.6214 47.962 12.0124 47.671 11.3301C47.3673 10.5609 47.2213 9.73844 47.2417 8.91168C47.2205 7.77702 47.4547 6.65211 47.927 5.62018C48.3666 4.6828 49.0184 3.86065 49.8308 3.21885C50.6755 2.56206 51.6349 2.0679 52.6601 1.7615C53.7832 1.4232 54.9507 1.25547 56.1236 1.2639C57.7347 1.24726 59.3356 1.52031 60.8501 2.07004C61.8912 2.45148 62.896 2.92514 63.8528 3.48537C64.0635 3.61113 64.2171 3.81381 64.2813 4.05066C64.3455 4.28751 64.3152 4.54003 64.1968 4.75497L63.0532 6.85564Z" fill="#041F60"/>
<path d="M91.0041 8.09238H94.36C94.4353 8.09243 94.5095 8.11108 94.576 8.14667C94.6424 8.18227 94.6991 8.2337 94.7409 8.29642C94.7827 8.35914 94.8084 8.4312 94.8157 8.50623C94.823 8.58125 94.8117 8.65692 94.7827 8.72652L87.6549 25.7827C87.6199 25.866 87.5611 25.9371 87.4859 25.9871C87.4107 26.0371 87.3224 26.0637 87.2321 26.0637H84.0811C83.9889 26.0637 83.8988 26.0358 83.8227 25.9838C83.7466 25.9318 83.6879 25.8581 83.6544 25.7722L81.106 19.2706C81.0727 19.1847 81.0142 19.1108 80.9382 19.0587C80.8621 19.0066 80.7721 18.9788 80.6799 18.9788C80.5878 18.9788 80.4978 19.0066 80.4217 19.0587C80.3457 19.1108 80.2872 19.1847 80.2539 19.2706L77.7383 25.7696C77.705 25.8557 77.6464 25.9297 77.5703 25.982C77.4941 26.0342 77.404 26.0623 77.3116 26.0624H74.1606C74.0703 26.0622 73.9821 26.0353 73.9071 25.9851C73.8321 25.9349 73.7737 25.8635 73.7392 25.7801L66.6494 8.72521C66.6204 8.65561 66.6091 8.57994 66.6164 8.50492C66.6237 8.42989 66.6494 8.35783 66.6912 8.29511C66.733 8.23239 66.7897 8.18095 66.8561 8.14536C66.9226 8.10977 66.9968 8.09112 67.0721 8.09106H70.3951C70.4872 8.09117 70.577 8.11905 70.6529 8.17105C70.7288 8.22306 70.7872 8.29677 70.8205 8.38253L75.614 20.6308C75.6471 20.7172 75.7056 20.7915 75.7818 20.8439C75.8579 20.8963 75.9482 20.9244 76.0407 20.9244C76.1332 20.9244 76.2235 20.8963 76.2997 20.8439C76.3759 20.7915 76.4344 20.7172 76.4674 20.6308L78.1742 16.0815C78.2163 15.9748 78.2163 15.8561 78.1742 15.7494L75.3422 8.75934C75.3141 8.69002 75.3034 8.61483 75.3111 8.54039C75.3187 8.46596 75.3446 8.39455 75.3864 8.33245C75.4281 8.27035 75.4845 8.21945 75.5505 8.18422C75.6165 8.149 75.6902 8.13054 75.765 8.13045H78.4631C78.5585 8.13022 78.6515 8.15984 78.7292 8.21518C78.8069 8.27051 78.8654 8.34877 78.8963 8.43899L80.2526 12.3922C80.2833 12.4826 80.3415 12.5611 80.4191 12.6166C80.4967 12.6722 80.5897 12.7021 80.6852 12.7021C80.7806 12.7021 80.8737 12.6722 80.9513 12.6166C81.0289 12.5611 81.0871 12.4826 81.1178 12.3922L82.4951 8.43243C82.5263 8.34245 82.5848 8.26447 82.6625 8.20939C82.7401 8.15431 82.8331 8.12487 82.9283 8.1252H85.6303C85.7051 8.12516 85.7787 8.14347 85.8448 8.17853C85.9108 8.21359 85.9673 8.26433 86.0091 8.32629C86.051 8.38825 86.077 8.45954 86.0849 8.5339C86.0928 8.60826 86.0823 8.68342 86.0544 8.75278L83.2513 15.7454C83.2106 15.8515 83.2106 15.9689 83.2513 16.075L84.9332 20.6151C84.9652 20.7022 85.023 20.7774 85.0988 20.8309C85.1747 20.8844 85.265 20.9134 85.3578 20.9143C85.4506 20.9152 85.5414 20.8877 85.6183 20.8357C85.6951 20.7836 85.7543 20.7094 85.7879 20.6229L90.5866 8.38122C90.6198 8.29719 90.6772 8.22489 90.7516 8.17347C90.8259 8.12206 90.9138 8.09384 91.0041 8.09238Z" fill="#041F60"/>
<path d="M97.561 3.30789C97.561 2.70305 97.8013 2.12299 98.229 1.6953C98.6567 1.26762 99.2367 1.02734 99.8416 1.02734H99.877C100.482 1.02734 101.062 1.26762 101.49 1.6953C101.917 2.12299 102.158 2.70305 102.158 3.30789C102.158 3.91285 101.917 4.49305 101.49 4.92095C101.062 5.34884 100.482 5.58941 99.877 5.58976H99.8416C99.2366 5.58941 98.6566 5.34884 98.2289 4.92095C97.8013 4.49305 97.561 3.91285 97.561 3.30789ZM97.561 25.411V8.74603C97.561 8.57192 97.6302 8.40495 97.7533 8.28184C97.8764 8.15873 98.0434 8.08957 98.2175 8.08957H101.506C101.68 8.08957 101.847 8.15873 101.971 8.28184C102.094 8.40495 102.163 8.57192 102.163 8.74603V25.411C102.163 25.5851 102.094 25.7521 101.971 25.8752C101.847 25.9983 101.68 26.0674 101.506 26.0674H98.2149C98.0412 26.0667 97.8749 25.9973 97.7524 25.8742C97.6298 25.7512 97.561 25.5846 97.561 25.411Z" fill="#041F60"/>
<path d="M107.791 25.4886V13.1327C107.791 13.0563 107.776 12.9807 107.747 12.9102C107.718 12.8396 107.676 12.7755 107.622 12.7215C107.568 12.6674 107.504 12.6246 107.433 12.5953C107.363 12.5661 107.287 12.551 107.211 12.551H106.006C105.852 12.551 105.704 12.4899 105.595 12.3811C105.486 12.2722 105.425 12.1246 105.425 11.9707V9.63371C105.425 9.4798 105.486 9.3322 105.595 9.22336C105.704 9.11454 105.852 9.0534 106.006 9.0534H107.211C107.287 9.0534 107.363 9.03834 107.433 9.0091C107.504 8.97985 107.568 8.93699 107.622 8.88296C107.676 8.82894 107.718 8.76481 107.747 8.69425C107.776 8.62369 107.791 8.54809 107.791 8.47177V7.95579C107.791 5.71506 108.329 3.94306 109.403 2.63976C110.478 1.33646 111.941 0.684814 113.793 0.684814C115.162 0.696311 116.514 0.988552 117.765 1.54347C117.892 1.59976 117.995 1.69956 118.054 1.82479C118.113 1.95002 118.126 2.09241 118.09 2.22619L117.467 4.55532C117.447 4.63246 117.411 4.70449 117.361 4.76685C117.311 4.82921 117.249 4.88053 117.178 4.91756C117.107 4.95459 117.029 4.97652 116.95 4.98197C116.87 4.98741 116.79 4.97625 116.715 4.94919C116.505 4.87067 116.291 4.80275 116.074 4.74569C115.656 4.62692 115.223 4.56336 114.788 4.55663C113.188 4.55663 112.388 5.63104 112.388 7.77986V8.46783C112.388 8.54415 112.402 8.61975 112.432 8.69031C112.461 8.76087 112.503 8.825 112.557 8.87902C112.611 8.93305 112.675 8.97591 112.746 9.00516C112.816 9.0344 112.892 9.04946 112.968 9.04946H116.197C116.35 9.04946 116.498 9.1106 116.607 9.21943C116.716 9.32826 116.777 9.47586 116.777 9.62977V11.9655C116.777 12.1194 116.716 12.267 116.607 12.3758C116.498 12.4846 116.35 12.5458 116.197 12.5458H112.968C112.892 12.5458 112.816 12.5608 112.746 12.5901C112.675 12.6193 112.611 12.6622 112.557 12.7162C112.503 12.7702 112.461 12.8344 112.432 12.9049C112.402 12.9755 112.388 13.0511 112.388 13.1274V25.4886C112.388 25.6428 112.326 25.7908 112.217 25.8999C112.108 26.0089 111.96 26.0702 111.806 26.0702H108.373C108.219 26.0702 108.071 26.0089 107.962 25.8999C107.852 25.7908 107.791 25.6428 107.791 25.4886Z" fill="#041F60"/>
<path d="M130.421 25.62C130.454 25.7512 130.439 25.8902 130.377 26.011C130.316 26.1318 130.213 26.2261 130.087 26.2764C129.562 26.4874 128.958 26.6979 128.277 26.9079C127.365 27.1853 126.417 27.3243 125.464 27.3202C124.856 27.3245 124.249 27.2436 123.663 27.0799C123.122 26.9301 122.62 26.6669 122.189 26.3079C121.751 25.9337 121.405 25.4644 121.176 24.9359C120.909 24.2899 120.78 23.5947 120.799 22.8956V13.1262C120.799 12.9785 120.741 12.8369 120.636 12.7325C120.532 12.6281 120.39 12.5695 120.243 12.5695H118.99C118.917 12.5695 118.845 12.5551 118.777 12.527C118.709 12.4989 118.648 12.4578 118.596 12.406C118.544 12.3542 118.503 12.2926 118.476 12.2249C118.448 12.1572 118.433 12.0847 118.434 12.0115V9.59441C118.433 9.5212 118.448 9.44867 118.476 9.38098C118.503 9.31328 118.544 9.25176 118.596 9.19993C118.648 9.1481 118.709 9.10697 118.777 9.07892C118.845 9.05086 118.917 9.03642 118.99 9.03642H120.243C120.39 9.03642 120.532 8.97777 120.636 8.87337C120.741 8.76897 120.799 8.62738 120.799 8.47974V3.76371C120.799 3.61607 120.858 3.47448 120.963 3.37008C121.067 3.26568 121.209 3.20703 121.356 3.20703H124.838C124.986 3.20703 125.127 3.26568 125.232 3.37008C125.336 3.47448 125.395 3.61607 125.395 3.76371V8.47974C125.395 8.55295 125.409 8.62545 125.437 8.69307C125.465 8.7607 125.506 8.82212 125.558 8.87383C125.61 8.92554 125.672 8.96652 125.739 8.99442C125.807 9.02232 125.879 9.03659 125.953 9.03642H128.61C128.758 9.03642 128.9 9.0952 129.005 9.19985C129.109 9.30449 129.168 9.44642 129.168 9.59441V12.0115C129.168 12.1595 129.109 12.3014 129.005 12.4061C128.9 12.5107 128.758 12.5695 128.61 12.5695H125.953C125.879 12.5693 125.807 12.5836 125.739 12.6115C125.672 12.6394 125.61 12.6804 125.558 12.7321C125.506 12.7838 125.465 12.8452 125.437 12.9128C125.409 12.9805 125.395 13.053 125.395 13.1262V21.349C125.395 21.988 125.561 22.4392 125.892 22.7026C126.24 22.9713 126.67 23.1105 127.109 23.0965C127.588 23.0989 128.063 23.0199 128.516 22.8628C128.705 22.7972 128.877 22.7315 129.041 22.6777C129.114 22.6502 129.192 22.6384 129.27 22.6431C129.348 22.6479 129.425 22.669 129.494 22.7052C129.563 22.7414 129.624 22.7917 129.673 22.8531C129.721 22.9144 129.757 22.9853 129.776 23.0611L130.421 25.62Z" fill="#041F60"/>
<path d="M14.6854 15.0535C14.6854 10.4215 18.5362 6.6285 23.2391 6.63112C27.942 6.63375 31.7954 10.4268 31.7915 15.0562C31.7863 16.3127 31.4985 17.552 30.9494 18.6822C30.4003 19.8124 29.604 20.8046 28.6194 21.5853C29.6553 21.9083 30.682 22.1696 31.6785 22.3797C33.4953 20.355 34.4997 17.7304 34.4987 15.0102C34.4987 8.94318 29.4072 3.9475 23.2391 3.96195C17.0171 3.9777 11.9584 8.95106 11.9702 15.0417C11.9721 16.405 12.2286 17.756 12.7265 19.0251C13.677 18.9135 14.6565 18.8387 15.6057 18.8229C15.0032 17.6577 14.6877 16.3654 14.6854 15.0535Z" fill="#041F60"/>
<path d="M22.1294 3.30011H24.4375L23.9596 2.91411C24.0843 2.81302 24.1684 2.74737 24.2616 2.67254C23.8244 2.38501 23.7614 1.97537 23.8913 1.51848C23.9767 1.22175 24.087 0.930286 24.1986 0.641443C24.4507 -0.00582916 24.2931 -0.604522 23.7916 -0.861855C23.5872 -0.970432 23.3555 -1.01662 23.1251 -0.994677C22.8947 -0.972737 22.6759 -0.88364 22.4957 -0.73844C22.174 -0.466665 22.0743 0.0309323 22.2449 0.536408C22.3565 0.865952 22.4905 1.19287 22.585 1.5211C22.7163 1.97537 22.6519 2.38763 22.2174 2.67122L22.5167 2.93381L22.1084 3.23053C22.1163 3.25285 22.1228 3.27648 22.1294 3.30011Z" fill="#041F60"/>
<path d="M32.3308 6.98949L32.7142 7.02231C32.5999 6.41968 32.9518 6.09145 33.4231 5.84068C33.6424 5.72646 33.8761 5.63849 34.1032 5.53871C34.6284 5.30763 34.954 4.88225 34.9291 4.44636C34.9132 4.20791 34.8254 3.97988 34.6772 3.79236C34.5291 3.60484 34.3276 3.46665 34.0993 3.39602C33.6503 3.26472 33.2262 3.40652 32.9413 3.85423C32.7365 4.17721 32.6104 4.54876 32.4279 4.88619C32.185 5.33783 31.8621 5.6805 31.2752 5.56497V5.94965L31.0625 5.9234L32.3754 7.34398C32.3662 7.27702 32.3531 7.14967 32.3308 6.98949Z" fill="#041F60"/>
<path d="M30.952 5.81055L30.8325 5.90639L31.0675 5.93528L30.952 5.81055Z" fill="#041F60"/>
<path d="M15.5634 5.84448L15.4951 5.92063L15.6264 5.9075L15.5634 5.84448Z" fill="#041F60"/>
<path d="M12.0435 5.3444C12.377 5.55447 12.7603 5.68576 13.1083 5.87613C13.5468 6.1164 13.8711 6.44069 13.7555 7.0105H14.1337C14.1245 7.1628 14.1179 7.28753 14.1074 7.45821C14.5958 6.9186 15.0461 6.41837 15.4952 5.92077L15.1735 5.95359C15.184 5.80786 15.1919 5.70414 15.2011 5.57547C14.6759 5.61092 14.4212 5.50326 14.1652 5.08969C14.0029 4.81065 13.8612 4.52016 13.7411 4.22053C13.4956 3.65204 13.0636 3.32118 12.5988 3.36319C12.3633 3.38672 12.1405 3.48114 11.9597 3.63398C11.779 3.78681 11.6489 3.99088 11.5866 4.21922C11.4645 4.66299 11.605 5.06606 12.0435 5.3444Z" fill="#041F60"/>
<path d="M35.5988 16.1144C35.8955 15.6641 36.2815 15.5892 36.7122 15.6969C37.0341 15.7885 37.351 15.8971 37.6614 16.0225C38.2903 16.2641 38.8837 16.1131 39.1411 15.6286C39.2596 15.4287 39.3139 15.1973 39.2968 14.9656C39.2797 14.7339 39.1919 14.513 39.0452 14.3328C38.7958 13.9927 38.2903 13.8864 37.7822 14.0531C37.4645 14.1568 37.1559 14.2921 36.8356 14.3866C36.3603 14.5271 35.9165 14.4916 35.6159 14.0295L35.3966 14.3052L35.1445 14.1503V16.0028C35.3795 15.6943 35.4938 15.8531 35.5988 16.1144Z" fill="#041F60"/>
<path d="M8.72063 16.0461C9.04887 15.9345 9.3771 15.8006 9.70402 15.7073C10.1583 15.576 10.5705 15.6404 10.8554 16.0789L11.0734 15.8019L11.3242 15.9555V14.0938C11.0865 14.464 10.9907 14.2395 10.8712 14.0045C10.5719 14.4588 10.1727 14.5296 9.73159 14.4089C9.41988 14.3191 9.11311 14.2131 8.81254 14.0911C8.16264 13.8404 7.57314 13.9992 7.31187 14.5047C7.20465 14.7096 7.15994 14.9416 7.18328 15.1717C7.20662 15.4018 7.29698 15.62 7.44316 15.7992C7.71494 16.117 8.2191 16.2154 8.72063 16.0461Z" fill="#041F60"/>
<path d="M20.491 19.1614C20.8954 18.9733 21.2109 18.6352 21.3707 18.2188C21.4245 18.0638 21.3483 17.8433 21.6424 17.9194C21.8078 17.9418 21.9705 17.9805 22.1282 18.035C22.2643 18.1251 22.3887 18.2318 22.4985 18.3527C22.3676 18.5307 22.2735 18.7331 22.2219 18.948C22.1703 19.1628 22.1621 19.3858 22.1978 19.6039C22.7794 19.7575 23.4149 19.9387 24.1278 20.1553C24.33 19.5369 24.4219 18.9264 23.9584 18.3592C24.1094 18.228 24.221 18.1111 24.3457 18.0192C24.5886 17.8419 25.0521 17.8879 25.0941 18.0809C25.1285 18.2786 25.2065 18.4663 25.3223 18.6302C25.4381 18.7941 25.5888 18.9303 25.7637 19.0288C26.1326 19.235 26.5029 19.4411 26.8823 19.6262C27.1449 19.7575 27.2289 19.9282 27.1213 20.1986C27.0911 20.2761 27.0727 20.3575 27.0333 20.4849H27.779C27.7633 20.6818 27.7488 20.8604 27.7331 21.0389C27.7108 21.2713 27.8394 21.3383 27.9957 21.2004C28.4762 20.7698 28.9357 20.3155 29.3926 19.8599C29.4151 19.8257 29.4287 19.7864 29.4322 19.7456C29.4356 19.7047 29.4288 19.6637 29.4123 19.6262C29.3834 19.5776 29.2705 19.5619 29.1931 19.5619C29.0171 19.5619 28.8412 19.5816 28.6521 19.5934V18.8634C27.9852 19.0538 27.9878 19.0525 27.7029 18.4695C27.5716 18.2135 27.4403 17.9588 27.2933 17.7159C27.1042 17.4113 26.8994 17.1474 26.5173 17.0148C25.9751 16.831 25.9475 16.4542 26.3703 15.9973C26.4267 15.9356 26.4792 15.866 26.5462 15.7912C27.0504 16.1601 27.586 16.185 28.1453 16.0052C28.4302 15.9146 28.7217 15.8411 28.9987 15.7308C29.3165 15.5995 29.5239 15.6769 29.6552 15.9934C29.6967 16.0742 29.7428 16.1527 29.7931 16.2284L30.2841 15.6901L30.7817 16.2152C31.0968 16.0616 31.1191 15.8988 31.0443 14.3128C31.0351 14.1132 31.0522 13.9005 30.7673 13.8927L30.2487 14.4599L29.8784 13.8165C29.4438 14.5189 29.4451 14.5163 28.8451 14.3272C28.5497 14.2327 28.2517 14.1408 27.9497 14.0647C27.611 13.9859 27.2814 13.9242 26.9453 14.1382C26.6722 14.3128 26.3611 14.3286 26.214 13.9531C26.1431 13.749 26.1055 13.5349 26.1024 13.3189C26.1024 13.2874 26.3151 13.2677 26.3965 13.2021C26.6981 12.9832 26.979 12.7371 27.2355 12.4668C27.4202 12.2164 27.5737 11.9444 27.6924 11.6568C27.9812 11.0751 27.976 11.0738 28.5852 11.2314C28.6036 11.2314 28.6285 11.2143 28.7007 11.1828C28.6889 10.9885 28.6771 10.7745 28.6613 10.5171L29.4491 10.5565C29.4294 10.4344 29.4491 10.3005 29.39 10.2414C28.9449 9.79241 28.4867 9.35389 28.0246 8.92194C27.9734 8.87468 27.867 8.88781 27.7869 8.87336C27.771 8.95275 27.7596 9.03296 27.7528 9.11363C27.7528 9.28956 27.7528 9.46418 27.7528 9.63092H27.0714C27.2184 10.3202 27.2171 10.3176 26.579 10.6327C26.3558 10.743 26.1353 10.8598 25.9226 10.9911C25.6075 11.188 25.3252 11.385 25.1965 11.7946C25.056 12.2371 24.9497 12.2712 24.5519 12.1622C24.3602 12.0876 24.1885 11.9694 24.0503 11.8169C24.0188 11.7867 24.116 11.6239 24.1501 11.5215C24.2919 11.087 24.3667 10.6524 24.2066 10.2007C24.0897 9.8725 24.0123 9.53114 23.8928 9.20422C23.8009 8.95083 23.8823 8.79853 24.1028 8.67905C24.1895 8.63572 24.2735 8.58846 24.4219 8.50968L23.8797 7.99633L24.4849 7.42652C23.6541 7.26506 22.7991 7.27444 21.972 7.45409L22.6284 7.97926L22.0678 8.50443C22.1235 8.54854 22.1833 8.58722 22.2464 8.61997C22.6271 8.75126 22.6954 8.98365 22.5497 9.34733C22.43 9.66131 22.3326 9.98334 22.2582 10.311C22.1702 10.6603 22.1269 10.9924 22.3225 11.3509C22.5365 11.7369 22.4643 11.922 22.098 12.1018C21.9043 12.1714 21.6979 12.1987 21.4928 12.1819C21.4626 12.1819 21.4521 11.9902 21.3969 11.9128C21.2 11.6436 21.0214 11.3456 20.772 11.1329C20.504 10.9298 20.2121 10.7605 19.9028 10.6287C19.2726 10.315 19.27 10.3202 19.4118 9.62698H18.7015C18.7094 9.45368 18.7225 9.29875 18.7225 9.14383C18.7177 9.05186 18.7076 8.96024 18.6923 8.86943C18.6017 8.89175 18.4848 8.8878 18.4297 8.94426C17.9925 9.34864 17.5592 9.75959 17.1417 10.185C17.0669 10.2611 17.0656 10.4095 17.0222 10.5513H17.8231V11.234C18.5098 11.0659 18.5059 11.0686 18.8091 11.6843C18.9404 11.9404 19.0796 12.1885 19.2175 12.4393C19.3194 12.6343 19.4639 12.8039 19.6402 12.9355C19.8166 13.0671 20.0203 13.1573 20.2363 13.1994C20.3006 13.2139 20.3676 13.3452 20.3833 13.4292C20.4319 13.8086 20.231 14.0725 19.9488 14.2892C19.3382 14.0358 19.2096 13.8415 18.28 14.1198C17.9938 14.2065 17.7037 14.2813 17.4266 14.3903C17.1496 14.4992 16.9737 14.4073 16.8568 14.1513C16.8227 14.0752 16.778 14.0056 16.7045 13.8717L16.1977 14.4192C16.0205 14.2262 15.8564 14.0502 15.6962 13.8769C15.4113 14.0555 15.343 14.5925 15.452 15.8529C15.4638 15.9842 15.5662 16.1155 15.6266 16.2467L16.1794 15.6664L16.6756 16.2796C17.0485 15.5916 17.0472 15.5942 17.6695 15.7898C18.4336 16.0301 19.1978 16.3754 19.9448 15.7754C20.0761 15.9198 20.2074 16.013 20.2586 16.1404C20.3307 16.3441 20.3723 16.5574 20.382 16.7732C20.382 16.8074 20.1811 16.8376 20.0958 16.9045C19.8267 17.1041 19.5247 17.2853 19.3172 17.5387C19.0986 17.8415 18.9129 18.1668 18.7632 18.5089C18.7027 18.6589 18.617 18.7975 18.5098 18.9185C19.1565 18.9768 19.7998 19.0679 20.4372 19.1916C20.4503 19.1864 20.4713 19.1733 20.491 19.1614ZM23.2087 12.6428C24.5138 12.6428 25.66 13.8073 25.6508 15.1098C25.6429 16.3767 24.5296 17.4494 23.2271 17.4454C22.9124 17.4455 22.6008 17.383 22.3103 17.2618C22.0199 17.1405 21.7564 16.9628 21.5351 16.7389C21.3138 16.5151 21.1391 16.2496 21.0212 15.9577C20.9033 15.6659 20.8445 15.3536 20.8481 15.0389C20.8547 13.7377 21.9405 12.6362 23.2087 12.6428Z" fill="#041F60"/>
<path d="M23.227 16.709C24.1867 16.7169 24.8773 16.0341 24.8839 15.0705C24.8905 14.1068 24.2117 13.4017 23.2611 13.3978C23.0437 13.3956 22.828 13.4362 22.6263 13.5173C22.4245 13.5984 22.2408 13.7185 22.0854 13.8706C21.9301 14.0228 21.8063 14.204 21.721 14.4041C21.6358 14.6041 21.5907 14.8189 21.5885 15.0363C21.5862 15.2537 21.6268 15.4695 21.708 15.6712C21.7891 15.8729 21.9092 16.0567 22.0613 16.212C22.2135 16.3673 22.3947 16.4912 22.5947 16.5764C22.7947 16.6617 23.0096 16.7067 23.227 16.709ZM23.2428 14.1304C23.4242 14.132 23.6011 14.1872 23.7512 14.2891C23.9013 14.391 24.0179 14.5351 24.0862 14.7032C24.1546 14.8712 24.1716 15.0558 24.1353 15.2335C24.0989 15.4113 24.0108 15.5743 23.882 15.702C23.7531 15.8298 23.5894 15.9165 23.4113 15.9514C23.2332 15.9862 23.0488 15.9675 22.8814 15.8978C22.7139 15.828 22.5708 15.7102 22.4702 15.5592C22.3695 15.4083 22.3158 15.2309 22.3158 15.0495C22.3133 14.9274 22.3356 14.8061 22.3814 14.6929C22.4271 14.5797 22.4955 14.4771 22.5822 14.3911C22.6688 14.3051 22.7721 14.2377 22.8857 14.1929C22.9992 14.1481 23.1207 14.1268 23.2428 14.1304Z" fill="#041F60"/>
<path d="M7.47705 20.938C7.47705 20.938 12.7051 20.124 18.7209 21.9227C24.7368 23.7214 28.8541 25.1814 33.3666 24.7061C37.8791 24.2309 38.9886 23.451 38.9886 23.451C38.9886 23.451 33.0436 23.858 26.9202 21.9569C20.7967 20.0558 19.3328 19.7118 15.9992 19.6829C12.6657 19.654 8.72958 20.4628 7.47705 20.938Z" fill="#3F51B6"/>
<path d="M0 23.7214C0 23.7214 6.77863 22.6067 14.5735 25.0684C22.3683 27.5302 27.7132 29.5258 33.5636 28.8759C39.414 28.226 40.8648 27.1573 40.8648 27.1573C40.8648 27.1573 33.1579 27.714 25.2187 25.1144C17.2794 22.5148 15.3717 22.05 11.0575 22.0041C6.74318 21.9581 1.6254 23.0715 0 23.7214Z" fill="#3F51B6"/>
<path d="M6.76654 38.3358C6.68077 39.3016 6.34546 40.056 5.76063 40.599C5.17579 41.1378 4.39796 41.4073 3.42714 41.4073C2.74873 41.4073 2.15024 41.2373 1.63169 40.8974C1.11704 40.5534 0.719347 40.0663 0.438627 39.4363C0.157906 38.8062 0.0116967 38.0746 0 37.2415V36.3959C0 35.542 0.14231 34.7896 0.42693 34.1389C0.71155 33.4881 1.11898 32.9865 1.64924 32.6342C2.18339 32.2819 2.79941 32.1057 3.49732 32.1057C4.43695 32.1057 5.19334 32.3772 5.76648 32.9202C6.33962 33.4632 6.67297 34.2301 6.76654 35.2207H5.29276C5.22258 34.5699 5.04323 34.1016 4.75471 33.8155C4.47009 33.5254 4.05096 33.3803 3.49732 33.3803C2.854 33.3803 2.35884 33.6311 2.01183 34.1326C1.66873 34.6301 1.49328 35.3617 1.48548 36.3275V37.1295C1.48548 38.1078 1.64924 38.8539 1.97674 39.3679C2.30815 39.8819 2.79161 40.1389 3.42714 40.1389C4.00807 40.1389 4.44475 40 4.73717 39.7223C5.02958 39.4446 5.21478 38.9824 5.29276 38.3358H6.76654Z" fill="#00A651"/>
<path d="M16.3143 37.857C16.3143 37.1979 16.4371 36.6052 16.6828 36.0788C16.9284 35.5482 17.2735 35.142 17.7179 34.8601C18.1624 34.5741 18.6732 34.4311 19.2502 34.4311C20.1041 34.4311 20.7961 34.7233 21.3264 35.3078C21.8605 35.8922 22.149 36.6674 22.1919 37.6332L22.1978 37.9876C22.1978 38.6508 22.0769 39.2435 21.8352 39.7658C21.5973 40.2881 21.2542 40.6922 20.8059 40.9782C20.3614 41.2642 19.8467 41.4073 19.2619 41.4073C18.3691 41.4073 17.6536 41.0922 17.1156 40.4622C16.5814 39.828 16.3143 38.9845 16.3143 37.9316V37.857ZM17.7355 37.9876C17.7355 38.6798 17.87 39.2228 18.139 39.6166C18.408 40.0062 18.7823 40.201 19.2619 40.201C19.7415 40.201 20.1138 40.0021 20.3789 39.6041C20.648 39.2062 20.7825 38.6238 20.7825 37.857C20.7825 37.1772 20.6441 36.6383 20.3672 36.2404C20.0943 35.8425 19.722 35.6435 19.2502 35.6435C18.7862 35.6435 18.4178 35.8404 18.1449 36.2342C17.8719 36.6238 17.7355 37.2083 17.7355 37.9876Z" fill="#00A651"/>
<path d="M33.3597 34.5554L33.4006 35.258C33.8451 34.7067 34.4534 34.4311 35.2253 34.4311C36.0714 34.4311 36.6504 34.7751 36.9623 35.4632C37.4224 34.7751 38.0696 34.4311 38.9039 34.4311C39.6019 34.4311 40.1204 34.6363 40.4596 35.0466C40.8027 35.457 40.9782 36.0622 40.986 36.8622V41.2829H39.5648V36.9057C39.5648 36.4788 39.4771 36.1658 39.3016 35.9668C39.1262 35.7679 38.8357 35.6684 38.4302 35.6684C38.1066 35.6684 37.8415 35.7617 37.6349 35.9482C37.4321 36.1306 37.2898 36.371 37.2079 36.6694L37.2138 41.2829H35.7926V36.856C35.7731 36.0642 35.393 35.6684 34.6522 35.6684C34.083 35.6684 33.6794 35.915 33.4416 36.4083V41.2829H32.0204V34.5554H33.3597Z" fill="#00A651"/>
<path d="M52.4052 34.5554L52.4462 35.258C52.8906 34.7067 53.4989 34.4311 54.2709 34.4311C55.1169 34.4311 55.6959 34.7751 56.0078 35.4632C56.4679 34.7751 57.1151 34.4311 57.9495 34.4311C58.6474 34.4311 59.1659 34.6363 59.5051 35.0466C59.8482 35.457 60.0237 36.0622 60.0315 36.8622V41.2829H58.6103V36.9057C58.6103 36.4788 58.5226 36.1658 58.3472 35.9668C58.1717 35.7679 57.8812 35.6684 57.4757 35.6684C57.1521 35.6684 56.887 35.7617 56.6804 35.9482C56.4776 36.1306 56.3353 36.371 56.2534 36.6694L56.2593 41.2829H54.8381V36.856C54.8186 36.0642 54.4385 35.6684 53.6977 35.6684C53.1285 35.6684 52.7249 35.915 52.4871 36.4083V41.2829H51.066V34.5554H52.4052Z" fill="#00A651"/>
<path d="M73.948 40.6238C73.5308 41.1461 72.9382 41.4073 72.1701 41.4073C71.4839 41.4073 70.9634 41.1938 70.6086 40.7668C70.2577 40.3399 70.0822 39.7223 70.0822 38.914V34.5554H71.5034V38.8953C71.5034 39.7492 71.8367 40.1762 72.5034 40.1762C73.1935 40.1762 73.6595 39.913 73.9012 39.3865V34.5554H75.3223V41.2829H73.9831L73.948 40.6238Z" fill="#00A651"/>
<path d="M86.7124 34.5554L86.7533 35.3326C87.2212 34.7316 87.8353 34.4311 88.5955 34.4311C89.9134 34.4311 90.584 35.2332 90.6074 36.8373V41.2829H89.1862V36.9244C89.1862 36.4974 89.0985 36.1824 88.923 35.9793C88.7515 35.772 88.4688 35.6684 88.075 35.6684C87.5019 35.6684 87.075 35.944 86.7942 36.4953V41.2829H85.3731V34.5554H86.7124Z" fill="#00A651"/>
<path d="M102.196 41.2829H100.775V34.5554H102.196V41.2829ZM100.687 32.8083C100.687 32.5762 100.756 32.3834 100.892 32.2301C101.032 32.0767 101.231 32 101.489 32C101.746 32 101.945 32.0767 102.085 32.2301C102.225 32.3834 102.296 32.5762 102.296 32.8083C102.296 33.0363 102.225 33.2269 102.085 33.3803C101.945 33.5295 101.746 33.6041 101.489 33.6041C101.231 33.6041 101.032 33.5295 100.892 33.3803C100.756 33.2269 100.687 33.0363 100.687 32.8083Z" fill="#00A651"/>
<path d="M114.154 32.9202V34.5554H115.271V35.6746H114.154V39.4301C114.154 39.687 114.2 39.8736 114.294 39.9896C114.391 40.1016 114.563 40.1575 114.809 40.1575C114.972 40.1575 115.138 40.1368 115.306 40.0953V41.2642C114.982 41.3596 114.67 41.4073 114.37 41.4073C113.278 41.4073 112.732 40.7668 112.732 39.486V35.6746H111.691V34.5554H112.732V32.9202H114.154Z" fill="#00A651"/>
<path d="M127.199 39.1192L128.485 34.5554H130L127.485 42.3026C127.099 43.4342 126.444 44 125.52 44C125.314 44 125.085 43.9627 124.836 43.8881V42.7192L125.105 42.7378C125.464 42.7378 125.733 42.6674 125.912 42.5264C126.095 42.3896 126.24 42.1575 126.345 41.8301L126.549 41.2518L124.327 34.5554H125.859L127.199 39.1192Z" fill="#00A651"/>
</g>
<defs>
<clipPath id="clip0">
<rect width="130" height="44" fill="white"/>
</clipPath>
</defs>
</svg>
