<svg id="Layer_1" data-name="Layer 1" xmlns="http://www.w3.org/2000/svg" viewBox="0 0 511 511"><defs><style>.cls-1{fill:#041f60;}.cls-2{fill:#3f51b6;}</style></defs><title>swift-512x512</title><path class="cls-1" d="M183.66,271.8c0-57.93,48.17-105.36,107-105.33s107,47.47,107,105.36c0,32.85-15.54,62.3-39.66,81.66,12.94,4,25.78,7.31,38.25,9.94a137.9,137.9,0,0,0,35.27-92.16c0-75.89-63.68-138.37-140.83-138.18-77.8.19-141.08,62.41-140.93,138.57a137.29,137.29,0,0,0,9.45,49.82c11.89-1.39,24.14-2.33,36-2.53A102.92,102.92,0,0,1,183.66,271.8Z"/><path class="cls-1" d="M276.77,124.81h28.86l-6-4.84,3.78-3c-5.46-3.61-6.26-8.73-4.63-14.44,1.06-3.72,2.44-7.36,3.84-11,3.16-8.1,1.18-15.59-5.09-18.8a14.8,14.8,0,0,0-16.21,1.54c-4,3.39-5.27,9.61-3.13,15.94,1.39,4.12,3.08,8.14,4.25,12.32,1.61,5.68.84,10.84-4.6,14.38l3.75,3.27-5.1,3.71C276.59,124.22,276.68,124.52,276.77,124.81Z"/><path class="cls-1" d="M404.42,171l4.79.41c-1.43-7.54,3-11.64,8.86-14.7,2.75-1.43,5.67-2.52,8.52-3.77,6.61-2.89,10.64-8.23,10.31-13.66a14.69,14.69,0,0,0-10.37-13.07c-5.61-1.67-10.92.13-14.48,5.73-2.55,4-4.14,8.68-6.42,12.91-3,5.64-7.07,9.93-14.41,8.48v4.82l-2.66-.33,16.35,17.76C404.8,174.54,404.63,173,404.42,171Z"/><path class="cls-1" d="M387.11,156.2l-1.49,1.21,2.94.36C388.07,157.25,387.6,156.73,387.11,156.2Z"/><path class="cls-1" d="M194.64,156.63l-.86,1,1.65-.17Z"/><path class="cls-1" d="M150.62,150.37c4.17,2.63,9,4.27,13.31,6.65,5.49,3,9.55,7.07,8.09,14.19h4.74c-.11,1.91-.2,3.47-.32,5.6l17.34-19.22-4,.4c.13-1.82.23-3.12.34-4.72-6.5.45-9.75-.9-13-6.08a83.31,83.31,0,0,1-5.29-10.87c-3.08-7.11-8.48-11.25-14.3-10.73a14.67,14.67,0,0,0-12.74,10.74C143.37,141.86,145.13,146.9,150.62,150.37Z"/><path class="cls-1" d="M445.22,285.08c3.72-5.63,8.55-6.64,13.93-5.22A117.85,117.85,0,0,1,471,283.93c7.86,3,15.28,1.13,18.5-4.86,3-5.65,2.55-11.13-1.19-16.21-3.13-4.26-9.44-5.58-15.8-3.51-4,1.31-7.83,3-11.84,4.18-5.95,1.76-11.43,1.31-15.26-4.47l-2.74,3.46-3.15-1.95v23.17C442.48,279.82,443.91,281.81,445.22,285.08Z"/><path class="cls-1" d="M109.06,284.22c4.11-1.39,8.13-3.07,12.3-4.24,5.68-1.61,10.84-.84,14.4,4.66l2.72-3.48c1.17.72,2.13,1.32,3.14,1.93V259.8c-3,4.64-4.18,1.82-5.66-1.12-3.74,5.69-8.73,6.55-14.27,5.06a117.61,117.61,0,0,1-11.41-4c-8.12-3.14-15.5-1.15-18.75,5.18a14.81,14.81,0,0,0,1.57,16.19C96.48,285.1,102.78,286.34,109.06,284.22Z"/><path class="cls-1" d="M256.28,323.19c5-2.67,9.09-6.34,11-11.79.68-1.94-.28-4.7,3.4-3.75,2,.52,4.25.56,6.07,1.45s3,2.51,4.64,4a20.74,20.74,0,0,0-3.76,15.66c7.27,1.91,15.21,4.18,24.14,6.88,2.52-7.73,3.67-15.37-2.13-22.46,1.89-1.67,3.27-3.09,4.86-4.25,3-2.21,8.83-1.69,9.35.76a16.93,16.93,0,0,0,8.38,11.87c4.61,2.58,9.24,5.15,14,7.47,3.27,1.6,4.34,3.78,3,7.16-.38,1-.62,2-1.1,3.58h9.32c-.2,2.46-.37,4.69-.58,6.92-.27,2.91,1.34,3.75,3.25,2,6-5.39,11.74-11.08,17.46-16.77a3.05,3.05,0,0,0,.25-2.92c-.36-.61-1.78-.8-2.74-.8-2.2,0-4.4.24-6.76.39v-9.12c-8.36,2.37-8.31,2.35-11.88-4.89-1.58-3.21-3.25-6.39-5.13-9.42-2.36-3.82-4.84-7.11-9.7-8.76-6.77-2.3-7.12-7-1.85-12.74.71-.77,1.37-1.59,2.21-2.58,6.3,4.62,13,4.9,20,2.67,3.56-1.13,7.21-2,10.66-3.42,4-1.6,6.59-.67,8.18,3.3a28.24,28.24,0,0,0,1.73,2.93c2.15-2.35,4-4.33,6.13-6.73l6.24,6.58c3.94-1.93,4.21-4,3.32-23.8-.11-2.5.1-5.16-3.45-5.26l-6.47,7-4.62-8.05c-5.44,8.79-5.43,8.75-12.92,6.39-3.71-1.18-7.43-2.34-11.21-3.23-4.23-1-8.36-1.76-12.56.92-3.42,2.18-7.31,2.38-9.15-2.31a25.52,25.52,0,0,1-1.39-7.93c0-.41,2.65-.65,3.68-1.47,3.63-2.91,7.49-5.7,10.49-9.19,2.48-2.89,4-6.65,5.71-10.13,3.62-7.28,3.56-7.3,11.17-5.33.23.06.55-.21,1.44-.61-.14-2.43-.3-5.1-.48-8.32l9.79.49c-.26-1.52,0-3.2-.75-3.93-5.57-5.63-11.29-11.11-17.08-16.51-.63-.59-2-.43-3-.61a25.66,25.66,0,0,0-.43,3c-.07,2.19,0,4.39,0,6.46h-8.53c1.85,8.63,1.83,8.59-6.15,12.54a92.5,92.5,0,0,0-8.18,4.48c-3.94,2.47-7.48,5-9.09,10-1.75,5.54-3.08,6-8.06,4.6-2.34-.65-4.43-2.58-6.27-4.32-.39-.37.83-2.41,1.25-3.7,1.77-5.43,2.71-10.86.7-16.51-1.46-4.1-2.42-8.38-3.91-12.46-1.16-3.16-.14-5.08,2.63-6.48,1.07-.54,2.12-1.14,4-2.13l-6.78-6.41,7.57-7.13c-10.78-1.77-20.43-2.15-31.42.35l8.21,6.57-7,6.5a14.22,14.22,0,0,0,2.22,1.43c4.77,1.6,5.63,4.56,3.8,9.1a92.47,92.47,0,0,0-3.64,12.05c-1.1,4.37-1.7,8.53.8,13,2.69,4.81,1.78,7.14-2.8,9.39-2.18,1.08-5,1-7.58,1-.37,0-.5-2.39-1.2-3.35-2.46-3.38-4.7-7.1-7.81-9.77s-7.11-4.43-10.86-6.3c-7.89-3.93-7.93-3.85-6.15-12.52h-8.88c.1-2.17.26-4.11.26-6a30.92,30.92,0,0,0-.38-3.44c-1.13.3-2.59.24-3.35.94-5.47,5.06-10.88,10.21-16.11,15.52-.94,1-.95,2.81-1.49,4.58h10v8.54c8.59-2.09,8.54-2.07,12.33,5.64,1.58,3.2,3.39,6.3,5.12,9.43A18.29,18.29,0,0,0,253,248.65c.81.18,1.71,1.83,1.84,2.88.61,4.75-1.91,8-5.44,10.76-7.62-3.18-9.24-5.61-20.86-2.12-3.58,1.08-7.21,2-10.68,3.38s-5.65.2-7.12-3c-.43-.94-1-1.82-1.9-3.49l-6.35,6.84-6.27-6.78c-3.56,2.24-4.42,8.95-3,24.72.14,1.7,1.42,3.3,2.18,5l6.91-7.25,6.22,7.67c4.65-8.61,4.64-8.58,12.42-6.13,9.56,3,19.12,7.32,28.46-.18,1.6,1.8,3.3,3,3.92,4.57a27.15,27.15,0,0,1,1.55,7.91c0,.43-2.51.8-3.57,1.59-3.38,2.51-7.16,4.76-9.76,7.94-2.9,3.56-4.81,8-6.92,12.13-1.39,2.73-2.2,4.31-3.17,5.12a238.47,238.47,0,0,1,24.11,3.42Zm34-81.54c16.33.09,30.66,14.57,30.55,30.86-.11,15.84-14,29.26-30.32,29.21a29.76,29.76,0,0,1-29.76-30.09C260.82,255.36,274.4,241.57,290.26,241.65Z"/><path class="cls-1" d="M290.48,292.51c12,.1,20.65-8.44,20.73-20.49s-8.41-20.87-20.29-20.92a20.71,20.71,0,1,0-.44,41.41Zm.21-32.24a11.52,11.52,0,1,1-11.59,11.45A11.25,11.25,0,0,1,290.69,260.27Z"/><path class="cls-2" d="M93.5,345.41s65.39-10.19,140.63,12.31,126.74,40.76,183.17,34.82,70.31-15.71,70.31-15.71-74.34,5.09-150.92-18.69-94.95-28-136.6-28.44S109.18,339.46,93.5,345.41Z"/><path class="cls-2" d="M0,380.22s84.78-13.94,182.33,16.84,164.34,55.74,237.5,47.61S511,423.19,511,423.19s-96.39,7-195.69-25.55-123.1-38.33-177.11-38.91S20.32,372.09,0,380.22Z"/></svg>