<svg id="Layer_1" data-name="Layer 1" xmlns="http://www.w3.org/2000/svg" viewBox="0 0 1279 639"><defs><style>.cls-1{fill:#041f60;}.cls-2{fill:#3f51b6;}</style></defs><title>swift-LOGO-1280X640</title><path class="cls-1" d="M623,265.08a7.22,7.22,0,0,1-10.32,2.58l-.33-.21a81.74,81.74,0,0,0-11.75-6.14q-3.41-1.47-7.08-2.72a75.29,75.29,0,0,0-28.38-4.36q-11.93.66-18.22,5.38-7.32,5.49-7.32,15.42a15.81,15.81,0,0,0,2.75,9.53,23.5,23.5,0,0,0,8,6.66,66.27,66.27,0,0,0,13.19,5.22q8,2.35,18.42,5,13.58,3.66,24.68,7.83a67,67,0,0,1,18.81,10.45,43.21,43.21,0,0,1,11.89,15q4.17,8.76,4.18,21.55,0,14.89-5.62,25.47a47.29,47.29,0,0,1-15.15,17.11,65.7,65.7,0,0,1-21.94,9.53,110.31,110.31,0,0,1-26,3,139.52,139.52,0,0,1-41.27-6.27,129.48,129.48,0,0,1-31-14.05,7.26,7.26,0,0,1-2.62-9.46l9.08-17.71a7.26,7.26,0,0,1,10.42-2.74c.62.41,1.28.82,2,1.25a128.93,128.93,0,0,0,14.5,7.58,113,113,0,0,0,18.54,6.4,83.88,83.88,0,0,0,20.9,2.61q29.78,0,29.78-19.07a15.68,15.68,0,0,0-3.4-10.19,28.81,28.81,0,0,0-9.66-7.31,92.74,92.74,0,0,0-15.15-5.75q-8.9-2.61-19.86-5.74a169.4,169.4,0,0,1-23.11-8,60.88,60.88,0,0,1-16.33-10.19,38.1,38.1,0,0,1-9.79-13.58,47,47,0,0,1-3.27-18.42,57.66,57.66,0,0,1,5.22-25.07,50.79,50.79,0,0,1,14.5-18.29,65.81,65.81,0,0,1,21.55-11.1,89.24,89.24,0,0,1,26.38-3.79,102.41,102.41,0,0,1,36,6.14,141.82,141.82,0,0,1,22.87,10.78,7.21,7.21,0,0,1,2.62,9.67Z"/><path class="cls-1" d="M835.89,274.5h25.56a3.49,3.49,0,0,1,3.22,4.83L810.38,409.24a3.49,3.49,0,0,1-3.22,2.14h-24a3.49,3.49,0,0,1-3.25-2.22L760.5,359.64a3.48,3.48,0,0,0-6.49,0l-19.16,49.5a3.49,3.49,0,0,1-3.25,2.23h-24a3.48,3.48,0,0,1-3.21-2.15l-54-129.9a3.49,3.49,0,0,1,3.22-4.83h25.31a3.48,3.48,0,0,1,3.24,2.22L718.67,370a3.48,3.48,0,0,0,6.5,0l13-34.65a3.45,3.45,0,0,0,0-2.53l-21.57-53.24a3.48,3.48,0,0,1,3.22-4.79h20.55a3.48,3.48,0,0,1,3.3,2.35L754,307.25a3.48,3.48,0,0,0,6.59,0l10.49-30.16a3.48,3.48,0,0,1,3.3-2.34h20.58a3.48,3.48,0,0,1,3.23,4.78l-21.35,53.26a3.5,3.5,0,0,0,0,2.51l12.81,34.58a3.48,3.48,0,0,0,6.51.06l36.55-93.24A3.48,3.48,0,0,1,835.89,274.5Z"/><path class="cls-1" d="M885.83,238.06h0a17.37,17.37,0,0,1,17.37-17.37h.27a17.37,17.37,0,0,1,17.37,17.37h0a17.38,17.38,0,0,1-17.37,17.38h-.27A17.38,17.38,0,0,1,885.83,238.06Zm0,168.35V279.48a5,5,0,0,1,5-5h25.05a5,5,0,0,1,5,5V406.41a5,5,0,0,1-5,5H890.81A5,5,0,0,1,885.83,406.41Z"/><path class="cls-1" d="M963.75,407V312.89a4.42,4.42,0,0,0-4.42-4.43h-9.18a4.42,4.42,0,0,1-4.42-4.42v-17.8a4.42,4.42,0,0,1,4.42-4.42h9.18a4.42,4.42,0,0,0,4.42-4.43v-3.93q0-25.6,12.28-40.49t33.43-14.89a76.24,76.24,0,0,1,30.26,6.54,4.42,4.42,0,0,1,2.47,5.2l-4.74,17.74a4.39,4.39,0,0,1-5.73,3,51,51,0,0,0-4.88-1.55,38.08,38.08,0,0,0-9.8-1.44q-18.28,0-18.28,24.55v5.24a4.42,4.42,0,0,0,4.42,4.43h24.59a4.42,4.42,0,0,1,4.42,4.42V304a4.42,4.42,0,0,1-4.42,4.42h-24.59a4.42,4.42,0,0,0-4.42,4.43V407a4.43,4.43,0,0,1-4.43,4.43H968.18A4.43,4.43,0,0,1,963.75,407Z"/><path class="cls-1" d="M1136.11,408a4.25,4.25,0,0,1-2.54,5q-6,2.41-13.79,4.81a72.5,72.5,0,0,1-21.42,3.14,49.72,49.72,0,0,1-13.72-1.83,30.12,30.12,0,0,1-11.23-5.88,28.77,28.77,0,0,1-7.71-10.45,37.86,37.86,0,0,1-2.87-15.54V312.84a4.24,4.24,0,0,0-4.24-4.24h-9.54a4.24,4.24,0,0,1-4.24-4.25V285.94a4.24,4.24,0,0,1,4.24-4.25h9.54a4.24,4.24,0,0,0,4.24-4.24V241.53a4.24,4.24,0,0,1,4.24-4.24h26.52a4.24,4.24,0,0,1,4.24,4.24v35.92a4.24,4.24,0,0,0,4.25,4.24h20.24a4.25,4.25,0,0,1,4.25,4.25v18.41a4.25,4.25,0,0,1-4.25,4.25h-20.24a4.24,4.24,0,0,0-4.25,4.24v62.63q0,7.3,3.79,10.31a14.41,14.41,0,0,0,9.27,3A32.15,32.15,0,0,0,1121.6,387c1.44-.5,2.75-1,4-1.41a4.24,4.24,0,0,1,5.6,2.92Z"/><path class="cls-1" d="M254.6,327.52c0-35.28,29.33-64.17,65.15-64.15s65.17,28.91,65.14,64.17a63.8,63.8,0,0,1-24.16,49.73c7.89,2.46,15.71,4.45,23.3,6.05a84,84,0,0,0,21.48-56.13c0-46.21-38.78-84.26-85.76-84.15-47.39.12-85.92,38-85.83,84.39a83.4,83.4,0,0,0,5.76,30.34c7.24-.85,14.7-1.42,21.93-1.54A62.75,62.75,0,0,1,254.6,327.52Z"/><path class="cls-1" d="M311.3,238h17.58l-3.64-2.94c.95-.77,1.59-1.27,2.3-1.84-3.33-2.19-3.81-5.31-2.82-8.79.65-2.26,1.49-4.48,2.34-6.68,1.92-4.93.72-9.49-3.1-11.45a9,9,0,0,0-9.87.94c-2.45,2.07-3.21,5.86-1.91,9.71.85,2.51,1.87,5,2.59,7.5,1,3.46.51,6.6-2.8,8.76l2.28,2-3.11,2.26C311.2,237.64,311.25,237.82,311.3,238Z"/><path class="cls-1" d="M389,266.1l2.92.25c-.87-4.59,1.81-7.09,5.4-9,1.67-.87,3.45-1.54,5.18-2.3,4-1.76,6.48-5,6.29-8.32a9,9,0,0,0-6.32-8c-3.42-1-6.65.08-8.82,3.49-1.56,2.46-2.52,5.29-3.91,7.86-1.85,3.44-4.31,6.05-8.78,5.17v2.93l-1.62-.2,10,10.82C389.27,268.29,389.17,267.32,389,266.1Z"/><path class="cls-1" d="M378.5,257.12l-.91.73,1.79.22Z"/><path class="cls-1" d="M261.29,257.38l-.52.58,1-.1Z"/><path class="cls-1" d="M234.48,253.57c2.54,1.6,5.46,2.6,8.11,4.05,3.34,1.83,5.81,4.3,4.93,8.64h2.88c-.07,1.16-.12,2.11-.2,3.41,3.72-4.11,7.15-7.92,10.57-11.71l-2.45.25c.08-1.11.14-1.9.21-2.88-4,.27-5.94-.55-7.89-3.7a50.65,50.65,0,0,1-3.23-6.62c-1.87-4.33-5.16-6.85-8.7-6.53A8.91,8.91,0,0,0,231,245C230.07,248.38,231.14,251.45,234.48,253.57Z"/><path class="cls-1" d="M413.89,335.6c2.26-3.43,5.2-4,8.48-3.18a71.68,71.68,0,0,1,7.23,2.48c4.79,1.84,9.31.69,11.27-3a8.65,8.65,0,0,0-.73-9.87c-1.9-2.59-5.75-3.4-9.62-2.13-2.42.79-4.77,1.82-7.21,2.54-3.62,1.07-7,.8-9.29-2.72l-1.67,2.1-1.92-1.18v14.11C412.22,332.4,413.09,333.61,413.89,335.6Z"/><path class="cls-1" d="M209.17,335.08c2.5-.85,5-1.87,7.49-2.58,3.46-1,6.6-.51,8.77,2.83l1.66-2.11,1.91,1.17V320.21c-1.81,2.82-2.54,1.11-3.45-.68-2.28,3.46-5.32,4-8.68,3.08a70.5,70.5,0,0,1-7-2.42c-4.95-1.91-9.44-.7-11.43,3.15a9,9,0,0,0,1,9.86C201.51,335.62,205.35,336.37,209.17,335.08Z"/><path class="cls-1" d="M298.82,358.81a13.09,13.09,0,0,0,6.7-7.18c.41-1.18-.17-2.86,2.07-2.28a19.21,19.21,0,0,1,3.7.88,15,15,0,0,1,2.82,2.42,12.64,12.64,0,0,0-2.29,9.53c4.43,1.17,9.27,2.55,14.7,4.2,1.54-4.71,2.24-9.36-1.29-13.68,1.15-1,2-1.89,2.95-2.59,1.85-1.35,5.38-1,5.7.47a10.32,10.32,0,0,0,5.1,7.22c2.81,1.57,5.63,3.14,8.52,4.55,2,1,2.64,2.3,1.82,4.36-.23.59-.37,1.21-.67,2.18h5.68c-.12,1.5-.23,2.86-.35,4.22-.17,1.77.81,2.28,2,1.23,3.66-3.28,7.16-6.74,10.64-10.21a1.87,1.87,0,0,0,.15-1.78c-.22-.37-1.08-.49-1.67-.49-1.34,0-2.68.15-4.12.24v-5.56c-5.08,1.45-5.06,1.44-7.23-3-1-1.95-2-3.89-3.12-5.74-1.44-2.32-3-4.33-5.91-5.34-4.13-1.4-4.34-4.27-1.12-7.75.43-.47.83-1,1.34-1.57,3.84,2.81,7.92,3,12.18,1.63,2.17-.69,4.39-1.25,6.5-2.09,2.42-1,4-.41,5,2a18.54,18.54,0,0,0,1.05,1.79l3.74-4.1,3.79,4c2.4-1.17,2.57-2.41,2-14.49-.07-1.52.06-3.14-2.11-3.2L373.14,323l-2.82-4.9c-3.31,5.35-3.3,5.33-7.87,3.89-2.25-.72-4.52-1.42-6.82-2-2.58-.6-5.09-1.07-7.65.56-2.08,1.33-4.45,1.45-5.57-1.41a15.37,15.37,0,0,1-.85-4.83c0-.24,1.62-.39,2.24-.89a46.27,46.27,0,0,0,6.39-5.6,29.07,29.07,0,0,0,3.48-6.17c2.2-4.43,2.16-4.44,6.8-3.24.14,0,.33-.13.88-.37-.09-1.48-.18-3.11-.3-5.07l6,.3c-.15-.93,0-1.95-.45-2.4-3.39-3.42-6.88-6.76-10.4-10.05-.39-.36-1.2-.26-1.81-.37a16.45,16.45,0,0,0-.26,1.83c0,1.34,0,2.67,0,3.94h-5.19c1.12,5.25,1.11,5.23-3.75,7.63-1.7.84-3.38,1.73-5,2.73-2.4,1.5-4.55,3-5.53,6.12-1.07,3.37-1.88,3.63-4.91,2.8a10.1,10.1,0,0,1-3.82-2.63c-.24-.23.5-1.47.76-2.25,1.08-3.31,1.65-6.62.43-10.06-.89-2.5-1.48-5.1-2.39-7.59-.7-1.93-.08-3.09,1.6-4,.66-.33,1.3-.69,2.43-1.29l-4.13-3.91,4.61-4.34a47.49,47.49,0,0,0-19.14.21l5,4-4.27,4a8.51,8.51,0,0,0,1.36.88c2.9,1,3.42,2.77,2.31,5.54a54.49,54.49,0,0,0-2.22,7.34c-.67,2.66-1,5.19.49,7.92,1.63,2.94,1.08,4.35-1.71,5.72a11,11,0,0,1-4.61.61c-.23,0-.31-1.46-.73-2.05-1.5-2.05-2.86-4.32-4.76-5.94a31.19,31.19,0,0,0-6.62-3.84c-4.8-2.39-4.82-2.35-3.74-7.63h-5.41c.06-1.32.16-2.5.16-3.68a18.3,18.3,0,0,0-.23-2.09c-.69.17-1.58.14-2,.57-3.33,3.08-6.63,6.21-9.81,9.45-.57.58-.58,1.71-.91,2.79h6.1v5.2c5.23-1.28,5.2-1.26,7.51,3.43,1,1.95,2.06,3.84,3.11,5.75a11.17,11.17,0,0,0,7.76,5.79c.49.11,1,1.11,1.12,1.75.37,2.89-1.16,4.9-3.31,6.55-4.65-1.93-5.63-3.41-12.71-1.29-2.18.66-4.39,1.23-6.5,2.06s-3.45.13-4.34-1.82c-.26-.58-.6-1.11-1.16-2.13l-3.86,4.17c-1.35-1.47-2.6-2.81-3.82-4.13-2.17,1.36-2.69,5.45-1.86,15.05.09,1,.87,2,1.33,3l4.21-4.42,3.78,4.67c2.84-5.24,2.83-5.22,7.57-3.73,5.82,1.83,11.64,4.46,17.33-.11,1,1.1,2,1.81,2.39,2.78a16.69,16.69,0,0,1,.94,4.82c0,.26-1.53.49-2.18,1-2.05,1.52-4.35,2.9-5.93,4.83a40.08,40.08,0,0,0-4.22,7.39,10.78,10.78,0,0,1-1.93,3.12,145.51,145.51,0,0,1,14.68,2.08C298.51,359,298.67,358.9,298.82,358.81Zm20.7-49.65c9.94,0,18.67,8.87,18.6,18.79-.06,9.65-8.54,17.82-18.46,17.79a18.12,18.12,0,0,1-18.12-18.33C301.59,317.5,309.86,309.11,319.52,309.16Z"/><path class="cls-1" d="M319.66,340.13c7.31.06,12.57-5.14,12.62-12.48s-5.12-12.71-12.36-12.74a12.61,12.61,0,1,0-.26,25.22Zm.12-19.64a7,7,0,1,1-7.06,7A6.86,6.86,0,0,1,319.78,320.49Z"/><path class="cls-2" d="M199.7,372.34s39.82-6.2,85.64,7.5,77.18,24.82,111.55,21.2,42.82-9.56,42.82-9.56-45.28,3.1-91.92-11.38S290,363,264.61,362.78,209.24,368.72,199.7,372.34Z"/><path class="cls-2" d="M142.75,393.54s51.63-8.49,111,10.26,100.08,33.95,144.64,29S454,419.71,454,419.71s-58.7,4.24-119.17-15.56-75-23.34-107.86-23.69S155.13,388.59,142.75,393.54Z"/></svg>