<svg width="64" height="64" viewBox="0 0 64 64" fill="none" xmlns="http://www.w3.org/2000/svg">
<path d="M22.9994 24.6153C22.9994 17.5129 29.0303 11.6969 36.3957 11.7009C43.7611 11.705 49.7961 17.521 49.7899 24.6193C49.7819 26.546 49.3312 28.4463 48.4712 30.1793C47.6113 31.9123 46.3641 33.4337 44.8221 34.6308C46.4445 35.126 48.0524 35.5266 49.6131 35.8487C52.4584 32.7443 54.0314 28.7199 54.0299 24.5489C54.0299 15.2461 46.0558 7.58606 36.3957 7.6082C26.6512 7.63236 18.7286 15.2582 18.7471 24.5972C18.7501 26.6876 19.1518 28.7591 19.9315 30.7051C21.4202 30.534 22.9541 30.4192 24.4408 30.3951C23.4972 28.6083 23.003 26.6268 22.9994 24.6153V24.6153Z" fill="#041F60"/>
<path d="M34.6579 6.59352H38.2727L37.5243 6.00165C37.7196 5.84664 37.8512 5.74598 37.9972 5.63123C37.3125 5.19035 37.2138 4.56224 37.4174 3.86167C37.551 3.40669 37.7237 2.95977 37.8985 2.51688C38.2933 1.5244 38.0466 0.6064 37.2611 0.211822C36.941 0.045337 36.5781 -0.0254779 36.2173 0.0081627C35.8565 0.0418033 35.5138 0.178419 35.2316 0.401059C34.7278 0.817781 34.5715 1.58076 34.8388 2.35583C35.0136 2.86113 35.2234 3.3624 35.3714 3.86569C35.577 4.56224 35.4763 5.19438 34.7957 5.62922L35.2645 6.03185L34.625 6.48682C34.6373 6.52104 34.6476 6.55728 34.6579 6.59352Z" fill="#041F60"/>
<path d="M50.6343 12.2506L51.2347 12.3009C51.0558 11.3769 51.6069 10.8736 52.345 10.4891C52.6884 10.314 53.0544 10.1791 53.4102 10.0261C54.2327 9.67176 54.7426 9.0195 54.7035 8.35113C54.6787 7.98551 54.5412 7.63587 54.3092 7.34834C54.0771 7.06081 53.7615 6.84891 53.404 6.74061C52.7008 6.53929 52.0366 6.75671 51.5904 7.4432C51.2696 7.93843 51.0722 8.50816 50.7864 9.02554C50.406 9.71806 49.9002 10.2435 48.9811 10.0663V10.6562L48.6479 10.6159L50.7042 12.7942C50.6898 12.6915 50.6692 12.4962 50.6343 12.2506Z" fill="#041F60"/>
<path d="M48.4752 10.4426L48.2881 10.5896L48.6562 10.6339L48.4752 10.4426Z" fill="#041F60"/>
<path d="M24.3745 10.4949L24.2676 10.6116L24.4732 10.5915L24.3745 10.4949Z" fill="#041F60"/>
<path d="M18.8617 9.7279C19.3839 10.05 19.9844 10.2513 20.5293 10.5432C21.216 10.9116 21.7239 11.4089 21.543 12.2826H22.1352C22.1208 12.5161 22.1105 12.7074 22.094 12.9691C22.859 12.1417 23.5642 11.3747 24.2675 10.6117L23.7637 10.662C23.7801 10.4385 23.7925 10.2795 23.8069 10.0822C22.9844 10.1366 22.5855 9.97149 22.1845 9.33735C21.9304 8.90948 21.7084 8.46407 21.5204 8.00464C21.1358 7.13295 20.4593 6.62563 19.7314 6.69005C19.3626 6.72613 19.0136 6.8709 18.7305 7.10525C18.4475 7.3396 18.2437 7.6525 18.1461 8.00263C17.9549 8.68307 18.1749 9.30111 18.8617 9.7279Z" fill="#041F60"/>
<path d="M55.753 26.2419C56.2177 25.5514 56.8222 25.4367 57.4966 25.6017C58.0009 25.7421 58.4972 25.9088 58.9833 26.101C59.9682 26.4714 60.8976 26.2399 61.3007 25.497C61.4863 25.1906 61.5714 24.8358 61.5445 24.4805C61.5177 24.1252 61.3802 23.7865 61.1506 23.5101C60.7599 22.9887 59.9682 22.8256 59.1725 23.0813C58.6749 23.2403 58.1916 23.4477 57.6899 23.5926C56.9456 23.808 56.2506 23.7537 55.7797 23.045L55.4363 23.4678L55.0415 23.2302V26.0708C55.4096 25.5977 55.5885 25.8413 55.753 26.2419Z" fill="#041F60"/>
<path d="M13.6579 26.1372C14.1719 25.9661 14.686 25.7607 15.198 25.6178C15.9095 25.4165 16.5551 25.5151 17.0013 26.1875L17.3426 25.7628L17.7354 25.9983V23.1436C17.3632 23.7114 17.2131 23.3671 17.026 23.0068C16.5572 23.7033 15.9321 23.812 15.2412 23.6268C14.753 23.4892 14.2726 23.3266 13.8018 23.1396C12.784 22.7551 11.8607 22.9987 11.4516 23.7738C11.2836 24.088 11.2136 24.4436 11.2502 24.7965C11.2867 25.1493 11.4282 25.4839 11.6572 25.7587C12.0828 26.2459 12.8724 26.3969 13.6579 26.1372Z" fill="#041F60"/>
<path d="M32.0918 30.9145C32.7253 30.626 33.2193 30.1077 33.4695 29.4691C33.5538 29.2315 33.4345 28.8933 33.8951 29.0101C34.1541 29.0443 34.409 29.1037 34.6559 29.1872C34.8691 29.3255 35.0639 29.4891 35.2358 29.6744C35.0308 29.9474 34.8836 30.2577 34.8027 30.5872C34.7218 30.9166 34.709 31.2586 34.7649 31.5929C35.6758 31.8285 36.671 32.1063 37.7876 32.4385C38.1042 31.4903 38.2482 30.5541 37.5223 29.6845C37.7588 29.4832 37.9336 29.304 38.1289 29.1631C38.5093 28.8913 39.2352 28.9617 39.301 29.2577C39.3549 29.5609 39.4769 29.8485 39.6583 30.0999C39.8397 30.3513 40.0758 30.5601 40.3496 30.7112C40.9274 31.0272 41.5073 31.3433 42.1015 31.6272C42.5128 31.8285 42.6444 32.0902 42.4758 32.5049C42.4285 32.6237 42.3997 32.7485 42.338 32.9438H43.5059C43.4813 33.2457 43.4586 33.5195 43.434 33.7933C43.399 34.1496 43.6005 34.2523 43.8452 34.0409C44.5978 33.3806 45.3175 32.6841 46.033 31.9855C46.0683 31.933 46.0896 31.8728 46.095 31.8102C46.1004 31.7476 46.0897 31.6847 46.0639 31.6272C46.0186 31.5527 45.8418 31.5285 45.7205 31.5285C45.445 31.5285 45.1694 31.5587 44.8733 31.5768V30.4575C43.8288 30.7494 43.8329 30.7474 43.3867 29.8536C43.1811 29.461 42.9754 29.0704 42.7451 28.698C42.449 28.231 42.1283 27.8263 41.5299 27.623C40.6807 27.3412 40.6375 26.7634 41.2996 26.0628C41.388 25.9682 41.4703 25.8615 41.5751 25.7467C42.3647 26.3124 43.2037 26.3507 44.0796 26.0749C44.5258 25.936 44.9823 25.8232 45.4162 25.6541C45.9138 25.4528 46.2387 25.5716 46.4443 26.0568C46.5093 26.1807 46.5814 26.301 46.6602 26.4171L47.4292 25.5917L48.2085 26.397C48.702 26.1614 48.737 25.9118 48.6198 23.4799C48.6054 23.1739 48.6321 22.8478 48.1859 22.8357L47.3737 23.7054L46.7938 22.719C46.1132 23.796 46.1153 23.792 45.1756 23.5021C44.7129 23.3571 44.2462 23.2162 43.7732 23.0994C43.2427 22.9786 42.7266 22.884 42.2002 23.2122C41.7725 23.4799 41.2852 23.5041 41.0549 22.9283C40.9439 22.6155 40.8849 22.2872 40.8801 21.956C40.8801 21.9077 41.2132 21.8775 41.3407 21.7768C41.8131 21.4413 42.2529 21.0639 42.6547 20.6494C42.944 20.2655 43.1843 19.8484 43.3702 19.4073C43.8226 18.5155 43.8144 18.5135 44.7685 18.7551C44.7972 18.7551 44.8363 18.7289 44.9494 18.6806C44.9309 18.3826 44.9124 18.0545 44.8877 17.6599L46.1215 17.7203C46.0906 17.5331 46.1215 17.3277 46.0289 17.2371C45.3319 16.5486 44.6142 15.8763 43.8905 15.2139C43.8103 15.1415 43.6437 15.1616 43.5183 15.1394C43.4934 15.2612 43.4756 15.3842 43.4648 15.5078C43.4648 15.7776 43.4648 16.0454 43.4648 16.301H42.3976C42.6279 17.3579 42.6259 17.3539 41.6265 17.8371C41.277 18.0062 40.9315 18.1853 40.5984 18.3866C40.1049 18.6886 39.6629 18.9906 39.4613 19.6187C39.2413 20.2971 39.0748 20.3495 38.4517 20.1824C38.1515 20.0679 37.8826 19.8867 37.6663 19.6529C37.6169 19.6066 37.7691 19.357 37.8225 19.2C38.0446 18.5336 38.1618 17.8673 37.9109 17.1747C37.7279 16.6714 37.6066 16.148 37.4195 15.6468C37.2756 15.2582 37.4031 15.0247 37.7485 14.8415C37.8842 14.7751 38.0158 14.7026 38.2482 14.5818L37.3989 13.7946L38.3469 12.9209C37.0457 12.6734 35.7066 12.6878 34.4113 12.9632L35.4394 13.7685L34.5614 14.5737C34.6486 14.6414 34.7422 14.7007 34.841 14.7509C35.4373 14.9522 35.5442 15.3085 35.316 15.8662C35.1286 16.3476 34.976 16.8414 34.8595 17.3438C34.7217 17.8793 34.6539 18.3887 34.9603 18.9383C35.2954 19.5301 35.1823 19.814 34.6086 20.0898C34.3052 20.1964 33.982 20.2382 33.6607 20.2126C33.6134 20.2126 33.597 19.9187 33.5106 19.7999C33.2022 19.3872 32.9225 18.9302 32.5319 18.6041C32.1123 18.2927 31.6551 18.033 31.1706 17.831C30.1837 17.3499 30.1795 17.3579 30.4016 16.295H29.2892C29.3015 16.0292 29.3221 15.7917 29.3221 15.5541C29.3146 15.4131 29.2988 15.2726 29.2748 15.1334C29.1329 15.1676 28.9499 15.1616 28.8636 15.2481C28.1788 15.8682 27.5003 16.4983 26.8464 17.1506C26.7292 17.2673 26.7271 17.4948 26.6593 17.7122H27.9136V18.7591C28.989 18.5014 28.9828 18.5054 29.4578 19.4496C29.6634 19.8422 29.8814 20.2226 30.0973 20.6072C30.2569 20.9062 30.4832 21.1662 30.7594 21.368C31.0356 21.5698 31.3547 21.7081 31.6929 21.7728C31.7937 21.7949 31.8985 21.9962 31.9232 22.1251C31.9993 22.7069 31.6847 23.1115 31.2426 23.4437C30.2865 23.0552 30.085 22.7572 28.6291 23.184C28.1809 23.3169 27.7265 23.4316 27.2926 23.5987C26.8587 23.7658 26.5832 23.6249 26.4002 23.2323C26.3467 23.1155 26.2768 23.0088 26.1617 22.8035L25.368 23.643C25.0904 23.3471 24.8334 23.0773 24.5825 22.8116C24.1363 23.0853 24.0294 23.9087 24.2 25.8414C24.2185 26.0427 24.3789 26.244 24.4735 26.4453L25.3392 25.5555L26.1164 26.4956C26.7004 25.4407 26.6983 25.4448 27.673 25.7447C28.8697 26.1131 30.0664 26.6426 31.2364 25.7226C31.4421 25.944 31.6477 26.087 31.7279 26.2822C31.8408 26.5946 31.906 26.9216 31.9212 27.2526C31.9212 27.3049 31.6066 27.3512 31.4729 27.4539C31.0514 27.7599 30.5784 28.0377 30.2536 28.4262C29.9112 28.8906 29.6203 29.3893 29.3858 29.914C29.2912 30.144 29.157 30.3564 28.989 30.5421C30.0018 30.6313 31.0093 30.7711 32.0075 30.9608C32.0281 30.9528 32.061 30.9326 32.0918 30.9145ZM36.3482 20.9192C38.3921 20.9192 40.1872 22.7049 40.1728 24.7019C40.1605 26.6446 38.4168 28.2893 36.377 28.2833C35.8841 28.2833 35.396 28.1876 34.9411 28.0016C34.4862 27.8157 34.0736 27.5432 33.727 27.2C33.3805 26.8568 33.1069 26.4496 32.9222 26.0021C32.7376 25.5547 32.6454 25.0758 32.6511 24.5932C32.6614 22.5982 34.3619 20.9091 36.3482 20.9192Z" fill="#041F60"/>
<path d="M36.3769 27.1537C37.88 27.1658 38.9615 26.119 38.9718 24.6413C38.9821 23.1637 37.919 22.0826 36.4303 22.0766C36.0898 22.0731 35.752 22.1354 35.436 22.2598C35.1201 22.3842 34.8323 22.5683 34.589 22.8016C34.3458 23.0349 34.1518 23.3128 34.0183 23.6195C33.8847 23.9262 33.8142 24.2556 33.8107 24.589C33.8072 24.9223 33.8708 25.2531 33.9978 25.5624C34.1249 25.8717 34.3129 26.1535 34.5512 26.3917C34.7895 26.6298 35.0734 26.8197 35.3866 26.9505C35.6999 27.0812 36.0364 27.1503 36.3769 27.1537V27.1537ZM36.4015 23.1999C36.6857 23.2023 36.9627 23.2869 37.1978 23.4432C37.4329 23.5995 37.6154 23.8204 37.7225 24.0781C37.8295 24.3358 37.8563 24.6188 37.7994 24.8913C37.7424 25.1639 37.6044 25.4139 37.4026 25.6097C37.2008 25.8056 36.9444 25.9386 36.6655 25.992C36.3866 26.0454 36.0978 26.0168 35.8356 25.9098C35.5733 25.8028 35.3492 25.6222 35.1916 25.3907C35.034 25.1593 34.9498 24.8873 34.9498 24.6091C34.9459 24.4219 34.9808 24.2359 35.0525 24.0624C35.1242 23.8889 35.2312 23.7314 35.3669 23.5996C35.5027 23.4678 35.6644 23.3644 35.8423 23.2957C36.0201 23.227 36.2104 23.1944 36.4015 23.1999V23.1999Z" fill="#041F60"/>
<path d="M11.71 33.6381C11.71 33.6381 19.8978 32.39 29.3195 35.148C38.7411 37.906 45.1894 40.1446 52.2567 39.4159C59.3239 38.6871 61.0614 37.4913 61.0614 37.4913C61.0614 37.4913 51.7508 38.1154 42.1606 35.2003C32.5704 32.2853 30.2777 31.7578 25.0569 31.7136C19.8362 31.6693 13.6716 32.9094 11.71 33.6381Z" fill="#3F51B6"/>
<path d="M0 37.9061C0 37.9061 10.6163 36.1969 22.8241 39.9716C35.0319 43.7462 43.4028 46.8062 52.5653 45.8097C61.7279 44.8132 64 43.1745 64 43.1745C64 43.1745 51.93 44.0281 39.496 40.042C27.062 36.056 24.0743 35.3433 17.3175 35.2729C10.5608 35.2024 2.54561 36.9096 0 37.9061Z" fill="#3F51B6"/>
<path d="M6.66219 58.8078C6.57773 59.6931 6.2476 60.3846 5.67178 60.8824C5.09597 61.3763 4.33013 61.6233 3.37428 61.6233C2.70633 61.6233 2.11708 61.4675 1.60653 61.156C1.09981 60.8406 0.708253 60.3941 0.431862 59.8166C0.15547 59.239 0.0115163 58.5684 0 57.8047V57.0295C0 56.2468 0.140115 55.5572 0.420345 54.9606C0.700576 54.3641 1.10173 53.9043 1.6238 53.5813C2.14971 53.2584 2.75624 53.0969 3.44338 53.0969C4.36852 53.0969 5.11324 53.3458 5.67754 53.8435C6.24184 54.3413 6.57006 55.0442 6.66219 55.9523H5.21113C5.14203 55.3558 4.96545 54.9264 4.68138 54.6642C4.40115 54.3983 3.98848 54.2653 3.44338 54.2653C2.80998 54.2653 2.32246 54.4952 1.98081 54.9549C1.64299 55.4109 1.47025 56.0815 1.46257 56.9668V57.7021C1.46257 58.5988 1.6238 59.2827 1.94626 59.7539C2.27255 60.225 2.74856 60.4606 3.37428 60.4606C3.94626 60.4606 4.3762 60.3333 4.66411 60.0788C4.95202 59.8242 5.13436 59.4005 5.21113 58.8078H6.66219Z" fill="#00A651"/>
<path d="M8.06334 58.3689C8.06334 57.7648 8.18426 57.2214 8.4261 56.7389C8.66795 56.2525 9.00768 55.8801 9.4453 55.6218C9.88292 55.3596 10.3858 55.2285 10.9539 55.2285C11.7946 55.2285 12.476 55.4964 12.9981 56.0321C13.524 56.5679 13.8081 57.2784 13.8503 58.1637L13.856 58.4886C13.856 59.0965 13.737 59.6399 13.499 60.1187C13.2649 60.5974 12.9271 60.9679 12.4856 61.2301C12.048 61.4922 11.5413 61.6233 10.9655 61.6233C10.0864 61.6233 9.38196 61.3345 8.85221 60.757C8.3263 60.1756 8.06334 59.4024 8.06334 58.4373V58.3689ZM9.46257 58.4886C9.46257 59.1231 9.59501 59.6209 9.85988 59.9819C10.1248 60.339 10.4933 60.5176 10.9655 60.5176C11.4376 60.5176 11.8042 60.3352 12.0653 59.9705C12.3301 59.6057 12.4626 59.0718 12.4626 58.3689C12.4626 57.7458 12.3263 57.2518 12.0537 56.887C11.785 56.5223 11.4184 56.3399 10.9539 56.3399C10.4971 56.3399 10.1344 56.5204 9.86564 56.8813C9.59693 57.2385 9.46257 57.7743 9.46257 58.4886Z" fill="#00A651"/>
<path d="M16.8464 55.3425L16.8868 55.9865C17.3244 55.4812 17.9232 55.2285 18.6833 55.2285C19.5163 55.2285 20.0864 55.5439 20.3935 56.1746C20.8464 55.5439 21.4837 55.2285 22.3052 55.2285C22.9923 55.2285 23.5029 55.4166 23.8369 55.7927C24.1747 56.1689 24.3474 56.7237 24.3551 57.457V61.5093H22.9559V57.4969C22.9559 57.1055 22.8695 56.8187 22.6967 56.6363C22.524 56.4539 22.238 56.3627 21.8388 56.3627C21.5202 56.3627 21.2591 56.4482 21.0557 56.6192C20.856 56.7864 20.7159 57.0067 20.6353 57.2803L20.6411 61.5093H19.2418V57.4513C19.2226 56.7256 18.8484 56.3627 18.119 56.3627C17.5585 56.3627 17.1612 56.5888 16.9271 57.0409V61.5093H15.5278V55.3425H16.8464Z" fill="#00A651"/>
<path d="M27.5988 55.3425L27.6392 55.9865C28.0768 55.4812 28.6756 55.2285 29.4357 55.2285C30.2687 55.2285 30.8388 55.5439 31.1459 56.1746C31.5988 55.5439 32.2361 55.2285 33.0576 55.2285C33.7447 55.2285 34.2553 55.4166 34.5893 55.7927C34.9271 56.1689 35.0998 56.7237 35.1075 57.457V61.5093H33.7083V57.4969C33.7083 57.1055 33.6219 56.8187 33.4491 56.6363C33.2764 56.4539 32.9904 56.3627 32.5912 56.3627C32.2726 56.3627 32.0115 56.4482 31.8081 56.6192C31.6084 56.7864 31.4683 57.0067 31.3877 57.2803L31.3935 61.5093H29.9942V57.4513C29.975 56.7256 29.6008 56.3627 28.8714 56.3627C28.3109 56.3627 27.9136 56.5888 27.6795 57.0409V61.5093H26.2802V55.3425H27.5988Z" fill="#00A651"/>
<path d="M40.81 60.9052C40.3992 61.3839 39.8157 61.6233 39.0595 61.6233C38.3839 61.6233 37.8714 61.4276 37.5221 61.0363C37.1766 60.6449 37.0038 60.0788 37.0038 59.3378V55.3425H38.4031V59.3207C38.4031 60.1035 38.7313 60.4948 39.3877 60.4948C40.0672 60.4948 40.5259 60.2535 40.7639 59.771V55.3425H42.1631V61.5093H40.8445L40.81 60.9052Z" fill="#00A651"/>
<path d="M45.3781 55.3425L45.4184 56.0549C45.8791 55.504 46.4837 55.2285 47.2322 55.2285C48.5297 55.2285 49.19 55.9637 49.2131 57.4342V61.5093H47.8138V57.514C47.8138 57.1226 47.7274 56.8339 47.5547 56.6477C47.3858 56.4577 47.1075 56.3627 46.7198 56.3627C46.1555 56.3627 45.7351 56.6154 45.4587 57.1207V61.5093H44.0595V55.3425H45.3781Z" fill="#00A651"/>
<path d="M52.6238 61.5093H51.2246V55.3425H52.6238V61.5093ZM51.1382 53.7409C51.1382 53.5282 51.2054 53.3515 51.3397 53.2109C51.4779 53.0703 51.6737 53 51.9271 53C52.1804 53 52.3762 53.0703 52.5144 53.2109C52.6526 53.3515 52.7217 53.5282 52.7217 53.7409C52.7217 53.9499 52.6526 54.1247 52.5144 54.2653C52.3762 54.4021 52.1804 54.4705 51.9271 54.4705C51.6737 54.4705 51.4779 54.4021 51.3397 54.2653C51.2054 54.1247 51.1382 53.9499 51.1382 53.7409Z" fill="#00A651"/>
<path d="M56.3973 53.8435V55.3425H57.4971V56.3684H56.3973V59.8109C56.3973 60.0465 56.4434 60.2174 56.5355 60.3238C56.6315 60.4264 56.8004 60.4777 57.0422 60.4777C57.2035 60.4777 57.3666 60.4587 57.5317 60.4207V61.4922C57.2131 61.5796 56.9059 61.6233 56.6104 61.6233C55.5355 61.6233 54.9981 61.0363 54.9981 59.8622V56.3684H53.9731V55.3425H54.9981V53.8435H56.3973Z" fill="#00A651"/>
<path d="M61.2418 59.5259L62.5086 55.3425H64L61.524 62.444C61.144 63.4813 60.499 64 59.5892 64C59.3858 64 59.1612 63.9658 58.9155 63.8974V62.8259L59.1804 62.843C59.5336 62.843 59.7985 62.7784 59.975 62.6492C60.1555 62.5238 60.2975 62.3111 60.4011 62.0109L60.6027 61.4808L58.4146 55.3425H59.9232L61.2418 59.5259Z" fill="#00A651"/>
</svg>
