<svg width="64" height="64" viewBox="0 0 64 64" fill="none" xmlns="http://www.w3.org/2000/svg">
<g clip-path="url(#clip0)">
<path d="M22.9994 24.6153C22.9994 17.5129 29.0303 11.6969 36.3957 11.7009C43.7611 11.705 49.7961 17.521 49.7899 24.6193C49.7819 26.546 49.3312 28.4463 48.4712 30.1793C47.6113 31.9123 46.3641 33.4337 44.8221 34.6308C46.4445 35.126 48.0524 35.5266 49.6131 35.8487C52.4584 32.7443 54.0314 28.7199 54.0299 24.5489C54.0299 15.2461 46.0558 7.58606 36.3957 7.6082C26.6512 7.63236 18.7286 15.2582 18.7471 24.5972C18.7501 26.6876 19.1518 28.7591 19.9315 30.7051C21.4202 30.534 22.9541 30.4192 24.4408 30.3951C23.4972 28.6083 23.003 26.6268 22.9994 24.6153V24.6153Z" fill="#041F60"/>
<path d="M34.6579 6.59352H38.2727L37.5243 6.00165C37.7196 5.84664 37.8512 5.74598 37.9972 5.63123C37.3125 5.19035 37.2138 4.56224 37.4174 3.86167C37.551 3.40669 37.7237 2.95977 37.8985 2.51688C38.2933 1.5244 38.0466 0.6064 37.2611 0.211822C36.941 0.045337 36.5781 -0.0254779 36.2173 0.0081627C35.8565 0.0418033 35.5138 0.178419 35.2316 0.401059C34.7278 0.817781 34.5715 1.58076 34.8388 2.35583C35.0136 2.86113 35.2234 3.3624 35.3714 3.86569C35.577 4.56224 35.4763 5.19438 34.7957 5.62922L35.2645 6.03185L34.625 6.48682C34.6373 6.52104 34.6476 6.55728 34.6579 6.59352Z" fill="#041F60"/>
<path d="M50.6343 12.2505L51.2347 12.3008C51.0558 11.3768 51.6069 10.8735 52.345 10.489C52.6884 10.3138 53.0544 10.179 53.4102 10.026C54.2327 9.67164 54.7426 9.01937 54.7035 8.35101C54.6787 7.98539 54.5412 7.63575 54.3092 7.34822C54.0771 7.06069 53.7615 6.84879 53.404 6.74048C52.7008 6.53917 52.0366 6.75659 51.5904 7.44308C51.2696 7.93831 51.0722 8.50803 50.7864 9.02541C50.406 9.71794 49.9002 10.2434 48.9811 10.0662V10.6561L48.6479 10.6158L50.7042 12.794C50.6898 12.6914 50.6692 12.4961 50.6343 12.2505Z" fill="#041F60"/>
<path d="M48.4752 10.4427L48.2881 10.5897L48.6562 10.634L48.4752 10.4427Z" fill="#041F60"/>
<path d="M24.3745 10.495L24.2676 10.6118L24.4732 10.5916L24.3745 10.495Z" fill="#041F60"/>
<path d="M18.8617 9.7279C19.3839 10.05 19.9844 10.2513 20.5293 10.5432C21.216 10.9116 21.7239 11.4089 21.543 12.2826H22.1352C22.1208 12.5161 22.1105 12.7074 22.094 12.9691C22.859 12.1417 23.5642 11.3747 24.2675 10.6117L23.7637 10.662C23.7801 10.4385 23.7925 10.2795 23.8069 10.0822C22.9844 10.1366 22.5855 9.97149 22.1845 9.33735C21.9304 8.90948 21.7084 8.46407 21.5204 8.00464C21.1358 7.13295 20.4593 6.62563 19.7314 6.69005C19.3626 6.72613 19.0136 6.8709 18.7305 7.10525C18.4475 7.3396 18.2437 7.6525 18.1461 8.00263C17.9549 8.68307 18.1749 9.30111 18.8617 9.7279Z" fill="#041F60"/>
<path d="M55.753 26.2419C56.2177 25.5514 56.8222 25.4367 57.4966 25.6017C58.0009 25.7421 58.4972 25.9088 58.9833 26.101C59.9682 26.4714 60.8976 26.2399 61.3007 25.497C61.4863 25.1906 61.5714 24.8358 61.5445 24.4805C61.5177 24.1252 61.3802 23.7865 61.1506 23.5101C60.7599 22.9887 59.9682 22.8256 59.1725 23.0813C58.6749 23.2403 58.1916 23.4477 57.6899 23.5926C56.9456 23.808 56.2506 23.7537 55.7797 23.045L55.4363 23.4678L55.0415 23.2302V26.0708C55.4096 25.5977 55.5885 25.8413 55.753 26.2419Z" fill="#041F60"/>
<path d="M13.6579 26.1372C14.1719 25.9661 14.686 25.7607 15.198 25.6178C15.9095 25.4165 16.5551 25.5151 17.0013 26.1875L17.3426 25.7628L17.7354 25.9983V23.1436C17.3632 23.7114 17.2131 23.3671 17.026 23.0068C16.5572 23.7033 15.9321 23.812 15.2412 23.6268C14.753 23.4892 14.2726 23.3266 13.8018 23.1396C12.784 22.7551 11.8607 22.9987 11.4516 23.7738C11.2836 24.088 11.2136 24.4436 11.2502 24.7965C11.2867 25.1493 11.4282 25.4839 11.6572 25.7587C12.0828 26.2459 12.8724 26.3969 13.6579 26.1372Z" fill="#041F60"/>
<path d="M32.0918 30.9144C32.7253 30.6259 33.2193 30.1075 33.4695 29.4689C33.5538 29.2314 33.4345 28.8932 33.8951 29.0099C34.1541 29.0442 34.409 29.1035 34.6559 29.1871C34.8691 29.3253 35.0639 29.489 35.2358 29.6743C35.0308 29.9473 34.8836 30.2576 34.8027 30.587C34.7218 30.9165 34.709 31.2584 34.7649 31.5928C35.6758 31.8283 36.671 32.1062 37.7876 32.4383C38.1042 31.4901 38.2482 30.554 37.5223 29.6843C37.7588 29.483 37.9336 29.3039 38.1289 29.1629C38.5093 28.8912 39.2352 28.9616 39.301 29.2576C39.3549 29.5607 39.4769 29.8484 39.6583 30.0998C39.8397 30.3512 40.0758 30.5599 40.3496 30.711C40.9274 31.0271 41.5073 31.3432 42.1015 31.627C42.5128 31.8283 42.6444 32.0901 42.4758 32.5048C42.4285 32.6235 42.3997 32.7484 42.338 32.9436H43.5059C43.4813 33.2456 43.4586 33.5194 43.434 33.7932C43.399 34.1495 43.6005 34.2522 43.8452 34.0408C44.5978 33.3805 45.3175 32.6839 46.033 31.9854C46.0683 31.9329 46.0896 31.8726 46.095 31.81C46.1004 31.7475 46.0897 31.6845 46.0639 31.627C46.0186 31.5525 45.8418 31.5284 45.7205 31.5284C45.445 31.5284 45.1694 31.5586 44.8733 31.5767V30.4574C43.8288 30.7493 43.8329 30.7473 43.3867 29.8534C43.1811 29.4609 42.9754 29.0703 42.7451 28.6979C42.449 28.2308 42.1283 27.8262 41.5299 27.6229C40.6807 27.341 40.6375 26.7633 41.2996 26.0627C41.388 25.9681 41.4703 25.8614 41.5751 25.7466C42.3647 26.3123 43.2037 26.3506 44.0796 26.0748C44.5258 25.9358 44.9823 25.8231 45.4162 25.654C45.9138 25.4527 46.2387 25.5715 46.4443 26.0566C46.5093 26.1806 46.5814 26.3009 46.6602 26.417L47.4292 25.5916L48.2085 26.3969C48.702 26.1613 48.737 25.9117 48.6198 23.4798C48.6054 23.1738 48.6321 22.8477 48.1859 22.8356L47.3737 23.7053L46.7938 22.7188C46.1132 23.7959 46.1153 23.7918 45.1756 23.5019C44.7129 23.357 44.2462 23.2161 43.7732 23.0993C43.2427 22.9785 42.7266 22.8839 42.2002 23.2121C41.7725 23.4798 41.2852 23.504 41.0549 22.9282C40.9439 22.6153 40.8849 22.287 40.8801 21.9558C40.8801 21.9075 41.2132 21.8773 41.3407 21.7767C41.8131 21.4411 42.2529 21.0638 42.6547 20.6493C42.944 20.2654 43.1843 19.8482 43.3702 19.4072C43.8226 18.5154 43.8144 18.5134 44.7685 18.7549C44.7972 18.7549 44.8363 18.7288 44.9494 18.6805C44.9309 18.3825 44.9124 18.0544 44.8877 17.6598L46.1215 17.7202C46.0906 17.5329 46.1215 17.3276 46.0289 17.237C45.3319 16.5485 44.6142 15.8761 43.8905 15.2138C43.8103 15.1413 43.6437 15.1615 43.5183 15.1393C43.4934 15.261 43.4756 15.384 43.4648 15.5077C43.4648 15.7775 43.4648 16.0452 43.4648 16.3009H42.3976C42.6279 17.3578 42.6259 17.3538 41.6265 17.8369C41.277 18.006 40.9315 18.1852 40.5984 18.3865C40.1049 18.6885 39.6629 18.9905 39.4613 19.6186C39.2413 20.297 39.0748 20.3494 38.4517 20.1823C38.1515 20.0678 37.8826 19.8865 37.6663 19.6528C37.6169 19.6065 37.7691 19.3569 37.8225 19.1998C38.0446 18.5335 38.1618 17.8671 37.9109 17.1746C37.7279 16.6713 37.6066 16.1479 37.4195 15.6466C37.2756 15.2581 37.4031 15.0246 37.7485 14.8414C37.8842 14.7749 38.0158 14.7025 38.2482 14.5817L37.3989 13.7945L38.3469 12.9208C37.0457 12.6732 35.7066 12.6876 34.4113 12.9631L35.4394 13.7684L34.5614 14.5736C34.6486 14.6412 34.7422 14.7006 34.841 14.7508C35.4373 14.9521 35.5442 15.3084 35.316 15.8661C35.1286 16.3475 34.976 16.8413 34.8595 17.3437C34.7217 17.8792 34.6539 18.3885 34.9603 18.9381C35.2954 19.53 35.1823 19.8139 34.6086 20.0897C34.3052 20.1963 33.982 20.2381 33.6607 20.2125C33.6134 20.2125 33.597 19.9185 33.5106 19.7998C33.2022 19.3871 32.9225 18.9301 32.5319 18.6039C32.1123 18.2925 31.6551 18.0329 31.1706 17.8309C30.1837 17.3498 30.1795 17.3578 30.4016 16.2949H29.2892C29.3015 16.0291 29.3221 15.7916 29.3221 15.554C29.3146 15.413 29.2988 15.2725 29.2748 15.1333C29.1329 15.1675 28.9499 15.1615 28.8636 15.248C28.1788 15.8681 27.5003 16.4982 26.8464 17.1505C26.7292 17.2672 26.7271 17.4947 26.6593 17.7121H27.9136V18.759C28.989 18.5013 28.9828 18.5053 29.4578 19.4495C29.6634 19.842 29.8814 20.2225 30.0973 20.607C30.2569 20.9061 30.4832 21.1661 30.7594 21.3679C31.0356 21.5697 31.3547 21.708 31.6929 21.7726C31.7937 21.7948 31.8985 21.9961 31.9232 22.125C31.9993 22.7068 31.6847 23.1114 31.2426 23.4436C30.2865 23.055 30.085 22.7571 28.6291 23.1839C28.1809 23.3167 27.7265 23.4315 27.2926 23.5986C26.8587 23.7657 26.5832 23.6248 26.4002 23.2322C26.3467 23.1154 26.2768 23.0087 26.1617 22.8034L25.368 23.6429C25.0904 23.3469 24.8334 23.0772 24.5825 22.8114C24.1363 23.0852 24.0294 23.9086 24.2 25.8412C24.2185 26.0425 24.3789 26.2439 24.4735 26.4452L25.3392 25.5554L26.1164 26.4955C26.7004 25.4406 26.6983 25.4446 27.673 25.7446C28.8697 26.113 30.0664 26.6425 31.2364 25.7225C31.4421 25.9439 31.6477 26.0868 31.7279 26.2821C31.8408 26.5945 31.906 26.9214 31.9212 27.2525C31.9212 27.3048 31.6066 27.3511 31.4729 27.4538C31.0514 27.7598 30.5784 28.0376 30.2536 28.4261C29.9112 28.8905 29.6203 29.3892 29.3858 29.9138C29.2912 30.1439 29.157 30.3563 28.989 30.5419C30.0018 30.6312 31.0093 30.771 32.0075 30.9607C32.0281 30.9526 32.061 30.9325 32.0918 30.9144ZM36.3482 20.9191C38.3921 20.9191 40.1872 22.7047 40.1728 24.7018C40.1605 26.6445 38.4168 28.2892 36.377 28.2832C35.8841 28.2832 35.396 28.1875 34.9411 28.0015C34.4862 27.8156 34.0736 27.5431 33.727 27.1999C33.3805 26.8566 33.1069 26.4495 32.9222 26.002C32.7376 25.5546 32.6454 25.0757 32.6511 24.5931C32.6614 22.598 34.3619 20.909 36.3482 20.9191Z" fill="#041F60"/>
<path d="M36.3769 27.1538C37.88 27.1659 38.9615 26.1191 38.9718 24.6414C38.9821 23.1638 37.919 22.0827 36.4303 22.0767C36.0898 22.0732 35.752 22.1355 35.436 22.2599C35.1201 22.3843 34.8323 22.5684 34.589 22.8017C34.3458 23.035 34.1518 23.3129 34.0183 23.6196C33.8847 23.9263 33.8142 24.2557 33.8107 24.5891C33.8072 24.9225 33.8708 25.2532 33.9978 25.5626C34.1249 25.8719 34.3129 26.1536 34.5512 26.3918C34.7895 26.63 35.0734 26.8198 35.3866 26.9506C35.6999 27.0813 36.0364 27.1504 36.3769 27.1538V27.1538ZM36.4015 23.2C36.6857 23.2024 36.9627 23.2871 37.1978 23.4434C37.4329 23.5996 37.6154 23.8206 37.7225 24.0783C37.8295 24.336 37.8563 24.6189 37.7994 24.8915C37.7424 25.164 37.6044 25.414 37.4026 25.6099C37.2008 25.8057 36.9444 25.9388 36.6655 25.9922C36.3866 26.0456 36.0978 26.017 35.8356 25.91C35.5733 25.803 35.3492 25.6223 35.1916 25.3909C35.034 25.1594 34.9498 24.8874 34.9498 24.6092C34.9459 24.4221 34.9808 24.2361 35.0525 24.0625C35.1242 23.889 35.2312 23.7316 35.3669 23.5998C35.5027 23.468 35.6644 23.3645 35.8423 23.2958C36.0201 23.2271 36.2104 23.1945 36.4015 23.2V23.2Z" fill="#041F60"/>
<path d="M11.71 33.6383C11.71 33.6383 19.8978 32.3901 29.3195 35.1481C38.7411 37.9061 45.1894 40.1448 52.2567 39.416C59.3239 38.6872 61.0614 37.4914 61.0614 37.4914C61.0614 37.4914 51.7508 38.1155 42.1606 35.2005C32.5704 32.2854 30.2777 31.758 25.0569 31.7137C19.8362 31.6694 13.6716 32.9095 11.71 33.6383Z" fill="#3F51B6"/>
<path d="M0 37.9061C0 37.9061 10.6163 36.1969 22.8241 39.9716C35.0319 43.7462 43.4028 46.8062 52.5653 45.8097C61.7279 44.8132 64 43.1745 64 43.1745C64 43.1745 51.93 44.0281 39.496 40.042C27.062 36.056 24.0743 35.3433 17.3175 35.2729C10.5608 35.2024 2.54561 36.9096 0 37.9061Z" fill="#3F51B6"/>
<path d="M5.98633 57.9395H2.48242V60.5645H6.57812V61.748H1V53.2168H6.53711V54.4121H2.48242V56.7676H5.98633V57.9395Z" fill="#FC6011"/>
<path d="M9.81875 55.4082L9.85977 56.1406C10.3285 55.5742 10.9438 55.291 11.7055 55.291C13.0258 55.291 13.6977 56.0469 13.7211 57.5586V61.748H12.2973V57.6406C12.2973 57.2383 12.2094 56.9414 12.0336 56.75C11.8617 56.5547 11.5785 56.457 11.184 56.457C10.6098 56.457 10.182 56.7168 9.90078 57.2363V61.748H8.47695V55.4082H9.81875Z" fill="#FC6011"/>
<path d="M17.8113 53.8672V55.4082H18.9305V56.4629H17.8113V60.002C17.8113 60.2441 17.8582 60.4199 17.952 60.5293C18.0496 60.6348 18.2215 60.6875 18.4676 60.6875C18.6316 60.6875 18.7977 60.668 18.9656 60.6289V61.7305C18.6414 61.8203 18.3289 61.8652 18.0281 61.8652C16.9344 61.8652 16.3875 61.2617 16.3875 60.0547V56.4629H15.3445V55.4082H16.3875V53.8672H17.8113Z" fill="#FC6011"/>
<path d="M23.6652 61.8652C22.7629 61.8652 22.0305 61.582 21.468 61.0156C20.9094 60.4453 20.6301 59.6875 20.6301 58.7422V58.5664C20.6301 57.9336 20.7512 57.3691 20.9934 56.873C21.2395 56.373 21.5832 55.9844 22.0246 55.707C22.466 55.4297 22.9582 55.291 23.5012 55.291C24.3645 55.291 25.0305 55.5664 25.4992 56.1172C25.9719 56.668 26.2082 57.4473 26.2082 58.4551V59.0293H22.0656C22.1086 59.5527 22.2824 59.9668 22.5871 60.2715C22.8957 60.5762 23.2824 60.7285 23.7473 60.7285C24.3996 60.7285 24.9309 60.4648 25.341 59.9375L26.1086 60.6699C25.8547 61.0488 25.5148 61.3438 25.0891 61.5547C24.6672 61.7617 24.1926 61.8652 23.6652 61.8652ZM23.4953 56.4336C23.1047 56.4336 22.7883 56.5703 22.5461 56.8438C22.3078 57.1172 22.1555 57.498 22.0891 57.9863H24.802V57.8809C24.7707 57.4043 24.6437 57.0449 24.4211 56.8027C24.1984 56.5566 23.8898 56.4336 23.4953 56.4336Z" fill="#FC6011"/>
<path d="M31.4879 56.709C31.3004 56.6777 31.107 56.6621 30.9078 56.6621C30.2555 56.6621 29.816 56.9121 29.5895 57.4121V61.748H28.1656V55.4082H29.525L29.5602 56.1172C29.9039 55.5664 30.3805 55.291 30.9898 55.291C31.193 55.291 31.3609 55.3184 31.4937 55.373L31.4879 56.709Z" fill="#FC6011"/>
<path d="M38.7891 58.6426C38.7891 59.623 38.5664 60.4062 38.1211 60.9922C37.6758 61.5742 37.0781 61.8652 36.3281 61.8652C35.6328 61.8652 35.0762 61.6367 34.6582 61.1797V64.1855H33.2344V55.4082H34.5469L34.6055 56.0527C35.0234 55.5449 35.5918 55.291 36.3105 55.291C37.084 55.291 37.6895 55.5801 38.127 56.1582C38.5684 56.7324 38.7891 57.5312 38.7891 58.5547V58.6426ZM37.3711 58.5195C37.3711 57.8867 37.2441 57.3848 36.9902 57.0137C36.7402 56.6426 36.3809 56.457 35.9121 56.457C35.3301 56.457 34.9121 56.6973 34.6582 57.1777V59.9902C34.916 60.4824 35.3379 60.7285 35.9238 60.7285C36.377 60.7285 36.7305 60.5469 36.9844 60.1836C37.2422 59.8164 37.3711 59.2617 37.3711 58.5195Z" fill="#FC6011"/>
<path d="M44.1684 56.709C43.9809 56.6777 43.7875 56.6621 43.5883 56.6621C42.9359 56.6621 42.4965 56.9121 42.2699 57.4121V61.748H40.8461V55.4082H42.2055L42.2406 56.1172C42.5844 55.5664 43.0609 55.291 43.6703 55.291C43.8734 55.291 44.0414 55.3184 44.1742 55.373L44.1684 56.709Z" fill="#FC6011"/>
<path d="M47.4324 61.748H46.0086V55.4082H47.4324V61.748ZM45.9207 53.7617C45.9207 53.543 45.9891 53.3613 46.1258 53.2168C46.2664 53.0723 46.4656 53 46.7234 53C46.9813 53 47.1805 53.0723 47.3211 53.2168C47.4617 53.3613 47.532 53.543 47.532 53.7617C47.532 53.9766 47.4617 54.1562 47.3211 54.3008C47.1805 54.4414 46.9813 54.5117 46.7234 54.5117C46.4656 54.5117 46.2664 54.4414 46.1258 54.3008C45.9891 54.1562 45.9207 53.9766 45.9207 53.7617Z" fill="#FC6011"/>
<path d="M53.3918 60.0254C53.3918 59.7715 53.2863 59.5781 53.0754 59.4453C52.8684 59.3125 52.5227 59.1953 52.0383 59.0938C51.5539 58.9922 51.1496 58.8633 50.8254 58.707C50.1145 58.3633 49.759 57.8652 49.759 57.2129C49.759 56.666 49.9895 56.209 50.4504 55.8418C50.9113 55.4746 51.4973 55.291 52.2082 55.291C52.966 55.291 53.5773 55.4785 54.0422 55.8535C54.5109 56.2285 54.7453 56.7148 54.7453 57.3125H53.3215C53.3215 57.0391 53.2199 56.8125 53.0168 56.6328C52.8137 56.4492 52.5441 56.3574 52.2082 56.3574C51.8957 56.3574 51.6398 56.4297 51.4406 56.5742C51.2453 56.7188 51.1477 56.9121 51.1477 57.1543C51.1477 57.373 51.2395 57.543 51.423 57.6641C51.6066 57.7852 51.9777 57.9082 52.5363 58.0332C53.0949 58.1543 53.5324 58.3008 53.8488 58.4727C54.1691 58.6406 54.4055 58.8438 54.5578 59.082C54.7141 59.3203 54.7922 59.6094 54.7922 59.9492C54.7922 60.5195 54.5559 60.9824 54.0832 61.3379C53.6105 61.6895 52.9914 61.8652 52.2258 61.8652C51.7062 61.8652 51.2434 61.7715 50.8371 61.584C50.4309 61.3965 50.1145 61.1387 49.8879 60.8105C49.6613 60.4824 49.548 60.1289 49.548 59.75H50.9309C50.9504 60.0859 51.0773 60.3457 51.3117 60.5293C51.5461 60.709 51.8566 60.7988 52.2434 60.7988C52.6184 60.7988 52.9035 60.7285 53.0988 60.5879C53.2941 60.4434 53.3918 60.2559 53.3918 60.0254Z" fill="#FC6011"/>
<path d="M59.6793 61.8652C58.777 61.8652 58.0445 61.582 57.482 61.0156C56.9234 60.4453 56.6441 59.6875 56.6441 58.7422V58.5664C56.6441 57.9336 56.7652 57.3691 57.0074 56.873C57.2535 56.373 57.5973 55.9844 58.0387 55.707C58.4801 55.4297 58.9723 55.291 59.5152 55.291C60.3785 55.291 61.0445 55.5664 61.5133 56.1172C61.9859 56.668 62.2223 57.4473 62.2223 58.4551V59.0293H58.0797C58.1227 59.5527 58.2965 59.9668 58.6012 60.2715C58.9098 60.5762 59.2965 60.7285 59.7613 60.7285C60.4137 60.7285 60.9449 60.4648 61.3551 59.9375L62.1227 60.6699C61.8688 61.0488 61.5289 61.3438 61.1031 61.5547C60.6813 61.7617 60.2066 61.8652 59.6793 61.8652ZM59.5094 56.4336C59.1188 56.4336 58.8023 56.5703 58.5602 56.8438C58.3219 57.1172 58.1695 57.498 58.1031 57.9863H60.816V57.8809C60.7848 57.4043 60.6578 57.0449 60.4352 56.8027C60.2125 56.5566 59.9039 56.4336 59.5094 56.4336Z" fill="#FC6011"/>
</g>
<defs>
<clipPath id="clip0">
<rect width="64" height="64" fill="white"/>
</clipPath>
</defs>
</svg>
