<svg width="130" height="46" viewBox="0 0 130 46" fill="none" xmlns="http://www.w3.org/2000/svg">
<g clip-path="url(#clip0)">
<path d="M63.0532 6.85564C62.9905 6.97102 62.9046 7.07212 62.8008 7.15253C62.6969 7.23294 62.5776 7.2909 62.4502 7.32275C62.3228 7.35459 62.1902 7.35963 62.0608 7.33753C61.9313 7.31543 61.8079 7.26669 61.6983 7.19438L61.655 7.16681C61.1634 6.85677 60.6475 6.58717 60.1123 6.36067C59.8138 6.23201 59.5039 6.11297 59.1827 6.00356C57.9889 5.57549 56.7239 5.38114 55.4566 5.43112C54.4124 5.48889 53.615 5.72434 53.0645 6.13747C52.4238 6.618 52.1034 7.29285 52.1034 8.16201C52.0864 8.60701 52.213 9.04568 52.4645 9.41322C52.7448 9.77954 53.1037 10.0783 53.5148 10.2876C54.0659 10.5774 54.6465 10.8071 55.2466 10.973C55.9468 11.1787 56.7529 11.3975 57.665 11.6294C58.8536 11.9498 59.9337 12.2925 60.9053 12.6575C61.797 12.9788 62.631 13.4421 63.3749 14.0295C64.0359 14.561 64.5694 15.2339 64.936 15.9989C65.3009 16.7656 65.4839 17.7087 65.4848 18.8282C65.4848 20.1315 65.2388 21.2462 64.7469 22.1722C64.2775 23.0724 63.5945 23.8437 62.7578 24.4186C61.8823 25.0085 60.9059 25.4326 59.8773 25.6699C58.759 25.9361 57.6131 26.0684 56.4637 26.0637C54.6264 26.0626 52.7999 25.7851 51.0452 25.2405C49.6133 24.8074 48.2448 24.1872 46.9751 23.3959C46.7728 23.2695 46.6251 23.0718 46.5614 22.8418C46.4977 22.6118 46.5226 22.3664 46.6312 22.1538L47.8233 19.8287C47.8846 19.7103 47.97 19.606 48.0741 19.5227C48.1781 19.4394 48.2985 19.3788 48.4274 19.3449C48.5564 19.311 48.691 19.3045 48.8225 19.3259C48.9541 19.3472 49.0798 19.396 49.1914 19.4689C49.2728 19.5227 49.3594 19.5766 49.4539 19.633C50.0668 20.0047 50.7027 20.3371 51.3577 20.6282C52.1432 20.9783 52.9576 21.2595 53.7919 21.4685C54.6885 21.6976 55.6104 21.8127 56.5359 21.8112C59.1425 21.8112 60.4458 20.9766 60.4458 19.3074C60.4591 18.8228 60.301 18.349 59.9994 17.9696C59.6494 17.5634 59.2171 17.2362 58.7311 17.0098C58.0913 16.7006 57.4258 16.448 56.742 16.2549C55.963 16.0264 55.0938 15.7752 54.1345 15.5013C53.0991 15.2247 52.0851 14.8737 51.1004 14.4509C50.3193 14.1215 49.5956 13.6699 48.9563 13.113C48.401 12.6214 47.962 12.0124 47.671 11.3301C47.3673 10.5609 47.2213 9.73844 47.2417 8.91168C47.2205 7.77702 47.4547 6.65211 47.927 5.62018C48.3666 4.6828 49.0184 3.86065 49.8308 3.21885C50.6755 2.56206 51.6349 2.0679 52.6601 1.7615C53.7832 1.4232 54.9507 1.25547 56.1236 1.2639C57.7347 1.24726 59.3356 1.52031 60.8501 2.07004C61.8912 2.45148 62.896 2.92514 63.8528 3.48537C64.0635 3.61113 64.2171 3.81381 64.2813 4.05066C64.3455 4.28751 64.3152 4.54003 64.1968 4.75497L63.0532 6.85564Z" fill="#041F60"/>
<path d="M91.0041 8.09238H94.36C94.4353 8.09243 94.5095 8.11108 94.576 8.14667C94.6424 8.18227 94.6991 8.2337 94.7409 8.29642C94.7827 8.35914 94.8084 8.4312 94.8157 8.50623C94.823 8.58125 94.8117 8.65692 94.7827 8.72652L87.6549 25.7827C87.6199 25.866 87.5611 25.9371 87.4859 25.9871C87.4107 26.0371 87.3224 26.0637 87.2321 26.0637H84.0811C83.9889 26.0637 83.8988 26.0358 83.8227 25.9838C83.7466 25.9318 83.6879 25.8581 83.6544 25.7722L81.106 19.2706C81.0727 19.1847 81.0142 19.1108 80.9382 19.0587C80.8621 19.0066 80.7721 18.9788 80.6799 18.9788C80.5878 18.9788 80.4978 19.0066 80.4217 19.0587C80.3457 19.1108 80.2872 19.1847 80.2539 19.2706L77.7383 25.7696C77.705 25.8557 77.6464 25.9297 77.5703 25.982C77.4941 26.0342 77.404 26.0623 77.3116 26.0624H74.1606C74.0703 26.0622 73.9821 26.0353 73.9071 25.9851C73.8321 25.9349 73.7737 25.8635 73.7392 25.7801L66.6494 8.72521C66.6204 8.65561 66.6091 8.57994 66.6164 8.50492C66.6237 8.42989 66.6494 8.35783 66.6912 8.29511C66.733 8.23239 66.7897 8.18095 66.8561 8.14536C66.9226 8.10977 66.9968 8.09112 67.0721 8.09106H70.3951C70.4872 8.09117 70.577 8.11905 70.6529 8.17105C70.7288 8.22306 70.7872 8.29677 70.8205 8.38253L75.614 20.6308C75.6471 20.7172 75.7056 20.7915 75.7818 20.8439C75.8579 20.8963 75.9482 20.9244 76.0407 20.9244C76.1332 20.9244 76.2235 20.8963 76.2997 20.8439C76.3759 20.7915 76.4344 20.7172 76.4674 20.6308L78.1742 16.0815C78.2163 15.9748 78.2163 15.8561 78.1742 15.7494L75.3422 8.75934C75.3141 8.69002 75.3034 8.61483 75.3111 8.54039C75.3187 8.46596 75.3446 8.39455 75.3864 8.33245C75.4281 8.27035 75.4845 8.21945 75.5505 8.18422C75.6165 8.149 75.6902 8.13054 75.765 8.13045H78.4631C78.5585 8.13022 78.6515 8.15984 78.7292 8.21518C78.8069 8.27051 78.8654 8.34877 78.8963 8.43899L80.2526 12.3922C80.2833 12.4826 80.3415 12.5611 80.4191 12.6166C80.4967 12.6722 80.5897 12.7021 80.6852 12.7021C80.7806 12.7021 80.8737 12.6722 80.9513 12.6166C81.0289 12.5611 81.0871 12.4826 81.1178 12.3922L82.4951 8.43243C82.5263 8.34245 82.5848 8.26447 82.6625 8.20939C82.7401 8.15431 82.8331 8.12487 82.9283 8.1252H85.6303C85.7051 8.12516 85.7787 8.14347 85.8448 8.17853C85.9108 8.21359 85.9673 8.26433 86.0091 8.32629C86.051 8.38825 86.077 8.45954 86.0849 8.5339C86.0928 8.60826 86.0823 8.68342 86.0544 8.75278L83.2513 15.7454C83.2106 15.8515 83.2106 15.9689 83.2513 16.075L84.9332 20.6151C84.9652 20.7022 85.023 20.7774 85.0988 20.8309C85.1747 20.8844 85.265 20.9134 85.3578 20.9143C85.4506 20.9152 85.5414 20.8877 85.6183 20.8357C85.6951 20.7836 85.7543 20.7094 85.7879 20.6229L90.5866 8.38122C90.6198 8.29719 90.6772 8.22489 90.7516 8.17347C90.8259 8.12206 90.9138 8.09384 91.0041 8.09238Z" fill="#041F60"/>
<path d="M97.561 3.30802C97.561 2.70318 97.8013 2.12311 98.229 1.69542C98.6567 1.26774 99.2367 1.02747 99.8416 1.02747H99.877C100.482 1.02747 101.062 1.26774 101.49 1.69542C101.917 2.12311 102.158 2.70318 102.158 3.30802C102.158 3.91298 101.917 4.49318 101.49 4.92107C101.062 5.34897 100.482 5.58953 99.877 5.58988H99.8416C99.2366 5.58953 98.6566 5.34897 98.2289 4.92107C97.8013 4.49318 97.561 3.91298 97.561 3.30802ZM97.561 25.4111V8.74615C97.561 8.57205 97.6302 8.40507 97.7533 8.28196C97.8764 8.15885 98.0434 8.08969 98.2175 8.08969H101.506C101.68 8.08969 101.847 8.15885 101.971 8.28196C102.094 8.40507 102.163 8.57205 102.163 8.74615V25.4111C102.163 25.5852 102.094 25.7522 101.971 25.8753C101.847 25.9984 101.68 26.0676 101.506 26.0676H98.2149C98.0412 26.0669 97.8749 25.9974 97.7524 25.8744C97.6298 25.7513 97.561 25.5847 97.561 25.4111Z" fill="#041F60"/>
<path d="M107.791 25.4886V13.1327C107.791 13.0563 107.776 12.9807 107.747 12.9102C107.718 12.8396 107.676 12.7755 107.622 12.7215C107.568 12.6674 107.504 12.6246 107.433 12.5953C107.363 12.5661 107.287 12.551 107.211 12.551H106.006C105.852 12.551 105.704 12.4899 105.595 12.3811C105.486 12.2722 105.425 12.1246 105.425 11.9707V9.63371C105.425 9.4798 105.486 9.3322 105.595 9.22336C105.704 9.11454 105.852 9.0534 106.006 9.0534H107.211C107.287 9.0534 107.363 9.03834 107.433 9.0091C107.504 8.97985 107.568 8.93699 107.622 8.88296C107.676 8.82894 107.718 8.76481 107.747 8.69425C107.776 8.62369 107.791 8.54809 107.791 8.47177V7.95579C107.791 5.71506 108.329 3.94306 109.403 2.63976C110.478 1.33646 111.941 0.684814 113.793 0.684814C115.162 0.696311 116.514 0.988552 117.765 1.54347C117.892 1.59976 117.995 1.69956 118.054 1.82479C118.113 1.95002 118.126 2.09241 118.09 2.22619L117.467 4.55532C117.447 4.63246 117.411 4.70449 117.361 4.76685C117.311 4.82921 117.249 4.88053 117.178 4.91756C117.107 4.95459 117.029 4.97652 116.95 4.98197C116.87 4.98741 116.79 4.97625 116.715 4.94919C116.505 4.87067 116.291 4.80275 116.074 4.74569C115.656 4.62692 115.223 4.56336 114.788 4.55663C113.188 4.55663 112.388 5.63104 112.388 7.77986V8.46783C112.388 8.54415 112.402 8.61975 112.432 8.69031C112.461 8.76087 112.503 8.825 112.557 8.87902C112.611 8.93305 112.675 8.97591 112.746 9.00516C112.816 9.0344 112.892 9.04946 112.968 9.04946H116.197C116.35 9.04946 116.498 9.1106 116.607 9.21943C116.716 9.32826 116.777 9.47586 116.777 9.62977V11.9655C116.777 12.1194 116.716 12.267 116.607 12.3758C116.498 12.4846 116.35 12.5458 116.197 12.5458H112.968C112.892 12.5458 112.816 12.5608 112.746 12.5901C112.675 12.6193 112.611 12.6622 112.557 12.7162C112.503 12.7702 112.461 12.8344 112.432 12.9049C112.402 12.9755 112.388 13.0511 112.388 13.1274V25.4886C112.388 25.6428 112.326 25.7908 112.217 25.8999C112.108 26.0089 111.96 26.0702 111.806 26.0702H108.373C108.219 26.0702 108.071 26.0089 107.962 25.8999C107.852 25.7908 107.791 25.6428 107.791 25.4886Z" fill="#041F60"/>
<path d="M130.421 25.62C130.454 25.7512 130.439 25.8902 130.377 26.011C130.316 26.1318 130.213 26.2261 130.087 26.2764C129.562 26.4874 128.958 26.6979 128.277 26.9079C127.365 27.1853 126.417 27.3243 125.464 27.3202C124.856 27.3245 124.249 27.2436 123.663 27.0799C123.122 26.9301 122.62 26.6669 122.189 26.3079C121.751 25.9337 121.405 25.4644 121.176 24.9359C120.909 24.2899 120.78 23.5947 120.799 22.8956V13.1262C120.799 12.9785 120.741 12.8369 120.636 12.7325C120.532 12.6281 120.39 12.5695 120.243 12.5695H118.99C118.917 12.5695 118.845 12.5551 118.777 12.527C118.709 12.4989 118.648 12.4578 118.596 12.406C118.544 12.3542 118.503 12.2926 118.476 12.2249C118.448 12.1572 118.433 12.0847 118.434 12.0115V9.59441C118.433 9.5212 118.448 9.44867 118.476 9.38098C118.503 9.31328 118.544 9.25176 118.596 9.19993C118.648 9.1481 118.709 9.10697 118.777 9.07892C118.845 9.05086 118.917 9.03642 118.99 9.03642H120.243C120.39 9.03642 120.532 8.97777 120.636 8.87337C120.741 8.76897 120.799 8.62738 120.799 8.47974V3.76371C120.799 3.61607 120.858 3.47448 120.963 3.37008C121.067 3.26568 121.209 3.20703 121.356 3.20703H124.838C124.986 3.20703 125.127 3.26568 125.232 3.37008C125.336 3.47448 125.395 3.61607 125.395 3.76371V8.47974C125.395 8.55295 125.409 8.62545 125.437 8.69307C125.465 8.7607 125.506 8.82212 125.558 8.87383C125.61 8.92554 125.672 8.96652 125.739 8.99442C125.807 9.02232 125.879 9.03659 125.953 9.03642H128.61C128.758 9.03642 128.9 9.0952 129.005 9.19985C129.109 9.30449 129.168 9.44642 129.168 9.59441V12.0115C129.168 12.1595 129.109 12.3014 129.005 12.4061C128.9 12.5107 128.758 12.5695 128.61 12.5695H125.953C125.879 12.5693 125.807 12.5836 125.739 12.6115C125.672 12.6394 125.61 12.6804 125.558 12.7321C125.506 12.7838 125.465 12.8452 125.437 12.9128C125.409 12.9805 125.395 13.053 125.395 13.1262V21.349C125.395 21.988 125.561 22.4392 125.892 22.7026C126.24 22.9713 126.67 23.1105 127.109 23.0965C127.588 23.0989 128.063 23.0199 128.516 22.8628C128.705 22.7972 128.877 22.7315 129.041 22.6777C129.114 22.6502 129.192 22.6384 129.27 22.6431C129.348 22.6479 129.425 22.669 129.494 22.7052C129.563 22.7414 129.624 22.7917 129.673 22.8531C129.721 22.9144 129.757 22.9853 129.776 23.0611L130.421 25.62Z" fill="#041F60"/>
<path d="M14.6854 15.0534C14.6854 10.4214 18.5362 6.62837 23.2391 6.631C27.942 6.63363 31.7954 10.4267 31.7915 15.056C31.7863 16.3126 31.4985 17.5519 30.9494 18.6821C30.4003 19.8123 29.604 20.8045 28.6194 21.5852C29.6553 21.9082 30.682 22.1695 31.6785 22.3795C33.4953 20.3549 34.4997 17.7303 34.4987 15.0101C34.4987 8.94306 29.4072 3.94738 23.2391 3.96182C17.0171 3.97758 11.9584 8.95094 11.9702 15.0416C11.9721 16.4049 12.2286 17.7559 12.7265 19.025C13.677 18.9134 14.6565 18.8386 15.6057 18.8228C15.0032 17.6575 14.6877 16.3652 14.6854 15.0534Z" fill="#041F60"/>
<path d="M22.1294 3.30011H24.4375L23.9596 2.91411C24.0843 2.81302 24.1684 2.74737 24.2616 2.67254C23.8244 2.38501 23.7614 1.97537 23.8913 1.51848C23.9767 1.22175 24.087 0.930286 24.1986 0.641443C24.4507 -0.00582916 24.2931 -0.604522 23.7916 -0.861855C23.5872 -0.970432 23.3555 -1.01662 23.1251 -0.994677C22.8947 -0.972737 22.6759 -0.88364 22.4957 -0.73844C22.174 -0.466665 22.0743 0.0309323 22.2449 0.536408C22.3565 0.865952 22.4905 1.19287 22.585 1.5211C22.7163 1.97537 22.6519 2.38763 22.2174 2.67122L22.5167 2.93381L22.1084 3.23053C22.1163 3.25285 22.1228 3.27648 22.1294 3.30011Z" fill="#041F60"/>
<path d="M32.3308 6.98949L32.7142 7.02231C32.5999 6.41968 32.9518 6.09145 33.4231 5.84068C33.6424 5.72646 33.8761 5.63849 34.1032 5.53871C34.6284 5.30763 34.954 4.88225 34.9291 4.44636C34.9132 4.20791 34.8254 3.97988 34.6772 3.79236C34.5291 3.60484 34.3276 3.46665 34.0993 3.39602C33.6503 3.26472 33.2262 3.40652 32.9413 3.85423C32.7365 4.17721 32.6104 4.54876 32.4279 4.88619C32.185 5.33783 31.8621 5.6805 31.2752 5.56497V5.94965L31.0625 5.9234L32.3754 7.34398C32.3662 7.27702 32.3531 7.14967 32.3308 6.98949Z" fill="#041F60"/>
<path d="M30.952 5.81042L30.8325 5.90627L31.0675 5.93515L30.952 5.81042Z" fill="#041F60"/>
<path d="M15.5634 5.84448L15.4951 5.92063L15.6264 5.9075L15.5634 5.84448Z" fill="#041F60"/>
<path d="M12.0435 5.3444C12.377 5.55447 12.7603 5.68576 13.1083 5.87613C13.5468 6.1164 13.8711 6.44069 13.7555 7.0105H14.1337C14.1245 7.1628 14.1179 7.28753 14.1074 7.45821C14.5958 6.9186 15.0461 6.41837 15.4952 5.92077L15.1735 5.95359C15.184 5.80786 15.1919 5.70414 15.2011 5.57547C14.6759 5.61092 14.4212 5.50326 14.1652 5.08969C14.0029 4.81065 13.8612 4.52016 13.7411 4.22053C13.4956 3.65204 13.0636 3.32118 12.5988 3.36319C12.3633 3.38672 12.1405 3.48114 11.9597 3.63398C11.779 3.78681 11.6489 3.99088 11.5866 4.21922C11.4645 4.66299 11.605 5.06606 12.0435 5.3444Z" fill="#041F60"/>
<path d="M35.5988 16.1143C35.8955 15.6639 36.2815 15.5891 36.7122 15.6968C37.0341 15.7883 37.351 15.897 37.6614 16.0224C38.2903 16.2639 38.8837 16.113 39.1411 15.6285C39.2596 15.4286 39.3139 15.1972 39.2968 14.9655C39.2797 14.7338 39.1919 14.5129 39.0452 14.3326C38.7958 13.9926 38.2903 13.8862 37.7822 14.053C37.4645 14.1567 37.1559 14.2919 36.8356 14.3865C36.3603 14.5269 35.9165 14.4915 35.6159 14.0293L35.3966 14.3051L35.1445 14.1501V16.0027C35.3795 15.6941 35.4938 15.853 35.5988 16.1143Z" fill="#041F60"/>
<path d="M8.72063 16.046C9.04887 15.9344 9.3771 15.8004 9.70402 15.7072C10.1583 15.5759 10.5705 15.6403 10.8554 16.0788L11.0734 15.8018L11.3242 15.9554V14.0936C11.0865 14.4639 10.9907 14.2394 10.8712 14.0044C10.5719 14.4586 10.1727 14.5295 9.73159 14.4087C9.41988 14.319 9.11311 14.2129 8.81254 14.091C8.16264 13.8402 7.57314 13.9991 7.31187 14.5046C7.20465 14.7095 7.15994 14.9414 7.18328 15.1716C7.20662 15.4017 7.29698 15.6199 7.44316 15.7991C7.71494 16.1169 8.2191 16.2153 8.72063 16.046Z" fill="#041F60"/>
<path d="M20.491 19.1616C20.8954 18.9734 21.2109 18.6354 21.3707 18.2189C21.4245 18.064 21.3483 17.8434 21.6424 17.9195C21.8078 17.9419 21.9705 17.9806 22.1282 18.0351C22.2643 18.1252 22.3887 18.232 22.4985 18.3528C22.3676 18.5308 22.2735 18.7332 22.2219 18.9481C22.1703 19.1629 22.1621 19.3859 22.1978 19.604C22.7794 19.7576 23.4149 19.9388 24.1278 20.1554C24.33 19.5371 24.4219 18.9265 23.9584 18.3594C24.1094 18.2281 24.221 18.1112 24.3457 18.0193C24.5886 17.8421 25.0521 17.888 25.0941 18.081C25.1285 18.2788 25.2065 18.4664 25.3223 18.6303C25.4381 18.7942 25.5888 18.9304 25.7637 19.029C26.1326 19.2351 26.5029 19.4412 26.8823 19.6263C27.1449 19.7576 27.2289 19.9283 27.1213 20.1988C27.0911 20.2762 27.0727 20.3576 27.0333 20.485H27.779C27.7633 20.6819 27.7488 20.8605 27.7331 21.039C27.7108 21.2714 27.8394 21.3384 27.9957 21.2005C28.4762 20.7699 28.9357 20.3156 29.3926 19.86C29.4151 19.8258 29.4287 19.7865 29.4322 19.7457C29.4356 19.7049 29.4288 19.6638 29.4123 19.6263C29.3834 19.5778 29.2705 19.562 29.1931 19.562C29.0171 19.562 28.8412 19.5817 28.6521 19.5935V18.8635C27.9852 19.0539 27.9878 19.0526 27.7029 18.4697C27.5716 18.2136 27.4403 17.9589 27.2933 17.716C27.1042 17.4114 26.8994 17.1475 26.5173 17.0149C25.9751 16.8311 25.9475 16.4543 26.3703 15.9974C26.4267 15.9357 26.4792 15.8661 26.5462 15.7913C27.0504 16.1602 27.586 16.1852 28.1453 16.0053C28.4302 15.9147 28.7217 15.8412 28.9987 15.7309C29.3165 15.5996 29.5239 15.6771 29.6552 15.9935C29.6967 16.0743 29.7428 16.1528 29.7931 16.2285L30.2841 15.6902L30.7817 16.2154C31.0968 16.0617 31.1191 15.8989 31.0443 14.3129C31.0351 14.1134 31.0522 13.9007 30.7673 13.8928L30.2487 14.46L29.8784 13.8166C29.4438 14.5191 29.4451 14.5164 28.8451 14.3274C28.5497 14.2328 28.2517 14.1409 27.9497 14.0648C27.611 13.986 27.2814 13.9243 26.9453 14.1383C26.6722 14.3129 26.3611 14.3287 26.214 13.9532C26.1431 13.7491 26.1055 13.535 26.1024 13.319C26.1024 13.2875 26.3151 13.2678 26.3965 13.2022C26.6981 12.9834 26.979 12.7373 27.2355 12.467C27.4202 12.2166 27.5737 11.9445 27.6924 11.6569C27.9812 11.0753 27.976 11.0739 28.5852 11.2315C28.6036 11.2315 28.6285 11.2144 28.7007 11.1829C28.6889 10.9886 28.6771 10.7746 28.6613 10.5173L29.4491 10.5567C29.4294 10.4346 29.4491 10.3006 29.39 10.2416C28.9449 9.79253 28.4867 9.35402 28.0246 8.92206C27.9734 8.8748 27.867 8.88793 27.7869 8.87349C27.771 8.95287 27.7596 9.03309 27.7528 9.11375C27.7528 9.28968 27.7528 9.4643 27.7528 9.63104H27.0714C27.2184 10.3203 27.2171 10.3177 26.579 10.6328C26.3558 10.7431 26.1353 10.8599 25.9226 10.9912C25.6075 11.1882 25.3252 11.3851 25.1965 11.7947C25.056 12.2372 24.9497 12.2713 24.5519 12.1624C24.3602 12.0877 24.1885 11.9695 24.0503 11.8171C24.0188 11.7869 24.116 11.6241 24.1501 11.5217C24.2919 11.0871 24.3667 10.6525 24.2066 10.2009C24.0897 9.87262 24.0123 9.53126 23.8928 9.20434C23.8009 8.95095 23.8823 8.79865 24.1028 8.67917C24.1895 8.63585 24.2735 8.58858 24.4219 8.5098L23.8797 7.99645L24.4849 7.42664C23.6541 7.26518 22.7991 7.27456 21.972 7.45422L22.6284 7.97939L22.0678 8.50456C22.1235 8.54866 22.1833 8.58734 22.2464 8.62009C22.6271 8.75138 22.6954 8.98377 22.5497 9.34745C22.43 9.66144 22.3326 9.98346 22.2582 10.3111C22.1702 10.6604 22.1269 10.9925 22.3225 11.351C22.5365 11.737 22.4643 11.9221 22.098 12.102C21.9043 12.1715 21.6979 12.1988 21.4928 12.1821C21.4626 12.1821 21.4521 11.9904 21.3969 11.9129C21.2 11.6438 21.0214 11.3457 20.772 11.133C20.504 10.9299 20.2121 10.7606 19.9028 10.6289C19.2726 10.3151 19.27 10.3203 19.4118 9.6271H18.7015C18.7094 9.4538 18.7225 9.29887 18.7225 9.14395C18.7177 9.05198 18.7076 8.96036 18.6923 8.86955C18.6017 8.89187 18.4848 8.88793 18.4297 8.94438C17.9925 9.34876 17.5592 9.75971 17.1417 10.1851C17.0669 10.2612 17.0656 10.4096 17.0222 10.5514H17.8231V11.2341C18.5098 11.0661 18.5059 11.0687 18.8091 11.6845C18.9404 11.9405 19.0796 12.1886 19.2175 12.4394C19.3194 12.6344 19.4639 12.804 19.6402 12.9356C19.8166 13.0672 20.0203 13.1574 20.2363 13.1996C20.3006 13.214 20.3676 13.3453 20.3833 13.4293C20.4319 13.8088 20.231 14.0727 19.9488 14.2893C19.3382 14.0359 19.2096 13.8416 18.28 14.1199C17.9938 14.2066 17.7037 14.2814 17.4266 14.3904C17.1496 14.4994 16.9737 14.4075 16.8568 14.1514C16.8227 14.0753 16.778 14.0057 16.7045 13.8718L16.1977 14.4193C16.0205 14.2263 15.8564 14.0503 15.6962 13.877C15.4113 14.0556 15.343 14.5926 15.452 15.853C15.4638 15.9843 15.5662 16.1156 15.6266 16.2469L16.1794 15.6666L16.6756 16.2797C17.0485 15.5917 17.0472 15.5943 17.6695 15.79C18.4336 16.0302 19.1978 16.3755 19.9448 15.7755C20.0761 15.9199 20.2074 16.0132 20.2586 16.1405C20.3307 16.3442 20.3723 16.5575 20.382 16.7734C20.382 16.8075 20.1811 16.8377 20.0958 16.9046C19.8267 17.1042 19.5247 17.2854 19.3172 17.5388C19.0986 17.8416 18.9129 18.1669 18.7632 18.509C18.7027 18.6591 18.617 18.7976 18.5098 18.9187C19.1565 18.9769 19.7998 19.068 20.4372 19.1918C20.4503 19.1865 20.4713 19.1734 20.491 19.1616ZM23.2087 12.6429C24.5138 12.6429 25.66 13.8075 25.6508 15.1099C25.6429 16.3769 24.5296 17.4495 23.2271 17.4456C22.9124 17.4456 22.6008 17.3832 22.3103 17.2619C22.0199 17.1406 21.7564 16.9629 21.5351 16.739C21.3138 16.5152 21.1391 16.2497 21.0212 15.9579C20.9033 15.666 20.8445 15.3537 20.8481 15.039C20.8547 13.7379 21.9405 12.6363 23.2087 12.6429Z" fill="#041F60"/>
<path d="M23.227 16.709C24.1867 16.7169 24.8773 16.0341 24.8839 15.0705C24.8905 14.1068 24.2117 13.4017 23.2611 13.3978C23.0437 13.3956 22.828 13.4362 22.6263 13.5173C22.4245 13.5984 22.2408 13.7185 22.0854 13.8706C21.9301 14.0228 21.8063 14.204 21.721 14.4041C21.6358 14.6041 21.5907 14.8189 21.5885 15.0363C21.5862 15.2537 21.6268 15.4695 21.708 15.6712C21.7891 15.8729 21.9092 16.0567 22.0613 16.212C22.2135 16.3673 22.3947 16.4912 22.5947 16.5764C22.7947 16.6617 23.0096 16.7067 23.227 16.709ZM23.2428 14.1304C23.4242 14.132 23.6011 14.1872 23.7512 14.2891C23.9013 14.391 24.0179 14.5351 24.0862 14.7032C24.1546 14.8712 24.1716 15.0558 24.1353 15.2335C24.0989 15.4113 24.0108 15.5743 23.882 15.702C23.7531 15.8298 23.5894 15.9165 23.4113 15.9514C23.2332 15.9862 23.0488 15.9675 22.8814 15.8978C22.7139 15.828 22.5708 15.7102 22.4702 15.5592C22.3695 15.4083 22.3158 15.2309 22.3158 15.0495C22.3133 14.9274 22.3356 14.8061 22.3814 14.6929C22.4271 14.5797 22.4955 14.4771 22.5822 14.3911C22.6688 14.3051 22.7721 14.2377 22.8857 14.1929C22.9992 14.1481 23.1207 14.1268 23.2428 14.1304Z" fill="#041F60"/>
<path d="M7.47705 20.9379C7.47705 20.9379 12.7051 20.1239 18.7209 21.9226C24.7368 23.7213 28.8541 25.1813 33.3666 24.706C37.8791 24.2307 38.9886 23.4509 38.9886 23.4509C38.9886 23.4509 33.0436 23.8579 26.9202 21.9567C20.7967 20.0556 19.3328 19.7116 15.9992 19.6828C12.6657 19.6539 8.72958 20.4626 7.47705 20.9379Z" fill="#3F51B6"/>
<path d="M0 23.7214C0 23.7214 6.77863 22.6067 14.5735 25.0684C22.3683 27.5302 27.7132 29.5258 33.5636 28.8759C39.414 28.226 40.8648 27.1573 40.8648 27.1573C40.8648 27.1573 33.1579 27.714 25.2187 25.1144C17.2794 22.5148 15.3717 22.05 11.0575 22.0041C6.74318 21.9581 1.6254 23.0715 0 23.7214Z" fill="#3F51B6"/>
<path d="M4.94931 39.8575H1.47142V42.439H5.53672V43.6029H0V35.2132H5.49601V36.3887H1.47142V38.7051H4.94931V39.8575Z" fill="#FC6011"/>
<path d="M16.4458 37.3683L16.4865 38.0885C16.9517 37.5315 17.5624 37.253 18.3185 37.253C19.629 37.253 20.2959 37.9963 20.3191 39.483V43.6029H18.9059V39.5636C18.9059 39.168 18.8186 38.876 18.6442 38.6878C18.4736 38.4957 18.1925 38.3997 17.8009 38.3997C17.2309 38.3997 16.8063 38.6551 16.5272 39.1661V43.6029H15.1139V37.3683H16.4458Z" fill="#FC6011"/>
<path d="M32.0715 35.8528V37.3683H33.1823V38.4054H32.0715V41.8858C32.0715 42.124 32.118 42.2968 32.211 42.4044C32.308 42.5081 32.4786 42.56 32.7228 42.56C32.8857 42.56 33.0505 42.5408 33.2172 42.5024V43.5856C32.8954 43.674 32.5852 43.7182 32.2867 43.7182C31.201 43.7182 30.6582 43.1247 30.6582 41.9377V38.4054H29.623V37.3683H30.6582V35.8528H32.0715Z" fill="#FC6011"/>
<path d="M45.5744 43.7182C44.6787 43.7182 43.9518 43.4397 43.3934 42.8827C42.839 42.3218 42.5618 41.5766 42.5618 40.6469V40.4741C42.5618 39.8518 42.682 39.2967 42.9223 38.8088C43.1666 38.3171 43.5078 37.9349 43.9459 37.6621C44.3841 37.3894 44.8726 37.253 45.4115 37.253C46.2684 37.253 46.9295 37.5238 47.3948 38.0655C47.8639 38.6071 48.0985 39.3735 48.0985 40.3646V40.9293H43.9867C44.0293 41.444 44.2018 41.8512 44.5043 42.1509C44.8106 42.4505 45.1944 42.6003 45.6558 42.6003C46.3033 42.6003 46.8306 42.341 47.2377 41.8224L47.9996 42.5427C47.7476 42.9153 47.4103 43.2053 46.9876 43.4128C46.5689 43.6164 46.0978 43.7182 45.5744 43.7182ZM45.4057 38.3766C45.018 38.3766 44.7039 38.5111 44.4636 38.78C44.227 39.0489 44.0758 39.4234 44.0099 39.9036H46.7027V39.7999C46.6717 39.3312 46.5456 38.9778 46.3246 38.7397C46.1036 38.4976 45.7973 38.3766 45.4057 38.3766Z" fill="#FC6011"/>
<path d="M61.0314 38.6475C60.8453 38.6167 60.6534 38.6014 60.4557 38.6014C59.8082 38.6014 59.372 38.8472 59.1471 39.3389V43.6029H57.7338V37.3683H59.0831L59.118 38.0655C59.4592 37.5238 59.9322 37.253 60.5371 37.253C60.7387 37.253 60.9054 37.2799 61.0373 37.3337L61.0314 38.6475Z" fill="#FC6011"/>
<path d="M75.9709 40.549C75.9709 41.5132 75.7499 42.2834 75.3079 42.8596C74.8659 43.432 74.2726 43.7182 73.5282 43.7182C72.8381 43.7182 72.2856 43.4935 71.8707 43.044V46H70.4574V37.3683H71.7602L71.8183 38.0021C72.2332 37.5027 72.7973 37.253 73.5108 37.253C74.2785 37.253 74.8794 37.5373 75.3137 38.1058C75.7518 38.6705 75.9709 39.4561 75.9709 40.4625V40.549ZM74.5634 40.428C74.5634 39.8057 74.4374 39.312 74.1854 38.9471C73.9373 38.5822 73.5806 38.3997 73.1153 38.3997C72.5376 38.3997 72.1227 38.6359 71.8707 39.1084V41.8743C72.1266 42.3583 72.5453 42.6003 73.1269 42.6003C73.5767 42.6003 73.9276 42.4217 74.1796 42.0644C74.4355 41.7033 74.5634 41.1578 74.5634 40.428Z" fill="#FC6011"/>
<path d="M89.0027 38.6475C88.8166 38.6167 88.6247 38.6014 88.4269 38.6014C87.7794 38.6014 87.3433 38.8472 87.1184 39.3389V43.6029H85.7051V37.3683H87.0544L87.0893 38.0655C87.4305 37.5238 87.9035 37.253 88.5084 37.253C88.71 37.253 88.8767 37.2799 89.0085 37.3337L89.0027 38.6475Z" fill="#FC6011"/>
<path d="M99.935 43.6029H98.5218V37.3683H99.935V43.6029ZM98.4345 35.7491C98.4345 35.534 98.5024 35.3553 98.6381 35.2132C98.7777 35.0711 98.9754 35 99.2313 35C99.4872 35 99.6849 35.0711 99.8245 35.2132C99.9641 35.3553 100.034 35.534 100.034 35.7491C100.034 35.9604 99.9641 36.1371 99.8245 36.2792C99.6849 36.4175 99.4872 36.4866 99.2313 36.4866C98.9754 36.4866 98.7777 36.4175 98.6381 36.2792C98.5024 36.1371 98.4345 35.9604 98.4345 35.7491Z" fill="#FC6011"/>
<path d="M113.543 41.9089C113.543 41.6592 113.438 41.469 113.229 41.3384C113.023 41.2078 112.68 41.0925 112.199 40.9927C111.718 40.8928 111.317 40.766 110.995 40.6124C110.29 40.2743 109.937 39.7845 109.937 39.143C109.937 38.6052 110.166 38.1558 110.623 37.7947C111.081 37.4336 111.662 37.253 112.368 37.253C113.12 37.253 113.727 37.4374 114.188 37.8062C114.653 38.175 114.886 38.6532 114.886 39.241H113.473C113.473 38.9721 113.372 38.7493 113.17 38.5726C112.969 38.392 112.701 38.3017 112.368 38.3017C112.058 38.3017 111.804 38.3728 111.606 38.5149C111.412 38.6571 111.315 38.8472 111.315 39.0854C111.315 39.3005 111.406 39.4676 111.588 39.5867C111.771 39.7058 112.139 39.8268 112.694 39.9497C113.248 40.0688 113.682 40.2129 113.996 40.3819C114.314 40.5471 114.549 40.7468 114.7 40.9811C114.855 41.2155 114.933 41.4997 114.933 41.8339C114.933 42.3948 114.698 42.85 114.229 43.1996C113.76 43.5453 113.145 43.7182 112.385 43.7182C111.87 43.7182 111.41 43.626 111.007 43.4416C110.604 43.2572 110.29 43.0037 110.065 42.681C109.84 42.3583 109.727 42.0107 109.727 41.638H111.1C111.119 41.9684 111.245 42.2239 111.478 42.4044C111.711 42.5811 112.019 42.6695 112.403 42.6695C112.775 42.6695 113.058 42.6003 113.252 42.462C113.446 42.3199 113.543 42.1355 113.543 41.9089Z" fill="#FC6011"/>
<path d="M127.476 43.7182C126.58 43.7182 125.853 43.4397 125.295 42.8827C124.741 42.3218 124.463 41.5766 124.463 40.6469V40.4741C124.463 39.8518 124.583 39.2967 124.824 38.8088C125.068 38.3171 125.409 37.9349 125.847 37.6621C126.286 37.3894 126.774 37.253 127.313 37.253C128.17 37.253 128.831 37.5238 129.296 38.0655C129.765 38.6071 130 39.3735 130 40.3646V40.9293H125.888C125.931 41.444 126.103 41.8512 126.406 42.1509C126.712 42.4505 127.096 42.6003 127.557 42.6003C128.205 42.6003 128.732 42.341 129.139 41.8224L129.901 42.5427C129.649 42.9153 129.312 43.2053 128.889 43.4128C128.47 43.6164 127.999 43.7182 127.476 43.7182ZM127.307 38.3766C126.92 38.3766 126.605 38.5111 126.365 38.78C126.129 39.0489 125.977 39.4234 125.911 39.9036H128.604V39.7999C128.573 39.3312 128.447 38.9778 128.226 38.7397C128.005 38.4976 127.699 38.3766 127.307 38.3766Z" fill="#FC6011"/>
</g>
<defs>
<clipPath id="clip0">
<rect width="130" height="46" fill="white"/>
</clipPath>
</defs>
</svg>
