<svg id="Layer_1" data-name="Layer 1" xmlns="http://www.w3.org/2000/svg" viewBox="0 0 1279 639"><defs><style>.cls-1{fill:#041f60;}.cls-2{fill:#3f51b6;}</style></defs><title>swift-1280X640</title><path class="cls-1" d="M595.9,224.73c0-35.16,29.23-63.95,64.93-63.93s64.95,28.81,64.92,63.95a63.63,63.63,0,0,1-24.08,49.57c7.86,2.45,15.66,4.43,23.22,6a83.76,83.76,0,0,0,21.41-55.94c0-46.06-38.65-84-85.48-83.87-47.22.12-85.63,37.88-85.53,84.11A83.3,83.3,0,0,0,581,254.89c7.22-.85,14.65-1.42,21.86-1.54A62.48,62.48,0,0,1,595.9,224.73Z"/><path class="cls-1" d="M652.41,135.52h17.52l-3.63-2.94,2.29-1.82c-3.31-2.19-3.8-5.3-2.81-8.77.65-2.25,1.48-4.46,2.33-6.65,1.92-4.92.72-9.46-3.09-11.41a9,9,0,0,0-9.84.93c-2.44,2.06-3.19,5.84-1.9,9.68.85,2.49,1.87,4.94,2.58,7.47,1,3.45.51,6.58-2.79,8.73l2.28,2-3.1,2.26C652.3,135.16,652.36,135.34,652.41,135.52Z"/><path class="cls-1" d="M729.88,163.52l2.92.25c-.88-4.58,1.8-7.06,5.37-8.92,1.67-.87,3.44-1.53,5.17-2.29,4-1.75,6.46-5,6.26-8.29a8.93,8.93,0,0,0-6.29-7.94c-3.41-1-6.63.08-8.79,3.49-1.55,2.45-2.52,5.26-3.9,7.83-1.84,3.42-4.29,6-8.75,5.14v2.93l-1.61-.2,9.92,10.78C730.12,165.7,730,164.74,729.88,163.52Z"/><path class="cls-1" d="M719.38,154.57l-.91.73,1.79.22Z"/><path class="cls-1" d="M602.56,154.83l-.52.58,1-.1Z"/><path class="cls-1" d="M575.84,151c2.54,1.6,5.44,2.59,8.08,4,3.34,1.82,5.8,4.29,4.91,8.61h2.88c-.07,1.16-.12,2.1-.2,3.4L602,155.41l-2.44.25c.08-1.11.14-1.9.21-2.87-3.94.27-5.91-.55-7.86-3.69a49.11,49.11,0,0,1-3.22-6.6c-1.86-4.31-5.14-6.83-8.67-6.51a8.91,8.91,0,0,0-7.74,6.52C571.44,145.87,572.51,148.92,575.84,151Z"/><path class="cls-1" d="M754.65,232.79c2.26-3.42,5.19-4,8.45-3.17a71.32,71.32,0,0,1,7.21,2.48c4.77,1.82,9.27.68,11.23-2.95a8.66,8.66,0,0,0-.73-9.85c-1.89-2.58-5.73-3.38-9.58-2.12-2.42.79-4.76,1.81-7.19,2.53-3.61,1.07-6.94.8-9.26-2.71l-1.66,2.1-1.91-1.18V232C753,229.6,753.85,230.8,754.65,232.79Z"/><path class="cls-1" d="M550.62,232.27c2.49-.84,4.94-1.86,7.47-2.57,3.44-1,6.57-.51,8.73,2.82l1.66-2.1,1.9,1.17V217.45c-1.8,2.81-2.53,1.1-3.44-.68-2.27,3.45-5.3,4-8.65,3.07a71,71,0,0,1-6.93-2.41c-4.93-1.91-9.41-.7-11.38,3.14a9,9,0,0,0,.95,9.83C543,232.81,546.81,233.56,550.62,232.27Z"/><path class="cls-1" d="M640,255.92c3-1.62,5.52-3.84,6.67-7.15.42-1.18-.16-2.85,2.07-2.28a19.58,19.58,0,0,1,3.68.88,14.9,14.9,0,0,1,2.82,2.41,12.65,12.65,0,0,0-2.29,9.5c4.42,1.16,9.24,2.54,14.66,4.18,1.53-4.69,2.22-9.33-1.29-13.63,1.14-1,2-1.88,2.94-2.58,1.84-1.34,5.36-1,5.68.46a10.26,10.26,0,0,0,5.09,7.2c2.79,1.57,5.6,3.13,8.48,4.54,2,1,2.63,2.29,1.82,4.35-.23.58-.37,1.2-.67,2.17h5.66c-.12,1.49-.23,2.85-.35,4.2-.17,1.76.81,2.27,2,1.23,3.64-3.27,7.13-6.72,10.6-10.18a1.85,1.85,0,0,0,.15-1.77c-.22-.37-1.08-.49-1.66-.49-1.34,0-2.67.15-4.11.24v-5.54c-5.07,1.44-5,1.43-7.21-3-1-1.95-2-3.88-3.11-5.72-1.43-2.32-2.93-4.32-5.89-5.32-4.11-1.4-4.32-4.26-1.12-7.73.43-.47.83-1,1.34-1.57,3.83,2.81,7.9,3,12.15,1.63,2.16-.69,4.37-1.24,6.47-2.08,2.41-1,4-.41,5,2a17.49,17.49,0,0,0,1,1.78l3.72-4.08,3.79,4c2.39-1.17,2.56-2.4,2-14.44-.07-1.52.05-3.14-2.1-3.2L714,220.21c-1.1-1.91-2-3.4-2.81-4.89-3.3,5.34-3.29,5.32-7.84,3.88-2.25-.71-4.51-1.41-6.81-2-2.56-.6-5.07-1.06-7.62.56-2.07,1.33-4.44,1.45-5.55-1.4a15.65,15.65,0,0,1-.85-4.82c0-.24,1.61-.39,2.24-.89a45.88,45.88,0,0,0,6.36-5.58,28.81,28.81,0,0,0,3.47-6.14c2.2-4.42,2.16-4.43,6.78-3.23.14,0,.33-.14.87-.38-.08-1.47-.18-3.09-.29-5.05l5.94.3c-.15-.93,0-1.94-.45-2.39-3.38-3.41-6.86-6.74-10.37-10-.38-.35-1.19-.26-1.8-.37a16.45,16.45,0,0,0-.26,1.83c0,1.33,0,2.66,0,3.92h-5.17c1.11,5.24,1.1,5.22-3.74,7.61-1.69.84-3.37,1.72-5,2.72-2.4,1.5-4.54,3-5.52,6.1-1.06,3.36-1.87,3.62-4.89,2.79a10.23,10.23,0,0,1-3.81-2.62c-.24-.23.5-1.47.76-2.25,1.08-3.3,1.65-6.59.43-10-.89-2.49-1.47-5.09-2.38-7.57-.7-1.91-.08-3.08,1.6-3.93.65-.33,1.29-.69,2.41-1.29l-4.11-3.89,4.6-4.33c-6.55-1.07-12.41-1.31-19.08.21l5,4-4.25,4a9.06,9.06,0,0,0,1.35.87c2.89,1,3.41,2.76,2.3,5.52a55.51,55.51,0,0,0-2.21,7.31c-.66,2.65-1,5.18.49,7.9,1.63,2.93,1.08,4.34-1.7,5.7a10.94,10.94,0,0,1-4.6.61c-.23,0-.31-1.46-.73-2-1.49-2-2.85-4.31-4.74-5.93a31.4,31.4,0,0,0-6.59-3.82c-4.79-2.39-4.81-2.34-3.73-7.6h-5.4c.07-1.32.16-2.5.16-3.68a18.37,18.37,0,0,0-.23-2.08c-.69.18-1.57.14-2,.57-3.32,3.07-6.6,6.19-9.78,9.42-.57.58-.57,1.7-.9,2.78h6.07v5.18c5.21-1.27,5.19-1.25,7.49,3.42,1,1.95,2.05,3.83,3.1,5.73a11.11,11.11,0,0,0,7.73,5.77c.49.11,1,1.11,1.12,1.75.37,2.88-1.16,4.88-3.3,6.53-4.63-1.93-5.61-3.4-12.67-1.29-2.17.66-4.37,1.23-6.48,2.05s-3.43.13-4.32-1.81c-.26-.58-.6-1.11-1.15-2.12l-3.85,4.15-3.81-4.12c-2.16,1.36-2.68,5.43-1.86,15,.09,1,.87,2,1.33,3l4.19-4.4c1.46,1.79,2.51,3.1,3.78,4.65,2.82-5.22,2.81-5.2,7.54-3.71,5.8,1.82,11.6,4.44,17.27-.11,1,1.09,2,1.8,2.38,2.77a16.62,16.62,0,0,1,.94,4.8c0,.26-1.52.49-2.17,1-2,1.52-4.34,2.88-5.92,4.82a40,40,0,0,0-4.2,7.36,10.83,10.83,0,0,1-1.93,3.11,144.68,144.68,0,0,1,14.64,2.07Zm20.63-49.49c9.91.06,18.61,8.85,18.54,18.73-.07,9.62-8.52,17.76-18.41,17.73a18.05,18.05,0,0,1-18.05-18.26C642.73,214.75,651,206.38,660.6,206.43Z"/><path class="cls-1" d="M660.73,237.3c7.29.06,12.53-5.12,12.58-12.43s-5.1-12.67-12.31-12.7a12.57,12.57,0,1,0-.27,25.13Zm.13-19.57a7,7,0,1,1-7,7A6.83,6.83,0,0,1,660.86,217.73Z"/><path class="cls-2" d="M541.18,269.41s39.68-6.19,85.35,7.47S703.45,301.62,737.7,298s42.68-9.53,42.68-9.53-45.12,3.09-91.6-11.34-57.63-17-82.91-17.27S550.69,265.8,541.18,269.41Z"/><path class="cls-2" d="M484.42,290.54s51.46-8.46,110.67,10.22,99.74,33.83,144.15,28.9,55.34-13,55.34-13-58.51,4.23-118.78-15.51-74.72-23.26-107.49-23.61S496.76,285.6,484.42,290.54Z"/><path class="cls-1" d="M476.31,404.81a6.09,6.09,0,0,1-8.7,2.17l-.28-.18a69.22,69.22,0,0,0-9.9-5.17c-1.91-.83-3.9-1.59-6-2.3a63.58,63.58,0,0,0-23.92-3.66q-10.05.54-15.35,4.53-6.17,4.62-6.17,13a13.31,13.31,0,0,0,2.32,8,19.83,19.83,0,0,0,6.71,5.61,56,56,0,0,0,11.11,4.4q6.72,2,15.52,4.18,11.44,3.09,20.8,6.61a56.57,56.57,0,0,1,15.85,8.8,36.42,36.42,0,0,1,10,12.66q3.52,7.38,3.52,18.15,0,12.56-4.73,21.46a39.74,39.74,0,0,1-12.77,14.42,55.29,55.29,0,0,1-18.48,8,92.7,92.7,0,0,1-21.9,2.54,117.74,117.74,0,0,1-34.78-5.29A109.38,109.38,0,0,1,373.08,511a6.12,6.12,0,0,1-2.2-8l7.65-14.92a6.11,6.11,0,0,1,8.78-2.3c.52.34,1.08.69,1.67,1.05a108.13,108.13,0,0,0,12.21,6.38,94.4,94.4,0,0,0,15.63,5.39,70.46,70.46,0,0,0,17.61,2.2q25.08,0,25.09-16.06a13.23,13.23,0,0,0-2.86-8.59,24.43,24.43,0,0,0-8.15-6.16,78.46,78.46,0,0,0-12.76-4.84q-7.49-2.2-16.73-4.84a143.15,143.15,0,0,1-19.48-6.72A51.08,51.08,0,0,1,385.79,445a32.11,32.11,0,0,1-8.26-11.45A39.68,39.68,0,0,1,374.78,418a48.62,48.62,0,0,1,4.4-21.13,42.73,42.73,0,0,1,12.22-15.41,55,55,0,0,1,18.16-9.35,74.89,74.89,0,0,1,22.23-3.2,86.21,86.21,0,0,1,30.37,5.18,119.12,119.12,0,0,1,19.27,9.08,6.09,6.09,0,0,1,2.21,8.15Z"/><path class="cls-1" d="M655.71,412.74h21.54a2.94,2.94,0,0,1,2.71,4.07L634.21,526.27a2.93,2.93,0,0,1-2.7,1.81H611.25a2.94,2.94,0,0,1-2.73-1.87l-16.33-41.73a2.93,2.93,0,0,0-5.47,0L570.58,526.2a3,3,0,0,1-2.74,1.88H547.6a2.93,2.93,0,0,1-2.71-1.81L499.35,416.81a2.94,2.94,0,0,1,2.71-4.07h21.33a2.93,2.93,0,0,1,2.73,1.87l30.82,78.62a2.94,2.94,0,0,0,5.48,0l11-29.19a2.93,2.93,0,0,0,0-2.14L555.2,417a2.94,2.94,0,0,1,2.72-4h17.32a2.93,2.93,0,0,1,2.77,2l8.68,25.39a2.94,2.94,0,0,0,5.55,0l8.84-25.42a2.94,2.94,0,0,1,2.77-2H621.2a2.93,2.93,0,0,1,2.72,4l-18,44.89a3,3,0,0,0,0,2.11l10.8,29.13a2.93,2.93,0,0,0,5.48.05L653,414.61A2.93,2.93,0,0,1,655.71,412.74Z"/><path class="cls-1" d="M697.79,382h0a14.65,14.65,0,0,1,14.64-14.64h.22A14.65,14.65,0,0,1,727.29,382h0a14.65,14.65,0,0,1-14.64,14.64h-.22A14.65,14.65,0,0,1,697.79,382Zm0,141.84V416.94a4.2,4.2,0,0,1,4.19-4.2H723.1a4.2,4.2,0,0,1,4.19,4.2V523.88a4.2,4.2,0,0,1-4.19,4.2H702A4.2,4.2,0,0,1,697.79,523.88Z"/><path class="cls-1" d="M763.45,524.35V445.08a3.73,3.73,0,0,0-3.73-3.72H752a3.73,3.73,0,0,1-3.73-3.73v-15a3.73,3.73,0,0,1,3.73-3.73h7.73a3.73,3.73,0,0,0,3.73-3.73v-3.32q0-21.56,10.34-34.11T802,365.2a64.31,64.31,0,0,1,25.49,5.51,3.74,3.74,0,0,1,2.08,4.39l-4,14.94a3.69,3.69,0,0,1-4.82,2.56c-1.28-.48-2.65-.92-4.12-1.31a32,32,0,0,0-8.25-1.22q-15.4,0-15.41,20.69v4.42a3.73,3.73,0,0,0,3.73,3.73h20.72a3.73,3.73,0,0,1,3.72,3.73v15a3.73,3.73,0,0,1-3.72,3.73H796.67a3.73,3.73,0,0,0-3.73,3.72v79.27a3.73,3.73,0,0,1-3.73,3.73h-22A3.73,3.73,0,0,1,763.45,524.35Z"/><path class="cls-1" d="M908.68,525.21a3.59,3.59,0,0,1-2.15,4.21q-5,2-11.62,4.05a61,61,0,0,1-18,2.64,41.79,41.79,0,0,1-11.56-1.54,25.13,25.13,0,0,1-9.46-5,24.2,24.2,0,0,1-6.5-8.8,32,32,0,0,1-2.42-13.1V445.05a3.57,3.57,0,0,0-3.57-3.58h-8a3.58,3.58,0,0,1-3.58-3.57V422.38a3.58,3.58,0,0,1,3.58-3.58h8a3.57,3.57,0,0,0,3.57-3.57V385a3.58,3.58,0,0,1,3.58-3.58h22.34a3.58,3.58,0,0,1,3.57,3.58v30.27A3.58,3.58,0,0,0,880,418.8h17.06a3.58,3.58,0,0,1,3.58,3.58V437.9a3.58,3.58,0,0,1-3.58,3.57H880a3.58,3.58,0,0,0-3.58,3.58v52.77c0,4.11,1.07,7,3.2,8.69a12.14,12.14,0,0,0,7.81,2.53,27,27,0,0,0,9-1.54c1.21-.42,2.32-.82,3.33-1.19a3.57,3.57,0,0,1,4.71,2.47Z"/></svg>