<svg width="178" height="34" viewBox="0 0 178 34" fill="none" xmlns="http://www.w3.org/2000/svg">
<path d="M13.3393 0.743713C14.3153 0.273734 15.4521 0.273733 16.428 0.743712L24.9759 4.86014C25.9518 5.33012 26.6606 6.21893 26.9016 7.27496L29.0128 16.5245C29.2538 17.5805 29.0008 18.6888 28.3255 19.5357L22.4102 26.9533C21.7348 27.8001 20.7106 28.2934 19.6274 28.2934H10.14C9.05678 28.2934 8.03253 27.8001 7.35718 26.9533L1.44188 19.5357C0.76652 18.6888 0.513552 17.5805 0.754584 16.5245L2.86573 7.27496C3.10676 6.21893 3.81556 5.33012 4.79148 4.86014L13.3393 0.743713Z" fill="#234573"/>
<path d="M34.3781 26.6333V2.15905H40.0313V12.7071L48.9937 2.15905H55.3363L46.1671 13.0863L55.9568 26.6333H49.4763L42.5821 16.8091L40.0313 19.4289V26.6333H34.3781ZM56.581 20.1183V8.53614H62.0963V18.9118C62.0963 20.0149 62.3147 20.8652 62.7513 21.4627C63.1879 22.0372 63.8084 22.3245 64.6127 22.3245C65.1183 22.3245 65.6009 22.244 66.0605 22.0832C66.5201 21.8993 66.9682 21.6121 67.4048 21.2214C67.8415 20.8307 68.2321 20.3251 68.5768 19.7047V8.53614H74.0922V20.4975C74.0922 21.049 74.1726 21.4397 74.3335 21.6695C74.5173 21.8763 74.8275 22.0027 75.2642 22.0487V26.6333C74.7586 26.7252 74.3105 26.7942 73.9198 26.8401C73.5521 26.8861 73.2189 26.9091 72.9202 26.9091C71.955 26.9091 71.1851 26.7137 70.6106 26.3231C70.0361 25.9094 69.6799 25.3349 69.542 24.5995L69.4386 23.4965C68.6113 24.6914 67.5772 25.5762 66.3362 26.1507C65.1183 26.7022 63.7509 26.978 62.2342 26.978C60.3958 26.978 58.994 26.392 58.0288 25.22C57.0636 24.048 56.581 22.3474 56.581 20.1183ZM89.2232 26.978C87.8444 26.978 86.6379 26.6908 85.6038 26.1162C84.5697 25.5187 83.7539 24.6914 83.1564 23.6343V26.6333H78.3649V1.46964H83.8803V11.5006C84.4777 10.4435 85.2706 9.62772 86.2587 9.05321C87.2699 8.47869 88.4534 8.19144 89.8092 8.19144C90.9583 8.19144 92.0039 8.44422 92.9461 8.94979C93.9113 9.43239 94.7386 10.1103 95.428 10.9836C96.1404 11.8338 96.6919 12.8335 97.0826 13.9825C97.4732 15.1086 97.6686 16.338 97.6686 17.6709C97.6686 18.9808 97.4503 20.1988 97.0136 21.3248C96.6 22.4508 96.014 23.439 95.2556 24.2893C94.4973 25.1396 93.601 25.806 92.5669 26.2886C91.5557 26.7482 90.4412 26.978 89.2232 26.978ZM87.672 22.3245C88.2925 22.3245 88.867 22.2096 89.3956 21.9797C89.9471 21.727 90.4182 21.3937 90.8089 20.9801C91.1996 20.5664 91.4983 20.0839 91.7051 19.5323C91.9119 18.9578 92.0154 18.3373 92.0154 17.6709C92.0154 16.8206 91.843 16.0278 91.4983 15.2924C91.1536 14.557 90.671 13.971 90.0505 13.5344C89.453 13.0978 88.7521 12.8795 87.9478 12.8795C87.3733 12.8795 86.8218 13.0173 86.2932 13.2931C85.7647 13.5689 85.2936 13.9481 84.8799 14.4306C84.4663 14.8903 84.133 15.4188 83.8803 16.0163V19.8081C84.0641 20.1988 84.2939 20.555 84.5697 20.8767C84.8454 21.1754 85.1442 21.4282 85.4659 21.635C85.8106 21.8419 86.1668 22.0142 86.5345 22.1521C86.9252 22.267 87.3044 22.3245 87.672 22.3245ZM109.066 26.978C107.527 26.978 106.159 26.7367 104.964 26.2541C103.769 25.7486 102.747 25.0706 101.896 24.2203C101.069 23.3701 100.437 22.3934 100 21.2903C99.5638 20.1643 99.3455 18.9923 99.3455 17.7743C99.3455 16.0278 99.7247 14.4421 100.483 13.0173C101.264 11.5696 102.379 10.4091 103.827 9.5358C105.274 8.63956 107.021 8.19144 109.066 8.19144C111.112 8.19144 112.847 8.62807 114.271 9.50133C115.719 10.3746 116.822 11.5236 117.581 12.9484C118.339 14.3502 118.718 15.8784 118.718 17.533C118.718 17.8547 118.695 18.1765 118.649 18.4982C118.626 18.7969 118.603 19.0612 118.58 19.291H105.206C105.274 20.0953 105.493 20.7733 105.86 21.3248C106.251 21.8763 106.745 22.3015 107.343 22.6002C107.94 22.876 108.572 23.0139 109.239 23.0139C110.066 23.0139 110.836 22.8185 111.548 22.4279C112.284 22.0372 112.789 21.5086 113.065 20.8422L117.753 22.1521C117.293 23.0943 116.638 23.9331 115.788 24.6685C114.961 25.3809 113.973 25.9439 112.824 26.3575C111.698 26.7712 110.445 26.978 109.066 26.978ZM105.068 15.9129H112.927C112.835 15.1545 112.617 14.4996 112.272 13.9481C111.927 13.3735 111.468 12.9369 110.893 12.6382C110.319 12.3164 109.687 12.1556 108.997 12.1556C108.285 12.1556 107.641 12.3164 107.067 12.6382C106.515 12.9369 106.067 13.3735 105.723 13.9481C105.378 14.4996 105.16 15.1545 105.068 15.9129Z" fill="#8C32B7"/>
<path d="M132.386 26.8401C130.548 26.8401 128.882 26.4954 127.388 25.806C125.917 25.0936 124.642 24.1514 123.562 22.9794C122.505 21.7844 121.689 20.4515 121.114 18.9808C120.54 17.4871 120.253 15.9474 120.253 14.3617C120.253 12.7301 120.551 11.1789 121.149 9.70815C121.769 8.2374 122.62 6.92751 123.7 5.77848C124.803 4.60648 126.101 3.68726 127.595 3.02082C129.089 2.35439 130.72 2.02117 132.49 2.02117C134.305 2.02117 135.948 2.37737 137.419 3.08976C138.913 3.77918 140.188 4.72138 141.245 5.91637C142.325 7.11135 143.153 8.45571 143.727 9.94945C144.302 11.4202 144.589 12.9254 144.589 14.4651C144.589 16.0967 144.29 17.6479 143.693 19.1187C143.095 20.5894 142.245 21.9108 141.142 23.0828C140.039 24.2318 138.74 25.1511 137.247 25.8405C135.776 26.5069 134.156 26.8401 132.386 26.8401ZM126.009 14.4306C126.009 15.3728 126.147 16.2921 126.423 17.1883C126.699 18.0616 127.101 18.8429 127.629 19.5323C128.181 20.2217 128.859 20.7733 129.663 21.1869C130.467 21.6006 131.387 21.8074 132.421 21.8074C133.501 21.8074 134.443 21.6006 135.247 21.1869C136.052 20.7503 136.718 20.1758 137.247 19.4634C137.775 18.751 138.166 17.9582 138.419 17.0849C138.694 16.1887 138.832 15.2809 138.832 14.3617C138.832 13.4195 138.694 12.5118 138.419 11.6385C138.143 10.7653 137.729 9.98392 137.178 9.2945C136.626 8.58211 135.948 8.03057 135.144 7.63991C134.34 7.24924 133.432 7.0539 132.421 7.0539C131.341 7.0539 130.398 7.26073 129.594 7.67438C128.813 8.08803 128.146 8.65105 127.595 9.36344C127.066 10.0529 126.664 10.8457 126.388 11.7419C126.136 12.6152 126.009 13.5114 126.009 14.4306ZM158.266 26.978C156.887 26.978 155.68 26.6908 154.646 26.1162C153.612 25.5187 152.796 24.6914 152.199 23.6343V26.6333H147.407V1.46964H152.923V11.5006C153.52 10.4435 154.313 9.62772 155.301 9.05321C156.312 8.47869 157.496 8.19144 158.852 8.19144C160.001 8.19144 161.046 8.44422 161.989 8.94979C162.954 9.43239 163.781 10.1103 164.47 10.9836C165.183 11.8338 165.734 12.8335 166.125 13.9825C166.516 15.1086 166.711 16.338 166.711 17.6709C166.711 18.9808 166.493 20.1988 166.056 21.3248C165.642 22.4508 165.056 23.439 164.298 24.2893C163.54 25.1396 162.644 25.806 161.609 26.2886C160.598 26.7482 159.484 26.978 158.266 26.978ZM156.715 22.3245C157.335 22.3245 157.91 22.2096 158.438 21.9797C158.99 21.727 159.461 21.3937 159.851 20.9801C160.242 20.5664 160.541 20.0839 160.748 19.5323C160.954 18.9578 161.058 18.3373 161.058 17.6709C161.058 16.8206 160.886 16.0278 160.541 15.2924C160.196 14.557 159.714 13.971 159.093 13.5344C158.496 13.0978 157.795 12.8795 156.99 12.8795C156.416 12.8795 155.864 13.0173 155.336 13.2931C154.807 13.5689 154.336 13.9481 153.922 14.4306C153.509 14.8903 153.176 15.4188 152.923 16.0163V19.8081C153.107 20.1988 153.336 20.555 153.612 20.8767C153.888 21.1754 154.187 21.4282 154.508 21.635C154.853 21.8419 155.209 22.0142 155.577 22.1521C155.968 22.267 156.347 22.3245 156.715 22.3245ZM168.491 33.5964C167.595 33.5964 166.733 33.447 165.906 33.1483C165.056 32.8725 164.298 32.4474 163.631 31.8729L165.941 28.1155C166.17 28.3683 166.458 28.5522 166.802 28.6671C167.124 28.782 167.457 28.8394 167.802 28.8394C168.147 28.8394 168.457 28.759 168.733 28.5981C169.009 28.4603 169.227 28.2419 169.388 27.9432C169.549 27.6444 169.629 27.3112 169.629 26.9435V8.53614H175.144V26.5299C175.144 27.9087 174.846 29.1267 174.248 30.1838C173.674 31.2639 172.881 32.1027 171.87 32.7002C170.881 33.2977 169.755 33.5964 168.491 33.5964ZM169.629 6.4679V1.46964H175.144V6.4679H169.629Z" fill="#234573"/>
<mask id="mask0_274_2022" style="mask-type:alpha" maskUnits="userSpaceOnUse" x="0" y="0" width="30" height="29">
<path d="M13.3393 0.743713C14.3153 0.273734 15.4521 0.273733 16.428 0.743712L24.9759 4.86014C25.9518 5.33012 26.6606 6.21893 26.9016 7.27496L29.0128 16.5245C29.2538 17.5805 29.0008 18.6888 28.3255 19.5357L22.4102 26.9533C21.7348 27.8001 20.7106 28.2934 19.6274 28.2934H10.14C9.05678 28.2934 8.03253 27.8001 7.35718 26.9533L1.44188 19.5357C0.76652 18.6888 0.513552 17.5805 0.754584 16.5245L2.86573 7.27496C3.10676 6.21893 3.81556 5.33012 4.79148 4.86014L13.3393 0.743713Z" fill="#234573"/>
</mask>
<g mask="url(#mask0_274_2022)">
<path d="M5.05549 15.4377C-0.897719 15.809 -0.338622 20.2344 0.685079 22.4006C-2.52778 22.6792 -4.66966 23.5998 -5.33899 24.0253C2.50413 21.333 24.6239 22.6714 34.7034 23.6772C33.9475 23.1201 30.1362 22.594 28.325 22.4006C31.1599 15.0663 26.1201 13.078 23.2459 13.0006C23.2459 12.3043 23.1278 11.2599 22.8915 10.7957H20.6472V8.24256C15.072 4.71465 11.5521 8.78415 10.489 11.2599C5.85872 10.4243 4.93738 13.6969 5.05549 15.4377Z" fill="white"/>
</g>
<rect x="10.678" y="12.4575" width="2.84747" height="2.84747" fill="#234573"/>
<rect x="14.5931" y="12.4575" width="2.84747" height="2.84747" fill="#234573"/>
<rect x="14.5931" y="16.0171" width="2.84747" height="2.84747" fill="#234573"/>
<rect x="18.5085" y="12.4575" width="2.84747" height="2.84747" fill="#234573"/>
<rect x="21.356" y="7.11841" width="2.6695" height="2.6695" fill="white"/>
<rect x="18.5085" y="18.3779" width="2.84747" height="2.84747" fill="#234573"/>
</svg>
