<svg xmlns="http://www.w3.org/2000/svg" viewBox="0 0 235.64 39" xmlns:v="https://vecta.io/nano"><g fill="#2516c7"><path d="M16.92,39a8.66,8.66,0,0,1-1.74-1,29,29,0,0,1-9-9.5A38.79,38.79,0,0,1,.73,12.9,37.59,37.59,0,0,1,.55,5.63c0-.31.12-.38.42-.38a12.91,12.91,0,0,0,4.86-.61,14.42,14.42,0,0,0,3.49-2A14.09,14.09,0,0,1,13.41.47,11.23,11.23,0,0,1,16.92,0V2.38a10.66,10.66,0,0,0-3.12.5A14.55,14.55,0,0,0,10.29,5,13.64,13.64,0,0,1,3.14,7.62c-.31,0-.26.2-.26.39a34.9,34.9,0,0,0,.64,7.07,35.47,35.47,0,0,0,6.54,15,24.58,24.58,0,0,0,6.86,6.27Z"/><path d="M16.92 39v-2.69a2.39 2.39 0 0 0 .22-.12 25 25 0 0 0 6.41-5.85A35 35 0 0 0 30 16.58 37.49 37.49 0 0 0 31 8c0-.28-.07-.38-.36-.4a14 14 0 0 1-1.45-.19 13.77 13.77 0 0 1-6-2.72 9.94 9.94 0 0 0-6.3-2.32V0a10.65 10.65 0 0 1 6.14 1.7l2.28 1.55a11.33 11.33 0 0 0 6.69 2h.38c.86 0 .87 0 .91.84a38.6 38.6 0 0 1-6.62 24 27.46 27.46 0 0 1-8.46 8.23 5.75 5.75 0 0 1-1.29.68zm-2.1-7.3a25.24 25.24 0 0 1-4.5-5.54 33.84 33.84 0 0 1-4.81-14.09l-.17-2c0-.18 0-.31.23-.36A15.61 15.61 0 0 0 9.3 8.38a32 32 0 0 1 4.7 7.55 22.14 22.14 0 0 1 1.8 7.36 22.24 22.24 0 0 1-.71 7.21 4.48 4.48 0 0 0-.27 1.2zm8.8-23.82a16.31 16.31 0 0 0 4.65 1.82c.31.06.23.27.22.44a32.44 32.44 0 0 1-.86 6A32.16 32.16 0 0 1 21 29.69a15.93 15.93 0 0 1-1.94 2 .61.61 0 0 1 .13-.39 30.43 30.43 0 0 0 2.57-5.52 35.4 35.4 0 0 0 1.68-7 38 38 0 0 0 .4-5.11 56.87 56.87 0 0 0-.22-5.79z"/></g><path d="M14.82 31.7a4.48 4.48 0 0 1 .29-1.2 22.24 22.24 0 0 0 .71-7.21A22.14 22.14 0 0 0 14 15.93a32 32 0 0 0-4.7-7.55 27.56 27.56 0 0 0 2.77-1.76c.24-.17.35-.16.51.09a30.25 30.25 0 0 1 2.51 4.74 31.11 31.11 0 0 1 2.18 15 39.1 39.1 0 0 1-1 6 .75.75 0 0 1-.16.4 10.48 10.48 0 0 1-1.29-1.15zm8.8-23.82a56.87 56.87 0 0 1 .17 5.84 38 38 0 0 1-.4 5.11 35.4 35.4 0 0 1-1.68 7 30.43 30.43 0 0 1-2.57 5.52.61.61 0 0 0-.13.39h0a.15.15 0 0 0-.16.15A7.77 7.77 0 0 1 17.52 33l-.06-.05a35.76 35.76 0 0 0 2.75-7.35 34.45 34.45 0 0 0 .93-10.27 39 39 0 0 0-1.94-10v-.21a30.92 30.92 0 0 1 4.42 2.76z" fill="#e86830"/><path d="M18.84 31.85a.15.15 0 0 1 .16-.15zM17.52 33h-.08v-.1z" fill="#326ce5"/><path d="M55.89 33.12L47.31 20.7v12.42h-6.13V6.3h6.13v11.64l8.2-11.64h7l-9 13.06 9.42 13.76zM82.33 14v19.12h-5.75v-1.81a6.55 6.55 0 0 1-5.48 2.34c-3.87 0-7.16-2.76-7.16-7.93V14h5.74v10.88A3.16 3.16 0 0 0 73 28.36c2.1 0 3.56-1.22 3.56-3.94V14zm24.82 9.54c0 5.71-4.14 10.11-9.15 10.11a7.18 7.18 0 0 1-5.71-2.34v1.81h-5.75V6.3h5.75v9.46A7.18 7.18 0 0 1 98 13.42c5 0 9.15 4.41 9.15 10.12zm-5.74 0a4.56 4.56 0 1 0-9.12 0 4.56 4.56 0 1 0 9.12 0zm18.73 4.98a5 5 0 0 0 3.68-1.46l4.6 2.65a9.75 9.75 0 0 1-8.36 3.94c-6.55 0-10.61-4.4-10.61-10.11a9.83 9.83 0 0 1 10.19-10.12c5.6 0 9.73 4.33 9.73 10.12a10.75 10.75 0 0 1-.23 2.3h-13.6c.73 1.99 2.46 2.68 4.6 2.68zm3.52-7a4.31 4.31 0 0 0-8.23 0zm23.07 5.85c0 4.4-3.83 6.28-8 6.28-3.83 0-6.74-1.45-8.24-4.56l5-2.83a3.15 3.15 0 0 0 3.26 2.26c1.38 0 2.07-.42 2.07-1.19 0-2.11-9.43-1-9.43-7.62 0-4.18 3.53-6.29 7.51-6.29a8.37 8.37 0 0 1 7.47 4.1l-4.9 2.65a2.78 2.78 0 0 0-2.57-1.69c-1 0-1.61.38-1.61 1.07.01 2.19 9.44.73 9.44 7.82zM168 21.35v11.77h-5.74V22.2a3.16 3.16 0 0 0-3.34-3.49c-2.1 0-3.56 1.23-3.56 3.95v10.46h-5.76V6.3h5.75v9.46a6.54 6.54 0 0 1 5.48-2.34c3.87 0 7.17 2.76 7.17 7.93z" fill="#2516c7"/><circle cx="174.81" cy="8.83" r="3.45" fill="#e86830"/><path d="M171.94 13.96h5.75v19.16h-5.75zm19.69 14.56a5 5 0 0 0 3.68-1.46l4.6 2.65a9.74 9.74 0 0 1-8.35 3.94c-6.56 0-10.62-4.4-10.62-10.11a9.83 9.83 0 0 1 10.19-10.12c5.6 0 9.74 4.33 9.74 10.12a11.43 11.43 0 0 1-.23 2.3H187c.76 1.99 2.52 2.68 4.63 2.68zm3.53-7a4.32 4.32 0 0 0-8.24 0zm8.96-16.37h5.75v28h-5.75zm29.62 1.15v26.82H228v-1.81a7.18 7.18 0 0 1-5.71 2.34c-5 0-9.16-4.4-9.16-10.11s4.14-10.12 9.16-10.12a7.18 7.18 0 0 1 5.71 2.34V6.3zM228 23.54a4.56 4.56 0 1 0-9.12 0 4.56 4.56 0 1 0 9.12 0z" fill="#2516c7"/></svg>