<svg id="Layer_1" data-name="Layer 1" xmlns="http://www.w3.org/2000/svg" viewBox="0 0 235.64 39"><defs><style>.cls-1{fill:#2516c7;}.cls-2{fill:#e86830;}.cls-3{fill:#326ce5;}</style></defs><title>kubeshild</title><path class="cls-1" d="M16.92,39a8.66,8.66,0,0,1-1.74-1,29,29,0,0,1-9-9.5A38.79,38.79,0,0,1,.73,12.9,37.59,37.59,0,0,1,.55,5.63c0-.31.12-.38.42-.38a12.91,12.91,0,0,0,4.86-.61,14.42,14.42,0,0,0,3.49-2A14.09,14.09,0,0,1,13.41.47,11.23,11.23,0,0,1,16.92,0V2.38a10.66,10.66,0,0,0-3.12.5A14.55,14.55,0,0,0,10.29,5,13.64,13.64,0,0,1,3.14,7.62c-.31,0-.26.2-.26.39a34.9,34.9,0,0,0,.64,7.07,35.47,35.47,0,0,0,6.54,15,24.58,24.58,0,0,0,6.86,6.27Z"/><path class="cls-1" d="M16.92,39V36.31a2.39,2.39,0,0,0,.22-.12,25,25,0,0,0,6.41-5.85A35,35,0,0,0,30,16.58,37.49,37.49,0,0,0,31,8c0-.28-.07-.38-.36-.4a14,14,0,0,1-1.45-.19,13.77,13.77,0,0,1-6-2.72,9.94,9.94,0,0,0-6.3-2.32V0a10.65,10.65,0,0,1,6.14,1.7c.77.51,1.53,1,2.28,1.55a11.33,11.33,0,0,0,6.69,2h.38c.86,0,.87,0,.91.84a38.6,38.6,0,0,1-6.62,24,27.46,27.46,0,0,1-8.46,8.23A5.75,5.75,0,0,1,16.92,39Z"/><path class="cls-1" d="M14.82,31.7a25.24,25.24,0,0,1-4.5-5.54A33.84,33.84,0,0,1,5.51,12.07c-.07-.67-.11-1.35-.17-2,0-.18,0-.31.23-.36A15.61,15.61,0,0,0,9.3,8.38,32,32,0,0,1,14,15.93a22.14,22.14,0,0,1,1.8,7.36,22.24,22.24,0,0,1-.71,7.21A4.48,4.48,0,0,0,14.82,31.7Z"/><path class="cls-1" d="M23.62,7.88A16.31,16.31,0,0,0,28.27,9.7c.31.06.23.27.22.44a32.44,32.44,0,0,1-.86,6A32.16,32.16,0,0,1,21,29.69a15.93,15.93,0,0,1-1.94,2,.61.61,0,0,1,.13-.39,30.43,30.43,0,0,0,2.57-5.52,35.4,35.4,0,0,0,1.68-7,38,38,0,0,0,.4-5.11A56.87,56.87,0,0,0,23.62,7.88Z"/><path class="cls-2" d="M14.82,31.7a4.48,4.48,0,0,1,.29-1.2,22.24,22.24,0,0,0,.71-7.21A22.14,22.14,0,0,0,14,15.93,32,32,0,0,0,9.3,8.38a27.56,27.56,0,0,0,2.77-1.76c.24-.17.35-.16.51.09a30.25,30.25,0,0,1,2.51,4.74,31.11,31.11,0,0,1,2.18,15,39.1,39.1,0,0,1-1,6,.75.75,0,0,1-.16.4A10.48,10.48,0,0,1,14.82,31.7Z"/><path class="cls-2" d="M23.62,7.88a56.87,56.87,0,0,1,.17,5.84,38,38,0,0,1-.4,5.11,35.4,35.4,0,0,1-1.68,7,30.43,30.43,0,0,1-2.57,5.52.61.61,0,0,0-.13.39h0a.15.15,0,0,0-.16.15A7.77,7.77,0,0,1,17.52,33l-.06-.05a35.76,35.76,0,0,0,2.75-7.35,34.45,34.45,0,0,0,.93-10.27,39,39,0,0,0-1.94-10s0-.08,0-.21A30.92,30.92,0,0,1,23.62,7.88Z"/><path class="cls-3" d="M18.84,31.85A.15.15,0,0,1,19,31.7Z"/><path class="cls-3" d="M17.52,33l-.08,0s0-.07,0-.1Z"/><path class="cls-1" d="M55.89,33.12,47.31,20.7V33.12H41.18V6.3h6.13V17.94L55.51,6.3h7l-9,13.06,9.42,13.76Z"/><path class="cls-1" d="M82.33,14V33.12H76.58V31.31a6.55,6.55,0,0,1-5.48,2.34c-3.87,0-7.16-2.76-7.16-7.93V14h5.74V24.88A3.16,3.16,0,0,0,73,28.36c2.1,0,3.56-1.22,3.56-3.94V14Z"/><path class="cls-1" d="M107.15,23.54c0,5.71-4.14,10.11-9.15,10.11a7.18,7.18,0,0,1-5.71-2.34v1.81H86.54V6.3h5.75v9.46A7.18,7.18,0,0,1,98,13.42C103,13.42,107.15,17.83,107.15,23.54Zm-5.74,0a4.56,4.56,0,1,0-9.12,0,4.56,4.56,0,1,0,9.12,0Z"/><path class="cls-1" d="M120.14,28.52a5,5,0,0,0,3.68-1.46l4.6,2.65a9.75,9.75,0,0,1-8.36,3.94c-6.55,0-10.61-4.4-10.61-10.11a9.83,9.83,0,0,1,10.19-10.12c5.6,0,9.73,4.33,9.73,10.12a10.75,10.75,0,0,1-.23,2.3h-13.6C116.27,27.83,118,28.52,120.14,28.52Zm3.52-7a4.31,4.31,0,0,0-8.23,0Z"/><path class="cls-1" d="M146.73,27.37c0,4.4-3.83,6.28-8,6.28-3.83,0-6.74-1.45-8.24-4.56l5-2.83a3.15,3.15,0,0,0,3.26,2.26c1.38,0,2.07-.42,2.07-1.19,0-2.11-9.43-1-9.43-7.62,0-4.18,3.53-6.29,7.51-6.29a8.37,8.37,0,0,1,7.47,4.1l-4.9,2.65a2.78,2.78,0,0,0-2.57-1.69c-1,0-1.61.38-1.61,1.07C137.3,21.74,146.73,20.28,146.73,27.37Z"/><path class="cls-1" d="M168,21.35V33.12h-5.74V22.2a3.16,3.16,0,0,0-3.34-3.49c-2.1,0-3.56,1.23-3.56,3.95V33.12H149.6V6.3h5.75v9.46a6.54,6.54,0,0,1,5.48-2.34C164.7,13.42,168,16.18,168,21.35Z"/><circle class="cls-2" cx="174.81" cy="8.83" r="3.45"/><rect class="cls-1" x="171.94" y="13.96" width="5.75" height="19.16"/><path class="cls-1" d="M191.63,28.52a5,5,0,0,0,3.68-1.46l4.6,2.65a9.74,9.74,0,0,1-8.35,3.94c-6.56,0-10.62-4.4-10.62-10.11a9.83,9.83,0,0,1,10.19-10.12c5.6,0,9.74,4.33,9.74,10.12a11.43,11.43,0,0,1-.23,2.3H187C187.76,27.83,189.52,28.52,191.63,28.52Zm3.53-7a4.32,4.32,0,0,0-8.24,0Z"/><path class="cls-1" d="M204.12,5.15h5.75v28h-5.75Z"/><path class="cls-1" d="M233.74,6.3V33.12H228V31.31a7.18,7.18,0,0,1-5.71,2.34c-5,0-9.16-4.4-9.16-10.11s4.14-10.12,9.16-10.12A7.18,7.18,0,0,1,228,15.76V6.3ZM228,23.54a4.56,4.56,0,1,0-9.12,0,4.56,4.56,0,1,0,9.12,0Z"/></svg>