<svg xmlns="http://www.w3.org/2000/svg" width="180" height="46" fill="none" xmlns:v="https://vecta.io/nano"><g clip-path="url(#A)"><g fill="#2516c7"><path d="M42.162 25.299l-6.444-9.316v9.32h-4.603V5.163h4.603v8.752l6.157-8.752h5.235l-6.787 9.809 7.08 10.327h-5.24zm19.841-14.383v14.383H57.69v-1.352c-.777 1.072-2.216 1.754-4.108 1.754-2.906 0-5.38-2.07-5.38-5.953v-8.832h4.308v8.198c0 1.786 1.122 2.618 2.5 2.618 1.584 0 2.679-.92 2.679-2.963V10.91l4.313.005zm18.633 7.191c0 4.287-3.106 7.594-6.874 7.594-1.927 0-3.336-.659-4.287-1.754v1.352h-4.313V5.163h4.313v7.105c.95-1.093 2.359-1.756 4.287-1.756 3.769 0 6.874 3.31 6.874 7.594zm-4.313 0c0-2.156-1.439-3.508-3.424-3.508s-3.424 1.352-3.424 3.508 1.44 3.511 3.424 3.511 3.424-1.348 3.424-3.511zm14.06 3.742c1.179 0 2.186-.461 2.761-1.093l3.453 1.984c-1.409 1.956-3.538 2.961-6.271 2.961-4.919 0-7.968-3.306-7.968-7.594s3.106-7.594 7.651-7.594c4.199 0 7.307 3.252 7.307 7.594 0 .581-.06 1.16-.179 1.729H86.931c.546 1.493 1.87 2.013 3.452 2.013zm2.647-5.235c-.461-1.67-1.756-2.274-3.049-2.274-1.64 0-2.733.806-3.136 2.274h6.185zm5.773 4.111l3.967-2.3c.714 1.668 1.964 2.792 4.227 2.792 2.186 0 2.733-.864 2.733-1.641 0-1.238-1.15-1.725-4.171-2.559-2.991-.834-5.926-2.274-5.926-6.128 0-3.883 3.279-6.128 6.76-6.128 3.308 0 5.894 1.582 7.364 4.545l-3.879 2.274c-.691-1.44-1.64-2.322-3.481-2.322-1.429 0-2.158.714-2.158 1.524 0 .92.49 1.552 3.626 2.5 3.049.92 6.471 1.984 6.471 6.251 0 3.883-3.106 6.183-7.478 6.183-4.23-.014-6.934-2.027-8.055-4.99zm31.493-4.256v8.83h-4.308v-8.198c0-1.786-1.122-2.618-2.501-2.618-1.582 0-2.679.922-2.679 2.965v7.859h-4.32V5.163h4.32v7.105c.777-1.072 2.215-1.756 4.108-1.756 2.906 0 5.38 2.077 5.38 5.957z"/></g><path d="M132.821 7.062c0-.512.152-1.013.437-1.439s.689-.758 1.162-.954a2.59 2.59 0 0 1 1.496-.147c.503.1.964.347 1.326.709a2.59 2.59 0 0 1 .562 2.822 2.59 2.59 0 0 1-2.393 1.599c-.685-.007-1.34-.281-1.824-.766a2.62 2.62 0 0 1-.766-1.824z" fill="#e86830"/><g fill="#2516c7"><path d="M137.569 10.916h-4.316v14.383h4.316V10.916zm10.466 10.933c1.181 0 2.186-.461 2.763-1.093l3.451 1.984c-1.41 1.956-3.539 2.961-6.269 2.961-4.921 0-7.97-3.306-7.97-7.594s3.106-7.594 7.652-7.594c4.2 0 7.306 3.252 7.306 7.594a8.3 8.3 0 0 1-.178 1.729h-10.206c.547 1.493 1.87 2.013 3.451 2.013zm2.647-5.235c-.461-1.67-1.754-2.274-3.049-2.274-1.639 0-2.733.806-3.134 2.274h6.183zm6.726-12.313h4.314V25.3h-4.314V4.301zm22.233.862v20.136h-4.315v-1.352c-.951 1.095-2.36 1.754-4.287 1.754-3.769 0-6.874-3.306-6.874-7.594s3.105-7.594 6.874-7.594c1.927 0 3.336.663 4.287 1.756V5.163h4.315zm-4.315 12.943c0-2.156-1.429-3.508-3.423-3.508s-3.423 1.352-3.423 3.508 1.428 3.511 3.423 3.511 3.423-1.348 3.423-3.511zM12.583 30c-.472-.191-.919-.44-1.331-.739-2.893-1.872-5.135-4.369-6.912-7.294A29.9 29.9 0 0 1 .214 9.911a29.02 29.02 0 0 1-.141-5.583c.018-.238.093-.296.323-.289 1.263.034 2.511-.038 3.715-.475A11.14 11.14 0 0 0 6.772 2.06C7.746 1.364 8.737.705 9.9.361a8.45 8.45 0 0 1 2.679-.357v1.825a8.15 8.15 0 0 0-2.386.384c-.997.357-1.834.986-2.679 1.593-1.638 1.175-3.431 1.922-5.456 2.05-.243.014-.204.157-.205.3a27.66 27.66 0 0 0 .493 5.433c.814 4.201 2.4 8.069 5.001 11.493a18.78 18.78 0 0 0 5.238 4.822L12.583 30z"/><path d="M12.583 30v-2.097l.168-.089c1.882-1.202 3.539-2.724 4.896-4.497 2.451-3.147 4.026-6.705 4.933-10.572.498-2.16.748-4.369.745-6.585 0-.214-.052-.293-.279-.307-.372-.028-.741-.076-1.107-.145-1.7-.289-3.185-1.072-4.544-2.09-1.429-1.072-2.972-1.825-4.822-1.786V.007a8.07 8.07 0 0 1 4.696 1.307 52.65 52.65 0 0 1 1.743 1.19 8.58 8.58 0 0 0 5.11 1.556h.288c.657 0 .666 0 .697.643.314 6.694-1.323 12.86-5.055 18.437-1.672 2.551-3.879 4.709-6.467 6.323a4.27 4.27 0 0 1-1 .538zm-1.602-5.638a19.29 19.29 0 0 1-3.443-4.256 26.16 26.16 0 0 1-3.67-10.825c-.059-.518-.088-1.039-.13-1.559-.011-.136-.011-.232.179-.27a11.89 11.89 0 0 0 2.849-1.007 24.4 24.4 0 0 1 3.606 5.801 17 17 0 0 1 .832 11.19c-.087.305-.223.602-.221.927zm6.721-18.306c1.104.648 2.303 1.119 3.552 1.397.238.048.179.207.166.341a25.1 25.1 0 0 1-.652 4.581c-.913 3.865-2.536 7.385-5.106 10.44a12.39 12.39 0 0 1-1.482 1.539.52.52 0 0 1 .096-.3 23.38 23.38 0 0 0 1.965-4.245 27.04 27.04 0 0 0 1.281-5.337c.192-1.301.296-2.614.311-3.929-.002-1.493.025-2.993-.13-4.487z"/></g><g fill="#e86830"><path d="M10.981 24.362c0-.325.134-.622.216-.927a17 17 0 0 0-.832-11.19 24.4 24.4 0 0 0-3.606-5.801A21.02 21.02 0 0 0 8.88 5.088c.179-.134.261-.123.384.071.747 1.153 1.39 2.37 1.92 3.638 1.532 3.697 2.02 7.546 1.668 11.518a30.29 30.29 0 0 1-.773 4.597c-.013.111-.055.217-.121.307a7.74 7.74 0 0 1-.977-.859zm6.72-18.306c.155 1.493.129 2.993.13 4.492-.015 1.315-.119 2.628-.311 3.929a26.97 26.97 0 0 1-1.281 5.337 23.32 23.32 0 0 1-1.965 4.246.52.52 0 0 0-.096.3c-.016 0-.032.003-.047.009s-.028.015-.04.026-.02.025-.026.04-.009.031-.009.047c-.307.32-.647.605-1.014.852-.013-.015-.027-.028-.043-.039a27.71 27.71 0 0 0 2.102-5.646 26.57 26.57 0 0 0 .714-7.894 30.01 30.01 0 0 0-1.481-7.662c-.009-.03-.012-.063-.032-.164 1.279.522 2.268 1.441 3.397 2.129z"/></g><g fill="#326ce5"><path d="M14.051 24.479a.12.12 0 0 1 .009-.047c.006-.015.015-.028.026-.04a.12.12 0 0 1 .04-.026c.015-.006.031-.009.047-.009l-.121.121zm-1.015.852l-.055.034c0-.025.009-.048.012-.073.016.011.03.024.043.039z"/></g><g fill="#fc6011"><path d="M4.986 39.94H1.482v2.625h4.096v1.183H0v-8.531h5.537v1.195H1.482v2.355h3.504v1.172zm16.983-2.532l.041.732c.469-.566 1.084-.85 1.846-.85 1.32 0 1.992.756 2.016 2.268v4.189h-1.424V39.64c0-.402-.088-.699-.264-.891s-.455-.293-.85-.293c-.574 0-1.002.26-1.283.779v4.512h-1.424v-6.34h1.342zm21.142-1.541v1.541h1.119v1.055h-1.119v3.539c0 .242.047.418.141.527s.27.158.516.158a2.19 2.19 0 0 0 .498-.059v1.102a3.5 3.5 0 0 1-.937.135c-1.094 0-1.641-.604-1.641-1.811v-3.592h-1.043v-1.055h1.043v-1.541h1.424zm19.004 7.998c-.902 0-1.635-.283-2.197-.85s-.838-1.328-.838-2.273v-.176c0-.633.121-1.197.363-1.693a2.8 2.8 0 0 1 1.031-1.166 2.72 2.72 0 0 1 1.477-.416c.863 0 1.529.275 1.998.826s.709 1.33.709 2.338v.574h-4.143c.043.523.217.938.522 1.242a1.58 1.58 0 0 0 1.16.457c.652 0 1.184-.264 1.594-.791l.768.732a2.58 2.58 0 0 1-1.02.885 3.19 3.19 0 0 1-1.424.311zm-.17-5.432c-.391 0-.707.137-.949.41s-.391.654-.457 1.142h2.713v-.105c-.031-.477-.158-.836-.381-1.078s-.531-.369-.926-.369zm21.143.276a3.52 3.52 0 0 0-.58-.047c-.652 0-1.092.25-1.318.75v4.336h-1.424v-6.34h1.359l.035.709c.344-.551.82-.826 1.43-.826.203 0 .371.027.504.082l-.006 1.336zm20.451 1.934c0 .98-.223 1.764-.668 2.35a2.14 2.14 0 0 1-1.793.873c-.695 0-1.252-.229-1.67-.686v3.006h-1.424v-8.777h1.313l.059.645c.418-.508.986-.762 1.706-.762.773 0 1.378.289 1.816.867s.662 1.373.662 2.396v.088zm-1.418-.123c0-.633-.127-1.135-.381-1.506s-.609-.557-1.078-.557c-.582 0-1 .24-1.254.721v2.813c.258.492.68.738 1.266.738a1.22 1.22 0 0 0 1.06-.545c.258-.367.387-.922.387-1.664zm19.947-1.811a3.54 3.54 0 0 0-.58-.047c-.652 0-1.092.25-1.318.75v4.336h-1.424v-6.34h1.359l.036.709c.343-.551.82-.826 1.429-.826.203 0 .371.027.504.082l-.006 1.336zm16.414 5.039h-1.423v-6.34h1.423v6.34zm-1.511-7.986a.76.76 0 0 1 .205-.545c.14-.145.34-.217.597-.217s.457.072.598.217.211.326.211.545a.74.74 0 0 1-.211.539c-.141.141-.34.211-.598.211s-.457-.07-.597-.211-.205-.324-.205-.539zm20.621 6.263c0-.254-.106-.447-.317-.58s-.552-.25-1.037-.352-.888-.23-1.213-.387c-.711-.344-1.066-.842-1.066-1.494 0-.547.23-1.004.691-1.371s1.047-.551 1.758-.551c.758 0 1.369.188 1.834.563a1.78 1.78 0 0 1 .703 1.459h-1.424a.87.87 0 0 0-.304-.68c-.203-.184-.473-.275-.809-.275-.312 0-.568.072-.767.217s-.293.338-.293.58c0 .219.091.389.275.51s.555.244 1.113.369.996.268 1.313.44.556.371.709.609.234.527.234.867c0 .57-.236 1.033-.709 1.389s-1.092.527-1.857.527c-.52 0-.983-.094-1.389-.281s-.723-.445-.949-.774-.34-.682-.34-1.06h1.383c.019.336.146.596.381.779s.545.27.931.27c.375 0 .661-.07.856-.211a.67.67 0 0 0 .293-.562zm19.437 1.84c-.902 0-1.634-.283-2.197-.85s-.838-1.328-.838-2.273v-.176c0-.633.121-1.197.363-1.693.247-.5.59-.889 1.032-1.166a2.72 2.72 0 0 1 1.476-.416c.864 0 1.53.275 1.998.826.473.551.709 1.33.709 2.338v.574h-4.142c.043.523.216.938.521 1.242a1.58 1.58 0 0 0 1.16.457c.653 0 1.184-.264 1.594-.791l.768.732a2.58 2.58 0 0 1-1.02.885c-.422.207-.896.311-1.424.311zm-.17-5.432c-.39 0-.707.137-.949.41s-.39.654-.457 1.142h2.713v-.105c-.031-.477-.158-.836-.381-1.078s-.531-.369-.926-.369z"/></g></g><defs><clipPath id="A"><path fill="#fff" d="M0 0h180v46H0z"/></clipPath></defs></svg>