<svg id="Layer_1" data-name="Layer 1" xmlns="http://www.w3.org/2000/svg" viewBox="0 0 1279 639"><defs><style>.cls-1{fill:#2516c7;}.cls-2{fill:#e86830;}.cls-3{fill:#326ce5;}</style></defs><title>kubeshild-1280x640</title><path class="cls-1" d="M279.69,534.61l-38-54.9v54.9H214.61V416h27.12v51.52L278,416h30.84l-40,57.79,41.69,60.83Z"/><path class="cls-1" d="M396.62,449.88v84.73H371.2v-8C366.62,532.92,358.15,537,347,537c-17.11,0-31.69-12.2-31.69-35.08v-52h25.42v48.3c0,10.51,6.61,15.42,14.75,15.42,9.32,0,15.76-5.42,15.76-17.45V449.88Z"/><path class="cls-1" d="M506.43,492.25c0,25.25-18.3,44.74-40.5,44.74-11.36,0-19.66-3.9-25.25-10.34v8H415.26V416h25.42v41.86c5.59-6.44,13.89-10.34,25.25-10.34C488.13,447.51,506.43,467,506.43,492.25Zm-25.42,0c0-12.71-8.47-20.68-20.17-20.68s-20.16,8-20.16,20.68,8.47,20.67,20.16,20.67S481,505,481,492.25Z"/><path class="cls-1" d="M563.88,514.28c6.94,0,12.88-2.71,16.27-6.44l20.33,11.69c-8.3,11.53-20.84,17.46-36.94,17.46-29,0-46.94-19.49-46.94-44.74s18.3-44.74,45.07-44.74c24.75,0,43.05,19.15,43.05,44.74a49.12,49.12,0,0,1-1,10.17H543.54C546.76,511.23,554.56,514.28,563.88,514.28Zm15.59-30.84c-2.71-9.83-10.34-13.39-18-13.39-9.66,0-16.1,4.74-18.47,13.39Z"/><path class="cls-1" d="M681.49,509.19c0,19.49-17,27.8-35.25,27.8-17,0-29.83-6.44-36.44-20.17l22-12.54c2.21,6.44,6.95,10,14.41,10,6.1,0,9.15-1.87,9.15-5.25,0-9.32-41.69-4.41-41.69-33.73,0-18.47,15.59-27.79,33.21-27.79,13.73,0,25.93,6.1,33.05,18.13l-21.69,11.7c-2.37-4.41-5.76-7.46-11.36-7.46-4.4,0-7.11,1.69-7.11,4.74C639.8,484.28,681.49,477.84,681.49,509.19Z"/><path class="cls-1" d="M775.54,482.59v52H750.12V486.32c0-10.51-6.61-15.42-14.74-15.42-9.33,0-15.76,5.42-15.76,17.45v46.26H694.2V416h25.42v41.86c4.57-6.27,13-10.34,24.23-10.34C761,447.51,775.54,459.71,775.54,482.59Z"/><circle class="cls-2" cx="805.7" cy="427.17" r="15.25"/><rect class="cls-1" x="792.99" y="449.88" width="25.42" height="84.73"/><path class="cls-1" d="M880.1,514.28c6.94,0,12.88-2.71,16.27-6.44l20.33,11.69C908.4,531.06,895.86,537,879.76,537c-29,0-46.94-19.49-46.94-44.74s18.3-44.74,45.07-44.74c24.75,0,43.05,19.15,43.05,44.74a49.12,49.12,0,0,1-1,10.17H859.76C863,511.23,870.78,514.28,880.1,514.28Zm15.59-30.84c-2.71-9.83-10.34-13.39-18-13.39-9.66,0-16.09,4.74-18.47,13.39Z"/><path class="cls-1" d="M935.34,410.91h25.42v123.7H935.34Z"/><path class="cls-1" d="M1066.34,416V534.61h-25.42v-8c-5.6,6.44-13.9,10.34-25.25,10.34-22.2,0-40.51-19.49-40.51-44.74s18.31-44.74,40.51-44.74c11.35,0,19.65,3.9,25.25,10.34V416Zm-25.42,76.26c0-12.71-8.48-20.68-20.17-20.68s-20.17,8-20.17,20.68,8.48,20.67,20.17,20.67S1040.92,505,1040.92,492.25Z"/><path class="cls-1" d="M640.54,370.09c-4.37-1.49-8.1-4.16-11.92-6.63-25.93-16.76-46-39.14-61.93-65.35-20.22-33.27-32.27-69.39-37-108a259.8,259.8,0,0,1-1.26-50c.15-2.14.83-2.66,2.89-2.6,11.31.31,22.5-.33,33.3-4.25,8.71-3.17,16.37-8.13,23.84-13.47,8.71-6.23,17.61-12.14,28-15.23a75.6,75.6,0,0,1,24-3.19q0,8.17,0,16.35c-7.26.34-14.46.95-21.38,3.44-8.95,3.22-16.45,8.84-24,14.28-14.67,10.53-30.74,17.22-48.88,18.36-2.18.14-1.83,1.41-1.84,2.7a248.38,248.38,0,0,0,4.4,48.68c7.3,37.64,21.52,72.31,44.79,103,13,17.19,28.37,32,46.93,43.18Q640.54,360.7,640.54,370.09Z"/><path class="cls-1" d="M640.54,370.09q0-9.39,0-18.78c.51-.26,1-.5,1.51-.8a171.56,171.56,0,0,0,43.88-40.3c22-28.2,36.06-60.07,44.19-94.73a260.7,260.7,0,0,0,6.69-59c0-1.92-.47-2.63-2.49-2.76a95.09,95.09,0,0,1-9.92-1.28c-15.24-2.61-28.54-9.55-40.71-18.73-12.83-9.67-26.64-16.37-43.13-16q0-8.18,0-16.35c15.2-.33,29.3,3.35,42.08,11.7,5.27,3.45,10.46,7,15.61,10.66,13.73,9.72,29.09,14,45.79,13.94h2.58c5.89,0,6,0,6.23,5.77,2.82,60-11.85,115.23-45.29,165.21-15.3,22.88-34.38,42.12-57.95,56.66C646.68,367.06,643.89,369.11,640.54,370.09Z"/><path class="cls-1" d="M626.2,319.57a172.76,172.76,0,0,1-30.86-38.13c-18.24-29.85-29-62.29-32.89-97-.53-4.65-.78-9.32-1.17-14-.11-1.21-.1-2.08,1.55-2.41a107.11,107.11,0,0,0,25.52-9c13,15.92,24.17,33,32.31,52a152.35,152.35,0,0,1,7.47,100.28C627.38,314,626.17,316.65,626.2,319.57Z"/><path class="cls-1" d="M686.42,155.54c10,5.65,20.5,10.2,31.83,12.51,2.13.44,1.54,1.87,1.49,3.07a225.51,225.51,0,0,1-5.85,41c-8.18,34.64-22.73,66.18-45.75,93.55a110.32,110.32,0,0,1-13.29,13.79,4.68,4.68,0,0,1,.87-2.68,210.34,210.34,0,0,0,17.61-38A240.87,240.87,0,0,0,684.8,231a260.35,260.35,0,0,0,2.78-35.16C687.57,182.36,687.8,168.93,686.42,155.54Z"/><path class="cls-2" d="M626.2,319.57c0-2.92,1.18-5.57,1.93-8.3A152.35,152.35,0,0,0,620.66,211c-8.14-19-19.29-36.05-32.31-52a186.74,186.74,0,0,0,19-12.14c1.61-1.19,2.33-1.09,3.45.64A206.15,206.15,0,0,1,628,180.12c13.74,33.14,18.1,67.63,15,103.22A270.18,270.18,0,0,1,636,324.51a5.7,5.7,0,0,1-1.08,2.76A67.54,67.54,0,0,1,626.2,319.57Z"/><path class="cls-2" d="M686.42,155.54c1.38,13.39,1.15,26.82,1.16,40.25A260.35,260.35,0,0,1,684.8,231a240.87,240.87,0,0,1-11.47,47.83,210.34,210.34,0,0,1-17.61,38,4.68,4.68,0,0,0-.87,2.68l-.05,0a1.09,1.09,0,0,0-1.11,1.09,54.74,54.74,0,0,1-9.07,7.63,3.33,3.33,0,0,0-.39-.36,248.38,248.38,0,0,0,18.83-50.58,237.62,237.62,0,0,0,6.38-70.75,269.1,269.1,0,0,0-13.27-68.65c-.09-.27-.11-.56-.29-1.47C667.43,141.14,676.3,149.37,686.42,155.54Z"/><path class="cls-3" d="M653.69,320.63a1.09,1.09,0,0,1,1.11-1.09Z"/><path class="cls-3" d="M644.62,328.26l-.5.3c0-.22.07-.43.11-.65A2.57,2.57,0,0,1,644.62,328.26Z"/></svg>