<svg xmlns="http://www.w3.org/2000/svg" viewBox="0 0 1279 639" xmlns:v="https://vecta.io/nano"><g fill="#2516c7"><path d="M220 403.48a34.57 34.57 0 0 1-7.45-4.14c-16.21-10.48-28.75-24.46-38.7-40.84a167.36 167.36 0 0 1-23.06-67.5 161.66 161.66 0 0 1-.79-31.26c.1-1.33.52-1.66 1.81-1.62 7.06.2 14.06-.21 20.8-2.66a62.88 62.88 0 0 0 14.9-8.41c5.45-3.9 11-7.59 17.51-9.52a47.27 47.27 0 0 1 15-2v10.21a45.32 45.32 0 0 0-13.36 2.16c-5.59 2-10.28 5.52-15 8.92-9.17 6.57-19.21 10.75-30.55 11.47-1.36.09-1.14.88-1.15 1.69a155.91 155.91 0 0 0 2.75 30.41c4.56 23.52 13.45 45.18 28 64.35a105 105 0 0 0 29.32 27l-.03 11.74z"/><path d="M220 403.48v-11.73l.95-.51a107.08 107.08 0 0 0 27.41-25.18c13.71-17.62 22.54-37.53 27.62-59.19a162.91 162.91 0 0 0 4.19-36.87c0-1.2-.29-1.64-1.55-1.72a58.71 58.71 0 0 1-6.2-.8c-9.52-1.63-17.84-6-25.44-11.7-8-6-16.64-10.23-26.95-10v-10.21a45.07 45.07 0 0 1 26.29 7.31c3.3 2.15 6.54 4.38 9.76 6.66a48 48 0 0 0 28.61 8.71h1.61c3.68 0 3.72 0 3.89 3.61 1.77 37.47-7.4 72-28.29 103.22a118.09 118.09 0 0 1-36.21 35.41 24.46 24.46 0 0 1-5.69 2.99zm-8.93-31.57a108.14 108.14 0 0 1-19.28-23.82 146.26 146.26 0 0 1-20.55-60.62l-.73-8.73c-.07-.75-.06-1.3 1-1.5a66.53 66.53 0 0 0 15.94-5.65 136 136 0 0 1 20.19 32.48 94.19 94.19 0 0 1 7.71 31.66 95.42 95.42 0 0 1-3 31c-.54 1.7-1.29 3.36-1.28 5.18zm37.63-102.49a68.35 68.35 0 0 0 19.89 7.82c1.33.27 1 1.17.93 1.91a140.33 140.33 0 0 1-3.66 25.65c-5.11 21.64-14.2 41.35-28.58 58.45a67.7 67.7 0 0 1-8.31 8.62 2.85 2.85 0 0 1 .55-1.67 131.12 131.12 0 0 0 11-23.78 150.94 150.94 0 0 0 7.17-29.88 161.69 161.69 0 0 0 1.73-22c0-8.36.15-16.75-.72-25.12z"/></g><path d="M211.07 371.91c0-1.82.74-3.48 1.21-5.18a95.42 95.42 0 0 0 3-31 94.19 94.19 0 0 0-7.71-31.66 136 136 0 0 0-20.19-32.48 116.1 116.1 0 0 0 11.93-7.59c1-.75 1.46-.68 2.15.4a129.44 129.44 0 0 1 10.75 20.37c8.58 20.71 11.3 42.25 9.34 64.5a168.28 168.28 0 0 1-4.34 25.73 3.53 3.53 0 0 1-.67 1.72 42.42 42.42 0 0 1-5.47-4.81zm37.63-102.49c.87 8.37.72 16.76.72 25.15a161.69 161.69 0 0 1-1.73 22 150.94 150.94 0 0 1-7.17 29.88 131.12 131.12 0 0 1-11 23.78 2.85 2.85 0 0 0-.55 1.67h0a.68.68 0 0 0-.69.68 34.05 34.05 0 0 1-5.67 4.77 1.26 1.26 0 0 0-.24-.22 155.46 155.46 0 0 0 11.76-31.61 148.43 148.43 0 0 0 4-44.2 168.15 168.15 0 0 0-8.29-42.9c-.05-.17-.07-.35-.18-.92 7.18 2.92 12.72 8.07 19.04 11.92z" fill="#e86830"/><path d="M228.25 372.57a.68.68 0 0 1 .69-.68zm-5.67 4.77l-.31.19c0-.14 0-.27.07-.41a1.26 1.26 0 0 1 .24.22z" fill="#326ce5"/><path d="M385.35 376.6l-35.91-51.93v51.93H323.8V264.4h25.64v48.73l34.3-48.73h29.18l-37.83 54.66 39.43 57.54zM496 296.45v80.15h-24v-7.53c-4.33 5.93-12.35 9.77-22.93 9.77-16.19 0-30-11.54-30-33.18v-49.21h24v45.69c0 9.94 6.25 14.58 13.95 14.58 8.81 0 14.91-5.13 14.91-16.51v-43.76zm103.82 40.08c0 23.88-17.31 42.31-38.31 42.31-10.74 0-18.6-3.68-23.89-9.77v7.53h-24V264.4h24V304c5.29-6.09 13.15-9.78 23.89-9.78 21-.01 38.31 18.42 38.31 42.31zm-24.05 0c0-12-8-19.56-19.07-19.56s-19.08 7.54-19.08 19.56 8 19.55 19.08 19.55 19.07-7.53 19.07-19.55zm78.38 20.84c6.58 0 12.19-2.57 15.39-6.1l19.24 11.06c-7.86 10.9-19.72 16.51-34.95 16.51-27.41 0-44.4-18.43-44.4-42.31s17.31-42.32 42.64-42.32c23.4 0 40.71 18.11 40.71 42.32a46.61 46.61 0 0 1-1 9.61h-56.9c3.12 8.34 10.46 11.23 19.27 11.23zm14.75-29.18c-2.56-9.29-9.78-12.66-17-12.66-9.14 0-15.23 4.49-17.47 12.66zm96.5 24.37c0 18.43-16 26.28-33.34 26.28-16 0-28.22-6.09-34.47-19.07l20.84-11.86c2.08 6.09 6.57 9.46 13.63 9.46 5.77 0 8.65-1.77 8.65-5 0-8.82-39.43-4.17-39.43-31.9 0-17.47 14.75-26.29 31.42-26.29 13 0 24.52 5.77 31.25 17.15l-20.51 11.06c-2.25-4.17-5.45-7.05-10.74-7.05-4.17 0-6.74 1.6-6.74 4.49.04 9.17 39.44 3.07 39.44 32.73zm88.96-25.17v49.21h-24.05v-45.68c0-9.94-6.25-14.59-13.94-14.59-8.82 0-14.91 5.13-14.91 16.51v43.76h-24V264.4h24V304c4.33-5.93 12.34-9.78 22.92-9.78 16.19-.01 29.98 11.53 29.98 33.17z" fill="#2516c7"/><circle cx="882.89" cy="274.98" r="14.43" fill="#e86830"/><path d="M870.87 296.45h24.04v80.15h-24.04zm82.39 60.92c6.57 0 12.18-2.57 15.38-6.1l19.24 11.06c-7.86 10.9-19.72 16.51-35 16.51-27.4 0-44.4-18.43-44.4-42.31s17.32-42.32 42.64-42.32c23.4 0 40.72 18.11 40.72 42.32a46.6 46.6 0 0 1-1 9.61H934c3.07 8.34 10.44 11.23 19.26 11.23zM968 328.19c-2.56-9.29-9.78-12.66-17-12.66-9.14 0-15.23 4.49-17.47 12.66zm37.51-68.6h24v117h-24zm123.9 4.81v112.2h-24v-7.53c-5.29 6.09-13.14 9.77-23.88 9.77-21 0-38.31-18.43-38.31-42.31s17.31-42.32 38.31-42.32c10.74 0 18.59 3.69 23.88 9.78V264.4zm-24 72.13c0-12-8-19.56-19.08-19.56s-19.07 7.54-19.07 19.56 8 19.55 19.07 19.55 19.04-7.53 19.04-19.55z" fill="#2516c7"/></svg>