<svg xmlns="http://www.w3.org/2000/svg" width="64" height="64" fill="none" xmlns:v="https://vecta.io/nano"><g fill="#2516c7"><path d="M32.294 46c-.724-.293-1.409-.674-2.04-1.134-4.436-2.87-7.873-6.699-10.598-11.184-3.413-5.636-5.57-11.941-6.326-18.486-.347-2.84-.42-5.707-.216-8.561.027-.364.142-.455.496-.444 1.936.052 3.851-.058 5.696-.728 1.46-.578 2.833-1.353 4.081-2.306 1.492-1.065 3.012-2.076 4.795-2.604a12.96 12.96 0 0 1 4.108-.548v2.799a12.5 12.5 0 0 0-3.659.589c-1.528.548-2.812 1.512-4.108 2.443-2.511 1.802-5.261 2.947-8.366 3.144-.372.022-.312.241-.315.46a42.5 42.5 0 0 0 .756 8.331c1.249 6.441 3.681 12.373 7.668 17.623 2.181 2.954 4.908 5.464 8.032 7.394L32.294 46z"/><path d="M32.294 46v-3.215l.257-.137c2.886-1.843 5.426-4.177 7.506-6.896 3.757-4.825 6.173-10.281 7.564-16.21a44.62 44.62 0 0 0 1.142-10.097c0-.329-.08-.449-.427-.471a15.65 15.65 0 0 1-1.698-.222c-2.607-.444-4.883-1.643-6.967-3.204-2.191-1.643-4.557-2.799-7.394-2.739V.011a12.37 12.37 0 0 1 7.2 2.005c.904.589 1.794 1.2 2.673 1.824 2.291 1.609 5.036 2.445 7.835 2.385h.441c1.008 0 1.022 0 1.068.986.482 10.264-2.029 19.718-7.75 28.271a32.27 32.27 0 0 1-9.916 9.695 6.55 6.55 0 0 1-1.534.824h0zm-2.457-8.646a29.58 29.58 0 0 1-5.28-6.526 40.12 40.12 0 0 1-5.628-16.599l-.2-2.391c-.016-.208-.016-.356.274-.414a18.2 18.2 0 0 0 4.368-1.545 37.37 37.37 0 0 1 5.529 8.895c2.355 5.41 2.805 11.459 1.276 17.157-.134.468-.342.923-.34 1.421zM40.142 9.286a18.8 18.8 0 0 0 5.447 2.142c.364.074.274.318.255.523-.116 2.367-.451 4.719-1 7.025-1.399 5.926-3.889 11.324-7.83 16.007-.688.851-1.448 1.641-2.273 2.361a.79.79 0 0 1 .148-.46 35.78 35.78 0 0 0 3.012-6.51 41.4 41.4 0 0 0 1.964-8.183 44.72 44.72 0 0 0 .477-6.025c-.003-2.29.038-4.59-.2-6.879z"/></g><path d="M29.837 37.354c0-.498.205-.953.331-1.421 1.529-5.699 1.079-11.747-1.276-17.157a37.37 37.37 0 0 0-5.529-8.895 32.24 32.24 0 0 0 3.253-2.079c.274-.205.4-.189.589.11a35.23 35.23 0 0 1 2.944 5.579c2.35 5.669 3.097 11.571 2.558 17.661-.214 2.377-.61 4.733-1.186 7.049-.02.171-.084.333-.186.471a11.8 11.8 0 0 1-1.498-1.317h0zM40.143 9.286c.238 2.289.197 4.59.2 6.888a44.67 44.67 0 0 1-.477 6.025 41.38 41.38 0 0 1-1.964 8.183 35.8 35.8 0 0 1-3.013 6.51.8.8 0 0 0-.148.46h0c-.025 0-.049.004-.072.013a.18.18 0 0 0-.101.101c-.009.023-.014.047-.013.072A9.47 9.47 0 0 1 33 38.844c-.019-.023-.041-.043-.066-.06a42.48 42.48 0 0 0 3.223-8.657 40.74 40.74 0 0 0 1.096-12.105 46.05 46.05 0 0 0-2.27-11.749c-.014-.047-.019-.096-.049-.252 1.961.8 3.478 2.21 5.209 3.264z" fill="#e86830"/><path d="M34.545 37.535c0-.025.004-.049.013-.072a.18.18 0 0 1 .101-.101c.023-.009.047-.014.072-.013l-.186.186zm-1.555 1.306l-.085.052c0-.038.014-.074.019-.112a.34.34 0 0 1 .066.06h0z" fill="#326ce5"/><path d="M6.662 58.808c-.084.885-.415 1.577-.99 2.075s-1.342.741-2.297.741c-.668 0-1.257-.156-1.768-.467s-.898-.762-1.175-1.339S.012 58.57 0 57.806v-.775c0-.783.14-1.472.42-2.069s.681-1.056 1.203-1.379 1.132-.484 1.82-.484c.925 0 1.67.249 2.234.747s.893 1.201.985 2.109H5.211c-.069-.596-.246-1.026-.53-1.288s-.693-.399-1.238-.399c-.633 0-1.121.23-1.463.69s-.511 1.127-.518 2.012v.735c0 .897.161 1.581.484 2.052s.802.707 1.428.707c.572 0 1.002-.127 1.29-.382s.47-.678.547-1.271h1.451zm1.401-.439c0-.604.121-1.147.363-1.63a2.61 2.61 0 0 1 1.019-1.117c.438-.262.941-.393 1.509-.393.841 0 1.522.268 2.044.804s.81 1.246.852 2.132l.006.325c0 .608-.119 1.151-.357 1.63s-.572.849-1.013 1.111-.944.393-1.52.393c-.879 0-1.584-.289-2.113-.866s-.789-1.355-.789-2.32v-.068zm1.399.12c0 .635.132 1.132.397 1.493s.633.536 1.106.536.839-.182 1.1-.547.397-.899.397-1.602c0-.623-.136-1.117-.409-1.482a1.29 1.29 0 0 0-1.1-.547c-.457 0-.82.181-1.088.541s-.403.893-.403 1.607zm7.384-3.146l.04.644c.438-.505 1.036-.758 1.796-.758.833 0 1.403.315 1.71.946.453-.631 1.09-.946 1.912-.946.687 0 1.198.188 1.532.564s.511.931.518 1.664v4.052h-1.399v-4.012c0-.391-.086-.678-.259-.861s-.459-.274-.858-.274c-.319 0-.58.086-.783.257a1.32 1.32 0 0 0-.42.661l.006 4.229h-1.399v-4.058c-.019-.726-.393-1.089-1.123-1.089-.561 0-.958.226-1.192.678v4.468h-1.399v-6.167h1.319zm10.753 0l.04.644c.438-.505 1.036-.758 1.797-.758.833 0 1.403.315 1.71.946.453-.631 1.09-.946 1.912-.946.687 0 1.198.188 1.532.564s.511.931.518 1.664v4.052h-1.399v-4.012c0-.391-.086-.678-.259-.861s-.459-.274-.858-.274c-.319 0-.58.086-.783.257a1.32 1.32 0 0 0-.42.661l.006 4.229h-1.399v-4.058c-.019-.726-.393-1.089-1.123-1.089-.561 0-.958.226-1.192.678v4.468H26.28v-6.167h1.319zm13.211 5.562c-.411.479-.994.718-1.751.718-.676 0-1.188-.196-1.537-.587s-.518-.957-.518-1.698v-3.995h1.399v3.978c0 .783.328 1.174.985 1.174.679 0 1.138-.241 1.376-.724v-4.428h1.399v6.167h-1.319l-.034-.604zm4.568-5.562l.04.712c.461-.551 1.065-.826 1.814-.826 1.297 0 1.958.735 1.981 2.206v4.075h-1.399v-3.995c0-.391-.086-.68-.259-.866s-.447-.285-.835-.285c-.564 0-.985.253-1.261.758v4.389H44.06v-6.167h1.319zm7.246 6.166h-1.399v-6.167h1.399v6.167zm-1.486-7.768c0-.213.067-.389.202-.53s.334-.211.587-.211.449.07.587.211.207.317.207.53a.71.71 0 0 1-.207.524c-.138.14-.334.205-.587.205s-.449-.068-.587-.205a.73.73 0 0 1-.202-.524zm5.259.103v1.499h1.1v1.026h-1.1v3.442c0 .236.046.407.138.513s.265.154.507.154c.161 0 .324-.019.489-.057v1.072a3.48 3.48 0 0 1-.921.131c-1.075 0-1.612-.587-1.612-1.761v-3.494h-1.025v-1.026h1.025v-1.499h1.399zm4.845 5.682l1.267-4.183H64l-2.476 7.102C61.144 63.481 60.499 64 59.589 64a2.53 2.53 0 0 1-.674-.103v-1.072l.265.017c.353 0 .618-.065.795-.194s.322-.338.426-.638l.202-.53-2.188-6.138h1.509l1.319 4.183z" fill="#00a651"/></svg>