<svg id="Layer_1" data-name="Layer 1" xmlns="http://www.w3.org/2000/svg" viewBox="0 0 1279 639"><defs><style>.cls-1{fill:#2516c7;}.cls-2{fill:#e86830;}.cls-3{fill:#326ce5;}</style></defs><title>kubeshild-logo-1280x640</title><path class="cls-1" d="M372.66,377.16,336.58,325v52.18H310.81V264.42h25.77v49l34.47-49h29.31l-38,54.92L402,377.16Z"/><path class="cls-1" d="M483.75,296.63v80.53H459.6v-7.57c-4.35,6-12.41,9.82-23,9.82-16.27,0-30.12-11.59-30.12-33.33V296.63H430.6v45.9c0,10,6.28,14.66,14,14.66,8.87,0,15-5.15,15-16.59v-44Z"/><path class="cls-1" d="M588.08,336.89c0,24-17.39,42.52-38.49,42.52-10.79,0-18.68-3.69-24-9.82v7.57H501.44V264.42h24.15V304.2c5.32-6.12,13.21-9.83,24-9.83C570.69,294.37,588.08,312.9,588.08,336.89Zm-24.15,0c0-12.07-8.06-19.64-19.17-19.64s-19.17,7.57-19.17,19.64,8.06,19.66,19.17,19.66S563.93,349,563.93,336.89Z"/><path class="cls-1" d="M642.65,357.84c6.6,0,12.24-2.58,15.46-6.12l19.33,11.11c-7.89,10.95-19.81,16.58-35.11,16.58-27.54,0-44.61-18.51-44.61-42.52s17.39-42.52,42.84-42.52c23.51,0,40.91,18.21,40.91,42.52a47.28,47.28,0,0,1-1,9.68H623.32C626.38,354.93,633.79,357.84,642.65,357.84Zm14.82-29.31c-2.58-9.35-9.83-12.73-17.07-12.73-9.18,0-15.3,4.51-17.56,12.73Z"/><path class="cls-1" d="M689.79,351.55,712,338.67c4,9.34,11,15.63,23.67,15.63,12.24,0,15.3-4.84,15.3-9.19,0-6.93-6.44-9.66-23.35-14.33-16.75-4.67-33.18-12.73-33.18-34.31,0-21.74,18.36-34.31,37.85-34.31,18.52,0,33,8.86,41.23,25.45L751.8,300.34c-3.87-8.06-9.18-13-19.49-13-8,0-12.08,4-12.08,8.53,0,5.15,2.74,8.69,20.3,14,17.07,5.15,36.23,11.11,36.23,35,0,21.74-17.39,34.62-41.87,34.62C711.21,379.41,696.07,368.14,689.79,351.55Z"/><path class="cls-1" d="M866.12,327.72v49.44H842v-45.9c0-10-6.28-14.66-14-14.66-8.86,0-15,5.16-15,16.6v44H788.81V264.42H813V304.2c4.35-6,12.4-9.83,23-9.83C852.27,294.37,866.12,306,866.12,327.72Z"/><path class="cls-2" d="M880.26,275.05a14.5,14.5,0,1,1,14.5,14.5A14.64,14.64,0,0,1,880.26,275.05Z"/><rect class="cls-1" x="882.68" y="296.63" width="24.16" height="80.53"/><path class="cls-1" d="M965.44,357.84c6.61,0,12.24-2.58,15.47-6.12l19.32,11.11c-7.89,10.95-19.81,16.58-35.1,16.58-27.55,0-44.62-18.51-44.62-42.52s17.39-42.52,42.84-42.52c23.52,0,40.91,18.21,40.91,42.52a46.59,46.59,0,0,1-1,9.68H946.12C949.18,354.93,956.59,357.84,965.44,357.84Zm14.82-29.31c-2.58-9.35-9.82-12.73-17.07-12.73-9.18,0-15.3,4.51-17.55,12.73Z"/><path class="cls-1" d="M1017.92,259.59h24.15V377.16h-24.15Z"/><path class="cls-1" d="M1142.4,264.42V377.16h-24.16v-7.57c-5.32,6.13-13.21,9.82-24,9.82-21.1,0-38.49-18.51-38.49-42.52s17.39-42.52,38.49-42.52c10.79,0,18.68,3.71,24,9.83V264.42Zm-24.16,72.47c0-12.07-8-19.64-19.16-19.64s-19.17,7.57-19.17,19.64,8,19.66,19.17,19.66S1118.24,349,1118.24,336.89Z"/><path class="cls-1" d="M207.05,403.48a35,35,0,0,1-7.45-4.14c-16.2-10.48-28.75-24.46-38.7-40.84A167.41,167.41,0,0,1,137.8,291a162.48,162.48,0,0,1-.79-31.26c.1-1.33.52-1.66,1.81-1.62,7.07.19,14.06-.21,20.8-2.66a62.38,62.38,0,0,0,14.9-8.42c5.45-3.89,11-7.58,17.51-9.51a47.32,47.32,0,0,1,15-2c0,3.41,0,6.81,0,10.22a45.64,45.64,0,0,0-13.36,2.15c-5.58,2-10.27,5.52-15,8.92-9.17,6.58-19.21,10.76-30.55,11.48-1.36.08-1.14.88-1.15,1.68a155.18,155.18,0,0,0,2.76,30.42c4.56,23.52,13.44,45.18,28,64.35a105.15,105.15,0,0,0,29.33,27Q207,397.62,207.05,403.48Z"/><path class="cls-1" d="M207.05,403.48q0-5.87,0-11.74c.31-.16.64-.31.94-.5a107.08,107.08,0,0,0,27.41-25.18c13.72-17.62,22.54-37.54,27.62-59.19A163,163,0,0,0,267.19,270c0-1.2-.29-1.64-1.56-1.72a56.86,56.86,0,0,1-6.2-.81c-9.52-1.62-17.83-6-25.44-11.7-8-6-16.64-10.22-27-10,0-3.41,0-6.81,0-10.22a45.16,45.16,0,0,1,26.29,7.32c3.3,2.15,6.55,4.38,9.76,6.66a48,48,0,0,0,28.61,8.71h1.61c3.68,0,3.73,0,3.9,3.6,1.76,37.48-7.41,72-28.3,103.23a117.83,117.83,0,0,1-36.21,35.4A23.92,23.92,0,0,1,207.05,403.48Z"/><path class="cls-1" d="M198.08,371.91a108,108,0,0,1-19.28-23.83,146.5,146.5,0,0,1-20.55-60.61c-.33-2.9-.49-5.82-.73-8.73-.06-.76-.06-1.3,1-1.51a66.57,66.57,0,0,0,15.95-5.64,136.47,136.47,0,0,1,20.19,32.48,95.17,95.17,0,0,1,4.66,62.65C198.83,368.43,198.07,370.09,198.08,371.91Z"/><path class="cls-1" d="M235.71,269.42a68.63,68.63,0,0,0,19.89,7.82c1.33.27,1,1.16.93,1.91a140.56,140.56,0,0,1-3.65,25.65c-5.11,21.64-14.2,41.35-28.59,58.45a69,69,0,0,1-8.3,8.62,2.9,2.9,0,0,1,.54-1.68,130.72,130.72,0,0,0,11-23.77,151.11,151.11,0,0,0,7.17-29.88,163.32,163.32,0,0,0,1.74-22C236.43,286.18,236.58,277.78,235.71,269.42Z"/><path class="cls-2" d="M198.08,371.91c0-1.82.75-3.48,1.21-5.19a95.17,95.17,0,0,0-4.66-62.65,136.47,136.47,0,0,0-20.19-32.48A117.69,117.69,0,0,0,186.32,264c1-.75,1.46-.69,2.15.4a128.61,128.61,0,0,1,10.75,20.37c8.58,20.7,11.31,42.25,9.34,64.49A169.62,169.62,0,0,1,204.23,375a3.56,3.56,0,0,1-.68,1.72A43.19,43.19,0,0,1,198.08,371.91Z"/><path class="cls-2" d="M235.71,269.42c.87,8.36.72,16.76.73,25.15a163.32,163.32,0,0,1-1.74,22,151.11,151.11,0,0,1-7.17,29.88,130.72,130.72,0,0,1-11,23.77,2.9,2.9,0,0,0-.54,1.68l0,0a.67.67,0,0,0-.68.68,34.53,34.53,0,0,1-5.68,4.77,1.26,1.26,0,0,0-.24-.22,155.12,155.12,0,0,0,11.77-31.61,148.76,148.76,0,0,0,4-44.2,168.15,168.15,0,0,0-8.29-42.9c-.05-.17-.07-.35-.18-.92C223.85,260.42,229.39,265.57,235.71,269.42Z"/><path class="cls-3" d="M215.27,372.57a.67.67,0,0,1,.68-.68Z"/><path class="cls-3" d="M209.59,377.34l-.31.19c0-.14.05-.27.07-.41A1.26,1.26,0,0,1,209.59,377.34Z"/></svg>