<svg id="Layer_1" data-name="Layer 1" xmlns="http://www.w3.org/2000/svg" viewBox="0 0 216 216"><defs><style>.cls-1{fill:#3c469d;}.cls-2{fill:#e9692e;}.cls-3{fill:#486bb3;}</style></defs><title>kubeshield-3x3</title><path class="cls-1" d="M108.27,152.1a27.09,27.09,0,0,1-5.8-3.2C89.86,140.79,80.09,130,72.34,117.29a129.11,129.11,0,0,1-18-52.24,123.77,123.77,0,0,1-.61-24.19c.07-1,.4-1.29,1.4-1.26,5.5.15,10.95-.16,16.2-2.06A48.8,48.8,0,0,0,83,31c4.24-3,8.56-5.87,13.63-7.37a37.2,37.2,0,0,1,11.68-1.54V30a35.4,35.4,0,0,0-10.4,1.67c-4.35,1.55-8,4.27-11.69,6.9-7.13,5.09-15,8.33-23.78,8.88-1.06.07-.89.68-.89,1.31a120,120,0,0,0,2.14,23.54c3.55,18.2,10.47,35,21.79,49.81A81.56,81.56,0,0,0,108.26,143C108.26,146.05,108.27,149.08,108.27,152.1Z"/><path class="cls-1" d="M108.27,152.1c0-3,0-6,0-9.08.24-.13.5-.24.73-.39a83.32,83.32,0,0,0,21.35-19.49c10.67-13.64,17.54-29,21.49-45.81a125.35,125.35,0,0,0,3.26-28.55c0-.93-.23-1.28-1.21-1.34a46.21,46.21,0,0,1-4.83-.62c-7.41-1.26-13.88-4.62-19.8-9.06-6.25-4.68-13-7.91-21-7.73V22.12a35.25,35.25,0,0,1,20.46,5.66c2.57,1.67,5.1,3.4,7.6,5.16a37.49,37.49,0,0,0,22.27,6.74h1.26c2.86,0,2.9,0,3,2.79,1.37,29-5.76,55.73-22,79.9a91.57,91.57,0,0,1-28.19,27.4A18.31,18.31,0,0,1,108.27,152.1Z"/><path class="cls-1" d="M101.29,127.67a83.7,83.7,0,0,1-15-18.44,112.89,112.89,0,0,1-16-46.92c-.26-2.24-.38-4.5-.57-6.75,0-.59,0-1,.76-1.17A52,52,0,0,0,82.88,50,105.6,105.6,0,0,1,98.6,75.16a72.87,72.87,0,0,1,6,24.51,73.63,73.63,0,0,1-2.37,24A14.92,14.92,0,0,0,101.29,127.67Z"/><path class="cls-1" d="M130.58,48.34a53.36,53.36,0,0,0,15.49,6c1,.21.75.91.72,1.48A108.16,108.16,0,0,1,144,75.73c-4,16.75-11.06,32-22.26,45.24a54.26,54.26,0,0,1-6.46,6.67,2.24,2.24,0,0,1,.42-1.3,100.89,100.89,0,0,0,8.57-18.4,117,117,0,0,0,5.58-23.13,125.81,125.81,0,0,0,1.35-17A188.69,188.69,0,0,0,130.58,48.34Z"/><path class="cls-2" d="M101.29,127.67a14.92,14.92,0,0,1,.94-4,73.63,73.63,0,0,0,2.37-24,72.87,72.87,0,0,0-6-24.51A105.6,105.6,0,0,0,82.88,50a90.8,90.8,0,0,0,9.25-5.87c.78-.57,1.14-.53,1.68.31a100.38,100.38,0,0,1,8.36,15.77c6.69,16,8.81,32.7,7.28,49.92a130.21,130.21,0,0,1-3.38,19.91,2.74,2.74,0,0,1-.52,1.33A32.82,32.82,0,0,1,101.29,127.67Z"/><path class="cls-2" d="M130.58,48.34a188.69,188.69,0,0,1,.57,19.46,125.81,125.81,0,0,1-1.35,17,117,117,0,0,1-5.58,23.13,100.89,100.89,0,0,1-8.57,18.4,2.24,2.24,0,0,0-.42,1.3l0,0a.51.51,0,0,0-.53.52,26.88,26.88,0,0,1-4.42,3.69,1.54,1.54,0,0,0-.19-.17,119.2,119.2,0,0,0,9.16-24.47A114.17,114.17,0,0,0,122.32,73a129.56,129.56,0,0,0-6.45-33.2c0-.13-.05-.27-.14-.71C121.35,41.38,125.66,45.36,130.58,48.34Z"/><path class="cls-3" d="M114.67,128.18a.51.51,0,0,1,.53-.52Z"/><path class="cls-3" d="M110.25,131.87,110,132c0-.11,0-.21,0-.32A1.54,1.54,0,0,1,110.25,131.87Z"/><path class="cls-1" d="M28.54,191.18l-8.36-12.1v12.1h-6V165h6v11.35l8-11.35H35l-8.81,12.73,9.18,13.41Z"/><path class="cls-1" d="M54.3,172.51v18.67H48.7v-1.76a6.4,6.4,0,0,1-5.34,2.28c-3.77,0-7-2.69-7-7.73V172.51H42v10.64a3.08,3.08,0,0,0,3.24,3.4c2.06,0,3.48-1.2,3.48-3.85V172.51Z"/><path class="cls-1" d="M78.49,181.84c0,5.56-4,9.86-8.93,9.86A7,7,0,0,1,64,189.42v1.76H58.4V165H64v9.22A7,7,0,0,1,69.56,172C74.45,172,78.49,176.28,78.49,181.84Zm-5.6,0a4.45,4.45,0,1,0-4.45,4.56A4.26,4.26,0,0,0,72.89,181.84Z"/><path class="cls-1" d="M91.14,186.7a4.86,4.86,0,0,0,3.58-1.42l4.48,2.57a9.47,9.47,0,0,1-8.13,3.85c-6.39,0-10.35-4.3-10.35-9.86A9.57,9.57,0,0,1,90.65,172c5.45,0,9.49,4.22,9.49,9.85a10.76,10.76,0,0,1-.23,2.24H86.66C87.37,186,89.09,186.7,91.14,186.7Zm3.43-6.8a4.2,4.2,0,0,0-8,0Z"/><path class="cls-1" d="M117.05,185.58c0,4.29-3.74,6.12-7.77,6.12-3.73,0-6.57-1.42-8-4.44l4.85-2.77a3.06,3.06,0,0,0,3.17,2.21c1.35,0,2-.42,2-1.16,0-2-9.19-1-9.19-7.43,0-4.07,3.44-6.12,7.32-6.12a8.16,8.16,0,0,1,7.28,4l-4.78,2.58a2.72,2.72,0,0,0-2.5-1.65c-1,0-1.57.38-1.57,1.05C107.86,180.09,117.05,178.67,117.05,185.58Z"/><path class="cls-1" d="M137.77,179.71v11.47h-5.6V180.54a3.08,3.08,0,0,0-3.25-3.4c-2,0-3.47,1.19-3.47,3.84v10.2h-5.6V165h5.6v9.22a6.36,6.36,0,0,1,5.33-2.27C134.56,172,137.77,174.68,137.77,179.71Z"/><circle class="cls-2" cx="144.41" cy="167.51" r="3.36"/><rect class="cls-1" x="141.61" y="172.51" width="5.6" height="18.67"/><path class="cls-1" d="M160.8,186.7a4.86,4.86,0,0,0,3.58-1.42l4.48,2.57a9.47,9.47,0,0,1-8.14,3.85c-6.38,0-10.34-4.3-10.34-9.86a9.57,9.57,0,0,1,9.93-9.85c5.45,0,9.48,4.22,9.48,9.85a10.77,10.77,0,0,1-.22,2.24H156.32C157,186,158.74,186.7,160.8,186.7Zm3.43-6.8a4.2,4.2,0,0,0-8,0Z"/><path class="cls-1" d="M173,163.92h5.6v27.26H173Z"/><path class="cls-1" d="M201.82,165v26.14h-5.6v-1.76a7,7,0,0,1-5.56,2.28c-4.89,0-8.92-4.3-8.92-9.86s4-9.85,8.92-9.85a7,7,0,0,1,5.56,2.27V165Zm-5.6,16.8a4.44,4.44,0,1,0-4.44,4.56A4.25,4.25,0,0,0,196.22,181.84Z"/></svg>