<svg id="Layer_1" data-name="Layer 1" xmlns="http://www.w3.org/2000/svg" viewBox="0 0 216 216"><defs><style>.cls-1{fill:#3c469d;}.cls-2{fill:#e9692e;}.cls-3{fill:#486bb3;}</style></defs><title>kubeshield</title><path class="cls-1" d="M33.55,192.25,25.94,181.3v10.95H20.5V168.6h5.44v10.27l7.27-10.27h6.18l-8,11.52,8.36,12.13Z"/><path class="cls-1" d="M57,175.36v16.89h-5.1v-1.59A5.81,5.81,0,0,1,47,192.72c-3.43,0-6.35-2.43-6.35-7V175.36h5.1V185a2.79,2.79,0,0,0,2.95,3.07c1.87,0,3.16-1.08,3.16-3.48v-9.22Z"/><path class="cls-1" d="M79,183.8c0,5-3.67,8.92-8.13,8.92a6.38,6.38,0,0,1-5.06-2.06v1.59h-5.1V168.6h5.1V177a6.39,6.39,0,0,1,5.06-2.07C75.34,174.88,79,178.77,79,183.8Zm-5.1,0a4,4,0,1,0-4,4.13A3.87,3.87,0,0,0,73.91,183.8Z"/><path class="cls-1" d="M90.52,188.2a4.43,4.43,0,0,0,3.26-1.29l4.08,2.34a8.65,8.65,0,0,1-7.41,3.47c-5.81,0-9.41-3.88-9.41-8.92a8.69,8.69,0,0,1,9-8.92,8.55,8.55,0,0,1,8.63,8.92,10.2,10.2,0,0,1-.2,2H86.44C87.09,187.59,88.65,188.2,90.52,188.2Zm3.13-6.15a3.84,3.84,0,0,0-7.31,0Z"/><path class="cls-1" d="M100.47,186.88l4.69-2.7a5,5,0,0,0,5,3.27c2.59,0,3.23-1,3.23-1.92,0-1.46-1.36-2-4.93-3s-7-2.67-7-7.2,3.88-7.19,8-7.19a9.21,9.21,0,0,1,8.7,5.34l-4.59,2.67a4.17,4.17,0,0,0-4.11-2.74c-1.7,0-2.55.84-2.55,1.79s.58,1.82,4.28,2.94,7.65,2.33,7.65,7.33c0,4.56-3.67,7.26-8.84,7.26C105,192.72,101.79,190.36,100.47,186.88Z"/><path class="cls-1" d="M137.67,181.88v10.37h-5.09v-9.63a2.8,2.8,0,0,0-3-3.07c-1.87,0-3.16,1.08-3.16,3.48v9.22h-5.1V168.6h5.1V177a5.8,5.8,0,0,1,4.86-2.07C134.75,174.88,137.67,177.32,137.67,181.88Z"/><path class="cls-2" d="M140.66,170.83a3.06,3.06,0,1,1,3.06,3A3.08,3.08,0,0,1,140.66,170.83Z"/><rect class="cls-1" x="141.17" y="175.36" width="5.1" height="16.89"/><path class="cls-1" d="M158.63,188.2a4.41,4.41,0,0,0,3.26-1.29l4.08,2.34a8.65,8.65,0,0,1-7.41,3.47c-5.81,0-9.41-3.88-9.41-8.92a8.69,8.69,0,0,1,9-8.92,8.55,8.55,0,0,1,8.63,8.92,10.2,10.2,0,0,1-.2,2H154.55C155.2,187.59,156.76,188.2,158.63,188.2Zm3.13-6.15a3.84,3.84,0,0,0-7.31,0Z"/><path class="cls-1" d="M169.7,167.59h5.1v24.66h-5.1Z"/><path class="cls-1" d="M196,168.6v23.65h-5.1v-1.59a6.37,6.37,0,0,1-5.06,2.06c-4.45,0-8.12-3.88-8.12-8.92s3.67-8.92,8.12-8.92a6.37,6.37,0,0,1,5.06,2.07V168.6Zm-5.1,15.2a4,4,0,1,0-4,4.13A3.87,3.87,0,0,0,190.87,183.8Z"/><path class="cls-1" d="M108.27,152.1a27.09,27.09,0,0,1-5.8-3.2C89.86,140.79,80.09,130,72.34,117.29a129.11,129.11,0,0,1-18-52.24,123.77,123.77,0,0,1-.61-24.19c.07-1,.4-1.29,1.4-1.26,5.5.15,10.95-.16,16.2-2.06A48.8,48.8,0,0,0,83,31c4.24-3,8.56-5.87,13.63-7.37a37.2,37.2,0,0,1,11.68-1.54V30a35.4,35.4,0,0,0-10.4,1.67c-4.35,1.55-8,4.27-11.69,6.9-7.13,5.09-15,8.33-23.78,8.88-1.06.07-.89.68-.89,1.31a120,120,0,0,0,2.14,23.54c3.55,18.2,10.47,35,21.79,49.81A81.56,81.56,0,0,0,108.26,143C108.26,146.05,108.27,149.08,108.27,152.1Z"/><path class="cls-1" d="M108.27,152.1c0-3,0-6,0-9.08.24-.13.5-.24.73-.39a83.32,83.32,0,0,0,21.35-19.49c10.67-13.64,17.54-29,21.49-45.81a125.35,125.35,0,0,0,3.26-28.55c0-.93-.23-1.28-1.21-1.34a46.21,46.21,0,0,1-4.83-.62c-7.41-1.26-13.88-4.62-19.8-9.06-6.25-4.68-13-7.91-21-7.73V22.12a35.25,35.25,0,0,1,20.46,5.66c2.57,1.67,5.1,3.4,7.6,5.16a37.49,37.49,0,0,0,22.27,6.74h1.26c2.86,0,2.9,0,3,2.79,1.37,29-5.76,55.73-22,79.9a91.57,91.57,0,0,1-28.19,27.4A18.31,18.31,0,0,1,108.27,152.1Z"/><path class="cls-1" d="M101.29,127.67a83.7,83.7,0,0,1-15-18.44,112.89,112.89,0,0,1-16-46.92c-.26-2.24-.38-4.5-.57-6.75,0-.59,0-1,.76-1.17A52,52,0,0,0,82.88,50,105.6,105.6,0,0,1,98.6,75.16a72.87,72.87,0,0,1,6,24.51,73.63,73.63,0,0,1-2.37,24A14.92,14.92,0,0,0,101.29,127.67Z"/><path class="cls-1" d="M130.58,48.34a53.36,53.36,0,0,0,15.49,6c1,.21.75.91.72,1.48A108.16,108.16,0,0,1,144,75.73c-4,16.75-11.06,32-22.26,45.24a54.26,54.26,0,0,1-6.46,6.67,2.24,2.24,0,0,1,.42-1.3,100.89,100.89,0,0,0,8.57-18.4,117,117,0,0,0,5.58-23.13,125.81,125.81,0,0,0,1.35-17A188.69,188.69,0,0,0,130.58,48.34Z"/><path class="cls-2" d="M101.29,127.67a14.92,14.92,0,0,1,.94-4,73.63,73.63,0,0,0,2.37-24,72.87,72.87,0,0,0-6-24.51A105.6,105.6,0,0,0,82.88,50a90.8,90.8,0,0,0,9.25-5.87c.78-.57,1.14-.53,1.68.31a100.38,100.38,0,0,1,8.36,15.77c6.69,16,8.81,32.7,7.28,49.92a130.21,130.21,0,0,1-3.38,19.91,2.74,2.74,0,0,1-.52,1.33A32.82,32.82,0,0,1,101.29,127.67Z"/><path class="cls-2" d="M130.58,48.34a188.69,188.69,0,0,1,.57,19.46,125.81,125.81,0,0,1-1.35,17,117,117,0,0,1-5.58,23.13,100.89,100.89,0,0,1-8.57,18.4,2.24,2.24,0,0,0-.42,1.3l0,0a.51.51,0,0,0-.53.52,26.88,26.88,0,0,1-4.42,3.69,1.54,1.54,0,0,0-.19-.17,119.2,119.2,0,0,0,9.16-24.47A114.17,114.17,0,0,0,122.32,73a129.56,129.56,0,0,0-6.45-33.2c0-.13-.05-.27-.14-.71C121.35,41.38,125.66,45.36,130.58,48.34Z"/><path class="cls-3" d="M114.67,128.18a.51.51,0,0,1,.53-.52Z"/><path class="cls-3" d="M110.25,131.87,110,132c0-.11,0-.21,0-.32A1.54,1.54,0,0,1,110.25,131.87Z"/></svg>