<svg id="Layer_1" data-name="Layer 1" xmlns="http://www.w3.org/2000/svg" viewBox="0 0 1279 639"><defs><style>.cls-1{fill:#2516c7;}.cls-2{fill:#e86830;}.cls-3{fill:#326ce5;}</style></defs><title>kubeshild-1280x640</title><path class="cls-1" d="M639.57,370.09c-4.37-1.49-8.11-4.16-11.92-6.63-25.93-16.76-46-39.14-61.94-65.35-20.21-33.27-32.26-69.39-37-108a259,259,0,0,1-1.26-50c.15-2.14.82-2.66,2.88-2.6,11.31.31,22.51-.33,33.3-4.25,8.71-3.17,16.38-8.13,23.85-13.47,8.71-6.23,17.6-12.14,28-15.23a75.57,75.57,0,0,1,24-3.19q0,8.17,0,16.35c-7.25.34-14.45.95-21.38,3.44-8.94,3.22-16.45,8.84-24,14.28-14.67,10.53-30.74,17.22-48.89,18.36-2.18.14-1.83,1.41-1.83,2.7a247.62,247.62,0,0,0,4.4,48.68c7.3,37.64,21.51,72.31,44.79,103,13,17.19,28.37,32,46.93,43.18Q639.56,360.7,639.57,370.09Z"/><path class="cls-1" d="M639.57,370.09q0-9.39,0-18.78c.5-.26,1-.5,1.51-.8a171.68,171.68,0,0,0,43.87-40.3c22-28.2,36.07-60.07,44.2-94.73a261.27,261.27,0,0,0,6.69-59c0-1.92-.47-2.63-2.49-2.76a94.74,94.74,0,0,1-9.92-1.28c-15.24-2.61-28.55-9.55-40.72-18.73-12.83-9.67-26.63-16.37-43.13-16q0-8.18,0-16.35c15.21-.33,29.31,3.35,42.08,11.7,5.27,3.45,10.47,7,15.61,10.66,13.74,9.72,29.1,14,45.8,13.94h2.58c5.89,0,5.95,0,6.23,5.77,2.82,60-11.85,115.23-45.29,165.21-15.3,22.88-34.39,42.12-57.95,56.66C645.7,367.06,642.91,369.11,639.57,370.09Z"/><path class="cls-1" d="M625.22,319.57a172.71,172.71,0,0,1-30.85-38.13c-18.24-29.85-29-62.29-32.89-97-.53-4.65-.79-9.32-1.18-14-.1-1.21-.09-2.08,1.56-2.41a107.26,107.26,0,0,0,25.52-9c13,15.92,24.17,33,32.31,52A150.86,150.86,0,0,1,632,261.67a152.66,152.66,0,0,1-4.86,49.6C626.41,314,625.2,316.65,625.22,319.57Z"/><path class="cls-1" d="M685.44,155.54c10,5.65,20.5,10.2,31.84,12.51,2.13.44,1.54,1.87,1.48,3.07a224.64,224.64,0,0,1-5.85,41c-8.17,34.64-22.72,66.18-45.75,93.55a108.91,108.91,0,0,1-13.29,13.79,4.62,4.62,0,0,1,.88-2.68,210.34,210.34,0,0,0,17.61-38A242.27,242.27,0,0,0,683.83,231a260.35,260.35,0,0,0,2.78-35.16C686.59,182.36,686.83,168.93,685.44,155.54Z"/><path class="cls-2" d="M625.22,319.57c0-2.92,1.19-5.57,1.94-8.3a152.66,152.66,0,0,0,4.86-49.6A150.86,150.86,0,0,0,619.69,211c-8.14-19-19.29-36.05-32.31-52a187.71,187.71,0,0,0,19-12.14c1.61-1.19,2.34-1.09,3.45.64a206.2,206.2,0,0,1,17.2,32.6c13.74,33.14,18.09,67.63,15,103.22a270.2,270.2,0,0,1-6.94,41.17,5.68,5.68,0,0,1-1.07,2.76A68.3,68.3,0,0,1,625.22,319.57Z"/><path class="cls-2" d="M685.44,155.54c1.39,13.39,1.15,26.82,1.17,40.25A260.35,260.35,0,0,1,683.83,231a242.27,242.27,0,0,1-11.47,47.83,210.34,210.34,0,0,1-17.61,38,4.62,4.62,0,0,0-.88,2.68l0,0a1.08,1.08,0,0,0-1.1,1.09,55.23,55.23,0,0,1-9.08,7.63,2.25,2.25,0,0,0-.39-.36,247.79,247.79,0,0,0,18.83-50.58,237.62,237.62,0,0,0,6.38-70.75,269.09,269.09,0,0,0-13.26-68.65c-.09-.27-.11-.56-.29-1.47C666.46,141.14,675.32,149.37,685.44,155.54Z"/><path class="cls-3" d="M652.72,320.63a1.08,1.08,0,0,1,1.1-1.09Z"/><path class="cls-3" d="M643.64,328.26l-.49.3c0-.22.07-.43.11-.65A2.11,2.11,0,0,1,643.64,328.26Z"/><path class="cls-1" d="M269.77,535.36l-37.68-54.51v54.51H205.17V417.59h26.92v51.14l36-51.14h30.62L259,475l41.38,60.4Z"/><path class="cls-1" d="M385.83,451.24v84.12H360.59v-7.91c-4.54,6.22-13,10.26-24.06,10.26-17,0-31.46-12.12-31.46-34.82V451.24h25.24v47.94c0,10.44,6.56,15.31,14.63,15.31,9.26,0,15.65-5.38,15.65-17.33V451.24Z"/><path class="cls-1" d="M494.81,493.29c0,25.08-18.17,44.42-40.21,44.42-11.27,0-19.52-3.87-25.07-10.26v7.91H404.3V417.59h25.23v41.56c5.55-6.4,13.8-10.27,25.07-10.27C476.64,448.88,494.81,468.23,494.81,493.29Zm-25.24,0c0-12.61-8.41-20.52-20-20.52s-20,7.91-20,20.52,8.42,20.53,20,20.53S469.57,505.91,469.57,493.29Z"/><path class="cls-1" d="M551.8,515.17c6.9,0,12.79-2.7,16.15-6.39l20.19,11.6c-8.24,11.44-20.69,17.33-36.67,17.33-28.77,0-46.6-19.34-46.6-44.42s18.17-44.41,44.75-44.41c24.56,0,42.73,19,42.73,44.41a49.07,49.07,0,0,1-1,10.1H531.61C534.81,512.13,542.55,515.17,551.8,515.17Zm15.48-30.62c-2.69-9.76-10.26-13.29-17.83-13.29-9.59,0-16,4.71-18.34,13.29Z"/><path class="cls-1" d="M601,508.6l23.23-13.46c4.2,9.77,11.44,16.33,24.72,16.33,12.79,0,16-5.05,16-9.6,0-7.23-6.73-10.09-24.4-15-17.49-4.87-34.65-13.29-34.65-35.83,0-22.71,19.17-35.84,39.53-35.84,19.35,0,34.49,9.25,43.07,26.58l-22.71,13.3c-4-8.42-9.59-13.63-20.36-13.63-8.41,0-12.62,4.21-12.62,8.92,0,5.38,2.87,9.08,21.2,14.63,17.83,5.38,37.85,11.61,37.85,36.51,0,22.71-18.17,36.17-43.74,36.17C623.42,537.71,607.61,525.93,601,508.6Z"/><path class="cls-1" d="M785.23,483.7v51.66H760V487.41c0-10.44-6.57-15.31-14.64-15.31-9.26,0-15.65,5.38-15.65,17.33v45.93H704.48V417.59h25.23v41.56c4.55-6.24,13-10.27,24.06-10.27C770.77,448.88,785.23,461,785.23,483.7Z"/><path class="cls-2" d="M800,428.69a15.15,15.15,0,1,1,15.15,15.14A15.3,15.3,0,0,1,800,428.69Z"/><rect class="cls-1" x="802.53" y="451.24" width="25.23" height="84.12"/><path class="cls-1" d="M889,515.17c6.9,0,12.78-2.7,16.15-6.39l20.19,11.6c-8.25,11.44-20.7,17.33-36.68,17.33-28.77,0-46.6-19.34-46.6-44.42s18.17-44.41,44.75-44.41c24.56,0,42.73,19,42.73,44.41a48.39,48.39,0,0,1-1,10.1H868.8C872,512.13,879.73,515.17,889,515.17Zm15.47-30.62c-2.69-9.76-10.26-13.29-17.83-13.29-9.59,0-16,4.71-18.34,13.29Z"/><path class="cls-1" d="M943.8,412.54H969V535.36H943.8Z"/><path class="cls-1" d="M1073.83,417.59V535.36h-25.24v-7.91c-5.55,6.39-13.79,10.26-25.07,10.26-22,0-40.2-19.34-40.2-44.42s18.17-44.41,40.2-44.41c11.28,0,19.52,3.87,25.07,10.27V417.59Zm-25.24,75.7c0-12.61-8.41-20.52-20-20.52s-20,7.91-20,20.52,8.41,20.53,20,20.53S1048.59,505.91,1048.59,493.29Z"/></svg>