<svg xmlns="http://www.w3.org/2000/svg" xmlns:xlink="http://www.w3.org/1999/xlink" width="64" height="64" fill="none" xmlns:v="https://vecta.io/nano"><g clip-path="url(#A)"><g fill="#2516c7"><path d="M32.294 46c-.724-.293-1.409-.674-2.04-1.134-4.436-2.87-7.873-6.699-10.598-11.184-3.413-5.636-5.57-11.941-6.326-18.486-.347-2.84-.42-5.707-.216-8.561.027-.364.142-.455.496-.444 1.936.052 3.851-.058 5.696-.728 1.46-.578 2.833-1.353 4.081-2.306 1.492-1.065 3.012-2.076 4.795-2.604a12.96 12.96 0 0 1 4.108-.548v2.799a12.5 12.5 0 0 0-3.659.589c-1.528.548-2.812 1.512-4.108 2.443-2.511 1.802-5.261 2.947-8.366 3.144-.372.022-.312.241-.315.46a42.5 42.5 0 0 0 .756 8.331c1.249 6.441 3.681 12.373 7.668 17.623 2.181 2.954 4.908 5.464 8.032 7.394L32.294 46z"/><path d="M32.294 46v-3.215l.257-.137c2.886-1.843 5.426-4.177 7.506-6.896 3.757-4.825 6.173-10.281 7.564-16.21a44.62 44.62 0 0 0 1.142-10.097c0-.329-.08-.449-.427-.471a15.57 15.57 0 0 1-1.698-.222c-2.607-.444-4.883-1.643-6.967-3.204-2.191-1.643-4.557-2.799-7.394-2.739V.011a12.37 12.37 0 0 1 7.2 2.005A80.55 80.55 0 0 1 42.15 3.84c2.291 1.609 5.036 2.445 7.835 2.385h.441c1.008 0 1.022 0 1.068.986.482 10.264-2.029 19.718-7.75 28.271a32.27 32.27 0 0 1-9.916 9.695 6.52 6.52 0 0 1-1.534.824h0zm-2.457-8.646a29.58 29.58 0 0 1-5.28-6.526 40.12 40.12 0 0 1-5.628-16.599l-.2-2.391c-.016-.208-.016-.356.274-.413a18.23 18.23 0 0 0 4.368-1.545c2.251 2.691 4.113 5.685 5.529 8.895 2.355 5.41 2.805 11.459 1.276 17.157-.134.468-.342.923-.34 1.421zM40.142 9.286a18.8 18.8 0 0 0 5.447 2.142c.364.074.274.318.255.523-.116 2.367-.451 4.719-1 7.025-1.399 5.926-3.889 11.324-7.83 16.007-.688.851-1.448 1.641-2.273 2.361a.79.79 0 0 1 .148-.46 35.78 35.78 0 0 0 3.012-6.51 41.4 41.4 0 0 0 1.964-8.183 44.72 44.72 0 0 0 .477-6.025c-.003-2.29.038-4.59-.2-6.879z"/></g><g fill="#e86830"><path d="M29.837 37.354c0-.498.205-.953.331-1.421a26.06 26.06 0 0 0-1.276-17.157c-1.416-3.21-3.278-6.204-5.529-8.895a32.24 32.24 0 0 0 3.253-2.079c.274-.205.4-.189.589.11a35.23 35.23 0 0 1 2.944 5.579c2.35 5.669 3.097 11.571 2.558 17.661-.214 2.377-.61 4.733-1.186 7.049-.02.171-.084.333-.186.471a11.8 11.8 0 0 1-1.498-1.317h0zM40.143 9.286c.238 2.289.197 4.59.2 6.888a44.67 44.67 0 0 1-.477 6.025 41.4 41.4 0 0 1-1.964 8.183c-.784 2.265-1.793 4.446-3.013 6.51a.8.8 0 0 0-.148.46h0c-.025 0-.049.004-.072.013a.18.18 0 0 0-.101.101c-.009.023-.014.047-.013.072A9.47 9.47 0 0 1 33 38.844c-.019-.023-.041-.043-.066-.06a42.45 42.45 0 0 0 3.223-8.657 40.74 40.74 0 0 0 1.096-12.105c-.243-3.998-1.006-7.948-2.27-11.749-.014-.047-.019-.096-.049-.252 1.961.8 3.478 2.21 5.209 3.264z"/></g><g fill="#326ce5"><path d="M34.545 37.535c0-.025.004-.049.013-.072a.18.18 0 0 1 .101-.101c.023-.009.047-.014.072-.013l-.186.186zm-1.555 1.306l-.085.052c0-.038.014-.074.019-.112a.34.34 0 0 1 .066.06h0z"/></g><g fill="#fc6011"><path d="M5.986 57.94H2.482v2.625h4.096v1.183H1v-8.531h5.537v1.195H2.482v2.355h3.504v1.172zm3.833-2.532l.041.732c.469-.566 1.084-.85 1.846-.85 1.32 0 1.992.756 2.016 2.268v4.189h-1.424V57.64c0-.402-.088-.699-.264-.891s-.455-.293-.85-.293c-.574 0-1.002.26-1.283.779v4.512H8.477v-6.34h1.342zm7.992-1.541v1.541h1.119v1.055h-1.119v3.539c0 .242.047.418.141.527s.269.158.516.158a2.19 2.19 0 0 0 .498-.059v1.102a3.5 3.5 0 0 1-.937.135c-1.094 0-1.641-.604-1.641-1.811v-3.592h-1.043v-1.055h1.043v-1.541h1.424zm5.854 7.998c-.902 0-1.635-.283-2.197-.85s-.838-1.328-.838-2.273v-.176c0-.633.121-1.197.363-1.693a2.8 2.8 0 0 1 1.031-1.166 2.72 2.72 0 0 1 1.477-.416c.863 0 1.529.275 1.998.826s.709 1.33.709 2.338v.574h-4.143c.043.523.217.938.521 1.242s.695.457 1.16.457c.652 0 1.184-.264 1.594-.791l.768.732a2.58 2.58 0 0 1-1.02.885 3.19 3.19 0 0 1-1.424.311zm-.17-5.432c-.391 0-.707.137-.949.41s-.391.654-.457 1.142h2.713v-.105c-.031-.477-.158-.836-.381-1.078s-.531-.369-.926-.369z"/><use xlink:href="#B"/><path d="M38.789 58.643c0 .98-.223 1.764-.668 2.35a2.14 2.14 0 0 1-1.793.873c-.695 0-1.252-.229-1.67-.686v3.006h-1.424v-8.777h1.313l.059.645c.418-.508.986-.762 1.705-.762.774 0 1.379.289 1.817.867s.662 1.373.662 2.396v.088zm-1.418-.123c0-.633-.127-1.135-.381-1.506a1.22 1.22 0 0 0-1.078-.557c-.582 0-1 .24-1.254.721v2.813c.258.492.68.738 1.266.738a1.22 1.22 0 0 0 1.061-.545c.258-.367.387-.922.387-1.664zm6.797-1.811a3.52 3.52 0 0 0-.58-.047c-.652 0-1.092.25-1.318.75v4.336h-1.424v-6.34h1.359l.035.709c.344-.551.82-.826 1.43-.826.203 0 .371.027.504.082l-.006 1.336zm3.264 5.039h-1.424v-6.34h1.424v6.34zm-1.512-7.986a.76.76 0 0 1 .205-.545c.141-.145.34-.217.598-.217s.457.072.598.217a.75.75 0 0 1 .211.545.74.74 0 0 1-.211.539c-.141.144-.34.211-.598.211s-.457-.07-.598-.211a.73.73 0 0 1-.205-.539zm7.472 6.263c0-.254-.106-.447-.316-.58s-.553-.25-1.037-.352-.889-.23-1.213-.387c-.711-.344-1.066-.842-1.066-1.494 0-.547.23-1.004.691-1.371s1.047-.551 1.758-.551c.758 0 1.369.188 1.834.563a1.78 1.78 0 0 1 .703 1.459h-1.424a.87.87 0 0 0-.305-.68c-.203-.184-.473-.275-.809-.275-.312 0-.568.072-.768.217s-.293.338-.293.58c0 .219.092.389.275.51s.555.244 1.113.369.996.268 1.313.44.557.371.709.609a1.58 1.58 0 0 1 .234.867c0 .57-.236 1.033-.709 1.389s-1.092.527-1.857.527c-.52 0-.982-.094-1.389-.281s-.723-.445-.949-.774a1.83 1.83 0 0 1-.34-1.06h1.383c.02.336.146.596.381.779s.545.27.932.27c.375 0 .66-.07.855-.211a.67.67 0 0 0 .293-.562zm6.287 1.84c-.902 0-1.635-.283-2.197-.85s-.838-1.328-.838-2.273v-.176c0-.633.121-1.197.363-1.693a2.8 2.8 0 0 1 1.031-1.166 2.72 2.72 0 0 1 1.477-.416c.863 0 1.529.275 1.998.826s.709 1.33.709 2.338v.574H58.08c.043.523.217.938.521 1.242s.695.457 1.16.457c.652 0 1.184-.264 1.594-.791l.768.732a2.58 2.58 0 0 1-1.02.885c-.422.207-.896.311-1.424.311zm-.17-5.432c-.391 0-.707.137-.949.41s-.391.654-.457 1.142h2.713v-.105c-.031-.477-.158-.836-.381-1.078s-.531-.369-.926-.369z"/></g></g><defs><clipPath id="A"><path fill="#fff" d="M0 0h64v64H0z"/></clipPath><path id="B" d="M31.488 56.709a3.52 3.52 0 0 0-.58-.047c-.652 0-1.092.25-1.318.75v4.336h-1.424v-6.34h1.359l.035.709c.344-.551.82-.826 1.43-.826.203 0 .371.027.504.082l-.006 1.336z"/></defs></svg>