<svg xmlns="http://www.w3.org/2000/svg" width="180" height="46" fill="none" xmlns:v="https://vecta.io/nano"><g clip-path="url(#A)"><g fill="#2516c7"><path d="M42.162 25.299l-6.444-9.316v9.32h-4.603V5.163h4.603v8.752l6.157-8.752h5.235l-6.787 9.809 7.08 10.327h-5.24zm19.841-14.383v14.383H57.69v-1.352c-.777 1.072-2.216 1.754-4.108 1.754-2.906 0-5.38-2.07-5.38-5.953v-8.832h4.308v8.198c0 1.786 1.122 2.618 2.5 2.618 1.584 0 2.679-.92 2.679-2.963V10.91l4.313.005zm18.633 7.191c0 4.287-3.106 7.594-6.874 7.594-1.927 0-3.336-.659-4.287-1.754v1.352h-4.313V5.163h4.313v7.105c.95-1.093 2.359-1.756 4.287-1.756 3.769 0 6.874 3.31 6.874 7.594zm-4.313 0c0-2.156-1.439-3.508-3.424-3.508s-3.424 1.352-3.424 3.508 1.44 3.511 3.424 3.511 3.424-1.349 3.424-3.511zm14.06 3.742c1.179 0 2.186-.461 2.761-1.093l3.453 1.984c-1.409 1.956-3.538 2.961-6.271 2.961-4.919 0-7.968-3.306-7.968-7.594s3.106-7.594 7.651-7.594c4.199 0 7.307 3.252 7.307 7.594 0 .581-.06 1.16-.179 1.729H86.931c.546 1.493 1.87 2.013 3.452 2.013zm2.647-5.235c-.461-1.67-1.756-2.274-3.049-2.274-1.64 0-2.733.806-3.136 2.274h6.185zm5.773 4.111l3.967-2.3c.714 1.668 1.964 2.792 4.227 2.792 2.186 0 2.733-.864 2.733-1.641 0-1.238-1.15-1.725-4.171-2.559-2.991-.834-5.926-2.274-5.926-6.128 0-3.883 3.279-6.128 6.76-6.128 3.308 0 5.894 1.582 7.364 4.545l-3.879 2.274c-.691-1.44-1.64-2.322-3.481-2.322-1.429 0-2.158.714-2.158 1.524 0 .92.49 1.552 3.626 2.5 3.049.92 6.471 1.984 6.471 6.251 0 3.883-3.106 6.183-7.478 6.183-4.23-.014-6.934-2.027-8.055-4.99zm31.493-4.256v8.83h-4.308v-8.198c0-1.786-1.122-2.618-2.501-2.618-1.582 0-2.679.922-2.679 2.965v7.859h-4.32V5.163h4.32v7.105c.777-1.072 2.215-1.756 4.108-1.756 2.906 0 5.38 2.077 5.38 5.957z"/></g><path d="M132.821 7.062c0-.512.152-1.013.437-1.439s.689-.758 1.162-.954a2.59 2.59 0 0 1 1.496-.147c.503.1.964.347 1.326.709a2.59 2.59 0 0 1 .562 2.822 2.59 2.59 0 0 1-2.393 1.599c-.685-.007-1.34-.281-1.824-.766a2.62 2.62 0 0 1-.766-1.824z" fill="#e86830"/><g fill="#2516c7"><path d="M137.569 10.916h-4.316v14.383h4.316V10.916zm10.466 10.933c1.181 0 2.186-.461 2.763-1.093l3.451 1.984c-1.41 1.956-3.539 2.961-6.269 2.961-4.921 0-7.97-3.306-7.97-7.594s3.106-7.594 7.652-7.594c4.2 0 7.306 3.252 7.306 7.594a8.3 8.3 0 0 1-.178 1.729h-10.206c.547 1.493 1.87 2.013 3.451 2.013zm2.647-5.235c-.461-1.67-1.754-2.274-3.049-2.274-1.639 0-2.733.806-3.134 2.274h6.183zm6.726-12.313h4.314V25.3h-4.314V4.301zm22.233.862v20.136h-4.315v-1.352c-.951 1.095-2.36 1.754-4.287 1.754-3.769 0-6.874-3.306-6.874-7.594s3.105-7.594 6.874-7.594c1.927 0 3.336.663 4.287 1.756V5.163h4.315zm-4.315 12.943c0-2.156-1.429-3.508-3.423-3.508s-3.423 1.352-3.423 3.508 1.428 3.511 3.423 3.511 3.423-1.349 3.423-3.511zM12.583 30c-.472-.191-.919-.44-1.331-.739-2.893-1.872-5.135-4.369-6.912-7.294A29.9 29.9 0 0 1 .214 9.911a29.02 29.02 0 0 1-.141-5.583c.018-.238.093-.296.323-.289 1.263.034 2.511-.038 3.715-.475A11.14 11.14 0 0 0 6.772 2.06C7.746 1.364 8.737.705 9.9.361a8.45 8.45 0 0 1 2.679-.357v1.825a8.15 8.15 0 0 0-2.386.384c-.997.357-1.834.986-2.679 1.593-1.638 1.175-3.431 1.922-5.456 2.05-.243.014-.204.157-.205.3a27.66 27.66 0 0 0 .493 5.433c.814 4.201 2.4 8.069 5.001 11.493a18.78 18.78 0 0 0 5.238 4.822L12.583 30z"/><path d="M12.583 30v-2.097l.168-.089c1.882-1.202 3.539-2.724 4.896-4.497 2.451-3.147 4.026-6.705 4.933-10.572.498-2.16.748-4.369.745-6.585 0-.214-.052-.293-.279-.307a10.16 10.16 0 0 1-1.107-.145c-1.7-.289-3.185-1.072-4.544-2.09-1.429-1.072-2.972-1.825-4.822-1.786V.007a8.07 8.07 0 0 1 4.696 1.307 52.65 52.65 0 0 1 1.743 1.19 8.58 8.58 0 0 0 5.11 1.556h.288c.657 0 .666 0 .697.643.314 6.694-1.323 12.86-5.055 18.437-1.672 2.551-3.879 4.709-6.467 6.323a4.27 4.27 0 0 1-1 .538zm-1.602-5.638a19.29 19.29 0 0 1-3.443-4.256 26.16 26.16 0 0 1-3.67-10.825c-.059-.518-.088-1.039-.13-1.559-.011-.136-.011-.232.179-.27a11.89 11.89 0 0 0 2.849-1.007 24.4 24.4 0 0 1 3.606 5.801 17 17 0 0 1 .832 11.19c-.087.305-.223.602-.221.927zm6.721-18.306c1.104.648 2.303 1.119 3.552 1.397.238.048.179.207.166.341a25.11 25.11 0 0 1-.652 4.581c-.913 3.865-2.536 7.385-5.106 10.439a12.32 12.32 0 0 1-1.482 1.54.52.52 0 0 1 .096-.3 23.38 23.38 0 0 0 1.965-4.245 27.04 27.04 0 0 0 1.281-5.337c.192-1.301.296-2.614.311-3.929-.002-1.493.025-2.993-.13-4.487z"/></g><g fill="#e86830"><path d="M10.981 24.362c0-.325.134-.622.216-.927a17 17 0 0 0-.832-11.19 24.4 24.4 0 0 0-3.606-5.801A21.02 21.02 0 0 0 8.88 5.088c.179-.134.261-.123.384.071.747 1.153 1.39 2.37 1.92 3.638 1.532 3.697 2.02 7.546 1.668 11.518a30.29 30.29 0 0 1-.773 4.597c-.013.111-.055.217-.121.307a7.74 7.74 0 0 1-.977-.859zm6.72-18.306c.155 1.493.129 2.993.13 4.492-.015 1.315-.119 2.628-.311 3.929a26.97 26.97 0 0 1-1.281 5.337 23.32 23.32 0 0 1-1.965 4.246.52.52 0 0 0-.096.3c-.016 0-.032.003-.047.009s-.028.015-.04.026-.02.025-.026.04-.009.031-.009.047c-.307.32-.647.605-1.014.852-.013-.015-.027-.028-.043-.039a27.71 27.71 0 0 0 2.102-5.646 26.57 26.57 0 0 0 .714-7.894 30.01 30.01 0 0 0-1.481-7.662c-.009-.03-.012-.063-.032-.164 1.279.522 2.268 1.441 3.397 2.129z"/></g><g fill="#326ce5"><path d="M14.051 24.479c0-.016.003-.032.009-.047s.015-.028.026-.04.025-.02.04-.026a.12.12 0 0 1 .047-.009l-.121.121zm-1.015.852l-.055.034c0-.025.009-.048.012-.073.016.011.03.024.043.039z"/></g><g fill="#00a651"><path d="M6.773 40.336c-.086.966-.421 1.72-1.007 2.263s-1.364.808-2.336.808c-.679 0-1.278-.17-1.797-.51S.72 42.066.439 41.436.012 40.075 0 39.242v-.846c0-.854.142-1.606.427-2.257s.693-1.152 1.223-1.505 1.151-.529 1.85-.529c.941 0 1.698.272 2.271.815s.907 1.31 1.001 2.3H5.298c-.07-.651-.25-1.119-.539-1.405s-.704-.435-1.259-.435c-.644 0-1.14.251-1.487.752s-.519 1.229-.527 2.195v.802c0 .978.164 1.724.492 2.238s.816.771 1.452.771c.581 0 1.019-.139 1.311-.417s.478-.74.556-1.386h1.475zm15.791-.479c0-.659.123-1.252.369-1.778s.591-.937 1.036-1.219.956-.429 1.534-.429c.855 0 1.547.292 2.078.877s.823 1.36.866 2.325l.006.354c0 .663-.121 1.256-.363 1.778s-.581.926-1.03 1.212-.96.429-1.546.429c-.894 0-1.61-.315-2.148-.945s-.802-1.478-.802-2.531v-.075zm1.422.131c0 .692.135 1.235.404 1.629a1.29 1.29 0 0 0 1.124.584c.48 0 .853-.199 1.118-.597s.404-.98.404-1.747c0-.68-.139-1.219-.416-1.617a1.29 1.29 0 0 0-1.118-.597c-.464 0-.833.197-1.106.591s-.41.974-.41 1.753zm21.875-3.433l.041.703c.445-.551 1.054-.827 1.827-.827.847 0 1.426.344 1.739 1.032.461-.688 1.108-1.032 1.944-1.032.699 0 1.218.205 1.557.615s.519 1.016.527 1.816v4.421h-1.423v-4.377c0-.427-.088-.74-.263-.939s-.466-.298-.872-.298c-.324 0-.589.093-.796.28s-.345.423-.427.721l.006 4.613h-1.422v-4.427c-.02-.792-.4-1.188-1.142-1.188-.57 0-.974.247-1.212.74v4.875H44.52v-6.727h1.34zm25.298 0l.041.703c.445-.551 1.054-.827 1.826-.827.847 0 1.426.344 1.739 1.032.461-.688 1.108-1.032 1.944-1.032.698 0 1.218.205 1.557.615s.519 1.016.527 1.816v4.421H77.37v-4.377c0-.427-.088-.74-.264-.939s-.466-.298-.872-.298c-.324 0-.589.093-.796.28s-.345.423-.427.721l.006 4.613h-1.422v-4.427c-.019-.792-.4-1.188-1.141-1.188-.57 0-.974.247-1.212.74v4.875H69.82v-6.727h1.341zm27.798 6.069c-.418.522-1.011.783-1.78.783-.687 0-1.208-.213-1.563-.64s-.527-1.045-.527-1.853v-4.359h1.423v4.34c0 .854.334 1.281 1.001 1.281.691 0 1.157-.263 1.399-.79v-4.831h1.422v6.727h-1.34l-.035-.659zm19.011-6.069l.041.777c.468-.601 1.083-.901 1.844-.901 1.319 0 1.99.802 2.013 2.406v4.446h-1.422v-4.358c0-.427-.088-.742-.264-.945s-.454-.311-.848-.311c-.574 0-1.001.276-1.282.827v4.788h-1.423v-6.727h1.341zm21.733 6.728h-1.423v-6.727h1.423v6.727zm-1.511-8.475a.84.84 0 0 1 .205-.578c.141-.153.34-.23.597-.23s.457.077.598.23a.82.82 0 0 1 .21.578c0 .232-.07.419-.21.572s-.34.224-.598.224-.456-.075-.597-.224a.83.83 0 0 1-.205-.572zm19.714.112v1.635h1.118v1.119h-1.118v3.756c0 .257.047.444.14.559s.27.168.516.168a2.07 2.07 0 0 0 .497-.062v1.169a3.31 3.31 0 0 1-.936.143c-1.093 0-1.64-.64-1.64-1.921v-3.811h-1.042v-1.119h1.042V34.92h1.423zm19.292 6.199l1.288-4.564H180l-2.517 7.747c-.387 1.132-1.042 1.697-1.967 1.697-.207 0-.435-.037-.685-.112v-1.169l.269.019c.359 0 .629-.07.808-.211s.328-.369.433-.696l.205-.578-2.224-6.696h1.533l1.341 4.564z"/></g></g><defs><clipPath id="A"><path fill="#fff" d="M0 0h180v46H0z"/></clipPath></defs></svg>