<svg xmlns="http://www.w3.org/2000/svg" viewBox="0 0 511 511" xmlns:v="https://vecta.io/nano"><g fill="#2516c7"><path d="M255.64 511c-8.3-2.84-15.4-7.9-22.66-12.59-49.26-31.86-87.41-74.41-117.67-124.18C76.89 311 54 242.38 45.07 169a492.78 492.78 0 0 1-2.4-95.07c.3-4.06 1.58-5 5.49-4.93 21.49.59 42.76-.64 63.27-8.09 16.55-6 31.12-15.44 45.3-25.59C173.29 23.49 190.19 12.26 210 6.39A144.26 144.26 0 0 1 255.59.33v31.06c-13.78.66-27.45 1.82-40.62 6.56-17 6.1-31.25 16.78-45.66 27.12-27.88 20-58.41 32.71-92.89 34.89-4.14.27-3.48 2.68-3.49 5.13a471.32 471.32 0 0 0 8.37 92.5C95.2 269.1 122.21 335 166.43 393.27c24.78 32.66 53.9 60.73 89.17 82.05q.03 17.84.04 35.68z"/><path d="M255.64 511q0-17.83 0-35.68l2.87-1.53c32.42-20.48 59.88-46.39 83.36-76.57 41.71-53.59 68.53-114.14 84-180a495.92 495.92 0 0 0 12.7-112.18c0-3.65-.88-5-4.72-5.24a182.16 182.16 0 0 1-18.86-2.44c-28.95-5-54.23-18.15-77.35-35.58-24.38-18.39-50.62-31.11-82-30.4V.32c28.88-.61 55.69 6.36 80 22.24 10 6.55 19.89 13.33 29.66 20.25 26.1 18.47 55.29 26.59 87 26.48h4.9c11.2 0 11.32 0 11.84 11 5.36 114-22.51 219-86 313.91-29.08 43.47-65.34 80-110.11 107.65-5.64 3.38-10.93 7.28-17.29 9.15zm-27.26-96c-23.24-21.16-42.31-45.75-58.63-72.46-34.66-56.72-55-118.35-62.5-184.31-1-8.82-1.48-17.7-2.22-26.55-.2-2.31-.19-4 3-4.59 17-3.43 33-9.6 48.49-17.16 24.74 30.27 45.92 62.72 61.4 98.76 13.22 30.8 21.42 62.89 23.42 96.29 1.91 31.8-.79 63.34-9.24 94.25-1.47 5.2-3.77 10.23-3.72 15.77zM342.8 103.34c19.06 10.74 38.95 19.39 60.48 23.77 4.05.83 2.94 3.56 2.83 5.83a426.64 426.64 0 0 1-11.12 78c-15.53 65.81-43.17 125.74-86.92 177.75-7.82 9.29-15.9 18.37-25.25 26.2a8.83 8.83 0 0 1 1.65-5.09 399 399 0 0 0 33.47-72.29 460.15 460.15 0 0 0 21.8-90.87c3-22.2 5.29-44.4 5.27-66.82-.01-25.52.43-51.04-2.21-76.48z"/></g><path d="M228.38 415c0-5.55 2.25-10.58 3.67-15.77 8.45-30.91 11.15-62.45 9.24-94.25-2-33.4-10.2-65.49-23.42-96.29-15.48-36-36.66-68.49-61.4-98.76a353.53 353.53 0 0 0 36.13-23c3.06-2.27 4.44-2.08 6.56 1.21A392.06 392.06 0 0 1 231.83 150c26.11 63 34.38 128.5 28.41 196.13a514.69 514.69 0 0 1-13.18 78.23c-.42 1.7-.56 3.52-2 5.24-5.91-4.52-11.68-9.11-16.68-14.6zM342.8 103.34c2.64 25.44 2.18 51 2.21 76.47 0 22.42-2.28 44.62-5.27 66.82a460.15 460.15 0 0 1-21.8 90.87 399 399 0 0 1-33.47 72.29 8.83 8.83 0 0 0-1.65 5.09l-.1.07a2.05 2.05 0 0 0-2.09 2.06 104.4 104.4 0 0 1-17.25 14.5 4.72 4.72 0 0 0-.74-.67c15.19-30.82 27.57-62.68 35.78-96.12a451.43 451.43 0 0 0 12.12-134.41 511.55 511.55 0 0 0-25.21-130.46c-.16-.5-.21-1-.54-2.79 21.94 8.94 38.78 24.56 58.01 36.28z" fill="#e86830"/><path d="M280.63 417a2.05 2.05 0 0 1 2.09-2.06zm-17.25 14.51l-.95.58.21-1.25a4.72 4.72 0 0 1 .74.67z" fill="#326ce5"/></svg>