<svg xmlns="http://www.w3.org/2000/svg" width="216" height="216" fill="none" xmlns:v="https://vecta.io/nano"><path d="M105.785 33.713L67.528 52.137c-.974.469-1.83 1.151-2.504 1.996s-1.148 1.831-1.388 2.885l-9.451 41.398a7.18 7.18 0 0 0-.006 3.212c.241 1.057.718 2.046 1.395 2.893l26.489 33.183a7.21 7.21 0 0 0 5.624 2.695h42.449c1.079.002 2.146-.24 3.119-.706a7.19 7.19 0 0 0 2.505-1.989l26.477-33.183c.675-.844 1.151-1.83 1.391-2.884s.241-2.148-.001-3.202l-9.451-41.418a7.17 7.17 0 0 0-1.388-2.885c-.674-.845-1.529-1.527-2.503-1.996l-38.257-18.424a7.19 7.19 0 0 0-3.122-.713c-1.082 0-2.149.244-3.122.713h0z" fill="#431bb1"/><path d="M75.844 89.855l.035-3.711a2.46 2.46 0 0 1 .277-1.367c.62-.935 1.64-.385 2.383 0a29.84 29.84 0 0 0 3.33 1.471 43.7 43.7 0 0 0 6.983 1.886l2.872.497a97.3 97.3 0 0 0 20.945.916c4.375-.228 8.723-.819 13-1.767 3.138-.72 6.206-1.655 9.02-3.284 1.155-.658 2.148-.062 2.163 1.282v6.979c0 1.259-.955 1.84-2.082 1.324a18.07 18.07 0 0 0-20.931 4.254c-1.068 1.175-1.974 2.488-2.694 3.904a2.38 2.38 0 0 1-1.017 1.155c-.394.151-.818.212-1.239.177a114.55 114.55 0 0 1-15.321-.905l-1.809-.262c-4.077-.623-8.177-1.54-11.807-3.464a9.74 9.74 0 0 1-2.86-2.14c-1.251-1.459-1.282-3.157-1.266-4.981l.019-1.963zm28.358 30.386c-5.097-.247-10.163-.589-15.167-1.694-3.503-.77-7.43-1.628-10.394-3.769-1.501-1.085-2.818-2.606-2.795-4.562v-7.799c0-1.293 1.028-1.925 2.148-1.305 3.746 2.098 7.83 3.107 12.003 3.869 5.794 1.051 11.637 1.378 17.508 1.409.627 0 1.363.1 1.624.751.328.808-.023 1.924-.057 2.76a17.67 17.67 0 0 0 1.174 7.018c.269.685.596 1.451.535 2.201-.077.924-.897 1.186-1.698 1.205-1.613.043-3.245-.019-4.881-.084zm12.415-8.971c0-6.544 5.413-11.868 12.088-11.883 6.617 0 12.076 5.344 12.076 11.853-.052 3.167-1.346 6.187-3.603 8.41a12.08 12.08 0 0 1-16.936.022c-2.263-2.217-3.564-5.234-3.625-8.401h0zm12.088-9.019c-1.782.027-3.516.58-4.984 1.59a9.04 9.04 0 0 0-3.268 4.085c-.663 1.654-.822 3.467-.457 5.212a9.03 9.03 0 0 0 2.506 4.591 9.04 9.04 0 0 0 4.631 2.435c1.749.337 3.56.15 5.203-.539a9.05 9.05 0 0 0 4.034-3.331c.987-1.483 1.513-3.227 1.512-5.009a9.13 9.13 0 0 0-9.177-9.034h0zm-1.214-3.649l.439-.319-.323-.281c.198-.128.345-.321.415-.546a1.01 1.01 0 0 0-.03-.686l-.366-1.059c-.098-.228-.124-.481-.076-.725a1.24 1.24 0 0 1 .345-.642c.194-.156.428-.252.676-.275a1.26 1.26 0 0 1 .714.144c.535.273.708.916.435 1.613l-.327.939c-.093.219-.105.463-.035.69s.219.422.42.549l-.324.258.512.416h-2.475v-.077zm.111 25.969l.323-.262-.508-.412h2.575l-.508.385.312.277a1.01 1.01 0 0 0-.418.546c-.07.225-.058.468.033.686.096.347.235.682.354 1.017.134.226.187.491.149.751a1.16 1.16 0 0 1-.354.68c-.192.18-.44.288-.702.308a1.15 1.15 0 0 1-.74-.2c-.539-.273-.709-.92-.435-1.613l.331-.939a1 1 0 0 0 .016-.687c-.075-.224-.227-.414-.428-.537h0zm-9.081-4.678l.408.062-.023-.42 1.54 1.636.115-.096-.504-.038.023.365s-.038.039-.054.035a.97.97 0 0 0-1.066.539 9.39 9.39 0 0 0-.466.97c-.273.601-.75.928-1.262.855-.274-.036-.528-.163-.722-.361a1.24 1.24 0 0 1-.345-.729c-.061-.5.285-.977.89-1.243a9.11 9.11 0 0 0 .9-.424 1.01 1.01 0 0 0 .489-.474c.103-.21.13-.449.077-.677h0zm18.798 1.567l.038-.423-.385.042 1.513-1.659v.5l.385-.023c0 .023.035.046.031.066-.045.204-.019.418.073.606a.93.93 0 0 0 .435.429 8.55 8.55 0 0 0 1.005.489 1.19 1.19 0 0 1 .622.485c.147.227.211.498.183.767a1.19 1.19 0 0 1-1.048 1.058c-.275.007-.545-.076-.769-.235s-.391-.388-.474-.651c-.123-.308-.265-.609-.424-.9a1 1 0 0 0-1.185-.551zm-.469-19.987l.481.058v-.412c.628.123.974-.243 1.236-.728.196-.362.331-.77.55-1.109a1.05 1.05 0 0 1 .534-.47 1.04 1.04 0 0 1 .71-.019 1.26 1.26 0 0 1 .618.422c.159.2.254.443.271.698a1.29 1.29 0 0 1-.264.714c-.158.206-.375.36-.621.441l-.732.323c-.504.262-.881.616-.77 1.263l-.411-.035.042.385-1.54-1.659-.104.127zm-16.769-.354l-.031.385.489-.05-.069-.066-1.563 1.729.03-.481h-.408c.124-.609-.223-.959-.693-1.217l-1.154-.57c-.209-.113-.373-.294-.463-.514a1.03 1.03 0 0 1-.034-.691c.067-.246.208-.466.403-.63a1.26 1.26 0 0 1 .69-.29c.497-.046.963.312 1.224.92a7.16 7.16 0 0 0 .455.931 1 1 0 0 0 .467.467c.204.099.436.125.657.076h0zm21.882 11.306c-.112-.281-.235-.454-.485-.116v-1.99l.27.17.234-.297c.328.497.797.531 1.309.385.343-.1.674-.246 1.013-.358.229-.097.482-.12.725-.066s.463.182.63.366c.158.194.252.432.271.681a1.23 1.23 0 0 1-.167.713c-.278.512-.913.674-1.586.416-.334-.134-.675-.251-1.021-.351a.99.99 0 0 0-.677.007c-.218.082-.401.237-.516.44h0zm-26.528-2.267c.131.254.231.496.489.096v1.998l-.27-.166-.235.301a1 1 0 0 0-.547-.419c-.226-.071-.47-.059-.688.034-.358.1-.701.242-1.055.362-.228.097-.48.124-.723.077s-.468-.165-.644-.339a1.27 1.27 0 0 1-.277-.675 1.26 1.26 0 0 1 .143-.715c.277-.543.908-.712 1.605-.443a9.8 9.8 0 0 0 .981.339 1 1 0 0 0 .693-.001c.224-.082.411-.242.528-.449h0zm9.745.311c.156-.096.282-.233.364-.396s.118-.346.102-.528c0-.089-.089-.231-.158-.246-.231-.046-.45-.143-.639-.285s-.344-.323-.454-.532l-.439-.808c-.323-.662-.319-.662-1.059-.485v-.743h-.858c.046-.154.05-.312.127-.385l1.382-1.332c.065-.061.193-.054.289-.081a1.97 1.97 0 0 1 .031.297l-.02.519h.77c-.154.743-.15.736.528 1.074a4.41 4.41 0 0 1 .931.539 4.64 4.64 0 0 1 .67.84c.058.08.069.284.1.284.221.02.443-.009.651-.084.385-.193.469-.385.242-.805a1.41 1.41 0 0 1-.151-.551c-.012-.192.016-.384.082-.565.079-.352.183-.699.312-1.036.158-.385.084-.643-.327-.77-.067-.034-.13-.076-.189-.123l.6-.558-.704-.566c.887-.192 1.804-.201 2.695-.027l-.651.612.581.547-.338.185a.39.39 0 0 0-.149.083.38.38 0 0 0-.097.14c-.022.053-.032.11-.029.167s.02.114.047.164l.335 1.07a2.11 2.11 0 0 1-.061 1.417c-.035.111-.139.285-.104.315.145.17.328.302.535.385.427.12.543.081.693-.385.138-.374.413-.682.77-.862l.704-.385c.682-.339.685-.335.528-1.074h.731v-.554a1.87 1.87 0 0 1 .039-.258c.084 0 .2 0 .254.054l1.462 1.413c.062.065.043.207.066.338l-.839-.042.042.716c-.077.031-.104.058-.123.05-.655-.169-.651-.165-.959.458a4.05 4.05 0 0 1-.492.866c-.274.291-.574.555-.897.789-.089.074-.32.093-.316.128a2.16 2.16 0 0 0 .119.681c.158.385.489.385.77.196a1.31 1.31 0 0 1 .529-.155c.185-.013.371.014.545.078l.963.277c.642.201.643.204 1.108-.55l.385.693.555-.601c.304 0 .288.235.296.451.077 1.701.054 1.874-.285 2.04l-.535-.562-.527.574a2.42 2.42 0 0 1-.147-.251c-.017-.071-.052-.137-.1-.193s-.11-.099-.178-.126a.47.47 0 0 0-.216-.032c-.073.007-.144.031-.206.07-.297.12-.612.197-.916.293-.283.109-.588.145-.888.104a1.8 1.8 0 0 1-.829-.335l-.189.223c-.45.489-.423.893.158 1.093a1.51 1.51 0 0 1 .831.751c.162.258.304.531.443.808.304.62.3.624 1.016.42v.77c.204 0 .385-.035.582-.035.08 0 .204 0 .234.07.018.04.025.084.021.128s-.019.085-.044.122l-1.497 1.44c-.162.146-.3.073-.277-.174l.05-.596h-.801l.096-.304c.03-.057.047-.119.05-.183a.43.43 0 0 0-.033-.187c-.024-.058-.062-.111-.109-.154s-.104-.074-.166-.092l-1.201-.639c-.187-.107-.349-.253-.473-.43a1.45 1.45 0 0 1-.243-.591c-.046-.207-.543-.254-.804-.065-.135.1-.254.223-.416.366.524.643.385 1.336.146 2.036l-.108.343c-.219.697-.219.697.435 1.101l-.565.535.631.597a6.49 6.49 0 0 1-2.641 0l.639-.609-.581-.558.308-.158a.41.41 0 0 0 .167-.089.42.42 0 0 0 .109-.155.4.4 0 0 0 .03-.187c-.004-.064-.024-.126-.056-.181-.115-.3-.192-.612-.293-.916a1.88 1.88 0 0 1-.121-.918c.037-.312.151-.609.333-.864-.113-.129-.242-.243-.385-.339a2.73 2.73 0 0 0-.519-.127c-.316-.081-.235.158-.293.323-.173.443-.509.803-.939 1.005l-.743.385c-.605.3-.609.3-.385 1.005h-.77c0 .211 0 .412.038.612s-.111.319-.269.177l-1.501-1.44c-.058-.062-.035-.204-.051-.312h.794l-.031-.704c.084-.023.111-.043.134-.035.632.181.624.177.913-.385a5.79 5.79 0 0 1 .596-1.039c.251-.26.531-.489.836-.682.092-.065.308-.1.308-.134-.012-.232-.057-.46-.135-.678-.054-.138-.2-.239-.335-.385-.801.643-1.624.274-2.44 0-.67-.212-.67-.215-1.067.524l-.535-.655-.593.62a1.45 1.45 0 0 1-.185-.427c-.119-1.351-.046-1.925.262-2.117l.535.581.547-.589.162.3c.017.062.048.119.09.167a.42.42 0 0 0 .153.11.43.43 0 0 0 .187.033c.064-.003.126-.021.182-.052.296-.115.608-.2.916-.289 1.005-.288 1.143-.081 1.809.193zm3.503-1.771c-.673.016-1.314.293-1.787.773a2.6 2.6 0 0 0-.746 1.799c-.003.337.061.671.188.984a2.57 2.57 0 0 0 .551.837c.238.239.52.43.831.56a2.57 2.57 0 0 0 .983.198 2.61 2.61 0 0 0 1.807-.728c.485-.468.77-1.105.795-1.778-.013-.696-.294-1.359-.785-1.852s-1.153-.777-1.848-.793h.011zm.046.828a1.78 1.78 0 0 1 1.2.56c.312.335.484.777.479 1.234a1.78 1.78 0 0 1-.506 1.224c-.32.327-.754.519-1.211.535a1.8 1.8 0 0 1-.704-.119c-.224-.087-.428-.219-.6-.386s-.308-.369-.4-.591-.138-.461-.136-.701a1.77 1.77 0 0 1 .564-1.28c.175-.164.382-.291.608-.373s.466-.117.706-.103h0zm.963 1.782a.99.99 0 0 0-.163-.551c-.107-.164-.261-.292-.441-.368s-.379-.097-.571-.061a1 1 0 0 0-.509.267c-.139.137-.235.313-.274.505a.99.99 0 0 0 .412 1.018c.162.11.353.17.549.171.132.005.264-.017.388-.066a.96.96 0 0 0 .329-.216.95.95 0 0 0 .215-.33c.048-.124.07-.256.065-.388v.019zm7.175-37.02v-6.525c.03-.473-.047-.947-.226-1.386a3.14 3.14 0 0 0-.806-1.151c-.928-.808-1.949-1.504-3.041-2.071-3.126-1.494-6.498-2.152-9.897-2.695-4.742-.747-9.532-1.154-14.332-1.22-2.941-.05-5.886.092-8.827.223a88.96 88.96 0 0 0-7.699.651 14.39 14.39 0 0 1 1.074 2.737 73.97 73.97 0 0 1 11.683-.92c5.956 0 10.356.2 14.713.905 3.273.527 6.518 1.197 9.544 2.629a8.63 8.63 0 0 1 1.639 1.005c.909.712.944 1.474-.038 2.094a17.91 17.91 0 0 1-3.622 1.813c-3.992 1.394-8.146 1.998-12.346 2.383-4.224.366-8.468.451-12.704.254v.154a9.32 9.32 0 0 1-.688 3.613 9.31 9.31 0 0 1-2.033 3.065c-.875.877-1.915 1.57-3.06 2.039a9.33 9.33 0 0 1-3.611.696H80.556a9.83 9.83 0 0 0 .82.385 30.44 30.44 0 0 0 6.14 2.025c4.97 1.116 10.171 1.582 15.256 1.775a90.93 90.93 0 0 0 3.464.073 98.19 98.19 0 0 0 12.219-.735c4.866-.6 9.92-1.471 14.301-3.788 1.247-.662 2.452-1.486 3.233-2.66 1.125-1.648.874-3.488.878-5.366zm-18.428-4.635c2.002-.608 3.014-1.313 3.026-2.086 0-.427-1.721-.685-3.168-.47l-6.502 1.028c-1.413.243-1.194.666.331.87l1.925.246-.562.162c-3.386.61-6.838.759-10.263.443a32.76 32.76 0 0 1-1.925-.219 9.06 9.06 0 0 1 .404 1.189c5.767.5 12.55.115 16.734-1.163zm-17.279-3.627l-2.025-.262.862-.119c4.685-.935 11.371-.77 15.121.416a7.4 7.4 0 0 0 3.257.204c1.078-.181 1.189-.516.227-.82-2.626-.826-6.113-1.295-10.463-1.405a50.78 50.78 0 0 0-11.11.832 9.81 9.81 0 0 1 2.795 2.333l1.586-.254c1.705-.266 1.57-.697-.251-.924zm-7.966 1.105c-.932-4.369-4.924-7.699-9.843-7.699-1.794-.031-3.562.433-5.11 1.34s-2.817 2.223-3.667 3.803c-4.123.516-7.183 3.73-7.183 7.699 0 4.234 3.592 7.699 7.98 7.699h17.288c3.726 0 6.652-2.829 6.652-6.433 0-3.322-2.795-6.152-6.117-6.41zm-7.183 3.85v5.147h-5.32v-5.139h-3.992l6.652-6.429 6.648 6.429-3.988-.008z" fill="#fff"/><path d="M15.508 182.4v-26.191h6.05v11.288l9.591-11.288h6.787l-9.812 11.694L38.601 182.4h-6.935l-7.378-10.513-2.73 2.803v7.71h-6.05zm23.391-6.972v-12.394h5.902v11.103c0 1.181.234 2.09.701 2.73.467.615 1.131.922 1.992.922a4.66 4.66 0 0 0 1.549-.258c.492-.197.971-.504 1.439-.922s.885-.959 1.254-1.623v-11.952h5.902v12.8c0 .59.086 1.008.258 1.254.197.222.529.357.996.406v4.906l-1.439.221c-.394.05-.75.074-1.07.074-1.033 0-1.857-.209-2.471-.627-.615-.443-.996-1.057-1.144-1.844l-.111-1.181c-.885 1.279-1.992 2.226-3.32 2.841-1.303.59-2.767.885-4.39.885-1.967 0-3.468-.627-4.5-1.881s-1.549-3.074-1.549-5.46zm34.563 7.341c-1.476 0-2.767-.307-3.873-.922-1.107-.64-1.98-1.525-2.619-2.656v3.209h-5.128v-26.928h5.902v10.734c.639-1.131 1.488-2.004 2.545-2.619 1.082-.615 2.349-.922 3.799-.922 1.23 0 2.349.27 3.357.811 1.033.517 1.918 1.242 2.656 2.177.762.91 1.353 1.979 1.771 3.209.418 1.205.627 2.521.627 3.947 0 1.402-.234 2.705-.701 3.91-.443 1.205-1.07 2.263-1.881 3.173s-1.771 1.623-2.877 2.139c-1.082.492-2.275.738-3.578.738zm-1.66-4.98c.664 0 1.279-.123 1.844-.369.59-.27 1.094-.627 1.512-1.07s.738-.959.959-1.549c.221-.615.332-1.279.332-1.992a5.92 5.92 0 0 0-.553-2.545c-.369-.787-.885-1.414-1.549-1.881-.639-.468-1.389-.701-2.25-.701a3.78 3.78 0 0 0-1.771.442c-.566.295-1.07.701-1.512 1.218-.443.491-.799 1.057-1.07 1.696v4.058a5.08 5.08 0 0 0 .738 1.144 4.95 4.95 0 0 0 .959.811c.369.222.75.406 1.144.554.418.123.824.184 1.217.184zm22.526 4.98c-1.648 0-3.111-.258-4.39-.775-1.279-.541-2.373-1.266-3.283-2.176a9.43 9.43 0 0 1-2.029-3.136c-.467-1.205-.701-2.459-.701-3.762 0-1.869.406-3.566 1.217-5.091.836-1.549 2.029-2.791 3.578-3.726 1.549-.959 3.418-1.438 5.607-1.438s4.045.467 5.57 1.402c1.549.934 2.729 2.164 3.541 3.688.812 1.501 1.217 3.136 1.217 4.907a7.31 7.31 0 0 1-.073 1.032l-.074.849H90.197c.074.861.307 1.586.701 2.176a4.24 4.24 0 0 0 1.586 1.365c.639.295 1.316.443 2.029.443a5.06 5.06 0 0 0 2.472-.627c.787-.418 1.328-.984 1.623-1.697l5.016 1.402c-.491 1.008-1.192 1.906-2.102 2.693-.886.762-1.943 1.364-3.173 1.807-1.205.443-2.545.664-4.021.664zm-4.279-11.841h8.411c-.098-.812-.332-1.513-.701-2.103-.369-.615-.861-1.082-1.475-1.402-.615-.344-1.291-.516-2.029-.516-.762 0-1.451.172-2.066.516-.59.32-1.07.787-1.439 1.402-.369.59-.602 1.291-.701 2.103zm33.219-7.857c-.172-.173-.492-.406-.959-.701-.443-.295-.996-.578-1.66-.849-.639-.27-1.34-.504-2.103-.701-.762-.221-1.537-.332-2.324-.332-1.377 0-2.422.259-3.135.775-.689.516-1.033 1.242-1.033 2.176 0 .714.221 1.279.664 1.697s1.107.775 1.992 1.07l3.32.959c1.721.418 3.209.935 4.463 1.55 1.279.59 2.251 1.377 2.915 2.36.688.959 1.033 2.238 1.033 3.837 0 1.402-.259 2.607-.775 3.615a6.49 6.49 0 0 1-2.14 2.398c-.91.614-1.942 1.069-3.098 1.364-1.156.271-2.386.406-3.689.406s-2.607-.135-3.91-.406a21.42 21.42 0 0 1-3.763-1.143c-1.205-.517-2.312-1.131-3.32-1.844l2.25-4.39c.222.221.615.516 1.181.885.565.344 1.254.701 2.065 1.07.812.344 1.697.639 2.656.885s1.931.369 2.915.369c1.377 0 2.422-.234 3.135-.701s1.07-1.131 1.07-1.992c0-.787-.283-1.402-.849-1.844s-1.352-.824-2.36-1.144l-3.579-1.106c-1.647-.468-3.024-.984-4.131-1.55-1.107-.59-1.931-1.328-2.472-2.213s-.811-1.992-.811-3.32c0-1.795.418-3.295 1.254-4.5.861-1.23 2.017-2.152 3.468-2.767 1.451-.639 3.061-.959 4.832-.959 1.23 0 2.385.135 3.467.406 1.107.27 2.14.627 3.099 1.069s1.82.923 2.582 1.439l-2.25 4.132zm18.492 18.296l-1.808.664c-.639.222-1.316.394-2.029.517-.713.147-1.414.221-2.102.221-.984 0-1.894-.16-2.73-.48-.812-.344-1.463-.897-1.955-1.66-.468-.762-.701-1.77-.701-3.024v-10.108h-2.472v-4.463h2.472v-6.161h5.902v6.161h3.947v4.463h-3.947v8.079c0 .639.16 1.106.48 1.402.319.27.725.405 1.217.405.418 0 .861-.073 1.328-.221.492-.148.91-.307 1.254-.48l1.144 4.685zm.713-4.758c0-1.279.357-2.398 1.07-3.357s1.697-1.709 2.951-2.25c1.254-.566 2.693-.849 4.316-.849.787 0 1.562.074 2.324.221.762.123 1.426.308 1.992.554v-.849c0-1.057-.32-1.869-.959-2.434s-1.611-.849-2.914-.849c-1.082 0-2.103.185-3.062.554-.935.369-1.931.897-2.988 1.586l-1.771-3.763c1.279-.836 2.607-1.463 3.984-1.881 1.402-.418 2.878-.627 4.427-.627 2.902 0 5.152.701 6.75 2.102 1.624 1.378 2.435 3.382 2.435 6.013v5.054c0 .59.086 1.008.258 1.254.197.222.529.357.996.406v4.906l-1.401.221c-.419.05-.787.074-1.107.074-1.107 0-1.955-.221-2.545-.664-.566-.442-.923-1.045-1.07-1.807l-.111-.849a8.8 8.8 0 0 1-3.098 2.546 8.53 8.53 0 0 1-3.726.848c-1.279 0-2.435-.27-3.468-.812-1.008-.541-1.807-1.278-2.397-2.213s-.886-1.98-.886-3.135zm11.731.737c.27-.221.492-.467.664-.737s.258-.529.258-.775V174.1c-.492-.197-1.045-.344-1.66-.442-.59-.123-1.144-.185-1.66-.185-1.082 0-1.98.246-2.693.738-.713.467-1.07 1.094-1.07 1.881a2.15 2.15 0 0 0 .369 1.218 2.68 2.68 0 0 0 .996.885c.443.221.959.332 1.55.332s1.18-.111 1.77-.332 1.082-.504 1.476-.849zm18.147 5.423c-1.648 0-3.259-.27-4.833-.812s-2.902-1.34-3.984-2.397l2.029-3.726c1.181.861 2.324 1.512 3.431 1.955 1.131.443 2.188.664 3.172.664.762 0 1.353-.123 1.771-.369s.627-.627.627-1.143c0-.369-.123-.652-.369-.849-.246-.221-.627-.418-1.144-.59l-1.844-.553-3.689-1.439c-.984-.467-1.721-1.033-2.213-1.697-.492-.688-.738-1.574-.738-2.656 0-1.303.32-2.434.959-3.394.664-.983 1.599-1.746 2.804-2.287s2.643-.811 4.316-.811a12.17 12.17 0 0 1 3.873.627c1.279.418 2.472 1.119 3.578 2.103l-2.287 3.688c-1.107-.762-2.09-1.315-2.951-1.66s-1.697-.516-2.508-.516c-.418 0-.8.049-1.144.148a1.76 1.76 0 0 0-.848.516c-.197.221-.296.516-.296.885s.099.664.296.886c.221.221.553.418.996.59l1.733.553c1.599.467 2.927.947 3.984 1.439 1.058.467 1.845 1.057 2.361 1.77.541.689.812 1.611.812 2.767 0 1.967-.713 3.517-2.14 4.648-1.402 1.107-3.32 1.66-5.754 1.66zm29.218-.369h-5.902v-10.882c0-1.254-.259-2.176-.775-2.767-.492-.59-1.156-.885-1.992-.885-.443 0-.947.148-1.512.443-.541.27-1.046.664-1.513 1.18s-.824 1.119-1.07 1.808V182.4h-5.902v-26.928h5.902v10.808c.714-1.156 1.648-2.041 2.804-2.656 1.18-.64 2.471-.959 3.873-.959 1.328 0 2.386.221 3.173.664.811.442 1.426 1.033 1.844 1.77a6.97 6.97 0 0 1 .849 2.361c.147.861.221 1.709.221 2.546V182.4z" fill="#431bb1"/></svg>