<svg width="64" height="64" viewBox="0 0 64 64" fill="none" xmlns="http://www.w3.org/2000/svg">
<path d="M30.1796 1.30541L13.7939 9.19652C13.3767 9.39723 13.0102 9.68944 12.7216 10.0514C12.433 10.4134 12.2297 10.8358 12.127 11.2872L8.07918 29.0183C7.97445 29.4708 7.9736 29.9412 8.07669 30.3941C8.17978 30.847 8.38413 31.2706 8.6744 31.6333L20.0197 45.8458C20.3092 46.2063 20.6759 46.4972 21.0929 46.697C21.5098 46.8968 21.9663 47.0003 22.4286 47H40.6098C41.0722 47.0007 41.5288 46.8973 41.9458 46.6975C42.3628 46.4977 42.7295 46.2066 43.0187 45.8458L54.3591 31.6333C54.6481 31.2716 54.8518 30.8493 54.9549 30.398C55.0579 29.9466 55.0577 29.4778 54.9543 29.0265L50.9065 11.2872C50.8038 10.8358 50.6005 10.4134 50.3119 10.0514C50.0233 9.68944 49.6568 9.39723 49.2396 9.19652L32.8539 1.30541C32.4368 1.10439 31.9798 1 31.5167 1C31.0537 1 30.5967 1.10439 30.1796 1.30541V1.30541Z" fill="#431BB1"/>
<path d="M17.3551 25.3512L17.37 23.7618C17.3523 23.5593 17.3935 23.356 17.4887 23.1765C17.7541 22.7758 18.1911 23.0116 18.5093 23.1765C18.9714 23.4152 19.4477 23.6256 19.9355 23.8063C20.9084 24.1578 21.9088 24.428 22.9264 24.6142C23.3353 24.6934 23.7508 24.7626 24.1564 24.8269C27.1239 25.2804 30.1317 25.412 33.1275 25.2193C35.0012 25.1217 36.8636 24.8686 38.6954 24.4625C40.0392 24.1542 41.3533 23.7536 42.5586 23.0561C43.0532 22.7742 43.4786 23.0297 43.4852 23.6052C43.4962 24.601 43.4962 25.5974 43.4852 26.5944C43.4852 27.1336 43.0763 27.3825 42.5932 27.1616C41.0993 26.4733 39.4249 26.2788 37.813 26.6064C36.201 26.934 34.7354 27.7666 33.6287 28.9835C33.171 29.4867 32.7828 30.049 32.4746 30.6554C32.3882 30.8639 32.2351 31.0379 32.0393 31.15C31.8703 31.2149 31.6888 31.2408 31.5084 31.2259C29.3148 31.2436 27.1224 31.1142 24.9462 30.8384C24.689 30.8038 24.4301 30.7675 24.1712 30.7263C22.4252 30.4592 20.6692 30.0668 19.1144 29.2424C18.653 29.0149 18.2377 28.7041 17.8893 28.3256C17.3535 27.7008 17.3403 26.9736 17.3469 26.1921L17.3551 25.3512Z" fill="white"/>
<path d="M29.5021 38.3653C27.3191 38.2597 25.1492 38.113 23.0058 37.6398C21.5054 37.31 19.8237 36.9424 18.5541 36.0256C17.9111 35.5607 17.3472 34.9094 17.3571 34.0718C17.3703 32.9589 17.3571 31.8459 17.3571 30.7314C17.3571 30.1774 17.7973 29.907 18.2771 30.1724C19.8814 31.071 21.6307 31.503 23.418 31.8295C25.8994 32.2796 28.4023 32.4197 30.9167 32.4329C31.1855 32.4329 31.5004 32.4758 31.6125 32.7544C31.7527 33.1007 31.6026 33.5788 31.5878 33.9366C31.5499 34.9623 31.721 35.9849 32.0907 36.9424C32.2061 37.2358 32.3462 37.5639 32.3198 37.8855C32.2869 38.2812 31.9357 38.3933 31.5927 38.4015C30.9019 38.4197 30.2028 38.3933 29.5021 38.3653Z" fill="white"/>
<path d="M34.8191 34.5237C34.8191 31.7207 37.1373 29.4404 39.9963 29.4338C42.8306 29.4338 45.1685 31.7224 45.1685 34.5105C45.1461 35.867 44.592 37.1604 43.6254 38.1124C42.6587 39.0644 41.357 39.5987 40.0003 39.6005C38.6436 39.6022 37.3405 39.0712 36.3715 38.1216C35.4024 37.1721 34.845 35.8801 34.8191 34.5237V34.5237ZM39.9963 30.6605C39.2332 30.6722 38.4905 30.9092 37.8617 31.3418C37.2329 31.7743 36.7459 32.383 36.4621 33.0914C36.1782 33.7999 36.11 34.5764 36.2662 35.3235C36.4223 36.0706 36.7958 36.7548 37.3397 37.2902C37.8835 37.8257 38.5735 38.1884 39.323 38.3328C40.0724 38.4773 40.8478 38.397 41.5517 38.1021C42.2556 37.8071 42.8566 37.3107 43.2793 36.6752C43.7019 36.0397 43.9272 35.2935 43.927 34.5303C43.9161 33.4967 43.4966 32.5095 42.76 31.7844C42.0235 31.0593 41.0299 30.6553 39.9963 30.6605V30.6605Z" fill="white"/>
<path d="M39.4756 29.0975L39.6636 28.9607L39.525 28.8403C39.6099 28.7855 39.6728 28.7027 39.7029 28.6063C39.733 28.5099 39.7284 28.406 39.6899 28.3127C39.6454 28.1593 39.5844 28.011 39.5333 27.8593C39.4915 27.7614 39.4801 27.6532 39.5007 27.5488C39.5213 27.4444 39.5728 27.3486 39.6487 27.2739C39.7314 27.2071 39.832 27.1662 39.9379 27.1562C40.0437 27.1462 40.1502 27.1677 40.2439 27.2179C40.4731 27.335 40.5473 27.6103 40.4302 27.9087C40.3791 28.0406 40.328 28.1742 40.2901 28.311C40.2504 28.4047 40.2451 28.5095 40.2753 28.6067C40.3055 28.7039 40.3691 28.7872 40.455 28.842L40.3165 28.9524L40.5358 29.1305H39.4756V29.0975Z" fill="white"/>
<path d="M39.5232 40.2202L39.6617 40.1081L39.4441 39.9316H40.5471L40.3295 40.0965L40.463 40.2152C40.3777 40.2696 40.3144 40.3524 40.2842 40.4489C40.254 40.5455 40.259 40.6496 40.2982 40.7428C40.3394 40.8912 40.3987 41.0347 40.4499 41.1781C40.5071 41.2751 40.5296 41.3887 40.5136 41.5001C40.4976 41.6116 40.444 41.7143 40.3618 41.7912C40.2795 41.8681 40.1734 41.9146 40.0611 41.923C39.9488 41.9315 39.837 41.9014 39.7442 41.8376C39.5133 41.7206 39.4408 41.4436 39.5579 41.1468C39.609 41.0149 39.6601 40.8813 39.6997 40.7445C39.7366 40.6503 39.7391 40.5461 39.7069 40.4502C39.6746 40.3543 39.6096 40.2729 39.5232 40.2202V40.2202Z" fill="white"/>
<path d="M35.6337 38.2168L35.8084 38.2432L35.7985 38.0635L36.4581 38.7642L36.5075 38.723L36.2915 38.7065L36.3014 38.8631C36.3014 38.8631 36.2849 38.8796 36.2783 38.878C36.1874 38.86 36.093 38.8729 36.0102 38.9147C35.9275 38.9566 35.8611 39.0249 35.8216 39.1088C35.7472 39.2434 35.6806 39.3821 35.6221 39.5243C35.5051 39.7815 35.3006 39.9217 35.0813 39.8903C34.964 39.8748 34.8552 39.8204 34.7724 39.7359C34.6896 39.6513 34.6376 39.5414 34.6246 39.4237C34.5982 39.2094 34.7466 39.0049 35.0055 38.8912C35.1373 38.8377 35.2661 38.7772 35.3913 38.7098C35.4824 38.6683 35.5563 38.5964 35.6005 38.5066C35.6447 38.4167 35.6564 38.3143 35.6337 38.2168V38.2168Z" fill="white"/>
<path d="M43.6848 38.888L43.7013 38.7066L43.5364 38.7248L44.1844 38.0142V38.2285L44.3492 38.2186C44.3492 38.2285 44.3641 38.2384 44.3624 38.2466C44.3433 38.3343 44.3544 38.4258 44.3939 38.5063C44.4334 38.5869 44.499 38.6516 44.5801 38.6902C44.7188 38.7692 44.8626 38.8391 45.0104 38.8996C45.1203 38.9364 45.2144 39.0096 45.2771 39.1071C45.3398 39.2046 45.3674 39.3206 45.3553 39.4359C45.3432 39.5512 45.2921 39.6589 45.2105 39.7412C45.1289 39.8236 45.0217 39.8757 44.9065 39.8888C44.7886 39.8919 44.673 39.8565 44.5769 39.7881C44.4809 39.7197 44.4097 39.622 44.374 39.5096C44.3212 39.3775 44.2607 39.2487 44.1926 39.1238C44.15 39.0304 44.0754 38.9553 43.9823 38.912C43.8891 38.8688 43.7836 38.8603 43.6848 38.888Z" fill="white"/>
<path d="M43.4854 30.3275L43.6915 30.3522V30.1758C43.9602 30.2286 44.1086 30.0719 44.2207 29.8642C44.3048 29.7092 44.3625 29.5344 44.4565 29.3894C44.5067 29.2977 44.5875 29.2265 44.6849 29.1882C44.7822 29.15 44.8898 29.147 44.989 29.18C45.0936 29.212 45.186 29.2751 45.254 29.3607C45.322 29.4464 45.3624 29.5506 45.3699 29.6598C45.3638 29.7708 45.3244 29.8774 45.2567 29.9657C45.1891 30.0539 45.0964 30.1197 44.9907 30.1544C44.8852 30.2006 44.778 30.2401 44.6774 30.2929C44.4614 30.405 44.2999 30.5567 44.3477 30.8337L44.1712 30.8189L44.1894 30.9837L43.5299 30.2731L43.4854 30.3275Z" fill="white"/>
<path d="M36.3033 30.1757L36.2901 30.3406L36.4995 30.3191L36.4699 30.2911L35.8005 31.0314L35.8136 30.8253H35.6389C35.6916 30.5648 35.5432 30.4148 35.3421 30.3043C35.1772 30.2169 35.0123 30.1576 34.8475 30.0603C34.758 30.0119 34.688 29.9341 34.6493 29.8401C34.6106 29.7461 34.6054 29.6416 34.6348 29.5442C34.6637 29.4388 34.7239 29.3447 34.8076 29.2743C34.8912 29.2039 34.9942 29.1606 35.103 29.1501C35.3157 29.1304 35.5152 29.2837 35.6273 29.5442C35.6825 29.6817 35.7475 29.8151 35.8219 29.9432C35.8642 30.0306 35.9347 30.1011 36.0221 30.1433C36.1095 30.1855 36.2086 30.1969 36.3033 30.1757V30.1757Z" fill="white"/>
<path d="M45.6748 35.0182C45.627 34.8979 45.5742 34.8237 45.467 34.9688V34.1164L45.5825 34.1889L45.683 34.0619C45.8232 34.2746 46.0243 34.2895 46.2436 34.2268C46.3904 34.184 46.5322 34.1213 46.6773 34.0735C46.7754 34.032 46.884 34.0221 46.988 34.0451C47.092 34.0682 47.1862 34.123 47.2576 34.2021C47.3253 34.285 47.3658 34.3868 47.3738 34.4935C47.3817 34.6003 47.3567 34.7069 47.3021 34.799C47.1834 35.0182 46.9114 35.0875 46.6228 34.977C46.4798 34.9196 46.334 34.8696 46.1859 34.827C46.0918 34.7939 45.9891 34.7949 45.8956 34.8298C45.8022 34.8648 45.724 34.9315 45.6748 35.0182V35.0182Z" fill="white"/>
<path d="M34.313 34.0472C34.369 34.156 34.4119 34.2599 34.5224 34.0884V34.9441L34.407 34.8732L34.3064 35.0018C34.252 34.9161 34.1689 34.8525 34.072 34.8223C33.9751 34.7922 33.8706 34.7973 33.7771 34.837C33.6238 34.8798 33.477 34.9408 33.3254 34.992C33.2277 35.0335 33.1198 35.0451 33.0156 35.0251C32.9114 35.0051 32.8154 34.9546 32.74 34.8798C32.6729 34.7973 32.6317 34.6968 32.6214 34.5909C32.6112 34.4851 32.6323 34.3785 32.6823 34.2846C32.801 34.0521 33.0714 33.9796 33.3699 34.095C33.5074 34.1507 33.6477 34.1992 33.7903 34.2401C33.8862 34.2751 33.9913 34.275 34.0871 34.2396C34.1828 34.2043 34.2629 34.1361 34.313 34.0472V34.0472Z" fill="white"/>
<path d="M38.4863 34.1805C38.553 34.1396 38.607 34.0809 38.6422 34.011C38.6774 33.9411 38.6925 33.8628 38.6858 33.7848C38.6858 33.7469 38.6479 33.6859 38.6182 33.6793C38.5191 33.6597 38.4255 33.6181 38.3445 33.5576C38.2635 33.4971 38.197 33.4193 38.15 33.3298C38.0873 33.2144 38.0197 33.1006 37.962 32.9835C37.8235 32.6999 37.8252 32.6999 37.5086 32.7758V32.4576H37.1409C37.1607 32.3916 37.1624 32.324 37.1953 32.2927C37.3883 32.0965 37.5878 31.9085 37.7873 31.7222C37.8153 31.6958 37.8697 31.6991 37.9109 31.6876C37.9186 31.7295 37.923 31.7719 37.9241 31.8145C37.9241 31.8854 37.9241 31.9563 37.9159 32.0371H38.2456C38.1797 32.3553 38.1813 32.352 38.4715 32.4971C38.6135 32.5574 38.7475 32.6349 38.8705 32.728C38.9797 32.8363 39.076 32.9569 39.1574 33.0874C39.1821 33.122 39.1871 33.2094 39.2003 33.2094C39.2947 33.2179 39.3898 33.2055 39.4789 33.1731C39.6438 33.0907 39.6801 33.0083 39.5828 32.8285C39.5453 32.7551 39.5233 32.6748 39.5182 32.5925C39.5131 32.5103 39.525 32.4279 39.5531 32.3504C39.5868 32.1995 39.6315 32.0513 39.6867 31.9069C39.7543 31.742 39.7229 31.6315 39.5465 31.5771C39.5179 31.5622 39.4909 31.5445 39.4657 31.5243L39.7229 31.2853L39.4212 31.0429C39.8012 30.9608 40.1938 30.9569 40.5754 31.0314L40.2967 31.2935L40.5457 31.5276L40.4006 31.6068C40.377 31.6138 40.3553 31.6261 40.3371 31.6426C40.3189 31.6591 40.3045 31.6795 40.2952 31.7022C40.2859 31.725 40.2818 31.7496 40.2832 31.7741C40.2846 31.7987 40.2915 31.8226 40.3033 31.8442C40.3577 31.9942 40.394 32.1525 40.4468 32.3026C40.5084 32.5018 40.4991 32.7162 40.4204 32.9093C40.4055 32.9571 40.361 33.0313 40.3759 33.0445C40.4378 33.1172 40.5165 33.1737 40.605 33.2094C40.7881 33.2605 40.8375 33.244 40.9018 33.0445C40.9611 32.8841 41.0789 32.7522 41.2316 32.6752C41.3289 32.6158 41.4311 32.5614 41.5333 32.5103C41.8251 32.3652 41.8268 32.3669 41.7592 32.0503H42.0725C42.0725 31.9745 42.0725 31.8937 42.0725 31.8129C42.0755 31.7757 42.081 31.7388 42.089 31.7024C42.1252 31.7024 42.1747 31.7024 42.1978 31.7255C42.4099 31.9233 42.6188 32.1251 42.8243 32.3306C42.8507 32.3586 42.8425 32.4196 42.8523 32.4757L42.4929 32.4576L42.511 32.7642C42.4781 32.7774 42.4665 32.789 42.4583 32.7857C42.178 32.7131 42.1796 32.7148 42.0477 32.9819C41.9929 33.1137 41.922 33.2383 41.8367 33.3528C41.7196 33.4774 41.591 33.5906 41.4525 33.6909C41.4146 33.7222 41.3157 33.7304 41.3173 33.7453C41.3185 33.8447 41.3357 33.9432 41.3684 34.0371C41.436 34.202 41.5778 34.202 41.6982 34.1212C41.7681 34.0832 41.8453 34.0606 41.9246 34.0549C42.004 34.0492 42.0836 34.0606 42.1582 34.0882C42.2983 34.1212 42.4352 34.1624 42.5704 34.2069C42.8457 34.2927 42.8457 34.2943 43.0453 33.9711L43.2101 34.2679L43.4476 34.0107C43.5778 34.0107 43.5712 34.1113 43.5745 34.2036C43.6075 34.9324 43.5976 35.0066 43.4525 35.0775L43.2233 34.8368L42.9974 35.0824C42.9744 35.048 42.9535 35.0122 42.9348 34.9753C42.9271 34.9446 42.9123 34.9163 42.8916 34.8925C42.8709 34.8687 42.8448 34.8502 42.8155 34.8384C42.7862 34.8267 42.7545 34.822 42.7231 34.8249C42.6917 34.8278 42.6614 34.8381 42.6347 34.8549C42.5077 34.906 42.3725 34.939 42.2423 34.9802C42.1213 35.0268 41.9905 35.0422 41.8619 35.0249C41.7334 35.0076 41.6113 34.9582 41.5069 34.8813C41.4773 34.9176 41.4525 34.9489 41.4261 34.9769C41.2332 35.1863 41.2448 35.3594 41.4937 35.4452C41.6493 35.5027 41.7768 35.6178 41.8499 35.7667C41.9191 35.8771 41.9801 35.9942 42.0395 36.1129C42.1697 36.3784 42.1681 36.38 42.4748 36.2926V36.6224C42.5622 36.6224 42.6397 36.6076 42.7237 36.6076C42.7584 36.6076 42.8111 36.6076 42.8243 36.6372C42.8318 36.6545 42.8348 36.6734 42.8331 36.6921C42.8313 36.7108 42.8249 36.7288 42.8144 36.7444C42.605 36.9538 42.394 37.1632 42.173 37.3611C42.1038 37.4237 42.0444 37.3924 42.0543 37.2869C42.0642 37.1813 42.0675 37.122 42.0758 37.0313H41.7328C41.751 36.9736 41.7592 36.9357 41.774 36.901C41.7869 36.8769 41.7942 36.8502 41.7955 36.8228C41.7968 36.7955 41.7919 36.7682 41.7814 36.7429C41.7708 36.7177 41.7547 36.6951 41.7344 36.6768C41.714 36.6586 41.6898 36.645 41.6636 36.6372C41.4888 36.5515 41.319 36.4575 41.1491 36.3635C41.0688 36.3181 40.9996 36.2553 40.9465 36.1797C40.8935 36.1041 40.8579 36.0176 40.8425 35.9266C40.8227 35.8376 40.61 35.8178 40.4979 35.8986C40.4402 35.9415 40.389 35.9942 40.3198 36.0552C40.544 36.3306 40.4847 36.6273 40.3825 36.9274C40.366 36.9752 40.3511 37.0247 40.3363 37.0742C40.2423 37.3726 40.2423 37.3726 40.5226 37.5457L40.2802 37.7749L40.5506 38.0305C40.1776 38.108 39.7926 38.108 39.4196 38.0305L39.6933 37.77L39.4443 37.5309C39.5086 37.4979 39.5416 37.4781 39.5762 37.4633C39.6027 37.4561 39.6271 37.443 39.6477 37.4249C39.6682 37.4067 39.6843 37.3841 39.6947 37.3587C39.705 37.3334 39.7094 37.3059 39.7075 37.2786C39.7055 37.2513 39.6973 37.2248 39.6834 37.2011C39.6339 37.0725 39.6009 36.939 39.5581 36.8087C39.508 36.6841 39.49 36.5488 39.5059 36.4154C39.5217 36.282 39.5708 36.1548 39.6487 36.0453C39.6003 35.99 39.5449 35.9412 39.4839 35.9002C39.4116 35.875 39.3371 35.8567 39.2613 35.8458C39.1261 35.8112 39.1607 35.9134 39.136 35.9843C39.0621 36.1741 38.918 36.3282 38.7337 36.4147C38.6281 36.4707 38.5226 36.5301 38.4154 36.5795C38.1566 36.7081 38.1549 36.7081 38.2506 37.0099H37.9208C37.9208 37.1005 37.9208 37.1863 37.9373 37.272C37.9538 37.3578 37.8895 37.4089 37.8219 37.3479C37.6009 37.15 37.3883 36.9423 37.1789 36.7312C37.1541 36.7048 37.164 36.6438 37.1574 36.5977H37.4971L37.4839 36.2959C37.5202 36.286 37.5317 36.2778 37.5416 36.2811C37.812 36.3586 37.8087 36.3569 37.9324 36.1162C38.0019 35.9594 38.0875 35.8102 38.1879 35.671C38.2951 35.5598 38.4152 35.4619 38.5457 35.3792C38.5853 35.3512 38.6776 35.3363 38.6776 35.3215C38.6728 35.2225 38.6533 35.1247 38.6199 35.0313C38.5968 34.972 38.5342 34.9291 38.4765 34.8664C38.1335 35.1418 37.7807 34.9835 37.4311 34.8664C37.1442 34.7758 37.1442 34.7741 36.9744 35.0907L36.7452 34.8104L36.4913 35.0758C36.4551 35.0196 36.4283 34.9578 36.4122 34.8928C36.3611 34.3141 36.3924 34.0684 36.5243 33.986L36.7535 34.235L36.9876 33.9827C37.0206 34.0437 37.042 34.0767 37.0568 34.1113C37.0642 34.1377 37.0773 34.162 37.0954 34.1826C37.1135 34.2031 37.136 34.2193 37.1612 34.23C37.1864 34.2406 37.2137 34.2454 37.241 34.244C37.2684 34.2425 37.295 34.235 37.319 34.2218C37.446 34.1723 37.5795 34.136 37.7114 34.0981C38.1417 33.9744 38.2011 34.0635 38.4863 34.1805ZM39.9867 33.4221C39.6983 33.4289 39.4238 33.5477 39.2214 33.7532C39.0189 33.9588 38.9043 34.235 38.9018 34.5235C38.9005 34.668 38.9278 34.8112 38.9822 34.9451C39.0365 35.079 39.1168 35.2008 39.2184 35.3034C39.32 35.4061 39.441 35.4877 39.5742 35.5434C39.7075 35.5992 39.8505 35.628 39.995 35.6282C40.2836 35.6284 40.561 35.5166 40.7689 35.3164C40.9768 35.1162 41.0989 34.8432 41.1096 34.5548C41.1041 34.257 40.9837 33.9727 40.7735 33.7616C40.5633 33.5505 40.2796 33.4289 39.9818 33.4221H39.9867Z" fill="white"/>
<path d="M40.0063 33.7766C40.2021 33.7876 40.3861 33.8736 40.52 34.0168C40.6539 34.16 40.7275 34.3493 40.7253 34.5454C40.7232 34.7414 40.6456 34.9291 40.5086 35.0694C40.3716 35.2096 40.1858 35.2917 39.9899 35.2984C39.887 35.302 39.7845 35.2846 39.6885 35.2474C39.5925 35.2103 39.505 35.154 39.4314 35.0821C39.3578 35.0102 39.2995 34.9241 39.26 34.829C39.2206 34.7339 39.2008 34.6318 39.2019 34.5289C39.2031 34.426 39.225 34.3243 39.2665 34.2301C39.308 34.1359 39.3682 34.0511 39.4433 33.9808C39.5185 33.9105 39.6072 33.8561 39.7039 33.821C39.8007 33.7859 39.9036 33.7708 40.0063 33.7766V33.7766ZM40.4185 34.54C40.4192 34.4562 40.395 34.3741 40.349 34.304C40.3029 34.234 40.2372 34.1792 40.16 34.1465C40.0828 34.1138 39.9977 34.1048 39.9154 34.1205C39.8331 34.1362 39.7572 34.1759 39.6975 34.2347C39.6378 34.2935 39.5969 34.3687 39.5799 34.4508C39.5629 34.5329 39.5706 34.6181 39.6021 34.6958C39.6335 34.7735 39.6873 34.8401 39.7567 34.8872C39.826 34.9343 39.9077 34.9598 39.9915 34.9604C40.0483 34.9625 40.1049 34.9528 40.1578 34.932C40.2106 34.9112 40.2586 34.8797 40.2987 34.8394C40.3388 34.7992 40.3702 34.751 40.3908 34.6981C40.4114 34.6451 40.4209 34.5885 40.4185 34.5317V34.54Z" fill="white"/>
<path d="M43.492 18.6836C43.492 17.7521 43.492 16.8205 43.492 15.889C43.5048 15.6863 43.4717 15.4833 43.3952 15.2952C43.3187 15.1071 43.2008 14.9386 43.0502 14.8024C42.6526 14.4562 42.2154 14.1584 41.7476 13.9153C40.4088 13.2756 38.9645 12.9937 37.5086 12.7612C35.4774 12.4414 33.4261 12.2668 31.3701 12.2385C30.1105 12.2171 28.8491 12.2781 27.5895 12.3342C26.4864 12.382 25.3883 12.4694 24.2919 12.6128C24.4848 12.9868 24.639 13.3796 24.7519 13.7851C26.4069 13.5215 28.0801 13.3898 29.756 13.391C32.3066 13.391 34.1912 13.4768 36.0576 13.7785C37.4591 14.0044 38.8491 14.2913 40.145 14.9046C40.3944 15.0215 40.63 15.1658 40.8474 15.335C41.2365 15.64 41.2513 15.9664 40.8309 16.2319C40.3448 16.5486 39.8243 16.8091 39.2794 17.0085C37.5696 17.6053 35.7905 17.8642 33.9917 18.0291C32.1824 18.1857 30.3648 18.2221 28.5507 18.1379C28.5507 18.161 28.5507 18.1824 28.5507 18.2038C28.5562 18.7341 28.456 19.2601 28.2558 19.7511C28.0557 20.2422 27.7597 20.6884 27.3851 21.0637C27.0106 21.4391 26.565 21.736 26.0743 21.9371C25.5837 22.1382 25.0579 22.2396 24.5277 22.2351H19.3735C19.489 22.2945 19.606 22.3522 19.7247 22.4C20.5681 22.7816 21.4496 23.0724 22.3545 23.2673C24.4831 23.7454 26.7107 23.9449 28.8887 24.0274C29.3833 24.0472 29.878 24.0576 30.3726 24.0587C32.1219 24.0627 33.8697 23.9575 35.6059 23.7438C37.69 23.4866 39.8548 23.1139 41.7311 22.1214C42.2653 21.8378 42.7814 21.4849 43.1161 20.9821C43.5976 20.2764 43.4904 19.4883 43.492 18.6836Z" fill="white"/>
<path d="M35.5992 16.6986C36.4566 16.4381 36.8902 16.1364 36.8952 15.805C36.8952 15.622 36.1581 15.5115 35.5382 15.6038C34.5901 15.744 33.6586 15.8907 32.7534 16.044C32.1483 16.1479 32.2423 16.3293 32.8952 16.4167L33.7196 16.5222C33.6157 16.5519 33.5547 16.575 33.4789 16.5914C32.0289 16.8529 30.5502 16.9167 29.0832 16.7811C28.7864 16.7563 28.5127 16.7233 28.2588 16.6871C28.3283 16.8527 28.3861 17.0229 28.4319 17.1966C30.9018 17.4109 33.807 17.246 35.5992 16.6986Z" fill="white"/>
<path d="M28.1993 15.1455L27.3321 15.0334C27.5349 15.0054 27.6288 14.9971 27.7014 14.9823C29.708 14.5816 32.5719 14.6525 34.1778 15.1603C34.6305 15.2929 35.107 15.3228 35.5727 15.2477C36.0344 15.1702 36.0822 15.0268 35.67 14.8965C34.5455 14.5426 33.0517 14.342 31.1886 14.2947C29.5942 14.2386 27.9985 14.358 26.4302 14.6509C26.888 14.9064 27.294 15.2453 27.6272 15.65C27.8531 15.6138 28.0823 15.5791 28.3065 15.5412C29.0369 15.4274 28.9792 15.2428 28.1993 15.1455Z" fill="white"/>
<path d="M24.7865 15.6185C24.3875 13.7471 22.6777 12.3209 20.5705 12.3209C19.8021 12.3077 19.0448 12.5062 18.3817 12.8947C17.7186 13.2833 17.1753 13.8469 16.8113 14.5237C15.0454 14.7447 13.7346 16.1214 13.7346 17.8213C13.7346 19.635 15.2729 21.1189 17.1526 21.1189H24.5573C26.1533 21.1189 27.4064 19.907 27.4064 18.3638C27.4064 16.9408 26.2094 15.729 24.7865 15.6185ZM21.7098 17.2673V19.4717H19.4312V17.2706H17.7214L20.5705 14.5171L23.418 17.2706L21.7098 17.2673Z" fill="white"/>
<path d="M6.66219 58.8078C6.57773 59.6931 6.2476 60.3846 5.67178 60.8824C5.09597 61.3763 4.33013 61.6233 3.37428 61.6233C2.70633 61.6233 2.11708 61.4675 1.60653 61.156C1.09981 60.8406 0.708253 60.3941 0.431862 59.8166C0.15547 59.239 0.0115163 58.5684 0 57.8047V57.0295C0 56.2468 0.140115 55.5572 0.420345 54.9606C0.700576 54.3641 1.10173 53.9043 1.6238 53.5813C2.14971 53.2584 2.75624 53.0969 3.44338 53.0969C4.36852 53.0969 5.11324 53.3458 5.67754 53.8435C6.24184 54.3413 6.57006 55.0442 6.66219 55.9523H5.21113C5.14203 55.3558 4.96545 54.9264 4.68138 54.6642C4.40115 54.3983 3.98848 54.2653 3.44338 54.2653C2.80998 54.2653 2.32246 54.4952 1.98081 54.9549C1.64299 55.4109 1.47025 56.0815 1.46257 56.9668V57.7021C1.46257 58.5988 1.6238 59.2827 1.94626 59.7539C2.27255 60.225 2.74856 60.4606 3.37428 60.4606C3.94626 60.4606 4.3762 60.3333 4.66411 60.0788C4.95202 59.8242 5.13436 59.4005 5.21113 58.8078H6.66219Z" fill="#00A651"/>
<path d="M8.06334 58.3689C8.06334 57.7648 8.18426 57.2214 8.4261 56.7389C8.66795 56.2525 9.00768 55.8801 9.4453 55.6218C9.88292 55.3596 10.3858 55.2285 10.9539 55.2285C11.7946 55.2285 12.476 55.4964 12.9981 56.0321C13.524 56.5679 13.8081 57.2784 13.8503 58.1637L13.856 58.4886C13.856 59.0965 13.737 59.6399 13.499 60.1187C13.2649 60.5974 12.9271 60.9679 12.4856 61.2301C12.048 61.4922 11.5413 61.6233 10.9655 61.6233C10.0864 61.6233 9.38196 61.3345 8.85221 60.757C8.3263 60.1756 8.06334 59.4024 8.06334 58.4373V58.3689ZM9.46257 58.4886C9.46257 59.1231 9.59501 59.6209 9.85988 59.9819C10.1248 60.339 10.4933 60.5176 10.9655 60.5176C11.4376 60.5176 11.8042 60.3352 12.0653 59.9705C12.3301 59.6057 12.4626 59.0718 12.4626 58.3689C12.4626 57.7458 12.3263 57.2518 12.0537 56.887C11.785 56.5223 11.4184 56.3399 10.9539 56.3399C10.4971 56.3399 10.1344 56.5204 9.86564 56.8813C9.59693 57.2385 9.46257 57.7743 9.46257 58.4886Z" fill="#00A651"/>
<path d="M16.8464 55.3425L16.8868 55.9865C17.3244 55.4812 17.9232 55.2285 18.6833 55.2285C19.5163 55.2285 20.0864 55.5439 20.3935 56.1746C20.8464 55.5439 21.4837 55.2285 22.3052 55.2285C22.9923 55.2285 23.5029 55.4166 23.8369 55.7927C24.1747 56.1689 24.3474 56.7237 24.3551 57.457V61.5093H22.9559V57.4969C22.9559 57.1055 22.8695 56.8187 22.6967 56.6363C22.524 56.4539 22.238 56.3627 21.8388 56.3627C21.5202 56.3627 21.2591 56.4482 21.0557 56.6192C20.856 56.7864 20.7159 57.0067 20.6353 57.2803L20.6411 61.5093H19.2418V57.4513C19.2226 56.7256 18.8484 56.3627 18.119 56.3627C17.5585 56.3627 17.1612 56.5888 16.9271 57.0409V61.5093H15.5278V55.3425H16.8464Z" fill="#00A651"/>
<path d="M27.5988 55.3425L27.6392 55.9865C28.0768 55.4812 28.6756 55.2285 29.4357 55.2285C30.2687 55.2285 30.8388 55.5439 31.1459 56.1746C31.5988 55.5439 32.2361 55.2285 33.0576 55.2285C33.7447 55.2285 34.2553 55.4166 34.5893 55.7927C34.9271 56.1689 35.0998 56.7237 35.1075 57.457V61.5093H33.7083V57.4969C33.7083 57.1055 33.6219 56.8187 33.4491 56.6363C33.2764 56.4539 32.9904 56.3627 32.5912 56.3627C32.2726 56.3627 32.0115 56.4482 31.8081 56.6192C31.6084 56.7864 31.4683 57.0067 31.3877 57.2803L31.3935 61.5093H29.9942V57.4513C29.975 56.7256 29.6008 56.3627 28.8714 56.3627C28.3109 56.3627 27.9136 56.5888 27.6795 57.0409V61.5093H26.2802V55.3425H27.5988Z" fill="#00A651"/>
<path d="M40.81 60.9052C40.3992 61.3839 39.8157 61.6233 39.0595 61.6233C38.3839 61.6233 37.8714 61.4276 37.5221 61.0363C37.1766 60.6449 37.0038 60.0788 37.0038 59.3378V55.3425H38.4031V59.3207C38.4031 60.1035 38.7313 60.4948 39.3877 60.4948C40.0672 60.4948 40.5259 60.2535 40.7639 59.771V55.3425H42.1631V61.5093H40.8445L40.81 60.9052Z" fill="#00A651"/>
<path d="M45.3781 55.3425L45.4184 56.0549C45.8791 55.504 46.4837 55.2285 47.2322 55.2285C48.5297 55.2285 49.19 55.9637 49.2131 57.4342V61.5093H47.8138V57.514C47.8138 57.1226 47.7274 56.8339 47.5547 56.6477C47.3858 56.4577 47.1075 56.3627 46.7198 56.3627C46.1555 56.3627 45.7351 56.6154 45.4587 57.1207V61.5093H44.0595V55.3425H45.3781Z" fill="#00A651"/>
<path d="M52.6238 61.5093H51.2246V55.3425H52.6238V61.5093ZM51.1382 53.7409C51.1382 53.5282 51.2054 53.3515 51.3397 53.2109C51.4779 53.0703 51.6737 53 51.9271 53C52.1804 53 52.3762 53.0703 52.5144 53.2109C52.6526 53.3515 52.7217 53.5282 52.7217 53.7409C52.7217 53.9499 52.6526 54.1247 52.5144 54.2653C52.3762 54.4021 52.1804 54.4705 51.9271 54.4705C51.6737 54.4705 51.4779 54.4021 51.3397 54.2653C51.2054 54.1247 51.1382 53.9499 51.1382 53.7409Z" fill="#00A651"/>
<path d="M56.3973 53.8435V55.3425H57.4971V56.3684H56.3973V59.8109C56.3973 60.0465 56.4434 60.2174 56.5355 60.3238C56.6315 60.4264 56.8004 60.4777 57.0422 60.4777C57.2035 60.4777 57.3666 60.4587 57.5317 60.4207V61.4922C57.2131 61.5796 56.9059 61.6233 56.6104 61.6233C55.5355 61.6233 54.9981 61.0363 54.9981 59.8622V56.3684H53.9731V55.3425H54.9981V53.8435H56.3973Z" fill="#00A651"/>
<path d="M61.2418 59.5259L62.5086 55.3425H64L61.524 62.444C61.144 63.4813 60.499 64 59.5892 64C59.3858 64 59.1612 63.9658 58.9155 63.8974V62.8259L59.1804 62.843C59.5336 62.843 59.7985 62.7784 59.975 62.6492C60.1555 62.5238 60.2975 62.3111 60.4011 62.0109L60.6027 61.4808L58.4146 55.3425H59.9232L61.2418 59.5259Z" fill="#00A651"/>
</svg>
