<svg xmlns="http://www.w3.org/2000/svg" width="110" height="34" fill="none" xmlns:v="https://vecta.io/nano"><g clip-path="url(#A)"><g fill="#00a651"><path d="M6.716 28.808c-.085.885-.418 1.577-.998 2.075s-1.352.741-2.316.741c-.673 0-1.267-.156-1.782-.467s-.905-.762-1.184-1.339-.424-1.25-.436-2.013v-.775c0-.783.141-1.472.424-2.069a3.16 3.16 0 0 1 1.213-1.379c.526-.323 1.142-.484 1.834-.484.933 0 1.683.249 2.252.747s.9 1.201.993 2.109H5.253c-.07-.597-.248-1.026-.534-1.288s-.698-.399-1.248-.399c-.638 0-1.13.23-1.474.69s-.515 1.127-.522 2.012v.735c0 .897.163 1.581.488 2.052s.809.707 1.439.707c.577 0 1.01-.127 1.3-.382s.474-.678.551-1.271h1.463zm7.098-.439c0-.604.122-1.148.366-1.63s.586-.859 1.027-1.117.948-.393 1.521-.393c.847 0 1.534.268 2.061.804s.816 1.246.859 2.132l.006.325c0 .608-.12 1.151-.36 1.63s-.576.849-1.021 1.111-.952.393-1.532.393c-.886 0-1.596-.289-2.13-.866s-.795-1.355-.795-2.32v-.068zm1.41.12c0 .634.133 1.132.401 1.493s.638.536 1.114.536.846-.182 1.109-.547.401-.899.401-1.602c0-.623-.137-1.117-.412-1.482a1.31 1.31 0 0 0-1.109-.547 1.3 1.3 0 0 0-1.097.541c-.271.357-.406.893-.406 1.607zm13.129-3.146l.041.644c.441-.505 1.045-.758 1.811-.758.84 0 1.414.315 1.724.946.457-.631 1.099-.946 1.927-.946.693 0 1.207.188 1.544.564s.515.931.522 1.664v4.052h-1.41v-4.012c0-.391-.087-.678-.261-.861s-.462-.274-.865-.274c-.321 0-.584.085-.789.256a1.32 1.32 0 0 0-.424.661l.006 4.229h-1.41V27.45c-.019-.726-.397-1.089-1.132-1.089-.565 0-.965.226-1.201.678v4.468h-1.41V25.34h1.329zm16.525 0l.041.644c.441-.505 1.045-.758 1.811-.758.84 0 1.414.315 1.724.946.457-.631 1.099-.946 1.927-.946.693 0 1.207.188 1.544.564s.515.931.522 1.664v4.052h-1.41v-4.012c0-.391-.087-.678-.261-.861s-.462-.274-.865-.274c-.321 0-.584.085-.789.256a1.32 1.32 0 0 0-.424.661l.006 4.229h-1.41V27.45c-.019-.726-.397-1.089-1.132-1.089-.565 0-.966.226-1.202.678v4.468h-1.41V25.34h1.329zm19.003 5.562c-.414.479-1.002.718-1.764.718-.681 0-1.198-.196-1.55-.587s-.522-.957-.522-1.698v-3.995h1.41v3.978c0 .783.331 1.174.992 1.174.685 0 1.147-.241 1.387-.724v-4.428h1.41v6.167h-1.329l-.035-.604zm10.29-5.562l.041.712c.464-.551 1.074-.826 1.828-.826 1.308 0 1.974.735 1.997 2.206v4.075h-1.41v-3.995c0-.391-.087-.68-.261-.866s-.451-.285-.842-.285a1.36 1.36 0 0 0-1.271.758v4.389h-1.41v-6.167h1.329zm12.99 6.166h-1.41v-6.167h1.41v6.167zm-1.497-7.768c0-.213.068-.389.203-.53s.337-.211.592-.211.453.07.592.211.209.317.209.53-.07.384-.209.524-.337.205-.592.205-.453-.068-.592-.205-.203-.315-.203-.524zm10.987.103v1.499h1.109v1.026h-1.109v3.442c0 .236.046.407.139.513s.267.154.511.154a2.21 2.21 0 0 0 .493-.057v1.072a3.55 3.55 0 0 1-.929.131c-1.084 0-1.625-.587-1.625-1.761v-3.494h-1.033v-1.026h1.033v-1.499h1.41zm10.569 5.682l1.277-4.183H110l-2.496 7.102c-.383 1.037-1.033 1.556-1.95 1.556a2.57 2.57 0 0 1-.679-.103v-1.072l.267.017c.356 0 .623-.065.801-.194s.325-.338.429-.638l.204-.53-2.206-6.138h1.521l1.329 4.183z"/></g><path d="M8.601.118l-6.354 3.06c-.162.078-.304.191-.416.332s-.191.304-.231.479l-1.57 6.876a1.19 1.19 0 0 0 .231 1.014l4.399 5.511c.112.14.254.253.416.33s.339.118.518.117h7.05c.179 0 .356-.04.518-.117s.304-.19.416-.33l4.398-5.511a1.19 1.19 0 0 0 .231-1.011l-1.57-6.879c-.04-.175-.119-.339-.231-.479s-.254-.254-.416-.332L9.638.118C9.476.04 9.299 0 9.119 0s-.357.04-.519.118h0z" fill="#431bb1"/><g fill="#fff"><path d="M3.628 9.443l.006-.616A.41.41 0 0 1 3.68 8.6c.103-.155.272-.064.396 0a4.86 4.86 0 0 0 .553.244 7.26 7.26 0 0 0 1.16.313l.477.082a16.16 16.16 0 0 0 3.479.152c.727-.038 1.449-.136 2.159-.293.521-.12 1.031-.275 1.498-.545.192-.109.357-.01.359.213v1.159c0 .209-.159.306-.346.22a3 3 0 0 0-3.476.707 2.95 2.95 0 0 0-.448.648c-.033.081-.093.148-.169.192-.066.025-.136.035-.206.029a19.02 19.02 0 0 1-2.545-.15l-.3-.043c-.677-.104-1.358-.256-1.961-.575a1.62 1.62 0 0 1-.475-.356c-.208-.242-.213-.524-.21-.827l.003-.326zm4.71 5.047c-.847-.041-1.688-.098-2.519-.281-.582-.128-1.234-.271-1.726-.626-.249-.18-.468-.433-.464-.758V11.53c0-.215.171-.32.357-.217.622.348 1.3.516 1.994.643.962.175 1.933.229 2.908.234.104 0 .226.017.27.125.054.134-.004.32-.01.458a2.93 2.93 0 0 0 .195 1.165c.045.114.099.241.089.366-.013.154-.149.197-.282.2-.268.007-.539-.003-.811-.014zM10.4 13c0-1.087.899-1.971 2.008-1.974 1.099 0 2.006.887 2.006 1.969-.009.526-.223 1.028-.598 1.397a2.01 2.01 0 0 1-1.406.577c-.526.001-1.031-.205-1.407-.573A2.01 2.01 0 0 1 10.4 13h0zm2.008-1.498a1.5 1.5 0 0 0-1.03 2.571 1.5 1.5 0 0 0 2.554-1.07c-.004-.401-.167-.784-.453-1.065a1.52 1.52 0 0 0-1.072-.436h0z"/><path d="M12.206 10.896l.073-.053-.054-.047c.033-.021.057-.053.069-.091s.01-.078-.005-.114c-.017-.059-.041-.117-.061-.176-.016-.038-.021-.08-.013-.12s.028-.078.057-.107a.21.21 0 0 1 .231-.022c.089.045.118.152.072.268l-.054.156c-.015.036-.017.077-.006.115s.036.07.07.091l-.054.043.085.069h-.411v-.013zm.018 4.313l.054-.043-.084-.068h.428l-.084.064.052.046c-.033.021-.058.053-.069.091s-.01.078.005.114c.016.057.039.113.059.169.022.038.031.082.025.125s-.027.083-.059.113a.19.19 0 0 1-.117.051c-.044.003-.087-.008-.123-.033-.089-.045-.118-.153-.072-.268l.055-.156c.014-.037.015-.077.003-.114s-.038-.069-.071-.089h0zm-1.508-.777l.068.01-.004-.07.256.272.019-.016-.084-.006.004.061c-.044-.001-.081.004-.113.02s-.058.043-.073.075c-.029.052-.055.106-.077.161-.045.1-.125.154-.21.142-.045-.006-.088-.027-.12-.06s-.052-.075-.057-.121c-.01-.083.047-.162.148-.207a1.53 1.53 0 0 0 .15-.07c.035-.016.064-.044.081-.079s.022-.075.013-.112h0zm3.122.26l.006-.07-.064.007.251-.275v.083l.064-.004a.22.22 0 0 0 .017.111c.015.031.041.056.072.071a1.43 1.43 0 0 0 .167.081c.043.014.079.043.103.081s.035.083.03.127-.024.086-.056.118-.073.052-.118.057a.21.21 0 0 1-.207-.147l-.07-.15c-.017-.036-.045-.065-.082-.082s-.077-.02-.115-.009zm-.078-3.319l.08.01v-.068c.104.02.162-.04.205-.121.033-.06.055-.128.091-.184.02-.035.051-.063.089-.078s.079-.016.118-.003a.21.21 0 0 1 .148.186c-.002.043-.018.084-.044.119s-.062.06-.103.073l-.121.054c-.084.043-.146.102-.128.21l-.068-.006.007.064-.256-.276-.017.021z"/><path d="M10.975 11.314l-.005.064.081-.008-.012-.011-.259.287.005-.08h-.068c.021-.101-.037-.159-.115-.202l-.192-.095c-.035-.019-.062-.049-.077-.085s-.017-.077-.006-.115a.21.21 0 0 1 .182-.153c.082-.008.16.052.203.153a1.19 1.19 0 0 0 .075.155c.016.034.044.061.078.078s.072.021.109.012h0zm3.635 1.878c-.018-.047-.039-.075-.081-.019v-.331l.045.028.039-.049c.054.082.132.088.217.064l.168-.059c.038-.016.08-.02.12-.011a.2.2 0 0 1 .105.061c.028.031.042.072.045.113s-.007.083-.028.118c-.046.085-.152.112-.264.069l-.169-.058c-.037-.013-.076-.012-.113.001s-.067.039-.086.073h0zm-4.406-.377c.022.042.038.082.081.016v.332l-.045-.027-.039.05c-.021-.033-.053-.058-.091-.07a.16.16 0 0 0-.114.006c-.059.017-.116.04-.175.06-.038.016-.08.021-.12.013a.21.21 0 0 1-.107-.056.21.21 0 0 1-.022-.231c.046-.09.151-.118.267-.074.053.022.108.04.163.056.037.014.078.014.115 0a.17.17 0 0 0 .088-.075h0zm1.618.052c.026-.016.047-.039.06-.066s.019-.057.017-.088c0-.015-.015-.038-.026-.041-.038-.008-.075-.024-.106-.047s-.057-.054-.075-.088l-.073-.134c-.054-.11-.053-.11-.176-.081v-.123H11.3c.008-.026.008-.052.021-.064l.229-.221c.011-.01.032-.009.048-.013.003.016.005.033.005.049l-.003.086h.128c-.026.123-.025.122.088.178a.73.73 0 0 1 .155.089.78.78 0 0 1 .111.139c.01.013.011.047.017.047a.25.25 0 0 0 .108-.014c.064-.032.078-.064.04-.134-.015-.028-.023-.06-.025-.091a.23.23 0 0 1 .014-.094 1.23 1.23 0 0 1 .052-.172c.026-.064.014-.107-.054-.128-.011-.006-.022-.013-.031-.02l.1-.093-.117-.094a1.11 1.11 0 0 1 .448-.005l-.108.102.097.091-.056.031c-.009.003-.018.008-.025.014s-.013.014-.016.023-.005.018-.005.028.003.019.008.027l.056.178a.35.35 0 0 1-.01.235c-.006.019-.023.047-.017.053a.23.23 0 0 0 .089.064c.071.02.09.013.115-.064.023-.062.069-.113.128-.143l.117-.064c.113-.056.114-.056.088-.178h.122v-.092c.001-.014.003-.029.006-.043.014 0 .033 0 .042.009l.243.235c.01.011.007.034.011.056l-.139-.007.007.119c-.013.005-.017.009-.021.008-.109-.028-.108-.027-.159.076a.68.68 0 0 1-.082.144 1.05 1.05 0 0 1-.149.131c-.015.012-.053.015-.052.021 0 .038.007.077.02.113.026.064.081.064.128.033.027-.015.057-.024.088-.026s.062.002.091.013l.16.046c.107.033.107.034.184-.091l.064.115.092-.1c.051 0 .048.039.049.075.013.283.009.311-.047.339l-.089-.093-.088.095a.4.4 0 0 1-.024-.042c-.003-.012-.009-.023-.017-.032s-.018-.016-.029-.021-.024-.006-.036-.005a.07.07 0 0 0-.034.012c-.049.02-.102.033-.152.049a.3.3 0 0 1-.285-.038l-.031.037c-.075.081-.07.148.026.182a.25.25 0 0 1 .138.125 1.62 1.62 0 0 1 .073.134c.05.103.05.104.169.07v.128c.034 0 .064-.006.097-.006.013 0 .034 0 .039.011s.004.014.003.021-.003.014-.007.02l-.249.239c-.027.024-.05.012-.046-.029l.008-.099h-.133l.016-.051c.005-.009.008-.02.008-.03s-.001-.021-.005-.031-.01-.018-.018-.026-.017-.012-.027-.015l-.199-.106a.24.24 0 0 1-.119-.169c-.008-.035-.09-.042-.134-.011-.022.017-.042.037-.069.061.087.107.064.222.024.338l-.018.057c-.037.116-.037.116.072.183l-.094.089.105.099a1.08 1.08 0 0 1-.439 0l.106-.101-.096-.093.051-.026c.01-.003.02-.008.028-.015s.014-.016.018-.026.006-.021.005-.031a.08.08 0 0 0-.009-.03c-.019-.05-.032-.102-.049-.152a.31.31 0 0 1 .035-.296c-.019-.021-.04-.04-.064-.056a.43.43 0 0 0-.086-.021c-.052-.013-.039.026-.049.054a.31.31 0 0 1-.156.167l-.123.064c-.1.05-.101.05-.064.167h-.128c0 .035 0 .068.006.102s-.019.053-.045.029l-.249-.239c-.01-.01-.006-.034-.008-.052h.132l-.005-.117c.014-.004.019-.007.022-.006.105.03.104.029.152-.064a.95.95 0 0 1 .099-.173c.041-.043.088-.081.139-.113.015-.011.051-.017.051-.022-.002-.038-.01-.076-.022-.113-.009-.023-.033-.04-.056-.064-.133.107-.27.045-.405 0-.111-.035-.111-.036-.177.087l-.089-.109-.098.103c-.014-.022-.024-.046-.031-.071-.02-.224-.008-.32.043-.352l.089.097.091-.098.027.05c.003.01.008.02.015.028s.016.014.025.018a.07.07 0 0 0 .031.006c.011-.001.021-.004.03-.009.049-.019.101-.033.152-.048.167-.048.19-.013.3.032zm.582-.294a.43.43 0 0 0-.421.427c-.001.056.01.111.031.163s.052.099.092.139.086.072.138.093.107.033.163.033a.43.43 0 0 0 .432-.416.45.45 0 0 0-.13-.308c-.081-.082-.191-.129-.307-.132h.002z"/><path d="M12.411 12.71c.076.004.147.038.199.093s.08.129.08.205a.29.29 0 0 1-.084.203c-.053.054-.125.086-.201.089-.04.001-.08-.005-.117-.02a.31.31 0 0 1-.1-.064c-.029-.028-.051-.061-.066-.098s-.023-.076-.023-.116.009-.079.025-.116.039-.069.069-.097.064-.048.101-.062a.29.29 0 0 1 .117-.017h0zm.16.296c0-.033-.009-.064-.027-.091s-.043-.048-.073-.061-.063-.016-.095-.01a.16.16 0 0 0-.084.044.17.17 0 0 0-.046.084c-.007.032-.004.065.009.095s.033.056.06.074.059.028.091.028c.022.001.044-.003.064-.011a.16.16 0 0 0 .09-.091c.008-.021.012-.043.011-.065v.003zm1.192-6.149V5.774c.005-.079-.008-.157-.038-.23a.52.52 0 0 0-.134-.191 2.58 2.58 0 0 0-.505-.344c-.519-.248-1.079-.357-1.644-.448a16.79 16.79 0 0 0-2.38-.203c-.488-.008-.978.015-1.466.037l-1.279.108a2.39 2.39 0 0 1 .178.455 12.28 12.28 0 0 1 1.94-.153c.989 0 1.72.033 2.444.15.543.088 1.082.199 1.585.437a1.43 1.43 0 0 1 .272.167c.151.118.157.245-.006.348a2.92 2.92 0 0 1-.602.301c-.663.231-1.353.332-2.05.396a15.91 15.91 0 0 1-2.11.042v.026a1.56 1.56 0 0 1-.114.6c-.077.19-.192.363-.338.509a1.55 1.55 0 0 1-.508.339 1.56 1.56 0 0 1-.6.116H4.41l.136.064c.327.148.669.261 1.02.336.825.185 1.689.263 2.534.295l.575.012a16.19 16.19 0 0 0 2.029-.122c.808-.1 1.648-.244 2.375-.629.207-.11.407-.247.537-.442.187-.274.145-.579.146-.891z"/><path d="M10.702 6.088c.332-.101.501-.218.503-.347 0-.071-.286-.114-.526-.078l-1.08.171c-.235.04-.198.111.055.144l.32.041-.093.027c-.562.101-1.136.126-1.705.074l-.32-.036c.027.064.049.13.067.198.958.083 2.084.019 2.779-.193zm-2.869-.603l-.336-.043.143-.02c.778-.155 1.889-.128 2.511.069a1.23 1.23 0 0 0 .541.034c.179-.03.198-.086.038-.136-.436-.137-1.015-.215-1.738-.233-.618-.022-1.237.025-1.845.138a1.63 1.63 0 0 1 .464.387l.263-.042c.283-.044.261-.116-.042-.153zm-1.323.184c-.155-.726-.818-1.279-1.635-1.279a1.63 1.63 0 0 0-.849.222c-.257.15-.468.369-.609.632-.685.086-1.193.62-1.193 1.279 0 .703.597 1.279 1.325 1.279H6.42c.619 0 1.105-.47 1.105-1.068 0-.552-.464-1.022-1.016-1.065zm-1.193.639v.855h-.884V6.31H3.77l1.105-1.068L5.979 6.31l-.662-.001z"/></g><path d="M21.983 14.973V2.73h2.828v5.276l4.483-5.276h3.173l-4.587 5.466 4.897 6.777h-3.242l-3.449-4.914-1.276 1.31v3.604h-2.828zm10.934-3.259V5.92h2.759v5.19c0 .552.109.977.328 1.276.218.287.529.431.931.431.253 0 .494-.04.724-.121.23-.092.454-.236.672-.431s.414-.448.586-.759V5.92h2.759v5.983c0 .276.04.471.121.586.092.103.247.167.466.19v2.293l-.672.104a4.06 4.06 0 0 1-.5.034c-.483 0-.868-.098-1.155-.293-.287-.207-.465-.494-.535-.862l-.052-.552c-.414.598-.931 1.04-1.552 1.328-.609.276-1.293.414-2.052.414-.92 0-1.621-.293-2.104-.879s-.724-1.437-.724-2.552zm16.156 3.431c-.69 0-1.293-.144-1.811-.431-.517-.299-.925-.713-1.224-1.242v1.5h-2.397V2.385h2.759v5.018c.299-.529.696-.937 1.19-1.224.506-.287 1.098-.431 1.776-.431.575 0 1.098.126 1.569.379.483.241.897.581 1.242 1.017.356.425.632.925.828 1.5.195.563.293 1.178.293 1.845 0 .655-.109 1.265-.328 1.828a4.57 4.57 0 0 1-.879 1.483c-.379.425-.828.759-1.345 1-.506.23-1.063.345-1.673.345zm-.776-2.328a2.14 2.14 0 0 0 .862-.172 2.25 2.25 0 0 0 .707-.5c.195-.207.345-.448.448-.724a2.73 2.73 0 0 0 .155-.931 2.77 2.77 0 0 0-.259-1.19c-.172-.368-.414-.661-.724-.879-.299-.218-.65-.328-1.052-.328-.287 0-.563.069-.828.207s-.5.328-.707.569c-.207.23-.374.494-.5.793v1.897c.092.196.207.374.345.535a2.31 2.31 0 0 0 .448.379c.172.104.351.19.535.259a2.01 2.01 0 0 0 .569.086zm10.53 2.328c-.77 0-1.454-.121-2.052-.362a4.77 4.77 0 0 1-1.535-1.017c-.414-.425-.73-.914-.948-1.466-.218-.563-.328-1.15-.328-1.759 0-.874.19-1.667.569-2.38.391-.724.948-1.305 1.673-1.742.724-.448 1.598-.672 2.621-.672s1.891.218 2.604.655a4.41 4.41 0 0 1 1.655 1.724c.379.701.569 1.466.569 2.293a3.41 3.41 0 0 1-.034.483l-.035.397h-6.69c.035.402.144.741.328 1.017.195.276.443.489.742.638.299.138.615.207.948.207.414 0 .799-.098 1.155-.293.368-.195.621-.46.759-.793l2.345.655c-.23.471-.558.891-.983 1.259-.414.356-.908.638-1.483.845-.563.207-1.19.31-1.88.31zm-2-5.535h3.932c-.046-.379-.155-.707-.328-.983-.172-.287-.402-.506-.69-.655-.287-.161-.604-.241-.948-.241a1.94 1.94 0 0 0-.966.241 1.75 1.75 0 0 0-.672.655c-.172.276-.282.604-.328.983zm15.528-3.673c-.081-.08-.23-.19-.448-.328a4.4 4.4 0 0 0-.776-.397c-.299-.126-.626-.236-.983-.328-.356-.103-.718-.155-1.086-.155-.644 0-1.132.121-1.466.362-.322.241-.483.581-.483 1.017 0 .333.104.598.31.793s.517.362.931.5l1.552.448c.805.195 1.5.437 2.086.724.598.276 1.052.644 1.362 1.104.322.448.483 1.046.483 1.793 0 .655-.121 1.219-.362 1.69a3.03 3.03 0 0 1-1 1.121c-.425.287-.908.5-1.448.638-.54.126-1.115.19-1.724.19s-1.219-.063-1.828-.19-1.196-.305-1.759-.535c-.563-.241-1.081-.529-1.552-.862l1.052-2.052c.103.104.287.241.552.414.264.161.586.328.966.5a8.72 8.72 0 0 0 1.241.414c.448.115.902.172 1.362.172.644 0 1.132-.109 1.466-.328a1.05 1.05 0 0 0 .5-.931c0-.368-.132-.655-.397-.862s-.632-.385-1.103-.535L68.13 9.8c-.77-.218-1.414-.46-1.931-.724-.517-.276-.902-.621-1.155-1.035s-.379-.931-.379-1.552c0-.839.195-1.54.586-2.104.402-.575.943-1.006 1.621-1.293.678-.299 1.431-.448 2.259-.448.575 0 1.115.063 1.621.19a7.96 7.96 0 0 1 1.449.5c.448.207.851.431 1.207.672l-1.052 1.931zm8.644 8.553l-.845.31c-.299.103-.615.184-.948.241a4.85 4.85 0 0 1-.983.103c-.46 0-.885-.075-1.276-.224-.379-.161-.684-.42-.914-.776-.218-.356-.328-.828-.328-1.414V8.007H74.55V5.92h1.155v-2.88h2.759v2.88h1.845v2.086h-1.845v3.776c0 .299.075.517.224.655a.85.85 0 0 0 .569.19c.195 0 .402-.035.621-.103.23-.069.425-.144.586-.224l.535 2.19zm.333-2.224c0-.598.167-1.121.5-1.569s.793-.799 1.379-1.052c.586-.264 1.259-.397 2.017-.397.368 0 .73.034 1.086.103.356.057.667.144.931.259v-.397c0-.494-.15-.874-.448-1.138s-.753-.397-1.362-.397c-.506 0-.983.086-1.431.259-.437.172-.902.42-1.397.741L81.78 6.92c.598-.391 1.219-.684 1.862-.879.655-.195 1.345-.293 2.069-.293 1.356 0 2.408.328 3.156.983.759.644 1.138 1.581 1.138 2.811v2.362c0 .276.04.471.121.586.092.103.247.167.466.19v2.293l-.655.104c-.195.023-.368.034-.517.034-.517 0-.914-.103-1.19-.31a1.36 1.36 0 0 1-.5-.845l-.052-.397a4.11 4.11 0 0 1-1.448 1.19 3.98 3.98 0 0 1-1.742.397c-.598 0-1.138-.126-1.621-.379-.471-.253-.845-.598-1.121-1.035s-.414-.925-.414-1.466zm5.483.345c.126-.104.23-.218.31-.345s.121-.247.121-.362v-.81a3.63 3.63 0 0 0-.776-.207c-.276-.058-.534-.086-.776-.086-.506 0-.925.115-1.259.345-.333.218-.5.511-.5.879 0 .207.058.397.172.569a1.25 1.25 0 0 0 .466.414c.207.103.448.155.724.155s.552-.052.828-.155a2.22 2.22 0 0 0 .69-.397zm8.483 2.535c-.77 0-1.523-.126-2.259-.379s-1.357-.626-1.862-1.121l.948-1.742c.552.402 1.086.707 1.604.914.529.207 1.023.31 1.483.31.356 0 .632-.058.828-.173s.293-.293.293-.534c0-.172-.058-.305-.172-.397-.115-.104-.293-.195-.534-.276l-.862-.259-1.724-.673c-.46-.218-.805-.483-1.035-.793-.23-.322-.345-.736-.345-1.242 0-.609.15-1.138.448-1.586.31-.46.747-.816 1.31-1.069s1.236-.379 2.017-.379a5.69 5.69 0 0 1 1.811.293c.598.195 1.155.523 1.672.983L97.85 8.748c-.517-.356-.977-.615-1.379-.776s-.793-.241-1.172-.241c-.195 0-.374.023-.535.069s-.293.126-.397.241a.6.6 0 0 0-.138.414.6.6 0 0 0 .138.414c.103.103.259.195.466.276l.81.259c.747.218 1.368.443 1.862.672.494.218.862.494 1.104.828.253.322.379.753.379 1.293 0 .92-.333 1.644-1 2.173-.655.517-1.552.776-2.69.776zm13.658-.172h-2.759V9.886c0-.586-.121-1.017-.362-1.293-.23-.276-.54-.414-.931-.414-.207 0-.443.069-.707.207-.253.126-.489.31-.707.552s-.385.523-.5.845v5.19h-2.759V2.385h2.759v5.052a3.39 3.39 0 0 1 1.31-1.242 3.74 3.74 0 0 1 1.811-.448c.62 0 1.115.103 1.483.31.379.207.666.483.862.828.195.333.327.701.396 1.104a7.03 7.03 0 0 1 .104 1.19v5.794z" fill="#431bb1"/></g><defs><clipPath id="A"><path fill="#fff" d="M0 0h110v34H0z"/></clipPath></defs></svg>