<svg xmlns="http://www.w3.org/2000/svg" width="64" height="64" fill="none" xmlns:v="https://vecta.io/nano"><path d="M30.181 1.416L7.884 12.154a4.19 4.19 0 0 0-2.268 2.845L.108 39.127c-.143.616-.144 1.256-.003 1.872s.418 1.193.813 1.686l15.438 19.34a4.2 4.2 0 0 0 3.278 1.571h24.741c.629.001 1.251-.14 1.818-.412s1.066-.668 1.46-1.159l15.432-19.34c.393-.492.671-1.067.811-1.681s.14-1.252-.001-1.866l-5.508-24.139a4.19 4.19 0 0 0-2.268-2.845L33.821 1.416a4.19 4.19 0 0 0-3.639 0z" fill="#431bb1"/><g fill="#fff"><path d="M12.73 34.137l.02-2.163c-.024-.276.032-.552.162-.797.361-.545.956-.224 1.389 0a17.41 17.41 0 0 0 1.941.857 25.46 25.46 0 0 0 4.07 1.099l1.674.289a56.72 56.72 0 0 0 12.208.534c2.55-.133 5.084-.477 7.577-1.03 1.829-.419 3.617-.965 5.257-1.914.673-.384 1.252-.036 1.261.747v4.068c0 .734-.556 1.072-1.214.772a10.53 10.53 0 0 0-12.199 2.479 10.34 10.34 0 0 0-1.57 2.275c-.117.284-.326.52-.592.673a1.64 1.64 0 0 1-.723.103 66.74 66.74 0 0 1-8.93-.527l-1.054-.153c-2.376-.364-4.766-.898-6.881-2.019a5.68 5.68 0 0 1-1.667-1.247c-.729-.85-.747-1.84-.738-2.903l.011-1.144zm16.529 17.709c-2.97-.144-5.923-.343-8.84-.987-2.042-.449-4.33-.949-6.058-2.197-.875-.633-1.642-1.519-1.629-2.659v-4.546c0-.754.599-1.122 1.252-.761 2.183 1.223 4.564 1.811 6.996 2.255 3.377.613 6.782.803 10.204.821.366 0 .794.058.947.438.191.471-.014 1.122-.034 1.609a10.31 10.31 0 0 0 .684 4.09c.157.399.348.846.312 1.283-.045.538-.523.691-.989.702-.94.025-1.891-.011-2.845-.049zm7.236-5.228c0-3.814 3.154-6.917 7.045-6.926 3.857 0 7.038 3.114 7.038 6.908-.031 1.846-.785 3.606-2.1 4.901s-3.087 2.023-4.933 2.025-3.619-.72-4.938-2.012a7.04 7.04 0 0 1-2.112-4.896zm7.045-5.257a5.27 5.27 0 0 0-3.615 9.022 5.27 5.27 0 0 0 8.964-3.755 5.32 5.32 0 0 0-5.349-5.266z"/><path d="M42.831 39.234l.256-.186-.188-.164a.59.59 0 0 0 .224-.718l-.213-.617a.72.72 0 0 1 .157-.797.73.73 0 0 1 .393-.16c.144-.013.289.016.417.084.312.159.413.534.253.94l-.191.547c-.054.128-.061.27-.02.402s.128.246.245.32l-.189.15.298.242H42.83v-.045zm.065 15.136l.188-.152-.296-.24h1.501l-.296.224.182.162c-.116.074-.202.187-.243.318s-.034.273.019.4c.056.202.137.397.206.592a.67.67 0 0 1 .087.438c-.022.152-.095.291-.207.396s-.256.168-.409.179a.67.67 0 0 1-.431-.116c-.314-.159-.413-.536-.254-.94l.193-.547c.05-.128.054-.27.01-.4s-.132-.241-.25-.313zm-5.293-2.726l.238.036-.014-.244.898.953.067-.056-.294-.022.014.213s-.023.023-.032.02a.56.56 0 0 0-.365.05c-.113.057-.203.15-.257.264a5.42 5.42 0 0 0-.271.565c-.159.35-.437.541-.736.498a.72.72 0 0 1-.621-.635c-.036-.292.166-.57.518-.725a5.35 5.35 0 0 0 .525-.247.59.59 0 0 0 .33-.671zm10.956.913l.022-.247-.224.025.882-.967v.292l.224-.013c0 .013.02.027.018.038a.54.54 0 0 0 .296.604 5.03 5.03 0 0 0 .585.285c.15.05.278.15.363.282a.69.69 0 0 1 .106.447c-.017.156-.086.303-.197.416a.69.69 0 0 1-.414.201.74.74 0 0 1-.725-.516 4.89 4.89 0 0 0-.247-.525c-.058-.127-.159-.229-.286-.288s-.27-.071-.405-.033zm-.271-11.649l.281.034v-.24c.366.072.568-.141.72-.424.114-.211.193-.449.321-.646a.61.61 0 0 1 .725-.285.74.74 0 0 1 .361.246.73.73 0 0 1 .158.407.75.75 0 0 1-.516.673l-.426.188c-.294.153-.514.359-.449.736l-.24-.02.025.224-.897-.967-.061.074zm-9.774-.206l-.018.224.285-.029-.04-.038-.911 1.007.018-.281h-.238c.072-.355-.13-.559-.404-.709l-.673-.332a.6.6 0 0 1-.289-.702.73.73 0 0 1 .235-.367.74.74 0 0 1 .402-.169c.289-.027.561.182.713.536a4.19 4.19 0 0 0 .265.543c.058.119.154.215.273.272a.59.59 0 0 0 .383.044zm12.753 6.589c-.065-.164-.137-.265-.283-.067v-1.16l.157.099.137-.173c.191.289.464.31.763.224.2-.058.393-.144.59-.209.133-.056.281-.07.423-.039a.69.69 0 0 1 .367.214.71.71 0 0 1 .06.812c-.161.298-.532.393-.924.242l-.595-.204a.58.58 0 0 0-.696.26zM35.806 45.97c.076.148.135.289.285.056v1.164l-.157-.096-.137.175a.58.58 0 0 0-.319-.244c-.132-.041-.274-.034-.401.02-.209.058-.408.141-.615.211-.133.057-.28.072-.422.045a.72.72 0 0 1-.375-.198.73.73 0 0 1-.161-.393c-.013-.144.015-.289.083-.417.162-.316.529-.415.936-.258.187.076.378.142.572.197.13.048.273.047.404-.001a.58.58 0 0 0 .307-.262zm5.679.181c.091-.056.164-.136.212-.231s.069-.202.059-.308c0-.052-.052-.135-.092-.144a.92.92 0 0 1-.637-.476l-.256-.471c-.188-.386-.186-.386-.617-.283v-.433h-.5c.027-.09.029-.182.074-.224l.806-.776c.038-.036.112-.031.168-.047.01.057.016.115.018.173l-.011.303h.449c-.09.433-.088.429.307.626.193.082.376.188.543.314.148.147.28.312.39.489.034.047.04.166.058.166a.88.88 0 0 0 .379-.049c.224-.112.274-.224.141-.469a.82.82 0 0 1-.088-.321c-.007-.112.009-.224.047-.329a4.34 4.34 0 0 1 .182-.604c.092-.224.049-.375-.191-.449a.67.67 0 0 1-.11-.072l.35-.325-.411-.33a3.9 3.9 0 0 1 1.571-.016l-.379.357.339.319-.198.108c-.032.01-.062.026-.086.049s-.044.05-.057.081-.018.064-.016.098.011.066.027.095l.195.624a1.23 1.23 0 0 1-.036.826c-.02.065-.081.166-.061.184a.79.79 0 0 0 .312.224c.249.07.316.047.404-.224a.92.92 0 0 1 .449-.502l.411-.224c.397-.197.399-.195.307-.626h.426v-.323a1.26 1.26 0 0 1 .022-.15c.049 0 .117 0 .148.031l.853.823c.036.038.025.121.038.197l-.489-.025.025.417c-.045.018-.061.034-.072.029-.381-.099-.379-.097-.559.267a2.37 2.37 0 0 1-.287.505c-.159.169-.334.323-.523.46-.052.043-.186.054-.184.074a1.25 1.25 0 0 0 .07.397c.092.224.285.224.449.114a.76.76 0 0 1 .626-.045l.561.162c.375.117.375.119.646-.321l.224.404.323-.35c.177 0 .168.137.173.263.045.992.032 1.093-.166 1.189l-.312-.327-.307.334a1.4 1.4 0 0 1-.085-.146c-.01-.042-.03-.08-.059-.113s-.064-.058-.104-.074a.27.27 0 0 0-.246.023c-.173.069-.357.114-.534.171a1.05 1.05 0 0 1-1.001-.135l-.11.13c-.262.285-.247.52.092.637a.88.88 0 0 1 .485.438c.094.15.177.31.258.471.177.361.175.363.592.245v.449c.119 0 .224-.02.339-.02.047 0 .119 0 .137.04.01.023.014.049.012.075s-.011.05-.025.071l-.873.839c-.094.085-.175.043-.162-.101l.029-.348H45.9l.056-.177a.25.25 0 0 0 .01-.215c-.014-.034-.036-.065-.064-.09a.25.25 0 0 0-.096-.054l-.7-.372c-.109-.062-.204-.147-.276-.25s-.12-.221-.142-.344-.316-.148-.469-.038c-.078.058-.148.13-.242.213.305.375.224.779.085 1.187l-.063.2c-.128.406-.128.406.254.642l-.33.312.368.348a3.78 3.78 0 0 1-1.539 0l.372-.355-.339-.325.18-.092c.036-.01.069-.028.097-.052a.24.24 0 0 0 .064-.09c.014-.034.02-.072.017-.109s-.014-.073-.033-.105c-.067-.175-.112-.357-.171-.534a1.09 1.09 0 0 1 .123-1.039c-.066-.075-.141-.142-.224-.197a1.61 1.61 0 0 0-.303-.074c-.184-.047-.137.092-.17.188a1.08 1.08 0 0 1-.547.586l-.433.224c-.352.175-.355.175-.224.586h-.449c0 .123 0 .24.023.357s-.065.186-.157.103l-.875-.839c-.034-.036-.02-.119-.029-.182h.462l-.018-.411c.049-.014.065-.025.078-.02.368.105.364.103.532-.224a3.37 3.37 0 0 1 .348-.606 2.63 2.63 0 0 1 .487-.397c.054-.038.179-.058.179-.078a1.37 1.37 0 0 0-.079-.395c-.031-.081-.117-.139-.195-.224-.467.375-.947.159-1.422 0-.39-.123-.39-.126-.622.305l-.312-.381-.345.361a.83.83 0 0 1-.108-.249c-.07-.788-.027-1.122.153-1.234l.312.339.319-.343.094.175c.01.036.028.069.052.097s.055.05.09.064.072.021.109.019.074-.012.106-.03c.173-.067.354-.117.534-.168.586-.168.666-.047 1.054.112zm2.042-1.032a1.51 1.51 0 0 0-1.476 1.499 1.49 1.49 0 0 0 1.488 1.503 1.52 1.52 0 0 0 1.517-1.46 1.57 1.57 0 0 0-1.535-1.541h.007z"/><path d="M43.553 45.602c.266.015.517.132.699.327a1.04 1.04 0 0 1 .279.719c-.003.266-.108.522-.295.713s-.439.303-.706.312c-.14.005-.279-.019-.41-.069a1.02 1.02 0 0 1-.35-.225 1.05 1.05 0 0 1-.233-.344 1.04 1.04 0 0 1 .009-.815 1.02 1.02 0 0 1 .241-.339 1.04 1.04 0 0 1 .767-.277zm.561 1.039a.57.57 0 0 0-.095-.321c-.063-.095-.152-.17-.257-.214s-.221-.057-.333-.035a.58.58 0 0 0-.296.156c-.081.08-.137.182-.16.294s-.013.228.03.333a.58.58 0 0 0 .53.36.56.56 0 0 0 .581-.584v.011zm4.183-21.577v-3.803c.017-.276-.028-.552-.132-.808a1.84 1.84 0 0 0-.47-.671c-.541-.471-1.136-.876-1.773-1.207-1.822-.87-3.787-1.254-5.768-1.57-2.764-.435-5.555-.673-8.353-.711-1.714-.029-3.431.054-5.145.13l-4.487.379a8.39 8.39 0 0 1 .626 1.595c2.252-.359 4.529-.538 6.81-.536 3.471 0 6.035.117 8.575.527 1.907.307 3.798.698 5.562 1.532a5.03 5.03 0 0 1 .956.586c.53.415.55.859-.022 1.221a10.44 10.44 0 0 1-2.111 1.057c-2.327.812-4.748 1.164-7.195 1.389a55.85 55.85 0 0 1-7.404.148v.09a5.43 5.43 0 0 1-5.474 5.486h-7.014l.478.224c1.148.519 2.347.915 3.579 1.18 2.896.651 5.928.922 8.892 1.034l2.019.043a57.19 57.19 0 0 0 7.121-.428c2.836-.35 5.782-.857 8.335-2.208.727-.386 1.429-.866 1.885-1.55.655-.96.509-2.033.512-3.128zm-10.741-2.702c1.167-.355 1.757-.765 1.764-1.216 0-.249-1.003-.399-1.846-.274l-3.79.599c-.823.141-.696.388.193.507l1.122.144-.328.094a22.17 22.17 0 0 1-5.982.258l-1.122-.128a5.25 5.25 0 0 1 .236.693c3.361.292 7.314.067 9.753-.677z"/><path d="M27.487 20.249l-1.18-.153.503-.07c2.73-.545 6.628-.449 8.813.242a4.31 4.31 0 0 0 1.898.119c.628-.105.693-.301.132-.478-1.53-.482-3.563-.755-6.098-.819a29.59 29.59 0 0 0-6.475.485 5.72 5.72 0 0 1 1.629 1.36l.924-.148c.994-.155.915-.406-.146-.538zm-4.644.644c-.543-2.547-2.87-4.487-5.737-4.487a5.69 5.69 0 0 0-2.978.781 5.7 5.7 0 0 0-2.137 2.217c-2.403.301-4.187 2.174-4.187 4.487 0 2.468 2.093 4.487 4.651 4.487h10.076c2.172 0 3.877-1.649 3.877-3.749 0-1.936-1.629-3.585-3.565-3.736zm-4.187 2.244v3h-3.101v-2.995h-2.327l3.877-3.747 3.875 3.747-2.324-.005z"/></g></svg>