<svg width="512" height="512" viewBox="0 0 512 512" fill="none" xmlns="http://www.w3.org/2000/svg">
<path d="M242.528 35.9678L83.3015 112.649C79.2477 114.599 75.6859 117.439 72.8814 120.956C70.0769 124.474 68.1019 128.578 67.1033 132.965L27.7695 305.265C26.7518 309.662 26.7435 314.233 27.7452 318.634C28.747 323.035 30.7327 327.152 33.5534 330.675L143.8 468.785C146.613 472.288 150.177 475.114 154.228 477.056C158.28 478.997 162.716 480.003 167.208 480H343.882C348.376 480.006 352.813 479.002 356.865 477.06C360.917 475.119 364.48 472.29 367.29 468.785L477.489 330.675C480.298 327.161 482.277 323.058 483.279 318.672C484.28 314.286 484.278 309.73 483.273 305.345L443.939 132.965C442.941 128.578 440.966 124.474 438.161 120.956C435.357 117.439 431.795 114.599 427.741 112.649L268.515 35.9678C264.462 34.0144 260.021 33 255.521 33C251.022 33 246.581 34.0144 242.528 35.9678V35.9678Z" fill="#431BB1"/>
<path d="M117.915 269.629L118.06 254.184C117.888 252.217 118.288 250.241 119.213 248.496C121.793 244.603 126.039 246.894 129.131 248.496C133.622 250.816 138.25 252.86 142.99 254.617C152.444 258.032 162.165 260.658 172.054 262.467C176.027 263.236 180.065 263.909 184.006 264.534C212.842 268.941 242.07 270.22 271.181 268.347C289.389 267.399 307.487 264.939 325.287 260.993C338.345 257.997 351.115 254.104 362.827 247.327C367.633 244.587 371.767 247.07 371.831 252.662C371.938 262.339 371.938 272.022 371.831 281.71C371.831 286.949 367.858 289.368 363.163 287.221C348.646 280.532 332.376 278.643 316.712 281.826C301.048 285.009 286.806 293.101 276.052 304.926C271.605 309.816 267.832 315.28 264.837 321.172C263.998 323.198 262.51 324.889 260.607 325.978C258.964 326.609 257.201 326.861 255.448 326.715C234.132 326.888 212.828 325.63 191.681 322.95C189.181 322.614 186.666 322.261 184.15 321.861C167.183 319.265 150.12 315.452 135.011 307.441C130.528 305.231 126.492 302.21 123.107 298.533C117.899 292.46 117.771 285.395 117.835 277.8L117.915 269.629Z" fill="white"/>
<path d="M235.941 396.097C214.728 395.071 193.643 393.645 172.815 389.047C158.235 385.843 141.892 382.27 129.556 373.362C123.307 368.843 117.827 362.515 117.924 354.376C118.052 343.561 117.924 332.746 117.924 321.915C117.924 316.532 122.201 313.904 126.864 316.484C142.453 325.216 159.452 329.413 176.82 332.586C200.933 336.96 225.255 338.322 249.688 338.45C252.3 338.45 255.36 338.866 256.449 341.574C257.811 344.939 256.353 349.585 256.209 353.062C255.841 363.028 257.504 372.966 261.096 382.27C262.217 385.122 263.579 388.31 263.323 391.434C263.002 395.28 259.59 396.369 256.257 396.449C249.544 396.625 242.751 396.369 235.941 396.097Z" fill="white"/>
<path d="M287.613 358.761C287.613 331.523 310.14 309.365 337.922 309.301C365.464 309.301 388.183 331.539 388.183 358.633C387.965 371.814 382.58 384.383 373.187 393.634C363.794 402.885 351.145 408.077 337.961 408.094C324.778 408.111 312.115 402.951 302.698 393.724C293.282 384.497 287.865 371.942 287.613 358.761V358.761ZM337.922 321.221C330.507 321.335 323.29 323.638 317.18 327.841C311.069 332.044 306.337 337.959 303.579 344.843C300.82 351.728 300.158 359.274 301.675 366.533C303.193 373.793 306.822 380.442 312.107 385.645C317.392 390.848 324.097 394.372 331.379 395.776C338.661 397.18 346.196 396.4 353.036 393.534C359.877 390.668 365.717 385.844 369.824 379.668C373.931 373.493 376.121 366.241 376.118 358.825C376.013 348.782 371.936 339.189 364.778 332.143C357.621 325.096 347.966 321.17 337.922 321.221V321.221Z" fill="white"/>
<path d="M332.871 306.036L334.698 304.707L333.352 303.537C334.176 303.004 334.788 302.2 335.08 301.263C335.373 300.327 335.328 299.317 334.954 298.41C334.521 296.92 333.929 295.478 333.432 294.004C333.025 293.053 332.915 292.002 333.115 290.987C333.315 289.972 333.816 289.042 334.553 288.316C335.357 287.667 336.334 287.269 337.363 287.172C338.392 287.075 339.426 287.284 340.337 287.771C342.564 288.909 343.285 291.585 342.148 294.485C341.651 295.766 341.154 297.064 340.786 298.394C340.4 299.304 340.349 300.322 340.642 301.267C340.936 302.211 341.554 303.021 342.388 303.553L341.042 304.626L343.173 306.357H332.871V306.036Z" fill="white"/>
<path d="M333.331 414.119L334.677 413.029L332.562 411.315H343.281L341.166 412.917L342.464 414.071C341.635 414.599 341.019 415.403 340.726 416.342C340.433 417.28 340.481 418.292 340.861 419.198C341.262 420.64 341.839 422.034 342.335 423.428C342.892 424.37 343.111 425.473 342.955 426.557C342.799 427.64 342.279 428.637 341.479 429.385C340.68 430.132 339.649 430.584 338.558 430.666C337.467 430.748 336.38 430.455 335.478 429.836C333.235 428.699 332.53 426.007 333.668 423.123C334.164 421.841 334.661 420.544 335.045 419.214C335.404 418.298 335.429 417.286 335.115 416.354C334.802 415.423 334.17 414.631 333.331 414.119V414.119Z" fill="white"/>
<path d="M295.538 394.651L297.236 394.908L297.14 393.161L303.549 399.97L304.029 399.57L301.931 399.41L302.027 400.932C302.027 400.932 301.867 401.092 301.802 401.076C300.918 400.901 300.001 401.027 299.197 401.433C298.393 401.84 297.748 402.504 297.364 403.319C296.641 404.627 295.994 405.975 295.426 407.357C294.288 409.856 292.301 411.218 290.171 410.913C289.03 410.763 287.973 410.234 287.169 409.412C286.364 408.59 285.859 407.522 285.732 406.379C285.476 404.296 286.918 402.31 289.434 401.204C290.714 400.685 291.966 400.097 293.183 399.442C294.068 399.038 294.786 398.34 295.216 397.467C295.645 396.594 295.759 395.599 295.538 394.651V394.651Z" fill="white"/>
<path d="M373.773 401.172L373.933 399.41L372.331 399.586L378.627 392.681V394.763L380.229 394.667C380.229 394.764 380.374 394.86 380.358 394.94C380.172 395.791 380.28 396.681 380.664 397.463C381.048 398.246 381.685 398.875 382.472 399.25C383.821 400.017 385.218 400.697 386.654 401.284C387.722 401.642 388.637 402.354 389.246 403.301C389.855 404.249 390.123 405.376 390.006 406.496C389.888 407.616 389.392 408.663 388.599 409.463C387.806 410.264 386.764 410.77 385.645 410.898C384.499 410.927 383.375 410.584 382.442 409.919C381.509 409.254 380.817 408.305 380.47 407.213C379.957 405.929 379.369 404.677 378.707 403.463C378.293 402.556 377.568 401.826 376.663 401.406C375.759 400.985 374.733 400.903 373.773 401.172Z" fill="white"/>
<path d="M371.823 317.985L373.825 318.225V316.511C376.437 317.023 377.879 315.501 378.969 313.483C379.786 311.976 380.346 310.278 381.26 308.868C381.748 307.977 382.533 307.285 383.479 306.914C384.424 306.542 385.47 306.513 386.435 306.833C387.451 307.145 388.348 307.758 389.009 308.59C389.67 309.422 390.063 310.436 390.136 311.496C390.077 312.575 389.694 313.611 389.036 314.469C388.379 315.326 387.478 315.965 386.451 316.302C385.425 316.751 384.384 317.136 383.407 317.648C381.308 318.738 379.738 320.212 380.202 322.903L378.488 322.759L378.664 324.361L372.255 317.456L371.823 317.985Z" fill="white"/>
<path d="M302.029 316.512L301.9 318.114L303.935 317.905L303.647 317.633L297.142 324.827L297.27 322.824H295.572C296.085 320.293 294.643 318.835 292.688 317.761C291.086 316.912 289.483 316.335 287.881 315.39C287.012 314.92 286.332 314.164 285.956 313.25C285.579 312.337 285.529 311.321 285.814 310.375C286.095 309.351 286.681 308.436 287.494 307.752C288.306 307.068 289.307 306.648 290.365 306.546C292.432 306.354 294.37 307.844 295.46 310.375C295.996 311.711 296.628 313.007 297.35 314.252C297.761 315.101 298.447 315.787 299.296 316.197C300.145 316.607 301.108 316.718 302.029 316.512V316.512Z" fill="white"/>
<path d="M393.103 363.567C392.639 362.398 392.126 361.677 391.084 363.087V354.803L392.206 355.508L393.183 354.275C394.545 356.341 396.5 356.486 398.631 355.877C400.057 355.46 401.435 354.851 402.845 354.387C403.798 353.983 404.853 353.887 405.864 354.111C406.875 354.335 407.791 354.868 408.484 355.636C409.142 356.443 409.536 357.431 409.613 358.468C409.69 359.506 409.447 360.542 408.917 361.436C407.763 363.567 405.12 364.24 402.316 363.167C400.926 362.609 399.509 362.123 398.07 361.709C397.156 361.387 396.157 361.397 395.249 361.737C394.341 362.076 393.582 362.724 393.103 363.567V363.567Z" fill="white"/>
<path d="M282.692 354.131C283.237 355.189 283.654 356.198 284.727 354.532V362.847L283.606 362.158L282.628 363.408C282.1 362.575 281.293 361.957 280.351 361.664C279.409 361.37 278.394 361.42 277.485 361.806C275.995 362.222 274.569 362.815 273.095 363.312C272.146 363.716 271.098 363.828 270.085 363.634C269.072 363.44 268.14 362.948 267.408 362.222C266.756 361.42 266.355 360.444 266.255 359.415C266.155 358.386 266.361 357.351 266.847 356.438C268 354.179 270.628 353.474 273.528 354.596C274.864 355.137 276.228 355.608 277.614 356.006C278.545 356.346 279.567 356.345 280.497 356.001C281.428 355.658 282.206 354.995 282.692 354.131V354.131Z" fill="white"/>
<path d="M323.253 355.426C323.901 355.028 324.425 354.457 324.768 353.778C325.11 353.099 325.257 352.338 325.192 351.581C325.192 351.212 324.823 350.619 324.535 350.555C323.571 350.364 322.662 349.96 321.875 349.372C321.088 348.785 320.442 348.028 319.985 347.159C319.376 346.037 318.719 344.931 318.158 343.794C316.812 341.038 316.828 341.038 313.752 341.775V338.683H310.179C310.371 338.042 310.388 337.385 310.708 337.081C312.583 335.174 314.521 333.348 316.46 331.537C316.732 331.281 317.261 331.313 317.661 331.201C317.736 331.608 317.779 332.02 317.79 332.434C317.79 333.123 317.79 333.812 317.71 334.597H320.914C320.273 337.69 320.289 337.657 323.109 339.067C324.489 339.653 325.791 340.406 326.986 341.311C328.047 342.363 328.983 343.535 329.774 344.803C330.014 345.14 330.062 345.989 330.191 345.989C331.108 346.071 332.033 345.951 332.898 345.636C334.5 344.835 334.853 344.034 333.908 342.288C333.543 341.575 333.329 340.794 333.28 339.995C333.23 339.195 333.346 338.394 333.619 337.641C333.947 336.175 334.381 334.735 334.917 333.332C335.574 331.729 335.27 330.656 333.555 330.127C333.277 329.982 333.015 329.811 332.77 329.614L335.27 327.291L332.338 324.936C336.03 324.138 339.846 324.1 343.553 324.824L340.845 327.371L343.265 329.646L341.855 330.416C341.625 330.484 341.415 330.603 341.237 330.763C341.06 330.924 340.921 331.122 340.831 331.343C340.74 331.564 340.7 331.803 340.714 332.042C340.727 332.281 340.794 332.513 340.909 332.723C341.438 334.181 341.791 335.719 342.303 337.177C342.902 339.113 342.811 341.196 342.047 343.073C341.903 343.538 341.47 344.259 341.614 344.387C342.216 345.093 342.981 345.642 343.841 345.989C345.62 346.486 346.1 346.325 346.725 344.387C347.301 342.828 348.446 341.546 349.93 340.798C350.875 340.221 351.868 339.692 352.862 339.196C355.698 337.786 355.714 337.802 355.057 334.725H358.101C358.101 333.988 358.101 333.203 358.101 332.418C358.131 332.057 358.184 331.699 358.261 331.345C358.614 331.345 359.094 331.345 359.319 331.569C361.38 333.492 363.409 335.452 365.407 337.449C365.663 337.722 365.583 338.314 365.679 338.859L362.186 338.683L362.363 341.663C362.042 341.791 361.93 341.903 361.85 341.871C359.126 341.166 359.142 341.182 357.861 343.778C357.327 345.059 356.638 346.27 355.81 347.383C354.672 348.593 353.422 349.693 352.077 350.667C351.708 350.972 350.747 351.052 350.763 351.196C350.774 352.162 350.942 353.12 351.259 354.032C351.916 355.634 353.294 355.634 354.464 354.849C355.143 354.48 355.893 354.26 356.664 354.205C357.435 354.149 358.209 354.26 358.934 354.529C360.296 354.849 361.626 355.25 362.939 355.682C365.615 356.515 365.615 356.531 367.554 353.391L369.156 356.275L371.463 353.776C372.729 353.776 372.665 354.753 372.697 355.65C373.017 362.732 372.921 363.453 371.511 364.142L369.284 361.803L367.089 364.19C366.865 363.855 366.662 363.507 366.48 363.148C366.406 362.851 366.262 362.575 366.061 362.344C365.859 362.113 365.606 361.933 365.321 361.819C365.036 361.705 364.729 361.66 364.423 361.687C364.118 361.715 363.824 361.815 363.564 361.979C362.331 362.475 361.017 362.796 359.751 363.196C358.575 363.65 357.304 363.799 356.055 363.631C354.806 363.463 353.62 362.983 352.605 362.235C352.317 362.588 352.077 362.892 351.82 363.164C349.946 365.199 350.058 366.882 352.477 367.715C353.989 368.273 355.228 369.392 355.938 370.839C356.611 371.912 357.204 373.05 357.78 374.204C359.046 376.783 359.03 376.799 362.01 375.95V379.154C362.859 379.154 363.612 379.01 364.43 379.01C364.766 379.01 365.279 379.01 365.407 379.299C365.479 379.466 365.509 379.65 365.492 379.832C365.475 380.014 365.413 380.188 365.311 380.34C363.276 382.375 361.225 384.41 359.078 386.332C358.405 386.941 357.828 386.637 357.925 385.611C358.021 384.586 358.053 384.009 358.133 383.128H354.8C354.977 382.567 355.057 382.199 355.201 381.862C355.326 381.627 355.397 381.368 355.409 381.102C355.422 380.836 355.375 380.571 355.272 380.326C355.169 380.08 355.013 379.861 354.815 379.683C354.617 379.506 354.382 379.374 354.127 379.299C352.429 378.465 350.779 377.552 349.129 376.639C348.348 376.197 347.675 375.587 347.16 374.852C346.644 374.118 346.299 373.278 346.148 372.393C345.956 371.528 343.889 371.336 342.8 372.121C342.239 372.537 341.742 373.05 341.07 373.643C343.248 376.318 342.672 379.202 341.678 382.118C341.518 382.583 341.374 383.064 341.23 383.544C340.316 386.444 340.316 386.444 343.04 388.127L340.685 390.354L343.313 392.837C339.688 393.59 335.947 393.59 332.322 392.837L334.981 390.306L332.562 387.982C333.187 387.662 333.507 387.47 333.844 387.325C334.101 387.256 334.338 387.128 334.538 386.952C334.738 386.776 334.894 386.556 334.995 386.31C335.096 386.063 335.138 385.797 335.119 385.531C335.1 385.265 335.02 385.008 334.885 384.778C334.404 383.528 334.084 382.231 333.667 380.965C333.181 379.754 333.006 378.439 333.16 377.143C333.314 375.847 333.792 374.61 334.549 373.547C334.078 373.009 333.539 372.535 332.946 372.137C332.244 371.891 331.52 371.714 330.783 371.608C329.47 371.272 329.806 372.265 329.566 372.954C328.848 374.798 327.448 376.295 325.656 377.136C324.631 377.68 323.606 378.257 322.564 378.738C320.049 379.987 320.033 379.987 320.962 382.919H317.758C317.758 383.801 317.758 384.634 317.918 385.467C318.078 386.3 317.453 386.797 316.796 386.204C314.649 384.281 312.583 382.263 310.548 380.212C310.307 379.955 310.404 379.363 310.339 378.914H313.64L313.512 375.982C313.864 375.886 313.976 375.806 314.073 375.838C316.7 376.591 316.668 376.575 317.87 374.236C318.545 372.711 319.378 371.262 320.353 369.91C321.395 368.829 322.562 367.877 323.83 367.074C324.214 366.801 325.112 366.657 325.112 366.513C325.065 365.551 324.876 364.6 324.551 363.693C324.327 363.116 323.718 362.7 323.157 362.091C319.824 364.767 316.396 363.228 312.999 362.091C310.211 361.21 310.211 361.194 308.561 364.27L306.334 361.546L303.867 364.126C303.514 363.579 303.255 362.978 303.098 362.347C302.601 356.724 302.905 354.336 304.187 353.535L306.414 355.955L308.689 353.503C309.01 354.096 309.218 354.416 309.362 354.753C309.433 355.009 309.561 355.246 309.737 355.446C309.912 355.645 310.131 355.803 310.376 355.906C310.621 356.009 310.886 356.056 311.152 356.042C311.418 356.028 311.677 355.955 311.91 355.826C313.143 355.346 314.441 354.993 315.723 354.625C319.905 353.423 320.481 354.288 323.253 355.426ZM337.833 348.056C335.03 348.122 332.363 349.276 330.396 351.273C328.428 353.271 327.315 355.955 327.291 358.758C327.278 360.162 327.543 361.555 328.071 362.855C328.599 364.156 329.379 365.34 330.367 366.338C331.354 367.335 332.529 368.128 333.825 368.67C335.12 369.211 336.509 369.491 337.913 369.493C340.718 369.495 343.413 368.409 345.434 366.464C347.454 364.518 348.64 361.865 348.744 359.063C348.691 356.168 347.521 353.407 345.478 351.355C343.436 349.304 340.679 348.121 337.785 348.056H337.833Z" fill="white"/>
<path d="M338.024 351.5C339.926 351.607 341.714 352.443 343.015 353.834C344.317 355.226 345.031 357.066 345.011 358.971C344.99 360.876 344.236 362.699 342.905 364.062C341.573 365.425 339.768 366.223 337.864 366.288C336.864 366.323 335.868 366.154 334.935 365.793C334.003 365.431 333.153 364.885 332.437 364.186C331.722 363.487 331.155 362.65 330.772 361.726C330.389 360.802 330.197 359.81 330.207 358.81C330.218 357.81 330.432 356.822 330.835 355.907C331.238 354.992 331.823 354.167 332.553 353.484C333.284 352.801 334.145 352.273 335.085 351.932C336.026 351.591 337.025 351.444 338.024 351.5V351.5ZM342.03 358.918C342.036 358.104 341.801 357.306 341.353 356.625C340.906 355.945 340.267 355.412 339.517 355.094C338.767 354.777 337.94 354.689 337.14 354.842C336.34 354.994 335.604 355.381 335.023 355.952C334.443 356.523 334.045 357.254 333.88 358.051C333.715 358.849 333.79 359.677 334.096 360.432C334.401 361.187 334.924 361.834 335.598 362.292C336.271 362.75 337.066 362.997 337.88 363.004C338.432 363.024 338.982 362.93 339.495 362.728C340.009 362.525 340.475 362.219 340.865 361.828C341.255 361.437 341.559 360.969 341.76 360.455C341.96 359.94 342.052 359.39 342.03 358.838V358.918Z" fill="white"/>
<path d="M371.894 204.839C371.894 195.786 371.894 186.734 371.894 177.682C372.018 175.712 371.697 173.74 370.953 171.912C370.21 170.084 369.064 168.447 367.6 167.123C363.737 163.759 359.488 160.865 354.943 158.503C341.933 152.287 327.898 149.547 313.75 147.288C294.013 144.181 274.079 142.483 254.101 142.209C241.86 142.001 229.603 142.593 217.362 143.138C206.644 143.603 195.973 144.452 185.318 145.846C187.193 149.481 188.691 153.298 189.788 157.238C205.87 154.676 222.13 153.396 238.415 153.408C263.201 153.408 281.514 154.241 299.651 157.173C313.27 159.368 326.776 162.156 339.369 168.116C341.793 169.252 344.082 170.654 346.195 172.298C349.976 175.262 350.12 178.435 346.034 181.014C341.311 184.092 336.253 186.623 330.958 188.56C314.343 194.36 297.055 196.876 279.575 198.478C261.994 200 244.331 200.353 226.703 199.535C226.703 199.76 226.703 199.968 226.703 200.176C226.756 205.329 225.782 210.44 223.838 215.212C221.893 219.984 219.017 224.32 215.377 227.967C211.737 231.614 207.407 234.499 202.639 236.454C197.871 238.408 192.762 239.393 187.609 239.35H137.525C138.646 239.927 139.784 240.488 140.938 240.952C149.133 244.66 157.699 247.486 166.493 249.38C187.177 254.026 208.823 255.965 229.988 256.766C234.794 256.958 239.601 257.06 244.407 257.07C261.406 257.109 278.39 256.087 295.261 254.01C315.513 251.511 336.549 247.89 354.782 238.244C359.974 235.489 364.988 232.06 368.241 227.173C372.919 220.316 371.878 212.657 371.894 204.839Z" fill="white"/>
<path d="M295.196 185.549C303.527 183.018 307.741 180.086 307.789 176.866C307.789 175.087 300.627 174.014 294.603 174.911C285.39 176.273 276.338 177.699 267.542 179.189C261.662 180.198 262.575 181.961 268.92 182.81L276.931 183.835C275.921 184.124 275.329 184.348 274.592 184.508C260.502 187.048 246.133 187.668 231.877 186.351C228.993 186.11 226.334 185.79 223.866 185.437C224.541 187.046 225.104 188.701 225.549 190.388C249.549 192.471 277.78 190.869 295.196 185.549Z" fill="white"/>
<path d="M223.282 170.455L214.854 169.366C216.825 169.093 217.738 169.013 218.443 168.869C237.942 164.976 265.772 165.665 281.377 170.599C285.776 171.888 290.407 172.178 294.932 171.449C299.418 170.696 299.883 169.302 295.877 168.036C284.95 164.596 270.434 162.647 252.33 162.188C236.836 161.642 221.33 162.803 206.09 165.649C210.539 168.131 214.484 171.425 217.722 175.358C219.917 175.005 222.144 174.669 224.323 174.3C231.421 173.195 230.86 171.4 223.282 170.455Z" fill="white"/>
<path d="M190.127 175.051C186.25 156.867 169.635 143.008 149.159 143.008C141.692 142.878 134.333 144.807 127.89 148.583C121.446 152.359 116.166 157.836 112.629 164.413C95.4694 166.56 82.7319 179.938 82.7319 196.457C82.7319 214.081 97.6804 228.501 115.945 228.501H187.9C203.409 228.501 215.586 216.724 215.586 201.728C215.586 187.901 203.954 176.125 190.127 175.051ZM160.23 191.073V212.495H138.088V191.105H121.473L149.159 164.349L176.829 191.105L160.23 191.073Z" fill="white"/>
</svg>
