<svg xmlns="http://www.w3.org/2000/svg" width="1280" height="640" fill="none" xmlns:v="https://vecta.io/nano"><path d="M631.321 60.493l-133.724 64.399c-3.405 1.638-6.396 4.023-8.751 6.977s-4.014 6.402-4.853 10.085l-33.034 144.705c-.855 3.693-.862 7.532-.021 11.228A25.1 25.1 0 0 0 455.816 308l92.59 115.99a25.18 25.18 0 0 0 8.758 6.946 25.2 25.2 0 0 0 10.901 2.473h148.378c3.774.005 7.5-.838 10.903-2.469a25.15 25.15 0 0 0 8.756-6.95L828.652 308a25.1 25.1 0 0 0 4.858-21.274l-33.035-144.772a25.12 25.12 0 0 0-4.852-10.085 25.13 25.13 0 0 0-8.752-6.977L653.147 60.493C649.743 58.852 646.013 58 642.234 58s-7.509.852-10.913 2.492h0z" fill="#431bb1"/><g fill="#fff"><path d="M526.667 256.731l.121-12.971a8.6 8.6 0 0 1 .969-4.777c2.167-3.27 5.732-1.346 8.329 0a104.28 104.28 0 0 0 11.64 5.14c7.94 2.869 16.104 5.074 24.409 6.593 3.337.646 6.728 1.211 10.038 1.736a340.16 340.16 0 0 0 73.213 3.203 276.56 276.56 0 0 0 45.441-6.176c10.966-2.517 21.691-5.786 31.527-11.478 4.037-2.301 7.508-.216 7.562 4.48v24.396c0 4.4-3.337 6.432-7.28 4.629-12.191-5.618-25.856-7.205-39.011-4.531a63.16 63.16 0 0 0-34.148 19.4 62.1 62.1 0 0 0-9.419 13.644c-.705 1.702-1.954 3.122-3.553 4.037a9.83 9.83 0 0 1-4.332.619c-17.903.144-35.794-.912-53.555-3.163l-6.324-.915c-14.25-2.179-28.58-5.382-41.269-12.11-3.765-1.856-7.155-4.393-9.998-7.481-4.373-5.1-4.481-11.034-4.427-17.412l.067-6.863zm99.122 106.212c-17.815-.861-35.523-2.059-53.016-5.92-12.245-2.692-25.97-5.692-36.331-13.174-5.247-3.794-9.849-9.109-9.769-15.945v-27.261c0-4.522 3.593-6.728 7.509-4.562 13.092 7.333 27.369 10.859 41.955 13.523 20.251 3.674 40.677 4.817 61.198 4.925 2.193 0 4.763.35 5.678 2.624 1.144 2.826-.081 6.728-.202 9.648-.309 8.37 1.088 16.716 4.104 24.53.942 2.395 2.086 5.073 1.871 7.697-.27 3.229-3.136 4.144-5.935 4.211-5.638.148-11.343-.067-17.062-.296zm43.397-31.357c0-22.875 18.919-41.484 42.251-41.538 23.131 0 42.212 18.677 42.212 41.431-.183 11.07-4.706 21.626-12.595 29.395a42.24 42.24 0 0 1-29.584 12.144c-11.072.014-21.707-4.319-29.615-12.068a42.24 42.24 0 0 1-12.669-29.364h0zm42.251-31.527c-6.227.096-12.288 2.03-17.42 5.559a31.59 31.59 0 0 0-11.423 14.28c-2.317 5.782-2.873 12.119-1.598 18.216a31.59 31.59 0 0 0 24.946 24.559c6.116 1.179 12.444.524 18.189-1.883a31.59 31.59 0 0 0 19.385-29.15 31.92 31.92 0 0 0-9.523-22.409c-6.011-5.917-14.121-9.215-22.556-9.172h0zm-4.241-12.752l1.534-1.117-1.131-.982a3.52 3.52 0 0 0 1.452-1.91c.246-.786.208-1.634-.106-2.396-.363-1.251-.861-2.462-1.278-3.7-.342-.799-.434-1.682-.266-2.534a4.32 4.32 0 0 1 1.208-2.243c.675-.546 1.496-.88 2.359-.961s1.733.094 2.498.503c1.871.956 2.476 3.203 1.521 5.638l-1.144 3.284c-.324.764-.367 1.619-.121 2.412a3.51 3.51 0 0 0 1.467 1.92l-1.131.902 1.79 1.453h-8.652v-.269zm.386 90.771l1.13-.915-1.776-1.439h9.002l-1.776 1.345 1.09.969a3.5 3.5 0 0 0-1.346 4.306c.337 1.211.821 2.382 1.238 3.552a4.04 4.04 0 0 1 .521 2.628c-.131.91-.568 1.748-1.24 2.375a4.04 4.04 0 0 1-2.453 1.076c-.916.069-1.829-.176-2.587-.696-1.884-.956-2.476-3.216-1.521-5.638l1.158-3.284a3.51 3.51 0 0 0-1.44-4.279h0zm-31.741-16.35l1.426.216-.08-1.467 5.382 5.719.404-.337-1.763-.134.081 1.278s-.135.135-.189.121c-.742-.147-1.512-.041-2.188.3s-1.217.899-1.539 1.584c-.607 1.098-1.151 2.23-1.628 3.391-.955 2.099-2.624 3.243-4.414 2.987a4.31 4.31 0 0 1-2.52-1.261c-.676-.69-1.101-1.587-1.207-2.547-.215-1.749.996-3.418 3.108-4.346 1.076-.436 2.127-.93 3.149-1.48a3.54 3.54 0 0 0 1.978-4.024h0zm65.705 5.478l.135-1.48-1.346.148 5.289-5.799v1.749l1.345-.081c0 .081.121.162.108.229-.156.715-.065 1.462.257 2.119s.858 1.186 1.519 1.501c1.133.644 2.306 1.215 3.512 1.709.897.3 1.665.897 2.177 1.693a4.16 4.16 0 0 1-.544 5.175c-.666.673-1.541 1.097-2.481 1.205-.962.025-1.906-.264-2.689-.822a4.44 4.44 0 0 1-1.657-2.273 29.31 29.31 0 0 0-1.48-3.149c-.348-.762-.957-1.375-1.717-1.728s-1.621-.422-2.428-.196zm-1.637-69.865l1.682.202v-1.44c2.193.43 3.404-.848 4.319-2.543.687-1.265 1.158-2.691 1.925-3.876.41-.748 1.069-1.329 1.863-1.641s1.673-.336 2.483-.067a4.41 4.41 0 0 1 3.108 3.915c-.049.906-.371 1.777-.923 2.497a4.51 4.51 0 0 1-2.172 1.54l-2.556 1.13c-1.763.915-3.082 2.153-2.691 4.414l-1.44-.121.148 1.345-5.383-5.799-.363.444zm-58.616-1.237l-.108 1.345 1.709-.175-.242-.228-5.463 6.041.107-1.682h-1.426c.431-2.126-.78-3.35-2.422-4.252l-4.037-1.991c-.73-.395-1.301-1.03-1.617-1.797a3.61 3.61 0 0 1-.119-2.415c.236-.86.728-1.628 1.411-2.203a4.4 4.4 0 0 1 2.411-1.013c1.736-.161 3.364 1.09 4.279 3.216a25.05 25.05 0 0 0 1.588 3.256c.345.713.92 1.289 1.634 1.633a3.51 3.51 0 0 0 2.295.265h0zm76.488 39.52c-.39-.982-.821-1.588-1.696-.404v-6.956l.942.592.821-1.036c1.144 1.735 2.786 1.856 4.575 1.345 1.198-.35 2.355-.861 3.539-1.251.801-.339 1.687-.42 2.536-.232s1.618.636 2.201 1.281c.552.677.882 1.508.947 2.379s-.139 1.741-.584 2.492c-.969 1.79-3.189 2.355-5.544 1.454-1.167-.469-2.357-.877-3.566-1.225-.768-.27-1.606-.262-2.369.023a3.47 3.47 0 0 0-1.802 1.538h0zm-92.727-7.926c.457.888.807 1.736 1.708.337v6.983l-.941-.578-.821 1.049c-.444-.699-1.122-1.218-1.913-1.465a3.5 3.5 0 0 0-2.407.12c-1.251.35-2.449.847-3.687 1.265a4.36 4.36 0 0 1-2.527.27c-.851-.163-1.634-.576-2.249-1.185-.548-.674-.885-1.494-.968-2.358a4.41 4.41 0 0 1 .497-2.5c.968-1.897 3.175-2.489 5.611-1.547 1.122.454 2.267.85 3.431 1.184.782.286 1.641.284 2.422-.004a3.51 3.51 0 0 0 1.844-1.571h0z"/><path d="M699.118 328.787c.544-.335.984-.814 1.272-1.384s.411-1.209.356-1.846c0-.309-.31-.807-.552-.861a5.52 5.52 0 0 1-2.234-.993 5.54 5.54 0 0 1-1.587-1.859l-1.534-2.826c-1.131-2.315-1.117-2.315-3.701-1.696v-2.597h-3c.161-.538.175-1.09.444-1.345l4.83-4.656c.229-.215.673-.188 1.01-.283.062.343.098.689.107 1.037l-.067 1.816h2.691c-.538 2.597-.525 2.57 1.844 3.754a15.36 15.36 0 0 1 3.256 1.884 16.23 16.23 0 0 1 2.341 2.934c.202.282.242.995.35.995.771.07 1.547-.032 2.274-.296 1.346-.673 1.642-1.345.848-2.812a4.89 4.89 0 0 1-.527-1.926c-.042-.671.055-1.344.285-1.976.275-1.232.639-2.441 1.09-3.62.551-1.345.296-2.247-1.144-2.691-.233-.122-.454-.266-.659-.431l2.099-1.951-2.463-1.978a23.38 23.38 0 0 1 9.419-.094l-2.274 2.14 2.032 1.91-1.184.646c-.192.058-.369.157-.518.292a1.34 1.34 0 0 0-.276 1.646l1.171 3.741a7.35 7.35 0 0 1-.216 4.951c-.121.39-.484.996-.363 1.104a4.84 4.84 0 0 0 1.871 1.345c1.493.417 1.897.283 2.422-1.345.483-1.309 1.445-2.386 2.691-3.014l2.462-1.346c2.382-1.184 2.395-1.171 1.844-3.754h2.556v-1.938a6.85 6.85 0 0 1 .135-.901c.296 0 .7 0 .888.188l5.113 4.938c.215.229.148.727.229 1.184l-2.933-.148.148 2.503c-.27.108-.364.202-.431.175-2.288-.592-2.274-.579-3.351 1.601a14.19 14.19 0 0 1-1.722 3.028 21.98 21.98 0 0 1-3.135 2.758c-.31.256-1.117.323-1.103.444.009.812.15 1.616.417 2.382.551 1.346 1.709 1.346 2.691.686.57-.31 1.2-.494 1.848-.541a4.55 4.55 0 0 1 1.906.272l3.364.969c2.247.7 2.247.713 3.875-1.924l1.346 2.422 1.937-2.099c1.063 0 1.01.821 1.037 1.574.269 5.948.188 6.553-.996 7.132l-1.871-1.965-1.843 2.005a8.22 8.22 0 0 1-.511-.875 1.63 1.63 0 0 0-1.728-1.227c-.256.024-.503.108-.721.245-1.036.417-2.14.686-3.203 1.023-.987.38-2.055.506-3.104.365s-2.045-.544-2.897-1.172l-.659.78c-1.575 1.709-1.481 3.122.551 3.821a5.28 5.28 0 0 1 2.907 2.624c.565.902 1.063 1.857 1.547 2.826 1.063 2.166 1.05 2.18 3.553 1.467v2.691c.713 0 1.345-.121 2.031-.121.283 0 .714 0 .821.242a.92.92 0 0 1 .072.448c-.015.153-.067.299-.153.427l-5.234 5.032c-.565.511-1.049.256-.969-.605l.175-2.086h-2.799l.337-1.063a1.5 1.5 0 0 0 .175-.638c.01-.224-.029-.446-.115-.652a1.52 1.52 0 0 0-.384-.54c-.166-.149-.364-.259-.578-.323l-4.198-2.234c-.656-.371-1.221-.883-1.654-1.5s-.723-1.323-.849-2.065c-.161-.727-1.897-.889-2.812-.229-.471.35-.888.78-1.453 1.278 1.83 2.247 1.345 4.669.511 7.118l-.377 1.198c-.767 2.435-.767 2.435 1.521 3.848l-1.978 1.871 2.206 2.085a22.67 22.67 0 0 1-9.23 0l2.233-2.126-2.031-1.951 1.076-.552c.216-.058.416-.165.583-.313a1.47 1.47 0 0 0 .384-.54 1.45 1.45 0 0 0 .104-.654c-.016-.223-.083-.439-.196-.632-.404-1.05-.673-2.14-1.023-3.203a6.54 6.54 0 0 1-.426-3.209c.13-1.089.53-2.127 1.166-3.021a6.93 6.93 0 0 0-1.345-1.184c-.59-.206-1.199-.355-1.817-.444-1.103-.282-.821.552-1.023 1.131a6.47 6.47 0 0 1-3.283 3.511l-2.597 1.346c-2.112 1.05-2.126 1.05-1.345 3.512h-2.692c0 .74 0 1.44.135 2.14s-.39 1.116-.942.619l-5.248-5.033c-.202-.215-.121-.713-.175-1.09h2.772l-.107-2.462c.296-.081.39-.148.471-.121 2.206.632 2.179.619 3.189-1.346a20.17 20.17 0 0 1 2.085-3.633 15.8 15.8 0 0 1 2.92-2.382c.323-.229 1.077-.35 1.077-.471a8.26 8.26 0 0 0-.471-2.368c-.189-.484-.7-.834-1.171-1.346-2.799 2.248-5.678.956-8.531 0-2.341-.74-2.341-.753-3.727 1.83l-1.871-2.287-2.072 2.166a4.97 4.97 0 0 1-.646-1.493c-.417-4.723-.161-6.728.915-7.401l1.871 2.032 1.91-2.059.565 1.05c.06.215.168.414.315.581a1.49 1.49 0 0 0 .537.387c.206.087.429.126.652.114a1.48 1.48 0 0 0 .636-.181c1.036-.403 2.126-.7 3.202-1.009 3.512-1.009 3.997-.283 6.325.673zm12.245-6.19c-2.354.056-4.594 1.025-6.247 2.702a9.07 9.07 0 0 0-2.607 6.287 8.93 8.93 0 0 0 .655 3.44c.444 1.093 1.099 2.087 1.928 2.925s1.816 1.504 2.904 1.958a8.94 8.94 0 0 0 3.434.692c2.355.002 4.619-.91 6.316-2.544a9.1 9.1 0 0 0 2.78-6.216c-.044-2.431-1.027-4.75-2.743-6.473a9.42 9.42 0 0 0-6.461-2.771h.041zm.16 2.891c1.598.09 3.099.792 4.192 1.961a6.22 6.22 0 0 1-.093 8.59 6.22 6.22 0 0 1-4.233 1.869c-.84.029-1.677-.113-2.46-.416s-1.497-.763-2.098-1.35-1.077-1.289-1.399-2.065-.483-1.609-.474-2.449a6.22 6.22 0 0 1 .527-2.438 6.23 6.23 0 0 1 1.443-2.035 6.21 6.21 0 0 1 2.127-1.304c.79-.286 1.629-.41 2.468-.363h0zm3.364 6.23c.005-.684-.192-1.354-.568-1.925s-.912-1.019-1.542-1.286-1.324-.341-1.996-.212a3.46 3.46 0 0 0-1.778.932 3.45 3.45 0 0 0-.96 1.764c-.139.669-.076 1.365.181 1.999s.696 1.177 1.261 1.562a3.47 3.47 0 0 0 1.917.598 3.37 3.37 0 0 0 1.357-.232 3.36 3.36 0 0 0 1.15-.756c.327-.329.583-.721.752-1.153a3.37 3.37 0 0 0 .226-1.358v.067zm25.081-129.4V179.51a11 11 0 0 0-.79-4.845c-.624-1.536-1.587-2.91-2.816-4.022a54.25 54.25 0 0 0-10.63-7.239c-10.926-5.221-22.713-7.522-34.595-9.42a353.35 353.35 0 0 0-50.096-4.265c-10.281-.175-20.574.323-30.855.78-9.002.391-17.963 1.104-26.911 2.274 1.574 3.053 2.832 6.259 3.754 9.568 13.506-2.151 27.162-3.227 40.838-3.216 20.817 0 36.197.699 51.429 3.162 11.437 1.843 22.781 4.185 33.357 9.19 2.036.954 3.958 2.132 5.732 3.512 3.176 2.489 3.297 5.154-.134 7.32-3.968 2.585-8.216 4.711-12.662 6.338-13.954 4.871-28.473 6.983-43.153 8.329-14.766 1.278-29.6 1.575-44.405.888v.538c.045 4.328-.773 8.62-2.406 12.628a32.55 32.55 0 0 1-7.106 10.712 32.58 32.58 0 0 1-10.698 7.128 32.57 32.57 0 0 1-12.622 2.432h-42.063c.942.484 1.897.955 2.866 1.346 6.882 3.114 14.077 5.487 21.462 7.077 17.372 3.903 35.55 5.531 53.326 6.204 4.036.161 8.073.246 12.11.255 14.276.033 28.54-.826 42.709-2.57 17.008-2.099 34.676-5.14 49.989-13.24 4.359-2.315 8.571-5.194 11.302-9.298 3.93-5.76 3.055-12.192 3.068-18.758zm-64.413-16.201c6.997-2.126 10.535-4.588 10.576-7.293 0-1.493-6.015-2.395-11.074-1.641l-22.727 3.592c-4.939.848-4.172 2.328 1.157 3.041l6.728.862c-.848.242-1.346.43-1.965.565-11.833 2.133-23.9 2.654-35.873 1.547-2.422-.202-4.656-.471-6.728-.767.567 1.352 1.039 2.741 1.413 4.158 20.157 1.749 43.866.404 58.493-4.064zm-60.397-12.677l-7.078-.915 3.014-.417c16.376-3.269 39.749-2.691 52.855 1.454 3.694 1.081 7.583 1.325 11.384.713 3.767-.633 4.157-1.803.793-2.866-9.176-2.889-21.367-4.526-36.573-4.912a177.53 177.53 0 0 0-38.833 2.907c3.736 2.085 7.049 4.851 9.769 8.154l5.544-.888c5.96-.929 5.49-2.436-.875-3.23zm-27.845 3.86c-3.256-15.273-17.21-26.912-34.406-26.912-6.272-.108-12.452 1.512-17.863 4.683a34.16 34.16 0 0 0-12.817 13.294c-14.411 1.803-25.108 13.039-25.108 26.912 0 14.801 12.554 26.912 27.894 26.912h60.43c13.025 0 23.252-9.891 23.252-22.485 0-11.613-9.769-21.503-21.382-22.404zm-25.108 13.456v17.99h-18.596v-17.963h-13.954l23.252-22.472 23.238 22.472-13.94-.027z"/></g><path d="M315.768 581.337v-91.548h21.146v39.456l33.525-39.456h23.725l-34.298 40.874 36.619 50.674h-24.241l-25.788-36.748-9.542 9.799v26.949h-21.146zm81.763-24.37v-43.324h20.63v38.811c0 4.126.817 7.307 2.45 9.542 1.633 2.149 3.954 3.223 6.963 3.223 1.891 0 3.696-.301 5.416-.902 1.719-.688 3.395-1.762 5.028-3.224s3.095-3.352 4.384-5.673v-41.777h20.631v44.742c0 2.063.301 3.525.902 4.384.688.774 1.849 1.247 3.482 1.419v17.149l-5.029.774c-1.375.171-2.622.257-3.739.257-3.611 0-6.49-.73-8.639-2.192-2.149-1.547-3.482-3.696-3.997-6.447l-.387-4.126c-3.095 4.47-6.963 7.78-11.605 9.929-4.556 2.063-9.671 3.094-15.344 3.094-6.877 0-12.12-2.192-15.731-6.576s-5.415-10.745-5.415-19.083zm120.811 25.659c-5.157 0-9.67-1.074-13.538-3.223-3.869-2.235-6.92-5.33-9.155-9.284v11.218h-17.923V487.21h20.631v37.522c2.235-3.954 5.2-7.006 8.897-9.155 3.782-2.149 8.209-3.224 13.28-3.224 4.298 0 8.21.946 11.734 2.837 3.61 1.805 6.705 4.341 9.284 7.608 2.665 3.18 4.728 6.92 6.189 11.218 1.461 4.212 2.192 8.811 2.192 13.796 0 4.9-.817 9.456-2.45 13.668-1.547 4.212-3.739 7.908-6.576 11.089a30.8 30.8 0 0 1-10.057 7.479c-3.783 1.719-7.952 2.578-12.508 2.578zm-5.802-17.407c2.321 0 4.47-.43 6.447-1.289 2.063-.946 3.825-2.192 5.287-3.739s2.579-3.353 3.352-5.416c.774-2.149 1.161-4.47 1.161-6.963 0-3.18-.645-6.146-1.934-8.897s-3.095-4.942-5.416-6.576c-2.235-1.633-4.857-2.45-7.865-2.45-2.149 0-4.212.516-6.19 1.548s-3.739 2.45-5.286 4.255c-1.547 1.719-2.794 3.696-3.739 5.931v14.184c.687 1.461 1.547 2.793 2.578 3.997 1.032 1.117 2.149 2.063 3.353 2.836 1.289.774 2.622 1.419 3.997 1.935 1.461.429 2.88.644 4.255.644zm78.738 17.407c-5.76 0-10.874-.902-15.344-2.707-4.47-1.892-8.295-4.427-11.476-7.608-3.095-3.181-5.458-6.834-7.092-10.96a36.07 36.07 0 0 1-2.45-13.152c0-6.533 1.419-12.464 4.255-17.794 2.923-5.415 7.092-9.756 12.508-13.023 5.415-3.352 11.948-5.029 19.599-5.029s14.14 1.634 19.47 4.9c5.415 3.267 9.541 7.565 12.378 12.894 2.837 5.244 4.255 10.96 4.255 17.149 0 1.204-.086 2.407-.258 3.611l-.258 2.965h-50.029c.258 3.009 1.075 5.545 2.45 7.608a14.84 14.84 0 0 0 5.545 4.771 16.73 16.73 0 0 0 7.091 1.547c3.095 0 5.975-.731 8.64-2.192 2.75-1.461 4.641-3.438 5.673-5.931l17.536 4.9c-1.719 3.524-4.169 6.662-7.35 9.412-3.094 2.665-6.791 4.771-11.089 6.318-4.212 1.548-8.897 2.321-14.054 2.321zm-14.957-41.39h29.398c-.344-2.836-1.16-5.286-2.45-7.349-1.289-2.149-3.008-3.783-5.157-4.9-2.149-1.204-4.513-1.805-7.092-1.805-2.665 0-5.072.601-7.221 1.805-2.063 1.117-3.739 2.751-5.029 4.9-1.289 2.063-2.106 4.513-2.449 7.349zm116.113-27.464c-.602-.602-1.719-1.419-3.352-2.45-1.548-1.032-3.482-2.02-5.803-2.966-2.235-.945-4.685-1.762-7.349-2.45a29.02 29.02 0 0 0-8.124-1.16c-4.814 0-8.467.903-10.96 2.708-2.407 1.805-3.61 4.341-3.61 7.607 0 2.493.774 4.47 2.321 5.931s3.868 2.708 6.963 3.74 6.963 2.149 11.604 3.352c6.018 1.462 11.218 3.267 15.602 5.416 4.47 2.063 7.866 4.814 10.187 8.252 2.406 3.352 3.61 7.822 3.61 13.41 0 4.9-.903 9.112-2.708 12.636-1.805 3.439-4.298 6.232-7.478 8.381s-6.791 3.74-10.831 4.771c-4.041.946-8.339 1.418-12.895 1.418s-9.111-.472-13.667-1.418-8.94-2.278-13.152-3.997c-4.212-1.805-8.081-3.954-11.605-6.447l7.865-15.344c.774.774 2.149 1.805 4.127 3.094 1.977 1.204 4.384 2.45 7.22 3.74 2.837 1.203 5.932 2.235 9.284 3.094s6.748 1.29 10.186 1.29c4.814 0 8.467-.817 10.96-2.45s3.74-3.954 3.74-6.963c0-2.751-.989-4.9-2.966-6.447s-4.728-2.88-8.252-3.997c-3.525-1.204-7.694-2.493-12.508-3.868-5.759-1.634-10.573-3.439-14.441-5.416-3.868-2.063-6.748-4.642-8.639-7.736s-2.837-6.963-2.837-11.605c0-6.275 1.462-11.519 4.384-15.731 3.009-4.298 7.049-7.521 12.121-9.67 5.071-2.235 10.702-3.353 16.891-3.353 4.298 0 8.338.473 12.12 1.418 3.869.946 7.479 2.192 10.832 3.74s6.361 3.223 9.025 5.028l-7.865 14.442zm64.636 63.955c-1.891.773-3.997 1.547-6.318 2.321-2.235.773-4.599 1.375-7.092 1.805a36.27 36.27 0 0 1-7.35.773c-3.438 0-6.619-.558-9.541-1.676-2.837-1.203-5.115-3.137-6.834-5.802-1.634-2.665-2.45-6.189-2.45-10.573v-35.33h-8.639v-15.602h8.639V492.11h20.63v21.533h13.797v15.602h-13.797v28.238c0 2.235.559 3.868 1.677 4.9 1.117.945 2.535 1.418 4.255 1.418 1.461 0 3.008-.258 4.642-.774 1.719-.515 3.18-1.074 4.384-1.676l3.997 16.376zm2.494-16.634c0-4.47 1.246-8.381 3.739-11.733s5.932-5.975 10.316-7.866c4.384-1.977 9.412-2.966 15.086-2.966 2.75 0 5.458.258 8.123.774 2.665.43 4.986 1.075 6.963 1.934v-2.965c0-3.697-1.118-6.533-3.353-8.511s-5.63-2.965-10.186-2.965c-3.782 0-7.35.645-10.702 1.934-3.267 1.289-6.748 3.138-10.444 5.544l-6.19-13.152c4.47-2.922 9.112-5.114 13.926-6.576 4.9-1.461 10.057-2.192 15.473-2.192 10.143 0 18.009 2.45 23.596 7.35 5.674 4.814 8.51 11.82 8.51 21.017v17.665c0 2.063.301 3.525.903 4.384.688.774 1.848 1.247 3.481 1.419v17.149c-1.719.344-3.352.602-4.899.774-1.462.171-2.751.257-3.869.257-3.868 0-6.834-.773-8.897-2.32-1.977-1.548-3.223-3.654-3.739-6.319l-.387-2.965c-3.008 3.868-6.619 6.834-10.831 8.897a29.77 29.77 0 0 1-13.023 2.965c-4.47 0-8.51-.945-12.12-2.836-3.525-1.892-6.318-4.47-8.381-7.737s-3.095-6.92-3.095-10.96zm41.003 2.579c.946-.774 1.719-1.633 2.321-2.579s.903-1.848.903-2.708v-6.06c-1.719-.688-3.654-1.203-5.803-1.547-2.063-.43-3.997-.645-5.802-.645-3.782 0-6.92.86-9.413 2.579-2.493 1.633-3.739 3.825-3.739 6.576 0 1.547.43 2.966 1.289 4.255s2.021 2.321 3.482 3.095c1.547.773 3.352 1.16 5.415 1.16s4.127-.387 6.19-1.16 3.782-1.763 5.157-2.966zm63.431 18.954c-5.759 0-11.39-.945-16.891-2.836s-10.143-4.685-13.926-8.382l7.092-13.023c4.126 3.009 8.123 5.287 11.992 6.834 3.954 1.548 7.65 2.321 11.088 2.321 2.665 0 4.728-.43 6.19-1.289s2.192-2.192 2.192-3.997c0-1.29-.43-2.278-1.29-2.966-.859-.774-2.192-1.461-3.997-2.063-1.719-.602-3.868-1.246-6.447-1.934-5.158-1.719-9.456-3.396-12.894-5.029s-6.017-3.61-7.737-5.931c-1.719-2.407-2.578-5.502-2.578-9.284 0-4.556 1.117-8.51 3.352-11.863 2.321-3.438 5.588-6.103 9.8-7.994s9.24-2.837 15.086-2.837c4.642 0 9.155.731 13.539 2.192 4.469 1.462 8.639 3.912 12.507 7.35l-7.995 12.894c-3.868-2.665-7.306-4.599-10.315-5.802s-5.931-1.805-8.768-1.805c-1.461 0-2.794.172-3.997.515s-2.192.946-2.966 1.806c-.687.773-1.031 1.805-1.031 3.094s.344 2.321 1.031 3.095c.774.773 1.934 1.461 3.482 2.063l6.06 1.934c5.587 1.633 10.229 3.309 13.926 5.029 3.696 1.633 6.447 3.696 8.252 6.189 1.891 2.407 2.837 5.63 2.837 9.67 0 6.877-2.493 12.293-7.479 16.247-4.9 3.868-11.605 5.802-20.115 5.802zm102.131-1.289h-20.631v-38.038c0-4.384-.903-7.607-2.708-9.67-1.719-2.063-4.04-3.095-6.963-3.095-1.547 0-3.309.516-5.286 1.547-1.891.946-3.654 2.321-5.287 4.127s-2.879 3.911-3.739 6.318v38.811h-20.631V487.21h20.631v37.78c2.493-4.04 5.759-7.135 9.799-9.284 4.127-2.235 8.64-3.353 13.539-3.353 4.642 0 8.338.774 11.089 2.321 2.837 1.548 4.986 3.611 6.447 6.19 1.462 2.492 2.45 5.243 2.966 8.252s.774 5.974.774 8.897v43.324z" fill="#431bb1"/></svg>