<svg width="64" height="64" viewBox="0 0 64 64" fill="none" xmlns="http://www.w3.org/2000/svg">
<g clip-path="url(#clip0)">
<path d="M30.1796 1.30541L13.7939 9.19652C13.3767 9.39723 13.0102 9.68944 12.7216 10.0514C12.433 10.4134 12.2297 10.8358 12.127 11.2872L8.07918 29.0183C7.97445 29.4708 7.9736 29.9412 8.07669 30.3941C8.17978 30.847 8.38413 31.2706 8.6744 31.6333L20.0197 45.8458C20.3092 46.2063 20.6759 46.4972 21.0929 46.697C21.5098 46.8968 21.9663 47.0003 22.4286 47H40.6098C41.0722 47.0007 41.5288 46.8973 41.9458 46.6975C42.3628 46.4977 42.7295 46.2066 43.0187 45.8458L54.3591 31.6333C54.6481 31.2716 54.8518 30.8493 54.9549 30.398C55.0579 29.9466 55.0577 29.4778 54.9543 29.0265L50.9065 11.2872C50.8038 10.8358 50.6005 10.4134 50.3119 10.0514C50.0233 9.68944 49.6568 9.39723 49.2396 9.19652L32.8539 1.30541C32.4368 1.10439 31.9798 1 31.5167 1C31.0537 1 30.5967 1.10439 30.1796 1.30541V1.30541Z" fill="#431BB1"/>
<path d="M17.3551 25.3513L17.37 23.7619C17.3523 23.5594 17.3935 23.3562 17.4887 23.1766C17.7541 22.7759 18.1911 23.0117 18.5093 23.1766C18.9714 23.4154 19.4477 23.6257 19.9355 23.8064C20.9084 24.1579 21.9088 24.4281 22.9264 24.6143C23.3353 24.6935 23.7508 24.7627 24.1564 24.827C27.1239 25.2805 30.1317 25.4121 33.1275 25.2194C35.0012 25.1218 36.8636 24.8687 38.6954 24.4627C40.0392 24.1543 41.3533 23.7537 42.5586 23.0562C43.0532 22.7743 43.4786 23.0299 43.4852 23.6053C43.4962 24.6011 43.4962 25.5976 43.4852 26.5945C43.4852 27.1337 43.0763 27.3827 42.5932 27.1617C41.0993 26.4734 39.4249 26.2789 37.813 26.6065C36.201 26.9341 34.7354 27.7667 33.6287 28.9836C33.171 29.4869 32.7828 30.0492 32.4746 30.6555C32.3882 30.864 32.2351 31.038 32.0393 31.1501C31.8703 31.215 31.6888 31.241 31.5084 31.226C29.3148 31.2437 27.1224 31.1143 24.9462 30.8385C24.689 30.8039 24.4301 30.7676 24.1712 30.7264C22.4252 30.4593 20.6692 30.0669 19.1144 29.2425C18.653 29.015 18.2377 28.7042 17.8893 28.3258C17.3535 27.7009 17.3403 26.9738 17.3469 26.1922L17.3551 25.3513Z" fill="white"/>
<path d="M29.5021 38.3654C27.3191 38.2599 25.1492 38.1131 23.0058 37.6399C21.5054 37.3102 19.8237 36.9425 18.5541 36.0257C17.9111 35.5608 17.3472 34.9095 17.3571 34.0719C17.3703 32.959 17.3571 31.8461 17.3571 30.7315C17.3571 30.1775 17.7973 29.9071 18.2771 30.1725C19.8814 31.0711 21.6307 31.5031 23.418 31.8296C25.8994 32.2797 28.4023 32.4198 30.9167 32.433C31.1855 32.433 31.5004 32.4759 31.6125 32.7545C31.7527 33.1008 31.6026 33.5789 31.5878 33.9367C31.5499 34.9624 31.721 35.985 32.0907 36.9425C32.2061 37.236 32.3462 37.5641 32.3198 37.8856C32.2869 38.2813 31.9357 38.3934 31.5927 38.4017C30.9019 38.4198 30.2028 38.3934 29.5021 38.3654Z" fill="white"/>
<path d="M34.8191 34.5237C34.8191 31.7207 37.1373 29.4404 39.9963 29.4338C42.8306 29.4338 45.1685 31.7224 45.1685 34.5105C45.1461 35.867 44.592 37.1604 43.6254 38.1124C42.6587 39.0644 41.357 39.5987 40.0003 39.6005C38.6436 39.6022 37.3405 39.0712 36.3715 38.1216C35.4024 37.1721 34.845 35.8801 34.8191 34.5237V34.5237ZM39.9963 30.6605C39.2332 30.6722 38.4905 30.9092 37.8617 31.3418C37.2329 31.7743 36.7459 32.383 36.4621 33.0914C36.1782 33.7999 36.11 34.5764 36.2662 35.3235C36.4223 36.0706 36.7958 36.7548 37.3397 37.2902C37.8835 37.8257 38.5735 38.1884 39.323 38.3328C40.0724 38.4773 40.8478 38.397 41.5517 38.1021C42.2556 37.8071 42.8566 37.3107 43.2793 36.6752C43.7019 36.0397 43.9272 35.2935 43.927 34.5303C43.9161 33.4967 43.4966 32.5095 42.76 31.7844C42.0235 31.0593 41.0299 30.6553 39.9963 30.6605V30.6605Z" fill="white"/>
<path d="M39.4756 29.0974L39.6636 28.9605L39.525 28.8402C39.6099 28.7854 39.6728 28.7026 39.7029 28.6062C39.733 28.5098 39.7284 28.4059 39.6899 28.3126C39.6454 28.1592 39.5844 28.0108 39.5333 27.8591C39.4915 27.7613 39.4801 27.6531 39.5007 27.5487C39.5213 27.4443 39.5728 27.3485 39.6487 27.2738C39.7314 27.207 39.832 27.166 39.9379 27.1561C40.0437 27.1461 40.1502 27.1676 40.2439 27.2178C40.4731 27.3348 40.5473 27.6102 40.4302 27.9086C40.3791 28.0405 40.328 28.1741 40.2901 28.3109C40.2504 28.4046 40.2451 28.5094 40.2753 28.6066C40.3055 28.7038 40.3691 28.7871 40.455 28.8418L40.3165 28.9523L40.5358 29.1304H39.4756V29.0974Z" fill="white"/>
<path d="M39.5232 40.2202L39.6617 40.1081L39.4441 39.9316H40.5471L40.3295 40.0965L40.463 40.2152C40.3777 40.2696 40.3144 40.3524 40.2842 40.4489C40.254 40.5455 40.259 40.6496 40.2982 40.7428C40.3394 40.8912 40.3987 41.0347 40.4499 41.1781C40.5071 41.2751 40.5296 41.3887 40.5136 41.5001C40.4976 41.6116 40.444 41.7143 40.3618 41.7912C40.2795 41.8681 40.1734 41.9146 40.0611 41.923C39.9488 41.9315 39.837 41.9014 39.7442 41.8376C39.5133 41.7206 39.4408 41.4436 39.5579 41.1468C39.609 41.0149 39.6601 40.8813 39.6997 40.7445C39.7366 40.6503 39.7391 40.5461 39.7069 40.4502C39.6746 40.3543 39.6096 40.2729 39.5232 40.2202V40.2202Z" fill="white"/>
<path d="M35.6337 38.2169L35.8084 38.2433L35.7985 38.0636L36.4581 38.7643L36.5075 38.7231L36.2915 38.7066L36.3014 38.8633C36.3014 38.8633 36.2849 38.8798 36.2783 38.8781C36.1874 38.8601 36.093 38.873 36.0102 38.9149C35.9275 38.9567 35.8611 39.025 35.8216 39.1089C35.7472 39.2435 35.6806 39.3822 35.6221 39.5244C35.5051 39.7816 35.3006 39.9218 35.0813 39.8905C34.964 39.8749 34.8552 39.8206 34.7724 39.736C34.6896 39.6514 34.6376 39.5415 34.6246 39.4239C34.5982 39.2095 34.7466 39.0051 35.0055 38.8913C35.1373 38.8379 35.2661 38.7773 35.3913 38.7099C35.4824 38.6684 35.5563 38.5966 35.6005 38.5067C35.6447 38.4168 35.6564 38.3145 35.6337 38.2169V38.2169Z" fill="white"/>
<path d="M43.6848 38.888L43.7013 38.7066L43.5364 38.7248L44.1844 38.0142V38.2285L44.3492 38.2186C44.3492 38.2285 44.3641 38.2384 44.3624 38.2466C44.3433 38.3343 44.3544 38.4258 44.3939 38.5063C44.4334 38.5869 44.499 38.6516 44.5801 38.6902C44.7188 38.7692 44.8626 38.8391 45.0104 38.8996C45.1203 38.9364 45.2144 39.0096 45.2771 39.1071C45.3398 39.2046 45.3674 39.3206 45.3553 39.4359C45.3432 39.5512 45.2921 39.6589 45.2105 39.7412C45.1289 39.8236 45.0217 39.8757 44.9065 39.8888C44.7886 39.8919 44.673 39.8565 44.5769 39.7881C44.4809 39.7197 44.4097 39.622 44.374 39.5096C44.3212 39.3775 44.2607 39.2487 44.1926 39.1238C44.15 39.0304 44.0754 38.9553 43.9823 38.912C43.8891 38.8688 43.7836 38.8603 43.6848 38.888Z" fill="white"/>
<path d="M43.4854 30.3274L43.6915 30.3521V30.1757C43.9602 30.2285 44.1086 30.0718 44.2207 29.8641C44.3048 29.7091 44.3625 29.5343 44.4565 29.3892C44.5067 29.2975 44.5875 29.2264 44.6849 29.1881C44.7822 29.1498 44.8898 29.1469 44.989 29.1798C45.0936 29.2119 45.186 29.2749 45.254 29.3606C45.322 29.4463 45.3624 29.5505 45.3699 29.6596C45.3638 29.7707 45.3244 29.8773 45.2567 29.9655C45.1891 30.0538 45.0964 30.1196 44.9907 30.1543C44.8852 30.2004 44.778 30.24 44.6774 30.2928C44.4614 30.4049 44.2999 30.5566 44.3477 30.8336L44.1712 30.8187L44.1894 30.9836L43.5299 30.273L43.4854 30.3274Z" fill="white"/>
<path d="M36.3033 30.1757L36.2901 30.3406L36.4995 30.3191L36.4699 30.2911L35.8005 31.0314L35.8136 30.8253H35.6389C35.6916 30.5648 35.5432 30.4148 35.3421 30.3043C35.1772 30.2169 35.0123 30.1576 34.8475 30.0603C34.758 30.0119 34.688 29.9341 34.6493 29.8401C34.6106 29.7461 34.6054 29.6416 34.6348 29.5442C34.6637 29.4388 34.7239 29.3447 34.8076 29.2743C34.8912 29.2039 34.9942 29.1606 35.103 29.1501C35.3157 29.1304 35.5152 29.2837 35.6273 29.5442C35.6825 29.6817 35.7475 29.8151 35.8219 29.9432C35.8642 30.0306 35.9347 30.1011 36.0221 30.1433C36.1095 30.1855 36.2086 30.1969 36.3033 30.1757V30.1757Z" fill="white"/>
<path d="M45.6748 35.0182C45.627 34.8979 45.5742 34.8237 45.467 34.9688V34.1164L45.5825 34.1889L45.683 34.0619C45.8232 34.2746 46.0243 34.2895 46.2436 34.2268C46.3904 34.184 46.5322 34.1213 46.6773 34.0735C46.7754 34.032 46.884 34.0221 46.988 34.0451C47.092 34.0682 47.1862 34.123 47.2576 34.2021C47.3253 34.285 47.3658 34.3868 47.3738 34.4935C47.3817 34.6003 47.3567 34.7069 47.3021 34.799C47.1834 35.0182 46.9114 35.0875 46.6228 34.977C46.4798 34.9196 46.334 34.8696 46.1859 34.827C46.0918 34.7939 45.9891 34.7949 45.8956 34.8298C45.8022 34.8648 45.724 34.9315 45.6748 35.0182V35.0182Z" fill="white"/>
<path d="M34.313 34.0471C34.369 34.1559 34.4119 34.2598 34.5224 34.0883V34.944L34.407 34.8731L34.3064 35.0017C34.252 34.916 34.1689 34.8524 34.072 34.8222C33.9751 34.792 33.8706 34.7972 33.7771 34.8368C33.6238 34.8797 33.477 34.9407 33.3254 34.9918C33.2277 35.0334 33.1198 35.0449 33.0156 35.025C32.9114 35.005 32.8154 34.9544 32.74 34.8797C32.6729 34.7972 32.6317 34.6967 32.6214 34.5908C32.6112 34.4849 32.6323 34.3784 32.6823 34.2845C32.801 34.052 33.0714 33.9795 33.3699 34.0949C33.5074 34.1506 33.6477 34.199 33.7903 34.24C33.8862 34.275 33.9913 34.2749 34.0871 34.2395C34.1828 34.2042 34.2629 34.136 34.313 34.0471V34.0471Z" fill="white"/>
<path d="M38.4863 34.1807C38.553 34.1397 38.607 34.081 38.6422 34.0111C38.6774 33.9412 38.6925 33.8629 38.6858 33.785C38.6858 33.747 38.6479 33.686 38.6182 33.6794C38.5191 33.6598 38.4255 33.6182 38.3445 33.5577C38.2635 33.4972 38.197 33.4194 38.15 33.3299C38.0873 33.2145 38.0197 33.1007 37.962 32.9836C37.8235 32.7001 37.8252 32.7001 37.5086 32.7759V32.4577H37.1409C37.1607 32.3917 37.1624 32.3241 37.1953 32.2928C37.3883 32.0966 37.5878 31.9086 37.7873 31.7223C37.8153 31.6959 37.8697 31.6992 37.9109 31.6877C37.9186 31.7296 37.923 31.7721 37.9241 31.8147C37.9241 31.8855 37.9241 31.9564 37.9159 32.0372H38.2456C38.1797 32.3555 38.1813 32.3522 38.4715 32.4972C38.6135 32.5575 38.7475 32.635 38.8705 32.7281C38.9797 32.8364 39.076 32.957 39.1574 33.0875C39.1821 33.1221 39.1871 33.2095 39.2003 33.2095C39.2947 33.218 39.3898 33.2056 39.4789 33.1733C39.6438 33.0908 39.6801 33.0084 39.5828 32.8287C39.5453 32.7553 39.5233 32.6749 39.5182 32.5927C39.5131 32.5104 39.525 32.428 39.5531 32.3505C39.5868 32.1996 39.6315 32.0514 39.6867 31.907C39.7543 31.7421 39.7229 31.6316 39.5465 31.5772C39.5179 31.5623 39.4909 31.5446 39.4657 31.5245L39.7229 31.2854L39.4212 31.043C39.8012 30.9609 40.1938 30.957 40.5754 31.0315L40.2967 31.2936L40.5457 31.5278L40.4006 31.6069C40.377 31.6139 40.3553 31.6262 40.3371 31.6427C40.3189 31.6592 40.3045 31.6796 40.2952 31.7024C40.2859 31.7251 40.2818 31.7497 40.2832 31.7743C40.2846 31.7988 40.2915 31.8228 40.3033 31.8443C40.3577 31.9944 40.394 32.1527 40.4468 32.3027C40.5084 32.5019 40.4991 32.7163 40.4204 32.9094C40.4055 32.9573 40.361 33.0315 40.3759 33.0446C40.4378 33.1173 40.5165 33.1739 40.605 33.2095C40.7881 33.2606 40.8375 33.2442 40.9018 33.0446C40.9611 32.8843 41.0789 32.7523 41.2316 32.6753C41.3289 32.616 41.4311 32.5616 41.5333 32.5104C41.8251 32.3653 41.8268 32.367 41.7592 32.0504H42.0725C42.0725 31.9746 42.0725 31.8938 42.0725 31.813C42.0755 31.7759 42.081 31.739 42.089 31.7025C42.1252 31.7025 42.1747 31.7025 42.1978 31.7256C42.4099 31.9235 42.6188 32.1252 42.8243 32.3307C42.8507 32.3588 42.8425 32.4198 42.8523 32.4758L42.4929 32.4577L42.511 32.7644C42.4781 32.7775 42.4665 32.7891 42.4583 32.7858C42.178 32.7132 42.1796 32.7149 42.0477 32.982C41.9929 33.1138 41.922 33.2384 41.8367 33.353C41.7196 33.4776 41.591 33.5907 41.4525 33.691C41.4146 33.7223 41.3157 33.7305 41.3173 33.7454C41.3185 33.8448 41.3357 33.9433 41.3684 34.0372C41.436 34.2021 41.5778 34.2021 41.6982 34.1213C41.7681 34.0833 41.8453 34.0607 41.9246 34.055C42.004 34.0493 42.0836 34.0607 42.1582 34.0883C42.2983 34.1213 42.4352 34.1625 42.5704 34.207C42.8457 34.2928 42.8457 34.2944 43.0453 33.9713L43.2101 34.2681L43.4476 34.0108C43.5778 34.0108 43.5712 34.1114 43.5745 34.2037C43.6075 34.9325 43.5976 35.0067 43.4525 35.0776L43.2233 34.8369L42.9974 35.0826C42.9744 35.0481 42.9535 35.0123 42.9348 34.9754C42.9271 34.9448 42.9123 34.9164 42.8916 34.8926C42.8709 34.8688 42.8448 34.8503 42.8155 34.8385C42.7862 34.8268 42.7545 34.8222 42.7231 34.825C42.6917 34.8279 42.6614 34.8382 42.6347 34.855C42.5077 34.9061 42.3725 34.9391 42.2423 34.9803C42.1213 35.027 41.9905 35.0423 41.8619 35.0251C41.7334 35.0078 41.6113 34.9584 41.5069 34.8814C41.4773 34.9177 41.4525 34.949 41.4261 34.977C41.2332 35.1864 41.2448 35.3595 41.4937 35.4453C41.6493 35.5028 41.7768 35.6179 41.8499 35.7668C41.9191 35.8773 41.9801 35.9943 42.0395 36.113C42.1697 36.3785 42.1681 36.3802 42.4748 36.2928V36.6225C42.5622 36.6225 42.6397 36.6077 42.7237 36.6077C42.7584 36.6077 42.8111 36.6077 42.8243 36.6374C42.8318 36.6546 42.8348 36.6735 42.8331 36.6922C42.8313 36.7109 42.8249 36.7289 42.8144 36.7445C42.605 36.9539 42.394 37.1633 42.173 37.3612C42.1038 37.4238 42.0444 37.3925 42.0543 37.287C42.0642 37.1815 42.0675 37.1221 42.0758 37.0314H41.7328C41.751 36.9737 41.7592 36.9358 41.774 36.9012C41.7869 36.877 41.7942 36.8503 41.7955 36.8229C41.7968 36.7956 41.7919 36.7683 41.7814 36.7431C41.7708 36.7178 41.7547 36.6952 41.7344 36.677C41.714 36.6587 41.6898 36.6452 41.6636 36.6374C41.4888 36.5516 41.319 36.4576 41.1491 36.3637C41.0688 36.3182 40.9996 36.2554 40.9465 36.1798C40.8935 36.1042 40.8579 36.0178 40.8425 35.9267C40.8227 35.8377 40.61 35.8179 40.4979 35.8987C40.4402 35.9416 40.389 35.9943 40.3198 36.0553C40.544 36.3307 40.4847 36.6275 40.3825 36.9275C40.366 36.9754 40.3511 37.0248 40.3363 37.0743C40.2423 37.3727 40.2423 37.3727 40.5226 37.5458L40.2802 37.775L40.5506 38.0306C40.1776 38.1081 39.7926 38.1081 39.4196 38.0306L39.6933 37.7701L39.4443 37.531C39.5086 37.498 39.5416 37.4782 39.5762 37.4634C39.6027 37.4563 39.6271 37.4431 39.6477 37.425C39.6682 37.4069 39.6843 37.3842 39.6947 37.3589C39.705 37.3335 39.7094 37.3061 39.7075 37.2787C39.7055 37.2514 39.6973 37.2249 39.6834 37.2012C39.6339 37.0726 39.6009 36.9391 39.5581 36.8088C39.508 36.6842 39.49 36.549 39.5059 36.4156C39.5217 36.2822 39.5708 36.1549 39.6487 36.0454C39.6003 35.9901 39.5449 35.9414 39.4839 35.9004C39.4116 35.8751 39.3371 35.8569 39.2613 35.8459C39.1261 35.8113 39.1607 35.9135 39.136 35.9844C39.0621 36.1742 38.918 36.3283 38.7337 36.4148C38.6281 36.4708 38.5226 36.5302 38.4154 36.5797C38.1566 36.7083 38.1549 36.7083 38.2506 37.01H37.9208C37.9208 37.1007 37.9208 37.1864 37.9373 37.2721C37.9538 37.3579 37.8895 37.409 37.8219 37.348C37.6009 37.1501 37.3883 36.9424 37.1789 36.7313C37.1541 36.705 37.164 36.644 37.1574 36.5978H37.4971L37.4839 36.2961C37.5202 36.2862 37.5317 36.2779 37.5416 36.2812C37.812 36.3587 37.8087 36.3571 37.9324 36.1163C38.0019 35.9595 38.0875 35.8103 38.1879 35.6712C38.2951 35.56 38.4152 35.462 38.5457 35.3793C38.5853 35.3513 38.6776 35.3365 38.6776 35.3216C38.6728 35.2226 38.6533 35.1248 38.6199 35.0314C38.5968 34.9721 38.5342 34.9292 38.4765 34.8666C38.1335 35.1419 37.7807 34.9836 37.4311 34.8666C37.1442 34.7759 37.1442 34.7742 36.9744 35.0908L36.7452 34.8105L36.4913 35.076C36.4551 35.0197 36.4283 34.9579 36.4122 34.8929C36.3611 34.3142 36.3924 34.0685 36.5243 33.9861L36.7535 34.2351L36.9876 33.9828C37.0206 34.0438 37.042 34.0768 37.0568 34.1114C37.0642 34.1378 37.0773 34.1622 37.0954 34.1827C37.1135 34.2033 37.136 34.2195 37.1612 34.2301C37.1864 34.2407 37.2137 34.2455 37.241 34.2441C37.2684 34.2427 37.295 34.2351 37.319 34.2219C37.446 34.1724 37.5795 34.1361 37.7114 34.0982C38.1417 33.9746 38.2011 34.0636 38.4863 34.1807ZM39.9867 33.4222C39.6983 33.4291 39.4238 33.5478 39.2214 33.7533C39.0189 33.9589 38.9043 34.2351 38.9018 34.5236C38.9005 34.6681 38.9278 34.8114 38.9822 34.9452C39.0365 35.0791 39.1168 35.2009 39.2184 35.3036C39.32 35.4063 39.441 35.4878 39.5742 35.5436C39.7075 35.5993 39.8505 35.6281 39.995 35.6283C40.2836 35.6285 40.561 35.5167 40.7689 35.3166C40.9768 35.1164 41.0989 34.8433 41.1096 34.5549C41.1041 34.2571 40.9837 33.9729 40.7735 33.7618C40.5633 33.5506 40.2796 33.429 39.9818 33.4222H39.9867Z" fill="white"/>
<path d="M40.0063 33.7767C40.2021 33.7877 40.3861 33.8737 40.52 34.0169C40.6539 34.1601 40.7275 34.3495 40.7253 34.5455C40.7232 34.7416 40.6456 34.9292 40.5086 35.0695C40.3716 35.2098 40.1858 35.2918 39.9899 35.2985C39.887 35.3021 39.7845 35.2847 39.6885 35.2476C39.5925 35.2104 39.505 35.1541 39.4314 35.0822C39.3578 35.0103 39.2995 34.9242 39.26 34.8291C39.2206 34.734 39.2008 34.6319 39.2019 34.529C39.2031 34.4261 39.225 34.3244 39.2665 34.2302C39.308 34.136 39.3682 34.0512 39.4433 33.9809C39.5185 33.9106 39.6072 33.8563 39.7039 33.8212C39.8007 33.7861 39.9036 33.7709 40.0063 33.7767V33.7767ZM40.4185 34.5401C40.4192 34.4563 40.395 34.3742 40.349 34.3041C40.3029 34.2341 40.2372 34.1793 40.16 34.1466C40.0828 34.1139 39.9977 34.1049 39.9154 34.1206C39.8331 34.1363 39.7572 34.1761 39.6975 34.2349C39.6378 34.2937 39.5969 34.3688 39.5799 34.4509C39.5629 34.533 39.5706 34.6182 39.6021 34.6959C39.6335 34.7736 39.6873 34.8402 39.7567 34.8873C39.826 34.9344 39.9077 34.9599 39.9915 34.9605C40.0483 34.9626 40.1049 34.953 40.1578 34.9321C40.2106 34.9113 40.2586 34.8798 40.2987 34.8395C40.3388 34.7993 40.3702 34.7512 40.3908 34.6982C40.4114 34.6453 40.4209 34.5886 40.4185 34.5319V34.5401Z" fill="white"/>
<path d="M43.492 18.6836C43.492 17.7521 43.492 16.8205 43.492 15.889C43.5048 15.6863 43.4717 15.4833 43.3952 15.2952C43.3187 15.1071 43.2008 14.9386 43.0502 14.8024C42.6526 14.4562 42.2154 14.1584 41.7476 13.9153C40.4088 13.2756 38.9645 12.9937 37.5086 12.7612C35.4774 12.4414 33.4261 12.2668 31.3701 12.2385C30.1105 12.2171 28.8491 12.2781 27.5895 12.3342C26.4864 12.382 25.3883 12.4694 24.2919 12.6128C24.4848 12.9868 24.639 13.3796 24.7519 13.7851C26.4069 13.5215 28.0801 13.3898 29.756 13.391C32.3066 13.391 34.1912 13.4768 36.0576 13.7785C37.4591 14.0044 38.8491 14.2913 40.145 14.9046C40.3944 15.0215 40.63 15.1658 40.8474 15.335C41.2365 15.64 41.2513 15.9664 40.8309 16.2319C40.3448 16.5486 39.8243 16.8091 39.2794 17.0085C37.5696 17.6053 35.7905 17.8642 33.9917 18.0291C32.1824 18.1857 30.3648 18.2221 28.5507 18.1379C28.5507 18.161 28.5507 18.1824 28.5507 18.2038C28.5562 18.7341 28.456 19.2601 28.2558 19.7511C28.0557 20.2422 27.7597 20.6884 27.3851 21.0637C27.0106 21.4391 26.565 21.736 26.0743 21.9371C25.5837 22.1382 25.0579 22.2396 24.5277 22.2351H19.3735C19.489 22.2945 19.606 22.3522 19.7247 22.4C20.5681 22.7816 21.4496 23.0724 22.3545 23.2673C24.4831 23.7454 26.7107 23.9449 28.8887 24.0274C29.3833 24.0472 29.878 24.0576 30.3726 24.0587C32.1219 24.0627 33.8697 23.9575 35.6059 23.7438C37.69 23.4866 39.8548 23.1139 41.7311 22.1214C42.2653 21.8378 42.7814 21.4849 43.1161 20.9821C43.5976 20.2764 43.4904 19.4883 43.492 18.6836Z" fill="white"/>
<path d="M35.5992 16.6985C36.4566 16.438 36.8902 16.1363 36.8952 15.8049C36.8952 15.6218 36.1581 15.5114 35.5382 15.6037C34.5901 15.7438 33.6586 15.8906 32.7534 16.0439C32.1483 16.1478 32.2423 16.3292 32.8952 16.4166L33.7196 16.5221C33.6157 16.5518 33.5547 16.5748 33.4789 16.5913C32.0289 16.8528 30.5502 16.9165 29.0832 16.7809C28.7864 16.7562 28.5127 16.7232 28.2588 16.687C28.3283 16.8525 28.3861 17.0228 28.4319 17.1964C30.9018 17.4108 33.807 17.2459 35.5992 16.6985Z" fill="white"/>
<path d="M28.1993 15.1454L27.3321 15.0333C27.5349 15.0052 27.6288 14.997 27.7014 14.9822C29.708 14.5815 32.5719 14.6524 34.1778 15.1602C34.6305 15.2928 35.107 15.3226 35.5727 15.2476C36.0344 15.1701 36.0822 15.0267 35.67 14.8964C34.5455 14.5425 33.0517 14.3419 31.1886 14.2946C29.5942 14.2384 27.9985 14.3579 26.4302 14.6507C26.888 14.9063 27.294 15.2451 27.6272 15.6499C27.8531 15.6136 28.0823 15.579 28.3065 15.5411C29.0369 15.4273 28.9792 15.2427 28.1993 15.1454Z" fill="white"/>
<path d="M24.7865 15.6185C24.3875 13.7471 22.6777 12.3209 20.5705 12.3209C19.8021 12.3077 19.0448 12.5062 18.3817 12.8947C17.7186 13.2833 17.1753 13.8469 16.8113 14.5237C15.0454 14.7447 13.7346 16.1214 13.7346 17.8213C13.7346 19.635 15.2729 21.1189 17.1526 21.1189H24.5573C26.1533 21.1189 27.4064 19.907 27.4064 18.3638C27.4064 16.9408 26.2094 15.729 24.7865 15.6185ZM21.7098 17.2673V19.4717H19.4312V17.2706H17.7214L20.5705 14.5171L23.418 17.2706L21.7098 17.2673Z" fill="white"/>
<path d="M5.98633 57.9395H2.48242V60.5645H6.57812V61.748H1V53.2168H6.53711V54.4121H2.48242V56.7676H5.98633V57.9395Z" fill="#FC6011"/>
<path d="M9.81875 55.4082L9.85977 56.1406C10.3285 55.5742 10.9438 55.291 11.7055 55.291C13.0258 55.291 13.6977 56.0469 13.7211 57.5586V61.748H12.2973V57.6406C12.2973 57.2383 12.2094 56.9414 12.0336 56.75C11.8617 56.5547 11.5785 56.457 11.184 56.457C10.6098 56.457 10.182 56.7168 9.90078 57.2363V61.748H8.47695V55.4082H9.81875Z" fill="#FC6011"/>
<path d="M17.8113 53.8672V55.4082H18.9305V56.4629H17.8113V60.002C17.8113 60.2441 17.8582 60.4199 17.952 60.5293C18.0496 60.6348 18.2215 60.6875 18.4676 60.6875C18.6316 60.6875 18.7977 60.668 18.9656 60.6289V61.7305C18.6414 61.8203 18.3289 61.8652 18.0281 61.8652C16.9344 61.8652 16.3875 61.2617 16.3875 60.0547V56.4629H15.3445V55.4082H16.3875V53.8672H17.8113Z" fill="#FC6011"/>
<path d="M23.6652 61.8652C22.7629 61.8652 22.0305 61.582 21.468 61.0156C20.9094 60.4453 20.6301 59.6875 20.6301 58.7422V58.5664C20.6301 57.9336 20.7512 57.3691 20.9934 56.873C21.2395 56.373 21.5832 55.9844 22.0246 55.707C22.466 55.4297 22.9582 55.291 23.5012 55.291C24.3645 55.291 25.0305 55.5664 25.4992 56.1172C25.9719 56.668 26.2082 57.4473 26.2082 58.4551V59.0293H22.0656C22.1086 59.5527 22.2824 59.9668 22.5871 60.2715C22.8957 60.5762 23.2824 60.7285 23.7473 60.7285C24.3996 60.7285 24.9309 60.4648 25.341 59.9375L26.1086 60.6699C25.8547 61.0488 25.5148 61.3438 25.0891 61.5547C24.6672 61.7617 24.1926 61.8652 23.6652 61.8652ZM23.4953 56.4336C23.1047 56.4336 22.7883 56.5703 22.5461 56.8438C22.3078 57.1172 22.1555 57.498 22.0891 57.9863H24.802V57.8809C24.7707 57.4043 24.6437 57.0449 24.4211 56.8027C24.1984 56.5566 23.8898 56.4336 23.4953 56.4336Z" fill="#FC6011"/>
<path d="M31.4879 56.709C31.3004 56.6777 31.107 56.6621 30.9078 56.6621C30.2555 56.6621 29.816 56.9121 29.5895 57.4121V61.748H28.1656V55.4082H29.525L29.5602 56.1172C29.9039 55.5664 30.3805 55.291 30.9898 55.291C31.193 55.291 31.3609 55.3184 31.4937 55.373L31.4879 56.709Z" fill="#FC6011"/>
<path d="M38.7891 58.6426C38.7891 59.623 38.5664 60.4062 38.1211 60.9922C37.6758 61.5742 37.0781 61.8652 36.3281 61.8652C35.6328 61.8652 35.0762 61.6367 34.6582 61.1797V64.1855H33.2344V55.4082H34.5469L34.6055 56.0527C35.0234 55.5449 35.5918 55.291 36.3105 55.291C37.084 55.291 37.6895 55.5801 38.127 56.1582C38.5684 56.7324 38.7891 57.5312 38.7891 58.5547V58.6426ZM37.3711 58.5195C37.3711 57.8867 37.2441 57.3848 36.9902 57.0137C36.7402 56.6426 36.3809 56.457 35.9121 56.457C35.3301 56.457 34.9121 56.6973 34.6582 57.1777V59.9902C34.916 60.4824 35.3379 60.7285 35.9238 60.7285C36.377 60.7285 36.7305 60.5469 36.9844 60.1836C37.2422 59.8164 37.3711 59.2617 37.3711 58.5195Z" fill="#FC6011"/>
<path d="M44.1684 56.709C43.9809 56.6777 43.7875 56.6621 43.5883 56.6621C42.9359 56.6621 42.4965 56.9121 42.2699 57.4121V61.748H40.8461V55.4082H42.2055L42.2406 56.1172C42.5844 55.5664 43.0609 55.291 43.6703 55.291C43.8734 55.291 44.0414 55.3184 44.1742 55.373L44.1684 56.709Z" fill="#FC6011"/>
<path d="M47.4324 61.748H46.0086V55.4082H47.4324V61.748ZM45.9207 53.7617C45.9207 53.543 45.9891 53.3613 46.1258 53.2168C46.2664 53.0723 46.4656 53 46.7234 53C46.9813 53 47.1805 53.0723 47.3211 53.2168C47.4617 53.3613 47.532 53.543 47.532 53.7617C47.532 53.9766 47.4617 54.1562 47.3211 54.3008C47.1805 54.4414 46.9813 54.5117 46.7234 54.5117C46.4656 54.5117 46.2664 54.4414 46.1258 54.3008C45.9891 54.1562 45.9207 53.9766 45.9207 53.7617Z" fill="#FC6011"/>
<path d="M53.3918 60.0254C53.3918 59.7715 53.2863 59.5781 53.0754 59.4453C52.8684 59.3125 52.5227 59.1953 52.0383 59.0938C51.5539 58.9922 51.1496 58.8633 50.8254 58.707C50.1145 58.3633 49.759 57.8652 49.759 57.2129C49.759 56.666 49.9895 56.209 50.4504 55.8418C50.9113 55.4746 51.4973 55.291 52.2082 55.291C52.966 55.291 53.5773 55.4785 54.0422 55.8535C54.5109 56.2285 54.7453 56.7148 54.7453 57.3125H53.3215C53.3215 57.0391 53.2199 56.8125 53.0168 56.6328C52.8137 56.4492 52.5441 56.3574 52.2082 56.3574C51.8957 56.3574 51.6398 56.4297 51.4406 56.5742C51.2453 56.7188 51.1477 56.9121 51.1477 57.1543C51.1477 57.373 51.2395 57.543 51.423 57.6641C51.6066 57.7852 51.9777 57.9082 52.5363 58.0332C53.0949 58.1543 53.5324 58.3008 53.8488 58.4727C54.1691 58.6406 54.4055 58.8438 54.5578 59.082C54.7141 59.3203 54.7922 59.6094 54.7922 59.9492C54.7922 60.5195 54.5559 60.9824 54.0832 61.3379C53.6105 61.6895 52.9914 61.8652 52.2258 61.8652C51.7062 61.8652 51.2434 61.7715 50.8371 61.584C50.4309 61.3965 50.1145 61.1387 49.8879 60.8105C49.6613 60.4824 49.548 60.1289 49.548 59.75H50.9309C50.9504 60.0859 51.0773 60.3457 51.3117 60.5293C51.5461 60.709 51.8566 60.7988 52.2434 60.7988C52.6184 60.7988 52.9035 60.7285 53.0988 60.5879C53.2941 60.4434 53.3918 60.2559 53.3918 60.0254Z" fill="#FC6011"/>
<path d="M59.6793 61.8652C58.777 61.8652 58.0445 61.582 57.482 61.0156C56.9234 60.4453 56.6441 59.6875 56.6441 58.7422V58.5664C56.6441 57.9336 56.7652 57.3691 57.0074 56.873C57.2535 56.373 57.5973 55.9844 58.0387 55.707C58.4801 55.4297 58.9723 55.291 59.5152 55.291C60.3785 55.291 61.0445 55.5664 61.5133 56.1172C61.9859 56.668 62.2223 57.4473 62.2223 58.4551V59.0293H58.0797C58.1227 59.5527 58.2965 59.9668 58.6012 60.2715C58.9098 60.5762 59.2965 60.7285 59.7613 60.7285C60.4137 60.7285 60.9449 60.4648 61.3551 59.9375L62.1227 60.6699C61.8688 61.0488 61.5289 61.3438 61.1031 61.5547C60.6813 61.7617 60.2066 61.8652 59.6793 61.8652ZM59.5094 56.4336C59.1188 56.4336 58.8023 56.5703 58.5602 56.8438C58.3219 57.1172 58.1695 57.498 58.1031 57.9863H60.816V57.8809C60.7848 57.4043 60.6578 57.0449 60.4352 56.8027C60.2125 56.5566 59.9039 56.4336 59.5094 56.4336Z" fill="#FC6011"/>
</g>
<defs>
<clipPath id="clip0">
<rect width="64" height="64" fill="white"/>
</clipPath>
</defs>
</svg>
