<svg xmlns="http://www.w3.org/2000/svg" width="1280" height="640" fill="none" xmlns:v="https://vecta.io/nano"><path d="M193.719 230.139l-61.111 29.43a11.47 11.47 0 0 0-3.999 3.188c-1.076 1.35-1.834 2.926-2.217 4.609l-15.097 66.128c-.39 1.688-.393 3.442-.009 5.131s1.147 3.269 2.229 4.622l42.313 53.005a11.5 11.5 0 0 0 4.002 3.175 11.51 11.51 0 0 0 4.981 1.13h67.807a11.5 11.5 0 0 0 4.983-1.128c1.555-.746 2.923-1.831 4.001-3.177l42.294-53.005c1.078-1.349 1.838-2.924 2.222-4.607a11.47 11.47 0 0 0-.002-5.115l-15.096-66.159a11.5 11.5 0 0 0-2.218-4.609 11.47 11.47 0 0 0-3.999-3.188l-61.11-29.43c-1.556-.75-3.261-1.139-4.987-1.139a11.48 11.48 0 0 0-4.987 1.139h0z" fill="#431bb1"/><path d="M145.894 319.819l.055-5.928a3.93 3.93 0 0 1 .443-2.183c.99-1.494 2.619-.615 3.806 0 1.724.89 3.5 1.675 5.319 2.349a69.88 69.88 0 0 0 11.155 3.013 138.51 138.51 0 0 0 4.587.793 155.49 155.49 0 0 0 33.457 1.464c6.989-.364 13.934-1.308 20.766-2.823 5.012-1.15 9.913-2.644 14.408-5.245 1.844-1.052 3.431-.098 3.455 2.048v11.148c0 2.011-1.525 2.939-3.326 2.115-5.572-2.567-11.816-3.292-17.828-2.07a28.86 28.86 0 0 0-15.605 8.865 28.41 28.41 0 0 0-4.305 6.235 3.79 3.79 0 0 1-1.623 1.845c-.63.242-1.307.339-1.98.283-8.181.066-16.357-.417-24.474-1.445l-2.89-.418c-6.512-.996-13.061-2.46-18.859-5.534-1.721-.849-3.27-2.008-4.569-3.419-1.998-2.331-2.048-5.043-2.023-7.957l.031-3.136zm45.294 48.536c-8.142-.394-16.234-.941-24.228-2.706-5.596-1.23-11.868-2.601-16.603-6.02-2.398-1.734-4.501-4.163-4.464-7.286v-12.459c0-2.066 1.642-3.074 3.431-2.084 5.983 3.351 12.508 4.962 19.173 6.18 9.255 1.678 18.589 2.201 27.967 2.25 1.002 0 2.177.16 2.595 1.199.522 1.292-.037 3.075-.093 4.409a28.23 28.23 0 0 0 1.876 11.21c.43 1.095.953 2.318.855 3.518-.123 1.475-1.433 1.893-2.712 1.924-2.577.068-5.184-.031-7.797-.135zm19.834-14.33c0-10.454 8.646-18.958 19.308-18.983 10.571 0 19.29 8.535 19.29 18.934a19.3 19.3 0 0 1-5.755 13.433c-3.605 3.55-8.46 5.543-13.52 5.55a19.3 19.3 0 0 1-19.323-18.934h0zm19.308-14.408c-2.846.044-5.615.928-7.961 2.541a14.44 14.44 0 0 0-5.22 6.525 14.45 14.45 0 0 0-.73 8.325 14.44 14.44 0 0 0 11.4 11.223c2.795.539 5.687.239 8.312-.861a14.44 14.44 0 0 0 8.859-13.321c-.041-3.854-1.605-7.536-4.352-10.24s-6.453-4.212-10.308-4.192h0zm-1.942-5.828l.701-.51-.516-.449a1.61 1.61 0 0 0 .663-.873c.112-.359.095-.747-.048-1.095-.166-.572-.394-1.125-.585-1.691a1.97 1.97 0 0 1-.121-1.158 1.98 1.98 0 0 1 .552-1.025c.308-.249.683-.402 1.078-.439s.792.043 1.142.23c.854.437 1.131 1.464.695 2.577l-.523 1.5c-.148.349-.168.74-.055 1.103s.35.673.67.877l-.517.412.818.664h-3.954v-.123zm.178 41.483l.516-.418-.811-.658h4.113l-.811.615.498.442c-.319.203-.555.512-.667.872a1.6 1.6 0 0 0 .052 1.096c.153.554.375 1.089.565 1.624a1.84 1.84 0 0 1-.328 2.286c-.307.287-.702.46-1.121.492a1.84 1.84 0 0 1-1.182-.319c-.861-.436-1.132-1.469-.695-2.576l.529-1.501c.137-.351.147-.74.026-1.097a1.6 1.6 0 0 0-.684-.858h0zm-14.502-7.471l.651.099-.036-.671 2.459 2.614.185-.154-.806-.062.037.585s-.061.061-.086.055a1.55 1.55 0 0 0-1 .137c-.309.156-.556.411-.703.724a14.88 14.88 0 0 0-.744 1.549c-.437.96-1.2 1.482-2.017 1.366a1.97 1.97 0 0 1-1.152-.577c-.309-.315-.503-.725-.552-1.164-.098-.799.455-1.562 1.421-1.986.491-.199.972-.425 1.439-.676a1.62 1.62 0 0 0 .904-1.839h0zm30.022 2.502l.062-.676-.615.067 2.416-2.65v.799l.615-.037c0 .037.056.074.049.105a1.49 1.49 0 0 0 .118.969c.147.3.392.541.694.685a13.74 13.74 0 0 0 1.605.781 1.9 1.9 0 0 1 1.286 2c-.045.43-.235.832-.54 1.139a1.91 1.91 0 0 1-1.133.551c-.44.011-.871-.121-1.23-.376a2.03 2.03 0 0 1-.757-1.039 13.27 13.27 0 0 0-.676-1.439c-.159-.348-.437-.628-.784-.789a1.61 1.61 0 0 0-1.11-.09zm-.746-31.927l.769.092v-.658c1.002.197 1.556-.387 1.974-1.162.313-.578.529-1.23.879-1.771a1.67 1.67 0 0 1 .852-.75 1.66 1.66 0 0 1 1.134-.031 2.02 2.02 0 0 1 1.421 1.79 2.07 2.07 0 0 1-.422 1.141 2.06 2.06 0 0 1-.992.703l-1.169.517c-.805.418-1.408.984-1.23 2.017l-.658-.055.068.614-2.46-2.65-.166.203zm-26.781-.566l-.05.615.781-.08-.11-.105-2.497 2.761.049-.768h-.651c.196-.972-.357-1.531-1.107-1.943l-1.845-.911a1.64 1.64 0 0 1-.793-1.924c.108-.393.332-.744.644-1.007s.696-.424 1.102-.463c.793-.074 1.537.498 1.956 1.47.205.513.448 1.01.725 1.488.158.326.421.589.747.746a1.61 1.61 0 0 0 1.049.121h0zm34.953 18.062c-.179-.449-.375-.726-.775-.185v-3.179l.43.271.375-.474c.523.793 1.273.849 2.091.615.547-.16 1.076-.394 1.617-.572a1.91 1.91 0 0 1 2.165.48c.252.309.403.689.433 1.087a1.95 1.95 0 0 1-.267 1.139c-.443.818-1.458 1.076-2.534.664a17.01 17.01 0 0 0-1.629-.56c-.351-.123-.734-.119-1.083.011a1.58 1.58 0 0 0-.823.703h0zm-42.381-3.624c.209.406.369.793.781.154v3.191l-.43-.264-.376.479c-.202-.319-.512-.556-.874-.669s-.751-.093-1.099.055c-.572.159-1.12.387-1.685.578a1.99 1.99 0 0 1-1.156.123c-.388-.074-.746-.263-1.027-.542a2.02 2.02 0 0 1-.443-1.077c-.038-.395.041-.792.228-1.142.442-.867 1.451-1.138 2.564-.708a15.78 15.78 0 0 0 1.568.542 1.61 1.61 0 0 0 1.107-.002c.357-.132.655-.386.842-.718h0zm15.569.499c.249-.153.45-.371.582-.632a1.58 1.58 0 0 0 .162-.844c0-.141-.141-.368-.252-.393-.37-.073-.719-.228-1.021-.454s-.55-.516-.725-.85l-.701-1.291c-.517-1.058-.511-1.058-1.691-.775v-1.187h-1.371c.073-.246.08-.498.203-.614l2.207-2.128c.105-.098.308-.086.461-.129a3 3 0 0 1 .049.473l-.03.83h1.23c-.246 1.187-.24 1.175.842 1.716a7.03 7.03 0 0 1 1.488.861 7.47 7.47 0 0 1 1.07 1.34c.092.13.111.455.16.455a2.4 2.4 0 0 0 1.039-.135c.615-.307.75-.615.387-1.285a2.27 2.27 0 0 1-.241-.88 2.24 2.24 0 0 1 .131-.903c.126-.563.292-1.116.498-1.654.252-.615.135-1.027-.523-1.23-.106-.056-.207-.122-.301-.197l.959-.892-1.125-.904a10.7 10.7 0 0 1 4.304-.043l-1.039.978.929.873-.542.295c-.087.027-.168.072-.236.134s-.122.138-.157.223a.61.61 0 0 0-.044.268.6.6 0 0 0 .075.261l.535 1.709c.229.743.195 1.543-.099 2.263-.055.179-.221.455-.166.505.231.27.525.481.855.614.683.191.867.13 1.107-.614.221-.599.66-1.091 1.23-1.378l1.125-.615c1.088-.541 1.094-.535.842-1.715h1.169v-.886a3.2 3.2 0 0 1 .061-.412c.135 0 .32 0 .406.086l2.337 2.257c.098.104.067.332.104.541l-1.34-.068.067 1.144c-.123.049-.166.092-.196.08-1.046-.27-1.04-.264-1.532.732-.204.492-.469.956-.787 1.383a10.04 10.04 0 0 1-1.432 1.261c-.142.117-.511.148-.505.203.005.371.069.738.191 1.088.252.615.781.615 1.23.314.26-.142.548-.226.844-.247s.593.021.871.124l1.538.443c1.027.319 1.027.326 1.771-.88l.615 1.107.885-.959c.486 0 .461.375.474.719.123 2.718.086 2.995-.455 3.259l-.855-.897-.843.916c-.085-.129-.163-.262-.233-.4a.76.76 0 0 0-.445-.51.75.75 0 0 0-.345-.051.74.74 0 0 0-.329.112c-.474.191-.978.314-1.464.468a2.87 2.87 0 0 1-1.418.166c-.48-.064-.935-.248-1.324-.535l-.302.356c-.719.781-.676 1.427.252 1.747.581.214 1.056.643 1.329 1.199a15.55 15.55 0 0 1 .707 1.291c.485.99.479.996 1.623.67v1.23c.326 0 .615-.055.929-.055.129 0 .326 0 .375.111.028.064.039.134.032.204s-.03.137-.069.195l-2.392 2.3c-.258.234-.48.117-.443-.277l.08-.953h-1.279l.154-.486a.69.69 0 0 0 .08-.291c.004-.102-.014-.204-.053-.298s-.099-.179-.175-.247a.69.69 0 0 0-.264-.147l-1.919-1.021a2.32 2.32 0 0 1-.756-.686c-.197-.282-.33-.604-.388-.944-.073-.332-.867-.406-1.285-.104-.215.16-.406.356-.664.584.836 1.027.615 2.134.234 3.253l-.172.547c-.351 1.113-.351 1.113.694 1.759l-.903.854 1.008.954a10.37 10.37 0 0 1-4.218 0l1.02-.972-.928-.892.492-.252c.099-.026.19-.075.266-.143a.68.68 0 0 0 .176-.247.66.66 0 0 0 .047-.298.67.67 0 0 0-.089-.289c-.185-.48-.308-.978-.468-1.464-.187-.465-.253-.969-.194-1.467a2.99 2.99 0 0 1 .532-1.38c-.18-.206-.387-.388-.614-.541a4.48 4.48 0 0 0-.831-.203c-.504-.129-.375.252-.467.516-.275.708-.813 1.283-1.5 1.605l-1.187.615c-.966.48-.972.48-.615 1.605h-1.23c0 .338 0 .658.062.978s-.179.51-.431.283l-2.398-2.3c-.092-.098-.055-.326-.08-.498h1.267l-.049-1.125c.135-.037.178-.068.215-.056 1.008.289.996.283 1.457-.615.259-.585.579-1.141.953-1.66.4-.415.848-.78 1.335-1.088.147-.105.492-.16.492-.215a3.74 3.74 0 0 0-.216-1.083c-.086-.221-.319-.381-.535-.615-1.279 1.027-2.595.437-3.898 0-1.07-.338-1.07-.344-1.704.837l-.854-1.046-.947.99a2.26 2.26 0 0 1-.295-.682c-.191-2.159-.074-3.075.418-3.382l.855.928.873-.941.258.48a.67.67 0 0 0 .144.266c.067.077.151.137.245.177a.69.69 0 0 0 .298.052.68.68 0 0 0 .291-.083c.473-.184.971-.32 1.463-.461 1.605-.461 1.826-.129 2.89.307zm5.596-2.828a4.14 4.14 0 0 0-4.046 4.107c-.005.539.097 1.074.299 1.573a4.09 4.09 0 0 0 .881 1.336 4.08 4.08 0 0 0 2.897 1.211c1.076.001 2.111-.416 2.886-1.162a4.16 4.16 0 0 0 1.271-2.841c-.021-1.111-.47-2.171-1.254-2.958s-1.842-1.241-2.952-1.266h.018zm.073 1.322c.73.041 1.416.362 1.916.896a2.84 2.84 0 0 1-.043 3.926c-.51.523-1.203.829-1.934.854-.384.013-.766-.052-1.124-.19a2.84 2.84 0 0 1-.959-.617 2.83 2.83 0 0 1-.639-.944 2.84 2.84 0 0 1-.217-1.119 2.83 2.83 0 0 1 .901-2.044 2.85 2.85 0 0 1 2.099-.762h0zm1.538 2.847c.002-.312-.088-.618-.26-.88s-.417-.465-.705-.587-.605-.156-.912-.097a1.58 1.58 0 0 0-.812.426c-.222.219-.376.5-.439.806s-.035.624.083.913.318.539.576.714a1.58 1.58 0 0 0 .876.273c.212.008.423-.028.62-.106a1.55 1.55 0 0 0 .526-.345 1.54 1.54 0 0 0 .343-.527c.077-.197.112-.409.104-.62v.03zm11.458-59.136v-10.423a5.04 5.04 0 0 0-.361-2.215 5.03 5.03 0 0 0-1.287-1.837c-1.483-1.292-3.113-2.402-4.858-3.309-4.993-2.386-10.38-3.437-15.809-4.304a161.36 161.36 0 0 0-22.894-1.949c-4.698-.08-9.402.147-14.1.356-4.113.179-8.209.504-12.298 1.039a23.03 23.03 0 0 1 1.716 4.372c6.172-.982 12.412-1.474 18.662-1.469 9.513 0 16.542.32 23.502 1.445 5.227.842 10.411 1.912 15.244 4.2a13.82 13.82 0 0 1 2.62 1.605c1.451 1.137 1.506 2.355-.062 3.345a28.59 28.59 0 0 1-5.786 2.896c-6.377 2.226-13.012 3.192-19.721 3.806a152.87 152.87 0 0 1-20.292.406v.246a14.88 14.88 0 0 1-1.099 5.771c-.747 1.831-1.851 3.495-3.248 4.895a14.88 14.88 0 0 1-4.888 3.257c-1.83.75-3.791 1.128-5.769 1.112h-19.222c.43.221.867.437 1.31.615a48.64 48.64 0 0 0 9.808 3.234c7.938 1.784 16.246 2.528 24.369 2.835 1.845.074 3.689.113 5.534.117a156.64 156.64 0 0 0 19.518-1.175c7.772-.959 15.846-2.349 22.844-6.05 1.992-1.058 3.917-2.374 5.165-4.249 1.795-2.632 1.396-5.572 1.402-8.572zm-29.434-7.404c3.198-.972 4.815-2.097 4.833-3.333 0-.682-2.748-1.094-5.06-.75l-10.386 1.642c-2.257.387-1.906 1.063.529 1.389l3.074.394-.898.258a60.82 60.82 0 0 1-16.393.707l-3.075-.35c.259.617.475 1.252.646 1.9 9.211.799 20.046.184 26.73-1.857zm-27.596-5.793l-3.235-.418 1.378-.191c7.483-1.494 18.164-1.23 24.154.664 1.688.495 3.465.606 5.202.326 1.722-.289 1.9-.824.363-1.31-4.194-1.32-9.765-2.068-16.714-2.244a81.16 81.16 0 0 0-17.746 1.328c1.707.953 3.221 2.217 4.464 3.727l2.534-.406c2.724-.425 2.508-1.113-.4-1.476zm-12.727 1.766c-1.488-6.98-7.864-12.299-15.723-12.299a15.62 15.62 0 0 0-8.163 2.14 15.61 15.61 0 0 0-5.857 6.076c-6.586.824-11.474 5.958-11.474 12.298 0 6.764 5.737 12.298 12.747 12.298h27.616c5.952 0 10.625-4.519 10.625-10.275 0-5.307-4.464-9.826-9.771-10.238zm-11.474 6.149v8.221h-8.498v-8.209h-6.377l10.626-10.269 10.62 10.269-6.371-.012z" fill="#fff"/><path d="M322.423 375.592V257.847h27.198v50.746l43.118-50.746h30.514l-44.113 52.571 47.098 65.174h-31.177l-33.168-47.264-12.272 12.604v34.66h-27.198zm105.16-31.343v-55.722h26.534v49.917c0 5.307 1.051 9.398 3.151 12.272 2.101 2.764 5.086 4.146 8.955 4.146 2.433 0 4.754-.387 6.966-1.161 2.211-.884 4.367-2.266 6.467-4.146s3.98-4.311 5.639-7.296v-53.732h26.534v57.546c0 2.653.387 4.533 1.161 5.638.884.995 2.377 1.603 4.477 1.825v22.056c-2.432.442-4.588.774-6.467.995-1.769.221-3.372.332-4.81.332-4.643 0-8.347-.94-11.111-2.82-2.764-1.99-4.477-4.754-5.141-8.291l-.497-5.307c-3.98 5.749-8.955 10.005-14.926 12.769-5.859 2.654-12.438 3.98-19.734 3.98-8.845 0-15.589-2.819-20.233-8.457s-6.965-13.82-6.965-24.544zm155.383 33.001c-6.634 0-12.438-1.382-17.413-4.146-4.975-2.874-8.9-6.854-11.775-11.94v14.428h-23.051V254.53h26.534v48.259c2.874-5.086 6.689-9.011 11.443-11.774 4.864-2.764 10.558-4.146 17.081-4.146 5.528 0 10.558 1.216 15.091 3.648 4.644 2.322 8.624 5.583 11.941 9.784 3.427 4.091 6.08 8.9 7.96 14.428 1.879 5.418 2.819 11.333 2.819 17.745 0 6.302-1.05 12.162-3.151 17.579-1.99 5.417-4.809 10.171-8.458 14.262a39.58 39.58 0 0 1-12.935 9.619c-4.864 2.211-10.227 3.316-16.086 3.316zm-7.463-22.388c2.985 0 5.749-.553 8.292-1.658 2.653-1.216 4.92-2.819 6.799-4.809s3.317-4.312 4.312-6.966c.995-2.764 1.493-5.749 1.493-8.955 0-4.091-.83-7.905-2.488-11.443s-3.98-6.357-6.965-8.458c-2.875-2.1-6.247-3.15-10.116-3.15-2.764 0-5.418.663-7.96 1.99s-4.81 3.151-6.8 5.472c-1.99 2.211-3.593 4.754-4.809 7.629v18.242c.884 1.88 1.99 3.593 3.317 5.141 1.326 1.437 2.764 2.653 4.311 3.648a31.34 31.34 0 0 0 5.141 2.488c1.88.553 3.704.829 5.473.829zm101.269 22.388c-7.408 0-13.986-1.16-19.735-3.482-5.749-2.432-10.669-5.694-14.759-9.785a42.38 42.38 0 0 1-9.122-14.096c-2.1-5.417-3.15-11.056-3.15-16.915 0-8.403 1.824-16.031 5.472-22.886 3.759-6.965 9.121-12.549 16.087-16.75 6.965-4.312 15.367-6.467 25.207-6.467s18.187 2.1 25.042 6.301c6.965 4.202 12.272 9.73 15.92 16.584 3.648 6.744 5.473 14.096 5.473 22.057 0 1.548-.111 3.095-.332 4.643l-.332 3.814h-64.345c.332 3.87 1.382 7.132 3.151 9.785 1.879 2.653 4.256 4.699 7.131 6.136 2.875 1.327 5.915 1.99 9.121 1.99 3.98 0 7.684-.94 11.111-2.819 3.538-1.88 5.97-4.423 7.297-7.629l22.554 6.302c-2.211 4.533-5.362 8.568-9.453 12.106-3.98 3.428-8.734 6.136-14.262 8.126-5.417 1.99-11.443 2.985-18.076 2.985zm-19.237-53.234h37.811c-.442-3.648-1.493-6.799-3.151-9.452-1.658-2.764-3.87-4.865-6.634-6.302-2.764-1.548-5.804-2.322-9.121-2.322-3.427 0-6.523.774-9.287 2.322-2.653 1.437-4.809 3.538-6.467 6.302-1.659 2.653-2.709 5.804-3.151 9.452zm149.34-35.323c-.774-.774-2.212-1.824-4.312-3.151-1.99-1.327-4.478-2.598-7.463-3.814-2.874-1.217-6.025-2.267-9.453-3.151a37.29 37.29 0 0 0-10.447-1.493c-6.192 0-10.891 1.161-14.097 3.483-3.095 2.321-4.643 5.583-4.643 9.784 0 3.206.995 5.749 2.985 7.629s4.975 3.482 8.955 4.809 8.955 2.764 14.926 4.312c7.739 1.879 14.428 4.201 20.066 6.965 5.749 2.653 10.116 6.191 13.101 10.614 3.096 4.311 4.644 10.061 4.644 17.247 0 6.302-1.161 11.719-3.483 16.252-2.322 4.422-5.528 8.016-9.618 10.78s-8.735 4.809-13.931 6.136c-5.196 1.216-10.724 1.824-16.584 1.824s-11.719-.608-17.579-1.824-11.498-2.93-16.915-5.141c-5.417-2.322-10.393-5.086-14.926-8.292l10.117-19.735c.995.995 2.764 2.322 5.306 3.98 2.543 1.548 5.639 3.151 9.287 4.809 3.649 1.548 7.629 2.875 11.941 3.98s8.679 1.659 13.101 1.659c6.191 0 10.89-1.051 14.096-3.151s4.81-5.086 4.81-8.955c0-3.538-1.272-6.302-3.815-8.292s-6.08-3.704-10.613-5.141c-4.533-1.548-9.895-3.207-16.087-4.975-7.407-2.101-13.598-4.423-18.574-6.966-4.975-2.653-8.678-5.97-11.111-9.95s-3.648-8.955-3.648-14.925c0-8.071 1.879-14.815 5.638-20.233 3.87-5.528 9.066-9.674 15.589-12.438 6.523-2.874 13.765-4.311 21.725-4.311 5.528 0 10.724.608 15.589 1.824 4.975 1.216 9.618 2.819 13.93 4.809s8.181 4.146 11.609 6.468l-10.116 18.574zm83.131 82.256c-2.432.995-5.141 1.99-8.126 2.985-2.874.995-5.915 1.769-9.121 2.321-3.206.664-6.357.995-9.453.995-4.422 0-8.513-.718-12.272-2.155-3.648-1.548-6.578-4.036-8.789-7.463-2.101-3.428-3.151-7.96-3.151-13.599v-45.44h-11.111v-20.066h11.111v-27.695h26.534v27.695h17.745v20.066h-17.745v36.319c0 2.874.719 4.975 2.156 6.302 1.437 1.216 3.261 1.824 5.473 1.824 1.879 0 3.869-.332 5.97-.995 2.211-.663 4.09-1.382 5.638-2.156l5.141 21.062zm3.208-21.394c0-5.749 1.603-10.779 4.81-15.091s7.628-7.684 13.267-10.116c5.638-2.543 12.106-3.814 19.403-3.814a54.81 54.81 0 0 1 10.448.995c3.427.553 6.412 1.382 8.955 2.487v-3.814c0-4.754-1.437-8.402-4.312-10.945s-7.242-3.815-13.101-3.815c-4.865 0-9.453.83-13.765 2.488-4.201 1.658-8.679 4.035-13.433 7.131l-7.96-16.915c5.749-3.759 11.719-6.579 17.911-8.458 6.301-1.88 12.935-2.819 19.9-2.819 13.046 0 23.162 3.15 30.349 9.452 7.296 6.192 10.945 15.202 10.945 27.032v22.72c0 2.653.387 4.533 1.161 5.638.884.995 2.377 1.603 4.477 1.825v22.056c-2.211.442-4.311.774-6.301.995-1.88.221-3.538.332-4.976.332-4.975 0-8.789-.995-11.442-2.985-2.543-1.99-4.146-4.699-4.81-8.126l-.497-3.815c-3.87 4.975-8.513 8.79-13.931 11.443-5.307 2.543-10.89 3.814-16.749 3.814-5.749 0-10.946-1.216-15.589-3.648-4.533-2.432-8.126-5.749-10.78-9.95s-3.98-8.9-3.98-14.097zm52.737 3.317c1.216-.995 2.211-2.1 2.985-3.317s1.161-2.377 1.161-3.482v-7.795c-2.211-.884-4.699-1.547-7.463-1.99-2.653-.552-5.141-.829-7.463-.829-4.864 0-8.9 1.106-12.106 3.317-3.206 2.101-4.809 4.92-4.809 8.458a9.66 9.66 0 0 0 1.658 5.472c1.106 1.659 2.598 2.985 4.478 3.98 1.99.996 4.312 1.493 6.965 1.493s5.307-.497 7.96-1.493 4.865-2.266 6.634-3.814zm81.579 24.378c-7.4 0-14.65-1.216-21.72-3.648-7.078-2.432-13.048-6.025-17.913-10.78l9.122-16.749c5.311 3.869 10.451 6.799 15.421 8.789 5.09 1.99 9.84 2.985 14.26 2.985 3.43 0 6.08-.552 7.96-1.658s2.82-2.819 2.82-5.141c0-1.658-.55-2.93-1.66-3.814-1.1-.995-2.81-1.88-5.14-2.654-2.21-.774-4.97-1.603-8.29-2.487-6.63-2.211-12.16-4.367-16.58-6.468s-7.741-4.643-9.952-7.629c-2.211-3.095-3.317-7.075-3.317-11.94 0-5.86 1.437-10.945 4.312-15.257 2.985-4.422 7.187-7.85 12.607-10.282 5.41-2.432 11.88-3.648 19.4-3.648 5.97 0 11.77.939 17.41 2.819 5.75 1.879 11.11 5.03 16.09 9.453l-10.28 16.583c-4.98-3.427-9.4-5.914-13.27-7.462s-7.63-2.322-11.28-2.322c-1.88 0-3.59.221-5.14.663s-2.82 1.216-3.81 2.322c-.89.995-1.33 2.322-1.33 3.98s.44 2.985 1.33 3.98c.99.995 2.49 1.88 4.48 2.654l7.79 2.487c7.19 2.101 13.16 4.257 17.91 6.468 4.75 2.101 8.29 4.754 10.61 7.96 2.44 3.096 3.65 7.242 3.65 12.438 0 8.845-3.2 15.81-9.62 20.896-6.3 4.975-14.92 7.462-25.87 7.462zm131.36-1.658h-26.54V326.67c0-5.639-1.16-9.785-3.48-12.438-2.21-2.654-5.19-3.98-8.95-3.98-1.99 0-4.26.663-6.8 1.99-2.44 1.216-4.7 2.985-6.8 5.307s-3.71 5.03-4.81 8.126v49.917h-26.54V254.53h26.54v48.591c3.2-5.197 7.41-9.177 12.6-11.941 5.31-2.874 11.11-4.311 17.42-4.311 5.97 0 10.72.995 14.26 2.985 3.65 1.99 6.41 4.643 8.29 7.96 1.88 3.206 3.15 6.744 3.81 10.614.67 3.869 1 7.683 1 11.442v55.722z" fill="#431bb1"/></svg>