<svg width="216" height="216" viewBox="0 0 216 216" fill="none" xmlns="http://www.w3.org/2000/svg">
<path d="M105.785 33.7131L67.5275 52.1371C66.5535 52.6057 65.6977 53.288 65.0239 54.1331C64.35 54.9782 63.8755 55.9644 63.6356 57.0184L54.1849 98.4166C53.9404 99.4732 53.9384 100.571 54.1791 101.629C54.4197 102.686 54.8969 103.675 55.5746 104.522L82.0635 137.705C82.7393 138.547 83.5955 139.226 84.569 139.693C85.5424 140.159 86.6082 140.401 87.6877 140.4H130.137C131.216 140.402 132.283 140.16 133.256 139.694C134.23 139.227 135.086 138.548 135.761 137.705L162.238 104.522C162.913 103.678 163.389 102.692 163.629 101.638C163.87 100.584 163.87 99.4895 163.628 98.4359L154.177 57.0184C153.938 55.9644 153.463 54.9782 152.789 54.1331C152.115 53.288 151.26 52.6057 150.286 52.1371L112.029 33.7131C111.055 33.2437 109.988 33 108.907 33C107.825 33 106.758 33.2437 105.785 33.7131V33.7131Z" fill="#431BB1"/>
<path d="M75.8442 89.8546L75.8789 86.1436C75.8375 85.6709 75.9338 85.1963 76.156 84.777C76.7758 83.8416 77.7959 84.3921 78.5389 84.777C79.6179 85.3345 80.7299 85.8256 81.8688 86.2476C84.1404 87.0682 86.4761 87.6991 88.8519 88.1338C89.8066 88.3186 90.7767 88.4803 91.7237 88.6304C98.6521 89.6893 105.675 89.9965 112.669 89.5466C117.044 89.3188 121.392 88.7277 125.669 87.7797C128.807 87.0598 131.875 86.1244 134.689 84.496C135.844 83.8377 136.837 84.4344 136.852 85.7779C136.878 88.103 136.878 90.4295 136.852 92.7572C136.852 94.016 135.897 94.5973 134.77 94.0814C131.282 92.4743 127.372 92.0202 123.609 92.7851C119.845 93.55 116.423 95.494 113.839 98.3352C112.771 99.5101 111.865 100.823 111.145 102.239C110.943 102.726 110.586 103.132 110.128 103.394C109.734 103.545 109.31 103.606 108.889 103.571C103.767 103.612 98.6487 103.31 93.5676 102.666C92.9671 102.585 92.3627 102.5 91.7583 102.404C87.6816 101.781 83.5818 100.864 79.9517 98.9396C78.8745 98.4085 77.9048 97.6829 77.0915 96.7992C75.8404 95.3402 75.8096 93.6426 75.825 91.8179L75.8442 89.8546Z" fill="white"/>
<path d="M104.202 120.241C99.1051 119.994 94.0391 119.652 89.0346 118.547C85.5315 117.777 81.605 116.919 78.6408 114.778C77.1395 113.693 75.8229 112.172 75.846 110.216C75.8768 107.618 75.846 105.019 75.846 102.417C75.846 101.124 76.8738 100.492 77.9941 101.112C81.7397 103.21 85.8241 104.219 89.997 104.981C95.7906 106.032 101.634 106.359 107.505 106.39C108.132 106.39 108.868 106.49 109.129 107.141C109.457 107.949 109.106 109.065 109.072 109.901C108.983 112.295 109.383 114.683 110.246 116.919C110.515 117.604 110.842 118.37 110.781 119.12C110.704 120.044 109.884 120.306 109.083 120.325C107.47 120.368 105.838 120.306 104.202 120.241Z" fill="white"/>
<path d="M116.617 111.27C116.617 104.726 122.03 99.4019 128.705 99.3865C135.322 99.3865 140.781 104.73 140.781 111.239C140.729 114.406 139.435 117.426 137.178 119.649C134.921 121.872 131.882 123.119 128.714 123.123C125.547 123.127 122.504 121.888 120.242 119.671C117.979 117.454 116.678 114.437 116.617 111.27V111.27ZM128.705 102.251C126.923 102.278 125.189 102.831 123.721 103.841C122.253 104.851 121.116 106.272 120.453 107.926C119.79 109.58 119.631 111.393 119.996 113.138C120.36 114.882 121.232 116.479 122.502 117.729C123.772 118.98 125.383 119.826 127.133 120.164C128.882 120.501 130.693 120.314 132.336 119.625C133.98 118.936 135.383 117.777 136.37 116.294C137.357 114.81 137.883 113.067 137.882 111.285C137.857 108.872 136.877 106.568 135.158 104.875C133.438 103.182 131.118 102.238 128.705 102.251V102.251Z" fill="white"/>
<path d="M127.491 98.6021L127.93 98.2826L127.607 98.0016C127.805 97.8736 127.952 97.6803 128.022 97.4553C128.092 97.2302 128.082 96.9876 127.992 96.7697C127.888 96.4117 127.745 96.0652 127.626 95.7111C127.528 95.4826 127.502 95.23 127.55 94.9862C127.598 94.7424 127.718 94.5188 127.895 94.3445C128.089 94.1884 128.323 94.0928 128.571 94.0695C128.818 94.0462 129.066 94.0964 129.285 94.2136C129.82 94.4869 129.993 95.1298 129.72 95.8266C129.601 96.1345 129.481 96.4463 129.393 96.7658C129.3 96.9846 129.288 97.2292 129.358 97.4561C129.429 97.6831 129.577 97.8777 129.778 98.0054L129.454 98.2633L129.966 98.6791H127.491V98.6021Z" fill="white"/>
<path d="M127.602 124.571L127.925 124.309L127.417 123.897H129.992L129.484 124.282L129.796 124.559C129.597 124.686 129.449 124.88 129.378 125.105C129.308 125.33 129.32 125.573 129.411 125.791C129.507 126.138 129.646 126.473 129.765 126.808C129.899 127.034 129.952 127.299 129.914 127.559C129.877 127.82 129.752 128.059 129.56 128.239C129.367 128.418 129.12 128.527 128.858 128.547C128.595 128.566 128.334 128.496 128.118 128.347C127.579 128.074 127.409 127.427 127.683 126.734C127.802 126.426 127.921 126.115 128.014 125.795C128.1 125.575 128.106 125.332 128.03 125.108C127.955 124.884 127.803 124.694 127.602 124.571V124.571Z" fill="white"/>
<path d="M118.521 119.893L118.929 119.955L118.906 119.535L120.446 121.171L120.561 121.075L120.057 121.037L120.08 121.402C120.08 121.402 120.042 121.441 120.026 121.437C119.814 121.395 119.594 121.425 119.4 121.523C119.207 121.621 119.052 121.78 118.96 121.976C118.786 122.29 118.631 122.614 118.494 122.946C118.221 123.547 117.744 123.874 117.232 123.801C116.958 123.765 116.704 123.638 116.51 123.44C116.317 123.243 116.196 122.986 116.165 122.711C116.104 122.211 116.45 121.734 117.055 121.468C117.362 121.343 117.663 121.202 117.955 121.044C118.168 120.947 118.341 120.78 118.444 120.57C118.547 120.36 118.574 120.121 118.521 119.893V119.893Z" fill="white"/>
<path d="M137.319 121.46L137.357 121.037L136.972 121.079L138.485 119.42V119.92L138.87 119.897C138.87 119.92 138.905 119.943 138.901 119.963C138.856 120.167 138.882 120.381 138.974 120.569C139.067 120.757 139.22 120.908 139.409 120.998C139.733 121.183 140.069 121.346 140.414 121.487C140.67 121.573 140.89 121.744 141.036 121.972C141.183 122.199 141.247 122.47 141.219 122.739C141.191 123.008 141.071 123.26 140.881 123.452C140.69 123.645 140.44 123.766 140.171 123.797C139.896 123.804 139.626 123.721 139.402 123.562C139.177 123.402 139.011 123.174 138.928 122.911C138.805 122.603 138.663 122.302 138.504 122.011C138.405 121.793 138.231 121.617 138.013 121.516C137.796 121.415 137.549 121.395 137.319 121.46Z" fill="white"/>
<path d="M136.85 101.473L137.331 101.531V101.119C137.959 101.242 138.305 100.876 138.567 100.391C138.763 100.029 138.898 99.6212 139.117 99.2824C139.235 99.0683 139.423 98.9022 139.651 98.8128C139.878 98.7235 140.129 98.7167 140.361 98.7935C140.605 98.8685 140.821 99.0156 140.979 99.2156C141.138 99.4156 141.233 99.659 141.25 99.9138C141.236 100.173 141.144 100.422 140.986 100.628C140.828 100.834 140.611 100.988 140.365 101.069C140.118 101.176 139.868 101.269 139.633 101.392C139.129 101.654 138.752 102.008 138.863 102.655L138.452 102.62L138.494 103.005L136.954 101.346L136.85 101.473Z" fill="white"/>
<path d="M120.081 101.119L120.05 101.504L120.539 101.454L120.47 101.388L118.907 103.117L118.937 102.636H118.529C118.653 102.027 118.306 101.677 117.836 101.419C117.451 101.215 117.067 101.077 116.682 100.849C116.473 100.736 116.309 100.555 116.219 100.335C116.128 100.116 116.116 99.8718 116.185 99.6445C116.252 99.3984 116.393 99.1786 116.588 99.0143C116.784 98.85 117.024 98.7489 117.278 98.7244C117.775 98.6783 118.241 99.0363 118.502 99.6445C118.631 99.9655 118.783 100.277 118.957 100.576C119.055 100.78 119.22 100.945 119.424 101.043C119.628 101.142 119.86 101.168 120.081 101.119V101.119Z" fill="white"/>
<path d="M141.963 112.425C141.851 112.144 141.728 111.971 141.478 112.309V110.319L141.748 110.489L141.982 110.192C142.31 110.689 142.779 110.723 143.291 110.577C143.634 110.477 143.965 110.331 144.304 110.219C144.533 110.122 144.786 110.099 145.029 110.153C145.272 110.207 145.492 110.335 145.659 110.519C145.817 110.713 145.911 110.951 145.93 111.2C145.948 111.449 145.89 111.698 145.763 111.913C145.485 112.425 144.85 112.587 144.177 112.329C143.843 112.195 143.502 112.078 143.156 111.978C142.937 111.901 142.697 111.903 142.479 111.985C142.261 112.067 142.078 112.222 141.963 112.425V112.425Z" fill="white"/>
<path d="M115.435 110.158C115.566 110.412 115.666 110.654 115.924 110.254V112.252L115.654 112.086L115.419 112.387C115.292 112.187 115.098 112.038 114.872 111.968C114.646 111.897 114.402 111.909 114.184 112.002C113.826 112.102 113.483 112.244 113.129 112.364C112.901 112.461 112.649 112.488 112.406 112.441C112.162 112.394 111.938 112.276 111.762 112.102C111.606 111.909 111.509 111.674 111.485 111.427C111.461 111.18 111.511 110.931 111.628 110.712C111.905 110.169 112.536 110 113.233 110.269C113.554 110.399 113.882 110.513 114.214 110.608C114.438 110.69 114.684 110.69 114.907 110.607C115.131 110.525 115.318 110.365 115.435 110.158V110.158Z" fill="white"/>
<path d="M125.18 110.469C125.336 110.373 125.462 110.236 125.544 110.073C125.626 109.91 125.662 109.727 125.646 109.545C125.646 109.456 125.557 109.314 125.488 109.299C125.257 109.253 125.038 109.156 124.849 109.014C124.66 108.873 124.505 108.691 124.395 108.482C124.249 108.213 124.091 107.947 123.956 107.674C123.633 107.012 123.637 107.012 122.897 107.189V106.446H122.039C122.085 106.292 122.089 106.134 122.166 106.061C122.616 105.603 123.082 105.164 123.548 104.729C123.613 104.668 123.741 104.675 123.837 104.648C123.855 104.746 123.865 104.845 123.868 104.945C123.868 105.11 123.868 105.276 123.848 105.464H124.618C124.464 106.207 124.468 106.2 125.146 106.538C125.477 106.679 125.79 106.86 126.077 107.077C126.332 107.33 126.557 107.612 126.747 107.917C126.805 107.997 126.816 108.201 126.847 108.201C127.068 108.221 127.29 108.192 127.498 108.117C127.883 107.924 127.967 107.732 127.74 107.312C127.653 107.141 127.601 106.953 127.589 106.761C127.577 106.569 127.605 106.377 127.671 106.196C127.75 105.844 127.854 105.497 127.983 105.16C128.141 104.775 128.067 104.517 127.656 104.39C127.589 104.356 127.526 104.314 127.467 104.267L128.067 103.709L127.363 103.143C128.25 102.951 129.167 102.942 130.058 103.116L129.407 103.728L129.988 104.275L129.65 104.46C129.595 104.476 129.544 104.505 129.501 104.543C129.459 104.582 129.425 104.629 129.404 104.683C129.382 104.736 129.372 104.793 129.375 104.85C129.379 104.908 129.395 104.964 129.422 105.014C129.55 105.364 129.634 105.734 129.757 106.084C129.901 106.549 129.879 107.05 129.696 107.501C129.661 107.612 129.557 107.786 129.592 107.816C129.737 107.986 129.92 108.118 130.127 108.201C130.554 108.321 130.67 108.282 130.82 107.816C130.958 107.442 131.233 107.134 131.59 106.954C131.817 106.816 132.056 106.689 132.294 106.569C132.976 106.23 132.979 106.234 132.822 105.495H133.553C133.553 105.318 133.553 105.129 133.553 104.941C133.56 104.854 133.573 104.768 133.592 104.683C133.676 104.683 133.792 104.683 133.846 104.737C134.341 105.199 134.829 105.67 135.308 106.15C135.37 106.215 135.351 106.357 135.374 106.488L134.535 106.446L134.577 107.162C134.5 107.193 134.473 107.22 134.454 107.212C133.799 107.043 133.803 107.047 133.495 107.67C133.367 107.978 133.202 108.269 133.003 108.536C132.729 108.827 132.429 109.091 132.106 109.325C132.017 109.399 131.786 109.418 131.79 109.453C131.793 109.685 131.833 109.915 131.909 110.134C132.067 110.519 132.398 110.519 132.679 110.33C132.842 110.241 133.023 110.189 133.208 110.175C133.393 110.162 133.579 110.189 133.753 110.253C134.08 110.33 134.4 110.426 134.716 110.53C135.358 110.731 135.359 110.734 135.824 109.98L136.209 110.673L136.764 110.072C137.068 110.072 137.052 110.307 137.06 110.523C137.137 112.224 137.114 112.397 136.775 112.563L136.24 112.001L135.713 112.575C135.659 112.494 135.61 112.411 135.566 112.324C135.549 112.253 135.514 112.187 135.466 112.131C135.417 112.075 135.356 112.032 135.288 112.005C135.219 111.977 135.146 111.967 135.072 111.973C134.999 111.98 134.928 112.004 134.866 112.043C134.569 112.163 134.254 112.24 133.95 112.336C133.667 112.445 133.362 112.481 133.062 112.44C132.761 112.4 132.476 112.285 132.233 112.105C132.163 112.19 132.106 112.263 132.044 112.328C131.594 112.817 131.621 113.221 132.202 113.421C132.565 113.556 132.863 113.824 133.033 114.172C133.195 114.43 133.337 114.703 133.476 114.98C133.78 115.6 133.776 115.604 134.492 115.4V116.17C134.696 116.17 134.877 116.135 135.074 116.135C135.154 116.135 135.278 116.135 135.308 116.205C135.326 116.245 135.333 116.289 135.329 116.333C135.325 116.376 135.31 116.418 135.285 116.455C134.796 116.944 134.304 117.433 133.788 117.895C133.626 118.041 133.488 117.968 133.511 117.721C133.534 117.475 133.542 117.336 133.561 117.125H132.76C132.802 116.99 132.822 116.901 132.856 116.821C132.886 116.764 132.903 116.702 132.906 116.638C132.909 116.574 132.898 116.51 132.873 116.451C132.849 116.393 132.811 116.34 132.764 116.297C132.716 116.254 132.66 116.223 132.598 116.205C132.19 116.004 131.794 115.785 131.397 115.566C131.21 115.459 131.048 115.313 130.924 115.136C130.8 114.96 130.717 114.758 130.681 114.545C130.635 114.338 130.138 114.291 129.877 114.48C129.742 114.58 129.623 114.703 129.461 114.846C129.985 115.489 129.846 116.182 129.607 116.882C129.569 116.994 129.534 117.109 129.499 117.225C129.28 117.922 129.28 117.922 129.934 118.326L129.369 118.861L130 119.458C129.129 119.639 128.23 119.639 127.359 119.458L127.998 118.849L127.417 118.291C127.567 118.214 127.644 118.168 127.725 118.133C127.787 118.117 127.844 118.086 127.892 118.044C127.94 118.001 127.977 117.948 128.001 117.889C128.026 117.83 128.036 117.766 128.031 117.702C128.027 117.638 128.007 117.576 127.975 117.521C127.86 117.221 127.783 116.909 127.682 116.605C127.566 116.314 127.524 115.998 127.561 115.687C127.598 115.375 127.712 115.078 127.894 114.823C127.781 114.694 127.652 114.58 127.509 114.484C127.341 114.425 127.166 114.382 126.99 114.357C126.674 114.276 126.755 114.515 126.697 114.68C126.524 115.123 126.188 115.483 125.758 115.685C125.511 115.816 125.265 115.954 125.015 116.07C124.41 116.37 124.406 116.37 124.63 117.075H123.86C123.86 117.286 123.86 117.487 123.898 117.687C123.937 117.887 123.787 118.006 123.629 117.864C123.113 117.402 122.616 116.917 122.128 116.424C122.07 116.362 122.093 116.22 122.077 116.112H122.871L122.84 115.408C122.924 115.385 122.951 115.365 122.974 115.373C123.606 115.554 123.598 115.55 123.887 114.988C124.049 114.622 124.249 114.274 124.483 113.949C124.734 113.689 125.014 113.46 125.319 113.267C125.411 113.202 125.627 113.167 125.627 113.133C125.615 112.901 125.57 112.673 125.492 112.455C125.438 112.317 125.292 112.216 125.157 112.07C124.356 112.713 123.533 112.344 122.717 112.07C122.047 111.858 122.047 111.855 121.65 112.594L121.115 111.939L120.522 112.559C120.438 112.428 120.375 112.283 120.337 112.132C120.218 110.781 120.291 110.207 120.599 110.015L121.134 110.596L121.681 110.007C121.758 110.149 121.808 110.226 121.843 110.307C121.86 110.369 121.891 110.426 121.933 110.474C121.975 110.522 122.027 110.559 122.086 110.584C122.145 110.609 122.209 110.62 122.273 110.617C122.337 110.614 122.399 110.596 122.455 110.565C122.751 110.45 123.063 110.365 123.371 110.276C124.376 109.988 124.514 110.195 125.18 110.469ZM128.683 108.698C128.01 108.714 127.369 108.991 126.896 109.471C126.424 109.951 126.156 110.596 126.15 111.27C126.147 111.607 126.211 111.941 126.338 112.254C126.465 112.566 126.652 112.851 126.889 113.091C127.127 113.33 127.409 113.521 127.72 113.651C128.031 113.781 128.365 113.848 128.703 113.849C129.376 113.849 130.024 113.588 130.51 113.121C130.995 112.653 131.28 112.016 131.305 111.343C131.292 110.647 131.011 109.984 130.52 109.491C130.03 108.998 129.367 108.714 128.672 108.698H128.683Z" fill="white"/>
<path d="M128.729 109.526C129.186 109.551 129.616 109.752 129.929 110.086C130.241 110.421 130.413 110.863 130.408 111.32C130.403 111.778 130.222 112.216 129.902 112.544C129.582 112.871 129.148 113.063 128.691 113.079C128.451 113.087 128.211 113.046 127.987 112.96C127.763 112.873 127.559 112.741 127.387 112.574C127.215 112.406 127.079 112.205 126.987 111.983C126.895 111.761 126.849 111.522 126.851 111.282C126.854 111.042 126.905 110.804 127.002 110.584C127.099 110.364 127.239 110.166 127.415 110.002C127.59 109.838 127.797 109.711 128.023 109.629C128.249 109.547 128.489 109.512 128.729 109.526V109.526ZM129.692 111.308C129.693 111.112 129.637 110.92 129.529 110.757C129.422 110.593 129.268 110.465 129.088 110.389C128.908 110.313 128.709 110.292 128.517 110.328C128.325 110.365 128.148 110.458 128.008 110.595C127.869 110.732 127.773 110.908 127.734 111.1C127.694 111.291 127.712 111.49 127.785 111.672C127.859 111.853 127.984 112.008 128.146 112.118C128.308 112.228 128.499 112.288 128.695 112.289C128.827 112.294 128.959 112.272 129.083 112.223C129.206 112.175 129.318 112.101 129.412 112.007C129.506 111.913 129.579 111.801 129.627 111.677C129.675 111.553 129.697 111.421 129.692 111.289V111.308Z" fill="white"/>
<path d="M136.867 74.2875C136.867 72.1125 136.867 69.9375 136.867 67.7625C136.897 67.2892 136.82 66.8154 136.641 66.3762C136.463 65.9369 136.187 65.5437 135.835 65.2256C134.907 64.4173 133.886 63.722 132.794 63.1545C129.668 61.6609 126.296 61.0026 122.897 60.4598C118.155 59.7132 113.365 59.3054 108.565 59.2395C105.624 59.1895 102.679 59.3319 99.7381 59.4628C97.1627 59.5744 94.5989 59.7785 92.0389 60.1134C92.4895 60.9866 92.8493 61.9038 93.113 62.8504C96.977 62.235 100.884 61.9274 104.796 61.9304C110.752 61.9304 115.152 62.1305 119.509 62.835C122.782 63.3624 126.027 64.0322 129.053 65.4643C129.635 65.7371 130.185 66.0741 130.692 66.469C131.601 67.1812 131.636 67.9434 130.654 68.5632C129.519 69.3026 128.304 69.9109 127.032 70.3763C123.04 71.7699 118.886 72.3742 114.686 72.7592C110.462 73.1249 106.218 73.2098 101.982 73.0133C101.982 73.0672 101.982 73.1172 101.982 73.1672C101.995 74.4052 101.761 75.6333 101.294 76.7798C100.827 77.9263 100.136 78.9681 99.261 79.8444C98.3865 80.7208 97.3461 81.414 96.2006 81.8836C95.055 82.3532 93.8274 82.5897 92.5894 82.5794H80.5557C80.8251 82.718 81.0985 82.8528 81.3756 82.9644C83.3446 83.8554 85.4029 84.5342 87.5157 84.9893C92.4855 86.1057 97.6862 86.5714 102.772 86.7639C103.926 86.8101 105.081 86.8345 106.236 86.8371C110.32 86.8464 114.401 86.6008 118.455 86.1018C123.321 85.5013 128.375 84.6313 132.756 82.3138C134.003 81.6517 135.208 80.8279 135.989 79.6538C137.114 78.0062 136.863 76.1661 136.867 74.2875Z" fill="white"/>
<path d="M118.439 69.6528C120.441 69.0446 121.453 68.3401 121.465 67.5664C121.465 67.1391 119.744 66.8811 118.297 67.0967C116.083 67.4239 113.908 67.7665 111.795 68.1245C110.382 68.3671 110.601 68.7905 112.126 68.9945L114.051 69.2409C113.808 69.3102 113.666 69.3641 113.489 69.4026C110.103 70.013 106.651 70.1619 103.226 69.8453C102.533 69.7876 101.894 69.7106 101.301 69.6259C101.463 70.0125 101.598 70.41 101.705 70.8154C107.472 71.3158 114.255 70.9309 118.439 69.6528Z" fill="white"/>
<path d="M101.16 66.0261L99.1355 65.7644C99.609 65.6989 99.8284 65.6797 99.9978 65.645C104.683 64.7096 111.369 64.8751 115.119 66.0608C116.176 66.3703 117.288 66.44 118.376 66.2648C119.454 66.0839 119.565 65.749 118.603 65.4449C115.977 64.6185 112.49 64.1501 108.14 64.0398C104.417 63.9087 100.691 64.1875 97.0298 64.8713C98.0987 65.4678 99.0466 66.2591 99.8246 67.2041C100.352 67.1194 100.887 67.0386 101.411 66.95C103.116 66.6844 102.981 66.2533 101.16 66.0261Z" fill="white"/>
<path d="M93.1943 67.1305C92.2627 62.7613 88.2707 59.4314 83.3509 59.4314C81.5568 59.4004 79.7888 59.8639 78.2406 60.771C76.6924 61.6782 75.4238 62.9941 74.5739 64.5744C70.451 65.0903 67.3906 68.3047 67.3906 72.2736C67.3906 76.5081 70.9823 79.9727 75.3708 79.9727H92.6592C96.3856 79.9727 99.3112 77.1433 99.3112 73.5401C99.3112 70.2179 96.5165 67.3885 93.1943 67.1305ZM86.011 70.9801V76.127H80.6909V70.9878H76.6989L83.3509 64.559L89.9991 70.9878L86.011 70.9801Z" fill="white"/>
<path d="M15.5084 182.4V156.209H21.5581V167.497L31.1491 156.209H37.9366L28.1243 167.903L38.6006 182.4H31.6656L24.2879 171.887L21.5581 174.69V182.4H15.5084ZM38.8998 175.428V163.034H44.8019V174.137C44.8019 175.318 45.0356 176.227 45.5028 176.867C45.9701 177.482 46.6341 177.789 47.4948 177.789C48.0358 177.789 48.5523 177.703 49.0441 177.531C49.536 177.334 50.0155 177.027 50.4828 176.609C50.95 176.191 51.3681 175.65 51.737 174.986V163.034H57.6391V175.834C57.6391 176.424 57.7252 176.842 57.8973 177.088C58.0941 177.31 58.4261 177.445 58.8933 177.494V182.4C58.3523 182.499 57.8728 182.572 57.4547 182.621C57.0612 182.671 56.7046 182.695 56.3849 182.695C55.352 182.695 54.5282 182.486 53.9134 182.068C53.2986 181.625 52.9174 181.011 52.7698 180.224L52.6592 179.043C51.7739 180.322 50.6672 181.269 49.3392 181.884C48.0358 182.474 46.5726 182.769 44.9495 182.769C42.9821 182.769 41.482 182.142 40.4491 180.888C39.4162 179.634 38.8998 177.814 38.8998 175.428ZM73.4626 182.769C71.987 182.769 70.6959 182.462 69.5893 181.847C68.4826 181.207 67.6096 180.322 66.9702 179.191V182.4H61.8427V155.472H67.7448V166.206C68.3843 165.075 69.2327 164.202 70.2902 163.587C71.3722 162.972 72.6387 162.665 74.0897 162.665C75.3193 162.665 76.4382 162.935 77.4465 163.476C78.4794 163.993 79.3647 164.718 80.1025 165.653C80.8649 166.563 81.4551 167.632 81.8731 168.862C82.2912 170.067 82.5003 171.383 82.5003 172.809C82.5003 174.211 82.2666 175.514 81.7994 176.719C81.3567 177.924 80.7296 178.982 79.9181 179.892C79.1065 180.802 78.1474 181.515 77.0408 182.031C75.9587 182.523 74.766 182.769 73.4626 182.769ZM71.8026 177.789C72.4666 177.789 73.0814 177.666 73.647 177.42C74.2372 177.15 74.7414 176.793 75.1594 176.35C75.5775 175.908 75.8972 175.391 76.1185 174.801C76.3399 174.186 76.4505 173.522 76.4505 172.809C76.4505 171.899 76.2661 171.051 75.8972 170.264C75.5283 169.477 75.0119 168.85 74.3479 168.383C73.7085 167.915 72.9584 167.682 72.0977 167.682C71.4829 167.682 70.8927 167.829 70.327 168.124C69.7614 168.419 69.2573 168.825 68.8146 169.342C68.372 169.833 68.0154 170.399 67.7448 171.038V175.096C67.9416 175.514 68.1875 175.895 68.4826 176.24C68.7777 176.559 69.0974 176.83 69.4417 177.051C69.8106 177.273 70.1918 177.457 70.5853 177.605C71.0033 177.728 71.4091 177.789 71.8026 177.789ZM94.3285 182.769C92.6808 182.769 91.2176 182.511 89.9388 181.994C88.66 181.453 87.5656 180.728 86.6557 179.818C85.7704 178.908 85.0941 177.863 84.6268 176.682C84.1596 175.477 83.9259 174.223 83.9259 172.92C83.9259 171.051 84.3317 169.354 85.1433 167.829C85.9794 166.28 87.1721 165.038 88.7214 164.103C90.2708 163.144 92.1398 162.665 94.3285 162.665C96.5172 162.665 98.3739 163.132 99.8987 164.067C101.448 165.001 102.628 166.231 103.44 167.755C104.252 169.256 104.657 170.891 104.657 172.662C104.657 173.006 104.633 173.35 104.584 173.694C104.559 174.014 104.534 174.297 104.51 174.543H90.197C90.2708 175.404 90.5044 176.129 90.8979 176.719C91.3159 177.31 91.8447 177.764 92.4841 178.084C93.1235 178.379 93.7998 178.527 94.5129 178.527C95.3983 178.527 96.2221 178.318 96.9845 177.9C97.7714 177.482 98.3125 176.916 98.6076 176.203L103.624 177.605C103.133 178.613 102.432 179.511 101.522 180.298C100.636 181.06 99.579 181.662 98.3493 182.105C97.1443 182.548 95.804 182.769 94.3285 182.769ZM90.0494 170.928H98.46C98.3616 170.116 98.128 169.415 97.7591 168.825C97.3902 168.21 96.8984 167.743 96.2836 167.423C95.6688 167.079 94.9925 166.907 94.2547 166.907C93.4924 166.907 92.8038 167.079 92.189 167.423C91.5987 167.743 91.1192 168.21 90.7503 168.825C90.3814 169.415 90.1478 170.116 90.0494 170.928ZM123.268 163.071C123.096 162.898 122.776 162.665 122.309 162.37C121.866 162.075 121.313 161.792 120.649 161.521C120.01 161.251 119.309 161.017 118.546 160.82C117.784 160.599 117.009 160.488 116.222 160.488C114.845 160.488 113.8 160.747 113.087 161.263C112.398 161.779 112.054 162.505 112.054 163.439C112.054 164.153 112.275 164.718 112.718 165.136C113.161 165.554 113.825 165.911 114.71 166.206C115.595 166.501 116.702 166.821 118.03 167.165C119.751 167.583 121.239 168.1 122.493 168.715C123.772 169.305 124.744 170.092 125.408 171.075C126.096 172.034 126.441 173.313 126.441 174.912C126.441 176.314 126.182 177.519 125.666 178.527C125.149 179.511 124.436 180.31 123.526 180.925C122.616 181.539 121.584 181.994 120.428 182.289C119.272 182.56 118.042 182.695 116.739 182.695C115.435 182.695 114.132 182.56 112.829 182.289C111.525 182.019 110.271 181.638 109.066 181.146C107.861 180.629 106.754 180.015 105.746 179.302L107.996 174.912C108.218 175.133 108.611 175.428 109.177 175.797C109.742 176.141 110.431 176.498 111.242 176.867C112.054 177.211 112.939 177.506 113.898 177.752C114.858 177.998 115.829 178.121 116.813 178.121C118.19 178.121 119.235 177.887 119.948 177.42C120.661 176.953 121.018 176.289 121.018 175.428C121.018 174.641 120.735 174.026 120.169 173.584C119.604 173.141 118.817 172.76 117.809 172.44C116.8 172.096 115.608 171.727 114.23 171.334C112.583 170.866 111.206 170.35 110.099 169.784C108.992 169.194 108.168 168.456 107.627 167.571C107.086 166.686 106.816 165.579 106.816 164.251C106.816 162.456 107.234 160.956 108.07 159.751C108.931 158.521 110.087 157.599 111.538 156.984C112.989 156.345 114.599 156.025 116.37 156.025C117.6 156.025 118.755 156.16 119.837 156.431C120.944 156.701 121.977 157.058 122.936 157.5C123.895 157.943 124.756 158.423 125.518 158.939L123.268 163.071ZM141.76 181.367C141.219 181.589 140.616 181.81 139.952 182.031C139.313 182.253 138.636 182.425 137.923 182.548C137.21 182.695 136.509 182.769 135.821 182.769C134.837 182.769 133.927 182.609 133.091 182.289C132.279 181.945 131.628 181.392 131.136 180.629C130.668 179.867 130.435 178.859 130.435 177.605V167.497H127.963V163.034H130.435V156.873H136.337V163.034H140.284V167.497H136.337V175.576C136.337 176.215 136.497 176.682 136.817 176.978C137.136 177.248 137.542 177.383 138.034 177.383C138.452 177.383 138.895 177.31 139.362 177.162C139.854 177.014 140.272 176.855 140.616 176.682L141.76 181.367ZM142.473 176.609C142.473 175.33 142.83 174.211 143.543 173.252C144.256 172.293 145.24 171.543 146.494 171.002C147.748 170.436 149.187 170.153 150.81 170.153C151.597 170.153 152.372 170.227 153.134 170.374C153.896 170.497 154.56 170.682 155.126 170.928V170.079C155.126 169.022 154.806 168.21 154.167 167.645C153.527 167.079 152.556 166.796 151.253 166.796C150.171 166.796 149.15 166.981 148.191 167.35C147.256 167.719 146.26 168.247 145.203 168.936L143.432 165.173C144.711 164.337 146.039 163.71 147.416 163.292C148.818 162.874 150.294 162.665 151.843 162.665C154.745 162.665 156.995 163.366 158.593 164.767C160.217 166.145 161.028 168.149 161.028 170.78V175.834C161.028 176.424 161.114 176.842 161.286 177.088C161.483 177.31 161.815 177.445 162.282 177.494V182.4C161.79 182.499 161.323 182.572 160.881 182.621C160.462 182.671 160.094 182.695 159.774 182.695C158.667 182.695 157.819 182.474 157.229 182.031C156.663 181.589 156.306 180.986 156.159 180.224L156.048 179.375C155.187 180.482 154.155 181.33 152.95 181.921C151.769 182.486 150.527 182.769 149.224 182.769C147.945 182.769 146.789 182.499 145.756 181.957C144.748 181.416 143.949 180.679 143.359 179.744C142.768 178.81 142.473 177.764 142.473 176.609ZM154.204 177.346C154.474 177.125 154.696 176.879 154.868 176.609C155.04 176.338 155.126 176.08 155.126 175.834V174.1C154.634 173.903 154.081 173.756 153.466 173.658C152.876 173.535 152.322 173.473 151.806 173.473C150.724 173.473 149.826 173.719 149.113 174.211C148.4 174.678 148.043 175.305 148.043 176.092C148.043 176.535 148.166 176.941 148.412 177.31C148.658 177.678 148.99 177.974 149.408 178.195C149.851 178.416 150.367 178.527 150.958 178.527C151.548 178.527 152.138 178.416 152.728 178.195C153.318 177.974 153.81 177.691 154.204 177.346ZM172.351 182.769C170.703 182.769 169.092 182.499 167.518 181.957C165.944 181.416 164.616 180.617 163.534 179.56L165.563 175.834C166.744 176.695 167.887 177.346 168.994 177.789C170.125 178.232 171.182 178.453 172.166 178.453C172.928 178.453 173.519 178.33 173.937 178.084C174.355 177.838 174.564 177.457 174.564 176.941C174.564 176.572 174.441 176.289 174.195 176.092C173.949 175.871 173.568 175.674 173.051 175.502C172.56 175.33 171.945 175.145 171.207 174.949C169.731 174.457 168.502 173.977 167.518 173.51C166.534 173.043 165.797 172.477 165.305 171.813C164.813 171.125 164.567 170.239 164.567 169.157C164.567 167.854 164.887 166.723 165.526 165.763C166.19 164.78 167.125 164.017 168.33 163.476C169.535 162.935 170.973 162.665 172.646 162.665C173.974 162.665 175.265 162.874 176.519 163.292C177.798 163.71 178.991 164.411 180.097 165.395L177.81 169.083C176.703 168.321 175.72 167.768 174.859 167.423C173.998 167.079 173.162 166.907 172.351 166.907C171.933 166.907 171.551 166.956 171.207 167.055C170.863 167.153 170.58 167.325 170.359 167.571C170.162 167.792 170.063 168.087 170.063 168.456C170.063 168.825 170.162 169.12 170.359 169.342C170.58 169.563 170.912 169.76 171.355 169.932C171.822 170.079 172.4 170.264 173.088 170.485C174.687 170.952 176.015 171.432 177.072 171.924C178.13 172.391 178.917 172.981 179.433 173.694C179.974 174.383 180.245 175.305 180.245 176.461C180.245 178.428 179.532 179.978 178.105 181.109C176.703 182.216 174.785 182.769 172.351 182.769ZM201.569 182.4H195.667V171.518C195.667 170.264 195.408 169.342 194.892 168.751C194.4 168.161 193.736 167.866 192.9 167.866C192.457 167.866 191.953 168.014 191.388 168.309C190.847 168.579 190.342 168.973 189.875 169.489C189.408 170.006 189.051 170.608 188.805 171.297V182.4H182.903V155.472H188.805V166.28C189.519 165.124 190.453 164.239 191.609 163.624C192.789 162.984 194.08 162.665 195.482 162.665C196.81 162.665 197.868 162.886 198.655 163.329C199.466 163.771 200.081 164.362 200.499 165.099C200.917 165.813 201.2 166.6 201.348 167.46C201.495 168.321 201.569 169.169 201.569 170.006V182.4Z" fill="#431BB1"/>
</svg>
