<svg width="110" height="35" viewBox="0 0 110 35" fill="none" xmlns="http://www.w3.org/2000/svg">
<g clip-path="url(#clip0_5524_2205)">
<path d="M4.97228 29.147H1.47825V31.7646H5.56241V32.9448H0V24.4376H5.52151V25.6296H1.47825V27.9784H4.97228V29.147Z" fill="#FC6011"/>
<path d="M14.2286 26.6229L14.2695 27.3532C14.7369 26.7884 15.3504 26.506 16.11 26.506C17.4266 26.506 18.0965 27.2597 18.1199 28.7672V32.9448H16.7001V28.849C16.7001 28.4478 16.6125 28.1517 16.4372 27.9609C16.2658 27.7661 15.9834 27.6687 15.5899 27.6687C15.0173 27.6687 14.5908 27.9278 14.3104 28.4458V32.9448H12.8905V26.6229H14.2286Z" fill="#FC6011"/>
<path d="M27.6333 25.0862V26.6229H28.7493V27.6746H27.6333V31.2037C27.6333 31.4452 27.68 31.6205 27.7735 31.7295C27.8709 31.8347 28.0423 31.8873 28.2877 31.8873C28.4513 31.8873 28.6168 31.8678 28.7843 31.8289V32.9273C28.461 33.0169 28.1494 33.0617 27.8495 33.0617C26.7588 33.0617 26.2135 32.4599 26.2135 31.2563V27.6746H25.1734V26.6229H26.2135V25.0862H27.6333Z" fill="#FC6011"/>
<path d="M38.9053 33.0617C38.0055 33.0617 37.2752 32.7793 36.7143 32.2145C36.1572 31.6458 35.8787 30.8901 35.8787 29.9474V29.7722C35.8787 29.1411 35.9995 28.5783 36.241 28.0836C36.4864 27.585 36.8292 27.1974 37.2693 26.9208C37.7095 26.6443 38.2003 26.506 38.7417 26.506C39.6026 26.506 40.2667 26.7806 40.7342 27.3298C41.2055 27.8791 41.4412 28.6562 41.4412 29.6611V30.2338H37.3102C37.3531 30.7557 37.5264 31.1686 37.8303 31.4724C38.138 31.7763 38.5236 31.9282 38.9871 31.9282C39.6377 31.9282 40.1674 31.6653 40.5764 31.1394L41.3418 31.8698C41.0886 32.2476 40.7497 32.5417 40.3252 32.752C39.9045 32.9585 39.4312 33.0617 38.9053 33.0617ZM38.7359 27.6454C38.3464 27.6454 38.0309 27.7817 37.7894 28.0544C37.5517 28.327 37.3998 28.7068 37.3336 29.1937H40.0389V29.0885C40.0077 28.6133 39.8811 28.255 39.6591 28.0135C39.437 27.7681 39.1293 27.6454 38.7359 27.6454Z" fill="#FC6011"/>
<path d="M52.1406 27.92C51.9536 27.8888 51.7608 27.8732 51.5622 27.8732C50.9117 27.8732 50.4735 28.1225 50.2475 28.6211V32.9448H48.8277V26.6229H50.1833L50.2183 27.3298C50.5611 26.7806 51.0363 26.506 51.644 26.506C51.8465 26.506 52.014 26.5333 52.1465 26.5878L52.1406 27.92Z" fill="#FC6011"/>
<path d="M64.8559 29.8481C64.8559 30.8258 64.6338 31.6068 64.1898 32.1911C63.7457 32.7715 63.1498 33.0617 62.4019 33.0617C61.7085 33.0617 61.1534 32.8338 60.7367 32.3781V35.3755H59.3168V26.6229H60.6256L60.6841 27.2656C61.1009 26.7592 61.6676 26.506 62.3843 26.506C63.1556 26.506 63.7594 26.7942 64.1956 27.3707C64.6358 27.9433 64.8559 28.7399 64.8559 29.7605V29.8481ZM63.4419 29.7254C63.4419 29.0944 63.3153 28.5939 63.0621 28.2238C62.8128 27.8538 62.4545 27.6687 61.987 27.6687C61.4066 27.6687 60.9898 27.9083 60.7367 28.3874V31.192C60.9937 31.6828 61.4144 31.9282 61.9987 31.9282C62.4506 31.9282 62.8031 31.7471 63.0563 31.3848C63.3134 31.0186 63.4419 30.4655 63.4419 29.7254Z" fill="#FC6011"/>
<path d="M75.6547 27.92C75.4677 27.8888 75.2749 27.8732 75.0762 27.8732C74.4257 27.8732 73.9875 28.1225 73.7616 28.6211V32.9448H72.3418V26.6229H73.6973L73.7324 27.3298C74.0752 26.7806 74.5504 26.506 75.158 26.506C75.3606 26.506 75.5281 26.5333 75.6605 26.5878L75.6547 27.92Z" fill="#FC6011"/>
<path d="M84.3442 32.9448H82.9244V26.6229H84.3442V32.9448ZM82.8367 24.981C82.8367 24.7629 82.9049 24.5817 83.0412 24.4376C83.1815 24.2935 83.3801 24.2214 83.6372 24.2214C83.8943 24.2214 84.0929 24.2935 84.2332 24.4376C84.3734 24.5817 84.4435 24.7629 84.4435 24.981C84.4435 25.1952 84.3734 25.3744 84.2332 25.5186C84.0929 25.6588 83.8943 25.7289 83.6372 25.7289C83.3801 25.7289 83.1815 25.6588 83.0412 25.5186C82.9049 25.3744 82.8367 25.1952 82.8367 24.981Z" fill="#FC6011"/>
<path d="M95.7214 31.227C95.7214 30.9738 95.6163 30.781 95.4059 30.6486C95.1995 30.5162 94.8547 30.3993 94.3717 30.298C93.8887 30.1967 93.4856 30.0682 93.1623 29.9124C92.4533 29.5696 92.0989 29.073 92.0989 28.4225C92.0989 27.8771 92.3287 27.4214 92.7883 27.0552C93.2479 26.6891 93.8322 26.506 94.5412 26.506C95.2968 26.506 95.9065 26.693 96.37 27.0669C96.8374 27.4409 97.0711 27.9258 97.0711 28.5218H95.6513C95.6513 28.2491 95.55 28.0232 95.3475 27.844C95.1449 27.6609 94.8762 27.5694 94.5412 27.5694C94.2296 27.5694 93.9744 27.6415 93.7758 27.7856C93.581 27.9297 93.4836 28.1225 93.4836 28.364C93.4836 28.5822 93.5752 28.7516 93.7582 28.8724C93.9413 28.9931 94.3114 29.1158 94.8684 29.2405C95.4254 29.3612 95.8617 29.5073 96.1772 29.6787C96.4966 29.8462 96.7322 30.0487 96.8842 30.2863C97.04 30.5239 97.1179 30.8122 97.1179 31.1511C97.1179 31.7198 96.8822 32.1814 96.4109 32.5358C95.9396 32.8864 95.3222 33.0617 94.5587 33.0617C94.0406 33.0617 93.579 32.9682 93.1739 32.7812C92.7688 32.5943 92.4533 32.3372 92.2274 32.01C92.0015 31.6828 91.8885 31.3303 91.8885 30.9524H93.2674C93.2869 31.2874 93.4135 31.5464 93.6472 31.7295C93.8809 31.9087 94.1906 31.9983 94.5762 31.9983C94.9502 31.9983 95.2345 31.9282 95.4293 31.788C95.6241 31.6438 95.7214 31.4569 95.7214 31.227Z" fill="#FC6011"/>
<path d="M107.426 33.0617C106.526 33.0617 105.796 32.7793 105.235 32.2145C104.678 31.6458 104.399 30.8901 104.399 29.9474V29.7722C104.399 29.1411 104.52 28.5783 104.762 28.0836C105.007 27.585 105.35 27.1974 105.79 26.9208C106.23 26.6443 106.721 26.506 107.262 26.506C108.123 26.506 108.787 26.7806 109.255 27.3298C109.726 27.8791 109.962 28.6562 109.962 29.6611V30.2338H105.831C105.874 30.7557 106.047 31.1686 106.351 31.4724C106.659 31.7763 107.044 31.9282 107.508 31.9282C108.158 31.9282 108.688 31.6653 109.097 31.1394L109.862 31.8698C109.609 32.2476 109.27 32.5417 108.846 32.752C108.425 32.9585 107.952 33.0617 107.426 33.0617ZM107.256 27.6454C106.867 27.6454 106.551 27.7817 106.31 28.0544C106.072 28.327 105.92 28.7068 105.854 29.1937H108.559V29.0885C108.528 28.6133 108.402 28.255 108.18 28.0135C107.958 27.7681 107.65 27.6454 107.256 27.6454Z" fill="#FC6011"/>
<path d="M8.60077 0.118431L2.24675 3.17844C2.08498 3.25627 1.94284 3.36958 1.83093 3.50995C1.71901 3.65032 1.6402 3.81412 1.60035 3.98916L0.0307062 10.8649C-0.00990596 11.0404 -0.010237 11.2228 0.0297384 11.3984C0.0697138 11.574 0.148957 11.7383 0.261518 11.8789L4.661 17.3903C4.77324 17.5301 4.91545 17.6429 5.07713 17.7203C5.23881 17.7978 5.41583 17.838 5.59511 17.8378H12.6454C12.8247 17.8381 13.0018 17.798 13.1635 17.7205C13.3252 17.6431 13.4674 17.5302 13.5795 17.3903L17.9771 11.8789C18.0892 11.7387 18.1681 11.5749 18.2081 11.3999C18.2481 11.2249 18.248 11.0431 18.2079 10.8681L16.6382 3.98916C16.5984 3.81412 16.5196 3.65032 16.4077 3.50995C16.2958 3.36958 16.1536 3.25627 15.9918 3.17844L9.63783 0.118431C9.47608 0.0404804 9.29885 0 9.1193 0C8.93975 0 8.76252 0.0404804 8.60077 0.118431V0.118431Z" fill="#431BB1"/>
<path d="M3.62783 9.44297L3.63359 8.82662C3.62672 8.7481 3.6427 8.66928 3.67962 8.59964C3.78256 8.44428 3.95199 8.53571 4.07539 8.59964C4.2546 8.69223 4.43929 8.7738 4.62844 8.84388C5.00572 8.98018 5.39365 9.08497 5.78825 9.15717C5.94681 9.18786 6.10793 9.21471 6.26522 9.23965C7.41595 9.41551 8.58232 9.46653 9.74401 9.39182C10.4706 9.35397 11.1928 9.25581 11.9031 9.09835C12.4242 8.97879 12.9338 8.82342 13.4012 8.55297C13.593 8.44364 13.758 8.54274 13.7605 8.76588C13.7648 9.15206 13.7648 9.53845 13.7605 9.92505C13.7605 10.1341 13.6019 10.2307 13.4146 10.145C12.8353 9.87807 12.186 9.80265 11.5609 9.92969C10.9359 10.0567 10.3675 10.3796 9.93838 10.8515C9.7609 11.0466 9.61037 11.2647 9.49082 11.4998C9.45735 11.5807 9.39798 11.6481 9.32203 11.6916C9.25649 11.7168 9.18612 11.7268 9.11615 11.721C8.26552 11.7279 7.41539 11.6777 6.57147 11.5708C6.47173 11.5574 6.37135 11.5433 6.27097 11.5273C5.59388 11.4237 4.91296 11.2716 4.31004 10.9519C4.13113 10.8637 3.97007 10.7431 3.83499 10.5964C3.62719 10.3541 3.62208 10.0721 3.62463 9.76905L3.62783 9.44297Z" fill="white"/>
<path d="M8.3378 14.4896C7.49127 14.4487 6.64987 14.3918 5.81869 14.2083C5.23687 14.0804 4.58472 13.9378 4.0924 13.5823C3.84305 13.402 3.62439 13.1495 3.62822 12.8247C3.63334 12.3931 3.62822 11.9615 3.62822 11.5293C3.62822 11.3145 3.79893 11.2096 3.98499 11.3126C4.60709 11.661 5.28546 11.8286 5.97853 11.9551C6.94078 12.1297 7.91134 12.184 8.88637 12.1892C8.99059 12.1892 9.11271 12.2058 9.15618 12.3138C9.21053 12.4481 9.15235 12.6335 9.14659 12.7723C9.13192 13.17 9.19827 13.5665 9.3416 13.9378C9.38636 14.0516 9.4407 14.1789 9.43047 14.3035C9.41769 14.457 9.2815 14.5005 9.14851 14.5037C8.88062 14.5107 8.60953 14.5005 8.3378 14.4896Z" fill="white"/>
<path d="M10.4001 12.9996C10.4001 11.9127 11.2991 11.0284 12.4078 11.0259C13.5068 11.0259 14.4134 11.9133 14.4134 12.9945C14.4048 13.5205 14.1899 14.0221 13.815 14.3912C13.4402 14.7604 12.9354 14.9676 12.4093 14.9683C11.8832 14.969 11.3779 14.763 11.0021 14.3948C10.6264 14.0266 10.4102 13.5256 10.4001 12.9996V12.9996ZM12.4078 11.5016C12.1118 11.5061 11.8239 11.598 11.58 11.7657C11.3362 11.9334 11.1473 12.1695 11.0373 12.4442C10.9272 12.7189 10.9007 13.0201 10.9613 13.3098C11.0218 13.5995 11.1667 13.8648 11.3776 14.0724C11.5885 14.2801 11.856 14.4207 12.1467 14.4767C12.4373 14.5327 12.7379 14.5016 13.0109 14.3872C13.2839 14.2729 13.5169 14.0804 13.6808 13.8339C13.8447 13.5875 13.9321 13.2981 13.932 13.0022C13.9278 12.6014 13.7651 12.2186 13.4795 11.9374C13.1939 11.6562 12.8086 11.4995 12.4078 11.5016V11.5016Z" fill="white"/>
<path d="M12.2058 10.8956L12.2787 10.8425L12.225 10.7958C12.2579 10.7746 12.2823 10.7425 12.294 10.7051C12.3056 10.6677 12.3039 10.6274 12.2889 10.5912C12.2717 10.5318 12.248 10.4742 12.2282 10.4154C12.212 10.3775 12.2076 10.3355 12.2155 10.295C12.2235 10.2545 12.2435 10.2174 12.2729 10.1884C12.305 10.1625 12.344 10.1466 12.3851 10.1428C12.4261 10.1389 12.4674 10.1472 12.5038 10.1667C12.5926 10.2121 12.6214 10.3189 12.576 10.4346C12.5562 10.4857 12.5364 10.5375 12.5217 10.5906C12.5062 10.6269 12.5042 10.6676 12.5159 10.7052C12.5276 10.7429 12.5523 10.7753 12.5856 10.7965L12.5319 10.8393L12.6169 10.9084H12.2058V10.8956Z" fill="white"/>
<path d="M12.224 15.2088L12.2778 15.1653L12.1934 15.0969H12.6211L12.5367 15.1609L12.5885 15.2069C12.5554 15.228 12.5308 15.2601 12.5191 15.2975C12.5074 15.335 12.5094 15.3753 12.5246 15.4115C12.5405 15.469 12.5636 15.5247 12.5834 15.5803C12.6056 15.6179 12.6143 15.6619 12.6081 15.7052C12.6019 15.7484 12.5811 15.7882 12.5492 15.818C12.5173 15.8478 12.4762 15.8659 12.4326 15.8691C12.3891 15.8724 12.3457 15.8607 12.3097 15.836C12.2202 15.7906 12.1921 15.6832 12.2375 15.5681C12.2573 15.517 12.2771 15.4652 12.2925 15.4121C12.3068 15.3756 12.3078 15.3352 12.2953 15.298C12.2827 15.2608 12.2575 15.2293 12.224 15.2088V15.2088Z" fill="white"/>
<path d="M10.7159 14.432L10.7837 14.4422L10.7799 14.3726L11.0356 14.6443L11.0548 14.6283L10.9711 14.6219L10.9749 14.6827C10.9749 14.6827 10.9685 14.689 10.9659 14.6884C10.9307 14.6814 10.8941 14.6864 10.862 14.7027C10.8299 14.7189 10.8041 14.7454 10.7888 14.7779C10.76 14.8301 10.7342 14.8839 10.7115 14.939C10.6661 15.0388 10.5868 15.0931 10.5018 15.081C10.4563 15.075 10.4141 15.0539 10.382 15.0211C10.3499 14.9883 10.3297 14.9457 10.3247 14.9C10.3144 14.8169 10.372 14.7376 10.4724 14.6935C10.5235 14.6728 10.5734 14.6493 10.622 14.6232C10.6573 14.6071 10.686 14.5792 10.7031 14.5444C10.7202 14.5095 10.7248 14.4698 10.7159 14.432V14.432Z" fill="white"/>
<path d="M13.8378 14.6921L13.8442 14.6218L13.7803 14.6288L14.0315 14.3533V14.4364L14.0955 14.4326C14.0955 14.4364 14.1012 14.4402 14.1006 14.4434C14.0932 14.4774 14.0975 14.5129 14.1128 14.5441C14.1281 14.5754 14.1536 14.6005 14.185 14.6154C14.2388 14.646 14.2945 14.6732 14.3519 14.6966C14.3945 14.7109 14.431 14.7393 14.4553 14.7771C14.4796 14.8149 14.4903 14.8599 14.4856 14.9046C14.4809 14.9493 14.4611 14.9911 14.4295 15.023C14.3978 15.0549 14.3562 15.0751 14.3116 15.0802C14.2659 15.0814 14.221 15.0677 14.1838 15.0412C14.1465 15.0147 14.1189 14.9768 14.1051 14.9332C14.0846 14.882 14.0611 14.832 14.0347 14.7836C14.0182 14.7473 13.9893 14.7182 13.9532 14.7014C13.9171 14.6847 13.8762 14.6814 13.8378 14.6921Z" fill="white"/>
<path d="M13.7603 11.3725L13.8402 11.3821V11.3137C13.9444 11.3342 14.0019 11.2734 14.0454 11.1929C14.078 11.1328 14.1004 11.065 14.1368 11.0087C14.1563 10.9732 14.1877 10.9456 14.2254 10.9307C14.2631 10.9159 14.3049 10.9147 14.3434 10.9275C14.3839 10.94 14.4197 10.9644 14.4461 10.9976C14.4725 11.0308 14.4881 11.0713 14.491 11.1136C14.4887 11.1566 14.4734 11.198 14.4472 11.2322C14.4209 11.2664 14.385 11.2919 14.344 11.3054C14.3031 11.3233 14.2615 11.3386 14.2225 11.3591C14.1388 11.4026 14.0761 11.4614 14.0946 11.5688L14.0262 11.563L14.0333 11.627L13.7775 11.3514L13.7603 11.3725Z" fill="white"/>
<path d="M10.9754 11.3136L10.9703 11.3776L11.0515 11.3693L11.0399 11.3584L10.7804 11.6455L10.7855 11.5655H10.7177C10.7382 11.4645 10.6806 11.4063 10.6026 11.3635C10.5387 11.3296 10.4747 11.3066 10.4108 11.2689C10.3761 11.2501 10.349 11.2199 10.334 11.1835C10.3189 11.147 10.317 11.1065 10.3283 11.0688C10.3395 11.0279 10.3629 10.9914 10.3953 10.9641C10.4278 10.9368 10.4677 10.92 10.5099 10.9159C10.5924 10.9083 10.6698 10.9677 10.7132 11.0688C10.7346 11.1221 10.7598 11.1738 10.7887 11.2235C10.8051 11.2574 10.8324 11.2847 10.8663 11.3011C10.9002 11.3174 10.9386 11.3219 10.9754 11.3136V11.3136Z" fill="white"/>
<path d="M14.6096 13.1916C14.5911 13.145 14.5706 13.1162 14.5291 13.1725V12.8419L14.5738 12.87L14.6128 12.8208C14.6672 12.9033 14.7452 12.909 14.8302 12.8847C14.8871 12.8681 14.9421 12.8438 14.9983 12.8253C15.0364 12.8092 15.0785 12.8053 15.1188 12.8143C15.1592 12.8232 15.1957 12.8445 15.2234 12.8752C15.2496 12.9073 15.2654 12.9468 15.2684 12.9882C15.2715 13.0296 15.2618 13.0709 15.2407 13.1066C15.1946 13.1916 15.0891 13.2185 14.9772 13.1757C14.9218 13.1534 14.8652 13.134 14.8078 13.1175C14.7713 13.1046 14.7315 13.105 14.6953 13.1186C14.659 13.1321 14.6287 13.158 14.6096 13.1916V13.1916Z" fill="white"/>
<path d="M10.2036 12.8149C10.2253 12.8571 10.2419 12.8974 10.2848 12.8309V13.1627L10.24 13.1352L10.201 13.1851C10.1799 13.1519 10.1477 13.1272 10.1101 13.1155C10.0725 13.1038 10.032 13.1058 9.99577 13.1212C9.9363 13.1378 9.8794 13.1614 9.82058 13.1813C9.78271 13.1974 9.74089 13.2019 9.70046 13.1941C9.66004 13.1864 9.62284 13.1668 9.5936 13.1378C9.56759 13.1058 9.55159 13.0668 9.54761 13.0257C9.54363 12.9847 9.55184 12.9434 9.57123 12.907C9.61726 12.8168 9.72212 12.7887 9.83784 12.8334C9.89116 12.855 9.94558 12.8738 10.0009 12.8897C10.038 12.9033 10.0788 12.9032 10.116 12.8895C10.1531 12.8758 10.1841 12.8494 10.2036 12.8149V12.8149Z" fill="white"/>
<path d="M11.8219 12.8668C11.8477 12.8509 11.8687 12.8281 11.8823 12.801C11.896 12.7739 11.9018 12.7436 11.8992 12.7133C11.8992 12.6986 11.8845 12.675 11.873 12.6724C11.8346 12.6648 11.7983 12.6487 11.7669 12.6252C11.7355 12.6018 11.7097 12.5716 11.6915 12.5369C11.6672 12.4921 11.6409 12.448 11.6186 12.4026C11.5649 12.2926 11.5655 12.2926 11.4427 12.322V12.1986H11.3002C11.3078 12.1731 11.3085 12.1468 11.3213 12.1347C11.3961 12.0586 11.4734 11.9857 11.5508 11.9135C11.5617 11.9032 11.5828 11.9045 11.5987 11.9001C11.6017 11.9163 11.6034 11.9328 11.6039 11.9493C11.6039 11.9768 11.6039 12.0043 11.6007 12.0356H11.7285C11.703 12.159 11.7036 12.1577 11.8161 12.214C11.8712 12.2374 11.9232 12.2674 11.9709 12.3035C12.0132 12.3455 12.0505 12.3923 12.0821 12.4429C12.0917 12.4563 12.0936 12.4902 12.0987 12.4902C12.1353 12.4935 12.1722 12.4887 12.2068 12.4761C12.2707 12.4442 12.2848 12.4122 12.2471 12.3425C12.2325 12.314 12.224 12.2829 12.222 12.251C12.22 12.2191 12.2246 12.1871 12.2356 12.1571C12.2486 12.0986 12.2659 12.0411 12.2873 11.9851C12.3136 11.9212 12.3014 11.8783 12.233 11.8572C12.2219 11.8514 12.2114 11.8446 12.2017 11.8368L12.3014 11.744L12.1844 11.6501C12.3317 11.6182 12.484 11.6167 12.632 11.6456L12.5239 11.7472L12.6205 11.838L12.5642 11.8687C12.555 11.8715 12.5466 11.8762 12.5396 11.8826C12.5325 11.889 12.5269 11.8969 12.5233 11.9057C12.5197 11.9146 12.5181 11.9241 12.5187 11.9336C12.5192 11.9431 12.5219 11.9524 12.5265 11.9608C12.5476 12.019 12.5616 12.0804 12.5821 12.1385C12.606 12.2158 12.6024 12.2989 12.5719 12.3738C12.5661 12.3924 12.5488 12.4211 12.5546 12.4263C12.5786 12.4544 12.6091 12.4764 12.6435 12.4902C12.7144 12.51 12.7336 12.5036 12.7586 12.4263C12.7815 12.3641 12.8272 12.3129 12.8864 12.283C12.9242 12.26 12.9638 12.2389 13.0034 12.2191C13.1166 12.1628 13.1172 12.1635 13.091 12.0407H13.2125C13.2125 12.0113 13.2125 11.98 13.2125 11.9486C13.2137 11.9342 13.2158 11.9199 13.2189 11.9058C13.233 11.9058 13.2521 11.9058 13.2611 11.9148C13.3434 11.9915 13.4243 12.0697 13.5041 12.1494C13.5143 12.1603 13.5111 12.1839 13.5149 12.2057L13.3755 12.1986L13.3826 12.3176C13.3698 12.3227 13.3653 12.3271 13.3621 12.3259C13.2534 12.2977 13.2541 12.2984 13.2029 12.402C13.1816 12.4531 13.1541 12.5014 13.1211 12.5458C13.0757 12.5941 13.0258 12.638 12.9721 12.6769C12.9574 12.689 12.919 12.6922 12.9197 12.698C12.9201 12.7365 12.9268 12.7747 12.9395 12.8111C12.9657 12.8751 13.0207 12.8751 13.0674 12.8438C13.0945 12.829 13.1244 12.8202 13.1552 12.818C13.1859 12.8158 13.2168 12.8202 13.2458 12.831C13.3001 12.8438 13.3532 12.8597 13.4056 12.877C13.5124 12.9102 13.5124 12.9109 13.5897 12.7856L13.6537 12.9007L13.7457 12.8009C13.7962 12.8009 13.7937 12.8399 13.795 12.8757C13.8078 13.1583 13.8039 13.1871 13.7477 13.2146L13.6588 13.1212L13.5712 13.2165C13.5623 13.2032 13.5542 13.1893 13.5469 13.1749C13.5439 13.1631 13.5382 13.1521 13.5301 13.1429C13.5221 13.1336 13.512 13.1264 13.5006 13.1219C13.4893 13.1173 13.477 13.1155 13.4648 13.1166C13.4526 13.1178 13.4409 13.1217 13.4305 13.1283C13.3813 13.1481 13.3289 13.1609 13.2784 13.1769C13.2314 13.1949 13.1807 13.2009 13.1309 13.1942C13.081 13.1875 13.0337 13.1683 12.9932 13.1385C12.9817 13.1526 12.9721 13.1647 12.9619 13.1756C12.8871 13.2568 12.8915 13.3239 12.9881 13.3572C13.0484 13.3795 13.0979 13.4241 13.1262 13.4818C13.153 13.5247 13.1767 13.5701 13.1997 13.6161C13.2502 13.7191 13.2496 13.7197 13.3685 13.6858V13.8137C13.4024 13.8137 13.4324 13.8079 13.4651 13.8079C13.4785 13.8079 13.4989 13.8079 13.5041 13.8194C13.507 13.8261 13.5081 13.8334 13.5075 13.8407C13.5068 13.848 13.5043 13.8549 13.5002 13.861C13.419 13.9422 13.3372 14.0234 13.2515 14.1001C13.2247 14.1244 13.2016 14.1123 13.2055 14.0713C13.2093 14.0304 13.2106 14.0074 13.2138 13.9722H13.0808C13.0878 13.9499 13.091 13.9352 13.0968 13.9217C13.1018 13.9124 13.1046 13.902 13.1051 13.8914C13.1056 13.8808 13.1037 13.8702 13.0996 13.8604C13.0955 13.8506 13.0893 13.8419 13.0814 13.8348C13.0735 13.8277 13.0641 13.8225 13.0539 13.8194C12.9862 13.7862 12.9203 13.7497 12.8545 13.7133C12.8233 13.6957 12.7965 13.6713 12.7759 13.642C12.7553 13.6127 12.7415 13.5792 12.7355 13.5439C12.7279 13.5093 12.6454 13.5017 12.6019 13.533C12.5795 13.5496 12.5597 13.5701 12.5329 13.5937C12.6198 13.7005 12.5968 13.8156 12.5572 13.932C12.5508 13.9505 12.545 13.9697 12.5393 13.9889C12.5028 14.1046 12.5028 14.1046 12.6115 14.1717L12.5175 14.2606L12.6224 14.3597C12.4777 14.3898 12.3284 14.3898 12.1838 14.3597L12.2899 14.2587L12.1934 14.166C12.2183 14.1532 12.2311 14.1455 12.2445 14.1398C12.2548 14.137 12.2643 14.1319 12.2722 14.1249C12.2802 14.1178 12.2864 14.109 12.2904 14.0992C12.2945 14.0894 12.2962 14.0787 12.2954 14.0681C12.2946 14.0575 12.2914 14.0473 12.2861 14.0381C12.2669 13.9882 12.2541 13.9364 12.2375 13.8859C12.2181 13.8376 12.2111 13.7851 12.2172 13.7334C12.2234 13.6817 12.2424 13.6323 12.2726 13.5899C12.2539 13.5684 12.2324 13.5495 12.2087 13.5336C12.1807 13.5238 12.1518 13.5168 12.1224 13.5125C12.07 13.4991 12.0834 13.5387 12.0738 13.5662C12.0451 13.6398 11.9893 13.6996 11.9178 13.7331C11.8769 13.7549 11.836 13.7779 11.7944 13.7971C11.694 13.8469 11.6934 13.8469 11.7305 13.9639H11.6026C11.6026 13.9991 11.6026 14.0323 11.609 14.0656C11.6154 14.0988 11.5904 14.1187 11.5642 14.095C11.4785 14.0183 11.3961 13.9377 11.3149 13.8559C11.3053 13.8456 11.3091 13.822 11.3066 13.8041H11.4383L11.4332 13.6871C11.4472 13.6832 11.4517 13.68 11.4555 13.6813C11.5604 13.7114 11.5591 13.7107 11.6071 13.6174C11.634 13.5566 11.6672 13.4987 11.7062 13.4448C11.7477 13.4016 11.7943 13.3636 11.8449 13.3316C11.8602 13.3207 11.8961 13.315 11.8961 13.3092C11.8942 13.2708 11.8866 13.2329 11.8737 13.1967C11.8647 13.1737 11.8404 13.157 11.818 13.1327C11.6851 13.2395 11.5482 13.1781 11.4127 13.1327C11.3014 13.0976 11.3014 13.0969 11.2356 13.2197L11.1467 13.111L11.0483 13.2139C11.0342 13.1921 11.0238 13.1682 11.0176 13.143C10.9977 12.9186 11.0099 12.8233 11.061 12.7913L11.1499 12.8879L11.2407 12.79C11.2535 12.8137 11.2618 12.8265 11.2676 12.8399C11.2704 12.8501 11.2755 12.8596 11.2825 12.8676C11.2895 12.8755 11.2982 12.8818 11.308 12.8859C11.3178 12.8901 11.3284 12.8919 11.339 12.8914C11.3496 12.8908 11.3599 12.8879 11.3692 12.8828C11.4184 12.8636 11.4702 12.8495 11.5214 12.8348C11.6883 12.7869 11.7113 12.8214 11.8219 12.8668ZM12.4037 12.5727C12.2919 12.5753 12.1854 12.6214 12.1069 12.7011C12.0284 12.7808 11.984 12.8879 11.983 12.9998C11.9825 13.0558 11.9931 13.1113 12.0142 13.1633C12.0352 13.2152 12.0664 13.2624 12.1058 13.3022C12.1452 13.342 12.1921 13.3737 12.2437 13.3953C12.2954 13.4169 12.3509 13.4281 12.4069 13.4281C12.5188 13.4282 12.6264 13.3849 12.707 13.3072C12.7876 13.2296 12.835 13.1237 12.8391 13.0119C12.837 12.8964 12.7903 12.7862 12.7088 12.7043C12.6273 12.6225 12.5173 12.5753 12.4018 12.5727H12.4037Z" fill="white"/>
<path d="M12.4113 12.7102C12.4872 12.7144 12.5586 12.7478 12.6105 12.8033C12.6624 12.8589 12.6909 12.9323 12.6901 13.0083C12.6893 13.0843 12.6592 13.1571 12.6061 13.2115C12.5529 13.2659 12.4809 13.2977 12.4049 13.3003C12.365 13.3017 12.3253 13.295 12.288 13.2805C12.2508 13.2661 12.2169 13.2443 12.1884 13.2164C12.1598 13.1885 12.1372 13.1551 12.1219 13.1183C12.1066 13.0814 12.099 13.0418 12.0994 13.0019C12.0998 12.962 12.1083 12.9226 12.1244 12.886C12.1405 12.8495 12.1638 12.8166 12.193 12.7894C12.2221 12.7621 12.2565 12.741 12.294 12.7274C12.3316 12.7138 12.3715 12.7079 12.4113 12.7102V12.7102ZM12.5712 13.0062C12.5714 12.9737 12.562 12.9419 12.5442 12.9147C12.5263 12.8875 12.5008 12.8663 12.4709 12.8536C12.441 12.8409 12.408 12.8374 12.376 12.8435C12.3441 12.8496 12.3147 12.865 12.2916 12.8878C12.2684 12.9106 12.2525 12.9398 12.2459 12.9716C12.2393 13.0034 12.2423 13.0365 12.2545 13.0666C12.2667 13.0968 12.2876 13.1226 12.3145 13.1408C12.3414 13.1591 12.3731 13.169 12.4056 13.1692C12.4276 13.1701 12.4495 13.1663 12.47 13.1582C12.4905 13.1502 12.5091 13.1379 12.5247 13.1223C12.5402 13.1067 12.5524 13.0881 12.5604 13.0675C12.5684 13.047 12.572 13.025 12.5712 13.003V13.0062Z" fill="white"/>
<path d="M13.7631 6.85743C13.7631 6.49619 13.7631 6.13495 13.7631 5.77371C13.768 5.69511 13.7552 5.61641 13.7255 5.54346C13.6958 5.47051 13.6501 5.40519 13.5917 5.35237C13.4375 5.21811 13.268 5.10264 13.0866 5.00839C12.5674 4.76031 12.0074 4.65098 11.4428 4.56083C10.6552 4.43683 9.85969 4.3691 9.06243 4.35815C8.57395 4.34984 8.08484 4.37349 7.59636 4.39523C7.16863 4.41377 6.74281 4.44766 6.31763 4.50329C6.39246 4.64833 6.45223 4.80065 6.49601 4.95788C7.13778 4.85567 7.78664 4.80457 8.43649 4.80507C9.42559 4.80507 10.1564 4.83831 10.8801 4.95532C11.4236 5.04291 11.9626 5.15416 12.4651 5.39201C12.5619 5.43731 12.6532 5.49329 12.7375 5.55888C12.8884 5.67716 12.8942 5.80376 12.7311 5.90669C12.5426 6.02951 12.3408 6.13053 12.1295 6.20784C11.4664 6.43929 10.7766 6.53967 10.079 6.6036C9.37743 6.66434 8.67258 6.67844 7.96911 6.6458C7.96911 6.65475 7.96911 6.66306 7.96911 6.67138C7.97125 6.87699 7.93237 7.08096 7.85477 7.27138C7.77716 7.4618 7.66238 7.63483 7.51713 7.78038C7.37188 7.92592 7.19908 8.04106 7.00883 8.11905C6.81857 8.19705 6.61468 8.23634 6.40906 8.23463H4.4104C4.45516 8.25765 4.50055 8.28002 4.54659 8.29856C4.87362 8.44654 5.21547 8.55928 5.56638 8.63487C6.3918 8.82029 7.25558 8.89765 8.10018 8.92962C8.29199 8.93729 8.4838 8.94134 8.67561 8.94177C9.35395 8.94332 10.0317 8.90253 10.705 8.81965C11.5131 8.71991 12.3526 8.57541 13.0802 8.19051C13.2874 8.08054 13.4875 7.94372 13.6173 7.74871C13.804 7.47506 13.7624 7.16944 13.7631 6.85743Z" fill="white"/>
<path d="M10.7024 6.08759C11.0349 5.98657 11.203 5.86956 11.205 5.74105C11.205 5.67008 10.9192 5.62724 10.6788 5.66305C10.3111 5.71739 9.94988 5.7743 9.59887 5.83376C9.36422 5.87404 9.40067 5.94437 9.65386 5.97825L9.97354 6.01917C9.93326 6.03068 9.9096 6.03963 9.88019 6.04603C9.31794 6.1474 8.74454 6.17214 8.17564 6.11955C8.06055 6.10996 7.95442 6.09718 7.85596 6.08311C7.8829 6.14732 7.90534 6.21334 7.92309 6.28067C8.88086 6.36379 10.0074 6.29986 10.7024 6.08759Z" fill="white"/>
<path d="M7.83277 5.48529L7.49646 5.44181C7.5751 5.43094 7.61155 5.42774 7.63968 5.42199C8.41779 5.26662 9.52837 5.29412 10.1511 5.49104C10.3266 5.54245 10.5114 5.55403 10.692 5.52493C10.871 5.49488 10.8896 5.43925 10.7297 5.38874C10.2937 5.25149 9.71442 5.1737 8.99194 5.15537C8.37366 5.1336 7.75487 5.17991 7.14673 5.29348C7.32426 5.39256 7.48169 5.52397 7.61091 5.68093C7.6985 5.66687 7.78737 5.65344 7.87433 5.63873C8.15757 5.59462 8.13519 5.52301 7.83277 5.48529Z" fill="white"/>
<path d="M6.50955 5.66887C6.35482 4.94319 5.6918 4.39014 4.87469 4.39014C4.57671 4.38498 4.28306 4.46196 4.02593 4.61263C3.76879 4.76331 3.5581 4.98186 3.41693 5.24433C2.73217 5.33 2.22388 5.86388 2.22388 6.52306C2.22388 7.22637 2.82041 7.8018 3.54928 7.8018H6.42068C7.03958 7.8018 7.5255 7.33186 7.5255 6.73341C7.5255 6.18164 7.06132 5.71171 6.50955 5.66887ZM5.31649 6.30823V7.16307H4.43289V6.30951H3.76986L4.87469 5.24177L5.97888 6.30951L5.31649 6.30823Z" fill="white"/>
<path d="M21.9833 14.9729V2.7302H24.8112V8.00663L29.2945 2.7302H32.4672L27.8805 8.19631L32.7776 14.9729H29.5359L26.0872 10.0586L24.8112 11.3691V14.9729H21.9833ZM32.9174 11.7139V5.9202H35.6764V11.1104C35.6764 11.6622 35.7856 12.0875 36.004 12.3864C36.2224 12.6738 36.5328 12.8175 36.9351 12.8175C37.188 12.8175 37.4294 12.7773 37.6593 12.6968C37.8892 12.6048 38.1134 12.4611 38.3318 12.2657C38.5502 12.0703 38.7457 11.8174 38.9181 11.507V5.9202H41.677V11.9036C41.677 12.1795 41.7172 12.3749 41.7977 12.4899C41.8897 12.5933 42.0449 12.6566 42.2633 12.6795V14.9729C42.0104 15.0189 41.7862 15.0534 41.5908 15.0764C41.4069 15.0994 41.2402 15.1108 41.0907 15.1108C40.6079 15.1108 40.2228 15.0131 39.9354 14.8177C39.648 14.6108 39.4699 14.3234 39.4009 13.9555L39.3492 13.4038C38.9353 14.0015 38.418 14.4441 37.7973 14.7315C37.188 15.0074 36.504 15.1453 35.7453 15.1453C34.8257 15.1453 34.1245 14.8522 33.6417 14.2659C33.1588 13.6797 32.9174 12.829 32.9174 11.7139ZM49.0735 15.1453C48.3838 15.1453 47.7803 15.0016 47.263 14.7143C46.7457 14.4154 46.3376 14.0015 46.0387 13.4727V14.9729H43.6419V2.38533H46.4008V7.40312C46.6997 6.87432 47.0963 6.46623 47.5906 6.17885C48.0964 5.89146 48.6884 5.74776 49.3667 5.74776C49.9415 5.74776 50.4645 5.87421 50.9358 6.12712C51.4186 6.36852 51.8325 6.70764 52.1773 7.14447C52.5337 7.5698 52.8096 8.06985 53.005 8.64463C53.2004 9.20791 53.2981 9.82292 53.2981 10.4897C53.2981 11.1449 53.1889 11.7542 52.9705 12.3174C52.7636 12.8807 52.4705 13.375 52.0911 13.8004C51.7118 14.2257 51.2634 14.5591 50.7461 14.8005C50.2403 15.0304 49.6828 15.1453 49.0735 15.1453ZM48.2976 12.8175C48.608 12.8175 48.8954 12.76 49.1598 12.6451C49.4357 12.5186 49.6713 12.3519 49.8667 12.145C50.0622 11.9381 50.2116 11.6967 50.3151 11.4208C50.4185 11.1334 50.4703 10.823 50.4703 10.4897C50.4703 10.0643 50.384 9.66773 50.2116 9.29987C50.0392 8.93202 49.7978 8.63888 49.4874 8.42047C49.1885 8.20205 48.8379 8.09285 48.4355 8.09285C48.1482 8.09285 47.8723 8.16182 47.6079 8.29976C47.3435 8.43771 47.1078 8.62739 46.9009 8.86879C46.694 9.0987 46.5273 9.3631 46.4008 9.66198V11.5587C46.4928 11.7542 46.6078 11.9323 46.7457 12.0933C46.8837 12.2427 47.0331 12.3692 47.194 12.4726C47.3665 12.5761 47.5446 12.6623 47.7286 12.7313C47.924 12.7888 48.1137 12.8175 48.2976 12.8175ZM58.8272 15.1453C58.057 15.1453 57.373 15.0246 56.7752 14.7832C56.1774 14.5303 55.6659 14.1912 55.2406 13.7659C54.8267 13.3405 54.5106 12.852 54.2922 12.3002C54.0738 11.7369 53.9646 11.1506 53.9646 10.5414C53.9646 9.66773 54.1542 8.87454 54.5336 8.16182C54.9244 7.4376 55.482 6.85708 56.2062 6.42025C56.9304 5.97193 57.8041 5.74776 58.8272 5.74776C59.8503 5.74776 60.7182 5.96618 61.4309 6.40301C62.1551 6.83984 62.7069 7.41461 63.0862 8.12733C63.4656 8.82856 63.6553 9.59301 63.6553 10.4207C63.6553 10.5816 63.6438 10.7426 63.6208 10.9035C63.6093 11.0529 63.5978 11.1851 63.5863 11.3001H56.8959C56.9304 11.7024 57.0396 12.0415 57.2235 12.3174C57.419 12.5933 57.6661 12.806 57.965 12.9554C58.2639 13.0934 58.58 13.1624 58.9134 13.1624C59.3272 13.1624 59.7123 13.0646 60.0687 12.8692C60.4365 12.6738 60.6894 12.4094 60.8274 12.076L63.1725 12.7313C62.9425 13.2026 62.6149 13.6222 62.1896 13.99C61.7758 14.3464 61.2814 14.628 60.7067 14.835C60.1434 15.0419 59.5169 15.1453 58.8272 15.1453ZM56.8269 9.61025H60.7584C60.7124 9.2309 60.6032 8.90328 60.4308 8.62739C60.2583 8.34 60.0284 8.12158 59.7411 7.97214C59.4537 7.81121 59.1375 7.73074 58.7927 7.73074C58.4363 7.73074 58.1144 7.81121 57.8271 7.97214C57.5512 8.12158 57.327 8.34 57.1546 8.62739C56.9821 8.90328 56.8729 9.2309 56.8269 9.61025ZM72.3548 5.93744C72.2743 5.85697 72.1248 5.74776 71.9064 5.60982C71.6995 5.47187 71.4409 5.33967 71.1305 5.21322C70.8316 5.08677 70.504 4.97757 70.1476 4.8856C69.7913 4.78214 69.4292 4.73041 69.0613 4.73041C68.4175 4.73041 67.929 4.85112 67.5956 5.09252C67.2737 5.33393 67.1128 5.67304 67.1128 6.10987C67.1128 6.44324 67.2163 6.70764 67.4232 6.90306C67.6301 7.09849 67.9405 7.26517 68.3543 7.40312C68.7682 7.54106 69.2855 7.6905 69.9062 7.85144C70.7109 8.04686 71.4064 8.28827 71.9926 8.57566C72.5904 8.85155 73.0445 9.2194 73.3549 9.67922C73.6767 10.1275 73.8377 10.7253 73.8377 11.4725C73.8377 12.1278 73.717 12.691 73.4756 13.1624C73.2342 13.6222 72.9008 13.9958 72.4755 14.2832C72.0501 14.5706 71.5673 14.7832 71.027 14.9212C70.4867 15.0476 69.912 15.1108 69.3027 15.1108C68.6934 15.1108 68.0842 15.0476 67.4749 14.9212C66.8657 14.7947 66.2794 14.6165 65.7161 14.3866C65.1528 14.1452 64.6355 13.8578 64.1642 13.5245L65.2161 11.4725C65.3195 11.576 65.5034 11.7139 65.7678 11.8864C66.0322 12.0473 66.3541 12.214 66.7335 12.3864C67.1128 12.5474 67.5266 12.6853 67.975 12.8003C68.4233 12.9152 68.8774 12.9727 69.3372 12.9727C69.9809 12.9727 70.4695 12.8635 70.8029 12.6451C71.1362 12.4266 71.3029 12.1163 71.3029 11.7139C71.3029 11.3461 71.1707 11.0587 70.9063 10.8518C70.6419 10.6448 70.2741 10.4667 69.8028 10.3172C69.3314 10.1563 68.7739 9.98385 68.1302 9.79993C67.36 9.58151 66.7162 9.34011 66.1989 9.07571C65.6816 8.79982 65.2965 8.45495 65.0436 8.04112C64.7907 7.62728 64.6643 7.10998 64.6643 6.48922C64.6643 5.65005 64.8597 4.94883 65.2505 4.38555C65.6529 3.81077 66.1932 3.37969 66.8714 3.0923C67.5496 2.79342 68.3026 2.64398 69.1303 2.64398C69.705 2.64398 70.2453 2.70721 70.7511 2.83366C71.2684 2.96011 71.7512 3.12679 72.1996 3.33371C72.6479 3.54063 73.0502 3.76479 73.4066 4.0062L72.3548 5.93744ZM80.9985 14.4901C80.7456 14.5935 80.4639 14.697 80.1536 14.8005C79.8547 14.9039 79.5385 14.9844 79.2052 15.0419C78.8718 15.1108 78.5442 15.1453 78.2223 15.1453C77.7625 15.1453 77.3372 15.0706 76.9463 14.9212C76.567 14.7602 76.2623 14.5016 76.0324 14.1452C75.814 13.7889 75.7048 13.3175 75.7048 12.7313V8.00663H74.5495V5.9202H75.7048V3.04057H78.4637V5.9202H80.3087V8.00663H78.4637V11.7829C78.4637 12.0818 78.5384 12.3002 78.6879 12.4381C78.8373 12.5646 79.027 12.6278 79.2569 12.6278C79.4523 12.6278 79.6592 12.5933 79.8777 12.5244C80.1076 12.4554 80.303 12.3807 80.4639 12.3002L80.9985 14.4901ZM81.332 12.2657C81.332 11.6679 81.4987 11.1449 81.8321 10.6966C82.1654 10.2483 82.6253 9.89764 83.2115 9.64474C83.7978 9.38034 84.4703 9.24814 85.229 9.24814C85.5968 9.24814 85.959 9.28263 86.3153 9.3516C86.6717 9.40908 86.9821 9.4953 87.2465 9.61025V9.21366C87.2465 8.71935 87.097 8.34 86.7981 8.0756C86.4992 7.81121 86.0452 7.67901 85.4359 7.67901C84.9301 7.67901 84.453 7.76522 84.0047 7.93766C83.5679 8.11009 83.1023 8.35724 82.608 8.67912L81.7803 6.92031C82.3781 6.52946 82.9989 6.23632 83.6426 6.0409C84.2979 5.84548 84.9876 5.74776 85.7118 5.74776C87.0683 5.74776 88.1201 6.07539 88.8673 6.73063C89.626 7.37438 90.0054 8.31126 90.0054 9.54128V11.9036C90.0054 12.1795 90.0456 12.3749 90.1261 12.4899C90.218 12.5933 90.3732 12.6566 90.5916 12.6795V14.9729C90.3617 15.0189 90.1433 15.0534 89.9364 15.0764C89.741 15.0994 89.5685 15.1108 89.4191 15.1108C88.9018 15.1108 88.5052 15.0074 88.2293 14.8005C87.9649 14.5935 87.7982 14.3119 87.7293 13.9555L87.6775 13.559C87.2752 14.0763 86.7924 14.4728 86.2291 14.7487C85.6773 15.0131 85.0968 15.1453 84.4875 15.1453C83.8898 15.1453 83.3495 15.0189 82.8667 14.766C82.3954 14.5131 82.0217 14.1682 81.7459 13.7314C81.47 13.2946 81.332 12.806 81.332 12.2657ZM86.8154 12.6106C86.9418 12.5071 87.0453 12.3922 87.1257 12.2657C87.2062 12.1393 87.2465 12.0186 87.2465 11.9036V11.0932C87.0165 11.0012 86.7579 10.9322 86.4705 10.8863C86.1946 10.8288 85.936 10.8 85.6946 10.8C85.1888 10.8 84.7692 10.915 84.4358 11.1449C84.1024 11.3633 83.9357 11.6564 83.9357 12.0243C83.9357 12.2312 83.9932 12.4209 84.1082 12.5933C84.2231 12.7658 84.3783 12.9037 84.5737 13.0072C84.7807 13.1106 85.0221 13.1624 85.298 13.1624C85.5739 13.1624 85.8497 13.1106 86.1256 13.0072C86.4015 12.9037 86.6314 12.7715 86.8154 12.6106ZM95.298 15.1453C94.5278 15.1453 93.7748 15.0189 93.0391 14.766C92.3034 14.5131 91.6826 14.1395 91.1768 13.6452L92.1252 11.9036C92.677 12.3059 93.2115 12.6106 93.7288 12.8175C94.2576 13.0244 94.7519 13.1279 95.2118 13.1279C95.5681 13.1279 95.844 13.0704 96.0394 12.9554C96.2349 12.8405 96.3326 12.6623 96.3326 12.4209C96.3326 12.2485 96.2751 12.1163 96.1601 12.0243C96.0452 11.9208 95.867 11.8289 95.6256 11.7484C95.3957 11.6679 95.1083 11.5817 94.7634 11.4898C94.0737 11.2599 93.4989 11.0357 93.0391 10.8173C92.5793 10.5989 92.2344 10.3345 92.0045 10.0241C91.7746 9.70222 91.6596 9.28838 91.6596 8.78258C91.6596 8.17331 91.8091 7.64452 92.108 7.1962C92.4183 6.73638 92.8552 6.38002 93.4185 6.12712C93.9817 5.87421 94.6542 5.74776 95.4359 5.74776C96.0567 5.74776 96.6602 5.84548 97.2465 6.0409C97.8442 6.23632 98.4018 6.56394 98.919 7.02376L97.85 8.74809C97.3327 8.39173 96.8729 8.13308 96.4705 7.97214C96.0682 7.81121 95.6773 7.73074 95.298 7.73074C95.1025 7.73074 94.9244 7.75373 94.7634 7.79971C94.6025 7.84569 94.4703 7.92616 94.3668 8.04112C94.2749 8.14458 94.2289 8.28252 94.2289 8.45495C94.2289 8.62739 94.2749 8.76533 94.3668 8.86879C94.4703 8.97225 94.6255 9.06421 94.8324 9.14468C95.0508 9.21366 95.321 9.29987 95.6428 9.40333C96.39 9.62175 97.0108 9.84591 97.5051 10.0758C97.9994 10.2942 98.3673 10.5701 98.6087 10.9035C98.8616 11.2254 98.988 11.6564 98.988 12.1967C98.988 13.1164 98.6547 13.8406 97.9879 14.3694C97.3327 14.8867 96.436 15.1453 95.298 15.1453ZM108.956 14.9729H106.197V9.88614C106.197 9.29987 106.076 8.86879 105.835 8.5929C105.605 8.31701 105.295 8.17906 104.904 8.17906C104.697 8.17906 104.461 8.24803 104.197 8.38598C103.944 8.51243 103.708 8.69636 103.49 8.93776C103.271 9.17917 103.105 9.46081 102.99 9.78268V14.9729H100.231V2.38533H102.99V7.4376C103.323 6.89731 103.76 6.48348 104.3 6.19609C104.852 5.89721 105.455 5.74776 106.111 5.74776C106.731 5.74776 107.226 5.85122 107.594 6.05814C107.973 6.26506 108.26 6.54095 108.456 6.88582C108.651 7.21919 108.783 7.58704 108.852 7.98939C108.921 8.39173 108.956 8.78832 108.956 9.17917V14.9729Z" fill="#431BB1"/>
</g>
<defs>
<clipPath id="clip0_5524_2205">
<rect width="110" height="35" fill="white"/>
</clipPath>
</defs>
</svg>
