<svg xmlns="http://www.w3.org/2000/svg" width="512" height="512" fill="none" xmlns:v="https://vecta.io/nano"><path d="M242.528 35.968L83.302 112.649c-4.054 1.95-7.616 4.79-10.42 8.307s-4.779 7.622-5.778 12.009l-39.334 172.3a29.88 29.88 0 0 0-.024 13.369c1.002 4.401 2.988 8.518 5.808 12.041L143.8 468.785c2.813 3.503 6.377 6.329 10.428 8.271a30 30 0 0 0 12.98 2.944h176.674c4.494.006 8.931-.998 12.983-2.94s7.615-4.77 10.425-8.275l110.199-138.11a29.88 29.88 0 0 0 5.79-12.003 29.89 29.89 0 0 0-.006-13.327l-39.334-172.38a29.9 29.9 0 0 0-5.778-12.009c-2.804-3.517-6.366-6.357-10.42-8.307L268.515 35.968C264.462 34.014 260.021 33 255.521 33s-8.94 1.014-12.993 2.968h0z" fill="#431bb1"/><path d="M117.915 269.629l.145-15.445a10.24 10.24 0 0 1 1.153-5.688c2.58-3.893 6.826-1.602 9.918 0 4.491 2.32 9.119 4.364 13.859 6.121 9.454 3.415 19.175 6.041 29.064 7.85 3.973.769 8.011 1.442 11.952 2.067 28.836 4.407 58.064 5.686 87.175 3.813 18.208-.948 36.306-3.408 54.106-7.354 13.058-2.996 25.828-6.889 37.54-13.666 4.806-2.74 8.94-.257 9.004 5.335v29.048c0 5.239-3.973 7.658-8.668 5.511a75.21 75.21 0 0 0-46.451-5.395c-15.664 3.183-29.906 11.275-40.66 23.1-4.447 4.89-8.22 10.354-11.215 16.246-.839 2.026-2.327 3.717-4.23 4.806-1.643.631-3.406.883-5.159.737a476.44 476.44 0 0 1-63.767-3.765l-7.531-1.089c-16.967-2.596-34.03-6.409-49.139-14.42-4.483-2.21-8.519-5.231-11.904-8.908-5.208-6.073-5.336-13.138-5.272-20.733l.08-8.171zm118.026 126.468c-21.213-1.026-42.298-2.452-63.126-7.05-14.58-3.204-30.923-6.777-43.259-15.685-6.249-4.519-11.729-10.847-11.632-18.986v-32.461c0-5.383 4.277-8.011 8.94-5.431 15.589 8.732 32.588 12.929 49.956 16.102 24.113 4.374 48.435 5.736 72.868 5.864 2.612 0 5.672.416 6.761 3.124 1.362 3.365-.096 8.011-.24 11.488-.368 9.966 1.295 19.904 4.887 29.208 1.121 2.852 2.483 6.04 2.227 9.164-.321 3.846-3.733 4.935-7.066 5.015-6.713.176-13.506-.08-20.316-.352zm51.672-37.336c0-27.238 22.527-49.396 50.309-49.46 27.542 0 50.261 22.238 50.261 49.332-.218 13.181-5.603 25.75-14.996 35.001a50.29 50.29 0 0 1-35.226 14.46c-13.183.017-25.846-5.143-35.263-14.37a50.3 50.3 0 0 1-15.085-34.963h0zm50.309-37.54a37.62 37.62 0 0 0-20.742 6.62c-6.111 4.203-10.843 10.118-13.601 17.002a37.62 37.62 0 0 0-1.904 21.69c1.518 7.26 5.147 13.909 10.432 19.112a37.62 37.62 0 0 0 19.272 10.131c7.282 1.404 14.817.624 21.657-2.242a37.62 37.62 0 0 0 16.788-13.866 37.61 37.61 0 0 0 6.294-20.843c-.105-10.043-4.182-19.636-11.34-26.682a38 38 0 0 0-26.856-10.922h0zm-5.051-15.185l1.827-1.329-1.346-1.17c.824-.533 1.436-1.337 1.728-2.274s.248-1.946-.126-2.853l-1.522-4.406a5.14 5.14 0 0 1-.317-3.017c.2-1.015.701-1.945 1.438-2.671a5.26 5.26 0 0 1 5.784-.545c2.227 1.138 2.948 3.814 1.811 6.714l-1.362 3.909c-.386.91-.437 1.928-.144 2.873a4.19 4.19 0 0 0 1.746 2.286l-1.346 1.073 2.131 1.731h-10.302v-.321zm.46 108.083l1.346-1.09-2.115-1.714h10.719l-2.115 1.602 1.298 1.154c-.829.528-1.445 1.332-1.738 2.271a4.17 4.17 0 0 0 .135 2.856c.401 1.442.978 2.836 1.474 4.23a4.8 4.8 0 0 1 .62 3.129 4.81 4.81 0 0 1-1.476 2.828c-.799.747-1.83 1.199-2.921 1.281a4.81 4.81 0 0 1-3.08-.83c-2.243-1.137-2.948-3.829-1.81-6.713l1.377-3.909a4.18 4.18 0 0 0-1.714-5.095h0zm-37.793-19.468l1.698.257-.096-1.747 6.409 6.809.48-.4-2.098-.16.096 1.522s-.16.16-.225.144a4.04 4.04 0 0 0-2.605.357c-.804.407-1.449 1.071-1.833 1.886-.723 1.308-1.37 2.656-1.938 4.038-1.138 2.499-3.125 3.861-5.255 3.556-1.141-.15-2.198-.679-3.002-1.501a5.15 5.15 0 0 1-1.437-3.033c-.256-2.083 1.186-4.069 3.702-5.175a38.19 38.19 0 0 0 3.749-1.762 4.22 4.22 0 0 0 2.033-1.975c.429-.873.543-1.868.322-2.816h0zm78.235 6.521l.16-1.762-1.602.176 6.296-6.905v2.082l1.602-.096c0 .097.145.193.129.273a3.86 3.86 0 0 0 .306 2.523c.384.783 1.021 1.412 1.808 1.787 1.349.767 2.746 1.447 4.182 2.034 1.068.358 1.983 1.07 2.592 2.017a4.96 4.96 0 0 1 .76 3.195 4.95 4.95 0 0 1-4.361 4.402c-1.146.029-2.27-.314-3.203-.979a5.29 5.29 0 0 1-1.972-2.706 34.8 34.8 0 0 0-1.763-3.75c-.414-.907-1.139-1.637-2.044-2.057a4.18 4.18 0 0 0-2.89-.234zm-1.95-83.187l2.002.24v-1.714c2.612.512 4.054-1.01 5.144-3.028.817-1.507 1.377-3.205 2.291-4.615.488-.891 1.273-1.583 2.219-1.954a4.34 4.34 0 0 1 2.956-.081 5.26 5.26 0 0 1 2.574 1.757c.661.832 1.054 1.846 1.127 2.906-.059 1.079-.442 2.115-1.1 2.973s-1.558 1.496-2.585 1.833l-3.044 1.346c-2.099 1.09-3.669 2.564-3.205 5.255l-1.714-.144.176 1.602-6.409-6.905-.432.529zm-69.794-1.473l-.129 1.602 2.035-.209-.288-.272-6.505 7.194.128-2.003h-1.698c.513-2.531-.929-3.989-2.884-5.063l-4.807-2.371c-.869-.47-1.549-1.226-1.925-2.14a4.29 4.29 0 0 1-.142-2.875 5.24 5.24 0 0 1 1.68-2.623c.812-.684 1.813-1.104 2.871-1.206 2.067-.192 4.005 1.298 5.095 3.829.536 1.336 1.168 2.632 1.89 3.877.411.849 1.097 1.535 1.946 1.945s1.812.521 2.733.315h0zm91.074 47.055c-.464-1.169-.977-1.89-2.019-.48v-8.284l1.122.705.977-1.233c1.362 2.066 3.317 2.211 5.448 1.602 1.426-.417 2.804-1.026 4.214-1.49.953-.404 2.008-.5 3.019-.276a4.98 4.98 0 0 1 2.62 1.525c.658.807 1.052 1.795 1.129 2.832s-.166 2.074-.696 2.968c-1.154 2.131-3.797 2.804-6.601 1.731-1.39-.558-2.807-1.044-4.246-1.458a4.13 4.13 0 0 0-4.967 1.858h0zm-110.411-9.436c.545 1.058.962 2.067 2.035.401v8.315l-1.121-.689-.978 1.25c-.528-.833-1.335-1.451-2.277-1.744a4.16 4.16 0 0 0-2.866.142c-1.49.416-2.916 1.009-4.39 1.506a5.19 5.19 0 0 1-5.687-1.09c-.652-.802-1.053-1.778-1.153-2.807s.106-2.064.592-2.977c1.153-2.259 3.781-2.964 6.681-1.842a41.14 41.14 0 0 0 4.086 1.41 4.18 4.18 0 0 0 2.883-.005c.931-.343 1.709-1.006 2.195-1.87h0zm40.561 1.295c.648-.398 1.172-.969 1.515-1.648s.489-1.44.424-2.197c0-.369-.369-.962-.657-1.026a6.58 6.58 0 0 1-2.66-1.183c-.787-.587-1.433-1.344-1.89-2.213l-1.827-3.365c-1.346-2.756-1.33-2.756-4.406-2.019v-3.092h-3.573c.192-.641.209-1.298.529-1.602l5.752-5.544c.272-.256.801-.224 1.201-.336a7.97 7.97 0 0 1 .129 1.233l-.08 2.163h3.204c-.641 3.093-.625 3.06 2.195 4.47a18.21 18.21 0 0 1 3.877 2.244c1.061 1.052 1.997 2.224 2.788 3.492.24.337.288 1.186.417 1.186a6.28 6.28 0 0 0 2.707-.353c1.602-.801 1.955-1.602 1.01-3.348-.365-.713-.579-1.494-.628-2.293s.066-1.601.339-2.354c.328-1.466.762-2.906 1.298-4.309.657-1.603.353-2.676-1.362-3.205a4.77 4.77 0 0 1-.785-.513l2.5-2.323-2.932-2.355c3.692-.798 7.508-.836 11.215-.112l-2.708 2.547 2.42 2.275-1.41.77c-.23.068-.44.187-.618.347a1.6 1.6 0 0 0-.406.58 1.59 1.59 0 0 0-.117.699c.013.239.08.471.195.681.529 1.458.882 2.996 1.394 4.454.599 1.936.508 4.019-.256 5.896-.144.465-.577 1.186-.433 1.314.602.706 1.367 1.255 2.227 1.602 1.779.497 2.259.336 2.884-1.602.576-1.559 1.721-2.841 3.205-3.589.945-.577 1.938-1.106 2.932-1.602 2.836-1.41 2.852-1.394 2.195-4.471h3.044v-2.307c.03-.361.083-.719.16-1.073.353 0 .833 0 1.058.224a246.21 246.21 0 0 1 6.088 5.88c.256.273.176.865.272 1.41l-3.493-.176.177 2.98c-.321.128-.433.24-.513.208-2.724-.705-2.708-.689-3.989 1.907a17 17 0 0 1-2.051 3.605 26.31 26.31 0 0 1-3.733 3.284c-.369.305-1.33.385-1.314.529a8.95 8.95 0 0 0 .496 2.836c.657 1.602 2.035 1.602 3.205.817.679-.369 1.429-.589 2.2-.644a5.4 5.4 0 0 1 2.27.324c1.362.32 2.692.721 4.005 1.153 2.676.833 2.676.849 4.615-2.291l1.602 2.884 2.307-2.499c1.266 0 1.202.977 1.234 1.874.32 7.082.224 7.803-1.186 8.492l-2.227-2.339-2.195 2.387c-.224-.335-.427-.683-.609-1.042a1.94 1.94 0 0 0-1.159-1.329c-.285-.114-.592-.159-.898-.132a1.94 1.94 0 0 0-.859.292c-1.233.496-2.547.817-3.813 1.217a7.49 7.49 0 0 1-3.696.435 7.5 7.5 0 0 1-3.45-1.396c-.288.353-.528.657-.785.929-1.874 2.035-1.762 3.718.657 4.551 1.512.558 2.751 1.677 3.461 3.124.673 1.073 1.266 2.211 1.842 3.365 1.266 2.579 1.25 2.595 4.23 1.746v3.204c.849 0 1.602-.144 2.42-.144.336 0 .849 0 .977.289.072.167.102.351.085.533a1.09 1.09 0 0 1-.181.508c-2.035 2.035-4.086 4.07-6.233 5.992-.673.609-1.25.305-1.153-.721l.208-2.483H354.8c.177-.561.257-.929.401-1.266a1.79 1.79 0 0 0 .208-.76 1.78 1.78 0 0 0-.137-.776c-.103-.246-.259-.465-.457-.643a1.78 1.78 0 0 0-.688-.384c-1.698-.834-3.348-1.747-4.998-2.66a6.03 6.03 0 0 1-1.969-1.787 6.04 6.04 0 0 1-1.012-2.459c-.192-.865-2.259-1.057-3.348-.272-.561.416-1.058.929-1.73 1.522 2.178 2.675 1.602 5.559.608 8.475-.16.465-.304.946-.448 1.426-.914 2.9-.914 2.9 1.81 4.583l-2.355 2.227 2.628 2.483a27.02 27.02 0 0 1-10.991 0l2.659-2.531-2.419-2.324c.625-.32.945-.512 1.282-.657a1.73 1.73 0 0 0 1.041-2.547c-.481-1.25-.801-2.547-1.218-3.813-.486-1.211-.661-2.526-.507-3.822s.632-2.533 1.389-3.596c-.471-.538-1.01-1.012-1.603-1.41a11.48 11.48 0 0 0-2.163-.529c-1.313-.336-.977.657-1.217 1.346a7.71 7.71 0 0 1-3.91 4.182c-1.025.544-2.05 1.121-3.092 1.602-2.515 1.249-2.531 1.249-1.602 4.181h-3.204c0 .882 0 1.715.16 2.548s-.465 1.33-1.122.737c-2.147-1.923-4.213-3.941-6.248-5.992-.241-.257-.144-.849-.209-1.298h3.301l-.128-2.932c.352-.096.464-.176.561-.144 2.627.753 2.595.737 3.797-1.602.675-1.525 1.508-2.974 2.483-4.326a18.8 18.8 0 0 1 3.477-2.836c.384-.273 1.282-.417 1.282-.561-.047-.962-.236-1.913-.561-2.82-.224-.577-.833-.993-1.394-1.602-3.333 2.676-6.761 1.137-10.158 0-2.788-.881-2.788-.897-4.438 2.179l-2.227-2.724-2.467 2.58a5.91 5.91 0 0 1-.769-1.779c-.497-5.623-.193-8.011 1.089-8.812l2.227 2.42 2.275-2.452c.321.593.529.913.673 1.25a1.76 1.76 0 0 0 1.014 1.153c.245.103.51.15.776.136s.525-.087.758-.216c1.233-.48 2.531-.833 3.813-1.201 4.182-1.202 4.758-.337 7.53.801zm14.58-7.37c-2.803.066-5.47 1.22-7.437 3.217a10.8 10.8 0 0 0-3.105 7.485 10.63 10.63 0 0 0 .78 4.097c.528 1.301 1.308 2.485 2.296 3.483a10.64 10.64 0 0 0 3.458 2.332 10.63 10.63 0 0 0 4.088.823c2.805.002 5.5-1.084 7.521-3.029a10.83 10.83 0 0 0 3.31-7.401c-.053-2.895-1.223-5.656-3.266-7.708a11.21 11.21 0 0 0-7.693-3.299h.048zm.191 3.444c1.902.107 3.69.943 4.991 2.334a7.41 7.41 0 0 1 1.996 5.137 7.4 7.4 0 0 1-10.076 6.822 7.42 7.42 0 0 1-2.498-1.607 7.41 7.41 0 0 1-1.665-2.46 7.42 7.42 0 0 1-.565-2.916c.011-1 .225-1.988.628-2.903a7.41 7.41 0 0 1 4.25-3.975c.941-.341 1.94-.488 2.939-.432h0zm4.006 7.418c.006-.814-.229-1.612-.677-2.293s-1.086-1.213-1.836-1.531a4.12 4.12 0 0 0-2.377-.252c-.8.152-1.536.539-2.117 1.11a4.12 4.12 0 0 0-1.143 2.099c-.165.798-.09 1.626.216 2.381a4.11 4.11 0 0 0 1.502 1.86 4.12 4.12 0 0 0 2.282.712 4.01 4.01 0 0 0 1.615-.276 4.02 4.02 0 0 0 1.37-.9c.39-.391.694-.859.895-1.373s.292-1.065.27-1.617v.08zm29.864-154.079v-27.157a13.12 13.12 0 0 0-.941-5.77c-.743-1.828-1.889-3.465-3.353-4.789a64.72 64.72 0 0 0-12.657-8.62c-13.01-6.216-27.045-8.956-41.193-11.215a420.69 420.69 0 0 0-59.649-5.079c-12.241-.208-24.498.384-36.739.929-10.718.465-21.389 1.314-32.044 2.708 1.875 3.635 3.373 7.452 4.47 11.392 16.082-2.562 32.342-3.842 48.627-3.83 24.786 0 43.099.833 61.236 3.765 13.619 2.195 27.125 4.983 39.718 10.943 2.424 1.136 4.713 2.538 6.826 4.182 3.781 2.964 3.925 6.137-.161 8.716a74.47 74.47 0 0 1-15.076 7.546c-16.615 5.8-33.903 8.316-51.383 9.918a398.73 398.73 0 0 1-52.872 1.057v.641c.053 5.153-.921 10.264-2.865 15.036a38.77 38.77 0 0 1-8.461 12.755c-3.64 3.647-7.97 6.532-12.738 8.487a38.78 38.78 0 0 1-15.03 2.896h-50.084c1.121.577 2.259 1.138 3.413 1.602 8.195 3.708 16.761 6.534 25.555 8.428 20.684 4.646 42.33 6.585 63.495 7.386a381.07 381.07 0 0 0 14.419.304 408.52 408.52 0 0 0 50.854-3.06c20.252-2.499 41.288-6.12 59.521-15.766 5.192-2.755 10.206-6.184 13.459-11.071 4.678-6.857 3.637-14.516 3.653-22.334zm-76.698-19.29c8.331-2.531 12.545-5.463 12.593-8.683 0-1.779-7.162-2.852-13.186-1.955l-27.061 4.278c-5.88 1.009-4.967 2.772 1.378 3.621l8.011 1.025c-1.01.289-1.602.513-2.339.673-14.09 2.54-28.459 3.16-42.715 1.843a136.62 136.62 0 0 1-8.011-.914c.675 1.609 1.238 3.264 1.683 4.951 24 2.083 52.231.481 69.647-4.839zm-71.914-15.094l-8.428-1.089 3.589-.497c19.499-3.893 47.329-3.204 62.934 1.73a30.79 30.79 0 0 0 13.555.85c4.486-.753 4.951-2.147.945-3.413-10.927-3.44-25.443-5.389-43.547-5.848a211.34 211.34 0 0 0-46.24 3.461c4.449 2.482 8.394 5.776 11.632 9.709l6.601-1.058c7.098-1.105 6.537-2.9-1.041-3.845zm-33.155 4.596c-3.877-18.184-20.492-32.043-40.968-32.043-7.467-.13-14.826 1.799-21.269 5.575a40.68 40.68 0 0 0-15.261 15.83c-17.16 2.147-29.897 15.525-29.897 32.044 0 17.624 14.949 32.044 33.213 32.044H187.9c15.509 0 27.686-11.777 27.686-26.773 0-13.827-11.632-25.603-25.459-26.677zm-29.897 16.022v21.422h-22.142v-21.39h-16.615l27.686-26.756 27.67 26.756-16.599-.032z" fill="#fff"/></svg>