<svg width="1280" height="640" viewBox="0 0 1280 640" fill="none" xmlns="http://www.w3.org/2000/svg">
<path d="M193.719 230.139L132.608 259.569C131.052 260.317 129.685 261.407 128.609 262.757C127.533 264.107 126.775 265.683 126.392 267.366L111.295 333.494C110.905 335.182 110.902 336.936 111.286 338.625C111.67 340.314 112.433 341.894 113.515 343.247L155.828 396.252C156.907 397.597 158.275 398.682 159.83 399.427C161.385 400.172 163.087 400.558 164.811 400.557H232.618C234.343 400.559 236.046 400.174 237.601 399.429C239.156 398.683 240.524 397.598 241.602 396.252L283.896 343.247C284.974 341.898 285.734 340.323 286.118 338.64C286.502 336.956 286.502 335.208 286.116 333.525L271.02 267.366C270.636 265.683 269.878 264.107 268.802 262.757C267.726 261.407 266.359 260.317 264.803 259.569L203.693 230.139C202.137 229.389 200.432 229 198.706 229C196.979 229 195.274 229.389 193.719 230.139V230.139Z" fill="#431BB1"/>
<path d="M145.894 319.819L145.949 313.891C145.883 313.136 146.037 312.378 146.392 311.708C147.382 310.214 149.011 311.093 150.198 311.708C151.922 312.598 153.698 313.383 155.517 314.057C159.146 315.368 162.877 316.375 166.672 317.07C168.197 317.365 169.746 317.623 171.259 317.863C182.326 319.554 193.544 320.045 204.716 319.327C211.705 318.963 218.65 318.019 225.482 316.504C230.494 315.354 235.395 313.86 239.89 311.259C241.734 310.207 243.321 311.161 243.345 313.307C243.386 317.021 243.386 320.737 243.345 324.455C243.345 326.466 241.82 327.394 240.019 326.57C234.447 324.003 228.203 323.278 222.191 324.5C216.179 325.721 210.713 328.827 206.586 333.365C204.879 335.242 203.431 337.339 202.281 339.6C201.96 340.378 201.389 341.027 200.658 341.445C200.028 341.687 199.351 341.784 198.678 341.728C190.497 341.794 182.321 341.311 174.204 340.283C173.245 340.154 172.28 340.019 171.314 339.865C164.802 338.869 158.253 337.405 152.455 334.331C150.734 333.482 149.185 332.323 147.886 330.912C145.888 328.581 145.838 325.869 145.863 322.955L145.894 319.819Z" fill="white"/>
<path d="M191.188 368.355C183.046 367.961 174.954 367.414 166.96 365.649C161.364 364.419 155.092 363.048 150.357 359.629C147.959 357.895 145.856 355.466 145.893 352.343C145.942 348.192 145.893 344.041 145.893 339.884C145.893 337.818 147.535 336.81 149.324 337.8C155.307 341.151 161.832 342.762 168.497 343.98C177.752 345.658 187.086 346.181 196.464 346.23C197.466 346.23 198.641 346.39 199.059 347.429C199.581 348.721 199.022 350.504 198.966 351.838C198.825 355.663 199.463 359.477 200.842 363.048C201.272 364.143 201.795 365.366 201.697 366.566C201.574 368.041 200.264 368.459 198.985 368.49C196.408 368.558 193.801 368.459 191.188 368.355Z" fill="white"/>
<path d="M211.022 354.025C211.022 343.571 219.668 335.067 230.33 335.042C240.901 335.042 249.62 343.577 249.62 353.976C249.537 359.035 247.47 363.858 243.865 367.409C240.26 370.959 235.405 372.952 230.345 372.959C225.286 372.965 220.426 370.985 216.812 367.443C213.198 363.902 211.118 359.084 211.022 354.025V354.025ZM230.33 339.617C227.484 339.661 224.715 340.545 222.369 342.158C220.024 343.771 218.208 346.041 217.149 348.683C216.091 351.325 215.837 354.222 216.419 357.008C217.001 359.794 218.394 362.346 220.422 364.343C222.451 366.34 225.024 367.692 227.819 368.231C230.614 368.77 233.506 368.47 236.131 367.37C238.756 366.27 240.998 364.419 242.574 362.049C244.15 359.679 244.991 356.896 244.99 354.049C244.949 350.195 243.385 346.513 240.638 343.809C237.891 341.104 234.185 339.597 230.33 339.617V339.617Z" fill="white"/>
<path d="M228.388 333.789L229.089 333.279L228.573 332.83C228.889 332.625 229.124 332.317 229.236 331.957C229.348 331.598 229.331 331.21 229.188 330.862C229.022 330.29 228.794 329.737 228.603 329.171C228.447 328.806 228.405 328.403 228.482 328.013C228.559 327.624 228.751 327.267 229.034 326.988C229.342 326.739 229.717 326.586 230.112 326.549C230.507 326.512 230.904 326.592 231.254 326.779C232.108 327.216 232.385 328.243 231.949 329.356C231.758 329.847 231.567 330.346 231.426 330.856C231.278 331.205 231.258 331.596 231.371 331.959C231.483 332.321 231.721 332.632 232.041 332.836L231.524 333.248L232.342 333.912H228.388V333.789Z" fill="white"/>
<path d="M228.566 375.272L229.082 374.854L228.271 374.196H232.384L231.573 374.811L232.071 375.253C231.752 375.456 231.516 375.765 231.404 376.125C231.291 376.485 231.31 376.873 231.456 377.221C231.609 377.775 231.831 378.31 232.021 378.845C232.235 379.206 232.319 379.63 232.259 380.046C232.2 380.461 232 380.844 231.693 381.131C231.386 381.418 230.991 381.591 230.572 381.623C230.153 381.654 229.736 381.542 229.39 381.304C228.529 380.868 228.258 379.835 228.695 378.728C228.885 378.236 229.076 377.738 229.224 377.227C229.361 376.876 229.371 376.487 229.25 376.13C229.13 375.772 228.888 375.469 228.566 375.272V375.272Z" fill="white"/>
<path d="M214.064 367.801L214.715 367.9L214.679 367.229L217.138 369.843L217.323 369.689L216.517 369.627L216.554 370.212C216.554 370.212 216.493 370.273 216.468 370.267C216.129 370.2 215.777 370.248 215.468 370.404C215.159 370.56 214.912 370.815 214.765 371.128C214.487 371.63 214.239 372.147 214.021 372.677C213.584 373.637 212.821 374.159 212.004 374.043C211.566 373.985 211.16 373.782 210.852 373.466C210.543 373.151 210.349 372.741 210.3 372.302C210.202 371.503 210.755 370.74 211.721 370.316C212.212 370.117 212.693 369.891 213.16 369.64C213.499 369.485 213.775 369.217 213.94 368.882C214.105 368.547 214.148 368.165 214.064 367.801V367.801Z" fill="white"/>
<path d="M244.086 370.303L244.148 369.627L243.533 369.694L245.949 367.044V367.843L246.564 367.806C246.564 367.843 246.62 367.88 246.613 367.911C246.542 368.238 246.584 368.579 246.731 368.88C246.878 369.18 247.123 369.421 247.425 369.565C247.943 369.86 248.479 370.121 249.03 370.346C249.44 370.483 249.791 370.756 250.025 371.12C250.259 371.484 250.361 371.916 250.316 372.346C250.271 372.776 250.081 373.178 249.776 373.485C249.472 373.792 249.072 373.986 248.643 374.036C248.203 374.047 247.772 373.915 247.413 373.66C247.055 373.405 246.79 373.04 246.656 372.621C246.46 372.129 246.234 371.648 245.98 371.182C245.821 370.834 245.543 370.554 245.196 370.393C244.848 370.231 244.455 370.2 244.086 370.303Z" fill="white"/>
<path d="M243.34 338.376L244.109 338.468V337.81C245.111 338.007 245.665 337.423 246.083 336.648C246.396 336.07 246.612 335.418 246.962 334.877C247.15 334.535 247.451 334.27 247.814 334.127C248.177 333.984 248.578 333.973 248.948 334.096C249.338 334.216 249.683 334.451 249.936 334.77C250.19 335.09 250.341 335.479 250.369 335.886C250.346 336.3 250.199 336.697 249.947 337.027C249.694 337.356 249.349 337.601 248.955 337.73C248.561 337.903 248.161 338.05 247.786 338.247C246.981 338.665 246.378 339.231 246.556 340.264L245.898 340.209L245.966 340.823L243.506 338.173L243.34 338.376Z" fill="white"/>
<path d="M216.559 337.81L216.509 338.425L217.29 338.345L217.18 338.24L214.683 341.001L214.732 340.233H214.081C214.277 339.261 213.724 338.702 212.974 338.29C212.359 337.964 211.744 337.742 211.129 337.379C210.795 337.199 210.534 336.909 210.39 336.558C210.245 336.208 210.226 335.818 210.336 335.455C210.444 335.062 210.668 334.711 210.98 334.448C211.292 334.186 211.676 334.024 212.082 333.985C212.875 333.911 213.619 334.483 214.038 335.455C214.243 335.968 214.486 336.465 214.763 336.943C214.921 337.269 215.184 337.532 215.51 337.689C215.836 337.846 216.205 337.889 216.559 337.81V337.81Z" fill="white"/>
<path d="M251.512 355.872C251.333 355.423 251.137 355.146 250.737 355.687V352.508L251.167 352.779L251.542 352.305C252.065 353.098 252.815 353.154 253.633 352.92C254.18 352.76 254.709 352.526 255.25 352.348C255.616 352.193 256.021 352.156 256.409 352.242C256.797 352.328 257.149 352.533 257.415 352.828C257.667 353.137 257.818 353.517 257.848 353.915C257.878 354.313 257.784 354.71 257.581 355.054C257.138 355.872 256.123 356.13 255.047 355.718C254.514 355.504 253.97 355.317 253.418 355.158C253.067 355.035 252.684 355.039 252.335 355.169C251.987 355.299 251.695 355.548 251.512 355.872V355.872Z" fill="white"/>
<path d="M209.131 352.248C209.34 352.654 209.5 353.041 209.912 352.402V355.593L209.482 355.329L209.106 355.808C208.904 355.489 208.594 355.252 208.232 355.139C207.871 355.026 207.481 355.046 207.133 355.194C206.561 355.353 206.013 355.581 205.448 355.772C205.083 355.927 204.681 355.97 204.292 355.895C203.904 355.821 203.546 355.632 203.265 355.353C203.015 355.046 202.861 354.671 202.822 354.276C202.784 353.881 202.863 353.484 203.05 353.134C203.492 352.267 204.501 351.996 205.614 352.426C206.127 352.634 206.65 352.815 207.182 352.968C207.539 353.098 207.931 353.098 208.289 352.966C208.646 352.834 208.944 352.58 209.131 352.248V352.248Z" fill="white"/>
<path d="M224.7 352.747C224.949 352.594 225.15 352.376 225.282 352.115C225.413 351.854 225.469 351.562 225.444 351.271C225.444 351.13 225.303 350.903 225.192 350.878C224.822 350.805 224.473 350.65 224.171 350.424C223.869 350.198 223.621 349.908 223.446 349.574C223.212 349.144 222.96 348.72 222.745 348.283C222.228 347.225 222.234 347.225 221.054 347.508V346.321H219.683C219.756 346.075 219.763 345.823 219.886 345.707C220.605 344.975 221.349 344.274 222.093 343.579C222.198 343.481 222.401 343.493 222.554 343.45C222.583 343.606 222.599 343.764 222.603 343.923C222.603 344.188 222.603 344.452 222.573 344.753H223.803C223.557 345.94 223.563 345.928 224.645 346.469C225.174 346.694 225.674 346.983 226.133 347.33C226.54 347.734 226.899 348.184 227.203 348.67C227.295 348.8 227.314 349.125 227.363 349.125C227.715 349.157 228.07 349.111 228.402 348.99C229.017 348.683 229.152 348.375 228.789 347.705C228.65 347.431 228.568 347.132 228.548 346.825C228.529 346.518 228.574 346.211 228.679 345.922C228.805 345.359 228.971 344.806 229.177 344.268C229.429 343.653 229.312 343.241 228.654 343.038C228.548 342.982 228.447 342.916 228.353 342.841L229.312 341.949L228.187 341.045C229.604 340.739 231.068 340.725 232.491 341.002L231.452 341.98L232.381 342.853L231.839 343.148C231.752 343.175 231.671 343.22 231.603 343.282C231.535 343.344 231.481 343.42 231.446 343.505C231.412 343.589 231.396 343.681 231.402 343.773C231.407 343.864 231.432 343.954 231.477 344.034C231.68 344.594 231.815 345.184 232.012 345.743C232.241 346.486 232.207 347.286 231.913 348.006C231.858 348.185 231.692 348.461 231.747 348.511C231.978 348.781 232.272 348.992 232.602 349.125C233.285 349.316 233.469 349.255 233.709 348.511C233.93 347.912 234.369 347.42 234.939 347.133C235.301 346.912 235.683 346.709 236.064 346.518C237.152 345.977 237.158 345.983 236.906 344.803H238.075C238.075 344.52 238.075 344.218 238.075 343.917C238.086 343.779 238.107 343.641 238.136 343.505C238.271 343.505 238.456 343.505 238.542 343.591C239.333 344.329 240.112 345.081 240.879 345.848C240.977 345.952 240.946 346.18 240.983 346.389L239.643 346.321L239.71 347.465C239.587 347.514 239.544 347.557 239.514 347.545C238.468 347.275 238.474 347.281 237.982 348.277C237.778 348.769 237.513 349.233 237.195 349.66C236.759 350.125 236.279 350.547 235.763 350.921C235.621 351.038 235.252 351.069 235.258 351.124C235.263 351.495 235.327 351.862 235.449 352.212C235.701 352.827 236.23 352.827 236.679 352.526C236.939 352.384 237.227 352.3 237.523 352.279C237.819 352.257 238.116 352.3 238.394 352.403C238.917 352.526 239.428 352.68 239.932 352.846C240.959 353.165 240.959 353.172 241.703 351.966L242.318 353.073L243.203 352.114C243.689 352.114 243.664 352.489 243.677 352.833C243.8 355.551 243.763 355.828 243.222 356.092L242.367 355.195L241.524 356.111C241.439 355.982 241.361 355.849 241.291 355.711C241.262 355.597 241.207 355.491 241.13 355.402C241.052 355.314 240.955 355.245 240.846 355.201C240.737 355.157 240.619 355.14 240.501 355.15C240.384 355.161 240.271 355.199 240.172 355.262C239.698 355.453 239.194 355.576 238.708 355.73C238.257 355.904 237.769 355.961 237.29 355.896C236.81 355.832 236.355 355.648 235.966 355.361C235.855 355.496 235.763 355.613 235.664 355.717C234.945 356.498 234.988 357.144 235.916 357.464C236.497 357.678 236.972 358.107 237.245 358.663C237.503 359.075 237.73 359.511 237.952 359.954C238.437 360.944 238.431 360.95 239.575 360.624V361.854C239.901 361.854 240.19 361.799 240.504 361.799C240.633 361.799 240.83 361.799 240.879 361.91C240.907 361.974 240.918 362.044 240.911 362.114C240.905 362.184 240.881 362.251 240.842 362.309C240.061 363.09 239.274 363.871 238.45 364.609C238.192 364.843 237.97 364.726 238.007 364.332C238.044 363.939 238.056 363.717 238.087 363.379H236.808C236.876 363.164 236.906 363.023 236.962 362.893C237.01 362.803 237.037 362.704 237.042 362.602C237.046 362.5 237.028 362.398 236.989 362.304C236.95 362.21 236.89 362.125 236.814 362.057C236.738 361.989 236.648 361.939 236.55 361.91C235.898 361.59 235.265 361.239 234.631 360.889C234.331 360.719 234.073 360.485 233.875 360.203C233.678 359.921 233.545 359.599 233.487 359.259C233.414 358.927 232.62 358.853 232.202 359.155C231.987 359.315 231.796 359.511 231.538 359.739C232.374 360.766 232.153 361.873 231.772 362.992C231.71 363.17 231.655 363.355 231.6 363.539C231.249 364.652 231.249 364.652 232.294 365.298L231.391 366.152L232.399 367.106C231.008 367.395 229.572 367.395 228.181 367.106L229.201 366.134L228.273 365.242C228.513 365.119 228.636 365.046 228.765 364.99C228.864 364.964 228.955 364.915 229.031 364.847C229.108 364.779 229.168 364.695 229.207 364.6C229.245 364.506 229.262 364.403 229.254 364.302C229.247 364.2 229.216 364.101 229.165 364.013C228.98 363.533 228.857 363.035 228.697 362.549C228.51 362.084 228.444 361.58 228.503 361.082C228.562 360.585 228.745 360.11 229.035 359.702C228.855 359.496 228.648 359.314 228.421 359.161C228.151 359.067 227.873 358.999 227.59 358.958C227.086 358.829 227.215 359.21 227.123 359.474C226.848 360.182 226.31 360.757 225.623 361.079C225.229 361.288 224.836 361.51 224.436 361.694C223.47 362.174 223.464 362.174 223.821 363.299H222.591C222.591 363.637 222.591 363.957 222.653 364.277C222.714 364.597 222.474 364.787 222.222 364.56C221.398 363.822 220.605 363.047 219.824 362.26C219.732 362.162 219.769 361.934 219.744 361.762H221.011L220.962 360.637C221.097 360.6 221.14 360.569 221.177 360.581C222.185 360.87 222.173 360.864 222.634 359.966C222.893 359.381 223.213 358.825 223.587 358.306C223.987 357.891 224.435 357.526 224.922 357.218C225.069 357.113 225.414 357.058 225.414 357.003C225.396 356.633 225.323 356.268 225.198 355.92C225.112 355.699 224.879 355.539 224.663 355.305C223.384 356.332 222.068 355.742 220.765 355.305C219.695 354.967 219.695 354.961 219.061 356.142L218.207 355.096L217.26 356.086C217.125 355.877 217.025 355.646 216.965 355.404C216.774 353.245 216.891 352.329 217.383 352.022L218.238 352.95L219.111 352.009C219.234 352.237 219.314 352.36 219.369 352.489C219.396 352.587 219.445 352.678 219.513 352.755C219.58 352.832 219.664 352.892 219.758 352.932C219.852 352.971 219.954 352.989 220.056 352.984C220.158 352.979 220.257 352.95 220.347 352.901C220.82 352.717 221.318 352.581 221.81 352.44C223.415 351.979 223.636 352.311 224.7 352.747ZM230.296 349.919C229.22 349.944 228.197 350.387 227.442 351.154C226.687 351.92 226.259 352.95 226.25 354.026C226.245 354.565 226.347 355.1 226.549 355.599C226.752 356.098 227.051 356.552 227.43 356.935C227.809 357.318 228.26 357.622 228.758 357.83C229.255 358.038 229.788 358.145 230.327 358.146C231.403 358.147 232.438 357.73 233.213 356.984C233.988 356.237 234.444 355.219 234.484 354.143C234.463 353.032 234.014 351.972 233.23 351.185C232.446 350.398 231.388 349.944 230.278 349.919H230.296Z" fill="white"/>
<path d="M230.369 351.241C231.099 351.282 231.785 351.603 232.285 352.137C232.784 352.671 233.059 353.377 233.051 354.109C233.043 354.84 232.753 355.54 232.242 356.063C231.732 356.586 231.039 356.892 230.308 356.917C229.924 356.93 229.542 356.865 229.184 356.727C228.826 356.588 228.5 356.378 228.225 356.11C227.95 355.842 227.733 355.521 227.586 355.166C227.439 354.812 227.365 354.431 227.369 354.047C227.373 353.663 227.455 353.284 227.61 352.933C227.765 352.581 227.989 352.265 228.27 352.003C228.55 351.741 228.881 351.538 229.241 351.407C229.602 351.276 229.986 351.22 230.369 351.241V351.241ZM231.907 354.088C231.909 353.776 231.819 353.47 231.647 353.208C231.475 352.947 231.23 352.743 230.942 352.621C230.655 352.499 230.337 352.465 230.03 352.524C229.723 352.582 229.44 352.731 229.218 352.95C228.995 353.169 228.842 353.45 228.779 353.756C228.715 354.062 228.744 354.38 228.862 354.669C228.979 354.959 229.18 355.208 229.438 355.383C229.697 355.559 230.001 355.654 230.314 355.656C230.526 355.664 230.737 355.628 230.934 355.55C231.131 355.473 231.31 355.355 231.46 355.205C231.609 355.055 231.726 354.876 231.803 354.678C231.88 354.481 231.915 354.269 231.907 354.058V354.088Z" fill="white"/>
<path d="M243.365 294.952C243.365 291.477 243.365 288.003 243.365 284.529C243.413 283.773 243.289 283.016 243.004 282.314C242.719 281.613 242.279 280.985 241.717 280.477C240.234 279.185 238.604 278.075 236.859 277.168C231.866 274.782 226.479 273.731 221.05 272.864C213.475 271.671 205.824 271.02 198.156 270.915C193.458 270.835 188.754 271.062 184.056 271.271C179.943 271.45 175.847 271.775 171.758 272.31C172.478 273.705 173.052 275.17 173.474 276.682C179.646 275.7 185.886 275.208 192.136 275.213C201.649 275.213 208.678 275.533 215.638 276.658C220.865 277.5 226.049 278.57 230.882 280.858C231.812 281.294 232.691 281.832 233.502 282.463C234.953 283.6 235.008 284.818 233.44 285.808C231.627 286.989 229.686 287.961 227.654 288.704C221.277 290.93 214.642 291.896 207.933 292.51C201.186 293.095 194.407 293.23 187.641 292.916C187.641 293.002 187.641 293.082 187.641 293.162C187.662 295.14 187.288 297.101 186.542 298.933C185.795 300.764 184.691 302.428 183.294 303.828C181.897 305.228 180.235 306.335 178.406 307.085C176.576 307.835 174.615 308.213 172.637 308.197H153.415C153.845 308.418 154.282 308.634 154.725 308.812C157.87 310.235 161.158 311.319 164.533 312.046C172.471 313.83 180.779 314.574 188.902 314.881C190.747 314.955 192.591 314.994 194.436 314.998C200.96 315.013 207.478 314.621 213.954 313.823C221.726 312.864 229.8 311.474 236.798 307.773C238.79 306.715 240.715 305.399 241.963 303.524C243.758 300.892 243.359 297.952 243.365 294.952Z" fill="white"/>
<path d="M213.931 287.548C217.129 286.576 218.746 285.451 218.764 284.215C218.764 283.533 216.016 283.121 213.704 283.465C210.168 283.988 206.694 284.535 203.318 285.107C201.061 285.494 201.412 286.17 203.847 286.496L206.921 286.89C206.534 287.001 206.306 287.087 206.023 287.148C200.616 288.123 195.101 288.361 189.63 287.855C188.523 287.763 187.502 287.64 186.555 287.505C186.814 288.122 187.03 288.757 187.201 289.405C196.412 290.204 207.247 289.589 213.931 287.548Z" fill="white"/>
<path d="M186.335 281.755L183.1 281.337C183.857 281.232 184.207 281.202 184.478 281.146C191.961 279.652 202.642 279.916 208.632 281.81C210.32 282.305 212.097 282.416 213.834 282.136C215.556 281.847 215.734 281.312 214.197 280.826C210.003 279.506 204.432 278.758 197.483 278.582C191.537 278.373 185.586 278.818 179.737 279.91C181.444 280.863 182.958 282.127 184.201 283.637C185.044 283.501 185.898 283.372 186.735 283.231C189.459 282.806 189.243 282.118 186.335 281.755Z" fill="white"/>
<path d="M173.608 283.521C172.12 276.541 165.744 271.222 157.885 271.222C155.019 271.173 152.195 271.913 149.722 273.362C147.249 274.811 145.223 276.913 143.865 279.438C137.279 280.262 132.391 285.396 132.391 291.736C132.391 298.5 138.128 304.034 145.138 304.034H172.754C178.706 304.034 183.379 299.515 183.379 293.759C183.379 288.452 178.915 283.933 173.608 283.521ZM162.134 289.67V297.891H153.636V289.682H147.259L157.885 279.413L168.505 289.682L162.134 289.67Z" fill="white"/>
<path d="M322.423 375.592V257.847H349.621V308.593L392.739 257.847H423.253L379.14 310.418L426.238 375.592H395.061L361.893 328.328L349.621 340.932V375.592H322.423ZM427.583 344.249V288.527H454.117V338.444C454.117 343.751 455.168 347.842 457.268 350.716C459.369 353.48 462.354 354.862 466.223 354.862C468.656 354.862 470.977 354.475 473.189 353.701C475.4 352.817 477.556 351.435 479.656 349.555C481.757 347.676 483.636 345.244 485.295 342.259V288.527H511.829V346.073C511.829 348.726 512.216 350.606 512.99 351.711C513.874 352.706 515.367 353.314 517.467 353.536V375.592C515.035 376.034 512.879 376.366 511 376.587C509.231 376.808 507.628 376.919 506.19 376.919C501.547 376.919 497.843 375.979 495.079 374.099C492.315 372.109 490.602 369.345 489.938 365.808L489.441 360.501C485.461 366.25 480.486 370.506 474.515 373.27C468.656 375.924 462.077 377.25 454.781 377.25C445.936 377.25 439.192 374.431 434.548 368.793C429.905 363.154 427.583 354.973 427.583 344.249ZM582.966 377.25C576.332 377.25 570.528 375.868 565.553 373.104C560.578 370.23 556.653 366.25 553.778 361.164V375.592H530.727V254.53H557.261V302.789C560.135 297.703 563.95 293.778 568.704 291.015C573.568 288.251 579.262 286.869 585.785 286.869C591.313 286.869 596.343 288.085 600.876 290.517C605.52 292.839 609.5 296.1 612.817 300.301C616.244 304.392 618.897 309.201 620.777 314.729C622.656 320.147 623.596 326.062 623.596 332.474C623.596 338.776 622.546 344.636 620.445 350.053C618.455 355.47 615.636 360.224 611.987 364.315C608.339 368.406 604.027 371.612 599.052 373.934C594.188 376.145 588.825 377.25 582.966 377.25ZM575.503 354.862C578.488 354.862 581.252 354.309 583.795 353.204C586.448 351.988 588.715 350.385 590.594 348.395C592.474 346.405 593.911 344.083 594.906 341.429C595.901 338.665 596.399 335.68 596.399 332.474C596.399 328.383 595.569 324.569 593.911 321.031C592.253 317.493 589.931 314.674 586.946 312.573C584.071 310.473 580.699 309.423 576.83 309.423C574.066 309.423 571.412 310.086 568.87 311.413C566.327 312.739 564.06 314.564 562.07 316.885C560.08 319.096 558.477 321.639 557.261 324.514V342.756C558.145 344.636 559.251 346.349 560.578 347.897C561.904 349.334 563.342 350.55 564.889 351.545C566.548 352.541 568.261 353.37 570.03 354.033C571.91 354.586 573.734 354.862 575.503 354.862ZM676.772 377.25C669.364 377.25 662.786 376.09 657.037 373.768C651.288 371.336 646.368 368.074 642.278 363.983C638.297 359.893 635.257 355.194 633.156 349.887C631.056 344.47 630.006 338.831 630.006 332.972C630.006 324.569 631.83 316.941 635.478 310.086C639.237 303.121 644.599 297.537 651.565 293.336C658.53 289.024 666.932 286.869 676.772 286.869C686.612 286.869 694.959 288.969 701.814 293.17C708.779 297.372 714.086 302.9 717.734 309.754C721.382 316.498 723.207 323.85 723.207 331.811C723.207 333.359 723.096 334.906 722.875 336.454C722.764 337.891 722.654 339.163 722.543 340.268H658.198C658.53 344.138 659.58 347.4 661.349 350.053C663.228 352.706 665.605 354.752 668.48 356.189C671.355 357.516 674.395 358.179 677.601 358.179C681.581 358.179 685.285 357.239 688.712 355.36C692.25 353.48 694.682 350.937 696.009 347.731L718.563 354.033C716.352 358.566 713.201 362.601 709.11 366.139C705.13 369.567 700.376 372.275 694.848 374.265C689.431 376.255 683.405 377.25 676.772 377.25ZM657.535 324.016H695.346C694.904 320.368 693.853 317.217 692.195 314.564C690.537 311.8 688.325 309.699 685.561 308.262C682.797 306.714 679.757 305.94 676.44 305.94C673.013 305.94 669.917 306.714 667.153 308.262C664.5 309.699 662.344 311.8 660.686 314.564C659.027 317.217 657.977 320.368 657.535 324.016ZM806.875 288.693C806.101 287.919 804.663 286.869 802.563 285.542C800.573 284.215 798.085 282.944 795.1 281.728C792.226 280.511 789.075 279.461 785.647 278.577C782.22 277.582 778.737 277.084 775.2 277.084C769.008 277.084 764.309 278.245 761.103 280.567C758.008 282.888 756.46 286.15 756.46 290.351C756.46 293.557 757.455 296.1 759.445 297.98C761.435 299.859 764.42 301.462 768.4 302.789C772.38 304.116 777.355 305.553 783.326 307.101C791.065 308.98 797.754 311.302 803.392 314.066C809.141 316.719 813.508 320.257 816.493 324.68C819.589 328.991 821.137 334.741 821.137 341.927C821.137 348.229 819.976 353.646 817.654 358.179C815.332 362.601 812.126 366.195 808.036 368.959C803.945 371.722 799.301 373.768 794.105 375.095C788.909 376.311 783.381 376.919 777.521 376.919C771.662 376.919 765.802 376.311 759.942 375.095C754.083 373.878 748.444 372.165 743.027 369.954C737.61 367.632 732.634 364.868 728.101 361.662L738.218 341.927C739.213 342.922 740.982 344.249 743.524 345.907C746.067 347.455 749.163 349.058 752.811 350.716C756.46 352.264 760.44 353.591 764.752 354.696C769.064 355.802 773.431 356.355 777.853 356.355C784.044 356.355 788.743 355.304 791.949 353.204C795.155 351.103 796.759 348.118 796.759 344.249C796.759 340.711 795.487 337.947 792.944 335.957C790.401 333.967 786.864 332.253 782.331 330.816C777.798 329.268 772.436 327.609 766.244 325.841C758.837 323.74 752.646 321.418 747.67 318.875C742.695 316.222 738.992 312.905 736.559 308.925C734.127 304.945 732.911 299.97 732.911 294C732.911 285.929 734.79 279.185 738.549 273.767C742.419 268.239 747.615 264.093 754.138 261.329C760.661 258.455 767.903 257.018 775.863 257.018C781.391 257.018 786.587 257.626 791.452 258.842C796.427 260.058 801.07 261.661 805.382 263.651C809.694 265.641 813.563 267.797 816.991 270.119L806.875 288.693ZM890.006 370.949C887.574 371.944 884.865 372.939 881.88 373.934C879.006 374.929 875.965 375.703 872.759 376.255C869.553 376.919 866.402 377.25 863.306 377.25C858.884 377.25 854.793 376.532 851.034 375.095C847.386 373.547 844.456 371.059 842.245 367.632C840.144 364.204 839.094 359.672 839.094 354.033V308.593H827.983V288.527H839.094V260.832H865.628V288.527H883.373V308.593H865.628V344.912C865.628 347.786 866.347 349.887 867.784 351.214C869.221 352.43 871.045 353.038 873.257 353.038C875.136 353.038 877.126 352.706 879.227 352.043C881.438 351.38 883.317 350.661 884.865 349.887L890.006 370.949ZM893.214 349.555C893.214 343.806 894.817 338.776 898.024 334.464C901.23 330.152 905.652 326.78 911.291 324.348C916.929 321.805 923.397 320.534 930.694 320.534C934.232 320.534 937.714 320.865 941.142 321.529C944.569 322.082 947.554 322.911 950.097 324.016V320.202C950.097 315.448 948.66 311.8 945.785 309.257C942.91 306.714 938.543 305.442 932.684 305.442C927.819 305.442 923.231 306.272 918.919 307.93C914.718 309.588 910.24 311.965 905.486 315.061L897.526 298.146C903.275 294.387 909.245 291.567 915.437 289.688C921.738 287.808 928.372 286.869 935.337 286.869C948.383 286.869 958.499 290.019 965.686 296.321C972.982 302.513 976.631 311.523 976.631 323.353V346.073C976.631 348.726 977.018 350.606 977.792 351.711C978.676 352.706 980.169 353.314 982.269 353.536V375.592C980.058 376.034 977.958 376.366 975.968 376.587C974.088 376.808 972.43 376.919 970.992 376.919C966.017 376.919 962.203 375.924 959.55 373.934C957.007 371.944 955.404 369.235 954.74 365.808L954.243 361.993C950.373 366.968 945.73 370.783 940.312 373.436C935.005 375.979 929.422 377.25 923.563 377.25C917.814 377.25 912.617 376.034 907.974 373.602C903.441 371.17 899.848 367.853 897.194 363.652C894.541 359.45 893.214 354.752 893.214 349.555ZM945.951 352.872C947.167 351.877 948.162 350.772 948.936 349.555C949.71 348.339 950.097 347.178 950.097 346.073V338.278C947.886 337.394 945.398 336.731 942.634 336.288C939.981 335.736 937.493 335.459 935.171 335.459C930.307 335.459 926.271 336.565 923.065 338.776C919.859 340.877 918.256 343.696 918.256 347.234C918.256 349.224 918.809 351.048 919.914 352.706C921.02 354.365 922.512 355.691 924.392 356.686C926.382 357.682 928.704 358.179 931.357 358.179C934.01 358.179 936.664 357.682 939.317 356.686C941.971 355.691 944.182 354.42 945.951 352.872ZM1027.53 377.25C1020.13 377.25 1012.88 376.034 1005.81 373.602C998.732 371.17 992.762 367.577 987.897 362.822L997.019 346.073C1002.33 349.942 1007.47 352.872 1012.44 354.862C1017.53 356.852 1022.28 357.847 1026.7 357.847C1030.13 357.847 1032.78 357.295 1034.66 356.189C1036.54 355.083 1037.48 353.37 1037.48 351.048C1037.48 349.39 1036.93 348.118 1035.82 347.234C1034.72 346.239 1033.01 345.354 1030.68 344.58C1028.47 343.806 1025.71 342.977 1022.39 342.093C1015.76 339.882 1010.23 337.726 1005.81 335.625C1001.39 333.524 998.069 330.982 995.858 327.996C993.647 324.901 992.541 320.921 992.541 316.056C992.541 310.196 993.978 305.111 996.853 300.799C999.838 296.377 1004.04 292.949 1009.46 290.517C1014.87 288.085 1021.34 286.869 1028.86 286.869C1034.83 286.869 1040.63 287.808 1046.27 289.688C1052.02 291.567 1057.38 294.718 1062.36 299.141L1052.08 315.724C1047.1 312.297 1042.68 309.81 1038.81 308.262C1034.94 306.714 1031.18 305.94 1027.53 305.94C1025.65 305.94 1023.94 306.161 1022.39 306.603C1020.84 307.046 1019.57 307.819 1018.58 308.925C1017.69 309.92 1017.25 311.247 1017.25 312.905C1017.25 314.564 1017.69 315.89 1018.58 316.885C1019.57 317.88 1021.07 318.765 1023.06 319.539C1025.16 320.202 1027.75 321.031 1030.85 322.026C1038.04 324.127 1044.01 326.283 1048.76 328.494C1053.51 330.595 1057.05 333.248 1059.37 336.454C1061.81 339.55 1063.02 343.696 1063.02 348.892C1063.02 357.737 1059.82 364.702 1053.4 369.788C1047.1 374.763 1038.48 377.25 1027.53 377.25ZM1158.89 375.592H1132.35V326.67C1132.35 321.031 1131.19 316.885 1128.87 314.232C1126.66 311.578 1123.68 310.252 1119.92 310.252C1117.93 310.252 1115.66 310.915 1113.12 312.242C1110.68 313.458 1108.42 315.227 1106.32 317.549C1104.22 319.87 1102.61 322.579 1101.51 325.675V375.592H1074.97V254.53H1101.51V303.121C1104.71 297.924 1108.92 293.944 1114.11 291.18C1119.42 288.306 1125.22 286.869 1131.53 286.869C1137.5 286.869 1142.25 287.864 1145.79 289.854C1149.44 291.844 1152.2 294.497 1154.08 297.814C1155.96 301.02 1157.23 304.558 1157.89 308.428C1158.56 312.297 1158.89 316.111 1158.89 319.87V375.592Z" fill="#431BB1"/>
</svg>
