<svg width="1280" height="640" viewBox="0 0 1280 640" fill="none" xmlns="http://www.w3.org/2000/svg">
<path d="M631.321 60.4925L497.597 124.892C494.192 126.53 491.201 128.915 488.846 131.869C486.49 134.823 484.832 138.271 483.993 141.954L450.959 286.659C450.104 290.352 450.097 294.191 450.938 297.887C451.78 301.583 453.447 305.041 455.816 308L548.406 423.99C550.768 426.932 553.761 429.306 557.164 430.936C560.567 432.566 564.292 433.411 568.065 433.409H716.443C720.217 433.414 723.943 432.571 727.346 430.94C730.75 429.309 733.742 426.934 736.102 423.99L828.652 308C831.011 305.048 832.673 301.602 833.514 297.919C834.355 294.235 834.354 290.409 833.51 286.726L800.475 141.954C799.637 138.271 797.978 134.823 795.623 131.869C793.267 128.915 790.276 126.53 786.871 124.892L653.147 60.4925C649.743 58.8519 646.013 58 642.234 58C638.455 58 634.725 58.8519 631.321 60.4925V60.4925Z" fill="#431BB1"/>
<path d="M526.667 256.731L526.788 243.76C526.644 242.107 526.98 240.448 527.757 238.983C529.924 235.713 533.489 237.637 536.086 238.983C539.858 240.932 543.745 242.648 547.726 244.123C555.666 246.992 563.83 249.197 572.135 250.716C575.472 251.362 578.863 251.927 582.173 252.452C606.391 256.153 630.938 257.227 655.386 255.655C670.678 254.858 685.877 252.792 700.827 249.479C711.793 246.962 722.518 243.693 732.354 238.001C736.391 235.7 739.862 237.785 739.916 242.481C740.006 250.609 740.006 258.741 739.916 266.877C739.916 271.277 736.579 273.309 732.636 271.506C720.445 265.888 706.78 264.301 693.625 266.975C680.47 269.648 668.509 276.443 659.477 286.375C655.742 290.481 652.574 295.07 650.058 300.019C649.353 301.721 648.104 303.141 646.505 304.056C645.126 304.585 643.645 304.797 642.173 304.675C624.27 304.819 606.379 303.763 588.618 301.512C586.519 301.23 584.406 300.934 582.294 300.597C568.044 298.418 553.714 295.215 541.025 288.487C537.26 286.631 533.87 284.094 531.027 281.006C526.654 275.906 526.546 269.972 526.6 263.594L526.667 256.731Z" fill="white"/>
<path d="M625.789 362.943C607.974 362.082 590.266 360.884 572.773 357.023C560.528 354.331 546.803 351.331 536.442 343.849C531.195 340.055 526.593 334.74 526.673 327.904C526.781 318.821 526.673 309.739 526.673 300.643C526.673 296.121 530.266 293.915 534.182 296.081C547.274 303.414 561.551 306.94 576.137 309.604C596.388 313.278 616.814 314.421 637.335 314.529C639.528 314.529 642.098 314.879 643.013 317.153C644.157 319.979 642.932 323.881 642.811 326.801C642.502 335.171 643.899 343.517 646.915 351.331C647.857 353.726 649.001 356.404 648.786 359.028C648.516 362.257 645.65 363.172 642.851 363.239C637.213 363.387 631.508 363.172 625.789 362.943Z" fill="white"/>
<path d="M669.186 331.586C669.186 308.711 688.105 290.102 711.437 290.048C734.568 290.048 753.649 308.725 753.649 331.479C753.466 342.549 748.943 353.105 741.054 360.874C733.166 368.643 722.542 373.004 711.47 373.018C700.398 373.033 689.763 368.699 681.855 360.95C673.947 353.201 669.397 342.656 669.186 331.586V331.586ZM711.437 300.059C705.21 300.155 699.149 302.089 694.017 305.618C688.885 309.148 684.911 314.116 682.594 319.898C680.278 325.679 679.721 332.017 680.996 338.114C682.27 344.211 685.318 349.795 689.757 354.164C694.195 358.534 699.826 361.494 705.942 362.673C712.058 363.852 718.386 363.197 724.131 360.79C729.876 358.383 734.781 354.332 738.23 349.145C741.679 343.959 743.518 337.869 743.516 331.64C743.428 323.205 740.003 315.149 733.993 309.231C727.982 303.314 719.872 300.016 711.437 300.059V300.059Z" fill="white"/>
<path d="M707.196 287.307L708.73 286.19L707.599 285.208C708.292 284.761 708.805 284.085 709.051 283.298C709.297 282.512 709.259 281.664 708.945 280.902C708.582 279.651 708.084 278.44 707.667 277.202C707.325 276.403 707.233 275.52 707.401 274.668C707.569 273.816 707.99 273.034 708.609 272.425C709.284 271.879 710.105 271.545 710.968 271.464C711.832 271.382 712.701 271.558 713.466 271.967C715.337 272.923 715.942 275.17 714.987 277.605C714.57 278.682 714.152 279.772 713.843 280.889C713.519 281.653 713.476 282.508 713.722 283.301C713.969 284.095 714.488 284.775 715.189 285.221L714.058 286.123L715.848 287.576H707.196V287.307Z" fill="white"/>
<path d="M707.582 378.078L708.712 377.163L706.936 375.724H715.938L714.162 377.069L715.252 378.038C714.555 378.482 714.039 379.157 713.792 379.945C713.546 380.733 713.586 381.583 713.906 382.344C714.243 383.555 714.727 384.726 715.144 385.896C715.612 386.688 715.795 387.615 715.665 388.524C715.534 389.434 715.097 390.272 714.425 390.899C713.754 391.527 712.888 391.906 711.972 391.975C711.055 392.044 710.143 391.799 709.385 391.279C707.501 390.323 706.909 388.063 707.864 385.641C708.282 384.564 708.699 383.474 709.022 382.357C709.323 381.589 709.344 380.738 709.08 379.956C708.817 379.173 708.287 378.509 707.582 378.078V378.078Z" fill="white"/>
<path d="M675.841 361.728L677.267 361.944L677.187 360.477L682.569 366.196L682.973 365.859L681.21 365.725L681.291 367.003C681.291 367.003 681.156 367.138 681.102 367.124C680.36 366.977 679.59 367.083 678.914 367.424C678.239 367.766 677.697 368.323 677.375 369.008C676.768 370.106 676.224 371.238 675.747 372.399C674.792 374.498 673.123 375.642 671.333 375.386C670.376 375.26 669.488 374.816 668.813 374.125C668.137 373.435 667.712 372.538 667.606 371.578C667.391 369.829 668.602 368.16 670.714 367.232C671.79 366.796 672.841 366.302 673.863 365.752C674.607 365.413 675.21 364.827 675.571 364.093C675.931 363.36 676.027 362.524 675.841 361.728V361.728Z" fill="white"/>
<path d="M741.546 367.206L741.681 365.726L740.335 365.874L745.624 360.075V361.824L746.969 361.743C746.969 361.824 747.09 361.905 747.077 361.972C746.921 362.687 747.012 363.434 747.334 364.091C747.656 364.749 748.192 365.277 748.853 365.592C749.986 366.236 751.159 366.807 752.365 367.301C753.262 367.601 754.03 368.198 754.542 368.994C755.053 369.79 755.278 370.736 755.18 371.677C755.081 372.618 754.664 373.497 753.998 374.169C753.332 374.842 752.457 375.266 751.517 375.374C750.555 375.399 749.611 375.11 748.828 374.552C748.044 373.994 747.462 373.196 747.171 372.279C746.741 371.201 746.246 370.15 745.691 369.13C745.343 368.368 744.734 367.755 743.974 367.402C743.214 367.049 742.353 366.98 741.546 367.206Z" fill="white"/>
<path d="M739.909 297.341L741.591 297.543V296.103C743.784 296.533 744.995 295.255 745.91 293.56C746.597 292.295 747.068 290.869 747.835 289.684C748.245 288.936 748.904 288.355 749.698 288.043C750.493 287.731 751.371 287.707 752.181 287.976C753.034 288.237 753.788 288.752 754.343 289.451C754.898 290.15 755.228 291.001 755.289 291.891C755.24 292.797 754.918 293.668 754.366 294.388C753.813 295.108 753.057 295.645 752.194 295.928C751.333 296.305 750.459 296.628 749.638 297.058C747.875 297.973 746.556 299.211 746.947 301.472L745.507 301.351L745.655 302.696L740.272 296.897L739.909 297.341Z" fill="white"/>
<path d="M681.293 296.104L681.185 297.449L682.894 297.274L682.652 297.046L677.189 303.087L677.296 301.405H675.87C676.301 299.279 675.09 298.055 673.448 297.153C672.102 296.44 670.757 295.956 669.411 295.162C668.681 294.767 668.11 294.132 667.794 293.365C667.478 292.598 667.436 291.745 667.675 290.95C667.911 290.09 668.403 289.322 669.086 288.747C669.768 288.173 670.609 287.82 671.497 287.734C673.233 287.573 674.861 288.824 675.776 290.95C676.226 292.072 676.757 293.161 677.364 294.206C677.709 294.919 678.284 295.495 678.998 295.839C679.711 296.184 680.52 296.277 681.293 296.104V296.104Z" fill="white"/>
<path d="M757.781 335.624C757.391 334.642 756.96 334.036 756.085 335.22V328.264L757.027 328.856L757.848 327.82C758.992 329.555 760.634 329.676 762.423 329.165C763.621 328.815 764.778 328.304 765.962 327.914C766.763 327.575 767.649 327.494 768.498 327.682C769.347 327.87 770.116 328.318 770.699 328.963C771.251 329.64 771.581 330.471 771.646 331.342C771.711 332.213 771.507 333.083 771.062 333.834C770.093 335.624 767.873 336.189 765.518 335.288C764.351 334.819 763.161 334.411 761.952 334.063C761.184 333.793 760.346 333.801 759.583 334.086C758.821 334.372 758.183 334.916 757.781 335.624V335.624Z" fill="white"/>
<path d="M665.054 327.698C665.511 328.586 665.861 329.434 666.762 328.035V335.018L665.821 334.44L665 335.489C664.556 334.79 663.878 334.271 663.087 334.024C662.296 333.778 661.443 333.82 660.68 334.144C659.429 334.494 658.231 334.991 656.993 335.409C656.196 335.748 655.316 335.842 654.466 335.679C653.615 335.516 652.832 335.103 652.217 334.494C651.669 333.82 651.332 333 651.249 332.136C651.165 331.272 651.338 330.402 651.746 329.636C652.714 327.739 654.921 327.147 657.357 328.089C658.479 328.543 659.624 328.939 660.788 329.273C661.57 329.559 662.429 329.557 663.21 329.269C663.991 328.981 664.645 328.424 665.054 327.698V327.698Z" fill="white"/>
<path d="M699.118 328.787C699.662 328.452 700.102 327.973 700.39 327.403C700.677 326.833 700.801 326.194 700.746 325.557C700.746 325.248 700.436 324.75 700.194 324.696C699.385 324.536 698.621 324.197 697.96 323.703C697.299 323.209 696.757 322.574 696.373 321.844C695.861 320.902 695.31 319.973 694.839 319.018C693.708 316.703 693.722 316.703 691.138 317.322V314.725H688.138C688.299 314.187 688.313 313.635 688.582 313.38C690.156 311.779 691.784 310.245 693.412 308.724C693.641 308.509 694.085 308.536 694.422 308.441C694.484 308.784 694.52 309.13 694.529 309.478C694.529 310.056 694.529 310.635 694.462 311.294H697.153C696.615 313.891 696.628 313.864 698.997 315.048C700.155 315.54 701.249 316.173 702.253 316.932C703.144 317.816 703.93 318.801 704.594 319.866C704.796 320.148 704.836 320.861 704.944 320.861C705.715 320.931 706.491 320.829 707.218 320.565C708.564 319.892 708.86 319.22 708.066 317.753C707.76 317.154 707.58 316.498 707.539 315.827C707.497 315.156 707.594 314.483 707.824 313.851C708.099 312.619 708.463 311.41 708.914 310.231C709.465 308.886 709.21 307.984 707.77 307.54C707.537 307.418 707.316 307.274 707.111 307.109L709.21 305.158L706.747 303.18C709.848 302.51 713.053 302.478 716.166 303.086L713.892 305.226L715.924 307.136L714.74 307.782C714.548 307.84 714.371 307.939 714.222 308.074C714.073 308.209 713.956 308.375 713.88 308.561C713.804 308.747 713.77 308.948 713.782 309.148C713.793 309.348 713.849 309.544 713.946 309.72C714.39 310.944 714.686 312.236 715.117 313.461C715.62 315.086 715.544 316.836 714.901 318.412C714.78 318.802 714.417 319.408 714.538 319.516C715.044 320.108 715.686 320.57 716.409 320.861C717.902 321.278 718.306 321.144 718.831 319.516C719.314 318.207 720.276 317.13 721.522 316.502C722.316 316.017 723.15 315.573 723.984 315.156C726.366 313.972 726.379 313.985 725.828 311.402H728.384C728.384 310.783 728.384 310.123 728.384 309.464C728.409 309.161 728.454 308.86 728.519 308.563C728.815 308.563 729.219 308.563 729.407 308.751C731.138 310.366 732.843 312.012 734.52 313.689C734.735 313.918 734.668 314.416 734.749 314.873L731.816 314.725L731.964 317.228C731.694 317.336 731.6 317.43 731.533 317.403C729.245 316.811 729.259 316.824 728.182 319.004C727.735 320.08 727.156 321.097 726.46 322.032C725.505 323.049 724.455 323.972 723.325 324.79C723.015 325.046 722.208 325.113 722.222 325.234C722.231 326.046 722.372 326.85 722.639 327.616C723.19 328.962 724.348 328.962 725.33 328.302C725.9 327.992 726.53 327.808 727.178 327.761C727.825 327.715 728.475 327.808 729.084 328.033C730.228 328.302 731.345 328.639 732.448 329.002C734.695 329.702 734.695 329.715 736.323 327.078L737.669 329.5L739.606 327.401C740.669 327.401 740.616 328.222 740.643 328.975C740.912 334.923 740.831 335.528 739.647 336.107L737.776 334.142L735.933 336.147C735.745 335.866 735.574 335.574 735.422 335.272C735.359 335.023 735.239 334.791 735.069 334.597C734.9 334.403 734.687 334.252 734.448 334.156C734.209 334.06 733.951 334.022 733.694 334.045C733.438 334.069 733.191 334.153 732.973 334.29C731.937 334.707 730.833 334.976 729.77 335.313C728.783 335.693 727.715 335.819 726.666 335.678C725.617 335.537 724.621 335.134 723.769 334.506C723.527 334.802 723.325 335.057 723.11 335.286C721.535 336.995 721.629 338.408 723.661 339.107C724.931 339.577 725.971 340.516 726.568 341.731C727.133 342.633 727.631 343.588 728.115 344.557C729.178 346.723 729.165 346.737 731.668 346.024V348.715C732.381 348.715 733.013 348.594 733.699 348.594C733.982 348.594 734.413 348.594 734.52 348.836C734.581 348.977 734.606 349.131 734.592 349.284C734.577 349.437 734.525 349.583 734.439 349.711C732.731 351.42 731.008 353.128 729.205 354.743C728.64 355.254 728.156 354.999 728.236 354.138C728.317 353.276 728.344 352.792 728.411 352.052H725.612C725.76 351.581 725.828 351.272 725.949 350.989C726.054 350.792 726.114 350.574 726.124 350.351C726.134 350.127 726.095 349.905 726.009 349.699C725.922 349.493 725.791 349.308 725.625 349.159C725.459 349.01 725.261 348.9 725.047 348.836C723.621 348.136 722.235 347.369 720.849 346.602C720.193 346.231 719.628 345.719 719.195 345.102C718.762 344.485 718.472 343.779 718.346 343.037C718.185 342.31 716.449 342.148 715.534 342.808C715.063 343.158 714.646 343.588 714.081 344.086C715.911 346.333 715.426 348.755 714.592 351.204C714.457 351.594 714.336 351.998 714.215 352.402C713.448 354.837 713.448 354.837 715.736 356.25L713.758 358.121L715.964 360.206C712.92 360.839 709.778 360.839 706.734 360.206L708.967 358.08L706.936 356.129C707.46 355.86 707.729 355.699 708.012 355.577C708.228 355.519 708.428 355.412 708.595 355.264C708.763 355.116 708.894 354.931 708.979 354.724C709.064 354.517 709.099 354.293 709.083 354.07C709.067 353.847 709 353.631 708.887 353.438C708.483 352.388 708.214 351.298 707.864 350.235C707.455 349.218 707.309 348.114 707.438 347.026C707.568 345.937 707.968 344.899 708.604 344.005C708.209 343.554 707.757 343.156 707.259 342.821C706.669 342.615 706.06 342.466 705.442 342.377C704.339 342.095 704.621 342.929 704.419 343.508C703.816 345.056 702.641 346.314 701.136 347.019C700.275 347.477 699.414 347.961 698.539 348.365C696.427 349.415 696.413 349.415 697.194 351.877H694.502C694.502 352.617 694.502 353.317 694.637 354.017C694.772 354.716 694.247 355.133 693.695 354.636C691.892 353.021 690.156 351.325 688.447 349.603C688.245 349.388 688.326 348.89 688.272 348.513H691.044L690.937 346.051C691.233 345.97 691.327 345.903 691.408 345.93C693.614 346.562 693.587 346.549 694.597 344.584C695.164 343.304 695.863 342.086 696.682 340.951C697.557 340.043 698.537 339.244 699.602 338.569C699.925 338.34 700.679 338.219 700.679 338.098C700.639 337.29 700.48 336.492 700.208 335.73C700.019 335.246 699.508 334.896 699.037 334.384C696.238 336.632 693.359 335.34 690.506 334.384C688.165 333.644 688.165 333.631 686.779 336.214L684.908 333.927L682.836 336.093C682.54 335.634 682.322 335.13 682.19 334.6C681.773 329.877 682.029 327.872 683.105 327.199L684.976 329.231L686.886 327.172C687.155 327.67 687.33 327.939 687.451 328.222C687.511 328.437 687.619 328.636 687.766 328.803C687.914 328.971 688.097 329.103 688.303 329.19C688.509 329.277 688.732 329.316 688.955 329.304C689.178 329.293 689.395 329.231 689.591 329.123C690.627 328.72 691.717 328.423 692.793 328.114C696.305 327.105 696.79 327.831 699.118 328.787ZM711.363 322.597C709.009 322.653 706.769 323.622 705.116 325.299C703.464 326.977 702.529 329.231 702.509 331.586C702.498 332.765 702.721 333.934 703.164 335.026C703.608 336.119 704.263 337.113 705.092 337.951C705.921 338.789 706.908 339.455 707.996 339.909C709.084 340.364 710.251 340.599 711.43 340.601C713.785 340.603 716.049 339.691 717.746 338.057C719.442 336.423 720.439 334.195 720.526 331.841C720.482 329.41 719.499 327.091 717.783 325.368C716.068 323.645 713.753 322.652 711.322 322.597H711.363Z" fill="white"/>
<path d="M711.523 325.488C713.121 325.578 714.622 326.28 715.715 327.449C716.808 328.617 717.408 330.163 717.391 331.762C717.374 333.362 716.74 334.894 715.622 336.039C714.504 337.183 712.988 337.853 711.389 337.908C710.549 337.937 709.712 337.795 708.929 337.492C708.146 337.189 707.432 336.729 706.831 336.142C706.23 335.555 705.754 334.853 705.432 334.077C705.11 333.301 704.949 332.468 704.958 331.628C704.967 330.788 705.147 329.958 705.485 329.19C705.824 328.421 706.315 327.729 706.928 327.155C707.542 326.581 708.265 326.137 709.055 325.851C709.845 325.565 710.684 325.441 711.523 325.488V325.488ZM714.887 331.718C714.892 331.034 714.695 330.364 714.319 329.793C713.944 329.221 713.407 328.774 712.777 328.507C712.147 328.24 711.453 328.166 710.781 328.295C710.109 328.423 709.49 328.747 709.003 329.227C708.515 329.707 708.181 330.321 708.043 330.991C707.904 331.66 707.967 332.356 708.224 332.99C708.481 333.624 708.92 334.167 709.485 334.552C710.051 334.936 710.718 335.144 711.402 335.15C711.865 335.167 712.327 335.088 712.759 334.918C713.19 334.748 713.582 334.491 713.909 334.162C714.236 333.833 714.492 333.441 714.661 333.009C714.829 332.577 714.906 332.114 714.887 331.651V331.718Z" fill="white"/>
<path d="M739.968 202.318C739.968 194.715 739.968 187.113 739.968 179.51C740.073 177.856 739.803 176.2 739.178 174.665C738.554 173.129 737.591 171.755 736.362 170.643C733.118 167.817 729.55 165.387 725.732 163.404C714.806 158.183 703.019 155.882 691.137 153.984C674.561 151.375 657.82 149.949 641.041 149.719C630.76 149.544 620.467 150.042 610.186 150.499C601.184 150.89 592.223 151.603 583.275 152.773C584.849 155.826 586.107 159.032 587.029 162.341C600.535 160.19 614.191 159.114 627.867 159.125C648.684 159.125 664.064 159.824 679.296 162.287C690.733 164.13 702.077 166.472 712.653 171.477C714.689 172.431 716.611 173.609 718.385 174.989C721.561 177.478 721.682 180.143 718.251 182.309C714.283 184.894 710.035 187.02 705.589 188.647C691.635 193.518 677.116 195.63 662.436 196.976C647.67 198.254 632.836 198.551 618.031 197.864C618.031 198.052 618.031 198.227 618.031 198.402C618.076 202.73 617.258 207.022 615.625 211.03C613.991 215.037 611.576 218.679 608.519 221.742C605.462 224.805 601.825 227.228 597.821 228.87C593.817 230.511 589.526 231.338 585.199 231.302H543.136C544.078 231.786 545.033 232.257 546.002 232.648C552.884 235.762 560.079 238.135 567.464 239.725C584.836 243.628 603.014 245.256 620.79 245.929C624.826 246.09 628.863 246.175 632.9 246.184C647.176 246.217 661.44 245.358 675.609 243.614C692.617 241.515 710.285 238.474 725.598 230.374C729.957 228.059 734.169 225.18 736.9 221.076C740.83 215.316 739.955 208.884 739.968 202.318Z" fill="white"/>
<path d="M675.555 186.117C682.552 183.991 686.09 181.529 686.131 178.824C686.131 177.331 680.116 176.429 675.057 177.183C667.32 178.326 659.717 179.524 652.33 180.775C647.391 181.623 648.158 183.103 653.487 183.816L660.215 184.678C659.367 184.92 658.869 185.108 658.25 185.243C646.417 187.376 634.35 187.897 622.377 186.79C619.955 186.588 617.721 186.319 615.649 186.023C616.216 187.375 616.688 188.764 617.062 190.181C637.219 191.93 660.928 190.585 675.555 186.117Z" fill="white"/>
<path d="M615.158 173.44L608.08 172.525C609.735 172.297 610.502 172.229 611.094 172.108C627.47 168.839 650.843 169.417 663.949 173.562C667.643 174.643 671.532 174.887 675.333 174.275C679.1 173.642 679.49 172.472 676.126 171.409C666.95 168.52 654.759 166.883 639.553 166.497C626.541 166.039 613.519 167.014 600.72 169.404C604.456 171.489 607.769 174.255 610.489 177.558C612.332 177.262 614.203 176.979 616.033 176.67C621.993 175.741 621.523 174.234 615.158 173.44Z" fill="white"/>
<path d="M587.313 177.3C584.057 162.027 570.103 150.388 552.907 150.388C546.635 150.28 540.455 151.9 535.044 155.071C529.632 158.242 525.198 162.841 522.227 168.365C507.816 170.168 497.119 181.404 497.119 195.277C497.119 210.078 509.673 222.189 525.013 222.189H585.443C598.468 222.189 608.695 212.298 608.695 199.704C608.695 188.091 598.926 178.201 587.313 177.3ZM562.205 190.756V208.746H543.609V190.783H529.655L552.907 168.311L576.145 190.783L562.205 190.756Z" fill="white"/>
<path d="M315.768 581.337V489.789H336.914V529.245L370.439 489.789H394.164L359.866 530.663L396.485 581.337H372.244L346.456 544.589L336.914 554.388V581.337H315.768ZM397.531 556.967V513.643H418.161V552.454C418.161 556.58 418.978 559.761 420.611 561.996C422.244 564.145 424.565 565.219 427.574 565.219C429.465 565.219 431.27 564.918 432.99 564.317C434.709 563.629 436.385 562.555 438.018 561.093C439.651 559.632 441.113 557.741 442.402 555.42V513.643H463.033V558.385C463.033 560.448 463.334 561.91 463.935 562.769C464.623 563.543 465.784 564.016 467.417 564.188V581.337C465.526 581.681 463.849 581.939 462.388 582.111C461.013 582.282 459.766 582.368 458.649 582.368C455.038 582.368 452.159 581.638 450.01 580.176C447.861 578.629 446.528 576.48 446.013 573.729L445.626 569.603C442.531 574.073 438.663 577.383 434.021 579.532C429.465 581.595 424.35 582.626 418.677 582.626C411.8 582.626 406.557 580.434 402.946 576.05C399.336 571.666 397.531 565.305 397.531 556.967ZM518.342 582.626C513.185 582.626 508.672 581.552 504.804 579.403C500.935 577.168 497.884 574.073 495.649 570.119V581.337H477.726V487.21H498.357V524.732C500.592 520.778 503.557 517.726 507.254 515.577C511.036 513.428 515.463 512.353 520.534 512.353C524.832 512.353 528.744 513.299 532.268 515.19C535.878 516.995 538.973 519.531 541.552 522.798C544.217 525.978 546.28 529.718 547.741 534.016C549.202 538.228 549.933 542.827 549.933 547.812C549.933 552.712 549.116 557.268 547.483 561.48C545.936 565.692 543.744 569.388 540.907 572.569C538.07 575.749 534.718 578.242 530.85 580.048C527.067 581.767 522.898 582.626 518.342 582.626ZM512.54 565.219C514.861 565.219 517.01 564.789 518.987 563.93C521.05 562.984 522.812 561.738 524.274 560.191C525.735 558.643 526.853 556.838 527.626 554.775C528.4 552.626 528.787 550.305 528.787 547.812C528.787 544.632 528.142 541.666 526.853 538.915C525.563 536.165 523.758 533.973 521.437 532.339C519.202 530.706 516.58 529.889 513.572 529.889C511.423 529.889 509.36 530.405 507.382 531.437C505.405 532.468 503.643 533.887 502.096 535.692C500.549 537.411 499.302 539.388 498.357 541.623V555.807C499.044 557.268 499.904 558.6 500.935 559.804C501.967 560.921 503.084 561.867 504.288 562.64C505.577 563.414 506.91 564.059 508.285 564.575C509.746 565.004 511.165 565.219 512.54 565.219ZM591.278 582.626C585.518 582.626 580.404 581.724 575.934 579.919C571.464 578.027 567.639 575.492 564.458 572.311C561.363 569.13 559 565.477 557.366 561.351C555.733 557.139 554.916 552.755 554.916 548.199C554.916 541.666 556.335 535.735 559.171 530.405C562.094 524.99 566.263 520.649 571.679 517.382C577.094 514.03 583.627 512.353 591.278 512.353C598.928 512.353 605.418 513.987 610.748 517.253C616.163 520.52 620.289 524.818 623.126 530.147C625.963 535.391 627.381 541.107 627.381 547.296C627.381 548.5 627.295 549.703 627.123 550.907C627.037 552.024 626.951 553.013 626.865 553.872H576.836C577.094 556.881 577.911 559.417 579.286 561.48C580.748 563.543 582.596 565.133 584.831 566.251C587.066 567.282 589.43 567.798 591.922 567.798C595.017 567.798 597.897 567.067 600.562 565.606C603.312 564.145 605.203 562.168 606.235 559.675L623.771 564.575C622.052 568.099 619.602 571.237 616.421 573.987C613.327 576.652 609.63 578.758 605.332 580.305C601.12 581.853 596.435 582.626 591.278 582.626ZM576.321 541.236H605.719C605.375 538.4 604.559 535.95 603.269 533.887C601.98 531.738 600.261 530.104 598.112 528.987C595.963 527.783 593.599 527.182 591.02 527.182C588.355 527.182 585.948 527.783 583.799 528.987C581.736 530.104 580.06 531.738 578.77 533.887C577.481 535.95 576.664 538.4 576.321 541.236ZM692.434 513.772C691.832 513.17 690.715 512.353 689.082 511.322C687.534 510.29 685.6 509.302 683.279 508.356C681.044 507.411 678.594 506.594 675.93 505.906C673.265 505.133 670.557 504.746 667.806 504.746C662.992 504.746 659.339 505.649 656.846 507.454C654.439 509.259 653.236 511.795 653.236 515.061C653.236 517.554 654.01 519.531 655.557 520.992C657.104 522.454 659.425 523.7 662.52 524.732C665.614 525.763 669.483 526.881 674.124 528.084C680.142 529.546 685.342 531.351 689.726 533.5C694.196 535.563 697.592 538.314 699.913 541.752C702.319 545.104 703.523 549.574 703.523 555.162C703.523 560.062 702.62 564.274 700.815 567.798C699.01 571.237 696.517 574.03 693.337 576.179C690.156 578.328 686.546 579.919 682.506 580.95C678.465 581.896 674.167 582.368 669.611 582.368C665.056 582.368 660.5 581.896 655.944 580.95C651.388 580.005 647.004 578.672 642.792 576.953C638.58 575.148 634.711 572.999 631.187 570.506L639.052 555.162C639.826 555.936 641.201 556.967 643.179 558.256C645.156 559.46 647.563 560.706 650.399 561.996C653.236 563.199 656.331 564.231 659.683 565.09C663.035 565.95 666.431 566.38 669.869 566.38C674.683 566.38 678.336 565.563 680.829 563.93C683.322 562.297 684.569 559.976 684.569 556.967C684.569 554.216 683.58 552.067 681.603 550.52C679.626 548.973 676.875 547.64 673.351 546.523C669.826 545.319 665.657 544.03 660.843 542.655C655.084 541.021 650.27 539.216 646.402 537.239C642.534 535.176 639.654 532.597 637.763 529.503C635.872 526.408 634.926 522.54 634.926 517.898C634.926 511.623 636.388 506.379 639.31 502.167C642.319 497.869 646.359 494.646 651.431 492.497C656.502 490.262 662.133 489.144 668.322 489.144C672.62 489.144 676.66 489.617 680.442 490.562C684.311 491.508 687.921 492.754 691.274 494.302C694.626 495.849 697.635 497.525 700.299 499.33L692.434 513.772ZM757.07 577.727C755.179 578.5 753.073 579.274 750.752 580.048C748.517 580.821 746.153 581.423 743.66 581.853C741.167 582.368 738.717 582.626 736.31 582.626C732.872 582.626 729.691 582.068 726.769 580.95C723.932 579.747 721.654 577.813 719.935 575.148C718.301 572.483 717.485 568.959 717.485 564.575V529.245H708.846V513.643H717.485V492.11H738.115V513.643H751.912V529.245H738.115V557.483C738.115 559.718 738.674 561.351 739.792 562.383C740.909 563.328 742.327 563.801 744.047 563.801C745.508 563.801 747.055 563.543 748.689 563.027C750.408 562.512 751.869 561.953 753.073 561.351L757.07 577.727ZM759.564 561.093C759.564 556.623 760.81 552.712 763.303 549.36C765.796 546.007 769.235 543.385 773.619 541.494C778.003 539.517 783.031 538.528 788.705 538.528C791.455 538.528 794.163 538.786 796.828 539.302C799.493 539.732 801.814 540.377 803.791 541.236V538.271C803.791 534.574 802.673 531.738 800.438 529.76C798.203 527.783 794.808 526.795 790.252 526.795C786.47 526.795 782.902 527.44 779.55 528.729C776.283 530.018 772.802 531.867 769.106 534.273L762.916 521.121C767.386 518.199 772.028 516.007 776.842 514.545C781.742 513.084 786.899 512.353 792.315 512.353C802.458 512.353 810.324 514.803 815.911 519.703C821.585 524.517 824.421 531.523 824.421 540.72V558.385C824.421 560.448 824.722 561.91 825.324 562.769C826.012 563.543 827.172 564.016 828.805 564.188V581.337C827.086 581.681 825.453 581.939 823.906 582.111C822.444 582.282 821.155 582.368 820.037 582.368C816.169 582.368 813.203 581.595 811.14 580.048C809.163 578.5 807.917 576.394 807.401 573.729L807.014 570.764C804.006 574.632 800.395 577.598 796.183 579.661C792.057 581.638 787.716 582.626 783.16 582.626C778.69 582.626 774.65 581.681 771.04 579.79C767.515 577.898 764.722 575.32 762.659 572.053C760.595 568.787 759.564 565.133 759.564 561.093ZM800.567 563.672C801.513 562.898 802.286 562.039 802.888 561.093C803.49 560.148 803.791 559.245 803.791 558.385V552.325C802.072 551.637 800.137 551.122 797.988 550.778C795.925 550.348 793.991 550.133 792.186 550.133C788.404 550.133 785.266 550.993 782.773 552.712C780.28 554.345 779.034 556.537 779.034 559.288C779.034 560.835 779.464 562.254 780.323 563.543C781.183 564.832 782.344 565.864 783.805 566.638C785.352 567.411 787.157 567.798 789.22 567.798C791.283 567.798 793.347 567.411 795.41 566.638C797.473 565.864 799.192 564.875 800.567 563.672ZM863.998 582.626C858.239 582.626 852.608 581.681 847.107 579.79C841.605 577.898 836.964 575.105 833.181 571.408L840.273 558.385C844.399 561.394 848.396 563.672 852.265 565.219C856.219 566.767 859.915 567.54 863.353 567.54C866.018 567.54 868.081 567.11 869.543 566.251C871.004 565.391 871.735 564.059 871.735 562.254C871.735 560.964 871.305 559.976 870.445 559.288C869.586 558.514 868.253 557.827 866.448 557.225C864.729 556.623 862.58 555.979 860.001 555.291C854.843 553.572 850.545 551.895 847.107 550.262C843.668 548.629 841.09 546.652 839.37 544.331C837.651 541.924 836.792 538.829 836.792 535.047C836.792 530.491 837.909 526.537 840.144 523.184C842.465 519.746 845.732 517.081 849.944 515.19C854.156 513.299 859.184 512.353 865.03 512.353C869.672 512.353 874.185 513.084 878.569 514.545C883.038 516.007 887.208 518.457 891.076 521.895L883.081 534.789C879.213 532.124 875.775 530.19 872.766 528.987C869.758 527.783 866.835 527.182 863.998 527.182C862.537 527.182 861.204 527.354 860.001 527.697C858.798 528.041 857.809 528.643 857.035 529.503C856.348 530.276 856.004 531.308 856.004 532.597C856.004 533.887 856.348 534.918 857.035 535.692C857.809 536.465 858.969 537.153 860.517 537.755C862.15 538.271 864.17 538.915 866.577 539.689C872.164 541.322 876.806 542.998 880.503 544.718C884.199 546.351 886.95 548.414 888.755 550.907C890.646 553.314 891.592 556.537 891.592 560.577C891.592 567.454 889.099 572.87 884.113 576.824C879.213 580.692 872.508 582.626 863.998 582.626ZM966.129 581.337H945.498V543.299C945.498 538.915 944.595 535.692 942.79 533.629C941.071 531.566 938.75 530.534 935.827 530.534C934.28 530.534 932.518 531.05 930.541 532.081C928.65 533.027 926.887 534.402 925.254 536.208C923.621 538.013 922.375 540.119 921.515 542.526V581.337H900.884V487.21H921.515V524.99C924.008 520.95 927.274 517.855 931.314 515.706C935.441 513.471 939.954 512.353 944.853 512.353C949.495 512.353 953.191 513.127 955.942 514.674C958.779 516.222 960.928 518.285 962.389 520.864C963.851 523.356 964.839 526.107 965.355 529.116C965.871 532.124 966.129 535.09 966.129 538.013V581.337Z" fill="#431BB1"/>
</svg>
