<svg id="Layer_1" data-name="Layer 1" xmlns="http://www.w3.org/2000/svg" viewBox="0 0 1279 639"><defs><style>.cls-1{fill:#5e2dea;}.cls-2{fill:#fff;}</style></defs><title>satsh-1280x640</title><path class="cls-1" d="M485.68,572.51a97.77,97.77,0,0,1-48.11-12.68l10.25-21.08c13.81,9,22.57,11.56,37.68,11.56,13.24,0,22.94-4.29,22.94-17,0-28-67.52-4.3-67.52-60.06,0-24.06,20.33-35.07,45.51-35.07a101.72,101.72,0,0,1,45.32,10.27L523,469.37a78.58,78.58,0,0,0-36.55-8.95c-10.82,0-19.21,4.1-19.21,12.87,0,31.71,67.51,5.59,67.51,59.31C534.73,562.81,512.73,572.51,485.68,572.51Z"/><path class="cls-1" d="M546.09,499.58V477.39h12.49V447.56h26.3v29.83H608v22.19H584.88v36.74c0,10.27,3.17,14,9.7,14,3.36,0,7.27-1.12,11.56-3.72l5.41,21.07c-7.65,3.17-14.73,4.85-21.82,4.85-19.4,0-31.15-9.51-31.15-34.69V499.58Z"/><path class="cls-1" d="M679.85,570.64A34.3,34.3,0,0,1,678,561.5a32,32,0,0,1-24.62,11c-20,0-31-10.63-31-30,0-22.57,17.72-28.16,38.79-28.16A119.69,119.69,0,0,1,678,515.63v-6.9c0-7.65-4.85-11-11.94-11-6.34,0-9.88,3.54-11,8.21l-28.54-3.36c3-17,19.58-27,39.72-27,20.89,0,38,10.25,38,32.26v29.84c0,12.31.37,22.2,2.05,33Zm-13.43-38c-10.63,0-17.72,2.23-17.72,10.07,0,5.22,3.92,7.64,9.89,7.64C669,550.31,678,543,678,532.6Z"/><path class="cls-1" d="M786.51,504.81c-9-4.85-18.28-7.09-25.18-7.09-6.15,0-10.26,1.86-10.26,5.78,0,11.75,47.56,6.16,47.56,38,0,22-16.78,31-38.79,31-16.6,0-29.84-4.66-39.17-12.31l12.13-20.14c9.88,6.71,18.65,10.25,27.23,10.25,5.78,0,12.3-.74,12.3-6.9,0-14-47.55-5.22-47.55-39.91,0-20.14,17.9-28,37.49-28,12.11,0,24.8,3,33.94,8Z"/><path class="cls-1" d="M839.27,572.51H813V436.36h26.3V488c7.08-7.28,14.91-10.63,25.92-10.63,18.65,0,29.65,11.38,29.65,35.25v59.87h-26.3V513.2c0-9.51-5.22-13.62-13-13.62-9.7,0-16.22,8.21-16.22,29.28Z"/><path class="cls-1" d="M656.56,70.35,538.32,127.29a22.22,22.22,0,0,0-12,15.09L497.08,270.32a22.25,22.25,0,0,0,4.3,18.81L583.2,391.74a22.24,22.24,0,0,0,17.38,8.37H731.82a22.24,22.24,0,0,0,17.39-8.37L831,289.13a22.21,22.21,0,0,0,4.29-18.81l-29.2-127.94a22.22,22.22,0,0,0-12-15.09L675.85,70.35A22.2,22.2,0,0,0,656.56,70.35Z"/><path class="cls-2" d="M564,243.86l.1-11.47a7.8,7.8,0,0,1,.86-4.23c1.92-2.89,5.07-1.18,7.36,0a91.77,91.77,0,0,0,10.3,4.55,133.79,133.79,0,0,0,21.58,5.83c2.94.57,5.91,1.07,8.87,1.54a300.39,300.39,0,0,0,64.74,2.82A244,244,0,0,0,718,237.46c9.69-2.23,19.17-5.12,27.88-10.15,3.53-2,6.63-.19,6.68,4q.12,10.78,0,21.58c-.05,3.88-3,5.67-6.44,4.08a55.84,55.84,0,0,0-64.68,13.15,54.66,54.66,0,0,0-8.33,12.07,7.37,7.37,0,0,1-3.14,3.53,8.72,8.72,0,0,1-3.84.55,353.44,353.44,0,0,1-47.34-2.8q-2.81-.37-5.59-.8c-12.6-1.94-25.28-4.72-36.5-10.76a30.19,30.19,0,0,1-8.84-6.62c-3.86-4.51-4-9.76-3.91-15.4Z"/><path class="cls-2" d="M651.67,337.76c-15.75-.76-31.42-1.81-46.87-5.23-10.83-2.4-23-5-32.11-11.65-4.64-3.36-8.7-8.06-8.63-14.1.09-8,0-16.06,0-24.1,0-4,3.18-6,6.64-4,11.57,6.48,24.2,9.6,37.1,12,17.9,3.26,36,4.26,54.11,4.36,1.93,0,4.2.3,5,2.32,1,2.5-.08,6-.18,8.53a54.22,54.22,0,0,0,3.63,21.68c.82,2.13,1.83,4.49,1.65,6.82-.23,2.84-2.77,3.65-5.25,3.72C661.78,338.16,656.72,338,651.67,337.76Z"/><path class="cls-2" d="M690,310.05c0-20.19,16.73-36.68,37.36-36.73,20.45-.05,37.33,16.51,37.33,36.63a37.14,37.14,0,0,1-37.29,36.93C706.8,346.88,690.07,330.41,690,310.05Zm37.36-27.89c-15.59,0-28.36,12.57-28.36,27.93S711.8,338,727.38,338a28.25,28.25,0,0,0,28.36-27.94C755.76,294.75,743,282.17,727.39,282.16Z"/><path class="cls-2" d="M723.64,270.89l1.36-1-1-.86a3.11,3.11,0,0,0,1.22-3.82c-.31-1.1-.76-2.17-1.12-3.26a3.83,3.83,0,0,1,.83-4.23,3.9,3.9,0,0,1,4.29-.4c1.66.85,2.19,2.83,1.35,5-.37,1-.73,1.92-1,2.91a3.1,3.1,0,0,0,1.23,3.82l-1,.8,1.58,1.28h-7.65Z"/><path class="cls-2" d="M724,351.14l1-.8-1.57-1.28h8l-1.57,1.24,1,.86a3.1,3.1,0,0,0-1.22,3.81c.29,1.07.72,2.1,1.09,3.14a3.62,3.62,0,0,1-5.09,4.75c-1.66-.85-2.19-2.85-1.35-5a30.23,30.23,0,0,0,1-2.9A3.12,3.12,0,0,0,724,351.14Z"/><path class="cls-2" d="M695.91,336.7l1.26.18-.07-1.28,4.73,5.06.39-.27-1.56-.11.07,1.13s-.12.12-.17.11a3,3,0,0,0-3.29,1.66,28.54,28.54,0,0,0-1.44,3c-.84,1.85-2.32,2.86-3.9,2.64a3.83,3.83,0,0,1-3.3-3.36c-.18-1.56.88-3,2.74-3.85a26.41,26.41,0,0,0,2.79-1.32A3.09,3.09,0,0,0,695.91,336.7Z"/><path class="cls-2" d="M754,341.57l.11-1.31-1.22.13,4.68-5.12v1.56l1.13-.08c0,.07.11.15.1.21a2.86,2.86,0,0,0,1.58,3.2,26.06,26.06,0,0,0,3.1,1.5c1.83.84,2.84,2.32,2.61,3.91a3.81,3.81,0,0,1-3.36,3.28c-1.54.19-3-.9-3.84-2.74a25.26,25.26,0,0,0-1.32-2.78A3.09,3.09,0,0,0,754,341.57Z"/><path class="cls-2" d="M752.57,279.76l1.48.19v-1.28c2,.38,3-.75,3.82-2.25.61-1.12,1-2.35,1.71-3.42a3.21,3.21,0,0,1,3.83-1.52,3.89,3.89,0,0,1,2.75,3.46c.09,1.45-1,2.86-2.73,3.63-.76.33-1.53.62-2.26,1-1.56.81-2.73,1.89-2.35,3.89l-1.27-.11.13,1.22L753,279.44Z"/><path class="cls-2" d="M700.74,278.67l-.09,1.25,1.5-.15-.21-.21-4.82,5.35.08-1.49H696c.38-1.89-.69-3-2.15-3.76-1.15-.63-2.42-1.06-3.52-1.76a3.18,3.18,0,0,1-1.54-3.72,3.88,3.88,0,0,1,3.38-2.85c1.54-.14,3,1,3.78,2.84a23.39,23.39,0,0,0,1.41,2.89C698.16,278.43,699,278.78,700.74,278.67Z"/><path class="cls-2" d="M768.37,313.61c-.35-.87-.73-1.4-1.51-.36v-6.14l.84.52.72-.92c1,1.53,2.47,1.65,4.05,1.18,1.06-.31,2.08-.76,3.14-1.1a3.67,3.67,0,0,1,4.18.93,3.75,3.75,0,0,1,.32,4.29c-.85,1.59-2.82,2.09-4.9,1.29a32.51,32.51,0,0,0-3.15-1.08A3.07,3.07,0,0,0,768.37,313.61Z"/><path class="cls-2" d="M686.39,306.61c.39.78.71,1.52,1.5.3v6.17l-.83-.51-.72.92a3.11,3.11,0,0,0-3.82-1.24c-1.11.32-2.17.76-3.26,1.13a3.6,3.6,0,0,1-4.65-5.11c.86-1.68,2.82-2.21,5-1.37,1,.38,2,.77,3,1.05A3.1,3.1,0,0,0,686.39,306.61Z"/><path class="cls-2" d="M716.45,307.56a3,3,0,0,0,1.45-2.85c0-.28-.28-.71-.49-.76a4.86,4.86,0,0,1-3.38-2.52c-.46-.83-.94-1.65-1.35-2.5-1-2-1-2.05-3.27-1.5v-2.26h-2.66c.15-.47.15-1,.4-1.21,1.39-1.41,2.82-2.78,4.27-4.12.2-.18.59-.17.89-.25,0,.31.1.61.1.91,0,.52,0,1-.07,1.61h2.35c-.47,2.3-.46,2.28,1.63,3.32a13.46,13.46,0,0,1,2.88,1.67,14.18,14.18,0,0,1,2.07,2.59c.19.25.22.89.32.89a4.77,4.77,0,0,0,2-.27c1.22-.59,1.45-1.21.74-2.49a4.38,4.38,0,0,1-.21-3.45,24.94,24.94,0,0,1,1-3.19c.49-1.21.26-2-1-2.41a3.64,3.64,0,0,1-.59-.38l1.86-1.73-2.18-1.74a20.69,20.69,0,0,1,8.33-.09l-2,1.89,1.8,1.7c-.49.26-.77.42-1.06.56a1.23,1.23,0,0,0-.7,1.72c.4,1.08.66,2.22,1,3.3a6.52,6.52,0,0,1-.18,4.38c-.12.34-.44.88-.33,1a4.33,4.33,0,0,0,1.66,1.15c1.32.36,1.67.25,2.14-1.22a4.78,4.78,0,0,1,2.4-2.66,22.86,22.86,0,0,1,2.17-1.19c2.12-1.05,2.12-1,1.63-3.33h2.26c0-.55,0-1.13,0-1.71a7.32,7.32,0,0,1,.11-.8c.27,0,.62,0,.79.16,1.53,1.44,3,2.89,4.53,4.38.19.19.13.64.19,1l-2.59-.13.13,2.21c-.24.1-.32.18-.39.16-2-.52-2-.52-3,1.41a12.41,12.41,0,0,1-1.51,2.69,20.86,20.86,0,0,1-2.78,2.43c-.27.22-1,.29-1,.39a7.14,7.14,0,0,0,.37,2.11c.49,1.24,1.52,1.19,2.43.61a4,4,0,0,1,3.33-.24c1,.23,2,.54,3,.85,2,.63,2,.64,3.42-1.69l1.23,2.13,1.71-1.85c.94,0,.89.73.92,1.39.23,5.26.16,5.8-.88,6.31l-1.66-1.75L749.1,314a6.75,6.75,0,0,1-.46-.78,1.43,1.43,0,0,0-2.17-.87c-.91.36-1.88.6-2.82.91a5.6,5.6,0,0,1-5.31-.71c-.22.26-.39.48-.58.68-1.4,1.51-1.31,2.77.48,3.38a4.73,4.73,0,0,1,2.58,2.32c.5.8.94,1.65,1.36,2.5.94,1.91.93,1.92,3.15,1.29v2.42c.62,0,1.21-.1,1.79-.1.25,0,.63,0,.73.21a.81.81,0,0,1-.07.77c-1.52,1.51-3,3-4.63,4.45-.51.45-.93.23-.86-.54.05-.59.1-1.18.15-1.83H740c.13-.43.19-.7.29-1a1.32,1.32,0,0,0-.79-1.9c-1.26-.62-2.49-1.3-3.71-2a4.48,4.48,0,0,1-2.22-3.15c-.14-.65-1.67-.79-2.48-.2-.42.31-.79.69-1.28,1.13,1.61,2,1.19,4.12.45,6.29-.12.35-.23.7-.34,1.06-.68,2.15-.68,2.15,1.35,3.4l-1.76,1.66,2,1.84a20.07,20.07,0,0,1-8.17.05l2-1.88-1.8-1.72c.47-.24.71-.38,1-.49a1.3,1.3,0,0,0,.77-1.9c-.36-.92-.59-1.89-.91-2.82a5.76,5.76,0,0,1,.67-5.51,6.51,6.51,0,0,0-1.23-1.06,9.44,9.44,0,0,0-1.61-.38c-1-.25-.72.48-.9,1a5.74,5.74,0,0,1-2.92,3.13c-.76.41-1.52.83-2.29,1.22-1.88.93-1.88.92-1.22,3.1h-2.43c0,.65.06,1.27.13,1.89.08.79-.35,1-.85.55C710,329,708.5,327.54,707,326c-.18-.18-.11-.63-.16-1h2.55l-.1-2.18c.27-.07.35-.13.42-.11,1.95.56,1.93.55,2.83-1.22a16.88,16.88,0,0,1,1.83-3.21,13.72,13.72,0,0,1,2.59-2.11c.28-.21.95-.3.94-.42a6.81,6.81,0,0,0-.41-2.1c-.16-.42-.61-.73-1-1.21-2.47,2-5,.85-7.54.05-2.06-.65-2.06-.66-3.29,1.63l-1.65-2-1.83,1.92a4.57,4.57,0,0,1-.58-1.31c-.36-4.18-.14-6,.81-6.56L704,308l1.68-1.81c.24.44.39.68.51.93a1.29,1.29,0,0,0,1.88.79c.92-.36,1.89-.61,2.83-.9C714,306.08,714.43,306.72,716.45,307.56Zm10.84-5.47a8,8,0,0,0-7.83,8,7.89,7.89,0,0,0,7.89,8,8,8,0,0,0,8-7.75A8.38,8.38,0,0,0,727.29,302.09Z"/><path class="cls-2" d="M727.47,304.6a5.49,5.49,0,0,1-.12,11,5.49,5.49,0,1,1,.12-11Zm3,5.51a3.06,3.06,0,1,0-3.08,3A3,3,0,0,0,730.44,310.11Z"/><path class="cls-2" d="M752.61,195.75q0-10.09,0-20.17c0-3-.84-5.93-3.18-7.84a48.17,48.17,0,0,0-9.4-6.4c-9.66-4.62-20.09-6.65-30.6-8.35a311.64,311.64,0,0,0-44.29-3.76c-9.08-.16-18.19.28-27.27.69-8,.35-15.89,1-23.76,2a43.23,43.23,0,0,1,3.32,8.46,227.36,227.36,0,0,1,36.11-2.84c18.41-.06,32,.62,45.47,2.79,10.12,1.63,20.15,3.7,29.5,8.12a26.56,26.56,0,0,1,5.06,3.11c2.81,2.2,2.92,4.56-.11,6.48a55.83,55.83,0,0,1-11.2,5.6c-12.34,4.3-25.17,6.17-38.15,7.35a295.64,295.64,0,0,1-39.25.8c0,.16,0,.31,0,.47a28.79,28.79,0,0,1-29.08,29.08H578.58c.84.43,1.68.85,2.53,1.24a94.64,94.64,0,0,0,19,6.25c15.36,3.45,31.44,4.9,47.15,5.49,3.57.14,7.16.21,10.74.22a301.54,301.54,0,0,0,37.75-2.27c15-1.85,30.66-4.54,44.2-11.7,3.85-2.05,7.58-4.6,10-8.23C753.34,207.24,752.6,201.55,752.61,195.75Z"/><path class="cls-2" d="M695.66,181.43c6.19-1.89,9.32-4.07,9.35-6.46,0-1.32-5.31-2.11-9.79-1.45-6.84,1-13.57,2.07-20.09,3.18-4.37.75-3.69,2.06,1,2.69,1.86.25,3.76.48,5.9.76-.75.21-1.15.38-1.74.49A116.9,116.9,0,0,1,648.6,182c-2.14-.18-4.12-.41-6-.68a30.63,30.63,0,0,1,1.25,3.68C661.73,186.56,682.73,185.37,695.66,181.43Z"/><path class="cls-2" d="M642.26,170.17l-6.25-.8c1.47-.2,2.14-.27,2.66-.37,14.48-2.89,35.15-2.32,46.74,1.28a22.65,22.65,0,0,0,10.06.63c3.34-.55,3.68-1.59.71-2.53Q684,164.56,663.84,164a156.87,156.87,0,0,0-34.34,2.64,30.26,30.26,0,0,1,8.64,7.21l4.9-.78C648.31,172.25,647.9,170.92,642.26,170.17Z"/><g id="backup"><path class="cls-2" d="M617.63,173.63c-2.87-13.51-15.2-23.84-30.41-23.84-11.92,0-22.2,6.36-27.13,15.89-12.74,1.59-22.2,11.53-22.2,23.85,0,13.11,11.1,23.84,24.67,23.84H616c11.51,0,20.55-8.74,20.55-19.87C636.54,183.17,627.91,174.43,617.63,173.63Zm-22.19,11.92v15.9H579v-15.9H566.67l20.55-19.87,20.55,19.87Z"/></g></svg>