<svg width="64" height="64" viewBox="0 0 64 64" fill="none" xmlns="http://www.w3.org/2000/svg">
<path d="M30.1814 1.41559L7.88419 12.1536C7.31651 12.4267 6.81774 12.8244 6.42501 13.3169C6.03228 13.8095 5.7557 14.3843 5.61587 14.9986L0.107753 39.1266C-0.0347615 39.7424 -0.0359232 40.3824 0.104357 40.9987C0.244636 41.615 0.522712 42.1915 0.917705 42.685L16.3561 62.0251C16.75 62.5157 17.2491 62.9115 17.8164 63.1833C18.3838 63.4552 19.005 63.5961 19.6341 63.5957H44.3746C45.0038 63.5966 45.6252 63.4559 46.1926 63.184C46.7601 62.9121 47.259 62.516 47.6526 62.0251L63.0843 42.685C63.4776 42.1928 63.7548 41.6182 63.895 41.004C64.0353 40.3898 64.035 39.7519 63.8943 39.1378L58.3861 14.9986C58.2463 14.3843 57.9697 13.8095 57.577 13.3169C57.1843 12.8244 56.6855 12.4267 56.1178 12.1536L33.8206 1.41559C33.253 1.14205 32.6311 1 32.001 1C31.3709 1 30.749 1.14205 30.1814 1.41559Z" fill="#5E2DEA"/>
<path d="M12.7303 34.1368L12.7505 31.9739C12.7264 31.6984 12.7825 31.4218 12.912 31.1774C13.2732 30.6322 13.8678 30.953 14.3008 31.1774C14.9297 31.5023 15.5778 31.7885 16.2416 32.0345C17.5655 32.5128 18.9268 32.8805 20.3115 33.1338C20.8679 33.2415 21.4333 33.3358 21.9853 33.4233C26.0234 34.0404 30.1163 34.2194 34.1929 33.9573C36.7426 33.8244 39.2769 33.48 41.7696 32.9274C43.5982 32.5079 45.3864 31.9627 47.0265 31.0136C47.6996 30.63 48.2784 30.9777 48.2874 31.7607C48.3023 33.1159 48.3023 34.4718 48.2874 35.8285C48.2874 36.5621 47.731 36.9009 47.0736 36.6003C45.0407 35.6636 42.7622 35.3989 40.5688 35.8447C38.3753 36.2905 36.3809 37.4236 34.8749 39.0795C34.2521 39.7642 33.7239 40.5294 33.3044 41.3545C33.187 41.6383 32.9786 41.875 32.7121 42.0276C32.4821 42.1159 32.2351 42.1512 31.9896 42.1308C29.0046 42.155 26.0214 41.9788 23.06 41.6036C22.71 41.5564 22.3577 41.5071 22.0055 41.451C19.6295 41.0875 17.24 40.5535 15.1242 39.4317C14.4964 39.1222 13.9313 38.6993 13.4572 38.1843C12.728 37.3339 12.7101 36.3445 12.7191 35.281L12.7303 34.1368Z" fill="white"/>
<path d="M29.2594 51.8458C26.2889 51.7022 23.3363 51.5025 20.4195 50.8586C18.3778 50.4098 16.0893 49.9095 14.3617 48.662C13.4867 48.0293 12.7194 47.1431 12.7328 46.0033C12.7508 44.4889 12.7328 42.9744 12.7328 41.4577C12.7328 40.7039 13.3319 40.3359 13.9848 40.6971C16.1678 41.9199 18.5483 42.5078 20.9804 42.952C24.3571 43.5645 27.7629 43.7552 31.1845 43.7732C31.5502 43.7732 31.9787 43.8315 32.1313 44.2107C32.322 44.6818 32.1178 45.3325 32.0976 45.8194C32.0462 47.215 32.279 48.6066 32.7819 49.9095C32.939 50.3089 33.1297 50.7554 33.0938 51.1929C33.0489 51.7313 32.571 51.8839 32.1044 51.8951C31.1643 51.9198 30.213 51.8839 29.2594 51.8458Z" fill="white"/>
<path d="M36.4949 46.6181C36.4949 42.8039 39.6494 39.701 43.5399 39.692C47.3967 39.692 50.5782 42.8062 50.5782 46.6002C50.5476 48.446 49.7936 50.2061 48.4782 51.5016C47.1629 52.797 45.3915 53.5242 43.5453 53.5265C41.6992 53.5289 39.9259 52.8062 38.6073 51.5142C37.2887 50.2221 36.5301 48.4639 36.4949 46.6181ZM43.5399 41.3613C42.5015 41.3772 41.4909 41.6997 40.6352 42.2882C39.7795 42.8768 39.1169 43.7051 38.7306 44.6692C38.3443 45.6332 38.2516 46.6899 38.464 47.7065C38.6765 48.7231 39.1847 49.6542 39.9248 50.3828C40.6649 51.1114 41.6038 51.605 42.6236 51.8015C43.6434 51.9981 44.6985 51.8888 45.6564 51.4875C46.6143 51.0862 47.4322 50.4107 48.0073 49.5459C48.5824 48.6811 48.889 47.6656 48.8887 46.6271C48.8739 45.2207 48.303 43.8773 47.3007 42.8906C46.2984 41.9039 44.9463 41.3541 43.5399 41.3613Z" fill="white"/>
<path d="M42.8311 39.2343L43.0868 39.0481L42.8984 38.8843C43.0138 38.8097 43.0994 38.697 43.1404 38.5659C43.1814 38.4347 43.1751 38.2933 43.1227 38.1663C43.0621 37.9576 42.9791 37.7557 42.9096 37.5493C42.8526 37.4161 42.8372 37.2689 42.8652 37.1268C42.8932 36.9847 42.9634 36.8544 43.0666 36.7528C43.1792 36.6619 43.3161 36.6061 43.4601 36.5926C43.6042 36.579 43.749 36.6082 43.8766 36.6765C44.1885 36.8358 44.2894 37.2105 44.1301 37.6166C44.0606 37.7961 43.991 37.9778 43.9394 38.1641C43.8853 38.2916 43.8782 38.4341 43.9193 38.5664C43.9604 38.6987 44.047 38.8121 44.1638 38.8865L43.9753 39.0368L44.2737 39.2792H42.8311V39.2343Z" fill="white"/>
<path d="M42.896 54.3698L43.0845 54.2173L42.7883 53.9772H44.2893L43.9932 54.2016L44.1749 54.3631C44.0588 54.4371 43.9726 54.5497 43.9315 54.6811C43.8905 54.8125 43.8972 54.9542 43.9505 55.0811C44.0066 55.283 44.0874 55.4782 44.1569 55.6734C44.2349 55.8053 44.2655 55.9599 44.2437 56.1116C44.2219 56.2633 44.149 56.403 44.0371 56.5076C43.9251 56.6122 43.7808 56.6755 43.628 56.687C43.4752 56.6985 43.323 56.6575 43.1967 56.5708C42.8826 56.4115 42.7838 56.0346 42.9431 55.6308C43.0127 55.4513 43.0822 55.2695 43.1361 55.0833C43.1863 54.9551 43.1898 54.8134 43.1459 54.6829C43.102 54.5524 43.0135 54.4416 42.896 54.3698Z" fill="white"/>
<path d="M37.6033 51.6438L37.8411 51.6797L37.8276 51.4352L38.7251 52.3887L38.7924 52.3326L38.4985 52.3102L38.512 52.5233C38.512 52.5233 38.4895 52.5458 38.4805 52.5435C38.3568 52.519 38.2283 52.5366 38.1157 52.5935C38.0031 52.6505 37.9127 52.7434 37.8591 52.8576C37.7578 53.0407 37.6672 53.2295 37.5876 53.423C37.4283 53.773 37.1501 53.9637 36.8517 53.9211C36.692 53.9 36.544 53.826 36.4313 53.7109C36.3187 53.5958 36.2479 53.4462 36.2302 53.2862C36.1943 52.9945 36.3962 52.7163 36.7485 52.5615C36.9278 52.4888 37.1031 52.4064 37.2735 52.3147C37.3974 52.2581 37.498 52.1604 37.5582 52.0381C37.6183 51.9159 37.6342 51.7765 37.6033 51.6438Z" fill="white"/>
<path d="M48.5589 52.557L48.5813 52.3102L48.3569 52.3349L49.2387 51.3679V51.6595L49.463 51.6461C49.463 51.6595 49.4832 51.673 49.481 51.6842C49.455 51.8035 49.4701 51.928 49.5239 52.0376C49.5776 52.1472 49.6669 52.2353 49.7772 52.2877C49.966 52.3953 50.1616 52.4904 50.3627 52.5727C50.5123 52.6228 50.6404 52.7224 50.7257 52.8551C50.811 52.9878 50.8485 53.1456 50.8321 53.3025C50.8156 53.4594 50.7461 53.6059 50.6351 53.718C50.524 53.8301 50.3781 53.9009 50.2214 53.9189C50.061 53.923 49.9036 53.8749 49.7729 53.7818C49.6422 53.6888 49.5453 53.5558 49.4967 53.4028C49.4249 53.2231 49.3425 53.0478 49.2499 52.8778C49.1919 52.7507 49.0904 52.6485 48.9637 52.5897C48.837 52.5308 48.6934 52.5192 48.5589 52.557Z" fill="white"/>
<path d="M48.2876 40.908L48.5681 40.9417V40.7016C48.9338 40.7734 49.1357 40.5603 49.2883 40.2776C49.4027 40.0667 49.4812 39.8289 49.6091 39.6314C49.6775 39.5066 49.7874 39.4098 49.9198 39.3577C50.0523 39.3057 50.1987 39.3017 50.3338 39.3465C50.4761 39.3901 50.6018 39.4759 50.6943 39.5925C50.7868 39.709 50.8418 39.8509 50.8521 39.9994C50.8438 40.1505 50.7901 40.2956 50.6981 40.4157C50.606 40.5358 50.4798 40.6253 50.336 40.6725C50.1924 40.7353 50.0466 40.7891 49.9097 40.8609C49.6158 41.0135 49.3959 41.2199 49.461 41.5968L49.221 41.5766L49.2456 41.801L48.3482 40.834L48.2876 40.908Z" fill="white"/>
<path d="M38.5144 40.7016L38.4964 40.926L38.7814 40.8968L38.741 40.8587L37.8301 41.8661L37.848 41.5856H37.6102C37.682 41.2311 37.4801 41.0269 37.2063 40.8766C36.982 40.7577 36.7576 40.6769 36.5333 40.5446C36.4116 40.4787 36.3163 40.3729 36.2636 40.2449C36.2109 40.117 36.2039 39.9748 36.2438 39.8423C36.2832 39.6989 36.3652 39.5708 36.479 39.475C36.5928 39.3793 36.733 39.3203 36.881 39.3061C37.1705 39.2792 37.4419 39.4878 37.5945 39.8423C37.6696 40.0294 37.758 40.2109 37.8592 40.3853C37.9168 40.5041 38.0128 40.6001 38.1317 40.6575C38.2507 40.715 38.3855 40.7305 38.5144 40.7016Z" fill="white"/>
<path d="M51.2671 47.2912C51.202 47.1274 51.1302 47.0264 50.9844 47.2239V46.0639L51.1414 46.1626L51.2783 45.9899C51.469 46.2793 51.7427 46.2995 52.0411 46.2142C52.2408 46.1559 52.4338 46.0706 52.6312 46.0056C52.7647 45.9491 52.9125 45.9356 53.054 45.967C53.1956 45.9983 53.3238 46.073 53.421 46.1806C53.513 46.2935 53.5682 46.4319 53.579 46.5771C53.5898 46.7224 53.5558 46.8675 53.4815 46.9928C53.32 47.2912 52.9498 47.3854 52.5572 47.2351C52.3626 47.157 52.1641 47.0889 51.9626 47.0309C51.8346 46.9859 51.6947 46.9872 51.5676 47.0348C51.4405 47.0824 51.3341 47.1731 51.2671 47.2912Z" fill="white"/>
<path d="M35.806 45.9697C35.8823 46.1178 35.9406 46.2591 36.0909 46.0258V47.1902L35.9339 47.0937L35.797 47.2687C35.723 47.1521 35.6099 47.0656 35.4781 47.0245C35.3462 46.9834 35.204 46.9905 35.0768 47.0444C34.8682 47.1027 34.6685 47.1857 34.4621 47.2553C34.3292 47.3119 34.1824 47.3276 34.0406 47.3004C33.8987 47.2732 33.7681 47.2044 33.6656 47.1027C33.5743 46.9904 33.5181 46.8537 33.5042 46.7096C33.4902 46.5655 33.519 46.4205 33.587 46.2928C33.7486 45.9764 34.1165 45.8777 34.5226 46.0347C34.7097 46.1106 34.9007 46.1765 35.0948 46.2322C35.2252 46.2799 35.3683 46.2796 35.4986 46.2316C35.6289 46.1835 35.7378 46.0907 35.806 45.9697Z" fill="white"/>
<path d="M41.485 46.1514C41.5757 46.0956 41.6491 46.0158 41.6971 45.9207C41.745 45.8256 41.7656 45.719 41.7565 45.6129C41.7565 45.5613 41.7049 45.4783 41.6645 45.4693C41.5295 45.4426 41.4022 45.386 41.292 45.3037C41.1817 45.2214 41.0913 45.1155 41.0273 44.9937C40.942 44.8366 40.85 44.6818 40.7715 44.5225C40.5831 44.1366 40.5853 44.1366 40.1545 44.2398V43.8068H39.6542C39.6811 43.7171 39.6834 43.6251 39.7282 43.5824C39.9907 43.3155 40.2622 43.0597 40.5337 42.8062C40.5718 42.7703 40.6459 42.7747 40.702 42.759C40.7124 42.8161 40.7184 42.8738 40.7199 42.9318C40.7199 43.0283 40.7199 43.1247 40.7087 43.2347H41.1574C41.0677 43.6677 41.0699 43.6632 41.4648 43.8607C41.658 43.9427 41.8404 44.0482 42.0078 44.1748C42.1563 44.3222 42.2874 44.4863 42.3981 44.6639C42.4318 44.711 42.4385 44.8299 42.4565 44.8299C42.585 44.8415 42.7144 44.8246 42.8357 44.7805C43.06 44.6684 43.1094 44.5562 42.977 44.3116C42.926 44.2118 42.896 44.1024 42.8891 43.9905C42.8821 43.8786 42.8983 43.7664 42.9366 43.661C42.9825 43.4557 43.0432 43.254 43.1184 43.0574C43.2103 42.8331 43.1677 42.6827 42.9276 42.6087C42.8887 42.5884 42.8519 42.5644 42.8177 42.5369L43.1677 42.2116L42.7571 41.8818C43.2742 41.7701 43.8085 41.7647 44.3277 41.8661L43.9485 42.2228L44.2873 42.5414L44.0898 42.6491C44.0578 42.6587 44.0282 42.6753 44.0034 42.6978C43.9786 42.7203 43.9592 42.748 43.9465 42.779C43.9338 42.81 43.9282 42.8434 43.9301 42.8768C43.932 42.9103 43.9413 42.9428 43.9575 42.9722C44.0315 43.1763 44.0809 43.3917 44.1527 43.5959C44.2365 43.867 44.2238 44.1588 44.1168 44.4216C44.0966 44.4866 44.036 44.5876 44.0562 44.6055C44.1405 44.7044 44.2475 44.7814 44.3681 44.8299C44.6171 44.8995 44.6844 44.877 44.7719 44.6055C44.8525 44.3873 45.0129 44.2077 45.2206 44.103C45.353 44.0222 45.4921 43.9482 45.6312 43.8786C46.0283 43.6812 46.0306 43.6834 45.9386 43.2526H46.3649C46.3649 43.1494 46.3649 43.0395 46.3649 42.9295C46.3691 42.879 46.3766 42.8288 46.3873 42.7792C46.4367 42.7792 46.504 42.7792 46.5354 42.8106C46.8241 43.0799 47.1083 43.3543 47.388 43.6341C47.4239 43.6722 47.4127 43.7552 47.4261 43.8315L46.937 43.8068L46.9617 44.2241C46.9168 44.2421 46.9011 44.2578 46.8899 44.2533C46.5085 44.1546 46.5107 44.1568 46.3312 44.5203C46.2566 44.6997 46.1601 44.8692 46.0441 45.0251C45.8848 45.1946 45.7097 45.3486 45.5213 45.485C45.4697 45.5277 45.3351 45.5389 45.3373 45.5591C45.3389 45.6943 45.3624 45.8285 45.4069 45.9562C45.4989 46.1806 45.6918 46.1806 45.8556 46.0706C45.9507 46.0189 46.0557 45.9881 46.1637 45.9804C46.2717 45.9727 46.3801 45.9881 46.4816 46.0258C46.6723 46.0706 46.8585 46.1267 47.0425 46.1873C47.4172 46.304 47.4172 46.3062 47.6886 45.8665L47.913 46.2703L48.2361 45.9203C48.4133 45.9203 48.4044 46.0572 48.4088 46.1828C48.4537 47.1745 48.4403 47.2755 48.2428 47.3719L47.931 47.0444L47.6236 47.3787C47.5922 47.3318 47.5638 47.2831 47.5383 47.2328C47.5279 47.1912 47.5078 47.1526 47.4796 47.1202C47.4513 47.0878 47.4158 47.0626 47.376 47.0466C47.3361 47.0306 47.293 47.0243 47.2503 47.0282C47.2075 47.0321 47.1663 47.0461 47.13 47.0691C46.9572 47.1386 46.7732 47.1835 46.596 47.2396C46.4313 47.303 46.2533 47.324 46.0784 47.3004C45.9035 47.2769 45.7374 47.2097 45.5953 47.105C45.5549 47.1543 45.5213 47.1969 45.4854 47.2351C45.2229 47.52 45.2386 47.7556 45.5774 47.8723C45.7891 47.9505 45.9626 48.1072 46.062 48.3098C46.1562 48.4601 46.2392 48.6194 46.32 48.7809C46.4973 49.1422 46.495 49.1444 46.9123 49.0255V49.4742C47.0313 49.4742 47.1367 49.454 47.2511 49.454C47.2982 49.454 47.37 49.454 47.388 49.4944C47.3982 49.5179 47.4023 49.5436 47.3999 49.5691C47.3976 49.5945 47.3888 49.619 47.3745 49.6403C47.0896 49.9252 46.8024 50.2101 46.5018 50.4794C46.4075 50.5646 46.3268 50.522 46.3402 50.3784C46.3537 50.2348 46.3582 50.154 46.3694 50.0306H45.9027C45.9274 49.9521 45.9386 49.9005 45.9588 49.8534C45.9763 49.8205 45.9863 49.7842 45.988 49.747C45.9897 49.7097 45.9832 49.6726 45.9688 49.6383C45.9544 49.6039 45.9325 49.5732 45.9048 49.5483C45.8771 49.5234 45.8442 49.505 45.8085 49.4944C45.5706 49.3778 45.3396 49.2499 45.1085 49.122C44.9991 49.0601 44.9049 48.9746 44.8327 48.8718C44.7605 48.7689 44.7122 48.6513 44.6911 48.5274C44.6642 48.4063 44.3748 48.3793 44.2222 48.4893C44.1437 48.5476 44.0741 48.6194 43.9799 48.7024C44.285 49.0771 44.2043 49.481 44.0652 49.8893C44.0427 49.9544 44.0225 50.0217 44.0023 50.089C43.8745 50.4951 43.8745 50.4951 44.2559 50.7307L43.9261 51.0425L44.294 51.3903C43.7864 51.4958 43.2625 51.4958 42.7549 51.3903L43.1273 51.0358L42.7885 50.7105C42.876 50.6656 42.9209 50.6387 42.968 50.6185C43.004 50.6088 43.0373 50.5909 43.0653 50.5662C43.0933 50.5415 43.1151 50.5107 43.1293 50.4762C43.1434 50.4417 43.1493 50.4044 43.1467 50.3672C43.144 50.33 43.1328 50.2939 43.1139 50.2617C43.0466 50.0867 43.0017 49.905 42.9434 49.7278C42.8752 49.5581 42.8508 49.3741 42.8723 49.1926C42.8939 49.0111 42.9608 48.8379 43.0667 48.689C43.0008 48.6137 42.9254 48.5473 42.8424 48.4915C42.744 48.4571 42.6426 48.4323 42.5395 48.4175C42.3555 48.3704 42.4026 48.5095 42.369 48.6059C42.2685 48.8642 42.0724 49.0739 41.8215 49.1915C41.6779 49.2678 41.5344 49.3486 41.3885 49.4159C41.0363 49.5909 41.034 49.5909 41.1642 50.0015H40.7154C40.7154 50.1249 40.7154 50.2416 40.7379 50.3582C40.7603 50.4749 40.6728 50.5444 40.5808 50.4614C40.2802 50.1922 39.9907 49.9095 39.7058 49.6223C39.6721 49.5864 39.6856 49.5034 39.6766 49.4406H40.1388L40.1209 49.03C40.1702 49.0165 40.1859 49.0053 40.1994 49.0098C40.5673 49.1152 40.5629 49.113 40.7311 48.7854C40.8257 48.572 40.9423 48.369 41.0789 48.1796C41.2247 48.0283 41.3882 47.895 41.5658 47.7825C41.6196 47.7444 41.7453 47.7242 41.7453 47.704C41.7387 47.5692 41.7122 47.4362 41.6667 47.3091C41.6353 47.2283 41.5501 47.17 41.4715 47.0848C41.0049 47.4594 40.5247 47.2441 40.0491 47.0848C39.6587 46.9614 39.6587 46.9591 39.4276 47.3899L39.1157 47.0085L38.7702 47.3697C38.7209 47.2932 38.6845 47.209 38.6625 47.1207C38.5929 46.3331 38.6356 45.9988 38.8151 45.8867L39.1269 46.2254L39.4455 45.8822C39.4904 45.9652 39.5196 46.0101 39.5398 46.0572C39.5497 46.0931 39.5676 46.1262 39.5922 46.1542C39.6168 46.1822 39.6474 46.2042 39.6817 46.2187C39.7161 46.2331 39.7532 46.2396 39.7904 46.2377C39.8276 46.2358 39.8639 46.2254 39.8965 46.2075C40.0693 46.1402 40.251 46.0908 40.4305 46.0392C41.0161 45.871 41.0968 45.9921 41.485 46.1514ZM43.5267 45.1193C43.1342 45.1286 42.7607 45.2902 42.4852 45.5699C42.2097 45.8496 42.0538 46.2255 42.0504 46.6181C42.0486 46.8147 42.0858 47.0097 42.1597 47.1918C42.2336 47.374 42.3429 47.5397 42.4811 47.6794C42.6194 47.8192 42.784 47.9302 42.9654 48.006C43.1467 48.0818 43.3413 48.121 43.5379 48.1213C43.9306 48.1216 44.3081 47.9695 44.591 47.6971C44.8739 47.4247 45.0401 47.0532 45.0546 46.6607C45.0472 46.2554 44.8833 45.8686 44.5973 45.5814C44.3113 45.2941 43.9252 45.1285 43.52 45.1193H43.5267Z" fill="white"/>
<path d="M43.5534 45.6017C43.8198 45.6167 44.0701 45.7338 44.2524 45.9286C44.4346 46.1235 44.5347 46.3811 44.5318 46.6479C44.5289 46.9147 44.4233 47.1701 44.2368 47.3609C44.0504 47.5518 43.7976 47.6634 43.531 47.6726C43.391 47.6774 43.2515 47.6538 43.1209 47.6032C42.9902 47.5526 42.8712 47.4761 42.771 47.3782C42.6708 47.2803 42.5915 47.1632 42.5378 47.0338C42.4842 46.9044 42.4573 46.7655 42.4588 46.6254C42.4603 46.4854 42.4902 46.3471 42.5467 46.2189C42.6031 46.0907 42.685 45.9753 42.7873 45.8796C42.8896 45.7839 43.0102 45.71 43.1419 45.6622C43.2736 45.6145 43.4136 45.5939 43.5534 45.6017ZM44.1143 46.6405C44.1152 46.5265 44.0822 46.4148 44.0196 46.3194C43.957 46.2241 43.8675 46.1495 43.7625 46.1051C43.6575 46.0606 43.5416 46.0483 43.4296 46.0697C43.3176 46.091 43.2144 46.1452 43.1332 46.2252C43.0519 46.3052 42.9962 46.4075 42.9731 46.5192C42.95 46.6308 42.9605 46.7469 43.0033 46.8526C43.0461 46.9583 43.1193 47.0489 43.2136 47.113C43.308 47.1771 43.4192 47.2118 43.5332 47.2127C43.6105 47.2155 43.6875 47.2024 43.7594 47.174C43.8314 47.1457 43.8967 47.1028 43.9512 47.048C44.0058 46.9932 44.0485 46.9277 44.0765 46.8557C44.1046 46.7836 44.1175 46.7066 44.1143 46.6293V46.6405Z" fill="white"/>
<path d="M48.2967 25.0635C48.2967 23.7958 48.2967 22.5282 48.2967 21.2605C48.3141 20.9847 48.2691 20.7086 48.165 20.4526C48.0608 20.1966 47.9003 19.9674 47.6954 19.782C47.1544 19.3109 46.5594 18.9057 45.9229 18.5749C44.1011 17.7044 42.1357 17.3207 40.1545 17.0044C37.3906 16.5692 34.5992 16.3316 31.8015 16.2931C30.0873 16.264 28.371 16.347 26.6568 16.4233C25.1558 16.4883 23.6616 16.6072 22.1696 16.8024C22.4321 17.3114 22.6419 17.8459 22.7955 18.3977C25.0476 18.039 27.3245 17.8597 29.605 17.8614C33.0759 17.8614 35.6403 17.9781 38.1801 18.3887C40.0872 18.6961 41.9786 19.0865 43.7421 19.9211C44.0815 20.0801 44.4021 20.2765 44.6979 20.5067C45.2274 20.9218 45.2476 21.366 44.6755 21.7272C44.0139 22.1582 43.3056 22.5127 42.5642 22.784C40.2375 23.5962 37.8167 23.9484 35.3689 24.1728C32.9069 24.3859 30.4334 24.4354 27.9649 24.3209C27.9649 24.3523 27.9649 24.3814 27.9649 24.4106C27.9724 25.1321 27.8359 25.8479 27.5636 26.5161C27.2913 27.1843 26.8885 27.7915 26.3788 28.3023C25.8691 28.813 25.2627 29.217 24.5951 29.4907C23.9274 29.7644 23.2119 29.9023 22.4904 29.8963H15.4768C15.6339 29.9771 15.7932 30.0556 15.9547 30.1207C17.1023 30.6399 18.3019 31.0356 19.5333 31.3008C22.4298 31.9515 25.461 32.2229 28.4248 32.3351C29.0979 32.362 29.771 32.3763 30.4441 32.3777C32.8245 32.3832 35.2028 32.2401 37.5654 31.9492C40.4013 31.5992 43.3472 31.0921 45.9005 29.7415C46.6274 29.3556 47.3297 28.8754 47.7851 28.1911C48.4403 27.2309 48.2944 26.1584 48.2967 25.0635Z" fill="white"/>
<path d="M37.5563 22.3622C38.723 22.0077 39.313 21.5971 39.3198 21.1461C39.3198 20.8971 38.3169 20.7468 37.4733 20.8724C36.1832 21.0631 34.9155 21.2628 33.6838 21.4715C32.8604 21.6128 32.9882 21.8596 33.8767 21.9785L34.9985 22.1221C34.8572 22.1625 34.7742 22.1939 34.671 22.2163C32.6979 22.5721 30.6858 22.6589 28.6894 22.4744C28.2856 22.4407 27.9131 22.3958 27.5676 22.3465C27.6622 22.5718 27.7409 22.8035 27.8032 23.0397C31.1642 23.3314 35.1175 23.1071 37.5563 22.3622Z" fill="white"/>
<path d="M27.4868 20.2487L26.3066 20.0961C26.5826 20.058 26.7105 20.0467 26.8092 20.0266C29.5397 19.4813 33.4369 19.5778 35.6222 20.2689C36.2381 20.4493 36.8866 20.4899 37.5203 20.3878C38.1485 20.2823 38.2136 20.0871 37.6527 19.9099C36.1225 19.4282 34.0898 19.1553 31.5545 19.091C29.3849 19.0145 27.2134 19.1771 25.0793 19.5756C25.7023 19.9233 26.2548 20.3844 26.7082 20.9352C27.0156 20.8859 27.3275 20.8387 27.6326 20.7871C28.6265 20.6323 28.548 20.381 27.4868 20.2487Z" fill="white"/>
<path d="M22.8425 20.8926C22.2996 18.3461 19.9729 16.4053 17.1056 16.4053C16.0599 16.3872 15.0294 16.6574 14.1271 17.1861C13.2248 17.7148 12.4854 18.4817 11.9901 19.4028C9.58715 19.7035 7.80347 21.5769 7.80347 23.8901C7.80347 26.3581 9.89678 28.3773 12.4545 28.3773H22.5307C24.7025 28.3773 26.4077 26.7283 26.4077 24.6282C26.4077 22.692 24.7788 21.0429 22.8425 20.8926ZM18.6559 23.1362V26.1359H15.5552V23.1407H13.2286L17.1056 19.3938L20.9803 23.1407L18.6559 23.1362Z" fill="white"/>
</svg>
