<svg id="Layer_1" data-name="Layer 1" xmlns="http://www.w3.org/2000/svg" viewBox="0 0 216 216"><defs><style>.cls-1{fill:#5b53a3;}.cls-2{fill:#fff;}</style></defs><title>stash</title><path class="cls-1" d="M52.85,201.56a30.12,30.12,0,0,1-14.79-3.89l3.15-6.48c4.24,2.75,6.94,3.55,11.58,3.55,4.07,0,7.05-1.32,7.05-5.21,0-8.6-20.75-1.32-20.75-18.46,0-7.4,6.25-10.78,14-10.78A31.2,31.2,0,0,1,67,163.44l-2.69,6.42a24.24,24.24,0,0,0-11.24-2.75c-3.33,0-5.91,1.26-5.91,4,0,9.74,20.76,1.71,20.76,18.23C67.93,198.58,61.16,201.56,52.85,201.56Z"/><path class="cls-1" d="M71.42,179.15v-6.82h3.84v-9.17h8.08v9.17h7.11v6.82H83.34v11.29c0,3.16,1,4.3,3,4.3a6.94,6.94,0,0,0,3.56-1.14l1.66,6.47a17.26,17.26,0,0,1-6.71,1.49c-6,0-9.57-2.92-9.57-10.66V179.15Z"/><path class="cls-1" d="M112.54,201a10.61,10.61,0,0,1-.58-2.81,9.81,9.81,0,0,1-7.57,3.38c-6.13,0-9.51-3.26-9.51-9.23,0-6.93,5.44-8.65,11.92-8.65a36.73,36.73,0,0,1,5.16.4V182c0-2.35-1.49-3.38-3.67-3.38a3.19,3.19,0,0,0-3.38,2.52l-8.77-1c.92-5.22,6-8.32,12.21-8.32,6.42,0,11.7,3.16,11.7,9.92v9.17a62.93,62.93,0,0,0,.63,10.15Zm-4.13-11.69c-3.27,0-5.45.68-5.45,3.09,0,1.61,1.21,2.35,3,2.35,3.21,0,6-2.23,6-5.44Z"/><path class="cls-1" d="M145.32,180.75a17.12,17.12,0,0,0-7.74-2.17c-1.89,0-3.15.57-3.15,1.77,0,3.62,14.62,1.89,14.62,11.7,0,6.76-5.16,9.51-11.93,9.51-5.1,0-9.17-1.43-12-3.78l3.73-6.19c3,2.06,5.73,3.15,8.37,3.15,1.78,0,3.78-.23,3.78-2.12,0-4.3-14.61-1.6-14.61-12.27,0-6.19,5.5-8.6,11.52-8.6a22.55,22.55,0,0,1,10.43,2.47Z"/><path class="cls-1" d="M161.54,201.56h-8.08V159.71h8.08v15.88a10.28,10.28,0,0,1,8-3.26c5.73,0,9.11,3.49,9.11,10.83v18.4h-8.08V183.33c0-2.92-1.61-4.18-4-4.18-3,0-5,2.52-5,9Z"/><path class="cls-1" d="M104.56,15.33l-46.3,22.3a8.69,8.69,0,0,0-4.71,5.91L42.11,93.64A8.71,8.71,0,0,0,43.79,101l32.05,40.18a8.7,8.7,0,0,0,6.8,3.28H134a8.73,8.73,0,0,0,6.81-3.28l32-40.18a8.71,8.71,0,0,0,1.68-7.37l-11.44-50.1a8.69,8.69,0,0,0-4.71-5.91l-46.3-22.3A8.71,8.71,0,0,0,104.56,15.33Z"/><path class="cls-2" d="M68.32,83.28l.05-4.49a3,3,0,0,1,.33-1.66c.75-1.13,2-.46,2.88,0a39.29,39.29,0,0,0,4,1.78,52.45,52.45,0,0,0,8.45,2.28c1.15.22,2.31.42,3.47.6a117.63,117.63,0,0,0,25.36,1.11,96,96,0,0,0,15.73-2.14,38.89,38.89,0,0,0,10.92-4c1.38-.8,2.59-.08,2.61,1.55q.06,4.22,0,8.45a1.65,1.65,0,0,1-2.52,1.6,21.88,21.88,0,0,0-25.33,5.15,21.25,21.25,0,0,0-3.26,4.72,2.93,2.93,0,0,1-1.23,1.39,3.44,3.44,0,0,1-1.5.21,138.33,138.33,0,0,1-18.54-1.09l-2.19-.32c-4.94-.76-9.9-1.85-14.3-4.21a11.92,11.92,0,0,1-3.46-2.6c-1.51-1.76-1.55-3.82-1.53-6Z"/><path class="cls-2" d="M102.65,120.05a109,109,0,0,1-18.36-2c-4.24-.94-9-2-12.57-4.56-1.82-1.31-3.41-3.15-3.38-5.52,0-3.15,0-6.29,0-9.44A1.65,1.65,0,0,1,71,96.9c4.53,2.54,9.48,3.76,14.53,4.68a121.33,121.33,0,0,0,21.19,1.71c.76,0,1.65.12,2,.91.39,1,0,2.33-.07,3.34A21.2,21.2,0,0,0,110,116a6.24,6.24,0,0,1,.64,2.67c-.09,1.11-1.08,1.43-2,1.46C106.61,120.21,104.63,120.15,102.65,120.05Z"/><path class="cls-2" d="M117.67,109.2a14.63,14.63,0,1,1,14.65,14.42A14.53,14.53,0,0,1,117.67,109.2ZM132.3,98.28a10.94,10.94,0,1,0,11.11,10.94A11.05,11.05,0,0,0,132.3,98.28Z"/><path class="cls-2" d="M130.84,93.86l.53-.38-.39-.34a1.21,1.21,0,0,0,.47-1.49c-.12-.44-.29-.86-.44-1.28a1.51,1.51,0,0,1,.33-1.66,1.55,1.55,0,0,1,1.68-.16,1.46,1.46,0,0,1,.53,2c-.15.38-.29.76-.4,1.14a1.21,1.21,0,0,0,.48,1.5l-.39.31.62.51h-3Z"/><path class="cls-2" d="M131,125.29l.39-.31-.62-.5h3.12l-.62.48.38.34a1.21,1.21,0,0,0-.48,1.49c.12.42.29.82.43,1.23a1.42,1.42,0,0,1-2,1.86,1.46,1.46,0,0,1-.53-1.95,11.86,11.86,0,0,0,.4-1.14A1.23,1.23,0,0,0,131,125.29Z"/><path class="cls-2" d="M120,119.64l.5.07,0-.5,1.85,2,.16-.11-.61,0,0,.44s0,0-.06,0a1.17,1.17,0,0,0-1.29.65,9.87,9.87,0,0,0-.57,1.18,1.44,1.44,0,0,1-2.82-.28,1.55,1.55,0,0,1,1.08-1.51,8.39,8.39,0,0,0,1.09-.52A1.2,1.2,0,0,0,120,119.64Z"/><path class="cls-2" d="M142.72,121.54l.05-.51-.48,0,1.84-2v.62l.44,0s0,0,0,.08a1.12,1.12,0,0,0,.61,1.25,10.55,10.55,0,0,0,1.22.59,1.5,1.5,0,0,1,1,1.53,1.48,1.48,0,0,1-1.32,1.28,1.52,1.52,0,0,1-1.5-1.07,10.81,10.81,0,0,0-.51-1.09A1.22,1.22,0,0,0,142.72,121.54Z"/><path class="cls-2" d="M142.16,97.34l.58.07v-.5c.77.15,1.18-.29,1.5-.88.24-.44.4-.92.67-1.34a1.25,1.25,0,0,1,1.5-.59,1.52,1.52,0,0,1,1.08,1.35,1.57,1.57,0,0,1-1.08,1.42c-.29.13-.59.24-.88.39-.61.32-1.07.75-.92,1.53l-.5,0,0,.47-1.84-2Z"/><path class="cls-2" d="M121.87,96.91l0,.49.59-.06-.08-.08-1.89,2.09,0-.58H120a1.3,1.3,0,0,0-.84-1.47c-.45-.25-1-.42-1.38-.69a1.24,1.24,0,0,1-.6-1.46A1.5,1.5,0,0,1,118.49,94,1.55,1.55,0,0,1,120,95.15a9.07,9.07,0,0,0,.55,1.13A1.21,1.21,0,0,0,121.87,96.91Z"/><path class="cls-2" d="M148.35,110.59c-.14-.34-.29-.54-.59-.14v-2.4l.33.2.28-.36a1.27,1.27,0,0,0,1.58.47c.42-.13.82-.3,1.23-.44a1.44,1.44,0,0,1,1.64.37A1.48,1.48,0,0,1,153,110a1.46,1.46,0,0,1-1.92.5c-.41-.15-.82-.31-1.24-.42A1.2,1.2,0,0,0,148.35,110.59Z"/><path class="cls-2" d="M116.25,107.85c.15.31.27.6.58.12v2.42l-.32-.2-.29.36a1.22,1.22,0,0,0-1.49-.49c-.43.13-.85.3-1.28.44a1.5,1.5,0,0,1-1.65-.32,1.53,1.53,0,0,1-.17-1.68,1.46,1.46,0,0,1,2-.53c.39.15.78.3,1.18.41A1.24,1.24,0,0,0,116.25,107.85Z"/><path class="cls-2" d="M128,108.23a1.16,1.16,0,0,0,.56-1.12c0-.11-.1-.28-.19-.3a1.91,1.91,0,0,1-1.32-1c-.18-.32-.37-.64-.53-1-.39-.8-.39-.8-1.28-.58v-.89h-1c.06-.18.06-.37.16-.47.54-.55,1.1-1.09,1.67-1.61.08-.08.23-.07.35-.1a2.19,2.19,0,0,1,0,.36c0,.2,0,.4,0,.62h.92c-.18.9-.18.9.64,1.3a5.76,5.76,0,0,1,1.13.66,6.18,6.18,0,0,1,.81,1c.07.1.08.35.12.35a1.87,1.87,0,0,0,.79-.1c.47-.24.57-.48.29-1a1.68,1.68,0,0,1-.08-1.35,9,9,0,0,1,.37-1.25c.19-.47.1-.78-.39-.94a2,2,0,0,1-.23-.15l.73-.68-.86-.68a8.14,8.14,0,0,1,3.26,0l-.78.74.7.67-.41.22a.47.47,0,0,0-.27.67c.15.43.25.87.4,1.3a2.57,2.57,0,0,1-.07,1.71c0,.13-.17.35-.13.38a1.56,1.56,0,0,0,.65.45c.52.14.66.1.84-.47a1.88,1.88,0,0,1,.94-1,8.68,8.68,0,0,1,.85-.46c.83-.41.83-.41.64-1.3h.88c0-.22,0-.45,0-.67a1.75,1.75,0,0,1,0-.32c.1,0,.24,0,.31.07q.9.84,1.77,1.71c.08.08.05.25.08.41l-1,0,0,.86c-.09,0-.12.07-.15.06-.79-.2-.78-.2-1.16.56a4.9,4.9,0,0,1-.59,1,7.66,7.66,0,0,1-1.09,1c-.1.09-.38.11-.38.16a2.57,2.57,0,0,0,.14.82c.2.49.6.47,1,.24a1.59,1.59,0,0,1,1.31-.1c.39.1.78.22,1.16.34.78.24.78.25,1.34-.66l.48.83.67-.73c.37,0,.35.29.36.55.09,2.06.07,2.27-.34,2.47l-.65-.68-.64.7c-.08-.15-.14-.22-.18-.31-.16-.41-.43-.51-.85-.34s-.73.24-1.1.36a2.19,2.19,0,0,1-2.08-.28c-.09.1-.15.19-.23.27-.55.59-.51,1.08.19,1.32a1.82,1.82,0,0,1,1,.91,8.38,8.38,0,0,1,.53,1c.37.75.37.75,1.24.5v1c.24,0,.47,0,.7,0s.24,0,.28.08a.32.32,0,0,1,0,.3c-.6.6-1.19,1.19-1.82,1.75-.19.17-.36.09-.33-.21s0-.47.06-.72h-1c.05-.17.07-.27.11-.37a.52.52,0,0,0-.31-.75c-.49-.24-1-.51-1.45-.77a1.78,1.78,0,0,1-.87-1.24c-.05-.25-.66-.3-1-.07a5.84,5.84,0,0,0-.5.44,2.35,2.35,0,0,1,.17,2.46c0,.14-.08.28-.13.42-.27.84-.27.84.53,1.33l-.69.65.77.72a7.84,7.84,0,0,1-3.2,0l.77-.74-.7-.67a3.27,3.27,0,0,1,.38-.19.52.52,0,0,0,.3-.75c-.14-.36-.23-.74-.36-1.1a2.26,2.26,0,0,1,.26-2.16,2.23,2.23,0,0,0-.48-.41,2.63,2.63,0,0,0-.63-.15c-.38-.1-.28.18-.35.39a2.27,2.27,0,0,1-1.14,1.22l-.9.48c-.74.36-.74.36-.48,1.21h-1c0,.26,0,.5,0,.74s-.14.39-.33.22c-.63-.56-1.22-1.15-1.82-1.74-.07-.08,0-.25-.06-.38h1l0-.85c.1,0,.14-.06.16,0,.77.22.76.22,1.11-.48a7,7,0,0,1,.72-1.25,5.45,5.45,0,0,1,1-.83c.11-.08.38-.12.37-.16a2.78,2.78,0,0,0-.16-.82c-.06-.17-.24-.29-.4-.48-1,.78-2,.33-3,0-.81-.25-.81-.26-1.29.64l-.64-.8-.72.75a1.92,1.92,0,0,1-.23-.51c-.14-1.64-.05-2.34.32-2.57l.65.7.66-.71c.09.18.15.27.2.37a.51.51,0,0,0,.74.31c.36-.14.73-.24,1.1-.35A2.28,2.28,0,0,1,128,108.23Zm4.24-2.15a3.15,3.15,0,0,0-3.06,3.12,3.08,3.08,0,0,0,3.09,3.12,3.14,3.14,0,0,0,3.14-3A3.27,3.27,0,0,0,132.26,106.08Z"/><path class="cls-2" d="M132.33,107.07a2.15,2.15,0,0,1,0,4.29,2.15,2.15,0,1,1,0-4.29Zm1.16,2.15a1.2,1.2,0,1,0-1.2,1.19A1.16,1.16,0,0,0,133.49,109.22Z"/><path class="cls-2" d="M142.18,64.44c0-2.63,0-5.27,0-7.9a3.8,3.8,0,0,0-1.25-3.07A18.7,18.7,0,0,0,137.24,51a43.08,43.08,0,0,0-12-3.26,121.36,121.36,0,0,0-17.34-1.48c-3.56-.06-7.13.11-10.68.27-3.12.14-6.23.38-9.31.79a16.87,16.87,0,0,1,1.3,3.31,89.62,89.62,0,0,1,14.14-1.11,107.05,107.05,0,0,1,17.81,1.09,42.53,42.53,0,0,1,11.55,3.18,10.42,10.42,0,0,1,2,1.22c1.09.86,1.14,1.79-.05,2.54a22.13,22.13,0,0,1-4.38,2.19,62.28,62.28,0,0,1-14.95,2.88,116,116,0,0,1-15.37.31,1.21,1.21,0,0,1,0,.19A11.28,11.28,0,0,1,88.59,74.47H74c.32.16.65.33,1,.48a36.56,36.56,0,0,0,7.43,2.45,103.12,103.12,0,0,0,18.46,2.15c1.4,0,2.81.08,4.21.08a118,118,0,0,0,14.79-.88c5.89-.73,12-1.78,17.3-4.59a10.44,10.44,0,0,0,3.92-3.22C142.47,68.94,142.17,66.71,142.18,64.44Z"/><path class="cls-2" d="M119.88,58.83c2.42-.74,3.65-1.59,3.66-2.53,0-.51-2.08-.82-3.84-.57-2.67.4-5.31.81-7.86,1.25-1.71.29-1.45.81.39,1.05l2.32.3c-.3.08-.45.15-.68.19a45.92,45.92,0,0,1-12.42.54q-1.26-.11-2.34-.27a10.62,10.62,0,0,1,.49,1.44C106.59,60.84,114.81,60.38,119.88,58.83Z"/><path class="cls-2" d="M99,54.42l-2.45-.31,1-.15c5.67-1.13,13.76-.91,18.3.51a8.84,8.84,0,0,0,3.94.24c1.31-.22,1.44-.62.28-1A47.69,47.69,0,0,0,107.42,52a62.15,62.15,0,0,0-13.45,1,12,12,0,0,1,3.38,2.83l1.92-.31C101.33,55.24,101.17,54.71,99,54.42Z"/><g id="backup"><path class="cls-2" d="M89.32,55.78a12,12,0,0,0-11.91-9.34,11.81,11.81,0,0,0-10.62,6.23,9.35,9.35,0,0,0,1,18.67H88.68a7.84,7.84,0,0,0,8-7.78A8,8,0,0,0,89.32,55.78Zm-8.69,4.67v6.22H74.19V60.45H69.36l8-7.78,8,7.78Z"/></g></svg>