<svg id="Layer_1" data-name="Layer 1" xmlns="http://www.w3.org/2000/svg" viewBox="0 0 511 511"><defs><style>.cls-1{fill:#5e2dea;}.cls-2{fill:#fff;}</style></defs><title>stash-512x512</title><path class="cls-1" d="M246.3,8.13,58.56,98.55a21.13,21.13,0,0,0-11.45,14.36L.74,316.07A21.16,21.16,0,0,0,4.82,334L134.75,496.89a21.13,21.13,0,0,0,16.54,8H359.68a21.13,21.13,0,0,0,16.54-8L506.15,334a21.16,21.16,0,0,0,4.08-17.9L463.86,112.91a21.13,21.13,0,0,0-11.45-14.36L264.67,8.13A21.2,21.2,0,0,0,246.3,8.13Z"/><path class="cls-2" d="M125.4,271.31l.15-15.48c0-2,.07-4.06,1.16-5.7,2.58-3.9,6.83-1.6,9.92,0a123.78,123.78,0,0,0,13.9,6.14,180.57,180.57,0,0,0,29.11,7.86c4,.77,8,1.45,12,2.08A405.34,405.34,0,0,0,279,270a329.93,329.93,0,0,0,54.2-7.36c13.08-3,25.87-6.91,37.62-13.69,4.76-2.75,9-.26,9,5.34q.17,14.55,0,29.11c-.07,5.24-4,7.67-8.68,5.52a75.33,75.33,0,0,0-87.27,17.74A73.38,73.38,0,0,0,272.61,323a10,10,0,0,1-4.24,4.77,11.75,11.75,0,0,1-5.18.73c-21.35,0-42.69-.91-63.87-3.77q-3.78-.51-7.55-1.09c-17-2.61-34.1-6.36-49.24-14.51-4.4-2.36-8.68-5.14-11.93-8.93-5.21-6.08-5.35-13.17-5.27-20.78Z"/><path class="cls-2" d="M243.67,398c-21.26-1-42.39-2.45-63.25-7.06-14.61-3.24-31-6.8-43.32-15.72-6.26-4.53-11.74-10.87-11.65-19,.12-10.84,0-21.68,0-32.52,0-5.39,4.29-8.06,9-5.44,15.61,8.74,32.65,12.95,50.06,16.12,24.14,4.4,48.52,5.75,73,5.88,2.61,0,5.68.41,6.78,3.14,1.36,3.37-.11,8-.25,11.51a73.4,73.4,0,0,0,4.9,29.25c1.11,2.87,2.48,6.05,2.22,9.2-.31,3.83-3.73,4.93-7.07,5C257.31,398.55,250.48,398.34,243.67,398Z"/><path class="cls-2" d="M295.43,360.61c-.06-27.23,22.57-49.49,50.4-49.56,27.59-.06,50.37,22.28,50.37,49.43,0,27.49-22.55,49.82-50.31,49.82S295.48,388.08,295.43,360.61ZM345.83,323c-21,0-38.26,17-38.26,37.68s17.23,37.69,38.25,37.69,38.25-17,38.27-37.68S366.88,323,345.83,323Z"/><path class="cls-2" d="M340.78,307.77l1.83-1.32-1.35-1.17c1.95-1.27,2.22-3.11,1.65-5.15-.42-1.49-1-2.93-1.52-4.4-.77-2.26-.32-4.49,1.12-5.7a5.27,5.27,0,0,1,5.79-.55c2.25,1.15,3,3.82,1.83,6.72a41.56,41.56,0,0,0-1.38,3.93c-.58,2-.3,3.87,1.66,5.16l-1.35,1.07,2.14,1.73H340.87Z"/><path class="cls-2" d="M341.23,416.06l1.34-1.08-2.12-1.73H351.2l-2.12,1.68,1.29,1.15c-2,1.26-2.19,3.12-1.64,5.14.4,1.44,1,2.84,1.48,4.25.81,2.3.38,4.63-1.08,5.86a5.32,5.32,0,0,1-5.8.54c-2.24-1.15-2.95-3.84-1.81-6.73.5-1.29,1-2.59,1.38-3.92C343.47,419.18,343.18,417.35,341.23,416.06Z"/><path class="cls-2" d="M303.36,396.57l1.7.25-.09-1.73,6.37,6.82.54-.36-2.11-.15.09,1.52c-.06,0-.16.17-.23.15-2.06-.41-3.46.63-4.44,2.25a38.47,38.47,0,0,0-1.94,4c-1.14,2.5-3.13,3.86-5.27,3.57a5.17,5.17,0,0,1-4.44-4.54c-.25-2.1,1.18-4.09,3.7-5.2a32.22,32.22,0,0,0,3.76-1.77C302.73,400.39,303.88,399,303.36,396.57Z"/><path class="cls-2" d="M381.74,403.15l.16-1.77-1.65.17,6.32-6.91v2.11l1.53-.11c0,.1.14.2.13.28-.45,2,.59,3.36,2.13,4.32a35.71,35.71,0,0,0,4.17,2c2.48,1.12,3.84,3.13,3.54,5.27a5.16,5.16,0,0,1-4.54,4.42c-2.08.26-4.11-1.2-5.19-3.69a33,33,0,0,0-1.77-3.75C385.55,403.79,384.12,402.63,381.74,403.15Z"/><path class="cls-2" d="M379.8,319.75l2,.25v-1.73c2.62.52,4.06-1,5.15-3,.82-1.51,1.38-3.17,2.3-4.61a4.35,4.35,0,0,1,5.18-2.06,5.28,5.28,0,0,1,3.71,4.68c.11,1.94-1.33,3.85-3.69,4.89-1,.44-2.07.83-3,1.35-2.11,1.09-3.68,2.55-3.17,5.25l-1.71-.14.17,1.63-6.36-6.91Z"/><path class="cls-2" d="M309.88,318.27l-.12,1.69,2-.2-.28-.28L305,326.69l.11-2h-1.69c.52-2.55-.93-4-2.89-5.08-1.56-.85-3.27-1.43-4.76-2.38a4.29,4.29,0,0,1-2.08-5,5.25,5.25,0,0,1,4.56-3.84c2.08-.18,4,1.3,5.11,3.84a30.36,30.36,0,0,0,1.89,3.89C306.39,318,307.55,318.43,309.88,318.27Z"/><path class="cls-2" d="M401.12,365.42c-.47-1.18-1-1.88-2-.48v-8.29l1.13.7,1-1.24c1.36,2.07,3.33,2.23,5.45,1.6,1.44-.43,2.82-1,4.24-1.5,2.27-.74,4.53-.26,5.65,1.26a5.1,5.1,0,0,1,.43,5.8c-1.16,2.14-3.81,2.81-6.62,1.74a40.2,40.2,0,0,0-4.25-1.46A4.14,4.14,0,0,0,401.12,365.42Z"/><path class="cls-2" d="M290.51,356c.53,1,1,2.06,2,.4v8.34l-1.12-.7-1,1.25c-1.27-2-3.12-2.24-5.15-1.67-1.49.42-2.93,1-4.4,1.52a5.25,5.25,0,0,1-5.71-1.1,5.32,5.32,0,0,1-.56-5.8c1.16-2.26,3.8-3,6.71-1.85a39.38,39.38,0,0,0,4.08,1.42A4.18,4.18,0,0,0,290.51,356Z"/><path class="cls-2" d="M331.08,357.26a4.06,4.06,0,0,0,1.94-3.84c0-.38-.37-1-.66-1a6.57,6.57,0,0,1-4.55-3.41c-.62-1.12-1.27-2.22-1.83-3.37-1.36-2.76-1.34-2.76-4.41-2v-3H318c.19-.63.2-1.3.53-1.64,1.87-1.9,3.81-3.74,5.77-5.55.27-.25.79-.23,1.19-.33a10.13,10.13,0,0,1,.14,1.22c0,.7-.06,1.39-.1,2.17h3.18c-.63,3.1-.62,3.07,2.2,4.48a18.7,18.7,0,0,1,3.89,2.25,20.26,20.26,0,0,1,2.79,3.49c.25.35.3,1.2.43,1.2a6.56,6.56,0,0,0,2.71-.35c1.64-.81,2-1.64,1-3.36a5.94,5.94,0,0,1-.29-4.66,34,34,0,0,1,1.31-4.31c.65-1.62.34-2.68-1.36-3.25a5.86,5.86,0,0,1-.8-.51l2.51-2.33-2.94-2.35a27.83,27.83,0,0,1,11.24-.12l-2.71,2.55,2.43,2.29c-.67.36-1,.57-1.43.76a1.65,1.65,0,0,0-.94,2.32c.53,1.46.88,3,1.4,4.46a8.85,8.85,0,0,1-.25,5.9c-.15.46-.59,1.19-.45,1.33a5.93,5.93,0,0,0,2.25,1.54c1.78.49,2.25.34,2.88-1.64a6.56,6.56,0,0,1,3.25-3.6c.94-.58,1.93-1.11,2.92-1.6,2.86-1.41,2.86-1.4,2.21-4.48h3c0-.75,0-1.53,0-2.31a8,8,0,0,1,.16-1.08c.35.07.83,0,1.06.22,2.06,1.93,4.11,3.89,6.1,5.9.26.26.18.86.27,1.41l-3.5-.18.17,3c-.32.14-.43.24-.51.22-2.72-.71-2.7-.7-4,1.9a16.83,16.83,0,0,1-2,3.62,26.86,26.86,0,0,1-3.75,3.29c-.37.3-1.33.38-1.32.53a9,9,0,0,0,.5,2.83c.66,1.68,2.05,1.61,3.27.83,1.51-1,3-.68,4.49-.33s2.69.74,4,1.16c2.68.84,2.68.86,4.62-2.29l1.66,2.88,2.31-2.5c1.27,0,1.2,1,1.24,1.88.31,7.1.22,7.82-1.19,8.51-.74-.78-1.49-1.56-2.23-2.35l-2.2,2.4a8.93,8.93,0,0,1-.61-1c-.57-1.42-1.51-1.76-2.93-1.18-1.24.49-2.54.82-3.81,1.22a7.5,7.5,0,0,1-7.16-1c-.3.36-.54.65-.79.93-1.89,2-1.76,3.73.66,4.55A6.39,6.39,0,0,1,364,372.6a37.71,37.71,0,0,1,1.83,3.37c1.28,2.58,1.26,2.59,4.25,1.74V381c.85-.06,1.63-.14,2.42-.14.34,0,.85.06,1,.28a1.11,1.11,0,0,1-.09,1.05c-2,2-4.1,4.07-6.24,6-.69.61-1.26.31-1.17-.73.08-.8.14-1.6.21-2.47h-3.33c.17-.57.25-.94.39-1.28a1.78,1.78,0,0,0-1.07-2.56c-1.7-.84-3.35-1.75-5-2.68a6.06,6.06,0,0,1-3-4.24c-.18-.88-2.26-1.07-3.34-.27-.57.41-1.06.92-1.74,1.52,2.19,2.67,1.62,5.56.61,8.48-.16.47-.3,1-.45,1.43-.92,2.91-.92,2.91,1.81,4.6l-2.36,2.23,2.64,2.49a27.26,27.26,0,0,1-11,.07l2.66-2.54-2.42-2.33c.63-.32,1-.51,1.29-.66a1.74,1.74,0,0,0,1-2.56c-.48-1.24-.79-2.55-1.22-3.81a7.77,7.77,0,0,1,.89-7.43,8.16,8.16,0,0,0-1.66-1.42,10.75,10.75,0,0,0-2.17-.52c-1.31-.34-1,.65-1.21,1.34a7.72,7.72,0,0,1-3.94,4.22c-1,.54-2.05,1.12-3.09,1.64-2.54,1.25-2.54,1.24-1.64,4.18h-3.29c.06.89.08,1.73.18,2.56.12,1.06-.47,1.34-1.14.74-2.15-1.93-4.21-4-6.25-6-.25-.25-.15-.86-.21-1.3h3.44l-.14-2.94c.36-.1.47-.18.56-.15,2.63.76,2.6.75,3.82-1.64a23.67,23.67,0,0,1,2.47-4.34,18.66,18.66,0,0,1,3.49-2.84c.38-.28,1.29-.41,1.28-.57a9.36,9.36,0,0,0-.56-2.83c-.22-.57-.82-1-1.4-1.63-3.34,2.68-6.76,1.14-10.18.06-2.78-.87-2.78-.89-4.44,2.19l-2.22-2.74L311.75,366a6.14,6.14,0,0,1-.79-1.77c-.48-5.64-.18-8,1.1-8.84l2.24,2.42,2.27-2.45c.33.6.53.92.68,1.25a1.75,1.75,0,0,0,2.55,1.07c1.24-.48,2.54-.82,3.82-1.2C327.77,355.26,328.35,356.13,331.08,357.26Zm14.62-7.38a10.82,10.82,0,0,0-10.56,10.72,10.65,10.65,0,0,0,10.64,10.77,10.85,10.85,0,0,0,10.84-10.45A11.27,11.27,0,0,0,345.7,349.88Z"/><path class="cls-2" d="M345.94,353.26a7.41,7.41,0,0,1-.16,14.81,7.41,7.41,0,1,1,.16-14.81Zm4,7.43a4.12,4.12,0,1,0-4.14,4.09A4,4,0,0,0,349.94,360.69Z"/><path class="cls-2" d="M379.86,206.39q0-13.6,0-27.21c0-4.08-1.13-8-4.29-10.58A65.11,65.11,0,0,0,362.86,160c-13-6.24-27.11-9-41.28-11.26a418.68,418.68,0,0,0-59.76-5.08c-12.26-.21-24.54.38-36.8.92-10.75.48-21.44,1.33-32.05,2.72a58.79,58.79,0,0,1,4.48,11.42c17.82-3,33.47-3.63,48.71-3.84,24.84-.07,43.18.84,61.36,3.77,13.64,2.2,27.18,5,39.8,11a36,36,0,0,1,6.83,4.19c3.79,3,3.94,6.16-.15,8.74a75.24,75.24,0,0,1-15.12,7.56c-16.64,5.8-34,8.33-51.47,9.92a400.22,400.22,0,0,1-53,1.07c0,.22,0,.43,0,.65a38.86,38.86,0,0,1-39.24,39.23H145.05c1.13.58,2.27,1.14,3.42,1.67a127.34,127.34,0,0,0,25.6,8.43c20.72,4.66,42.42,6.61,63.62,7.41,4.82.19,9.66.29,14.49.3a409.1,409.1,0,0,0,50.94-3.06c20.3-2.5,41.36-6.13,59.63-15.8,5.2-2.75,10.23-6.19,13.5-11.09C380.85,221.9,379.85,214.22,379.86,206.39Z"/><path class="cls-2" d="M303,187.07c8.35-2.55,12.57-5.48,12.62-8.71,0-1.77-7.17-2.85-13.22-2-9.22,1.36-18.3,2.78-27.1,4.29-5.89,1-5,2.77,1.37,3.62,2.52.34,5.08.65,8,1-1,.3-1.55.52-2.35.68a158.36,158.36,0,0,1-42.79,1.84c-2.88-.24-5.55-.55-8-.92a40.8,40.8,0,0,1,1.69,5C257.24,194,285.58,192.4,303,187.07Z"/><path class="cls-2" d="M231,171.89l-8.44-1.09c2-.27,2.88-.36,3.59-.5,19.54-3.89,47.43-3.13,63.06,1.74a30.81,30.81,0,0,0,13.58.84c4.5-.75,5-2.14,1-3.41q-16.43-5.17-43.63-5.86c-17.21-.46-33.89,1-46.34,3.56a40.61,40.61,0,0,1,11.66,9.74l6.62-1.06C239.13,174.69,238.58,172.89,231,171.89Z"/><g id="backup"><path class="cls-2" d="M197.74,176.56c-3.88-18.24-20.52-32.18-41-32.18-16.08,0-29.94,8.58-36.6,21.45C102.91,168,90.15,181.38,90.15,198c0,17.7,15,32.17,33.28,32.17h72.1c15.52,0,27.73-11.79,27.73-26.81C223.26,189.42,211.61,177.63,197.74,176.56ZM167.8,192.64v21.45H145.61V192.64H129l27.73-26.81,27.73,26.81Z"/></g></svg>