<svg width="1225" height="512" viewBox="0 0 1225 512" fill="none" xmlns="http://www.w3.org/2000/svg">
<g clip-path="url(#clip0)">
<path d="M469.614 295.088C438.503 295.079 407.923 287.021 380.848 271.698L399.757 232.819C425.219 249.332 441.382 254.15 469.253 254.15C493.679 254.15 511.564 246.236 511.564 222.834C511.564 171.225 387.026 214.921 387.026 112.027C387.026 67.6436 424.52 47.3369 470.975 47.3369C505.036 47.3369 532.895 55.6113 554.575 66.2706L538.399 104.812C517.589 93.9178 494.44 88.2506 470.951 88.2996C450.994 88.2996 435.505 95.8634 435.505 112.039C435.505 170.526 560.055 122.349 560.055 221.437C560.055 277.202 519.453 295.088 469.614 295.088Z" fill="#5E2DEA"/>
<path d="M580.995 160.564V119.613H604.047V64.5708H652.562V119.613H695.211V160.564H652.562V228.337C652.562 247.271 658.403 254.148 670.448 254.148C676.638 254.148 683.865 252.076 691.778 247.271L701.751 286.138C687.647 291.991 674.579 295.087 661.499 295.087C625.727 295.087 604.047 277.55 604.047 231.095V160.564H580.995Z" fill="#5E2DEA"/>
<path d="M827.743 291.654C825.844 286.214 824.689 280.542 824.31 274.792C812.615 288.547 795.753 295.087 778.891 295.087C742.084 295.087 721.777 275.479 721.777 239.683C721.777 198.058 754.465 187.736 793.344 187.736C803.71 187.815 814.057 188.62 824.31 190.145V177.426C824.31 163.322 815.361 157.132 802.293 157.132C790.598 157.132 784.058 163.66 781.986 172.271L729.353 166.069C734.857 134.753 765.486 116.193 802.63 116.193C841.172 116.193 872.812 135.115 872.812 175.704V230.746C872.812 253.462 873.499 271.697 876.606 291.654H827.743ZM802.98 221.46C783.371 221.46 770.291 225.591 770.291 240.045C770.291 249.68 777.518 254.149 788.526 254.149C807.797 254.149 824.31 240.731 824.31 221.46H802.98Z" fill="#5E2DEA"/>
<path d="M1024.5 170.2C1008 161.251 990.774 157.132 978.055 157.132C966.71 157.132 959.134 160.564 959.134 167.791C959.134 189.471 1046.86 179.149 1046.86 237.973C1046.86 278.574 1015.9 295.087 975.309 295.087C944.693 295.087 920.267 286.487 903.043 272.384L925.41 235.227C943.645 247.608 959.82 254.149 975.647 254.149C986.306 254.149 998.338 252.763 998.338 241.418C998.338 215.619 910.619 231.782 910.619 167.791C910.619 130.646 943.645 116.193 979.766 116.193C1002.13 116.193 1025.53 121.697 1042.4 130.984L1024.5 170.2Z" fill="#5E2DEA"/>
<path d="M1121.82 295.088H1073.31V43.9402H1121.82V139.235C1134.89 125.817 1149.35 119.627 1169.64 119.627C1204.05 119.627 1224.35 140.62 1224.35 184.666V295.1H1175.83V185.69C1175.83 168.129 1166.2 160.565 1151.74 160.565C1133.84 160.565 1121.81 175.705 1121.81 214.584L1121.82 295.088Z" fill="#5E2DEA"/>
<path d="M162.02 2.231L42.324 59.875C39.2765 61.3412 36.599 63.4758 34.4908 66.12C32.3825 68.7641 30.8978 71.8498 30.1472 75.1472L0.578439 204.672C-0.186607 207.977 -0.192843 211.413 0.560208 214.722C1.31326 218.03 2.80603 221.125 4.92643 223.774L87.8032 327.596C89.9176 330.229 92.5966 332.354 95.6423 333.813C98.6881 335.273 102.023 336.029 105.4 336.027H238.212C241.59 336.032 244.926 335.276 247.972 333.817C251.018 332.357 253.696 330.231 255.809 327.596L338.65 223.774C340.761 221.132 342.249 218.047 343.002 214.75C343.755 211.453 343.753 208.028 342.998 204.732L313.429 75.1472C312.678 71.8498 311.194 68.7641 309.085 66.12C306.977 63.4758 304.3 61.3412 301.252 59.875L181.556 2.231C178.509 0.762565 175.17 0 171.788 0C168.406 0 165.067 0.762565 162.02 2.231V2.231Z" fill="#5E2DEA"/>
<path d="M68.344 177.887L68.4524 166.276C68.323 164.797 68.6241 163.312 69.3196 162C71.2587 159.074 74.4504 160.796 76.775 162C80.1509 163.745 83.6302 165.281 87.1933 166.601C94.3005 169.169 101.608 171.143 109.042 172.503C112.029 173.081 115.064 173.587 118.027 174.057C139.704 177.37 161.676 178.331 183.56 176.923C197.247 176.21 210.852 174.361 224.233 171.395C234.049 169.143 243.649 166.216 252.453 161.121C256.066 159.062 259.174 160.929 259.222 165.132C259.302 172.407 259.302 179.686 259.222 186.968C259.222 190.907 256.235 192.726 252.706 191.112C241.793 186.083 229.562 184.663 217.787 187.056C206.012 189.449 195.306 195.531 187.221 204.42C183.878 208.096 181.042 212.204 178.79 216.633C178.16 218.157 177.041 219.428 175.61 220.247C174.376 220.721 173.05 220.91 171.732 220.801C155.708 220.93 139.693 219.985 123.796 217.97C121.917 217.717 120.026 217.452 118.135 217.151C105.38 215.2 92.553 212.334 81.1953 206.311C77.8251 204.65 74.7911 202.379 72.2463 199.615C68.332 195.05 68.2356 189.739 68.2838 184.03L68.344 177.887Z" fill="white"/>
<path d="M157.067 272.95C141.12 272.179 125.27 271.107 109.612 267.65C98.652 265.242 86.3669 262.556 77.0927 255.859C72.3955 252.463 68.2763 247.705 68.3486 241.587C68.4449 233.457 68.3486 225.327 68.3486 217.185C68.3486 213.138 71.5644 211.163 75.0693 213.102C86.7884 219.666 99.5674 222.822 112.623 225.206C130.75 228.494 149.033 229.518 167.401 229.615C169.364 229.615 171.665 229.928 172.484 231.963C173.507 234.492 172.411 237.985 172.303 240.599C172.027 248.091 173.276 255.561 175.976 262.556C176.819 264.7 177.843 267.096 177.651 269.445C177.41 272.336 174.844 273.155 172.339 273.215C167.292 273.347 162.186 273.155 157.067 272.95Z" fill="white"/>
<path d="M195.913 244.887C195.913 224.412 212.847 207.755 233.732 207.707C254.436 207.707 271.515 224.424 271.515 244.791C271.351 254.7 267.303 264.149 260.242 271.103C253.181 278.057 243.672 281.96 233.761 281.973C223.851 281.986 214.332 278.106 207.253 271.17C200.174 264.234 196.102 254.796 195.913 244.887V244.887ZM233.732 216.668C228.158 216.753 222.733 218.484 218.139 221.644C213.546 224.803 209.989 229.25 207.915 234.425C205.841 239.6 205.343 245.273 206.484 250.73C207.625 256.187 210.353 261.186 214.326 265.097C218.299 269.008 223.339 271.658 228.814 272.713C234.288 273.768 239.952 273.182 245.094 271.027C250.236 268.873 254.627 265.247 257.714 260.604C260.801 255.962 262.447 250.511 262.446 244.935C262.366 237.386 259.301 230.174 253.921 224.877C248.541 219.581 241.282 216.629 233.732 216.668V216.668Z" fill="white"/>
<path d="M229.929 205.25L231.302 204.25L230.291 203.371C230.91 202.971 231.37 202.366 231.59 201.662C231.81 200.958 231.776 200.199 231.495 199.517C231.17 198.397 230.724 197.313 230.351 196.205C230.045 195.49 229.962 194.7 230.112 193.937C230.263 193.174 230.64 192.474 231.194 191.929C231.798 191.441 232.533 191.142 233.306 191.069C234.079 190.996 234.857 191.153 235.542 191.52C237.216 192.375 237.758 194.386 236.903 196.566C236.529 197.53 236.156 198.505 235.879 199.505C235.589 200.189 235.551 200.955 235.771 201.665C235.992 202.375 236.457 202.984 237.084 203.383L236.072 204.19L237.674 205.491H229.929V205.25Z" fill="white"/>
<path d="M230.274 286.499L231.286 285.68L229.696 284.391H237.753L236.164 285.596L237.139 286.463C236.516 286.86 236.053 287.465 235.833 288.17C235.612 288.875 235.648 289.636 235.935 290.317C236.236 291.401 236.669 292.449 237.043 293.497C237.461 294.205 237.626 295.035 237.509 295.849C237.392 296.663 237 297.413 236.399 297.975C235.798 298.537 235.024 298.877 234.203 298.938C233.383 299 232.566 298.78 231.888 298.315C230.202 297.459 229.672 295.436 230.527 293.268C230.9 292.304 231.274 291.329 231.563 290.329C231.832 289.641 231.851 288.88 231.615 288.18C231.38 287.479 230.905 286.884 230.274 286.499V286.499Z" fill="white"/>
<path d="M201.866 271.867L203.143 272.06L203.07 270.747L207.888 275.866L208.249 275.565L206.671 275.445L206.744 276.589C206.744 276.589 206.623 276.709 206.575 276.697C205.911 276.566 205.221 276.66 204.617 276.966C204.012 277.271 203.527 277.77 203.239 278.383C202.695 279.366 202.209 280.38 201.782 281.419C200.926 283.297 199.433 284.321 197.831 284.092C196.974 283.979 196.179 283.582 195.575 282.964C194.97 282.346 194.59 281.543 194.495 280.684C194.302 279.118 195.386 277.625 197.277 276.794C198.24 276.403 199.181 275.961 200.095 275.469C200.761 275.165 201.301 274.641 201.624 273.984C201.946 273.328 202.032 272.58 201.866 271.867V271.867Z" fill="white"/>
<path d="M260.676 276.769L260.797 275.444L259.592 275.577L264.326 270.386V271.951L265.53 271.879C265.53 271.951 265.639 272.024 265.627 272.084C265.487 272.724 265.568 273.393 265.857 273.981C266.145 274.569 266.625 275.043 267.216 275.324C268.23 275.901 269.28 276.412 270.36 276.854C271.163 277.122 271.85 277.657 272.308 278.37C272.766 279.082 272.968 279.929 272.879 280.771C272.791 281.613 272.418 282.4 271.822 283.002C271.226 283.603 270.442 283.984 269.601 284.08C268.74 284.102 267.895 283.844 267.193 283.344C266.492 282.845 265.972 282.131 265.711 281.31C265.326 280.345 264.883 279.404 264.386 278.492C264.075 277.809 263.53 277.26 262.849 276.945C262.169 276.629 261.398 276.567 260.676 276.769Z" fill="white"/>
<path d="M259.217 214.236L260.723 214.417V213.128C262.686 213.514 263.77 212.369 264.589 210.852C265.203 209.72 265.625 208.443 266.311 207.383C266.678 206.713 267.269 206.193 267.98 205.914C268.69 205.634 269.477 205.613 270.202 205.854C270.965 206.088 271.64 206.548 272.137 207.174C272.634 207.8 272.929 208.561 272.984 209.358C272.94 210.17 272.651 210.948 272.157 211.593C271.663 212.238 270.986 212.718 270.214 212.972C269.443 213.309 268.66 213.598 267.925 213.983C266.347 214.802 265.167 215.911 265.516 217.934L264.228 217.826L264.36 219.03L259.542 213.839L259.217 214.236Z" fill="white"/>
<path d="M206.755 213.126L206.659 214.331L208.189 214.174L207.972 213.969L203.082 219.377L203.178 217.872H201.901C202.287 215.969 201.203 214.873 199.733 214.066C198.529 213.427 197.325 212.994 196.12 212.283C195.467 211.93 194.956 211.361 194.673 210.675C194.39 209.988 194.352 209.225 194.566 208.513C194.778 207.743 195.218 207.056 195.829 206.542C196.44 206.028 197.192 205.711 197.987 205.635C199.541 205.49 200.998 206.61 201.817 208.513C202.22 209.518 202.695 210.492 203.238 211.428C203.547 212.066 204.063 212.581 204.701 212.89C205.34 213.198 206.063 213.281 206.755 213.126V213.126Z" fill="white"/>
<path d="M275.213 248.502C274.864 247.622 274.479 247.08 273.696 248.14V241.913L274.539 242.443L275.274 241.516C276.297 243.07 277.767 243.178 279.369 242.72C280.441 242.407 281.476 241.95 282.536 241.6C283.253 241.297 284.046 241.225 284.806 241.393C285.566 241.561 286.254 241.962 286.776 242.54C287.27 243.146 287.566 243.889 287.624 244.669C287.682 245.448 287.5 246.227 287.101 246.9C286.234 248.502 284.247 249.007 282.139 248.201C281.094 247.781 280.029 247.416 278.947 247.104C278.26 246.863 277.509 246.87 276.827 247.125C276.144 247.381 275.573 247.868 275.213 248.502V248.502Z" fill="white"/>
<path d="M192.212 241.407C192.622 242.202 192.935 242.96 193.742 241.708V247.959L192.899 247.441L192.164 248.38C191.766 247.754 191.16 247.29 190.452 247.069C189.744 246.849 188.98 246.886 188.298 247.176C187.178 247.489 186.106 247.935 184.998 248.308C184.284 248.612 183.496 248.696 182.735 248.55C181.973 248.404 181.272 248.035 180.722 247.489C180.232 246.886 179.93 246.152 179.855 245.379C179.78 244.605 179.935 243.827 180.3 243.141C181.167 241.443 183.143 240.913 185.323 241.756C186.327 242.163 187.352 242.517 188.394 242.816C189.094 243.072 189.862 243.071 190.562 242.813C191.261 242.554 191.846 242.056 192.212 241.407V241.407Z" fill="white"/>
<path d="M222.702 242.382C223.189 242.082 223.583 241.653 223.841 241.143C224.098 240.632 224.208 240.061 224.159 239.491C224.159 239.214 223.882 238.768 223.665 238.72C222.941 238.577 222.258 238.273 221.666 237.831C221.074 237.389 220.588 236.821 220.245 236.167C219.787 235.324 219.293 234.493 218.872 233.637C217.86 231.566 217.872 231.566 215.56 232.12V229.795H212.874C213.018 229.314 213.03 228.82 213.271 228.591C214.68 227.158 216.138 225.785 217.595 224.424C217.8 224.231 218.197 224.255 218.498 224.171C218.555 224.477 218.587 224.787 218.595 225.098C218.595 225.616 218.595 226.134 218.535 226.724H220.943C220.462 229.049 220.474 229.024 222.594 230.084C223.631 230.525 224.61 231.091 225.508 231.771C226.306 232.562 227.009 233.443 227.604 234.396C227.785 234.649 227.821 235.288 227.917 235.288C228.607 235.35 229.302 235.259 229.953 235.023C231.157 234.42 231.422 233.818 230.711 232.505C230.437 231.969 230.277 231.382 230.239 230.781C230.202 230.18 230.289 229.578 230.495 229.012C230.741 227.91 231.067 226.827 231.47 225.773C231.964 224.568 231.735 223.761 230.446 223.364C230.238 223.255 230.04 223.126 229.856 222.978L231.735 221.232L229.531 219.461C232.307 218.862 235.175 218.833 237.962 219.377L235.927 221.292L237.745 223.002L236.685 223.58C236.513 223.632 236.355 223.721 236.221 223.842C236.088 223.963 235.984 224.112 235.916 224.278C235.847 224.444 235.817 224.624 235.828 224.803C235.838 224.982 235.888 225.157 235.975 225.315C236.372 226.411 236.637 227.567 237.023 228.663C237.473 230.118 237.405 231.685 236.83 233.095C236.722 233.445 236.396 233.987 236.505 234.083C236.957 234.614 237.532 235.027 238.179 235.288C239.516 235.661 239.877 235.54 240.347 234.083C240.78 232.912 241.64 231.947 242.756 231.385C243.466 230.952 244.213 230.554 244.96 230.181C247.092 229.121 247.104 229.133 246.61 226.82H248.898C248.898 226.266 248.898 225.676 248.898 225.086C248.921 224.815 248.961 224.545 249.019 224.279C249.284 224.279 249.645 224.279 249.814 224.448C251.363 225.893 252.889 227.366 254.39 228.868C254.583 229.073 254.523 229.518 254.595 229.928L251.97 229.795L252.102 232.036C251.861 232.132 251.777 232.216 251.717 232.192C249.669 231.662 249.681 231.674 248.718 233.625C248.317 234.588 247.799 235.499 247.176 236.335C246.321 237.245 245.381 238.072 244.37 238.804C244.093 239.033 243.37 239.094 243.382 239.202C243.39 239.928 243.517 240.648 243.755 241.334C244.249 242.538 245.285 242.538 246.164 241.948C246.675 241.67 247.239 241.505 247.818 241.464C248.398 241.422 248.98 241.505 249.525 241.707C250.548 241.948 251.548 242.249 252.536 242.574C254.547 243.201 254.547 243.213 256.004 240.852L257.209 243.02L258.943 241.141C259.895 241.141 259.847 241.876 259.871 242.55C260.112 247.874 260.039 248.416 258.979 248.934L257.305 247.175L255.655 248.97C255.487 248.718 255.334 248.457 255.197 248.187C255.142 247.963 255.034 247.756 254.882 247.582C254.731 247.409 254.54 247.273 254.326 247.187C254.112 247.102 253.881 247.068 253.651 247.089C253.422 247.11 253.2 247.185 253.005 247.308C252.078 247.681 251.09 247.922 250.139 248.223C249.255 248.564 248.299 248.676 247.36 248.55C246.422 248.423 245.53 248.063 244.767 247.5C244.55 247.765 244.37 247.994 244.177 248.199C242.768 249.729 242.852 250.993 244.671 251.62C245.807 252.04 246.739 252.881 247.272 253.968C247.778 254.775 248.224 255.63 248.657 256.498C249.609 258.437 249.597 258.449 251.837 257.81V260.219C252.475 260.219 253.042 260.111 253.656 260.111C253.909 260.111 254.294 260.111 254.39 260.328C254.445 260.454 254.467 260.591 254.454 260.728C254.442 260.865 254.395 260.997 254.318 261.11C252.789 262.64 251.247 264.17 249.633 265.615C249.127 266.073 248.694 265.844 248.766 265.073C248.838 264.302 248.862 263.869 248.922 263.206H246.417C246.55 262.785 246.61 262.508 246.718 262.255C246.812 262.078 246.866 261.883 246.875 261.683C246.884 261.484 246.849 261.284 246.772 261.1C246.695 260.915 246.577 260.75 246.428 260.617C246.28 260.483 246.103 260.384 245.911 260.328C244.635 259.701 243.394 259.015 242.153 258.328C241.566 257.996 241.061 257.537 240.673 256.985C240.286 256.433 240.026 255.802 239.913 255.137C239.769 254.486 238.215 254.342 237.396 254.932C236.974 255.245 236.601 255.63 236.095 256.076C237.733 258.087 237.3 260.255 236.553 262.447C236.432 262.797 236.324 263.158 236.216 263.519C235.529 265.699 235.529 265.699 237.577 266.964L235.806 268.638L237.781 270.505C235.056 271.071 232.244 271.071 229.519 270.505L231.518 268.602L229.7 266.856C230.169 266.615 230.41 266.47 230.663 266.362C230.857 266.31 231.035 266.214 231.185 266.081C231.335 265.949 231.453 265.783 231.529 265.598C231.604 265.413 231.636 265.212 231.622 265.013C231.608 264.813 231.548 264.619 231.446 264.447C231.085 263.507 230.844 262.532 230.531 261.58C230.165 260.67 230.034 259.682 230.15 258.707C230.265 257.733 230.624 256.803 231.193 256.004C230.839 255.6 230.434 255.243 229.989 254.944C229.461 254.759 228.916 254.626 228.363 254.546C227.375 254.293 227.628 255.04 227.447 255.558C226.908 256.944 225.855 258.07 224.509 258.702C223.738 259.111 222.967 259.545 222.184 259.906C220.293 260.846 220.281 260.845 220.98 263.05H218.571C218.571 263.712 218.571 264.338 218.691 264.965C218.812 265.591 218.342 265.964 217.848 265.519C216.234 264.073 214.68 262.556 213.151 261.014C212.97 260.821 213.042 260.376 212.994 260.039H215.475L215.379 257.834C215.644 257.762 215.728 257.702 215.801 257.726C217.776 258.292 217.752 258.28 218.655 256.522C219.163 255.376 219.789 254.286 220.522 253.27C221.305 252.457 222.182 251.742 223.136 251.138C223.425 250.933 224.099 250.825 224.099 250.716C224.064 249.993 223.922 249.278 223.678 248.596C223.509 248.163 223.051 247.85 222.63 247.392C220.124 249.403 217.547 248.247 214.994 247.392C212.898 246.73 212.898 246.718 211.657 249.03L209.983 246.983L208.128 248.922C207.864 248.511 207.668 248.059 207.55 247.585C207.177 243.357 207.406 241.563 208.369 240.96L210.043 242.779L211.754 240.936C211.995 241.382 212.151 241.623 212.26 241.876C212.313 242.068 212.409 242.246 212.541 242.397C212.673 242.547 212.838 242.665 213.022 242.743C213.206 242.82 213.405 242.855 213.605 242.845C213.805 242.834 213.999 242.779 214.175 242.683C215.102 242.321 216.078 242.056 217.041 241.779C220.185 240.876 220.618 241.526 222.702 242.382ZM233.662 236.841C231.555 236.891 229.55 237.759 228.071 239.26C226.592 240.762 225.755 242.779 225.737 244.887C225.728 245.942 225.927 246.989 226.324 247.967C226.721 248.945 227.307 249.834 228.05 250.584C228.792 251.334 229.675 251.93 230.649 252.337C231.623 252.745 232.667 252.955 233.722 252.957C235.831 252.958 237.857 252.142 239.376 250.679C240.894 249.217 241.786 247.222 241.864 245.116C241.825 242.94 240.945 240.864 239.409 239.322C237.874 237.779 235.802 236.891 233.626 236.841H233.662Z" fill="white"/>
<path d="M233.806 239.433C235.236 239.513 236.579 240.141 237.558 241.187C238.536 242.233 239.073 243.616 239.058 245.049C239.042 246.481 238.475 247.852 237.474 248.876C236.474 249.901 235.116 250.5 233.685 250.549C232.934 250.575 232.185 250.449 231.484 250.177C230.782 249.905 230.144 249.494 229.606 248.969C229.068 248.444 228.642 247.815 228.354 247.12C228.066 246.426 227.921 245.68 227.93 244.928C227.938 244.176 228.098 243.434 228.401 242.746C228.704 242.057 229.144 241.438 229.693 240.924C230.242 240.411 230.89 240.014 231.596 239.757C232.303 239.501 233.055 239.39 233.806 239.433V239.433ZM236.817 245.009C236.821 244.397 236.645 243.797 236.308 243.285C235.972 242.774 235.492 242.373 234.928 242.135C234.364 241.896 233.742 241.83 233.141 241.945C232.54 242.059 231.986 242.35 231.55 242.779C231.113 243.209 230.814 243.758 230.69 244.358C230.566 244.957 230.623 245.58 230.852 246.147C231.082 246.715 231.475 247.201 231.982 247.545C232.488 247.889 233.085 248.076 233.697 248.08C234.112 248.096 234.525 248.025 234.912 247.873C235.298 247.721 235.648 247.49 235.941 247.196C236.234 246.902 236.463 246.551 236.614 246.164C236.765 245.777 236.834 245.364 236.817 244.949V245.009Z" fill="white"/>
<path d="M259.266 129.178C259.266 122.373 259.266 115.568 259.266 108.763C259.359 107.283 259.117 105.8 258.558 104.426C258 103.052 257.138 101.821 256.038 100.826C253.134 98.2972 249.94 96.122 246.523 94.3464C236.743 89.6732 226.192 87.6136 215.557 85.9153C200.719 83.5794 185.735 82.3035 170.716 82.0973C161.514 81.9407 152.3 82.3864 143.098 82.7959C135.041 83.1451 127.019 83.7835 119.01 84.8313C120.419 87.5636 121.545 90.4331 122.37 93.3948C134.459 91.4695 146.683 90.507 158.924 90.5163C177.557 90.5163 191.324 91.1425 204.958 93.3467C215.195 94.9967 225.349 97.0925 234.816 101.573C236.638 102.426 238.359 103.481 239.946 104.716C242.789 106.945 242.897 109.329 239.826 111.269C236.275 113.582 232.473 115.485 228.492 116.941C216.002 121.301 203.007 123.192 189.866 124.397C176.65 125.541 163.372 125.807 150.12 125.192C150.12 125.36 150.12 125.517 150.12 125.674C150.16 129.547 149.428 133.389 147.966 136.976C146.504 140.563 144.342 143.823 141.606 146.565C138.87 149.307 135.614 151.475 132.03 152.945C128.446 154.414 124.605 155.154 120.732 155.122H83.0815C83.9246 155.555 84.7798 155.977 85.647 156.326C91.8075 159.114 98.2474 161.238 104.858 162.662C120.407 166.154 136.679 167.612 152.589 168.214C156.202 168.359 159.816 168.435 163.429 168.443C176.207 168.472 188.975 167.704 201.658 166.142C216.882 164.263 232.696 161.541 246.402 154.291C250.305 152.219 254.074 149.642 256.519 145.968C260.036 140.813 259.253 135.056 259.266 129.178Z" fill="white"/>
<path d="M201.61 114.675C207.873 112.772 211.041 110.568 211.077 108.147C211.077 106.81 205.693 106.003 201.165 106.678C194.239 107.702 187.434 108.774 180.822 109.894C176.402 110.652 177.088 111.977 181.858 112.616L187.88 113.386C187.121 113.603 186.676 113.772 186.122 113.892C175.53 115.802 164.728 116.268 154.011 115.277C151.843 115.097 149.844 114.856 147.989 114.591C148.497 115.801 148.919 117.044 149.254 118.313C167.296 119.878 188.518 118.674 201.61 114.675Z" fill="white"/>
<path d="M147.554 103.332L141.219 102.513C142.7 102.309 143.387 102.248 143.917 102.14C158.574 99.2132 179.495 99.7311 191.227 103.441C194.533 104.409 198.014 104.627 201.416 104.079C204.788 103.513 205.138 102.465 202.127 101.514C193.912 98.9282 183 97.4628 169.39 97.1175C157.743 96.7073 146.087 97.5797 134.63 99.7191C137.975 101.586 140.94 104.061 143.375 107.018C145.025 106.753 146.699 106.5 148.337 106.223C153.672 105.392 153.251 104.043 147.554 103.332Z" fill="white"/>
<path d="M122.625 106.786C119.71 93.116 107.22 82.6977 91.8272 82.6977C86.2139 82.6007 80.6822 84.0508 75.8383 86.8891C70.9945 89.7274 67.0255 93.8444 64.3662 98.7889C51.4668 100.403 41.8916 110.46 41.8916 122.877C41.8916 136.126 53.1289 146.966 66.8594 146.966H120.95C132.609 146.966 141.763 138.113 141.763 126.84C141.763 116.446 133.019 107.593 122.625 106.786ZM100.15 118.831V134.934H83.5046V118.855H71.0147L91.8272 98.7407L112.628 118.855L100.15 118.831Z" fill="white"/>
<path d="M55.3437 446.853H16.4535V475.989H61.9121V489.125H0V394.436H61.4568V407.703H16.4535V433.847H55.3437V446.853Z" fill="#FC6011"/>
<path d="M158.37 418.759L158.825 426.888C164.028 420.602 170.857 417.458 179.311 417.458C193.965 417.458 201.422 425.848 201.683 442.626V489.125H185.879V443.537C185.879 439.071 184.904 435.776 182.953 433.652C181.045 431.484 177.902 430.4 173.523 430.4C167.15 430.4 162.402 433.283 159.281 439.049V489.125H143.477V418.759H158.37Z" fill="#FC6011"/>
<path d="M307.57 401.655V418.759H319.992V430.465H307.57V469.745C307.57 472.433 308.091 474.384 309.131 475.598C310.215 476.769 312.123 477.354 314.854 477.354C316.675 477.354 318.518 477.138 320.382 476.704V488.93C316.783 489.927 313.315 490.426 309.977 490.426C297.837 490.426 291.767 483.728 291.767 470.331V430.465H280.191V418.759H291.767V401.655H307.57Z" fill="#FC6011"/>
<path d="M433.033 490.426C423.018 490.426 414.889 487.283 408.646 480.996C402.446 474.666 399.346 466.255 399.346 455.763V453.812C399.346 446.788 400.69 440.524 403.378 435.017C406.109 429.468 409.925 425.154 414.824 422.076C419.723 418.997 425.186 417.458 431.212 417.458C440.794 417.458 448.186 420.515 453.389 426.628C458.635 432.741 461.258 441.391 461.258 452.576V458.95H415.279C415.756 464.759 417.685 469.355 421.067 472.737C424.492 476.119 428.785 477.81 433.944 477.81C441.184 477.81 447.081 474.883 451.633 469.03L460.152 477.159C457.334 481.365 453.562 484.638 448.837 486.979C444.154 489.277 438.886 490.426 433.033 490.426ZM431.147 430.14C426.812 430.14 423.3 431.657 420.612 434.692C417.967 437.727 416.276 441.954 415.539 447.374H445.65V446.203C445.303 440.914 443.894 436.925 441.423 434.237C438.951 431.506 435.526 430.14 431.147 430.14Z" fill="#FC6011"/>
<path d="M580.348 433.196C578.267 432.85 576.121 432.676 573.909 432.676C566.669 432.676 561.791 435.451 559.277 441V489.125H543.474V418.759H558.561L558.952 426.628C562.767 420.515 568.056 417.458 574.82 417.458C577.074 417.458 578.939 417.762 580.413 418.369L580.348 433.196Z" fill="#FC6011"/>
<path d="M721.874 454.658C721.874 465.54 719.403 474.233 714.46 480.736C709.518 487.196 702.884 490.426 694.56 490.426C686.843 490.426 680.664 487.89 676.025 482.817V516.179H660.222V418.759H674.79L675.44 425.913C680.079 420.276 686.387 417.458 694.365 417.458C702.949 417.458 709.669 420.667 714.525 427.083C719.424 433.457 721.874 442.323 721.874 453.682V454.658ZM706.136 453.292C706.136 446.268 704.727 440.697 701.909 436.578C699.134 432.459 695.145 430.4 689.943 430.4C683.483 430.4 678.843 433.066 676.025 438.399V469.615C678.887 475.078 683.569 477.81 690.073 477.81C695.102 477.81 699.026 475.793 701.844 471.761C704.705 467.686 706.136 461.529 706.136 453.292Z" fill="#FC6011"/>
<path d="M842.069 433.196C839.988 432.85 837.842 432.676 835.631 432.676C828.391 432.676 823.513 435.451 820.998 441V489.125H805.195V418.759H820.283L820.673 426.628C824.489 420.515 829.778 417.458 836.542 417.458C838.796 417.458 840.66 417.762 842.134 418.369L842.069 433.196Z" fill="#FC6011"/>
<path d="M938.787 489.125H922.984V418.759H938.787V489.125ZM922.009 400.484C922.009 398.056 922.767 396.04 924.285 394.436C925.846 392.832 928.057 392.03 930.918 392.03C933.78 392.03 935.991 392.832 937.552 394.436C939.113 396.04 939.893 398.056 939.893 400.484C939.893 402.869 939.113 404.863 937.552 406.468C935.991 408.028 933.78 408.809 930.918 408.809C928.057 408.809 925.846 408.028 924.285 406.468C922.767 404.863 922.009 402.869 922.009 400.484Z" fill="#FC6011"/>
<path d="M1065.42 470.005C1065.42 467.187 1064.25 465.041 1061.91 463.567C1059.61 462.093 1055.77 460.792 1050.4 459.665C1045.02 458.538 1040.53 457.107 1036.94 455.373C1029.05 451.558 1025.1 446.03 1025.1 438.789C1025.1 432.719 1027.66 427.647 1032.77 423.571C1037.89 419.496 1044.39 417.458 1052.28 417.458C1060.7 417.458 1067.48 419.539 1072.64 423.701C1077.84 427.864 1080.44 433.261 1080.44 439.895H1064.64C1064.64 436.86 1063.51 434.345 1061.26 432.351C1059 430.313 1056.01 429.294 1052.28 429.294C1048.82 429.294 1045.98 430.096 1043.76 431.701C1041.6 433.305 1040.51 435.451 1040.51 438.139C1040.51 440.567 1041.53 442.453 1043.57 443.797C1045.61 445.141 1049.73 446.507 1055.93 447.894C1062.13 449.238 1066.98 450.864 1070.49 452.772C1074.05 454.636 1076.67 456.89 1078.36 459.535C1080.1 462.18 1080.96 465.388 1080.96 469.16C1080.96 475.49 1078.34 480.628 1073.1 484.573C1067.85 488.475 1060.98 490.426 1052.48 490.426C1046.71 490.426 1041.58 489.386 1037.07 487.304C1032.56 485.223 1029.05 482.362 1026.53 478.72C1024.02 475.078 1022.76 471.154 1022.76 466.949H1038.11C1038.32 470.677 1039.73 473.561 1042.33 475.598C1044.94 477.593 1048.38 478.59 1052.67 478.59C1056.84 478.59 1060 477.81 1062.17 476.249C1064.34 474.645 1065.42 472.563 1065.42 470.005Z" fill="#FC6011"/>
<path d="M1195.7 490.426C1185.68 490.426 1177.55 487.283 1171.31 480.996C1165.11 474.666 1162.01 466.255 1162.01 455.763V453.812C1162.01 446.788 1163.35 440.524 1166.04 435.017C1168.77 429.468 1172.59 425.154 1177.49 422.076C1182.39 418.997 1187.85 417.458 1193.88 417.458C1203.46 417.458 1210.85 420.515 1216.05 426.628C1221.3 432.741 1223.92 441.391 1223.92 452.576V458.95H1177.94C1178.42 464.759 1180.35 469.355 1183.73 472.737C1187.16 476.119 1191.45 477.81 1196.61 477.81C1203.85 477.81 1209.74 474.883 1214.3 469.03L1222.82 477.159C1220 481.365 1216.23 484.638 1211.5 486.979C1206.82 489.277 1201.55 490.426 1195.7 490.426ZM1193.81 430.14C1189.48 430.14 1185.96 431.657 1183.28 434.692C1180.63 437.727 1178.94 441.954 1178.2 447.374H1208.31V446.203C1207.97 440.914 1206.56 436.925 1204.09 434.237C1201.61 431.506 1198.19 430.14 1193.81 430.14Z" fill="#FC6011"/>
</g>
<defs>
<clipPath id="clip0">
<rect width="1224.35" height="512" fill="white"/>
</clipPath>
</defs>
</svg>
