<svg xmlns="http://www.w3.org/2000/svg" width="142" height="46" fill="none" xmlns:v="https://vecta.io/nano"><g clip-path="url(#A)"><g fill="#326ce5"><path d="M16.988 24.536c.645-1.284.923-2.129 1.625-4.938l1.112-4.162c.033-.039.04.028.015.15-.036.177-.021.224.066.224.299 0 1.823-.729 3.143-1.504 2.783-1.637 4.142-2.758 4.69-3.871.248-.506.271-.599.271-1.122 0-.635-.088-.825-.518-1.119-.364-.247-.738-.323-1.591-.319-.898 0-1.633.16-2.623.56-2.114.853-4.34 2.736-5.904 4.985-.504.727-.736 1.142-1.69 3.015l-1.761 3.238c-1.736 2.843-3.406 4.358-5.595 5.096-1.205.406-2.219.272-2.544-.334-.358-.669.566-1.929 2.219-3.029 1.094-.727 3.608-2.12 3.686-2.043s-.165.512-.427.757c-.377.285-.777.538-1.197.756-1.552.838-2.493 1.576-2.968 2.324-.271.43-.299.871-.06 1.037.323.227 1.333.072 2.062-.316.497-.265 1.473-1.055 2.144-1.734 1.084-1.097 1.914-2.394 3.122-4.85 1.817-3.705 2.156-4.317 3.074-5.552 1.785-2.394 4.727-4.287 7.632-4.897.753-.134 1.521-.162 2.282-.082.609.121 1.17.328 1.577.681l-.212-.928c-.096-.501-.36-.954-.748-1.285a9.31 9.31 0 0 0-3.183.22c-1.833.476-3.557 1.299-5.079 2.426a16.16 16.16 0 0 0-3.838 4.097c-.697 1.113-1.146 2.086-2.008 4.349-.599 1.549-1.487 3.404-2.077 4.302-.925 1.405-3.003 3.134-3.608 3-.269-.06-.081-.462.449-.97.329-.311 1.826-1.347 2.095-1.455.069-.027.082 0 .046.093s-.034.118.07.033c.18-.15.69-.95 1.004-1.582.564-1.131.666-1.414 1.809-5.019.905-2.852 1.571-4.178 2.894-5.767 1.73-2.062 3.977-3.627 6.511-4.534l1.936-.56.183-.036-2.683-1.276a18.91 18.91 0 0 0-4.15 2.266c-1.932 1.435-3.419 3.292-4.247 5.293-.599 1.446-.983 2.858-1.585 5.76l-.697 2.891c.027-.299.024-.299-.157-.255-.449.111-2.222.991-3.331 1.654-2.519 1.51-4 3.065-4 4.198l.012.136 1.031 1.281a1.85 1.85 0 0 0 .207.06c.56.121 1.775.039 2.574-.174 1.808-.48 3.967-2.035 5.408-3.891.829-1.07 1.366-1.929 2.339-3.741l2.17-3.834 1.019-1.398c1.851-2.233 4.545-3.927 6.221-3.906.816.009 1.146.256 1.146.857 0 .772-.682 1.663-1.972 2.571-1.459 1.028-4.06 2.544-4.373 2.544-.112 0-.109-.1.011-.332.16-.308.368-.458 1.562-1.127 1.461-.817 2.197-1.326 2.801-1.933.536-.539.796-.959.795-1.284 0-.274-.06-.362-.299-.449-.438-.166-1.137-.019-2.086.438-1.172.566-2.394 1.663-3.481 3.113-.98 1.314-1.239 1.787-3.15 5.766L15.18 21c-2.095 3.473-6.016 5.845-9.051 5.901l.919 1.142c.469-.058.933-.147 1.39-.268 2.643-.703 5.368-2.677 6.884-4.985.81-1.235 1.496-2.644 2.905-5.962 1.152-2.715 2.264-4.313 3.873-5.562.778-.599 1.622-.923 1.68-.634s-1.612 1.716-2.555 2.195c-.292.15-.334.096-.15-.197.238-.386-.611.512-.952 1.007-.714 1.034-.961 1.667-2.278 5.848-.615 1.945-1.098 3.015-1.934 4.265-1.893 2.828-4.853 4.805-7.948 5.419l.007.009a2.1 2.1 0 0 0 .766.616c.301.142.631.21.963.199h1.377c2.385-1.116 4.261-2.514 5.91-5.456zm5.663-7.654l-1.067.419-1.538.563-.398.123v.283c-.006.124.012.248.054.365.099.157 3.891-1.197 6.203-2.213a28.97 28.97 0 0 0 4.439-2.363l-.299-1.305-.682.599c-1.503 1.175-3.886 2.43-6.71 3.53zm-12.385-3.923c.078-.072-.223-.649-.917-1.764C7.34 7.97 6.529 6.146 6.122 3.919l-1.748.838c.668 1.303 1.444 2.548 2.321 3.72l1.845 2.284c.081.066.109.12.064.121-.111 0-1.485-1.263-2.718-2.499-.933-.926-1.801-1.914-2.599-2.959a1.98 1.98 0 0 0-.528.949l-.039.163 1.402 1.293L5.99 9.26l1.314 1.019c.211.22-3.153-1.812-4.668-2.821l-.112-.073-.198.848 1.622.799 1.615.768 1.154.528a.13.13 0 0 1 .097.061c.079.129-2.363-.72-4.317-1.497l-.299-.117-.174.748 1.505.421 4.406 1.266a5.92 5.92 0 0 1-.748-.112l-1.862-.347-1.347-.245-1.728-.347-.355-.075-.193.834 1.55.177 5.459.748c.022.022-.1.022-.272 0-.712-.096-4.057-.233-6.884-.268l-.227.985.822-.035 1.728-.063 1.833-.076 1.417-.067 1.796-.076c.681-.036.736-.03.862.109.189.21.087.25-.748.307l-7.912.748-.268 1.161L8.3 13.32l1.965-.361zm.766 5.171a3.9 3.9 0 0 0 .712-.275c.049-.043.136-.358.19-.697.094-.582.117-.959.204-3.511.16-4.674 1.981-8.289 5.465-10.845.724-.533.798-.578 1.971-1.23.096-.054.207-.111.319-.169L16.945 0c-2.742 2.041-4.587 4.626-5.286 7.463-.316 1.281-.352 1.639-.35 3.49 0 1.426.031 1.978.15 2.843.26 1.877.259 1.838.073 1.848-.299.017-3.484 1.29-5.022 2.011-.358.168-.661.299-.676.299-.073 0-2.625 1.308-3.337 1.71a24.88 24.88 0 0 0-1.474.887l.774.959a8.5 8.5 0 0 1 .347-.307c1.734-1.41 4.838-3.045 8.395-4.425.599-.233 1.107-.416 1.118-.405a2.18 2.18 0 0 1 .043.364l.022.343-.865.322c-2.756 1.028-5.7 2.631-7.72 4.204a7.49 7.49 0 0 0-.735.655l.509.633.326.404a4.84 4.84 0 0 1 .326-.486c.561-.726 1.244-1.274 2.909-2.336 1.405-.89 3.699-2.074 4.56-2.346z"/><path d="M10.294 15.46a6.11 6.11 0 0 0 .955-.307c.106-.078.109-.138.028-.634-.048-.299-.283-1.329-.521-2.282-.66-2.632-.693-2.861-.688-4.684 0-1.336.026-1.664.15-2.269a12.77 12.77 0 0 1 1.713-4.145l-.941.449-2.783 1.33a14.31 14.31 0 0 0-.028 1.646c.018 1.562.267 3.112.738 4.602a24.17 24.17 0 0 0 1.309 3.393 8.25 8.25 0 0 1 .352.805c0 .033-.428.132-.952.216l-3.301.63-1.279.281-4.412 1.018-.319 1.381c2.384-.832 4.712-1.489 8.799-2.505l1.752-.435.13.216c.072.118.106.239.076.269a9.7 9.7 0 0 1-1.157.334l-1.275.341-.898.281-4.287 1.401-3.418 1.381c-.041.22-.048.445-.021.667a2.15 2.15 0 0 0 .232.679 25.85 25.85 0 0 1 3.208-1.595c2.05-.86 5.512-2.104 6.837-2.463zm15.92 4.365a47.96 47.96 0 0 0 5.099-1.347c-.004-.135-.021-.27-.049-.403l-.168-.732-.096.043c-1.333.599-3.283 1.176-8.266 2.451l-2.296.599c-.051.018-.139-.052-.21-.19-.109-.209-.109-.232 0-.31a6.24 6.24 0 0 1 .959-.299c3.826-.998 7.433-2.227 9.685-3.27l-.13-.567-.15-.659-.492.292c-1.963 1.115-5.324 2.414-8.81 3.404-1.393.397-1.435.413-1.435.588 0 .204.239 1.371.585 2.843.436 1.863.477 2.162.482 3.539a10.89 10.89 0 0 1-.418 3.107c-.126.353-.28.715-.449 1.084h1.579a2.21 2.21 0 0 0 .814-.15 15.96 15.96 0 0 0 .012-1.164c.046-.281.011-1.205-.088-1.908a14.73 14.73 0 0 0-.266-1.432 14.43 14.43 0 0 0-.748-2.414 17.89 17.89 0 0 0-.449-1.022 1.44 1.44 0 0 1-.093-.268c0-.051.055.033.118.186s.47.898.905 1.666c.944 1.658 1.703 3.761 2.047 4.621a3.83 3.83 0 0 1 .096.284l1.065-1.323a15.88 15.88 0 0 0-.423-.702c-.29-.438-1.078-1.514-1.751-2.394s-1.211-1.607-1.197-1.621 1.247.045 2.993.166c.832.057 2.502.063 4.012.033l.699-.868c-1.354.129-3.235.212-6.182.278-1.523.034-1.82.024-1.936-.063-.076-.057-.117-.123-.093-.15a6.83 6.83 0 0 1 1.039-.109c2.68-.168 5.732-.479 7.848-.796l.798-.991c.08-.103.151-.213.212-.328l-.377.099a48.89 48.89 0 0 1-6.453 1.185c-1.996.235-3.292.438-3.383.528-.106.026-.036.299-.23-.213 0 0-.136-.299-.019-.265.157.027 3.05-.504 5.612-1.042z"/><path d="M22.022 22.554c-.097 0-.097.018-.085.046 1.119 1.522 2.421 2.701 3.592 3.864l.56-.693-1.115-.871-1.36-1.095a3.82 3.82 0 0 1 .564.319l2.194 1.294.373-.462-2.297-1.065c-.59-.299-.681-.325 1.591.441l.955.316.382-.474-.922-.218c-2.12-.53-4.157-1.167-2.825-.883l4.067.703.377-.468.139-.174-4.489-.415-1.699-.165zm-2.403-4.174l-.011-1.006.629-.208c1.308-.449 4.12-1.751 5.464-2.525a16.09 16.09 0 0 0 3.657-2.77l.392-.4-.433-1.878a6.25 6.25 0 0 1-.277.739c-.64 1.428-2.719 3.051-6.037 4.72l-2.421 1.143-.985.421c-.045.022-.313 2.002-.5 3.71l-.666 4.229c-.245.865-.97 2.273-1.61 3.128a14.09 14.09 0 0 1-1.16 1.318 13.89 13.89 0 0 1-1.218.995H17.6a11.03 11.03 0 0 0 1.44-2.655l.142-.356c.726-1.966.887-3.68.599-6.302l-.162-2.305zm31.978 7.623L44.553 15.82v10.19h-5.031V3.997h5.031v9.56l6.734-9.56h5.724l-7.422 10.724 7.737 11.289-5.729-.008zm21.701-15.721v15.721h-4.717v-1.479c-.849 1.163-2.42 1.918-4.49 1.918-3.177 0-5.881-2.264-5.881-6.51v-9.651h4.717v8.963c0 1.945 1.227 2.861 2.736 2.861 1.73 0 2.924-1.007 2.924-3.238v-8.585h4.711zm20.38 7.858c0 4.686-3.397 8.302-7.515 8.302-2.108 0-3.648-.723-4.685-1.918v1.479H76.76V3.997h4.717v7.768c1.037-1.197 2.577-1.918 4.685-1.918 4.118-.013 7.515 3.608 7.515 8.293zm-4.717 0c0-2.357-1.573-3.835-3.741-3.835s-3.741 1.479-3.741 3.835 1.571 3.837 3.741 3.837 3.741-1.479 3.741-3.837zm15.378 4.089c1.29 0 2.395-.503 3.019-1.197l3.772 2.17c-1.537 2.14-3.865 3.243-6.852 3.243-5.377 0-8.71-3.617-8.71-8.302s3.395-8.308 8.363-8.308c4.592 0 7.988 3.554 7.988 8.301a9.13 9.13 0 0 1-.189 1.887h-11.162c.597 1.642 2.043 2.207 3.771 2.207zm2.893-5.722c-.498-1.824-1.916-2.483-3.331-2.483-1.796 0-2.993.88-3.429 2.484l6.76-.002zm6.577-1.511c0-6.478 4.811-11.447 11.446-11.447 3.993 0 7.516 1.981 9.428 5.088l-4.34 2.516c-.974-1.699-2.861-2.704-5.088-2.704-3.899 0-6.415 2.61-6.415 6.541s2.516 6.54 6.415 6.54c2.232 0 4.152-1.004 5.088-2.703l4.34 2.514c-1.885 3.114-5.408 5.095-9.428 5.095-6.635.008-11.446-4.964-11.446-11.441zm28.273-10.999V26.01h-5.033V3.997h5.033z"/></g><g fill="#00a651"><path d="M6.745 40.336c-.085.966-.42 1.72-1.003 2.263s-1.358.808-2.326.808c-.676 0-1.273-.17-1.79-.51s-.909-.831-1.189-1.461S.012 40.075 0 39.242v-.846c0-.854.142-1.606.426-2.257s.69-1.152 1.218-1.505 1.146-.529 1.842-.529c.937 0 1.691.272 2.262.815s.904 1.31.997 2.3H5.276c-.07-.651-.249-1.119-.536-1.405s-.701-.435-1.253-.435c-.641 0-1.135.251-1.481.752s-.517 1.229-.525 2.195v.802c0 .978.163 1.724.49 2.238a1.61 1.61 0 0 0 1.446.771c.579 0 1.014-.139 1.306-.417s.476-.74.554-1.386h1.469zm11.069-.479c0-.659.122-1.252.367-1.778s.589-.937 1.032-1.219.952-.429 1.527-.429c.851 0 1.541.292 2.069.877s.82 1.36.863 2.325l.006.354c0 .663-.12 1.256-.361 1.778s-.579.926-1.026 1.212-.956.429-1.539.429c-.89 0-1.603-.315-2.139-.945s-.799-1.478-.799-2.531v-.075zm1.417.131c0 .692.134 1.235.402 1.629a1.28 1.28 0 0 0 1.119.584 1.26 1.26 0 0 0 1.114-.597c.268-.398.402-.98.402-1.747 0-.68-.138-1.219-.414-1.617a1.28 1.28 0 0 0-1.113-.597c-.463 0-.83.197-1.102.591s-.408.974-.408 1.753zm17.126-3.433l.041.703c.443-.551 1.049-.827 1.819-.827.843 0 1.42.344 1.731 1.032.459-.688 1.104-1.032 1.935-1.032.696 0 1.213.205 1.551.615s.517 1.016.525 1.816v4.421h-1.417v-4.377c0-.427-.087-.74-.262-.939s-.464-.298-.869-.298c-.322 0-.587.093-.793.28s-.344.423-.426.721l.006 4.613h-1.417v-4.427c-.02-.792-.398-1.188-1.137-1.188-.567 0-.97.247-1.207.74v4.875H35.02v-6.727h1.335zm20.537 0l.041.703c.443-.551 1.049-.827 1.819-.827.843 0 1.42.344 1.731 1.032.459-.688 1.104-1.032 1.936-1.032.696 0 1.212.205 1.551.615s.517 1.016.525 1.816v4.421H63.08v-4.377c0-.427-.087-.74-.262-.939s-.464-.298-.869-.298c-.323 0-.587.093-.793.28s-.344.423-.425.721l.006 4.613H59.32v-4.427c-.019-.792-.398-1.188-1.137-1.188-.567 0-.97.247-1.207.74v4.875h-1.417v-6.727h1.335zm23.025 6.069c-.416.522-1.007.783-1.772.783-.684 0-1.203-.213-1.556-.64s-.525-1.045-.525-1.853v-4.359h1.417v4.34c0 .854.332 1.281.997 1.281.688 0 1.152-.263 1.393-.79v-4.831h1.417v6.727h-1.335l-.035-.659zm14.276-6.069l.041.777a2.21 2.21 0 0 1 1.836-.901c1.314 0 1.982.802 2.005 2.406v4.446H96.66v-4.358c0-.427-.087-.742-.262-.945s-.453-.311-.845-.311c-.571 0-.997.276-1.277.827v4.788H92.86v-6.727h1.335zm16.986 6.728h-1.416v-6.727h1.416v6.727zm-1.504-8.475c0-.232.068-.425.204-.578s.338-.23.595-.23.454.077.594.23.21.346.21.578-.07.419-.21.572-.338.224-.594.224-.455-.075-.595-.224a.83.83 0 0 1-.204-.572zm14.975.112v1.635h1.114v1.119h-1.114v3.756c0 .257.047.444.14.559s.268.168.513.168a2.08 2.08 0 0 0 .496-.062v1.169a3.29 3.29 0 0 1-.933.143c-1.088 0-1.632-.64-1.632-1.921v-3.811h-1.038v-1.119h1.038V34.92h1.416zm14.556 6.199l1.282-4.564H142l-2.507 7.747c-.384 1.132-1.037 1.697-1.958 1.697a2.4 2.4 0 0 1-.683-.112v-1.169l.269.019c.357 0 .625-.07.804-.211s.327-.369.431-.696l.205-.578-2.216-6.696h1.528l1.335 4.564z"/></g></g><defs><clipPath id="A"><path fill="#fff" d="M0 0h142v46H0z"/></clipPath></defs></svg>