<svg xmlns="http://www.w3.org/2000/svg" viewBox="0 0 511 511" fill="#326ce5" xmlns:v="https://vecta.io/nano"><path d="M277.21 411.45c10.52-21 15.06-34.76 26.52-80.69 11.27-45.2 17-66.66 18.13-67.92.56-.63.67.46.26 2.54-.58 2.88-.35 3.65 1.06 3.65 4.91 0 29.75-11.89 51.28-24.55 45.44-26.71 67.6-45 76.54-63.16 4.07-8.27 4.43-9.77 4.43-18.32 0-10.37-1.44-13.48-8.46-18.27-5.92-4-12.05-5.28-26-5.22-14.66.07-26.63 2.62-42.8 9.14-34.52 13.91-70.92 44.64-96.36 81.35-8.23 11.89-12 18.64-27.57 49.22-15.86 31.18-18.92 36.8-28.75 52.86-28.34 46.3-55.58 71.1-91.32 83.15-19.67 6.63-36.22 4.46-41.5-5.43-5.83-10.93 9.23-31.48 36.22-49.44 17.86-11.88 58.89-34.61 60.16-33.33s-2.69 8.34-7 12.35c-2.4 2.26-11.22 7.8-19.6 12.33-25.34 13.68-40.7 25.72-48.43 37.94-4.42 7-4.84 14.21-1 16.92 5.28 3.71 21.78 1.17 33.67-5.17 8.1-4.31 24-17.2 35-28.29 17.67-17.91 31.24-39 50.95-79.17 29.66-60.48 35.18-70.45 50.17-90.6 29.13-39.17 77.15-70 124.59-79.91 10.1-2.12 28.67-2.79 37.25-1.35 9.94 2 19.1 5.34 25.74 11.12l-3.48-15.16c-2-8.79-6-15.76-12.31-21-16-1.57-34.52-.9-51.79 3.58A240.55 240.55 0 0 0 320 140.26c-23.34 17.07-47.83 43.21-62.66 66.87-11.38 18.17-18.71 34-32.78 71-9.64 25.29-24.27 55.57-33.91 70.22-15.09 22.93-49 51.14-58.88 49-4.39-1-1.31-7.55 7.4-15.82 5.37-5.09 29.81-22 34.26-23.75 1.11-.43 1.33 0 .76 1.51-.7 1.87-.57 1.93 1.12.55 2.94-2.4 11.27-15.51 16.41-25.82 9.2-18.46 10.87-23.09 29.53-81.91 14.76-46.55 25.63-68.21 47.23-94.12a247.92 247.92 0 0 1 106.26-74c7.19-2.56 26-8 31.61-9.13l3-.57-43.82-20.94c-23.49 9.27-48.37 22.59-67.73 37-31.55 23.39-55.8 53.65-69.32 86.37-9.72 23.59-16.06 46.64-25.86 94-7 34-12.08 54.93-11.39 47.18.43-4.82.39-4.9-2.57-4.17-7.31 1.81-36.26 16.19-54.37 27-41.22 24.63-65.47 50-65.47 68.51 0 .76.12 1.47.18 2.21l16.84 20.91a29.46 29.46 0 0 0 3.38 1c9.12 2 29 .62 42-2.85 29.5-7.83 64.78-33.21 88.27-63.51 13.54-17.45 22.3-31.48 38.18-61.16 22.18-41.44 26.81-49.64 35.4-62.57 5.07-7.63 12.56-17.9 16.64-22.81 30.19-36.33 74.29-63.96 101.61-63.67 13.32.14 18.71 4.16 18.71 14 0 12.62-11.13 27.13-32.19 42-23.82 16.78-66.27 41.49-71.38 41.55-1.84 0-1.78-1.63.18-5.41 2.61-5 6-7.48 25.5-18.4 23.86-13.4 35.86-21.69 45.72-31.61 8.75-8.79 13-15.65 13-21 0-4.47-1-5.91-4.87-7.4-7.16-2.73-18.57-.33-34.06 7.15-19.13 9.25-39.14 27.15-56.8 50.8-16 21.45-20.23 29.18-51.42 94.1-5.93 12.35-13.12 26.31-16 31-34.29 56.67-98.18 95.4-147.71 96.29l15 18.64a171.91 171.91 0 0 0 22.7-4.36c43.1-11.41 87.59-43.64 112.3-81.28 13.22-20.15 24.43-43.16 47.41-97.31 18.81-44.31 37-70.38 63.21-90.78 12.7-9.86 26.48-15.08 27.43-10.37s-26.29 28.13-41.67 36c-4.76 2.44-5.44 1.56-2.49-3.22 3.88-6.3-10 8.35-15.54 16.44-11.64 16.88-15.66 27.2-37.17 95.44-10 31.83-17.92 49.21-31.56 69.61C228.78 444.76 180.45 477 129.84 487l.11.15c7.28 9.06 16.66 13.33 28.21 13.32h22.48c39.04-18.18 69.65-41 96.57-89.02zm92.42-124.93l-17.49 6.84c-10.2 4.05-19.19 7.33-25.12 9.18l-6.49 2v4.6c0 2.54.4 5.22.88 6 1.61 2.56 63.44-19.5 101.25-36.13 29.09-12.79 53.35-25.75 72.43-38.58q-2.46-10.63-4.89-21.28c-3.88 3.65-7.69 7-11.13 9.73-24.44 19.21-63.34 39.69-109.44 57.64zm-202.14-64.01c1.26-1.17-3.64-10.61-15-28.79-32.79-52.65-46-82.43-52.67-118.76l-28.6 13.68a424.35 424.35 0 0 0 37.91 60.72c11.68 15.39 27.86 35.41 30.11 37.26 1.31 1.07 1.78 2 1 2-1.81 0-24.24-20.6-44.34-40.79C80.75 132.55 65.85 116 53.5 99.54A32.38 32.38 0 0 0 44.87 115l-.61 2.65c8.64 8.51 17.94 17.27 22.87 21.11l30.48 23.36 21.44 16.61c3.44 3.61-51.46-29.56-76.18-46l-1.83-1.2-3.21 13.84 26.48 13 26.33 12.54c9.83 4.74 18.31 8.61 18.84 8.61a2.17 2.17 0 0 1 1.59 1c1.3 2.1-38.58-11.74-70.47-24.46l-4.81-1.91-2.82 12.16q11.12 3.24 24.56 6.85c34.33 9.17 72.44 20.13 71.9 20.67-.2.21-5.67-.62-12.15-1.84l-30.4-5.65-22-4c-5.58-1-18.29-3.56-28.22-5.67l-5.8-1.21q-1.56 6.8-3.14 13.6l25.31 2.88c38.12 4.15 88 10.92 89.1 12.1.35.38-1.65.38-4.44 0-11.63-1.56-66.23-3.8-112.42-4.38q-1.86 8-3.71 16.08l13.41-.57c2.17-.15 14.87-.61 28.22-1l29.91-1.24c3.11-.24 13.52-.76 23.14-1.1l29.38-1.26c11.12-.58 12-.47 14.06 1.79 3.08 3.42 1.42 4.09-12.22 5-18 1.2-82 7.3-129.11 12.29l-4.38 19c34.21-6.48 77.51-13.85 121.46-20.37 21.81-3.23 31.14-4.91 32.06-5.77zM180 306.9c5.59-1.77 10.82-3.79 11.63-4.5s2.2-5.83 3.1-11.39c1.53-9.48 1.89-15.65 3.31-57.29q3.93-114.42 89.2-177c11.81-8.68 13-9.43 32.17-20.07 1.57-.87 3.36-1.81 5.21-2.76q-24-11.45-48.1-22.88c-44.75 33.31-74.86 75.49-86.27 121.8-5.15 20.9-5.73 26.74-5.7 56.95 0 23.28.49 32.29 2.46 46.44 4.24 30.62 4.22 30 1.2 30.16-5 .28-56.87 21.06-82 32.83l-11 5c-1.2 0-42.84 21.34-54.46 27.91C30.23 338 23 342.3 16.68 346.54q6.32 7.82 12.62 15.65c2.13-2 4.12-3.76 5.66-5 28.3-23 79-49.7 137-72.21 9.86-3.83 18.08-6.81 18.26-6.62a33.18 33.18 0 0 1 .7 5.92l.36 5.6-14.1 5.26c-45 16.77-93 42.92-126 68.6a118.82 118.82 0 0 0-12 10.71l8.31 10.3 5.32 6.61a78.33 78.33 0 0 1 5.34-7.94c9.16-11.85 20.28-20.79 47.47-38.14C128.51 330.67 166 311.35 180 306.9zm-12-43.57c7.53-2 14.54-4.26 15.59-5 1.72-1.26 1.77-2.24.47-10.34-.79-4.92-4.62-21.68-8.52-37.25-10.76-43-11.3-46.7-11.22-76.45.06-21.81.42-27.15 2.54-37a208.58 208.58 0 0 1 28-67.66L179.4 37 134 58.66a238.06 238.06 0 0 0-.45 26.9c.87 29.06 3.61 46.22 12 75.11A395.63 395.63 0 0 0 166.93 216c3.16 6.67 5.74 12.58 5.74 13.13s-7 2.15-15.53 3.54c-15.22 2.47-45 8.15-53.9 10.28-2.48.6-11.88 2.66-20.88 4.59-20.57 4.4-49.31 10.74-72 16.59q-2.61 11.28-5.21 22.56c38.91-13.57 76.91-24.31 143.61-40.88l28.6-7.11 2.13 3.52c1.17 1.93 1.73 3.91 1.24 4.4s-9 2.94-18.88 5.44l-20.81 5.57c-1.55.57-8.16 2.63-14.67 4.58-15.17 4.54-57.51 18.37-70 22.86-20 7.2-40.6 15.64-55.79 22.55a35.6 35.6 0 0 0-.32 10.89 34.51 34.51 0 0 0 3.78 11.1 419.42 419.42 0 0 1 52.36-26c33.43-14.14 89.9-34.53 111.6-40.28zm259.76 71.23c30.64-6.44 62.17-14.88 83.24-22.05a37.79 37.79 0 0 0-.81-6.57q-1.38-6-2.75-11.94l-1.55.7c-21.76 9.75-53.6 19.2-134.92 40l-37.46 9.78c-.85.32-2.28-.85-3.44-3.1-1.76-3.41-1.77-3.79-.05-5 1-.75 8.06-3 15.66-5C408.15 315.09 467 295 503.76 278l-2.14-9.26q-1.23-5.37-2.47-10.75l-8 4.77c-32 18.19-86.89 39.39-143.79 55.57-22.73 6.46-23.42 6.74-23.42 9.58 0 3.35 3.91 22.39 9.55 46.43 7.12 30.4 7.79 35.29 7.87 57.76.12 20.94-2.82 35.84-6.81 50.69-2.06 5.76-4.58 11.67-7.32 17.68H353a36.2 36.2 0 0 0 13.3-2.54 257.92 257.92 0 0 0 .19-19c.75-4.61.17-19.67-1.43-31.16-1.05-7.56-2.54-15.47-4.36-23.36A234.3 234.3 0 0 0 348.51 385c-2.17-5.39-4.57-10.9-7.22-16.67a22.68 22.68 0 0 1-1.51-4.38c0-.83.89.54 1.92 3s7.68 14.72 14.78 27.18c15.42 27.07 27.79 61.38 33.41 75.42.48 1.19 1 2.84 1.57 4.65q8.67-10.81 17.38-21.6c-2.66-4.62-5.09-8.69-6.91-11.45-4.73-7.16-17.58-24.73-28.56-39.05s-19.78-26.23-19.55-26.47 20.34.74 48.85 2.71c13.57.94 40.84 1 65.48.56q5.72-7.08 11.4-14.16c-22.11 2.08-52.79 3.46-100.89 4.53-24.87.55-29.69.39-31.6-1-1.24-.92-1.92-2-1.51-2.42s8-1.21 16.93-1.77c43.76-2.74 93.55-7.82 128.08-13q6.51-8.08 13-16.18a36 36 0 0 0 3.45-5.36q-3 .81-6.14 1.61a793.69 793.69 0 0 1-105.3 19.35c-32.6 3.84-53.77 7.16-55.24 8.63-1.72.42-.58 4.81-3.77-3.46 0 0-2.22-4.84-.32-4.34 2.51.67 49.76-7.99 91.52-16.77zm-68.39 44.54h0c-1.59 0-1.59.3-1.4.78 18.27 24.82 39.51 44.07 58.68 63.06q4.56-5.65 9.12-11.32l-18.19-14.21c-12.4-9.65-22.4-17.69-22.22-17.87s4.34 2.15 9.23 5.19c7.47 4.64 22 13.15 35.8 21.14q3-3.78 6.08-7.55c-14.85-6.6-29.68-13.42-37.49-17.39-9.63-4.89-11.12-5.3 26 7.2l15.59 5.14 6.22-7.73-15-3.56c-34.61-8.66-67.86-19.05-46.11-14.42 21.09 4.5 45.4 8.63 66.38 11.48l6.15-7.64 2.29-2.84c-19.34-1.27-42.64-3.43-73.3-6.76l-27.83-2.7zM320.14 311l-.14-16.43 10.16-3.51c21.35-7.37 67.23-28.57 89.17-41.21 24.75-14.25 40-25.77 59.68-45.19 2.28-2.24 4.4-4.41 6.39-6.54q-3.53-15.31-7-30.64a111.51 111.51 0 0 1-4.52 12.08c-10.45 23.27-44.38 49.79-98.54 77-13 6.55-30.81 14.94-39.5 18.65l-16.14 6.89c-.74.36-5.1 32.69-8.17 60.54-4 36.09-7 55.41-10.86 69-4 14.12-15.82 37.09-26.28 51.05a230.73 230.73 0 0 1-18.94 21.52 229.61 229.61 0 0 1-19.87 16.24h51.51a179.2 179.2 0 0 0 23.59-43.31c.84-2 1.63-3.94 2.32-5.8 11.85-32.1 14.48-60.07 9.68-102.86-1.3-11.6-2.45-28.48-2.54-37.48z"/></svg>