<svg width="64" height="64" viewBox="0 0 64 64" fill="none" xmlns="http://www.w3.org/2000/svg">
<g clip-path="url(#clip0)">
<path d="M34.0482 37.6222C35.0372 35.6535 35.464 34.357 36.5402 30.05C37.6003 25.805 38.1464 23.7881 38.245 23.6688C38.2955 23.6091 38.307 23.7124 38.268 23.8982C38.2129 24.169 38.2359 24.2424 38.369 24.2424C38.8279 24.2424 41.1638 23.1249 43.1876 21.9363C47.4556 19.426 49.5391 17.7074 50.3789 16.0002C50.7598 15.2246 50.7942 15.0823 50.7942 14.2792C50.7942 13.3063 50.6589 13.0149 50.0003 12.5629C49.4427 12.1843 48.8691 12.0672 47.5611 12.0741C46.1844 12.0741 45.0577 12.3196 43.5387 12.9323C40.2964 14.2402 36.8843 17.1268 34.4865 20.5756C33.7132 21.6908 33.3575 22.3264 31.8959 25.1993C30.4067 28.1295 30.1176 28.6572 29.1951 30.1648C26.5334 34.5245 23.9726 36.8467 20.6156 37.9779C18.7684 38.5997 17.2127 38.3955 16.7148 37.4662C16.1664 36.4405 17.5821 34.5085 20.1177 32.8219C21.795 31.7067 25.65 29.5705 25.7693 29.6898C25.8886 29.8091 25.5169 30.4745 25.1153 30.8509C24.5376 31.2887 23.9234 31.6764 23.2796 32.0096C20.9001 33.2946 19.4568 34.4259 18.7294 35.5732C18.3141 36.2317 18.2705 36.9086 18.6377 37.1633C19.1333 37.5121 20.6821 37.2735 21.7996 36.6792C22.5614 36.273 24.0575 35.0615 25.0878 34.0197C26.7491 32.3378 28.0226 30.3483 29.8743 26.5829C32.66 20.9015 33.1809 19.963 34.5874 18.0699C37.3249 14.3986 41.8361 11.4959 46.2899 10.562C47.4447 10.3564 48.6226 10.3139 49.7892 10.4358C50.7231 10.6216 51.5836 10.9383 52.2077 11.4798C52.0999 11.0048 51.9783 10.5321 51.8819 10.0572C51.7346 9.28885 51.3299 8.59364 50.7346 8.0861C49.1004 7.91679 47.4493 8.0309 45.8539 8.42341C43.0436 9.15275 40.3997 10.4155 38.0661 12.143C35.7527 13.8778 33.7607 16.004 32.1804 18.4256C31.1111 20.1328 30.4227 21.6243 29.1011 25.0937C28.1832 27.4686 26.8202 30.3139 25.9161 31.6907C24.4981 33.8453 21.3109 36.4956 20.3839 36.2914C19.9708 36.1996 20.2599 35.5823 21.0722 34.8045C21.577 34.3272 23.8716 32.7393 24.2847 32.5741C24.3902 32.5328 24.4109 32.5741 24.3558 32.7164C24.3007 32.8586 24.303 32.8976 24.4637 32.7669C24.739 32.5374 25.5215 31.3098 26.0033 30.3415C26.8684 28.6067 27.0244 28.1731 28.7775 22.6454C30.1657 18.2718 31.1868 16.2388 33.2153 13.802C35.8683 10.6406 39.3138 8.24116 43.1991 6.84931C43.8737 6.61985 45.6428 6.09668 46.1683 5.99112L46.4482 5.93606L42.334 3.97876C40.0762 4.86641 37.9386 6.03351 35.9711 7.45279C33.0088 9.65331 30.7279 12.5009 29.459 15.5688C28.5412 17.7854 27.9515 19.9515 27.029 24.4007C26.3682 27.5994 25.8955 29.5613 25.9597 28.8339C26.001 28.375 25.9965 28.375 25.7188 28.4438C25.0304 28.6136 22.3113 29.9628 20.611 30.9794C16.7492 33.2946 14.4775 35.6787 14.4775 37.4157C14.4801 37.4856 14.4862 37.5553 14.4959 37.6245L16.0769 39.5887C16.1805 39.6255 16.2863 39.6561 16.3935 39.6805C17.2517 39.8664 19.1149 39.7402 20.3403 39.4143C23.1121 38.6778 26.4232 36.2937 28.633 33.4484C29.9042 31.8077 30.7279 30.4906 32.2194 27.7118C34.3029 23.811 34.7435 23.0469 35.5466 21.8331C36.0216 21.1149 36.726 20.1511 37.1092 19.6899C39.9476 16.2664 44.0779 13.6689 46.6479 13.701C47.8984 13.7148 48.4055 14.0934 48.4055 15.0158C48.4055 16.1998 47.3592 17.5651 45.3813 18.9579C43.144 20.5343 39.156 22.8588 38.6764 22.8588C38.5043 22.8588 38.5089 22.705 38.6925 22.3494C38.938 21.8767 39.257 21.6472 41.0881 20.6215C43.3276 19.3687 44.4565 18.5885 45.3836 17.6569C46.205 16.8308 46.6043 16.1861 46.602 15.6881C46.602 15.2682 46.5102 15.1328 46.1431 14.9997C45.4708 14.745 44.3992 14.9699 42.9444 15.6721C41.1477 16.5394 39.273 18.2214 37.6071 20.4448C36.1042 22.4595 35.7072 23.1846 32.777 29.2859C32.2194 30.4447 31.5448 31.7572 31.2763 32.2001C28.0639 37.5259 22.052 41.1628 17.3986 41.2477L18.8075 42.9985C19.5265 42.9103 20.2388 42.773 20.9391 42.5878C24.9914 41.5093 29.1699 38.4827 31.4943 34.9444C32.7357 33.0514 33.7889 30.8899 35.9481 25.8027C37.715 21.6403 39.4199 19.1897 41.8866 17.2737C43.0798 16.3559 44.3739 15.8579 44.4634 16.3008C44.5529 16.7436 41.9921 18.9327 40.5465 19.667C40.0991 19.8964 40.0348 19.8138 40.3171 19.3641C40.6819 18.7721 39.3809 20.1488 38.8577 20.9083C37.7632 22.4939 37.3846 23.4645 35.3653 29.8757C34.4222 32.8586 33.6811 34.4993 32.4007 36.4153C29.498 40.7521 24.9593 43.7833 20.214 44.724L20.2255 44.7378C20.5364 45.1415 20.9389 45.4655 21.3997 45.6829C21.8606 45.9003 22.3665 46.005 22.8758 45.9884H24.9868C28.6444 44.2766 31.5196 42.1334 34.0482 37.6222Z" fill="#326CE5"/>
<path d="M42.731 25.8854L41.0949 26.5279C40.1381 26.9088 39.2936 27.2162 38.7361 27.3906L38.1257 27.5788V28.0125C38.1166 28.2027 38.1447 28.3929 38.2083 28.5724C38.3597 28.8133 44.1743 26.7367 47.7194 25.1786C50.0888 24.1705 52.366 22.9582 54.5252 21.5555C54.3715 20.8877 54.22 20.2223 54.0663 19.5546C53.7015 19.8988 53.3435 20.2154 53.02 20.4724C50.7162 22.2737 47.0609 24.1988 42.731 25.8854Z" fill="#326CE5"/>
<path d="M23.7408 19.8712C23.8601 19.7611 23.3989 18.8754 22.3342 17.1659C19.2548 12.221 18.0111 9.42389 17.387 6.00952L14.7069 7.2945C15.7306 9.29273 16.9211 11.201 18.2658 12.9989C19.365 14.4445 20.884 16.3261 21.0951 16.5005C21.219 16.6014 21.2626 16.684 21.1938 16.6863C21.024 16.6863 18.9175 14.7497 17.0268 12.8543C15.5967 11.4344 14.2651 9.91878 13.041 8.31789C12.6407 8.71785 12.3602 9.22173 12.231 9.77267C12.2104 9.85528 12.192 9.94018 12.1714 10.0228C12.9837 10.8213 13.8579 11.6451 14.3214 12.0053C14.8469 12.4138 16.1342 13.4027 17.1851 14.199C18.236 14.9952 19.1401 15.6996 19.1998 15.7616C19.5233 16.0989 14.365 12.9828 12.0429 11.4363L11.8708 11.3238L11.5679 12.6249C12.4857 13.0838 13.4564 13.5702 14.0553 13.8502C14.4935 14.0521 15.6064 14.5822 16.5311 15.0273C17.4559 15.4725 18.2498 15.8373 18.3003 15.8373C18.3307 15.8405 18.3599 15.8507 18.3858 15.867C18.4117 15.8833 18.4334 15.9053 18.4494 15.9314C18.571 16.1287 14.8262 14.8277 11.8295 13.6368L11.3706 13.4578C11.2834 13.8387 11.1916 14.2196 11.1044 14.6051C11.802 14.8101 12.5714 15.025 13.4128 15.2499C16.6367 16.1104 20.2186 17.1406 20.1681 17.1911C19.7824 17.1582 19.3992 17.1008 19.0208 17.019C17.4972 16.7322 17.4146 16.7184 16.1663 16.4867L14.1011 16.1104C13.578 16.0163 12.3848 15.7754 11.4509 15.578L10.9071 15.4633L10.6111 16.7414C11.444 16.8401 12.2769 16.9364 12.9883 17.0121C16.5701 17.4022 21.2488 18.0378 21.359 18.1594C21.3934 18.1939 21.2052 18.1939 20.9414 18.1594C19.8491 18.0126 14.7207 17.8015 10.3862 17.7487C10.2692 18.2512 10.1567 18.756 10.0374 19.2586L11.2971 19.2058C11.5014 19.192 12.6946 19.1484 13.9474 19.1094C15.2003 19.0704 16.4715 19.0176 16.7583 18.9924C17.0451 18.9672 18.0272 18.9213 18.9313 18.8891C19.8354 18.857 21.0767 18.8042 21.6848 18.7721C22.7289 18.717 22.8138 18.7262 23.0065 18.9396C23.2956 19.2609 23.1396 19.3228 21.8592 19.41C20.1635 19.5224 14.1562 20.0984 9.72763 20.5573C9.59301 21.1524 9.4561 21.7459 9.31689 22.3379C12.5293 21.7299 16.5977 21.0369 20.728 20.4242C22.777 20.1099 23.6559 19.9515 23.7408 19.8712Z" fill="#326CE5"/>
<path d="M24.9157 27.7991C25.2928 27.6945 25.6586 27.5531 26.008 27.3769C26.0837 27.3104 26.2168 26.8285 26.2994 26.3076C26.444 25.415 26.4784 24.8368 26.6115 20.9245C26.8562 13.7577 29.6495 8.21468 34.9913 4.2955C36.1019 3.47862 36.2144 3.40978 38.0133 2.40933C38.1602 2.32673 38.33 2.23954 38.5021 2.15005L33.9817 0C29.778 3.12984 26.9488 7.09262 25.8772 11.4432C25.393 13.4074 25.3379 13.9558 25.3402 16.7942C25.3402 18.981 25.3884 19.8277 25.5697 21.154C25.969 24.0314 25.9667 23.9717 25.6821 23.9878C25.2232 24.013 20.3403 25.9657 17.9815 27.0717C17.433 27.3287 16.9672 27.5307 16.9443 27.5307C16.8319 27.5307 12.9196 29.5361 11.8273 30.1534C10.8406 30.711 10.166 31.1171 9.56714 31.5141L10.7534 32.9849C10.9531 32.8014 11.1412 32.6316 11.2858 32.5145C13.9452 30.353 18.7043 27.845 24.1585 25.7294C25.0764 25.3714 25.8565 25.0915 25.8726 25.1076C25.9104 25.2912 25.9327 25.4777 25.9391 25.6651L25.9736 26.1906L24.6473 26.6839C20.4206 28.2603 15.9071 30.7179 12.8094 33.1295C12.412 33.4392 12.0357 33.7749 11.6828 34.1345L12.4629 35.1051L12.9631 35.7247C13.1147 35.4662 13.2818 35.2172 13.4634 34.9789C14.3239 33.8661 15.3702 33.0262 17.9241 31.3971C20.0787 30.0318 23.5963 28.2167 24.9157 27.7991Z" fill="#326CE5"/>
<path d="M23.7844 23.7056C24.2845 23.5892 24.7741 23.4319 25.2484 23.2352C25.4113 23.1159 25.4159 23.0241 25.292 22.2623C25.2185 21.8033 24.8583 20.2247 24.4934 18.763C23.4815 14.7268 23.431 14.3757 23.4379 11.5809C23.4379 9.53181 23.4769 9.02929 23.6674 8.10227C24.1615 5.84522 25.0509 3.69338 26.2947 1.74622L24.8514 2.4346L20.5834 4.4745C20.5205 5.31432 20.5059 6.15707 20.5398 6.99856C20.5679 9.39336 20.9491 11.7709 21.6711 14.0545C22.2087 15.8364 22.8799 17.5753 23.6789 19.2563C23.8804 19.658 24.0604 20.0701 24.2181 20.4908C24.2181 20.5413 23.5618 20.6928 22.7587 20.8213C21.3292 21.0507 18.5344 21.5877 17.6968 21.7873C17.4674 21.8447 16.5794 22.0374 15.7349 22.2187C13.8006 22.6317 11.1021 23.2283 8.97045 23.779L8.4817 25.8969C12.137 24.6211 15.7074 23.6138 21.974 22.0558L24.661 21.388L24.8606 21.7184C24.9707 21.8997 25.0235 22.0856 24.9776 22.1315C24.3975 22.3386 23.8052 22.5095 23.2039 22.6432C22.286 22.8726 21.3934 23.1136 21.2489 23.1663C21.1043 23.2191 20.4825 23.4142 19.8721 23.5977C18.4472 24.0222 14.4683 25.3233 13.2981 25.7455C11.4188 26.4201 9.48215 27.214 8.0572 27.8634C7.9939 28.2008 7.98306 28.546 8.02507 28.8868C8.08437 29.2515 8.2046 29.6037 8.38073 29.9285C9.96204 29.0004 11.6059 28.183 13.3004 27.4825C16.444 26.1631 21.7514 24.2563 23.7844 23.7056Z" fill="#326CE5"/>
<path d="M48.1943 30.3988C50.8361 29.8543 53.446 29.1648 56.0121 28.3337C56.0055 28.126 55.9802 27.9195 55.9363 27.7164C55.8514 27.3424 55.7642 26.9684 55.6793 26.5944L55.5325 26.6609C53.488 27.5787 50.4981 28.4645 42.8571 30.4195C41.0008 30.8944 39.4152 31.3098 39.3372 31.3373C39.2592 31.3648 39.1238 31.257 39.0159 31.0459C38.8484 30.7246 38.8484 30.6902 39.0159 30.5709C39.4931 30.3786 39.9849 30.2251 40.4868 30.112C46.3541 28.5815 51.8841 26.6976 55.3375 25.0983L55.1378 24.2286C55.0598 23.8913 54.9818 23.554 54.9084 23.219C54.6353 23.3842 54.3737 23.5402 54.1534 23.6664C51.1429 25.3759 45.9892 27.3676 40.6451 28.8867C38.5088 29.4947 38.4446 29.52 38.4446 29.7884C38.4446 30.1005 38.8117 31.8903 39.3418 34.1482C40.0095 37.005 40.0737 37.4639 40.0806 39.5749C40.0981 41.1854 39.8825 42.7899 39.4404 44.3385C39.2477 44.88 39.0113 45.4353 38.7521 45.9998H41.1729C41.5997 46.0027 42.0232 45.9248 42.4211 45.7704C42.4487 45.1646 42.4555 44.5634 42.4395 43.9852C42.5106 43.5538 42.4555 42.138 42.3041 41.0595C42.2054 40.3482 42.0746 39.6048 41.8957 38.8636C41.6222 37.5987 41.2383 36.3602 40.7484 35.1624C40.5441 34.6553 40.3193 34.139 40.06 33.5952C39.9991 33.4633 39.9515 33.3257 39.9177 33.1845C39.9177 33.1064 40.0026 33.2349 40.099 33.469C40.1954 33.703 40.8195 34.8457 41.4872 36.0229C42.9351 38.5653 44.0985 41.7892 44.6262 43.1086C44.6721 43.2211 44.7203 43.3748 44.7731 43.5446L46.4069 41.5162C46.1567 41.0825 45.9273 40.6993 45.7575 40.44C45.3123 39.7677 44.1054 38.1179 43.0728 36.7686C42.0402 35.4194 41.2165 34.3042 41.2371 34.2836C41.2578 34.2629 43.1485 34.3524 45.8263 34.5383C47.1021 34.6255 49.6629 34.6346 51.9781 34.5888L53.0497 33.2579C50.9731 33.4552 48.0888 33.5837 43.5707 33.6847C41.2348 33.7375 40.7805 33.7214 40.6015 33.5883C40.4845 33.5011 40.4225 33.4002 40.4592 33.3588C40.9851 33.2628 41.5174 33.2068 42.0517 33.1913C46.1613 32.9343 50.84 32.4571 54.0846 31.9706C54.4907 31.4658 54.9015 30.9587 55.3076 30.4516C55.4297 30.2932 55.5387 30.1252 55.6335 29.9491L55.0552 30.1005C51.8015 30.927 48.4959 31.5342 45.1609 31.9178C42.0999 32.2781 40.1128 32.5902 39.9728 32.7278C39.8099 32.7668 39.9177 33.1868 39.6194 32.402C39.6194 32.402 39.4106 31.9431 39.5896 31.9959C39.8305 32.0372 44.266 31.2226 48.1943 30.3988Z" fill="#326CE5"/>
<path d="M41.7673 34.5819C41.6181 34.5819 41.6181 34.6094 41.6365 34.653C43.3528 36.9867 45.3491 38.7948 47.1435 40.5777L48.0017 39.5153L46.2922 38.1798C45.1266 37.2735 44.1881 36.5186 44.2064 36.5002C44.5078 36.639 44.7971 36.8025 45.0715 36.9889C45.7736 37.4249 47.1366 38.2234 48.4354 38.9738L49.0067 38.2647C47.6116 37.6452 46.2188 37.005 45.4845 36.631C44.5805 36.1721 44.4405 36.1331 47.9237 37.3079C48.4193 37.4754 48.9104 37.636 49.3876 37.7921L49.9728 37.0647C49.4657 36.9499 48.9792 36.8352 48.5593 36.7297C45.3078 35.9174 42.1849 34.9399 44.2271 35.3758C46.2096 35.798 48.4927 36.1858 50.4638 36.4543L51.0421 35.7361L51.2555 35.4699C49.4404 35.3506 47.2514 35.1464 44.3716 34.8343C42.6805 34.653 42.0128 34.5819 41.7673 34.5819Z" fill="#326CE5"/>
<path d="M38.0822 28.1823L38.0661 26.6403L39.0299 26.3214C41.0354 25.633 45.3469 23.6367 47.4075 22.4504C49.4703 21.3101 51.3589 19.8797 53.0155 18.2031C53.2289 17.9943 53.4285 17.7901 53.6167 17.5904C53.3949 16.6282 53.1738 15.6683 52.9535 14.7107C52.8356 15.0969 52.6938 15.4755 52.529 15.8442C51.5469 18.0333 48.3597 20.5229 43.2726 23.0814C42.0473 23.6964 40.3768 24.4857 39.5599 24.8345C38.743 25.1833 38.0638 25.4724 38.0501 25.4793C37.9812 25.5137 37.5705 28.5495 37.2837 31.1676C36.9097 34.5567 36.6228 36.3718 36.2626 37.6521C35.8863 38.9784 34.7757 41.1376 33.7936 42.4479C33.2433 43.1579 32.6494 43.8331 32.0153 44.4694C31.422 45.0129 30.7984 45.5223 30.1475 45.9953H34.9868C35.9058 44.7461 36.6485 43.3764 37.1942 41.9247C37.2722 41.7388 37.3479 41.5553 37.4122 41.3786C38.5251 38.3635 38.7729 35.7362 38.33 31.716C38.1992 30.6169 38.0914 29.029 38.0822 28.1823Z" fill="#326CE5"/>
<path d="M5.98633 57.9395H2.48242V60.5645H6.57812V61.748H1V53.2168H6.53711V54.4121H2.48242V56.7676H5.98633V57.9395Z" fill="#FC6011"/>
<path d="M9.81875 55.4082L9.85977 56.1406C10.3285 55.5742 10.9438 55.291 11.7055 55.291C13.0258 55.291 13.6977 56.0469 13.7211 57.5586V61.748H12.2973V57.6406C12.2973 57.2383 12.2094 56.9414 12.0336 56.75C11.8617 56.5547 11.5785 56.457 11.184 56.457C10.6098 56.457 10.182 56.7168 9.90078 57.2363V61.748H8.47695V55.4082H9.81875Z" fill="#FC6011"/>
<path d="M17.8113 53.8672V55.4082H18.9305V56.4629H17.8113V60.002C17.8113 60.2441 17.8582 60.4199 17.952 60.5293C18.0496 60.6348 18.2215 60.6875 18.4676 60.6875C18.6316 60.6875 18.7977 60.668 18.9656 60.6289V61.7305C18.6414 61.8203 18.3289 61.8652 18.0281 61.8652C16.9344 61.8652 16.3875 61.2617 16.3875 60.0547V56.4629H15.3445V55.4082H16.3875V53.8672H17.8113Z" fill="#FC6011"/>
<path d="M23.6652 61.8652C22.7629 61.8652 22.0305 61.582 21.468 61.0156C20.9094 60.4453 20.6301 59.6875 20.6301 58.7422V58.5664C20.6301 57.9336 20.7512 57.3691 20.9934 56.873C21.2395 56.373 21.5832 55.9844 22.0246 55.707C22.466 55.4297 22.9582 55.291 23.5012 55.291C24.3645 55.291 25.0305 55.5664 25.4992 56.1172C25.9719 56.668 26.2082 57.4473 26.2082 58.4551V59.0293H22.0656C22.1086 59.5527 22.2824 59.9668 22.5871 60.2715C22.8957 60.5762 23.2824 60.7285 23.7473 60.7285C24.3996 60.7285 24.9309 60.4648 25.341 59.9375L26.1086 60.6699C25.8547 61.0488 25.5148 61.3438 25.0891 61.5547C24.6672 61.7617 24.1926 61.8652 23.6652 61.8652ZM23.4953 56.4336C23.1047 56.4336 22.7883 56.5703 22.5461 56.8438C22.3078 57.1172 22.1555 57.498 22.0891 57.9863H24.802V57.8809C24.7707 57.4043 24.6437 57.0449 24.4211 56.8027C24.1984 56.5566 23.8898 56.4336 23.4953 56.4336Z" fill="#FC6011"/>
<path d="M31.4879 56.709C31.3004 56.6777 31.107 56.6621 30.9078 56.6621C30.2555 56.6621 29.816 56.9121 29.5895 57.4121V61.748H28.1656V55.4082H29.525L29.5602 56.1172C29.9039 55.5664 30.3805 55.291 30.9898 55.291C31.193 55.291 31.3609 55.3184 31.4937 55.373L31.4879 56.709Z" fill="#FC6011"/>
<path d="M38.7891 58.6426C38.7891 59.623 38.5664 60.4062 38.1211 60.9922C37.6758 61.5742 37.0781 61.8652 36.3281 61.8652C35.6328 61.8652 35.0762 61.6367 34.6582 61.1797V64.1855H33.2344V55.4082H34.5469L34.6055 56.0527C35.0234 55.5449 35.5918 55.291 36.3105 55.291C37.084 55.291 37.6895 55.5801 38.127 56.1582C38.5684 56.7324 38.7891 57.5312 38.7891 58.5547V58.6426ZM37.3711 58.5195C37.3711 57.8867 37.2441 57.3848 36.9902 57.0137C36.7402 56.6426 36.3809 56.457 35.9121 56.457C35.3301 56.457 34.9121 56.6973 34.6582 57.1777V59.9902C34.916 60.4824 35.3379 60.7285 35.9238 60.7285C36.377 60.7285 36.7305 60.5469 36.9844 60.1836C37.2422 59.8164 37.3711 59.2617 37.3711 58.5195Z" fill="#FC6011"/>
<path d="M44.1684 56.709C43.9809 56.6777 43.7875 56.6621 43.5883 56.6621C42.9359 56.6621 42.4965 56.9121 42.2699 57.4121V61.748H40.8461V55.4082H42.2055L42.2406 56.1172C42.5844 55.5664 43.0609 55.291 43.6703 55.291C43.8734 55.291 44.0414 55.3184 44.1742 55.373L44.1684 56.709Z" fill="#FC6011"/>
<path d="M47.4324 61.748H46.0086V55.4082H47.4324V61.748ZM45.9207 53.7617C45.9207 53.543 45.9891 53.3613 46.1258 53.2168C46.2664 53.0723 46.4656 53 46.7234 53C46.9813 53 47.1805 53.0723 47.3211 53.2168C47.4617 53.3613 47.532 53.543 47.532 53.7617C47.532 53.9766 47.4617 54.1562 47.3211 54.3008C47.1805 54.4414 46.9813 54.5117 46.7234 54.5117C46.4656 54.5117 46.2664 54.4414 46.1258 54.3008C45.9891 54.1562 45.9207 53.9766 45.9207 53.7617Z" fill="#FC6011"/>
<path d="M53.3918 60.0254C53.3918 59.7715 53.2863 59.5781 53.0754 59.4453C52.8684 59.3125 52.5227 59.1953 52.0383 59.0938C51.5539 58.9922 51.1496 58.8633 50.8254 58.707C50.1145 58.3633 49.759 57.8652 49.759 57.2129C49.759 56.666 49.9895 56.209 50.4504 55.8418C50.9113 55.4746 51.4973 55.291 52.2082 55.291C52.966 55.291 53.5773 55.4785 54.0422 55.8535C54.5109 56.2285 54.7453 56.7148 54.7453 57.3125H53.3215C53.3215 57.0391 53.2199 56.8125 53.0168 56.6328C52.8137 56.4492 52.5441 56.3574 52.2082 56.3574C51.8957 56.3574 51.6398 56.4297 51.4406 56.5742C51.2453 56.7188 51.1477 56.9121 51.1477 57.1543C51.1477 57.373 51.2395 57.543 51.423 57.6641C51.6066 57.7852 51.9777 57.9082 52.5363 58.0332C53.0949 58.1543 53.5324 58.3008 53.8488 58.4727C54.1691 58.6406 54.4055 58.8438 54.5578 59.082C54.7141 59.3203 54.7922 59.6094 54.7922 59.9492C54.7922 60.5195 54.5559 60.9824 54.0832 61.3379C53.6105 61.6895 52.9914 61.8652 52.2258 61.8652C51.7062 61.8652 51.2434 61.7715 50.8371 61.584C50.4309 61.3965 50.1145 61.1387 49.8879 60.8105C49.6613 60.4824 49.548 60.1289 49.548 59.75H50.9309C50.9504 60.0859 51.0773 60.3457 51.3117 60.5293C51.5461 60.709 51.8566 60.7988 52.2434 60.7988C52.6184 60.7988 52.9035 60.7285 53.0988 60.5879C53.2941 60.4434 53.3918 60.2559 53.3918 60.0254Z" fill="#FC6011"/>
<path d="M59.6793 61.8652C58.777 61.8652 58.0445 61.582 57.482 61.0156C56.9234 60.4453 56.6441 59.6875 56.6441 58.7422V58.5664C56.6441 57.9336 56.7652 57.3691 57.0074 56.873C57.2535 56.373 57.5973 55.9844 58.0387 55.707C58.4801 55.4297 58.9723 55.291 59.5152 55.291C60.3785 55.291 61.0445 55.5664 61.5133 56.1172C61.9859 56.668 62.2223 57.4473 62.2223 58.4551V59.0293H58.0797C58.1227 59.5527 58.2965 59.9668 58.6012 60.2715C58.9098 60.5762 59.2965 60.7285 59.7613 60.7285C60.4137 60.7285 60.9449 60.4648 61.3551 59.9375L62.1227 60.6699C61.8688 61.0488 61.5289 61.3438 61.1031 61.5547C60.6813 61.7617 60.2066 61.8652 59.6793 61.8652ZM59.5094 56.4336C59.1188 56.4336 58.8023 56.5703 58.5602 56.8438C58.3219 57.1172 58.1695 57.498 58.1031 57.9863H60.816V57.8809C60.7848 57.4043 60.6578 57.0449 60.4352 56.8027C60.2125 56.5566 59.9039 56.4336 59.5094 56.4336Z" fill="#FC6011"/>
</g>
<defs>
<clipPath id="clip0">
<rect width="64" height="64" fill="white"/>
</clipPath>
</defs>
</svg>
