<svg id="Layer_1" data-name="Layer 1" xmlns="http://www.w3.org/2000/svg" viewBox="0 0 1279 639"><defs><style>.cls-1{fill:#326ce5;}</style></defs><title>kubeci-logo-1280x640</title><path class="cls-1" d="M278.29,383.25c4.31-8.58,6.17-14.23,10.86-33,4.62-18.5,7-27.29,7.43-27.81.22-.26.27.19.1,1-.24,1.18-.14,1.5.44,1.5,2,0,12.18-4.87,21-10.05,18.6-10.94,27.68-18.43,31.34-25.87,1.66-3.38,1.81-4,1.81-7.5,0-4.24-.59-5.51-3.46-7.48-2.43-1.65-4.93-2.16-10.63-2.13-6,0-10.91,1.07-17.53,3.74-14.13,5.7-29,18.28-39.45,33.31-3.37,4.86-4.92,7.63-11.29,20.15-6.49,12.77-7.75,15.07-11.77,21.64-11.6,19-22.76,29.12-37.39,34.05-8.05,2.71-14.83,1.82-17-2.23-2.39-4.47,3.78-12.89,14.83-20.24,7.31-4.86,24.11-14.17,24.63-13.65s-1.1,3.42-2.85,5.06a55.41,55.41,0,0,1-8,5.05c-10.37,5.6-16.66,10.53-19.83,15.53-1.81,2.87-2,5.82-.4,6.93,2.16,1.52,8.91.48,13.78-2.11,3.32-1.77,9.84-7.05,14.33-11.59,7.24-7.33,12.79-16,20.86-32.41,12.14-24.76,14.41-28.85,20.54-37.1,11.93-16,31.59-28.65,51-32.72a54.63,54.63,0,0,1,15.25-.55c4.07.81,7.82,2.19,10.54,4.55-.47-2.07-1-4.13-1.42-6.2a15,15,0,0,0-5-8.59A62.2,62.2,0,0,0,329.74,256a98.73,98.73,0,0,0-33.94,16.21,108,108,0,0,0-25.65,27.38c-4.66,7.44-7.66,13.94-13.42,29.06-4,10.35-9.94,22.75-13.88,28.75-6.18,9.39-20.07,20.94-24.11,20.05-1.8-.4-.54-3.09,3-6.48,2.2-2.08,12.2-9,14-9.72.46-.18.55,0,.31.62s-.23.79.47.22c1.2-1,4.61-6.35,6.71-10.57,3.77-7.56,4.45-9.45,12.09-33.54,6.05-19.06,10.5-27.92,19.34-38.54a101.48,101.48,0,0,1,43.51-30.3c2.94-1,10.65-3.28,12.94-3.74l1.22-.24-17.93-8.53a126.54,126.54,0,0,0-27.73,15.14c-12.91,9.59-22.85,22-28.38,35.37-4,9.66-6.57,19.1-10.59,38.49-2.88,13.94-4.94,22.49-4.66,19.32.18-2,.16-2-1.05-1.7-3,.74-14.85,6.62-22.26,11.05C202.9,364.39,193,374.78,193,382.35a9,9,0,0,0,.08.91l6.89,8.56a12.22,12.22,0,0,0,1.38.4c3.74.81,11.86.26,17.2-1.16,12.08-3.21,26.51-13.6,36.14-26,5.54-7.15,9.13-12.89,15.63-25,9.08-17,11-20.33,14.5-25.62,2.07-3.13,5.14-7.33,6.81-9.34C304,290.18,322,278.86,333.2,279c5.45.06,7.66,1.71,7.66,5.73,0,5.16-4.56,11.11-13.18,17.18-9.75,6.87-27.13,17-29.22,17-.75,0-.73-.67.07-2.22,1.07-2.06,2.46-3.06,10.44-7.53,9.76-5.46,14.68-8.86,18.72-12.92,3.58-3.6,5.32-6.41,5.31-8.58,0-1.83-.4-2.42-2-3-2.93-1.11-7.6-.13-13.94,2.93-7.83,3.78-16,11.11-23.26,20.8-6.55,8.78-8.28,11.94-21.05,38.53-2.43,5.05-5.37,10.77-6.54,12.7-14,23.21-40.2,39.06-60.48,39.43l6.14,7.63a69.36,69.36,0,0,0,9.29-1.79c17.66-4.7,35.87-17.89,46-33.31,5.41-8.25,10-17.67,19.41-39.84,7.7-18.14,15.13-28.82,25.88-37.17,5.2-4,10.84-6.17,11.23-4.24S312.91,301.8,306.61,305c-1.95,1-2.23.64-1-1.32,1.59-2.58-4.08,3.42-6.36,6.73-4.77,6.91-6.42,11.14-15.22,39.08-4.11,13-7.34,20.15-12.92,28.5C258.46,396.89,238.68,410.1,218,414.2l.05.06a14,14,0,0,0,11.55,5.45h9.2C254.74,412.25,267.27,402.91,278.29,383.25Z"/><path class="cls-1" d="M316.13,332.1,309,334.9c-4.17,1.66-7.85,3-10.28,3.76l-2.66.82v1.89a6.39,6.39,0,0,0,.36,2.44c.66,1.05,26-8,41.45-14.79a193.54,193.54,0,0,0,29.66-15.79c-.67-2.91-1.33-5.81-2-8.72-1.59,1.5-3.15,2.88-4.56,4C350.93,316.36,335,324.75,316.13,332.1Z"/><path class="cls-1" d="M233.37,305.89c.52-.48-1.49-4.34-6.13-11.79-13.42-21.55-18.84-33.74-21.56-48.62L194,251.08a173.84,173.84,0,0,0,15.51,24.86c4.79,6.3,11.41,14.5,12.33,15.26.54.44.73.8.43.81-.74,0-9.92-8.44-18.16-16.7a193.41,193.41,0,0,1-17.37-19.77,13.23,13.23,0,0,0-3.53,6.34c-.09.36-.17.73-.26,1.09,3.54,3.48,7.35,7.07,9.37,8.64,2.29,1.78,7.9,6.09,12.48,9.56s8.52,6.54,8.78,6.81c1.41,1.47-21.07-12.11-31.19-18.85l-.75-.49-1.32,5.67c4,2,8.23,4.12,10.84,5.34,1.91.88,6.76,3.19,10.79,5.13s7.49,3.53,7.71,3.53a.87.87,0,0,1,.65.41c.53.86-15.79-4.81-28.85-10l-2-.78c-.38,1.66-.78,3.32-1.16,5q4.56,1.34,10.06,2.81c14.05,3.75,29.66,8.24,29.44,8.46a39.63,39.63,0,0,1-5-.75c-6.64-1.25-7-1.31-12.44-2.32l-9-1.64c-2.28-.41-7.48-1.46-11.55-2.32l-2.37-.5-1.29,5.57c3.63.43,7.26.85,10.36,1.18,15.61,1.7,36,4.47,36.48,5,.15.15-.67.15-1.82,0-4.76-.64-27.11-1.56-46-1.79-.51,2.19-1,4.39-1.52,6.58l5.49-.23c.89-.06,6.09-.25,11.55-.42s11-.4,12.25-.51,5.53-.31,9.47-.45,9.35-.37,12-.51c4.55-.24,4.92-.2,5.76.73,1.26,1.4.58,1.67-5,2.05-7.39.49-33.57,3-52.87,5q-.88,3.89-1.79,7.76c14-2.65,31.73-5.67,49.73-8.34C229.17,306.93,233,306.24,233.37,305.89Z"/><path class="cls-1" d="M238.49,340.44a26.06,26.06,0,0,0,4.76-1.84c.33-.29.91-2.39,1.27-4.66.63-3.89.78-6.41,1.36-23.46q1.6-46.85,36.52-72.47c4.84-3.56,5.33-3.86,13.17-8.22.64-.36,1.38-.74,2.13-1.13L278,219.29c-18.32,13.64-30.65,30.91-35.32,49.87-2.11,8.56-2.35,10.95-2.34,23.32,0,9.53.21,13.22,1,19,1.74,12.54,1.73,12.28.49,12.35-2,.11-23.28,8.62-33.56,13.44-2.39,1.12-4.42,2-4.52,2-.49,0-17.54,8.74-22.3,11.43-4.3,2.43-7.24,4.2-9.85,5.93l5.17,6.41c.87-.8,1.69-1.54,2.32-2.05,11.59-9.42,32.33-20.35,56.1-29.57,4-1.56,7.4-2.78,7.47-2.71a14.51,14.51,0,0,1,.29,2.43l.15,2.29-5.78,2.15c-18.42,6.87-38.09,17.58-51.59,28.09a49.6,49.6,0,0,0-4.91,4.38l3.4,4.23,2.18,2.7a32.38,32.38,0,0,1,2.18-3.25c3.75-4.85,8.31-8.51,19.44-15.61C217.41,350.17,232.74,342.26,238.49,340.44Z"/><path class="cls-1" d="M233.56,322.6a40.79,40.79,0,0,0,6.38-2.05c.71-.52.73-.92.19-4.24-.32-2-1.89-8.88-3.48-15.25-4.41-17.59-4.63-19.12-4.6-31.3,0-8.93.17-11.12,1-15.16a85.37,85.37,0,0,1,11.45-27.7l-6.29,3-18.6,8.89a95.63,95.63,0,0,0-.19,11,106.14,106.14,0,0,0,4.93,30.75,161.47,161.47,0,0,0,8.75,22.67,55.22,55.22,0,0,1,2.35,5.38c0,.22-2.86.88-6.36,1.44-6.23,1-18.41,3.34-22.06,4.21-1,.25-4.87,1.09-8.55,1.88-8.43,1.8-20.19,4.4-29.48,6.8l-2.13,9.23c15.93-5.56,31.49-9.95,58.8-16.74l11.71-2.91.87,1.44c.48.79.71,1.6.51,1.8a64.76,64.76,0,0,1-7.73,2.23c-4,1-7.89,2.05-8.52,2.28s-3.34,1.08-6,1.88c-6.21,1.85-23.55,7.52-28.65,9.36-8.19,2.94-16.63,6.4-22.84,9.23a14.54,14.54,0,0,0-.14,4.46,14.36,14.36,0,0,0,1.55,4.54,172.69,172.69,0,0,1,21.44-10.66C201.57,333.31,224.7,325,233.56,322.6Z"/><path class="cls-1" d="M339.94,351.77a320.59,320.59,0,0,0,34.07-9,15,15,0,0,0-.33-2.69c-.37-1.63-.75-3.26-1.12-4.89l-.64.29c-8.91,4-21.94,7.86-55.24,16.38-8.09,2.07-15,3.88-15.34,4s-.93-.35-1.4-1.27c-.73-1.4-.73-1.55,0-2.07a41.64,41.64,0,0,1,6.41-2c25.57-6.67,49.67-14.88,64.72-21.85l-.87-3.79c-.34-1.47-.68-2.94-1-4.4-1.19.72-2.33,1.4-3.29,1.95-13.12,7.45-35.58,16.13-58.87,22.75-9.31,2.65-9.59,2.76-9.59,3.93,0,1.36,1.6,9.16,3.91,19,2.91,12.45,3.19,14.45,3.22,23.65a72.75,72.75,0,0,1-2.79,20.76c-.84,2.36-1.87,4.78-3,7.24h10.55a14.76,14.76,0,0,0,5.44-1c.12-2.64.15-5.26.08-7.78.31-1.88.07-8.05-.59-12.75-.43-3.1-1-6.34-1.78-9.57a96.39,96.39,0,0,0-5-16.13c-.89-2.21-1.87-4.46-3-6.83a9.6,9.6,0,0,1-.62-1.79c0-.34.37.22.79,1.24s3.14,6,6.05,11.13c6.31,11.08,11.38,25.13,13.68,30.88.2.49.41,1.16.64,1.9l7.12-8.84c-1.09-1.89-2.09-3.56-2.83-4.69-1.94-2.93-7.2-10.12-11.7-16s-8.09-10.74-8-10.83,8.33.3,20,1.11c5.56.38,16.72.42,26.81.22l4.67-5.8c-9.05.86-21.62,1.42-41.31,1.86-10.18.23-12.16.16-12.94-.42-.51-.38-.78-.82-.62-1a46,46,0,0,1,6.94-.73c17.91-1.12,38.3-3.2,52.44-5.32,1.77-2.2,3.56-4.41,5.33-6.62a16,16,0,0,0,1.42-2.19l-2.52.66a326.89,326.89,0,0,1-43.12,7.92c-13.34,1.57-22,2.93-22.61,3.53-.71.17-.24,2-1.54-1.42,0,0-.91-2-.13-1.77C303.49,358.91,322.82,355.36,339.94,351.77Z"/><path class="cls-1" d="M311.93,370h0c-.65,0-.65.12-.57.31,7.48,10.17,16.18,18.05,24,25.82l3.74-4.63-7.45-5.82c-5.08-3.95-9.17-7.24-9.09-7.32a26.23,26.23,0,0,1,3.77,2.13c3.06,1.9,9,5.38,14.66,8.65l2.49-3.09c-6.08-2.7-12.15-5.49-15.35-7.12-3.94-2-4.55-2.17,10.63,2.95,2.16.73,4.3,1.43,6.38,2.11l2.55-3.17c-2.21-.5-4.33-1-6.16-1.46-14.17-3.54-27.78-7.8-18.88-5.9,8.64,1.84,18.59,3.53,27.18,4.7l2.52-3.13.93-1.16c-7.91-.52-17.45-1.41-30-2.77C315.91,370.31,313,370,311.93,370Z"/><path class="cls-1" d="M295.87,342.11l-.07-6.72L300,334c8.74-3,27.53-11.7,36.51-16.87a107.41,107.41,0,0,0,24.44-18.51c.93-.91,1.8-1.8,2.62-2.67q-1.45-6.29-2.89-12.55a42.63,42.63,0,0,1-1.85,4.94c-4.28,9.54-18.17,20.39-40.34,31.54-5.34,2.68-12.62,6.12-16.18,7.64s-6.52,2.78-6.58,2.81c-.3.15-2.09,13.38-3.34,24.79-1.63,14.77-2.88,22.68-4.45,28.26-1.64,5.78-6.48,15.19-10.76,20.9a94.43,94.43,0,0,1-7.75,8.81,92.89,92.89,0,0,1-8.14,6.65h21.09A73.69,73.69,0,0,0,292,402c.34-.81.67-1.61.95-2.38,4.85-13.14,5.93-24.59,4-42.11C296.38,352.72,295.91,345.8,295.87,342.11Z"/><path class="cls-1" d="M509.56,393.05,462.49,325v68.09H428.87V246h33.62v63.88l45-63.88h38.25l-49.6,71.66,51.7,75.44Z"/><path class="cls-1" d="M654.57,288V393.05H623.05v-9.88c-5.67,7.77-16.17,12.82-30,12.82-21.23,0-39.3-15.13-39.3-43.5V288h31.52v59.89c0,13,8.2,19.12,18.28,19.12,11.56,0,19.54-6.73,19.54-21.64V288Z"/><path class="cls-1" d="M790.76,340.51c0,31.31-22.7,55.48-50.22,55.48-14.09,0-24.38-4.83-31.31-12.82v9.88H677.71V246h31.52v51.91c6.93-8,17.22-12.82,31.31-12.82C768.06,285,790.76,309.2,790.76,340.51Zm-31.52,0c0-15.75-10.51-25.63-25-25.63s-25,9.88-25,25.63,10.5,25.64,25,25.64S759.24,356.27,759.24,340.51Z"/><path class="cls-1" d="M862,367.83c8.62,0,16-3.36,20.17-8l25.21,14.5C897.11,388.63,881.55,396,861.59,396c-35.93,0-58.2-24.17-58.2-55.48S826.08,285,859.27,285c30.69,0,53.38,23.75,53.38,55.47a61.14,61.14,0,0,1-1.26,12.61H836.8C840.79,364.05,850.45,367.83,862,367.83Zm19.33-38.24C878,317.4,868.53,313,859.07,313c-12,0-20,5.88-22.91,16.6Z"/><path class="cls-1" d="M925.28,319.5c0-43.29,32.15-76.49,76.49-76.49,26.68,0,50.22,13.24,63,34l-29,16.81c-6.51-11.35-19.12-18.07-34-18.07-26.06,0-42.87,17.44-42.87,43.71s16.81,43.7,42.87,43.7c14.91,0,27.74-6.71,34-18.06l29,16.8c-12.6,20.81-36.14,34.05-63,34.05C957.43,396,925.28,362.78,925.28,319.5Z"/><path class="cls-1" d="M1114.21,246v147.1h-33.63V246Z"/></svg>