<svg width="142" height="46" viewBox="0 0 142 46" fill="none" xmlns="http://www.w3.org/2000/svg">
<g clip-path="url(#clip0)">
<path d="M16.9881 24.5362C17.6331 23.2523 17.9114 22.4068 18.6133 19.5979C19.3046 16.8294 19.6608 15.514 19.7252 15.4361C19.7581 15.3972 19.7656 15.4646 19.7401 15.5858C19.7042 15.7624 19.7192 15.8103 19.806 15.8103C20.1053 15.8103 21.6287 15.0815 22.9486 14.3063C25.732 12.6692 27.0908 11.5483 27.6385 10.4349C27.887 9.9291 27.9094 9.83632 27.9094 9.31255C27.9094 8.67804 27.8211 8.48799 27.3916 8.19318C27.028 7.94626 26.6539 7.86994 25.8009 7.87443C24.903 7.87443 24.1682 8.03455 23.1775 8.43411C21.063 9.28711 18.8377 11.1697 17.2739 13.4189C16.7696 14.1462 16.5377 14.5607 15.5844 16.4343C14.6132 18.3453 14.4246 18.6895 13.823 19.6727C12.0871 22.516 10.417 24.0304 8.2277 24.7682C7.02303 25.1737 6.00841 25.0406 5.68368 24.4345C5.32602 23.7656 6.24935 22.5055 7.90296 21.4056C8.99689 20.6783 11.511 19.2851 11.5888 19.3629C11.6666 19.4407 11.4242 19.8747 11.1623 20.1201C10.7855 20.4057 10.385 20.6585 9.96511 20.8759C8.41326 21.7139 7.47197 22.4517 6.99759 23.1999C6.72672 23.6294 6.69829 24.0708 6.93773 24.237C7.26097 24.4644 8.27109 24.3088 8.99988 23.9212C9.49671 23.6563 10.4724 22.8662 11.1443 22.1868C12.2278 21.0899 13.0583 19.7924 14.266 17.3367C16.0827 13.6314 16.4224 13.0193 17.3398 11.7847C19.1251 9.39037 22.0672 7.49732 24.9718 6.88825C25.7249 6.75418 26.4931 6.72647 27.254 6.80594C27.863 6.92716 28.4242 7.13368 28.8312 7.48684C28.7609 7.17707 28.6816 6.8688 28.6187 6.55902C28.5227 6.05795 28.2588 5.60456 27.8705 5.27355C26.8047 5.16313 25.7279 5.23755 24.6875 5.49353C22.8547 5.96919 21.1304 6.79273 19.6084 7.91932C18.0997 9.05071 16.8006 10.4374 15.77 12.0167C15.0726 13.1301 14.6237 14.1028 13.7617 16.3655C13.1631 17.9143 12.2742 19.77 11.6846 20.6678C10.7597 22.073 8.68113 23.8015 8.07655 23.6683C7.80718 23.6084 7.99574 23.2059 8.5255 22.6986C8.85472 22.3873 10.3512 21.3517 10.6206 21.244C10.6894 21.2171 10.7029 21.244 10.667 21.3368C10.631 21.4296 10.6325 21.455 10.7373 21.3697C10.9169 21.22 11.4272 20.4194 11.7414 19.7879C12.3056 18.6566 12.4074 18.3737 13.5507 14.7687C14.456 11.9164 15.122 10.5905 16.4449 9.00128C18.1751 6.93954 20.4222 5.37468 22.9561 4.46695C23.396 4.3173 24.5498 3.9761 24.8925 3.90726L25.0751 3.87135L22.3919 2.59485C20.9194 3.17375 19.5253 3.9349 18.2421 4.86052C16.3102 6.29565 14.8227 8.15278 13.9951 10.1536C13.3965 11.5992 13.0119 13.0119 12.4104 15.9135C11.9794 17.9996 11.6711 19.2791 11.713 18.8047C11.7399 18.5054 11.7369 18.5054 11.5559 18.5503C11.1069 18.6611 9.33359 19.541 8.2247 20.2039C5.70612 21.7139 4.22461 23.2687 4.22461 24.4016C4.22629 24.4471 4.23029 24.4926 4.23658 24.5377L5.26766 25.8187C5.33526 25.8427 5.40422 25.8627 5.47417 25.8786C6.03386 25.9998 7.249 25.9175 8.04812 25.705C9.85587 25.2246 12.0153 23.6698 13.4564 21.8141C14.2854 20.7442 14.8227 19.8852 15.7954 18.0729C17.1542 15.5289 17.4415 15.0306 17.9653 14.239C18.2751 13.7706 18.7345 13.142 18.9844 12.8413C20.8355 10.6085 23.5292 8.91449 25.2053 8.93544C26.0209 8.94442 26.3516 9.19134 26.3516 9.79292C26.3516 10.5651 25.6692 11.4555 24.3792 12.3639C22.9201 13.392 20.3193 14.9079 20.0065 14.9079C19.8943 14.9079 19.8973 14.8076 20.017 14.5757C20.1771 14.2674 20.3851 14.1178 21.5793 13.4488C23.0399 12.6317 23.7761 12.1229 24.3807 11.5154C24.9164 10.9766 25.1768 10.5561 25.1753 10.2314C25.1753 9.95753 25.1155 9.86924 24.876 9.78245C24.4376 9.61634 23.7387 9.76299 22.7899 10.2209C21.6182 10.7866 20.3956 11.8835 19.3091 13.3336C18.3289 14.6475 18.07 15.1204 16.159 19.0995C15.7954 19.8553 15.3554 20.7112 15.1803 21.0001C13.0853 24.4734 9.16449 26.8453 6.12963 26.9007L7.04847 28.0425C7.51743 27.985 7.98193 27.8955 8.4387 27.7746C11.0815 27.0713 13.8066 25.0974 15.3225 22.7899C16.1321 21.5553 16.819 20.1456 18.2272 16.8279C19.3795 14.1133 20.4914 12.515 22.1001 11.2655C22.8782 10.6669 23.7223 10.3421 23.7806 10.6309C23.839 10.9198 22.1689 12.3474 21.2261 12.8263C20.9343 12.9759 20.8924 12.9221 21.0765 12.6287C21.3144 12.2427 20.4659 13.1405 20.1247 13.6359C19.4109 14.67 19.164 15.303 17.8471 19.4841C17.232 21.4296 16.7487 22.4995 15.9136 23.7491C14.0206 26.5774 11.0605 28.5543 7.96581 29.1679L7.97329 29.1768C8.17607 29.4401 8.43856 29.6514 8.73909 29.7932C9.03963 29.935 9.36959 30.0033 9.70173 29.9924H11.0785C13.4639 28.876 15.339 27.4783 16.9881 24.5362Z" fill="#326CE5"/>
<path d="M22.6508 16.8817L21.5838 17.3007C20.9597 17.5491 20.409 17.7497 20.0454 17.8634L19.6473 17.9861V18.269C19.6414 18.393 19.6597 18.517 19.7012 18.6341C19.8 18.7912 23.5921 17.4369 25.9041 16.4208C27.4493 15.7633 28.9345 14.9727 30.3427 14.0579C30.2424 13.6224 30.1436 13.1884 30.0434 12.7529C29.8054 12.9774 29.572 13.1839 29.361 13.3515C27.8585 14.5263 25.4746 15.7818 22.6508 16.8817Z" fill="#326CE5"/>
<path d="M10.2658 12.9596C10.3436 12.8877 10.0428 12.3101 9.34842 11.1952C7.34015 7.97029 6.52905 6.14608 6.12201 3.91931L4.37412 4.75734C5.04173 6.06054 5.81816 7.30504 6.69516 8.47759C7.41198 9.42038 8.40265 10.6475 8.54032 10.7612C8.62113 10.8271 8.64957 10.8809 8.60467 10.8824C8.49393 10.8824 7.12016 9.61941 5.88706 8.38331C4.95443 7.45729 4.08596 6.46882 3.28768 5.42477C3.02661 5.68561 2.84364 6.01423 2.75942 6.37354C2.74595 6.42741 2.73398 6.48278 2.72051 6.53666C3.25026 7.05743 3.82042 7.59467 4.12271 7.82961C4.46541 8.09599 5.30493 8.74098 5.99032 9.26025C6.67571 9.77953 7.26532 10.239 7.30423 10.2794C7.51523 10.4993 4.15114 8.46712 2.63671 7.45849L2.52447 7.38516L2.32694 8.23367C2.92553 8.53296 3.55854 8.85022 3.94912 9.03279C4.23495 9.16448 4.96074 9.51016 5.56382 9.80048C6.1669 10.0908 6.68469 10.3287 6.71761 10.3287C6.73744 10.3308 6.75652 10.3375 6.77339 10.3481C6.79025 10.3587 6.80445 10.3731 6.81488 10.3901C6.89419 10.5188 4.45194 9.67029 2.49753 8.89361L2.19824 8.77689C2.14137 9.02531 2.08151 9.27372 2.02465 9.52513C2.47958 9.65882 2.9814 9.79899 3.53011 9.94564C5.63266 10.5068 7.96867 11.1787 7.93575 11.2117C7.6842 11.1902 7.43428 11.1527 7.1875 11.0994C6.19384 10.9124 6.13997 10.9034 5.32588 10.7522L3.97905 10.5068C3.63785 10.4455 2.85968 10.2883 2.25061 10.1596L1.89595 10.0848L1.7029 10.9184C2.24612 10.9827 2.78935 11.0456 3.25326 11.0949C5.58926 11.3493 8.64059 11.7639 8.71242 11.8432C8.73487 11.8656 8.61215 11.8656 8.44006 11.8432C7.72773 11.7474 4.3831 11.6097 1.55625 11.5753C1.47993 11.903 1.4066 12.2323 1.32878 12.56L2.15035 12.5256C2.28354 12.5166 3.06171 12.4882 3.87879 12.4627C4.69586 12.4373 5.52491 12.4029 5.71197 12.3864C5.89903 12.3699 6.53953 12.34 7.12914 12.3191C7.71876 12.2981 8.52835 12.2637 8.92492 12.2427C9.60582 12.2068 9.66119 12.2128 9.78689 12.352C9.97545 12.5615 9.87369 12.6019 9.03865 12.6588C7.93275 12.7321 4.01497 13.1077 1.12676 13.407C1.03896 13.7951 0.949673 14.1822 0.858887 14.5683C2.95396 14.1717 5.60722 13.7198 8.30089 13.3202C9.63724 13.1152 10.2104 13.0119 10.2658 12.9596Z" fill="#326CE5"/>
<path d="M11.0319 18.1299C11.2778 18.0616 11.5164 17.9694 11.7443 17.8545C11.7936 17.8111 11.8804 17.4969 11.9343 17.1572C12.0286 16.575 12.051 16.1979 12.1378 13.6464C12.2975 8.9724 14.1192 5.3574 17.603 2.80141C18.3273 2.26866 18.4006 2.22377 19.5738 1.5713C19.6696 1.51743 19.7804 1.46057 19.8926 1.4022L16.9445 0C14.203 2.0412 12.3578 4.62562 11.659 7.46295C11.3432 8.74394 11.3073 9.1016 11.3088 10.9527C11.3088 12.3789 11.3402 12.9311 11.4584 13.7961C11.7188 15.6726 11.7173 15.6337 11.5318 15.6442C11.2325 15.6607 8.04795 16.9342 6.50957 17.6555C6.15191 17.8231 5.84812 17.9548 5.83316 17.9548C5.75983 17.9548 3.20833 19.2627 2.496 19.6653C1.85252 20.0289 1.41255 20.2938 1.02197 20.5527L1.79565 21.5119C1.92585 21.3922 2.04856 21.2815 2.14284 21.2051C3.87726 19.7954 6.98096 18.1598 10.5381 16.78C11.1367 16.5466 11.6455 16.364 11.656 16.3745C11.6806 16.4943 11.6952 16.6159 11.6994 16.7381L11.7218 17.0808L10.8568 17.4026C8.10033 18.4307 5.15675 20.0334 3.1365 21.6062C2.87734 21.8082 2.63187 22.0271 2.40173 22.2616L2.91053 22.8947L3.23676 23.2987C3.3356 23.1302 3.44455 22.9677 3.563 22.8124C4.12418 22.0866 4.80657 21.5388 6.47216 20.4763C7.87735 19.5859 10.1715 18.4022 11.0319 18.1299Z" fill="#326CE5"/>
<path d="M10.2942 15.4601C10.6203 15.3842 10.9396 15.2816 11.2489 15.1533C11.3552 15.0755 11.3582 15.0157 11.2774 14.5188C11.2295 14.2195 10.9945 13.19 10.7566 12.2367C10.0966 9.60439 10.0637 9.37543 10.0682 7.55271C10.0682 6.21636 10.0937 5.88863 10.2179 5.28405C10.5401 3.81206 11.1202 2.40868 11.9313 1.13879L10.99 1.58774L8.20659 2.91811C8.16553 3.46582 8.15604 4.01544 8.17816 4.56424C8.19649 6.12606 8.44508 7.67664 8.91592 9.16592C9.26656 10.328 9.70428 11.4621 10.2253 12.5584C10.3568 12.8204 10.4741 13.0891 10.577 13.3635C10.577 13.3965 10.149 13.4952 9.62525 13.579C8.69295 13.7287 6.87023 14.0789 6.32402 14.2091C6.17437 14.2465 5.59523 14.3722 5.04453 14.4904C3.78299 14.7598 2.02313 15.1488 0.632901 15.508L0.31415 16.8893C2.69804 16.0572 5.02657 15.4003 9.11346 14.3841L10.8658 13.9487L10.996 14.1642C11.0679 14.2824 11.1023 14.4036 11.0723 14.4335C10.694 14.5686 10.3077 14.6801 9.91557 14.7672C9.31698 14.9169 8.73485 15.074 8.64057 15.1084C8.54629 15.1429 8.14074 15.2701 7.74268 15.3898C6.81337 15.6666 4.21847 16.5151 3.45526 16.7905C2.22965 17.2304 0.966617 17.7482 0.0373026 18.1717C-0.00398082 18.3918 -0.0110475 18.6169 0.0163519 18.8392C0.0550271 19.077 0.133437 19.3067 0.248305 19.5186C1.27959 18.9132 2.35165 18.3802 3.45676 17.9233C5.50694 17.0628 8.9683 15.8193 10.2942 15.4601Z" fill="#326CE5"/>
<path d="M26.2138 19.8253C27.9367 19.4702 29.6388 19.0206 31.3123 18.4785C31.308 18.3431 31.2915 18.2083 31.2629 18.0759C31.2075 17.832 31.1507 17.5881 31.0953 17.3441L30.9995 17.3875C29.6662 17.9861 27.7162 18.5638 22.733 19.8388C21.5223 20.1485 20.4882 20.4194 20.4374 20.4374C20.3865 20.4553 20.2982 20.385 20.2278 20.2473C20.1186 20.0378 20.1186 20.0154 20.2278 19.9375C20.539 19.8121 20.8598 19.712 21.1871 19.6382C25.0136 18.6401 28.6201 17.4115 30.8723 16.3684L30.7421 15.8013C30.6912 15.5813 30.6404 15.3613 30.5925 15.1428C30.4144 15.2506 30.2438 15.3523 30.1001 15.4346C28.1367 16.5495 24.7757 17.8485 21.2903 18.8391C19.8971 19.2357 19.8552 19.2522 19.8552 19.4272C19.8552 19.6308 20.0947 20.798 20.4403 22.2706C20.8758 24.1337 20.9177 24.433 20.9222 25.8097C20.9336 26.86 20.793 27.9064 20.5047 28.9164C20.379 29.2696 20.2249 29.6317 20.0558 29.9999H21.6345C21.9129 30.0017 22.1891 29.951 22.4486 29.8502C22.4666 29.4552 22.4711 29.0631 22.4606 28.686C22.507 28.4046 22.4711 27.4813 22.3723 26.778C22.308 26.3141 22.2227 25.8292 22.1059 25.3458C21.9276 24.5209 21.6772 23.7132 21.3577 22.932C21.2245 22.6013 21.0778 22.2646 20.9087 21.9099C20.8691 21.8239 20.838 21.7342 20.816 21.642C20.816 21.5912 20.8713 21.675 20.9342 21.8276C20.997 21.9802 21.4041 22.7255 21.8396 23.4932C22.7838 25.1513 23.5426 27.2538 23.8867 28.1143C23.9167 28.1876 23.9481 28.2879 23.9825 28.3986L25.048 27.0758C24.8849 26.7929 24.7352 26.543 24.6245 26.3739C24.3342 25.9354 23.547 24.8595 22.8736 23.9795C22.2002 23.0996 21.663 22.3723 21.6764 22.3589C21.6899 22.3454 22.923 22.4037 24.6694 22.525C25.5014 22.5818 27.1715 22.5878 28.6815 22.5579L29.3803 21.6899C28.026 21.8186 26.1449 21.9024 23.1984 21.9683C21.6749 22.0027 21.3786 21.9922 21.2619 21.9054C21.1856 21.8486 21.1452 21.7827 21.1691 21.7558C21.5121 21.6931 21.8592 21.6566 22.2077 21.6465C24.8879 21.4789 27.9392 21.1677 30.0552 20.8504C30.3201 20.5212 30.588 20.1905 30.8529 19.8597C30.9325 19.7565 31.0036 19.6468 31.0654 19.532L30.6882 19.6308C28.5663 20.1698 26.4105 20.5658 24.2354 20.816C22.2391 21.0509 20.9432 21.2544 20.8519 21.3442C20.7456 21.3697 20.816 21.6435 20.6214 21.1317C20.6214 21.1317 20.4852 20.8324 20.602 20.8669C20.7591 20.8938 23.6518 20.3625 26.2138 19.8253Z" fill="#326CE5"/>
<path d="M22.0221 22.5535C21.9248 22.5535 21.9248 22.5714 21.9368 22.5999C23.0562 24.1218 24.3581 25.301 25.5284 26.4638L26.088 25.7709L24.9732 24.8999C24.213 24.3088 23.6009 23.8165 23.6129 23.8045C23.8094 23.895 23.9981 24.0017 24.177 24.1233C24.635 24.4076 25.5239 24.9284 26.3709 25.4177L26.7435 24.9553C25.8336 24.5513 24.9253 24.1337 24.4464 23.8898C23.8568 23.5905 23.7655 23.5651 26.0372 24.3313C26.3604 24.4405 26.6807 24.5453 26.9919 24.647L27.3735 24.1727C27.0428 24.0978 26.7255 24.023 26.4517 23.9542C24.3312 23.4244 22.2945 22.7869 23.6263 23.0712C24.9193 23.3466 26.4083 23.5995 27.6938 23.7746L28.0709 23.3062L28.2101 23.1326C27.0263 23.0548 25.5987 22.9216 23.7206 22.7181C22.6177 22.5999 22.1822 22.5535 22.0221 22.5535Z" fill="#326CE5"/>
<path d="M19.6189 18.3797L19.6084 17.3741L20.237 17.1661C21.5449 16.7171 24.3568 15.4152 25.7006 14.6415C27.0459 13.8978 28.2776 12.965 29.358 11.8715C29.4972 11.7353 29.6274 11.6022 29.7501 11.472C29.6054 10.8444 29.4613 10.2184 29.3176 9.59387C29.2407 9.84577 29.1482 10.0927 29.0408 10.3331C28.4003 11.7608 26.3217 13.3845 23.004 15.053C22.2048 15.4541 21.1154 15.9689 20.5827 16.1963C20.0499 16.4238 19.607 16.6124 19.598 16.6169C19.5531 16.6393 19.2852 18.6191 19.0981 20.3266C18.8542 22.5369 18.6672 23.7207 18.4322 24.5557C18.1868 25.4207 17.4625 26.8288 16.822 27.6833C16.4631 28.1464 16.0758 28.5867 15.6622 29.0017C15.2753 29.3562 14.8686 29.6884 14.4441 29.9969H17.6002C18.1995 29.1822 18.6839 28.2889 19.0398 27.3421C19.0907 27.2209 19.14 27.1012 19.182 26.986C19.9077 25.0196 20.0694 23.3061 19.7805 20.6843C19.6952 19.9675 19.6249 18.9319 19.6189 18.3797Z" fill="#326CE5"/>
<path d="M51.5971 26.0028L44.5531 15.8193V26.0088H39.522V3.99707H44.5531V13.5566L51.2873 3.99707H57.0113L49.5888 14.7209L57.3256 26.0103L51.5971 26.0028Z" fill="#326CE5"/>
<path d="M73.2975 10.2823V26.0029H68.5806V24.5244C67.7321 25.6871 66.1608 26.4428 64.0911 26.4428C60.9141 26.4428 58.21 24.1787 58.21 19.9332V10.2823H62.9269V19.2448C62.9269 21.1902 64.154 22.106 65.6624 22.106C67.3924 22.106 68.5866 21.0989 68.5866 18.8677V10.2823H73.2975Z" fill="#326CE5"/>
<path d="M93.678 18.1403C93.678 22.8258 90.281 26.4428 86.1626 26.4428C84.0541 26.4428 82.5142 25.72 81.4772 24.5243V26.0028H76.7603V3.99707H81.4772V11.7653C82.5142 10.5681 84.0541 9.84681 86.1626 9.84681C90.281 9.83334 93.678 13.4548 93.678 18.1403ZM88.9611 18.1403C88.9611 15.7834 87.3883 14.3048 85.2199 14.3048C83.0515 14.3048 81.4787 15.7834 81.4787 18.1403C81.4787 20.4973 83.05 21.9773 85.2199 21.9773C87.3898 21.9773 88.9611 20.4988 88.9611 18.1403Z" fill="#326CE5"/>
<path d="M104.339 22.2287C105.629 22.2287 106.734 21.7259 107.358 21.0315L111.13 23.2014C109.593 25.3414 107.265 26.4443 104.278 26.4443C98.901 26.4443 95.5684 22.8273 95.5684 18.1418C95.5684 13.4564 98.9639 9.83337 103.931 9.83337C108.523 9.83337 111.919 13.3875 111.919 18.1344C111.922 18.7682 111.858 19.4006 111.73 20.0214H100.568C101.165 21.6631 102.611 22.2287 104.339 22.2287ZM107.232 16.5062C106.734 14.682 105.316 14.0235 103.901 14.0235C102.105 14.0235 100.908 14.9035 100.472 16.5077L107.232 16.5062Z" fill="#326CE5"/>
<path d="M113.809 14.9963C113.809 8.518 118.62 3.54968 125.255 3.54968C129.248 3.54968 132.771 5.53103 134.683 8.63772L130.343 11.1533C129.369 9.4548 127.482 8.44916 125.255 8.44916C121.356 8.44916 118.84 11.059 118.84 14.9903C118.84 18.9215 121.356 21.5299 125.255 21.5299C127.487 21.5299 129.407 20.5258 130.343 18.8273L134.683 21.3413C132.798 24.4555 129.275 26.4369 125.255 26.4369C118.62 26.4443 113.809 21.473 113.809 14.9963Z" fill="#326CE5"/>
<path d="M142.082 3.99707V26.0103H137.049V3.99707H142.082Z" fill="#326CE5"/>
<path d="M4.98633 39.9395H1.48242V42.5645H5.57812V43.748H0V35.2168H5.53711V36.4121H1.48242V38.7676H4.98633V39.9395Z" fill="#FC6011"/>
<path d="M17.7687 37.4082L17.8098 38.1406C18.2785 37.5742 18.8937 37.291 19.6555 37.291C20.9758 37.291 21.6477 38.0469 21.6711 39.5586V43.748H20.2473V39.6406C20.2473 39.2383 20.1594 38.9414 19.9836 38.75C19.8117 38.5547 19.5285 38.457 19.134 38.457C18.5598 38.457 18.132 38.7168 17.8508 39.2363V43.748H16.427V37.4082H17.7687Z" fill="#FC6011"/>
<path d="M34.7113 35.8672V37.4082H35.8305V38.4629H34.7113V42.002C34.7113 42.2441 34.7582 42.4199 34.852 42.5293C34.9496 42.6348 35.1215 42.6875 35.3676 42.6875C35.5316 42.6875 35.6977 42.668 35.8656 42.6289V43.7305C35.5414 43.8203 35.2289 43.8652 34.9281 43.8652C33.8344 43.8652 33.2875 43.2617 33.2875 42.0547V38.4629H32.2445V37.4082H33.2875V35.8672H34.7113Z" fill="#FC6011"/>
<path d="M49.5152 43.8652C48.6129 43.8652 47.8805 43.582 47.318 43.0156C46.7594 42.4453 46.4801 41.6875 46.4801 40.7422V40.5664C46.4801 39.9336 46.6012 39.3691 46.8434 38.873C47.0895 38.373 47.4332 37.9844 47.8746 37.707C48.316 37.4297 48.8082 37.291 49.3512 37.291C50.2145 37.291 50.8805 37.5664 51.3492 38.1172C51.8219 38.668 52.0582 39.4473 52.0582 40.4551V41.0293H47.9156C47.9586 41.5527 48.1324 41.9668 48.4371 42.2715C48.7457 42.5762 49.1324 42.7285 49.5973 42.7285C50.2496 42.7285 50.7809 42.4648 51.191 41.9375L51.9586 42.6699C51.7047 43.0488 51.3648 43.3438 50.9391 43.5547C50.5172 43.7617 50.0426 43.8652 49.5152 43.8652ZM49.3453 38.4336C48.9547 38.4336 48.6383 38.5703 48.3961 38.8438C48.1578 39.1172 48.0055 39.498 47.9391 39.9863H50.652V39.8809C50.6207 39.4043 50.4938 39.0449 50.2711 38.8027C50.0484 38.5566 49.7398 38.4336 49.3453 38.4336Z" fill="#FC6011"/>
<path d="M66.2879 38.709C66.1004 38.6777 65.907 38.6621 65.7078 38.6621C65.0555 38.6621 64.616 38.9121 64.3895 39.4121V43.748H62.9656V37.4082H64.325L64.3602 38.1172C64.7039 37.5664 65.1805 37.291 65.7898 37.291C65.993 37.291 66.1609 37.3184 66.2937 37.373L66.2879 38.709Z" fill="#FC6011"/>
<path d="M82.5391 40.6426C82.5391 41.623 82.3164 42.4062 81.8711 42.9922C81.4258 43.5742 80.8281 43.8652 80.0781 43.8652C79.3828 43.8652 78.8262 43.6367 78.4082 43.1797V46.1855H76.9844V37.4082H78.2969L78.3555 38.0527C78.7734 37.5449 79.3418 37.291 80.0605 37.291C80.834 37.291 81.4395 37.5801 81.877 38.1582C82.3184 38.7324 82.5391 39.5312 82.5391 40.5547V40.6426ZM81.1211 40.5195C81.1211 39.8867 80.9941 39.3848 80.7402 39.0137C80.4902 38.6426 80.1309 38.457 79.6621 38.457C79.0801 38.457 78.6621 38.6973 78.4082 39.1777V41.9902C78.666 42.4824 79.0879 42.7285 79.6738 42.7285C80.127 42.7285 80.4805 42.5469 80.7344 42.1836C80.9922 41.8164 81.1211 41.2617 81.1211 40.5195Z" fill="#FC6011"/>
<path d="M96.8684 38.709C96.6809 38.6777 96.4875 38.6621 96.2883 38.6621C95.6359 38.6621 95.1965 38.9121 94.9699 39.4121V43.748H93.5461V37.4082H94.9055L94.9406 38.1172C95.2844 37.5664 95.7609 37.291 96.3703 37.291C96.5734 37.291 96.7414 37.3184 96.8742 37.373L96.8684 38.709Z" fill="#FC6011"/>
<path d="M109.082 43.748H107.659V37.4082H109.082V43.748ZM107.571 35.7617C107.571 35.543 107.639 35.3613 107.776 35.2168C107.916 35.0723 108.116 35 108.373 35C108.631 35 108.83 35.0723 108.971 35.2168C109.112 35.3613 109.182 35.543 109.182 35.7617C109.182 35.9766 109.112 36.1562 108.971 36.3008C108.83 36.4414 108.631 36.5117 108.373 36.5117C108.116 36.5117 107.916 36.4414 107.776 36.3008C107.639 36.1562 107.571 35.9766 107.571 35.7617Z" fill="#FC6011"/>
<path d="M123.992 42.0254C123.992 41.7715 123.886 41.5781 123.675 41.4453C123.468 41.3125 123.123 41.1953 122.638 41.0938C122.154 40.9922 121.75 40.8633 121.425 40.707C120.714 40.3633 120.359 39.8652 120.359 39.2129C120.359 38.666 120.589 38.209 121.05 37.8418C121.511 37.4746 122.097 37.291 122.808 37.291C123.566 37.291 124.177 37.4785 124.642 37.8535C125.111 38.2285 125.345 38.7148 125.345 39.3125H123.921C123.921 39.0391 123.82 38.8125 123.617 38.6328C123.414 38.4492 123.144 38.3574 122.808 38.3574C122.496 38.3574 122.24 38.4297 122.041 38.5742C121.845 38.7188 121.748 38.9121 121.748 39.1543C121.748 39.373 121.839 39.543 122.023 39.6641C122.207 39.7852 122.578 39.9082 123.136 40.0332C123.695 40.1543 124.132 40.3008 124.449 40.4727C124.769 40.6406 125.005 40.8438 125.158 41.082C125.314 41.3203 125.392 41.6094 125.392 41.9492C125.392 42.5195 125.156 42.9824 124.683 43.3379C124.211 43.6895 123.591 43.8652 122.826 43.8652C122.306 43.8652 121.843 43.7715 121.437 43.584C121.031 43.3965 120.714 43.1387 120.488 42.8105C120.261 42.4824 120.148 42.1289 120.148 41.75H121.531C121.55 42.0859 121.677 42.3457 121.912 42.5293C122.146 42.709 122.457 42.7988 122.843 42.7988C123.218 42.7988 123.504 42.7285 123.699 42.5879C123.894 42.4434 123.992 42.2559 123.992 42.0254Z" fill="#FC6011"/>
<path d="M139.229 43.8652C138.327 43.8652 137.595 43.582 137.032 43.0156C136.473 42.4453 136.194 41.6875 136.194 40.7422V40.5664C136.194 39.9336 136.315 39.3691 136.557 38.873C136.804 38.373 137.147 37.9844 137.589 37.707C138.03 37.4297 138.522 37.291 139.065 37.291C139.929 37.291 140.595 37.5664 141.063 38.1172C141.536 38.668 141.772 39.4473 141.772 40.4551V41.0293H137.63C137.673 41.5527 137.846 41.9668 138.151 42.2715C138.46 42.5762 138.846 42.7285 139.311 42.7285C139.964 42.7285 140.495 42.4648 140.905 41.9375L141.673 42.6699C141.419 43.0488 141.079 43.3438 140.653 43.5547C140.231 43.7617 139.757 43.8652 139.229 43.8652ZM139.059 38.4336C138.669 38.4336 138.352 38.5703 138.11 38.8438C137.872 39.1172 137.72 39.498 137.653 39.9863H140.366V39.8809C140.335 39.4043 140.208 39.0449 139.985 38.8027C139.762 38.5566 139.454 38.4336 139.059 38.4336Z" fill="#FC6011"/>
</g>
<defs>
<clipPath id="clip0">
<rect width="142" height="46" fill="white"/>
</clipPath>
</defs>
</svg>
