<svg xmlns="http://www.w3.org/2000/svg" width="64" height="64" fill="none" xmlns:v="https://vecta.io/nano"><g fill="#326ce5"><path d="M34.048 37.622c.989-1.969 1.416-3.265 2.492-7.572l1.705-6.381c.05-.06.062.044.023.229-.055.271-.032.344.101.344.459 0 2.795-1.117 4.819-2.306 4.268-2.51 6.351-4.229 7.191-5.936.381-.776.415-.918.415-1.721 0-.973-.135-1.264-.794-1.716-.558-.379-1.131-.496-2.439-.489-1.377 0-2.503.245-4.022.858-3.242 1.308-6.654 4.195-9.052 7.643-.773 1.115-1.129 1.751-2.591 4.624-1.489 2.93-1.778 3.458-2.701 4.965-2.662 4.36-5.222 6.682-8.579 7.813-1.847.622-3.403.418-3.901-.512-.548-1.026.867-2.958 3.403-4.644 1.677-1.115 5.532-3.251 5.652-3.132s-.252.785-.654 1.161a12.72 12.72 0 0 1-1.836 1.159c-2.379 1.285-3.823 2.416-4.55 3.564-.415.658-.459 1.335-.092 1.59.496.349 2.044.11 3.162-.484.762-.406 2.258-1.618 3.288-2.66 1.661-1.682 2.935-3.671 4.787-7.437 2.786-5.681 3.307-6.62 4.713-8.513 2.737-3.671 7.249-6.574 11.703-7.508 1.155-.206 2.333-.248 3.499-.126.934.186 1.794.502 2.419 1.044l-.326-1.423a3.44 3.44 0 0 0-1.147-1.971c-1.634-.169-3.285-.055-4.881.337-2.81.729-5.454 1.992-7.788 3.72a24.78 24.78 0 0 0-5.886 6.283c-1.069 1.707-1.758 3.199-3.079 6.668-.918 2.375-2.281 5.22-3.185 6.597-1.418 2.155-4.605 4.805-5.532 4.601-.413-.092-.124-.709.688-1.487.505-.477 2.799-2.065 3.213-2.23.105-.041.126 0 .071.142s-.053.181.108.05c.275-.23 1.058-1.457 1.54-2.425.865-1.735 1.021-2.168 2.774-7.696 1.388-4.374 2.409-6.407 4.438-8.843 2.653-3.161 6.099-5.561 9.984-6.953.675-.229 2.444-.753 2.969-.858l.28-.055-4.114-1.957a29.07 29.07 0 0 0-6.363 3.474c-2.962 2.201-5.243 5.048-6.512 8.116-.918 2.217-1.508 4.383-2.43 8.832-.661 3.199-1.134 5.161-1.069 4.433.041-.459.037-.459-.241-.39-.688.17-3.408 1.519-5.108 2.536-3.862 2.315-6.134 4.699-6.134 6.436a2.42 2.42 0 0 0 .018.209l1.581 1.964a2.81 2.81 0 0 0 .317.092c.858.186 2.721.06 3.947-.266 2.772-.736 6.083-3.121 8.293-5.966 1.271-1.641 2.095-2.958 3.586-5.737 2.084-3.901 2.524-4.665 3.327-5.879.475-.718 1.179-1.682 1.563-2.143 2.838-3.424 6.969-6.021 9.539-5.989 1.251.014 1.758.392 1.758 1.315 0 1.184-1.046 2.549-3.024 3.942-2.237 1.576-6.225 3.901-6.705 3.901-.172 0-.168-.154.016-.509.245-.473.564-.702 2.396-1.728 2.239-1.253 3.368-2.033 4.296-2.965.821-.826 1.221-1.471 1.218-1.969 0-.42-.092-.555-.459-.688-.672-.255-1.744-.03-3.199.672-1.797.867-3.671 2.549-5.337 4.773-1.503 2.015-1.9 2.74-4.83 8.841-.558 1.159-1.232 2.471-1.501 2.914-3.212 5.326-9.224 8.963-13.878 9.048l1.409 1.751a15.92 15.92 0 0 0 2.132-.411c4.052-1.078 8.231-4.105 10.555-7.643 1.241-1.893 2.295-4.055 4.454-9.142 1.767-4.162 3.472-6.613 5.939-8.529 1.193-.918 2.487-1.416 2.577-.973s-2.471 2.632-3.917 3.366c-.447.229-.512.147-.229-.303.365-.592-.936.785-1.459 1.544-1.095 1.586-1.473 2.556-3.492 8.967-.943 2.983-1.684 4.624-2.965 6.54-2.903 4.337-7.441 7.368-12.187 8.309l.012.014a3.21 3.21 0 0 0 1.174.945 3.23 3.23 0 0 0 1.476.306h2.111c3.658-1.712 6.533-3.855 9.061-8.366zm8.683-11.736l-1.636.642-2.359.863-.61.188v.434c-.009.19.019.38.083.56.151.241 5.966-1.836 9.511-3.394a44.38 44.38 0 0 0 6.806-3.623l-.459-2.001a16.82 16.82 0 0 1-1.046.918c-2.304 1.801-5.959 3.727-10.289 5.413zm-18.99-6.015c.119-.11-.342-.996-1.407-2.705-3.079-4.945-4.323-7.742-4.947-11.156l-2.68 1.285c1.024 1.998 2.214 3.907 3.559 5.704 1.099 1.446 2.618 3.327 2.829 3.502.124.101.168.184.099.186-.17 0-2.276-1.937-4.167-3.832a44.38 44.38 0 0 1-3.986-4.536 3.04 3.04 0 0 0-.81 1.455l-.06.25c.812.799 1.687 1.622 2.15 1.983l2.864 2.194 2.015 1.563c.323.337-4.835-2.779-7.157-4.325l-.172-.112-.303 1.301 2.487 1.225 2.476 1.177c.925.445 1.719.81 1.769.81a.2.2 0 0 1 .085.03c.026.016.048.038.064.064.122.197-3.623-1.104-6.62-2.295l-.459-.179-.266 1.147 2.308.645c3.224.86 6.806 1.891 6.755 1.941a9.04 9.04 0 0 1-1.147-.172l-2.855-.532-2.065-.376c-.523-.094-1.716-.335-2.65-.532l-.544-.115-.296 1.278 2.377.271c3.582.39 8.26 1.026 8.371 1.147.034.034-.154.034-.418 0-1.092-.147-6.221-.358-10.555-.411l-.349 1.51 1.26-.053a165.39 165.39 0 0 1 2.65-.096l2.811-.117c.287-.025 1.269-.071 2.173-.103l2.753-.117c1.044-.055 1.129-.046 1.322.168.289.321.133.383-1.147.47-1.696.112-7.703.688-12.132 1.147l-.411 1.781c3.212-.608 7.281-1.301 11.411-1.914 2.049-.314 2.928-.473 3.013-.553zm1.175 7.928a5.97 5.97 0 0 0 1.092-.422c.076-.066.209-.548.291-1.069.145-.893.179-1.471.312-5.383.245-7.167 3.038-12.71 8.38-16.629 1.111-.817 1.223-.886 3.022-1.886.147-.083.317-.17.489-.259L33.982 0c-4.204 3.13-7.033 7.093-8.104 11.443-.484 1.964-.539 2.513-.537 5.351 0 2.187.048 3.034.23 4.36.399 2.877.397 2.818.112 2.834-.459.025-5.342 1.978-7.701 3.084-.549.257-1.014.459-1.037.459-.112 0-4.025 2.005-5.117 2.623-.987.558-1.661.964-2.26 1.361l1.186 1.471c.2-.184.388-.353.532-.47 2.659-2.161 7.419-4.669 12.873-6.785.918-.358 1.698-.638 1.714-.622a3.33 3.33 0 0 1 .067.557l.035.526-1.326.493c-4.227 1.576-8.74 4.034-11.838 6.446-.397.31-.774.645-1.127 1.005l.78.971.5.62a7.44 7.44 0 0 1 .5-.746c.861-1.113 1.907-1.953 4.461-3.582 2.155-1.365 5.672-3.18 6.992-3.598z"/><path d="M23.784 23.706a9.37 9.37 0 0 0 1.464-.47c.163-.119.168-.211.044-.973-.074-.459-.434-2.038-.799-3.499-1.012-4.036-1.062-4.387-1.056-7.182 0-2.049.039-2.552.23-3.479a19.59 19.59 0 0 1 2.627-6.356l-1.443.688-4.268 2.04a21.96 21.96 0 0 0-.044 2.524 24.35 24.35 0 0 0 1.131 7.056 37.04 37.04 0 0 0 2.008 5.202 12.67 12.67 0 0 1 .539 1.235c0 .05-.656.202-1.459.33l-5.062.966-1.962.431-6.764 1.56-.489 2.118c3.655-1.276 7.226-2.283 13.492-3.841l2.687-.668.2.33c.11.181.163.367.117.413a14.92 14.92 0 0 1-1.774.512c-.918.229-1.811.47-1.955.523a42.12 42.12 0 0 1-1.377.431 206.91 206.91 0 0 0-6.574 2.148 72.31 72.31 0 0 0-5.241 2.118c-.063.337-.074.683-.032 1.023a3.29 3.29 0 0 0 .356 1.042 39.62 39.62 0 0 1 4.92-2.446c3.144-1.319 8.451-3.226 10.484-3.777zm24.41 6.693a73.58 73.58 0 0 0 7.818-2.065 3.44 3.44 0 0 0-.076-.617l-.257-1.122-.147.067c-2.044.918-5.034 1.804-12.675 3.759l-3.52.918c-.078.027-.213-.08-.321-.291-.168-.321-.168-.356 0-.475a9.57 9.57 0 0 1 1.471-.459c5.867-1.53 11.397-3.414 14.851-5.014l-.2-.87-.229-1.01-.755.447c-3.011 1.71-8.164 3.701-13.508 5.22-2.136.608-2.2.633-2.2.902 0 .312.367 2.102.897 4.36.668 2.857.732 3.316.739 5.427a16.69 16.69 0 0 1-.64 4.764c-.193.541-.429 1.097-.688 1.661h2.421a3.39 3.39 0 0 0 1.248-.229c.028-.606.034-1.207.018-1.785.071-.431.016-1.847-.135-2.926a22.67 22.67 0 0 0-.408-2.196 22.08 22.08 0 0 0-1.147-3.701 27.5 27.5 0 0 0-.688-1.567 2.22 2.22 0 0 1-.142-.411c0-.078.085.05.181.285s.721 1.377 1.388 2.554c1.448 2.542 2.611 5.766 3.139 7.086.046.112.094.266.147.436l1.634-2.028a24.45 24.45 0 0 0-.649-1.076c-.445-.672-1.652-2.322-2.685-3.671s-1.856-2.464-1.836-2.485 1.911.069 4.589.255c1.276.087 3.837.096 6.152.05l1.072-1.331c-2.077.197-4.961.326-9.479.427-2.336.053-2.79.037-2.969-.096-.117-.087-.179-.188-.142-.229a10.64 10.64 0 0 1 1.592-.168c4.11-.257 8.788-.734 12.033-1.221l1.223-1.519a3.68 3.68 0 0 0 .326-.502l-.578.151c-3.254.826-6.559 1.434-9.894 1.817-3.061.36-5.048.672-5.188.81-.163.039-.055.459-.353-.326 0 0-.209-.459-.03-.406.241.041 4.676-.773 8.605-1.597z"/><path d="M41.767 34.582c-.149 0-.149.028-.131.071 1.716 2.334 3.713 4.142 5.507 5.925l.858-1.062-1.709-1.335-2.086-1.68c.301.139.591.302.865.489l3.364 1.985.571-.709-3.522-1.634c-.904-.459-1.044-.498 2.439.677l1.464.484.585-.727-1.413-.335c-3.251-.812-6.374-1.79-4.332-1.354l6.237 1.078.578-.718.213-.266-6.884-.636-2.604-.252zm-3.685-6.4l-.016-1.542.964-.319c2.006-.688 6.317-2.685 8.378-3.871a24.66 24.66 0 0 0 5.608-4.247l.601-.613-.663-2.88a9.97 9.97 0 0 1-.424 1.134c-.982 2.189-4.169 4.679-9.256 7.237-1.225.615-2.896 1.404-3.713 1.753l-1.51.645c-.069.034-.48 3.07-.766 5.688-.374 3.389-.661 5.204-1.021 6.484-.376 1.326-1.487 3.486-2.469 4.796a21.67 21.67 0 0 1-1.778 2.022 21.17 21.17 0 0 1-1.868 1.526h4.839a16.91 16.91 0 0 0 2.207-4.071 11.92 11.92 0 0 0 .218-.546c1.113-3.015 1.361-5.642.918-9.663-.131-1.099-.239-2.687-.248-3.534z"/></g><path d="M6.662 58.808c-.084.885-.415 1.577-.99 2.075s-1.342.741-2.297.741c-.668 0-1.257-.156-1.768-.467s-.898-.762-1.175-1.339S.012 58.57 0 57.806v-.775c0-.783.14-1.472.42-2.069s.681-1.056 1.203-1.379 1.132-.484 1.82-.484c.925 0 1.67.249 2.234.747s.893 1.201.985 2.109H5.211c-.069-.596-.246-1.026-.53-1.288s-.693-.399-1.238-.399c-.633 0-1.121.23-1.463.69s-.511 1.127-.518 2.012v.735c0 .897.161 1.581.484 2.052s.802.707 1.428.707c.572 0 1.002-.127 1.29-.382s.47-.678.547-1.271h1.451zm1.401-.439c0-.604.121-1.147.363-1.63a2.61 2.61 0 0 1 1.019-1.117c.438-.262.941-.393 1.509-.393.841 0 1.522.268 2.044.804s.81 1.246.852 2.132l.006.325c0 .608-.119 1.151-.357 1.63s-.572.849-1.013 1.111-.944.393-1.52.393c-.879 0-1.584-.289-2.113-.866s-.789-1.355-.789-2.32v-.068zm1.399.12c0 .635.132 1.132.397 1.493s.633.536 1.106.536.839-.182 1.1-.547.397-.899.397-1.602c0-.623-.136-1.117-.409-1.482a1.29 1.29 0 0 0-1.1-.547c-.457 0-.82.181-1.088.541s-.403.893-.403 1.607zm7.384-3.146l.04.644c.438-.505 1.036-.758 1.796-.758.833 0 1.403.315 1.71.946.453-.631 1.09-.946 1.912-.946.687 0 1.198.188 1.532.564s.511.931.518 1.664v4.052h-1.399v-4.012c0-.391-.086-.678-.259-.861s-.459-.274-.858-.274c-.319 0-.58.086-.783.257a1.32 1.32 0 0 0-.42.661l.006 4.229h-1.399v-4.058c-.019-.726-.393-1.089-1.123-1.089-.561 0-.958.226-1.192.678v4.468h-1.399v-6.167h1.319zm10.753 0l.04.644c.438-.505 1.036-.758 1.797-.758.833 0 1.403.315 1.71.946.453-.631 1.09-.946 1.912-.946.687 0 1.198.188 1.532.564s.511.931.518 1.664v4.052h-1.399v-4.012c0-.391-.086-.678-.259-.861s-.459-.274-.858-.274c-.319 0-.58.086-.783.257a1.32 1.32 0 0 0-.42.661l.006 4.229h-1.399v-4.058c-.019-.726-.393-1.089-1.123-1.089-.561 0-.958.226-1.192.678v4.468H26.28v-6.167h1.319zm13.211 5.562c-.411.479-.994.718-1.751.718-.676 0-1.188-.196-1.537-.587s-.518-.957-.518-1.698v-3.995h1.399v3.978c0 .783.328 1.174.985 1.174.679 0 1.138-.241 1.376-.724v-4.428h1.399v6.167h-1.319l-.034-.604zm4.568-5.562l.04.712c.461-.551 1.065-.826 1.814-.826 1.297 0 1.958.735 1.981 2.206v4.075h-1.399v-3.995c0-.391-.086-.68-.259-.866s-.447-.285-.835-.285c-.564 0-.985.253-1.261.758v4.389H44.06v-6.167h1.319zm7.246 6.166h-1.399v-6.167h1.399v6.167zm-1.486-7.768c0-.213.067-.389.202-.53s.334-.211.587-.211.449.07.587.211.207.317.207.53a.71.71 0 0 1-.207.524c-.138.14-.334.205-.587.205s-.449-.068-.587-.205a.73.73 0 0 1-.202-.524zm5.259.103v1.499h1.1v1.026h-1.1v3.442c0 .236.046.407.138.513s.265.154.507.154c.161 0 .324-.019.489-.057v1.072a3.48 3.48 0 0 1-.921.131c-1.075 0-1.612-.587-1.612-1.761v-3.494h-1.025v-1.026h1.025v-1.499h1.399zm4.845 5.682l1.267-4.183H64l-2.476 7.102C61.144 63.481 60.499 64 59.589 64a2.53 2.53 0 0 1-.674-.103v-1.072l.265.017c.353 0 .618-.065.795-.194s.322-.338.426-.638l.202-.53-2.188-6.138h1.509l1.319 4.183z" fill="#00a651"/></svg>