<svg width="64" height="64" viewBox="0 0 64 64" fill="none" xmlns="http://www.w3.org/2000/svg">
<path d="M34.0482 37.6222C35.0372 35.6535 35.464 34.357 36.5402 30.05C37.6003 25.805 38.1464 23.7881 38.245 23.6688C38.2955 23.6091 38.307 23.7124 38.268 23.8982C38.2129 24.169 38.2359 24.2424 38.369 24.2424C38.8279 24.2424 41.1638 23.1249 43.1876 21.9363C47.4556 19.426 49.5391 17.7074 50.3789 16.0002C50.7598 15.2246 50.7942 15.0823 50.7942 14.2792C50.7942 13.3063 50.6589 13.0149 50.0003 12.5629C49.4427 12.1843 48.8691 12.0672 47.5611 12.0741C46.1844 12.0741 45.0577 12.3196 43.5387 12.9323C40.2964 14.2402 36.8843 17.1268 34.4865 20.5756C33.7132 21.6908 33.3575 22.3264 31.8959 25.1993C30.4067 28.1295 30.1176 28.6572 29.1951 30.1648C26.5334 34.5245 23.9726 36.8467 20.6156 37.9779C18.7684 38.5997 17.2127 38.3955 16.7148 37.4662C16.1664 36.4405 17.5821 34.5085 20.1177 32.8219C21.795 31.7067 25.65 29.5705 25.7693 29.6898C25.8886 29.8091 25.5169 30.4745 25.1153 30.8509C24.5376 31.2887 23.9234 31.6764 23.2796 32.0096C20.9001 33.2946 19.4568 34.4259 18.7294 35.5732C18.3141 36.2317 18.2705 36.9086 18.6377 37.1633C19.1333 37.5121 20.6821 37.2735 21.7996 36.6792C22.5614 36.273 24.0575 35.0615 25.0878 34.0197C26.7491 32.3378 28.0226 30.3483 29.8743 26.5829C32.66 20.9015 33.1809 19.963 34.5874 18.0699C37.3249 14.3986 41.8361 11.4959 46.2899 10.562C47.4447 10.3564 48.6226 10.3139 49.7892 10.4358C50.7231 10.6216 51.5836 10.9383 52.2077 11.4798C52.0999 11.0048 51.9783 10.5321 51.8819 10.0572C51.7346 9.28885 51.3299 8.59364 50.7346 8.0861C49.1004 7.91679 47.4493 8.0309 45.8539 8.42341C43.0436 9.15275 40.3997 10.4155 38.0661 12.143C35.7527 13.8778 33.7607 16.004 32.1804 18.4256C31.1111 20.1328 30.4227 21.6243 29.1011 25.0937C28.1832 27.4686 26.8202 30.3139 25.9161 31.6907C24.4981 33.8453 21.3109 36.4956 20.3839 36.2914C19.9708 36.1996 20.2599 35.5823 21.0722 34.8045C21.577 34.3272 23.8716 32.7393 24.2847 32.5741C24.3902 32.5328 24.4109 32.5741 24.3558 32.7164C24.3007 32.8586 24.303 32.8976 24.4637 32.7669C24.739 32.5374 25.5215 31.3098 26.0033 30.3415C26.8684 28.6067 27.0244 28.1731 28.7775 22.6454C30.1657 18.2718 31.1868 16.2388 33.2153 13.802C35.8683 10.6406 39.3138 8.24116 43.1991 6.84931C43.8737 6.61985 45.6428 6.09668 46.1683 5.99112L46.4482 5.93606L42.334 3.97876C40.0762 4.86641 37.9386 6.03351 35.9711 7.45279C33.0088 9.65331 30.7279 12.5009 29.459 15.5688C28.5412 17.7854 27.9515 19.9515 27.029 24.4007C26.3682 27.5994 25.8955 29.5613 25.9597 28.8339C26.001 28.375 25.9965 28.375 25.7188 28.4438C25.0304 28.6136 22.3113 29.9628 20.611 30.9794C16.7492 33.2946 14.4775 35.6787 14.4775 37.4157C14.4801 37.4856 14.4862 37.5553 14.4959 37.6245L16.0769 39.5887C16.1805 39.6255 16.2863 39.6561 16.3935 39.6805C17.2517 39.8664 19.1149 39.7402 20.3403 39.4143C23.1121 38.6778 26.4232 36.2937 28.633 33.4484C29.9042 31.8077 30.7279 30.4906 32.2194 27.7118C34.3029 23.811 34.7435 23.0469 35.5466 21.8331C36.0216 21.1149 36.726 20.1511 37.1092 19.6899C39.9476 16.2664 44.0779 13.6689 46.6479 13.701C47.8984 13.7148 48.4055 14.0934 48.4055 15.0158C48.4055 16.1998 47.3592 17.5651 45.3813 18.9579C43.144 20.5343 39.156 22.8588 38.6764 22.8588C38.5043 22.8588 38.5089 22.705 38.6925 22.3494C38.938 21.8767 39.257 21.6472 41.0881 20.6215C43.3276 19.3687 44.4565 18.5885 45.3836 17.6569C46.205 16.8308 46.6043 16.1861 46.602 15.6881C46.602 15.2682 46.5102 15.1328 46.1431 14.9997C45.4708 14.745 44.3992 14.9699 42.9444 15.6721C41.1477 16.5394 39.273 18.2214 37.6071 20.4448C36.1042 22.4595 35.7072 23.1846 32.777 29.2859C32.2194 30.4447 31.5448 31.7572 31.2763 32.2001C28.0639 37.5259 22.052 41.1628 17.3986 41.2477L18.8075 42.9985C19.5265 42.9103 20.2388 42.773 20.9391 42.5878C24.9914 41.5093 29.1699 38.4827 31.4943 34.9444C32.7357 33.0514 33.7889 30.8899 35.9481 25.8027C37.715 21.6403 39.4199 19.1897 41.8866 17.2737C43.0798 16.3559 44.3739 15.8579 44.4634 16.3008C44.5529 16.7436 41.9921 18.9327 40.5465 19.667C40.0991 19.8964 40.0348 19.8138 40.3171 19.3641C40.6819 18.7721 39.3809 20.1488 38.8577 20.9083C37.7632 22.4939 37.3846 23.4645 35.3653 29.8757C34.4222 32.8586 33.6811 34.4993 32.4007 36.4153C29.498 40.7521 24.9593 43.7833 20.214 44.724L20.2255 44.7378C20.5364 45.1415 20.9389 45.4655 21.3997 45.6829C21.8606 45.9003 22.3665 46.005 22.8758 45.9884H24.9868C28.6444 44.2766 31.5196 42.1334 34.0482 37.6222Z" fill="#326CE5"/>
<path d="M42.731 25.8855L41.0949 26.528C40.1381 26.9089 39.2936 27.2164 38.7361 27.3908L38.1257 27.5789V28.0126C38.1166 28.2028 38.1447 28.393 38.2083 28.5725C38.3597 28.8134 44.1743 26.7368 47.7194 25.1788C50.0888 24.1706 52.366 22.9583 54.5252 21.5556C54.3715 20.8879 54.22 20.2224 54.0663 19.5547C53.7015 19.8989 53.3435 20.2155 53.02 20.4725C50.7162 22.2738 47.0609 24.199 42.731 25.8855Z" fill="#326CE5"/>
<path d="M23.7408 19.8712C23.8601 19.7611 23.3989 18.8754 22.3342 17.1659C19.2548 12.221 18.0111 9.42389 17.387 6.00952L14.7069 7.2945C15.7306 9.29273 16.9211 11.201 18.2658 12.9989C19.365 14.4445 20.884 16.3261 21.0951 16.5005C21.219 16.6014 21.2626 16.684 21.1938 16.6863C21.024 16.6863 18.9175 14.7497 17.0268 12.8543C15.5967 11.4344 14.2651 9.91878 13.041 8.31789C12.6407 8.71785 12.3602 9.22173 12.231 9.77267C12.2104 9.85528 12.192 9.94018 12.1714 10.0228C12.9837 10.8213 13.8579 11.6451 14.3214 12.0053C14.8469 12.4138 16.1342 13.4027 17.1851 14.199C18.236 14.9952 19.1401 15.6996 19.1998 15.7616C19.5233 16.0989 14.365 12.9828 12.0429 11.4363L11.8708 11.3238L11.5679 12.6249C12.4857 13.0838 13.4564 13.5702 14.0553 13.8502C14.4935 14.0521 15.6064 14.5822 16.5311 15.0273C17.4559 15.4725 18.2498 15.8373 18.3003 15.8373C18.3307 15.8405 18.3599 15.8507 18.3858 15.867C18.4117 15.8833 18.4334 15.9053 18.4494 15.9314C18.571 16.1287 14.8262 14.8277 11.8295 13.6368L11.3706 13.4578C11.2834 13.8387 11.1916 14.2196 11.1044 14.6051C11.802 14.8101 12.5714 15.025 13.4128 15.2499C16.6367 16.1104 20.2186 17.1406 20.1681 17.1911C19.7824 17.1582 19.3992 17.1008 19.0208 17.019C17.4972 16.7322 17.4146 16.7184 16.1663 16.4867L14.1011 16.1104C13.578 16.0163 12.3848 15.7754 11.4509 15.578L10.9071 15.4633L10.6111 16.7414C11.444 16.8401 12.2769 16.9364 12.9883 17.0121C16.5701 17.4022 21.2488 18.0378 21.359 18.1594C21.3934 18.1939 21.2052 18.1939 20.9414 18.1594C19.8491 18.0126 14.7207 17.8015 10.3862 17.7487C10.2692 18.2512 10.1567 18.756 10.0374 19.2586L11.2971 19.2058C11.5014 19.192 12.6946 19.1484 13.9474 19.1094C15.2003 19.0704 16.4715 19.0176 16.7583 18.9924C17.0451 18.9672 18.0272 18.9213 18.9313 18.8891C19.8354 18.857 21.0767 18.8042 21.6848 18.7721C22.7289 18.717 22.8138 18.7262 23.0065 18.9396C23.2956 19.2609 23.1396 19.3228 21.8592 19.41C20.1635 19.5224 14.1562 20.0984 9.72763 20.5573C9.59301 21.1524 9.4561 21.7459 9.31689 22.3379C12.5293 21.7299 16.5977 21.0369 20.728 20.4242C22.777 20.1099 23.6559 19.9515 23.7408 19.8712Z" fill="#326CE5"/>
<path d="M24.9157 27.7991C25.2928 27.6945 25.6586 27.5531 26.008 27.3769C26.0837 27.3104 26.2168 26.8285 26.2994 26.3076C26.444 25.415 26.4784 24.8368 26.6115 20.9245C26.8562 13.7577 29.6495 8.21468 34.9913 4.2955C36.1019 3.47862 36.2144 3.40978 38.0133 2.40933C38.1602 2.32673 38.33 2.23954 38.5021 2.15005L33.9817 0C29.778 3.12984 26.9488 7.09262 25.8772 11.4432C25.393 13.4074 25.3379 13.9558 25.3402 16.7942C25.3402 18.981 25.3884 19.8277 25.5697 21.154C25.969 24.0314 25.9667 23.9717 25.6821 23.9878C25.2232 24.013 20.3403 25.9657 17.9815 27.0717C17.433 27.3287 16.9672 27.5307 16.9443 27.5307C16.8319 27.5307 12.9196 29.5361 11.8273 30.1534C10.8406 30.711 10.166 31.1171 9.56714 31.5141L10.7534 32.9849C10.9531 32.8014 11.1412 32.6316 11.2858 32.5145C13.9452 30.353 18.7043 27.845 24.1585 25.7294C25.0764 25.3714 25.8565 25.0915 25.8726 25.1076C25.9104 25.2912 25.9327 25.4777 25.9391 25.6651L25.9736 26.1906L24.6473 26.6839C20.4206 28.2603 15.9071 30.7179 12.8094 33.1295C12.412 33.4392 12.0357 33.7749 11.6828 34.1345L12.4629 35.1051L12.9631 35.7247C13.1147 35.4662 13.2818 35.2172 13.4634 34.9789C14.3239 33.8661 15.3702 33.0262 17.9241 31.3971C20.0787 30.0318 23.5963 28.2167 24.9157 27.7991Z" fill="#326CE5"/>
<path d="M23.7844 23.7055C24.2845 23.5891 24.7741 23.4317 25.2484 23.2351C25.4113 23.1157 25.4159 23.024 25.292 22.2621C25.2185 21.8032 24.8583 20.2245 24.4934 18.7629C23.4815 14.7267 23.431 14.3756 23.4379 11.5808C23.4379 9.53169 23.4769 9.02917 23.6674 8.10215C24.1615 5.8451 25.0509 3.69325 26.2947 1.74609L24.8514 2.43447L20.5834 4.47438C20.5205 5.3142 20.5059 6.15695 20.5398 6.99844C20.5679 9.39324 20.9491 11.7708 21.6711 14.0544C22.2087 15.8363 22.8799 17.5752 23.6789 19.2562C23.8804 19.6579 24.0604 20.0699 24.2181 20.4907C24.2181 20.5412 23.5618 20.6926 22.7587 20.8211C21.3292 21.0506 18.5344 21.5875 17.6968 21.7872C17.4674 21.8445 16.5794 22.0373 15.7349 22.2185C13.8006 22.6316 11.1021 23.2282 8.97045 23.7789L8.4817 25.8968C12.137 24.621 15.7074 23.6137 21.974 22.0556L24.661 21.3879L24.8606 21.7183C24.9707 21.8996 25.0235 22.0855 24.9776 22.1314C24.3975 22.3385 23.8052 22.5094 23.2039 22.6431C22.286 22.8725 21.3934 23.1134 21.2489 23.1662C21.1043 23.219 20.4825 23.414 19.8721 23.5976C18.4472 24.0221 14.4683 25.3231 13.2981 25.7454C11.4188 26.42 9.48215 27.2139 8.0572 27.8633C7.9939 28.2007 7.98306 28.5459 8.02507 28.8867C8.08437 29.2514 8.2046 29.6036 8.38073 29.9284C9.96204 29.0002 11.6059 28.1829 13.3004 27.4824C16.444 26.163 21.7514 24.2562 23.7844 23.7055Z" fill="#326CE5"/>
<path d="M48.1943 30.3988C50.8361 29.8543 53.446 29.1648 56.0121 28.3337C56.0055 28.126 55.9802 27.9195 55.9363 27.7164C55.8514 27.3424 55.7642 26.9684 55.6793 26.5944L55.5325 26.6609C53.488 27.5787 50.4981 28.4645 42.8571 30.4195C41.0008 30.8944 39.4152 31.3098 39.3372 31.3373C39.2592 31.3648 39.1238 31.257 39.0159 31.0459C38.8484 30.7246 38.8484 30.6902 39.0159 30.5709C39.4931 30.3786 39.9849 30.2251 40.4868 30.112C46.3541 28.5815 51.8841 26.6976 55.3375 25.0983L55.1378 24.2286C55.0598 23.8913 54.9818 23.554 54.9084 23.219C54.6353 23.3842 54.3737 23.5402 54.1534 23.6664C51.1429 25.3759 45.9892 27.3676 40.6451 28.8867C38.5088 29.4947 38.4446 29.52 38.4446 29.7884C38.4446 30.1005 38.8117 31.8903 39.3418 34.1482C40.0095 37.005 40.0737 37.4639 40.0806 39.5749C40.0981 41.1854 39.8825 42.7899 39.4404 44.3385C39.2477 44.88 39.0113 45.4353 38.7521 45.9998H41.1729C41.5997 46.0027 42.0232 45.9248 42.4211 45.7704C42.4487 45.1646 42.4555 44.5634 42.4395 43.9852C42.5106 43.5538 42.4555 42.138 42.3041 41.0595C42.2054 40.3482 42.0746 39.6048 41.8957 38.8636C41.6222 37.5987 41.2383 36.3602 40.7484 35.1624C40.5441 34.6553 40.3193 34.139 40.06 33.5952C39.9991 33.4633 39.9515 33.3257 39.9177 33.1845C39.9177 33.1064 40.0026 33.2349 40.099 33.469C40.1954 33.703 40.8195 34.8457 41.4872 36.0229C42.9351 38.5653 44.0985 41.7892 44.6262 43.1086C44.6721 43.2211 44.7203 43.3748 44.7731 43.5446L46.4069 41.5162C46.1567 41.0825 45.9273 40.6993 45.7575 40.44C45.3123 39.7677 44.1054 38.1179 43.0728 36.7686C42.0402 35.4194 41.2165 34.3042 41.2371 34.2836C41.2578 34.2629 43.1485 34.3524 45.8263 34.5383C47.1021 34.6255 49.6629 34.6346 51.9781 34.5888L53.0497 33.2579C50.9731 33.4552 48.0888 33.5837 43.5707 33.6847C41.2348 33.7375 40.7805 33.7214 40.6015 33.5883C40.4845 33.5011 40.4225 33.4002 40.4592 33.3588C40.9851 33.2628 41.5174 33.2068 42.0517 33.1913C46.1613 32.9343 50.84 32.4571 54.0846 31.9706C54.4907 31.4658 54.9015 30.9587 55.3076 30.4516C55.4297 30.2932 55.5387 30.1252 55.6335 29.9491L55.0552 30.1005C51.8015 30.927 48.4959 31.5342 45.1609 31.9178C42.0999 32.2781 40.1128 32.5902 39.9728 32.7278C39.8099 32.7668 39.9177 33.1868 39.6194 32.402C39.6194 32.402 39.4106 31.9431 39.5896 31.9959C39.8305 32.0372 44.266 31.2226 48.1943 30.3988Z" fill="#326CE5"/>
<path d="M41.7673 34.582C41.6181 34.582 41.6181 34.6096 41.6365 34.6532C43.3528 36.9868 45.3491 38.7949 47.1435 40.5778L48.0017 39.5154L46.2922 38.18C45.1266 37.2736 44.1881 36.5187 44.2064 36.5003C44.5078 36.6391 44.7971 36.8026 45.0715 36.9891C45.7736 37.425 47.1366 38.2236 48.4354 38.9739L49.0067 38.2649C47.6116 37.6453 46.2188 37.0051 45.4845 36.6311C44.5805 36.1722 44.4405 36.1332 47.9237 37.308C48.4193 37.4755 48.9104 37.6361 49.3876 37.7922L49.9728 37.0648C49.4657 36.9501 48.9792 36.8353 48.5593 36.7298C45.3078 35.9175 42.1849 34.94 44.2271 35.376C46.2096 35.7982 48.4927 36.186 50.4638 36.4544L51.0421 35.7362L51.2555 35.47C49.4404 35.3507 47.2514 35.1465 44.3716 34.8344C42.6805 34.6532 42.0128 34.582 41.7673 34.582Z" fill="#326CE5"/>
<path d="M38.0822 28.1823L38.0661 26.6403L39.0299 26.3214C41.0354 25.633 45.3469 23.6367 47.4075 22.4504C49.4703 21.3101 51.3589 19.8797 53.0155 18.2031C53.2289 17.9943 53.4285 17.7901 53.6167 17.5904C53.3949 16.6282 53.1738 15.6683 52.9535 14.7107C52.8356 15.0969 52.6938 15.4755 52.529 15.8442C51.5469 18.0333 48.3597 20.5229 43.2726 23.0814C42.0473 23.6964 40.3768 24.4857 39.5599 24.8345C38.743 25.1833 38.0638 25.4724 38.0501 25.4793C37.9812 25.5137 37.5705 28.5495 37.2837 31.1676C36.9097 34.5567 36.6228 36.3718 36.2626 37.6521C35.8863 38.9784 34.7757 41.1376 33.7936 42.4479C33.2433 43.1579 32.6494 43.8331 32.0153 44.4694C31.422 45.0129 30.7984 45.5223 30.1475 45.9953H34.9868C35.9058 44.7461 36.6485 43.3764 37.1942 41.9247C37.2722 41.7388 37.3479 41.5553 37.4122 41.3786C38.5251 38.3635 38.7729 35.7362 38.33 31.716C38.1992 30.6169 38.0914 29.029 38.0822 28.1823Z" fill="#326CE5"/>
<path d="M6.66219 58.8078C6.57773 59.6931 6.2476 60.3846 5.67178 60.8824C5.09597 61.3763 4.33013 61.6233 3.37428 61.6233C2.70633 61.6233 2.11708 61.4675 1.60653 61.156C1.09981 60.8406 0.708253 60.3941 0.431862 59.8166C0.15547 59.239 0.0115163 58.5684 0 57.8047V57.0295C0 56.2468 0.140115 55.5572 0.420345 54.9606C0.700576 54.3641 1.10173 53.9043 1.6238 53.5813C2.14971 53.2584 2.75624 53.0969 3.44338 53.0969C4.36852 53.0969 5.11324 53.3458 5.67754 53.8435C6.24184 54.3413 6.57006 55.0442 6.66219 55.9523H5.21113C5.14203 55.3558 4.96545 54.9264 4.68138 54.6642C4.40115 54.3983 3.98848 54.2653 3.44338 54.2653C2.80998 54.2653 2.32246 54.4952 1.98081 54.9549C1.64299 55.4109 1.47025 56.0815 1.46257 56.9668V57.7021C1.46257 58.5988 1.6238 59.2827 1.94626 59.7539C2.27255 60.225 2.74856 60.4606 3.37428 60.4606C3.94626 60.4606 4.3762 60.3333 4.66411 60.0788C4.95202 59.8242 5.13436 59.4005 5.21113 58.8078H6.66219Z" fill="#00A651"/>
<path d="M8.06334 58.3689C8.06334 57.7648 8.18426 57.2214 8.4261 56.7389C8.66795 56.2525 9.00768 55.8801 9.4453 55.6218C9.88292 55.3596 10.3858 55.2285 10.9539 55.2285C11.7946 55.2285 12.476 55.4964 12.9981 56.0321C13.524 56.5679 13.8081 57.2784 13.8503 58.1637L13.856 58.4886C13.856 59.0965 13.737 59.6399 13.499 60.1187C13.2649 60.5974 12.9271 60.9679 12.4856 61.2301C12.048 61.4922 11.5413 61.6233 10.9655 61.6233C10.0864 61.6233 9.38196 61.3345 8.85221 60.757C8.3263 60.1756 8.06334 59.4024 8.06334 58.4373V58.3689ZM9.46257 58.4886C9.46257 59.1231 9.59501 59.6209 9.85988 59.9819C10.1248 60.339 10.4933 60.5176 10.9655 60.5176C11.4376 60.5176 11.8042 60.3352 12.0653 59.9705C12.3301 59.6057 12.4626 59.0718 12.4626 58.3689C12.4626 57.7458 12.3263 57.2518 12.0537 56.887C11.785 56.5223 11.4184 56.3399 10.9539 56.3399C10.4971 56.3399 10.1344 56.5204 9.86564 56.8813C9.59693 57.2385 9.46257 57.7743 9.46257 58.4886Z" fill="#00A651"/>
<path d="M16.8464 55.3425L16.8868 55.9865C17.3244 55.4812 17.9232 55.2285 18.6833 55.2285C19.5163 55.2285 20.0864 55.5439 20.3935 56.1746C20.8464 55.5439 21.4837 55.2285 22.3052 55.2285C22.9923 55.2285 23.5029 55.4166 23.8369 55.7927C24.1747 56.1689 24.3474 56.7237 24.3551 57.457V61.5093H22.9559V57.4969C22.9559 57.1055 22.8695 56.8187 22.6967 56.6363C22.524 56.4539 22.238 56.3627 21.8388 56.3627C21.5202 56.3627 21.2591 56.4482 21.0557 56.6192C20.856 56.7864 20.7159 57.0067 20.6353 57.2803L20.6411 61.5093H19.2418V57.4513C19.2226 56.7256 18.8484 56.3627 18.119 56.3627C17.5585 56.3627 17.1612 56.5888 16.9271 57.0409V61.5093H15.5278V55.3425H16.8464Z" fill="#00A651"/>
<path d="M27.5988 55.3425L27.6392 55.9865C28.0768 55.4812 28.6756 55.2285 29.4357 55.2285C30.2687 55.2285 30.8388 55.5439 31.1459 56.1746C31.5988 55.5439 32.2361 55.2285 33.0576 55.2285C33.7447 55.2285 34.2553 55.4166 34.5893 55.7927C34.9271 56.1689 35.0998 56.7237 35.1075 57.457V61.5093H33.7083V57.4969C33.7083 57.1055 33.6219 56.8187 33.4491 56.6363C33.2764 56.4539 32.9904 56.3627 32.5912 56.3627C32.2726 56.3627 32.0115 56.4482 31.8081 56.6192C31.6084 56.7864 31.4683 57.0067 31.3877 57.2803L31.3935 61.5093H29.9942V57.4513C29.975 56.7256 29.6008 56.3627 28.8714 56.3627C28.3109 56.3627 27.9136 56.5888 27.6795 57.0409V61.5093H26.2802V55.3425H27.5988Z" fill="#00A651"/>
<path d="M40.81 60.9052C40.3992 61.3839 39.8157 61.6233 39.0595 61.6233C38.3839 61.6233 37.8714 61.4276 37.5221 61.0363C37.1766 60.6449 37.0038 60.0788 37.0038 59.3378V55.3425H38.4031V59.3207C38.4031 60.1035 38.7313 60.4948 39.3877 60.4948C40.0672 60.4948 40.5259 60.2535 40.7639 59.771V55.3425H42.1631V61.5093H40.8445L40.81 60.9052Z" fill="#00A651"/>
<path d="M45.3781 55.3425L45.4184 56.0549C45.8791 55.504 46.4837 55.2285 47.2322 55.2285C48.5297 55.2285 49.19 55.9637 49.2131 57.4342V61.5093H47.8138V57.514C47.8138 57.1226 47.7274 56.8339 47.5547 56.6477C47.3858 56.4577 47.1075 56.3627 46.7198 56.3627C46.1555 56.3627 45.7351 56.6154 45.4587 57.1207V61.5093H44.0595V55.3425H45.3781Z" fill="#00A651"/>
<path d="M52.6238 61.5093H51.2246V55.3425H52.6238V61.5093ZM51.1382 53.7409C51.1382 53.5282 51.2054 53.3515 51.3397 53.2109C51.4779 53.0703 51.6737 53 51.9271 53C52.1804 53 52.3762 53.0703 52.5144 53.2109C52.6526 53.3515 52.7217 53.5282 52.7217 53.7409C52.7217 53.9499 52.6526 54.1247 52.5144 54.2653C52.3762 54.4021 52.1804 54.4705 51.9271 54.4705C51.6737 54.4705 51.4779 54.4021 51.3397 54.2653C51.2054 54.1247 51.1382 53.9499 51.1382 53.7409Z" fill="#00A651"/>
<path d="M56.3973 53.8435V55.3425H57.4971V56.3684H56.3973V59.8109C56.3973 60.0465 56.4434 60.2174 56.5355 60.3238C56.6315 60.4264 56.8004 60.4777 57.0422 60.4777C57.2035 60.4777 57.3666 60.4587 57.5317 60.4207V61.4922C57.2131 61.5796 56.9059 61.6233 56.6104 61.6233C55.5355 61.6233 54.9981 61.0363 54.9981 59.8622V56.3684H53.9731V55.3425H54.9981V53.8435H56.3973Z" fill="#00A651"/>
<path d="M61.2418 59.5259L62.5086 55.3425H64L61.524 62.444C61.144 63.4813 60.499 64 59.5892 64C59.3858 64 59.1612 63.9658 58.9155 63.8974V62.8259L59.1804 62.843C59.5336 62.843 59.7985 62.7784 59.975 62.6492C60.1555 62.5238 60.2975 62.3111 60.4011 62.0109L60.6027 61.4808L58.4146 55.3425H59.9232L61.2418 59.5259Z" fill="#00A651"/>
</svg>
