<svg xmlns="http://www.w3.org/2000/svg" viewBox="0 0 1279 639" fill="#326ce5" xmlns:v="https://vecta.io/nano"><path d="M649.61 291.55c4.9-9.75 7-16.18 12.35-37.57 5.25-21 7.92-31 8.44-31.63.26-.3.32.21.12 1.18-.27 1.35-.16 1.7.5 1.7 2.29 0 13.85-5.54 23.88-11.43 21.16-12.44 31.48-21 35.64-29.42 1.9-3.84 2.06-4.54 2.06-8.53 0-4.82-.67-6.27-3.93-8.5-2.76-1.89-5.62-2.46-12.1-2.43-6.83 0-12.4 1.22-19.93 4.25-16.08 6.48-33 20.79-44.87 37.88-3.84 5.54-5.6 8.69-12.84 22.93-7.39 14.52-8.81 17.13-13.39 24.61-13.2 21.56-25.88 33.12-42.53 38.72-9.16 3.09-16.87 2.08-19.32-2.52-2.72-5.09 4.29-14.67 16.87-23 8.31-5.53 27.42-16.12 28-15.52s-1.25 3.88-3.25 5.75a61.91 61.91 0 0 1-9.13 5.74c-11.79 6.38-19 12-22.55 17.67-2.06 3.26-2.25 6.62-.46 7.88 2.46 1.73 10.14.55 15.68-2.4 3.77-2 11.19-8 16.29-13.18 8.24-8.34 14.55-18.15 23.73-36.87 13.82-28.16 16.39-32.8 23.37-42.19 13.56-18.24 35.92-32.58 58-37.21 4.71-1 13.36-1.3 17.35-.63 4.63.92 8.9 2.49 12 5.18l-1.62-7.06a17.09 17.09 0 0 0-5.73-9.77 70.74 70.74 0 0 0-24.12 1.67 112 112 0 0 0-38.6 18.44 122.48 122.48 0 0 0-29.18 31.15c-5.3 8.46-8.71 15.84-15.27 33-4.49 11.78-11.3 25.88-15.79 32.7-7 10.68-22.82 23.82-27.42 22.8-2-.45-.61-3.51 3.45-7.36 2.5-2.37 13.88-10.26 15.95-11.06.52-.2.62 0 .35.7-.32.87-.26.9.53.26 1.37-1.12 5.25-7.22 7.64-12 4.29-8.59 5.06-10.75 13.75-38.14 6.87-21.68 11.93-31.76 22-43.83A115.43 115.43 0 0 1 695 139c3.35-1.2 12.12-3.73 14.72-4.26l1.39-.26-20.39-9.71A143.59 143.59 0 0 0 659.2 142c-14.69 10.9-26 25-32.28 40.24-4.53 11-7.48 21.71-12 43.77-3.28 15.86-5.63 25.58-5.31 22 .2-2.24.18-2.28-1.2-1.94-3.4.85-16.88 7.54-25.31 12.58-19.2 11.47-30.49 23.29-30.49 31.91 0 .35 0 .68.08 1l7.84 9.74a15.07 15.07 0 0 0 1.57.46c4.25.92 13.49.29 19.57-1.33 13.73-3.65 30.15-15.46 41.1-29.58 6.31-8.12 10.39-14.66 17.78-28.48 10.33-19.3 12.49-23.12 16.49-29.14 2.36-3.55 5.84-8.33 7.74-10.62 14.06-16.91 34.6-29.78 47.32-29.65 6.2.07 8.72 1.94 8.72 6.51 0 5.88-5.19 12.64-15 19.54-11.1 7.82-30.87 19.32-33.24 19.35-.86 0-.83-.76.08-2.52 1.21-2.34 2.79-3.48 11.87-8.56 11.11-6.22 16.7-10.08 21.29-14.7 4.08-4.09 6.05-7.29 6-9.76 0-2.08-.45-2.75-2.27-3.44-3.33-1.27-8.64-.16-15.86 3.33-8.91 4.3-18.23 12.64-26.45 23.65-7.46 10-9.42 13.59-24 43.83-2.76 5.74-6.11 12.25-7.44 14.45-16 26.39-45.72 44.42-68.78 44.84l7 8.68a79.65 79.65 0 0 0 10.57-2c20.08-5.35 40.8-20.36 52.3-37.89 6.16-9.38 11.38-20.1 22.08-45.31 8.76-20.64 17.21-32.78 29.44-42.28 5.91-4.59 12.33-7 12.77-4.83s-12.24 13.1-19.4 16.76c-2.22 1.14-2.54.73-1.16-1.5 1.81-2.93-4.64 3.89-7.24 7.66-5.42 7.86-7.29 12.67-17.31 44.45-4.67 14.82-8.34 22.92-14.7 32.42-14.35 21.46-36.86 36.49-60.43 41.14l.06.07a15.9 15.9 0 0 0 13.13 6.2h10.47c18.22-8.51 32.48-19.13 45.01-41.5zm43.04-58.17l-8.15 3.18c-4.74 1.89-8.93 3.42-11.69 4.28l-3 .94v2.14a7.72 7.72 0 0 0 .41 2.78c.75 1.19 29.54-9.08 47.15-16.82 13.55-6 24.85-12 33.73-18l-2.28-9.91c-1.8 1.7-3.57 3.27-5.18 4.53-11.41 8.98-29.52 18.5-50.99 26.88zm-94.14-29.81c.59-.55-1.69-4.94-7-13.41-15.27-24.52-21.44-38.38-24.53-55.31l-13.33 6.38a195.61 195.61 0 0 0 17.65 28.27c5.44 7.17 13 16.49 14 17.35.61.5.83.92.48.93-.84 0-11.28-9.59-20.65-19a218.55 218.55 0 0 1-19.76-22.48 15.14 15.14 0 0 0-4 7.21 45.05 45.05 0 0 0-.28 1.24c4 4 8.35 8 10.65 9.83l14.19 10.87 10 7.74c1.6 1.68-24-13.77-35.48-21.43l-.85-.56q-.75 3.23-1.49 6.44l12.32 6.08 12.27 5.84c4.58 2.21 8.52 4 8.77 4a1 1 0 0 1 .74.47c.6 1-18-5.47-32.82-11.39l-2.24-.89-1.31 5.66q5.18 1.52 11.44 3.19c16 4.27 33.73 9.37 33.48 9.63a43.57 43.57 0 0 1-5.66-.86l-14.15-2.63-10.25-1.87c-2.61-.47-8.52-1.66-13.15-2.64l-2.7-.57q-.72 3.18-1.46 6.34l11.79 1.34c17.75 1.93 41 5.09 41.49 5.64.16.17-.77.17-2.07 0-5.41-.73-30.84-1.77-52.35-2l-1.73 7.49 6.25-.27c1-.07 6.92-.28 13.14-.47l13.93-.58c1.45-.12 6.29-.35 10.77-.51l13.69-.59c5.17-.27 5.59-.22 6.54.84 1.44 1.59.67 1.9-5.69 2.33-8.39.56-38.17 3.4-60.12 5.72l-2 8.83c15.93-3 36.09-6.45 56.56-9.48 10.15-1.54 14.5-2.29 14.92-2.72zm5.83 39.3a30.78 30.78 0 0 0 5.42-2.1c.37-.33 1-2.71 1.44-5.3.71-4.42.88-7.29 1.54-26.68q1.83-53.28 41.54-82.43c5.5-4 6.07-4.39 15-9.35.73-.41 1.57-.84 2.43-1.28q-11.21-5.34-22.4-10.66c-20.84 15.51-34.86 35.16-40.18 56.72-2.39 9.73-2.67 12.45-2.65 26.52 0 10.84.23 15 1.14 21.63 2 14.26 2 14 .56 14-2.32.13-26.48 9.81-38.18 15.29-2.7 1.27-5 2.31-5.13 2.31-.56 0-20 9.94-25.36 13-4.9 2.77-8.25 4.77-11.2 6.75q2.94 3.63 5.87 7.29c1-.92 1.92-1.76 2.64-2.34 13.18-10.71 36.77-23.14 63.8-33.63 4.59-1.78 8.42-3.16 8.5-3.08a14 14 0 0 1 .33 2.76l.17 2.61-6.62 2.48c-20.95 7.81-43.32 20-58.68 31.95a55.18 55.18 0 0 0-5.59 5l3.87 4.8c.83 1 1.65 2.05 2.48 3.08a35.29 35.29 0 0 1 2.49-3.7c4.26-5.52 9.44-9.69 22.1-17.76 10.69-6.82 28.13-15.81 34.67-17.88zm-5.61-20.29a47.63 47.63 0 0 0 7.26-2.34c.8-.59.82-1.05.22-4.82-.37-2.29-2.15-10.1-4-17.35-5-20-5.26-21.74-5.23-35.6 0-10.16.2-12.64 1.19-17.24a97.11 97.11 0 0 1 13-31.51l-7.16 3.44-21.15 10.1a110.25 110.25 0 0 0-.21 12.53c.4 13.54 1.68 21.52 5.6 35a184.22 184.22 0 0 0 10 25.78 63.76 63.76 0 0 1 2.66 6.12c0 .26-3.25 1-7.22 1.64-7.09 1.16-21 3.8-25.1 4.79-1.16.28-5.54 1.24-9.73 2.14-9.58 2-23 5-33.52 7.73l-2.43 10.5c18.13-6.32 35.82-11.32 66.88-19l13.32-3.31 1 1.64c.55.9.81 1.82.58 2.05a76.07 76.07 0 0 1-8.79 2.53l-9.69 2.6c-.69.26-3.8 1.22-6.84 2.13-7.06 2.11-26.78 8.55-32.59 10.65-9.3 3.35-18.9 7.28-26 10.5a16.61 16.61 0 0 0-.15 5.07 16.15 16.15 0 0 0 1.76 5.17 194.47 194.47 0 0 1 24.39-12.13c15.57-6.64 41.87-16.14 51.95-18.81zm120.99 33.17a362.35 362.35 0 0 0 38.76-10.27 17.29 17.29 0 0 0-.38-3.06l-1.28-5.56-.72.32c-10.13 4.55-25 8.95-62.83 18.64l-17.44 4.56c-.44.15-1.06-.4-1.6-1.44-.82-1.6-.83-1.77 0-2.36a49.42 49.42 0 0 1 7.29-2.31c29.1-7.59 56.5-16.92 73.62-24.85l-1-4.32q-.58-2.49-1.15-5l-3.74 2.22c-14.92 8.47-40.46 18.35-67 25.88-10.59 3-10.91 3.14-10.91 4.46 0 1.56 1.83 10.43 4.45 21.62 3.32 14.16 3.63 16.44 3.66 26.9a82.88 82.88 0 0 1-3.17 23.61c-1 2.68-2.13 5.43-3.4 8.23h12a17 17 0 0 0 6.19-1.18c.14-3 .17-6 .09-8.86.35-2.14.08-9.16-.67-14.51-.49-3.52-1.18-7.2-2-10.87a108.18 108.18 0 0 0-5.67-18.35c-1-2.51-2.12-5.08-3.36-7.77a10 10 0 0 1-.7-2c0-.38.41.26.89 1.42s3.58 6.85 6.88 12.65c7.19 12.61 13 28.59 15.57 35.13.22.55.47 1.32.72 2.16l8.1-10.06c-1.24-2.15-2.37-4.05-3.22-5.33-2.2-3.33-8.19-11.52-13.3-18.18s-9.21-12.22-9.1-12.33 9.47.34 22.75 1.26c6.31.44 19 .48 30.49.26l5.31-6.6c-10.3 1-24.59 1.62-47 2.12-11.59.25-13.83.18-14.72-.48-.58-.43-.9-.94-.7-1.13a51 51 0 0 1 7.88-.83c20.38-1.27 43.56-3.64 59.65-6l6.06-7.54a17.07 17.07 0 0 0 1.61-2.5l-2.86.76a370.53 370.53 0 0 1-49 9c-15.18 1.8-25 3.34-25.72 4-.8.2-.27 2.24-1.76-1.61 0 0-1-2.25-.14-2 1.12.23 23.1-3.81 42.57-7.9zm-31.85 20.74h0c-.74 0-.74.14-.65.36 8.51 11.56 18.4 20.52 27.33 29.37q2.12-2.64 4.24-5.27l-8.47-6.62c-5.77-4.49-10.43-8.24-10.34-8.32a28.37 28.37 0 0 1 4.29 2.42c3.48 2.15 10.22 6.12 16.67 9.84q1.42-1.75 2.83-3.52c-6.91-3.07-13.82-6.25-17.45-8.09-4.49-2.28-5.18-2.47 12.09 3.35l7.26 2.39 2.89-3.6-7-1.66c-16.12-4-31.6-8.87-21.47-6.71 9.82 2.1 21.14 4 30.91 5.35l2.86-3.56 1.07-1.32c-9-.6-19.86-1.6-34.13-3.15l-12.93-1.26zm-18.27-31.73l-.07-7.63 4.73-1.64c9.94-3.43 31.31-13.3 41.53-19.19a122.09 122.09 0 0 0 27.79-21c1.06-1 2-2.06 3-3q-1.63-7.14-3.28-14.27a51.66 51.66 0 0 1-2.1 5.63c-4.87 10.84-20.67 23.19-45.89 35.86-6.07 3.06-14.35 7-18.39 8.69l-7.49 3.2c-.35.17-2.38 15.22-3.81 28.19-1.85 16.81-3.26 25.8-5.06 32.15-1.85 6.57-7.36 17.27-12.23 23.77a108.1 108.1 0 0 1-8.82 10 107.49 107.49 0 0 1-9.26 7.57h24a83.37 83.37 0 0 0 11-20.17c.39-.93.76-1.84 1.08-2.7 5.52-14.95 6.74-28 4.51-47.9-.66-5.49-1.19-13.32-1.24-17.56zM382.76 531l-46.13-66.72V531h-32.95V386.89h32.95v62.6l44.07-62.6h37.48l-48.6 70.22L420.24 531zm142.11-102.92V531H494v-9.68c-5.56 7.62-15.85 12.57-29.44 12.57-20.8 0-38.51-14.83-38.51-42.63v-63.18h30.88v58.69c0 12.77 8 18.74 17.92 18.74 11.32 0 19.15-6.6 19.15-21.21v-56.22zm133.47 51.48c0 30.68-22.25 54.37-49.22 54.37-13.81 0-23.89-4.74-30.68-12.57V531h-30.9V386.89h30.9v50.87c6.79-7.83 16.87-12.56 30.68-12.56 26.97 0 49.22 23.68 49.22 54.36zm-30.9 0c0-15.44-10.29-25.12-24.5-25.12s-24.5 9.68-24.5 25.12 10.29 25.13 24.5 25.13 24.5-9.69 24.5-25.13zm100.73 26.77c8.44 0 15.64-3.29 19.76-7.83l24.71 14.22c-10.08 14-25.32 21.21-44.89 21.21-35.21 0-57-23.69-57-54.37S693 425.2 725.48 425.2c30.07 0 52.31 23.27 52.31 54.36a59.41 59.41 0 0 1-1.24 12.36h-73.1c3.92 10.7 13.39 14.41 24.72 14.41zm18.94-37.47c-3.3-11.95-12.56-16.27-21.83-16.27-11.74 0-19.56 5.76-22.45 16.27zm43.06-9.86c0-42.43 31.51-75 75-75 26.15 0 49.22 13 61.77 33.36l-28.42 16.48c-6.38-11.13-18.74-17.72-33.35-17.72-25.54 0-42 17.1-42 42.84s16.47 42.83 42 42.83c14.61 0 27.18-6.58 33.35-17.7l28.42 16.46c-12.35 20.39-35.41 33.37-61.77 33.37-43.49.01-75-32.53-75-74.92zm185.15-72.11V531h-33V386.89z"/></svg>