<svg width="142" height="46" viewBox="0 0 142 46" fill="none" xmlns="http://www.w3.org/2000/svg">
<g clip-path="url(#clip0)">
<path d="M16.9881 24.5364C17.6331 23.2524 17.9114 22.4069 18.6133 19.598C19.3046 16.8295 19.6608 15.5141 19.7252 15.4363C19.7581 15.3974 19.7656 15.4647 19.7401 15.5859C19.7042 15.7625 19.7192 15.8104 19.806 15.8104C20.1053 15.8104 21.6287 15.0816 22.9486 14.3064C25.732 12.6693 27.0908 11.5484 27.6385 10.435C27.887 9.92922 27.9094 9.83644 27.9094 9.31267C27.9094 8.67816 27.8211 8.48811 27.3916 8.19331C27.028 7.94639 26.6539 7.87007 25.8009 7.87455C24.903 7.87455 24.1682 8.03468 23.1775 8.43424C21.063 9.28723 18.8377 11.1698 17.2739 13.419C16.7696 14.1463 16.5377 14.5608 15.5844 16.4344C14.6132 18.3454 14.4246 18.6896 13.823 19.6728C12.0871 22.5161 10.417 24.0306 8.2277 24.7683C7.02303 25.1739 6.00841 25.0407 5.68368 24.4346C5.32602 23.7657 6.24935 22.5056 7.90296 21.4057C8.99689 20.6784 11.511 19.2852 11.5888 19.363C11.6666 19.4409 11.4242 19.8748 11.1623 20.1203C10.7855 20.4058 10.385 20.6587 9.96511 20.876C8.41326 21.714 7.47197 22.4518 6.99759 23.2C6.72672 23.6295 6.69829 24.071 6.93773 24.2371C7.26097 24.4645 8.27109 24.3089 8.99988 23.9213C9.49671 23.6564 10.4724 22.8663 11.1443 22.1869C12.2278 21.09 13.0583 19.7925 14.266 17.3368C16.0827 13.6315 16.4224 13.0195 17.3398 11.7849C19.1251 9.39049 22.0672 7.49744 24.9718 6.88837C25.7249 6.7543 26.4931 6.7266 27.254 6.80607C27.863 6.92728 28.4242 7.1338 28.8312 7.48697C28.7609 7.1772 28.6816 6.86892 28.6187 6.55915C28.5227 6.05807 28.2588 5.60468 27.8705 5.27367C26.8047 5.16325 25.7279 5.23767 24.6875 5.49365C22.8547 5.96931 21.1304 6.79285 19.6084 7.91945C18.0997 9.05083 16.8006 10.4375 15.77 12.0168C15.0726 13.1302 14.6237 14.1029 13.7617 16.3656C13.1631 17.9144 12.2742 19.7701 11.6846 20.668C10.7597 22.0732 8.68113 23.8016 8.07655 23.6684C7.80718 23.6086 7.99574 23.206 8.5255 22.6987C8.85472 22.3874 10.3512 21.3519 10.6206 21.2441C10.6894 21.2172 10.7029 21.2441 10.667 21.3369C10.631 21.4297 10.6325 21.4551 10.7373 21.3698C10.9169 21.2202 11.4272 20.4195 11.7414 19.788C12.3056 18.6567 12.4074 18.3739 13.5507 14.7688C14.456 11.9165 15.122 10.5907 16.4449 9.0014C18.1751 6.93966 20.4222 5.3748 22.9561 4.46707C23.396 4.31742 24.5498 3.97622 24.8925 3.90738L25.0751 3.87147L22.3919 2.59497C20.9194 3.17387 19.5253 3.93502 18.2421 4.86064C16.3102 6.29577 14.8227 8.1529 13.9951 10.1537C13.3965 11.5993 13.0119 13.012 12.4104 15.9136C11.9794 17.9997 11.6711 19.2792 11.713 18.8049C11.7399 18.5056 11.7369 18.5056 11.5559 18.5504C11.1069 18.6612 9.33359 19.5411 8.2247 20.2041C5.70612 21.714 4.22461 23.2689 4.22461 24.4017C4.22629 24.4473 4.23029 24.4927 4.23658 24.5379L5.26766 25.8189C5.33526 25.8428 5.40422 25.8628 5.47417 25.8787C6.03386 25.9999 7.249 25.9176 8.04812 25.7051C9.85587 25.2248 12.0153 23.6699 13.4564 21.8143C14.2854 20.7443 14.8227 19.8853 15.7954 18.0731C17.1542 15.5291 17.4415 15.0307 17.9653 14.2391C18.2751 13.7707 18.7345 13.1422 18.9844 12.8414C20.8355 10.6086 23.5292 8.91461 25.2053 8.93556C26.0209 8.94454 26.3516 9.19146 26.3516 9.79304C26.3516 10.5652 25.6692 11.4556 24.3792 12.364C22.9201 13.3921 20.3193 14.908 20.0065 14.908C19.8943 14.908 19.8973 14.8077 20.017 14.5758C20.1771 14.2675 20.3851 14.1179 21.5793 13.4489C23.0399 12.6319 23.7761 12.1231 24.3807 11.5155C24.9164 10.9768 25.1768 10.5562 25.1753 10.2315C25.1753 9.95766 25.1155 9.86936 24.876 9.78257C24.4376 9.61646 23.7387 9.76311 22.7899 10.221C21.6182 10.7867 20.3956 11.8836 19.3091 13.3337C18.3289 14.6476 18.07 15.1205 16.159 19.0997C15.7954 19.8554 15.3554 20.7114 15.1803 21.0002C13.0853 24.4735 9.16449 26.8454 6.12963 26.9008L7.04847 28.0426C7.51743 27.9851 7.98193 27.8956 8.4387 27.7748C11.0815 27.0714 13.8066 25.0975 15.3225 22.79C16.1321 21.5554 16.819 20.1457 18.2272 16.828C19.3795 14.1134 20.4914 12.5151 22.1001 11.2656C22.8782 10.667 23.7223 10.3422 23.7806 10.6311C23.839 10.9199 22.1689 12.3475 21.2261 12.8264C20.9343 12.9761 20.8924 12.9222 21.0765 12.6289C21.3144 12.2428 20.4659 13.1407 20.1247 13.636C19.4109 14.6701 19.164 15.3031 17.8471 19.4842C17.232 21.4297 16.7487 22.4997 15.9136 23.7492C14.0206 26.5776 11.0605 28.5544 7.96581 29.168L7.97329 29.177C8.17607 29.4402 8.43856 29.6515 8.73909 29.7933C9.03963 29.9351 9.36959 30.0034 9.70173 29.9925H11.0785C13.4639 28.8762 15.339 27.4785 16.9881 24.5364Z" fill="#326CE5"/>
<path d="M22.6508 16.8817L21.5838 17.3007C20.9597 17.5491 20.409 17.7497 20.0454 17.8634L19.6473 17.9861V18.269C19.6414 18.393 19.6597 18.517 19.7012 18.6341C19.8 18.7912 23.5921 17.4369 25.9041 16.4208C27.4493 15.7633 28.9345 14.9727 30.3427 14.0579C30.2424 13.6224 30.1436 13.1884 30.0434 12.7529C29.8054 12.9774 29.572 13.1839 29.361 13.3515C27.8585 14.5263 25.4746 15.7818 22.6508 16.8817Z" fill="#326CE5"/>
<path d="M10.2658 12.9594C10.3436 12.8876 10.0428 12.31 9.34842 11.1951C7.34015 7.97016 6.52905 6.14595 6.12201 3.91919L4.37412 4.75722C5.04173 6.06041 5.81816 7.30492 6.69516 8.47747C7.41198 9.42025 8.40265 10.6474 8.54032 10.7611C8.62113 10.8269 8.64957 10.8808 8.60467 10.8823C8.49393 10.8823 7.12016 9.61929 5.88706 8.38319C4.95443 7.45717 4.08596 6.4687 3.28768 5.42465C3.02661 5.68549 2.84364 6.01411 2.75942 6.37342C2.74595 6.42729 2.73398 6.48266 2.72051 6.53654C3.25026 7.05731 3.82042 7.59454 4.12271 7.82949C4.46541 8.09587 5.30493 8.74085 5.99032 9.26013C6.67571 9.77941 7.26532 10.2388 7.30423 10.2792C7.51523 10.4992 4.15114 8.467 2.63671 7.45837L2.52447 7.38504L2.32694 8.23354C2.92553 8.53284 3.55854 8.85009 3.94912 9.03266C4.23495 9.16435 4.96074 9.51004 5.56382 9.80036C6.1669 10.0907 6.68469 10.3286 6.71761 10.3286C6.73744 10.3307 6.75652 10.3373 6.77339 10.348C6.79025 10.3586 6.80445 10.373 6.81488 10.39C6.89419 10.5187 4.45194 9.67017 2.49753 8.89349L2.19824 8.77677C2.14137 9.02518 2.08151 9.2736 2.02465 9.52501C2.47958 9.65869 2.9814 9.79886 3.53011 9.94552C5.63266 10.5067 7.96867 11.1786 7.93575 11.2115C7.6842 11.1901 7.43428 11.1526 7.1875 11.0993C6.19384 10.9122 6.13997 10.9033 5.32588 10.7521L3.97905 10.5067C3.63785 10.4453 2.85968 10.2882 2.25061 10.1595L1.89595 10.0847L1.7029 10.9182C2.24612 10.9826 2.78935 11.0454 3.25326 11.0948C5.58926 11.3492 8.64059 11.7637 8.71242 11.8431C8.73487 11.8655 8.61215 11.8655 8.44006 11.8431C7.72773 11.7473 4.3831 11.6096 1.55625 11.5752C1.47993 11.9029 1.4066 12.2321 1.32878 12.5599L2.15035 12.5254C2.28354 12.5165 3.06171 12.488 3.87879 12.4626C4.69586 12.4372 5.52491 12.4027 5.71197 12.3863C5.89903 12.3698 6.53953 12.3399 7.12914 12.3189C7.71876 12.298 8.52835 12.2636 8.92492 12.2426C9.60582 12.2067 9.66119 12.2127 9.78689 12.3519C9.97545 12.5614 9.87369 12.6018 9.03865 12.6586C7.93275 12.732 4.01497 13.1076 1.12676 13.4069C1.03896 13.795 0.949673 14.1821 0.858887 14.5681C2.95396 14.1716 5.60722 13.7196 8.30089 13.3201C9.63724 13.1151 10.2104 13.0118 10.2658 12.9594Z" fill="#326CE5"/>
<path d="M11.0319 18.1299C11.2778 18.0616 11.5164 17.9694 11.7443 17.8545C11.7936 17.8111 11.8804 17.4969 11.9343 17.1572C12.0286 16.575 12.051 16.1979 12.1378 13.6464C12.2975 8.9724 14.1192 5.3574 17.603 2.80141C18.3273 2.26866 18.4006 2.22377 19.5738 1.5713C19.6696 1.51743 19.7804 1.46057 19.8926 1.4022L16.9445 0C14.203 2.0412 12.3578 4.62562 11.659 7.46295C11.3432 8.74394 11.3073 9.1016 11.3088 10.9527C11.3088 12.3789 11.3402 12.9311 11.4584 13.7961C11.7188 15.6726 11.7173 15.6337 11.5318 15.6442C11.2325 15.6607 8.04795 16.9342 6.50957 17.6555C6.15191 17.8231 5.84812 17.9548 5.83316 17.9548C5.75983 17.9548 3.20833 19.2627 2.496 19.6653C1.85252 20.0289 1.41255 20.2938 1.02197 20.5527L1.79565 21.5119C1.92585 21.3922 2.04856 21.2815 2.14284 21.2051C3.87726 19.7954 6.98096 18.1598 10.5381 16.78C11.1367 16.5466 11.6455 16.364 11.656 16.3745C11.6806 16.4943 11.6952 16.6159 11.6994 16.7381L11.7218 17.0808L10.8568 17.4026C8.10033 18.4307 5.15675 20.0334 3.1365 21.6062C2.87734 21.8082 2.63187 22.0271 2.40173 22.2616L2.91053 22.8947L3.23676 23.2987C3.3356 23.1302 3.44455 22.9677 3.563 22.8124C4.12418 22.0866 4.80657 21.5388 6.47216 20.4763C7.87735 19.5859 10.1715 18.4022 11.0319 18.1299Z" fill="#326CE5"/>
<path d="M10.2942 15.4602C10.6203 15.3843 10.9396 15.2817 11.2489 15.1535C11.3552 15.0756 11.3582 15.0158 11.2774 14.519C11.2295 14.2197 10.9945 13.1901 10.7566 12.2368C10.0966 9.60451 10.0637 9.37555 10.0682 7.55283C10.0682 6.21648 10.0937 5.88875 10.2179 5.28417C10.5401 3.81218 11.1202 2.4088 11.9313 1.13892L10.99 1.58786L8.20659 2.91823C8.16553 3.46594 8.15604 4.01556 8.17816 4.56436C8.19649 6.12618 8.44508 7.67677 8.91592 9.16604C9.26656 10.3282 9.70428 11.4622 10.2253 12.5586C10.3568 12.8205 10.4741 13.0893 10.577 13.3637C10.577 13.3966 10.149 13.4954 9.62525 13.5792C8.69295 13.7288 6.87023 14.079 6.32402 14.2092C6.17437 14.2466 5.59523 14.3723 5.04453 14.4905C3.78299 14.7599 2.02313 15.149 0.632901 15.5081L0.31415 16.8894C2.69804 16.0573 5.02657 15.4004 9.11346 14.3843L10.8658 13.9488L10.996 14.1643C11.0679 14.2825 11.1023 14.4037 11.0723 14.4337C10.694 14.5688 10.3077 14.6802 9.91557 14.7674C9.31698 14.917 8.73485 15.0741 8.64057 15.1086C8.54629 15.143 8.14074 15.2702 7.74268 15.3899C6.81337 15.6668 4.21847 16.5153 3.45526 16.7906C2.22965 17.2306 0.966617 17.7484 0.0373026 18.1719C-0.00398082 18.3919 -0.0110475 18.6171 0.0163519 18.8393C0.0550271 19.0772 0.133437 19.3068 0.248305 19.5187C1.27959 18.9134 2.35165 18.3803 3.45676 17.9234C5.50694 17.063 8.9683 15.8194 10.2942 15.4602Z" fill="#326CE5"/>
<path d="M26.2138 19.8253C27.9367 19.4702 29.6388 19.0206 31.3123 18.4785C31.308 18.3431 31.2915 18.2083 31.2629 18.0759C31.2075 17.832 31.1507 17.5881 31.0953 17.3441L30.9995 17.3875C29.6662 17.9861 27.7162 18.5638 22.733 19.8388C21.5223 20.1485 20.4882 20.4194 20.4374 20.4374C20.3865 20.4553 20.2982 20.385 20.2278 20.2473C20.1186 20.0378 20.1186 20.0154 20.2278 19.9375C20.539 19.8121 20.8598 19.712 21.1871 19.6382C25.0136 18.6401 28.6201 17.4115 30.8723 16.3684L30.7421 15.8013C30.6912 15.5813 30.6404 15.3613 30.5925 15.1428C30.4144 15.2506 30.2438 15.3523 30.1001 15.4346C28.1367 16.5495 24.7757 17.8485 21.2903 18.8391C19.8971 19.2357 19.8552 19.2522 19.8552 19.4272C19.8552 19.6308 20.0947 20.798 20.4403 22.2706C20.8758 24.1337 20.9177 24.433 20.9222 25.8097C20.9336 26.86 20.793 27.9064 20.5047 28.9164C20.379 29.2696 20.2249 29.6317 20.0558 29.9999H21.6345C21.9129 30.0017 22.1891 29.951 22.4486 29.8502C22.4666 29.4552 22.4711 29.0631 22.4606 28.686C22.507 28.4046 22.4711 27.4813 22.3723 26.778C22.308 26.3141 22.2227 25.8292 22.1059 25.3458C21.9276 24.5209 21.6772 23.7132 21.3577 22.932C21.2245 22.6013 21.0778 22.2646 20.9087 21.9099C20.8691 21.8239 20.838 21.7342 20.816 21.642C20.816 21.5912 20.8713 21.675 20.9342 21.8276C20.997 21.9802 21.4041 22.7255 21.8396 23.4932C22.7838 25.1513 23.5426 27.2538 23.8867 28.1143C23.9167 28.1876 23.9481 28.2879 23.9825 28.3986L25.048 27.0758C24.8849 26.7929 24.7352 26.543 24.6245 26.3739C24.3342 25.9354 23.547 24.8595 22.8736 23.9795C22.2002 23.0996 21.663 22.3723 21.6764 22.3589C21.6899 22.3454 22.923 22.4037 24.6694 22.525C25.5014 22.5818 27.1715 22.5878 28.6815 22.5579L29.3803 21.6899C28.026 21.8186 26.1449 21.9024 23.1984 21.9683C21.6749 22.0027 21.3786 21.9922 21.2619 21.9054C21.1856 21.8486 21.1452 21.7827 21.1691 21.7558C21.5121 21.6931 21.8592 21.6566 22.2077 21.6465C24.8879 21.4789 27.9392 21.1677 30.0552 20.8504C30.3201 20.5212 30.588 20.1905 30.8529 19.8597C30.9325 19.7565 31.0036 19.6468 31.0654 19.532L30.6882 19.6308C28.5663 20.1698 26.4105 20.5658 24.2354 20.816C22.2391 21.0509 20.9432 21.2544 20.8519 21.3442C20.7456 21.3697 20.816 21.6435 20.6214 21.1317C20.6214 21.1317 20.4852 20.8324 20.602 20.8669C20.7591 20.8938 23.6518 20.3625 26.2138 19.8253Z" fill="#326CE5"/>
<path d="M22.0221 22.5535C21.9248 22.5535 21.9248 22.5714 21.9368 22.5999C23.0562 24.1218 24.3581 25.301 25.5284 26.4638L26.088 25.7709L24.9732 24.8999C24.213 24.3088 23.6009 23.8165 23.6129 23.8045C23.8094 23.895 23.9981 24.0017 24.177 24.1233C24.635 24.4076 25.5239 24.9284 26.3709 25.4177L26.7435 24.9553C25.8336 24.5513 24.9253 24.1337 24.4464 23.8898C23.8568 23.5905 23.7655 23.5651 26.0372 24.3313C26.3604 24.4405 26.6807 24.5453 26.9919 24.647L27.3735 24.1727C27.0428 24.0978 26.7255 24.023 26.4517 23.9542C24.3312 23.4244 22.2945 22.7869 23.6263 23.0712C24.9193 23.3466 26.4083 23.5995 27.6938 23.7746L28.0709 23.3062L28.2101 23.1326C27.0263 23.0548 25.5987 22.9216 23.7206 22.7181C22.6177 22.5999 22.1822 22.5535 22.0221 22.5535Z" fill="#326CE5"/>
<path d="M19.6189 18.3798L19.6084 17.3742L20.237 17.1662C21.5449 16.7172 24.3568 15.4153 25.7006 14.6416C27.0459 13.8979 28.2776 12.9651 29.358 11.8716C29.4972 11.7355 29.6274 11.6023 29.7501 11.4721C29.6054 10.8446 29.4613 10.2185 29.3176 9.59399C29.2407 9.84589 29.1482 10.0928 29.0408 10.3333C28.4003 11.7609 26.3217 13.3846 23.004 15.0532C22.2048 15.4542 21.1154 15.969 20.5827 16.1965C20.0499 16.4239 19.607 16.6125 19.598 16.617C19.5531 16.6394 19.2852 18.6193 19.0981 20.3268C18.8542 22.5371 18.6672 23.7208 18.4322 24.5558C18.1868 25.4208 17.4625 26.829 16.822 27.6835C16.4631 28.1465 16.0758 28.5869 15.6622 29.0019C15.2753 29.3563 14.8686 29.6886 14.4441 29.997H17.6002C18.1995 29.1823 18.6839 28.289 19.0398 27.3423C19.0907 27.221 19.14 27.1013 19.182 26.9861C19.9077 25.0197 20.0694 23.3063 19.7805 20.6844C19.6952 19.9676 19.6249 18.932 19.6189 18.3798Z" fill="#326CE5"/>
<path d="M51.5971 26.0028L44.5531 15.8193V26.0088H39.522V3.99707H44.5531V13.5566L51.2873 3.99707H57.0113L49.5888 14.7209L57.3256 26.0103L51.5971 26.0028Z" fill="#326CE5"/>
<path d="M73.2975 10.2822V26.0028H68.5806V24.5242C67.7321 25.687 66.1608 26.4427 64.0911 26.4427C60.9141 26.4427 58.21 24.1785 58.21 19.933V10.2822H62.9269V19.2447C62.9269 21.1901 64.154 22.1059 65.6624 22.1059C67.3924 22.1059 68.5866 21.0988 68.5866 18.8675V10.2822H73.2975Z" fill="#326CE5"/>
<path d="M93.678 18.1403C93.678 22.8258 90.281 26.4428 86.1626 26.4428C84.0541 26.4428 82.5142 25.72 81.4772 24.5243V26.0028H76.7603V3.99707H81.4772V11.7653C82.5142 10.5681 84.0541 9.84681 86.1626 9.84681C90.281 9.83334 93.678 13.4548 93.678 18.1403ZM88.9611 18.1403C88.9611 15.7834 87.3883 14.3048 85.2199 14.3048C83.0515 14.3048 81.4787 15.7834 81.4787 18.1403C81.4787 20.4973 83.05 21.9773 85.2199 21.9773C87.3898 21.9773 88.9611 20.4988 88.9611 18.1403Z" fill="#326CE5"/>
<path d="M104.339 22.2288C105.629 22.2288 106.734 21.726 107.358 21.0317L111.13 23.2016C109.593 25.3415 107.265 26.4444 104.278 26.4444C98.901 26.4444 95.5684 22.8274 95.5684 18.142C95.5684 13.4565 98.9639 9.8335 103.931 9.8335C108.523 9.8335 111.919 13.3876 111.919 18.1345C111.922 18.7683 111.858 19.4007 111.73 20.0215H100.568C101.165 21.6632 102.611 22.2288 104.339 22.2288ZM107.232 16.5063C106.734 14.6821 105.316 14.0236 103.901 14.0236C102.105 14.0236 100.908 14.9036 100.472 16.5078L107.232 16.5063Z" fill="#326CE5"/>
<path d="M113.809 14.9961C113.809 8.51788 118.62 3.54956 125.255 3.54956C129.248 3.54956 132.771 5.5309 134.683 8.6376L130.343 11.1532C129.369 9.45468 127.482 8.44904 125.255 8.44904C121.356 8.44904 118.84 11.0589 118.84 14.9902C118.84 18.9214 121.356 21.5298 125.255 21.5298C127.487 21.5298 129.407 20.5256 130.343 18.8271L134.683 21.3412C132.798 24.4554 129.275 26.4367 125.255 26.4367C118.62 26.4442 113.809 21.4729 113.809 14.9961Z" fill="#326CE5"/>
<path d="M142.082 3.99707V26.0103H137.049V3.99707H142.082Z" fill="#326CE5"/>
<path d="M6.74486 40.3358C6.65936 41.3016 6.32513 42.056 5.74217 42.599C5.15921 43.1378 4.38387 43.4073 3.41615 43.4073C2.73992 43.4073 2.14335 43.2373 1.62646 42.8974C1.11346 42.5534 0.717042 42.0663 0.437221 41.4363C0.157399 40.8062 0.0116592 40.0746 0 39.2415V38.3959C0 37.542 0.141854 36.7896 0.425562 36.1389C0.709269 35.4881 1.1154 34.9865 1.64395 34.6342C2.17639 34.2819 2.79044 34.1057 3.48611 34.1057C4.42273 34.1057 5.17669 34.3772 5.748 34.9202C6.3193 35.4632 6.65159 36.2301 6.74486 37.2207H5.2758C5.20584 36.5699 5.02707 36.1016 4.73947 35.8155C4.45577 35.5254 4.03798 35.3803 3.48611 35.3803C2.84485 35.3803 2.35128 35.6311 2.00539 36.1326C1.66338 36.6301 1.48849 37.3617 1.48072 38.3275V39.1295C1.48072 40.1078 1.64395 40.8539 1.97041 41.3679C2.30075 41.8819 2.78267 42.1389 3.41615 42.1389C3.99523 42.1389 4.4305 42 4.72198 41.7223C5.01347 41.4446 5.19807 40.9824 5.2758 40.3358H6.74486Z" fill="#00A651"/>
<path d="M17.8141 39.857C17.8141 39.1979 17.9365 38.6052 18.1814 38.0788C18.4262 37.5482 18.7702 37.142 19.2132 36.8601C19.6563 36.5741 20.1654 36.4311 20.7406 36.4311C21.5917 36.4311 22.2816 36.7233 22.8101 37.3078C23.3425 37.8922 23.6301 38.6674 23.6729 39.6332L23.6787 39.9876C23.6787 40.6508 23.5582 41.2435 23.3173 41.7658C23.0802 42.2881 22.7382 42.6922 22.2913 42.9782C21.8482 43.2642 21.3352 43.4073 20.7522 43.4073C19.8623 43.4073 19.1491 43.0922 18.6128 42.4622C18.0803 41.828 17.8141 40.9845 17.8141 39.9316V39.857ZM19.2307 39.9876C19.2307 40.6798 19.3648 41.2228 19.633 41.6166C19.9011 42.0062 20.2742 42.201 20.7522 42.201C21.2303 42.201 21.6014 42.0021 21.8657 41.6041C22.1339 41.2062 22.2679 40.6238 22.2679 39.857C22.2679 39.1772 22.13 38.6383 21.854 38.2404C21.582 37.8425 21.2108 37.6435 20.7406 37.6435C20.2781 37.6435 19.9108 37.8404 19.6388 38.2342C19.3667 38.6238 19.2307 39.2083 19.2307 39.9876Z" fill="#00A651"/>
<path d="M36.357 36.5554L36.3978 37.258C36.8408 36.7067 37.4471 36.4311 38.2166 36.4311C39.0599 36.4311 39.6371 36.7751 39.948 37.4632C40.4066 36.7751 41.0517 36.4311 41.8834 36.4311C42.5791 36.4311 43.096 36.6363 43.4341 37.0466C43.7761 37.457 43.951 38.0622 43.9588 38.8622V43.2829H42.5422V38.9057C42.5422 38.4788 42.4547 38.1658 42.2798 37.9668C42.1049 37.7679 41.8154 37.6684 41.4112 37.6684C41.0887 37.6684 40.8244 37.7617 40.6184 37.9482C40.4163 38.1306 40.2745 38.371 40.1928 38.6694L40.1987 43.2829H38.7821V38.856C38.7626 38.0642 38.3837 37.6684 37.6453 37.6684C37.0779 37.6684 36.6756 37.915 36.4386 38.4083V43.2829H35.022V36.5554H36.357Z" fill="#00A651"/>
<path d="M56.8935 36.5554L56.9343 37.258C57.3774 36.7067 57.9836 36.4311 58.7531 36.4311C59.5965 36.4311 60.1736 36.7751 60.4845 37.4632C60.9431 36.7751 61.5883 36.4311 62.42 36.4311C63.1156 36.4311 63.6325 36.6363 63.9707 37.0466C64.3127 37.457 64.4875 38.0622 64.4953 38.8622V43.2829H63.0787V38.9057C63.0787 38.4788 62.9913 38.1658 62.8164 37.9668C62.6415 37.7679 62.352 37.6684 61.9478 37.6684C61.6252 37.6684 61.3609 37.7617 61.1549 37.9482C60.9529 38.1306 60.811 38.371 60.7294 38.6694L60.7352 43.2829H59.3186V38.856C59.2992 38.0642 58.9203 37.6684 58.1818 37.6684C57.6144 37.6684 57.2122 37.915 56.9751 38.4083V43.2829H55.5585V36.5554H56.8935Z" fill="#00A651"/>
<path d="M79.9193 42.6238C79.5035 43.1461 78.9127 43.4073 78.1471 43.4073C77.4631 43.4073 76.9443 43.1938 76.5906 42.7668C76.2408 42.3399 76.0659 41.7223 76.0659 40.914V36.5554H77.4825V40.8953C77.4825 41.7492 77.8148 42.1762 78.4794 42.1762C79.1673 42.1762 79.6317 41.913 79.8727 41.3865V36.5554H81.2893V43.2829H79.9543L79.9193 42.6238Z" fill="#00A651"/>
<path d="M94.1949 36.5554L94.2357 37.3326C94.702 36.7316 95.3141 36.4311 96.072 36.4311C97.3856 36.4311 98.0541 37.2332 98.0774 38.8373V43.2829H96.6608V38.9244C96.6608 38.4974 96.5733 38.1824 96.3984 37.9793C96.2274 37.772 95.9457 37.6684 95.5532 37.6684C94.9818 37.6684 94.5563 37.944 94.2765 38.4953V43.2829H92.8599V36.5554H94.1949Z" fill="#00A651"/>
<path d="M111.181 43.2829H109.765V36.5554H111.181V43.2829ZM109.677 34.8083C109.677 34.5762 109.745 34.3834 109.881 34.2301C110.021 34.0767 110.219 34 110.476 34C110.732 34 110.93 34.0767 111.07 34.2301C111.21 34.3834 111.28 34.5762 111.28 34.8083C111.28 35.0363 111.21 35.2269 111.07 35.3803C110.93 35.5295 110.732 35.6041 110.476 35.6041C110.219 35.6041 110.021 35.5295 109.881 35.3803C109.745 35.2269 109.677 35.0363 109.677 34.8083Z" fill="#00A651"/>
<path d="M124.652 34.9202V36.5554H125.766V37.6746H124.652V41.4301C124.652 41.687 124.699 41.8736 124.792 41.9896C124.889 42.1016 125.06 42.1575 125.305 42.1575C125.468 42.1575 125.634 42.1368 125.801 42.0953V43.2642C125.478 43.3596 125.167 43.4073 124.868 43.4073C123.78 43.4073 123.236 42.7668 123.236 41.486V37.6746H122.198V36.5554H123.236V34.9202H124.652Z" fill="#00A651"/>
<path d="M139.208 41.1192L140.49 36.5554H142L139.493 44.3026C139.109 45.4342 138.456 46 137.535 46C137.329 46 137.101 45.9627 136.852 45.8881V44.7192L137.121 44.7378C137.478 44.7378 137.746 44.6674 137.925 44.5264C138.108 44.3896 138.252 44.1575 138.356 43.8301L138.561 43.2518L136.345 36.5554H137.873L139.208 41.1192Z" fill="#00A651"/>
</g>
<defs>
<clipPath id="clip0">
<rect width="142" height="46" fill="white"/>
</clipPath>
</defs>
</svg>
