<?xml version="1.0" encoding="utf-8"?>
<!-- Generator: Adobe Illustrator 21.1.0, SVG Export Plug-In . SVG Version: 6.00 Build 0)  -->
<svg version="1.1" id="Layer_1" xmlns="http://www.w3.org/2000/svg" xmlns:xlink="http://www.w3.org/1999/xlink" x="0px" y="0px"
	 viewBox="0 0 2500 2500" style="enable-background:new 0 0 2500 2500;" xml:space="preserve">
<style type="text/css">
	.st0{fill:#FF911F;}
	.st1{fill:#FFFFFF;}
	.st2{fill:#193651;}
	.st3{fill:#FDBF5E;}
</style>
<g>
	<path class="st0" d="M647.2,141.7h1239.6c175.2,0,317.2,142,317.2,317.2v1239.6c0,84.7-33.3,161.6-87.3,218.5l0.1,0l-532.6,518.3
		v-419.5h-4.9H647.2c-175.2,0-317.2-142-317.2-317.2V458.9C330,283.7,472,141.7,647.2,141.7z"/>
	<g>
		<path class="st1" d="M1267.4,1381.9L1267.4,1381.9c-54.8,0-99.9-43.1-102.4-97.9l-34.7-770.9c-2.6-58.4,44-107.2,102.5-107.2h69.5
			c58.6,0,105.3,48.9,102.6,107.4l-35.7,771.4C1366.6,1339.1,1321.8,1381.9,1267.4,1381.9z"/>
		<path class="st1" d="M1267,1552L1267,1552c-53.7,0-97.6,43.9-97.6,97.6l0,0c0,53.7,43.9,97.6,97.6,97.6l0,0
			c53.7,0,97.6-43.9,97.6-97.6l0,0C1364.6,1595.9,1320.7,1552,1267,1552z"/>
	</g>
	<path d="M1584.2,2484.1c-6.4,0-12.8-1.3-19-3.8c-18.1-7.6-29.8-25.3-29.8-45v-370.7H647.2c-201.8,0-366-164.2-366-366V458.9
		c0-201.8,164.2-366,366-366h1239.6c201.8,0,366,164.2,366,366v1239.6c0,93.1-35,181.6-98.5,249.7c-1.1,1.3-2.2,2.5-3.5,3.8
		l-532.6,518.3C1609,2479.3,1596.7,2484.1,1584.2,2484.1z M647.2,190.5c-148,0-268.4,120.4-268.4,268.4v1239.6
		c0,148,120.4,268.4,268.4,268.4h937c26.9,0,48.8,21.8,48.8,48.8v304l447.6-435.6c0.2-0.2,0.5-0.5,0.7-0.7
		c47.7-50.1,73.9-115.8,73.9-184.8V458.9c0-148-120.4-268.4-268.4-268.4L647.2,190.5L647.2,190.5z"/>
	<path d="M1267.4,1430.7c-81.1,0-147.5-63.5-151.1-144.5l-34.7-770.9c-1.9-41.7,13-81.2,41.8-111.4c28.8-30.2,67.7-46.8,109.4-46.8
		h69.5c41.8,0,80.7,16.6,109.5,46.9c28.9,30.2,43.7,69.9,41.8,111.6l-35.7,771.4C1414.1,1367.6,1348,1430.7,1267.4,1430.7z
		 M1232.8,454.8c-14.8,0-28.6,5.9-38.9,16.6c-10.2,10.7-15.5,24.8-14.8,39.6l34.7,770.9c1.3,28.8,24.9,51.3,53.6,51.3
		c28.4,0,51.7-22.2,53-50.6l35.7-771.4c0.7-14.8-4.6-28.9-14.9-39.7c-10.3-10.7-24.1-16.7-39-16.7L1232.8,454.8L1232.8,454.8
		L1232.8,454.8z"/>
	<path d="M1267,1796c-80.7,0-146.4-65.7-146.4-146.4s65.7-146.4,146.4-146.4c80.7,0,146.4,65.7,146.4,146.4S1347.8,1796,1267,1796z
		 M1267,1600.8c-26.9,0-48.8,21.9-48.8,48.8s21.9,48.8,48.8,48.8s48.8-21.9,48.8-48.8S1293.9,1600.8,1267,1600.8z"/>
	<path d="M525.2,1443.8c-26.9,0-48.8-21.8-48.8-48.8v-0.6c0-27,21.9-48.8,48.8-48.8c26.9,0,48.8,21.8,48.8,48.8v0.6
		C574,1421.9,552.2,1443.8,525.2,1443.8z"/>
	<path d="M525.2,1285.3c-26.9,0-48.8-21.8-48.8-48.8v-474c0-27,21.9-48.8,48.8-48.8c26.9,0,48.8,21.8,48.8,48.8v474
		C574,1263.4,552.2,1285.3,525.2,1285.3z"/>
	<path class="st2" d="M216.3,1934.4c-4.3,45,0,92.1,10.7,137.1l-83.5,62.1l62.1,119.9l98.5-32.1c30,36.4,66.4,66.4,104.9,90
		L394,2412l128.5,40.7l47.1-92.1c45,4.3,92.1,0,137.1-10.7l62.1,83.5l119.9-62.1l-32.1-98.5c36.4-30,66.4-66.4,87.8-104.9l102.8,15
		l40.7-128.5l-92.1-49.3c4.3-45,0-92.1-10.7-137.1l83.5-62.1l-64.3-119.9l-98.5,32.1c-30-36.4-66.4-66.4-104.9-90l15-102.8
		l-128.5-40.7l-47.1,94.2c-45-4.3-92.1,0-137.1,10.7l-62.1-83.5l-119.9,62.1l32.1,98.5c-36.4,30-66.4,66.4-87.8,104.9l-102.8-15
		L122,1885.1L216.3,1934.4z"/>
	<ellipse class="st3" cx="604.5" cy="1970.7" rx="310.6" ry="310.6"/>
	<g>
		<path class="st2" d="M520.4,2082.2h-32.1v-158.5c0-27.8-21.4-49.3-49.3-49.3s-49.3,21.4-49.3,49.3v158.5h-32.1v-158.5
			c0-45,36.4-81.4,81.4-81.4s81.4,36.4,81.4,81.4V2082.2z"/>
		<path class="st2" d="M595.4,2082.2h-32.1v-239.9h85.7c34.3,0,62.1,27.8,62.1,62.1v27.8c0,34.3-27.8,62.1-62.1,62.1h-53.5V2082.2z
			 M595.4,1962.2h53.5c17.1,0,30-12.9,30-30v-27.8c0-17.1-12.9-30-30-30h-53.5V1962.2z"/>
		<polygon class="st2" points="837.4,1874.4 837.4,1842.3 743.1,1842.3 743.1,1874.4 775.3,1874.4 775.3,2065 743.1,2065 
			743.1,2097.2 837.4,2097.2 837.4,2065 807.4,2065 807.4,1874.4 		"/>
		<rect x="372.6" y="1947.2" class="st2" width="130.6" height="32.1"/>
	</g>
</g>
</svg>
