<?xml version="1.0" encoding="utf-8"?>
<!-- Generator: Adobe Illustrator 21.1.0, SVG Export Plug-In . SVG Version: 6.00 Build 0)  -->
<svg version="1.1" id="Layer_1" xmlns="http://www.w3.org/2000/svg" xmlns:xlink="http://www.w3.org/1999/xlink" x="0px" y="0px"
	 viewBox="0 0 2500 2500" style="enable-background:new 0 0 2500 2500;" xml:space="preserve">
<style type="text/css">
	.st0{fill:#9A4C00;}
	.st1{fill:#B38A65;}
	.st2{fill:#A17852;}
	.st3{fill:#703700;}
	.st4{fill:#FFDB2D;}
	.st5{fill:#FF9A00;}
	.st6{fill:#FFF5CB;}
	.st7{fill:#FFDBA9;}
	.st8{fill:#FF4F19;}
	.st9{fill:#FF3200;}
	.st10{fill:#326DE6;}
	.st11{fill:#FFFFFF;}
</style>
<rect x="280.3" y="112.4" transform="matrix(0.7071 -0.7071 0.7071 0.7071 -32.814 300.1505)" class="st0" width="131.2" height="154.6"/>
<path class="st1" d="M1529.2,436.9h-367.5V69.4h367.5V436.9z"/>
<rect x="1345.5" y="69.4" class="st2" width="183.7" height="367.5"/>
<rect x="2267.7" y="124.1" transform="matrix(0.7071 -0.7071 0.7071 0.7071 552.7195 1713.7468)" class="st3" width="154.6" height="131.2"/>
<path class="st4" d="M604,1060.2L352.5,808.7c-168.9-168.9-168.9-443.6,0-612.5C434.3,114.4,543,69.4,658.7,69.4
	c115.7,0,224.4,45,306.2,126.8l251.5,251.5L604,1060.2z"/>
<path class="st5" d="M2086.9,1060.2l-612.5-612.5L1726,196.2c81.8-81.8,190.6-126.8,306.2-126.8s224.4,45,306.2,126.8
	c168.9,168.9,168.9,443.6,0,612.5L2086.9,1060.2z"/>
<path class="st6" d="M1345.5,2134.1c-252.4,0-489.7-98.3-668.1-276.7s-276.7-415.7-276.7-668.1s98.3-489.7,276.7-668.1
	c178.5-178.5,415.7-276.7,668.1-276.7s489.7,98.3,668.1,276.7s276.7,415.7,276.7,668.1s-98.3,489.7-276.7,668.1
	S1597.9,2134.1,1345.5,2134.1z"/>
<path class="st7" d="M2013.6,521.1c-178.5-178.5-415.7-276.7-668.1-276.7v1889.8c252.4,0,489.7-98.3,668.1-276.7
	s276.7-415.7,276.7-668.1S2192.1,699.6,2013.6,521.1z"/>
<rect x="1275.5" y="550.6" class="st1" width="131.2" height="468.1"/>
<g>
	<rect x="1507.3" y="1123.6" class="st2" width="433.1" height="131.2"/>
	<rect x="1345.5" y="550.6" class="st2" width="61.2" height="468.1"/>
</g>
<path class="st8" d="M1345.5,1429.9c-132.7,0-240.6-107.9-240.6-240.6s107.9-240.6,240.6-240.6s240.6,107.9,240.6,240.6
	S1478.1,1429.9,1345.5,1429.9z"/>
<path class="st9" d="M1345.5,948.7v481.2c132.7,0,240.6-107.9,240.6-240.6S1478.1,948.7,1345.5,948.7z"/>
<path class="st8" d="M750.8,2309.1c-289.4,0-524.9-235.5-524.9-524.9s235.5-524.9,524.9-524.9s524.9,235.5,524.9,524.9
	S1040.2,2309.1,750.8,2309.1z"/>
<path class="st9" d="M750.8,1259.2v1049.9c289.4,0,524.9-235.5,524.9-524.9S1040.2,1259.2,750.8,1259.2z"/>
<path class="st0" d="M575.8,2279.1c54.8,19.4,113.6,30,175,30s120.2-10.6,175-30v-350.6h-350
	C575.8,1928.5,575.8,2279.1,575.8,2279.1z"/>
<path class="st3" d="M750.8,1928.5v380.6c61.3,0,120.2-10.6,175-30v-350.6H750.8z"/>
<path class="st4" d="M750.8,2126.8l-315-182.3V1548H637v240.5l113.7,63.7l113.7-63.7V1548h201.2v396.5L750.8,2126.8z"/>
<polygon class="st5" points="864.5,1548 864.5,1788.4 750.8,1852.2 750.8,2126.8 1065.7,1944.5 1065.7,1548 "/>
<g>
	<path class="st10" d="M1520.4,2438.6c-30.3,0-58.9-13.5-78.3-37.9l-294.5-366.1c-19.4-24.4-26.9-55.5-19.4-85.8l105.2-457
		c6.7-30.3,26.9-54.7,54.7-68.2L1714,1220c13.5-6.7,28.6-10.1,43.8-10.1s30.3,3.4,43.8,10.1l425.8,202.8
		c27.8,13.5,48,37.9,54.7,68.2l105.2,457c6.7,30.3,0,61.4-19.4,85.8l-294.6,366.1c-19.4,23.6-48,37.9-78.3,37.9L1520.4,2438.6
		L1520.4,2438.6z"/>
	<path class="st11" d="M1756.9,1230.9c11.8,0,23.6,2.5,34.5,7.6l425.8,202.8c21.9,10.9,38.7,31.1,43.8,54.7l105.2,457
		c5.9,24.4,0,49.7-16,69l-294.6,366.1c-15.1,19.4-38.7,30.3-63.1,30.3h-472.1c-24.4,0-48-10.9-63.1-30.3L1162.8,2022
		c-15.1-19.4-21-44.6-16-69l105.2-457c5.9-24.4,21.9-44.6,43.8-54.7l425.8-203.7C1732.5,1233.5,1745.1,1230.9,1756.9,1230.9
		L1756.9,1230.9z M1756.9,1191.4c-17.7,0-35.3,4.2-52.2,11.8l-425.8,203.7c-33.7,16-57.2,45.4-65.6,81.6l-105.2,457
		c-8.4,36.2,0,73.2,23.6,102.7l294.6,366.1c22.7,28.6,57.2,44.6,93.4,44.6h472.1c36.2,0,70.7-16,93.4-44.6l294.6-366.1
		c23.6-28.6,32-66.5,23.6-102.7l-105.2-457c-8.4-36.2-32-65.6-65.6-81.6l-424.2-203.7C1792.3,1195.6,1774.6,1191.4,1756.9,1191.4z"
		/>
	<path class="st11" d="M2183.6,1916.8C2182.8,1916.8,2182.8,1916.8,2183.6,1916.8h-0.8c-0.8,0-1.7,0-1.7-0.8c-1.7,0-3.4-0.8-5-0.8
		c-5.9-0.8-10.9-1.7-16-1.7c-2.5,0-5,0-8.4-0.8h-0.8c-17.7-1.7-32-3.4-45.4-7.6c-5.9-2.5-7.6-5.9-9.3-9.3c0-0.8-0.8-0.8-0.8-1.7
		l-10.9-3.4c5.2-39.6,3.2-79.8-5.9-118.7c-9.2-39.2-25.1-76.5-47.1-110.2l8.4-7.6v-1.7c0-4.2,0.8-8.4,4.2-12.6
		c10.1-9.3,22.7-16.8,37.9-26.1c2.5-1.7,5-2.5,7.6-4.2c5-2.5,9.3-5,14.3-8.4c0.8-0.8,2.5-1.7,4.2-3.4c0.8-0.8,1.7-0.8,1.7-1.7
		c11.8-10.1,14.3-26.9,5.9-37.9c-4.2-5.9-11.8-9.3-19.4-9.3c-6.7,0-12.6,2.5-18.5,6.7l-1.7,1.7c-1.7,0.8-2.5,2.5-4.2,3.4
		c-4.2,4.2-7.6,7.6-10.9,11.8c-1.7,1.7-3.4,4.2-5.9,5.9c-11.8,12.6-22.7,22.7-33.7,30.3c-2.5,1.7-5,2.5-7.6,2.5c-1.7,0-3.4,0-5-0.8
		h-1.7l-10.1,6.7c-10.9-11.8-22.7-21.9-34.5-32c-50.7-39.7-111.8-63.9-175.9-69.9l-0.8-10.9l-1.7-1.7c-2.5-2.5-5.9-5-6.7-10.9
		c-0.8-13.5,0.8-28.6,2.5-45.4v-0.8c0-2.5,0.8-5.9,1.7-8.4c0.8-5,1.7-10.1,2.5-16v-7.6c0-15.1-11.8-27.8-26.1-27.8
		c-6.7,0-13.5,3.4-18.5,8.4c-5,5-7.6,11.8-7.6,19.4v6.7c0,5.9,0.8,10.9,2.5,16c0.8,2.5,0.8,5,1.7,8.4v0.8c1.7,16.8,4.2,32,2.5,45.4
		c-0.8,5.9-4.2,8.4-6.7,10.9l-1.7,1.7l-0.8,10.9c-15.1,1.7-30.3,3.4-45.4,6.7c-64.8,14.3-122,47.1-166.6,94.3l-8.4-5.9h-1.7
		c-1.7,0-3.4,0.8-5,0.8c-2.5,0-5-0.8-7.6-2.5c-10.9-7.6-21.9-18.5-33.7-31.1c-1.7-1.7-3.4-4.2-5.9-5.9c-3.4-4.2-6.7-7.6-10.9-11.8
		c-0.8-0.8-2.5-1.7-4.2-3.4c-0.8-0.8-1.7-0.8-1.7-1.7c-5.2-4.3-11.8-6.7-18.5-6.7c-7.6,0-15.1,3.4-19.4,9.3
		c-8.4,10.9-5.9,27.8,5.9,37.9c0.8,0,0.8,0.8,1.7,0.8c1.7,0.8,2.5,2.5,4.2,3.4c5,3.4,9.3,5.9,14.3,8.4c2.5,0.8,5,2.5,7.6,4.2
		c15.1,9.3,27.8,16.8,37.9,26.1c4.2,4.2,4.2,8.4,4.2,12.6v1.7l8.4,7.6c-1.7,2.5-3.4,4.2-4.2,6.7c-42.1,66.5-58.1,144.8-47.1,222.2
		l-10.9,3.4c0,0.8-0.8,0.8-0.8,1.7c-1.7,3.4-4.2,6.7-9.3,9.3c-12.6,4.2-27.8,5.9-45.4,7.6h-0.8c-2.5,0-5.9,0-8.4,0.8
		c-5,0-10.1,0.8-16,1.7c-1.7,0-3.4,0.8-5,0.8c-0.8,0-1.7,0-2.5,0.8c-15.1,3.4-24.4,17.7-21.9,31.1c2.5,11.8,13.5,19.4,26.9,19.4
		c2.5,0,4.2,0,6.7-0.8c0.8,0,1.7,0,1.7-0.8c1.7,0,3.4-0.8,5-0.8c5.9-1.7,10.1-3.4,15.2-5.9c2.5-0.8,5-2.5,7.6-3.4h0.8
		c16-5.9,30.3-10.9,43.8-12.6h1.7c5,0,8.4,2.5,10.9,4.2c0.8,0,0.8,0.8,1.7,0.8l11.8-1.7c20.2,62.3,58.9,117.8,110.2,158.2
		c11.8,9.3,23.6,16.8,36.2,24.4l-5,10.9c0,0.8,0.8,0.8,0.8,1.7c1.7,3.4,3.4,7.6,1.7,13.5c-5,12.6-12.6,25.2-21.9,39.6v0.8
		c-1.7,2.5-3.4,4.2-5,6.7c-3.4,4.2-5.9,8.4-9.3,13.5c-0.8,0.8-1.7,2.5-2.5,4.2c0,0.8-0.8,1.7-0.8,1.7c-6.7,14.3-1.7,30.3,10.9,36.2
		c3.4,1.7,6.7,2.5,10.1,2.5c10.1,0,20.2-6.7,25.2-16c0-0.8,0.8-1.7,0.8-1.7c0.8-1.7,1.7-3.4,2.5-4.2c2.5-5.9,3.4-10.1,5-15.1
		l2.5-7.6c5.9-16.8,10.1-30.3,17.7-42.1c3.4-5,7.6-5.9,10.9-7.6c0.8,0,0.8,0,1.7-0.8l5.9-10.9c37,14.3,77.4,21.9,117.8,21.9
		c24.4,0,49.7-2.5,73.2-8.4c14.8-3.3,29.4-7.5,43.8-12.6l5,9.3c0.8,0,0.8,0,1.7,0.8c4.2,0.8,7.6,2.5,10.9,7.6
		c6.7,11.8,11.8,26.1,17.7,42.1v0.8l2.5,7.6c1.7,5,2.5,10.1,5,15.1c0.8,1.7,1.7,2.5,2.5,4.2c0,0.8,0.8,1.7,0.8,1.7
		c5,10.1,15.1,16,25.2,16c3.4,0,6.7-0.8,10.1-2.5c5.9-3.4,10.9-8.4,12.6-15.1c1.7-6.7,1.7-14.3-1.7-21c0-0.8-0.8-0.8-0.8-1.7
		c-0.8-1.7-1.7-3.4-2.5-4.2c-2.5-5-5.9-9.3-9.3-13.5c-1.7-2.5-3.4-4.2-5-6.7v-0.8c-9.3-14.3-17.7-26.9-21.9-39.6
		c-1.7-5.9,0-9.3,0.8-13.5c0-0.8,0.8-0.8,0.8-1.7l-4.2-10.1c44.6-26.1,82.5-63.1,111.1-108.6c15.1-23.6,26.9-49.7,35.3-75.7
		l10.1,1.7c0.8,0,0.8-0.8,1.7-0.8c3.4-1.7,5.9-4.2,10.9-4.2h1.7c13.5,1.7,27.8,6.7,43.8,12.6h0.8c2.5,0.8,5,2.5,7.6,3.4
		c5,2.5,9.3,4.2,15.1,5.9c1.7,0,3.4,0.8,5,0.8c0.8,0,1.7,0,2.5,0.8c2.5,0.8,4.2,0.8,6.7,0.8c12.6,0,23.6-8.4,26.9-19.4
		C2208,1934.5,2198.7,1921,2183.6,1916.8L2183.6,1916.8z M1793.9,1875.6l-37,17.7l-37-17.7l-9.3-39.6l25.2-32h41.2l25.2,32
		L1793.9,1875.6L1793.9,1875.6z M2013.6,1788.1c6.5,27.8,8.5,56.5,5.9,85l-128.8-37c-11.8-3.4-18.5-15.1-16-26.9
		c0.8-3.4,2.5-6.7,5-9.3l101.8-91.7C1995.9,1731.7,2006.9,1758.6,2013.6,1788.1L2013.6,1788.1z M1941.2,1657.6l-110.2,78.3
		c-9.3,5.9-21.9,4.2-29.5-5c-2.5-2.5-3.4-5.9-4.2-9.3l-7.6-137.2C1847.1,1591,1900.5,1616.8,1941.2,1657.6L1941.2,1657.6z
		 M1697.2,1588.6c9.3-1.7,17.7-3.4,26.9-5l-7.6,134.6c-0.8,11.8-10.1,21.9-22.7,21.9c-3.4,0-7.6-0.8-10.1-2.5l-111.9-79.9
		C1606.3,1623.1,1649.2,1599.5,1697.2,1588.6L1697.2,1588.6z M1531.4,1708.1l100.1,89.2c9.3,7.6,10.1,21.9,2.5,31.1
		c-2.5,3.4-5.9,5.9-10.1,6.7l-130.4,37.9C1488.5,1815.8,1501.1,1757.8,1531.4,1708.1L1531.4,1708.1z M1508.6,1936.2l133.8-22.7
		c10.9-0.8,21,6.7,23.6,17.7c0.8,5,0.8,9.3-0.8,13.5l-51.3,123.7C1566.7,2038,1528.9,1991.7,1508.6,1936.2L1508.6,1936.2z
		 M1815.8,2103.6c-19.4,4.2-38.7,6.7-58.9,6.7c-29.5,0-58.1-5-85-13.5l66.5-120.3c6.7-7.6,17.7-10.9,26.9-5.9
		c3.9,2.4,7.4,5.5,10.1,9.3l64.8,117C1832.7,2099.4,1824.2,2101.1,1815.8,2103.6L1815.8,2103.6z M1979.9,1986.7
		c-21,33.7-48.8,60.6-80.8,81.6l-53-127.1c-2.5-10.1,1.7-21,11.8-26.1c3.4-1.7,7.6-2.5,11.8-2.5l134.7,22.7
		C1999.3,1953.8,1990.9,1970.7,1979.9,1986.7L1979.9,1986.7z"/>
</g>
</svg>
