<?xml version="1.0" encoding="utf-8"?>
<!-- Generator: Adobe Illustrator 22.1.0, SVG Export Plug-In . SVG Version: 6.00 Build 0)  -->
<svg version="1.1" id="Layer_1" xmlns="http://www.w3.org/2000/svg" xmlns:xlink="http://www.w3.org/1999/xlink" x="0px" y="0px"
	 viewBox="0 0 302.8 66.3" style="enable-background:new 0 0 302.8 66.3;" xml:space="preserve">
<style type="text/css">
	.st0{fill:#326CE5;}
	.st1{opacity:0.8;}
</style>
<g>
	<g>
		<g>
			<path class="st0" d="M95.9,46.2h-7.3l-6.9-9.4v9.4h-6.4v-30h6.4v17.9l6.4-9.4h7.5l-7.8,10.7L95.9,46.2z"/>
			<path class="st0" d="M111.2,24.8h6.4v21.4h-6.4v-2c-1.3,1.7-3.3,2.6-6.1,2.6c-2.3,0-4.2-0.8-5.7-2.4c-1.5-1.6-2.3-3.7-2.3-6.5
				V24.8h6.4V37c0,1.3,0.3,2.2,1,2.9c0.7,0.7,1.6,1,2.7,1c1.2,0,2.2-0.4,2.9-1.1c0.7-0.7,1.1-1.8,1.1-3.3V24.8z"/>
			<path class="st0" d="M135.2,24.2c2.8,0,5.2,1.1,7.2,3.3c2,2.2,3,4.9,3,8c0,3.2-1,5.8-3,8c-2,2.2-4.4,3.3-7.2,3.3
				c-2.7,0-4.9-0.9-6.4-2.6v2h-6.4v-30h6.4v10.6C130.3,25.1,132.4,24.2,135.2,24.2z M130.2,39.4c1,0.9,2.2,1.4,3.7,1.4
				c1.5,0,2.7-0.5,3.7-1.4c1-0.9,1.4-2.2,1.4-3.8c0-1.6-0.5-2.9-1.4-3.8c-1-0.9-2.2-1.4-3.7-1.4c-1.5,0-2.7,0.5-3.7,1.4
				c-1,0.9-1.4,2.2-1.4,3.8C128.8,37.1,129.3,38.4,130.2,39.4z"/>
			<path class="st0" d="M154.8,38.1c0.7,2,2.5,3,5.1,3c1.7,0,3.1-0.5,4.1-1.6l5.1,3c-2.1,2.9-5.2,4.4-9.3,4.4
				c-3.6,0-6.5-1.1-8.6-3.2c-2.2-2.1-3.2-4.8-3.2-8.1c0-3.2,1.1-5.9,3.2-8.1c2.1-2.2,4.9-3.2,8.2-3.2c3.1,0,5.7,1.1,7.8,3.2
				c2.1,2.2,3.1,4.8,3.1,8.1c0,0.9-0.1,1.8-0.3,2.6H154.8z M154.6,33.3h9.2c-0.6-2.3-2.1-3.4-4.5-3.4
				C156.8,29.9,155.3,31.1,154.6,33.3z"/>
			<path class="st0" d="M191.5,46.2l-9.2-30h7.5l6.7,22.1l6.6-22.1h6.9l-9.2,30H191.5z"/>
			<path class="st0" d="M225.8,24.8h6.4v21.4h-6.4v-2c-1.5,1.7-3.6,2.6-6.4,2.6c-2.8,0-5.2-1.1-7.2-3.3c-2-2.2-3-4.9-3-8
				c0-3.2,1-5.8,3-8c2-2.2,4.4-3.3,7.2-3.3c2.7,0,4.9,0.9,6.4,2.6V24.8z M217.1,39.4c0.9,0.9,2.2,1.4,3.7,1.4c1.5,0,2.7-0.5,3.7-1.4
				s1.4-2.2,1.4-3.8c0-1.6-0.5-2.9-1.4-3.8s-2.2-1.4-3.7-1.4c-1.5,0-2.7,0.5-3.7,1.4s-1.4,2.2-1.4,3.8
				C215.6,37.1,216.1,38.4,217.1,39.4z"/>
			<path class="st0" d="M250.8,24.8h6.4v21.4h-6.4v-2c-1.3,1.7-3.3,2.6-6.1,2.6c-2.3,0-4.2-0.8-5.7-2.4c-1.5-1.6-2.3-3.7-2.3-6.5
				V24.8h6.4V37c0,1.3,0.3,2.2,1,2.9c0.7,0.7,1.6,1,2.7,1c1.2,0,2.2-0.4,2.9-1.1c0.7-0.7,1.1-1.8,1.1-3.3V24.8z"/>
			<path class="st0" d="M261.9,46.2V15h6.4v31.3H261.9z"/>
			<path class="st0" d="M285.6,31h-4.4v7.6c0,0.9,0.3,1.4,1,1.6c0.7,0.2,1.8,0.3,3.4,0.2v5.8c-4.1,0.4-6.9,0-8.5-1.2
				c-1.6-1.2-2.4-3.4-2.4-6.5V31h-3.4v-6.2h3.4v-4.1l6.4-1.9v6h4.4V31z"/>
		</g>
	</g>
	<g>
		<path class="st0" d="M39,8.2c0.2,0,0.4,0,0.6,0c0.6,0.1,1.2,0.2,1.8,0.5c0.4,0.2,0.9,0.4,1.3,0.6c4.7,2.3,9.4,4.5,14.1,6.8
			c0.5,0.2,1,0.4,1.4,0.7c1.3,0.7,2.1,1.8,2.4,3.3c0.6,2.5,1.1,4.9,1.7,7.4c0.8,3.5,1.6,7,2.4,10.5c0.3,1.5,0,2.9-0.9,4.1
			c-3.8,4.7-7.6,9.5-11.4,14.2c-0.6,0.7-1.2,1.3-2.1,1.7c-0.6,0.2-1.2,0.4-1.9,0.4c-5.7,0-11.4,0-17.1,0c-0.7,0-1.3,0-2,0
			c-0.6,0-1.3-0.3-1.8-0.6c-0.5-0.3-1-0.7-1.4-1.1c-3.9-4.8-7.8-9.6-11.7-14.5c-0.8-1-1.1-2.1-1-3.3c0-0.6,0.2-1.2,0.3-1.7
			c1.1-4.7,2.2-9.5,3.3-14.2c0.2-1,0.4-1.9,0.7-2.9c0.4-1.4,1.2-2.4,2.5-3.1c3.6-1.7,7.2-3.4,10.7-5.1c2-1,4-1.9,6-2.9
			C37.7,8.4,38.4,8.2,39,8.2z M39.3,56.6c3.1,0,6.1,0,9.2,0c1.1,0,2-0.4,2.7-1.3c2.4-3,4.8-6,7.3-9c1.4-1.8,2.9-3.6,4.3-5.3
			c0.7-0.8,0.9-1.7,0.6-2.7c-0.3-1.2-0.5-2.3-0.8-3.5c-1.1-4.7-2.2-9.5-3.3-14.2c-0.3-1.1-0.9-2-1.9-2.5c-3.6-1.7-7.1-3.4-10.7-5.1
			c-2-0.9-4-1.9-5.9-2.8c-1-0.5-1.9-0.4-2.9,0c-1.9,0.9-3.8,1.8-5.7,2.7c-3.7,1.7-7.3,3.5-11,5.2c-0.9,0.4-1.5,1.2-1.8,2.1
			c-0.4,1.9-0.9,3.7-1.3,5.6c-0.9,4.1-1.9,8.2-2.8,12.3c-0.1,0.5-0.2,0.9-0.1,1.4c0.1,0.6,0.4,1.2,0.8,1.7c1.2,1.5,2.5,3.1,3.7,4.6
			c2.6,3.2,5.2,6.5,7.8,9.7c0.7,0.9,1.6,1.3,2.7,1.3C33.2,56.6,36.2,56.6,39.3,56.6z"/>
		<g>
			<path class="st0" d="M39.3,17.1c-9.2,0-16.7,7.5-16.7,16.7s7.5,16.7,16.7,16.7s16.7-7.5,16.7-16.7S48.5,17.1,39.3,17.1z M51,24.8
				c0.1-0.1,0.4-0.1,0.5,0.1s0.1,0.4-0.1,0.5c-0.1,0.1-0.4,0.1-0.5-0.1C50.9,25.1,50.9,24.9,51,24.8z M47.7,21.6
				c0.1-0.1,0.3-0.2,0.5-0.1c0.1,0.1,0.2,0.3,0.1,0.5c-0.1,0.1-0.3,0.2-0.5,0.1C47.6,21.9,47.6,21.7,47.7,21.6z M43.9,19.4
				c0.2,0.1,0.3,0.2,0.2,0.4c-0.1,0.2-0.2,0.3-0.4,0.2c-0.2-0.1-0.3-0.2-0.2-0.4C43.6,19.4,43.8,19.3,43.9,19.4z M39.3,18.6
				c0.2,0,0.3,0.1,0.3,0.3c0,0.2-0.1,0.3-0.3,0.3c-0.2,0-0.3-0.1-0.3-0.3C38.9,18.8,39.1,18.6,39.3,18.6z M34.6,19.4
				c0.2-0.1,0.4,0,0.4,0.2c0.1,0.2,0,0.4-0.2,0.4c-0.2,0.1-0.4,0-0.4-0.2C34.3,19.6,34.4,19.4,34.6,19.4z M30.4,21.5
				c0.1-0.1,0.4-0.1,0.5,0.1s0.1,0.4-0.1,0.5c-0.1,0.1-0.4,0.1-0.5-0.1C30.2,21.8,30.2,21.6,30.4,21.5z M27,24.8
				c0.1-0.1,0.3-0.2,0.5-0.1s0.2,0.3,0.1,0.5c-0.1,0.1-0.3,0.2-0.5,0.1C27,25.2,26.9,25,27,24.8z M24.5,34c-0.2,0-0.3-0.1-0.3-0.3
				c0-0.2,0.1-0.3,0.3-0.3s0.3,0.1,0.3,0.3C24.8,33.9,24.7,34,24.5,34z M25.3,38.6c-0.2,0.1-0.4,0-0.4-0.2c-0.1-0.2,0-0.4,0.2-0.4
				c0.2-0.1,0.4,0,0.4,0.2C25.6,38.4,25.5,38.5,25.3,38.6z M25.1,29.5c-0.2-0.1-0.3-0.2-0.2-0.4c0.1-0.2,0.2-0.3,0.4-0.2
				c0.2,0.1,0.3,0.2,0.2,0.4C25.5,29.4,25.3,29.5,25.1,29.5z M27.5,42.7c-0.1,0.1-0.4,0.1-0.5-0.1c-0.1-0.1-0.1-0.4,0.1-0.5
				c0.1-0.1,0.4-0.1,0.5,0.1C27.7,42.4,27.6,42.6,27.5,42.7z M30.8,45.9c-0.1,0.1-0.3,0.2-0.5,0.1c-0.1-0.1-0.2-0.3-0.1-0.5
				c0.1-0.1,0.3-0.2,0.5-0.1C30.9,45.5,31,45.7,30.8,45.9z M34.6,48.1c-0.2-0.1-0.3-0.2-0.2-0.4c0.1-0.2,0.2-0.3,0.4-0.2
				c0.2,0.1,0.3,0.2,0.2,0.4C35,48.1,34.8,48.1,34.6,48.1z M39.3,48.8c-0.2,0-0.3-0.1-0.3-0.3s0.1-0.3,0.3-0.3
				c0.2,0,0.3,0.1,0.3,0.3S39.4,48.8,39.3,48.8z M43.9,48.1c-0.2,0.1-0.4,0-0.4-0.2c-0.1-0.2,0-0.4,0.2-0.4c0.2-0.1,0.4,0,0.4,0.2
				C44.2,47.9,44.1,48,43.9,48.1z M48.1,45.9c-0.1,0.1-0.4,0.1-0.5-0.1c-0.1-0.1-0.1-0.4,0.1-0.5c0.1-0.1,0.4-0.1,0.5,0.1
				C48.3,45.6,48.3,45.8,48.1,45.9z M51.5,42.6c-0.1,0.1-0.3,0.2-0.5,0.1s-0.2-0.3-0.1-0.5c0.1-0.1,0.3-0.2,0.5-0.1
				C51.6,42.3,51.6,42.5,51.5,42.6z M39.3,47.1c-7.4,0-13.4-6-13.4-13.4c0-7.4,6-13.4,13.4-13.4c7.4,0,13.4,6,13.4,13.4
				C52.6,41.1,46.6,47.1,39.3,47.1z M53.2,38.6c-0.2-0.1-0.3-0.2-0.2-0.4c0.1-0.2,0.2-0.3,0.4-0.2s0.3,0.2,0.2,0.4
				C53.6,38.6,53.4,38.7,53.2,38.6z M53.4,29.5c-0.2,0.1-0.4,0-0.4-0.2c-0.1-0.2,0-0.4,0.2-0.4c0.2-0.1,0.4,0,0.4,0.2
				C53.7,29.2,53.6,29.4,53.4,29.5z M54,34c-0.2,0-0.3-0.1-0.3-0.3c0-0.2,0.1-0.3,0.3-0.3s0.3,0.1,0.3,0.3C54.4,33.9,54.2,34,54,34z
				"/>
			<g class="st1">
				<path class="st0" d="M39.3,20.4c-7.4,0-13.4,6-13.4,13.4c0,7.4,6,13.4,13.4,13.4c7.4,0,13.4-6,13.4-13.4
					C52.6,26.3,46.6,20.4,39.3,20.4z M46.3,34.3c-0.1,1.5-0.7,2.9-1.6,4l2.5,2.5l-0.8,0.8l-2.5-2.5c-1.1,0.9-2.5,1.5-4,1.6v3.5h-1.1
					v-3.5c-1.5-0.1-2.9-0.7-4-1.6l-2.5,2.5l-0.8-0.8l2.5-2.5c-0.9-1-1.4-2.3-1.6-3.7h-3.5v-1.2h3.5c0.1-1.6,0.7-3.1,1.6-4.2
					l-2.4-2.4l0.8-0.8l2.4,2.4c1.2-1,2.6-1.6,4.2-1.6v-3.5h1.2v3.5c1.5,0.2,2.9,0.9,4,1.9l2.7-2.7l0.8,0.8l-2.7,2.7
					c0.8,1,1.3,2.3,1.4,3.6h3.5v1.1H46.3z"/>
				<path class="st0" d="M35.7,38.1c0.8,0.7,1.9,1.1,3,1.2v-0.8c-0.9-0.1-1.8-0.5-2.5-1L35.7,38.1z"/>
				<path class="st0" d="M33.7,34.6c0.2,1,0.6,1.9,1.2,2.7l0.5-0.5c-0.5-0.6-0.8-1.4-1-2.2H33.7z"/>
				<path class="st0" d="M39,28.8v-0.7c-1.2,0.1-2.4,0.5-3.3,1.3l0.5,0.5C37,29.2,37.9,28.9,39,28.8z"/>
				<path class="st0" d="M35.4,30.7l-0.5-0.5c-0.7,0.9-1.2,2-1.3,3.3h0.7C34.4,32.4,34.8,31.5,35.4,30.7z"/>
				<path class="st0" d="M39.8,38.6v0.8c1.1-0.1,2.2-0.6,3-1.2l-0.5-0.5C41.6,38.1,40.8,38.5,39.8,38.6z"/>
				<path class="st0" d="M43.2,29.6c-0.8-0.8-1.8-1.3-3-1.5v0.7c0.9,0.2,1.8,0.6,2.5,1.3L43.2,29.6z"/>
				<path class="st0" d="M43.4,31c0.4,0.6,0.7,1.3,0.8,2.1h0.8c-0.1-1-0.4-1.9-1-2.7L43.4,31z"/>
				<path class="st0" d="M43.1,36.8l0.5,0.5c0.7-0.8,1.1-1.9,1.2-3h-0.8C44,35.2,43.7,36.1,43.1,36.8z"/>
				<path class="st0" d="M40.3,33.7c0-0.5-0.4-1-1-1c-0.5,0-1,0.4-1,1s0.4,1,1,1C39.8,34.7,40.3,34.3,40.3,33.7z"/>
				<path class="st0" d="M43.1,33.1c-0.1-0.5-0.2-0.9-0.5-1.4c-0.2-0.3-0.4-0.7-0.7-0.9c-0.5-0.4-1.1-0.8-1.7-0.9
					c-0.3-0.1-0.6-0.1-0.9-0.1c-0.1,0-0.2,0-0.3,0c-0.7,0.1-1.4,0.3-2,0.7c-0.3,0.2-0.6,0.5-0.8,0.8c-0.4,0.6-0.7,1.3-0.7,2
					c0,0.1,0,0.2,0,0.3c0,0.3,0,0.6,0.1,0.9c0.1,0.5,0.4,1,0.7,1.4c0.2,0.3,0.5,0.6,0.8,0.8c0.5,0.4,1.1,0.6,1.7,0.7
					c0.2,0,0.4,0.1,0.6,0.1c0.2,0,0.4,0,0.6-0.1c0.6-0.1,1.2-0.3,1.7-0.7c0.3-0.2,0.6-0.5,0.8-0.8c0.4-0.5,0.6-1.1,0.7-1.7
					c0-0.2,0.1-0.4,0.1-0.6C43.2,33.5,43.1,33.3,43.1,33.1z M36.2,33.7c0-1.7,1.4-3.1,3.1-3.1c1.7,0,3.1,1.4,3.1,3.1
					c0,1.7-1.4,3.1-3.1,3.1C37.6,36.8,36.2,35.4,36.2,33.7z"/>
			</g>
		</g>
	</g>
</g>
</svg>
