<?xml version="1.0" encoding="utf-8"?>
<!-- Generator: Adobe Illustrator 22.1.0, SVG Export Plug-In . SVG Version: 6.00 Build 0)  -->
<svg version="1.1" id="Layer_1" xmlns="http://www.w3.org/2000/svg" xmlns:xlink="http://www.w3.org/1999/xlink" x="0px" y="0px"
	 viewBox="0 0 58.9 56.2" style="enable-background:new 0 0 58.9 56.2;" xml:space="preserve">
<style type="text/css">
	.st0{fill:#326CE5;}
	.st1{opacity:0.8;}
</style>
<g>
	<path class="st0" d="M29.2,3.2c0.2,0,0.4,0,0.6,0c0.6,0.1,1.2,0.2,1.8,0.5c0.4,0.2,0.9,0.4,1.3,0.6c4.7,2.3,9.4,4.5,14.1,6.8
		c0.5,0.2,1,0.4,1.4,0.7c1.3,0.7,2.1,1.8,2.4,3.3c0.6,2.5,1.1,4.9,1.7,7.4c0.8,3.5,1.6,7,2.4,10.5c0.3,1.5,0,2.9-0.9,4.1
		c-3.8,4.7-7.6,9.5-11.4,14.2c-0.6,0.7-1.2,1.3-2.1,1.7c-0.6,0.2-1.2,0.4-1.9,0.4c-5.7,0-11.4,0-17.1,0c-0.7,0-1.3,0-2,0
		c-0.6,0-1.3-0.3-1.8-0.6c-0.5-0.3-1-0.7-1.4-1.1c-3.9-4.8-7.8-9.6-11.7-14.5c-0.8-1-1.1-2.1-1-3.3c0-0.6,0.2-1.2,0.3-1.7
		c1.1-4.7,2.2-9.5,3.3-14.2c0.2-1,0.4-1.9,0.7-2.9c0.4-1.4,1.2-2.4,2.5-3.1c3.6-1.7,7.2-3.4,10.7-5.1c2-1,4-1.9,6-2.9
		C27.9,3.4,28.6,3.2,29.2,3.2z M29.5,51.6c3.1,0,6.1,0,9.2,0c1.1,0,2-0.4,2.7-1.3c2.4-3,4.8-6,7.3-9c1.4-1.8,2.9-3.6,4.3-5.3
		c0.7-0.8,0.9-1.7,0.6-2.7c-0.3-1.2-0.5-2.3-0.8-3.5c-1.1-4.7-2.2-9.5-3.3-14.2c-0.3-1.1-0.9-2-1.9-2.5c-3.6-1.7-7.1-3.4-10.7-5.1
		c-2-0.9-4-1.9-5.9-2.8C30,4.6,29,4.6,28,5c-1.9,0.9-3.8,1.8-5.7,2.7c-3.7,1.7-7.3,3.5-11,5.2c-0.9,0.4-1.5,1.2-1.8,2.1
		c-0.4,1.9-0.9,3.7-1.3,5.6C7.4,24.8,6.4,28.9,5.5,33c-0.1,0.5-0.2,0.9-0.1,1.4c0.1,0.6,0.4,1.2,0.8,1.7c1.2,1.5,2.5,3.1,3.7,4.6
		c2.6,3.2,5.2,6.5,7.8,9.7c0.7,0.9,1.6,1.3,2.7,1.3C23.4,51.6,26.4,51.6,29.5,51.6z"/>
	<g>
		<path class="st0" d="M29.5,12.1c-9.2,0-16.7,7.5-16.7,16.7s7.5,16.7,16.7,16.7s16.7-7.5,16.7-16.7S38.7,12.1,29.5,12.1z
			 M41.2,19.8c0.1-0.1,0.4-0.1,0.5,0.1s0.1,0.4-0.1,0.5c-0.1,0.1-0.4,0.1-0.5-0.1C41.1,20.1,41.1,19.9,41.2,19.8z M37.9,16.6
			c0.1-0.1,0.3-0.2,0.5-0.1c0.1,0.1,0.2,0.3,0.1,0.5c-0.1,0.1-0.3,0.2-0.5,0.1C37.8,16.9,37.8,16.7,37.9,16.6z M34.1,14.4
			c0.2,0.1,0.3,0.2,0.2,0.4c-0.1,0.2-0.2,0.3-0.4,0.2c-0.2-0.1-0.3-0.2-0.2-0.4C33.8,14.4,34,14.3,34.1,14.4z M29.5,13.6
			c0.2,0,0.3,0.1,0.3,0.3c0,0.2-0.1,0.3-0.3,0.3c-0.2,0-0.3-0.1-0.3-0.3C29.1,13.8,29.3,13.6,29.5,13.6z M24.8,14.4
			c0.2-0.1,0.4,0,0.4,0.2c0.1,0.2,0,0.4-0.2,0.4c-0.2,0.1-0.4,0-0.4-0.2C24.5,14.6,24.6,14.4,24.8,14.4z M20.6,16.5
			c0.1-0.1,0.4-0.1,0.5,0.1s0.1,0.4-0.1,0.5c-0.1,0.1-0.4,0.1-0.5-0.1C20.4,16.8,20.4,16.6,20.6,16.5z M17.2,19.8
			c0.1-0.1,0.3-0.2,0.5-0.1s0.2,0.3,0.1,0.5c-0.1,0.1-0.3,0.2-0.5,0.1C17.2,20.2,17.1,20,17.2,19.8z M14.7,29
			c-0.2,0-0.3-0.1-0.3-0.3c0-0.2,0.1-0.3,0.3-0.3s0.3,0.1,0.3,0.3C15,28.9,14.9,29,14.7,29z M15.5,33.6c-0.2,0.1-0.4,0-0.4-0.2
			c-0.1-0.2,0-0.4,0.2-0.4c0.2-0.1,0.4,0,0.4,0.2C15.8,33.4,15.7,33.5,15.5,33.6z M15.3,24.5c-0.2-0.1-0.3-0.2-0.2-0.4
			c0.1-0.2,0.2-0.3,0.4-0.2c0.2,0.1,0.3,0.2,0.2,0.4C15.7,24.4,15.5,24.5,15.3,24.5z M17.7,37.7c-0.1,0.1-0.4,0.1-0.5-0.1
			c-0.1-0.1-0.1-0.4,0.1-0.5c0.1-0.1,0.4-0.1,0.5,0.1C17.9,37.4,17.8,37.6,17.7,37.7z M21,40.9c-0.1,0.1-0.3,0.2-0.5,0.1
			c-0.1-0.1-0.2-0.3-0.1-0.5c0.1-0.1,0.3-0.2,0.5-0.1C21.1,40.5,21.2,40.7,21,40.9z M24.8,43.1c-0.2-0.1-0.3-0.2-0.2-0.4
			c0.1-0.2,0.2-0.3,0.4-0.2c0.2,0.1,0.3,0.2,0.2,0.4C25.2,43.1,25,43.1,24.8,43.1z M29.5,43.8c-0.2,0-0.3-0.1-0.3-0.3
			s0.1-0.3,0.3-0.3c0.2,0,0.3,0.1,0.3,0.3S29.7,43.8,29.5,43.8z M34.1,43.1c-0.2,0.1-0.4,0-0.4-0.2c-0.1-0.2,0-0.4,0.2-0.4
			c0.2-0.1,0.4,0,0.4,0.2C34.4,42.9,34.3,43,34.1,43.1z M38.4,40.9c-0.1,0.1-0.4,0.1-0.5-0.1c-0.1-0.1-0.1-0.4,0.1-0.5
			c0.1-0.1,0.4-0.1,0.5,0.1C38.5,40.6,38.5,40.8,38.4,40.9z M41.7,37.6c-0.1,0.1-0.3,0.2-0.5,0.1s-0.2-0.3-0.1-0.5
			c0.1-0.1,0.3-0.2,0.5-0.1C41.8,37.3,41.8,37.5,41.7,37.6z M29.5,42.1c-7.4,0-13.4-6-13.4-13.4c0-7.4,6-13.4,13.4-13.4
			c7.4,0,13.4,6,13.4,13.4C42.8,36.1,36.8,42.1,29.5,42.1z M43.4,33.6c-0.2-0.1-0.3-0.2-0.2-0.4c0.1-0.2,0.2-0.3,0.4-0.2
			s0.3,0.2,0.2,0.4C43.8,33.6,43.6,33.7,43.4,33.6z M43.6,24.5c-0.2,0.1-0.4,0-0.4-0.2c-0.1-0.2,0-0.4,0.2-0.4
			c0.2-0.1,0.4,0,0.4,0.2C43.9,24.2,43.8,24.4,43.6,24.5z M44.3,29c-0.2,0-0.3-0.1-0.3-0.3c0-0.2,0.1-0.3,0.3-0.3s0.3,0.1,0.3,0.3
			C44.6,28.9,44.4,29,44.3,29z"/>
		<g class="st1">
			<path class="st0" d="M29.5,15.4c-7.4,0-13.4,6-13.4,13.4c0,7.4,6,13.4,13.4,13.4c7.4,0,13.4-6,13.4-13.4
				C42.8,21.3,36.8,15.4,29.5,15.4z M36.5,29.3c-0.1,1.5-0.7,2.9-1.6,4l2.5,2.5l-0.8,0.8L34,34.1c-1.1,0.9-2.5,1.5-4,1.6v3.5h-1.1
				v-3.5c-1.5-0.1-2.9-0.7-4-1.6l-2.5,2.5l-0.8-0.8l2.5-2.5c-0.9-1-1.4-2.3-1.6-3.7H19v-1.2h3.5c0.1-1.6,0.7-3.1,1.6-4.2l-2.4-2.4
				l0.8-0.8l2.4,2.4c1.2-1,2.6-1.6,4.2-1.6v-3.5h1.2v3.5c1.5,0.2,2.9,0.9,4,1.9L37,21l0.8,0.8l-2.7,2.7c0.8,1,1.3,2.3,1.4,3.6H40
				v1.1H36.5z"/>
			<path class="st0" d="M25.9,33.1c0.8,0.7,1.9,1.1,3,1.2v-0.8c-0.9-0.1-1.8-0.5-2.5-1L25.9,33.1z"/>
			<path class="st0" d="M23.9,29.6c0.2,1,0.6,1.9,1.2,2.7l0.5-0.5c-0.5-0.6-0.8-1.4-1-2.2H23.9z"/>
			<path class="st0" d="M29.2,23.8v-0.7c-1.2,0.1-2.4,0.5-3.3,1.3l0.5,0.5C27.2,24.2,28.1,23.9,29.2,23.8z"/>
			<path class="st0" d="M25.6,25.7l-0.5-0.5c-0.7,0.9-1.2,2-1.3,3.3h0.7C24.6,27.4,25,26.5,25.6,25.7z"/>
			<path class="st0" d="M30,33.6v0.8c1.1-0.1,2.2-0.6,3-1.2l-0.5-0.5C31.8,33.1,31,33.5,30,33.6z"/>
			<path class="st0" d="M33.4,24.6c-0.8-0.8-1.8-1.3-3-1.5v0.7c0.9,0.2,1.8,0.6,2.5,1.3L33.4,24.6z"/>
			<path class="st0" d="M33.6,26c0.4,0.6,0.7,1.3,0.8,2.1h0.8c-0.1-1-0.4-1.9-1-2.7L33.6,26z"/>
			<path class="st0" d="M33.3,31.8l0.5,0.5c0.7-0.8,1.1-1.9,1.2-3h-0.8C34.2,30.2,33.9,31.1,33.3,31.8z"/>
			<path class="st0" d="M30.5,28.7c0-0.5-0.4-1-1-1c-0.5,0-1,0.4-1,1s0.4,1,1,1C30,29.7,30.5,29.3,30.5,28.7z"/>
			<path class="st0" d="M33.3,28.1c-0.1-0.5-0.2-0.9-0.5-1.4c-0.2-0.3-0.4-0.7-0.7-0.9c-0.5-0.4-1.1-0.8-1.7-0.9
				c-0.3-0.1-0.6-0.1-0.9-0.1c-0.1,0-0.2,0-0.3,0c-0.7,0.1-1.4,0.3-2,0.7c-0.3,0.2-0.6,0.5-0.8,0.8c-0.4,0.6-0.7,1.3-0.7,2
				c0,0.1,0,0.2,0,0.3c0,0.3,0,0.6,0.1,0.9c0.1,0.5,0.4,1,0.7,1.4c0.2,0.3,0.5,0.6,0.8,0.8c0.5,0.4,1.1,0.6,1.7,0.7
				c0.2,0,0.4,0.1,0.6,0.1c0.2,0,0.4,0,0.6-0.1c0.6-0.1,1.2-0.3,1.7-0.7c0.3-0.2,0.6-0.5,0.8-0.8c0.4-0.5,0.6-1.1,0.7-1.7
				c0-0.2,0.1-0.4,0.1-0.6C33.4,28.5,33.3,28.3,33.3,28.1z M26.4,28.7c0-1.7,1.4-3.1,3.1-3.1c1.7,0,3.1,1.4,3.1,3.1
				c0,1.7-1.4,3.1-3.1,3.1C27.8,31.8,26.4,30.4,26.4,28.7z"/>
		</g>
	</g>
</g>
</svg>
