<?xml version="1.0" encoding="utf-8"?>
<!-- Generator: Adobe Illustrator 21.1.0, SVG Export Plug-In . SVG Version: 6.00 Build 0)  -->
<svg version="1.1" id="Layer_1" xmlns="http://www.w3.org/2000/svg" xmlns:xlink="http://www.w3.org/1999/xlink" x="0px" y="0px"
	 viewBox="0 0 2500 2500" style="enable-background:new 0 0 2500 2500;" xml:space="preserve">
<style type="text/css">
	.st0{fill:#4C8ECB;}
	.st1{fill:#F4E006;}
	.st2{fill:#4B8DCA;}
	.st3{fill:#80C146;}
	.st4{fill:#498CC9;}
	.st5{fill:#4A8CC9;}
	.st6{fill:#BCA431;}
	.st7{fill:#BEA630;}
	.st8{fill:#24658F;}
	.st9{fill:#5B853D;}
	.st10{fill:#23648E;}
	.st11{fill:#246590;}
	.st12{fill:#5C883D;}
</style>
<path class="st0" d="M1262.4,2465.7c-149.5,0-299-2.8-448.4,1.3c-70.3,1.9-118.7-23.6-160.1-78.1
	c-67.1-88.3-138.2-173.5-207.8-259.9c-91.2-113.3-182.5-226.4-273.9-339.6c-24.5-30.4-47.5-62.4-74.6-90.2
	c-50-51.2-57-109.1-41.2-176.2c62.3-264.7,122.5-529.8,183.4-794.8c8.1-35.4,15.7-71,23.5-106.6c8.3-38,29.6-66.2,64.4-83.2
	C441.2,483,554.9,427.9,668.8,373c167.1-80.6,334.7-160,501.2-241.8c36.8-18.1,72-35.2,114.1-27.8c35.7,6.3,65.4,27.1,97.2,42.2
	c189,89.7,377,181.2,565.6,271.6c77,37,154.7,72.7,231.9,109.2c44.4,20.9,72.2,52.6,83.6,103.2c54.2,240.4,111.1,480.2,167,720.2
	c15.7,67.3,31.9,134.5,46.4,202.1c9.2,42.8,2.5,81.9-26.7,117.8c-94.6,116.4-187.8,234.1-281.3,351.4
	c-98.1,122.9-197.1,245.1-293.4,369.4c-39.7,51.3-84.9,78-152.6,76.3C1568.7,2463,1415.6,2465.6,1262.4,2465.7z M1262.6,2349.2
	c0,0,0-0.1,0-0.1c140.4,0,280.7-0.2,421.1,0.1c43.4,0.1,80.4-13.7,108.4-47.8c28.3-34.4,56.4-69,84.2-103.9
	c78.1-98.2,155.8-196.7,234.1-294.8c70.3-88.1,140.8-176,211.6-263.7c27.1-33.5,36.2-70.7,26.6-112.5
	c-24.6-107.3-49.1-214.6-73.9-321.8c-38.9-167.4-78.4-334.7-116.8-502.2c-9.5-41.4-33.7-71.3-70-89.2
	c-111-54.6-222.9-107.3-334.6-160.4c-143.6-68.3-287.7-135.8-430.9-204.9c-42.9-20.7-83.2-21.2-125.2,0.8
	c-30.6,16-62.1,30.2-93.2,45.2c-117.2,56.3-234.4,112.7-351.6,169c-102.5,49.2-205,98.4-307.4,147.8c-39.5,19.1-68.3,46.9-78.4,91.8
	c-33.9,150.8-68.7,301.4-103,452.2c-28.3,124.1-57,248.2-84.5,372.5c-8.3,37.5-5.7,74.7,19.4,106.6c28.7,36.4,58.1,72.2,87.3,108.2
	c69.8,86.2,139.8,172.3,209.4,258.6c80.5,99.8,160.6,199.9,241.2,299.7c27.6,34.2,64.4,49,107.9,48.9
	C983.7,2349.1,1123.2,2349.2,1262.6,2349.2z"/>
<path class="st1" d="M1262,1522.8c-63.7,0-127.4-0.4-191.2,0.3c-16.5,0.2-24.4-2.5-24.2-21.9c0.8-128.3,0.7-256.7,0.1-385.1
	c-0.1-17,5.6-21.7,21.9-21.6c129.3,0.5,258.5,0.5,387.8,0c17-0.1,21.4,5.6,21.3,22.1c-0.6,128.4-0.6,256.7,0,385.1
	c0.1,16.9-5.2,21.7-21.8,21.5C1391.2,1522.3,1326.6,1522.8,1262,1522.8z M1428.4,1309.4c0-59.2-1.1-118.4,0.5-177.6
	c0.6-23.5-11.1-25-28.4-23.6c-15.1,1.2-33-6.2-32.7,22c1.1,118.4,1.1,236.8,0,355.2c-0.3,27.9,17.1,21.4,32.5,22.4
	c17.1,1.1,29.3,0.2,28.7-23.5C1427.4,1426,1428.4,1367.6,1428.4,1309.4z M1231.9,1306.3c0,59.2,1,118.4-0.5,177.6
	c-0.6,23.3,10.8,25.2,28.4,23.8c15.1-1.2,33,6.1,32.8-22.1c-1.1-118.4-1.1-236.8,0-355.2c0.3-27.9-17.1-21.4-32.4-22.3
	c-16.9-1-29.4-0.5-28.7,23.4C1233,1189.7,1231.9,1248,1231.9,1306.3z M1095.4,1307.8c0,59.2,0.8,118.4-0.4,177.6
	c-0.5,21.8,10.5,24.2,27,22.3c14.3-1.7,34.2,8.3,34-20.6c-0.8-119.3-0.8-238.6,0.1-357.9c0.2-26.4-16.6-20.5-31.1-20.8
	c-15.3-0.4-30.7-3.6-30,21.9C1096.4,1189.3,1095.4,1248.6,1095.4,1307.8z"/>
<path class="st2" d="M1258.9,1984.7c-61.9,0-123.8-0.7-185.7,0.4c-19.5,0.3-27-3.9-26.8-25.4c1-126.5,0.9-253.1,0.1-379.6
	c-0.1-19.8,6.7-24,25-23.9c127.4,0.7,254.9,0.8,382.3-0.1c20-0.1,23.9,6.7,23.8,25.1c-0.7,126.5-0.8,253.1,0,379.6
	c0.1,19.4-6.2,24.6-24.9,24.3C1388.2,1984.1,1323.6,1984.7,1258.9,1984.7z M1155.4,1775.4c0-60.1-1.1-120.2,0.5-180.3
	c0.7-27.7-16.7-21.8-32.3-22.6c-17-0.9-29.1-0.4-28.9,23.4c1.1,117.4,1.3,234.9-0.1,352.3c-0.3,26.5,14.2,23.7,31.1,24
	c17.8,0.3,31.2,0.7,30.4-24.8C1154.1,1890.2,1155.4,1832.8,1155.4,1775.4z M1231.8,1771c0,58.3,1.2,116.6-0.6,174.8
	c-0.7,23.3,8.6,27.7,28.7,26.5c17.5-1,33.1,2.9,32.8-25.2c-1.5-116.5-1.4-233.1,0-349.7c0.3-25.1-11.9-25-30-25.3
	c-19.6-0.4-32.3,0.6-31.4,26.7C1233.2,1656.2,1231.8,1713.6,1231.8,1771z M1428.5,1773.1c0-59.2-1-118.4,0.5-177.6
	c0.6-24.3-12.8-23.6-29.2-23c-15.8,0.6-32.3-4.5-32,22.9c1.2,117.5,1.3,234.9-0.1,352.4c-0.3,26,13.4,24.4,30.7,24.4
	c17.3,0,31.6,1.8,30.7-24.4C1427.2,1889.7,1428.5,1831.4,1428.5,1773.1z"/>
<path class="st3" d="M1263.4,633.5c63.8,0,127.6,0.6,191.4-0.4c18.2-0.3,23,5.6,22.9,23.4c-0.7,126.7-0.6,253.4-0.1,380.1
	c0.1,17-3.7,23.8-22.5,23.7c-128.5-0.8-257-0.8-385.5,0c-18.5,0.1-23-6-22.9-23.5c0.6-126.7,0.8-253.4-0.1-380.1
	c-0.1-20.4,7.6-23.9,25.5-23.7C1135.8,634,1199.6,633.5,1263.4,633.5z M1095.2,848.3c0,57.4,1.2,114.8-0.6,172.1
	c-0.8,24.3,8.8,28.7,30.2,28.1c19.6-0.5,31.6-1,31.3-27c-1.4-117.4-1.3-234.9,0-352.3c0.3-24.1-10.2-26.2-29.3-26.2
	c-20.2,0-32.6,2.6-32,27.8C1096.2,730,1095.2,789.2,1095.2,848.3z M1368.4,846.8c0,58.3,1.1,116.6-0.6,174.9
	c-0.7,23.2,8.6,27.8,28.7,26.6c17.5-1,33.1,2.8,32.7-25.3c-1.5-116.6-1.5-233.2,0-349.8c0.4-28-15.2-24.3-32.8-25.3
	c-20.3-1.2-29.3,3.7-28.6,26.8C1369.5,732,1368.4,789.4,1368.4,846.8z M1292.1,848.2c0-58.3-1.2-116.6,0.6-174.9
	c0.8-24.9-11.6-26-30-25.3c-16.6,0.6-31.7-2.9-31.4,23.8c1.3,117.5,1.3,235,0,352.5c-0.3,26.8,14.7,23.3,31.3,23.8
	c18.1,0.6,30.9,0.1,30.1-25.1C1290.8,964.8,1292.1,906.5,1292.1,848.2z"/>
<path class="st1" d="M1726,1522.8c-64.7,0-129.4-0.5-194,0.3c-16.7,0.2-21.8-4.7-21.7-21.6c0.6-128.4,0.6-256.9,0-385.3
	c-0.1-16.9,5-21.8,21.6-21.8c129.3,0.5,258.7,0.5,388,0c16.4-0.1,22,4.7,21.9,21.6c-0.6,128.4-0.6,256.9,0,385.3
	c0.1,16.8-5.1,21.9-21.8,21.7C1855.3,1522.3,1790.7,1522.8,1726,1522.8z M1560.2,1306.3c0,59.1,1.3,118.2-0.6,177.2
	c-0.8,26.1,13.6,25.3,30.8,24c15.4-1.2,35.4,8.1,35.1-22.3c-1.1-118.2-1.2-236.3,0-354.5c0.3-30.3-19.3-21.5-34.8-22.5
	c-16.7-1.1-31.9-3.1-31.1,23.6C1561.5,1189.9,1560.2,1248.2,1560.2,1306.3z M1893,1307.5c0-57.3-0.9-114.6,0.4-171.9
	c0.5-21.2-5.1-30.1-27.3-27.7c-18.3,1.9-38.5-5.4-38.2,26.6c1.2,116.4,1.3,232.8-0.1,349.2c-0.4,29.2,17.1,23.3,33.7,24.2
	c18.7,1,33,1.3,32.1-25.8C1891.7,1423.9,1893,1365.7,1893,1307.5z M1756.7,1309.4c0-59.2-1.1-118.5,0.5-177.6
	c0.6-23.4-10.9-25.2-28.4-23.7c-15,1.3-33.1-6.5-32.8,21.9c1.1,118.4,1.1,236.9,0,355.3c-0.3,27.9,17,21.5,32.4,22.4
	c17,1,29.4,0.5,28.8-23.4C1755.6,1426.1,1756.7,1367.7,1756.7,1309.4z"/>
<path class="st4" d="M802.4,1556.6c62,0,123.9,0.6,185.9-0.4c17.9-0.3,25.5,2.9,25.4,23.4c-0.9,127.5-0.8,255.1-0.1,382.6
	c0.1,18.3-5.9,22.8-23.4,22.8c-127.5-0.6-255.1-0.7-382.6,0c-18.5,0.1-22.8-6.3-22.7-23.7c0.6-127.5,0.7-255.1-0.1-382.6
	c-0.1-18.7,6.6-22.7,23.7-22.5C673,1557.1,737.7,1556.6,802.4,1556.6z M963.7,1773.3c0-58.3-1.2-116.6,0.6-174.9
	c0.7-23.8-9.6-27-29.1-26.2c-18,0.7-32.9-2.1-32.5,25.6c1.5,116.6,1.4,233.2,0,349.7c-0.3,25.8,12.9,24.9,30.5,24.6
	c16.9-0.2,31.9,2.6,31.1-24C962.4,1890,963.7,1831.6,963.7,1773.3z M635.2,1771.3c0,58.3,1.2,116.7-0.6,174.9
	c-0.7,24,9.9,26.3,29.2,26.3c20.2,0,32.2-2.5,32-27.7c-1.1-115.7-1.2-231.4,0.1-347.2c0.3-24.9-11.8-25.1-30-25.5
	c-19.8-0.4-32.2,0.9-31.3,26.9C636.5,1656.5,635.2,1713.9,635.2,1771.3z M827.3,1775.4c0-59.2-1.2-118.5,0.6-177.7
	c0.8-25-11.6-25.9-30-25.3c-16.7,0.6-31.7-2.8-31.4,23.9c1.3,116.6,1.2,233.3,0.1,349.9c-0.2,26.8,14.9,25.1,33.4,26.3
	c21.7,1.4,28.3-5.9,27.8-27.7C826.3,1888.4,827.3,1831.9,827.3,1775.4z"/>
<path class="st5" d="M798.9,1522.6c-63.8,0-127.6-0.6-191.3,0.4c-18.1,0.3-23.2-5.7-23.1-23.5c0.7-126.6,0.8-253.3-0.1-379.9
	c-0.1-19.6,6.4-24.3,25-24.2c126.6,0.7,253.3,0.8,379.9-0.1c19.6-0.1,24.2,6.2,24.1,24.9c-0.8,125.7-0.9,251.5,0.1,377.2
	c0.2,20.8-5.9,26.1-26.1,25.7C924.6,1521.8,861.7,1522.6,798.9,1522.6z M903.3,1306.6c0,58.3,1.2,116.7-0.6,174.9
	c-0.7,23.5,9.1,27.5,28.9,26.4c17.6-0.9,33.1,2.8,32.7-25.3c-1.5-116.6-1.5-233.2,0-349.8c0.4-28.6-15.9-23.7-33-24.9
	c-20.1-1.4-29.4,3.3-28.7,26.6C904.4,1191.8,903.3,1249.2,903.3,1306.6z M827.2,1309c0-58.3-1.2-116.6,0.6-174.8
	c0.7-23.6-9.2-27.3-28.9-26.4c-17.8,0.8-32.9-2.4-32.5,25.5c1.5,116.5,1.4,233.1,0,349.7c-0.3,25.3,12.3,25.4,30.2,25
	c16.9-0.4,32,2.5,31.1-24.1C825.9,1425.6,827.2,1367.3,827.2,1309z M695.4,1308.8c0-58.3-1.2-116.6,0.6-174.8
	c0.7-23.8-9.5-26.9-29-26.2c-18.2,0.6-32.7-1.8-32.4,25.7c1.5,116.5,1.4,233.1,0,349.6c-0.3,25.6,12.7,25,30.4,24.8
	c17.1-0.2,31.8,2,30.9-24.3C694.1,1425.4,695.4,1367,695.4,1308.8z"/>
<path class="st3" d="M1726.6,633.5c62.8,0,125.7,0.7,188.5-0.4c19.3-0.3,27.1,3.4,26.9,25.1c-1.1,125.7-0.8,251.3-0.2,377
	c0.1,18.3-4.1,25.3-24,25.2c-127.5-0.8-255-0.7-382.5-0.1c-18,0.1-25.4-3.5-25.2-23.7c0.9-126.6,0.9-253.2,0-379.7
	c-0.1-20.1,7-24,25.2-23.8C1599.1,634.1,1662.9,633.5,1726.6,633.5z M1560,848.3c0,58.3,1.4,116.6-0.6,174.8
	c-1,28.3,15.5,25.2,32.9,24.8c16.7-0.3,33.9,4.9,33.5-24.2c-1.5-117.5-1.2-235-0.2-352.4c0.2-24.5-10.5-29-31.4-28.3
	c-19.6,0.6-35.7-0.9-34.8,27.7C1561.3,729.9,1560,789.1,1560,848.3z M1893.3,847.9c0-59.2-1-118.4,0.5-177.5
	c0.6-25.6-12.6-27.7-32.4-27.3c-18.4,0.4-33.8-0.9-33.6,26c1,118.3,1.2,236.7-0.1,355c-0.3,29.3,17.3,23.2,33.9,23.9
	c18.3,0.8,33.4,2.1,32.4-25.4C1891.9,964.4,1893.3,906.1,1893.3,847.9z M1696.5,847c0,58.3,1.2,116.7-0.6,174.9
	c-0.7,23.6,9.1,27.4,28.9,26.4c17.7-0.9,33,2.5,32.6-25.4c-1.5-116.6-1.4-233.3,0-349.9c0.3-25.3-12.3-25.4-30.3-25
	c-16.9,0.4-32-2.6-31.2,24.1C1697.8,730.3,1696.5,788.6,1696.5,847z"/>
<path class="st6" d="M1428.4,1309.4c0,58.3-1.1,116.6,0.5,174.9c0.6,23.7-11.5,24.6-28.7,23.5c-15.4-1-32.8,5.6-32.5-22.4
	c1.2-118.4,1.1-236.8,0-355.2c-0.3-28.2,17.6-20.8,32.7-22c17.4-1.4,29.1,0.1,28.4,23.6C1427.4,1190.9,1428.4,1250.2,1428.4,1309.4z
	"/>
<path class="st6" d="M1231.9,1306.3c0-58.3,1.1-116.6-0.5-174.9c-0.7-23.9,11.8-24.4,28.7-23.4c15.4,0.9,32.7-5.5,32.4,22.3
	c-1.2,118.4-1.1,236.8,0,355.2c0.3,28.2-17.6,20.8-32.8,22.1c-17.5,1.5-29-0.5-28.4-23.8C1232.9,1424.8,1231.9,1365.5,1231.9,1306.3
	z"/>
<path class="st7" d="M1095.4,1307.8c0-59.2,1.1-118.4-0.5-177.6c-0.7-25.5,14.7-22.3,30-21.9c14.5,0.4,31.3-5.5,31.1,20.8
	c-0.9,119.3-0.8,238.6-0.1,357.9c0.2,29-19.8,19-34,20.6c-16.4,1.9-27.4-0.5-27-22.3C1096.2,1426.2,1095.4,1366.9,1095.4,1307.8z"/>
<path class="st8" d="M1155.4,1775.4c0,57.4-1.3,114.8,0.6,172.1c0.8,25.6-12.6,25.2-30.4,24.8c-16.9-0.3-31.4,2.4-31.1-24
	c1.4-117.4,1.2-234.9,0.1-352.3c-0.2-23.8,11.9-24.3,28.9-23.4c15.7,0.8,33.1-5,32.3,22.6
	C1154.3,1655.2,1155.4,1715.3,1155.4,1775.4z"/>
<path class="st8" d="M1231.8,1771c0-57.4,1.4-114.8-0.6-172.1c-0.9-26.2,11.8-27.1,31.4-26.7c18.1,0.3,30.3,0.2,30,25.3
	c-1.3,116.5-1.5,233.1,0,349.7c0.4,28.1-15.3,24.2-32.8,25.2c-20.1,1.2-29.4-3.2-28.7-26.5C1233,1887.6,1231.8,1829.3,1231.8,1771z"
	/>
<path class="st8" d="M1428.5,1773.1c0,58.3-1.3,116.6,0.6,174.8c0.9,26.2-13.4,24.4-30.7,24.4c-17.3,0-31,1.6-30.7-24.4
	c1.4-117.5,1.3-234.9,0.1-352.4c-0.3-27.4,16.2-22.4,32-22.9c16.4-0.6,29.9-1.3,29.2,23C1427.4,1654.7,1428.5,1713.9,1428.5,1773.1z
	"/>
<path class="st9" d="M1095.2,848.3c0-59.2,1-118.4-0.5-177.5c-0.6-25.2,11.8-27.8,32-27.8c19.1,0,29.6,2.1,29.3,26.2
	c-1.3,117.4-1.4,234.9,0,352.3c0.3,26-11.7,26.5-31.3,27c-21.3,0.6-30.9-3.8-30.2-28.1C1096.4,963.1,1095.2,905.7,1095.2,848.3z"/>
<path class="st9" d="M1368.4,846.8c0-57.4,1.1-114.8-0.5-172.2c-0.7-23,8.3-28,28.6-26.8c17.6,1.1,33.1-2.7,32.8,25.3
	c-1.5,116.6-1.5,233.2,0,349.8c0.4,28.1-15.2,24.2-32.7,25.3c-20.1,1.2-29.3-3.3-28.7-26.6C1369.5,963.4,1368.4,905.1,1368.4,846.8z
	"/>
<path class="st9" d="M1292.1,848.2c0,58.3-1.3,116.6,0.6,174.9c0.8,25.2-12,25.7-30.1,25.1c-16.6-0.5-31.6,3-31.3-23.8
	c1.3-117.5,1.3-235,0-352.5c-0.3-26.8,14.8-23.2,31.4-23.8c18.4-0.7,30.8,0.4,30,25.3C1290.8,731.5,1292.1,789.9,1292.1,848.2z"/>
<path class="st7" d="M1560.2,1306.3c0-58.2,1.3-116.4-0.6-174.5c-0.9-26.7,14.3-24.6,31.1-23.6c15.5,1,35.1-7.8,34.8,22.5
	c-1.2,118.2-1.1,236.3,0,354.5c0.3,30.4-19.7,21.2-35.1,22.3c-17.2,1.3-31.6,2.1-30.8-24C1561.5,1424.5,1560.2,1365.4,1560.2,1306.3
	z"/>
<path class="st7" d="M1893,1307.5c0,58.2-1.4,116.5,0.6,174.6c0.9,27-13.4,26.8-32.1,25.8c-16.6-0.9-34,5.1-33.7-24.2
	c1.4-116.4,1.3-232.8,0.1-349.2c-0.3-32,19.9-24.6,38.2-26.6c22.2-2.4,27.8,6.6,27.3,27.7C1892.2,1192.9,1893,1250.2,1893,1307.5z"
	/>
<path class="st6" d="M1756.7,1309.4c0,58.3-1.1,116.6,0.5,174.9c0.7,23.9-11.8,24.4-28.8,23.4c-15.5-0.9-32.7,5.5-32.4-22.4
	c1.2-118.4,1.1-236.9,0-355.3c-0.3-28.4,17.8-20.6,32.8-21.9c17.5-1.5,29,0.3,28.4,23.7C1755.6,1191,1756.7,1250.2,1756.7,1309.4z"
	/>
<path class="st10" d="M963.7,1773.3c0,58.3-1.3,116.6,0.6,174.9c0.9,26.6-14.2,23.8-31.1,24c-17.6,0.3-30.8,1.1-30.5-24.6
	c1.4-116.6,1.4-233.2,0-349.7c-0.3-27.7,14.5-24.9,32.5-25.6c19.5-0.8,29.8,2.4,29.1,26.2C962.5,1656.7,963.7,1715.1,963.7,1773.3z"
	/>
<path class="st11" d="M635.2,1771.3c0-57.4,1.3-114.9-0.6-172.2c-0.9-26,11.5-27.3,31.3-26.9c18.3,0.3,30.3,0.5,30,25.5
	c-1.3,115.7-1.2,231.4-0.1,347.2c0.2,25.3-11.8,27.7-32,27.7c-19.3,0-29.9-2.3-29.2-26.3C636.4,1888,635.2,1829.6,635.2,1771.3z"/>
<path class="st11" d="M827.3,1775.4c0,56.5-1,113,0.5,169.5c0.6,21.8-6.1,29.1-27.8,27.7c-18.4-1.2-33.6,0.5-33.4-26.3
	c1-116.6,1.2-233.3-0.1-349.9c-0.3-26.7,14.7-23.3,31.4-23.9c18.4-0.6,30.8,0.3,30,25.3C826,1656.9,827.3,1716.1,827.3,1775.4z"/>
<path class="st10" d="M903.3,1306.6c0-57.4,1.2-114.8-0.6-172.2c-0.7-23.3,8.5-28,28.7-26.6c17.1,1.2,33.3-3.6,33,24.9
	c-1.5,116.6-1.5,233.2,0,349.8c0.4,28.1-15.1,24.4-32.7,25.3c-19.8,1.1-29.6-2.9-28.9-26.4C904.4,1423.3,903.3,1364.9,903.3,1306.6z
	"/>
<path class="st8" d="M827.2,1309c0,58.3-1.3,116.6,0.6,174.8c0.8,26.6-14.3,23.7-31.1,24.1c-18,0.4-30.5,0.4-30.2-25
	c1.3-116.5,1.5-233.1,0-349.7c-0.4-27.8,14.7-24.6,32.5-25.5c19.7-0.9,29.6,2.8,28.9,26.4C826,1192.4,827.2,1250.7,827.2,1309z"/>
<path class="st11" d="M695.4,1308.8c0,58.3-1.3,116.6,0.6,174.8c0.8,26.3-13.8,24.1-30.9,24.3c-17.7,0.2-30.7,0.8-30.4-24.8
	c1.3-116.5,1.4-233.1,0-349.6c-0.3-27.5,14.2-25.1,32.4-25.7c19.5-0.7,29.8,2.4,29,26.2C694.2,1192.2,695.4,1250.5,695.4,1308.8z"/>
<path class="st12" d="M1560,848.3c0-59.2,1.3-118.4-0.5-177.6c-0.9-28.6,15.3-27.1,34.8-27.7c20.9-0.7,31.6,3.8,31.4,28.3
	c-1,117.5-1.3,235,0.2,352.4c0.4,29.1-16.8,23.9-33.5,24.2c-17.5,0.4-33.9,3.5-32.9-24.8C1561.5,964.9,1560,906.6,1560,848.3z"/>
<path class="st12" d="M1893.3,847.9c0,58.3-1.4,116.6,0.6,174.8c0.9,27.5-14.2,26.2-32.4,25.4c-16.6-0.7-34.2,5.4-33.9-23.9
	c1.4-118.3,1.1-236.7,0.1-355c-0.2-26.9,15.2-25.6,33.6-26c19.8-0.5,33,1.6,32.4,27.3C1892.3,729.5,1893.3,788.7,1893.3,847.9z"/>
<path class="st9" d="M1696.5,847c0-58.3,1.3-116.7-0.6-174.9c-0.8-26.6,14.3-23.7,31.2-24.1c18-0.4,30.6-0.3,30.3,25
	c-1.3,116.6-1.5,233.3,0,349.9c0.4,27.9-14.8,24.6-32.6,25.4c-19.8,1-29.6-2.8-28.9-26.4C1697.7,963.6,1696.5,905.3,1696.5,847z"/>
</svg>
