<?xml version="1.0" encoding="utf-8"?>
<!-- Generator: Adobe Illustrator 21.1.0, SVG Export Plug-In . SVG Version: 6.00 Build 0)  -->
<svg version="1.1" id="Layer_1" xmlns="http://www.w3.org/2000/svg" xmlns:xlink="http://www.w3.org/1999/xlink" x="0px" y="0px"
	 viewBox="0 0 2500 2432" style="enable-background:new 0 0 2500 2432;" xml:space="preserve">
<style type="text/css">
	.st0{fill:#EEF0F3;}
	.st1{fill:#FFFFFF;}
	.st2{fill:#D6DCE2;}
	.st3{fill:#EAB234;}
	.st4{fill:#FFCD52;}
	.st5{fill:url(#SVGID_1_);}
	.st6{fill:#82B1FF;}
	.st7{fill:url(#SVGID_2_);}
	.st8{fill:url(#SVGID_3_);}
	.st9{fill:url(#SVGID_4_);}
	.st10{fill:url(#SVGID_5_);}
	.st11{fill:url(#SVGID_6_);}
	.st12{fill:url(#SVGID_7_);}
	.st13{fill:url(#SVGID_8_);}
	.st14{fill:url(#SVGID_9_);}
	.st15{fill:url(#SVGID_10_);}
	.st16{fill:#63C1D2;}
	.st17{fill:#76CED8;}
	.st18{fill:url(#SVGID_11_);}
	.st19{opacity:0.4;}
	.st20{fill:#C9D9FB;}
	.st21{fill:#326CE5;}
	.st22{fill:#326DE5;}
</style>
<g>
	<path class="st0" d="M1632.7,2073.8c0,0-28.6-94-104.2-137.4c-19.9-11.7-29.1-33.7-34.2-55.7c-4.1-18.4-6.1-37.3-13.3-54.1
		c-3.1-7.1-7.1-14.8-8.7-22.5s2-15.8-2.6-24c-10.2-18.4-59.7-137.9,57.7-172.1c52.1-15.3,101.1,1,131.2,46.5
		c9.2,13.8,16.3,29.1,21.4,44.9c8.7,29.1-8.7,65.4-18.9,92.9c-10.7,28.1-22.5,55.7-17.9,86.8c5.6,37.3,27.1,68.4,41.4,101.6
		c9.2,21.4,16.9,52.6-6.1,66.9C1663.8,2057.5,1648,2065.1,1632.7,2073.8z"/>
	<path class="st1" d="M1528.5,1936.5c-51.1-30.6-27.6-80.7-49-112.3c-21.4-31.7,0.5-25-10.2-43.4c-10.2-18.4-59.7-137.9,57.7-172.1
		c57.7-16.3,137.9,13.3,145,81.2c5.1,43.4-29.1,72-52.1,103.1c-23,32.2-23,78.1-16.9,115.4
		C1607.1,1929.3,1577.5,1958.4,1528.5,1936.5z"/>
	<g>
		<path class="st2" d="M1634.2,2076.4c-0.5,0-1,0.5-2,0.5c-2,0-3.1-2-3.1-3.1c5.6-80.7-15.3-115.9-38.8-157.3
			c-2-3.6-4.1-7.1-6.1-10.7c-35.7-70-38.3-129.2-34.2-166.5c5.1-40.3,17.9-63.8,18.4-65.4c0.5-1.5,2.6-2,4.1-1c1,0.5,2,2.6,1,4.1
			c-0.5,1-51.1,94.5,15.8,225.7c2,3.6,4.1,7.1,6.1,10.2c24.5,41.9,46,78.6,40.3,160.9C1635.7,2075.3,1635.2,2075.9,1634.2,2076.4z"
			/>
	</g>
</g>
<g>
	<g>
		<path class="st3" d="M1894.6,1573.9c-3.1-3.6-24-1-28.1-1c-19.9,0-40.9,2.6-60.3,7.1c-44.9,12.3-71,48-62.3,95
			c7.1,40.9,41.4,95.5-8.7,124.6c-19.4,10.7-38.8,9.7-46,35.7c-6.6,25.5,0.5,53.6,6.6,78.6c6.6,27.6,8.7,49,0,76.6
			c-6.1,19.4-18.4,35.7-24.5,54.6c-9.7,32.2-9.2,68.9-3.6,101.6c3.6,19.9,38.3,12.3,54.6,12.3l85.3-73l55.7-127.7l49-201.2l49-103.7
			L1894.6,1573.9z"/>
		<path class="st4" d="M1760.8,2159.1c0.5-28.6,19.4-54.1,42.9-70c35.7-24.5,85.3-20.9,115.4-54.6c18.9-22,26-50,21.4-78.6
			c-2.6-15.3-11.7-27.6-15.3-41.9c-6.6-25.5,16.3-47,36.8-58.7c16.9-9.7,37.8-8.7,54.6-18.9c15.8-9.2,25.5-28.1,28.1-46
			c3.6-24.5-2.6-49.5-5.6-73.5c-6.1-59.7,34.2-137.4-29.1-178.2c-69.4-44.9-125.1,33.7-185.4,54.6c-11.7,4.1-23,6.6-33.7,12.8
			c-27.6,16.9-13.8,49.5-9.2,75.1c5.1,25,13.3,56.7,3.6,81.7c-11.7,31.1-66.4,90.4-49,134.3c17.9,43.9,19.4,92.9-6.1,128.2
			c-25.5,35.2-75.6,90.4-66.9,134.3C1663.8,2162.2,1752.7,2159.1,1760.8,2159.1z"/>
		<g>
			<path class="st3" d="M1696.5,2166.8c0,0,14.8-25,24.5-42.9c2.6-3.6,8.2-10.2,15.3-18.9c25-28.6,66.4-76.1,63.8-122.6
				c-2.6-62.8,5.1-127.7,17.9-150.6c12.8-22.5,37.3-44.9,63.3-69.4c40.9-37.8,87.3-80.7,95.5-132.8c0-2-0.5-3.1-2.6-3.6
				c-2,0-3.1,0.5-3.6,2.6c-8.2,50-53.6,91.9-94,129.2c-26,24.5-51.1,47.5-64.9,71c-15.3,27.6-20.9,98-18.9,154.2
				c2,43.9-38.3,90.9-62.8,118.5c-8.2,9.2-13.3,15.8-15.8,19.9c-9.7,17.9-24.5,42.9-24.5,42.9L1696.5,2166.8z"/>
		</g>
	</g>
	<g>
		<path class="st3" d="M1871.1,1772.5c-2,0-3.1-1-3.1-2.6l-12.8-124.6c0-2,1-3.1,2.6-3.1c2,0,3.1,1,3.1,2.6l12.8,124.6
			C1874.2,1771,1872.7,1772.5,1871.1,1772.5L1871.1,1772.5z"/>
	</g>
	<g>
		<path class="st3" d="M1800.2,1951.3c-0.5,0-2,0-2.6-0.5c-1-1-1-3.1,0-4.1l95.5-95.5c1-1,3.1-1,4.1,0s1,3.1,0,4.1l-95,95.5
			C1801.7,1951.3,1800.7,1951.3,1800.2,1951.3z"/>
	</g>
</g>
<linearGradient id="SVGID_1_" gradientUnits="userSpaceOnUse" x1="501.3345" y1="1263.1586" x2="497.0569" y2="1261.0359" gradientTransform="matrix(21.3896 0 0 -26.5036 -8892.1357 35550.375)">
	<stop  offset="0" style="stop-color:#FFCD52;stop-opacity:0"/>
	<stop  offset="4.334000e-02" style="stop-color:#FCC94E;stop-opacity:5.000000e-02"/>
	<stop  offset="0.2462" style="stop-color:#F2BC3F;stop-opacity:0.281"/>
	<stop  offset="0.489" style="stop-color:#ECB437;stop-opacity:0.559"/>
	<stop  offset="0.8747" style="stop-color:#EAB234"/>
</linearGradient>
<path class="st5" d="M1845.6,2124.4c16.3,65.9-20.9,62.8-20.9,62.8l-30.6-19.4c-10.2-49.5-75.1-142-75.1-142
	S1831.3,2069.2,1845.6,2124.4z"/>
<path class="st6" d="M2187,1193.8h30.1"/>
<linearGradient id="SVGID_2_" gradientUnits="userSpaceOnUse" x1="491.6877" y1="1280.1991" x2="481.9136" y2="1283.103" gradientTransform="matrix(44.8561 0 0 -40.8 -21094.0977 54125.2969)">
	<stop  offset="0.144" style="stop-color:#F2F4F7;stop-opacity:0"/>
	<stop  offset="0.2586" style="stop-color:#D8E1F0;stop-opacity:5.400000e-02"/>
	<stop  offset="0.5038" style="stop-color:#96B1DD;stop-opacity:0.168"/>
	<stop  offset="0.8574" style="stop-color:#2C64BF;stop-opacity:0.333"/>
	<stop  offset="1" style="stop-color:#0044B2;stop-opacity:0.4"/>
</linearGradient>
<path class="st7" d="M618.4,1949.6c0,0-21.4-184.9,273.2-224.2l-48,248.7C843.1,1974.1,676.6,1947,618.4,1949.6z"/>
<linearGradient id="SVGID_3_" gradientUnits="userSpaceOnUse" x1="484.8235" y1="1270.546" x2="485.2565" y2="1275.9536" gradientTransform="matrix(51.8673 0 0 -19.8 -24264.1074 26836.4961)">
	<stop  offset="0.1809" style="stop-color:#0044B2;stop-opacity:0.4"/>
	<stop  offset="0.7028" style="stop-color:#2963FF;stop-opacity:0"/>
</linearGradient>
<path class="st8" d="M1053.9,1660c0,0-137.4-31.1-41.9-120.5l-206.8,2.6l-19.9,39.8c0,0-103.7-35.7-4.1,9.7
	c34.2,15.8,65.9,38.3,87.3,68.9h185.4V1660z"/>
<linearGradient id="SVGID_4_" gradientUnits="userSpaceOnUse" x1="507.0464" y1="1293.309" x2="506.9336" y2="1285.1292" gradientTransform="matrix(36.1 0 0 -23.3 -16294.7939 31376.9961)">
	<stop  offset="0.4251" style="stop-color:#FFFFFF;stop-opacity:0"/>
	<stop  offset="0.5427" style="stop-color:#B3C7E8;stop-opacity:0.1"/>
	<stop  offset="0.6704" style="stop-color:#6790D1;stop-opacity:0.208"/>
	<stop  offset="0.7763" style="stop-color:#2F67C0;stop-opacity:0.298"/>
	<stop  offset="0.8547" style="stop-color:#0D4EB6;stop-opacity:0.364"/>
	<stop  offset="0.897" style="stop-color:#0044B2;stop-opacity:0.4"/>
</linearGradient>
<path class="st9" d="M2116,1384.3l2-142L1897.9,1346l87.3,17.9C1984.2,1364.4,2111.4,1383.8,2116,1384.3z"/>
<linearGradient id="SVGID_5_" gradientUnits="userSpaceOnUse" x1="500.7104" y1="1265.2051" x2="500.3785" y2="1270.3314" gradientTransform="matrix(73.2 0 0 -26.0515 -34482.7031 34993.8906)">
	<stop  offset="1.884000e-02" style="stop-color:#5088D8;stop-opacity:0.4"/>
	<stop  offset="0.2939" style="stop-color:#5B91E1;stop-opacity:0.277"/>
	<stop  offset="0.777" style="stop-color:#78A9F8;stop-opacity:6.100000e-02"/>
	<stop  offset="0.9135" style="stop-color:#82B1FF;stop-opacity:0"/>
</linearGradient>
<path class="st10" d="M2371.4,1880.1c0,0-126.6-2.6-203.7,61.8c-76.1,63.8-242.6,13.3-242.6,13.3s68.4,30.6,112.9,83.7
	c0,0,61.8,8.7,136.3-65.4C2249.3,1899.5,2371.4,1880.1,2371.4,1880.1L2371.4,1880.1z"/>
<linearGradient id="SVGID_6_" gradientUnits="userSpaceOnUse" x1="510.2274" y1="1252.3765" x2="510.4164" y2="1239.6003" gradientTransform="matrix(38.4612 0 0 -12.214 -17468.1211 17029.9629)">
	<stop  offset="1.884000e-02" style="stop-color:#5088D8;stop-opacity:0.4"/>
	<stop  offset="0.2939" style="stop-color:#5B91E1;stop-opacity:0.277"/>
	<stop  offset="0.777" style="stop-color:#78A9F8;stop-opacity:6.100000e-02"/>
	<stop  offset="0.9135" style="stop-color:#82B1FF;stop-opacity:0"/>
</linearGradient>
<path class="st11" d="M2274.4,1737.6c0,0-116.9,95.5-232.9,70c0,0-5.1-41.4,2.6-67.9C2044.1,1741.2,2129.9,1757.6,2274.4,1737.6z"/>
<linearGradient id="SVGID_7_" gradientUnits="userSpaceOnUse" x1="503.1942" y1="1275.0845" x2="510.6975" y2="1272.1278" gradientTransform="matrix(36.3621 0 0 -26.5672 -16468.3438 35646.5977)">
	<stop  offset="0" style="stop-color:#F2F4F7;stop-opacity:0"/>
	<stop  offset="9.680000e-02" style="stop-color:#ECF0F5;stop-opacity:3.900000e-02"/>
	<stop  offset="0.2259" style="stop-color:#DBE3F0;stop-opacity:9.000000e-02"/>
	<stop  offset="0.3732" style="stop-color:#BFCFE9;stop-opacity:0.149"/>
	<stop  offset="0.5341" style="stop-color:#99B3DD;stop-opacity:0.214"/>
	<stop  offset="0.706" style="stop-color:#678FCF;stop-opacity:0.282"/>
	<stop  offset="0.8843" style="stop-color:#2B63BE;stop-opacity:0.354"/>
	<stop  offset="1" style="stop-color:#0044B2;stop-opacity:0.4"/>
</linearGradient>
<path class="st12" d="M2044.1,1741.2c-217.5-7.1-191.5,95.5-191.5,95.5c67.9,97.5,220.6,57.7,220.6,57.7
	S2023.6,1831.6,2044.1,1741.2z"/>
<linearGradient id="SVGID_8_" gradientUnits="userSpaceOnUse" x1="442.7138" y1="1159.9331" x2="444.8942" y2="1149.3246" gradientTransform="matrix(11.0384 0 0 -5.7 -4538.9995 8656.1035)">
	<stop  offset="0" style="stop-color:#E6E6E6;stop-opacity:0"/>
	<stop  offset="0.1758" style="stop-color:#A7BAD8;stop-opacity:0.119"/>
	<stop  offset="0.3601" style="stop-color:#6C90CA;stop-opacity:0.244"/>
	<stop  offset="0.53" style="stop-color:#3D6FC0;stop-opacity:0.359"/>
	<stop  offset="0.6797" style="stop-color:#1C58B8;stop-opacity:0.46"/>
	<stop  offset="0.8035" style="stop-color:#0749B4;stop-opacity:0.544"/>
	<stop  offset="0.8861" style="stop-color:#0044B2;stop-opacity:0.6"/>
</linearGradient>
<path class="st13" d="M278.8,2063.4c0,0-11.7,38.8,72,38.8s89.9-27.6,89.9-27.6"/>
<linearGradient id="SVGID_9_" gradientUnits="userSpaceOnUse" x1="480.6575" y1="1275.8981" x2="491.0714" y2="1281.4308" gradientTransform="matrix(32.6963 0 0 -35 -15123.5879 46605.8008)">
	<stop  offset="0" style="stop-color:#F2F4F7;stop-opacity:0"/>
	<stop  offset="8.840000e-02" style="stop-color:#E8EDF4;stop-opacity:3.500000e-02"/>
	<stop  offset="0.2372" style="stop-color:#CEDAED;stop-opacity:9.500000e-02"/>
	<stop  offset="0.4281" style="stop-color:#A3BBE1;stop-opacity:0.171"/>
	<stop  offset="0.6537" style="stop-color:#6890D0;stop-opacity:0.262"/>
	<stop  offset="0.9058" style="stop-color:#1E5ABA;stop-opacity:0.362"/>
	<stop  offset="1" style="stop-color:#0044B2;stop-opacity:0.4"/>
</linearGradient>
<path class="st14" d="M755.2,1957.2c0,0,91.4-82.2,49-88.3c-42.4-6.1-94.5,0-94.5,0s144.5-101.1,100.1-125.1
	c0,0-167.5,13.3-191,204.8C618.4,1949.6,721.5,1953.1,755.2,1957.2z"/>
<linearGradient id="SVGID_10_" gradientUnits="userSpaceOnUse" x1="479.0439" y1="1257.2601" x2="488.3799" y2="1268.1718" gradientTransform="matrix(44.1291 0 0 -21.473 -20775.4922 29095.5059)">
	<stop  offset="0" style="stop-color:#F2F4F7;stop-opacity:0"/>
	<stop  offset="8.840000e-02" style="stop-color:#E8EDF4;stop-opacity:3.500000e-02"/>
	<stop  offset="0.2372" style="stop-color:#CEDAED;stop-opacity:9.500000e-02"/>
	<stop  offset="0.4281" style="stop-color:#A3BBE1;stop-opacity:0.171"/>
	<stop  offset="0.6537" style="stop-color:#6890D0;stop-opacity:0.262"/>
	<stop  offset="0.9058" style="stop-color:#1E5ABA;stop-opacity:0.362"/>
	<stop  offset="1" style="stop-color:#0044B2;stop-opacity:0.4"/>
</linearGradient>
<path class="st15" d="M384.5,2083.9c0,0,104.7-47,159.8-52.1c0,0,120-17.9,108.8-52.1c0,0-9.2-40.9-148.6-22.5"/>
<g>
	<path class="st0" d="M355.4,2081.3c0,0,20.9-95.5-24.5-170.6c-12.3-19.9-9.2-43.9-3.1-65.4c5.6-17.9,12.8-35.2,14.8-53.6
		c0.5-8.2,0.5-16.3,3.6-24c3.1-8.2,9.7-12.8,9.2-22c-0.5-20.9,15.3-149.6,134.3-122c52.6,12.3,87.8,50.6,91.9,104.2
		c1,16.3,0,33.7-3.6,50c-6.6,30.1-39.8,52.6-61.8,71.5c-23,19.4-46.5,37.8-57.2,66.9c-13.3,34.7-9.7,72.5-13.3,109.3
		c-2.6,23-10.2,54.1-37.8,55.7C390.1,2082.3,372.8,2081.3,355.4,2081.3z"/>
	<path class="st1" d="M331.4,1910.2c-30.1-51.1,15.8-83.7,12.3-122c-3.6-38.3,12.8-22,12.3-42.9c-0.5-20.9,15.3-149.6,134.3-122
		c58.7,13.3,113.9,78.6,87.3,141.4c-16.9,40.3-60.3,48-95,64.9c-35.7,16.3-58.7,56.7-71.5,92.9
		C403.4,1942.9,363.6,1953.6,331.4,1910.2z"/>
	<g>
		<path class="st2" d="M355.4,2082.8c-0.5,0-1,0-2-0.5c-1-1-2-3.1-0.5-4.1c43.9-67.9,43.4-108.8,41.9-156.8c0-4.1,0-8.7,0-12.3
			c2.6-78.6,29.1-131.7,51.1-162.4c24-32.7,47-47.5,47.5-48c1-0.5,3.1-0.5,4.1,1c0.5,1,0.5,3.1-1,4.1c-0.5,0.5-90.9,57.2-96.5,204.8
			c0,4.1,0,8.2,0,12.3c0.5,49,1,90.9-43.4,159.8C357.4,2082.3,356.9,2082.8,355.4,2082.8z"/>
	</g>
	<path class="st16" d="M148.1,1495.6c3.1-3.6,24-1,28.1-1c19.9,0,40.9,2.6,60.3,7.1c44.9,12.3,71,48,62.3,95
		c-7.1,40.9-41.4,95.5,8.7,124.6c19.4,10.7,38.8,9.7,46,35.7c6.6,25.5-0.5,53.6-6.6,78.6c-6.6,27.6-8.7,49,0,76.6
		c6.1,19.4,18.4,35.7,24.5,54.6c9.7,32.2,9.2,68.9,3.6,101.6c-3.6,19.9-38.3,12.3-54.6,12.3l-85.3-73l-54.6-128.2l-49-201.2
		l-49-103.7C81.2,1575.3,148.1,1495.6,148.1,1495.6z"/>
	<path class="st17" d="M303.8,2082.8c-19.4-30.6-40.9-55.7-64.9-71.5c-35.7-24.5-85.3-20.9-115.4-54.6c-18.9-22-26-50-21.4-78.6
		c2.6-15.3,11.7-27.6,15.3-41.9c6.6-25.5-16.3-47-36.8-58.7c-16.9-9.7-37.8-8.7-54.6-18.9c-15.8-9.2-25.5-28.1-28.1-46
		c-3.6-24.5,2.6-49.5,5.6-73.5c6.1-59.7-34.2-137.4,29.1-178.2c69.4-44.9,125.1,33.7,185.4,54.6c11.7,4.1,23,6.6,33.7,12.8
		c27.6,16.9,13.8,49.5,9.2,75.1c-5.1,25-13.3,56.7-3.6,81.7c11.7,31.1,66.4,90.4,49,134.3c-17.9,43.9-19.4,92.9,6.1,128.2
		s75.6,90.4,66.9,134.3C379.4,2084.4,311.5,2082.8,303.8,2082.8z"/>
	<g>
		<path class="st1" d="M343.7,2084.4c0,0-11.7-19.9-21.4-37.8c-2.6-3.6-8.2-10.2-15.3-18.9c-25-28.6-66.4-76.1-63.8-122.6
			c2.6-62.8-5.1-127.7-17.9-150.6c-12.8-22.5-37.3-44.9-63.3-69.4c-40.9-37.8-87.3-80.7-95.5-132.8c0-2,0.5-3.1,2.6-3.6
			c2,0,3.1,0.5,3.6,2.6c8.2,50,53.6,91.9,94,129.2c26,24.5,51.1,47.5,64.9,71c15.3,27.6,20.9,98,18.9,154.2
			c-2,43.9,38.3,90.9,62.8,118.5c8.2,9.2,13.3,15.8,15.8,19.9c9.7,17.9,22,39.8,22,39.8L343.7,2084.4z"/>
	</g>
</g>
<linearGradient id="SVGID_11_" gradientUnits="userSpaceOnUse" x1="583.8974" y1="1866.2815" x2="822.8342" y2="1866.2815" gradientTransform="matrix(1 0 0 1 0 -378)">
	<stop  offset="0" style="stop-color:#478DFF"/>
	<stop  offset="1" style="stop-color:#00157E"/>
</linearGradient>
<path class="st18" d="M583.6,1422.6c0,0,179.2-15.3,231.8,83.2c52.1,99.1-199.1,17.4-199.1,17.4"/>
<g id="Group-7_2_" transform="translate(97.000000, 163.000000)" class="st19">
	<g id="Shape_10_">
		<path class="st20" d="M574,970.1h-7.1c0-103.7-84.3-187.9-187.9-187.9c-81.7,0-153.7,52.6-178.7,129.7l-6.6-2.6
			c26-81.2,100.6-135.3,185.9-135.3C486.1,775,574,862.8,574,970.1z"/>
	</g>
	<g id="Shape_9_">
		<path class="st20" d="M574,969h-7.1c0-103.7-84.3-187.9-187.9-187.9c-81.7,0-153.7,52.6-178.7,129.7l-6.6-2.6
			c26.6-80.7,100.6-135.3,185.9-135.3C486.1,774,574,861.3,574,969z"/>
	</g>
	<g id="Oval_1_">
		<ellipse class="st20" cx="866.1" cy="1035.4" rx="15.3" ry="15.3"/>
	</g>
	<g id="Shape_8_">
		<path class="st20" d="M205.8,1018.1l-5.6-5.1c10.2-12.3,16.3-28.1,16.3-44.4c0-38.3-31.1-69.4-68.9-69.4s-68.9,31.1-68.9,69.4v3.6
			h-178.7v-6.6H72c2-40.9,35.2-73,76.1-73c41.9,0,76.1,34.2,76.1,76.6C223.7,986.9,217.5,1004.8,205.8,1018.1z"/>
	</g>
	<g id="Shape_7_">
		<rect x="507.1" y="972.6" class="st20" width="177.7" height="7.1"/>
	</g>
	<g id="Shape_6_">
		<rect x="589.3" y="1035.9" class="st20" width="228.3" height="7.1"/>
	</g>
</g>
<g id="Group-5_1_" transform="translate(1047.000000, 366.000000)" class="st19">
	<g id="Shape_5_">
		<path class="st20" d="M1065.4,790.4h-8.7c0-81.2-65.9-146.6-146.6-146.6c-64.3,0-120,40.9-139.4,101.6l-8.2-3.1
			c20.4-64.3,79.7-107.2,147.6-107.2C996,635.2,1065.4,704.7,1065.4,790.4z"/>
	</g>
	<g id="Shape_4_">
		<path class="st20" d="M1065.4,789.4h-8.7c0-81.2-65.9-146.6-146.6-146.6c-64.3,0-120,40.9-139.4,101.6l-8.2-3.1
			c20.4-64.3,79.7-107.2,147.6-107.2C996,634.2,1065.4,704.1,1065.4,789.4z"/>
	</g>
	<g id="Shape_3_">
		<path class="st20" d="M1218.6,794H1142v-4.6c0-29.6-24.5-54.1-54.1-54.1c-11.2,0-21.4,3.6-31.1,9.7l-4.6-7.1
			c10.7-7.7,23.5-11.2,36.3-11.2c33.2,0,60.3,25.5,62.3,58.2h68.4v8.7h-0.5V794z"/>
	</g>
	<g id="Shape_2_">
		<path class="st20" d="M775.4,829.8l-6.6-5.6c8.2-9.2,12.3-21.4,12.3-34.2c0-29.1-24-53.1-53.1-53.1c-29.1,0-53.1,24-53.1,53.1v4.6
			H532.3v-8.7h134.3c2.6-32.2,29.1-57.7,61.8-57.7c33.7,0,61.8,28.1,61.8,61.8C790.2,804.7,784.6,818.5,775.4,829.8z"/>
	</g>
	<g id="Shape_1_">
		<rect x="381.7" y="840" class="st20" width="264" height="8.7"/>
	</g>
</g>
<g id="Layer_2">
	<g>
		<path class="st21" d="M1815.8,421.5L1815.8,421.5V297c0-121.7-99.6-221.3-221.3-221.3H646.1c-121,0-221.3,99.6-221.3,221.3v125.2
			v19.2v1511.9h1390.2L1815.8,421.5L1815.8,421.5z M1112.9,341.1v-111h31.3v111.7L1112.9,341.1L1112.9,341.1z M1263,341.1v-111h31.3
			v111.7L1263,341.1L1263,341.1z M1441.6,262.2c2.1-7.1,5-13.5,10-18.5c4.3-5,10-9.2,15.7-11.4c6.4-2.8,12.8-3.6,21.3-3.6
			c4.3,0,8.5,0.7,11.4,1.4c3.6,0.7,7.1,2.1,10.7,3.6v-51.9l31.3-5v161.5c-2.8,0.7-6.4,1.4-10,2.1c-3.6,0.7-7.8,1.4-11.4,2.1
			c-3.6,0.7-8.5,0.7-12.1,1.4c-4.3,0.7-8.5,0.7-12.1,0.7c-9.2,0-17.8-1.4-24.9-3.6c-7.1-2.8-12.8-7.1-18.5-11.4
			c-5-5-8.5-11.4-11.4-18.5c-2.8-7.1-3.6-14.9-3.6-24.2C1438,277.1,1439.4,269.3,1441.6,262.2z M1320.6,260.7
			c2.8-7.1,7.1-13.5,12.1-18.5c5-5,10.7-8.5,17.1-11.4s12.8-3.6,19.9-3.6c15.7,0,28.5,5,37.7,14.2c9.2,10,13.5,23.5,13.5,42.7
			c0,2.1,0,3.6,0,5.7c0,2.1-0.7,4.3-0.7,5.7h-72.6c0.7,6.4,3.6,11.4,9.2,15.7c5,3.6,12.8,5.7,22.1,5.7c5.7,0,11.4-0.7,17.1-1.4
			c5.7-0.7,10-2.1,13.5-3.6l4.3,25.6c-2.1,0.7-3.6,2.1-7.1,2.1c-2.8,0.7-5.7,1.4-10,2.1c-3.6,0.7-7.1,0.7-11.4,1.4
			c-3.6,0.7-7.8,0.7-12.1,0.7c-10,0-19.2-1.4-26.3-4.3s-13.5-7.1-18.5-12.1s-8.5-11.4-10.7-18.5c-2.1-7.1-3.6-14.2-3.6-22.8
			C1315.6,276.4,1317.8,267.9,1320.6,260.7z M1265.1,183.9c3.6-3.6,8.5-5,12.8-5c5,0,10,1.4,12.8,5c3.6,3.6,5.7,7.8,5.7,13.5
			c0,5.7-2.1,10-5.7,13.5c-3.6,3.6-8.5,5-12.8,5c-5,0-10-1.4-12.8-5c-3.6-3.6-5.7-7.8-5.7-13.5
			C1260.1,191.7,1261.6,187.5,1265.1,183.9z M1174.1,223.7c0-14.2,3.6-25.6,12.1-34.2c8.5-8.5,20.6-12.8,36.3-12.8
			c5.7,0,10.7,0.7,14.2,1.4c3.6,0.7,7.1,2.1,10,3.6l-5,24.9c-2.1-0.7-5-2.1-7.8-2.1c-2.8-0.7-5-0.7-8.5-0.7c-3.6,0-7.1,0.7-10,1.4
			c-2.1,0.7-5,2.1-6.4,4.3c-1.4,2.1-2.1,3.6-3.6,7.1c-0.7,2.1-0.7,5-0.7,8.5v5h39.1v26.3h-39.1v85.4h-31.3L1174.1,223.7
			L1174.1,223.7z M1115,183.9c3.6-3.6,8.5-5,12.8-5c5,0,10,1.4,12.8,5c3.6,3.6,5.7,7.8,5.7,13.5c0,5.7-2.1,10-5.7,13.5
			c-3.6,3.6-8.5,5-12.8,5c-5,0-10-1.4-12.8-5c-3.6-3.6-5.7-7.8-5.7-13.5C1109.3,191.7,1110.7,187.5,1115,183.9z M1016.8,201.7
			l31.3-5v32.7h37.7v26.3h-37.7v39.8c0,7.1,0.7,12.1,3.6,15.7c2.1,3.6,7.1,5.7,14.2,5.7c3.6,0,7.1-0.7,10.7-0.7
			c3.6-0.7,7.1-1.4,10-2.1l4.3,24.9c-3.6,1.4-8.5,2.8-12.8,3.6c-5,0.7-10,2.1-17.8,2.1c-8.5,0-15.7-0.7-21.3-3.6
			c-5.7-2.1-10-5.7-13.5-10c-3.6-4.3-5.7-9.2-7.1-14.9c-1.4-5.7-2.1-12.8-2.1-19.9L1016.8,201.7L1016.8,201.7z M928.6,235.8
			c5.7-2.1,12.1-3.6,19.9-5.7s16.4-2.1,25.6-2.1c2.1,0,3.6,0,6.4,0.7c2.1,0,5,0.7,7.1,0.7c2.1,0.7,5,0.7,7.1,1.4
			c2.1,0.7,4.3,0.7,6.4,2.1l-5,26.3c-2.8-0.7-6.4-1.4-10-2.1c-3.6-0.7-7.8-0.7-12.1-0.7c-2.1,0-4.3,0-7.1,0.7
			c-2.8,0.7-5,0.7-6.4,0.7v85.4h-31.3C928.6,341.9,928.6,235.8,928.6,235.8z M803.4,260.7c2.8-7.1,7.1-13.5,12.1-18.5
			c5-5,10.7-8.5,17.1-11.4c6.4-2.1,12.8-3.6,19.9-3.6c15.7,0,28.5,5,37.7,14.2c9.2,10,13.5,23.5,13.5,42.7c0,2.1,0,3.6,0,5.7
			c0,2.1-0.7,4.3-0.7,5.7h-72.6c0.7,6.4,3.6,11.4,9.2,15.7c5,3.6,12.8,5.7,22.1,5.7c5.7,0,11.4-0.7,17.1-1.4
			c5.7-0.7,10-2.1,13.5-3.6l4.3,25.6c-2.1,0.7-3.6,2.1-7.1,2.1c-2.8,0.7-5.7,1.4-10,2.1c-3.6,0.7-7.1,0.7-11.4,1.4
			c-3.6,0.7-7.8,0.7-12.1,0.7c-10,0-19.2-1.4-26.3-4.3s-13.5-7.1-18.5-12.1c-5-5-8.5-11.4-10.7-18.5c-2.1-7.1-3.6-14.2-3.6-22.8
			C799.1,276.4,800.5,267.9,803.4,260.7z M701.6,262.9c2.1-7.1,6.4-13.5,11.4-19.2c5-5,11.4-10,17.8-12.8c7.1-2.8,14.9-5,24.2-5
			c5.7,0,11.4,0.7,16.4,1.4c5,0.7,10,2.1,14.2,4.3l-7.1,24.9c-2.8-0.7-6.4-2.1-10-2.8c-3.6-0.7-7.1-1.4-12.1-1.4
			c-9.2,0-16.4,2.8-20.6,8.5c-5,5.7-7.1,13.5-7.1,22.8c0,10,2.1,17.8,6.4,23.5c4.3,5.7,11.4,8.5,22.8,8.5c3.6,0,7.8-0.7,12.1-0.7
			c4.3,0,8.5-2.1,12.1-3.6l4.3,25.6c-3.6,1.4-8.5,2.8-13.5,3.6c-5,0.7-11.4,2.1-18.5,2.1c-10,0-19.2-1.4-26.3-4.3
			s-13.5-7.1-17.8-12.8c-5-5-8.5-11.4-10-18.5c-2.1-7.1-3.6-14.9-3.6-23.5C698.1,277.1,699.5,270,701.6,262.9z M461.1,1917.8v-1477
			h1313.4v1477H461.1z"/>
		<path class="st1" d="M990.5,1661.7c-1.4-2.1-3.6-3.6-6.4-5c-2.1-1.4-5-2.1-9.2-2.1c-3.6,0-7.1,0.7-9.2,2.1c-2.1,0.7-5,2.8-6.4,5
			c-2.1,2.1-2.8,4.3-3.6,7.1c-0.7,2.1-1.4,5-2.1,7.8h42.7c0-2.8-0.7-5-1.4-7.8C994,1665.9,992.6,1663.8,990.5,1661.7z"/>
		<path class="st1" d="M1335.6,1661.7c-1.4-2.1-3.6-3.6-6.4-5c-2.1-1.4-5-2.1-9.2-2.1c-3.6,0-7.1,0.7-9.2,2.1c-2.1,0.7-5,2.8-6.4,5
			c-2.1,2.1-2.8,4.3-3.6,7.1c-0.7,2.1-1.4,5-2.1,7.8h42.7c0-2.8-0.7-5-1.4-7.8C1338.4,1665.9,1337,1663.8,1335.6,1661.7z"/>
		<path class="st1" d="M845.3,1656c-3.6,0-7.1,0.7-10,1.4c-3.6,0.7-5.7,2.1-7.8,3.6v58.3c1.4,0.7,3.6,0.7,5.7,0.7c2.1,0,5,0,7.8,0
			c8.5,0,15.7-2.8,19.9-9.2c4.3-5.7,7.1-14.2,7.1-23.5C868.1,1666.6,861,1656,845.3,1656z"/>
		<path class="st1" d="M1552.6,1661.7c-1.4-2.1-3.6-3.6-6.4-5c-2.1-1.4-5-2.1-9.2-2.1c-3.6,0-7.1,0.7-9.2,2.1c-2.1,0.7-5,2.8-6.4,5
			c-2.1,2.1-2.8,4.3-3.6,7.1c-0.7,2.1-1.4,5-2.1,7.8h42.7c0-2.8-0.7-5-1.4-7.8C1556.1,1665.9,1554.7,1663.8,1552.6,1661.7z"/>
		<path class="st1" d="M461.1,440.8v1477h1313.4v-1477H461.1z M895.9,1495.9l-220.6-274.6c-1.4-1.4-2.1-3.6-3.6-5
			c-8.5-13.5-12.1-30.6-8.5-46.2l78.3-341.5c4.3-17.8,16.4-32.7,32.7-41.3L1092.9,635c7.1-3.6,14.9-5,23.5-5.7
			c10-0.7,20.6,1.4,29.9,5.7l318.7,152.3c16.4,7.8,29.2,23.5,32.7,41.3l78.3,342.2c4.3,17.8,0,37-11.4,51.2l-220.6,274.6
			c-11.4,14.2-29.2,22.8-47.7,22.8H942.1C925,1518.7,907.2,1510.1,895.9,1495.9z M616.2,1744.9c-2.1-3.6-5-7.8-7.8-12.1
			c-2.8-5-5.7-9.2-9.2-13.5c-3.6-5-7.1-9.2-10.7-12.8c-3.6-4.3-7.1-7.8-10.7-10.7v49.8h-32v-162.2l32-5v95.3
			c3.6-3.6,6.4-7.1,10-10.7c3.6-3.6,7.1-7.1,10-11.4c3.6-3.6,6.4-7.1,8.5-10.7c2.8-3.6,5-6.4,7.1-8.5h38.4
			c-7.8,8.5-14.9,17.1-22.1,24.9s-14.9,15.7-23.5,24.9c4.3,3.6,8.5,8.5,13.5,14.2c5,5,9.2,10.7,13.5,16.4
			c4.3,5.7,8.5,11.4,11.4,17.8c3.6,5.7,7.1,11.4,9.2,15.7L616.2,1744.9L616.2,1744.9z M765.7,1740.6c-5,1.4-12.8,2.8-21.3,4.3
			c-8.5,1.4-17.8,2.1-27,2.1c-10,0-17.8-1.4-24.2-3.6s-11.4-6.4-14.9-10.7c-3.6-5-6.4-10-7.8-17.1c-1.4-6.4-2.1-13.5-2.1-21.3v-63.3
			h32v59.1c0,10,1.4,17.8,3.6,22.1c2.1,4.3,7.8,7.1,15.7,7.1c2.1,0,5,0,7.1,0c2.1-0.7,5-0.7,7.1-0.7v-87.5h32L765.7,1740.6
			L765.7,1740.6z M897.3,1712.9c-2.1,7.1-6.4,13.5-11.4,19.2c-5,5-11.4,9.2-18.5,12.1c-7.1,2.8-15.7,3.6-24.9,3.6
			c-3.6,0-7.8,0-12.1-0.7c-4.3-0.7-8.5-0.7-12.8-1.4c-3.6-0.7-7.8-1.4-11.4-2.1c-3.6-0.7-7.1-2.1-10-2.1v-158.7l32-5v56.2
			c3.6-1.4,7.1-2.8,11.4-3.6c3.6-0.7,8.5-1.4,12.8-1.4c8.5,0,14.9,1.4,21.3,4.3c6.4,2.8,11.4,7.1,15.7,11.4c4.3,5,7.1,11.4,10,19.2
			c2.1,7.1,3.6,14.9,3.6,24.2C900.8,1697.2,899.4,1705.1,897.3,1712.9z M1026.8,1693c0,2.1-0.7,3.6-0.7,5.7h-73.3
			c0.7,7.1,3.6,11.4,9.2,15.7c5,3.6,12.8,5.7,22.1,5.7c5.7,0,11.4-0.7,17.8-1.4c5.7-0.7,10.7-2.1,14.2-3.6l4.3,26.3
			c-2.1,0.7-3.6,2.1-7.1,2.1c-2.8,0.7-6.4,1.4-10,2.1c-3.6,0.7-7.1,1.4-11.4,2.1c-3.6,0.7-8.5,0.7-12.1,0.7c-10,0-19.2-1.4-26.3-4.3
			c-7.1-2.8-13.5-7.1-19.2-12.1c-5-5-8.5-11.4-11.4-19.2s-3.6-14.9-3.6-23.5l0,0c0-10,1.4-19.2,4.3-26.3c3.6-7.8,7.1-14.2,12.1-19.2
			c5-5,10.7-8.5,17.8-11.4c7.1-2.1,13.5-3.6,20.6-3.6c15.7,0,29.2,5,38.4,14.9c9.2,10,14.2,24.2,14.2,43.4
			C1027.5,1688.7,1027.5,1690.1,1026.8,1693z M1120,1659.5c-2.8-0.7-6.4-1.4-10-2.1c-3.6-0.7-8.5-1.4-12.8-1.4c-2.1,0-4.3,0-7.1,0.7
			c-2.8,0.7-5,0.7-6.4,0.7v86.8h-32v-107.4c5.7-2.1,12.8-3.6,20.6-5.7s16.4-2.8,26.3-2.8c2.1,0,3.6,0,6.4,0.7c2.1,0,5,0.7,7.1,0.7
			c2.1,0.7,5,0.7,7.1,1.4c2.1,0.7,4.3,0.7,6.4,2.1L1120,1659.5z M1240.9,1744.9h-32v-60.5c0-10-1.4-17.8-3.6-22.1
			c-2.8-4.3-7.8-6.4-15.7-6.4c-2.1,0-5,0-7.1,0.7c-2.1,0-5,0.7-7.1,0.7v87.5h-32v-109.6c5-1.4,12.8-2.8,21.3-4.3
			c8.5-1.4,17.8-2.1,27-2.1c10,0,17.8,1.4,23.5,3.6c6.4,2.1,11.4,5.7,15.7,10.7c3.6,5,6.4,10,7.8,16.4c1.4,6.4,2.1,13.5,2.1,21.3
			L1240.9,1744.9L1240.9,1744.9z M1371.1,1693c0,2.1-0.7,3.6-0.7,5.7h-73.3c0.7,7.1,3.6,11.4,9.2,15.7c5,3.6,12.8,5.7,22.1,5.7
			c5.7,0,11.4-0.7,17.8-1.4c5.7-0.7,10.7-2.1,14.2-3.6l4.3,26.3c-2.1,0.7-3.6,2.1-7.1,2.1c-2.8,0.7-6.4,1.4-10,2.1
			c-3.6,0.7-7.1,1.4-11.4,2.1c-3.6,0.7-8.5,0.7-12.1,0.7c-10,0-19.2-1.4-26.3-4.3c-7.1-2.8-13.5-7.1-19.2-12.1
			c-5-5-8.5-11.4-11.4-19.2c-2.8-7.8-3.6-14.9-3.6-23.5c0-10,1.4-19.2,4.3-26.3c3.6-7.8,7.1-14.2,12.1-19.2c5-5,10.7-8.5,17.8-11.4
			c7.1-2.1,13.5-3.6,20.6-3.6c15.7,0,29.2,5,38.4,14.9c9.2,10,14.2,24.2,14.2,43.4C1371.1,1688.7,1371.1,1690.1,1371.1,1693z
			 M1457.9,1745.6c-5,0.7-10.7,2.1-17.8,2.1c-8.5,0-15.7-0.7-22.1-3.6s-10-5.7-14.2-10c-3.6-4.3-5.7-10-7.1-15.7
			c-1.4-5.7-2.1-12.8-2.1-19.9v-95.3l0,0l32-5v33.4h39.1v26.3h-39.1v39.8c0,7.1,0.7,12.1,3.6,15.7c2.8,3.6,7.1,5.7,14.2,5.7
			c3.6,0,7.1-0.7,10.7-0.7c3.6-0.7,7.1-1.4,10-2.8l4.3,24.9C1467.2,1743.5,1462.9,1744.9,1457.9,1745.6z M1588.9,1693
			c0,2.1-0.7,3.6-0.7,5.7h-72.6c0.7,7.1,3.6,11.4,9.2,15.7c5,3.6,12.8,5.7,22.1,5.7c5.7,0,11.4-0.7,17.8-1.4
			c5.7-0.7,10.7-2.1,14.2-3.6l4.3,26.3c-2.1,0.7-3.6,2.1-7.1,2.1c-2.8,0.7-6.4,1.4-10,2.1s-7.1,1.4-11.4,2.1
			c-3.6,0.7-8.5,0.7-12.1,0.7c-10,0-19.2-1.4-26.3-4.3c-7.1-2.8-13.5-7.1-19.2-12.1c-5-5-8.5-11.4-11.4-19.2
			c-2.8-7.8-3.6-14.9-3.6-23.5c0-10,1.4-19.2,4.3-26.3c3.6-7.8,7.1-14.2,12.1-19.2c5-5,10.7-8.5,17.8-11.4
			c7.1-2.1,13.5-3.6,20.6-3.6c15.7,0,29.2,5,38.4,14.9c9.2,10,14.2,24.2,14.2,43.4C1588.9,1688.7,1588.9,1690.1,1588.9,1693z
			 M1682.1,1739.2c-8.5,5.7-20.6,8.5-35.6,8.5c-10,0-18.5-0.7-24.9-2.1c-7.1-2.1-11.4-3.6-13.5-4.3l5-26.3c5,2.1,11.4,3.6,17.1,5
			c5.7,0.7,11.4,2.1,17.1,2.1c5.7,0,10-0.7,12.8-2.1c2.1-0.7,3.6-3.6,3.6-7.1c0-2.1-1.4-5-5-7.1c-3.6-2.1-7.8-4.3-14.2-7.1
			c-5-2.1-10-3.6-13.5-5.7c-3.6-2.1-7.1-4.3-10-7.1c-2.8-2.8-5-6.4-7.1-10c-1.4-3.6-2.1-8.5-2.1-14.2c0-10.7,3.6-19.2,11.4-24.9
			c7.8-6.4,19.2-9.2,32.7-9.2c7.1,0,13.5,0.7,19.9,2.1c6.4,0.7,11.4,2.1,14.9,3.6l-5.7,24.9c-3.6-1.4-7.8-2.1-12.1-3.6
			c-4.3-0.7-9.2-1.4-14.2-1.4c-10,0-14.9,2.8-14.9,8.5c0,1.4,0,2.1,0.7,3.6c0.7,0.7,1.4,2.1,2.1,2.8c1.4,0.7,2.8,2.1,5,2.8
			c2.1,0.7,5,2.1,8.5,3.6c7.1,2.1,12.8,5,17.8,7.8c5,2.1,8.5,5,10.7,8.5c2.8,2.8,4.3,6.4,5.7,10c0.7,3.6,2.1,7.8,2.1,12.8
			C1694.9,1725,1690.6,1733.5,1682.1,1739.2z"/>
		<path class="st21" d="M871.7,266.4c-0.7-2.1-2.1-5-3.6-7.1s-3.6-3.6-6.4-5c-2.1-1.4-5-2.1-9.2-2.1c-3.6,0-7.1,0.7-9.2,2.1
			c-2.1,0.7-5,2.8-6.4,5c-2.1,1.4-3.6,3.6-3.6,6.4c-0.7,2.1-1.4,5-2.1,7.8h42C873.1,271.4,873.1,269.3,871.7,266.4z"/>
		<path class="st21" d="M1497.1,317c2.8,0,5,0,7.8-0.7c2.1,0,4.3-0.7,5.7-0.7v-56.9c-2.1-1.4-4.3-2.1-7.8-3.6
			c-3.6-0.7-6.4-1.4-10-1.4c-14.9,0-22.1,10-22.1,30.6c0,10,2.1,17.8,7.1,23.5C1481.4,314.1,1488.5,317,1497.1,317z"/>
		<path class="st21" d="M1388.9,266.4c-0.7-2.1-2.1-5-3.6-7.1c-1.4-2.1-3.6-3.6-6.4-5c-2.1-1.4-5-2.1-9.2-2.1
			c-3.6,0-7.1,0.7-9.2,2.1c-2.1,0.7-5,2.8-6.4,5c-2.1,2.1-2.8,4.3-3.6,7.1c-0.7,2.1-1.4,5-2.1,7.8h42
			C1390.3,271.4,1389.6,269.3,1388.9,266.4z"/>
		<path class="st1" d="M711.6,327.6c5,5,10.7,9.2,17.8,12.8c7.1,2.8,15.7,4.3,26.3,4.3c7.1,0,12.8-0.7,18.5-2.1
			c5-0.7,10-2.1,13.5-3.6l-4.3-25.6c-3.6,1.4-7.8,2.8-12.1,3.6c-4.3,0.7-8.5,0.7-12.1,0.7c-10.7,0-18.5-2.8-22.8-8.5
			c-4.3-5-6.4-12.8-6.4-23.5c0-10,2.1-17.1,7.1-22.8c4.3-5.7,11.4-8.5,20.6-8.5c4.3,0,8.5,0.7,12.1,1.4c3.6,0.7,7.1,2.1,10,2.8
			l7.1-24.9c-5-2.1-10-3.6-14.2-4.3c-5-0.7-10-1.4-16.4-1.4c-9.2,0-17.1,1.4-24.2,5c-7.1,2.8-12.8,7.1-17.8,12.8
			c-5,5-8.5,11.4-11.4,19.2c-2.1,7.1-3.6,14.2-3.6,22.8s0.7,15.7,3.6,23.5C703.1,316.2,707.3,322.6,711.6,327.6z"/>
		<path class="st1" d="M813.3,327.6c5,5,11.4,9.2,18.5,12.1c7.1,2.8,15.7,4.3,26.3,4.3c3.6,0,7.8,0,12.1-0.7
			c3.6-0.7,7.8-0.7,11.4-1.4c3.6-0.7,7.1-1.4,10-2.1c2.8-0.7,5-2.1,7.1-2.1l-4.3-25.6c-3.6,1.4-8.5,2.8-13.5,3.6
			c-5.7,0.7-11.4,1.4-17.1,1.4c-9.2,0-16.4-2.1-22.1-5.7c-5-3.6-8.5-9.2-9.2-15.7h71.1c0-2.1,0.7-3.6,0.7-5.7c0-2.1,0-4.3,0-5.7
			c0-19.2-5-32.7-13.5-42.7c-9.2-10-22.1-14.2-37.7-14.2c-7.1,0-13.5,1.4-19.9,3.6c-6.4,2.1-12.1,6.4-17.1,11.4
			c-5,5-8.5,11.4-12.1,18.5c-2.8,7.1-4.3,15.7-4.3,26.3c0,8.5,0.7,15.7,3.6,22.8C804.8,317,808.4,322.6,813.3,327.6z M834,266.4
			c0.7-2.1,2.1-5,3.6-7.1c2.1-2.1,3.6-3.6,6.4-5c2.1-0.7,5.7-2.1,9.2-2.1s7.1,0.7,9.2,2.1c2.1,1.4,4.3,2.8,6.4,5
			c1.4,2.1,2.8,4.3,3.6,7.1c0.7,2.1,1.4,5,1.4,7.8h-42C831.8,271.4,832.5,269.3,834,266.4z"/>
		<path class="st1" d="M960.6,255.8c1.4-0.7,3.6-0.7,6.4-0.7c2.8-0.7,5-0.7,7.1-0.7c4.3,0,8.5,0.7,12.1,0.7c3.6,0.7,7.1,1.4,10,2.1
			l5-26.3c-2.1-0.7-3.6-1.4-6.4-2.1c-2.1-0.7-5-0.7-7.1-1.4c-2.1-0.7-5-0.7-7.1-0.7c-2.1,0-4.3-0.7-6.4-0.7c-10,0-17.8,0.7-25.6,2.1
			c-7.8,2.1-14.2,3.6-19.9,5.7v106h31.3C960.6,341.1,960.6,255.8,960.6,255.8z"/>
		<path class="st1" d="M1026.1,330.5c3.6,4.3,7.8,7.1,13.5,10c5.7,2.1,12.8,3.6,21.3,3.6c7.1,0,12.8-0.7,17.8-2.1
			c5-0.7,8.5-2.1,12.8-3.6l-4.3-24.9c-2.8,0.7-6.4,2.1-10,2.1c-3.6,0-7.1,0.7-10.7,0.7c-7.1,0-11.4-2.1-14.2-5.7
			c-2.1-3.6-3.6-9.2-3.6-15.7v-39.1h37.7v-26.3h-37.7v-32.7l-31.3,5v93.9c0,7.1,0.7,13.5,2.1,19.9
			C1020.4,321.2,1022.5,326.9,1026.1,330.5z"/>
		<path class="st1" d="M1127.8,216.6c5,0,10-1.4,12.8-5c3.6-3.6,5.7-7.8,5.7-13.5s-2.1-10-5.7-13.5c-3.6-3.6-8.5-5-12.8-5
			c-5,0-10,1.4-12.8,5c-3.6,3.6-5.7,7.8-5.7,13.5c0,5.7,2.1,10,5.7,13.5C1118.6,214.5,1123.5,216.6,1127.8,216.6z"/>
		<rect x="1112.9" y="230.2" class="st1" width="31.3" height="111.7"/>
		<path class="st1" d="M1205.4,255.8h39.1v-26.3h-39.1v-5c0-2.8,0.7-5.7,0.7-8.5c0.7-2.1,2.1-5,3.6-7.1c1.4-2.1,3.6-3.6,6.4-4.3
			c2.1-0.7,5.7-1.4,10-1.4c2.8,0,5.7,0,8.5,0.7c2.8,0.7,5,0.7,7.8,2.1l5-24.9c-2.8-0.7-5.7-2.1-10-3.6c-3.6-0.7-8.5-1.4-14.2-1.4
			c-15.7,0-28.5,4.3-36.3,12.8c-8.5,8.5-12.1,19.9-12.1,34.2v118.1h31.3L1205.4,255.8L1205.4,255.8z"/>
		<path class="st1" d="M1278.6,216.6c5,0,10-1.4,12.8-5c3.6-3.6,5.7-7.8,5.7-13.5s-2.1-10-5.7-13.5c-3.6-3.6-8.5-5-12.8-5
			c-5,0-10,1.4-12.8,5c-3.6,3.6-5.7,7.8-5.7,13.5c0,5.7,2.1,10,5.7,13.5C1269.4,214.5,1273.7,216.6,1278.6,216.6z"/>
		<rect x="1263" y="230.2" class="st1" width="31.3" height="111.7"/>
		<path class="st1" d="M1330.6,327.6c5,5,11.4,9.2,18.5,12.1c7.1,2.8,15.7,4.3,26.3,4.3c3.6,0,7.8,0,12.1-0.7
			c3.6-0.7,7.8-0.7,11.4-1.4c3.6-0.7,7.1-1.4,10-2.1c2.8-0.7,5-2.1,7.1-2.1l-4.3-25.6c-3.6,1.4-8.5,2.8-13.5,3.6
			c-5.7,0.7-11.4,1.4-17.1,1.4c-9.2,0-16.4-2.1-22.1-5.7c-5-3.6-8.5-9.2-9.2-15.7h71.9c0-2.1,0.7-3.6,0.7-5.7c0-2.1,0-4.3,0-5.7
			c0-19.2-5-32.7-13.5-42.7c-9.2-10-22.1-14.2-37.7-14.2c-7.1,0-13.5,1.4-19.9,3.6c-6.4,2.1-12.1,6.4-17.1,11.4
			c-5,5-8.5,11.4-12.1,18.5c-2.8,7.1-4.3,15.7-4.3,26.3c0,8.5,0.7,15.7,3.6,22.8C1321.3,317,1325.6,322.6,1330.6,327.6z
			 M1350.5,266.4c0.7-2.1,2.1-5,3.6-7.1c2.1-2.1,3.6-3.6,6.4-5c2.1-0.7,5.7-2.1,9.2-2.1c3.6,0,7.1,0.7,9.2,2.1
			c2.1,1.4,4.3,2.8,6.4,5c1.4,2.1,2.8,4.3,3.6,7.1c0.7,2.1,1.4,5,1.4,7.8h-42C1348.4,271.4,1349.8,269.3,1350.5,266.4z"/>
		<path class="st1" d="M1453.7,329c5,5,11.4,8.5,18.5,11.4c7.1,2.8,15.7,3.6,24.9,3.6c3.6,0,7.8,0,12.1-0.7
			c4.3-0.7,8.5-0.7,12.1-1.4c3.6-0.7,7.8-1.4,11.4-2.1c3.6-0.7,7.1-1.4,10-2.1V176.8l-31.3,5v50.5c-3.6-1.4-7.1-2.8-10.7-3.6
			c-3.6-0.7-7.1-1.4-11.4-1.4c-7.8,0-14.9,1.4-21.3,3.6c-6.4,2.8-11.4,7.1-15.7,11.4c-4.3,5-7.1,11.4-10,18.5
			c-2.8,7.1-3.6,15.7-3.6,24.9c0,8.5,1.4,17.1,3.6,24.2C1445.1,317.7,1448.7,323.4,1453.7,329z M1493.5,254.3c3.6,0,6.4,0.7,10,1.4
			c3.6,0.7,5.7,2.1,7.8,3.6V317c-1.4,0.7-3.6,0.7-5.7,0.7s-5,0.7-7.8,0.7c-8.5,0-14.9-2.8-19.2-8.5c-4.3-5.7-7.1-13.5-7.1-23.5
			C1470.7,264.3,1477.9,254.3,1493.5,254.3z"/>
		<path class="st21" d="M1275.1,1212.7c13.5-17.1,23.5-35.6,31.3-56.2l-98.9-17.1l0,0l0,0c-1.4-0.7-2.1-0.7-3.6-0.7
			c-2.1,0-4.3,0.7-6.4,1.4c-8.5,3.6-11.4,13.5-8.5,22.1l0,0l0,0l38.4,93.2C1245.2,1244,1261.6,1229.8,1275.1,1212.7z"/>
		<path class="st21" d="M1246.6,1241.9L1246.6,1241.9L1246.6,1241.9z"/>
		<path class="st21" d="M1270.1,1219.1L1270.1,1219.1L1270.1,1219.1z"/>
		<path class="st21" d="M951.4,985.7c-11.4,18.5-19.2,37.7-23.5,58.3c-5,21.3-6.4,43.4-3.6,64.7l96.1-27.7v-0.7l0,0
			c3.6-0.7,6.4-2.8,8.5-5.7c5-7.1,5-17.1-2.1-22.8l0,0v-0.7L951.4,985.7z"/>
		<path class="st21" d="M1208.2,1061.2c-2.1,8.5,3.6,17.8,11.4,19.9l0,0v0.7l96.8,27.7c2.1-21.3,0.7-42.7-4.3-63.3
			c-5-21.3-12.8-41.3-24.2-59.8l-74,66.2l0,0l0,0C1211.8,1055.5,1209.6,1058.3,1208.2,1061.2z"/>
		<path class="st21" d="M1013.3,1256.1l37.7-91.8l-0.7-0.7l0,0c1.4-3.6,2.1-7.1,0.7-10c-2.1-7.8-8.5-12.8-15.7-12.8l0,0
			c-0.7,0-2.1,0-2.8,0.7l0,0l0,0l-98.2,16.4c7.1,20.6,17.8,39.8,32,56.9C979.8,1230.5,995.5,1244,1013.3,1256.1z"/>
		<path class="st21" d="M1164.1,1281.7c7.1-1.4,12.8-3.6,19.2-5l-48.4-87.5h-0.7l0,0c-1.4-2.8-4.3-5-7.1-7.1c-2.1-0.7-5-1.4-7.1-1.4
			h-0.7c-5.7,0-11.4,3.6-14.2,8.5l0,0l0,0l-48.4,87.5C1091.5,1288.1,1128.5,1290.3,1164.1,1281.7z"/>
		<polygon class="st21" points="1105,1058.3 1085.8,1081.8 1092.9,1111.7 1120,1124.5 1147.7,1111.7 1154.1,1081.8 1135.6,1058.3 		
			"/>
		<path class="st21" d="M1233.8,1251.8C1233.8,1251.8,1234.5,1251.8,1233.8,1251.8L1233.8,1251.8z"/>
		<path class="st21" d="M1206.1,911.8c-19.2-9.2-40.6-15.7-61.9-18.5l5.7,99.6l0,0l0,0c0,3.6,1.4,7.1,3.6,10
			c5.7,7.1,15.7,8.5,22.8,2.8l0,0h0.7L1258,948C1243.1,933.1,1225.3,921,1206.1,911.8z"/>
		<path class="st21" d="M982,948.8l81.8,58.3l0,0l0,0c2.8,2.1,6.4,3.6,10,3.6c8.5,0,16.4-7.1,16.4-15.7l0,0h0.7l5.7-99.6
			c-7.1,0.7-13.5,2.1-20.6,3.6C1040.3,904.6,1007.6,922.4,982,948.8z"/>
		<path class="st21" d="M1258.7,1230.5C1258.7,1230.5,1258.7,1231.2,1258.7,1230.5C1258.7,1231.2,1258.7,1230.5,1258.7,1230.5z"/>
		<path class="st21" d="M1297.1,1517.9c18.5,0,35.6-8.5,47.7-22.8l220.6-274.6c11.4-14.2,15.7-33.4,11.4-51.2l-78.3-341.5
			c-4.3-17.8-16.4-32.7-32.7-41.3L1147,635c-9.2-4.3-19.2-6.4-29.9-5.7c-8.5,0.7-15.7,2.1-23.5,5.7L774.9,787.2
			c-16.4,7.8-29.2,23.5-32.7,41.3l-78.3,342.2c-3.6,15.7-0.7,32.7,8.5,46.2c0.7,1.4,2.1,3.6,3.6,5l220.6,274.6
			c11.4,14.2,29.2,22.8,47.7,22.8L1297.1,1517.9z M990.5,1310.9L990.5,1310.9L990.5,1310.9l3.6-8.5
			c-52.6-31.3-91.1-79.7-110.3-137.3l-8.5,1.4l0,0c-0.7,0-0.7-0.7-0.7-0.7c-2.1-1.4-6.4-3.6-10-3.6c-10,1.4-20.6,5-32.7,10h-0.7
			c-2.1,0.7-3.6,1.4-5.7,2.1c-3.6,1.4-7.1,2.8-11.4,4.3c-0.7,0.7-2.1,0.7-3.6,0.7c-0.7,0-0.7,0-1.4,0.7l0,0l0,0l0,0l0,0
			c-11.4,2.1-22.1-3.6-24.9-14.2c-2.1-10,5-20.6,16.4-23.5l0,0l0,0l0,0l0,0c0.7,0,0.7,0,1.4-0.7c1.4-0.7,2.1-0.7,3.6-0.7
			c4.3-0.7,8.5-0.7,12.1-0.7c2.1,0,3.6,0,6.4-0.7h0.7c12.8-1.4,24.2-2.1,34.2-5c2.8-0.7,5-4.3,7.1-7.1c0.7-0.7,0.7-0.7,0.7-0.7l0,0
			l0,0l7.8-2.1c-8.5-60.5,5-121,39.1-172.2l-5.7-5l0,0c0-0.7,0-0.7,0-0.7c-0.7-2.8-0.7-7.1-3.6-10c-7.1-7.1-17.1-12.8-28.5-19.9
			c-2.1-0.7-3.6-2.1-5-2.8c-3.6-2.1-7.1-3.6-10-6.4c-0.7-0.7-2.1-1.4-2.8-2.1c-0.7-0.7-0.7-0.7-0.7-0.7l0,0l0,0
			c-4.3-3.6-7.1-8.5-8.5-13.5c-0.7-5,0.7-10.7,3.6-14.2c3.6-4.3,8.5-7.1,14.2-7.1h0.7c5,0,10,2.1,13.5,5c0.7,0.7,0.7,0.7,0.7,0.7
			c0.7,0.7,2.1,2.1,2.8,2.1c3.6,2.8,5.7,5.7,8.5,8.5c1.4,1.4,2.1,2.8,3.6,4.3l0.7,0.7c9.2,9.2,17.1,17.1,24.9,22.8
			c3.6,2.1,7.1,2.1,10,1.4c0.7,0,0.7,0,1.4,0l0,0l0,0c0.7,0.7,5,3.6,7.1,5c33.4-35.6,76.8-60.5,124.5-71.1c11.4-2.1,22.8-4.3,34.2-5
			l0.7-7.8l0,0c2.1-2.1,5-5.7,6.4-10c0.7-10-0.7-21.3-2.1-34.2v-0.7c-0.7-2.1-0.7-3.6-0.7-5.7c-0.7-3.6-1.4-7.8-1.4-12.1
			c0-0.7,0-2.1,0-3.6c0-0.7,0-0.7,0-1.4l0,0c0,0,0,0,0-0.7c0-11.4,8.5-21.3,19.2-21.3c10.7,0,19.2,10,19.2,21.3c0,0.7,0,0.7,0,2.1
			c0,1.4,0,2.1,0,3.6c0,4.3-0.7,8.5-1.4,12.1c-0.7,2.1-0.7,3.6-0.7,5.7v0.7c-1.4,12.8-2.8,23.5-2.1,33.4c0.7,4.3,2.8,6.4,5,8.5
			c0.7,0.7,0.7,0.7,0.7,0.7l0,0l0,0c0,1.4,0.7,5.7,0.7,8.5c29.9,2.8,59.1,10.7,86.1,24.2c27,12.8,51.2,30.6,71.9,52.6l7.1-5l0,0
			c0.7,0,0.7,0,0.7,0c2.8,0,7.1,0.7,10.7-1.4c8.5-5.7,15.7-13.5,24.9-22.8l0.7-0.7c1.4-1.4,2.8-2.8,3.6-4.3c2.1-2.8,5-5.7,8.5-8.5
			c0.7-0.7,2.1-1.4,2.8-2.1s0.7-0.7,0.7-0.7c9.2-7.1,22.1-7.1,28.5,2.1c7.1,8.5,4.3,20.6-5,28.5c-0.7,0.7-0.7,0.7-1.4,0.7
			c-0.7,0.7-2.1,1.4-2.8,2.1c-3.6,2.1-7.1,4.3-10,6.4c-2.1,0.7-3.6,2.1-5,2.8c-11.4,7.1-20.6,12.8-28.5,19.9
			c-2.8,3.6-3.6,6.4-3.6,9.2c0,0.7,0,0.7,0,1.4l0,0l0,0c-0.7,0.7-1.4,1.4-2.8,2.1c-1.4,0.7-2.8,2.1-3.6,3.6
			c17.1,24.9,29.2,52.6,35.6,82.5c7.1,29.9,8.5,59.1,3.6,88.9l7.8,2.1l0,0l0.7,0.7c1.4,2.1,3.6,6.4,7.8,7.1c10,2.8,20.6,4.3,34.2,5
			h0.7c2.1,0,4.3,0.7,6.4,0.7c3.6,0,7.8,0.7,12.1,0.7c0.7,0,2.1,0.7,3.6,0.7c0.7,0,1.4,0.7,2.1,0.7c11.4,2.8,18.5,12.8,16.4,23.5
			c-2.1,10-13.5,16.4-24.9,14.2l0,0l0,0l0,0l0,0c-0.7,0-0.7-0.7-2.1-0.7c-0.7,0-2.1-0.7-2.8-0.7c-4.3-0.7-7.8-2.1-11.4-4.3
			c-2.1-0.7-3.6-1.4-5.7-2.1h-0.7c-12.1-4.3-22.8-8.5-32.7-10c-0.7,0-0.7,0-0.7,0c-3.6,0-5.7,1.4-8.5,3.6c-0.7,0.7-0.7,0.7-0.7,0.7
			l0,0l0,0c-1.4-0.7-5-0.7-8.5-1.4c-9.2,28.5-23.5,55.5-42,79c-19.2,23.5-42,43.4-67.6,59.1c0.7,0.7,0.7,1.4,0.7,2.1
			c0.7,2.1,1.4,4.3,2.1,5l0,0l0,0c0,0.7-0.7,0.7-0.7,1.4c-0.7,2.8-2.1,5.7-0.7,10c3.6,10,10,19.2,17.1,29.9c0.7,2.1,2.1,3.6,3.6,5
			c2.1,3.6,4.3,6.4,7.1,10c0.7,0.7,0.7,2.1,2.1,3.6c0.7,0.7,0.7,0.7,0.7,1.4c5,10.7,1.4,22.8-8.5,27c-5,2.1-10,2.1-14.9,0.7
			c-5-1.4-9.2-5.7-11.4-11.4c0-0.7-0.7-0.7-0.7-1.4c-0.7-1.4-1.4-2.1-1.4-3.6c-2.1-3.6-2.8-7.8-3.6-11.4c-0.7-2.1-0.7-3.6-2.1-5.7
			v-0.7c-4.3-12.1-7.8-22.8-12.8-31.3c-2.1-3.6-5-4.3-8.5-5c-0.7,0-0.7-0.7-1.4-0.7l0,0l0,0c-0.7-0.7-0.7-2.1-2.1-3.6
			c-0.7-1.4-1.4-2.8-2.1-3.6c-10.7,3.6-22.1,7.1-32.7,10c-47.7,10.7-97.5,7.1-143.7-10l-4.3,7.8l0,0c-2.8,0.7-6.4,1.4-8.5,3.6
			c-5,5.7-7.8,14.2-10.7,22.8c-1.4,3.6-2.1,7.8-3.6,11.4c-0.7,2.1-0.7,3.6-2.1,5.7c-0.7,3.6-2.1,7.1-3.6,11.4
			c-0.7,0.7-0.7,2.1-1.4,3.6c-0.7,0.7-0.7,0.7-0.7,1.4l0,0l0,0c-3.6,7.8-11.4,12.8-19.2,12.8c-2.1,0-5-0.7-7.8-2.1
			c-9.2-4.3-12.8-17.1-8.5-27c0.7-0.7,0.7-0.7,0.7-2.1c0.7-0.7,0.7-2.1,1.4-3.6c2.1-3.6,4.3-7.1,7.1-10c0.7-1.4,2.1-3.6,3.6-5
			c7.8-11.4,13.5-22.1,17.8-31.3C993.3,1318.7,991.9,1313.7,990.5,1310.9z"/>
		<path class="st1" d="M975.5,1352.9c-0.7,2.1-2.1,3.6-3.6,5c-2.1,3.6-4.3,6.4-7.1,10c-0.7,0.7-0.7,2.1-1.4,3.6
			c-0.7,0.7-0.7,1.4-0.7,2.1c-5,10.7-1.4,22.8,8.5,27c2.1,0.7,5,2.1,7.8,2.1c7.8,0,14.9-5,19.2-12.8l0,0l0,0c0-0.7,0.7-0.7,0.7-1.4
			c0.7-0.7,0.7-2.1,1.4-3.6c2.1-3.6,2.8-7.8,3.6-11.4c0.7-2.1,0.7-3.6,2.1-5.7c1.4-3.6,2.8-7.8,3.6-11.4c2.8-8.5,5.7-17.1,10.7-22.8
			c2.1-2.1,5-2.8,8.5-3.6l0,0l4.3-7.8c46.2,17.8,95.3,21.3,143.7,10c11.4-2.1,22.1-5.7,32.7-10c0.7,0.7,1.4,2.1,2.1,3.6
			c0.7,1.4,1.4,2.8,2.1,3.6l0,0l0,0c0.7,0,0.7,0.7,1.4,0.7c2.8,0.7,5.7,2.1,8.5,5c5,8.5,8.5,19.2,12.8,31.3v0.7
			c0.7,2.1,0.7,3.6,2.1,5.7c0.7,3.6,2.1,7.1,3.6,11.4c0.7,0.7,0.7,2.1,1.4,3.6c0,0.7,0.7,0.7,0.7,1.4c2.1,5,7.1,9.2,11.4,11.4
			c4.3,2.1,10,2.1,14.9-0.7c9.2-4.3,12.8-17.1,8.5-27c0-0.7-0.7-0.7-0.7-1.4c-0.7-1.4-0.7-2.1-2.1-3.6c-2.1-3.6-4.3-7.1-7.1-10
			c-0.7-1.4-2.1-3.6-3.6-5c-7.1-11.4-12.8-20.6-17.1-29.9c-1.4-4.3,0-7.1,0.7-10c0-0.7,0.7-0.7,0.7-1.4l0,0l0,0
			c-0.7-0.7-1.4-2.8-2.1-5c-0.7-0.7-0.7-2.1-0.7-2.1c26.3-15.7,49.1-35.6,67.6-59.1c19.2-23.5,32.7-50.5,42-79
			c2.1,0.7,7.1,0.7,8.5,1.4l0,0l0,0c0.7-0.7,0.7-0.7,0.7-0.7c2.1-1.4,4.3-3.6,8.5-3.6c0.7,0,0.7,0,0.7,0c10,1.4,20.6,5,32.7,10h0.7
			c2.1,0.7,3.6,1.4,5.7,2.1c3.6,1.4,7.1,2.8,11.4,4.3c0.7,0,2.1,0.7,2.8,0.7s1.4,0.7,2.1,0.7l0,0l0,0l0,0l0,0
			c11.4,2.1,22.1-3.6,24.9-14.2c2.1-10-5-20.6-16.4-23.5c-0.7,0-1.4-0.7-2.1-0.7c-1.4-0.7-2.1-0.7-3.6-0.7
			c-4.3-0.7-8.5-0.7-12.1-0.7c-2.1,0-3.6,0-6.4-0.7h-0.7c-12.8-1.4-24.2-2.1-34.2-5c-3.6-1.4-6.4-5-7.8-7.1c0-0.7-0.7-0.7-0.7-0.7
			l0,0l-7.8-2.1c3.6-29.9,2.8-59.8-3.6-88.9c-7.1-29.9-19.2-56.9-35.6-82.5c0.7-0.7,2.1-2.1,3.6-3.6c1.4-0.7,2.1-2.1,2.8-2.1l0,0
			l0,0c0-0.7,0-0.7,0-1.4c0-2.8,0.7-6.4,3.6-9.2c7.1-7.1,17.1-12.8,28.5-19.9c2.1-0.7,3.6-2.1,5-2.8c3.6-2.1,7.1-3.6,10-6.4
			c0.7-0.7,2.1-1.4,2.8-2.1c0.7-0.7,0.7-0.7,1.4-0.7c9.2-7.1,11.4-19.9,5-28.5c-7.1-8.5-19.2-9.2-28.5-2.1c-0.7,0.7-0.7,0.7-0.7,0.7
			c-0.7,0.7-2.1,2.1-2.8,2.1c-3.6,2.8-5.7,5.7-8.5,8.5c-1.4,1.4-2.1,2.8-3.6,4.3l-0.7,0.7c-9.2,9.2-16.4,17.1-24.9,22.8
			c-3.6,2.1-7.8,1.4-10.7,1.4c-0.7,0-0.7,0-0.7,0l0,0l-7.1,5c-20.6-22.1-44.8-39.1-71.9-52.6c-27-12.8-56.2-21.3-86.1-24.2
			c0-2.1-0.7-7.1-0.7-8.5l0,0l0,0c-0.7-0.7-0.7-0.7-0.7-0.7c-2.1-2.1-4.3-3.6-5-8.5c-0.7-10,0.7-20.6,2.1-33.4v-0.7
			c0.7-2.1,0.7-3.6,0.7-5.7c0.7-3.6,1.4-7.8,1.4-12.1c0-0.7,0-2.1,0-3.6c0-0.7,0-1.4,0-2.1c0-11.4-8.5-21.3-19.2-21.3
			c-10.7,0-19.2,10-19.2,21.3c0,0,0,0,0,0.7l0,0c0,0.7,0,0.7,0,1.4s0,2.1,0,3.6c0,4.3,0.7,8.5,1.4,12.1c0.7,2.1,0.7,3.6,0.7,5.7v0.7
			c1.4,12.8,2.8,24.2,2.1,34.2c-0.7,3.6-3.6,7.1-6.4,10l0,0l-0.7,7.8c-11.4,0.7-23.5,2.8-34.2,5c-47.7,10.7-91.1,35.6-124.5,71.1
			c-2.1-1.4-5.7-3.6-7.1-5l0,0l0,0c-0.7,0-0.7,0-1.4,0c-2.8,0.7-5.7,0.7-10-1.4c-8.5-5.7-16.4-13.5-24.9-22.8l-0.7-0.7
			c-1.4-1.4-2.8-2.8-3.6-4.3c-2.1-2.8-5-5.7-8.5-8.5c-0.7-0.7-2.1-1.4-2.8-2.1c-0.7-0.7-0.7-0.7-0.7-0.7c-3.6-2.8-8.5-5-13.5-5h-0.7
			c-5.7,0-11.4,2.1-14.2,7.1c-3.6,3.6-4.3,9.2-3.6,14.2c0.7,5,3.6,10,8.5,13.5l0,0l0,0c0.7,0.7,0.7,0.7,0.7,0.7
			c0.7,0.7,2.1,1.4,2.8,2.1c3.6,2.1,7.1,4.3,10,6.4c2.1,0.7,3.6,2.1,5,2.8c11.4,7.1,20.6,12.8,28.5,19.9c2.1,2.8,3.6,7.1,3.6,10
			c0,0.7,0,0.7,0,0.7l0,0l5.7,5c-34.2,51.2-47.7,111.7-39.1,172.2l-7.8,2.1l0,0l0,0c-0.7,0.7-0.7,0.7-0.7,0.7
			c-2.1,2.8-5,6.4-7.1,7.1c-10,2.8-20.6,4.3-34.2,5h-0.7c-2.1,0-4.3,0.7-6.4,0.7c-3.6,0-7.8,0.7-12.1,0.7c-0.7,0-2.1,0.7-3.6,0.7
			c-0.7,0-0.7,0.7-1.4,0.7l0,0l0,0l0,0l0,0c-11.4,2.8-18.5,12.8-16.4,23.5c2.1,10,13.5,16.4,24.9,14.2l0,0l0,0l0,0l0,0
			c0.7,0,0.7,0,1.4-0.7c1.4-0.7,2.1-0.7,3.6-0.7c4.3-0.7,7.8-2.1,11.4-4.3c2.1-0.7,3.6-1.4,5.7-2.1h0.7c12.1-4.3,22.8-8.5,32.7-10
			c3.6-0.7,7.8,2.1,10,3.6c0.7,0,0.7,0.7,0.7,0.7l0,0l8.5-1.4c18.5,57.6,57.6,106,110.3,137.3l-3.6,8.5l0,0l0,0
			c0.7,2.8,2.1,7.1,2.1,10.7C989.1,1330.8,982.7,1340.8,975.5,1352.9z M1026.1,1053.3c7.1,5.7,7.8,15.7,2.1,22.8
			c-2.1,2.8-5,5-8.5,5.7l0,0v0.7l-96.1,27.7c-2.1-22.1-0.7-43.4,3.6-64.7c5-20.6,12.8-40.6,23.5-58.3L1026.1,1053.3L1026.1,1053.3
			L1026.1,1053.3z M1033.2,1140.1L1033.2,1140.1L1033.2,1140.1c1.4,0,2.1,0,3.6,0l0,0c7.8,0,14.2,5,15.7,12.8
			c0.7,3.6,0.7,7.1-0.7,10l0,0l0.7,0.7l-37.7,91.8c-17.8-11.4-34.2-25.6-47-42c-13.5-17.1-24.2-35.6-32-56.9L1033.2,1140.1z
			 M1176.2,1005.7L1176.2,1005.7c-7.1,5-17.8,3.6-22.8-2.8c-2.1-2.8-3.6-6.4-3.6-10l0,0l0,0l-5.7-99.6c21.3,2.1,42,8.5,61.9,18.5
			c19.2,9.2,37,22.1,52.6,37L1176.2,1005.7L1176.2,1005.7z M1090.1,992.9L1090.1,992.9L1090.1,992.9c-0.7,9.2-8.5,16.4-17.1,16.4
			c-3.6,0-7.1-0.7-10-3.6l0,0l0,0l-81.8-58.3c26.3-25.6,58.3-43.4,94.6-51.2c6.4-1.4,12.8-2.1,20.6-3.6L1090.1,992.9z M1105,1189.2
			L1105,1189.2L1105,1189.2c2.8-5,8.5-8.5,14.2-8.5h0.7c2.1,0,5,0.7,7.1,1.4c3.6,1.4,5.7,3.6,7.1,7.1l0,0h0.7l48.4,87.5
			c-6.4,2.1-12.8,3.6-19.2,5c-35.6,8.5-72.6,6.4-107.4-5L1105,1189.2z M1147.7,1111.7l-27,12.8l-27.7-12.8l-7.1-29.9l19.2-23.5h30.6
			l19.2,23.5L1147.7,1111.7z M1189,1163.6L1189,1163.6L1189,1163.6c-3.6-8.5,0-17.8,8.5-22.1c2.1-0.7,4.3-1.4,6.4-1.4
			c0.7,0,2.1,0,3.6,0.7l0,0l0,0l98.9,17.1c-7.1,20.6-17.8,39.1-31.3,56.2c-13.5,17.1-29.9,31.3-47.7,43.4L1189,1163.6z
			 M1270.1,1219.1L1270.1,1219.1L1270.1,1219.1z M1213.9,1052.6l74-66.2c11.4,18.5,19.2,39.1,24.2,59.8c5,20.6,6.4,42.7,4.3,63.3
			l-96.8-27.7v-0.7l0,0c-8.5-2.1-14.2-11.4-11.4-19.9C1209.6,1058.3,1211.8,1055.5,1213.9,1052.6L1213.9,1052.6L1213.9,1052.6z
			 M1246.6,1241.9L1246.6,1241.9L1246.6,1241.9z M1234.5,1251.8C1234.5,1251.8,1233.8,1251.8,1234.5,1251.8L1234.5,1251.8z
			 M1258.7,1230.5C1258.7,1230.5,1258.7,1231.2,1258.7,1230.5C1258.7,1231.2,1258.7,1230.5,1258.7,1230.5z"/>
		<path class="st22" d="M632.6,1711.5c-4.3-5.7-8.5-11.4-13.5-16.4c-5-5-9.2-10-13.5-14.2c8.5-8.5,16.4-16.4,23.5-24.9
			c7.1-8.5,14.9-16.4,22.1-24.9h-38.4c-2.1,2.1-4.3,5-7.1,8.5c-2.8,3.6-5.7,7.1-8.5,10.7c-3.6,3.6-6.4,7.1-10,11.4
			c-3.6,3.6-7.1,7.1-10,10.7V1577l-32,5v162.2h32v-49.8c3.6,2.8,7.1,6.4,10.7,10.7c3.6,4.3,7.1,8.5,10.7,12.8
			c3.6,4.3,6.4,9.2,9.2,13.5c2.8,4.3,5.7,8.5,7.8,12.1h37c-2.1-5-5-10-9.2-15.7C640.4,1723.6,636.2,1717.2,632.6,1711.5z"/>
		<path class="st22" d="M732.9,1719.3c-2.1,0.7-4.3,0.7-7.1,0.7c-2.1,0-5,0-7.1,0c-7.1,0-12.8-2.1-15.7-7.1
			c-2.8-4.3-3.6-12.1-3.6-22.1v-59.1h-32v63.3c0,7.8,0.7,14.9,2.1,21.3c1.4,6.4,4.3,12.1,7.8,17.1c3.6,5,8.5,8.5,14.9,10.7
			s14.2,3.6,24.2,3.6s18.5-0.7,27-2.1c8.5-1.4,15.7-2.8,21.3-4.3v-109.6h-32V1719.3L732.9,1719.3z"/>
		<path class="st22" d="M888.7,1644.6c-4.3-5-9.2-9.2-15.7-11.4c-6.4-2.8-12.8-4.3-21.3-4.3c-4.3,0-8.5,0.7-12.8,1.4
			c-3.6,0.7-7.8,2.1-11.4,3.6V1577l-32,5v158.7c2.8,0.7,6.4,2.1,10,2.1c3.6,0.7,7.8,1.4,11.4,2.1c4.3,0.7,8.5,0.7,12.8,1.4
			c4.3,0.7,8.5,0.7,12.1,0.7c9.2,0,17.8-1.4,24.9-3.6c7.1-2.8,13.5-7.1,18.5-12.1s8.5-11.4,11.4-19.2c2.8-7.1,3.6-15.7,3.6-24.9
			c0-8.5-0.7-17.1-3.6-24.2C895.9,1656.7,892.3,1650.3,888.7,1644.6z M861.7,1711.5c-4.3,5.7-11.4,9.2-19.9,9.2c-2.8,0-5,0-7.8,0
			c-2.1-0.7-4.3-0.7-5.7-0.7v-58.3c2.1-1.4,5-2.1,7.8-3.6c3.6-0.7,7.1-1.4,10-1.4c14.9,0,22.8,10,22.8,31.3
			C868.1,1697.2,866,1705.1,861.7,1711.5z"/>
		<path class="st22" d="M974.8,1628.2c-7.1,0-13.5,1.4-20.6,3.6c-6.4,2.1-12.1,6.4-17.8,11.4c-5,5-9.2,11.4-12.1,19.2
			c-2.8,7.1-4.3,16.4-4.3,26.3l0,0c0,8.5,0.7,15.7,3.6,23.5c2.1,7.1,6.4,13.5,11.4,19.2c5,5,11.4,9.2,19.2,12.1
			c7.8,2.8,16.4,4.3,26.3,4.3c3.6,0,8.5,0,12.1-0.7c3.6-0.7,7.8-0.7,11.4-2.1c3.6-0.7,7.1-1.4,10-2.1c2.8-0.7,5-2.1,7.1-2.1
			l-4.3-26.3c-3.6,1.4-8.5,2.8-14.2,3.6c-5.7,0.7-11.4,1.4-17.8,1.4c-9.2,0-16.4-2.1-22.1-5.7c-5-3.6-8.5-9.2-9.2-15.7h73.3
			c0-2.1,0.7-3.6,0.7-5.7c0-2.1,0-4.3,0-6.4c0-19.2-5-33.4-14.2-43.4C1004,1633.2,990.5,1628.2,974.8,1628.2z M953.5,1676.6
			c0.7-2.8,0.7-5,2.1-7.8c0.7-2.8,2.1-5,3.6-7.1c2.1-2.1,3.6-3.6,6.4-5c2.1-1.4,5.7-2.1,9.2-2.1s7.1,0.7,9.2,2.1
			c2.1,1.4,5,2.8,6.4,5c2.1,2.1,2.8,4.3,3.6,7.1c0.7,2.1,1.4,5,1.4,7.8H953.5L953.5,1676.6z"/>
		<path class="st22" d="M1112.2,1630.4c-2.1-0.7-5-0.7-7.1-0.7c-2.1-0.7-4.3-0.7-6.4-0.7c-10,0-18.5,0.7-26.3,2.8
			c-7.8,2.1-14.2,3.6-20.6,5.7v107.4h32v-87.5c1.4-0.7,3.6-0.7,6.4-0.7c2.8-0.7,5-0.7,7.1-0.7c4.3,0,8.5,0.7,12.8,1.4
			c3.6,0.7,7.1,1.4,10,2.1l5-26.3c-2.1-0.7-3.6-1.4-6.4-2.1C1117.1,1630.4,1114.3,1630.4,1112.2,1630.4z"/>
		<path class="st22" d="M1231,1643.2c-3.6-5-8.5-8.5-15.7-10.7c-6.4-2.1-14.2-3.6-23.5-3.6c-10,0-18.5,0.7-27,2.1
			c-8.5,1.4-15.7,2.8-21.3,4.3v109.6h32v-87.5c2.1-0.7,4.3-0.7,7.1-0.7c2.1-0.7,5-0.7,7.1-0.7c7.1,0,12.8,2.1,15.7,6.4
			c2.8,4.3,3.6,11.4,3.6,22.1v60.5h32v-64c0-7.8-0.7-14.9-2.1-21.3C1237.4,1653.1,1234.5,1647.4,1231,1643.2z"/>
		<path class="st22" d="M1319.9,1628.2c-7.1,0-13.5,1.4-20.6,3.6c-6.4,2.1-12.1,6.4-17.8,11.4c-5,5-9.2,11.4-12.1,19.2
			c-2.8,7.1-4.3,16.4-4.3,26.3c0,8.5,0.7,15.7,3.6,23.5c2.1,7.1,6.4,13.5,11.4,19.2c5,5,11.4,9.2,19.2,12.1
			c7.8,2.8,16.4,4.3,26.3,4.3c3.6,0,8.5,0,12.1-0.7c3.6-0.7,7.8-0.7,11.4-2.1c3.6-0.7,7.1-1.4,10-2.1c2.8-0.7,5-2.1,7.1-2.1
			l-4.3-26.3c-3.6,1.4-8.5,2.8-14.2,3.6c-5.7,0.7-11.4,1.4-17.8,1.4c-9.2,0-16.4-2.1-22.1-5.7c-5-3.6-8.5-9.2-9.2-15.7h73.3
			c0-2.1,0.7-3.6,0.7-5.7c0-2.1,0-4.3,0-6.4c0-19.2-5-33.4-14.2-43.4C1348.4,1633.2,1335.6,1628.2,1319.9,1628.2z M1298.6,1676.6
			c0.7-2.8,0.7-5,2.1-7.8c0.7-2.8,2.1-5,3.6-7.1c2.1-2.1,3.6-3.6,6.4-5c2.1-1.4,5.7-2.1,9.2-2.1c3.6,0,7.1,0.7,9.2,2.1
			c2.1,1.4,5,2.8,6.4,5c2.1,2.1,2.8,4.3,3.6,7.1c0.7,2.1,1.4,5,1.4,7.8H1298.6L1298.6,1676.6z"/>
		<path class="st22" d="M1456.5,1719.3c-3.6,0.7-7.1,0.7-10.7,0.7c-7.1,0-12.1-2.1-14.2-5.7c-2.1-3.6-3.6-9.2-3.6-15.7v-40.6h39.1
			v-26.3h-39.1v-34.2l-32,5l0,0v95.3c0,7.1,0.7,14.2,2.1,19.9c1.4,5.7,3.6,11.4,7.1,15.7c3.6,4.3,8.5,7.1,14.2,10
			c5.7,2.8,12.8,3.6,22.1,3.6c7.1,0,12.8-0.7,17.8-2.1c5-0.7,9.2-2.1,12.8-3.6l-4.3-24.9C1462.9,1717.2,1459.4,1718.6,1456.5,1719.3
			z"/>
		<path class="st22" d="M1537.6,1628.2c-7.1,0-13.5,1.4-20.6,3.6c-6.4,2.1-12.1,6.4-17.8,11.4c-5,5-9.2,11.4-12.1,19.2
			c-2.8,7.1-4.3,16.4-4.3,26.3c0,8.5,0.7,15.7,3.6,23.5c2.1,7.1,6.4,13.5,11.4,19.2c5,5,11.4,9.2,19.2,12.1
			c7.8,2.8,16.4,4.3,26.3,4.3c3.6,0,8.5,0,12.1-0.7c3.6-0.7,7.8-0.7,11.4-2.1c3.6-0.7,7.1-1.4,10-2.1c2.8-0.7,5-2.1,7.1-2.1
			l-4.3-26.3c-3.6,1.4-8.5,2.8-14.2,3.6c-5.7,0.7-11.4,1.4-17.8,1.4c-9.2,0-16.4-2.1-22.1-5.7c-5-3.6-8.5-9.2-9.2-15.7h73.3
			c0-2.1,0.7-3.6,0.7-5.7c0-2.1,0-4.3,0-6.4c0-19.2-5-33.4-14.2-43.4C1566.1,1633.2,1553.3,1628.2,1537.6,1628.2z M1515.6,1676.6
			c0.7-2.8,0.7-5,2.1-7.8c0.7-2.8,2.1-5,3.6-7.1c2.1-2.1,3.6-3.6,6.4-5c2.1-1.4,5.7-2.1,9.2-2.1c3.6,0,7.1,0.7,9.2,2.1
			c2.1,1.4,5,2.8,6.4,5c2.1,2.1,2.8,4.3,3.6,7.1c0.7,2.1,1.4,5,1.4,7.8H1515.6L1515.6,1676.6z"/>
		<path class="st22" d="M1687.7,1691.5c-2.1-2.8-6.4-5.7-10.7-8.5c-4.3-2.8-10.7-5-17.8-7.8c-3.6-1.4-6.4-2.1-8.5-3.6
			c-2.1-0.7-3.6-2.1-5-2.8c-1.4-0.7-2.1-2.1-2.1-2.8c-0.7-0.7-0.7-2.1-0.7-3.6c0-5.7,5-8.5,14.9-8.5c5,0,10,0.7,14.2,1.4
			c4.3,0.7,8.5,2.1,12.1,3.6l5.7-24.9c-3.6-1.4-8.5-2.8-14.9-3.6c-6.4-1.4-12.8-2.1-19.9-2.1c-14.2,0-24.9,2.8-32.7,9.2
			c-7.8,6.4-11.4,14.2-11.4,24.9c0,5,0.7,10,2.1,14.2c1.4,3.6,3.6,7.1,7.1,10c2.8,2.8,6.4,5,10,7.1c4.3,2.1,8.5,3.6,13.5,5.7
			c6.4,2.1,11.4,5,14.2,7.1c3.6,2.1,5,3.6,5,7.1c0,3.6-1.4,5-3.6,7.1c-2.1,0.7-7.1,2.1-12.8,2.1s-11.4-0.7-17.1-2.1
			c-5.7-1.4-11.4-2.8-17.1-5l-5,26.3c2.1,0.7,7.1,2.1,13.5,4.3c7.1,2.1,14.9,2.1,24.9,2.1c15.7,0,27-2.8,35.6-8.5
			c8.5-5.7,12.8-14.2,12.8-25.6c0-5-0.7-8.5-2.1-12.8C1692,1697.9,1690.6,1694.4,1687.7,1691.5z"/>
		<path class="st21" d="M425.6,1997.5v159.4c0,91.8,74,166.5,166.5,166.5h1057.3c91.8,0,166.5-74,166.5-166.5v-159.4H425.6z
			 M1068.8,2236.5h-29.9v-101c-3.6,2.8-8.5,5-13.5,7.1c-5,2.1-10,4.3-14.2,5.7l-9.2-23.5c3.6-1.4,7.8-3.6,12.1-5
			c4.3-2.1,8.5-4.3,12.8-7.1c3.6-2.1,7.8-5,11.4-7.8c3.6-2.8,7.1-5.7,10-8.5h20.6V2236.5z M1120.7,2235.1c-3.6,3.6-8.5,5-12.8,5
			c-4.3,0-9.2-1.4-12.8-5c-3.6-3.6-5.7-7.8-5.7-13.5s2.1-10.7,5.7-13.5c3.6-3.6,8.5-5,12.8-5c4.3,0,9.2,1.4,12.8,5
			c3.6,3.6,5.7,7.8,5.7,13.5S1125,2231.6,1120.7,2235.1z M1236,2214.5c-2.1,5-5,10-9.2,12.8c-4.3,3.6-9.2,7.1-15.7,8.5
			c-6.4,2.1-13.5,2.8-22.1,2.8c-9.2,0-17.8-1.4-23.5-3.6c-6.4-2.1-11.4-5.7-14.9-10c-3.6-3.6-7.1-8.5-8.5-12.8
			c-1.4-5-2.1-8.5-2.1-12.8c0-3.6,0.7-7.8,1.4-11.4c0.7-3.6,2.1-6.4,4.3-9.2c2.1-2.8,3.6-5,6.4-7.8s5-4.3,7.8-6.4
			c-5.7-5-10-9.2-12.8-14.2c-2.8-4.3-4.3-10-4.3-17.8c0-5,0.7-10.7,3.6-15.7c2.8-5,5-9.2,9.2-12.8c3.6-3.6,8.5-7.1,14.2-8.5
			c5.7-2.1,12.1-3.6,19.2-3.6c8.5,0,14.9,0.7,20.6,3.6s10.7,5,14.2,8.5c3.6,3.6,6.4,7.8,8.5,12.1c1.4,4.3,2.1,8.5,2.1,13.5
			c0,6.4-2.1,12.8-5,17.8c-3.6,5-7.8,10-12.8,12.8c7.8,5,12.8,10,16.4,15.7c3.6,5,5,11.4,5,19.2
			C1238.8,2203.8,1238.1,2209.5,1236,2214.5z"/>
		<path class="st21" d="M1201.8,2184.6c-2.1-2.1-5-3.6-8.5-5s-7.1-2.8-10.7-3.6c-3.6,2.8-7.1,6.4-10,10c-2.1,3.6-3.6,8.5-3.6,13.5
			c0,1.4,0.7,3.6,0.7,5c0.7,2.1,2.1,3.6,3.6,5c1.4,1.4,3.6,2.8,6.4,3.6c2.1,0.7,5.7,1.4,9.2,1.4c7.1,0,12.1-1.4,15.7-5
			c3.6-3.6,5-7.1,5-11.4c0-2.8-0.7-5.7-2.1-8.5C1206.1,2188.2,1203.9,2186.7,1201.8,2184.6z"/>
		<path class="st21" d="M1193.3,2154.7c4.3-2.8,7.8-5.7,10-9.2c2.1-3.6,3.6-7.8,3.6-12.8c0-1.4-0.7-2.8-0.7-5
			c-0.7-1.4-1.4-3.6-2.8-5c-1.4-1.4-3.6-2.8-5-3.6c-2.1-0.7-5-1.4-7.8-1.4c-2.8,0-5,0.7-7.8,1.4c-2.1,0.7-3.6,2.1-5,3.6
			c-1.4,1.4-2.1,3.6-2.8,5c-0.7,2.1-0.7,3.6-0.7,5c0,4.3,1.4,8.5,5,12.1C1180.5,2149,1185.4,2152.6,1193.3,2154.7z"/>
		<path class="st1" d="M1038.2,2105.6c-3.6,2.8-7.8,5-11.4,7.8c-3.6,2.1-8.5,5-12.8,7.1c-4.3,2.1-8.5,3.6-12.1,5l9.2,23.5
			c5-1.4,10-3.6,14.2-5.7c4.3-2.1,10-5,13.5-7.1v101h29.9v-139.5h-20.6C1045.3,2099.9,1041.7,2102.8,1038.2,2105.6z"/>
		<path class="st1" d="M1107.9,2202.4c-5,0-9.2,1.4-12.8,5c-3.6,3.6-5.7,7.8-5.7,13.5c0,5.7,2.1,10.7,5.7,13.5c3.6,3.6,8.5,5,12.8,5
			c4.3,0,9.2-1.4,12.8-5s5.7-7.8,5.7-13.5c0-5.7-2.1-10.7-5.7-13.5C1117.1,2203.8,1112.9,2202.4,1107.9,2202.4z"/>
		<path class="st1" d="M1217.5,2163.3c5-3.6,9.2-7.8,12.8-12.8c3.6-5,5-11.4,5-17.8c0-4.3-0.7-8.5-2.1-13.5
			c-1.4-4.3-4.3-8.5-8.5-12.1c-3.6-3.6-8.5-7.1-14.2-8.5c-5.7-2.1-12.8-3.6-20.6-3.6c-7.1,0-13.5,0.7-19.2,3.6
			c-5.7,2.1-10.7,5-14.2,8.5c-3.6,3.6-7.1,8.5-9.2,12.8c-2.1,5-3.6,10-3.6,15.7c0,7.1,1.4,12.8,4.3,17.8c2.8,4.3,7.1,9.2,12.8,14.2
			c-2.8,2.1-5,4.3-7.8,6.4c-2.1,2.1-4.3,5-6.4,7.8s-3.6,5.7-4.3,9.2s-1.4,7.1-1.4,11.4c0,3.6,0.7,8.5,2.1,12.8
			c1.4,5,4.3,8.5,8.5,12.8c3.6,3.6,8.5,7.1,14.9,10c6.4,2.1,14.2,3.6,23.5,3.6c8.5,0,15.7-0.7,22.1-2.8c6.4-2.1,11.4-5,15.7-8.5
			c4.3-3.6,7.1-8.5,9.2-12.8c2.1-5,2.8-10.7,2.8-16.4c0-7.1-1.4-13.5-5-19.2C1231,2173.2,1225.3,2168.2,1217.5,2163.3z
			 M1173.3,2128.4c0.7-2.1,2.1-3.6,2.8-5c1.4-1.4,3.6-2.8,5-3.6c1.4-0.7,5-1.4,7.8-1.4c2.8,0,5.7,0.7,7.8,1.4c2.1,0.7,3.6,2.1,5,3.6
			c1.4,1.4,2.1,2.8,2.8,5c0.7,1.4,0.7,3.6,0.7,5c0,5-0.7,9.2-3.6,12.8c-2.1,3.6-5.7,7.1-10,9.2c-7.8-2.8-12.8-5.7-15.7-10
			c-3.6-3.6-5-7.8-5-12.1C1172.6,2132,1172.6,2129.8,1173.3,2128.4z M1205.4,2210.9c-3.6,3.6-8.5,5-15.7,5c-3.6,0-7.1-0.7-9.2-1.4
			c-2.1-0.7-5-2.1-6.4-3.6c-1.4-1.4-2.8-3.6-3.6-5c-0.7-2.1-0.7-3.6-0.7-5c0-5,1.4-10,3.6-13.5c2.1-3.6,5.7-7.1,10-10
			c3.6,1.4,7.1,2.1,10.7,3.6c3.6,1.4,6.4,2.8,8.5,5c2.1,2.1,4.3,3.6,5.7,6.4c1.4,2.1,2.1,5,2.1,8.5
			C1209.6,2203.1,1208.2,2207.4,1205.4,2210.9z"/>
	</g>
</g>
</svg>
