<svg xmlns="http://www.w3.org/2000/svg" xmlns:xlink="http://www.w3.org/1999/xlink" width="64" height="64" fill="none" xmlns:v="https://vecta.io/nano"><g clip-path="url(#A)"><g fill="#7272e9"><path d="M51.856 10.322v26.125l-20.506 8.71V33.638l11.517-4.775V13.975l8.989-3.653z"/><path d="M31.35 1.335l20.506 8.987-8.989 3.653L31.35 8.92l-11.517 5.055-8.71-3.652L31.35 1.335z"/><path d="M31.35 33.638v11.519l-20.227-8.71V10.322l8.71 3.653v14.888l11.517 4.775z"/></g><path d="M53.261 10.324v-.282-.282l-.282-.28L31.911.21C31.756.075 31.556 0 31.35 0s-.406.075-.561.21L10.282 8.92l-.282.28v.282.28 26.125c-.005.289.071.575.219.823s.364.45.622.582L31.066 46h1.682l20.225-8.71a1.54 1.54 0 0 0 .841-1.405l-.562-25.561h.008zM31.35 3.019l16.574 7.305-5.057 2.246-10.955-4.775c-.156-.135-.355-.21-.561-.21s-.406.075-.561.21L19.833 12.29h-.282l-4.775-1.966L31.35 3.019zm-1.405 39.89l-17.417-7.593V12.29l5.9 2.523v13.773c-.006.289.07.575.219.823s.364.45.622.582l10.676 4.483v8.434zm1.405-10.674L21.238 28.03V15.1l10.112-4.496L41.462 15.1v12.922L31.35 32.235zm18.822 3.081l-17.417 7.585v-8.138l10.674-4.494a1.54 1.54 0 0 0 .841-1.405V14.818l5.9-2.523.002 23.021z" fill="#4949a3"/><g fill="#fff"><path d="M42.867 28.862V13.975L31.35 8.92v14.888l11.517 5.055z"/><path d="M42.867 28.863L31.35 23.807l-11.517 5.055 11.517 4.775 11.517-4.775z"/><path d="M31.35 23.807V8.92l-11.517 5.055v14.888l11.517-5.055z"/></g><path d="M43.428 12.57L31.911 7.795h-1.682L19.273 12.57c-.563.282-1.125.841-1.125 1.405v14.888c0 .564.282 1.125 1.125 1.405l11.515 5.049a.84.84 0 0 0 1.123 0l11.517-5.047c.564-.28 1.125-.841 1.125-1.405V13.977c0-.564-.561-1.125-1.125-1.407zM21.246 15.1l8.708-3.652v11.799l-8.708 3.659V15.1zm10.112 17.136l-7.867-3.365 7.867-3.364 7.867 3.364-7.867 3.365zm10.112-5.619l-8.708-3.652V11.165l8.708 3.653v11.799z" fill="#4949a3"/><g fill="#fc6011"><path d="M5.986 57.94H2.482v2.625h4.096v1.183H1v-8.531h5.537v1.195H2.482v2.355h3.504v1.172zm3.833-2.532l.041.732c.469-.566 1.084-.85 1.846-.85 1.32 0 1.992.756 2.016 2.268v4.189h-1.424V57.64c0-.402-.088-.699-.264-.891s-.455-.293-.85-.293c-.574 0-1.002.26-1.283.779v4.512H8.477v-6.34h1.342zm7.992-1.541v1.541h1.119v1.055h-1.119v3.539c0 .242.047.418.141.527s.269.158.516.158a2.19 2.19 0 0 0 .498-.059v1.102a3.5 3.5 0 0 1-.937.135c-1.094 0-1.641-.604-1.641-1.811v-3.592h-1.043v-1.055h1.043v-1.541h1.424zm5.854 7.998c-.902 0-1.635-.283-2.197-.85s-.838-1.328-.838-2.273v-.176c0-.633.121-1.197.363-1.693a2.8 2.8 0 0 1 1.031-1.166 2.72 2.72 0 0 1 1.477-.416c.863 0 1.529.275 1.998.826s.709 1.33.709 2.338v.574h-4.143c.043.523.217.938.521 1.242s.695.457 1.16.457c.652 0 1.184-.264 1.594-.791l.768.732a2.58 2.58 0 0 1-1.02.885 3.19 3.19 0 0 1-1.424.311zm-.17-5.432c-.391 0-.707.137-.949.41s-.391.654-.457 1.142h2.713v-.105c-.031-.477-.158-.836-.381-1.078s-.531-.369-.926-.369z"/><use xlink:href="#B"/><path d="M38.789 58.643c0 .98-.223 1.764-.668 2.35a2.14 2.14 0 0 1-1.793.873c-.695 0-1.252-.229-1.67-.686v3.006h-1.424v-8.777h1.313l.059.645c.418-.508.986-.762 1.705-.762.774 0 1.379.289 1.817.867s.662 1.373.662 2.396v.088zm-1.418-.123c0-.633-.127-1.135-.381-1.506a1.22 1.22 0 0 0-1.078-.557c-.582 0-1 .24-1.254.721v2.813c.258.492.68.738 1.266.738a1.22 1.22 0 0 0 1.061-.545c.258-.367.387-.922.387-1.664zm6.797-1.811a3.52 3.52 0 0 0-.58-.047c-.652 0-1.092.25-1.318.75v4.336h-1.424v-6.34h1.359l.035.709c.344-.551.82-.826 1.43-.826.203 0 .371.027.504.082l-.006 1.336zm3.264 5.039h-1.424v-6.34h1.424v6.34zm-1.512-7.986a.76.76 0 0 1 .205-.545c.141-.145.34-.217.598-.217s.457.072.598.217a.75.75 0 0 1 .211.545.74.74 0 0 1-.211.539c-.141.144-.34.211-.598.211s-.457-.07-.598-.211a.73.73 0 0 1-.205-.539zm7.472 6.263c0-.254-.106-.447-.316-.58s-.553-.25-1.037-.352-.889-.23-1.213-.387c-.711-.344-1.066-.842-1.066-1.494 0-.547.23-1.004.691-1.371s1.047-.551 1.758-.551c.758 0 1.369.188 1.834.563a1.78 1.78 0 0 1 .703 1.459h-1.424a.87.87 0 0 0-.305-.68c-.203-.184-.473-.275-.809-.275-.312 0-.568.072-.768.217s-.293.338-.293.58c0 .219.092.389.275.51s.555.244 1.113.369.996.268 1.313.44.557.371.709.609a1.58 1.58 0 0 1 .234.867c0 .57-.236 1.033-.709 1.389s-1.092.527-1.857.527c-.52 0-.982-.094-1.389-.281s-.723-.445-.949-.774a1.83 1.83 0 0 1-.34-1.06h1.383c.02.336.146.596.381.779s.545.27.932.27c.375 0 .66-.07.855-.211a.67.67 0 0 0 .293-.562zm6.287 1.84c-.902 0-1.635-.283-2.197-.85s-.838-1.328-.838-2.273v-.176c0-.633.121-1.197.363-1.693a2.8 2.8 0 0 1 1.031-1.166 2.72 2.72 0 0 1 1.477-.416c.863 0 1.529.275 1.998.826s.709 1.33.709 2.338v.574H58.08c.043.523.217.938.521 1.242s.695.457 1.16.457c.652 0 1.184-.264 1.594-.791l.768.732a2.58 2.58 0 0 1-1.02.885c-.422.207-.896.311-1.424.311zm-.17-5.432c-.391 0-.707.137-.949.41s-.391.654-.457 1.142h2.713v-.105c-.031-.477-.158-.836-.381-1.078s-.531-.369-.926-.369z"/></g></g><defs><clipPath id="A"><path fill="#fff" d="M0 0h64v64H0z"/></clipPath><path id="B" d="M31.488 56.709a3.52 3.52 0 0 0-.58-.047c-.652 0-1.092.25-1.318.75v4.336h-1.424v-6.34h1.359l.035.709c.344-.551.82-.826 1.43-.826.203 0 .371.027.504.082l-.006 1.336z"/></defs></svg>