<svg xmlns="http://www.w3.org/2000/svg" width="64" height="64" fill="none" xmlns:v="https://vecta.io/nano"><g fill="#7272e9"><path d="M60.234 14.361v36.348l-28.53 12.118V46.8l16.024-6.644V19.443l12.507-5.082z"/><path d="M31.704 1.857l28.531 12.504-12.507 5.082-16.024-7.033-16.023 7.033-12.118-5.082L31.704 1.857z"/><path d="M31.704 46.8v16.026L3.563 50.709V14.361l12.118 5.082v20.713L31.704 46.8z"/></g><path d="M62.189 14.364v-.392-.392l-.392-.389L32.485.292a1.19 1.19 0 0 0-1.562 0L2.392 12.41 2 12.799v.392.389 36.348a2.15 2.15 0 0 0 1.17 1.954L31.309 64h2.34l28.138-12.118c.359-.183.659-.463.866-.809s.312-.743.304-1.145l-.781-35.564h.012zM31.704 4.201l23.06 10.164-7.036 3.125-15.242-6.644a1.19 1.19 0 0 0-1.562 0L15.681 17.1h-.392l-6.644-2.735 23.06-10.164zM29.75 59.699L5.517 49.135V17.1l8.209 3.511v19.163c-.008.403.098.8.305 1.145a2.15 2.15 0 0 0 .866.809l14.853 6.237v11.735zm1.954-14.85l-14.069-5.851v-17.99l14.069-6.255 14.069 6.255v17.978l-14.069 5.863zm26.187 4.286L33.658 59.688V48.366l14.85-6.252a2.14 2.14 0 0 0 1.17-1.954V20.616l8.209-3.511.003 32.03z" fill="#4949a3"/><g fill="#fff"><path d="M47.727 40.156V19.443L31.704 12.41v20.713l16.024 7.033z"/><path d="M47.728 40.156l-16.023-7.033-16.023 7.033L31.704 46.8l16.023-6.644z"/><path d="M31.704 33.123V12.41l-16.023 7.033v20.713l16.023-7.033z"/></g><path d="M48.509 17.489l-16.023-6.644h-2.34l-15.242 6.644c-.784.392-1.565 1.17-1.565 1.954v20.713c0 .784.392 1.565 1.565 1.954l16.021 7.024a1.17 1.17 0 0 0 1.562 0l16.023-7.022c.784-.389 1.565-1.17 1.565-1.954V19.446c0-.784-.781-1.565-1.565-1.957zm-30.862 3.519l12.115-5.082v16.416l-12.115 5.09V21.008zm14.069 23.841l-10.945-4.681 10.945-4.681 10.945 4.681-10.945 4.681zm14.069-7.817L33.67 31.95V15.535l12.115 5.082v16.415z" fill="#4949a3"/></svg>