<svg xmlns="http://www.w3.org/2000/svg" width="143" height="30" fill="none" xmlns:v="https://vecta.io/nano"><g fill="#7272e9"><path d="M27.027 6.665v16.869l-13.241 5.624V21.72l7.437-3.084V9.024l5.805-2.358z"/><path d="M13.786.862l13.241 5.803-5.805 2.358-7.437-3.264-7.437 3.264L.725 6.665 13.786.862z"/><path d="M13.786 21.72v7.438L.725 23.534V6.665l5.624 2.358v9.613l7.437 3.084z"/></g><path d="M27.934 6.666v-.182-.182l-.182-.181L14.148.136A.55.55 0 0 0 13.786 0a.55.55 0 0 0-.363.136L.182 5.759 0 5.94v.182.181 16.869a1 1 0 0 0 .544.907l13.059 5.624h1.086l13.059-5.624a1 1 0 0 0 .402-.375c.096-.16.145-.345.141-.532l-.363-16.505h.006zM13.786 1.95l10.702 4.717-3.265 1.45-7.074-3.084c-.101-.087-.229-.136-.363-.136a.55.55 0 0 0-.363.136L6.349 7.936h-.182l-3.084-1.27L13.786 1.95zm-.907 25.757L1.632 22.804V7.936l3.81 1.629v8.893c-.004.187.045.371.141.532a.99.99 0 0 0 .402.375l6.894 2.895v5.446zm.907-6.892l-6.53-2.716V9.75l6.53-2.903 6.53 2.903v8.344l-6.53 2.721zm12.154 1.989l-11.246 4.898v-5.255l6.892-2.901c.167-.085.306-.215.402-.375s.145-.345.141-.532v-9.07l3.81-1.629.001 14.865z" fill="#4949a3"/><g fill="#fff"><path d="M21.223 18.637V9.024L13.786 5.76v9.613l7.437 3.264z"/><path d="M21.222 18.637l-7.437-3.264-7.437 3.264 7.437 3.084 7.437-3.084z"/><path d="M13.786 15.373V5.76L6.349 9.024v9.613l7.437-3.264z"/></g><path d="M21.585 8.117l-7.437-3.084h-1.086L5.988 8.117c-.364.182-.726.543-.726.907v9.613c0 .364.182.726.726.907l7.435 3.26c.1.089.229.139.363.139s.263-.049.363-.139l7.437-3.259c.364-.181.726-.543.726-.907V9.025c0-.364-.363-.726-.726-.908zM7.261 9.75l5.623-2.358v7.619l-5.623 2.362V9.75zm6.53 11.065l-5.079-2.172 5.079-2.172 5.079 2.172-5.079 2.172zm6.53-3.628l-5.623-2.358V7.21l5.623 2.358v7.619z" fill="#4949a3"/><path d="M142.592 3.912v22.661l-.03.232a2.79 2.79 0 0 1-.96 1.805 2.83 2.83 0 0 1-1.929.712h-13.799a2.77 2.77 0 0 1-1.677-.592c-.358-.267-.647-.616-.843-1.017a2.8 2.8 0 0 1-.283-1.291V9.47 4.039a2.77 2.77 0 0 1 .437-1.534 2.83 2.83 0 0 1 1.071-1.018 2.82 2.82 0 0 1 1.437-.339h13.622a3.55 3.55 0 0 1 .588.049 2.89 2.89 0 0 1 1.532.811 2.88 2.88 0 0 1 .789 1.543l.045.361zm-17.564 11.324v11.122a1.09 1.09 0 0 0 .011.206.89.89 0 0 0 .316.544.9.9 0 0 0 .595.205h13.732c.126.004.252-.019.369-.066a.92.92 0 0 0 .512-.524.93.93 0 0 0 .058-.37v-7.196V4.152c.002-.106-.01-.212-.036-.315a.89.89 0 0 0-.332-.488c-.164-.12-.363-.181-.565-.173h-12.899c-.293 0-.587-.008-.88 0-.12.004-.238.03-.349.077a.88.88 0 0 0-.402.343c-.095.153-.141.331-.132.511l.002 11.128zm14.186-1.049h-12.709v-.075-5.628c-.013-.724.19-1.436.581-2.045a2.72 2.72 0 0 1 .817-.818 2.71 2.71 0 0 1 1.084-.404 3.73 3.73 0 0 1 1.863.172c.848.304 1.377.911 1.629 1.765l.041.149a.27.27 0 0 0 .045.065.21.21 0 0 0 .039-.065c.047-.312.135-.617.262-.906a2.82 2.82 0 0 1 2.112-1.684 3.59 3.59 0 0 1 2.088.166c.814.323 1.358.925 1.711 1.716a4.76 4.76 0 0 1 .384 1.502l.054 1.173v4.815l-.001.101zm-2.026-3.028v-.083-1.358a2.67 2.67 0 0 0-.057-.535 1.52 1.52 0 0 0-.328-.719c-.17-.207-.392-.365-.643-.459a2.01 2.01 0 0 0-1.049-.076 1.24 1.24 0 0 0-.649.272 1.25 1.25 0 0 0-.398.581c-.094.278-.14.57-.136.864v1.442a.5.5 0 0 0 .007.067l3.253.004zm-8.72 0h3.072v-.065-1.116a2.83 2.83 0 0 0-.059-.527 1.33 1.33 0 0 0-.268-.617c-.14-.18-.324-.32-.534-.409a1.89 1.89 0 0 0-.898-.136 1.29 1.29 0 0 0-1.128.752 1.98 1.98 0 0 0-.187.866v1.183l.002.066v.003zm10.746 14.284h-12.713v-.08-4.991a4.87 4.87 0 0 1 .479-2.172 4.05 4.05 0 0 1 1.847-1.829c.591-.294 1.222-.498 1.874-.607a12.36 12.36 0 0 1 2.726-.156 9.59 9.59 0 0 1 2.615.425 5.08 5.08 0 0 1 1.594.815 3.94 3.94 0 0 1 1.419 2.24 5.83 5.83 0 0 1 .157 1.405v4.858l.002.092zm-10.727-3.052h8.655c.038 0 .051-.016.05-.053l-.03-1.462a1.94 1.94 0 0 0-.202-.742 1.93 1.93 0 0 0-.477-.604 3.12 3.12 0 0 0-1.222-.636 7.64 7.64 0 0 0-1.819-.271 10.85 10.85 0 0 0-2.409.115 4.26 4.26 0 0 0-1.374.455 2.16 2.16 0 0 0-1.164 1.889l-.013 1.242c0 .016.004.038.005.073v-.005z" fill="#7272e9"/><path d="M66.869 23.263a1.16 1.16 0 0 1-.319.815c-.098.111-.218.2-.353.261a1.02 1.02 0 0 1-.43.088h-3.191a1.02 1.02 0 0 1-.783-.349c-.209-.219-.324-.512-.319-.815V1.101h-3.005l-4.773 6.778v14.456c0 .091.015.167.016.258l3.238 4.616 1.781 2.546a10.28 10.28 0 0 0 2.163.244h1.222c2.437 0 4.255-.679 5.454-2.037v1.451h7.078V1.101h-7.78v22.162zm53.45-5.252V8.844c0-5.106-2.399-7.659-7.196-7.659h-6.554c-4.798 0-7.197 2.553-7.197 7.659v13.491c0 5.105 2.399 7.658 7.197 7.658h6.555c4.797 0 7.196-2.553 7.196-7.658V20.13h-7.776v3.132a1.16 1.16 0 0 1-.319.815 1.02 1.02 0 0 1-.353.261 1.03 1.03 0 0 1-.43.088h-3.191a1.02 1.02 0 0 1-.784-.349 1.16 1.16 0 0 1-.319-.815V18.01h13.171zM107.148 7.683c-.004-.303.111-.595.319-.815a1.03 1.03 0 0 1 .354-.261 1.02 1.02 0 0 1 .43-.088h3.191a1.03 1.03 0 0 1 .43.088 1.02 1.02 0 0 1 .353.261 1.17 1.17 0 0 1 .319.815v5.222h-5.396V7.683z" fill="#4949a3"/><path d="M51.57 10.058l.001.024-.017-.008.016-.016z" fill="#fff"/><path d="M50.268 10.075l.861-1.026 4.853-6.893.693-1.043h-.517c-2.606 0-5.214.058-7.818-.026-1.166-.037-1.872.261-2.562 1.297-2.398 3.597-4.957 7.085-7.442 10.623-1.16 1.651-1.134 2.874.039 4.526l.783 1.113 4.771 6.684c.835 1.184 1.639 2.39 2.444 3.595a.9.9 0 0 0 .854.454l8.921-.009h.504c-.103-.19-.157-.316-.235-.428l-1.966-2.808-6.246-8.912c-.65-.936-.937-1.991-.437-3.069.367-.794.891-1.517 1.358-2.265l1.166-1.83-.023.016zm-20.072 5.173l-.011 13.479c0 .489.102.663.627.656h6.819c.486 0 .577-.163.573-.603l-.023-7.5c-.019-.322-.123-.633-.303-.901-.439-.693-.941-1.344-1.396-2.027-1.24-1.864-1.428-3.802-.272-5.762.468-.794 1.017-1.544 1.56-2.291a2.14 2.14 0 0 0 .432-1.358v-7.24c0-.453-.109-.607-.58-.602h-6.817c-.475 0-.623.117-.622.614l.012 13.534z" fill="#7272e9"/><path d="M90.459 7.223h-1.222c-1.934 0-3.518.464-4.752 1.393V1.245h-7.776v28.167h6.555v-2.088C84.463 29.108 86.455 30 89.239 30h1.222c4.797 0 7.196-2.553 7.196-7.659v-7.458c-.004-5.106-2.403-7.659-7.199-7.659zm-1.252 16.039c.004.303-.111.595-.319.815-.098.111-.218.2-.353.261a1.02 1.02 0 0 1-.43.088h-3.191a1.02 1.02 0 0 1-.783-.349 1.16 1.16 0 0 1-.319-.815v-9.309a1.16 1.16 0 0 1 .319-.815 1.02 1.02 0 0 1 .353-.261c.135-.06.282-.09.43-.088h3.191a1.02 1.02 0 0 1 .784.349 1.17 1.17 0 0 1 .319.815v9.309z" fill="#4949a3"/></svg>