<svg xmlns="http://www.w3.org/2000/svg" viewBox="0 0 1279 639" xmlns:v="https://vecta.io/nano"><g fill="#7272e9"><path d="M311.57 258.14v124.24l-97.52 41.42v-54.78l54.77-22.71v-70.8h0l42.75-17.37z"/><path d="M214.05 215.4l97.52 42.74-42.75 17.37h0l-54.77-24.04-54.77 24.04-41.42-17.37 96.19-42.74z"/><path d="M214.05 369.02v54.78l-96.19-41.42V258.14l41.42 17.37h0v70.8l54.77 22.71z"/></g><path d="M318.25 258.15h0v-1.34h0v-1.34h0l-1.34-1.33h0l-100.19-44.09a4.07 4.07 0 0 0-5.34 0l-97.52 41.42h0l-1.34 1.33h0v1.34h0v1.33h0v124.24a7.35 7.35 0 0 0 4 6.68l96.18 41.42h8l96.18-41.42a7.33 7.33 0 0 0 4-6.68l-2.67-121.56zm-104.2-34.74l78.82 34.74-24.05 10.68-52.1-22.71a4.07 4.07 0 0 0-5.34 0l-52.1 21.38h-1.34l-22.71-9.35zm-6.68 189.7L124.54 377V267.5l28.06 12V345a7.34 7.34 0 0 0 4 6.68L207.37 373zm6.68-50.76l-48.09-20v-61.49l48.09-21.38 48.09 21.38v61.45zM303.56 377l-82.83 36.07v-38.7L271.49 353a7.32 7.32 0 0 0 4-6.68v-66.8l28.06-12z" fill="#4949a3"/><g fill="#fff"><path d="M268.82 346.31v-70.8l-54.77-24.04v70.8l54.77 24.04z"/><path d="M268.82 346.31l-54.77-24.04-54.77 24.04 54.77 22.71 54.77-22.71z"/><path d="M214.05 322.27v-70.8l-54.77 24.04v70.8h0l54.77-24.04z"/></g><path d="M271.49 268.83l-54.77-22.71h-8l-52.1 22.71c-2.68 1.34-5.35 4-5.35 6.68v70.8c0 2.68 1.34 5.35 5.35 6.68h0L211.38 377a4 4 0 0 0 5.34 0l54.77-24h0c2.68-1.33 5.35-4 5.35-6.68v-70.8c0-2.68-2.67-5.35-5.35-6.69zM166 280.86l41.41-17.37v56.11L166 337zm48.09 81.49l-37.41-16 37.41-16h0l37.41 16zm48.09-26.72l-41.41-17.37v-56.11l41.41 17.37z" fill="#4949a3"/><path d="M1162.7 237.86v166.9l-.22 1.71a20.58 20.58 0 0 1-7.07 13.29 20.86 20.86 0 0 1-14.21 5.24h-101.63a20.38 20.38 0 0 1-12.35-4.36 20.63 20.63 0 0 1-8.29-17q0-62.43 0-124.84v-40a20.33 20.33 0 0 1 3.22-11.3 20.81 20.81 0 0 1 18.47-10q50.16 0 100.32 0a26.09 26.09 0 0 1 4.33.36 21.22 21.22 0 0 1 17.1 17.34l.33 2.66zm-129.36 83.4q0 41 0 81.91a8.51 8.51 0 0 0 .08 1.52 6.64 6.64 0 0 0 6.71 5.52h101.14a6.73 6.73 0 0 0 6.91-7.07q0-26.52 0-53 0-55.26 0-110.51a9 9 0 0 0-.26-2.32 6.57 6.57 0 0 0-6.61-4.87h-95c-2.16 0-4.32-.06-6.48 0a7.07 7.07 0 0 0-2.57.57 6.45 6.45 0 0 0-3.93 6.29q.03 40.98.01 81.96zm104.48-7.72h-93.6v-.55-41.45a27 27 0 0 1 4.28-15.06 20 20 0 0 1 14-9 27.48 27.48 0 0 1 13.72 1.27c6.25 2.24 10.14 6.71 12 13 .11.36.17.74.3 1.1a2.06 2.06 0 0 0 .33.48 1.62 1.62 0 0 0 .29-.48 26.29 26.29 0 0 1 1.93-6.67 20.77 20.77 0 0 1 15.55-12.4A26.49 26.49 0 0 1 1122 245c6 2.38 10 6.81 12.6 12.64a34.88 34.88 0 0 1 2.83 11.06c.25 2.87.39 5.76.4 8.64v35.46zm-14.92-22.3v-.61-10a19.24 19.24 0 0 0-.42-3.94 11.24 11.24 0 0 0-7.15-8.67 14.83 14.83 0 0 0-7.73-.56 9.17 9.17 0 0 0-7.71 6.28 19.16 19.16 0 0 0-1 6.36v10.62a4.28 4.28 0 0 0 .05.49zm-64.22 0h22.62v-.48-8.22a21 21 0 0 0-.43-3.88 9.86 9.86 0 0 0-5.91-7.56 13.87 13.87 0 0 0-6.61-1 9.52 9.52 0 0 0-8.31 5.54 14.67 14.67 0 0 0-1.38 6.38v8.71c0 .16.01.27.02.49zm79.14 105.2h-93.63v-.59-36.76a35.91 35.91 0 0 1 3.53-16 29.77 29.77 0 0 1 13.6-13.47 49.34 49.34 0 0 1 13.8-4.47 91.09 91.09 0 0 1 20.08-1.15 70.77 70.77 0 0 1 19.26 3.13 37.49 37.49 0 0 1 11.74 6 29 29 0 0 1 10.45 16.5 43.46 43.46 0 0 1 1.16 10.35q0 17.89 0 35.78zm-79-22.48h63.74c.28 0 .38-.12.37-.39-.06-3.59 0-7.19-.22-10.77a14.22 14.22 0 0 0-5-9.92 23 23 0 0 0-9-4.68 56.3 56.3 0 0 0-13.4-2 79.79 79.79 0 0 0-17.74.85 31.5 31.5 0 0 0-10.12 3.35 15.9 15.9 0 0 0-8.57 13.91c-.15 3.05-.07 6.1-.1 9.15 0 .12.03.28.04.54z" fill="#7272e9"/><path d="M605 380.38a8.56 8.56 0 0 1-2.35 6 7.53 7.53 0 0 1-5.77 2.57h-23.5a7.52 7.52 0 0 1-5.77-2.57 8.52 8.52 0 0 1-2.35-6V217.16h-22.13q-17.53 25-35.15 49.92v106.47c0 .67.11 1.23.12 1.9q11.94 17 23.85 34 6.57 9.36 13.12 18.75A75.67 75.67 0 0 0 561 430h9q26.92 0 40.17-15v10.69h52.13V217.16H605zm393.66-38.68v-67.51q0-56.41-53-56.41h-48.27q-53 0-53 56.41v99.36q0 56.4 53 56.4h48.28q53 0 53-56.4v-16.24H941.4v23.07a8.56 8.56 0 0 1-2.35 6 7.53 7.53 0 0 1-5.77 2.57h-23.5a7.53 7.53 0 0 1-5.77-2.57 8.52 8.52 0 0 1-2.35-6V341.7zm-97-76.06a8.55 8.55 0 0 1 2.35-6 7.53 7.53 0 0 1 5.77-2.57h23.5a7.53 7.53 0 0 1 5.77 2.57 8.6 8.6 0 0 1 2.35 6v38.46h-39.74z" fill="#4949a3"/><path d="M492.33 283.13l.01.18-.13-.06.12-.12z" fill="#fff"/><path d="M482.74 283.25l6.34-7.56q18-25.32 35.74-50.77l5.1-7.68h-3.81c-19.19 0-38.4.43-57.58-.19-8.59-.27-13.79 1.92-18.87 9.55-17.66 26.49-36.51 52.18-54.81 78.24-8.54 12.16-8.35 21.17.29 33.33l5.77 8.2 35.14 49.23c6.15 8.72 12.07 17.6 18 26.48a6.65 6.65 0 0 0 6.29 3.35l65.7-.07h3.71c-.76-1.4-1.16-2.33-1.73-3.15q-7.21-10.35-14.48-20.68l-46-65.64c-4.79-6.89-6.9-14.66-3.22-22.6 2.7-5.85 6.56-11.17 10-16.68l8.59-13.48zm-147.83 38.1h0l-.08 99.27c0 3.6.75 4.88 4.62 4.83q25.11-.33 50.22 0c3.58 0 4.25-1.2 4.22-4.44l-.17-55.24a13.36 13.36 0 0 0-2.23-6.64c-3.23-5.1-6.93-9.9-10.28-14.93-9.13-13.73-10.52-28-2-42.44 3.45-5.85 7.49-11.37 11.49-16.87a15.79 15.79 0 0 0 3.18-10q-.24-26.65 0-53.31c0-3.34-.8-4.47-4.27-4.43q-25.11.24-50.21 0c-3.5 0-4.59.86-4.58 4.52l.09 99.68z" fill="#7272e9"/><path d="M778.74 262.25h-9q-21.36 0-35 10.26v-54.29h-57.27v207.45h48.28v-15.38Q739 430 769.76 430h9q53 0 53-56.41v-54.93q-.04-56.41-53.02-56.41zm-9.22 118.13a8.58 8.58 0 0 1-2.35 6 7.53 7.53 0 0 1-5.77 2.57h-23.5a7.52 7.52 0 0 1-5.77-2.57 8.54 8.54 0 0 1-2.35-6v-68.56a8.55 8.55 0 0 1 2.35-6 7.52 7.52 0 0 1 5.77-2.57h23.5a7.53 7.53 0 0 1 5.77 2.57 8.6 8.6 0 0 1 2.35 6z" fill="#4949a3"/></svg>