<svg width="64" height="64" viewBox="0 0 64 64" fill="none" xmlns="http://www.w3.org/2000/svg">
<g clip-path="url(#clip0_787_3289)">
<mask id="mask0_787_3289" style="mask-type:luminance" maskUnits="userSpaceOnUse" x="0" y="0" width="64" height="64">
<path d="M64 0H0V64H64V0Z" fill="white"/>
</mask>
<g mask="url(#mask0_787_3289)">
<path d="M61.0931 28.1375C60.9602 26.9093 60.7388 25.6924 60.4306 24.4961C60.0382 22.97 59.4833 21.4903 58.7755 20.0824C57.9436 18.3804 56.9061 16.7869 55.6862 15.3375C55.1345 14.675 54.5827 14.1237 54.0311 13.572C54.9139 10.041 52.9276 6.95125 52.9276 6.95125C49.5069 6.7305 47.3 8.05475 46.5276 8.60637C46.4172 8.496 46.3069 8.496 46.0862 8.38562C45.5345 8.16487 44.9827 7.94425 44.3207 7.72312C43.6587 7.502 43.107 7.39212 42.4449 7.17137C41.7824 7.061 41.1207 6.84037 40.4586 6.84037H40.1276C38.6931 1.98625 34.3896 0 34.3896 0C29.6447 3.08962 28.6521 7.28275 28.6521 7.28275V7.5035C28.4314 7.61387 28.1004 7.61387 27.8797 7.72425C27.5487 7.83462 27.1074 7.945 26.7762 8.05525C26.4451 8.1655 26.0039 8.38625 25.6727 8.49662C24.9406 8.79762 24.2386 9.16705 23.5759 9.6C22.8898 9.96403 22.2265 10.3694 21.5896 10.8138C21.5059 10.8022 21.4284 10.7634 21.3689 10.7034C14.7481 8.16587 8.78962 11.2551 8.78962 11.2551C8.2375 18.3173 11.4375 22.731 12.1 23.6138C11.9896 24.0551 11.769 24.4965 11.6586 24.9379C11.2172 26.4828 10.7759 28.1379 10.5551 29.9034C10.5551 30.1241 10.4447 30.3448 10.4447 30.6758C4.2655 33.6551 2.5 39.9449 2.5 39.9449C7.57587 45.7931 13.5345 46.2345 13.5345 46.2345C14.3151 47.5891 15.2005 48.8806 16.1827 50.097C16.5962 50.6002 17.0383 51.0791 17.5069 51.5315C15.631 56.828 17.7276 61.3522 17.7276 61.3522C21.3984 61.5042 25.0134 60.4159 27.9901 58.2626C28.5419 58.4834 29.0936 58.5936 29.7556 58.8144C31.4938 59.2334 33.2667 59.4919 35.0521 59.5868H37.3694C40.0172 63.4483 44.7625 64 44.7625 64C48.5142 60.0276 48.2935 56.0551 48.2935 56.0551L48.1831 55.9448C48.9555 55.393 49.6176 54.8412 50.2796 54.2896C51.6024 53.0619 52.7865 51.6928 53.8106 50.2069C53.9269 50.0853 54.0038 49.9315 54.0312 49.7655C57.783 49.9862 60.5416 47.4482 60.5416 47.4482C59.8791 43.0345 57.121 41.1586 57.121 41.1586H57.0106C57.0106 40.9379 57.0106 40.6069 57.121 40.3862V36.5238C57.0106 36.0824 57.0106 35.641 56.9002 35.1996C56.0637 31.8796 54.2584 28.8836 51.714 26.5928C50.4943 25.5093 49.1178 24.6165 47.6312 23.9445C46.2081 23.272 44.6757 22.8609 43.1071 22.7307C42.375 22.6416 41.6376 22.6048 40.9002 22.6204H39.5759C39.2449 22.6204 38.8035 22.7307 38.4724 22.7307C36.9275 23.0617 35.493 23.5031 34.2792 24.2756C33.0655 25.0481 31.962 25.9308 31.0792 27.0343C30.2383 28.081 29.5338 29.2304 28.9827 30.4549C28.5414 31.6686 28.2104 32.8825 28.2104 34.0962V35.8625C28.3207 36.525 28.431 37.0762 28.5414 37.628C28.876 38.7386 29.3985 39.7836 30.0862 40.7176C30.717 41.589 31.5024 42.337 32.4035 42.9245C33.2862 43.4762 34.169 43.9176 35.0517 44.1382C35.8813 44.3497 36.7332 44.4609 37.5892 44.4692H39.0237C39.0837 44.4767 39.1445 44.4706 39.2017 44.4515C39.259 44.4324 39.3113 44.4008 39.3547 44.3589C39.5755 44.3589 39.6857 44.2485 39.9065 44.2485C40.2564 44.1482 40.5907 43.9997 40.8996 43.8071C41.2306 43.6968 41.4514 43.4761 41.7824 43.2554L42.0031 43.0348C42.0739 42.9884 42.1338 42.9272 42.1786 42.8554C42.2234 42.7836 42.2521 42.7029 42.2626 42.6189C42.2731 42.5349 42.2652 42.4497 42.2394 42.369C42.2137 42.2884 42.1707 42.2144 42.1135 42.152C41.8927 41.9313 41.5617 41.821 41.3411 42.0416C41.1204 41.8209 41.1204 41.9313 41.0101 41.9313C40.7616 42.0617 40.5033 42.1724 40.2375 42.2625C40.0167 42.3729 39.6857 42.3729 39.3547 42.4832H37.5896C36.9467 42.3656 36.318 42.1807 35.7137 41.9315C35.0603 41.6306 34.4632 41.2201 33.9482 40.7178C33.3965 40.2764 32.9551 39.6143 32.5137 38.9523C32.1827 38.2898 31.8512 37.5178 31.7414 36.7454C31.631 36.4144 31.631 35.973 31.631 35.5316V35.2V34.9793C31.6135 34.7527 31.6514 34.5254 31.7414 34.3167C32.0749 32.566 32.9196 30.9533 34.169 29.6822C34.5 29.3512 34.8315 29.1305 35.2725 28.7995C35.6641 28.5556 36.0693 28.3344 36.4862 28.137C36.9097 27.9407 37.3538 27.7926 37.8104 27.6956C38.2412 27.5686 38.6858 27.4945 39.1345 27.4749H40.4586C41.0104 27.4749 41.4517 27.5853 42.0035 27.6956C42.9966 27.9164 43.9897 28.2474 44.8725 28.7991C46.6966 29.8324 48.1892 31.3632 49.176 33.2129C49.6174 34.0956 49.9484 35.1991 50.1691 36.1922C50.1691 36.413 50.2795 36.744 50.2795 36.9646V38.7301C50.2973 39.0287 50.2599 39.3279 50.1691 39.6129C50.1691 39.9439 50.0587 40.1646 50.0587 40.4956C49.9484 40.606 49.9484 40.8266 49.838 41.1581C49.7041 41.7253 49.5195 42.2792 49.2862 42.8133C48.8682 43.8749 48.3116 44.8766 47.6311 45.7925C46.296 47.6877 44.463 49.177 42.3346 50.096C41.2639 50.5276 40.1558 50.86 39.0242 51.0891C38.4725 51.1995 37.9207 51.1995 37.2587 51.3099H35.3827C34.1519 51.1963 32.9334 50.9746 31.7414 50.6474C30.5597 50.3217 29.4137 49.8781 28.3206 49.3232C26.1137 48.2197 24.2379 46.5646 22.693 44.6888C21.9294 43.7278 21.264 42.6927 20.7067 41.5991C20.171 40.5358 19.728 39.4282 19.3826 38.2887C19.0297 37.1445 18.8438 35.9552 18.8309 34.7578V34.4268V34.0957V33.544V32.9922C18.8309 32.4405 18.9412 31.7785 18.9412 31.2267C19.0516 30.675 19.162 30.013 19.2722 29.4613C19.3825 28.9095 19.493 28.2475 19.7136 27.6957C20.0446 26.482 20.486 25.3785 20.9274 24.275C21.8619 22.1798 23.1709 20.2728 24.7899 18.6474C25.2312 18.3164 25.5622 17.875 26.0036 17.5439L27.3277 16.5508C27.7682 16.2287 28.2509 15.9688 28.7622 15.7784C29.0107 15.6481 29.2689 15.5374 29.5346 15.4474C29.645 15.4474 29.7554 15.337 29.8656 15.337C29.9091 15.2951 29.9614 15.2635 30.0186 15.2444C30.0759 15.2253 30.1367 15.2192 30.1966 15.2266C30.6857 14.977 31.2049 14.7916 31.7415 14.6749C31.8519 14.6749 31.9622 14.5645 32.1829 14.5645C32.2932 14.5645 32.4036 14.4541 32.6242 14.4541C32.845 14.3438 33.176 14.3437 33.3966 14.2334C33.507 14.2334 33.6174 14.123 33.838 14.123C33.9484 14.123 34.0587 14.0126 34.2794 14.0126C34.4339 14.0174 34.5867 13.9792 34.7207 13.9023H35.1625C35.317 13.9071 35.4698 13.8689 35.6039 13.7919C35.7142 13.7919 35.9349 13.7919 36.0452 13.6815H40.0176C41.0199 13.6825 42.019 13.7935 42.997 14.0125C44.9832 14.3435 46.7487 15.0056 48.4039 15.778C50.0084 16.5118 51.4957 17.4785 52.8176 18.647L53.0384 18.8678L53.2591 19.0885L53.7005 19.5299L54.1419 19.9713L54.5832 20.4126C55.1291 20.9734 55.6448 21.5627 56.1281 22.1781C57.0109 23.3919 57.7832 24.4954 58.335 25.7091C58.335 25.8195 58.4454 25.8195 58.4454 25.9299C58.4454 26.0402 58.5557 26.0403 58.5557 26.1506C58.6661 26.261 58.6661 26.4816 58.7765 26.592C58.8869 26.7024 58.8869 26.8127 58.9972 27.0334C59.1076 27.1437 59.1076 27.254 59.218 27.4748C59.4387 28.0265 59.6594 28.4679 59.7697 29.0196C59.9904 29.792 60.2111 30.4541 60.4322 31.1161C60.5426 31.3369 60.7632 31.5575 60.984 31.4471C61.0985 31.4393 61.2062 31.3902 61.2874 31.3091C61.3685 31.228 61.4175 31.1202 61.4254 31.0058C61.2035 29.7931 61.2035 29.0206 61.0931 28.1375Z" fill="url(#paint0_linear_787_3289)"/>
</g>
</g>
<defs>
<linearGradient id="paint0_linear_787_3289" x1="31.8448" y1="77.056" x2="31.8448" y2="18.56" gradientUnits="userSpaceOnUse">
<stop stop-color="#FFF100"/>
<stop offset="1" stop-color="#F05A28"/>
</linearGradient>
<clipPath id="clip0_787_3289">
<rect width="64" height="64" fill="white"/>
</clipPath>
</defs>
</svg>
