<?xml version="1.0" encoding="utf-8"?>
<!-- Generator: Adobe Illustrator 19.0.0, SVG Export Plug-In . SVG Version: 6.00 Build 0)  -->
<svg version="1.1" id="Layer_1" xmlns="http://www.w3.org/2000/svg" xmlns:xlink="http://www.w3.org/1999/xlink" x="0px" y="0px"
	 viewBox="-90 17 8 8" style="enable-background:new -90 17 8 8;" xml:space="preserve">
<style type="text/css">
	.st0{fill:#4277BB;}
</style>
<g id="XMLID_41_">
	<path id="XMLID_116_" class="st0" d="M-85,23.7c0-0.2,0-0.4,0-0.6c0-0.1-0.1-0.3-0.2-0.4c0,0,0-0.1,0-0.1c0.3,0,0.5-0.1,0.8-0.2
		c0.4-0.2,0.7-0.6,0.8-1.1c0.1-0.3,0.1-0.6,0-0.8c0-0.2-0.1-0.4-0.3-0.6c0-0.1-0.1-0.1,0-0.2c0.1-0.3,0.1-0.5,0-0.8
		c0-0.1-0.1-0.1-0.1-0.1c-0.2,0-0.3,0.1-0.5,0.1c-0.1,0.1-0.3,0.1-0.4,0.2c0,0-0.1,0-0.1,0c-0.6-0.1-1.1-0.1-1.7,0
		c-0.1,0-0.1,0-0.2,0c-0.2-0.1-0.4-0.3-0.7-0.3c-0.2,0-0.2,0-0.3,0.2c-0.1,0.2-0.1,0.5,0,0.7c0,0,0,0.1,0,0.1
		c-0.3,0.4-0.4,0.9-0.3,1.4c0,0.3,0.1,0.6,0.3,0.8c0.2,0.2,0.5,0.4,0.8,0.5c0.1,0,0.3,0.1,0.4,0.1c0.1,0,0.1,0,0,0.1
		c-0.1,0.1-0.1,0.2-0.1,0.3c0,0.1,0,0.1-0.1,0.1c-0.4,0.1-0.8,0.1-1-0.3c-0.1-0.2-0.2-0.3-0.4-0.4c-0.1,0-0.1,0-0.2,0
		c0,0-0.1,0-0.1,0c0,0,0,0.1,0,0.1c0,0,0,0,0,0c0.2,0.1,0.3,0.3,0.4,0.5c0.1,0.3,0.3,0.5,0.7,0.5c0.2,0,0.3,0,0.5,0
		c0.1,0,0.1,0,0.1,0.1c0,0.2,0,0.3,0,0.5c0,0.2-0.1,0.3-0.3,0.2c-0.4-0.2-0.8-0.4-1.2-0.7c-0.7-0.6-1.1-1.3-1.2-2.2
		c-0.1-0.8,0-1.6,0.4-2.3c0.6-1.1,1.6-1.8,2.8-2c1.1-0.1,2,0.2,2.9,0.9c0.8,0.7,1.2,1.5,1.3,2.5c0.1,1.1-0.3,2.1-1.1,2.9
		c-0.4,0.4-0.8,0.6-1.3,0.8c-0.2,0.1-0.3,0-0.3-0.2C-85,24-85,23.9-85,23.7z"/>
	<path id="XMLID_115_" class="st0" d="M-87.2,23.3C-87.2,23.3-87.3,23.3-87.2,23.3c-0.1-0.1,0-0.1,0-0.1
		C-87.2,23.2-87.1,23.2-87.2,23.3C-87.1,23.3-87.2,23.3-87.2,23.3z"/>
	<path id="XMLID_114_" class="st0" d="M-87.5,23.2C-87.5,23.2-87.4,23.2-87.5,23.2c0.1,0.1,0,0.1,0,0.1
		C-87.5,23.3-87.6,23.3-87.5,23.2C-87.6,23.2-87.5,23.2-87.5,23.2z"/>
	<path id="XMLID_113_" class="st0" d="M-87.8,23C-87.7,23-87.7,23.1-87.8,23c0.1,0.1,0.1,0.1,0,0.1C-87.8,23.2-87.8,23.1-87.8,23
		C-87.8,23-87.8,23-87.8,23z"/>
	<path id="XMLID_112_" class="st0" d="M-86.9,23.2C-86.9,23.2-86.8,23.2-86.9,23.2c0.1,0.1,0,0.1,0,0.1C-87,23.3-87,23.3-86.9,23.2
		C-87,23.2-86.9,23.2-86.9,23.2z"/>
	<path id="XMLID_111_" class="st0" d="M-87.9,22.9C-87.9,22.9-87.9,22.9-87.9,22.9c-0.1,0-0.1,0-0.1,0C-88,22.8-88,22.8-87.9,22.9
		C-87.9,22.8-87.9,22.9-87.9,22.9z"/>
	<path id="XMLID_110_" class="st0" d="M-88.2,22.5C-88.2,22.6-88.2,22.6-88.2,22.5c-0.1,0-0.1,0-0.1,0
		C-88.3,22.5-88.3,22.5-88.2,22.5C-88.2,22.5-88.2,22.5-88.2,22.5z"/>
</g>
</svg>
