<?xml version="1.0" encoding="utf-8"?>
<!-- Generator: Adobe Illustrator 19.0.0, SVG Export Plug-In . SVG Version: 6.00 Build 0)  -->
<svg version="1.1" id="Layer_1" xmlns="http://www.w3.org/2000/svg" xmlns:xlink="http://www.w3.org/1999/xlink" x="0px" y="0px"
	 viewBox="0 0 35 35" style="enable-background:new 0 0 35 35;" xml:space="preserve">
<style type="text/css">
	.st0{fill:#1187C9;}
	.st1{fill:#FFFFFF;}
</style>
<g id="XMLID_2_">
	<path id="XMLID_7_" class="st0" d="M17.5,32.5c8.3,0,15-6.7,15-15c0-8.3-6.7-15-15-15c-8.3,0-15,6.7-15,15
		C2.5,25.8,9.2,32.5,17.5,32.5"/>
	<path id="XMLID_3_" class="st1" d="M13.3,23.8h-2.9v-9.4h2.9V23.8z M11.8,13.2L11.8,13.2c-1.1,0-1.8-0.7-1.8-1.6
		c0-0.9,0.7-1.6,1.8-1.6c1.1,0,1.7,0.7,1.8,1.6C13.5,12.5,12.9,13.2,11.8,13.2z M25,23.8h-3.3v-4.8c0-1.3-0.5-2.1-1.7-2.1
		c-0.9,0-1.4,0.6-1.6,1.1c-0.1,0.2-0.1,0.5-0.1,0.8v5.1h-3.3c0,0,0-8.6,0-9.4h3.3v1.5c0.2-0.6,1.2-1.6,2.9-1.6
		c2.1,0,3.7,1.3,3.7,4.2V23.8z"/>
</g>
</svg>
