<?xml version="1.0" encoding="utf-8"?>
<!-- Generator: Adobe Illustrator 19.0.0, SVG Export Plug-In . SVG Version: 6.00 Build 0)  -->
<svg version="1.1" id="Layer_1" xmlns="http://www.w3.org/2000/svg" xmlns:xlink="http://www.w3.org/1999/xlink" x="0px" y="0px"
	 viewBox="0 0 190 40" style="enable-background:new 0 0 190 40;" xml:space="preserve">
<style type="text/css">
	.st0{fill:#183D4B;}
	.st1{fill:#FFFFFF;}
	.st2{fill:#03A550;}
</style>
<g>
	<path class="st0" d="M46.5,28.8c-0.2,0.6-0.6,0.8-1.2,0.8c-0.7,0-1.2-0.4-1.8-0.8c-0.1-0.1-0.3-0.2-0.2-0.4c0-0.3,0.2-0.5,0.3-0.8
		c0.1-0.3,0.2-0.6,0.3-0.9c0.2-0.6,0.5-1.2,0.7-1.7c0.3-0.7,0.6-1.4,0.9-2c0.4-0.8,0.7-1.6,1.1-2.3c0.4-0.9,0.8-1.7,1.3-2.6
		c0.1-0.1,0.1-0.2,0.2-0.3c0.9-1.8,1.7-3.6,2.6-5.4c0.6-1.4,1.2-2.8,1.7-4.2c0.3-0.9,0.7-1.8,0.6-2.8c-0.1-0.7-0.7-1.1-0.9-1.7
		c-0.4-1.1,2.1-1.1,2.7-1.2c0.9-0.1,1.8-0.2,2.8-0.3c0.7,0,1.4,0,2.2,0c0.6,0,1.3-0.1,1.8,0.3c0.6,0.4,0.6,1.4,0.7,2
		c0.2,1,0.3,2.1,0.3,3.2c0,0.6,0,1.2,0.1,1.8c0.1,1.9,0.1,3.8,0.1,5.7c0,1.3,0,2.6,0,3.9c0,3.1,0.3,5.3,0.8,6.6
		c0.2,0.5,0.4,0.7,0.6,0.7c0.4,0,0.8-0.1,1.2-0.3c0.3-0.1,0.5-0.3,0.7-0.5c0.2-0.1,0.4-0.3,0.6,0c0.1,0.2,0.2,0.4,0.3,0.6
		c0.1,0.2,0.3,0.3,0.2,0.6c0,0.2-0.3,0.3-0.4,0.5c-0.2,0.2-0.4,0.3-0.6,0.5c-0.4,0.3-0.9,0.6-1.3,0.9c-0.3,0.1-0.5,0.3-0.8,0.4
		c-1.2,0.5-2.3,0.8-3.3,0.8c-0.5,0-1.1-0.2-1.5-0.4c-0.5-0.2-0.9-0.5-1.2-0.9c-0.9-1.1-1.1-2.7-1.2-4.1c0-0.5,0-1,0-1.4
		c0-0.3,0-0.7,0.1-1c0.1-0.3,0.2-0.7,0-1c-0.1-0.3-0.4-0.3-0.7-0.4c-1.7-0.1-3.3,0-5,0.1c-0.6,0.1-1.5,0-1.9,0.6
		c-0.3,0.5-0.5,1.1-0.7,1.6c-0.3,0.7-0.5,1.3-0.8,2c-0.1,0.4-0.3,0.8-0.4,1.1c-0.2,0.4-0.3,0.9-0.5,1.4
		C46.8,27.8,46.7,28.3,46.5,28.8z M57,18.1l0-4.4c0-3.9-0.2-6.5-0.5-7.9c-0.2,0-0.4,0-0.5,0.1c-0.7,2-1.4,3.6-2,5
		c-0.6,1.4-1.3,2.8-2,4.4c-0.7,1.5-1.2,2.5-1.4,2.9H57z"/>
	<path class="st0" d="M68,13c0.2-0.1,0.3-0.1,0.5-0.1c0.3-0.1,0.6-0.1,0.9-0.2c0.8-0.1,1.7-0.2,2.5-0.2c0.6,0,1.1,0,1.7,0
		c0.2,0,0.4-0.1,0.5,0.1c0.1,0.1,0.1,0.3,0.2,0.5c0,0.2,0.1,0.3,0.1,0.5c0,0.2,0.1,0.4,0.1,0.6c0,0.1,0,0.2,0,0.3c0,0,0,0.3,0,0.3
		c2-1.6,3.6-2.4,4.9-2.4c1.3,0,2.4,0.5,3.2,1.6c0.8,1.1,1.2,2.7,1.2,4.8c0,3.7-0.7,6.4-2,8.2c-1.3,1.7-3.2,2.8-5.4,2.7
		c-0.7,0-1.5-0.1-2.1-0.3c-0.3-0.1-0.6-0.2-0.6-0.6c0-0.2,0.1-0.5,0.2-0.6c0.1-0.1,0.3-0.1,0.5-0.2c0.2-0.1,0.4-0.2,0.5-0.3
		c0.4-0.2,0.7-0.5,1-0.8c0.8-0.7,1.3-1.6,1.7-2.6c0.9-2,1.4-4.6,0.7-6.8c-0.2-0.6-0.6-1.3-1.2-1.6c-0.5-0.2-1.1,0-1.5,0.4
		c-1.2,1-1.4,2.7-1.6,4.1c-0.3,2.2-0.6,4.4-1.1,6.5c-0.3,1.4-0.6,2.9-0.8,4.3c-0.2,1.3-0.4,2.6-0.4,3.8c0,0.4,0,0.7,0,1.1
		c0,0.3,0,0.5-0.2,0.7c-0.3,0.2-0.6,0.2-0.9,0.3c-0.5,0.1-1,0.3-1.5,0.3c-0.3,0-0.6,0.1-0.9,0.1c-0.3,0-0.7,0.1-1,0.1
		c-0.2,0-0.5,0.1-0.7-0.1c0,0,0,0-0.1-0.1c-0.2-0.2-0.2-0.5-0.2-0.7c0-0.3,0-0.6,0-1c0-0.6,0.1-1.3,0.2-1.9c0.1-0.6,0.2-1.1,0.3-1.7
		c0.1-0.7,0.3-1.4,0.4-2.1c0.2-0.9,0.4-1.7,0.5-2.6c0-0.1,0-0.2,0.1-0.3c1-4.6,1.5-8.1,1.5-10.6c0-0.5-0.1-1-0.3-1.5
		c-0.1-0.4-0.3-0.7-0.5-1c-0.1-0.2-0.2-0.3-0.3-0.5c-0.1-0.1-0.2-0.3-0.2-0.5C67.7,13.2,67.8,13.1,68,13z"/>
	<path class="st0" d="M115.6,24.3c0,1.6-0.7,2.9-2.1,3.9c-0.5,0.4-1,0.6-1.6,0.8c-0.3,0.1-0.6,0.2-1,0.3c-0.7,0.2-1.4,0.3-2.2,0.4
		c-1.5,0.1-3.2-0.1-4.5-1c-1.1-0.8-1.5-2-0.8-3.2c0.6-1.1,1.9-1.9,3.1-1.7c1.3,0.2,2,1.5,2.4,2.7c0.1,0.3,0.2,0.5,0.3,0.8
		c0.1,0.4,0.4,0.6,0.8,0.5c0.4-0.1,0.8-0.4,0.9-0.8c0-0.1,0.1-0.3,0.1-0.5c0-1.2-1-2.8-3.1-5c-2.1-2.2-3.1-3.9-3.1-5.1
		c0-1.3,0.6-2.3,1.7-3c1.1-0.7,2.5-1.1,4.1-1.1c1.6,0,2.8,0.3,3.6,0.9c0.8,0.6,1.2,1.4,1.2,2.3c0,1-0.8,2.3-2.3,4.1
		c0.2,0.2,0.4,0.4,0.7,0.7c0.3,0.3,0.6,0.8,1.1,1.7S115.6,23.6,115.6,24.3z M113.6,15.6c0-0.9-0.6-1.3-1.8-1.3
		c-0.6,0-1.1,0.1-1.5,0.4c-0.4,0.2-0.6,0.5-0.6,0.8c0,0.6,0.6,1.3,1.7,2.4l0.6,0.5C113,17.4,113.6,16.5,113.6,15.6z"/>
	<path class="st1" d="M126.4,29.8c-2.4,0-4.3-1-5.9-2.9c-1.6-1.9-2.3-4.4-2.3-7.5c0-3.1,0.5-5.9,1.6-8.5c1.1-2.6,2.6-4.6,4.6-6.2
		c2-1.6,4.1-2.4,6.4-2.4c2.3,0,4.1,0.5,5.5,1.5c1.4,1,2.1,2.2,2.1,3.6c0,0.7-0.1,1.3-0.3,2c-0.2,0.5-0.3,0.9-0.6,1.3
		c-0.4,0.5-0.9,0.3-1.5,0.2c-0.5-0.1-1-0.2-1.6-0.4c-0.7-0.2-1.3-0.5-1.9-0.9c-0.5-0.4-0.3-0.8-0.2-1.3c0.1-0.4,0.1-0.7,0.2-1.1
		c0.1-0.4,0.1-0.7,0.2-1.1c0.1-0.6-0.1-0.9-0.7-1c-0.5-0.2-1-0.2-1.6-0.2c-1.6,0-2.9,1.3-4.1,4c-1.2,2.7-1.8,5.9-1.8,9.8
		c0,2.6,0.4,4.4,1.3,5.6c0.9,1.2,1.9,1.7,3.1,1.7c0.8,0,1.6-0.2,2.3-0.4c0.8-0.3,1.6-0.8,2.3-1.3c0.3-0.2,0.5-0.4,0.7-0.7
		c0.1-0.1,0.2-0.3,0.4-0.3c0.2,0,0.3,0.1,0.5,0.2c0.2,0.2,0.5,0.5,0.8,0.7c0.2,0.2,0.4,0.4,0.2,0.7c-0.2,0.2-0.4,0.4-0.5,0.6
		c-0.3,0.3-0.5,0.5-0.8,0.8c-0.7,0.7-1.5,1.3-2.2,1.8c-0.7,0.5-1.6,0.9-2.7,1.3C128.6,29.6,127.5,29.8,126.4,29.8z"/>
	<path class="st1" d="M143.4,29.8c-1.8,0-3.1-0.6-4.1-1.9c-1-1.2-1.5-3-1.5-5.2c0-2.8,0.8-5.3,2.3-7.3c1.5-2,3.6-3.1,6.3-3.1
		l1.4,0.1c0.4-0.2,0.9-0.3,1.5-0.3c2,0,3,1.9,3,5.7c1-0.1,2.1-0.2,3.2-0.4l0.6-0.2l0.2,1.5c-0.8,0.4-2,0.7-3.4,1l-0.8,0.2
		c-0.5,2.7-1.5,5-2.9,7C147.7,28.8,145.8,29.8,143.4,29.8z M145.5,26.5c1.1,0,2-0.7,2.9-2.1c0.9-1.4,1.4-2.8,1.8-4.4
		c-2.7,0-4.1-1-4.1-3.1c0-0.8,0.2-1.6,0.5-2.3l0.2-0.4c-0.1-0.1-0.2-0.1-0.4-0.1c-0.2,0-0.3,0-0.3,0.1c-0.6,0.4-1.2,1.4-1.8,2.9
		c-0.6,1.5-0.8,3.2-0.8,5.2C143.4,25.1,144.1,26.5,145.5,26.5z"/>
	<path class="st1" d="M171.8,27c0,0.1,0,0.1-0.1,0.2c-0.3,0.3-0.7,0.5-1,0.7c-0.4,0.3-0.9,0.6-1.3,0.9c-0.7,0.4-1.4,0.7-2.2,0.9
		c-0.4,0.1-0.7,0.1-1.1,0.1c-1.6,0-2.6-0.8-2.8-2.4c-0.8,0.8-1.6,1.4-2.6,1.8c-0.9,0.4-1.8,0.6-2.5,0.6c-1.2,0-2.3-0.5-3.1-1.6
		c-0.9-1.1-1.3-2.7-1.3-5c0-3.4,0.7-6,2.1-7.9c1.4-1.9,3-2.9,4.8-2.9c1.8,0,3.3,0.4,4.5,1.2c0.3-1.5,0.5-3,0.8-4.5
		c0.2-1.2,0.3-2.4,0.4-3.7c0.1-0.8,0-1.7-0.1-2.5c-0.1-0.4,0-0.8,0.5-0.9c0.2-0.1,0.5-0.1,0.7-0.2c0.6-0.2,1.3-0.3,2-0.4
		c0.4-0.1,0.7-0.1,1.1-0.1c0.6,0,1.3-0.3,1.4,0.5c0.2,1.2,0.1,2.4-0.1,3.6c-0.1,0.8-0.2,1.5-0.3,2.2c-0.1,0.9-0.3,1.8-0.5,2.8
		c-0.2,1.1-0.4,2.2-0.6,3.3c0,0.1-0.1,0.3-0.1,0.4c-1.1,5.7-1.7,9.6-1.7,11.6c0,0.6,0.1,0.9,0.4,0.9c0.2,0,0.4-0.2,0.6-0.2
		c0.2-0.1,0.4-0.2,0.5-0.3c0.2-0.1,0.3-0.3,0.5-0.3c0.2-0.1,0.3,0,0.4,0.2c0.1,0.2,0.2,0.4,0.3,0.5C171.7,26.6,171.8,26.8,171.8,27z
		 M162.6,14.6c-0.9,0-1.7,0.9-2.3,2.6s-1,3.5-1,5.2s0.1,2.8,0.4,3.3c0.2,0.5,0.6,0.7,1.1,0.7c0.8,0,1.7-0.3,2.5-1
		c0.1-1,0.6-4.4,1.7-10.2C164.1,14.9,163.3,14.6,162.6,14.6z"/>
	<path class="st1" d="M172.7,22.7c0-3.2,1-5.7,2.9-7.5c1.9-1.8,4.1-2.8,6.5-2.8c1.5,0,2.7,0.4,3.7,1.1c1,0.7,1.5,1.7,1.5,3
		c0,1.2-0.3,2.3-0.9,3.1c-0.6,0.8-1.4,1.5-2.3,1.9c-1.8,0.9-3.5,1.5-5,1.7l-0.9,0.1c0.2,2.4,1.2,3.6,2.9,3.6c0.6,0,1.3-0.2,1.9-0.5
		c0.3-0.1,0.6-0.3,0.9-0.4c0.3-0.2,0.5-0.4,0.8-0.6c0.2-0.2,0.5-0.3,0.7-0.1c0.2,0.2,0.3,0.3,0.4,0.5c0.1,0.2,0.3,0.3,0.2,0.5
		c-0.1,0.2-0.2,0.3-0.3,0.4c-0.3,0.2-0.5,0.4-0.8,0.6c-0.6,0.5-1.2,0.8-1.7,1.1c-1.5,0.8-3.1,1.2-4.8,1.2s-3.1-0.6-4.2-1.9
		C173.2,26.6,172.7,24.9,172.7,22.7z M181.3,19.8c0.8-0.9,1.1-2,1.1-3.4s-0.4-2.1-1.2-2.1c-1,0-1.7,0.8-2.2,2.5
		c-0.5,1.6-0.8,3.2-0.8,4.6C179.5,21.2,180.5,20.7,181.3,19.8z"/>
	<g>
		<path class="st0" d="M38.9,34.3c0,1.5-1.2,2.7-2.7,2.7H6.5c-1.5,0-2.7-1.2-2.7-2.7V4.6c0-1.5,1.2-2.7,2.7-2.7h29.7
			c1.5,0,2.7,1.2,2.7,2.7V34.3z"/>
		<g>
			<g>
				<g>
					<g id="XMLID_80_">
						<g id="XMLID_86_">
							<path id="XMLID_90_" class="st1" d="M34.6,24.2c0-1.5-1.3-1.8-2.1-1.7c-1.5,0.3-1.4,1.7-1.4,1.7l0,0c0,1.4-0.3,2.4-1,3.1
								c-0.7,0.7-1.7,1-2.9,1c-2.7,0-4-1.4-4-4.1v0c0,2.3-0.6,4-1.8,5.1c0.1,0.1,0.2,0.2,0.3,0.3c1.3,1.2,3.2,1.7,5.5,1.7
								c2.3,0,4.1-0.6,5.5-1.7C33.9,28.4,34.6,26.6,34.6,24.2L34.6,24.2z"/>
							<path id="XMLID_87_" class="st1" d="M27.1,32.5c-2.6,0-4.7-0.7-6.3-2c-0.1-0.1-0.2-0.2-0.4-0.3l-0.9-0.9l0.9-0.9
								c0.9-0.9,1.4-2.3,1.4-4.3l2.5,0c0,2.1,0.8,2.9,2.7,2.9c0.9,0,1.6-0.2,2.1-0.7c0.4-0.4,0.7-1.2,0.7-2.2c-0.1-1,0.5-2.6,2.4-3
								c0.2,0,0.4,0,0.5,0c0.9,0,1.7,0.3,2.3,0.9c0.3,0.3,0.7,0.9,0.8,1.8l0,0c0,0,0,0.1,0,0.1l0,0c0,2.8-0.8,5-2.5,6.3
								C31.7,31.9,29.6,32.5,27.1,32.5z M23.1,29.1c1,0.6,2.4,1,4,1c2,0,3.5-0.5,4.7-1.4c1-0.9,1.6-2.3,1.6-4.3l0,0l0-0.2
								c0-0.1,0-0.2-0.1-0.3c-0.1-0.1-0.4-0.2-0.6-0.1c-0.2,0-0.4,0.1-0.4,0.3l0,0l0,0.1c0,1.7-0.5,3.1-1.4,4
								c-0.9,0.9-2.2,1.4-3.8,1.4c-1.5,0-2.7-0.4-3.6-1.2C23.4,28.6,23.2,28.9,23.1,29.1z"/>
						</g>
						<g id="XMLID_81_">
							<path id="XMLID_85_" class="st1" d="M31,14.8c0-1.4-0.3-2.4-1-3.1c-0.7-0.7-1.7-1-2.9-1c-2.6,0-4,1.4-4,4.1
								c0-2.3-0.6-4-1.7-5.1c0.1-0.1,0.2-0.2,0.3-0.2c1.3-1.2,3.2-1.7,5.5-1.7c2.3,0,4.1,0.6,5.5,1.7c1.4,1.2,2,3,2,5.4
								c0,0,0.1,1.4-1.4,1.7C32.4,16.7,31,16.3,31,14.8z"/>
							<path id="XMLID_82_" class="st1" d="M32.8,17.8c-0.9,0-1.7-0.3-2.3-0.9c-0.4-0.4-0.8-1-0.8-2.1c0-1-0.2-1.7-0.7-2.2
								c-0.5-0.5-1.1-0.7-2.1-0.7c-2,0-2.7,0.8-2.7,2.9l-2.5,0c0-1.9-0.5-3.4-1.4-4.3l-0.9-0.9l0.9-0.9c0.1-0.1,0.2-0.2,0.3-0.3
								c1.6-1.3,3.7-2,6.3-2c2.6,0,4.7,0.7,6.3,2c1.6,1.4,2.5,3.5,2.5,6.3c0.1,1-0.5,2.6-2.4,3C33.2,17.8,33,17.8,32.8,17.8z
								 M27.1,9.5c1.6,0,2.9,0.5,3.8,1.4c0.9,0.9,1.4,2.3,1.4,4c0,0.1,0,0.3,0.1,0.3c0.1,0.1,0.4,0.2,0.6,0.1c0.1,0,0.4-0.1,0.4-0.4
								l0-0.1c0-2.1-0.5-3.6-1.6-4.5c-1.1-1-2.7-1.4-4.7-1.4c-1.6,0-2.9,0.3-4,0.9c0.1,0.2,0.3,0.5,0.4,0.7
								C24.4,9.9,25.6,9.5,27.1,9.5z"/>
						</g>
					</g>
				</g>
				<g>
					<g>
						<path class="st2" d="M18.5,27.2c-0.7,0.7-1.7,1-2.9,1c-2.7,0-4-1.4-4-4.1v-9.3c0-2.8,1.3-4.1,4-4.1c1.3,0,2.3,0.3,2.9,1
							c0.7,0.7,1,1.7,1,3.1v0c0-2.3,0.6-4,1.8-5.1c-0.1-0.1-0.2-0.2-0.3-0.3c-1.4-1.2-3.2-1.7-5.5-1.7c-2.3,0-4.1,0.6-5.5,1.7
							c-1.3,1.2-2,3-2,5.4v9.3c0,2.5,0.7,4.3,2,5.4c1.3,1.2,3.2,1.7,5.5,1.7c2.3,0,4.1-0.6,5.5-1.7c0.1-0.1,0.2-0.2,0.3-0.2
							c-1.2-1.2-1.7-2.9-1.7-5.1C19.6,25.5,19.2,26.6,18.5,27.2z"/>
						<path class="st2" d="M15.6,32.5c-2.6,0-4.7-0.7-6.3-2c-1.6-1.4-2.5-3.5-2.5-6.3v-9.3c0-2.8,0.8-5,2.5-6.3c1.6-1.3,3.7-2,6.3-2
							c2.6,0,4.7,0.7,6.3,2c0.1,0.1,0.2,0.2,0.4,0.3l0.9,0.9l-0.9,0.9c-0.9,0.9-1.4,2.3-1.4,4.3l-2.5,0c0-1-0.2-1.8-0.7-2.2
							c-0.5-0.4-1.1-0.7-2.1-0.7c-2,0-2.7,0.8-2.7,2.9v9.3c0,2.1,0.8,2.9,2.7,2.9c0.9,0,1.6-0.2,2.1-0.7c0.4-0.4,0.7-1.2,0.7-2.2
							l2.5,0c0,1.9,0.5,3.4,1.4,4.3l0.9,0.9l-0.9,0.9c-0.1,0.1-0.2,0.2-0.3,0.3C20.3,31.8,18.2,32.5,15.6,32.5z M15.6,8.9
							c-2,0-3.5,0.5-4.7,1.4c-1.1,0.9-1.6,2.4-1.6,4.5v9.3c0,2.1,0.5,3.6,1.6,4.5c1.1,1,2.7,1.4,4.7,1.4c1.6,0,2.9-0.3,4-0.9
							c-0.2-0.2-0.3-0.5-0.4-0.8c-0.9,0.8-2.1,1.2-3.6,1.2c-3.3,0-5.2-2-5.2-5.4v-9.3c0-3.4,1.9-5.4,5.2-5.4c1.5,0,2.7,0.4,3.6,1.2
							c0.1-0.3,0.3-0.5,0.4-0.8C18.6,9.2,17.2,8.9,15.6,8.9z"/>
					</g>
					<g>
						<path class="st2" d="M19.6,14.8v9.3c0,0,0,0,0,0c0,2.3,0.6,4,1.7,5.1c1.2-1.2,1.8-2.9,1.8-5.1v-9.3c0,0,0,0,0,0
							c0-2.3-0.6-4-1.7-5.1C20.2,10.8,19.6,12.5,19.6,14.8z"/>
						<path class="st2" d="M21.3,31l-0.9-0.9c-1.4-1.4-2.1-3.4-2.1-6l0-9.4c0-2.6,0.7-4.6,2.1-6l0.9-0.9l0.9,0.9
							c1.4,1.4,2.1,3.4,2.1,6l0,9.4c0,2.6-0.7,4.6-2.2,6L21.3,31z M21.3,11.8c-0.4,0.8-0.5,1.8-0.5,3v9.3c0,1.2,0.2,2.2,0.5,3
							c0.4-0.8,0.5-1.8,0.5-3v-9.3C21.9,13.6,21.7,12.6,21.3,11.8z"/>
					</g>
					<g>
						<path class="st2" d="M19.6,24.4c0,0-0.1,2.9,1.7,4.9c0.8,0.8,1.9,1.5,3.4,1.8c1.2,0.2,2.1-2.1,0.8-3c-0.1,0-2.5-0.8-2.5-4
							L19.6,24.4z"/>
						<path class="st2" d="M24.9,32.3L24.9,32.3c-0.1,0-0.3,0-0.4,0c-1.7-0.3-3.1-1-4.1-2.1c-2.2-2.4-2.1-5.6-2.1-5.8l0.1-1.1
							l5.9-0.5l0,1.4c0,2.2,1.5,2.7,1.6,2.8l0.2,0.1l0.1,0.1c1,0.7,1.4,2,1,3.2C26.9,31.5,26,32.3,24.9,32.3z M20.9,25.6
							c0.1,0.8,0.5,2,1.3,2.9c0.6,0.7,1.5,1.1,2.6,1.4c0.1-0.1,0.2-0.3,0.1-0.5c0-0.1,0-0.1,0-0.2c-1-0.4-2.5-1.6-3-3.7L20.9,25.6z"
							/>
					</g>
				</g>
			</g>
		</g>
	</g>
	<path class="st0" d="M86.2,13c0.2-0.1,0.3-0.1,0.5-0.1c0.3-0.1,0.6-0.1,0.9-0.2c0.8-0.1,1.7-0.2,2.5-0.2c0.6,0,1.1,0,1.7,0
		c0.2,0,0.4-0.1,0.5,0.1c0.1,0.1,0.1,0.3,0.2,0.5c0,0.2,0.1,0.3,0.1,0.5c0,0.2,0.1,0.4,0.1,0.6c0,0.1,0,0.2,0,0.3c0,0,0,0.3,0,0.3
		c2-1.6,3.6-2.4,4.9-2.4c1.3,0,2.4,0.5,3.2,1.6c0.8,1.1,1.2,2.7,1.2,4.8c0,3.7-0.7,6.4-2,8.2c-1.3,1.7-3.2,2.8-5.4,2.7
		c-0.7,0-1.5-0.1-2.1-0.3c-0.3-0.1-0.6-0.2-0.6-0.6c0-0.2,0.1-0.5,0.2-0.6c0.1-0.1,0.3-0.1,0.5-0.2c0.2-0.1,0.4-0.2,0.5-0.3
		c0.4-0.2,0.7-0.5,1-0.8c0.8-0.7,1.3-1.6,1.7-2.6c0.9-2,1.4-4.6,0.7-6.8c-0.2-0.6-0.6-1.3-1.2-1.6c-0.5-0.2-1.1,0-1.5,0.4
		c-1.2,1-1.4,2.7-1.6,4.1c-0.3,2.2-0.6,4.4-1.1,6.5c-0.3,1.4-0.6,2.9-0.8,4.3c-0.2,1.3-0.4,2.6-0.4,3.8c0,0.4,0,0.7,0,1.1
		c0,0.3,0,0.5-0.2,0.7c-0.3,0.2-0.6,0.2-0.9,0.3c-0.5,0.1-1,0.3-1.5,0.3c-0.3,0-0.6,0.1-0.9,0.1c-0.3,0-0.7,0.1-1,0.1
		c-0.2,0-0.5,0.1-0.7-0.1c0,0,0,0-0.1-0.1c-0.2-0.2-0.2-0.5-0.2-0.7c0-0.3,0-0.6,0-1c0-0.6,0.1-1.3,0.2-1.9c0.1-0.6,0.2-1.1,0.3-1.7
		c0.1-0.7,0.3-1.4,0.4-2.1c0.2-0.9,0.4-1.7,0.5-2.6c0-0.1,0-0.2,0.1-0.3c1-4.6,1.5-8.1,1.5-10.6c0-0.5-0.1-1-0.3-1.5
		c-0.1-0.4-0.3-0.7-0.5-1c-0.1-0.2-0.2-0.3-0.3-0.5c-0.1-0.1-0.2-0.3-0.2-0.5C86,13.2,86.1,13.1,86.2,13z"/>
</g>
</svg>
