<?xml version="1.0" encoding="utf-8"?>
<!-- Generator: Adobe Illustrator 19.0.0, SVG Export Plug-In . SVG Version: 6.00 Build 0)  -->
<svg version="1.1" id="Layer_1" xmlns="http://www.w3.org/2000/svg" xmlns:xlink="http://www.w3.org/1999/xlink" x="0px" y="0px"
	 viewBox="0 0 374.7 80.4" style="enable-background:new 0 0 374.7 80.4;" xml:space="preserve">
<style type="text/css">
	.st0{fill:#FFFFFF;}
	.st1{fill:#193D4B;}
	.st2{fill:#00A651;}
</style>
<path id="XMLID_127_" class="st0" d="M105.8,59.2c-0.3,1-1.1,1.6-2.2,1.6c-1.3,0-2.3-0.8-3.4-1.4c-0.2-0.1-0.5-0.4-0.5-0.7
	c0-0.5,0.3-1,0.5-1.5c0.2-0.5,0.4-1.1,0.6-1.6c0.4-1.1,0.9-2.2,1.4-3.2c0.6-1.3,1.1-2.5,1.7-3.8c0.7-1.5,1.4-2.9,2-4.4
	c0.8-1.6,1.6-3.2,2.4-4.9c0.1-0.2,0.2-0.4,0.3-0.6c1.6-3.3,3.2-6.7,4.8-10c1.2-2.5,2.2-5.1,3.2-7.7c0.6-1.7,1.4-3.4,1.1-5.2
	c-0.2-1.3-1.3-2-1.7-3.2c-0.7-2,4-2.1,5.1-2.3c1.7-0.2,3.4-0.4,5.1-0.5c1.3-0.1,2.7-0.1,4-0.1c1.1,0,2.5-0.1,3.4,0.5
	c1.1,0.7,1.1,2.5,1.3,3.7c0.3,2,0.5,3.9,0.6,5.9c0.1,1.1,0.1,2.2,0.1,3.4c0.1,3.5,0.2,7,0.2,10.5c0,2.4,0,4.9,0,7.3
	c0,5.8,0.5,9.8,1.5,12.2c0.4,0.9,0.8,1.3,1.1,1.3c0.8,0,1.5-0.3,2.2-0.6c0.5-0.2,0.9-0.6,1.3-0.9c0.4-0.2,0.8-0.5,1.2,0
	c0.3,0.3,0.4,0.8,0.6,1.1c0.2,0.3,0.5,0.6,0.4,1c-0.1,0.4-0.5,0.6-0.8,0.8c-0.4,0.3-0.8,0.6-1.2,0.9c-0.8,0.6-1.6,1.1-2.5,1.6
	c-0.5,0.3-1,0.5-1.5,0.7c-2.2,1-4.2,1.5-6.1,1.5c-0.9,0-2-0.3-2.9-0.7c-0.9-0.3-1.6-0.9-2.2-1.6c-1.7-2.1-2.1-5-2.3-7.6
	c0-0.9,0-1.8,0-2.7c0-0.6,0.1-1.3,0.2-1.9c0.1-0.6,0.4-1.3,0.1-1.9c-0.2-0.5-0.8-0.6-1.3-0.7c-3.1-0.2-6.2-0.1-9.3,0.2
	c-1.2,0.1-2.7,0-3.5,1.1c-0.6,0.8-0.9,2.1-1.3,3.1c-0.5,1.2-1,2.4-1.4,3.7c-0.3,0.7-0.5,1.4-0.8,2.1c-0.3,0.8-0.6,1.7-0.9,2.5
	C106.3,57.4,106.1,58.3,105.8,59.2z M125.2,39.4l0.1-8.2c0-7.2-0.3-12.1-0.9-14.6c-0.4,0-0.7,0-0.9,0.1c-1.3,3.6-2.6,6.7-3.7,9.3
	c-1.2,2.5-2.4,5.2-3.8,8.1c-1.3,2.9-2.2,4.7-2.5,5.4H125.2z"/>
<path id="XMLID_125_" class="st0" d="M145.6,29.9c0.3-0.1,0.6-0.1,0.9-0.2c0.6-0.1,1.2-0.2,1.7-0.3c1.6-0.2,3.1-0.3,4.7-0.3
	c1,0,2.1,0,3.1-0.1c0.3,0,0.7-0.1,1,0.2c0.2,0.3,0.2,0.6,0.3,0.9c0.1,0.3,0.2,0.6,0.3,1c0.1,0.3,0.1,0.7,0.2,1.1
	c0,0.2,0,0.4,0.1,0.6c0,0.1,0.1,0.5,0,0.5c3.6-3,6.7-4.5,9.1-4.5c2.4,0,4.4,1,5.9,3.1c1.5,2,2.2,5,2.2,8.9c0,6.9-1.3,12-3.8,15.3
	c-2.4,3.2-6,5.2-10,5c-1.3-0.1-2.7-0.2-3.9-0.6c-0.5-0.2-1.1-0.4-1.1-1.1c0-0.4,0.1-0.9,0.4-1.2c0.2-0.2,0.6-0.3,0.9-0.4
	c0.3-0.2,0.7-0.4,1-0.6c0.7-0.4,1.3-0.9,1.9-1.5c1.4-1.3,2.4-3,3.2-4.8c1.6-3.8,2.5-8.6,1.2-12.6c-0.4-1.2-1.1-2.5-2.3-2.9
	c-1-0.4-2,0-2.8,0.7c-2.1,1.8-2.6,5-2.9,7.6c-0.6,4.1-1.2,8.1-2.1,12.2c-0.6,2.6-1.1,5.3-1.4,8c-0.3,2.4-0.7,4.8-0.8,7.1
	c0,0.7,0,1.4,0,2c0,0.5,0,1-0.4,1.3c-0.5,0.4-1.2,0.4-1.8,0.5c-0.9,0.3-1.9,0.5-2.9,0.6c-0.5,0.1-1.1,0.2-1.6,0.2
	c-0.6,0.1-1.3,0.1-1.9,0.2c-0.4,0.1-0.9,0.1-1.2-0.1c0,0-0.1-0.1-0.1-0.1c-0.4-0.3-0.4-0.9-0.4-1.4c0-0.6,0-1.2,0-1.8
	c0-1.2,0.2-2.4,0.4-3.6c0.2-1,0.3-2.1,0.5-3.1c0.2-1.3,0.5-2.6,0.8-3.9c0.3-1.6,0.7-3.2,1-4.8c0-0.2,0.1-0.4,0.1-0.6
	c1.8-8.5,2.8-15,2.8-19.6c0-0.9-0.2-1.9-0.6-2.9c-0.3-0.7-0.6-1.3-1-1.9c-0.2-0.3-0.4-0.6-0.6-0.9c-0.2-0.2-0.4-0.5-0.3-0.9
	C145.2,30.1,145.4,30,145.6,29.9z"/>
<path id="XMLID_122_" class="st0" d="M234.2,50.8c0,3-1.3,5.4-3.9,7.3c-1,0.7-1.9,1.1-3,1.5c-0.6,0.2-1.2,0.4-1.8,0.6
	c-1.3,0.4-2.7,0.6-4.1,0.7c-2.8,0.2-6-0.2-8.4-1.8c-2-1.4-2.8-3.7-1.5-5.9c1.1-2,3.5-3.5,5.8-3.1c2.5,0.4,3.7,2.9,4.5,4.9
	c0.2,0.5,0.3,0.9,0.5,1.4c0.2,0.7,0.7,1.2,1.4,1c0.7-0.2,1.4-0.8,1.6-1.6c0.1-0.3,0.1-0.6,0.1-0.9c0-2.2-1.9-5.3-5.8-9.3
	c-3.8-4-5.8-7.2-5.8-9.6c0-2.4,1.1-4.2,3.2-5.5c2.1-1.3,4.7-2,7.7-2c3,0,5.3,0.5,6.8,1.6c1.5,1.1,2.3,2.5,2.3,4.3
	c0,1.8-1.4,4.3-4.3,7.6c0.3,0.3,0.8,0.8,1.3,1.3c0.5,0.5,1.2,1.6,2.1,3.1C233.8,48.1,234.2,49.5,234.2,50.8z M230.4,34.6
	c0-1.7-1.1-2.5-3.4-2.5c-1.1,0-2,0.2-2.7,0.7c-0.7,0.5-1.1,1-1.1,1.5c0,1,1,2.5,3.1,4.4l1.1,0.9C229.4,38,230.4,36.3,230.4,34.6z"/>
<path id="XMLID_120_" class="st0" d="M254.3,61c-4.4,0-8.1-1.8-10.9-5.4c-2.9-3.6-4.3-8.2-4.3-14c0-5.8,1-11,3-15.8
	c2-4.8,4.8-8.6,8.5-11.6c3.7-3,7.6-4.5,11.8-4.5c4.2,0,7.6,0.9,10.2,2.8c2.6,1.9,3.9,4.2,3.9,6.8c0,1.2-0.2,2.5-0.6,3.7
	c-0.3,0.8-0.6,1.7-1.2,2.4c-0.8,1-1.7,0.6-2.8,0.4c-1-0.2-1.9-0.5-2.9-0.8c-1.2-0.4-2.5-1-3.5-1.8c-1-0.7-0.6-1.5-0.4-2.5
	c0.1-0.7,0.3-1.4,0.4-2.1c0.1-0.7,0.3-1.4,0.4-2c0.2-1.2-0.2-1.6-1.3-2c-0.9-0.3-1.9-0.4-2.9-0.4c-2.9,0-5.4,2.5-7.7,7.4
	c-2.2,4.9-3.3,11-3.3,18.3c0,4.8,0.8,8.2,2.4,10.4c1.6,2.2,3.5,3.2,5.8,3.2c1.4,0,3-0.3,4.3-0.8c1.5-0.6,3-1.4,4.2-2.5
	c0.5-0.4,0.9-0.8,1.4-1.2c0.2-0.2,0.4-0.5,0.8-0.6c0.4-0.1,0.6,0.2,0.9,0.4c0.5,0.5,0.9,0.9,1.4,1.3c0.4,0.3,0.8,0.8,0.4,1.3
	c-0.3,0.4-0.7,0.7-1,1.1c-0.5,0.5-1,1-1.5,1.5c-1.4,1.3-2.7,2.4-4,3.3c-1.3,0.9-3,1.7-5,2.4C258.4,60.6,256.3,61,254.3,61z"/>
<path id="XMLID_117_" class="st0" d="M285.9,61c-3.3,0-5.8-1.1-7.7-3.4c-1.8-2.3-2.8-5.5-2.8-9.6c0-5.3,1.4-9.8,4.2-13.6
	c2.8-3.8,6.7-5.7,11.7-5.7l2.6,0.1c0.8-0.4,1.7-0.6,2.7-0.6c3.7,0,5.6,3.5,5.6,10.6c1.9-0.1,3.9-0.4,5.9-0.8l1.1-0.3l0.4,2.8
	c-1.6,0.7-3.7,1.3-6.3,1.8l-1.4,0.3c-0.9,5-2.7,9.3-5.5,13C293.8,59.1,290.2,61,285.9,61z M289.8,54.9c2,0,3.8-1.3,5.4-3.8
	c1.6-2.6,2.7-5.3,3.3-8.1c-5.1,0-7.6-1.9-7.6-5.7c0-1.5,0.3-2.9,0.9-4.3l0.4-0.7c-0.2-0.1-0.4-0.1-0.7-0.1c-0.3,0-0.5,0-0.6,0.1
	c-1.2,0.8-2.3,2.5-3.3,5.3s-1.6,6-1.6,9.6C285.9,52.3,287.2,54.9,289.8,54.9z"/>
<path id="XMLID_114_" class="st0" d="M338.6,55.8c0,0.1-0.1,0.2-0.2,0.3c-0.5,0.5-1.2,1-1.8,1.4c-0.8,0.6-1.6,1.1-2.5,1.6
	c-1.3,0.7-2.6,1.4-4,1.7c-0.7,0.1-1.4,0.2-2.1,0.2c-3.1,0-4.8-1.5-5.3-4.5c-1.4,1.4-3,2.5-4.8,3.3c-1.8,0.8-3.3,1.2-4.6,1.2
	c-2.3,0-4.2-1-5.8-3c-1.6-2-2.4-5.1-2.4-9.2c0-6.3,1.3-11.2,4-14.7c2.7-3.6,5.6-5.4,9-5.4c3.3,0,6.1,0.8,8.4,2.3
	c0.5-2.8,1-5.6,1.4-8.4c0.3-2.3,0.5-4.5,0.7-6.8c0.1-1.6,0.1-3.1-0.1-4.6c-0.1-0.8,0.1-1.5,1-1.7c0.4-0.1,0.9-0.2,1.3-0.4
	c1.2-0.3,2.4-0.6,3.7-0.8c0.7-0.1,1.4-0.2,2-0.2c1.1-0.1,2.5-0.5,2.7,1c0.3,2.2,0.1,4.4-0.1,6.6c-0.2,1.4-0.4,2.8-0.6,4.2
	c-0.2,1.7-0.6,3.4-0.9,5.1c-0.4,2-0.7,4.1-1.1,6.1c-0.1,0.3-0.1,0.5-0.2,0.8c-2.1,10.6-3.1,17.8-3.1,21.6c0,1.1,0.3,1.7,0.8,1.7
	c0.4,0,0.8-0.3,1.1-0.5c0.3-0.2,0.7-0.4,1-0.6c0.3-0.2,0.6-0.5,0.9-0.6c0.3-0.1,0.5,0.1,0.7,0.3c0.2,0.3,0.4,0.7,0.6,1
	C338.4,55.1,338.7,55.4,338.6,55.8z M321.6,32.8c-1.7,0-3.1,1.6-4.3,4.9c-1.2,3.3-1.8,6.5-1.8,9.7s0.2,5.2,0.7,6.1
	c0.4,0.9,1.1,1.3,2,1.3c1.6,0,3.1-0.6,4.6-1.9c0.1-1.9,1.2-8.2,3.2-18.9C324.4,33.3,322.9,32.8,321.6,32.8z"/>
<path id="XMLID_111_" class="st0" d="M340.4,47.8c0-5.9,1.8-10.6,5.4-14c3.6-3.4,7.6-5.1,12.2-5.1c2.8,0,5.1,0.7,6.9,2.1
	c1.8,1.4,2.7,3.2,2.7,5.5c0,2.3-0.6,4.2-1.7,5.8c-1.2,1.6-2.6,2.8-4.2,3.6c-3.4,1.7-6.4,2.7-9.2,3.1l-1.7,0.2
	c0.3,4.5,2.2,6.7,5.5,6.7c1.1,0,2.3-0.3,3.6-0.9c0.6-0.2,1.1-0.5,1.6-0.8c0.6-0.3,1-0.7,1.5-1.1c0.4-0.3,0.8-0.6,1.3-0.2
	c0.3,0.3,0.5,0.6,0.8,1c0.2,0.3,0.6,0.5,0.4,1c-0.1,0.3-0.4,0.5-0.6,0.7c-0.5,0.4-1,0.8-1.5,1.2c-1.1,0.9-2.2,1.6-3.2,2.1
	c-2.7,1.5-5.8,2.3-9,2.3c-3.3,0-5.8-1.2-7.7-3.5C341.4,55.2,340.4,52,340.4,47.8z M356.3,42.4c1.4-1.6,2.1-3.7,2.1-6.2
	c0-2.6-0.8-3.8-2.3-3.8c-1.8,0-3.2,1.5-4.2,4.6s-1.5,5.9-1.5,8.6C353,45.1,354.9,44,356.3,42.4z"/>
<g>
	<path id="XMLID_81_" class="st1" d="M78.3,71.9c0,3.2-2.6,5.8-5.8,5.8H8.9c-3.2,0-5.8-2.6-5.8-5.8V8.3c0-3.2,2.6-5.8,5.8-5.8h63.6
		c3.2,0,5.8,2.6,5.8,5.8V71.9z"/>
	<g>
		<g>
			<g>
				<g id="XMLID_161_">
					<g id="XMLID_167_">
						<path id="XMLID_171_" class="st0" d="M68.9,50.1c0.1-3.2-2.8-3.9-4.5-3.6c-3.3,0.6-3,3.6-3,3.6l0,0c0,3-0.7,5.2-2.2,6.6
							c-1.5,1.5-3.6,2.2-6.3,2.2c-5.7,0-8.5-2.9-8.5-8.8v0c0,4.9-1.3,8.5-3.8,11c0.2,0.2,0.4,0.4,0.6,0.6c2.9,2.5,6.8,3.7,11.7,3.7
							c4.9,0,8.8-1.2,11.7-3.7C67.5,59.2,68.9,55.3,68.9,50.1L68.9,50.1z"/>
						<path id="XMLID_168_" class="st0" d="M52.9,68c-5.5,0-10-1.5-13.4-4.3c-0.3-0.2-0.5-0.5-0.8-0.7L36.8,61l1.9-1.9
							c2-1.9,3-5,3-9.1l5.3,0c0,4.5,1.6,6.2,5.9,6.2c2,0,3.5-0.5,4.4-1.4c0.9-0.9,1.4-2.5,1.4-4.7c-0.2-2.2,1.1-5.6,5.2-6.3
							c0.4-0.1,0.8-0.1,1.2-0.1c1.9,0,3.6,0.7,4.8,1.9c0.7,0.7,1.5,2,1.6,3.9l0,0.1c0,0.1,0,0.2,0,0.3l0,0.1c0,6-1.8,10.6-5.3,13.6
							C62.9,66.5,58.4,68,52.9,68z M44.3,60.7c2.2,1.4,5.1,2.1,8.6,2.1c4.2,0,7.6-1,10-3.1c2.2-1.9,3.4-4.9,3.4-9.1l0,0l0-0.5
							c0-0.2,0-0.5-0.1-0.6c-0.2-0.2-0.8-0.4-1.3-0.3c-0.4,0.1-0.8,0.1-0.8,0.7l0,0l0,0.3c0,3.7-1,6.6-3,8.5c-2,2-4.7,3-8.1,3
							c-3.2,0-5.8-0.9-7.7-2.5C44.9,59.6,44.6,60.2,44.3,60.7z"/>
					</g>
					<g id="XMLID_162_">
						<path id="XMLID_166_" class="st0" d="M61.4,30.1c0-3-0.7-5.2-2.2-6.6c-1.5-1.5-3.6-2.2-6.3-2.2c-5.6,0-8.5,2.9-8.5,8.7
							c0-4.9-1.2-8.5-3.7-11c0.2-0.2,0.4-0.3,0.5-0.5c2.9-2.5,6.8-3.7,11.7-3.7c4.9,0,8.8,1.2,11.7,3.7c2.9,2.5,4.4,6.3,4.4,11.6
							c0,0,0.3,3.1-3,3.6C64.2,34.1,61.3,33.3,61.4,30.1z"/>
						<path id="XMLID_163_" class="st0" d="M65.2,36.5c-1.9,0-3.6-0.7-4.8-1.9c-0.8-0.8-1.7-2.2-1.6-4.5c0-2.1-0.5-3.7-1.4-4.7
							c-1-1-2.4-1.4-4.4-1.4c-4.2,0-5.9,1.7-5.9,6.1l-5.3,0c0-4.1-1-7.2-3-9.1L36.9,19l1.9-1.9c0.2-0.2,0.4-0.4,0.7-0.6
							c3.4-2.9,7.9-4.3,13.4-4.3c5.5,0,10,1.5,13.4,4.3c3.5,3,5.3,7.5,5.3,13.5c0.2,2.2-1.1,5.6-5.2,6.3
							C66,36.4,65.6,36.5,65.2,36.5z M52.9,18.7c3.4,0,6.2,1,8.1,3c2,2,3,4.8,3,8.5c0,0.3,0,0.6,0.1,0.7c0.2,0.2,0.8,0.4,1.3,0.3
							c0.3,0,0.9-0.1,0.8-0.8l0-0.3c0-4.5-1.1-7.6-3.4-9.6c-2.4-2-5.8-3.1-10-3.1c-3.4,0-6.3,0.7-8.5,2c0.3,0.5,0.6,1,0.9,1.6
							C47.1,19.5,49.7,18.7,52.9,18.7z"/>
					</g>
				</g>
			</g>
			<g>
				<g>
					<path id="XMLID_74_" class="st2" d="M34.7,56.6c-1.5,1.5-3.6,2.2-6.3,2.2c-5.7,0-8.5-2.9-8.5-8.8V30.1c0-5.9,2.8-8.8,8.5-8.8
						c2.7,0,4.8,0.7,6.3,2.2c1.5,1.5,2.2,3.7,2.2,6.6v0c0-4.9,1.3-8.5,3.8-11c-0.2-0.2-0.4-0.4-0.6-0.6c-2.9-2.5-6.8-3.7-11.7-3.7
						c-4.9,0-8.8,1.2-11.7,3.7c-2.9,2.5-4.3,6.3-4.3,11.6V50c0,5.3,1.4,9.1,4.3,11.6c2.9,2.5,6.8,3.7,11.7,3.7
						c4.9,0,8.8-1.2,11.7-3.7c0.2-0.2,0.4-0.3,0.5-0.5c-2.5-2.5-3.7-6.1-3.7-11C36.9,53,36.1,55.2,34.7,56.6z"/>
					<path class="st2" d="M28.3,67.9c-5.5,0-10-1.5-13.4-4.3c-3.5-3-5.2-7.5-5.2-13.6V30.1c0-6,1.8-10.6,5.2-13.6
						c3.4-2.9,7.9-4.3,13.4-4.3c5.5,0,10,1.5,13.4,4.3c0.3,0.2,0.5,0.5,0.8,0.7l1.9,1.9l-1.9,1.9c-2,1.9-3,5-3,9.1l-5.3,0
						c0-2.2-0.5-3.8-1.4-4.8c-1-1-2.4-1.4-4.4-1.4c-4.2,0-5.9,1.7-5.9,6.2V50c0,4.5,1.6,6.2,5.9,6.2c2,0,3.5-0.5,4.4-1.4
						c0.9-0.9,1.4-2.5,1.4-4.7l5.3,0c0,4.1,1,7.2,2.9,9.1l1.9,1.9L42.4,63c-0.2,0.2-0.4,0.4-0.7,0.6C38.4,66.4,33.9,67.9,28.3,67.9z
						 M28.3,17.4c-4.2,0-7.6,1-10,3.1c-2.3,2-3.4,5.1-3.4,9.6V50c0,4.5,1.1,7.6,3.4,9.6c2.4,2,5.7,3.1,10,3.1c3.4,0,6.3-0.7,8.5-2
						c-0.3-0.5-0.6-1.1-0.9-1.6c-1.9,1.6-4.5,2.5-7.6,2.5c-7.1,0-11.1-4.2-11.1-11.5V30.1c0-7.3,4.1-11.5,11.1-11.5
						c3.2,0,5.7,0.8,7.7,2.5c0.3-0.6,0.6-1.1,0.9-1.6C34.7,18.1,31.8,17.4,28.3,17.4z"/>
				</g>
				<g>
					<path id="XMLID_71_" class="st2" d="M36.9,30.1V50c0,0,0,0.1,0,0.1c0,4.9,1.2,8.5,3.7,11c2.5-2.5,3.8-6.1,3.8-11V30.1
						c0,0,0-0.1,0-0.1c0-4.9-1.2-8.5-3.7-11C38.1,21.5,36.9,25.2,36.9,30.1z"/>
					<path class="st2" d="M40.5,64.8l-1.8-1.8c-3-3-4.5-7.3-4.5-12.9l0-20c0-5.6,1.6-9.9,4.6-12.9l1.9-1.8l1.8,1.8
						c3,3,4.5,7.3,4.5,12.9l0,20c0,5.6-1.6,9.9-4.6,12.9L40.5,64.8z M40.6,23.7c-0.7,1.7-1.1,3.9-1.1,6.4V50c0,2.6,0.4,4.7,1.1,6.4
						c0.8-1.7,1.1-3.9,1.1-6.4V30.1C41.8,27.6,41.4,25.4,40.6,23.7z"/>
				</g>
				<g>
					<path id="XMLID_68_" class="st2" d="M36.9,50.7c0,0-0.3,6.1,3.7,10.4c1.6,1.8,4,3.2,7.4,3.8c2.6,0.5,4.5-4.5,1.8-6.3
						c-0.3-0.1-5.4-1.8-5.4-8.5L36.9,50.7z"/>
					<path class="st2" d="M48.3,67.5L48.3,67.5c-0.3,0-0.6,0-0.8-0.1c-3.7-0.7-6.6-2.2-8.8-4.6c-4.7-5-4.4-12-4.4-12.3l0.1-2.3
						l12.7-1l0,2.9c-0.1,4.6,3.1,5.8,3.5,5.9l0.4,0.1l0.3,0.2c2.1,1.5,3,4.2,2.1,6.9C52.6,65.8,50.5,67.5,48.3,67.5z M39.7,53.1
						c0.3,1.8,1,4.3,2.8,6.2c1.4,1.5,3.2,2.4,5.6,2.9c0.1-0.2,0.3-0.6,0.3-1c0-0.1,0-0.3-0.1-0.3c-2.2-0.9-5.4-3.3-6.4-7.9
						L39.7,53.1z"/>
				</g>
			</g>
		</g>
	</g>
</g>
<path id="XMLID_109_" class="st0" d="M179.5,29.9c0.3-0.1,0.6-0.1,0.9-0.2c0.6-0.1,1.2-0.2,1.7-0.3c1.6-0.2,3.1-0.3,4.7-0.3
	c1,0,2.1,0,3.1-0.1c0.3,0,0.7-0.1,1,0.2c0.2,0.3,0.2,0.6,0.3,0.9c0.1,0.3,0.2,0.6,0.3,1c0.1,0.3,0.1,0.7,0.2,1.1
	c0,0.2,0,0.4,0.1,0.6c0,0.1,0.1,0.5,0,0.5c3.6-3,6.7-4.5,9.1-4.5c2.4,0,4.4,1,5.9,3.1c1.5,2,2.2,5,2.2,8.9c0,6.9-1.3,12-3.8,15.3
	c-2.4,3.2-6,5.2-10,5c-1.3-0.1-2.7-0.2-3.9-0.6c-0.5-0.2-1.1-0.4-1.1-1.1c0-0.4,0.1-0.9,0.4-1.2c0.2-0.2,0.6-0.3,0.9-0.4
	c0.3-0.2,0.7-0.4,1-0.6c0.7-0.4,1.3-0.9,1.9-1.5c1.4-1.3,2.4-3,3.2-4.8c1.6-3.8,2.5-8.6,1.2-12.6c-0.4-1.2-1.1-2.5-2.3-2.9
	c-1-0.4-2,0-2.8,0.7c-2.1,1.8-2.6,5-2.9,7.6c-0.6,4.1-1.2,8.1-2.1,12.2c-0.6,2.6-1.1,5.3-1.4,8c-0.3,2.4-0.7,4.8-0.8,7.1
	c0,0.7,0,1.4,0,2c0,0.5,0,1-0.4,1.3c-0.5,0.4-1.2,0.4-1.8,0.5c-0.9,0.3-1.9,0.5-2.9,0.6c-0.5,0.1-1.1,0.2-1.6,0.2
	c-0.6,0.1-1.3,0.1-1.9,0.2c-0.4,0.1-0.9,0.1-1.2-0.1c0,0-0.1-0.1-0.1-0.1c-0.4-0.3-0.4-0.9-0.4-1.4c0-0.6,0-1.2,0-1.8
	c0-1.2,0.2-2.4,0.4-3.6c0.2-1,0.3-2.1,0.5-3.1c0.2-1.3,0.5-2.6,0.8-3.9c0.3-1.6,0.7-3.2,1-4.8c0-0.2,0.1-0.4,0.1-0.6
	c1.8-8.5,2.8-15,2.8-19.6c0-0.9-0.2-1.9-0.6-2.9c-0.3-0.7-0.6-1.3-1-1.9c-0.2-0.3-0.4-0.6-0.6-0.9c-0.2-0.2-0.4-0.5-0.3-0.9
	C179.1,30.1,179.3,30,179.5,29.9z"/>
</svg>
