<?xml version="1.0" encoding="utf-8"?>
<!-- Generator: Adobe Illustrator 19.0.0, SVG Export Plug-In . SVG Version: 6.00 Build 0)  -->
<svg version="1.1" id="Layer_1" xmlns="http://www.w3.org/2000/svg" xmlns:xlink="http://www.w3.org/1999/xlink" x="0px" y="0px"
	 viewBox="0 0 134.8 40" style="enable-background:new 0 0 134.8 40;" xml:space="preserve">
<style type="text/css">
	.st0{fill:#183D4B;}
	.st1{fill:#FFFFFF;}
</style>
<g id="XMLID_15_">
	<path id="XMLID_34_" class="st0" d="M7.8,27.9c-0.2,0.5-0.5,0.7-1,0.7c-0.6,0-1.1-0.4-1.6-0.7c-0.1-0.1-0.2-0.2-0.2-0.3
		c0-0.2,0.2-0.5,0.2-0.7c0.1-0.2,0.2-0.5,0.3-0.7c0.2-0.5,0.4-1,0.6-1.5c0.3-0.6,0.5-1.2,0.8-1.8c0.3-0.7,0.6-1.4,1-2
		c0.4-0.8,0.7-1.5,1.1-2.3c0-0.1,0.1-0.2,0.1-0.3c0.8-1.5,1.5-3.1,2.2-4.7c0.5-1.2,1-2.4,1.5-3.6c0.3-0.8,0.6-1.6,0.5-2.4
		c-0.1-0.6-0.6-0.9-0.8-1.5c-0.3-0.9,1.9-1,2.4-1.1c0.8-0.1,1.6-0.2,2.4-0.2c0.6,0,1.2,0,1.9,0c0.5,0,1.1-0.1,1.6,0.2
		c0.5,0.3,0.5,1.2,0.6,1.7c0.2,0.9,0.2,1.8,0.3,2.8c0,0.5,0,1,0.1,1.6c0.1,1.6,0.1,3.3,0.1,4.9c0,1.1,0,2.3,0,3.4
		c0,2.7,0.2,4.6,0.7,5.7c0.2,0.4,0.4,0.6,0.5,0.6c0.4,0,0.7-0.1,1-0.3c0.2-0.1,0.4-0.3,0.6-0.4c0.2-0.1,0.4-0.2,0.5,0
		c0.1,0.2,0.2,0.4,0.3,0.5c0.1,0.1,0.3,0.3,0.2,0.5c0,0.2-0.3,0.3-0.4,0.4c-0.2,0.2-0.4,0.3-0.5,0.4c-0.4,0.3-0.8,0.5-1.2,0.8
		c-0.2,0.1-0.4,0.2-0.7,0.3c-1,0.5-2,0.7-2.8,0.7c-0.4,0-0.9-0.2-1.3-0.3c-0.4-0.2-0.8-0.4-1-0.8c-0.8-1-1-2.3-1.1-3.5
		c0-0.4,0-0.8,0-1.3c0-0.3,0-0.6,0.1-0.9c0-0.3,0.2-0.6,0-0.9c-0.1-0.2-0.4-0.3-0.6-0.3c-1.5-0.1-2.9,0-4.4,0.1
		c-0.6,0-1.3,0-1.6,0.5c-0.3,0.4-0.4,1-0.6,1.4c-0.2,0.6-0.5,1.1-0.7,1.7c-0.1,0.3-0.2,0.7-0.4,1c-0.1,0.4-0.3,0.8-0.4,1.2
		C8,27,7.9,27.4,7.8,27.9z M16.8,18.6l0-3.8c0-3.4-0.1-5.6-0.4-6.8C16.3,8,16.1,8,16,8c-0.6,1.7-1.2,3.1-1.7,4.3
		c-0.5,1.2-1.1,2.4-1.8,3.8c-0.6,1.3-1,2.2-1.2,2.5H16.8z"/>
	<path id="XMLID_32_" class="st0" d="M26.3,14.2c0.1-0.1,0.3-0.1,0.4-0.1c0.3-0.1,0.5-0.1,0.8-0.1c0.7-0.1,1.5-0.1,2.2-0.2
		c0.5,0,1,0,1.4,0c0.2,0,0.3-0.1,0.4,0.1c0.1,0.1,0.1,0.3,0.1,0.4c0,0.1,0.1,0.3,0.1,0.4c0,0.2,0.1,0.3,0.1,0.5c0,0.1,0,0.2,0,0.3
		c0,0,0,0.2,0,0.2c1.7-1.4,3.1-2.1,4.3-2.1s2.1,0.5,2.7,1.4c0.7,0.9,1,2.3,1,4.2c0,3.2-0.6,5.6-1.8,7.1c-1.1,1.5-2.8,2.4-4.7,2.3
		c-0.6,0-1.3-0.1-1.8-0.3c-0.2-0.1-0.5-0.2-0.5-0.5c0-0.2,0.1-0.4,0.2-0.5c0.1-0.1,0.3-0.1,0.4-0.2c0.2-0.1,0.3-0.2,0.5-0.3
		c0.3-0.2,0.6-0.4,0.9-0.7c0.7-0.6,1.1-1.4,1.5-2.2c0.8-1.8,1.2-4,0.6-5.9c-0.2-0.5-0.5-1.1-1.1-1.3c-0.5-0.2-0.9,0-1.3,0.3
		c-1,0.8-1.2,2.3-1.4,3.5c-0.3,1.9-0.6,3.8-1,5.7c-0.3,1.2-0.5,2.5-0.7,3.7c-0.2,1.1-0.3,2.2-0.4,3.3c0,0.3,0,0.6,0,1
		c0,0.2,0,0.5-0.2,0.6c-0.2,0.2-0.5,0.2-0.8,0.3c-0.4,0.1-0.9,0.2-1.3,0.3c-0.3,0-0.5,0.1-0.8,0.1c-0.3,0-0.6,0.1-0.9,0.1
		c-0.2,0-0.4,0.1-0.6-0.1c0,0,0,0-0.1,0c-0.2-0.2-0.2-0.4-0.2-0.6c0-0.3,0-0.6,0-0.8c0-0.6,0.1-1.1,0.2-1.7c0.1-0.5,0.2-1,0.2-1.4
		c0.1-0.6,0.2-1.2,0.4-1.8c0.1-0.7,0.3-1.5,0.5-2.2c0-0.1,0-0.2,0.1-0.3c0.9-4,1.3-7,1.3-9.2c0-0.4-0.1-0.9-0.3-1.3
		c-0.1-0.3-0.3-0.6-0.5-0.9c-0.1-0.1-0.2-0.3-0.3-0.4c-0.1-0.1-0.2-0.3-0.1-0.4C26.1,14.3,26.2,14.2,26.3,14.2z"/>
	<path id="XMLID_29_" class="st0" d="M67.6,23.9c0,1.4-0.6,2.5-1.8,3.4c-0.4,0.3-0.9,0.5-1.4,0.7c-0.3,0.1-0.6,0.2-0.8,0.3
		c-0.6,0.2-1.3,0.3-1.9,0.3c-1.3,0.1-2.8-0.1-3.9-0.9c-0.9-0.7-1.3-1.7-0.7-2.8c0.5-0.9,1.6-1.6,2.7-1.5c1.2,0.2,1.7,1.3,2.1,2.3
		c0.1,0.2,0.2,0.4,0.2,0.7c0.1,0.3,0.3,0.5,0.7,0.5c0.3-0.1,0.7-0.4,0.8-0.7c0-0.1,0.1-0.3,0.1-0.4c0-1-0.9-2.5-2.7-4.3
		c-1.8-1.9-2.7-3.3-2.7-4.5c0-1.1,0.5-2,1.5-2.6c1-0.6,2.2-0.9,3.6-0.9c1.4,0,2.5,0.2,3.2,0.7c0.7,0.5,1.1,1.2,1.1,2
		c0,0.9-0.7,2-2,3.5c0.2,0.2,0.4,0.4,0.6,0.6c0.2,0.3,0.6,0.7,1,1.4S67.6,23.3,67.6,23.9z M65.9,16.4c0-0.8-0.5-1.2-1.6-1.2
		c-0.5,0-0.9,0.1-1.3,0.3c-0.3,0.2-0.5,0.4-0.5,0.7c0,0.5,0.5,1.2,1.5,2.1l0.5,0.4C65.4,18,65.9,17.2,65.9,16.4z"/>
	<path id="XMLID_27_" class="st1" d="M77,28.7c-2.1,0-3.8-0.8-5.1-2.5c-1.3-1.7-2-3.8-2-6.5c0-2.7,0.5-5.1,1.4-7.4
		c0.9-2.2,2.3-4,4-5.4c1.7-1.4,3.6-2.1,5.5-2.1c2,0,3.5,0.4,4.7,1.3C86.7,7,87.3,8,87.3,9.3c0,0.6-0.1,1.2-0.3,1.7
		c-0.1,0.4-0.3,0.8-0.6,1.1c-0.4,0.5-0.8,0.3-1.3,0.2c-0.5-0.1-0.9-0.2-1.3-0.4c-0.6-0.2-1.1-0.5-1.7-0.8c-0.5-0.3-0.3-0.7-0.2-1.2
		c0.1-0.3,0.1-0.6,0.2-1c0.1-0.3,0.1-0.6,0.2-1c0.1-0.5-0.1-0.7-0.6-0.9C81.3,7,80.8,7,80.4,7c-1.3,0-2.5,1.2-3.6,3.5
		c-1,2.3-1.6,5.1-1.6,8.5c0,2.2,0.4,3.8,1.1,4.8c0.7,1,1.6,1.5,2.7,1.5c0.7,0,1.4-0.1,2-0.4c0.7-0.3,1.4-0.7,2-1.2
		c0.2-0.2,0.4-0.4,0.6-0.6c0.1-0.1,0.2-0.2,0.4-0.3c0.2,0,0.3,0.1,0.4,0.2c0.2,0.2,0.4,0.4,0.7,0.6c0.2,0.2,0.4,0.4,0.2,0.6
		c-0.1,0.2-0.3,0.3-0.5,0.5c-0.2,0.2-0.5,0.5-0.7,0.7c-0.6,0.6-1.3,1.1-1.9,1.5c-0.6,0.4-1.4,0.8-2.3,1.1
		C78.9,28.5,77.9,28.7,77,28.7z"/>
	<path id="XMLID_24_" class="st1" d="M91.7,28.7c-1.5,0-2.7-0.5-3.6-1.6c-0.9-1.1-1.3-2.6-1.3-4.5c0-2.4,0.7-4.6,2-6.3
		c1.3-1.8,3.1-2.6,5.4-2.6l1.2,0.1c0.4-0.2,0.8-0.3,1.3-0.3c1.7,0,2.6,1.6,2.6,4.9c0.9,0,1.8-0.2,2.7-0.4l0.5-0.1l0.2,1.3
		c-0.7,0.3-1.7,0.6-2.9,0.8l-0.7,0.1c-0.4,2.3-1.3,4.3-2.5,6C95.4,27.8,93.7,28.7,91.7,28.7z M93.5,25.8c0.9,0,1.8-0.6,2.5-1.8
		c0.7-1.2,1.3-2.4,1.5-3.8c-2.4,0-3.5-0.9-3.5-2.6c0-0.7,0.1-1.4,0.4-2l0.2-0.3c-0.1,0-0.2-0.1-0.3-0.1c-0.1,0-0.2,0-0.3,0.1
		c-0.6,0.4-1.1,1.2-1.6,2.5c-0.5,1.3-0.7,2.8-0.7,4.5C91.7,24.6,92.3,25.8,93.5,25.8z"/>
	<path id="XMLID_21_" class="st1" d="M116.3,26.2c0,0,0,0.1-0.1,0.1c-0.2,0.3-0.6,0.4-0.8,0.6c-0.4,0.3-0.8,0.5-1.2,0.8
		c-0.6,0.3-1.2,0.6-1.9,0.8c-0.3,0.1-0.6,0.1-1,0.1c-1.4,0-2.2-0.7-2.5-2.1c-0.7,0.7-1.4,1.2-2.2,1.6c-0.8,0.4-1.5,0.6-2.2,0.6
		c-1.1,0-2-0.5-2.7-1.4c-0.8-0.9-1.1-2.4-1.1-4.3c0-2.9,0.6-5.2,1.9-6.9c1.2-1.7,2.6-2.5,4.2-2.5c1.6,0,2.9,0.4,3.9,1.1
		c0.2-1.3,0.5-2.6,0.7-3.9c0.1-1.1,0.3-2.1,0.3-3.2c0-0.7,0-1.4-0.1-2.2c0-0.4,0-0.7,0.4-0.8c0.2,0,0.4-0.1,0.6-0.2
		c0.6-0.2,1.1-0.3,1.7-0.4c0.3,0,0.6-0.1,0.9-0.1c0.5,0,1.1-0.2,1.2,0.5c0.2,1,0,2-0.1,3.1c-0.1,0.7-0.2,1.3-0.3,1.9
		c-0.1,0.8-0.3,1.6-0.4,2.4c-0.2,0.9-0.3,1.9-0.5,2.8c0,0.1,0,0.2-0.1,0.4c-1,4.9-1.5,8.3-1.5,10c0,0.5,0.1,0.8,0.4,0.8
		c0.2,0,0.4-0.1,0.5-0.2c0.2-0.1,0.3-0.2,0.5-0.3c0.1-0.1,0.3-0.2,0.4-0.3c0.1-0.1,0.2,0,0.3,0.2c0.1,0.2,0.2,0.3,0.3,0.5
		C116.2,25.9,116.3,26.1,116.3,26.2z M108.4,15.6c-0.8,0-1.4,0.8-2,2.3c-0.6,1.5-0.8,3-0.8,4.5c0,1.5,0.1,2.4,0.3,2.9
		c0.2,0.4,0.5,0.6,0.9,0.6c0.7,0,1.4-0.3,2.2-0.9c0.1-0.9,0.6-3.8,1.5-8.8C109.7,15.8,109,15.6,108.4,15.6z"/>
	<path id="XMLID_18_" class="st1" d="M117.1,22.6c0-2.8,0.8-4.9,2.5-6.5c1.7-1.6,3.6-2.4,5.7-2.4c1.3,0,2.4,0.3,3.2,1
		c0.8,0.6,1.3,1.5,1.3,2.6c0,1.1-0.3,2-0.8,2.7c-0.5,0.7-1.2,1.3-2,1.7c-1.6,0.8-3,1.3-4.3,1.5l-0.8,0.1c0.2,2.1,1,3.1,2.5,3.1
		c0.5,0,1.1-0.1,1.7-0.4c0.3-0.1,0.5-0.2,0.8-0.4c0.3-0.1,0.5-0.3,0.7-0.5c0.2-0.2,0.4-0.3,0.6-0.1c0.1,0.1,0.2,0.3,0.3,0.5
		c0.1,0.1,0.3,0.3,0.2,0.4c0,0.1-0.2,0.2-0.3,0.3c-0.2,0.2-0.5,0.4-0.7,0.6c-0.5,0.4-1,0.7-1.5,1c-1.3,0.7-2.7,1.1-4.2,1.1
		c-1.5,0-2.7-0.5-3.6-1.6C117.6,26,117.1,24.5,117.1,22.6z M124.5,20c0.7-0.7,1-1.7,1-2.9s-0.4-1.8-1.1-1.8c-0.8,0-1.5,0.7-1.9,2.1
		s-0.7,2.8-0.7,4C123,21.3,123.9,20.8,124.5,20z"/>
	<path id="XMLID_16_" class="st0" d="M42.1,14.2c0.1-0.1,0.3-0.1,0.4-0.1c0.3-0.1,0.5-0.1,0.8-0.1c0.7-0.1,1.5-0.1,2.2-0.2
		c0.5,0,1,0,1.4,0c0.2,0,0.3-0.1,0.4,0.1c0.1,0.1,0.1,0.3,0.1,0.4c0,0.1,0.1,0.3,0.1,0.4c0,0.2,0.1,0.3,0.1,0.5c0,0.1,0,0.2,0,0.3
		c0,0,0,0.2,0,0.2c1.7-1.4,3.1-2.1,4.3-2.1c1.1,0,2.1,0.5,2.7,1.4c0.7,0.9,1,2.3,1,4.2c0,3.2-0.6,5.6-1.8,7.1
		c-1.1,1.5-2.8,2.4-4.7,2.3c-0.6,0-1.3-0.1-1.8-0.3c-0.2-0.1-0.5-0.2-0.5-0.5c0-0.2,0.1-0.4,0.2-0.5c0.1-0.1,0.3-0.1,0.4-0.2
		c0.2-0.1,0.3-0.2,0.5-0.3c0.3-0.2,0.6-0.4,0.9-0.7c0.7-0.6,1.1-1.4,1.5-2.2c0.8-1.8,1.2-4,0.6-5.9c-0.2-0.5-0.5-1.1-1.1-1.3
		c-0.5-0.2-0.9,0-1.3,0.3c-1,0.8-1.2,2.3-1.4,3.5c-0.3,1.9-0.6,3.8-1,5.7c-0.3,1.2-0.5,2.5-0.7,3.7c-0.2,1.1-0.3,2.2-0.4,3.3
		c0,0.3,0,0.6,0,1c0,0.2,0,0.5-0.2,0.6c-0.2,0.2-0.5,0.2-0.8,0.3c-0.4,0.1-0.9,0.2-1.3,0.3c-0.3,0-0.5,0.1-0.8,0.1
		c-0.3,0-0.6,0.1-0.9,0.1c-0.2,0-0.4,0.1-0.6-0.1c0,0,0,0-0.1,0c-0.2-0.2-0.2-0.4-0.2-0.6c0-0.3,0-0.6,0-0.8c0-0.6,0.1-1.1,0.2-1.7
		c0.1-0.5,0.2-1,0.2-1.4c0.1-0.6,0.2-1.2,0.4-1.8c0.1-0.7,0.3-1.5,0.5-2.2c0-0.1,0-0.2,0.1-0.3c0.9-4,1.3-7,1.3-9.2
		c0-0.4-0.1-0.9-0.3-1.3c-0.1-0.3-0.3-0.6-0.5-0.9c-0.1-0.1-0.2-0.3-0.3-0.4c-0.1-0.1-0.2-0.3-0.1-0.4C41.9,14.3,42,14.2,42.1,14.2z
		"/>
</g>
</svg>
