<?xml version="1.0" encoding="utf-8"?>
<!-- Generator: Adobe Illustrator 19.0.0, SVG Export Plug-In . SVG Version: 6.00 Build 0)  -->
<svg version="1.1" id="Layer_1" xmlns="http://www.w3.org/2000/svg" xmlns:xlink="http://www.w3.org/1999/xlink" x="0px" y="0px"
	 viewBox="0 0 35 35" style="enable-background:new 0 0 35 35;" xml:space="preserve">
<style type="text/css">
	.st0{fill:#EF3F57;}
	.st1{fill:#FFFFFF;}
</style>
<g id="XMLID_25_">
	<path id="XMLID_36_" class="st0" d="M17.5,32.5c8.3,0,15-6.7,15-15c0-8.3-6.7-15-15-15c-8.3,0-15,6.7-15,15
		C2.5,25.8,9.2,32.5,17.5,32.5"/>
	<path id="XMLID_59_" class="st1" d="M9.6,16.8c0-1.7,0-3.3,0-5c0,0,0,0,0-0.1c0.1-0.6,0.5-1.1,1.1-1.2c0.1,0,0.1,0,0.2,0
		c4.4,0,8.8,0,13.2,0c0.1,0,0.1,0,0.2,0c0.5,0.1,0.9,0.4,1,0.9c0.1,0.1,0.1,0.3,0.1,0.5c0,1.3,0,2.7,0,4c0,0.4,0,0.9,0,1.3
		c0,0.3-0.1,0.6-0.1,1c-0.2,0.9-0.5,1.7-0.9,2.4c-0.6,1-1.4,1.9-2.4,2.5c-0.9,0.6-1.8,1-2.8,1.2c-0.5,0.1-0.9,0.1-1.4,0.2
		c-0.5,0-0.9,0-1.3-0.1c-0.3,0-0.7-0.1-1-0.2c-1.7-0.5-3.1-1.4-4.2-2.8c-0.7-0.9-1.2-1.9-1.4-3.1c-0.1-0.2-0.1-0.5-0.1-0.7
		c0-0.2,0-0.5,0-0.7C9.7,16.8,9.6,16.8,9.6,16.8z M17.5,17.6C17.5,17.6,17.5,17.6,17.5,17.6c-0.2-0.1-0.3-0.3-0.4-0.4
		c-0.9-0.8-1.7-1.6-2.6-2.4c-0.3-0.3-0.6-0.4-1-0.3c-0.4,0.1-0.8,0.5-0.8,1c0,0.3,0.1,0.6,0.3,0.9c0.5,0.5,1,1,1.5,1.5
		c0.7,0.7,1.4,1.4,2.2,2.1c0.2,0.2,0.5,0.3,0.8,0.3c0.3,0,0.5-0.1,0.7-0.3c0.7-0.7,1.5-1.4,2.2-2.1c0.5-0.5,1-1,1.5-1.4
		c0.3-0.3,0.4-0.6,0.3-1c-0.1-0.6-0.7-0.9-1.2-0.8c-0.2,0-0.4,0.2-0.6,0.3c-0.9,0.8-1.8,1.7-2.6,2.5C17.7,17.5,17.6,17.5,17.5,17.6z
		"/>
</g>
</svg>
