<?xml version="1.0" encoding="utf-8"?>
<!-- Generator: Adobe Illustrator 19.0.0, SVG Export Plug-In . SVG Version: 6.00 Build 0)  -->
<svg version="1.1" id="Layer_1" xmlns="http://www.w3.org/2000/svg" xmlns:xlink="http://www.w3.org/1999/xlink" x="0px" y="0px"
	 viewBox="0 0 35 35" style="enable-background:new 0 0 35 35;" xml:space="preserve">
<style type="text/css">
	.st0{fill:#F04D34;}
	.st1{fill:#FFFFFF;}
</style>
<g id="XMLID_11_">
	<path id="XMLID_14_" class="st0" d="M17.5,32.5c8.3,0,15-6.7,15-15c0-8.3-6.7-15-15-15c-8.3,0-15,6.7-15,15
		C2.5,25.8,9.2,32.5,17.5,32.5"/>
	<g id="XMLID_1_">
		<path id="XMLID_77_" class="st1" d="M17.1,25.4c-1.7,0-3.2-0.3-4.6-1c-1.2-0.6-2.3-1.5-3-2.7c-0.6-1-0.8-2.1-0.6-3.2
			c0-0.1,0-0.2-0.1-0.3c-0.8-0.9-0.9-2.3-0.3-3.3c0.5-0.8,1.4-1.2,2.2-1.1c0.4,0.1,0.9,0.2,1.2,0.5c0.1,0.1,0.1,0.1,0.2,0
			c1-0.6,2.1-0.9,3.2-1.1c0.3,0,0.5-0.1,0.8-0.1c0.1,0,0.1,0,0.1-0.1c0-0.7,0.1-1.3,0.2-2c0.1-0.6,0.3-1.2,0.6-1.7
			c0.6-0.8,1.4-1,2.3-0.7c0.5,0.2,0.8,0.5,1.2,0.9c0.2,0.2,0.3,0.4,0.5,0.4c0.1,0,0,0.1,0,0.1c0,0.4-0.1,0.9-0.1,1.3
			c0,0.1-0.1,0.1-0.1,0.1c-0.4,0-0.7-0.2-1-0.4c-0.2-0.2-0.4-0.5-0.6-0.7c-0.1-0.1-0.2-0.2-0.4-0.3c-0.4-0.1-0.6,0-0.8,0.3
			c-0.2,0.4-0.3,0.8-0.4,1.2c-0.1,0.4-0.1,0.9-0.1,1.4c0,0.1,0,0.2,0.1,0.2c1.4,0.1,2.7,0.5,4,1.2c0.1,0.1,0.2,0,0.3,0
			c0.8-0.6,1.7-0.7,2.5-0.2c1,0.5,1.4,1.6,1.2,2.6c-0.1,0.6-0.3,1.2-0.7,1.6c-0.1,0.1-0.1,0.1,0,0.2c0.2,1.5-0.1,2.7-1,3.9
			c-1,1.3-2.2,2-3.6,2.5C19.3,25.2,18.1,25.4,17.1,25.4z M17,24.2c1.5,0,3-0.3,4.4-1.1c1-0.5,1.8-1.3,2.3-2.3c0.5-1,0.5-2.1,0-3.1
			c-0.5-1.1-1.3-1.8-2.3-2.3c-1.1-0.6-2.2-0.9-3.4-1.1c-1.9-0.2-3.7,0.1-5.3,1.1c-1,0.5-1.8,1.2-2.3,2.3c-0.5,1-0.5,2.1,0,3.1
			c0.5,1.1,1.4,1.8,2.3,2.3C14,23.9,15.4,24.2,17,24.2z M11,15.1c-0.6-0.2-1.2-0.1-1.5,0.4c-0.3,0.4-0.3,1.2-0.1,1.5
			C9.8,16.2,10.3,15.6,11,15.1z M24.6,17c0.3-0.5,0.2-1.2-0.1-1.6c-0.3-0.4-1-0.5-1.4-0.3C23.6,15.6,24.1,16.2,24.6,17z"/>
		<path id="XMLID_74_" class="st1" d="M21.2,10.7c0-1.2,0.9-2.1,1.9-2.1c1.1,0,2,0.9,2,2.1c0,1.1-0.9,2.1-1.9,2.1
			C22.1,12.8,21.2,11.9,21.2,10.7z M21.9,10.7c0,0.7,0.6,1.3,1.2,1.3c0.7,0,1.2-0.6,1.3-1.3c0-0.7-0.6-1.3-1.2-1.3
			C22.5,9.4,21.9,10,21.9,10.7z"/>
		<path id="XMLID_65_" class="st1" d="M14.2,16.8c0.7,0,1.2,0.6,1.2,1.4c0,0.7-0.6,1.3-1.3,1.3c-0.7,0-1.2-0.6-1.2-1.4
			C13,17.4,13.5,16.8,14.2,16.8z"/>
		<path id="XMLID_64_" class="st1" d="M19.7,16.8c0.7,0,1.2,0.6,1.3,1.3c0,0.7-0.6,1.4-1.3,1.4c-0.7,0-1.3-0.6-1.2-1.4
			C18.5,17.4,19,16.8,19.7,16.8z"/>
		<path id="XMLID_63_" class="st1" d="M20.4,21.5c-0.9,1.3-2.1,1.8-3.6,1.8c-1.3,0-2.8-0.9-3.2-1.8C15.8,22.6,18.1,22.6,20.4,21.5z"
			/>
	</g>
</g>
</svg>
