<?xml version="1.0" encoding="utf-8"?>
<!-- Generator: Adobe Illustrator 19.0.0, SVG Export Plug-In . SVG Version: 6.00 Build 0)  -->
<svg version="1.1" id="Layer_1" xmlns="http://www.w3.org/2000/svg" xmlns:xlink="http://www.w3.org/1999/xlink" x="0px" y="0px"
	 viewBox="0 0 32 32" style="enable-background:new 0 0 32 32;" xml:space="preserve">
<style type="text/css">
	.st0{fill:#FFFFFF;}
</style>
<g>
	<path class="st0" d="M27.2,23.9c0,0.2-0.1,0.4-0.2,0.6c-0.2,0.5-0.6,1-1.1,1.4c-0.3,0.2-0.5,0.4-0.8,0.5c-0.3,0.1-0.6,0.2-0.9,0.2
		c-1.3,0.2-2.4-0.3-3.2-1.4c-0.3-0.4-0.6-0.6-1.1-0.5c-1.3,0-2.6,0-3.8,0c-0.6,0-1.1-0.1-1.4-0.7c-0.1-0.1-0.2-0.2-0.3-0.4
		c-0.3-0.5-1.2-1-0.8-1.6c0.5-0.7,1.3-1.3,2.3-1.3c1.2,0,2.3,0,3.5,0c1,0,2,0,3-0.6c0.9-0.5,2-0.5,2.9,0c0.5,0.2,0.9,0.6,1.2,1
		c0.2,0.2,0.3,0.4,0.4,0.7c0.1,0.3,0.2,0.6,0.3,1C27.3,23.1,27.3,23.5,27.2,23.9z M23.6,25.7c1.2,0,2.2-0.6,2.5-1.6
		c0.4-1,0.1-2.1-0.8-2.8c-0.8-0.6-2-0.8-2.8-0.2c-0.7,0.6-1.5,0.6-2.3,0.6c-1.4,0-2.8,0-4.2,0c-0.5,0-1.3,0.2-1.1,0.7
		c0.2,0.6,0.6,1.3,1.6,1.2c1.3-0.1,2.7,0,4,0c0.6,0,0.9,0.1,1.2,0.7C22.1,25.3,22.9,25.6,23.6,25.7z"/>
	<path id="XMLID_3_" class="st0" d="M14.5,5c2.9,0,5.9,0,8.8,0c2.1,0,3,0.9,3,3c0,3,0,6.1,0,9.1c0,0.3,0,0.5,0,0.8
		c-0.1,0.2-0.2,0.4-0.5,0.4c-0.3,0-0.4-0.2-0.4-0.4c0-0.3,0-0.5,0-0.8c0-3,0-6,0-9c0-1.6-0.4-2-2-2c-5.9,0-11.8,0-17.8,0
		C4.1,6.1,3.7,6.5,3.7,8c0,4,0,7.9,0,11.9c0,1.4,0.5,1.9,1.9,1.9c1.8,0,3.6,0,5.5,0c0.4,0,0.9-0.1,0.9,0.5c0,0.5-0.5,0.5-0.9,0.5
		c-1.9,0-3.8,0-5.8,0c-1.7,0-2.6-1-2.7-2.7c0-4.1,0-8.1,0-12.2C2.7,6,3.6,5.1,5.5,5C8.5,5,11.5,5,14.5,5z"/>
	<path id="XMLID_2_" class="st0" d="M6.1,20c-0.2,0-0.4-0.1-0.5-0.3c-0.1-0.3,0.1-0.5,0.2-0.7c1-1,2.1-1.9,3.1-2.9
		c0.6-0.5,1.6-1,1.6-1.7c0-0.6-0.9-1.2-1.4-1.7C8.1,11.6,7.1,10.5,6,9.3C5.8,9,5.4,8.7,5.8,8.4c0.4-0.4,0.7,0,0.9,0.3
		c1.8,2,3.7,4,5.5,6c1.5,1.6,3,1.6,4.4,0c1.8-2,3.6-4,5.4-5.9c0.2-0.2,0.4-0.6,0.7-0.5c0.1,0,0.3,0.1,0.4,0.2c0.2,0.4,0,0.6-0.3,0.8
		c-1.4,1.5-2.8,3.1-4.2,4.6c-0.5,0.5-0.6,0.8,0,1.3c0.8,0.6,1.4,1.3,2.1,1.9c0.3,0.3,0.5,0.5,0.2,0.9c-0.3,0.3-0.6,0.1-0.8-0.1
		c-0.7-0.7-1.5-1.3-2.2-2c-0.4-0.4-0.7-0.4-1.1,0c-1.5,1.4-3.5,1.4-5,0c-0.5-0.5-0.7-0.3-1.1,0c-1.3,1.3-2.7,2.5-4,3.7
		C6.6,19.7,6.5,20,6.1,20z"/>
	<path id="XMLID_1_" class="st0" d="M24,24.2c-0.6-0.1-1-0.4-1-1c0-0.6,0.4-1,1-1c0.6,0,1,0.4,1,1C25,23.8,24.6,24.2,24,24.2z"/>
</g>
</svg>
