<?xml version="1.0" encoding="utf-8"?>
<!-- Generator: Adobe Illustrator 19.0.0, SVG Export Plug-In . SVG Version: 6.00 Build 0)  -->
<svg version="1.1" id="Layer_1" xmlns="http://www.w3.org/2000/svg" xmlns:xlink="http://www.w3.org/1999/xlink" x="0px" y="0px"
	 viewBox="0 0 35 35" style="enable-background:new 0 0 35 35;" xml:space="preserve">
<style type="text/css">
	.st0{fill:#D42B2A;}
	.st1{fill:#FFFFFF;}
</style>
<g id="XMLID_24_">
	<path id="XMLID_27_" class="st0" d="M17.5,32.5c8.3,0,15-6.7,15-15c0-8.3-6.7-15-15-15c-8.3,0-15,6.7-15,15
		C2.5,25.8,9.2,32.5,17.5,32.5"/>
	<path id="XMLID_33_" class="st1" d="M22.1,17.3c-0.3-0.1-0.4-0.1-0.3-0.5c0.3-0.8,0.3-1.4,0-1.9c-0.6-0.9-2.2-0.8-4.1,0
		c0,0-0.6,0.3-0.4-0.2c0.3-0.9,0.2-1.7-0.2-2.2c-1-1-3.7,0-6,2.4c-1.7,1.8-2.7,3.6-2.7,5.3c0,3.1,3.9,5.2,7.7,5.2
		c5,0,8.3-3.2,8.3-5.5C24.4,18.5,23.2,17.7,22.1,17.3z M16,24c-3,0.3-5.7-1.1-5.9-3.1c-0.2-2,2.1-3.9,5.2-4.2
		c3.1-0.3,5.7,1.1,5.9,3.1C21.4,21.8,19.1,23.7,16,24z M27.1,14.8c0-3.1-2.5-5.7-5.7-5.7c-0.4,0-0.7,0.3-0.7,0.7
		c0,0.4,0.3,0.7,0.7,0.7c2.4,0,4.3,1.9,4.3,4.3c0,0.4,0.3,0.7,0.7,0.7C26.8,15.5,27.1,15.2,27.1,14.8C27.1,14.8,27.1,14.8,27.1,14.8
		z M24.5,14.7c-0.3-1.5-1.5-2.6-2.9-2.9c-0.4-0.1-0.7,0.2-0.8,0.5c-0.1,0.4,0.2,0.7,0.5,0.8c1,0.2,1.7,1,1.9,1.9
		c0.1,0.4,0.4,0.6,0.8,0.5C24.3,15.4,24.6,15.1,24.5,14.7z M14.5,18.7c-1.2,0.2-2.1,1.3-1.9,2.3c0.2,1,1.4,1.7,2.6,1.4
		c1.2-0.2,2.1-1.3,1.9-2.3C16.9,19.1,15.7,18.4,14.5,18.7z"/>
</g>
</svg>
