<?xml version="1.0" encoding="utf-8"?>
<!-- Generator: Adobe Illustrator 19.0.0, SVG Export Plug-In . SVG Version: 6.00 Build 0)  -->
<svg version="1.1" id="Layer_1" xmlns="http://www.w3.org/2000/svg" xmlns:xlink="http://www.w3.org/1999/xlink" x="0px" y="0px"
	 viewBox="0 0 20 20" style="enable-background:new 0 0 20 20;" xml:space="preserve">
<style type="text/css">
	.st0{fill:#FFFFFF;}
</style>
<g>
	<path class="st0" d="M7,13.2c-1.2-0.1-2.1-0.7-2.7-1.7c-0.2-0.4-0.2-0.4,0.2-0.4c0.3,0,0.5,0,0.9-0.1c-0.3-0.1-0.4-0.2-0.6-0.3
		c-1-0.5-1.6-1.3-1.7-2.5C3,8,3.1,7.9,3.3,8c0.3,0.1,0.6,0.2,0.9,0.2C4.2,8,4.1,8,4,7.9C3.1,7,2.8,5.7,3.3,4.5
		c0.1-0.3,0.2-0.3,0.4-0.1C5.2,6.1,7,7,9.2,7.3c0.1,0,0.1,0,0.2,0c0.3,0.1,0.5,0,0.4-0.4c-0.2-1.7,1-3,2.2-3.3
		c1.1-0.3,2-0.1,2.9,0.6c0.2,0.2,0.4,0.2,0.6,0.1c0.5-0.2,1-0.3,1.6-0.6c-0.2,0.7-0.6,1.2-1.2,1.6c0.6,0,1-0.2,1.6-0.4
		c-0.3,0.5-0.7,0.9-1.1,1.2C16.1,6.6,16,6.8,16,7.1c0,3.8-2.5,7.3-6.1,8.4c-2.5,0.8-5,0.5-7.4-0.9C4.2,14.6,5.6,14.2,7,13.2z"/>
	<polygon class="st0" points="17.5,5.1 17.5,5.1 17.5,5.1 	"/>
</g>
</svg>
