<?xml version="1.0" encoding="utf-8"?>
<!-- Generator: Adobe Illustrator 19.0.0, SVG Export Plug-In . SVG Version: 6.00 Build 0)  -->
<svg version="1.1" id="Layer_1" xmlns="http://www.w3.org/2000/svg" xmlns:xlink="http://www.w3.org/1999/xlink" x="0px" y="0px"
	 viewBox="0 0 203.9 29.5" style="enable-background:new 0 0 203.9 29.5;" xml:space="preserve">
<style type="text/css">
	.st0{fill:#FFFFFF;}
	.st1{fill:#193D4B;}
	.st2{fill:#00A651;}
	.st3{font-family:'Roboto-Bold';}
	.st4{font-size:16.2741px;}
	.st5{display:none;}
	.st6{display:inline;}
	.st7{display:inline;fill:#193D4B;}
</style>
<g id="XMLID_346_">
	<polygon id="XMLID_325_" class="st0" points="144.5,18.2 148.6,11.3 152.6,18.2 	"/>
	<g id="XMLID_24_">
		<path id="XMLID_359_" class="st0" d="M200.8,26.8c0,0.6-0.4,1-1,1h-50.3c-0.6,0-1-0.4-1-1V2.7c0-0.5,0.4-1,1-1h50.3
			c0.6,0,1,0.4,1,1V26.8z"/>
	</g>
	<g id="XMLID_327_">
		<path id="XMLID_63_" class="st0" d="M34.8,21.8c-0.1,0.4-0.4,0.6-0.9,0.6c-0.5,0-0.9-0.3-1.4-0.6c-0.1-0.1-0.2-0.2-0.2-0.3
			c0-0.2,0.1-0.4,0.2-0.6c0.1-0.2,0.2-0.4,0.2-0.6c0.2-0.4,0.4-0.9,0.6-1.3c0.2-0.5,0.5-1,0.7-1.5c0.3-0.6,0.6-1.2,0.8-1.8
			c0.3-0.7,0.6-1.3,1-2c0-0.1,0.1-0.2,0.1-0.3c0.7-1.4,1.3-2.7,1.9-4.1c0.5-1,0.9-2.1,1.3-3.2c0.3-0.7,0.6-1.4,0.4-2.1
			c-0.1-0.5-0.5-0.8-0.7-1.3c-0.3-0.8,1.6-0.9,2.1-0.9c0.7-0.1,1.4-0.2,2.1-0.2c0.5,0,1.1,0,1.6,0c0.4,0,1-0.1,1.4,0.2
			c0.5,0.3,0.5,1,0.5,1.5c0.1,0.8,0.2,1.6,0.2,2.4c0,0.5,0,0.9,0.1,1.4C47,8.5,47,9.9,47,11.4c0,1,0,2,0,3c0,2.4,0.2,4,0.6,5
			c0.2,0.4,0.3,0.5,0.5,0.6c0.3,0,0.6-0.1,0.9-0.2c0.2-0.1,0.4-0.2,0.5-0.3c0.1-0.1,0.3-0.2,0.5,0c0.1,0.1,0.2,0.3,0.3,0.5
			c0.1,0.1,0.2,0.3,0.2,0.4c0,0.1-0.2,0.2-0.3,0.3c-0.2,0.1-0.3,0.3-0.5,0.4c-0.3,0.2-0.7,0.5-1,0.7c-0.2,0.1-0.4,0.2-0.6,0.3
			c-0.9,0.4-1.7,0.6-2.5,0.6c-0.4,0-0.8-0.1-1.2-0.3c-0.4-0.1-0.7-0.4-0.9-0.7c-0.7-0.9-0.9-2-0.9-3.1c0-0.4,0-0.7,0-1.1
			c0-0.3,0-0.5,0.1-0.8c0-0.2,0.2-0.5,0-0.8c-0.1-0.2-0.3-0.3-0.5-0.3c-1.3-0.1-2.5,0-3.8,0.1c-0.5,0-1.1,0-1.4,0.4
			c-0.3,0.3-0.4,0.8-0.5,1.2c-0.2,0.5-0.4,1-0.6,1.5c-0.1,0.3-0.2,0.6-0.3,0.9c-0.1,0.3-0.2,0.7-0.4,1C35,21,34.9,21.4,34.8,21.8z
			 M42.7,13.7l0-3.4c0-2.9-0.1-4.9-0.4-6c-0.2,0-0.3,0-0.3,0.1c-0.5,1.5-1,2.7-1.5,3.8c-0.5,1-1,2.1-1.5,3.3c-0.5,1.2-0.9,1.9-1,2.2
			H42.7z"/>
		<path id="XMLID_61_" class="st0" d="M51,9.8c0.1,0,0.3-0.1,0.4-0.1c0.2-0.1,0.5-0.1,0.7-0.1c0.6-0.1,1.3-0.1,1.9-0.1
			c0.4,0,0.8,0,1.3,0c0.1,0,0.3-0.1,0.4,0.1c0.1,0.1,0.1,0.2,0.1,0.4c0,0.1,0.1,0.3,0.1,0.4c0,0.1,0.1,0.3,0.1,0.4
			c0,0.1,0,0.2,0,0.2c0,0,0,0.2,0,0.2c1.5-1.2,2.7-1.8,3.7-1.8s1.8,0.4,2.4,1.2c0.6,0.8,0.9,2,0.9,3.6c0,2.8-0.5,4.9-1.5,6.2
			c-1,1.3-2.4,2.1-4.1,2c-0.5,0-1.1-0.1-1.6-0.2c-0.2-0.1-0.5-0.2-0.5-0.4c0-0.1,0-0.4,0.2-0.5c0.1-0.1,0.2-0.1,0.4-0.2
			c0.1-0.1,0.3-0.2,0.4-0.2c0.3-0.2,0.5-0.4,0.8-0.6c0.6-0.5,1-1.2,1.3-1.9c0.7-1.5,1-3.5,0.5-5.1c-0.2-0.5-0.4-1-0.9-1.2
			c-0.4-0.1-0.8,0-1.1,0.3c-0.9,0.7-1.1,2-1.2,3.1c-0.2,1.7-0.5,3.3-0.9,5c-0.2,1.1-0.4,2.2-0.6,3.3c-0.1,1-0.3,1.9-0.3,2.9
			c0,0.3,0,0.6,0,0.8c0,0.2,0,0.4-0.2,0.5c-0.2,0.2-0.5,0.2-0.7,0.2c-0.4,0.1-0.8,0.2-1.2,0.3c-0.2,0-0.4,0.1-0.7,0.1
			c-0.3,0-0.5,0.1-0.8,0.1c-0.2,0-0.4,0.1-0.5,0c0,0,0,0-0.1,0c-0.1-0.1-0.2-0.4-0.2-0.6c0-0.2,0-0.5,0-0.7c0-0.5,0.1-1,0.1-1.5
			c0.1-0.4,0.1-0.8,0.2-1.3c0.1-0.5,0.2-1.1,0.3-1.6c0.1-0.6,0.3-1.3,0.4-1.9c0-0.1,0-0.2,0.1-0.3c0.8-3.5,1.1-6.1,1.1-8
			c0-0.4-0.1-0.8-0.3-1.2c-0.1-0.3-0.2-0.5-0.4-0.8c-0.1-0.1-0.2-0.2-0.3-0.4c-0.1-0.1-0.2-0.2-0.1-0.4C50.8,9.9,50.9,9.8,51,9.8z"
			/>
		<path id="XMLID_58_" class="st0" d="M87.1,18.3c0,1.2-0.5,2.2-1.6,3c-0.4,0.3-0.8,0.4-1.2,0.6c-0.2,0.1-0.5,0.2-0.7,0.2
			c-0.5,0.2-1.1,0.3-1.7,0.3c-1.2,0.1-2.5-0.1-3.4-0.8c-0.8-0.6-1.1-1.5-0.6-2.4c0.4-0.8,1.4-1.4,2.4-1.3c1,0.2,1.5,1.2,1.8,2
			c0.1,0.2,0.1,0.4,0.2,0.6c0.1,0.3,0.3,0.5,0.6,0.4c0.3-0.1,0.6-0.3,0.7-0.6c0-0.1,0.1-0.2,0.1-0.4c0-0.9-0.8-2.1-2.3-3.8
			c-1.6-1.6-2.3-2.9-2.3-3.9c0-1,0.4-1.7,1.3-2.2c0.9-0.5,1.9-0.8,3.1-0.8c1.2,0,2.1,0.2,2.8,0.7c0.6,0.4,0.9,1,0.9,1.8
			c0,0.7-0.6,1.8-1.8,3.1c0.1,0.1,0.3,0.3,0.5,0.5c0.2,0.2,0.5,0.6,0.8,1.3C86.9,17.2,87.1,17.8,87.1,18.3z M85.5,11.7
			c0-0.7-0.5-1-1.4-1c-0.4,0-0.8,0.1-1.1,0.3c-0.3,0.2-0.4,0.4-0.4,0.6c0,0.4,0.4,1,1.3,1.8l0.4,0.4C85.1,13.1,85.5,12.4,85.5,11.7z
			"/>
		<path id="XMLID_56_" class="st0" d="M95.3,22.5c-1.8,0-3.3-0.7-4.5-2.2c-1.2-1.5-1.8-3.4-1.8-5.7c0-2.4,0.4-4.5,1.2-6.4
			c0.8-1.9,2-3.5,3.5-4.7c1.5-1.2,3.1-1.8,4.8-1.8c1.7,0,3.1,0.4,4.1,1.2c1.1,0.8,1.6,1.7,1.6,2.8c0,0.5-0.1,1-0.2,1.5
			c-0.1,0.3-0.2,0.7-0.5,1c-0.3,0.4-0.7,0.3-1.1,0.2c-0.4-0.1-0.8-0.2-1.2-0.3c-0.5-0.2-1-0.4-1.4-0.7c-0.4-0.3-0.2-0.6-0.1-1
			c0.1-0.3,0.1-0.6,0.2-0.8c0.1-0.3,0.1-0.6,0.1-0.8c0.1-0.5-0.1-0.7-0.5-0.8c-0.4-0.1-0.8-0.1-1.2-0.1c-1.2,0-2.2,1-3.1,3
			c-0.9,2-1.4,4.5-1.4,7.5c0,1.9,0.3,3.4,1,4.2c0.6,0.9,1.4,1.3,2.4,1.3c0.6,0,1.2-0.1,1.8-0.3c0.6-0.2,1.2-0.6,1.7-1
			c0.2-0.2,0.4-0.3,0.6-0.5c0.1-0.1,0.2-0.2,0.3-0.2c0.1,0,0.3,0.1,0.4,0.2c0.2,0.2,0.4,0.4,0.6,0.5c0.2,0.1,0.3,0.3,0.2,0.5
			c-0.1,0.2-0.3,0.3-0.4,0.4c-0.2,0.2-0.4,0.4-0.6,0.6c-0.6,0.5-1.1,1-1.6,1.3c-0.5,0.4-1.2,0.7-2.1,1
			C96.9,22.3,96.1,22.5,95.3,22.5z"/>
		<path id="XMLID_53_" class="st0" d="M108.2,22.5c-1.3,0-2.4-0.5-3.1-1.4c-0.8-0.9-1.1-2.2-1.1-3.9c0-2.1,0.6-4,1.7-5.5
			c1.1-1.5,2.7-2.3,4.8-2.3l1,0.1c0.3-0.2,0.7-0.3,1.1-0.3c1.5,0,2.3,1.4,2.3,4.3c0.8,0,1.6-0.1,2.4-0.3l0.5-0.1l0.2,1.1
			c-0.6,0.3-1.5,0.5-2.6,0.7l-0.6,0.1c-0.4,2-1.1,3.8-2.2,5.3C111.4,21.7,109.9,22.5,108.2,22.5z M109.7,20c0.8,0,1.5-0.5,2.2-1.6
			c0.6-1,1.1-2.1,1.3-3.3c-2.1,0-3.1-0.8-3.1-2.3c0-0.6,0.1-1.2,0.4-1.7l0.1-0.3c-0.1,0-0.2-0.1-0.3-0.1c-0.1,0-0.2,0-0.3,0.1
			c-0.5,0.3-0.9,1-1.4,2.2c-0.4,1.1-0.6,2.4-0.6,3.9C108.1,18.9,108.7,20,109.7,20z"/>
		<path id="XMLID_50_" class="st0" d="M129.6,20.3c0,0,0,0.1-0.1,0.1c-0.2,0.2-0.5,0.4-0.7,0.6c-0.3,0.2-0.7,0.5-1,0.7
			c-0.5,0.3-1.1,0.6-1.6,0.7c-0.3,0.1-0.6,0.1-0.8,0.1c-1.2,0-2-0.6-2.2-1.9c-0.6,0.6-1.2,1-1.9,1.4c-0.7,0.3-1.3,0.5-1.9,0.5
			c-0.9,0-1.7-0.4-2.4-1.2c-0.7-0.8-1-2.1-1-3.8c0-2.5,0.5-4.5,1.6-6c1.1-1.5,2.3-2.2,3.7-2.2c1.4,0,2.5,0.3,3.4,0.9
			c0.2-1.1,0.4-2.3,0.6-3.4c0.1-0.9,0.2-1.8,0.3-2.8c0-0.6,0-1.3,0-1.9c0-0.3,0-0.6,0.4-0.7c0.2,0,0.4-0.1,0.5-0.1
			c0.5-0.1,1-0.2,1.5-0.3c0.3,0,0.6-0.1,0.8-0.1c0.4,0,1-0.2,1.1,0.4c0.1,0.9,0,1.8-0.1,2.7c-0.1,0.6-0.2,1.1-0.3,1.7
			c-0.1,0.7-0.2,1.4-0.4,2.1c-0.2,0.8-0.3,1.7-0.5,2.5c0,0.1,0,0.2-0.1,0.3c-0.8,4.3-1.3,7.2-1.3,8.8c0,0.5,0.1,0.7,0.3,0.7
			c0.2,0,0.3-0.1,0.5-0.2c0.1-0.1,0.3-0.1,0.4-0.2c0.1-0.1,0.2-0.2,0.4-0.3c0.1-0.1,0.2,0,0.3,0.1c0.1,0.1,0.2,0.3,0.2,0.4
			C129.6,20.1,129.7,20.2,129.6,20.3z M122.7,11c-0.7,0-1.3,0.7-1.8,2s-0.7,2.6-0.7,4s0.1,2.1,0.3,2.5c0.2,0.4,0.5,0.5,0.8,0.5
			c0.6,0,1.3-0.3,1.9-0.8c0.1-0.8,0.5-3.3,1.3-7.7C123.8,11.2,123.2,11,122.7,11z"/>
		<path id="XMLID_47_" class="st0" d="M130.4,17.1c0-2.4,0.7-4.3,2.2-5.7c1.5-1.4,3.1-2.1,5-2.1c1.1,0,2.1,0.3,2.8,0.8
			c0.7,0.6,1.1,1.3,1.1,2.2c0,0.9-0.2,1.7-0.7,2.4c-0.5,0.6-1,1.1-1.7,1.5c-1.4,0.7-2.6,1.1-3.8,1.3l-0.7,0.1
			c0.1,1.8,0.9,2.7,2.2,2.7c0.5,0,1-0.1,1.5-0.3c0.2-0.1,0.5-0.2,0.7-0.3c0.2-0.1,0.4-0.3,0.6-0.5c0.2-0.1,0.3-0.3,0.5-0.1
			c0.1,0.1,0.2,0.3,0.3,0.4c0.1,0.1,0.2,0.2,0.2,0.4c0,0.1-0.2,0.2-0.3,0.3c-0.2,0.2-0.4,0.3-0.6,0.5c-0.5,0.3-0.9,0.6-1.3,0.9
			c-1.1,0.6-2.3,0.9-3.7,0.9s-2.4-0.5-3.2-1.4C130.8,20.1,130.4,18.8,130.4,17.1z M136.8,14.9c0.6-0.7,0.9-1.5,0.9-2.5
			s-0.3-1.6-0.9-1.6c-0.7,0-1.3,0.6-1.7,1.9s-0.6,2.4-0.6,3.5C135.5,16,136.3,15.6,136.8,14.9z"/>
		<g id="XMLID_4_">
			<path id="XMLID_46_" class="st1" d="M29,25.9c0,1.1-0.9,2.1-2.1,2.1H4.4c-1.1,0-2.1-0.9-2.1-2.1V3.4c0-1.1,0.9-2.1,2.1-2.1h22.5
				c1.1,0,2.1,0.9,2.1,2.1V25.9z"/>
			<g id="XMLID_5_">
				<g id="XMLID_6_">
					<g id="XMLID_23_">
						<g id="XMLID_430_">
							<g id="XMLID_436_">
								<path id="XMLID_440_" class="st0" d="M25.7,18.2c0-1.1-1-1.4-1.6-1.3c-1.2,0.2-1.1,1.3-1.1,1.3l0,0c0,1.1-0.3,1.8-0.8,2.4
									c-0.5,0.5-1.3,0.8-2.2,0.8c-2,0-3-1-3-3.1v0c0,1.7-0.5,3-1.3,3.9c0.1,0.1,0.1,0.1,0.2,0.2c1,0.9,2.4,1.3,4.1,1.3
									c1.7,0,3.1-0.4,4.1-1.3C25.2,21.5,25.7,20.1,25.7,18.2L25.7,18.2z"/>
								<path id="XMLID_437_" class="st0" d="M20,24.6c-2,0-3.5-0.5-4.7-1.5c-0.1-0.1-0.2-0.2-0.3-0.3l-0.7-0.7l0.7-0.7
									c0.7-0.7,1.1-1.8,1.1-3.2l1.9,0c0,1.6,0.6,2.2,2.1,2.2c0.7,0,1.2-0.2,1.6-0.5c0.3-0.3,0.5-0.9,0.5-1.6
									c-0.1-0.8,0.4-2,1.8-2.2c0.1,0,0.3,0,0.4,0c0.7,0,1.3,0.2,1.7,0.7c0.3,0.3,0.5,0.7,0.6,1.4l0,0c0,0,0,0.1,0,0.1l0,0
									c0,2.1-0.6,3.8-1.9,4.8C23.5,24.1,21.9,24.6,20,24.6z M16.9,22c0.8,0.5,1.8,0.7,3,0.7c1.5,0,2.7-0.4,3.5-1.1
									c0.8-0.7,1.2-1.7,1.2-3.2l0,0l0-0.2c0-0.1,0-0.2-0.1-0.2c-0.1-0.1-0.3-0.1-0.5-0.1c-0.1,0-0.3,0-0.3,0.2l0,0l0,0.1
									c0,1.3-0.4,2.3-1.1,3c-0.7,0.7-1.7,1-2.9,1c-1.1,0-2.1-0.3-2.7-0.9C17.2,21.6,17.1,21.8,16.9,22z"/>
							</g>
							<g id="XMLID_431_">
								<path id="XMLID_435_" class="st0" d="M23,11.2c0-1.1-0.3-1.8-0.8-2.4C21.7,8.3,21,8,20,8c-2,0-3,1-3,3.1
									c0-1.7-0.4-3-1.3-3.9c0.1-0.1,0.1-0.1,0.2-0.2c1-0.9,2.4-1.3,4.1-1.3c1.7,0,3.1,0.4,4.1,1.3c1,0.9,1.5,2.2,1.5,4.1
									c0,0,0.1,1.1-1.1,1.3C24,12.6,23,12.3,23,11.2z"/>
								<path id="XMLID_432_" class="st0" d="M24.4,13.4c-0.7,0-1.3-0.2-1.7-0.7c-0.3-0.3-0.6-0.8-0.6-1.6c0-0.8-0.2-1.3-0.5-1.7
									C21.2,9.1,20.7,9,20,9c-1.5,0-2.1,0.6-2.1,2.2l-1.9,0c0-1.5-0.4-2.5-1-3.2l-0.7-0.7L15,6.6c0.1-0.1,0.2-0.1,0.2-0.2
									c1.2-1,2.8-1.5,4.7-1.5c2,0,3.6,0.5,4.7,1.5c1.2,1,1.9,2.7,1.9,4.8c0.1,0.8-0.4,2-1.8,2.2C24.6,13.4,24.5,13.4,24.4,13.4z
									 M20,7.1c1.2,0,2.2,0.4,2.9,1c0.7,0.7,1.1,1.7,1.1,3c0,0.1,0,0.2,0.1,0.3c0.1,0.1,0.3,0.1,0.5,0.1c0.1,0,0.3-0.1,0.3-0.3
									l0-0.1c0-1.6-0.4-2.7-1.2-3.4c-0.8-0.7-2-1.1-3.5-1.1c-1.2,0-2.2,0.2-3,0.7c0.1,0.2,0.2,0.4,0.3,0.6
									C17.9,7.4,18.8,7.1,20,7.1z"/>
							</g>
						</g>
					</g>
					<g id="XMLID_7_">
						<g id="XMLID_18_">
							<path id="XMLID_22_" class="st2" d="M13.5,20.6c-0.5,0.5-1.3,0.8-2.2,0.8c-2,0-3-1-3-3.1v-7.1c0-2.1,1-3.1,3-3.1
								c1,0,1.7,0.3,2.2,0.8c0.5,0.5,0.8,1.3,0.8,2.4v0c0-1.7,0.5-3,1.3-3.9c-0.1-0.1-0.1-0.1-0.2-0.2c-1-0.9-2.4-1.3-4.1-1.3
								C9.6,5.7,8.2,6.2,7.2,7c-1,0.9-1.5,2.2-1.5,4.1v7.1c0,1.9,0.5,3.2,1.5,4.1c1,0.9,2.4,1.3,4.1,1.3c1.7,0,3.1-0.4,4.1-1.3
								c0.1-0.1,0.1-0.1,0.2-0.2c-0.9-0.9-1.3-2.2-1.3-3.9C14.3,19.3,14.1,20,13.5,20.6z"/>
							<path id="XMLID_19_" class="st2" d="M11.3,24.5c-2,0-3.5-0.5-4.7-1.5c-1.2-1.1-1.9-2.7-1.9-4.8v-7.1c0-2.1,0.6-3.8,1.9-4.8
								c1.2-1,2.8-1.5,4.7-1.5c2,0,3.6,0.5,4.7,1.5c0.1,0.1,0.2,0.2,0.3,0.3L17,7.3l-0.7,0.7c-0.7,0.7-1.1,1.8-1.1,3.2l-1.9,0
								c0-0.8-0.2-1.4-0.5-1.7c-0.3-0.3-0.9-0.5-1.6-0.5c-1.5,0-2.1,0.6-2.1,2.2v7.1c0,1.6,0.6,2.2,2.1,2.2c0.7,0,1.2-0.2,1.6-0.5
								c0.3-0.3,0.5-0.9,0.5-1.7l1.9,0c0,1.5,0.3,2.5,1,3.2l0.7,0.7l-0.7,0.7c-0.1,0.1-0.2,0.1-0.2,0.2C14.8,24,13.2,24.5,11.3,24.5
								z M11.3,6.7C9.8,6.7,8.6,7,7.8,7.8C7,8.4,6.6,9.6,6.6,11.1v7.1c0,1.6,0.4,2.7,1.2,3.4c0.8,0.7,2,1.1,3.5,1.1
								c1.2,0,2.2-0.2,3-0.7c-0.1-0.2-0.2-0.4-0.3-0.6c-0.7,0.6-1.6,0.9-2.7,0.9c-2.5,0-3.9-1.5-3.9-4.1v-7.1c0-2.6,1.4-4.1,3.9-4.1
								c1.1,0,2,0.3,2.7,0.9c0.1-0.2,0.2-0.4,0.3-0.6C13.5,6.9,12.5,6.7,11.3,6.7z"/>
						</g>
						<g id="XMLID_13_">
							<path id="XMLID_17_" class="st2" d="M14.3,11.1v7.1c0,0,0,0,0,0c0,1.7,0.4,3,1.3,3.9c0.9-0.9,1.3-2.2,1.3-3.9v-7.1
								c0,0,0,0,0,0c0-1.7-0.4-3-1.3-3.9C14.8,8.1,14.3,9.4,14.3,11.1z"/>
							<path id="XMLID_14_" class="st2" d="M15.6,23.4L15,22.8c-1.1-1.1-1.6-2.6-1.6-4.6l0-7.1c0-2,0.6-3.5,1.6-4.6l0.7-0.6l0.7,0.7
								c1.1,1.1,1.6,2.6,1.6,4.6l0,7.1c0,2-0.6,3.5-1.6,4.6L15.6,23.4z M15.7,8.9c-0.3,0.6-0.4,1.4-0.4,2.3v7.1
								c0,0.9,0.1,1.7,0.4,2.3c0.3-0.6,0.4-1.4,0.4-2.3v-7.1C16,10.3,15.9,9.5,15.7,8.9z"/>
						</g>
						<g id="XMLID_8_">
							<path id="XMLID_12_" class="st2" d="M14.3,18.4c0,0-0.1,2.2,1.3,3.7c0.6,0.6,1.4,1.1,2.6,1.3c0.9,0.2,1.6-1.6,0.6-2.2
								c-0.1,0-1.9-0.6-1.9-3L14.3,18.4z"/>
							<path id="XMLID_9_" class="st2" d="M18.4,24.4L18.4,24.4c-0.1,0-0.2,0-0.3,0c-1.3-0.2-2.3-0.8-3.1-1.6
								c-1.7-1.8-1.6-4.3-1.6-4.4l0-0.8l4.5-0.4l0,1c0,1.6,1.1,2.1,1.2,2.1l0.1,0l0.1,0.1c0.8,0.5,1.1,1.5,0.8,2.4
								C19.9,23.8,19.2,24.4,18.4,24.4z M15.3,19.3c0.1,0.6,0.4,1.5,1,2.2c0.5,0.5,1.1,0.9,2,1c0.1-0.1,0.1-0.2,0.1-0.4
								c0,0,0-0.1,0-0.1c-0.8-0.3-1.9-1.2-2.2-2.8L15.3,19.3z"/>
						</g>
					</g>
				</g>
			</g>
		</g>
		<path id="XMLID_2_" class="st0" d="M64.8,9.8c0.1,0,0.3-0.1,0.4-0.1c0.2-0.1,0.5-0.1,0.7-0.1c0.6-0.1,1.3-0.1,1.9-0.1
			c0.4,0,0.8,0,1.3,0c0.1,0,0.3-0.1,0.4,0.1c0.1,0.1,0.1,0.2,0.1,0.4c0,0.1,0.1,0.3,0.1,0.4c0,0.1,0.1,0.3,0.1,0.4
			c0,0.1,0,0.2,0,0.2c0,0,0,0.2,0,0.2c1.5-1.2,2.7-1.8,3.7-1.8c1,0,1.8,0.4,2.4,1.2c0.6,0.8,0.9,2,0.9,3.6c0,2.8-0.5,4.9-1.5,6.2
			c-1,1.3-2.4,2.1-4.1,2c-0.5,0-1.1-0.1-1.6-0.2c-0.2-0.1-0.5-0.2-0.5-0.4c0-0.1,0-0.4,0.2-0.5c0.1-0.1,0.2-0.1,0.4-0.2
			c0.1-0.1,0.3-0.2,0.4-0.2c0.3-0.2,0.5-0.4,0.8-0.6c0.6-0.5,1-1.2,1.3-1.9c0.7-1.5,1-3.5,0.5-5.1c-0.2-0.5-0.4-1-0.9-1.2
			c-0.4-0.1-0.8,0-1.1,0.3c-0.9,0.7-1.1,2-1.2,3.1c-0.2,1.7-0.5,3.3-0.9,5c-0.2,1.1-0.4,2.2-0.6,3.3c-0.1,1-0.3,1.9-0.3,2.9
			c0,0.3,0,0.6,0,0.8c0,0.2,0,0.4-0.2,0.5c-0.2,0.2-0.5,0.2-0.7,0.2c-0.4,0.1-0.8,0.2-1.2,0.3c-0.2,0-0.4,0.1-0.7,0.1
			c-0.3,0-0.5,0.1-0.8,0.1c-0.2,0-0.4,0.1-0.5,0c0,0,0,0-0.1,0c-0.1-0.1-0.2-0.4-0.2-0.6c0-0.2,0-0.5,0-0.7c0-0.5,0.1-1,0.1-1.5
			c0.1-0.4,0.1-0.8,0.2-1.3c0.1-0.5,0.2-1.1,0.3-1.6c0.1-0.6,0.3-1.3,0.4-1.9c0-0.1,0-0.2,0.1-0.3c0.8-3.5,1.1-6.1,1.1-8
			c0-0.4-0.1-0.8-0.3-1.2c-0.1-0.3-0.2-0.5-0.4-0.8c-0.1-0.1-0.2-0.2-0.3-0.4c-0.1-0.1-0.2-0.2-0.1-0.4C64.6,9.9,64.7,9.8,64.8,9.8z
			"/>
	</g>
	<text id="XMLID_25_" transform="matrix(1 0 0 1 151.7701 19.4967)" class="st2 st3 st4">Status</text>
</g>
<g id="XMLID_27_" class="st5">
	<g id="XMLID_26_" class="st6">
		<path id="XMLID_353_" class="st1" d="M202.3,28.1c0,0.6-0.4,1-1,1h-53.6c-0.6,0-1-0.4-1-1V4.4c0-0.5,0.4-1,1-1h53.6
			c0.6,0,1,0.4,1,1V28.1z"/>
	</g>
	<polygon id="XMLID_1_" class="st7" points="142.7,20.2 146.8,10.9 150.9,20.2 	"/>
</g>
</svg>
