<?xml version="1.0" encoding="utf-8"?>
<!-- Generator: Adobe Illustrator 19.0.0, SVG Export Plug-In . SVG Version: 6.00 Build 0)  -->
<svg version="1.1" id="Layer_1" xmlns="http://www.w3.org/2000/svg" xmlns:xlink="http://www.w3.org/1999/xlink" x="0px" y="0px"
	 viewBox="82 6.5 203.9 29.5" style="enable-background:new 82 6.5 203.9 29.5;" xml:space="preserve">
<style type="text/css">
	.st0{fill:#193D4B;}
	.st1{fill:#00A651;}
	.st2{fill:#FFFFFF;}
	.st3{font-family:'Roboto-Bold';}
	.st4{font-size:16.2741px;}
	.st5{display:none;}
	.st6{display:inline;}
	.st7{display:inline;fill:#193D4B;}
</style>
<polygon id="XMLID_325_" class="st0" points="226.5,24.7 230.6,17.8 234.6,24.7 "/>
<g id="XMLID_24_">
	<path id="XMLID_359_" class="st0" d="M282.8,33.3c0,0.6-0.4,1-1,1h-50.3c-0.6,0-1-0.4-1-1V9.2c0-0.5,0.4-1,1-1h50.3
		c0.6,0,1,0.4,1,1V33.3z"/>
</g>
<g>
	<g>
		<path id="XMLID_57_" class="st1" d="M177.3,29c-1.8,0-3.3-0.7-4.5-2.2s-1.8-3.4-1.8-5.7c0-2.4,0.4-4.5,1.2-6.4s2-3.5,3.5-4.7
			s3.1-1.8,4.8-1.8c1.7,0,3.1,0.4,4.1,1.2c1.1,0.8,1.6,1.7,1.6,2.8c0,0.5-0.1,1-0.2,1.5c-0.1,0.3-0.2,0.7-0.5,1
			c-0.3,0.4-0.7,0.3-1.1,0.2c-0.4-0.1-0.8-0.2-1.2-0.3c-0.5-0.2-1-0.4-1.4-0.7s-0.2-0.6-0.1-1c0.1-0.3,0.1-0.6,0.2-0.8
			c0.1-0.3,0.1-0.6,0.1-0.8c0.1-0.5-0.1-0.7-0.5-0.8c-0.4-0.1-0.8-0.1-1.2-0.1c-1.2,0-2.2,1-3.1,3c-0.9,2-1.4,4.5-1.4,7.5
			c0,1.9,0.3,3.4,1,4.2c0.6,0.9,1.4,1.3,2.4,1.3c0.6,0,1.2-0.1,1.8-0.3c0.6-0.2,1.2-0.6,1.7-1c0.2-0.2,0.4-0.3,0.6-0.5
			c0.1-0.1,0.2-0.2,0.3-0.2s0.3,0.1,0.4,0.2c0.2,0.2,0.4,0.4,0.6,0.5s0.3,0.3,0.2,0.5c-0.1,0.2-0.3,0.3-0.4,0.4
			c-0.2,0.2-0.4,0.4-0.6,0.6c-0.6,0.5-1.1,1-1.6,1.3c-0.5,0.4-1.2,0.7-2.1,1C178.9,28.8,178.1,29,177.3,29z"/>
		<path id="XMLID_55_" class="st1" d="M190.2,29c-1.3,0-2.4-0.5-3.1-1.4c-0.8-0.9-1.1-2.2-1.1-3.9c0-2.1,0.6-4,1.7-5.5
			s2.7-2.3,4.8-2.3l1,0.1c0.3-0.2,0.7-0.3,1.1-0.3c1.5,0,2.3,1.4,2.3,4.3c0.8,0,1.6-0.1,2.4-0.3l0.5-0.1l0.2,1.1
			c-0.6,0.3-1.5,0.5-2.6,0.7l-0.6,0.1c-0.4,2-1.1,3.8-2.2,5.3C193.4,28.2,191.9,29,190.2,29z M191.7,26.5c0.8,0,1.5-0.5,2.2-1.6
			c0.6-1,1.1-2.1,1.3-3.3c-2.1,0-3.1-0.8-3.1-2.3c0-0.6,0.1-1.2,0.4-1.7l0.1-0.3c-0.1,0-0.2-0.1-0.3-0.1c-0.1,0-0.2,0-0.3,0.1
			c-0.5,0.3-0.9,1-1.4,2.2c-0.4,1.1-0.6,2.4-0.6,3.9C190.1,25.4,190.7,26.5,191.7,26.5z"/>
		<path id="XMLID_54_" class="st1" d="M211.6,26.8c0,0,0,0.1-0.1,0.1c-0.2,0.2-0.5,0.4-0.7,0.6c-0.3,0.2-0.7,0.5-1,0.7
			c-0.5,0.3-1.1,0.6-1.6,0.7c-0.3,0.1-0.6,0.1-0.8,0.1c-1.2,0-2-0.6-2.2-1.9c-0.6,0.6-1.2,1-1.9,1.4c-0.7,0.3-1.3,0.5-1.9,0.5
			c-0.9,0-1.7-0.4-2.4-1.2c-0.7-0.8-1-2.1-1-3.8c0-2.5,0.5-4.5,1.6-6c1.1-1.5,2.3-2.2,3.7-2.2c1.4,0,2.5,0.3,3.4,0.9
			c0.2-1.1,0.4-2.3,0.6-3.4c0.1-0.9,0.2-1.8,0.3-2.8c0-0.6,0-1.3,0-1.9c0-0.3,0-0.6,0.4-0.7c0.2,0,0.4-0.1,0.5-0.1
			c0.5-0.1,1-0.2,1.5-0.3c0.3,0,0.6-0.1,0.8-0.1c0.4,0,1-0.2,1.1,0.4c0.1,0.9,0,1.8-0.1,2.7c-0.1,0.6-0.2,1.1-0.3,1.7
			c-0.1,0.7-0.2,1.4-0.4,2.1c-0.2,0.8-0.3,1.7-0.5,2.5c0,0.1,0,0.2-0.1,0.3c-0.8,4.3-1.3,7.2-1.3,8.8c0,0.5,0.1,0.7,0.3,0.7
			c0.2,0,0.3-0.1,0.5-0.2c0.1-0.1,0.3-0.1,0.4-0.2c0.1-0.1,0.2-0.2,0.4-0.3c0.1-0.1,0.2,0,0.3,0.1s0.2,0.3,0.2,0.4
			C211.6,26.6,211.7,26.7,211.6,26.8z M204.7,17.5c-0.7,0-1.3,0.7-1.8,2s-0.7,2.6-0.7,4s0.1,2.1,0.3,2.5c0.2,0.4,0.5,0.5,0.8,0.5
			c0.6,0,1.3-0.3,1.9-0.8c0.1-0.8,0.5-3.3,1.3-7.7C205.8,17.7,205.2,17.5,204.7,17.5z"/>
		<path id="XMLID_52_" class="st1" d="M212.4,23.6c0-2.4,0.7-4.3,2.2-5.7c1.5-1.4,3.1-2.1,5-2.1c1.1,0,2.1,0.3,2.8,0.8
			c0.7,0.6,1.1,1.3,1.1,2.2s-0.2,1.7-0.7,2.4c-0.5,0.6-1,1.1-1.7,1.5c-1.4,0.7-2.6,1.1-3.8,1.3l-0.7,0.1c0.1,1.8,0.9,2.7,2.2,2.7
			c0.5,0,1-0.1,1.5-0.3c0.2-0.1,0.5-0.2,0.7-0.3c0.2-0.1,0.4-0.3,0.6-0.5c0.2-0.1,0.3-0.3,0.5-0.1c0.1,0.1,0.2,0.3,0.3,0.4
			s0.2,0.2,0.2,0.4c0,0.1-0.2,0.2-0.3,0.3c-0.2,0.2-0.4,0.3-0.6,0.5c-0.5,0.3-0.9,0.6-1.3,0.9c-1.1,0.6-2.3,0.9-3.7,0.9
			s-2.4-0.5-3.2-1.4C212.8,26.6,212.4,25.3,212.4,23.6z M218.8,21.4c0.6-0.7,0.9-1.5,0.9-2.5s-0.3-1.6-0.9-1.6
			c-0.7,0-1.3,0.6-1.7,1.9s-0.6,2.4-0.6,3.5C217.5,22.5,218.3,22.1,218.8,21.4z"/>
	</g>
</g>
<g id="XMLID_4_">
	<path id="XMLID_46_" class="st0" d="M111,32.4c0,1.1-0.9,2.1-2.1,2.1H86.4c-1.1,0-2.1-0.9-2.1-2.1V9.9c0-1.1,0.9-2.1,2.1-2.1h22.5
		c1.1,0,2.1,0.9,2.1,2.1V32.4z"/>
	<g id="XMLID_5_">
		<g id="XMLID_6_">
			<g id="XMLID_23_">
				<g id="XMLID_430_">
					<g id="XMLID_436_">
						<path id="XMLID_440_" class="st2" d="M107.7,24.7c0-1.1-1-1.4-1.6-1.3c-1.2,0.2-1.1,1.3-1.1,1.3l0,0c0,1.1-0.3,1.8-0.8,2.4
							c-0.5,0.5-1.3,0.8-2.2,0.8c-2,0-3-1-3-3.1l0,0c0,1.7-0.5,3-1.3,3.9c0.1,0.1,0.1,0.1,0.2,0.2c1,0.9,2.4,1.3,4.1,1.3
							s3.1-0.4,4.1-1.3C107.2,28,107.7,26.6,107.7,24.7L107.7,24.7z"/>
						<path id="XMLID_437_" class="st2" d="M102,31.1c-2,0-3.5-0.5-4.7-1.5c-0.1-0.1-0.2-0.2-0.3-0.3l-0.7-0.7l0.7-0.7
							c0.7-0.7,1.1-1.8,1.1-3.2h1.9c0,1.6,0.6,2.2,2.1,2.2c0.7,0,1.2-0.2,1.6-0.5c0.3-0.3,0.5-0.9,0.5-1.6c-0.1-0.8,0.4-2,1.8-2.2
							c0.1,0,0.3,0,0.4,0c0.7,0,1.3,0.2,1.7,0.7c0.3,0.3,0.5,0.7,0.6,1.4l0,0v0.1l0,0c0,2.1-0.6,3.8-1.9,4.8
							C105.5,30.6,103.9,31.1,102,31.1z M98.9,28.5c0.8,0.5,1.8,0.7,3,0.7c1.5,0,2.7-0.4,3.5-1.1c0.8-0.7,1.2-1.7,1.2-3.2l0,0v-0.2
							c0-0.1,0-0.2-0.1-0.2c-0.1-0.1-0.3-0.1-0.5-0.1c-0.1,0-0.3,0-0.3,0.2l0,0v0.1c0,1.3-0.4,2.3-1.1,3c-0.7,0.7-1.7,1-2.9,1
							c-1.1,0-2.1-0.3-2.7-0.9C99.2,28.1,99.1,28.3,98.9,28.5z"/>
					</g>
					<g id="XMLID_431_">
						<path id="XMLID_435_" class="st2" d="M105,17.7c0-1.1-0.3-1.8-0.8-2.4c-0.5-0.5-1.2-0.8-2.2-0.8c-2,0-3,1-3,3.1
							c0-1.7-0.4-3-1.3-3.9c0.1-0.1,0.1-0.1,0.2-0.2c1-0.9,2.4-1.3,4.1-1.3s3.1,0.4,4.1,1.3s1.5,2.2,1.5,4.1c0,0,0.1,1.1-1.1,1.3
							C106,19.1,105,18.8,105,17.7z"/>
						<path id="XMLID_432_" class="st2" d="M106.4,19.9c-0.7,0-1.3-0.2-1.7-0.7c-0.3-0.3-0.6-0.8-0.6-1.6c0-0.8-0.2-1.3-0.5-1.7
							c-0.4-0.3-0.9-0.4-1.6-0.4c-1.5,0-2.1,0.6-2.1,2.2H98c0-1.5-0.4-2.5-1-3.2l-0.7-0.7l0.7-0.7c0.1-0.1,0.2-0.1,0.2-0.2
							c1.2-1,2.8-1.5,4.7-1.5c2,0,3.6,0.5,4.7,1.5c1.2,1,1.9,2.7,1.9,4.8c0.1,0.8-0.4,2-1.8,2.2C106.6,19.9,106.5,19.9,106.4,19.9z
							 M102,13.6c1.2,0,2.2,0.4,2.9,1c0.7,0.7,1.1,1.7,1.1,3c0,0.1,0,0.2,0.1,0.3c0.1,0.1,0.3,0.1,0.5,0.1c0.1,0,0.3-0.1,0.3-0.3
							v-0.1c0-1.6-0.4-2.7-1.2-3.4c-0.8-0.7-2-1.1-3.5-1.1c-1.2,0-2.2,0.2-3,0.7c0.1,0.2,0.2,0.4,0.3,0.6
							C99.9,13.9,100.8,13.6,102,13.6z"/>
					</g>
				</g>
			</g>
			<g id="XMLID_7_">
				<g id="XMLID_18_">
					<path id="XMLID_22_" class="st1" d="M95.5,27.1c-0.5,0.5-1.3,0.8-2.2,0.8c-2,0-3-1-3-3.1v-7.1c0-2.1,1-3.1,3-3.1
						c1,0,1.7,0.3,2.2,0.8s0.8,1.3,0.8,2.4l0,0c0-1.7,0.5-3,1.3-3.9c-0.1-0.1-0.1-0.1-0.2-0.2c-1-0.9-2.4-1.3-4.1-1.3
						c-1.7-0.2-3.1,0.3-4.1,1.1c-1,0.9-1.5,2.2-1.5,4.1v7.1c0,1.9,0.5,3.2,1.5,4.1s2.4,1.3,4.1,1.3c1.7,0,3.1-0.4,4.1-1.3
						c0.1-0.1,0.1-0.1,0.2-0.2c-0.9-0.9-1.3-2.2-1.3-3.9C96.3,25.8,96.1,26.5,95.5,27.1z"/>
					<path id="XMLID_19_" class="st1" d="M93.3,31c-2,0-3.5-0.5-4.7-1.5c-1.2-1.1-1.9-2.7-1.9-4.8v-7.1c0-2.1,0.6-3.8,1.9-4.8
						c1.2-1,2.8-1.5,4.7-1.5c2,0,3.6,0.5,4.7,1.5c0.1,0.1,0.2,0.2,0.3,0.3l0.7,0.7l-0.7,0.7c-0.7,0.7-1.1,1.8-1.1,3.2h-1.9
						c0-0.8-0.2-1.4-0.5-1.7c-0.3-0.3-0.9-0.5-1.6-0.5c-1.5,0-2.1,0.6-2.1,2.2v7.1c0,1.6,0.6,2.2,2.1,2.2c0.7,0,1.2-0.2,1.6-0.5
						c0.3-0.3,0.5-0.9,0.5-1.7h1.9c0,1.5,0.3,2.5,1,3.2l0.7,0.7l-0.7,0.7c-0.1,0.1-0.2,0.1-0.2,0.2C96.8,30.5,95.2,31,93.3,31z
						 M93.3,13.2c-1.5,0-2.7,0.3-3.5,1.1c-0.8,0.6-1.2,1.8-1.2,3.3v7.1c0,1.6,0.4,2.7,1.2,3.4c0.8,0.7,2,1.1,3.5,1.1
						c1.2,0,2.2-0.2,3-0.7c-0.1-0.2-0.2-0.4-0.3-0.6c-0.7,0.6-1.6,0.9-2.7,0.9c-2.5,0-3.9-1.5-3.9-4.1v-7.1c0-2.6,1.4-4.1,3.9-4.1
						c1.1,0,2,0.3,2.7,0.9c0.1-0.2,0.2-0.4,0.3-0.6C95.5,13.4,94.5,13.2,93.3,13.2z"/>
				</g>
				<g id="XMLID_13_">
					<path id="XMLID_17_" class="st1" d="M96.3,17.6v7.1l0,0c0,1.7,0.4,3,1.3,3.9c0.9-0.9,1.3-2.2,1.3-3.9v-7.1l0,0
						c0-1.7-0.4-3-1.3-3.9C96.8,14.6,96.3,15.9,96.3,17.6z"/>
					<path id="XMLID_14_" class="st1" d="M97.6,29.9L97,29.3c-1.1-1.1-1.6-2.6-1.6-4.6v-7.1c0-2,0.6-3.5,1.6-4.6l0.7-0.6l0.7,0.7
						c1.1,1.1,1.6,2.6,1.6,4.6v7.1c0,2-0.6,3.5-1.6,4.6L97.6,29.9z M97.7,15.4c-0.3,0.6-0.4,1.4-0.4,2.3v7.1c0,0.9,0.1,1.7,0.4,2.3
						c0.3-0.6,0.4-1.4,0.4-2.3v-7.1C98,16.8,97.9,16,97.7,15.4z"/>
				</g>
				<g id="XMLID_8_">
					<path id="XMLID_12_" class="st1" d="M96.3,24.9c0,0-0.1,2.2,1.3,3.7c0.6,0.6,1.4,1.1,2.6,1.3c0.9,0.2,1.6-1.6,0.6-2.2
						c-0.1,0-1.9-0.6-1.9-3L96.3,24.9z"/>
					<path id="XMLID_9_" class="st1" d="M100.4,30.9L100.4,30.9c-0.1,0-0.2,0-0.3,0c-1.3-0.2-2.3-0.8-3.1-1.6
						c-1.7-1.8-1.6-4.3-1.6-4.4v-0.8l4.5-0.4v1c0,1.6,1.1,2.1,1.2,2.1h0.1l0.1,0.1c0.8,0.5,1.1,1.5,0.8,2.4
						C101.9,30.3,101.2,30.9,100.4,30.9z M97.3,25.8c0.1,0.6,0.4,1.5,1,2.2c0.5,0.5,1.1,0.9,2,1c0.1-0.1,0.1-0.2,0.1-0.4v-0.1
						c-0.8-0.3-1.9-1.2-2.2-2.8L97.3,25.8z"/>
				</g>
			</g>
		</g>
	</g>
</g>
<g>
	<path id="XMLID_63_" class="st0" d="M116.8,28.3c-0.1,0.4-0.4,0.6-0.9,0.6s-0.9-0.3-1.4-0.6c-0.1-0.1-0.2-0.2-0.2-0.3
		c0-0.2,0.1-0.4,0.2-0.6c0.1-0.2,0.2-0.4,0.2-0.6c0.2-0.4,0.4-0.9,0.6-1.3c0.2-0.5,0.5-1,0.7-1.5c0.3-0.6,0.6-1.2,0.8-1.8
		c0.3-0.7,0.6-1.3,1-2c0-0.1,0.1-0.2,0.1-0.3c0.7-1.4,1.3-2.7,1.9-4.1c0.5-1,0.9-2.1,1.3-3.2c0.3-0.7,0.6-1.4,0.4-2.1
		c-0.1-0.5-0.5-0.8-0.7-1.3c-0.3-0.8,1.6-0.9,2.1-0.9c0.7-0.1,1.4-0.2,2.1-0.2c0.5,0,1.1,0,1.6,0c0.4,0,1-0.1,1.4,0.2
		c0.5,0.3,0.5,1,0.5,1.5c0.1,0.8,0.2,1.6,0.2,2.4c0,0.5,0,0.9,0.1,1.4c0.2,1.4,0.2,2.8,0.2,4.3c0,1,0,2,0,3c0,2.4,0.2,4,0.6,5
		c0.2,0.4,0.3,0.5,0.5,0.6c0.3,0,0.6-0.1,0.9-0.2c0.2-0.1,0.4-0.2,0.5-0.3c0.1-0.1,0.3-0.2,0.5,0c0.1,0.1,0.2,0.3,0.3,0.5
		c0.1,0.1,0.2,0.3,0.2,0.4s-0.2,0.2-0.3,0.3c-0.2,0.1-0.3,0.3-0.5,0.4c-0.3,0.2-0.7,0.5-1,0.7c-0.2,0.1-0.4,0.2-0.6,0.3
		c-0.9,0.4-1.7,0.6-2.5,0.6c-0.4,0-0.8-0.1-1.2-0.3c-0.4-0.1-0.7-0.4-0.9-0.7c-0.7-0.9-0.9-2-0.9-3.1c0-0.4,0-0.7,0-1.1
		c0-0.3,0-0.5,0.1-0.8c0-0.2,0.2-0.5,0-0.8c-0.1-0.2-0.3-0.3-0.5-0.3c-1.3-0.1-2.5,0-3.8,0.1c-0.5,0-1.1,0-1.4,0.4
		c-0.3,0.3-0.4,0.8-0.5,1.2c-0.2,0.5-0.4,1-0.6,1.5c-0.1,0.3-0.2,0.6-0.3,0.9s-0.2,0.7-0.4,1C117,27.5,116.9,27.9,116.8,28.3z
		 M124.7,20.2v-3.4c0-2.9-0.1-4.9-0.4-6c-0.2,0-0.3,0-0.3,0.1c-0.5,1.5-1,2.7-1.5,3.8c-0.5,1-1,2.1-1.5,3.3c-0.5,1.2-0.9,1.9-1,2.2
		C120,20.2,124.7,20.2,124.7,20.2z"/>
	<path id="XMLID_61_" class="st0" d="M133,16.3c0.1,0,0.3-0.1,0.4-0.1c0.2-0.1,0.5-0.1,0.7-0.1c0.6-0.1,1.3-0.1,1.9-0.1
		c0.4,0,0.8,0,1.3,0c0.1,0,0.3-0.1,0.4,0.1c0.1,0.1,0.1,0.2,0.1,0.4c0,0.1,0.1,0.3,0.1,0.4c0,0.1,0.1,0.3,0.1,0.4c0,0.1,0,0.2,0,0.2
		v0.2c1.5-1.2,2.7-1.8,3.7-1.8s1.8,0.4,2.4,1.2c0.6,0.8,0.9,2,0.9,3.6c0,2.8-0.5,4.9-1.5,6.2c-1,1.3-2.4,2.1-4.1,2
		c-0.5,0-1.1-0.1-1.6-0.2c-0.2-0.1-0.5-0.2-0.5-0.4c0-0.1,0-0.4,0.2-0.5c0.1-0.1,0.2-0.1,0.4-0.2c0.1-0.1,0.3-0.2,0.4-0.2
		c0.3-0.2,0.5-0.4,0.8-0.6c0.6-0.5,1-1.2,1.3-1.9c0.7-1.5,1-3.5,0.5-5.1c-0.2-0.5-0.4-1-0.9-1.2c-0.4-0.1-0.8,0-1.1,0.3
		c-0.9,0.7-1.1,2-1.2,3.1c-0.2,1.7-0.5,3.3-0.9,5c-0.2,1.1-0.4,2.2-0.6,3.3c-0.1,1-0.3,1.9-0.3,2.9c0,0.3,0,0.6,0,0.8
		c0,0.2,0,0.4-0.2,0.5c-0.2,0.2-0.5,0.2-0.7,0.2c-0.4,0.1-0.8,0.2-1.2,0.3c-0.2,0-0.4,0.1-0.7,0.1s-0.5,0.1-0.8,0.1
		c-0.2,0-0.4,0.1-0.5,0c0,0,0,0-0.1,0c-0.1-0.1-0.2-0.4-0.2-0.6s0-0.5,0-0.7c0-0.5,0.1-1,0.1-1.5c0.1-0.4,0.1-0.8,0.2-1.3
		c0.1-0.5,0.2-1.1,0.3-1.6c0.1-0.6,0.3-1.3,0.4-1.9c0-0.1,0-0.2,0.1-0.3c0.8-3.5,1.1-6.1,1.1-8c0-0.4-0.1-0.8-0.3-1.2
		c-0.1-0.3-0.2-0.5-0.4-0.8c-0.1-0.1-0.2-0.2-0.3-0.4c-0.1-0.1-0.2-0.2-0.1-0.4C132.8,16.4,132.9,16.3,133,16.3z"/>
	<path id="XMLID_58_" class="st0" d="M169.1,24.8c0,1.2-0.5,2.2-1.6,3c-0.4,0.3-0.8,0.4-1.2,0.6c-0.2,0.1-0.5,0.2-0.7,0.2
		c-0.5,0.2-1.1,0.3-1.7,0.3c-1.2,0.1-2.5-0.1-3.4-0.8c-0.8-0.6-1.1-1.5-0.6-2.4c0.4-0.8,1.4-1.4,2.4-1.3c1,0.2,1.5,1.2,1.8,2
		c0.1,0.2,0.1,0.4,0.2,0.6c0.1,0.3,0.3,0.5,0.6,0.4s0.6-0.3,0.7-0.6c0-0.1,0.1-0.2,0.1-0.4c0-0.9-0.8-2.1-2.3-3.8
		c-1.6-1.6-2.3-2.9-2.3-3.9s0.4-1.7,1.3-2.2c0.9-0.5,1.9-0.8,3.1-0.8s2.1,0.2,2.8,0.7c0.6,0.4,0.9,1,0.9,1.8c0,0.7-0.6,1.8-1.8,3.1
		c0.1,0.1,0.3,0.3,0.5,0.5c0.2,0.2,0.5,0.6,0.8,1.3C168.9,23.7,169.1,24.3,169.1,24.8z M167.5,18.2c0-0.7-0.5-1-1.4-1
		c-0.4,0-0.8,0.1-1.1,0.3c-0.3,0.2-0.4,0.4-0.4,0.6c0,0.4,0.4,1,1.3,1.8l0.4,0.4C167.1,19.6,167.5,18.9,167.5,18.2z"/>
	<path id="XMLID_2_" class="st0" d="M146.8,16.3c0.1,0,0.3-0.1,0.4-0.1c0.2-0.1,0.5-0.1,0.7-0.1c0.6-0.1,1.3-0.1,1.9-0.1
		c0.4,0,0.8,0,1.3,0c0.1,0,0.3-0.1,0.4,0.1c0.1,0.1,0.1,0.2,0.1,0.4c0,0.1,0.1,0.3,0.1,0.4c0,0.1,0.1,0.3,0.1,0.4c0,0.1,0,0.2,0,0.2
		v0.2c1.5-1.2,2.7-1.8,3.7-1.8s1.8,0.4,2.4,1.2c0.6,0.8,0.9,2,0.9,3.6c0,2.8-0.5,4.9-1.5,6.2c-1,1.3-2.4,2.1-4.1,2
		c-0.5,0-1.1-0.1-1.6-0.2c-0.2-0.1-0.5-0.2-0.5-0.4c0-0.1,0-0.4,0.2-0.5c0.1-0.1,0.2-0.1,0.4-0.2c0.1-0.1,0.3-0.2,0.4-0.2
		c0.3-0.2,0.5-0.4,0.8-0.6c0.6-0.5,1-1.2,1.3-1.9c0.7-1.5,1-3.5,0.5-5.1c-0.2-0.5-0.4-1-0.9-1.2c-0.4-0.1-0.8,0-1.1,0.3
		c-0.9,0.7-1.1,2-1.2,3.1c-0.2,1.7-0.5,3.3-0.9,5c-0.2,1.1-0.4,2.2-0.6,3.3c-0.1,1-0.3,1.9-0.3,2.9c0,0.3,0,0.6,0,0.8
		c0,0.2,0,0.4-0.2,0.5c-0.2,0.2-0.5,0.2-0.7,0.2c-0.4,0.1-0.8,0.2-1.2,0.3c-0.2,0-0.4,0.1-0.7,0.1c-0.3,0-0.5,0.1-0.8,0.1
		c-0.2,0-0.4,0.1-0.5,0c0,0,0,0-0.1,0c-0.1-0.1-0.2-0.4-0.2-0.6s0-0.5,0-0.7c0-0.5,0.1-1,0.1-1.5c0.1-0.4,0.1-0.8,0.2-1.3
		c0.1-0.5,0.2-1.1,0.3-1.6c0.1-0.6,0.3-1.3,0.4-1.9c0-0.1,0-0.2,0.1-0.3c0.8-3.5,1.1-6.1,1.1-8c0-0.4-0.1-0.8-0.3-1.2
		c-0.1-0.3-0.2-0.5-0.4-0.8c-0.1-0.1-0.2-0.2-0.3-0.4c-0.1-0.1-0.2-0.2-0.1-0.4C146.6,16.4,146.7,16.3,146.8,16.3z"/>
</g>
<text id="XMLID_25_" transform="matrix(1 0 0 1 233.7701 25.9967)" class="st2 st3 st4">Status</text>
<g id="XMLID_27_" class="st5">
	<g id="XMLID_26_" class="st6">
		<path id="XMLID_353_" class="st0" d="M284.3,34.6c0,0.6-0.4,1-1,1h-53.6c-0.6,0-1-0.4-1-1V10.9c0-0.5,0.4-1,1-1h53.6
			c0.6,0,1,0.4,1,1L284.3,34.6L284.3,34.6z"/>
	</g>
	<polygon id="XMLID_1_" class="st7" points="224.7,26.7 228.8,17.4 232.9,26.7 	"/>
</g>
</svg>
