<?xml version="1.0" encoding="utf-8"?>
<!-- Generator: Adobe Illustrator 19.0.0, SVG Export Plug-In . SVG Version: 6.00 Build 0)  -->
<svg version="1.1" id="Layer_1" xmlns="http://www.w3.org/2000/svg" xmlns:xlink="http://www.w3.org/1999/xlink" x="0px" y="0px"
	 viewBox="0 0 60 60" style="enable-background:new 0 0 60 60;" xml:space="preserve">
<style type="text/css">
	.st0{opacity:0.5;fill:#3BB878;}
	.st1{opacity:0.7;fill:#3BB878;}
	.st2{opacity:0.7;fill:#EF3740;}
	.st3{opacity:0.5;fill:#EF3740;}
</style>
<g id="XMLID_5_">
	<g id="XMLID_22_">
		<path id="XMLID_24_" class="st0" d="M27.2,17.3c0.4-0.7,0.7-1.5,0.7-2.3c0-1-0.3-1.8-1-2.6c-0.7-0.7-1.5-1.1-2.5-1.1H22
			c0.4-0.9,0.7-1.9,0.7-2.7c0-1.1-0.2-2-0.5-2.7c-0.3-0.7-0.8-1.1-1.4-1.5C20.2,4.1,19.5,4,18.7,4c-0.5,0-0.9,0.2-1.2,0.5
			c-0.4,0.4-0.7,0.9-0.9,1.5c-0.2,0.6-0.3,1.2-0.4,1.8c-0.1,0.6-0.3,1-0.5,1.2c-0.4,0.5-0.9,1.1-1.5,1.8c-0.9,1.2-1.6,2-1.9,2.2h-8
			c-0.5,0-0.9,0.2-1.2,0.5C2.8,14,2.6,14.5,2.6,15v9.1c0,0.5,0.2,0.9,0.5,1.3c0.3,0.4,0.8,0.5,1.2,0.5h8.2c0.2,0,0.8,0.2,1.9,0.6
			c1.1,0.4,2.1,0.7,3,0.9c0.9,0.2,1.7,0.3,2.6,0.3h1.8c1.3,0,2.3-0.4,3.1-1.2c0.8-0.8,1.2-1.8,1.2-3.1c0.5-0.7,0.8-1.6,0.8-2.5
			c0-0.2,0-0.4,0-0.6c0.3-0.6,0.5-1.3,0.5-2.1C27.4,17.9,27.3,17.6,27.2,17.3z M10.9,24.1c0,0.4-0.3,0.7-0.6,0.7H4.4
			c-0.3,0-0.6-0.3-0.6-0.7v-9.2c0-0.4,0.3-0.7,0.6-0.7h5.9c0.3,0,0.6,0.3,0.6,0.7V24.1z M25.9,16.1c-0.2,0.4-0.4,0.7-0.7,0.7
			c0.1,0.2,0.3,0.4,0.3,0.7c0.1,0.3,0.1,0.6,0.1,0.8c0,0.7-0.2,1.2-0.7,1.7c0.2,0.3,0.2,0.6,0.2,1c0,0.4-0.1,0.7-0.2,1.1
			c-0.2,0.3-0.4,0.6-0.7,0.8c0,0.3,0.1,0.6,0.1,0.8c0,1.6-0.9,2.4-2.6,2.4H20c-1.2,0-2.8-0.3-4.7-1c0,0-0.2-0.1-0.4-0.2
			c-0.2-0.1-0.4-0.1-0.5-0.2c-0.1,0-0.3-0.1-0.5-0.2c-0.2-0.1-0.4-0.1-0.5-0.2c-0.1,0-0.3-0.1-0.5-0.1c-0.2,0-0.3,0-0.4,0h-0.4V15
			h0.4c0.1,0,0.3,0,0.5-0.1c0.2-0.1,0.4-0.2,0.5-0.4c0.2-0.2,0.4-0.3,0.5-0.5c0.2-0.2,0.3-0.4,0.5-0.6c0.2-0.3,0.4-0.5,0.5-0.6
			c0.1-0.2,0.3-0.3,0.4-0.6c0.2-0.2,0.3-0.4,0.3-0.4c0.5-0.6,0.9-1.1,1.1-1.3c0.4-0.4,0.6-0.9,0.8-1.6c0.2-0.6,0.3-1.2,0.4-1.8
			c0.1-0.6,0.3-1,0.5-1.2c0.9,0,1.5,0.2,1.8,0.7c0.3,0.4,0.4,1.1,0.4,2.1c0,0.6-0.2,1.3-0.7,2.3c-0.4,1-0.7,1.7-0.7,2.3h4.8
			c0.5,0,0.9,0.2,1.2,0.5c0.4,0.4,0.5,0.8,0.5,1.3C26.2,15.3,26.1,15.7,25.9,16.1z"/>
		<ellipse id="XMLID_23_" class="st0" cx="6.4" cy="22.1" rx="0.7" ry="0.7"/>
	</g>
	<g id="XMLID_16_">
		<path id="XMLID_18_" class="st1" d="M27.2,45.3c0.4-0.7,0.7-1.5,0.7-2.3c0-1-0.3-1.8-1-2.6c-0.7-0.7-1.5-1.1-2.5-1.1H22
			c0.4-0.9,0.7-1.9,0.7-2.7c0-1.1-0.2-2-0.5-2.7c-0.3-0.7-0.8-1.1-1.4-1.5c-0.6-0.3-1.3-0.5-2.1-0.5c-0.5,0-0.9,0.2-1.2,0.5
			c-0.4,0.4-0.7,0.9-0.9,1.5c-0.2,0.6-0.3,1.2-0.4,1.8c-0.1,0.6-0.3,1-0.5,1.2c-0.4,0.5-0.9,1.1-1.5,1.8c-0.9,1.2-1.6,2-1.9,2.2h-8
			c-0.5,0-0.9,0.2-1.2,0.5C2.8,42,2.6,42.5,2.6,43v9.1c0,0.5,0.2,0.9,0.5,1.3C3.5,53.8,3.9,54,4.4,54h8.2c0.2,0,0.8,0.2,1.9,0.6
			c1.1,0.4,2.1,0.7,3,0.9c0.9,0.2,1.7,0.3,2.6,0.3h1.8c1.3,0,2.3-0.4,3.1-1.2c0.8-0.8,1.2-1.8,1.2-3.1c0.5-0.7,0.8-1.6,0.8-2.5
			c0-0.2,0-0.4,0-0.6c0.3-0.6,0.5-1.3,0.5-2.1C27.4,45.9,27.3,45.6,27.2,45.3z M10.9,52.1c0,0.4-0.3,0.7-0.6,0.7H4.4
			c-0.3,0-0.6-0.3-0.6-0.7v-9.2c0-0.4,0.3-0.7,0.6-0.7h5.9c0.3,0,0.6,0.3,0.6,0.7V52.1z M25.9,44.1c-0.2,0.4-0.4,0.7-0.7,0.7
			c0.1,0.2,0.3,0.4,0.3,0.7c0.1,0.3,0.1,0.6,0.1,0.8c0,0.7-0.2,1.2-0.7,1.7c0.2,0.3,0.2,0.6,0.2,1c0,0.4-0.1,0.7-0.2,1.1
			c-0.2,0.3-0.4,0.6-0.7,0.8c0,0.3,0.1,0.6,0.1,0.8c0,1.6-0.9,2.4-2.6,2.4H20c-1.2,0-2.8-0.3-4.7-1c0,0-0.2-0.1-0.4-0.2
			c-0.2-0.1-0.4-0.1-0.5-0.2c-0.1,0-0.3-0.1-0.5-0.2c-0.2-0.1-0.4-0.1-0.5-0.2c-0.1,0-0.3-0.1-0.5-0.1c-0.2,0-0.3,0-0.4,0h-0.4V43
			h0.4c0.1,0,0.3,0,0.5-0.1c0.2-0.1,0.4-0.2,0.5-0.4c0.2-0.2,0.4-0.3,0.5-0.5c0.2-0.2,0.3-0.4,0.5-0.6c0.2-0.3,0.4-0.5,0.5-0.6
			c0.1-0.2,0.3-0.3,0.4-0.6c0.2-0.2,0.3-0.4,0.3-0.4c0.5-0.6,0.9-1.1,1.1-1.3c0.4-0.4,0.6-0.9,0.8-1.6c0.2-0.6,0.3-1.2,0.4-1.8
			c0.1-0.6,0.3-1,0.5-1.2c0.9,0,1.5,0.2,1.8,0.7c0.3,0.4,0.4,1.1,0.4,2.1c0,0.6-0.2,1.3-0.7,2.3c-0.4,1-0.7,1.7-0.7,2.3h4.8
			c0.5,0,0.9,0.2,1.2,0.5c0.4,0.4,0.5,0.8,0.5,1.3C26.2,43.3,26.1,43.7,25.9,44.1z"/>
		<ellipse id="XMLID_17_" class="st1" cx="6.1" cy="49.9" rx="0.7" ry="0.7"/>
	</g>
	<g id="XMLID_3_">
		<path id="XMLID_6_" class="st2" d="M56.9,42.5c0.4,0.7,0.7,1.5,0.7,2.3c0,1-0.3,1.8-1,2.6c-0.7,0.7-1.5,1.1-2.5,1.1h-2.4
			c0.4,0.9,0.7,1.9,0.7,2.7c0,1.1-0.2,2-0.5,2.7c-0.3,0.7-0.8,1.1-1.4,1.5c-0.6,0.3-1.3,0.5-2.1,0.5c-0.5,0-0.9-0.2-1.2-0.5
			c-0.4-0.4-0.7-0.9-0.9-1.5c-0.2-0.6-0.3-1.2-0.4-1.8c-0.1-0.6-0.3-1-0.5-1.2c-0.4-0.5-0.9-1.1-1.5-1.8c-0.9-1.2-1.6-2-1.9-2.2h-8
			c-0.5,0-0.9-0.2-1.2-0.5c-0.3-0.4-0.5-0.8-0.5-1.3v-9.1c0-0.5,0.2-0.9,0.5-1.3c0.3-0.4,0.8-0.5,1.2-0.5h8.2c0.2,0,0.8-0.2,1.9-0.6
			c1.1-0.4,2.1-0.7,3-0.9c0.9-0.2,1.7-0.3,2.6-0.3h1.8c1.3,0,2.3,0.4,3.1,1.2c0.8,0.8,1.2,1.8,1.2,3.1c0.5,0.7,0.8,1.6,0.8,2.5
			c0,0.2,0,0.4,0,0.6c0.3,0.6,0.5,1.3,0.5,2.1C57,41.8,57,42.2,56.9,42.5z M40.5,35.7c0-0.4-0.3-0.7-0.6-0.7H34
			c-0.3,0-0.6,0.3-0.6,0.7v9.2c0,0.4,0.3,0.7,0.6,0.7h5.9c0.3,0,0.6-0.3,0.6-0.7V35.7z M55.5,43.6c-0.2-0.4-0.4-0.7-0.7-0.7
			c0.1-0.2,0.3-0.4,0.3-0.7c0.1-0.3,0.1-0.6,0.1-0.8c0-0.7-0.2-1.2-0.7-1.7c0.2-0.3,0.2-0.6,0.2-1c0-0.4-0.1-0.7-0.2-1.1
			c-0.2-0.3-0.4-0.6-0.7-0.8c0-0.3,0.1-0.6,0.1-0.8c0-1.6-0.9-2.4-2.6-2.4h-1.7c-1.2,0-2.8,0.3-4.7,1c0,0-0.2,0.1-0.4,0.2
			c-0.2,0.1-0.4,0.1-0.5,0.2c-0.1,0-0.3,0.1-0.5,0.2c-0.2,0.1-0.4,0.1-0.5,0.2c-0.1,0-0.3,0.1-0.5,0.1c-0.2,0-0.3,0-0.4,0h-0.4v9.1
			h0.4c0.1,0,0.3,0,0.5,0.1c0.2,0.1,0.4,0.2,0.5,0.4c0.2,0.2,0.4,0.3,0.5,0.5c0.2,0.2,0.3,0.4,0.5,0.6c0.2,0.3,0.4,0.5,0.5,0.6
			c0.1,0.2,0.3,0.3,0.4,0.6c0.2,0.2,0.3,0.4,0.3,0.4c0.5,0.6,0.9,1.1,1.1,1.3c0.4,0.4,0.6,0.9,0.8,1.6c0.2,0.6,0.3,1.2,0.4,1.8
			c0.1,0.6,0.3,1,0.5,1.2c0.9,0,1.5-0.2,1.8-0.7c0.3-0.4,0.4-1.1,0.4-2.1c0-0.6-0.2-1.3-0.7-2.3c-0.4-1-0.7-1.7-0.7-2.3H54
			c0.5,0,0.9-0.2,1.2-0.5c0.4-0.4,0.5-0.8,0.5-1.3C55.8,44.5,55.7,44.1,55.5,43.6z"/>
		<ellipse id="XMLID_4_" class="st2" cx="35.8" cy="37.6" rx="0.7" ry="0.7"/>
	</g>
	<g id="XMLID_2_">
		<path id="XMLID_28_" class="st3" d="M56.9,14.5c0.4,0.7,0.7,1.5,0.7,2.3c0,1-0.3,1.8-1,2.6c-0.7,0.7-1.5,1.1-2.5,1.1h-2.4
			c0.4,0.9,0.7,1.9,0.7,2.7c0,1.1-0.2,2-0.5,2.7c-0.3,0.7-0.8,1.1-1.4,1.5c-0.6,0.3-1.3,0.5-2.1,0.5c-0.5,0-0.9-0.2-1.2-0.5
			c-0.4-0.4-0.7-0.9-0.9-1.5c-0.2-0.6-0.3-1.2-0.4-1.8c-0.1-0.6-0.3-1-0.5-1.2c-0.4-0.5-0.9-1.1-1.5-1.8c-0.9-1.2-1.6-2-1.9-2.2h-8
			c-0.5,0-0.9-0.2-1.2-0.5c-0.3-0.4-0.5-0.8-0.5-1.3V7.6c0-0.5,0.2-0.9,0.5-1.3C33.1,6,33.5,5.8,34,5.8h8.2c0.2,0,0.8-0.2,1.9-0.6
			c1.1-0.4,2.1-0.7,3-0.9C47.9,4.1,48.8,4,49.7,4h1.8c1.3,0,2.3,0.4,3.1,1.2c0.8,0.8,1.2,1.8,1.2,3.1c0.5,0.7,0.8,1.6,0.8,2.5
			c0,0.2,0,0.4,0,0.6c0.3,0.6,0.5,1.3,0.5,2.1C57,13.8,57,14.2,56.9,14.5z M40.5,7.6c0-0.4-0.3-0.7-0.6-0.7H34
			c-0.3,0-0.6,0.3-0.6,0.7v9.2c0,0.4,0.3,0.7,0.6,0.7h5.9c0.3,0,0.6-0.3,0.6-0.7V7.6z M55.5,15.6c-0.2-0.4-0.4-0.7-0.7-0.7
			c0.1-0.2,0.3-0.4,0.3-0.7c0.1-0.3,0.1-0.6,0.1-0.8c0-0.7-0.2-1.2-0.7-1.7c0.2-0.3,0.2-0.6,0.2-1c0-0.4-0.1-0.7-0.2-1.1
			c-0.2-0.3-0.4-0.6-0.7-0.8c0-0.3,0.1-0.6,0.1-0.8c0-1.6-0.9-2.4-2.6-2.4h-1.7c-1.2,0-2.8,0.3-4.7,1c0,0-0.2,0.1-0.4,0.2
			c-0.2,0.1-0.4,0.1-0.5,0.2c-0.1,0-0.3,0.1-0.5,0.2c-0.2,0.1-0.4,0.1-0.5,0.2c-0.1,0-0.3,0.1-0.5,0.1c-0.2,0-0.3,0-0.4,0h-0.4v9.1
			h0.4c0.1,0,0.3,0,0.5,0.1c0.2,0.1,0.4,0.2,0.5,0.4c0.2,0.2,0.4,0.3,0.5,0.5c0.2,0.2,0.3,0.4,0.5,0.6c0.2,0.3,0.4,0.5,0.5,0.6
			c0.1,0.2,0.3,0.3,0.4,0.6c0.2,0.2,0.3,0.4,0.3,0.4c0.5,0.6,0.9,1.1,1.1,1.3c0.4,0.4,0.6,0.9,0.8,1.6c0.2,0.6,0.3,1.2,0.4,1.8
			c0.1,0.6,0.3,1,0.5,1.2c0.9,0,1.5-0.2,1.8-0.7c0.3-0.4,0.4-1.1,0.4-2.1c0-0.6-0.2-1.3-0.7-2.3c-0.4-1-0.7-1.7-0.7-2.3H54
			c0.5,0,0.9-0.2,1.2-0.5c0.4-0.4,0.5-0.8,0.5-1.3C55.8,16.5,55.7,16.1,55.5,15.6z"/>
		<ellipse id="XMLID_1_" class="st3" cx="35.5" cy="9.1" rx="0.7" ry="0.7"/>
	</g>
</g>
</svg>
