<?xml version="1.0" encoding="utf-8"?>
<!-- Generator: Adobe Illustrator 19.0.0, SVG Export Plug-In . SVG Version: 6.00 Build 0)  -->
<svg version="1.1" id="Layer_1" xmlns="http://www.w3.org/2000/svg" xmlns:xlink="http://www.w3.org/1999/xlink" x="0px" y="0px"
	 viewBox="0 0 8 8" style="enable-background:new 0 0 8 8;" xml:space="preserve">
<style type="text/css">
	.st0{fill:#5FA9DD;}
	.st1{fill:#FFFFFF;}
</style>
<g id="XMLID_91_">
	<path id="XMLID_93_" class="st0" d="M4,7.7C6,7.7,7.7,6,7.7,4C7.7,2,6,0.3,4,0.3C2,0.3,0.3,2,0.3,4C0.3,6,2,7.7,4,7.7"/>
	<path id="XMLID_92_" class="st1" d="M6.1,2.9C6,2.9,5.8,3,5.6,3C5.8,2.9,5.9,2.7,6,2.5C5.8,2.6,5.7,2.7,5.5,2.7
		C5.3,2.6,5.1,2.5,4.8,2.5c-0.5,0-0.9,0.4-0.9,0.9c0,0.1,0,0.1,0,0.2c-0.7,0-1.4-0.4-1.8-0.9C2.1,2.7,2.1,2.9,2.1,3.1
		c0,0.3,0.2,0.6,0.4,0.7c-0.1,0-0.3,0-0.4-0.1v0c0,0.4,0.3,0.8,0.7,0.9c-0.1,0-0.2,0-0.2,0c-0.1,0-0.1,0-0.2,0
		c0.1,0.3,0.4,0.6,0.8,0.6C2.9,5.4,2.5,5.5,2.1,5.5c-0.1,0-0.1,0-0.2,0c0.4,0.2,0.8,0.4,1.3,0.4c1.6,0,2.5-1.3,2.5-2.5
		c0,0,0-0.1,0-0.1C5.9,3.2,6,3,6.1,2.9"/>
</g>
</svg>
