<?xml version="1.0" encoding="utf-8"?>
<!-- Generator: Adobe Illustrator 19.0.0, SVG Export Plug-In . SVG Version: 6.00 Build 0)  -->
<svg version="1.1" id="Layer_1" xmlns="http://www.w3.org/2000/svg" xmlns:xlink="http://www.w3.org/1999/xlink" x="0px" y="0px"
	 viewBox="0 0 35 35" style="enable-background:new 0 0 35 35;" xml:space="preserve">
<style type="text/css">
	.st0{fill:#5FA9DD;}
	.st1{fill:#FFFFFF;}
</style>
<g id="XMLID_90_">
	<path id="XMLID_16_" class="st0" d="M17.5,32.5c8.3,0,15-6.7,15-15c0-8.3-6.7-15-15-15c-8.3,0-15,6.7-15,15
		C2.5,25.8,9.2,32.5,17.5,32.5"/>
	<path id="XMLID_15_" class="st1" d="M25,13.6c-0.6,0.2-1.1,0.4-1.8,0.5c0.6-0.4,1.1-1,1.4-1.7c-0.6,0.4-1.3,0.6-2,0.7
		c-0.6-0.6-1.4-1-2.2-1c-1.7,0-3.1,1.4-3.1,3.1c0,0.2,0,0.5,0.1,0.7c-2.6-0.1-4.8-1.4-6.4-3.2c-0.3,0.5-0.4,1-0.4,1.6
		c0,1.1,0.5,2,1.4,2.6c-0.5,0-1-0.2-1.4-0.4v0c0,1.5,1.1,2.7,2.5,3c-0.3,0.1-0.5,0.1-0.8,0.1c-0.2,0-0.4,0-0.6-0.1
		c0.4,1.2,1.5,2.1,2.9,2.1c-1.1,0.8-2.4,1.3-3.8,1.3c-0.2,0-0.5,0-0.7,0c1.4,0.9,3,1.4,4.7,1.4c5.7,0,8.8-4.7,8.8-8.8
		c0-0.1,0-0.3,0-0.4C24.1,14.7,24.6,14.2,25,13.6"/>
</g>
</svg>
