<?xml version="1.0" encoding="utf-8"?>
<!-- Generator: Adobe Illustrator 19.0.0, SVG Export Plug-In . SVG Version: 6.00 Build 0)  -->
<svg version="1.1" id="Layer_1" xmlns="http://www.w3.org/2000/svg" xmlns:xlink="http://www.w3.org/1999/xlink" x="0px" y="0px"
	 viewBox="-126 72.6 8 8" style="enable-background:new -126 72.6 8 8;" xml:space="preserve">
<style type="text/css">
	.st0{fill:#3BB878;}
	.st1{fill:#FFFFFF;}
</style>
<path id="XMLID_93_" class="st0" d="M-122,80.3c2,0,3.7-1.7,3.7-3.7s-1.7-3.7-3.7-3.7s-3.7,1.7-3.7,3.7S-124,80.3-122,80.3"/>
<g>
	<path class="st1" d="M-120.1,74.7c-0.5-0.5-1.2-0.8-1.9-0.8s-1.4,0.3-1.9,0.8c-0.5,0.5-0.8,1.2-0.8,1.9s0.3,1.4,0.8,1.9
		c0.5,0.5,1.2,0.8,1.9,0.8s1.4-0.3,1.9-0.8c0.5-0.5,0.8-1.2,0.8-1.9S-119.5,75.2-120.1,74.7L-120.1,74.7z M-119.5,76.5h-1.1
		c0-0.4-0.1-0.8-0.2-1.2c0.2-0.1,0.4-0.2,0.6-0.4C-119.8,75.3-119.5,75.9-119.5,76.5L-119.5,76.5z M-121.9,76.8h1.1
		c0,0.4-0.1,0.8-0.2,1.1c-0.3-0.1-0.6-0.2-0.9-0.2V76.8z M-120.3,74.8c-0.1,0.1-0.3,0.2-0.5,0.3c0-0.1-0.1-0.2-0.1-0.3
		c-0.1-0.2-0.2-0.4-0.4-0.5C-121,74.3-120.6,74.5-120.3,74.8L-120.3,74.8z M-121.9,74.2c0.3,0.1,0.5,0.3,0.7,0.7
		c0.1,0.1,0.1,0.2,0.1,0.3c-0.3,0.1-0.5,0.2-0.8,0.2V74.2z M-121,75.4c0.1,0.3,0.1,0.7,0.2,1.1h-1.1v-0.9
		C-121.6,75.6-121.3,75.5-121,75.4L-121,75.4z M-122.1,76.5h-1.1c0-0.4,0.1-0.8,0.2-1.1c0.3,0.1,0.6,0.2,0.9,0.2L-122.1,76.5
		L-122.1,76.5z M-122.1,74.2v1.2c-0.3,0-0.6-0.1-0.8-0.2c0-0.1,0.1-0.2,0.1-0.3C-122.6,74.5-122.4,74.2-122.1,74.2L-122.1,74.2z
		 M-122.7,74.2c-0.1,0.1-0.3,0.3-0.4,0.5c-0.1,0.1-0.1,0.2-0.1,0.3c-0.2-0.1-0.3-0.2-0.5-0.3C-123.4,74.5-123,74.3-122.7,74.2
		L-122.7,74.2z M-123.8,74.9c0.2,0.2,0.4,0.3,0.6,0.4c-0.1,0.4-0.2,0.8-0.2,1.2h-1.1C-124.5,75.9-124.2,75.3-123.8,74.9L-123.8,74.9
		z M-124.5,76.8h1.1c0,0.4,0.1,0.8,0.2,1.2c-0.2,0.1-0.4,0.2-0.6,0.4C-124.2,77.9-124.5,77.4-124.5,76.8L-124.5,76.8z M-123.6,78.5
		c0.1-0.1,0.3-0.2,0.5-0.3c0,0.1,0.1,0.2,0.1,0.3c0.1,0.2,0.2,0.4,0.4,0.5C-123,79-123.4,78.8-123.6,78.5L-123.6,78.5z M-122.1,79.1
		c-0.3-0.1-0.5-0.3-0.7-0.7c-0.1-0.1-0.1-0.2-0.1-0.3c0.3-0.1,0.5-0.2,0.8-0.2V79.1z M-123,77.9c-0.1-0.3-0.1-0.7-0.2-1.1h1.1v0.9
		C-122.4,77.7-122.7,77.7-123,77.9L-123,77.9z M-121.9,79.1v-1.2c0.3,0,0.6,0.1,0.8,0.2c0,0.1-0.1,0.2-0.1,0.3
		C-121.4,78.8-121.6,79.1-121.9,79.1L-121.9,79.1z M-121.3,79.1c0.1-0.1,0.3-0.3,0.4-0.5c0.1-0.1,0.1-0.2,0.1-0.3
		c0.2,0.1,0.3,0.2,0.5,0.3C-120.6,78.8-121,79-121.3,79.1L-121.3,79.1z M-120.2,78.4c-0.2-0.2-0.4-0.3-0.6-0.4
		c0.1-0.4,0.2-0.8,0.2-1.2h1.1C-119.5,77.4-119.8,77.9-120.2,78.4L-120.2,78.4z M-120.2,78.4"/>
</g>
</svg>
