<?xml version="1.0" encoding="utf-8"?>
<!-- Generator: Adobe Illustrator 21.1.0, SVG Export Plug-In . SVG Version: 6.00 Build 0)  -->
<svg version="1.1" id="Layer_1" xmlns="http://www.w3.org/2000/svg" xmlns:xlink="http://www.w3.org/1999/xlink" x="0px" y="0px"
	 viewBox="0 0 2500 2500" style="enable-background:new 0 0 2500 2500;" xml:space="preserve">
<style type="text/css">
	.st0{fill:#193651;}
	.st1{fill:#D3D7DA;}
	.st2{fill:#FFFFFF;}
	.st3{fill:#FDBF5E;}
	.st4{fill:#F16051;}
	.st5{fill:#2EA2DB;}
	.st6{fill:#4FBF9F;}
</style>
<g>
	<rect x="83" y="1215.4" class="st0" width="74.3" height="74.3"/>
	<rect x="2340.3" y="1215.4" class="st0" width="74.3" height="74.3"/>
	
		<rect x="416" y="2012.7" transform="matrix(0.7071 -0.7071 0.7071 0.7071 -1316.7084 920.8088)" class="st0" width="74.3" height="74.3"/>
	
		<rect x="2007.5" y="418.3" transform="matrix(0.7071 -0.7071 0.7071 0.7071 276.8201 1579.129)" class="st0" width="74.3" height="74.3"/>
	
		<rect x="2009.2" y="2010.6" transform="matrix(0.7071 -0.7071 0.7071 0.7071 -848.6376 2046.7087)" class="st0" width="74.3" height="74.3"/>
	
		<rect x="414.9" y="419.5" transform="matrix(0.7071 -0.7071 0.7071 0.7071 -190.4466 453.3879)" class="st0" width="74.3" height="74.3"/>
</g>
<path class="st1" d="M2065.6,1776l193.1,40.8l115.1-297L2203,1419.6c22.3-126.2,18.6-256.2-7.4-378.7l167.1-107.7l-129.9-293.3
	L2047,695.6c-70.5-104-163.4-193.1-271-259.9l40.8-193.1l-297-115.1l-100.2,170.8c-126.2-22.3-256.2-18.6-378.7,7.4L933.2,138.7
	L639.9,268.7L688.2,458c-104,70.5-193.1,163.4-259.9,271l-193.1-40.8l-115.1,297l170.8,100.2c-22.3,126.2-18.6,256.2,7.4,378.7
	l-167.1,107.7l129.9,293.3l189.3-48.3c70.5,104,163.4,193.1,271,259.9l-40.8,193.1l297,115.1l100.2-170.8
	c126.2,22.3,256.2,18.6,378.7-7.4l107.7,167.1l293.3-129.9l-52-193.1C1909.7,1976.5,1998.8,1887.4,2065.6,1776z"/>
<circle class="st2" cx="1248.8" cy="1252.5" r="735.1"/>
<g>
	<path class="st0" d="M2247.5,1404.7c18.6-115.1,14.9-226.5-7.4-341.6l170.8-111.4l-152.2-352.7l-196.8,52
		c-66.8-92.8-152.2-170.8-245-237.6l44.6-196.8L1505,75.6l-104,174.5c-111.4-18.6-226.5-14.9-341.6,7.4L951.8,86.7L599.1,239
		l52,196.8c-92.8,66.8-170.8,152.2-237.6,245l-196.8-44.6L75.6,992.6l174.5,104c-18.6,115.1-14.9,226.5,7.4,341.6L86.7,1545.8
		L239,1898.5l196.8-52c66.8,92.8,152.2,170.8,245,237.6l-44.6,196.8L992.6,2422l104-174.5c111.4,18.6,230.2,14.9,341.6-7.4
		l107.7,170.8l352.7-152.2l-52-196.8c92.8-66.8,170.8-152.2,237.6-245l196.8,44.6L2422,1505L2247.5,1404.7z M2236.4,1776
		l-185.6-40.8l-14.9,22.3c-66.8,104-152.2,189.3-252.5,259.9l-18.6,14.9l48.3,185.6l-233.9,104l-104-159.6l-26,3.7
		c-118.8,26-241.3,29.7-363.8,7.4l-26-3.7l-96.5,163.4l-237.6-92.8l40.8-185.6l-22.3-14.9c-104-66.8-189.3-152.2-259.9-252.5
		l-14.9-18.6l-185.6,48.3l-104-233.9l159.6-104l-3.7-26c-26-118.8-29.7-241.3-7.4-363.8l3.7-26l-163.4-96.5L261.2,729l185.6,40.8
		l14.9-22.3c66.8-104,152.2-193.1,252.5-259.9l22.3-14.9l-48.3-185.6l233.9-104l104,159.6l26-3.7c118.8-26,241.3-29.7,363.8-7.4
		l26,3.7l96.5-163.4l237.6,92.8l-40.8,185.6l22.3,14.9c104,66.8,189.3,152.2,259.9,252.5l14.9,22.3l185.6-48.3l104,233.9l-159.6,104
		l3.7,26c26,118.8,29.7,241.3,7.4,363.8l-3.7,26l163.4,96.5L2236.4,1776z"/>
	<path class="st0" d="M1248.8,480.3c-427,0-772.2,345.3-772.2,772.2s345.3,772.2,772.2,772.2s772.2-345.3,772.2-772.2
		S1675.8,480.3,1248.8,480.3z M1248.8,1950.5c-386.1,0-698-311.9-698-698s311.9-698,698-698s698,311.9,698,698
		S1634.9,1950.5,1248.8,1950.5z"/>
</g>
<path class="st3" d="M855.3,1360.2v248.7c0,22.3,14.9,37.1,37.1,37.1h248.7c22.3,0,37.1-14.9,37.1-37.1v-248.7
	c0-22.3-14.9-37.1-37.1-37.1H892.4C873.8,1323.1,855.3,1337.9,855.3,1360.2z"/>
<path class="st4" d="M1642.3,1144.8V896.1c0-22.3-14.9-37.1-37.1-37.1h-248.7c-22.3,0-37.1,14.9-37.1,37.1v248.7
	c0,22.3,14.9,37.1,37.1,37.1h248.7C1623.8,1182,1642.3,1167.1,1642.3,1144.8z"/>
<path class="st5" d="M1141.1,859H892.4c-22.3,0-37.1,14.9-37.1,37.1v248.7c0,22.3,14.9,37.1,37.1,37.1h248.7
	c22.3,0,37.1-14.9,37.1-37.1V896.1C1178.3,877.5,1163.4,859,1141.1,859z"/>
<path class="st6" d="M1356.5,1646.1h248.7c22.3,0,37.1-14.9,37.1-37.1v-248.7c0-22.3-14.9-37.1-37.1-37.1h-248.7
	c-22.3,0-37.1,14.9-37.1,37.1v248.7C1319.3,1627.5,1334.2,1646.1,1356.5,1646.1z"/>
</svg>
