<?xml version="1.0" encoding="utf-8"?>
<!-- Generator: Adobe Illustrator 21.1.0, SVG Export Plug-In . SVG Version: 6.00 Build 0)  -->
<svg version="1.1" id="Layer_1" xmlns="http://www.w3.org/2000/svg" xmlns:xlink="http://www.w3.org/1999/xlink" x="0px" y="0px"
	 viewBox="0 0 2500 2500" style="enable-background:new 0 0 2500 2500;" xml:space="preserve">
<style type="text/css">
	.st0{fill:#303C42;}
	.st1{fill:#D32F2F;}
	.st2{opacity:0.2;fill:#FFFFFF;enable-background:new    ;}
	.st3{fill:#FFFFFF;}
	.st4{fill:#E6E6E6;}
	.st5{fill:url(#SVGID_1_);}
	.st6{fill:url(#SVGID_2_);}
</style>
<path class="st0" d="M2252.1,434.9c0-110.5-89.9-200.3-200.3-200.3h-300.5V84.3c0-27.7-22.4-50.1-50.1-50.1s-50.1,22.4-50.1,50.1
	v150.2H749.8V84.3c0-27.7-22.4-50.1-50.1-50.1c-27.7,0-50.1,22.4-50.1,50.1v150.2H249.1c-110.4,0-200.3,89.8-200.3,200.3v1602.4
	c0,110.5,89.9,200.3,200.3,200.3h1452.1v0l0.1,0c13,0,25.8-5.1,35.4-14.7l500.8-500.8c9.5-9.6,12.7-22.4,12.7-35.4h1.9L2252.1,434.9
	L2252.1,434.9z"/>
<path class="st1" d="M249.1,334.7h400.6v100.1c-55.3,0-100.1,44.9-100.1,100.1s44.9,100.2,100.1,100.2S749.8,590.2,749.8,535V334.7
	h901.4v100.1c-55.3,0-100.1,44.9-100.1,100.1s44.9,100.2,100.1,100.2c55.3,0,100.1-44.9,100.1-100.1V334.7h300.5
	c55.3,0,100.2,44.9,100.2,100.1v300.5h-2003V434.9C148.9,379.6,193.8,334.7,249.1,334.7z"/>
<g>
	<rect x="749.8" y="334.7" class="st2" width="901.4" height="50.1"/>
	<path class="st2" d="M249.1,384.8h400.6v-50.1H249.1c-55.3,0-100.1,44.9-100.1,100.1v50.1C148.9,429.7,193.8,384.8,249.1,384.8z"/>
	<path class="st2" d="M2051.8,334.7h-300.5v50.1h300.5c55.3,0,100.1,44.9,100.1,100.1v-50.1C2152,379.6,2107.1,334.7,2051.8,334.7z"
		/>
	<path class="st3" d="M1651.2,1837v300.5H249.1c-55.3,0-100.1-44.9-100.1-100.1V835.5h2003v801.2h-300.5
		C1741.1,1636.7,1651.2,1726.5,1651.2,1837z"/>
</g>
<path class="st4" d="M1751.4,2066.6V1837c0-55.2,44.9-100.1,100.1-100.1h229.6L1751.4,2066.6z"/>
<linearGradient id="SVGID_1_" gradientUnits="userSpaceOnUse" x1="524.1733" y1="962.6103" x2="589.8976" y2="1028.3346" gradientTransform="matrix(21.3333 0 0 21.3333 -10532.6475 -20200.9453)">
	<stop  offset="0" style="stop-color:#000000;stop-opacity:0.1"/>
	<stop  offset="1" style="stop-color:#000000;stop-opacity:0"/>
</linearGradient>
<path class="st5" d="M1651.2,2137.4V1837c0-110.5,89.9-200.3,200.3-200.3H2152V835.5h-2003l1302,1302H1651.2z"/>
<g>
	<path class="st0" d="M950.2,1135.9c-110.4,0-200.3,89.8-200.3,200.3c0,27.7,22.4,50.1,50.1,50.1c27.7,0,50.1-22.4,50.1-50.1
		c0-55.2,44.9-100.1,100.1-100.1c55.3,0,100.1,44.9,100.1,100.1c0,55.2-44.9,100.1-100.1,100.1c-27.7,0-50.1,22.4-50.1,50.1
		c0,27.7,22.4,50.1,50.1,50.1c55.3,0,100.1,44.9,100.1,100.1c0,55.2-44.9,100.1-100.1,100.1c-55.3,0-100.1-44.9-100.1-100.1
		c0-27.7-22.4-50.1-50.1-50.1c-27.7,0-50.1,22.4-50.1,50.1c0,110.5,89.9,200.3,200.3,200.3s200.3-89.8,200.3-200.3
		c0-59.8-26.3-113.5-68-150.2c41.7-36.7,68-90.5,68-150.2C1150.5,1225.8,1060.6,1135.9,950.2,1135.9z"/>
	<path class="st0" d="M1400.8,1135.9C1400.8,1135.9,1400.8,1135.9,1400.8,1135.9l-100.1,0.1c-27.7,0-50.1,22.4-50.1,50.1
		c0,27.6,22.4,50,50.1,50c0,0,0,0,0.1,0l49.9,0v550.8c0,27.7,22.4,50.1,50.1,50.1c27.7,0,50.1-22.4,50.1-50.1V1186
		c0-13.3-5.3-26-14.7-35.4S1414.1,1135.9,1400.8,1135.9z"/>
	<circle class="st0" cx="1901.6" cy="1887.1" r="550.8"/>
</g>
<circle class="st4" cx="1901.6" cy="1887.1" r="450.7"/>
<path class="st0" d="M1951.7,1866.3v-279.7c0-27.7-22.4-50.1-50.1-50.1s-50.1,22.4-50.1,50.1v300.5c0,13.3,5.3,26,14.7,35.4
	l150.2,150.2c9.8,9.8,22.6,14.7,35.4,14.7c12.8,0,25.6-4.9,35.4-14.7c19.6-19.6,19.6-51.3,0-70.8L1951.7,1866.3z"/>
<linearGradient id="SVGID_2_" gradientUnits="userSpaceOnUse" x1="490.239" y1="977.5911" x2="611.8466" y2="1034.2988" gradientTransform="matrix(21.3333 0 0 21.3333 -10532.6475 -20200.9453)">
	<stop  offset="0" style="stop-color:#FFFFFF;stop-opacity:0.2"/>
	<stop  offset="1" style="stop-color:#FFFFFF;stop-opacity:0"/>
</linearGradient>
<path class="st6" d="M2252.1,1462.5V434.9c0-110.5-89.9-200.3-200.3-200.3h-300.5V84.3c0-27.7-22.4-50.1-50.1-50.1
	s-50.1,22.4-50.1,50.1v150.2H749.8V84.3c0-27.7-22.4-50.1-50.1-50.1c-27.7,0-50.1,22.4-50.1,50.1v150.2H249.1
	c-110.4,0-200.3,89.8-200.3,200.3v1602.4c0,110.5,89.9,200.3,200.3,200.3H1477c101.1,122.3,253.9,200.3,424.6,200.3
	c303.7,0,550.8-247.1,550.8-550.8C2452.4,1716.4,2374.4,1563.6,2252.1,1462.5z"/>
</svg>
