<?xml version="1.0" encoding="utf-8"?>
<!-- Generator: Adobe Illustrator 21.1.0, SVG Export Plug-In . SVG Version: 6.00 Build 0)  -->
<svg version="1.1" id="Layer_1" xmlns="http://www.w3.org/2000/svg" xmlns:xlink="http://www.w3.org/1999/xlink" x="0px" y="0px"
	 viewBox="0 0 2500 2500" style="enable-background:new 0 0 2500 2500;" xml:space="preserve">
<style type="text/css">
	.st0{fill:#AA315E;}
	.st1{fill:#DF3F7C;}
	.st2{fill:#2D6CA3;}
	.st3{fill:#37A9BF;}
	.st4{fill:#52DDDC;}
	.st5{fill:#E39E5D;}
	.st6{fill:#F3C951;}
</style>
<g>
	<path class="st0" d="M2430,1064.6v1084.9c0,106.6-86.4,193-193,193H263c-106.6,0-193-86.4-193-193V1064.6c0-106.6,86.4-193,193-193
		h1974C2343.6,871.6,2430,958,2430,1064.6z"/>
	<path class="st1" d="M1270.5,2342.5H263c-106.6,0-193-86.4-193-193V1064.6c0-106.6,86.4-193,193-193h1007.5V2342.5z"/>
	<path class="st2" d="M1393.3,1664.9L2430,1073.8v-9.2c0-106.6-86.4-193-193-193H263c-106.6,0-193,86.4-193,193v9.1L1108.2,1665
		C1196.6,1715.3,1305,1715.3,1393.3,1664.9z"/>
	<path class="st3" d="M1959.2,1678.9l81.4,241.4c11.8,35.1-14.3,71.4-51.3,71.4H551.6c-37,0-63.1-36.3-51.3-71.4l81.4-241.4v-314
		c0-380.7,305.7-694.9,686.3-696.2c381.5-1.3,691.2,307.5,691.2,688.7L1959.2,1678.9z"/>
	<path class="st4" d="M1270.5,1646.7v-978c-380.4,0-688.7,308.4-688.7,688.7v289.3L1270.5,1646.7L1270.5,1646.7z"/>
	<path class="st3" d="M1102.7,1979.1c0,92.6,75.1,167.7,167.7,167.7c92.6,0,167.7-75.1,167.7-167.7H1102.7z"/>
	<path class="st4" d="M1102.7,1979.1c0,92.6,75.1,167.7,167.7,167.7l0-167.7H1102.7z"/>
	<path class="st5" d="M1959.2,1615.4H581.8v63.4l-81.4,241.4c-11.8,35.1,14.3,71.4,51.3,71.4h1437.7c37,0,63.1-36.3,51.3-71.4
		l-81.4-241.4L1959.2,1615.4z"/>
	<path class="st6" d="M1270.5,1615.4H581.8v63.4l-81.4,241.4c-11.8,35.1,14.3,71.4,51.3,71.4h718.9L1270.5,1615.4L1270.5,1615.4z"/>
	<path class="st5" d="M1270.5,474.5c-44.8,0-81.2-36.3-81.2-81.2V238.6c0-44.8,36.3-81.2,81.2-81.2c44.8,0,81.2,36.3,81.2,81.2
		v154.7C1351.6,438.2,1315.3,474.5,1270.5,474.5z"/>
	<g>
		<path class="st6" d="M1270.5,474.5c-44.8,0-81.2-36.3-81.2-81.2V238.6c0-44.8,36.3-81.2,81.2-81.2V474.5z"/>
		<path class="st6" d="M887,596.7c-20.8,0-41.5-7.9-57.4-23.8L720.2,463.5c-31.7-31.7-31.7-83.1,0-114.8
			c31.7-31.7,83.1-31.7,114.8,0l109.4,109.4c31.7,31.7,31.7,83.1,0,114.8C928.5,588.8,907.8,596.7,887,596.7z"/>
	</g>
	<path class="st5" d="M1654,596.7c-20.8,0-41.5-7.9-57.4-23.8c-31.7-31.7-31.7-83.1,0-114.8L1706,348.7c31.7-31.7,83.1-31.7,114.8,0
		s31.7,83.1,0,114.8l-109.4,109.4C1695.5,588.8,1674.8,596.7,1654,596.7z"/>
</g>
</svg>
