<?xml version="1.0" encoding="utf-8"?>
<!-- Generator: Adobe Illustrator 21.1.0, SVG Export Plug-In . SVG Version: 6.00 Build 0)  -->
<svg version="1.1" id="Layer_1" xmlns="http://www.w3.org/2000/svg" xmlns:xlink="http://www.w3.org/1999/xlink" x="0px" y="0px"
	 viewBox="0 0 2500 2500" style="enable-background:new 0 0 2500 2500;" xml:space="preserve">
<style type="text/css">
	.st0{fill:#808080;}
	.st1{fill:#35E5E5;}
	.st2{fill:#21D8DE;}
	.st3{fill:#1BCECE;}
	.st4{fill:#F2A559;}
	.st5{fill:#E89246;}
	.st6{fill:#FBC640;}
	.st7{fill:#917464;}
	.st8{fill:#FBDF97;}
</style>
<g>
	<path class="st0" d="M1746,768.9h-371.4c-232.8,0-422.1,189.4-422.1,422.1v230.4c0,12,9.7,21.7,21.7,21.7c12,0,21.7-9.7,21.7-21.7
		v-39h1128.9v39c0,12,9.7,21.7,21.7,21.7s21.7-9.7,21.7-21.7V1191C2168.1,958.2,1978.8,768.9,1746,768.9z M995.9,1338.9V1191
		c0-208.8,169.9-378.7,378.7-378.7H1746c208.8,0,378.7,169.9,378.7,378.7v147.9H995.9z"/>
	<path class="st1" d="M1878.4,2172.5h-636.2c-26.3,0-48.3-19.8-51.1-46l-96.5-901h931.6l-96.5,901
		C1926.8,2152.7,1904.7,2172.5,1878.4,2172.5z"/>
	<g>
		<path class="st2" d="M1870.9,1225.6l-96.5,901c-2.8,26.1-24.9,46-51.1,46h155.2c26.3,0,48.3-19.8,51.1-46l96.5-901L1870.9,1225.6
			L1870.9,1225.6z"/>
		<path class="st2" d="M2052.4,1463.2l25.1-234.6c1.2-11.1-7.5-20.8-18.7-20.8h-997.1c-11.2,0-19.9,9.7-18.7,20.8l25.1,234.6
			c1,9.6,9.1,16.8,18.7,16.8h946.8C2043.3,1480,2051.4,1472.8,2052.4,1463.2z"/>
	</g>
	<path class="st3" d="M2077.6,1226c0-0.5,0-1-0.1-1.5c0-0.1,0-0.3-0.1-0.4c-0.1-0.5-0.1-1.1-0.3-1.6c0-0.1-0.1-0.2-0.1-0.3
		c-0.1-0.6-0.3-1.1-0.5-1.7c0,0,0-0.1,0-0.1c-0.2-0.6-0.4-1.2-0.7-1.7c0,0,0,0,0,0c-3-6.4-9.5-11-17.1-11h-127.8l-13.7,127.5
		c-5.2,48.6-46.2,85.4-95.1,85.4h-735.5c-9.6,0-17.7-7.2-18.7-16.8l-20.4-190c-3.5,3.8-5.4,9.1-4.8,14.7l25.1,234.6
		c1,9.6,9.1,16.8,18.7,16.8h815h131.8c9.6,0,17.7-7.2,18.7-16.8l25.1-234.6c0.1-0.7,0.1-1.4,0.1-2.1
		C2077.7,1226.4,2077.6,1226.2,2077.6,1226z"/>
	<path class="st4" d="M1743,848.7h-365.3c-15,0-27.2-12.2-27.2-27.2V761c0-15,12.2-27.2,27.2-27.2H1743c15,0,27.2,12.2,27.2,27.2
		v60.5C1770.2,836.5,1758,848.7,1743,848.7z"/>
	<path class="st5" d="M1743,792h-365.3c-15,0-27.2-12.2-27.2-27.2v56.8c0,15,12.2,27.2,27.2,27.2H1743c15,0,27.2-12.2,27.2-27.2
		v-56.8C1770.2,779.8,1758,792,1743,792z"/>
	<polygon class="st2" points="1977.7,1677.4 1142.9,1677.4 1147.5,1720.7 1973,1720.7 	"/>
	<polygon class="st3" points="1817.8,1720.7 1973,1720.7 1977.7,1677.4 1822.5,1677.4 	"/>
</g>
<path class="st6" d="M928.5,1909.1c-10.5-108.6-61.3-204.2-136.8-272.8c-35.5-32.2-76.4-58.4-121.2-77.2v0v-152.5
	c0-32.8-32-59.4-71.4-59.4h-1.7V162.6c0-25-10.1-47.6-26.5-64c-16.3-16.4-39-26.5-64-26.5c-50,0-90.5,40.5-90.5,90.5v1184.6h-1.7
	c-39.4,0-71.3,26.6-71.3,59.4v152.5v0c-139.9,58.6-242.5,190.4-257.9,349.9c0,343.3,246.1,477.7,343.4,477.7h302.7h242.8h59.9h235.2
	C1172.4,2386.8,928.5,2252.4,928.5,1909.1z"/>
<path class="st7" d="M597.5,162.6v1184.6h-181V162.6c0-49.9,40.5-90.5,90.5-90.5c25,0,47.6,10.1,64,26.5
	C587.4,115,597.5,137.6,597.5,162.6z"/>
<path class="st8" d="M670.5,1559.1L670.5,1559.1c-50.4-21.1-105.7-32.7-163.5-32.7S394,1538,343.6,1559.2v0v-152.5
	c0-32.8,31.9-59.4,71.3-59.4h1.7h181h1.7c39.4,0,71.4,26.6,71.4,59.4L670.5,1559.1L670.5,1559.1z"/>
<path d="M65.2,1905.7c0.1,203.3,80.8,329.6,148.4,399.9c82.9,86,181.4,124.6,242.2,124.6h545.5h295.1H1536
	c26.1,0,47.2-21.2,47.2-47.2s-21.2-47.2-47.2-47.2h-239.5c-32.8,0-105.9-25.4-172.9-95.5c-55.2-57.7-121-162.6-121-334.6v0
	c0-0.1,0-0.2,0-0.3c0-0.6-0.1-1.2-0.1-1.9c0-0.9,0-1.8-0.1-2.7c0-0.1,0-0.1,0-0.2c0-0.1,0-0.2,0-0.3c-11.4-116.5-65.3-224-152-302.7
	c-31.9-29-67.4-53.2-105.7-72.4v-122.4c0-44.3-30.2-82.3-73-98.4V158.7c0-36.8-14.3-71.3-40.3-97.3c-26-26-60.6-40.4-97.4-40.4
	c-76,0-137.7,61.8-137.7,137.7v1145.6c-42.8,16.1-73,54.1-73,98.4V1525c-144.2,72.2-241.9,213.2-257.7,375.2c0,0.1,0,0.2,0,0.2
	c0,0.1,0,0.1,0,0.2c-0.1,0.9-0.1,1.7-0.1,2.6c0,0.6-0.1,1.3-0.1,1.9c0,0.1,0,0.1,0,0.2C65.2,1905.5,65.2,1905.6,65.2,1905.7z
	 M417.6,1402.7c0-3.7,9.1-12.1,24.1-12.1h1.7h181h1.7c15,0,24.1,8.4,24.1,12.1v87c-37.7-9.6-76.6-14.5-116.3-14.5
	s-78.5,4.9-116.2,14.5L417.6,1402.7L417.6,1402.7L417.6,1402.7z M490.6,158.7c0-23.8,19.4-43.2,43.3-43.2c11.6,0,22.4,4.5,30.6,12.7
	c8.2,8.2,12.7,19,12.7,30.6v1137.4h-86.5V158.7z M388.7,1598.8c46-19.3,94.8-29.1,145.2-29.1c50.4,0,99.2,9.8,145.2,29.1
	c39.6,16.6,75.8,39.6,107.6,68.6c69,62.7,112,148.2,121.3,240.8c0.8,201.7,80.4,327.3,147.2,397.2c10.3,10.8,20.9,20.9,31.7,30.2
	h-25.7c-41.1,0-156.6-43.3-231.9-172.1c-13.2-22.5-42.1-30.1-64.6-16.9c-22.5,13.2-30.1,42.1-16.9,64.6c29,49.6,65,91.2,103.4,124.3
	h-92.6c-33,0-106.6-25.5-174.2-95.6c-55.7-57.8-122-162.8-122-334.8c0-26.1-21.2-47.2-47.2-47.2c-26.1,0-47.2,21.2-47.2,47.2
	c0,203.5,80.7,330.1,148.5,400.4c10.4,10.8,21,20.8,31.7,30.1h-92.2c-33,0-106.6-25.5-174.2-95.6c-55.4-57.5-121.4-161.8-122-332.4
	C173.7,1770.4,261.3,1652.2,388.7,1598.8z"/>
<path d="M1655.5,2434c60.8,0,60.9-94.5,0-94.5C1594.7,2339.5,1594.6,2434,1655.5,2434z"/>
<path d="M2110,528.1c0,77.4,63,140.4,140.4,140.4s140.4-63,140.4-140.4s-63-140.4-140.4-140.4S2110,450.6,2110,528.1z M2296.3,528.1
	c0,25.3-20.6,45.9-45.9,45.9c-25.3,0-45.9-20.6-45.9-45.9c0-25.3,20.6-45.9,45.9-45.9C2275.7,482.1,2296.3,502.7,2296.3,528.1z"/>
<path d="M2067.7,90.5c-67.4,0-122.3,54.9-122.3,122.3s54.9,122.3,122.3,122.3c67.5,0,122.3-54.9,122.3-122.3
	C2190.1,145.4,2135.2,90.5,2067.7,90.5z M2067.7,240.6c-15.3,0-27.8-12.5-27.8-27.8s12.5-27.8,27.8-27.8c15.4,0,27.9,12.5,27.9,27.8
	C2095.6,228.1,2083.1,240.6,2067.7,240.6z"/>
<path d="M2344.9,211.6c-60.8,0-60.9,94.5,0,94.5C2405.7,306.1,2405.8,211.6,2344.9,211.6z"/>
<path d="M705.4,2110.4c60.8,0,60.9-94.5,0-94.5C644.6,2015.9,644.5,2110.4,705.4,2110.4z"/>
</svg>
