<svg xmlns="http://www.w3.org/2000/svg" width="32" height="32" fill="none" xmlns:v="https://vecta.io/nano"><g clip-path="url(#A)" fill="#1971bd"><path d="M11.648 21.056c.576-3.008 2.88-4.864 5.12-5.344 2.432-.512 4.64 0 6.464 1.792.16.16.48.288.736.288.608 0 1.216.128 1.728.352 0-.032.032-.032.032-.064 1.088-2.272 1.824-4.704 2.208-7.168.416-1.76.608-2.016 2.56-3.488a3.11 3.11 0 0 0 1.472-2.336c.096-1.12-.16-1.28-1.248-.768-.608.256-1.248.384-1.92.416-2.656.224-3.712 1.024-5.6 4.224-2.272 3.872-3.168 4.512-8.352 6.208-4.448 1.44-5.024 1.696-6.016 2.464-.768.608-1.44 1.312-1.984 2.08-.896 1.184-1.088 1.344-1.92 1.344-.544-.032-1.056-.096-1.6-.192-.96-.32-1.984-.256-2.912.128-.224.16-.416.352-.416.384.544.48 1.12.928 1.728 1.312.128.096.128.16-.096.448-.64.832-.832 1.216-.832 1.472s.032.288.576.288c.416 0 .8-.064 1.216-.16 1.472-.544 2.912-1.216 4.256-2.048 1.92-1.248 2.912-1.664 4.8-1.632zm9.024-2.016l4.864 4.832h-2.368v5.024h-5.056v-4.992h-2.4l4.96-4.864z"/></g><defs><clipPath id="A"><path fill="#fff" transform="translate(0 4)" d="M0 0h32v24.928H0z"/></clipPath></defs></svg>