<svg xmlns="http://www.w3.org/2000/svg" width="32" height="32" fill="#1971bd" xmlns:v="https://vecta.io/nano"><path d="M15.36 0h2.048 1.248a27.89 27.89 0 0 1 4.576.768c1.504.384 2.944.96 4.288 1.728a7.03 7.03 0 0 1 2.272 1.952c.352.416.608.96.704 1.504a3.67 3.67 0 0 1-.096 1.664 4.32 4.32 0 0 1-1.312 1.952 10.82 10.82 0 0 1-3.104 1.952c-1.952.8-4 1.344-6.08 1.568-1.76.192-3.552.256-5.312.16a23.45 23.45 0 0 1-5.152-.672c-1.536-.352-3.008-.928-4.352-1.728a7.54 7.54 0 0 1-2.272-1.984c-.512-.608-.8-1.344-.8-2.144-.032-.768.224-1.536.704-2.176a7.38 7.38 0 0 1 1.088-1.152 12.64 12.64 0 0 1 4-2.112C9.952.544 12.192.128 14.464 0h.896zm-2.688 22.496l.192-1.92c.48.608.864 1.248 1.152 1.952l-1.344-.032zm5.824.096c.288-.736.672-1.408 1.152-2.048l.192 1.856-1.344.192zm11.648-11.904a13.9 13.9 0 0 1-4.288 2.432 26.19 26.19 0 0 1-7.84 1.504c-2.016.096-4.064.032-6.048-.256a22.93 22.93 0 0 1-5.248-1.312c-1.344-.48-2.592-1.152-3.712-2.016l-.992-.832v.192 5.408c0 .896.32 1.76.896 2.464a2.07 2.07 0 0 1 .256.288c2.336-.416 4.416.128 6.176 1.856.16.16.48.288.736.288.288 0 .544.032.8.064 0-.096 0-.192.032-.32.096-.736.352-1.504.352-2.272 0-.192.064-.192.192-.192h2.304c.064 0 .128 0 .16.032.064.032.096.064.128.096l2.272 3.008v-.128l2.272-2.912c.032-.064.096-.128.16-.16s.16-.064.224-.032h1.888.608c.288 1.44.448 2.88.512 4.352h.032c1.504-.288 2.944-.768 4.32-1.408 1.184-.544 2.24-1.312 3.072-2.272.736-.736 1.152-1.728 1.152-2.752v-5.312-.224l-.416.416zM14.56 24.352c.096.544.288.896.64 1.152l-.48-1.6c0-.032 0-.064-.032-.064s-.032-.032-.064-.064-.032-.032-.064-.032h-.096-.064c.064.192.128.384.16.608zm15.904-4.64l-1.344 1.12c-1.696 1.088-3.584 1.856-5.568 2.272l-1.504.352v5.504h-2.976c.48-1.696.704-3.456.736-5.216l-1.792.128c-.032-.032-.064-.032-.096-.032s-.064 0-.096.032l-.704 2.272v.128h-.64c.416.32.768.736 1.056 1.184.064 0 .096-.032.16-.032.16 0 .32.064.448.16A.71.71 0 0 1 18.4 28c0 .096-.032.192-.064.256-.032.096-.096.16-.16.224-.032.032-.096.096-.16.128.16.544.192 1.12.096 1.696-.096.608-.256 1.152-.512 1.632l3.2-.32c1.728-.256 3.424-.704 5.088-1.344 1.216-.48 2.368-1.184 3.328-2.048a4.49 4.49 0 0 0 1.408-2.272v-.576-5.664h-.16zm-23.68 2.272l4.864 4.832H9.28v5.024H4.224v-4.992h-2.4l4.96-4.864z"/></svg>