<svg xmlns="http://www.w3.org/2000/svg" width="32" height="32" fill="none" xmlns:v="https://vecta.io/nano"><g clip-path="url(#A)" fill="#1971bd"><path d="M15.657 13.2a14.63 14.63 0 0 1-.429-1.6c-.029-.2-.086-.4-.143-.6s-.057-.286-.057-.429c0-.114-.028-.229-.057-.371a11.51 11.51 0 0 0-.4-.857l-.143-.257c-.028-.086-.086-.171-.143-.257-.657-.8-.829-1.886-.514-2.857.343-.714 1.086-1.114 1.857-1 .943.2 1.829.686 2.571 1.343.114.086.2.2.314.314.029.057.086.114.143.143l1 .171.229.086c.6.171 1.171.457 1.686.8l1.143.971V7.086C22.686 4.857 17.629 3 11.4 3S.114 4.857.114 7.171v3.314c0 2.286 5.057 4.171 11.286 4.171a29.12 29.12 0 0 0 4.714-.371c-.2-.371-.343-.743-.457-1.086zm6.029 11.629c-.086-.086-.171-.171-.257-.229-.257-.229-.486-.457-.686-.714-.086-.114-.2-.229-.314-.371l-.4-.429c-2.057.8-4.229 1.257-6.4 1.429a3.73 3.73 0 0 1 .6 2.629c-.143.943-.543 1.743-1.114 2.371 5.257-.286 9.343-1.943 9.571-3.943-.371-.2-.714-.457-1-.743zm10.143 3.143l-.343-.457a6.23 6.23 0 0 0-1.2-1.514c-.371-.371-1.228-.857-1.343-1.4l-.029-.029a5.07 5.07 0 0 0 .914-.143c.457-.086.857 0 1.314-.086l.628-.114v-.114c-.2-.286-.343-.628-.571-.886-.6-.686-1.257-1.314-1.943-1.914-.372-.314-.857-.543-1.286-.828-.143-.086-.4-.172-.457-.314a8.93 8.93 0 0 1-.429-1.114l-.828-2.514c-.114-.571-.286-1.114-.486-1.657a13.6 13.6 0 0 0-4.457-5.686 6.64 6.64 0 0 0-1.571-.743l-.971-.171c-.2-.114-.371-.4-.543-.543a4.62 4.62 0 0 0-2.029-1.057l.029-.029a1.02 1.02 0 0 0-1.114.6c-.429.857.343 1.829.6 2.343a6.73 6.73 0 0 1 .543 1.114c.086.257.086.486.143.743.114.657.286 1.314.486 1.943l.372.886c.086.171.286.257.286.514a4.3 4.3 0 0 0-.4 1c-.6 1.486-.657 3.171-.086 4.686.171.371.571 1.171 1.257.971.6-.2.543-1 .8-1.657.057-.143.029-.286.114-.371v.029l.429 1.2a7.89 7.89 0 0 0 1.486 2.029A8.55 8.55 0 0 0 22 23.6c.629.486.229.629 4.8 2.829.057.057 1.8.829 2.743 1.229.8.343 1.657.6 2.514.829v-.057c-.143-.143-.143-.314-.229-.457zM19.514 11.114c-.086.057-.171.114-.257.143a4.24 4.24 0 0 0-.629-1.486c-.4-.314.114-.743.543-.6h.114c.2.029.314.2.486.371.372.486.257 1.2-.257 1.571zM.657 16.743c2.171-.457 4.143 0 5.771 1.6.143.143.429.257.657.257 2 .029 3.657 1.286 4 3.257.029.114.057.2.057.286h.229c1.629 0 3.257-.143 4.857-.4-.171-.229-.314-.457-.4-.714-.514-1.314-.629-2.771-.343-4.172a28.45 28.45 0 0 1-4.114.286c-6.2 0-11.257-1.857-11.257-4.172v3.914c.171-.057.343-.114.543-.143zm3.772 3.829l4.343 4.314H6.657v4.486H2.143v-4.457H0l4.429-4.343z"/></g><defs><clipPath id="A"><path fill="#fff" transform="translate(0 3)" d="M0 0h32v26.543H0z"/></clipPath></defs></svg>