<svg xmlns="http://www.w3.org/2000/svg" width="32" height="32" fill="none" xmlns:v="https://vecta.io/nano"><g clip-path="url(#A)" fill="#1971bd"><path d="M30.984 20.992c-.544-.096-1.12-.128-1.664-.032-.16.032-.32.032-.48.064v-.032l.704-.192c.512-.128 1.024-.16 1.536-.128v-.064l-.16-1.568c0-.096-.064-.096-.128-.096-.64-.032-1.28.064-1.888.288-.16.064-.32.096-.448.16.704-.48 1.568-.768 2.432-.8l-.288-1.216c-.128-.48-.128-.448-.608-.48a5.34 5.34 0 0 0-2.336.448h-.096-.064a4.33 4.33 0 0 1 2.848-.832l-.64-1.632c-.032-.032-.064-.064-.096-.064-.416-.096-.864-.128-1.28-.064-.768.128-1.536.384-2.208.768-.032.032-.064.032-.096.032.928-.864 2.144-1.312 3.424-1.248-.032-.064-.032-.096-.064-.16-.192-.32-.352-.672-.512-.992-.032-.064-.096-.128-.192-.16-.544-.16-1.088-.192-1.664-.096-.864.16-1.696.448-2.464.928l-.128.064c0-.032.032-.064.096-.096l.928-.64c.896-.608 1.952-.864 3.04-.704l-.448-.736c-.032-.064-.096-.096-.16-.128-.608-.352-1.312-.48-1.984-.352-.832.128-1.632.448-2.336.928l-.768.512v-.032c.64-.672 1.408-1.248 2.24-1.632.736-.32 1.536-.384 2.304-.16h.064c-.032-.032-.064-.064-.064-.096-.192-.192-.256-.48-.224-.736.032-.48.128-.96.256-1.408a3.9 3.9 0 0 0 0-2.56c-.512-1.408-1.376-2.624-2.528-3.584C23.656 1.504 22.28.8 20.776.48c-.896-.224-1.792-.352-2.72-.416a17.52 17.52 0 0 0-2.592 0L13.032.32l-.48.096c.768.288 1.536.608 2.24 1.024-.064 0-.128 0-.192-.032-.896-.256-1.824-.448-2.752-.544a6.77 6.77 0 0 0-2.272.192 12.48 12.48 0 0 0-4.16 1.728c-1.312.832-2.368 1.984-3.104 3.36-1.024 1.92-1.44 4.128-1.184 6.272.096.928.384 1.824.8 2.656l.48.8h.032c.064-.32.096-.64.128-.928l.192-.96.288-.96c.096-.32.256-.608.416-.896v.064c-.384 1.088-.576 2.336-.544 3.552.864-.096 1.728-.096 2.528.096.128-1.28.384-2.56.736-3.776.032.032.064-.096.032.032 0 .096-.032.192-.064.256a20.45 20.45 0 0 0-.352 3.136v.416a7.19 7.19 0 0 1 2.816 1.536c0-.128 0-.256-.032-.416-.032-1.056 0-2.112.096-3.136.064-.768.16-1.536.352-2.272 0-.064.032-.128.064-.192.032.032.032.064.032.096L9 13.568c-.064 1.44 0 2.88.192 4.288v.032c.192.096.416.16.608.16 2.304.032 4.192 1.44 4.736 3.584 0-.352-.032-.736-.16-1.088-.288-1.12-.8-2.208-1.472-3.168-.576-.768-.992-1.632-1.28-2.56-.32-1.088-.608-2.208-.8-3.328l-.128-.8c.032.032.064.064.064.128L10.984 12c.256 1.344.704 2.656 1.376 3.84a7.48 7.48 0 0 0 3.072 3.072c1.216.64 2.56.96 3.936.96.96 0 1.952-.064 2.88-.256l.832-.16c-.928-.8-1.568-1.856-1.92-3.04.192.32.352.64.576.928.544.832 1.312 1.536 2.208 2.016.48.256.864.64 1.088 1.12.416.864.608 1.76.64 2.72.032.832-.032 1.696-.224 2.528-.128.768-.416 1.536-.832 2.208s-1.056 1.184-1.856 1.376c-.064.032-.16.032-.224.032.096-.064.192-.128.32-.16a1.63 1.63 0 0 0 .8-.672c.032-.064.064-.128-.032-.192-.224-.192-.352-.448-.448-.736a2.96 2.96 0 0 1-.096-1.664c.192-.832.512-1.632.928-2.336.256-.416.448-.864.672-1.344.032-.128.064-.256.064-.384s-.064-.192-.192-.192c-.096 0-.192.032-.288.064-.448.16-.928.224-1.408.16l-1.216-.128c-.448-.032-.544.096-.48.512.064.32.064.608 0 .928-.096.544-.256 1.056-.48 1.568a8.49 8.49 0 0 0-.608 4c.032.64.288 1.216.672 1.696.8.896 1.92 1.44 3.104 1.472.896.064 1.76-.128 2.56-.544a7.31 7.31 0 0 0 2.944-2.72l.32-.544-.448-.128c.128 0 .256 0 .384.032.096.032.128.032.16-.096s.128-.224.16-.352l.448-1.088-.768-.192v-.032l.8.064.352-1.504-1.312-.288v-.032l1.344.096.224-1.664c-.544-.16-1.12-.224-1.728-.224.576-.096 1.152-.128 1.728-.064 0-.032 0-.064.032-.064l.032-1.472c0-.096-.032-.128-.096-.128zM16.136 8.928c-.288.16-.64.16-.928 0a1.86 1.86 0 0 1-.704-.704c.448-.224.96-.192 1.408.064a1.06 1.06 0 0 1 .32.448c.032.096 0 .16-.096.192zM6.28 19.456l5.184 5.184H8.936v5.376H3.528v-5.344H.968l5.312-5.216z"/></g><defs><clipPath id="A"><path fill="#fff" transform="translate(1)" d="M0 0h30.08v32H0z"/></clipPath></defs></svg>