<svg xmlns="http://www.w3.org/2000/svg" width="32" height="32" fill="none" xmlns:v="https://vecta.io/nano"><g clip-path="url(#A)" fill="#1971bd"><path d="M25.478 8.319c-.414 0-.829-.032-1.243 0-.351.032-.701.096-1.052.223-.956.319-1.562 1.211-1.466 2.199.032.829.191 1.657.542 2.422.382.924.797 1.849 1.307 2.709l.669 1.275a7.59 7.59 0 0 0 .892 1.339c.064.064.127.159.191.255l-.096.032c-.701.191-1.211.829-1.179 1.562-.128 2.263-.478 4.462-.797 6.693l-.223.956c-.255.829-.892 1.498-1.753 1.721-.446.159-.924.255-1.37.319-.956.191-1.944-.319-2.359-1.211a4.1 4.1 0 0 1-.478-1.721c-.159-1.976-.191-3.984-.159-5.96a3.44 3.44 0 0 0-.064-.988c-.127-.669-.669-1.211-1.37-1.307a1.2 1.2 0 0 0-.478 0c.032-.096.032-.191.064-.287l.892-2.263c.478-1.211.669-2.518.51-3.793-.064-.701-.191-1.371-.319-2.04-.159-1.243-1.307-2.104-2.55-1.944h-.096c-.829.064-1.626.319-2.358.701l-.159.032.096-.861c.159-1.147.51-2.295 1.052-3.315.542-1.052 1.402-1.912 2.486-2.422.829-.351 1.753-.542 2.677-.478 3.092.064 5.928 1.785 7.426 4.494.287.478.51 1.052.765 1.53v.127zm.414 9.689c-.096-.064-.159-.191-.096-.287 0-.032.032-.032.032-.064a4.77 4.77 0 0 0 .606-2.645l-.159-1.944a10.02 10.02 0 0 1 .096-2.391c.096-.637.128-1.275.159-1.88 0-.287-.064-.542-.191-.797-.956-2.582-2.837-4.685-5.291-5.896l-.127-.096 1.116-.159a9.07 9.07 0 0 1 3.474.191c1.594.382 2.996 1.275 3.984 2.582.223.351.383.733.383 1.147.064 1.084 0 2.167-.255 3.219-.701 3.155-1.912 6.151-3.665 8.892l-.064.127zM11.008 11.92l-.064-1.434c0-.096.032-.191.096-.223a5.6 5.6 0 0 1 2.55-.924c.223 0 .478 0 .701.064.51.127.892.542.988 1.084.255 1.084.383 2.199.351 3.315-.032.765-.223 1.53-.542 2.263-.382.797-.669 1.594-.924 2.422-.032.096-.096.096-.159.096-.765-.032-1.498-.351-2.04-.893-.86-.829-1.243-2.008-1.084-3.187l.191-2.518-.064-.064zm2.9-2.135l-.51.127c-.159.032-.223.191-.191.351 0 0 0 .032.032.032.159.446.669.701 1.147.542.127-.032.255-.128.351-.223.223-.223.191-.478-.096-.606l-.733-.223zm11.73-.51l-.159 1.243c-.191 1.02-.191 2.072-.032 3.124.159.797.159 1.594.032 2.39-.064.319-.159.637-.287 1.02-.064-.064-.064-.096-.064-.096l-1.466-2.805a9.53 9.53 0 0 1-.956-2.614c-.096-.351-.096-.733-.064-1.115a1.32 1.32 0 0 1 1.179-1.116c.574-.096 1.147-.127 1.721-.032.032-.032.064 0 .096 0zm-1.657 1.243c.319-.032.606-.191.733-.478.096-.191.064-.319-.127-.382a1.41 1.41 0 0 0-1.179.159c-.128.064-.159.191-.128.319 0 .032.032.064.064.096a.85.85 0 0 0 .637.287zm5.768 9.307c-.064.032-.127.127-.223.191a5.23 5.23 0 0 1-2.55.988 4.82 4.82 0 0 1-1.657 0c-.414-.064-.414-.096-.414-.51-.032-.478.351-.892.861-.924h.032.096c.574.351 1.243.51 1.912.446l1.944-.191zm-17.211 2.39c.032 0 .096.032.127.032 1.179.191 2.39-.255 3.124-1.211l.032-.032c.287-.319.287-.829-.032-1.116-.287-.319-.606-.383-.924 0l-.637.765a2.17 2.17 0 0 1-.988.701 7.81 7.81 0 0 1-.924.255l-.382.096.606.51zM3.486 12.144a37.22 37.22 0 0 0 1.912 6.343c.064.128.096.255.159.382 1.052.287 2.04.861 2.932 1.721.159.159.478.287.733.287h.127l1.689-1.944c.127-.159.287-.319.446-.478l-.096-.096a4.52 4.52 0 0 1-1.434-3.92c.128-.956.159-1.912.128-2.9-.096-1.179-.064-2.39.127-3.57.191-1.243.574-2.422 1.179-3.506.319-.574.701-1.084 1.147-1.53l-.096-.064a17.02 17.02 0 0 0-2.868-.637c-.956-.127-1.912-.127-2.837.064-1.657.255-2.996 1.434-3.474 3.028-.382 1.243-.51 2.55-.319 3.857l.542 2.964zM15.98 22.12l-.223.128c-.733.574-1.625.892-2.55.892.191.319.319.669.414 1.052a4.87 4.87 0 0 0 1.498-.351v.096l.096 2.231a6.5 6.5 0 0 1 .861.733l-.159-4.622v-.159h.064zm-3.665-3.092c-.096-.064-.159-.032-.223.032l-1.721 1.944a1.58 1.58 0 0 1 .414.127c.287-.127.605-.255.924-.319l1.052-.255c.287-.064.542-.255.733-.478l.51-.606-.51-.064c-.414-.064-.797-.191-1.179-.383zm18.358-1.052a2.85 2.85 0 0 0-1.37.032l-1.275.191.128-.223a29.29 29.29 0 0 0 3.283-8.542c.287-1.243.383-2.55.287-3.825a4.01 4.01 0 0 0-.765-2.072A9.08 9.08 0 0 0 25 .127a12.86 12.86 0 0 0-5.386.383c-.096.032-.159.032-.255.032l-2.072-.16c-1.37-.064-2.773.255-3.984.892-.064 0-.127 0-.191-.032l-2.2-.573A11.07 11.07 0 0 0 6.45.542C4.06.924 2.084 2.645 1.446 5.004.936 6.725.873 8.51 1.191 10.263a44.16 44.16 0 0 0 1.53 6.374c.191.701.446 1.371.701 2.04.382-.032.733 0 1.084.032a1.13 1.13 0 0 0-.127-.287 41.38 41.38 0 0 1-1.976-6.98L2.02 9.147c-.191-1.466 0-2.932.478-4.303a5.08 5.08 0 0 1 3.825-3.283c1.147-.287 2.327-.319 3.474-.159 1.179.159 2.359.446 3.474.829.064.032.159 0 .223-.032 1.147-.733 2.518-1.052 3.889-.988.669.032 1.339.096 1.976.255.064 0 .159 0 .223-.032a11.43 11.43 0 0 1 6.853-.096 7.86 7.86 0 0 1 3.825 2.677 3.04 3.04 0 0 1 .574 1.625c.096 1.147 0 2.327-.287 3.474-.797 3.378-2.104 6.502-3.92 9.371l-.191.319-.032.064c.159.064.351.127.51.191a5.97 5.97 0 0 0 1.849 0l1.179-.191c.159-.032.319 0 .446.032.064 0 .128.032.191.064a.57.57 0 0 1 .287.797c-.096.255-.255.478-.446.669a5.29 5.29 0 0 1-2.9 1.402 7.54 7.54 0 0 1-2.072.096l-.606-.096c-.064.478-.096.988-.159 1.466l-.637 4.335c-.064.351-.191.701-.351 1.052a3.05 3.05 0 0 1-1.498 1.594 6.09 6.09 0 0 1-2.582.669 2.94 2.94 0 0 1-2.327-.892c0 .159 0 .287-.032.446-.032.223-.064.446-.127.637.383.287.797.51 1.275.638.191.064.414.096.606.127h.765c.032 0 .032-.032.064-.032.51-.096 1.02-.191 1.498-.319a4.75 4.75 0 0 0 2.613-1.689 6.96 6.96 0 0 0 1.211-2.773 17.06 17.06 0 0 0 .382-3.602c0-.159.032-.319.032-.51h.096c.51-.032 1.052-.032 1.562-.064 1.307-.128 2.55-.605 3.57-1.402.414-.287.733-.669.988-1.116a1.6 1.6 0 0 0 .159-.414c.159-.924-.383-1.785-1.275-2.008zM6.004 22.151l4.845 4.813H8.49v5.004H3.454v-4.972h-2.39l4.94-4.845z"/></g><defs><clipPath id="A"><path fill="#fff" transform="translate(1)" d="M0 0h30.948v32H0z"/></clipPath></defs></svg>