<svg xmlns="http://www.w3.org/2000/svg" viewBox="0 0 432.1 445.4" xmlns:v="https://vecta.io/nano"><path d="M215.8 409.2c-102.6 0-186.4-83.8-186.4-186.4S113.2 36.4 215.8 36.4s186.4 83.8 186.4 186.4-83.8 186.4-186.4 186.4zm0-354c-92.4 0-167.6 75.2-167.6 167.6s75.2 167.6 167.6 167.6 167.6-75.2 167.6-167.6S308.1 55.2 215.8 55.2z" fill="#f2f2f2"/><g fill="#54c0eb"><circle cx="215.8" cy="45.8" r="28.2"/><circle cx="215.8" cy="399.8" r="28.2"/><circle cx="392.8" cy="222.8" r="28.2"/><circle cx="38.8" cy="222.8" r="28.2"/></g><path d="M302.1 195.4H129.4c-9.4 0-17.1 7.7-17.1 17.1v107.7c0 9.4 7.7 17.1 17.1 17.1H303c9.4 0 17.1-7.7 17.1-17.1V212.5c-.9-9.4-8.6-17.1-18-17.1z" fill="#ff7058"/><path d="M162.8 195.4v-18c0-29.1 23.9-53 53-53s53 23.9 53 53v18h29.9v-18c0-45.3-36.8-82.9-82.9-82.9s-82.9 36.8-82.9 82.9v18h29.9 0z" fill="#cdd6e0"/><path d="M132.8 245.9h165.9v40.2H132.8z" fill="#40596b"/><g fill="#f2f2f2"><circle cx="265.4" cy="265.5" r="8.6"/><circle cx="232" cy="265.5" r="8.6"/><circle cx="199.5" cy="265.5" r="8.6"/><circle cx="166.2" cy="265.5" r="8.6"/></g></svg>