<?xml version="1.0" encoding="utf-8"?>
<!-- Generator: Adobe Illustrator 21.1.0, SVG Export Plug-In . SVG Version: 6.00 Build 0)  -->
<svg version="1.1" id="Layer_1" xmlns="http://www.w3.org/2000/svg" xmlns:xlink="http://www.w3.org/1999/xlink" x="0px" y="0px"
	 viewBox="0 0 432.1 445.4" style="enable-background:new 0 0 432.1 445.4;" xml:space="preserve">
<style type="text/css">
	.st0{fill:#F2F2F2;}
	.st1{fill:#54C0EB;}
	.st2{fill:#FF7058;}
	.st3{fill:#CDD6E0;}
	.st4{fill:#40596B;}
</style>
<g id="orginal">
</g>
<path class="st0" d="M215.8,409.2c-102.6,0-186.4-83.8-186.4-186.4S113.2,36.4,215.8,36.4s186.4,83.8,186.4,186.4
	S318.4,409.2,215.8,409.2z M215.8,55.2c-92.4,0-167.6,75.2-167.6,167.6s75.2,167.6,167.6,167.6s167.6-75.2,167.6-167.6
	S308.1,55.2,215.8,55.2z"/>
<g>
	<circle class="st1" cx="215.8" cy="45.8" r="28.2"/>
	<circle class="st1" cx="215.8" cy="399.8" r="28.2"/>
	<circle class="st1" cx="392.8" cy="222.8" r="28.2"/>
	<circle class="st1" cx="38.8" cy="222.8" r="28.2"/>
</g>
<path class="st2" d="M302.1,195.4H129.4c-9.4,0-17.1,7.7-17.1,17.1v107.7c0,9.4,7.7,17.1,17.1,17.1H303c9.4,0,17.1-7.7,17.1-17.1
	V212.5C319.2,203.1,311.5,195.4,302.1,195.4z"/>
<path class="st3" d="M162.8,195.4v-18c0-29.1,23.9-53,53-53s53,23.9,53,53v18h29.9v-18c0-45.3-36.8-82.9-82.9-82.9
	s-82.9,36.8-82.9,82.9v18L162.8,195.4L162.8,195.4z"/>
<rect x="132.8" y="245.9" class="st4" width="165.9" height="40.2"/>
<g>
	<circle class="st0" cx="265.4" cy="265.5" r="8.6"/>
	<circle class="st0" cx="232" cy="265.5" r="8.6"/>
	<circle class="st0" cx="199.5" cy="265.5" r="8.6"/>
	<circle class="st0" cx="166.2" cy="265.5" r="8.6"/>
</g>
</svg>
