<svg xmlns="http://www.w3.org/2000/svg" viewBox="0 0 2500 2500" xmlns:v="https://vecta.io/nano"><path d="M975 1476.4c-4.7 4.1-4.9 8.2-.3 12.5l-.7.6c-24.4-5.1-29.8 18.1-43.4 29.2-7.1 1.8-10.8 6.7-12.8 13.4l-83.5 73.4c-122.6 108.4-245.6 216.1-400.6 277.9-40.6 9.5-81.5 13.4-123.3 12.2-52.7-1.6-105.5-.5-158.3-.3-15.2.1-31.7-2.1-40.2 15.6l-.1.7c-15 6.4-19.4 17.7-15.4 33-1 3.2-2.9 6.4-2.9 9.6l-.4 415.5c.2 37.5 20.7 54.1 62.2 54.1l398.7-.4c14.5 0 29.6 1.3 40.8-11 25.5-8.7 25.7-30 26.4-51.6 3.3-92.4-9.9-185.4 11.5-277 42.2-104.5 109.3-192.9 180.6-278.6 66.1-79.4 136.2-155.1 207.8-229.5 9.4-9.8 29.2-18.6 12.6-38.1l-40.7-62.4c-6.8-11.6-12.7-9.5-18 1.2zm-4-581.1c33.4-8 8.6-21.9 1.6-30-67.1-77.8-130.7-157.7-163.7-257.2-2.1-10.8-5.1-21.4-6.2-32.3-7.7-74.1-2.1-148.4-3.7-222.5-.6-26.5-5-50.1-38.3-52.9-2-5-4.4-4.2-6.9-.4-24.1-3.1-48.1-3-72.2-.2-30.3-7.7-60.6-7.4-90.9-.1l-85-.2c-10-6-20-6-30-.1-14.8 0-29.7-.1-44.5-.1-7.1-4.6-14.1-6.7-20.7.8h-16.9c-59.2-.8-65.6 5.4-65.7 64.5l-.1 343.9c.1 43.1 16.2 57.8 59.4 58.8 71.6 1.7 143.6-6.5 214.9 6.8l23.9 6.6c110.7 45.8 205.6 116.9 302.3 193.8l3.9-44.4c10.8-14 22.9-26.5 38.8-34.8zm622.9-.7l35.3 34.5c.8 9.9-1 23.5 8.7 27.2 10.3 4 16.8-8.8 24.1-15.3l160.9-143.8c92.3-79.2 187.2-155 302.4-199.7l9.9.4c4.9 2.2 9.9 6.2 14.8 6.2l265.3-.1c33.3-.4 57.8-28.1 57.8-61.5l.1-412.1c0-67-20.6-87.2-89.4-87.3-107-.1-214-.1-320.9 0-54.3 0-108.4-5.3-156.7 32.3-18.6 14.5-19.3 29.2-6.8 35.6 23.7 12.3 19.4 30.2 18.9 48.3l-6.4 186.7c-.5 14.9.3 29.3 11.1 41l2.3 1c-15.9 53.5-43.8 101.2-74.2 147.3-77.9 118-172 222.7-268.1 325.7-6.9 7.4-17.6 15.4-15.3 25 3 12 16.4 8.7 26.2 8.6zm-67.9 636.9c-17.7 9.6-11.5 20.6-2.1 32.2 18.3 22.7 37.5 44.8 54 68.8 53.5 77.8 104.7 156.9 124.7 251.3 7.9 24.9 10.9 50.2 10.4 76.4-.9 47.3-.7 94.7-.3 142.1.5 48.8 14.4 63 62.2 63l368.8-.4c49.6-.2 62-12.7 62-62.3l-.7-358.6c-.1-58.9-12-70.2-71.5-70.9-74.3-.9-148.7 5.1-222.8-5-14.7-5.4-29.6-10.2-43.9-16.3-100.6-42.4-184.3-110-266.2-179.8-23.9-20.4-35.4-18.2-41.3 12.3-14.8 13.3-23.9 30.4-33.3 47.2zm66.7-412.3v-90.3c.6-13.4 1.7-26.9 1.8-40.3.2-56.2-1.1-57.7-56-57.7l-469.8-.1c-109.9 0-109.9 0-99.3 111 .1 1.1.8 2.1 1.2 3.1l.2 87.7c-2.6 22.6-3 45.1.1 67.7-5.3 75.6-2.4 149.8 38.8 217.1 52.8 123.7 152.6 201.2 263.3 267.9 10.8 6.5 19.5.2 27.8-5.5 26.7-18.6 54.2-36.2 79.5-56.6 66.2-53.3 120.7-116.7 159.7-192.7 41.1-66.5 60.4-138.3 52.7-216.6 3-31.6 2.5-63.1 0-94.7z" fill="#fcfcfc"/><path d="M2135.3 598l-9.9-.4c-9-12.1-22.3-8.6-34.2-8.8l-131.4-.8c-6.9-9.8-14.8-18.5-25.7-24l-1.5-131.3c-.5-14.8 7-31.6-7.1-44.4l-2.3-1c5.7-16 8.1-32.4 8.2-49.5l1.8-216.2c1.2-46.7 19.1-60.2 67.4-56.4 6.3 6.4 12.6 6.4 18.9-.1 27.3-3.4 54.6-3.5 81.9.1-11.3 157.7 116.3 354.5 299.4 351.5 41.9-.7 52.3 18 52.5 61.7l.5 64c-6.8 31-27.5 43.9-57.8 44l-198.8.5c-21.2.1-42.9-1.1-61.9 11.1z" fill="#fb9b01"/><path d="M1910.6 1668.2c74.1 10.1 148.5 4.1 222.8 5 59.5.7 71.4 11.9 71.5 70.9l.7 358.6c0 49.5-12.4 62.1-62 62.3l-368.8.4c-47.7 0-61.7-14.2-62.2-63l.3-142.1c.5-26.2-2.4-51.5-10.4-76.4 17.1-2.5 12.5-16 12.6-26.3l.1-117.6c-.1-57.1 8.4-64.5 65.8-66.2 43.3-1.3 86.9 6.8 129.6-5.6zm278.7 201.1h.2l-.1-125.2c-.3-44.7-19.2-66.3-63.9-62.7-84.3 6.7-168.6 6.1-253 5.7-16.5-.1-29 7.7-39 17.3-12.2 11.7-23.6 19.2-41.1 17.4-8-.8-20.5-3.4-20.7 10.2-.2 11.1 11 14.4 19.4 15.2 19.7 2 33.8 4.5 12.2 25.6-7.5 7.3-7.5 16.1-2.2 24.8 24.9 40.6 48 82.6 75.8 121.2 16.2 22.5 40.1 39.5 53.8 64.5 6.2 11.3 14.8 17.3 27.2 15.4 22.3-3.5 36 9.4 48.8 24.2 12.4 14.5 25.4 28.6 36.3 44.2 16.8 24 36 23.7 58 9 27.1-18.2 44.9-49.8 82.3-53.9 9-1 5.7-15.7 5.7-24.3l.3-128.6z" fill="#5fab16"/><path d="M1592.7 1213.9c7.7 78.4-11.6 150.2-52.7 216.6-23.5-25.4-55.2-11.5-81.2-12-149.6-3.2-299.3-1.2-449-1-41.3-67.3-44.1-141.5-38.8-217.1 17.7 2.3 35.3 6.2 53 6.5 189.5 3.4 379.2-6.7 568.7 7z" fill="#4e4c4f"/><path d="M632.8 2083.8c-21.4 91.6-8.2 184.6-11.5 277-.8 21.6-.9 42.9-26.4 51.6-12.5-1.4-2.3-18.7-19.2-22.2-40.8-8.5-81.2-14.4-122.9-12.6-19.9.9-38.7-4.8-54-18 8.1-16.4 29 .3 34.7-20.6-22.5-.4-41.9-9.5-63.8-8.8-33.8 1-72.8 9.2-81-41.5-.4-2.7-4.2-5.3-6.9-7.2-47.8-32.7-89-69.9-96.7-132.3-1.1-9.2-8.3-19-15.3-25.7-21.5-20.8-28.7-48.5-35.6-75.3-7.9-30.8-30.4-58-23.3-92.9 1.6-8-7.5-9.8-14.4-10.6-4-15.3.5-26.6 15.4-33 1.2 7.7-2.9 19.8 12.3 16.1 4.8-1.2 12.6-3.9 10.5-10.2-3.8-11.5-14.9-4.7-22.8-6.6 8.5-17.7 25-15.6 40.2-15.6l158.3.3c41.8 1.2 82.8-2.7 123.4-12.2l10.5 13.4c-18.2 6.6-37.1 7.4-56.3 7.5-27.9.1-55.6-2.2-83.6 5.5-20 5.5-23.8 13.6-21.6 33.2 3.5 30.6 13.8 59.2 26.4 85.8 22 46.2 43.7 95.9 87.6 124.7 39.6 25.9 82.5 48.3 130.8 58.6 16 3.4 30.3-9.3 45.2 1.5 27.3 19.6 31.9-3.2 32.1-20.9 1-68.4 12.4-136.4 7.4-204.9-2.4-33.2-5-67.1-33.9-90.7 5.4-7 13.3-4.3 20.3-5.1l26 32.5-.2 111.4c.5 15.9-6.5 33.9 8.3 47.8zm-29.5 292.4c-1.9-.8-4.2-2.7-5.6-2.1-1.4.5-1.8 3.5-2.6 5.4 1.9.8 4.2 2.7 5.6 2.1 1.4-.5 1.8-3.5 2.6-5.4zm-428.2-468l-4.4-1.3c.2.8.4 2.2.7 2.2.9.1 1.9-.4 3.7-.9z" fill="#0e84bf"/><path d="M1009.7 1417.5l449 1c26 .6 57.7-13.4 81.2 12-39 76-93.5 139.4-159.7 192.7-25.3 20.4-52.8 38-79.5 56.6-8.2 5.7-16.9 12.1-27.8 5.5-110.7-66.7-210.5-144.1-263.2-267.8z" fill="#373638"/><path d="M681.6 299.8c24.1-2.8 48.1-2.9 72.2.2 2.3.1 4.6.3 6.9.4 33.3 2.8 37.7 26.4 38.3 52.9 1.6 74.2-3.9 148.5 3.7 222.5 1.1 10.9 4.1 21.5 6.2 32.3-10.8 6.3-9.4 16.9-9.4 26.9l-.1 104.4c-9.9 9.8-12 28.5-31.3 27.6-47.6 0-95.2-.1-142.8-.1-9.3-2.7-17.6-1.9-23.3 7.1-71.3-13.2-143.2-5.1-214.9-6.8-43.2-1-59.3-15.7-59.4-58.8l.1-343.9c.1-59.1 6.5-65.3 65.7-64.5 5.6.1 11.2 0 16.9 0l20.7-.8 44.5.1 30 .1 85.1.2 90.9.2zm107 111v-37.2c0-49.8-16.6-66.7-66.1-66.8-32.7-.1-65.6 2.4-98-.6-33-3-63.9 12.4-97.1 5.6-42.1-8.6-84.6-5.3-127.3-.9-34.6 3.6-51.1 10.8-21.7 44 3.2 3.6 4 10.7 3.6 16.1-3.6 57.5 18.1 107.1 48.5 153.6 10.3 15.7 20.5 31 37 42.8 26.2 18.9 50.6 41.2 72.8 64.8 35.6 38 72.4 69.3 129.9 60.9 21-3.1 42.8-.5 64.2-.5 10.5 0 20.2 1 25.3 12.4 2.8 6.4-.8 19.4 10.8 17.3 12.9-2.3 10.8-15.3 10.8-25.1.7-95.4-2.6-191 7.3-286.4z" fill="#af26dc"/><path d="M96.4 1944.5c7 .8 16.1 2.7 14.4 10.6-7.2 34.9 15.4 62.1 23.3 92.9 6.9 26.8 14.1 54.5 35.6 75.3 7 6.8 14.1 16.6 15.3 25.7 7.8 62.4 48.9 99.6 96.7 132.3 2.7 1.9 6.5 4.5 6.9 7.2 8.1 50.7 47.1 42.5 81 41.5 21.9-.6 41.4 8.5 63.8 8.8-5.7 20.9-26.6 4.3-34.7 20.6 15.3 13.2 34.1 18.8 54 18 41.7-1.8 82.1 4.1 122.9 12.6 16.9 3.5 6.7 20.8 19.2 22.2-11.2 12.3-26.3 11-40.8 11l-398.7.4c-41.5 0-62-16.6-62.2-54.1l.4-415.5c0-3.1 1.9-6.3 2.9-9.5z" fill="#0f71ac"/><path d="M1592.6 1028.9v90.3c-42 9.1-84.7 5.9-127.2 6.8-164.9 3.6-330-8.1-494.7 6.7l-.2-87.7c14.8-8.7-.4-29.1 16.1-39.4 17 20.1 40.2 19.2 64 19.1l448.5-.7c31.5-.3 61.9 13.8 93.5 4.9z" fill="#5c5a5d"/><path d="M1592.6 1028.9c-31.6 8.9-62-5.2-93.4-5l-448.5.7c-23.8.1-47 1-64-19.1-16.5 10.3-1.3 30.7-16.1 39.4-.4-1-1.1-2.1-1.2-3.1-10.6-110.9-10.6-111 99.3-111l469.8.1c54.9 0 56.2 1.5 56 57.7-.1 13.4-1.2 26.9-1.9 40.3z" fill="#686669"/><path d="M970.7 1132.6c164.7-14.7 329.8-3.1 494.7-6.7 42.5-.9 85.2 2.3 127.2-6.8 2.6 31.6 3 63.2 0 94.7-189.5-13.7-379.2-3.7-568.8-7.1-17.7-.3-35.4-4.3-53-6.5-3.1-22.4-2.7-45-.1-67.6z" fill="#545255"/><path d="M1910.6 1668.2c-42.7 12.4-86.3 4.3-129.5 5.6-57.4 1.7-66 9.1-65.8 66.2l-.1 117.6c-.1 10.3 4.5 23.7-12.6 26.3-20-94.5-71.2-173.6-124.7-251.3-16.5-24-35.8-46.1-54-68.8-9.4-11.7-15.6-22.6 2.1-32.2l33.4 27.9c11.3 15.9 25 29.4 41.1 40.4 25.6 32.6 65 51.5 86.7 88.2 4.4 7.4 17.8 9.1 19.2.8 2.5-15 34.1-18 19-33.8-31.5-33-59.8-69.5-97.3-96.4-5.5-12.2-13.8-21.6-26.3-26.8-7.4-21.8-25-34.6-42.6-47.3 6-30.5 17.4-32.6 41.3-12.3 81.9 69.8 165.7 137.4 266.2 179.8 14.4 5.9 29.3 10.7 43.9 16.1z" fill="#373638"/><path d="M2135.3 598c19.1-12.3 40.8-11 61.9-11.1l198.8-.5c30.4-.1 51-13 57.8-44 8.7-144.4 4.7-288.9 1-433.3-.7-27.3-22.4-45.2-50.4-45.4-101-.5-202.1.8-303.1 1.5-27.3-3.6-54.6-3.5-81.9-.1l-18.9.1c-48.3-3.7-66.2 9.8-67.4 56.4-1.9 72-1.6 144.1-1.8 216.2-.1 17.1-2.5 33.5-8.2 49.5-10.8-11.7-11.7-26.1-11.1-41l6.4-186.7c.5-18.1 4.8-36-18.9-48.3-12.5-6.5-11.9-21.1 6.8-35.6 48.3-37.6 102.4-32.3 156.7-32.3h320.9c68.8.1 89.4 20.3 89.4 87.3l-.1 412.1c0 33.4-24.5 61.1-57.8 61.5l-265.3.1c-5-.2-9.9-4.2-14.8-6.4z" fill="#faf1d2"/><path d="M632.8 2083.8c-14.8-13.9-7.8-31.8-8.2-48-.8-37.1 0-74.3.2-111.4 13 .6 19.9-9.1 27.8-16.9L906 1655.8c18.3-19 47-31.8 51.9-62.7 8.2-5 19.2-7.1 20.5-19.4 19.3-10.8 32.6-30.7 55.4-36.2 16.6 19.4-3.2 28.3-12.6 38.1-71.6 74.4-141.7 150.1-207.8 229.5-71.4 85.8-138.4 174.2-180.6 278.7zM1959.7 588l131.4.8c11.9.2 25.2-3.3 34.2 8.8-115.2 44.7-210 120.4-302.3 199.7-54.6 46.8-107.3 95.9-160.9 143.8-7.3 6.5-13.8 19.3-24.1 15.3-9.7-3.7-7.8-17.3-8.7-27.2l317.3-315c7.3-7.4 13.5-15.1 13.1-26.2zm-34.3-199.7c14 12.9 6.6 29.6 7.1 44.4 1.4 43.8 1.1 87.6 1.4 131.3-4.4 1-10.1.5-12.8 3.2-61.6 59-124.2 117-183.6 178.1-32.1 33-62.7 67.3-97.9 97.3-17.6 15-38.8 27.4-45.7 52-9.8.1-23.2 3.4-26.1-8.4-2.4-9.6 8.4-17.6 15.3-25 96.1-103.1 190.2-207.8 268.1-325.7 30.5-46 58.3-93.7 74.2-147.2zM444.3 1896.8l-10.5-13.4c154.9-61.7 277.9-169.5 400.5-277.9l83.5-73.4c8.5-.4 12.6-5 12.8-13.4 13.6-11.1 19-34.3 43.4-29.2 4.3 20.8-21.4 25-23.4 42.3-17.6 5-30.2 15-33.5 34-18.1 4.2-24.4 21.8-35.9 33.1l-261 260.5c-9.2 9.3-21.8 16.7-21.5 32.5-7 .8-14.9-1.9-20.3 5.1l-134.1-.2z" fill="#373638"/><path d="M1593.9 894.6c6.9-24.6 28.1-37 45.7-52 35.1-30 65.8-64.3 97.9-97.3 59.4-61.1 122-119.1 183.6-178.1 2.8-2.6 8.5-2.2 12.8-3.2 10.9 5.5 18.8 14.2 25.8 24 .4 11.1-5.8 18.8-13.2 26.1l-317.3 315-35.3-34.5z" fill="#4e4c4f"/><path d="M625.3 766.9l142.8.1c5 25.7 27.3 37.9 44 53.3 39.8 36.7 73.6 80.2 120 109.7l-3.9 44.4c-96.7-76.9-191.6-148-302.3-193.8-.1-4.5-.4-9.1-.6-13.7zm174.1-27.4l.1-104.4c0-10-1.4-20.6 9.4-26.9 33 99.4 96.6 179.3 163.7 257.1 7 8.1 31.9 22-1.6 30l-78.7-70.2c-30.7-28.8-58.6-60.7-92.9-85.6z" fill="#373638"/><path d="M799.4 739.5c34.3 25 62.1 56.8 92.8 85.6 25.6 24.1 52.4 46.9 78.7 70.2-15.9 8.2-28 20.8-38.8 34.6-46.4-29.5-80.2-73-120-109.7-16.7-15.4-39.1-27.6-44-53.3 19.4 1.1 21.4-17.6 31.3-27.4z" fill="#4e4c4f"/><path d="M950.7 1531.8c1.9-17.3 27.7-21.5 23.4-42.3l.7-.6 10 2.5 8.3-16.3 40.7 62.4c-22.8 5.5-36.1 25.5-55.4 36.2l-27.7-41.9zm608.7 27.6l-33.4-27.9c9.4-16.9 18.5-33.9 33.2-47.1 17.6 12.7 35.1 25.5 42.6 47.3-20.4-.2-18.3 33.8-42.4 27.7z" fill="#686669"/><path d="M681.6 299.8c-30.3 0-60.6-.1-90.9-.1 30.3-7.3 60.6-7.6 90.9.1z" fill="#d02bed"/><path d="M993.1 1475.1l-8.3 16.3c-.1-7-2.6-12.6-9.8-15 5.3-10.7 11.2-12.8 18.1-1.3zM625.3 766.9l.6 13.7L602 774c5.8-9 14-9.8 23.3-7.1zm305.3 751.8c-.2 8.3-4.4 12.9-12.8 13.4 2-6.6 5.8-11.6 12.8-13.4z" fill="#4e4c4f"/><path d="M505.6 299.4c-10 0-20-.1-30-.1 10-5.8 20-5.9 30 .1zm-74.5-.1l-20.7.8c6.7-7.5 13.7-5.4 20.7-.8z" fill="#d02bed"/><path d="M975 1476.4c7.2 2.5 9.6 8 9.8 15l-10-2.5c-4.7-4.3-4.5-8.4.2-12.5z" fill="#373638"/><path d="M760.7 300.5l-6.9-.4c2.5-3.9 4.9-4.6 6.9.4z" fill="#d02bed"/><path d="M2101.3 65.2l303.1-1.5c28 .1 49.7 18.1 50.4 45.4 3.7 144.4 7.7 288.9-1 433.3l-.5-64c-.2-43.7-10.6-62.4-52.5-61.7-183.2 2.9-310.8-193.9-299.5-351.5zm-100.8 0l18.9-.1c-6.2 6.5-12.5 6.5-18.9.1z" fill="#fca901"/><path d="M2189.3 1869.3l-.1 128.6c-.1 8.6 3.2 23.4-5.7 24.3-37.3 4.1-55.1 35.7-82.3 53.9-22 14.8-41.2 15-58-9-10.9-15.6-23.9-29.7-36.3-44.2-12.7-14.9-26.4-27.7-48.8-24.2-12.5 1.9-21-4.1-27.2-15.4-13.7-25-37.7-42-53.8-64.5-27.7-38.6-50.8-80.6-75.8-121.2-5.3-8.6-5.3-17.4 2.2-24.8 21.6-21.1 7.5-23.6-12.2-25.6-8.4-.9-19.6-4.1-19.4-15.2.2-13.6 12.8-11 20.7-10.2 17.5 1.9 28.9-5.7 41.1-17.4 10-9.6 22.5-17.4 39-17.3 84.3.4 168.6 1 253-5.7 44.7-3.6 63.6 18 63.9 62.7l.1 125.2h-.4z" fill="#77bd01"/><path d="M444.3 1896.8l134.2.2c28.9 23.6 31.5 57.5 33.9 90.7 4.9 68.5-6.5 136.5-7.4 204.9-.2 17.7-4.8 40.6-32.1 20.9-14.9-10.7-29.2 2-45.2-1.5-48.3-10.3-91.2-32.7-130.8-58.6-43.9-28.8-65.7-78.5-87.6-124.7-12.6-26.5-23-55.2-26.4-85.8-2.2-19.6 1.6-27.7 21.6-33.2 28-7.7 55.7-5.4 83.6-5.5 19.1 0 37.9-.8 56.2-7.4z" fill="#12a5dd"/><path d="M598.8 1891.9c-.3-15.8 12.3-23.2 21.5-32.5l261-260.5c11.5-11.3 17.8-28.9 35.9-33.1l40.7 27.4c-4.9 30.8-33.6 43.7-51.9 62.7-82.5 85.8-168.6 168.1-253.4 251.7-7.9 7.8-14.7 17.5-27.8 16.9l-26-32.6z" fill="#4e4c4f"/><path d="M111.9 1910.9c7.8 1.9 18.9-4.9 22.8 6.6 2.1 6.2-5.7 9-10.5 10.2-15.2 3.7-11.1-8.4-12.3-16.1-.1 0 0-.7 0-.7zm491.4 465.3c-.8 1.9-1.2 4.8-2.6 5.4-1.4.5-3.7-1.3-5.6-2.1.8-1.9 1.2-4.9 2.6-5.4s3.7 1.3 5.6 2.1zm-428.2-468c-1.8.5-2.8 1-3.7.9-.3 0-.5-1.4-.7-2.2l4.4 1.3z" fill="#0f71ac"/><path d="M788.6 410.8c-9.9 95.3-6.6 191-7.3 286.6-.1 9.9 2 22.9-10.8 25.1-11.6 2-7.9-11-10.8-17.3-5.1-11.5-14.9-12.4-25.3-12.4-21.4 0-43.2-2.6-64.2.5-57.5 8.4-94.3-22.9-129.9-60.9-22.2-23.6-46.5-45.9-72.8-64.8-16.5-11.9-26.7-27.1-37-42.8-30.4-46.6-52.1-96.1-48.5-153.6.3-5.4-.4-12.4-3.6-16.1-29.4-33.2-12.9-40.4 21.7-44 42.7-4.4 85.1-7.7 127.3.9 33.1 6.7 64.1-8.6 97.1-5.6 32.4 3 65.3.5 98 .6 49.5.2 66.1 17.1 66.1 66.8v37z" fill="#d02bed"/><path d="M1628 1558.6c37.6 26.9 65.9 63.5 97.3 96.4 15 15.8-16.5 18.8-19 33.8-1.4 8.3-14.8 6.6-19.2-.8-21.7-36.7-61.1-55.6-86.7-88.2 10.6-12.8 23.4-24.1 27.6-41.2z" fill="#4e4c4f"/><path d="M1628 1558.6c-4.2 17.1-17 28.4-27.6 41.2-16.1-11.1-29.7-24.6-41.1-40.4 24.1 6.1 22-27.9 42.3-27.6 12.7 5.2 21 14.6 26.4 26.8zm-670.1 34.6l-40.7-27.4c3.4-19 16-29 33.5-34l27.6 42c-1.2 12.3-12.2 14.4-20.4 19.4z" fill="#5c5a5d"/></svg>