<?xml version="1.0" encoding="utf-8"?>
<!-- Generator: Adobe Illustrator 21.1.0, SVG Export Plug-In . SVG Version: 6.00 Build 0)  -->
<svg version="1.1" id="Layer_1" xmlns="http://www.w3.org/2000/svg" xmlns:xlink="http://www.w3.org/1999/xlink" x="0px" y="0px"
	 viewBox="0 0 2500 2500" style="enable-background:new 0 0 2500 2500;" xml:space="preserve">
<style type="text/css">
	.st0{fill:#FCFCFC;}
	.st1{fill:#FB9B01;}
	.st2{fill:#5FAB16;}
	.st3{fill:#4E4C4F;}
	.st4{fill:#0E84BF;}
	.st5{fill:#373638;}
	.st6{fill:#AF26DC;}
	.st7{fill:#0F71AC;}
	.st8{fill:#5C5A5D;}
	.st9{fill:#686669;}
	.st10{fill:#545255;}
	.st11{fill:#FAF1D2;}
	.st12{fill:#D02BED;}
	.st13{fill:#FCA901;}
	.st14{fill:#77BD01;}
	.st15{fill:#12A5DD;}
</style>
<g id="ASwJm6.tif">
	<g>
		<path class="st0" d="M975,1476.4c-4.7,4.1-4.9,8.2-0.3,12.5l-0.7,0.6c-24.4-5.1-29.8,18.1-43.4,29.2c-7.1,1.8-10.8,6.7-12.8,13.4
			c-27.8,24.5-55.7,48.9-83.5,73.4c-122.6,108.4-245.6,216.1-400.6,277.9c-40.6,9.5-81.5,13.4-123.3,12.2
			c-52.7-1.6-105.5-0.5-158.3-0.3c-15.2,0.1-31.7-2.1-40.2,15.6l-0.1,0.7c-15,6.4-19.4,17.7-15.4,33c-1,3.2-2.9,6.4-2.9,9.6
			c-0.3,138.5-1.1,277-0.4,415.5c0.2,37.5,20.7,54.1,62.2,54.1c132.9,0.1,265.8-0.2,398.7-0.4c14.5,0,29.6,1.3,40.8-11
			c25.5-8.7,25.7-30,26.4-51.6c3.3-92.4-9.9-185.4,11.5-277c42.2-104.5,109.3-192.9,180.6-278.6c66.1-79.4,136.2-155.1,207.8-229.5
			c9.4-9.8,29.2-18.6,12.6-38.1c-13.6-20.8-27.1-41.6-40.7-62.4C986.2,1463.6,980.3,1465.7,975,1476.4z M971,895.3
			c33.4-8,8.6-21.9,1.6-30c-67.1-77.8-130.7-157.7-163.7-257.2c-2.1-10.8-5.1-21.4-6.2-32.3c-7.7-74.1-2.1-148.4-3.7-222.5
			c-0.6-26.5-5-50.1-38.3-52.9c-2-5-4.4-4.2-6.9-0.4c-24.1-3.1-48.1-3-72.2-0.2c-30.3-7.7-60.6-7.4-90.9-0.1
			c-28.3-0.1-56.7-0.2-85-0.2c-10-6-20-6-30-0.1c-14.8,0-29.7-0.1-44.5-0.1c-7.1-4.6-14.1-6.7-20.7,0.8c-5.6,0-11.2,0-16.9,0
			c-59.2-0.8-65.6,5.4-65.7,64.5c-0.2,114.6-0.4,229.3-0.1,343.9c0.1,43.1,16.2,57.8,59.4,58.8c71.6,1.7,143.6-6.5,214.9,6.8
			c8,2.2,15.9,4.4,23.9,6.6c110.7,45.8,205.6,116.9,302.3,193.8c1.6-18.6,2.7-31.5,3.9-44.4C943,916.1,955.1,903.6,971,895.3z
			 M1593.9,894.6c11.8,11.5,23.6,23,35.3,34.5c0.8,9.9-1,23.5,8.7,27.2c10.3,4,16.8-8.8,24.1-15.3c53.7-47.9,106.3-97,160.9-143.8
			c92.3-79.2,187.2-155,302.4-199.7c3.3,0.1,6.6,0.3,9.9,0.4c4.9,2.2,9.9,6.2,14.8,6.2c88.4,0.4,176.9,1.1,265.3-0.1
			c33.3-0.4,57.8-28.1,57.8-61.5c0.2-137.4,0.1-274.8,0.1-412.1c0-67-20.6-87.2-89.4-87.3c-107-0.1-214-0.1-320.9,0
			c-54.3,0-108.4-5.3-156.7,32.3c-18.6,14.5-19.3,29.2-6.8,35.6c23.7,12.3,19.4,30.2,18.9,48.3c-1.7,62.2-4.1,124.5-6.4,186.7
			c-0.5,14.9,0.3,29.3,11.1,41l2.3,1c-15.9,53.5-43.8,101.2-74.2,147.3c-77.9,118-172,222.7-268.1,325.7c-6.9,7.4-17.6,15.4-15.3,25
			C1570.7,898,1584.1,894.7,1593.9,894.6z M1526,1531.5c-17.7,9.6-11.5,20.6-2.1,32.2c18.3,22.7,37.5,44.8,54,68.8
			c53.5,77.8,104.7,156.9,124.7,251.3c7.9,24.9,10.9,50.2,10.4,76.4c-0.9,47.3-0.7,94.7-0.3,142.1c0.5,48.8,14.4,63,62.2,63
			c122.9,0.1,245.8,0,368.8-0.4c49.6-0.2,62-12.7,62-62.3c0-119.5-0.5-239.1-0.7-358.6c-0.1-58.9-12-70.2-71.5-70.9
			c-74.3-0.9-148.7,5.1-222.8-5c-14.7-5.4-29.6-10.2-43.9-16.3c-100.6-42.4-184.3-110-266.2-179.8c-23.9-20.4-35.4-18.2-41.3,12.3
			C1544.5,1497.6,1535.4,1514.7,1526,1531.5z M1592.7,1119.2c0-30.1,0-60.2,0-90.3c0.6-13.4,1.7-26.9,1.8-40.3
			c0.2-56.2-1.1-57.7-56-57.7c-156.6-0.1-313.2-0.1-469.8-0.1c-109.9,0-109.9,0-99.3,111c0.1,1.1,0.8,2.1,1.2,3.1
			c0.1,29.2,0.1,58.5,0.2,87.7c-2.6,22.6-3,45.1,0.1,67.7c-5.3,75.6-2.4,149.8,38.8,217.1c52.8,123.7,152.6,201.2,263.3,267.9
			c10.8,6.5,19.5,0.2,27.8-5.5c26.7-18.6,54.2-36.2,79.5-56.6c66.2-53.3,120.7-116.7,159.7-192.7c41.1-66.5,60.4-138.3,52.7-216.6
			C1595.7,1182.3,1595.2,1150.8,1592.7,1119.2z"/>
		<path class="st1" d="M2135.3,598c-3.3-0.1-6.6-0.3-9.9-0.4c-9-12.1-22.3-8.6-34.2-8.8c-43.8-0.6-87.6-0.6-131.4-0.8
			c-6.9-9.8-14.8-18.5-25.7-24c-0.4-43.8-0.1-87.6-1.5-131.3c-0.5-14.8,7-31.6-7.1-44.4c0,0-2.3-1-2.3-1c5.7-16,8.1-32.4,8.2-49.5
			c0.2-72.1-0.1-144.1,1.8-216.2c1.2-46.7,19.1-60.2,67.4-56.4c6.3,6.4,12.6,6.4,18.9-0.1c27.3-3.4,54.6-3.5,81.9,0.1
			c-11.3,157.7,116.3,354.5,299.4,351.5c41.9-0.7,52.3,18,52.5,61.7c0.1,21.3,0.3,42.7,0.5,64c-6.8,31-27.5,43.9-57.8,44
			c-66.3,0.1-132.5,0-198.8,0.5C2176,587,2154.3,585.8,2135.3,598z"/>
		<path class="st2" d="M1910.6,1668.2c74.1,10.1,148.5,4.1,222.8,5c59.5,0.7,71.4,11.9,71.5,70.9c0.3,119.5,0.7,239.1,0.7,358.6
			c0,49.5-12.4,62.1-62,62.3c-122.9,0.4-245.8,0.5-368.8,0.4c-47.7,0-61.7-14.2-62.2-63c-0.5-47.4-0.7-94.7,0.3-142.1
			c0.5-26.2-2.4-51.5-10.4-76.4c17.1-2.5,12.5-16,12.6-26.3c0.4-39.2,0.2-78.4,0.1-117.6c-0.1-57.1,8.4-64.5,65.8-66.2
			C1824.3,1672.5,1867.9,1680.6,1910.6,1668.2z M2189.3,1869.3c0.1,0,0.1,0,0.2,0c0-41.7,0.2-83.5-0.1-125.2
			c-0.3-44.7-19.2-66.3-63.9-62.7c-84.3,6.7-168.6,6.1-253,5.7c-16.5-0.1-29,7.7-39,17.3c-12.2,11.7-23.6,19.2-41.1,17.4
			c-8-0.8-20.5-3.4-20.7,10.2c-0.2,11.1,11,14.4,19.4,15.2c19.7,2,33.8,4.5,12.2,25.6c-7.5,7.3-7.5,16.1-2.2,24.8
			c24.9,40.6,48,82.6,75.8,121.2c16.2,22.5,40.1,39.5,53.8,64.5c6.2,11.3,14.8,17.3,27.2,15.4c22.3-3.5,36,9.4,48.8,24.2
			c12.4,14.5,25.4,28.6,36.3,44.2c16.8,24,36,23.7,58,9c27.1-18.2,44.9-49.8,82.3-53.9c9-1,5.7-15.7,5.7-24.3
			C2189.4,1955,2189.3,1912.2,2189.3,1869.3z"/>
		<path class="st3" d="M1592.7,1213.9c7.7,78.4-11.6,150.2-52.7,216.6c-23.5-25.4-55.2-11.5-81.2-12c-149.6-3.2-299.3-1.2-449-1
			c-41.3-67.3-44.1-141.5-38.8-217.1c17.7,2.3,35.3,6.2,53,6.5C1213.5,1210.3,1403.2,1200.2,1592.7,1213.9z"/>
		<path class="st4" d="M632.8,2083.8c-21.4,91.6-8.2,184.6-11.5,277c-0.8,21.6-0.9,42.9-26.4,51.6c-12.5-1.4-2.3-18.7-19.2-22.2
			c-40.8-8.5-81.2-14.4-122.9-12.6c-19.9,0.9-38.7-4.8-54-18c8.1-16.4,29,0.3,34.7-20.6c-22.5-0.4-41.9-9.5-63.8-8.8
			c-33.8,1-72.8,9.2-81-41.5c-0.4-2.7-4.2-5.3-6.9-7.2c-47.8-32.7-89-69.9-96.7-132.3c-1.1-9.2-8.3-19-15.3-25.7
			c-21.5-20.8-28.7-48.5-35.6-75.3c-7.9-30.8-30.4-58-23.3-92.9c1.6-8-7.5-9.8-14.4-10.6c-4-15.3,0.5-26.6,15.4-33
			c1.2,7.7-2.9,19.8,12.3,16.1c4.8-1.2,12.6-3.9,10.5-10.2c-3.8-11.5-14.9-4.7-22.8-6.6c8.5-17.7,25-15.6,40.2-15.6
			c52.8-0.2,105.6-1.3,158.3,0.3c41.8,1.2,82.8-2.7,123.4-12.2c3.5,4.5,7,8.9,10.5,13.4c-18.2,6.6-37.1,7.4-56.3,7.5
			c-27.9,0.1-55.6-2.2-83.6,5.5c-20,5.5-23.8,13.6-21.6,33.2c3.5,30.6,13.8,59.2,26.4,85.8c22,46.2,43.7,95.9,87.6,124.7
			c39.6,25.9,82.5,48.3,130.8,58.6c16,3.4,30.3-9.3,45.2,1.5c27.3,19.6,31.9-3.2,32.1-20.9c1-68.4,12.4-136.4,7.4-204.9
			c-2.4-33.2-5-67.1-33.9-90.7c5.4-7,13.3-4.3,20.3-5.1c8.7,10.8,17.4,21.7,26,32.5c-0.2,37.1-1.1,74.3-0.2,111.4
			C625,2051.9,618,2069.9,632.8,2083.8z M603.3,2376.2c-1.9-0.8-4.2-2.7-5.6-2.1c-1.4,0.5-1.8,3.5-2.6,5.4c1.9,0.8,4.2,2.7,5.6,2.1
			C602.1,2381.1,602.5,2378.1,603.3,2376.2z M175.1,1908.2c-2-0.6-3.2-0.9-4.4-1.3c0.2,0.8,0.4,2.2,0.7,2.2
			C172.3,1909.2,173.3,1908.7,175.1,1908.2z"/>
		<path class="st5" d="M1009.7,1417.5c149.7-0.2,299.4-2.1,449,1c26,0.6,57.7-13.4,81.2,12c-39,76-93.5,139.4-159.7,192.7
			c-25.3,20.4-52.8,38-79.5,56.6c-8.2,5.7-16.9,12.1-27.8,5.5C1162.2,1618.6,1062.4,1541.2,1009.7,1417.5z"/>
		<path class="st6" d="M681.6,299.8c24.1-2.8,48.1-2.9,72.2,0.2c2.3,0.1,4.6,0.3,6.9,0.4c33.3,2.8,37.7,26.4,38.3,52.9
			c1.6,74.2-3.9,148.5,3.7,222.5c1.1,10.9,4.1,21.5,6.2,32.3c-10.8,6.3-9.4,16.9-9.4,26.9c-0.1,34.8,0,69.6-0.1,104.4
			c-9.9,9.8-12,28.5-31.3,27.6c-47.6,0-95.2-0.1-142.8-0.1c-9.3-2.7-17.6-1.9-23.3,7.1c-71.3-13.2-143.2-5.1-214.9-6.8
			c-43.2-1-59.3-15.7-59.4-58.8c-0.3-114.6,0-229.3,0.1-343.9c0.1-59.1,6.5-65.3,65.7-64.5c5.6,0.1,11.2,0,16.9,0
			c6.9-0.3,13.8-0.5,20.7-0.8c14.8,0,29.7,0.1,44.5,0.1c10,0,20,0.1,30,0.1c28.3,0.1,56.7,0.2,85.1,0.2
			C621,299.7,651.3,299.8,681.6,299.8z M788.6,410.8c0-12.4,0-24.8,0-37.2c0-49.8-16.6-66.7-66.1-66.8c-32.7-0.1-65.6,2.4-98-0.6
			c-33-3-63.9,12.4-97.1,5.6c-42.1-8.6-84.6-5.3-127.3-0.9c-34.6,3.6-51.1,10.8-21.7,44c3.2,3.6,4,10.7,3.6,16.1
			c-3.6,57.5,18.1,107.1,48.5,153.6c10.3,15.7,20.5,31,37,42.8c26.2,18.9,50.6,41.2,72.8,64.8c35.6,38,72.4,69.3,129.9,60.9
			c21-3.1,42.8-0.5,64.2-0.5c10.5,0,20.2,1,25.3,12.4c2.8,6.4-0.8,19.4,10.8,17.3c12.9-2.3,10.8-15.3,10.8-25.1
			C782,601.8,778.7,506.2,788.6,410.8z"/>
		<path class="st7" d="M96.4,1944.5c7,0.8,16.1,2.7,14.4,10.6c-7.2,34.9,15.4,62.1,23.3,92.9c6.9,26.8,14.1,54.5,35.6,75.3
			c7,6.8,14.1,16.6,15.3,25.7c7.8,62.4,48.9,99.6,96.7,132.3c2.7,1.9,6.5,4.5,6.9,7.2c8.1,50.7,47.1,42.5,81,41.5
			c21.9-0.6,41.4,8.5,63.8,8.8c-5.7,20.9-26.6,4.3-34.7,20.6c15.3,13.2,34.1,18.8,54,18c41.7-1.8,82.1,4.1,122.9,12.6
			c16.9,3.5,6.7,20.8,19.2,22.2c-11.2,12.3-26.3,11-40.8,11c-132.9,0.2-265.8,0.5-398.7,0.4c-41.5,0-62-16.6-62.2-54.1
			c-0.7-138.5,0-277,0.4-415.5C93.5,1950.9,95.4,1947.7,96.4,1944.5z"/>
		<path class="st8" d="M1592.6,1028.9c0,30.1,0,60.2,0,90.3c-42,9.1-84.7,5.9-127.2,6.8c-164.9,3.6-330-8.1-494.7,6.7
			c-0.1-29.2-0.1-58.5-0.2-87.7c14.8-8.7-0.4-29.1,16.1-39.4c17,20.1,40.2,19.2,64,19.1c149.5-0.5,299,0.3,448.5-0.7
			C1530.6,1023.7,1561,1037.8,1592.6,1028.9z"/>
		<path class="st9" d="M1592.6,1028.9c-31.6,8.9-62-5.2-93.4-5c-149.5,1-299,0.2-448.5,0.7c-23.8,0.1-47,1-64-19.1
			c-16.5,10.3-1.3,30.7-16.1,39.4c-0.4-1-1.1-2.1-1.2-3.1c-10.6-110.9-10.6-111,99.3-111c156.6,0,313.2,0,469.8,0.1
			c54.9,0,56.2,1.5,56,57.7C1594.4,1002,1593.3,1015.5,1592.6,1028.9z"/>
		<path class="st10" d="M970.7,1132.6c164.7-14.7,329.8-3.1,494.7-6.7c42.5-0.9,85.2,2.3,127.2-6.8c2.6,31.6,3,63.2,0,94.7
			c-189.5-13.7-379.2-3.7-568.8-7.1c-17.7-0.3-35.4-4.3-53-6.5C967.7,1177.8,968.1,1155.2,970.7,1132.6z"/>
		<path class="st5" d="M1910.6,1668.2c-42.7,12.4-86.3,4.3-129.5,5.6c-57.4,1.7-66,9.1-65.8,66.2c0.1,39.2,0.3,78.4-0.1,117.6
			c-0.1,10.3,4.5,23.7-12.6,26.3c-20-94.5-71.2-173.6-124.7-251.3c-16.5-24-35.8-46.1-54-68.8c-9.4-11.7-15.6-22.6,2.1-32.2
			c11.1,9.3,22.3,18.6,33.4,27.9c11.3,15.9,25,29.4,41.1,40.4c25.6,32.6,65,51.5,86.7,88.2c4.4,7.4,17.8,9.1,19.2,0.8
			c2.5-15,34.1-18,19-33.8c-31.5-33-59.8-69.5-97.3-96.4c-5.5-12.2-13.8-21.6-26.3-26.8c-7.4-21.8-25-34.6-42.6-47.3
			c6-30.5,17.4-32.6,41.3-12.3c81.9,69.8,165.7,137.4,266.2,179.8C1881.1,1658,1896,1662.8,1910.6,1668.2z"/>
		<path class="st11" d="M2135.3,598c19.1-12.3,40.8-11,61.9-11.1c66.3-0.5,132.5-0.4,198.8-0.5c30.4-0.1,51-13,57.8-44
			c8.7-144.4,4.7-288.9,1-433.3c-0.7-27.3-22.4-45.2-50.4-45.4c-101-0.5-202.1,0.8-303.1,1.5c-27.3-3.6-54.6-3.5-81.9-0.1
			c-6.3,0-12.6,0.1-18.9,0.1c-48.3-3.7-66.2,9.8-67.4,56.4c-1.9,72-1.6,144.1-1.8,216.2c-0.1,17.1-2.5,33.5-8.2,49.5
			c-10.8-11.7-11.7-26.1-11.1-41c2.3-62.2,4.7-124.5,6.4-186.7c0.5-18.1,4.8-36-18.9-48.3c-12.5-6.5-11.9-21.1,6.8-35.6
			c48.3-37.6,102.4-32.3,156.7-32.3c107-0.1,214-0.1,320.9,0c68.8,0.1,89.4,20.3,89.4,87.3c0,137.4,0.1,274.8-0.1,412.1
			c0,33.4-24.5,61.1-57.8,61.5c-88.4,1.1-176.9,0.5-265.3,0.1C2145.1,604.2,2140.2,600.2,2135.3,598z"/>
		<path class="st5" d="M632.8,2083.8c-14.8-13.9-7.8-31.8-8.2-48c-0.8-37.1,0-74.3,0.2-111.4c13,0.6,19.9-9.1,27.8-16.9
			c84.8-83.5,170.9-165.9,253.4-251.7c18.3-19,47-31.8,51.9-62.7c8.2-5,19.2-7.1,20.5-19.4c19.3-10.8,32.6-30.7,55.4-36.2
			c16.6,19.4-3.2,28.3-12.6,38.1c-71.6,74.4-141.7,150.1-207.8,229.5C742,1890.9,675,1979.3,632.8,2083.8z"/>
		<path class="st5" d="M1959.7,588c43.8,0.2,87.6,0.2,131.4,0.8c11.9,0.2,25.2-3.3,34.2,8.8C2010.1,642.3,1915.3,718,1823,797.3
			c-54.6,46.8-107.3,95.9-160.9,143.8c-7.3,6.5-13.8,19.3-24.1,15.3c-9.7-3.7-7.8-17.3-8.7-27.2c105.7-105,211.5-210,317.3-315
			C1953.9,606.8,1960.1,599.1,1959.7,588z"/>
		<path class="st5" d="M1925.4,388.3c14,12.9,6.6,29.6,7.1,44.4c1.4,43.8,1.1,87.6,1.4,131.3c-4.4,1-10.1,0.5-12.8,3.2
			c-61.6,59-124.2,117-183.6,178.1c-32.1,33-62.7,67.3-97.9,97.3c-17.6,15-38.8,27.4-45.7,52c-9.8,0.1-23.2,3.4-26.1-8.4
			c-2.4-9.6,8.4-17.6,15.3-25c96.1-103.1,190.2-207.8,268.1-325.7C1881.7,489.5,1909.5,441.8,1925.4,388.3z"/>
		<path class="st5" d="M444.3,1896.8c-3.5-4.5-7-8.9-10.5-13.4c154.9-61.7,277.9-169.5,400.5-277.9c27.8-24.5,55.6-49,83.5-73.4
			c8.5-0.4,12.6-5,12.8-13.4c13.6-11.1,19-34.3,43.4-29.2c4.3,20.8-21.4,25-23.4,42.3c-17.6,5-30.2,15-33.5,34
			c-18.1,4.2-24.4,21.8-35.9,33.1c-87.5,86.3-174.2,173.4-261,260.5c-9.2,9.3-21.8,16.7-21.5,32.5c-7,0.8-14.9-1.9-20.3,5.1
			C533.8,1896.9,489,1896.9,444.3,1896.8z"/>
		<path class="st3" d="M1593.9,894.6c6.9-24.6,28.1-37,45.7-52c35.1-30,65.8-64.3,97.9-97.3c59.4-61.1,122-119.1,183.6-178.1
			c2.8-2.6,8.5-2.2,12.8-3.2c10.9,5.5,18.8,14.2,25.8,24c0.4,11.1-5.8,18.8-13.2,26.1c-105.8,105-211.5,210-317.3,315
			C1617.5,917.7,1605.7,906.2,1593.9,894.6z"/>
		<path class="st5" d="M625.3,766.9c47.6,0,95.2,0.1,142.8,0.1c5,25.7,27.3,37.9,44,53.3c39.8,36.7,73.6,80.2,120,109.7
			c-1.1,12.9-2.3,25.9-3.9,44.4c-96.7-76.9-191.6-148-302.3-193.8C625.8,776.1,625.5,771.5,625.3,766.9z"/>
		<path class="st5" d="M799.4,739.5c0-34.8,0-69.6,0.1-104.4c0-10-1.4-20.6,9.4-26.9c33,99.4,96.6,179.3,163.7,257.1
			c7,8.1,31.9,22-1.6,30c-26.3-23.4-53.1-46.1-78.7-70.2C861.6,796.3,833.7,764.4,799.4,739.5z"/>
		<path class="st3" d="M799.4,739.5c34.3,25,62.1,56.8,92.8,85.6c25.6,24.1,52.4,46.9,78.7,70.2c-15.9,8.2-28,20.8-38.8,34.6
			c-46.4-29.5-80.2-73-120-109.7c-16.7-15.4-39.1-27.6-44-53.3C787.5,768,789.5,749.3,799.4,739.5z"/>
		<path class="st9" d="M950.7,1531.8c1.9-17.3,27.7-21.5,23.4-42.3c0,0,0.7-0.6,0.7-0.6c3.4,0.9,6.7,1.7,10,2.5
			c2.8-5.4,5.6-10.9,8.3-16.3c13.6,20.8,27.1,41.6,40.7,62.4c-22.8,5.5-36.1,25.5-55.4,36.2C969.1,1559.8,959.9,1545.8,950.7,1531.8
			z"/>
		<path class="st9" d="M1559.4,1559.4c-11.1-9.3-22.3-18.6-33.4-27.9c9.4-16.9,18.5-33.9,33.2-47.1c17.6,12.7,35.1,25.5,42.6,47.3
			C1581.4,1531.5,1583.5,1565.5,1559.4,1559.4z"/>
		<path class="st12" d="M681.6,299.8c-30.3,0-60.6-0.1-90.9-0.1C621,292.4,651.3,292.1,681.6,299.8z"/>
		<path class="st3" d="M993.1,1475.1c-2.8,5.4-5.6,10.9-8.3,16.3c-0.1-7-2.6-12.6-9.8-15C980.3,1465.7,986.2,1463.6,993.1,1475.1z"
			/>
		<path class="st3" d="M625.3,766.9c0.2,4.6,0.4,9.2,0.6,13.7c-8-2.2-15.9-4.4-23.9-6.6C607.8,765,616,764.2,625.3,766.9z"/>
		<path class="st3" d="M930.6,1518.7c-0.2,8.3-4.4,12.9-12.8,13.4C919.8,1525.5,923.6,1520.5,930.6,1518.7z"/>
		<path class="st12" d="M505.6,299.4c-10,0-20-0.1-30-0.1C485.6,293.5,495.6,293.4,505.6,299.4z"/>
		<path class="st12" d="M431.1,299.3c-6.9,0.3-13.8,0.5-20.7,0.8C417.1,292.6,424.1,294.7,431.1,299.3z"/>
		<path class="st5" d="M975,1476.4c7.2,2.5,9.6,8,9.8,15c-3.3-0.8-6.6-1.7-10-2.5C970.1,1484.6,970.3,1480.5,975,1476.4z"/>
		<path class="st12" d="M760.7,300.5c-2.3-0.1-4.6-0.3-6.9-0.4C756.3,296.2,758.7,295.5,760.7,300.5z"/>
		<path class="st13" d="M2101.3,65.2c101-0.6,202.1-2,303.1-1.5c28,0.1,49.7,18.1,50.4,45.4c3.7,144.4,7.7,288.9-1,433.3
			c-0.2-21.4-0.4-42.7-0.5-64c-0.2-43.7-10.6-62.4-52.5-61.7C2217.6,419.6,2090,222.8,2101.3,65.2z"/>
		<path class="st13" d="M2000.5,65.2c6.3,0,12.6-0.1,18.9-0.1C2013.2,71.6,2006.9,71.6,2000.5,65.2z"/>
		<path class="st14" d="M2189.3,1869.3c0,42.9,0.2,85.7-0.1,128.6c-0.1,8.6,3.2,23.4-5.7,24.3c-37.3,4.1-55.1,35.7-82.3,53.9
			c-22,14.8-41.2,15-58-9c-10.9-15.6-23.9-29.7-36.3-44.2c-12.7-14.9-26.4-27.7-48.8-24.2c-12.5,1.9-21-4.1-27.2-15.4
			c-13.7-25-37.7-42-53.8-64.5c-27.7-38.6-50.8-80.6-75.8-121.2c-5.3-8.6-5.3-17.4,2.2-24.8c21.6-21.1,7.5-23.6-12.2-25.6
			c-8.4-0.9-19.6-4.1-19.4-15.2c0.2-13.6,12.8-11,20.7-10.2c17.5,1.9,28.9-5.7,41.1-17.4c10-9.6,22.5-17.4,39-17.3
			c84.3,0.4,168.6,1,253-5.7c44.7-3.6,63.6,18,63.9,62.7c0.3,41.7,0.1,83.5,0.1,125.2C2189.4,1869.3,2189.3,1869.3,2189.3,1869.3z"
			/>
		<path class="st15" d="M444.3,1896.8c44.7,0.1,89.5,0.1,134.2,0.2c28.9,23.6,31.5,57.5,33.9,90.7c4.9,68.5-6.5,136.5-7.4,204.9
			c-0.2,17.7-4.8,40.6-32.1,20.9c-14.9-10.7-29.2,2-45.2-1.5c-48.3-10.3-91.2-32.7-130.8-58.6c-43.9-28.8-65.7-78.5-87.6-124.7
			c-12.6-26.5-23-55.2-26.4-85.8c-2.2-19.6,1.6-27.7,21.6-33.2c28-7.7,55.7-5.4,83.6-5.5C407.2,1904.2,426,1903.4,444.3,1896.8z"/>
		<path class="st3" d="M598.8,1891.9c-0.3-15.8,12.3-23.2,21.5-32.5c86.8-87.1,173.5-174.2,261-260.5c11.5-11.3,17.8-28.9,35.9-33.1
			c13.6,9.1,27.1,18.2,40.7,27.4c-4.9,30.8-33.6,43.7-51.9,62.7c-82.5,85.8-168.6,168.1-253.4,251.7c-7.9,7.8-14.7,17.5-27.8,16.9
			C616.2,1913.6,607.5,1902.7,598.8,1891.9z"/>
		<path class="st7" d="M111.9,1910.9c7.8,1.9,18.9-4.9,22.8,6.6c2.1,6.2-5.7,9-10.5,10.2c-15.2,3.7-11.1-8.4-12.3-16.1
			C111.8,1911.6,111.9,1910.9,111.9,1910.9z"/>
		<path class="st7" d="M603.3,2376.2c-0.8,1.9-1.2,4.8-2.6,5.4c-1.4,0.5-3.7-1.3-5.6-2.1c0.8-1.9,1.2-4.9,2.6-5.4
			C599.1,2373.6,601.4,2375.4,603.3,2376.2z"/>
		<path class="st7" d="M175.1,1908.2c-1.8,0.5-2.8,1-3.7,0.9c-0.3,0-0.5-1.4-0.7-2.2C171.9,1907.2,173.1,1907.6,175.1,1908.2z"/>
		<path class="st12" d="M788.6,410.8c-9.9,95.3-6.6,191-7.3,286.6c-0.1,9.9,2,22.9-10.8,25.1c-11.6,2-7.9-11-10.8-17.3
			c-5.1-11.5-14.9-12.4-25.3-12.4c-21.4,0-43.2-2.6-64.2,0.5c-57.5,8.4-94.3-22.9-129.9-60.9c-22.2-23.6-46.5-45.9-72.8-64.8
			c-16.5-11.9-26.7-27.1-37-42.8c-30.4-46.6-52.1-96.1-48.5-153.6c0.3-5.4-0.4-12.4-3.6-16.1c-29.4-33.2-12.9-40.4,21.7-44
			c42.7-4.4,85.1-7.7,127.3,0.9c33.1,6.7,64.1-8.6,97.1-5.6c32.4,3,65.3,0.5,98,0.6c49.5,0.2,66.1,17.1,66.1,66.8
			C788.6,386,788.6,398.4,788.6,410.8z"/>
		<path class="st3" d="M1628,1558.6c37.6,26.9,65.9,63.5,97.3,96.4c15,15.8-16.5,18.8-19,33.8c-1.4,8.3-14.8,6.6-19.2-0.8
			c-21.7-36.7-61.1-55.6-86.7-88.2C1611,1587,1623.8,1575.7,1628,1558.6z"/>
		<path class="st8" d="M1628,1558.6c-4.2,17.1-17,28.4-27.6,41.2c-16.1-11.1-29.7-24.6-41.1-40.4c24.1,6.1,22-27.9,42.3-27.6
			C1614.3,1537,1622.6,1546.4,1628,1558.6z"/>
		<path class="st8" d="M957.9,1593.2c-13.6-9.1-27.1-18.2-40.7-27.4c3.4-19,16-29,33.5-34c9.2,14,18.4,28,27.6,42
			C977.1,1586.1,966.1,1588.2,957.9,1593.2z"/>
	</g>
</g>
</svg>
