<svg xmlns="http://www.w3.org/2000/svg" viewBox="0 0 2500 2432" xmlns:v="https://vecta.io/nano"><path d="M462.4 655C541.7 529.3 640 429 759.7 350.1c228.2-150.6 479.6-205.1 748.6-162.7 561.6 88.6 908 577.9 878.8 1092.6-32.2 567.2-505.3 1011.1-1095.8 981.8-578.3-28.7-965.8-489.2-988.3-977.7m974.6-86l-503.9-.1H192.8c-5.3 0-10.6 0-15.9-.1-57.6-1-67.9-11-68.1-68.7l-.1-307.7c.2-77.3 6.8-84.1 85.4-84.2l1466.8-.1" fill="#ffdd09"/><path d="M818.6 1074v95.8h-39.9v-288l40.1 8c51.6-19.1 87.2-15.6 116 18 34.5 40.2 30.6 125.2-8 161.1-25.5 23.7-55.6 23.7-86.8 14.2-6.4-2.1-12.5-5.3-21.4-9.1zm.6-89.6c.9 47 15.7 68.1 48.1 68.4 29.2.3 47-25 47.4-67.3.4-42.7-16.3-68.2-45.1-68.9-35.1-.9-51.3 20.9-50.4 67.8zm-482 98.4c-42 7.1-42.5 6.7-42.5-30.7V837.7c0-38.1.2-38.3 41.4-31.6v85.7c21-4.5 39.4-11.2 58-11.8 44.2-1.3 70.7 22 73.4 65.8 2.5 41.3 2.7 83 .5 124.3-1.5 28.6-24.3 11.5-41.8 16.3l-.2-126.1c-.7-37.9-23.2-54.8-57.3-40-12.1 5.2-24.6 21.5-27 34.5-5 27.4-3.7 56.1-4.6 84.2-.3 15 .1 29.7.1 43.8zM1133 896.1l-12.9 28.4c-23.8-2.7-45.4-6.5-67-6.7-7.4-.1-14.8 8.9-22.3 13.7 5.1 7.4 8.5 17.7 15.5 21.7 15.9 9.1 33.8 14.8 50.6 22.5 28.3 12.9 42.9 35.1 39.7 59.3-3.4 25.4-24.5 47.3-53.7 50.8-20.8 2.5-42.4 2.4-63.1-.4-31.6-4.3-34.6-10.9-27.7-45.3 17.9 3.9 35.7 8.9 53.8 11.3 11 1.4 23 .5 33.6-2.7 6.1-1.8 13.6-9.8 14.3-15.8.7-5.9-4.6-15.6-10.1-18.7-18.3-10.4-37.8-18.8-56.9-27.7-24.5-11.3-41.5-27.9-37.6-57 3.7-27.3 23.4-40 48-46.4 32.3-8.4 62.7-2.5 95.8 13zm-440.9 22.5v92.9c.2 37.8 6.7 43.6 43.5 39.3 3.4-.4 6.8-.1 10-.1 7.1 30 4.3 34.4-22.6 37.2-45.4 4.7-70.2-16-73-62-1.1-17.6-.3-35.3-.4-52.9v-51.9l-24.9-6.4c-.7-2.6-2.8-5.9-1.8-7.3 14.7-22.7 28.3-46.6 45.8-67 5.9-6.8 23.1-6.7 23.5 12.1.2 8.8 0 17.5 0 29.4l52.6 2.4v31.8l-52.7 2.5zm-75.3-34.1v31.4h-52c0 41.6-1.2 80.1 1.1 118.4.4 6.7 14.8 14.8 24.2 18.1 7.3 2.6 16.9-1.3 25.4-2.3 7 31.4 3.8 36.1-24.8 38.2-44.3 3.3-68.1-18.2-68.9-63.1-.6-34.4-.1-68.7-.1-104.4l-29.7-7c4.5-8.8 7.6-17.3 12.6-24.4 7.1-10.1 16.9-18.4 22.9-29 5.9-10.4 6.7-27.3 23.3-21.4 6.6 2.4 9.4 16.6 13 25.9 1.8 4.7 1.5 10.1 2.4 16.7l50.6 2.9zM216.9 1282l-56.8-4.3c-78.9-7.7-127.8-52.3-130.2-130.9-3.7-119.2-4-238.7 0-357.9C32.7 706.7 87.3 660 173.7 657c57.4-2 114.9-1.4 172.4-.6 17.1.2 26.6-5.2 35.8-19.9C540.4 384.3 760.5 210.4 1048.8 133c353.4-94.9 680.6-29.8 972.7 190.1 239.7 180.5 387.6 422.1 434.4 718.9 53 336.5-33.6 638.4-252 899.7-168.9 202.1-383.8 334.3-643.5 381.6-418.9 76.3-773.9-49.4-1059.7-362.7-171.7-188.2-263.1-414-281.4-668.7-.1-2.5-1.1-5-2.4-9.9zm694.7 591.2l47.9 142.7c6.3 18 7.5 33.7-11.9 42.8-19.9 9.3-32.8-1.8-39.2-19.4-13.2-36.4-26.7-72.9-36.7-110.3-16.2-60.5-15-60.9-77.1-71L670 1838.3l19.1 45.4c7 16.1 4.7 30.5-11.3 38.6-17 8.6-31.5 2.7-39.3-14.7-9.7-21.7-19.3-43.7-26.5-66.3-4.8-14.9-12.1-23.3-27.6-27.7-21.1-6-41.5-14.8-61.8-23.4-16.4-6.9-26.9-19-19.2-37.5 7.9-18.9 22.9-22.7 41.5-14.3 12.4 5.6 25.1 10.5 39.3 16.4l-27.8-172.7c-1.3-6.9-13.8-14.1-22.4-16.9l-141.3-43.9c-19.5-6.3-34.1-19.5-24.1-41.9 10.1-22.6 28.1-17.1 47.3-10.1 42.6 15.6 85.9 29.1 131.7 44.3l-12.8-229.4H303.2c22.5 488.6 410 949.1 988.3 977.8 590.5 29.3 1063.6-414.6 1095.8-981.8 29.2-514.7-317.3-1004-878.8-1092.6-268.9-42.4-520.3 12.1-748.6 162.7C640 429 541.7 529.3 462.4 655c39.1 0 71.8-1.2 104.4.4 20.1 1 29-5.2 34.9-25.3 10.1-34.6 23.9-68.2 37.9-101.5 6.8-16.3 23.6-22.7 37.1-12.5 8.6 6.5 11.8 22.9 13.2 35.3.8 7.5-7 15.8-10 24.1L651.5 655l178.2-.8c5.3-.2 14-11.2 15.3-18.2 15.1-80.7 28.7-161.7 63.2-237.3 7.8-17.2 19.3-28.8 39.3-19.7 19.5 8.9 18.8 24.8 12.1 42.6-11.1 29.7-23.2 59.3-31.1 89.9-11.9 46.4-20.5 93.6-31.1 143.5l188.6-.8c6.4-.1 17.1-11 18.2-18.1 8.5-56.7 11.7-114.5 23.2-170.5 14.2-68.9 34.2-136.6 53.2-204.4 4.9-17.5 20.2-25.4 38-18.2 18.3 7.4 18.7 22.7 14.2 40.1-19 72.3-39.6 144.4-55.1 217.5-10.5 49.6-13.4 100.8-20.1 154.5h40.9l450.9-.1 13.3.1c30.6.8 48.7 15.9 48.5 40.4-.2 26.1-18.6 41.7-50.2 41.7h-647.2c-273.2 0-546.4-.2-819.6.1-78.6.1-85.2 6.9-85.4 84.2l.1 307.7c.2 57.6 10.6 67.7 68.1 68.7l15.9.1h580.9l503.9.1c34 0 52.4 15 52.8 42.1.4 26.2-18.7 41.4-53.2 41.8l-87.5.1H1133l8.8 281.5h30.2 103.4c18.3.1 31.4 8.6 32 27.9.6 19.8-13 27.7-31 28.9-12.3.8-24.7.8-37.1.8h-94.5l18.2 212.6h31.6l403-4.9c21.5-.3 46.9-3.8 48.5 26.2 1.6 30.4-24.8 30.4-45.8 30.7l-387 4.5h-43.1c14 90.2 25.2 178.7 61.1 261.6 7.5 17.4 7.5 34.3-12.1 42.6-18.9 8-32.9-1.3-39.7-19.8-9.7-26.5-20.8-52.8-26.9-80.2-15.1-67.8-27.8-136.2-41.9-207l-199.1-14.3zm165.9-589.6H861l11.6 269.5 213.2 10.4-8.3-279.9zm-271.4.9H589.4l15.2 221.8c.6 6.8 12.5 16.2 20.6 18.1 23.1 5.4 46.9 8.2 70.6 10.9l120.4 12.8-8.5-252.2c-.1-3.4-.9-6.8-1.6-11.4zm71.7 326.2l16.1 138.9c7 63.4 6.9 63.4 68.3 71 1.8.2 3.5.6 5.2.7l138.9 8.5-17.4-210.2-211.1-8.9zm-266.2-29.9l21.2 119c15.7 76.4 16 76.7 91.5 90.2 39.4 7 79.1 12.3 121.1 18.7l-23.9-202.4-209.9-25.5zm1084.5 108.1c-68 0-136.1.4-204.1-.1-63.3-.5-108.2-45-108.5-108.6v-326c.4-66 46.4-109.8 112.8-109.8l402.9-.1c64.8 0 110.7 44.1 111.1 108.8l-.1 328.7c-.4 61.9-45.2 106.3-107.3 107l-206.8.1zm1.2-457.7v.1c-66.3 0-132.6.8-198.8-.4-23.6-.4-30.2 8.4-30 31v310.2c-.2 24.4 8.1 32.3 32.3 32.2h392.4c23.8.1 33-7.1 32.8-31.8l.1-310.2c.3-25.4-9.2-31.8-32.6-31.4l-196.2.3zm-231.2-165.1c1.8-92 77.7-185.5 172.6-212.6 92-26.3 195.2 14.6 251 99.8 23.2 35.4 37.3 74 38.3 116.7.7 27.7-15.1 46.4-38.8 47.8-23.2 1.3-41.7-15.8-42.8-43.7-4.5-118.1-105-162.6-190.7-141.5-55.3 13.6-95.9 57.3-104.6 113.8-1.2 7.9-2.2 15.8-3 23.7-3.2 32.2-19.6 49.9-44.6 47.7-24.2-2.1-38-21.2-37.4-51.7zm377.5-326.8c-16.9-.8-30.1-.9-43.1-2.3-24-2.5-35.5-17.7-37.4-40.3-1.7-20.5 14-37.9 35.9-41.6 3.5-.6 7.1-1.7 10.5-1.2 29.3 4.6 38.1-8.1 36.7-36.7-1.3-27.1 18.6-45 42.1-44.2 23.7.9 39.5 19 40.3 46.7.3 10.5 0 21 0 33.6 32.5 5.9 81.2-10.6 79.7 44.5-1.5 50.7-46.4 36.2-79 40.7-3.6 33.9 10.1 83.1-44.4 81.1-45.1-1.7-42.4-43.6-41.3-80.3zm329.8 458.6l66.2.1c23.7.7 40.8 17.1 42.4 39 1.5 21.3-14.1 42.7-37.5 43.6-48.4 1.9-97 1.8-145.4-.2-22.8-.9-36.9-20.5-35.4-41.8 1.7-23.7 15.2-38 38.3-39.8 23.7-1.9 47.6-.4 71.4-.4v-.5zm-57.3-460.8c-37.8-.1-59.3-21.2-51.4-51.5 7.7-29.6 31.5-30.7 56.5-30.8 24.4-.2 44.1 6.1 50.6 31.9 7.6 30.5-15.2 50.6-55.7 50.4z"/></svg>