<?xml version="1.0" encoding="utf-8"?>
<!-- Generator: Adobe Illustrator 21.1.0, SVG Export Plug-In . SVG Version: 6.00 Build 0)  -->
<svg version="1.1" id="Layer_1" xmlns="http://www.w3.org/2000/svg" xmlns:xlink="http://www.w3.org/1999/xlink" x="0px" y="0px"
	 viewBox="0 0 2500 2432" style="enable-background:new 0 0 2500 2432;" xml:space="preserve">
<style type="text/css">
	.st0{fill:#FFDD09;}
</style>
<g>
	<g>
		<path class="st0" d="M462.4,655C541.7,529.3,640,429,759.7,350.1c228.2-150.6,479.6-205.1,748.6-162.7
			c561.6,88.6,908,577.9,878.8,1092.6c-32.2,567.2-505.3,1011.1-1095.8,981.8C713,2233.1,325.5,1772.6,303,1284.1 M1277.6,1198.1
			c-168-0.1-336-0.1-503.9-0.1c-193.6,0-387.2,0-580.9,0c-5.3,0-10.6,0-15.9-0.1c-57.6-1-67.9-11-68.1-68.7
			c-0.3-102.6-0.4-205.1-0.1-307.7c0.2-77.3,6.8-84.1,85.4-84.2c273.2-0.3,546.4-0.1,819.6-0.1c215.7,0,431.4,0.1,647.2,0"/>
	</g>
	<g>
		<path d="M818.6,1074c0,33,0,63.6,0,95.8c-14,0-25.9,0-39.9,0c0-94.5,0-188.4,0-288c14.2,2.8,27.2,5.4,40.1,8
			c51.6-19.1,87.2-15.6,116,18c34.5,40.2,30.6,125.2-8,161.1c-25.5,23.7-55.6,23.7-86.8,14.2C833.6,1081,827.5,1077.8,818.6,1074z
			 M819.2,984.4c0.9,47,15.7,68.1,48.1,68.4c29.2,0.3,47-25,47.4-67.3c0.4-42.7-16.3-68.2-45.1-68.9
			C834.5,915.7,818.3,937.5,819.2,984.4z"/>
		<path d="M337.2,1082.8c-42,7.1-42.5,6.7-42.5-30.7c0-71.5,0-142.9,0-214.4c0-38.1,0.2-38.3,41.4-31.6c0,28.3,0,57,0,85.7
			c21-4.5,39.4-11.2,58-11.8c44.2-1.3,70.7,22,73.4,65.8c2.5,41.3,2.7,83,0.5,124.3c-1.5,28.6-24.3,11.5-41.8,16.3
			c0-43.8,0.6-85-0.2-126.1c-0.7-37.9-23.2-54.8-57.3-40c-12.1,5.2-24.6,21.5-27,34.5c-5,27.4-3.7,56.1-4.6,84.2
			C336.8,1054,337.2,1068.7,337.2,1082.8z"/>
		<path d="M1133,896.1c-5.1,11.3-9.4,20.6-12.9,28.4c-23.8-2.7-45.4-6.5-67-6.7c-7.4-0.1-14.8,8.9-22.3,13.7
			c5.1,7.4,8.5,17.7,15.5,21.7c15.9,9.1,33.8,14.8,50.6,22.5c28.3,12.9,42.9,35.1,39.7,59.3c-3.4,25.4-24.5,47.3-53.7,50.8
			c-20.8,2.5-42.4,2.4-63.1-0.4c-31.6-4.3-34.6-10.9-27.7-45.3c17.9,3.9,35.7,8.9,53.8,11.3c11,1.4,23,0.5,33.6-2.7
			c6.1-1.8,13.6-9.8,14.3-15.8c0.7-5.9-4.6-15.6-10.1-18.7c-18.3-10.4-37.8-18.8-56.9-27.7c-24.5-11.3-41.5-27.9-37.6-57
			c3.7-27.3,23.4-40,48-46.4C1069.5,874.7,1099.9,880.6,1133,896.1z"/>
		<path d="M692.1,918.6c0,33-0.1,63,0,92.9c0.2,37.8,6.7,43.6,43.5,39.3c3.4-0.4,6.8-0.1,10-0.1c7.1,30,4.3,34.4-22.6,37.2
			c-45.4,4.7-70.2-16-73-62c-1.1-17.6-0.3-35.3-0.4-52.9c0-16.7,0-33.5,0-51.9c-8.6-2.2-16.6-4.3-24.9-6.4c-0.7-2.6-2.8-5.9-1.8-7.3
			c14.7-22.7,28.3-46.6,45.8-67c5.9-6.8,23.1-6.7,23.5,12.1c0.2,8.8,0,17.5,0,29.4c17.6,0.8,33.8,1.6,52.6,2.4c0,10.3,0,20,0,31.8
			C727.9,916.8,711.6,917.6,692.1,918.6z"/>
		<path d="M616.8,884.5c0,11,0,19.6,0,31.4c-16.2,0-32.4,0-52,0c0,41.6-1.2,80.1,1.1,118.4c0.4,6.7,14.8,14.8,24.2,18.1
			c7.3,2.6,16.9-1.3,25.4-2.3c7,31.4,3.8,36.1-24.8,38.2c-44.3,3.3-68.1-18.2-68.9-63.1c-0.6-34.4-0.1-68.7-0.1-104.4
			c-8.8-2.1-16.2-3.8-29.7-7c4.5-8.8,7.6-17.3,12.6-24.4c7.1-10.1,16.9-18.4,22.9-29c5.9-10.4,6.7-27.3,23.3-21.4
			c6.6,2.4,9.4,16.6,13,25.9c1.8,4.7,1.5,10.1,2.4,16.7C582.5,882.6,598.2,883.4,616.8,884.5z"/>
	</g>
	<g>
		<path d="M216.9,1282c-19.9-1.5-38.4-2.5-56.8-4.3c-78.9-7.7-127.8-52.3-130.2-130.9c-3.7-119.2-4-238.7,0-357.9
			c2.8-82.2,57.4-128.9,143.8-131.9c57.4-2,114.9-1.4,172.4-0.6c17.1,0.2,26.6-5.2,35.8-19.9c158.5-252.2,378.6-426.1,666.9-503.5
			c353.4-94.9,680.6-29.8,972.7,190.1c239.7,180.5,387.6,422.1,434.4,718.9c53,336.5-33.6,638.4-252,899.7
			c-168.9,202.1-383.8,334.3-643.5,381.6c-418.9,76.3-773.9-49.4-1059.7-362.7c-171.7-188.2-263.1-414-281.4-668.7
			C219.2,1289.4,218.2,1286.9,216.9,1282z M911.6,1873.2c16.6,49.8,31.6,96.5,47.9,142.7c6.3,18,7.5,33.7-11.9,42.8
			c-19.9,9.3-32.8-1.8-39.2-19.4c-13.2-36.4-26.7-72.9-36.7-110.3c-16.2-60.5-15-60.9-77.1-71c-40.3-6.6-80.7-12.8-124.6-19.7
			c7.6,18,13.2,31.7,19.1,45.4c7,16.1,4.7,30.5-11.3,38.6c-17,8.6-31.5,2.7-39.3-14.7c-9.7-21.7-19.3-43.7-26.5-66.3
			c-4.8-14.9-12.1-23.3-27.6-27.7c-21.1-6-41.5-14.8-61.8-23.4c-16.4-6.9-26.9-19-19.2-37.5c7.9-18.9,22.9-22.7,41.5-14.3
			c12.4,5.6,25.1,10.5,39.3,16.4c-9.3-59.9-17.5-116.5-27.8-172.7c-1.3-6.9-13.8-14.1-22.4-16.9c-46.9-15.3-94.4-28.7-141.3-43.9
			c-19.5-6.3-34.1-19.5-24.1-41.9c10.1-22.6,28.1-17.1,47.3-10.1c42.6,15.6,85.9,29.1,131.7,44.3c-4.5-80.7-8.7-155.2-12.8-229.4
			c-78.6,0-155.1,0-231.6,0c22.5,488.6,410,949.1,988.3,977.8c590.5,29.3,1063.6-414.6,1095.8-981.8
			c29.2-514.7-317.3-1004-878.8-1092.6c-268.9-42.4-520.3,12.1-748.6,162.7C640,429,541.7,529.3,462.4,655
			c39.1,0,71.8-1.2,104.4,0.4c20.1,1,29-5.2,34.9-25.3c10.1-34.6,23.9-68.2,37.9-101.5c6.8-16.3,23.6-22.7,37.1-12.5
			c8.6,6.5,11.8,22.9,13.2,35.3c0.8,7.5-7,15.8-10,24.1c-9.3,25.2-18.1,50.5-28.4,79.5c63.5,0,120.9,0.5,178.2-0.8
			C835,654,843.7,643,845,636c15.1-80.7,28.7-161.7,63.2-237.3c7.8-17.2,19.3-28.8,39.3-19.7c19.5,8.9,18.8,24.8,12.1,42.6
			c-11.1,29.7-23.2,59.3-31.1,89.9c-11.9,46.4-20.5,93.6-31.1,143.5c66.8,0,127.7,0.6,188.6-0.8c6.4-0.1,17.1-11,18.2-18.1
			c8.5-56.7,11.7-114.5,23.2-170.5c14.2-68.9,34.2-136.6,53.2-204.4c4.9-17.5,20.2-25.4,38-18.2c18.3,7.4,18.7,22.7,14.2,40.1
			c-19,72.3-39.6,144.4-55.1,217.5c-10.5,49.6-13.4,100.8-20.1,154.5c16.5,0,28.7,0,40.9,0c150.3,0,300.6-0.1,450.9-0.1
			c4.4,0,8.8,0,13.3,0.1c30.6,0.8,48.7,15.9,48.5,40.4c-0.2,26.1-18.6,41.7-50.2,41.7c-215.7,0.1-431.4,0-647.2,0
			c-273.2,0-546.4-0.2-819.6,0.1c-78.6,0.1-85.2,6.9-85.4,84.2c-0.3,102.6-0.2,205.1,0.1,307.7c0.2,57.6,10.6,67.7,68.1,68.7
			c5.3,0.1,10.6,0.1,15.9,0.1c193.6,0,387.2,0,580.9,0c168,0,336,0,503.9,0.1c34,0,52.4,15,52.8,42.1c0.4,26.2-18.7,41.4-53.2,41.8
			c-29.2,0.3-58.3,0.1-87.5,0.1c-18.1,0-36.2,0-56.8,0c3,96.3,5.9,187.7,8.8,281.5c12.9,0,21.5,0,30.2,0c34.5,0,69-0.3,103.4,0
			c18.3,0.1,31.4,8.6,32,27.9c0.6,19.8-13,27.7-31,28.9c-12.3,0.8-24.7,0.8-37.1,0.8c-30.5,0.1-61,0-94.5,0
			c6.3,73.5,12.2,142.4,18.2,212.6c14,0,22.8,0.1,31.6,0c134.3-1.6,268.7-3.1,403-4.9c21.5-0.3,46.9-3.8,48.5,26.2
			c1.6,30.4-24.8,30.4-45.8,30.7c-129,2-258,3.1-387,4.5c-13.8,0.1-27.6,0-43.1,0c14,90.2,25.2,178.7,61.1,261.6
			c7.5,17.4,7.5,34.3-12.1,42.6c-18.9,8-32.9-1.3-39.7-19.8c-9.7-26.5-20.8-52.8-26.9-80.2c-15.1-67.8-27.8-136.2-41.9-207
			C1047.6,1883,982.7,1878.3,911.6,1873.2z M1077.5,1283.6c-72,0-142.2,0-216.5,0c3.9,90.4,7.7,178.9,11.6,269.5
			c73.1,3.6,142.4,6.9,213.2,10.4C1083.1,1468.1,1080.3,1376.5,1077.5,1283.6z M806.1,1284.5c-72.7,0-142.8,0-216.7,0
			c4.9,75.8,9.1,148.9,15.2,221.8c0.6,6.8,12.5,16.2,20.6,18.1c23.1,5.4,46.9,8.2,70.6,10.9c40,4.7,80,8.5,120.4,12.8
			c-2.9-86.6-5.6-169.4-8.5-252.2C807.6,1292.5,806.8,1289.1,806.1,1284.5z M877.8,1610.7c5.6,48.5,11.1,93.7,16.1,138.9
			c7,63.4,6.9,63.4,68.3,71c1.8,0.2,3.5,0.6,5.2,0.7c45.3,2.8,90.7,5.6,138.9,8.5c-6.1-73.1-11.7-141.1-17.4-210.2
			C1017.9,1616.7,949.6,1613.8,877.8,1610.7z M611.6,1580.8c7.3,41.7,13.3,80.6,21.2,119c15.7,76.4,16,76.7,91.5,90.2
			c39.4,7,79.1,12.3,121.1,18.7c-8.3-70.1-16-135.4-23.9-202.4C753.3,1598.1,685.3,1589.8,611.6,1580.8z"/>
		<path d="M1696.1,1688.9c-68,0-136.1,0.4-204.1-0.1c-63.3-0.5-108.2-45-108.5-108.6c-0.6-108.7-0.6-217.4,0-326
			c0.4-66,46.4-109.8,112.8-109.8c134.3,0,268.6-0.1,402.9-0.1c64.8,0,110.7,44.1,111.1,108.8c0.7,109.6,0.7,219.1-0.1,328.7
			c-0.4,61.9-45.2,106.3-107.3,107C1834,1689.5,1765.1,1688.9,1696.1,1688.9z M1697.3,1231.2c0,0,0,0.1,0,0.1
			c-66.3,0-132.6,0.8-198.8-0.4c-23.6-0.4-30.2,8.4-30,31c1,103.4,1,206.8,0,310.2c-0.2,24.4,8.1,32.3,32.3,32.2
			c130.8-0.9,261.6-0.8,392.4,0c23.8,0.1,33-7.1,32.8-31.8c-1-103.4-1.2-206.8,0.1-310.2c0.3-25.4-9.2-31.8-32.6-31.4
			C1828.1,1231.9,1762.7,1231.2,1697.3,1231.2z"/>
		<path d="M1466.1,1066.1c1.8-92,77.7-185.5,172.6-212.6c92-26.3,195.2,14.6,251,99.8c23.2,35.4,37.3,74,38.3,116.7
			c0.7,27.7-15.1,46.4-38.8,47.8c-23.2,1.3-41.7-15.8-42.8-43.7c-4.5-118.1-105-162.6-190.7-141.5c-55.3,13.6-95.9,57.3-104.6,113.8
			c-1.2,7.9-2.2,15.8-3,23.7c-3.2,32.2-19.6,49.9-44.6,47.7C1479.3,1115.7,1465.5,1096.6,1466.1,1066.1z"/>
		<path d="M1843.6,739.3c-16.9-0.8-30.1-0.9-43.1-2.3c-24-2.5-35.5-17.7-37.4-40.3c-1.7-20.5,14-37.9,35.9-41.6
			c3.5-0.6,7.1-1.7,10.5-1.2c29.3,4.6,38.1-8.1,36.7-36.7c-1.3-27.1,18.6-45,42.1-44.2c23.7,0.9,39.5,19,40.3,46.7
			c0.3,10.5,0,21,0,33.6c32.5,5.9,81.2-10.6,79.7,44.5c-1.5,50.7-46.4,36.2-79,40.7c-3.6,33.9,10.1,83.1-44.4,81.1
			C1839.8,817.9,1842.5,776,1843.6,739.3z"/>
		<path d="M2173.4,1197.9c22.1,0,44.1-0.5,66.2,0.1c23.7,0.7,40.8,17.1,42.4,39c1.5,21.3-14.1,42.7-37.5,43.6
			c-48.4,1.9-97,1.8-145.4-0.2c-22.8-0.9-36.9-20.5-35.4-41.8c1.7-23.7,15.2-38,38.3-39.8c23.7-1.9,47.6-0.4,71.4-0.4
			C2173.4,1198.2,2173.4,1198,2173.4,1197.9z"/>
		<path d="M2116.1,737.1c-37.8-0.1-59.3-21.2-51.4-51.5c7.7-29.6,31.5-30.7,56.5-30.8c24.4-0.2,44.1,6.1,50.6,31.9
			C2179.4,717.2,2156.6,737.3,2116.1,737.1z"/>
	</g>
</g>
</svg>
