<?xml version="1.0" encoding="utf-8"?>
<!-- Generator: Adobe Illustrator 21.1.0, SVG Export Plug-In . SVG Version: 6.00 Build 0)  -->
<svg version="1.1" id="Layer_1" xmlns="http://www.w3.org/2000/svg" xmlns:xlink="http://www.w3.org/1999/xlink" x="0px" y="0px"
	 viewBox="0 0 2023.5 1808.4" style="enable-background:new 0 0 2023.5 1808.4;" xml:space="preserve">
<style type="text/css">
	.st0{fill:#1E0478;}
	.st1{fill:#94E7EF;}
	.st2{fill:#9B8CCC;}
	.st3{fill:#6F7CCD;}
</style>
<path class="st0" d="M1921.4,469.7c36.7,18.3,59.4,55.2,59.4,96.1c0,41-22.8,77.8-59.4,96.2c0,0,0,0,0,0l-144.3,72.2l144.3,72.2
	c36.7,18.3,59.4,55.2,59.4,96.2c0,40.9-22.8,77.8-59.4,96.1l-144.4,72.2l144.3,72.2c36.6,18.3,59.4,55.1,59.4,96.1
	c0,41-22.8,77.9-59.4,96.2l-814.8,407.4c-29.7,14.9-62.4,22.3-95,22.3c-32.6,0-65.2-7.4-95-22.3l-814.8-407.4
	c-36.7-18.3-59.4-55.2-59.4-96.2c0-40.9,22.8-77.8,59.4-96.1l144.3-72.1l-144.3-72.2c-36.7-18.3-59.4-55.2-59.4-96.1
	c0-41,22.8-77.8,59.4-96.2l144.4-72.2l-144.3-72.2c-36.7-18.3-59.4-55.2-59.4-96.1c0-40.9,22.8-77.8,59.4-96.1L916.6,62.3
	c59.5-29.7,130.5-29.8,190,0L1921.4,469.7z M1891.7,565.8c0-4.3-1.3-12-10.2-16.5L1066.8,142c-17.3-8.6-36.2-12.9-55.2-12.9
	c-18.9,0-37.9,4.3-55.2,13L141.7,549.4c-8.8,4.5-10.2,12.2-10.2,16.5c0,4.2,1.3,12,10.2,16.4l814.7,407.4
	c34.5,17.2,75.8,17.2,110.3,0l814.7-407.3C1890.4,577.8,1891.7,570.1,1891.7,565.8z M1891.7,902.5c0-4.3-1.3-12-10.2-16.5
	l-204.1-102l-570.8,285.4c-29.7,14.9-62.4,22.3-95,22.3s-65.2-7.4-95-22.3L345.8,783.9L141.7,886c-8.8,4.5-10.2,12.2-10.2,16.5
	c0,4.2,1.3,12,10.2,16.4l814.7,407.4c34.5,17.2,75.8,17.2,110.3,0l814.8-407.3C1890.4,914.4,1891.7,906.7,1891.7,902.5z
	 M1891.7,1239c0-4.2-1.3-12-10.2-16.4l-204.1-102.1l-570.8,285.4c-29.7,14.9-62.4,22.3-95,22.3s-65.2-7.4-95-22.3l-570.8-285.4
	l-204.1,102c-8.8,4.4-10.2,12.2-10.2,16.4s1.3,12,10.2,16.5l814.7,407.4c34.5,17.2,75.8,17.2,110.3,0l814.8-407.3
	C1890.4,1251.1,1891.7,1243.3,1891.7,1239z"/>
<path class="st1" d="M1881.5,549.4c8.9,4.5,10.2,12.2,10.2,16.5c0,4.2-1.3,12-10.2,16.4l-814.7,407.3c-34.5,17.3-75.8,17.3-110.3,0
	L141.8,582.3c-8.9-4.5-10.2-12.2-10.2-16.4c0-4.3,1.3-12,10.2-16.5L956.5,142c17.3-8.6,36.2-13,55.2-13c18.9,0,37.9,4.3,55.2,12.9
	L1881.5,549.4z"/>
<path class="st2" d="M1881.5,886c8.9,4.5,10.2,12.2,10.2,16.5c0,4.2-1.3,12-10.2,16.4l-814.8,407.3c-34.5,17.3-75.8,17.3-110.3,0
	L141.8,918.9c-8.9-4.5-10.2-12.2-10.2-16.4c0-4.3,1.3-12,10.2-16.5l204.1-102l570.8,285.4c29.8,14.8,62.4,22.3,95,22.3
	c32.6,0,65.3-7.4,95-22.3l570.8-285.4L1881.5,886z"/>
<path class="st3" d="M1881.6,1222.6c8.8,4.4,10.2,12.2,10.2,16.4s-1.3,12-10.2,16.5l-814.8,407.3c-34.5,17.3-75.8,17.3-110.3,0
	l-814.7-407.4c-8.9-4.5-10.2-12.3-10.2-16.5c0-4.2,1.3-12,10.2-16.4l204.1-102L916.6,1406c29.8,14.8,62.4,22.3,95,22.3
	c32.6,0,65.3-7.4,95-22.3l570.8-285.4L1881.6,1222.6z"/>
</svg>
