<svg xmlns="http://www.w3.org/2000/svg" viewBox="0 0 2023.5 2432" xmlns:v="https://vecta.io/nano"><path d="M996.7 2410.3c-175.5-81-346.6-169.8-503.9-283-100.3-72.1-193.3-152.4-269.2-251.1C131 1755.8 73.4 1620.4 55.2 1470c-10.7-88.4-17.5-177.8-18.6-266.8l-1.5-669.8c-.2-34.3 13.3-53.5 43.7-67.4L963.1 59.8c11.1-5.1 22.4-9.9 33.6-14.8h18.5l926 425.3c24.6 11.3 35.3 29.1 35.2 56.3l-.7 688.2c-.6 112.4-7.8 224.6-32.9 334.7-38 166.8-122.3 307.5-243.3 427-119.2 117.8-256.9 210.6-402.9 291-92.1 50.7-187.5 95.5-281.5 142.9l-18.4-.1zm884.9-1525.6h.2l.3-314.1c.1-16-4.2-25.1-19.6-31.6-38.2-16.1-75.7-34-113.4-51.3l-720.4-332.2c-16.2-7.5-29.4-7.7-45.6-.1L740.4 268 151.3 538c-15.2 6.9-21.9 14.9-21.7 32.6l5.4 687.9c.8 65.1 6.4 130.4 13.8 195.2 10.5 92.4 39.5 179.6 83.7 261.7 74.1 137.7 186.3 240 310.2 330.5 139 101.5 290.7 181.7 446 254.9 9.5 4.5 24.6 4.6 34 .1 57.6-27.4 114.9-55.6 171.1-85.7 156.5-83.8 305.9-178 434.1-302.5 108.4-105.3 184.1-229.7 220.4-377.3 27.9-113.7 29.4-229.9 32.7-345.8 2.9-101.6.6-203.3.6-304.9z"/><path d="M1881.6 884.7l-.6 304.8c-3.3 115.8-4.7 232.1-32.7 345.8-36.3 147.6-112 272-220.4 377.3-128.2 124.5-277.6 218.7-434.1 302.5-56.2 30.1-113.5 58.3-171.1 85.7-9.4 4.5-24.6 4.4-34-.1-155.4-73.2-307-153.3-446-254.9-123.9-90.5-236.1-192.8-310.2-330.5-44.2-82.1-73.1-169.3-83.7-261.7-7.4-64.8-12.9-130.1-13.8-195.2l-5.4-687.9c-.2-17.7 6.6-25.6 21.7-32.6l589.1-270 242.7-112.6c16.2-7.7 29.4-7.5 45.6.1l720.4 332.2 113.4 51.3c15.3 6.5 19.7 15.6 19.6 31.6l-.3 314.1c-.1.1-.1.1-.2.1zm-106.9 99.1l.3-302.5c.2-28.5-11.4-46.2-36.8-57.5-33-14.6-65.4-30.6-98.3-45.7-27.9-12.8-55.7-26.1-84.2-37.7-35.8-14.5-66 2.5-69.2 38.3-2.3 25 11.7 40.2 33.1 50.1 45.4 20.9 90.2 43.2 136.3 62.3 19.9 8.2 24.6 19.1 24.5 39.3l-.9 464.2c-.4 54.6-4.6 109.1-8.2 163.6-12.3 189.6-103.8 335.8-248 453.5-123.2 100.5-261.2 175.9-404.2 243.2-7.6 3.6-19.6 2.8-27.5-.6-26.8-11.4-53.1-24.4-79-37.8-135.6-70.2-267-146.9-378.2-253.5-89.8-86.1-157.7-186.3-178.5-310.7-13.4-80.1-21.1-161.8-22.9-242.9-3.5-162.4-.8-324.8-1.4-487.3 0-14.3 3.9-21.4 17.3-27.5l639.5-292.8c10-4.6 25.6-4 35.9.3 47.4 20 94 42.2 140.7 63.8 21.3 9.9 41.8 11.2 59.9-5.8 27.7-26.1 20.4-61.6-17.4-79.8l-165.1-76.9c-24.9-12-47.5-11.7-72.6-.1l-693.5 319c-28 12.8-39.8 31.7-39.5 62.9l6.6 644.1c1.8 68.2 14.9 137.8 33.7 203.6 40.1 140.6 128.9 250.3 239.2 343.3 139.4 117.5 298.6 202.9 463.2 278.6 14.7 6.8 37.9 7 52.5.3 159.5-73.6 314.3-155.8 450.8-268.2 99.9-82.2 183.1-177.8 233.2-299 44.2-106.9 56.3-219.7 58.5-333.8 1.5-90.1.2-180.2.2-270.3zm-942.3 873.4c24.8-.7 39.9-9.9 47.1-29.2 7.3-19.7 4.9-39-12.6-52-17.8-13.3-37.5-23.9-56.3-35.9-112.2-71.6-214.2-152.6-268.4-280.1-12.4-29.2-39.7-38.6-64.3-26.7-24.3 11.8-31.9 37.7-19.7 67.1 23.2 55.9 55.8 105.9 95.9 151.1 73.5 82.7 163.8 143.7 258.3 199 7.1 4.1 15.8 5.4 20 6.7zm532.2-1400c-28.6 0-47.2 19-47.3 48.3-.1 25.3 21.1 46.5 47.3 47.3 22.8.7 48.5-23.9 48.8-46.8.4-25.5-22.9-48.8-48.8-48.8zm-312.3 1438.9c-.5-25.3-22.4-45.9-48.4-45.4s-45.8 21.8-44.8 48.2c1 25.1 23.4 45.5 49.2 44.7 23.7-.7 44.4-23.1 44-47.5z" fill="#67cb3e"/><path d="M1172.4 408.4l-151.2-68.6c-11.1-4.7-27.9-5.3-38.6-.4L295.1 654.2c-14.4 6.6-18.6 14.3-18.6 29.6l1.5 523.9c1.9 87.3 10.2 175.1 24.6 261.2 22.3 133.8 95.4 241.4 191.9 334 119.5 114.7 260.8 197 406.6 272.6 27.9 14.4 56.1 28.4 85 40.7 8.6 3.6 21.5 4.5 29.6.6 153.7-72.3 302.2-153.5 434.6-261.5 155.1-126.5 253.4-283.8 266.6-487.6 3.8-58.6 8.4-117.2 8.8-175.9l.9-499.1c.1-21.8-4.9-33.5-26.3-42.3-49.6-20.5-97.8-44.5-146.5-67" fill="#d9f98b"/><path d="M1774.7 983.8l-.3 270.2c-2.2 114.1-14.2 226.9-58.5 333.8-50.1 121.2-133.4 216.8-233.2 299-136.5 112.4-291.3 194.6-450.8 268.2-14.6 6.7-37.8 6.5-52.5-.3-164.6-75.7-323.8-161-463.2-278.6-110.3-93-199-202.7-239.2-343.3-18.8-65.8-31.9-135.4-33.7-203.6-5.6-214.6-4.2-429.4-6.6-644.1-.3-31.2 11.5-50.1 39.5-62.9l693.5-319c25.1-11.6 47.7-12 72.6.1l165.1 76.9c37.8 18.2 45.1 53.7 17.4 79.8-18.1 17.1-38.6 15.7-59.9 5.8L1024.2 402c-10.4-4.4-25.9-4.9-35.9-.3L348.9 694.6c-13.4 6.1-17.3 13.3-17.3 27.5l1.4 487.3c1.7 81.2 9.5 162.9 22.9 242.9 20.8 124.4 88.7 224.6 178.5 310.7 111.2 106.7 242.6 183.3 378.2 253.5 25.9 13.4 52.2 26.4 79 37.8 8 3.4 20 4.2 27.5.6 143-67.3 281.1-142.7 404.2-243.2 144.3-117.7 235.7-264 248-453.5 3.5-54.5 7.8-109.1 8.2-163.6l.9-464.2c.1-20.2-4.6-31.1-24.5-39.3-46.1-19.1-90.9-41.4-136.3-62.3-21.4-9.9-35.4-25.1-33.1-50.1 3.2-35.9 33.4-52.9 69.2-38.3 28.5 11.6 56.3 24.8 84.2 37.7l98.3 45.7c25.5 11.2 37.1 29 36.8 57.5l-.3 302.5zm-942.3 873.4c-4.2-1.4-12.9-2.6-19.9-6.7-94.5-55.4-184.9-116.3-258.3-199-40.1-45.2-72.7-95.2-95.9-151.1-12.2-29.4-4.6-55.3 19.7-67.1 24.5-11.9 51.9-2.4 64.3 26.7 54.2 127.5 156.2 208.5 268.4 280.1 18.8 12 38.5 22.6 56.3 35.9 17.5 13.1 19.9 32.4 12.6 52-7.3 19.3-22.5 28.6-47.2 29.2zm532.2-1400c25.9 0 49.2 23.3 48.8 48.8-.3 22.9-26 47.5-48.8 46.8-26.1-.8-47.3-22-47.3-47.3.1-29.3 18.6-48.3 47.3-48.3zm-312.3 1438.9c.5 24.5-20.2 46.9-44 47.6-25.8.8-48.2-19.6-49.2-44.7-1.1-26.5 18.7-47.8 44.8-48.2 26-.6 47.9 20 48.4 45.3z"/><path d="M1399.5 1299.1l49.5 21.9c19.9 8.7 20.3 13.1 2.5 26.2-18.1 13.3-36.6 26.2-54.2 40.3-5.2 4.2-9.5 11.5-10.8 18-4.7 24.9-7.8 50.2-12 75.2-2.2 13.5-6.1 14.3-18.7 8.7l-97.2-41.8c-4.1-1.7-8.8-2.1-14-3.3-2.9 6.5-6.2 12.3-8.1 18.5-3.1 10.1-9.4 12.3-19.1 10.7l-88.8-14.1c-8.4-1.4-15-.3-21.7 5.3l-76.5 62.5c-7.7 6.5-12.6 6.1-20.2-.3-25.5-21.5-51.5-42.4-77.8-62.8-4.6-3.5-12.2-5.5-18-4.7-28.9 3.8-57.7 8.5-86.3 13.6-13 2.3-20.5-.5-25.5-14-7.4-19.7-4-19.2-24.6-11.8-34 12.2-67 27.2-100 41.8-14.3 6.3-17.5 5.8-19.9-9.4l-11.9-75.2c-1.1-5.8-5-12.4-9.6-16-19.3-15.2-39.4-29.4-59.1-44-12.2-9.1-11.7-14.8 1.9-21.2L636 1297l-13.9-27.4c-6.4-13-5.5-15.7 8-21.9 9.8-4.5 19.8-8.6 29.8-12.8 13.6-5.7 18.6-24.8 9.2-36.6l-60.6-74.8c-7.2-8.6-7.7-14.8-.3-23.6 19.3-22.9 37.3-47 56.6-70 6.3-7.5 7.9-14.8 6.4-24.1l-14-85c-3.2-19.4-3.1-19.9 15.6-27.4l89.1-36.1c5.6-2.4 11.3-8.6 13.4-14.3 10.1-28.2 19.5-56.7 28.2-85.3 3.3-11 9-13.3 19.4-11.2l92.1 17c5.6.9 13.3-.7 17.8-4.1 26.5-19.6 52.5-39.7 78.2-60.3 7.4-5.9 12.2-5.6 19.4.1l76.9 59.9c6 4.7 11.3 6.5 19.2 4.9 30.1-6.3 60.6-11.2 90.7-17.3 11.5-2.3 17.5.3 21 12.3 8.2 27.9 18.1 55.3 26.7 83.2 2.6 8.5 7.3 13 15.4 16.2l93.9 37.4c9.6 3.7 12.3 8.7 10.5 18.9-5.5 30.3-9.7 60.8-14.9 91.2-1.5 8.7-.5 15.7 5.5 23l58.1 71.9c6.7 8 6.3 13.9-.2 21.7-20.3 24.3-40 49.1-59.8 73.8-12.3 15.4-6.8 35.4 11.4 42.6l26.6 10.9c7.7 3.2 9.6 8.5 5.6 16l-17.5 33.3zm-645.3-95.5c176.8-46.6 352.8-46.9 528.4.8 30.6-82.9 13-214.4-87-296.2-98.8-80.9-242.1-84.2-344.2-7.6-108.6 81.6-127.8 216.2-97.2 303zM638.5 1262l63.9 125.6c4.4 8.9 8.8 9.6 17.4 6.4 68.5-25.8 139-43 211.8-50.9 106.8-11.6 212.1-4.5 315.4 25.8 26.6 7.8 52.6 17.8 79.9 27.2l71.1-132.9c-253.6-101.8-505.2-102.4-759.5-1.2zm712-36.3c-.2-3.6 0-6.1-.5-8.4-2.9-12.8.6-22.8 9.4-32.9 18.1-20.7 34.5-42.8 52.3-63.8 5.8-6.9 5.6-11.3 0-18-19.2-23.1-38-46.4-56.2-70.3-3.5-4.6-5.4-12.2-4.7-18 4-29.7 8.2-59.4 14.1-88.8 2.4-11.7-2.1-15-11.4-18.6l-87-34.5c-9.1-3.5-14-9-16.8-18.1l-25.6-79.6c-2.5-8.2-6.3-9.9-14.4-8.2l-84.6 16.3c-9.7 2-17.2.1-25.2-6.3-26-20.8-52.6-40.8-79.5-61.6L941 776.4c-7.9 6.3-15.5 8.3-25.2 6.4l-83.4-16c-9.1-1.9-13.3-.5-16.2 9-7.5 25.1-16.7 49.7-24 74.9-3.5 11.9-9.4 18.8-21.3 23.2C742 884.5 713.8 897 685 908c-8.2 3.1-10.8 6.7-9.3 15.4 5.2 29.5 10.2 59.1 14 88.8.9 6.9-1.4 15.9-5.5 21.4-17.4 23.4-35.8 46.1-54.6 68.4-6.5 7.7-6 12.5.4 19.9 15.8 18.3 30.2 37.7 45.9 56.1 10.5 12.4 20.1 24.5 15.1 42.2-.1.5.9 1.2 1.8 2.5l42.5-13.8c-17.3-63.7-16.7-125.6 5.9-186.6 22.7-61.4 61.1-111.2 116.4-145.9 103.3-64.7 210.9-69.2 313.8-4.2 124.4 78.6 163.5 195.4 131.2 338.3 15.5 4.6 31.2 9.7 47.9 15.2zm-101.4 161.5c-21.1-5.2-40.3-10.3-59.7-14.3-5.4-1.1-12.4.1-17.2 2.8-101.3 56.7-202.6 57.7-304.3 1.2-3.5-1.9-8-4.2-11.4-3.5-21.1 4.3-41.9 9.5-64.1 14.7 9.3 21.7 17.4 41.7 26.6 61.1 1.3 2.8 8 5 11.8 4.5l90.1-13.1c5.6-.7 13.1 1.6 17.6 5.2l81.9 65.9 10.4-8.1 73.1-58.7c4.5-3.4 12.1-5 17.8-4.2l88.9 13c3.8.5 10.4-1.8 11.7-4.6 9-19.5 17.2-39.5 26.8-61.9zm-359.9-20.5c75 46.1 193.6 43 260.5-1.5-87.2-13.7-172.7-12.6-260.5 1.5zm-214.9 101.9l88.3-37.8c-19.8-4.2-38.1-7.5-56-12.3-5.1-1.3-10.8-5.8-13.3-10.4-14.6-27.1-28.2-54.6-42.2-82-2.2-4.3-4.6-8.4-7.2-13l-48.3 22.3 58.1 43.2c4.6 3.7 8.4 10.3 9.4 16.2 4.3 24.2 7.5 48.5 11.2 73.8zm716.5-153.5l-6.9 12.5-43.2 80.1c-2.8 4.9-9.1 9.3-14.6 10.7-17.4 4.7-35.2 7.8-54.7 12l87 37.7c3.5-22.6 7.8-44.7 9.9-66.9 1.2-13 6.6-21.1 17.1-28.2 17.1-11.4 33.3-24.2 51.6-37.7l-46.2-20.2zm-616 78.7l-33.8 11.3.6 2.8 43.2 8.8-10-22.9zm522.8 12.5c-34-15.9-33-16.5-38 8l38-8zm-411.3-275.7c-22.8.5-43.2-5-55.7-26-3.5-5.8-6.1-13.3-5.8-19.8.2-4.4 5.5-10.6 9.8-12.1 3.6-1.3 9.8 2.2 13.8 5.1 2.7 1.9 3.6 6.4 5.3 9.7 9.8 20.1 29.9 27.1 50.2 17.2 8.5-4.1 15.6-10.9 13.1-20.3-1.9-7-7.8-14.4-14.1-18.2-7.5-4.6-17.4-5.1-26-8.1-10.6-3.6-21.8-6.4-31.2-12.2-25.6-15.8-25.1-52.3 1.1-67.1 24-13.6 49.8-14.2 74.1-1.2 8.3 4.4 14.8 14.2 19.5 23 3.9 7.2 1.6 16.1-7.5 19.8-8.6 3.5-13.9-1.5-18.2-8.6-11.9-19.8-26.1-26.1-44.1-18.1-5.9 2.6-13 10-13.3 15.5-.3 5.3 6.4 13.9 12 16.1 17.3 7 35.9 10.6 53.2 17.4 36.8 14.4 31.9 61.5 6.5 76.8-9.3 5.6-20.7 7.9-31.4 11.1-3.6.9-7.6 0-11.3 0zm146.9-.1c-22.3.6-42.2-4.6-55.3-24.6-2.5-3.8-4.7-8-5.7-12.4-1.9-8.4-2.5-17.2 7.8-21 10.4-3.8 15 3.2 18.9 11.3 10.7 22.5 26.9 29.9 48.2 22.1 9.5-3.5 16.8-9.3 17.2-20.6.4-11.7-7-17.4-16.7-20.6-13.4-4.3-27.3-7.3-40.7-11.9-24-8.1-34.3-22.5-32.8-44 1.4-19.5 16.5-33.8 40-38.3 17.7-3.4 35.5-3.8 51 5.6 8.9 5.4 16.1 15 21.8 24.1 4.7 7.5 1.3 16-7.2 19.7-8.3 3.7-13.9-.9-18.3-8.3-11.6-19.5-23.4-24.8-41.7-19.5-8.4 2.5-15.7 6.5-16.5 16.4-.8 10.3 6.4 15 14.6 17.7 15.8 5.1 32.1 8.7 47.7 14.6 24.2 9.1 33.2 25.8 28.7 49.9-4 21.8-22.4 36.8-48.5 39.6-4.1.6-8.3.2-12.5.2zm120.5-27.3h52.2l12.5.1c8.3.1 15.3 2.5 15.5 12.3.2 10.6-7.4 12.8-16.1 12.8h-33.7c-14.6 0-29.1-.1-43.7 0-11.2.1-17.7-5.6-17.7-16.4V985.9c.1-9.8 5.2-17.2 16.1-16.6 10.7.6 14.9 8.3 15 18.1l.1 99.9-.2 15.9zM1004 1270.8c-84.5 1.2-176.2 12.9-264.3 45.8-6.2 2.3-12.7 4.5-15.5-3.9-2.7-8.2 3.8-10.9 9.8-13.2 45.7-17.3 93-28.5 141.3-35.8 143.7-21.8 284.7-9.1 423.5 32.8 2 .6 4.5.7 5.8 2.1 3.3 3.5 6.1 7.5 9 11.3-4.8 1.9-9.5 5.1-14.4 5.3-4.7.2-9.5-2.6-14.3-4-88.7-26.4-179.3-40-280.9-40.4z" stroke="#000" stroke-width="3" stroke-miterlimit="10"/></svg>