<?xml version="1.0" encoding="utf-8"?>
<!-- Generator: Adobe Illustrator 21.1.0, SVG Export Plug-In . SVG Version: 6.00 Build 0)  -->
<svg version="1.1" id="Layer_1" xmlns="http://www.w3.org/2000/svg" xmlns:xlink="http://www.w3.org/1999/xlink" x="0px" y="0px"
	 viewBox="0 0 2023.5 2432" style="enable-background:new 0 0 2023.5 2432;" xml:space="preserve">
<style type="text/css">
	.st0{fill:#67CB3E;}
	.st1{fill:#D9F98B;}
	.st2{stroke:#000000;stroke-width:3;stroke-miterlimit:10;}
</style>
<g>
	<path d="M996.7,2410.3c-175.5-81-346.6-169.8-503.9-283c-100.3-72.1-193.3-152.4-269.2-251.1C131,1755.8,73.4,1620.4,55.2,1470
		c-10.7-88.4-17.5-177.8-18.6-266.8c-2.6-223.2-0.4-446.5-1.5-669.8c-0.2-34.3,13.3-53.5,43.7-67.4
		c295-134.9,589.6-270.7,884.3-406.2c11.1-5.1,22.4-9.9,33.6-14.8c6.2,0,12.3,0,18.5,0c308.6,141.8,617.2,283.7,926,425.3
		c24.6,11.3,35.3,29.1,35.2,56.3c-0.5,229.4,0.6,458.8-0.7,688.2c-0.6,112.4-7.8,224.6-32.9,334.7c-38,166.8-122.3,307.5-243.3,427
		c-119.2,117.8-256.9,210.6-402.9,291c-92.1,50.7-187.5,95.5-281.5,142.9C1009,2410.3,1002.8,2410.3,996.7,2410.3z M1881.6,884.7
		c0.1,0,0.1,0,0.2,0c0-104.7-0.3-209.4,0.3-314.1c0.1-16-4.2-25.1-19.6-31.6c-38.2-16.1-75.7-34-113.4-51.3
		c-240.2-110.6-480.4-221.1-720.4-332.2c-16.2-7.5-29.4-7.7-45.6-0.1c-80.6,38.2-161.7,75.4-242.7,112.6
		c-196.3,90.2-392.6,180.4-589.1,270c-15.2,6.9-21.9,14.9-21.7,32.6c2.1,229.3,2.4,458.6,5.4,687.9c0.8,65.1,6.4,130.4,13.8,195.2
		c10.5,92.4,39.5,179.6,83.7,261.7c74.1,137.7,186.3,240,310.2,330.5c139,101.5,290.7,181.7,446,254.9c9.5,4.5,24.6,4.6,34,0.1
		c57.6-27.4,114.9-55.6,171.1-85.7c156.5-83.8,305.9-178,434.1-302.5c108.4-105.3,184.1-229.7,220.4-377.3
		c27.9-113.7,29.4-229.9,32.7-345.8C1883.9,1088,1881.6,986.3,1881.6,884.7z"/>
	<path class="st0" d="M1881.6,884.7c0,101.6,2.3,203.3-0.6,304.8c-3.3,115.8-4.7,232.1-32.7,345.8c-36.3,147.6-112,272-220.4,377.3
		c-128.2,124.5-277.6,218.7-434.1,302.5c-56.2,30.1-113.5,58.3-171.1,85.7c-9.4,4.5-24.6,4.4-34-0.1
		c-155.4-73.2-307-153.3-446-254.9c-123.9-90.5-236.1-192.8-310.2-330.5c-44.2-82.1-73.1-169.3-83.7-261.7
		c-7.4-64.8-12.9-130.1-13.8-195.2c-3-229.3-3.3-458.6-5.4-687.9c-0.2-17.7,6.6-25.6,21.7-32.6c196.5-89.7,392.8-179.8,589.1-270
		c81-37.2,162.1-74.4,242.7-112.6c16.2-7.7,29.4-7.5,45.6,0.1c240,111.1,480.2,221.6,720.4,332.2c37.7,17.4,75.2,35.2,113.4,51.3
		c15.3,6.5,19.7,15.6,19.6,31.6c-0.7,104.7-0.3,209.4-0.3,314.1C1881.7,884.7,1881.7,884.7,1881.6,884.7z M1774.7,983.8
		c0-100.8-0.5-201.7,0.3-302.5c0.2-28.5-11.4-46.2-36.8-57.5c-33-14.6-65.4-30.6-98.3-45.7c-27.9-12.8-55.7-26.1-84.2-37.7
		c-35.8-14.5-66,2.5-69.2,38.3c-2.3,25,11.7,40.2,33.1,50.1c45.4,20.9,90.2,43.2,136.3,62.3c19.9,8.2,24.6,19.1,24.5,39.3
		c-0.9,154.7,0.2,309.5-0.9,464.2c-0.4,54.6-4.6,109.1-8.2,163.6c-12.3,189.6-103.8,335.8-248,453.5
		c-123.2,100.5-261.2,175.9-404.2,243.2c-7.6,3.6-19.6,2.8-27.5-0.6c-26.8-11.4-53.1-24.4-79-37.8
		c-135.6-70.2-267-146.9-378.2-253.5c-89.8-86.1-157.7-186.3-178.5-310.7c-13.4-80.1-21.1-161.8-22.9-242.9
		c-3.5-162.4-0.8-324.8-1.4-487.3c0-14.3,3.9-21.4,17.3-27.5C562.1,597.2,775,499,988.4,401.8c10-4.6,25.6-4,35.9,0.3
		c47.4,20,94,42.2,140.7,63.8c21.3,9.9,41.8,11.2,59.9-5.8c27.7-26.1,20.4-61.6-17.4-79.8c-54.7-26.4-110.5-50.5-165.1-76.9
		c-24.9-12-47.5-11.7-72.6-0.1c-230.9,106.8-462.1,213.1-693.5,319c-28,12.8-39.8,31.7-39.5,62.9c2.4,214.7,1,429.5,6.6,644.1
		c1.8,68.2,14.9,137.8,33.7,203.6c40.1,140.6,128.9,250.3,239.2,343.3c139.4,117.5,298.6,202.9,463.2,278.6
		c14.7,6.8,37.9,7,52.5,0.3c159.5-73.6,314.3-155.8,450.8-268.2c99.9-82.2,183.1-177.8,233.2-299c44.2-106.9,56.3-219.7,58.5-333.8
		C1776,1164,1774.7,1073.9,1774.7,983.8z M832.4,1857.2c24.8-0.7,39.9-9.9,47.1-29.2c7.3-19.7,4.9-39-12.6-52
		c-17.8-13.3-37.5-23.9-56.3-35.9c-112.2-71.6-214.2-152.6-268.4-280.1c-12.4-29.2-39.7-38.6-64.3-26.7
		c-24.3,11.8-31.9,37.7-19.7,67.1c23.2,55.9,55.8,105.9,95.9,151.1c73.5,82.7,163.8,143.7,258.3,199
		C819.5,1854.6,828.2,1855.9,832.4,1857.2z M1364.6,457.2c-28.6,0-47.2,19-47.3,48.3c-0.1,25.3,21.1,46.5,47.3,47.3
		c22.8,0.7,48.5-23.9,48.8-46.8C1413.8,480.5,1390.5,457.2,1364.6,457.2z M1052.3,1896.1c-0.5-25.3-22.4-45.9-48.4-45.4
		c-26,0.5-45.8,21.8-44.8,48.2c1,25.1,23.4,45.5,49.2,44.7C1032,1942.9,1052.7,1920.5,1052.3,1896.1z"/>
	<path class="st1" d="M1172.4,408.4c-50.2-23.3-100.3-47.1-151.2-68.6c-11.1-4.7-27.9-5.3-38.6-0.4
		c-229.4,104.4-458.2,210-687.5,314.8c-14.4,6.6-18.6,14.3-18.6,29.6c0.6,174.6-2.3,349.3,1.5,523.9c1.9,87.3,10.2,175.1,24.6,261.2
		c22.3,133.8,95.4,241.4,191.9,334c119.5,114.7,260.8,197,406.6,272.6c27.9,14.4,56.1,28.4,85,40.7c8.6,3.6,21.5,4.5,29.6,0.6
		c153.7-72.3,302.2-153.5,434.6-261.5c155.1-126.5,253.4-283.8,266.6-487.6c3.8-58.6,8.4-117.2,8.8-175.9
		c1.2-166.3,0-332.7,0.9-499.1c0.1-21.8-4.9-33.5-26.3-42.3c-49.6-20.5-97.8-44.5-146.5-67"/>
	<path d="M1774.7,983.8c0,90.1,1.4,180.2-0.3,270.2c-2.2,114.1-14.2,226.9-58.5,333.8c-50.1,121.2-133.4,216.8-233.2,299
		c-136.5,112.4-291.3,194.6-450.8,268.2c-14.6,6.7-37.8,6.5-52.5-0.3c-164.6-75.7-323.8-161-463.2-278.6
		c-110.3-93-199-202.7-239.2-343.3c-18.8-65.8-31.9-135.4-33.7-203.6c-5.6-214.6-4.2-429.4-6.6-644.1c-0.3-31.2,11.5-50.1,39.5-62.9
		c231.4-105.9,462.5-212.2,693.5-319c25.1-11.6,47.7-12,72.6,0.1c54.7,26.4,110.4,50.5,165.1,76.9c37.8,18.2,45.1,53.7,17.4,79.8
		c-18.1,17.1-38.6,15.7-59.9,5.8c-46.7-21.7-93.3-43.8-140.7-63.8c-10.4-4.4-25.9-4.9-35.9-0.3C775,499,562.1,597.2,348.9,694.6
		c-13.4,6.1-17.3,13.3-17.3,27.5c0.5,162.4-2.1,324.9,1.4,487.3c1.7,81.2,9.5,162.9,22.9,242.9c20.8,124.4,88.7,224.6,178.5,310.7
		c111.2,106.7,242.6,183.3,378.2,253.5c25.9,13.4,52.2,26.4,79,37.8c8,3.4,20,4.2,27.5,0.6c143-67.3,281.1-142.7,404.2-243.2
		c144.3-117.7,235.7-264,248-453.5c3.5-54.5,7.8-109.1,8.2-163.6c1.1-154.7,0-309.5,0.9-464.2c0.1-20.2-4.6-31.1-24.5-39.3
		c-46.1-19.1-90.9-41.4-136.3-62.3c-21.4-9.9-35.4-25.1-33.1-50.1c3.2-35.9,33.4-52.9,69.2-38.3c28.5,11.6,56.3,24.8,84.2,37.7
		c32.8,15.1,65.2,31.1,98.3,45.7c25.5,11.2,37.1,29,36.8,57.5C1774.1,782.1,1774.7,883,1774.7,983.8z"/>
	<path d="M832.4,1857.2c-4.2-1.4-12.9-2.6-19.9-6.7c-94.5-55.4-184.9-116.3-258.3-199c-40.1-45.2-72.7-95.2-95.9-151.1
		c-12.2-29.4-4.6-55.3,19.7-67.1c24.5-11.9,51.9-2.4,64.3,26.7c54.2,127.5,156.2,208.5,268.4,280.1c18.8,12,38.5,22.6,56.3,35.9
		c17.5,13.1,19.9,32.4,12.6,52C872.3,1847.3,857.1,1856.6,832.4,1857.2z"/>
	<path d="M1364.6,457.2c25.9,0,49.2,23.3,48.8,48.8c-0.3,22.9-26,47.5-48.8,46.8c-26.1-0.8-47.3-22-47.3-47.3
		C1317.4,476.2,1335.9,457.2,1364.6,457.2z"/>
	<path d="M1052.3,1896.1c0.5,24.5-20.2,46.9-44,47.6c-25.8,0.8-48.2-19.6-49.2-44.7c-1.1-26.5,18.7-47.8,44.8-48.2
		C1029.9,1850.2,1051.8,1870.8,1052.3,1896.1z"/>
	<g>
		<path class="st2" d="M1399.5,1299.1c17.6,7.8,33.6,14.9,49.5,21.9c19.9,8.7,20.3,13.1,2.5,26.2c-18.1,13.3-36.6,26.2-54.2,40.3
			c-5.2,4.2-9.5,11.5-10.8,18c-4.7,24.9-7.8,50.2-12,75.2c-2.2,13.5-6.1,14.3-18.7,8.7c-32.2-14.4-64.7-28.1-97.2-41.8
			c-4.1-1.7-8.8-2.1-14-3.3c-2.9,6.5-6.2,12.3-8.1,18.5c-3.1,10.1-9.4,12.3-19.1,10.7c-29.6-4.9-59.3-9.1-88.8-14.1
			c-8.4-1.4-15-0.3-21.7,5.3c-25.3,21.1-51.3,41.3-76.5,62.5c-7.7,6.5-12.6,6.1-20.2-0.3c-25.5-21.5-51.5-42.4-77.8-62.8
			c-4.6-3.5-12.2-5.5-18-4.7c-28.9,3.8-57.7,8.5-86.3,13.6c-13,2.3-20.5-0.5-25.5-14c-7.4-19.7-4-19.2-24.6-11.8
			c-34,12.2-67,27.2-100,41.8c-14.3,6.3-17.5,5.8-19.9-9.4c-4.1-25.1-7.3-50.3-11.9-75.2c-1.1-5.8-5-12.4-9.6-16
			c-19.3-15.2-39.4-29.4-59.1-44c-12.2-9.1-11.7-14.8,1.9-21.2c18.4-8.6,36.9-17,56.6-26.2c-4.9-9.7-9.5-18.5-13.9-27.4
			c-6.4-13-5.5-15.7,8-21.9c9.8-4.5,19.8-8.6,29.8-12.8c13.6-5.7,18.6-24.8,9.2-36.6c-20-25.1-40-50.2-60.6-74.8
			c-7.2-8.6-7.7-14.8-0.3-23.6c19.3-22.9,37.3-47,56.6-70c6.3-7.5,7.9-14.8,6.4-24.1c-4.9-28.3-9.2-56.7-14-85
			c-3.2-19.4-3.1-19.9,15.6-27.4c29.7-11.9,59.6-23.5,89.1-36.1c5.6-2.4,11.3-8.6,13.4-14.3c10.1-28.2,19.5-56.7,28.2-85.3
			c3.3-11,9-13.3,19.4-11.2c30.6,6.1,61.3,12,92.1,17c5.6,0.9,13.3-0.7,17.8-4.1c26.5-19.6,52.5-39.7,78.2-60.3
			c7.4-5.9,12.2-5.6,19.4,0.1c25.4,20.3,51.4,39.8,76.9,59.9c6,4.7,11.3,6.5,19.2,4.9c30.1-6.3,60.6-11.2,90.7-17.3
			c11.5-2.3,17.5,0.3,21,12.3c8.2,27.9,18.1,55.3,26.7,83.2c2.6,8.5,7.3,13,15.4,16.2c31.4,12.2,62.5,25.3,93.9,37.4
			c9.6,3.7,12.3,8.7,10.5,18.9c-5.5,30.3-9.7,60.8-14.9,91.2c-1.5,8.7-0.5,15.7,5.5,23c19.7,23.7,38.4,48.2,58.1,71.9
			c6.7,8,6.3,13.9-0.2,21.7c-20.3,24.3-40,49.1-59.8,73.8c-12.3,15.4-6.8,35.4,11.4,42.6c8.9,3.5,17.7,7.2,26.6,10.9
			c7.7,3.2,9.6,8.5,5.6,16C1411.3,1276.4,1405.8,1287,1399.5,1299.1z M754.2,1203.6c176.8-46.6,352.8-46.9,528.4,0.8
			c30.6-82.9,13-214.4-87-296.2c-98.8-80.9-242.1-84.2-344.2-7.6C742.8,982.2,723.6,1116.8,754.2,1203.6z M638.5,1262
			c22.5,44,43.5,84.6,63.9,125.6c4.4,8.9,8.8,9.6,17.4,6.4c68.5-25.8,139-43,211.8-50.9c106.8-11.6,212.1-4.5,315.4,25.8
			c26.6,7.8,52.6,17.8,79.9,27.2c23.4-43.7,46.8-87.5,71.1-132.9C1144.4,1161.4,892.8,1160.8,638.5,1262z M1350.5,1225.7
			c-0.2-3.6,0-6.1-0.5-8.4c-2.9-12.8,0.6-22.8,9.4-32.9c18.1-20.7,34.5-42.8,52.3-63.8c5.8-6.9,5.6-11.3,0-18
			c-19.2-23.1-38-46.4-56.2-70.3c-3.5-4.6-5.4-12.2-4.7-18c4-29.7,8.2-59.4,14.1-88.8c2.4-11.7-2.1-15-11.4-18.6
			c-29.1-11.2-57.9-23.4-87-34.5c-9.1-3.5-14-9-16.8-18.1c-8.2-26.6-17.4-53-25.6-79.6c-2.5-8.2-6.3-9.9-14.4-8.2
			c-28.1,5.8-56.4,10.7-84.6,16.3c-9.7,2-17.2,0.1-25.2-6.3c-26-20.8-52.6-40.8-79.5-61.6c-26.8,20.7-53.4,40.7-79.4,61.5
			c-7.9,6.3-15.5,8.3-25.2,6.4c-27.8-5.5-55.7-10.2-83.4-16c-9.1-1.9-13.3-0.5-16.2,9c-7.5,25.1-16.7,49.7-24,74.9
			c-3.5,11.9-9.4,18.8-21.3,23.2c-28.9,10.6-57.1,23.1-85.9,34.1c-8.2,3.1-10.8,6.7-9.3,15.4c5.2,29.5,10.2,59.1,14,88.8
			c0.9,6.9-1.4,15.9-5.5,21.4c-17.4,23.4-35.8,46.1-54.6,68.4c-6.5,7.7-6,12.5,0.4,19.9c15.8,18.3,30.2,37.7,45.9,56.1
			c10.5,12.4,20.1,24.5,15.1,42.2c-0.1,0.5,0.9,1.2,1.8,2.5c13.8-4.5,27.9-9.1,42.5-13.8c-17.3-63.7-16.7-125.6,5.9-186.6
			c22.7-61.4,61.1-111.2,116.4-145.9c103.3-64.7,210.9-69.2,313.8-4.2c124.4,78.6,163.5,195.4,131.2,338.3
			C1318.1,1215.1,1333.8,1220.2,1350.5,1225.7z M1249.1,1387.2c-21.1-5.2-40.3-10.3-59.7-14.3c-5.4-1.1-12.4,0.1-17.2,2.8
			c-101.3,56.7-202.6,57.7-304.3,1.2c-3.5-1.9-8-4.2-11.4-3.5c-21.1,4.3-41.9,9.5-64.1,14.7c9.3,21.7,17.4,41.7,26.6,61.1
			c1.3,2.8,8,5,11.8,4.5c30.1-4.1,60-9.3,90.1-13.1c5.6-0.7,13.1,1.6,17.6,5.2c27.5,21.5,54.5,43.7,81.9,65.9
			c3.9-3,7.2-5.5,10.4-8.1c24.3-19.6,48.3-39.6,73.1-58.7c4.5-3.4,12.1-5,17.8-4.2c29.7,3.9,59.2,9,88.9,13
			c3.8,0.5,10.4-1.8,11.7-4.6C1231.3,1429.6,1239.5,1409.6,1249.1,1387.2z M889.2,1366.7c75,46.1,193.6,43,260.5-1.5
			C1062.5,1351.5,977,1352.6,889.2,1366.7z M674.3,1468.6c29.7-12.7,58-24.8,88.3-37.8c-19.8-4.2-38.1-7.5-56-12.3
			c-5.1-1.3-10.8-5.8-13.3-10.4c-14.6-27.1-28.2-54.6-42.2-82c-2.2-4.3-4.6-8.4-7.2-13c-16.3,7.5-31.4,14.5-48.3,22.3
			c20.9,15.4,39.9,28.8,58.1,43.2c4.6,3.7,8.4,10.3,9.4,16.2C667.4,1419,670.6,1443.3,674.3,1468.6z M1390.8,1315.1
			c-2.6,4.7-4.8,8.6-6.9,12.5c-14.3,26.8-28.2,53.7-43.2,80.1c-2.8,4.9-9.1,9.3-14.6,10.7c-17.4,4.7-35.2,7.8-54.7,12
			c30.4,13.2,58.4,25.3,87,37.7c3.5-22.6,7.8-44.7,9.9-66.9c1.2-13,6.6-21.1,17.1-28.2c17.1-11.4,33.3-24.2,51.6-37.7
			C1420.3,1328.1,1406,1321.8,1390.8,1315.1z M774.8,1393.8c-11.9,4-22.8,7.6-33.8,11.3c0.2,0.9,0.4,1.9,0.6,2.8
			c13.6,2.8,27.2,5.5,43.2,8.8C781,1408.1,778.1,1401.5,774.8,1393.8z M1297.6,1406.3c-34-15.9-33-16.5-38,8
			C1271.9,1411.7,1283.7,1409.2,1297.6,1406.3z"/>
		<path class="st2" d="M886.3,1130.6c-22.8,0.5-43.2-5-55.7-26c-3.5-5.8-6.1-13.3-5.8-19.8c0.2-4.4,5.5-10.6,9.8-12.1
			c3.6-1.3,9.8,2.2,13.8,5.1c2.7,1.9,3.6,6.4,5.3,9.7c9.8,20.1,29.9,27.1,50.2,17.2c8.5-4.1,15.6-10.9,13.1-20.3
			c-1.9-7-7.8-14.4-14.1-18.2c-7.5-4.6-17.4-5.1-26-8.1c-10.6-3.6-21.8-6.4-31.2-12.2c-25.6-15.8-25.1-52.3,1.1-67.1
			c24-13.6,49.8-14.2,74.1-1.2c8.3,4.4,14.8,14.2,19.5,23c3.9,7.2,1.6,16.1-7.5,19.8c-8.6,3.5-13.9-1.5-18.2-8.6
			c-11.9-19.8-26.1-26.1-44.1-18.1c-5.9,2.6-13,10-13.3,15.5c-0.3,5.3,6.4,13.9,12,16.1c17.3,7,35.9,10.6,53.2,17.4
			c36.8,14.4,31.9,61.5,6.5,76.8c-9.3,5.6-20.7,7.9-31.4,11.1C894,1131.5,890,1130.6,886.3,1130.6z"/>
		<path class="st2" d="M1033.2,1130.5c-22.3,0.6-42.2-4.6-55.3-24.6c-2.5-3.8-4.7-8-5.7-12.4c-1.9-8.4-2.5-17.2,7.8-21
			c10.4-3.8,15,3.2,18.9,11.3c10.7,22.5,26.9,29.9,48.2,22.1c9.5-3.5,16.8-9.3,17.2-20.6c0.4-11.7-7-17.4-16.7-20.6
			c-13.4-4.3-27.3-7.3-40.7-11.9c-24-8.1-34.3-22.5-32.8-44c1.4-19.5,16.5-33.8,40-38.3c17.7-3.4,35.5-3.8,51,5.6
			c8.9,5.4,16.1,15,21.8,24.1c4.7,7.5,1.3,16-7.2,19.7c-8.3,3.7-13.9-0.9-18.3-8.3c-11.6-19.5-23.4-24.8-41.7-19.5
			c-8.4,2.5-15.7,6.5-16.5,16.4c-0.8,10.3,6.4,15,14.6,17.7c15.8,5.1,32.1,8.7,47.7,14.6c24.2,9.1,33.2,25.8,28.7,49.9
			c-4,21.8-22.4,36.8-48.5,39.6C1041.6,1130.9,1037.4,1130.5,1033.2,1130.5z"/>
		<path class="st2" d="M1153.7,1103.2c18.3,0,35.2,0,52.2,0c4.2,0,8.3,0,12.5,0.1c8.3,0.1,15.3,2.5,15.5,12.3
			c0.2,10.6-7.4,12.8-16.1,12.8c-11.2,0-22.5,0-33.7,0c-14.6,0-29.1-0.1-43.7,0c-11.2,0.1-17.7-5.6-17.7-16.4
			c-0.4-42-0.4-84.1,0-126.1c0.1-9.8,5.2-17.2,16.1-16.6c10.7,0.6,14.9,8.3,15,18.1c0.2,33.3,0.1,66.6,0.1,99.9
			C1153.8,1092,1153.7,1096.9,1153.7,1103.2z"/>
		<path class="st2" d="M1004,1270.8c-84.5,1.2-176.2,12.9-264.3,45.8c-6.2,2.3-12.7,4.5-15.5-3.9c-2.7-8.2,3.8-10.9,9.8-13.2
			c45.7-17.3,93-28.5,141.3-35.8c143.7-21.8,284.7-9.1,423.5,32.8c2,0.6,4.5,0.7,5.8,2.1c3.3,3.5,6.1,7.5,9,11.3
			c-4.8,1.9-9.5,5.1-14.4,5.3c-4.7,0.2-9.5-2.6-14.3-4C1196.2,1284.8,1105.6,1271.2,1004,1270.8z"/>
	</g>
</g>
</svg>
