<svg xmlns="http://www.w3.org/2000/svg" viewBox="0 0 511 511" xmlns:v="https://vecta.io/nano"><path d="M246.3 8.13L58.56 98.55a21.13 21.13 0 0 0-11.45 14.36L.74 316.07A21.16 21.16 0 0 0 4.82 334l129.93 162.89a21.13 21.13 0 0 0 16.54 8h208.39a21.13 21.13 0 0 0 16.54-8L506.15 334a21.16 21.16 0 0 0 4.08-17.9l-46.37-203.19a21.13 21.13 0 0 0-11.45-14.36L264.67 8.13a21.2 21.2 0 0 0-18.37 0z" fill="#5e2dea"/><g fill="#fff"><path d="M125.4 271.31l.15-15.48c0-2 .07-4.06 1.16-5.7 2.58-3.9 6.83-1.6 9.92 0a123.78 123.78 0 0 0 13.9 6.14 180.57 180.57 0 0 0 29.11 7.86c4 .77 8 1.45 12 2.08A405.34 405.34 0 0 0 279 270a329.93 329.93 0 0 0 54.2-7.36c13.08-3 25.87-6.91 37.62-13.69 4.76-2.75 9-.26 9 5.34q.17 14.55 0 29.11c-.07 5.24-4 7.67-8.68 5.52a75.33 75.33 0 0 0-87.27 17.74A73.38 73.38 0 0 0 272.61 323a10 10 0 0 1-4.24 4.77 11.75 11.75 0 0 1-5.18.73c-21.35 0-42.69-.91-63.87-3.77q-3.78-.51-7.55-1.09c-17-2.61-34.1-6.36-49.24-14.51-4.4-2.36-8.68-5.14-11.93-8.93-5.21-6.08-5.35-13.17-5.27-20.78zM243.67 398c-21.26-1-42.39-2.45-63.25-7.06-14.61-3.24-31-6.8-43.32-15.72-6.26-4.53-11.74-10.87-11.65-19V323.7c0-5.39 4.29-8.06 9-5.44 15.61 8.74 32.65 12.95 50.06 16.12 24.14 4.4 48.52 5.75 73 5.88 2.61 0 5.68.41 6.78 3.14 1.36 3.37-.11 8-.25 11.51a73.4 73.4 0 0 0 4.9 29.25c1.11 2.87 2.48 6.05 2.22 9.2-.31 3.83-3.73 4.93-7.07 5-6.78.19-13.61-.02-20.42-.36zm51.76-37.39c-.06-27.23 22.57-49.49 50.4-49.56 27.59-.06 50.37 22.28 50.37 49.43 0 27.49-22.55 49.82-50.31 49.82s-50.41-22.22-50.46-49.69zm50.4-37.61c-21 0-38.26 17-38.26 37.68s17.23 37.69 38.25 37.69 38.25-17 38.27-37.68S366.88 323 345.83 323zm-5.05-15.23l1.83-1.32-1.35-1.17c1.95-1.27 2.22-3.11 1.65-5.15-.42-1.49-1-2.93-1.52-4.4-.77-2.26-.32-4.49 1.12-5.7a5.27 5.27 0 0 1 5.79-.55c2.25 1.15 3 3.82 1.83 6.72a41.56 41.56 0 0 0-1.38 3.93c-.58 2-.3 3.87 1.66 5.16l-1.35 1.07 2.14 1.73h-10.33zm.45 108.29l1.34-1.08-2.12-1.73h10.75l-2.12 1.68 1.29 1.15c-2 1.26-2.19 3.12-1.64 5.14.4 1.44 1 2.84 1.48 4.25.81 2.3.38 4.63-1.08 5.86a5.32 5.32 0 0 1-5.8.54c-2.24-1.15-2.95-3.84-1.81-6.73l1.38-3.92c.57-2.04.28-3.87-1.67-5.16zm-37.87-19.49l1.7.25-.09-1.73 6.37 6.82.54-.36-2.11-.15.09 1.52c-.06 0-.16.17-.23.15-2.06-.41-3.46.63-4.44 2.25a38.47 38.47 0 0 0-1.94 4c-1.14 2.5-3.13 3.86-5.27 3.57a5.17 5.17 0 0 1-4.44-4.54c-.25-2.1 1.18-4.09 3.7-5.2a32.22 32.22 0 0 0 3.76-1.77c1.73-.99 2.88-2.38 2.36-4.81zm78.38 6.58l.16-1.77-1.65.17 6.32-6.91v2.11l1.53-.11c0 .1.14.2.13.28-.45 2 .59 3.36 2.13 4.32a35.71 35.71 0 0 0 4.17 2c2.48 1.12 3.84 3.13 3.54 5.27a5.16 5.16 0 0 1-4.54 4.42c-2.08.26-4.11-1.2-5.19-3.69a33 33 0 0 0-1.77-3.75c-1.02-1.7-2.45-2.86-4.83-2.34z"/><path d="M379.8 319.75l2 .25v-1.73c2.62.52 4.06-1 5.15-3 .82-1.51 1.38-3.17 2.3-4.61a4.35 4.35 0 0 1 5.18-2.06 5.28 5.28 0 0 1 3.71 4.68c.11 1.94-1.33 3.85-3.69 4.89l-3 1.35c-2.11 1.09-3.68 2.55-3.17 5.25l-1.71-.14.17 1.63-6.36-6.91zm-69.92-1.48l-.12 1.69 2-.2-.28-.28-6.48 7.21.11-2h-1.69c.52-2.55-.93-4-2.89-5.08-1.56-.85-3.27-1.43-4.76-2.38a4.29 4.29 0 0 1-2.08-5 5.25 5.25 0 0 1 4.56-3.84c2.08-.18 4 1.3 5.11 3.84a30.36 30.36 0 0 0 1.89 3.89c1.14 1.88 2.3 2.31 4.63 2.15zm91.24 47.15c-.47-1.18-1-1.88-2-.48v-8.29l1.13.7 1-1.24c1.36 2.07 3.33 2.23 5.45 1.6 1.44-.43 2.82-1 4.24-1.5 2.27-.74 4.53-.26 5.65 1.26a5.1 5.1 0 0 1 .43 5.8c-1.16 2.14-3.81 2.81-6.62 1.74a40.2 40.2 0 0 0-4.25-1.46 4.14 4.14 0 0 0-5.03 1.87zM290.51 356c.53 1 1 2.06 2 .4v8.34l-1.12-.7-1 1.25c-1.27-2-3.12-2.24-5.15-1.67-1.49.42-2.93 1-4.4 1.52a5.25 5.25 0 0 1-5.71-1.1 5.32 5.32 0 0 1-.56-5.8c1.16-2.26 3.8-3 6.71-1.85a39.38 39.38 0 0 0 4.08 1.42 4.18 4.18 0 0 0 5.15-1.81zm40.57 1.26a4.06 4.06 0 0 0 1.94-3.84c0-.38-.37-1-.66-1a6.57 6.57 0 0 1-4.55-3.41l-1.83-3.37c-1.36-2.76-1.34-2.76-4.41-2v-3H318c.19-.63.2-1.3.53-1.64l5.77-5.55c.27-.25.79-.23 1.19-.33a10.13 10.13 0 0 1 .14 1.22l-.1 2.17h3.18c-.63 3.1-.62 3.07 2.2 4.48a18.7 18.7 0 0 1 3.89 2.25 20.26 20.26 0 0 1 2.79 3.49c.25.35.3 1.2.43 1.2a6.56 6.56 0 0 0 2.71-.35c1.64-.81 2-1.64 1-3.36a5.94 5.94 0 0 1-.29-4.66 34 34 0 0 1 1.31-4.31c.65-1.62.34-2.68-1.36-3.25a5.86 5.86 0 0 1-.8-.51l2.51-2.33-2.94-2.35a27.83 27.83 0 0 1 11.24-.12l-2.71 2.55 2.43 2.29-1.43.76a1.65 1.65 0 0 0-.94 2.32l1.4 4.46a8.85 8.85 0 0 1-.25 5.9c-.15.46-.59 1.19-.45 1.33a5.93 5.93 0 0 0 2.25 1.54c1.78.49 2.25.34 2.88-1.64a6.56 6.56 0 0 1 3.25-3.6c.94-.58 1.93-1.11 2.92-1.6 2.86-1.41 2.86-1.4 2.21-4.48h3v-2.31a8 8 0 0 1 .16-1.08c.35.07.83 0 1.06.22l6.1 5.9c.26.26.18.86.27 1.41l-3.5-.18.17 3c-.32.14-.43.24-.51.22-2.72-.71-2.7-.7-4 1.9a16.83 16.83 0 0 1-2 3.62 26.86 26.86 0 0 1-3.75 3.29c-.37.3-1.33.38-1.32.53a9 9 0 0 0 .5 2.83c.66 1.68 2.05 1.61 3.27.83 1.51-1 3-.68 4.49-.33s2.69.74 4 1.16c2.68.84 2.68.86 4.62-2.29l1.66 2.88 2.31-2.5c1.27 0 1.2 1 1.24 1.88.31 7.1.22 7.82-1.19 8.51l-2.23-2.35-2.2 2.4a8.93 8.93 0 0 1-.61-1c-.57-1.42-1.51-1.76-2.93-1.18-1.24.49-2.54.82-3.81 1.22a7.5 7.5 0 0 1-7.16-1l-.79.93c-1.89 2-1.76 3.73.66 4.55a6.39 6.39 0 0 1 3.53 3.02 37.71 37.71 0 0 1 1.83 3.37c1.28 2.58 1.26 2.59 4.25 1.74V381l2.42-.14c.34 0 .85.06 1 .28a1.11 1.11 0 0 1-.09 1.05l-6.24 6c-.69.61-1.26.31-1.17-.73l.21-2.47h-3.33l.39-1.28a1.78 1.78 0 0 0-1.07-2.56l-5-2.68a6.06 6.06 0 0 1-3-4.24c-.18-.88-2.26-1.07-3.34-.27-.57.41-1.06.92-1.74 1.52 2.19 2.67 1.62 5.56.61 8.48l-.45 1.43c-.92 2.91-.92 2.91 1.81 4.6l-2.36 2.23 2.64 2.49a27.26 27.26 0 0 1-11 .07l2.66-2.54-2.42-2.33 1.29-.66a1.74 1.74 0 0 0 1-2.56c-.48-1.24-.79-2.55-1.22-3.81a7.77 7.77 0 0 1 .89-7.43 8.16 8.16 0 0 0-1.66-1.42 10.75 10.75 0 0 0-2.17-.52c-1.31-.34-1 .65-1.21 1.34a7.72 7.72 0 0 1-3.94 4.22l-3.09 1.64c-2.54 1.25-2.54 1.24-1.64 4.18h-3.29l.18 2.56c.12 1.06-.47 1.34-1.14.74l-6.25-6c-.25-.25-.15-.86-.21-1.3h3.44l-.14-2.94c.36-.1.47-.18.56-.15 2.63.76 2.6.75 3.82-1.64a23.67 23.67 0 0 1 2.47-4.34 18.66 18.66 0 0 1 3.49-2.84c.38-.28 1.29-.41 1.28-.57a9.36 9.36 0 0 0-.56-2.83c-.22-.57-.82-1-1.4-1.63-3.34 2.68-6.76 1.14-10.18.06-2.78-.87-2.78-.89-4.44 2.19l-2.22-2.74-2.52 2.54a6.14 6.14 0 0 1-.79-1.77c-.48-5.64-.18-8 1.1-8.84l2.24 2.42 2.27-2.45c.33.6.53.92.68 1.25a1.75 1.75 0 0 0 2.55 1.07c1.24-.48 2.54-.82 3.82-1.2 4.15-1.22 4.73-.35 7.46.78zm14.62-7.38a10.82 10.82 0 0 0-10.56 10.72 10.65 10.65 0 0 0 10.64 10.77 10.85 10.85 0 0 0 10.84-10.45 11.27 11.27 0 0 0-10.92-11.04zm.24 3.38a7.41 7.41 0 0 1-.16 14.81 7.41 7.41 0 1 1 .16-14.81zm4 7.43a4.12 4.12 0 1 0-4.14 4.09 4 4 0 0 0 4.14-4.09zm29.92-154.3q0-13.6 0-27.21c0-4.08-1.13-8-4.29-10.58a65.11 65.11 0 0 0-12.71-8.6c-13-6.24-27.11-9-41.28-11.26a418.68 418.68 0 0 0-59.76-5.08c-12.26-.21-24.54.38-36.8.92-10.75.48-21.44 1.33-32.05 2.72a58.79 58.79 0 0 1 4.48 11.42c17.82-3 33.47-3.63 48.71-3.84 24.84-.07 43.18.84 61.36 3.77 13.64 2.2 27.18 5 39.8 11a36 36 0 0 1 6.83 4.19c3.79 3 3.94 6.16-.15 8.74a75.24 75.24 0 0 1-15.12 7.56c-16.64 5.8-34 8.33-51.47 9.92a400.22 400.22 0 0 1-53 1.07v.65a38.86 38.86 0 0 1-39.24 39.23h-50.12c1.13.58 2.27 1.14 3.42 1.67a127.34 127.34 0 0 0 25.6 8.43c20.72 4.66 42.42 6.61 63.62 7.41a388.65 388.65 0 0 0 14.49.3 409.1 409.1 0 0 0 50.94-3.06c20.3-2.5 41.36-6.13 59.63-15.8 5.2-2.75 10.23-6.19 13.5-11.09 4.6-6.97 3.6-14.65 3.61-22.48zM303 187.07c8.35-2.55 12.57-5.48 12.62-8.71 0-1.77-7.17-2.85-13.22-2l-27.1 4.29c-5.89 1-5 2.77 1.37 3.62l8 1c-1 .3-1.55.52-2.35.68a158.36 158.36 0 0 1-42.79 1.84c-2.88-.24-5.55-.55-8-.92a40.8 40.8 0 0 1 1.69 5c24.02 2.13 52.36.53 69.78-4.8zm-72-15.18l-8.44-1.09 3.59-.5c19.54-3.89 47.43-3.13 63.06 1.74a30.81 30.81 0 0 0 13.58.84c4.5-.75 5-2.14 1-3.41q-16.43-5.17-43.63-5.86c-17.21-.46-33.89 1-46.34 3.56a40.61 40.61 0 0 1 11.66 9.74l6.62-1.06c7.03-1.16 6.48-2.96-1.1-3.96zm-33.26 4.67c-3.88-18.24-20.52-32.18-41-32.18-16.08 0-29.94 8.58-36.6 21.45C102.91 168 90.15 181.38 90.15 198c0 17.7 15 32.17 33.28 32.17h72.1c15.52 0 27.73-11.79 27.73-26.81 0-13.94-11.65-25.73-25.52-26.8zm-29.94 16.08v21.45h-22.19v-21.45H129l27.73-26.81 27.73 26.81z"/></g></svg>