<svg xmlns="http://www.w3.org/2000/svg" width="64" height="64" fill="none" xmlns:v="https://vecta.io/nano"><path d="M30.18 1.305L13.794 9.197a3.08 3.08 0 0 0-1.667 2.091L8.079 29.018c-.105.453-.106.923-.002 1.376s.307.877.598 1.239L20.02 45.846c.29.361.656.651 1.073.851s.873.303 1.336.303H40.61a3.08 3.08 0 0 0 2.409-1.154l11.34-14.212c.289-.362.493-.784.596-1.235s.103-.92-.001-1.372l-4.048-17.739a3.08 3.08 0 0 0-1.667-2.091L32.854 1.305a3.08 3.08 0 0 0-2.674 0h0z" fill="#5e2dea"/><g fill="#fff"><path d="M17.355 25.351l.015-1.589a1.04 1.04 0 0 1 .119-.585c.265-.401.702-.165 1.021 0a12.76 12.76 0 0 0 1.426.63c.973.352 1.973.622 2.991.808l1.23.213a41.62 41.62 0 0 0 8.971.392 33.92 33.92 0 0 0 5.568-.757c1.344-.308 2.658-.709 3.863-1.406.495-.282.92-.026.927.549v2.989c0 .539-.409.788-.892.567a7.74 7.74 0 0 0-8.965 1.822c-.458.503-.846 1.066-1.154 1.672a1.02 1.02 0 0 1-.435.495 1.2 1.2 0 0 1-.531.076 49.12 49.12 0 0 1-6.562-.387l-.775-.112c-1.746-.267-3.502-.659-5.057-1.484-.461-.227-.877-.538-1.225-.917-.536-.625-.549-1.352-.542-2.134l.008-.841zm12.147 13.014c-2.183-.106-4.353-.252-6.496-.725-1.5-.33-3.182-.697-4.452-1.614-.643-.465-1.207-1.116-1.197-1.954v-3.34c0-.554.44-.824.92-.559 1.604.899 3.354 1.331 5.141 1.657 2.481.45 4.984.59 7.499.603.269 0 .584.043.696.322.14.346-.01.824-.025 1.182a7.57 7.57 0 0 0 .503 3.006c.115.293.256.621.229.943-.033.396-.384.508-.727.516-.691.018-1.39-.008-2.091-.036zm5.317-3.841c0-2.803 2.318-5.083 5.177-5.09 2.834 0 5.172 2.289 5.172 5.077-.022 1.356-.577 2.65-1.543 3.602S41.357 39.599 40 39.601a5.17 5.17 0 0 1-3.629-1.479 5.18 5.18 0 0 1-1.552-3.598h0zm5.177-3.863a3.87 3.87 0 0 0-2.656 6.63 3.87 3.87 0 0 0 5.94-.615 3.87 3.87 0 0 0 .648-2.145 3.91 3.91 0 0 0-3.931-3.87h0z"/><path d="M39.476 29.098l.188-.137-.139-.12a.43.43 0 0 0 .165-.528c-.044-.153-.105-.302-.157-.453a.53.53 0 0 1 .115-.585.54.54 0 0 1 .595-.056c.229.117.303.392.186.691l-.14.402a.43.43 0 0 0 .165.531l-.139.11.219.178h-1.06v-.033zm.047 11.122l.139-.112-.218-.176h1.103l-.218.165.133.119a.43.43 0 0 0-.165.528c.041.148.1.292.152.435.057.097.08.211.064.322a.5.5 0 0 1-.152.291c-.082.077-.188.123-.301.132s-.224-.022-.317-.085c-.231-.117-.303-.394-.186-.691l.142-.402a.43.43 0 0 0-.176-.524h0zm-3.889-2.003l.175.026-.01-.18.66.701.049-.041-.216-.017.01.157s-.017.017-.023.015c-.091-.018-.185-.005-.268.037a.42.42 0 0 0-.189.194 4.02 4.02 0 0 0-.199.415c-.117.257-.322.397-.541.366a.53.53 0 0 1-.457-.467c-.026-.214.122-.419.381-.532a3.94 3.94 0 0 0 .386-.181.43.43 0 0 0 .209-.203c.044-.09.056-.192.033-.29h0zm8.051.671l.017-.181-.165.018.648-.711v.214l.165-.01c0 .01.015.02.013.028-.019.088-.008.179.032.26a.4.4 0 0 0 .186.184 3.63 3.63 0 0 0 .43.209.51.51 0 0 1-.104.989c-.118.003-.233-.032-.33-.101a.54.54 0 0 1-.203-.279c-.053-.132-.113-.261-.181-.386a.43.43 0 0 0-.508-.236zm-.2-8.56l.206.025v-.176c.269.053.417-.104.529-.312.084-.155.142-.33.236-.475.05-.092.131-.163.228-.201s.205-.041.304-.008a.54.54 0 0 1 .381.48.55.55 0 0 1-.379.495l-.313.139c-.216.112-.377.264-.33.541l-.177-.015.018.165-.66-.711-.044.054zm-7.182-.152l-.013.165.209-.021-.03-.028-.669.74.013-.206h-.175c.053-.26-.096-.41-.297-.521l-.495-.244a.44.44 0 0 1-.213-.516.54.54 0 0 1 .468-.394c.213-.02.412.134.524.394.055.137.12.271.195.399a.43.43 0 0 0 .481.232h0zm9.372 4.842c-.048-.12-.101-.194-.208-.049v-.852l.116.072.1-.127c.14.213.341.228.561.165.147-.043.289-.105.434-.153a.51.51 0 0 1 .311-.028c.104.023.198.078.27.157s.108.185.116.291-.017.213-.072.306c-.119.219-.391.288-.679.178l-.437-.15c-.094-.033-.197-.032-.29.003a.43.43 0 0 0-.221.188h0zm-11.362-.971c.056.109.099.213.209.041v.856l-.115-.071-.101.129a.43.43 0 0 0-.529-.165c-.153.043-.3.104-.452.155a.54.54 0 0 1-.31.033c-.104-.02-.2-.071-.276-.145a.54.54 0 0 1-.058-.595c.119-.232.389-.305.688-.19.137.056.278.104.42.145a.43.43 0 0 0 .523-.193h0z"/><path d="M38.486 34.181a.42.42 0 0 0 .156-.169c.035-.07.05-.148.044-.226 0-.038-.038-.099-.068-.105-.099-.02-.193-.061-.274-.122a.68.68 0 0 1-.194-.228l-.188-.346c-.139-.284-.137-.284-.453-.208v-.318h-.368c.02-.066.021-.134.054-.165l.592-.571c.028-.026.082-.023.124-.035a.82.82 0 0 1 .013.127l-.008.223h.33c-.066.318-.064.315.226.46.142.06.276.138.399.231a1.99 1.99 0 0 1 .287.359c.025.035.03.122.043.122.094.008.19-.004.279-.036.165-.082.201-.165.104-.345a.6.6 0 0 1-.03-.478 3.19 3.19 0 0 1 .134-.444c.068-.165.036-.275-.14-.33-.029-.015-.056-.033-.081-.053l.257-.239-.302-.242c.38-.082.773-.086 1.154-.011l-.279.262.249.234-.145.079c-.024.007-.045.019-.063.036s-.033.037-.042.06-.013.047-.012.072.008.049.02.07l.144.458a.9.9 0 0 1-.026.607c-.015.048-.059.122-.044.135a.59.59 0 0 0 .229.165c.183.051.233.035.297-.165.059-.16.177-.292.33-.369l.302-.165c.292-.145.294-.143.226-.46h.313v-.237c.003-.037.009-.074.017-.11.036 0 .086 0 .109.023l.627.605c.026.028.018.089.028.145l-.359-.018.018.307c-.033.013-.044.025-.053.021-.28-.073-.279-.071-.411.196a1.74 1.74 0 0 1-.211.371 2.7 2.7 0 0 1-.384.338c-.038.031-.137.04-.135.054a.92.92 0 0 0 .051.292c.068.165.209.165.33.084a.56.56 0 0 1 .46-.033l.412.119c.275.086.275.087.475-.236l.165.297.238-.257c.13 0 .124.101.127.193.033.729.023.803-.122.874l-.229-.241-.226.246a1.03 1.03 0 0 1-.063-.107.2.2 0 0 0-.119-.137.2.2 0 0 0-.181.017c-.127.051-.262.084-.392.125a.77.77 0 0 1-.735-.099l-.081.096c-.193.209-.181.383.068.468.156.057.283.173.356.322a4.13 4.13 0 0 1 .19.346c.13.265.129.267.435.18v.33c.087 0 .165-.015.249-.015.035 0 .087 0 .101.03.008.017.011.036.009.055s-.008.037-.019.052l-.641.617c-.069.063-.129.031-.119-.074l.022-.256h-.343l.041-.13c.013-.024.02-.051.021-.078s-.004-.055-.014-.08-.027-.048-.047-.066-.045-.032-.071-.04l-.515-.274a.62.62 0 0 1-.307-.437c-.02-.089-.233-.109-.345-.028-.058.043-.109.096-.178.157.224.275.165.572.063.872l-.046.147c-.094.298-.094.298.186.471l-.242.229.27.256a2.78 2.78 0 0 1-1.131 0l.274-.261-.249-.239.132-.068a.18.18 0 0 0 .118-.105.18.18 0 0 0 .013-.08c-.002-.027-.01-.054-.024-.078-.05-.129-.082-.262-.125-.392a.8.8 0 0 1 .091-.763c-.048-.055-.104-.104-.165-.145a1.19 1.19 0 0 0-.223-.054c-.135-.035-.101.068-.125.139-.074.19-.218.344-.402.43l-.318.165c-.259.129-.261.129-.165.43h-.33c0 .091 0 .176.017.262s-.048.137-.115.076l-.643-.617c-.025-.026-.015-.087-.021-.133h.34l-.013-.302c.036-.01.048-.018.058-.015.27.078.267.076.391-.165.069-.157.155-.306.255-.445.107-.111.227-.209.358-.292.04-.028.132-.043.132-.058-.005-.099-.024-.197-.058-.29-.023-.059-.086-.102-.143-.165-.343.275-.696.117-1.045 0-.287-.091-.287-.092-.457.224l-.229-.28-.254.265a.61.61 0 0 1-.079-.183c-.051-.579-.02-.824.112-.907l.229.249.234-.252.069.129c.007.026.02.051.039.071s.041.037.066.047.053.015.08.014.054-.009.078-.022c.127-.05.261-.086.392-.124.43-.124.49-.035.775.082zm1.5-.758a1.11 1.11 0 0 0-1.085 1.101c-.001.145.026.288.08.422s.135.256.236.358.223.184.356.24.276.085.421.085c.289 0 .566-.112.774-.312s.33-.473.341-.762c-.005-.298-.126-.582-.336-.793s-.494-.333-.792-.34h.005z"/><path d="M40.006 33.777a.76.76 0 0 1 .719.769.76.76 0 0 1-1.294.537.75.75 0 0 1-.171-.253.77.77 0 0 1-.058-.3.75.75 0 0 1 .065-.299.77.77 0 0 1 .177-.249c.075-.07.164-.125.261-.16a.76.76 0 0 1 .302-.044h0zm.412.763c.001-.084-.023-.166-.07-.236s-.112-.125-.189-.157-.162-.042-.245-.026-.158.055-.218.114-.101.134-.118.216-.009.167.022.245.085.144.155.191a.42.42 0 0 0 .235.073c.057.002.113-.008.166-.028a.41.41 0 0 0 .261-.4v.008zm3.074-15.856v-2.795a1.35 1.35 0 0 0-.442-1.087 6.66 6.66 0 0 0-1.303-.887c-1.339-.64-2.783-.922-4.239-1.154a43.3 43.3 0 0 0-6.139-.523c-1.26-.021-2.521.04-3.781.096l-3.298.279c.193.374.347.767.46 1.172a31.67 31.67 0 0 1 5.004-.394c2.551 0 4.435.086 6.302.387 1.401.226 2.791.513 4.087 1.126a3.7 3.7 0 0 1 .702.43c.389.305.404.631-.017.897a7.67 7.67 0 0 1-1.551.777c-1.71.597-3.489.856-5.288 1.021a41 41 0 0 1-5.441.109v.066a3.99 3.99 0 0 1-1.166 2.86c-.375.375-.82.672-1.311.873a3.99 3.99 0 0 1-1.547.298H19.37l.351.165a13.04 13.04 0 0 0 2.63.867c2.129.478 4.356.678 6.534.76l1.484.031a42.05 42.05 0 0 0 5.233-.315c2.084-.257 4.249-.63 6.125-1.622.534-.284 1.05-.637 1.385-1.139.481-.706.374-1.494.376-2.299zm-7.893-1.985c.857-.261 1.291-.562 1.296-.894 0-.183-.737-.293-1.357-.201l-2.785.44c-.605.104-.511.285.142.373l.824.106-.241.069a16.31 16.31 0 0 1-4.396.19l-.824-.094a3.86 3.86 0 0 1 .173.509c2.47.214 5.375.049 7.167-.498z"/><path d="M28.199 15.146l-.867-.112.369-.051c2.007-.401 4.871-.33 6.476.178a3.17 3.17 0 0 0 1.395.087c.462-.078.51-.221.097-.351-1.125-.354-2.618-.554-4.481-.602a21.75 21.75 0 0 0-4.758.356c.458.255.864.594 1.197.999l.679-.109c.73-.114.673-.298-.107-.396zm-3.412.473c-.399-1.871-2.109-3.298-4.216-3.298a4.19 4.19 0 0 0-3.759 2.203c-1.766.221-3.077 1.598-3.077 3.298 0 1.814 1.538 3.298 3.418 3.298h7.405c1.596 0 2.849-1.212 2.849-2.755 0-1.423-1.197-2.635-2.62-2.745zm-3.077 1.649v2.204h-2.279v-2.201h-1.71l2.849-2.754 2.848 2.754-1.708-.003z"/></g><path d="M6.662 58.808c-.084.885-.415 1.577-.99 2.075s-1.342.741-2.297.741c-.668 0-1.257-.156-1.768-.467s-.898-.762-1.175-1.339S.012 58.57 0 57.806v-.775c0-.783.14-1.472.42-2.069s.681-1.056 1.203-1.379 1.132-.484 1.82-.484c.925 0 1.67.249 2.234.747s.893 1.201.985 2.109H5.211c-.069-.596-.246-1.026-.53-1.288s-.693-.399-1.238-.399c-.633 0-1.121.23-1.463.69s-.511 1.127-.518 2.012v.735c0 .897.161 1.581.484 2.052s.802.707 1.428.707c.572 0 1.002-.127 1.29-.382s.47-.678.547-1.271h1.451zm1.401-.439c0-.604.121-1.147.363-1.63a2.61 2.61 0 0 1 1.019-1.117c.438-.262.941-.393 1.509-.393.841 0 1.522.268 2.044.804s.81 1.246.852 2.132l.006.325c0 .608-.119 1.151-.357 1.63s-.572.849-1.013 1.111-.944.393-1.52.393c-.879 0-1.584-.289-2.113-.866s-.789-1.355-.789-2.32v-.068zm1.399.12c0 .635.132 1.132.397 1.493s.633.536 1.106.536.839-.182 1.1-.547.397-.899.397-1.602c0-.623-.136-1.117-.409-1.482a1.29 1.29 0 0 0-1.1-.547c-.457 0-.82.181-1.088.541s-.403.893-.403 1.607zm7.384-3.146l.04.644c.438-.505 1.036-.758 1.796-.758.833 0 1.403.315 1.71.946.453-.631 1.09-.946 1.912-.946.687 0 1.198.188 1.532.564s.511.931.518 1.664v4.052h-1.399v-4.012c0-.391-.086-.678-.259-.861s-.459-.274-.858-.274c-.319 0-.58.086-.783.257a1.32 1.32 0 0 0-.42.661l.006 4.229h-1.399v-4.058c-.019-.726-.393-1.089-1.123-1.089-.561 0-.958.226-1.192.678v4.468h-1.399v-6.167h1.319zm10.753 0l.04.644c.438-.505 1.036-.758 1.797-.758.833 0 1.403.315 1.71.946.453-.631 1.09-.946 1.912-.946.687 0 1.198.188 1.532.564s.511.931.518 1.664v4.052h-1.399v-4.012c0-.391-.086-.678-.259-.861s-.459-.274-.858-.274c-.319 0-.58.086-.783.257a1.32 1.32 0 0 0-.42.661l.006 4.229h-1.399v-4.058c-.019-.726-.393-1.089-1.123-1.089-.561 0-.958.226-1.192.678v4.468H26.28v-6.167h1.319zm13.211 5.562c-.411.479-.994.718-1.751.718-.676 0-1.188-.196-1.537-.587s-.518-.957-.518-1.698v-3.995h1.399v3.978c0 .783.328 1.174.985 1.174.679 0 1.138-.241 1.376-.724v-4.428h1.399v6.167h-1.319l-.034-.604zm4.568-5.562l.04.712c.461-.551 1.065-.826 1.814-.826 1.297 0 1.958.735 1.981 2.206v4.075h-1.399v-3.995c0-.391-.086-.68-.259-.866s-.447-.285-.835-.285c-.564 0-.985.253-1.261.758v4.389H44.06v-6.167h1.319zm7.246 6.166h-1.399v-6.167h1.399v6.167zm-1.486-7.768c0-.213.067-.389.202-.53s.334-.211.587-.211.449.07.587.211.207.317.207.53a.71.71 0 0 1-.207.524c-.138.14-.334.205-.587.205s-.449-.068-.587-.205a.73.73 0 0 1-.202-.524zm5.259.103v1.499h1.1v1.026h-1.1v3.442c0 .236.046.407.138.513s.265.154.507.154c.161 0 .324-.019.489-.057v1.072a3.48 3.48 0 0 1-.921.131c-1.075 0-1.612-.587-1.612-1.761v-3.494h-1.025v-1.026h1.025v-1.499h1.399zm4.845 5.682l1.267-4.183H64l-2.476 7.102C61.144 63.481 60.499 64 59.589 64a2.53 2.53 0 0 1-.674-.103v-1.072l.265.017c.353 0 .618-.065.795-.194s.322-.338.426-.638l.202-.53-2.188-6.138h1.509l1.319 4.183z" fill="#00a651"/></svg>