<svg width="110" height="46" viewBox="0 0 110 46" fill="none" xmlns="http://www.w3.org/2000/svg">
<g clip-path="url(#clip0)">
<path d="M41.9264 26.3451C39.1489 26.3443 36.4187 25.6249 34.0015 24.2568L35.6897 20.7858C37.9629 22.26 39.4059 22.6901 41.8942 22.6901C44.0749 22.6901 45.6717 21.9837 45.6717 19.8944C45.6717 15.2867 34.5531 19.1879 34.5531 10.0016C34.5531 6.03915 37.9005 4.2262 42.0479 4.2262C45.0889 4.2262 47.576 4.96493 49.5116 5.91656L48.0674 9.35752C46.2095 8.38488 44.1429 7.87891 42.0458 7.88329C40.264 7.88329 38.8812 8.55857 38.8812 10.0027C38.8812 15.2243 50.0008 10.9232 50.0008 19.7696C50.0008 24.7483 46.376 26.3451 41.9264 26.3451Z" fill="#5E2DEA"/>
<path d="M51.8706 14.335V10.679H53.9287V5.76489H58.26V10.679H62.0677V14.335H58.26V20.3857C58.26 22.0761 58.7815 22.6901 59.8568 22.6901C60.4095 22.6901 61.0547 22.5051 61.7612 22.0761L62.6515 25.5461C61.3924 26.0687 60.2257 26.345 59.0579 26.345C55.8643 26.345 53.9287 24.7794 53.9287 20.632V14.335H51.8706Z" fill="#5E2DEA"/>
<path d="M73.8997 26.0386C73.7301 25.5529 73.6271 25.0465 73.5932 24.5332C72.5491 25.7612 71.0437 26.3451 69.5383 26.3451C66.2522 26.3451 64.4392 24.5945 64.4392 21.3987C64.4392 17.6825 67.3576 16.7609 70.8286 16.7609C71.754 16.768 72.6778 16.8399 73.5932 16.976V15.8405C73.5932 14.5813 72.7943 14.0286 71.6276 14.0286C70.5835 14.0286 69.9996 14.6114 69.8146 15.3802L65.1156 14.8265C65.607 12.0307 68.3415 10.3737 71.6577 10.3737C75.0986 10.3737 77.9234 12.063 77.9234 15.6867V20.6008C77.9234 22.6288 77.9847 24.2568 78.2622 26.0386H73.8997ZM71.6889 19.7718C69.9383 19.7718 68.7705 20.1406 68.7705 21.431C68.7705 22.2912 69.4157 22.6901 70.3985 22.6901C72.119 22.6901 73.5932 21.4922 73.5932 19.7718H71.6889Z" fill="#5E2DEA"/>
<path d="M91.4659 15.1953C89.9927 14.3963 88.455 14.0286 87.3195 14.0286C86.3066 14.0286 85.6302 14.3351 85.6302 14.9802C85.6302 16.9158 93.4627 15.9942 93.4627 21.246C93.4627 24.8708 90.6981 26.3451 87.0743 26.3451C84.3409 26.3451 82.1602 25.5773 80.6226 24.3181L82.6194 21.0008C84.2474 22.1062 85.6915 22.6901 87.1045 22.6901C88.0561 22.6901 89.1303 22.5665 89.1303 21.5535C89.1303 19.2502 81.2989 20.6933 81.2989 14.9802C81.2989 11.664 84.2474 10.3737 87.4722 10.3737C89.469 10.3737 91.5583 10.8651 93.0638 11.6941L91.4659 15.1953Z" fill="#5E2DEA"/>
<path d="M100.155 26.3451H95.8237V3.92297H100.155V12.4307C101.322 11.2329 102.612 10.6801 104.424 10.6801C107.496 10.6801 109.308 12.5544 109.308 16.4868V26.3462H104.977V16.5782C104.977 15.0104 104.116 14.3351 102.826 14.3351C101.228 14.3351 100.154 15.6867 100.154 19.1578L100.155 26.3451Z" fill="#5E2DEA"/>
<path d="M14.4649 0.19918L3.77863 5.34556C3.50656 5.47645 3.26751 5.66703 3.07929 5.9031C2.89107 6.13917 2.75852 6.41465 2.6915 6.70904L0.0516422 18.2728C-0.01666 18.5679 -0.0172168 18.8747 0.0500146 19.1701C0.117246 19.4654 0.250518 19.7417 0.439825 19.9782L7.83895 29.2473C8.02772 29.4824 8.2669 29.6721 8.53882 29.8024C8.81073 29.9327 9.10845 30.0002 9.40996 30H21.2673C21.5688 30.0004 21.8666 29.933 22.1386 29.8027C22.4105 29.6724 22.6497 29.4826 22.8383 29.2473L30.2342 19.9782C30.4227 19.7423 30.5555 19.467 30.6227 19.1726C30.6899 18.8782 30.6898 18.5725 30.6224 18.2782L27.9825 6.70904C27.9155 6.41465 27.7829 6.13917 27.5947 5.9031C27.4065 5.66703 27.1675 5.47645 26.8954 5.34556L16.2091 0.19918C15.937 0.0680807 15.639 0 15.337 0C15.035 0 14.737 0.0680807 14.4649 0.19918Z" fill="#5E2DEA"/>
<path d="M6.10145 15.8814L6.11113 14.8448C6.09958 14.7128 6.12646 14.5802 6.18855 14.4631C6.36167 14.2018 6.64663 14.3555 6.85416 14.4631C7.15556 14.6188 7.46618 14.756 7.7843 14.8738C8.41882 15.1031 9.07125 15.2793 9.73489 15.4007C10.0016 15.4523 10.2725 15.4975 10.5371 15.5394C12.4724 15.8352 14.434 15.921 16.3878 15.7954C17.6098 15.7317 18.8244 15.5666 20.019 15.3018C20.8954 15.1007 21.7524 14.8394 22.5385 14.3846C22.861 14.2007 23.1385 14.3674 23.1428 14.7426C23.1499 15.3921 23.1499 16.042 23.1428 16.6922C23.1428 17.0438 22.8761 17.2062 22.561 17.0621C21.5867 16.6131 20.4948 16.4863 19.4435 16.7C18.3923 16.9136 17.4364 17.4566 16.7146 18.2503C16.4162 18.5785 16.163 18.9452 15.9619 19.3406C15.9056 19.4766 15.8058 19.5901 15.6781 19.6632C15.5678 19.7055 15.4495 19.7224 15.3318 19.7127C13.9012 19.7243 12.4714 19.6398 11.0521 19.46C10.8844 19.4374 10.7156 19.4137 10.5467 19.3869C9.40799 19.2127 8.2628 18.9567 7.2488 18.4191C6.94791 18.2707 6.67704 18.0681 6.44985 17.8212C6.10038 17.4137 6.09177 16.9395 6.09608 16.4298L6.10145 15.8814Z" fill="white"/>
<path d="M14.0225 24.3686C12.5988 24.2998 11.1837 24.2041 9.78586 23.8955C8.80734 23.6804 7.71054 23.4406 6.88256 22.8428C6.46319 22.5395 6.09544 22.1148 6.10189 21.5685C6.11049 20.8427 6.10189 20.1169 6.10189 19.39C6.10189 19.0287 6.38899 18.8523 6.70191 19.0254C7.74817 19.6115 8.88906 19.8932 10.0547 20.1061C11.673 20.3997 13.3053 20.4911 14.9451 20.4997C15.1204 20.4997 15.3258 20.5276 15.3989 20.7094C15.4903 20.9352 15.3925 21.247 15.3828 21.4803C15.3581 22.1492 15.4697 22.8162 15.7108 23.4406C15.786 23.632 15.8774 23.846 15.8602 24.0557C15.8387 24.3138 15.6097 24.3869 15.386 24.3923C14.9355 24.4041 14.4795 24.3869 14.0225 24.3686Z" fill="white"/>
<path d="M17.491 21.8633C17.491 20.0353 19.0028 18.5481 20.8674 18.5438C22.7158 18.5438 24.2406 20.0363 24.2406 21.8547C24.226 22.7393 23.8646 23.5829 23.2342 24.2038C22.6038 24.8246 21.7548 25.1731 20.87 25.1742C19.9852 25.1754 19.1354 24.829 18.5034 24.2098C17.8714 23.5905 17.5078 22.7479 17.491 21.8633ZM20.8674 19.3438C20.3697 19.3515 19.8854 19.506 19.4753 19.7881C19.0652 20.0702 18.7476 20.4672 18.5625 20.9292C18.3773 21.3912 18.3329 21.8977 18.4347 22.3849C18.5366 22.8721 18.7801 23.3184 19.1348 23.6676C19.4895 24.0168 19.9395 24.2533 20.4283 24.3475C20.917 24.4417 21.4227 24.3894 21.8818 24.197C22.3409 24.0047 22.7328 23.6809 23.0085 23.2665C23.2841 22.852 23.4311 22.3653 23.4309 21.8676C23.4238 21.1935 23.1502 20.5497 22.6698 20.0768C22.1895 19.6039 21.5415 19.3404 20.8674 19.3438Z" fill="white"/>
<path d="M20.5278 18.3244L20.6504 18.2351L20.5601 18.1566C20.6154 18.1209 20.6565 18.0669 20.6761 18.0041C20.6957 17.9412 20.6927 17.8734 20.6676 17.8126C20.6386 17.7125 20.5988 17.6158 20.5655 17.5168C20.5382 17.453 20.5308 17.3825 20.5442 17.3144C20.5576 17.2463 20.5913 17.1838 20.6407 17.1351C20.6947 17.0915 20.7603 17.0648 20.8293 17.0583C20.8984 17.0518 20.9678 17.0658 21.0289 17.0986C21.1784 17.1749 21.2268 17.3545 21.1504 17.5491C21.1171 17.6351 21.0838 17.7222 21.059 17.8115C21.0331 17.8726 21.0297 17.9409 21.0494 18.0043C21.0691 18.0677 21.1106 18.122 21.1666 18.1577L21.0762 18.2298L21.2192 18.3459H20.5278V18.3244Z" fill="white"/>
<path d="M20.5587 25.5783L20.649 25.5052L20.5071 25.3901H21.2265L21.0845 25.4977L21.1716 25.5751C21.116 25.6105 21.0747 25.6645 21.055 25.7275C21.0353 25.7905 21.0385 25.8584 21.0641 25.9192C21.091 26.016 21.1297 26.1095 21.163 26.2031C21.2004 26.2663 21.215 26.3404 21.2046 26.4131C21.1942 26.4858 21.1592 26.5527 21.1056 26.6029C21.0519 26.653 20.9827 26.6834 20.9095 26.6889C20.8363 26.6944 20.7633 26.6747 20.7028 26.6332C20.5522 26.5568 20.5049 26.3762 20.5813 26.1826C20.6146 26.0966 20.6479 26.0095 20.6737 25.9203C20.6978 25.8588 20.6995 25.7909 20.6784 25.7283C20.6574 25.6658 20.615 25.6127 20.5587 25.5783Z" fill="white"/>
<path d="M18.0224 24.2719L18.1363 24.2891L18.1299 24.1719L18.56 24.6289L18.5923 24.602L18.4514 24.5912L18.4579 24.6934C18.4579 24.6934 18.4471 24.7041 18.4428 24.7031C18.3835 24.6913 18.3219 24.6998 18.2679 24.727C18.214 24.7543 18.1707 24.7989 18.1449 24.8536C18.0964 24.9414 18.053 25.0318 18.0148 25.1246C17.9385 25.2923 17.8051 25.3837 17.6621 25.3633C17.5856 25.3532 17.5147 25.3177 17.4607 25.2626C17.4067 25.2074 17.3727 25.1357 17.3643 25.059C17.3471 24.9192 17.4438 24.7859 17.6127 24.7117C17.6986 24.6768 17.7826 24.6373 17.8643 24.5934C17.9237 24.5663 17.9719 24.5195 18.0007 24.4609C18.0295 24.4023 18.0372 24.3355 18.0224 24.2719Z" fill="white"/>
<path d="M23.2728 24.7096L23.2836 24.5913L23.176 24.6031L23.5986 24.1396V24.2794L23.7061 24.273C23.7061 24.2794 23.7158 24.2859 23.7148 24.2913C23.7023 24.3484 23.7095 24.4081 23.7353 24.4606C23.7611 24.5132 23.8039 24.5554 23.8567 24.5805C23.9472 24.632 24.0409 24.6777 24.1373 24.7171C24.209 24.7411 24.2704 24.7888 24.3113 24.8524C24.3522 24.916 24.3702 24.9917 24.3623 25.0668C24.3544 25.142 24.3211 25.2123 24.2679 25.266C24.2147 25.3197 24.1447 25.3537 24.0696 25.3623C23.9927 25.3642 23.9173 25.3412 23.8546 25.2966C23.792 25.252 23.7456 25.1882 23.7223 25.1149C23.6879 25.0288 23.6484 24.9448 23.604 24.8633C23.5762 24.8024 23.5276 24.7534 23.4668 24.7252C23.4061 24.697 23.3373 24.6915 23.2728 24.7096Z" fill="white"/>
<path d="M23.1423 19.1266L23.2767 19.1428V19.0277C23.452 19.0621 23.5488 18.96 23.6219 18.8245C23.6768 18.7234 23.7144 18.6094 23.7757 18.5148C23.8084 18.455 23.8612 18.4086 23.9246 18.3836C23.9881 18.3587 24.0583 18.3568 24.123 18.3782C24.1912 18.3992 24.2514 18.4403 24.2958 18.4961C24.3401 18.552 24.3665 18.62 24.3714 18.6911C24.3674 18.7636 24.3417 18.8331 24.2976 18.8906C24.2535 18.9482 24.193 18.9911 24.1241 19.0137C24.0553 19.0438 23.9854 19.0696 23.9198 19.1041C23.7789 19.1772 23.6735 19.2761 23.7047 19.4568L23.5897 19.4471L23.6015 19.5546L23.1714 19.0911L23.1423 19.1266Z" fill="white"/>
<path d="M18.4586 19.0276L18.45 19.1351L18.5866 19.1212L18.5672 19.1029L18.1306 19.5857L18.1392 19.4513H18.0253C18.0597 19.2814 17.9629 19.1835 17.8317 19.1115C17.7242 19.0545 17.6167 19.0158 17.5091 18.9523C17.4508 18.9208 17.4052 18.87 17.3799 18.8087C17.3546 18.7474 17.3513 18.6793 17.3704 18.6158C17.3893 18.547 17.4286 18.4856 17.4831 18.4397C17.5376 18.3939 17.6048 18.3656 17.6758 18.3588C17.8145 18.3459 17.9446 18.4459 18.0177 18.6158C18.0537 18.7055 18.0961 18.7924 18.1446 18.876C18.1722 18.933 18.2182 18.979 18.2752 19.0065C18.3322 19.034 18.3968 19.0415 18.4586 19.0276Z" fill="white"/>
<path d="M24.5708 22.1858C24.5396 22.1073 24.5052 22.0589 24.4353 22.1535V21.5976L24.5106 21.6449L24.5762 21.5621C24.6676 21.7008 24.7988 21.7105 24.9418 21.6696C25.0375 21.6417 25.1299 21.6008 25.2246 21.5696C25.2886 21.5426 25.3594 21.5361 25.4272 21.5511C25.4951 21.5662 25.5565 21.6019 25.6031 21.6535C25.6472 21.7076 25.6736 21.774 25.6788 21.8436C25.684 21.9132 25.6677 21.9827 25.6321 22.0428C25.5547 22.1858 25.3773 22.231 25.1891 22.1589C25.0958 22.1215 25.0007 22.0888 24.9041 22.0611C24.8428 22.0395 24.7758 22.0401 24.7148 22.0629C24.6539 22.0857 24.6029 22.1292 24.5708 22.1858Z" fill="white"/>
<path d="M17.1605 21.5525C17.1971 21.6235 17.225 21.6912 17.2971 21.5794V22.1375L17.2218 22.0912L17.1562 22.1751C17.1207 22.1192 17.0665 22.0777 17.0033 22.058C16.9401 22.0383 16.872 22.0417 16.811 22.0676C16.711 22.0955 16.6153 22.1353 16.5164 22.1686C16.4527 22.1958 16.3824 22.2033 16.3144 22.1903C16.2464 22.1772 16.1838 22.1443 16.1347 22.0955C16.0909 22.0417 16.064 21.9761 16.0573 21.9071C16.0506 21.8381 16.0644 21.7686 16.097 21.7073C16.1744 21.5557 16.3508 21.5084 16.5454 21.5837C16.6351 21.62 16.7266 21.6516 16.8196 21.6783C16.8821 21.7012 16.9507 21.701 17.0132 21.678C17.0756 21.655 17.1278 21.6105 17.1605 21.5525Z" fill="white"/>
<path d="M19.8823 21.6396C19.9258 21.6129 19.961 21.5746 19.9839 21.529C20.0069 21.4834 20.0168 21.4324 20.0124 21.3815C20.0124 21.3568 19.9877 21.317 19.9683 21.3127C19.9036 21.2999 19.8426 21.2728 19.7898 21.2333C19.737 21.1939 19.6936 21.1431 19.6629 21.0847C19.6221 21.0095 19.578 20.9353 19.5403 20.8589C19.45 20.674 19.4511 20.674 19.2446 20.7234V20.5159H19.0048C19.0178 20.4729 19.0188 20.4288 19.0403 20.4084C19.1661 20.2804 19.2963 20.1578 19.4264 20.0363C19.4446 20.0191 19.4801 20.0213 19.507 20.0137C19.512 20.0411 19.5149 20.0688 19.5156 20.0965C19.5156 20.1428 19.5156 20.189 19.5102 20.2417H19.7253C19.6823 20.4492 19.6834 20.4471 19.8726 20.5417C19.9652 20.581 20.0526 20.6316 20.1328 20.6922C20.2041 20.7629 20.2668 20.8416 20.3199 20.9267C20.3361 20.9492 20.3393 21.0062 20.3479 21.0062C20.4095 21.0118 20.4715 21.0037 20.5296 20.9826C20.6372 20.9288 20.6608 20.875 20.5974 20.7578C20.5729 20.71 20.5586 20.6576 20.5552 20.6039C20.5519 20.5503 20.5597 20.4965 20.578 20.446C20.6 20.3476 20.6291 20.2509 20.6651 20.1567C20.7092 20.0492 20.6888 19.9772 20.5737 19.9417C20.5551 19.932 20.5374 19.9204 20.521 19.9073L20.6888 19.7514L20.492 19.5933C20.7398 19.5398 20.9959 19.5372 21.2447 19.5858L21.063 19.7567L21.2253 19.9094L21.1307 19.961C21.1153 19.9656 21.1012 19.9736 21.0893 19.9844C21.0774 19.9952 21.0681 20.0085 21.062 20.0233C21.0559 20.0382 21.0532 20.0542 21.0541 20.0702C21.0551 20.0862 21.0595 20.1018 21.0673 20.1159C21.1028 20.2137 21.1264 20.317 21.1608 20.4148C21.201 20.5447 21.1949 20.6846 21.1436 20.8105C21.1339 20.8417 21.1049 20.8901 21.1146 20.8987C21.155 20.9461 21.2063 20.983 21.2641 21.0062C21.3834 21.0396 21.4157 21.0288 21.4576 20.8987C21.4962 20.7941 21.5731 20.708 21.6727 20.6578C21.7361 20.6191 21.8028 20.5836 21.8694 20.5503C22.0598 20.4557 22.0608 20.4568 22.0168 20.2503H22.2211C22.2211 20.2008 22.2211 20.1481 22.2211 20.0955C22.2231 20.0712 22.2267 20.0472 22.2318 20.0234C22.2555 20.0234 22.2877 20.0234 22.3028 20.0385C22.4411 20.1675 22.5773 20.299 22.7114 20.4331C22.7286 20.4514 22.7232 20.4912 22.7297 20.5277L22.4953 20.5159L22.5071 20.7159C22.4856 20.7245 22.4781 20.732 22.4727 20.7299C22.2899 20.6826 22.291 20.6836 22.2049 20.8578C22.1691 20.9438 22.1229 21.0251 22.0673 21.0998C21.991 21.181 21.9071 21.2548 21.8168 21.3202C21.792 21.3407 21.7275 21.346 21.7286 21.3557C21.7293 21.4205 21.7406 21.4848 21.7619 21.546C21.806 21.6536 21.8985 21.6536 21.977 21.6009C22.0225 21.5761 22.0729 21.5613 22.1246 21.5576C22.1764 21.5539 22.2283 21.5613 22.277 21.5794C22.3684 21.6009 22.4576 21.6278 22.5458 21.6568C22.7254 21.7127 22.7254 21.7138 22.8555 21.503L22.963 21.6966L23.1179 21.5288C23.2028 21.5288 23.1985 21.5944 23.2007 21.6546C23.2222 22.1299 23.2157 22.1783 23.1211 22.2245L22.9716 22.0676L22.8243 22.2278C22.8093 22.2053 22.7957 22.182 22.7834 22.1579C22.7785 22.1379 22.7688 22.1194 22.7553 22.1039C22.7418 22.0884 22.7247 22.0763 22.7056 22.0686C22.6865 22.061 22.6659 22.058 22.6454 22.0598C22.6249 22.0617 22.6051 22.0684 22.5877 22.0794C22.5049 22.1127 22.4168 22.1342 22.3318 22.1611C22.2529 22.1915 22.1676 22.2015 22.0838 22.1903C21.9999 22.179 21.9203 22.1468 21.8522 22.0966C21.8329 22.1202 21.8168 22.1407 21.7995 22.159C21.6737 22.2955 21.6813 22.4084 21.8436 22.4643C21.9451 22.5018 22.0283 22.5769 22.0759 22.674C22.1211 22.7461 22.1608 22.8224 22.1996 22.8998C22.2845 23.073 22.2834 23.074 22.4834 23.017V23.2321C22.5404 23.2321 22.591 23.2224 22.6458 23.2224C22.6684 23.2224 22.7028 23.2224 22.7114 23.2418C22.7163 23.253 22.7182 23.2653 22.7171 23.2776C22.716 23.2898 22.7118 23.3015 22.7049 23.3117C22.5684 23.4482 22.4307 23.5848 22.2867 23.7138C22.2415 23.7547 22.2028 23.7343 22.2092 23.6654C22.2157 23.5966 22.2178 23.5579 22.2232 23.4988H21.9996C22.0114 23.4611 22.0168 23.4364 22.0264 23.4138C22.0348 23.3981 22.0396 23.3806 22.0404 23.3628C22.0413 23.345 22.0381 23.3272 22.0312 23.3107C22.0243 23.2943 22.0138 23.2795 22.0006 23.2676C21.9873 23.2557 21.9715 23.2469 21.9544 23.2418C21.8404 23.1859 21.7297 23.1246 21.6189 23.0633C21.5665 23.0336 21.5213 22.9927 21.4868 22.9434C21.4522 22.8941 21.429 22.8377 21.4189 22.7783C21.406 22.7203 21.2673 22.7074 21.1942 22.76C21.1565 22.788 21.1232 22.8224 21.078 22.8622C21.2243 23.0418 21.1856 23.2353 21.1189 23.431C21.1081 23.4622 21.0985 23.4945 21.0888 23.5267C21.0275 23.7214 21.0275 23.7214 21.2103 23.8343L21.0522 23.9837L21.2286 24.1504C20.9853 24.201 20.7342 24.201 20.4909 24.1504L20.6694 23.9805L20.507 23.8246C20.549 23.8031 20.5705 23.7902 20.5931 23.7805C20.6103 23.7758 20.6263 23.7673 20.6397 23.7555C20.6531 23.7436 20.6636 23.7289 20.6703 23.7123C20.6771 23.6958 20.68 23.6779 20.6787 23.6601C20.6774 23.6422 20.672 23.6249 20.663 23.6095C20.6307 23.5257 20.6092 23.4386 20.5812 23.3536C20.5486 23.2723 20.5369 23.1841 20.5472 23.0971C20.5575 23.0101 20.5896 22.9271 20.6404 22.8557C20.6088 22.8197 20.5726 22.7879 20.5328 22.7611C20.4857 22.7446 20.4371 22.7328 20.3877 22.7256C20.2995 22.7031 20.3221 22.7697 20.306 22.816C20.2578 22.9397 20.1638 23.0402 20.0436 23.0966C19.9748 23.1332 19.9059 23.1719 19.8361 23.2041C19.6672 23.288 19.6662 23.288 19.7285 23.4848H19.5135C19.5135 23.5439 19.5135 23.5999 19.5242 23.6558C19.535 23.7117 19.493 23.745 19.4489 23.7052C19.3049 23.5762 19.1661 23.4407 19.0296 23.3031C19.0135 23.2859 19.0199 23.2461 19.0156 23.216H19.2371L19.2285 23.0192C19.2522 23.0127 19.2597 23.0074 19.2661 23.0095C19.4425 23.0601 19.4403 23.059 19.521 22.902C19.5663 22.7997 19.6222 22.7024 19.6877 22.6117C19.7576 22.5391 19.8359 22.4752 19.921 22.4213C19.9468 22.403 20.007 22.3934 20.007 22.3837C20.0039 22.3191 19.9912 22.2553 19.9694 22.1944C19.9543 22.1557 19.9135 22.1278 19.8758 22.0869C19.6522 22.2665 19.4221 22.1633 19.1941 22.0869C19.007 22.0278 19.007 22.0267 18.8962 22.2331L18.7468 22.0503L18.5812 22.2235C18.5575 22.1868 18.5401 22.1465 18.5296 22.1041C18.4962 21.7267 18.5167 21.5665 18.6027 21.5127L18.7522 21.6751L18.9048 21.5105C18.9264 21.5503 18.9403 21.5718 18.95 21.5944C18.9548 21.6116 18.9634 21.6275 18.9752 21.6409C18.9869 21.6543 19.0016 21.6649 19.0181 21.6718C19.0345 21.6788 19.0523 21.6819 19.0701 21.6809C19.088 21.68 19.1053 21.6751 19.121 21.6665C19.2038 21.6342 19.2909 21.6106 19.3769 21.5858C19.6576 21.5052 19.6963 21.5632 19.8823 21.6396ZM20.8608 21.1449C20.6727 21.1494 20.4937 21.2268 20.3617 21.3609C20.2296 21.4949 20.1549 21.6751 20.1533 21.8632C20.1524 21.9575 20.1702 22.0509 20.2057 22.1382C20.2411 22.2255 20.2934 22.3049 20.3597 22.3719C20.426 22.4389 20.5049 22.4921 20.5918 22.5284C20.6787 22.5648 20.772 22.5836 20.8662 22.5837C21.0544 22.5838 21.2353 22.5109 21.3709 22.3804C21.5065 22.2498 21.5861 22.0718 21.5931 21.8837C21.5895 21.6894 21.511 21.5041 21.3739 21.3664C21.2368 21.2287 21.0518 21.1494 20.8576 21.1449H20.8608Z" fill="white"/>
<path d="M20.8738 21.3761C21.0014 21.3833 21.1214 21.4394 21.2087 21.5328C21.2961 21.6262 21.3441 21.7497 21.3427 21.8775C21.3413 22.0054 21.2906 22.1278 21.2013 22.2193C21.112 22.3107 20.9908 22.3642 20.863 22.3686C20.7959 22.371 20.729 22.3596 20.6664 22.3354C20.6039 22.3111 20.5468 22.2745 20.4988 22.2276C20.4508 22.1806 20.4127 22.1245 20.387 22.0625C20.3613 22.0005 20.3484 21.9339 20.3492 21.8668C20.3499 21.7996 20.3642 21.7334 20.3913 21.6719C20.4183 21.6105 20.4575 21.5552 20.5066 21.5093C20.5556 21.4635 20.6134 21.428 20.6765 21.4051C20.7396 21.3822 20.8067 21.3724 20.8738 21.3761ZM21.1426 21.874C21.143 21.8194 21.1272 21.7658 21.0972 21.7201C21.0672 21.6744 21.0243 21.6387 20.974 21.6174C20.9236 21.5961 20.8681 21.5902 20.8144 21.6004C20.7607 21.6107 20.7113 21.6366 20.6724 21.6749C20.6334 21.7133 20.6067 21.7623 20.5956 21.8158C20.5845 21.8694 20.5896 21.925 20.6101 21.9756C20.6306 22.0263 20.6657 22.0697 20.7109 22.1004C20.7561 22.1312 20.8094 22.1478 20.8641 22.1482C20.9011 22.1496 20.938 22.1433 20.9725 22.1297C21.007 22.1161 21.0383 22.0955 21.0644 22.0693C21.0906 22.043 21.111 22.0117 21.1245 21.9771C21.1379 21.9426 21.1441 21.9057 21.1426 21.8686V21.874Z" fill="white"/>
<path d="M23.1469 11.5329C23.1469 10.9253 23.1469 10.3178 23.1469 9.71024C23.1553 9.57805 23.1337 9.44569 23.0838 9.323C23.0339 9.20031 22.957 9.09046 22.8588 9.00162C22.5995 8.77583 22.3143 8.58163 22.0093 8.42311C21.1361 8.00589 20.1942 7.82201 19.2447 7.6704C17.92 7.46185 16.5822 7.34794 15.2413 7.32953C14.4198 7.31555 13.5972 7.35533 12.7757 7.39189C12.0563 7.42308 11.3402 7.48007 10.6251 7.57362C10.7509 7.81755 10.8515 8.07374 10.9251 8.33816C12.0044 8.16627 13.0957 8.08033 14.1886 8.08116C15.8521 8.08116 17.0812 8.13707 18.2984 8.33385C19.2124 8.48117 20.1189 8.66827 20.9641 9.06828C21.1268 9.14449 21.2804 9.23862 21.4222 9.34894C21.6759 9.54787 21.6856 9.76078 21.4114 9.9339C21.0944 10.1404 20.7549 10.3104 20.3996 10.4404C19.2845 10.8296 18.1242 10.9984 16.9511 11.106C15.7711 11.2081 14.5857 11.2318 13.4026 11.1769C13.4026 11.192 13.4026 11.206 13.4026 11.22C13.4062 11.5658 13.3408 11.9088 13.2103 12.229C13.0798 12.5493 12.8867 12.8403 12.6424 13.0851C12.3982 13.3299 12.1075 13.5235 11.7876 13.6547C11.4676 13.7859 11.1247 13.8519 10.7789 13.8491H7.41748C7.49275 13.8878 7.5691 13.9254 7.64652 13.9566C8.19652 14.2055 8.77147 14.3951 9.36162 14.5222C10.7498 14.834 12.2026 14.9641 13.623 15.0179C13.9456 15.0308 14.2682 15.0376 14.5908 15.0383C15.7316 15.0409 16.8715 14.9723 18.0038 14.833C19.363 14.6652 20.7748 14.4222 21.9985 13.7749C22.3469 13.5899 22.6835 13.3598 22.9018 13.0318C23.2158 12.5716 23.1459 12.0576 23.1469 11.5329Z" fill="white"/>
<path d="M17.9994 10.2381C18.5585 10.0682 18.8413 9.87146 18.8446 9.65532C18.8446 9.53596 18.3639 9.46392 17.9596 9.52413C17.3413 9.61553 16.7338 9.71124 16.1434 9.81124C15.7488 9.87898 15.8101 9.99727 16.2359 10.0543L16.7735 10.1231C16.7058 10.1424 16.666 10.1575 16.6166 10.1682C15.6709 10.3387 14.7066 10.3803 13.7498 10.2919C13.5563 10.2758 13.3778 10.2543 13.2122 10.2306C13.2575 10.3386 13.2952 10.4496 13.3251 10.5629C14.9359 10.7027 16.8305 10.5951 17.9994 10.2381Z" fill="white"/>
<path d="M13.1733 9.22527L12.6077 9.15215C12.74 9.13387 12.8013 9.12849 12.8486 9.11881C14.1572 8.85751 16.025 8.90375 17.0724 9.23494C17.3676 9.3214 17.6784 9.34087 17.9821 9.29193C18.2831 9.24139 18.3143 9.14784 18.0455 9.06289C17.3121 8.83206 16.3379 8.70124 15.1228 8.67041C14.083 8.63379 13.0423 8.71168 12.0195 8.90268C12.3181 9.06931 12.5829 9.29032 12.8002 9.55431C12.9475 9.53065 13.097 9.50807 13.2432 9.48334C13.7196 9.40914 13.6819 9.28871 13.1733 9.22527Z" fill="white"/>
<path d="M10.948 9.53382C10.6877 8.31335 9.57265 7.38322 8.19842 7.38322C7.69727 7.37456 7.2034 7.50402 6.77095 7.75742C6.3385 8.01083 5.98415 8.37839 5.74674 8.81982C4.59509 8.96391 3.74023 9.86178 3.74023 10.9704C3.74023 12.1532 4.74349 13.121 5.96933 13.121H10.7985C11.8394 13.121 12.6566 12.3307 12.6566 11.3242C12.6566 10.3962 11.8759 9.60586 10.948 9.53382ZM8.94145 10.6091V12.0468H7.45539V10.6113H6.3403L8.19842 8.81552L10.0555 10.6113L8.94145 10.6091Z" fill="white"/>
<path d="M4.98633 39.9395H1.48242V42.5645H5.57812V43.748H0V35.2168H5.53711V36.4121H1.48242V38.7676H4.98633V39.9395Z" fill="#FC6011"/>
<path d="M14.2688 37.4082L14.3098 38.1406C14.7785 37.5742 15.3937 37.291 16.1555 37.291C17.4758 37.291 18.1477 38.0469 18.1711 39.5586V43.748H16.7473V39.6406C16.7473 39.2383 16.6594 38.9414 16.4836 38.75C16.3117 38.5547 16.0285 38.457 15.634 38.457C15.0598 38.457 14.632 38.7168 14.3508 39.2363V43.748H12.927V37.4082H14.2688Z" fill="#FC6011"/>
<path d="M27.7113 35.8672V37.4082H28.8305V38.4629H27.7113V42.002C27.7113 42.2441 27.7582 42.4199 27.852 42.5293C27.9496 42.6348 28.1215 42.6875 28.3676 42.6875C28.5316 42.6875 28.6977 42.668 28.8656 42.6289V43.7305C28.5414 43.8203 28.2289 43.8652 27.9281 43.8652C26.8344 43.8652 26.2875 43.2617 26.2875 42.0547V38.4629H25.2445V37.4082H26.2875V35.8672H27.7113Z" fill="#FC6011"/>
<path d="M39.0152 43.8652C38.1129 43.8652 37.3805 43.582 36.818 43.0156C36.2594 42.4453 35.9801 41.6875 35.9801 40.7422V40.5664C35.9801 39.9336 36.1012 39.3691 36.3434 38.873C36.5895 38.373 36.9332 37.9844 37.3746 37.707C37.816 37.4297 38.3082 37.291 38.8512 37.291C39.7145 37.291 40.3805 37.5664 40.8492 38.1172C41.3219 38.668 41.5582 39.4473 41.5582 40.4551V41.0293H37.4156C37.4586 41.5527 37.6324 41.9668 37.9371 42.2715C38.2457 42.5762 38.6324 42.7285 39.0973 42.7285C39.7496 42.7285 40.2809 42.4648 40.691 41.9375L41.4586 42.6699C41.2047 43.0488 40.8648 43.3438 40.4391 43.5547C40.0172 43.7617 39.5426 43.8652 39.0152 43.8652ZM38.8453 38.4336C38.4547 38.4336 38.1383 38.5703 37.8961 38.8438C37.6578 39.1172 37.5055 39.498 37.4391 39.9863H40.152V39.8809C40.1207 39.4043 39.9938 39.0449 39.7711 38.8027C39.5484 38.5566 39.2398 38.4336 38.8453 38.4336Z" fill="#FC6011"/>
<path d="M52.2879 38.709C52.1004 38.6777 51.907 38.6621 51.7078 38.6621C51.0555 38.6621 50.616 38.9121 50.3895 39.4121V43.748H48.9656V37.4082H50.325L50.3602 38.1172C50.7039 37.5664 51.1805 37.291 51.7898 37.291C51.993 37.291 52.1609 37.3184 52.2938 37.373L52.2879 38.709Z" fill="#FC6011"/>
<path d="M65.0391 40.6426C65.0391 41.623 64.8164 42.4062 64.3711 42.9922C63.9258 43.5742 63.3281 43.8652 62.5781 43.8652C61.8828 43.8652 61.3262 43.6367 60.9082 43.1797V46.1855H59.4844V37.4082H60.7969L60.8555 38.0527C61.2734 37.5449 61.8418 37.291 62.5605 37.291C63.334 37.291 63.9395 37.5801 64.377 38.1582C64.8184 38.7324 65.0391 39.5312 65.0391 40.5547V40.6426ZM63.6211 40.5195C63.6211 39.8867 63.4941 39.3848 63.2402 39.0137C62.9902 38.6426 62.6309 38.457 62.1621 38.457C61.5801 38.457 61.1621 38.6973 60.9082 39.1777V41.9902C61.166 42.4824 61.5879 42.7285 62.1738 42.7285C62.627 42.7285 62.9805 42.5469 63.2344 42.1836C63.4922 41.8164 63.6211 41.2617 63.6211 40.5195Z" fill="#FC6011"/>
<path d="M75.8684 38.709C75.6809 38.6777 75.4875 38.6621 75.2883 38.6621C74.6359 38.6621 74.1965 38.9121 73.9699 39.4121V43.748H72.5461V37.4082H73.9055L73.9406 38.1172C74.2844 37.5664 74.7609 37.291 75.3703 37.291C75.5734 37.291 75.7414 37.3184 75.8742 37.373L75.8684 38.709Z" fill="#FC6011"/>
<path d="M84.5824 43.748H83.1586V37.4082H84.5824V43.748ZM83.0707 35.7617C83.0707 35.543 83.1391 35.3613 83.2758 35.2168C83.4164 35.0723 83.6156 35 83.8734 35C84.1312 35 84.3305 35.0723 84.4711 35.2168C84.6117 35.3613 84.682 35.543 84.682 35.7617C84.682 35.9766 84.6117 36.1562 84.4711 36.3008C84.3305 36.4414 84.1312 36.5117 83.8734 36.5117C83.6156 36.5117 83.4164 36.4414 83.2758 36.3008C83.1391 36.1562 83.0707 35.9766 83.0707 35.7617Z" fill="#FC6011"/>
<path d="M95.9918 42.0254C95.9918 41.7715 95.8863 41.5781 95.6754 41.4453C95.4684 41.3125 95.1227 41.1953 94.6383 41.0938C94.1539 40.9922 93.7496 40.8633 93.4254 40.707C92.7145 40.3633 92.359 39.8652 92.359 39.2129C92.359 38.666 92.5895 38.209 93.0504 37.8418C93.5113 37.4746 94.0973 37.291 94.8082 37.291C95.566 37.291 96.1773 37.4785 96.6422 37.8535C97.1109 38.2285 97.3453 38.7148 97.3453 39.3125H95.9215C95.9215 39.0391 95.8199 38.8125 95.6168 38.6328C95.4137 38.4492 95.1441 38.3574 94.8082 38.3574C94.4957 38.3574 94.2398 38.4297 94.0406 38.5742C93.8453 38.7188 93.7477 38.9121 93.7477 39.1543C93.7477 39.373 93.8395 39.543 94.023 39.6641C94.2066 39.7852 94.5777 39.9082 95.1363 40.0332C95.6949 40.1543 96.1324 40.3008 96.4488 40.4727C96.7691 40.6406 97.0055 40.8438 97.1578 41.082C97.3141 41.3203 97.3922 41.6094 97.3922 41.9492C97.3922 42.5195 97.1559 42.9824 96.6832 43.3379C96.2105 43.6895 95.5914 43.8652 94.8258 43.8652C94.3063 43.8652 93.8434 43.7715 93.4371 43.584C93.0309 43.3965 92.7145 43.1387 92.4879 42.8105C92.2613 42.4824 92.148 42.1289 92.148 41.75H93.5309C93.5504 42.0859 93.6773 42.3457 93.9117 42.5293C94.1461 42.709 94.4566 42.7988 94.8434 42.7988C95.2184 42.7988 95.5035 42.7285 95.6988 42.5879C95.8941 42.4434 95.9918 42.2559 95.9918 42.0254Z" fill="#FC6011"/>
<path d="M107.729 43.8652C106.827 43.8652 106.095 43.582 105.532 43.0156C104.973 42.4453 104.694 41.6875 104.694 40.7422V40.5664C104.694 39.9336 104.815 39.3691 105.057 38.873C105.304 38.373 105.647 37.9844 106.089 37.707C106.53 37.4297 107.022 37.291 107.565 37.291C108.429 37.291 109.095 37.5664 109.563 38.1172C110.036 38.668 110.272 39.4473 110.272 40.4551V41.0293H106.13C106.173 41.5527 106.346 41.9668 106.651 42.2715C106.96 42.5762 107.346 42.7285 107.811 42.7285C108.464 42.7285 108.995 42.4648 109.405 41.9375L110.173 42.6699C109.919 43.0488 109.579 43.3438 109.153 43.5547C108.731 43.7617 108.257 43.8652 107.729 43.8652ZM107.559 38.4336C107.169 38.4336 106.852 38.5703 106.61 38.8438C106.372 39.1172 106.22 39.498 106.153 39.9863H108.866V39.8809C108.835 39.4043 108.708 39.0449 108.485 38.8027C108.263 38.5566 107.954 38.4336 107.559 38.4336Z" fill="#FC6011"/>
</g>
<defs>
<clipPath id="clip0">
<rect width="110" height="46" fill="white"/>
</clipPath>
</defs>
</svg>
