<svg width="110" height="46" viewBox="0 0 110 46" fill="none" xmlns="http://www.w3.org/2000/svg">
<path d="M41.9264 26.345C39.1489 26.3442 36.4187 25.6248 34.0015 24.2567L35.6897 20.7857C37.9629 22.2599 39.4059 22.69 41.8942 22.69C44.0749 22.69 45.6717 21.9835 45.6717 19.8942C45.6717 15.2866 34.5531 19.1878 34.5531 10.0015C34.5531 6.03903 37.9005 4.22607 42.0479 4.22607C45.0889 4.22607 47.576 4.9648 49.5116 5.91644L48.0674 9.3574C46.2095 8.38475 44.1429 7.87879 42.0458 7.88316C40.264 7.88316 38.8812 8.55845 38.8812 10.0026C38.8812 15.2242 50.0008 10.923 50.0008 19.7695C50.0008 24.7481 46.376 26.345 41.9264 26.345Z" fill="#5E2DEA"/>
<path d="M51.8706 14.335V10.679H53.9287V5.76489H58.26V10.679H62.0677V14.335H58.26V20.3857C58.26 22.0761 58.7815 22.6901 59.8568 22.6901C60.4095 22.6901 61.0547 22.5051 61.7612 22.0761L62.6515 25.5461C61.3924 26.0687 60.2257 26.345 59.0579 26.345C55.8643 26.345 53.9287 24.7794 53.9287 20.632V14.335H51.8706Z" fill="#5E2DEA"/>
<path d="M73.8997 26.0385C73.7301 25.5528 73.6271 25.0464 73.5932 24.5331C72.5491 25.7611 71.0437 26.3449 69.5383 26.3449C66.2522 26.3449 64.4392 24.5944 64.4392 21.3986C64.4392 17.6823 67.3576 16.7608 70.8286 16.7608C71.754 16.7679 72.6778 16.8397 73.5932 16.9759V15.8404C73.5932 14.5812 72.7943 14.0285 71.6276 14.0285C70.5835 14.0285 69.9996 14.6113 69.8146 15.3801L65.1156 14.8263C65.607 12.0306 68.3415 10.3735 71.6577 10.3735C75.0986 10.3735 77.9234 12.0628 77.9234 15.6866V20.6007C77.9234 22.6287 77.9847 24.2567 78.2622 26.0385H73.8997ZM71.6889 19.7716C69.9383 19.7716 68.7705 20.1405 68.7705 21.4308C68.7705 22.2911 69.4157 22.69 70.3985 22.69C72.119 22.69 73.5932 21.4921 73.5932 19.7716H71.6889Z" fill="#5E2DEA"/>
<path d="M91.4659 15.1952C89.9927 14.3962 88.455 14.0285 87.3195 14.0285C86.3066 14.0285 85.6302 14.3349 85.6302 14.9801C85.6302 16.9156 93.4627 15.9941 93.4627 21.2459C93.4627 24.8707 90.6981 26.3449 87.0743 26.3449C84.3409 26.3449 82.1602 25.5772 80.6226 24.318L82.6194 21.0007C84.2474 22.1061 85.6915 22.69 87.1045 22.69C88.0561 22.69 89.1303 22.5663 89.1303 21.5534C89.1303 19.2501 81.2989 20.6932 81.2989 14.9801C81.2989 11.6639 84.2474 10.3735 87.4722 10.3735C89.469 10.3735 91.5583 10.8649 93.0638 11.694L91.4659 15.1952Z" fill="#5E2DEA"/>
<path d="M100.155 26.345H95.8237V3.92285H100.155V12.4306C101.322 11.2327 102.612 10.68 104.424 10.68C107.496 10.68 109.308 12.5543 109.308 16.4866V26.346H104.977V16.578C104.977 15.0103 104.116 14.335 102.826 14.335C101.228 14.335 100.154 15.6866 100.154 19.1577L100.155 26.345Z" fill="#5E2DEA"/>
<path d="M14.4649 0.19918L3.77863 5.34556C3.50656 5.47645 3.26751 5.66703 3.07929 5.9031C2.89107 6.13917 2.75852 6.41465 2.6915 6.70904L0.0516422 18.2728C-0.01666 18.5679 -0.0172168 18.8747 0.0500146 19.1701C0.117246 19.4654 0.250518 19.7417 0.439825 19.9782L7.83895 29.2473C8.02772 29.4824 8.2669 29.6721 8.53882 29.8024C8.81073 29.9327 9.10845 30.0002 9.40996 30H21.2673C21.5688 30.0004 21.8666 29.933 22.1386 29.8027C22.4105 29.6724 22.6497 29.4826 22.8383 29.2473L30.2342 19.9782C30.4227 19.7423 30.5555 19.467 30.6227 19.1726C30.6899 18.8782 30.6898 18.5725 30.6224 18.2782L27.9825 6.70904C27.9155 6.41465 27.7829 6.13917 27.5947 5.9031C27.4065 5.66703 27.1675 5.47645 26.8954 5.34556L16.2091 0.19918C15.937 0.0680807 15.639 0 15.337 0C15.035 0 14.737 0.0680807 14.4649 0.19918Z" fill="#5E2DEA"/>
<path d="M6.10145 15.8813L6.11113 14.8447C6.09958 14.7126 6.12646 14.5801 6.18855 14.4629C6.36167 14.2017 6.64663 14.3554 6.85416 14.4629C7.15556 14.6187 7.46618 14.7558 7.7843 14.8737C8.41882 15.1029 9.07125 15.2792 9.73489 15.4006C10.0016 15.4522 10.2725 15.4974 10.5371 15.5393C12.4724 15.8351 14.434 15.9209 16.3878 15.7952C17.6098 15.7316 18.8244 15.5665 20.019 15.3017C20.8954 15.1006 21.7524 14.8393 22.5385 14.3845C22.861 14.2006 23.1385 14.3672 23.1428 14.7425C23.1499 15.392 23.1499 16.0418 23.1428 16.692C23.1428 17.0437 22.8761 17.206 22.561 17.0619C21.5867 16.613 20.4948 16.4862 19.4435 16.6998C18.3923 16.9135 17.4364 17.4565 16.7146 18.2501C16.4162 18.5783 16.163 18.9451 15.9619 19.3405C15.9056 19.4765 15.8058 19.59 15.6781 19.6631C15.5678 19.7054 15.4495 19.7223 15.3318 19.7126C13.9012 19.7241 12.4714 19.6397 11.0521 19.4599C10.8844 19.4373 10.7156 19.4136 10.5467 19.3867C9.40799 19.2125 8.2628 18.9566 7.2488 18.419C6.94791 18.2706 6.67704 18.0679 6.44985 17.8211C6.10038 17.4136 6.09177 16.9394 6.09608 16.4297L6.10145 15.8813Z" fill="white"/>
<path d="M14.0225 24.3687C12.5988 24.2999 11.1837 24.2042 9.78586 23.8956C8.80734 23.6805 7.71054 23.4407 6.88256 22.8429C6.46319 22.5396 6.09544 22.1149 6.10189 21.5686C6.11049 20.8428 6.10189 20.117 6.10189 19.3901C6.10189 19.0288 6.38899 18.8524 6.70191 19.0256C7.74817 19.6116 8.88906 19.8933 10.0547 20.1062C11.673 20.3998 13.3053 20.4912 14.9451 20.4998C15.1204 20.4998 15.3258 20.5278 15.3989 20.7095C15.4903 20.9353 15.3925 21.2471 15.3828 21.4805C15.3581 22.1494 15.4697 22.8163 15.7108 23.4407C15.786 23.6321 15.8774 23.8461 15.8602 24.0558C15.8387 24.3139 15.6097 24.387 15.386 24.3924C14.9355 24.4042 14.4795 24.387 14.0225 24.3687Z" fill="white"/>
<path d="M17.491 21.8631C17.491 20.0351 19.0028 18.548 20.8674 18.5437C22.7158 18.5437 24.2406 20.0362 24.2406 21.8545C24.226 22.7392 23.8646 23.5828 23.2342 24.2036C22.6038 24.8245 21.7548 25.173 20.87 25.1741C19.9852 25.1752 19.1354 24.8289 18.5034 24.2097C17.8714 23.5904 17.5078 22.7478 17.491 21.8631ZM20.8674 19.3437C20.3697 19.3514 19.8854 19.5059 19.4753 19.788C19.0652 20.0701 18.7476 20.4671 18.5625 20.9291C18.3773 21.3911 18.3329 21.8976 18.4347 22.3848C18.5366 22.872 18.7801 23.3182 19.1348 23.6674C19.4895 24.0166 19.9395 24.2532 20.4283 24.3474C20.917 24.4416 21.4227 24.3892 21.8818 24.1969C22.3409 24.0045 22.7328 23.6808 23.0085 23.2663C23.2841 22.8519 23.4311 22.3652 23.4309 21.8674C23.4238 21.1934 23.1502 20.5496 22.6698 20.0767C22.1895 19.6038 21.5415 19.3403 20.8674 19.3437Z" fill="white"/>
<path d="M20.5278 18.3245L20.6504 18.2353L20.5601 18.1568C20.6154 18.121 20.6565 18.067 20.6761 18.0042C20.6957 17.9413 20.6927 17.8736 20.6676 17.8127C20.6386 17.7127 20.5988 17.6159 20.5655 17.517C20.5382 17.4531 20.5308 17.3826 20.5442 17.3145C20.5576 17.2464 20.5913 17.1839 20.6407 17.1352C20.6947 17.0917 20.7603 17.0649 20.8293 17.0584C20.8984 17.0519 20.9678 17.0659 21.0289 17.0987C21.1784 17.175 21.2268 17.3546 21.1504 17.5492C21.1171 17.6353 21.0838 17.7224 21.059 17.8116C21.0331 17.8727 21.0297 17.941 21.0494 18.0044C21.0691 18.0678 21.1106 18.1222 21.1666 18.1578L21.0762 18.2299L21.2192 18.346H20.5278V18.3245Z" fill="white"/>
<path d="M20.5587 25.5783L20.649 25.5052L20.5071 25.3901H21.2265L21.0845 25.4977L21.1716 25.5751C21.116 25.6105 21.0747 25.6645 21.055 25.7275C21.0353 25.7905 21.0385 25.8584 21.0641 25.9192C21.091 26.016 21.1297 26.1095 21.163 26.2031C21.2004 26.2663 21.215 26.3404 21.2046 26.4131C21.1942 26.4858 21.1592 26.5527 21.1056 26.6029C21.0519 26.653 20.9827 26.6834 20.9095 26.6889C20.8363 26.6944 20.7633 26.6747 20.7028 26.6332C20.5522 26.5568 20.5049 26.3762 20.5813 26.1826C20.6146 26.0966 20.6479 26.0095 20.6737 25.9203C20.6978 25.8588 20.6995 25.7909 20.6784 25.7283C20.6574 25.6658 20.615 25.6127 20.5587 25.5783Z" fill="white"/>
<path d="M18.0224 24.2719L18.1363 24.2891L18.1299 24.1719L18.56 24.6289L18.5923 24.602L18.4514 24.5912L18.4579 24.6934C18.4579 24.6934 18.4471 24.7041 18.4428 24.7031C18.3835 24.6913 18.3219 24.6998 18.2679 24.727C18.214 24.7543 18.1707 24.7989 18.1449 24.8536C18.0964 24.9414 18.053 25.0318 18.0148 25.1246C17.9385 25.2923 17.8051 25.3837 17.6621 25.3633C17.5856 25.3532 17.5147 25.3177 17.4607 25.2626C17.4067 25.2074 17.3727 25.1357 17.3643 25.059C17.3471 24.9192 17.4438 24.7859 17.6127 24.7117C17.6986 24.6768 17.7826 24.6373 17.8643 24.5934C17.9237 24.5663 17.9719 24.5195 18.0007 24.4609C18.0295 24.4023 18.0372 24.3355 18.0224 24.2719Z" fill="white"/>
<path d="M23.2728 24.7096L23.2836 24.5913L23.176 24.6031L23.5986 24.1396V24.2794L23.7061 24.273C23.7061 24.2794 23.7158 24.2859 23.7148 24.2913C23.7023 24.3484 23.7095 24.4081 23.7353 24.4606C23.7611 24.5132 23.8039 24.5554 23.8567 24.5805C23.9472 24.632 24.0409 24.6777 24.1373 24.7171C24.209 24.7411 24.2704 24.7888 24.3113 24.8524C24.3522 24.916 24.3702 24.9917 24.3623 25.0668C24.3544 25.142 24.3211 25.2123 24.2679 25.266C24.2147 25.3197 24.1447 25.3537 24.0696 25.3623C23.9927 25.3642 23.9173 25.3412 23.8546 25.2966C23.792 25.252 23.7456 25.1882 23.7223 25.1149C23.6879 25.0288 23.6484 24.9448 23.604 24.8633C23.5762 24.8024 23.5276 24.7534 23.4668 24.7252C23.4061 24.697 23.3373 24.6915 23.2728 24.7096Z" fill="white"/>
<path d="M23.1423 19.1265L23.2767 19.1426V19.0276C23.452 19.062 23.5488 18.9598 23.6219 18.8244C23.6768 18.7233 23.7144 18.6093 23.7757 18.5147C23.8084 18.4549 23.8612 18.4084 23.9246 18.3835C23.9881 18.3585 24.0583 18.3566 24.123 18.3781C24.1912 18.399 24.2514 18.4401 24.2958 18.496C24.3401 18.5519 24.3665 18.6199 24.3714 18.691C24.3674 18.7634 24.3417 18.833 24.2976 18.8905C24.2535 18.9481 24.193 18.991 24.1241 19.0136C24.0553 19.0437 23.9854 19.0695 23.9198 19.1039C23.7789 19.1771 23.6735 19.276 23.7047 19.4566L23.5897 19.447L23.6015 19.5545L23.1714 19.091L23.1423 19.1265Z" fill="white"/>
<path d="M18.4586 19.0276L18.45 19.1351L18.5866 19.1212L18.5672 19.1029L18.1306 19.5857L18.1392 19.4513H18.0253C18.0597 19.2814 17.9629 19.1835 17.8317 19.1115C17.7242 19.0545 17.6167 19.0158 17.5091 18.9523C17.4508 18.9208 17.4052 18.87 17.3799 18.8087C17.3546 18.7474 17.3513 18.6793 17.3704 18.6158C17.3893 18.547 17.4286 18.4856 17.4831 18.4397C17.5376 18.3939 17.6048 18.3656 17.6758 18.3588C17.8145 18.3459 17.9446 18.4459 18.0177 18.6158C18.0537 18.7055 18.0961 18.7924 18.1446 18.876C18.1722 18.933 18.2182 18.979 18.2752 19.0065C18.3322 19.034 18.3968 19.0415 18.4586 19.0276Z" fill="white"/>
<path d="M24.5708 22.1858C24.5396 22.1073 24.5052 22.0589 24.4353 22.1535V21.5976L24.5106 21.6449L24.5762 21.5621C24.6676 21.7008 24.7988 21.7105 24.9418 21.6696C25.0375 21.6417 25.1299 21.6008 25.2246 21.5696C25.2886 21.5426 25.3594 21.5361 25.4272 21.5511C25.4951 21.5662 25.5565 21.6019 25.6031 21.6535C25.6472 21.7076 25.6736 21.774 25.6788 21.8436C25.684 21.9132 25.6677 21.9827 25.6321 22.0428C25.5547 22.1858 25.3773 22.231 25.1891 22.1589C25.0958 22.1215 25.0007 22.0888 24.9041 22.0611C24.8428 22.0395 24.7758 22.0401 24.7148 22.0629C24.6539 22.0857 24.6029 22.1292 24.5708 22.1858Z" fill="white"/>
<path d="M17.1605 21.5524C17.1971 21.6233 17.225 21.6911 17.2971 21.5793V22.1373L17.2218 22.0911L17.1562 22.175C17.1207 22.1191 17.0665 22.0776 17.0033 22.0579C16.9401 22.0382 16.872 22.0416 16.811 22.0674C16.711 22.0954 16.6153 22.1352 16.5164 22.1685C16.4527 22.1956 16.3824 22.2032 16.3144 22.1901C16.2464 22.1771 16.1838 22.1441 16.1347 22.0954C16.0909 22.0416 16.064 21.976 16.0573 21.907C16.0506 21.8379 16.0644 21.7684 16.097 21.7072C16.1744 21.5556 16.3508 21.5083 16.5454 21.5836C16.6351 21.6199 16.7266 21.6515 16.8196 21.6782C16.8821 21.701 16.9507 21.7009 17.0132 21.6779C17.0756 21.6548 17.1278 21.6104 17.1605 21.5524Z" fill="white"/>
<path d="M19.8823 21.6395C19.9258 21.6127 19.961 21.5744 19.9839 21.5289C20.0069 21.4833 20.0168 21.4322 20.0124 21.3814C20.0124 21.3567 19.9877 21.3169 19.9683 21.3126C19.9036 21.2998 19.8426 21.2726 19.7898 21.2332C19.737 21.1938 19.6936 21.143 19.6629 21.0846C19.6221 21.0093 19.578 20.9351 19.5403 20.8588C19.45 20.6738 19.4511 20.6738 19.2446 20.7233V20.5158H19.0048C19.0178 20.4728 19.0188 20.4287 19.0403 20.4082C19.1661 20.2803 19.2963 20.1577 19.4264 20.0362C19.4446 20.019 19.4801 20.0211 19.507 20.0136C19.512 20.0409 19.5149 20.0686 19.5156 20.0964C19.5156 20.1426 19.5156 20.1889 19.5102 20.2416H19.7253C19.6823 20.4491 19.6834 20.447 19.8726 20.5416C19.9652 20.5809 20.0526 20.6315 20.1328 20.6921C20.2041 20.7628 20.2668 20.8414 20.3199 20.9265C20.3361 20.9491 20.3393 21.0061 20.3479 21.0061C20.4095 21.0116 20.4715 21.0036 20.5296 20.9825C20.6372 20.9287 20.6608 20.8749 20.5974 20.7577C20.5729 20.7099 20.5586 20.6575 20.5552 20.6038C20.5519 20.5502 20.5597 20.4964 20.578 20.4459C20.6 20.3475 20.6291 20.2508 20.6651 20.1566C20.7092 20.0491 20.6888 19.9771 20.5737 19.9416C20.5551 19.9318 20.5374 19.9203 20.521 19.9072L20.6888 19.7512L20.492 19.5932C20.7398 19.5396 20.9959 19.5371 21.2447 19.5856L21.063 19.7566L21.2253 19.9093L21.1307 19.9609C21.1153 19.9655 21.1012 19.9735 21.0893 19.9843C21.0774 19.995 21.0681 20.0083 21.062 20.0232C21.0559 20.038 21.0532 20.0541 21.0541 20.0701C21.0551 20.0861 21.0595 20.1017 21.0673 20.1158C21.1028 20.2136 21.1264 20.3168 21.1608 20.4147C21.201 20.5446 21.1949 20.6845 21.1436 20.8104C21.1339 20.8416 21.1049 20.89 21.1146 20.8986C21.155 20.946 21.2063 20.9828 21.2641 21.0061C21.3834 21.0394 21.4157 21.0287 21.4576 20.8986C21.4962 20.794 21.5731 20.7079 21.6727 20.6577C21.7361 20.619 21.8028 20.5835 21.8694 20.5502C22.0598 20.4556 22.0608 20.4566 22.0168 20.2502H22.2211C22.2211 20.2007 22.2211 20.148 22.2211 20.0953C22.2231 20.0711 22.2267 20.047 22.2318 20.0233C22.2555 20.0233 22.2877 20.0233 22.3028 20.0383C22.4411 20.1674 22.5773 20.2989 22.7114 20.433C22.7286 20.4513 22.7232 20.491 22.7297 20.5276L22.4953 20.5158L22.5071 20.7158C22.4856 20.7244 22.4781 20.7319 22.4727 20.7298C22.2899 20.6824 22.291 20.6835 22.2049 20.8577C22.1691 20.9437 22.1229 21.025 22.0673 21.0997C21.991 21.1809 21.9071 21.2547 21.8168 21.3201C21.792 21.3405 21.7275 21.3459 21.7286 21.3556C21.7293 21.4204 21.7406 21.4847 21.7619 21.5459C21.806 21.6534 21.8985 21.6534 21.977 21.6008C22.0225 21.576 22.0729 21.5612 22.1246 21.5575C22.1764 21.5538 22.2283 21.5612 22.277 21.5792C22.3684 21.6008 22.4576 21.6276 22.5458 21.6567C22.7254 21.7126 22.7254 21.7137 22.8555 21.5029L22.963 21.6965L23.1179 21.5287C23.2028 21.5287 23.1985 21.5943 23.2007 21.6545C23.2222 22.1298 23.2157 22.1782 23.1211 22.2244L22.9716 22.0674L22.8243 22.2277C22.8093 22.2052 22.7957 22.1819 22.7834 22.1578C22.7785 22.1378 22.7688 22.1193 22.7553 22.1038C22.7418 22.0883 22.7247 22.0762 22.7056 22.0685C22.6865 22.0609 22.6659 22.0578 22.6454 22.0597C22.6249 22.0616 22.6051 22.0683 22.5877 22.0793C22.5049 22.1126 22.4168 22.1341 22.3318 22.161C22.2529 22.1914 22.1676 22.2014 22.0838 22.1902C21.9999 22.1789 21.9203 22.1467 21.8522 22.0965C21.8329 22.1201 21.8168 22.1406 21.7995 22.1588C21.6737 22.2954 21.6813 22.4083 21.8436 22.4642C21.9451 22.5017 22.0283 22.5768 22.0759 22.6739C22.1211 22.7459 22.1608 22.8223 22.1996 22.8997C22.2845 23.0728 22.2834 23.0739 22.4834 23.0169V23.232C22.5404 23.232 22.591 23.2223 22.6458 23.2223C22.6684 23.2223 22.7028 23.2223 22.7114 23.2417C22.7163 23.2529 22.7182 23.2652 22.7171 23.2774C22.716 23.2896 22.7118 23.3014 22.7049 23.3116C22.5684 23.4481 22.4307 23.5847 22.2867 23.7137C22.2415 23.7546 22.2028 23.7341 22.2092 23.6653C22.2157 23.5965 22.2178 23.5578 22.2232 23.4987H21.9996C22.0114 23.461 22.0168 23.4363 22.0264 23.4137C22.0348 23.3979 22.0396 23.3805 22.0404 23.3627C22.0413 23.3449 22.0381 23.3271 22.0312 23.3106C22.0243 23.2941 22.0138 23.2794 22.0006 23.2675C21.9873 23.2556 21.9715 23.2467 21.9544 23.2417C21.8404 23.1857 21.7297 23.1244 21.6189 23.0632C21.5665 23.0335 21.5213 22.9925 21.4868 22.9432C21.4522 22.894 21.429 22.8376 21.4189 22.7782C21.406 22.7201 21.2673 22.7072 21.1942 22.7599C21.1565 22.7879 21.1232 22.8223 21.078 22.8621C21.2243 23.0417 21.1856 23.2352 21.1189 23.4309C21.1081 23.4621 21.0985 23.4944 21.0888 23.5266C21.0275 23.7212 21.0275 23.7212 21.2103 23.8341L21.0522 23.9836L21.2286 24.1503C20.9853 24.2008 20.7342 24.2008 20.4909 24.1503L20.6694 23.9804L20.507 23.8245C20.549 23.803 20.5705 23.7901 20.5931 23.7804C20.6103 23.7757 20.6263 23.7672 20.6397 23.7553C20.6531 23.7435 20.6636 23.7287 20.6703 23.7122C20.6771 23.6957 20.68 23.6778 20.6787 23.6599C20.6774 23.6421 20.672 23.6248 20.663 23.6094C20.6307 23.5255 20.6092 23.4384 20.5812 23.3535C20.5486 23.2722 20.5369 23.184 20.5472 23.097C20.5575 23.01 20.5896 22.927 20.6404 22.8556C20.6088 22.8196 20.5726 22.7877 20.5328 22.761C20.4857 22.7445 20.4371 22.7326 20.3877 22.7255C20.2995 22.7029 20.3221 22.7696 20.306 22.8158C20.2578 22.9396 20.1638 23.0401 20.0436 23.0965C19.9748 23.1331 19.9059 23.1718 19.8361 23.204C19.6672 23.2879 19.6662 23.2879 19.7285 23.4847H19.5135C19.5135 23.5438 19.5135 23.5997 19.5242 23.6556C19.535 23.7116 19.493 23.7449 19.4489 23.7051C19.3049 23.5761 19.1661 23.4406 19.0296 23.303C19.0135 23.2857 19.0199 23.246 19.0156 23.2158H19.2371L19.2285 23.0191C19.2522 23.0126 19.2597 23.0072 19.2661 23.0094C19.4425 23.0599 19.4403 23.0589 19.521 22.9019C19.5663 22.7996 19.6222 22.7023 19.6877 22.6115C19.7576 22.539 19.8359 22.4751 19.921 22.4212C19.9468 22.4029 20.007 22.3932 20.007 22.3836C20.0039 22.319 19.9912 22.2552 19.9694 22.1943C19.9543 22.1556 19.9135 22.1276 19.8758 22.0868C19.6522 22.2664 19.4221 22.1631 19.1941 22.0868C19.007 22.0276 19.007 22.0266 18.8962 22.233L18.7468 22.0502L18.5812 22.2234C18.5575 22.1867 18.5401 22.1463 18.5296 22.104C18.4962 21.7266 18.5167 21.5663 18.6027 21.5126L18.7522 21.6749L18.9048 21.5104C18.9264 21.5502 18.9403 21.5717 18.95 21.5943C18.9548 21.6115 18.9634 21.6274 18.9752 21.6408C18.9869 21.6542 19.0016 21.6648 19.0181 21.6717C19.0345 21.6786 19.0523 21.6817 19.0701 21.6808C19.088 21.6799 19.1053 21.6749 19.121 21.6663C19.2038 21.6341 19.2909 21.6104 19.3769 21.5857C19.6576 21.5051 19.6963 21.5631 19.8823 21.6395ZM20.8608 21.1448C20.6727 21.1493 20.4937 21.2267 20.3617 21.3608C20.2296 21.4948 20.1549 21.675 20.1533 21.8631C20.1524 21.9573 20.1702 22.0508 20.2057 22.1381C20.2411 22.2254 20.2934 22.3048 20.3597 22.3718C20.426 22.4388 20.5049 22.492 20.5918 22.5283C20.6787 22.5647 20.772 22.5834 20.8662 22.5836C21.0544 22.5837 21.2353 22.5108 21.3709 22.3803C21.5065 22.2497 21.5861 22.0716 21.5931 21.8836C21.5895 21.6893 21.511 21.5039 21.3739 21.3663C21.2368 21.2286 21.0518 21.1492 20.8576 21.1448H20.8608Z" fill="white"/>
<path d="M20.8738 21.376C21.0014 21.3832 21.1214 21.4393 21.2087 21.5327C21.2961 21.6261 21.3441 21.7496 21.3427 21.8774C21.3413 22.0053 21.2906 22.1277 21.2013 22.2191C21.112 22.3106 20.9908 22.3641 20.863 22.3685C20.7959 22.3708 20.729 22.3595 20.6664 22.3353C20.6039 22.311 20.5468 22.2743 20.4988 22.2274C20.4508 22.1805 20.4127 22.1244 20.387 22.0624C20.3613 22.0004 20.3484 21.9338 20.3492 21.8666C20.3499 21.7995 20.3642 21.7332 20.3913 21.6718C20.4183 21.6104 20.4575 21.555 20.5066 21.5092C20.5556 21.4633 20.6134 21.4279 20.6765 21.405C20.7396 21.3821 20.8067 21.3723 20.8738 21.376ZM21.1426 21.8739C21.143 21.8192 21.1272 21.7657 21.0972 21.72C21.0672 21.6743 21.0243 21.6386 20.974 21.6173C20.9236 21.596 20.8681 21.59 20.8144 21.6003C20.7607 21.6105 20.7113 21.6365 20.6724 21.6748C20.6334 21.7132 20.6067 21.7622 20.5956 21.8157C20.5845 21.8692 20.5896 21.9249 20.6101 21.9755C20.6306 22.0262 20.6657 22.0696 20.7109 22.1003C20.7561 22.131 20.8094 22.1477 20.8641 22.1481C20.9011 22.1495 20.938 22.1431 20.9725 22.1296C21.007 22.116 21.0383 22.0954 21.0644 22.0692C21.0906 22.0429 21.111 22.0115 21.1245 21.977C21.1379 21.9425 21.1441 21.9055 21.1426 21.8685V21.8739Z" fill="white"/>
<path d="M23.1469 11.5329C23.1469 10.9253 23.1469 10.3178 23.1469 9.71024C23.1553 9.57805 23.1337 9.44569 23.0838 9.323C23.0339 9.20031 22.957 9.09046 22.8588 9.00162C22.5995 8.77583 22.3143 8.58163 22.0093 8.42311C21.1361 8.00589 20.1942 7.82201 19.2447 7.6704C17.92 7.46185 16.5822 7.34794 15.2413 7.32953C14.4198 7.31555 13.5972 7.35533 12.7757 7.39189C12.0563 7.42308 11.3402 7.48007 10.6251 7.57362C10.7509 7.81755 10.8515 8.07374 10.9251 8.33816C12.0044 8.16627 13.0957 8.08033 14.1886 8.08116C15.8521 8.08116 17.0812 8.13707 18.2984 8.33385C19.2124 8.48117 20.1189 8.66827 20.9641 9.06828C21.1268 9.14449 21.2804 9.23862 21.4222 9.34894C21.6759 9.54787 21.6856 9.76078 21.4114 9.9339C21.0944 10.1404 20.7549 10.3104 20.3996 10.4404C19.2845 10.8296 18.1242 10.9984 16.9511 11.106C15.7711 11.2081 14.5857 11.2318 13.4026 11.1769C13.4026 11.192 13.4026 11.206 13.4026 11.22C13.4062 11.5658 13.3408 11.9088 13.2103 12.229C13.0798 12.5493 12.8867 12.8403 12.6424 13.0851C12.3982 13.3299 12.1075 13.5235 11.7876 13.6547C11.4676 13.7859 11.1247 13.8519 10.7789 13.8491H7.41748C7.49275 13.8878 7.5691 13.9254 7.64652 13.9566C8.19652 14.2055 8.77147 14.3951 9.36162 14.5222C10.7498 14.834 12.2026 14.9641 13.623 15.0179C13.9456 15.0308 14.2682 15.0376 14.5908 15.0383C15.7316 15.0409 16.8715 14.9723 18.0038 14.833C19.363 14.6652 20.7748 14.4222 21.9985 13.7749C22.3469 13.5899 22.6835 13.3598 22.9018 13.0318C23.2158 12.5716 23.1459 12.0576 23.1469 11.5329Z" fill="white"/>
<path d="M17.9994 10.2381C18.5585 10.0682 18.8413 9.87146 18.8446 9.65532C18.8446 9.53596 18.3639 9.46392 17.9596 9.52413C17.3413 9.61553 16.7338 9.71124 16.1434 9.81124C15.7488 9.87898 15.8101 9.99727 16.2359 10.0543L16.7735 10.1231C16.7058 10.1424 16.666 10.1575 16.6166 10.1682C15.6709 10.3387 14.7066 10.3803 13.7498 10.2919C13.5563 10.2758 13.3778 10.2543 13.2122 10.2306C13.2575 10.3386 13.2952 10.4496 13.3251 10.5629C14.9359 10.7027 16.8305 10.5951 17.9994 10.2381Z" fill="white"/>
<path d="M13.1733 9.22527L12.6077 9.15215C12.74 9.13387 12.8013 9.12849 12.8486 9.11881C14.1572 8.85751 16.025 8.90375 17.0724 9.23494C17.3676 9.3214 17.6784 9.34087 17.9821 9.29193C18.2831 9.24139 18.3143 9.14784 18.0455 9.06289C17.3121 8.83206 16.3379 8.70124 15.1228 8.67041C14.083 8.63379 13.0423 8.71168 12.0195 8.90268C12.3181 9.06931 12.5829 9.29032 12.8002 9.55431C12.9475 9.53065 13.097 9.50807 13.2432 9.48334C13.7196 9.40914 13.6819 9.28871 13.1733 9.22527Z" fill="white"/>
<path d="M10.948 9.53382C10.6877 8.31335 9.57265 7.38322 8.19842 7.38322C7.69727 7.37456 7.2034 7.50402 6.77095 7.75742C6.3385 8.01083 5.98415 8.37839 5.74674 8.81982C4.59509 8.96391 3.74023 9.86178 3.74023 10.9704C3.74023 12.1532 4.74349 13.121 5.96933 13.121H10.7985C11.8394 13.121 12.6566 12.3307 12.6566 11.3242C12.6566 10.3962 11.8759 9.60586 10.948 9.53382ZM8.94145 10.6091V12.0468H7.45539V10.6113H6.3403L8.19842 8.81552L10.0555 10.6113L8.94145 10.6091Z" fill="white"/>
<path d="M6.7155 40.8078C6.63037 41.6931 6.29759 42.3846 5.71717 42.8824C5.13675 43.3763 4.36478 43.6233 3.40128 43.6233C2.72799 43.6233 2.13402 43.4675 1.61938 43.156C1.10861 42.8406 0.713921 42.3941 0.435318 41.8166C0.156714 41.239 0.0116085 40.5684 0 39.8047V39.0295C0 38.2468 0.141236 37.5572 0.423709 36.9606C0.706182 36.3641 1.11054 35.9043 1.63679 35.5813C2.16691 35.2584 2.77829 35.0969 3.47093 35.0969C4.40348 35.0969 5.15416 35.3458 5.72298 35.8435C6.29179 36.3413 6.62263 37.0442 6.7155 37.9523H5.25283C5.18318 37.3558 5.00519 36.9264 4.71884 36.6642C4.43637 36.3983 4.0204 36.2653 3.47093 36.2653C2.83247 36.2653 2.34104 36.4952 1.99666 36.9549C1.65614 37.4109 1.48201 38.0815 1.47428 38.9668V39.7021C1.47428 40.5988 1.63679 41.2827 1.96183 41.7539C2.29074 42.225 2.77055 42.4606 3.40128 42.4606C3.97784 42.4606 4.41122 42.3333 4.70143 42.0788C4.99164 41.8242 5.17544 41.4005 5.25283 40.8078H6.7155Z" fill="#00A651"/>
<path d="M13.8138 40.3689C13.8138 39.7648 13.9357 39.2214 14.1795 38.7389C14.4233 38.2525 14.7657 37.8801 15.2069 37.6218C15.648 37.3596 16.1549 37.2285 16.7276 37.2285C17.575 37.2285 18.2618 37.4964 18.7881 38.0321C19.3182 38.5679 19.6045 39.2784 19.6471 40.1637L19.6529 40.4886C19.6529 41.0965 19.533 41.6399 19.293 42.1187C19.057 42.5974 18.7165 42.9679 18.2715 43.2301C17.8304 43.4922 17.3196 43.6233 16.7392 43.6233C15.8531 43.6233 15.143 43.3345 14.609 42.757C14.0789 42.1756 13.8138 41.4024 13.8138 40.4373V40.3689ZM15.2243 40.4886C15.2243 41.1231 15.3578 41.6209 15.6248 41.9819C15.8918 42.339 16.2632 42.5176 16.7392 42.5176C17.2151 42.5176 17.5847 42.3352 17.8478 41.9705C18.1148 41.6057 18.2483 41.0718 18.2483 40.3689C18.2483 39.7458 18.1109 39.2518 17.8362 38.887C17.5653 38.5223 17.1958 38.3399 16.7276 38.3399C16.2671 38.3399 15.9014 38.5204 15.6306 38.8813C15.3597 39.2385 15.2243 39.7743 15.2243 40.4886Z" fill="#00A651"/>
<path d="M28.3532 37.3425L28.3939 37.9865C28.835 37.4812 29.4386 37.2285 30.2048 37.2285C31.0445 37.2285 31.6191 37.5439 31.9286 38.1746C32.3852 37.5439 33.0276 37.2285 33.8556 37.2285C34.5483 37.2285 35.0629 37.4166 35.3996 37.7927C35.7401 38.1689 35.9142 38.7237 35.9219 39.457V43.5093H34.5115V39.4969C34.5115 39.1055 34.4245 38.8187 34.2503 38.6363C34.0762 38.4539 33.7879 38.3627 33.3855 38.3627C33.0643 38.3627 32.8012 38.4482 32.5961 38.6192C32.3949 38.7864 32.2537 39.0067 32.1724 39.2803L32.1782 43.5093H30.7678V39.4513C30.7484 38.7256 30.3712 38.3627 29.636 38.3627C29.071 38.3627 28.6705 38.5888 28.4345 39.0409V43.5093H27.0241V37.3425H28.3532Z" fill="#00A651"/>
<path d="M44.8776 37.3425L44.9183 37.9865C45.3594 37.4812 45.963 37.2285 46.7292 37.2285C47.5689 37.2285 48.1435 37.5439 48.4531 38.1746C48.9097 37.5439 49.552 37.2285 50.3801 37.2285C51.0727 37.2285 51.5873 37.4166 51.924 37.7927C52.2645 38.1689 52.4386 38.7237 52.4464 39.457V43.5093H51.0359V39.4969C51.0359 39.1055 50.9489 38.8187 50.7748 38.6363C50.6006 38.4539 50.3123 38.3627 49.9099 38.3627C49.5888 38.3627 49.3256 38.4482 49.1205 38.6192C48.9193 38.7864 48.7781 39.0067 48.6968 39.2803L48.7026 43.5093H47.2922V39.4513C47.2729 38.7256 46.8956 38.3627 46.1604 38.3627C45.5954 38.3627 45.1949 38.5888 44.9589 39.0409V43.5093H43.5485V37.3425H44.8776Z" fill="#00A651"/>
<path d="M63.8805 42.9052C63.4664 43.3839 62.8783 43.6233 62.116 43.6233C61.435 43.6233 60.9184 43.4276 60.5663 43.0363C60.218 42.6449 60.0439 42.0788 60.0439 41.3378V37.3425H61.4543V41.3207C61.4543 42.1035 61.7852 42.4948 62.4468 42.4948C63.1317 42.4948 63.5941 42.2535 63.834 41.771V37.3425H65.2445V43.5093H63.9153L63.8805 42.9052Z" fill="#00A651"/>
<path d="M74.1712 37.3425L74.2118 38.0549C74.6761 37.504 75.2856 37.2285 76.0401 37.2285C77.348 37.2285 78.0136 37.9637 78.0368 39.4342V43.5093H76.6263V39.514C76.6263 39.1226 76.5393 38.8339 76.3652 38.6477C76.1949 38.4577 75.9144 38.3627 75.5235 38.3627C74.9547 38.3627 74.531 38.6154 74.2524 39.1207V43.5093H72.842V37.3425H74.1712Z" fill="#00A651"/>
<path d="M87.1608 43.5093H85.7504V37.3425H87.1608V43.5093ZM85.6633 35.7409C85.6633 35.5282 85.731 35.3515 85.8665 35.2109C86.0058 35.0703 86.2031 35 86.4585 35C86.7139 35 86.9112 35.0703 87.0505 35.2109C87.1898 35.3515 87.2595 35.5282 87.2595 35.7409C87.2595 35.9499 87.1898 36.1247 87.0505 36.2653C86.9112 36.4021 86.7139 36.4705 86.4585 36.4705C86.2031 36.4705 86.0058 36.4021 85.8665 36.2653C85.731 36.1247 85.6633 35.9499 85.6633 35.7409Z" fill="#00A651"/>
<path d="M96.6505 35.8435V37.3425H97.7591V38.3684H96.6505V41.8109C96.6505 42.0465 96.6969 42.2174 96.7898 42.3238C96.8865 42.4264 97.0568 42.4777 97.3006 42.4777C97.4631 42.4777 97.6275 42.4587 97.7939 42.4207V43.4922C97.4728 43.5796 97.1632 43.6233 96.8653 43.6233C95.7818 43.6233 95.2401 43.0363 95.2401 41.8622V38.3684H94.2069V37.3425H95.2401V35.8435H96.6505Z" fill="#00A651"/>
<path d="M107.22 41.5259L108.497 37.3425H110L107.504 44.444C107.121 45.4813 106.471 46 105.554 46C105.349 46 105.123 45.9658 104.875 45.8974V44.8259L105.142 44.843C105.498 44.843 105.765 44.7784 105.943 44.6492C106.125 44.5238 106.268 44.3111 106.372 44.0109L106.576 43.4808L104.37 37.3425H105.891L107.22 41.5259Z" fill="#00A651"/>
</svg>
