<svg xmlns="http://www.w3.org/2000/svg" width="110" height="46" fill="none" xmlns:v="https://vecta.io/nano"><path d="M41.926 26.345a16.1 16.1 0 0 1-7.925-2.088l1.688-3.471c2.273 1.474 3.716 1.904 6.204 1.904 2.181 0 3.778-.707 3.778-2.796 0-4.608-11.119-.706-11.119-9.893 0-3.962 3.347-5.775 7.495-5.775 3.041 0 5.528.739 7.464 1.69l-1.444 3.441c-1.858-.973-3.925-1.479-6.022-1.474-1.782 0-3.165.675-3.165 2.119 0 5.222 11.12.92 11.12 9.767 0 4.979-3.625 6.575-8.074 6.575zm9.945-12.01v-3.656h2.058V5.765h4.331v4.914h3.808v3.656H58.26v6.051c0 1.69.522 2.304 1.597 2.304.553 0 1.198-.185 1.904-.614l.89 3.47c-1.259.523-2.426.799-3.594.799-3.194 0-5.129-1.566-5.129-5.713v-6.297H51.87zM73.9 26.039c-.17-.486-.273-.992-.306-1.505-1.044 1.228-2.549 1.812-4.055 1.812-3.286 0-5.099-1.75-5.099-4.946 0-3.716 2.918-4.638 6.389-4.638a19.82 19.82 0 0 1 2.765.215V15.84c0-1.259-.799-1.812-1.966-1.812-1.044 0-1.628.583-1.813 1.352l-4.699-.554c.491-2.796 3.226-4.453 6.542-4.453 3.441 0 6.266 1.689 6.266 5.313V20.6c0 2.028.061 3.656.339 5.438H73.9zm-2.211-6.267c-1.751 0-2.918.369-2.918 1.659 0 .86.645 1.259 1.628 1.259 1.721 0 3.195-1.198 3.195-2.918H71.69zm19.777-4.577c-1.473-.799-3.011-1.167-4.146-1.167-1.013 0-1.689.306-1.689.952 0 1.936 7.832 1.014 7.832 6.266 0 3.625-2.765 5.099-6.388 5.099-2.733 0-4.914-.768-6.452-2.027l1.997-3.317c1.628 1.105 3.072 1.689 4.485 1.689.952 0 2.026-.124 2.026-1.137 0-2.303-7.831-.86-7.831-6.573 0-3.316 2.948-4.607 6.173-4.607 1.997 0 4.086.491 5.592 1.321l-1.598 3.501zm8.689 11.15h-4.331V3.923h4.331v8.508c1.167-1.198 2.457-1.751 4.269-1.751 3.072 0 4.884 1.874 4.884 5.807v9.859h-4.331v-9.768c0-1.568-.861-2.243-2.151-2.243-1.598 0-2.672 1.352-2.672 4.823l.001 7.187zM14.465.199L3.779 5.346a2.01 2.01 0 0 0-1.087 1.363L.052 18.273a2.01 2.01 0 0 0-.002.897c.067.295.201.572.39.808l7.399 9.269c.189.235.428.425.7.555A2.02 2.02 0 0 0 9.41 30h11.857a2.01 2.01 0 0 0 1.571-.753l7.396-9.269c.188-.236.321-.511.388-.806s.067-.6 0-.894l-2.64-11.569a2.01 2.01 0 0 0-1.087-1.364L16.209.199a2.01 2.01 0 0 0-1.744 0z" fill="#5e2dea"/><g fill="#fff"><path d="M6.101 15.881l.01-1.037c-.012-.132.015-.265.077-.382.173-.261.458-.107.666 0 .301.156.612.293.93.411a12.21 12.21 0 0 0 1.951.527l.802.139c1.935.296 3.897.382 5.851.256a22.2 22.2 0 0 0 3.631-.493c.876-.201 1.733-.462 2.52-.917.323-.184.6-.017.604.358v1.95c0 .352-.267.514-.582.37a5.05 5.05 0 0 0-5.846 1.188 4.97 4.97 0 0 0-.753 1.09.66.66 0 0 1-.284.323c-.11.042-.229.059-.346.049a31.9 31.9 0 0 1-4.28-.253l-.505-.073c-1.139-.174-2.284-.43-3.298-.968a2.71 2.71 0 0 1-.799-.598c-.349-.408-.358-.882-.354-1.391l.005-.548zm7.922 8.488c-1.424-.069-2.839-.165-4.237-.473-.979-.215-2.075-.455-2.903-1.053-.419-.303-.787-.728-.781-1.274V19.39c0-.361.287-.538.6-.364 1.046.586 2.187.868 3.353 1.081 1.618.294 3.251.385 4.89.394.175 0 .381.028.454.21.091.226-.006.538-.016.771a4.93 4.93 0 0 0 .328 1.96c.075.191.167.405.149.615-.022.258-.251.331-.474.337a20.68 20.68 0 0 1-1.363-.024zm3.468-2.506c0-1.828 1.512-3.315 3.376-3.319 1.848 0 3.373 1.492 3.373 3.311a3.38 3.38 0 0 1-1.006 2.349 3.37 3.37 0 0 1-2.364.97c-.885.001-1.735-.345-2.367-.964a3.37 3.37 0 0 1-1.012-2.347zm3.376-2.519c-.498.008-.982.162-1.392.444s-.728.679-.913 1.141-.23.969-.128 1.456a2.53 2.53 0 0 0 .7 1.283 2.52 2.52 0 0 0 2.747.529 2.53 2.53 0 0 0 1.127-.931c.276-.415.423-.901.422-1.399a2.55 2.55 0 0 0-2.564-2.524z"/><path d="M20.528 18.325l.123-.089-.09-.078c.055-.036.096-.09.116-.153s.017-.131-.009-.192c-.029-.1-.069-.197-.102-.296-.027-.064-.035-.134-.021-.203s.047-.131.096-.179.12-.07.189-.077.139.008.2.04c.149.076.198.256.122.45l-.091.262a.28.28 0 0 0 .108.346l-.09.072.143.116h-.691v-.021zm.031 7.253l.09-.073-.142-.115h.719l-.142.108.087.077a.28.28 0 0 0-.108.344c.027.097.066.19.099.284.037.063.052.137.042.21s-.045.14-.099.19-.123.08-.196.086a.32.32 0 0 1-.207-.056c-.151-.076-.198-.257-.122-.451l.092-.262a.28.28 0 0 0-.115-.342zm-2.537-1.306l.114.017-.006-.117.43.457.032-.027-.141-.011.006.102a.38.38 0 0 0-.19.034c-.054.028-.097.072-.123.127-.049.088-.092.178-.13.271-.076.168-.21.259-.353.239-.076-.01-.147-.046-.201-.101s-.088-.127-.096-.204c-.017-.14.079-.273.248-.347.086-.035.17-.074.252-.118a.28.28 0 0 0 .136-.133c.028-.059.037-.125.022-.189zm5.251.438l.011-.118-.108.012.423-.463v.14l.107-.006c0 .006.01.013.009.018-.012.057-.005.117.02.169a.26.26 0 0 0 .121.12c.09.052.184.097.281.137.072.024.133.072.174.135a.33.33 0 0 1 .051.214c-.008.075-.041.145-.094.199s-.123.088-.198.096c-.077.002-.152-.021-.215-.066a.35.35 0 0 1-.132-.182 2.4 2.4 0 0 0-.118-.252.28.28 0 0 0-.331-.154zm-.131-5.583l.134.016v-.115c.175.034.272-.068.345-.203.055-.101.093-.215.154-.31a.29.29 0 0 1 .347-.137c.068.021.128.062.173.118a.35.35 0 0 1 .076.195.36.36 0 0 1-.247.323l-.204.09c-.141.073-.246.172-.215.353l-.115-.01.012.108-.43-.463-.029.035z"/><path d="M18.459 19.028l-.009.108.137-.014-.019-.018-.437.483.009-.134h-.114c.034-.17-.062-.268-.194-.34l-.323-.159c-.058-.032-.104-.082-.129-.144s-.029-.129-.009-.193a.35.35 0 0 1 .113-.176c.055-.046.122-.074.193-.081.139-.013.269.087.342.257a2.01 2.01 0 0 0 .127.26.28.28 0 0 0 .314.152zm6.112 3.158c-.031-.079-.066-.127-.135-.032v-.556l.075.047.066-.083c.091.139.223.148.366.107.096-.028.188-.069.283-.1a.33.33 0 0 1 .203-.018c.068.016.129.051.176.102a.34.34 0 0 1 .029.389c-.077.143-.255.188-.443.116l-.285-.098c-.061-.022-.128-.021-.189.002s-.112.066-.144.123zm-7.41-.634c.037.071.065.139.137.027v.558l-.075-.046-.066.084a.28.28 0 0 0-.345-.108c-.1.028-.196.068-.295.101a.35.35 0 0 1-.202.022c-.068-.013-.131-.046-.18-.095s-.071-.119-.077-.188.007-.139.04-.2c.077-.152.254-.199.448-.124l.274.095a.28.28 0 0 0 .341-.126zm2.721.088a.28.28 0 0 0 .131-.259c0-.025-.025-.064-.044-.069a.44.44 0 0 1-.178-.079c-.053-.039-.096-.09-.127-.149l-.123-.226c-.09-.185-.089-.185-.296-.136v-.207h-.24c.013-.043.014-.087.035-.108l.386-.372c.018-.017.054-.015.081-.023a.57.57 0 0 1 .009.083l-.005.145h.215c-.043.208-.042.205.147.3.093.039.18.09.26.151.071.071.134.149.187.234.016.023.019.08.028.08.062.006.124-.003.182-.024.108-.054.131-.108.068-.225a.39.39 0 0 1-.042-.154c-.003-.054.005-.107.023-.158a2.09 2.09 0 0 1 .087-.289c.044-.108.024-.18-.091-.215-.019-.01-.036-.021-.053-.034l.168-.156-.197-.158a1.87 1.87 0 0 1 .753-.008l-.182.171.162.153-.095.052c-.015.005-.03.013-.041.023s-.021.024-.027.039-.009.031-.008.047.005.032.013.046l.093.299a.59.59 0 0 1-.017.396c-.01.031-.039.08-.029.088a.4.4 0 0 0 .149.108c.119.033.152.023.194-.108a.44.44 0 0 1 .215-.241l.197-.107c.19-.095.191-.094.147-.3h.204v-.155c.002-.024.006-.048.011-.072.024 0 .056 0 .071.015l.409.395c.017.018.012.058.018.095l-.234-.012.012.2c-.021.009-.029.016-.034.014-.183-.047-.182-.046-.268.128a1.14 1.14 0 0 1-.138.242 1.76 1.76 0 0 1-.25.22c-.025.02-.089.026-.088.035a.6.6 0 0 0 .033.19c.044.108.137.108.215.055a.35.35 0 0 1 .148-.043c.052-.003.104.004.152.022l.269.078c.18.056.18.057.31-.154l.108.194.155-.168c.085 0 .081.066.083.126.021.475.015.524-.08.57l-.149-.157-.147.16a.61.61 0 0 1-.041-.07c-.005-.02-.015-.039-.028-.054s-.031-.028-.05-.035a.13.13 0 0 0-.118.011c-.083.033-.171.055-.256.082a.51.51 0 0 1-.48-.065l-.053.062c-.126.137-.118.25.044.305a.42.42 0 0 1 .232.21 2.72 2.72 0 0 1 .124.226c.085.173.084.174.284.117v.215c.057 0 .108-.01.162-.01.023 0 .057 0 .066.019.005.011.007.023.006.036s-.005.024-.012.034l-.418.402c-.045.041-.084.02-.078-.048l.014-.167H22l.027-.085a.12.12 0 0 0 .005-.103.11.11 0 0 0-.031-.043.12.12 0 0 0-.046-.026l-.335-.179a.41.41 0 0 1-.132-.12c-.034-.049-.058-.106-.068-.165s-.152-.071-.225-.018c-.038.028-.071.062-.116.102.146.18.108.373.041.569l-.03.096c-.061.195-.061.195.122.308l-.158.149.176.167c-.243.05-.494.05-.738 0l.178-.17-.162-.156.086-.044c.017-.005.033-.013.047-.025s.024-.027.031-.043.01-.034.008-.052-.007-.035-.016-.05c-.032-.084-.054-.171-.082-.256s-.044-.169-.034-.256a.52.52 0 0 1 .093-.241c-.032-.036-.068-.068-.108-.095a.77.77 0 0 0-.145-.035c-.088-.023-.066.044-.082.09a.52.52 0 0 1-.262.281l-.208.108c-.169.084-.17.084-.108.281h-.215a.9.9 0 0 0 .011.171c.011.056-.031.089-.075.05l-.419-.402c-.016-.017-.01-.057-.014-.087h.222l-.009-.197c.024-.007.031-.012.038-.01.176.05.174.05.255-.107a1.61 1.61 0 0 1 .167-.29 1.26 1.26 0 0 1 .233-.19c.026-.018.086-.028.086-.038a.64.64 0 0 0-.038-.189c-.015-.039-.056-.067-.094-.107-.224.18-.454.076-.682 0-.187-.059-.187-.06-.298.146l-.149-.183-.166.173c-.024-.037-.041-.077-.052-.119-.033-.377-.013-.538.073-.591l.149.162.153-.165.045.084c.005.017.013.033.025.046s.026.024.043.031.034.01.052.009.035-.006.051-.015c.083-.032.17-.056.256-.081.281-.081.319-.023.505.054zm.979-.495c-.188.005-.367.082-.499.216a.72.72 0 0 0-.208.502.71.71 0 0 0 .052.275c.035.087.088.167.154.234a.72.72 0 0 0 .232.157.7.7 0 0 0 .274.055.73.73 0 0 0 .505-.203c.136-.13.215-.309.222-.497-.004-.194-.082-.38-.219-.517s-.322-.217-.516-.221h.003z"/><path d="M20.874 21.376c.128.007.248.063.335.157a.5.5 0 0 1 .134.345c-.001.128-.052.25-.141.342a.49.49 0 0 1-.338.149.5.5 0 0 1-.364-.141c-.048-.047-.086-.103-.112-.165a.49.49 0 0 1-.038-.196c.001-.067.015-.133.042-.195s.066-.117.115-.163.107-.081.17-.104a.5.5 0 0 1 .197-.029zm.269.498a.28.28 0 0 0-.168-.257c-.05-.022-.106-.027-.16-.017a.27.27 0 0 0-.142.075c-.039.039-.066.087-.077.141s-.006.109.014.16.056.094.101.125a.28.28 0 0 0 .153.048.27.27 0 0 0 .278-.28v.005zm2.004-10.341V9.71a.88.88 0 0 0-.288-.709c-.259-.226-.544-.42-.849-.579-.873-.417-1.815-.601-2.765-.753-1.325-.209-2.663-.322-4.003-.341-.822-.014-1.644.026-2.466.062l-2.151.182a4.02 4.02 0 0 1 .3.765 20.65 20.65 0 0 1 3.263-.257c1.664 0 2.893.056 4.11.253.914.147 1.82.334 2.666.734a2.41 2.41 0 0 1 .458.281c.254.199.263.412-.011.585a4.99 4.99 0 0 1-1.012.507c-1.115.389-2.275.558-3.448.666a26.77 26.77 0 0 1-3.549.071v.043a2.6 2.6 0 0 1-1.615 2.435c-.32.131-.663.197-1.009.194H7.417l.229.107a8.5 8.5 0 0 0 1.715.566c1.388.312 2.841.442 4.261.496l.968.02a27.44 27.44 0 0 0 3.413-.205c1.359-.168 2.771-.411 3.995-1.058.348-.185.685-.415.903-.743.314-.46.244-.974.245-1.499zm-5.148-1.295c.559-.17.842-.367.845-.583 0-.119-.481-.191-.885-.131l-1.816.287c-.395.068-.333.186.093.243l.538.069-.157.045a10.64 10.64 0 0 1-2.867.124l-.538-.061c.045.108.083.219.113.332 1.611.14 3.505.032 4.674-.325zm-4.826-1.013l-.566-.073.241-.033c1.309-.261 3.176-.215 4.224.116.295.086.606.106.91.057s.332-.144.063-.229c-.733-.231-1.708-.362-2.923-.392-1.04-.037-2.081.041-3.103.232a2.74 2.74 0 0 1 .781.652l.443-.071c.476-.074.439-.195-.07-.258zm-2.225.309c-.26-1.22-1.375-2.151-2.75-2.151A2.73 2.73 0 0 0 5.747 8.82c-1.152.144-2.007 1.042-2.007 2.15 0 1.183 1.003 2.151 2.229 2.151h4.829c1.041 0 1.858-.79 1.858-1.797 0-.928-.781-1.718-1.709-1.79zm-2.007 1.075v1.438H7.455v-1.435H6.34l1.858-1.796 1.857 1.796-1.114-.002z"/></g><path d="M6.716 40.808c-.085.885-.418 1.577-.998 2.075s-1.352.741-2.316.741c-.673 0-1.267-.156-1.782-.467s-.905-.762-1.184-1.339-.424-1.25-.436-2.013v-.775c0-.783.141-1.472.424-2.069a3.16 3.16 0 0 1 1.213-1.379c.526-.323 1.142-.484 1.834-.484.933 0 1.683.249 2.252.747s.9 1.201.993 2.109H5.253c-.07-.596-.248-1.026-.534-1.288s-.698-.399-1.248-.399c-.638 0-1.13.23-1.474.69s-.515 1.127-.522 2.012v.735c0 .897.163 1.581.488 2.052s.809.707 1.439.707c.577 0 1.01-.127 1.3-.382s.474-.678.551-1.271h1.463zm7.098-.439c0-.604.122-1.147.366-1.63s.586-.859 1.027-1.117.948-.393 1.521-.393c.847 0 1.534.268 2.061.804s.816 1.246.859 2.132l.006.325c0 .608-.12 1.151-.36 1.63s-.576.849-1.021 1.111-.952.393-1.532.393c-.886 0-1.596-.289-2.13-.866s-.795-1.355-.795-2.32v-.068zm1.41.12c0 .635.133 1.132.401 1.493s.638.536 1.114.536.846-.182 1.109-.547.401-.899.401-1.602c0-.623-.137-1.117-.412-1.482a1.31 1.31 0 0 0-1.109-.547 1.3 1.3 0 0 0-1.097.541c-.271.357-.406.893-.406 1.607zm13.129-3.146l.041.644c.441-.505 1.045-.758 1.811-.758.84 0 1.414.315 1.724.946.457-.631 1.099-.946 1.927-.946.693 0 1.207.188 1.544.564s.515.931.522 1.664v4.052h-1.41v-4.012c0-.391-.087-.678-.261-.861s-.462-.274-.865-.274c-.321 0-.584.086-.789.257s-.342.388-.424.661l.006 4.229h-1.41v-4.058c-.019-.726-.397-1.089-1.132-1.089-.565 0-.965.226-1.201.678v4.468h-1.41v-6.167h1.329zm16.525 0l.041.644c.441-.505 1.045-.758 1.811-.758.84 0 1.414.315 1.724.946.457-.631 1.099-.946 1.927-.946.693 0 1.207.188 1.544.564s.515.931.522 1.664v4.052h-1.41v-4.012c0-.391-.087-.678-.261-.861s-.462-.274-.865-.274c-.321 0-.584.086-.789.257s-.342.388-.424.661l.006 4.229h-1.41v-4.058c-.019-.726-.397-1.089-1.132-1.089-.565 0-.966.226-1.202.678v4.468h-1.41v-6.167h1.329zm19.003 5.562c-.414.479-1.002.718-1.764.718-.681 0-1.198-.196-1.55-.587s-.522-.957-.522-1.698v-3.995h1.41v3.978c0 .783.331 1.174.992 1.174.685 0 1.147-.241 1.387-.724v-4.428h1.41v6.167h-1.329l-.035-.604zm10.29-5.562l.041.712c.464-.551 1.074-.826 1.828-.826 1.308 0 1.974.735 1.997 2.206v4.075h-1.41v-3.995c0-.391-.087-.68-.261-.866s-.451-.285-.842-.285a1.36 1.36 0 0 0-1.271.758v4.389h-1.41v-6.167h1.329zm12.99 6.166h-1.41v-6.167h1.41v6.167zm-1.497-7.768c0-.213.068-.389.203-.53s.337-.211.592-.211.453.07.592.211.209.317.209.53-.07.384-.209.524-.337.205-.592.205-.453-.068-.592-.205-.203-.315-.203-.524zm10.987.103v1.499h1.109v1.026h-1.109v3.442c0 .236.046.407.139.513s.267.154.511.154a2.21 2.21 0 0 0 .493-.057v1.072a3.55 3.55 0 0 1-.929.131c-1.084 0-1.625-.587-1.625-1.761v-3.494h-1.033v-1.026h1.033v-1.499h1.41zm10.569 5.682l1.277-4.183H110l-2.496 7.102c-.383 1.037-1.033 1.556-1.95 1.556a2.57 2.57 0 0 1-.679-.103v-1.072l.267.017c.356 0 .623-.065.801-.194s.325-.338.429-.638l.204-.53-2.206-6.138h1.521l1.329 4.183z" fill="#00a651"/></svg>