<svg xmlns="http://www.w3.org/2000/svg" width="1225" height="512" fill="none" xmlns:v="https://vecta.io/nano"><g clip-path="url(#A)"><g fill="#5e2dea"><path d="M469.614 295.088a180.33 180.33 0 0 1-88.766-23.39l18.909-38.879c25.462 16.513 41.625 21.331 69.496 21.331 24.426 0 42.311-7.914 42.311-31.316 0-51.609-124.538-7.913-124.538-110.807 0-44.383 37.494-64.69 83.949-64.69 34.061 0 61.92 8.274 83.6 18.934l-16.176 38.541A144.78 144.78 0 0 0 470.951 88.3c-19.957 0-35.446 7.564-35.446 23.739 0 58.487 124.55 10.31 124.55 109.398 0 55.765-40.602 73.651-90.441 73.651zm111.381-134.524v-40.951h23.052V64.571h48.515v55.042h42.649v40.951h-42.649v67.773c0 18.934 5.841 25.811 17.886 25.811 6.19 0 13.417-2.072 21.33-6.877l9.973 38.867c-14.104 5.853-27.172 8.949-40.252 8.949-35.772 0-57.452-17.537-57.452-63.992v-70.531h-23.052zm246.748 131.09a63.92 63.92 0 0 1-3.433-16.862c-11.695 13.755-28.557 20.295-45.419 20.295-36.807 0-57.114-19.608-57.114-55.404 0-41.625 32.688-51.947 71.567-51.947a221.98 221.98 0 0 1 30.966 2.409v-12.719c0-14.104-8.949-20.294-22.017-20.294-11.695 0-18.235 6.528-20.307 15.139l-52.633-6.202c5.504-31.316 36.133-49.876 73.277-49.876 38.542 0 70.182 18.922 70.182 59.511v55.042c0 22.716.687 40.951 3.794 60.908h-48.863zM802.98 221.46c-19.609 0-32.689 4.131-32.689 18.585 0 9.635 7.227 14.104 18.235 14.104 19.271 0 35.784-13.418 35.784-32.689h-21.33zm221.52-51.26c-16.5-8.949-33.726-13.068-46.445-13.068-11.345 0-18.921 3.432-18.921 10.659 0 21.68 87.726 11.358 87.726 70.182 0 40.601-30.96 57.114-71.551 57.114-30.616 0-55.042-8.6-72.266-22.703l22.367-37.157c18.235 12.381 34.41 18.922 50.237 18.922 10.659 0 22.691-1.386 22.691-12.731 0-25.799-87.719-9.636-87.719-73.627 0-37.145 33.026-51.598 69.147-51.598 22.364 0 45.764 5.504 62.634 14.791l-17.9 39.216zm97.32 124.888h-48.51V43.94h48.51v95.295c13.07-13.418 27.53-19.608 47.82-19.608 34.41 0 54.71 20.993 54.71 65.039V295.1h-48.52V185.69c0-17.561-9.63-25.125-24.09-25.125-17.9 0-29.93 15.14-29.93 54.019l.01 80.504zM162.02 2.231L42.324 59.875a22.49 22.49 0 0 0-7.833 6.245c-2.108 2.644-3.593 5.73-4.344 9.027L.578 204.672a22.46 22.46 0 0 0-.018 10.05 22.47 22.47 0 0 0 4.366 9.052l82.877 103.822a22.55 22.55 0 0 0 7.839 6.217c3.046 1.46 6.381 2.216 9.758 2.214h132.812a22.52 22.52 0 0 0 9.76-2.21c3.046-1.46 5.724-3.586 7.837-6.221l82.841-103.822c2.111-2.642 3.599-5.727 4.352-9.024s.751-6.722-.004-10.018L313.429 75.147a22.48 22.48 0 0 0-12.177-15.272L181.556 2.231A22.5 22.5 0 0 0 171.788 0a22.5 22.5 0 0 0-9.768 2.231h0z"/></g><g fill="#fff"><path d="M68.344 177.887l.108-11.611c-.129-1.479.172-2.964.867-4.276 1.939-2.926 5.131-1.204 7.455 0a93.19 93.19 0 0 0 10.418 4.601c7.107 2.568 14.415 4.542 21.849 5.902 2.987.578 6.022 1.084 8.985 1.554a304.4 304.4 0 0 0 65.533 2.866c13.687-.713 27.292-2.562 40.673-5.528 9.816-2.252 19.416-5.179 28.22-10.274 3.613-2.059 6.721-.192 6.769 4.011v21.836c0 3.939-2.987 5.758-6.516 4.144a56.53 56.53 0 0 0-34.919-4.056 56.54 56.54 0 0 0-30.566 17.364 55.63 55.63 0 0 0-8.431 12.213 7.44 7.44 0 0 1-3.18 3.614c-1.234.474-2.56.663-3.878.554-16.024.129-32.039-.816-47.936-2.831l-5.661-.819c-12.755-1.951-25.582-4.817-36.94-10.84a30.49 30.49 0 0 1-8.949-6.696c-3.914-4.565-4.011-9.876-3.963-15.585l.06-6.143zm88.723 95.063c-15.947-.771-31.797-1.843-47.455-5.3-10.96-2.408-23.245-5.094-32.519-11.791-4.697-3.396-8.816-8.154-8.744-14.272v-24.402c0-4.047 3.216-6.022 6.721-4.083 11.719 6.564 24.498 9.72 37.554 12.104 18.127 3.288 36.41 4.312 54.778 4.409 1.963 0 4.264.313 5.083 2.348 1.023 2.529-.073 6.022-.181 8.636a55.32 55.32 0 0 0 3.673 21.957c.843 2.144 1.867 4.54 1.675 6.889-.241 2.891-2.807 3.71-5.312 3.77-5.047.132-10.153-.06-15.272-.265zm38.846-28.063c0-20.475 16.934-37.132 37.819-37.18 20.704 0 37.783 16.717 37.783 37.084a37.81 37.81 0 0 1-37.754 37.182c-9.91.013-19.429-3.867-26.508-10.803s-11.151-16.374-11.34-26.283h0zm37.819-28.219c-5.574.085-10.999 1.816-15.593 4.976a28.28 28.28 0 0 0-10.224 12.781c-2.074 5.175-2.572 10.848-1.431 16.305s3.869 10.456 7.842 14.367a28.28 28.28 0 0 0 14.488 7.616c5.474 1.055 11.138.469 16.28-1.686a28.27 28.27 0 0 0 12.62-10.423c3.087-4.642 4.733-10.093 4.732-15.669-.08-7.549-3.145-14.761-8.525-20.058a28.57 28.57 0 0 0-20.189-8.209h0zm-3.803-11.418l1.373-1-1.011-.879c.619-.4 1.079-1.005 1.299-1.709a3.16 3.16 0 0 0-.095-2.145c-.325-1.12-.771-2.204-1.144-3.312-.306-.715-.389-1.505-.239-2.268a3.87 3.87 0 0 1 1.082-2.008 3.95 3.95 0 0 1 4.348-.409c1.674.855 2.216 2.866 1.361 5.046l-1.024 2.939a3.15 3.15 0 0 0-.108 2.16c.221.71.686 1.319 1.313 1.718l-1.012.807 1.602 1.301h-7.745v-.241zm.345 81.249l1.012-.819-1.59-1.289h8.057l-1.589 1.205.975.867a3.13 3.13 0 0 0-1.306 1.707c-.221.705-.185 1.466.102 2.147.301 1.084.734 2.132 1.108 3.18.418.708.583 1.538.466 2.352s-.509 1.564-1.11 2.126-1.375.902-2.196.963a3.61 3.61 0 0 1-2.315-.623c-1.686-.856-2.216-2.879-1.361-5.047l1.036-2.939c.269-.688.288-1.449.052-2.149s-.71-1.296-1.341-1.681h0zm-28.408-14.632l1.277.193-.073-1.313 4.818 5.119.361-.301-1.578-.12.073 1.144s-.121.12-.169.108c-.664-.131-1.354-.037-1.958.269a3.03 3.03 0 0 0-1.378 1.417c-.544.983-1.03 1.997-1.457 3.036-.856 1.878-2.349 2.902-3.951 2.673a3.86 3.86 0 0 1-2.256-1.128c-.605-.618-.985-1.421-1.08-2.28-.193-1.566.891-3.059 2.782-3.89.963-.391 1.904-.833 2.818-1.325a3.17 3.17 0 0 0 1.771-3.602h0zm58.81 4.902l.121-1.325-1.205.133 4.734-5.191v1.565l1.204-.072c0 .072.109.145.097.205a2.9 2.9 0 0 0 1.589 3.24 27.15 27.15 0 0 0 3.144 1.53c.803.268 1.49.803 1.948 1.516a3.72 3.72 0 0 1-.486 4.632c-.596.601-1.38.982-2.221 1.078-.861.022-1.706-.236-2.408-.736s-1.221-1.213-1.482-2.034a26.11 26.11 0 0 0-1.325-2.818c-.311-.683-.856-1.232-1.537-1.547a3.15 3.15 0 0 0-2.173-.176zm-1.459-62.533l1.506.181v-1.289c1.963.386 3.047-.759 3.866-2.276.614-1.132 1.036-2.409 1.722-3.469a3.26 3.26 0 0 1 3.891-1.529 3.95 3.95 0 0 1 2.782 3.504c-.044.812-.333 1.59-.827 2.235s-1.171 1.125-1.943 1.379l-2.289 1.011c-1.578.819-2.758 1.928-2.409 3.951l-1.288-.108.132 1.204-4.818-5.191-.325.397zm-52.462-1.11l-.096 1.205 1.53-.157-.217-.205-4.89 5.408.096-1.505h-1.277c.386-1.903-.698-2.999-2.168-3.806l-3.613-1.783c-.653-.353-1.164-.922-1.447-1.608a3.23 3.23 0 0 1-.107-2.162 3.94 3.94 0 0 1 1.263-1.971c.611-.514 1.363-.831 2.158-.907 1.554-.145 3.011.975 3.83 2.878a22.49 22.49 0 0 0 1.421 2.915 3.15 3.15 0 0 0 1.463 1.462c.639.308 1.362.391 2.054.236h0zm68.458 35.376c-.349-.88-.734-1.422-1.517-.362v-6.227l.843.53.735-.927c1.023 1.554 2.493 1.662 4.095 1.204 1.072-.313 2.107-.77 3.167-1.12a3.75 3.75 0 0 1 2.27-.207c.76.168 1.448.569 1.97 1.147.494.606.79 1.349.848 2.129a3.82 3.82 0 0 1-.523 2.231c-.867 1.602-2.854 2.107-4.962 1.301-1.045-.42-2.11-.785-3.192-1.097-.687-.241-1.438-.234-2.12.021a3.11 3.11 0 0 0-1.614 1.377h0zm-83.001-7.095c.41.795.723 1.553 1.53.301v6.251l-.843-.518-.735.939c-.398-.626-1.004-1.09-1.712-1.311a3.13 3.13 0 0 0-2.154.107c-1.12.313-2.192.759-3.3 1.132a3.9 3.9 0 0 1-2.263.242c-.762-.146-1.463-.515-2.013-1.061a3.95 3.95 0 0 1-.422-4.348c.867-1.698 2.843-2.228 5.023-1.385a30.75 30.75 0 0 0 3.071 1.06c.7.256 1.468.255 2.168-.003a3.15 3.15 0 0 0 1.65-1.406h0zm30.49.975c.487-.3.881-.729 1.139-1.239s.367-1.082.318-1.652c0-.277-.277-.723-.494-.771-.724-.143-1.407-.447-1.999-.889a4.94 4.94 0 0 1-1.421-1.664l-1.373-2.53c-1.012-2.071-1-2.071-3.312-1.517v-2.325h-2.686c.144-.481.156-.975.397-1.204l4.324-4.167c.205-.193.602-.169.903-.253a5.89 5.89 0 0 1 .097.927l-.06 1.626h2.408c-.481 2.325-.469 2.3 1.651 3.36a13.72 13.72 0 0 1 2.914 1.687 14.53 14.53 0 0 1 2.096 2.625c.181.253.217.892.313.892a4.73 4.73 0 0 0 2.036-.265c1.204-.603 1.469-1.205.758-2.518-.274-.536-.434-1.123-.472-1.724s.05-1.203.256-1.769a23.26 23.26 0 0 1 .975-3.239c.494-1.205.265-2.012-1.024-2.409a3.63 3.63 0 0 1-.59-.386l1.879-1.746-2.204-1.771c2.776-.599 5.644-.628 8.431-.084l-2.035 1.915 1.818 1.71-1.06.578c-.172.052-.33.141-.464.262a1.21 1.21 0 0 0-.305.436 1.18 1.18 0 0 0-.088.525 1.2 1.2 0 0 0 .147.512l1.048 3.348c.45 1.455.382 3.022-.193 4.432-.108.35-.434.892-.325.988a4.32 4.32 0 0 0 1.674 1.205c1.337.373 1.698.252 2.168-1.205.433-1.171 1.293-2.136 2.409-2.698l2.204-1.204c2.132-1.06 2.144-1.048 1.65-3.361h2.288v-1.734c.023-.271.063-.541.121-.807.265 0 .626 0 .795.169l4.576 4.42c.193.205.133.65.205 1.06l-2.625-.133.132 2.241c-.241.096-.325.18-.385.156-2.048-.53-2.036-.518-2.999 1.433a12.72 12.72 0 0 1-1.542 2.71 19.72 19.72 0 0 1-2.806 2.469c-.277.229-1 .29-.988.398.008.726.135 1.446.373 2.132.494 1.204 1.53 1.204 2.409.614a4.06 4.06 0 0 1 1.654-.484c.58-.042 1.162.041 1.707.243l3.011.867c2.011.627 2.011.639 3.468-1.722l1.205 2.168 1.734-1.879c.952 0 .904.735.928 1.409.241 5.324.168 5.866-.892 6.384l-1.674-1.759-1.65 1.795a7.66 7.66 0 0 1-.458-.783 1.44 1.44 0 0 0-.315-.605c-.151-.173-.342-.309-.556-.395s-.445-.119-.675-.098a1.46 1.46 0 0 0-.646.219c-.927.373-1.915.614-2.866.915a5.64 5.64 0 0 1-5.372-.723l-.59.699c-1.409 1.53-1.325 2.794.494 3.421a4.72 4.72 0 0 1 2.601 2.348c.506.807.952 1.662 1.385 2.53.952 1.939.94 1.951 3.18 1.312v2.409c.638 0 1.205-.108 1.819-.108.253 0 .638 0 .734.217.055.126.077.263.064.4s-.059.269-.136.382l-4.685 4.505c-.506.458-.939.229-.867-.542l.156-1.867h-2.505l.301-.951a1.35 1.35 0 0 0 .157-.572c.009-.199-.026-.399-.103-.583s-.195-.35-.344-.483-.325-.233-.517-.289l-3.758-2c-.587-.332-1.092-.791-1.48-1.343a4.53 4.53 0 0 1-.76-1.848c-.144-.651-1.698-.795-2.517-.205-.422.313-.795.698-1.301 1.144 1.638 2.011 1.205 4.179.458 6.371l-.337 1.072c-.687 2.18-.687 2.18 1.361 3.445l-1.771 1.674 1.975 1.867c-2.725.566-5.537.566-8.262 0l1.999-1.903-1.818-1.746.963-.494a1.29 1.29 0 0 0 .522-.281c.15-.132.268-.298.344-.483a1.3 1.3 0 0 0 .093-.585 1.29 1.29 0 0 0-.176-.566c-.361-.94-.602-1.915-.915-2.867a5.85 5.85 0 0 1-.381-2.873 5.84 5.84 0 0 1 1.043-2.703 6.2 6.2 0 0 0-1.204-1.06c-.528-.185-1.073-.318-1.626-.398-.988-.253-.735.494-.916 1.012-.539 1.386-1.592 2.512-2.938 3.144l-2.325 1.204c-1.891.94-1.903.939-1.204 3.144h-2.409c0 .662 0 1.288.12 1.915s-.349.999-.843.554l-4.697-4.505c-.181-.193-.109-.638-.157-.975h2.481l-.096-2.205c.265-.072.349-.132.422-.108 1.975.566 1.951.554 2.854-1.204.508-1.146 1.134-2.236 1.867-3.252.783-.813 1.66-1.528 2.614-2.132.289-.205.963-.313.963-.422a7.35 7.35 0 0 0-.421-2.12c-.169-.433-.627-.746-1.048-1.204-2.506 2.011-5.083.855-7.636 0-2.096-.662-2.096-.674-3.337 1.638l-1.674-2.047-1.855 1.939c-.264-.411-.46-.863-.578-1.337-.373-4.228-.144-6.022.819-6.625l1.674 1.819 1.711-1.843.506.94a1.33 1.33 0 0 0 .281.521c.132.15.297.268.481.346a1.32 1.32 0 0 0 .583.102 1.34 1.34 0 0 0 .57-.162c.927-.362 1.903-.627 2.866-.904 3.144-.903 3.577-.253 5.661.603zm10.96-5.541a8.12 8.12 0 0 0-5.591 2.419c-1.479 1.502-2.316 3.519-2.334 5.627-.009 1.055.19 2.102.587 3.08s.983 1.867 1.726 2.617a7.99 7.99 0 0 0 5.672 2.373c2.109.001 4.135-.815 5.654-2.278a8.14 8.14 0 0 0 2.488-5.563c-.039-2.176-.919-4.252-2.455-5.794a8.43 8.43 0 0 0-5.783-2.481h.036zm.144 2.592c1.43.08 2.773.708 3.752 1.754a5.57 5.57 0 0 1 1.5 3.862c-.016 1.432-.583 2.803-1.584 3.827a5.56 5.56 0 0 1-3.789 1.673c-.751.026-1.5-.1-2.201-.372a5.57 5.57 0 0 1-1.878-1.208c-.538-.525-.964-1.154-1.252-1.849a5.55 5.55 0 0 1-.424-2.192 5.56 5.56 0 0 1 .471-2.182c.303-.689.743-1.308 1.292-1.822a5.59 5.59 0 0 1 1.903-1.167 5.56 5.56 0 0 1 2.21-.324h0zm3.011 5.576c.004-.612-.172-1.212-.509-1.724a3.09 3.09 0 0 0-5.618 1.073 3.1 3.1 0 0 0 .162 1.789 3.09 3.09 0 0 0 1.13 1.398c.506.344 1.103.531 1.715.535.415.016.828-.055 1.215-.207a3.01 3.01 0 0 0 1.029-.677c.293-.294.522-.645.673-1.032a3 3 0 0 0 .203-1.215v.06zm22.449-115.831v-20.415a9.87 9.87 0 0 0-.708-4.337c-.558-1.374-1.42-2.605-2.52-3.6-2.904-2.529-6.098-4.704-9.515-6.48-9.78-4.673-20.331-6.733-30.966-8.431a316.21 316.21 0 0 0-44.841-3.818c-9.202-.157-18.416.289-27.618.699-8.057.349-16.079.988-24.088 2.035 1.409 2.732 2.535 5.602 3.36 8.564a231.38 231.38 0 0 1 36.554-2.879c18.633 0 32.4.626 46.034 2.83 10.237 1.65 20.391 3.746 29.858 8.226 1.822.853 3.543 1.908 5.13 3.143 2.843 2.229 2.951 4.613-.12 6.553-3.551 2.313-7.353 4.216-11.334 5.672-12.49 4.36-25.485 6.251-38.626 7.456a299.75 299.75 0 0 1-39.746.795v.482c.04 3.873-.692 7.715-2.154 11.302s-3.624 6.847-6.36 9.589-5.992 4.91-9.576 6.38-7.425 2.209-11.298 2.177h-37.65c.843.433 1.698.855 2.566 1.204 6.16 2.788 12.6 4.912 19.211 6.336 15.549 3.492 31.821 4.95 47.731 5.552a286.12 286.12 0 0 0 10.84.229c12.778.029 25.546-.739 38.229-2.301 15.224-1.879 31.038-4.601 44.744-11.851 3.903-2.072 7.672-4.649 10.117-8.323 3.517-5.155 2.734-10.912 2.747-16.79zm-57.656-14.503c6.263-1.903 9.431-4.107 9.467-6.528 0-1.337-5.384-2.144-9.912-1.469l-20.343 3.216c-4.42.758-3.734 2.083 1.036 2.722l6.022.77c-.759.217-1.204.386-1.758.506-10.592 1.91-21.394 2.376-32.111 1.385-2.168-.18-4.167-.421-6.022-.686.508 1.21.93 2.453 1.265 3.722 18.042 1.565 39.264.361 52.356-3.638zm-54.056-11.343l-6.335-.819 2.698-.373c14.657-2.927 35.578-2.409 47.31 1.301 3.306.968 6.787 1.186 10.189.638 3.372-.566 3.722-1.614.711-2.565-8.215-2.586-19.127-4.051-32.737-4.396a158.89 158.89 0 0 0-34.76 2.602c3.345 1.867 6.31 4.342 8.745 7.299l4.962-.795c5.335-.831 4.914-2.18-.783-2.891zm-24.929 3.454c-2.915-13.67-15.405-24.088-30.798-24.088a30.58 30.58 0 0 0-27.461 16.091c-12.899 1.614-22.475 11.671-22.475 24.088 0 13.249 11.237 24.089 24.968 24.089h54.091c11.659 0 20.813-8.853 20.813-20.126 0-10.394-8.744-19.247-19.138-20.054zm-22.475 12.045v16.103H83.505v-16.079h-12.49l20.813-20.114 20.801 20.114-12.478-.024z"/></g><g fill="#fc6011"><path d="M55.344 446.853h-38.89v29.136h45.459v13.136H0v-94.689h61.457v13.267H16.454v26.144h38.89v13.006zm103.026-28.094l.455 8.129c5.203-6.286 12.032-9.43 20.486-9.43 14.654 0 22.111 8.39 22.372 25.168v46.499h-15.804v-45.588c0-4.466-.975-7.761-2.926-9.885-1.908-2.168-5.051-3.252-9.43-3.252-6.373 0-11.121 2.883-14.242 8.649v50.076h-15.804v-70.366h14.893zm149.2-17.104v17.104h12.422v11.706H307.57v39.28c0 2.688.521 4.639 1.561 5.853 1.084 1.171 2.992 1.756 5.723 1.756 1.821 0 3.664-.216 5.528-.65v12.226c-3.599.997-7.067 1.496-10.405 1.496-12.14 0-18.21-6.698-18.21-20.095v-39.866h-11.576v-11.706h11.576v-17.104h15.803zm125.463 88.771c-10.015 0-18.144-3.143-24.387-9.43-6.2-6.33-9.3-14.741-9.3-25.233v-1.951c0-7.024 1.344-13.288 4.032-18.795 2.731-5.549 6.547-9.863 11.446-12.941s10.362-4.618 16.388-4.618c9.582 0 16.974 3.057 22.177 9.17 5.246 6.113 7.869 14.763 7.869 25.948v6.374h-45.979c.477 5.809 2.406 10.405 5.788 13.787 3.425 3.382 7.718 5.073 12.877 5.073 7.24 0 13.137-2.927 17.689-8.78l8.519 8.129c-2.818 4.206-6.59 7.479-11.315 9.82-4.683 2.298-9.951 3.447-15.804 3.447zm-1.886-60.286c-4.335 0-7.847 1.517-10.535 4.552-2.645 3.035-4.336 7.262-5.073 12.682h30.111v-1.171c-.347-5.289-1.756-9.278-4.227-11.966-2.472-2.731-5.897-4.097-10.276-4.097zm149.201 3.056a39.2 39.2 0 0 0-6.439-.52c-7.24 0-12.118 2.775-14.632 8.324v48.125h-15.803v-70.366h15.087l.391 7.869c3.815-6.113 9.104-9.17 15.868-9.17 2.254 0 4.119.304 5.593.911l-.065 14.827zm141.526 21.462c0 10.882-2.471 19.575-7.414 26.078-4.942 6.46-11.576 9.69-19.9 9.69-7.717 0-13.896-2.536-18.535-7.609v33.362h-15.803v-97.42h14.568l.65 7.154c4.639-5.637 10.947-8.455 18.925-8.455 8.584 0 15.304 3.209 20.16 9.625 4.899 6.374 7.349 15.24 7.349 26.599v.976zm-15.738-1.366c0-7.024-1.409-12.595-4.227-16.714-2.775-4.119-6.764-6.178-11.966-6.178-6.46 0-11.1 2.666-13.918 7.999v31.216c2.862 5.463 7.544 8.195 14.048 8.195 5.029 0 8.953-2.017 11.771-6.049 2.861-4.075 4.292-10.232 4.292-18.469zm135.933-20.096c-2.081-.346-4.227-.52-6.438-.52-7.24 0-12.118 2.775-14.633 8.324v48.125h-15.803v-70.366h15.088l.39 7.869c3.816-6.113 9.105-9.17 15.869-9.17 2.254 0 4.118.304 5.592.911l-.065 14.827zm96.718 55.929h-15.803v-70.366h15.803v70.366zm-16.778-88.641c0-2.428.758-4.444 2.276-6.048 1.561-1.604 3.772-2.406 6.633-2.406s5.073.802 6.634 2.406 2.341 3.62 2.341 6.048c0 2.385-.78 4.379-2.341 5.984-1.561 1.56-3.772 2.341-6.634 2.341s-5.072-.781-6.633-2.341c-1.518-1.605-2.276-3.599-2.276-5.984zm143.411 69.521c0-2.818-1.17-4.964-3.51-6.438-2.3-1.474-6.14-2.775-11.51-3.902-5.38-1.127-9.87-2.558-13.46-4.292-7.89-3.815-11.84-9.343-11.84-16.584 0-6.07 2.56-11.142 7.67-15.218 5.12-4.075 11.62-6.113 19.51-6.113 8.42 0 15.2 2.081 20.36 6.243 5.2 4.163 7.8 9.56 7.8 16.194h-15.8c0-3.035-1.13-5.55-3.38-7.544-2.26-2.038-5.25-3.057-8.98-3.057-3.46 0-6.3.802-8.52 2.407-2.16 1.604-3.25 3.75-3.25 6.438 0 2.428 1.02 4.314 3.06 5.658s6.16 2.71 12.36 4.097c6.2 1.344 11.05 2.97 14.56 4.878 3.56 1.864 6.18 4.118 7.87 6.763 1.74 2.645 2.6 5.853 2.6 9.625 0 6.33-2.62 11.468-7.86 15.413-5.25 3.902-12.12 5.853-20.62 5.853-5.77 0-10.9-1.04-15.41-3.122s-8.02-4.942-10.54-8.584c-2.51-3.642-3.77-7.566-3.77-11.771h15.35c.21 3.728 1.62 6.612 4.22 8.649 2.61 1.995 6.05 2.992 10.34 2.992 4.17 0 7.33-.78 9.5-2.341 2.17-1.604 3.25-3.686 3.25-6.244zm130.28 20.421c-10.02 0-18.15-3.143-24.39-9.43-6.2-6.33-9.3-14.741-9.3-25.233v-1.951c0-7.024 1.34-13.288 4.03-18.795 2.73-5.549 6.55-9.863 11.45-12.941s10.36-4.618 16.39-4.618c9.58 0 16.97 3.057 22.17 9.17 5.25 6.113 7.87 14.763 7.87 25.948v6.374h-45.98c.48 5.809 2.41 10.405 5.79 13.787 3.43 3.382 7.72 5.073 12.88 5.073 7.24 0 13.13-2.927 17.69-8.78l8.52 8.129c-2.82 4.206-6.59 7.479-11.32 9.82-4.68 2.298-9.95 3.447-15.8 3.447zm-1.89-60.286c-4.33 0-7.85 1.517-10.53 4.552-2.65 3.035-4.34 7.262-5.08 12.682h30.11v-1.171c-.34-5.289-1.75-9.278-4.22-11.966-2.48-2.731-5.9-4.097-10.28-4.097z"/></g></g><defs><clipPath id="A"><path fill="#fff" d="M0 0h1224.35v512H0z"/></clipPath></defs></svg>