<svg id="Layer_1" data-name="Layer 1" xmlns="http://www.w3.org/2000/svg" viewBox="0 0 1279 639"><defs><style>.cls-1{fill:#5e2dea;}.cls-2{fill:#fff;}</style></defs><title>satsh-logo-1280x640</title><path class="cls-1" d="M521,425.21a149.72,149.72,0,0,1-73.7-19.42L463,373.51c21.14,13.71,34.56,17.71,57.7,17.71,20.28,0,35.13-6.57,35.13-26,0-42.85-103.4-6.57-103.4-92,0-36.85,31.13-53.71,69.7-53.71,28.28,0,51.41,6.87,69.41,15.72l-13.43,32a120.2,120.2,0,0,0-56-13.71c-16.57,0-29.43,6.28-29.43,19.71,0,48.56,103.41,8.56,103.41,90.83C596.09,410.36,562.38,425.21,521,425.21Z"/><path class="cls-1" d="M613.48,313.52v-34h19.14v-45.7H672.9v45.7h35.41v34H672.9v56.27c0,15.72,4.85,21.43,14.85,21.43,5.14,0,11.14-1.72,17.71-5.71l8.28,32.27c-11.71,4.86-22.56,7.43-33.42,7.43-29.7,0-47.7-14.56-47.7-53.13V313.52Z"/><path class="cls-1" d="M818.35,422.36a53.07,53.07,0,0,1-2.85-14c-9.71,11.42-23.71,16.85-37.71,16.85-30.56,0-47.42-16.28-47.42-46,0-34.56,27.14-43.13,59.42-43.13a184.36,184.36,0,0,1,25.71,2V327.52c0-11.71-7.43-16.85-18.28-16.85-9.71,0-15.14,5.42-16.86,12.57l-43.7-5.15c4.57-26,30-41.41,60.84-41.41,32,0,58.27,15.71,58.27,49.41v45.7c0,18.86.57,34,3.15,50.57Zm-20.56-58.28c-16.28,0-27.14,3.43-27.14,15.43,0,8,6,11.71,15.14,11.71,16,0,29.71-11.14,29.71-27.14Z"/><path class="cls-1" d="M981.71,321.52c-13.7-7.43-28-10.85-38.56-10.85-9.42,0-15.71,2.85-15.71,8.85,0,18,72.84,9.43,72.84,58.27,0,33.71-25.71,47.42-59.41,47.42-25.42,0-45.7-7.14-60-18.85l18.57-30.85c15.14,10.28,28.57,15.71,41.71,15.71,8.85,0,18.84-1.15,18.84-10.57,0-21.42-72.83-8-72.83-61.13,0-30.84,27.42-42.84,57.41-42.84,18.57,0,38,4.57,52,12.28Z"/><path class="cls-1" d="M1062.52,425.21h-40.28V216.69h40.28v79.12c10.85-11.14,22.85-16.28,39.7-16.28,28.57,0,45.42,17.43,45.42,54v91.69h-40.28V334.38c0-14.58-8-20.86-20-20.86-14.86,0-24.85,12.57-24.85,44.85Z"/><path class="cls-1" d="M265.62,182.06l-99.38,47.86a18.67,18.67,0,0,0-10.11,12.68L131.58,350.14A18.65,18.65,0,0,0,135.19,366L204,452.2a18.72,18.72,0,0,0,14.61,7H328.88a18.69,18.69,0,0,0,14.61-7L412.27,366a18.65,18.65,0,0,0,3.61-15.81L391.33,242.6a18.67,18.67,0,0,0-10.11-12.68l-99.38-47.86A18.68,18.68,0,0,0,265.62,182.06Z"/><path class="cls-2" d="M187.84,327.9l.09-9.64a6.39,6.39,0,0,1,.72-3.55c1.61-2.43,4.26-1,6.19,0a77.53,77.53,0,0,0,8.65,3.82,113.53,113.53,0,0,0,18.14,4.9c2.48.48,5,.9,7.46,1.29a252.78,252.78,0,0,0,54.41,2.38,205.42,205.42,0,0,0,33.77-4.59c8.15-1.87,16.12-4.3,23.43-8.53,3-1.71,5.58-.16,5.62,3.33q.1,9.06,0,18.13c0,3.27-2.48,4.78-5.41,3.44a46.94,46.94,0,0,0-54.37,11.05,46.17,46.17,0,0,0-7,10.14,6.18,6.18,0,0,1-2.64,3,7.3,7.3,0,0,1-3.22.46,297.44,297.44,0,0,1-39.8-2.35c-1.56-.21-3.13-.43-4.7-.68-10.59-1.62-21.24-4-30.67-9a25.31,25.31,0,0,1-7.43-5.56c-3.25-3.79-3.33-8.2-3.29-12.94Z"/><path class="cls-2" d="M261.51,406.83c-13.24-.64-26.4-1.53-39.4-4.4-9.1-2-19.3-4.23-27-9.79-3.9-2.82-7.32-6.77-7.26-11.85.08-6.75,0-13.5,0-20.26,0-3.36,2.67-5,5.58-3.39,9.73,5.45,20.34,8.07,31.18,10.05,15.05,2.73,30.23,3.58,45.48,3.66,1.63,0,3.54.26,4.22,1.95.85,2.1-.06,5-.15,7.17a45.92,45.92,0,0,0,3.05,18.23c.7,1.78,1.55,3.77,1.39,5.72-.2,2.4-2.33,3.08-4.41,3.13C270,407.16,265.76,407,261.51,406.83Z"/><path class="cls-2" d="M293.76,383.53c0-17,14.06-30.83,31.4-30.87,17.19,0,31.37,13.88,31.37,30.79a31.39,31.39,0,0,1-62.77.08Zm31.4-23.43A23.48,23.48,0,1,0,349,383.57,23.72,23.72,0,0,0,325.16,360.1Z"/><path class="cls-2" d="M322,350.62l1.14-.83-.84-.73a2.62,2.62,0,0,0,1-3.2c-.27-.93-.64-1.83-.95-2.75a3.21,3.21,0,0,1,.7-3.55,3.28,3.28,0,0,1,3.61-.34c1.39.71,1.84,2.38,1.13,4.19-.31.8-.62,1.61-.85,2.44a2.61,2.61,0,0,0,1,3.22l-.84.67,1.33,1.08h-6.43Z"/><path class="cls-2" d="M322.29,418.08l.84-.68-1.32-1.07h6.69l-1.32,1,.81.72a2.6,2.6,0,0,0-1,3.2c.25.9.61,1.77.92,2.64a3,3,0,0,1-4.28,4c-1.4-.71-1.84-2.39-1.13-4.19.31-.8.62-1.61.86-2.44A2.61,2.61,0,0,0,322.29,418.08Z"/><path class="cls-2" d="M298.7,405.93l1.06.16L299.7,405l4,4.25L304,409l-1.31-.1.06.95s-.1.1-.14.09a2.52,2.52,0,0,0-2.77,1.4,24.34,24.34,0,0,0-1.21,2.52c-.71,1.56-1.95,2.41-3.28,2.22a3.21,3.21,0,0,1-2.77-2.83c-.16-1.3.74-2.54,2.31-3.23a23.81,23.81,0,0,0,2.34-1.1A2.63,2.63,0,0,0,298.7,405.93Z"/><path class="cls-2" d="M347.53,410l.1-1.1-1,.11,3.93-4.31V406l1-.06c0,.06.09.12.08.17a2.41,2.41,0,0,0,1.32,2.69,22.46,22.46,0,0,0,2.61,1.27,3.09,3.09,0,0,1-.63,6,3.3,3.3,0,0,1-3.23-2.3,21.71,21.71,0,0,0-1.1-2.34A2.61,2.61,0,0,0,347.53,410Z"/><path class="cls-2" d="M346.32,358.08l1.25.15v-1.07c1.63.32,2.53-.63,3.21-1.89.51-.94.86-2,1.43-2.88a2.71,2.71,0,0,1,3.23-1.27,3.28,3.28,0,0,1,2.31,2.91,3.35,3.35,0,0,1-2.3,3c-.64.28-1.29.52-1.9.84-1.31.68-2.29,1.6-2,3.28l-1.07-.09.11,1-4-4.31Z"/><path class="cls-2" d="M302.76,357.16l-.08,1,1.27-.13-.18-.17-4.06,4.49.08-1.25h-1.06c.32-1.58-.58-2.49-1.8-3.16-1-.53-2-.89-3-1.48a2.68,2.68,0,0,1-1.29-3.13,3.27,3.27,0,0,1,2.84-2.39c1.29-.12,2.5.81,3.18,2.39a18.67,18.67,0,0,0,1.18,2.42A2.61,2.61,0,0,0,302.76,357.16Z"/><path class="cls-2" d="M359.6,386.53c-.29-.73-.61-1.18-1.26-.3v-5.17l.7.44.61-.77c.85,1.29,2.07,1.38,3.4,1,.89-.26,1.75-.64,2.63-.93a3.11,3.11,0,0,1,3.52.78,3.17,3.17,0,0,1,.27,3.62c-.72,1.33-2.37,1.75-4.12,1.08a27.6,27.6,0,0,0-2.65-.91A2.58,2.58,0,0,0,359.6,386.53Z"/><path class="cls-2" d="M290.69,380.64c.34.66.6,1.29,1.27.25v5.19l-.7-.43-.61.78a2.6,2.6,0,0,0-3.21-1c-.93.26-1.82.63-2.74.94a3.24,3.24,0,0,1-3.55-.68,3.28,3.28,0,0,1-.35-3.61c.72-1.41,2.36-1.85,4.17-1.15a25.59,25.59,0,0,0,2.55.88A2.61,2.61,0,0,0,290.69,380.64Z"/><path class="cls-2" d="M316,381.45a2.56,2.56,0,0,0,1.21-2.4c0-.23-.23-.6-.41-.64a4.11,4.11,0,0,1-2.84-2.12c-.38-.7-.79-1.39-1.14-2.1-.84-1.72-.83-1.72-2.75-1.26V371h-2.23c.12-.4.13-.81.33-1,1.17-1.19,2.38-2.33,3.59-3.46.17-.16.5-.14.75-.21a5,5,0,0,1,.08.77c0,.43,0,.86-.05,1.35h2c-.4,1.93-.39,1.91,1.37,2.79a11.39,11.39,0,0,1,2.42,1.4,12.07,12.07,0,0,1,1.74,2.18c.15.21.18.74.26.74a3.92,3.92,0,0,0,1.69-.22c1-.5,1.22-1,.63-2.09a3.64,3.64,0,0,1-.18-2.9,19.37,19.37,0,0,1,.81-2.69c.41-1,.22-1.67-.85-2a3,3,0,0,1-.49-.32l1.56-1.45-1.83-1.47a17.38,17.38,0,0,1,7-.07l-1.69,1.59,1.51,1.42-.88.48a1,1,0,0,0-.59,1.44c.33.91.55,1.87.87,2.78a5.47,5.47,0,0,1-.16,3.68c-.09.29-.36.74-.27.82a3.59,3.59,0,0,0,1.39,1c1.11.31,1.41.21,1.8-1a4.1,4.1,0,0,1,2-2.24c.59-.36,1.21-.69,1.83-1,1.77-.88,1.78-.87,1.37-2.79h1.9c0-.46,0-.95,0-1.44a5.16,5.16,0,0,1,.1-.67c.22,0,.52,0,.66.14q1.93,1.8,3.8,3.67c.16.17.11.54.17.88l-2.18-.11.11,1.86c-.2.08-.27.15-.32.13-1.7-.44-1.69-.43-2.49,1.19a10.57,10.57,0,0,1-1.28,2.25,16.36,16.36,0,0,1-2.33,2.05c-.23.19-.83.24-.82.33a5.58,5.58,0,0,0,.31,1.77c.41,1,1.27,1,2,.51a3.38,3.38,0,0,1,2.79-.2c.85.2,1.68.45,2.5.72,1.67.52,1.67.53,2.88-1.43l1,1.8,1.44-1.56c.79,0,.75.61.77,1.17.2,4.42.14,4.87-.74,5.3l-1.39-1.46-1.37,1.49a6.26,6.26,0,0,1-.38-.65,1.21,1.21,0,0,0-1.82-.73c-.77.31-1.59.51-2.38.76a4.68,4.68,0,0,1-4.46-.6c-.18.22-.33.41-.49.58-1.17,1.27-1.1,2.32.41,2.84a3.92,3.92,0,0,1,2.16,1.95c.42.67.79,1.38,1.15,2.1.79,1.61.78,1.62,2.64,1.09v2c.53,0,1-.09,1.51-.09.21,0,.53,0,.61.18a.68.68,0,0,1-.06.65c-1.27,1.27-2.55,2.54-3.89,3.74-.42.38-.78.19-.72-.45s.08-1,.13-1.55h-2.08c.11-.35.16-.58.25-.79a1.12,1.12,0,0,0-.67-1.6c-1.06-.52-2.09-1.09-3.12-1.66a3.77,3.77,0,0,1-1.86-2.65c-.12-.54-1.41-.66-2.09-.17-.35.26-.66.58-1.08.95,1.36,1.67,1,3.47.38,5.29-.1.29-.19.59-.28.89-.57,1.81-.57,1.81,1.13,2.86l-1.47,1.39,1.64,1.55a16.86,16.86,0,0,1-6.86,0l1.66-1.58-1.51-1.45c.39-.2.59-.32.8-.41a1.08,1.08,0,0,0,.65-1.59c-.3-.78-.5-1.59-.76-2.38a4.86,4.86,0,0,1,.55-4.63,5.14,5.14,0,0,0-1-.88,7.2,7.2,0,0,0-1.35-.33c-.82-.21-.61.41-.76.84A4.81,4.81,0,0,1,317.5,395c-.64.34-1.28.7-1.93,1-1.57.78-1.58.78-1,2.61h-2c0,.55,0,1.07.1,1.59s-.29.83-.7.46c-1.34-1.2-2.63-2.46-3.9-3.74-.15-.16-.09-.53-.13-.81H310l-.08-1.83c.22-.06.29-.11.35-.09,1.64.47,1.62.46,2.37-1a15,15,0,0,1,1.55-2.7,11.73,11.73,0,0,1,2.17-1.77c.24-.17.8-.26.8-.35a6.11,6.11,0,0,0-.35-1.76c-.14-.36-.52-.62-.87-1-2.08,1.67-4.22.71-6.34,0-1.74-.55-1.74-.56-2.77,1.36l-1.39-1.7-1.54,1.61a3.7,3.7,0,0,1-.48-1.11c-.31-3.51-.12-5,.68-5.5l1.39,1.51,1.42-1.53c.2.37.33.57.42.78a1.1,1.1,0,0,0,1.59.67c.77-.3,1.58-.52,2.38-.75C313.91,380.2,314.27,380.74,316,381.45Zm9.1-4.6a6.74,6.74,0,0,0-6.58,6.68,6.64,6.64,0,0,0,6.63,6.7,6.76,6.76,0,0,0,6.76-6.51A7,7,0,0,0,325.07,376.85Z"/><path class="cls-2" d="M325.22,379a4.62,4.62,0,0,1-.1,9.23,4.62,4.62,0,1,1,.1-9.23Zm2.5,4.63a2.57,2.57,0,1,0-2.59,2.55A2.5,2.5,0,0,0,327.72,383.58Z"/><path class="cls-2" d="M346.36,287.46c0-5.65,0-11.3,0-16.95a8.19,8.19,0,0,0-2.68-6.59,40.38,40.38,0,0,0-7.9-5.38c-8.12-3.88-16.88-5.59-25.71-7a262.57,262.57,0,0,0-37.23-3.17c-7.64-.13-15.29.24-22.93.58-6.69.29-13.35.82-20,1.69a37.38,37.38,0,0,1,2.79,7.11,192.05,192.05,0,0,1,30.35-2.39c15.47,0,26.9.52,38.22,2.35,8.5,1.37,16.93,3.11,24.79,6.83a22.43,22.43,0,0,1,4.26,2.61c2.36,1.85,2.45,3.83-.1,5.44a46.52,46.52,0,0,1-9.41,4.71c-10.37,3.62-21.16,5.19-32.07,6.19a248.87,248.87,0,0,1-33,.66c0,.14,0,.27,0,.4A24.2,24.2,0,0,1,231.34,309H200.08c.7.36,1.41.71,2.13,1a79.09,79.09,0,0,0,15.95,5.26c12.91,2.9,26.42,4.11,39.63,4.61q4.5.18,9,.19a255,255,0,0,0,31.74-1.91c12.64-1.56,25.77-3.82,37.15-9.84,3.24-1.72,6.37-3.86,8.4-6.91C347,297.12,346.35,292.34,346.36,287.46Z"/><path class="cls-2" d="M298.49,275.42c5.2-1.58,7.83-3.41,7.86-5.42,0-1.11-4.47-1.78-8.23-1.22-5.75.85-11.4,1.74-16.89,2.67-3.67.63-3.1,1.73.86,2.26l5,.64c-.63.18-1,.32-1.46.42a98.93,98.93,0,0,1-26.66,1.15c-1.8-.15-3.46-.35-5-.57a23.41,23.41,0,0,1,1.05,3.09C270,279.74,287.62,278.74,298.49,275.42Z"/><path class="cls-2" d="M253.61,266l-5.26-.68c1.23-.17,1.8-.22,2.24-.31,12.17-2.43,29.54-2,39.28,1.08a19.22,19.22,0,0,0,8.46.53c2.8-.47,3.09-1.34.59-2.13q-10.23-3.22-27.18-3.65A131.92,131.92,0,0,0,242.88,263a25.5,25.5,0,0,1,7.26,6.06c1.37-.22,2.76-.43,4.12-.66C258.69,267.71,258.34,266.59,253.61,266Z"/><g id="backup"><path class="cls-2" d="M232.91,268.87c-2.42-11.35-12.79-20-25.57-20a25.39,25.39,0,0,0-22.8,13.36c-10.71,1.34-18.66,9.69-18.66,20,0,11,9.33,20,20.73,20h44.91c9.68,0,17.28-7.35,17.28-16.71C248.8,276.89,241.54,269.54,232.91,268.87Zm-18.66,10v13.37H200.43V278.89H190.06l17.28-16.7,17.27,16.7Z"/></g></svg>