<svg xmlns="http://www.w3.org/2000/svg" viewBox="0 0 216 216" xmlns:v="https://vecta.io/nano"><path d="M52.85 201.56a30.12 30.12 0 0 1-14.79-3.89l3.15-6.48c4.24 2.75 6.94 3.55 11.58 3.55 4.07 0 7.05-1.32 7.05-5.21 0-8.6-20.75-1.32-20.75-18.46 0-7.4 6.25-10.78 14-10.78A31.2 31.2 0 0 1 67 163.44l-2.69 6.42a24.24 24.24 0 0 0-11.24-2.75c-3.33 0-5.91 1.26-5.91 4 0 9.74 20.76 1.71 20.76 18.23.01 9.24-6.76 12.22-15.07 12.22zm18.57-22.41v-6.82h3.84v-9.17h8.08v9.17h7.11v6.82h-7.11v11.29c0 3.16 1 4.3 3 4.3a6.94 6.94 0 0 0 3.56-1.14l1.66 6.47a17.26 17.26 0 0 1-6.71 1.49c-6 0-9.57-2.92-9.57-10.66v-11.75zM112.54 201a10.61 10.61 0 0 1-.58-2.81 9.81 9.81 0 0 1-7.57 3.38c-6.13 0-9.51-3.26-9.51-9.23 0-6.93 5.44-8.65 11.92-8.65a36.73 36.73 0 0 1 5.16.4V182c0-2.35-1.49-3.38-3.67-3.38a3.19 3.19 0 0 0-3.38 2.52l-8.77-1c.92-5.22 6-8.32 12.21-8.32 6.42 0 11.7 3.16 11.7 9.92v9.17a62.93 62.93 0 0 0 .63 10.15zm-4.13-11.69c-3.27 0-5.45.68-5.45 3.09 0 1.61 1.21 2.35 3 2.35 3.21 0 6-2.23 6-5.44zm36.91-8.56a17.12 17.12 0 0 0-7.74-2.17c-1.89 0-3.15.57-3.15 1.77 0 3.62 14.62 1.89 14.62 11.7 0 6.76-5.16 9.51-11.93 9.51-5.1 0-9.17-1.43-12-3.78l3.73-6.19c3 2.06 5.73 3.15 8.37 3.15 1.78 0 3.78-.23 3.78-2.12 0-4.3-14.61-1.6-14.61-12.27 0-6.19 5.5-8.6 11.52-8.6a22.55 22.55 0 0 1 10.43 2.47zm16.22 20.81h-8.08v-41.85h8.08v15.88a10.28 10.28 0 0 1 8-3.26c5.73 0 9.11 3.49 9.11 10.83v18.4h-8.08v-18.23c0-2.92-1.61-4.18-4-4.18-3 0-5 2.52-5 9zM104.56 15.33l-46.3 22.3a8.69 8.69 0 0 0-4.71 5.91l-11.44 50.1a8.71 8.71 0 0 0 1.68 7.36l32.05 40.18a8.7 8.7 0 0 0 6.8 3.28H134a8.73 8.73 0 0 0 6.81-3.28l32-40.18a8.71 8.71 0 0 0 1.68-7.37l-11.44-50.1a8.69 8.69 0 0 0-4.71-5.91l-46.3-22.3a8.71 8.71 0 0 0-7.48.01z" fill="#5b53a3"/><g fill="#fff"><path d="M68.32 83.28l.05-4.49a3 3 0 0 1 .33-1.66c.75-1.13 2-.46 2.88 0a39.29 39.29 0 0 0 4 1.78 52.45 52.45 0 0 0 8.45 2.28l3.47.6a117.63 117.63 0 0 0 25.36 1.11 96 96 0 0 0 15.73-2.14 38.89 38.89 0 0 0 10.92-4c1.38-.8 2.59-.08 2.61 1.55q.06 4.22 0 8.45a1.65 1.65 0 0 1-2.52 1.6 21.88 21.88 0 0 0-25.33 5.15 21.25 21.25 0 0 0-3.26 4.72 2.93 2.93 0 0 1-1.23 1.39 3.44 3.44 0 0 1-1.5.21 138.33 138.33 0 0 1-18.54-1.09l-2.19-.32c-4.94-.76-9.9-1.85-14.3-4.21a11.92 11.92 0 0 1-3.46-2.6c-1.51-1.76-1.55-3.82-1.53-6zm34.33 36.77a109 109 0 0 1-18.36-2c-4.24-.94-9-2-12.57-4.56-1.82-1.31-3.41-3.15-3.38-5.52v-9.44A1.65 1.65 0 0 1 71 96.9c4.53 2.54 9.48 3.76 14.53 4.68a121.33 121.33 0 0 0 21.19 1.71c.76 0 1.65.12 2 .91.39 1 0 2.33-.07 3.34A21.2 21.2 0 0 0 110 116a6.24 6.24 0 0 1 .64 2.67c-.09 1.11-1.08 1.43-2 1.46-2.03.08-4.01.02-5.99-.08zm15.02-10.85a14.63 14.63 0 1 1 14.65 14.42 14.53 14.53 0 0 1-14.65-14.42zm14.63-10.92a10.94 10.94 0 1 0 11.11 10.94 11.05 11.05 0 0 0-11.11-10.94z"/><path d="M130.84 93.86l.53-.38-.39-.34a1.21 1.21 0 0 0 .47-1.49c-.12-.44-.29-.86-.44-1.28a1.51 1.51 0 0 1 .33-1.66 1.55 1.55 0 0 1 1.68-.16 1.46 1.46 0 0 1 .53 2l-.4 1.14a1.21 1.21 0 0 0 .48 1.5l-.39.31.62.51h-3zm.16 31.43l.39-.31-.62-.5h3.12l-.62.48.38.34a1.21 1.21 0 0 0-.48 1.49c.12.42.29.82.43 1.23a1.42 1.42 0 0 1-2 1.86 1.46 1.46 0 0 1-.53-1.95 11.86 11.86 0 0 0 .4-1.14 1.23 1.23 0 0 0-.47-1.5zm-11-5.65l.5.07v-.5l1.85 2 .16-.11h-.61v.44h-.06a1.17 1.17 0 0 0-1.29.65 9.87 9.87 0 0 0-.57 1.18 1.44 1.44 0 0 1-2.82-.28 1.55 1.55 0 0 1 1.08-1.51 8.39 8.39 0 0 0 1.09-.52 1.2 1.2 0 0 0 .67-1.42zm22.72 1.9l.05-.51h-.48l1.84-2v.62h.44v.08a1.12 1.12 0 0 0 .61 1.25 10.55 10.55 0 0 0 1.22.59 1.5 1.5 0 0 1 1 1.53 1.48 1.48 0 0 1-1.32 1.28 1.52 1.52 0 0 1-1.5-1.07 10.81 10.81 0 0 0-.51-1.09 1.22 1.22 0 0 0-1.35-.68zm-.56-24.2l.58.07v-.5c.77.15 1.18-.29 1.5-.88.24-.44.4-.92.67-1.34a1.25 1.25 0 0 1 1.5-.59 1.52 1.52 0 0 1 1.08 1.35 1.57 1.57 0 0 1-1.08 1.42l-.88.39c-.61.32-1.07.75-.92 1.53h-.5v.47l-1.84-2zm-20.29-.43v.49l.59-.06-.08-.08-1.89 2.09v-.58H120a1.3 1.3 0 0 0-.84-1.47c-.45-.25-1-.42-1.38-.69a1.24 1.24 0 0 1-.6-1.46 1.5 1.5 0 0 1 1.31-1.15 1.55 1.55 0 0 1 1.51 1.15 9.07 9.07 0 0 0 .55 1.13 1.21 1.21 0 0 0 1.32.63zm26.48 13.68c-.14-.34-.29-.54-.59-.14v-2.4l.33.2.28-.36a1.27 1.27 0 0 0 1.58.47l1.23-.44a1.44 1.44 0 0 1 1.64.37A1.48 1.48 0 0 1 153 110a1.46 1.46 0 0 1-1.92.5l-1.24-.42a1.2 1.2 0 0 0-1.49.51zm-32.1-2.74c.15.31.27.6.58.12v2.42l-.32-.2-.29.36a1.22 1.22 0 0 0-1.49-.49l-1.28.44a1.5 1.5 0 0 1-1.65-.32 1.53 1.53 0 0 1-.17-1.68 1.46 1.46 0 0 1 2-.53l1.18.41a1.24 1.24 0 0 0 1.44-.53z"/><path d="M128 108.23a1.16 1.16 0 0 0 .56-1.12c0-.11-.1-.28-.19-.3a1.91 1.91 0 0 1-1.32-1l-.53-1c-.39-.8-.39-.8-1.28-.58v-.89h-1c.06-.18.06-.37.16-.47l1.67-1.61c.08-.08.23-.07.35-.1a2.19 2.19 0 0 1 0 .36v.62h.92c-.18.9-.18.9.64 1.3a5.76 5.76 0 0 1 1.13.66 6.18 6.18 0 0 1 .81 1c.07.1.08.35.12.35a1.87 1.87 0 0 0 .79-.1c.47-.24.57-.48.29-1a1.68 1.68 0 0 1-.08-1.35 9 9 0 0 1 .37-1.25c.19-.47.1-.78-.39-.94a2 2 0 0 1-.23-.15l.73-.68-.86-.68a8.14 8.14 0 0 1 3.26 0l-.78.74.7.67-.41.22a.47.47 0 0 0-.27.67l.4 1.3a2.57 2.57 0 0 1-.07 1.71c0 .13-.17.35-.13.38a1.56 1.56 0 0 0 .65.45c.52.14.66.1.84-.47a1.88 1.88 0 0 1 .94-1 8.68 8.68 0 0 1 .85-.46c.83-.41.83-.41.64-1.3h.88v-.67a1.75 1.75 0 0 1 0-.32c.1 0 .24 0 .31.07q.9.84 1.77 1.71c.08.08.05.25.08.41h-1v.86c-.09 0-.12.07-.15.06-.79-.2-.78-.2-1.16.56a4.9 4.9 0 0 1-.59 1 7.66 7.66 0 0 1-1.09 1c-.1.09-.38.11-.38.16a2.57 2.57 0 0 0 .14.82c.2.49.6.47 1 .24a1.59 1.59 0 0 1 1.31-.1l1.16.34c.78.24.78.25 1.34-.66l.48.83.67-.73c.37 0 .35.29.36.55.09 2.06.07 2.27-.34 2.47l-.65-.68-.64.7-.18-.31c-.16-.41-.43-.51-.85-.34s-.73.24-1.1.36a2.19 2.19 0 0 1-2.08-.28l-.23.27c-.55.59-.51 1.08.19 1.32a1.82 1.82 0 0 1 1 .91 8.38 8.38 0 0 1 .53 1c.37.75.37.75 1.24.5v1h.7c.23 0 .24 0 .28.08a.32.32 0 0 1 0 .3l-1.82 1.75c-.19.17-.36.09-.33-.21s0-.47.06-.72h-1l.11-.37a.52.52 0 0 0-.31-.75l-1.45-.77a1.78 1.78 0 0 1-.87-1.24c-.05-.25-.66-.3-1-.07a5.84 5.84 0 0 0-.5.44 2.35 2.35 0 0 1 .17 2.46c0 .14-.08.28-.13.42-.27.84-.27.84.53 1.33l-.69.65.77.72a7.84 7.84 0 0 1-3.2 0l.77-.74-.7-.67a3.27 3.27 0 0 1 .38-.19.52.52 0 0 0 .3-.75c-.14-.36-.23-.74-.36-1.1a2.26 2.26 0 0 1 .26-2.16 2.23 2.23 0 0 0-.48-.41 2.63 2.63 0 0 0-.63-.15c-.38-.1-.28.18-.35.39a2.27 2.27 0 0 1-1.14 1.22l-.9.48c-.74.36-.74.36-.48 1.21h-1v.74c0 .24-.14.39-.33.22l-1.82-1.74c-.07-.08 0-.25-.06-.38h1v-.85c.1 0 .14-.06.16 0 .77.22.76.22 1.11-.48a7 7 0 0 1 .72-1.25 5.45 5.45 0 0 1 1-.83c.11-.08.38-.12.37-.16a2.78 2.78 0 0 0-.16-.82c-.06-.17-.24-.29-.4-.48-1 .78-2 .33-3 0-.81-.25-.81-.26-1.29.64l-.64-.8-.72.75a1.92 1.92 0 0 1-.23-.51c-.14-1.64-.05-2.34.32-2.57l.65.7.66-.71.2.37a.51.51 0 0 0 .74.31c.36-.14.73-.24 1.1-.35a2.28 2.28 0 0 1 2.33.02zm4.24-2.15a3.15 3.15 0 0 0-3.06 3.12 3.08 3.08 0 0 0 3.09 3.12 3.14 3.14 0 0 0 3.14-3 3.27 3.27 0 0 0-3.15-3.24zm.09.99a2.15 2.15 0 0 1 0 4.29 2.15 2.15 0 1 1 0-4.29zm1.16 2.15a1.2 1.2 0 1 0-1.2 1.19 1.16 1.16 0 0 0 1.2-1.19zm8.69-44.78v-7.9a3.8 3.8 0 0 0-1.25-3.07 18.7 18.7 0 0 0-3.69-2.47 43.08 43.08 0 0 0-12-3.26 121.36 121.36 0 0 0-17.34-1.48c-3.56-.06-7.13.11-10.68.27-3.12.14-6.23.38-9.31.79a16.87 16.87 0 0 1 1.3 3.31 89.62 89.62 0 0 1 14.14-1.11 107.05 107.05 0 0 1 17.81 1.09 42.53 42.53 0 0 1 11.55 3.18 10.42 10.42 0 0 1 2 1.22c1.09.86 1.14 1.79-.05 2.54a22.13 22.13 0 0 1-4.38 2.19 62.28 62.28 0 0 1-14.95 2.88 116 116 0 0 1-15.37.31 1.21 1.21 0 0 1 0 .19 11.28 11.28 0 0 1-11.37 11.35H74c.32.16.65.33 1 .48a36.56 36.56 0 0 0 7.43 2.45 103.12 103.12 0 0 0 18.46 2.15c1.4 0 2.81.08 4.21.08a118 118 0 0 0 14.79-.88c5.89-.73 12-1.78 17.3-4.59a10.44 10.44 0 0 0 3.92-3.22c1.36-2 1.06-4.23 1.07-6.5zm-22.3-5.61c2.42-.74 3.65-1.59 3.66-2.53 0-.51-2.08-.82-3.84-.57l-7.86 1.25c-1.71.29-1.45.81.39 1.05l2.32.3-.68.19a45.92 45.92 0 0 1-12.42.54q-1.26-.11-2.34-.27a10.62 10.62 0 0 1 .49 1.44c6.99.61 15.21.15 20.28-1.4zM99 54.42l-2.45-.31 1-.15c5.67-1.13 13.76-.91 18.3.51a8.84 8.84 0 0 0 3.94.24c1.31-.22 1.44-.62.28-1A47.69 47.69 0 0 0 107.42 52a62.15 62.15 0 0 0-13.45 1 12 12 0 0 1 3.38 2.83l1.92-.31c2.06-.28 1.9-.81-.27-1.1zm-9.68 1.36a12 12 0 0 0-11.91-9.34 11.81 11.81 0 0 0-10.62 6.23 9.35 9.35 0 0 0 1 18.67h20.89a7.84 7.84 0 0 0 8-7.78 8 8 0 0 0-7.36-7.78zm-8.69 4.67v6.22h-6.44v-6.22h-4.83l8-7.78 8 7.78z"/></g></svg>