<svg id="Layer_1" data-name="Layer 1" xmlns="http://www.w3.org/2000/svg" xmlns:xlink="http://www.w3.org/1999/xlink" viewBox="0 0 1280 640"><defs><style>.cls-1{fill:#fff;}.cls-2{fill:#0c4cbf;}.cls-3{mask:url(#mask);}</style><mask id="mask" x="470.48" y="38.17" width="339.54" height="330.63" maskUnits="userSpaceOnUse"><g id="mask-2"><polygon id="path-1" class="cls-1" points="810.01 368.8 810.01 38.17 470.48 38.17 470.48 368.8 810.01 368.8"/></g></mask></defs><title>kubepack-1280x640</title><path class="cls-2" d="M431.94,419.22h24.51v58.65c25.36-15.77,47.41-14.27,62.92,3.51s15.83,47.16.54,65.11C504.4,564.69,482.35,566.4,457,551c-.34,2.86-.64,5.49-1,8.67H431.94ZM481.19,491c-13.18.09-23.74,10.46-23.73,23.31,0,13.37,10.57,23.43,24.43,23.27A23,23,0,0,0,505.07,514C504.92,500.86,494.58,490.9,481.19,491Z"/><path class="cls-2" d="M679.8,550.45v53.79H655V468.78h24.14c.34,2.69.71,5.55,1.19,9.28,11.89-9.6,24.77-14,39.72-10.16a43.87,43.87,0,0,1,25.34,17c13.57,18.59,11.64,47.34-4.21,63.73C725.14,565.28,703.17,566.27,679.8,550.45Zm25-13c13.5-.05,23.53-9.9,23.53-23.1S718.15,491.14,704.87,491c-13.54-.12-24.34,10.41-24.17,23.57C680.86,527.32,691.57,537.51,704.75,537.47Z"/><path class="cls-2" d="M843.19,477.39c.23-3.26.41-5.7.62-8.66h24.12v91H844c-.28-2.7-.58-5.54-1-9.37-12.32,10-25.58,14.11-40.74,10.06a43.45,43.45,0,0,1-24.62-16.75C764.06,525,765.86,496,781.48,479.77,797.68,462.92,820.15,461.82,843.19,477.39Zm-24.47,60.26c13.6-.07,23.95-10.49,23.76-23.9a24,24,0,0,0-47.93.32C794.53,527.33,805.18,537.71,818.72,537.65Z"/><path class="cls-2" d="M1012.49,419.37v77c7.63-9.11,13.39-16.57,19.83-23.39a15.75,15.75,0,0,1,9.38-4.57c8.32-.64,16.73-.22,27.09-.22l-35.71,40.5c14.2,16.72,28.31,33.31,43.75,51.48-11.09,0-20.71.31-30.28-.24-2.08-.12-4.25-3.09-5.93-5.11-9-10.84-17.82-21.8-28.19-34.55v39.44H987.7V419.37Z"/><path class="cls-2" d="M640.2,522.38H573.1c3.68,18.72,25.8,21.92,46.65,7.61q7.49,7,14.79,13.8c-14.21,19-46,24-67.42,11-20-12.06-27.61-39.36-17.24-61.56,10.23-21.89,37.14-32.2,61.56-23.6C633.52,477.41,645.75,499.5,640.2,522.38Zm-24.9-16.8c-1-10.34-7.48-15.84-18.88-16.29-13.61-.54-21.39,4.79-23.39,16.29Z"/><path class="cls-2" d="M386.83,468.57h24.41v91.17H387.3c-.26-3.36-.52-6.8-.88-11.56-8.27,9.84-17.89,14.69-30.19,14.11-15.49-.72-26.78-8.52-30.89-23.44a83.18,83.18,0,0,1-2.53-20.23c-.35-16.4-.12-32.82-.12-49.82h25.09c0,9.6,0,19.33,0,29.07,0,6.56-.11,13.14.29,19.69.75,12.05,7.74,19.52,17.89,19.59,11.29.07,19.65-7.21,20.33-19.29.79-13.91.4-27.89.52-41.85C386.84,473.84,386.83,471.66,386.83,468.57Z"/><path class="cls-2" d="M953.79,529.26l17.77,12.42c-10,16.94-31.34,24.07-53,18.19-20.77-5.64-34.82-23.27-35.29-44.28-.5-22.24,12.61-40.13,34.2-46.68,21.24-6.44,42.86.41,54.2,17.68L954,499.15c-13.26-11-29.38-11.44-39.28-.18-7.77,8.82-7.2,23.08.9,31.58C924.86,540.28,939.49,539.91,953.79,529.26Z"/><path class="cls-2" d="M284,559.45q-4.14-6.65-9.76-14.37T262.11,529.5q-6.5-7.85-13.59-15a146.28,146.28,0,0,0-14.18-12.72v57.71H203.66V423.18h30.68V474.4q11.82-12.42,24-26t22.54-25.23h36.41q-13.92,16.57-28,31.86T259.7,485.81a234.22,234.22,0,0,1,31.55,32.36,404.67,404.67,0,0,1,29.21,41.28Z"/><g class="cls-3"><path id="Fill-1" class="cls-2" d="M640.58,38.17h0A33.35,33.35,0,0,0,627,41.24L515.88,94.37a31.08,31.08,0,0,0-17.13,21.29L471.31,234.88a31.1,31.1,0,0,0,6.15,26.78l76.84,95.5a31,31,0,0,0,24.36,11.64H701.83a31,31,0,0,0,24.37-11.64L803,261.66a31,31,0,0,0,6.14-26.78L781.74,115.66a31.09,31.09,0,0,0-17.12-21.29L654,41.24a31.54,31.54,0,0,0-13.39-3.07m0,10.31a21.46,21.46,0,0,1,9,2l111.09,52.91a21.33,21.33,0,0,1,11.41,14.27l27.44,119.21a20.51,20.51,0,0,1-4.17,18l-76.84,95.51a20.91,20.91,0,0,1-16.46,7.9H578.89a20.91,20.91,0,0,1-16.47-7.9l-76.84-95.51a22,22,0,0,1-4.17-18l27.44-119.21a21,21,0,0,1,11.42-14.27L631.35,50.24a26.45,26.45,0,0,1,9.23-1.76"/></g><path class="cls-2" d="M768.69,232.29h-.25c-.26,0-.51,0-.51-.25-.51,0-1-.26-1.53-.26a35.77,35.77,0,0,0-4.85-.51A9.77,9.77,0,0,1,759,231h-.25c-5.36-.51-9.69-1-13.77-2.3a4.94,4.94,0,0,1-2.81-2.8c0-.26-.25-.26-.25-.51l-3.32-1a100.66,100.66,0,0,0-1.78-35.95A105.06,105.06,0,0,0,722.54,155l2.55-2.29v-.51a5.82,5.82,0,0,1,1.27-3.83c3.06-2.8,6.89-5.09,11.48-7.9.76-.51,1.53-.76,2.29-1.28a37.59,37.59,0,0,0,4.34-2.54c.25-.26.76-.51,1.27-1,.26-.26.51-.26.51-.51,3.57-3.06,4.34-8.16,1.79-11.48a7.27,7.27,0,0,0-5.87-2.8,9.48,9.48,0,0,0-5.61,2l-.5.51c-.51.25-.77.76-1.28,1a38.59,38.59,0,0,0-3.31,3.57,11.59,11.59,0,0,1-1.79,1.78,64.12,64.12,0,0,1-10.2,9.18,4.11,4.11,0,0,1-2.29.77,3.18,3.18,0,0,1-1.53-.26h-.51l-3.06,2a124.66,124.66,0,0,0-10.46-9.69,101.8,101.8,0,0,0-53.29-21.16l-.25-3.32-.51-.51a5.27,5.27,0,0,1-2-3.31,88.8,88.8,0,0,1,.76-13.77V89.5a9.31,9.31,0,0,1,.51-2.55c.26-1.52.51-3.06.77-4.84v-2.3A7.78,7.78,0,0,0,634.06,74a8.07,8.07,0,0,0-2.29,5.86v2a14.86,14.86,0,0,0,.76,4.85c.26.76.26,1.53.51,2.55v.25c.51,5.1,1.28,9.69.77,13.77a5.39,5.39,0,0,1-2,3.32l-.51.51-.26,3.31a128.12,128.12,0,0,0-13.77,2A98.31,98.31,0,0,0,566.75,141l-2.55-1.79h-.51c-.51,0-1,.26-1.53.26a4.2,4.2,0,0,1-2.3-.76,68.45,68.45,0,0,1-10.2-9.44,12,12,0,0,0-1.78-1.78,40.18,40.18,0,0,0-3.32-3.57c-.25-.26-.76-.51-1.27-1-.26-.26-.51-.26-.51-.51a8.85,8.85,0,0,0-5.61-2,7.27,7.27,0,0,0-5.87,2.8c-2.55,3.32-1.78,8.41,1.79,11.47.25,0,.25.26.51.26.51.26.76.77,1.27,1a39.21,39.21,0,0,0,4.34,2.55,10.14,10.14,0,0,1,2.29,1.28c4.59,2.8,8.42,5.1,11.48,7.9a4.69,4.69,0,0,1,1.27,3.82V152l2.55,2.3a8.55,8.55,0,0,0-1.27,2,99.27,99.27,0,0,0-14.28,67.31l-3.32,1c0,.26-.25.26-.25.51a6,6,0,0,1-2.81,2.81c-3.82,1.27-8.41,1.78-13.76,2.29h-.26a8.51,8.51,0,0,0-2.55.26,34,34,0,0,0-4.84.51c-.51,0-1,.25-1.53.25a.94.94,0,0,0-.77.26,8.36,8.36,0,0,0-6.63,9.43c.77,3.57,4.08,5.87,8.16,5.87a5.49,5.49,0,0,0,2-.26c.26,0,.51,0,.51-.25.51,0,1-.26,1.53-.26a24.75,24.75,0,0,0,4.59-1.78c.76-.26,1.53-.77,2.29-1h.26c4.84-1.79,9.18-3.32,13.26-3.83h.51a5.65,5.65,0,0,1,3.31,1.28c.26,0,.26.25.51.25l3.57-.51a100.83,100.83,0,0,0,33.41,47.94,102.61,102.61,0,0,0,11,7.39l-1.53,3.32c0,.25.26.25.26.51a5.28,5.28,0,0,1,.5,4.08,71.4,71.4,0,0,1-6.62,12v.26c-.51.76-1,1.27-1.53,2-1,1.27-1.79,2.55-2.81,4.08a5.42,5.42,0,0,0-.76,1.27.87.87,0,0,1-.26.51c-2,4.34-.51,9.18,3.32,11a6.78,6.78,0,0,0,3.06.76,9.17,9.17,0,0,0,7.65-4.84.88.88,0,0,1,.25-.51,6.15,6.15,0,0,1,.76-1.28,44,44,0,0,0,1.53-4.59l.77-2.29c1.79-5.1,3.06-9.18,5.35-12.75,1-1.53,2.3-1.79,3.32-2.3.25,0,.25,0,.51-.25l1.78-3.32a99.52,99.52,0,0,0,35.7,6.63,92.32,92.32,0,0,0,22.19-2.55,112.65,112.65,0,0,0,13.25-3.82l1.53,2.8c.26,0,.26,0,.51.26a4.7,4.7,0,0,1,3.32,2.29c2,3.57,3.57,7.91,5.35,12.75v.26l.77,2.29a31.68,31.68,0,0,0,1.53,4.59c.25.51.51.77.76,1.28a.91.91,0,0,0,.26.51,8.66,8.66,0,0,0,7.65,4.84,6.78,6.78,0,0,0,3.06-.76,7.6,7.6,0,0,0,3.82-4.59,9.24,9.24,0,0,0-.51-6.38c0-.25-.25-.25-.25-.51a5.41,5.41,0,0,0-.77-1.27,22.64,22.64,0,0,0-2.8-4.08c-.51-.77-1-1.28-1.53-2v-.26c-2.81-4.33-5.36-8.16-6.63-12-.51-1.79,0-2.81.25-4.08,0-.26.26-.26.26-.51L691.43,296A101.14,101.14,0,0,0,735.8,240.2l3.06.51c.26,0,.26-.26.51-.26,1-.51,1.78-1.27,3.31-1.27h.51c4.08.51,8.42,2,13.26,3.82h.26c.76.26,1.53.77,2.29,1a24.34,24.34,0,0,0,4.59,1.79c.51,0,1,.25,1.53.25a.94.94,0,0,1,.77.26,5.69,5.69,0,0,0,2,.25,8.59,8.59,0,0,0,8.16-5.86C776.09,237.65,773.28,233.57,768.69,232.29ZM639.74,291a81,81,0,1,1,81-81A81,81,0,0,1,639.74,291Z"/><polygon class="cls-2" points="588.78 173.46 639.16 154 689.77 173.46 639.27 194 588.78 173.46"/><polygon class="cls-2" points="588.78 175.46 635.28 205.33 635.28 264.64 588.78 235.79 588.78 175.46"/><polygon class="cls-2" points="644.3 264.64 690.81 234.77 690.81 175.46 644.3 204.31 644.3 264.64"/></svg>