<svg id="Layer_1" data-name="Layer 1" xmlns="http://www.w3.org/2000/svg" xmlns:xlink="http://www.w3.org/1999/xlink" viewBox="0 0 185.39 40"><defs><style>.cls-1{fill:#fff;}.cls-2{mask:url(#mask);}.cls-3{fill:#0c4cbf;}</style><mask id="mask" x="1" y="4.96" width="32.01" height="31.17" maskUnits="userSpaceOnUse"><g id="mask-2"><polygon id="path-1" class="cls-1" points="33.01 36.13 33.01 4.96 1 4.96 1 36.13 33.01 36.13"/></g></mask></defs><title>kubepack-logo</title><g class="cls-2"><path id="Fill-1" class="cls-3" d="M17,5h0a3.11,3.11,0,0,0-1.29.29l-10.47,5a2.88,2.88,0,0,0-1.61,2L1.08,23.5A2.94,2.94,0,0,0,1.66,26L8.9,35a2.94,2.94,0,0,0,2.3,1.1H22.81a2.94,2.94,0,0,0,2.3-1.1l7.24-9a2.92,2.92,0,0,0,.58-2.53L30.34,12.26a2.88,2.88,0,0,0-1.61-2l-10.43-5A2.91,2.91,0,0,0,17,5m0,1a1.88,1.88,0,0,1,.84.19l10.48,5a2,2,0,0,1,1.07,1.34L32,23.69a1.94,1.94,0,0,1-.39,1.7l-7.25,9a2,2,0,0,1-1.55.74H11.22a2,2,0,0,1-1.55-.74l-7.25-9A2.1,2.1,0,0,1,2,23.69L4.62,12.45a2,2,0,0,1,1.07-1.34l10.48-5A2.36,2.36,0,0,1,17,5.93"/></g><path class="cls-3" d="M29.11,23.26h0s-.05,0-.05,0-.09,0-.14,0a4,4,0,0,0-.46-.05,1.1,1.1,0,0,1-.24,0h0a6.38,6.38,0,0,1-1.3-.22.49.49,0,0,1-.27-.26s0,0,0-.05l-.31-.1a9.44,9.44,0,0,0-.17-3.39A9.74,9.74,0,0,0,24.76,16l.24-.22v0a.58.58,0,0,1,.12-.36,6.85,6.85,0,0,1,1.09-.74l.21-.12a3.45,3.45,0,0,0,.41-.25,1.2,1.2,0,0,0,.12-.09s.05,0,.05-.05A.8.8,0,0,0,27.17,13a.69.69,0,0,0-.56-.27.87.87,0,0,0-.52.2L26,13c-.05,0-.08.08-.12.1s-.22.22-.32.34a.83.83,0,0,1-.16.17,6.12,6.12,0,0,1-1,.86.35.35,0,0,1-.21.07.39.39,0,0,1-.15,0h0l-.29.19c-.32-.33-.65-.62-1-.91a9.62,9.62,0,0,0-5-2l0-.31,0-.05a.48.48,0,0,1-.2-.31,8.85,8.85,0,0,1,.08-1.3v0a1,1,0,0,1,0-.24c0-.15.05-.29.08-.46V8.88A.78.78,0,0,0,17,8.09a.81.81,0,0,0-.53.24.79.79,0,0,0-.21.55v.2a1.33,1.33,0,0,0,.07.45c0,.08,0,.15,0,.24v0a6.64,6.64,0,0,1,.07,1.3.55.55,0,0,1-.19.31l-.05.05,0,.31a11.47,11.47,0,0,0-1.29.19,9.26,9.26,0,0,0-4.76,2.69l-.24-.16H9.79l-.15,0a.35.35,0,0,1-.21-.07,6,6,0,0,1-1-.89,1.36,1.36,0,0,0-.17-.17c-.1-.12-.2-.22-.32-.34L7.86,13s0,0,0,0a.86.86,0,0,0-.53-.19.68.68,0,0,0-.56.26.81.81,0,0,0,.17,1.08s0,0,0,0,.07.07.12.09a3.61,3.61,0,0,0,.41.24l.22.12a7.2,7.2,0,0,1,1.08.75.44.44,0,0,1,.12.36v0l.24.21a.71.71,0,0,0-.12.2,9.36,9.36,0,0,0-1.35,6.34l-.31.1s0,0,0,.05a.57.57,0,0,1-.27.26,6.14,6.14,0,0,1-1.3.22h0a1,1,0,0,0-.24,0,2.58,2.58,0,0,0-.46.05l-.14,0s0,0-.07,0a.78.78,0,0,0-.63.89.75.75,0,0,0,.77.55.62.62,0,0,0,.19,0s0,0,0,0l.14,0a2.87,2.87,0,0,0,.44-.17,2,2,0,0,0,.21-.1H6a5.72,5.72,0,0,1,1.25-.36h0a.52.52,0,0,1,.31.12s0,0,0,0L8,24a9.6,9.6,0,0,0,3.15,4.52,8.92,8.92,0,0,0,1,.69l-.15.32s0,0,0,.05a.46.46,0,0,1,.05.38,6.82,6.82,0,0,1-.62,1.13v0c0,.08-.1.12-.15.2s-.16.24-.26.38a.42.42,0,0,0-.07.12s0,.05,0,.05a.76.76,0,0,0,.32,1,.58.58,0,0,0,.28.07.89.89,0,0,0,.73-.45.08.08,0,0,1,0,0,.42.42,0,0,1,.07-.12c.07-.17.1-.29.15-.43l.07-.22a6.2,6.2,0,0,1,.5-1.2.62.62,0,0,1,.32-.22s0,0,0,0l.17-.31a9.59,9.59,0,0,0,3.37.62,8.65,8.65,0,0,0,2.09-.24A9.35,9.35,0,0,0,20.39,30l.14.26s0,0,0,0a.42.42,0,0,1,.31.21,7.73,7.73,0,0,1,.51,1.21v0l.07.22a3.59,3.59,0,0,0,.14.43l.08.12a.12.12,0,0,0,0,0,.8.8,0,0,0,.72.45.62.62,0,0,0,.29-.07.7.7,0,0,0,.36-.43.84.84,0,0,0,0-.6s0,0,0-.05a1,1,0,0,0-.07-.12,2.6,2.6,0,0,0-.27-.38l-.14-.2v0A5.23,5.23,0,0,1,21.9,30a.59.59,0,0,1,0-.38s0,0,0-.05l-.12-.29A9.3,9.3,0,0,0,25,26.17,9.1,9.1,0,0,0,26,24l.29.05s0,0,.05,0a.61.61,0,0,1,.31-.12h.05a6,6,0,0,1,1.25.36h0c.08,0,.15.07.22.09a1.61,1.61,0,0,0,.43.17l.15,0a.1.1,0,0,1,.07,0,.42.42,0,0,0,.19,0,.81.81,0,0,0,.77-.56A.91.91,0,0,0,29.11,23.26ZM17,28.79a7.63,7.63,0,1,1,7.63-7.63A7.64,7.64,0,0,1,17,28.79Z"/><polygon class="cls-3" points="12.15 17.71 16.9 15.88 21.67 17.71 16.91 19.65 12.15 17.71"/><polygon class="cls-3" points="12.15 17.9 16.54 20.72 16.54 26.31 12.15 23.59 12.15 17.9"/><polygon class="cls-3" points="17.39 26.31 21.77 23.49 21.77 17.9 17.39 20.62 17.39 26.31"/><path class="cls-3" d="M76.19,8.7H80.3v9.84c4.25-2.65,8-2.4,10.56.59A8.66,8.66,0,0,1,91,30.05c-2.6,3.06-6.3,3.35-10.55.76l-.17,1.46h-4Zm8.26,12a4,4,0,0,0-4,3.91,4,4,0,1,0,4-3.91Z"/><path class="cls-3" d="M117.78,30.72v9h-4.16V17h4l.2,1.56a7.25,7.25,0,0,1,6.67-1.7,7.37,7.37,0,0,1,4.25,2.85,8.67,8.67,0,0,1-.7,10.69C125.39,33.21,121.7,33.37,117.78,30.72ZM122,28.54a3.82,3.82,0,0,0,4-3.88A3.87,3.87,0,0,0,122,20.75a3.9,3.9,0,1,0,0,7.79Z"/><path class="cls-3" d="M145.19,18.46,145.3,17h4V32.27h-4l-.16-1.57a7.41,7.41,0,0,1-11-1.12,8.74,8.74,0,0,1,.64-10.72C137.56,16,141.33,15.85,145.19,18.46Zm-4.1,10.11a3.92,3.92,0,0,0,4-4,4,4,0,0,0-8.05.05A4,4,0,0,0,141.09,28.57Z"/><path class="cls-3" d="M173.6,8.72V21.64c1.28-1.52,2.25-2.78,3.33-3.92a2.66,2.66,0,0,1,1.58-.77c1.39-.1,2.8,0,4.54,0l-6,6.79,7.34,8.64c-1.86,0-3.47,0-5.08,0-.35,0-.71-.52-1-.86-1.5-1.82-3-3.66-4.73-5.79v6.61h-4.15V8.72Z"/><path class="cls-3" d="M111.13,26H99.87c.62,3.14,4.33,3.68,7.83,1.28l2.48,2.31c-2.38,3.19-7.71,4-11.31,1.85A8.16,8.16,0,0,1,96,21.12a8.28,8.28,0,0,1,10.33-4A7.4,7.4,0,0,1,111.13,26ZM107,23.19c-.17-1.74-1.26-2.66-3.17-2.74-2.29-.09-3.59.81-3.93,2.74Z"/><path class="cls-3" d="M68.62,17h4.09v15.3h-4l-.15-1.94a6,6,0,0,1-5.07,2.37,5.21,5.21,0,0,1-5.18-3.94,14.31,14.31,0,0,1-.43-3.39c0-2.76,0-5.51,0-8.36h4.21c0,1.61,0,3.24,0,4.87,0,1.11,0,2.21,0,3.31.13,2,1.3,3.27,3,3.29a3.24,3.24,0,0,0,3.41-3.24c.13-2.34.07-4.68.09-7Z"/><path class="cls-3" d="M163.75,27.16l3,2.09c-1.69,2.84-5.26,4-8.89,3a7.86,7.86,0,0,1-5.93-7.43A7.77,7.77,0,0,1,157.66,17a7.89,7.89,0,0,1,9.1,3l-3,2.11c-2.22-1.85-4.93-1.92-6.59,0a4,4,0,0,0,.15,5.3C158.9,29,161.35,29,163.75,27.16Z"/><path class="cls-3" d="M51.36,32.23c-.46-.75-1-1.55-1.64-2.41s-1.3-1.74-2-2.62-1.49-1.72-2.28-2.52A25.37,25.37,0,0,0,43,22.54v9.69H37.88V9.36H43V18c1.32-1.39,2.67-2.85,4-4.37s2.63-2.92,3.78-4.23H57c-1.55,1.86-3.12,3.64-4.69,5.35s-3.24,3.43-5,5.16a39.69,39.69,0,0,1,5.3,5.43,67.78,67.78,0,0,1,4.9,6.93Z"/></svg>