<svg id="Layer_1" data-name="Layer 1" xmlns="http://www.w3.org/2000/svg" xmlns:xlink="http://www.w3.org/1999/xlink" viewBox="0 0 1280 640"><defs><style>.cls-1{fill:#fff;}.cls-2{mask:url(#mask);}.cls-3{fill:#0c4cbf;}</style><mask id="mask" x="142.39" y="225.52" width="173.78" height="169.22" maskUnits="userSpaceOnUse"><g id="mask-2"><polygon id="path-1" class="cls-1" points="316.17 394.74 316.17 225.52 142.39 225.52 142.39 394.74 316.17 394.74"/></g></mask></defs><title>kubepack-logo-1280x640</title><g class="cls-2"><path id="Fill-1" class="cls-3" d="M229.45,225.52h0a17,17,0,0,0-7,1.57l-56.85,27.19a15.91,15.91,0,0,0-8.77,10.9l-14.05,61A15.93,15.93,0,0,0,146,339.9l39.33,48.88a15.87,15.87,0,0,0,12.47,6h63a15.87,15.87,0,0,0,12.47-6L312.6,339.9a15.84,15.84,0,0,0,3.14-13.71l-14-61a15.94,15.94,0,0,0-8.77-10.9L236.3,227.09a16.09,16.09,0,0,0-6.85-1.57m0,5.28a11,11,0,0,1,4.61,1l56.85,27.08a10.91,10.91,0,0,1,5.84,7.3l14.05,61a10.49,10.49,0,0,1-2.14,9.21L269.34,385.3a10.73,10.73,0,0,1-8.43,4h-63a10.71,10.71,0,0,1-8.42-4l-39.33-48.88a11.28,11.28,0,0,1-2.14-9.21l14.05-61a10.73,10.73,0,0,1,5.84-7.3l56.86-27.19a13.37,13.37,0,0,1,4.72-.9"/></g><path class="cls-3" d="M295,324.87h-.13c-.13,0-.26,0-.26-.13-.26,0-.52-.13-.78-.13a18.05,18.05,0,0,0-2.48-.26,4.91,4.91,0,0,1-1.31-.13h-.13a34.63,34.63,0,0,1-7.05-1.17,2.57,2.57,0,0,1-1.43-1.44c0-.13-.13-.13-.13-.26l-1.7-.52a51.76,51.76,0,0,0-.91-18.4,53.91,53.91,0,0,0-7.31-17.1l1.3-1.17v-.27a2.9,2.9,0,0,1,.66-1.95,37.7,37.7,0,0,1,5.87-4.05c.39-.26.78-.39,1.17-.65a17.64,17.64,0,0,0,2.22-1.31c.13-.13.39-.26.65-.52s.27-.13.27-.26a4.37,4.37,0,0,0,.91-5.87,3.7,3.7,0,0,0-3-1.44,4.78,4.78,0,0,0-2.87,1.05l-.26.26c-.26.13-.4.39-.66.52A20.23,20.23,0,0,0,276,271.5a5.67,5.67,0,0,1-.92.91,32.89,32.89,0,0,1-5.22,4.7,2.1,2.1,0,0,1-1.17.39,1.65,1.65,0,0,1-.78-.13h-.27l-1.56,1a67,67,0,0,0-5.35-5,52.27,52.27,0,0,0-27.28-10.83l-.13-1.69-.26-.27a2.72,2.72,0,0,1-1-1.69,46,46,0,0,1,.39-7.05v-.13a4.62,4.62,0,0,1,.26-1.3c.13-.79.26-1.57.39-2.48v-1.18a4,4,0,0,0-6.92-3,4.14,4.14,0,0,0-1.17,3v1a7.57,7.57,0,0,0,.39,2.47c.13.4.13.79.26,1.31v.13a33.86,33.86,0,0,1,.39,7,2.72,2.72,0,0,1-1,1.69l-.26.27-.13,1.69a63.46,63.46,0,0,0-7.05,1.05,50.24,50.24,0,0,0-25.84,14.61l-1.3-.91h-.26c-.26,0-.53.13-.79.13a2.1,2.1,0,0,1-1.17-.39,34.28,34.28,0,0,1-5.22-4.83,5.67,5.67,0,0,0-.92-.91,20.23,20.23,0,0,0-1.69-1.83c-.13-.13-.39-.26-.65-.52s-.27-.13-.27-.26a4.54,4.54,0,0,0-2.87-1.05,3.7,3.7,0,0,0-3,1.44,4.37,4.37,0,0,0,.91,5.87c.14,0,.14.13.27.13s.39.39.65.52a18.94,18.94,0,0,0,2.22,1.31,5.27,5.27,0,0,1,1.17.65,37,37,0,0,1,5.87,4.05,2.36,2.36,0,0,1,.66,1.95v.26l1.3,1.18a4.56,4.56,0,0,0-.65,1,50.8,50.8,0,0,0-7.31,34.46l-1.7.52c0,.13-.13.13-.13.26a3,3,0,0,1-1.43,1.43,32.47,32.47,0,0,1-7,1.18h-.13a4.42,4.42,0,0,0-1.3.13,17.74,17.74,0,0,0-2.48.26c-.26,0-.52.13-.79.13a.48.48,0,0,0-.39.13,4.28,4.28,0,0,0-3.39,4.83,4,4,0,0,0,4.17,3,2.89,2.89,0,0,0,1-.13c.13,0,.26,0,.26-.13.26,0,.52-.13.78-.13a12.35,12.35,0,0,0,2.35-.91c.39-.13.78-.4,1.18-.53h.13a32.08,32.08,0,0,1,6.78-2h.26a2.9,2.9,0,0,1,1.7.65c.13,0,.13.13.26.13l1.83-.26a51.55,51.55,0,0,0,17.09,24.53,53.19,53.19,0,0,0,5.62,3.79l-.79,1.69c0,.13.13.13.13.26a2.66,2.66,0,0,1,.26,2.09,36.23,36.23,0,0,1-3.39,6.14v.13c-.26.39-.52.65-.78,1-.52.65-.91,1.31-1.44,2.09a2.84,2.84,0,0,0-.39.65.45.45,0,0,1-.13.26,4.13,4.13,0,0,0,1.7,5.61,3.48,3.48,0,0,0,1.56.4,4.7,4.7,0,0,0,3.92-2.48.5.5,0,0,1,.13-.27,2.84,2.84,0,0,1,.39-.65,23.84,23.84,0,0,0,.78-2.35l.4-1.17a30.33,30.33,0,0,1,2.74-6.53,3.34,3.34,0,0,1,1.69-1.17c.13,0,.13,0,.26-.13l.92-1.7a50.93,50.93,0,0,0,18.27,3.4,47.53,47.53,0,0,0,11.35-1.31,57.23,57.23,0,0,0,6.79-2l.78,1.44c.13,0,.13,0,.26.13a2.43,2.43,0,0,1,1.7,1.17,46.07,46.07,0,0,1,2.74,6.53v.13l.39,1.17a16.17,16.17,0,0,0,.78,2.35c.13.26.26.39.39.65a.45.45,0,0,0,.14.27,4.43,4.43,0,0,0,3.91,2.48,3.55,3.55,0,0,0,1.57-.4,3.86,3.86,0,0,0,1.95-2.35,4.73,4.73,0,0,0-.26-3.26c0-.13-.13-.13-.13-.26a2.84,2.84,0,0,0-.39-.65,11.39,11.39,0,0,0-1.44-2.09c-.26-.39-.52-.65-.78-1v-.13a29.41,29.41,0,0,1-3.39-6.14,3.66,3.66,0,0,1,.13-2.09c0-.13.13-.13.13-.26l-.65-1.56a51.83,51.83,0,0,0,22.7-28.58l1.57.26c.13,0,.13-.13.26-.13a3.34,3.34,0,0,1,1.7-.65H282a32.16,32.16,0,0,1,6.79,2h.13c.39.13.78.39,1.17.52a12,12,0,0,0,2.35.92c.26,0,.52.13.78.13a.48.48,0,0,1,.39.13,2.94,2.94,0,0,0,1.05.13,4.37,4.37,0,0,0,4.17-3A5,5,0,0,0,295,324.87Zm-66,30a41.44,41.44,0,1,1,41.44-41.44A41.44,41.44,0,0,1,229,354.9Z"/><polygon class="cls-3" points="202.94 294.76 228.72 284.8 254.62 294.76 228.78 305.27 202.94 294.76"/><polygon class="cls-3" points="202.94 295.78 226.74 311.07 226.74 341.43 202.94 326.66 202.94 295.78"/><polygon class="cls-3" points="231.35 341.43 255.16 326.14 255.16 295.78 231.35 310.55 231.35 341.43"/><path class="cls-3" d="M550.57,245.81H572.9v53.44c23.1-14.37,43.19-13,57.32,3.2s14.42,43,.49,59.31c-14.13,16.58-34.21,18.14-57.27,4.13-.31,2.61-.58,5-.92,7.9H550.57Zm44.87,65.39a21.44,21.44,0,0,0-21.61,21.23c0,12.19,9.62,21.34,22.25,21.2a20.94,20.94,0,0,0,21.11-21.5C617.06,320.19,607.64,311.12,595.44,311.2Z"/><path class="cls-3" d="M776.37,365.36v49H753.82V291h22c.32,2.44.66,5,1.1,8.45,10.83-8.75,22.55-12.77,36.17-9.26a40,40,0,0,1,23.09,15.49c12.36,16.94,10.61,43.13-3.83,58.06C817.67,378.87,797.66,379.78,776.37,365.36Zm22.73-11.82c12.3,0,21.43-9,21.43-21s-9.22-21.17-21.32-21.27c-12.33-.11-22.17,9.48-22,21.47C777.34,344.29,787.1,353.58,799.1,353.54Z"/><path class="cls-3" d="M925.22,298.81c.21-3,.37-5.2.56-7.89h22V373.8H926c-.26-2.46-.53-5-.9-8.53-11.23,9.09-23.3,12.85-37.11,9.15a39.56,39.56,0,0,1-22.44-15.25c-12.38-17-10.73-43.41,3.49-58.2C883.76,285.62,904.23,284.62,925.22,298.81Zm-22.3,54.89c12.4-.06,21.83-9.55,21.65-21.77a21.83,21.83,0,0,0-43.66.29C880.89,344.3,890.59,353.76,902.92,353.7Z"/><path class="cls-3" d="M1079.45,246v70.16c7-8.3,12.2-15.1,18.07-21.31a14.31,14.31,0,0,1,8.54-4.17c7.58-.58,15.24-.19,24.68-.19l-32.53,36.89,39.86,46.9c-10.11,0-18.87.28-27.59-.22-1.89-.11-3.87-2.81-5.4-4.66-8.18-9.87-16.23-19.86-25.68-31.47v35.93h-22.53V246Z"/><path class="cls-3" d="M740.29,339.8H679.17c3.36,17.05,23.5,20,42.49,6.93l13.48,12.57c-12.95,17.31-41.88,21.82-61.42,10-18.18-11-25.15-35.86-15.7-56.08,9.32-19.94,33.83-29.34,56.07-21.5C734.21,298.83,745.36,319,740.29,339.8Zm-22.67-15.31c-.89-9.42-6.82-14.43-17.2-14.84-12.4-.5-19.49,4.36-21.31,14.84Z"/><path class="cls-3" d="M509.48,290.77h22.23v83.06H509.9c-.23-3.06-.46-6.19-.79-10.53-7.54,9-16.3,13.38-27.51,12.85-14.11-.66-24.39-7.76-28.14-21.35a76,76,0,0,1-2.3-18.43c-.32-14.95-.11-29.9-.11-45.39H473.9c0,8.75,0,17.62,0,26.48,0,6-.1,12,.27,17.94.68,11,7.05,17.78,16.3,17.84,10.28.07,17.9-6.56,18.52-17.56.71-12.68.36-25.42.47-38.13C509.49,295.57,509.48,293.58,509.48,290.77Z"/><path class="cls-3" d="M1026,346.06l16.19,11.31c-9.14,15.44-28.54,21.93-48.26,16.57-18.92-5.13-31.72-21.19-32.15-40.33-.45-20.26,11.49-36.56,31.16-42.53,19.35-5.87,39,.38,49.37,16.11l-16.15,11.44c-12.08-10.05-26.77-10.42-35.79-.16-7.07,8-6.55,21,.83,28.76C999.62,356.1,1013,355.77,1026,346.06Z"/><path class="cls-3" d="M415.79,373.56q-3.77-6-8.89-13.09t-11-14.19q-5.91-7.14-12.38-13.71A132.13,132.13,0,0,0,370.56,321v52.57H342.61V249.43h27.95v46.65q10.77-11.31,21.89-23.68t20.54-23h33.16q-12.67,15.09-25.49,29t-27,28A212.78,212.78,0,0,1,422.4,336,367.5,367.5,0,0,1,449,373.56Z"/></svg>