<svg xmlns="http://www.w3.org/2000/svg" viewBox="0 0 216 216" xmlns:v="https://vecta.io/nano"><defs><mask id="A" x="42.03" y="19" width="131.94" height="128.48" maskUnits="userSpaceOnUse"><path d="M173.97 147.48V19H42.03v128.48h131.94z" fill="#fff"/></mask></defs><g mask="url(#A)"><path d="M108.13,19h0a12.87,12.87,0,0,0-5.29,1.2L59.67,40.84A12.08,12.08,0,0,0,53,49.12L42.35,95.44a12.11,12.11,0,0,0,2.39,10.41L74.6,143a12,12,0,0,0,9.47,4.52h47.86A12,12,0,0,0,141.4,143l29.86-37.11a12,12,0,0,0,2.39-10.41L163,49.12a12.08,12.08,0,0,0-6.65-8.28l-43-20.64a12.19,12.19,0,0,0-5.2-1.2m0,4a8.4,8.4,0,0,1,3.5.77l43.16,20.56a8.29,8.29,0,0,1,4.44,5.55l10.66,46.32a8,8,0,0,1-1.62,7l-29.86,37.11a8.12,8.12,0,0,1-6.4,3.07H84.16a8.12,8.12,0,0,1-6.4-3.07L47.9,103.21a8.55,8.55,0,0,1-1.62-7L56.94,49.89a8.16,8.16,0,0,1,4.44-5.55L104.54,23.7a10.22,10.22,0,0,1,3.59-.69" fill="#0c4cbf"/></g><path d="M157.91 94.44h-.1c-.1 0-.2 0-.2-.1-.19 0-.39-.1-.59-.1a13.4 13.4 0 0 0-1.88-.2 3.65 3.65 0 0 1-1-.1h-.1a25.26 25.26 0 0 1-5.35-.89 1.91 1.91 0 0 1-1.08-1.05c0-.1-.1-.1-.1-.2l-1.29-.39a39.31 39.31 0 0 0-.69-14 40.94 40.94 0 0 0-5.55-13l1-.89v-.2a2.28 2.28 0 0 1 .49-1.49 29.14 29.14 0 0 1 4.46-3.07c.3-.2.6-.3.89-.5a13.48 13.48 0 0 0 1.69-1 5.75 5.75 0 0 0 .49-.39c.1-.1.2-.1.2-.2a3.31 3.31 0 0 0 .7-4.46 2.84 2.84 0 0 0-2.28-1.09 3.71 3.71 0 0 0-2.18.79l-.2.2c-.2.1-.3.3-.5.4a16.11 16.11 0 0 0-1.28 1.38 4.62 4.62 0 0 1-.7.7 24.93 24.93 0 0 1-4 3.56 1.58 1.58 0 0 1-.89.3 1.27 1.27 0 0 1-.6-.1h-.19l-1.19.8a47.83 47.83 0 0 0-4.07-3.77 39.53 39.53 0 0 0-20.7-8.22l-.1-1.29-.2-.2a2 2 0 0 1-.79-1.29 34.37 34.37 0 0 1 .29-5.35V39a3.56 3.56 0 0 1 .2-1l.3-1.88v-.89a3.2 3.2 0 0 0-3.07-3.27 3.21 3.21 0 0 0-3.07 3.27V36a5.7 5.7 0 0 0 .29 1.88c.1.3.1.6.2 1V39a25.37 25.37 0 0 1 .3 5.35 2.1 2.1 0 0 1-.79 1.29l-.2.2-.1 1.29a49 49 0 0 0-5.35.79A38.16 38.16 0 0 0 79.44 59l-1-.7h-.2c-.2 0-.4.1-.59.1a1.68 1.68 0 0 1-.9-.29 27.09 27.09 0 0 1-4-3.67 4.09 4.09 0 0 0-.69-.69 16.48 16.48 0 0 0-1.29-1.39c-.1-.1-.3-.2-.5-.4s-.19-.1-.19-.2a3.55 3.55 0 0 0-2.08-.82A2.81 2.81 0 0 0 65.67 52a3.31 3.31 0 0 0 .69 4.46c.1 0 .1.1.2.1s.3.3.49.4a16.48 16.48 0 0 0 1.69 1 3.94 3.94 0 0 1 .89.49 29.14 29.14 0 0 1 4.46 3.07 1.84 1.84 0 0 1 .49 1.48v.2l1 .89a4.05 4.05 0 0 0-.49.79 38.61 38.61 0 0 0-5.55 26.16l-1.29.4c0 .1-.1.1-.1.19a2.2 2.2 0 0 1-1.09 1.09 24.75 24.75 0 0 1-5.35.9h-.1a3.37 3.37 0 0 0-1 .1 13.3 13.3 0 0 0-1.88.19c-.2 0-.39.1-.59.1a.37.37 0 0 0-.3.1 3.26 3.26 0 0 0-2.58 3.67 3.07 3.07 0 0 0 3.17 2.28 2.2 2.2 0 0 0 .8-.1c.1 0 .19 0 .19-.1.2 0 .4-.1.6-.1a10.14 10.14 0 0 0 1.78-.69c.3-.1.6-.3.89-.4h.1A24.8 24.8 0 0 1 68 97.21h.19a2.17 2.17 0 0 1 1.29.5c.1 0 .1.1.2.1l1.39-.2a39.2 39.2 0 0 0 13 18.63 38.73 38.73 0 0 0 4.26 2.87l-.6 1.29c0 .1.1.1.1.2a2 2 0 0 1 .2 1.58 27.74 27.74 0 0 1-2.58 4.66v.1c-.19.29-.39.49-.59.79-.4.5-.69 1-1.09 1.59a1.9 1.9 0 0 0-.3.49.35.35 0 0 1-.1.2 3.14 3.14 0 0 0 1.29 4.26 2.62 2.62 0 0 0 1.19.3 3.56 3.56 0 0 0 3-1.89.35.35 0 0 1 .1-.19 2.19 2.19 0 0 1 .3-.5 16 16 0 0 0 .59-1.78l.3-.89a23.13 23.13 0 0 1 2.08-5 2.58 2.58 0 0 1 1.29-.89c.1 0 .1 0 .2-.1l.69-1.29a38.61 38.61 0 0 0 13.87 2.58 36.08 36.08 0 0 0 8.62-1 44.07 44.07 0 0 0 5.16-1.49l.59 1.09c.1 0 .1 0 .2.1a1.87 1.87 0 0 1 1.29.89 34.82 34.82 0 0 1 2.08 5v.1l.29.89a12.43 12.43 0 0 0 .5 1.8c.1.2.2.3.3.5a.31.31 0 0 0 .1.19 3.36 3.36 0 0 0 3 1.89 2.65 2.65 0 0 0 1.19-.3 3 3 0 0 0 1.48-1.78 3.56 3.56 0 0 0-.2-2.48c0-.1-.09-.1-.09-.2a2.09 2.09 0 0 0-.3-.49 9.5 9.5 0 0 0-1.09-1.59c-.2-.3-.4-.5-.6-.79v-.1a22 22 0 0 1-2.57-4.66 2.72 2.72 0 0 1 .1-1.58c0-.1.1-.1.1-.2l-.5-1.19a39.27 39.27 0 0 0 17.24-21.7l1.19.2c.1 0 .1-.1.2-.1a2.47 2.47 0 0 1 1.29-.5h.16a24.8 24.8 0 0 1 5.16 1.49h.1c.29.1.59.3.89.4a10.14 10.14 0 0 0 1.78.69c.2 0 .4.1.59.1a.37.37 0 0 1 .3.1 2.18 2.18 0 0 0 .79.1 3.35 3.35 0 0 0 3.18-2.28 3.81 3.81 0 0 0-2.88-3.28zm-50.11 22.8a31.46 31.46 0 1 1 31.46-31.46 31.47 31.47 0 0 1-31.46 31.46zM88 71.58l19.58-7.56 19.66 7.56-19.62 7.98L88 71.58zm0 .77l18.07 11.61v23.05L88 95.8V72.35zm21.58 34.66l18.07-11.61V72.35l-18.07 11.22v23.44zM63.4 157.38h5.25v12.56c5.43-3.38 10.15-3.06 13.47.75a11 11 0 0 1 .11 13.94c-3.32 3.9-8 4.26-13.46 1l-.21 1.86H63.4zm10.54 15.37a5 5 0 0 0-5.08 5 5 5 0 0 0 5.23 5 5.001 5.001 0 1 0-.15-10zm42.53 12.73V197h-5.3v-29h5.17l.25 2c2.55-2.06 5.3-3 8.5-2.18a9.4 9.4 0 0 1 5.43 3.64 11.06 11.06 0 0 1-.9 13.65c-3.44 3.54-8.15 3.76-13.15.37zm5.34-2.78a4.88 4.88 0 0 0 5-4.95 5 5 0 0 0-5-5 5 5 0 1 0 0 9.95zm29.64-12.87l.14-1.85h5.16v19.48h-5.12l-.21-2c-2.64 2.13-5.48 3-8.73 2.15a9.31 9.31 0 0 1-5.27-3.59 11.16 11.16 0 0 1 .82-13.68c3.47-3.6 8.28-3.84 13.21-.51zm-5.24 12.91a5 5 0 0 0 5.09-5.12 5.13 5.13 0 0 0-10.26.07 5 5 0 0 0 5.17 5.05zm41.49-25.33v16.49l4.25-5a3.42 3.42 0 0 1 2-1c1.78-.13 3.58 0 5.8 0l-7.65 8.67 9.37 11c-2.38 0-4.44.07-6.48-.05-.45 0-.92-.66-1.28-1.09l-6-7.4v8.44h-5.3v-30.06zM108 179.47H93.62c.79 4 5.53 4.69 10 1.63l3.17 3c-3 4.07-9.85 5.13-14.44 2.36a10.42 10.42 0 0 1-3.69-13.18c2.19-4.69 7.95-6.9 13.18-5.06a9.45 9.45 0 0 1 6.16 11.25zm-5.33-3.6c-.21-2.21-1.6-3.39-4-3.49-2.92-.11-4.58 1-5 3.49zM53.74 168H59v19.52h-5.16l-.19-2.52a7.53 7.53 0 0 1-6.46 3c-3.32-.15-5.73-1.82-6.62-5a18.1 18.1 0 0 1-.54-4.34c-.07-3.51 0-7 0-10.66h5.37v6.22l.06 4.22c.16 2.58 1.66 4.18 3.83 4.19a4.13 4.13 0 0 0 4.36-4.13c.17-3 .08-6 .11-9zm121.39 12.94l3.81 2.66c-2.15 3.63-6.71 5.15-11.35 3.89a10.09 10.09 0 0 1-.23-19.47c4.55-1.38 9.18.09 11.61 3.78l-3.8 2.7c-2.84-2.37-6.29-2.45-8.41 0a5.13 5.13 0 0 0 .19 6.76c1.99 2.04 5.12 1.96 8.18-.32zm-143.41 6.47l-2.09-3.08L27 181l-2.91-3.22a32.21 32.21 0 0 0-3-2.72v12.36h-6.57v-29.19h6.57v11l5.15-5.56 4.82-5.4h7.8q-3 3.54-6 6.82-3 3.28-6.34 6.59a49.5 49.5 0 0 1 6.75 6.93 85.69 85.69 0 0 1 6.26 8.84z" fill="#0c4cbf"/></svg>