<svg xmlns="http://www.w3.org/2000/svg" viewBox="0 0 1024 1024" xmlns:v="https://vecta.io/nano"><defs><mask id="A" x=".75" y="13.53" width="1023.25" height="996.41" maskUnits="userSpaceOnUse"><path d="M1024 1009.94V13.53H.75v996.41H1024z" fill="#fff"/></mask></defs><g mask="url(#A)"><path d="M513.37,13.53h0a100.15,100.15,0,0,0-41,9.26L137.56,182.91A93.65,93.65,0,0,0,86,247.08L3.25,606.35a93.79,93.79,0,0,0,18.53,80.72L253.34,974.88a93.46,93.46,0,0,0,73.44,35.06H698a93.45,93.45,0,0,0,73.44-35.06L1003,687.07a93.35,93.35,0,0,0,18.53-80.72L938.79,247.08a93.69,93.69,0,0,0-51.61-64.17L553.73,22.79a95,95,0,0,0-40.36-9.26m0,31.09a64.78,64.78,0,0,1,27.13,6L875.28,210c17.2,8.6,30.43,24.49,34.4,43l82.7,359.27a61.88,61.88,0,0,1-12.57,54.25L748.24,954.37a63,63,0,0,1-49.62,23.82H327.45a63,63,0,0,1-49.62-23.82L46.25,666.56a66.31,66.31,0,0,1-12.57-54.25L116.39,253c4.63-19.19,17.2-35.07,34.4-43L485.58,49.92a79.64,79.64,0,0,1,27.79-5.3" fill="#0c4cbf"/></g><path d="M899.47 598.57h-.77c-.77 0-1.54 0-1.54-.77-1.53 0-3.07-.77-4.61-.77-5.38-.77-10-1.54-14.6-1.54a28.75 28.75 0 0 1-7.68-.77h-.77c-16.14-1.53-29.2-3.07-41.5-6.91-5.38-2.31-6.91-5.38-8.45-8.46 0-.76-.77-.76-.77-1.53l-10-3.07a303.89 303.89 0 0 0-5.38-108.36 316.57 316.57 0 0 0-43-100.66l7.69-6.91v-1.54a17.39 17.39 0 0 1 3.84-11.53c9.22-8.45 20.75-15.37 34.58-23.82 2.3-1.54 4.61-2.3 6.91-3.84a117 117 0 0 0 13.07-7.68c.77-.77 2.3-1.54 3.84-3.08.77-.77 1.54-.77 1.54-1.54 10.75-9.22 13.06-24.59 5.37-34.58-3.84-5.38-10.75-8.45-17.67-8.45-6.14 0-11.53 2.31-16.9 6.15l-1.54 1.53c-1.53.77-2.31 2.31-3.84 3.08a124.25 124.25 0 0 0-10 10.76c-1.54 1.53-3.07 3.84-5.38 5.37-10.76 11.53-20.75 20.76-30.74 27.67a12.44 12.44 0 0 1-6.91 2.31 9.6 9.6 0 0 1-4.61-.78h-1.55l-9.23 6.15c-10-10.75-20.74-20-31.5-29.19A306.86 306.86 0 0 0 536.77 232l-.77-10-1.54-1.53c-2.3-2.31-5.37-4.61-6.15-10-.76-12.3.78-26.13 2.31-41.5v-.77a27.29 27.29 0 0 1 1.54-7.68l2.3-14.6V139c0-13.83-10.76-25.35-23.82-25.35-6.15 0-12.29 3.07-16.9 7.68a24.35 24.35 0 0 0-6.92 17.67v6.15a44.92 44.92 0 0 0 2.3 14.6c.77 2.31.77 4.61 1.54 7.69v.76c1.54 15.37 3.84 29.2 2.31 41.5-.77 5.38-3.85 7.68-6.15 10l-1.53 1.54-.78 10c-13.83 1.54-27.66 3.08-41.49 6.15a296.3 296.3 0 0 0-152.15 86.06l-7.68-5.37h-1.54c-1.54 0-3.07.76-4.61.76a12.37 12.37 0 0 1-6.92-2.3c-10-6.91-20-16.91-30.73-28.43-1.54-1.54-3.07-3.84-5.38-5.38A127.54 127.54 0 0 0 224 272c-.76-.77-2.3-1.53-3.83-3.07-.77-.77-1.54-.77-1.54-1.54a26.9 26.9 0 0 0-16.91-6.15c-6.92 0-13.83 3.08-17.67 8.46-7.69 10-5.38 25.35 5.38 34.57.76 0 .76.78 1.53.78 1.54.76 2.31 2.3 3.84 3.07a115.47 115.47 0 0 0 13.07 7.68 31.15 31.15 0 0 1 6.92 3.85c13.82 8.45 25.35 15.36 34.57 23.82 3.85 3.84 3.85 7.68 3.85 11.52v1.54l7.68 6.92c-1.54 2.3-3.07 3.84-3.84 6.14-38.43 60.71-53 132.17-43 202.87l-10 3.07c0 .77-.77.77-.77 1.54a17.89 17.89 0 0 1-8.46 8.45c-11.52 3.84-25.35 5.38-41.49 6.92h-.77a26.06 26.06 0 0 0-7.68.77 104.72 104.72 0 0 0-14.6 1.53c-1.54 0-3.07.77-4.61.77a2.83 2.83 0 0 0-2.31.77c-13.83 3.07-22.29 16.14-20 28.43 2.31 10.76 12.3 17.68 24.59 17.68a16.9 16.9 0 0 0 6.15-.77c.77 0 1.54 0 1.54-.77 1.53 0 3.07-.77 4.6-.77a73 73 0 0 0 13.84-5.38c2.3-.76 4.61-2.3 6.91-3.07h.77c14.6-5.38 27.67-10 40-11.53h1.54c4.61 0 7.68 2.31 10 3.85.76 0 .76.76 1.53.76l10.76-1.53a303.92 303.92 0 0 0 100.63 144.44 311 311 0 0 0 33 22.29l-4.61 10c0 .78.77.78.77 1.54 1.53 3.07 3.07 6.92 1.53 12.3-4.6 11.52-11.52 23-20 36.11v.77c-1.53 2.31-3.07 3.84-4.6 6.15-3.08 3.84-5.38 7.68-8.46 12.29a16.49 16.49 0 0 0-2.3 3.85 2.65 2.65 0 0 1-.77 1.53c-6.15 13.07-1.54 27.67 10 33.05a20.51 20.51 0 0 0 9.22 2.3c9.22 0 18.44-6.15 23.05-14.6a2.69 2.69 0 0 1 .77-1.54 17.35 17.35 0 0 1 2.3-3.84c2.31-5.38 3.08-9.22 4.62-13.83l2.3-6.92c5.38-15.36 9.22-27.66 16.14-38.42 3.07-4.61 6.92-5.38 10-6.92.77 0 .77 0 1.53-.76l5.39-10a300.26 300.26 0 0 0 107.57 20c22.29 0 45.34-2.31 66.86-7.69a340.16 340.16 0 0 0 40-11.52l4.6 8.45c.78 0 .78 0 1.54.77 3.85.76 6.92 2.3 10 6.92 6.15 10.75 10.76 23.82 16.14 38.42v.76l2.31 6.92c1.53 4.61 2.3 9.22 4.6 13.83.78 1.54 1.54 2.31 2.31 3.84a2.69 2.69 0 0 0 .77 1.54 26.1 26.1 0 0 0 23.05 14.6 20.51 20.51 0 0 0 9.22-2.3c5.38-3.08 10-7.69 11.53-13.84s1.54-13.06-1.53-19.21c0-.76-.77-.76-.77-1.53a17.06 17.06 0 0 0-2.31-3.85 70 70 0 0 0-8.45-12.29c-1.54-2.31-3.07-3.84-4.61-6.14v-.78c-8.46-13.06-16.14-24.59-20-36.11-1.54-5.38 0-8.45.77-12.3 0-.76.76-.76.76-1.53l-3.84-9.22c40.73-23.83 75.31-57.64 101.44-99.13a297.82 297.82 0 0 0 32.27-69.16l9.22 1.53c.77 0 .77-.77 1.54-.77 3.07-1.53 5.38-3.83 10-3.83h1.53c12.3 1.53 25.36 6.14 40 11.52h.76c2.31.77 4.61 2.3 6.92 3.07a73.79 73.79 0 0 0 13.83 5.38c1.54 0 3.07.77 4.61.77a2.8 2.8 0 0 1 2.3.77 16.93 16.93 0 0 0 6.15.77c11.53 0 21.52-7.68 24.59-17.67-.03-9.25-8.48-21.55-22.31-25.39zM510.85 775.38c-134.76 0-244-109.24-244-244s109.23-244 244-244 244 109.24 244 244-109.25 244-244 244zM357.27 421.25l151.84-58.63 152.5 58.63-152.17 61.92-152.17-61.92zm0 6.04l140.15 90.03v178.74l-140.15-86.95V427.29zm167.32 268.77l140.15-90.03V427.29l-140.15 86.96v181.81z" fill="#0c4cbf"/></svg>