<svg xmlns="http://www.w3.org/2000/svg" viewBox="0 0 512 512" xmlns:v="https://vecta.io/nano"><defs><mask id="A" x=".28" y="7" width="510.72" height="497.32" maskUnits="userSpaceOnUse"><path d="M511 504.32V7H.28v497.32H511z" fill="#fff"/></mask></defs><g mask="url(#A)"><path d="M256.14,7h0a50,50,0,0,0-20.48,4.62L68.57,91.54a46.75,46.75,0,0,0-25.76,32L1.53,302.88a46.83,46.83,0,0,0,9.25,40.29L126.36,486.82A46.62,46.62,0,0,0,163,504.32H348.27a46.65,46.65,0,0,0,36.66-17.5L500.5,343.17a46.59,46.59,0,0,0,9.25-40.29L468.47,123.57a46.75,46.75,0,0,0-25.76-32L276.28,11.62A47.35,47.35,0,0,0,256.14,7m0,15.52a32.36,32.36,0,0,1,13.54,3l167.09,79.59c8.59,4.29,15.19,12.22,17.17,21.46l41.28,179.32a30.85,30.85,0,0,1-6.28,27.07L373.37,476.58a31.46,31.46,0,0,1-24.77,11.89H163.34a31.44,31.44,0,0,1-24.76-11.89L23,332.93a33.06,33.06,0,0,1-6.27-27.07L58,126.54a31.54,31.54,0,0,1,17.17-21.46l167.1-79.92a39.76,39.76,0,0,1,13.87-2.64" fill="#0c4cbf"/></g><path d="M448.84 299h-.38c-.38 0-.77 0-.77-.38-.76 0-1.53-.39-2.3-.39a52.73 52.73 0 0 0-7.28-.76 14.14 14.14 0 0 1-3.84-.39h-.38c-8.06-.77-14.58-1.53-20.71-3.45a7.42 7.42 0 0 1-4.22-4.22c0-.38-.39-.38-.39-.77l-5-1.53A151.85 151.85 0 0 0 400.9 233a157.84 157.84 0 0 0-21.48-50.24l3.84-3.45v-.77a8.61 8.61 0 0 1 1.92-5.75c4.6-4.22 10.35-7.67 17.26-11.89 1.15-.77 2.3-1.15 3.45-1.92a56.83 56.83 0 0 0 6.52-3.84c.38-.38 1.15-.76 1.92-1.53.38-.38.76-.38.76-.77 5.37-4.6 6.52-12.27 2.69-17.26a10.93 10.93 0 0 0-8.82-4.22 14.23 14.23 0 0 0-8.44 3.07l-.77.77c-.76.38-1.15 1.15-1.91 1.53a62.7 62.7 0 0 0-5 5.37 17.49 17.49 0 0 1-2.69 2.69 97.34 97.34 0 0 1-15.34 13.8 6.17 6.17 0 0 1-3.45 1.16 4.79 4.79 0 0 1-2.3-.39h-.77l-4.6 3.07A187.75 187.75 0 0 0 348 147.89a153.26 153.26 0 0 0-80.16-31.84l-.39-5-.76-.77c-1.16-1.15-2.69-2.3-3.07-5-.39-6.13.38-13 1.15-20.71v-.38a13.84 13.84 0 0 1 .76-3.84l1.16-7.28v-3.42c0-6.91-5.37-12.66-11.89-12.66a12.32 12.32 0 0 0-8.44 3.83 12.17 12.17 0 0 0-3.45 8.83v3.06A22.24 22.24 0 0 0 244 80c.38 1.15.38 2.3.76 3.84v.38c.77 7.67 1.92 14.57 1.16 20.71-.39 2.69-1.92 3.84-3.07 5l-.77.76-.38 5a192.15 192.15 0 0 0-20.7 3.05 147.85 147.85 0 0 0-75.93 43l-3.82-2.74h-.77c-.76 0-1.53.38-2.3.38a6.16 6.16 0 0 1-3.45-1.15c-5-3.45-10-8.44-15.34-14.19a17 17 0 0 0-2.69-2.68 62.65 62.65 0 0 0-5-5.37c-.39-.39-1.15-.77-1.92-1.54-.38-.38-.77-.38-.77-.76a13.32 13.32 0 0 0-8.43-3.07 10.9 10.9 0 0 0-8.83 4.22c-3.83 5-2.68 12.65 2.69 17.25.38 0 .38.39.76.39.77.38 1.16 1.15 1.92 1.53a58.33 58.33 0 0 0 6.52 3.84 15.57 15.57 0 0 1 3.46 1.92c6.9 4.21 12.65 7.67 17.25 11.89 1.92 1.91 1.92 3.83 1.92 5.75v.76l3.84 3.46a13.26 13.26 0 0 0-1.92 3.07A149.38 149.38 0 0 0 106.73 286l-5 1.53c0 .39-.39.39-.39.77a8.91 8.91 0 0 1-4.22 4.22c-5.75 1.92-12.65 2.68-20.71 3.45h-.38a13.2 13.2 0 0 0-3.84.38 52.83 52.83 0 0 0-7.28.77c-.77 0-1.54.39-2.3.39a1.44 1.44 0 0 0-1.16.38c-6.9 1.53-11.12 8-10 14.19 1.15 5.37 6.14 8.82 12.27 8.82a8.5 8.5 0 0 0 3.07-.38c.39 0 .77 0 .77-.39.77 0 1.53-.38 2.3-.38a37.31 37.31 0 0 0 6.96-2.75c1.15-.39 2.3-1.16 3.45-1.54h.38c7.29-2.68 13.81-5 19.95-5.75h.76a8.53 8.53 0 0 1 5 1.92c.38 0 .38.38.76.38l5.38-.77a151.64 151.64 0 0 0 50.24 72.11 156.65 156.65 0 0 0 16.49 11.12l-2.3 5c0 .39.38.39.38.77a7.9 7.9 0 0 1 .77 6.14c-2.3 5.75-5.75 11.5-10 18v.38c-.77 1.15-1.54 1.92-2.3 3.07-1.54 1.91-2.69 3.83-4.22 6.13a8.14 8.14 0 0 0-1.15 1.92 1.36 1.36 0 0 1-.39.77c-3.06 6.52-.76 13.81 5 16.49a10.16 10.16 0 0 0 4.6 1.15c4.6 0 9.21-3.07 11.51-7.29a1.33 1.33 0 0 1 .38-.76 8.27 8.27 0 0 1 1.15-1.92 70.58 70.58 0 0 0 2.3-6.91l1.15-3.45c2.69-7.67 4.61-13.8 8.06-19.17 1.53-2.3 3.45-2.69 5-3.46.39 0 .39 0 .77-.38l2.69-5a149.59 149.59 0 0 0 53.69 10 139 139 0 0 0 33.37-3.84 170.09 170.09 0 0 0 19.94-5.75l2.3 4.22c.39 0 .39 0 .77.38a7.11 7.11 0 0 1 5 3.45c3.06 5.37 5.36 11.89 8.05 19.18v.41l1.15 3.45c.77 2.31 1.15 4.61 2.3 6.91.39.76.77 1.15 1.15 1.92a1.32 1.32 0 0 0 .39.76 13 13 0 0 0 11.5 7.29 10.13 10.13 0 0 0 4.6-1.15 11.43 11.43 0 0 0 5.76-6.9 13.94 13.94 0 0 0-.77-9.59c0-.39-.38-.39-.38-.77a9.12 9.12 0 0 0-1.15-1.92 35.2 35.2 0 0 0-4.22-6.13c-.77-1.15-1.54-1.92-2.3-3.07v-.38c-4.22-6.53-8.06-12.28-10-18-.76-2.69 0-4.22.39-6.14 0-.38.38-.38.38-.76l-1.92-4.61a152.13 152.13 0 0 0 66.74-84l4.6.76c.39 0 .39-.38.77-.38 1.53-.77 2.68-1.91 5-1.91h.77c6.14.76 12.66 3.06 19.95 5.75h.38c1.15.38 2.3 1.15 3.45 1.53a37.23 37.23 0 0 0 6.9 2.69c.77 0 1.54.38 2.3.38a1.41 1.41 0 0 1 1.15.38 8.35 8.35 0 0 0 3.07.39 12.92 12.92 0 0 0 12.29-8.84c0-4.61-4.25-10.74-11.16-12.66zm-194 88.25a121.78 121.78 0 1 1 .04 0zM178.22 210.5l75.79-29.26 76.12 29.26-75.95 30.91-75.96-30.91zm0 3.01l69.96 44.94v89.21l-69.96-43.4v-90.75zm83.52 134.15l69.95-44.93v-89.22l-69.95 43.4v90.75z" fill="#0c4cbf"/></svg>