<svg xmlns="http://www.w3.org/2000/svg" viewBox="0 0 1280 640" xmlns:v="https://vecta.io/nano"><defs><mask id="A" x="470.48" y="38.17" width="339.54" height="330.63" maskUnits="userSpaceOnUse"><path d="M810.01 368.8V38.17H470.48V368.8h339.53z" fill="#fff"/></mask></defs><path d="M431.94 419.22h24.51v58.65c25.36-15.77 47.41-14.27 62.92 3.51s15.83 47.16.54 65.11C504.4 564.69 482.35 566.4 457 551l-1 8.67h-24.06zM481.19 491c-13.18.09-23.74 10.46-23.73 23.31 0 13.37 10.57 23.43 24.43 23.27A23 23 0 0 0 505.07 514c-.15-13.14-10.49-23.1-23.88-23zm198.61 59.45v53.79H655V468.78h24.14l1.19 9.28c11.89-9.6 24.77-14 39.72-10.16a43.87 43.87 0 0 1 25.34 17c13.57 18.59 11.64 47.34-4.21 63.73-16.04 16.65-38.01 17.64-61.38 1.82zm25-13c13.5-.05 23.53-9.9 23.53-23.1s-10.18-23.21-23.46-23.35c-13.54-.12-24.34 10.41-24.17 23.57.16 12.75 10.87 22.94 24.05 22.9zm138.39-60.06l.62-8.66h24.12v91H844l-1-9.37c-12.32 10-25.58 14.11-40.74 10.06a43.45 43.45 0 0 1-24.62-16.75c-13.58-18.67-11.78-47.67 3.84-63.9 16.2-16.85 38.67-17.95 61.71-2.38zm-24.47 60.26c13.6-.07 23.95-10.49 23.76-23.9a24 24 0 0 0-47.93.32c-.02 13.26 10.63 23.64 24.17 23.58zm193.77-118.28v77c7.63-9.11 13.39-16.57 19.83-23.39a15.75 15.75 0 0 1 9.38-4.57c8.32-.64 16.73-.22 27.09-.22l-35.71 40.5 43.75 51.48c-11.09 0-20.71.31-30.28-.24-2.08-.12-4.25-3.09-5.93-5.11l-28.19-34.55v39.44H987.7V419.37zM640.2 522.38h-67.1c3.68 18.72 25.8 21.92 46.65 7.61q7.49 7 14.79 13.8c-14.21 19-46 24-67.42 11-20-12.06-27.61-39.36-17.24-61.56 10.23-21.89 37.14-32.2 61.56-23.6 22.08 7.78 34.31 29.87 28.76 52.75zm-24.9-16.8c-1-10.34-7.48-15.84-18.88-16.29-13.61-.54-21.39 4.79-23.39 16.29zm-228.47-37.01h24.41v91.17H387.3l-.88-11.56c-8.27 9.84-17.89 14.69-30.19 14.11-15.49-.72-26.78-8.52-30.89-23.44a83.18 83.18 0 0 1-2.53-20.23c-.35-16.4-.12-32.82-.12-49.82h25.09v29.07c0 6.56-.11 13.14.29 19.69.75 12.05 7.74 19.52 17.89 19.59 11.29.07 19.65-7.21 20.33-19.29.79-13.91.4-27.89.52-41.85l.02-7.44zm566.96 60.69l17.77 12.42c-10 16.94-31.34 24.07-53 18.19-20.77-5.64-34.82-23.27-35.29-44.28-.5-22.24 12.61-40.13 34.2-46.68 21.24-6.44 42.86.41 54.2 17.68L954 499.15c-13.26-11-29.38-11.44-39.28-.18-7.77 8.82-7.2 23.08.9 31.58 9.24 9.73 23.87 9.36 38.17-1.29zM284 559.45q-4.14-6.65-9.76-14.37-5.62-7.72-12.13-15.58-6.5-7.85-13.59-15a146.28 146.28 0 0 0-14.18-12.72v57.71h-30.68V423.18h30.68v51.22q11.82-12.42 24-26 12.18-13.58 22.54-25.23h36.41q-13.92 16.57-28 31.86-14.08 15.29-29.59 30.78a234.22 234.22 0 0 1 31.55 32.36 404.67 404.67 0 0 1 29.21 41.28z" fill="#0c4cbf"/><g mask="url(#A)"><path d="M640.58 38.17h0A33.35 33.35 0 0 0 627 41.24L515.88 94.37a31.08 31.08 0 0 0-17.13 21.29l-27.44 119.22a31.1 31.1 0 0 0 6.15 26.78l76.84 95.5a31 31 0 0 0 24.36 11.64h123.17a31 31 0 0 0 24.37-11.64l76.8-95.5a31 31 0 0 0 6.14-26.78l-27.4-119.22a31.09 31.09 0 0 0-17.12-21.29L654 41.24a31.54 31.54 0 0 0-13.39-3.07m0 10.31a21.46 21.46 0 0 1 9 2l111.09 52.91a21.33 21.33 0 0 1 11.41 14.27l27.44 119.21a20.51 20.51 0 0 1-4.17 18l-76.84 95.51a20.91 20.91 0 0 1-16.46 7.9H578.89a20.91 20.91 0 0 1-16.47-7.9l-76.84-95.51a22 22 0 0 1-4.17-18l27.44-119.21a21 21 0 0 1 11.42-14.27l111.08-53.15a26.45 26.45 0 0 1 9.23-1.76" fill="#0c4cbf"/></g><path d="M768.69 232.29h-.25c-.26 0-.51 0-.51-.25-.51 0-1-.26-1.53-.26a35.77 35.77 0 0 0-4.85-.51A9.77 9.77 0 0 1 759 231h-.25c-5.36-.51-9.69-1-13.77-2.3a4.94 4.94 0 0 1-2.81-2.8c0-.26-.25-.26-.25-.51l-3.32-1a100.66 100.66 0 0 0-1.78-35.95A105.06 105.06 0 0 0 722.54 155l2.55-2.29v-.51a5.82 5.82 0 0 1 1.27-3.83c3.06-2.8 6.89-5.09 11.48-7.9.76-.51 1.53-.76 2.29-1.28a37.59 37.59 0 0 0 4.34-2.54c.25-.26.76-.51 1.27-1 .26-.26.51-.26.51-.51 3.57-3.06 4.34-8.16 1.79-11.48a7.27 7.27 0 0 0-5.87-2.8 9.48 9.48 0 0 0-5.61 2l-.5.51c-.51.25-.77.76-1.28 1a38.59 38.59 0 0 0-3.31 3.57 11.59 11.59 0 0 1-1.79 1.78 64.12 64.12 0 0 1-10.2 9.18 4.11 4.11 0 0 1-2.29.77 3.18 3.18 0 0 1-1.53-.26h-.51l-3.06 2a124.66 124.66 0 0 0-10.46-9.69 101.8 101.8 0 0 0-53.29-21.16l-.25-3.32-.51-.51a5.27 5.27 0 0 1-2-3.31 88.8 88.8 0 0 1 .76-13.77v-.15a9.31 9.31 0 0 1 .51-2.55l.77-4.84v-2.3A7.78 7.78 0 0 0 634.06 74a8.07 8.07 0 0 0-2.29 5.86v2a14.86 14.86 0 0 0 .76 4.85c.26.76.26 1.53.51 2.55v.25c.51 5.1 1.28 9.69.77 13.77a5.39 5.39 0 0 1-2 3.32l-.51.51-.26 3.31a128.12 128.12 0 0 0-13.77 2A98.31 98.31 0 0 0 566.75 141l-2.55-1.79h-.51c-.51 0-1 .26-1.53.26a4.2 4.2 0 0 1-2.3-.76 68.45 68.45 0 0 1-10.2-9.44 12 12 0 0 0-1.78-1.78 40.18 40.18 0 0 0-3.32-3.57c-.25-.26-.76-.51-1.27-1-.26-.26-.51-.26-.51-.51a8.85 8.85 0 0 0-5.61-2 7.27 7.27 0 0 0-5.87 2.8c-2.55 3.32-1.78 8.41 1.79 11.47.25 0 .25.26.51.26.51.26.76.77 1.27 1a39.21 39.21 0 0 0 4.34 2.55 10.14 10.14 0 0 1 2.29 1.28c4.59 2.8 8.42 5.1 11.48 7.9a4.69 4.69 0 0 1 1.27 3.82v.51l2.55 2.3a8.55 8.55 0 0 0-1.27 2 99.27 99.27 0 0 0-14.28 67.31l-3.32 1c0 .26-.25.26-.25.51a6 6 0 0 1-2.81 2.81c-3.82 1.27-8.41 1.78-13.76 2.29h-.26a8.51 8.51 0 0 0-2.55.26 34 34 0 0 0-4.84.51c-.51 0-1 .25-1.53.25a.94.94 0 0 0-.77.26 8.36 8.36 0 0 0-6.63 9.43c.77 3.57 4.08 5.87 8.16 5.87a5.49 5.49 0 0 0 2-.26c.26 0 .51 0 .51-.25.51 0 1-.26 1.53-.26a24.75 24.75 0 0 0 4.59-1.78c.76-.26 1.53-.77 2.29-1h.26c4.84-1.79 9.18-3.32 13.26-3.83h.51a5.65 5.65 0 0 1 3.31 1.28c.26 0 .26.25.51.25l3.57-.51a100.83 100.83 0 0 0 33.41 47.94 102.61 102.61 0 0 0 11 7.39l-1.53 3.32c0 .25.26.25.26.51a5.28 5.28 0 0 1 .5 4.08 71.4 71.4 0 0 1-6.62 12v.26c-.51.76-1 1.27-1.53 2-1 1.27-1.79 2.55-2.81 4.08a5.42 5.42 0 0 0-.76 1.27.87.87 0 0 1-.26.51c-2 4.34-.51 9.18 3.32 11a6.78 6.78 0 0 0 3.06.76 9.17 9.17 0 0 0 7.65-4.84.88.88 0 0 1 .25-.51 6.15 6.15 0 0 1 .76-1.28 44 44 0 0 0 1.53-4.59l.77-2.29c1.79-5.1 3.06-9.18 5.35-12.75 1-1.53 2.3-1.79 3.32-2.3.25 0 .25 0 .51-.25l1.78-3.32a99.52 99.52 0 0 0 35.7 6.63 92.32 92.32 0 0 0 22.19-2.55 112.65 112.65 0 0 0 13.25-3.82l1.53 2.8c.26 0 .26 0 .51.26a4.7 4.7 0 0 1 3.32 2.29c2 3.57 3.57 7.91 5.35 12.75v.26l.77 2.29a31.68 31.68 0 0 0 1.53 4.59c.25.51.51.77.76 1.28a.91.91 0 0 0 .26.51 8.66 8.66 0 0 0 7.65 4.84 6.78 6.78 0 0 0 3.06-.76 7.6 7.6 0 0 0 3.82-4.59 9.24 9.24 0 0 0-.51-6.38c0-.25-.25-.25-.25-.51a5.41 5.41 0 0 0-.77-1.27 22.64 22.64 0 0 0-2.8-4.08c-.51-.77-1-1.28-1.53-2v-.26c-2.81-4.33-5.36-8.16-6.63-12-.51-1.79 0-2.81.25-4.08 0-.26.26-.26.26-.51l-1.28-3.12a101.14 101.14 0 0 0 44.37-55.8l3.06.51c.26 0 .26-.26.51-.26 1-.51 1.78-1.27 3.31-1.27h.51c4.08.51 8.42 2 13.26 3.82h.26c.76.26 1.53.77 2.29 1a24.34 24.34 0 0 0 4.59 1.79c.51 0 1 .25 1.53.25a.94.94 0 0 1 .77.26 5.69 5.69 0 0 0 2 .25 8.59 8.59 0 0 0 8.16-5.86c.04-3.04-2.77-7.12-7.36-8.4zM639.74 291a81 81 0 1 1 81-81 81 81 0 0 1-81 81zm-50.96-117.54L639.16 154l50.61 19.46-50.5 20.54-50.49-20.54zm0 2l46.5 29.87v59.31l-46.5-28.85v-60.33zm55.52 89.18l46.51-29.87v-59.31l-46.51 28.85v60.33z" fill="#0c4cbf"/></svg>