<svg width="245" height="74" viewBox="0 0 245 74" fill="none" xmlns="http://www.w3.org/2000/svg">
<path d="M65.2077 24.6286C78.8189 29.3585 91.2195 37.0351 101.525 47.1114C111.176 41.7124 120.719 36.1109 130.263 30.8323C133.535 29.02 136.8 27.3134 140.059 25.7123C136.779 22.8227 133.492 19.9457 130.047 17.2842C117.365 7.2905 101.979 1.33077 85.8773 0.17476C70.1481 -0.693871 54.4085 1.68219 39.6355 7.15554C24.8625 12.6289 11.3712 21.0826 0 31.9919C9.78178 26.3418 20.6243 22.7739 31.848 21.5112C43.0718 20.2485 54.4353 21.3185 65.2266 24.6541" fill="#001021"/>
<path d="M165.282 43.8039C159.824 41.2917 154.714 38.0795 150.084 34.248C139.679 40.0272 129.408 46.0789 119.143 51.7567C116.768 53.0684 114.393 54.3229 112.025 55.5586C114.827 57.6681 117.736 59.6331 120.739 61.4456C159.425 84.6383 212.746 71.8951 244.111 41.4721C220.294 56.1291 190.233 54.7795 165.295 43.8295" fill="#001021"/>
<path d="M230.021 3.76744C194.233 1.68378 158.618 10.1247 127.565 28.0499C91.4691 48.0109 55.2464 72.6737 13.9702 73.2693C49.7639 75.3505 85.3837 66.9051 116.439 48.9741C152.535 29.0131 188.757 4.35034 230.034 3.75468" fill="#EF2369"/>
</svg>
