<svg width="143" height="99" viewBox="0 0 143 99" fill="none" xmlns="http://www.w3.org/2000/svg">
<path d="M141.628 95.897C142.054 96.2656 142.209 96.8699 142.01 97.4006C141.812 97.9313 141.304 98.2851 140.738 98.2851H111.512C111.189 98.2851 110.872 98.1671 110.623 97.9534L78.5143 70.1004C78.2202 69.8425 78.0438 69.4666 78.0438 69.0759C78.0438 68.6779 78.2128 68.3094 78.5143 68.0514L93.1237 55.3743C93.631 54.932 94.3883 54.932 94.8956 55.3743L141.628 95.897ZM93.1384 42.9182C93.3957 43.1393 93.7119 43.2498 94.028 43.2498C94.3442 43.2498 94.6603 43.1393 94.9177 42.9182L141.635 2.38803C142.062 2.01951 142.216 1.41513 142.017 0.884455C141.819 0.353782 141.312 0 140.745 0H111.519C111.196 0 110.88 0.117927 110.63 0.331671L78.5217 28.1846C78.2276 28.4426 78.0512 28.8185 78.0512 29.2091C78.0512 29.6071 78.2202 29.9757 78.5217 30.2336L93.1384 42.9182ZM87.0211 49.1462C87.0211 48.7482 86.852 48.3797 86.5505 48.1217L31.4733 0.339041C31.2306 0.125298 30.9145 0.00737047 30.5837 0.00737047H1.35761C0.791476 0.00737047 0.284159 0.361152 0.0856422 0.891825C-0.112874 1.4225 0.0415238 2.01951 0.467966 2.3954L54.31 49.102C54.3394 49.1241 54.3394 49.1683 54.31 49.1978L0.467966 95.9044C0.0415238 96.2729 -0.112874 96.8773 0.0856422 97.408C0.284159 97.9387 0.791476 98.2924 1.35761 98.2924H30.5837C30.9072 98.2924 31.2233 98.1745 31.4733 97.9608L86.5505 50.1781C86.852 49.9127 87.0211 49.5369 87.0211 49.1462Z" fill="#131313"/>
</svg>
