<svg width="197" height="99" viewBox="0 0 197 99" fill="none" xmlns="http://www.w3.org/2000/svg">
<path d="M185.596 34.9873C184.544 35.6865 183.135 35.6865 182.08 34.9873C180.354 33.8411 180.187 31.4447 181.581 30.0594C182.818 28.7781 184.858 28.7781 186.095 30.0568C187.486 31.4447 187.317 33.8411 185.596 34.9873ZM190.628 28.0035C192.635 36.539 184.962 44.2141 176.427 42.2076C172.081 41.1888 168.632 37.7398 167.61 33.3967C165.609 24.8664 173.279 17.1964 181.812 19.1952C186.155 20.2114 189.607 23.6578 190.628 28.0035ZM133.157 73.9089C134.131 75.3098 134.942 76.664 135.397 78.0181C135.719 78.9798 136.133 80.2481 137.081 80.7576C137.133 80.7861 137.18 80.8121 137.237 80.8277C138.979 81.4619 143.457 81.3553 143.457 81.3553H151.693C152.398 81.3657 158.586 81.3475 158.43 80.6562C157.684 77.3475 153.859 76.7549 150.945 75.0239C148.26 73.4229 145.713 71.6087 144.559 68.4872C143.956 66.8757 144.312 63.159 145.349 61.8049C146.105 60.825 147.22 60.1752 148.419 59.9127C149.747 59.6294 151.124 59.8737 152.452 60.0089C154.09 60.1752 155.706 60.4715 157.339 60.6743C160.489 61.0849 163.67 61.2487 166.846 61.1629C172.089 61.0173 177.344 60.183 182.314 58.4884C185.783 57.324 189.201 55.749 192.151 53.5579C195.504 51.0654 194.623 51.2993 191.223 51.6476C187.153 52.0634 183.046 52.1258 178.963 51.8841C175.153 51.6632 171.395 51.2135 167.948 49.4435C165.235 48.0426 162.903 46.6391 160.751 44.4689C160.429 44.1414 160.229 43.1849 160.819 42.5741C161.391 41.9815 162.602 42.3246 162.974 42.6417C166.727 45.7788 172.325 48.3623 178.121 48.643C181.256 48.799 184.304 48.8561 187.442 48.721C189.009 48.6482 191.374 48.6586 192.946 48.643C193.757 48.6326 195.969 48.8665 196.382 48.0062C196.507 47.7567 196.497 47.4682 196.486 47.1875C196.026 34.6442 195.099 20.4973 181.973 14.5012C172.18 10.0229 157.497 3.08591 151.296 0.208697C149.858 -0.474868 148.177 0.606362 148.177 2.20741C148.177 6.39717 148.39 12.4167 148.393 17.8956C145.422 14.8702 140.419 12.9599 136.606 11.2081C132.276 9.2224 127.805 7.53818 123.257 6.12166C114.1 3.28604 104.624 1.53944 95.0928 0.593366C84.2831 -0.485262 73.2915 0.0319574 62.6482 2.2308C45.1198 5.86435 27.8903 14.2933 14.8116 26.6208C6.783 34.1842 0.48277 44.9367 0.0565173 55.8503C-0.551673 71.2968 3.77584 79.5906 11.7291 88.139C24.4127 101.764 51.7111 103.671 62.7677 87.5152C67.7424 80.2429 68.821 70.3793 65.2109 62.3403C61.6007 54.3065 53.3018 48.5001 44.5038 48.2038C37.676 47.9776 30.4011 51.4501 27.7838 57.7633C25.7876 62.5846 26.9235 68.5418 30.5596 72.2845C31.9761 73.7452 33.8943 74.9408 35.9891 74.4729C37.2237 74.1974 38.2556 73.2695 38.4427 72.0168C38.7182 70.1688 37.1015 68.9706 36.1061 67.5515C34.3101 64.9914 34.674 61.1473 36.9222 58.9719C38.8196 57.1343 41.6292 56.5911 44.2699 56.5989C46.7286 56.6041 49.242 57.0433 51.3628 58.2831C54.344 60.0375 56.3245 63.25 57.0107 66.6444C59.0562 76.7887 50.8092 85.0305 39.6279 85.6777C33.9073 86.0155 28.0853 84.5133 23.62 80.9187C12.3113 71.8218 9.54065 53.2278 22.466 43.3019C34.7364 33.8801 50.227 36.3077 59.3603 41.2044C66.669 45.1212 72.1167 51.5306 76.2441 58.6158C78.3156 62.1792 80.0804 65.9037 81.7178 69.6854C83.2928 73.3215 84.7665 76.9863 87.9192 79.6503C90.0063 81.4177 92.582 81.3553 95.3163 81.3553H110.924C113.045 81.3553 112.528 79.9414 111.613 79.0058C109.544 76.8901 106.57 76.4118 103.818 75.6555C97.5255 73.9245 98.1675 65.5944 99.9089 65.5944C105.533 65.5944 105.71 65.7633 110.638 65.7009C117.749 65.6022 119.901 65.1889 125.463 67.2448C128.437 68.3468 131.293 71.2526 133.157 73.9089Z" fill="#30BA78"/>
</svg>
