<svg width="387" height="99" viewBox="0 0 387 99" fill="none" xmlns="http://www.w3.org/2000/svg">
<path d="M278.592 91.6347L250.147 12.4846C249.773 11.3611 249.274 9.98779 249.274 8.61453C249.274 5.24378 252.143 1.87305 256.385 1.87305C260.003 1.87305 262.374 4.24506 263.497 7.6158L287.076 75.9046L310.78 7.49095C311.903 4.24505 314.024 1.87305 317.642 1.87305H318.391C322.258 1.87305 324.504 4.24505 325.627 7.49095L349.206 75.9046L373.16 7.3661C374.034 4.49473 376.03 1.87305 379.897 1.87305C383.89 1.87305 386.759 4.9941 386.759 8.36485C386.759 9.61327 386.26 11.1114 385.886 12.235L357.316 91.6347C355.819 95.7545 352.949 98.0017 349.705 98.0017H349.206C345.588 98.0017 342.844 95.8793 341.596 91.6347L318.266 24.3447L294.686 91.6347C293.439 95.7545 290.694 98.0017 287.076 98.0017H286.702C282.959 97.8768 279.965 95.7545 278.592 91.6347Z" fill="#6A6667"/>
<path d="M25.5798 7.9899C22.4608 1.24842 14.9752 -1.74782 7.86388 1.37324C0.752575 4.49429 -1.86739 12.3594 1.37636 19.1009L31.0692 83.6444C35.6853 93.7566 40.6757 99 49.9079 99C59.7639 99 64.1305 93.2572 68.7466 83.6444C68.7466 83.6444 94.5719 27.2156 94.9462 26.5914C95.1957 25.9672 96.069 24.2194 98.689 24.2194C100.935 24.2194 102.806 25.9672 102.806 28.3392V83.5195C102.806 92.0088 107.547 99 116.53 99C125.637 99 130.503 92.0088 130.503 83.5195V38.3266C130.503 29.5876 136.741 23.9697 145.224 23.9697C153.708 23.9697 159.322 29.8373 159.322 38.3266V83.5195C159.322 92.0088 164.063 99 173.046 99C182.153 99 187.019 92.0088 187.019 83.5195V38.3266C187.019 29.5876 193.257 23.9697 201.74 23.9697C210.224 23.9697 215.838 29.8373 215.838 38.3266V83.5195C215.838 92.0088 220.579 99 229.562 99C238.669 99 243.535 92.0088 243.535 83.5195V32.0845C243.535 13.2333 228.314 0 210.099 0C191.884 0 180.407 12.609 180.407 12.609C174.293 4.74398 165.934 0 151.837 0C136.865 0 123.766 12.609 123.766 12.609C117.652 4.74398 107.297 0 98.8137 0C85.5892 0 75.1094 5.86758 68.6219 20.4741L49.6584 65.1677L25.5798 7.9899Z" fill="#6A6667"/>
</svg>
