<svg width="133" height="46" viewBox="0 0 133 46" fill="none" xmlns="http://www.w3.org/2000/svg">
<path d="M14.2914 0.235808L3.9118 5.23498C3.58929 5.39015 3.30588 5.61598 3.08262 5.89571C2.85936 6.17543 2.70198 6.50185 2.62217 6.85073L0.0592965 18.0836C-0.0199671 18.4322 -0.0197621 18.7942 0.0598941 19.1427C0.13955 19.4913 0.296617 19.8174 0.519454 20.097L7.70324 29.1065C7.92664 29.3855 8.20994 29.6107 8.53217 29.7654C8.85439 29.92 9.20729 30.0002 9.56472 30H21.0865C21.4439 30.0002 21.7968 29.92 22.119 29.7654C22.4413 29.6107 22.7246 29.3855 22.948 29.1065L30.1317 20.097C30.3546 19.8174 30.5116 19.4913 30.5913 19.1427C30.671 18.7942 30.6712 18.4322 30.5919 18.0836L28.0275 6.85073C27.9479 6.50199 27.7907 6.17566 27.5677 5.89595C27.3447 5.61624 27.0616 5.39033 26.7394 5.23498L16.3583 0.235808C16.0359 0.0805985 15.6827 0 15.3249 0C14.967 0 14.6138 0.0805985 14.2914 0.235808Z" fill="#1C7BD4"/>
<path d="M26.3744 16.4618C26.159 15.9952 25.8494 15.5781 25.465 15.237C25.0805 14.8959 24.6296 14.638 24.1406 14.4797C24.0912 14.4717 24.047 14.4445 24.0175 14.4041C23.9879 14.3637 23.9755 14.3133 23.9828 14.2638C23.9821 14.0789 23.9687 13.8943 23.9426 13.7113C23.8225 12.9688 23.4838 12.2789 22.9698 11.7298C22.4557 11.1807 21.7896 10.7974 21.0565 10.6287C20.7587 10.5617 20.3849 10.6287 20.2122 10.2534C20.1725 10.1818 20.1223 10.1166 20.0633 10.0599C19.5135 9.44747 18.8413 8.95737 18.0901 8.62131C17.5188 8.349 16.9005 8.18875 16.2688 8.14924C15.1296 8.10456 13.9874 8.11201 12.8437 8.1001C12.4208 8.1001 11.9994 8.1001 11.5764 8.1001C11.4618 8.1001 11.3471 8.13137 11.2324 8.13882C10.9927 8.1552 10.7365 8.50367 10.7648 8.73449C10.7741 8.88763 10.8404 9.03175 10.9506 9.13843C11.0609 9.24511 11.2071 9.30661 11.3605 9.3108C11.9145 9.29591 12.4685 9.3108 13.0224 9.3108C13.1448 9.32178 13.2596 9.37481 13.3473 9.46088C13.435 9.54694 13.4902 9.66072 13.5034 9.78287C13.5496 10.2296 13.1952 10.4411 12.8542 10.4381C11.4469 10.4262 10.0396 10.4381 8.63382 10.4381C8.50733 10.442 8.38508 10.4847 8.28361 10.5603C8.18214 10.636 8.10634 10.7409 8.06645 10.861C8.02627 10.9825 8.02939 11.1142 8.07527 11.2336C8.12115 11.353 8.20695 11.4529 8.31812 11.5163C8.44566 11.589 8.58847 11.6308 8.73509 11.6384C9.29353 11.6518 9.85197 11.6384 10.4298 11.6384C10.0771 12.4936 9.92434 13.418 9.98302 14.3412H9.75816C7.71352 14.3412 5.66887 14.3412 3.62572 14.3412C3.54047 14.3263 3.453 14.3301 3.36937 14.3524C3.28575 14.3747 3.208 14.415 3.14152 14.4704C3.07504 14.5258 3.02143 14.5951 2.98443 14.6733C2.94743 14.7515 2.92792 14.8369 2.92726 14.9234C2.92661 15.01 2.94481 15.0956 2.98062 15.1744C3.01643 15.2532 3.06898 15.3233 3.1346 15.3797C3.20023 15.4361 3.27737 15.4775 3.36064 15.5011C3.44391 15.5247 3.53132 15.5298 3.61679 15.5162C4.63538 15.5013 5.65398 15.5073 6.67258 15.5162C6.95552 15.5162 7.21911 15.5922 7.34569 15.8825C7.38176 15.973 7.39452 16.071 7.3828 16.1677C7.37108 16.2643 7.33525 16.3565 7.2786 16.4356C7.22196 16.5148 7.14632 16.5785 7.05864 16.6208C6.97096 16.6631 6.87405 16.6827 6.77682 16.6778H4.32414C4.24504 16.6806 4.16727 16.699 4.09527 16.7319C4.02327 16.7648 3.95846 16.8115 3.90453 16.8695C3.8506 16.9274 3.80861 16.9954 3.78096 17.0696C3.7533 17.1437 3.74053 17.2226 3.74337 17.3017C3.7462 17.3808 3.76459 17.4586 3.79748 17.5306C3.83038 17.6026 3.87712 17.6674 3.93506 17.7213C3.99301 17.7753 4.061 17.8173 4.13517 17.8449C4.20934 17.8726 4.28823 17.8853 4.36733 17.8825C4.57879 17.8825 4.79324 17.8825 5.02555 17.8825C5.01729 18.0045 5.01729 18.1269 5.02555 18.2488C5.06094 18.6008 5.12418 18.9493 5.21467 19.2913C5.43535 19.9912 5.86068 20.609 6.4358 21.0649C7.06327 21.5985 7.85641 21.898 8.67999 21.9122C13.4622 21.9241 18.244 21.9241 23.0252 21.9122C23.2911 21.9121 23.5558 21.8781 23.813 21.811C24.9761 21.5042 25.8457 20.8311 26.364 19.7261C26.6182 19.2199 26.7514 18.6616 26.7532 18.0952C26.755 17.5288 26.6253 16.9696 26.3744 16.4618ZM13.5883 16.1402C13.5366 16.1816 13.4714 16.2026 13.4052 16.199C13.339 16.1955 13.2764 16.1676 13.2294 16.1208L12.7827 15.6741C12.7362 15.6269 12.7085 15.5644 12.7049 15.4983C12.7014 15.4322 12.7221 15.367 12.7633 15.3152L13.0254 14.9846C12.933 14.8219 12.86 14.649 12.808 14.4693L12.3925 14.4217C12.327 14.4137 12.2666 14.382 12.2227 14.3327C12.1788 14.2833 12.1545 14.2196 12.1542 14.1536V13.5147C12.1545 13.4487 12.1788 13.385 12.2227 13.3357C12.2666 13.2863 12.327 13.2547 12.3925 13.2467L12.7871 13.202C12.8362 13.0055 12.9108 12.8163 13.009 12.6391L12.7633 12.3279C12.7218 12.2761 12.7009 12.2109 12.7044 12.1447C12.708 12.0785 12.7359 12.0159 12.7827 11.969L13.2294 11.5222C13.2764 11.4755 13.3388 11.4476 13.4049 11.4437C13.471 11.4399 13.5363 11.4604 13.5883 11.5014L13.8862 11.7352C14.0719 11.623 14.2724 11.5372 14.4818 11.4805L14.525 11.1142C14.5323 11.0482 14.5637 10.9873 14.6132 10.9431C14.6627 10.8988 14.7267 10.8744 14.7931 10.8744H15.4304C15.4968 10.8744 15.5608 10.8988 15.6103 10.9431C15.6597 10.9873 15.6912 11.0482 15.6985 11.1142L15.7417 11.4805C15.9476 11.535 16.1451 11.6177 16.3284 11.7262L16.6113 11.5014C16.6633 11.4601 16.7286 11.4394 16.7948 11.4432C16.861 11.4471 16.9235 11.4752 16.9702 11.5222L17.417 11.969C17.4635 12.0161 17.4911 12.0786 17.4947 12.1448C17.4983 12.2109 17.4775 12.276 17.4364 12.3279L17.2055 12.6257C17.3048 12.8013 17.3808 12.989 17.4319 13.1841L17.8072 13.2273C17.873 13.235 17.9337 13.2665 17.9779 13.3159C18.0221 13.3653 18.0466 13.4291 18.0469 13.4954V14.1342C18.0466 14.2005 18.0221 14.2644 17.9779 14.3138C17.9337 14.3632 17.873 14.3947 17.8072 14.4023L17.4274 14.4455C17.3734 14.6431 17.2938 14.8329 17.1906 15.0099L17.4378 15.3226C17.4792 15.3748 17.5 15.4403 17.4961 15.5068C17.4923 15.5732 17.4641 15.636 17.417 15.683L16.9702 16.1297C16.9235 16.1768 16.861 16.2049 16.7948 16.2087C16.7286 16.2126 16.6633 16.1919 16.6113 16.1506L16.2942 15.8989C16.1142 16.0014 15.9214 16.0795 15.7208 16.1312L15.6732 16.5393C15.6655 16.6049 15.6339 16.6655 15.5845 16.7095C15.5351 16.7534 15.4712 16.7776 15.4051 16.7775H14.7663C14.7001 16.7776 14.6363 16.7534 14.5869 16.7095C14.5374 16.6655 14.5059 16.6049 14.4982 16.5393L14.4491 16.1163C14.2624 16.0627 14.0829 15.9867 13.9144 15.89L13.5883 16.1402ZM18.035 18.9071C18.0342 18.9726 18.0094 19.0355 17.9651 19.0839C17.9209 19.1322 17.8604 19.1626 17.7952 19.1692L17.618 19.1885C17.5804 19.3196 17.5258 19.4453 17.4557 19.5623L17.5704 19.7112C17.6105 19.7631 17.6301 19.8279 17.6254 19.8933C17.6207 19.9586 17.5921 20.02 17.5451 20.0656L17.3515 20.2548C17.3047 20.3005 17.2427 20.3275 17.1774 20.3305C17.112 20.3335 17.0478 20.3124 16.997 20.2711L16.8481 20.1505C16.727 20.2165 16.5979 20.2665 16.4639 20.2994L16.4401 20.4945C16.4314 20.5595 16.3991 20.619 16.3494 20.6619C16.2998 20.7047 16.2361 20.7278 16.1706 20.7268H15.901C15.8353 20.7261 15.7722 20.7013 15.7236 20.6571C15.675 20.6129 15.6444 20.5524 15.6374 20.4871L15.6166 20.2816C15.4925 20.2474 15.3734 20.1973 15.2622 20.1327L15.1028 20.2563C15.0508 20.2968 14.9857 20.3166 14.92 20.3119C14.8543 20.3073 14.7926 20.2784 14.7469 20.2309L14.5578 20.0373C14.5119 19.9905 14.485 19.9284 14.4823 19.863C14.4796 19.7975 14.5011 19.7334 14.5429 19.6829L14.671 19.5251C14.6098 19.4162 14.5622 19.3001 14.5295 19.1796L14.3299 19.1543C14.2652 19.1456 14.2059 19.1135 14.1631 19.0642C14.1203 19.0148 14.097 18.9515 14.0976 18.8862V18.6152C14.0984 18.5497 14.1233 18.4867 14.1675 18.4384C14.2117 18.39 14.2722 18.3597 14.3374 18.3531L14.5235 18.3337C14.557 18.2028 14.6071 18.0767 14.6724 17.9585L14.5578 17.8095C14.5177 17.7577 14.4981 17.6929 14.5028 17.6275C14.5074 17.5621 14.536 17.5007 14.5831 17.4551L14.7767 17.2645C14.8239 17.2189 14.8862 17.1921 14.9518 17.1894C15.0174 17.1866 15.0817 17.2081 15.1326 17.2496L15.2651 17.3583C15.3917 17.2855 15.5274 17.2299 15.6687 17.193L15.6895 17.0262C15.698 16.9611 15.7301 16.9014 15.7799 16.8585C15.8296 16.8156 15.8934 16.7926 15.9591 16.7939H16.2286C16.2943 16.7946 16.3574 16.8195 16.406 16.8637C16.4546 16.9079 16.4853 16.9684 16.4922 17.0337L16.5086 17.202C16.6456 17.2391 16.7765 17.2958 16.8973 17.3702L17.0268 17.2705C17.0788 17.2299 17.1439 17.2101 17.2096 17.2148C17.2754 17.2195 17.337 17.2483 17.3827 17.2958L17.5719 17.4894C17.6174 17.5363 17.6441 17.5984 17.6468 17.6637C17.6496 17.7291 17.6282 17.7932 17.5868 17.8438L17.4795 17.9763C17.5449 18.0941 17.5949 18.2197 17.6285 18.3501L17.8012 18.3724C17.8662 18.3808 17.9259 18.4127 17.969 18.4621C18.012 18.5115 18.0355 18.575 18.035 18.6405V18.9071ZM21.8964 16.6122L21.6284 16.6673C21.5995 16.8319 21.5495 16.9921 21.4795 17.1439L21.6746 17.3509C21.7198 17.3982 21.7458 17.4606 21.7477 17.5261C21.7497 17.5915 21.7273 17.6554 21.685 17.7053L21.4005 18.0418C21.3584 18.092 21.2993 18.1249 21.2345 18.1342C21.1697 18.1435 21.1037 18.1287 21.0491 18.0925L20.8064 17.9316C20.6679 18.0269 20.5177 18.104 20.3596 18.161L20.3507 18.4588C20.3483 18.5244 20.322 18.5868 20.2768 18.6343C20.2315 18.6818 20.1703 18.711 20.105 18.7164L19.6657 18.7537C19.6004 18.7589 19.5355 18.74 19.4833 18.7004C19.4311 18.6609 19.3953 18.6035 19.3827 18.5392L19.3217 18.2414C19.1672 18.2101 19.0172 18.1601 18.8749 18.0925L18.6307 18.295C18.583 18.3397 18.5205 18.3653 18.4552 18.3669C18.3898 18.3686 18.3261 18.3462 18.2762 18.3039L17.9397 18.0195C17.8896 17.9774 17.8567 17.9183 17.8473 17.8534C17.838 17.7886 17.8529 17.7226 17.8891 17.6681L18.0573 17.4149C17.971 17.288 17.8995 17.1516 17.8444 17.0084L17.5466 16.9994C17.481 16.9971 17.4185 16.9708 17.3711 16.9255C17.3236 16.8802 17.2943 16.8191 17.2889 16.7537L17.2517 16.3144C17.2468 16.2492 17.2659 16.1845 17.3054 16.1323C17.3449 16.0802 17.402 16.0444 17.4661 16.0315L17.7431 15.9734C17.7727 15.8099 17.8227 15.6508 17.892 15.4998L17.697 15.2928C17.652 15.2451 17.626 15.1824 17.6241 15.1168C17.6222 15.0512 17.6444 14.9872 17.6865 14.9369L17.971 14.5989C18.0134 14.5486 18.0727 14.5157 18.1378 14.5064C18.2029 14.497 18.2691 14.5119 18.3239 14.5482L18.5458 14.6972C18.6912 14.5925 18.8506 14.5088 19.0193 14.4485L19.0283 14.1879C19.0299 14.1223 19.0558 14.0597 19.1009 14.0121C19.146 13.9645 19.2071 13.9354 19.2725 13.9302L19.7118 13.893C19.7771 13.8876 19.842 13.9063 19.8944 13.9456C19.9468 13.9848 19.983 14.0418 19.9963 14.1059L20.0484 14.3621C20.2201 14.3933 20.3869 14.4474 20.5443 14.5229L20.7304 14.3487C20.7781 14.304 20.8406 14.2784 20.9059 14.2768C20.9713 14.2751 21.0349 14.2975 21.0848 14.3398L21.4214 14.6242C21.4719 14.6661 21.5049 14.7255 21.5137 14.7906C21.5225 14.8557 21.5066 14.9217 21.469 14.9756L21.3201 15.196C21.414 15.3344 21.4892 15.4846 21.5435 15.6428L21.8116 15.6517C21.8769 15.654 21.9391 15.6801 21.9866 15.7251C22.034 15.77 22.0634 15.8308 22.0692 15.8959L22.1064 16.3427C22.1079 16.4052 22.0876 16.4662 22.049 16.5154C22.0104 16.5646 21.956 16.5988 21.895 16.6122H21.8964Z" fill="white"/>
<path d="M15.112 15.0621C14.8611 15.0621 14.6158 14.9877 14.4071 14.8483C14.1985 14.7089 14.0359 14.5107 13.9398 14.2789C13.8438 14.047 13.8187 13.7919 13.8676 13.5458C13.9166 13.2997 14.0374 13.0736 14.2149 12.8962C14.3923 12.7187 14.6184 12.5979 14.8645 12.5489C15.1106 12.5 15.3657 12.5251 15.5976 12.6211C15.8294 12.7171 16.0276 12.8798 16.167 13.0884C16.3064 13.2971 16.3808 13.5424 16.3808 13.7933C16.3808 14.1298 16.2471 14.4525 16.0092 14.6905C15.7713 14.9284 15.4485 15.0621 15.112 15.0621ZM15.112 12.9519C14.9456 12.9519 14.783 13.0013 14.6446 13.0937C14.5062 13.1862 14.3984 13.3176 14.3347 13.4713C14.271 13.6251 14.2544 13.7942 14.2868 13.9575C14.3193 14.1207 14.3994 14.2706 14.5171 14.3883C14.6348 14.5059 14.7847 14.5861 14.9479 14.6185C15.1111 14.651 15.2803 14.6343 15.434 14.5707C15.5878 14.507 15.7192 14.3991 15.8116 14.2608C15.9041 14.1224 15.9534 13.9597 15.9534 13.7933C15.953 13.5703 15.8643 13.3565 15.7066 13.1988C15.5489 13.0411 15.3351 12.9523 15.112 12.9519Z" fill="white"/>
<path d="M19.6895 17.3777C19.415 17.3654 19.1562 17.2462 18.9685 17.0455C18.7808 16.8448 18.6792 16.5786 18.6853 16.3039C18.6915 16.0292 18.8049 15.7678 19.0013 15.5757C19.1978 15.3836 19.4616 15.276 19.7364 15.276C20.0112 15.276 20.2751 15.3836 20.4715 15.5757C20.668 15.7678 20.7814 16.0292 20.7875 16.3039C20.7936 16.5786 20.692 16.8448 20.5043 17.0455C20.3166 17.2462 20.0578 17.3654 19.7833 17.3777H19.6895ZM19.6895 15.6502H19.6329C19.545 15.6535 19.4586 15.6746 19.379 15.7122C19.2995 15.7498 19.2284 15.8032 19.17 15.869C19.1117 15.9349 19.0673 16.0119 19.0396 16.0955C19.0118 16.179 19.0013 16.2673 19.0087 16.355C19.016 16.4427 19.0411 16.5279 19.0824 16.6057C19.1236 16.6834 19.1802 16.752 19.2487 16.8072C19.3173 16.8624 19.3963 16.9032 19.481 16.927C19.5657 16.9508 19.6544 16.9572 19.7416 16.9458C19.9074 16.93 20.0609 16.8513 20.1704 16.7258C20.2799 16.6002 20.337 16.4375 20.3302 16.2711C20.3233 16.1047 20.2529 15.9473 20.1334 15.8312C20.014 15.7151 19.8546 15.6493 19.688 15.6472L19.6895 15.6502Z" fill="white"/>
<path d="M16.074 19.6576H16.0636C15.8192 19.6562 15.5853 19.558 15.4132 19.3844C15.2411 19.2109 15.1448 18.9761 15.1455 18.7317C15.1462 18.4873 15.2438 18.2531 15.4169 18.0805C15.5899 17.908 15.8244 17.811 16.0688 17.811C16.3132 17.811 16.5477 17.908 16.7207 18.0805C16.8938 18.2531 16.9914 18.4873 16.9921 18.7317C16.9928 18.9761 16.8965 19.2109 16.7244 19.3844C16.5523 19.558 16.3184 19.6562 16.074 19.6576ZM16.074 18.2503C15.9775 18.2505 15.8832 18.2791 15.8028 18.3326C15.7224 18.386 15.6596 18.462 15.6221 18.5509C15.5846 18.6399 15.5742 18.7379 15.592 18.8327C15.6099 18.9276 15.6553 19.0151 15.7226 19.0843C15.7675 19.1304 15.821 19.1671 15.8802 19.1925C15.9393 19.2178 16.0029 19.2312 16.0672 19.2319C16.1316 19.2326 16.1954 19.2206 16.2551 19.1965C16.3148 19.1725 16.3692 19.1368 16.415 19.0917C16.484 19.0238 16.5313 18.937 16.5511 18.8423C16.5709 18.7475 16.5623 18.649 16.5264 18.5592C16.4904 18.4693 16.4287 18.3921 16.3491 18.3371C16.2694 18.2822 16.1752 18.252 16.0785 18.2503H16.074Z" fill="white"/>
<path d="M35.2886 26.3456V3.93343C35.2882 3.84824 35.3214 3.76633 35.3811 3.70554C35.4408 3.64474 35.5221 3.60997 35.6073 3.60879H39.4493C39.535 3.60879 39.6172 3.64284 39.6778 3.70344C39.7384 3.76404 39.7725 3.84624 39.7725 3.93194V13.7144C39.7726 13.7798 39.7926 13.8437 39.8298 13.8975C39.867 13.9514 39.9197 13.9926 39.9809 14.0159C40.042 14.0391 40.1088 14.0432 40.1724 14.0277C40.236 14.0121 40.2933 13.9777 40.3369 13.9288L49.3673 3.68623C49.3973 3.65189 49.4345 3.62441 49.4761 3.60565C49.5177 3.5869 49.5629 3.5773 49.6085 3.57752H53.7008C53.7627 3.57716 53.8234 3.59469 53.8756 3.62798C53.9278 3.66127 53.9693 3.70892 53.9951 3.76521C54.0208 3.8215 54.0298 3.88404 54.021 3.94531C54.0121 4.00658 53.9857 4.06399 53.945 4.11065L45.7337 13.628C45.6863 13.6836 45.6591 13.7535 45.6564 13.8264C45.6537 13.8994 45.6757 13.9711 45.7188 14.0301L54.5898 26.1549C54.625 26.2031 54.6462 26.2601 54.651 26.3195C54.6558 26.3789 54.644 26.4386 54.6171 26.4917C54.5901 26.5449 54.5489 26.5896 54.4981 26.6208C54.4473 26.6521 54.3888 26.6686 54.3292 26.6687H50.088C50.0367 26.6685 49.9862 26.6562 49.9406 26.6326C49.895 26.609 49.8557 26.575 49.8259 26.5332L42.9623 17.0025C42.9347 16.9641 42.899 16.9323 42.8577 16.9093C42.8164 16.8862 42.7706 16.8725 42.7235 16.8691C42.6763 16.8657 42.629 16.8727 42.5848 16.8895C42.5407 16.9064 42.5008 16.9327 42.4679 16.9667L39.8663 19.68C39.8085 19.7399 39.7764 19.8201 39.777 19.9034V26.3456C39.777 26.4313 39.7429 26.5135 39.6823 26.5741C39.6217 26.6347 39.5395 26.6687 39.4538 26.6687H35.6073C35.5223 26.6675 35.4413 26.633 35.3816 26.5725C35.322 26.512 35.2886 26.4305 35.2886 26.3456Z" fill="#000144"/>
<path d="M60.5052 26.6687C58.7489 26.6687 57.4156 26.1048 56.5052 24.977C55.5948 23.8492 55.1396 22.1798 55.1396 19.9689V9.63992C55.1396 9.55027 55.1753 9.46428 55.2387 9.40089C55.3021 9.33749 55.388 9.30188 55.4777 9.30188H59.1589C59.2486 9.30188 59.3346 9.33749 59.398 9.40089C59.4614 9.46428 59.497 9.55027 59.497 9.63992V19.0217C59.497 21.6447 60.4401 22.9562 62.3264 22.9562C63.202 22.9469 64.0558 22.6813 64.7821 22.1922C65.5535 21.6958 66.1859 20.9463 66.6793 19.9435C66.7035 19.8934 66.7162 19.8384 66.7165 19.7827V9.63992C66.7165 9.55027 66.7521 9.46428 66.8155 9.40089C66.8789 9.33749 66.9649 9.30188 67.0546 9.30188H70.7358C70.8255 9.30188 70.9114 9.33749 70.9748 9.40089C71.0382 9.46428 71.0738 9.55027 71.0738 9.63992V21.33C71.0738 21.7857 71.1553 22.1108 71.3181 22.3054C71.4582 22.4636 71.6486 22.5688 71.8572 22.6032C71.933 22.6228 71.9999 22.6678 72.0468 22.7306C72.0936 22.7934 72.1176 22.8704 72.1148 22.9487V26.0611C72.1143 26.141 72.0859 26.2182 72.0345 26.2794C71.9831 26.3406 71.912 26.3819 71.8333 26.3961C71.5664 26.4466 71.297 26.4829 71.0262 26.5049C70.7284 26.5272 70.4678 26.5376 70.2295 26.5376C69.4492 26.5376 68.8148 26.3589 68.3263 26.0015C68.0873 25.8286 67.8871 25.6075 67.7386 25.3526C67.5901 25.0977 67.4966 24.8145 67.4641 24.5213L67.3673 23.1557C66.6537 24.2889 65.6411 25.2031 64.4411 25.7975C63.214 26.388 61.8668 26.6862 60.5052 26.6687Z" fill="#000144"/>
<path d="M103.152 26.6687C101.882 26.6868 100.622 26.4488 99.4456 25.9688C98.3944 25.5413 97.4413 24.9041 96.6446 24.096C95.8478 23.288 95.224 22.326 94.8113 21.2689C94.3877 20.2034 94.1724 19.0665 94.1769 17.9198C94.1699 16.7497 94.3794 15.5885 94.7949 14.4947C95.1941 13.4409 95.8019 12.4785 96.582 11.6652C97.3891 10.8332 98.3574 10.1745 99.4278 9.7293C100.618 9.23774 101.896 8.99401 103.183 9.01301C104.461 8.99167 105.728 9.23558 106.906 9.7293C107.958 10.1768 108.91 10.8299 109.706 11.6503C110.475 12.4541 111.073 13.4062 111.462 14.4485C111.86 15.5086 112.062 16.6324 112.057 17.7649C112.057 18.0464 112.057 18.3174 112.041 18.578C112.035 18.797 112.007 19.015 111.959 19.2288H99.1523C99.106 19.2288 99.0602 19.2387 99.018 19.2578C98.9758 19.277 98.9381 19.3048 98.9076 19.3396C98.877 19.3744 98.8542 19.4154 98.8407 19.4597C98.8271 19.504 98.8232 19.5506 98.8291 19.5966C98.9043 20.0903 99.055 20.5694 99.2759 21.0173C99.5245 21.5214 99.8666 21.9736 100.284 22.3501C100.693 22.7171 101.167 23.004 101.682 23.1959C102.202 23.3926 102.753 23.4935 103.309 23.4938C104.168 23.4964 105.014 23.278 105.764 22.8594C106.386 22.5426 106.896 22.0446 107.228 21.4313C107.261 21.3635 107.316 21.3092 107.384 21.2776C107.452 21.2461 107.529 21.2393 107.602 21.2585L110.693 22.1178C110.74 22.1309 110.784 22.1543 110.82 22.1863C110.857 22.2183 110.886 22.258 110.905 22.3027C110.925 22.3473 110.934 22.3957 110.932 22.4444C110.931 22.493 110.918 22.5407 110.896 22.5839C110.221 23.7657 109.244 24.7476 108.066 25.4297C106.698 26.2567 105.06 26.6697 103.152 26.6687ZM107.209 16.3934C107.255 16.3933 107.301 16.3834 107.343 16.3643C107.385 16.3452 107.423 16.3173 107.454 16.2825C107.485 16.2478 107.507 16.2069 107.521 16.1626C107.535 16.1183 107.539 16.0716 107.533 16.0255C107.409 14.99 106.923 14.0317 106.16 13.3197C105.338 12.562 104.259 12.1427 103.141 12.1457C102.022 12.1488 100.946 12.5739 100.128 13.3361C99.7284 13.7173 99.4032 14.1692 99.1687 14.6689C98.9643 15.0998 98.8286 15.5601 98.7666 16.033C98.7613 16.0784 98.7657 16.1245 98.7796 16.1681C98.7935 16.2117 98.8164 16.2519 98.847 16.286C98.8775 16.32 98.915 16.3472 98.9568 16.3657C98.9987 16.3843 99.044 16.3937 99.0897 16.3934H107.209Z" fill="#000144"/>
<path d="M121.786 26.6686C120.689 26.6798 119.601 26.4562 118.598 26.0129C117.594 25.5696 116.696 24.9168 115.965 24.0983C115.236 23.2736 114.668 22.3194 114.291 21.2853C113.885 20.1766 113.683 19.0035 113.695 17.8229C113.685 16.6496 113.877 15.4832 114.264 14.3755C114.619 13.3567 115.153 12.4095 115.841 11.5788C116.5 10.7863 117.321 10.1431 118.248 9.69202C119.201 9.2316 120.247 8.99766 121.305 9.00849C122.5 8.99256 123.676 9.30802 124.703 9.91987C125.337 10.2962 125.904 10.7736 126.383 11.3331C126.436 11.3916 126.505 11.4327 126.581 11.451C126.658 11.4694 126.738 11.4641 126.812 11.4359C126.885 11.4076 126.948 11.3578 126.993 11.2929C127.037 11.228 127.061 11.1512 127.061 11.0725V2.9937C127.061 2.94234 127.07 2.89145 127.09 2.84394C127.109 2.79643 127.138 2.75324 127.174 2.71685C127.211 2.68046 127.254 2.65159 127.301 2.63189C127.349 2.61219 127.4 2.60205 127.451 2.60205H131.025C131.076 2.60205 131.127 2.61219 131.175 2.63189C131.222 2.65159 131.265 2.68046 131.301 2.71685C131.338 2.75324 131.366 2.79643 131.386 2.84394C131.405 2.89145 131.415 2.94234 131.415 2.9937V21.3299C131.415 21.7856 131.491 22.1108 131.643 22.3054C131.771 22.4579 131.949 22.5598 132.145 22.5928C132.226 22.6147 132.298 22.6633 132.348 22.7308C132.399 22.7983 132.425 22.8808 132.423 22.9651V26.0134C132.422 26.1057 132.389 26.1947 132.329 26.2653C132.27 26.3359 132.188 26.3837 132.097 26.4006C131.594 26.4995 131.083 26.5548 130.571 26.5659C129.789 26.5659 129.15 26.3708 128.651 25.9806C128.411 25.8001 128.211 25.5713 128.065 25.3089C127.919 25.0465 127.829 24.7564 127.802 24.4572L127.706 23.385C127.112 24.4343 126.225 25.2877 125.153 25.8407C124.114 26.3843 122.959 26.6684 121.786 26.6686ZM122.925 22.9606C123.356 22.9576 123.784 22.8862 124.193 22.7491C124.621 22.6123 125.027 22.4115 125.396 22.1535C125.764 21.8942 126.098 21.5883 126.388 21.2436C126.657 20.9268 126.873 20.5682 127.026 20.1818C127.045 20.1313 127.055 20.0778 127.055 20.0239V16.1178C127.054 16.0669 127.045 16.0165 127.026 15.9689C126.856 15.522 126.619 15.1033 126.324 14.7269C126.015 14.3318 125.654 13.9811 125.25 13.6845C124.859 13.3978 124.432 13.1631 123.981 12.9861C123.563 12.8171 123.116 12.7287 122.665 12.7255C122.038 12.7201 121.419 12.8651 120.86 13.1484C120.311 13.4272 119.828 13.8208 119.445 14.3025C119.048 14.8016 118.74 15.3653 118.535 15.9689C118.318 16.5963 118.208 17.2558 118.209 17.9197C118.202 18.5975 118.323 19.2705 118.566 19.9033C118.792 20.4898 119.123 21.0299 119.543 21.4967C119.956 21.9535 120.46 22.3192 121.022 22.5704C121.62 22.8384 122.27 22.974 122.925 22.968V22.9606Z" fill="#000144"/>
<path d="M91.5782 16.0389L90.4554 15.9079C90.3018 15.3248 90.0741 14.7637 89.7778 14.2385L90.4702 13.3644C90.5932 13.2091 90.6547 13.0141 90.6432 12.8164C90.6317 12.6187 90.5478 12.4321 90.4077 12.2922L89.0674 10.9519C88.9272 10.8123 88.7405 10.7289 88.5429 10.7177C88.3453 10.7064 88.1504 10.7681 87.9952 10.8909L87.1464 11.5625C86.5974 11.2398 86.0073 10.9928 85.3921 10.8283L85.2641 9.72931C85.2408 9.53264 85.1463 9.35132 84.9984 9.21962C84.8505 9.08791 84.6594 9.01494 84.4614 9.0145H82.5478C82.3497 9.01462 82.1585 9.08748 82.0105 9.21925C81.8626 9.35101 81.7681 9.53251 81.7452 9.72931L81.6171 10.8283C80.9844 10.9968 80.3784 11.2529 79.8167 11.5893L78.9902 10.9326V3.16203C78.9902 3.13218 78.9843 3.10262 78.9728 3.07506C78.9613 3.0475 78.9445 3.02248 78.9233 3.00145C78.9022 2.98041 78.877 2.96376 78.8494 2.95248C78.8218 2.94119 78.7922 2.93548 78.7623 2.93568H74.7907C74.7698 2.93548 74.7492 2.93942 74.7298 2.94726C74.7105 2.95511 74.6929 2.9667 74.6781 2.98138C74.6633 2.99606 74.6515 3.01353 74.6435 3.03278C74.6355 3.05203 74.6313 3.07267 74.6313 3.09353V26.2994C74.6313 26.3973 74.6703 26.4913 74.7395 26.5605C74.8088 26.6298 74.9027 26.6687 75.0007 26.6687H78.6328C78.7276 26.6687 78.8185 26.631 78.8855 26.564C78.9525 26.497 78.9902 26.4061 78.9902 26.3113V24.7551L79.9194 24.0195C80.4238 24.309 80.9613 24.5366 81.5203 24.697L81.6692 25.9613C81.6918 26.158 81.786 26.3395 81.9337 26.4713C82.0814 26.6031 82.2724 26.676 82.4704 26.6761H84.378C84.5765 26.6763 84.768 26.6034 84.9161 26.4712C85.0642 26.3391 85.1584 26.157 85.1807 25.9598L85.3296 24.7417C85.9294 24.5851 86.5064 24.3518 87.0466 24.0477L87.9952 24.7923C88.1509 24.9162 88.3469 24.9783 88.5455 24.9668C88.7442 24.9552 88.9316 24.8709 89.0719 24.7298L90.4122 23.3895C90.5521 23.2499 90.636 23.0637 90.6478 22.8663C90.6596 22.669 90.5985 22.4741 90.4762 22.3188L89.7316 21.3791C90.0391 20.849 90.2769 20.2814 90.439 19.6904L91.5767 19.5594C91.7739 19.537 91.9559 19.4428 92.0881 19.2948C92.2202 19.1467 92.2932 18.9551 92.293 18.7567V16.8506C92.2948 16.651 92.2228 16.4578 92.0909 16.308C91.9589 16.1582 91.7764 16.0624 91.5782 16.0389ZM84.3616 20.8043C83.8212 20.955 83.2504 20.9593 82.7078 20.8169C82.1651 20.6744 81.67 20.3904 81.2733 19.9937C80.8765 19.5971 80.5922 19.1021 80.4496 18.5595C80.3069 18.0169 80.311 17.4461 80.4615 16.9057C80.6046 16.3833 80.8813 15.9073 81.2644 15.5245C81.6475 15.1416 82.1237 14.8653 82.6461 14.7225C83.1863 14.5723 83.7567 14.5683 84.2989 14.7108C84.8412 14.8533 85.3359 15.1373 85.7324 15.5337C86.1289 15.9301 86.4131 16.4247 86.5558 16.9669C86.6986 17.5091 86.6947 18.0794 86.5448 18.6197C86.4033 19.1432 86.1273 19.6206 85.7444 20.0046C85.3614 20.3886 84.8848 20.6658 84.3616 20.8088V20.8043Z" fill="#1C7BD4"/>
<path d="M4.95732 39.8575H1.4738V42.439H5.54568V43.6029H0V35.2132H5.5049V36.3887H1.4738V38.7051H4.95732V39.8575Z" fill="#FC6011"/>
<path d="M16.6712 37.3683L16.712 38.0885C17.178 37.5315 17.7897 37.253 18.547 37.253C19.8596 37.253 20.5276 37.9963 20.5509 39.483V43.6029H19.1353V39.5636C19.1353 39.168 19.0479 38.876 18.8732 38.6878C18.7023 38.4957 18.4207 38.3997 18.0285 38.3997C17.4576 38.3997 17.0324 38.6551 16.7528 39.1661V43.6029H15.3372V37.3683H16.6712Z" fill="#FC6011"/>
<path d="M32.5211 35.8528V37.3683H33.6337V38.4054H32.5211V41.8858C32.5211 42.124 32.5677 42.2968 32.6609 42.4044C32.758 42.5081 32.9288 42.56 33.1735 42.56C33.3366 42.56 33.5016 42.5408 33.6686 42.5024V43.5856C33.3463 43.674 33.0356 43.7182 32.7366 43.7182C31.6492 43.7182 31.1055 43.1247 31.1055 41.9377V38.4054H30.0686V37.3683H31.1055V35.8528H32.5211Z" fill="#FC6011"/>
<path d="M46.2447 43.7182C45.3476 43.7182 44.6194 43.4397 44.0602 42.8827C43.5048 42.3218 43.2272 41.5766 43.2272 40.6469V40.4741C43.2272 39.8518 43.3476 39.2967 43.5883 38.8088C43.833 38.3171 44.1748 37.9349 44.6136 37.6621C45.0524 37.3894 45.5418 37.253 46.0816 37.253C46.9398 37.253 47.602 37.5238 48.068 38.0655C48.5379 38.6071 48.7729 39.3735 48.7729 40.3646V40.9293H44.6544C44.6971 41.444 44.8699 41.8512 45.1728 42.1509C45.4796 42.4505 45.8641 42.6003 46.3262 42.6003C46.9748 42.6003 47.5029 42.341 47.9107 41.8224L48.6738 42.5427C48.4214 42.9153 48.0835 43.2053 47.6602 43.4128C47.2408 43.6164 46.769 43.7182 46.2447 43.7182ZM46.0757 38.3766C45.6874 38.3766 45.3728 38.5111 45.132 38.78C44.8951 39.0489 44.7437 39.4234 44.6777 39.9036H47.3748V39.7999C47.3437 39.3312 47.2175 38.9778 46.9961 38.7397C46.7748 38.4976 46.468 38.3766 46.0757 38.3766Z" fill="#FC6011"/>
<path d="M61.9256 38.6475C61.7392 38.6167 61.5469 38.6014 61.3489 38.6014C60.7003 38.6014 60.2634 38.8472 60.0382 39.3389V43.6029H58.6226V37.3683H59.9741L60.0091 38.0655C60.3508 37.5238 60.8246 37.253 61.4304 37.253C61.6324 37.253 61.7994 37.2799 61.9314 37.3337L61.9256 38.6475Z" fill="#FC6011"/>
<path d="M77.0881 40.549C77.0881 41.5132 76.8667 42.2834 76.424 42.8596C75.9812 43.432 75.3871 43.7182 74.6414 43.7182C73.9502 43.7182 73.3968 43.4935 72.9812 43.044V46H71.5657V37.3683H72.8705L72.9288 38.0021C73.3443 37.5027 73.9094 37.253 74.624 37.253C75.3929 37.253 75.9948 37.5373 76.4298 38.1058C76.8686 38.6705 77.0881 39.4561 77.0881 40.4625V40.549ZM75.6783 40.428C75.6783 39.8057 75.5521 39.312 75.2997 38.9471C75.0511 38.5822 74.6939 38.3997 74.2278 38.3997C73.6492 38.3997 73.2337 38.6359 72.9812 39.1084V41.8743C73.2375 42.3583 73.657 42.6003 74.2395 42.6003C74.69 42.6003 75.0414 42.4217 75.2939 42.0644C75.5502 41.7033 75.6783 41.1578 75.6783 40.428Z" fill="#FC6011"/>
<path d="M90.3398 38.6475C90.1534 38.6167 89.9612 38.6014 89.7631 38.6014C89.1146 38.6014 88.6777 38.8472 88.4524 39.3389V43.6029H87.0369V37.3683H88.3883L88.4233 38.0655C88.765 37.5238 89.2388 37.253 89.8447 37.253C90.0466 37.253 90.2136 37.2799 90.3456 37.3337L90.3398 38.6475Z" fill="#FC6011"/>
<path d="M101.489 43.6029H100.073V37.3683H101.489V43.6029ZM99.9857 35.7491C99.9857 35.534 100.054 35.3553 100.19 35.2132C100.329 35.0711 100.527 35 100.784 35C101.04 35 101.238 35.0711 101.378 35.2132C101.518 35.3553 101.588 35.534 101.588 35.7491C101.588 35.9604 101.518 36.1371 101.378 36.2792C101.238 36.4175 101.04 36.4866 100.784 36.4866C100.527 36.4866 100.329 36.4175 100.19 36.2792C100.054 36.1371 99.9857 35.9604 99.9857 35.7491Z" fill="#FC6011"/>
<path d="M115.317 41.9089C115.317 41.6592 115.212 41.469 115.003 41.3384C114.797 41.2078 114.453 41.0925 113.971 40.9927C113.49 40.8928 113.088 40.766 112.766 40.6124C112.059 40.2743 111.705 39.7845 111.705 39.143C111.705 38.6052 111.935 38.1558 112.393 37.7947C112.851 37.4336 113.434 37.253 114.14 37.253C114.894 37.253 115.502 37.4374 115.964 37.8062C116.43 38.175 116.663 38.6532 116.663 39.241H115.247C115.247 38.9721 115.146 38.7493 114.944 38.5726C114.742 38.392 114.474 38.3017 114.14 38.3017C113.83 38.3017 113.575 38.3728 113.377 38.5149C113.183 38.6571 113.086 38.8472 113.086 39.0854C113.086 39.3005 113.177 39.4676 113.36 39.5867C113.542 39.7058 113.911 39.8268 114.467 39.9497C115.022 40.0688 115.457 40.2129 115.771 40.3819C116.09 40.5471 116.325 40.7468 116.476 40.9811C116.632 41.2155 116.709 41.4997 116.709 41.8339C116.709 42.3948 116.474 42.85 116.005 43.1996C115.535 43.5453 114.919 43.7182 114.158 43.7182C113.641 43.7182 113.181 43.626 112.777 43.4416C112.373 43.2572 112.059 43.0037 111.834 42.681C111.608 42.3583 111.496 42.0107 111.496 41.638H112.87C112.89 41.9684 113.016 42.2239 113.249 42.4044C113.482 42.5811 113.791 42.6695 114.175 42.6695C114.548 42.6695 114.832 42.6003 115.026 42.462C115.22 42.3199 115.317 42.1355 115.317 41.9089Z" fill="#FC6011"/>
<path d="M129.472 43.7182C128.575 43.7182 127.847 43.4397 127.287 42.8827C126.732 42.3218 126.454 41.5766 126.454 40.6469V40.4741C126.454 39.8518 126.575 39.2967 126.815 38.8088C127.06 38.3171 127.402 37.9349 127.841 37.6621C128.28 37.3894 128.769 37.253 129.309 37.253C130.167 37.253 130.829 37.5238 131.295 38.0655C131.765 38.6071 132 39.3735 132 40.3646V40.9293H127.882C127.924 41.444 128.097 41.8512 128.4 42.1509C128.707 42.4505 129.091 42.6003 129.553 42.6003C130.202 42.6003 130.73 42.341 131.138 41.8224L131.901 42.5427C131.649 42.9153 131.311 43.2053 130.887 43.4128C130.468 43.6164 129.996 43.7182 129.472 43.7182ZM129.303 38.3766C128.915 38.3766 128.6 38.5111 128.359 38.78C128.122 39.0489 127.971 39.4234 127.905 39.9036H130.602V39.7999C130.571 39.3312 130.445 38.9778 130.223 38.7397C130.002 38.4976 129.695 38.3766 129.303 38.3766Z" fill="#FC6011"/>
</svg>
