<svg width="64" height="64" viewBox="0 0 64 64" fill="none" xmlns="http://www.w3.org/2000/svg">
<g clip-path="url(#clip0)">
<path d="M30.9134 0.361573L14.9981 8.02696C14.5036 8.2649 14.069 8.61118 13.7267 9.04008C13.3844 9.46899 13.143 9.9695 13.0207 10.5045L9.09092 27.7282C8.96938 28.2627 8.9697 28.8178 9.09184 29.3522C9.21398 29.8866 9.45481 30.3867 9.7965 30.8154L20.8116 44.63C21.1542 45.0578 21.5886 45.4031 22.0827 45.6402C22.5767 45.8774 23.1178 46.0003 23.6659 46H41.3326C41.8807 46.0003 42.4218 45.8774 42.9159 45.6402C43.4099 45.4031 43.8443 45.0578 44.1869 44.63L55.202 30.8154C55.5437 30.3867 55.7845 29.8866 55.9067 29.3522C56.0288 28.8178 56.0291 28.2627 55.9076 27.7282L51.9756 10.5045C51.8534 9.96972 51.6125 9.46934 51.2705 9.04045C50.9286 8.61156 50.4945 8.26517 50.0004 8.02696L34.0828 0.361573C33.5884 0.123584 33.0468 0 32.4981 0C31.9494 0 31.4078 0.123584 30.9134 0.361573V0.361573Z" fill="#1C7BD4"/>
<path d="M49.4411 25.2416C49.1109 24.526 48.6361 23.8866 48.0466 23.3635C47.4571 22.8405 46.7657 22.4451 46.016 22.2024C45.9402 22.19 45.8724 22.1484 45.8271 22.0864C45.7818 22.0245 45.7627 21.9472 45.7739 21.8713C45.7729 21.5878 45.7523 21.3048 45.7123 21.0242C45.5282 19.8856 45.0089 18.8278 44.2206 17.9858C43.4324 17.1439 42.411 16.5561 41.287 16.2975C40.8303 16.1948 40.2572 16.2975 39.9923 15.7221C39.9315 15.6122 39.8546 15.5122 39.764 15.4253C38.9211 14.4863 37.8903 13.7348 36.7385 13.2195C35.8624 12.8019 34.9145 12.5562 33.9459 12.4956C32.1991 12.4271 30.4477 12.4386 28.694 12.4203C28.0456 12.4203 27.3994 12.4203 26.7509 12.4203C26.575 12.4203 26.3992 12.4682 26.2234 12.4797C25.8558 12.5048 25.463 13.0391 25.5064 13.393C25.5206 13.6278 25.6222 13.8488 25.7913 14.0124C25.9604 14.176 26.1846 14.2703 26.4198 14.2767C27.2692 14.2539 28.1186 14.2767 28.9681 14.2767C29.1557 14.2935 29.3317 14.3749 29.4662 14.5068C29.6006 14.6388 29.6852 14.8132 29.7056 15.0005C29.7764 15.6856 29.2329 16.0098 28.71 16.0052C26.5522 15.987 24.3944 16.0052 22.2389 16.0052C22.0449 16.0112 21.8574 16.0767 21.7019 16.1926C21.5463 16.3086 21.43 16.4696 21.3689 16.6537C21.3073 16.84 21.3121 17.0418 21.3824 17.225C21.4527 17.4081 21.5843 17.5613 21.7548 17.6584C21.9503 17.7699 22.1693 17.8341 22.3941 17.8457C23.2504 17.8662 24.1067 17.8457 24.9926 17.8457C24.4519 19.157 24.2176 20.5745 24.3076 21.99H23.9628C20.8277 21.99 17.6926 21.99 14.5598 21.99C14.4291 21.9671 14.2949 21.973 14.1667 22.0072C14.0385 22.0414 13.9193 22.1031 13.8173 22.1881C13.7154 22.2731 13.6332 22.3792 13.5765 22.4992C13.5197 22.6192 13.4898 22.7501 13.4888 22.8827C13.4878 23.0154 13.5157 23.1468 13.5706 23.2676C13.6255 23.3884 13.7061 23.4958 13.8067 23.5823C13.9073 23.6688 14.0256 23.7324 14.1533 23.7685C14.281 23.8047 14.415 23.8126 14.5461 23.7916C16.1079 23.7688 17.6698 23.7779 19.2316 23.7916C19.6655 23.7916 20.0696 23.9081 20.2637 24.3534C20.319 24.492 20.3386 24.6424 20.3206 24.7905C20.3026 24.9387 20.2477 25.08 20.1609 25.2014C20.074 25.3229 19.958 25.4205 19.8236 25.4854C19.6891 25.5502 19.5405 25.5803 19.3914 25.5727H15.6307C15.5094 25.5771 15.3901 25.6052 15.2797 25.6557C15.1693 25.7061 15.07 25.7778 14.9873 25.8666C14.9046 25.9555 14.8402 26.0597 14.7978 26.1735C14.7554 26.2872 14.7358 26.4082 14.7402 26.5295C14.7445 26.6507 14.7727 26.77 14.8231 26.8804C14.8736 26.9908 14.9452 27.0902 15.0341 27.1729C15.1229 27.2556 15.2272 27.3199 15.3409 27.3623C15.4546 27.4047 15.5756 27.4243 15.6969 27.42C16.0211 27.42 16.35 27.42 16.7062 27.42C16.6935 27.607 16.6935 27.7947 16.7062 27.9817C16.7604 28.5213 16.8574 29.0558 16.9962 29.5801C17.3345 30.6533 17.9867 31.6006 18.8686 32.2996C19.8307 33.1178 21.0468 33.577 22.3096 33.5989C29.6424 33.6171 36.9744 33.6171 44.3057 33.5989C44.7133 33.5987 45.1192 33.5465 45.5136 33.4436C47.297 32.9732 48.6305 31.9411 49.4251 30.2468C49.8148 29.4707 50.0191 28.6146 50.0219 27.7461C50.0247 26.8776 49.8259 26.0203 49.4411 25.2416V25.2416ZM29.8358 24.7484C29.7564 24.812 29.6564 24.8441 29.5549 24.8387C29.4534 24.8332 29.3575 24.7905 29.2855 24.7187L28.6004 24.0337C28.5291 23.9614 28.4867 23.8656 28.4812 23.7642C28.4758 23.6628 28.5076 23.5629 28.5707 23.4834L28.9726 22.9765C28.8309 22.7271 28.719 22.4619 28.6392 22.1864L28.0022 22.1133C27.9017 22.1011 27.8091 22.0526 27.7418 21.9769C27.6745 21.9012 27.6372 21.8036 27.6368 21.7023V20.7227C27.6372 20.6215 27.6745 20.5239 27.7418 20.4482C27.8091 20.3725 27.9017 20.324 28.0022 20.3117L28.6073 20.2432C28.6825 19.9419 28.7969 19.6517 28.9475 19.3801L28.5707 18.9029C28.5071 18.8236 28.475 18.7236 28.4805 18.6221C28.486 18.5205 28.5287 18.4246 28.6004 18.3526L29.2855 17.6676C29.3574 17.5959 29.4531 17.5531 29.5545 17.5472C29.6559 17.5413 29.756 17.5728 29.8358 17.6356L30.2924 17.9941C30.5772 17.822 30.8846 17.6906 31.2058 17.6036L31.272 17.0419C31.2833 16.9408 31.3314 16.8474 31.4072 16.7795C31.4831 16.7117 31.5813 16.6742 31.683 16.6743H32.6603C32.7621 16.6742 32.8603 16.7117 32.9361 16.7795C33.0119 16.8474 33.0601 16.9408 33.0713 17.0419L33.1376 17.6036C33.4534 17.6871 33.7561 17.8139 34.0372 17.9804L34.4711 17.6356C34.5507 17.5723 34.6508 17.5405 34.7523 17.5464C34.8538 17.5523 34.9496 17.5955 35.0214 17.6676L35.7064 18.3526C35.7777 18.4248 35.8201 18.5207 35.8256 18.6221C35.831 18.7235 35.7992 18.8234 35.7361 18.9029L35.3821 19.3596C35.5343 19.6288 35.6509 19.9166 35.7292 20.2158L36.3046 20.2821C36.4056 20.2938 36.4987 20.3421 36.5664 20.4178C36.6342 20.4935 36.6718 20.5915 36.6723 20.6931V21.6726C36.6718 21.7743 36.6342 21.8722 36.5664 21.9479C36.4987 22.0236 36.4056 22.0719 36.3046 22.0837L35.7224 22.1499C35.6396 22.4529 35.5175 22.7439 35.3593 23.0153L35.7383 23.4948C35.8018 23.5748 35.8336 23.6753 35.8277 23.7772C35.8219 23.8791 35.7787 23.9753 35.7064 24.0474L35.0214 24.7324C34.9496 24.8045 34.8538 24.8476 34.7523 24.8535C34.6508 24.8594 34.5507 24.8277 34.4711 24.7644L33.9847 24.3785C33.7087 24.5356 33.4131 24.6554 33.1056 24.7347L33.0325 25.3603C33.0208 25.4611 32.9724 25.5539 32.8966 25.6213C32.8208 25.6887 32.7229 25.7258 32.6215 25.7257H31.6419C31.5405 25.7258 31.4426 25.6887 31.3668 25.6213C31.291 25.5539 31.2427 25.4611 31.2309 25.3603L31.1556 24.7119C30.8693 24.6296 30.5941 24.5131 30.3358 24.3648L29.8358 24.7484ZM36.654 28.991C36.6528 29.0914 36.6147 29.1879 36.5469 29.2621C36.4791 29.3362 36.3863 29.3827 36.2864 29.3928L36.0146 29.4225C35.9569 29.6236 35.8732 29.8162 35.7657 29.9957L35.9416 30.224C36.0031 30.3035 36.0331 30.4029 36.0259 30.5031C36.0188 30.6034 35.9749 30.6975 35.9028 30.7675L35.6059 31.0574C35.5342 31.1276 35.4392 31.1689 35.339 31.1736C35.2388 31.1782 35.1403 31.1458 35.0625 31.0826L34.8341 30.8976C34.6484 30.9987 34.4504 31.0755 34.245 31.1259L34.2085 31.4251C34.1951 31.5247 34.1456 31.616 34.0695 31.6816C33.9933 31.7473 33.8957 31.7827 33.7952 31.7813H33.3819C33.2812 31.7802 33.1844 31.7421 33.1099 31.6743C33.0354 31.6066 32.9883 31.5138 32.9777 31.4137L32.9457 31.0985C32.7555 31.0461 32.5729 30.9693 32.4023 30.8702L32.158 31.0597C32.0783 31.1219 31.9784 31.1523 31.8777 31.1451C31.7769 31.1379 31.6823 31.0937 31.6122 31.0209L31.3222 30.7241C31.252 30.6523 31.2107 30.5571 31.2065 30.4567C31.2023 30.3564 31.2354 30.258 31.2994 30.1806L31.4958 29.9386C31.402 29.7716 31.3291 29.5937 31.2789 29.4088L30.9729 29.37C30.8736 29.3567 30.7827 29.3075 30.7171 29.2318C30.6515 29.1562 30.6158 29.0591 30.6167 28.959V28.5434C30.6178 28.443 30.656 28.3464 30.7238 28.2723C30.7916 28.1982 30.8843 28.1516 30.9843 28.1415L31.2697 28.1119C31.3211 27.9111 31.3978 27.7178 31.4981 27.5364L31.3222 27.3081C31.2608 27.2286 31.2307 27.1292 31.2379 27.029C31.2451 26.9287 31.2889 26.8346 31.3611 26.7646L31.6579 26.4724C31.7303 26.4024 31.8258 26.3614 31.9264 26.3572C32.027 26.353 32.1257 26.3858 32.2036 26.4495L32.4069 26.6162C32.6009 26.5045 32.809 26.4193 33.0257 26.3628L33.0576 26.107C33.0706 26.0072 33.1199 25.9156 33.1961 25.8499C33.2724 25.7841 33.3703 25.7489 33.4709 25.7508H33.8842C33.9849 25.7519 34.0817 25.79 34.1562 25.8577C34.2307 25.9255 34.2778 26.0183 34.2884 26.1184L34.3135 26.3765C34.5235 26.4334 34.7242 26.5203 34.9095 26.6345L35.1081 26.4815C35.1878 26.4194 35.2877 26.389 35.3885 26.3961C35.4892 26.4033 35.5838 26.4475 35.6539 26.5203L35.9439 26.8172C36.0137 26.8892 36.0546 26.9843 36.0588 27.0845C36.063 27.1847 36.0302 27.283 35.9667 27.3606L35.8023 27.5638C35.9024 27.7444 35.9792 27.937 36.0306 28.137L36.2955 28.1712C36.3952 28.1841 36.4867 28.233 36.5527 28.3087C36.6188 28.3844 36.6548 28.4817 36.654 28.5822V28.991ZM42.5749 25.4722L42.1639 25.5567C42.1196 25.8091 42.0428 26.0547 41.9355 26.2874L42.2346 26.6048C42.3039 26.6774 42.3439 26.7731 42.3469 26.8735C42.3498 26.9738 42.3155 27.0717 42.2506 27.1483L41.8145 27.6643C41.7499 27.7412 41.6593 27.7916 41.5599 27.8059C41.4605 27.8202 41.3593 27.7975 41.2756 27.7419L40.9034 27.4953C40.6911 27.6414 40.4609 27.7596 40.2184 27.847L40.2047 28.3037C40.2011 28.4042 40.1608 28.5 40.0914 28.5728C40.0219 28.6456 39.9282 28.6904 39.8279 28.6987L39.1543 28.7558C39.0543 28.7638 38.9547 28.7347 38.8747 28.6741C38.7947 28.6135 38.7398 28.5255 38.7205 28.427L38.6269 27.9703C38.3901 27.9223 38.16 27.8456 37.9418 27.7419L37.5674 28.0525C37.4942 28.121 37.3984 28.1603 37.2982 28.1628C37.198 28.1653 37.1004 28.1309 37.0239 28.0662L36.5079 27.63C36.431 27.5654 36.3806 27.4748 36.3663 27.3754C36.3519 27.276 36.3747 27.1748 36.4302 27.0912L36.6882 26.703C36.5558 26.5084 36.4462 26.2993 36.3617 26.0796L35.905 26.0659C35.8045 26.0624 35.7087 26.022 35.6359 25.9526C35.5631 25.8832 35.5183 25.7894 35.51 25.6892L35.4529 25.0156C35.4454 24.9156 35.4747 24.8163 35.5352 24.7364C35.5958 24.6565 35.6834 24.6015 35.7817 24.5817L36.2065 24.4927C36.2517 24.242 36.3285 23.998 36.4348 23.7665L36.1357 23.4491C36.0667 23.3759 36.0269 23.2799 36.024 23.1793C36.021 23.0787 36.0551 22.9806 36.1197 22.9034L36.5558 22.3851C36.6208 22.308 36.7118 22.2575 36.8116 22.2432C36.9114 22.2289 37.0129 22.2518 37.097 22.3074L37.4372 22.5358C37.6602 22.3753 37.9046 22.247 38.1633 22.1544L38.177 21.7549C38.1795 21.6544 38.2192 21.5583 38.2884 21.4854C38.3575 21.4124 38.4513 21.3677 38.5515 21.3598L39.2251 21.3027C39.3251 21.2945 39.4247 21.3232 39.505 21.3834C39.5854 21.4435 39.641 21.531 39.6612 21.6293L39.7412 22.022C40.0045 22.0698 40.2603 22.1528 40.5015 22.2686L40.787 22.0015C40.8601 21.9329 40.9559 21.8937 41.0561 21.8912C41.1563 21.8886 41.2539 21.923 41.3304 21.9878L41.8465 22.4239C41.9239 22.4882 41.9745 22.5793 41.988 22.6791C42.0015 22.7789 41.9771 22.8801 41.9195 22.9628L41.6912 23.3007C41.8352 23.5129 41.9504 23.7432 42.0337 23.9857L42.4447 23.9994C42.5449 24.0029 42.6404 24.0429 42.7131 24.1119C42.7859 24.1809 42.8309 24.2741 42.8397 24.3739L42.8968 25.0589C42.8991 25.1547 42.868 25.2483 42.8088 25.3237C42.7497 25.3991 42.6662 25.4516 42.5726 25.4722H42.5749Z" fill="white"/>
<path d="M32.1715 23.0951C31.7868 23.0951 31.4106 22.981 31.0907 22.7673C30.7708 22.5535 30.5214 22.2497 30.3742 21.8942C30.2269 21.5387 30.1884 21.1475 30.2635 20.7701C30.3385 20.3928 30.5238 20.0461 30.7959 19.774C31.068 19.502 31.4146 19.3167 31.792 19.2416C32.1694 19.1665 32.5605 19.2051 32.916 19.3523C33.2715 19.4996 33.5754 19.7489 33.7891 20.0688C34.0029 20.3888 34.117 20.7649 34.117 21.1497C34.117 21.6657 33.912 22.1605 33.5472 22.5253C33.1823 22.8902 32.6875 23.0951 32.1715 23.0951V23.0951ZM32.1715 19.8596C31.9164 19.8596 31.6669 19.9352 31.4548 20.077C31.2426 20.2187 31.0773 20.4202 30.9796 20.656C30.882 20.8917 30.8564 21.1511 30.9062 21.4014C30.956 21.6516 31.0789 21.8815 31.2593 22.0619C31.4397 22.2424 31.6696 22.3652 31.9198 22.415C32.1701 22.4648 32.4295 22.4393 32.6652 22.3416C32.901 22.244 33.1025 22.0786 33.2442 21.8664C33.386 21.6543 33.4617 21.4048 33.4617 21.1497C33.4611 20.8077 33.3249 20.4799 33.0831 20.2381C32.8413 19.9963 32.5135 19.8602 32.1715 19.8596V19.8596Z" fill="white"/>
<path d="M39.1905 26.6458C38.7696 26.627 38.3728 26.4442 38.085 26.1364C37.7973 25.8287 37.6414 25.4205 37.6508 24.9993C37.6602 24.5781 37.8341 24.1773 38.1353 23.8827C38.4366 23.5882 38.8412 23.4232 39.2625 23.4232C39.6838 23.4232 40.0884 23.5882 40.3896 23.8827C40.6908 24.1773 40.8648 24.5781 40.8742 24.9993C40.8836 25.4205 40.7277 25.8287 40.4399 26.1364C40.1521 26.4442 39.7553 26.627 39.3344 26.6458V26.6458H39.1905ZM39.1905 23.997H39.1038C38.9689 24.0021 38.8365 24.0344 38.7145 24.092C38.5925 24.1497 38.4835 24.2315 38.394 24.3325C38.3045 24.4335 38.2365 24.5517 38.1939 24.6797C38.1514 24.8078 38.1353 24.9431 38.1466 25.0776C38.1579 25.2121 38.1963 25.3429 38.2596 25.4621C38.3229 25.5812 38.4097 25.6864 38.5147 25.771C38.6198 25.8557 38.7409 25.9182 38.8708 25.9548C39.0007 25.9913 39.1367 26.0011 39.2705 25.9836V25.9836C39.5247 25.9594 39.76 25.8386 39.9279 25.6462C40.0957 25.4537 40.1834 25.2042 40.1729 24.9491C40.1624 24.6939 40.0544 24.4525 39.8712 24.2745C39.6881 24.0966 39.4436 23.9956 39.1883 23.9925L39.1905 23.997Z" fill="white"/>
<path d="M33.6468 30.1417H33.6309C33.2561 30.1396 32.8975 29.989 32.6336 29.7228C32.3697 29.4567 32.2221 29.0968 32.2232 28.722C32.2242 28.3472 32.3738 27.9882 32.6392 27.7235C32.9046 27.4589 33.2641 27.3103 33.6389 27.3103C34.0136 27.3103 34.3731 27.4589 34.6385 27.7235C34.9039 27.9882 35.0535 28.3472 35.0546 28.722C35.0556 29.0968 34.908 29.4567 34.6441 29.7228C34.3803 29.989 34.0216 30.1396 33.6468 30.1417V30.1417ZM33.6468 27.9839C33.4988 27.9842 33.3542 28.028 33.231 28.11C33.1078 28.192 33.0114 28.3084 32.9539 28.4448C32.8965 28.5812 32.8804 28.7314 32.9078 28.8769C32.9352 29.0223 33.0048 29.1565 33.108 29.2626C33.1768 29.3333 33.2589 29.3897 33.3496 29.4285C33.4403 29.4674 33.5378 29.4879 33.6365 29.489C33.7351 29.49 33.833 29.4716 33.9246 29.4347C34.0161 29.3978 34.0994 29.3432 34.1697 29.274C34.2755 29.1698 34.348 29.0368 34.3784 28.8915C34.4088 28.7462 34.3956 28.5952 34.3405 28.4574C34.2854 28.3197 34.1908 28.2012 34.0686 28.117C33.9464 28.0327 33.8021 27.9864 33.6537 27.9839H33.6468Z" fill="white"/>
<path d="M5.98633 57.9395H2.48242V60.5645H6.57812V61.748H1V53.2168H6.53711V54.4121H2.48242V56.7676H5.98633V57.9395Z" fill="#FC6011"/>
<path d="M9.81875 55.4082L9.85977 56.1406C10.3285 55.5742 10.9438 55.291 11.7055 55.291C13.0258 55.291 13.6977 56.0469 13.7211 57.5586V61.748H12.2973V57.6406C12.2973 57.2383 12.2094 56.9414 12.0336 56.75C11.8617 56.5547 11.5785 56.457 11.184 56.457C10.6098 56.457 10.182 56.7168 9.90078 57.2363V61.748H8.47695V55.4082H9.81875Z" fill="#FC6011"/>
<path d="M17.8113 53.8672V55.4082H18.9305V56.4629H17.8113V60.002C17.8113 60.2441 17.8582 60.4199 17.952 60.5293C18.0496 60.6348 18.2215 60.6875 18.4676 60.6875C18.6316 60.6875 18.7977 60.668 18.9656 60.6289V61.7305C18.6414 61.8203 18.3289 61.8652 18.0281 61.8652C16.9344 61.8652 16.3875 61.2617 16.3875 60.0547V56.4629H15.3445V55.4082H16.3875V53.8672H17.8113Z" fill="#FC6011"/>
<path d="M23.6652 61.8652C22.7629 61.8652 22.0305 61.582 21.468 61.0156C20.9094 60.4453 20.6301 59.6875 20.6301 58.7422V58.5664C20.6301 57.9336 20.7512 57.3691 20.9934 56.873C21.2395 56.373 21.5832 55.9844 22.0246 55.707C22.466 55.4297 22.9582 55.291 23.5012 55.291C24.3645 55.291 25.0305 55.5664 25.4992 56.1172C25.9719 56.668 26.2082 57.4473 26.2082 58.4551V59.0293H22.0656C22.1086 59.5527 22.2824 59.9668 22.5871 60.2715C22.8957 60.5762 23.2824 60.7285 23.7473 60.7285C24.3996 60.7285 24.9309 60.4648 25.341 59.9375L26.1086 60.6699C25.8547 61.0488 25.5148 61.3438 25.0891 61.5547C24.6672 61.7617 24.1926 61.8652 23.6652 61.8652ZM23.4953 56.4336C23.1047 56.4336 22.7883 56.5703 22.5461 56.8438C22.3078 57.1172 22.1555 57.498 22.0891 57.9863H24.802V57.8809C24.7707 57.4043 24.6437 57.0449 24.4211 56.8027C24.1984 56.5566 23.8898 56.4336 23.4953 56.4336Z" fill="#FC6011"/>
<path d="M31.4879 56.709C31.3004 56.6777 31.107 56.6621 30.9078 56.6621C30.2555 56.6621 29.816 56.9121 29.5895 57.4121V61.748H28.1656V55.4082H29.525L29.5602 56.1172C29.9039 55.5664 30.3805 55.291 30.9898 55.291C31.193 55.291 31.3609 55.3184 31.4937 55.373L31.4879 56.709Z" fill="#FC6011"/>
<path d="M38.7891 58.6426C38.7891 59.623 38.5664 60.4062 38.1211 60.9922C37.6758 61.5742 37.0781 61.8652 36.3281 61.8652C35.6328 61.8652 35.0762 61.6367 34.6582 61.1797V64.1855H33.2344V55.4082H34.5469L34.6055 56.0527C35.0234 55.5449 35.5918 55.291 36.3105 55.291C37.084 55.291 37.6895 55.5801 38.127 56.1582C38.5684 56.7324 38.7891 57.5312 38.7891 58.5547V58.6426ZM37.3711 58.5195C37.3711 57.8867 37.2441 57.3848 36.9902 57.0137C36.7402 56.6426 36.3809 56.457 35.9121 56.457C35.3301 56.457 34.9121 56.6973 34.6582 57.1777V59.9902C34.916 60.4824 35.3379 60.7285 35.9238 60.7285C36.377 60.7285 36.7305 60.5469 36.9844 60.1836C37.2422 59.8164 37.3711 59.2617 37.3711 58.5195Z" fill="#FC6011"/>
<path d="M44.1684 56.709C43.9809 56.6777 43.7875 56.6621 43.5883 56.6621C42.9359 56.6621 42.4965 56.9121 42.2699 57.4121V61.748H40.8461V55.4082H42.2055L42.2406 56.1172C42.5844 55.5664 43.0609 55.291 43.6703 55.291C43.8734 55.291 44.0414 55.3184 44.1742 55.373L44.1684 56.709Z" fill="#FC6011"/>
<path d="M47.4324 61.748H46.0086V55.4082H47.4324V61.748ZM45.9207 53.7617C45.9207 53.543 45.9891 53.3613 46.1258 53.2168C46.2664 53.0723 46.4656 53 46.7234 53C46.9813 53 47.1805 53.0723 47.3211 53.2168C47.4617 53.3613 47.532 53.543 47.532 53.7617C47.532 53.9766 47.4617 54.1562 47.3211 54.3008C47.1805 54.4414 46.9813 54.5117 46.7234 54.5117C46.4656 54.5117 46.2664 54.4414 46.1258 54.3008C45.9891 54.1562 45.9207 53.9766 45.9207 53.7617Z" fill="#FC6011"/>
<path d="M53.3918 60.0254C53.3918 59.7715 53.2863 59.5781 53.0754 59.4453C52.8684 59.3125 52.5227 59.1953 52.0383 59.0938C51.5539 58.9922 51.1496 58.8633 50.8254 58.707C50.1145 58.3633 49.759 57.8652 49.759 57.2129C49.759 56.666 49.9895 56.209 50.4504 55.8418C50.9113 55.4746 51.4973 55.291 52.2082 55.291C52.966 55.291 53.5773 55.4785 54.0422 55.8535C54.5109 56.2285 54.7453 56.7148 54.7453 57.3125H53.3215C53.3215 57.0391 53.2199 56.8125 53.0168 56.6328C52.8137 56.4492 52.5441 56.3574 52.2082 56.3574C51.8957 56.3574 51.6398 56.4297 51.4406 56.5742C51.2453 56.7188 51.1477 56.9121 51.1477 57.1543C51.1477 57.373 51.2395 57.543 51.423 57.6641C51.6066 57.7852 51.9777 57.9082 52.5363 58.0332C53.0949 58.1543 53.5324 58.3008 53.8488 58.4727C54.1691 58.6406 54.4055 58.8438 54.5578 59.082C54.7141 59.3203 54.7922 59.6094 54.7922 59.9492C54.7922 60.5195 54.5559 60.9824 54.0832 61.3379C53.6105 61.6895 52.9914 61.8652 52.2258 61.8652C51.7062 61.8652 51.2434 61.7715 50.8371 61.584C50.4309 61.3965 50.1145 61.1387 49.8879 60.8105C49.6613 60.4824 49.548 60.1289 49.548 59.75H50.9309C50.9504 60.0859 51.0773 60.3457 51.3117 60.5293C51.5461 60.709 51.8566 60.7988 52.2434 60.7988C52.6184 60.7988 52.9035 60.7285 53.0988 60.5879C53.2941 60.4434 53.3918 60.2559 53.3918 60.0254Z" fill="#FC6011"/>
<path d="M59.6793 61.8652C58.777 61.8652 58.0445 61.582 57.482 61.0156C56.9234 60.4453 56.6441 59.6875 56.6441 58.7422V58.5664C56.6441 57.9336 56.7652 57.3691 57.0074 56.873C57.2535 56.373 57.5973 55.9844 58.0387 55.707C58.4801 55.4297 58.9723 55.291 59.5152 55.291C60.3785 55.291 61.0445 55.5664 61.5133 56.1172C61.9859 56.668 62.2223 57.4473 62.2223 58.4551V59.0293H58.0797C58.1227 59.5527 58.2965 59.9668 58.6012 60.2715C58.9098 60.5762 59.2965 60.7285 59.7613 60.7285C60.4137 60.7285 60.9449 60.4648 61.3551 59.9375L62.1227 60.6699C61.8688 61.0488 61.5289 61.3438 61.1031 61.5547C60.6813 61.7617 60.2066 61.8652 59.6793 61.8652ZM59.5094 56.4336C59.1188 56.4336 58.8023 56.5703 58.5602 56.8438C58.3219 57.1172 58.1695 57.498 58.1031 57.9863H60.816V57.8809C60.7848 57.4043 60.6578 57.0449 60.4352 56.8027C60.2125 56.5566 59.9039 56.4336 59.5094 56.4336Z" fill="#FC6011"/>
</g>
<defs>
<clipPath id="clip0">
<rect width="64" height="64" fill="white"/>
</clipPath>
</defs>
</svg>
