<svg width="133" height="46" viewBox="0 0 133 46" fill="none" xmlns="http://www.w3.org/2000/svg">
<path d="M14.2914 0.235808L3.9118 5.23498C3.58929 5.39015 3.30588 5.61598 3.08262 5.89571C2.85936 6.17543 2.70198 6.50185 2.62217 6.85073L0.0592965 18.0836C-0.0199671 18.4322 -0.0197621 18.7942 0.0598941 19.1427C0.13955 19.4913 0.296617 19.8174 0.519454 20.097L7.70324 29.1065C7.92664 29.3855 8.20994 29.6107 8.53217 29.7654C8.85439 29.92 9.20729 30.0002 9.56472 30H21.0865C21.4439 30.0002 21.7968 29.92 22.119 29.7654C22.4413 29.6107 22.7246 29.3855 22.948 29.1065L30.1317 20.097C30.3546 19.8174 30.5116 19.4913 30.5913 19.1427C30.671 18.7942 30.6712 18.4322 30.5919 18.0836L28.0275 6.85073C27.9479 6.50199 27.7907 6.17566 27.5677 5.89595C27.3447 5.61624 27.0616 5.39033 26.7394 5.23498L16.3583 0.235808C16.0359 0.0805985 15.6827 0 15.3249 0C14.967 0 14.6138 0.0805985 14.2914 0.235808Z" fill="#1C7BD4"/>
<path d="M26.3744 16.4618C26.159 15.9952 25.8494 15.5781 25.465 15.237C25.0805 14.8959 24.6296 14.638 24.1406 14.4797C24.0912 14.4717 24.047 14.4445 24.0175 14.4041C23.9879 14.3637 23.9755 14.3133 23.9828 14.2638C23.9821 14.0789 23.9687 13.8943 23.9426 13.7113C23.8225 12.9688 23.4838 12.2789 22.9698 11.7298C22.4557 11.1807 21.7896 10.7974 21.0565 10.6287C20.7587 10.5617 20.3849 10.6287 20.2122 10.2534C20.1725 10.1818 20.1223 10.1166 20.0633 10.0599C19.5135 9.44747 18.8413 8.95737 18.0901 8.62131C17.5188 8.349 16.9005 8.18875 16.2688 8.14924C15.1296 8.10456 13.9874 8.11201 12.8437 8.1001C12.4208 8.1001 11.9994 8.1001 11.5764 8.1001C11.4618 8.1001 11.3471 8.13137 11.2324 8.13882C10.9927 8.1552 10.7365 8.50367 10.7648 8.73449C10.7741 8.88763 10.8404 9.03175 10.9506 9.13843C11.0609 9.24511 11.2071 9.30661 11.3605 9.3108C11.9145 9.29591 12.4685 9.3108 13.0224 9.3108C13.1448 9.32178 13.2596 9.37481 13.3473 9.46088C13.435 9.54694 13.4902 9.66072 13.5034 9.78287C13.5496 10.2296 13.1952 10.4411 12.8542 10.4381C11.4469 10.4262 10.0396 10.4381 8.63382 10.4381C8.50733 10.442 8.38508 10.4847 8.28361 10.5603C8.18214 10.636 8.10634 10.7409 8.06645 10.861C8.02627 10.9825 8.02939 11.1142 8.07527 11.2336C8.12115 11.353 8.20695 11.4529 8.31812 11.5163C8.44566 11.589 8.58847 11.6308 8.73509 11.6384C9.29353 11.6518 9.85197 11.6384 10.4298 11.6384C10.0771 12.4936 9.92434 13.418 9.98302 14.3412H9.75816C7.71352 14.3412 5.66887 14.3412 3.62572 14.3412C3.54047 14.3263 3.453 14.3301 3.36937 14.3524C3.28575 14.3747 3.208 14.415 3.14152 14.4704C3.07504 14.5258 3.02143 14.5951 2.98443 14.6733C2.94743 14.7515 2.92792 14.8369 2.92726 14.9234C2.92661 15.01 2.94481 15.0956 2.98062 15.1744C3.01643 15.2532 3.06898 15.3233 3.1346 15.3797C3.20023 15.4361 3.27737 15.4775 3.36064 15.5011C3.44391 15.5247 3.53132 15.5298 3.61679 15.5162C4.63538 15.5013 5.65398 15.5073 6.67258 15.5162C6.95552 15.5162 7.21911 15.5922 7.34569 15.8825C7.38176 15.973 7.39452 16.071 7.3828 16.1677C7.37108 16.2643 7.33525 16.3565 7.2786 16.4356C7.22196 16.5148 7.14632 16.5785 7.05864 16.6208C6.97096 16.6631 6.87405 16.6827 6.77682 16.6778H4.32414C4.24504 16.6806 4.16727 16.699 4.09527 16.7319C4.02327 16.7648 3.95846 16.8115 3.90453 16.8695C3.8506 16.9274 3.80861 16.9954 3.78096 17.0696C3.7533 17.1437 3.74053 17.2226 3.74337 17.3017C3.7462 17.3808 3.76459 17.4586 3.79748 17.5306C3.83038 17.6026 3.87712 17.6674 3.93506 17.7213C3.99301 17.7753 4.061 17.8173 4.13517 17.8449C4.20934 17.8726 4.28823 17.8853 4.36733 17.8825C4.57879 17.8825 4.79324 17.8825 5.02555 17.8825C5.01729 18.0045 5.01729 18.1269 5.02555 18.2488C5.06094 18.6008 5.12418 18.9493 5.21467 19.2913C5.43535 19.9912 5.86068 20.609 6.4358 21.0649C7.06327 21.5985 7.85641 21.898 8.67999 21.9122C13.4622 21.9241 18.244 21.9241 23.0252 21.9122C23.2911 21.9121 23.5558 21.8781 23.813 21.811C24.9761 21.5042 25.8457 20.8311 26.364 19.7261C26.6182 19.2199 26.7514 18.6616 26.7532 18.0952C26.755 17.5288 26.6253 16.9696 26.3744 16.4618ZM13.5883 16.1402C13.5366 16.1816 13.4714 16.2026 13.4052 16.199C13.339 16.1955 13.2764 16.1676 13.2294 16.1208L12.7827 15.6741C12.7362 15.6269 12.7085 15.5644 12.7049 15.4983C12.7014 15.4322 12.7221 15.367 12.7633 15.3152L13.0254 14.9846C12.933 14.8219 12.86 14.649 12.808 14.4693L12.3925 14.4217C12.327 14.4137 12.2666 14.382 12.2227 14.3327C12.1788 14.2833 12.1545 14.2196 12.1542 14.1536V13.5147C12.1545 13.4487 12.1788 13.385 12.2227 13.3357C12.2666 13.2863 12.327 13.2547 12.3925 13.2467L12.7871 13.202C12.8362 13.0055 12.9108 12.8163 13.009 12.6391L12.7633 12.3279C12.7218 12.2761 12.7009 12.2109 12.7044 12.1447C12.708 12.0785 12.7359 12.0159 12.7827 11.969L13.2294 11.5222C13.2764 11.4755 13.3388 11.4476 13.4049 11.4437C13.471 11.4399 13.5363 11.4604 13.5883 11.5014L13.8862 11.7352C14.0719 11.623 14.2724 11.5372 14.4818 11.4805L14.525 11.1142C14.5323 11.0482 14.5637 10.9873 14.6132 10.9431C14.6627 10.8988 14.7267 10.8744 14.7931 10.8744H15.4304C15.4968 10.8744 15.5608 10.8988 15.6103 10.9431C15.6597 10.9873 15.6912 11.0482 15.6985 11.1142L15.7417 11.4805C15.9476 11.535 16.1451 11.6177 16.3284 11.7262L16.6113 11.5014C16.6633 11.4601 16.7286 11.4394 16.7948 11.4432C16.861 11.4471 16.9235 11.4752 16.9702 11.5222L17.417 11.969C17.4635 12.0161 17.4911 12.0786 17.4947 12.1448C17.4983 12.2109 17.4775 12.276 17.4364 12.3279L17.2055 12.6257C17.3048 12.8013 17.3808 12.989 17.4319 13.1841L17.8072 13.2273C17.873 13.235 17.9337 13.2665 17.9779 13.3159C18.0221 13.3653 18.0466 13.4291 18.0469 13.4954V14.1342C18.0466 14.2005 18.0221 14.2644 17.9779 14.3138C17.9337 14.3632 17.873 14.3947 17.8072 14.4023L17.4274 14.4455C17.3734 14.6431 17.2938 14.8329 17.1906 15.0099L17.4378 15.3226C17.4792 15.3748 17.5 15.4403 17.4961 15.5068C17.4923 15.5732 17.4641 15.636 17.417 15.683L16.9702 16.1297C16.9235 16.1768 16.861 16.2049 16.7948 16.2087C16.7286 16.2126 16.6633 16.1919 16.6113 16.1506L16.2942 15.8989C16.1142 16.0014 15.9214 16.0795 15.7208 16.1312L15.6732 16.5393C15.6655 16.6049 15.6339 16.6655 15.5845 16.7095C15.5351 16.7534 15.4712 16.7776 15.4051 16.7775H14.7663C14.7001 16.7776 14.6363 16.7534 14.5869 16.7095C14.5374 16.6655 14.5059 16.6049 14.4982 16.5393L14.4491 16.1163C14.2624 16.0627 14.0829 15.9867 13.9144 15.89L13.5883 16.1402ZM18.035 18.9071C18.0342 18.9726 18.0094 19.0355 17.9651 19.0839C17.9209 19.1322 17.8604 19.1626 17.7952 19.1692L17.618 19.1885C17.5804 19.3196 17.5258 19.4453 17.4557 19.5623L17.5704 19.7112C17.6105 19.7631 17.6301 19.8279 17.6254 19.8933C17.6207 19.9586 17.5921 20.02 17.5451 20.0656L17.3515 20.2548C17.3047 20.3005 17.2427 20.3275 17.1774 20.3305C17.112 20.3335 17.0478 20.3124 16.997 20.2711L16.8481 20.1505C16.727 20.2165 16.5979 20.2665 16.4639 20.2994L16.4401 20.4945C16.4314 20.5595 16.3991 20.619 16.3494 20.6619C16.2998 20.7047 16.2361 20.7278 16.1706 20.7268H15.901C15.8353 20.7261 15.7722 20.7013 15.7236 20.6571C15.675 20.6129 15.6444 20.5524 15.6374 20.4871L15.6166 20.2816C15.4925 20.2474 15.3734 20.1973 15.2622 20.1327L15.1028 20.2563C15.0508 20.2968 14.9857 20.3166 14.92 20.3119C14.8543 20.3073 14.7926 20.2784 14.7469 20.2309L14.5578 20.0373C14.5119 19.9905 14.485 19.9284 14.4823 19.863C14.4796 19.7975 14.5011 19.7334 14.5429 19.6829L14.671 19.5251C14.6098 19.4162 14.5622 19.3001 14.5295 19.1796L14.3299 19.1543C14.2652 19.1456 14.2059 19.1135 14.1631 19.0642C14.1203 19.0148 14.097 18.9515 14.0976 18.8862V18.6152C14.0984 18.5497 14.1233 18.4867 14.1675 18.4384C14.2117 18.39 14.2722 18.3597 14.3374 18.3531L14.5235 18.3337C14.557 18.2028 14.6071 18.0767 14.6724 17.9585L14.5578 17.8095C14.5177 17.7577 14.4981 17.6929 14.5028 17.6275C14.5074 17.5621 14.536 17.5007 14.5831 17.4551L14.7767 17.2645C14.8239 17.2189 14.8862 17.1921 14.9518 17.1894C15.0174 17.1866 15.0817 17.2081 15.1326 17.2496L15.2651 17.3583C15.3917 17.2855 15.5274 17.2299 15.6687 17.193L15.6895 17.0262C15.698 16.9611 15.7301 16.9014 15.7799 16.8585C15.8296 16.8156 15.8934 16.7926 15.9591 16.7939H16.2286C16.2943 16.7946 16.3574 16.8195 16.406 16.8637C16.4546 16.9079 16.4853 16.9684 16.4922 17.0337L16.5086 17.202C16.6456 17.2391 16.7765 17.2958 16.8973 17.3702L17.0268 17.2705C17.0788 17.2299 17.1439 17.2101 17.2096 17.2148C17.2754 17.2195 17.337 17.2483 17.3827 17.2958L17.5719 17.4894C17.6174 17.5363 17.6441 17.5984 17.6468 17.6637C17.6496 17.7291 17.6282 17.7932 17.5868 17.8438L17.4795 17.9763C17.5449 18.0941 17.5949 18.2197 17.6285 18.3501L17.8012 18.3724C17.8662 18.3808 17.9259 18.4127 17.969 18.4621C18.012 18.5115 18.0355 18.575 18.035 18.6405V18.9071ZM21.8964 16.6122L21.6284 16.6673C21.5995 16.8319 21.5495 16.9921 21.4795 17.1439L21.6746 17.3509C21.7198 17.3982 21.7458 17.4606 21.7477 17.5261C21.7497 17.5915 21.7273 17.6554 21.685 17.7053L21.4005 18.0418C21.3584 18.092 21.2993 18.1249 21.2345 18.1342C21.1697 18.1435 21.1037 18.1287 21.0491 18.0925L20.8064 17.9316C20.6679 18.0269 20.5177 18.104 20.3596 18.161L20.3507 18.4588C20.3483 18.5244 20.322 18.5868 20.2768 18.6343C20.2315 18.6818 20.1703 18.711 20.105 18.7164L19.6657 18.7537C19.6004 18.7589 19.5355 18.74 19.4833 18.7004C19.4311 18.6609 19.3953 18.6035 19.3827 18.5392L19.3217 18.2414C19.1672 18.2101 19.0172 18.1601 18.8749 18.0925L18.6307 18.295C18.583 18.3397 18.5205 18.3653 18.4552 18.3669C18.3898 18.3686 18.3261 18.3462 18.2762 18.3039L17.9397 18.0195C17.8896 17.9774 17.8567 17.9183 17.8473 17.8534C17.838 17.7886 17.8529 17.7226 17.8891 17.6681L18.0573 17.4149C17.971 17.288 17.8995 17.1516 17.8444 17.0084L17.5466 16.9994C17.481 16.9971 17.4185 16.9708 17.3711 16.9255C17.3236 16.8802 17.2943 16.8191 17.2889 16.7537L17.2517 16.3144C17.2468 16.2492 17.2659 16.1845 17.3054 16.1323C17.3449 16.0802 17.402 16.0444 17.4661 16.0315L17.7431 15.9734C17.7727 15.8099 17.8227 15.6508 17.892 15.4998L17.697 15.2928C17.652 15.2451 17.626 15.1824 17.6241 15.1168C17.6222 15.0512 17.6444 14.9872 17.6865 14.9369L17.971 14.5989C18.0134 14.5486 18.0727 14.5157 18.1378 14.5064C18.2029 14.497 18.2691 14.5119 18.3239 14.5482L18.5458 14.6972C18.6912 14.5925 18.8506 14.5088 19.0193 14.4485L19.0283 14.1879C19.0299 14.1223 19.0558 14.0597 19.1009 14.0121C19.146 13.9645 19.2071 13.9354 19.2725 13.9302L19.7118 13.893C19.7771 13.8876 19.842 13.9063 19.8944 13.9456C19.9468 13.9848 19.983 14.0418 19.9963 14.1059L20.0484 14.3621C20.2201 14.3933 20.3869 14.4474 20.5443 14.5229L20.7304 14.3487C20.7781 14.304 20.8406 14.2784 20.9059 14.2768C20.9713 14.2751 21.0349 14.2975 21.0848 14.3398L21.4214 14.6242C21.4719 14.6661 21.5049 14.7255 21.5137 14.7906C21.5225 14.8557 21.5066 14.9217 21.469 14.9756L21.3201 15.196C21.414 15.3344 21.4892 15.4846 21.5435 15.6428L21.8116 15.6517C21.8769 15.654 21.9391 15.6801 21.9866 15.7251C22.034 15.77 22.0634 15.8308 22.0692 15.8959L22.1064 16.3427C22.1079 16.4052 22.0876 16.4662 22.049 16.5154C22.0104 16.5646 21.956 16.5988 21.895 16.6122H21.8964Z" fill="white"/>
<path d="M15.112 15.062C14.8611 15.062 14.6158 14.9876 14.4071 14.8481C14.1985 14.7087 14.0359 14.5106 13.9398 14.2787C13.8438 14.0469 13.8187 13.7918 13.8676 13.5457C13.9166 13.2995 14.0374 13.0735 14.2149 12.896C14.3923 12.7186 14.6184 12.5978 14.8645 12.5488C15.1106 12.4998 15.3657 12.525 15.5976 12.621C15.8294 12.717 16.0276 12.8796 16.167 13.0883C16.3064 13.2969 16.3808 13.5423 16.3808 13.7932C16.3808 14.1297 16.2471 14.4524 16.0092 14.6904C15.7713 14.9283 15.4485 15.062 15.112 15.062ZM15.112 12.9518C14.9456 12.9518 14.783 13.0012 14.6446 13.0936C14.5062 13.1861 14.3984 13.3175 14.3347 13.4712C14.271 13.625 14.2544 13.7941 14.2868 13.9573C14.3193 14.1205 14.3994 14.2705 14.5171 14.3881C14.6348 14.5058 14.7847 14.5859 14.9479 14.6184C15.1111 14.6509 15.2803 14.6342 15.434 14.5705C15.5878 14.5068 15.7192 14.399 15.8116 14.2606C15.9041 14.1223 15.9534 13.9596 15.9534 13.7932C15.953 13.5702 15.8643 13.3564 15.7066 13.1987C15.5489 13.041 15.3351 12.9522 15.112 12.9518Z" fill="white"/>
<path d="M19.6895 17.3778C19.415 17.3655 19.1562 17.2463 18.9685 17.0456C18.7808 16.8449 18.6792 16.5787 18.6853 16.304C18.6915 16.0293 18.8049 15.7679 19.0013 15.5758C19.1978 15.3837 19.4616 15.2761 19.7364 15.2761C20.0112 15.2761 20.2751 15.3837 20.4715 15.5758C20.668 15.7679 20.7814 16.0293 20.7875 16.304C20.7936 16.5787 20.692 16.8449 20.5043 17.0456C20.3166 17.2463 20.0578 17.3655 19.7833 17.3778H19.6895ZM19.6895 15.6503H19.6329C19.545 15.6536 19.4586 15.6747 19.379 15.7123C19.2995 15.7499 19.2284 15.8033 19.17 15.8692C19.1117 15.935 19.0673 16.0121 19.0396 16.0956C19.0118 16.1791 19.0013 16.2674 19.0087 16.3551C19.016 16.4428 19.0411 16.5281 19.0824 16.6058C19.1236 16.6835 19.1802 16.7521 19.2487 16.8073C19.3173 16.8625 19.3963 16.9033 19.481 16.9271C19.5657 16.951 19.6544 16.9574 19.7416 16.9459C19.9074 16.9301 20.0609 16.8514 20.1704 16.7259C20.2799 16.6004 20.337 16.4377 20.3302 16.2712C20.3233 16.1048 20.2529 15.9474 20.1334 15.8313C20.014 15.7153 19.8546 15.6494 19.688 15.6474L19.6895 15.6503Z" fill="white"/>
<path d="M16.074 19.6576H16.0636C15.8192 19.6562 15.5853 19.558 15.4132 19.3844C15.2411 19.2109 15.1448 18.9761 15.1455 18.7317C15.1462 18.4873 15.2438 18.2531 15.4169 18.0805C15.5899 17.908 15.8244 17.811 16.0688 17.811C16.3132 17.811 16.5477 17.908 16.7207 18.0805C16.8938 18.2531 16.9914 18.4873 16.9921 18.7317C16.9928 18.9761 16.8965 19.2109 16.7244 19.3844C16.5523 19.558 16.3184 19.6562 16.074 19.6576ZM16.074 18.2503C15.9775 18.2505 15.8832 18.2791 15.8028 18.3326C15.7224 18.386 15.6596 18.462 15.6221 18.5509C15.5846 18.6399 15.5742 18.7379 15.592 18.8327C15.6099 18.9276 15.6553 19.0151 15.7226 19.0843C15.7675 19.1304 15.821 19.1671 15.8802 19.1925C15.9393 19.2178 16.0029 19.2312 16.0672 19.2319C16.1316 19.2326 16.1954 19.2206 16.2551 19.1965C16.3148 19.1725 16.3692 19.1368 16.415 19.0917C16.484 19.0238 16.5313 18.937 16.5511 18.8423C16.5709 18.7475 16.5623 18.649 16.5264 18.5592C16.4904 18.4693 16.4287 18.3921 16.3491 18.3371C16.2694 18.2822 16.1752 18.252 16.0785 18.2503H16.074Z" fill="white"/>
<path d="M35.2886 26.3457V3.93356C35.2882 3.84836 35.3214 3.76646 35.3811 3.70566C35.4408 3.64486 35.5221 3.61009 35.6073 3.60892H39.4493C39.535 3.60892 39.6172 3.64296 39.6778 3.70356C39.7384 3.76417 39.7725 3.84636 39.7725 3.93207V13.7145C39.7726 13.7799 39.7926 13.8438 39.8298 13.8976C39.867 13.9515 39.9197 13.9927 39.9809 14.016C40.042 14.0392 40.1088 14.0434 40.1724 14.0278C40.236 14.0123 40.2933 13.9778 40.3369 13.9289L49.3673 3.68635C49.3973 3.65201 49.4345 3.62453 49.4761 3.60578C49.5177 3.58702 49.5629 3.57743 49.6085 3.57764H53.7008C53.7627 3.57729 53.8234 3.59481 53.8756 3.6281C53.9278 3.66139 53.9693 3.70905 53.9951 3.76533C54.0208 3.82162 54.0298 3.88416 54.021 3.94543C54.0121 4.00671 53.9857 4.06411 53.945 4.11077L45.7337 13.6281C45.6863 13.6837 45.6591 13.7536 45.6564 13.8266C45.6537 13.8995 45.6757 13.9712 45.7188 14.0302L54.5898 26.1551C54.625 26.2032 54.6462 26.2602 54.651 26.3196C54.6558 26.3791 54.644 26.4387 54.6171 26.4919C54.5901 26.545 54.5489 26.5897 54.4981 26.621C54.4473 26.6522 54.3888 26.6688 54.3292 26.6688H50.088C50.0367 26.6687 49.9862 26.6563 49.9406 26.6327C49.895 26.6092 49.8557 26.5751 49.8259 26.5333L42.9623 17.0026C42.9347 16.9642 42.899 16.9324 42.8577 16.9094C42.8164 16.8863 42.7706 16.8726 42.7235 16.8692C42.6763 16.8658 42.629 16.8728 42.5848 16.8897C42.5407 16.9065 42.5008 16.9329 42.4679 16.9668L39.8663 19.6801C39.8085 19.74 39.7764 19.8202 39.777 19.9035V26.3457C39.777 26.4314 39.7429 26.5136 39.6823 26.5742C39.6217 26.6348 39.5395 26.6688 39.4538 26.6688H35.6073C35.5223 26.6677 35.4413 26.6331 35.3816 26.5726C35.322 26.5121 35.2886 26.4306 35.2886 26.3457Z" fill="#000144"/>
<path d="M60.5052 26.6688C58.7489 26.6688 57.4156 26.1049 56.5052 24.9771C55.5948 23.8493 55.1396 22.1799 55.1396 19.969V9.64004C55.1396 9.55039 55.1753 9.46441 55.2387 9.40101C55.3021 9.33762 55.388 9.302 55.4777 9.302H59.1589C59.2486 9.302 59.3346 9.33762 59.398 9.40101C59.4614 9.46441 59.497 9.55039 59.497 9.64004V19.0219C59.497 21.6448 60.4401 22.9563 62.3264 22.9563C63.202 22.947 64.0558 22.6814 64.7821 22.1923C65.5535 21.6959 66.1859 20.9464 66.6793 19.9437C66.7035 19.8935 66.7162 19.8385 66.7165 19.7828V9.64004C66.7165 9.55039 66.7521 9.46441 66.8155 9.40101C66.8789 9.33762 66.9649 9.302 67.0546 9.302H70.7358C70.8255 9.302 70.9114 9.33762 70.9748 9.40101C71.0382 9.46441 71.0738 9.55039 71.0738 9.64004V21.3301C71.0738 21.7858 71.1553 22.1109 71.3181 22.3055C71.4582 22.4637 71.6486 22.5689 71.8572 22.6033C71.933 22.623 71.9999 22.6679 72.0468 22.7307C72.0936 22.7936 72.1176 22.8705 72.1148 22.9488V26.0612C72.1143 26.1411 72.0859 26.2184 72.0345 26.2795C71.9831 26.3407 71.912 26.382 71.8333 26.3963C71.5664 26.4467 71.297 26.483 71.0262 26.505C70.7284 26.5273 70.4678 26.5377 70.2295 26.5377C69.4492 26.5377 68.8148 26.359 68.3263 26.0016C68.0873 25.8287 67.8871 25.6077 67.7386 25.3527C67.5901 25.0978 67.4966 24.8146 67.4641 24.5214L67.3673 23.1558C66.6537 24.289 65.6411 25.2032 64.4411 25.7976C63.214 26.3881 61.8668 26.6863 60.5052 26.6688Z" fill="#000144"/>
<path d="M103.152 26.6687C101.882 26.6868 100.622 26.4488 99.4456 25.9688C98.3944 25.5413 97.4413 24.9041 96.6446 24.096C95.8478 23.288 95.224 22.326 94.8113 21.2689C94.3877 20.2034 94.1724 19.0665 94.1769 17.9198C94.1699 16.7497 94.3794 15.5885 94.7949 14.4947C95.1941 13.4409 95.8019 12.4785 96.582 11.6652C97.3891 10.8332 98.3574 10.1745 99.4278 9.7293C100.618 9.23774 101.896 8.99401 103.183 9.01301C104.461 8.99167 105.728 9.23558 106.906 9.7293C107.958 10.1768 108.91 10.8299 109.706 11.6503C110.475 12.4541 111.073 13.4062 111.462 14.4485C111.86 15.5086 112.062 16.6324 112.057 17.7649C112.057 18.0464 112.057 18.3174 112.041 18.578C112.035 18.797 112.007 19.015 111.959 19.2288H99.1523C99.106 19.2288 99.0602 19.2387 99.018 19.2578C98.9758 19.277 98.9381 19.3048 98.9076 19.3396C98.877 19.3744 98.8542 19.4154 98.8407 19.4597C98.8271 19.504 98.8232 19.5506 98.8291 19.5966C98.9043 20.0903 99.055 20.5694 99.2759 21.0173C99.5245 21.5214 99.8666 21.9736 100.284 22.3501C100.693 22.7171 101.167 23.004 101.682 23.1959C102.202 23.3926 102.753 23.4935 103.309 23.4938C104.168 23.4964 105.014 23.278 105.764 22.8594C106.386 22.5426 106.896 22.0446 107.228 21.4313C107.261 21.3635 107.316 21.3092 107.384 21.2776C107.452 21.2461 107.529 21.2393 107.602 21.2585L110.693 22.1178C110.74 22.1309 110.784 22.1543 110.82 22.1863C110.857 22.2183 110.886 22.258 110.905 22.3027C110.925 22.3473 110.934 22.3957 110.932 22.4444C110.931 22.493 110.918 22.5407 110.896 22.5839C110.221 23.7657 109.244 24.7476 108.066 25.4297C106.698 26.2567 105.06 26.6697 103.152 26.6687ZM107.209 16.3934C107.255 16.3933 107.301 16.3834 107.343 16.3643C107.385 16.3452 107.423 16.3173 107.454 16.2825C107.485 16.2478 107.507 16.2069 107.521 16.1626C107.535 16.1183 107.539 16.0716 107.533 16.0255C107.409 14.99 106.923 14.0317 106.16 13.3197C105.338 12.562 104.259 12.1427 103.141 12.1457C102.022 12.1488 100.946 12.5739 100.128 13.3361C99.7284 13.7173 99.4032 14.1692 99.1687 14.6689C98.9643 15.0998 98.8286 15.5601 98.7666 16.033C98.7613 16.0784 98.7657 16.1245 98.7796 16.1681C98.7935 16.2117 98.8164 16.2519 98.847 16.286C98.8775 16.32 98.915 16.3472 98.9568 16.3657C98.9987 16.3843 99.044 16.3937 99.0897 16.3934H107.209Z" fill="#000144"/>
<path d="M121.786 26.6686C120.689 26.6798 119.601 26.4562 118.598 26.0129C117.594 25.5696 116.696 24.9168 115.965 24.0983C115.236 23.2736 114.668 22.3194 114.291 21.2853C113.885 20.1766 113.683 19.0035 113.695 17.8229C113.685 16.6496 113.877 15.4832 114.264 14.3755C114.619 13.3567 115.153 12.4095 115.841 11.5788C116.5 10.7863 117.321 10.1431 118.248 9.69202C119.201 9.2316 120.247 8.99766 121.305 9.00849C122.5 8.99256 123.676 9.30802 124.703 9.91987C125.337 10.2962 125.904 10.7736 126.383 11.3331C126.436 11.3916 126.505 11.4327 126.581 11.451C126.658 11.4694 126.738 11.4641 126.812 11.4359C126.885 11.4076 126.948 11.3578 126.993 11.2929C127.037 11.228 127.061 11.1512 127.061 11.0725V2.9937C127.061 2.94234 127.07 2.89145 127.09 2.84394C127.109 2.79643 127.138 2.75324 127.174 2.71685C127.211 2.68046 127.254 2.65159 127.301 2.63189C127.349 2.61219 127.4 2.60205 127.451 2.60205H131.025C131.076 2.60205 131.127 2.61219 131.175 2.63189C131.222 2.65159 131.265 2.68046 131.301 2.71685C131.338 2.75324 131.366 2.79643 131.386 2.84394C131.405 2.89145 131.415 2.94234 131.415 2.9937V21.3299C131.415 21.7856 131.491 22.1108 131.643 22.3054C131.771 22.4579 131.949 22.5598 132.145 22.5928C132.226 22.6147 132.298 22.6633 132.348 22.7308C132.399 22.7983 132.425 22.8808 132.423 22.9651V26.0134C132.422 26.1057 132.389 26.1947 132.329 26.2653C132.27 26.3359 132.188 26.3837 132.097 26.4006C131.594 26.4995 131.083 26.5548 130.571 26.5659C129.789 26.5659 129.15 26.3708 128.651 25.9806C128.411 25.8001 128.211 25.5713 128.065 25.3089C127.919 25.0465 127.829 24.7564 127.802 24.4572L127.706 23.385C127.112 24.4343 126.225 25.2877 125.153 25.8407C124.114 26.3843 122.959 26.6684 121.786 26.6686ZM122.925 22.9606C123.356 22.9576 123.784 22.8862 124.193 22.7491C124.621 22.6123 125.027 22.4115 125.396 22.1535C125.764 21.8942 126.098 21.5883 126.388 21.2436C126.657 20.9268 126.873 20.5682 127.026 20.1818C127.045 20.1313 127.055 20.0778 127.055 20.0239V16.1178C127.054 16.0669 127.045 16.0165 127.026 15.9689C126.856 15.522 126.619 15.1033 126.324 14.7269C126.015 14.3318 125.654 13.9811 125.25 13.6845C124.859 13.3978 124.432 13.1631 123.981 12.9861C123.563 12.8171 123.116 12.7287 122.665 12.7255C122.038 12.7201 121.419 12.8651 120.86 13.1484C120.311 13.4272 119.828 13.8208 119.445 14.3025C119.048 14.8016 118.74 15.3653 118.535 15.9689C118.318 16.5963 118.208 17.2558 118.209 17.9197C118.202 18.5975 118.323 19.2705 118.566 19.9033C118.792 20.4898 119.123 21.0299 119.543 21.4967C119.956 21.9535 120.46 22.3192 121.022 22.5704C121.62 22.8384 122.27 22.974 122.925 22.968V22.9606Z" fill="#000144"/>
<path d="M91.5782 16.0388L90.4554 15.9078C90.3018 15.3246 90.0741 14.7636 89.7778 14.2384L90.4702 13.3643C90.5932 13.209 90.6547 13.0139 90.6432 12.8162C90.6317 12.6185 90.5478 12.432 90.4077 12.2921L89.0674 10.9518C88.9272 10.8122 88.7405 10.7288 88.5429 10.7176C88.3453 10.7063 88.1504 10.7679 87.9952 10.8907L87.1464 11.5624C86.5974 11.2397 86.0073 10.9927 85.3921 10.8282L85.2641 9.72918C85.2408 9.53252 85.1463 9.3512 84.9984 9.2195C84.8505 9.08779 84.6594 9.01482 84.4614 9.01438H82.5478C82.3497 9.0145 82.1585 9.08736 82.0105 9.21912C81.8626 9.35089 81.7681 9.53239 81.7452 9.72918L81.6171 10.8282C80.9844 10.9967 80.3784 11.2528 79.8167 11.5892L78.9902 10.9324V3.16191C78.9902 3.13206 78.9843 3.1025 78.9728 3.07494C78.9613 3.04738 78.9445 3.02236 78.9233 3.00132C78.9022 2.98028 78.877 2.96364 78.8494 2.95236C78.8218 2.94107 78.7922 2.93536 78.7623 2.93555H74.7907C74.7698 2.93536 74.7492 2.9393 74.7298 2.94714C74.7105 2.95499 74.6929 2.96658 74.6781 2.98126C74.6633 2.99594 74.6515 3.0134 74.6435 3.03265C74.6355 3.0519 74.6313 3.07255 74.6313 3.09341V26.2993C74.6313 26.3972 74.6703 26.4911 74.7395 26.5604C74.8088 26.6297 74.9027 26.6686 75.0007 26.6686H78.6328C78.7276 26.6686 78.8185 26.6309 78.8855 26.5639C78.9525 26.4969 78.9902 26.406 78.9902 26.3112V24.755L79.9194 24.0193C80.4238 24.3089 80.9613 24.5364 81.5203 24.6969L81.6692 25.9612C81.6918 26.1579 81.786 26.3394 81.9337 26.4712C82.0814 26.603 82.2724 26.6759 82.4704 26.676H84.378C84.5765 26.6762 84.768 26.6032 84.9161 26.4711C85.0642 26.339 85.1584 26.1569 85.1807 25.9597L85.3296 24.7416C85.9294 24.5849 86.5064 24.3517 87.0466 24.0476L87.9952 24.7922C88.1509 24.9161 88.3469 24.9782 88.5455 24.9666C88.7442 24.9551 88.9316 24.8707 89.0719 24.7297L90.4122 23.3894C90.5521 23.2498 90.636 23.0636 90.6478 22.8662C90.6596 22.6689 90.5985 22.474 90.4762 22.3187L89.7316 21.379C90.0391 20.8489 90.2769 20.2813 90.439 19.6903L91.5767 19.5592C91.7739 19.5369 91.9559 19.4427 92.0881 19.2946C92.2202 19.1466 92.2932 18.955 92.293 18.7566V16.8504C92.2948 16.6509 92.2228 16.4577 92.0909 16.3079C91.9589 16.1581 91.7764 16.0623 91.5782 16.0388ZM84.3616 20.8042C83.8212 20.9548 83.2504 20.9592 82.7078 20.8167C82.1651 20.6743 81.67 20.3902 81.2733 19.9936C80.8765 19.597 80.5922 19.102 80.4496 18.5594C80.3069 18.0168 80.311 17.446 80.4615 16.9055C80.6046 16.3832 80.8813 15.9072 81.2644 15.5243C81.6475 15.1415 82.1237 14.8651 82.6461 14.7224C83.1863 14.5722 83.7567 14.5682 84.2989 14.7107C84.8412 14.8532 85.3359 15.1372 85.7324 15.5336C86.1289 15.93 86.4131 16.4245 86.5558 16.9667C86.6986 17.5089 86.6947 18.0793 86.5448 18.6196C86.4033 19.1431 86.1273 19.6205 85.7444 20.0045C85.3614 20.3885 84.8848 20.6657 84.3616 20.8087V20.8042Z" fill="#1C7BD4"/>
<path d="M7.37695 40.2227C7.29102 41.1328 6.95508 41.8438 6.36914 42.3555C5.7832 42.8633 5.00391 43.1172 4.03125 43.1172C3.35156 43.1172 2.75195 42.957 2.23242 42.6367C1.7168 42.3125 1.31836 41.8535 1.03711 41.2598C0.755859 40.666 0.609375 39.9766 0.597656 39.1914V38.3945C0.597656 37.5898 0.740234 36.8809 1.02539 36.2676C1.31055 35.6543 1.71875 35.1816 2.25 34.8496C2.78516 34.5176 3.40234 34.3516 4.10156 34.3516C5.04297 34.3516 5.80078 34.6074 6.375 35.1191C6.94922 35.6309 7.2832 36.3535 7.37695 37.2871H5.90039C5.83008 36.6738 5.65039 36.2324 5.36133 35.9629C5.07617 35.6895 4.65625 35.5527 4.10156 35.5527C3.45703 35.5527 2.96094 35.7891 2.61328 36.2617C2.26953 36.7305 2.09375 37.4199 2.08594 38.3301V39.0859C2.08594 40.0078 2.25 40.7109 2.57812 41.1953C2.91016 41.6797 3.39453 41.9219 4.03125 41.9219C4.61328 41.9219 5.05078 41.791 5.34375 41.5293C5.63672 41.2676 5.82227 40.832 5.90039 40.2227H7.37695Z" fill="#00A651"/>
<path d="M17.1827 39.7715C17.1827 39.1504 17.3058 38.5918 17.5519 38.0957C17.798 37.5957 18.1437 37.2129 18.589 36.9473C19.0343 36.6777 19.546 36.543 20.1241 36.543C20.9796 36.543 21.673 36.8184 22.2042 37.3691C22.7394 37.9199 23.0284 38.6504 23.0714 39.5605L23.0773 39.8945C23.0773 40.5195 22.9562 41.0781 22.714 41.5703C22.4757 42.0625 22.132 42.4434 21.6827 42.7129C21.2374 42.9824 20.7218 43.1172 20.1359 43.1172C19.2413 43.1172 18.5245 42.8203 17.9855 42.2266C17.4503 41.6289 17.1827 40.834 17.1827 39.8418V39.7715ZM18.6066 39.8945C18.6066 40.5469 18.7413 41.0586 19.0109 41.4297C19.2804 41.7969 19.6554 41.9805 20.1359 41.9805C20.6163 41.9805 20.9894 41.793 21.255 41.418C21.5245 41.043 21.6593 40.4941 21.6593 39.7715C21.6593 39.1309 21.5206 38.623 21.2433 38.248C20.9698 37.873 20.5968 37.6855 20.1241 37.6855C19.6593 37.6855 19.2902 37.8711 19.0167 38.2422C18.7433 38.6094 18.6066 39.1602 18.6066 39.8945Z" fill="#00A651"/>
<path d="M34.5002 36.6602L34.5413 37.3223C34.9866 36.8027 35.5959 36.543 36.3694 36.543C37.217 36.543 37.7971 36.8672 38.1096 37.5156C38.5705 36.8672 39.219 36.543 40.0549 36.543C40.7541 36.543 41.2737 36.7363 41.6135 37.123C41.9573 37.5098 42.133 38.0801 42.1409 38.834V43H40.717V38.875C40.717 38.4727 40.6291 38.1777 40.4534 37.9902C40.2776 37.8027 39.9866 37.709 39.5803 37.709C39.2561 37.709 38.9905 37.7969 38.7834 37.9727C38.5803 38.1445 38.4377 38.3711 38.3557 38.6523L38.3616 43H36.9377V38.8281C36.9182 38.082 36.5373 37.709 35.7952 37.709C35.2248 37.709 34.8205 37.9414 34.5823 38.4062V43H33.1584V36.6602H34.5002Z" fill="#00A651"/>
<path d="M53.8216 36.6602L53.8627 37.3223C54.308 36.8027 54.9173 36.543 55.6908 36.543C56.5384 36.543 57.1185 36.8672 57.431 37.5156C57.892 36.8672 58.5404 36.543 59.3763 36.543C60.0755 36.543 60.5951 36.7363 60.9349 37.123C61.2787 37.5098 61.4545 38.0801 61.4623 38.834V43H60.0384V38.875C60.0384 38.4727 59.9505 38.1777 59.7748 37.9902C59.599 37.8027 59.308 37.709 58.9017 37.709C58.5775 37.709 58.3119 37.7969 58.1048 37.9727C57.9017 38.1445 57.7591 38.3711 57.6771 38.6523L57.683 43H56.2591V38.8281C56.2396 38.082 55.8587 37.709 55.1166 37.709C54.5462 37.709 54.142 37.9414 53.9037 38.4062V43H52.4798V36.6602H53.8216Z" fill="#00A651"/>
<path d="M75.645 42.3789C75.227 42.8711 74.6333 43.1172 73.8638 43.1172C73.1763 43.1172 72.6548 42.916 72.2993 42.5137C71.9477 42.1113 71.772 41.5293 71.772 40.7676V36.6602H73.1958V40.75C73.1958 41.5547 73.5298 41.957 74.1977 41.957C74.8891 41.957 75.3559 41.709 75.5981 41.2129V36.6602H77.022V43H75.6802L75.645 42.3789Z" fill="#00A651"/>
<path d="M88.6734 36.6602L88.7145 37.3926C89.1832 36.8262 89.7984 36.543 90.5602 36.543C91.8805 36.543 92.5523 37.2988 92.5758 38.8105V43H91.152V38.8926C91.152 38.4902 91.0641 38.1934 90.8883 38.002C90.7164 37.8066 90.4332 37.709 90.0387 37.709C89.4645 37.709 89.0367 37.9688 88.7555 38.4883V43H87.3316V36.6602H88.6734Z" fill="#00A651"/>
<path d="M104.426 43H103.003V36.6602H104.426V43ZM102.915 35.0137C102.915 34.7949 102.983 34.6133 103.12 34.4688C103.26 34.3242 103.46 34.252 103.717 34.252C103.975 34.252 104.175 34.3242 104.315 34.4688C104.456 34.6133 104.526 34.7949 104.526 35.0137C104.526 35.2285 104.456 35.4082 104.315 35.5527C104.175 35.6934 103.975 35.7637 103.717 35.7637C103.46 35.7637 103.26 35.6934 103.12 35.5527C102.983 35.4082 102.915 35.2285 102.915 35.0137Z" fill="#00A651"/>
<path d="M116.646 35.1191V36.6602H117.765V37.7148H116.646V41.2539C116.646 41.4961 116.693 41.6719 116.787 41.7812C116.885 41.8867 117.056 41.9395 117.303 41.9395C117.467 41.9395 117.633 41.9199 117.801 41.8809V42.9824C117.476 43.0723 117.164 43.1172 116.863 43.1172C115.769 43.1172 115.223 42.5137 115.223 41.3066V37.7148H114.18V36.6602H115.223V35.1191H116.646Z" fill="#00A651"/>
<path d="M129.956 40.9609L131.245 36.6602H132.763L130.243 43.9609C129.856 45.0273 129.2 45.5605 128.274 45.5605C128.067 45.5605 127.839 45.5254 127.589 45.4551V44.3535L127.858 44.3711C128.218 44.3711 128.487 44.3047 128.667 44.1719C128.851 44.043 128.995 43.8242 129.101 43.5156L129.306 42.9707L127.079 36.6602H128.614L129.956 40.9609Z" fill="#00A651"/>
</svg>
