<svg id="Layer_1" data-name="Layer 1" xmlns="http://www.w3.org/2000/svg" viewBox="0 0 1279 639"><defs><style>.cls-1{fill:#1c7bd4;}.cls-2{fill:#fff;}.cls-3{fill:none;}.cls-4{fill:#000144;}</style></defs><title>kubed-1280x640</title><path class="cls-1" d="M631.68,101.77l-78.59,37.85a18,18,0,0,0-9.76,12.23l-19.41,85a18,18,0,0,0,3.48,15.25l54.39,68.2a18,18,0,0,0,14.09,6.79h87.24a18,18,0,0,0,14.09-6.79l54.39-68.2a18,18,0,0,0,3.48-15.25l-19.41-85a18,18,0,0,0-9.76-12.23l-78.59-37.85A18,18,0,0,0,631.68,101.77Z"/><path class="cls-2" d="M723.13,224.61a28.15,28.15,0,0,0-16.89-15A1.45,1.45,0,0,1,705,208a29.17,29.17,0,0,0-.3-4.18,28.63,28.63,0,0,0-21.85-23.33c-2.27-.51-5.08,0-6.39-2.85a6.33,6.33,0,0,0-1.14-1.46,44.64,44.64,0,0,0-14.94-10.9,37.54,37.54,0,0,0-13.78-3.57c-8.63-.33-17.27-.29-25.91-.37-3.2,0-6.4,0-9.6,0-.87,0-1.73.23-2.6.29-1.82.13-3.75,2.76-3.55,4.5a4.65,4.65,0,0,0,4.56,4.36c4.19-.11,8.39,0,12.59,0a4,4,0,0,1,3.63,3.57c.36,3.34-2.33,5-4.91,5-10.65-.08-21.3,0-32,0a4.66,4.66,0,0,0-4.29,3.21,4.19,4.19,0,0,0,1.9,5,7.18,7.18,0,0,0,3.15.92c4.23.1,8.46,0,12.83,0a45.89,45.89,0,0,0-3.42,20.46h-1.71c-15.47,0-31,0-46.43,0a4.45,4.45,0,1,0-.06,8.89c7.71-.11,15.42-.06,23.13,0,2.14,0,4.14.58,5.11,2.77a4.41,4.41,0,0,1-4.32,6q-9.28,0-18.57,0a4.44,4.44,0,0,0-4.46,4.38c0,2.84,1.81,4.66,4.78,4.74,1.61,0,3.22,0,5,0a19.62,19.62,0,0,0,0,2.78,50.28,50.28,0,0,0,1.43,7.87,27.89,27.89,0,0,0,9.24,13.43,27,27,0,0,0,17,6.41q54.3.14,108.59,0a23.64,23.64,0,0,0,6-.77c8.79-2.32,15.38-7.42,19.31-15.76A27.76,27.76,0,0,0,723.13,224.61Zm-96.8-2.43a2,2,0,0,1-2.72-.15l-3.41-3.41a2,2,0,0,1-.15-2.72l2-2.5a17.81,17.81,0,0,1-1.64-3.9l-3.14-.37a2,2,0,0,1-1.82-2v-4.83a2,2,0,0,1,1.82-2l3-.34a17.61,17.61,0,0,1,1.69-4.26l-1.86-2.36a2,2,0,0,1,.15-2.72l3.42-3.41a2,2,0,0,1,2.71-.16l2.23,1.77a17.91,17.91,0,0,1,4.55-1.93l.33-2.77a2,2,0,0,1,2-1.82h4.83a2,2,0,0,1,2,1.82l.32,2.77a18.14,18.14,0,0,1,4.45,1.86l2.14-1.7a2,2,0,0,1,2.72.16l3.41,3.4a2.06,2.06,0,0,1,.15,2.72l-1.75,2.21a17.73,17.73,0,0,1,1.72,4.23l2.84.33a2,2,0,0,1,1.81,2v4.83a2.05,2.05,0,0,1-1.81,2l-2.88.33a17.8,17.8,0,0,1-1.79,4.27l1.87,2.38a2,2,0,0,1-.16,2.71L652,222a2,2,0,0,1-2.72.15l-2.4-1.9a18.46,18.46,0,0,1-4.35,1.76l-.35,3.08a2.05,2.05,0,0,1-2,1.81h-4.84a2,2,0,0,1-2-1.81l-.37-3.2a18.24,18.24,0,0,1-4-1.71ZM660,243.13a2,2,0,0,1-1.81,2l-1.34.13a12.15,12.15,0,0,1-1.23,2.84l.86,1.12a2,2,0,0,1-.18,2.69l-1.47,1.43a2,2,0,0,1-2.68.12l-1.14-.91a12.12,12.12,0,0,1-2.91,1.13l-.19,1.47a2,2,0,0,1-2,1.77l-2,0a2,2,0,0,1-2-1.81l-.16-1.56a11.79,11.79,0,0,1-2.68-1.17l-1.21.93a2,2,0,0,1-2.69-.18l-1.43-1.47a2,2,0,0,1-.12-2.68l1-1.2a11.73,11.73,0,0,1-1.07-2.62l-1.5-.19a2,2,0,0,1-1.77-2l0-2.05a2,2,0,0,1,1.81-2l1.42-.14a11.91,11.91,0,0,1,1.15-2.84l-.86-1.11a2,2,0,0,1,.19-2.69l1.47-1.44a2,2,0,0,1,2.68-.12l1,.82a11.92,11.92,0,0,1,3-1.24l.16-1.26a2,2,0,0,1,2-1.77l2,0a2,2,0,0,1,2,1.81l.13,1.27a11.81,11.81,0,0,1,2.94,1.28l1-.76a2,2,0,0,1,2.69.19l1.43,1.47a2,2,0,0,1,.12,2.68l-.82,1a12,12,0,0,1,1.11,2.84l1.31.17a2,2,0,0,1,1.77,2Zm29.24-17.38-2,.42a14.42,14.42,0,0,1-1.16,3.6l1.48,1.57a2,2,0,0,1,.07,2.69l-2.15,2.55a2,2,0,0,1-2.66.38L681,235.75a15.06,15.06,0,0,1-3.42,1.73l-.07,2.23a2,2,0,0,1-1.86,1.95l-3.32.28a2,2,0,0,1-2.15-1.61l-.47-2.29a14.25,14.25,0,0,1-3.42-1.11l-1.67,1.56a2,2,0,0,1-2.68.07l-2.55-2.15a2,2,0,0,1-.38-2.66l1.27-1.92a14.34,14.34,0,0,1-1.61-3.08l-2.27-.07a2,2,0,0,1-2-1.85l-.29-3.33a2,2,0,0,1,1.62-2.15l2.1-.43a15,15,0,0,1,1.09-3.59l-1.47-1.57a2,2,0,0,1-.08-2.69l2.16-2.56a2,2,0,0,1,2.66-.38l1.68,1.11a14.64,14.64,0,0,1,3.59-1.88l.06-2a2,2,0,0,1,1.85-1.95l3.33-.28a2,2,0,0,1,2.15,1.62l.4,1.94a14.57,14.57,0,0,1,3.75,1.22l1.41-1.32a2,2,0,0,1,2.69-.08l2.54,2.16a2,2,0,0,1,.37,2.67L684.9,215a15,15,0,0,1,1.69,3.34l2,.06a2,2,0,0,1,2,1.85l.29,3.33A2,2,0,0,1,689.24,225.75Z"/><path class="cls-3" d="M633.24,225.13a2,2,0,0,0,2,1.81h4.84a2.05,2.05,0,0,0,2-1.81l.35-3.08a18.46,18.46,0,0,0,4.35-1.76l2.4,1.9A2,2,0,0,0,652,222l3.41-3.42a2,2,0,0,0,.16-2.71l-1.87-2.38a17.8,17.8,0,0,0,1.79-4.27l2.88-.33a2.05,2.05,0,0,0,1.81-2v-4.83a2,2,0,0,0-1.81-2l-2.84-.33a17.73,17.73,0,0,0-1.72-4.23l1.75-2.21a2.06,2.06,0,0,0-.15-2.72l-3.41-3.4a2,2,0,0,0-2.72-.16l-2.14,1.7a18.14,18.14,0,0,0-4.45-1.86l-.32-2.77a2,2,0,0,0-2-1.82h-4.83a2,2,0,0,0-2,1.82l-.33,2.77a17.91,17.91,0,0,0-4.55,1.93L626.33,187a2,2,0,0,0-2.71.16l-3.42,3.41a2,2,0,0,0-.15,2.72l1.86,2.36a17.61,17.61,0,0,0-1.69,4.26l-3,.34a2,2,0,0,0-1.82,2v4.83a2,2,0,0,0,1.82,2l3.14.37a17.81,17.81,0,0,0,1.64,3.9l-2,2.5a2,2,0,0,0,.15,2.72l3.41,3.41a2,2,0,0,0,2.72.15l2.49-2a18.24,18.24,0,0,0,4,1.71Z"/><path class="cls-2" d="M637.89,214a9.61,9.61,0,1,1,9.6-9.61A9.61,9.61,0,0,1,637.89,214Zm0-16a6.38,6.38,0,1,0,6.37,6.37A6.37,6.37,0,0,0,637.89,198Z"/><path class="cls-3" d="M688.62,218.42l-2-.06A15,15,0,0,0,684.9,215l1.11-1.66a2,2,0,0,0-.37-2.67l-2.54-2.16a2,2,0,0,0-2.69.08L679,209.93a14.57,14.57,0,0,0-3.75-1.22l-.4-1.94a2,2,0,0,0-2.15-1.62l-3.33.28a2,2,0,0,0-1.85,1.95l-.06,2a14.64,14.64,0,0,0-3.59,1.88l-1.68-1.11a2,2,0,0,0-2.66.38l-2.16,2.56a2,2,0,0,0,.08,2.69l1.47,1.57a15,15,0,0,0-1.09,3.59l-2.1.43a2,2,0,0,0-1.62,2.15l.29,3.33a2,2,0,0,0,2,1.85l2.27.07a14.34,14.34,0,0,0,1.61,3.08L659,233.75a2,2,0,0,0,.38,2.66l2.55,2.15a2,2,0,0,0,2.68-.07l1.67-1.56a14.25,14.25,0,0,0,3.42,1.11l.47,2.29a2,2,0,0,0,2.15,1.61l3.32-.28a2,2,0,0,0,1.86-1.95l.07-2.23a15.06,15.06,0,0,0,3.42-1.73l1.84,1.21a2,2,0,0,0,2.66-.38L687.6,234a2,2,0,0,0-.07-2.69l-1.48-1.57a14.42,14.42,0,0,0,1.16-3.6l2-.42a2,2,0,0,0,1.62-2.15l-.29-3.33A2,2,0,0,0,688.62,218.42Z"/><path class="cls-2" d="M672.54,231.55a8.18,8.18,0,1,1,.71,0h0C673,231.54,672.78,231.55,672.54,231.55Zm0-13.08-.42,0a4.92,4.92,0,0,0-3.35,1.73A4.92,4.92,0,0,0,673,228.3h0a4.92,4.92,0,0,0-.41-9.83Z"/><path class="cls-3" d="M658.26,239.05l-1.31-.17a12,12,0,0,0-1.11-2.84l.82-1a2,2,0,0,0-.12-2.68l-1.43-1.47a2,2,0,0,0-2.69-.19l-1,.76a11.81,11.81,0,0,0-2.94-1.28l-.13-1.27a2,2,0,0,0-2-1.81l-2,0a2,2,0,0,0-2,1.77l-.16,1.26a11.92,11.92,0,0,0-3,1.24l-1-.82a2,2,0,0,0-2.68.12l-1.47,1.44a2,2,0,0,0-.19,2.69l.86,1.11a11.91,11.91,0,0,0-1.15,2.84l-1.42.14a2,2,0,0,0-1.81,2l0,2.05a2,2,0,0,0,1.77,2l1.5.19a11.73,11.73,0,0,0,1.07,2.62l-1,1.2a2,2,0,0,0,.12,2.68l1.43,1.47a2,2,0,0,0,2.69.18l1.21-.93a11.79,11.79,0,0,0,2.68,1.17l.16,1.56a2,2,0,0,0,2,1.81l2,0a2,2,0,0,0,2-1.77l.19-1.47a12.12,12.12,0,0,0,2.91-1.13l1.14.91a2,2,0,0,0,2.68-.12l1.47-1.43a2,2,0,0,0,.18-2.69l-.86-1.12a12.15,12.15,0,0,0,1.23-2.84l1.34-.13a2,2,0,0,0,1.81-2l0-2A2,2,0,0,0,658.26,239.05Z"/><path class="cls-2" d="M645.17,248.81h-.08a7,7,0,1,1,.08,0Zm0-10.65a3.71,3.71,0,0,0-2.66,6.3,3.71,3.71,0,0,0,6.36-2.54,3.72,3.72,0,0,0-3.66-3.76Z"/><path class="cls-4" d="M331.66,537V394.91a2,2,0,0,1,2-2h24.35a2,2,0,0,1,2.05,2v62a2,2,0,0,0,3.58,1.36l57.24-64.92a2,2,0,0,1,1.53-.7H448.4a2.05,2.05,0,0,1,1.55,3.39l-52.09,60.31a2.06,2.06,0,0,0-.1,2.55L454,535.76a2,2,0,0,1-1.65,3.26H425.47a2.06,2.06,0,0,1-1.66-.85L380.3,477.73a2,2,0,0,0-3.13-.22l-16.49,17.21a2,2,0,0,0-.57,1.42V537a2.05,2.05,0,0,1-2.05,2H333.71A2.05,2.05,0,0,1,331.66,537Z"/><path class="cls-4" d="M491.5,539q-16.69,0-25.36-10.72t-8.65-31.75V431.09a2.14,2.14,0,0,1,2.14-2.15H483a2.15,2.15,0,0,1,2.15,2.15v59.49q0,24.93,17.93,24.94a28.27,28.27,0,0,0,15.56-4.85q7.35-4.71,12-14.25a2.24,2.24,0,0,0,.24-1V431.09a2.14,2.14,0,0,1,2.14-2.15h23.34a2.14,2.14,0,0,1,2.14,2.15v74.12q0,4.34,1.55,6.18a5.77,5.77,0,0,0,3.42,1.86,2.18,2.18,0,0,1,1.63,2.19v19.73a2.19,2.19,0,0,1-1.79,2.13c-2,.35-3.68.58-5.12.69-1.85.13-3.54.2-5,.2-5,0-9-1.13-12.06-3.4a13.4,13.4,0,0,1-5.46-9.38l-.62-8.65a46,46,0,0,1-18.55,16.69A55.83,55.83,0,0,1,491.5,539Z"/><path class="cls-4" d="M761.82,539a60,60,0,0,1-23.5-4.43,53.06,53.06,0,0,1-29.38-29.79,57.07,57.07,0,0,1-4-21.23,60.17,60.17,0,0,1,3.92-21.75,53,53,0,0,1,11.34-17.93,54.15,54.15,0,0,1,18-12.27,60,60,0,0,1,23.8-4.53,58.63,58.63,0,0,1,23.61,4.53,54.53,54.53,0,0,1,17.72,12.16,51.72,51.72,0,0,1,11.13,17.73,58.9,58.9,0,0,1,3.82,21c0,1.79,0,3.5-.1,5.15a22.18,22.18,0,0,1-.52,4.12H736.54a2.07,2.07,0,0,0-2,2.34,30.59,30.59,0,0,0,2.8,9A27.78,27.78,0,0,0,752.54,517a29,29,0,0,0,10.31,1.86,31.85,31.85,0,0,0,15.56-4,21.9,21.9,0,0,0,9.28-9.06,2.05,2.05,0,0,1,2.37-1.1l19.59,5.45a2.07,2.07,0,0,1,1.28,3,48.77,48.77,0,0,1-17.88,18Q780,539,761.82,539Zm25.71-65.14a2.07,2.07,0,0,0,2.05-2.33,28,28,0,0,0-8.7-17.15,28.13,28.13,0,0,0-38.23.1,28.16,28.16,0,0,0-6.08,8.45A28.64,28.64,0,0,0,734,471.6a2.05,2.05,0,0,0,2.05,2.28Z"/><path class="cls-4" d="M879.93,539A48.78,48.78,0,0,1,843,522.73a55.88,55.88,0,0,1-10.61-17.83A62,62,0,0,1,828.6,483a64.62,64.62,0,0,1,3.61-21.85,57.37,57.37,0,0,1,10-17.73,46,46,0,0,1,15.25-11.95,43.51,43.51,0,0,1,19.38-4.33,40.92,40.92,0,0,1,21.54,5.77,42.83,42.83,0,0,1,10.65,9,2.46,2.46,0,0,0,4.3-1.66V389a2.47,2.47,0,0,1,2.47-2.47h22.67A2.48,2.48,0,0,1,941,389V505.21q0,4.34,1.44,6.18a5.32,5.32,0,0,0,3.18,1.83,2.39,2.39,0,0,1,1.77,2.36v19.31a2.54,2.54,0,0,1-2.07,2.46,56.44,56.44,0,0,1-9.68,1q-7.43,0-12.16-3.71a13.56,13.56,0,0,1-5.36-9.69l-.62-6.8a39.19,39.19,0,0,1-16.18,15.56A46.09,46.09,0,0,1,879.93,539Zm7.22-23.5a26,26,0,0,0,8-1.34,28.28,28.28,0,0,0,7.63-3.82,33.08,33.08,0,0,0,6.29-5.77,23.83,23.83,0,0,0,4-6.73,2.62,2.62,0,0,0,.19-1V472.12a2.7,2.7,0,0,0-.18-1,30.56,30.56,0,0,0-4.46-7.88,34.25,34.25,0,0,0-6.81-6.59,35.8,35.8,0,0,0-8-4.44,23.08,23.08,0,0,0-8.35-1.64,24.74,24.74,0,0,0-11.44,2.68,27,27,0,0,0-9,7.31,35.25,35.25,0,0,0-5.77,10.62,37.56,37.56,0,0,0-2.06,12.37,34.09,34.09,0,0,0,2.26,12.57,32.64,32.64,0,0,0,6.19,10.1,28.18,28.18,0,0,0,9.38,6.81A29,29,0,0,0,887.15,515.52Z"/><path class="cls-1" d="M688.45,471.64l-7.11-.83a45,45,0,0,0-4.29-10.57l4.38-5.55a5.1,5.1,0,0,0-.39-6.79l-8.53-8.53a5.12,5.12,0,0,0-6.8-.4l-5.38,4.27a44.63,44.63,0,0,0-11.13-4.66l-.81-7a5.11,5.11,0,0,0-5.08-4.52h-12.1a5.11,5.11,0,0,0-5.08,4.52l-.81,7a44.48,44.48,0,0,0-11.41,4.82l-5.25-4.16V390a1.43,1.43,0,0,0-1.43-1.44H582a1,1,0,0,0-1,1V536.68a2.34,2.34,0,0,0,2.34,2.34h23a2.26,2.26,0,0,0,2.26-2.26v-9.92l5.9-4.66a45.1,45.1,0,0,0,10.15,4.29l.93,8a5.13,5.13,0,0,0,5.09,4.53h12.08a5.13,5.13,0,0,0,5.1-4.54l.89-7.72a45.31,45.31,0,0,0,10.88-4.4l6,4.76a5.14,5.14,0,0,0,6.82-.39l8.54-8.54a5.13,5.13,0,0,0,.4-6.79l-4.7-6a44.26,44.26,0,0,0,4.48-10.7l7.21-.83a5.13,5.13,0,0,0,4.54-5.09V476.74A5.14,5.14,0,0,0,688.45,471.64Zm-45.73,30.24A20.07,20.07,0,0,1,618,477.17a19.74,19.74,0,0,1,13.85-13.84A20.07,20.07,0,0,1,656.55,488,19.74,19.74,0,0,1,642.72,501.88Z"/></svg>