<svg xmlns="http://www.w3.org/2000/svg" width="68.164" height="66.142" viewBox="0 0 18.035 17.5" xmlns:v="https://vecta.io/nano"><path d="M8.958.463c-.151.008-.299.045-.435.11l-5.94 2.838a1.13 1.13 0 0 0-.615.764L.503 10.55a1.12 1.12 0 0 0 .154.864l.065.09 4.111 5.112a1.14 1.14 0 0 0 .888.424l6.593-.002a1.14 1.14 0 0 0 .888-.423l4.11-5.112a1.12 1.12 0 0 0 .22-.953l-1.468-6.375a1.13 1.13 0 0 0-.615-.764L9.509.573c-.171-.082-.361-.12-.551-.11z" fill="#326ce5"/><path d="M8.955.002a1.2 1.2 0 0 0-.459.117L2.225 3.114a1.19 1.19 0 0 0-.649.807L.03 10.65a1.18 1.18 0 0 0 .163.912l.068.094 4.34 5.396c.228.283.573.447.937.447l6.96-.002a1.2 1.2 0 0 0 .937-.447l4.338-5.397a1.18 1.18 0 0 0 .232-1.006l-1.549-6.73a1.19 1.19 0 0 0-.649-.806L9.537.118c-.181-.086-.381-.126-.582-.116zm.003.462a1.14 1.14 0 0 1 .551.11l5.94 2.836a1.13 1.13 0 0 1 .615.764l1.468 6.375a1.12 1.12 0 0 1-.22.953l-4.11 5.112a1.14 1.14 0 0 1-.888.423l-6.593.002a1.14 1.14 0 0 1-.888-.424L.722 11.504l-.065-.09a1.12 1.12 0 0 1-.154-.864l1.465-6.375a1.13 1.13 0 0 1 .615-.764L8.523.574a1.13 1.13 0 0 1 .435-.11zm4.319 8.055h-.693V6.672c0-.508-.416-.924-.924-.924H9.813v-.693c0-.637-.517-1.155-1.155-1.155s-1.155.517-1.155 1.155v.693H5.656c-.508 0-.919.416-.919.924v1.755h.688a1.25 1.25 0 0 1 1.247 1.247 1.25 1.25 0 0 1-1.247 1.247h-.693v1.755c0 .508.416.924.924.924h1.755v-.693a1.25 1.25 0 0 1 1.247-1.247 1.25 1.25 0 0 1 1.247 1.247v.693h1.755c.508 0 .924-.416.924-.924v-1.847h.693c.637 0 1.155-.517 1.155-1.155s-.517-1.155-1.155-1.155z" fill="#fff"/></svg>