<svg xmlns="http://www.w3.org/2000/svg" viewBox="0 0 2500 2500" xmlns:v="https://vecta.io/nano"><path d="M244.864 181.428l92.772-92.772 109.318 109.318-92.772 92.772z" fill="#9a4c00"/><path d="M1529.2,436.9h-367.5V69.4h367.5V436.9z" fill="#b38a65"/><path d="M1345.5 69.4h183.7v367.5h-183.7z" fill="#a17852"/><path d="M2243.961 198.007L2353.279 88.69l92.772 92.772-109.318 109.318z" fill="#703700"/><path d="M604 1060.2L352.5 808.7c-168.9-168.9-168.9-443.6 0-612.5C434.3 114.4 543 69.4 658.7 69.4s224.4 45 306.2 126.8l251.5 251.5L604 1060.2z" fill="#ffdb2d"/><path d="M2086.9 1060.2l-612.5-612.5L1726 196.2c81.8-81.8 190.6-126.8 306.2-126.8s224.4 45 306.2 126.8c168.9 168.9 168.9 443.6 0 612.5l-251.5 251.5z" fill="#ff9a00"/><path d="M1345.5 2134.1c-252.4 0-489.7-98.3-668.1-276.7s-276.7-415.7-276.7-668.1S499 699.6 677.4 521.2c178.5-178.5 415.7-276.7 668.1-276.7s489.7 98.3 668.1 276.7 276.7 415.7 276.7 668.1-98.3 489.7-276.7 668.1-415.7 276.7-668.1 276.7z" fill="#fff5cb"/><path d="M2013.6 521.1c-178.5-178.5-415.7-276.7-668.1-276.7v1889.8c252.4 0 489.7-98.3 668.1-276.7s276.7-415.7 276.7-668.1-98.2-489.8-276.7-668.3z" fill="#ffdba9"/><path d="M1275.5 550.6h131.2v468.1h-131.2z" fill="#b38a65"/><path d="M1507.3 1123.6h433.1v131.2h-433.1zm-161.8-573h61.2v468.1h-61.2z" fill="#a17852"/><path d="M1345.5 1429.9c-132.7 0-240.6-107.9-240.6-240.6s107.9-240.6 240.6-240.6 240.6 107.9 240.6 240.6-108 240.6-240.6 240.6z" fill="#ff4f19"/><path d="M1345.5 948.7v481.2c132.7 0 240.6-107.9 240.6-240.6s-108-240.6-240.6-240.6z" fill="#ff3200"/><path d="M750.8 2309.1c-289.4 0-524.9-235.5-524.9-524.9s235.5-524.9 524.9-524.9 524.9 235.5 524.9 524.9-235.5 524.9-524.9 524.9z" fill="#ff4f19"/><path d="M750.8 1259.2v1049.9c289.4 0 524.9-235.5 524.9-524.9s-235.5-525-524.9-525z" fill="#ff3200"/><path d="M575.8 2279.1c54.8 19.4 113.6 30 175 30s120.2-10.6 175-30v-350.6h-350v350.6z" fill="#9a4c00"/><path d="M750.8 1928.5v380.6c61.3 0 120.2-10.6 175-30v-350.6h-175z" fill="#703700"/><path d="M750.8,2126.8l-315-182.3V1548H637v240.5l113.7,63.7l113.7-63.7V1548h201.2v396.5L750.8,2126.8z" fill="#ffdb2d"/><path d="M864.5 1548v240.4l-113.7 63.8v274.6l314.9-182.3V1548z" fill="#ff9a00"/><path d="M1520.4 2438.6c-30.3 0-58.9-13.5-78.3-37.9l-294.5-366.1c-19.4-24.4-26.9-55.5-19.4-85.8l105.2-457c6.7-30.3 26.9-54.7 54.7-68.2L1714 1220c13.5-6.7 28.6-10.1 43.8-10.1s30.3 3.4 43.8 10.1l425.8 202.8c27.8 13.5 48 37.9 54.7 68.2l105.2 457c6.7 30.3 0 61.4-19.4 85.8l-294.6 366.1c-19.4 23.6-48 37.9-78.3 37.9l-474.6.8h0z" fill="#326de6"/><path d="M1756.9 1230.9c11.8 0 23.6 2.5 34.5 7.6l425.8 202.8c21.9 10.9 38.7 31.1 43.8 54.7l105.2 457c5.9 24.4 0 49.7-16 69l-294.6 366.1c-15.1 19.4-38.7 30.3-63.1 30.3h-472.1c-24.4 0-48-10.9-63.1-30.3L1162.8 2022c-15.1-19.4-21-44.6-16-69l105.2-457c5.9-24.4 21.9-44.6 43.8-54.7l425.8-203.7c10.9-4.1 23.5-6.7 35.3-6.7h0zm0-39.5c-17.7 0-35.3 4.2-52.2 11.8l-425.8 203.7c-33.7 16-57.2 45.4-65.6 81.6l-105.2 457c-8.4 36.2 0 73.2 23.6 102.7l294.6 366.1c22.7 28.6 57.2 44.6 93.4 44.6h472.1c36.2 0 70.7-16 93.4-44.6l294.6-366.1c23.6-28.6 32-66.5 23.6-102.7l-105.2-457c-8.4-36.2-32-65.6-65.6-81.6l-424.2-203.7c-16.1-7.6-33.8-11.8-51.5-11.8zm426.7 725.4c-.8 0-.8 0 0 0h-.8c-.8 0-1.7 0-1.7-.8-1.7 0-3.4-.8-5-.8-5.9-.8-10.9-1.7-16-1.7-2.5 0-5 0-8.4-.8h-.8c-17.7-1.7-32-3.4-45.4-7.6-5.9-2.5-7.6-5.9-9.3-9.3 0-.8-.8-.8-.8-1.7l-10.9-3.4c5.2-39.6 3.2-79.8-5.9-118.7-9.2-39.2-25.1-76.5-47.1-110.2l8.4-7.6v-1.7c0-4.2.8-8.4 4.2-12.6 10.1-9.3 22.7-16.8 37.9-26.1 2.5-1.7 5-2.5 7.6-4.2 5-2.5 9.3-5 14.3-8.4.8-.8 2.5-1.7 4.2-3.4.8-.8 1.7-.8 1.7-1.7 11.8-10.1 14.3-26.9 5.9-37.9-4.2-5.9-11.8-9.3-19.4-9.3-6.7 0-12.6 2.5-18.5 6.7l-1.7 1.7c-1.7.8-2.5 2.5-4.2 3.4-4.2 4.2-7.6 7.6-10.9 11.8-1.7 1.7-3.4 4.2-5.9 5.9-11.8 12.6-22.7 22.7-33.7 30.3-2.5 1.7-5 2.5-7.6 2.5-1.7 0-3.4 0-5-.8h-1.7l-10.1 6.7c-10.9-11.8-22.7-21.9-34.5-32-50.7-39.7-111.8-63.9-175.9-69.9l-.8-10.9-1.7-1.7c-2.5-2.5-5.9-5-6.7-10.9-.8-13.5.8-28.6 2.5-45.4v-.8c0-2.5.8-5.9 1.7-8.4l2.5-16v-7.6c0-15.1-11.8-27.8-26.1-27.8-6.7 0-13.5 3.4-18.5 8.4s-7.6 11.8-7.6 19.4v6.7c0 5.9.8 10.9 2.5 16 .8 2.5.8 5 1.7 8.4v.8c1.7 16.8 4.2 32 2.5 45.4-.8 5.9-4.2 8.4-6.7 10.9l-1.7 1.7-.8 10.9c-15.1 1.7-30.3 3.4-45.4 6.7-64.8 14.3-122 47.1-166.6 94.3l-8.4-5.9h-1.7c-1.7 0-3.4.8-5 .8-2.5 0-5-.8-7.6-2.5-10.9-7.6-21.9-18.5-33.7-31.1-1.7-1.7-3.4-4.2-5.9-5.9-3.4-4.2-6.7-7.6-10.9-11.8-.8-.8-2.5-1.7-4.2-3.4-.8-.8-1.7-.8-1.7-1.7-5.2-4.3-11.8-6.7-18.5-6.7-7.6 0-15.1 3.4-19.4 9.3-8.4 10.9-5.9 27.8 5.9 37.9.8 0 .8.8 1.7.8 1.7.8 2.5 2.5 4.2 3.4 5 3.4 9.3 5.9 14.3 8.4 2.5.8 5 2.5 7.6 4.2 15.1 9.3 27.8 16.8 37.9 26.1 4.2 4.2 4.2 8.4 4.2 12.6v1.7l8.4 7.6c-1.7 2.5-3.4 4.2-4.2 6.7-42.1 66.5-58.1 144.8-47.1 222.2l-10.9 3.4c0 .8-.8.8-.8 1.7-1.7 3.4-4.2 6.7-9.3 9.3-12.6 4.2-27.8 5.9-45.4 7.6h-.8c-2.5 0-5.9 0-8.4.8-5 0-10.1.8-16 1.7-1.7 0-3.4.8-5 .8-.8 0-1.7 0-2.5.8-15.1 3.4-24.4 17.7-21.9 31.1 2.5 11.8 13.5 19.4 26.9 19.4 2.5 0 4.2 0 6.7-.8.8 0 1.7 0 1.7-.8 1.7 0 3.4-.8 5-.8 5.9-1.7 10.1-3.4 15.2-5.9 2.5-.8 5-2.5 7.6-3.4h.8c16-5.9 30.3-10.9 43.8-12.6h1.7c5 0 8.4 2.5 10.9 4.2.8 0 .8.8 1.7.8l11.8-1.7c20.2 62.3 58.9 117.8 110.2 158.2 11.8 9.3 23.6 16.8 36.2 24.4l-5 10.9c0 .8.8.8.8 1.7 1.7 3.4 3.4 7.6 1.7 13.5-5 12.6-12.6 25.2-21.9 39.6v.8c-1.7 2.5-3.4 4.2-5 6.7-3.4 4.2-5.9 8.4-9.3 13.5-.8.8-1.7 2.5-2.5 4.2 0 .8-.8 1.7-.8 1.7-6.7 14.3-1.7 30.3 10.9 36.2 3.4 1.7 6.7 2.5 10.1 2.5 10.1 0 20.2-6.7 25.2-16 0-.8.8-1.7.8-1.7.8-1.7 1.7-3.4 2.5-4.2 2.5-5.9 3.4-10.1 5-15.1l2.5-7.6c5.9-16.8 10.1-30.3 17.7-42.1 3.4-5 7.6-5.9 10.9-7.6.8 0 .8 0 1.7-.8l5.9-10.9c37 14.3 77.4 21.9 117.8 21.9 24.4 0 49.7-2.5 73.2-8.4a376.56 376.56 0 0 0 43.8-12.6l5 9.3c.8 0 .8 0 1.7.8 4.2.8 7.6 2.5 10.9 7.6 6.7 11.8 11.8 26.1 17.7 42.1v.8l2.5 7.6c1.7 5 2.5 10.1 5 15.1.8 1.7 1.7 2.5 2.5 4.2 0 .8.8 1.7.8 1.7 5 10.1 15.1 16 25.2 16 3.4 0 6.7-.8 10.1-2.5 5.9-3.4 10.9-8.4 12.6-15.1s1.7-14.3-1.7-21c0-.8-.8-.8-.8-1.7-.8-1.7-1.7-3.4-2.5-4.2-2.5-5-5.9-9.3-9.3-13.5-1.7-2.5-3.4-4.2-5-6.7v-.8c-9.3-14.3-17.7-26.9-21.9-39.6-1.7-5.9 0-9.3.8-13.5 0-.8.8-.8.8-1.7l-4.2-10.1c44.6-26.1 82.5-63.1 111.1-108.6 15.1-23.6 26.9-49.7 35.3-75.7l10.1 1.7c.8 0 .8-.8 1.7-.8 3.4-1.7 5.9-4.2 10.9-4.2h1.7c13.5 1.7 27.8 6.7 43.8 12.6h.8c2.5.8 5 2.5 7.6 3.4 5 2.5 9.3 4.2 15.1 5.9 1.7 0 3.4.8 5 .8.8 0 1.7 0 2.5.8 2.5.8 4.2.8 6.7.8 12.6 0 23.6-8.4 26.9-19.4.1-10-9.2-23.5-24.3-27.7h0zm-389.7-41.2l-37 17.7-37-17.7-9.3-39.6 25.2-32h41.2l25.2 32-8.3 39.6h0zm219.7-87.5c6.5 27.8 8.5 56.5 5.9 85l-128.8-37c-11.8-3.4-18.5-15.1-16-26.9.8-3.4 2.5-6.7 5-9.3l101.8-91.7c14.4 23.5 25.4 50.4 32.1 79.9h0zm-72.4-130.5l-110.2 78.3c-9.3 5.9-21.9 4.2-29.5-5-2.5-2.5-3.4-5.9-4.2-9.3l-7.6-137.2c57.4 6.6 110.8 32.4 151.5 73.2h0zm-244-69l26.9-5-7.6 134.6c-.8 11.8-10.1 21.9-22.7 21.9-3.4 0-7.6-.8-10.1-2.5l-111.9-79.9c34.5-34.6 77.4-58.2 125.4-69.1h0zm-165.8 119.5l100.1 89.2c9.3 7.6 10.1 21.9 2.5 31.1-2.5 3.4-5.9 5.9-10.1 6.7l-130.4 37.9c-5-57.2 7.6-115.2 37.9-164.9h0zm-22.8 228.1l133.8-22.7c10.9-.8 21 6.7 23.6 17.7.8 5 .8 9.3-.8 13.5l-51.3 123.7c-47.2-30.4-85-76.7-105.3-132.2h0zm307.2 167.4c-19.4 4.2-38.7 6.7-58.9 6.7-29.5 0-58.1-5-85-13.5l66.5-120.3c6.7-7.6 17.7-10.9 26.9-5.9 3.9 2.4 7.4 5.5 10.1 9.3l64.8 117c-7.5 2.5-16 4.2-24.4 6.7h0zm164.1-116.9c-21 33.7-48.8 60.6-80.8 81.6l-53-127.1c-2.5-10.1 1.7-21 11.8-26.1 3.4-1.7 7.6-2.5 11.8-2.5l134.7 22.7c-5.1 18.5-13.5 35.4-24.5 51.4h0z" fill="#fff"/></svg>