<svg xmlns="http://www.w3.org/2000/svg" viewBox="0 0 2500 2500" xmlns:v="https://vecta.io/nano"><path d="M2359.8 1821.4H140.2l36.1-99.9C265.7 1474.3 311 1215.6 311 952.8 311 551.5 637.4 225 1038.7 225h422.6c401.3 0 727.8 326.5 727.8 727.8 0 262.9 45.3 521.5 134.7 768.7l36 99.9z" fill="#ffdb2d"/><path d="M2323.7 1721.5c-89.4-247.2-134.7-505.8-134.7-768.7 0-401.3-326.5-727.8-727.8-727.8H1250v1596.4h1109.8l-36.1-99.9z" fill="#9a4c00"/><path d="M1142 2323.8H780.5c-194.2 0-352.1-158-352.1-352.1v-399.1h140.9v399.1c0 116.5 94.8 211.3 211.3 211.3H1142v140.8zm1258.3-1018.9h-140.9V999.7c0-453.1-368.6-821.7-821.7-821.7h-375.6C609 178 240.4 546.6 240.4 999.7v305.2H99.7V999.7c0-530.7 431.8-962.5 962.5-962.5h375.6c530.7 0 962.5 431.8 962.5 962.5v305.2z" fill="#b38a65"/><path d="M1437.8 37.2H1250v140.9h187.8c453.1 0 821.7 368.6 821.7 821.7V1305h140.9V999.7c-.1-530.7-431.9-962.5-962.6-962.5z" fill="#a17852"/><path d="M710.1 1633.6H430.7c-182.5 0-331-148.5-331-331s148.5-331 331-331h279.4v662z" fill="#ff4f19"/><path d="M1250 2013.9c-375.4 0-680.8-305.4-680.8-680.8V938.7c0-271.8 221.2-493 493-493h375.6c271.8 0 493 221.2 493 493v394.4c0 375.4-305.4 680.8-680.8 680.8z" fill="#fff5cb"/><path d="M1250 2441.1c-103.6 0-187.8-84.3-187.8-187.8 0-103.6 84.3-187.8 187.8-187.8s187.8 84.3 187.8 187.8c0 103.6-84.2 187.8-187.8 187.8z" fill="#ff4f19"/><path d="M2069.3 1633.6h-279.4v-662h279.4c182.5 0 331 148.5 331 331s-148.5 331-331 331zM1250 2065.5v375.6c103.6 0 187.8-84.3 187.8-187.8s-84.2-187.8-187.8-187.8z" fill="#ff3200"/><path d="M1437.8 445.7H1250v1568.2c375.4 0 680.8-305.4 680.8-680.8V938.7c0-271.9-221.2-493-493-493z" fill="#ffdba9"/><path d="M2189,1211h-258.2c-401.3,0-727.8-326.5-727.8-727.8V225h258.2c401.3,0,727.8,326.5,727.8,727.8V1211z" fill="#ff9a00"/></svg>