<svg xmlns="http://www.w3.org/2000/svg" xmlns:xlink="http://www.w3.org/1999/xlink" viewBox="0 0 2500 2432" xmlns:v="https://vecta.io/nano"><path d="M1414.8 1460.7c-17.6 0-29.3-11.8-29.3-29.4 0-17.7 11.7-29.4 29.3-29.4 17.6-23.6 17.6-223.8-93.8-382.7C1192.1 830.8 998.7 766 957.7 783.7c-17.6 5.9-29.3 0-41-17.7-5.9-17.7 0-29.4 17.6-41.2 87.9-35.3 304.7 70.7 433.7 259.1 111.3 164.9 134.8 371 93.8 441.6-11.9 29.3-35.3 35.2-47 35.2z" fill="#415a6b"/><path d="M1911.4 2263.3l35.7-153.4-60.6-25-28.5-46.4 3.6-67.8-21.4-32.1-17.8 10.7-28.5-42.8 17.8-10.7-25-46.4-64.2-7.1-35.7-57.1 21.4-57.1-21.4-32.1 32.1-17.8-39.2-64.2 35.7-21.4c39.2-25 53.5-71.3 35.7-114.2-25-60.6-53.5-117.7-85.6-171.2l-3.6-10.7c-14.3-25-39.2-42.8-71.3-49.9-42.8-10.7-82 3.6-110.6 32.1-35.7-42.8-99.9-53.5-146.3-21.4-49.9 32.1-67.8 92.8-46.4 142.7-35.7 10.7-67.8 42.8-78.5 85.6-7.1 32.1 0 60.6 14.3 85.6l3.6 7.1c35.7 53.5 71.3 103.5 117.7 149.8 32.1 32.1 78.5 39.2 117.7 14.3l35.7-21.4 331.8 520.8 81.8 21.5zm-520.8-799.1c-17.8-28.5-10.7-67.8 17.8-85.6s67.8-10.7 85.6 17.8 10.7 67.8-17.8 85.6c-28.6 21.5-67.8 14.3-85.6-17.8z" fill="#f16051"/><path d="M1611.7 1781.7c-35.7-49.9-57.1-64.2-25 17.8l285.4 453.1 39.2 7.1v-3.6l-299.6-474.4z" fill="#c12e27"/><path d="M2160.2 2054l-18.2-156.4-65.5-3-42.5-34-19.5-65-31-23-13.2 16.1-41.3-30.7 13.2-16.1-39.2-35.2-62.9 15-52.9-41.7.9-61-31-23 24.2-27.6-58.6-47.2 26.4-32.2c28.5-36.8 26.3-85.2-5-119.5-44-48.7-90.1-92.7-138.4-132.3l-7-8.9c-21.9-18.7-51.4-27-84-22.9-43.9 4.4-76 31.1-93.3 67.6-48-28.3-112.1-16.6-144.9 29.2-36.2 47.1-32.5 110.2 4.5 150-30 22.1-49.3 63.2-45 107.1 4.1 32.6 20.5 57.1 42.3 75.8l5.8 5.5c51.6 38.3 102.1 73.3 161.4 101.3 41.1 19.4 87.1 10.4 115.6-26.3l26.4-32.2 488.1 378.2 84.6-7.6zm-760-576.3c-26.4-20.8-33-60.2-12.1-86.6 20.8-26.4 60.2-33 86.6-12.1 26.4 20.8 33 60.2 12.1 86.6-19.6 29.7-59 36.3-86.6 12.1z" fill="#2ea2db"/><path d="M1715.6 1701.8c-50.4-35-75.4-41.2-17.5 25.2l421.6 330.1 39.3-6.5-1.2-3.4-442.2-345.4z" fill="#0075a3"/><path d="M1397.7 2384.6l110.6-110.6-35.7-53.5v-57.1l39.2-53.5v-32.1h-21.4v-49.9h21.4v-53.5l-49.9-39.2v-67.8l49.9-39.2V1789h35.7v-74.9h42.8c46.4 0 82-32.1 92.8-74.9 10.7-64.2 17.8-124.9 17.8-189.1v-7.1c0-28.5-10.7-57.1-32.1-78.5-28.5-28.5-71.3-39.2-110.6-28.5-7.1-53.5-57.1-96.3-114.2-96.3s-103.5 42.8-114.2 96.3c-39.2-10.7-78.5 0-110.6 28.5-21.4 21.4-32.1 49.9-32.1 78.5v7.1c0 64.2 7.1 128.4 17.8 189.1 7.1 42.8 46.4 74.9 92.8 74.9h42.8v613.6l57.2 56.9zm-17.8-952.5c0-35.7 28.5-64.2 64.2-64.2s64.2 28.5 64.2 64.2-28.5 64.2-64.2 64.2-64.2-28.5-64.2-64.2z" fill="#ffd15c"/><path d="M1397.7 2384.6v-645.7c-10.7-124.9-17.8-124.9-28.5 0v620.7l28.5 25h0z" fill="#f7b64c"/><path d="M1144.4 2335.2l136-77.3-20.2-61.1 15.2-55 52-41.2 8.5-31-20.6-5.7 13.3-48.2 20.6 5.7 14.2-51.6-37.7-51.1 18-65.3 58.6-24.6 10.4-37.8 34.4 9.5 19.9-72.2 41.3 11.4c44.7 12.3 87.6-9.2 109.3-47.6 27.4-59.1 50.3-115.6 67.4-177.6l1.9-6.9c7.6-27.5 4.8-57.9-10.1-84.2-19.9-35.1-58.4-56.8-99-56.9 7.3-53.5-29.5-108-84.5-123.2s-111.1 13.8-135.6 62.6c-35-20.7-75.7-20.8-114.2-1.8-26.3 15-44.2 39.6-51.8 67.1l-1.9 6.9c-17 61.9-27.2 125.7-33 187-4.5 43.2 24.8 84.5 69.5 96.8l41.3 11.4-162.9 591.6 39.7 70.3zm235.7-923c9.5-34.4 44.6-54.3 79-44.9 34.4 9.5 54.3 44.6 44.9 79-9.5 34.4-44.6 54.3-79 44.9-34.5-9.5-54.4-44.6-44.9-79z" fill="#00d371"/><path d="M1144.4 2335.2l171.4-622.5c22.8-123.2 15.9-125.1-27.5-7.6l-164.8 598.5 20.9 31.6h0z" fill="#04b55c"/><path d="M1414.8 1460.7c-64.5 0-269.6-76.5-410.2-276.7-105.5-147.2-152.4-294.4-128.9-382.7 5.9-35.3 29.3-58.9 58.6-70.7 11.7-5.9 29.3 0 41 11.8 5.9 11.8 0 29.4-11.7 41.2-11.7 5.9-23.4 17.7-23.4 35.3-17.6 70.7 29.3 206.1 123.1 335.6 123.1 176.6 310.6 253.2 357.5 253.2 17.6 0 29.3 11.8 29.3 29.4-.2 17.7-17.7 23.6-35.3 23.6z" fill="#415a6b"/><path d="M650.8 686.9c-180.3 0-328.2-147.9-328.2-328.2S470.8 30.6 650.8 30.6 979 176 979 358.8c0 180.2-147.9 328.1-328.2 328.1z" fill="#f16051"/><g fill="#fff"><circle cx="650.8" cy="318.3" r="139.8"/><path d="M812.2 458.3H650.8 489.7c-56.5 0-102.1 45.8-102.1 102.1v147.9h526.7V560.4c0-56.5-45.6-102.1-102.1-102.1z"/></g><path d="M812.2 431.3h-37.7c27-29.5 45.8-70 45.8-113 0-91.4-75.4-166.8-166.8-166.8s-166.8 75.4-166.8 166.8c0 43 16 83.2 45.8 113H495c-70 0-129.1 59.1-129.1 129.1v147.9h53.7V560.4c0-40.2 34.9-75.4 75.4-75.4h322.5c40.2 0 75.4 34.9 75.4 75.4v147.9h53.7V560.4c-5.3-70-61.8-129.1-134.4-129.1zM538 318.3c0-61.9 51.2-113 113-113s113 51.2 113 113-51.2 113-113 113-113-51.2-113-113zm-40.5 282.6h53.7v56.5h-53.7zm126.6 0h53.7v56.5h-53.7zm129.1 0h53.7v56.5h-53.7z" fill="#193651"/><path d="M1700.1 924.1c-188 0-342.3-154.3-342.3-342.3s154.3-342 342.3-342 342.3 154.3 342.3 342.3-154.2 342-342.3 342z" fill="#fdbf5e"/><g fill="#fff"><circle cx="1700.1" cy="539.8" r="145.8"/><path d="M1868.5 688.6h-336.7c-59 0-106.5 47.8-106.5 106.5v154.3c75.7 59 171 92.7 274.9 92.7 103.8 0 199.2-33.7 274.9-92.7V795c-.1-58.6-47.6-106.4-106.6-106.4z"/></g><g fill="#193651"><path d="M1728.3 1067.2c95.3-5.6 185.1-39.3 263.7-98.3l11.1-8.5V795c0-75.7-59-134.6-134.6-134.6h-39.3c28.2-30.8 47.8-73 47.8-117.9 0-95.3-78.6-173.9-173.9-173.9s-173.9 78.6-173.9 173.9c0 44.9 16.7 86.8 47.8 117.9h-44.9c-73 0-134.6 61.6-134.6 134.6v165.4l11.1 8.5c78.6 59 168.4 92.7 263.7 98.3m27.8-645c64.5 0 117.9 53.4 117.9 117.9s-53.4 120.6-117.9 120.6-117.9-53.4-117.9-117.9 53.4-120.6 117.9-120.6zm-246.6 510.4V795c0-41.9 36.4-78.6 78.6-78.6h336.7c41.9 0 78.6 36.4 78.6 78.6v137.6c-73.3 50.5-157.5 78.6-247.3 78.6s-173.9-28.1-246.6-78.6zm83.8-98.3h56v59h-56z"/><path d="M1672 834.3h56v59h-56zm134.6 0h56v59h-56z"/></g><path d="M514.2 1747.4c-195.3 0-355.6-160.3-355.6-355.6s160.3-355.6 355.6-355.6 355.6 160.3 355.6 355.6-160.7 355.6-355.6 355.6z" fill="#2ea2db"/><g fill="#fff"><circle cx="514.2" cy="1348" r="151.4"/><use xlink:href="#B"/><circle cx="514.2" cy="1348" r="151.4"/><use xlink:href="#B"/></g><path d="M688.7 1470.5h-40.8c29.2-32 49.7-75.9 49.7-122.5 0-99-81.7-180.7-180.7-180.7S336.2 1249 336.2 1348c0 46.6 17.4 90.2 49.7 122.5h-46.6c-75.9 0-139.9 64-139.9 139.9v160.3h58.2v-160.3c0-43.6 37.8-81.7 81.7-81.7h349.5c43.6 0 81.7 37.8 81.7 81.7v160.3h58.2v-160.3c-.1-76-64.1-139.9-140-139.9zm-297-122.5c0-67 55.5-122.5 122.5-122.5S636.6 1281 636.6 1348s-55.5 122.5-122.5 122.5S391.7 1415 391.7 1348zm-46.6 306.2h58.2v61.2h-58.2zm139.8 0h58.2v61.2h-58.2zm136.8 0h58.2v61.2h-58.2z" fill="#193651"/><defs ><path id="B" d="M688.7 1499.7H513.8 339.3c-61.2 0-110.6 49.7-110.6 110.6v160.3h571v-160.3c-.1-61.2-49.7-110.6-111-110.6z"/></defs></svg>