<?xml version="1.0" encoding="utf-8"?>
<!-- Generator: Adobe Illustrator 21.1.0, SVG Export Plug-In . SVG Version: 6.00 Build 0)  -->
<svg version="1.1" id="Layer_1" xmlns="http://www.w3.org/2000/svg" xmlns:xlink="http://www.w3.org/1999/xlink" x="0px" y="0px"
	 viewBox="0 0 2500 2500" style="enable-background:new 0 0 2500 2500;" xml:space="preserve">
<style type="text/css">
	.st0{fill:#47B882;}
	.st1{fill:#F8F8F8;}
	.st2{fill:#B8DEC8;}
	.st3{fill:#010101;}
</style>
<path class="st0" d="M1231.2,43.6c692.5,5.4,1217.9,575.4,1197.9,1237.9c-19.2,638.7-549.7,1176.8-1226.4,1162.8
	C548.1,2430.7,26.7,1891.5,29.7,1242.4C32.8,578.5,569,42.4,1231.2,43.6z M982.3,1798.9c-31.6-13.1-57.4-35.7-86.1-53.5
	c-24.8-15.3-48.2-15.4-64.6,9.7c-16.2,24.9-7.4,47.2,16.8,63.1c61.8,40.6,123.3,81.5,185.6,121.2c32.5,20.7,55.1,14.8,72.9-18.2
	c34.3-64,67.8-128.5,101.3-193c13.2-25.4,15.7-50.2-13.1-67c-23.3-13.7-46.6-3.8-62.8,25.9c-17.9,32.6-34.9,65.6-54.7,102.8
	c-26.1-77.7-38-152.5-50.5-227.3c-3.4-20.5,8.8-16.1,21.1-15.1c120.8,9.2,241.6,9.5,362.3-0.3c20.6-1.7,23.9,2.2,20.7,21.9
	c-10.5,64.9-22.2,129.6-40.6,192.7c-22.7,77.8-48.1,154.9-101,218.5c-33.8,40.7-57.8,44.9-99.6,20c-24-14.3-44.9-12.7-62.2,9.1
	c-15.6,19.6-8.7,46.5,14.7,64.1c55.3,41.5,126.6,39,181.9-6.7c43.6-36,72.3-82.9,95.5-133.4c54.5-118.5,80.3-244.6,98.2-372.7
	c1.9-13.7,2.5-24,20.3-26.2c80.1-9.7,159.2-25.6,241.3-47.3c-18.6,36.3-35.5,68.1-51.3,100.4c-14.9,30.5-9,54.4,16.4,65.4
	c28.4,12.3,47-1,60-26c33.7-64.3,68.1-128.3,101.2-193c18.3-35.7,10.1-57.6-26.2-72.8c-64.8-27.1-129.9-53.6-195.1-79.8
	c-37.3-15-60.3-8.3-71,19.3c-9.8,25.4,3,46,37.6,60.4c31.2,12.9,62.3,25.8,101.4,42c-71.2,21.5-134.7,31.6-198,42.4
	c-19,3.2-24-2.3-22.4-21.7c10.1-119.5,10.4-239.2,0-358.8c-2-22.6,5.9-24.8,25.1-21.8c112.7,17.7,223.5,41.8,327.5,90.6
	c34.1,16,66.8,34.6,92.9,62.4c28.3,30.2,30,50.1,9.2,84.9c-17.4,29-14.4,53.3,8.3,67.5c22.7,14.2,46.4,6.7,65.5-20.7
	c43.5-62.5,35.2-135.7-23.3-194.6c-54.3-54.7-123.2-84.8-194.2-110c-92.1-32.6-187.2-53-284-65.5c-24.1-3.1-39.9-7.7-43.3-40.3
	c-8.8-85.1-27.4-168.9-53.4-250.7c-25-78.6-54.7-155.2-110.1-218.2c-73.8-84-172.1-83.7-246.3,0.1c-32.1,36.4-55.3,78.4-74.6,122.8
	c-47.6,109.6-73.5,225.2-88.2,342.9c-4.3,34.2-19.7,40.5-47.3,44c-101.4,13.1-200.9,35.1-297,70.9c-62.9,23.5-123.4,51.7-172.8,98.9
	c-74.3,71.1-74.5,160.3-0.7,231.4c44.7,43.1,99.3,70.4,156.3,92.8c103.1,40.7,210.7,63.6,320.2,79c15.4,2.2,35.4-2.7,38.3,25
	c8.3,80.7,26,159.7,46.1,238.2C985,1796.2,983.6,1797.5,982.3,1798.9z"/>
<path class="st1" d="M986.6,1795.1c-20.1-78.5-37.9-157.5-46.1-238.2c-2.8-27.7-22.9-22.8-38.3-25c-109.5-15.4-217.1-38.3-320.2-79
	c-57-22.5-111.5-49.7-156.3-92.8c-73.9-71.2-73.7-160.3,0.7-231.4c49.3-47.2,109.8-75.4,172.8-98.9c96-35.8,195.5-57.8,297-70.9
	c27.6-3.6,43-9.9,47.3-44c14.7-117.7,40.6-233.3,88.2-342.9c19.2-44.3,42.4-86.4,74.6-122.8c74.1-83.8,172.4-84.1,246.3-0.1
	c55.4,63,85.1,139.6,110.1,218.2c26,81.8,44.7,165.6,53.4,250.7c3.3,32.5,19.1,37.1,43.3,40.3c96.8,12.5,191.9,32.8,284,65.5
	c71,25.2,139.9,55.3,194.2,110c58.5,58.9,66.9,132,23.3,194.6c-19.1,27.4-42.8,34.9-65.5,20.7c-22.7-14.2-25.6-38.5-8.3-67.5
	c20.9-34.9,19.1-54.7-9.2-84.9c-26.1-27.8-58.8-46.4-92.9-62.4c-104-48.8-214.8-72.9-327.5-90.6c-19.2-3-27.1-0.8-25.1,21.8
	c10.4,119.5,10.2,239.2,0,358.8c-1.6,19.4,3.4,25,22.4,21.7c63.4-10.8,126.9-20.9,198-42.4c-39-16.2-70.2-29.1-101.4-42
	c-34.6-14.4-47.5-35.1-37.6-60.4c10.7-27.6,33.7-34.3,71-19.3c65.2,26.2,130.3,52.7,195.1,79.8c36.4,15.2,44.5,37.1,26.2,72.8
	c-33.1,64.6-67.5,128.6-101.2,193c-13.1,25-31.7,38.3-60,26c-25.4-11-31.3-34.9-16.4-65.4c15.8-32.3,32.7-64.1,51.3-100.4
	c-82.1,21.7-161.2,37.5-241.3,47.3c-17.8,2.2-18.4,12.5-20.3,26.2c-17.9,128.1-43.8,254.3-98.2,372.7c-23.2,50.5-52,97.4-95.5,133.4
	c-55.3,45.7-126.6,48.2-181.9,6.7c-23.4-17.6-30.3-44.5-14.7-64.1c17.3-21.9,38.2-23.4,62.2-9.1c41.9,24.9,65.8,20.7,99.6-20
	c52.9-63.7,78.3-140.8,101-218.5c18.4-63.1,30.1-127.8,40.6-192.7c3.2-19.7-0.1-23.5-20.7-21.9c-120.7,9.7-241.5,9.4-362.3,0.3
	c-12.3-0.9-24.5-5.3-21.1,15.1c12.4,74.8,24.4,149.6,50.5,227.3c19.7-37.2,36.8-70.3,54.7-102.8c16.3-29.7,39.5-39.6,62.8-25.9
	c28.8,16.8,26.3,41.6,13.1,67c-33.4,64.5-66.9,129-101.3,193c-17.7,33-40.4,38.9-72.9,18.2c-62.3-39.7-123.8-80.7-185.6-121.2
	c-24.2-15.9-33.1-38.2-16.8-63.1c16.4-25.1,39.8-25,64.6-9.7c28.8,17.7,54.5,40.3,86.1,53.5c1.7,1.4,3.3,2.8,5,4.1
	C987,1800.4,986.8,1797.7,986.6,1795.1z M1455.3,1245.5c-2.8-60.7-6-125.2-8.6-189.7c-0.7-17.2-5.1-26.2-25.9-27.7
	c-127.9-9.2-255.6-9.3-383.5,0.1c-18.4,1.3-23.7,8.3-24.9,24.9c-8.9,126.6-9.4,253.2,0,379.9c1.5,20.2,8.3,27.1,29.2,28.5
	c125.5,8.9,250.9,9,376.5-0.4c21.9-1.6,28.1-9.7,28.9-29C1449.2,1371.3,1452.3,1310.3,1455.3,1245.5z M1230.3,933
	c60.8,2.9,121.8,5.3,182.6,9.1c13.9,0.9,22.6,2.2,19.4-16.6c-19.7-118.1-43-235.1-96.2-343.7c-12.9-26.3-27.7-51.6-47.4-73.7
	c-42.2-47.5-77.6-47.2-119.9,1.1c-16.3,18.7-29,39.6-40.4,61.5c-57.3,110.9-81.4,231.2-101.6,352.8c-3.5,20.9,5.2,19.4,20.5,18.5
	C1108.3,938.2,1169.2,935.9,1230.3,933z M917.5,1245.4c2.8-59.2,4.9-119,9-178.7c1.4-19.9-1.9-26.7-23.8-23.3
	c-115.1,18-228.2,42.8-334.1,93.2c-34,16.2-66.6,35.2-91.6,64.2c-26.3,30.5-26.1,57.8,0.2,88.1c17.9,20.6,40,36.3,63.9,49.2
	c114.1,62.1,238.8,88.2,365.4,108.3c19.2,3,20.8-4.9,19.9-20.9C922.7,1365.7,920.3,1305.9,917.5,1245.4z"/>
<path class="st2" d="M1455.3,1245.5c-3,64.8-6,125.7-8.4,186.7c-0.8,19.3-6.9,27.3-28.9,29c-125.5,9.4-250.9,9.2-376.5,0.4
	c-21-1.5-27.8-8.3-29.2-28.5c-9.3-126.7-8.8-253.2,0-379.9c1.2-16.6,6.5-23.5,24.9-24.9c127.9-9.4,255.6-9.3,383.5-0.1
	c20.8,1.5,25.2,10.5,25.9,27.7C1449.3,1120.3,1452.5,1184.8,1455.3,1245.5z"/>
<path class="st2" d="M1230.3,933c-61.1,2.9-122,5.2-182.9,9c-15.4,1-24,2.5-20.5-18.5c20.3-121.6,44.3-241.9,101.6-352.8
	c11.3-22,24.1-42.9,40.4-61.5c42.3-48.4,77.6-48.6,119.9-1.1c19.7,22.1,34.5,47.3,47.4,73.7c53.2,108.6,76.5,225.6,96.2,343.7
	c3.1,18.8-5.5,17.5-19.4,16.6C1352.1,938.3,1291.2,935.9,1230.3,933z"/>
<path class="st2" d="M917.5,1245.4c2.9,60.5,5.3,120.4,8.9,180.1c1,16-0.7,23.9-19.9,20.9c-126.6-20.1-251.3-46.2-365.4-108.3
	c-23.8-13-46-28.6-63.9-49.2c-26.3-30.3-26.4-57.6-0.2-88.1c25-29,57.6-48,91.6-64.2c105.9-50.4,219-75.2,334.1-93.2
	c21.9-3.4,25.1,3.4,23.8,23.3C922.4,1126.3,920.3,1186.2,917.5,1245.4z"/>
<path class="st3" d="M986.6,1795.1c0.2,2.7,0.5,5.3,0.7,8c-1.7-1.4-3.3-2.8-5-4.1C983.6,1797.5,985,1796.2,986.6,1795.1z"/>
</svg>
