<svg xmlns="http://www.w3.org/2000/svg" viewBox="0 0 2500 2500" xmlns:v="https://vecta.io/nano"><path d="M1231.2 43.6C1923.7 49 2449.1 619 2429.1 1281.5c-19.2 638.7-549.7 1176.8-1226.4 1162.8-654.6-13.6-1176-552.8-1173-1201.9C32.8 578.5 569 42.4 1231.2 43.6zM982.3 1798.9c-31.6-13.1-57.4-35.7-86.1-53.5-24.8-15.3-48.2-15.4-64.6 9.7-16.2 24.9-7.4 47.2 16.8 63.1l185.6 121.2c32.5 20.7 55.1 14.8 72.9-18.2l101.3-193c13.2-25.4 15.7-50.2-13.1-67-23.3-13.7-46.6-3.8-62.8 25.9l-54.7 102.8c-26.1-77.7-38-152.5-50.5-227.3-3.4-20.5 8.8-16.1 21.1-15.1 120.8 9.2 241.6 9.5 362.3-.3 20.6-1.7 23.9 2.2 20.7 21.9-10.5 64.9-22.2 129.6-40.6 192.7-22.7 77.8-48.1 154.9-101 218.5-33.8 40.7-57.8 44.9-99.6 20-24-14.3-44.9-12.7-62.2 9.1-15.6 19.6-8.7 46.5 14.7 64.1 55.3 41.5 126.6 39 181.9-6.7 43.6-36 72.3-82.9 95.5-133.4 54.5-118.5 80.3-244.6 98.2-372.7 1.9-13.7 2.5-24 20.3-26.2 80.1-9.7 159.2-25.6 241.3-47.3l-51.3 100.4c-14.9 30.5-9 54.4 16.4 65.4 28.4 12.3 47-1 60-26l101.2-193c18.3-35.7 10.1-57.6-26.2-72.8l-195.1-79.8c-37.3-15-60.3-8.3-71 19.3-9.8 25.4 3 46 37.6 60.4l101.4 42c-71.2 21.5-134.7 31.6-198 42.4-19 3.2-24-2.3-22.4-21.7 10.1-119.5 10.4-239.2 0-358.8-2-22.6 5.9-24.8 25.1-21.8 112.7 17.7 223.5 41.8 327.5 90.6 34.1 16 66.8 34.6 92.9 62.4 28.3 30.2 30 50.1 9.2 84.9-17.4 29-14.4 53.3 8.3 67.5s46.4 6.7 65.5-20.7c43.5-62.5 35.2-135.7-23.3-194.6-54.3-54.7-123.2-84.8-194.2-110-92.1-32.6-187.2-53-284-65.5-24.1-3.1-39.9-7.7-43.3-40.3-8.8-85.1-27.4-168.9-53.4-250.7-25-78.6-54.7-155.2-110.1-218.2-73.8-84-172.1-83.7-246.3.1-32.1 36.4-55.3 78.4-74.6 122.8-47.6 109.6-73.5 225.2-88.2 342.9-4.3 34.2-19.7 40.5-47.3 44-101.4 13.1-200.9 35.1-297 70.9-62.9 23.5-123.4 51.7-172.8 98.9-74.3 71.1-74.5 160.3-.7 231.4 44.7 43.1 99.3 70.4 156.3 92.8 103.1 40.7 210.7 63.6 320.2 79 15.4 2.2 35.4-2.7 38.3 25 8.3 80.7 26 159.7 46.1 238.2-1.5 1.6-2.9 2.9-4.2 4.3z" fill="#47b882"/><path d="M986.6 1795.1c-20.1-78.5-37.9-157.5-46.1-238.2-2.8-27.7-22.9-22.8-38.3-25-109.5-15.4-217.1-38.3-320.2-79-57-22.5-111.5-49.7-156.3-92.8-73.9-71.2-73.7-160.3.7-231.4 49.3-47.2 109.8-75.4 172.8-98.9 96-35.8 195.5-57.8 297-70.9 27.6-3.6 43-9.9 47.3-44 14.7-117.7 40.6-233.3 88.2-342.9 19.2-44.3 42.4-86.4 74.6-122.8 74.1-83.8 172.4-84.1 246.3-.1 55.4 63 85.1 139.6 110.1 218.2 26 81.8 44.7 165.6 53.4 250.7 3.3 32.5 19.1 37.1 43.3 40.3 96.8 12.5 191.9 32.8 284 65.5 71 25.2 139.9 55.3 194.2 110 58.5 58.9 66.9 132 23.3 194.6-19.1 27.4-42.8 34.9-65.5 20.7s-25.6-38.5-8.3-67.5c20.9-34.9 19.1-54.7-9.2-84.9-26.1-27.8-58.8-46.4-92.9-62.4-104-48.8-214.8-72.9-327.5-90.6-19.2-3-27.1-.8-25.1 21.8 10.4 119.5 10.2 239.2 0 358.8-1.6 19.4 3.4 25 22.4 21.7 63.4-10.8 126.9-20.9 198-42.4l-101.4-42c-34.6-14.4-47.5-35.1-37.6-60.4 10.7-27.6 33.7-34.3 71-19.3l195.1 79.8c36.4 15.2 44.5 37.1 26.2 72.8l-101.2 193c-13.1 25-31.7 38.3-60 26-25.4-11-31.3-34.9-16.4-65.4 15.8-32.3 32.7-64.1 51.3-100.4-82.1 21.7-161.2 37.5-241.3 47.3-17.8 2.2-18.4 12.5-20.3 26.2-17.9 128.1-43.8 254.3-98.2 372.7-23.2 50.5-52 97.4-95.5 133.4-55.3 45.7-126.6 48.2-181.9 6.7-23.4-17.6-30.3-44.5-14.7-64.1 17.3-21.9 38.2-23.4 62.2-9.1 41.9 24.9 65.8 20.7 99.6-20 52.9-63.7 78.3-140.8 101-218.5 18.4-63.1 30.1-127.8 40.6-192.7 3.2-19.7-.1-23.5-20.7-21.9-120.7 9.7-241.5 9.4-362.3.3-12.3-.9-24.5-5.3-21.1 15.1 12.4 74.8 24.4 149.6 50.5 227.3l54.7-102.8c16.3-29.7 39.5-39.6 62.8-25.9 28.8 16.8 26.3 41.6 13.1 67l-101.3 193c-17.7 33-40.4 38.9-72.9 18.2l-185.6-121.2c-24.2-15.9-33.1-38.2-16.8-63.1 16.4-25.1 39.8-25 64.6-9.7 28.8 17.7 54.5 40.3 86.1 53.5 1.7 1.4 3.3 2.8 5 4.1-.4-3.1-.6-5.8-.8-8.4zm468.7-549.6l-8.6-189.7c-.7-17.2-5.1-26.2-25.9-27.7-127.9-9.2-255.6-9.3-383.5.1-18.4 1.3-23.7 8.3-24.9 24.9-8.9 126.6-9.4 253.2 0 379.9 1.5 20.2 8.3 27.1 29.2 28.5 125.5 8.9 250.9 9 376.5-.4 21.9-1.6 28.1-9.7 28.9-29l8.3-186.6zm-225-312.5l182.6 9.1c13.9.9 22.6 2.2 19.4-16.6-19.7-118.1-43-235.1-96.2-343.7-12.9-26.3-27.7-51.6-47.4-73.7-42.2-47.5-77.6-47.2-119.9 1.1-16.3 18.7-29 39.6-40.4 61.5-57.3 110.9-81.4 231.2-101.6 352.8-3.5 20.9 5.2 19.4 20.5 18.5l183-9zm-312.8 312.4l9-178.7c1.4-19.9-1.9-26.7-23.8-23.3-115.1 18-228.2 42.8-334.1 93.2-34 16.2-66.6 35.2-91.6 64.2-26.3 30.5-26.1 57.8.2 88.1 17.9 20.6 40 36.3 63.9 49.2 114.1 62.1 238.8 88.2 365.4 108.3 19.2 3 20.8-4.9 19.9-20.9l-8.9-180.1z" fill="#f8f8f8"/><path d="M1455.3 1245.5l-8.4 186.7c-.8 19.3-6.9 27.3-28.9 29-125.5 9.4-250.9 9.2-376.5.4-21-1.5-27.8-8.3-29.2-28.5-9.3-126.7-8.8-253.2 0-379.9 1.2-16.6 6.5-23.5 24.9-24.9 127.9-9.4 255.6-9.3 383.5-.1 20.8 1.5 25.2 10.5 25.9 27.7l8.7 189.6zm-225-312.5l-182.9 9c-15.4 1-24 2.5-20.5-18.5 20.3-121.6 44.3-241.9 101.6-352.8 11.3-22 24.1-42.9 40.4-61.5 42.3-48.4 77.6-48.6 119.9-1.1 19.7 22.1 34.5 47.3 47.4 73.7 53.2 108.6 76.5 225.6 96.2 343.7 3.1 18.8-5.5 17.5-19.4 16.6l-182.7-9.1zm-312.8 312.4l8.9 180.1c1 16-.7 23.9-19.9 20.9-126.6-20.1-251.3-46.2-365.4-108.3-23.8-13-46-28.6-63.9-49.2-26.3-30.3-26.4-57.6-.2-88.1 25-29 57.6-48 91.6-64.2 105.9-50.4 219-75.2 334.1-93.2 21.9-3.4 25.1 3.4 23.8 23.3-4.1 59.6-6.2 119.5-9 178.7z" fill="#b8dec8"/><path d="M986.6 1795.1l.7 8-5-4.1c1.3-1.5 2.7-2.8 4.3-3.9z" fill="#010101"/></svg>