<svg xmlns="http://www.w3.org/2000/svg" width="68.164" height="66.142" viewBox="0 0 18.035 17.5" xmlns:v="https://vecta.io/nano"><path d="M8.958.463c-.151.008-.299.045-.435.11l-5.94 2.838a1.13 1.13 0 0 0-.615.764L.503 10.55a1.12 1.12 0 0 0 .154.864l.065.09 4.111 5.112a1.14 1.14 0 0 0 .888.424l6.593-.002a1.14 1.14 0 0 0 .888-.423l4.11-5.112a1.12 1.12 0 0 0 .22-.953l-1.468-6.375a1.13 1.13 0 0 0-.615-.764L9.509.573c-.171-.082-.361-.12-.551-.11z" fill="#326ce5"/><g fill="#fff"><path d="M8.955.002C8.796.01 8.64.05 8.496.119L2.225 3.114a1.19 1.19 0 0 0-.649.807L.03 10.65a1.18 1.18 0 0 0 .163.912l.068.094 4.34 5.396c.228.283.573.447.937.447l6.96-.002c.365 0 .71-.164.937-.447l4.338-5.397a1.18 1.18 0 0 0 .232-1.006l-1.549-6.73a1.19 1.19 0 0 0-.649-.806L9.537.118c-.181-.086-.381-.126-.582-.116zm.003.462c.19-.01.379.028.551.11l5.94 2.836a1.13 1.13 0 0 1 .615.764l1.468 6.375a1.12 1.12 0 0 1-.22.953l-4.11 5.112a1.14 1.14 0 0 1-.888.423l-6.593.002a1.14 1.14 0 0 1-.888-.424L.722 11.504l-.065-.09a1.12 1.12 0 0 1-.154-.864l1.465-6.375a1.13 1.13 0 0 1 .615-.764L8.523.574c.136-.065.284-.103.435-.11z"/><g fill-rule="evenodd"><path d="M4.388 7.229h0c0 .621 2.073 1.125 4.629 1.125s4.629-.504 4.629-1.125v3.042c0 .621-2.073 1.125-4.629 1.125s-4.629-.504-4.629-1.125z"/><path d="M4.388 7.229h0c0-.621 2.073-1.125 4.629-1.125s4.629.504 4.629 1.125h0c0 .621-2.073 1.125-4.629 1.125S4.388 7.85 4.388 7.229z"/></g></g><path d="M13.646 7.229h0c0 .621-2.073 1.125-4.629 1.125S4.388 7.85 4.388 7.229h0c0-.621 2.073-1.125 4.629-1.125s4.629.504 4.629 1.125v3.042c0 .621-2.073 1.125-4.629 1.125s-4.629-.504-4.629-1.125V7.229" fill="none" stroke="#326ce5" stroke-width=".265" stroke-linejoin="round" stroke-miterlimit="10"/></svg>