<?xml version="1.0" encoding="utf-8"?>
<!-- Generator: Adobe Illustrator 21.1.0, SVG Export Plug-In . SVG Version: 6.00 Build 0)  -->
<svg version="1.1" id="Layer_1" xmlns="http://www.w3.org/2000/svg" xmlns:xlink="http://www.w3.org/1999/xlink" x="0px" y="0px"
	 viewBox="0 0 2500 2432" style="enable-background:new 0 0 2500 2432;" xml:space="preserve">
<style type="text/css">
	.st0{fill:#415A6B;}
	.st1{fill:#F16051;}
	.st2{fill:#C12E27;}
	.st3{fill:#2EA2DB;}
	.st4{fill:#0075A3;}
	.st5{fill:#FFD15C;}
	.st6{fill:#F7B64C;}
	.st7{fill:#00D371;}
	.st8{fill:#04B55C;}
	.st9{fill:#FFFFFF;}
	.st10{fill:#193651;}
	.st11{fill:#FDBF5E;}
</style>
<path class="st0" d="M1414.8,1460.7c-17.6,0-29.3-11.8-29.3-29.4c0-17.7,11.7-29.4,29.3-29.4c17.6-23.6,17.6-223.8-93.8-382.7
	c-128.9-188.4-322.3-253.2-363.3-235.5c-17.6,5.9-29.3,0-41-17.7c-5.9-17.7,0-29.4,17.6-41.2c87.9-35.3,304.7,70.7,433.7,259.1
	c111.3,164.9,134.8,371,93.8,441.6C1449.9,1454.8,1426.5,1460.7,1414.8,1460.7z"/>
<path class="st1" d="M1911.4,2263.3l35.7-153.4l-60.6-25l-28.5-46.4l3.6-67.8l-21.4-32.1l-17.8,10.7l-28.5-42.8l17.8-10.7l-25-46.4
	l-64.2-7.1l-35.7-57.1l21.4-57.1l-21.4-32.1l32.1-17.8l-39.2-64.2l35.7-21.4c39.2-25,53.5-71.3,35.7-114.2
	c-25-60.6-53.5-117.7-85.6-171.2l-3.6-10.7c-14.3-25-39.2-42.8-71.3-49.9c-42.8-10.7-82,3.6-110.6,32.1
	c-35.7-42.8-99.9-53.5-146.3-21.4c-49.9,32.1-67.8,92.8-46.4,142.7c-35.7,10.7-67.8,42.8-78.5,85.6c-7.1,32.1,0,60.6,14.3,85.6
	l3.6,7.1c35.7,53.5,71.3,103.5,117.7,149.8c32.1,32.1,78.5,39.2,117.7,14.3l35.7-21.4l331.8,520.8L1911.4,2263.3z M1390.6,1464.2
	c-17.8-28.5-10.7-67.8,17.8-85.6c28.5-17.8,67.8-10.7,85.6,17.8c17.8,28.5,10.7,67.8-17.8,85.6
	C1447.6,1503.5,1408.4,1496.3,1390.6,1464.2z"/>
<path class="st2" d="M1611.7,1781.7c-35.7-49.9-57.1-64.2-25,17.8l285.4,453.1l39.2,7.1v-3.6L1611.7,1781.7z"/>
<path class="st3" d="M2160.2,2054l-18.2-156.4l-65.5-3l-42.5-34l-19.5-65l-31-23l-13.2,16.1l-41.3-30.7l13.2-16.1l-39.2-35.2
	l-62.9,15l-52.9-41.7l0.9-61l-31-23l24.2-27.6l-58.6-47.2l26.4-32.2c28.5-36.8,26.3-85.2-5-119.5c-44-48.7-90.1-92.7-138.4-132.3
	l-7-8.9c-21.9-18.7-51.4-27-84-22.9c-43.9,4.4-76,31.1-93.3,67.6c-48-28.3-112.1-16.6-144.9,29.2c-36.2,47.1-32.5,110.2,4.5,150
	c-30,22.1-49.3,63.2-45,107.1c4.1,32.6,20.5,57.1,42.3,75.8l5.8,5.5c51.6,38.3,102.1,73.3,161.4,101.3
	c41.1,19.4,87.1,10.4,115.6-26.3l26.4-32.2l488.1,378.2L2160.2,2054z M1400.2,1477.7c-26.4-20.8-33-60.2-12.1-86.6
	c20.8-26.4,60.2-33,86.6-12.1c26.4,20.8,33,60.2,12.1,86.6C1467.2,1495.3,1427.8,1501.9,1400.2,1477.7z"/>
<path class="st4" d="M1715.6,1701.8c-50.4-35-75.4-41.2-17.5,25.2l421.6,330.1l39.3-6.5l-1.2-3.4L1715.6,1701.8z"/>
<path class="st5" d="M1397.7,2384.6l110.6-110.6l-35.7-53.5v-57.1l39.2-53.5v-32.1h-21.4v-49.9h21.4v-53.5l-49.9-39.2v-67.8
	l49.9-39.2v-39.2h35.7v-74.9h42.8c46.4,0,82-32.1,92.8-74.9c10.7-64.2,17.8-124.9,17.8-189.1v-7.1c0-28.5-10.7-57.1-32.1-78.5
	c-28.5-28.5-71.3-39.2-110.6-28.5c-7.1-53.5-57.1-96.3-114.2-96.3c-57.1,0-103.5,42.8-114.2,96.3c-39.2-10.7-78.5,0-110.6,28.5
	c-21.4,21.4-32.1,49.9-32.1,78.5v7.1c0,64.2,7.1,128.4,17.8,189.1c7.1,42.8,46.4,74.9,92.8,74.9h42.8v613.6L1397.7,2384.6z
	 M1379.9,1432.1c0-35.7,28.5-64.2,64.2-64.2s64.2,28.5,64.2,64.2c0,35.7-28.5,64.2-64.2,64.2
	C1408.4,1496.3,1379.9,1467.8,1379.9,1432.1z"/>
<path class="st6" d="M1397.7,2384.6v-645.7c-10.7-124.9-17.8-124.9-28.5,0v620.7L1397.7,2384.6L1397.7,2384.6z"/>
<path class="st7" d="M1144.4,2335.2l136-77.3l-20.2-61.1l15.2-55l52-41.2l8.5-31l-20.6-5.7l13.3-48.2l20.6,5.7l14.2-51.6l-37.7-51.1
	l18-65.3l58.6-24.6l10.4-37.8l34.4,9.5l19.9-72.2l41.3,11.4c44.7,12.3,87.6-9.2,109.3-47.6c27.4-59.1,50.3-115.6,67.4-177.6l1.9-6.9
	c7.6-27.5,4.8-57.9-10.1-84.2c-19.9-35.1-58.4-56.8-99-56.9c7.3-53.5-29.5-108-84.5-123.2c-55-15.2-111.1,13.8-135.6,62.6
	c-35-20.7-75.7-20.8-114.2-1.8c-26.3,15-44.2,39.6-51.8,67.1l-1.9,6.9c-17,61.9-27.2,125.7-33,187c-4.5,43.2,24.8,84.5,69.5,96.8
	l41.3,11.4l-162.9,591.6L1144.4,2335.2z M1380.1,1412.2c9.5-34.4,44.6-54.3,79-44.9c34.4,9.5,54.3,44.6,44.9,79
	c-9.5,34.4-44.6,54.3-79,44.9C1390.5,1481.7,1370.6,1446.6,1380.1,1412.2z"/>
<path class="st8" d="M1144.4,2335.2l171.4-622.5c22.8-123.2,15.9-125.1-27.5-7.6l-164.8,598.5L1144.4,2335.2L1144.4,2335.2z"/>
<path class="st0" d="M1414.8,1460.7c-64.5,0-269.6-76.5-410.2-276.7c-105.5-147.2-152.4-294.4-128.9-382.7
	c5.9-35.3,29.3-58.9,58.6-70.7c11.7-5.9,29.3,0,41,11.8c5.9,11.8,0,29.4-11.7,41.2c-11.7,5.9-23.4,17.7-23.4,35.3
	c-17.6,70.7,29.3,206.1,123.1,335.6c123.1,176.6,310.6,253.2,357.5,253.2c17.6,0,29.3,11.8,29.3,29.4
	C1449.9,1454.8,1432.4,1460.7,1414.8,1460.7z"/>
<g>
	<path class="st1" d="M650.8,686.9c-180.3,0-328.2-147.9-328.2-328.2S470.8,30.6,650.8,30.6S979,176,979,358.8
		C979,539,831.1,686.9,650.8,686.9z"/>
	<g>
		<circle class="st9" cx="650.8" cy="318.3" r="139.8"/>
		<path class="st9" d="M812.2,458.3H650.8H489.7c-56.5,0-102.1,45.8-102.1,102.1v147.9h526.7V560.4
			C914.3,503.9,868.7,458.3,812.2,458.3z"/>
	</g>
	<path class="st10" d="M812.2,431.3h-37.7c27-29.5,45.8-70,45.8-113c0-91.4-75.4-166.8-166.8-166.8s-166.8,75.4-166.8,166.8
		c0,43,16,83.2,45.8,113H495c-70,0-129.1,59.1-129.1,129.1v147.9h53.7V560.4c0-40.2,34.9-75.4,75.4-75.4h322.5
		c40.2,0,75.4,34.9,75.4,75.4v147.9h53.7V560.4C941.3,490.4,884.8,431.3,812.2,431.3z M538,318.3c0-61.9,51.2-113,113-113
		s113,51.2,113,113s-51.2,113-113,113S538,380.1,538,318.3z"/>
	<rect x="497.5" y="600.9" class="st10" width="53.7" height="56.5"/>
	<rect x="624.1" y="600.9" class="st10" width="53.7" height="56.5"/>
	<rect x="753.2" y="600.9" class="st10" width="53.7" height="56.5"/>
</g>
<g>
	<path class="st11" d="M1700.1,924.1c-188,0-342.3-154.3-342.3-342.3s154.3-342,342.3-342s342.3,154.3,342.3,342.3
		S1888.2,924.1,1700.1,924.1z"/>
	<g>
		<circle class="st9" cx="1700.1" cy="539.8" r="145.8"/>
		<path class="st9" d="M1868.5,688.6h-336.7c-59,0-106.5,47.8-106.5,106.5v154.3c75.7,59,171,92.7,274.9,92.7
			c103.8,0,199.2-33.7,274.9-92.7V795C1975,736.4,1927.5,688.6,1868.5,688.6z"/>
	</g>
	<path class="st10" d="M1728.3,1067.2c95.3-5.6,185.1-39.3,263.7-98.3l11.1-8.5V795c0-75.7-59-134.6-134.6-134.6h-39.3
		c28.2-30.8,47.8-73,47.8-117.9c0-95.3-78.6-173.9-173.9-173.9s-173.9,78.6-173.9,173.9c0,44.9,16.7,86.8,47.8,117.9h-44.9
		c-73,0-134.6,61.6-134.6,134.6v165.4l11.1,8.5c78.6,59,168.4,92.7,263.7,98.3 M1700.1,422.2c64.5,0,117.9,53.4,117.9,117.9
		s-53.4,120.6-117.9,120.6s-117.9-53.4-117.9-117.9S1635.6,422.2,1700.1,422.2z M1453.5,932.6V795c0-41.9,36.4-78.6,78.6-78.6h336.7
		c41.9,0,78.6,36.4,78.6,78.6v137.6c-73.3,50.5-157.5,78.6-247.3,78.6S1526.2,983.1,1453.5,932.6z"/>
	<rect x="1537.3" y="834.3" class="st10" width="56" height="59"/>
	<rect x="1672" y="834.3" class="st10" width="56" height="59"/>
	<rect x="1806.6" y="834.3" class="st10" width="56" height="59"/>
</g>
<g>
	<path class="st3" d="M514.2,1747.4c-195.3,0-355.6-160.3-355.6-355.6s160.3-355.6,355.6-355.6s355.6,160.3,355.6,355.6
		S709.1,1747.4,514.2,1747.4z"/>
	<circle class="st9" cx="514.2" cy="1348" r="151.4"/>
	<path id="SVGCleanerId_0" class="st9" d="M688.7,1499.7H513.8H339.3c-61.2,0-110.6,49.7-110.6,110.6v160.3h571v-160.3
		C799.6,1549.1,750,1499.7,688.7,1499.7z"/>
	<circle class="st9" cx="514.2" cy="1348" r="151.4"/>
	<g>
		<path id="SVGCleanerId_0_1_" class="st9" d="M688.7,1499.7H513.8H339.3c-61.2,0-110.6,49.7-110.6,110.6v160.3h571v-160.3
			C799.6,1549.1,750,1499.7,688.7,1499.7z"/>
	</g>
	<g>
		<path class="st10" d="M688.7,1470.5h-40.8c29.2-32,49.7-75.9,49.7-122.5c0-99-81.7-180.7-180.7-180.7S336.2,1249,336.2,1348
			c0,46.6,17.4,90.2,49.7,122.5h-46.6c-75.9,0-139.9,64-139.9,139.9v160.3h58.2v-160.3c0-43.6,37.8-81.7,81.7-81.7h349.5
			c43.6,0,81.7,37.8,81.7,81.7v160.3h58.2v-160.3C828.6,1534.4,764.6,1470.5,688.7,1470.5z M391.7,1348c0-67,55.5-122.5,122.5-122.5
			S636.6,1281,636.6,1348c0,67-55.5,122.5-122.5,122.5S391.7,1415,391.7,1348z"/>
		<rect x="345.1" y="1654.2" class="st10" width="58.2" height="61.2"/>
		<rect x="484.9" y="1654.2" class="st10" width="58.2" height="61.2"/>
		<rect x="621.7" y="1654.2" class="st10" width="58.2" height="61.2"/>
	</g>
</g>
</svg>
