<?xml version="1.0" encoding="UTF-8" standalone="no"?>
<svg
   xmlns:dc="http://purl.org/dc/elements/1.1/"
   xmlns:cc="http://creativecommons.org/ns#"
   xmlns:rdf="http://www.w3.org/1999/02/22-rdf-syntax-ns#"
   xmlns:svg="http://www.w3.org/2000/svg"
   xmlns="http://www.w3.org/2000/svg"
   version="1.1"
   viewBox="0 0 199.63 39.22"
   data-name="Layer 1"
   id="523c680a-a2d8-47c5-b7c5-792bccb0c3d2">
  <metadata
     id="metadata913">
    <rdf:RDF>
      <cc:Work
         rdf:about="">
        <dc:format>image/svg+xml</dc:format>
        <dc:type
           rdf:resource="http://purl.org/dc/dcmitype/StillImage" />
        <dc:title>Rungway Logo RGB</dc:title>
      </cc:Work>
    </rdf:RDF>
  </metadata>
  <defs
     id="defs911" />
  <title
     id="title884">Rungway Logo RGB</title>
  <path
     id="path886"
     style="fill:#410d84"
     d="M61.23,13.46a9.79,9.79,0,0,0-4.8,1.25v14a.73.73,0,0,1-.69.73h-3.2a.74.74,0,0,1-.7-.73V10.5a.7.7,0,0,1,.7-.69h3a.7.7,0,0,1,.7.69v.73a8.09,8.09,0,0,1,5-1.67.7.7,0,0,1,.69.7v2.5A.7.7,0,0,1,61.23,13.46Z" />
  <path
     id="path888"
     style="fill:#410d84"
     d="M80.24,29.41H77a.69.69,0,0,1-.69-.69v-.8a9,9,0,0,1-5.46,1.73,5.92,5.92,0,0,1-4.28-1.46c-1.28-1.28-1.73-3.44-1.73-6.32V10.54a.73.73,0,0,1,.69-.73h3.2a.73.73,0,0,1,.69.73V21.87c0,1.74.14,2.74.8,3.33a3,3,0,0,0,2.16.63,9.92,9.92,0,0,0,3.93-1.39V10.54A.73.73,0,0,1,77,9.81h3.2a.73.73,0,0,1,.69.73V28.72A.69.69,0,0,1,80.24,29.41Z" />
  <path
     id="path890"
     style="fill:#410d84"
     d="M100.81,29.41H97.62a.74.74,0,0,1-.7-.73V17.35c0-3-.28-3.89-3-3.89A8.79,8.79,0,0,0,90,14.71v14a.73.73,0,0,1-.69.73h-3.2a.74.74,0,0,1-.7-.73V10.5a.7.7,0,0,1,.7-.69h3a.7.7,0,0,1,.7.69v.73A9,9,0,0,1,95.5,9.56c5,0,6,3.38,6,7.79V28.68A.73.73,0,0,1,100.81,29.41Z" />
  <path
     id="path892"
     style="fill:#410d84"
     d="M122.54,13l-1.15.45a4.42,4.42,0,0,1,.87,2.78v.25c0,4.34-3,6.32-8.24,6.32a10.45,10.45,0,0,1-3.79-.59,1.12,1.12,0,0,0-.59.9c0,.7.39,1,1.19,1.15l4.1,1c4.72,1.12,7.78,1.85,7.78,5.57V31c0,3.54-2.6,5.46-8.51,5.46-5.63,0-8.62-2.12-8.62-5.77v-.32a5.23,5.23,0,0,1,1.77-3.82,4,4,0,0,1-1.56-3.2v0a3.4,3.4,0,0,1,1.39-2.82,5.32,5.32,0,0,1-1.43-4.06V16.2c0-3.47,2.26-6.39,8.27-6.39h8.14a.92.92,0,0,1,.93.94v1.46C123.09,12.73,123,12.8,122.54,13Zm-4.42,17.8c0-.77-.45-1.22-4.1-2.09L110.93,28a3.44,3.44,0,0,0-.87,2.43v.32c0,1.42.87,2.29,4.14,2.29s3.92-.73,3.92-2Zm-.38-14.5c0-1.67-.73-2.95-3.72-2.95s-3.75,1.32-3.75,2.95v.28c0,1.29.52,2.75,3.75,2.75,2.89,0,3.72-1,3.72-2.75Z" />
  <path
     id="path894"
     style="fill:#410d84"
     d="M151.63,10.61l-3.16,16c-.42,2.08-1,2.91-3.1,2.91h-.94a3.07,3.07,0,0,1-3.3-2.71l-2.74-10.63c0-.14,0-.18-.11-.18s-.07,0-.1.18L135.43,26.8a3.07,3.07,0,0,1-3.3,2.71h-.94c-2.12,0-2.67-.83-3.09-2.91l-3.16-16V10.5a.69.69,0,0,1,.69-.69H129a.68.68,0,0,1,.63.62l2.19,14.71c0,.31.1.48.17.48s.18-.14.25-.48l2.88-11.68c.35-1.36.76-1.5,1.95-1.5h2.43c1.18,0,1.6.14,1.95,1.5l2.88,11.68c.07.34.17.48.24.48s.14-.17.18-.48l2.19-14.71a.67.67,0,0,1,.62-.62h3.37a.69.69,0,0,1,.7.69Z" />
  <path
     id="path896"
     style="fill:#410d84"
     d="M168.1,29.41h-3a.69.69,0,0,1-.69-.69v-.56a9.45,9.45,0,0,1-4.9,1.53c-2.89,0-6-1.11-6-5.81v-.13c0-4,2.43-6,8.48-6h2.19V16.2c0-2.26-1-2.81-3.06-2.81a54.55,54.55,0,0,0-5.67.28h-.17c-.35,0-.63-.11-.63-.6V10.85a.71.71,0,0,1,.66-.73,29.83,29.83,0,0,1,5.81-.56c4.93,0,7.64,2.19,7.64,6.64V28.72A.69.69,0,0,1,168.1,29.41Zm-3.89-8.62H162c-3.17,0-3.86,1-3.86,3v.13c0,1.71.76,2.16,2.5,2.16a7.71,7.71,0,0,0,3.55-1Z" />
  <path
     id="path898"
     style="fill:#410d84"
     d="M188.74,10.61,182.93,30.9c-1.07,3.79-2.36,5.46-7.09,5.46a16.38,16.38,0,0,1-3.68-.45c-.38-.1-.73-.24-.73-.59V33.09a.64.64,0,0,1,.7-.62h.07c1,0,3,.21,3.92.21,1.5,0,2.26-.42,2.75-2.23l.28-1h-.52c-1,0-2.26-.24-3-2.88l-4.55-15.92a.64.64,0,0,1,0-.25c0-.34.21-.55.66-.55h3.51a.75.75,0,0,1,.66.62l3.52,14.15c.13.59.27.76.48.76h.31l3.76-14.94a.75.75,0,0,1,.69-.59h3.55a.61.61,0,0,1,.62.59A.51.51,0,0,1,188.74,10.61Z" />
  <path
     d="m 195.39,10.25 a 3.1,3.1 0 1 0 3.1,3.1 3.09,3.09 0 0 0 -3.1,-3.1 z m 0,6.83 a 3.73,3.73 0 1 1 3.74,-3.73 3.73,3.73 0 0 1 -3.74,3.73 z"
     style="fill:#410d84"
     id="path976" />
  <path
     d="m 196.08,12.39 c 0,-0.45 -0.26,-0.61 -0.87,-0.61 h -0.58 v 1.3 h 0.58 c 0.63,0 0.87,-0.2 0.87,-0.62 z m 0.92,3.2 h -0.69 a 0.19,0.19 0 0 1 -0.15,-0.11 l -0.95,-1.6 a 0.19,0.19 0 0 0 -0.13,-0.07 h -0.42 v 1.6 a 0.18,0.18 0 0 1 -0.16,0.18 h -0.63 a 0.18,0.18 0 0 1 -0.16,-0.18 v -4 c 0,-0.25 0.08,-0.34 0.3,-0.37 0.22,-0.03 0.8,-0.06 1.14,-0.06 1.15,0 1.84,0.36 1.84,1.43 v 0.08 a 1.15,1.15 0 0 1 -0.84,1.19 l 1,1.67 a 0.2,0.2 0 0 1 0,0.11 0.14,0.14 0 0 1 -0.15,0.13 z"
     style="fill:#410d84"
     id="path900" />
  <path
     id="path902"
     style="fill:#410d84"
     d="M29.79,0h-17a2.59,2.59,0,0,0-2.58,2.59v17H20V9.83h9.81V0Z" />
  <path
     id="path904"
     style="fill:#7915d1"
     d="M20,39.22H3A2.59,2.59,0,0,1,.37,36.63v-17h9.81v9.78H20v9.83Z" />
  <path
     id="path906"
     style="fill:#7915d1"
     d="M20,29.42H37a2.59,2.59,0,0,0,2.59-2.59v-17H29.79v9.77H20v9.84Z" />
</svg>
