<svg xmlns="http://www.w3.org/2000/svg" viewBox="0 0 216 216"><defs><style>.cls-1{isolation:isolate;}.cls-2{fill:#190f30;}.cls-3{fill:#4cba6f;}.cls-4{fill:none;}.cls-5{fill:#c7c5c5;}.cls-6{fill:#ffcb4e;}.cls-7{fill:#ca4627;}.cls-8{fill:#1b1131;}.cls-9{fill:#fff;}.cls-10{fill:#742916;}.cls-11{fill:#bcabd3;mix-blend-mode:soft-light;}.cls-12,.cls-14{mix-blend-mode:multiply;}.cls-13{fill:#c4a582;}.cls-14{fill:#c3be80;}.cls-15{fill:#0d0e0e;}.cls-16{fill:#90523e;}</style></defs><title>kubeform-3x3</title><g class="cls-1"><g id="Layer_1" data-name="Layer 1"><path class="cls-2" d="M11.56,200V170.52H17.3v14l12.39-14.06H36L24.7,183.57l12,16.43H30.27l-9.19-12.77-3.78,4V200Z"/><path class="cls-2" d="M44.78,200a6.18,6.18,0,0,1-5.11-2.16c-1.16-1.44-1.75-3.58-1.75-6.41V177.79H43.5v12.44q0,5,3.61,5a5.71,5.71,0,0,0,3.14-1,7,7,0,0,0,2.48-3V177.79H58.3v15.39a2,2,0,0,0,.31,1.25,1.34,1.34,0,0,0,1,.41v4.74a12.5,12.5,0,0,1-1.39.21c-.38,0-.72,0-1,0a4,4,0,0,1-2.43-.68,2.7,2.7,0,0,1-1.11-1.89l-.12-1.75a9.3,9.3,0,0,1-3.74,3.37A11.29,11.29,0,0,1,44.78,200Z"/><path class="cls-2" d="M76.22,200a8.78,8.78,0,0,1-4.45-1.12,8.18,8.18,0,0,1-3.07-3.08v3.78H63.83V169.23H69.4v12.39a8.5,8.5,0,0,1,3.06-3.1,8.69,8.69,0,0,1,4.43-1.1,8.24,8.24,0,0,1,3.87.91,9.64,9.64,0,0,1,3,2.46,11,11,0,0,1,2,3.62,14,14,0,0,1,.68,4.36,12.24,12.24,0,0,1-.77,4.41,11,11,0,0,1-2.14,3.56,10.11,10.11,0,0,1-3.24,2.39A9.49,9.49,0,0,1,76.22,200Zm-1.53-4.74a5.73,5.73,0,0,0,2.45-.52,6,6,0,0,0,1.91-1.39,6.39,6.39,0,0,0,1.23-2,7.1,7.1,0,0,0,.44-2.5,7.63,7.63,0,0,0-.42-2.53,6.47,6.47,0,0,0-1.19-2.12,5.8,5.8,0,0,0-1.81-1.46,4.85,4.85,0,0,0-2.28-.54,5.08,5.08,0,0,0-3.35,1.23,8.17,8.17,0,0,0-2.27,3v5.2a4.88,4.88,0,0,0,.86,1.5,6.2,6.2,0,0,0,1.26,1.14,6.28,6.28,0,0,0,1.54.75A5.3,5.3,0,0,0,74.69,195.26Z"/><path class="cls-3" d="M108.27,196.44a12,12,0,0,1-4,2.72,10.66,10.66,0,0,1-8.44-.06,11.51,11.51,0,0,1-3.6-2.45A12.22,12.22,0,0,1,89.7,193a10.64,10.64,0,0,1-.11-8.5,12.11,12.11,0,0,1,2.74-4.05,12,12,0,0,1,4-2.72,11.08,11.08,0,0,1,4.26-.79,10.41,10.41,0,0,1,4.12.94,12,12,0,0,1,3.54,2.46q.39.38.72.75a3.8,3.8,0,0,1,.52.66L97.6,193.65a6.32,6.32,0,0,0,2.06,1.17,5.51,5.51,0,0,0,2.11.3,5.66,5.66,0,0,0,2-.5,6,6,0,0,0,1.74-1.21,6.37,6.37,0,0,0,1.64-2.79,4.27,4.27,0,0,0-.08-2.94l4.32-2.44a9.68,9.68,0,0,1,.18,5.61A11.88,11.88,0,0,1,108.27,196.44ZM103,183.15a5.8,5.8,0,0,0-4.06-1.5,5.53,5.53,0,0,0-3.79,1.71,5.46,5.46,0,0,0-1.65,3.76,5.76,5.76,0,0,0,.34,2.07,5.91,5.91,0,0,0,1.16,2Z"/><path class="cls-2" d="M116.23,200V183.62h-2.87v-4.25h2.87V178a9.84,9.84,0,0,1,2-6.44,6.55,6.55,0,0,1,5.33-2.37,12.36,12.36,0,0,1,5.36,1.29l-1.12,4.2a7,7,0,0,0-1.48-.57,6.15,6.15,0,0,0-1.56-.22q-2.91,0-2.91,3.9v1.54h5.32v4.25H121.8V200Z"/><path class="cls-2" d="M139.27,200a12.09,12.09,0,0,1-4.78-.91,10.66,10.66,0,0,1-3.6-2.48,10.89,10.89,0,0,1-2.27-3.6,11.62,11.62,0,0,1-.79-4.28,11.75,11.75,0,0,1,.79-4.32,10.89,10.89,0,0,1,2.27-3.6,10.66,10.66,0,0,1,3.6-2.48,13,13,0,0,1,9.54,0,10.71,10.71,0,0,1,5.84,6.08,11.75,11.75,0,0,1,.79,4.32,11.62,11.62,0,0,1-.79,4.28,11,11,0,0,1-2.24,3.6,10.58,10.58,0,0,1-3.58,2.48A12.12,12.12,0,0,1,139.27,200Zm-5.7-11.27a7.61,7.61,0,0,0,.44,2.64,6.46,6.46,0,0,0,1.2,2.06,5.54,5.54,0,0,0,1.81,1.35,5.49,5.49,0,0,0,4.49,0,5.34,5.34,0,0,0,1.81-1.35,6.47,6.47,0,0,0,1.21-2.08,7.77,7.77,0,0,0,.43-2.66,7.66,7.66,0,0,0-.43-2.62,6.47,6.47,0,0,0-1.21-2.08,5.34,5.34,0,0,0-1.81-1.35,5.27,5.27,0,0,0-2.24-.48,5.15,5.15,0,0,0-2.25.5,5.75,5.75,0,0,0-1.81,1.37,6.45,6.45,0,0,0-1.2,2.08A7.66,7.66,0,0,0,133.57,188.73Z"/><path class="cls-2" d="M167.38,183a11.08,11.08,0,0,0-4.53,1,5.7,5.7,0,0,0-2.87,2.81V200H154.4V178.21h5.12v4.66a10,10,0,0,1,1.37-2,10.41,10.41,0,0,1,1.71-1.56,8.08,8.08,0,0,1,1.85-1,5.18,5.18,0,0,1,1.81-.35h.68a2.12,2.12,0,0,1,.44,0Z"/><path class="cls-2" d="M204.35,200h-5.57V187.77a6.44,6.44,0,0,0-.9-3.82,2.9,2.9,0,0,0-2.47-1.21,4.65,4.65,0,0,0-3.12,1.27,7,7,0,0,0-2.08,3.31V200h-5.57V187.77a6.44,6.44,0,0,0-.9-3.82,2.89,2.89,0,0,0-2.47-1.21,4.75,4.75,0,0,0-3.1,1.25,6.84,6.84,0,0,0-2.1,3.29V200H170.5V178.21h5v4a8.28,8.28,0,0,1,3.3-3.26,9.94,9.94,0,0,1,4.81-1.15,6.16,6.16,0,0,1,4.24,1.34,5.86,5.86,0,0,1,1.91,3.28,9.4,9.4,0,0,1,3.37-3.43,9.1,9.1,0,0,1,4.66-1.19,6.45,6.45,0,0,1,3.28.75,5.38,5.38,0,0,1,2,2,8.19,8.19,0,0,1,1,2.74,18.09,18.09,0,0,1,.27,3.12Z"/><path class="cls-3" d="M103.47,17.46,53.77,41.4a10.33,10.33,0,0,0-5.59,7L35.91,102.19a10.3,10.3,0,0,0,2,8.73l34.4,43.14a10.34,10.34,0,0,0,8.07,3.88h55.17a10.34,10.34,0,0,0,8.07-3.88L178,110.92a10.3,10.3,0,0,0,2-8.73L167.73,48.4a10.33,10.33,0,0,0-5.59-7L112.43,17.46A10.35,10.35,0,0,0,103.47,17.46Z"/><rect class="cls-4" x="61.05" y="40.21" width="93.8" height="93.8"/><rect class="cls-4" x="64.75" y="42.29" width="86.41" height="86.41"/><g id="g12"><path id="path14" class="cls-5" d="M66.77,98.19l6.08-9,8.1,8.1,10.8-5.4,8.1,8.1,10.8-16.2,10.81,8.1,8.1-2.7,5.4,8.1,8.1-8.1,5.4,10.8-5.4,18.91-29.71,13.5L83.65,127l-16.2-16.21Z"/></g><g id="g24"><path id="path26" class="cls-6" d="M140.24,93.36c.06-.78.12-1.55.12-2.34a32.39,32.39,0,0,0-27-31.92c3.21-.7,5.48-1.37,2.68-2.77-3-1.5-6,.35-8.09,2.28h0c-2.08-1.93-5.08-3.78-8.1-2.28-2.79,1.4-.52,2.07,2.69,2.77A32.39,32.39,0,0,0,75.55,91c0,.79.06,1.56.12,2.34-1.31,17.82-17,44,32.28,44s33.59-26.16,32.29-44"/></g><g id="g28"><path id="path30" class="cls-7" d="M116.05,101.52c0,4.48-3.62,5.4-8.1,5.4s-8.1-.92-8.1-5.4a8.1,8.1,0,0,1,16.2,0"/></g><g id="g32"><path id="path34" class="cls-8" d="M94.45,90a4,4,0,1,1-4-4,4,4,0,0,1,4,4"/></g><g id="g36"><path id="path38" class="cls-8" d="M129.56,90a4.05,4.05,0,1,1-4-4,4.05,4.05,0,0,1,4,4"/></g><g id="g40"><path id="path42" class="cls-9" d="M143.06,113.5l-8.1-2.71L124.16,127l-8.11-13.5-5.4,5.4-10.8-5.4-8.1,10.8-8.1-16.21-8.1,5.41-8.9-21A35.89,35.89,0,0,0,64.75,104c0,21.63,19.34,39.16,43.2,39.16s43.21-17.53,43.21-39.16a35.55,35.55,0,0,0-1.4-9.71Z"/></g><path class="cls-10" d="M131.27,46.24c-6.66-3.78-18.62-3.45-22.63-3.45s-16-.33-22.64,3.45c-8.25,4.67-7.49,26.27-7.49,26.27s9.18,3.38,30.13,3.38,30.12-3.38,30.12-3.38S139.52,50.91,131.27,46.24Z"/><path class="cls-11" d="M123.65,45.23c-5.78-.4-10.73,1.6-11.05,4.46s4.1,5.51,9.88,5.91,10.72-1.6,11-4.46S129.43,45.63,123.65,45.23Z"/><g class="cls-12"><path class="cls-13" d="M77.51,74.32c-4.1-2.51-5.83-6-5.31-7.46a6.34,6.34,0,0,0-1.9.22c-1.87.51-.39,5,4.63,8.11S97.07,81,108.64,81c10.1,0,24.72-2.11,31.46-4.72-7.42,2.19-19.92,3.85-28.88,3.85C99.65,80.1,82.53,77.39,77.51,74.32Z"/></g><path class="cls-14" d="M98.71,67.39C89,63,87.3,49,96.23,43.33A28.55,28.55,0,0,0,86,46.24c-7.86,4.45-7.54,24.26-7.49,26.12l1.37.57a85.26,85.26,0,0,0,28.76,4.64c20.94,0,30.12-5.06,30.12-5.06s0-.23,0-.64c-1.13-.11-2.54-1.5-5.84-1.37C120,71,109.44,72.2,98.71,67.39Z"/><path class="cls-9" d="M96.57,71.65a10.85,10.85,0,1,1,10.86,10.7A10.78,10.78,0,0,1,96.57,71.65Zm10.85-8.09a8.11,8.11,0,1,0,8.24,8.11A8.19,8.19,0,0,0,107.42,63.56Z"/><path class="cls-9" d="M106.33,60.28l.4-.28-.29-.26a.88.88,0,0,0,.35-1.1c-.09-.32-.22-.63-.32-1a1.11,1.11,0,0,1,.24-1.23,1.14,1.14,0,0,1,1.24-.12,1.09,1.09,0,0,1,.4,1.45,8.57,8.57,0,0,0-.3.85.92.92,0,0,0,.36,1.11l-.29.23.46.37h-2.23Z"/><path class="cls-9" d="M106.43,83.59l.29-.24-.46-.37h2.32l-.46.36.28.25a.9.9,0,0,0-.35,1.11c.08.31.21.61.31.91a1.12,1.12,0,0,1-.23,1.26,1.15,1.15,0,0,1-1.25.12,1.09,1.09,0,0,1-.39-1.45c.11-.28.22-.56.3-.84A.91.91,0,0,0,106.43,83.59Z"/><path class="cls-9" d="M98.28,79.39l.37,0,0-.37L100,80.54l.11-.08-.45,0,0,.33a.09.09,0,0,1-.05,0,.87.87,0,0,0-.95.48,7.71,7.71,0,0,0-.42.87,1.12,1.12,0,0,1-1.14.77A1.07,1.07,0,0,1,97,80.82a6.69,6.69,0,0,0,.81-.38A.91.91,0,0,0,98.28,79.39Z"/><path class="cls-9" d="M115.15,80.81l0-.38-.35,0L116.19,79v.45l.33,0s0,0,0,.06a.83.83,0,0,0,.45.93,9.3,9.3,0,0,0,.9.43,1.07,1.07,0,0,1-.21,2.09,1.15,1.15,0,0,1-1.12-.79,6.69,6.69,0,0,0-.38-.81A.89.89,0,0,0,115.15,80.81Z"/><path class="cls-9" d="M114.73,62.86l.43,0v-.37a1,1,0,0,0,1.11-.65c.18-.33.3-.68.5-1a.93.93,0,0,1,1.11-.45,1.06,1.06,0,0,1,0,2.06c-.22.1-.45.18-.66.29-.45.24-.79.55-.68,1.13l-.37,0,0,.35-1.37-1.48Z"/><path class="cls-9" d="M99.68,62.54l0,.36.43,0L100,62.8l-1.4,1.55,0-.43h-.37a1,1,0,0,0-.62-1.09c-.34-.18-.7-.31-1-.51a.92.92,0,0,1-.45-1.08,1.13,1.13,0,0,1,1-.83,1.16,1.16,0,0,1,1.1.83,5.33,5.33,0,0,0,.41.83A.88.88,0,0,0,99.68,62.54Z"/><path class="cls-9" d="M119.32,72.69c-.1-.26-.21-.41-.44-.11V70.8l.25.15.21-.27a.94.94,0,0,0,1.17.35c.31-.09.61-.22.91-.32a1.07,1.07,0,0,1,1.22.27,1.07,1.07,0,0,1-1.33,1.62c-.3-.12-.61-.23-.92-.32A.9.9,0,0,0,119.32,72.69Z"/><path class="cls-9" d="M95.52,70.65c.11.23.2.45.43.09v1.79l-.24-.14-.21.26a.91.91,0,0,0-1.11-.36c-.32.09-.63.22-.94.33a1,1,0,0,1-1.35-1.48,1.07,1.07,0,0,1,1.44-.4,9.12,9.12,0,0,0,.88.3A.9.9,0,0,0,95.52,70.65Z"/><path class="cls-9" d="M104.25,70.93a.89.89,0,0,0,.42-.83c0-.08-.08-.2-.15-.22a1.41,1.41,0,0,1-1-.73c-.13-.24-.27-.48-.39-.73-.29-.59-.29-.59-1-.43v-.66h-.77c0-.13,0-.28.11-.35.41-.41.82-.8,1.24-1.19.06-.06.18-.05.26-.08a2.48,2.48,0,0,1,0,.27c0,.15,0,.3,0,.46h.69c-.14.67-.14.67.47,1a4,4,0,0,1,.83.48,4.44,4.44,0,0,1,.61.75c0,.08.06.26.09.26a1.41,1.41,0,0,0,.58-.07c.35-.18.42-.36.22-.73a1.21,1.21,0,0,1-.06-1,6.2,6.2,0,0,1,.28-.93c.14-.35.07-.57-.3-.7a.7.7,0,0,1-.17-.11l.54-.5-.63-.5a5.81,5.81,0,0,1,2.42,0l-.59.55.53.49-.31.17a.35.35,0,0,0-.2.5c.11.31.19.64.3.95a2,2,0,0,1,0,1.28c0,.09-.13.25-.1.28a1.29,1.29,0,0,0,.48.33c.38.11.49.08.62-.35a1.43,1.43,0,0,1,.7-.77c.2-.13.42-.24.63-.35.62-.3.62-.3.47-1h.66V66a.85.85,0,0,1,0-.23c.07,0,.18,0,.22,0,.45.42.89.84,1.32,1.27,0,.06,0,.19.06.31l-.76,0,0,.64-.11,0c-.59-.15-.58-.15-.86.41a4,4,0,0,1-.44.78,5.43,5.43,0,0,1-.81.7c-.08.07-.28.09-.28.12a1.83,1.83,0,0,0,.11.61c.14.36.44.34.7.18a1.18,1.18,0,0,1,1-.08c.29.07.57.16.86.25.58.19.58.19,1-.49l.36.62.5-.54c.27,0,.25.21.26.41.07,1.52,0,1.68-.25,1.83l-.48-.51-.47.52c-.07-.11-.11-.16-.14-.22-.12-.31-.32-.38-.63-.26a7.13,7.13,0,0,1-.82.26,1.61,1.61,0,0,1-1.54-.2c-.06.07-.11.14-.17.2-.4.44-.38.8.14,1a1.34,1.34,0,0,1,.75.67c.15.24.27.48.4.73.27.55.27.56.91.37V76l.52,0c.07,0,.18,0,.21.06a.22.22,0,0,1,0,.22c-.44.44-.88.88-1.34,1.29-.15.13-.27.07-.25-.15s0-.35,0-.54h-.71a1.83,1.83,0,0,1,.08-.27.38.38,0,0,0-.23-.55c-.37-.18-.72-.38-1.08-.58a1.29,1.29,0,0,1-.64-.91c0-.19-.49-.23-.72-.06s-.23.2-.38.33a1.76,1.76,0,0,1,.14,1.82c0,.11-.07.21-.1.31-.2.63-.2.63.39,1l-.51.48.57.54a5.91,5.91,0,0,1-2.37,0l.57-.55-.52-.5.28-.14a.38.38,0,0,0,.22-.55c-.1-.27-.17-.55-.26-.82a1.67,1.67,0,0,1,.19-1.6,1.91,1.91,0,0,0-.36-.3,2.39,2.39,0,0,0-.46-.12c-.29-.07-.21.14-.27.29a1.66,1.66,0,0,1-.84.91c-.22.12-.44.24-.67.35-.54.27-.55.27-.35.9h-.71c0,.19,0,.37,0,.55s-.1.29-.25.16c-.46-.41-.9-.85-1.34-1.29,0-.05,0-.18,0-.28h.74l0-.63c.08,0,.11,0,.12,0,.57.16.56.16.83-.36a5,5,0,0,1,.53-.93,4.08,4.08,0,0,1,.75-.61c.08-.06.28-.09.27-.12a1.79,1.79,0,0,0-.12-.61,1.14,1.14,0,0,0-.3-.35c-.72.57-1.45.24-2.19,0s-.6-.19-1,.47l-.48-.59-.53.56a1.27,1.27,0,0,1-.17-.38c-.11-1.22,0-1.73.23-1.91l.49.53.48-.53c.07.13.12.2.15.27a.37.37,0,0,0,.55.23c.27-.11.55-.18.82-.26A1.7,1.7,0,0,1,104.25,70.93Zm3.14-1.59a2.34,2.34,0,0,0-2.27,2.31A2.3,2.3,0,0,0,107.41,74a2.33,2.33,0,0,0,2.33-2.25A2.43,2.43,0,0,0,107.39,69.34Z"/><path class="cls-9" d="M107.44,70.07a1.6,1.6,0,0,1,0,3.19,1.6,1.6,0,1,1,0-3.19Zm.87,1.6a.89.89,0,1,0-.9.88A.87.87,0,0,0,108.31,71.67Z"/><path class="cls-15" d="M78.5,68.51v5.08a77.42,77.42,0,0,0,30.11,6.46,87,87,0,0,0,30.11-5.62V69.09s-11.91,3.17-30.08,3.17S78.5,68.51,78.5,68.51Z"/><rect class="cls-6" x="96.17" y="78.36" width="22.51" height="8.76"/><path class="cls-16" d="M147,67.08c-2.75-.76-6.46,1.73-14.62,5.06a65.06,65.06,0,0,1-23.74,4.49c-8.93,0-19.21-2.35-25.58-5.54-7.39-3.69-10-4.77-12.73-4-1.87.51-.39,5,4.63,8.11S97.07,81,108.64,81s28.69-2.71,33.71-5.78S148.84,67.59,147,67.08Z"/></g></g></svg>