<svg xmlns="http://www.w3.org/2000/svg" viewBox="0 0 216 216"><defs><style>.cls-1{isolation:isolate;}.cls-2{fill:#190f30;}.cls-3{fill:#4cba6f;}.cls-4{fill:none;}.cls-5{fill:#c7c5c5;}.cls-6{fill:#ffcb4e;}.cls-7{fill:#ca4627;}.cls-8{fill:#1b1131;}.cls-9{fill:#fff;}.cls-10{fill:#742916;}.cls-11{fill:#bcabd3;mix-blend-mode:soft-light;}.cls-12,.cls-14{mix-blend-mode:multiply;}.cls-13{fill:#c4a582;}.cls-14{fill:#c3be80;}.cls-15{fill:#0d0e0e;}.cls-16{fill:#90523e;}</style></defs><title>kubeform</title><g class="cls-1"><g id="Layer_1" data-name="Layer 1"><path class="cls-2" d="M25.11,187.9V162.26h5v12.19l10.78-12.23h5.5l-9.84,11.4L47,187.9h-5.6l-8-11.1-3.29,3.44v7.66Z"/><path class="cls-2" d="M54,187.9A5.37,5.37,0,0,1,49.56,186,8.73,8.73,0,0,1,48,180.45V168.59h4.85V179.4q0,4.38,3.15,4.38a5,5,0,0,0,2.73-.85,6.16,6.16,0,0,0,2.15-2.59V168.59h4.85V182a1.72,1.72,0,0,0,.27,1.09,1.18,1.18,0,0,0,.88.36v4.12a8.67,8.67,0,0,1-1.21.18c-.32,0-.62,0-.88,0a3.48,3.48,0,0,1-2.12-.6,2.36,2.36,0,0,1-1-1.64L61.64,184a8.09,8.09,0,0,1-3.25,2.93A9.84,9.84,0,0,1,54,187.9Z"/><path class="cls-2" d="M81.36,187.9a7.62,7.62,0,0,1-3.87-1,7.11,7.11,0,0,1-2.68-2.68v3.29H70.58v-26.4h4.84v10.78a7.33,7.33,0,0,1,2.66-2.7,7.51,7.51,0,0,1,3.85-1,7.16,7.16,0,0,1,3.37.8,8.54,8.54,0,0,1,2.62,2.13,9.65,9.65,0,0,1,1.7,3.15,12,12,0,0,1,.6,3.8,10.89,10.89,0,0,1-.67,3.83,9.8,9.8,0,0,1-1.86,3.09,8.69,8.69,0,0,1-2.83,2.08A8.1,8.1,0,0,1,81.36,187.9ZM80,183.78a5,5,0,0,0,2.13-.45,5.24,5.24,0,0,0,1.67-1.21,5.57,5.57,0,0,0,1.06-1.78,5.93,5.93,0,0,0,.38-2.17,6.72,6.72,0,0,0-.36-2.2,5.66,5.66,0,0,0-1-1.85,5.14,5.14,0,0,0-1.57-1.26,4.2,4.2,0,0,0-2-.47,4.45,4.45,0,0,0-2.92,1.06,7.24,7.24,0,0,0-2,2.63v4.52a4.3,4.3,0,0,0,.74,1.3,5.52,5.52,0,0,0,2.45,1.65A4.72,4.72,0,0,0,80,183.78Z"/><path class="cls-3" d="M109.23,184.81a10.52,10.52,0,0,1-3.46,2.36,9.32,9.32,0,0,1-3.73.73,9.09,9.09,0,0,1-3.61-.78A9.93,9.93,0,0,1,95.29,185a10.7,10.7,0,0,1-2.21-3.19,9.37,9.37,0,0,1-.82-3.63,9.51,9.51,0,0,1,.72-3.76,10.5,10.5,0,0,1,2.39-3.51,10.17,10.17,0,0,1,3.49-2.37,9.38,9.38,0,0,1,3.71-.69,9,9,0,0,1,3.58.82,10.36,10.36,0,0,1,3.08,2.13l.63.65a5.48,5.48,0,0,1,.45.58L100,182.38a5.42,5.42,0,0,0,1.79,1,4.79,4.79,0,0,0,3.6-.18,4.77,4.77,0,0,0,1.51-1.05,5.55,5.55,0,0,0,1.43-2.43,3.7,3.7,0,0,0-.07-2.55l3.76-2.13a8.43,8.43,0,0,1,.15,4.89A10.32,10.32,0,0,1,109.23,184.81Zm-4.6-11.56a5.06,5.06,0,0,0-3.53-1.31,5.11,5.11,0,0,0-4.35,3,4.58,4.58,0,0,0-.38,1.74,4.92,4.92,0,0,0,.29,1.8,5,5,0,0,0,1,1.7Z"/><path class="cls-2" d="M116.15,187.9V173.65h-2.49V170h2.49v-1.15a8.56,8.56,0,0,1,1.7-5.61,5.69,5.69,0,0,1,4.63-2.06,10.77,10.77,0,0,1,4.67,1.12l-1,3.65a6.72,6.72,0,0,0-1.28-.49,5.41,5.41,0,0,0-1.36-.19c-1.69,0-2.53,1.13-2.53,3.4V170h4.63v3.69H121V187.9Z"/><path class="cls-2" d="M136.19,187.9a10.43,10.43,0,0,1-4.16-.79A9.44,9.44,0,0,1,128.9,185a9.71,9.71,0,0,1-2-3.13,10.51,10.51,0,0,1,0-7.49,9.71,9.71,0,0,1,2-3.13,9.44,9.44,0,0,1,3.13-2.15,10.43,10.43,0,0,1,4.16-.8,10.29,10.29,0,0,1,4.14.8,9.32,9.32,0,0,1,5.08,5.28,10.51,10.51,0,0,1,0,7.49,9.66,9.66,0,0,1-1.95,3.13,9.15,9.15,0,0,1-3.11,2.15A10.43,10.43,0,0,1,136.19,187.9Zm-5-9.8a6.68,6.68,0,0,0,.38,2.3,5.87,5.87,0,0,0,1,1.79,4.71,4.71,0,0,0,7.06,0,5.86,5.86,0,0,0,1.05-1.81,6.82,6.82,0,0,0,.38-2.31,6.73,6.73,0,0,0-.38-2.28,5.86,5.86,0,0,0-1.05-1.81,4.6,4.6,0,0,0-3.53-1.59,4.42,4.42,0,0,0-1.95.43,5,5,0,0,0-1.58,1.19,5.86,5.86,0,0,0-1,1.81A6.73,6.73,0,0,0,131.23,178.1Z"/><path class="cls-2" d="M160.64,173.15a9.38,9.38,0,0,0-3.94.85,5,5,0,0,0-2.5,2.44V187.9h-4.84V169h4.44V173a8.73,8.73,0,0,1,1.2-1.75,9.44,9.44,0,0,1,1.48-1.36,7.37,7.37,0,0,1,1.61-.89,4.54,4.54,0,0,1,1.57-.3h.6a2.34,2.34,0,0,1,.38,0Z"/><path class="cls-2" d="M192.8,187.9H188V177.27a5.63,5.63,0,0,0-.78-3.33,2.52,2.52,0,0,0-2.15-1.05,4,4,0,0,0-2.71,1.11,6,6,0,0,0-1.81,2.87v11h-4.85V177.27a5.63,5.63,0,0,0-.78-3.33,2.52,2.52,0,0,0-2.15-1.05A4.13,4.13,0,0,0,170,174a5.82,5.82,0,0,0-1.83,2.86V187.9h-4.85V169h4.38v3.51a7.26,7.26,0,0,1,2.87-2.84,8.66,8.66,0,0,1,4.18-1,5.38,5.38,0,0,1,3.69,1.15,5.23,5.23,0,0,1,1.67,2.86,8.06,8.06,0,0,1,2.93-3,7.87,7.87,0,0,1,4.05-1,5.54,5.54,0,0,1,2.85.65,4.66,4.66,0,0,1,1.74,1.7,7.16,7.16,0,0,1,.85,2.38,15.45,15.45,0,0,1,.24,2.72Z"/><path class="cls-3" d="M104.84,17.34l-45.67,22A9.49,9.49,0,0,0,54,45.77L42.76,95.18a9.53,9.53,0,0,0,1.83,8L76.2,142.83a9.46,9.46,0,0,0,7.41,3.57H134.3a9.47,9.47,0,0,0,7.41-3.57l31.6-39.62a9.47,9.47,0,0,0,1.83-8L163.87,45.77a9.53,9.53,0,0,0-5.14-6.44l-45.66-22A9.5,9.5,0,0,0,104.84,17.34Z"/><rect class="cls-4" x="65.86" y="38.25" width="86.18" height="86.18"/><rect class="cls-4" x="69.26" y="40.16" width="79.38" height="79.38"/><g id="g12"><path id="path14" class="cls-5" d="M71.12,91.51l5.58-8.27,7.45,7.45,9.92-5,7.44,7.45,9.92-14.89,9.93,7.44,7.44-2.48,5,7.45,7.44-7.45,5,9.93-5,17.36-27.28,12.41-27.29-5L71.74,103.09Z"/></g><g id="g24"><path id="path26" class="cls-6" d="M138.61,87.07c.06-.71.11-1.42.11-2.15A29.75,29.75,0,0,0,113.93,55.6c2.94-.64,5-1.26,2.47-2.54-2.77-1.39-5.54.32-7.44,2.09h0c-1.91-1.77-4.67-3.48-7.44-2.09C98.94,54.34,101,55,104,55.6a29.75,29.75,0,0,0-24.8,29.32c0,.73.06,1.44.11,2.15C78.1,103.45,63.66,127.48,109,127.48s30.86-24,29.66-40.41"/></g><g id="g28"><path id="path30" class="cls-7" d="M116.4,94.57c0,4.11-3.34,5-7.45,5s-7.44-.85-7.44-5a7.45,7.45,0,0,1,14.89,0"/></g><g id="g32"><path id="path34" class="cls-8" d="M96.55,84a3.72,3.72,0,1,1-3.72-3.72A3.71,3.71,0,0,1,96.55,84"/></g><g id="g36"><path id="path38" class="cls-8" d="M128.8,84a3.72,3.72,0,1,1-3.72-3.72A3.72,3.72,0,0,1,128.8,84"/></g><g id="g40"><path id="path42" class="cls-9" d="M141.2,105.57l-7.44-2.48L123.84,118l-7.44-12.4-5,5-9.92-5-7.44,9.92-7.44-14.88-7.45,5L71,86.31a33,33,0,0,0-1.75,10.58c0,19.87,17.77,36,39.69,36s39.7-16.1,39.7-36A32.67,32.67,0,0,0,147.36,88Z"/></g><path class="cls-10" d="M130.38,43.78c-6.12-3.47-17.11-3.16-20.8-3.16s-14.68-.31-20.79,3.16c-7.58,4.3-6.88,24.14-6.88,24.14S90.34,71,109.58,71s27.68-3.11,27.68-3.11S138,48.08,130.38,43.78Z"/><path class="cls-11" d="M123.37,42.86c-5.31-.37-9.85,1.47-10.15,4.1S117,52,122.3,52.38s9.85-1.47,10.15-4.1S128.68,43.22,123.37,42.86Z"/><g class="cls-12"><path class="cls-13" d="M81,69.58c-3.76-2.31-5.35-5.5-4.88-6.85a5.36,5.36,0,0,0-1.74.2c-1.71.46-.36,4.62,4.25,7.45s20.35,5.31,31,5.31c9.29,0,22.72-1.94,28.91-4.34-6.82,2-18.31,3.54-26.54,3.54C101.33,74.89,85.6,72.41,81,69.58Z"/></g><path class="cls-14" d="M100.46,63.21c-8.95-4-10.48-16.89-2.28-22.1a26.33,26.33,0,0,0-9.39,2.67c-7.23,4.09-6.93,22.29-6.89,24l1.26.53a78.65,78.65,0,0,0,26.42,4.25c19.24,0,27.68-4.64,27.68-4.64s0-.22,0-.59c-1-.1-2.34-1.38-5.37-1.26C120.05,66.52,110.32,67.63,100.46,63.21Z"/><path class="cls-9" d="M98.5,67.13a10,10,0,1,1,10,9.82A9.91,9.91,0,0,1,98.5,67.13Zm10-7.44A7.45,7.45,0,1,0,116,67.14,7.53,7.53,0,0,0,108.47,59.69Z"/><path class="cls-9" d="M107.47,56.68l.36-.26-.27-.23a.83.83,0,0,0,.33-1c-.09-.29-.21-.58-.3-.87A1,1,0,0,1,109,53.07a1,1,0,0,1,.36,1.33c-.1.25-.19.51-.27.77a.83.83,0,0,0,.33,1l-.27.21.43.35h-2Z"/><path class="cls-9" d="M107.56,78.09l.26-.21-.42-.34h2.13l-.42.33.25.23a.81.81,0,0,0-.32,1c.08.29.19.56.29.84a1,1,0,0,1-.21,1.16,1.06,1.06,0,0,1-1.15.11,1,1,0,0,1-.36-1.33,7.19,7.19,0,0,0,.27-.78A.83.83,0,0,0,107.56,78.09Z"/><path class="cls-9" d="M100.07,74.24l.33.05V74l1.26,1.35.1-.08-.41,0v.31s0,0,0,0a.8.8,0,0,0-.88.45,7.33,7.33,0,0,0-.38.8,1,1,0,0,1-1,.7,1,1,0,0,1-.87-.89,1,1,0,0,1,.73-1,6.27,6.27,0,0,0,.74-.35A.84.84,0,0,0,100.07,74.24Z"/><path class="cls-9" d="M115.57,75.54l0-.35-.33,0,1.25-1.36v.41l.3,0s0,0,0,.06a.76.76,0,0,0,.42.85,6.89,6.89,0,0,0,.82.4,1,1,0,0,1,.7,1,1,1,0,0,1-.9.87,1,1,0,0,1-1-.73,6.27,6.27,0,0,0-.35-.74A.82.82,0,0,0,115.57,75.54Z"/><path class="cls-9" d="M115.18,59.05l.4.05v-.34c.52.1.8-.2,1-.6s.27-.63.45-.91a.85.85,0,0,1,1-.41,1,1,0,0,1,0,1.89c-.2.09-.41.17-.6.27-.42.22-.73.5-.63,1l-.34,0,0,.32L115.29,59Z"/><path class="cls-9" d="M101.36,58.76l0,.33.4,0,0,0-1.29,1.42,0-.39h-.33a.9.9,0,0,0-.57-1c-.31-.16-.65-.28-1-.47a.86.86,0,0,1-.41-1,1,1,0,0,1,.91-.76,1.07,1.07,0,0,1,1,.76,5.45,5.45,0,0,0,.37.77A.83.83,0,0,0,101.36,58.76Z"/><path class="cls-9" d="M119.4,68.08c-.1-.23-.2-.37-.41-.09V66.35l.23.13.19-.24a.87.87,0,0,0,1.08.32c.28-.09.56-.21.84-.3a1,1,0,0,1,1.11.25A1,1,0,0,1,121.22,68a8.33,8.33,0,0,0-.84-.29A.81.81,0,0,0,119.4,68.08Z"/><path class="cls-9" d="M97.53,66.21c.1.21.19.41.4.08v1.65l-.22-.14-.2.25a.82.82,0,0,0-1-.33c-.3.08-.58.2-.87.3a1,1,0,0,1-1.24-1.36,1,1,0,0,1,1.32-.37,7.75,7.75,0,0,0,.81.28A.82.82,0,0,0,97.53,66.21Z"/><path class="cls-9" d="M105.55,66.47a.79.79,0,0,0,.38-.76.29.29,0,0,0-.13-.21,1.28,1.28,0,0,1-.9-.67c-.12-.22-.25-.44-.36-.67-.27-.54-.26-.54-.87-.39v-.61H103c0-.12,0-.26.11-.32.37-.38.75-.74,1.14-1.1.05-.05.15-.05.23-.07a2.13,2.13,0,0,1,0,.25c0,.13,0,.27,0,.42h.63c-.13.62-.12.61.43.89a3.46,3.46,0,0,1,.77.45,3.41,3.41,0,0,1,.55.69c0,.06.06.23.09.23a1.16,1.16,0,0,0,.53-.07c.33-.16.39-.32.2-.66a1.18,1.18,0,0,1-.05-.92,6,6,0,0,1,.25-.85c.13-.32.07-.53-.27-.65l-.15-.1.49-.46-.58-.46a5.54,5.54,0,0,1,2.22,0l-.53.51.48.45-.28.15A.33.33,0,0,0,109,62c.11.29.17.59.28.88a1.81,1.81,0,0,1,0,1.17c0,.09-.12.23-.09.26a1.15,1.15,0,0,0,.44.3c.35.1.45.07.57-.32a1.32,1.32,0,0,1,.64-.71c.19-.12.39-.22.58-.32.57-.28.57-.27.44-.88h.6v-.46l0-.21c.07,0,.17,0,.21,0,.41.38.82.77,1.21,1.17,0,0,0,.17,0,.28l-.69,0,0,.59c-.07,0-.09.05-.11,0-.53-.14-.53-.14-.79.38a3.51,3.51,0,0,1-.4.71,5.07,5.07,0,0,1-.74.65c-.07.06-.26.08-.26.11a1.78,1.78,0,0,0,.1.56c.13.33.4.32.64.16a1.07,1.07,0,0,1,.89-.06,7.15,7.15,0,0,1,.79.23c.53.16.53.17.92-.46l.32.57.46-.49c.25,0,.24.19.25.37.06,1.4,0,1.55-.24,1.68l-.44-.46-.43.47-.13-.2a.38.38,0,0,0-.57-.24c-.25.1-.51.17-.76.25a1.52,1.52,0,0,1-1.41-.19l-.16.18c-.37.4-.35.74.13.9a1.28,1.28,0,0,1,.69.62,7.12,7.12,0,0,1,.36.67c.25.51.25.51.84.34v.65c.17,0,.32,0,.48,0s.17,0,.19.05a.22.22,0,0,1,0,.21c-.4.4-.81.81-1.23,1.19-.14.12-.25.06-.23-.15s0-.31,0-.49h-.66c0-.11.05-.18.08-.25a.35.35,0,0,0-.21-.5c-.34-.17-.67-.35-1-.53a1.19,1.19,0,0,1-.59-.84c0-.18-.45-.21-.67-.06l-.34.3a1.62,1.62,0,0,1,.12,1.68l-.09.29c-.18.57-.18.57.36.9l-.47.45.53.49a5.34,5.34,0,0,1-2.18,0l.52-.5-.48-.46.26-.13a.34.34,0,0,0,.2-.51c-.09-.24-.15-.5-.24-.75a1.55,1.55,0,0,1,.18-1.47,2,2,0,0,0-.33-.28,1.93,1.93,0,0,0-.43-.1c-.26-.07-.19.12-.24.26a1.46,1.46,0,0,1-.77.83c-.21.11-.41.23-.62.33-.5.25-.5.25-.32.83h-.65l0,.5c0,.21-.09.27-.22.15-.43-.38-.83-.78-1.24-1.19,0,0,0-.17,0-.25h.68l0-.59.11,0c.52.15.51.15.75-.32a4.55,4.55,0,0,1,.49-.86,3.83,3.83,0,0,1,.69-.56c.07-.06.25-.08.25-.11a1.74,1.74,0,0,0-.11-.56,1.24,1.24,0,0,0-.27-.32c-.67.53-1.34.22-2,0s-.55-.18-.88.43l-.44-.54-.48.51a1.09,1.09,0,0,1-.16-.35c-.1-1.11,0-1.59.22-1.75l.44.48.45-.48c.06.12.1.18.13.25a.36.36,0,0,0,.51.21,6.54,6.54,0,0,1,.75-.24A1.54,1.54,0,0,1,105.55,66.47ZM108.44,65a2.14,2.14,0,0,0-2.09,2.12,2.11,2.11,0,0,0,2.1,2.13,2.15,2.15,0,0,0,2.15-2.07A2.23,2.23,0,0,0,108.44,65Z"/><path class="cls-9" d="M108.49,65.68a1.39,1.39,0,0,1,1.43,1.48,1.41,1.41,0,0,1-1.47,1.45,1.47,1.47,0,1,1,0-2.93Zm.79,1.47a.8.8,0,0,0-.81-.82.81.81,0,1,0,.81.82Z"/><path class="cls-15" d="M81.89,64.24v4.67a71.18,71.18,0,0,0,27.67,5.93,80,80,0,0,0,27.66-5.16v-4.9s-10.94,2.91-27.64,2.91S81.89,64.24,81.89,64.24Z"/><rect class="cls-6" x="98.13" y="73.29" width="20.68" height="8.05"/><path class="cls-16" d="M144.8,62.93c-2.53-.7-5.94,1.58-13.43,4.65a59.84,59.84,0,0,1-21.81,4.12c-8.21,0-17.65-2.16-23.5-5.08-6.8-3.4-9.17-4.39-11.7-3.69-1.71.46-.36,4.62,4.25,7.45s20.35,5.31,31,5.31,26.36-2.49,31-5.31S146.52,63.39,144.8,62.93Z"/></g></g></svg>