<svg xmlns="http://www.w3.org/2000/svg" viewBox="0 0 1279 637"><defs><style>.cls-1{isolation:isolate;}.cls-2{fill:#4cba6f;}.cls-3{fill:none;}.cls-4{fill:#190f30;}.cls-5{fill:#c7c5c5;}.cls-6{fill:#ffcb4e;}.cls-7{fill:#ca4627;}.cls-8{fill:#1b1131;}.cls-9{fill:#fff;}.cls-10{fill:#742916;}.cls-11{fill:#bcabd3;mix-blend-mode:soft-light;}.cls-12,.cls-14{mix-blend-mode:multiply;}.cls-13{fill:#c4a582;}.cls-14{fill:#c3be80;}.cls-15{fill:#0d0e0e;}.cls-16{fill:#90523e;}</style></defs><title>kubeform-logo-1280x640</title><g class="cls-1"><g id="Layer_1" data-name="Layer 1"><path class="cls-2" d="M207.63,215.4l-73.81,35.54a15.3,15.3,0,0,0-8.29,10.4L107.3,341.21a15.3,15.3,0,0,0,3,13l51.07,64.05a15.32,15.32,0,0,0,12,5.77h81.92a15.32,15.32,0,0,0,12-5.77l51.08-64.05a15.3,15.3,0,0,0,3-13L303,261.34a15.32,15.32,0,0,0-8.29-10.4L220.93,215.4A15.28,15.28,0,0,0,207.63,215.4Z"/><rect class="cls-3" x="144.63" y="249.18" width="139.29" height="139.29"/><path class="cls-4" d="M349.44,385.23V259.42h24.49v59.8l52.87-60h27l-48.27,55.9,51.28,70.09h-27.5l-39.22-54.48-16.14,16.86v37.62Z"/><path class="cls-4" d="M491.21,385.23q-14.37,0-21.82-9.23t-7.45-27.33v-58.2h23.77v53.06q0,21.47,15.44,21.47a24.42,24.42,0,0,0,13.4-4.17q6.48-4.17,10.56-12.69V290.47h23.78v65.66c0,2.48.44,4.26,1.33,5.32a5.79,5.79,0,0,0,4.34,1.77v20.23a51,51,0,0,1-5.94.89q-2.4.18-4.35.18c-4.25,0-7.72-1-10.38-2.93a11.52,11.52,0,0,1-4.7-8.07l-.53-7.46a39.71,39.71,0,0,1-16,14.38A48.15,48.15,0,0,1,491.21,385.23Z"/><path class="cls-4" d="M625.37,385.23a37.47,37.47,0,0,1-19-4.79,35,35,0,0,1-13.13-13.13v16.14H572.49V253.92h23.77v52.87a36,36,0,0,1,13-13.22,36.91,36.91,0,0,1,18.9-4.7,35.06,35.06,0,0,1,16.5,3.91,41.36,41.36,0,0,1,12.86,10.47,47.2,47.2,0,0,1,8.34,15.44,58.79,58.79,0,0,1,2.93,18.63,52.82,52.82,0,0,1-3.28,18.81,47.25,47.25,0,0,1-9.14,15.17,42.84,42.84,0,0,1-13.84,10.2A40.13,40.13,0,0,1,625.37,385.23ZM618.8,365a24.6,24.6,0,0,0,10.47-2.22,25.08,25.08,0,0,0,8.16-5.94,26.93,26.93,0,0,0,5.24-8.7,30.11,30.11,0,0,0,1.86-10.65,33,33,0,0,0-1.77-10.82,28.27,28.27,0,0,0-5.06-9.05,25.37,25.37,0,0,0-7.72-6.21,20.82,20.82,0,0,0-9.76-2.31,21.75,21.75,0,0,0-14.28,5.24,34.82,34.82,0,0,0-9.68,12.86v22.18a20.05,20.05,0,0,0,3.64,6.39,26.61,26.61,0,0,0,5.41,4.88,26.16,26.16,0,0,0,6.57,3.2A22.29,22.29,0,0,0,618.8,365Z"/><path class="cls-2" d="M762.12,370a51.48,51.48,0,0,1-17,11.61,45.69,45.69,0,0,1-36-.25,49,49,0,0,1-15.37-10.48,51.77,51.77,0,0,1-10.85-15.62,45.63,45.63,0,0,1-4-17.82A46.62,46.62,0,0,1,682.38,319a51.72,51.72,0,0,1,11.74-17.26,50.36,50.36,0,0,1,17.12-11.6,46.75,46.75,0,0,1,18.2-3.39,44.48,44.48,0,0,1,17.57,4,50.83,50.83,0,0,1,15.11,10.47c1.09,1.09,2.11,2.16,3.08,3.2a18,18,0,0,1,2.19,2.83l-50.81,50.81a27.52,27.52,0,0,0,8.78,5,24.13,24.13,0,0,0,9,1.26,23.88,23.88,0,0,0,8.66-2.14,25,25,0,0,0,7.4-5.14,27.42,27.42,0,0,0,7-11.92,18.31,18.31,0,0,0-.37-12.55l18.44-10.41a41.5,41.5,0,0,1,.75,24Q773.17,359,762.12,370Zm-22.58-56.71q-8-6.78-17.31-6.4A24.21,24.21,0,0,0,699,330.27a24.56,24.56,0,0,0,1.44,8.84,25.79,25.79,0,0,0,5,8.35Z"/><path class="cls-4" d="M796.07,385.23V315.31H783.83v-18.1h12.24v-5.68q0-17.38,8.34-27.5t22.72-10.11a52.83,52.83,0,0,1,22.89,5.5l-4.8,17.92a30.62,30.62,0,0,0-6.29-2.4,26.38,26.38,0,0,0-6.66-1q-12.42,0-12.42,16.68v6.56h22.71v18.1H819.85v69.92Z"/><path class="cls-4" d="M894.38,385.23a51.22,51.22,0,0,1-20.4-3.9,45.87,45.87,0,0,1-15.35-10.56A46.77,46.77,0,0,1,849,355.42a51.87,51.87,0,0,1,0-36.73,46.71,46.71,0,0,1,9.68-15.36A45.71,45.71,0,0,1,874,292.78a51,51,0,0,1,20.4-3.91,50.48,50.48,0,0,1,20.32,3.91A46.13,46.13,0,0,1,930,303.33a46.69,46.69,0,0,1,9.67,15.36,51.72,51.72,0,0,1,0,36.73,47.51,47.51,0,0,1-9.58,15.35,45.09,45.09,0,0,1-15.26,10.56A51.27,51.27,0,0,1,894.38,385.23Zm-24.31-48.09a32.45,32.45,0,0,0,1.86,11.27,27.61,27.61,0,0,0,5.15,8.78A22.92,22.92,0,0,0,884.8,363,23.54,23.54,0,0,0,904,363a23,23,0,0,0,7.71-5.77,27.23,27.23,0,0,0,5.15-8.87A33.22,33.22,0,0,0,918.69,337a32.71,32.71,0,0,0-1.86-11.18,27.34,27.34,0,0,0-5.15-8.87,23.12,23.12,0,0,0-7.71-5.77,22.7,22.7,0,0,0-9.59-2,21.85,21.85,0,0,0-9.58,2.13,24,24,0,0,0-7.72,5.86,27.41,27.41,0,0,0-5.15,8.87A32.66,32.66,0,0,0,870.07,337.14Z"/><path class="cls-4" d="M1014.34,312.83A47,47,0,0,0,995,317a24.39,24.39,0,0,0-12.24,12v56.25H959v-93H980.8v19.87a42,42,0,0,1,5.86-8.61,44.91,44.91,0,0,1,7.27-6.65,34,34,0,0,1,7.9-4.35,21.88,21.88,0,0,1,7.71-1.51h2.93a9.49,9.49,0,0,1,1.87.18Z"/><path class="cls-4" d="M1172.09,385.23h-23.78V333.06q0-11.18-3.82-16.33a12.4,12.4,0,0,0-10.56-5.14q-7.1,0-13.31,5.41a29.92,29.92,0,0,0-8.87,14.11v54.12H1088V333.06q0-11.18-3.81-16.33a12.41,12.41,0,0,0-10.56-5.14q-6.91,0-13.22,5.32a29,29,0,0,0-9,14v54.3h-23.78v-93h21.48v17.21a35.44,35.44,0,0,1,14.1-13.93,42.09,42.09,0,0,1,20.5-4.88q11.7,0,18.1,5.67a25.45,25.45,0,0,1,8.16,14,40.12,40.12,0,0,1,14.37-14.63,38.75,38.75,0,0,1,19.88-5.06q8.51,0,14,3.19a23.1,23.1,0,0,1,8.51,8.34,35,35,0,0,1,4.17,11.71,76.76,76.76,0,0,1,1.16,13.31Z"/><rect class="cls-3" x="150.12" y="252.27" width="128.31" height="128.31"/><g id="g12"><path id="path14" class="cls-5" d="M153.13,335.27l9-13.36,12,12,16-8,12,12,16-24.06,16,12,12-4,8,12,12-12,8,16-8,28.06-44.1,20.05-44.11-8L154.13,354Z"/></g><g id="g24"><path id="path26" class="cls-6" d="M262.22,328.1c.08-1.16.17-2.31.17-3.48a48.08,48.08,0,0,0-40.08-47.39c4.77-1,8.15-2,4-4.11-4.47-2.24-8.95.51-12,3.38h0c-3.08-2.87-7.55-5.62-12-3.38-4.15,2.07-.78,3.07,4,4.11a48.08,48.08,0,0,0-40.08,47.39c0,1.17.09,2.32.18,3.48-1.94,26.46-25.27,65.3,47.94,65.3s49.87-38.84,47.94-65.3"/></g><g id="g28"><path id="path30" class="cls-7" d="M226.31,340.22c0,6.64-5.39,8-12,8s-12-1.37-12-8a12,12,0,0,1,24.06,0"/></g><g id="g32"><path id="path34" class="cls-8" d="M194.23,323.05a6,6,0,1,1-6-6,6,6,0,0,1,6,6"/></g><g id="g36"><path id="path38" class="cls-8" d="M246.35,323.05a6,6,0,1,1-6-6,6,6,0,0,1,6,6"/></g><g id="g40"><path id="path42" class="cls-9" d="M266.4,358l-12-4-16,24.06-12-20.05-8,8-16-8-12,16-12-24.06-12,8L153,326.86a53.23,53.23,0,0,0-2.83,17.1c0,32.11,28.73,58.14,64.16,58.14s64.15-26,64.15-58.14a53.06,53.06,0,0,0-2.07-14.42Z"/></g><path class="cls-10" d="M248.9,258.13C239,252.52,221.26,253,215.29,253s-23.72-.49-33.61,5.12c-12.25,6.94-11.12,39-11.12,39s13.64,5,44.73,5,44.73-5,44.73-5S261.15,265.07,248.9,258.13Z"/><path class="cls-11" d="M237.58,256.63c-8.58-.59-15.92,2.38-16.4,6.63s6.09,8.18,14.66,8.77,15.93-2.38,16.41-6.63S246.16,257.22,237.58,256.63Z"/><g class="cls-12"><path class="cls-13" d="M169.07,299.82c-6.09-3.73-8.66-8.89-7.89-11.07a9.09,9.09,0,0,0-2.81.32c-2.77.76-.59,7.47,6.87,12s32.88,8.59,50,8.59c15,0,36.72-3.13,46.73-7-11,3.26-29.59,5.72-42.9,5.72C202,308.41,176.52,304.39,169.07,299.82Z"/></g><path class="cls-14" d="M200.55,289.54c-14.47-6.48-16.94-27.31-3.68-35.74-5.48.7-11,2-15.19,4.33-11.67,6.61-11.19,36-11.12,38.78.65.28,1.32.57,2,.86,4.82,1.34,18.45,6.88,42.7,6.88,31.1,0,44.73-7.51,44.73-7.51s0-.35,0-1c-1.68-.16-3.78-2.22-8.67-2C232.21,294.87,216.48,296.67,200.55,289.54Z"/><path class="cls-9" d="M197.38,295.87a16.1,16.1,0,1,1,16.12,15.87A16,16,0,0,1,197.38,295.87Zm16.11-12a12,12,0,1,0,12.22,12A12.18,12.18,0,0,0,213.49,283.84Z"/><path class="cls-9" d="M211.87,279l.59-.42-.43-.38a1.32,1.32,0,0,0,.52-1.64c-.13-.48-.32-.94-.48-1.41a1.66,1.66,0,0,1,.35-1.82,1.71,1.71,0,0,1,1.86-.18,1.62,1.62,0,0,1,.58,2.15c-.16.41-.32.83-.44,1.26a1.35,1.35,0,0,0,.53,1.65l-.43.34.68.55h-3.3Z"/><path class="cls-9" d="M212,313.58l.43-.34-.68-.55h3.43l-.68.53.42.37a1.34,1.34,0,0,0-.53,1.64c.13.46.32.91.47,1.36a1.55,1.55,0,0,1-2.19,2,1.59,1.59,0,0,1-.58-2.14c.16-.42.32-.83.44-1.26A1.36,1.36,0,0,0,212,313.58Z"/><path class="cls-9" d="M199.91,307.35l.55.08,0-.55,2,2.18.17-.11-.68-.05,0,.48s-.05.06-.07.05a1.28,1.28,0,0,0-1.42.72,12.72,12.72,0,0,0-.62,1.29,1.58,1.58,0,0,1-3.1-.31,1.69,1.69,0,0,1,1.18-1.66,10.15,10.15,0,0,0,1.2-.57A1.32,1.32,0,0,0,199.91,307.35Z"/><path class="cls-9" d="M225,309.46l0-.57-.52.06,2-2.21v.67l.49,0s0,.06,0,.09a1.26,1.26,0,0,0,.68,1.38,11,11,0,0,0,1.34.64,1.58,1.58,0,1,1-2,1.92,10.88,10.88,0,0,0-.56-1.2A1.34,1.34,0,0,0,225,309.46Z"/><path class="cls-9" d="M224.34,282.81l.64.08v-.55a1.48,1.48,0,0,0,1.65-1c.26-.49.44-1,.73-1.48a1.4,1.4,0,0,1,1.66-.65,1.66,1.66,0,0,1,1.18,1.49,1.71,1.71,0,0,1-1.17,1.56c-.33.14-.66.27-1,.43a1.5,1.5,0,0,0-1,1.68l-.55,0,.06.52-2-2.21Z"/><path class="cls-9" d="M202,282.33l0,.54.65-.06-.09-.09-2.08,2.3,0-.64h-.54a1.44,1.44,0,0,0-.92-1.62c-.5-.27-1-.46-1.52-.76a1.37,1.37,0,0,1-.67-1.6,1.68,1.68,0,0,1,1.46-1.23,1.72,1.72,0,0,1,1.63,1.23,11,11,0,0,0,.61,1.24A1.33,1.33,0,0,0,202,282.33Z"/><path class="cls-9" d="M231.16,297.4c-.15-.38-.32-.6-.65-.15V294.6l.36.22.31-.4a1.39,1.39,0,0,0,1.74.52c.46-.14.9-.33,1.36-.48a1.57,1.57,0,0,1,1.8.4,1.59,1.59,0,0,1-2,2.41,12.67,12.67,0,0,0-1.35-.47A1.33,1.33,0,0,0,231.16,297.4Z"/><path class="cls-9" d="M195.81,294.38c.17.34.31.66.65.13v2.66l-.36-.22-.31.4a1.33,1.33,0,0,0-1.65-.53c-.47.13-.93.32-1.4.48a1.55,1.55,0,0,1-2-2.2,1.6,1.6,0,0,1,2.15-.59c.42.16.86.33,1.3.45A1.34,1.34,0,0,0,195.81,294.38Z"/><path class="cls-9" d="M208.77,294.79a1.27,1.27,0,0,0,.62-1.22c0-.13-.11-.31-.21-.33a2.13,2.13,0,0,1-1.45-1.09c-.2-.36-.41-.71-.59-1.08-.43-.88-.42-.88-1.41-.64v-1h-1.14c.06-.2.06-.41.17-.52.6-.61,1.22-1.2,1.84-1.78.09-.08.26-.07.38-.1a2.6,2.6,0,0,1,.05.39c0,.22,0,.44,0,.69h1c-.2,1-.19,1,.71,1.43a5.9,5.9,0,0,1,1.24.72,6.54,6.54,0,0,1,.89,1.12c.08.11.09.38.14.38a2,2,0,0,0,.86-.11c.53-.26.63-.53.32-1.08a1.91,1.91,0,0,1-.09-1.48,10.5,10.5,0,0,1,.42-1.38c.21-.52.11-.86-.44-1a1.73,1.73,0,0,1-.25-.16l.8-.75-.94-.75a9,9,0,0,1,3.59,0l-.86.82.77.73-.45.24a.52.52,0,0,0-.3.74c.17.47.28,1,.44,1.43a2.76,2.76,0,0,1-.08,1.88c0,.15-.18.38-.14.43a1.82,1.82,0,0,0,.72.49c.57.16.72.11.92-.52a2.07,2.07,0,0,1,1-1.15,8.4,8.4,0,0,1,.93-.51c.91-.46.92-.45.71-1.44h1v-.74c0-.11,0-.23,0-.34s.27,0,.34.07c.66.62,1.32,1.24,2,1.89.09.08.06.27.09.45l-1.12-.06,0,1c-.1,0-.13.08-.16.07-.87-.22-.86-.22-1.28.61a5.25,5.25,0,0,1-.65,1.16,8.68,8.68,0,0,1-1.2,1.05c-.12.09-.42.12-.42.17a3,3,0,0,0,.16.9c.21.54.65.52,1,.27a1.72,1.72,0,0,1,1.43-.11c.43.1.86.24,1.28.37.86.27.86.27,1.48-.73l.53.92.74-.8c.4,0,.38.32.39.6.1,2.27.07,2.5-.38,2.72l-.71-.75-.7.77a2.38,2.38,0,0,1-.2-.34.62.62,0,0,0-.94-.37c-.39.15-.81.26-1.21.39a2.42,2.42,0,0,1-2.29-.31l-.25.3c-.61.65-.57,1.19.21,1.45a2.1,2.1,0,0,1,1.11,1c.21.35.4.71.58,1.08.41.83.41.83,1.36.56v1c.27,0,.52,0,.77,0s.28,0,.32.09a.35.35,0,0,1,0,.33c-.66.65-1.31,1.3-2,1.92-.22.2-.4.1-.37-.23s0-.51.07-.79h-1.07a4.13,4.13,0,0,1,.13-.41.57.57,0,0,0-.34-.82c-.55-.27-1.08-.56-1.6-.86a1.92,1.92,0,0,1-1-1.35c-.06-.28-.72-.34-1.07-.09a7.26,7.26,0,0,0-.55.49,2.62,2.62,0,0,1,.19,2.71c-.05.15-.1.3-.14.46-.3.93-.3.93.58,1.46l-.76.72.84.79a8.69,8.69,0,0,1-3.52,0l.85-.82-.77-.74.41-.21a.55.55,0,0,0,.33-.82c-.15-.39-.25-.81-.39-1.22a2.49,2.49,0,0,1,.29-2.37,3.11,3.11,0,0,0-.53-.46,3.85,3.85,0,0,0-.69-.16c-.42-.11-.32.21-.39.43a2.47,2.47,0,0,1-1.26,1.34c-.33.18-.65.36-1,.53-.81.4-.81.4-.52,1.34H207c0,.28,0,.55.05.81s-.15.43-.36.24c-.69-.62-1.35-1.26-2-1.92-.08-.08-.05-.27-.07-.41h1.1l0-.94c.11,0,.15-.06.18,0,.84.24.83.24,1.22-.53a7.83,7.83,0,0,1,.79-1.38,6.57,6.57,0,0,1,1.11-.91c.13-.09.42-.13.41-.18a3,3,0,0,0-.17-.9,2.54,2.54,0,0,0-.45-.53c-1.07.86-2.16.37-3.25,0-.89-.28-.89-.28-1.42.7l-.72-.87-.78.83a1.77,1.77,0,0,1-.25-.57c-.16-1.8-.06-2.57.34-2.83l.72.78.73-.78a4.16,4.16,0,0,1,.21.4.57.57,0,0,0,.82.34c.39-.16.81-.26,1.22-.39A2.5,2.5,0,0,1,208.77,294.79Zm4.67-2.35a3.45,3.45,0,0,0-3.37,3.42,3.39,3.39,0,0,0,3.4,3.44,3.47,3.47,0,0,0,3.47-3.34A3.61,3.61,0,0,0,213.44,292.44Z"/><path class="cls-9" d="M213.52,293.51a2.37,2.37,0,0,1-.05,4.74,2.37,2.37,0,1,1,.05-4.74Zm1.28,2.38a1.32,1.32,0,1,0-1.32,1.31A1.28,1.28,0,0,0,214.8,295.89Z"/><path class="cls-15" d="M170.54,291.2v7.55a115.05,115.05,0,0,0,44.71,9.58A129.17,129.17,0,0,0,260,300v-7.92s-17.69,4.71-44.68,4.71S170.54,291.2,170.54,291.2Z"/><rect class="cls-6" x="196.78" y="305.82" width="33.43" height="13.01"/><path class="cls-16" d="M272.21,289.07c-4.08-1.12-9.59,2.57-21.71,7.52a96.48,96.48,0,0,1-35.25,6.67c-13.26,0-28.52-3.5-38-8.23-11-5.48-14.81-7.08-18.9-6-2.77.76-.59,7.47,6.87,12s32.88,8.59,50,8.59c17,0,42.6-4,50-8.59S275,289.83,272.21,289.07Z"/></g></g></svg>