<svg xmlns="http://www.w3.org/2000/svg" width="64" height="64" fill="none" xmlns:v="https://vecta.io/nano"><path d="M30.003 1.454L8.015 12.041c-.618.297-1.161.73-1.589 1.267a4.56 4.56 0 0 0-.881 1.831L.114 38.933a4.56 4.56 0 0 0 .002 2.039 4.56 4.56 0 0 0 .891 1.834l15.214 19.081c.428.537.972.97 1.591 1.268s1.297.452 1.984.451h24.404c.687.001 1.365-.153 1.984-.451s1.163-.731 1.591-1.268l15.217-19.08a4.56 4.56 0 0 0 .894-3.873l-5.473-23.793c-.152-.669-.453-1.295-.881-1.831s-.971-.969-1.589-1.267L33.965 1.454a4.55 4.55 0 0 0-3.962 0z" fill="#4cba6f"/><path d="M13.767 37.163l2.681-3.98 3.575 3.575 4.766-2.383 3.575 3.575 4.766-7.167 4.766 3.575 3.575-1.192 2.383 3.575 3.575-3.575 2.383 4.766-2.383 8.359-13.137 5.973-13.14-2.383-7.087-7.138-.298-5.58z" fill="#c7c5c5"/><path d="M46.265 35.027l.051-1.037c-.001-3.385-1.201-6.659-3.387-9.243s-5.216-4.311-8.553-4.874c1.421-.298 2.428-.596 1.192-1.224-1.332-.667-2.666.152-3.575 1.007-.918-.855-2.249-1.674-3.575-1.007-1.236.617-.232.915 1.192 1.224-3.337.563-6.367 2.29-8.553 4.874s-3.386 5.859-3.387 9.243c0 .349.027.691.054 1.037-.578 7.883-7.528 19.453 14.281 19.453s14.856-11.57 14.281-19.453" fill="#ffcb4e"/><path d="M35.568 38.638c0 1.978-1.606 2.383-3.575 2.383s-3.575-.408-3.575-2.383c0-.951.378-1.862 1.05-2.534s1.584-1.05 2.534-1.05 1.862.377 2.534 1.05 1.05 1.584 1.05 2.534" fill="#ca4627"/><path d="M26.011 33.523a1.79 1.79 0 0 1-.301.993 1.78 1.78 0 0 1-.802.658 1.79 1.79 0 0 1-1.033.102c-.347-.069-.665-.239-.915-.489s-.42-.568-.489-.915a1.78 1.78 0 0 1 .102-1.033 1.79 1.79 0 0 1 1.651-1.103c.474 0 .929.188 1.264.524a1.79 1.79 0 0 1 .523 1.264zm15.527 0a1.79 1.79 0 0 1-2.136 1.753 1.79 1.79 0 0 1-.915-.489c-.25-.25-.42-.568-.489-.915a1.79 1.79 0 0 1 .102-1.033 1.78 1.78 0 0 1 .658-.802 1.79 1.79 0 0 1 2.78 1.486z" fill="#1b1131"/><path d="M47.51 43.934l-3.575-1.192-4.766 7.168-3.575-5.973-2.383 2.383-4.766-2.383-3.575 4.766-3.575-7.167-3.575 2.383-3.992-9.262a15.86 15.86 0 0 0-.843 5.094c0 9.566 8.559 17.32 19.113 17.32s19.11-7.745 19.11-17.32c-.007-1.453-.215-2.899-.617-4.296l-2.982 8.478z" fill="#fff"/><path d="M42.297 14.183c-2.949-1.671-8.234-1.528-10.013-1.528s-7.066-.146-10.012 1.525c-3.649 2.067-3.313 11.618-3.313 11.618s4.063 1.489 13.325 1.489 13.325-1.489 13.325-1.489.337-9.548-3.313-11.615z" fill="#742916"/><path d="M38.925 13.736c-2.556-.176-4.743.709-4.886 1.975s1.814 2.437 4.367 2.613 4.746-.709 4.889-1.975-1.814-2.437-4.37-2.613z" fill="#bcabd3" style="mix-blend-mode:soft-light"/><path d="M18.516 26.603c-1.814-1.111-2.58-2.648-2.35-3.298a2.71 2.71 0 0 0-.837.095c-.825.226-.176 2.225 2.047 3.575s9.795 2.559 14.895 2.559c4.468 0 10.939-.932 13.921-2.085-3.277.971-8.815 1.704-12.78 1.704-5.085.009-12.676-1.189-14.895-2.55z" fill="#c4a582" style="mix-blend-mode:multiply"/><path d="M27.894 23.54c-4.311-1.93-5.046-8.136-1.096-10.647-1.633.208-3.277.596-4.525 1.29-3.476 1.969-3.333 10.724-3.313 11.553l.596.256c1.436.399 5.496 2.049 12.72 2.049 9.265 0 13.325-2.237 13.325-2.237v-.298c-.501-.048-1.126-.661-2.583-.596-5.693.218-10.379.754-15.124-1.37z" fill="#c3be80" style="mix-blend-mode:multiply"/><g fill="#fff"><path d="M26.949 25.426c-.014-.951.256-1.885.774-2.682s1.262-1.423 2.137-1.797 1.841-.479 2.776-.302 1.796.628 2.473 1.295 1.142 1.521 1.333 2.453.101 1.9-.259 2.78-.974 1.634-1.763 2.165-1.719.815-2.67.816c-1.264.009-2.479-.483-3.38-1.37s-1.412-2.094-1.422-3.358zm4.799-3.575c-.704.013-1.389.233-1.968.634s-1.027.963-1.288 1.617-.322 1.371-.177 2.06.491 1.32.993 1.813 1.139.827 1.831.96 1.407.058 2.056-.214 1.204-.731 1.594-1.317.598-1.275.598-1.979a3.63 3.63 0 0 0-3.64-3.584v.009z"/><path d="M31.266 20.4l.176-.125-.128-.113a.39.39 0 0 0 .168-.216c.028-.09.024-.187-.013-.273-.039-.143-.095-.28-.143-.42-.038-.09-.049-.19-.031-.287a.49.49 0 0 1 .135-.255.51.51 0 0 1 .554-.054c.105.064.182.167.214.286s.017.246-.041.355l-.131.375c-.036.087-.039.185-.01.274a.4.4 0 0 0 .168.217l-.128.101.202.164h-.983l-.009-.03zm.039 10.302l.128-.101-.203-.164h1.022l-.203.158.125.11a.4.4 0 0 0-.158.489c.039.137.095.271.14.405a.46.46 0 0 1-.652.596c-.106-.063-.184-.165-.216-.284s-.017-.246.043-.354l.131-.375a.4.4 0 0 0 .005-.267c-.029-.087-.086-.162-.163-.212zm-3.602-1.856l.164.024v-.164l.596.649.051-.033-.203-.015v.143s-.015.018-.021.015a.38.38 0 0 0-.423.215 3.79 3.79 0 0 0-.185.384.47.47 0 0 1-.501.344.47.47 0 0 1-.423-.436.5.5 0 0 1 .093-.306c.064-.089.154-.155.259-.188.123-.049.242-.105.358-.17.088-.035.161-.102.204-.187s.054-.183.031-.275zm7.474.628v-.17l-.155.018.596-.658v.2h.146v.027c-.016.081-.005.166.031.24s.097.134.171.171a3.29 3.29 0 0 0 .399.191.47.47 0 0 1 .185.789.47.47 0 0 1-.78-.217 3.25 3.25 0 0 0-.167-.357.4.4 0 0 0-.426-.232zm-.196-7.939l.191.024v-.164a.44.44 0 0 0 .492-.298l.217-.441a.42.42 0 0 1 .212-.186c.09-.036.19-.038.282-.008a.49.49 0 0 1 .246.167c.063.08.1.176.106.277a.51.51 0 0 1-.349.465l-.298.128a.45.45 0 0 0-.242.195.44.44 0 0 0-.056.305h-.164l.018.155-.596-.658-.059.039zm-6.656-.143v.161l.194-.018-.027-.027-.62.685v-.191h-.161a.43.43 0 0 0-.274-.483l-.453-.226c-.083-.044-.149-.116-.185-.203a.41.41 0 0 1-.015-.274.5.5 0 0 1 .435-.366.51.51 0 0 1 .486.366 3.16 3.16 0 0 0 .182.369c.04.078.105.14.184.177s.168.047.254.028zm8.687 4.49c-.045-.113-.095-.179-.194-.045v-.789l.107.066.092-.119c.053.084.135.145.23.174a.41.41 0 0 0 .288-.019l.405-.143c.091-.039.191-.049.288-.027a.47.47 0 0 1 .249.147c.072.085.112.192.113.304a.47.47 0 0 1-.389.469c-.11.02-.223.001-.319-.055a3.76 3.76 0 0 0-.402-.14.4.4 0 0 0-.266.006.39.39 0 0 0-.202.173zm-10.531-.9c.051.101.092.197.194.039v.792l-.107-.066-.092.119c-.05-.081-.126-.141-.216-.17s-.188-.025-.275.012c-.14.039-.277.095-.417.143a.46.46 0 0 1-.543-.105c-.067-.074-.108-.167-.118-.266s.013-.199.065-.284c.063-.107.165-.185.285-.218s.247-.018.356.042l.387.134a.4.4 0 0 0 .483-.173zm3.861.122a.38.38 0 0 0 .185-.363c0-.039-.033-.092-.063-.098-.091-.019-.178-.058-.252-.114s-.136-.128-.18-.211l-.176-.322c-.128-.262-.125-.262-.42-.191v-.298h-.34c.018-.06.018-.122.051-.155l.548-.53c.027-.024.078-.021.113-.03a.77.77 0 0 1 .015.116v.206h.298c-.059.298-.057.298.212.426.131.056.255.128.369.215.1.101.189.213.265.334.024.033.027.113.042.113.087.008.174-.003.256-.033.158-.077.188-.158.095-.322a.57.57 0 0 1-.027-.441 3.12 3.12 0 0 1 .125-.411c.063-.155.033-.256-.131-.298a.52.52 0 0 1-.074-.048l.238-.224-.28-.223a2.68 2.68 0 0 1 1.069 0l-.256.244.229.218-.134.071c-.022.007-.041.019-.058.034a.14.14 0 0 0-.038.055c-.008.021-.012.044-.011.066s.007.045.018.065l.131.426a.82.82 0 0 1-.024.56c0 .045-.054.113-.042.128a.55.55 0 0 0 .215.146c.17.048.214.033.274-.155a.62.62 0 0 1 .298-.343 2.66 2.66 0 0 1 .277-.152c.271-.137.274-.134.212-.429h.298v-.22-.101c0-.033.081 0 .101.021l.596.563c.027.024.018.08.027.134l-.334-.018v.298c-.03 0-.039.024-.048.021-.259-.066-.256-.066-.381.182a1.56 1.56 0 0 1-.194.346 2.59 2.59 0 0 1-.357.313c-.036.027-.125.036-.125.051.002.091.018.182.048.268.063.161.194.155.298.081a.51.51 0 0 1 .426-.033c.128.03.256.072.381.11.256.08.256.08.441-.217l.158.274.221-.238c.119 0 .113.095.116.179.03.676.021.745-.113.81l-.212-.223-.209.229a.72.72 0 0 1-.06-.101c-.007-.029-.021-.055-.04-.077s-.044-.039-.071-.05a.18.18 0 0 0-.086-.012c-.029.003-.058.013-.082.029-.116.045-.241.077-.36.116a.72.72 0 0 1-.682-.092l-.075.089c-.182.194-.17.354.063.432.143.055.261.162.331.298l.173.322c.122.247.122.247.405.167v.298h.229c.075 0 .083 0 .095.027.008.015.012.032.012.049s-.004.034-.012.049l-.596.572c-.066.06-.119.03-.11-.069s0-.152.021-.235h-.319a1.22 1.22 0 0 1 .039-.122c.012-.022.019-.047.02-.072a.17.17 0 0 0-.056-.135c-.019-.017-.041-.03-.066-.037l-.477-.256a.57.57 0 0 1-.298-.402c-.018-.083-.215-.101-.319-.027a2.16 2.16 0 0 0-.164.146.78.78 0 0 1 .057.807l-.042.137c-.089.277-.089.277.173.435l-.226.215.25.235a2.59 2.59 0 0 1-1.049 0l.253-.244-.229-.22.122-.063c.025-.006.048-.019.067-.035s.034-.038.044-.062a.16.16 0 0 0 .011-.075c-.002-.026-.01-.05-.024-.072-.045-.116-.075-.241-.116-.363a.74.74 0 0 1 .086-.706.92.92 0 0 0-.158-.137 1.14 1.14 0 0 0-.206-.048c-.125-.033-.095.063-.116.128a.74.74 0 0 1-.375.399l-.298.158c-.241.119-.241.119-.155.399h-.28a1.28 1.28 0 0 0 .015.241c.015.077-.045.128-.107.071l-.596-.572c-.024-.024-.015-.08-.021-.122h.328v-.28c.033 0 .045-.018.054 0 .25.072.247.072.363-.158a2.33 2.33 0 0 1 .235-.411 1.96 1.96 0 0 1 .331-.271c.039-.027.125-.039.122-.054a.88.88 0 0 0-.051-.268.76.76 0 0 0-.134-.158c-.319.256-.643.11-.968 0-.265-.083-.265-.083-.423.209l-.215-.259-.232.247a.53.53 0 0 1-.075-.17c-.048-.536-.018-.766.101-.843l.215.232.217-.232a1.24 1.24 0 0 1 .063.119c.007.024.02.047.037.066s.038.034.061.043a.17.17 0 0 0 .074.013c.025-.001.05-.008.072-.021.116-.048.241-.077.363-.116a.74.74 0 0 1 .353-.067c.121.007.239.043.344.106zm1.391-.7a1.03 1.03 0 0 0-1.004 1.019 1.01 1.01 0 0 0 1.012 1.025c.268 0 .525-.103.718-.289s.306-.439.316-.706a1.08 1.08 0 0 0-.312-.732c-.193-.195-.455-.308-.73-.317z"/><path d="M31.758 24.723c.187.002.366.078.497.212s.203.314.202.501-.078.366-.212.497-.314.204-.501.202c-.093-.001-.184-.02-.27-.057s-.162-.089-.227-.155c-.131-.134-.203-.314-.201-.501s.078-.366.212-.497.314-.203.502-.202zm.381.709c.001-.078-.022-.154-.065-.219s-.104-.116-.176-.146-.151-.038-.227-.024-.147.052-.202.107-.093.125-.108.201-.008.156.022.228a.39.39 0 0 0 .145.177c.065.043.141.066.219.066a.38.38 0 0 0 .281-.11.38.38 0 0 0 .113-.28z"/></g><path d="M18.954 24.035v2.249c4.204 1.833 8.733 2.803 13.319 2.854a38.48 38.48 0 0 0 13.331-2.482v-2.359s-5.27 1.403-13.31 1.403-13.34-1.665-13.34-1.665z" fill="#0d0e0e"/><path d="M36.729 28.39h-9.959v3.876h9.959V28.39z" fill="#ffcb4e"/><path d="M49.241 23.4c-1.215-.334-2.857.766-6.467 2.24a28.74 28.74 0 0 1-10.501 1.987c-3.95 0-8.496-1.043-11.32-2.452-3.277-1.633-4.412-2.109-5.63-1.787-.825.226-.176 2.225 2.047 3.575s9.795 2.559 14.895 2.559c5.064 0 12.691-1.192 14.895-2.559s2.913-3.337 2.082-3.563z" fill="#90523e"/></svg>