<svg xmlns="http://www.w3.org/2000/svg" viewBox="0 0 511 511"><defs><style>.cls-1{isolation:isolate;}.cls-2{fill:#4eb970;}.cls-3{fill:none;}.cls-4{fill:#c7c5c5;}.cls-5{fill:#ffcb4e;}.cls-6{fill:#ca4627;}.cls-7{fill:#1b1131;}.cls-8{fill:#fffafc;}.cls-9{fill:#742916;}.cls-10{fill:#bcabd3;mix-blend-mode:soft-light;}.cls-11,.cls-13{mix-blend-mode:multiply;}.cls-12{fill:#c4a582;}.cls-13{fill:#c3be80;}.cls-14{fill:#fff;}.cls-15{fill:#0d0e0e;}.cls-16{fill:#90523e;}</style></defs><title>kubeform-512x512</title><g class="cls-1"><g id="Layer_1" data-name="Layer 1"><path class="cls-2" d="M239.58,9.52,64.12,94a36.44,36.44,0,0,0-19.71,24.72L1.07,308.6a36.49,36.49,0,0,0,7,30.83L129.53,491.68A36.45,36.45,0,0,0,158,505.4H352.76a36.43,36.43,0,0,0,28.49-13.72L502.67,339.43a36.42,36.42,0,0,0,7-30.83L466.37,118.74A36.41,36.41,0,0,0,446.66,94L271.2,9.52A36.45,36.45,0,0,0,239.58,9.52Z"/><rect class="cls-3" x="89.84" y="89.83" width="331.11" height="331.11"/><g id="g12"><path id="path14" class="cls-4" d="M97.6,304l23.28-34.49,31,31,41.39-20.69,31,31,41.39-62.08,41.39,31,31-10.35,20.69,31,31.05-31,20.69,41.39-20.69,72.43L276.09,435.11,162.27,414.42l-62.09-62.09Z"/></g><g id="g24"><path id="path26" class="cls-5" d="M379.11,285.52c.21-3,.45-5.94.45-9A124.08,124.08,0,0,0,276.13,154.26c12.3-2.68,21-5.27,10.3-10.62-11.53-5.77-23.08,1.34-31,8.74h0c-7.95-7.4-19.48-14.51-31-8.74-10.71,5.35-2,7.94,10.31,10.62A124.09,124.09,0,0,0,131.23,276.55c0,3,.23,6,.45,9-5,68.31-65.22,168.54,123.71,168.54s128.7-100.23,123.72-168.54"/></g><g id="g28"><path id="path30" class="cls-6" d="M286.43,316.8c0,17.14-13.89,20.69-31,20.69s-31-3.55-31-20.69a31,31,0,0,1,62.08,0"/></g><g id="g32"><path id="path34" class="cls-7" d="M203.66,272.51A15.53,15.53,0,1,1,188.13,257a15.52,15.52,0,0,1,15.53,15.52"/></g><g id="g36"><path id="path38" class="cls-7" d="M338.17,272.51A15.52,15.52,0,1,1,322.65,257a15.52,15.52,0,0,1,15.52,15.52"/></g><g id="g40"><path id="path42" class="cls-8" d="M389.91,362.68l-31.05-10.35-41.38,62.09-31.05-51.74-20.69,20.69-41.39-20.69-31,41.39-31-62.09-31.05,20.7L97.14,282.33a137.19,137.19,0,0,0-7.3,44.13c0,82.87,74.12,150,165.55,150S421,409.33,421,326.46a136.49,136.49,0,0,0-5.35-37.22Z"/></g><path class="cls-9" d="M344.75,105C319.23,90.49,273.4,91.75,258,91.75s-61.22-1.26-86.74,13.2c-31.61,17.92-28.69,100.7-28.69,100.7S177.76,218.59,258,218.59s115.43-12.94,115.43-12.94S376.37,122.87,344.75,105Z"/><path class="cls-10" d="M315.53,101.1c-22.14-1.52-41.09,6.13-42.33,17.1s15.71,21.11,37.85,22.63,41.09-6.12,42.33-17.09S337.67,102.63,315.53,101.1Z"/><g class="cls-11"><path class="cls-12" d="M138.73,212.56C123,202.93,116.38,189.61,118.38,184a23.8,23.8,0,0,0-7.26.83c-7.16,2-1.51,19.29,17.72,31.08S213.69,238.05,258,238.05c38.73,0,94.75-8.09,120.58-18.1-28.44,8.42-76.36,14.77-110.69,14.77C223.58,234.72,158,224.35,138.73,212.56Z"/></g><path class="cls-13" d="M220,186c-37.33-16.72-43.71-70.47-9.5-92.21C196.33,95.59,182,98.87,171.27,105c-30.13,17.08-28.89,93-28.7,100.11q2.51,1.08,5.24,2.19C160.26,210.72,195.42,225,258,225c80.25,0,115.43-19.37,115.43-19.37s0-.91.05-2.48c-4.34-.43-9.76-5.73-22.39-5.25C301.67,199.79,261.08,204.42,220,186Z"/><path class="cls-14" d="M211.79,202.35c0-22.46,18.62-40.82,41.56-40.87,22.76-.06,41.54,18.37,41.54,40.75a41.32,41.32,0,0,1-41.49,41.09C230.45,243.33,211.84,225,211.79,202.35Zm41.57-31c-17.35,0-31.56,14-31.56,31.07s14.21,31.08,31.55,31.09,31.54-14,31.55-31.08S270.71,171.33,253.36,171.32Z"/><path class="cls-14" d="M249.19,158.77l1.5-1.09-1.1-1a3.46,3.46,0,0,0,1.35-4.25c-.34-1.23-.84-2.41-1.25-3.63a4.28,4.28,0,0,1,.92-4.7,4.34,4.34,0,0,1,4.78-.45c1.85.94,2.44,3.15,1.51,5.54-.42,1.07-.82,2.14-1.14,3.24a3.46,3.46,0,0,0,1.37,4.25l-1.12.89,1.77,1.43h-8.51Z"/><path class="cls-14" d="M249.56,248.07l1.11-.89-1.75-1.43h8.86L256,247.14l1.07,1c-1.62,1-1.81,2.57-1.36,4.24.33,1.19.81,2.33,1.22,3.5a4,4,0,0,1-5.67,5.27c-1.85-.94-2.43-3.16-1.49-5.54.41-1.06.82-2.14,1.13-3.23A3.47,3.47,0,0,0,249.56,248.07Z"/><path class="cls-14" d="M218.33,232l1.41.2-.08-1.42,5.25,5.62.44-.3-1.73-.12.07,1.26c-.05,0-.13.13-.19.12a3.32,3.32,0,0,0-3.66,1.85,30.15,30.15,0,0,0-1.6,3.34c-.94,2.06-2.58,3.18-4.34,2.94a4.28,4.28,0,0,1-3.67-3.75c-.21-1.72,1-3.37,3.05-4.28a27.46,27.46,0,0,0,3.1-1.46A3.46,3.46,0,0,0,218.33,232Z"/><path class="cls-14" d="M283,237.42l.13-1.45-1.36.14,5.21-5.7v1.73l1.26-.08c0,.08.12.16.1.23a3.21,3.21,0,0,0,1.76,3.56,29.67,29.67,0,0,0,3.45,1.67c2,.93,3.16,2.58,2.91,4.35a4.26,4.26,0,0,1-3.75,3.65c-1.71.21-3.38-1-4.27-3.05a27.22,27.22,0,0,0-1.46-3.09A3.44,3.44,0,0,0,283,237.42Z"/><path class="cls-14" d="M281.37,168.65l1.65.21v-1.43c2.17.43,3.35-.83,4.25-2.5.67-1.25,1.14-2.61,1.9-3.8a3.58,3.58,0,0,1,4.27-1.7,4.33,4.33,0,0,1,3.05,3.86c.1,1.6-1.09,3.18-3,4-.84.37-1.7.69-2.51,1.11-1.74.9-3,2.11-2.61,4.34l-1.42-.12.15,1.35-5.25-5.7Z"/><path class="cls-14" d="M223.71,167.43l-.11,1.39,1.67-.16-.23-.24-5.37,6,.1-1.65h-1.4c.43-2.1-.77-3.3-2.39-4.18-1.28-.7-2.69-1.19-3.92-2a3.54,3.54,0,0,1-1.71-4.14,4.32,4.32,0,0,1,3.76-3.17c1.71-.16,3.31,1.06,4.21,3.16a25,25,0,0,0,1.56,3.21C220.83,167.16,221.79,167.56,223.71,167.43Z"/><path class="cls-14" d="M299,206.31c-.39-1-.81-1.55-1.68-.4v-6.83l.93.57.81-1c1.13,1.71,2.75,1.84,4.5,1.32,1.18-.35,2.32-.85,3.49-1.23,1.88-.61,3.74-.22,4.66,1a4.19,4.19,0,0,1,.35,4.78c-.95,1.77-3.13,2.33-5.45,1.44a34.41,34.41,0,0,0-3.5-1.2A3.42,3.42,0,0,0,299,206.31Z"/><path class="cls-14" d="M207.73,198.52c.44.87.8,1.7,1.67.33v6.87l-.92-.57-.8,1a3.46,3.46,0,0,0-4.25-1.38c-1.23.35-2.42.84-3.63,1.25a4.32,4.32,0,0,1-4.71-.91,4.36,4.36,0,0,1-.46-4.77c1-1.87,3.14-2.45,5.53-1.53a33.56,33.56,0,0,0,3.37,1.17A3.45,3.45,0,0,0,207.73,198.52Z"/><path class="cls-14" d="M241.19,199.58a3.35,3.35,0,0,0,1.6-3.17c0-.31-.3-.79-.54-.85a5.4,5.4,0,0,1-3.76-2.8c-.51-.93-1-1.84-1.51-2.78-1.11-2.28-1.1-2.28-3.63-1.67v-2.52h-3c.16-.52.17-1.07.44-1.35q2.32-2.34,4.76-4.57c.22-.21.65-.19,1-.28a8.69,8.69,0,0,1,.12,1c0,.58-.05,1.15-.08,1.79h2.62c-.53,2.55-.51,2.53,1.81,3.69a15.46,15.46,0,0,1,3.21,1.86,16.72,16.72,0,0,1,2.3,2.88c.2.28.24,1,.35,1a5.51,5.51,0,0,0,2.24-.29c1.35-.67,1.62-1.35.82-2.77a4.87,4.87,0,0,1-.23-3.84,27.51,27.51,0,0,1,1.07-3.56c.54-1.34.29-2.21-1.12-2.68a4.38,4.38,0,0,1-.65-.42l2.06-1.92-2.42-1.94a23,23,0,0,1,9.27-.1l-2.24,2.1,2,1.89c-.54.29-.85.47-1.17.63a1.35,1.35,0,0,0-.78,1.91c.44,1.21.73,2.47,1.16,3.68a7.34,7.34,0,0,1-.21,4.87c-.12.38-.48,1-.37,1.09a4.88,4.88,0,0,0,1.85,1.27c1.47.4,1.86.28,2.38-1.35a5.38,5.38,0,0,1,2.68-3c.77-.48,1.59-.91,2.41-1.32,2.36-1.16,2.36-1.15,1.82-3.7H270c0-.61,0-1.26,0-1.9,0-.3.08-.59.12-.89.3.05.69,0,.88.18,1.7,1.59,3.39,3.21,5,4.87.21.21.14.71.22,1.16l-2.89-.15.14,2.46c-.26.11-.36.2-.42.18-2.25-.58-2.23-.58-3.3,1.57a14.3,14.3,0,0,1-1.68,3,23,23,0,0,1-3.1,2.71c-.3.24-1.09.31-1.08.43a7.38,7.38,0,0,0,.41,2.34c.54,1.38,1.69,1.33,2.7.68a4.46,4.46,0,0,1,3.7-.27c1.12.26,2.21.61,3.31.95,2.21.7,2.2.71,3.81-1.88l1.36,2.37,1.91-2.06c1,0,1,.81,1,1.55.26,5.85.18,6.45-1,7l-1.84-1.94-1.81,2a6.36,6.36,0,0,1-.51-.86,1.59,1.59,0,0,0-2.41-1c-1,.4-2.1.67-3.15,1a6.23,6.23,0,0,1-5.9-.79c-.25.29-.44.53-.65.76-1.56,1.68-1.45,3.08.54,3.75a5.31,5.31,0,0,1,2.87,2.59c.55.89,1,1.83,1.51,2.78,1.05,2.13,1,2.14,3.5,1.44v2.69c.7,0,1.35-.11,2-.12.28,0,.7.06.8.24a.88.88,0,0,1-.07.86c-1.69,1.68-3.38,3.36-5.15,4.95-.56.5-1,.26-1-.6.06-.66.11-1.32.17-2h-2.75c.15-.47.21-.77.33-1.06a1.47,1.47,0,0,0-.89-2.11c-1.39-.68-2.76-1.44-4.12-2.2a5,5,0,0,1-2.47-3.5c-.16-.73-1.86-.88-2.76-.23a18,18,0,0,0-1.43,1.26c1.8,2.2,1.33,4.59.5,7-.13.39-.25.79-.37,1.19-.76,2.39-.76,2.39,1.49,3.78l-1.94,1.85,2.17,2a22.44,22.44,0,0,1-9.09.05l2.2-2.09-2-1.92c.52-.27.79-.42,1.07-.54a1.43,1.43,0,0,0,.85-2.11c-.39-1-.65-2.11-1-3.15a6.42,6.42,0,0,1,.73-6.13,7.19,7.19,0,0,0-1.36-1.17,10.39,10.39,0,0,0-1.79-.43c-1.09-.28-.81.54-1,1.11a6.35,6.35,0,0,1-3.24,3.48c-.85.45-1.69.92-2.55,1.35-2.09,1-2.1,1-1.35,3.45h-2.71c0,.73.06,1.42.14,2.11.1.88-.38,1.1-.94.61-1.77-1.59-3.47-3.26-5.15-4.95-.21-.21-.13-.7-.18-1.07h2.84l-.11-2.42c.29-.08.39-.15.46-.13,2.17.63,2.15.62,3.15-1.35a19.07,19.07,0,0,1,2-3.58,15.27,15.27,0,0,1,2.87-2.34c.32-.23,1.07-.34,1.06-.47a8,8,0,0,0-.46-2.33c-.18-.47-.68-.82-1.16-1.35-2.75,2.21-5.57.94-8.39,0-2.29-.72-2.29-.73-3.66,1.81l-1.84-2.26-2,2.14a4.87,4.87,0,0,1-.65-1.47c-.4-4.65-.15-6.63.9-7.29l1.85,2,1.87-2c.27.49.44.76.57,1a1.43,1.43,0,0,0,2.09.89c1-.4,2.1-.68,3.15-1C238.46,197.93,238.94,198.65,241.19,199.58Zm12.05-6.08a8.91,8.91,0,0,0-8.7,8.84,8.79,8.79,0,0,0,8.77,8.88,9,9,0,0,0,8.94-8.62A9.29,9.29,0,0,0,253.24,193.5Z"/><path class="cls-14" d="M253.44,196.28a6.11,6.11,0,0,1-.13,12.22,6.11,6.11,0,1,1,.13-12.22Zm3.3,6.13a3.4,3.4,0,1,0-3.42,3.37A3.32,3.32,0,0,0,256.74,202.41Z"/><path class="cls-15" d="M142.51,190.3v19.48s51.74,24.73,115.39,24.73S373.3,213,373.3,213V192.53S327.65,204.67,258,204.67,142.51,190.3,142.51,190.3Z"/><rect class="cls-5" x="210.24" y="228.03" width="86.27" height="33.58"/><path class="cls-16" d="M404.9,184.81c-10.54-2.88-24.76,6.63-56,19.4-23.94,9.79-56.75,17.21-91,17.21s-73.6-9-98-21.22c-28.32-14.15-38.22-18.27-48.76-15.39-7.16,2-1.51,19.29,17.72,31.08S213.69,238.05,258,238.05c43.86,0,109.93-10.37,129.17-22.16S412.07,186.77,404.9,184.81Z"/></g></g></svg>