<svg xmlns="http://www.w3.org/2000/svg" xmlns:xlink="http://www.w3.org/1999/xlink" width="64" height="64" fill="none" xmlns:v="https://vecta.io/nano"><path d="M30.045 1.333L13.889 9.113a3.35 3.35 0 0 0-1.168.931c-.314.394-.535.854-.647 1.346l-3.99 17.483a3.35 3.35 0 0 0 .657 2.845l11.179 14.02c.315.395.714.713 1.169.932s.953.332 1.458.331h17.931c.505.001 1.003-.112 1.458-.331s.854-.537 1.169-.932l11.181-14.02a3.35 3.35 0 0 0 .657-2.845L50.92 11.389c-.112-.491-.333-.951-.647-1.345s-.713-.712-1.167-.931l-16.15-7.779C32.502 1.114 32.005 1 31.501 1s-1.002.114-1.456.333h0z" fill="#4cba6f"/><path d="M18.116 27.571l1.97-2.924 2.627 2.627 3.502-1.751 2.627 2.627 3.502-5.267 3.502 2.627 2.627-.876 1.751 2.627 2.627-2.627 1.751 3.502-1.751 6.142-9.653 4.389-9.655-1.751-5.207-5.245-.219-4.1z" fill="#c7c5c5"/><path d="M41.994 26.002l.037-.762c-.001-2.487-.883-4.893-2.489-6.792s-3.832-3.168-6.285-3.581c1.044-.219 1.784-.438.876-.9-.978-.49-1.959.112-2.627.74-.674-.628-1.653-1.23-2.627-.74-.908.453-.171.672.875.9-2.452.414-4.679 1.683-6.285 3.581s-2.487 4.305-2.488 6.792c0 .256.02.508.039.762-.425 5.792-5.531 14.293 10.494 14.293s10.916-8.502 10.493-14.293" fill="#ffcb4e"/><path d="M34.134 28.655c0 1.453-1.18 1.751-2.627 1.751s-2.627-.3-2.627-1.751c0-.698.277-1.368.771-1.862s1.164-.771 1.862-.771 1.368.277 1.862.771.771 1.164.771 1.862" fill="#ca4627"/><g fill="#1b1131"><use xlink:href="#B"/><use xlink:href="#B" x="11.409"/></g><path d="M42.909 32.547l-2.627-.876-3.502 5.267-2.627-4.389-1.751 1.751-3.502-1.751-2.627 3.502-2.627-5.266-2.627 1.751-2.933-6.805a11.65 11.65 0 0 0-.619 3.743c0 7.029 6.289 12.726 14.044 12.726s14.042-5.691 14.042-12.726c-.005-1.068-.158-2.13-.453-3.156l-2.191 6.23z" fill="#fff"/><path d="M39.079 10.687c-2.167-1.228-6.05-1.123-7.357-1.123s-5.192-.107-7.357 1.121c-2.681 1.519-2.434 8.537-2.434 8.537s2.986 1.094 9.791 1.094 9.791-1.094 9.791-1.094.247-7.015-2.434-8.534z" fill="#742916"/><path d="M36.601 10.358c-1.878-.129-3.485.521-3.59 1.451s1.333 1.79 3.209 1.92 3.487-.521 3.592-1.451-1.333-1.79-3.211-1.92z" fill="#bcabd3" style="mix-blend-mode:soft-light"/><path d="M21.605 19.812c-1.333-.817-1.896-1.946-1.727-2.423a1.99 1.99 0 0 0-.615.07c-.606.166-.129 1.635 1.504 2.627s7.197 1.88 10.944 1.88c3.283 0 8.038-.685 10.229-1.532-2.408.714-6.477 1.252-9.39 1.252-3.736.006-9.314-.873-10.944-1.874z" fill="#c4a582" style="mix-blend-mode:multiply"/><path d="M28.495 17.562c-3.167-1.418-3.708-5.978-.805-7.823-1.2.153-2.408.438-3.325.948-2.554 1.447-2.449 7.88-2.434 8.488l.438.188c1.055.293 4.038 1.506 9.346 1.506 6.808 0 9.791-1.644 9.791-1.644v-.219c-.368-.035-.827-.486-1.898-.438-4.183.16-7.626.554-11.113-1.007z" fill="#c3be80" style="mix-blend-mode:multiply"/><g fill="#fff"><path d="M27.802 18.948c-.01-.699.188-1.385.569-1.971s.928-1.046 1.57-1.32 1.353-.352 2.039-.222 1.319.461 1.817.951.839 1.118.98 1.802.075 1.396-.19 2.043-.716 1.201-1.296 1.591-1.263.599-1.962.6a3.5 3.5 0 0 1-3.529-3.474h0zm3.526-2.627c-.517.01-1.02.172-1.446.466s-.755.708-.946 1.189-.237 1.007-.13 1.514.361.97.73 1.332.837.608 1.345.705 1.034.043 1.511-.157a2.63 2.63 0 0 0 1.171-.968c.286-.431.439-.937.439-1.454-.009-.703-.294-1.374-.795-1.867s-1.176-.768-1.879-.766v.006z"/><path d="M30.973 15.255l.129-.092-.094-.083a.29.29 0 0 0 .114-.359c-.029-.105-.07-.206-.105-.309-.028-.067-.036-.14-.022-.211s.048-.136.099-.187a.38.38 0 0 1 .198-.08.37.37 0 0 1 .209.041c.077.047.134.123.157.21a.36.36 0 0 1-.03.261l-.096.276c-.026.064-.029.136-.008.202a.29.29 0 0 0 .124.159l-.094.074.149.12h-.722l-.007-.022zm.029 7.569l.094-.075-.149-.12h.751l-.149.116.092.081c-.058.037-.102.093-.123.158s-.019.137.007.201c.029.101.07.199.103.298a.34.34 0 0 1 .027.211c-.014.071-.05.136-.104.185a.34.34 0 0 1-.402.041.35.35 0 0 1-.159-.208c-.024-.087-.012-.181.032-.26l.096-.276c.023-.063.025-.133.004-.197s-.063-.119-.12-.156h0zm-2.647-1.364l.12.017v-.12l.438.477.037-.024-.149-.011v.105a.4.4 0 0 0-.198.036.28.28 0 0 0-.128.133c-.05.091-.096.186-.136.282-.022.079-.07.147-.138.194s-.149.067-.23.059a.35.35 0 0 1-.214-.103c-.057-.058-.091-.136-.097-.217a.37.37 0 0 1 .258-.363 2.34 2.34 0 0 0 .263-.125.29.29 0 0 0 .173-.339zm5.492.462v-.125l-.114.013.438-.484v.147h.107c-.012.079-.004.142.023.196a.28.28 0 0 0 .126.126 2.46 2.46 0 0 0 .293.14.35.35 0 0 1 .15.095c.041.044.069.098.083.156s.012.12-.005.177-.049.11-.092.151-.097.071-.155.086-.119.014-.177-.002-.11-.047-.153-.089a.34.34 0 0 1-.089-.153 2.38 2.38 0 0 0-.123-.263.29.29 0 0 0-.127-.138.3.3 0 0 0-.186-.032zm-.144-5.833l.14.018v-.12c.076.013.155-.002.221-.042s.116-.103.14-.176l.16-.324a.31.31 0 0 1 .156-.136c.066-.026.14-.028.207-.006s.134.064.181.122a.36.36 0 0 1 .078.204c-.003.076-.029.15-.075.211s-.109.107-.181.131l-.219.094a.33.33 0 0 0-.219.368h-.12l.013.114-.438-.484-.044.029z"/><path d="M28.813 15.983v.118l.142-.013-.02-.02-.455.503v-.14h-.118c.014-.073.001-.149-.036-.214s-.096-.115-.166-.14l-.333-.166a.3.3 0 0 1-.147-.35.37.37 0 0 1 .32-.269c.08.001.158.027.223.076s.111.116.134.193c.039.093.083.184.134.271a.29.29 0 0 0 .322.151h0zm6.383 3.299c-.033-.083-.07-.131-.142-.033v-.58l.079.048.068-.088a.3.3 0 0 0 .169.128c.07.021.145.016.212-.014l.298-.105a.34.34 0 0 1 .211-.02c.07.016.135.053.183.108a.35.35 0 0 1 .083.223c.001.081-.028.161-.08.224a.35.35 0 0 1-.44.08 2.76 2.76 0 0 0-.295-.103.29.29 0 0 0-.344.131h0zm-7.739-.661c.037.074.068.145.142.029v.582l-.079-.048-.068.087a.29.29 0 0 0-.361-.116c-.103.029-.204.07-.306.105a.34.34 0 0 1-.438-.481.35.35 0 0 1 .471-.129l.284.099c.065.024.136.024.2.001s.119-.069.154-.128zm2.838.09c.046-.027.083-.066.107-.114s.034-.101.029-.153c0-.028-.024-.068-.046-.072a.47.47 0 0 1-.185-.084.46.46 0 0 1-.132-.155l-.129-.236c-.094-.193-.092-.193-.309-.14v-.219h-.25c.013-.044.013-.09.037-.114l.403-.39c.02-.017.057-.015.083-.022a.57.57 0 0 1 .011.085v.151h.219c-.044.219-.042.219.155.313a1.29 1.29 0 0 1 .271.158 1.43 1.43 0 0 1 .195.245c.017.024.02.083.031.083a.43.43 0 0 0 .188-.024c.116-.057.138-.116.07-.236a.42.42 0 0 1-.02-.324 2.29 2.29 0 0 1 .092-.302c.046-.114.024-.188-.096-.219a.38.38 0 0 1-.055-.035l.175-.164-.206-.164a1.97 1.97 0 0 1 .786 0l-.188.18.168.16-.098.053c-.016.005-.03.014-.043.025s-.022.025-.028.041-.009.032-.008.049.005.033.013.048l.096.313a.6.6 0 0 1-.018.412c0 .033-.039.083-.031.094a.4.4 0 0 0 .158.107c.125.035.158.024.201-.114a.45.45 0 0 1 .219-.252 1.85 1.85 0 0 1 .203-.112c.199-.101.201-.098.155-.315h.219v-.162-.074c0-.024.059 0 .075.015l.438.414c.02.017.013.059.02.099l-.245-.013v.219c-.022 0-.029.017-.035.015-.191-.048-.188-.048-.28.133a1.15 1.15 0 0 1-.142.254 1.86 1.86 0 0 1-.263.23c-.026.02-.092.026-.092.037a.66.66 0 0 0 .035.197c.046.118.142.114.219.059.047-.026.1-.042.154-.046s.108.003.159.022c.094.022.188.053.28.081.188.059.188.059.324-.16l.116.201.162-.175c.088 0 .083.07.085.131.022.497.015.547-.083.595l-.155-.164-.153.168a.52.52 0 0 1-.044-.074c-.005-.021-.015-.04-.03-.057s-.032-.029-.052-.037-.042-.011-.063-.009-.042.01-.06.021c-.085.033-.177.057-.265.085a.53.53 0 0 1-.501-.068l-.055.066c-.133.142-.125.261.046.317a.46.46 0 0 1 .243.219l.127.236c.09.182.09.182.298.123v.219h.169c.055 0 .061 0 .07.02.006.011.009.023.009.036s-.003.025-.009.036l-.438.42c-.048.044-.087.022-.081-.05s0-.112.015-.173h-.234c.008-.03.017-.06.029-.09a.12.12 0 0 0 .015-.053c.001-.019-.002-.037-.009-.054a.12.12 0 0 0-.032-.045c-.014-.012-.03-.022-.048-.027l-.35-.188a.42.42 0 0 1-.219-.296c-.013-.061-.158-.074-.234-.02a1.57 1.57 0 0 0-.12.107c.06.086.096.186.104.291s-.014.209-.062.302l-.031.101c-.066.204-.066.204.127.32l-.166.158.184.173a1.9 1.9 0 0 1-.771 0l.186-.179-.168-.162.09-.046a.12.12 0 0 0 .081-.071.12.12 0 0 0-.009-.108c-.033-.085-.055-.177-.085-.267s-.046-.177-.035-.267.045-.177.098-.251c-.035-.038-.074-.072-.116-.101a.84.84 0 0 0-.151-.035c-.092-.024-.07.046-.085.094a.54.54 0 0 1-.276.293l-.219.116c-.177.088-.177.088-.114.293h-.206c0 .061 0 .12.011.177s-.033.094-.079.052l-.438-.42c-.018-.018-.011-.059-.015-.09h.241v-.206c.024 0 .033-.013.039 0 .184.053.182.053.267-.116a1.71 1.71 0 0 1 .173-.302 1.44 1.44 0 0 1 .243-.199c.028-.02.092-.029.09-.039a.66.66 0 0 0-.037-.197.56.56 0 0 0-.099-.116c-.234.188-.473.081-.711 0-.195-.061-.195-.061-.311.153l-.158-.191-.171.182a.39.39 0 0 1-.055-.125c-.035-.394-.013-.562.075-.619l.158.171.16-.171a.92.92 0 0 1 .046.088c.005.018.014.034.027.048s.028.025.045.032.036.01.054.009.037-.006.053-.015c.085-.035.177-.057.267-.085a.54.54 0 0 1 .26-.05c.09.005.176.032.252.078h0zm1.022-.514c-.196.005-.383.085-.52.225s-.216.328-.217.524a.74.74 0 0 0 .214.532c.069.07.152.126.243.164s.189.057.287.057a.76.76 0 0 0 .76-.731.79.79 0 0 0-.766-.77z"/><path d="M31.334 18.431a.52.52 0 0 1 .513.524.52.52 0 0 1-.524.513c-.068-.001-.136-.015-.198-.042s-.119-.066-.167-.114a.52.52 0 0 1 .008-.734.52.52 0 0 1 .368-.148h0zm.28.521a.29.29 0 0 0-.177-.268.29.29 0 0 0-.316.061c-.041.04-.068.092-.08.148s-.006.114.016.167a.29.29 0 0 0 .267.179.28.28 0 0 0 .206-.081.28.28 0 0 0 .063-.094c.014-.035.021-.073.02-.111h0z"/></g><path d="M21.927 17.925v1.653c3.089 1.347 6.417 2.06 9.786 2.097 3.347-.023 6.664-.641 9.795-1.823v-1.734s-3.872 1.031-9.78 1.031-9.802-1.224-9.802-1.224z" fill="#0d0e0e"/><path d="M34.987 21.125H27.67v2.848h7.318v-2.848z" fill="#ffcb4e"/><path d="M44.18 17.459c-.893-.245-2.099.563-4.752 1.646-2.458.965-5.075 1.46-7.716 1.46-2.902 0-6.243-.766-8.318-1.801-2.408-1.2-3.242-1.55-4.137-1.313-.606.166-.129 1.635 1.504 2.627s7.197 1.88 10.944 1.88c3.721 0 9.325-.876 10.944-1.88s2.141-2.451 1.53-2.618z" fill="#90523e"/><path d="M6.662 58.808c-.084.885-.415 1.577-.99 2.075s-1.342.741-2.297.741c-.668 0-1.257-.156-1.768-.467s-.898-.762-1.175-1.339S.012 58.57 0 57.806v-.775c0-.783.14-1.472.42-2.069s.681-1.056 1.203-1.379 1.132-.484 1.82-.484c.925 0 1.67.249 2.234.747s.893 1.201.985 2.109H5.211c-.069-.596-.246-1.026-.53-1.288s-.693-.399-1.238-.399c-.633 0-1.121.23-1.463.69s-.511 1.127-.518 2.012v.735c0 .897.161 1.581.484 2.052s.802.707 1.428.707c.572 0 1.002-.127 1.29-.382s.47-.678.547-1.271h1.451zm1.401-.439c0-.604.121-1.147.363-1.63a2.61 2.61 0 0 1 1.019-1.117c.438-.262.941-.393 1.509-.393.841 0 1.522.268 2.044.804s.81 1.246.852 2.132l.006.325c0 .608-.119 1.151-.357 1.63s-.572.849-1.013 1.111-.944.393-1.52.393c-.879 0-1.584-.289-2.113-.866s-.789-1.355-.789-2.32v-.068zm1.399.12c0 .635.132 1.132.397 1.493s.633.536 1.106.536.839-.182 1.1-.547.397-.899.397-1.602c0-.623-.136-1.117-.409-1.482a1.29 1.29 0 0 0-1.1-.547c-.457 0-.82.181-1.088.541s-.403.893-.403 1.607zm7.384-3.146l.04.644c.438-.505 1.036-.758 1.796-.758.833 0 1.403.315 1.71.946.453-.631 1.09-.946 1.912-.946.687 0 1.198.188 1.532.564s.511.931.518 1.664v4.052h-1.399v-4.012c0-.391-.086-.678-.259-.861s-.459-.274-.858-.274c-.319 0-.58.086-.783.257a1.32 1.32 0 0 0-.42.661l.006 4.229h-1.399v-4.058c-.019-.726-.393-1.089-1.123-1.089-.561 0-.958.226-1.192.678v4.468h-1.399v-6.167h1.319zm10.753 0l.04.644c.438-.505 1.036-.758 1.797-.758.833 0 1.403.315 1.71.946.453-.631 1.09-.946 1.912-.946.687 0 1.198.188 1.532.564s.511.931.518 1.664v4.052h-1.399v-4.012c0-.391-.086-.678-.259-.861s-.459-.274-.858-.274c-.319 0-.58.086-.783.257a1.32 1.32 0 0 0-.42.661l.006 4.229h-1.399v-4.058c-.019-.726-.393-1.089-1.123-1.089-.561 0-.958.226-1.192.678v4.468H26.28v-6.167h1.319zm13.211 5.562c-.411.479-.994.718-1.751.718-.676 0-1.188-.196-1.537-.587s-.518-.957-.518-1.698v-3.995h1.399v3.978c0 .783.328 1.174.985 1.174.679 0 1.138-.241 1.376-.724v-4.428h1.399v6.167h-1.319l-.034-.604zm4.568-5.562l.04.712c.461-.551 1.065-.826 1.814-.826 1.297 0 1.958.735 1.981 2.206v4.075h-1.399v-3.995c0-.391-.086-.68-.259-.866s-.447-.285-.835-.285c-.564 0-.985.253-1.261.758v4.389H44.06v-6.167h1.319zm7.246 6.166h-1.399v-6.167h1.399v6.167zm-1.486-7.768c0-.213.067-.389.202-.53s.334-.211.587-.211.449.07.587.211.207.317.207.53a.71.71 0 0 1-.207.524c-.138.14-.334.205-.587.205s-.449-.068-.587-.205a.73.73 0 0 1-.202-.524zm5.259.103v1.499h1.1v1.026h-1.1v3.442c0 .236.046.407.138.513s.265.154.507.154c.161 0 .324-.019.489-.057v1.072a3.48 3.48 0 0 1-.921.131c-1.075 0-1.612-.587-1.612-1.761v-3.494h-1.025v-1.026h1.025v-1.499h1.399zm4.845 5.682l1.267-4.183H64l-2.476 7.102C61.144 63.481 60.499 64 59.589 64a2.53 2.53 0 0 1-.674-.103v-1.072l.265.017c.353 0 .618-.065.795-.194s.322-.338.426-.638l.202-.53-2.188-6.138h1.509l1.319 4.183z" fill="#00a651"/><defs ><path id="B" d="M27.112 24.897c0 .26-.077.514-.221.73s-.349.384-.589.484-.504.125-.759.075-.489-.176-.672-.359-.309-.418-.359-.673-.025-.519.075-.759.268-.445.484-.589.47-.221.73-.221c.348 0 .682.138.929.385s.385.58.385.929"/></defs></svg>