<svg xmlns="http://www.w3.org/2000/svg" viewBox="0 0 195.95 39"><defs><style>.cls-1{isolation:isolate;}.cls-2{fill:#4cba6f;}.cls-3{fill:none;}.cls-4{fill:#190f30;}.cls-5{fill:#c7c5c5;}.cls-6{fill:#ffcb4e;}.cls-7{fill:#ca4627;}.cls-8{fill:#1b1131;}.cls-9{fill:#fff;}.cls-10{fill:#742916;}.cls-11{fill:#bcabd3;mix-blend-mode:soft-light;}.cls-12,.cls-14{mix-blend-mode:multiply;}.cls-13{fill:#c4a582;}.cls-14{fill:#c3be80;}.cls-15{fill:#0d0e0e;}.cls-16{fill:#90523e;}</style></defs><title>kubrform </title><g class="cls-1"><g id="Layer_1" data-name="Layer 1"><path class="cls-2" d="M18.53.38,5,6.91A2.81,2.81,0,0,0,3.44,8.82L.09,23.5a2.8,2.8,0,0,0,.55,2.38L10,37.65a2.83,2.83,0,0,0,2.2,1.06H27.28a2.83,2.83,0,0,0,2.2-1.06l9.38-11.77a2.8,2.8,0,0,0,.55-2.38L36.06,8.82a2.84,2.84,0,0,0-1.53-1.91L21,.38A2.82,2.82,0,0,0,18.53.38Z"/><rect class="cls-3" x="6.95" y="6.59" width="25.59" height="25.59"/><path class="cls-4" d="M44.58,31.58V8.47h4.5v11l9.72-11h5L54.89,18.71l9.42,12.87H59.25l-7.2-10-3,3.1v6.91Z"/><path class="cls-4" d="M70.63,31.58a4.86,4.86,0,0,1-4-1.69,7.89,7.89,0,0,1-1.37-5V14.17h4.37v9.75q0,3.95,2.84,3.95a4.48,4.48,0,0,0,2.46-.77,5.54,5.54,0,0,0,1.94-2.33V14.17h4.37V26.24a1.58,1.58,0,0,0,.24,1,1.1,1.1,0,0,0,.8.32v3.72a10.27,10.27,0,0,1-1.09.16l-.8,0a3.22,3.22,0,0,1-1.91-.53,2.14,2.14,0,0,1-.86-1.49l-.1-1.37a7.2,7.2,0,0,1-2.93,2.64A8.81,8.81,0,0,1,70.63,31.58Z"/><path class="cls-4" d="M95.28,31.58a6.86,6.86,0,0,1-3.49-.88,6.41,6.41,0,0,1-2.41-2.41v3H85.56V7.46h4.37v9.71a6.66,6.66,0,0,1,2.4-2.43,6.84,6.84,0,0,1,3.47-.86,6.39,6.39,0,0,1,3,.72,7.6,7.6,0,0,1,2.37,1.92,8.81,8.81,0,0,1,1.53,2.84,10.83,10.83,0,0,1,.54,3.42,9.79,9.79,0,0,1-.6,3.46A8.94,8.94,0,0,1,101,29a7.9,7.9,0,0,1-2.55,1.88A7.29,7.29,0,0,1,95.28,31.58Zm-1.21-3.71a4.6,4.6,0,0,0,3.43-1.5,5.05,5.05,0,0,0,1-1.6,5.49,5.49,0,0,0,.34-2,6.22,6.22,0,0,0-.32-2,5.33,5.33,0,0,0-.93-1.67A4.7,4.7,0,0,0,96.13,18a3.87,3.87,0,0,0-1.79-.42,4,4,0,0,0-2.63,1,6.5,6.5,0,0,0-1.78,2.36V25a4,4,0,0,0,.67,1.17,5,5,0,0,0,1,.9,5.15,5.15,0,0,0,1.2.59A4.17,4.17,0,0,0,94.07,27.87Z"/><path class="cls-2" d="M120.41,28.79a9.56,9.56,0,0,1-3.13,2.14,8.42,8.42,0,0,1-6.61-.05A8.87,8.87,0,0,1,107.84,29a9.69,9.69,0,0,1-2-2.87,8.38,8.38,0,0,1-.74-3.28,8.51,8.51,0,0,1,.65-3.39,10.1,10.1,0,0,1,5.3-5.3,8.59,8.59,0,0,1,3.34-.62,8.1,8.1,0,0,1,3.23.74,9.29,9.29,0,0,1,2.78,1.92c.2.2.39.4.56.59a3.29,3.29,0,0,1,.41.52L112,26.6a5.21,5.21,0,0,0,1.61.93,4.57,4.57,0,0,0,1.66.23,4.32,4.32,0,0,0,1.59-.39,4.76,4.76,0,0,0,1.36-.95,5,5,0,0,0,1.29-2.19,3.37,3.37,0,0,0-.06-2.31L122.88,20a7.62,7.62,0,0,1,.13,4.4A9.3,9.3,0,0,1,120.41,28.79Zm-4.15-10.42a4.54,4.54,0,0,0-3.18-1.17,4.31,4.31,0,0,0-3,1.34,4.23,4.23,0,0,0-.94,1.38,4.31,4.31,0,0,0-.35,1.57,4.41,4.41,0,0,0,.27,1.62,4.47,4.47,0,0,0,.91,1.53Z"/><path class="cls-4" d="M126.65,31.58V18.74H124.4V15.41h2.25v-1a7.71,7.71,0,0,1,1.53-5,5.11,5.11,0,0,1,4.17-1.86,9.81,9.81,0,0,1,4.21,1l-.88,3.29a6,6,0,0,0-1.16-.44,4.74,4.74,0,0,0-1.22-.18c-1.52,0-2.29,1-2.29,3.07v1.2h4.18v3.33H131V31.58Z"/><path class="cls-4" d="M144.71,31.58a9.53,9.53,0,0,1-3.75-.71,8.49,8.49,0,0,1-2.82-1.94,8.65,8.65,0,0,1-1.78-2.82,9.5,9.5,0,0,1,0-6.75,8.45,8.45,0,0,1,1.78-2.82A8.35,8.35,0,0,1,141,14.6a9.36,9.36,0,0,1,3.75-.72,9.23,9.23,0,0,1,3.73.72A8.36,8.36,0,0,1,153,19.36a9.5,9.5,0,0,1,0,6.75,8.77,8.77,0,0,1-1.76,2.82,8.3,8.3,0,0,1-2.8,1.94A9.53,9.53,0,0,1,144.71,31.58Zm-4.47-8.83a6.15,6.15,0,0,0,.34,2.07,5,5,0,0,0,.95,1.61A4.11,4.11,0,0,0,143,27.49a4.27,4.27,0,0,0,3.52,0,4.3,4.3,0,0,0,1.42-1.06,5,5,0,0,0,.94-1.63,6.47,6.47,0,0,0,0-4.14,5.12,5.12,0,0,0-.94-1.63A4.44,4.44,0,0,0,146.47,18a4.15,4.15,0,0,0-1.76-.37A4,4,0,0,0,143,18a4.4,4.4,0,0,0-1.42,1.07,5.14,5.14,0,0,0-.95,1.63A6.27,6.27,0,0,0,140.24,22.75Z"/><path class="cls-4" d="M166.75,18.28a8.61,8.61,0,0,0-3.56.77,4.51,4.51,0,0,0-2.25,2.2V31.58h-4.36V14.5h4v3.65a8,8,0,0,1,1.07-1.58A8.08,8.08,0,0,1,163,15.35a6,6,0,0,1,1.45-.8,3.9,3.9,0,0,1,1.42-.28h.54a2,2,0,0,1,.34,0Z"/><path class="cls-4" d="M195.73,31.58h-4.37V22a5.06,5.06,0,0,0-.7-3,2.28,2.28,0,0,0-1.94-.95,3.67,3.67,0,0,0-2.44,1,5.44,5.44,0,0,0-1.63,2.59v9.94h-4.37V22a5.14,5.14,0,0,0-.7-3,2.3,2.3,0,0,0-1.94-.95,3.73,3.73,0,0,0-2.43,1,5.34,5.34,0,0,0-1.65,2.58v10h-4.37V14.5h3.95v3.16a6.51,6.51,0,0,1,2.59-2.56,7.83,7.83,0,0,1,3.77-.89,4.81,4.81,0,0,1,3.32,1,4.69,4.69,0,0,1,1.5,2.58A7.41,7.41,0,0,1,187,15.14a7.13,7.13,0,0,1,3.65-.93,5.08,5.08,0,0,1,2.58.58,4.27,4.27,0,0,1,1.56,1.54,6.32,6.32,0,0,1,.77,2.15,14.19,14.19,0,0,1,.21,2.44Z"/><rect class="cls-3" x="7.96" y="7.15" width="23.57" height="23.57"/><g id="g12"><path id="path14" class="cls-5" d="M8.51,22.41,10.17,20l2.21,2.21,2.95-1.47,2.21,2.21,2.95-4.42,2.94,2.21L25.64,20l1.48,2.21L29.33,20,30.8,22.9l-1.47,5.15-8.11,3.69-8.1-1.48L8.7,25.84Z"/></g><g id="g24"><path id="path26" class="cls-6" d="M28.56,21.09c0-.21,0-.43,0-.64a8.84,8.84,0,0,0-7.36-8.71c.87-.19,1.49-.37.73-.75a2,2,0,0,0-2.21.62h0A2,2,0,0,0,17.54,11c-.76.38-.14.56.73.75a8.84,8.84,0,0,0-7.36,8.71c0,.21,0,.43,0,.64-.35,4.86-4.64,12,8.81,12s9.16-7.14,8.81-12"/></g><g id="g28"><path id="path30" class="cls-7" d="M22,23.31c0,1.22-1,1.48-2.21,1.48s-2.21-.26-2.21-1.48a2.21,2.21,0,0,1,4.42,0"/></g><g id="g32"><path id="path34" class="cls-8" d="M16.07,20.16a1.11,1.11,0,1,1-2.21,0,1.11,1.11,0,0,1,2.21,0"/></g><g id="g36"><path id="path38" class="cls-8" d="M25.64,20.16a1.11,1.11,0,1,1-1.1-1.1,1.11,1.11,0,0,1,1.1,1.1"/></g><g id="g40"><path id="path42" class="cls-9" d="M29.33,26.58l-2.21-.74-2.95,4.42L22,26.58l-1.47,1.47-2.95-1.47-2.21,3-2.21-4.42-2.21,1.47L8.48,20.86A9.94,9.94,0,0,0,8,24c0,5.9,5.28,10.68,11.79,10.68S31.54,29.9,31.54,24a9.75,9.75,0,0,0-.38-2.65Z"/></g><path class="cls-10" d="M26.11,8.23c-1.82-1-5.08-.94-6.17-.94s-4.36-.09-6.18.94c-2.25,1.28-2,7.17-2,7.17s2.5.92,8.22.92,8.21-.92,8.21-.92S28.36,9.51,26.11,8.23Z"/><path class="cls-11" d="M24,8c-1.57-.11-2.92.43-3,1.21s1.12,1.51,2.69,1.62,2.93-.44,3-1.22S25.61,8.07,24,8Z"/><g class="cls-12"><path class="cls-13" d="M11.44,15.89c-1.12-.68-1.59-1.63-1.45-2a1.46,1.46,0,0,0-.51.06c-.51.14-.11,1.37,1.26,2.21s6,1.58,9.2,1.58a30,30,0,0,0,8.58-1.29,32.49,32.49,0,0,1-7.88,1C17.48,17.47,12.81,16.73,11.44,15.89Z"/></g><path class="cls-14" d="M17.23,14a3.8,3.8,0,0,1-.68-6.56,7.71,7.71,0,0,0-2.79.79c-2.14,1.22-2.06,6.62-2,7.13l.37.15a23.21,23.21,0,0,0,7.85,1.27c5.71,0,8.21-1.38,8.21-1.38a1.23,1.23,0,0,0,0-.18,4.43,4.43,0,0,0-1.6-.37C23,15,20.15,15.31,17.23,14Z"/><path class="cls-9" d="M16.65,15.17a3,3,0,1,1,3,2.91A2.93,2.93,0,0,1,16.65,15.17Zm3-2.21a2.21,2.21,0,1,0,2.25,2.21A2.23,2.23,0,0,0,19.6,13Z"/><path class="cls-9" d="M19.31,12.06l.11-.07-.08-.07a.25.25,0,0,0,.09-.31,2.5,2.5,0,0,0-.09-.25.31.31,0,0,1,.07-.34.29.29,0,0,1,.45.36c0,.08-.06.16-.08.23a.25.25,0,0,0,.09.31l-.08.06.13.1h-.61Z"/><path class="cls-9" d="M19.33,18.42l.08-.06-.12-.1h.63l-.12.09.07.07a.26.26,0,0,0-.1.3l.09.25a.33.33,0,0,1-.06.35.32.32,0,0,1-.34,0,.3.3,0,0,1-.11-.4,1.55,1.55,0,0,0,.08-.23A.23.23,0,0,0,19.33,18.42Z"/><path class="cls-9" d="M17.11,17.28h.1v-.1l.37.4,0,0h-.12v.09h0a.24.24,0,0,0-.26.13,1.79,1.79,0,0,0-.12.24.31.31,0,0,1-.3.21.32.32,0,0,1-.27-.27.31.31,0,0,1,.22-.3l.22-.11A.24.24,0,0,0,17.11,17.28Z"/><path class="cls-9" d="M21.71,17.66v-.1h-.09l.37-.41v.13h.09v0a.24.24,0,0,0,.13.25l.24.12a.3.3,0,0,1,.21.31.29.29,0,0,1-.57,0,2.14,2.14,0,0,0-.1-.22A.26.26,0,0,0,21.71,17.66Z"/><path class="cls-9" d="M21.6,12.77h.12v-.1a.27.27,0,0,0,.3-.18c.05-.09.08-.18.13-.27a.26.26,0,0,1,.31-.12.29.29,0,0,1,0,.56l-.18.08a.28.28,0,0,0-.19.31H22v.1l-.37-.41Z"/><path class="cls-9" d="M17.49,12.68v.1h.12l0,0-.38.42v-.11h-.1a.26.26,0,0,0-.17-.3l-.28-.14a.26.26,0,0,1-.12-.3.3.3,0,0,1,.27-.22.31.31,0,0,1,.3.22,1.63,1.63,0,0,0,.11.23A.25.25,0,0,0,17.49,12.68Z"/><path class="cls-9" d="M22.85,15.45c0-.07-.06-.11-.12,0v-.49l.07,0,.05-.07a.27.27,0,0,0,.33.09l.24-.08a.29.29,0,0,1,.34.07.32.32,0,0,1,0,.34.29.29,0,0,1-.39.1l-.25-.08A.24.24,0,0,0,22.85,15.45Z"/><path class="cls-9" d="M16.36,14.89c0,.06.05.12.12,0v.49l-.07-.05-.06.08a.24.24,0,0,0-.3-.1,2.67,2.67,0,0,0-.26.09.3.3,0,0,1-.33-.07.32.32,0,0,1,0-.34.3.3,0,0,1,.4-.1l.24.08A.25.25,0,0,0,16.36,14.89Z"/><path class="cls-9" d="M18.74,15a.24.24,0,0,0,.11-.23.08.08,0,0,0,0-.06.35.35,0,0,1-.26-.2,1.28,1.28,0,0,1-.11-.2c-.08-.16-.08-.16-.26-.11V14H18s0-.08,0-.1l.34-.33.07,0s0,.05,0,.08,0,.08,0,.12h.19c0,.19,0,.18.13.27a1,1,0,0,1,.23.13,1.56,1.56,0,0,1,.16.2s0,.07,0,.07a.25.25,0,0,0,.15,0c.1,0,.12-.09.06-.19a.34.34,0,0,1,0-.28,2.33,2.33,0,0,1,.07-.25c0-.09,0-.16-.08-.19l0,0,.14-.14-.17-.14a1.63,1.63,0,0,1,.66,0l-.16.15.14.13-.08.05c-.06,0-.08.07,0,.13s0,.18.08.26a.52.52,0,0,1,0,.35s0,.07,0,.08a.28.28,0,0,0,.13.09c.1,0,.13,0,.17-.1a.39.39,0,0,1,.19-.21l.17-.09c.17-.08.17-.08.13-.27h.18v-.13a.13.13,0,0,1,0-.06h.06l.36.35a.17.17,0,0,1,0,.08H21v.17l0,0c-.16-.05-.16-.05-.24.11a.63.63,0,0,1-.12.21,1.37,1.37,0,0,1-.22.19s-.07,0-.07,0a.47.47,0,0,0,0,.17c0,.1.12.09.19,0a.3.3,0,0,1,.26,0l.24.07c.15,0,.15,0,.27-.14l.1.17.13-.15c.08,0,.07.06.07.12,0,.41,0,.45-.07.5l-.13-.14-.13.14,0-.06c0-.09-.09-.11-.17-.07l-.23.07a.43.43,0,0,1-.42-.06l0,.06c-.12.12-.11.22,0,.26a.39.39,0,0,1,.21.19c0,.06.07.13.11.2s.07.15.25.1v.19h.14s0,0,0,0a.06.06,0,0,1,0,.06c-.12.12-.24.24-.37.35s-.07,0-.07,0,0-.09,0-.15h-.2a.25.25,0,0,0,0-.07.1.1,0,0,0-.06-.15,2.69,2.69,0,0,1-.29-.16.34.34,0,0,1-.18-.25c0-.05-.13-.06-.19,0a.44.44,0,0,0-.11.09.46.46,0,0,1,0,.49l0,.09c-.05.17-.05.17.11.27l-.14.13.16.15a1.58,1.58,0,0,1-.65,0l.15-.15-.14-.14.08,0c.07,0,.09-.08.06-.15a2,2,0,0,1-.07-.23.46.46,0,0,1,.05-.44.39.39,0,0,0-.1-.08l-.12,0c-.08,0-.06,0-.08.08a.47.47,0,0,1-.23.25l-.18.09c-.15.08-.15.08-.09.25h-.2a.76.76,0,0,1,0,.15c0,.06,0,.08-.06,0s-.25-.23-.37-.35,0-.05,0-.08h.2v-.17h0c.16,0,.16,0,.23-.09a1.3,1.3,0,0,1,.14-.26,1.66,1.66,0,0,1,.21-.16s.07,0,.07,0a.45.45,0,0,0,0-.16s-.05-.06-.08-.1c-.2.16-.4.07-.6,0s-.16,0-.26.13l-.13-.16-.15.15s0-.07,0-.1c0-.33,0-.47.06-.52l.13.14.14-.14,0,.07a.11.11,0,0,0,.15.07l.22-.08A.46.46,0,0,1,18.74,15Zm.86-.43a.63.63,0,0,0,0,1.26.64.64,0,0,0,.64-.62A.66.66,0,0,0,19.6,14.54Z"/><path class="cls-9" d="M19.61,14.73a.42.42,0,0,1,.43.44.42.42,0,0,1-.44.43.43.43,0,0,1-.43-.44A.44.44,0,0,1,19.61,14.73Zm.24.44a.24.24,0,0,0-.24-.24.24.24,0,0,0-.25.24.23.23,0,0,0,.24.24A.24.24,0,0,0,19.85,15.17Z"/><path class="cls-15" d="M11.71,14.31v1.38a21.2,21.2,0,0,0,8.22,1.76,23.75,23.75,0,0,0,8.21-1.53V14.47a35.23,35.23,0,0,1-8.2.86A30.3,30.3,0,0,1,11.71,14.31Z"/><rect class="cls-6" x="16.53" y="16.99" width="6.14" height="2.39"/><path class="cls-16" d="M30.39,13.92c-.75-.21-1.76.47-4,1.38a17.9,17.9,0,0,1-6.48,1.22A17.17,17.17,0,0,1,13,15c-2-1-2.72-1.3-3.47-1.09-.51.14-.11,1.37,1.26,2.21s6,1.58,9.2,1.58,7.82-.74,9.19-1.58S30.9,14.06,30.39,13.92Z"/></g></g></svg>