<svg xmlns="http://www.w3.org/2000/svg" viewBox="0 0 1279 637"><defs><style>.cls-1{isolation:isolate;}.cls-2{fill:#4eb970;}.cls-3{fill:none;}.cls-4{fill:#c7c5c5;}.cls-5{fill:#ffcb4e;}.cls-6{fill:#ca4627;}.cls-7{fill:#1b1131;}.cls-8{fill:#fffafc;}.cls-9{fill:#742916;}.cls-10{fill:#bcabd3;mix-blend-mode:soft-light;}.cls-11,.cls-13{mix-blend-mode:multiply;}.cls-12{fill:#c4a582;}.cls-13{fill:#c3be80;}.cls-14{fill:#fff;}.cls-15{fill:#0d0e0e;}.cls-16{fill:#90523e;}.cls-17{fill:#190f30;}.cls-18{fill:#4cba6f;}</style></defs><title>kubeform-1280x640</title><g class="cls-1"><g id="Layer_1" data-name="Layer 1"><path class="cls-2" d="M629.1,68.77,514,124.18A23.89,23.89,0,0,0,501.1,140.4L472.68,264.91a23.91,23.91,0,0,0,4.61,20.22L556.92,385a23.89,23.89,0,0,0,18.68,9H703.32A23.9,23.9,0,0,0,722,385l79.63-99.85a23.91,23.91,0,0,0,4.61-20.22L777.83,140.4a23.9,23.9,0,0,0-12.93-16.22L649.83,68.77A23.85,23.85,0,0,0,629.1,68.77Z"/><rect class="cls-3" x="530.89" y="121.44" width="217.15" height="217.15"/><g id="g12"><path id="path14" class="cls-4" d="M536,261.92l15.27-22.62,20.35,20.36,27.15-13.57,20.36,20.36,27.14-40.72,27.14,20.36,20.36-6.79,13.57,20.36,20.36-20.36,13.57,27.15L727.68,314,653,347.88l-74.65-13.57-40.72-40.72Z"/></g><g id="g24"><path id="path26" class="cls-5" d="M720.6,249.78c.14-2,.3-3.9.3-5.88a81.39,81.39,0,0,0-67.84-80.21c8.07-1.76,13.79-3.45,6.76-7-7.56-3.79-15.14.87-20.35,5.73h0c-5.22-4.86-12.78-9.52-20.35-5.73-7,3.51-1.31,5.2,6.76,7A81.39,81.39,0,0,0,558,243.9c0,2,.16,3.92.3,5.88-3.28,44.79-42.77,110.53,81.13,110.53s84.41-65.74,81.14-110.53"/></g><g id="g28"><path id="path30" class="cls-6" d="M659.82,270.29c0,11.24-9.11,13.57-20.36,13.57s-20.35-2.33-20.35-13.57a20.36,20.36,0,1,1,40.71,0"/></g><g id="g32"><path id="path34" class="cls-7" d="M605.53,241.24a10.18,10.18,0,1,1-10.18-10.18,10.17,10.17,0,0,1,10.18,10.18"/></g><g id="g36"><path id="path38" class="cls-7" d="M693.75,241.24a10.18,10.18,0,1,1-10.18-10.18,10.18,10.18,0,0,1,10.18,10.18"/></g><g id="g40"><path id="path42" class="cls-8" d="M727.68,300.38l-20.36-6.79-27.14,40.72-20.36-33.93L646.25,314l-27.14-13.57-20.36,27.14-20.36-40.71L558,300.38l-22.35-52.69a90,90,0,0,0-4.79,28.94c0,54.35,48.61,98.4,108.57,98.4S748,331,748,276.63a89.5,89.5,0,0,0-3.51-24.41Z"/></g><path class="cls-9" d="M698.07,131.36c-16.74-9.49-46.8-8.66-56.89-8.66s-40.15-.83-56.88,8.66c-20.74,11.75-18.82,66-18.82,66s23.07,8.49,75.7,8.49,75.7-8.49,75.7-8.49S718.8,143.11,698.07,131.36Z"/><path class="cls-10" d="M678.91,128.83c-14.52-1-26.95,4-27.76,11.22s10.3,13.84,24.82,14.84,26.94-4,27.76-11.22S693.42,129.83,678.91,128.83Z"/><g class="cls-11"><path class="cls-12" d="M563,201.93c-10.3-6.32-14.65-15.05-13.35-18.74a15.12,15.12,0,0,0-4.75.54c-4.7,1.28-1,12.65,11.62,20.38s55.65,14.53,84.71,14.53c25.4,0,62.14-5.3,79.08-11.86-18.65,5.51-50.08,9.68-72.59,9.68C618.6,216.46,575.57,209.66,563,201.93Z"/></g><path class="cls-13" d="M616.23,184.52c-24.48-11-28.66-46.22-6.22-60.47-9.28,1.17-18.68,3.32-25.71,7.31-19.76,11.19-18.95,61-18.83,65.65l3.44,1.44c8.16,2.27,31.23,11.65,72.27,11.65,52.63,0,75.7-12.71,75.7-12.71s0-.59,0-1.62c-2.84-.28-6.39-3.76-14.67-3.44C669.81,193.55,643.19,196.59,616.23,184.52Z"/><path class="cls-14" d="M610.87,195.23c0-14.73,12.21-26.77,27.26-26.8s27.24,12,27.24,26.73a27.25,27.25,0,0,1-54.5.07Zm27.26-20.35a20.38,20.38,0,1,0,20.69,20.38A20.6,20.6,0,0,0,638.13,174.88Z"/><path class="cls-14" d="M635.39,166.65l1-.71-.72-.64a2.26,2.26,0,0,0,.89-2.78c-.23-.81-.56-1.58-.83-2.38a2.8,2.8,0,0,1,.61-3.08,2.83,2.83,0,0,1,3.13-.3c1.22.62,1.6,2.07,1,3.63-.27.7-.54,1.41-.74,2.13a2.27,2.27,0,0,0,.89,2.79l-.73.58,1.16.94h-5.58Z"/><path class="cls-14" d="M635.64,225.22l.73-.59-1.15-.93H641l-1.15.9.7.63a2.25,2.25,0,0,0-.88,2.78c.21.78.52,1.53.79,2.29a2.64,2.64,0,0,1-3.72,3.46c-1.21-.62-1.59-2.07-1-3.63a20.55,20.55,0,0,0,.75-2.12A2.28,2.28,0,0,0,635.64,225.22Z"/><path class="cls-14" d="M615.16,214.68l.92.13-.05-.93,3.44,3.69.29-.2-1.13-.08,0,.82s-.08.09-.12.08a2.18,2.18,0,0,0-2.4,1.21,20,20,0,0,0-1,2.19,2.68,2.68,0,0,1-5.25-.52,2.84,2.84,0,0,1,2-2.81,18.81,18.81,0,0,0,2-1A2.27,2.27,0,0,0,615.16,214.68Z"/><path class="cls-14" d="M657.55,218.23l.09-.95-.9.09,3.42-3.74v1.14l.83-.05c0,.05.07.1.06.15a2.11,2.11,0,0,0,1.16,2.33,18.9,18.9,0,0,0,2.26,1.1,2.68,2.68,0,0,1-.55,5.24,2.86,2.86,0,0,1-2.8-2,19,19,0,0,0-1-2A2.26,2.26,0,0,0,657.55,218.23Z"/><path class="cls-14" d="M656.5,173.13l1.08.14v-.94c1.42.28,2.2-.55,2.79-1.64.44-.82.75-1.71,1.24-2.49a2.34,2.34,0,0,1,2.8-1.11,2.84,2.84,0,0,1,2,2.52,2.92,2.92,0,0,1-2,2.65c-.56.24-1.12.45-1.65.73-1.14.59-2,1.38-1.72,2.84l-.92-.08.09.89-3.44-3.74Z"/><path class="cls-14" d="M618.68,172.33l-.06.91,1.09-.11-.15-.15-3.52,3.9.06-1.08h-.91c.28-1.38-.51-2.16-1.57-2.74-.84-.46-1.77-.78-2.57-1.29a2.33,2.33,0,0,1-1.13-2.72,2.83,2.83,0,0,1,2.47-2.07,2.91,2.91,0,0,1,2.76,2.07,15.84,15.84,0,0,0,1,2.11A2.26,2.26,0,0,0,618.68,172.33Z"/><path class="cls-14" d="M668,197.83c-.25-.64-.53-1-1.1-.26v-4.48l.61.37.53-.67a2.36,2.36,0,0,0,2.95.87c.78-.23,1.52-.56,2.29-.81a2.71,2.71,0,0,1,3.06.68,2.76,2.76,0,0,1,.23,3.13c-.62,1.16-2.06,1.53-3.58.94a23.94,23.94,0,0,0-2.3-.78A2.23,2.23,0,0,0,668,197.83Z"/><path class="cls-14" d="M608.21,192.72c.29.57.52,1.11,1.09.22v4.5l-.6-.37-.53.67a2.26,2.26,0,0,0-2.78-.9c-.81.23-1.59.55-2.38.82a2.83,2.83,0,0,1-3.09-.6,2.86,2.86,0,0,1-.3-3.13c.62-1.22,2-1.61,3.62-1a22.25,22.25,0,0,0,2.21.77A2.27,2.27,0,0,0,608.21,192.72Z"/><path class="cls-14" d="M630.15,193.42a2.21,2.21,0,0,0,1.05-2.08c0-.21-.2-.53-.36-.56a3.54,3.54,0,0,1-2.46-1.84c-.33-.61-.68-1.2-1-1.82-.73-1.49-.72-1.5-2.38-1.09v-1.66h-1.94c.1-.34.11-.7.29-.88,1-1,2.06-2,3.12-3,.14-.14.42-.13.64-.19a5.31,5.31,0,0,1,.08.67c0,.37,0,.75-.05,1.17h1.71c-.34,1.68-.33,1.66,1.19,2.42a9.69,9.69,0,0,1,2.1,1.22,10.27,10.27,0,0,1,1.51,1.89c.14.18.16.65.24.65a3.69,3.69,0,0,0,1.46-.19c.89-.44,1.06-.89.54-1.82a3.22,3.22,0,0,1-.15-2.52,18.41,18.41,0,0,1,.7-2.33c.36-.88.19-1.45-.73-1.76a2.16,2.16,0,0,1-.43-.28l1.35-1.25-1.59-1.28a15,15,0,0,1,6.08-.06l-1.46,1.38,1.31,1.24-.77.41a.89.89,0,0,0-.51,1.25c.29.79.48,1.62.76,2.41a4.75,4.75,0,0,1-.14,3.2c-.08.25-.32.64-.24.71a3.27,3.27,0,0,0,1.21.84c1,.26,1.22.18,1.56-.89a3.51,3.51,0,0,1,1.76-1.94,16.19,16.19,0,0,1,1.58-.87c1.55-.76,1.55-.76,1.19-2.43H649c0-.4,0-.82,0-1.25a4,4,0,0,1,.08-.58c.19,0,.45,0,.57.12,1.12,1,2.23,2.1,3.31,3.19.14.14.09.47.14.76l-1.89-.09.09,1.61c-.17.07-.23.13-.28.12-1.47-.39-1.46-.38-2.16,1a9.15,9.15,0,0,1-1.1,2,15,15,0,0,1-2,1.77c-.2.16-.72.21-.71.29a5,5,0,0,0,.26,1.53c.36.91,1.11.87,1.77.45a2.93,2.93,0,0,1,2.43-.18c.73.17,1.45.4,2.17.62,1.45.46,1.45.47,2.5-1.23l.9,1.56,1.25-1.36c.68,0,.64.54.66,1,.18,3.84.12,4.23-.64,4.6l-1.2-1.27-1.19,1.3c-.16-.27-.27-.41-.34-.56a1,1,0,0,0-1.58-.64c-.67.27-1.37.44-2.06.66a4.06,4.06,0,0,1-3.87-.52c-.16.19-.29.35-.43.5-1,1.11-1,2,.36,2.47a3.44,3.44,0,0,1,1.88,1.69c.36.59.68,1.2,1,1.82.69,1.4.68,1.41,2.3.95v1.76c.45,0,.88-.07,1.3-.07.19,0,.46,0,.53.15a.58.58,0,0,1,0,.57c-1.1,1.1-2.21,2.2-3.37,3.24-.37.33-.68.17-.63-.39s.07-.87.11-1.34h-1.8c.09-.31.14-.51.21-.69a1,1,0,0,0-.58-1.39c-.92-.45-1.81-.94-2.7-1.44a3.28,3.28,0,0,1-1.62-2.3c-.1-.47-1.23-.57-1.81-.15a12.48,12.48,0,0,0-.94.83c1.18,1.44.87,3,.33,4.59-.09.25-.16.51-.25.77-.49,1.57-.49,1.57,1,2.48l-1.27,1.21,1.42,1.35a14.77,14.77,0,0,1-6,0l1.45-1.38-1.32-1.26c.35-.17.52-.27.7-.35a1,1,0,0,0,.56-1.39c-.26-.67-.42-1.38-.66-2.06a4.2,4.2,0,0,1,.49-4,4.8,4.8,0,0,0-.9-.77,6.25,6.25,0,0,0-1.17-.28c-.72-.18-.53.35-.66.73a4.21,4.21,0,0,1-2.13,2.28l-1.67.89c-1.37.68-1.38.67-.89,2.26h-1.78c0,.48.05.93.1,1.38s-.25.72-.62.4c-1.16-1-2.27-2.14-3.38-3.24-.13-.14-.08-.47-.11-.71H625l-.07-1.58c.19-.06.25-.1.3-.09,1.42.41,1.41.41,2.06-.89a13.15,13.15,0,0,1,1.34-2.34,9.85,9.85,0,0,1,1.89-1.54c.2-.15.69-.22.69-.3a5.76,5.76,0,0,0-.3-1.54c-.12-.3-.45-.53-.76-.88-1.81,1.45-3.66.62-5.5,0-1.51-.48-1.51-.48-2.41,1.18l-1.2-1.48-1.34,1.4a3.51,3.51,0,0,1-.42-1c-.26-3-.1-4.35.59-4.78l1.22,1.31,1.22-1.32c.18.32.29.49.37.67a1,1,0,0,0,1.38.58c.67-.26,1.37-.44,2.06-.65C628.36,192.33,628.67,192.8,630.15,193.42Zm7.91-4a5.85,5.85,0,0,0-5.72,5.79,5.77,5.77,0,0,0,5.76,5.83A5.87,5.87,0,0,0,644,195.4,6.09,6.09,0,0,0,638.06,189.43Z"/><path class="cls-14" d="M638.18,191.25a4,4,0,0,1-.08,8,4,4,0,1,1,.08-8Zm2.17,4a2.23,2.23,0,1,0-2.24,2.21A2.17,2.17,0,0,0,640.35,195.27Z"/><path class="cls-15" d="M565.43,187.33V200.1s33.94,16.22,75.68,16.22a218.73,218.73,0,0,0,75.68-14.12V188.79s-29.94,8-75.61,8S565.43,187.33,565.43,187.33Z"/><rect class="cls-5" x="609.85" y="212.07" width="56.58" height="22.02"/><path class="cls-16" d="M737.52,183.73c-6.92-1.89-16.24,4.34-36.75,12.72-15.7,6.42-37.21,11.29-59.66,11.29s-48.27-5.91-64.28-13.92c-18.58-9.28-25.07-12-32-10.09-4.7,1.28-1,12.65,11.62,20.38s55.65,14.53,84.71,14.53c28.77,0,72.1-6.8,84.71-14.53S742.21,185,737.52,183.73Z"/><path class="cls-17" d="M207.11,570.94V438.7h25.74v62.85l55.58-63h28.36l-50.74,58.75L320,570.94H291l-41.22-57.27-17,17.72v39.55Z"/><path class="cls-17" d="M356.14,570.94q-15.11,0-22.94-9.7t-7.84-28.72V471.34h25v55.77q0,22.56,16.23,22.56a25.71,25.71,0,0,0,14.09-4.38q6.79-4.38,11.09-13.33V471.34h25v69c0,2.61.46,4.48,1.4,5.59a6.1,6.1,0,0,0,4.57,1.87v21.26a53.74,53.74,0,0,1-6.25.94c-1.68.12-3.21.18-4.57.18q-6.72,0-10.91-3.07a12.15,12.15,0,0,1-4.95-8.49l-.56-7.84a41.59,41.59,0,0,1-16.78,15.11A50.51,50.51,0,0,1,356.14,570.94Z"/><path class="cls-17" d="M497.15,570.94a39.31,39.31,0,0,1-20-5,36.57,36.57,0,0,1-13.8-13.8v17H441.56V432.91h25v55.58a37.76,37.76,0,0,1,13.71-13.89,38.76,38.76,0,0,1,19.86-4.94,36.91,36.91,0,0,1,17.35,4.1,43.76,43.76,0,0,1,13.52,11A49.91,49.91,0,0,1,539.77,501a62.18,62.18,0,0,1,3.07,19.59,55.54,55.54,0,0,1-3.45,19.77,49.76,49.76,0,0,1-9.6,15.95A45,45,0,0,1,515.24,567,42.3,42.3,0,0,1,497.15,570.94Zm-6.9-21.27a25.8,25.8,0,0,0,11-2.33,26.22,26.22,0,0,0,8.58-6.24,28.31,28.31,0,0,0,5.5-9.14,31.51,31.51,0,0,0,2-11.2,34.71,34.71,0,0,0-1.86-11.37,29.65,29.65,0,0,0-5.32-9.51,26.41,26.41,0,0,0-8.11-6.53,21.87,21.87,0,0,0-10.26-2.43,22.91,22.91,0,0,0-15,5.5,36.58,36.58,0,0,0-10.16,13.52v23.32a21.12,21.12,0,0,0,3.82,6.72,27.62,27.62,0,0,0,5.69,5.12,26.93,26.93,0,0,0,6.9,3.36A23.42,23.42,0,0,0,490.25,549.67Z"/><path class="cls-18" d="M640.9,555A54.52,54.52,0,0,1,623,567.18a48.82,48.82,0,0,1-19.19,3.75,48.23,48.23,0,0,1-18.67-4,51.29,51.29,0,0,1-16.15-11,54.41,54.41,0,0,1-11.41-16.42,48,48,0,0,1-4.23-18.73,49.13,49.13,0,0,1,3.7-19.39,54.26,54.26,0,0,1,12.33-18.13,53.06,53.06,0,0,1,18-12.2,49.13,49.13,0,0,1,19.13-3.56A46.74,46.74,0,0,1,625,471.69a53.35,53.35,0,0,1,15.9,11c1.14,1.14,2.21,2.26,3.23,3.36a18.49,18.49,0,0,1,2.3,3L593,542.45a29,29,0,0,0,9.23,5.27,25.14,25.14,0,0,0,18.6-.92,26.36,26.36,0,0,0,7.78-5.41A28.74,28.74,0,0,0,636,528.86a19.24,19.24,0,0,0-.39-13.19L655,504.73a43.63,43.63,0,0,1,.79,25.19Q652.5,543.38,640.9,555Zm-23.74-59.62q-8.45-7.11-18.2-6.73a25.48,25.48,0,0,0-24.41,24.54,25.8,25.8,0,0,0,1.52,9.3,27.09,27.09,0,0,0,5.21,8.77Z"/><path class="cls-17" d="M676.58,570.94V497.45H663.71v-19h12.87v-6q0-18.29,8.76-28.92t23.88-10.63a55.45,55.45,0,0,1,24.06,5.79l-5,18.83a31.8,31.8,0,0,0-6.62-2.52,27.32,27.32,0,0,0-7-1q-13.05,0-13.06,17.53v6.9h23.88v19H701.57v73.49Z"/><path class="cls-17" d="M779.92,570.94a53.73,53.73,0,0,1-21.45-4.1,48.19,48.19,0,0,1-16.14-11.1,49.11,49.11,0,0,1-10.17-16.14,52.68,52.68,0,0,1-3.54-19.21,53.27,53.27,0,0,1,3.54-19.4,49.17,49.17,0,0,1,10.17-16.13,48,48,0,0,1,16.14-11.1,53.73,53.73,0,0,1,21.45-4.1,53.07,53.07,0,0,1,21.35,4.1,48.32,48.32,0,0,1,16,11.1A49,49,0,0,1,827.48,501a53.27,53.27,0,0,1,3.54,19.4,52.68,52.68,0,0,1-3.54,19.21,49.85,49.85,0,0,1-10.07,16.14,47.37,47.37,0,0,1-16,11.1A53.8,53.8,0,0,1,779.92,570.94Zm-25.56-50.55a33.88,33.88,0,0,0,2,11.84,29.09,29.09,0,0,0,5.41,9.24,24.16,24.16,0,0,0,8.11,6.06,24.79,24.79,0,0,0,20.15,0,24.26,24.26,0,0,0,8.11-6.06,28.89,28.89,0,0,0,5.41-9.33,34.7,34.7,0,0,0,2-11.94,34.21,34.21,0,0,0-2-11.75,28.84,28.84,0,0,0-5.41-9.32,24.26,24.26,0,0,0-8.11-6.06,23.83,23.83,0,0,0-10.07-2.15,23,23,0,0,0-10.08,2.24,25.25,25.25,0,0,0-8.11,6.15,29,29,0,0,0-5.41,9.33A34.17,34.17,0,0,0,754.36,520.39Z"/><path class="cls-17" d="M906,494.84a49.18,49.18,0,0,0-20.33,4.38,25.64,25.64,0,0,0-12.87,12.59v59.13h-25V473.2h22.94v20.89a44.31,44.31,0,0,1,6.16-9,46.48,46.48,0,0,1,7.64-7,35.6,35.6,0,0,1,8.3-4.57,23.07,23.07,0,0,1,8.11-1.59H904a10.34,10.34,0,0,1,2,.19Z"/><path class="cls-17" d="M1071.82,570.94h-25V516.1q0-11.75-4-17.16a13.07,13.07,0,0,0-11.1-5.41q-7.45,0-14,5.69a31.34,31.34,0,0,0-9.32,14.83v56.89h-25V516.1q0-11.75-4-17.16a13,13,0,0,0-11.09-5.41q-7.27,0-13.9,5.6A30.49,30.49,0,0,0,945,513.86v57.08H920V473.2h22.57v18.09a37.26,37.26,0,0,1,14.82-14.64,44.32,44.32,0,0,1,21.55-5.13q12.3,0,19,6a26.62,26.62,0,0,1,8.58,14.74,42.2,42.2,0,0,1,15.11-15.39,40.72,40.72,0,0,1,20.89-5.32q9,0,14.74,3.36a24.31,24.31,0,0,1,9,8.77A36.74,36.74,0,0,1,1070.6,496a80.46,80.46,0,0,1,1.22,14Z"/></g></g></svg>