<svg width="64" height="64" viewBox="0 0 64 64" fill="none" xmlns="http://www.w3.org/2000/svg">
<g clip-path="url(#clip0)">
<path d="M30.045 1.33336L13.8888 9.11265C13.4346 9.33107 13.0355 9.64923 12.7213 10.0434C12.4071 10.4375 12.1859 10.8975 12.0743 11.3891L8.08393 28.8717C7.97141 29.3648 7.97203 29.877 8.08576 30.3698C8.19949 30.8626 8.42337 31.3233 8.7406 31.7172L19.9192 45.737C20.2338 46.1316 20.6334 46.4501 21.0882 46.6688C21.543 46.8875 22.0412 47.0007 22.5459 47H40.4772C40.9818 47.0007 41.4801 46.8875 41.9349 46.6688C42.3897 46.4501 42.7893 46.1316 43.1038 45.737L54.2847 31.7172C54.6019 31.3233 54.8258 30.8626 54.9395 30.3698C55.0532 29.877 55.0538 29.3648 54.9413 28.8717L50.9203 11.3891C50.8084 10.8977 50.5871 10.4378 50.273 10.0437C49.9588 9.64957 49.5598 9.33133 49.1058 9.11265L32.9562 1.33336C32.5023 1.11396 32.0047 1 31.5006 1C30.9965 1 30.4989 1.11396 30.045 1.33336V1.33336Z" fill="#4CBA6F"/>
<path d="M18.1157 27.5715L20.0857 24.6472L22.7124 27.2738L26.2146 25.5227L28.8412 28.1494L32.3435 22.8829L35.8457 25.5096L38.4723 24.634L40.2234 27.2607L42.8501 24.634L44.6012 28.1363L42.8501 34.2783L33.1971 38.667L23.542 36.9159L18.3346 31.6713L18.1157 27.5715Z" fill="#C7C5C5"/>
<path d="M41.9942 26.0021C42.0118 25.7482 42.0315 25.4965 42.0315 25.2404C42.0304 22.7536 41.1488 20.3474 39.5429 18.4486C37.937 16.5498 35.7106 15.2811 33.2584 14.8673C34.3025 14.6484 35.0424 14.4295 34.134 13.9677C33.1555 13.4774 32.1749 14.0793 31.5073 14.7075C30.8331 14.0793 29.8547 13.4774 28.8807 13.9677C27.9723 14.4208 28.7099 14.6397 29.7562 14.8673C27.304 15.2811 25.0776 16.5498 23.4717 18.4486C21.8658 20.3474 20.9842 22.7536 20.9832 25.2404C20.9832 25.4965 21.0029 25.7482 21.0226 26.0021C20.5979 31.7939 15.4913 40.2955 31.5161 40.2955C47.5409 40.2955 42.432 31.7939 42.0096 26.0021" fill="#FFCB4E"/>
<path d="M34.1342 28.6551C34.1342 30.1085 32.9544 30.4062 31.5075 30.4062C30.0607 30.4062 28.8809 30.1063 28.8809 28.6551C28.8809 27.9567 29.1583 27.2869 29.6521 26.7931C30.1459 26.2993 30.8157 26.0219 31.5141 26.0219C32.2125 26.0219 32.8822 26.2993 33.3761 26.7931C33.8699 27.2869 34.1473 27.9567 34.1473 28.6551" fill="#CA4627"/>
<path d="M27.112 24.8967C27.112 25.1565 27.035 25.4104 26.8907 25.6264C26.7464 25.8423 26.5413 26.0107 26.3013 26.1101C26.0613 26.2095 25.7972 26.2355 25.5425 26.1848C25.2877 26.1341 25.0537 26.009 24.87 25.8254C24.6863 25.6417 24.5613 25.4077 24.5106 25.1529C24.4599 24.8982 24.4859 24.6341 24.5853 24.3941C24.6847 24.1541 24.8531 23.949 25.069 23.8047C25.285 23.6604 25.5389 23.5834 25.7987 23.5834C26.147 23.5834 26.481 23.7217 26.7273 23.968C26.9736 24.2143 27.112 24.5484 27.112 24.8967" fill="#1B1131"/>
<path d="M38.5207 24.8967C38.5207 25.1565 38.4437 25.4104 38.2994 25.6264C38.1551 25.8423 37.9499 26.0107 37.71 26.1101C37.47 26.2095 37.2059 26.2355 36.9512 26.1848C36.6964 26.1341 36.4624 26.009 36.2787 25.8254C36.095 25.6417 35.97 25.4077 35.9193 25.1529C35.8686 24.8982 35.8946 24.6341 35.994 24.3941C36.0934 24.1541 36.2617 23.949 36.4777 23.8047C36.6937 23.6604 36.9476 23.5834 37.2074 23.5834C37.5557 23.5834 37.8897 23.7217 38.136 23.968C38.3823 24.2143 38.5207 24.5484 38.5207 24.8967" fill="#1B1131"/>
<path d="M42.9091 32.5469L40.2825 31.6713L36.7803 36.9378L34.1536 32.5491L32.4025 34.3002L28.9003 32.5491L26.2736 36.0513L23.647 30.7848L21.0203 32.536L18.0872 25.7307C17.6776 26.9362 17.4684 28.2006 17.4678 29.4737C17.4678 36.5022 23.7564 42.1999 31.5116 42.1999C39.2668 42.1999 45.5533 36.5088 45.5533 29.4737C45.5481 28.4058 45.3956 27.3436 45.1002 26.3173L42.9091 32.5469Z" fill="white"/>
<path d="M39.0785 10.6864C36.9115 9.45846 33.0284 9.56353 31.7217 9.56353C30.4149 9.56353 26.5296 9.45627 24.3648 10.6842C21.6835 12.2033 21.9308 19.2209 21.9308 19.2209C21.9308 19.2209 24.9164 20.3153 31.7217 20.3153C38.5269 20.3153 41.5125 19.2209 41.5125 19.2209C41.5125 19.2209 41.7599 12.2055 39.0785 10.6864Z" fill="#742916"/>
<g style="mix-blend-mode:soft-light">
<path d="M36.6005 10.3581C34.7225 10.229 33.1158 10.8791 33.0108 11.8094C32.9057 12.7396 34.3438 13.5999 36.2197 13.729C38.0956 13.8582 39.7066 13.2081 39.8116 12.2778C39.9167 11.3475 38.4786 10.4873 36.6005 10.3581Z" fill="#BCABD3"/>
</g>
<g style="mix-blend-mode:multiply">
<g style="mix-blend-mode:multiply">
<path d="M21.6048 19.8119C20.2718 18.9954 19.7092 17.866 19.8778 17.3888C19.6703 17.3799 19.4628 17.4035 19.2627 17.4588C18.6564 17.6252 19.1335 19.0939 20.7664 20.0855C22.3993 21.0771 27.9635 21.9657 31.7108 21.9657C34.9942 21.9657 39.7484 21.2806 41.9395 20.4335C39.5317 21.1471 35.4626 21.6856 32.5492 21.6856C28.8128 21.6921 23.2355 20.8122 21.6048 19.8119Z" fill="#C4A582"/>
</g>
</g>
<g style="mix-blend-mode:multiply">
<path d="M28.4954 17.5617C25.3281 16.1433 24.7874 11.5839 27.6899 9.73865C26.4904 9.89187 25.2821 10.1764 24.365 10.6864C21.8105 12.1333 21.9156 18.5664 21.9309 19.1749C22.0732 19.2362 22.2199 19.2997 22.3687 19.3632C23.4238 19.6565 26.4072 20.8691 31.7152 20.8691C38.5227 20.8691 41.5061 19.2253 41.5061 19.2253C41.5061 19.2253 41.5061 19.1487 41.5061 19.0064C41.1384 18.9714 40.6787 18.5204 39.6083 18.5686C35.4254 18.7284 31.9823 19.1224 28.4954 17.5617Z" fill="#C3BE80"/>
</g>
<path d="M27.8016 18.9474C27.7916 18.2485 27.9897 17.5624 28.3706 16.9764C28.7515 16.3904 29.2981 15.9309 29.9409 15.6563C30.5836 15.3817 31.2935 15.3044 31.9803 15.4343C32.667 15.5642 33.2997 15.8954 33.7977 16.3857C34.2958 16.8761 34.6368 17.5035 34.7774 18.1881C34.918 18.8728 34.8519 19.5838 34.5874 20.2307C34.3228 20.8777 33.8719 21.4314 33.2919 21.8214C32.7119 22.2114 32.029 22.4202 31.3301 22.4211C30.4016 22.4281 29.5084 22.0661 28.8467 21.4147C28.1851 20.7633 27.8091 19.8758 27.8016 18.9474V18.9474ZM31.3279 16.3207C30.8106 16.3302 30.3075 16.4923 29.882 16.7866C29.4564 17.0809 29.1272 17.4944 28.9358 17.9751C28.7444 18.4558 28.6992 18.9824 28.8059 19.4887C28.9126 19.995 29.1665 20.4585 29.5357 20.8211C29.9049 21.1836 30.3729 21.429 30.8811 21.5265C31.3893 21.624 31.9149 21.5693 32.3921 21.3691C32.8692 21.169 33.2766 20.8324 33.5632 20.4015C33.8497 19.9707 34.0026 19.4648 34.0027 18.9474C33.9941 18.2445 33.7082 17.5734 33.2072 17.0803C32.7063 16.5871 32.0309 16.3118 31.3279 16.3141V16.3207Z" fill="white"/>
<path d="M30.9731 15.2546L31.1023 15.1626L31.0082 15.0795C31.0669 15.0431 31.1107 14.9869 31.1316 14.9211C31.1525 14.8552 31.1491 14.7841 31.122 14.7205C31.0935 14.6154 31.0519 14.5147 31.0169 14.4119C30.9886 14.3454 30.9808 14.272 30.9945 14.201C31.0081 14.13 31.0426 14.0647 31.0935 14.0135C31.1503 13.9681 31.219 13.9403 31.2912 13.9333C31.3635 13.9263 31.4363 13.9404 31.5007 13.9741C31.578 14.0214 31.6342 14.0966 31.6578 14.1841C31.6814 14.2717 31.6706 14.3649 31.6276 14.4447C31.5926 14.5344 31.5576 14.6264 31.5313 14.7205C31.5052 14.7847 31.5025 14.8561 31.5237 14.9222C31.5449 14.9882 31.5887 15.0446 31.6473 15.0817L31.5532 15.1561L31.702 15.2765H30.9797L30.9731 15.2546Z" fill="white"/>
<path d="M31.0015 22.8238L31.0956 22.7494L30.9468 22.629H31.6976L31.5487 22.745L31.6407 22.826C31.5822 22.8627 31.5385 22.9187 31.5173 22.9844C31.4961 23.05 31.4987 23.1211 31.5246 23.185C31.5531 23.2857 31.5947 23.3842 31.6275 23.4827C31.6588 23.5484 31.6682 23.6223 31.6542 23.6937C31.6403 23.7651 31.6038 23.8301 31.55 23.8792C31.4963 23.9283 31.4283 23.9587 31.3559 23.9662C31.2836 23.9736 31.2107 23.9576 31.1482 23.9205C31.0702 23.8743 31.0133 23.7995 30.9896 23.712C30.9659 23.6246 30.9772 23.5313 31.0212 23.452C31.0562 23.3601 31.0912 23.2704 31.1175 23.1762C31.1409 23.113 31.1422 23.0438 31.1211 22.9798C31.1 22.9157 31.0579 22.8608 31.0015 22.8238V22.8238Z" fill="white"/>
<path d="M28.3552 21.4602L28.4755 21.4777V21.3573L28.9133 21.8345L28.9505 21.8104L28.8017 21.7995V21.9045C28.8017 21.9045 28.7907 21.9177 28.7864 21.9155C28.7244 21.9028 28.6599 21.9114 28.6035 21.9401C28.547 21.9687 28.5019 22.0156 28.4755 22.0731C28.425 22.1646 28.3797 22.2588 28.3398 22.3554C28.3182 22.4342 28.2694 22.5028 28.2021 22.549C28.1347 22.5953 28.0532 22.6162 27.9719 22.6081C27.8906 22.5999 27.8148 22.5633 27.758 22.5046C27.7011 22.446 27.6669 22.3691 27.6613 22.2876C27.659 22.2072 27.6829 22.1282 27.7295 22.0626C27.7762 21.9971 27.8429 21.9485 27.9196 21.9242C28.0098 21.8884 28.0975 21.8467 28.1822 21.7995C28.2473 21.7735 28.3007 21.7247 28.3325 21.6623C28.3643 21.5999 28.3724 21.5281 28.3552 21.4602Z" fill="white"/>
<path d="M33.8467 21.922V21.7973L33.7329 21.8104L34.1707 21.3267V21.4733H34.2779C34.2779 21.4733 34.2779 21.4865 34.2779 21.493C34.2659 21.5527 34.274 21.6148 34.3009 21.6694C34.3278 21.724 34.3721 21.7682 34.4268 21.7951C34.5213 21.8483 34.6193 21.8951 34.7201 21.9352C34.7774 21.9532 34.8289 21.9859 34.8697 22.0299C34.9106 22.0739 34.9392 22.1278 34.9529 22.1862C34.9666 22.2447 34.9648 22.3057 34.9477 22.3632C34.9307 22.4208 34.8989 22.4729 34.8556 22.5145C34.8123 22.5561 34.759 22.5857 34.7007 22.6004C34.6425 22.615 34.5815 22.6143 34.5237 22.5983C34.4658 22.5822 34.4132 22.5514 34.3708 22.5088C34.3285 22.4662 34.298 22.4134 34.2823 22.3554C34.2468 22.2655 34.2059 22.1778 34.1597 22.0928C34.1336 22.0339 34.0887 21.9852 34.0322 21.9544C33.9756 21.9235 33.9104 21.9122 33.8467 21.922Z" fill="white"/>
<path d="M33.7026 16.0887L33.8427 16.1062V15.9858C33.9192 15.9985 33.9976 15.9834 34.0639 15.9433C34.1301 15.9031 34.1798 15.8405 34.2039 15.7669C34.2608 15.6596 34.3002 15.548 34.3637 15.4429C34.3983 15.3807 34.4535 15.3325 34.5198 15.3065C34.5861 15.2805 34.6594 15.2785 34.727 15.3007C34.7983 15.322 34.8613 15.3648 34.9075 15.4231C34.9537 15.4814 34.9808 15.5525 34.9853 15.6268C34.9825 15.703 34.9565 15.7766 34.9107 15.8376C34.8649 15.8987 34.8016 15.9442 34.7292 15.9683C34.657 15.9989 34.5848 16.0274 34.5103 16.0624C34.4359 16.0874 34.3729 16.1382 34.3327 16.2057C34.2926 16.2732 34.2779 16.3528 34.2914 16.4301H34.1711L34.1842 16.544L33.7464 16.0602L33.7026 16.0887Z" fill="white"/>
<path d="M28.8125 15.9836V16.1018L28.9548 16.0886L28.9351 16.0689L28.4798 16.5724V16.4323H28.3616C28.3755 16.3589 28.3629 16.283 28.326 16.218C28.2891 16.1531 28.2304 16.1033 28.1603 16.0777C28.0508 16.0186 27.9414 15.977 27.8275 15.9113C27.7664 15.8788 27.7185 15.8262 27.6917 15.7624C27.665 15.6985 27.6612 15.6274 27.6809 15.5611C27.7005 15.4891 27.7416 15.4248 27.7987 15.3767C27.8558 15.3286 27.9262 15.299 28.0005 15.2919C28.0809 15.2927 28.1589 15.3194 28.2231 15.3678C28.2873 15.4163 28.3343 15.484 28.3573 15.5611C28.396 15.6543 28.4406 15.7449 28.4908 15.8325C28.5202 15.8897 28.5677 15.9355 28.6259 15.9628C28.6841 15.9902 28.7498 15.9974 28.8125 15.9836V15.9836Z" fill="white"/>
<path d="M35.1955 19.2822C35.1627 19.199 35.1255 19.1509 35.0532 19.2494V18.6693L35.132 18.7175L35.1999 18.6299C35.2392 18.6914 35.2992 18.7368 35.3692 18.7576C35.4391 18.7785 35.5142 18.7736 35.5807 18.7438C35.6814 18.7131 35.7777 18.6715 35.8784 18.6387C35.9449 18.6099 36.0189 18.6028 36.0896 18.6185C36.1604 18.6343 36.2244 18.672 36.2724 18.7262C36.3254 18.7886 36.3547 18.8677 36.3551 18.9495C36.3556 19.0314 36.3272 19.1107 36.2749 19.1737C36.2226 19.2367 36.1499 19.2792 36.0694 19.2939C35.9888 19.3085 35.9057 19.2943 35.8347 19.2538C35.7382 19.2139 35.6395 19.1796 35.5392 19.1509C35.4755 19.1299 35.4066 19.1315 35.344 19.1554C35.2813 19.1793 35.2289 19.2241 35.1955 19.2822V19.2822Z" fill="white"/>
<path d="M27.4574 18.6212C27.4946 18.6957 27.5253 18.7657 27.5997 18.6497V19.2319L27.5209 19.1838L27.4531 19.2713C27.4167 19.212 27.3602 19.1677 27.294 19.1464C27.2277 19.1251 27.156 19.1283 27.0919 19.1553C26.989 19.1838 26.8883 19.2254 26.7854 19.2604C26.7195 19.2923 26.6451 19.302 26.5732 19.2881C26.5013 19.2742 26.4358 19.2374 26.3866 19.1832C26.3373 19.1291 26.3069 19.0604 26.2999 18.9875C26.2929 18.9146 26.3096 18.8414 26.3477 18.7788C26.3939 18.7003 26.4689 18.6429 26.5568 18.6188C26.6446 18.5947 26.7384 18.6058 26.8183 18.6497C26.9102 18.6847 27.0065 18.7219 27.1028 18.7482C27.1674 18.772 27.2384 18.7724 27.3032 18.7492C27.368 18.7259 27.4226 18.6807 27.4574 18.6212Z" fill="white"/>
<path d="M30.2947 18.711C30.3405 18.6841 30.3776 18.6446 30.4016 18.5973C30.4257 18.55 30.4357 18.4968 30.4305 18.4439C30.4305 18.4155 30.4064 18.3761 30.3845 18.3717C30.3173 18.3577 30.254 18.3291 30.1991 18.2879C30.1443 18.2466 30.0992 18.1938 30.0671 18.1331C30.0233 18.0543 29.9774 17.9777 29.938 17.8967C29.8438 17.7041 29.846 17.7041 29.6293 17.7566V17.5377H29.3798C29.3929 17.494 29.3929 17.448 29.417 17.4239C29.5483 17.2904 29.6841 17.1613 29.8198 17.0343C29.8395 17.0168 29.8767 17.019 29.9029 17.0124C29.9087 17.0405 29.9124 17.0691 29.9139 17.0978C29.9139 17.1459 29.9139 17.1941 29.9139 17.2488H30.1328C30.089 17.4677 30.0912 17.4677 30.2882 17.5618C30.3847 17.6031 30.4759 17.656 30.5596 17.7194C30.6333 17.7938 30.6986 17.876 30.7544 17.9646C30.7719 17.9887 30.7741 18.0478 30.7851 18.0478C30.8488 18.0536 30.9131 18.0454 30.9733 18.0237C31.0893 17.9668 31.1112 17.9077 31.0433 17.7873C31.0186 17.7373 31.0042 17.6829 31.0008 17.6273C30.9974 17.5716 31.0052 17.5159 31.0236 17.4633C31.0473 17.3606 31.078 17.2597 31.1156 17.1613C31.1615 17.0474 31.1397 16.973 31.0193 16.9424C31.0001 16.9323 30.9818 16.9206 30.9645 16.9073L31.1397 16.7432L30.9339 16.579C31.1932 16.5262 31.4604 16.5262 31.7197 16.579L31.5315 16.7585L31.7 16.9183L31.6015 16.9708C31.5856 16.9759 31.5711 16.9844 31.5588 16.9958C31.5466 17.0071 31.537 17.021 31.5308 17.0364C31.5245 17.0519 31.5217 17.0685 31.5226 17.0852C31.5235 17.1018 31.528 17.1181 31.5358 17.1328C31.5731 17.2357 31.5971 17.3517 31.6322 17.4458C31.6747 17.5808 31.6685 17.7264 31.6146 17.8573C31.6146 17.8902 31.5752 17.9405 31.584 17.9514C31.6271 17.9994 31.6812 18.0362 31.7416 18.0587C31.8664 18.0937 31.8992 18.0828 31.943 17.9449C31.9813 17.8362 32.0595 17.7462 32.1619 17.6932C32.2273 17.6517 32.2953 17.6144 32.3654 17.5815C32.5646 17.4808 32.5668 17.483 32.5208 17.2663H32.7397V17.1043C32.7397 17.0803 32.7397 17.054 32.7397 17.0299C32.7397 17.0058 32.7988 17.0299 32.8142 17.0452C32.9586 17.181 33.1031 17.3167 33.2519 17.4589C33.2716 17.4765 33.2651 17.518 33.2716 17.5574L33.0265 17.5443V17.7632C33.0046 17.7632 32.998 17.7807 32.9915 17.7785C32.801 17.7304 32.8032 17.7304 32.7113 17.912C32.6748 18.0024 32.627 18.0877 32.569 18.1659C32.4887 18.2505 32.4008 18.3274 32.3063 18.3958C32.2801 18.4155 32.2144 18.422 32.2144 18.433C32.2159 18.5001 32.2278 18.5665 32.2494 18.63C32.2954 18.7482 32.3917 18.7438 32.4683 18.6891C32.5157 18.6628 32.5682 18.647 32.6222 18.6429C32.6762 18.6387 32.7305 18.6463 32.7813 18.665C32.8754 18.6869 32.9696 18.7176 33.0615 18.746C33.2497 18.8051 33.2497 18.8051 33.3854 18.5862L33.5015 18.7876L33.6634 18.6125C33.751 18.6125 33.7466 18.6825 33.7488 18.7438C33.7707 19.2407 33.7641 19.291 33.6656 19.3392L33.5102 19.175L33.357 19.3436C33.3404 19.32 33.3257 19.2951 33.3132 19.2691C33.308 19.2481 33.2978 19.2287 33.2836 19.2124C33.2693 19.1962 33.2514 19.1835 33.2312 19.1756C33.2111 19.1677 33.1893 19.1647 33.1678 19.1669C33.1463 19.1691 33.1256 19.1763 33.1075 19.1882C33.0221 19.221 32.9302 19.2451 32.8426 19.2735C32.76 19.3049 32.6709 19.3151 32.5834 19.3033C32.4958 19.2914 32.4126 19.2579 32.3414 19.2057L32.2866 19.2713C32.1531 19.4136 32.1619 19.5318 32.3326 19.5887C32.4377 19.6294 32.5241 19.7073 32.5756 19.8076C32.6215 19.8842 32.6631 19.963 32.7025 20.044C32.7923 20.2257 32.7923 20.2257 33.0002 20.1666V20.3855C33.0593 20.3855 33.114 20.3855 33.1687 20.3855C33.2235 20.3855 33.23 20.3855 33.2388 20.4052C33.2447 20.4163 33.2478 20.4287 33.2478 20.4413C33.2478 20.4539 33.2447 20.4663 33.2388 20.4774C33.0943 20.6197 32.9521 20.762 32.801 20.8977C32.7529 20.9415 32.7135 20.9196 32.72 20.8473C32.7266 20.7751 32.72 20.7357 32.7354 20.6744H32.5011C32.5091 20.644 32.5186 20.6141 32.5296 20.5847C32.5385 20.5683 32.5437 20.5502 32.5447 20.5315C32.5457 20.5129 32.5425 20.4943 32.5353 20.4771C32.5282 20.4599 32.5173 20.4445 32.5034 20.432C32.4895 20.4196 32.4731 20.4104 32.4552 20.4052C32.3348 20.3461 32.2188 20.2826 32.105 20.2169C32.0485 20.1875 31.9994 20.1456 31.9615 20.0944C31.9236 20.0432 31.8978 19.9841 31.8861 19.9214C31.8729 19.8601 31.7285 19.847 31.6519 19.9017C31.6099 19.9354 31.5698 19.9712 31.5315 20.009C31.592 20.0946 31.6278 20.1952 31.6351 20.2998C31.6425 20.4044 31.621 20.5089 31.5731 20.6022C31.5621 20.635 31.5512 20.6678 31.5424 20.7029C31.4767 20.9064 31.4767 20.9064 31.6694 21.0224L31.503 21.18L31.6869 21.353C31.4327 21.4055 31.1705 21.4055 30.9164 21.353L31.1024 21.1735L30.9339 21.0115L31.0236 20.9655C31.0419 20.9608 31.0587 20.9518 31.0728 20.9394C31.0869 20.927 31.0979 20.9114 31.105 20.894C31.112 20.8765 31.1148 20.8577 31.1132 20.8389C31.1117 20.8202 31.1057 20.8021 31.0959 20.786C31.063 20.7007 31.0412 20.6087 31.0105 20.519C30.9768 20.4341 30.9649 20.3422 30.976 20.2515C30.9871 20.1609 31.0208 20.0745 31.074 20.0002C31.0392 19.9624 31.0003 19.9286 30.958 19.8995C30.9088 19.8833 30.8583 19.8715 30.8069 19.8645C30.715 19.8404 30.7369 19.9105 30.7216 19.9586C30.6708 20.0883 30.572 20.1933 30.4458 20.252C30.3735 20.2914 30.3035 20.3308 30.2269 20.368C30.0496 20.4555 30.0496 20.4555 30.1131 20.6613H29.9073C29.9073 20.7226 29.9073 20.7817 29.9183 20.8386C29.9292 20.8955 29.8854 20.9327 29.8395 20.8911C29.6884 20.7554 29.544 20.6153 29.4017 20.4708C29.3842 20.4533 29.3907 20.4117 29.3864 20.3811H29.6271V20.1753C29.6512 20.1753 29.66 20.1622 29.6665 20.1753C29.8504 20.2279 29.8482 20.2279 29.9336 20.0593C29.9808 19.953 30.0388 19.8518 30.1065 19.7573C30.18 19.6822 30.2615 19.6154 30.3495 19.5581C30.3779 19.5384 30.4414 19.5296 30.4392 19.5187C30.437 19.4515 30.4244 19.3851 30.402 19.3217C30.3746 19.2787 30.3415 19.2396 30.3035 19.2057C30.0693 19.3939 29.8307 19.2867 29.5921 19.2057C29.3973 19.1444 29.3973 19.1444 29.2813 19.3589L29.1237 19.1685L28.953 19.3501C28.9275 19.3121 28.909 19.2699 28.8982 19.2254C28.8632 18.8314 28.8851 18.6628 28.9727 18.6059L29.1303 18.7766L29.2901 18.6059C29.3069 18.6342 29.3223 18.6635 29.336 18.6935C29.3413 18.7114 29.3504 18.7278 29.3629 18.7417C29.3753 18.7556 29.3907 18.7665 29.408 18.7736C29.4252 18.7808 29.4438 18.784 29.4624 18.783C29.481 18.782 29.4991 18.7768 29.5155 18.7679C29.6009 18.7329 29.6928 18.711 29.7825 18.6825C29.8637 18.6451 29.9529 18.6281 30.0422 18.633C30.1315 18.638 30.2182 18.6647 30.2947 18.711V18.711ZM31.317 18.1966C31.1209 18.2011 30.9342 18.2818 30.7965 18.4215C30.6589 18.5612 30.581 18.749 30.5793 18.9452C30.5779 19.0437 30.596 19.1416 30.6328 19.233C30.6696 19.3245 30.7242 19.4077 30.7935 19.4778C30.8628 19.5479 30.9453 19.6034 31.0363 19.6413C31.1273 19.6791 31.225 19.6985 31.3235 19.6982C31.5201 19.6983 31.7091 19.6222 31.8508 19.4859C31.9924 19.3495 32.0757 19.1635 32.0831 18.9671C32.0781 18.765 31.9959 18.5726 31.8535 18.4293C31.711 18.286 31.519 18.2027 31.317 18.1966Z" fill="white"/>
<path d="M31.3343 18.4307C31.4719 18.4321 31.6033 18.4882 31.6995 18.5865C31.7958 18.6848 31.8491 18.8173 31.8476 18.9549C31.8462 19.0925 31.7901 19.2239 31.6918 19.3201C31.5935 19.4164 31.461 19.4697 31.3234 19.4682C31.2553 19.4675 31.1879 19.4534 31.1253 19.4266C31.0626 19.3999 31.0058 19.3611 30.9582 19.3124C30.8619 19.2141 30.8086 19.0816 30.8101 18.944C30.8115 18.8064 30.8676 18.675 30.9659 18.5788C31.0642 18.4825 31.1967 18.4292 31.3343 18.4307V18.4307ZM31.6145 18.9516C31.6149 18.8944 31.5984 18.8383 31.5669 18.7905C31.5354 18.7427 31.4904 18.7054 31.4377 18.6831C31.3849 18.6609 31.3267 18.6549 31.2706 18.6658C31.2144 18.6767 31.1627 18.7041 31.1221 18.7444C31.0814 18.7847 31.0537 18.8362 31.0424 18.8923C31.031 18.9484 31.0366 19.0066 31.0584 19.0595C31.0802 19.1124 31.1173 19.1577 31.1648 19.1895C31.2124 19.2214 31.2683 19.2384 31.3256 19.2384C31.3637 19.2396 31.4016 19.233 31.437 19.2191C31.4725 19.2051 31.5047 19.1841 31.5318 19.1572C31.5588 19.1304 31.5801 19.0983 31.5943 19.063C31.6085 19.0276 31.6154 18.9897 31.6145 18.9516V18.9516Z" fill="white"/>
<path d="M21.9268 17.925V19.5777C25.0158 20.9244 28.3436 21.6374 31.7132 21.6746C35.0605 21.6514 38.3771 21.0341 41.5085 19.8513V18.1177C41.5085 18.1177 37.6364 19.1486 31.7286 19.1486C25.8208 19.1486 21.9268 17.925 21.9268 17.925Z" fill="#0D0E0E"/>
<path d="M34.9874 21.1252H27.6699V23.973H34.9874V21.1252Z" fill="#FFCB4E"/>
<path d="M44.1804 17.4589C43.2873 17.2138 42.0813 18.0215 39.4283 19.105C36.9703 20.0697 34.3531 20.565 31.7125 20.565C28.8101 20.565 25.4698 19.7988 23.3948 18.7635C20.987 17.564 20.153 17.2138 19.2578 17.4502C18.6515 17.6165 19.1286 19.0853 20.7616 20.0768C22.3945 21.0684 27.9586 21.9571 31.706 21.9571C35.4271 21.9571 41.0306 21.0815 42.6504 20.0768C44.2701 19.0721 44.7911 17.6253 44.1804 17.4589Z" fill="#90523E"/>
<path d="M5.98633 57.9395H2.48242V60.5645H6.57812V61.748H1V53.2168H6.53711V54.4121H2.48242V56.7676H5.98633V57.9395Z" fill="#FC6011"/>
<path d="M9.81875 55.4082L9.85977 56.1406C10.3285 55.5742 10.9438 55.291 11.7055 55.291C13.0258 55.291 13.6977 56.0469 13.7211 57.5586V61.748H12.2973V57.6406C12.2973 57.2383 12.2094 56.9414 12.0336 56.75C11.8617 56.5547 11.5785 56.457 11.184 56.457C10.6098 56.457 10.182 56.7168 9.90078 57.2363V61.748H8.47695V55.4082H9.81875Z" fill="#FC6011"/>
<path d="M17.8113 53.8672V55.4082H18.9305V56.4629H17.8113V60.002C17.8113 60.2441 17.8582 60.4199 17.952 60.5293C18.0496 60.6348 18.2215 60.6875 18.4676 60.6875C18.6316 60.6875 18.7977 60.668 18.9656 60.6289V61.7305C18.6414 61.8203 18.3289 61.8652 18.0281 61.8652C16.9344 61.8652 16.3875 61.2617 16.3875 60.0547V56.4629H15.3445V55.4082H16.3875V53.8672H17.8113Z" fill="#FC6011"/>
<path d="M23.6652 61.8652C22.7629 61.8652 22.0305 61.582 21.468 61.0156C20.9094 60.4453 20.6301 59.6875 20.6301 58.7422V58.5664C20.6301 57.9336 20.7512 57.3691 20.9934 56.873C21.2395 56.373 21.5832 55.9844 22.0246 55.707C22.466 55.4297 22.9582 55.291 23.5012 55.291C24.3645 55.291 25.0305 55.5664 25.4992 56.1172C25.9719 56.668 26.2082 57.4473 26.2082 58.4551V59.0293H22.0656C22.1086 59.5527 22.2824 59.9668 22.5871 60.2715C22.8957 60.5762 23.2824 60.7285 23.7473 60.7285C24.3996 60.7285 24.9309 60.4648 25.341 59.9375L26.1086 60.6699C25.8547 61.0488 25.5148 61.3438 25.0891 61.5547C24.6672 61.7617 24.1926 61.8652 23.6652 61.8652ZM23.4953 56.4336C23.1047 56.4336 22.7883 56.5703 22.5461 56.8438C22.3078 57.1172 22.1555 57.498 22.0891 57.9863H24.802V57.8809C24.7707 57.4043 24.6437 57.0449 24.4211 56.8027C24.1984 56.5566 23.8898 56.4336 23.4953 56.4336Z" fill="#FC6011"/>
<path d="M31.4879 56.709C31.3004 56.6777 31.107 56.6621 30.9078 56.6621C30.2555 56.6621 29.816 56.9121 29.5895 57.4121V61.748H28.1656V55.4082H29.525L29.5602 56.1172C29.9039 55.5664 30.3805 55.291 30.9898 55.291C31.193 55.291 31.3609 55.3184 31.4937 55.373L31.4879 56.709Z" fill="#FC6011"/>
<path d="M38.7891 58.6426C38.7891 59.623 38.5664 60.4062 38.1211 60.9922C37.6758 61.5742 37.0781 61.8652 36.3281 61.8652C35.6328 61.8652 35.0762 61.6367 34.6582 61.1797V64.1855H33.2344V55.4082H34.5469L34.6055 56.0527C35.0234 55.5449 35.5918 55.291 36.3105 55.291C37.084 55.291 37.6895 55.5801 38.127 56.1582C38.5684 56.7324 38.7891 57.5312 38.7891 58.5547V58.6426ZM37.3711 58.5195C37.3711 57.8867 37.2441 57.3848 36.9902 57.0137C36.7402 56.6426 36.3809 56.457 35.9121 56.457C35.3301 56.457 34.9121 56.6973 34.6582 57.1777V59.9902C34.916 60.4824 35.3379 60.7285 35.9238 60.7285C36.377 60.7285 36.7305 60.5469 36.9844 60.1836C37.2422 59.8164 37.3711 59.2617 37.3711 58.5195Z" fill="#FC6011"/>
<path d="M44.1684 56.709C43.9809 56.6777 43.7875 56.6621 43.5883 56.6621C42.9359 56.6621 42.4965 56.9121 42.2699 57.4121V61.748H40.8461V55.4082H42.2055L42.2406 56.1172C42.5844 55.5664 43.0609 55.291 43.6703 55.291C43.8734 55.291 44.0414 55.3184 44.1742 55.373L44.1684 56.709Z" fill="#FC6011"/>
<path d="M47.4324 61.748H46.0086V55.4082H47.4324V61.748ZM45.9207 53.7617C45.9207 53.543 45.9891 53.3613 46.1258 53.2168C46.2664 53.0723 46.4656 53 46.7234 53C46.9813 53 47.1805 53.0723 47.3211 53.2168C47.4617 53.3613 47.532 53.543 47.532 53.7617C47.532 53.9766 47.4617 54.1562 47.3211 54.3008C47.1805 54.4414 46.9813 54.5117 46.7234 54.5117C46.4656 54.5117 46.2664 54.4414 46.1258 54.3008C45.9891 54.1562 45.9207 53.9766 45.9207 53.7617Z" fill="#FC6011"/>
<path d="M53.3918 60.0254C53.3918 59.7715 53.2863 59.5781 53.0754 59.4453C52.8684 59.3125 52.5227 59.1953 52.0383 59.0938C51.5539 58.9922 51.1496 58.8633 50.8254 58.707C50.1145 58.3633 49.759 57.8652 49.759 57.2129C49.759 56.666 49.9895 56.209 50.4504 55.8418C50.9113 55.4746 51.4973 55.291 52.2082 55.291C52.966 55.291 53.5773 55.4785 54.0422 55.8535C54.5109 56.2285 54.7453 56.7148 54.7453 57.3125H53.3215C53.3215 57.0391 53.2199 56.8125 53.0168 56.6328C52.8137 56.4492 52.5441 56.3574 52.2082 56.3574C51.8957 56.3574 51.6398 56.4297 51.4406 56.5742C51.2453 56.7188 51.1477 56.9121 51.1477 57.1543C51.1477 57.373 51.2395 57.543 51.423 57.6641C51.6066 57.7852 51.9777 57.9082 52.5363 58.0332C53.0949 58.1543 53.5324 58.3008 53.8488 58.4727C54.1691 58.6406 54.4055 58.8438 54.5578 59.082C54.7141 59.3203 54.7922 59.6094 54.7922 59.9492C54.7922 60.5195 54.5559 60.9824 54.0832 61.3379C53.6105 61.6895 52.9914 61.8652 52.2258 61.8652C51.7062 61.8652 51.2434 61.7715 50.8371 61.584C50.4309 61.3965 50.1145 61.1387 49.8879 60.8105C49.6613 60.4824 49.548 60.1289 49.548 59.75H50.9309C50.9504 60.0859 51.0773 60.3457 51.3117 60.5293C51.5461 60.709 51.8566 60.7988 52.2434 60.7988C52.6184 60.7988 52.9035 60.7285 53.0988 60.5879C53.2941 60.4434 53.3918 60.2559 53.3918 60.0254Z" fill="#FC6011"/>
<path d="M59.6793 61.8652C58.777 61.8652 58.0445 61.582 57.482 61.0156C56.9234 60.4453 56.6441 59.6875 56.6441 58.7422V58.5664C56.6441 57.9336 56.7652 57.3691 57.0074 56.873C57.2535 56.373 57.5973 55.9844 58.0387 55.707C58.4801 55.4297 58.9723 55.291 59.5152 55.291C60.3785 55.291 61.0445 55.5664 61.5133 56.1172C61.9859 56.668 62.2223 57.4473 62.2223 58.4551V59.0293H58.0797C58.1227 59.5527 58.2965 59.9668 58.6012 60.2715C58.9098 60.5762 59.2965 60.7285 59.7613 60.7285C60.4137 60.7285 60.9449 60.4648 61.3551 59.9375L62.1227 60.6699C61.8688 61.0488 61.5289 61.3438 61.1031 61.5547C60.6813 61.7617 60.2066 61.8652 59.6793 61.8652ZM59.5094 56.4336C59.1188 56.4336 58.8023 56.5703 58.5602 56.8438C58.3219 57.1172 58.1695 57.498 58.1031 57.9863H60.816V57.8809C60.7848 57.4043 60.6578 57.0449 60.4352 56.8027C60.2125 56.5566 59.9039 56.4336 59.5094 56.4336Z" fill="#FC6011"/>
</g>
<defs>
<clipPath id="clip0">
<rect width="64" height="64" fill="white"/>
</clipPath>
</defs>
</svg>
