<svg width="152" height="46" viewBox="0 0 152 46" fill="none" xmlns="http://www.w3.org/2000/svg">
<g clip-path="url(#clip0)">
<path d="M34.6211 24.4612V6.50145H38.1171V15.0381L45.6645 6.4729H49.5188L42.6281 14.4528L49.9485 24.4584H46.0228L40.424 16.6812L38.12 19.088V24.4584L34.6211 24.4612Z" fill="#190F30"/>
<path d="M54.859 24.4612C53.4915 24.4612 52.4532 24.022 51.7442 23.1436C51.0352 22.2652 50.6807 20.9647 50.6807 19.2422V10.934H54.0739V18.5084C54.0739 20.5517 54.8086 21.5734 56.278 21.5734C56.9602 21.5664 57.6253 21.3594 58.1909 20.9781C58.8076 20.5812 59.3101 19.9774 59.6984 19.1665V10.934H63.0931V20.3071C63.0931 20.6612 63.1559 20.9153 63.2829 21.0666C63.3629 21.1496 63.4593 21.2149 63.566 21.2584C63.6727 21.3019 63.7873 21.3226 63.9025 21.3193V24.2071C63.6225 24.2661 63.3394 24.3085 63.0545 24.3342C62.8261 24.3513 62.6191 24.3599 62.4335 24.3599C61.8268 24.3599 61.3315 24.2171 60.9518 23.9416C60.7657 23.8071 60.6099 23.6351 60.4943 23.4367C60.3787 23.2382 60.306 23.0178 60.2808 22.7896L60.2051 21.7247C59.6472 22.6061 58.8568 23.3164 57.9211 23.7775C56.9668 24.2384 55.9188 24.4724 54.859 24.4612Z" fill="#190F30"/>
<path d="M74.0107 24.4612C73.062 24.4779 72.1258 24.2419 71.2984 23.7774C70.5162 23.3328 69.8687 22.6852 69.424 21.9031V24.2071H66.4619V5.71631H69.8552V13.2637C70.2984 12.4834 70.9382 11.8327 71.711 11.3765C72.534 10.9153 73.4658 10.6836 74.409 10.7055C75.228 10.6961 76.0368 10.8877 76.7644 11.2637C77.471 11.6329 78.0955 12.1413 78.6002 12.7583C79.1314 13.4121 79.5352 14.1598 79.7908 14.9624C80.0724 15.8206 80.2136 16.7187 80.209 17.6219C80.2174 18.538 80.0587 19.4479 79.7408 20.3071C79.4463 21.1048 79.0036 21.8395 78.436 22.4727C77.8826 23.0866 77.2105 23.5819 76.4604 23.9288C75.6931 24.2849 74.8565 24.4668 74.0107 24.4612ZM73.0728 21.5733C73.5882 21.5787 74.0985 21.4705 74.5674 21.2564C75.0092 21.0556 75.4055 20.7671 75.7323 20.4085C76.0582 20.0457 76.312 19.6242 76.4803 19.1665C76.6598 18.6799 76.7498 18.1648 76.7459 17.6462C76.7483 17.1208 76.6629 16.5988 76.4932 16.1016C76.3341 15.6301 76.0892 15.1921 75.7709 14.8097C75.4653 14.4446 75.0908 14.1434 74.6688 13.9232C74.2382 13.7014 73.7599 13.5882 73.2755 13.5934C72.5281 13.5893 71.8043 13.8549 71.237 14.3415C70.6393 14.8371 70.1661 15.4658 69.8552 16.1773V19.3435C69.9706 19.677 70.1468 19.9863 70.3748 20.2557C70.5991 20.5222 70.8589 20.7566 71.1471 20.9524C71.4368 21.1478 71.7525 21.3015 72.085 21.4092C72.4035 21.5157 72.7369 21.5711 73.0728 21.5733Z" fill="#190F30"/>
<path d="M93.5321 22.2871C92.843 22.9973 92.0176 23.561 91.1053 23.9444C90.291 24.2868 89.4155 24.4602 88.5321 24.4541C87.6487 24.4479 86.7758 24.2624 85.9662 23.9087C85.146 23.5547 84.4012 23.0469 83.7721 22.4127C83.1226 21.7714 82.5974 21.0154 82.2232 20.1829C81.8634 19.3821 81.6692 18.5168 81.6522 17.639C81.6377 16.737 81.8067 15.8414 82.149 15.0067C82.5344 14.08 83.1046 13.2416 83.8249 12.5427C84.5163 11.8276 85.3484 11.2638 86.2689 10.8868C87.094 10.5539 87.9773 10.3894 88.867 10.4029C89.7332 10.4201 90.5868 10.6144 91.3751 10.9739C92.179 11.3369 92.91 11.8433 93.5321 12.4685C93.6877 12.6241 93.8334 12.7769 93.9718 12.9253C94.0892 13.0493 94.1939 13.1846 94.2845 13.3293L87.0312 20.5826C87.4013 20.8958 87.8263 21.1378 88.2845 21.2964C88.6975 21.4371 89.1335 21.4982 89.5693 21.4762C89.9969 21.453 90.4163 21.3493 90.8056 21.1707C91.1992 20.9921 91.5571 20.7435 91.8619 20.437C92.3349 19.9644 92.6789 19.3786 92.8612 18.7354C93.0553 18.1506 93.0366 17.5161 92.8084 16.9438L95.4408 15.4578C95.8133 16.5643 95.8505 17.7562 95.5478 18.8838C95.2556 20.1058 94.5838 21.2402 93.5321 22.2871ZM90.3088 14.1915C89.5474 13.5463 88.7237 13.2418 87.8377 13.2779C86.9657 13.3128 86.1391 13.6762 85.524 14.2953C84.9089 14.9144 84.5508 15.7433 84.5216 16.6155C84.5122 17.0452 84.5818 17.4729 84.7271 17.8774C84.8872 18.3164 85.1295 18.721 85.4409 19.0694L90.3088 14.1915Z" fill="#4CBA6F"/>
<path d="M98.3786 24.4612V14.4799H96.6313V11.8961H98.3786V11.0853C98.3786 9.43122 98.7755 8.12265 99.5692 7.15954C100.363 6.19644 101.444 5.71536 102.813 5.71631C103.947 5.72892 105.064 5.9973 106.08 6.50145L105.395 9.05959C105.109 8.91273 104.808 8.79783 104.497 8.71698C104.188 8.62897 103.868 8.581 103.546 8.57423C102.364 8.57423 101.773 9.36794 101.773 10.9554V11.8918H105.015V14.4756H101.773V24.4569L98.3786 24.4612Z" fill="#190F30"/>
<path d="M112.413 24.4612C111.414 24.4765 110.423 24.287 109.501 23.9045C108.675 23.5572 107.929 23.0441 107.309 22.397C106.713 21.7632 106.246 21.0188 105.935 20.2058C105.295 18.5165 105.295 16.6517 105.935 14.9625C106.247 14.1482 106.717 13.4032 107.317 12.7698C107.935 12.1232 108.679 11.6105 109.504 11.2637C110.426 10.8799 111.417 10.6899 112.416 10.7056C113.411 10.6893 114.398 10.8794 115.316 11.2637C116.138 11.6127 116.88 12.1251 117.498 12.7698C118.097 13.4033 118.566 14.1483 118.878 14.9625C119.52 16.6514 119.52 18.5169 118.878 20.2058C118.567 21.0171 118.103 21.761 117.511 22.397C116.897 23.0451 116.155 23.5585 115.332 23.9045C114.407 24.2878 113.414 24.4773 112.413 24.4612ZM108.943 17.5962C108.935 18.144 109.025 18.6887 109.208 19.2051C109.373 19.6648 109.623 20.0898 109.943 20.4584C110.247 20.8101 110.623 21.0928 111.045 21.2878C111.476 21.4804 111.943 21.58 112.416 21.58C112.888 21.58 113.355 21.4804 113.786 21.2878C114.207 21.094 114.582 20.8133 114.887 20.4642C115.21 20.0925 115.459 19.6628 115.622 19.1979C115.803 18.6767 115.891 18.1279 115.883 17.5763C115.888 17.0329 115.798 16.4928 115.618 15.9803C115.455 15.5156 115.205 15.086 114.882 14.7141C114.577 14.3653 114.202 14.0846 113.782 13.8904C113.352 13.6967 112.885 13.5993 112.413 13.6049C111.94 13.6012 111.472 13.7052 111.045 13.9089C110.625 14.1099 110.25 14.3946 109.943 14.7455C109.621 15.1175 109.371 15.5471 109.208 16.0117C109.029 16.5205 108.939 17.0567 108.943 17.5962Z" fill="#190F30"/>
<path d="M129.538 14.1258C128.586 14.1261 127.644 14.329 126.777 14.7211C126.006 15.0619 125.386 15.6705 125.03 16.4341V24.464H121.638V11.188H124.75V14.0245C124.976 13.5817 125.257 13.1688 125.586 12.7954C125.896 12.4418 126.244 12.1235 126.624 11.8461C126.971 11.5899 127.35 11.3811 127.752 11.2251C128.103 11.0874 128.476 11.0144 128.852 11.0095H129.271C129.36 11.0092 129.45 11.0178 129.538 11.0352V14.1258Z" fill="#190F30"/>
<path d="M152.057 24.4612H148.662V17.0138C148.662 15.9498 148.48 15.1727 148.117 14.6826C147.946 14.4452 147.718 14.254 147.455 14.1259C147.192 13.9979 146.902 13.937 146.609 13.9489C145.934 13.9489 145.3 14.2063 144.709 14.7211C144.105 15.2591 143.666 15.9576 143.443 16.7354V24.4612H140.053V17.0138C140.053 15.9498 139.871 15.1727 139.509 14.6826C139.338 14.4453 139.11 14.2541 138.847 14.1261C138.584 13.9981 138.294 13.9372 138.001 13.9489C137.344 13.9489 136.715 14.202 136.114 14.7083C135.5 15.2346 135.053 15.9294 134.829 16.7068V24.4583H131.435V11.1823H134.501V13.6391C134.969 12.7983 135.667 12.1084 136.514 11.6505C137.414 11.1739 138.421 10.9342 139.44 10.9539C140.554 10.9539 141.415 11.2237 142.024 11.7633C142.62 12.2848 143.029 12.9865 143.189 13.7618C143.68 12.8997 144.387 12.1801 145.24 11.6734C146.104 11.182 147.084 10.9325 148.078 10.951C148.888 10.951 149.554 11.1028 150.077 11.4064C150.579 11.6902 150.998 12.1007 151.292 12.597C151.588 13.1142 151.79 13.6803 151.887 14.2686C151.997 14.8959 152.053 15.5317 152.052 16.1687L152.057 24.4612Z" fill="#190F30"/>
<path d="M14.3772 0.217408L3.84055 5.29086C3.54428 5.43331 3.28399 5.6408 3.07908 5.89786C2.87418 6.15492 2.72994 6.45492 2.65713 6.77549L0.0547379 18.1772C-0.0186471 18.4988 -0.0182388 18.8328 0.0559327 19.1542C0.130104 19.4756 0.276112 19.7761 0.482997 20.033L7.7734 29.1763C7.97856 29.4337 8.23915 29.6414 8.53576 29.784C8.83236 29.9266 9.15733 30.0004 9.48644 30H21.1808C21.5099 30.0004 21.8349 29.9266 22.1315 29.784C22.4281 29.6414 22.6887 29.4337 22.8938 29.1763L30.1856 20.033C30.3925 19.7761 30.5385 19.4756 30.6127 19.1542C30.6869 18.8328 30.6873 18.4988 30.6139 18.1772L27.9915 6.77549C27.9185 6.455 27.7742 6.15509 27.5693 5.89806C27.3644 5.64102 27.1042 5.43348 26.8081 5.29086L16.2758 0.217408C15.9798 0.0743211 15.6552 0 15.3265 0C14.9977 0 14.6732 0.0743211 14.3772 0.217408Z" fill="#4CBA6F"/>
<path d="M6.59717 17.3293L7.88195 15.4221L9.59498 17.1351L11.879 15.9931L13.5921 17.7061L15.8761 14.2715L18.1602 15.9845L19.8732 15.4135L21.0152 17.1265L22.7283 15.4135L23.8703 17.6976L22.7283 21.7032L16.4329 24.5654L10.136 23.4234L6.73992 20.003L6.59717 17.3293Z" fill="#C7C5C5"/>
<path d="M22.1699 16.3057C22.1813 16.1401 22.1941 15.976 22.1941 15.8089C22.1935 14.1871 21.6185 12.6179 20.5712 11.3795C19.5238 10.1412 18.0718 9.31374 16.4726 9.04388C17.1535 8.90112 17.636 8.75837 17.0436 8.45716C16.4055 8.13739 15.766 8.52996 15.3306 8.93967C14.8909 8.52996 14.2528 8.13739 13.6175 8.45716C13.0251 8.75266 13.5062 8.89541 14.1885 9.04388C12.5893 9.31374 11.1373 10.1412 10.09 11.3795C9.04263 12.6179 8.46765 14.1871 8.46699 15.8089C8.46699 15.976 8.47984 16.1401 8.49268 16.3057C8.21574 20.083 4.88531 25.6275 15.3363 25.6275C25.7872 25.6275 22.4554 20.083 22.1799 16.3057" fill="#FFCB4E"/>
<path d="M17.0438 18.0359C17.0438 18.9838 16.2743 19.1779 15.3307 19.1779C14.3871 19.1779 13.6177 18.9824 13.6177 18.0359C13.6177 17.5805 13.7986 17.1437 14.1207 16.8216C14.4427 16.4995 14.8795 16.3186 15.335 16.3186C15.7905 16.3186 16.2273 16.4995 16.5493 16.8216C16.8714 17.1437 17.0523 17.5805 17.0523 18.0359" fill="#CA4627"/>
<path d="M12.464 15.5848C12.464 15.7542 12.4138 15.9198 12.3197 16.0606C12.2255 16.2015 12.0918 16.3113 11.9353 16.3761C11.7788 16.4409 11.6065 16.4579 11.4404 16.4249C11.2742 16.3918 11.1216 16.3102 11.0018 16.1904C10.8821 16.0707 10.8005 15.918 10.7674 15.7519C10.7344 15.5857 10.7513 15.4135 10.8162 15.257C10.881 15.1005 10.9908 14.9667 11.1316 14.8726C11.2725 14.7785 11.4381 14.7283 11.6075 14.7283C11.8347 14.7283 12.0525 14.8185 12.2131 14.9791C12.3738 15.1398 12.464 15.3576 12.464 15.5848Z" fill="#1B1131"/>
<path d="M19.9044 15.5848C19.9044 15.7542 19.8542 15.9198 19.7601 16.0606C19.666 16.2015 19.5322 16.3113 19.3757 16.3761C19.2192 16.4409 19.047 16.4579 18.8808 16.4249C18.7147 16.3918 18.5621 16.3102 18.4423 16.1904C18.3225 16.0707 18.2409 15.918 18.2079 15.7519C18.1748 15.5857 18.1918 15.4135 18.2566 15.257C18.3214 15.1005 18.4312 14.9667 18.5721 14.8726C18.7129 14.7785 18.8785 14.7283 19.0479 14.7283C19.2751 14.7283 19.4929 14.8185 19.6536 14.9791C19.8142 15.1398 19.9044 15.3576 19.9044 15.5848Z" fill="#1B1131"/>
<path d="M22.767 20.574L21.054 20.003L18.7699 23.4376L17.0569 20.5754L15.9149 21.7175L13.6308 20.5754L11.9178 22.8595L10.2047 19.4248L8.49169 20.5669L6.5788 16.1287C6.31167 16.9148 6.1752 17.7394 6.1748 18.5697C6.1748 23.1535 10.2761 26.8694 15.3338 26.8694C20.3916 26.8694 24.4915 23.1578 24.4915 18.5697C24.4881 17.8733 24.3886 17.1806 24.196 16.5112L22.767 20.574Z" fill="white"/>
<path d="M20.2687 6.31725C18.8555 5.5164 16.323 5.58492 15.4708 5.58492C14.6186 5.58492 12.0847 5.51497 10.6729 6.31582C8.92414 7.30652 9.08546 11.8832 9.08546 11.8832C9.08546 11.8832 11.0326 12.597 15.4708 12.597C19.909 12.597 21.8562 11.8832 21.8562 11.8832C21.8562 11.8832 22.0175 7.30795 20.2687 6.31725Z" fill="#742916"/>
<g style="mix-blend-mode:soft-light">
<path d="M18.6528 6.10319C17.428 6.01897 16.3802 6.44294 16.3116 7.04965C16.2431 7.65635 17.181 8.21736 18.4044 8.30159C19.6278 8.38581 20.6785 7.96184 20.747 7.35513C20.8155 6.74843 19.8776 6.18742 18.6528 6.10319Z" fill="#BCABD3"/>
</g>
<g style="mix-blend-mode:multiply">
<g style="mix-blend-mode:multiply">
<path d="M8.87258 12.2686C8.00321 11.7361 7.63633 10.9995 7.74625 10.6883C7.61098 10.6825 7.47563 10.6979 7.34512 10.734C6.94969 10.8425 7.26089 11.8004 8.32583 12.447C9.39077 13.0937 13.0196 13.6733 15.4635 13.6733C17.6048 13.6733 20.7054 13.2265 22.1343 12.674C20.5641 13.1394 17.9103 13.4906 16.0102 13.4906C13.5734 13.4949 9.93609 12.921 8.87258 12.2686Z" fill="#C4A582"/>
</g>
</g>
<g style="mix-blend-mode:multiply">
<path d="M13.3662 10.8011C11.3006 9.87605 10.948 6.90251 12.8409 5.6991C12.0586 5.79902 11.2706 5.9846 10.6725 6.31722C9.00656 7.26082 9.07508 11.4563 9.08507 11.8532C9.17786 11.8932 9.27351 11.9346 9.37058 11.976C10.0587 12.1672 12.0044 12.9581 15.4661 12.9581C19.9058 12.9581 21.8515 11.886 21.8515 11.886C21.8515 11.886 21.8515 11.8361 21.8515 11.7433C21.6117 11.7204 21.3119 11.4264 20.6138 11.4578C17.8858 11.562 15.6403 11.8189 13.3662 10.8011Z" fill="#C3BE80"/>
</g>
<path d="M12.9138 11.7048C12.9073 11.249 13.0365 10.8016 13.2849 10.4194C13.5333 10.0372 13.8898 9.73754 14.309 9.55846C14.7281 9.37937 15.1911 9.32898 15.639 9.41369C16.0869 9.4984 16.4995 9.71438 16.8243 10.0342C17.1491 10.354 17.3715 10.7631 17.4632 11.2096C17.5549 11.6562 17.5118 12.1199 17.3393 12.5418C17.1668 12.9637 16.8727 13.3248 16.4944 13.5792C16.1162 13.8336 15.6708 13.9697 15.215 13.9703C14.6095 13.9749 14.0269 13.7388 13.5954 13.314C13.1639 12.8891 12.9187 12.3103 12.9138 11.7048ZM15.2136 9.99178C14.8762 9.99797 14.5481 10.1037 14.2706 10.2956C13.993 10.4876 13.7783 10.7572 13.6535 11.0707C13.5286 11.3842 13.4992 11.7277 13.5688 12.0579C13.6384 12.3881 13.8039 12.6903 14.0447 12.9268C14.2855 13.1632 14.5907 13.3233 14.9222 13.3869C15.2536 13.4505 15.5964 13.4148 15.9076 13.2842C16.2188 13.1537 16.4845 12.9342 16.6713 12.6532C16.8582 12.3722 16.9579 12.0423 16.958 11.7048C16.9524 11.2464 16.7659 10.8088 16.4392 10.4872C16.1125 10.1655 15.672 9.98596 15.2136 9.9875V9.99178Z" fill="white"/>
<path d="M14.9824 9.29646L15.0666 9.2365L15.0053 9.18226C15.0436 9.15856 15.0721 9.12191 15.0858 9.07896C15.0994 9.03601 15.0972 8.9896 15.0795 8.94814C15.0609 8.87962 15.0338 8.81396 15.011 8.74686C14.9925 8.7035 14.9874 8.65562 14.9963 8.60934C15.0052 8.56306 15.0277 8.52048 15.0609 8.48705C15.0979 8.45747 15.1427 8.43929 15.1899 8.43473C15.237 8.43017 15.2845 8.43942 15.3265 8.46136C15.3769 8.49224 15.4136 8.54125 15.429 8.59834C15.4444 8.65542 15.4373 8.71623 15.4093 8.76827C15.3864 8.8268 15.3636 8.88676 15.3464 8.94814C15.3294 8.99004 15.3277 9.0366 15.3415 9.07966C15.3553 9.12272 15.3839 9.15954 15.4221 9.18369L15.3607 9.23222L15.4578 9.31074H14.9867L14.9824 9.29646Z" fill="white"/>
<path d="M15.001 14.2329L15.0624 14.1843L14.9653 14.1058H15.455L15.3579 14.1815L15.4179 14.2343C15.3797 14.2582 15.3512 14.2948 15.3374 14.3376C15.3236 14.3804 15.3253 14.4267 15.3422 14.4684C15.3608 14.5341 15.3879 14.5983 15.4093 14.6626C15.4297 14.7054 15.4358 14.7536 15.4267 14.8002C15.4176 14.8468 15.3938 14.8892 15.3588 14.9212C15.3237 14.9532 15.2794 14.973 15.2322 14.9779C15.185 14.9827 15.1375 14.9723 15.0967 14.9481C15.0458 14.918 15.0087 14.8692 14.9932 14.8121C14.9778 14.7551 14.9852 14.6943 15.0139 14.6426C15.0367 14.5826 15.0595 14.5241 15.0767 14.4627C15.0919 14.4215 15.0928 14.3763 15.079 14.3346C15.0653 14.2928 15.0378 14.257 15.001 14.2329Z" fill="white"/>
<path d="M13.2749 13.3436L13.3534 13.355V13.2765L13.6389 13.5877L13.6632 13.572L13.5661 13.5648V13.6334C13.5661 13.6334 13.559 13.6419 13.5561 13.6405C13.5157 13.6322 13.4736 13.6379 13.4368 13.6565C13.4 13.6752 13.3706 13.7058 13.3534 13.7433C13.3205 13.803 13.2909 13.8644 13.2649 13.9274C13.2508 13.9788 13.219 14.0236 13.1751 14.0537C13.1311 14.0839 13.078 14.0975 13.0249 14.0922C12.9719 14.0869 12.9225 14.063 12.8854 14.0247C12.8483 13.9865 12.826 13.9363 12.8224 13.8832C12.8209 13.8307 12.8365 13.7792 12.8669 13.7365C12.8973 13.6937 12.9408 13.662 12.9908 13.6462C13.0496 13.6229 13.1069 13.5957 13.1621 13.5648C13.2045 13.5479 13.2394 13.5161 13.2601 13.4754C13.2809 13.4347 13.2861 13.3879 13.2749 13.3436Z" fill="white"/>
<path d="M16.8569 13.6448V13.5634L16.7827 13.572L17.0682 13.2565V13.3521H17.1382C17.1382 13.3521 17.1382 13.3607 17.1382 13.365C17.1303 13.4039 17.1356 13.4444 17.1532 13.48C17.1707 13.5156 17.1996 13.5445 17.2352 13.562C17.2969 13.5967 17.3608 13.6272 17.4265 13.6533C17.4639 13.6651 17.4975 13.6864 17.5241 13.7151C17.5507 13.7438 17.5694 13.7789 17.5783 13.8171C17.5873 13.8552 17.5861 13.895 17.575 13.9325C17.5639 13.97 17.5432 14.004 17.5149 14.0312C17.4867 14.0583 17.4519 14.0776 17.4139 14.0871C17.376 14.0967 17.3362 14.0962 17.2984 14.0858C17.2607 14.0753 17.2264 14.0552 17.1988 14.0274C17.1712 13.9997 17.1513 13.9652 17.141 13.9274C17.1179 13.8687 17.0912 13.8115 17.0611 13.7561C17.044 13.7177 17.0148 13.686 16.9779 13.6659C16.941 13.6457 16.8985 13.6383 16.8569 13.6448Z" fill="white"/>
<path d="M16.7627 9.8404L16.8541 9.85182V9.7733C16.9039 9.78161 16.9551 9.77177 16.9983 9.74558C17.0415 9.71939 17.0739 9.67858 17.0896 9.63055C17.1267 9.5606 17.1524 9.48779 17.1938 9.41927C17.2164 9.37868 17.2524 9.34722 17.2956 9.33029C17.3389 9.31335 17.3867 9.31201 17.4308 9.32648C17.4773 9.34043 17.5183 9.3683 17.5485 9.40634C17.5786 9.44438 17.5963 9.49075 17.5992 9.53919C17.5974 9.58891 17.5804 9.63688 17.5506 9.67668C17.5207 9.71648 17.4794 9.74621 17.4322 9.76188C17.3851 9.78187 17.338 9.80043 17.2895 9.82327C17.2409 9.83957 17.1998 9.87273 17.1736 9.91673C17.1474 9.96072 17.1379 10.0127 17.1467 10.0631H17.0682L17.0768 10.1373L16.7912 9.82184L16.7627 9.8404Z" fill="white"/>
<path d="M13.5733 9.7719V9.84898L13.6661 9.84042L13.6532 9.82757L13.3563 10.1559V10.0645H13.2792C13.2883 10.0167 13.28 9.96717 13.256 9.92481C13.2319 9.88246 13.1936 9.85002 13.1479 9.83328C13.0765 9.79474 13.0051 9.76762 12.9309 9.72479C12.8911 9.7036 12.8598 9.66928 12.8423 9.62765C12.8249 9.58602 12.8224 9.53965 12.8353 9.49638C12.8481 9.44942 12.8749 9.40747 12.9121 9.37611C12.9493 9.34475 12.9952 9.32546 13.0437 9.3208C13.0961 9.32137 13.147 9.33873 13.1889 9.37033C13.2308 9.40192 13.2614 9.4461 13.2764 9.49638C13.3017 9.55716 13.3307 9.61628 13.3634 9.6734C13.3826 9.71069 13.4136 9.74057 13.4516 9.75839C13.4896 9.77621 13.5323 9.78096 13.5733 9.7719Z" fill="white"/>
<path d="M17.7363 11.9232C17.7149 11.8689 17.6907 11.8375 17.6436 11.9017V11.5235L17.6949 11.5549L17.7392 11.4978C17.7648 11.5379 17.804 11.5674 17.8496 11.581C17.8952 11.5947 17.9442 11.5915 17.9876 11.572C18.0533 11.552 18.1161 11.5249 18.1817 11.5035C18.2251 11.4847 18.2733 11.4801 18.3195 11.4903C18.3656 11.5006 18.4074 11.5252 18.4387 11.5606C18.4732 11.6013 18.4923 11.6528 18.4926 11.7062C18.4929 11.7596 18.4744 11.8113 18.4403 11.8524C18.4062 11.8935 18.3588 11.9212 18.3062 11.9308C18.2537 11.9403 18.1995 11.931 18.1532 11.9046C18.0903 11.8786 18.0259 11.8562 17.9605 11.8375C17.919 11.8238 17.874 11.8248 17.8332 11.8404C17.7923 11.856 17.7581 11.8853 17.7363 11.9232Z" fill="white"/>
<path d="M12.69 11.492C12.7143 11.5406 12.7343 11.5862 12.7828 11.5106V11.8903L12.7314 11.8589L12.6872 11.916C12.6634 11.8773 12.6266 11.8484 12.5834 11.8345C12.5402 11.8207 12.4934 11.8227 12.4516 11.8403C12.3845 11.8589 12.3189 11.886 12.2518 11.9089C12.2088 11.9297 12.1602 11.936 12.1133 11.9269C12.0664 11.9179 12.0237 11.8939 11.9916 11.8585C11.9595 11.8232 11.9397 11.7784 11.9351 11.7309C11.9305 11.6834 11.9415 11.6356 11.9663 11.5948C11.9964 11.5436 12.0453 11.5062 12.1026 11.4904C12.1599 11.4747 12.2211 11.4819 12.2732 11.5106C12.3331 11.5334 12.3959 11.5577 12.4588 11.5748C12.5009 11.5904 12.5471 11.5906 12.5894 11.5755C12.6317 11.5603 12.6673 11.5308 12.69 11.492Z" fill="white"/>
<path d="M14.5398 11.5506C14.5696 11.5331 14.5938 11.5074 14.6095 11.4765C14.6252 11.4456 14.6317 11.4109 14.6283 11.3765C14.6283 11.3579 14.6126 11.3322 14.5983 11.3294C14.5545 11.3203 14.5132 11.3016 14.4774 11.2747C14.4417 11.2478 14.4123 11.2133 14.3913 11.1738C14.3628 11.1224 14.3328 11.0724 14.3071 11.0196C14.2457 10.894 14.2472 10.894 14.1058 10.9282V10.7855H13.9431C13.9517 10.7569 13.9517 10.7269 13.9674 10.7112C14.053 10.6242 14.1415 10.5399 14.23 10.4571C14.2429 10.4457 14.2671 10.4471 14.2843 10.4429C14.2881 10.4612 14.2904 10.4798 14.2914 10.4985C14.2914 10.5299 14.2914 10.5613 14.2914 10.597H14.4342C14.4056 10.7398 14.407 10.7398 14.5355 10.8012C14.5985 10.8281 14.6579 10.8626 14.7125 10.904C14.7606 10.9524 14.8032 11.0061 14.8396 11.0638C14.851 11.0795 14.8524 11.1181 14.8596 11.1181C14.9011 11.1219 14.9431 11.1165 14.9823 11.1024C15.058 11.0653 15.0723 11.0267 15.028 10.9482C15.0119 10.9156 15.0025 10.8802 15.0003 10.8439C14.998 10.8076 15.0031 10.7712 15.0152 10.7369C15.0306 10.67 15.0506 10.6042 15.0751 10.5399C15.1051 10.4657 15.0908 10.4172 15.0123 10.3972C14.9998 10.3906 14.9878 10.383 14.9766 10.3743L15.0908 10.2673L14.9566 10.1602C15.1257 10.1258 15.3 10.1258 15.4691 10.1602L15.3464 10.2773L15.4563 10.3815L15.392 10.4157C15.3817 10.4191 15.3722 10.4246 15.3642 10.432C15.3562 10.4394 15.35 10.4485 15.3459 10.4585C15.3418 10.4686 15.34 10.4795 15.3406 10.4903C15.3411 10.5012 15.3441 10.5118 15.3492 10.5214C15.3735 10.5885 15.3892 10.6641 15.412 10.7255C15.4398 10.8136 15.4357 10.9085 15.4006 10.9939C15.4006 11.0153 15.3749 11.0481 15.3806 11.0553C15.4087 11.0866 15.444 11.1106 15.4834 11.1252C15.5648 11.1481 15.5862 11.1409 15.6147 11.051C15.6397 10.9801 15.6908 10.9214 15.7575 10.8868C15.8002 10.8598 15.8445 10.8355 15.8902 10.814C16.0201 10.7484 16.0216 10.7498 15.9916 10.6085H16.1344V10.5028C16.1344 10.4871 16.1344 10.47 16.1344 10.4543C16.1344 10.4386 16.1729 10.4543 16.1829 10.4643C16.2771 10.5528 16.3713 10.6413 16.4684 10.7341C16.4812 10.7455 16.477 10.7726 16.4812 10.7983L16.3214 10.7898V10.9325C16.3071 10.9325 16.3028 10.9439 16.2985 10.9425C16.1743 10.9111 16.1757 10.9111 16.1158 11.0296C16.092 11.0885 16.0608 11.1441 16.023 11.1952C15.9706 11.2503 15.9133 11.3005 15.8517 11.3451C15.8346 11.3579 15.7917 11.3622 15.7917 11.3693C15.7927 11.4131 15.8005 11.4564 15.8146 11.4978C15.8446 11.5749 15.9074 11.572 15.9573 11.5364C15.9882 11.5192 16.0225 11.5089 16.0577 11.5062C16.0929 11.5035 16.1283 11.5084 16.1615 11.5206C16.2229 11.5349 16.2842 11.5549 16.3442 11.5735C16.467 11.612 16.467 11.612 16.5555 11.4693L16.6311 11.6006L16.7368 11.4864C16.7939 11.4864 16.791 11.5321 16.7924 11.572C16.8067 11.8961 16.8024 11.9289 16.7382 11.9603L16.6368 11.8533L16.5369 11.9632C16.5261 11.9478 16.5165 11.9316 16.5084 11.9146C16.505 11.901 16.4983 11.8883 16.489 11.8777C16.4797 11.867 16.468 11.8588 16.4549 11.8536C16.4418 11.8485 16.4276 11.8465 16.4135 11.8479C16.3995 11.8494 16.386 11.8541 16.3742 11.8618C16.3185 11.8832 16.2585 11.8989 16.2014 11.9175C16.1476 11.938 16.0895 11.9446 16.0324 11.9369C15.9753 11.9292 15.921 11.9073 15.8745 11.8732L15.8389 11.9161C15.7518 12.0089 15.7575 12.086 15.8688 12.1231C15.9374 12.1496 15.9938 12.2004 16.0273 12.2658C16.0573 12.3158 16.0844 12.3672 16.1101 12.42C16.1686 12.5385 16.1686 12.5385 16.3042 12.4999V12.6427C16.3428 12.6427 16.3785 12.6427 16.4141 12.6427C16.4498 12.6427 16.4541 12.6427 16.4598 12.6555C16.4637 12.6628 16.4657 12.6709 16.4657 12.6791C16.4657 12.6873 16.4637 12.6954 16.4598 12.7026C16.3656 12.7954 16.2728 12.8882 16.1743 12.9767C16.1429 13.0053 16.1172 12.991 16.1215 12.9439C16.1258 12.8968 16.1215 12.8711 16.1315 12.8311H15.9788C15.9839 12.8113 15.9901 12.7918 15.9973 12.7726C16.0031 12.7619 16.0065 12.7501 16.0071 12.738C16.0078 12.7258 16.0057 12.7137 16.001 12.7025C15.9964 12.6912 15.9893 12.6812 15.9802 12.6731C15.9712 12.6649 15.9604 12.659 15.9488 12.6555C15.8703 12.617 15.7946 12.5756 15.7204 12.5328C15.6835 12.5136 15.6515 12.4862 15.6268 12.4529C15.6021 12.4195 15.5852 12.3809 15.5776 12.3401C15.569 12.3001 15.4748 12.2915 15.4249 12.3272C15.3975 12.3492 15.3713 12.3725 15.3464 12.3972C15.3858 12.453 15.4092 12.5186 15.414 12.5868C15.4188 12.655 15.4047 12.7232 15.3735 12.784C15.3663 12.8054 15.3592 12.8268 15.3535 12.8497C15.3107 12.9824 15.3107 12.9824 15.4363 13.0581L15.3278 13.1609L15.4477 13.2737C15.282 13.3079 15.111 13.3079 14.9452 13.2737L15.0666 13.1566L14.9566 13.051L15.0152 13.021C15.027 13.0179 15.038 13.0121 15.0472 13.004C15.0564 12.9959 15.0636 12.9857 15.0682 12.9743C15.0728 12.9629 15.0746 12.9506 15.0736 12.9384C15.0726 12.9262 15.0687 12.9144 15.0623 12.9039C15.0409 12.8483 15.0266 12.7883 15.0066 12.7298C14.9846 12.6744 14.9769 12.6144 14.9841 12.5553C14.9913 12.4962 15.0133 12.4399 15.048 12.3914C15.0253 12.3668 15 12.3447 14.9723 12.3258C14.9403 12.3152 14.9073 12.3075 14.8738 12.3029C14.8139 12.2872 14.8282 12.3329 14.8182 12.3643C14.7851 12.4489 14.7206 12.5174 14.6383 12.5556C14.5912 12.5813 14.5455 12.607 14.4955 12.6313C14.3799 12.6884 14.3799 12.6884 14.4213 12.8226H14.2871C14.2871 12.8625 14.2871 12.9011 14.2943 12.9382C14.3014 12.9753 14.2729 12.9996 14.2429 12.9725C14.1444 12.8839 14.0502 12.7926 13.9574 12.6984C13.9459 12.6869 13.9502 12.6598 13.9474 12.6398H14.1044V12.5056C14.1201 12.5056 14.1258 12.4971 14.1301 12.5056C14.25 12.5399 14.2486 12.5399 14.3043 12.43C14.3351 12.3607 14.3729 12.2947 14.417 12.233C14.4649 12.184 14.5181 12.1405 14.5755 12.1031C14.594 12.0902 14.6354 12.0845 14.634 12.0774C14.6325 12.0336 14.6244 11.9902 14.6097 11.9489C14.5919 11.9209 14.5703 11.8954 14.5455 11.8732C14.3928 11.996 14.2372 11.9261 14.0816 11.8732C13.9545 11.8333 13.9545 11.8333 13.8789 11.9732L13.7761 11.849L13.6647 11.9675C13.6481 11.9427 13.636 11.9151 13.629 11.8861C13.6062 11.6291 13.6205 11.5192 13.6776 11.4821L13.7804 11.5935L13.8846 11.4821C13.8956 11.5006 13.9056 11.5196 13.9145 11.5392C13.918 11.5509 13.9239 11.5616 13.9321 11.5707C13.9402 11.5797 13.9502 11.5868 13.9615 11.5915C13.9727 11.5961 13.9848 11.5982 13.997 11.5976C14.0091 11.5969 14.0209 11.5936 14.0316 11.5877C14.0873 11.5649 14.1472 11.5506 14.2058 11.5321C14.2587 11.5076 14.3169 11.4965 14.3751 11.4998C14.4333 11.503 14.4899 11.5205 14.5398 11.5506ZM15.2065 11.2152C15.0786 11.2181 14.9568 11.2707 14.8671 11.3619C14.7773 11.453 14.7265 11.5755 14.7254 11.7034C14.7244 11.7676 14.7363 11.8315 14.7603 11.8911C14.7843 11.9507 14.8199 12.005 14.8651 12.0507C14.9103 12.0964 14.9641 12.1327 15.0234 12.1574C15.0828 12.182 15.1465 12.1946 15.2107 12.1944C15.339 12.1945 15.4622 12.1449 15.5546 12.056C15.647 11.9671 15.7013 11.8458 15.7061 11.7176C15.7029 11.5859 15.6493 11.4604 15.5563 11.3669C15.4634 11.2734 15.3382 11.2191 15.2065 11.2152Z" fill="white"/>
<path d="M15.2179 11.3678C15.3076 11.3688 15.3933 11.4053 15.4561 11.4694C15.5189 11.5335 15.5536 11.62 15.5526 11.7097C15.5517 11.7994 15.5151 11.8851 15.451 11.9479C15.3869 12.0107 15.3005 12.0454 15.2108 12.0445C15.1663 12.044 15.1224 12.0348 15.0816 12.0173C15.0407 11.9999 15.0037 11.9746 14.9726 11.9429C14.9098 11.8787 14.875 11.7923 14.876 11.7026C14.8769 11.6128 14.9135 11.5272 14.9776 11.4644C15.0417 11.4016 15.1282 11.3669 15.2179 11.3678ZM15.4006 11.7076C15.4009 11.6702 15.3901 11.6337 15.3696 11.6025C15.349 11.5713 15.3197 11.5469 15.2853 11.5325C15.2509 11.518 15.2129 11.514 15.1763 11.5212C15.1397 11.5283 15.1059 11.5461 15.0794 11.5724C15.053 11.5987 15.0349 11.6323 15.0275 11.6688C15.0201 11.7054 15.0237 11.7434 15.038 11.7779C15.0522 11.8124 15.0763 11.8419 15.1073 11.8627C15.1384 11.8835 15.1748 11.8946 15.2122 11.8946C15.237 11.8954 15.2618 11.8911 15.2849 11.882C15.308 11.8729 15.329 11.8591 15.3467 11.8416C15.3643 11.8241 15.3782 11.8032 15.3875 11.7802C15.3967 11.7571 15.4012 11.7324 15.4006 11.7076Z" fill="white"/>
<path d="M9.08252 11.0381V12.1159C11.0971 12.9942 13.2674 13.4592 15.465 13.4834C17.648 13.4683 19.811 13.0657 21.8532 12.2943V11.1637C21.8532 11.1637 19.3279 11.8361 15.475 11.8361C11.6221 11.8361 9.08252 11.0381 9.08252 11.0381Z" fill="#0D0E0E"/>
<path d="M17.6004 13.1251H12.8281V14.9823H17.6004V13.1251Z" fill="#FFCB4E"/>
<path d="M23.5961 10.7341C23.0136 10.5742 22.2271 11.101 20.4969 11.8076C18.8938 12.4368 17.187 12.7598 15.4648 12.7598C13.5719 12.7598 11.3935 12.2601 10.0402 11.5849C8.46994 10.8026 7.92605 10.5742 7.34219 10.7284C6.94676 10.8369 7.25796 11.7948 8.3229 12.4414C9.38784 13.0881 13.0166 13.6677 15.4606 13.6677C17.8874 13.6677 21.5418 13.0967 22.5982 12.4414C23.6546 11.7862 23.9943 10.8426 23.5961 10.7341Z" fill="#90523E"/>
<path d="M4.93849 39.8575H1.4682V42.439H5.52461V43.6029H0V35.2132H5.48399V36.3887H1.4682V38.7051H4.93849V39.8575Z" fill="#FC6011"/>
<path d="M18.8858 37.3683L18.9264 38.0885C19.3907 37.5315 20 37.253 20.7544 37.253C22.0621 37.253 22.7275 37.9963 22.7507 39.483V43.6029H21.3406V39.5636C21.3406 39.168 21.2535 38.876 21.0794 38.6878C20.9092 38.4957 20.6287 38.3997 20.238 38.3997C19.6693 38.3997 19.2456 38.6551 18.9671 39.1661V43.6029H17.5569V37.3683H18.8858Z" fill="#FC6011"/>
<path d="M36.9534 35.8528V37.3683H38.0618V38.4054H36.9534V41.8858C36.9534 42.124 36.9998 42.2968 37.0927 42.4044C37.1894 42.5081 37.3596 42.56 37.6034 42.56C37.7658 42.56 37.9303 42.5408 38.0966 42.5024V43.5856C37.7755 43.674 37.466 43.7182 37.1681 43.7182C36.0849 43.7182 35.5432 43.1247 35.5432 41.9377V38.4054H34.5103V37.3683H35.5432V35.8528H36.9534Z" fill="#FC6011"/>
<path d="M52.9028 43.7182C52.0091 43.7182 51.2837 43.4397 50.7266 42.8827C50.1734 42.3218 49.8968 41.5766 49.8968 40.6469V40.4741C49.8968 39.8518 50.0167 39.2967 50.2566 38.8088C50.5003 38.3171 50.8408 37.9349 51.2779 37.6621C51.7151 37.3894 52.2026 37.253 52.7403 37.253C53.5953 37.253 54.255 37.5238 54.7192 38.0655C55.1873 38.6071 55.4214 39.3735 55.4214 40.3646V40.9293H51.3186C51.3611 41.444 51.5333 41.8512 51.835 42.1509C52.1407 42.4505 52.5237 42.6003 52.9841 42.6003C53.6301 42.6003 54.1563 42.341 54.5625 41.8224L55.3227 42.5427C55.0713 42.9153 54.7347 43.2053 54.313 43.4128C53.8952 43.6164 53.4251 43.7182 52.9028 43.7182ZM52.7345 38.3766C52.3477 38.3766 52.0343 38.5111 51.7944 38.78C51.5584 39.0489 51.4075 39.4234 51.3418 39.9036H54.0286V39.7999C53.9977 39.3312 53.8719 38.9778 53.6514 38.7397C53.4309 38.4976 53.1253 38.3766 52.7345 38.3766Z" fill="#FC6011"/>
<path d="M70.8021 38.6475C70.6164 38.6167 70.4249 38.6014 70.2276 38.6014C69.5815 38.6014 69.1463 38.8472 68.9219 39.3389V43.6029H67.5117V37.3683H68.858L68.8929 38.0655C69.2333 37.5238 69.7053 37.253 70.3088 37.253C70.51 37.253 70.6764 37.2799 70.8079 37.3337L70.8021 38.6475Z" fill="#FC6011"/>
<path d="M88.1849 40.549C88.1849 41.5132 87.9644 42.2834 87.5233 42.8596C87.0823 43.432 86.4904 43.7182 85.7476 43.7182C85.0589 43.7182 84.5076 43.4935 84.0937 43.044V46H82.6835V37.3683H83.9834L84.0414 38.0021C84.4554 37.5027 85.0183 37.253 85.7302 37.253C86.4962 37.253 87.0958 37.5373 87.5291 38.1058C87.9663 38.6705 88.1849 39.4561 88.1849 40.4625V40.549ZM86.7805 40.428C86.7805 39.8057 86.6548 39.312 86.4033 38.9471C86.1557 38.5822 85.7998 38.3997 85.3355 38.3997C84.7591 38.3997 84.3451 38.6359 84.0937 39.1084V41.8743C84.349 42.3583 84.7668 42.6003 85.3472 42.6003C85.7959 42.6003 86.1461 42.4217 86.3975 42.0644C86.6529 41.7033 86.7805 41.1578 86.7805 40.428Z" fill="#FC6011"/>
<path d="M103.664 38.6475C103.479 38.6167 103.287 38.6014 103.09 38.6014C102.444 38.6014 102.008 38.8472 101.784 39.3389V43.6029H100.374V37.3683H101.72L101.755 38.0655C102.095 37.5238 102.567 37.253 103.171 37.253C103.372 37.253 103.539 37.2799 103.67 37.3337L103.664 38.6475Z" fill="#FC6011"/>
<path d="M117.049 43.6029H115.639V37.3683H117.049V43.6029ZM115.551 35.7491C115.551 35.534 115.619 35.3553 115.755 35.2132C115.894 35.0711 116.091 35 116.347 35C116.602 35 116.799 35.0711 116.938 35.2132C117.078 35.3553 117.147 35.534 117.147 35.7491C117.147 35.9604 117.078 36.1371 116.938 36.2792C116.799 36.4175 116.602 36.4866 116.347 36.4866C116.091 36.4866 115.894 36.4175 115.755 36.2792C115.619 36.1371 115.551 35.9604 115.551 35.7491Z" fill="#FC6011"/>
<path d="M133.103 41.9089C133.103 41.6592 132.998 41.469 132.789 41.3384C132.584 41.2078 132.242 41.0925 131.762 40.9927C131.282 40.8928 130.882 40.766 130.561 40.6124C129.857 40.2743 129.505 39.7845 129.505 39.143C129.505 38.6052 129.733 38.1558 130.189 37.7947C130.646 37.4336 131.226 37.253 131.93 37.253C132.681 37.253 133.286 37.4374 133.747 37.8062C134.211 38.175 134.443 38.6532 134.443 39.241H133.033C133.033 38.9721 132.932 38.7493 132.731 38.5726C132.53 38.392 132.263 38.3017 131.93 38.3017C131.621 38.3017 131.367 38.3728 131.17 38.5149C130.977 38.6571 130.88 38.8472 130.88 39.0854C130.88 39.3005 130.971 39.4676 131.153 39.5867C131.335 39.7058 131.702 39.8268 132.255 39.9497C132.809 40.0688 133.242 40.2129 133.555 40.3819C133.872 40.5471 134.107 40.7468 134.257 40.9811C134.412 41.2155 134.49 41.4997 134.49 41.8339C134.49 42.3948 134.255 42.85 133.787 43.1996C133.319 43.5453 132.706 43.7182 131.948 43.7182C131.433 43.7182 130.975 43.626 130.572 43.4416C130.17 43.2572 129.857 43.0037 129.632 42.681C129.408 42.3583 129.296 42.0107 129.296 41.638H130.665C130.685 41.9684 130.81 42.2239 131.042 42.4044C131.275 42.5811 131.582 42.6695 131.965 42.6695C132.337 42.6695 132.619 42.6003 132.812 42.462C133.006 42.3199 133.103 42.1355 133.103 41.9089Z" fill="#FC6011"/>
<path d="M149.481 43.7182C148.588 43.7182 147.862 43.4397 147.305 42.8827C146.752 42.3218 146.475 41.5766 146.475 40.6469V40.4741C146.475 39.8518 146.595 39.2967 146.835 38.8088C147.079 38.3171 147.419 37.9349 147.857 37.6621C148.294 37.3894 148.781 37.253 149.319 37.253C150.174 37.253 150.834 37.5238 151.298 38.0655C151.766 38.6071 152 39.3735 152 40.3646V40.9293H147.897C147.94 41.444 148.112 41.8512 148.414 42.1509C148.719 42.4505 149.102 42.6003 149.563 42.6003C150.209 42.6003 150.735 42.341 151.141 41.8224L151.901 42.5427C151.65 42.9153 151.313 43.2053 150.892 43.4128C150.474 43.6164 150.004 43.7182 149.481 43.7182ZM149.313 38.3766C148.926 38.3766 148.613 38.5111 148.373 38.78C148.137 39.0489 147.986 39.4234 147.92 39.9036H150.607V39.7999C150.576 39.3312 150.451 38.9778 150.23 38.7397C150.01 38.4976 149.704 38.3766 149.313 38.3766Z" fill="#FC6011"/>
</g>
<defs>
<clipPath id="clip0">
<rect width="152" height="46" fill="white"/>
</clipPath>
</defs>
</svg>
