<svg xmlns="http://www.w3.org/2000/svg" viewBox="0 0 195.95 39"><defs><style>.cls-1{isolation:isolate;}.cls-2{fill:#fff;}.cls-3{fill:none;}.cls-4{fill:#c7c5c5;}.cls-5{fill:#ffcb4e;}.cls-6{fill:#ca4627;}.cls-7{fill:#1b1131;}.cls-8{fill:#4cba6f;}.cls-9{fill:#742916;}.cls-10{fill:#bcabd3;mix-blend-mode:soft-light;}.cls-11,.cls-13{mix-blend-mode:multiply;}.cls-12{fill:#c4a582;}.cls-13{fill:#c3be80;}.cls-14{fill:#0d0e0e;}.cls-15{fill:#90523e;}</style></defs><title>kubrform white</title><g class="cls-1"><g id="Layer_1" data-name="Layer 1"><path class="cls-2" d="M18.63.37,5.08,6.89A2.86,2.86,0,0,0,3.55,8.8L.21,23.47a2.83,2.83,0,0,0,.54,2.38l9.38,11.76a2.8,2.8,0,0,0,2.2,1.06h15a2.8,2.8,0,0,0,2.2-1.06L39,25.85a2.8,2.8,0,0,0,.55-2.38L36.15,8.8a2.84,2.84,0,0,0-1.52-1.91L21.07.37A2.82,2.82,0,0,0,18.63.37Z"/><rect class="cls-3" x="7.06" y="6.57" width="25.58" height="25.58"/><path class="cls-2" d="M44.67,31.55V8.45h4.5v11l9.71-11h4.95L55,18.68l9.41,12.87h-5l-7.2-10-3,3.09v6.91Z"/><path class="cls-2" d="M70.7,31.55a4.84,4.84,0,0,1-4-1.69,7.81,7.81,0,0,1-1.37-5V14.15h4.36V23.9c0,2.62,1,3.94,2.84,3.94A4.48,4.48,0,0,0,75,27.07a5.54,5.54,0,0,0,1.94-2.33V14.15H81.3V26.21a1.57,1.57,0,0,0,.24,1,1.08,1.08,0,0,0,.8.32v3.72a10.65,10.65,0,0,1-1.09.16l-.8,0a3.15,3.15,0,0,1-1.91-.54,2.1,2.1,0,0,1-.86-1.48L77.58,28a7.2,7.2,0,0,1-2.93,2.64A8.81,8.81,0,0,1,70.7,31.55Z"/><path class="cls-2" d="M95.34,31.55a6.86,6.86,0,0,1-3.49-.88,6.41,6.41,0,0,1-2.41-2.41v3H85.63V7.44H90v9.71a6.56,6.56,0,0,1,2.39-2.43,6.82,6.82,0,0,1,3.47-.86,6.39,6.39,0,0,1,3,.72,7.53,7.53,0,0,1,2.36,1.92,8.39,8.39,0,0,1,1.53,2.83,10.83,10.83,0,0,1,.54,3.42,9.79,9.79,0,0,1-.6,3.46A8.58,8.58,0,0,1,101,29a7.86,7.86,0,0,1-2.54,1.88A7.47,7.47,0,0,1,95.34,31.55Zm-1.21-3.71a4.57,4.57,0,0,0,1.93-.41,4.67,4.67,0,0,0,1.5-1.09,5.05,5.05,0,0,0,1-1.6,5.71,5.71,0,0,0,.34-1.95,6,6,0,0,0-.33-2,4.92,4.92,0,0,0-.93-1.66A4.55,4.55,0,0,0,96.19,18a3.89,3.89,0,0,0-1.8-.43,4,4,0,0,0-2.62,1A6.29,6.29,0,0,0,90,20.9V25a3.55,3.55,0,0,0,.66,1.17,5,5,0,0,0,1,.9,4.78,4.78,0,0,0,1.2.59A4.17,4.17,0,0,0,94.13,27.84Z"/><path class="cls-2" d="M120.45,28.76a9.63,9.63,0,0,1-3.12,2.14,8.42,8.42,0,0,1-6.61,0,9,9,0,0,1-2.83-1.92,9.56,9.56,0,0,1-2-2.87,8.55,8.55,0,0,1-.74-3.27,8.69,8.69,0,0,1,.65-3.39,10.1,10.1,0,0,1,5.3-5.3,8.41,8.41,0,0,1,3.34-.62,8.3,8.3,0,0,1,3.23.73,9.28,9.28,0,0,1,2.77,1.93c.2.2.39.39.57.59a3.64,3.64,0,0,1,.4.51l-9.33,9.34a5.17,5.17,0,0,0,1.61.92,4.54,4.54,0,0,0,1.66.23,4.42,4.42,0,0,0,1.59-.39,4.57,4.57,0,0,0,1.36-.95,5.07,5.07,0,0,0,1.29-2.19,3.4,3.4,0,0,0-.07-2.3L122.92,20a7.7,7.7,0,0,1,.14,4.4A9.42,9.42,0,0,1,120.45,28.76ZM116.3,18.35a4.55,4.55,0,0,0-3.17-1.18,4.4,4.4,0,0,0-3,1.34,4.46,4.46,0,0,0-.94,1.38,4.31,4.31,0,0,0-.35,1.57A4.68,4.68,0,0,0,110,24.62Z"/><path class="cls-2" d="M126.69,31.55V18.71h-2.25V15.39h2.25v-1a7.71,7.71,0,0,1,1.53-5,5.11,5.11,0,0,1,4.17-1.86,9.73,9.73,0,0,1,4.2,1l-.88,3.29a5.52,5.52,0,0,0-1.16-.44,4.68,4.68,0,0,0-1.22-.18c-1.52,0-2.28,1-2.28,3.07v1.2h4.17v3.32h-4.17V31.55Z"/><path class="cls-2" d="M144.74,31.55a9.53,9.53,0,0,1-3.75-.71,8.49,8.49,0,0,1-2.82-1.94,8.62,8.62,0,0,1-1.77-2.82,9.07,9.07,0,0,1-.62-3.36,9.19,9.19,0,0,1,.62-3.39,8.62,8.62,0,0,1,1.77-2.82A8.32,8.32,0,0,1,141,14.58a9.36,9.36,0,0,1,3.75-.72,9.23,9.23,0,0,1,3.73.72,8.34,8.34,0,0,1,2.8,1.93,8.82,8.82,0,0,1,1.78,2.82,9.4,9.4,0,0,1,.62,3.39,9.27,9.27,0,0,1-.62,3.36,8.94,8.94,0,0,1-1.76,2.82,8.4,8.4,0,0,1-2.8,1.94A9.53,9.53,0,0,1,144.74,31.55Zm-4.47-8.83a5.91,5.91,0,0,0,.35,2.07,4.85,4.85,0,0,0,.94,1.61A4.2,4.2,0,0,0,143,27.46a4.2,4.2,0,0,0,4.93-1.06,4.77,4.77,0,0,0,1-1.63,6.44,6.44,0,0,0,0-4.13,4.86,4.86,0,0,0-1-1.63,4.16,4.16,0,0,0-3.17-1.44A4,4,0,0,0,143,18,4.54,4.54,0,0,0,141.56,19a4.94,4.94,0,0,0-.94,1.63A5.92,5.92,0,0,0,140.27,22.72Z"/><path class="cls-2" d="M166.76,18.26a8.76,8.76,0,0,0-3.55.76,4.55,4.55,0,0,0-2.25,2.2V31.55H156.6V14.48h4v3.65a7.87,7.87,0,0,1,2.41-2.8,6,6,0,0,1,1.45-.8,3.88,3.88,0,0,1,1.41-.28h.54a1.79,1.79,0,0,1,.34,0Z"/><path class="cls-2" d="M195.73,31.55h-4.36V22a5.1,5.1,0,0,0-.7-3,2.3,2.3,0,0,0-1.94-.95,3.68,3.68,0,0,0-2.45,1,5.56,5.56,0,0,0-1.63,2.59v9.94h-4.36V22a5.1,5.1,0,0,0-.7-3,2.3,2.3,0,0,0-1.94-.95,3.73,3.73,0,0,0-2.43,1,5.36,5.36,0,0,0-1.65,2.57v10h-4.36V14.48h3.94v3.16a6.51,6.51,0,0,1,2.59-2.56,7.72,7.72,0,0,1,3.77-.89,4.81,4.81,0,0,1,3.32,1,4.66,4.66,0,0,1,1.5,2.57A7.33,7.33,0,0,1,187,15.11a7.1,7.1,0,0,1,3.65-.92,5.07,5.07,0,0,1,2.57.58,4.24,4.24,0,0,1,1.56,1.53,6.39,6.39,0,0,1,.77,2.15,14.3,14.3,0,0,1,.21,2.45Z"/><rect class="cls-3" x="8.07" y="7.14" width="23.56" height="23.56"/><g id="g12"><path id="path14" class="cls-4" d="M8.62,22.38l1.66-2.45,2.21,2.2,2.94-1.47,2.21,2.21,2.95-4.42,2.94,2.21,2.21-.73,1.47,2.2,2.21-2.2,1.48,2.94L29.42,28l-8.1,3.69-8.09-1.48L8.81,25.82Z"/></g><g id="g24"><path id="path26" class="cls-5" d="M28.65,21.06c0-.21,0-.42,0-.64a8.83,8.83,0,0,0-7.36-8.7c.87-.19,1.49-.37.73-.75a2,2,0,0,0-2.21.62h0A2,2,0,0,0,17.64,11c-.76.38-.14.56.74.75A8.83,8.83,0,0,0,11,20.42c0,.22,0,.43,0,.64-.36,4.86-4.64,12,8.8,12s9.16-7.13,8.8-12"/></g><g id="g28"><path id="path30" class="cls-6" d="M22.06,23.29c0,1.22-1,1.47-2.21,1.47s-2.21-.25-2.21-1.47a2.21,2.21,0,1,1,4.42,0"/></g><g id="g32"><path id="path34" class="cls-7" d="M16.17,20.14A1.11,1.11,0,1,1,15.07,19a1.1,1.1,0,0,1,1.1,1.11"/></g><g id="g36"><path id="path38" class="cls-7" d="M25.74,20.14A1.11,1.11,0,1,1,24.64,19a1.1,1.1,0,0,1,1.1,1.11"/></g><g id="g40"><path id="path42" class="cls-8" d="M29.42,26.55l-2.21-.73-2.94,4.41-2.21-3.68L20.59,28l-2.95-1.47L15.43,29.5l-2.2-4.42L11,26.55,8.59,20.83A9.71,9.71,0,0,0,8.07,24c0,5.9,5.28,10.68,11.78,10.68S31.63,29.87,31.63,24a9.68,9.68,0,0,0-.38-2.64Z"/></g><path class="cls-9" d="M26.21,8.21c-1.82-1-5.08-.94-6.17-.94s-4.36-.09-6.17.94c-2.25,1.28-2,7.17-2,7.17s2.51.92,8.22.92,8.21-.92,8.21-.92S28.46,9.49,26.21,8.21Z"/><path class="cls-10" d="M24.13,7.94c-1.57-.11-2.92.44-3,1.22s1.12,1.5,2.69,1.61,2.93-.44,3-1.22S25.71,8.05,24.13,7.94Z"/><g class="cls-11"><path class="cls-12" d="M11.55,15.87c-1.12-.69-1.59-1.63-1.45-2a1.43,1.43,0,0,0-.51.06c-.51.13-.11,1.37,1.26,2.21s6,1.57,9.19,1.57a30,30,0,0,0,8.58-1.28,33.06,33.06,0,0,1-7.88,1.05C17.59,17.45,12.92,16.71,11.55,15.87Z"/></g><path class="cls-13" d="M17.33,14a3.79,3.79,0,0,1-.67-6.56,7.91,7.91,0,0,0-2.79.79c-2.15,1.22-2.06,6.62-2,7.13l.38.15A23.06,23.06,0,0,0,20,16.76c5.71,0,8.21-1.38,8.21-1.38V15.2a4.1,4.1,0,0,0-1.59-.37C23.14,15,20.26,15.29,17.33,14Z"/><path class="cls-2" d="M16.75,15.14a3,3,0,1,1,3,2.92A2.93,2.93,0,0,1,16.75,15.14Zm3-2.2A2.21,2.21,0,1,0,22,15.15,2.23,2.23,0,0,0,19.71,12.94Z"/><path class="cls-2" d="M19.41,12l.11-.08-.08-.06a.27.27,0,0,0,.1-.31l-.09-.25a.31.31,0,0,1,.06-.34.29.29,0,0,1,.45.36c0,.08-.06.16-.08.23a.25.25,0,0,0,.1.31L19.9,12l.12.1h-.6Z"/><path class="cls-2" d="M19.44,18.4l.08-.07-.13-.1H20l-.12.1.07.07a.24.24,0,0,0-.09.3A2.41,2.41,0,0,0,20,19a.29.29,0,0,1-.06.34.3.3,0,0,1-.34,0,.3.3,0,0,1-.11-.39,2.09,2.09,0,0,0,.08-.23A.24.24,0,0,0,19.44,18.4Z"/><path class="cls-2" d="M17.21,17.25l.1,0v-.1l.37.4,0,0h-.12v.09s0,0,0,0a.24.24,0,0,0-.26.14,1.63,1.63,0,0,0-.11.23.31.31,0,0,1-.31.21.3.3,0,0,1-.26-.26c0-.13.07-.24.22-.31l.22-.1A.25.25,0,0,0,17.21,17.25Z"/><path class="cls-2" d="M21.81,17.64v-.1h-.09l.37-.41v.12h.09s0,0,0,0a.25.25,0,0,0,.13.26l.24.12a.29.29,0,0,1,.21.31.29.29,0,0,1-.26.25A.3.3,0,0,1,22.2,18a1.47,1.47,0,0,0-.1-.22A.26.26,0,0,0,21.81,17.64Z"/><path class="cls-2" d="M21.7,12.75h.12v-.1a.27.27,0,0,0,.3-.18c.05-.09.08-.19.13-.27a.26.26,0,0,1,.31-.12.29.29,0,0,1,0,.56l-.18.08a.27.27,0,0,0-.18.31h-.11v.1l-.37-.41Z"/><path class="cls-2" d="M17.6,12.66v.1h.12l0,0-.38.42V13h-.1a.26.26,0,0,0-.17-.29l-.28-.14a.25.25,0,0,1-.12-.3.29.29,0,0,1,.56,0c0,.08.07.16.11.23A.26.26,0,0,0,17.6,12.66Z"/><path class="cls-2" d="M23,15.42c0-.06-.06-.11-.12,0v-.49l.07,0,.06-.07a.25.25,0,0,0,.32.09l.24-.09a.31.31,0,0,1,.34.08.32.32,0,0,1,0,.34.31.31,0,0,1-.39.1l-.25-.08A.25.25,0,0,0,23,15.42Z"/><path class="cls-2" d="M16.46,14.87c0,.06.06.12.12,0v.49l-.07,0-.05.08a.25.25,0,0,0-.31-.1l-.25.09a.31.31,0,0,1-.34-.07.29.29,0,0,1,.36-.45l.24.09A.25.25,0,0,0,16.46,14.87Z"/><path class="cls-2" d="M18.84,15a.25.25,0,0,0,.12-.23s0-.06,0-.06a.4.4,0,0,1-.27-.2,2,2,0,0,1-.11-.2c-.08-.16-.08-.16-.26-.12V14h-.21s0-.08,0-.1l.34-.33.07,0a.22.22,0,0,1,0,.08v.12h.18c0,.18,0,.18.13.27a.76.76,0,0,1,.23.13,1.08,1.08,0,0,1,.16.2s0,.07,0,.07a.44.44,0,0,0,.16,0c.09,0,.11-.09.06-.19a.35.35,0,0,1,0-.28,2.33,2.33,0,0,1,.07-.25c0-.1,0-.16-.07-.19l-.05,0,.15-.14-.18-.14a1.63,1.63,0,0,1,.66,0l-.16.15.15.13-.09.05c-.06,0-.08.06-.05.13s.05.18.08.26a.52.52,0,0,1,0,.35s0,.07,0,.08a.6.6,0,0,0,.13.09c.1,0,.13,0,.17-.1a.36.36,0,0,1,.19-.21l.17-.09c.17-.09.17-.09.13-.27h.18v-.13s0,0,0-.07.05,0,.06,0l.36.34a.64.64,0,0,1,0,.09h-.21v.17h0c-.16,0-.16,0-.23.12a1.43,1.43,0,0,1-.12.21l-.22.19-.08,0a.47.47,0,0,0,0,.17c0,.1.12.09.19.05a.3.3,0,0,1,.26,0l.24.06c.16.05.16.06.27-.13l.1.17.13-.15c.08,0,.07.06.07.11,0,.42,0,.46-.07.5l-.13-.14-.12.15,0-.07a.11.11,0,0,0-.17-.06L21,15.4a.46.46,0,0,1-.42-.06l0,.05c-.11.12-.11.22,0,.27a.41.41,0,0,1,.2.19l.11.19c.07.16.07.16.25.11v.19h.14s.05,0,.06,0,0,0,0,.06-.24.24-.37.35-.07,0-.06,0a.76.76,0,0,1,0-.15h-.2l0-.07a.11.11,0,0,0-.07-.15l-.29-.16a.36.36,0,0,1-.18-.25s-.13-.06-.19,0l-.1.09a.5.5,0,0,1,0,.5l0,.09c0,.17,0,.17.11.27l-.14.13.16.14a1.58,1.58,0,0,1-.65,0l.16-.15-.15-.14.08,0a.1.1,0,0,0,.06-.15c0-.07,0-.15-.07-.22a.46.46,0,0,1,.05-.44.39.39,0,0,0-.1-.08.42.42,0,0,0-.12,0c-.08,0-.06,0-.07.08a.45.45,0,0,1-.23.24l-.19.1c-.14.07-.15.07-.09.25h-.2c0,.05,0,.1,0,.15s0,.08-.07,0-.25-.23-.37-.35a.19.19,0,0,1,0-.08h.2v-.17h0c.15,0,.15,0,.22-.1a.92.92,0,0,1,.15-.25,1.12,1.12,0,0,1,.2-.17s.08,0,.07,0a.51.51,0,0,0,0-.17s-.05,0-.08-.09c-.2.15-.4.06-.6,0s-.16-.05-.26.13l-.13-.16-.14.15a.24.24,0,0,1-.05-.1c0-.33,0-.47.06-.52l.14.14.13-.14,0,.07c0,.07.07.09.15.06l.22-.07A.46.46,0,0,1,18.84,15Zm.86-.44a.64.64,0,0,0-.62.63.63.63,0,0,0,1.26,0A.67.67,0,0,0,19.7,14.51Z"/><path class="cls-2" d="M19.71,14.71a.42.42,0,0,1,.43.44.42.42,0,0,1-.44.43.44.44,0,0,1,0-.87Zm.24.44a.25.25,0,0,0-.24-.25.25.25,0,0,0-.25.24.25.25,0,0,0,.24.25A.24.24,0,0,0,20,15.15Z"/><path class="cls-14" d="M11.82,14.29v1.38A21.12,21.12,0,0,0,20,17.43a23.75,23.75,0,0,0,8.21-1.53V14.44a34.85,34.85,0,0,1-8.2.87A30.18,30.18,0,0,1,11.82,14.29Z"/><rect class="cls-5" x="16.64" y="16.97" width="6.14" height="2.39"/><path class="cls-15" d="M30.49,13.9c-.75-.21-1.76.47-4,1.38A17.8,17.8,0,0,1,20,16.5a17.08,17.08,0,0,1-7-1.51c-2-1-2.72-1.3-3.47-1.09-.51.13-.11,1.37,1.26,2.21s6,1.57,9.19,1.57,7.82-.73,9.19-1.57S31,14,30.49,13.9Z"/></g></g></svg>