<svg width="152" height="46" viewBox="0 0 152 46" fill="none" xmlns="http://www.w3.org/2000/svg">
<g clip-path="url(#clip0)">
<path d="M34.6211 24.4612V6.50145H38.1171V15.0381L45.6645 6.4729H49.5188L42.6281 14.4528L49.9485 24.4584H46.0228L40.424 16.6812L38.12 19.088V24.4584L34.6211 24.4612Z" fill="#190F30"/>
<path d="M54.859 24.4611C53.4915 24.4611 52.4532 24.0219 51.7442 23.1435C51.0352 22.2651 50.6807 20.9646 50.6807 19.2421V10.9338H54.0739V18.5083C54.0739 20.5516 54.8086 21.5732 56.278 21.5732C56.9602 21.5662 57.6253 21.3593 58.1909 20.9779C58.8076 20.5811 59.3101 19.9773 59.6984 19.1664V10.9338H63.0931V20.307C63.0931 20.661 63.1559 20.9151 63.2829 21.0665C63.3629 21.1494 63.4593 21.2148 63.566 21.2583C63.6727 21.3018 63.7873 21.3225 63.9025 21.3191V24.207C63.6225 24.266 63.3394 24.3084 63.0545 24.3341C62.8261 24.3512 62.6191 24.3598 62.4335 24.3598C61.8268 24.3598 61.3315 24.217 60.9518 23.9415C60.7657 23.807 60.6099 23.6349 60.4943 23.4365C60.3787 23.2381 60.306 23.0177 60.2808 22.7895L60.2051 21.7245C59.6472 22.6059 58.8568 23.3163 57.9211 23.7773C56.9668 24.2383 55.9188 24.4723 54.859 24.4611Z" fill="#190F30"/>
<path d="M74.0107 24.4612C73.062 24.4779 72.1258 24.2419 71.2984 23.7774C70.5162 23.3328 69.8687 22.6852 69.424 21.9031V24.2071H66.4619V5.71631H69.8552V13.2637C70.2984 12.4834 70.9382 11.8327 71.711 11.3765C72.534 10.9153 73.4658 10.6836 74.409 10.7055C75.228 10.6961 76.0368 10.8877 76.7644 11.2637C77.471 11.6329 78.0955 12.1413 78.6002 12.7583C79.1314 13.4121 79.5352 14.1598 79.7908 14.9624C80.0724 15.8206 80.2136 16.7187 80.209 17.6219C80.2174 18.538 80.0587 19.4479 79.7408 20.3071C79.4463 21.1048 79.0036 21.8395 78.436 22.4727C77.8826 23.0866 77.2105 23.5819 76.4604 23.9288C75.6931 24.2849 74.8565 24.4668 74.0107 24.4612ZM73.0728 21.5733C73.5882 21.5787 74.0985 21.4705 74.5674 21.2564C75.0092 21.0556 75.4055 20.7671 75.7323 20.4085C76.0582 20.0457 76.312 19.6242 76.4803 19.1665C76.6598 18.6799 76.7498 18.1648 76.7459 17.6462C76.7483 17.1208 76.6629 16.5988 76.4932 16.1016C76.3341 15.6301 76.0892 15.1921 75.7709 14.8097C75.4653 14.4446 75.0908 14.1434 74.6688 13.9232C74.2382 13.7014 73.7599 13.5882 73.2755 13.5934C72.5281 13.5893 71.8043 13.8549 71.237 14.3415C70.6393 14.8371 70.1661 15.4658 69.8552 16.1773V19.3435C69.9706 19.677 70.1468 19.9863 70.3748 20.2557C70.5991 20.5222 70.8589 20.7566 71.1471 20.9524C71.4368 21.1478 71.7525 21.3015 72.085 21.4092C72.4035 21.5157 72.7369 21.5711 73.0728 21.5733Z" fill="#190F30"/>
<path d="M93.5321 22.2871C92.843 22.9973 92.0176 23.561 91.1053 23.9444C90.291 24.2868 89.4155 24.4602 88.5321 24.4541C87.6487 24.4479 86.7758 24.2624 85.9662 23.9087C85.146 23.5547 84.4012 23.0469 83.7721 22.4127C83.1226 21.7714 82.5974 21.0154 82.2232 20.1829C81.8634 19.3821 81.6692 18.5168 81.6522 17.639C81.6377 16.737 81.8067 15.8414 82.149 15.0067C82.5344 14.08 83.1046 13.2416 83.8249 12.5427C84.5163 11.8276 85.3484 11.2638 86.2689 10.8868C87.094 10.5539 87.9773 10.3894 88.867 10.4029C89.7332 10.4201 90.5868 10.6144 91.3751 10.9739C92.179 11.3369 92.91 11.8433 93.5321 12.4685C93.6877 12.6241 93.8334 12.7769 93.9718 12.9253C94.0892 13.0493 94.1939 13.1846 94.2845 13.3293L87.0312 20.5826C87.4013 20.8958 87.8263 21.1378 88.2845 21.2964C88.6975 21.4371 89.1335 21.4982 89.5693 21.4762C89.9969 21.453 90.4163 21.3493 90.8056 21.1707C91.1992 20.9921 91.5571 20.7435 91.8619 20.437C92.3349 19.9644 92.6789 19.3786 92.8612 18.7354C93.0553 18.1506 93.0366 17.5161 92.8084 16.9438L95.4408 15.4578C95.8133 16.5643 95.8505 17.7562 95.5478 18.8838C95.2556 20.1058 94.5838 21.2402 93.5321 22.2871ZM90.3088 14.1915C89.5474 13.5463 88.7237 13.2418 87.8377 13.2779C86.9657 13.3128 86.1391 13.6762 85.524 14.2953C84.9089 14.9144 84.5508 15.7433 84.5216 16.6155C84.5122 17.0452 84.5818 17.4729 84.7271 17.8774C84.8872 18.3164 85.1295 18.721 85.4409 19.0694L90.3088 14.1915Z" fill="#4CBA6F"/>
<path d="M98.3786 24.4612V14.4799H96.6313V11.8961H98.3786V11.0853C98.3786 9.43122 98.7755 8.12265 99.5692 7.15954C100.363 6.19644 101.444 5.71536 102.813 5.71631C103.947 5.72892 105.064 5.9973 106.08 6.50145L105.395 9.05959C105.109 8.91273 104.808 8.79783 104.497 8.71698C104.188 8.62897 103.868 8.581 103.546 8.57423C102.364 8.57423 101.773 9.36794 101.773 10.9554V11.8918H105.015V14.4756H101.773V24.4569L98.3786 24.4612Z" fill="#190F30"/>
<path d="M112.413 24.4612C111.414 24.4765 110.423 24.287 109.501 23.9045C108.675 23.5572 107.929 23.0441 107.309 22.397C106.713 21.7632 106.246 21.0188 105.935 20.2058C105.295 18.5165 105.295 16.6517 105.935 14.9625C106.247 14.1482 106.717 13.4032 107.317 12.7698C107.935 12.1232 108.679 11.6105 109.504 11.2637C110.426 10.8799 111.417 10.6899 112.416 10.7056C113.411 10.6893 114.398 10.8794 115.316 11.2637C116.138 11.6127 116.88 12.1251 117.498 12.7698C118.097 13.4033 118.566 14.1483 118.878 14.9625C119.52 16.6514 119.52 18.5169 118.878 20.2058C118.567 21.0171 118.103 21.761 117.511 22.397C116.897 23.0451 116.155 23.5585 115.332 23.9045C114.407 24.2878 113.414 24.4773 112.413 24.4612ZM108.943 17.5962C108.935 18.144 109.025 18.6887 109.208 19.2051C109.373 19.6648 109.623 20.0898 109.943 20.4584C110.247 20.8101 110.623 21.0928 111.045 21.2878C111.476 21.4804 111.943 21.58 112.416 21.58C112.888 21.58 113.355 21.4804 113.786 21.2878C114.207 21.094 114.582 20.8133 114.887 20.4642C115.21 20.0925 115.459 19.6628 115.622 19.1979C115.803 18.6767 115.891 18.1279 115.883 17.5763C115.888 17.0329 115.798 16.4928 115.618 15.9803C115.455 15.5156 115.205 15.086 114.882 14.7141C114.577 14.3653 114.202 14.0846 113.782 13.8904C113.352 13.6967 112.885 13.5993 112.413 13.6049C111.94 13.6012 111.472 13.7052 111.045 13.9089C110.625 14.1099 110.25 14.3946 109.943 14.7455C109.621 15.1175 109.371 15.5471 109.208 16.0117C109.029 16.5205 108.939 17.0567 108.943 17.5962Z" fill="#190F30"/>
<path d="M129.538 14.1258C128.586 14.1261 127.644 14.329 126.777 14.7211C126.006 15.0619 125.386 15.6705 125.03 16.4341V24.464H121.638V11.188H124.75V14.0245C124.976 13.5817 125.257 13.1688 125.586 12.7954C125.896 12.4418 126.244 12.1235 126.624 11.8461C126.971 11.5899 127.35 11.3811 127.752 11.2251C128.103 11.0874 128.476 11.0144 128.852 11.0095H129.271C129.36 11.0092 129.45 11.0178 129.538 11.0352V14.1258Z" fill="#190F30"/>
<path d="M152.057 24.4613H148.662V17.0139C148.662 15.9499 148.48 15.1728 148.117 14.6827C147.946 14.4454 147.718 14.2541 147.455 14.1261C147.192 13.998 146.902 13.9372 146.609 13.949C145.934 13.949 145.3 14.2064 144.709 14.7213C144.105 15.2592 143.666 15.9577 143.443 16.7355V24.4613H140.053V17.0139C140.053 15.9499 139.871 15.1728 139.509 14.6827C139.338 14.4455 139.11 14.2543 138.847 14.1262C138.584 13.9982 138.294 13.9373 138.001 13.949C137.344 13.949 136.715 14.2021 136.114 14.7084C135.5 15.2348 135.053 15.9296 134.829 16.707V24.4585H131.435V11.1824H134.501V13.6392C134.969 12.7984 135.667 12.1086 136.514 11.6506C137.414 11.174 138.421 10.9343 139.44 10.954C140.554 10.954 141.415 11.2238 142.024 11.7634C142.62 12.2849 143.029 12.9867 143.189 13.762C143.68 12.8999 144.387 12.1802 145.24 11.6735C146.104 11.1821 147.084 10.9326 148.078 10.9512C148.888 10.9512 149.554 11.103 150.077 11.4065C150.579 11.6903 150.998 12.1008 151.292 12.5971C151.588 13.1143 151.79 13.6805 151.887 14.2687C151.997 14.8961 152.053 15.5318 152.052 16.1688L152.057 24.4613Z" fill="#190F30"/>
<path d="M14.3772 0.217408L3.84055 5.29086C3.54428 5.43331 3.28399 5.6408 3.07908 5.89786C2.87418 6.15492 2.72994 6.45492 2.65713 6.77549L0.0547379 18.1772C-0.0186471 18.4988 -0.0182388 18.8328 0.0559327 19.1542C0.130104 19.4756 0.276112 19.7761 0.482997 20.033L7.7734 29.1763C7.97856 29.4337 8.23915 29.6414 8.53576 29.784C8.83236 29.9266 9.15733 30.0004 9.48644 30H21.1808C21.5099 30.0004 21.8349 29.9266 22.1315 29.784C22.4281 29.6414 22.6887 29.4337 22.8938 29.1763L30.1856 20.033C30.3925 19.7761 30.5385 19.4756 30.6127 19.1542C30.6869 18.8328 30.6873 18.4988 30.6139 18.1772L27.9915 6.77549C27.9185 6.455 27.7742 6.15509 27.5693 5.89806C27.3644 5.64102 27.1042 5.43348 26.8081 5.29086L16.2758 0.217408C15.9798 0.0743211 15.6552 0 15.3265 0C14.9977 0 14.6732 0.0743211 14.3772 0.217408Z" fill="#4CBA6F"/>
<path d="M6.59717 17.3293L7.88195 15.4221L9.59498 17.1351L11.879 15.9931L13.5921 17.7061L15.8761 14.2715L18.1602 15.9845L19.8732 15.4135L21.0152 17.1265L22.7283 15.4135L23.8703 17.6976L22.7283 21.7032L16.4329 24.5654L10.136 23.4234L6.73992 20.003L6.59717 17.3293Z" fill="#C7C5C5"/>
<path d="M22.1699 16.3056C22.1813 16.14 22.1941 15.9758 22.1941 15.8088C22.1935 14.187 21.6185 12.6178 20.5712 11.3794C19.5238 10.1411 18.0718 9.31361 16.4726 9.04376C17.1535 8.901 17.636 8.75825 17.0436 8.45704C16.4055 8.13727 15.766 8.52984 15.3306 8.93954C14.8909 8.52984 14.2528 8.13727 13.6175 8.45704C13.0251 8.75254 13.5062 8.89529 14.1885 9.04376C12.5893 9.31361 11.1373 10.1411 10.09 11.3794C9.04263 12.6178 8.46765 14.187 8.46699 15.8088C8.46699 15.9758 8.47984 16.14 8.49268 16.3056C8.21574 20.0829 4.88531 25.6274 15.3363 25.6274C25.7872 25.6274 22.4554 20.0829 22.1799 16.3056" fill="#FFCB4E"/>
<path d="M17.0438 18.0359C17.0438 18.9838 16.2743 19.1779 15.3307 19.1779C14.3871 19.1779 13.6177 18.9824 13.6177 18.0359C13.6177 17.5805 13.7986 17.1437 14.1207 16.8216C14.4427 16.4995 14.8795 16.3186 15.335 16.3186C15.7905 16.3186 16.2273 16.4995 16.5493 16.8216C16.8714 17.1437 17.0523 17.5805 17.0523 18.0359" fill="#CA4627"/>
<path d="M12.464 15.5848C12.464 15.7542 12.4138 15.9198 12.3197 16.0606C12.2255 16.2015 12.0918 16.3113 11.9353 16.3761C11.7788 16.4409 11.6065 16.4579 11.4404 16.4249C11.2742 16.3918 11.1216 16.3102 11.0018 16.1904C10.8821 16.0707 10.8005 15.918 10.7674 15.7519C10.7344 15.5857 10.7513 15.4135 10.8162 15.257C10.881 15.1005 10.9908 14.9667 11.1316 14.8726C11.2725 14.7785 11.4381 14.7283 11.6075 14.7283C11.8347 14.7283 12.0525 14.8185 12.2131 14.9791C12.3738 15.1398 12.464 15.3576 12.464 15.5848Z" fill="#1B1131"/>
<path d="M19.9044 15.5848C19.9044 15.7542 19.8542 15.9198 19.7601 16.0606C19.666 16.2015 19.5322 16.3113 19.3757 16.3761C19.2192 16.4409 19.047 16.4579 18.8808 16.4249C18.7147 16.3918 18.5621 16.3102 18.4423 16.1904C18.3225 16.0707 18.2409 15.918 18.2079 15.7519C18.1748 15.5857 18.1918 15.4135 18.2566 15.257C18.3214 15.1005 18.4312 14.9667 18.5721 14.8726C18.7129 14.7785 18.8785 14.7283 19.0479 14.7283C19.2751 14.7283 19.4929 14.8185 19.6536 14.9791C19.8142 15.1398 19.9044 15.3576 19.9044 15.5848Z" fill="#1B1131"/>
<path d="M22.767 20.574L21.054 20.003L18.7699 23.4376L17.0569 20.5754L15.9149 21.7175L13.6308 20.5754L11.9178 22.8595L10.2047 19.4248L8.49169 20.5669L6.5788 16.1287C6.31167 16.9148 6.1752 17.7394 6.1748 18.5697C6.1748 23.1535 10.2761 26.8694 15.3338 26.8694C20.3916 26.8694 24.4915 23.1578 24.4915 18.5697C24.4881 17.8733 24.3886 17.1806 24.196 16.5112L22.767 20.574Z" fill="white"/>
<path d="M20.2687 6.31737C18.8555 5.51652 16.323 5.58504 15.4708 5.58504C14.6186 5.58504 12.0847 5.51509 10.6729 6.31594C8.92414 7.30665 9.08546 11.8833 9.08546 11.8833C9.08546 11.8833 11.0326 12.5971 15.4708 12.5971C19.909 12.5971 21.8562 11.8833 21.8562 11.8833C21.8562 11.8833 22.0175 7.30807 20.2687 6.31737Z" fill="#742916"/>
<g style="mix-blend-mode:soft-light">
<path d="M18.6528 6.10319C17.428 6.01897 16.3802 6.44294 16.3116 7.04965C16.2431 7.65635 17.181 8.21736 18.4044 8.30159C19.6278 8.38581 20.6785 7.96184 20.747 7.35513C20.8155 6.74843 19.8776 6.18742 18.6528 6.10319Z" fill="#BCABD3"/>
</g>
<g style="mix-blend-mode:multiply">
<g style="mix-blend-mode:multiply">
<path d="M8.87258 12.2687C8.00321 11.7363 7.63633 10.9996 7.74625 10.6884C7.61098 10.6827 7.47563 10.6981 7.34512 10.7341C6.94969 10.8426 7.26089 11.8005 8.32583 12.4472C9.39077 13.0938 13.0196 13.6734 15.4635 13.6734C17.6048 13.6734 20.7054 13.2266 22.1343 12.6741C20.5641 13.1395 17.9103 13.4907 16.0102 13.4907C13.5734 13.495 9.93609 12.9211 8.87258 12.2687Z" fill="#C4A582"/>
</g>
</g>
<g style="mix-blend-mode:multiply">
<path d="M13.3662 10.8012C11.3006 9.87618 10.948 6.90263 12.8409 5.69922C12.0586 5.79915 11.2706 5.98473 10.6725 6.31734C9.00656 7.26094 9.07508 11.4565 9.08507 11.8533C9.17786 11.8933 9.27351 11.9347 9.37058 11.9761C10.0587 12.1674 12.0044 12.9582 15.4661 12.9582C19.9058 12.9582 21.8515 11.8861 21.8515 11.8861C21.8515 11.8861 21.8515 11.8362 21.8515 11.7434C21.6117 11.7205 21.3119 11.4265 20.6138 11.4579C17.8858 11.5621 15.6403 11.819 13.3662 10.8012Z" fill="#C3BE80"/>
</g>
<path d="M12.9138 11.7047C12.9073 11.2489 13.0365 10.8015 13.2849 10.4193C13.5333 10.0371 13.8898 9.73742 14.309 9.55833C14.7281 9.37925 15.1911 9.32886 15.639 9.41357C16.0869 9.49828 16.4995 9.71426 16.8243 10.0341C17.1491 10.3538 17.3715 10.763 17.4632 11.2095C17.5549 11.656 17.5118 12.1197 17.3393 12.5417C17.1668 12.9636 16.8727 13.3247 16.4944 13.5791C16.1162 13.8334 15.6708 13.9696 15.215 13.9702C14.6095 13.9747 14.0269 13.7387 13.5954 13.3138C13.1639 12.889 12.9187 12.3102 12.9138 11.7047ZM15.2136 9.99166C14.8762 9.99784 14.5481 10.1035 14.2706 10.2955C13.993 10.4875 13.7783 10.7571 13.6535 11.0706C13.5286 11.3841 13.4992 11.7275 13.5688 12.0577C13.6384 12.3879 13.8039 12.6902 14.0447 12.9267C14.2855 13.1631 14.5907 13.3232 14.9222 13.3868C15.2536 13.4503 15.5964 13.4146 15.9076 13.2841C16.2188 13.1536 16.4845 12.934 16.6713 12.6531C16.8582 12.3721 16.9579 12.0422 16.958 11.7047C16.9524 11.2463 16.7659 10.8087 16.4392 10.487C16.1125 10.1654 15.672 9.98583 15.2136 9.98737V9.99166Z" fill="white"/>
<path d="M14.9824 9.29646L15.0666 9.2365L15.0053 9.18226C15.0436 9.15856 15.0721 9.12191 15.0858 9.07896C15.0994 9.03601 15.0972 8.9896 15.0795 8.94814C15.0609 8.87962 15.0338 8.81396 15.011 8.74686C14.9925 8.7035 14.9874 8.65562 14.9963 8.60934C15.0052 8.56306 15.0277 8.52048 15.0609 8.48705C15.0979 8.45747 15.1427 8.43929 15.1899 8.43473C15.237 8.43017 15.2845 8.43942 15.3265 8.46136C15.3769 8.49224 15.4136 8.54125 15.429 8.59834C15.4444 8.65542 15.4373 8.71623 15.4093 8.76827C15.3864 8.8268 15.3636 8.88676 15.3464 8.94814C15.3294 8.99004 15.3277 9.0366 15.3415 9.07966C15.3553 9.12272 15.3839 9.15954 15.4221 9.18369L15.3607 9.23222L15.4578 9.31074H14.9867L14.9824 9.29646Z" fill="white"/>
<path d="M15.001 14.233L15.0624 14.1845L14.9653 14.106H15.455L15.3579 14.1816L15.4179 14.2344C15.3797 14.2583 15.3512 14.2949 15.3374 14.3377C15.3236 14.3805 15.3253 14.4269 15.3422 14.4686C15.3608 14.5342 15.3879 14.5985 15.4093 14.6627C15.4297 14.7055 15.4358 14.7538 15.4267 14.8003C15.4176 14.8469 15.3938 14.8893 15.3588 14.9213C15.3237 14.9533 15.2794 14.9732 15.2322 14.978C15.185 14.9829 15.1375 14.9724 15.0967 14.9482C15.0458 14.9181 15.0087 14.8693 14.9932 14.8123C14.9778 14.7552 14.9852 14.6944 15.0139 14.6427C15.0367 14.5828 15.0595 14.5242 15.0767 14.4628C15.0919 14.4216 15.0928 14.3764 15.079 14.3347C15.0653 14.2929 15.0378 14.2571 15.001 14.233Z" fill="white"/>
<path d="M13.2749 13.3435L13.3534 13.3549V13.2764L13.6389 13.5876L13.6632 13.5719L13.5661 13.5647V13.6333C13.5661 13.6333 13.559 13.6418 13.5561 13.6404C13.5157 13.6321 13.4736 13.6378 13.4368 13.6564C13.4 13.6751 13.3706 13.7057 13.3534 13.7432C13.3205 13.8028 13.2909 13.8643 13.2649 13.9273C13.2508 13.9787 13.219 14.0234 13.1751 14.0536C13.1311 14.0837 13.078 14.0974 13.0249 14.0921C12.9719 14.0868 12.9225 14.0629 12.8854 14.0246C12.8483 13.9864 12.826 13.9362 12.8224 13.8831C12.8209 13.8306 12.8365 13.7791 12.8669 13.7364C12.8973 13.6936 12.9408 13.6619 12.9908 13.6461C13.0496 13.6227 13.1069 13.5956 13.1621 13.5647C13.2045 13.5478 13.2394 13.516 13.2601 13.4753C13.2809 13.4346 13.2861 13.3877 13.2749 13.3435Z" fill="white"/>
<path d="M16.8569 13.6449V13.5635L16.7827 13.5721L17.0682 13.2566V13.3522H17.1382C17.1382 13.3522 17.1382 13.3608 17.1382 13.3651C17.1303 13.404 17.1356 13.4445 17.1532 13.4801C17.1707 13.5158 17.1996 13.5446 17.2352 13.5621C17.2969 13.5968 17.3608 13.6273 17.4265 13.6534C17.4639 13.6652 17.4975 13.6865 17.5241 13.7152C17.5507 13.7439 17.5694 13.7791 17.5783 13.8172C17.5873 13.8553 17.5861 13.8951 17.575 13.9326C17.5639 13.9702 17.5432 14.0042 17.5149 14.0313C17.4867 14.0584 17.4519 14.0777 17.4139 14.0873C17.376 14.0968 17.3362 14.0964 17.2984 14.0859C17.2607 14.0754 17.2264 14.0553 17.1988 14.0276C17.1712 13.9998 17.1513 13.9653 17.141 13.9275C17.1179 13.8689 17.0912 13.8117 17.0611 13.7562C17.044 13.7178 17.0148 13.6861 16.9779 13.666C16.941 13.6459 16.8985 13.6384 16.8569 13.6449Z" fill="white"/>
<path d="M16.7627 9.84052L16.8541 9.85194V9.77342C16.9039 9.78173 16.9551 9.77189 16.9983 9.7457C17.0415 9.71951 17.0739 9.6787 17.0896 9.63067C17.1267 9.56072 17.1524 9.48792 17.1938 9.41939C17.2164 9.3788 17.2524 9.34734 17.2956 9.33041C17.3389 9.31348 17.3867 9.31213 17.4308 9.32661C17.4773 9.34055 17.5183 9.36843 17.5485 9.40646C17.5786 9.4445 17.5963 9.49088 17.5992 9.53931C17.5974 9.58903 17.5804 9.637 17.5506 9.6768C17.5207 9.7166 17.4794 9.74633 17.4322 9.76201C17.3851 9.78199 17.338 9.80055 17.2895 9.82339C17.2409 9.83969 17.1998 9.87285 17.1736 9.91685C17.1474 9.96085 17.1379 10.0128 17.1467 10.0632H17.0682L17.0768 10.1374L16.7912 9.82196L16.7627 9.84052Z" fill="white"/>
<path d="M13.5733 9.7719V9.84898L13.6661 9.84042L13.6532 9.82757L13.3563 10.1559V10.0645H13.2792C13.2883 10.0167 13.28 9.96717 13.256 9.92481C13.2319 9.88246 13.1936 9.85002 13.1479 9.83328C13.0765 9.79474 13.0051 9.76762 12.9309 9.72479C12.8911 9.7036 12.8598 9.66928 12.8423 9.62765C12.8249 9.58602 12.8224 9.53965 12.8353 9.49638C12.8481 9.44942 12.8749 9.40747 12.9121 9.37611C12.9493 9.34475 12.9952 9.32546 13.0437 9.3208C13.0961 9.32137 13.147 9.33873 13.1889 9.37033C13.2308 9.40192 13.2614 9.4461 13.2764 9.49638C13.3017 9.55716 13.3307 9.61628 13.3634 9.6734C13.3826 9.71069 13.4136 9.74057 13.4516 9.75839C13.4896 9.77621 13.5323 9.78096 13.5733 9.7719Z" fill="white"/>
<path d="M17.7363 11.9233C17.7149 11.869 17.6907 11.8376 17.6436 11.9019V11.5236L17.6949 11.555L17.7392 11.4979C17.7648 11.538 17.804 11.5675 17.8496 11.5812C17.8952 11.5948 17.9442 11.5916 17.9876 11.5721C18.0533 11.5521 18.1161 11.525 18.1817 11.5036C18.2251 11.4848 18.2733 11.4802 18.3195 11.4904C18.3656 11.5007 18.4074 11.5253 18.4387 11.5607C18.4732 11.6014 18.4923 11.6529 18.4926 11.7063C18.4929 11.7597 18.4744 11.8114 18.4403 11.8525C18.4062 11.8936 18.3588 11.9213 18.3062 11.9309C18.2537 11.9404 18.1995 11.9312 18.1532 11.9047C18.0903 11.8788 18.0259 11.8564 17.9605 11.8376C17.919 11.8239 17.874 11.825 17.8332 11.8406C17.7923 11.8562 17.7581 11.8854 17.7363 11.9233Z" fill="white"/>
<path d="M12.69 11.4922C12.7143 11.5407 12.7343 11.5864 12.7828 11.5107V11.8904L12.7314 11.859L12.6872 11.9161C12.6634 11.8774 12.6266 11.8485 12.5834 11.8347C12.5402 11.8208 12.4934 11.8228 12.4516 11.8405C12.3845 11.859 12.3189 11.8861 12.2518 11.909C12.2088 11.9298 12.1602 11.9361 12.1133 11.9271C12.0664 11.918 12.0237 11.894 11.9916 11.8587C11.9595 11.8233 11.9397 11.7786 11.9351 11.731C11.9305 11.6835 11.9415 11.6357 11.9663 11.5949C11.9964 11.5437 12.0453 11.5063 12.1026 11.4906C12.1599 11.4748 12.2211 11.4821 12.2732 11.5107C12.3331 11.5336 12.3959 11.5578 12.4588 11.5749C12.5009 11.5905 12.5471 11.5907 12.5894 11.5756C12.6317 11.5604 12.6673 11.5309 12.69 11.4922Z" fill="white"/>
<path d="M14.5398 11.5505C14.5696 11.533 14.5938 11.5072 14.6095 11.4764C14.6252 11.4455 14.6317 11.4108 14.6283 11.3763C14.6283 11.3578 14.6126 11.3321 14.5983 11.3292C14.5545 11.3201 14.5132 11.3015 14.4774 11.2746C14.4417 11.2477 14.4123 11.2132 14.3913 11.1736C14.3628 11.1222 14.3328 11.0723 14.3071 11.0195C14.2457 10.8938 14.2472 10.8938 14.1058 10.9281V10.7853H13.9431C13.9517 10.7568 13.9517 10.7268 13.9674 10.7111C14.053 10.624 14.1415 10.5398 14.23 10.457C14.2429 10.4456 14.2671 10.447 14.2843 10.4427C14.2881 10.4611 14.2904 10.4797 14.2914 10.4984C14.2914 10.5298 14.2914 10.5612 14.2914 10.5969H14.4342C14.4056 10.7397 14.407 10.7397 14.5355 10.8011C14.5985 10.828 14.6579 10.8625 14.7125 10.9038C14.7606 10.9523 14.8032 11.0059 14.8396 11.0637C14.851 11.0794 14.8524 11.118 14.8596 11.118C14.9011 11.1218 14.9431 11.1164 14.9823 11.1023C15.058 11.0651 15.0723 11.0266 15.028 10.9481C15.0119 10.9155 15.0025 10.88 15.0003 10.8437C14.998 10.8075 15.0031 10.7711 15.0152 10.7368C15.0306 10.6699 15.0506 10.604 15.0751 10.5398C15.1051 10.4656 15.0908 10.417 15.0123 10.3971C14.9998 10.3905 14.9878 10.3828 14.9766 10.3742L15.0908 10.2672L14.9566 10.1601C15.1257 10.1257 15.3 10.1257 15.4691 10.1601L15.3464 10.2771L15.4563 10.3814L15.392 10.4156C15.3817 10.4189 15.3722 10.4245 15.3642 10.4319C15.3562 10.4393 15.35 10.4483 15.3459 10.4584C15.3418 10.4685 15.34 10.4793 15.3406 10.4902C15.3411 10.5011 15.3441 10.5117 15.3492 10.5213C15.3735 10.5883 15.3892 10.664 15.412 10.7254C15.4398 10.8134 15.4357 10.9084 15.4006 10.9938C15.4006 11.0152 15.3749 11.048 15.3806 11.0552C15.4087 11.0864 15.444 11.1104 15.4834 11.1251C15.5648 11.1479 15.5862 11.1408 15.6147 11.0509C15.6397 10.98 15.6908 10.9213 15.7575 10.8867C15.8002 10.8597 15.8445 10.8353 15.8902 10.8139C16.0201 10.7482 16.0216 10.7497 15.9916 10.6083H16.1344V10.5027C16.1344 10.487 16.1344 10.4699 16.1344 10.4542C16.1344 10.4385 16.1729 10.4542 16.1829 10.4642C16.2771 10.5527 16.3713 10.6412 16.4684 10.734C16.4812 10.7454 16.477 10.7725 16.4812 10.7982L16.3214 10.7896V10.9324C16.3071 10.9324 16.3028 10.9438 16.2985 10.9424C16.1743 10.911 16.1757 10.911 16.1158 11.0295C16.092 11.0884 16.0608 11.144 16.023 11.1951C15.9706 11.2502 15.9133 11.3003 15.8517 11.3449C15.8346 11.3578 15.7917 11.3621 15.7917 11.3692C15.7927 11.413 15.8005 11.4563 15.8146 11.4977C15.8446 11.5748 15.9074 11.5719 15.9573 11.5362C15.9882 11.5191 16.0225 11.5088 16.0577 11.5061C16.0929 11.5034 16.1283 11.5083 16.1615 11.5205C16.2229 11.5348 16.2842 11.5548 16.3442 11.5733C16.467 11.6119 16.467 11.6119 16.5555 11.4691L16.6311 11.6005L16.7368 11.4863C16.7939 11.4863 16.791 11.5319 16.7924 11.5719C16.8067 11.896 16.8024 11.9288 16.7382 11.9602L16.6368 11.8531L16.5369 11.9631C16.5261 11.9477 16.5165 11.9315 16.5084 11.9145C16.505 11.9008 16.4983 11.8881 16.489 11.8775C16.4797 11.8669 16.468 11.8587 16.4549 11.8535C16.4418 11.8484 16.4276 11.8464 16.4135 11.8478C16.3995 11.8492 16.386 11.854 16.3742 11.8617C16.3185 11.8831 16.2585 11.8988 16.2014 11.9174C16.1476 11.9379 16.0895 11.9445 16.0324 11.9368C15.9753 11.9291 15.921 11.9072 15.8745 11.8731L15.8389 11.916C15.7518 12.0087 15.7575 12.0858 15.8688 12.1229C15.9374 12.1495 15.9938 12.2003 16.0273 12.2657C16.0573 12.3157 16.0844 12.3671 16.1101 12.4199C16.1686 12.5384 16.1686 12.5384 16.3042 12.4998V12.6426C16.3428 12.6426 16.3785 12.6426 16.4141 12.6426C16.4498 12.6426 16.4541 12.6426 16.4598 12.6554C16.4637 12.6627 16.4657 12.6708 16.4657 12.679C16.4657 12.6872 16.4637 12.6953 16.4598 12.7025C16.3656 12.7953 16.2728 12.8881 16.1743 12.9766C16.1429 13.0052 16.1172 12.9909 16.1215 12.9438C16.1258 12.8967 16.1215 12.871 16.1315 12.831H15.9788C15.9839 12.8112 15.9901 12.7916 15.9973 12.7725C16.0031 12.7618 16.0065 12.75 16.0071 12.7378C16.0078 12.7257 16.0057 12.7136 16.001 12.7023C15.9964 12.6911 15.9893 12.6811 15.9802 12.6729C15.9712 12.6648 15.9604 12.6588 15.9488 12.6554C15.8703 12.6169 15.7946 12.5755 15.7204 12.5327C15.6835 12.5134 15.6515 12.4861 15.6268 12.4527C15.6021 12.4193 15.5852 12.3808 15.5776 12.3399C15.569 12.3 15.4748 12.2914 15.4249 12.3271C15.3975 12.3491 15.3713 12.3724 15.3464 12.397C15.3858 12.4529 15.4092 12.5185 15.414 12.5867C15.4188 12.6549 15.4047 12.7231 15.3735 12.7839C15.3663 12.8053 15.3592 12.8267 15.3535 12.8496C15.3107 12.9823 15.3107 12.9823 15.4363 13.058L15.3278 13.1608L15.4477 13.2735C15.282 13.3078 15.111 13.3078 14.9452 13.2735L15.0666 13.1565L14.9566 13.0508L15.0152 13.0209C15.027 13.0178 15.038 13.0119 15.0472 13.0038C15.0564 12.9957 15.0636 12.9856 15.0682 12.9742C15.0728 12.9628 15.0746 12.9505 15.0736 12.9383C15.0726 12.9261 15.0687 12.9143 15.0623 12.9038C15.0409 12.8481 15.0266 12.7882 15.0066 12.7296C14.9846 12.6743 14.9769 12.6143 14.9841 12.5552C14.9913 12.4961 15.0133 12.4397 15.048 12.3913C15.0253 12.3666 15 12.3446 14.9723 12.3257C14.9403 12.315 14.9073 12.3074 14.8738 12.3028C14.8139 12.2871 14.8282 12.3328 14.8182 12.3642C14.7851 12.4487 14.7206 12.5173 14.6383 12.5555C14.5912 12.5812 14.5455 12.6069 14.4955 12.6311C14.3799 12.6882 14.3799 12.6883 14.4213 12.8224H14.2871C14.2871 12.8624 14.2871 12.901 14.2943 12.9381C14.3014 12.9752 14.2729 12.9995 14.2429 12.9723C14.1444 12.8838 14.0502 12.7925 13.9574 12.6982C13.9459 12.6868 13.9502 12.6597 13.9474 12.6397H14.1044V12.5055C14.1201 12.5055 14.1258 12.497 14.1301 12.5055C14.25 12.5398 14.2486 12.5398 14.3043 12.4299C14.3351 12.3605 14.3729 12.2945 14.417 12.2329C14.4649 12.1839 14.5181 12.1403 14.5755 12.103C14.594 12.0901 14.6354 12.0844 14.634 12.0773C14.6325 12.0335 14.6244 11.9901 14.6097 11.9488C14.5919 11.9207 14.5703 11.8953 14.5455 11.8731C14.3928 11.9959 14.2372 11.9259 14.0816 11.8731C13.9545 11.8332 13.9545 11.8332 13.8789 11.9731L13.7761 11.8489L13.6647 11.9673C13.6481 11.9425 13.636 11.915 13.629 11.886C13.6062 11.629 13.6205 11.5191 13.6776 11.482L13.7804 11.5933L13.8846 11.482C13.8956 11.5005 13.9056 11.5195 13.9145 11.5391C13.918 11.5507 13.9239 11.5615 13.9321 11.5705C13.9402 11.5796 13.9502 11.5867 13.9615 11.5914C13.9727 11.596 13.9848 11.5981 13.997 11.5974C14.0091 11.5968 14.0209 11.5934 14.0316 11.5876C14.0873 11.5648 14.1472 11.5505 14.2058 11.5319C14.2587 11.5075 14.3169 11.4964 14.3751 11.4997C14.4333 11.5029 14.4899 11.5204 14.5398 11.5505ZM15.2065 11.215C15.0786 11.218 14.9568 11.2706 14.8671 11.3617C14.7773 11.4528 14.7265 11.5753 14.7254 11.7033C14.7244 11.7675 14.7363 11.8313 14.7603 11.891C14.7843 11.9506 14.8199 12.0049 14.8651 12.0506C14.9103 12.0963 14.9641 12.1326 15.0234 12.1572C15.0828 12.1819 15.1465 12.1945 15.2107 12.1943C15.339 12.1944 15.4622 12.1448 15.5546 12.0559C15.647 11.9669 15.7013 11.8457 15.7061 11.7175C15.7029 11.5858 15.6493 11.4602 15.5563 11.3668C15.4634 11.2733 15.3382 11.219 15.2065 11.215Z" fill="white"/>
<path d="M15.2179 11.3679C15.3076 11.3689 15.3933 11.4054 15.4561 11.4696C15.5189 11.5337 15.5536 11.6201 15.5526 11.7098C15.5517 11.7996 15.5151 11.8852 15.451 11.948C15.3869 12.0108 15.3005 12.0455 15.2108 12.0446C15.1663 12.0441 15.1224 12.0349 15.0816 12.0175C15.0407 12 15.0037 11.9747 14.9726 11.943C14.9098 11.8789 14.875 11.7924 14.876 11.7027C14.8769 11.613 14.9135 11.5273 14.9776 11.4645C15.0417 11.4017 15.1282 11.367 15.2179 11.3679ZM15.4006 11.7077C15.4009 11.6704 15.3901 11.6338 15.3696 11.6026C15.349 11.5714 15.3197 11.5471 15.2853 11.5326C15.2509 11.5181 15.2129 11.5142 15.1763 11.5213C15.1397 11.5284 15.1059 11.5462 15.0794 11.5725C15.053 11.5988 15.0349 11.6324 15.0275 11.669C15.0201 11.7056 15.0237 11.7435 15.038 11.778C15.0522 11.8126 15.0763 11.8421 15.1073 11.8628C15.1384 11.8836 15.1748 11.8947 15.2122 11.8947C15.237 11.8955 15.2618 11.8912 15.2849 11.8821C15.308 11.873 15.329 11.8593 15.3467 11.8418C15.3643 11.8243 15.3782 11.8033 15.3875 11.7803C15.3967 11.7572 15.4012 11.7325 15.4006 11.7077Z" fill="white"/>
<path d="M9.08252 11.0381V12.1159C11.0971 12.9942 13.2674 13.4592 15.465 13.4834C17.648 13.4683 19.811 13.0657 21.8532 12.2943V11.1637C21.8532 11.1637 19.3279 11.8361 15.475 11.8361C11.6221 11.8361 9.08252 11.0381 9.08252 11.0381Z" fill="#0D0E0E"/>
<path d="M17.6004 13.1252H12.8281V14.9825H17.6004V13.1252Z" fill="#FFCB4E"/>
<path d="M23.5961 10.7341C23.0136 10.5742 22.2271 11.101 20.4969 11.8076C18.8938 12.4368 17.187 12.7598 15.4648 12.7598C13.5719 12.7598 11.3935 12.2601 10.0402 11.5849C8.46994 10.8026 7.92605 10.5742 7.34219 10.7284C6.94676 10.8369 7.25796 11.7948 8.3229 12.4414C9.38784 13.0881 13.0166 13.6677 15.4606 13.6677C17.8874 13.6677 21.5418 13.0967 22.5982 12.4414C23.6546 11.7862 23.9943 10.8426 23.5961 10.7341Z" fill="#90523E"/>
<path d="M6.76483 40.3358C6.67908 41.3016 6.34386 42.056 5.75917 42.599C5.17448 43.1378 4.39685 43.4073 3.42627 43.4073C2.74803 43.4073 2.1497 43.2373 1.63128 42.8974C1.11675 42.5534 0.719165 42.0663 0.438516 41.4363C0.157866 40.8062 0.0116937 40.0746 0 39.2415V38.3959C0 37.542 0.142274 36.7896 0.426822 36.1389C0.71137 35.4881 1.1187 34.9865 1.64882 34.6342C2.18283 34.2819 2.7987 34.1057 3.49643 34.1057C4.43583 34.1057 5.19202 34.3772 5.76502 34.9202C6.33801 35.4632 6.67128 36.2301 6.76483 37.2207H5.29142C5.22126 36.5699 5.04195 36.1016 4.75351 35.8155C4.46896 35.5254 4.04993 35.3803 3.49643 35.3803C2.85327 35.3803 2.35824 35.6311 2.01132 36.1326C1.66831 36.6301 1.4929 37.3617 1.48511 38.3275V39.1295C1.48511 40.1078 1.64882 40.8539 1.97624 41.3679C2.30757 41.8819 2.79091 42.1389 3.42627 42.1389C4.00706 42.1389 4.44362 42 4.73597 41.7223C5.02831 41.4446 5.21346 40.9824 5.29142 40.3358H6.76483Z" fill="#00A651"/>
<path d="M19.0643 39.857C19.0643 39.1979 19.1871 38.6052 19.4327 38.0788C19.6782 37.5482 20.0232 37.142 20.4676 36.8601C20.9119 36.5741 21.4226 36.4311 21.9994 36.4311C22.8531 36.4311 23.545 36.7233 24.0751 37.3078C24.6091 37.8922 24.8975 38.6674 24.9404 39.6332L24.9463 39.9876C24.9463 40.6508 24.8254 41.2435 24.5838 41.7658C24.346 42.2881 24.003 42.6922 23.5547 42.9782C23.1104 43.2642 22.5958 43.4073 22.0111 43.4073C21.1185 43.4073 20.4033 43.0922 19.8653 42.4622C19.3313 41.828 19.0643 40.9845 19.0643 39.9316V39.857ZM20.4851 39.9876C20.4851 40.6798 20.6196 41.2228 20.8885 41.6166C21.1575 42.0062 21.5317 42.201 22.0111 42.201C22.4906 42.201 22.8628 42.0021 23.1279 41.6041C23.3968 41.2062 23.5313 40.6238 23.5313 39.857C23.5313 39.1772 23.393 38.6383 23.1162 38.2404C22.8433 37.8425 22.4711 37.6435 21.9994 37.6435C21.5356 37.6435 21.1672 37.8404 20.8944 38.2342C20.6215 38.6238 20.4851 39.2083 20.4851 39.9876Z" fill="#00A651"/>
<path d="M38.8595 36.5554L38.9004 37.258C39.3448 36.7067 39.9529 36.4311 40.7246 36.4311C41.5705 36.4311 42.1493 36.7751 42.4612 37.4632C42.9211 36.7751 43.5682 36.4311 44.4023 36.4311C45.1001 36.4311 45.6185 36.6363 45.9576 37.0466C46.3006 37.457 46.476 38.0622 46.4838 38.8622V43.2829H45.063V38.9057C45.063 38.4788 44.9753 38.1658 44.7999 37.9668C44.6245 37.7679 44.3341 37.6684 43.9287 37.6684C43.6052 37.6684 43.3401 37.7617 43.1336 37.9482C42.9309 38.1306 42.7886 38.371 42.7067 38.6694L42.7126 43.2829H41.2918V38.856C41.2723 38.0642 40.8923 37.6684 40.1517 37.6684C39.5826 37.6684 39.1791 37.915 38.9413 38.4083V43.2829H37.5206V36.5554H38.8595Z" fill="#00A651"/>
<path d="M60.6543 36.5554L60.6952 37.258C61.1396 36.7067 61.7477 36.4311 62.5194 36.4311C63.3653 36.4311 63.9441 36.7751 64.256 37.4632C64.7159 36.7751 65.363 36.4311 66.1971 36.4311C66.8949 36.4311 67.4133 36.6363 67.7524 37.0466C68.0954 37.457 68.2708 38.0622 68.2786 38.8622V43.2829H66.8578V38.9057C66.8578 38.4788 66.7701 38.1658 66.5947 37.9668C66.4193 37.7679 66.1289 37.6684 65.7235 37.6684C65.4 37.6684 65.135 37.7617 64.9284 37.9482C64.7257 38.1306 64.5834 38.371 64.5015 38.6694L64.5074 43.2829H63.0866V38.856C63.0671 38.0642 62.6871 37.6684 61.9465 37.6684C61.3774 37.6684 60.9739 37.915 60.7362 38.4083V43.2829H59.3154V36.5554H60.6543Z" fill="#00A651"/>
<path d="M84.9457 42.6238C84.5286 43.1461 83.9362 43.4073 83.1683 43.4073C82.4822 43.4073 81.9619 43.1938 81.6072 42.7668C81.2563 42.3399 81.0809 41.7223 81.0809 40.914V36.5554H82.5017V40.8953C82.5017 41.7492 82.835 42.1762 83.5015 42.1762C84.1915 42.1762 84.6573 41.913 84.8989 41.3865V36.5554H86.3197V43.2829H84.9808L84.9457 42.6238Z" fill="#00A651"/>
<path d="M100.461 36.5554L100.502 37.3326C100.97 36.7316 101.584 36.4311 102.344 36.4311C103.661 36.4311 104.332 37.2332 104.355 38.8373V43.2829H102.934V38.9244C102.934 38.4974 102.847 38.1824 102.671 37.9793C102.5 37.772 102.217 37.6684 101.823 37.6684C101.25 37.6684 100.823 37.944 100.543 38.4953V43.2829H99.1221V36.5554H100.461Z" fill="#00A651"/>
<path d="M118.695 43.2829H117.274V36.5554H118.695V43.2829ZM117.187 34.8083C117.187 34.5762 117.255 34.3834 117.391 34.2301C117.532 34.0767 117.73 34 117.988 34C118.245 34 118.444 34.0767 118.584 34.2301C118.724 34.3834 118.794 34.5762 118.794 34.8083C118.794 35.0363 118.724 35.2269 118.584 35.3803C118.444 35.5295 118.245 35.6041 117.988 35.6041C117.73 35.6041 117.532 35.5295 117.391 35.3803C117.255 35.2269 117.187 35.0363 117.187 34.8083Z" fill="#00A651"/>
<path d="M133.403 34.9202V36.5554H134.52V37.6746H133.403V41.4301C133.403 41.687 133.45 41.8736 133.544 41.9896C133.641 42.1016 133.813 42.1575 134.058 42.1575C134.222 42.1575 134.388 42.1368 134.555 42.0953V43.2642C134.232 43.3596 133.92 43.4073 133.62 43.4073C132.528 43.4073 131.983 42.7668 131.983 41.486V37.6746H130.942V36.5554H131.983V34.9202H133.403Z" fill="#00A651"/>
<path d="M149.199 41.1192L150.486 36.5554H152L149.486 44.3026C149.1 45.4342 148.445 46 147.521 46C147.315 46 147.087 45.9627 146.837 45.8881V44.7192L147.106 44.7378C147.465 44.7378 147.734 44.6674 147.913 44.5264C148.096 44.3896 148.24 44.1575 148.346 43.8301L148.55 43.2518L146.329 36.5554H147.86L149.199 41.1192Z" fill="#00A651"/>
</g>
<defs>
<clipPath id="clip0">
<rect width="152" height="46" fill="white"/>
</clipPath>
</defs>
</svg>
