<svg xmlns="http://www.w3.org/2000/svg" viewBox="0 0 216 216" xmlns:v="https://vecta.io/nano"><style>.A{isolation:isolate}.K{mix-blend-mode:soft-light}.L,.N{mix-blend-mode:multiply}</style><g class="A"><path d="M11.56 200v-29.48h5.74v14l12.39-14.06H36l-11.3 13.11 12 16.43h-6.43l-9.19-12.77-3.78 4V200zm33.22 0a6.18 6.18 0 0 1-5.11-2.16c-1.16-1.44-1.75-3.58-1.75-6.41v-13.64h5.58v12.44q0 5 3.61 5a5.71 5.71 0 0 0 3.14-1 7 7 0 0 0 2.48-3v-13.44h5.57v15.39a2 2 0 0 0 .31 1.25 1.34 1.34 0 0 0 1 .41v4.74a12.5 12.5 0 0 1-1.39.21h-1a4 4 0 0 1-2.43-.68 2.7 2.7 0 0 1-1.11-1.89l-.12-1.75a9.3 9.3 0 0 1-3.74 3.37 11.29 11.29 0 0 1-5.04 1.16zm31.44 0a8.78 8.78 0 0 1-4.45-1.12 8.18 8.18 0 0 1-3.07-3.08v3.78h-4.87v-30.35h5.57v12.39a8.5 8.5 0 0 1 3.06-3.1 8.69 8.69 0 0 1 4.43-1.1 8.24 8.24 0 0 1 3.87.91 9.64 9.64 0 0 1 3 2.46 11 11 0 0 1 2 3.62 14 14 0 0 1 .68 4.36 12.24 12.24 0 0 1-.77 4.41 11 11 0 0 1-2.14 3.56 10.11 10.11 0 0 1-3.24 2.39 9.49 9.49 0 0 1-4.07.87zm-1.53-4.74a5.73 5.73 0 0 0 2.45-.52 6 6 0 0 0 1.91-1.39 6.39 6.39 0 0 0 1.23-2 7.1 7.1 0 0 0 .44-2.5 7.63 7.63 0 0 0-.42-2.53 6.47 6.47 0 0 0-1.19-2.12 5.8 5.8 0 0 0-1.81-1.46 4.85 4.85 0 0 0-2.28-.54 5.08 5.08 0 0 0-3.35 1.23 8.17 8.17 0 0 0-2.27 3v5.2a4.88 4.88 0 0 0 .86 1.5 6.2 6.2 0 0 0 1.26 1.14 6.28 6.28 0 0 0 1.54.75 5.3 5.3 0 0 0 1.63.24z" fill="#190f30"/><path d="M108.27 196.44a12 12 0 0 1-4 2.72 10.66 10.66 0 0 1-8.44-.06 11.51 11.51 0 0 1-3.6-2.45A12.22 12.22 0 0 1 89.7 193a10.64 10.64 0 0 1-.11-8.5 12.11 12.11 0 0 1 2.74-4.05 12 12 0 0 1 4-2.72 11.08 11.08 0 0 1 4.26-.79 10.41 10.41 0 0 1 4.12.94 12 12 0 0 1 3.54 2.46q.39.38.72.75a3.8 3.8 0 0 1 .52.66l-11.89 11.9a6.32 6.32 0 0 0 2.06 1.17 5.51 5.51 0 0 0 2.11.3 5.66 5.66 0 0 0 2-.5 6 6 0 0 0 1.74-1.21 6.37 6.37 0 0 0 1.64-2.79 4.27 4.27 0 0 0-.08-2.94l4.32-2.44a9.68 9.68 0 0 1 .18 5.61 11.88 11.88 0 0 1-3.3 5.59zM103 183.15a5.8 5.8 0 0 0-4.06-1.5 5.53 5.53 0 0 0-3.79 1.71 5.46 5.46 0 0 0-1.65 3.76 5.76 5.76 0 0 0 .34 2.07 5.91 5.91 0 0 0 1.16 2z" fill="#4cba6f"/><path d="M116.23 200v-16.38h-2.87v-4.25h2.87V178a9.84 9.84 0 0 1 2-6.44 6.55 6.55 0 0 1 5.33-2.37 12.36 12.36 0 0 1 5.36 1.29l-1.12 4.2a7 7 0 0 0-1.48-.57 6.15 6.15 0 0 0-1.56-.22q-2.91 0-2.91 3.9v1.54h5.32v4.25h-5.37V200zm23.04 0a12.09 12.09 0 0 1-4.78-.91 10.66 10.66 0 0 1-3.6-2.48 10.89 10.89 0 0 1-2.27-3.6 11.62 11.62 0 0 1-.79-4.28 11.75 11.75 0 0 1 .79-4.32 10.89 10.89 0 0 1 2.27-3.6 10.66 10.66 0 0 1 3.6-2.48 13 13 0 0 1 9.54 0 10.71 10.71 0 0 1 5.84 6.08 11.75 11.75 0 0 1 .79 4.32 11.62 11.62 0 0 1-.79 4.28 11 11 0 0 1-2.24 3.6 10.58 10.58 0 0 1-3.58 2.48 12.12 12.12 0 0 1-4.78.91zm-5.7-11.27a7.61 7.61 0 0 0 .44 2.64 6.46 6.46 0 0 0 1.2 2.06 5.54 5.54 0 0 0 1.81 1.35 5.49 5.49 0 0 0 4.49 0 5.34 5.34 0 0 0 1.81-1.35 6.47 6.47 0 0 0 1.21-2.08 7.77 7.77 0 0 0 .43-2.66 7.66 7.66 0 0 0-.43-2.62 6.47 6.47 0 0 0-1.21-2.08 5.34 5.34 0 0 0-1.81-1.35 5.27 5.27 0 0 0-2.24-.48 5.15 5.15 0 0 0-2.25.5 5.75 5.75 0 0 0-1.81 1.37 6.45 6.45 0 0 0-1.2 2.08 7.66 7.66 0 0 0-.44 2.62zm33.81-5.73a11.08 11.08 0 0 0-4.53 1 5.7 5.7 0 0 0-2.87 2.81V200h-5.58v-21.79h5.12v4.66a10 10 0 0 1 1.37-2 10.41 10.41 0 0 1 1.71-1.56 8.08 8.08 0 0 1 1.85-1 5.18 5.18 0 0 1 1.81-.35h.68a2.12 2.12 0 0 1 .44 0zm36.97 17h-5.57v-12.23a6.44 6.44 0 0 0-.9-3.82 2.9 2.9 0 0 0-2.47-1.21 4.65 4.65 0 0 0-3.12 1.27 7 7 0 0 0-2.08 3.31V200h-5.57v-12.23a6.44 6.44 0 0 0-.9-3.82 2.89 2.89 0 0 0-2.47-1.21 4.75 4.75 0 0 0-3.1 1.25 6.84 6.84 0 0 0-2.1 3.29V200h-5.57v-21.79h5v4a8.28 8.28 0 0 1 3.3-3.26 9.94 9.94 0 0 1 4.81-1.15 6.16 6.16 0 0 1 4.24 1.34 5.86 5.86 0 0 1 1.91 3.28 9.4 9.4 0 0 1 3.37-3.43 9.1 9.1 0 0 1 4.66-1.19 6.45 6.45 0 0 1 3.28.75 5.38 5.38 0 0 1 2 2 8.19 8.19 0 0 1 1 2.74 18.09 18.09 0 0 1 .27 3.12z" fill="#190f30"/><path d="M103.47 17.46L53.77 41.4a10.33 10.33 0 0 0-5.59 7l-12.27 53.79a10.3 10.3 0 0 0 2 8.73l34.4 43.14a10.34 10.34 0 0 0 8.07 3.88h55.17a10.34 10.34 0 0 0 8.07-3.88L178 110.92a10.3 10.3 0 0 0 2-8.73L167.73 48.4a10.33 10.33 0 0 0-5.59-7l-49.71-23.94a10.35 10.35 0 0 0-8.96 0z" fill="#4cba6f"/><path d="M66.77 98.19l6.08-9 8.1 8.1 10.8-5.4 8.1 8.1 10.8-16.2 10.81 8.1 8.1-2.7 5.4 8.1 8.1-8.1 5.4 10.8-5.4 18.91-29.71 13.5-29.7-5.4-16.2-16.21z" fill="#c7c5c5"/><path d="M140.24 93.36l.12-2.34a32.39 32.39 0 0 0-27-31.92c3.21-.7 5.48-1.37 2.68-2.77-3-1.5-6 .35-8.09 2.28h0c-2.08-1.93-5.08-3.78-8.1-2.28-2.79 1.4-.52 2.07 2.69 2.77A32.39 32.39 0 0 0 75.55 91c0 .79.06 1.56.12 2.34-1.31 17.82-17 44 32.28 44s33.59-26.16 32.29-44" fill="#ffcb4e"/><path d="M116.05,101.52c0,4.48-3.62,5.4-8.1,5.4s-8.1-.92-8.1-5.4a8.1,8.1,0,0,1,16.2,0" fill="#ca4627"/><path d="M94.45 90a4 4 0 1 1-4-4 4 4 0 0 1 4 4m35.11 0a4.05 4.05 0 1 1-4-4 4.05 4.05 0 0 1 4 4" fill="#1b1131"/><path d="M143.06 113.5l-8.1-2.71-10.8 16.21-8.11-13.5-5.4 5.4-10.8-5.4-8.1 10.8-8.1-16.21-8.1 5.41-8.9-21a35.89 35.89 0 0 0-1.9 11.5c0 21.63 19.34 39.16 43.2 39.16s43.21-17.53 43.21-39.16a35.55 35.55 0 0 0-1.4-9.71z" fill="#fff"/><path d="M131.27 46.24c-6.66-3.78-18.62-3.45-22.63-3.45s-16-.33-22.64 3.45c-8.25 4.67-7.49 26.27-7.49 26.27s9.18 3.38 30.13 3.38 30.12-3.38 30.12-3.38.76-21.6-7.49-26.27z" fill="#742916"/><path class="K" d="M123.65 45.23c-5.78-.4-10.73 1.6-11.05 4.46s4.1 5.51 9.88 5.91 10.72-1.6 11-4.46-4.05-5.51-9.83-5.91z" fill="#bcabd3"/><path class="L" d="M77.51 74.32c-4.1-2.51-5.83-6-5.31-7.46a6.34 6.34 0 0 0-1.9.22c-1.87.51-.39 5 4.63 8.11S97.07 81 108.64 81c10.1 0 24.72-2.11 31.46-4.72-7.42 2.19-19.92 3.85-28.88 3.85-11.57-.03-28.69-2.74-33.71-5.81z" fill="#c4a582"/><path class="N" d="M98.71 67.39C89 63 87.3 49 96.23 43.33A28.55 28.55 0 0 0 86 46.24c-7.86 4.45-7.54 24.26-7.49 26.12l1.37.57a85.26 85.26 0 0 0 28.76 4.64c20.94 0 30.12-5.06 30.12-5.06v-.64c-1.13-.11-2.54-1.5-5.84-1.37-12.92.5-23.48 1.7-34.21-3.11z" fill="#c3be80"/><g fill="#fff"><path d="M96.57 71.65a10.85 10.85 0 1 1 10.86 10.7 10.78 10.78 0 0 1-10.86-10.7zm10.85-8.09a8.11 8.11 0 1 0 8.24 8.11 8.19 8.19 0 0 0-8.24-8.11z"/><path d="M106.33 60.28l.4-.28-.29-.26a.88.88 0 0 0 .35-1.1l-.32-1a1.11 1.11 0 0 1 .24-1.23 1.14 1.14 0 0 1 1.24-.12 1.09 1.09 0 0 1 .4 1.45 8.57 8.57 0 0 0-.3.85.92.92 0 0 0 .36 1.11l-.29.23.46.37h-2.23zm.1 23.31l.29-.24-.46-.37h2.32l-.46.36.28.25a.9.9 0 0 0-.35 1.11c.08.31.21.61.31.91a1.12 1.12 0 0 1-.23 1.26 1.15 1.15 0 0 1-1.25.12 1.09 1.09 0 0 1-.39-1.45l.3-.84a.91.91 0 0 0-.36-1.11zm-8.15-4.2h.37v-.37l1.35 1.52.11-.08h-.45v.33a.09.09 0 0 1-.05 0 .87.87 0 0 0-.95.48 7.71 7.71 0 0 0-.42.87 1.12 1.12 0 0 1-1.14.77 1.07 1.07 0 0 1-.1-2.09 6.69 6.69 0 0 0 .81-.38.91.91 0 0 0 .47-1.05zm16.87 1.42v-.38h-.35l1.39-1.43v.45h.33v.06a.83.83 0 0 0 .45.93 9.3 9.3 0 0 0 .9.43 1.07 1.07 0 0 1-.21 2.09 1.15 1.15 0 0 1-1.12-.79 6.69 6.69 0 0 0-.38-.81.89.89 0 0 0-1.01-.55zm-.42-17.95h.43v-.37a1 1 0 0 0 1.11-.65l.5-1a.93.93 0 0 1 1.11-.45 1.06 1.06 0 0 1 0 2.06l-.66.29c-.45.24-.79.55-.68 1.13h-.37v.35l-1.37-1.48zm-15.05-.32v.36h.43l-.11-.1-1.4 1.55v-.43h-.37a1 1 0 0 0-.62-1.09c-.34-.18-.7-.31-1-.51a.92.92 0 0 1-.45-1.08 1.13 1.13 0 0 1 1-.83 1.16 1.16 0 0 1 1.1.83 5.33 5.33 0 0 0 .41.83.88.88 0 0 0 1.01.47zm19.64 10.15c-.1-.26-.21-.41-.44-.11V70.8l.25.15.21-.27a.94.94 0 0 0 1.17.35c.31-.09.61-.22.91-.32a1.07 1.07 0 0 1 1.22.27 1.07 1.07 0 0 1-1.33 1.62l-.92-.32a.9.9 0 0 0-1.07.41zm-23.8-2.04c.11.23.2.45.43.09v1.79l-.24-.14-.21.26a.91.91 0 0 0-1.11-.36c-.32.09-.63.22-.94.33a1.002 1.002 0 0 1-1.35-1.48 1.07 1.07 0 0 1 1.44-.4 9.12 9.12 0 0 0 .88.3.9.9 0 0 0 1.1-.39z"/><path d="M104.25 70.93a.89.89 0 0 0 .42-.83c0-.08-.08-.2-.15-.22a1.41 1.41 0 0 1-1-.73l-.39-.73c-.29-.59-.29-.59-1-.43v-.66h-.77c0-.13 0-.28.11-.35l1.24-1.19c.06-.06.18-.05.26-.08a2.48 2.48 0 0 1 0 .27v.46h.69c-.14.67-.14.67.47 1a4 4 0 0 1 .83.48 4.44 4.44 0 0 1 .61.75c0 .08.06.26.09.26a1.41 1.41 0 0 0 .58-.07c.35-.18.42-.36.22-.73a1.21 1.21 0 0 1-.06-1 6.2 6.2 0 0 1 .28-.93c.14-.35.07-.57-.3-.7a.7.7 0 0 1-.17-.11l.54-.5-.63-.5a5.81 5.81 0 0 1 2.42 0l-.59.55.53.49-.31.17a.35.35 0 0 0-.2.5l.3.95a2 2 0 0 1 0 1.28c0 .09-.13.25-.1.28a1.29 1.29 0 0 0 .48.33c.38.11.49.08.62-.35a1.43 1.43 0 0 1 .7-.77c.2-.13.42-.24.63-.35.62-.3.62-.3.47-1h.66V66a.85.85 0 0 1 0-.23h.22l1.32 1.27c0 .06 0 .19.06.31h-.76v.64h-.11c-.59-.15-.58-.15-.86.41a4 4 0 0 1-.44.78 5.43 5.43 0 0 1-.81.7c-.08.07-.28.09-.28.12a1.83 1.83 0 0 0 .11.61c.14.36.44.34.7.18a1.18 1.18 0 0 1 1-.08l.86.25c.58.19.58.19 1-.49l.36.62.5-.54c.27 0 .25.21.26.41.07 1.52 0 1.68-.25 1.83l-.48-.51-.47.52-.14-.22c-.12-.31-.32-.38-.63-.26a7.13 7.13 0 0 1-.82.26 1.61 1.61 0 0 1-1.54-.2l-.17.2c-.4.44-.38.8.14 1a1.34 1.34 0 0 1 .75.67c.15.24.27.48.4.73.27.55.27.56.91.37V76h.52c.07 0 .18 0 .21.06a.22.22 0 0 1 0 .22l-1.34 1.29c-.15.13-.27.07-.25-.15s0-.35 0-.54h-.71a1.83 1.83 0 0 1 .08-.27.38.38 0 0 0-.23-.55l-1.08-.58a1.29 1.29 0 0 1-.64-.91c0-.19-.49-.23-.72-.06s-.23.2-.38.33a1.76 1.76 0 0 1 .14 1.82c0 .11-.07.21-.1.31-.2.63-.2.63.39 1l-.51.48.57.54a5.91 5.91 0 0 1-2.37 0l.57-.55-.52-.5.28-.14a.38.38 0 0 0 .22-.55l-.26-.82a1.67 1.67 0 0 1 .19-1.6 1.91 1.91 0 0 0-.36-.3 2.39 2.39 0 0 0-.46-.12c-.29-.07-.21.14-.27.29a1.66 1.66 0 0 1-.84.91l-.67.35c-.54.27-.55.27-.35.9h-.71v.55c0 .18-.1.29-.25.16l-1.34-1.29V76h.74v-.63h.12c.57.16.56.16.83-.36a5 5 0 0 1 .53-.93 4.08 4.08 0 0 1 .75-.61c.08-.06.28-.09.27-.12a1.79 1.79 0 0 0-.12-.61 1.14 1.14 0 0 0-.3-.35c-.72.57-1.45.24-2.19 0s-.6-.19-1 .47l-.48-.59-.53.56a1.27 1.27 0 0 1-.17-.38c-.11-1.22 0-1.73.23-1.91l.49.53.48-.53.15.27a.37.37 0 0 0 .55.23c.27-.11.55-.18.82-.26a1.7 1.7 0 0 1 1.71.15zm3.14-1.59a2.34 2.34 0 0 0-2.27 2.31 2.3 2.3 0 0 0 2.29 2.35 2.33 2.33 0 0 0 2.33-2.25 2.43 2.43 0 0 0-2.35-2.41zm.05.73a1.6 1.6 0 0 1 0 3.19 1.6 1.6 0 1 1 0-3.19zm.87 1.6a.89.89 0 1 0-.9.88.87.87 0 0 0 .9-.88z"/></g><path d="M78.5,68.51v5.08a77.42,77.42,0,0,0,30.11,6.46,87,87,0,0,0,30.11-5.62V69.09s-11.91,3.17-30.08,3.17S78.5,68.51,78.5,68.51Z" fill="#0d0e0e"/><path d="M96.17 78.36h22.51v8.76H96.17z" fill="#ffcb4e"/><path d="M147 67.08c-2.75-.76-6.46 1.73-14.62 5.06a65.06 65.06 0 0 1-23.74 4.49c-8.93 0-19.21-2.35-25.58-5.54-7.39-3.69-10-4.77-12.73-4-1.87.51-.39 5 4.63 8.11S97.07 81 108.64 81s28.69-2.71 33.71-5.78 6.49-7.63 4.65-8.14z" fill="#90523e"/></g></svg>