<svg xmlns="http://www.w3.org/2000/svg" viewBox="0 0 195.95 39" xmlns:v="https://vecta.io/nano"><style>.A{isolation:isolate}.K{mix-blend-mode:soft-light}.L,.N{mix-blend-mode:multiply}</style><g class="A"><path d="M18.53.38L5 6.91a2.81 2.81 0 0 0-1.56 1.91L.09 23.5a2.8 2.8 0 0 0 .55 2.38L10 37.65a2.83 2.83 0 0 0 2.2 1.06h15.08a2.83 2.83 0 0 0 2.2-1.06l9.38-11.77a2.8 2.8 0 0 0 .55-2.38L36.06 8.82a2.84 2.84 0 0 0-1.53-1.91L21 .38a2.82 2.82 0 0 0-2.47 0z" fill="#4cba6f"/><path d="M44.58 31.58V8.47h4.5v11l9.72-11h5l-8.91 10.24 9.42 12.87h-5.06l-7.2-10-3 3.1v6.91zm26.05 0a4.86 4.86 0 0 1-4-1.69 7.89 7.89 0 0 1-1.37-5V14.17h4.37v9.75q0 3.95 2.84 3.95a4.48 4.48 0 0 0 2.46-.77 5.54 5.54 0 0 0 1.94-2.33v-10.6h4.37v12.07a1.58 1.58 0 0 0 .24 1 1.1 1.1 0 0 0 .8.32v3.72a10.27 10.27 0 0 1-1.09.16h-.8a3.22 3.22 0 0 1-1.91-.53 2.14 2.14 0 0 1-.86-1.49l-.1-1.37a7.2 7.2 0 0 1-2.93 2.64 8.81 8.81 0 0 1-3.96.89zm24.65 0a6.86 6.86 0 0 1-3.49-.88 6.41 6.41 0 0 1-2.41-2.41v3h-3.82V7.46h4.37v9.71a6.66 6.66 0 0 1 2.4-2.43 6.84 6.84 0 0 1 3.47-.86 6.39 6.39 0 0 1 3 .72 7.6 7.6 0 0 1 2.37 1.92 8.81 8.81 0 0 1 1.53 2.84 10.83 10.83 0 0 1 .54 3.42 9.79 9.79 0 0 1-.6 3.46A8.94 8.94 0 0 1 101 29a7.9 7.9 0 0 1-2.55 1.88 7.29 7.29 0 0 1-3.17.7zm-1.21-3.71a4.6 4.6 0 0 0 3.43-1.5 5.05 5.05 0 0 0 1-1.6 5.49 5.49 0 0 0 .34-2 6.22 6.22 0 0 0-.32-2 5.33 5.33 0 0 0-.93-1.67 4.7 4.7 0 0 0-1.46-1.1 3.87 3.87 0 0 0-1.79-.42 4 4 0 0 0-2.63 1 6.5 6.5 0 0 0-1.78 2.36V25a4 4 0 0 0 .67 1.17 5 5 0 0 0 1 .9 5.15 5.15 0 0 0 1.2.59 4.17 4.17 0 0 0 1.27.21z" fill="#190f30"/><path d="M120.41 28.79a9.56 9.56 0 0 1-3.13 2.14 8.42 8.42 0 0 1-6.61-.05 8.87 8.87 0 0 1-2.83-1.88 9.69 9.69 0 0 1-2-2.87 8.38 8.38 0 0 1-.74-3.28 8.51 8.51 0 0 1 .65-3.39 10.1 10.1 0 0 1 5.3-5.3 8.59 8.59 0 0 1 3.34-.62 8.1 8.1 0 0 1 3.23.74 9.29 9.29 0 0 1 2.78 1.92l.56.59a3.29 3.29 0 0 1 .41.52L112 26.6a5.21 5.21 0 0 0 1.61.93 4.57 4.57 0 0 0 1.66.23 4.32 4.32 0 0 0 1.59-.39 4.76 4.76 0 0 0 1.36-.95 5 5 0 0 0 1.29-2.19 3.37 3.37 0 0 0-.06-2.31l3.43-1.92a7.62 7.62 0 0 1 .13 4.4 9.3 9.3 0 0 1-2.6 4.39zm-4.15-10.42a4.54 4.54 0 0 0-3.18-1.17 4.31 4.31 0 0 0-3 1.34 4.23 4.23 0 0 0-.94 1.38 4.31 4.31 0 0 0-.35 1.57 4.41 4.41 0 0 0 .27 1.62 4.47 4.47 0 0 0 .91 1.53z" fill="#4cba6f"/><path d="M126.65 31.58V18.74h-2.25v-3.33h2.25v-1a7.71 7.71 0 0 1 1.53-5 5.11 5.11 0 0 1 4.17-1.86 9.81 9.81 0 0 1 4.21 1l-.88 3.29a6 6 0 0 0-1.16-.44 4.74 4.74 0 0 0-1.22-.18c-1.52 0-2.29 1-2.29 3.07v1.2h4.18v3.33H131v12.76zm18.06 0a9.53 9.53 0 0 1-3.75-.71 8.49 8.49 0 0 1-2.82-1.94 8.65 8.65 0 0 1-1.78-2.82 9.5 9.5 0 0 1 0-6.75 8.45 8.45 0 0 1 1.78-2.82A8.35 8.35 0 0 1 141 14.6a9.36 9.36 0 0 1 3.75-.72 9.23 9.23 0 0 1 3.73.72 8.36 8.36 0 0 1 4.52 4.76 9.5 9.5 0 0 1 0 6.75 8.77 8.77 0 0 1-1.76 2.82 8.3 8.3 0 0 1-2.8 1.94 9.53 9.53 0 0 1-3.73.71zm-4.47-8.83a6.15 6.15 0 0 0 .34 2.07 5 5 0 0 0 .95 1.61 4.11 4.11 0 0 0 1.47 1.06 4.27 4.27 0 0 0 3.52 0 4.3 4.3 0 0 0 1.42-1.06 5 5 0 0 0 .94-1.63 6.47 6.47 0 0 0 0-4.14 5.12 5.12 0 0 0-.94-1.63 4.44 4.44 0 0 0-1.47-1.03 4.15 4.15 0 0 0-1.76-.37A4 4 0 0 0 143 18a4.4 4.4 0 0 0-1.42 1.07 5.14 5.14 0 0 0-.95 1.63 6.27 6.27 0 0 0-.39 2.05zm26.51-4.47a8.61 8.61 0 0 0-3.56.77 4.51 4.51 0 0 0-2.25 2.2v10.33h-4.36V14.5h4v3.65a8 8 0 0 1 1.07-1.58 8.08 8.08 0 0 1 1.35-1.22 6 6 0 0 1 1.45-.8 3.9 3.9 0 0 1 1.42-.28h.54a2 2 0 0 1 .34 0zm28.98 13.3h-4.37V22a5.06 5.06 0 0 0-.7-3 2.28 2.28 0 0 0-1.94-.95 3.67 3.67 0 0 0-2.44 1 5.44 5.44 0 0 0-1.63 2.59v9.94h-4.37V22a5.14 5.14 0 0 0-.7-3 2.3 2.3 0 0 0-1.94-.95 3.73 3.73 0 0 0-2.43 1 5.34 5.34 0 0 0-1.65 2.58v10h-4.37V14.5h3.95v3.16a6.51 6.51 0 0 1 2.59-2.56 7.83 7.83 0 0 1 3.77-.89 4.81 4.81 0 0 1 3.32 1 4.69 4.69 0 0 1 1.5 2.58 7.41 7.41 0 0 1 2.68-2.65 7.13 7.13 0 0 1 3.65-.93 5.08 5.08 0 0 1 2.58.58 4.27 4.27 0 0 1 1.56 1.54 6.32 6.32 0 0 1 .77 2.15 14.19 14.19 0 0 1 .21 2.44z" fill="#190f30"/><path d="M8.51 22.41L10.17 20l2.21 2.21 2.95-1.47 2.21 2.21 2.95-4.42 2.94 2.21 2.21-.74 1.48 2.21L29.33 20l1.47 2.9-1.47 5.15-8.11 3.69-8.1-1.48-4.42-4.42z" fill="#c7c5c5"/><path d="M28.56 21.09v-.64a8.84 8.84 0 0 0-7.36-8.71c.87-.19 1.49-.37.73-.75a2 2 0 0 0-2.21.62h0a2 2 0 0 0-2.18-.61c-.76.38-.14.56.73.75a8.84 8.84 0 0 0-7.36 8.71v.64c-.35 4.86-4.64 12 8.81 12s9.16-7.14 8.81-12" fill="#ffcb4e"/><path d="M22,23.31c0,1.22-1,1.48-2.21,1.48s-2.21-.26-2.21-1.48a2.21,2.21,0,0,1,4.42,0" fill="#ca4627"/><path d="M16.07 20.16a1.11 1.11 0 1 1-2.21 0 1.11 1.11 0 0 1 2.21 0m9.57 0a1.11 1.11 0 1 1-1.1-1.1 1.11 1.11 0 0 1 1.1 1.1" fill="#1b1131"/><path d="M29.33 26.58l-2.21-.74-2.95 4.42L22 26.58l-1.47 1.47-2.95-1.47-2.21 3-2.21-4.42-2.21 1.47-2.47-5.77A9.94 9.94 0 0 0 8 24c0 5.9 5.28 10.68 11.79 10.68S31.54 29.9 31.54 24a9.75 9.75 0 0 0-.38-2.65z" fill="#fff"/><path d="M26.11 8.23c-1.82-1-5.08-.94-6.17-.94s-4.36-.09-6.18.94c-2.25 1.28-2 7.17-2 7.17s2.5.92 8.22.92 8.21-.92 8.21-.92.17-5.89-2.08-7.17z" fill="#742916"/><path class="K" d="M24,8c-1.57-.11-2.92.43-3,1.21s1.12,1.51,2.69,1.62,2.93-.44,3-1.22S25.61,8.07,24,8Z" fill="#bcabd3"/><path class="L" d="M11.44 15.89c-1.12-.68-1.59-1.63-1.45-2a1.46 1.46 0 0 0-.51.06c-.51.14-.11 1.37 1.26 2.21s6 1.58 9.2 1.58a30 30 0 0 0 8.58-1.29 32.49 32.49 0 0 1-7.88 1c-3.16.02-7.83-.72-9.2-1.56z" fill="#c4a582"/><path class="N" d="M17.23 14a3.8 3.8 0 0 1-.68-6.56 7.71 7.71 0 0 0-2.79.79c-2.14 1.22-2.06 6.62-2 7.13l.37.15a23.21 23.21 0 0 0 7.85 1.27c5.71 0 8.21-1.38 8.21-1.38a1.23 1.23 0 0 0 0-.18 4.43 4.43 0 0 0-1.6-.37c-3.59.15-6.44.46-9.36-.85z" fill="#c3be80"/><g fill="#fff"><path d="M16.65 15.17a3 3 0 1 1 3 2.91 2.93 2.93 0 0 1-3-2.91zm3-2.21a2.21 2.21 0 1 0 2.25 2.21A2.23 2.23 0 0 0 19.6 13z"/><path d="M19.31 12.06l.11-.07-.08-.07a.25.25 0 0 0 .09-.31 2.5 2.5 0 0 0-.09-.25.31.31 0 0 1 .07-.34.29.29 0 0 1 .45.36c0 .08-.06.16-.08.23a.25.25 0 0 0 .09.31l-.08.06.13.1h-.61zm.02 6.36l.08-.06-.12-.1h.63l-.12.09.07.07a.26.26 0 0 0-.1.3l.09.25a.33.33 0 0 1-.06.35.32.32 0 0 1-.34 0 .3.3 0 0 1-.11-.4 1.55 1.55 0 0 0 .08-.23.23.23 0 0 0-.1-.27zm-2.22-1.14h.1v-.1l.37.4h0-.12v.09h0a.24.24 0 0 0-.26.13 1.79 1.79 0 0 0-.12.24.31.31 0 0 1-.3.21.32.32 0 0 1-.27-.27.31.31 0 0 1 .22-.3l.22-.11a.24.24 0 0 0 .16-.29zm4.6.38v-.1h-.09l.37-.41v.13h.09 0a.24.24 0 0 0 .13.25l.24.12a.3.3 0 0 1 .21.31.29.29 0 0 1-.57 0 2.14 2.14 0 0 0-.1-.22.26.26 0 0 0-.28-.08zm-.11-4.89h.12v-.1a.27.27 0 0 0 .3-.18c.05-.09.08-.18.13-.27a.26.26 0 0 1 .31-.12.29.29 0 0 1 0 .56l-.18.08a.28.28 0 0 0-.19.31H22v.1l-.37-.41zm-4.11-.09v.1h.12 0l-.38.42v-.11h-.1a.26.26 0 0 0-.17-.3l-.28-.14a.26.26 0 0 1-.12-.3.3.3 0 0 1 .27-.22.31.31 0 0 1 .3.22 1.63 1.63 0 0 0 .11.23.25.25 0 0 0 .25.1zm5.36 2.77c0-.07-.06-.11-.12 0v-.49h.07l.05-.07a.27.27 0 0 0 .33.09l.24-.08a.29.29 0 0 1 .34.07.32.32 0 0 1 0 .34.29.29 0 0 1-.39.1l-.25-.08a.24.24 0 0 0-.27.12zm-6.49-.56c0 .06.05.12.12 0v.49l-.07-.05-.06.08a.24.24 0 0 0-.3-.1 2.67 2.67 0 0 0-.26.09.3.3 0 0 1-.33-.07.32.32 0 0 1 0-.34.3.3 0 0 1 .4-.1l.24.08a.25.25 0 0 0 .26-.08zm2.38.11a.24.24 0 0 0 .11-.23.08.08 0 0 0 0-.06.35.35 0 0 1-.26-.2 1.28 1.28 0 0 1-.11-.2c-.08-.16-.08-.16-.26-.11V14H18v-.1l.34-.33h.07v.08.12h.19c0 .19 0 .18.13.27a1 1 0 0 1 .23.13 1.56 1.56 0 0 1 .16.2v.07a.25.25 0 0 0 .15 0c.1 0 .12-.09.06-.19a.34.34 0 0 1 0-.28 2.33 2.33 0 0 1 .07-.25c0-.09 0-.16-.08-.19h0l.14-.14-.17-.14a1.63 1.63 0 0 1 .66 0l-.16.15.14.13-.08.05c-.06 0-.08.07 0 .13s0 .18.08.26a.52.52 0 0 1 0 .35v.08a.28.28 0 0 0 .13.09c.1 0 .13 0 .17-.1a.39.39 0 0 1 .19-.21l.17-.09c.17-.08.17-.08.13-.27h.18v-.13a.13.13 0 0 1 0-.06h.06l.36.35a.17.17 0 0 1 0 .08H21v.17h0c-.16-.05-.16-.05-.24.11a.63.63 0 0 1-.12.21 1.37 1.37 0 0 1-.22.19h-.07a.47.47 0 0 0 0 .17c0 .1.12.09.19 0a.3.3 0 0 1 .26 0l.24.07c.15 0 .15 0 .27-.14l.1.17.13-.15c.08 0 .07.06.07.12 0 .41 0 .45-.07.5l-.13-.14-.13.14v-.06c0-.09-.09-.11-.17-.07l-.23.07a.43.43 0 0 1-.42-.06v.06c-.12.12-.11.22 0 .26a.39.39 0 0 1 .21.19c0 .06.07.13.11.2s.07.15.25.1v.19h.14a.06.06 0 0 1 0 .06l-.37.35c-.13.11-.07 0-.07 0v-.15h-.2a.25.25 0 0 0 0-.07.1.1 0 0 0-.06-.15 2.69 2.69 0 0 1-.29-.16.34.34 0 0 1-.18-.25c0-.05-.13-.06-.19 0a.44.44 0 0 0-.11.09.46.46 0 0 1 0 .49v.09c-.05.17-.05.17.11.27l-.14.13.16.15a1.58 1.58 0 0 1-.65 0l.15-.15-.14-.14h.08c.07 0 .09-.08.06-.15a2 2 0 0 1-.07-.23.46.46 0 0 1 .05-.44.39.39 0 0 0-.1-.08h-.12c-.08 0-.06 0-.08.08a.47.47 0 0 1-.23.25l-.18.09c-.15.08-.15.08-.09.25h-.2a.76.76 0 0 1 0 .15c0 .06 0 .08-.06 0s-.25-.23-.37-.35 0-.05 0-.08h.2v-.17h0c.16 0 .16 0 .23-.09a1.3 1.3 0 0 1 .14-.26 1.66 1.66 0 0 1 .21-.16h.07a.45.45 0 0 0 0-.16l-.08-.1c-.2.16-.4.07-.6 0s-.16 0-.26.13l-.13-.16-.15.15v-.1c0-.33 0-.47.06-.52l.13.14.14-.14v.07a.11.11 0 0 0 .15.07l.22-.08a.46.46 0 0 1 .53-.03zm.86-.43a.63.63 0 0 0 0 1.26.64.64 0 0 0 .64-.62.66.66 0 0 0-.64-.67z"/><path d="M19.61 14.73a.42.42 0 0 1 .43.44.42.42 0 0 1-.44.43.43.43 0 0 1-.43-.44.44.44 0 0 1 .44-.43zm.24.44a.24.24 0 0 0-.24-.24.24.24 0 0 0-.25.24.23.23 0 0 0 .24.24.24.24 0 0 0 .25-.24z"/></g><path d="M11.71 14.31v1.38a21.2 21.2 0 0 0 8.22 1.76 23.75 23.75 0 0 0 8.21-1.53v-1.45a35.23 35.23 0 0 1-8.2.86 30.3 30.3 0 0 1-8.23-1.02z" fill="#0d0e0e"/><path d="M16.53 16.99h6.14v2.39h-6.14z" fill="#ffcb4e"/><path d="M30.39 13.92c-.75-.21-1.76.47-4 1.38a17.9 17.9 0 0 1-6.48 1.22A17.17 17.17 0 0 1 13 15c-2-1-2.72-1.3-3.47-1.09-.51.14-.11 1.37 1.26 2.21s6 1.58 9.2 1.58 7.82-.74 9.19-1.58 1.72-2.06 1.21-2.2z" fill="#90523e"/></g></svg>