<svg xmlns="http://www.w3.org/2000/svg" width="152" height="46" fill="none" xmlns:v="https://vecta.io/nano"><g clip-path="url(#A)"><g fill="#190f30"><path d="M34.621 24.461V6.501h3.496v8.537l7.547-8.565h3.854l-6.891 7.98 7.32 10.006h-3.926l-5.599-7.777-2.304 2.407v5.37l-3.499.003zm20.238 0c-1.367 0-2.406-.439-3.115-1.318s-1.063-2.179-1.063-3.901v-8.308h3.393v7.574c0 2.043.735 3.065 2.204 3.065a3.49 3.49 0 0 0 1.913-.595c.617-.397 1.119-1.001 1.508-1.812v-8.232h3.395v9.373c0 .354.063.608.19.76a.83.83 0 0 0 .62.253v2.888a7.29 7.29 0 0 1-.848.127l-.621.026c-.607 0-1.102-.143-1.482-.418-.186-.135-.342-.306-.457-.505a1.67 1.67 0 0 1-.214-.647l-.076-1.065a5.67 5.67 0 0 1-2.284 2.053c-.954.461-2.002.695-3.062.684zm19.152 0a5.35 5.35 0 0 1-2.712-.684c-.782-.445-1.43-1.092-1.874-1.874v2.304h-2.962V5.716h3.393v7.547a5.14 5.14 0 0 1 1.856-1.887 5.27 5.27 0 0 1 2.698-.671c.819-.009 1.628.182 2.355.558a5.9 5.9 0 0 1 1.836 1.495 6.74 6.74 0 0 1 1.191 2.204 8.37 8.37 0 0 1 .418 2.659 7.54 7.54 0 0 1-.468 2.685c-.294.798-.737 1.532-1.305 2.166-.553.614-1.226 1.109-1.976 1.456a5.73 5.73 0 0 1-2.45.532zm-.938-2.888a3.51 3.51 0 0 0 1.495-.317 3.58 3.58 0 0 0 1.165-.848c.326-.363.58-.784.748-1.242a4.3 4.3 0 0 0 .266-1.52c.002-.525-.083-1.047-.253-1.545a4.03 4.03 0 0 0-.722-1.292c-.306-.365-.68-.666-1.102-.886-.431-.222-.909-.335-1.393-.33a3.1 3.1 0 0 0-2.038.748 4.97 4.97 0 0 0-1.382 1.836v3.166a2.86 2.86 0 0 0 .52.912 3.8 3.8 0 0 0 .772.697 3.76 3.76 0 0 0 .938.457 3.18 3.18 0 0 0 .988.164z"/></g><path d="M93.532 22.287a7.35 7.35 0 0 1-2.427 1.657c-.814.342-1.69.516-2.573.51s-1.756-.192-2.566-.545c-.82-.354-1.565-.862-2.194-1.496-.649-.641-1.175-1.397-1.549-2.23-.36-.801-.554-1.666-.571-2.544-.014-.902.155-1.798.497-2.632.385-.927.956-1.765 1.676-2.464a7.19 7.19 0 0 1 2.444-1.656c.825-.333 1.708-.497 2.598-.484a6.35 6.35 0 0 1 2.508.571c.804.363 1.535.869 2.157 1.495l.44.457c.117.124.222.259.313.404l-7.253 7.253a3.93 3.93 0 0 0 1.253.714c.413.141.849.202 1.285.18a3.41 3.41 0 0 0 1.236-.305 3.57 3.57 0 0 0 1.056-.734c.473-.473.817-1.058.999-1.702.194-.585.175-1.219-.053-1.792l2.632-1.486c.373 1.106.41 2.298.107 3.426-.292 1.222-.964 2.356-2.016 3.403zm-3.223-8.096c-.761-.645-1.585-.95-2.471-.914-.872.035-1.699.398-2.314 1.017s-.973 1.448-1.002 2.32c-.009.43.06.857.205 1.262a3.68 3.68 0 0 0 .714 1.192l4.868-4.878z" fill="#4cba6f"/><g fill="#190f30"><path d="M98.379 24.461V14.48h-1.747v-2.584h1.747v-.811c0-1.654.397-2.963 1.191-3.926s1.875-1.444 3.244-1.443a7.54 7.54 0 0 1 3.267.785l-.685 2.558a4.38 4.38 0 0 0-.898-.343 3.76 3.76 0 0 0-.951-.143c-1.182 0-1.773.794-1.773 2.381v.936h3.242v2.584h-3.242v9.981l-3.394.004zm14.034 0c-.999.015-1.99-.174-2.912-.557a6.54 6.54 0 0 1-2.192-1.508c-.596-.634-1.063-1.378-1.374-2.191a7.4 7.4 0 0 1 0-5.243 6.65 6.65 0 0 1 1.382-2.193 6.52 6.52 0 0 1 2.187-1.506 7.28 7.28 0 0 1 2.912-.558c.995-.016 1.982.174 2.9.558a6.59 6.59 0 0 1 2.182 1.506 6.66 6.66 0 0 1 1.38 2.193 7.38 7.38 0 0 1 0 5.243c-.311.811-.775 1.555-1.367 2.191a6.44 6.44 0 0 1-2.179 1.508c-.925.383-1.918.573-2.919.557zm-3.47-6.865c-.008.548.082 1.093.265 1.609.165.46.415.885.735 1.253a3.27 3.27 0 0 0 1.102.829 3.36 3.36 0 0 0 2.741 0 3.28 3.28 0 0 0 1.101-.824c.323-.372.572-.801.735-1.266.181-.521.269-1.07.261-1.622.005-.543-.085-1.084-.265-1.596a3.9 3.9 0 0 0-.736-1.266 3.3 3.3 0 0 0-1.1-.824 3.24 3.24 0 0 0-1.369-.285 3.12 3.12 0 0 0-1.368.304c-.42.201-.795.486-1.102.837a3.92 3.92 0 0 0-.735 1.266 4.67 4.67 0 0 0-.265 1.584zm20.595-3.47a6.71 6.71 0 0 0-2.761.595 3.48 3.48 0 0 0-1.747 1.713v8.03h-3.392V11.188h3.112v2.836c.226-.443.507-.856.836-1.229.31-.354.658-.672 1.038-.949.347-.256.726-.465 1.128-.621a3.12 3.12 0 0 1 1.1-.216h.419c.089 0 .179.008.267.026v3.091zm22.519 10.335h-3.395v-7.447c0-1.064-.182-1.841-.545-2.331a1.77 1.77 0 0 0-.662-.557c-.263-.128-.553-.189-.846-.177-.675 0-1.309.257-1.9.772-.604.538-1.043 1.236-1.266 2.014v7.726h-3.39v-7.447c0-1.064-.182-1.841-.544-2.331a1.77 1.77 0 0 0-1.508-.734c-.657 0-1.286.253-1.887.759a4.14 4.14 0 0 0-1.285 1.999v7.752h-3.394V11.182h3.066v2.457c.468-.841 1.166-1.531 2.013-1.989a6.01 6.01 0 0 1 2.926-.697c1.114 0 1.975.27 2.584.809a3.63 3.63 0 0 1 1.165 1.999 5.72 5.72 0 0 1 2.051-2.088 5.53 5.53 0 0 1 2.838-.722c.81 0 1.476.152 1.999.455a3.3 3.3 0 0 1 1.215 1.191 5 5 0 0 1 .595 1.672 10.9 10.9 0 0 1 .165 1.9l.005 8.293z"/></g><path d="M14.377.217L3.841 5.291c-.296.142-.557.35-.761.607s-.349.557-.422.878L.055 18.177c-.073.322-.073.656.001.977s.22.622.427.879l7.29 9.143c.205.257.466.465.762.608a2.19 2.19 0 0 0 .951.216h11.694a2.19 2.19 0 0 0 .951-.216c.297-.143.557-.35.762-.608l7.292-9.143c.207-.257.353-.557.427-.879s.075-.655.001-.977L27.992 6.775c-.073-.32-.217-.62-.422-.877s-.465-.465-.761-.607L16.276.217a2.18 2.18 0 0 0-1.899 0z" fill="#4cba6f"/><path d="M6.597 17.329l1.285-1.907 1.713 1.713 2.284-1.142 1.713 1.713 2.284-3.435 2.284 1.713 1.713-.571 1.142 1.713 1.713-1.713 1.142 2.284-1.142 4.006-6.295 2.862-6.297-1.142-3.396-3.42-.143-2.674z" fill="#c7c5c5"/><path d="M22.17 16.306l.024-.497c-.001-1.622-.576-3.191-1.623-4.429s-2.499-2.066-4.099-2.336c.681-.143 1.163-.286.571-.587-.638-.32-1.278.073-1.713.483-.44-.41-1.078-.802-1.713-.483-.592.296-.111.438.571.587-1.599.27-3.051 1.097-4.098 2.336s-1.622 2.808-1.623 4.429c0 .167.013.331.026.497-.277 3.777-3.607 9.322 6.844 9.322s7.119-5.545 6.844-9.322" fill="#ffcb4e"/><path d="M17.044 18.036c0 .948-.77 1.142-1.713 1.142s-1.713-.196-1.713-1.142c0-.455.181-.892.503-1.214s.759-.503 1.214-.503.892.181 1.214.503.503.759.503 1.214" fill="#ca4627"/><g fill="#1b1131"><path d="M12.464 15.585a.86.86 0 0 1-.528.792c-.156.065-.329.082-.495.049a.86.86 0 0 1-.439-.235c-.12-.12-.201-.272-.234-.439s-.016-.338.049-.495a.86.86 0 0 1 .315-.384c.14-.094.306-.144.476-.144.227 0 .445.09.606.251s.251.378.251.606zm7.44 0a.86.86 0 0 1-.528.792c-.156.065-.329.082-.495.049a.86.86 0 0 1-.439-.235c-.12-.12-.201-.272-.234-.439s-.016-.338.049-.495.175-.29.316-.384.306-.144.476-.144c.227 0 .445.09.606.251s.251.378.251.606z"/></g><path d="M22.767 20.574l-1.713-.571-2.284 3.435-1.713-2.862-1.142 1.142-2.284-1.142-1.713 2.284-1.713-3.435-1.713 1.142-1.913-4.438a7.6 7.6 0 0 0-.404 2.441c0 4.584 4.101 8.3 9.159 8.3s9.158-3.712 9.158-8.3a7.58 7.58 0 0 0-.295-2.059l-1.429 4.063z" fill="#fff"/><path d="M20.269 6.317c-1.413-.801-3.946-.732-4.798-.732s-3.386-.07-4.798.731c-1.749.991-1.587 5.567-1.587 5.567s1.947.714 6.385.714 6.385-.714 6.385-.714.161-4.575-1.588-5.566z" fill="#742916"/><g style="mix-blend-mode:soft-light"><path d="M18.653 6.103c-1.225-.084-2.273.34-2.341.946s.869 1.168 2.093 1.252 2.274-.34 2.343-.946-.869-1.168-2.094-1.252z" fill="#bcabd3"/></g><g style="mix-blend-mode:multiply"><g style="mix-blend-mode:multiply"><path d="M8.873 12.269c-.869-.532-1.236-1.269-1.126-1.58-.135-.006-.271.01-.401.046-.395.108-.084 1.066.981 1.713s4.694 1.226 7.138 1.226c2.141 0 5.242-.447 6.671-.999-1.57.465-4.224.817-6.124.817-2.437.004-6.074-.57-7.138-1.222z" fill="#c4a582"/></g></g><g style="mix-blend-mode:multiply"><path d="M13.366 10.801c-2.066-.925-2.418-3.899-.525-5.102-.782.1-1.57.286-2.168.618-1.666.944-1.597 5.139-1.587 5.536l.286.123c.688.191 2.634.982 6.096.982 4.44 0 6.385-1.072 6.385-1.072v-.143c-.24-.023-.54-.317-1.238-.285-2.728.104-4.974.361-7.248-.657z" fill="#c3be80"/></g><g fill="#fff"><path d="M12.914 11.705a2.3 2.3 0 0 1 1.395-2.146 2.3 2.3 0 0 1 2.515.476 2.3 2.3 0 0 1 .515 2.508 2.3 2.3 0 0 1-2.124 1.428c-.605.005-1.188-.232-1.62-.656s-.677-1.004-.682-1.609zm2.3-1.713c-.337.006-.665.112-.943.304s-.492.462-.617.775-.154.657-.085.987.235.632.476.869.546.396.877.46a1.71 1.71 0 0 0 1.749-.734c.187-.281.287-.611.287-.948a1.74 1.74 0 0 0-1.744-1.717v.004z"/><path d="M14.982 9.296l.084-.06-.061-.054c.038-.024.067-.06.081-.103a.19.19 0 0 0-.006-.131c-.019-.069-.046-.134-.069-.201a.24.24 0 0 1-.015-.138c.009-.047.031-.089.065-.122s.082-.048.129-.052a.25.25 0 0 1 .137.027c.05.031.087.08.103.137s.008.118-.02.17l-.063.18c-.017.042-.019.088-.005.132s.042.08.081.104l-.061.049.097.079h-.471l-.004-.014zm.019 4.937l.061-.049-.097-.079h.49l-.097.076.06.053a.19.19 0 0 0-.08.103c-.013.042-.012.089.005.131.019.066.046.13.067.194.02.043.027.091.017.138s-.033.089-.068.121-.079.052-.127.057-.095-.006-.136-.03a.23.23 0 0 1-.104-.136c-.016-.057-.008-.118.021-.169l.063-.18c.015-.041.016-.086.002-.128s-.041-.078-.078-.102zm-1.726-.889l.079.011v-.079l.285.311.024-.016-.097-.007v.069c-.05-.001-.093.005-.129.023a.18.18 0 0 0-.083.087 1.82 1.82 0 0 0-.088.184c-.014.051-.046.096-.09.126s-.097.044-.15.039a.22.22 0 0 1-.139-.068c-.037-.039-.059-.088-.063-.141a.24.24 0 0 1 .168-.237c.059-.023.116-.05.171-.081.042-.017.077-.049.098-.089s.026-.088.015-.132zm3.582.301v-.081l-.074.009.286-.315v.096h.07c-.008.052-.003.092.015.128a.18.18 0 0 0 .082.082 1.58 1.58 0 0 0 .191.091.23.23 0 0 1 .098.062c.027.029.045.064.054.102s.008.078-.003.115a.23.23 0 0 1-.161.155c-.038.01-.078.009-.116-.001a.23.23 0 0 1-.1-.058c-.028-.027-.047-.062-.058-.1a1.54 1.54 0 0 0-.08-.171.19.19 0 0 0-.204-.111zm-.094-3.805l.091.011v-.079c.05.008.101-.002.144-.028s.076-.067.091-.115l.104-.211a.2.2 0 0 1 .237-.093c.046.014.087.042.118.08a.23.23 0 0 1 .051.133c.003.049-.019.098-.049.137s-.071.07-.118.085l-.143.061a.21.21 0 0 0-.116.093c-.026.044-.036.096-.027.146h-.078l.009.074-.286-.315-.029.019z"/><path d="M13.573 9.772v.077l.093-.009-.013-.013-.297.328v-.091h-.077c.009-.048.001-.097-.023-.14s-.062-.075-.108-.092l-.217-.108a.2.2 0 0 1-.089-.097.19.19 0 0 1-.007-.131.24.24 0 0 1 .208-.176c.052.001.103.018.145.05s.072.076.088.126a1.57 1.57 0 0 0 .087.177.19.19 0 0 0 .21.098zm4.163 2.151c-.021-.054-.046-.086-.093-.021v-.378l.051.031.044-.057c.026.04.065.07.11.083s.095.011.138-.009l.194-.068c.043-.019.092-.023.138-.013s.088.035.119.07c.034.041.054.092.054.146s-.018.105-.052.146-.082.069-.134.078-.107 0-.153-.026a1.8 1.8 0 0 0-.193-.067.19.19 0 0 0-.224.086zm-5.046-.431c.024.049.044.094.093.019v.38l-.051-.031-.044.057a.19.19 0 0 0-.236-.076c-.067.019-.133.046-.2.069a.22.22 0 0 1-.26-.05c-.032-.035-.052-.08-.056-.128s.006-.095.031-.136c.03-.051.079-.089.136-.104s.118-.008.171.02l.186.064a.19.19 0 0 0 .131.001c.043-.015.078-.045.101-.083zm1.85.059c.03-.018.054-.043.07-.074s.022-.066.019-.1c0-.019-.016-.044-.03-.047-.044-.009-.085-.028-.121-.055a.3.3 0 0 1-.086-.101l-.084-.154c-.061-.126-.06-.126-.201-.091v-.143h-.163c.009-.029.009-.059.024-.074l.263-.254c.013-.011.037-.01.054-.014a.37.37 0 0 1 .007.056v.098h.143c-.029.143-.027.143.101.204.063.027.122.061.177.103.048.048.091.102.127.16.011.016.013.054.02.054.041.004.083-.002.123-.016.076-.037.09-.076.046-.154-.016-.033-.026-.068-.028-.104a.27.27 0 0 1 .015-.107c.015-.067.035-.133.06-.197.03-.074.016-.123-.063-.143l-.036-.023.114-.107-.134-.107a1.3 1.3 0 0 1 .512 0l-.123.117.11.104-.064.034c-.01.003-.02.009-.028.016s-.014.016-.018.027-.006.021-.005.032.003.021.009.031l.063.204c.028.088.024.183-.011.268 0 .021-.026.054-.02.061a.26.26 0 0 0 .103.07c.081.023.103.016.131-.074.025-.071.076-.13.143-.164a1.22 1.22 0 0 1 .133-.073c.13-.066.131-.064.101-.206h.143v-.106-.049c0-.016.038 0 .049.01l.285.27c.013.011.009.039.013.064l-.16-.008v.143c-.014 0-.019.011-.023.01-.124-.031-.123-.031-.183.087-.024.059-.055.114-.093.166a1.24 1.24 0 0 1-.171.15c-.017.013-.06.017-.06.024a.43.43 0 0 0 .023.128c.03.077.093.074.143.039.031-.017.065-.027.1-.03s.071.002.104.014c.061.014.123.034.183.053.123.039.123.039.211-.104l.076.131.106-.114c.057 0 .054.046.056.086.014.324.01.357-.054.388l-.101-.107-.1.11c-.011-.015-.02-.032-.028-.049s-.01-.026-.019-.037-.021-.019-.034-.024a.09.09 0 0 0-.041-.006c-.014.002-.027.006-.039.014l-.173.056c-.057.019-.112.027-.169.019s-.111-.03-.158-.064l-.036.043c-.087.093-.081.17.03.207a.3.3 0 0 1 .159.143l.083.154c.059.119.059.119.194.08v.143h.11c.036 0 .04 0 .046.013a.05.05 0 0 1 .006.024c0 .008-.002.016-.006.024l-.286.274c-.031.029-.057.014-.053-.033s0-.073.01-.113h-.153a.56.56 0 0 1 .018-.058c.006-.011.009-.023.01-.035a.08.08 0 0 0-.006-.035c-.005-.011-.012-.021-.021-.029s-.02-.014-.031-.018l-.228-.123a.28.28 0 0 1-.094-.08.26.26 0 0 1-.049-.113c-.007-.041-.103-.049-.153-.013l-.079.07a.38.38 0 0 1 .068.19c.005.069-.009.136-.04.197l-.02.066c-.043.133-.043.133.083.208l-.108.103.12.113a1.25 1.25 0 0 1-.502 0l.121-.117-.11-.106.059-.03c.012-.003.023-.009.032-.017s.016-.018.021-.03.006-.024.005-.036a.08.08 0 0 0-.011-.034l-.056-.174c-.02-.058-.03-.115-.023-.174s.029-.115.064-.164c-.023-.025-.048-.047-.076-.066a.55.55 0 0 0-.099-.023c-.06-.016-.046.03-.056.061a.35.35 0 0 1-.18.191l-.143.076c-.116.057-.116.057-.074.191h-.134a.61.61 0 0 0 .007.116c.007.037-.021.061-.051.034l-.286-.274c-.011-.011-.007-.039-.01-.059h.157v-.134c.016 0 .021-.008.026 0 .12.034.118.034.174-.076a1.17 1.17 0 0 1 .113-.197c.048-.049.101-.093.159-.13.018-.013.06-.019.059-.026-.002-.044-.01-.087-.024-.129-.018-.028-.039-.053-.064-.076-.153.123-.308.053-.464 0-.127-.04-.127-.04-.203.1l-.103-.124-.111.118c-.017-.025-.029-.052-.036-.081-.023-.257-.008-.367.049-.404l.103.111.104-.111a.51.51 0 0 1 .03.057c.003.012.009.022.018.032s.018.016.029.021.023.007.036.006.024-.004.035-.01c.056-.023.116-.037.174-.056.053-.024.111-.036.169-.032a.37.37 0 0 1 .165.051zm.667-.335a.49.49 0 0 0-.481.488c-.001.064.011.128.035.188a.49.49 0 0 0 .105.16c.045.046.099.082.158.107a.48.48 0 0 0 .187.037.5.5 0 0 0 .344-.138.49.49 0 0 0 .151-.338c-.003-.132-.057-.257-.15-.351s-.218-.148-.35-.152z"/><path d="M15.218 11.368a.34.34 0 0 1 .238.102c.063.064.098.151.097.24a.34.34 0 0 1-.342.335c-.045 0-.088-.01-.129-.027s-.078-.043-.109-.074c-.063-.064-.098-.151-.097-.24s.038-.175.102-.238a.34.34 0 0 1 .24-.097zm.183.34c0-.037-.011-.074-.031-.105s-.05-.056-.084-.07-.072-.019-.109-.011-.07.025-.097.051a.19.19 0 0 0-.052.096c-.007.037-.004.075.011.109s.038.064.069.085.067.032.105.032c.025.001.05-.004.073-.013s.044-.023.062-.04.031-.038.041-.061.014-.048.013-.073z"/></g><path d="M9.083 11.038v1.078c2.015.878 4.185 1.343 6.382 1.367a18.44 18.44 0 0 0 6.388-1.189v-1.131s-2.525.672-6.378.672-6.392-.798-6.392-.798z" fill="#0d0e0e"/><path d="M17.6 13.125h-4.772v1.857H17.6v-1.857z" fill="#ffcb4e"/><path d="M23.596 10.734c-.582-.16-1.369.367-3.099 1.074-1.603.629-3.31.952-5.032.952-1.893 0-4.071-.5-5.425-1.175-1.57-.782-2.114-1.011-2.698-.856-.395.108-.084 1.066.981 1.713s4.694 1.226 7.138 1.226c2.427 0 6.081-.571 7.138-1.226s1.396-1.599.998-1.707z" fill="#90523e"/><g fill="#fc6011"><path d="M4.938 39.858h-3.47v2.581h4.056v1.164H0v-8.39h5.484v1.175H1.468v2.316h3.47v1.152zm13.948-2.49l.041.72c.464-.557 1.074-.836 1.828-.836 1.308 0 1.973.743 1.996 2.23v4.12h-1.41v-4.039c0-.396-.087-.688-.261-.876s-.451-.288-.841-.288c-.569 0-.992.255-1.271.766v4.437h-1.41v-6.235h1.329zm18.067-1.515v1.515h1.108v1.037h-1.108v3.48c0 .238.046.411.139.519s.267.156.511.156c.162 0 .327-.019.493-.058v1.083c-.321.088-.631.133-.928.133-1.083 0-1.625-.594-1.625-1.781v-3.532H34.51v-1.037h1.033v-1.515h1.41zm15.95 7.865c-.894 0-1.619-.279-2.176-.836s-.83-1.306-.83-2.236v-.173c0-.622.12-1.177.36-1.665s.584-.874 1.021-1.147.925-.409 1.462-.409c.855 0 1.515.271 1.979.813s.702 1.308.702 2.299v.565h-4.103c.042.515.215.922.516 1.222s.689.449 1.149.449a1.91 1.91 0 0 0 1.578-.778l.76.72a2.55 2.55 0 0 1-1.01.87c-.418.204-.888.305-1.41.305zm-.168-5.342a1.2 1.2 0 0 0-.94.403c-.236.269-.387.643-.453 1.124h2.687V39.8c-.031-.469-.157-.822-.377-1.06s-.526-.363-.917-.363zm18.067.272c-.186-.031-.377-.046-.575-.046-.646 0-1.081.246-1.306.738v4.264h-1.41v-6.235h1.346l.035.697c.34-.542.812-.812 1.416-.812.201 0 .368.027.499.081l-.006 1.314zm17.383 1.901c0 .964-.221 1.734-.662 2.311s-1.033.859-1.776.859c-.689 0-1.24-.225-1.654-.674V46h-1.41v-8.632h1.3l.058.634c.414-.499.977-.749 1.689-.749.766 0 1.366.284 1.799.853s.656 1.35.656 2.357v.087zm-1.404-.121c0-.622-.126-1.116-.377-1.481a1.21 1.21 0 0 0-1.068-.547c-.576 0-.99.236-1.242.709v2.766c.255.484.673.726 1.254.726a1.21 1.21 0 0 0 1.05-.536c.255-.361.383-.907.383-1.636zm16.883-1.78c-.185-.031-.377-.046-.574-.046-.646 0-1.082.246-1.306.738v4.264h-1.41v-6.235h1.346l.035.697c.34-.542.812-.812 1.416-.812.201 0 .368.027.499.081l-.006 1.314zm13.385 4.955h-1.41v-6.235h1.41v6.235zm-1.498-7.854c0-.215.068-.394.204-.536s.336-.213.592-.213.452.071.591.213a.73.73 0 0 1 .209.536c0 .211-.069.388-.209.53s-.336.207-.591.207-.453-.069-.592-.207-.204-.319-.204-.53zm17.552 6.16a.63.63 0 0 0-.314-.571c-.205-.131-.547-.246-1.027-.346s-.88-.227-1.201-.38c-.704-.338-1.056-.828-1.056-1.469 0-.538.228-.987.684-1.348s1.037-.542 1.741-.542c.751 0 1.356.184 1.817.553s.696.847.696 1.435h-1.41a.85.85 0 0 0-.302-.668c-.201-.181-.468-.271-.801-.271-.309 0-.563.071-.76.213s-.29.332-.29.571c0 .215.091.382.273.501s.549.24 1.102.363.987.263 1.3.432.552.365.702.599.233.519.233.853c0 .561-.235 1.016-.703 1.366s-1.081.519-1.839.519a3.27 3.27 0 0 1-1.376-.277c-.402-.184-.715-.438-.94-.761s-.336-.67-.336-1.043h1.369c.02.33.145.586.377.766s.54.265.923.265c.372 0 .654-.069.847-.207s.291-.327.291-.553zm16.378 1.809c-.893 0-1.619-.279-2.176-.836s-.83-1.306-.83-2.236v-.173c0-.622.12-1.177.36-1.665a2.76 2.76 0 0 1 1.022-1.147c.437-.273.924-.409 1.462-.409.855 0 1.515.271 1.979.813s.702 1.308.702 2.299v.565h-4.103c.043.515.215.922.517 1.222s.688.449 1.149.449a1.91 1.91 0 0 0 1.578-.778l.76.72a2.55 2.55 0 0 1-1.009.87c-.418.204-.888.305-1.411.305zm-.168-5.342c-.387 0-.7.134-.94.403s-.387.643-.453 1.124h2.687V39.8c-.031-.469-.156-.822-.377-1.06s-.526-.363-.917-.363z"/></g></g><defs><clipPath id="A"><path fill="#fff" d="M0 0h152v46H0z"/></clipPath></defs></svg>