<svg width="64" height="64" viewBox="0 0 64 64" fill="none" xmlns="http://www.w3.org/2000/svg">
<path d="M30.045 1.33336L13.8888 9.11265C13.4346 9.33107 13.0355 9.64923 12.7213 10.0434C12.4071 10.4375 12.1859 10.8975 12.0743 11.3891L8.08393 28.8717C7.97141 29.3648 7.97203 29.877 8.08576 30.3698C8.19949 30.8626 8.42337 31.3233 8.7406 31.7172L19.9192 45.737C20.2338 46.1316 20.6334 46.4501 21.0882 46.6688C21.543 46.8875 22.0412 47.0007 22.5459 47H40.4772C40.9818 47.0007 41.4801 46.8875 41.9349 46.6688C42.3897 46.4501 42.7893 46.1316 43.1038 45.737L54.2847 31.7172C54.6019 31.3233 54.8258 30.8626 54.9395 30.3698C55.0532 29.877 55.0538 29.3648 54.9413 28.8717L50.9203 11.3891C50.8084 10.8977 50.5871 10.4378 50.273 10.0437C49.9588 9.64957 49.5598 9.33133 49.1058 9.11265L32.9562 1.33336C32.5023 1.11396 32.0047 1 31.5006 1C30.9965 1 30.4989 1.11396 30.045 1.33336V1.33336Z" fill="#4CBA6F"/>
<path d="M18.1157 27.5714L20.0857 24.6471L22.7124 27.2737L26.2146 25.5226L28.8412 28.1493L32.3435 22.8828L35.8457 25.5095L38.4723 24.6339L40.2234 27.2606L42.8501 24.6339L44.6012 28.1361L42.8501 34.2781L33.1971 38.6668L23.542 36.9157L18.3346 31.6712L18.1157 27.5714Z" fill="#C7C5C5"/>
<path d="M41.9942 26.0023C42.0118 25.7483 42.0315 25.4966 42.0315 25.2405C42.0304 22.7537 41.1488 20.3476 39.5429 18.4488C37.937 16.55 35.7106 15.2812 33.2584 14.8674C34.3025 14.6485 35.0424 14.4296 34.134 13.9678C33.1555 13.4775 32.1749 14.0794 31.5073 14.7076C30.8331 14.0794 29.8547 13.4775 28.8807 13.9678C27.9723 14.4209 28.7099 14.6398 29.7562 14.8674C27.304 15.2812 25.0776 16.55 23.4717 18.4488C21.8658 20.3476 20.9842 22.7537 20.9832 25.2405C20.9832 25.4966 21.0029 25.7483 21.0226 26.0023C20.5979 31.794 15.4913 40.2957 31.5161 40.2957C47.5409 40.2957 42.432 31.794 42.0096 26.0023" fill="#FFCB4E"/>
<path d="M34.1342 28.655C34.1342 30.1084 32.9544 30.4061 31.5075 30.4061C30.0607 30.4061 28.8809 30.1062 28.8809 28.655C28.8809 27.9566 29.1583 27.2868 29.6521 26.793C30.1459 26.2992 30.8157 26.0217 31.5141 26.0217C32.2125 26.0217 32.8822 26.2992 33.3761 26.793C33.8699 27.2868 34.1473 27.9566 34.1473 28.655" fill="#CA4627"/>
<path d="M27.112 24.8968C27.112 25.1566 27.035 25.4105 26.8907 25.6265C26.7464 25.8425 26.5413 26.0108 26.3013 26.1102C26.0613 26.2096 25.7972 26.2356 25.5425 26.1849C25.2877 26.1342 25.0537 26.0092 24.87 25.8255C24.6863 25.6418 24.5613 25.4078 24.5106 25.153C24.4599 24.8983 24.4859 24.6342 24.5853 24.3942C24.6847 24.1543 24.8531 23.9491 25.069 23.8048C25.285 23.6605 25.5389 23.5835 25.7987 23.5835C26.147 23.5835 26.481 23.7219 26.7273 23.9682C26.9736 24.2145 27.112 24.5485 27.112 24.8968" fill="#1B1131"/>
<path d="M38.5207 24.8968C38.5207 25.1566 38.4437 25.4105 38.2994 25.6265C38.1551 25.8425 37.9499 26.0108 37.71 26.1102C37.47 26.2096 37.2059 26.2356 36.9512 26.1849C36.6964 26.1342 36.4624 26.0092 36.2787 25.8255C36.095 25.6418 35.97 25.4078 35.9193 25.153C35.8686 24.8983 35.8946 24.6342 35.994 24.3942C36.0934 24.1543 36.2617 23.9491 36.4777 23.8048C36.6937 23.6605 36.9476 23.5835 37.2074 23.5835C37.5557 23.5835 37.8897 23.7219 38.136 23.9682C38.3823 24.2145 38.5207 24.5485 38.5207 24.8968" fill="#1B1131"/>
<path d="M42.9091 32.5469L40.2825 31.6713L36.7803 36.9378L34.1536 32.5491L32.4025 34.3002L28.9003 32.5491L26.2736 36.0513L23.647 30.7848L21.0203 32.536L18.0872 25.7307C17.6776 26.9362 17.4684 28.2006 17.4678 29.4737C17.4678 36.5022 23.7564 42.1999 31.5116 42.1999C39.2668 42.1999 45.5533 36.5088 45.5533 29.4737C45.5481 28.4058 45.3956 27.3436 45.1002 26.3173L42.9091 32.5469Z" fill="white"/>
<path d="M39.0785 10.6865C36.9115 9.45859 33.0284 9.56365 31.7217 9.56365C30.4149 9.56365 26.5296 9.4564 24.3648 10.6844C21.6835 12.2034 21.9308 19.221 21.9308 19.221C21.9308 19.221 24.9164 20.3154 31.7217 20.3154C38.5269 20.3154 41.5125 19.221 41.5125 19.221C41.5125 19.221 41.7599 12.2056 39.0785 10.6865Z" fill="#742916"/>
<g style="mix-blend-mode:soft-light">
<path d="M36.6005 10.3581C34.7225 10.229 33.1158 10.8791 33.0108 11.8094C32.9057 12.7396 34.3438 13.5999 36.2197 13.729C38.0956 13.8582 39.7066 13.2081 39.8116 12.2778C39.9167 11.3475 38.4786 10.4873 36.6005 10.3581Z" fill="#BCABD3"/>
</g>
<g style="mix-blend-mode:multiply">
<g style="mix-blend-mode:multiply">
<path d="M21.6048 19.8119C20.2718 18.9954 19.7092 17.866 19.8778 17.3888C19.6703 17.3799 19.4628 17.4035 19.2627 17.4588C18.6564 17.6252 19.1335 19.0939 20.7664 20.0855C22.3993 21.0771 27.9635 21.9657 31.7108 21.9657C34.9942 21.9657 39.7484 21.2806 41.9395 20.4335C39.5317 21.1471 35.4626 21.6856 32.5492 21.6856C28.8128 21.6921 23.2355 20.8122 21.6048 19.8119Z" fill="#C4A582"/>
</g>
</g>
<g style="mix-blend-mode:multiply">
<path d="M28.4954 17.5618C25.3281 16.1434 24.7874 11.584 27.6899 9.73877C26.4904 9.89199 25.2821 10.1765 24.365 10.6866C21.8105 12.1334 21.9156 18.5665 21.9309 19.175C22.0732 19.2363 22.2199 19.2998 22.3687 19.3633C23.4238 19.6566 26.4072 20.8692 31.7152 20.8692C38.5227 20.8692 41.5061 19.2254 41.5061 19.2254C41.5061 19.2254 41.5061 19.1488 41.5061 19.0065C41.1384 18.9715 40.6787 18.5206 39.6083 18.5687C35.4254 18.7285 31.9823 19.1225 28.4954 17.5618Z" fill="#C3BE80"/>
</g>
<path d="M27.8016 18.9475C27.7916 18.2486 27.9897 17.5626 28.3706 16.9765C28.7515 16.3905 29.2981 15.931 29.9409 15.6564C30.5836 15.3818 31.2935 15.3045 31.9803 15.4344C32.667 15.5643 33.2997 15.8955 33.7977 16.3858C34.2958 16.8762 34.6368 17.5036 34.7774 18.1882C34.918 18.8729 34.8519 19.5839 34.5874 20.2308C34.3228 20.8778 33.8719 21.4315 33.2919 21.8215C32.7119 22.2116 32.029 22.4203 31.3301 22.4212C30.4016 22.4282 29.5084 22.0663 28.8467 21.4149C28.1851 20.7635 27.8091 19.876 27.8016 18.9475V18.9475ZM31.3279 16.3208C30.8106 16.3303 30.3075 16.4924 29.882 16.7867C29.4564 17.0811 29.1272 17.4945 28.9358 17.9752C28.7444 18.4559 28.6992 18.9825 28.8059 19.4888C28.9126 19.9951 29.1665 20.4586 29.5357 20.8212C29.9049 21.1837 30.3729 21.4291 30.8811 21.5266C31.3893 21.6242 31.9149 21.5694 32.3921 21.3693C32.8692 21.1691 33.2766 20.8325 33.5632 20.4017C33.8497 19.9708 34.0026 19.4649 34.0027 18.9475C33.9941 18.2446 33.7082 17.5736 33.2072 17.0804C32.7063 16.5873 32.0309 16.3119 31.3279 16.3143V16.3208Z" fill="white"/>
<path d="M30.9731 15.2547L31.1023 15.1628L31.0082 15.0796C31.0669 15.0433 31.1107 14.9871 31.1316 14.9212C31.1525 14.8553 31.1491 14.7842 31.122 14.7206C31.0935 14.6156 31.0519 14.5149 31.0169 14.412C30.9886 14.3455 30.9808 14.2721 30.9945 14.2011C31.0081 14.1302 31.0426 14.0649 31.0935 14.0136C31.1503 13.9682 31.219 13.9404 31.2912 13.9334C31.3635 13.9264 31.4363 13.9406 31.5007 13.9742C31.578 14.0216 31.6342 14.0967 31.6578 14.1842C31.6814 14.2718 31.6706 14.365 31.6276 14.4448C31.5926 14.5346 31.5576 14.6265 31.5313 14.7206C31.5052 14.7849 31.5025 14.8562 31.5237 14.9223C31.5449 14.9883 31.5887 15.0448 31.6473 15.0818L31.5532 15.1562L31.702 15.2766H30.9797L30.9731 15.2547Z" fill="white"/>
<path d="M31.0015 22.824L31.0956 22.7495L30.9468 22.6292H31.6976L31.5487 22.7452L31.6407 22.8261C31.5822 22.8628 31.5385 22.9189 31.5173 22.9845C31.4961 23.0502 31.4987 23.1212 31.5246 23.1851C31.5531 23.2858 31.5947 23.3843 31.6275 23.4828C31.6588 23.5485 31.6682 23.6225 31.6542 23.6939C31.6403 23.7653 31.6038 23.8303 31.55 23.8793C31.4963 23.9284 31.4283 23.9589 31.3559 23.9663C31.2836 23.9737 31.2107 23.9577 31.1482 23.9206C31.0702 23.8744 31.0133 23.7996 30.9896 23.7122C30.9659 23.6247 30.9772 23.5314 31.0212 23.4522C31.0562 23.3602 31.0912 23.2705 31.1175 23.1764C31.1409 23.1132 31.1422 23.0439 31.1211 22.9799C31.1 22.9159 31.0579 22.8609 31.0015 22.824V22.824Z" fill="white"/>
<path d="M28.3552 21.4601L28.4755 21.4776V21.3572L28.9133 21.8344L28.9505 21.8103L28.8017 21.7993V21.9044C28.8017 21.9044 28.7907 21.9175 28.7864 21.9153C28.7244 21.9026 28.6599 21.9113 28.6035 21.9399C28.547 21.9686 28.5019 22.0154 28.4755 22.0729C28.425 22.1644 28.3797 22.2587 28.3398 22.3553C28.3182 22.4341 28.2694 22.5027 28.2021 22.5489C28.1347 22.5952 28.0532 22.6161 27.9719 22.6079C27.8906 22.5998 27.8148 22.5632 27.758 22.5045C27.7011 22.4458 27.6669 22.369 27.6613 22.2875C27.659 22.207 27.6829 22.1281 27.7295 22.0625C27.7762 21.9969 27.8429 21.9483 27.9196 21.9241C28.0098 21.8883 28.0975 21.8466 28.1822 21.7993C28.2473 21.7733 28.3007 21.7246 28.3325 21.6622C28.3643 21.5998 28.3724 21.528 28.3552 21.4601Z" fill="white"/>
<path d="M33.8467 21.922V21.7973L33.7329 21.8104L34.1707 21.3267V21.4733H34.2779C34.2779 21.4733 34.2779 21.4865 34.2779 21.493C34.2659 21.5527 34.274 21.6148 34.3009 21.6694C34.3278 21.724 34.3721 21.7682 34.4268 21.7951C34.5213 21.8483 34.6193 21.8951 34.7201 21.9352C34.7774 21.9532 34.8289 21.9859 34.8697 22.0299C34.9106 22.0739 34.9392 22.1278 34.9529 22.1862C34.9666 22.2447 34.9648 22.3057 34.9477 22.3632C34.9307 22.4208 34.8989 22.4729 34.8556 22.5145C34.8123 22.5561 34.759 22.5857 34.7007 22.6004C34.6425 22.615 34.5815 22.6143 34.5237 22.5983C34.4658 22.5822 34.4132 22.5514 34.3708 22.5088C34.3285 22.4662 34.298 22.4134 34.2823 22.3554C34.2468 22.2655 34.2059 22.1778 34.1597 22.0928C34.1336 22.0339 34.0887 21.9852 34.0322 21.9544C33.9756 21.9235 33.9104 21.9122 33.8467 21.922Z" fill="white"/>
<path d="M33.7026 16.0887L33.8427 16.1062V15.9858C33.9192 15.9985 33.9976 15.9834 34.0639 15.9433C34.1301 15.9031 34.1798 15.8405 34.2039 15.7669C34.2608 15.6596 34.3002 15.548 34.3637 15.4429C34.3983 15.3807 34.4535 15.3325 34.5198 15.3065C34.5861 15.2805 34.6594 15.2785 34.727 15.3007C34.7983 15.322 34.8613 15.3648 34.9075 15.4231C34.9537 15.4814 34.9808 15.5525 34.9853 15.6268C34.9825 15.703 34.9565 15.7766 34.9107 15.8376C34.8649 15.8987 34.8016 15.9442 34.7292 15.9683C34.657 15.9989 34.5848 16.0274 34.5103 16.0624C34.4359 16.0874 34.3729 16.1382 34.3327 16.2057C34.2926 16.2732 34.2779 16.3528 34.2914 16.4301H34.1711L34.1842 16.544L33.7464 16.0602L33.7026 16.0887Z" fill="white"/>
<path d="M28.8125 15.9834V16.1016L28.9548 16.0885L28.9351 16.0688L28.4798 16.5722V16.4322H28.3616C28.3755 16.3588 28.3629 16.2828 28.326 16.2179C28.2891 16.153 28.2304 16.1032 28.1603 16.0776C28.0508 16.0185 27.9414 15.9769 27.8275 15.9112C27.7664 15.8787 27.7185 15.8261 27.6917 15.7623C27.665 15.6984 27.6612 15.6273 27.6809 15.561C27.7005 15.489 27.7416 15.4246 27.7987 15.3766C27.8558 15.3285 27.9262 15.2989 28.0005 15.2917C28.0809 15.2926 28.1589 15.3192 28.2231 15.3677C28.2873 15.4161 28.3343 15.4839 28.3573 15.561C28.396 15.6542 28.4406 15.7448 28.4908 15.8324C28.5202 15.8896 28.5677 15.9354 28.6259 15.9627C28.6841 15.99 28.7498 15.9973 28.8125 15.9834V15.9834Z" fill="white"/>
<path d="M35.1955 19.2822C35.1627 19.199 35.1255 19.1509 35.0532 19.2494V18.6693L35.132 18.7175L35.1999 18.6299C35.2392 18.6914 35.2992 18.7368 35.3692 18.7576C35.4391 18.7785 35.5142 18.7736 35.5807 18.7438C35.6814 18.7131 35.7777 18.6715 35.8784 18.6387C35.9449 18.6099 36.0189 18.6028 36.0896 18.6185C36.1604 18.6343 36.2244 18.672 36.2724 18.7262C36.3254 18.7886 36.3547 18.8677 36.3551 18.9495C36.3556 19.0314 36.3272 19.1107 36.2749 19.1737C36.2226 19.2367 36.1499 19.2792 36.0694 19.2939C35.9888 19.3085 35.9057 19.2943 35.8347 19.2538C35.7382 19.2139 35.6395 19.1796 35.5392 19.1509C35.4755 19.1299 35.4066 19.1315 35.344 19.1554C35.2813 19.1793 35.2289 19.2241 35.1955 19.2822V19.2822Z" fill="white"/>
<path d="M27.4574 18.6211C27.4946 18.6955 27.5253 18.7656 27.5997 18.6496V19.2318L27.5209 19.1837L27.4531 19.2712C27.4167 19.2119 27.3602 19.1676 27.294 19.1463C27.2277 19.125 27.156 19.1282 27.0919 19.1552C26.989 19.1837 26.8883 19.2252 26.7854 19.2603C26.7195 19.2922 26.6451 19.3019 26.5732 19.288C26.5013 19.2741 26.4358 19.2373 26.3866 19.1831C26.3373 19.1289 26.3069 19.0603 26.2999 18.9874C26.2929 18.9145 26.3096 18.8413 26.3477 18.7787C26.3939 18.7002 26.4689 18.6428 26.5568 18.6187C26.6446 18.5946 26.7384 18.6057 26.8183 18.6496C26.9102 18.6846 27.0065 18.7218 27.1028 18.7481C27.1674 18.7719 27.2384 18.7722 27.3032 18.749C27.368 18.7258 27.4226 18.6805 27.4574 18.6211Z" fill="white"/>
<path d="M30.2947 18.7109C30.3405 18.684 30.3776 18.6445 30.4016 18.5972C30.4257 18.5499 30.4357 18.4966 30.4305 18.4438C30.4305 18.4154 30.4064 18.376 30.3845 18.3716C30.3173 18.3576 30.254 18.329 30.1991 18.2878C30.1443 18.2465 30.0992 18.1937 30.0671 18.133C30.0233 18.0542 29.9774 17.9776 29.938 17.8966C29.8438 17.704 29.846 17.704 29.6293 17.7565V17.5376H29.3798C29.3929 17.4938 29.3929 17.4479 29.417 17.4238C29.5483 17.2903 29.6841 17.1611 29.8198 17.0342C29.8395 17.0167 29.8767 17.0189 29.9029 17.0123C29.9087 17.0404 29.9124 17.069 29.9139 17.0977C29.9139 17.1458 29.9139 17.194 29.9139 17.2487H30.1328C30.089 17.4676 30.0912 17.4676 30.2882 17.5617C30.3847 17.603 30.4759 17.6559 30.5596 17.7193C30.6333 17.7936 30.6986 17.8759 30.7544 17.9645C30.7719 17.9885 30.7741 18.0476 30.7851 18.0476C30.8488 18.0535 30.9131 18.0452 30.9733 18.0235C31.0893 17.9666 31.1112 17.9075 31.0433 17.7872C31.0186 17.7372 31.0042 17.6828 31.0008 17.6272C30.9974 17.5715 31.0052 17.5158 31.0236 17.4632C31.0473 17.3605 31.078 17.2596 31.1156 17.1611C31.1615 17.0473 31.1397 16.9729 31.0193 16.9422C31.0001 16.9322 30.9818 16.9204 30.9645 16.9072L31.1397 16.7431L30.9339 16.5789C31.1932 16.5261 31.4604 16.5261 31.7197 16.5789L31.5315 16.7584L31.7 16.9182L31.6015 16.9707C31.5856 16.9758 31.5711 16.9843 31.5588 16.9956C31.5466 17.007 31.537 17.0209 31.5308 17.0363C31.5245 17.0518 31.5217 17.0684 31.5226 17.0851C31.5235 17.1017 31.528 17.118 31.5358 17.1327C31.5731 17.2355 31.5971 17.3516 31.6322 17.4457C31.6747 17.5807 31.6685 17.7263 31.6146 17.8572C31.6146 17.89 31.5752 17.9404 31.584 17.9513C31.6271 17.9993 31.6812 18.0361 31.7416 18.0586C31.8664 18.0936 31.8992 18.0827 31.943 17.9448C31.9813 17.8361 32.0595 17.7461 32.1619 17.693C32.2273 17.6516 32.2953 17.6143 32.3654 17.5814C32.5646 17.4807 32.5668 17.4829 32.5208 17.2662H32.7397V17.1042C32.7397 17.0801 32.7397 17.0539 32.7397 17.0298C32.7397 17.0057 32.7988 17.0298 32.8142 17.0451C32.9586 17.1808 33.1031 17.3165 33.2519 17.4588C33.2716 17.4763 33.2651 17.5179 33.2716 17.5573L33.0265 17.5442V17.7631C33.0046 17.7631 32.998 17.7806 32.9915 17.7784C32.801 17.7302 32.8032 17.7302 32.7113 17.9119C32.6748 18.0022 32.627 18.0876 32.569 18.1658C32.4887 18.2503 32.4008 18.3273 32.3063 18.3957C32.2801 18.4154 32.2144 18.4219 32.2144 18.4329C32.2159 18.4999 32.2278 18.5664 32.2494 18.6299C32.2954 18.7481 32.3917 18.7437 32.4683 18.689C32.5157 18.6627 32.5682 18.6469 32.6222 18.6428C32.6762 18.6386 32.7305 18.6461 32.7813 18.6649C32.8754 18.6868 32.9696 18.7174 33.0615 18.7459C33.2497 18.805 33.2497 18.805 33.3854 18.5861L33.5015 18.7875L33.6634 18.6124C33.751 18.6124 33.7466 18.6824 33.7488 18.7437C33.7707 19.2406 33.7641 19.2909 33.6656 19.3391L33.5102 19.1749L33.357 19.3434C33.3404 19.3199 33.3257 19.295 33.3132 19.269C33.308 19.248 33.2978 19.2286 33.2836 19.2123C33.2693 19.196 33.2514 19.1834 33.2312 19.1755C33.2111 19.1676 33.1893 19.1646 33.1678 19.1667C33.1463 19.1689 33.1256 19.1762 33.1075 19.188C33.0221 19.2209 32.9302 19.2449 32.8426 19.2734C32.76 19.3048 32.6709 19.315 32.5834 19.3032C32.4958 19.2913 32.4126 19.2578 32.3414 19.2055L32.2866 19.2712C32.1531 19.4135 32.1619 19.5317 32.3326 19.5886C32.4377 19.6293 32.5241 19.7072 32.5756 19.8075C32.6215 19.8841 32.6631 19.9629 32.7025 20.0439C32.7923 20.2256 32.7923 20.2256 33.0002 20.1665V20.3854C33.0593 20.3854 33.114 20.3854 33.1687 20.3854C33.2235 20.3854 33.23 20.3854 33.2388 20.4051C33.2447 20.4162 33.2478 20.4286 33.2478 20.4412C33.2478 20.4538 33.2447 20.4662 33.2388 20.4773C33.0943 20.6196 32.9521 20.7618 32.801 20.8976C32.7529 20.9413 32.7135 20.9194 32.72 20.8472C32.7266 20.775 32.72 20.7356 32.7354 20.6743H32.5011C32.5091 20.6439 32.5186 20.6139 32.5296 20.5845C32.5385 20.5682 32.5437 20.55 32.5447 20.5314C32.5457 20.5128 32.5425 20.4942 32.5353 20.477C32.5282 20.4598 32.5173 20.4444 32.5034 20.4319C32.4895 20.4195 32.4731 20.4103 32.4552 20.4051C32.3348 20.346 32.2188 20.2825 32.105 20.2168C32.0485 20.1874 31.9994 20.1455 31.9615 20.0943C31.9236 20.0431 31.8978 19.9839 31.8861 19.9213C31.8729 19.86 31.7285 19.8469 31.6519 19.9016C31.6099 19.9353 31.5698 19.9711 31.5315 20.0089C31.592 20.0945 31.6278 20.1951 31.6351 20.2997C31.6425 20.4042 31.621 20.5088 31.5731 20.6021C31.5621 20.6349 31.5512 20.6677 31.5424 20.7027C31.4767 20.9063 31.4767 20.9063 31.6694 21.0223L31.503 21.1799L31.6869 21.3528C31.4327 21.4054 31.1705 21.4054 30.9164 21.3528L31.1024 21.1734L30.9339 21.0114L31.0236 20.9654C31.0419 20.9607 31.0587 20.9517 31.0728 20.9393C31.0869 20.9269 31.0979 20.9113 31.105 20.8939C31.112 20.8764 31.1148 20.8576 31.1132 20.8388C31.1117 20.8201 31.1057 20.8019 31.0959 20.7859C31.063 20.7006 31.0412 20.6086 31.0105 20.5189C30.9768 20.434 30.9649 20.342 30.976 20.2514C30.9871 20.1607 31.0208 20.0743 31.074 20.0001C31.0392 19.9623 31.0003 19.9285 30.958 19.8994C30.9088 19.8831 30.8583 19.8714 30.8069 19.8644C30.715 19.8403 30.7369 19.9104 30.7216 19.9585C30.6708 20.0881 30.572 20.1932 30.4458 20.2518C30.3735 20.2912 30.3035 20.3306 30.2269 20.3678C30.0496 20.4554 30.0496 20.4554 30.1131 20.6612H29.9073C29.9073 20.7224 29.9073 20.7815 29.9183 20.8385C29.9292 20.8954 29.8854 20.9326 29.8395 20.891C29.6884 20.7553 29.544 20.6152 29.4017 20.4707C29.3842 20.4532 29.3907 20.4116 29.3864 20.381H29.6271V20.1752C29.6512 20.1752 29.66 20.1621 29.6665 20.1752C29.8504 20.2278 29.8482 20.2278 29.9336 20.0592C29.9808 19.9529 30.0388 19.8517 30.1065 19.7571C30.18 19.6821 30.2615 19.6153 30.3495 19.558C30.3779 19.5383 30.4414 19.5295 30.4392 19.5186C30.437 19.4514 30.4244 19.3849 30.402 19.3216C30.3746 19.2786 30.3415 19.2395 30.3035 19.2055C30.0693 19.3938 29.8307 19.2865 29.5921 19.2055C29.3973 19.1443 29.3973 19.1443 29.2813 19.3588L29.1237 19.1683L28.953 19.35C28.9275 19.312 28.909 19.2697 28.8982 19.2252C28.8632 18.8313 28.8851 18.6627 28.9727 18.6058L29.1303 18.7765L29.2901 18.6058C29.3069 18.6341 29.3223 18.6633 29.336 18.6933C29.3413 18.7112 29.3504 18.7277 29.3629 18.7416C29.3753 18.7555 29.3907 18.7664 29.408 18.7735C29.4252 18.7806 29.4438 18.7838 29.4624 18.7828C29.481 18.7818 29.4991 18.7767 29.5155 18.7678C29.6009 18.7327 29.6928 18.7109 29.7825 18.6824C29.8637 18.6449 29.9529 18.6279 30.0422 18.6329C30.1315 18.6379 30.2182 18.6646 30.2947 18.7109V18.7109ZM31.317 18.1965C31.1209 18.201 30.9342 18.2817 30.7965 18.4214C30.6589 18.5611 30.581 18.7489 30.5793 18.9451C30.5779 19.0436 30.596 19.1415 30.6328 19.2329C30.6696 19.3243 30.7242 19.4075 30.7935 19.4776C30.8628 19.5477 30.9453 19.6033 31.0363 19.6412C31.1273 19.679 31.225 19.6983 31.3235 19.698C31.5201 19.6982 31.7091 19.6221 31.8508 19.4857C31.9924 19.3494 32.0757 19.1634 32.0831 18.967C32.0781 18.7649 31.9959 18.5725 31.8535 18.4291C31.711 18.2858 31.519 18.2026 31.317 18.1965Z" fill="white"/>
<path d="M31.3343 18.4307C31.4719 18.4321 31.6033 18.4882 31.6995 18.5865C31.7958 18.6848 31.8491 18.8173 31.8476 18.9549C31.8462 19.0925 31.7901 19.2239 31.6918 19.3201C31.5935 19.4164 31.461 19.4697 31.3234 19.4682C31.2553 19.4675 31.1879 19.4534 31.1253 19.4266C31.0626 19.3999 31.0058 19.3611 30.9582 19.3124C30.8619 19.2141 30.8086 19.0816 30.8101 18.944C30.8115 18.8064 30.8676 18.675 30.9659 18.5788C31.0642 18.4825 31.1967 18.4292 31.3343 18.4307V18.4307ZM31.6145 18.9516C31.6149 18.8944 31.5984 18.8383 31.5669 18.7905C31.5354 18.7427 31.4904 18.7054 31.4377 18.6831C31.3849 18.6609 31.3267 18.6549 31.2706 18.6658C31.2144 18.6767 31.1627 18.7041 31.1221 18.7444C31.0814 18.7847 31.0537 18.8362 31.0424 18.8923C31.031 18.9484 31.0366 19.0066 31.0584 19.0595C31.0802 19.1124 31.1173 19.1577 31.1648 19.1895C31.2124 19.2214 31.2683 19.2384 31.3256 19.2384C31.3637 19.2396 31.4016 19.233 31.437 19.2191C31.4725 19.2051 31.5047 19.1841 31.5318 19.1572C31.5588 19.1304 31.5801 19.0983 31.5943 19.063C31.6085 19.0276 31.6154 18.9897 31.6145 18.9516V18.9516Z" fill="white"/>
<path d="M21.9268 17.925V19.5777C25.0158 20.9244 28.3436 21.6374 31.7132 21.6746C35.0605 21.6514 38.3771 21.0341 41.5085 19.8513V18.1177C41.5085 18.1177 37.6364 19.1486 31.7286 19.1486C25.8208 19.1486 21.9268 17.925 21.9268 17.925Z" fill="#0D0E0E"/>
<path d="M34.9874 21.1252H27.6699V23.973H34.9874V21.1252Z" fill="#FFCB4E"/>
<path d="M44.1804 17.4588C43.2873 17.2137 42.0813 18.0213 39.4283 19.1048C36.9703 20.0696 34.3531 20.5648 31.7125 20.5648C28.8101 20.5648 25.4698 19.7987 23.3948 18.7634C20.987 17.5639 20.153 17.2136 19.2578 17.45C18.6515 17.6164 19.1286 19.0851 20.7616 20.0767C22.3945 21.0683 27.9586 21.957 31.706 21.957C35.4271 21.957 41.0306 21.0814 42.6504 20.0767C44.2701 19.072 44.7911 17.6252 44.1804 17.4588Z" fill="#90523E"/>
<path d="M6.66219 58.8078C6.57773 59.6931 6.2476 60.3846 5.67178 60.8824C5.09597 61.3763 4.33013 61.6233 3.37428 61.6233C2.70633 61.6233 2.11708 61.4675 1.60653 61.156C1.09981 60.8406 0.708253 60.3941 0.431862 59.8166C0.15547 59.239 0.0115163 58.5684 0 57.8047V57.0295C0 56.2468 0.140115 55.5572 0.420345 54.9606C0.700576 54.3641 1.10173 53.9043 1.6238 53.5813C2.14971 53.2584 2.75624 53.0969 3.44338 53.0969C4.36852 53.0969 5.11324 53.3458 5.67754 53.8435C6.24184 54.3413 6.57006 55.0442 6.66219 55.9523H5.21113C5.14203 55.3558 4.96545 54.9264 4.68138 54.6642C4.40115 54.3983 3.98848 54.2653 3.44338 54.2653C2.80998 54.2653 2.32246 54.4952 1.98081 54.9549C1.64299 55.4109 1.47025 56.0815 1.46257 56.9668V57.7021C1.46257 58.5988 1.6238 59.2827 1.94626 59.7539C2.27255 60.225 2.74856 60.4606 3.37428 60.4606C3.94626 60.4606 4.3762 60.3333 4.66411 60.0788C4.95202 59.8242 5.13436 59.4005 5.21113 58.8078H6.66219Z" fill="#00A651"/>
<path d="M8.06334 58.3689C8.06334 57.7648 8.18426 57.2214 8.4261 56.7389C8.66795 56.2525 9.00768 55.8801 9.4453 55.6218C9.88292 55.3596 10.3858 55.2285 10.9539 55.2285C11.7946 55.2285 12.476 55.4964 12.9981 56.0321C13.524 56.5679 13.8081 57.2784 13.8503 58.1637L13.856 58.4886C13.856 59.0965 13.737 59.6399 13.499 60.1187C13.2649 60.5974 12.9271 60.9679 12.4856 61.2301C12.048 61.4922 11.5413 61.6233 10.9655 61.6233C10.0864 61.6233 9.38196 61.3345 8.85221 60.757C8.3263 60.1756 8.06334 59.4024 8.06334 58.4373V58.3689ZM9.46257 58.4886C9.46257 59.1231 9.59501 59.6209 9.85988 59.9819C10.1248 60.339 10.4933 60.5176 10.9655 60.5176C11.4376 60.5176 11.8042 60.3352 12.0653 59.9705C12.3301 59.6057 12.4626 59.0718 12.4626 58.3689C12.4626 57.7458 12.3263 57.2518 12.0537 56.887C11.785 56.5223 11.4184 56.3399 10.9539 56.3399C10.4971 56.3399 10.1344 56.5204 9.86564 56.8813C9.59693 57.2385 9.46257 57.7743 9.46257 58.4886Z" fill="#00A651"/>
<path d="M16.8464 55.3425L16.8868 55.9865C17.3244 55.4812 17.9232 55.2285 18.6833 55.2285C19.5163 55.2285 20.0864 55.5439 20.3935 56.1746C20.8464 55.5439 21.4837 55.2285 22.3052 55.2285C22.9923 55.2285 23.5029 55.4166 23.8369 55.7927C24.1747 56.1689 24.3474 56.7237 24.3551 57.457V61.5093H22.9559V57.4969C22.9559 57.1055 22.8695 56.8187 22.6967 56.6363C22.524 56.4539 22.238 56.3627 21.8388 56.3627C21.5202 56.3627 21.2591 56.4482 21.0557 56.6192C20.856 56.7864 20.7159 57.0067 20.6353 57.2803L20.6411 61.5093H19.2418V57.4513C19.2226 56.7256 18.8484 56.3627 18.119 56.3627C17.5585 56.3627 17.1612 56.5888 16.9271 57.0409V61.5093H15.5278V55.3425H16.8464Z" fill="#00A651"/>
<path d="M27.5988 55.3425L27.6392 55.9865C28.0768 55.4812 28.6756 55.2285 29.4357 55.2285C30.2687 55.2285 30.8388 55.5439 31.1459 56.1746C31.5988 55.5439 32.2361 55.2285 33.0576 55.2285C33.7447 55.2285 34.2553 55.4166 34.5893 55.7927C34.9271 56.1689 35.0998 56.7237 35.1075 57.457V61.5093H33.7083V57.4969C33.7083 57.1055 33.6219 56.8187 33.4491 56.6363C33.2764 56.4539 32.9904 56.3627 32.5912 56.3627C32.2726 56.3627 32.0115 56.4482 31.8081 56.6192C31.6084 56.7864 31.4683 57.0067 31.3877 57.2803L31.3935 61.5093H29.9942V57.4513C29.975 56.7256 29.6008 56.3627 28.8714 56.3627C28.3109 56.3627 27.9136 56.5888 27.6795 57.0409V61.5093H26.2802V55.3425H27.5988Z" fill="#00A651"/>
<path d="M40.81 60.9052C40.3992 61.3839 39.8157 61.6233 39.0595 61.6233C38.3839 61.6233 37.8714 61.4276 37.5221 61.0363C37.1766 60.6449 37.0038 60.0788 37.0038 59.3378V55.3425H38.4031V59.3207C38.4031 60.1035 38.7313 60.4948 39.3877 60.4948C40.0672 60.4948 40.5259 60.2535 40.7639 59.771V55.3425H42.1631V61.5093H40.8445L40.81 60.9052Z" fill="#00A651"/>
<path d="M45.3781 55.3425L45.4184 56.0549C45.8791 55.504 46.4837 55.2285 47.2322 55.2285C48.5297 55.2285 49.19 55.9637 49.2131 57.4342V61.5093H47.8138V57.514C47.8138 57.1226 47.7274 56.8339 47.5547 56.6477C47.3858 56.4577 47.1075 56.3627 46.7198 56.3627C46.1555 56.3627 45.7351 56.6154 45.4587 57.1207V61.5093H44.0595V55.3425H45.3781Z" fill="#00A651"/>
<path d="M52.6238 61.5093H51.2246V55.3425H52.6238V61.5093ZM51.1382 53.7409C51.1382 53.5282 51.2054 53.3515 51.3397 53.2109C51.4779 53.0703 51.6737 53 51.9271 53C52.1804 53 52.3762 53.0703 52.5144 53.2109C52.6526 53.3515 52.7217 53.5282 52.7217 53.7409C52.7217 53.9499 52.6526 54.1247 52.5144 54.2653C52.3762 54.4021 52.1804 54.4705 51.9271 54.4705C51.6737 54.4705 51.4779 54.4021 51.3397 54.2653C51.2054 54.1247 51.1382 53.9499 51.1382 53.7409Z" fill="#00A651"/>
<path d="M56.3973 53.8435V55.3425H57.4971V56.3684H56.3973V59.8109C56.3973 60.0465 56.4434 60.2174 56.5355 60.3238C56.6315 60.4264 56.8004 60.4777 57.0422 60.4777C57.2035 60.4777 57.3666 60.4587 57.5317 60.4207V61.4922C57.2131 61.5796 56.9059 61.6233 56.6104 61.6233C55.5355 61.6233 54.9981 61.0363 54.9981 59.8622V56.3684H53.9731V55.3425H54.9981V53.8435H56.3973Z" fill="#00A651"/>
<path d="M61.2418 59.5259L62.5086 55.3425H64L61.524 62.444C61.144 63.4813 60.499 64 59.5892 64C59.3858 64 59.1612 63.9658 58.9155 63.8974V62.8259L59.1804 62.843C59.5336 62.843 59.7985 62.7784 59.975 62.6492C60.1555 62.5238 60.2975 62.3111 60.4011 62.0109L60.6027 61.4808L58.4146 55.3425H59.9232L61.2418 59.5259Z" fill="#00A651"/>
</svg>
