<svg width="64" height="64" viewBox="0 0 64 64" fill="none" xmlns="http://www.w3.org/2000/svg">
<path d="M30.0026 1.45369L8.01455 12.0411C7.39629 12.3383 6.85311 12.7713 6.4255 13.3078C5.9979 13.8442 5.6969 14.4703 5.54495 15.1392L0.114228 38.9325C-0.0389131 39.6036 -0.0380611 40.3007 0.116722 40.9714C0.271504 41.6422 0.576196 42.2691 1.00793 42.8053L16.2217 61.8858C16.6498 62.4228 17.1936 62.8563 17.8126 63.1539C18.4316 63.4515 19.1097 63.6056 19.7965 63.6047H44.2005C44.8873 63.6056 45.5655 63.4515 46.1844 63.1539C46.8034 62.8563 47.3472 62.4228 47.7753 61.8858L62.9921 42.8053C63.4238 42.2691 63.7285 41.6422 63.8833 40.9714C64.0381 40.3007 64.0389 39.6036 63.8858 38.9325L58.4133 15.1392C58.261 14.4704 57.9598 13.8446 57.5323 13.3082C57.1047 12.7718 56.5617 12.3387 55.9437 12.0411L33.9647 1.45369C33.3469 1.15509 32.6697 1 31.9836 1C31.2975 1 30.6203 1.15509 30.0026 1.45369Z" fill="#4CBA6F"/>
<path d="M13.7671 37.163L16.4482 33.1831L20.023 36.7579L24.7894 34.3747L28.3642 37.9495L33.1306 30.782L37.897 34.3568L41.4718 33.1652L43.855 36.74L47.4298 33.1652L49.813 37.9316L47.4298 46.2907L34.2924 52.2636L21.152 49.8804L14.065 42.7427L13.7671 37.163Z" fill="#C7C5C5"/>
<path d="M46.2651 35.0271C46.2889 34.6816 46.3157 34.339 46.3157 33.9904C46.3143 30.6059 45.1145 27.3313 42.9289 24.7471C40.7433 22.1629 37.7132 20.4361 34.3759 19.8729C35.7969 19.575 36.8038 19.2771 35.5675 18.6486C34.2359 17.9813 32.9013 18.8005 31.9927 19.6555C31.0751 18.8005 29.7435 17.9813 28.4179 18.6486C27.1816 19.2652 28.1855 19.5631 29.6095 19.8729C26.2721 20.4361 23.242 22.1629 21.0565 24.7471C18.8709 27.3313 17.671 30.6059 17.6696 33.9904C17.6696 34.339 17.6964 34.6816 17.7232 35.0271C17.1453 42.9096 10.1953 54.48 32.0046 54.48C53.8139 54.48 46.8609 42.9096 46.2859 35.0271" fill="#FFCB4E"/>
<path d="M35.5676 38.6377C35.5676 40.6158 33.9619 41.0209 31.9928 41.0209C30.0237 41.0209 28.418 40.6128 28.418 38.6377C28.418 37.6872 28.7955 36.7757 29.4676 36.1036C30.1397 35.4315 31.0512 35.054 32.0017 35.054C32.9522 35.054 33.8637 35.4315 34.5358 36.1036C35.2079 36.7757 35.5855 37.6872 35.5855 38.6377" fill="#CA4627"/>
<path d="M26.0108 33.5227C26.0108 33.8762 25.906 34.2218 25.7096 34.5158C25.5132 34.8097 25.2341 35.0388 24.9074 35.1741C24.5808 35.3094 24.2215 35.3448 23.8747 35.2758C23.528 35.2068 23.2095 35.0366 22.9596 34.7866C22.7096 34.5366 22.5393 34.2182 22.4704 33.8714C22.4014 33.5247 22.4368 33.1653 22.5721 32.8387C22.7074 32.5121 22.9365 32.233 23.2304 32.0366C23.5243 31.8402 23.8699 31.7353 24.2234 31.7353C24.6975 31.7353 25.1521 31.9236 25.4873 32.2588C25.8225 32.594 26.0108 33.0487 26.0108 33.5227Z" fill="#1B1131"/>
<path d="M41.5377 33.5227C41.5377 33.8762 41.4329 34.2218 41.2365 34.5158C41.0401 34.8097 40.7609 35.0388 40.4343 35.1741C40.1077 35.3094 39.7483 35.3448 39.4016 35.2758C39.0549 35.2068 38.7364 35.0366 38.4864 34.7866C38.2364 34.5366 38.0662 34.2182 37.9972 33.8714C37.9283 33.5247 37.9637 33.1653 38.0989 32.8387C38.2342 32.5121 38.4633 32.233 38.7573 32.0366C39.0512 31.8402 39.3968 31.7353 39.7503 31.7353C40.2243 31.7353 40.679 31.9236 41.0142 32.2588C41.3494 32.594 41.5377 33.0487 41.5377 33.5227Z" fill="#1B1131"/>
<path d="M47.5102 43.9343L43.9354 42.7427L39.169 49.9102L35.5942 43.9373L33.211 46.3205L28.4446 43.9373L24.8698 48.7037L21.295 41.5362L17.7202 43.9194L13.7283 34.6577C13.1709 36.2983 12.8861 38.0191 12.8853 39.7518C12.8853 49.3174 21.4439 57.0718 31.9985 57.0718C42.5532 57.0718 51.1089 49.3263 51.1089 39.7518C51.1018 38.2984 50.8943 36.8528 50.4922 35.4561L47.5102 43.9343Z" fill="white"/>
<path d="M42.2969 14.183C39.3476 12.5118 34.0629 12.6548 32.2844 12.6548C30.506 12.6548 25.2182 12.5088 22.272 14.18C18.6227 16.2474 18.9593 25.7981 18.9593 25.7981C18.9593 25.7981 23.0227 27.2876 32.2844 27.2876C41.5461 27.2876 45.6095 25.7981 45.6095 25.7981C45.6095 25.7981 45.9461 16.2504 42.2969 14.183Z" fill="#742916"/>
<g style="mix-blend-mode:soft-light">
<path d="M38.9247 13.7362C36.3687 13.5604 34.1821 14.4452 34.0391 15.7113C33.8961 16.9774 35.8533 18.1481 38.4063 18.3239C40.9593 18.4996 43.1519 17.6149 43.2949 16.3488C43.4379 15.0827 41.4807 13.912 38.9247 13.7362Z" fill="#BCABD3"/>
</g>
<g style="mix-blend-mode:multiply">
<g style="mix-blend-mode:multiply">
<path d="M18.5156 26.6025C16.7014 25.4913 15.9358 23.9542 16.1652 23.3047C15.8829 23.2927 15.6004 23.3248 15.3281 23.4001C14.5029 23.6265 15.1523 25.6254 17.3747 26.9749C19.597 28.3244 27.1696 29.5338 32.2697 29.5338C36.7382 29.5338 43.2086 28.6014 46.1906 27.4485C42.9137 28.4197 37.3757 29.1525 33.4107 29.1525C28.3255 29.1615 20.735 27.9639 18.5156 26.6025Z" fill="#C4A582"/>
</g>
</g>
<g style="mix-blend-mode:multiply">
<path d="M27.8935 23.5401C23.5829 21.6097 22.8471 15.4044 26.7972 12.8931C25.1647 13.1016 23.5203 13.4889 22.2721 14.183C18.7956 16.1521 18.9386 24.9074 18.9595 25.7356C19.1531 25.819 19.3527 25.9054 19.5553 25.9918C20.9912 26.391 25.0515 28.0413 32.2756 28.0413C41.5403 28.0413 45.6007 25.8041 45.6007 25.8041C45.6007 25.8041 45.6007 25.6998 45.6007 25.5062C45.1002 25.4585 44.4747 24.8449 43.0179 24.9104C37.325 25.1279 32.6391 25.6641 27.8935 23.5401Z" fill="#C3BE80"/>
</g>
<path d="M26.9492 25.4258C26.9356 24.4747 27.2052 23.541 27.7236 22.7434C28.242 21.9459 28.9859 21.3205 29.8606 20.9468C30.7354 20.5731 31.7015 20.4679 32.6362 20.6447C33.5709 20.8214 34.4319 21.2722 35.1097 21.9395C35.7876 22.6069 36.2517 23.4607 36.4431 24.3925C36.6344 25.3243 36.5444 26.292 36.1844 27.1724C35.8244 28.0529 35.2107 28.8065 34.4213 29.3373C33.632 29.8681 32.7026 30.1522 31.7514 30.1535C30.4877 30.163 29.2721 29.6704 28.3716 28.7838C27.4711 27.8973 26.9595 26.6895 26.9492 25.4258ZM31.7484 21.851C31.0443 21.8639 30.3597 22.0845 29.7805 22.4851C29.2013 22.8857 28.7533 23.4484 28.4928 24.1026C28.2323 24.7569 28.1707 25.4735 28.316 26.1626C28.4612 26.8516 28.8068 27.4825 29.3092 27.9759C29.8117 28.4693 30.4487 28.8033 31.1403 28.936C31.8319 29.0687 32.5473 28.9942 33.1967 28.7218C33.8461 28.4494 34.4005 27.9913 34.7905 27.4049C35.1805 26.8185 35.3886 26.1301 35.3887 25.4258C35.377 24.4692 34.9879 23.556 34.3061 22.8848C33.6243 22.2136 32.7051 21.8389 31.7484 21.8421V21.851Z" fill="white"/>
<path d="M31.2656 20.4002L31.4414 20.2751L31.3133 20.1619C31.3933 20.1124 31.4529 20.0359 31.4813 19.9463C31.5097 19.8567 31.5051 19.7598 31.4682 19.6733C31.4295 19.5303 31.3729 19.3933 31.3252 19.2533C31.2867 19.1628 31.2761 19.0629 31.2946 18.9663C31.3132 18.8697 31.3601 18.7808 31.4295 18.7111C31.5067 18.6494 31.6002 18.6114 31.6985 18.6019C31.7969 18.5924 31.896 18.6117 31.9836 18.6575C32.0888 18.7219 32.1653 18.8242 32.1975 18.9433C32.2296 19.0624 32.2149 19.1893 32.1563 19.298C32.1087 19.4201 32.061 19.5452 32.0253 19.6733C31.9897 19.7607 31.9861 19.8579 32.0149 19.9478C32.0438 20.0376 32.1033 20.1145 32.1832 20.1648L32.0551 20.2661L32.2576 20.43H31.2746L31.2656 20.4002Z" fill="white"/>
<path d="M31.3045 30.7016L31.4326 30.6003L31.23 30.4365H32.2518L32.0492 30.5943L32.1743 30.7046C32.0947 30.7544 32.0353 30.8307 32.0064 30.9201C31.9775 31.0095 31.9811 31.1061 32.0164 31.1931C32.0552 31.3302 32.1118 31.4642 32.1565 31.5983C32.199 31.6876 32.2118 31.7883 32.1928 31.8855C32.1738 31.9827 32.1241 32.0711 32.051 32.1379C31.9779 32.2047 31.8853 32.2462 31.7868 32.2563C31.6883 32.2664 31.5892 32.2446 31.504 32.1941C31.3979 32.1312 31.3205 32.0295 31.2882 31.9104C31.2559 31.7914 31.2714 31.6644 31.3313 31.5566C31.3789 31.4315 31.4266 31.3093 31.4623 31.1812C31.4942 31.0952 31.4959 31.0009 31.4673 30.9138C31.4386 30.8267 31.3812 30.7519 31.3045 30.7016Z" fill="white"/>
<path d="M27.7029 28.8457L27.8667 28.8695V28.7057L28.4625 29.3551L28.5131 29.3223L28.3106 29.3074V29.4504C28.3106 29.4504 28.2957 29.4683 28.2897 29.4653C28.2053 29.448 28.1176 29.4598 28.0408 29.4988C27.964 29.5377 27.9026 29.6015 27.8667 29.6798C27.798 29.8043 27.7363 29.9326 27.682 30.0641C27.6526 30.1713 27.5862 30.2646 27.4945 30.3276C27.4029 30.3905 27.2919 30.419 27.1813 30.4079C27.0706 30.3968 26.9675 30.347 26.8901 30.2671C26.8127 30.1873 26.7661 30.0827 26.7585 29.9717C26.7554 29.8623 26.788 29.7548 26.8514 29.6656C26.9148 29.5763 27.0056 29.5102 27.11 29.4772C27.2328 29.4285 27.3522 29.3718 27.4675 29.3074C27.556 29.2721 27.6287 29.2057 27.672 29.1208C27.7153 29.0359 27.7263 28.9381 27.7029 28.8457Z" fill="white"/>
<path d="M35.1769 29.4742V29.3044L35.022 29.3223L35.6178 28.664V28.8636H35.7637C35.7637 28.8636 35.7637 28.8814 35.7637 28.8904C35.7474 28.9716 35.7584 29.056 35.795 29.1304C35.8317 29.2048 35.8919 29.2649 35.9663 29.3015C36.0949 29.3739 36.2283 29.4376 36.3655 29.4921C36.4434 29.5167 36.5136 29.5611 36.5692 29.621C36.6247 29.6809 36.6637 29.7543 36.6823 29.8338C36.7009 29.9134 36.6985 29.9964 36.6753 30.0747C36.6521 30.1531 36.6089 30.224 36.55 30.2806C36.491 30.3372 36.4184 30.3774 36.3392 30.3974C36.26 30.4174 36.1769 30.4164 36.0982 30.3946C36.0195 30.3727 35.9478 30.3308 35.8902 30.2728C35.8326 30.2149 35.7911 30.1429 35.7697 30.0641C35.7214 29.9417 35.6657 29.8223 35.6029 29.7066C35.5673 29.6265 35.5062 29.5603 35.4292 29.5183C35.3522 29.4763 35.2636 29.4608 35.1769 29.4742Z" fill="white"/>
<path d="M34.9805 21.5352L35.1711 21.559V21.3952C35.2751 21.4125 35.3819 21.392 35.4721 21.3373C35.5623 21.2827 35.6299 21.1975 35.6627 21.0973C35.7401 20.9513 35.7937 20.7994 35.8801 20.6564C35.9272 20.5717 36.0023 20.506 36.0926 20.4707C36.1828 20.4354 36.2826 20.4326 36.3746 20.4628C36.4716 20.4919 36.5574 20.55 36.6202 20.6294C36.6831 20.7088 36.7201 20.8056 36.7262 20.9066C36.7223 21.0104 36.6869 21.1105 36.6246 21.1935C36.5623 21.2766 36.4762 21.3386 36.3776 21.3714C36.2793 21.4131 36.181 21.4518 36.0797 21.4995C35.9784 21.5335 35.8927 21.6027 35.838 21.6945C35.7834 21.7863 35.7634 21.8947 35.7818 21.9999H35.618L35.6358 22.1548L35.04 21.4965L34.9805 21.5352Z" fill="white"/>
<path d="M28.3251 21.3922V21.5531L28.5188 21.5352L28.492 21.5084L27.8723 22.1936V22.0029H27.7115C27.7304 21.903 27.7132 21.7997 27.663 21.7113C27.6128 21.6229 27.5328 21.5552 27.4374 21.5203C27.2884 21.4399 27.1395 21.3833 26.9846 21.2939C26.9014 21.2497 26.8361 21.1781 26.7997 21.0912C26.7634 21.0043 26.7581 20.9075 26.785 20.8173C26.8117 20.7193 26.8677 20.6317 26.9453 20.5663C27.023 20.5008 27.1188 20.4606 27.2199 20.4509C27.3294 20.452 27.4356 20.4883 27.523 20.5542C27.6104 20.6201 27.6743 20.7123 27.7055 20.8173C27.7583 20.9441 27.819 21.0675 27.8872 21.1867C27.9273 21.2645 27.9919 21.3268 28.0712 21.364C28.1504 21.4012 28.2397 21.4111 28.3251 21.3922Z" fill="white"/>
<path d="M37.012 25.8816C36.9673 25.7684 36.9167 25.7029 36.8184 25.8369V25.0475L36.9256 25.113L37.018 24.9939C37.0714 25.0776 37.1532 25.1392 37.2483 25.1677C37.3435 25.1961 37.4457 25.1894 37.5363 25.1488C37.6733 25.1071 37.8044 25.0505 37.9414 25.0058C38.032 24.9665 38.1326 24.9569 38.2289 24.9783C38.3252 24.9998 38.4123 25.0511 38.4777 25.1249C38.5497 25.2098 38.5896 25.3174 38.5902 25.4288C38.5908 25.5402 38.5522 25.6482 38.481 25.7339C38.4099 25.8196 38.3109 25.8775 38.2013 25.8975C38.0917 25.9174 37.9786 25.8981 37.8819 25.8429C37.7506 25.7887 37.6163 25.7419 37.4797 25.7029C37.3931 25.6743 37.2992 25.6764 37.214 25.709C37.1288 25.7416 37.0575 25.8025 37.012 25.8816Z" fill="white"/>
<path d="M26.4813 24.9819C26.5319 25.0832 26.5736 25.1785 26.6749 25.0207V25.8131L26.5677 25.7475L26.4753 25.8667C26.4258 25.786 26.349 25.7257 26.2588 25.6967C26.1686 25.6677 26.0711 25.672 25.9838 25.7088C25.8438 25.7475 25.7068 25.8041 25.5667 25.8518C25.477 25.8952 25.3757 25.9085 25.2779 25.8895C25.18 25.8706 25.0909 25.8205 25.0239 25.7468C24.9569 25.673 24.9155 25.5796 24.9059 25.4804C24.8964 25.3812 24.9192 25.2816 24.9709 25.1964C25.0339 25.0896 25.1359 25.0114 25.2555 24.9786C25.3751 24.9458 25.5028 24.9609 25.6114 25.0207C25.7365 25.0683 25.8676 25.119 25.9987 25.1547C26.0866 25.1871 26.1832 25.1876 26.2714 25.156C26.3596 25.1244 26.4339 25.0628 26.4813 24.9819Z" fill="white"/>
<path d="M30.3422 25.1041C30.4045 25.0674 30.4549 25.0137 30.4877 24.9493C30.5204 24.8849 30.534 24.8125 30.5269 24.7406C30.5269 24.7019 30.4941 24.6483 30.4643 24.6423C30.3729 24.6233 30.2867 24.5844 30.2121 24.5282C30.1374 24.4721 30.076 24.4002 30.0324 24.3176C29.9728 24.2104 29.9102 24.1061 29.8566 23.9959C29.7285 23.7337 29.7315 23.7337 29.4366 23.8052V23.5073H29.097C29.1148 23.4477 29.1148 23.3852 29.1476 23.3524C29.3263 23.1707 29.5111 22.9949 29.6957 22.8221C29.7226 22.7983 29.7732 22.8013 29.8089 22.7923C29.8168 22.8306 29.8218 22.8695 29.8238 22.9085C29.8238 22.9741 29.8238 23.0396 29.8238 23.1141H30.1217C30.0622 23.412 30.0651 23.412 30.3333 23.5401C30.4646 23.5963 30.5887 23.6683 30.7026 23.7546C30.803 23.8558 30.8919 23.9676 30.9678 24.0882C30.9916 24.121 30.9946 24.2014 31.0095 24.2014C31.0963 24.2094 31.1837 24.1982 31.2657 24.1686C31.4236 24.0912 31.4534 24.0108 31.361 23.8469C31.3274 23.7789 31.3077 23.7049 31.3031 23.6292C31.2985 23.5535 31.3091 23.4776 31.3342 23.406C31.3664 23.2663 31.4082 23.1289 31.4593 22.9949C31.5219 22.84 31.4921 22.7387 31.3282 22.697C31.3021 22.6833 31.2772 22.6673 31.2538 22.6494L31.4921 22.4259L31.2121 22.2025C31.5649 22.1307 31.9287 22.1307 32.2815 22.2025L32.0253 22.4468L32.2547 22.6643L32.1207 22.7357C32.0991 22.7427 32.0792 22.7543 32.0626 22.7697C32.046 22.7851 32.0329 22.804 32.0244 22.8251C32.0159 22.8461 32.0121 22.8687 32.0133 22.8914C32.0144 22.9141 32.0206 22.9362 32.0313 22.9562C32.0819 23.0962 32.1147 23.2541 32.1624 23.3822C32.2203 23.5659 32.2118 23.7641 32.1385 23.9422C32.1385 23.9869 32.0849 24.0554 32.0968 24.0703C32.1555 24.1356 32.2291 24.1857 32.3113 24.2163C32.4811 24.264 32.5258 24.2491 32.5854 24.0614C32.6375 23.9135 32.744 23.791 32.8833 23.7188C32.9723 23.6624 33.0649 23.6116 33.1603 23.5669C33.4314 23.4299 33.4344 23.4328 33.3718 23.1379H33.6697V22.9175C33.6697 22.8847 33.6697 22.8489 33.6697 22.8162C33.6697 22.7834 33.7502 22.8162 33.771 22.837C33.9676 23.0217 34.1643 23.2064 34.3668 23.4001C34.3936 23.4239 34.3847 23.4805 34.3936 23.5341L34.06 23.5162V23.8141C34.0302 23.8141 34.0213 23.838 34.0123 23.835C33.7531 23.7695 33.7561 23.7695 33.631 24.0167C33.5814 24.1397 33.5163 24.2558 33.4374 24.3623C33.3281 24.4773 33.2084 24.582 33.0799 24.6751C33.0441 24.7019 32.9548 24.7108 32.9548 24.7257C32.9569 24.817 32.973 24.9074 33.0024 24.9938C33.065 25.1547 33.1961 25.1487 33.3003 25.0743C33.3648 25.0385 33.4362 25.017 33.5098 25.0114C33.5833 25.0057 33.6572 25.016 33.7263 25.0415C33.8544 25.0713 33.9825 25.113 34.1077 25.1517C34.3638 25.2322 34.3638 25.2322 34.5485 24.9343L34.7064 25.2083L34.9269 24.97C35.046 24.97 35.0401 25.0653 35.0431 25.1487C35.0729 25.825 35.0639 25.8935 34.9299 25.959L34.7183 25.7356L34.5098 25.965C34.4872 25.9329 34.4673 25.8991 34.4502 25.8637C34.4431 25.8351 34.4293 25.8087 34.4099 25.7865C34.3905 25.7644 34.366 25.7472 34.3386 25.7364C34.3112 25.7256 34.2817 25.7215 34.2524 25.7245C34.2231 25.7275 34.1949 25.7374 34.1702 25.7535C34.054 25.7982 33.9289 25.8309 33.8098 25.8697C33.6974 25.9124 33.5761 25.9263 33.4569 25.9102C33.3378 25.894 33.2245 25.8484 33.1276 25.7773L33.0531 25.8667C32.8714 26.0603 32.8833 26.2212 33.1156 26.2986C33.2587 26.354 33.3763 26.4601 33.4463 26.5965C33.5089 26.7008 33.5655 26.808 33.6191 26.9183C33.7412 27.1655 33.7412 27.1655 34.0242 27.0851V27.383C34.1047 27.383 34.1791 27.383 34.2536 27.383C34.3281 27.383 34.337 27.383 34.349 27.4098C34.357 27.4249 34.3613 27.4418 34.3613 27.459C34.3613 27.4761 34.357 27.493 34.349 27.5081C34.1523 27.7017 33.9587 27.8954 33.7532 28.0801C33.6876 28.1397 33.634 28.1099 33.6429 28.0116C33.6519 27.9133 33.6429 27.8596 33.6638 27.7762H33.345C33.3558 27.7349 33.3687 27.6941 33.3838 27.6541C33.3959 27.6318 33.4029 27.6071 33.4043 27.5818C33.4056 27.5565 33.4013 27.5311 33.3916 27.5077C33.3818 27.4843 33.367 27.4633 33.3481 27.4464C33.3292 27.4294 33.3068 27.4169 33.2825 27.4098C33.1186 27.3294 32.9607 27.243 32.8058 27.1536C32.7289 27.1135 32.6622 27.0565 32.6106 26.9868C32.5589 26.9172 32.5239 26.8367 32.5079 26.7514C32.4901 26.668 32.2934 26.6502 32.1892 26.7246C32.1321 26.7705 32.0774 26.8192 32.0253 26.8706C32.1077 26.9871 32.1565 27.124 32.1664 27.2664C32.1764 27.4087 32.1472 27.551 32.0819 27.6779C32.067 27.7226 32.0521 27.7673 32.0402 27.815C31.9509 28.092 31.9509 28.092 32.213 28.2499L31.9866 28.4644L32.2368 28.6997C31.891 28.7712 31.5341 28.7712 31.1882 28.6997L31.4414 28.4554L31.2121 28.235L31.3342 28.1724C31.359 28.166 31.3819 28.1538 31.4011 28.1369C31.4203 28.12 31.4353 28.0988 31.4449 28.0751C31.4544 28.0513 31.4583 28.0256 31.4561 28.0001C31.454 27.9746 31.4459 27.95 31.4325 27.9281C31.3878 27.812 31.358 27.6868 31.3163 27.5647C31.2704 27.4492 31.2543 27.324 31.2694 27.2007C31.2845 27.0773 31.3303 26.9597 31.4027 26.8587C31.3554 26.8072 31.3025 26.7612 31.2448 26.7217C31.1779 26.6995 31.1091 26.6835 31.0393 26.674C30.9142 26.6412 30.9439 26.7365 30.9231 26.8021C30.854 26.9785 30.7196 27.1215 30.5477 27.2013C30.4494 27.2549 30.3541 27.3085 30.2498 27.3592C30.0085 27.4783 30.0085 27.4783 30.0949 27.7584H29.8149C29.8149 27.8418 29.8149 27.9222 29.8298 27.9997C29.8447 28.0771 29.7851 28.1277 29.7226 28.0711C29.517 27.8864 29.3204 27.6958 29.1268 27.4992C29.1029 27.4753 29.1119 27.4187 29.1059 27.377H29.4336V27.097C29.4664 27.097 29.4783 27.0791 29.4872 27.097C29.7375 27.1685 29.7345 27.1685 29.8507 26.9391C29.9149 26.7945 29.9938 26.6567 30.086 26.528C30.186 26.4259 30.2969 26.3349 30.4167 26.2569C30.4554 26.2301 30.5418 26.2182 30.5388 26.2033C30.5357 26.1119 30.5187 26.0214 30.4882 25.9352C30.4509 25.8767 30.4058 25.8235 30.3541 25.7773C30.0354 26.0335 29.7106 25.8875 29.3859 25.7773C29.1208 25.6939 29.1208 25.6939 28.9629 25.9858L28.7484 25.7267L28.5161 25.9739C28.4814 25.9222 28.4562 25.8647 28.4416 25.8041C28.3939 25.2679 28.4237 25.0385 28.5429 24.9611L28.7574 25.1934L28.9748 24.9611C28.9978 24.9996 29.0187 25.0394 29.0374 25.0802C29.0445 25.1046 29.057 25.127 29.074 25.1459C29.0909 25.1648 29.1119 25.1796 29.1353 25.1893C29.1587 25.199 29.184 25.2034 29.2094 25.202C29.2347 25.2007 29.2594 25.1937 29.2817 25.1815C29.3978 25.1338 29.523 25.1041 29.6451 25.0653C29.7556 25.0143 29.8769 24.9912 29.9985 24.9979C30.12 25.0047 30.238 25.0411 30.3422 25.1041ZM31.7334 24.404C31.4665 24.4102 31.2125 24.52 31.0251 24.7101C30.8377 24.9003 30.7317 25.1559 30.7295 25.4228C30.7275 25.5569 30.7522 25.6901 30.8023 25.8145C30.8523 25.939 30.9267 26.0522 31.021 26.1476C31.1153 26.243 31.2276 26.3187 31.3515 26.3702C31.4753 26.4217 31.6082 26.448 31.7423 26.4476C32.0099 26.4478 32.2671 26.3442 32.4599 26.1586C32.6527 25.9731 32.766 25.72 32.776 25.4526C32.7693 25.1776 32.6575 24.9157 32.4635 24.7207C32.2696 24.5256 32.0083 24.4123 31.7334 24.404Z" fill="white"/>
<path d="M31.7575 24.7227C31.9447 24.7247 32.1235 24.801 32.2545 24.9348C32.3855 25.0686 32.458 25.2489 32.456 25.4362C32.4541 25.6234 32.3778 25.8022 32.244 25.9332C32.1102 26.0643 31.9298 26.1367 31.7426 26.1348C31.6498 26.1338 31.5582 26.1146 31.4729 26.0782C31.3877 26.0418 31.3104 25.989 31.2455 25.9227C31.1145 25.7889 31.042 25.6086 31.044 25.4213C31.046 25.2341 31.1222 25.0553 31.256 24.9243C31.3898 24.7932 31.5702 24.7208 31.7575 24.7227ZM32.1388 25.4317C32.1394 25.3538 32.1168 25.2775 32.0739 25.2125C32.0311 25.1474 31.9699 25.0965 31.8981 25.0663C31.8263 25.0361 31.7471 25.0279 31.6707 25.0427C31.5942 25.0576 31.5238 25.0948 31.4686 25.1496C31.4133 25.2045 31.3755 25.2746 31.3601 25.3509C31.3447 25.4273 31.3523 25.5065 31.382 25.5785C31.4116 25.6506 31.462 25.7122 31.5268 25.7555C31.5915 25.7988 31.6676 25.822 31.7455 25.822C31.7974 25.8236 31.849 25.8147 31.8972 25.7957C31.9455 25.7767 31.9894 25.748 32.0262 25.7115C32.063 25.675 32.0919 25.6313 32.1113 25.5832C32.1307 25.5351 32.14 25.4836 32.1388 25.4317Z" fill="white"/>
<path d="M18.9536 24.0346V26.2837C23.1577 28.1166 27.6868 29.087 32.2727 29.1376C36.8283 29.1061 41.342 28.2659 45.6038 26.6561V24.2967C45.6038 24.2967 40.3339 25.6998 32.2936 25.6998C24.2533 25.6998 18.9536 24.0346 18.9536 24.0346Z" fill="#0D0E0E"/>
<path d="M36.7293 28.3899H26.7705V32.2656H36.7293V28.3899Z" fill="#FFCB4E"/>
<path d="M49.2407 23.4001C48.0253 23.0664 46.3838 24.1657 42.7733 25.6403C39.4279 26.9533 35.8661 27.6273 32.2723 27.6273C28.3221 27.6273 23.7762 26.5846 20.9521 25.1756C17.6752 23.5431 16.5402 23.0664 15.3217 23.3882C14.4966 23.6146 15.146 25.6135 17.3683 26.963C19.5907 28.3125 27.1633 29.5219 32.2633 29.5219C37.3277 29.5219 44.9539 28.3303 47.1584 26.963C49.3628 25.5956 50.0718 23.6265 49.2407 23.4001Z" fill="#90523E"/>
</svg>
