<svg xmlns="http://www.w3.org/2000/svg" viewBox="0 0 1279 637" xmlns:v="https://vecta.io/nano"><style>.A{isolation:isolate}.K{mix-blend-mode:soft-light}.L,.N{mix-blend-mode:multiply}</style><g class="A"><path d="M207.63 215.4l-73.81 35.54a15.3 15.3 0 0 0-8.29 10.4l-18.23 79.87a15.3 15.3 0 0 0 3 13l51.07 64.05a15.32 15.32 0 0 0 12 5.77h81.92a15.32 15.32 0 0 0 12-5.77l51.08-64.05a15.3 15.3 0 0 0 3-13L303 261.34a15.32 15.32 0 0 0-8.29-10.4l-73.78-35.54a15.28 15.28 0 0 0-13.3 0z" fill="#4cba6f"/><path d="M349.44 385.23V259.42h24.49v59.8l52.87-60h27l-48.27 55.9 51.28 70.09h-27.5l-39.22-54.48-16.14 16.86v37.62zm141.77 0q-14.37 0-21.82-9.23-7.45-9.23-7.45-27.33v-58.2h23.77v53.06q0 21.47 15.44 21.47a24.42 24.42 0 0 0 13.4-4.17q6.48-4.17 10.56-12.69v-57.67h23.78v65.66c0 2.48.44 4.26 1.33 5.32a5.79 5.79 0 0 0 4.34 1.77v20.23a51 51 0 0 1-5.94.89q-2.4.18-4.35.18c-4.25 0-7.72-1-10.38-2.93a11.52 11.52 0 0 1-4.7-8.07l-.53-7.46a39.71 39.71 0 0 1-16 14.38 48.15 48.15 0 0 1-21.45 4.79zm134.16 0a37.47 37.47 0 0 1-19-4.79 35 35 0 0 1-13.13-13.13v16.14h-20.75V253.92h23.77v52.87a36 36 0 0 1 13-13.22 36.91 36.91 0 0 1 18.9-4.7 35.06 35.06 0 0 1 16.5 3.91 41.36 41.36 0 0 1 12.86 10.47 47.2 47.2 0 0 1 8.34 15.44 58.79 58.79 0 0 1 2.93 18.63 52.82 52.82 0 0 1-3.28 18.81 47.25 47.25 0 0 1-9.14 15.17 42.84 42.84 0 0 1-13.84 10.2 40.13 40.13 0 0 1-17.16 3.73zM618.8 365a24.6 24.6 0 0 0 10.47-2.22 25.08 25.08 0 0 0 8.16-5.94 26.93 26.93 0 0 0 5.24-8.7 30.11 30.11 0 0 0 1.86-10.65 33 33 0 0 0-1.77-10.82 28.27 28.27 0 0 0-5.06-9.05 25.37 25.37 0 0 0-7.72-6.21 20.82 20.82 0 0 0-9.76-2.31 21.75 21.75 0 0 0-14.28 5.24 34.82 34.82 0 0 0-9.68 12.86v22.18a20.05 20.05 0 0 0 3.64 6.39 26.61 26.61 0 0 0 5.41 4.88 26.16 26.16 0 0 0 6.57 3.2 22.29 22.29 0 0 0 6.92 1.15z" fill="#190f30"/><path d="M762.12 370a51.48 51.48 0 0 1-17 11.61 45.69 45.69 0 0 1-36-.25 49 49 0 0 1-15.37-10.48 51.77 51.77 0 0 1-10.85-15.62 45.63 45.63 0 0 1-4-17.82 46.62 46.62 0 0 1 3.48-18.44 51.72 51.72 0 0 1 11.74-17.26 50.36 50.36 0 0 1 17.12-11.6 46.75 46.75 0 0 1 18.2-3.39 44.48 44.48 0 0 1 17.57 4 50.83 50.83 0 0 1 15.11 10.47l3.08 3.2a18 18 0 0 1 2.19 2.83l-50.81 50.81a27.52 27.52 0 0 0 8.78 5 24.13 24.13 0 0 0 9 1.26 23.88 23.88 0 0 0 8.66-2.14 25 25 0 0 0 7.4-5.14 27.42 27.42 0 0 0 7-11.92 18.31 18.31 0 0 0-.37-12.55l18.44-10.41a41.5 41.5 0 0 1 .75 24Q773.17 359 762.12 370zm-22.58-56.71q-8-6.78-17.31-6.4A24.21 24.21 0 0 0 699 330.27a24.56 24.56 0 0 0 1.44 8.84 25.79 25.79 0 0 0 5 8.35z" fill="#4cba6f"/><path d="M796.07 385.23v-69.92h-12.24v-18.1h12.24v-5.68q0-17.38 8.34-27.5 8.34-10.12 22.72-10.11a52.83 52.83 0 0 1 22.89 5.5l-4.8 17.92a30.62 30.62 0 0 0-6.29-2.4 26.38 26.38 0 0 0-6.66-1q-12.42 0-12.42 16.68v6.56h22.71v18.1h-22.71v69.92zm98.31 0a51.22 51.22 0 0 1-20.4-3.9 45.87 45.87 0 0 1-15.35-10.56 46.77 46.77 0 0 1-9.63-15.35 51.87 51.87 0 0 1 0-36.73 46.71 46.71 0 0 1 9.68-15.36A45.71 45.71 0 0 1 874 292.78a51 51 0 0 1 20.4-3.91 50.48 50.48 0 0 1 20.32 3.91A46.13 46.13 0 0 1 930 303.33a46.69 46.69 0 0 1 9.67 15.36 51.72 51.72 0 0 1 0 36.73 47.51 47.51 0 0 1-9.58 15.35 45.09 45.09 0 0 1-15.26 10.56 51.27 51.27 0 0 1-20.45 3.9zm-24.31-48.09a32.45 32.45 0 0 0 1.86 11.27 27.61 27.61 0 0 0 5.15 8.78 22.92 22.92 0 0 0 7.72 5.81 23.54 23.54 0 0 0 19.2 0 23 23 0 0 0 7.71-5.77 27.23 27.23 0 0 0 5.15-8.87 33.22 33.22 0 0 0 1.83-11.36 32.71 32.71 0 0 0-1.86-11.18 27.34 27.34 0 0 0-5.15-8.87 23.12 23.12 0 0 0-7.71-5.77 22.7 22.7 0 0 0-9.59-2 21.85 21.85 0 0 0-9.58 2.13 24 24 0 0 0-7.72 5.86 27.41 27.41 0 0 0-5.15 8.87 32.66 32.66 0 0 0-1.86 11.1zm144.27-24.31A47 47 0 0 0 995 317a24.39 24.39 0 0 0-12.24 12v56.25H959v-93h21.8v19.87a42 42 0 0 1 5.86-8.61 44.91 44.91 0 0 1 7.27-6.65 34 34 0 0 1 7.9-4.35 21.88 21.88 0 0 1 7.71-1.51h2.93a9.49 9.49 0 0 1 1.87.18zm157.75 72.4h-23.78v-52.17q0-11.18-3.82-16.33a12.4 12.4 0 0 0-10.56-5.14q-7.1 0-13.31 5.41a29.92 29.92 0 0 0-8.87 14.11v54.12H1088v-52.17q0-11.18-3.81-16.33a12.41 12.41 0 0 0-10.56-5.14q-6.91 0-13.22 5.32a29 29 0 0 0-9 14v54.3h-23.78v-93h21.48v17.21a35.44 35.44 0 0 1 14.1-13.93 42.09 42.09 0 0 1 20.5-4.88q11.7 0 18.1 5.67a25.45 25.45 0 0 1 8.16 14 40.12 40.12 0 0 1 14.37-14.63 38.75 38.75 0 0 1 19.88-5.06q8.51 0 14 3.19a23.1 23.1 0 0 1 8.51 8.34 35 35 0 0 1 4.17 11.71 76.76 76.76 0 0 1 1.16 13.31z" fill="#190f30"/><path d="M153.13,335.27l9-13.36,12,12,16-8,12,12,16-24.06,16,12,12-4,8,12,12-12,8,16-8,28.06-44.1,20.05-44.11-8L154.13,354Z" fill="#c7c5c5"/><path d="M262.22 328.1l.17-3.48a48.08 48.08 0 0 0-40.08-47.39c4.77-1 8.15-2 4-4.11-4.47-2.24-8.95.51-12 3.38h0c-3.08-2.87-7.55-5.62-12-3.38-4.15 2.07-.78 3.07 4 4.11a48.08 48.08 0 0 0-40.08 47.39c0 1.17.09 2.32.18 3.48-1.94 26.46-25.27 65.3 47.94 65.3s49.87-38.84 47.94-65.3" fill="#ffcb4e"/><path d="M226.31,340.22c0,6.64-5.39,8-12,8s-12-1.37-12-8a12,12,0,0,1,24.06,0" fill="#ca4627"/><path d="M194.23 323.05a6 6 0 1 1-6-6 6 6 0 0 1 6 6m52.12 0a6 6 0 1 1-6-6 6 6 0 0 1 6 6" fill="#1b1131"/><path d="M266.4,358l-12-4-16,24.06-12-20.05-8,8-16-8-12,16-12-24.06-12,8L153,326.86a53.23,53.23,0,0,0-2.83,17.1c0,32.11,28.73,58.14,64.16,58.14s64.15-26,64.15-58.14a53.06,53.06,0,0,0-2.07-14.42Z" fill="#fff"/><path d="M248.9 258.13c-9.9-5.61-27.64-5.13-33.61-5.13s-23.72-.49-33.61 5.12c-12.25 6.94-11.12 39-11.12 39s13.64 5 44.73 5 44.73-5 44.73-5 1.13-32.05-11.12-38.99z" fill="#742916"/><path class="K" d="M237.58 256.63c-8.58-.59-15.92 2.38-16.4 6.63s6.09 8.18 14.66 8.77 15.93-2.38 16.41-6.63-6.09-8.18-14.67-8.77z" fill="#bcabd3"/><path class="L" d="M169.07 299.82c-6.09-3.73-8.66-8.89-7.89-11.07a9.09 9.09 0 0 0-2.81.32c-2.77.76-.59 7.47 6.87 12s32.88 8.59 50 8.59c15 0 36.72-3.13 46.73-7-11 3.26-29.59 5.72-42.9 5.72-17.07.03-42.55-3.99-50-8.56z" fill="#c4a582"/><path class="N" d="M200.55 289.54c-14.47-6.48-16.94-27.31-3.68-35.74-5.48.7-11 2-15.19 4.33-11.67 6.61-11.19 36-11.12 38.78l2 .86c4.82 1.34 18.45 6.88 42.7 6.88 31.1 0 44.73-7.51 44.73-7.51v-1c-1.68-.16-3.78-2.22-8.67-2-19.11.73-34.84 2.53-50.77-4.6z" fill="#c3be80"/><g fill="#fff"><path d="M197.38 295.87a16.1 16.1 0 1 1 16.12 15.87 16 16 0 0 1-16.12-15.87zm16.11-12a12 12 0 1 0 12.22 12 12.18 12.18 0 0 0-12.22-12.03zm-1.62-4.87l.59-.42-.43-.38a1.32 1.32 0 0 0 .52-1.64c-.13-.48-.32-.94-.48-1.41a1.66 1.66 0 0 1 .35-1.82 1.71 1.71 0 0 1 1.86-.18 1.62 1.62 0 0 1 .58 2.15l-.44 1.26a1.35 1.35 0 0 0 .53 1.65l-.43.34.68.55h-3.3zm.13 34.58l.43-.34-.68-.55h3.43l-.68.53.42.37a1.34 1.34 0 0 0-.53 1.64c.13.46.32.91.47 1.36a1.55 1.55 0 0 1-2.19 2 1.59 1.59 0 0 1-.58-2.14l.44-1.26a1.36 1.36 0 0 0-.53-1.61zm-12.09-6.23l.55.08v-.55l2 2.18.17-.11-.68-.05v.48s-.05.06-.07.05a1.28 1.28 0 0 0-1.42.72 12.72 12.72 0 0 0-.62 1.29 1.58 1.58 0 0 1-3.1-.31 1.69 1.69 0 0 1 1.18-1.66 10.15 10.15 0 0 0 1.2-.57 1.32 1.32 0 0 0 .79-1.55zm25.09 2.11v-.57l-.52.06 2-2.21v.67h.49v.09a1.26 1.26 0 0 0 .68 1.38 11 11 0 0 0 1.34.64 1.58 1.58 0 1 1-2 1.92 10.88 10.88 0 0 0-.56-1.2 1.34 1.34 0 0 0-1.43-.78zm-.66-26.65l.64.08v-.55a1.48 1.48 0 0 0 1.65-1l.73-1.48a1.4 1.4 0 0 1 1.66-.65 1.66 1.66 0 0 1 1.18 1.49 1.71 1.71 0 0 1-1.17 1.56l-1 .43a1.5 1.5 0 0 0-1 1.68h-.55l.06.52-2-2.21z"/><path d="M202 282.33v.54l.65-.06-.09-.09-2.08 2.3v-.64h-.54a1.44 1.44 0 0 0-.92-1.62l-1.52-.76a1.37 1.37 0 0 1-.67-1.6 1.68 1.68 0 0 1 1.46-1.23 1.72 1.72 0 0 1 1.63 1.23 11 11 0 0 0 .61 1.24 1.33 1.33 0 0 0 1.47.69zm29.16 15.07c-.15-.38-.32-.6-.65-.15v-2.65l.36.22.31-.4a1.39 1.39 0 0 0 1.74.52l1.36-.48a1.57 1.57 0 0 1 1.8.4 1.59 1.59 0 0 1-2 2.41 12.67 12.67 0 0 0-1.35-.47 1.33 1.33 0 0 0-1.57.6zm-35.35-3.02c.17.34.31.66.65.13v2.66l-.36-.22-.31.4a1.33 1.33 0 0 0-1.65-.53c-.47.13-.93.32-1.4.48a1.55 1.55 0 0 1-2-2.2 1.6 1.6 0 0 1 2.15-.59l1.3.45a1.34 1.34 0 0 0 1.62-.58zm12.96.41a1.27 1.27 0 0 0 .62-1.22c0-.13-.11-.31-.21-.33a2.13 2.13 0 0 1-1.45-1.09l-.59-1.08c-.43-.88-.42-.88-1.41-.64v-1h-1.14c.06-.2.06-.41.17-.52l1.84-1.78c.09-.08.26-.07.38-.1a2.6 2.6 0 0 1 .05.39v.69h1c-.2 1-.19 1 .71 1.43a5.9 5.9 0 0 1 1.24.72 6.54 6.54 0 0 1 .89 1.12c.08.11.09.38.14.38a2 2 0 0 0 .86-.11c.53-.26.63-.53.32-1.08a1.91 1.91 0 0 1-.09-1.48 10.5 10.5 0 0 1 .42-1.38c.21-.52.11-.86-.44-1a1.73 1.73 0 0 1-.25-.16l.8-.75-.94-.75a9 9 0 0 1 3.59 0l-.86.82.77.73-.45.24a.52.52 0 0 0-.3.74l.44 1.43a2.76 2.76 0 0 1-.08 1.88c0 .15-.18.38-.14.43a1.82 1.82 0 0 0 .72.49c.57.16.72.11.92-.52a2.07 2.07 0 0 1 1-1.15 8.4 8.4 0 0 1 .93-.51c.91-.46.92-.45.71-1.44h1v-.74-.34c0-.11.27 0 .34.07l2 1.89c.09.08.06.27.09.45l-1.12-.06v1c-.1 0-.13.08-.16.07-.87-.22-.86-.22-1.28.61a5.25 5.25 0 0 1-.65 1.16 8.68 8.68 0 0 1-1.2 1.05c-.12.09-.42.12-.42.17a3 3 0 0 0 .16.9c.21.54.65.52 1 .27a1.72 1.72 0 0 1 1.43-.11c.43.1.86.24 1.28.37.86.27.86.27 1.48-.73l.53.92.74-.8c.4 0 .38.32.39.6.1 2.27.07 2.5-.38 2.72l-.71-.75-.7.77a2.38 2.38 0 0 1-.2-.34.62.62 0 0 0-.94-.37c-.39.15-.81.26-1.21.39a2.42 2.42 0 0 1-2.29-.31l-.25.3c-.61.65-.57 1.19.21 1.45a2.1 2.1 0 0 1 1.11 1l.58 1.08c.41.83.41.83 1.36.56v1h.77c.25 0 .28 0 .32.09a.35.35 0 0 1 0 .33l-2 1.92c-.22.2-.4.1-.37-.23s0-.51.07-.79h-1.07a4.13 4.13 0 0 1 .13-.41.57.57 0 0 0-.34-.82l-1.6-.86a1.92 1.92 0 0 1-1-1.35c-.06-.28-.72-.34-1.07-.09a7.26 7.26 0 0 0-.55.49 2.62 2.62 0 0 1 .19 2.71l-.14.46c-.3.93-.3.93.58 1.46l-.76.72.84.79a8.69 8.69 0 0 1-3.52 0l.85-.82-.77-.74.41-.21a.55.55 0 0 0 .33-.82c-.15-.39-.25-.81-.39-1.22a2.49 2.49 0 0 1 .29-2.37 3.11 3.11 0 0 0-.53-.46 3.85 3.85 0 0 0-.69-.16c-.42-.11-.32.21-.39.43a2.47 2.47 0 0 1-1.26 1.34l-1 .53c-.81.4-.81.4-.52 1.34H207c0 .28 0 .55.05.81s-.15.43-.36.24l-2-1.92c-.08-.08-.05-.27-.07-.41h1.1v-.94c.11 0 .15-.06.18 0 .84.24.83.24 1.22-.53a7.83 7.83 0 0 1 .79-1.38 6.57 6.57 0 0 1 1.11-.91c.13-.09.42-.13.41-.18a3 3 0 0 0-.17-.9 2.54 2.54 0 0 0-.45-.53c-1.07.86-2.16.37-3.25 0-.89-.28-.89-.28-1.42.7l-.72-.87-.78.83a1.77 1.77 0 0 1-.25-.57c-.16-1.8-.06-2.57.34-2.83l.72.78.73-.78a4.16 4.16 0 0 1 .21.4.57.57 0 0 0 .82.34c.39-.16.81-.26 1.22-.39a2.5 2.5 0 0 1 2.34.13zm4.67-2.35a3.45 3.45 0 0 0-3.37 3.42 3.39 3.39 0 0 0 3.4 3.44 3.47 3.47 0 0 0 3.47-3.34 3.61 3.61 0 0 0-3.5-3.52zm.08 1.07a2.37 2.37 0 0 1-.05 4.74 2.37 2.37 0 1 1 .05-4.74zm1.28 2.38a1.32 1.32 0 1 0-1.32 1.31 1.28 1.28 0 0 0 1.32-1.31z"/></g><path d="M170.54 291.2v7.55a115.05 115.05 0 0 0 44.71 9.58A129.17 129.17 0 0 0 260 300v-7.92s-17.69 4.71-44.68 4.71-44.78-5.59-44.78-5.59z" fill="#0d0e0e"/><path d="M196.78 305.82h33.43v13.01h-33.43z" fill="#ffcb4e"/><path d="M272.21 289.07c-4.08-1.12-9.59 2.57-21.71 7.52a96.48 96.48 0 0 1-35.25 6.67c-13.26 0-28.52-3.5-38-8.23-11-5.48-14.81-7.08-18.9-6-2.77.76-.59 7.47 6.87 12s32.88 8.59 50 8.59c17 0 42.6-4 50-8.59s9.78-11.2 6.99-11.96z" fill="#90523e"/></g></svg>