<svg width="100" height="100" viewBox="0 0 100 100" fill="none" xmlns="http://www.w3.org/2000/svg">
<path d="M50.7573 46.1533C52.4236 48.389 55.5272 51.5898 61.2831 55.9848C60.6513 28.0941 53.5207 8.04922 51.2155 2.47387C50.9517 1.84204 50.056 1.84204 49.7922 2.47387C47.494 8.04922 40.3564 28.1219 39.7246 55.9848C45.4805 51.5898 48.5841 48.389 50.2504 46.1533C50.3754 45.9797 50.6323 45.9797 50.7573 46.1533Z" fill="#1971BD"/>
<path d="M39.7238 55.9919C39.1267 56.4432 38.5088 56.9084 37.8561 57.3945C26.9276 65.4207 26.9693 78.1475 27.004 82.8342C27.004 83.1883 27.2956 83.4799 27.6566 83.4799H40.6612C40.0085 79.4876 39.6475 70.0657 39.6475 62.5532C39.6475 60.3175 39.6752 58.1304 39.7238 55.9919Z" fill="#1971BD"/>
<path d="M63.1429 57.3875C62.4903 56.9084 61.8723 56.4432 61.2752 55.9919C61.3238 58.1304 61.3516 60.3175 61.3516 62.5532C61.3516 70.0657 60.9905 79.4876 60.3379 83.4799H73.3424C73.7035 83.4799 73.9881 83.1952 73.9951 82.8342C74.0298 78.1475 74.0715 65.4277 63.1499 57.3875H63.1429Z" fill="#1971BD"/>
<path d="M51.2357 97.8454C52.8742 92.9088 55.9987 88.3749 60.3451 83.48H40.6543C45.0007 88.3749 48.1251 92.9088 49.7637 97.8454C49.8679 98.1647 50.1595 98.38 50.4997 98.38C50.833 98.38 51.1246 98.1647 51.2357 97.8454Z" fill="#1971BD"/>
</svg>
