<svg width="256" height="256" viewBox="0 0 256 256" fill="none" xmlns="http://www.w3.org/2000/svg">
<path fill-rule="evenodd" clip-rule="evenodd" d="M138.941 8.26496C123.478 17.2693 108.335 31.9008 102.979 43.0118C89.1708 71.6598 104.412 100.412 152.531 136.495C180.004 157.096 192.089 174.612 192.535 194.474C192.671 200.548 192.957 201.192 194.828 199.653C199.154 196.094 207.701 181.143 210.377 172.454C213.87 161.103 213.874 149.804 210.391 138.554C207.098 127.923 201.189 118.874 188.581 105.149C174.94 90.3001 168.612 82.3742 160.842 70.4005C147.573 49.9567 144.271 29.3822 151.187 10.2617C153.287 4.46063 153.955 0.998609 152.977 1C152.119 1 145.802 4.27 138.941 8.26496ZM75.7353 58.5283C35.4424 91.9741 31.0795 127.303 63.5284 157.373C68.5834 162.058 79.3826 169.96 87.5275 174.935C113.113 190.562 134.491 204.988 142.46 212.001C153.196 221.452 161.494 231.592 163.283 237.45C164.118 240.184 165.116 243.361 165.502 244.509C165.976 245.92 167.117 244.825 169.023 241.132C177.668 224.378 180.499 204.625 176.419 189.505C171.651 171.827 163.133 162.07 136.883 144.217C120.932 133.369 100.372 113.435 92.606 101.286C82.6153 85.6581 79.2176 69.3582 83.4599 57.4067C84.5361 54.3747 85.2447 51.7225 85.0339 51.511C84.8245 51.2995 80.6391 54.4582 75.7353 58.5283ZM49.5104 174.178C41.5653 192.775 42.3211 206.231 51.9082 216.878C60.3748 226.282 70.7732 230.403 95.2493 234.056C125.735 238.606 147.485 245.489 155.923 253.254C159.58 256.62 159.802 255.365 156.973 247.318C151.025 230.403 136.181 218.544 104.673 205.531C67.302 190.095 61.0072 186.098 55.593 174.374L52.3895 167.437L49.5104 174.178Z" fill="#1971BD"/>
</svg>
