<svg width="167" height="35" viewBox="0 0 167 35" fill="none" xmlns="http://www.w3.org/2000/svg">
<path d="M47.053 26.2532C46.9926 26.4707 46.8599 26.6611 46.6768 26.7931C46.4937 26.9251 46.2711 26.9907 46.0456 26.9792C45.4485 26.9792 44.9911 26.6162 44.4865 26.3385C44.4256 26.3069 44.3731 26.2613 44.3334 26.2055C44.2936 26.1496 44.2677 26.0851 44.2578 26.0172C44.2578 25.7885 44.3958 25.5598 44.4865 25.3293C44.5773 25.0988 44.668 24.8266 44.7624 24.6033C44.9481 24.1027 45.162 23.6131 45.4031 23.1368C45.679 22.5414 45.9077 21.9915 46.1818 21.3961C46.503 20.7082 46.8243 20.0675 47.0984 19.3796C47.4614 18.6536 47.8244 17.913 48.1983 17.1344C48.2437 17.0436 48.289 16.9529 48.3362 16.8603C49.0622 15.3484 49.801 13.7893 50.5342 12.2773C51.0788 11.132 51.5434 9.94136 52.0008 8.75069C52.2749 7.97203 52.6415 7.19338 52.5054 6.36753C52.4128 5.7722 51.9101 5.45093 51.7267 4.90098C51.4055 3.99345 53.5581 3.939 54.0627 3.84825C54.8414 3.75568 55.62 3.66674 56.3987 3.61955C56.994 3.57236 57.6365 3.57236 58.2319 3.57236C58.7364 3.57236 59.3772 3.52698 59.7892 3.80287C60.2938 4.12232 60.2938 4.94817 60.3845 5.49812C60.5223 6.39372 60.6144 7.29576 60.6604 8.20073C60.7058 8.70531 60.7058 9.20808 60.7058 9.75804C60.7511 11.3625 60.7983 12.9652 60.7983 14.5697V17.913C60.7983 20.5703 61.027 22.4035 61.4844 23.5034C61.6659 23.9154 61.8474 24.0987 61.989 24.0987C62.3403 24.0775 62.6833 23.9836 62.9964 23.8228C63.2123 23.7126 63.4125 23.574 63.5917 23.4108C63.7732 23.3201 63.9547 23.1821 64.1362 23.4108C64.2742 23.5488 64.3177 23.7738 64.4121 23.9154C64.5065 24.057 64.6408 24.1895 64.5936 24.3728C64.5464 24.5561 64.3631 24.6487 64.2306 24.7358L63.6861 25.1478C63.3219 25.4165 62.9392 25.6591 62.5408 25.8738C62.3209 26.0001 62.0908 26.1076 61.8529 26.1951C60.9813 26.6224 60.028 26.857 59.0577 26.883C58.5981 26.8636 58.1468 26.7545 57.7291 26.5617C57.3331 26.4167 56.9846 26.1655 56.7217 25.8357C55.9431 24.8738 55.7598 23.5451 55.6672 22.3545V21.1166C55.6756 20.8248 55.7065 20.5342 55.7598 20.2472C55.8051 19.9713 55.9413 19.65 55.8051 19.376C55.7144 19.1473 55.4421 19.1001 55.2098 19.0547C53.789 18.9712 52.3639 19.0022 50.9481 19.1473C50.4036 19.1927 49.712 19.1473 49.3454 19.65C49.0713 20.0131 48.9334 20.612 48.7501 21.0712C48.5214 21.6157 48.2909 22.1711 48.1075 22.7665C47.9714 23.0877 47.8788 23.4072 47.7445 23.7285C47.6066 24.0915 47.4686 24.5071 47.3307 24.8737C47.297 25.3435 47.2036 25.807 47.053 26.2532ZM55.9467 17.1779L55.9921 13.4208C55.9921 10.1229 55.8541 7.87765 55.5801 6.73236C55.4411 6.71918 55.3009 6.73462 55.1681 6.77773C54.5727 8.42761 53.9756 9.84879 53.4728 11.0395C52.9283 12.1848 52.3729 13.4208 51.7322 14.7494C51.135 16.078 50.723 16.9039 50.5869 17.2251L55.9467 17.1779Z" fill="white"/>
<path d="M65.287 12.8297C65.425 12.7844 65.5629 12.7844 65.699 12.739C65.9749 12.6936 66.2436 12.6464 66.4795 12.6011C67.1934 12.5099 67.9124 12.4638 68.6322 12.4631C69.0896 12.4631 69.5941 12.4631 70.0515 12.4177C70.1895 12.4177 70.3728 12.3724 70.5107 12.5103C70.5763 12.6403 70.6228 12.779 70.6487 12.9223C70.6941 13.0603 70.7394 13.1964 70.7848 13.3797C70.832 13.5177 70.832 13.701 70.8774 13.8843C70.8702 13.978 70.8857 14.072 70.9227 14.1584C70.9227 14.2056 70.9681 14.3889 70.9227 14.3889C72.5726 13.0131 73.992 12.327 75.0974 12.327C75.6309 12.3169 76.1584 12.4417 76.6308 12.6898C77.1033 12.9379 77.5054 13.3013 77.8 13.7463C78.4879 14.6629 78.8091 16.0369 78.8091 17.8248C78.8091 20.9848 78.2138 23.3225 77.0667 24.8345C75.9776 26.2992 74.3187 27.2158 72.4855 27.1251C71.8826 27.1045 71.2843 27.0125 70.7031 26.851C70.4744 26.7602 70.1985 26.6695 70.1985 26.3482C70.1895 26.1505 70.2542 25.9564 70.38 25.8037C70.5038 25.7161 70.6439 25.6543 70.7921 25.6222C70.93 25.5296 71.1133 25.4407 71.2513 25.3463C71.5705 25.1577 71.863 24.9269 72.1207 24.6602C72.7532 24.0336 73.2521 23.2853 73.5872 22.4604C74.3133 20.7198 74.7325 18.5199 74.1318 16.6885C73.9502 16.144 73.6272 15.5432 73.0772 15.3599C72.6198 15.1784 72.1697 15.3599 71.7958 15.6794C70.8338 16.5052 70.6033 17.97 70.4672 19.1625C70.1913 21.041 69.9227 22.8724 69.5052 24.751C69.2204 25.9597 69.0059 27.1839 68.8627 28.4174C68.7247 29.5155 68.5414 30.6154 68.4997 31.6699V32.5865C68.4997 32.8152 68.4997 33.0439 68.3182 33.1819C68.0895 33.3634 67.7736 33.3634 67.4941 33.4106C67.0623 33.5474 66.6168 33.6363 66.1655 33.6756C65.9269 33.7291 65.6839 33.7601 65.4395 33.7681C65.1654 33.8135 64.8442 33.8135 64.5683 33.8589C64.3877 33.9143 64.1927 33.898 64.0238 33.8135L63.9784 33.7681C63.7969 33.6302 63.7969 33.3561 63.7969 33.1274V32.2961C63.8125 31.7421 63.8732 31.1904 63.9784 30.6462C64.0709 30.1889 64.1163 29.6843 64.2071 29.2269C64.2996 28.6315 64.4376 28.0362 64.5701 27.4409C64.708 26.7149 64.8913 25.9743 65.0293 25.241C65.0293 25.1485 65.0747 25.0595 65.0747 24.9651C65.8987 21.0719 66.3579 18.0934 66.3579 15.9861C66.3503 15.5298 66.2567 15.0791 66.082 14.6575C65.9577 14.3531 65.8046 14.0614 65.6246 13.7863C65.5321 13.6501 65.4431 13.5122 65.3487 13.3743C65.2911 13.3242 65.248 13.2595 65.2241 13.187C65.2001 13.1144 65.1962 13.0368 65.2126 12.9622C65.1037 12.9223 65.1963 12.8751 65.287 12.8297Z" fill="white"/>
<path d="M105.881 22.4059C105.881 23.7799 105.285 24.8798 104.093 25.751C103.669 26.0425 103.206 26.2734 102.719 26.4371L101.895 26.713C101.283 26.8899 100.652 26.9971 100.016 27.0324C98.7329 27.125 97.2663 26.9417 96.1664 26.2084C95.2589 25.5677 94.885 24.5132 95.4803 23.5058C95.9831 22.5892 97.083 21.9013 98.1375 22.0846C99.2828 22.2661 99.8328 23.4132 100.199 24.3298C100.29 24.5585 100.336 24.7419 100.428 24.9705C100.519 25.2918 100.749 25.5151 101.069 25.4298C101.241 25.3792 101.398 25.2863 101.525 25.1594C101.651 25.0326 101.744 24.8759 101.795 24.7037C101.832 24.5698 101.848 24.4306 101.84 24.2917C101.84 23.2844 100.971 21.8632 99.183 20.03C97.4424 18.1986 96.5258 16.732 96.5258 15.6321C96.5258 14.5322 97.0303 13.7082 97.9923 13.1128C98.9543 12.5175 100.147 12.2053 101.521 12.2053C102.895 12.2053 103.949 12.434 104.635 12.9313C105.321 13.4287 105.69 14.0766 105.69 14.9007C105.69 15.7247 105.055 16.8682 103.726 18.3747L104.323 18.97C104.552 19.1987 104.868 19.696 105.285 20.3894C105.697 21.168 105.881 21.8106 105.881 22.4059ZM104.14 14.9842C104.14 14.2055 103.635 13.8389 102.581 13.8389C102.145 13.8129 101.713 13.9247 101.345 14.1583C101.023 14.3888 100.84 14.6175 100.84 14.8462C100.84 15.3036 101.299 15.9915 102.261 16.8627L102.764 17.2747C103.681 16.5415 104.14 15.7628 104.14 14.9842Z" fill="white"/>
<path d="M115.089 27.0794C113.074 27.0794 111.379 26.2536 110.095 24.6055C108.767 22.9556 108.126 20.8484 108.126 18.1911C108.095 15.7101 108.562 13.248 109.5 10.9509C110.328 8.87846 111.668 7.04994 113.395 5.63645C115.089 4.26246 116.876 3.57455 118.8 3.57455C120.724 3.57455 122.282 3.98839 123.474 4.85779C124.667 5.7272 125.26 6.78174 125.26 7.97423C125.259 8.55023 125.166 9.12237 124.986 9.66948C124.87 10.0643 124.685 10.4359 124.441 10.7676C124.078 11.2268 123.663 11.0435 123.158 10.9491C122.701 10.8583 122.287 10.7204 121.83 10.5861C121.252 10.4047 120.71 10.126 120.227 9.76205C119.768 9.44079 119.951 9.07415 120.045 8.61676C120.091 8.29549 120.182 7.97604 120.227 7.65478C120.272 7.33352 120.363 7.01407 120.408 6.73818C120.499 6.19367 120.316 6.01216 119.811 5.82158C119.381 5.69147 118.932 5.63021 118.483 5.64008C117.154 5.64008 116.009 6.78537 114.956 9.03059C113.947 11.2764 113.443 14.0716 113.444 17.4161C113.444 19.6141 113.807 21.1714 114.544 22.1806C115.281 23.1898 116.147 23.6453 117.201 23.6453C117.874 23.6399 118.54 23.517 119.171 23.2823C119.875 23.0177 120.527 22.6292 121.094 22.1352C121.323 21.9537 121.507 21.7722 121.737 21.5907C121.827 21.464 121.954 21.3678 122.1 21.3148C122.282 21.2694 122.374 21.4074 122.512 21.4963C122.714 21.7068 122.928 21.9056 123.153 22.0917C123.334 22.2296 123.516 22.4547 123.334 22.687C123.196 22.8685 123.013 23.0083 122.877 23.1916L122.189 23.8795C121.614 24.4258 121.002 24.931 120.356 25.3914C119.647 25.8552 118.881 26.2237 118.076 26.4877C117.125 26.8664 116.112 27.067 115.089 27.0794Z" fill="#00A651"/>
<path d="M129.567 27.079C128.055 27.079 126.91 26.5744 126.039 25.5199C125.215 24.4671 124.757 23.0006 124.757 21.122C124.757 18.6935 125.398 16.6316 126.681 14.8909C127.965 13.1503 129.751 12.2791 132.041 12.2791L133.232 12.3263C133.617 12.1382 134.041 12.0436 134.47 12.0504C136.165 12.0504 137.034 13.6549 137.034 16.9075C137.943 16.8513 138.847 16.73 139.739 16.5444L140.241 16.4065L140.423 17.6897C139.494 18.0682 138.526 18.3445 137.537 18.5138L136.896 18.6517C136.484 20.9423 135.658 22.9134 134.375 24.6087C133.186 26.2078 131.537 27.079 129.567 27.079ZM131.353 24.2838C132.27 24.2838 133.096 23.6885 133.827 22.5432C134.54 21.4018 135.052 20.1462 135.339 18.8314C133.003 18.8314 131.858 17.9602 131.858 16.2196C131.858 15.5417 131.998 14.8712 132.27 14.2502L132.451 13.929C132.35 13.8885 132.24 13.8729 132.132 13.8836C131.994 13.8836 131.901 13.8836 131.856 13.929C131.311 14.292 130.803 15.0743 130.344 16.3575C129.851 17.7708 129.605 19.2586 129.618 20.7554C129.567 23.0931 130.163 24.2838 131.353 24.2838Z" fill="#00A651"/>
<path d="M153.713 24.6964C153.713 24.7418 153.665 24.7889 153.62 24.8343C153.366 25.0726 153.09 25.287 152.796 25.475C152.432 25.7437 152.049 25.9863 151.651 26.201C151.055 26.5223 150.458 26.8418 149.818 26.9797C149.499 27.033 149.178 27.0639 148.856 27.0723C147.434 27.0723 146.656 26.3844 146.427 25.0104C145.794 25.6463 145.048 26.159 144.227 26.5223C143.403 26.8853 142.715 27.0668 142.12 27.0668C141.067 27.0668 140.196 26.6076 139.463 25.691C138.729 24.7744 138.363 23.3551 138.363 21.4765C138.363 18.5906 138.96 16.3453 140.196 14.7408C141.434 13.0928 142.762 12.2669 144.32 12.2669C145.832 12.2669 147.115 12.6299 148.168 13.3215C148.398 12.0382 148.627 10.755 148.81 9.47358C148.946 8.41904 149.039 7.41169 149.13 6.35714C149.185 5.65497 149.17 4.94902 149.084 4.24988C149.039 3.88687 149.13 3.56197 149.543 3.47122C149.748 3.4316 149.947 3.37077 150.139 3.28972C150.683 3.15177 151.239 3.01383 151.834 2.92671C152.134 2.87652 152.437 2.84621 152.742 2.83596C153.244 2.78876 153.887 2.60545 153.978 3.29335C154.116 4.3007 154.023 5.30986 153.932 6.31721C153.84 6.95732 153.748 7.59864 153.656 8.24116C153.566 9.01982 153.382 9.79847 153.244 10.5771C153.063 11.4937 152.923 12.4557 152.742 13.3723C152.694 13.5102 152.694 13.601 152.649 13.7353C151.687 18.5924 151.23 21.8903 151.23 23.6309C151.23 24.1355 151.366 24.4114 151.593 24.4114C151.779 24.3829 151.954 24.3031 152.097 24.1809C152.235 24.0902 152.419 23.9994 152.556 23.9068C152.683 23.7991 152.821 23.7065 152.968 23.6309C153.105 23.5856 153.197 23.6781 153.288 23.7689C153.38 23.9068 153.469 24.0901 153.564 24.2281C153.62 24.3751 153.758 24.5131 153.713 24.6964ZM145.922 14.1582C145.144 14.1582 144.503 14.8842 143.953 16.4034C143.417 17.8246 143.136 19.3295 143.124 20.8485C143.124 22.3132 143.214 23.2298 143.443 23.6418C143.514 23.825 143.64 23.9813 143.805 24.0885C143.969 24.1957 144.164 24.2483 144.36 24.239C145.086 24.239 145.781 23.9631 146.467 23.3678C146.514 22.4965 147.011 19.6106 147.934 14.7082C147.206 14.3887 146.52 14.1582 145.922 14.1582Z" fill="#00A651"/>
<path d="M154.537 21.0317C154.537 18.3273 155.361 16.1747 157.011 14.6174C158.66 13.06 160.492 12.2796 162.601 12.2796C163.882 12.2796 164.936 12.6002 165.761 13.2415C166.156 13.5302 166.475 13.9104 166.69 14.3496C166.906 14.7887 167.012 15.2736 166.999 15.7626C167.021 16.7076 166.748 17.6361 166.22 18.4199C165.717 19.1129 165.058 19.678 164.296 20.0698C162.737 20.8484 161.363 21.3058 160.08 21.4891L159.301 21.5817C159.439 23.6418 160.308 24.6509 161.82 24.6509C162.394 24.634 162.956 24.4935 163.47 24.2389C163.725 24.1446 163.968 24.0229 164.196 23.8759C164.443 23.7334 164.674 23.5641 164.884 23.3713C165.066 23.2334 165.247 23.0972 165.48 23.2806C165.612 23.4237 165.733 23.5766 165.843 23.738C165.933 23.8759 166.117 23.9667 166.024 24.1954C165.958 24.3222 165.864 24.4322 165.748 24.5166L165.062 25.0611C164.61 25.4343 164.118 25.7569 163.596 26.0231C162.333 26.7192 160.914 27.0821 159.472 27.0776C157.96 27.0776 156.815 26.5331 155.943 25.4731C154.994 24.4222 154.537 22.9557 154.537 21.0317ZM161.819 18.5578C162.461 17.8318 162.782 16.8626 162.782 15.7173C162.782 14.5248 162.419 13.9748 161.728 13.9748C160.904 13.9748 160.261 14.6627 159.804 16.0821C159.368 17.3511 159.136 18.681 159.116 20.0226C160.308 19.7939 161.18 19.2893 161.819 18.5578Z" fill="#00A651"/>
<path d="M34.4532 32.0726C34.4527 32.7772 34.1726 33.4528 33.6744 33.951C33.1762 34.4492 32.5006 34.7293 31.796 34.7298H2.65723C1.95264 34.7293 1.27704 34.4492 0.778814 33.951C0.280592 33.4528 0.000480787 32.7772 0 32.0726V2.93384C0.000480787 2.22925 0.280592 1.55365 0.778814 1.05543C1.27704 0.557203 1.95264 0.277092 2.65723 0.276611H31.796C32.5006 0.277092 33.1762 0.557203 33.6744 1.05543C34.1726 1.55365 34.4527 2.22925 34.4532 2.93384V32.0726Z" fill="white"/>
<path fill-rule="evenodd" clip-rule="evenodd" d="M27.266 15.6375C27.6435 15.7867 28.0467 15.86 28.4525 15.8531C28.6385 15.8432 28.8225 15.8109 29.0007 15.7569C30.8792 15.4356 31.4764 13.8783 31.3838 12.8709C31.3838 10.1211 30.5598 8.05924 28.9553 6.68525C27.398 5.40201 25.3379 4.71411 22.8168 4.71411C20.2957 4.71411 18.2356 5.35664 16.6765 6.68525C16.5607 6.7651 16.4536 6.85697 16.3571 6.95933L15.4858 7.83055L16.3571 8.74715C17.2718 9.622 17.7311 11.0432 17.7311 12.9218H20.1197C20.1197 10.9052 20.9455 10.1266 22.8694 10.1266C23.786 10.1266 24.4268 10.3099 24.886 10.7673C25.298 11.2265 25.5267 11.9598 25.5267 12.9218C25.474 13.9745 25.8897 14.6206 26.2527 14.9836C26.5442 15.2661 26.8885 15.4883 27.266 15.6375ZM16.6768 28.3148C18.2359 29.598 20.296 30.2859 22.8171 30.2859C25.3363 30.2859 27.3982 29.598 28.9011 28.2712C30.5038 26.8972 31.3296 24.79 31.3296 22.0402V21.8115C31.3154 21.1466 31.0569 20.5102 30.6036 20.0237C30.3121 19.7412 29.9678 19.519 29.5903 19.3698C29.2128 19.2206 28.8096 19.1474 28.4038 19.1543C28.2211 19.1472 28.0383 19.1625 27.8593 19.1996C25.9807 19.5209 25.3853 21.0782 25.4779 22.0856C25.4779 23.0947 25.2474 23.828 24.8354 24.24C24.4234 24.652 23.7373 24.8807 22.8207 24.8807C20.8423 24.8807 20.1163 24.1021 20.1163 22.0402H17.6896C17.6896 23.9242 17.2303 25.3436 16.3137 26.2148L15.4443 27.086L16.3137 27.9935C16.3795 28.0389 16.4353 28.0951 16.4911 28.1513L16.4911 28.1513C16.5492 28.2099 16.6073 28.2685 16.6768 28.3148Z" fill="#193D4B"/>
<path d="M14.4787 25.063C13.7908 25.7509 12.8289 26.0704 11.591 26.0704C8.98096 26.0704 7.69772 24.7418 7.69772 22.0392V12.9222C7.69772 10.2178 8.98096 8.88915 11.591 8.88915C12.8289 8.88915 13.7908 9.21042 14.4787 9.89832C15.1666 10.5862 15.4861 11.5936 15.4861 12.9222C15.4861 10.677 16.0814 9.0271 17.2267 7.8818L16.9526 7.61136C15.624 6.46607 13.8362 5.91611 11.591 5.91611C9.34579 5.91611 7.55978 6.46062 6.23116 7.61136C4.90255 8.7621 4.26184 10.4973 4.26184 12.9258V22.0428C4.26184 24.4713 4.90255 26.2174 6.23116 27.3573C7.55978 28.4971 9.3476 29.0525 11.591 29.0525C13.8344 29.0525 15.624 28.508 16.9526 27.3573C17.0434 27.2665 17.1342 27.2193 17.1813 27.1286C16.036 25.9833 15.4861 24.3334 15.4861 22.0882C15.4861 23.4132 15.1195 24.4223 14.4787 25.063Z" fill="#00A651"/>
<path d="M11.5456 30.2394C9.02629 30.2394 6.96439 29.5533 5.40708 28.2701C3.80258 26.8961 3.02393 24.8342 3.02393 22.0391V12.9221C3.02393 10.1723 3.84977 8.06501 5.40708 6.69102C6.96439 5.3624 9.02629 4.71988 11.5456 4.71988C14.0649 4.71988 16.1267 5.40778 17.6859 6.69102C17.822 6.78177 17.9146 6.91972 18.0489 7.01228L18.7749 7.91981L18.0489 8.74565C17.1323 9.61506 16.6731 11.0362 16.6731 12.9203H14.2554C14.2554 11.9111 14.0267 11.1796 13.6147 10.7204C13.1573 10.263 12.5148 10.0797 11.5982 10.0797C9.67426 10.0797 8.8956 10.8584 8.8956 12.9203V22.0372C8.8956 24.0991 9.62162 24.8778 11.5982 24.8778C12.5148 24.8778 13.2027 24.6491 13.6147 24.2371C14.0267 23.8251 14.2554 23.0936 14.2554 22.0844H16.684C16.684 23.963 17.1432 25.3842 18.0126 26.259L18.8838 27.1303L18.0126 27.9997C17.9161 28.1027 17.8091 28.1951 17.6931 28.2756C16.1739 29.5533 14.112 30.2394 11.5456 30.2394ZM11.5456 7.10304C9.62162 7.10304 8.06431 7.56043 6.96439 8.52422C5.90985 9.43174 5.40708 10.8602 5.40708 12.9221V22.0391C5.40708 24.1009 5.90985 25.5203 6.96439 26.4369C8.06431 27.3444 9.57625 27.8581 11.5456 27.8581C13.1029 27.8581 14.4315 27.5368 15.4407 26.9415C15.3027 26.7128 15.1648 26.4369 15.0286 26.2155C14.1574 26.9415 12.9668 27.3608 11.5456 27.3608C8.29301 27.3608 6.46344 25.4368 6.46344 22.0971V12.9221C6.46344 9.57694 8.34201 7.65844 11.5456 7.65844C13.0121 7.65844 14.1574 8.02145 15.074 8.80373C15.212 8.52966 15.3481 8.29915 15.486 8.07772C14.4787 7.42974 13.1501 7.10304 11.5456 7.10304Z" fill="#00A651"/>
<path d="M15.486 12.922V22.0844C15.486 24.3296 16.0305 25.9795 17.1812 27.1248C18.3265 25.9795 18.9218 24.3296 18.9218 22.0844V12.8748C18.9218 10.6296 18.3773 8.97974 17.2266 7.83444C16.0359 8.98155 15.486 10.6768 15.486 12.922Z" fill="#00A651"/>
<path d="M17.1358 28.6368L16.31 27.9943C14.9403 26.6209 14.2554 24.651 14.2554 22.0845V12.9222C14.2554 10.3557 14.9814 8.38454 16.3645 7.01237L17.0505 6.32446L18.0597 7.01237C19.4331 8.38575 20.1198 10.3557 20.1198 12.9222V22.0845C20.1198 24.651 19.3938 26.6221 18.0125 27.9943L17.1358 28.6368ZM17.1812 9.98904C16.8268 10.9254 16.6555 11.9212 16.6766 12.9222V22.0391C16.6513 23.0399 16.8227 24.0358 17.1812 24.9704C17.5442 24.1918 17.6858 23.1844 17.6858 22.0391V12.9222C17.7522 11.9183 17.5793 10.913 17.1812 9.98904Z" fill="#00A651"/>
<path d="M15.4859 22.3603C15.4859 22.3603 15.3479 25.1536 17.1811 27.1248C17.9072 27.9488 19.0143 28.5913 20.5716 28.8654C21.7623 29.0941 22.6335 26.8035 21.3957 25.9795C21.2595 25.9341 18.9218 25.1536 18.9218 22.0844L15.4859 22.3603Z" fill="#00A651"/>
<path d="M20.7098 30.0562C20.5869 30.0659 20.4634 30.0504 20.3468 30.0108C18.6515 29.6895 17.3229 29.0035 16.3137 27.9035C14.1611 25.613 14.299 22.4058 14.299 22.2678L14.3444 21.2151L20.0255 20.7559L20.1634 22.0845C20.1162 24.1918 21.5828 24.7417 21.7661 24.7889L21.9476 24.8343L22.0856 24.9251C22.5677 25.276 22.9223 25.7744 23.0959 26.3449C23.2694 26.9154 23.2525 27.5269 23.0475 28.0869C22.6791 29.2775 21.7171 30.0562 20.7098 30.0562ZM16.7693 23.4585C16.9072 24.2843 17.2267 25.4296 18.0525 26.299C18.6933 26.9869 19.5173 27.399 20.6172 27.6295C20.6964 27.4884 20.7435 27.3316 20.7551 27.1703C20.7551 27.1249 20.7551 27.0323 20.7098 27.0323C19.9646 26.7113 19.3083 26.2143 18.7975 25.584C18.2866 24.9536 17.9363 24.2087 17.7767 23.4131L16.7693 23.4585Z" fill="#00A651"/>
<path d="M80.8184 12.8297C80.9563 12.7844 81.0942 12.7844 81.2322 12.739C81.5063 12.6936 81.7767 12.6464 82.0108 12.6011C82.7248 12.5099 83.4437 12.4639 84.1635 12.4631C84.6209 12.4631 85.1255 12.4631 85.5847 12.4177C85.7208 12.4177 85.9041 12.3724 86.0421 12.5103C86.1077 12.6403 86.1541 12.779 86.18 12.9223C86.2254 13.0603 86.2708 13.1964 86.3161 13.3797C86.3633 13.5177 86.3633 13.701 86.4087 13.8843C86.4015 13.978 86.4171 14.072 86.4541 14.1584C86.4541 14.2056 86.4995 14.3889 86.4541 14.3889C88.104 13.0131 89.5233 12.327 90.6287 12.327C91.1622 12.3169 91.6897 12.4417 92.1622 12.6898C92.6346 12.9379 93.0367 13.3013 93.3313 13.7463C94.0192 14.6629 94.3405 16.0369 94.3405 17.8248C94.3405 20.9848 93.7451 23.3225 92.5998 24.8345C91.4999 26.2992 89.85 27.2158 88.0168 27.1251C87.4127 27.1042 86.8131 27.0116 86.2308 26.8492C86.0021 26.7584 85.7262 26.6677 85.7262 26.3464C85.7172 26.1487 85.7819 25.9546 85.9077 25.8019C86.0315 25.7143 86.1716 25.6525 86.3198 25.6204C86.4577 25.5278 86.641 25.4389 86.779 25.3445C87.0986 25.1563 87.391 24.9255 87.6484 24.6584C88.2809 24.0318 88.7798 23.2835 89.1149 22.4586C89.841 20.7179 90.2602 18.5181 89.6594 16.6867C89.4779 16.1422 89.1549 15.5414 88.6049 15.3581C88.1475 15.1766 87.6974 15.3581 87.3235 15.6776C86.3615 16.5034 86.131 17.9681 85.9949 19.1606C85.719 21.0392 85.4504 22.8706 85.0329 24.7492C84.7481 25.9579 84.5336 27.182 84.3904 28.4156C84.2524 29.5137 84.0709 30.6136 84.0274 31.6681V32.5847C84.0274 32.8134 84.0274 33.0421 83.8458 33.1801C83.6172 33.3616 83.3013 33.3616 83.0218 33.4088C82.5904 33.5487 82.1448 33.6406 81.6932 33.6828C81.4546 33.7364 81.2116 33.7674 80.9672 33.7754C80.6931 33.8208 80.3719 33.8208 80.096 33.8661C79.9155 33.9225 79.7201 33.9062 79.5515 33.8208L79.5043 33.7754C79.3228 33.6374 79.3228 33.3634 79.3228 33.1347V32.2961C79.3383 31.7421 79.399 31.1904 79.5043 30.6462C79.5968 30.1889 79.6422 29.6843 79.7348 29.2269C79.8255 28.6315 79.9635 28.0362 80.0978 27.4409C80.2357 26.7149 80.419 25.9743 80.557 25.241C80.557 25.1485 80.6024 25.0595 80.6024 24.9651C81.4264 21.0719 81.8856 18.0934 81.8856 15.9861C81.878 15.5298 81.7844 15.0791 81.6097 14.6575C81.4854 14.3531 81.3323 14.0614 81.1523 13.7863L80.8674 13.3797C80.8091 13.3301 80.7655 13.2655 80.7411 13.1929C80.7168 13.1203 80.7128 13.0424 80.7294 12.9677C80.635 12.9223 80.7276 12.8751 80.8184 12.8297Z" fill="white"/>
</svg>
