<svg xmlns="http://www.w3.org/2000/svg" width="167" height="35" fill="none" xmlns:v="https://vecta.io/nano"><path d="M47.053 26.253a.99.99 0 0 1-1.007.726c-.597 0-1.054-.363-1.559-.641-.061-.032-.113-.077-.153-.133a.43.43 0 0 1-.076-.188c0-.229.138-.457.229-.688l.276-.726c.186-.501.4-.99.641-1.466l.779-1.741.917-2.017 1.1-2.245.138-.274 2.198-4.583c.545-1.145 1.009-2.336 1.467-3.527.274-.779.641-1.557.505-2.383-.093-.595-.595-.917-.779-1.467-.321-.908 1.831-.962 2.336-1.053l2.336-.229c.595-.047 1.238-.047 1.833-.047.505 0 1.145-.045 1.557.231.505.319.505 1.145.595 1.695a26.64 26.64 0 0 1 .276 2.703c.045.505.045 1.007.045 1.557l.092 4.812v3.343c0 2.657.229 4.491.686 5.59.181.412.363.595.505.595a2.54 2.54 0 0 0 1.007-.276 2.72 2.72 0 0 0 .595-.412c.181-.091.363-.229.544 0 .138.138.181.363.276.505s.229.274.181.457-.23.276-.363.363l-.544.412a9.6 9.6 0 0 1-1.145.726 4.5 4.5 0 0 1-.688.321 6.76 6.76 0 0 1-2.795.688c-.46-.019-.911-.128-1.329-.321a2.3 2.3 0 0 1-1.007-.726c-.779-.962-.962-2.291-1.054-3.481v-1.238a5.65 5.65 0 0 1 .093-.869c.045-.276.181-.597.045-.871-.091-.229-.363-.276-.595-.321a26.53 26.53 0 0 0-4.262.093c-.544.045-1.236 0-1.603.503-.274.363-.412.962-.595 1.421l-.643 1.695-.363.962-.414 1.145a5.56 5.56 0 0 1-.278 1.38zm8.894-9.075l.045-3.757c0-3.298-.138-5.543-.412-6.688a1.02 1.02 0 0 0-.412.045l-1.695 4.262-1.741 3.71-1.145 2.476 5.36-.047zm9.34-4.348c.138-.045.276-.045.412-.091l.781-.138a17.12 17.12 0 0 1 2.153-.138l1.419-.045c.138 0 .321-.045.459.093a1.51 1.51 0 0 1 .138.412l.136.457c.047.138.047.321.093.505-.007.094.008.188.045.274 0 .047.045.23 0 .23 1.65-1.376 3.069-2.062 4.175-2.062a3.17 3.17 0 0 1 2.703 1.419c.688.917 1.009 2.291 1.009 4.079 0 3.16-.595 5.498-1.742 7.01-1.089 1.465-2.748 2.381-4.581 2.291a7.63 7.63 0 0 1-1.782-.274c-.229-.091-.505-.181-.505-.503a.8.8 0 0 1 .181-.544 1.12 1.12 0 0 1 .412-.181l.459-.276a4.13 4.13 0 0 0 .869-.686 6.58 6.58 0 0 0 1.466-2.2c.726-1.741 1.145-3.94.545-5.772-.182-.545-.505-1.145-1.055-1.329-.457-.181-.907 0-1.281.319-.962.826-1.192 2.291-1.329 3.483l-.962 5.589a32.09 32.09 0 0 0-.642 3.666L68.5 31.67v.917c0 .229 0 .457-.181.595-.229.181-.545.181-.824.229a6.17 6.17 0 0 1-1.329.265 3.9 3.9 0 0 1-.726.092c-.274.045-.595.045-.871.091a.74.74 0 0 1-.544-.045l-.045-.045c-.181-.138-.181-.412-.181-.641v-.831a10.27 10.27 0 0 1 .181-1.65l.229-1.419.363-1.786.459-2.2c0-.093.045-.181.045-.276.824-3.893 1.283-6.872 1.283-8.979a3.63 3.63 0 0 0-.276-1.329 5.14 5.14 0 0 0-.457-.871l-.276-.412c-.058-.05-.101-.115-.125-.187a.43.43 0 0 1-.012-.225c-.109-.04-.016-.087.074-.132zm40.594 9.576c0 1.374-.596 2.474-1.788 3.345a5.57 5.57 0 0 1-1.374.686l-.824.276a8.46 8.46 0 0 1-1.879.319c-1.283.093-2.75-.091-3.85-.824-.907-.641-1.281-1.695-.686-2.703.503-.917 1.603-1.605 2.657-1.421 1.145.182 1.695 1.329 2.061 2.245l.229.641c.091.321.321.545.641.459.172-.051.329-.143.456-.27s.219-.284.27-.456c.037-.134.053-.273.045-.412 0-1.007-.869-2.428-2.657-4.262-1.741-1.831-2.657-3.298-2.657-4.398s.504-1.924 1.466-2.519 2.155-.908 3.529-.908 2.428.229 3.114.726 1.055 1.145 1.055 1.969-.635 1.968-1.964 3.474l.597.595c.229.229.545.726.962 1.419.412.779.596 1.421.596 2.017zm-1.741-7.422c0-.779-.505-1.145-1.559-1.145a2.08 2.08 0 0 0-1.236.319c-.322.23-.505.459-.505.688 0 .457.459 1.145 1.421 2.017l.503.412c.917-.733 1.376-1.512 1.376-2.29z" fill="#fff"/><g fill="#00a651"><path d="M115.089 27.079c-2.015 0-3.71-.826-4.994-2.474-1.328-1.65-1.969-3.757-1.969-6.414a18.54 18.54 0 0 1 1.374-7.24 13.19 13.19 0 0 1 3.895-5.314c1.694-1.374 3.481-2.062 5.405-2.062s3.482.414 4.674 1.283 1.786 1.924 1.786 3.116c-.001.576-.094 1.148-.274 1.695a3.54 3.54 0 0 1-.545 1.098c-.363.459-.778.276-1.283.181-.457-.091-.871-.229-1.328-.363a5.3 5.3 0 0 1-1.603-.824c-.459-.321-.276-.688-.182-1.145l.182-.962c.045-.321.136-.641.181-.917.091-.545-.092-.726-.597-.917-.43-.13-.879-.191-1.328-.181-1.329 0-2.474 1.145-3.527 3.391-1.009 2.246-1.513 5.041-1.512 8.386 0 2.198.363 3.755 1.1 4.764s1.603 1.465 2.657 1.465a5.78 5.78 0 0 0 1.97-.363c.704-.265 1.356-.653 1.923-1.147l.643-.545c.09-.127.217-.223.363-.276.182-.045.274.093.412.181.202.21.416.409.641.595.181.138.363.363.181.595-.138.181-.321.321-.457.505l-.688.688c-.575.546-1.187 1.052-1.833 1.512-.709.464-1.475.832-2.28 1.096a8.35 8.35 0 0 1-2.987.592zm14.478 0c-1.512 0-2.657-.505-3.528-1.559-.824-1.053-1.282-2.519-1.282-4.398 0-2.428.641-4.49 1.924-6.231s3.07-2.612 5.36-2.612l1.191.047a2.72 2.72 0 0 1 1.238-.276c1.695 0 2.564 1.604 2.564 4.857a19.05 19.05 0 0 0 2.705-.363l.502-.138.182 1.283a13.84 13.84 0 0 1-2.886.824l-.641.138c-.412 2.291-1.238 4.262-2.521 5.957-1.189 1.599-2.838 2.47-4.808 2.47zm1.786-2.795c.917 0 1.743-.595 2.474-1.741a11.73 11.73 0 0 0 1.512-3.712c-2.336 0-3.481-.871-3.481-2.612a4.91 4.91 0 0 1 .412-1.969l.181-.321a.68.68 0 0 0-.319-.045c-.138 0-.231 0-.276.045-.545.363-1.053 1.145-1.512 2.429a13.01 13.01 0 0 0-.726 4.398c-.051 2.338.545 3.528 1.735 3.528z"/><path d="M153.713 24.696c0 .045-.048.093-.093.138-.254.238-.53.453-.824.641-.364.269-.747.511-1.145.726-.596.321-1.193.641-1.833.779a6.93 6.93 0 0 1-.962.093c-1.422 0-2.2-.688-2.429-2.062a7.23 7.23 0 0 1-2.2 1.512c-.821.363-1.512.544-2.107.544-1.053 0-1.924-.459-2.657-1.376s-1.1-2.336-1.1-4.214c0-2.886.597-5.131 1.833-6.736 1.238-1.648 2.566-2.474 4.124-2.474 1.512 0 2.795.363 3.848 1.055l.642-3.848.32-3.116c.055-.702.04-1.408-.046-2.107-.045-.363.046-.688.459-.779a2.99 2.99 0 0 0 .596-.182l1.695-.363a7.07 7.07 0 0 1 .908-.091c.502-.047 1.145-.231 1.236.457.138 1.007.045 2.017-.046 3.024l-.276 1.924c-.09.779-.274 1.557-.412 2.336l-.502 2.795c-.048.138-.048.229-.093.363-.962 4.857-1.419 8.155-1.419 9.896 0 .505.136.781.363.781a1.01 1.01 0 0 0 .504-.23l.459-.274a2.18 2.18 0 0 1 .412-.276c.137-.045.229.047.32.138l.276.459c.056.147.194.285.149.468zm-7.791-10.538c-.778 0-1.419.726-1.969 2.245-.536 1.421-.817 2.926-.829 4.445 0 1.465.09 2.381.319 2.793.071.183.197.34.362.447a.94.94 0 0 0 .555.151c.726 0 1.421-.276 2.107-.871.047-.871.544-3.757 1.467-8.66-.728-.319-1.414-.55-2.012-.55zm8.615 6.874c0-2.704.824-4.857 2.474-6.414s3.481-2.338 5.59-2.338c1.281 0 2.335.321 3.16.962a3.02 3.02 0 0 1 1.238 2.521c.022.945-.251 1.873-.779 2.657-.503.693-1.162 1.258-1.924 1.65-1.559.779-2.933 1.236-4.216 1.419l-.779.093c.138 2.06 1.007 3.069 2.519 3.069a3.98 3.98 0 0 0 1.65-.412 3.72 3.72 0 0 0 .726-.363 3.9 3.9 0 0 0 .688-.505c.182-.138.363-.274.596-.091a3.98 3.98 0 0 1 .363.457c.09.138.274.229.181.457a.92.92 0 0 1-.276.321l-.686.544a8.04 8.04 0 0 1-1.466.962 8.49 8.49 0 0 1-4.124 1.055c-1.512 0-2.657-.544-3.529-1.605-.949-1.051-1.406-2.517-1.406-4.441zm7.282-2.474c.642-.726.963-1.695.963-2.841 0-1.192-.363-1.742-1.054-1.742-.824 0-1.467.688-1.924 2.107a12.71 12.71 0 0 0-.688 3.941c1.192-.229 2.064-.733 2.703-1.465z"/></g><path d="M34.453 32.073a2.66 2.66 0 0 1-2.657 2.657H2.657A2.66 2.66 0 0 1 0 32.073V2.934A2.66 2.66 0 0 1 2.657.277h29.139a2.66 2.66 0 0 1 2.657 2.657v29.139z" fill="#fff"/><path fill-rule="evenodd" d="M27.266 15.638c.378.149.781.223 1.187.216.186-.01.37-.042.548-.096 1.879-.321 2.476-1.879 2.383-2.886 0-2.75-.824-4.812-2.428-6.186-1.557-1.283-3.617-1.971-6.139-1.971s-4.581.643-6.14 1.971c-.116.08-.223.172-.319.274l-.871.871.871.917c.915.875 1.374 2.296 1.374 4.175h2.389c0-2.017.826-2.795 2.75-2.795.917 0 1.557.183 2.017.641.412.459.641 1.192.641 2.154-.053 1.053.363 1.699.726 2.062.291.283.636.505 1.013.654zM16.677 28.315c1.559 1.283 3.619 1.971 6.14 1.971s4.581-.688 6.084-2.015c1.603-1.374 2.428-3.481 2.428-6.231v-.229c-.014-.665-.273-1.301-.726-1.788-.291-.283-.636-.505-1.013-.654s-.781-.222-1.186-.216a2.25 2.25 0 0 0-.544.045c-1.879.321-2.474 1.879-2.381 2.886 0 1.009-.231 1.742-.643 2.154s-1.098.641-2.015.641c-1.978 0-2.704-.779-2.704-2.841H17.69c0 1.884-.459 3.303-1.376 4.175l-.869.871.869.908a1.28 1.28 0 0 1 .177.158h0c.058.059.116.117.186.164z" fill="#193d4b"/><g fill="#00a651"><path d="M14.479 25.063c-.688.688-1.65 1.007-2.888 1.007-2.61 0-3.893-1.329-3.893-4.031v-9.117c0-2.704 1.283-4.033 3.893-4.033 1.238 0 2.2.321 2.888 1.009s1.007 1.695 1.007 3.024c0-2.245.595-3.895 1.741-5.04l-.274-.27c-1.329-1.145-3.116-1.695-5.362-1.695s-4.031.545-5.36 1.695-1.969 2.886-1.969 5.314v9.117c0 2.428.641 4.175 1.969 5.314s3.116 1.695 5.36 1.695 4.033-.544 5.362-1.695c.091-.091.182-.138.229-.229-1.145-1.145-1.695-2.795-1.695-5.04 0 1.325-.367 2.334-1.007 2.975z"/><path d="M11.546 30.239c-2.519 0-4.581-.686-6.139-1.969-1.604-1.374-2.383-3.436-2.383-6.231v-9.117c0-2.75.826-4.857 2.383-6.231C6.964 5.362 9.026 4.72 11.546 4.72s4.581.688 6.14 1.971c.136.091.229.229.363.321l.726.908-.726.826c-.917.869-1.376 2.291-1.376 4.175h-2.418c0-1.009-.229-1.741-.641-2.2-.457-.457-1.1-.641-2.016-.641-1.924 0-2.703.779-2.703 2.841v9.117c0 2.062.726 2.841 2.703 2.841.917 0 1.604-.229 2.016-.641s.641-1.144.641-2.153h2.429c0 1.879.459 3.3 1.329 4.175l.871.871-.871.869a2 2 0 0 1-.319.276c-1.519 1.278-3.581 1.964-6.148 1.964zm0-23.136c-1.924 0-3.481.457-4.581 1.421-1.055.908-1.557 2.336-1.557 4.398v9.117c0 2.062.503 3.481 1.557 4.398 1.1.907 2.612 1.421 4.581 1.421 1.557 0 2.886-.321 3.895-.917l-.412-.726c-.871.726-2.062 1.145-3.483 1.145-3.253 0-5.082-1.924-5.082-5.264v-9.175c0-3.345 1.879-5.264 5.082-5.264 1.467 0 2.612.363 3.528 1.145l.412-.726c-1.007-.648-2.336-.975-3.94-.975z"/><path d="M15.486 12.922v9.162c0 2.245.544 3.895 1.695 5.04 1.145-1.145 1.741-2.795 1.741-5.04v-9.21c0-2.245-.544-3.895-1.695-5.04-1.191 1.147-1.741 2.842-1.741 5.088z"/><path d="M17.136 28.637l-.826-.643c-1.37-1.373-2.055-3.343-2.055-5.91v-9.162c0-2.566.726-4.538 2.109-5.91l.686-.688 1.009.688c1.373 1.373 2.06 3.343 2.06 5.91v9.162c0 2.567-.726 4.538-2.107 5.91l-.877.643zm.045-18.648a7.82 7.82 0 0 0-.505 2.933v9.117c-.025 1.001.146 1.997.505 2.931.363-.779.505-1.786.505-2.931v-9.117c.066-1.004-.107-2.009-.505-2.933z"/><path d="M15.486 22.36s-.138 2.793 1.695 4.765c.726.824 1.833 1.467 3.39 1.741 1.191.229 2.062-2.062.824-2.886-.136-.045-2.474-.826-2.474-3.895l-3.436.276z"/><path d="M20.71 30.056c-.123.01-.246-.006-.363-.045-1.695-.321-3.024-1.007-4.033-2.107-2.153-2.291-2.015-5.498-2.015-5.636l.045-1.053 5.681-.459.138 1.329c-.047 2.107 1.419 2.657 1.603 2.704l.181.045.138.091c.482.351.837.849 1.01 1.42s.157 1.182-.048 1.742c-.368 1.191-1.33 1.969-2.338 1.969zm-3.94-6.598c.138.826.457 1.971 1.283 2.84.641.688 1.465 1.1 2.565 1.331a1.1 1.1 0 0 0 .138-.459c0-.045 0-.138-.045-.138-.745-.321-1.402-.818-1.912-1.448s-.861-1.375-1.021-2.171l-1.007.045z"/></g><path d="M80.818 12.83c.138-.045.276-.045.414-.091l.779-.138a17.14 17.14 0 0 1 2.153-.138l1.421-.045c.136 0 .319-.045.457.093a1.51 1.51 0 0 1 .138.412l.136.457c.047.138.047.321.093.505-.007.094.008.188.045.274 0 .047.045.23 0 .23 1.65-1.376 3.069-2.062 4.175-2.062a3.17 3.17 0 0 1 2.703 1.419c.688.917 1.009 2.291 1.009 4.079 0 3.16-.595 5.498-1.741 7.01-1.1 1.465-2.75 2.381-4.583 2.291a7.63 7.63 0 0 1-1.786-.276c-.229-.091-.505-.181-.505-.503a.8.8 0 0 1 .181-.544c.124-.088.264-.149.412-.181l.459-.276a4.09 4.09 0 0 0 .869-.686c.633-.627 1.131-1.375 1.467-2.2.726-1.741 1.145-3.94.544-5.772-.181-.544-.505-1.145-1.055-1.329-.457-.181-.907 0-1.281.319-.962.826-1.192 2.29-1.329 3.483l-.962 5.589a32.15 32.15 0 0 0-.642 3.666l-.363 3.252v.917c0 .229 0 .457-.182.595-.229.181-.544.181-.824.229-.431.14-.877.232-1.329.274-.239.054-.482.085-.726.093-.274.045-.595.045-.871.091-.181.056-.376.04-.544-.045l-.047-.045c-.181-.138-.181-.412-.181-.641v-.839c.016-.554.076-1.106.181-1.65l.231-1.419.363-1.786.459-2.2c0-.093.045-.181.045-.276.824-3.893 1.283-6.872 1.283-8.979a3.63 3.63 0 0 0-.276-1.329 5.14 5.14 0 0 0-.457-.871l-.285-.407a.42.42 0 0 1-.138-.412c-.094-.045-.002-.093.089-.138z" fill="#fff"/></svg>