<svg width="388" height="80" viewBox="0 0 388 80" fill="none" xmlns="http://www.w3.org/2000/svg">
<path d="M109.257 60.3182C109.117 60.8232 108.809 61.2655 108.384 61.5719C107.958 61.8784 107.441 62.0308 106.918 62.004C105.531 62.004 104.469 61.1611 103.298 60.5163C103.156 60.443 103.034 60.3372 102.942 60.2074C102.85 60.0777 102.79 59.9279 102.767 59.7703C102.767 59.2393 103.087 58.7083 103.298 58.173C103.508 57.6378 103.719 57.0056 103.938 56.4872C104.369 55.3249 104.866 54.188 105.426 53.0819C106.067 51.6995 106.598 50.4225 107.234 49.0402C107.98 47.4429 108.726 45.9551 109.362 44.3578C110.205 42.672 111.048 40.9525 111.916 39.1445C112.022 38.9337 112.127 38.723 112.237 38.5081C113.922 34.9974 115.638 31.3771 117.34 27.8664C118.605 25.207 119.684 22.4423 120.746 19.6776C121.382 17.8696 122.233 16.0615 121.917 14.1439C121.702 12.7616 120.535 12.0156 120.109 10.7386C119.363 8.63135 124.362 8.50492 125.533 8.29419C127.341 8.07925 129.149 7.87273 130.958 7.76316C132.34 7.65358 133.832 7.65358 135.214 7.65358C136.386 7.65358 137.874 7.54822 138.83 8.18883C140.002 8.93058 140.002 10.8482 140.213 12.1252C140.533 14.2048 140.746 16.2993 140.853 18.4006C140.959 19.5722 140.959 20.7397 140.959 22.0167C141.064 25.7423 141.174 29.4637 141.174 33.1893V40.9525C141.174 47.1226 141.705 51.3792 142.767 53.9332C143.188 54.8899 143.61 55.3156 143.938 55.3156C144.754 55.2663 145.55 55.0482 146.277 54.675C146.779 54.419 147.244 54.0973 147.66 53.7183C148.081 53.5075 148.503 53.1872 148.924 53.7183C149.244 54.0386 149.345 54.5612 149.565 54.8899C149.784 55.2186 150.096 55.5263 149.986 55.952C149.877 56.3776 149.451 56.5926 149.143 56.7949L147.879 57.7516C147.033 58.3754 146.144 58.9387 145.219 59.4374C144.709 59.7306 144.175 59.9801 143.622 60.1834C141.598 61.1755 139.385 61.7203 137.132 61.7806C136.065 61.7356 135.017 61.4822 134.047 61.0347C133.127 60.6979 132.318 60.1147 131.708 59.3489C129.9 57.1152 129.474 54.0302 129.259 51.2654V48.3911C129.279 47.7137 129.35 47.0387 129.474 46.3724C129.579 45.7318 129.895 44.9858 129.579 44.3494C129.369 43.8184 128.736 43.7088 128.197 43.6034C124.898 43.4096 121.589 43.4814 118.301 43.8184C117.037 43.9237 115.431 43.8184 114.58 44.9858C113.944 45.8287 113.623 47.2195 113.198 48.2858C112.667 49.5501 112.131 50.8398 111.706 52.2221C111.39 52.9681 111.175 53.7098 110.863 54.4558C110.542 55.2987 110.222 56.2638 109.902 57.1152C109.823 58.2059 109.607 59.2822 109.257 60.3182ZM129.908 39.2456L130.013 30.5216C130.013 22.8638 129.693 17.6504 129.057 14.9911C128.734 14.9605 128.408 14.9963 128.1 15.0964C126.718 18.9274 125.331 22.2274 124.164 24.9921C122.899 27.6515 121.61 30.5216 120.122 33.6066C118.735 36.6916 117.779 38.6092 117.463 39.3552L129.908 39.2456Z" fill="#193D4B"/>
<path d="M151.596 29.1476C151.916 29.0423 152.237 29.0423 152.553 28.9369C153.193 28.8316 153.817 28.722 154.365 28.6166C156.023 28.4049 157.692 28.2979 159.363 28.2963C160.426 28.2963 161.597 28.2963 162.659 28.191C162.98 28.191 163.405 28.0856 163.725 28.4059C163.878 28.7077 163.986 29.0299 164.046 29.3626C164.151 29.6829 164.257 29.999 164.362 30.4246C164.471 30.7449 164.471 31.1706 164.577 31.5963C164.56 31.8138 164.596 32.0321 164.682 32.2327C164.682 32.3423 164.788 32.7679 164.682 32.7679C168.513 29.5733 171.809 27.9802 174.376 27.9802C175.614 27.9568 176.839 28.2466 177.936 28.8227C179.033 29.3989 179.967 30.2427 180.651 31.276C182.248 33.4043 182.994 36.5947 182.994 40.746C182.994 48.0835 181.612 53.5118 178.948 57.0225C176.42 60.4236 172.568 62.5519 168.311 62.3412C166.911 62.2936 165.522 62.0799 164.172 61.7048C163.641 61.4941 163.001 61.2834 163.001 60.5374C162.98 60.0783 163.13 59.6277 163.422 59.273C163.709 59.0695 164.035 58.9262 164.379 58.8516C164.699 58.6366 165.125 58.4301 165.445 58.211C166.186 57.7729 166.865 57.2371 167.464 56.6179C168.933 55.1629 170.091 53.4253 170.869 51.5099C172.555 47.4682 173.528 42.3602 172.133 38.1077C171.712 36.8434 170.962 35.4484 169.685 35.0227C168.623 34.6012 167.578 35.0227 166.709 35.7644C164.476 37.6821 163.94 41.0832 163.624 43.8521C162.984 48.2141 162.36 52.4666 161.391 56.8286C160.729 59.6352 160.231 62.4777 159.899 65.3419C159.578 67.8917 159.153 70.4457 159.056 72.8943V75.0227C159.056 75.5537 159.056 76.0847 158.634 76.405C158.103 76.8265 157.37 76.8265 156.721 76.9361C155.718 77.2538 154.684 77.4601 153.636 77.5514C153.082 77.6758 152.518 77.7477 151.95 77.7663C151.314 77.8717 150.568 77.8717 149.927 77.9771C149.508 78.1057 149.055 78.068 148.663 77.8717L148.557 77.7663C148.136 77.446 148.136 76.8096 148.136 76.2786V74.3484C148.172 73.062 148.313 71.7808 148.557 70.5174C148.772 69.4553 148.878 68.2837 149.088 67.2216C149.303 65.8392 149.624 64.4569 149.931 63.0745C150.252 61.3887 150.677 59.6692 150.998 57.9665C150.998 57.7516 151.103 57.5451 151.103 57.3259C153.016 48.2858 154.083 41.3698 154.083 36.4767C154.065 35.4172 153.848 34.3706 153.442 33.3917C153.153 32.685 152.798 32.0075 152.38 31.3687C152.165 31.0526 151.959 30.7323 151.739 30.412C151.606 30.2957 151.506 30.1454 151.45 29.9771C151.394 29.8087 151.385 29.6285 151.423 29.4553C151.17 29.3626 151.385 29.253 151.596 29.1476Z" fill="#193D4B"/>
<path d="M245.854 51.3834C245.854 54.5738 244.471 57.1278 241.702 59.1508C240.718 59.8276 239.644 60.3638 238.512 60.7439L236.599 61.3845C235.177 61.7953 233.714 62.0441 232.237 62.1262C229.257 62.3412 225.852 61.9155 223.298 60.2128C221.19 58.7251 220.322 56.2765 221.705 53.9374C222.872 51.8091 225.426 50.2118 227.875 50.6374C230.534 51.0589 231.811 53.7225 232.662 55.8508C232.873 56.3818 232.978 56.8075 233.193 57.3385C233.404 58.0845 233.939 58.6029 234.681 58.4048C235.081 58.2875 235.445 58.0717 235.739 57.7771C236.034 57.4825 236.25 57.1187 236.367 56.719C236.454 56.408 236.49 56.0848 236.472 55.7623C236.472 53.4232 234.453 50.1233 230.302 45.8666C226.26 41.6142 224.132 38.2088 224.132 35.6548C224.132 33.1008 225.304 31.1874 227.537 29.8051C229.771 28.4227 232.54 27.6978 235.73 27.6978C238.921 27.6978 241.37 28.2288 242.963 29.3836C244.556 30.5384 245.411 32.043 245.411 33.9564C245.411 35.8698 243.936 38.5249 240.851 42.023L242.238 43.4053C242.769 43.9363 243.502 45.0911 244.471 46.7011C245.428 48.5091 245.854 50.0011 245.854 51.3834ZM241.812 34.1502C241.812 32.3422 240.64 31.4909 238.192 31.4909C237.181 31.4306 236.177 31.6901 235.322 32.2326C234.576 32.7679 234.15 33.2989 234.15 33.8299C234.15 34.892 235.216 36.4893 237.45 38.5123L238.617 39.469C240.746 37.7663 241.812 35.9583 241.812 34.1502Z" fill="#193D4B"/>
<path d="M267.234 62.2358C262.556 62.2358 258.62 60.3182 255.64 56.4914C252.555 52.6604 251.067 47.7674 251.067 41.5973C250.995 35.8363 252.08 30.1194 254.258 24.7856C256.18 19.9734 259.292 15.7276 263.302 12.4455C267.234 9.25508 271.386 7.65778 275.853 7.65778C280.32 7.65778 283.936 8.61869 286.705 10.6374C289.474 12.6562 290.852 15.1048 290.852 17.8738C290.849 19.2112 290.634 20.5397 290.216 21.8101C289.946 22.727 289.518 23.5898 288.952 24.3599C288.109 25.4262 287.144 25.0005 285.972 24.7814C284.91 24.5706 283.949 24.2503 282.887 23.9385C281.547 23.5173 280.288 22.8702 279.166 22.0251C278.099 21.2791 278.525 20.4278 278.744 19.3657C278.849 18.6197 279.06 17.878 279.166 17.132C279.271 16.386 279.482 15.6443 279.587 15.0037C279.798 13.7393 279.372 13.3179 278.2 12.8754C277.201 12.5732 276.16 12.431 275.115 12.4539C272.03 12.4539 269.371 15.1133 266.927 20.3266C264.583 25.5414 263.413 32.0317 263.416 39.7977C263.416 44.9015 264.259 48.5175 265.97 50.8608C267.681 53.2041 269.691 54.2619 272.14 54.2619C273.702 54.2492 275.249 53.9639 276.713 53.419C278.349 52.8046 279.862 51.9025 281.18 50.7554C281.711 50.334 282.137 49.9125 282.672 49.4911C282.881 49.1969 283.175 48.9735 283.515 48.8505C283.936 48.7451 284.151 49.0654 284.472 49.2719C284.941 49.7606 285.438 50.2222 285.959 50.6543C286.381 50.9746 286.802 51.4972 286.381 52.0367C286.061 52.4581 285.635 52.7826 285.319 53.2083L283.721 54.8056C282.387 56.0742 280.964 57.2473 279.465 58.3163C277.82 59.3931 276.04 60.249 274.171 60.8619C271.963 61.7413 269.611 62.207 267.234 62.2358Z" fill="#00A651"/>
<path d="M300.853 62.2358C297.342 62.2358 294.683 61.0642 292.66 58.6156C290.747 56.1711 289.685 52.7658 289.685 48.4038C289.685 42.7647 291.172 37.977 294.152 33.9353C297.132 29.8936 301.279 27.8706 306.597 27.8706L309.362 27.9802C310.256 27.5434 311.241 27.3239 312.236 27.3396C316.173 27.3396 318.192 31.0652 318.192 38.6177C320.302 38.4873 322.401 38.2056 324.471 37.7747L325.639 37.4544L326.06 40.4341C323.902 41.3128 321.655 41.9543 319.359 42.3475L317.871 42.6678C316.915 47.9865 314.997 52.5635 312.017 56.4999C309.257 60.2128 305.426 62.2358 300.853 62.2358ZM305 55.7455C307.128 55.7455 309.046 54.3631 310.745 51.7037C312.4 49.0534 313.588 46.138 314.255 43.085C308.831 43.085 306.172 41.0621 306.172 37.0203C306.172 35.4464 306.498 33.8895 307.128 32.4476L307.55 31.7016C307.315 31.6076 307.06 31.5714 306.808 31.5963C306.488 31.5963 306.273 31.5963 306.168 31.7016C304.903 32.5445 303.723 34.361 302.657 37.3407C301.512 40.6224 300.942 44.0769 300.971 47.5524C300.853 52.9807 302.235 55.7455 305 55.7455Z" fill="#00A651"/>
<path d="M356.919 56.7021C356.919 56.8074 356.809 56.917 356.704 57.0224C356.113 57.5756 355.472 58.0736 354.79 58.5101C353.945 59.1339 353.056 59.6972 352.131 60.1959C350.749 60.9419 349.362 61.6836 347.874 62.0039C347.136 62.1277 346.389 62.1995 345.641 62.2189C342.341 62.2189 340.533 60.6216 340.002 57.4312C338.531 58.9077 336.799 60.0982 334.894 60.9419C332.98 61.7848 331.383 62.2062 330.001 62.2062C327.556 62.2062 325.533 61.1399 323.831 59.0116C322.128 56.8833 321.277 53.5875 321.277 49.2255C321.277 42.5244 322.663 37.3111 325.533 33.5854C328.408 29.7586 331.493 27.841 335.109 27.841C338.619 27.841 341.599 28.6839 344.043 30.2897C344.579 27.31 345.11 24.3303 345.535 21.3549C345.851 18.9063 346.066 16.5672 346.277 14.1186C346.405 12.4881 346.37 10.8489 346.172 9.22551C346.066 8.38261 346.277 7.62821 347.238 7.41748C347.712 7.32548 348.176 7.18423 348.62 6.99603C349.885 6.67573 351.174 6.35542 352.557 6.15313C353.254 6.0366 353.958 5.96621 354.664 5.9424C355.831 5.83282 357.323 5.40716 357.534 7.00446C357.854 9.34352 357.639 11.6868 357.429 14.0258C357.215 15.5122 357.002 17.0013 356.788 18.4932C356.577 20.3013 356.152 22.1093 355.831 23.9173C355.41 26.0457 355.085 28.2793 354.664 30.4077C354.554 30.728 354.554 30.9387 354.449 31.2506C352.215 42.5286 351.153 50.1864 351.153 54.2281C351.153 55.3998 351.469 56.0404 351.996 56.0404C352.429 55.9743 352.835 55.7889 353.168 55.5051C353.488 55.2944 353.914 55.0837 354.234 54.8687C354.527 54.6185 354.848 54.4036 355.191 54.2281C355.507 54.1228 355.722 54.3377 355.933 54.5484C356.148 54.8687 356.354 55.2944 356.573 55.6147C356.704 55.9561 357.024 56.2764 356.919 56.7021ZM338.83 32.2326C337.022 32.2326 335.534 33.9184 334.257 37.4459C333.012 40.746 332.36 44.2402 332.331 47.7673C332.331 51.1684 332.542 53.2967 333.073 54.2534C333.237 54.6788 333.531 55.0417 333.913 55.2906C334.295 55.5395 334.746 55.6617 335.201 55.64C336.887 55.64 338.501 54.9994 340.094 53.617C340.204 51.5941 341.359 44.893 343.5 33.5096C341.81 32.7678 340.217 32.2326 338.83 32.2326Z" fill="#00A651"/>
<path d="M358.833 48.193C358.833 41.9134 360.746 36.9149 364.577 33.2989C368.408 29.6828 372.66 27.8706 377.558 27.8706C380.533 27.8706 382.979 28.6151 384.895 30.1043C385.812 30.7745 386.553 31.6574 387.054 32.6771C387.554 33.6967 387.8 34.8227 387.769 35.9582C387.82 38.1525 387.188 40.3084 385.961 42.1283C384.793 43.7374 383.262 45.0496 381.494 45.9593C377.874 47.7673 374.683 48.8294 371.704 49.255L369.896 49.47C370.216 54.2535 372.235 56.5967 375.745 56.5967C377.076 56.5575 378.383 56.2312 379.576 55.64C380.167 55.4211 380.732 55.1384 381.262 54.7971C381.836 54.4661 382.371 54.0732 382.859 53.6255C383.281 53.3052 383.702 52.9891 384.242 53.4148C384.549 53.7471 384.831 54.1021 385.085 54.4768C385.295 54.7971 385.721 55.0079 385.506 55.5389C385.353 55.8335 385.134 56.0888 384.866 56.2849L383.273 57.5492C382.222 58.4157 381.08 59.1647 379.867 59.7829C376.935 61.3992 373.64 62.242 370.292 62.2315C366.781 62.2315 364.122 60.9672 362.099 58.5059C359.895 56.0657 358.833 52.6604 358.833 48.193ZM375.741 42.4486C377.233 40.7628 377.979 38.5122 377.979 35.8529C377.979 33.0839 377.136 31.8069 375.53 31.8069C373.617 31.8069 372.125 33.4042 371.063 36.7C370.052 39.6467 369.513 42.7347 369.466 45.8497C372.235 45.3187 374.258 44.147 375.741 42.4486Z" fill="#00A651"/>
<path d="M80 73.8299C79.9989 75.466 79.3484 77.0347 78.1916 78.1916C77.0347 79.3485 75.466 79.9989 73.8299 80H6.17005C4.534 79.9989 2.96527 79.3485 1.8084 78.1916C0.651531 77.0347 0.00111638 75.466 0 73.8299V6.17006C0.00111638 4.534 0.651531 2.96527 1.8084 1.8084C2.96527 0.651531 4.534 0.00111638 6.17005 0H73.8299C75.466 0.00111638 77.0347 0.651531 78.1916 1.8084C79.3484 2.96527 79.9989 4.534 80 6.17006V73.8299Z" fill="#193D4B"/>
<path d="M70.0033 50.6376C70.1087 47.2322 67.0236 46.4905 65.2156 46.8066C61.7049 47.4472 62.021 50.6376 62.021 50.6376C62.021 53.8279 61.2792 56.1712 59.6819 57.6589C58.0846 59.2562 55.851 60.0022 52.9809 60.0022C46.9162 60.0022 43.9365 56.9172 43.9365 50.6376C43.9365 55.8509 42.5541 59.6819 39.8948 62.3413L40.5312 62.9777C43.6162 65.637 47.7675 66.914 52.9809 66.914C58.1942 66.914 62.3413 65.6497 65.4263 62.9777C68.5114 60.3057 70.0033 56.1712 70.0033 50.6376Z" fill="white"/>
<path d="M52.9807 69.683C47.1267 69.683 42.3433 68.0857 38.723 65.1061C38.4069 64.8953 38.192 64.575 37.8801 64.3601L35.8613 62.2528L37.8801 60.2299C40.0084 58.2069 41.0747 54.9111 41.0747 50.5365H46.7095C46.7095 55.3242 48.3953 57.1322 52.9891 57.1322C55.1175 57.1322 56.7106 56.6012 57.6673 55.6445C58.624 54.6878 59.1592 52.9851 59.1592 50.6418C58.9442 48.3028 60.3266 44.6867 64.6886 43.9407C65.1043 43.8544 65.5288 43.8191 65.953 43.8354C66.8954 43.8194 67.8316 43.9894 68.7081 44.3358C69.5846 44.6823 70.3842 45.1982 71.061 45.8541C72.1136 46.984 72.7137 48.4616 72.7468 50.0054V50.5365C72.7468 56.9215 70.8292 61.8145 67.1078 65.0049C63.6182 68.0857 58.8305 69.683 52.9807 69.683ZM43.831 61.9157C46.17 63.4034 49.2551 64.1494 52.9807 64.1494C57.4481 64.1494 61.0642 63.0873 63.6182 60.8494C65.9572 58.8306 67.2342 55.6402 67.2342 51.156V50.625C67.2342 50.4142 67.2342 50.0939 67.1288 49.9886C66.9322 49.8443 66.7082 49.7415 66.4706 49.6864C66.2329 49.6314 65.9866 49.6252 65.7465 49.6683C65.325 49.7736 64.9036 49.7736 64.9036 50.4142V50.7472C64.9036 54.6835 63.8373 57.7686 61.7132 59.7915C59.5778 61.91 56.7021 62.9693 53.0861 62.9693C49.6807 62.9693 46.916 62.0126 44.8931 60.3099C44.4789 60.8029 44.1225 61.3416 43.831 61.9157Z" fill="white"/>
<path d="M62.0211 29.3627C62.0211 26.1723 61.2794 23.829 59.6821 22.3413C58.0847 20.744 55.8511 19.998 52.981 19.998C47.0216 19.998 43.9366 23.083 43.9366 29.27C43.9366 24.0566 42.6722 20.2256 40.0002 17.5662C40.2152 17.3513 40.4217 17.2459 40.5313 17.0352C43.6163 14.3759 47.7676 13.0988 52.981 13.0988C58.1943 13.0988 62.3414 14.3632 65.4264 17.0352C68.5115 19.7072 70.1088 23.7363 70.1088 29.3753C70.1885 30.306 69.8977 31.2305 69.2995 31.9479C68.7012 32.6653 67.844 33.1175 66.9142 33.2063C65.0008 33.6151 61.9157 32.768 62.0211 29.3627Z" fill="white"/>
<path d="M66.0668 36.1691C65.1244 36.1851 64.1882 36.015 63.3116 35.6686C62.4351 35.3222 61.6356 34.8062 60.9588 34.1503C60.1159 33.3074 59.1507 31.807 59.273 29.3626C59.273 27.1289 58.7419 25.4263 57.7852 24.36C56.719 23.2979 55.2312 22.8723 53.1029 22.8723C48.6355 22.8723 46.7179 24.6803 46.7179 29.3626H41.1716C41.1716 25.0006 40.1053 21.7006 37.9812 19.6692L35.9583 17.5409L37.9812 15.5179C38.2054 15.2803 38.454 15.0669 38.723 14.8815C42.3432 11.7965 47.1267 10.3046 52.9807 10.3046C58.8347 10.3046 63.6181 11.9019 67.2342 14.8815C70.9598 18.0719 72.8732 22.8596 72.8732 29.2446C73.0882 31.5837 71.7016 35.1997 67.3396 35.9457C66.9259 36.0712 66.4985 36.1462 66.0668 36.1691ZM52.9807 17.2332C56.5968 17.2332 59.5764 18.2995 61.5952 20.4236C63.7235 22.552 64.7898 25.5316 64.7898 29.468C64.7554 29.7216 64.7918 29.9798 64.8951 30.214C65.0919 30.358 65.316 30.4603 65.5537 30.5146C65.7914 30.569 66.0377 30.5742 66.2775 30.53C66.5978 30.53 67.2342 30.4247 67.1204 29.6871V29.3668C67.1204 24.5791 65.9488 21.2792 63.5044 19.1551C60.9504 17.0478 57.3343 15.8551 52.8669 15.8551C49.2466 15.8551 46.1616 16.6011 43.8225 17.9834C44.1428 18.5145 44.4589 19.0455 44.7792 19.6692C46.8106 18.0846 49.5754 17.2332 52.9807 17.2332Z" fill="white"/>
<path d="M33.6193 57.5536C32.022 59.1509 29.7883 59.8926 26.914 59.8926C20.8535 59.8926 17.8738 56.8076 17.8738 50.5322V29.3626C17.8738 23.083 20.8535 19.998 26.914 19.998C29.7883 19.998 32.022 20.744 33.6193 22.3413C35.2166 23.9386 35.9583 26.2776 35.9583 29.3626C35.9583 24.1493 37.3407 20.3183 40.0001 17.6589L39.3637 17.031C36.2786 14.3716 32.1273 13.0946 26.914 13.0946C21.7006 13.0946 17.5535 14.359 14.4685 17.031C11.3835 19.703 9.89575 23.732 9.89575 29.3711V50.5406C9.89575 56.1796 11.3835 60.234 14.4685 62.8807C17.5535 65.5274 21.7048 66.8171 26.914 66.8171C32.1231 66.8171 36.2786 65.5527 39.3637 62.8807C39.5744 62.67 39.7851 62.5604 39.8947 62.3497C37.2353 59.6903 35.9583 55.8593 35.9583 50.646C35.9583 53.7226 35.107 56.0658 33.6193 57.5536Z" fill="#00A651"/>
<path d="M26.8087 69.5734C20.9589 69.5734 16.1712 67.9803 12.5551 65.0006C8.82951 61.8103 7.02148 57.0226 7.02148 50.5322V29.3627C7.02148 22.9777 8.93909 18.0846 12.5551 14.8942C16.1712 11.8092 20.9589 10.3173 26.8087 10.3173C32.6584 10.3173 37.4461 11.9146 41.0664 14.8942C41.3825 15.1049 41.5974 15.4253 41.9093 15.6402L43.5951 17.7475L41.9093 19.6651C39.7809 21.6838 38.7147 24.9838 38.7147 29.3585H33.1009C33.1009 27.0152 32.5699 25.3167 31.6132 24.2505C30.5511 23.1884 29.0592 22.7627 26.9309 22.7627C22.4635 22.7627 20.6555 24.5708 20.6555 29.3585V50.528C20.6555 55.3157 22.3413 57.1237 26.9309 57.1237C29.0592 57.1237 30.6565 56.5927 31.6132 55.636C32.5699 54.6793 33.1009 52.9808 33.1009 50.6376H38.74C38.74 54.9996 39.8062 58.2996 41.825 60.331L43.8479 62.3539L41.825 64.3727C41.6011 64.6118 41.3524 64.8266 41.0832 65.0133C37.5557 67.9803 32.768 69.5734 26.8087 69.5734ZM26.8087 15.8509C22.3413 15.8509 18.7252 16.913 16.1712 19.1509C13.7226 21.2581 12.5551 24.575 12.5551 29.3627V50.5322C12.5551 55.3199 13.7226 58.6156 16.1712 60.744C18.7252 62.8512 22.2359 64.0439 26.8087 64.0439C30.4247 64.0439 33.5097 63.298 35.853 61.9156C35.5327 61.3846 35.2124 60.744 34.8963 60.2298C32.8733 61.9156 30.1086 62.8892 26.8087 62.8892C19.2562 62.8892 15.008 58.4218 15.008 50.6671V29.3627C15.008 21.5953 19.37 17.1406 26.8087 17.1406C30.214 17.1406 32.8733 17.9835 35.0017 19.7999C35.322 19.1635 35.6381 18.6283 35.9584 18.1141C33.6193 16.6095 30.5343 15.8509 26.8087 15.8509Z" fill="#00A651"/>
<path d="M35.9583 29.3627V50.6376C35.9583 55.8509 37.2226 59.6819 39.8946 62.3413C42.554 59.6819 43.9363 55.8509 43.9363 50.6376V29.2531C43.9363 24.0398 42.672 20.2088 40 17.5494C37.2352 20.213 35.9583 24.1493 35.9583 29.3627Z" fill="#00A651"/>
<path d="M39.789 65.852L37.8714 64.36C34.6909 61.171 33.1006 56.5969 33.1006 50.6375V29.3627C33.1006 23.4033 34.7864 18.8264 37.9979 15.6402L39.5909 14.0429L41.9342 15.6402C45.1232 18.8292 46.7177 23.4033 46.7177 29.3627V50.6375C46.7177 56.5969 45.0319 61.1738 41.8246 64.36L39.789 65.852ZM39.8944 22.552C39.0715 24.7263 38.6738 27.0384 38.7228 29.3627V50.5322C38.6638 52.8558 39.0619 55.1684 39.8944 57.3386C40.7373 55.5306 41.066 53.1915 41.066 50.5322V29.3627C41.2203 27.0317 40.8187 24.6974 39.8944 22.552Z" fill="#00A651"/>
<path d="M35.9581 51.2781C35.9581 51.2781 35.6378 57.7642 39.8945 62.3412C41.5803 64.2546 44.1511 65.7465 47.7672 66.3829C50.5319 66.914 52.5549 61.5952 49.6806 59.6818C49.3645 59.5765 43.9362 57.7642 43.9362 50.6375L35.9581 51.2781Z" fill="#00A651"/>
<path d="M48.0881 69.1477C47.8029 69.1702 47.5161 69.1344 47.2452 69.0424C43.3088 68.2964 40.2238 66.7033 37.8805 64.1493C32.8821 58.8306 33.2024 51.3835 33.2024 51.0632L33.3077 48.6188L46.4992 47.5526L46.8195 50.6376C46.7099 55.5306 50.1152 56.8076 50.5409 56.9172L50.9624 57.0226L51.2827 57.2333C52.4021 58.0482 53.2255 59.2056 53.6286 60.5302C54.0316 61.8548 53.9922 63.2747 53.5164 64.575C52.6608 67.3397 50.4271 69.1477 48.0881 69.1477ZM38.9383 53.828C39.2586 55.7456 40.0004 58.4049 41.918 60.4237C43.4057 62.021 45.3191 62.9777 47.8731 63.5129C48.057 63.1854 48.1664 62.8213 48.1934 62.4467C48.1934 62.3413 48.1934 62.1264 48.0881 62.1264C46.3577 61.381 44.834 60.227 43.6477 58.7633C42.4615 57.2995 41.6481 55.5698 41.2774 53.7226L38.9383 53.828Z" fill="#00A651"/>
<path d="M187.66 29.1476C187.98 29.0423 188.3 29.0423 188.621 28.9369C189.257 28.8316 189.885 28.722 190.429 28.6166C192.086 28.405 193.756 28.298 195.427 28.2963C196.489 28.2963 197.661 28.2963 198.727 28.191C199.043 28.191 199.469 28.0856 199.789 28.4059C199.941 28.7077 200.049 29.0299 200.109 29.3626C200.215 29.6829 200.32 29.999 200.426 30.4246C200.535 30.7449 200.535 31.1706 200.641 31.5963C200.624 31.8138 200.66 32.0321 200.746 32.2327C200.746 32.3423 200.851 32.7679 200.746 32.7679C204.577 29.5733 207.873 27.9802 210.439 27.9802C211.678 27.9568 212.903 28.2466 214 28.8227C215.097 29.3989 216.031 30.2427 216.715 31.276C218.312 33.4043 219.058 36.5947 219.058 40.746C219.058 48.0835 217.676 53.5118 215.016 57.0225C212.462 60.4236 208.631 62.5519 204.375 62.3412C202.972 62.2929 201.58 62.0778 200.227 61.7006C199.696 61.4899 199.056 61.2791 199.056 60.5332C199.035 60.0741 199.185 59.6235 199.477 59.2688C199.765 59.0653 200.09 58.922 200.434 58.8474C200.754 58.6324 201.18 58.4259 201.5 58.2068C202.242 57.7698 202.921 57.2338 203.519 56.6137C204.988 55.1587 206.146 53.421 206.924 51.5057C208.61 47.4639 209.584 42.3559 208.189 38.1035C207.767 36.8391 207.017 35.4441 205.74 35.0185C204.678 34.597 203.633 35.0185 202.765 35.7602C200.531 37.6778 199.996 41.079 199.68 43.8479C199.039 48.2099 198.415 52.4624 197.446 56.8244C196.785 59.631 196.286 62.4735 195.954 65.3377C195.634 67.8875 195.212 70.4415 195.111 72.8901V75.0185C195.111 75.5495 195.111 76.0805 194.69 76.4008C194.159 76.8223 193.425 76.8223 192.776 76.9319C191.774 77.2567 190.74 77.4701 189.691 77.5683C189.137 77.6926 188.573 77.7646 188.005 77.7832C187.369 77.8885 186.623 77.8885 185.982 77.9939C185.563 78.1248 185.11 78.087 184.718 77.8885L184.608 77.7832C184.187 77.4629 184.187 76.8265 184.187 76.2955V74.3484C184.223 73.062 184.364 71.7808 184.608 70.5174C184.823 69.4553 184.929 68.2837 185.144 67.2216C185.354 65.8392 185.675 64.4569 185.987 63.0745C186.307 61.3887 186.733 59.6692 187.053 57.9665C187.053 57.7516 187.158 57.5451 187.158 57.3259C189.072 48.2858 190.138 41.3698 190.138 36.4767C190.12 35.4172 189.903 34.3706 189.497 33.3917C189.209 32.685 188.853 32.0075 188.435 31.3687L187.774 30.4246C187.638 30.3094 187.537 30.1594 187.481 29.9908C187.424 29.8222 187.415 29.6415 187.453 29.468C187.234 29.3626 187.449 29.253 187.66 29.1476Z" fill="#193D4B"/>
</svg>
