<svg id="Layer_1" data-name="Layer 1" xmlns="http://www.w3.org/2000/svg" viewBox="0 0 1279 639"><defs><style>.cls-1{fill:#193d4b;}.cls-2{fill:#00a651;}.cls-3{fill:#fff;}</style></defs><title>appscode-logo-1280x640</title><path class="cls-1" d="M438.7,367.71a5.47,5.47,0,0,1-5.55,4c-3.29,0-5.81-2-8.59-3.53a2.38,2.38,0,0,1-1.26-1.77c0-1.26.76-2.52,1.26-3.79s1-2.77,1.52-4a77.83,77.83,0,0,1,3.53-8.08c1.52-3.28,2.78-6.31,4.29-9.59,1.77-3.79,3.54-7.32,5.05-11.11,2-4,4-8.08,6.06-12.37.25-.5.5-1,.76-1.51,4-8.33,8.07-16.92,12.11-25.25,3-6.31,5.56-12.87,8.08-19.43,1.51-4.29,3.53-8.58,2.78-13.13-.51-3.28-3.28-5.05-4.29-8.08-1.77-5,10.09-5.3,12.87-5.8,4.29-.51,8.58-1,12.87-1.26,3.28-.26,6.82-.26,10.1-.26,2.78,0,6.31-.25,8.58,1.27,2.78,1.76,2.78,6.31,3.28,9.34a147,147,0,0,1,1.52,14.89c.25,2.78.25,5.55.25,8.58.25,8.84.51,17.67.51,26.51v18.42c0,14.64,1.26,24.74,3.78,30.8,1,2.27,2,3.28,2.78,3.28a14,14,0,0,0,5.55-1.52,15,15,0,0,0,3.28-2.27c1-.5,2-1.26,3,0,.76.76,1,2,1.52,2.78s1.26,1.51,1,2.52-1.27,1.52-2,2l-3,2.27a53,53,0,0,1-6.31,4,24.79,24.79,0,0,1-3.79,1.77,37.25,37.25,0,0,1-15.4,3.79,19.43,19.43,0,0,1-7.32-1.77,12.67,12.67,0,0,1-5.55-4c-4.29-5.3-5.3-12.62-5.81-19.18v-6.82a31.16,31.16,0,0,1,.51-4.79c.25-1.52,1-3.29.25-4.8-.5-1.26-2-1.52-3.28-1.77a146.19,146.19,0,0,0-23.48.51c-3,.25-6.81,0-8.83,2.77-1.51,2-2.27,5.3-3.28,7.83-1.26,3-2.53,6.06-3.54,9.34-.75,1.77-1.26,3.53-2,5.3-.76,2-1.52,4.29-2.28,6.31A30.61,30.61,0,0,1,438.7,367.71Zm49-50,.25-20.7c0-18.17-.76-30.54-2.27-36.85a5.63,5.63,0,0,0-2.27.25c-3.28,9.09-6.57,16.92-9.34,23.48-3,6.31-6.06,13.12-9.59,20.44-3.29,7.32-5.56,11.87-6.31,13.64l29.53-.26Z"/><path class="cls-1" d="M539.16,293.75c.76-.25,1.52-.25,2.27-.5,1.52-.25,3-.51,4.3-.76a94.32,94.32,0,0,1,11.86-.76c2.52,0,5.3,0,7.82-.25.76,0,1.77-.25,2.53.51a8.32,8.32,0,0,1,.76,2.27c.25.76.5,1.51.75,2.52.26.76.26,1.77.51,2.78a3.21,3.21,0,0,0,.25,1.51c0,.26.25,1.27,0,1.27,9.09-7.58,16.91-11.36,23-11.36a17.46,17.46,0,0,1,14.89,7.82c3.79,5.05,5.56,12.62,5.56,22.47,0,17.41-3.28,30.29-9.6,38.62-6,8.07-15.14,13.12-25.24,12.62A42,42,0,0,1,569,371c-1.26-.5-2.78-1-2.78-2.77a4.4,4.4,0,0,1,1-3,6.2,6.2,0,0,1,2.27-1c.76-.51,1.77-1,2.53-1.52a22.77,22.77,0,0,0,4.79-3.78,36.28,36.28,0,0,0,8.08-12.12c4-9.59,6.31-21.71,3-31.8-1-3-2.78-6.31-5.81-7.32-2.52-1-5,0-7.06,1.76-5.3,4.55-6.57,12.62-7.32,19.19-1.52,10.35-3,20.44-5.3,30.79a177.21,177.21,0,0,0-3.54,20.2c-.76,6.05-1.77,12.11-2,17.92v5.05c0,1.26,0,2.52-1,3.28-1.26,1-3,1-4.54,1.26A34,34,0,0,1,544,408.6a21.47,21.47,0,0,1-4,.51c-1.51.25-3.28.25-4.8.5a4.05,4.05,0,0,1-3-.25l-.25-.25c-1-.76-1-2.27-1-3.53V401a56.2,56.2,0,0,1,1-9.09c.51-2.52.76-5.3,1.26-7.82.51-3.28,1.27-6.56,2-9.84.76-4,1.77-8.08,2.53-12.12,0-.51.25-1,.25-1.52,4.54-21.45,7.07-37.86,7.07-49.47a20,20,0,0,0-1.52-7.32,28.34,28.34,0,0,0-2.52-4.8c-.51-.75-1-1.51-1.52-2.27a2.34,2.34,0,0,1-.75-2.27C538.15,294.26,538.66,294,539.16,293.75Z"/><path class="cls-1" d="M762.81,346.51c0,7.57-3.28,13.63-9.85,18.43a30.46,30.46,0,0,1-7.57,3.78l-4.54,1.52A46.58,46.58,0,0,1,730.5,372c-7.07.51-15.15-.5-21.21-4.54-5-3.53-7.06-9.34-3.78-14.89,2.77-5.05,8.83-8.84,14.64-7.83,6.31,1,9.34,7.32,11.36,12.37.5,1.26.75,2.27,1.26,3.53.5,1.77,1.77,3,3.53,2.53a5.9,5.9,0,0,0,4-4,7,7,0,0,0,.25-2.27c0-5.55-4.79-13.38-14.64-23.48-9.59-10.09-14.64-18.17-14.64-24.23s2.78-10.6,8.08-13.88,11.87-5,19.44-5,13.38,1.26,17.16,4,5.81,6.31,5.81,10.85S758.26,316,750.94,324.3l3.29,3.28c1.26,1.26,3,4,5.3,7.82C761.8,339.69,762.81,343.23,762.81,346.51Zm-9.59-40.89c0-4.29-2.78-6.31-8.59-6.31a11.44,11.44,0,0,0-6.81,1.76c-1.77,1.27-2.78,2.53-2.78,3.79,0,2.52,2.53,6.31,7.83,11.11l2.77,2.27C750.69,314.2,753.22,309.91,753.22,305.62Z"/><path class="cls-2" d="M813.54,372.26c-11.1,0-20.44-4.55-27.51-13.63-7.32-9.09-10.85-20.7-10.85-35.34a102.11,102.11,0,0,1,7.57-39.89,72.68,72.68,0,0,1,21.46-29.28c9.33-7.57,19.18-11.36,29.78-11.36s19.18,2.28,25.75,7.07,9.84,10.6,9.84,17.17a30.11,30.11,0,0,1-1.51,9.34,19.54,19.54,0,0,1-3,6.05c-2,2.53-4.29,1.52-7.07,1-2.52-.5-4.8-1.26-7.32-2a29.26,29.26,0,0,1-8.83-4.54c-2.53-1.77-1.52-3.79-1-6.31.25-1.77.75-3.53,1-5.3s.75-3.53,1-5.05c.5-3-.51-4-3.29-5.05a23.52,23.52,0,0,0-7.32-1c-7.32,0-13.63,6.31-19.43,18.68q-8.34,18.56-8.33,46.2c0,12.11,2,20.69,6.06,26.25s8.83,8.07,14.64,8.07a31.84,31.84,0,0,0,10.85-2,34.78,34.78,0,0,0,10.6-6.32c1.26-1,2.27-2,3.54-3a4.22,4.22,0,0,1,2-1.52c1-.25,1.51.51,2.27,1a42.27,42.27,0,0,0,3.53,3.28c1,.76,2,2,1,3.28-.76,1-1.77,1.77-2.52,2.78l-3.79,3.79a93.2,93.2,0,0,1-10.1,8.33A53.24,53.24,0,0,1,830,369,46,46,0,0,1,813.54,372.26Z"/><path class="cls-2" d="M893.31,372.26c-8.33,0-14.64-2.78-19.44-8.59-4.54-5.8-7.06-13.88-7.06-24.23,0-13.38,3.53-24.74,10.6-34.33s16.91-14.39,29.53-14.39l6.56.26a15,15,0,0,1,6.82-1.52c9.34,0,14.13,8.84,14.13,26.76a104.84,104.84,0,0,0,14.9-2l2.77-.76,1,7.07a76.3,76.3,0,0,1-15.9,4.54l-3.53.76c-2.27,12.62-6.82,23.48-13.89,32.82C913.25,367.46,904.16,372.26,893.31,372.26Zm9.84-15.4c5.05,0,9.6-3.28,13.63-9.59a64.66,64.66,0,0,0,8.33-20.45c-12.87,0-19.18-4.8-19.18-14.39a27.07,27.07,0,0,1,2.27-10.85l1-1.77a3.75,3.75,0,0,0-1.76-.25c-.76,0-1.27,0-1.52.25-3,2-5.8,6.31-8.33,13.38a71.74,71.74,0,0,0-4,24.23C893.31,350.3,896.59,356.86,903.15,356.86Z"/><path class="cls-2" d="M1026.34,359.13c0,.25-.26.51-.51.76a31.49,31.49,0,0,1-4.54,3.53,53,53,0,0,1-6.31,4c-3.28,1.77-6.57,3.53-10.1,4.29a38,38,0,0,1-5.3.51c-7.83,0-12.12-3.79-13.38-11.36a39.91,39.91,0,0,1-12.12,8.33c-4.54,2-8.33,3-11.61,3-5.8,0-10.6-2.53-14.64-7.58s-6.06-12.87-6.06-23.22c0-15.9,3.29-28.27,10.1-37.11,6.82-9.08,14.14-13.63,22.72-13.63,8.33,0,15.4,2,21.2,5.81,1.27-7.07,2.53-14.14,3.54-21.2.75-5.81,1.26-11.36,1.76-17.17a58.12,58.12,0,0,0-.25-11.61c-.25-2,.25-3.79,2.53-4.29a16.47,16.47,0,0,0,3.28-1c3-.76,6.06-1.52,9.34-2a38.11,38.11,0,0,1,5-.5c2.77-.26,6.31-1.27,6.81,2.52.76,5.55.25,11.11-.25,16.66q-.76,5.29-1.52,10.6c-.5,4.29-1.51,8.58-2.27,12.87-1,5.05-1.77,10.35-2.77,15.4-.26.76-.26,1.26-.51,2-5.3,26.76-7.82,44.93-7.82,54.52,0,2.78.75,4.3,2,4.3a5.59,5.59,0,0,0,2.78-1.27c.76-.5,1.77-1,2.53-1.51a11.69,11.69,0,0,1,2.27-1.52c.75-.25,1.26.26,1.76.76.51.76,1,1.77,1.52,2.53C1025.83,357.36,1026.59,358.12,1026.34,359.13Zm-42.92-58.06c-4.29,0-7.82,4-10.85,12.37A71,71,0,0,0,968,337.93c0,8.07.5,13.12,1.76,15.39a5.15,5.15,0,0,0,5.05,3.29c4,0,7.83-1.52,11.61-4.8.26-4.8,3-20.7,8.08-47.71C990.49,302.34,986.71,301.07,983.42,301.07Z"/><path class="cls-2" d="M1030.88,338.94c0-14.9,4.54-26.76,13.63-35.34s19.18-12.88,30.8-12.88q10.59,0,17.41,5.3a16.65,16.65,0,0,1,6.82,13.89,25.15,25.15,0,0,1-4.29,14.64,30.14,30.14,0,0,1-10.6,9.09c-8.59,4.29-16.16,6.81-23.23,7.82l-4.29.51c.76,11.35,5.55,16.91,13.88,16.91a21.93,21.93,0,0,0,9.09-2.27,20.6,20.6,0,0,0,4-2,21.5,21.5,0,0,0,3.79-2.78c1-.76,2-1.51,3.28-.5a21.36,21.36,0,0,1,2,2.52c.5.76,1.51,1.26,1,2.52a5.12,5.12,0,0,1-1.52,1.77l-3.78,3a44.32,44.32,0,0,1-8.08,5.3,46.76,46.76,0,0,1-22.72,5.81c-8.33,0-14.64-3-19.44-8.84C1033.4,357.62,1030.88,349.54,1030.88,338.94ZM1071,325.31c3.54-4,5.31-9.34,5.31-15.65,0-6.57-2-9.6-5.81-9.6-4.54,0-8.08,3.79-10.6,11.61a70.15,70.15,0,0,0-3.79,21.71C1062.68,332.12,1067.48,329.34,1071,325.31Z"/><path class="cls-1" d="M369.28,399.77a14.65,14.65,0,0,1-14.64,14.64H194.1a14.65,14.65,0,0,1-14.64-14.64V239.23a14.65,14.65,0,0,1,14.64-14.64H354.64a14.65,14.65,0,0,1,14.64,14.64Z"/><path class="cls-3" d="M345.56,344.74c.25-8.08-7.07-9.84-11.36-9.09-8.33,1.52-7.58,9.09-7.58,9.09h0c0,7.57-1.76,13.13-5.55,16.66-3.79,3.79-9.09,5.56-15.9,5.56-14.39,0-21.46-7.32-21.46-22.22h0c0,12.37-3.28,21.46-9.59,27.77l1.51,1.51c7.32,6.31,17.17,9.34,29.54,9.34s22.21-3,29.53-9.34,10.86-16.15,10.86-29.28Z"/><path class="cls-3" d="M305.17,389.93c-13.89,0-25.24-3.79-33.83-10.86-.75-.5-1.26-1.26-2-1.77l-4.79-5,4.79-4.8c5.05-4.8,7.58-12.62,7.58-23h13.37c0,11.36,4,15.65,14.9,15.65,5.05,0,8.83-1.26,11.1-3.53s3.54-6.31,3.54-11.87c-.51-5.55,2.77-14.13,13.12-15.9a12.41,12.41,0,0,1,3-.25,17,17,0,0,1,12.12,4.79,14.92,14.92,0,0,1,4,9.85v1.26c0,15.15-4.55,26.76-13.38,34.33C330.41,386.14,319.05,389.93,305.17,389.93ZM283.46,371.5c5.55,3.53,12.87,5.3,21.71,5.3,10.6,0,19.18-2.52,25.24-7.83,5.55-4.79,8.58-12.36,8.58-23h0v-1.26c0-.5,0-1.26-.25-1.51a4.27,4.27,0,0,0-3.28-.76c-1,.25-2,.25-2,1.77h0V345c0,9.34-2.53,16.66-7.57,21.46Q318.29,374,305.42,374c-8.08,0-14.64-2.27-19.44-6.31A20,20,0,0,0,283.46,371.5Z"/><path class="cls-3" d="M326.62,294.26c0-7.57-1.76-13.13-5.55-16.66-3.79-3.79-9.09-5.56-15.9-5.56-14.14,0-21.46,7.32-21.46,22,0-12.37-3-21.46-9.34-27.77.51-.51,1-.76,1.26-1.26,7.32-6.31,17.17-9.34,29.54-9.34s22.21,3,29.53,9.34,11.11,15.9,11.11,29.28a8.41,8.41,0,0,1-7.58,9.09C333.69,304.35,326.37,302.34,326.62,294.26Z"/><path class="cls-3" d="M336.22,310.41a17,17,0,0,1-12.12-4.79c-2-2-4.29-5.56-4-11.36,0-5.3-1.26-9.34-3.53-11.87-2.53-2.52-6.06-3.53-11.11-3.53-10.6,0-15.15,4.29-15.15,15.4H277.15c0-10.35-2.53-18.18-7.57-23l-4.8-5.05,4.8-4.8a11,11,0,0,1,1.76-1.51c8.59-7.32,19.94-10.86,33.83-10.86s25.24,3.79,33.82,10.86c8.84,7.57,13.38,18.93,13.38,34.08.51,5.55-2.78,14.13-13.13,15.9A12.71,12.71,0,0,1,336.22,310.41Zm-31.05-44.93c8.58,0,15.65,2.53,20.44,7.57,5.05,5.05,7.58,12.12,7.58,21.46a3.29,3.29,0,0,0,.25,1.77,4.25,4.25,0,0,0,3.28.75c.76,0,2.27-.25,2-2v-.76c0-11.36-2.78-19.19-8.58-24.23-6.06-5-14.64-7.83-25.24-7.83-8.59,0-15.91,1.77-21.46,5.05.76,1.26,1.51,2.52,2.27,4C290.53,267.5,297.09,265.48,305.17,265.48Z"/><path class="cls-2" d="M259.23,361.15c-3.79,3.79-9.09,5.55-15.91,5.55-14.38,0-21.45-7.32-21.45-22.21V294.26c0-14.9,7.07-22.22,21.45-22.22,6.82,0,12.12,1.77,15.91,5.56s5.55,9.34,5.55,16.66h0c0-12.37,3.28-21.46,9.59-27.77L272.86,265c-7.32-6.31-17.17-9.34-29.54-9.34s-22.21,3-29.53,9.34-10.85,15.9-10.85,29.28v50.23c0,13.38,3.53,23,10.85,29.28s17.17,9.34,29.53,9.34,22.22-3,29.54-9.34c.5-.5,1-.76,1.26-1.26-6.31-6.31-9.34-15.4-9.34-27.77C264.78,352.06,262.76,357.62,259.23,361.15Z"/><path class="cls-2" d="M243.07,389.67c-13.88,0-25.24-3.78-33.82-10.85-8.84-7.57-13.13-18.93-13.13-34.33V294.26c0-15.15,4.55-26.76,13.13-34.33,8.58-7.32,19.94-10.86,33.82-10.86s25.24,3.79,33.83,10.86c.75.5,1.26,1.26,2,1.77l4,5-4,4.55c-5.05,4.79-7.58,12.62-7.58,23H258c0-5.56-1.26-9.59-3.53-12.12-2.52-2.52-6.06-3.53-11.11-3.53-10.6,0-14.89,4.29-14.89,15.65v50.23c0,11.36,4,15.65,14.89,15.65,5.05,0,8.84-1.26,11.11-3.53S258,350.3,258,344.74h13.38c0,10.35,2.53,18.18,7.32,23l4.8,4.8-4.8,4.79a11,11,0,0,1-1.76,1.52C268.57,385.89,257.21,389.67,243.07,389.67Zm0-127.47c-10.6,0-19.18,2.52-25.24,7.83-5.81,5-8.58,12.87-8.58,24.23v50.23c0,11.36,2.77,19.18,8.58,24.23,6.06,5,14.39,7.83,25.24,7.83,8.58,0,15.9-1.77,21.46-5.05-.76-1.26-1.52-2.78-2.27-4-4.8,4-11.36,6.31-19.19,6.31-17.92,0-28-10.6-28-29V294.26c0-18.43,10.35-29,28-29,8.08,0,14.39,2,19.44,6.31.76-1.51,1.51-2.78,2.27-4C259.23,264,251.91,262.2,243.07,262.2Z"/><path class="cls-2" d="M264.78,294.26v50.48c0,12.37,3,21.46,9.34,27.77,6.31-6.31,9.59-15.4,9.59-27.77V294c0-12.37-3-21.46-9.34-27.77C267.81,272.55,264.78,281.89,264.78,294.26Z"/><path class="cls-2" d="M273.87,380.84l-4.55-3.54Q258,365.95,258,344.74V294.26c0-14.14,4-25,11.62-32.56l3.78-3.79,5.56,3.79q11.35,11.35,11.35,32.56v50.48c0,14.14-4,25-11.61,32.56Zm.25-102.74a43.09,43.09,0,0,0-2.78,16.16v50.23a42.11,42.11,0,0,0,2.78,16.15c2-4.29,2.78-9.84,2.78-16.15V294.26A35,35,0,0,0,274.12,278.1Z"/><path class="cls-2" d="M264.78,346.26s-.76,15.39,9.34,26.25c4,4.54,10.1,8.08,18.68,9.59,6.56,1.26,11.36-11.36,4.54-15.9-.75-.25-13.63-4.55-13.63-21.46Z"/><path class="cls-2" d="M293.56,388.66h0a5,5,0,0,1-2-.25c-9.34-1.77-16.66-5.55-22.22-11.61-11.86-12.62-11.1-30.29-11.1-31.05l.25-5.8,31.3-2.53.76,7.32c-.26,11.61,7.82,14.64,8.83,14.9l1,.25.76.5a15.12,15.12,0,0,1,5.3,17.42C304.41,384.37,299.11,388.66,293.56,388.66Zm-21.71-36.35c.76,4.55,2.52,10.86,7.07,15.65,3.53,3.79,8.07,6.06,14.13,7.33a6.06,6.06,0,0,0,.76-2.53c0-.25,0-.76-.25-.76a27.63,27.63,0,0,1-16.16-19.94Z"/><path class="cls-1" d="M624.73,293.75c.76-.25,1.52-.25,2.28-.5,1.51-.25,3-.51,4.29-.76a94.44,94.44,0,0,1,11.86-.76c2.52,0,5.3,0,7.83-.25.75,0,1.76-.25,2.52.51a8.32,8.32,0,0,1,.76,2.27c.25.76.5,1.51.75,2.52.26.76.26,1.77.51,2.78a3.21,3.21,0,0,0,.25,1.51c0,.26.25,1.27,0,1.27,9.09-7.58,16.91-11.36,23-11.36a17.46,17.46,0,0,1,14.89,7.82c3.79,5.05,5.56,12.62,5.56,22.47,0,17.41-3.28,30.29-9.59,38.62-6.06,8.07-15.15,13.12-25.25,12.62a42,42,0,0,1-9.84-1.52c-1.26-.5-2.78-1-2.78-2.77a4.4,4.4,0,0,1,1-3,6.2,6.2,0,0,1,2.27-1c.76-.51,1.77-1,2.53-1.52a22.52,22.52,0,0,0,4.79-3.78,36.28,36.28,0,0,0,8.08-12.12c4-9.59,6.31-21.71,3-31.8-1-3-2.78-6.31-5.81-7.32-2.52-1-5,0-7.06,1.76-5.3,4.55-6.57,12.62-7.32,19.19-1.52,10.35-3,20.44-5.3,30.79a177.21,177.21,0,0,0-3.54,20.2c-.76,6.05-1.76,12.11-2,17.92v5.05c0,1.26,0,2.52-1,3.28-1.26,1-3,1-4.54,1.26a34,34,0,0,1-7.32,1.51,21.47,21.47,0,0,1-4,.51c-1.51.25-3.28.25-4.8.5a4,4,0,0,1-3-.25l-.26-.25c-1-.76-1-2.27-1-3.53V401a56.2,56.2,0,0,1,1-9.09c.51-2.52.76-5.3,1.27-7.82.5-3.28,1.26-6.56,2-9.84.76-4,1.77-8.08,2.53-12.12,0-.51.25-1,.25-1.52,4.54-21.45,7.07-37.86,7.07-49.47a20,20,0,0,0-1.52-7.32,28.34,28.34,0,0,0-2.52-4.8L625,296.78a2.32,2.32,0,0,1-.76-2.27C623.72,294.26,624.23,294,624.73,293.75Z"/></svg>