<svg width="146" height="32" viewBox="0 0 146 32" fill="none" xmlns="http://www.w3.org/2000/svg">
<path d="M40.971 24.4487C40.9184 24.6381 40.8029 24.8039 40.6434 24.9188C40.484 25.0337 40.2901 25.0909 40.0938 25.0809C39.5739 25.0809 39.1756 24.7648 38.7362 24.523C38.6832 24.4955 38.6375 24.4558 38.6029 24.4071C38.5683 24.3585 38.5457 24.3023 38.5371 24.2432C38.5371 24.0441 38.6572 23.8449 38.7362 23.6442C38.8153 23.4435 38.8943 23.2064 38.9765 23.0121C39.1382 22.5762 39.3244 22.1498 39.5344 21.7351C39.7746 21.2167 39.9737 20.7378 40.2124 20.2194C40.4921 19.6204 40.7719 19.0625 41.0105 18.4635C41.3266 17.8314 41.6427 17.1865 41.9683 16.5085C42.0078 16.4295 42.0473 16.3505 42.0884 16.2699C42.7205 14.9534 43.3638 13.5958 44.0023 12.2793C44.4764 11.282 44.881 10.2452 45.2793 9.20845C45.5179 8.53044 45.8372 7.85243 45.7186 7.13333C45.638 6.61494 45.2003 6.3352 45.0406 5.85633C44.7609 5.06611 46.6353 5.01869 47.0747 4.93967C47.7527 4.85907 48.4307 4.78162 49.1087 4.74053C49.6271 4.69944 50.1866 4.69944 50.705 4.69944C51.1443 4.69944 51.7022 4.65993 52.061 4.90016C52.5003 5.17832 52.5003 5.89742 52.5794 6.37629C52.6993 7.15613 52.7795 7.94158 52.8196 8.72958C52.8591 9.16894 52.8591 9.60672 52.8591 10.0856C52.8986 11.4827 52.9397 12.8782 52.9397 14.2754V17.1865C52.9397 19.5003 53.1388 21.0966 53.5371 22.0543C53.6952 22.4131 53.8532 22.5727 53.9765 22.5727C54.2823 22.5542 54.581 22.4724 54.8536 22.3325C55.0416 22.2365 55.216 22.1158 55.372 21.9737C55.5301 21.8947 55.6881 21.7746 55.8461 21.9737C55.9663 22.0938 56.0042 22.2898 56.0864 22.4131C56.1686 22.5363 56.2855 22.6517 56.2444 22.8113C56.2033 22.971 56.0437 23.0516 55.9283 23.1274L55.4542 23.4862C55.1371 23.7201 54.8038 23.9314 54.4569 24.1184C54.2655 24.2283 54.0651 24.3219 53.8579 24.3981C53.099 24.7702 52.2689 24.9745 51.4241 24.9971C51.0239 24.9802 50.6309 24.8852 50.2672 24.7174C49.9224 24.591 49.6189 24.3723 49.39 24.0852C48.712 23.2475 48.5524 22.0907 48.4718 21.0539V19.976C48.4791 19.722 48.506 19.4689 48.5524 19.219C48.5919 18.9788 48.7104 18.699 48.5919 18.4604C48.5129 18.2612 48.2758 18.2201 48.0735 18.1806C46.8364 18.1079 45.5954 18.1349 44.3626 18.2612C43.8885 18.3007 43.2863 18.2612 42.9671 18.699C42.7284 19.0151 42.6083 19.5367 42.4487 19.9365C42.2496 20.4106 42.0489 20.8943 41.8892 21.4126C41.7707 21.6924 41.6901 21.9705 41.5731 22.2503C41.453 22.5664 41.3329 22.9283 41.2128 23.2475C41.1834 23.6565 41.1022 24.0602 40.971 24.4487ZM48.7152 16.5465L48.7547 13.2749C48.7547 10.4033 48.6346 8.44826 48.3959 7.451C48.2749 7.43952 48.1528 7.45297 48.0372 7.49051C47.5188 8.92713 46.9988 10.1646 46.561 11.2014C46.0869 12.1987 45.6033 13.2749 45.0454 14.4318C44.5254 15.5887 44.1667 16.3078 44.0481 16.5875L48.7152 16.5465Z" fill="#193D4B"/>
<path d="M56.8483 12.7603C56.9684 12.7208 57.0886 12.7208 57.2071 12.6813C57.4473 12.6418 57.6812 12.6007 57.8867 12.5612C58.5083 12.4818 59.1344 12.4416 59.7611 12.441C60.1594 12.441 60.5987 12.441 60.997 12.4015C61.1171 12.4015 61.2767 12.362 61.3968 12.4821C61.454 12.5953 61.4944 12.7161 61.517 12.8409C61.5565 12.961 61.596 13.0795 61.6355 13.2392C61.6766 13.3593 61.6766 13.5189 61.7161 13.6785C61.7098 13.7601 61.7234 13.842 61.7556 13.9172C61.7556 13.9583 61.7951 14.1179 61.7556 14.1179C63.1922 12.9199 64.4281 12.3225 65.3906 12.3225C65.8552 12.3137 66.3145 12.4224 66.7259 12.6384C67.1373 12.8545 67.4874 13.1709 67.7439 13.5584C68.3429 14.3565 68.6226 15.5529 68.6226 17.1097C68.6226 19.8612 68.1042 21.8968 67.1054 23.2134C66.1571 24.4888 64.7126 25.2869 63.1164 25.2079C62.5914 25.19 62.0704 25.1099 61.5644 24.9692C61.3652 24.8902 61.125 24.8112 61.125 24.5315C61.1171 24.3593 61.1734 24.1903 61.283 24.0573C61.3908 23.981 61.5128 23.9272 61.6418 23.8993C61.7619 23.8187 61.9216 23.7412 62.0417 23.659C62.3197 23.4948 62.5743 23.2938 62.7987 23.0616C63.3495 22.516 63.7839 21.8644 64.0757 21.1461C64.7079 19.6305 65.073 17.715 64.5498 16.1203C64.3918 15.6462 64.1105 15.1231 63.6316 14.9634C63.2333 14.8054 62.8414 14.9634 62.5158 15.2416C61.6782 15.9607 61.4774 17.2361 61.3589 18.2745C61.1187 19.9102 60.8848 21.5049 60.5213 23.1407C60.2733 24.1931 60.0865 25.2591 59.9618 26.3332C59.8417 27.2893 59.6821 28.2471 59.6457 29.1653V29.9634C59.6457 30.1626 59.6457 30.3617 59.4877 30.4818C59.2885 30.6399 59.0135 30.6399 58.7701 30.681C58.3942 30.8001 58.0062 30.8775 57.6133 30.9117C57.4055 30.9583 57.1939 30.9853 56.9811 30.9923C56.7424 31.0318 56.4627 31.0318 56.2225 31.0713C56.0652 31.1196 55.8954 31.1054 55.7483 31.0318L55.7088 30.9923C55.5508 30.8722 55.5508 30.6335 55.5508 30.4344V29.7106C55.5643 29.2282 55.6172 28.7477 55.7088 28.2739C55.7894 27.8757 55.8289 27.4363 55.908 27.038C55.9886 26.5196 56.1087 26.0013 56.2241 25.4829C56.3442 24.8507 56.5038 24.2059 56.6239 23.5674C56.6239 23.4868 56.6634 23.4093 56.6634 23.3271C57.3809 19.9371 57.7808 17.3436 57.7808 15.5087C57.7741 15.1114 57.6926 14.7189 57.5406 14.3518C57.4323 14.0868 57.299 13.8328 57.1423 13.5932C57.0617 13.4747 56.9842 13.3545 56.9021 13.2344C56.8519 13.1908 56.8144 13.1345 56.7935 13.0713C56.7727 13.0082 56.7692 12.9406 56.7835 12.8757C56.6887 12.8409 56.7693 12.7998 56.8483 12.7603Z" fill="#193D4B"/>
<path d="M92.1957 21.0987C92.1957 22.295 91.6774 23.2528 90.639 24.0114C90.2699 24.2652 89.8673 24.4663 89.4426 24.6088L88.7251 24.849C88.1921 25.0031 87.6433 25.0964 87.0893 25.1272C85.9719 25.2078 84.6949 25.0482 83.7372 24.4097C82.947 23.8518 82.6214 22.9335 83.1398 22.0564C83.5776 21.2583 84.5353 20.6593 85.4536 20.8189C86.4508 20.977 86.9297 21.9758 87.2489 22.7739C87.328 22.9731 87.3675 23.1327 87.4481 23.3318C87.5271 23.6116 87.7278 23.806 88.006 23.7317C88.1559 23.6877 88.2923 23.6067 88.4028 23.4963C88.5132 23.3858 88.5942 23.2494 88.6382 23.0995C88.6709 22.9829 88.6842 22.8617 88.6777 22.7407C88.6777 21.8636 87.9206 20.6261 86.3639 19.0299C84.8482 17.4352 84.0501 16.1582 84.0501 15.2004C84.0501 14.2427 84.4895 13.5252 85.3271 13.0068C86.1648 12.4884 87.2031 12.2166 88.3995 12.2166C89.5959 12.2166 90.5141 12.4157 91.1116 12.8487C91.709 13.2818 92.0298 13.846 92.0298 14.5635C92.0298 15.281 91.4766 16.2767 90.3198 17.5885L90.8397 18.1069C91.0389 18.306 91.3139 18.739 91.6774 19.3428C92.0361 20.0208 92.1957 20.5803 92.1957 21.0987ZM90.6801 14.6362C90.6801 13.9582 90.2407 13.639 89.3225 13.639C88.9434 13.6163 88.5669 13.7137 88.2462 13.9171C87.9665 14.1178 87.8068 14.317 87.8068 14.5161C87.8068 14.9144 88.2067 15.5134 89.0443 16.272L89.4821 16.6307C90.2802 15.9922 90.6801 15.3142 90.6801 14.6362Z" fill="#193D4B"/>
<path d="M100.212 25.1677C98.458 25.1677 96.9819 24.4486 95.8645 23.0135C94.7076 21.5769 94.1497 19.742 94.1497 17.4283C94.1225 15.2679 94.5293 13.124 95.3461 11.1239C96.067 9.31929 97.234 7.72711 98.7378 6.49631C100.212 5.29992 101.769 4.70093 103.444 4.70093C105.12 4.70093 106.476 5.06127 107.514 5.8183C108.552 6.57534 109.069 7.49357 109.069 8.53193C109.068 9.03347 108.987 9.53167 108.83 10.0081C108.729 10.3519 108.569 10.6754 108.356 10.9642C108.04 11.3641 107.678 11.2045 107.239 11.1223C106.841 11.0433 106.48 10.9231 106.082 10.8062C105.579 10.6483 105.107 10.4056 104.687 10.0887C104.287 9.80893 104.446 9.48968 104.528 9.09141C104.568 8.81167 104.647 8.53351 104.687 8.25377C104.726 7.97403 104.805 7.69587 104.845 7.45564C104.924 6.98151 104.764 6.82347 104.325 6.65752C103.95 6.54422 103.559 6.49088 103.168 6.49947C102.011 6.49947 101.014 7.49674 100.097 9.45175C99.2182 11.4073 98.7794 13.8412 98.7804 16.7534C98.7804 18.6673 99.0965 20.0233 99.7382 20.9021C100.38 21.7808 101.134 22.1775 102.052 22.1775C102.638 22.1727 103.218 22.0657 103.767 21.8614C104.38 21.631 104.948 21.2927 105.442 20.8626C105.641 20.7045 105.801 20.5465 106.001 20.3884C106.08 20.2781 106.19 20.1943 106.318 20.1482C106.476 20.1087 106.556 20.2288 106.676 20.3062C106.852 20.4895 107.039 20.6626 107.234 20.8246C107.392 20.9447 107.55 21.1407 107.392 21.343C107.272 21.5011 107.113 21.6227 106.994 21.7824L106.395 22.3814C105.894 22.8571 105.361 23.297 104.799 23.6979C104.182 24.1017 103.514 24.4226 102.814 24.6525C101.986 24.9822 101.104 25.1569 100.212 25.1677Z" fill="#00A651"/>
<path d="M112.819 25.1682C111.503 25.1682 110.505 24.7288 109.747 23.8106C109.029 22.8939 108.631 21.6169 108.631 19.9811C108.631 17.8665 109.189 16.0711 110.306 14.5555C111.424 13.0398 112.979 12.2812 114.973 12.2812L116.01 12.3223C116.345 12.1585 116.715 12.0762 117.088 12.0821C118.564 12.0821 119.321 13.4792 119.321 16.3114C120.112 16.2625 120.899 16.1568 121.676 15.9953L122.114 15.8751L122.272 16.9925C121.463 17.322 120.62 17.5626 119.759 17.71L119.201 17.8302C118.842 19.8247 118.123 21.541 117.006 23.0172C115.97 24.4096 114.534 25.1682 112.819 25.1682ZM114.374 22.7343C115.172 22.7343 115.891 22.2159 116.528 21.2186C117.149 20.2248 117.595 19.1315 117.845 17.9866C115.811 17.9866 114.814 17.228 114.814 15.7124C114.814 15.1221 114.936 14.5383 115.172 13.9976L115.33 13.7178C115.242 13.6826 115.147 13.669 115.052 13.6783C114.932 13.6783 114.851 13.6783 114.812 13.7178C114.338 14.0339 113.895 14.7151 113.495 15.8325C113.066 17.0631 112.852 18.3586 112.863 19.6619C112.819 21.6975 113.337 22.7343 114.374 22.7343Z" fill="#00A651"/>
<path d="M133.844 23.0926C133.844 23.1321 133.803 23.1732 133.764 23.2127C133.542 23.4202 133.302 23.6069 133.046 23.7706C132.729 24.0045 132.396 24.2158 132.049 24.4028C131.531 24.6825 131.011 24.9607 130.453 25.0808C130.176 25.1272 129.896 25.1541 129.615 25.1614C128.378 25.1614 127.7 24.5624 127.5 23.366C126.949 23.9197 126.299 24.3661 125.585 24.6825C124.867 24.9986 124.268 25.1566 123.75 25.1566C122.833 25.1566 122.075 24.7568 121.436 23.9587C120.798 23.1605 120.479 21.9246 120.479 20.2889C120.479 17.776 120.998 15.8209 122.075 14.4238C123.153 12.9888 124.31 12.2697 125.666 12.2697C126.982 12.2697 128.099 12.5858 129.016 13.1879C129.217 12.0706 129.416 10.9532 129.576 9.83739C129.694 8.91915 129.775 8.042 129.854 7.12376C129.902 6.51234 129.889 5.89765 129.814 5.28887C129.775 4.97278 129.854 4.68988 130.214 4.61086C130.392 4.57636 130.566 4.52339 130.732 4.45281C131.207 4.3327 131.69 4.21258 132.209 4.13672C132.47 4.09303 132.734 4.06663 132.999 4.0577C133.437 4.01661 133.996 3.85698 134.075 4.45597C134.195 5.33312 134.115 6.21185 134.036 7.08899C133.955 7.64636 133.875 8.20479 133.795 8.76426C133.716 9.44228 133.557 10.1203 133.437 10.7983C133.279 11.5964 133.157 12.4341 132.999 13.2322C132.958 13.3523 132.958 13.4313 132.918 13.5483C132.081 17.7775 131.682 20.6492 131.682 22.1649C131.682 22.6042 131.801 22.8444 131.998 22.8444C132.161 22.8197 132.313 22.7502 132.438 22.6437C132.558 22.5647 132.717 22.4857 132.838 22.4051C132.947 22.3113 133.068 22.2306 133.196 22.1649C133.315 22.1253 133.395 22.2059 133.475 22.285C133.555 22.4051 133.633 22.5647 133.715 22.6848C133.764 22.8128 133.884 22.9329 133.844 23.0926ZM127.061 13.9165C126.383 13.9165 125.825 14.5487 125.346 15.8715C124.879 17.109 124.635 18.4194 124.624 19.742C124.624 21.0174 124.703 21.8156 124.902 22.1743C124.964 22.3339 125.074 22.4699 125.217 22.5633C125.36 22.6566 125.53 22.7024 125.7 22.6943C126.332 22.6943 126.938 22.4541 127.535 21.9357C127.576 21.1771 128.009 18.6642 128.812 14.3954C128.178 14.1172 127.581 13.9165 127.061 13.9165Z" fill="#00A651"/>
<path d="M134.562 19.9019C134.562 17.547 135.28 15.6726 136.717 14.3166C138.153 12.9606 139.748 12.281 141.584 12.281C142.7 12.281 143.617 12.5602 144.336 13.1186C144.68 13.37 144.958 13.7011 145.145 14.0834C145.333 14.4658 145.425 14.8881 145.414 15.3139C145.433 16.1367 145.196 16.9452 144.736 17.6276C144.298 18.2311 143.724 18.7231 143.061 19.0643C141.703 19.7423 140.507 20.1406 139.389 20.3002L138.711 20.3808C138.831 22.1746 139.588 23.0533 140.905 23.0533C141.404 23.0386 141.894 22.9162 142.341 22.6946C142.563 22.6124 142.775 22.5065 142.974 22.3785C143.189 22.2543 143.39 22.107 143.573 21.9391C143.731 21.819 143.889 21.7005 144.091 21.8601C144.206 21.9847 144.312 22.1178 144.407 22.2584C144.486 22.3785 144.646 22.4575 144.565 22.6566C144.508 22.7671 144.425 22.8629 144.325 22.9364L143.727 23.4105C143.334 23.7354 142.905 24.0163 142.451 24.2481C141.351 24.8543 140.115 25.1703 138.86 25.1664C137.543 25.1664 136.546 24.6922 135.787 23.7693C134.961 22.8542 134.562 21.5772 134.562 19.9019ZM140.903 17.7478C141.463 17.1156 141.742 16.2716 141.742 15.2744C141.742 14.236 141.426 13.7571 140.824 13.7571C140.107 13.7571 139.547 14.3561 139.149 15.592C138.77 16.6971 138.568 17.8551 138.55 19.0232C139.588 18.824 140.347 18.3847 140.903 17.7478Z" fill="#00A651"/>
<path d="M30 28.5161C29.9996 29.1296 29.7557 29.7179 29.3218 30.1517C28.888 30.5855 28.2998 30.8294 27.6862 30.8298H2.31377C1.70025 30.8294 1.11198 30.5855 0.67815 30.1517C0.244324 29.7179 0.000418643 29.1296 0 28.5161V3.1436C0.000418643 2.53008 0.244324 1.94181 0.67815 1.50798C1.11198 1.07416 1.70025 0.830253 2.31377 0.829834H27.6862C28.2998 0.830253 28.888 1.07416 29.3218 1.50798C29.7557 1.94181 29.9996 2.53008 30 3.1436V28.5161Z" fill="#193D4B"/>
<path d="M26.2516 19.8186C26.2911 18.5416 25.1343 18.2635 24.4563 18.382C23.1397 18.6222 23.2583 19.8186 23.2583 19.8186C23.2583 21.015 22.9801 21.8938 22.3811 22.4517C21.7821 23.0506 20.9445 23.3304 19.8682 23.3304C17.594 23.3304 16.4766 22.1735 16.4766 19.8186C16.4766 21.7736 15.9582 23.2103 14.9609 24.2075L15.1996 24.4462C16.3565 25.4434 17.9132 25.9223 19.8682 25.9223C21.8232 25.9223 23.3784 25.4482 24.5353 24.4462C25.6922 23.4442 26.2516 21.8938 26.2516 19.8186Z" fill="white"/>
<path d="M19.867 26.9616C17.6718 26.9616 15.878 26.3627 14.5204 25.2453C14.4019 25.1663 14.3213 25.0461 14.2043 24.9655L13.4473 24.1753L14.2043 23.4167C15.0024 22.6581 15.4023 21.4222 15.4023 19.7817H17.5153C17.5153 21.5771 18.1475 22.2551 19.8702 22.2551C20.6683 22.2551 21.2657 22.0559 21.6245 21.6972C21.9833 21.3384 22.184 20.6999 22.184 19.8212C22.1034 18.9441 22.6218 17.588 24.2575 17.3083C24.4134 17.2759 24.5726 17.2627 24.7316 17.2688C25.085 17.2628 25.4361 17.3266 25.7648 17.4565C26.0935 17.5864 26.3933 17.7798 26.6471 18.0258C27.0419 18.4495 27.2669 19.0036 27.2793 19.5826V19.7817C27.2793 22.1761 26.5602 24.011 25.1647 25.2074C23.8561 26.3627 22.0607 26.9616 19.867 26.9616ZM16.4359 24.0489C17.313 24.6068 18.4699 24.8865 19.867 24.8865C21.5423 24.8865 22.8983 24.4883 23.8561 23.649C24.7332 22.892 25.2121 21.6956 25.2121 20.014V19.8149C25.2121 19.7359 25.2121 19.6157 25.1726 19.5762C25.0988 19.5221 25.0148 19.4836 24.9257 19.4629C24.8366 19.4423 24.7442 19.44 24.6542 19.4561C24.4962 19.4956 24.3381 19.4956 24.3381 19.7359V19.8607C24.3381 21.3368 23.9383 22.4937 23.1417 23.2523C22.341 24.0468 21.2626 24.444 19.9065 24.444C18.6295 24.444 17.5928 24.0852 16.8342 23.4467C16.6788 23.6316 16.5452 23.8336 16.4359 24.0489Z" fill="white"/>
<path d="M23.2578 11.8409C23.2578 10.6445 22.9797 9.76576 22.3807 9.20786C21.7817 8.60887 20.9441 8.32913 19.8678 8.32913C17.633 8.32913 16.4761 9.48602 16.4761 11.8061C16.4761 9.8511 16.002 8.41447 15 7.41721C15.0806 7.33661 15.158 7.2971 15.1991 7.21808C16.356 6.22082 17.9128 5.74194 19.8678 5.74194C21.8228 5.74194 23.3779 6.21608 24.5348 7.21808C25.6917 8.22008 26.2907 9.73099 26.2907 11.8456C26.3206 12.1946 26.2115 12.5413 25.9872 12.8103C25.7629 13.0794 25.4414 13.249 25.0927 13.2822C24.3752 13.4355 23.2183 13.1179 23.2578 11.8409Z" fill="white"/>
<path d="M24.7751 14.3943C24.4217 14.4003 24.0706 14.3365 23.7419 14.2066C23.4132 14.0767 23.1134 13.8832 22.8596 13.6372C22.5435 13.3211 22.1816 12.7585 22.2274 11.8418C22.2274 11.0042 22.0283 10.3657 21.6695 9.96585C21.2696 9.56758 20.7117 9.40795 19.9136 9.40795C18.2384 9.40795 17.5192 10.086 17.5192 11.8418H15.4394C15.4394 10.2061 15.0395 8.96859 14.243 8.20682L13.4844 7.40869L14.243 6.65008C14.327 6.56095 14.4203 6.48096 14.5211 6.41143C15.8787 5.25455 17.6726 4.69507 19.8678 4.69507C22.063 4.69507 23.8568 5.29406 25.2129 6.41143C26.61 7.60783 27.3275 9.40322 27.3275 11.7976C27.4081 12.6747 26.8881 14.0308 25.2524 14.3105C25.0972 14.3576 24.937 14.3857 24.7751 14.3943ZM19.8678 7.29332C21.2238 7.29332 22.3412 7.69317 23.0982 8.48971C23.8963 9.28784 24.2962 10.4052 24.2962 11.8814C24.2833 11.9765 24.297 12.0733 24.3357 12.1611C24.4095 12.2151 24.4935 12.2535 24.5827 12.2738C24.6718 12.2942 24.7642 12.2962 24.8541 12.2796C24.9742 12.2796 25.2129 12.2401 25.1702 11.9635V11.8434C25.1702 10.048 24.7308 8.81055 23.8142 8.014C22.8564 7.22378 21.5004 6.77651 19.8251 6.77651C18.4675 6.77651 17.3106 7.05626 16.4335 7.57464C16.5536 7.77378 16.6721 7.97291 16.7922 8.20682C17.554 7.61257 18.5908 7.29332 19.8678 7.29332Z" fill="white"/>
<path d="M12.6073 22.4121C12.0083 23.0111 11.1706 23.2892 10.0928 23.2892C7.82009 23.2892 6.70272 22.1324 6.70272 19.7791V11.8405C6.70272 9.48565 7.82009 8.32876 10.0928 8.32876C11.1706 8.32876 12.0083 8.6085 12.6073 9.20749C13.2063 9.80647 13.4844 10.6836 13.4844 11.8405C13.4844 9.8855 14.0028 8.44887 15.0001 7.45161L14.7614 7.21613C13.6045 6.21886 12.0478 5.73999 10.0928 5.73999C8.13776 5.73999 6.5826 6.21412 5.42572 7.21613C4.26883 8.21813 3.71094 9.72903 3.71094 11.8437V19.7822C3.71094 21.8969 4.26883 23.4173 5.42572 24.4098C6.5826 25.4023 8.13934 25.8859 10.0928 25.8859C12.0462 25.8859 13.6045 25.4118 14.7614 24.4098C14.8404 24.3308 14.9195 24.2897 14.9605 24.2106C13.9633 23.2134 13.4844 21.7768 13.4844 19.8218C13.4844 20.9755 13.1652 21.8542 12.6073 22.4121Z" fill="#00A651"/>
<path d="M10.053 26.92C7.85934 26.92 6.06396 26.3226 4.70794 25.2052C3.31082 24.0088 2.63281 22.2135 2.63281 19.7796V11.841C2.63281 9.44663 3.35192 7.61173 4.70794 6.41534C6.06396 5.25845 7.85934 4.69897 10.053 4.69897C12.2467 4.69897 14.042 5.29796 15.3996 6.41534C15.5182 6.49436 15.5988 6.61447 15.7157 6.69508L16.3479 7.4853L15.7157 8.2044C14.9176 8.96143 14.5178 10.1989 14.5178 11.8394H12.4126C12.4126 10.9607 12.2135 10.3238 11.8547 9.92392C11.4564 9.52565 10.897 9.36603 10.0988 9.36603C8.42356 9.36603 7.74555 10.044 7.74555 11.8394V19.778C7.74555 21.5734 8.37773 22.2514 10.0988 22.2514C10.897 22.2514 11.4959 22.0523 11.8547 21.6935C12.2135 21.3347 12.4126 20.6978 12.4126 19.8191H14.5272C14.5272 21.4548 14.9271 22.6923 15.6841 23.4541L16.4427 24.2127L15.6841 24.9698C15.6002 25.0594 15.5069 25.14 15.406 25.21C14.0831 26.3226 12.2878 26.92 10.053 26.92ZM10.053 6.7741C8.37773 6.7741 7.02171 7.17237 6.06396 8.01158C5.14572 8.80181 4.70794 10.0456 4.70794 11.841V19.7796C4.70794 21.575 5.14572 22.8109 6.06396 23.609C7.02171 24.3992 8.33822 24.8465 10.053 24.8465C11.409 24.8465 12.5659 24.5667 13.4446 24.0484C13.3245 23.8492 13.2044 23.609 13.0859 23.4162C12.3273 24.0484 11.2905 24.4134 10.053 24.4134C7.22085 24.4134 5.62776 22.7382 5.62776 19.8301V11.841C5.62776 8.92824 7.26352 7.25771 10.053 7.25771C11.33 7.25771 12.3273 7.5738 13.1254 8.25497C13.2455 8.01633 13.364 7.81561 13.4841 7.6228C12.607 7.05858 11.4501 6.7741 10.053 6.7741Z" fill="#00A651"/>
<path d="M13.4844 11.8399V19.818C13.4844 21.773 13.9585 23.2096 14.9605 24.2069C15.9578 23.2096 16.4762 21.773 16.4762 19.818V11.7988C16.4762 9.8438 16.002 8.40717 15 7.40991C13.9632 8.40875 13.4844 9.88489 13.4844 11.8399Z" fill="#00A651"/>
<path d="M14.9203 25.5239L14.2012 24.9644C13.0085 23.7685 12.4121 22.0532 12.4121 19.8185V11.8404C12.4121 9.60563 13.0443 7.88927 14.2486 6.69445L14.846 6.09546L15.7247 6.69445C16.9206 7.89032 17.5185 9.60563 17.5185 11.8404V19.8185C17.5185 22.0532 16.8863 23.7696 15.6836 24.9644L14.9203 25.5239ZM14.9598 9.28638C14.6512 10.1017 14.5021 10.9688 14.5204 11.8404V19.7789C14.4983 20.6503 14.6476 21.5175 14.9598 22.3314C15.2759 21.6534 15.3991 20.7762 15.3991 19.7789V11.8404C15.457 10.9663 15.3064 10.0909 14.9598 9.28638Z" fill="#00A651"/>
<path d="M13.4845 20.0583C13.4845 20.0583 13.3644 22.4907 14.9606 24.207C15.5928 24.9245 16.5569 25.484 17.9129 25.7227C18.9497 25.9218 19.7083 23.9273 18.6304 23.2098C18.5119 23.1702 16.4763 22.4906 16.4763 19.8181L13.4845 20.0583Z" fill="#00A651"/>
<path d="M18.0329 26.761C17.9259 26.7695 17.8184 26.756 17.7168 26.7215C16.2407 26.4418 15.0838 25.8444 14.2051 24.8866C12.3307 22.8921 12.4508 20.0995 12.4508 19.9794L12.4903 19.0627L17.4371 18.6628L17.5572 19.8197C17.5161 21.6546 18.7931 22.1335 18.9527 22.1746L19.1108 22.2141L19.2309 22.2931C19.6506 22.5987 19.9595 23.0327 20.1106 23.5295C20.2617 24.0262 20.247 24.5587 20.0685 25.0463C19.7477 26.083 18.91 26.761 18.0329 26.761ZM14.6018 21.0161C14.7219 21.7352 15 22.7325 15.7191 23.4895C16.277 24.0885 16.9945 24.4473 17.9523 24.648C18.0213 24.5252 18.0623 24.3886 18.0724 24.2481C18.0724 24.2086 18.0724 24.128 18.0329 24.128C17.384 23.8485 16.8126 23.4158 16.3678 22.8669C15.9229 22.318 15.6179 21.6693 15.4789 20.9766L14.6018 21.0161Z" fill="#00A651"/>
<path d="M70.3726 12.7603C70.4927 12.7208 70.6128 12.7208 70.7329 12.6813C70.9716 12.6418 71.2071 12.6007 71.411 12.5612C72.0326 12.4818 72.6587 12.4417 73.2854 12.441C73.6836 12.441 74.123 12.441 74.5228 12.4015C74.6414 12.4015 74.801 12.362 74.9211 12.4821C74.9782 12.5953 75.0187 12.7161 75.0412 12.8409C75.0807 12.961 75.1203 13.0795 75.1598 13.2392C75.2009 13.3593 75.2009 13.5189 75.2404 13.6785C75.2341 13.7601 75.2477 13.842 75.2799 13.9172C75.2799 13.9583 75.3194 14.1179 75.2799 14.1179C76.7165 12.9199 77.9524 12.3225 78.9149 12.3225C79.3795 12.3137 79.8388 12.4224 80.2502 12.6384C80.6616 12.8545 81.0117 13.1709 81.2682 13.5584C81.8672 14.3565 82.1469 15.5529 82.1469 17.1097C82.1469 19.8612 81.6285 21.8968 80.6313 23.2134C79.6735 24.4888 78.2369 25.2869 76.6406 25.2079C76.1146 25.1898 75.5925 25.1091 75.0855 24.9676C74.8863 24.8886 74.6461 24.8096 74.6461 24.5299C74.6382 24.3577 74.6946 24.1887 74.8042 24.0557C74.9119 23.9794 75.0339 23.9257 75.1629 23.8977C75.283 23.8171 75.4427 23.7396 75.5628 23.6575C75.8411 23.4936 76.0957 23.2926 76.3198 23.0601C76.8706 22.5145 77.305 21.8628 77.5968 21.1446C78.229 19.6289 78.5941 17.7134 78.0709 16.1187C77.9129 15.6446 77.6316 15.1215 77.1527 14.9619C76.7544 14.8038 76.3625 14.9619 76.0369 15.24C75.1993 15.9591 74.9986 17.2345 74.88 18.2729C74.6398 19.9086 74.4059 21.5033 74.0424 23.1391C73.7944 24.1916 73.6076 25.2575 73.4829 26.3316C73.3628 27.2877 73.2048 28.2455 73.1668 29.1637V29.9619C73.1668 30.161 73.1668 30.3601 73.0088 30.4802C72.8096 30.6383 72.5346 30.6383 72.2913 30.6794C71.9156 30.8012 71.5276 30.8812 71.1344 30.918C70.9266 30.9647 70.715 30.9917 70.5022 30.9986C70.2635 31.0381 69.9838 31.0381 69.7436 31.0776C69.5864 31.1267 69.4163 31.1125 69.2695 31.0381L69.2284 30.9986C69.0703 30.8785 69.0703 30.6399 69.0703 30.4407V29.7106C69.0839 29.2282 69.1367 28.7477 69.2284 28.2739C69.309 27.8757 69.3485 27.4363 69.4291 27.038C69.5081 26.5196 69.6282 26.0013 69.7452 25.4829C69.8653 24.8507 70.0249 24.2059 70.145 23.5674C70.145 23.4868 70.1845 23.4093 70.1845 23.3271C70.902 19.9371 71.3019 17.3436 71.3019 15.5087C71.2953 15.1114 71.2138 14.7189 71.0617 14.3518C70.9535 14.0868 70.8201 13.8328 70.6634 13.5932L70.4153 13.2392C70.3645 13.1959 70.3265 13.1397 70.3054 13.0765C70.2842 13.0133 70.2807 12.9455 70.2952 12.8804C70.213 12.8409 70.2936 12.7998 70.3726 12.7603Z" fill="#193D4B"/>
</svg>
