<svg id="Layer_1" data-name="Layer 1" xmlns="http://www.w3.org/2000/svg" viewBox="0 0 216 216"><defs><style>.cls-1{fill:#1b3d4b;}.cls-2{fill:#fff;}.cls-3{fill:#06a64f;}</style></defs><title>appscode</title><path class="cls-1" d="M172.53,136.47a10,10,0,0,1-10,10H52.56a10,10,0,0,1-10-10V26.53a10,10,0,0,1,10-10h110a10,10,0,0,1,10,10Z"/><path class="cls-2" d="M156.28,98.79c.18-5.53-4.84-6.74-7.78-6.23a5.83,5.83,0,0,0-5.18,6.23h0c0,5.18-1.21,9-3.81,11.41-2.59,2.59-6.22,3.8-10.89,3.8-9.85,0-14.69-5-14.69-15.21h0c0,8.47-2.25,14.69-6.57,19l1,1c5,4.32,11.75,6.4,20.22,6.4s15.22-2.08,20.23-6.4,7.43-11.06,7.43-20Z"/><path class="cls-2" d="M128.62,129.73c-9.5,0-17.28-2.59-23.16-7.43-.52-.35-.87-.87-1.38-1.21l-3.29-3.46,3.29-3.28c3.45-3.29,5.18-8.65,5.18-15.74h9.16c0,7.78,2.77,10.72,10.2,10.72,3.46,0,6-.86,7.61-2.42s2.42-4.32,2.42-8.12c-.35-3.81,1.9-9.68,9-10.89a8.06,8.06,0,0,1,2.07-.18A11.59,11.59,0,0,1,158,91a10.22,10.22,0,0,1,2.77,6.74v.86c0,10.38-3.11,18.33-9.16,23.51C145.91,127.14,138.13,129.73,128.62,129.73Zm-14.86-12.62c3.8,2.42,8.81,3.63,14.86,3.63,7.26,0,13.14-1.73,17.29-5.36,3.8-3.28,5.88-8.47,5.88-15.73h0v-.86c0-.35,0-.87-.17-1a2.94,2.94,0,0,0-2.25-.52c-.69.17-1.38.17-1.38,1.21h0V99c0,6.4-1.73,11.41-5.19,14.69q-5.19,5.19-14,5.19c-5.54,0-10-1.56-13.31-4.32A13.29,13.29,0,0,0,113.76,117.11Z"/><path class="cls-2" d="M143.32,64.21c0-5.18-1.21-9-3.81-11.41-2.59-2.59-6.22-3.8-10.89-3.8-9.68,0-14.69,5-14.69,15,0-8.47-2.07-14.69-6.4-19,.35-.34.7-.51.87-.86,5-4.32,11.75-6.4,20.22-6.4s15.22,2.08,20.23,6.4,7.61,10.89,7.61,20a5.76,5.76,0,0,1-5.19,6.23C148.16,71.13,143.15,69.74,143.32,64.21Z"/><path class="cls-2" d="M149.89,75.28a11.59,11.59,0,0,1-8.3-3.29,9.91,9.91,0,0,1-2.77-7.78c0-3.63-.86-6.39-2.42-8.12-1.73-1.73-4.15-2.42-7.6-2.42-7.26,0-10.38,2.94-10.38,10.54h-9c0-7.09-1.73-12.44-5.19-15.73L101,45l3.29-3.28a7.22,7.22,0,0,1,1.21-1c5.88-5,13.66-7.43,23.16-7.43s17.29,2.59,23.17,7.43c6.05,5.19,9.16,13,9.16,23.34.35,3.8-1.9,9.68-9,10.89A8.8,8.8,0,0,1,149.89,75.28ZM128.62,44.51c5.88,0,10.72,1.72,14,5.18,3.45,3.46,5.18,8.3,5.18,14.7,0,.51,0,1,.18,1.21a2.9,2.9,0,0,0,2.24.51c.52,0,1.56-.17,1.39-1.38v-.52c0-7.78-1.91-13.14-5.88-16.59-4.15-3.46-10-5.36-17.29-5.36-5.88,0-10.89,1.21-14.69,3.46.52.86,1,1.72,1.55,2.76C118.6,45.89,123.09,44.51,128.62,44.51Z"/><path class="cls-3" d="M97.16,110c-2.59,2.6-6.22,3.81-10.89,3.81-9.85,0-14.69-5-14.69-15.22V64.21C71.58,54,76.42,49,86.27,49c4.67,0,8.3,1.21,10.89,3.8s3.8,6.4,3.8,11.41h0c0-8.47,2.25-14.69,6.57-19l-1-1c-5-4.32-11.76-6.4-20.23-6.4S71.06,39.84,66,44.16s-7.43,10.89-7.43,20v34.4c0,9.17,2.42,15.74,7.43,20.06s11.76,6.39,20.23,6.39,15.21-2.07,20.23-6.39c.34-.35.69-.52.86-.87-4.32-4.32-6.4-10.54-6.4-19C101,103.8,99.58,107.6,97.16,110Z"/><path class="cls-3" d="M86.1,129.56c-9.51,0-17.29-2.59-23.17-7.44-6-5.18-9-13-9-23.51V64.21c0-10.37,3.11-18.32,9-23.51,5.88-5,13.66-7.43,23.17-7.43s17.28,2.59,23.16,7.43c.52.35.87.87,1.39,1.21l2.76,3.46-2.76,3.11c-3.46,3.29-5.19,8.64-5.19,15.73H96.3c0-3.8-.87-6.57-2.42-8.3-1.73-1.72-4.15-2.42-7.61-2.42-7.26,0-10.2,2.94-10.2,10.72v34.4c0,7.78,2.77,10.72,10.2,10.72,3.46,0,6-.86,7.61-2.42s2.42-4.32,2.42-8.12h9.16c0,7.08,1.73,12.44,5,15.73l3.29,3.28-3.29,3.29a7.21,7.21,0,0,1-1.21,1C103.56,127,95.78,129.56,86.1,129.56Zm0-87.3C78.84,42.26,73,44,68.81,47.62c-4,3.45-5.88,8.81-5.88,16.59v34.4c0,7.78,1.9,13.14,5.88,16.6,4.15,3.46,9.85,5.36,17.29,5.36,5.88,0,10.89-1.21,14.69-3.46-.52-.86-1-1.9-1.55-2.76a20.06,20.06,0,0,1-13.14,4.32c-12.28,0-19.19-7.26-19.19-19.88V64.21c0-12.62,7.09-19.88,19.19-19.88,5.53,0,9.85,1.39,13.31,4.32.52-1,1-1.9,1.55-2.76C97.16,43.47,92.15,42.26,86.1,42.26Z"/><path class="cls-3" d="M101,64.21V98.79c0,8.47,2.08,14.69,6.4,19,4.32-4.32,6.57-10.54,6.57-19V64c0-8.47-2.07-14.69-6.4-19C103,49.35,101,55.74,101,64.21Z"/><path class="cls-3" d="M107.19,123.51l-3.11-2.42q-7.78-7.78-7.78-22.3V64.21c0-9.68,2.76-17.11,8-22.3l2.59-2.59,3.81,2.59q7.77,7.79,7.77,22.3V98.79c0,9.68-2.76,17.11-8,22.3Zm.17-70.36a29.53,29.53,0,0,0-1.9,11.06v34.4a28.92,28.92,0,0,0,1.9,11.07c1.38-2.94,1.9-6.74,1.9-11.07V64.21A23.91,23.91,0,0,0,107.36,53.15Z"/><path class="cls-3" d="M101,99.82s-.51,10.55,6.4,18c2.77,3.11,6.92,5.54,12.79,6.57,4.5.87,7.78-7.78,3.11-10.89-.51-.17-9.33-3.11-9.33-14.69Z"/><path class="cls-3" d="M120.67,128.87h0a3.22,3.22,0,0,1-1.38-.18c-6.4-1.21-11.41-3.8-15.21-8C96,112.1,96.47,100,96.47,99.48l.17-4,21.44-1.73.52,5c-.18,7.95,5.36,10,6.05,10.2l.69.17.52.35a10.35,10.35,0,0,1,3.63,11.92C128.11,125.93,124.48,128.87,120.67,128.87ZM105.8,104c.52,3.12,1.73,7.44,4.85,10.72a17.38,17.38,0,0,0,9.68,5,4.08,4.08,0,0,0,.51-1.72c0-.18,0-.52-.17-.52a19,19,0,0,1-11.06-13.66Z"/><path class="cls-1" d="M34.58,190.3a1.24,1.24,0,0,1-1.25.92,4.1,4.1,0,0,1-1.94-.8.53.53,0,0,1-.29-.4,2.43,2.43,0,0,1,.29-.86c.11-.28.22-.62.34-.91a16.84,16.84,0,0,1,.8-1.83c.34-.74.62-1.42,1-2.16s.8-1.66,1.14-2.52.91-1.82,1.37-2.79l.17-.34c.91-1.89,1.83-3.83,2.74-5.71.68-1.43,1.25-2.91,1.82-4.39a6,6,0,0,0,.63-3c-.11-.74-.74-1.14-1-1.83-.4-1.14,2.28-1.19,2.91-1.31,1-.11,1.94-.23,2.91-.28.74-.06,1.54-.06,2.28-.06a3.69,3.69,0,0,1,1.94.28c.63.4.63,1.43.75,2.12.17,1.14.28,2.22.34,3.36.06.63.06,1.26.06,1.94,0,2,.11,4,.11,6v4.17c0,3.31.28,5.59.86,7,.22.51.45.74.62.74a3.19,3.19,0,0,0,1.26-.34,3.48,3.48,0,0,0,.74-.51c.23-.12.46-.29.69,0s.22.45.34.62.28.35.23.57-.29.35-.46.46l-.69.51a11.51,11.51,0,0,1-1.42.92,6.62,6.62,0,0,1-.86.4,8.36,8.36,0,0,1-3.48.85,4.34,4.34,0,0,1-1.65-.4,2.81,2.81,0,0,1-1.26-.91,7.72,7.72,0,0,1-1.31-4.34v-1.54a7.91,7.91,0,0,1,.11-1.08,1.77,1.77,0,0,0,.06-1.09c-.11-.28-.46-.34-.74-.39a32.48,32.48,0,0,0-5.31.11c-.68.06-1.54,0-2,.63a8.32,8.32,0,0,0-.74,1.77c-.28.68-.57,1.37-.8,2.11-.17.4-.28.8-.45,1.2s-.35,1-.52,1.42A6.63,6.63,0,0,1,34.58,190.3ZM45.65,179l.06-4.68a42.46,42.46,0,0,0-.52-8.33,1.45,1.45,0,0,0-.51.05c-.74,2.06-1.48,3.83-2.11,5.31s-1.37,3-2.17,4.62-1.25,2.68-1.42,3.08l6.67-.05Z"/><path class="cls-1" d="M57.29,173.59c.17-.06.34-.06.52-.12l1-.17a21.79,21.79,0,0,1,2.68-.17,17.45,17.45,0,0,0,1.77-.06c.17,0,.4-.06.57.12a2,2,0,0,1,.17.51c0,.17.11.34.17.57s.06.4.11.63a.68.68,0,0,0,.06.34c0,.06.06.29,0,.29,2-1.72,3.82-2.57,5.19-2.57a4,4,0,0,1,3.37,1.77,8.4,8.4,0,0,1,1.25,5.07c0,3.94-.74,6.85-2.16,8.74a6.76,6.76,0,0,1-5.71,2.85,10.27,10.27,0,0,1-2.23-.34c-.28-.12-.62-.23-.62-.63a1,1,0,0,1,.23-.69,1.32,1.32,0,0,1,.51-.22c.17-.12.4-.23.57-.35a5.12,5.12,0,0,0,1.08-.85,8.34,8.34,0,0,0,1.83-2.74,10.77,10.77,0,0,0,.68-7.19A2.4,2.4,0,0,0,67,176.72a1.56,1.56,0,0,0-1.6.4c-1.19,1-1.48,2.86-1.65,4.34-.34,2.34-.69,4.62-1.2,7a40.39,40.39,0,0,0-.8,4.57c-.17,1.37-.4,2.73-.45,4v1.14c0,.28,0,.57-.23.74a2.19,2.19,0,0,1-1,.29,7.91,7.91,0,0,1-1.65.34,5.77,5.77,0,0,1-.92.11c-.34.06-.74.06-1.08.12a1,1,0,0,1-.69-.06l0-.06c-.23-.17-.23-.51-.23-.8v-1a12,12,0,0,1,.23-2.06c.11-.57.17-1.2.28-1.77.12-.74.29-1.48.46-2.22.17-.92.4-1.83.57-2.74,0-.12.06-.23.06-.34a59.71,59.71,0,0,0,1.59-11.19,4.47,4.47,0,0,0-.34-1.65,6.62,6.62,0,0,0-.57-1.09l-.34-.51a.51.51,0,0,1-.17-.51C57.06,173.7,57.18,173.64,57.29,173.59Z"/><path class="cls-1" d="M107.85,185.51a4.94,4.94,0,0,1-2.23,4.17,6.83,6.83,0,0,1-1.71.85l-1,.34a10.05,10.05,0,0,1-2.34.4,7.79,7.79,0,0,1-4.79-1,2.45,2.45,0,0,1-.86-3.37,3.36,3.36,0,0,1,3.31-1.77c1.43.23,2.12,1.66,2.57,2.8.12.28.17.51.29.8s.4.68.8.57a1.36,1.36,0,0,0,.91-.92,1.49,1.49,0,0,0,.06-.51c0-1.26-1.09-3-3.31-5.31s-3.31-4.1-3.31-5.47A3.5,3.5,0,0,1,98,173.93a8.27,8.27,0,0,1,4.4-1.14,6.6,6.6,0,0,1,3.88.91,2.93,2.93,0,0,1,1.31,2.45c0,1-.8,2.46-2.45,4.34l.74.74a12,12,0,0,1,1.2,1.77A5.4,5.4,0,0,1,107.85,185.51Zm-2.17-9.24c0-1-.63-1.43-1.94-1.43a2.54,2.54,0,0,0-1.54.4c-.4.29-.63.57-.63.86,0,.57.57,1.42,1.77,2.51l.63.51A3.79,3.79,0,0,0,105.68,176.27Z"/><path class="cls-3" d="M119.32,191.33a7.57,7.57,0,0,1-6.22-3.08,12.22,12.22,0,0,1-2.46-8,22.86,22.86,0,0,1,1.72-9,16.3,16.3,0,0,1,4.85-6.62,10.42,10.42,0,0,1,6.73-2.57,9.57,9.57,0,0,1,5.82,1.6,4.74,4.74,0,0,1,2.22,3.88,6.79,6.79,0,0,1-.34,2.11A4.5,4.5,0,0,1,131,171c-.46.57-1,.34-1.6.23s-1.08-.29-1.66-.46a6.62,6.62,0,0,1-2-1c-.57-.4-.34-.85-.23-1.42.06-.4.17-.8.23-1.2s.17-.8.23-1.14c.11-.69-.12-.92-.75-1.15a5.27,5.27,0,0,0-1.65-.22c-1.66,0-3.08,1.42-4.39,4.22a25.44,25.44,0,0,0-1.89,10.44c0,2.74.46,4.68,1.37,5.94a3.93,3.93,0,0,0,3.31,1.82,7.15,7.15,0,0,0,2.46-.46,7.73,7.73,0,0,0,2.39-1.42c.29-.23.52-.46.8-.69a1,1,0,0,1,.46-.34c.23-.06.34.12.51.23a10.79,10.79,0,0,0,.8.74c.23.17.46.46.23.74s-.4.4-.57.63l-.86.86a20.88,20.88,0,0,1-2.28,1.88,12.22,12.22,0,0,1-2.85,1.37A10.52,10.52,0,0,1,119.32,191.33Z"/><path class="cls-3" d="M137.35,191.33a5.35,5.35,0,0,1-4.4-1.94,8.74,8.74,0,0,1-1.59-5.48,12.74,12.74,0,0,1,2.39-7.76,7.83,7.83,0,0,1,6.68-3.25l1.48.06a3.38,3.38,0,0,1,1.54-.34c2.11,0,3.2,2,3.2,6a22.8,22.8,0,0,0,3.37-.45l.62-.17.23,1.59a16.93,16.93,0,0,1-3.59,1l-.8.17a17.1,17.1,0,0,1-3.14,7.42A7.22,7.22,0,0,1,137.35,191.33Zm2.22-3.48c1.14,0,2.17-.74,3.08-2.17a14.37,14.37,0,0,0,1.89-4.62c-2.91,0-4.34-1.08-4.34-3.25a6.16,6.16,0,0,1,.51-2.46l.23-.4a1,1,0,0,0-.4,0c-.17,0-.28,0-.34,0a6,6,0,0,0-1.88,3,16.21,16.21,0,0,0-.92,5.48C137.35,186.37,138.09,187.85,139.57,187.85Z"/><path class="cls-3" d="M167.42,188.36c0,.06-.06.12-.12.18a6.61,6.61,0,0,1-1,.79,12.45,12.45,0,0,1-1.43.92,8.75,8.75,0,0,1-2.28,1,9.73,9.73,0,0,1-1.2.11,2.73,2.73,0,0,1-3-2.57,9.2,9.2,0,0,1-2.74,1.89,6.76,6.76,0,0,1-2.63.68,4.1,4.1,0,0,1-3.31-1.71,8.38,8.38,0,0,1-1.37-5.25c0-3.6.75-6.39,2.29-8.39s3.19-3.08,5.13-3.08a8.63,8.63,0,0,1,4.79,1.31c.29-1.59.58-3.19.8-4.79.17-1.31.29-2.57.4-3.88a13.52,13.52,0,0,0-.05-2.63c-.06-.45.05-.85.57-1a3.64,3.64,0,0,0,.74-.22c.68-.17,1.37-.35,2.11-.46a8.1,8.1,0,0,1,1.14-.11c.63-.06,1.43-.29,1.54.57a16.31,16.31,0,0,1-.06,3.76l-.34,2.4c-.11,1-.34,1.94-.51,2.91-.23,1.14-.4,2.34-.63,3.48-.06.17-.06.29-.11.46a76.43,76.43,0,0,0-1.77,12.32c0,.63.17,1,.45,1a1.29,1.29,0,0,0,.63-.28c.17-.12.4-.23.57-.35a2.73,2.73,0,0,1,.52-.34c.17-.06.28.06.4.17s.22.4.34.57S167.48,188.14,167.42,188.36Zm-9.7-13.12c-1,0-1.77.91-2.46,2.8a16.09,16.09,0,0,0-1,5.53,8.72,8.72,0,0,0,.4,3.48,1.15,1.15,0,0,0,1.14.74,3.91,3.91,0,0,0,2.62-1.08c.06-1.09.69-4.68,1.83-10.79A6.81,6.81,0,0,0,157.72,175.24Z"/><path class="cls-3" d="M168.45,183.8a10.46,10.46,0,0,1,3.08-8,9.79,9.79,0,0,1,7-2.91,6.23,6.23,0,0,1,3.94,1.2,3.78,3.78,0,0,1,1.54,3.14,5.75,5.75,0,0,1-1,3.31,6.93,6.93,0,0,1-2.4,2,17.28,17.28,0,0,1-5.25,1.77l-1,.11c.17,2.57,1.26,3.83,3.14,3.83a4.81,4.81,0,0,0,2-.52,4.37,4.37,0,0,0,.92-.45,4.46,4.46,0,0,0,.85-.63c.23-.17.46-.34.74-.12a5.88,5.88,0,0,1,.46.58c.11.17.34.28.23.57s-.23.28-.34.4l-.86.68a11.4,11.4,0,0,1-7,2.51,5.38,5.38,0,0,1-4.4-2A7.89,7.89,0,0,1,168.45,183.8Zm9.07-3.08a5.22,5.22,0,0,0,1.2-3.54c0-1.48-.46-2.17-1.32-2.17-1,0-1.82.86-2.39,2.63a15.87,15.87,0,0,0-.86,4.9A5.69,5.69,0,0,0,177.52,180.72Z"/><path class="cls-1" d="M76.64,173.59c.17-.06.34-.06.51-.12l1-.17a21.92,21.92,0,0,1,2.68-.17,17.45,17.45,0,0,0,1.77-.06c.17,0,.4-.06.57.12a2,2,0,0,1,.17.51,4.4,4.4,0,0,1,.17.57c.06.17.06.4.12.63a.8.8,0,0,0,.05.34c0,.06.06.29,0,.29,2.06-1.72,3.83-2.57,5.2-2.57a3.93,3.93,0,0,1,3.36,1.77,8.4,8.4,0,0,1,1.26,5.07c0,3.94-.74,6.85-2.17,8.74a6.75,6.75,0,0,1-5.71,2.85,10.08,10.08,0,0,1-2.22-.34c-.29-.12-.63-.23-.63-.63a1,1,0,0,1,.23-.69,1.32,1.32,0,0,1,.51-.22c.17-.12.4-.23.57-.35a5.44,5.44,0,0,0,1.09-.85A8.16,8.16,0,0,0,87,185.57a10.77,10.77,0,0,0,.69-7.19,2.45,2.45,0,0,0-1.31-1.66,1.55,1.55,0,0,0-1.6.4c-1.2,1-1.49,2.86-1.66,4.34-.34,2.34-.68,4.62-1.2,7a40.37,40.37,0,0,0-.79,4.57c-.18,1.37-.4,2.73-.46,4v1.14c0,.28,0,.57-.23.74a2.12,2.12,0,0,1-1,.29,7.91,7.91,0,0,1-1.65.34,5.79,5.79,0,0,1-.91.11c-.35.06-.75.06-1.09.12a1,1,0,0,1-.68-.06l-.06-.06c-.23-.17-.23-.51-.23-.8v-1a13.12,13.12,0,0,1,.23-2.06c.11-.57.17-1.2.29-1.77.11-.74.28-1.48.45-2.22.17-.92.4-1.83.57-2.74,0-.12.06-.23.06-.34A59.06,59.06,0,0,0,78,177.52a4.68,4.68,0,0,0-.34-1.65,7.53,7.53,0,0,0-.58-1.09l-.34-.51a.53.53,0,0,1-.17-.51C76.41,173.7,76.52,173.64,76.64,173.59Z"/></svg>