<svg width="260" height="54" viewBox="0 0 260 54" fill="none" xmlns="http://www.w3.org/2000/svg">
<path d="M73.0014 40.3019C72.9078 40.6394 72.7019 40.9349 72.4178 41.1396C72.1337 41.3444 71.7883 41.4462 71.4386 41.4283C70.5121 41.4283 69.8025 40.8651 69.0196 40.4343C68.9252 40.3853 68.8437 40.3146 68.782 40.2279C68.7203 40.1413 68.6801 40.0411 68.6648 39.9359C68.6648 39.581 68.8788 39.2262 69.0196 38.8686C69.1604 38.511 69.3012 38.0886 69.4476 37.7422C69.7357 36.9656 70.0676 36.2059 70.4417 35.4669C70.8697 34.5432 71.2245 33.69 71.6498 32.7663C72.1482 31.6991 72.6466 30.705 73.0718 29.6378C73.635 28.5114 74.1982 27.3624 74.7783 26.1544C74.8487 26.0136 74.9191 25.8728 74.9923 25.7292C76.1187 23.3834 77.2648 20.9645 78.4025 18.6188C79.2473 16.8419 79.9682 14.9946 80.6778 13.1473C81.103 11.9392 81.6719 10.7312 81.4607 9.44989C81.3171 8.52625 80.537 8.02782 80.2526 7.17457C79.7542 5.76657 83.094 5.68209 83.8768 5.54129C85.0849 5.39768 86.2929 5.25969 87.501 5.18648C88.4246 5.11326 89.4215 5.11326 90.3451 5.11326C91.128 5.11326 92.122 5.04286 92.7613 5.47089C93.5441 5.96651 93.5441 7.24779 93.6849 8.10103C93.8987 9.49053 94.0416 10.89 94.1129 12.294C94.1833 13.0769 94.1833 13.8569 94.1833 14.7102C94.2537 17.1995 94.327 19.686 94.327 22.1754V27.3624C94.327 31.4851 94.6818 34.3292 95.3914 36.0357C95.673 36.6749 95.9546 36.9594 96.1742 36.9594C96.7192 36.9264 97.2514 36.7807 97.7371 36.5313C98.0721 36.3603 98.3827 36.1453 98.6608 35.8921C98.9424 35.7513 99.224 35.5373 99.5056 35.8921C99.7196 36.1061 99.7872 36.4553 99.9336 36.6749C100.08 36.8946 100.288 37.1002 100.215 37.3846C100.142 37.669 99.8576 37.8126 99.652 37.9478L98.8072 38.587C98.2422 39.0038 97.6484 39.3802 97.0303 39.7134C96.6892 39.9093 96.3322 40.0761 95.9631 40.2118C94.6109 40.8748 93.1318 41.2388 91.6264 41.2791C90.9134 41.249 90.2131 41.0796 89.5651 40.7807C88.9507 40.5556 88.4101 40.1659 88.0022 39.6543C86.7942 38.1618 86.5098 36.1005 86.3661 34.2532V32.3327C86.3791 31.88 86.4272 31.429 86.5098 30.9838C86.5802 30.5558 86.7914 30.0573 86.5802 29.6321C86.4394 29.2773 86.017 29.2041 85.6565 29.1337C83.4522 29.0042 81.2411 29.0522 79.0446 29.2773C78.1998 29.3477 77.1269 29.2773 76.558 30.0573C76.1328 30.6205 75.9188 31.5498 75.6344 32.2623C75.2796 33.1071 74.9219 33.9688 74.6375 34.8924C74.4263 35.3908 74.2827 35.8865 74.0743 36.3849C73.8603 36.9481 73.6463 37.5929 73.4323 38.1618C73.3799 38.8905 73.2352 39.6097 73.0014 40.3019ZM86.7998 26.222L86.8702 20.3929C86.8702 15.2762 86.6562 11.7928 86.231 10.0159C86.0153 9.99546 85.7978 10.0194 85.5917 10.0863C84.6681 12.646 83.7416 14.851 82.9616 16.6983C82.1168 18.4752 81.2551 20.3928 80.2611 22.4542C79.3346 24.5155 78.6954 25.7967 78.4842 26.2952L86.7998 26.222V26.222Z" fill="white"/>
<path d="M101.291 19.4759C101.505 19.4055 101.719 19.4055 101.93 19.3351C102.358 19.2647 102.775 19.1914 103.141 19.121C104.249 18.9796 105.364 18.9081 106.481 18.907C107.191 18.907 107.973 18.907 108.683 18.8366C108.897 18.8366 109.181 18.7662 109.395 18.9802C109.497 19.1819 109.569 19.3972 109.61 19.6195C109.68 19.8335 109.75 20.0447 109.821 20.3291C109.894 20.5431 109.894 20.8275 109.964 21.1119C109.953 21.2573 109.977 21.4032 110.035 21.5372C110.035 21.6104 110.105 21.8948 110.035 21.8948C112.594 19.7603 114.797 18.6958 116.512 18.6958C117.339 18.6802 118.158 18.8738 118.891 19.2587C119.624 19.6437 120.248 20.2075 120.705 20.8979C121.772 22.32 122.27 24.4517 122.27 27.2255C122.27 32.1281 121.347 35.7551 119.567 38.1008C117.877 40.3734 115.303 41.7954 112.459 41.6546C111.524 41.6228 110.596 41.4801 109.694 41.2294C109.339 41.0886 108.911 40.9478 108.911 40.4494C108.897 40.1426 108.997 39.8416 109.193 39.6046C109.385 39.4686 109.602 39.3728 109.832 39.323C110.046 39.1794 110.33 39.0414 110.544 38.895C111.04 38.6023 111.493 38.2442 111.893 37.8305C112.875 36.8584 113.649 35.6973 114.169 34.4175C115.295 31.717 115.945 28.304 115.013 25.4627C114.732 24.6179 114.231 23.6858 113.377 23.4014C112.668 23.1198 111.969 23.4014 111.389 23.897C109.897 25.1782 109.539 27.4508 109.328 29.3009C108.9 32.2154 108.483 35.0568 107.835 37.9713C107.394 39.8466 107.061 41.7459 106.839 43.6596C106.625 45.3633 106.34 47.0698 106.275 48.7059V50.128C106.275 50.4828 106.275 50.8376 105.994 51.0516C105.639 51.3332 105.149 51.3332 104.715 51.4064C104.045 51.6187 103.354 51.7566 102.654 51.8176C102.284 51.9007 101.907 51.9487 101.528 51.9612C101.102 52.0316 100.604 52.0316 100.176 52.102C99.8957 52.1879 99.5932 52.1627 99.3311 52.0316L99.2607 51.9612C98.9791 51.7472 98.9791 51.3219 98.9791 50.9671V49.6774C99.0033 48.8179 99.0975 47.9618 99.2607 47.1177C99.4043 46.408 99.4747 45.6252 99.6155 44.9156C99.7592 43.9919 99.9732 43.0683 100.179 42.1446C100.393 41.0182 100.677 39.8693 100.891 38.7316C100.891 38.588 100.962 38.45 100.962 38.3036C102.24 32.2633 102.952 27.6422 102.952 24.3729C102.941 23.665 102.795 22.9657 102.524 22.3116C102.332 21.8394 102.094 21.3867 101.815 20.9599C101.671 20.7487 101.533 20.5347 101.387 20.3207C101.297 20.2429 101.231 20.1425 101.193 20.03C101.156 19.9176 101.15 19.7971 101.176 19.6814C101.007 19.6195 101.15 19.5463 101.291 19.4759Z" fill="white"/>
<path d="M164.271 34.333C164.271 36.4647 163.347 38.1712 161.497 39.5229C160.839 39.9751 160.122 40.3334 159.365 40.5873L158.087 41.0153C157.137 41.2898 156.159 41.4561 155.172 41.5109C153.181 41.6546 150.906 41.3701 149.199 40.2325C147.792 39.2384 147.211 37.6023 148.135 36.0395C148.915 34.6174 150.622 33.5501 152.258 33.8345C154.035 34.1161 154.888 35.8958 155.457 37.3179C155.597 37.6727 155.668 37.9572 155.811 38.312C155.952 38.8104 156.31 39.1568 156.806 39.0244C157.073 38.9461 157.316 38.8018 157.513 38.605C157.709 38.4082 157.854 38.1651 157.932 37.898C157.99 37.6902 158.014 37.4743 158.002 37.2588C158.002 35.6959 156.653 33.491 153.88 30.6468C151.179 27.8055 149.757 25.5302 149.757 23.8237C149.757 22.1172 150.54 20.8387 152.032 19.9151C153.525 18.9914 155.375 18.5071 157.507 18.5071C159.638 18.5071 161.274 18.8619 162.339 19.6335C163.403 20.4051 163.975 21.4104 163.975 22.6888C163.975 23.9673 162.989 25.7414 160.928 28.0786L161.855 29.0023C162.209 29.3571 162.699 30.1287 163.347 31.2044C163.986 32.4125 164.271 33.4093 164.271 34.333ZM161.57 22.8184C161.57 21.6103 160.787 21.0415 159.151 21.0415C158.476 21.0012 157.805 21.1746 157.234 21.5371C156.735 21.8947 156.451 22.2495 156.451 22.6043C156.451 23.314 157.163 24.3812 158.656 25.7329L159.436 26.3722C160.858 25.2345 161.57 24.0264 161.57 22.8184V22.8184Z" fill="white"/>
<path d="M178.557 41.5838C175.431 41.5838 172.801 40.3025 170.81 37.7456C168.749 35.1858 167.754 31.9165 167.754 27.7938C167.706 23.9446 168.431 20.1247 169.886 16.5608C171.171 13.3455 173.25 10.5086 175.929 8.31561C178.557 6.1839 181.33 5.11664 184.315 5.11664C187.3 5.11664 189.716 5.75869 191.567 7.10755C193.417 8.45641 194.337 10.0925 194.337 11.9426C194.335 12.8363 194.192 13.7239 193.912 14.5727C193.732 15.1854 193.446 15.7619 193.067 16.2764C192.504 16.9889 191.859 16.7045 191.077 16.558C190.367 16.4172 189.725 16.2032 189.015 15.9948C188.12 15.7134 187.279 15.2811 186.529 14.7164C185.816 14.2179 186.101 13.6491 186.247 12.9395C186.318 12.441 186.458 11.9454 186.529 11.447C186.599 10.9486 186.74 10.453 186.81 10.0249C186.951 9.18012 186.667 8.89852 185.884 8.60284C185.216 8.40097 184.52 8.30593 183.823 8.32124C181.761 8.32124 179.984 10.0981 178.351 13.5815C176.785 17.0658 176.003 21.4025 176.005 26.5914C176.005 30.0016 176.569 32.4177 177.712 33.9834C178.855 35.5491 180.198 36.2559 181.834 36.2559C182.878 36.2474 183.912 36.0568 184.89 35.6927C185.983 35.2822 186.994 34.6794 187.875 33.913C188.23 33.6314 188.514 33.3498 188.872 33.0682C189.012 32.8717 189.208 32.7224 189.435 32.6402C189.716 32.5698 189.86 32.7838 190.074 32.9218C190.388 33.2483 190.719 33.5567 191.068 33.8454C191.35 34.0594 191.631 34.4086 191.35 34.7691C191.136 35.0507 190.851 35.2675 190.64 35.5519L189.573 36.6192C188.681 37.4668 187.731 38.2506 186.729 38.9649C185.629 39.6844 184.44 40.2562 183.192 40.6658C181.716 41.2534 180.145 41.5645 178.557 41.5838V41.5838Z" fill="white"/>
<path d="M201.02 41.5831C198.674 41.5831 196.897 40.8003 195.546 39.1642C194.267 37.5309 193.558 35.2556 193.558 32.341C193.558 28.5732 194.552 25.3743 196.543 22.6737C198.533 19.9732 201.304 18.6215 204.858 18.6215L206.705 18.6947C207.303 18.4029 207.961 18.2562 208.626 18.2667C211.256 18.2667 212.605 20.756 212.605 25.8023C214.015 25.7152 215.418 25.527 216.801 25.2391L217.581 25.0251L217.862 27.016C216.421 27.6031 214.919 28.0318 213.385 28.2945L212.391 28.5085C211.752 32.0623 210.47 35.1204 208.48 37.7506C206.635 40.2315 204.075 41.5831 201.02 41.5831ZM203.791 37.2465C205.213 37.2465 206.494 36.3229 207.629 34.546C208.735 32.7751 209.529 30.8271 209.975 28.7873C206.351 28.7873 204.574 27.4356 204.574 24.735C204.574 23.6834 204.791 22.6431 205.213 21.6797L205.495 21.1813C205.337 21.1184 205.167 21.0943 204.999 21.1109C204.785 21.1109 204.641 21.1109 204.571 21.1813C203.726 21.7445 202.938 22.9582 202.225 24.9491C201.46 27.1418 201.079 29.45 201.099 31.7722C201.02 35.3992 201.944 37.2465 203.791 37.2465Z" fill="white"/>
<path d="M238.481 37.8866C238.481 37.957 238.408 38.0302 238.337 38.1006C237.942 38.4702 237.514 38.803 237.059 39.0946C236.494 39.5114 235.9 39.8878 235.282 40.221C234.358 40.7195 233.432 41.2151 232.438 41.4291C231.944 41.5118 231.445 41.5598 230.945 41.5727C228.74 41.5727 227.532 40.5054 227.177 38.3737C226.195 39.3603 225.038 40.1557 223.764 40.7195C222.486 41.2827 221.419 41.5643 220.495 41.5643C218.862 41.5643 217.51 40.8518 216.372 39.4297C215.235 38.0077 214.666 35.8056 214.666 32.891C214.666 28.4136 215.592 24.9302 217.51 22.4408C219.431 19.8839 221.492 18.6026 223.908 18.6026C226.254 18.6026 228.245 19.1658 229.878 20.2387C230.236 18.2478 230.59 16.2569 230.875 14.2688C231.086 12.6327 231.23 11.0699 231.37 9.43376C231.456 8.34435 231.433 7.2491 231.3 6.16439C231.23 5.60119 231.37 5.09713 232.012 4.95633C232.329 4.89486 232.639 4.80048 232.936 4.67473C233.781 4.46072 234.643 4.2467 235.566 4.11153C236.032 4.03368 236.502 3.98664 236.974 3.97073C237.754 3.89752 238.751 3.6131 238.892 4.68036C239.106 6.24324 238.962 7.80893 238.822 9.37181C238.679 10.3649 238.536 11.3599 238.393 12.3568C238.253 13.5648 237.968 14.7729 237.754 15.9809C237.473 17.403 237.256 18.8955 236.974 20.3176C236.901 20.5316 236.901 20.6724 236.831 20.8808C235.338 28.4164 234.628 33.533 234.628 36.2336C234.628 37.0164 234.84 37.4445 235.192 37.4445C235.481 37.4003 235.752 37.2764 235.975 37.0868C236.189 36.946 236.473 36.8052 236.687 36.6616C236.883 36.4944 237.097 36.3508 237.326 36.2336C237.537 36.1632 237.681 36.3068 237.822 36.4476C237.965 36.6616 238.103 36.946 238.25 37.16C238.337 37.3881 238.551 37.6022 238.481 37.8866ZM226.395 21.5369C225.186 21.5369 224.192 22.6633 223.339 25.0203C222.507 27.2253 222.071 29.56 222.052 31.9167C222.052 34.1892 222.193 35.6112 222.548 36.2505C222.658 36.5347 222.854 36.7772 223.109 36.9435C223.364 37.1098 223.666 37.1914 223.97 37.1769C225.096 37.1769 226.175 36.7489 227.239 35.8253C227.313 34.4736 228.084 29.9962 229.515 22.3902C228.385 21.8945 227.321 21.5369 226.395 21.5369Z" fill="white"/>
<path d="M239.759 32.201C239.759 28.0051 241.038 24.6654 243.597 22.2493C246.157 19.8331 248.999 18.6223 252.271 18.6223C254.259 18.6223 255.893 19.1197 257.173 20.1147C257.786 20.5626 258.281 21.1525 258.616 21.8338C258.95 22.5151 259.114 23.2674 259.094 24.0261C259.128 25.4923 258.706 26.9328 257.886 28.1488C257.105 29.2239 256.083 30.1007 254.901 30.7085C252.482 31.9166 250.35 32.6262 248.359 32.9106L247.151 33.0542C247.365 36.2504 248.714 37.8161 251.06 37.8161C251.949 37.7899 252.822 37.5718 253.62 37.1768C254.014 37.0305 254.392 36.8417 254.746 36.6136C255.129 36.3925 255.487 36.13 255.813 35.8308C256.095 35.6168 256.376 35.4056 256.737 35.69C256.942 35.912 257.13 36.1493 257.3 36.3996C257.441 36.6136 257.725 36.7544 257.582 37.1093C257.479 37.3061 257.333 37.4767 257.154 37.6077L256.089 38.4525C255.387 39.0314 254.624 39.5319 253.814 39.945C251.855 41.0249 249.653 41.588 247.416 41.5811C245.07 41.5811 243.293 40.7363 241.942 39.0917C240.469 37.4613 239.759 35.1859 239.759 32.201ZM251.057 28.3628C252.054 27.2364 252.552 25.7326 252.552 23.9557C252.552 22.1056 251.989 21.2524 250.916 21.2524C249.638 21.2524 248.641 22.3197 247.931 24.5218C247.256 26.4906 246.895 28.5539 246.864 30.6353C248.714 30.2805 250.066 29.4976 251.057 28.3628Z" fill="white"/>
<path d="M53.4532 49.3306C53.4525 50.4238 53.0179 51.4719 52.2449 52.2449C51.4719 53.0179 50.4238 53.4525 49.3306 53.4532H4.12262C3.02946 53.4525 1.98129 53.0179 1.20831 52.2449C0.43533 51.4719 0.000745928 50.4238 0 49.3306V4.12262C0.000745928 3.02946 0.43533 1.98129 1.20831 1.20831C1.98129 0.43533 3.02946 0.000745928 4.12262 0H49.3306C50.4238 0.000745928 51.4719 0.43533 52.2449 1.20831C53.0179 1.98129 53.4525 3.02946 53.4532 4.12262V49.3306Z" fill="white"/>
<path fill-rule="evenodd" clip-rule="evenodd" d="M42.3024 23.832C42.8881 24.0635 43.5136 24.1771 44.1433 24.1664C44.4317 24.1512 44.7173 24.101 44.9937 24.0172C47.9083 23.5187 48.8347 21.1026 48.6911 19.5397C48.6911 15.2735 47.4127 12.0745 44.9233 9.94281C42.5072 7.95191 39.311 6.88464 35.3996 6.88464C31.4882 6.88464 28.292 7.88151 25.8731 9.94281C25.6934 10.0667 25.5273 10.2092 25.3775 10.368L24.0258 11.7197L25.3775 13.1418C26.7968 14.4991 27.5092 16.704 27.5092 19.6186H31.2151C31.2151 16.49 32.4963 15.2819 35.4813 15.2819C36.9034 15.2819 37.8974 15.5664 38.6099 16.276C39.2491 16.9884 39.6039 18.1261 39.6039 19.6186C39.5222 21.2519 40.1671 22.2543 40.7303 22.8175C41.1825 23.2558 41.7167 23.6005 42.3024 23.832ZM25.8735 43.5005C28.2924 45.4914 31.4886 46.5586 35.4 46.5586C39.3086 46.5586 42.5076 45.4914 44.8392 43.4329C47.3257 41.3012 48.607 38.0318 48.607 33.7656V33.4107C48.5849 32.3792 48.1839 31.3919 47.4806 30.637C47.0284 30.1987 46.4942 29.854 45.9085 29.6225C45.3228 29.3911 44.6973 29.2774 44.0676 29.2881C43.7842 29.2772 43.5005 29.3009 43.2228 29.3585C40.3083 29.857 39.3846 32.2731 39.5282 33.836C39.5282 35.4016 39.1706 36.5393 38.5314 37.1785C37.8922 37.8178 36.8277 38.1726 35.4056 38.1726C32.3362 38.1726 31.2098 36.9645 31.2098 33.7656H27.4448C27.4448 36.6886 26.7324 38.8907 25.3103 40.2423L23.9614 41.594L25.3103 43.002C25.4123 43.0724 25.4989 43.1596 25.5854 43.2468L25.5854 43.2468C25.6756 43.3377 25.7657 43.4286 25.8735 43.5005Z" fill="#193D4B"/>
<path d="M22.4634 38.4554C21.3962 39.5227 19.9037 40.0183 17.9832 40.0183C13.9338 40.0183 11.9429 37.957 11.9429 33.764V19.6193C11.9429 15.4234 13.9338 13.3621 17.9832 13.3621C19.9037 13.3621 21.3962 13.8605 22.4634 14.9278C23.5307 15.9951 24.0263 17.5579 24.0263 19.6193C24.0263 16.1359 24.9499 13.5761 26.7268 11.7992L26.3016 11.3797C24.2403 9.60276 21.4666 8.74951 17.9832 8.74951C14.4998 8.74951 11.7288 9.59431 9.66753 11.3797C7.60623 13.165 6.61218 15.8571 6.61218 19.6249V33.7696C6.61218 37.5374 7.60623 40.2464 9.66753 42.0149C11.7288 43.7833 14.5026 44.645 17.9832 44.645C21.4637 44.645 24.2403 43.8002 26.3016 42.0149C26.4424 41.8741 26.5832 41.8008 26.6564 41.66C24.8795 39.8832 24.0263 37.3234 24.0263 33.84C24.0263 35.8957 23.4575 37.4614 22.4634 38.4554Z" fill="#00A651"/>
<path d="M17.9126 46.4865C14.004 46.4865 10.8051 45.4221 8.38893 43.4311C5.89959 41.2994 4.69153 38.1005 4.69153 33.7638V19.6191C4.69153 15.3529 5.97281 12.0835 8.38893 9.95178C10.8051 7.89047 14.004 6.89362 17.9126 6.89362C21.8212 6.89362 25.0202 7.96087 27.4391 9.95178C27.6503 10.0926 27.794 10.3066 28.0023 10.4502L29.1287 11.8582L28.0023 13.1395C26.5803 14.4884 25.8678 16.6933 25.8678 19.6163H22.1169C22.1169 18.0506 21.7621 16.9157 21.1229 16.2033C20.4132 15.4937 19.4164 15.2092 17.9943 15.2092C15.0093 15.2092 13.8013 16.4173 13.8013 19.6163V33.761C13.8013 36.96 14.9277 38.1681 17.9943 38.1681C19.4164 38.1681 20.4836 37.8132 21.1229 37.174C21.7621 36.5348 22.1169 35.3999 22.1169 33.8342H25.8847C25.8847 36.7488 26.5972 38.9537 27.946 40.311L29.2977 41.6627L27.946 43.0116C27.7964 43.1713 27.6303 43.3148 27.4504 43.4396C25.0934 45.4221 21.8944 46.4865 17.9126 46.4865ZM17.9126 10.591C14.9277 10.591 12.5115 11.3006 10.8051 12.7959C9.16896 14.2039 8.38893 16.4201 8.38893 19.6191V33.7638C8.38893 36.9628 9.16896 39.1649 10.8051 40.587C12.5115 41.995 14.8573 42.7919 17.9126 42.7919C20.3288 42.7919 22.3901 42.2935 23.9558 41.3698C23.7417 41.015 23.5277 40.587 23.3165 40.2434C21.9648 41.3698 20.1176 42.0203 17.9126 42.0203C12.8664 42.0203 10.0278 39.0354 10.0278 33.8539V19.6191C10.0278 14.4292 12.9424 11.4527 17.9126 11.4527C20.188 11.4527 21.9648 12.0159 23.3869 13.2296C23.6009 12.8044 23.8121 12.4468 24.0262 12.1032C22.4633 11.0979 20.402 10.591 17.9126 10.591V10.591Z" fill="#00A651"/>
<path d="M24.026 19.619V33.8341C24.026 37.3175 24.8708 39.8773 26.6561 41.6542C28.433 39.8773 29.3567 37.3175 29.3567 33.8341V19.5458C29.3567 16.0624 28.5119 13.5027 26.7265 11.7258C24.8792 13.5055 24.026 16.1356 24.026 19.619Z" fill="#00A651"/>
<path d="M26.5858 44.0001L25.3045 43.0032C23.1794 40.8724 22.1168 37.8162 22.1168 33.8343V19.6192C22.1168 15.6374 23.2432 12.5792 25.389 10.4503L26.4535 9.38306L28.0191 10.4503C30.1499 12.5811 31.2153 15.6374 31.2153 19.6192V33.8343C31.2153 37.8162 30.0889 40.8743 27.9459 43.0032L26.5858 44.0001ZM26.6562 15.0686C26.1064 16.5213 25.8406 18.0662 25.8734 19.6192V33.7639C25.834 35.3165 26.1 36.8617 26.6562 38.3118C27.2194 37.1037 27.439 35.5408 27.439 33.7639V19.6192C27.5421 18.0617 27.2738 16.502 26.6562 15.0686V15.0686Z" fill="#00A651"/>
<path d="M24.0259 34.2622C24.0259 34.2622 23.8119 38.596 26.656 41.6542C27.7824 42.9327 29.5002 43.9295 31.9163 44.3547C33.7636 44.7095 35.1153 41.1558 33.1948 39.8773C32.9836 39.8069 29.3566 38.596 29.3566 33.8342L24.0259 34.2622Z" fill="#00A651"/>
<path d="M32.1306 46.2022C31.9401 46.2172 31.7484 46.1932 31.5674 46.1318C28.9373 45.6333 26.876 44.5689 25.3103 42.8624C21.9705 39.3086 22.1845 34.3327 22.1845 34.1187L22.2549 32.4855L31.069 31.773L31.283 33.8343C31.2098 37.1037 33.4851 37.9569 33.7695 38.0302L34.0511 38.1006L34.2652 38.2414C35.0131 38.7859 35.5633 39.5591 35.8326 40.4442C36.1019 41.3293 36.0756 42.278 35.7576 43.1468C35.186 44.9941 33.6935 46.2022 32.1306 46.2022ZM26.0171 35.966C26.2311 37.2473 26.7267 39.0242 28.008 40.3731C29.0021 41.4403 30.2805 42.0796 31.987 42.4372C32.1099 42.2183 32.1829 41.9751 32.201 41.7247C32.201 41.6543 32.201 41.5107 32.1306 41.5107C30.9744 41.0127 29.9564 40.2416 29.1637 39.2636C28.3711 38.2856 27.8277 37.1299 27.58 35.8956L26.0171 35.966Z" fill="#00A651"/>
<path d="M125.387 19.4759C125.601 19.4055 125.815 19.4055 126.029 19.3351C126.455 19.2647 126.874 19.1914 127.238 19.121C128.345 18.9797 129.461 18.9082 130.577 18.907C131.287 18.907 132.07 18.907 132.782 18.8366C132.993 18.8366 133.278 18.7662 133.492 18.9802C133.594 19.1819 133.666 19.3972 133.706 19.6195C133.776 19.8335 133.847 20.0447 133.917 20.3291C133.99 20.5431 133.99 20.8275 134.061 21.1119C134.05 21.2573 134.074 21.4032 134.131 21.5372C134.131 21.6104 134.201 21.8948 134.131 21.8948C136.691 19.7603 138.893 18.6958 140.608 18.6958C141.436 18.6802 142.254 18.8738 142.987 19.2587C143.72 19.6437 144.344 20.2075 144.801 20.8979C145.868 22.32 146.367 24.4517 146.367 27.2255C146.367 32.1281 145.443 35.7551 143.666 38.1008C141.96 40.3734 139.4 41.7954 136.556 41.6546C135.618 41.6223 134.688 41.4786 133.785 41.2266C133.43 41.0858 133.002 40.945 133.002 40.4466C132.988 40.1398 133.088 39.8387 133.283 39.6018C133.475 39.4658 133.693 39.37 133.923 39.3202C134.137 39.1766 134.421 39.0386 134.635 38.8921C135.131 38.6002 135.585 38.2421 135.984 37.8277C136.965 36.8556 137.739 35.6945 138.259 34.4147C139.386 31.7142 140.036 28.3012 139.104 25.4598C138.823 24.615 138.321 23.6829 137.468 23.3985C136.758 23.1169 136.06 23.3985 135.48 23.8942C133.987 25.1754 133.63 27.4479 133.419 29.298C132.991 32.2126 132.574 35.0539 131.926 37.9685C131.484 39.8438 131.151 41.743 130.929 43.6568C130.715 45.3605 130.434 47.067 130.366 48.7031V50.1251C130.366 50.48 130.366 50.8348 130.084 51.0488C129.73 51.3304 129.24 51.3304 128.806 51.4036C128.137 51.6207 127.445 51.7633 126.745 51.8288C126.375 51.9119 125.997 51.96 125.618 51.9724C125.193 52.0428 124.695 52.0428 124.267 52.1132C123.987 52.2007 123.684 52.1754 123.422 52.0428L123.349 51.9724C123.067 51.7584 123.067 51.3332 123.067 50.9784V49.6774C123.091 48.8179 123.185 47.9618 123.349 47.1177C123.492 46.408 123.563 45.6252 123.706 44.9156C123.847 43.9919 124.061 43.0683 124.269 42.1446C124.483 41.0182 124.768 39.8693 124.982 38.7316C124.982 38.588 125.052 38.45 125.052 38.3036C126.331 32.2633 127.043 27.6422 127.043 24.3729C127.031 23.665 126.886 22.9657 126.615 22.3116C126.422 21.8394 126.185 21.3867 125.906 20.9599L125.463 20.3291C125.373 20.2521 125.305 20.1518 125.268 20.0392C125.23 19.9266 125.224 19.8058 125.249 19.6899C125.103 19.6195 125.247 19.5463 125.387 19.4759Z" fill="white"/>
</svg>
