<svg id="Layer_1" data-name="Layer 1" xmlns="http://www.w3.org/2000/svg" viewBox="0 0 1279 639"><defs><style>.cls-1{fill:#193d4b;}.cls-2{fill:#00a651;}.cls-3{fill:#fff;}</style></defs><title>appscode-1280x640</title><path class="cls-1" d="M293.49,497a5.86,5.86,0,0,1-5.95,4.33c-3.52,0-6.22-2.17-9.2-3.79a2.54,2.54,0,0,1-1.35-1.9c0-1.35.81-2.7,1.35-4.06s1.08-3,1.62-4.33a84.78,84.78,0,0,1,3.79-8.66c1.63-3.52,3-6.76,4.6-10.28,1.9-4.06,3.79-7.85,5.41-11.91,2.17-4.33,4.33-8.66,6.5-13.26l.81-1.62c4.33-8.94,8.66-18.14,13-27.07,3.25-6.76,6-13.8,8.66-20.84,1.63-4.6,3.79-9.2,3-14.07-.54-3.52-3.52-5.41-4.6-8.66-1.9-5.41,10.82-5.68,13.8-6.22,4.6-.55,9.2-1.09,13.8-1.36,3.52-.27,7.31-.27,10.83-.27,3,0,6.76-.27,9.2,1.35,3,1.9,3,6.77,3.52,10a159.67,159.67,0,0,1,1.62,16c.27,3,.27,5.95.27,9.2.27,9.47.54,18.94.54,28.41v19.76c0,15.7,1.36,26.52,4.06,33,1.09,2.43,2.17,3.52,3,3.52a15,15,0,0,0,5.95-1.63,16.06,16.06,0,0,0,3.52-2.43c1.09-.54,2.17-1.36,3.25,0,.81.81,1.08,2.16,1.62,3s1.36,1.63,1.09,2.71-1.36,1.62-2.17,2.16l-3.25,2.44a57.66,57.66,0,0,1-6.76,4.33,28.48,28.48,0,0,1-4.06,1.9c-6,2.7-11.37,4-16.51,4a20.88,20.88,0,0,1-7.85-1.89,13.63,13.63,0,0,1-5.95-4.33c-4.6-5.68-5.69-13.53-6.23-20.57v-7.31a33.34,33.34,0,0,1,.54-5.14c.28-1.62,1.09-3.52.28-5.14-.55-1.35-2.17-1.62-3.52-1.89a155.64,155.64,0,0,0-25.17.54c-3.25.27-7.31,0-9.47,3-1.63,2.17-2.44,5.69-3.52,8.39a107.09,107.09,0,0,0-3.79,10c-.81,1.89-1.35,3.79-2.17,5.68-.81,2.17-1.62,4.6-2.43,6.77A32.83,32.83,0,0,1,293.49,497ZM346,443.4l.27-22.19c0-19.49-.81-32.75-2.44-39.51a6,6,0,0,0-2.43.27c-3.52,9.74-7,18.13-10,25.17-3.24,6.76-6.49,14.07-10.28,21.92-3.52,7.84-6,12.72-6.77,14.61L346,443.4Z"/><path class="cls-1" d="M401.21,417.69c.81-.27,1.62-.27,2.43-.54,1.63-.27,3.25-.54,4.6-.81a100.6,100.6,0,0,1,12.72-.82c2.71,0,5.69,0,8.39-.27.81,0,1.9-.27,2.71.55a8.58,8.58,0,0,1,.81,2.43c.27.81.54,1.62.81,2.71.27.81.27,1.89.54,3a3.44,3.44,0,0,0,.27,1.63c0,.27.28,1.35,0,1.35,9.75-8.12,18.14-12.18,24.63-12.18a18.75,18.75,0,0,1,16,8.39c4.06,5.42,6,13.53,6,24.09,0,18.67-3.51,32.48-10.28,41.41-6.5,8.66-16.24,14.07-27.06,13.53a44.84,44.84,0,0,1-10.56-1.63c-1.35-.54-3-1.08-3-3a4.73,4.73,0,0,1,1.09-3.25,6.67,6.67,0,0,1,2.43-1.08c.81-.54,1.9-1.09,2.71-1.63a24,24,0,0,0,5.14-4.06c3.79-3.51,6.5-8.12,8.66-13,4.33-10.28,6.77-23.27,3.25-34.1-1.08-3.24-3-6.76-6.23-7.85-2.7-1.08-5.41,0-7.57,1.9-5.69,4.87-7,13.53-7.85,20.57-1.63,11.09-3.25,21.92-5.69,33a191,191,0,0,0-3.78,21.66c-.82,6.49-1.9,13-2.17,19.21v5.41c0,1.36,0,2.71-1.08,3.52-1.35,1.08-3.25,1.08-4.87,1.35a36.34,36.34,0,0,1-7.85,1.63,23.74,23.74,0,0,1-4.33.54c-1.63.27-3.52.27-5.14.54a4.42,4.42,0,0,1-3.25-.27l-.27-.27c-1.08-.81-1.08-2.44-1.08-3.79v-4.87a59.62,59.62,0,0,1,1.08-9.74c.54-2.71.81-5.69,1.35-8.39.54-3.52,1.35-7,2.17-10.56.81-4.33,1.89-8.66,2.7-13,0-.54.27-1.08.27-1.62,4.87-23,7.58-40.6,7.58-53.05a21.44,21.44,0,0,0-1.62-7.84,31,31,0,0,0-2.71-5.15l-1.62-2.43a2.49,2.49,0,0,1-.81-2.44C400.12,418.23,400.67,418,401.21,417.69Z"/><path class="cls-1" d="M641,474.25c0,8.12-3.52,14.62-10.56,19.76a32.49,32.49,0,0,1-8.12,4.06l-4.87,1.62a50.06,50.06,0,0,1-11.09,1.9c-7.58.54-16.24-.54-22.74-4.87-5.41-3.79-7.57-10-4.06-16,3-5.41,9.48-9.47,15.7-8.39,6.77,1.08,10,7.85,12.18,13.26.54,1.35.81,2.43,1.35,3.79.54,1.89,1.9,3.25,3.79,2.7a6.31,6.31,0,0,0,4.33-4.33,7.48,7.48,0,0,0,.27-2.43c0-6-5.14-14.35-15.69-25.17-10.29-10.83-15.7-19.49-15.7-26s3-11.37,8.66-14.89,12.72-5.41,20.84-5.41,14.34,1.35,18.4,4.33,6.23,6.77,6.23,11.64-3.79,11.64-11.64,20.57l3.52,3.51c1.35,1.36,3.24,4.34,5.68,8.39C639.91,467,641,470.73,641,474.25ZM630.7,430.41c0-4.6-3-6.77-9.2-6.77a12.26,12.26,0,0,0-7.3,1.9c-1.9,1.35-3,2.7-3,4.06,0,2.7,2.71,6.76,8.39,11.91l3,2.43C628,439.61,630.7,435,630.7,430.41Z"/><path class="cls-2" d="M695.39,501.86c-11.91,0-21.93-4.87-29.5-14.62-7.85-9.74-11.64-22.19-11.64-37.89s2.71-29.77,8.12-42.76,13-23.27,23-31.39S705.94,363,717.31,363s20.57,2.44,27.6,7.58S755.47,382,755.47,389a32.13,32.13,0,0,1-1.63,10c-.81,2.16-1.62,4.6-3.24,6.49-2.17,2.71-4.61,1.63-7.58,1.08-2.71-.54-5.14-1.35-7.85-2.16a31.42,31.42,0,0,1-9.47-4.87c-2.71-1.9-1.63-4.06-1.09-6.77.28-1.89.82-3.79,1.09-5.68s.81-3.79,1.08-5.41c.54-3.25-.54-4.33-3.52-5.42a25,25,0,0,0-7.85-1.08c-7.85,0-14.61,6.77-20.84,20q-8.93,19.89-8.93,49.52c0,13,2.17,22.2,6.5,28.15s9.47,8.66,15.7,8.66a34,34,0,0,0,11.63-2.17,37.14,37.14,0,0,0,11.37-6.76c1.35-1.08,2.43-2.17,3.79-3.25a4.58,4.58,0,0,1,2.16-1.62c1.09-.27,1.63.54,2.44,1.08a43.59,43.59,0,0,0,3.79,3.52c1.08.81,2.16,2.16,1.08,3.52-.81,1.08-1.89,1.89-2.71,3l-4.06,4.06a97.07,97.07,0,0,1-10.82,8.93,57.48,57.48,0,0,1-13.53,6.5A49.66,49.66,0,0,1,695.39,501.86Z"/><path class="cls-2" d="M780.91,501.86c-8.93,0-15.7-3-20.84-9.2-4.87-6.23-7.58-14.89-7.58-26,0-14.34,3.79-26.52,11.37-36.8s18.13-15.43,31.66-15.43l7,.27a16.12,16.12,0,0,1,7.3-1.62c10,0,15.16,9.47,15.16,28.69a113.3,113.3,0,0,0,16-2.17l3-.81,1.09,7.58a82.48,82.48,0,0,1-17,4.87l-3.79.81c-2.44,13.53-7.31,25.17-14.89,35.18C802.29,496.72,792.54,501.86,780.91,501.86Zm10.55-16.51c5.41,0,10.29-3.52,14.62-10.29A69.45,69.45,0,0,0,815,453.14c-13.81,0-20.57-5.14-20.57-15.42a29,29,0,0,1,2.43-11.64l1.09-1.89a3.94,3.94,0,0,0-1.9-.28c-.81,0-1.35,0-1.62.28-3.25,2.16-6.23,6.76-8.93,14.34a76.75,76.75,0,0,0-4.33,26C780.91,478.31,784.42,485.35,791.46,485.35Z"/><path class="cls-2" d="M923.53,487.78c0,.27-.27.55-.54.82a33.51,33.51,0,0,1-4.87,3.78,57.85,57.85,0,0,1-6.77,4.34c-3.52,1.89-7,3.78-10.82,4.6a40.56,40.56,0,0,1-5.69.54c-8.39,0-13-4.06-14.34-12.18a42.91,42.91,0,0,1-13,8.93c-4.87,2.16-8.93,3.25-12.45,3.25-6.22,0-11.37-2.71-15.7-8.12s-6.49-13.8-6.49-24.9c0-17,3.52-30.31,10.82-39.78,7.31-9.75,15.16-14.62,24.36-14.62,8.93,0,16.51,2.17,22.73,6.23,1.36-7.58,2.71-15.16,3.79-22.74.81-6.22,1.36-12.17,1.9-18.4a63.51,63.51,0,0,0-.27-12.45c-.27-2.16.27-4.06,2.7-4.6a17.36,17.36,0,0,0,3.52-1.08c3.25-.81,6.5-1.63,10-2.17a40.86,40.86,0,0,1,5.42-.54c3-.27,6.76-1.35,7.3,2.71.82,6,.28,11.91-.27,17.86l-1.62,11.37c-.54,4.6-1.62,9.2-2.44,13.8-1.08,5.41-1.89,11.09-3,16.51-.27.81-.27,1.35-.54,2.16-5.69,28.69-8.39,48.18-8.39,58.46,0,3,.81,4.6,2.16,4.6a6,6,0,0,0,3-1.35c.81-.54,1.89-1.09,2.7-1.63a13.05,13.05,0,0,1,2.44-1.62c.81-.27,1.35.27,1.89.81.55.81,1.09,1.9,1.63,2.71C923,485.89,923.8,486.7,923.53,487.78Zm-46-62.24c-4.6,0-8.39,4.33-11.63,13.26A76.08,76.08,0,0,0,861,465.05c0,8.66.55,14.07,1.9,16.51a5.51,5.51,0,0,0,5.41,3.52c4.33,0,8.39-1.63,12.45-5.14.27-5.15,3.25-22.2,8.66-51.15C885.1,426.89,881,425.54,877.52,425.54Z"/><path class="cls-2" d="M928.4,466.13c0-16,4.87-28.68,14.62-37.89s20.56-13.8,33-13.8q11.37,0,18.68,5.69A17.83,17.83,0,0,1,1002,435a26.87,26.87,0,0,1-4.6,15.7,32.08,32.08,0,0,1-11.36,9.74c-9.2,4.6-17.32,7.31-24.9,8.39l-4.6.54c.81,12.18,6,18.13,14.88,18.13a23.51,23.51,0,0,0,9.75-2.43,21.91,21.91,0,0,0,4.33-2.17,22.78,22.78,0,0,0,4.06-3c1.08-.82,2.16-1.63,3.51-.55a23.58,23.58,0,0,1,2.17,2.71c.54.81,1.62,1.35,1.08,2.71-.27.81-1.08,1.35-1.62,1.89L990.65,490a47.67,47.67,0,0,1-8.66,5.68,50.17,50.17,0,0,1-24.36,6.23c-8.93,0-15.7-3.25-20.84-9.48C931.11,486.16,928.4,477.5,928.4,466.13Zm43-14.61c3.79-4.33,5.69-10,5.69-16.78,0-7-2.17-10.28-6.23-10.28-4.87,0-8.66,4.06-11.36,12.44a75.23,75.23,0,0,0-4.06,23.28C962.5,458.83,967.64,455.85,971.43,451.52Z"/><path class="cls-1" d="M493,417.69c.81-.27,1.63-.27,2.44-.54,1.62-.27,3.24-.54,4.6-.81a100.6,100.6,0,0,1,12.72-.82c2.7,0,5.68,0,8.39-.27.81,0,1.89-.27,2.7.55a8.31,8.31,0,0,1,.82,2.43c.27.81.54,1.62.81,2.71.27.81.27,1.89.54,3a3.44,3.44,0,0,0,.27,1.63c0,.27.27,1.35,0,1.35,9.74-8.12,18.13-12.18,24.63-12.18a18.73,18.73,0,0,1,16,8.39c4.06,5.42,6,13.53,6,24.09,0,18.67-3.52,32.48-10.29,41.41-6.49,8.66-16.23,14.07-27.06,13.53a44.68,44.68,0,0,1-10.55-1.63c-1.36-.54-3-1.08-3-3a4.72,4.72,0,0,1,1.08-3.25,6.72,6.72,0,0,1,2.44-1.08c.81-.54,1.89-1.09,2.7-1.63a24,24,0,0,0,5.15-4.06c3.78-3.51,6.49-8.12,8.66-13,4.33-10.28,6.76-23.27,3.24-34.1-1.08-3.24-3-6.76-6.22-7.85-2.71-1.08-5.41,0-7.58,1.9-5.68,4.87-7,13.53-7.85,20.57-1.62,11.09-3.24,21.92-5.68,33a191,191,0,0,0-3.79,21.66c-.81,6.49-1.89,13-2.16,19.21v5.41c0,1.36,0,2.71-1.09,3.52-1.35,1.08-3.24,1.08-4.87,1.35a36.09,36.09,0,0,1-7.85,1.63,23.63,23.63,0,0,1-4.33.54c-1.62.27-3.51.27-5.14.54a4.43,4.43,0,0,1-3.25-.27l-.27-.27c-1.08-.81-1.08-2.44-1.08-3.79v-4.87A59.62,59.62,0,0,1,485.1,523c.54-2.71.81-5.69,1.36-8.39.54-3.52,1.35-7,2.16-10.56.81-4.33,1.9-8.66,2.71-13,0-.54.27-1.08.27-1.62,4.87-23,7.58-40.6,7.58-53.05a21.47,21.47,0,0,0-1.63-7.84,31,31,0,0,0-2.7-5.15l-1.63-2.43a2.51,2.51,0,0,1-.81-2.44C491.87,418.23,492.41,418,493,417.69Z"/><path class="cls-1" d="M753,306.43a17.52,17.52,0,0,1-17.51,17.51h-192A17.52,17.52,0,0,1,526,306.43v-192A17.52,17.52,0,0,1,543.5,96.91h192A17.52,17.52,0,0,1,753,114.42Z"/><path class="cls-3" d="M724.64,240.62c.3-9.67-8.46-11.78-13.59-10.87-10,1.81-9.06,10.87-9.06,10.87h0c0,9-2.11,15.69-6.64,19.92-4.53,4.53-10.87,6.64-19,6.64-17.21,0-25.66-8.75-25.66-26.56h0c0,14.79-3.92,25.66-11.47,33.2l1.81,1.82c8.75,7.54,20.53,11.17,35.32,11.17s26.57-3.63,35.32-11.17,13-19.33,13-35Z"/><path class="cls-3" d="M676.33,294.66c-16.6,0-30.19-4.53-40.45-13-.91-.6-1.51-1.51-2.42-2.11l-5.73-6,5.73-5.73c6-5.74,9.06-15.1,9.06-27.48h16c0,13.59,4.83,18.72,17.81,18.72,6,0,10.57-1.51,13.29-4.23s4.22-7.54,4.22-14.18c-.6-6.65,3.32-16.91,15.7-19a14.34,14.34,0,0,1,3.62-.31A20.29,20.29,0,0,1,727.65,227a17.86,17.86,0,0,1,4.84,11.77v1.51c0,18.12-5.44,32-16,41.06C706.52,290.13,692.94,294.66,676.33,294.66Zm-26-22c6.64,4.22,15.4,6.34,26,6.34,12.68,0,22.95-3,30.19-9.36,6.64-5.74,10.27-14.8,10.27-27.47h0v-1.51c0-.61,0-1.51-.31-1.82a5.12,5.12,0,0,0-3.92-.9c-1.21.3-2.42.3-2.42,2.11h0v.91c0,11.17-3,19.92-9,25.66q-9.06,9.06-24.46,9.06c-9.66,0-17.51-2.72-23.24-7.55A23.36,23.36,0,0,0,650.37,272.62Z"/><path class="cls-3" d="M702,180.24c0-9.06-2.11-15.7-6.64-19.93-4.53-4.53-10.87-6.64-19-6.64-16.9,0-25.66,8.75-25.66,26.26,0-14.79-3.62-25.66-11.17-33.21.6-.6,1.21-.9,1.51-1.5,8.75-7.55,20.53-11.18,35.32-11.18s26.57,3.63,35.32,11.18,13.29,19,13.29,35c0,0,.9,9.35-9.06,10.86C710.45,192.31,701.69,189.9,702,180.24Z"/><path class="cls-3" d="M713.47,199.56a20.33,20.33,0,0,1-14.5-5.74c-2.41-2.41-5.13-6.64-4.83-13.58,0-6.34-1.51-11.17-4.22-14.19-3-3-7.25-4.23-13.29-4.23-12.68,0-18.11,5.13-18.11,18.42h-15.7c0-12.38-3-21.74-9.06-27.48l-5.73-6,5.73-5.73a12.79,12.79,0,0,1,2.12-1.81c10.26-8.76,23.85-13,40.45-13s30.19,4.52,40.46,13c10.56,9,16,22.64,16,40.75.6,6.65-3.32,16.91-15.7,19A14.83,14.83,0,0,1,713.47,199.56Zm-37.14-53.74c10.27,0,18.72,3,24.46,9.06,6,6,9.05,14.49,9.05,25.66,0,.9,0,1.81.3,2.11a5.15,5.15,0,0,0,3.93.91c.91,0,2.72-.31,2.41-2.42v-.9c0-13.59-3.32-23-10.26-29-7.25-6-17.51-9.36-30.19-9.36-10.26,0-19,2.12-25.66,6,.9,1.51,1.81,3,2.72,4.83C658.82,148.23,666.67,145.82,676.33,145.82Z"/><path class="cls-2" d="M621.39,260.24c-4.53,4.53-10.87,6.64-19,6.64-17.21,0-25.67-8.75-25.67-26.57V180.24c0-17.82,8.46-26.57,25.67-26.57,8.15,0,14.49,2.11,19,6.64S628,171.48,628,180.24h0c0-14.8,3.92-25.67,11.47-33.21l-1.81-1.81c-8.76-7.55-20.53-11.18-35.32-11.18S575.8,137.67,567,145.22s-13,19-13,35v60.07c0,16,4.23,27.48,13,35s20.53,11.17,35.33,11.17,26.56-3.62,35.32-11.17c.6-.6,1.21-.9,1.51-1.51-7.55-7.54-11.17-18.41-11.17-33.2C628,249.37,625.61,256,621.39,260.24Z"/><path class="cls-2" d="M602.06,294.35c-16.6,0-30.19-4.52-40.45-13-10.57-9.05-15.7-22.64-15.7-41.06V180.24c0-18.12,5.44-32,15.7-41.06,10.26-8.76,23.85-13,40.45-13s30.19,4.52,40.46,13c.9.6,1.51,1.51,2.41,2.11l4.83,6-4.83,5.43c-6,5.74-9,15.1-9,27.48h-16c0-6.65-1.51-11.48-4.23-14.5-3-3-7.25-4.22-13.28-4.22-12.68,0-17.82,5.13-17.82,18.72v60.07c0,13.59,4.83,18.72,17.82,18.72,6,0,10.56-1.51,13.28-4.23s4.23-7.54,4.23-14.18h16c0,12.37,3,21.73,8.75,27.47l5.74,5.73-5.74,5.74a13.18,13.18,0,0,1-2.11,1.81C632.56,289.83,619,294.35,602.06,294.35Zm0-152.46c-12.68,0-22.94,3-30.19,9.36-6.94,6-10.26,15.4-10.26,29v60.07c0,13.59,3.32,22.95,10.26,29,7.25,6,17.21,9.36,30.19,9.36,10.27,0,19-2.12,25.67-6-.91-1.51-1.82-3.32-2.72-4.83-5.74,4.83-13.59,7.54-23,7.54-21.43,0-33.51-12.68-33.51-34.71V180.24c0-22,12.38-34.72,33.51-34.72,9.67,0,17.21,2.41,23.25,7.54.91-1.81,1.81-3.32,2.72-4.83C621.39,144,612.63,141.89,602.06,141.89Z"/><path class="cls-2" d="M628,180.24v60.38c0,14.79,3.62,25.66,11.17,33.2,7.55-7.54,11.47-18.41,11.47-33.2V179.93c0-14.79-3.62-25.66-11.17-33.21C631.65,154.27,628,165.44,628,180.24Z"/><path class="cls-2" d="M638.9,283.79l-5.44-4.23Q619.87,266,619.88,240.62V180.24c0-16.91,4.83-29.89,13.88-39l4.53-4.53,6.64,4.53q13.59,13.59,13.59,39v60.38c0,16.9-4.83,29.88-13.89,38.94Zm.3-122.88a51.51,51.51,0,0,0-3.32,19.33v60.07c0,7.85,1.2,14.19,3.32,19.33,2.41-5.14,3.32-11.78,3.32-19.33V180.24C642.82,172.69,641.61,166.05,639.2,160.91Z"/><path class="cls-2" d="M628,242.43s-.91,18.41,11.17,31.39c4.83,5.44,12.07,9.67,22.34,11.48,7.85,1.51,13.58-13.59,5.43-19-.9-.3-16.3-5.44-16.3-25.66Z"/><path class="cls-2" d="M662.44,293.15h0a5.72,5.72,0,0,1-2.41-.31c-11.17-2.11-19.93-6.64-26.57-13.88-14.19-15.1-13.28-36.23-13.28-37.14l.3-6.94,37.44-3,.9,8.76c-.3,13.88,9.36,17.51,10.57,17.81l1.21.3.9.6c6.34,4.53,9.06,12.68,6.34,20.83C675.43,288,669.09,293.15,662.44,293.15Zm-26-43.48c.91,5.44,3,13,8.45,18.72,4.23,4.53,9.67,7.25,16.91,8.76a7.24,7.24,0,0,0,.91-3c0-.31,0-.91-.31-.91a33.05,33.05,0,0,1-19.32-23.85Z"/></svg>