<svg width="167" height="36" viewBox="0 0 167 36" fill="none" xmlns="http://www.w3.org/2000/svg">
<path d="M47.053 26.8064C46.9926 27.0239 46.8599 27.2144 46.6768 27.3463C46.4937 27.4783 46.2711 27.5439 46.0456 27.5324C45.4485 27.5324 44.9911 27.1694 44.4865 26.8917C44.4256 26.8602 44.3731 26.8146 44.3334 26.7587C44.2936 26.7028 44.2677 26.6383 44.2578 26.5705C44.2578 26.3418 44.3958 26.1131 44.4865 25.8825C44.5773 25.652 44.668 25.3798 44.7624 25.1565C44.9481 24.656 45.162 24.1663 45.4031 23.69C45.679 23.0946 45.9077 22.5447 46.1818 21.9493C46.503 21.2614 46.8243 20.6207 47.0984 19.9328C47.4614 19.2068 47.8244 18.4663 48.1983 17.6876C48.2437 17.5969 48.289 17.5061 48.3362 17.4135C49.0622 15.9016 49.801 14.3425 50.5342 12.8305C51.0788 11.6853 51.5434 10.4946 52.0008 9.30391C52.2749 8.52526 52.6415 7.7466 52.5054 6.92075C52.4128 6.32542 51.9101 6.00416 51.7267 5.4542C51.4055 4.54667 53.5581 4.49222 54.0627 4.40147C54.8414 4.3089 55.62 4.21996 56.3987 4.17277C56.994 4.12558 57.6365 4.12558 58.2319 4.12558C58.7364 4.12558 59.3772 4.08021 59.7892 4.35609C60.2938 4.67554 60.2938 5.50139 60.3845 6.05135C60.5223 6.94695 60.6144 7.84898 60.6604 8.75395C60.7058 9.25853 60.7058 9.7613 60.7058 10.3113C60.7511 11.9158 60.7983 13.5184 60.7983 15.123V18.4663C60.7983 21.1235 61.027 22.9567 61.4844 24.0566C61.6659 24.4686 61.8474 24.6519 61.989 24.6519C62.3403 24.6307 62.6833 24.5368 62.9964 24.3761C63.2123 24.2658 63.4125 24.1273 63.5917 23.964C63.7732 23.8733 63.9547 23.7353 64.1362 23.964C64.2742 24.102 64.3177 24.3271 64.4121 24.4686C64.5065 24.6102 64.6408 24.7427 64.5936 24.926C64.5464 25.1093 64.3631 25.2019 64.2306 25.289L63.6861 25.701C63.3219 25.9697 62.9392 26.2123 62.5408 26.4271C62.3209 26.5533 62.0908 26.6608 61.8529 26.7483C60.9813 27.1756 60.028 27.4102 59.0577 27.4362C58.5981 27.4168 58.1468 27.3077 57.7291 27.115C57.3331 26.9699 56.9846 26.7187 56.7217 26.3889C55.9431 25.427 55.7598 24.0984 55.6672 22.9077V21.6698C55.6756 21.3781 55.7065 21.0874 55.7598 20.8004C55.8051 20.5245 55.9413 20.2033 55.8051 19.9292C55.7144 19.7005 55.4421 19.6533 55.2098 19.6079C53.789 19.5244 52.3639 19.5554 50.9481 19.7005C50.4036 19.7459 49.712 19.7005 49.3454 20.2033C49.0713 20.5663 48.9334 21.1652 48.7501 21.6245C48.5214 22.169 48.2909 22.7244 48.1075 23.3197C47.9714 23.641 47.8788 23.9604 47.7445 24.2817C47.6066 24.6447 47.4686 25.0603 47.3307 25.427C47.297 25.8967 47.2036 26.3602 47.053 26.8064ZM55.9467 17.7312L55.9921 13.974C55.9921 10.6761 55.8541 8.43087 55.5801 7.28558C55.4411 7.2724 55.3009 7.28784 55.1681 7.33096C54.5727 8.98083 53.9756 10.402 53.4728 11.5927C52.9283 12.738 52.3729 13.974 51.7322 15.3026C51.135 16.6313 50.723 17.4571 50.5869 17.7784L55.9467 17.7312Z" fill="white"/>
<path d="M65.287 13.383C65.425 13.3376 65.5629 13.3376 65.699 13.2922C65.9749 13.2468 66.2436 13.1997 66.4795 13.1543C67.1934 13.0631 67.9124 13.017 68.6322 13.0163C69.0896 13.0163 69.5941 13.0163 70.0515 12.971C70.1895 12.971 70.3728 12.9256 70.5107 13.0635C70.5763 13.1935 70.6228 13.3323 70.6487 13.4755C70.6941 13.6135 70.7394 13.7496 70.7848 13.9329C70.832 14.0709 70.832 14.2542 70.8774 14.4375C70.8702 14.5312 70.8857 14.6252 70.9227 14.7116C70.9227 14.7588 70.9681 14.9421 70.9227 14.9421C72.5726 13.5663 73.992 12.8802 75.0974 12.8802C75.6309 12.8701 76.1584 12.9949 76.6308 13.243C77.1033 13.4912 77.5054 13.8546 77.8 14.2996C78.4879 15.2162 78.8091 16.5902 78.8091 18.378C78.8091 21.538 78.2138 23.8758 77.0667 25.3877C75.9776 26.8524 74.3187 27.769 72.4855 27.6783C71.8826 27.6578 71.2843 27.5658 70.7031 27.4042C70.4744 27.3135 70.1985 27.2227 70.1985 26.9014C70.1895 26.7037 70.2542 26.5097 70.38 26.3569C70.5038 26.2693 70.6439 26.2076 70.7921 26.1754C70.93 26.0829 71.1133 25.9939 71.2513 25.8995C71.5705 25.7109 71.863 25.4801 72.1207 25.2134C72.7532 24.5869 73.2521 23.8385 73.5872 23.0136C74.3133 21.273 74.7325 19.0731 74.1318 17.2418C73.9502 16.6972 73.6272 16.0965 73.0772 15.9131C72.6198 15.7316 72.1697 15.9131 71.7958 16.2326C70.8338 17.0584 70.6033 18.5232 70.4672 19.7157C70.1913 21.5942 69.9227 23.4256 69.5052 25.3042C69.2204 26.5129 69.0059 27.7371 68.8627 28.9706C68.7247 30.0687 68.5414 31.1686 68.4997 32.2232V33.1398C68.4997 33.3685 68.4997 33.5971 68.3182 33.7351C68.0895 33.9166 67.7736 33.9166 67.4941 33.9638C67.0623 34.1006 66.6168 34.1895 66.1655 34.2288C65.9269 34.2823 65.6839 34.3133 65.4395 34.3213C65.1654 34.3667 64.8442 34.3667 64.5683 34.4121C64.3877 34.4675 64.1927 34.4513 64.0238 34.3667L63.9784 34.3213C63.7969 34.1834 63.7969 33.9093 63.7969 33.6806V32.8493C63.8125 32.2954 63.8732 31.7436 63.9784 31.1995C64.0709 30.7421 64.1163 30.2375 64.2071 29.7801C64.2996 29.1848 64.4376 28.5894 64.5701 27.9941C64.708 27.2681 64.8913 26.5275 65.0293 25.7943C65.0293 25.7017 65.0747 25.6128 65.0747 25.5184C65.8987 21.6251 66.3579 18.6466 66.3579 16.5393C66.3503 16.0831 66.2567 15.6323 66.082 15.2107C65.9577 14.9064 65.8046 14.6146 65.6246 14.3395C65.5321 14.2034 65.4431 14.0654 65.3487 13.9275C65.2911 13.8774 65.248 13.8127 65.2241 13.7402C65.2001 13.6677 65.1962 13.59 65.2126 13.5155C65.1037 13.4755 65.1963 13.4283 65.287 13.383Z" fill="white"/>
<path d="M105.881 22.9591C105.881 24.3331 105.285 25.433 104.093 26.3042C103.669 26.5957 103.206 26.8267 102.719 26.9903L101.895 27.2662C101.283 27.4431 100.652 27.5503 100.016 27.5857C98.7329 27.6782 97.2663 27.4949 96.1664 26.7616C95.2589 26.1209 94.885 25.0664 95.4803 24.059C95.9831 23.1424 97.083 22.4545 98.1375 22.6378C99.2828 22.8193 99.8328 23.9665 100.199 24.8831C100.29 25.1118 100.336 25.2951 100.428 25.5238C100.519 25.845 100.749 26.0683 101.069 25.983C101.241 25.9325 101.398 25.8395 101.525 25.7126C101.651 25.5858 101.744 25.4291 101.795 25.257C101.832 25.123 101.848 24.9838 101.84 24.8449C101.84 23.8376 100.971 22.4164 99.183 20.5832C97.4424 18.7518 96.5258 17.2853 96.5258 16.1854C96.5258 15.0854 97.0303 14.2614 97.9923 13.6661C98.9543 13.0707 100.147 12.7585 101.521 12.7585C102.895 12.7585 103.949 12.9872 104.635 13.4846C105.321 13.9819 105.69 14.6299 105.69 15.4539C105.69 16.2779 105.055 17.4214 103.726 18.9279L104.323 19.5232C104.552 19.7519 104.868 20.2492 105.285 20.9426C105.697 21.7212 105.881 22.3638 105.881 22.9591ZM104.14 15.5374C104.14 14.7587 103.635 14.3921 102.581 14.3921C102.145 14.3661 101.713 14.4779 101.345 14.7115C101.023 14.942 100.84 15.1707 100.84 15.3994C100.84 15.8568 101.299 16.5447 102.261 17.416L102.764 17.828C103.681 17.0947 104.14 16.316 104.14 15.5374Z" fill="white"/>
<path d="M115.089 27.6326C113.074 27.6326 111.379 26.8068 110.095 25.1587C108.767 23.5088 108.126 21.4016 108.126 18.7444C108.095 16.2633 108.562 13.8012 109.5 11.5041C110.328 9.43169 111.668 7.60316 113.395 6.18967C115.089 4.81568 116.876 4.12778 118.8 4.12778C120.724 4.12778 122.282 4.54161 123.474 5.41102C124.667 6.28042 125.26 7.33497 125.26 8.52745C125.259 9.10345 125.166 9.67559 124.986 10.2227C124.87 10.6176 124.685 10.9892 124.441 11.3208C124.078 11.78 123.663 11.5967 123.158 11.5023C122.701 11.4116 122.287 11.2736 121.83 11.1393C121.252 10.9579 120.71 10.6792 120.227 10.3153C119.768 9.99401 119.951 9.62737 120.045 9.16998C120.091 8.84872 120.182 8.52926 120.227 8.208C120.272 7.88674 120.363 7.56729 120.408 7.2914C120.499 6.74689 120.316 6.56539 119.811 6.37481C119.381 6.24469 118.932 6.18343 118.483 6.1933C117.154 6.1933 116.009 7.3386 114.956 9.58381C113.947 11.8296 113.443 14.6248 113.444 17.9693C113.444 20.1673 113.807 21.7247 114.544 22.7338C115.281 23.743 116.147 24.1986 117.201 24.1986C117.874 24.1931 118.54 24.0702 119.171 23.8356C119.875 23.5709 120.527 23.1824 121.094 22.6884C121.323 22.5069 121.507 22.3254 121.737 22.1439C121.827 22.0173 121.954 21.921 122.1 21.868C122.282 21.8227 122.374 21.9606 122.512 22.0495C122.714 22.26 122.928 22.4588 123.153 22.6449C123.334 22.7828 123.516 23.0079 123.334 23.2402C123.196 23.4217 123.013 23.5615 122.877 23.7448L122.189 24.4327C121.614 24.979 121.002 25.4843 120.356 25.9446C119.647 26.4084 118.881 26.777 118.076 27.0409C117.125 27.4197 116.112 27.6202 115.089 27.6326Z" fill="#00A651"/>
<path d="M129.567 27.6322C128.055 27.6322 126.91 27.1276 126.039 26.0731C125.215 25.0204 124.757 23.5538 124.757 21.6752C124.757 19.2467 125.398 17.1848 126.681 15.4442C127.965 13.7035 129.751 12.8323 132.041 12.8323L133.232 12.8795C133.617 12.6914 134.041 12.5968 134.47 12.6036C136.165 12.6036 137.034 14.2081 137.034 17.4607C137.943 17.4045 138.847 17.2832 139.739 17.0977L140.241 16.9597L140.423 18.243C139.494 18.6214 138.526 18.8977 137.537 19.067L136.896 19.2049C136.484 21.4955 135.658 23.4667 134.375 25.1619C133.186 26.761 131.537 27.6322 129.567 27.6322ZM131.353 24.837C132.27 24.837 133.096 24.2417 133.827 23.0964C134.54 21.955 135.052 20.6994 135.339 19.3846C133.003 19.3846 131.858 18.5134 131.858 16.7728C131.858 16.0949 131.998 15.4244 132.27 14.8034L132.451 14.4822C132.35 14.4417 132.24 14.4261 132.132 14.4368C131.994 14.4368 131.901 14.4368 131.856 14.4822C131.311 14.8452 130.803 15.6275 130.344 16.9107C129.851 18.324 129.605 19.8118 129.618 21.3086C129.567 23.6464 130.163 24.837 131.353 24.837Z" fill="#00A651"/>
<path d="M153.713 25.2496C153.713 25.295 153.665 25.3422 153.62 25.3875C153.366 25.6258 153.09 25.8403 152.796 26.0283C152.432 26.2969 152.049 26.5395 151.651 26.7543C151.055 27.0755 150.458 27.395 149.818 27.5329C149.499 27.5862 149.178 27.6172 148.856 27.6255C147.434 27.6255 146.656 26.9376 146.427 25.5636C145.794 26.1995 145.048 26.7122 144.227 27.0755C143.403 27.4385 142.715 27.62 142.12 27.62C141.067 27.62 140.196 27.1608 139.463 26.2442C138.729 25.3276 138.363 23.9083 138.363 22.0297C138.363 19.1438 138.96 16.8986 140.196 15.2941C141.434 13.646 142.762 12.8202 144.32 12.8202C145.832 12.8202 147.115 13.1832 148.168 13.8747C148.398 12.5915 148.627 11.3082 148.81 10.0268C148.946 8.97226 149.039 7.96491 149.13 6.91037C149.185 6.20819 149.17 5.50224 149.084 4.8031C149.039 4.44009 149.13 4.1152 149.543 4.02444C149.748 3.98482 149.947 3.92399 150.139 3.84294C150.683 3.705 151.239 3.56705 151.834 3.47993C152.134 3.42975 152.437 3.39943 152.742 3.38918C153.244 3.34199 153.887 3.15867 153.978 3.84657C154.116 4.85392 154.023 5.86309 153.932 6.87044C153.84 7.51054 153.748 8.15186 153.656 8.79439C153.566 9.57304 153.382 10.3517 153.244 11.1304C153.063 12.0469 152.923 13.0089 152.742 13.9255C152.694 14.0635 152.694 14.1542 152.649 14.2885C151.687 19.1456 151.23 22.4435 151.23 24.1842C151.23 24.6887 151.366 24.9646 151.593 24.9646C151.779 24.9362 151.954 24.8563 152.097 24.7341C152.235 24.6434 152.419 24.5526 152.556 24.4601C152.683 24.3523 152.821 24.2597 152.968 24.1842C153.105 24.1388 153.197 24.2314 153.288 24.3221C153.38 24.4601 153.469 24.6434 153.564 24.7813C153.62 24.9283 153.758 25.0663 153.713 25.2496ZM145.922 14.7114C145.144 14.7114 144.503 15.4375 143.953 16.9566C143.417 18.3779 143.136 19.8827 143.124 21.4017C143.124 22.8664 143.214 23.783 143.443 24.1951C143.514 24.3783 143.64 24.5345 143.805 24.6417C143.969 24.7489 144.164 24.8016 144.36 24.7922C145.086 24.7922 145.781 24.5163 146.467 23.921C146.514 23.0498 147.011 20.1638 147.934 15.2614C147.206 14.9419 146.52 14.7114 145.922 14.7114Z" fill="#00A651"/>
<path d="M154.537 21.585C154.537 18.8805 155.361 16.7279 157.011 15.1706C158.66 13.6133 160.492 12.8328 162.601 12.8328C163.882 12.8328 164.936 13.1535 165.761 13.7948C166.156 14.0834 166.475 14.4636 166.69 14.9028C166.906 15.3419 167.012 15.8268 166.999 16.3159C167.021 17.2609 166.748 18.1893 166.22 18.9731C165.717 19.6661 165.058 20.2312 164.296 20.623C162.737 21.4016 161.363 21.859 160.08 22.0423L159.301 22.1349C159.439 24.195 160.308 25.2042 161.82 25.2042C162.394 25.1873 162.956 25.0467 163.47 24.7921C163.725 24.6978 163.968 24.5761 164.196 24.4291C164.443 24.2866 164.674 24.1174 164.884 23.9245C165.066 23.7866 165.247 23.6505 165.48 23.8338C165.612 23.9769 165.733 24.1298 165.843 24.2912C165.933 24.4291 166.117 24.5199 166.024 24.7486C165.958 24.8755 165.864 24.9854 165.748 25.0698L165.062 25.6144C164.61 25.9875 164.118 26.3101 163.596 26.5763C162.333 27.2724 160.914 27.6354 159.472 27.6309C157.96 27.6309 156.815 27.0864 155.943 26.0264C154.994 24.9755 154.537 23.5089 154.537 21.585ZM161.819 19.111C162.461 18.385 162.782 17.4158 162.782 16.2705C162.782 15.078 162.419 14.528 161.728 14.528C160.904 14.528 160.261 15.216 159.804 16.6353C159.368 17.9044 159.136 19.2343 159.116 20.5758C160.308 20.3471 161.18 19.8425 161.819 19.111Z" fill="#00A651"/>
<path d="M34.4532 32.6258C34.4527 33.3304 34.1726 34.006 33.6744 34.5042C33.1762 35.0025 32.5006 35.2826 31.796 35.2831H2.65723C1.95264 35.2826 1.27704 35.0025 0.778814 34.5042C0.280592 34.006 0.000480787 33.3304 0 32.6258V3.48706C0.000480787 2.78247 0.280592 2.10687 0.778814 1.60865C1.27704 1.11043 1.95264 0.830315 2.65723 0.829834H31.796C32.5006 0.830315 33.1762 1.11043 33.6744 1.60865C34.1726 2.10687 34.4527 2.78247 34.4532 3.48706V32.6258Z" fill="white"/>
<path fill-rule="evenodd" clip-rule="evenodd" d="M27.266 16.1907C27.6435 16.3399 28.0467 16.4132 28.4525 16.4063C28.6385 16.3964 28.8225 16.3641 29.0007 16.3101C30.8792 15.9888 31.4764 14.4315 31.3838 13.4242C31.3838 10.6744 30.5598 8.61247 28.9553 7.23847C27.398 5.95524 25.3379 5.26733 22.8168 5.26733C20.2957 5.26733 18.2356 5.90986 16.6765 7.23847C16.5607 7.31832 16.4536 7.41019 16.3571 7.51255L15.4858 8.38377L16.3571 9.30037C17.2718 10.1752 17.7311 11.5964 17.7311 13.475H20.1197C20.1197 11.4585 20.9455 10.6798 22.8694 10.6798C23.786 10.6798 24.4268 10.8631 24.886 11.3205C25.298 11.7797 25.5267 12.513 25.5267 13.475C25.474 14.5277 25.8897 15.1739 26.2527 15.5369C26.5442 15.8194 26.8885 16.0416 27.266 16.1907ZM16.6768 28.868C18.2359 30.1513 20.296 30.8392 22.8171 30.8392C25.3363 30.8392 27.3982 30.1513 28.9011 28.8245C30.5038 27.4505 31.3296 25.3432 31.3296 22.5934V22.3647C31.3154 21.6998 31.0569 21.0635 30.6036 20.5769C30.3121 20.2944 29.9678 20.0722 29.5903 19.923C29.2128 19.7738 28.8096 19.7006 28.4038 19.7075C28.2211 19.7004 28.0383 19.7157 27.8593 19.7529C25.9807 20.0741 25.3853 21.6314 25.4779 22.6388C25.4779 23.6479 25.2474 24.3812 24.8354 24.7932C24.4234 25.2052 23.7373 25.4339 22.8207 25.4339C20.8423 25.4339 20.1163 24.6553 20.1163 22.5934H17.6896C17.6896 24.4774 17.2303 25.8968 16.3137 26.768L15.4443 27.6392L16.3137 28.5468C16.3795 28.5921 16.4353 28.6483 16.4911 28.7045L16.4911 28.7046C16.5492 28.7631 16.6073 28.8217 16.6768 28.868Z" fill="#193D4B"/>
<path d="M14.4787 25.6163C13.7908 26.3042 12.8289 26.6236 11.591 26.6236C8.98096 26.6236 7.69772 25.295 7.69772 22.5924V13.4754C7.69772 10.771 8.98096 9.44238 11.591 9.44238C12.8289 9.44238 13.7908 9.76364 14.4787 10.4515C15.1666 11.1394 15.4861 12.1468 15.4861 13.4754C15.4861 11.2302 16.0814 9.58032 17.2267 8.43502L16.9526 8.16458C15.624 7.01929 13.8362 6.46933 11.591 6.46933C9.34579 6.46933 7.55978 7.01384 6.23116 8.16458C4.90255 9.31532 4.26184 11.0505 4.26184 13.479V22.596C4.26184 25.0246 4.90255 26.7706 6.23116 27.9105C7.55978 29.0503 9.3476 29.6057 11.591 29.6057C13.8344 29.6057 15.624 29.0612 16.9526 27.9105C17.0434 27.8197 17.1342 27.7725 17.1813 27.6818C16.036 26.5365 15.4861 24.8866 15.4861 22.6414C15.4861 23.9664 15.1195 24.9755 14.4787 25.6163Z" fill="#00A651"/>
<path d="M11.5456 30.7927C9.02629 30.7927 6.96439 30.1066 5.40708 28.8233C3.80258 27.4493 3.02393 25.3874 3.02393 22.5923V13.4753C3.02393 10.7255 3.84977 8.61823 5.40708 7.24424C6.96439 5.91563 9.02629 5.2731 11.5456 5.2731C14.0649 5.2731 16.1267 5.961 17.6859 7.24424C17.822 7.33499 17.9146 7.47294 18.0489 7.56551L18.7749 8.47303L18.0489 9.29887C17.1323 10.1683 16.6731 11.5895 16.6731 13.4735H14.2554C14.2554 12.4643 14.0267 11.7329 13.6147 11.2736C13.1573 10.8163 12.5148 10.6329 11.5982 10.6329C9.67426 10.6329 8.8956 11.4116 8.8956 13.4735V22.5905C8.8956 24.6524 9.62162 25.431 11.5982 25.431C12.5148 25.431 13.2027 25.2023 13.6147 24.7903C14.0267 24.3783 14.2554 23.6468 14.2554 22.6376H16.684C16.684 24.5162 17.1432 25.9374 18.0126 26.8123L18.8838 27.6835L18.0126 28.5529C17.9161 28.6559 17.8091 28.7484 17.6931 28.8288C16.1739 30.1066 14.112 30.7927 11.5456 30.7927ZM11.5456 7.65626C9.62162 7.65626 8.06431 8.11365 6.96439 9.07744C5.90985 9.98496 5.40708 11.4134 5.40708 13.4753V22.5923C5.40708 24.6542 5.90985 26.0735 6.96439 26.9901C8.06431 27.8977 9.57625 28.4113 11.5456 28.4113C13.1029 28.4113 14.4315 28.0901 15.4407 27.4947C15.3027 27.266 15.1648 26.9901 15.0286 26.7687C14.1574 27.4947 12.9668 27.914 11.5456 27.914C8.29301 27.914 6.46344 25.99 6.46344 22.6504V13.4753C6.46344 10.1302 8.34201 8.21166 11.5456 8.21166C13.0121 8.21166 14.1574 8.57467 15.074 9.35696C15.212 9.08288 15.3481 8.85237 15.486 8.63094C14.4787 7.98297 13.1501 7.65626 11.5456 7.65626Z" fill="#00A651"/>
<path d="M15.486 13.4752V22.6376C15.486 24.8828 16.0305 26.5327 17.1812 27.678C18.3265 26.5327 18.9218 24.8828 18.9218 22.6376V13.428C18.9218 11.1828 18.3773 9.53296 17.2266 8.38766C16.0359 9.53477 15.486 11.23 15.486 13.4752Z" fill="#00A651"/>
<path d="M17.1358 29.1901L16.31 28.5475C14.9403 27.1741 14.2554 25.2042 14.2554 22.6377V13.4754C14.2554 10.9089 14.9814 8.93777 16.3645 7.56559L17.0505 6.87769L18.0597 7.56559C19.4331 8.93898 20.1198 10.9089 20.1198 13.4754V22.6377C20.1198 25.2042 19.3938 27.1754 18.0125 28.5475L17.1358 29.1901ZM17.1812 10.5423C16.8268 11.4787 16.6555 12.4744 16.6766 13.4754V22.5924C16.6513 23.5931 16.8227 24.589 17.1812 25.5237C17.5442 24.745 17.6858 23.7377 17.6858 22.5924V13.4754C17.7522 12.4715 17.5793 11.4662 17.1812 10.5423Z" fill="#00A651"/>
<path d="M15.4859 22.9135C15.4859 22.9135 15.3479 25.7069 17.1811 27.678C17.9072 28.502 19.0143 29.1445 20.5716 29.4186C21.7623 29.6473 22.6335 27.3567 21.3957 26.5327C21.2595 26.4873 18.9218 25.7068 18.9218 22.6376L15.4859 22.9135Z" fill="#00A651"/>
<path d="M20.7098 30.6094C20.5869 30.6191 20.4634 30.6036 20.3468 30.564C18.6515 30.2428 17.3229 29.5567 16.3137 28.4568C14.1611 26.1662 14.299 22.959 14.299 22.821L14.3444 21.7683L20.0255 21.3091L20.1634 22.6377C20.1162 24.745 21.5828 25.295 21.7661 25.3421L21.9476 25.3875L22.0856 25.4783C22.5677 25.8292 22.9223 26.3277 23.0959 26.8981C23.2694 27.4686 23.2525 28.0801 23.0475 28.6401C22.6791 29.8308 21.7171 30.6094 20.7098 30.6094ZM16.7693 24.0117C16.9072 24.8376 17.2267 25.9829 18.0525 26.8523C18.6933 27.5402 19.5173 27.9522 20.6172 28.1827C20.6964 28.0416 20.7435 27.8848 20.7551 27.7235C20.7551 27.6781 20.7551 27.5855 20.7098 27.5855C19.9646 27.2646 19.3083 26.7676 18.7975 26.1372C18.2866 25.5068 17.9363 24.7619 17.7767 23.9663L16.7693 24.0117Z" fill="#00A651"/>
<path d="M80.8184 13.383C80.9563 13.3376 81.0942 13.3376 81.2322 13.2922C81.5063 13.2468 81.7767 13.1997 82.0108 13.1543C82.7248 13.0631 83.4437 13.0171 84.1635 13.0163C84.6209 13.0163 85.1255 13.0163 85.5847 12.971C85.7208 12.971 85.9041 12.9256 86.0421 13.0635C86.1077 13.1935 86.1541 13.3323 86.18 13.4755C86.2254 13.6135 86.2708 13.7496 86.3161 13.9329C86.3633 14.0709 86.3633 14.2542 86.4087 14.4375C86.4015 14.5312 86.4171 14.6252 86.4541 14.7116C86.4541 14.7588 86.4995 14.9421 86.4541 14.9421C88.104 13.5663 89.5233 12.8802 90.6287 12.8802C91.1622 12.8701 91.6897 12.9949 92.1622 13.243C92.6346 13.4912 93.0367 13.8546 93.3313 14.2996C94.0192 15.2162 94.3405 16.5902 94.3405 18.378C94.3405 21.538 93.7451 23.8758 92.5998 25.3877C91.4999 26.8524 89.85 27.769 88.0168 27.6783C87.4127 27.6575 86.8131 27.5648 86.2308 27.4024C86.0021 27.3116 85.7262 27.2209 85.7262 26.8996C85.7172 26.7019 85.7819 26.5079 85.9077 26.3551C86.0315 26.2675 86.1716 26.2057 86.3198 26.1736C86.4577 26.081 86.641 25.9921 86.779 25.8977C87.0986 25.7095 87.391 25.4787 87.6484 25.2116C88.2809 24.585 88.7798 23.8367 89.1149 23.0118C89.841 21.2712 90.2602 19.0713 89.6594 17.2399C89.4779 16.6954 89.1549 16.0947 88.6049 15.9113C88.1475 15.7298 87.6974 15.9113 87.3235 16.2308C86.3615 17.0566 86.131 18.5214 85.9949 19.7139C85.719 21.5924 85.4504 23.4238 85.0329 25.3024C84.7481 26.5111 84.5336 27.7353 84.3904 28.9688C84.2524 30.0669 84.0709 31.1668 84.0274 32.2213V33.1379C84.0274 33.3666 84.0274 33.5953 83.8458 33.7333C83.6172 33.9148 83.3013 33.9148 83.0218 33.962C82.5904 34.1019 82.1448 34.1938 81.6932 34.236C81.4546 34.2896 81.2116 34.3206 80.9672 34.3286C80.6931 34.374 80.3719 34.374 80.096 34.4194C79.9155 34.4757 79.7201 34.4594 79.5515 34.374L79.5043 34.3286C79.3228 34.1907 79.3228 33.9166 79.3228 33.6879V32.8493C79.3383 32.2954 79.399 31.7436 79.5043 31.1995C79.5968 30.7421 79.6422 30.2375 79.7348 29.7801C79.8255 29.1848 79.9635 28.5894 80.0978 27.9941C80.2357 27.2681 80.419 26.5275 80.557 25.7943C80.557 25.7017 80.6024 25.6128 80.6024 25.5184C81.4264 21.6251 81.8856 18.6466 81.8856 16.5393C81.878 16.0831 81.7844 15.6323 81.6097 15.2107C81.4854 14.9064 81.3323 14.6146 81.1523 14.3395L80.8674 13.9329C80.8091 13.8833 80.7655 13.8187 80.7411 13.7461C80.7168 13.6735 80.7128 13.5956 80.7294 13.5209C80.635 13.4755 80.7276 13.4283 80.8184 13.383Z" fill="white"/>
</svg>
