<svg width="146" height="31" viewBox="0 0 146 31" fill="none" xmlns="http://www.w3.org/2000/svg">
<path d="M40.971 23.6188C40.9184 23.8082 40.8029 23.9741 40.6434 24.089C40.484 24.2039 40.2901 24.2611 40.0938 24.251C39.5739 24.251 39.1756 23.9349 38.7362 23.6931C38.6832 23.6657 38.6375 23.626 38.6029 23.5773C38.5683 23.5287 38.5457 23.4725 38.5371 23.4134C38.5371 23.2143 38.6572 23.0151 38.7362 22.8144C38.8153 22.6137 38.8943 22.3766 38.9765 22.1822C39.1382 21.7464 39.3244 21.32 39.5344 20.9052C39.7746 20.3868 39.9737 19.908 40.2124 19.3896C40.4921 18.7906 40.7719 18.2327 41.0105 17.6337C41.3266 17.0015 41.6427 16.3567 41.9683 15.6787C42.0078 15.5997 42.0473 15.5206 42.0884 15.44C42.7205 14.1235 43.3638 12.7659 44.0023 11.4494C44.4764 10.4522 44.881 9.41539 45.2793 8.37862C45.5179 7.70061 45.8372 7.02259 45.7186 6.30349C45.638 5.78511 45.2003 5.50537 45.0406 5.02649C44.7609 4.23627 46.6353 4.18886 47.0747 4.10984C47.7527 4.02923 48.4307 3.95179 49.1087 3.9107C49.6271 3.86961 50.1866 3.86961 50.705 3.86961C51.1443 3.86961 51.7022 3.8301 52.061 4.07033C52.5003 4.34848 52.5003 5.06759 52.5794 5.54646C52.6993 6.3263 52.7795 7.11174 52.8196 7.89974C52.8591 8.33911 52.8591 8.77689 52.8591 9.25576C52.8986 10.6529 52.9397 12.0484 52.9397 13.4455V16.3567C52.9397 18.6705 53.1388 20.2667 53.5371 21.2245C53.6952 21.5832 53.8532 21.7429 53.9765 21.7429C54.2823 21.7244 54.581 21.6426 54.8536 21.5026C55.0416 21.4067 55.216 21.286 55.372 21.1439C55.5301 21.0648 55.6881 20.9447 55.8461 21.1439C55.9663 21.264 56.0042 21.46 56.0864 21.5832C56.1686 21.7065 56.2855 21.8219 56.2444 21.9815C56.2033 22.1411 56.0437 22.2217 55.9283 22.2976L55.4542 22.6564C55.1371 22.8903 54.8038 23.1015 54.4569 23.2885C54.2655 23.3985 54.0651 23.4921 53.8579 23.5683C53.099 23.9403 52.2689 24.1446 51.4241 24.1673C51.0239 24.1504 50.6309 24.0553 50.2672 23.8875C49.9224 23.7612 49.6189 23.5425 49.39 23.2553C48.712 22.4177 48.5524 21.2608 48.4718 20.2241V19.1462C48.4791 18.8921 48.506 18.639 48.5524 18.3892C48.5919 18.1489 48.7104 17.8692 48.5919 17.6305C48.5129 17.4314 48.2758 17.3903 48.0735 17.3508C46.8364 17.2781 45.5954 17.3051 44.3626 17.4314C43.8885 17.4709 43.2863 17.4314 42.9671 17.8692C42.7284 18.1853 42.6083 18.7068 42.4487 19.1067C42.2496 19.5808 42.0489 20.0644 41.8892 20.5828C41.7707 20.8626 41.6901 21.1407 41.5731 21.4204C41.453 21.7365 41.3329 22.0985 41.2128 22.4177C41.1834 22.8267 41.1022 23.2303 40.971 23.6188ZM48.7152 15.7166L48.7547 12.4451C48.7547 9.57343 48.6346 7.61842 48.3959 6.62116C48.2749 6.60969 48.1528 6.62313 48.0372 6.66067C47.5188 8.0973 46.9988 9.33479 46.561 10.3716C46.0869 11.3688 45.6033 12.4451 45.0454 13.602C44.5254 14.7589 44.1667 15.478 44.0481 15.7577L48.7152 15.7166V15.7166Z" fill="#193D4B"/>
<path d="M56.8483 11.9305C56.9684 11.891 57.0886 11.891 57.2071 11.8514C57.4473 11.8119 57.6812 11.7708 57.8867 11.7313C58.5083 11.6519 59.1344 11.6118 59.7611 11.6112C60.1594 11.6112 60.5987 11.6112 60.997 11.5717C61.1171 11.5717 61.2767 11.5322 61.3968 11.6523C61.454 11.7655 61.4944 11.8863 61.517 12.0111C61.5565 12.1312 61.596 12.2497 61.6355 12.4093C61.6766 12.5295 61.6766 12.6891 61.7161 12.8487C61.7098 12.9303 61.7234 13.0122 61.7556 13.0873C61.7556 13.1284 61.7951 13.2881 61.7556 13.2881C63.1922 12.0901 64.4281 11.4927 65.3906 11.4927C65.8552 11.4839 66.3145 11.5926 66.7259 11.8086C67.1373 12.0247 67.4874 12.3411 67.7439 12.7286C68.3429 13.5267 68.6226 14.7231 68.6226 16.2798C68.6226 19.0314 68.1043 21.067 67.1054 22.3835C66.1571 23.6589 64.7126 24.4571 63.1164 24.378C62.5914 24.3602 62.0704 24.2801 61.5644 24.1394C61.3652 24.0604 61.125 23.9814 61.125 23.7016C61.1171 23.5294 61.1734 23.3605 61.283 23.2275C61.3908 23.1512 61.5128 23.0974 61.6418 23.0694C61.7619 22.9888 61.9216 22.9114 62.0417 22.8292C62.3197 22.6649 62.5743 22.464 62.7987 22.2318C63.3495 21.6862 63.7839 21.0346 64.0757 20.3163C64.7079 18.8007 65.073 16.8852 64.5498 15.2905C64.3918 14.8164 64.1105 14.2932 63.6316 14.1336C63.2333 13.9756 62.8414 14.1336 62.5158 14.4118C61.6782 15.1309 61.4774 16.4063 61.3589 17.4446C61.1187 19.0804 60.8848 20.6751 60.5213 22.3108C60.2733 23.3633 60.0865 24.4292 59.9618 25.5033C59.8417 26.4595 59.6821 27.4172 59.6457 28.3355V29.1336C59.6457 29.3327 59.6457 29.5319 59.4877 29.652C59.2885 29.81 59.0135 29.81 58.7701 29.8511C58.3942 29.9703 58.0062 30.0476 57.6133 30.0819C57.4055 30.1285 57.1939 30.1555 56.9811 30.1625C56.7424 30.202 56.4627 30.202 56.2225 30.2415C56.0652 30.2897 55.8954 30.2756 55.7483 30.202L55.7088 30.1625C55.5508 30.0424 55.5508 29.8037 55.5508 29.6046V28.8807C55.5643 28.3984 55.6172 27.9179 55.7088 27.4441C55.7894 27.0458 55.8289 26.6065 55.908 26.2082C55.9886 25.6898 56.1087 25.1714 56.2241 24.653C56.3442 24.0209 56.5038 23.376 56.6239 22.7375C56.6239 22.6569 56.6634 22.5795 56.6634 22.4973C57.3809 19.1073 57.7808 16.5138 57.7808 14.6789C57.7741 14.2816 57.6926 13.8891 57.5406 13.522C57.4323 13.257 57.299 13.0029 57.1423 12.7634C57.0617 12.6448 56.9842 12.5247 56.9021 12.4046C56.8519 12.361 56.8144 12.3046 56.7935 12.2415C56.7727 12.1784 56.7692 12.1108 56.7835 12.0458C56.6887 12.0111 56.7693 11.97 56.8483 11.9305Z" fill="#193D4B"/>
<path d="M92.1957 20.2688C92.1957 21.4652 91.6774 22.423 90.639 23.1816C90.2699 23.4354 89.8673 23.6365 89.4426 23.779L88.7251 24.0192C88.1921 24.1733 87.6433 24.2666 87.0893 24.2974C85.9719 24.378 84.6949 24.2183 83.7372 23.5798C82.947 23.022 82.6214 22.1037 83.1398 21.2266C83.5776 20.4284 84.5353 19.8295 85.4536 19.9891C86.4508 20.1471 86.9297 21.146 87.2489 21.9441C87.328 22.1432 87.3675 22.3029 87.4481 22.502C87.5271 22.7817 87.7278 22.9761 88.006 22.9018C88.1559 22.8579 88.2923 22.7769 88.4028 22.6665C88.5132 22.556 88.5942 22.4196 88.6382 22.2697C88.6709 22.153 88.6842 22.0318 88.6777 21.9109C88.6777 21.0338 87.9206 19.7963 86.3639 18.2C84.8482 16.6053 84.0501 15.3283 84.0501 14.3706C84.0501 13.4128 84.4895 12.6953 85.3271 12.1769C86.1648 11.6586 87.2031 11.3867 88.3995 11.3867C89.5959 11.3867 90.5141 11.5859 91.1116 12.0189C91.709 12.4519 92.0298 13.0162 92.0298 13.7337C92.0298 14.4512 91.4766 15.4469 90.3198 16.7586L90.8397 17.277C91.0389 17.4762 91.3139 17.9092 91.6774 18.5129C92.0361 19.191 92.1957 19.7504 92.1957 20.2688ZM90.6801 13.8064C90.6801 13.1284 90.2407 12.8091 89.3225 12.8091C88.9434 12.7865 88.5669 12.8838 88.2462 13.0873C87.9665 13.288 87.8068 13.4871 87.8068 13.6863C87.8068 14.0845 88.2067 14.6835 89.0443 15.4421L89.4821 15.8009C90.2802 15.1624 90.6801 14.4844 90.6801 13.8064V13.8064Z" fill="#193D4B"/>
<path d="M100.212 24.3379C98.458 24.3379 96.9819 23.6188 95.8645 22.1837C94.7076 20.7471 94.1497 18.9122 94.1497 16.5984C94.1225 14.4381 94.5293 12.2942 95.3461 10.294C96.067 8.48945 97.234 6.89727 98.7378 5.66648C100.212 4.47008 101.769 3.87109 103.444 3.87109C105.12 3.87109 106.476 4.23144 107.514 4.98847C108.552 5.7455 109.069 6.66374 109.069 7.70209C109.068 8.20364 108.987 8.70183 108.83 9.17823C108.729 9.52205 108.569 9.84561 108.356 10.1344C108.04 10.5343 107.678 10.3746 107.239 10.2924C106.841 10.2134 106.48 10.0933 106.082 9.97635C105.579 9.81843 105.107 9.57576 104.687 9.25883C104.287 8.97909 104.446 8.65984 104.528 8.26157C104.568 7.98183 104.647 7.70367 104.687 7.42393C104.726 7.14419 104.805 6.86604 104.845 6.62581C104.924 6.15168 104.764 5.99363 104.325 5.82769C103.95 5.71439 103.559 5.66105 103.168 5.66964C102.011 5.66964 101.014 6.6669 100.097 8.62191C99.2182 10.5774 98.7794 13.0113 98.7804 15.9236C98.7804 17.8375 99.0965 19.1935 99.7382 20.0722C100.38 20.951 101.134 21.3477 102.052 21.3477C102.638 21.3429 103.218 21.2359 103.767 21.0316C104.38 20.8011 104.948 20.4629 105.442 20.0327C105.641 19.8747 105.801 19.7166 106.001 19.5586C106.08 19.4483 106.19 19.3645 106.318 19.3184C106.476 19.2789 106.556 19.399 106.676 19.4764C106.852 19.6597 107.039 19.8327 107.234 19.9948C107.392 20.1149 107.55 20.3109 107.392 20.5132C107.272 20.6712 107.113 20.7929 106.994 20.9525L106.395 21.5515C105.894 22.0272 105.361 22.4672 104.799 22.868C104.182 23.2718 103.514 23.5928 102.814 23.8226C101.986 24.1524 101.104 24.3271 100.212 24.3379V24.3379Z" fill="white"/>
<path d="M112.819 24.3383C111.503 24.3383 110.505 23.899 109.747 22.9807C109.029 22.0641 108.631 20.7871 108.631 19.1513C108.631 17.0367 109.189 15.2413 110.306 13.7256C111.424 12.21 112.979 11.4514 114.973 11.4514L116.01 11.4925C116.345 11.3287 116.715 11.2464 117.088 11.2522C118.564 11.2522 119.321 12.6494 119.321 15.4815C120.112 15.4326 120.899 15.327 121.676 15.1654L122.114 15.0453L122.272 16.1627C121.463 16.4922 120.62 16.7328 119.759 16.8802L119.201 17.0003C118.842 18.9948 118.123 20.7112 117.006 22.1873C115.97 23.5797 114.534 24.3383 112.819 24.3383ZM114.374 21.9044C115.172 21.9044 115.891 21.3861 116.528 20.3888C117.149 19.3949 117.595 18.3016 117.845 17.1568C115.811 17.1568 114.814 16.3982 114.814 14.8825C114.814 14.2923 114.936 13.7085 115.172 13.1677L115.33 12.888C115.242 12.8527 115.147 12.8392 115.052 12.8485C114.932 12.8485 114.851 12.8485 114.812 12.888C114.338 13.2041 113.895 13.8853 113.495 15.0026C113.066 16.2333 112.852 17.5287 112.863 18.8321C112.819 20.8677 113.337 21.9044 114.374 21.9044Z" fill="white"/>
<path d="M133.844 22.2627C133.844 22.3023 133.803 22.3433 133.764 22.3829C133.542 22.5903 133.302 22.7771 133.046 22.9408C132.729 23.1747 132.396 23.3859 132.049 23.5729C131.531 23.8527 131.011 24.1308 130.453 24.2509C130.176 24.2974 129.896 24.3243 129.615 24.3315C128.378 24.3315 127.7 23.7326 127.5 22.5362C126.949 23.0899 126.299 23.5363 125.585 23.8527C124.867 24.1688 124.268 24.3268 123.75 24.3268C122.833 24.3268 122.075 23.9269 121.436 23.1288C120.798 22.3307 120.479 21.0948 120.479 19.459C120.479 16.9461 120.998 14.9911 122.075 13.594C123.153 12.159 124.31 11.4399 125.666 11.4399C126.982 11.4399 128.099 11.7559 129.016 12.3581C129.217 11.2407 129.416 10.1233 129.576 9.00755C129.694 8.08932 129.775 7.21217 129.854 6.29393C129.902 5.68251 129.889 5.06781 129.814 4.45903C129.775 4.14294 129.854 3.86004 130.214 3.78102C130.392 3.74652 130.566 3.69355 130.732 3.62298C131.207 3.50286 131.69 3.38275 132.209 3.30689C132.47 3.26319 132.734 3.23679 132.999 3.22787C133.437 3.18678 133.996 3.02715 134.075 3.62614C134.195 4.50329 134.115 5.38201 134.036 6.25916C133.955 6.81653 133.875 7.37495 133.795 7.93443C133.716 8.61244 133.557 9.29045 133.437 9.96846C133.279 10.7666 133.157 11.6042 132.999 12.4023C132.958 12.5225 132.958 12.6015 132.918 12.7184C132.081 16.9477 131.682 19.8194 131.682 21.335C131.682 21.7744 131.801 22.0146 131.998 22.0146C132.161 21.9898 132.313 21.9203 132.438 21.8139C132.558 21.7349 132.717 21.6558 132.838 21.5752C132.947 21.4814 133.068 21.4008 133.196 21.335C133.315 21.2955 133.395 21.3761 133.475 21.4551C133.555 21.5752 133.633 21.7349 133.715 21.855C133.764 21.983 133.884 22.1031 133.844 22.2627ZM127.061 13.0867C126.383 13.0867 125.825 13.7189 125.346 15.0417C124.879 16.2792 124.635 17.5895 124.624 18.9122C124.624 20.1876 124.703 20.9857 124.902 21.3445C124.964 21.504 125.074 21.6401 125.217 21.7334C125.36 21.8268 125.53 21.8726 125.7 21.8645C126.332 21.8645 126.938 21.6242 127.535 21.1059C127.576 20.3472 128.009 17.8343 128.812 13.5656C128.178 13.2874 127.581 13.0867 127.061 13.0867Z" fill="white"/>
<path d="M134.562 19.0721C134.562 16.7172 135.28 14.8428 136.717 13.4868C138.153 12.1308 139.748 11.4512 141.584 11.4512C142.7 11.4512 143.617 11.7304 144.336 12.2888C144.68 12.5401 144.958 12.8712 145.145 13.2536C145.333 13.636 145.425 14.0582 145.414 14.484C145.433 15.3069 145.196 16.1154 144.736 16.7978C144.298 17.4012 143.724 17.8933 143.061 18.2344C141.703 18.9125 140.507 19.3107 139.389 19.4703L138.711 19.551C138.831 21.3448 139.588 22.2235 140.905 22.2235C141.404 22.2088 141.894 22.0864 142.341 21.8647C142.563 21.7826 142.775 21.6766 142.974 21.5486C143.189 21.4245 143.39 21.2772 143.573 21.1093C143.731 20.9892 143.889 20.8706 144.091 21.0302C144.206 21.1549 144.312 21.288 144.407 21.4285C144.486 21.5486 144.646 21.6277 144.565 21.8268C144.508 21.9373 144.425 22.033 144.325 22.1065L143.727 22.5807C143.334 22.9056 142.905 23.1865 142.451 23.4183C141.351 24.0244 140.115 24.3404 138.86 24.3365C137.543 24.3365 136.546 23.8624 135.787 22.9394C134.961 22.0243 134.562 20.7473 134.562 19.0721ZM140.903 16.9179C141.463 16.2858 141.742 15.4418 141.742 14.4445C141.742 13.4062 141.426 12.9273 140.824 12.9273C140.107 12.9273 139.547 13.5263 139.149 14.7622C138.77 15.8672 138.568 17.0252 138.55 18.1933C139.588 17.9942 140.347 17.5548 140.903 16.9179Z" fill="white"/>
<path d="M30 27.6862C29.9996 28.2997 29.7557 28.888 29.3218 29.3218C28.888 29.7557 28.2998 29.9996 27.6862 30H2.31377C1.70025 29.9996 1.11198 29.7557 0.67815 29.3218C0.244324 28.888 0.000418643 28.2997 0 27.6862V2.31377C0.000418643 1.70025 0.244324 1.11198 0.67815 0.67815C1.11198 0.244324 1.70025 0.000418643 2.31377 0H27.6862C28.2998 0.000418643 28.888 0.244324 29.3218 0.67815C29.7557 1.11198 29.9996 1.70025 30 2.31377V27.6862Z" fill="#193D4B"/>
<path d="M26.2516 18.9888C26.2911 17.7118 25.1343 17.4336 24.4563 17.5522C23.1397 17.7924 23.2583 18.9888 23.2583 18.9888C23.2583 20.1852 22.9801 21.0639 22.3811 21.6218C21.7821 22.2208 20.9445 22.5006 19.8682 22.5006C17.594 22.5006 16.4766 21.3437 16.4766 18.9888C16.4766 20.9438 15.9582 22.3804 14.9609 23.3777L15.1996 23.6163C16.3565 24.6136 17.9132 25.0925 19.8682 25.0925C21.8232 25.0925 23.3784 24.6183 24.5353 23.6163C25.6922 22.6143 26.2516 21.0639 26.2516 18.9888V18.9888Z" fill="white"/>
<path d="M19.867 26.1318C17.6718 26.1318 15.878 25.5328 14.5204 24.4155C14.4019 24.3364 14.3213 24.2163 14.2043 24.1357L13.4473 23.3455L14.2043 22.5869C15.0024 21.8283 15.4023 20.5924 15.4023 18.9519H17.5153C17.5153 20.7472 18.1475 21.4253 19.8702 21.4253C20.6683 21.4253 21.2657 21.2261 21.6245 20.8674C21.9833 20.5086 22.184 19.8701 22.184 18.9914C22.1034 18.1142 22.6218 16.7582 24.2575 16.4785C24.4134 16.4461 24.5726 16.4328 24.7316 16.4389C25.085 16.4329 25.4361 16.4967 25.7648 16.6266C26.0935 16.7565 26.3933 16.95 26.6471 17.196C27.0419 17.6197 27.2669 18.1738 27.2793 18.7527V18.9519C27.2793 21.3462 26.5602 23.1811 25.1647 24.3775C23.8561 25.5328 22.0607 26.1318 19.867 26.1318ZM16.4359 23.2191C17.313 23.777 18.4699 24.0567 19.867 24.0567C21.5423 24.0567 22.8983 23.6584 23.8561 22.8192C24.7332 22.0622 25.2121 20.8658 25.2121 19.1842V18.985C25.2121 18.906 25.2121 18.7859 25.1726 18.7464C25.0988 18.6923 25.0148 18.6537 24.9257 18.6331C24.8366 18.6124 24.7442 18.6101 24.6542 18.6263C24.4962 18.6658 24.3381 18.6658 24.3381 18.906V19.0309C24.3381 20.507 23.9383 21.6639 23.1417 22.4225C22.341 23.2169 21.2626 23.6142 19.9065 23.6142C18.6295 23.6142 17.5928 23.2554 16.8342 22.6169C16.6788 22.8018 16.5452 23.0038 16.4359 23.2191V23.2191Z" fill="white"/>
<path d="M23.2578 11.011C23.2578 9.81465 22.9797 8.93592 22.3807 8.37803C21.7817 7.77904 20.9441 7.4993 19.8678 7.4993C17.633 7.4993 16.4761 8.65618 16.4761 10.9763C16.4761 9.02127 16.002 7.58464 15 6.58738C15.0806 6.50678 15.158 6.46727 15.1991 6.38825C16.356 5.39099 17.9128 4.91211 19.8678 4.91211C21.8228 4.91211 23.3779 5.38624 24.5348 6.38825C25.6917 7.39025 26.2907 8.90115 26.2907 11.0158C26.3206 11.3648 26.2115 11.7115 25.9872 11.9805C25.7629 12.2495 25.4414 12.4191 25.0927 12.4524C24.3752 12.6057 23.2183 12.288 23.2578 11.011Z" fill="white"/>
<path d="M24.7751 13.5644C24.4217 13.5704 24.0706 13.5067 23.7419 13.3767C23.4132 13.2468 23.1134 13.0534 22.8596 12.8074C22.5435 12.4913 22.1816 11.9287 22.2274 11.012C22.2274 10.1744 22.0283 9.53587 21.6695 9.13602C21.2696 8.73775 20.7117 8.57812 19.9136 8.57812C18.2384 8.57812 17.5192 9.25613 17.5192 11.012H15.4394C15.4394 9.37625 15.0395 8.13876 14.243 7.37698L13.4844 6.57886L14.243 5.82025C14.327 5.73112 14.4203 5.65112 14.5211 5.5816C15.8787 4.42471 17.6726 3.86523 19.8678 3.86523C22.063 3.86523 23.8568 4.46422 25.2129 5.5816C26.61 6.77799 27.3275 8.57338 27.3275 10.9678C27.4081 11.8449 26.8881 13.2009 25.2524 13.4807C25.0972 13.5277 24.937 13.5559 24.7751 13.5644ZM19.8678 6.46349C21.2238 6.46349 22.3412 6.86334 23.0982 7.65988C23.8963 8.45801 24.2962 9.57538 24.2962 11.0515C24.2833 11.1466 24.297 11.2434 24.3357 11.3313C24.4095 11.3853 24.4935 11.4236 24.5827 11.444C24.6718 11.4644 24.7642 11.4664 24.8541 11.4498C24.9742 11.4498 25.2129 11.4103 25.1702 11.1337V11.0136C25.1702 9.2182 24.7308 7.98071 23.8142 7.18417C22.8564 6.39395 21.5004 5.94668 19.8251 5.94668C18.4675 5.94668 17.3106 6.22642 16.4335 6.74481C16.5536 6.94394 16.6721 7.14308 16.7922 7.37698C17.554 6.78274 18.5908 6.46349 19.8678 6.46349Z" fill="white"/>
<path d="M12.6073 21.5823C12.0083 22.1813 11.1706 22.4594 10.0928 22.4594C7.82009 22.4594 6.70272 21.3025 6.70272 18.9492V11.0107C6.70272 8.65581 7.82009 7.49893 10.0928 7.49893C11.1706 7.49893 12.0083 7.77866 12.6073 8.37765C13.2063 8.97664 13.4844 9.85379 13.4844 11.0107C13.4844 9.05566 14.0028 7.61904 15.0001 6.62178L14.7614 6.38629C13.6045 5.38903 12.0478 4.91016 10.0928 4.91016C8.13776 4.91016 6.5826 5.38429 5.42572 6.38629C4.26883 7.38829 3.71094 8.8992 3.71094 11.0138V18.9524C3.71094 21.067 4.26883 22.5874 5.42572 23.58C6.5826 24.5725 8.13934 25.0561 10.0928 25.0561C12.0462 25.0561 13.6045 24.582 14.7614 23.58C14.8404 23.5009 14.9195 23.4598 14.9605 23.3808C13.9633 22.3836 13.4844 20.9469 13.4844 18.9919C13.4844 20.1456 13.1652 21.0244 12.6073 21.5823Z" fill="#00A651"/>
<path d="M10.053 26.0902C7.85934 26.0902 6.06396 25.4928 4.70794 24.3754C3.31082 23.179 2.63281 21.3836 2.63281 18.9497V11.0112C2.63281 8.6168 3.35192 6.7819 4.70794 5.5855C6.06396 4.42862 7.85934 3.86914 10.053 3.86914C12.2467 3.86914 14.042 4.46813 15.3996 5.5855C15.5182 5.66452 15.5988 5.78464 15.7157 5.86524L16.3479 6.65547L15.7157 7.37457C14.9176 8.1316 14.5178 9.36909 14.5178 11.0096H12.4126C12.4126 10.1309 12.2135 9.49394 11.8547 9.09409C11.4564 8.69582 10.897 8.53619 10.0988 8.53619C8.42356 8.53619 7.74555 9.2142 7.74555 11.0096V18.9482C7.74555 20.7435 8.37773 21.4216 10.0988 21.4216C10.897 21.4216 11.4959 21.2224 11.8547 20.8637C12.2135 20.5049 12.4126 19.868 12.4126 18.9893H14.5272C14.5272 20.625 14.9271 21.8625 15.6841 22.6243L16.4427 23.3829L15.6841 24.1399C15.6002 24.2296 15.5069 24.3101 15.406 24.3802C14.0831 25.4928 12.2878 26.0902 10.053 26.0902ZM10.053 5.94427C8.37773 5.94427 7.02171 6.34254 6.06396 7.18175C5.14572 7.97197 4.70794 9.21579 4.70794 11.0112V18.9497C4.70794 20.7451 5.14572 21.981 6.06396 22.7792C7.02171 23.5694 8.33822 24.0166 10.053 24.0166C11.409 24.0166 12.5659 23.7369 13.4446 23.2185C13.3245 23.0194 13.2044 22.7792 13.0859 22.5863C12.3273 23.2185 11.2905 23.5836 10.053 23.5836C7.22085 23.5836 5.62776 21.9083 5.62776 19.0003V11.0112C5.62776 8.09841 7.26352 6.42788 10.053 6.42788C11.33 6.42788 12.3273 6.74397 13.1254 7.42514C13.2455 7.18649 13.364 6.98578 13.4841 6.79296C12.607 6.22874 11.4501 5.94427 10.053 5.94427V5.94427Z" fill="#00A651"/>
<path d="M13.4844 11.0101V18.9881C13.4844 20.9432 13.9585 22.3798 14.9605 23.377C15.9578 22.3798 16.4762 20.9432 16.4762 18.9881V10.969C16.4762 9.01396 16.002 7.57734 15 6.58008C13.9632 7.57892 13.4844 9.05505 13.4844 11.0101Z" fill="#00A651"/>
<path d="M14.9203 24.694L14.2012 24.1346C13.0085 22.9387 12.4121 21.2234 12.4121 18.9886V11.0105C12.4121 8.77579 13.0443 7.05943 14.2486 5.86461L14.846 5.26562L15.7247 5.86461C16.9206 7.06048 17.5185 8.77579 17.5185 11.0105V18.9886C17.5185 21.2234 16.8863 22.9397 15.6836 24.1346L14.9203 24.694ZM14.9598 8.45654C14.6512 9.27191 14.5021 10.1389 14.5204 11.0105V18.9491C14.4983 19.8205 14.6476 20.6877 14.9598 21.5015C15.2759 20.8235 15.3991 19.9464 15.3991 18.9491V11.0105C15.457 10.1364 15.3064 9.26107 14.9598 8.45654V8.45654Z" fill="#00A651"/>
<path d="M13.4845 19.2285C13.4845 19.2285 13.3644 21.6608 14.9606 23.3772C15.5928 24.0947 16.5569 24.6542 17.9129 24.8928C18.9497 25.092 19.7083 23.0974 18.6304 22.3799C18.5119 22.3404 16.4763 21.6608 16.4763 18.9883L13.4845 19.2285Z" fill="#00A651"/>
<path d="M18.0329 25.9312C17.9259 25.9396 17.8184 25.9262 17.7168 25.8917C16.2407 25.612 15.0838 25.0145 14.2051 24.0568C12.3307 22.0623 12.4508 19.2696 12.4508 19.1495L12.4903 18.2329L17.4371 17.833L17.5572 18.9899C17.5161 20.8248 18.7931 21.3037 18.9527 21.3448L19.1108 21.3843L19.2309 21.4633C19.6506 21.7689 19.9595 22.2029 20.1106 22.6996C20.2617 23.1964 20.247 23.7288 20.0685 24.2164C19.7477 25.2532 18.91 25.9312 18.0329 25.9312ZM14.6018 20.1863C14.7219 20.9054 15 21.9026 15.7191 22.6597C16.277 23.2587 16.9945 23.6174 17.9523 23.8182C18.0213 23.6953 18.0623 23.5588 18.0724 23.4183C18.0724 23.3788 18.0724 23.2982 18.0329 23.2982C17.384 23.0187 16.8126 22.5859 16.3678 22.037C15.9229 21.4881 15.6179 20.8395 15.4789 20.1468L14.6018 20.1863Z" fill="#00A651"/>
<path d="M70.3726 11.9305C70.4927 11.891 70.6128 11.891 70.7329 11.8514C70.9716 11.8119 71.2071 11.7708 71.411 11.7313C72.0326 11.652 72.6587 11.6119 73.2854 11.6112C73.6836 11.6112 74.123 11.6112 74.5228 11.5717C74.6414 11.5717 74.801 11.5322 74.9211 11.6523C74.9782 11.7655 75.0187 11.8863 75.0412 12.0111C75.0807 12.1312 75.1203 12.2497 75.1598 12.4093C75.2009 12.5295 75.2009 12.6891 75.2404 12.8487C75.2341 12.9303 75.2477 13.0122 75.2799 13.0873C75.2799 13.1284 75.3194 13.2881 75.2799 13.2881C76.7165 12.0901 77.9524 11.4927 78.9149 11.4927C79.3795 11.4839 79.8388 11.5926 80.2502 11.8086C80.6616 12.0247 81.0117 12.3411 81.2682 12.7286C81.8672 13.5267 82.1469 14.7231 82.1469 16.2798C82.1469 19.0314 81.6285 21.067 80.6313 22.3835C79.6735 23.6589 78.2369 24.4571 76.6406 24.378C76.1146 24.3599 75.5925 24.2793 75.0855 24.1378C74.8863 24.0588 74.6461 23.9798 74.6461 23.7C74.6382 23.5279 74.6946 23.3589 74.8042 23.2259C74.9119 23.1496 75.0339 23.0958 75.1629 23.0679C75.283 22.9873 75.4427 22.9098 75.5628 22.8276C75.8411 22.6638 76.0957 22.4628 76.3198 22.2302C76.8706 21.6846 77.305 21.033 77.5968 20.3147C78.229 18.7991 78.5941 16.8836 78.0709 15.2889C77.9129 14.8148 77.6316 14.2916 77.1527 14.132C76.7544 13.974 76.3625 14.132 76.0369 14.4102C75.1993 15.1293 74.9986 16.4047 74.88 17.4431C74.6398 19.0788 74.4059 20.6735 74.0424 22.3092C73.7944 23.3617 73.6076 24.4277 73.4829 25.5017C73.3628 26.4579 73.2048 27.4157 73.1668 28.3339V29.132C73.1668 29.3312 73.1668 29.5303 73.0088 29.6504C72.8096 29.8085 72.5346 29.8085 72.2913 29.8495C71.9156 29.9714 71.5276 30.0514 71.1344 30.0882C70.9266 30.1348 70.715 30.1618 70.5022 30.1688C70.2635 30.2083 69.9838 30.2083 69.7436 30.2478C69.5864 30.2969 69.4163 30.2827 69.2695 30.2083L69.2284 30.1688C69.0703 30.0487 69.0703 29.81 69.0703 29.6109V28.8807C69.0839 28.3984 69.1367 27.9179 69.2284 27.4441C69.309 27.0458 69.3485 26.6065 69.4291 26.2082C69.5081 25.6898 69.6282 25.1714 69.7452 24.653C69.8653 24.0209 70.0249 23.376 70.145 22.7375C70.145 22.6569 70.1845 22.5795 70.1845 22.4973C70.902 19.1073 71.3019 16.5138 71.3019 14.6789C71.2953 14.2816 71.2138 13.8891 71.0617 13.522C70.9535 13.257 70.8201 13.0029 70.6634 12.7634L70.4153 12.4093C70.3645 12.3661 70.3265 12.3099 70.3054 12.2466C70.2842 12.1834 70.2807 12.1156 70.2952 12.0506C70.213 12.0111 70.2936 11.97 70.3726 11.9305Z" fill="#193D4B"/>
</svg>
