<svg id="Layer_1" data-name="Layer 1" xmlns="http://www.w3.org/2000/svg" viewBox="0 0 511 511"><defs><style>.cls-1{fill:#193d4b;}.cls-2{fill:#fff;}.cls-3{fill:#00a651;}</style></defs><title>appscode-512x512</title><path class="cls-1" d="M511,471.56A39.44,39.44,0,0,1,471.59,511H39.41A39.44,39.44,0,0,1,0,471.56V39.38A39.44,39.44,0,0,1,39.41,0H471.59A39.44,39.44,0,0,1,511,39.38Z"/><path class="cls-2" d="M447.12,323.42c.68-21.74-19-26.5-30.57-24.46-22.43,4.08-20.39,24.46-20.39,24.46h0c0,20.39-4.76,35.34-15,44.85-10.19,10.19-24.46,15-42.81,15-38.73,0-57.76-19.71-57.76-59.8h0c0,33.3-8.83,57.76-25.82,74.75l4.08,4.08c19.7,17,46.21,25.14,79.5,25.14s59.8-8.16,79.51-25.14,29.21-43.49,29.21-78.83Z"/><path class="cls-2" d="M338.4,445.06c-37.37,0-67.95-10.2-91-29.22-2-1.36-3.4-3.4-5.44-4.76L229,397.49l12.91-12.91c13.59-12.91,20.39-34,20.39-61.84h36c0,30.58,10.87,42.13,40.09,42.13,13.59,0,23.78-3.39,29.9-9.51s9.51-17,9.51-31.94c-1.36-14.95,7.48-38.05,35.34-42.81a33.07,33.07,0,0,1,8.15-.68c12.91,0,24.47,4.76,32.62,12.91,4.76,4.76,10.19,13.59,10.87,26.51v3.39c0,40.77-12.23,72-36,92.42C406.35,434.86,375.78,445.06,338.4,445.06ZM280,395.45c15,9.52,34.66,14.27,58.44,14.27,28.54,0,51.65-6.79,68-21.06,14.95-12.91,23.11-33.3,23.11-61.84h0v-3.4c0-1.36,0-3.4-.68-4.07-1.36-1.36-5.44-2.72-8.84-2-2.71.68-5.43.68-5.43,4.75h0v2c0,25.14-6.8,44.85-20.39,57.76q-20.39,20.38-55,20.39c-21.74,0-39.41-6.12-52.32-17C284,388,282,392.05,280,395.45Z"/><path class="cls-2" d="M396.16,187.52c0-20.39-4.76-35.34-15-44.85-10.19-10.19-24.46-14.95-42.81-14.95-38,0-57.76,19.71-57.76,59.12,0-33.3-8.15-57.76-25.14-74.75,1.36-1.36,2.72-2,3.4-3.4,19.7-17,46.21-25.14,79.5-25.14s59.8,8.16,79.51,25.14,29.89,42.81,29.89,78.83c0,0,2,21.06-20.38,24.46C415.19,214.7,395.48,209.26,396.16,187.52Z"/><path class="cls-2" d="M422,231c-12.91,0-24.46-4.76-32.61-12.91-5.44-5.44-11.56-14.95-10.88-30.58,0-14.27-3.39-25.14-9.51-31.94-6.8-6.79-16.31-9.51-29.9-9.51-28.54,0-40.77,11.55-40.77,41.45H263c0-27.86-6.79-48.93-20.38-61.84l-12.91-13.59,12.91-12.91a29.58,29.58,0,0,1,4.76-4.08c23.1-19.7,53.68-29.22,91-29.22s68,10.2,91.06,29.22c23.78,20.39,36,51,36,91.74,1.36,14.95-7.47,38-35.33,42.81A34.13,34.13,0,0,1,422,231Zm-83.58-121c23.11,0,42.13,6.8,55,20.39C407,144,413.83,163.06,413.83,188.2c0,2,0,4.07.68,4.75,1.36,1.36,5.43,2.72,8.83,2,2,0,6.12-.68,5.44-5.43v-2c0-30.58-7.48-51.65-23.11-65.24-16.3-13.59-39.41-21.06-67.95-21.06-23.1,0-42.81,4.76-57.76,13.59,2,3.4,4.08,6.79,6.12,10.87C299,115.49,316.66,110.05,338.4,110.05Z"/><path class="cls-3" d="M214.73,367.59c-10.19,10.19-24.46,15-42.81,15-38.73,0-57.76-19.71-57.76-59.8V187.52c0-40.09,19-59.8,57.76-59.8,18.35,0,32.62,4.76,42.81,14.95s15,25.14,15,44.85h0c0-33.3,8.83-57.76,25.82-74.75l-4.08-4.08c-19.7-17-46.2-25.14-79.5-25.14s-59.8,8.16-79.51,25.14S63.2,151.5,63.2,187.52V322.74c0,36,9.51,61.84,29.21,78.83s46.21,25.14,79.51,25.14,59.8-8.15,79.5-25.14c1.36-1.36,2.72-2,3.4-3.4-17-17-25.14-41.45-25.14-74.75C229.68,343.13,224.24,358.08,214.73,367.59Z"/><path class="cls-3" d="M171.24,444.38c-37.37,0-67.95-10.2-91.06-29.22-23.78-20.39-35.33-51-35.33-92.42V187.52c0-40.77,12.23-72,35.33-92.42,23.11-19.7,53.69-29.22,91.06-29.22s67.95,10.2,91.06,29.22c2,1.36,3.39,3.4,5.43,4.76l10.87,13.59-10.87,12.23c-13.59,12.91-20.38,34-20.38,61.84h-36c0-15-3.4-25.82-9.51-32.62-6.8-6.79-16.31-9.51-29.9-9.51-28.54,0-40.09,11.55-40.09,42.13V322.74c0,30.58,10.87,42.13,40.09,42.13,13.59,0,23.78-3.39,29.9-9.51s9.51-17,9.51-31.94h36c0,27.86,6.79,48.93,19.7,61.84L280,398.17l-12.91,12.91a29.91,29.91,0,0,1-4.75,4.08C239.87,434.18,209.29,444.38,171.24,444.38Zm0-343.16c-28.54,0-51.64,6.79-67.95,21.06-15.63,13.59-23.11,34.66-23.11,65.24V322.74c0,30.58,7.48,51.65,23.11,65.24C119.6,401.57,142,409,171.24,409c23.1,0,42.81-4.75,57.76-13.59-2-3.4-4.08-7.47-6.12-10.87-12.91,10.87-30.58,17-51.64,17-48.25,0-75.43-28.54-75.43-78.15V187.52c0-49.61,27.86-78.15,75.43-78.15,21.74,0,38.73,5.44,52.32,17,2-4.08,4.08-7.47,6.12-10.87C214.73,106,195,101.22,171.24,101.22Z"/><path class="cls-3" d="M229.68,187.52v135.9c0,33.3,8.15,57.76,25.14,74.75,17-17,25.82-41.45,25.82-74.75V186.84c0-33.3-8.15-57.76-25.14-74.75C237.83,129.08,229.68,154.22,229.68,187.52Z"/><path class="cls-3" d="M254.14,420.59l-12.23-9.51q-30.58-30.57-30.58-87.66V187.52c0-38.05,10.87-67.27,31.26-87.66l10.19-10.19,15,10.19q30.58,30.58,30.58,87.66v135.9c0,38.06-10.87,67.28-31.26,87.66ZM254.82,144c-4.76,11.55-7.47,26.5-7.47,43.49V322.74c0,17.67,2.71,31.94,7.47,43.49,5.44-11.55,7.48-26.5,7.48-43.49V187.52C263,170.53,260.26,155.58,254.82,144Z"/><path class="cls-3" d="M229.68,327.5s-2,41.45,25.14,70.67C265.69,410.4,282,419.91,305.11,424c17.66,3.4,30.57-30.58,12.23-42.81-2-.68-36.7-12.23-36.7-57.76Z"/><path class="cls-3" d="M307.14,441.66h0c-2,0-4.07,0-5.43-.68-25.14-4.76-44.85-15-59.8-31.26-31.94-34-29.9-81.54-29.9-83.58l.68-15.63L297,303.72l2,19.7c-.68,31.26,21.06,39.41,23.78,40.09l2.72.68,2,1.36c14.27,10.2,20.38,28.54,14.27,46.89C336.36,430.11,322.09,441.66,307.14,441.66ZM248.7,343.81c2,12.23,6.8,29.22,19,42.13,9.51,10.19,21.75,16.31,38,19.7a16,16,0,0,0,2-6.79c0-.68,0-2-.68-2-14.95-6.11-36.69-22.42-43.49-53.68Z"/></svg>