<svg width="254" height="53" viewBox="0 0 254 53" fill="none" xmlns="http://www.w3.org/2000/svg">
<path d="M71.3465 41.4063C71.255 41.7361 71.0538 42.0249 70.7761 42.225C70.4985 42.4252 70.1609 42.5247 69.819 42.5072C68.9136 42.5072 68.22 41.9568 67.4549 41.5357C67.3626 41.4878 67.283 41.4187 67.2227 41.334C67.1624 41.2493 67.1231 41.1514 67.1082 41.0486C67.1082 40.7018 67.3173 40.355 67.4549 40.0055C67.5925 39.6559 67.7301 39.2431 67.8733 38.9046C68.1548 38.1456 68.4792 37.4032 68.8448 36.6809C69.2631 35.7781 69.6099 34.9442 70.0255 34.0415C70.5126 32.9984 70.9997 32.0269 71.4153 30.9838C71.9658 29.883 72.5162 28.7601 73.0831 27.5794C73.1519 27.4418 73.2207 27.3042 73.2923 27.1638C74.3932 24.8713 75.5133 22.5071 76.6252 20.2146C77.4508 18.478 78.1554 16.6725 78.8489 14.8671C79.2645 13.6864 79.8205 12.5057 79.614 11.2535C79.4737 10.3508 78.7113 9.86365 78.4334 9.02974C77.9462 7.65365 81.2103 7.57108 81.9754 7.43347C83.1561 7.29311 84.3368 7.15825 85.5175 7.0867C86.4202 7.01514 87.3945 7.01514 88.2972 7.01514C89.0623 7.01514 90.0338 6.94634 90.6585 7.36467C91.4236 7.84905 91.4236 9.10129 91.5613 9.9352C91.7702 11.2932 91.9098 12.661 91.9796 14.0332C92.0484 14.7983 92.0484 15.5606 92.0484 16.3946C92.1172 18.8275 92.1887 21.2577 92.1887 23.6906V28.7601C92.1887 32.7893 92.5355 35.569 93.2291 37.2368C93.5043 37.8615 93.7795 38.1395 93.9942 38.1395C94.5268 38.1073 95.0469 37.9649 95.5216 37.7212C95.849 37.554 96.1526 37.3439 96.4243 37.0964C96.6996 36.9588 96.9748 36.7497 97.25 37.0964C97.4592 37.3056 97.5252 37.6469 97.6683 37.8615C97.8114 38.0762 98.0151 38.2771 97.9435 38.5551C97.872 38.8331 97.594 38.9734 97.3931 39.1055L96.5675 39.7303C96.0152 40.1376 95.4349 40.5055 94.8308 40.8311C94.4975 41.0226 94.1485 41.1856 93.7878 41.3183C92.4662 41.9662 91.0207 42.3219 89.5494 42.3613C88.8525 42.3319 88.1681 42.1664 87.5348 41.8742C86.9343 41.6543 86.4059 41.2734 86.0074 40.7733C84.8267 39.3147 84.5487 37.3001 84.4083 35.4947V33.6177C84.421 33.1753 84.468 32.7345 84.5487 32.2994C84.6175 31.8811 84.8239 31.3939 84.6175 30.9783C84.4799 30.6316 84.0671 30.56 83.7148 30.4912C81.5605 30.3646 79.3995 30.4116 77.2527 30.6316C76.427 30.7004 75.3784 30.6316 74.8225 31.3939C74.4069 31.9443 74.1978 32.8526 73.9198 33.5489C73.573 34.3745 73.2235 35.2167 72.9455 36.1194C72.7391 36.6065 72.5988 37.0909 72.3951 37.5781C72.1859 38.1285 71.9768 38.7587 71.7676 39.3147C71.7164 40.0269 71.575 40.7298 71.3465 41.4063ZM84.8322 27.6455L84.901 21.9485C84.901 16.9477 84.6918 13.5433 84.2762 11.8067C84.0655 11.7867 83.8528 11.8101 83.6515 11.8755C82.7488 14.3772 81.8433 16.5322 81.081 18.3376C80.2553 20.0742 79.4131 21.9484 78.4416 23.963C77.5362 25.9776 76.9114 27.2299 76.705 27.717L84.8322 27.6455Z" fill="#193D4B"/>
<path d="M98.9954 21.0523C99.2045 20.9835 99.4137 20.9835 99.6201 20.9147C100.038 20.8459 100.446 20.7743 100.804 20.7055C101.886 20.5672 102.976 20.4974 104.068 20.4963C104.761 20.4963 105.526 20.4963 106.22 20.4275C106.429 20.4275 106.707 20.3587 106.916 20.5679C107.016 20.765 107.086 20.9754 107.125 21.1926C107.194 21.4018 107.263 21.6082 107.332 21.8862C107.403 22.0953 107.403 22.3733 107.472 22.6513C107.461 22.7933 107.485 22.9359 107.541 23.0669C107.541 23.1384 107.61 23.4164 107.541 23.4164C110.043 21.3302 112.195 20.2899 113.871 20.2899C114.68 20.2746 115.48 20.4638 116.196 20.8401C116.912 21.2163 117.522 21.7674 117.969 22.4421C119.012 23.832 119.499 25.9154 119.499 28.6263C119.499 33.4178 118.596 36.9626 116.857 39.2552C115.206 41.4762 112.69 42.866 109.911 42.7284C108.996 42.6973 108.089 42.5578 107.208 42.3128C106.861 42.1752 106.443 42.0376 106.443 41.5505C106.429 41.2507 106.527 40.9564 106.718 40.7248C106.906 40.5919 107.118 40.4983 107.343 40.4496C107.552 40.3093 107.83 40.1744 108.039 40.0313C108.523 39.7452 108.967 39.3953 109.357 38.991C110.316 38.0408 111.073 36.9061 111.581 35.6553C112.682 33.016 113.318 29.6803 112.407 26.9034C112.132 26.0777 111.642 25.1668 110.808 24.8888C110.114 24.6136 109.432 24.8888 108.865 25.3732C107.406 26.6254 107.056 28.8464 106.85 30.6546C106.432 33.5031 106.024 36.2801 105.391 39.1286C104.96 40.9613 104.634 42.8176 104.417 44.688C104.208 46.353 103.93 48.0208 103.867 49.6199V51.0097C103.867 51.3565 103.867 51.7033 103.592 51.9124C103.245 52.1876 102.766 52.1876 102.342 52.2592C101.687 52.4667 101.012 52.6014 100.327 52.661C99.9657 52.7422 99.5971 52.7892 99.2266 52.8014C98.811 52.8702 98.3238 52.8702 97.9055 52.939C97.6317 53.023 97.336 52.9983 97.0799 52.8702L97.0111 52.8014C96.7358 52.5922 96.7358 52.1766 96.7358 51.8299V50.5694C96.7595 49.7294 96.8515 48.8927 97.0111 48.0676C97.1514 47.3741 97.2202 46.609 97.3578 45.9154C97.4982 45.0127 97.7074 44.11 97.9083 43.2073C98.1174 42.1064 98.3954 40.9835 98.6046 39.8717C98.6046 39.7313 98.6734 39.5964 98.6734 39.4533C99.9229 33.5499 100.619 29.0336 100.619 25.8383C100.608 25.1465 100.466 24.463 100.201 23.8237C100.012 23.3622 99.7801 22.9198 99.5073 22.5027C99.3669 22.2963 99.2321 22.0871 99.0889 21.8779C99.0016 21.802 98.9363 21.7039 98.8999 21.5939C98.8636 21.484 98.8576 21.3663 98.8825 21.2532C98.7174 21.1926 98.8578 21.1211 98.9954 21.0523Z" fill="#193D4B"/>
<path d="M160.549 35.5726C160.549 37.656 159.646 39.3239 157.838 40.6449C157.195 41.0869 156.494 41.4371 155.755 41.6852L154.505 42.1035C153.577 42.3718 152.622 42.5343 151.657 42.5879C149.711 42.7283 147.487 42.4503 145.819 41.3384C144.443 40.3669 143.876 38.7679 144.779 37.2405C145.541 35.8506 147.209 34.8075 148.808 35.0855C150.545 35.3607 151.379 37.1001 151.935 38.4899C152.072 38.8367 152.141 39.1147 152.282 39.4615C152.419 39.9486 152.769 40.2871 153.253 40.1578C153.514 40.0812 153.752 39.9402 153.944 39.7479C154.136 39.5555 154.277 39.3179 154.354 39.0569C154.411 38.8538 154.434 38.6428 154.423 38.4321C154.423 36.9047 153.104 34.7497 150.394 31.97C147.754 29.1931 146.364 26.9693 146.364 25.3015C146.364 23.6337 147.129 22.3842 148.588 21.4815C150.047 20.5788 151.855 20.1054 153.938 20.1054C156.022 20.1054 157.621 20.4522 158.661 21.2063C159.701 21.9604 160.26 22.9429 160.26 24.1924C160.26 25.4419 159.297 27.1757 157.282 29.4601L158.188 30.3628C158.534 30.7095 159.013 31.4636 159.646 32.515C160.271 33.6957 160.549 34.6699 160.549 35.5726ZM157.91 24.319C157.91 23.1383 157.145 22.5824 155.546 22.5824C154.885 22.543 154.23 22.7125 153.671 23.0668C153.184 23.4163 152.906 23.763 152.906 24.1098C152.906 24.8034 153.603 25.8464 155.061 27.1675L155.824 27.7922C157.213 26.6804 157.91 25.4997 157.91 24.319Z" fill="#193D4B"/>
<path d="M174.509 42.6584C171.454 42.6584 168.884 41.4061 166.938 38.9072C164.923 36.4054 163.952 33.2102 163.952 29.181C163.904 25.4189 164.613 21.6857 166.035 18.2025C167.29 15.0601 169.323 12.2875 171.941 10.1442C174.509 8.06078 177.22 7.0177 180.137 7.0177C183.055 7.0177 185.416 7.6452 187.224 8.96349C189.032 10.2818 189.932 11.8808 189.932 13.689C189.93 14.5624 189.79 15.4299 189.517 16.2595C189.34 16.8582 189.061 17.4217 188.691 17.9246C188.141 18.6209 187.51 18.3429 186.745 18.1998C186.052 18.0622 185.424 17.853 184.731 17.6494C183.855 17.3743 183.033 16.9518 182.3 16.3999C181.604 15.9127 181.882 15.3568 182.025 14.6632C182.094 14.1761 182.232 13.6917 182.3 13.2046C182.369 12.7175 182.507 12.2331 182.576 11.8147C182.713 10.9891 182.435 10.7139 181.67 10.4249C181.017 10.2276 180.337 10.1347 179.656 10.1497C177.641 10.1497 175.904 11.8863 174.308 15.2907C172.778 18.6961 172.014 22.9344 172.016 28.0058C172.016 31.3387 172.566 33.7 173.683 35.2303C174.801 36.7605 176.114 37.4513 177.713 37.4513C178.732 37.4429 179.743 37.2567 180.699 36.9008C181.767 36.4996 182.755 35.9105 183.616 35.1614C183.963 34.8862 184.241 34.611 184.59 34.3358C184.727 34.1437 184.919 33.9978 185.141 33.9175C185.416 33.8487 185.556 34.0578 185.765 34.1927C186.072 34.5118 186.396 34.8132 186.737 35.0954C187.012 35.3046 187.287 35.6458 187.012 35.9981C186.803 36.2733 186.525 36.4852 186.319 36.7632L185.276 37.8063C184.404 38.6347 183.475 39.4008 182.496 40.0989C181.421 40.802 180.259 41.3609 179.039 41.7612C177.597 42.3355 176.061 42.6396 174.509 42.6584Z" fill="white"/>
<path d="M196.462 42.6593C194.17 42.6593 192.433 41.8942 191.112 40.2952C189.862 38.6989 189.169 36.4751 189.169 33.6266C189.169 29.9442 190.14 26.8177 192.086 24.1784C194.032 21.5391 196.74 20.218 200.213 20.218L202.019 20.2896C202.603 20.0043 203.246 19.861 203.896 19.8712C206.466 19.8712 207.785 22.3042 207.785 27.2361C209.163 27.151 210.533 26.967 211.885 26.6856L212.648 26.4765L212.923 28.4223C211.514 28.996 210.047 29.415 208.547 29.6717L207.575 29.8809C206.951 33.3542 205.699 36.343 203.753 38.9136C201.95 41.3382 199.448 42.6593 196.462 42.6593ZM199.17 38.4209C200.56 38.4209 201.812 37.5182 202.922 35.7816C204.003 34.0508 204.778 32.147 205.214 30.1534C201.672 30.1534 199.935 28.8323 199.935 26.193C199.935 25.1652 200.148 24.1485 200.56 23.2069L200.835 22.7197C200.682 22.6583 200.516 22.6347 200.351 22.6509C200.142 22.6509 200.002 22.6509 199.933 22.7197C199.107 23.2702 198.336 24.4564 197.64 26.4022C196.893 28.5452 196.52 30.8011 196.539 33.0707C196.462 36.6155 197.365 38.4209 199.17 38.4209Z" fill="white"/>
<path d="M233.076 39.0448C233.076 39.1136 233.004 39.1852 232.935 39.254C232.549 39.6152 232.131 39.9404 231.686 40.2255C231.134 40.6328 230.553 41.0007 229.949 41.3264C229.046 41.8135 228.141 42.2979 227.17 42.507C226.687 42.5879 226.2 42.6348 225.711 42.6474C223.556 42.6474 222.375 41.6043 222.028 39.5209C221.068 40.4851 219.937 41.2625 218.693 41.8135C217.443 42.3639 216.4 42.6391 215.498 42.6391C213.901 42.6391 212.58 41.9428 211.468 40.553C210.356 39.1631 209.801 37.011 209.801 34.1625C209.801 29.7865 210.706 26.382 212.58 23.9491C214.457 21.4501 216.472 20.1979 218.833 20.1979C221.126 20.1979 223.072 20.7483 224.668 21.7969C225.017 19.8511 225.364 17.9053 225.642 15.9623C225.848 14.3633 225.989 12.8358 226.126 11.2368C226.21 10.1721 226.187 9.10167 226.058 8.04155C225.989 7.49111 226.126 6.99847 226.754 6.86086C227.064 6.80078 227.366 6.70855 227.657 6.58565C228.482 6.37648 229.324 6.16732 230.227 6.03521C230.682 5.95912 231.142 5.91315 231.603 5.8976C232.366 5.82605 233.34 5.54808 233.478 6.59115C233.687 8.11861 233.546 9.64882 233.409 11.1763C233.269 12.1469 233.13 13.1193 232.99 14.0936C232.853 15.2743 232.575 16.4549 232.366 17.6356C232.09 19.0255 231.878 20.4841 231.603 21.874C231.532 22.0831 231.532 22.2208 231.463 22.4244C230.004 29.7892 229.311 34.7899 229.311 37.4293C229.311 38.1944 229.517 38.6127 229.861 38.6127C230.144 38.5695 230.409 38.4485 230.626 38.2632C230.835 38.1256 231.113 37.988 231.323 37.8476C231.514 37.6842 231.723 37.5438 231.947 37.4293C232.154 37.3605 232.294 37.5008 232.432 37.6384C232.572 37.8476 232.707 38.1256 232.85 38.3347C232.935 38.5577 233.144 38.7668 233.076 39.0448ZM221.263 23.0657C220.083 23.0657 219.111 24.1665 218.277 26.4701C217.464 28.6251 217.038 30.9069 217.019 33.2102C217.019 35.4312 217.157 36.8211 217.504 37.4458C217.611 37.7236 217.803 37.9605 218.053 38.1231C218.302 38.2856 218.596 38.3654 218.894 38.3513C219.995 38.3513 221.049 37.9329 222.089 37.0302C222.161 35.7092 222.915 31.3332 224.313 23.8996C223.209 23.4152 222.169 23.0657 221.263 23.0657Z" fill="white"/>
<path d="M234.326 33.4886C234.326 29.3879 235.576 26.1238 238.078 23.7625C240.579 21.4011 243.356 20.2177 246.554 20.2177C248.497 20.2177 250.094 20.7039 251.346 21.6763C251.945 22.114 252.428 22.6905 252.755 23.3564C253.082 24.0223 253.243 24.7575 253.223 25.4991C253.256 26.932 252.843 28.3398 252.042 29.5283C251.279 30.579 250.28 31.436 249.125 32.03C246.761 33.2107 244.677 33.9042 242.731 34.1822L241.551 34.3226C241.76 37.4463 243.078 38.9765 245.371 38.9765C246.24 38.9509 247.093 38.7378 247.872 38.3517C248.258 38.2088 248.627 38.0242 248.973 37.8013C249.348 37.5852 249.698 37.3286 250.016 37.0362C250.292 36.827 250.567 36.6206 250.919 36.8986C251.12 37.1156 251.304 37.3475 251.47 37.5921C251.607 37.8013 251.885 37.9389 251.745 38.2857C251.645 38.4781 251.502 38.6448 251.326 38.7728L250.286 39.5985C249.6 40.1643 248.855 40.6534 248.062 41.0571C246.148 42.1126 243.996 42.6629 241.809 42.6561C239.517 42.6561 237.78 41.8305 236.459 40.2232C235.02 38.6297 234.326 36.406 234.326 33.4886ZM245.368 29.7374C246.342 28.6366 246.829 27.1669 246.829 25.4303C246.829 23.6221 246.279 22.7882 245.23 22.7882C243.981 22.7882 243.007 23.8313 242.313 25.9835C241.653 27.9077 241.301 29.9243 241.27 31.9584C243.078 31.6117 244.399 30.8466 245.368 29.7374Z" fill="white"/>
<path d="M52.2418 48.4892C52.2411 49.5576 51.8163 50.582 51.0609 51.3375C50.3054 52.0929 49.281 52.5177 48.2126 52.5184H4.02919C2.9608 52.5177 1.93639 52.0929 1.18093 51.3375C0.425464 50.582 0.000729023 49.5576 0 48.4892V4.3058C0.000729023 3.23741 0.425464 2.213 1.18093 1.45754C1.93639 0.702076 2.9608 0.27734 4.02919 0.276611H48.2126C49.281 0.27734 50.3054 0.702076 51.0609 1.45754C51.8163 2.213 52.2411 3.23741 52.2418 4.3058V48.4892Z" fill="#193D4B"/>
<path d="M45.7144 33.3436C45.7832 31.1198 43.7686 30.6354 42.5879 30.8418C40.2954 31.2602 40.5018 33.3436 40.5018 33.3436C40.5018 35.427 40.0174 36.9572 38.9743 37.9287C37.9313 38.9718 36.4726 39.4589 34.5984 39.4589C30.638 39.4589 28.6922 37.4443 28.6922 33.3436C28.6922 36.748 27.7895 39.2497 26.0529 40.9864L26.4684 41.4019C28.483 43.1386 31.1939 43.9725 34.5984 43.9725C38.0028 43.9725 40.7109 43.1468 42.7255 41.4019C44.7401 39.6571 45.7144 36.9572 45.7144 33.3436Z" fill="white"/>
<path d="M34.5963 45.7824C30.7736 45.7824 27.6498 44.7393 25.2857 42.7935C25.0793 42.6559 24.9389 42.4467 24.7353 42.3064L23.417 40.9303L24.7353 39.6092C26.1251 38.2882 26.8214 36.136 26.8214 33.2792H30.5011C30.5011 36.4057 31.602 37.5864 34.6018 37.5864C35.9917 37.5864 37.032 37.2396 37.6568 36.6149C38.2815 35.9901 38.631 34.8783 38.631 33.348C38.4907 31.8206 39.3934 29.4592 42.2419 28.9721C42.5133 28.9157 42.7905 28.8926 43.0675 28.9033C43.6829 28.8928 44.2943 29.0039 44.8667 29.2301C45.4391 29.4563 45.9612 29.7932 46.4032 30.2216C47.0905 30.9594 47.4824 31.9243 47.504 32.9325V33.2792C47.504 37.4488 46.2518 40.6441 43.8216 42.7275C41.5428 44.7393 38.4164 45.7824 34.5963 45.7824ZM28.6214 40.7101C30.1488 41.6816 32.1634 42.1688 34.5963 42.1688C37.5136 42.1688 39.875 41.4752 41.5428 40.0138C43.0703 38.6955 43.9042 36.6121 43.9042 33.6838V33.337C43.9042 33.1994 43.9042 32.9903 43.8354 32.9215C43.707 32.8272 43.5607 32.7601 43.4055 32.7241C43.2503 32.6882 43.0895 32.6842 42.9327 32.7123C42.6575 32.7811 42.3822 32.7811 42.3822 33.1994V33.4168C42.3822 35.9874 41.6859 38.002 40.2988 39.323C38.9044 40.7064 37.0265 41.3982 34.6651 41.3982C32.4414 41.3982 30.636 40.7734 29.3149 39.6615C29.0444 39.9834 28.8117 40.3352 28.6214 40.7101Z" fill="white"/>
<path d="M40.501 19.4512C40.501 17.3678 40.0166 15.8375 38.9735 14.866C37.9304 13.823 36.4718 13.3358 34.5976 13.3358C30.706 13.3358 28.6914 15.3504 28.6914 19.3906C28.6914 15.9862 27.8657 13.4844 26.1208 11.7478C26.2612 11.6074 26.3961 11.5386 26.4676 11.401C28.4822 9.66442 31.1931 8.83051 34.5976 8.83051C38.002 8.83051 40.7101 9.65616 42.7247 11.401C44.7393 13.1459 45.7824 15.777 45.7824 19.4594C45.8345 20.0672 45.6445 20.6709 45.2539 21.1394C44.8632 21.6078 44.3035 21.9032 43.6962 21.9611C42.4468 22.2281 40.4322 21.6749 40.501 19.4512Z" fill="white"/>
<path d="M43.1431 23.8976C42.5277 23.9081 41.9163 23.797 41.344 23.5708C40.7716 23.3446 40.2494 23.0077 39.8075 22.5793C39.257 22.0289 38.6268 21.0491 38.7066 19.4529C38.7066 17.9942 38.3598 16.8823 37.7351 16.186C37.0388 15.4925 36.0673 15.2145 34.6774 15.2145C31.7601 15.2145 30.5079 16.3952 30.5079 19.4529H26.886C26.886 16.6043 26.1897 14.4494 24.8026 13.1228L23.4816 11.733L24.8026 10.412C24.949 10.2567 25.1113 10.1174 25.287 9.99637C27.6511 7.98178 30.7748 7.00751 34.5976 7.00751C38.4204 7.00751 41.5441 8.05058 43.9055 9.99637C46.3384 12.0798 47.5879 15.2062 47.5879 19.3758C47.7282 20.9032 46.8228 23.2646 43.9743 23.7517C43.7041 23.8337 43.425 23.8827 43.1431 23.8976ZM34.5976 11.5321C36.959 11.5321 38.9048 12.2284 40.223 13.6155C41.6129 15.0053 42.3092 16.9511 42.3092 19.5217C42.2867 19.6873 42.3106 19.8559 42.378 20.0088C42.5065 20.1028 42.6528 20.1696 42.8081 20.2051C42.9633 20.2406 43.1241 20.244 43.2807 20.2152C43.4899 20.2152 43.9055 20.1464 43.8312 19.6648V19.4556C43.8312 16.3291 43.0661 14.1742 41.4698 12.7871C39.802 11.411 37.4406 10.6321 34.5233 10.6321C32.1592 10.6321 30.1446 11.1193 28.6171 12.022C28.8263 12.3688 29.0327 12.7155 29.2419 13.1228C30.5684 12.088 32.3739 11.5321 34.5976 11.5321Z" fill="white"/>
<path d="M21.9542 37.8599C20.9111 38.9029 19.4524 39.3873 17.5754 39.3873C13.6178 39.3873 11.672 37.3727 11.672 33.2747V19.4506C11.672 15.3498 13.6178 13.3352 17.5754 13.3352C19.4524 13.3352 20.9111 13.8223 21.9542 14.8654C22.9972 15.9085 23.4816 17.436 23.4816 19.4506C23.4816 16.0461 24.3843 13.5444 26.121 11.8078L25.7054 11.3977C23.6908 9.66106 20.9799 8.82715 17.5754 8.82715C14.171 8.82715 11.4629 9.6528 9.44827 11.3977C7.43367 13.1426 6.46216 15.7736 6.46216 19.4561V33.2802C6.46216 36.9626 7.43367 39.6102 9.44827 41.3386C11.4629 43.067 14.1738 43.9091 17.5754 43.9091C20.9771 43.9091 23.6908 43.0835 25.7054 41.3386C25.843 41.201 25.9806 41.1294 26.0521 40.9918C24.3155 39.2552 23.4816 36.7535 23.4816 33.349C23.4816 35.3581 22.9257 36.8883 21.9542 37.8599Z" fill="#00A651"/>
<path d="M17.5063 45.7099C13.6863 45.7099 10.5598 44.6696 8.19845 42.7238C5.76552 40.6404 4.58484 37.5139 4.58484 33.2755V19.4514C4.58484 15.2818 5.83708 12.0865 8.19845 10.0031C10.5598 7.98855 13.6863 7.01428 17.5063 7.01428C21.3263 7.01428 24.4528 8.05735 26.8169 10.0031C27.0233 10.1407 27.1637 10.3499 27.3674 10.4903L28.4682 11.8664L27.3674 13.1186C25.9775 14.4369 25.2812 16.5919 25.2812 19.4486H21.6153C21.6153 17.9184 21.2685 16.8093 20.6438 16.113C19.9502 15.4194 18.976 15.1415 17.5861 15.1415C14.6688 15.1415 13.4881 16.3221 13.4881 19.4486V33.2728C13.4881 36.3993 14.589 37.5799 17.5861 37.5799C18.976 37.5799 20.019 37.2332 20.6438 36.6084C21.2685 35.9837 21.6153 34.8746 21.6153 33.3443H25.2977C25.2977 36.1928 25.994 38.3478 27.3123 39.6744L28.6334 40.9954L27.3123 42.3137C27.1661 42.4699 27.0037 42.6101 26.8279 42.732C24.5244 44.6696 21.3979 45.7099 17.5063 45.7099ZM17.5063 10.6279C14.589 10.6279 12.2276 11.3214 10.5598 12.7828C8.9608 14.1589 8.19845 16.3249 8.19845 19.4514V33.2755C8.19845 36.402 8.9608 38.5542 10.5598 39.9441C12.2276 41.3202 14.5202 42.099 17.5063 42.099C19.8677 42.099 21.8823 41.6119 23.4125 40.7092C23.2033 40.3624 22.9941 39.9441 22.7877 39.6083C21.4667 40.7092 19.6613 41.3449 17.5063 41.3449C12.5744 41.3449 9.80022 38.4276 9.80022 33.3636V19.4514C9.80022 14.3791 12.6487 11.4701 17.5063 11.4701C19.7301 11.4701 21.4667 12.0205 22.8565 13.2067C23.0657 12.7911 23.2721 12.4416 23.4813 12.1058C21.9538 11.1233 19.9392 10.6279 17.5063 10.6279Z" fill="#00A651"/>
<path d="M23.4816 19.4495V33.3425C23.4816 36.7469 24.3072 39.2487 26.0521 40.9853C27.7887 39.2487 28.6914 36.7469 28.6914 33.3425V19.378C28.6914 15.9735 27.8658 13.4718 26.1209 11.7352C24.3155 13.4745 23.4816 16.0451 23.4816 19.4495Z" fill="#00A651"/>
<path d="M25.982 43.2786L24.7297 42.3043C22.6527 40.2218 21.6143 37.2348 21.6143 33.3432V19.4503C21.6143 15.5587 22.7151 12.5698 24.8123 10.4892L25.8526 9.44611L27.3828 10.4892C29.4653 12.5717 30.5065 15.5587 30.5065 19.4503V33.3432C30.5065 37.2348 29.4057 40.2237 27.3113 42.3043L25.982 43.2786ZM26.0508 15.0027C25.5134 16.4226 25.2537 17.9325 25.2857 19.4503V33.2744C25.2472 34.7918 25.5071 36.302 26.0508 37.7192C26.6012 36.5385 26.8159 35.0111 26.8159 33.2744V19.4503C26.9166 17.9281 26.6544 16.4038 26.0508 15.0027Z" fill="#00A651"/>
<path d="M23.4817 33.761C23.4817 33.761 23.2726 37.9966 26.0523 40.9855C27.1531 42.2349 28.832 43.2092 31.1933 43.6248C32.9988 43.9716 34.3198 40.4983 32.4428 39.2488C32.2364 39.18 28.6916 37.9966 28.6916 33.3427L23.4817 33.761Z" fill="#00A651"/>
<path d="M31.4023 45.433C31.2161 45.4477 31.0288 45.4243 30.8519 45.3642C28.2814 44.8771 26.2668 43.8368 24.7366 42.1689C21.4725 38.6957 21.6817 33.8326 21.6817 33.6234L21.7505 32.0272L30.3648 31.3309L30.5739 33.3455C30.5024 36.5407 32.7261 37.3747 33.0041 37.4462L33.2793 37.515L33.4885 37.6526C34.2195 38.1848 34.7572 38.9405 35.0204 39.8056C35.2836 40.6706 35.2579 41.5978 34.9471 42.4469C34.3885 44.2523 32.9298 45.433 31.4023 45.433ZM25.4274 35.4289C25.6365 36.6811 26.1209 38.4177 27.3732 39.736C28.3447 40.7791 29.5942 41.4038 31.262 41.7534C31.3821 41.5395 31.4535 41.3017 31.4711 41.0571C31.4711 40.9883 31.4711 40.8479 31.4023 40.8479C30.2724 40.3612 29.2773 39.6076 28.5027 38.6517C27.728 37.6959 27.1969 36.5663 26.9548 35.3601L25.4274 35.4289Z" fill="#00A651"/>
<path d="M122.546 21.0523C122.755 20.9835 122.965 20.9835 123.174 20.9147C123.589 20.8459 123.999 20.7743 124.354 20.7055C125.437 20.5673 126.527 20.4975 127.618 20.4963C128.312 20.4963 129.077 20.4963 129.773 20.4275C129.98 20.4275 130.258 20.3587 130.467 20.5679C130.566 20.765 130.637 20.9754 130.676 21.1926C130.745 21.4018 130.814 21.6082 130.883 21.8862C130.954 22.0953 130.954 22.3733 131.023 22.6513C131.012 22.7933 131.036 22.9359 131.092 23.0669C131.092 23.1384 131.161 23.4164 131.092 23.4164C133.593 21.3302 135.746 20.2899 137.422 20.2899C138.231 20.2746 139.031 20.4638 139.747 20.8401C140.463 21.2163 141.073 21.7674 141.52 22.4421C142.563 23.832 143.05 25.9154 143.05 28.6263C143.05 33.4178 142.147 36.9626 140.411 39.2552C138.743 41.4762 136.241 42.866 133.461 42.7284C132.545 42.6968 131.636 42.5564 130.753 42.3101C130.406 42.1725 129.988 42.0349 129.988 41.5477C129.974 41.2479 130.072 40.9537 130.263 40.7221C130.451 40.5892 130.663 40.4956 130.888 40.4469C131.097 40.3065 131.375 40.1716 131.584 40.0285C132.069 39.7432 132.512 39.3932 132.903 38.9882C133.862 38.0381 134.618 36.9033 135.126 35.6526C136.227 33.0132 136.863 29.6776 135.952 26.9006C135.677 26.075 135.187 25.164 134.353 24.8861C133.66 24.6108 132.977 24.8861 132.41 25.3704C130.951 26.6227 130.602 28.8437 130.395 30.6519C129.977 33.5004 129.57 36.2773 128.937 39.1258C128.505 40.9586 128.18 42.8148 127.963 44.6852C127.753 46.3503 127.478 48.0181 127.412 49.6171V51.007C127.412 51.3537 127.412 51.7005 127.137 51.9097C126.79 52.1849 126.311 52.1849 125.887 52.2564C125.233 52.4686 124.558 52.608 123.873 52.672C123.511 52.7532 123.142 52.8002 122.772 52.8124C122.356 52.8812 121.869 52.8812 121.451 52.95C121.177 53.0354 120.881 53.0108 120.625 52.8812L120.554 52.8124C120.278 52.6032 120.278 52.1876 120.278 51.8409V50.5694C120.302 49.7294 120.394 48.8927 120.554 48.0676C120.694 47.3741 120.763 46.609 120.903 45.9154C121.041 45.0127 121.25 44.11 121.454 43.2073C121.663 42.1064 121.941 40.9835 122.15 39.8717C122.15 39.7313 122.219 39.5964 122.219 39.4533C123.468 33.5499 124.165 29.0336 124.165 25.8383C124.153 25.1465 124.011 24.463 123.746 23.8237C123.558 23.3622 123.326 22.9198 123.053 22.5027L122.621 21.8862C122.532 21.8109 122.466 21.7129 122.429 21.6029C122.392 21.4928 122.386 21.3748 122.411 21.2614C122.268 21.1926 122.409 21.1211 122.546 21.0523Z" fill="#193D4B"/>
</svg>
