<svg xmlns="http://www.w3.org/2000/svg" width="144" height="144" fill="none" xmlns:v="https://vecta.io/nano"><g clip-path="url(#B)"><mask id="A" maskUnits="userSpaceOnUse" x="-1" y="1" width="484" height="141"><path d="M482.232 1H0v140.912h482.232V1z" fill="#fff"/></mask><g mask="url(#A)"><path d="M28.401 12.96H18.021c-.764 0-1.383.622-1.383 1.39v116.112c0 .767.619 1.389 1.383 1.389h10.38c.764 0 1.383-.622 1.383-1.389V14.35c0-.767-.619-1.389-1.383-1.389z" fill="#ffb200"/><path d="M16.638 118.644h13.145v11.821c0 .768-.619 1.39-1.383 1.39h-10.38c-.764 0-1.383-.622-1.383-1.39v-11.821z" fill="red"/><path d="M54.692 12.96h-10.38c-.764 0-1.383.622-1.383 1.39v116.112c0 .767.619 1.389 1.383 1.389h10.38c.764 0 1.383-.622 1.383-1.389V14.35c0-.767-.619-1.389-1.383-1.389zm26.291 0h-10.38c-.764 0-1.383.622-1.383 1.39v116.112c0 .767.619 1.389 1.383 1.389h10.38c.764 0 1.383-.622 1.383-1.389V14.35c0-.767-.619-1.389-1.383-1.389zm26.285 0H96.889c-.764 0-1.383.622-1.383 1.39v116.112c0 .767.619 1.389 1.383 1.389h10.379c.764 0 1.383-.622 1.383-1.389V14.35c0-.767-.619-1.389-1.383-1.389zm26.297 46.239h-10.379c-.764 0-1.383.622-1.383 1.39V84.23c0 .767.619 1.389 1.383 1.389h10.379c.764 0 1.383-.622 1.383-1.389V60.589c0-.767-.619-1.39-1.383-1.39z" fill="#ffb200"/></g></g><defs><clipPath id="B"><path fill="#fff" transform="translate(0 1)" d="M0 0h144v141H0z"/></clipPath></defs></svg>