<svg xmlns="http://www.w3.org/2000/svg" width="144" height="144" fill="none" xmlns:v="https://vecta.io/nano"><g clip-path="url(#A)" fill="#29f1fb"><path d="M76.375 23.33h25.104c16.026.1 30.73 10.337 36.325 25.279 2.411 6.452 2.935 13.128 2.247 19.982-1.008 10.066-4.01 19.408-9.697 27.781-8.775 12.925-21.144 20.107-36.461 22.499-5.192.809-10.403.713-15.62.713-2.165 0-3.323-.991-3.451-2.784-.139-1.921 1.068-3.397 3.205-3.525 2.365-.146 4.747-.025 7.123-.089 14.42-.392 26.906-5.365 36.796-16.04 6.93-7.485 10.441-16.603 11.631-26.651.826-6.972.737-13.901-2.016-20.506-4.224-10.105-11.791-16.3-22.212-19.173-4.046-1.116-8.191-1.326-12.34-1.351l-46.468-.039c-.652 0-1.31.025-1.959-.032a3.12 3.12 0 0 1-2.825-2.93 3.04 3.04 0 0 1 2.493-3.04 11.93 11.93 0 0 1 2.137-.103h25.998l-.011.011zM60.513 97.47H32.735a13.57 13.57 0 0 1-1.781-.039c-1.606-.218-2.618-1.141-2.774-2.766s.605-2.737 2.137-3.308c.972-.356 1.991-.282 2.995-.282l54.823-.032c6.41-.021 11.944-2.399 16.343-7.104 3.772-4.035 5.748-8.911 6.336-14.4.463-4.306-.15-8.266-2.821-11.78-2.97-3.921-6.983-5.889-11.809-5.91l-51.796-.053c-1.834 0-3.672-.15-5.499-.321-1.578-.146-2.45-1.098-2.557-2.688-.117-1.732.769-2.98 2.34-3.283.526-.075 1.058-.1 1.588-.075h55.557c9.334.018 17.404 5.667 20.346 14.5 2.087 6.27 1.343 12.59-.997 18.667-4.494 11.666-15.075 18.842-27.597 18.874H60.513zM19.088 51.488h-6.41c-1.781-.032-3.148-1.205-3.351-2.802s.798-2.969 2.724-3.361a16.8 16.8 0 0 1 3.184-.21h8.722a11.35 11.35 0 0 1 2.635.307c1.57.399 2.429 1.739 2.244 3.368s-1.168 2.609-2.813 2.663c-2.311.078-4.63.021-6.941.021l.007.014zm38.979 68.081h-6.054c-1.916-.043-3.205-1.13-3.401-2.734a3.21 3.21 0 0 1 .729-2.333 3.2 3.2 0 0 1 2.16-1.142 84.14 84.14 0 0 1 12.956-.018 2.99 2.99 0 0 1 2.133 1.03 3 3 0 0 1 .716 2.26c-.132 1.782-1.385 2.873-3.366 2.951h-5.873v-.014z"/></g><defs><clipPath id="A"><path fill="#fff" transform="translate(2 16)" d="M0 0h141v111H0z"/></clipPath></defs></svg>