<svg xmlns="http://www.w3.org/2000/svg" width="144" height="144" fill="none" xmlns:v="https://vecta.io/nano"><g clip-path="url(#A)"><g clip-path="url(#B)"><path d="M102.143 51.549H67.685c.165.828.495 1.655.659 2.317 1.154 3.972 1.814 8.11 2.143 12.414.165 1.655.165 3.476.165 5.131s0 3.476-.165 5.131c-.33 4.303-.989 8.441-2.143 12.414-.165.828-.495 1.655-.659 2.317h34.458c10.881 0 19.619-8.938 19.619-19.862s-8.738-19.862-19.619-19.862z" fill="#00a9e5"/><path d="M70.488 76.542c.165-1.655.165-3.476.165-5.131l-.165-5.131c-.33-4.303-.989-8.441-2.143-12.414-.165-.828-.495-1.655-.659-2.317H14.432c-1.978 6.29-2.968 12.91-2.968 19.862s.989 13.572 2.968 19.862h53.253c.165-.828.495-1.655.659-2.317 1.154-3.972 1.814-8.11 2.143-12.414z" fill="#353535"/><path d="M108.077 97.893H65.21c-1.319 2.979-2.803 5.793-4.452 8.441-2.473 4.138-5.441 7.779-8.738 11.255-1.154 1.158-2.308 2.151-3.462 3.31-2.308 2.152-4.946 3.972-7.584 5.793 10.387 6.952 22.917 10.924 36.271 10.924 22.917 0 43.031-11.752 54.902-29.462-6.101-6.289-14.674-10.261-24.071-10.261z" fill="#00bfb3"/><path d="M60.759 106.334c1.649-2.648 3.133-5.462 4.451-8.441H16.904c5.111 11.751 13.519 21.847 24.236 28.799 2.638-1.821 5.111-3.641 7.584-5.793 1.154-.993 2.308-2.152 3.462-3.31 3.133-3.311 6.1-7.117 8.573-11.255z" fill="#019b8f"/><path d="M52.022 25.23l-3.462-3.31c-2.308-2.152-4.946-3.972-7.584-5.793-10.552 6.952-18.96 17.048-24.236 28.8h48.307c-1.319-2.979-2.803-5.793-4.452-8.441-2.308-4.138-5.276-7.945-8.573-11.255z" fill="#f9b110"/><path d="M77.246 5.202c-13.354 0-25.885 3.972-36.271 10.924 2.638 1.821 5.111 3.641 7.584 5.793 1.154.993 2.308 2.152 3.462 3.31 3.297 3.476 6.265 7.117 8.738 11.255 1.649 2.648 3.133 5.462 4.452 8.441h42.867c9.397 0 17.97-3.972 24.071-10.262-11.871-17.71-31.985-29.462-54.902-29.462z" fill="#fed10a"/></g></g><defs><clipPath id="A"><path fill="#fff" d="M0 0h144v144H0z"/></clipPath><clipPath id="B"><path fill="#fff" transform="translate(8 2)" d="M0 0h128v139H0z"/></clipPath></defs></svg>