<svg xmlns="http://www.w3.org/2000/svg" width="144" height="144" fill="#000" xmlns:v="https://vecta.io/nano"><path d="M65.666 5.474C50.414 8.874 34.748 20.232 27.619 33l-2.238 4.145 6.383-3.648c17.158-9.783 37.135-11.192 52.967-3.565 6.465 2.985 14.174 11.11 17.656 18.322 3.315 6.964 6.465 18.157 7.211 25.452.498 5.804.581 5.886 2.155 4.477 2.487-2.239 7.212-12.768 8.538-19.069 3.399-16.084-.58-30.261-11.522-40.707C96.667 6.801 80.918 2.075 65.666 5.474zM30.851 43.033c-3.233 3.151-7.543 7.13-9.45 8.871C10.875 61.107 3 78.269 3 92.031c0 6.55 2.487 16.83 5.554 23.131 6.714 13.846 24.37 23.297 45.756 24.54 7.792.498 7.875.498 5.885-.994-5.719-4.063-11.853-10.861-14.257-15.836-2.321-4.725-2.735-6.466-2.984-13.431-.331-7.047-.083-8.622 1.658-13.016 3.647-8.954 8.206-12.933 18.153-16.001 8.952-2.736 12.434-6.384 15.667-16.747 1.824-5.969 1.243-7.876-2.735-8.457-16.993-2.487-21.635-4.394-29.841-12.519-3.316-3.316-6.217-5.389-7.294-5.389s-4.062 2.239-7.709 5.721zm18.982 7.047c1.409.995 1.409 1.492.497 6.218-.912 4.477-.829 5.472.331 7.213 2.072 3.233 5.388 2.653 9.615-1.741 3.647-3.731 4.642-4.145 9.615-3.897 1.907.166 2.57.498 2.238 1.327-.497 1.327 1.741 3.814 3.481 3.814 1.492 0 1.492.414-.249 3.15-4.476 7.213-10.776 10.944-18.65 10.944-11.688-.083-19.148-9.203-16.91-20.975 1.16-6.052 5.968-9.037 10.03-6.052zm79.161 10.362c0 .912-1.077 4.892-2.403 8.788-6.383 19.151-21.303 34.904-37.384 39.795-8.538 2.487-28.763 2.487-37.467-.083-4.227-1.243.663 8.54 7.958 15.918 11.853 11.939 26.608 16.001 43.435 11.939 30.421-7.296 45.425-32.997 36.141-62.18-2.818-8.954-10.279-19.234-10.279-14.177z"/></svg>