<svg xmlns="http://www.w3.org/2000/svg" width="144" height="144" fill="none" xmlns:v="https://vecta.io/nano"><path d="M59.849 16.806a7.88 7.88 0 0 0-5.692-2.442c-2.144 0-4.14.888-5.618 2.442s-2.365 3.627-2.291 5.773c0 2.146.813 4.219 2.291 5.773s3.548 2.368 5.618 2.368c2.144 0 4.213-.814 5.692-2.368s2.365-3.627 2.291-5.773c.074-2.146-.813-4.219-2.291-5.773zM54.157 128.71c2.144 0 4.213-.888 5.692-2.368 1.478-1.554 2.365-3.627 2.291-5.773 0-2.22-.813-4.293-2.291-5.847s-3.548-2.368-5.692-2.368-4.14.814-5.618 2.368c-1.552 1.554-2.365 3.701-2.291 5.847 0 2.146.887 4.145 2.365 5.625 1.478 1.554 3.548 2.368 5.618 2.368l-.074.148zm43.686-24.719c2.07-.518 3.844-1.925 4.878-3.775l.148-.296c.961-1.776 1.183-3.923.666-5.847-.518-2.072-1.848-3.849-3.77-4.959l-.148-.074c-3.844-2.146-8.722-.74-10.866 3.109-2.218 3.923-.961 8.881 2.957 11.176 1.848.962 4.066 1.258 6.135.666zM62.362 63.137c-4.435-4.515-11.679-4.663-16.188-.222l-.222.222c-2.218 2.22-3.4 5.255-3.4 8.363s1.183 6.143 3.4 8.363c4.435 4.515 11.753 4.589 16.262.148l.148-.148c2.144-2.22 3.4-5.255 3.4-8.363s-1.183-6.069-3.4-8.363zm-4.657-13.914a22.28 22.28 0 0 1 12.049 6.365c.517.518 1.035 1.11 1.478 1.628l7.983-4.737c-2.513-7.845.665-16.504 7.836-20.723l.148-.074c3.918-2.294 8.575-2.886 13.01-1.702 4.435 1.258 8.279 4.219 10.497 8.215 2.291 4.071 2.883 8.881 1.7 13.322-1.183 4.515-4.066 8.363-8.057 10.732l-1.109.666h-.148c-3.696 1.776-7.909 2.22-11.901 1.11-3.252-.888-6.135-2.738-8.353-5.255l-7.983 4.737a22.54 22.54 0 0 1 0 15.986l7.983 4.663c2.218-2.516 5.1-4.367 8.353-5.255a16.73 16.73 0 0 1 13.158 1.776l.295.148c3.844 2.368 6.653 6.143 7.762 10.584 1.183 4.515.591 9.325-1.7 13.322l-.148.296c-2.292 3.922-5.988 6.735-10.349 7.993-4.435 1.184-9.166.592-13.157-1.776-7.096-4.219-10.349-12.804-7.836-20.723l-7.983-4.737c-.444.592-.961 1.11-1.478 1.628-3.252 3.331-7.466 5.551-12.049 6.291v9.4c3.252.74 6.283 2.368 8.649 4.81 6.801 6.883 6.801 17.985 0 24.942-6.579 6.735-17.371 6.883-24.172.296l-.296-.296c-6.801-6.883-6.801-17.985 0-24.942 2.365-2.368 5.322-4.07 8.649-4.81v-9.4c-4.583-.74-8.796-2.96-12.049-6.291-8.649-8.881-8.649-23.017 0-31.899a22.28 22.28 0 0 1 12.049-6.365v-9.251c-3.252-.74-6.283-2.368-8.649-4.811-6.801-6.883-6.801-17.985 0-24.942 6.579-6.735 17.371-6.883 24.098-.296.148.074.222.222.296.296 6.801 6.957 6.801 17.985 0 24.942-2.365 2.368-5.322 4.071-8.649 4.811l.074 9.325zm45.016-6.217v-.074c-1.034-1.85-2.808-3.182-4.804-3.701a7.76 7.76 0 0 0-6.135.814c-1.848 1.11-3.178 2.886-3.696 4.959s-.296 4.293.813 6.217c1.035 1.85 2.809 3.182 4.879 3.775s4.213.296 6.061-.814h.074c1.775-1.11 3.105-2.886 3.623-4.885.517-2.22.221-4.441-.814-6.291z" fill="#231f20"/></svg>