<svg xmlns="http://www.w3.org/2000/svg" width="144" height="144" fill="none" xmlns:v="https://vecta.io/nano"><path d="M139.375 28.451c-.367-.305-.834-.465-1.311-.45-1.302 0-2.987.9-3.889 1.35l-.364.184a12.41 12.41 0 0 1-4.855 1.251l-5.165.355c-11.524 1.188-16.64 10.023-21.584 18.566-2.695 4.647-5.471 9.447-9.284 13.172-.788.766-1.627 1.478-2.511 2.132-3.943 2.947-8.897 5.025-12.768 6.51-3.71 1.422-7.761 2.699-11.677 3.932-3.593 1.134-6.966 2.2-10.078 3.356-1.406.526-2.6.9-3.651 1.273-2.834.949-4.882 1.629-7.864 3.675-1.163.796-2.331 1.665-3.144 2.312a33.02 33.02 0 0 0-6.229 6.577c-1.51 2.278-3.256 4.389-5.21 6.298-.629.621-1.747.9-3.422.9-1.963 0-4.343-.405-6.863-.832-2.591-.45-5.277-.9-7.576-.9-1.873 0-3.301.301-4.374.927 0 0-1.796 1.053-2.555 2.412l.746.337a15.63 15.63 0 0 1 3.189 2.285 15.75 15.75 0 0 0 3.31 2.358c.384.154.731.387 1.02.683-.314.45-.777 1.053-1.258 1.687-2.659 3.482-4.208 5.687-3.319 6.883a2.76 2.76 0 0 0 1.347.315c5.794 0 8.902-1.507 12.84-3.419l3.683-1.678c2.299-.998 4.778-2.595 7.401-4.282 3.476-2.25 7.069-4.553 10.55-5.669a28.56 28.56 0 0 1 8.852-1.25c3.696 0 7.559.499 11.295.976 2.789.36 5.672.729 8.502.9a54.06 54.06 0 0 0 3.108.094 35.5 35.5 0 0 0 3.966-.207l.314-.112c1.985-1.22 2.915-3.842 3.818-6.38.579-1.633 1.064-3.095 1.819-4.049.048-.045.099-.085.153-.121.036-.02.078-.027.118-.021s.078.026.106.057v.072c-.476 9.92-4.446 16.195-8.479 21.81l-2.695 2.892s3.768 0 5.91-.827c7.824-2.344 13.734-7.509 18.032-15.746 1.06-2.114 2.008-4.282 2.838-6.496.072-.184.755-.526.687.45 0 .283-.04.598-.063.9 0 .194-.027.391-.035.589-.113 1.372-.45 4.31-.45 4.31l2.417-1.3c5.838-3.698 10.329-11.125 13.725-22.705 1.419-4.823 2.456-9.609 3.372-13.838 1.096-5.052 2.044-9.416 3.144-11.103 1.698-2.645 4.289-4.44 6.795-6.172l1.024-.715c3.144-2.213 6.288-4.778 6.98-9.546v-.104c.521-3.536.094-4.445-.387-4.858z" fill="#231f20"/></svg>