<svg xmlns="http://www.w3.org/2000/svg" width="144" height="144" fill="none" xmlns:v="https://vecta.io/nano"><path d="M3 95.972V47.106C3 7.637 8.605 2 47.846 2h48.727c39.239 0 44.843 5.637 44.843 45.106v48.866c0 39.469-5.605 45.106-44.846 45.106H47.846C8.607 141.078 3 135.441 3 95.972z" fill="url(#A)"/><path d="M32.882 28.227c-6.801 43.327-3.243 83.889-3.243 83.889h21.266c-2.023-10.817-9.282-60.232-3.244-60.394 3.236.516 18.024 41.922 18.024 41.922s3.256-.408 6.533-.408 6.534.408 6.534.408 14.789-41.407 18.024-41.922c6.042.163-1.218 49.577-3.24 60.394h21.267s3.56-40.565-3.246-83.891H91.868c-3.748.044-18.007 25.172-19.646 25.172S56.323 28.272 52.575 28.227H32.882z" fill="url(#B)"/><path d="M68.026 107.06c0 2.793-2.254 5.054-5.034 5.054s-5.031-2.264-5.031-5.054 2.254-5.058 5.031-5.058 5.034 2.264 5.034 5.058z" fill="url(#C)"/><path d="M86.481 107.06c0 2.793-2.254 5.054-5.031 5.054s-5.031-2.264-5.031-5.054 2.251-5.058 5.032-5.058 5.032 2.264 5.032 5.058h-.002z" fill="url(#D)"/><path opacity=".1" d="M110.555 29.657c3.069 20.874 3.786 40.907 3.733 55.83-.058 15.263-.929 25.18-.929 25.18H95.455l-1.924 1.448H114.8s3.559-40.564-3.243-83.89l-1.002 1.432zm-56.357-.527c5.588 6.245 15.254 22.818 16.579 22.818-3.543-4.552-12.244-19.075-16.579-22.818zm-7.973 21.143c-6.039.163 1.221 49.578 3.245 60.395H30.903l-1.26 1.448H50.91c-2.013-10.76-9.209-59.737-3.335-60.393-.546-.826-1.02-1.396-1.351-1.449h.001zm49.116 0c-3.236.516-18.023 41.923-18.023 41.923s-3.256-.408-6.533-.408a51.31 51.31 0 0 0-4.737.226l-.352 1.63s3.256-.407 6.533-.407a60.24 60.24 0 0 1 6.534.408s14.675-41.135 17.979-41.923c-.356-.906-.795-1.433-1.397-1.449h-.004z" fill="#1c1c1c"/><path opacity=".3" d="M32.886 28.227c-6.806 43.326-3.247 83.889-3.247 83.889l1.252-1.415c-.641-9.57-2.353-44.179 3.434-81.027h19.69c.416.005.974.348 1.623.905-1.289-1.441-2.361-2.345-3.064-2.354l-19.687.003zm58.981 0c-3.748.045-18.007 25.172-19.645 25.172.668.859 1.211 1.451 1.442 1.451 1.639 0 15.898-25.127 19.646-25.172h17.376l.872-1.448-19.69-.002zm-42.85 24.945C53.8 60.39 65.688 93.647 65.688 93.647l.348-1.622c-2.935-8.087-14.119-38.404-16.93-38.852-.031.001-.06-.003-.09 0zm49.204 0c3.208 8.221-2.865 49.214-4.686 58.942l1.931-1.513c2.463-14.516 8.393-57.279 2.757-57.431l-.002.002z" fill="#fff"/><defs><linearGradient id="A" x1="72.209" y1="141.079" x2="72.209" y2="2" gradientUnits="userSpaceOnUse"><stop stop-color="#574c4a"/><stop offset="1" stop-color="#80716d"/></linearGradient><linearGradient id="B" x1="105.894" y1="110.768" x2="54.553" y2="21.152" gradientUnits="userSpaceOnUse"><stop stop-color="#268d83"/><stop offset="1" stop-color="#2ea19e"/></linearGradient><radialGradient id="C" cx="0" cy="0" r="1" gradientUnits="userSpaceOnUse" gradientTransform="translate(62.1275 106.322) scale(5.03335 5.05735)"><stop stop-color="#db7c7c"/><stop offset="1" stop-color="#c83737"/></radialGradient><radialGradient id="D" cx="0" cy="0" r="1" gradientUnits="userSpaceOnUse" gradientTransform="translate(80.8704 106.322) scale(5.03335 5.05735)"><stop stop-color="#db7c7c"/><stop offset="1" stop-color="#c83737"/></radialGradient></defs></svg>