<svg xmlns="http://www.w3.org/2000/svg" width="144" height="144" fill="none" xmlns:v="https://vecta.io/nano"><path d="M84.592 18.381a245.06 245.06 0 0 1-11.901-15.3c-.108-.107-.271-.107-.379 0a245.12 245.12 0 0 1-11.902 15.3c-50.148 63.403 7.898 106.191 7.898 106.191l.487.322C69.228 131.497 70.31 141 70.31 141h2.164 2.164s1.082-9.449 1.515-16.106l.487-.376c.054.054 58.101-42.734 7.952-106.137zM72.474 123.606s-2.597-2.201-3.3-3.329v-.107l3.138-69.04c0-.215.325-.215.325 0l3.138 69.04v.107c-.703 1.128-3.3 3.329-3.3 3.329z" fill="#001e2b"/></svg>