<svg xmlns="http://www.w3.org/2000/svg" width="144" height="144" fill="none" xmlns:v="https://vecta.io/nano"><path d="M92.127 66.245l-26.908 8.84-23.41 10.394-6.549 1.74-5.308 4.85-5.492 4.624c-1.647 1.31-4.088 3.765-5.329 5.32-1.851 2.332-3.315 4.808-3.946 6.711-1.119 3.438-.569 6.916 1.586 10.129 2.766 4.092 8.278 8.266 14.705 11.11 3.275 1.454 8.786 3.315 12.935 4.359 6.895 1.76 20.237 3.663 27.579 3.949 1.484.062 3.478.062 3.559 0 .163-.102 1.302-2.292 2.624-5.013 4.515-9.269 7.769-17.965 9.539-25.393 1.057-4.501 1.891-10.497 2.44-17.597.143-1.985.203-8.635.081-10.886-.183-3.683-.509-6.67-1.017-9.596-.081-.43-.102-.819-.061-.839.081-.061.325-.143 3.64-1.105l-.671-1.596h0 0 0zm-6.142 3.622c.244 0 .895 6.282 1.057 10.251.041.839.02 1.391-.02 1.391-.162 0-3.437-1.944-5.776-3.417-2.034-1.289-5.898-3.868-6.508-4.359-.204-.143-.184-.163 1.484-.737 2.827-.962 9.539-3.131 9.763-3.131zm-13.708 4.543c.183 0 .651.266 1.769.962 4.19 2.639 9.885 5.832 12.325 6.896.752.327.834.204-.895 1.391-3.702 2.537-8.319 5.033-13.973 7.55-.996.45-1.83.798-1.85.798-.04 0 .081-.511.244-1.125 1.363-5.095 2.136-10.252 2.177-14.385.02-2.046.02-2.046.203-2.107-.041.02-.021.02 0 .02zm-2.827 1.084c.122.123.041 4.706-.122 5.954a52.34 52.34 0 0 1-1.871 8.901c-.224.757-.427 1.391-.468 1.432-.082.102-2.868-2.64-3.783-3.704-1.587-1.842-2.827-3.683-3.742-5.484-.468-.921-1.2-2.721-1.139-2.783.325-.225 11.044-4.399 11.125-4.317zm-13.302 5.259c.02 0 .041 0 .061.02.041.041.183.368.305.737.651 1.78 2.115 4.399 3.376 6.077 1.383 1.842 3.193 3.806 4.698 5.095.488.409.936.798.996.859.122.123.163.102-3.152 1.371-3.844 1.473-8.034 2.946-12.834 4.501l-3.437 1.125c-.183.062-.122-.041.406-.879 2.38-3.745 6-11.09 8.034-16.288l.753-2.005c.081-.287.183-.389.447-.532.142-.041.285-.082.346-.082zM52.08 82.45c.061.041-.977 2.23-1.993 4.236-1.973 3.867-4.129 7.673-7.017 12.298l-1.017 1.616c-.102.143-.142.102-.468-.532-.691-1.371-1.261-3.131-1.566-4.747-.305-1.596-.244-4.379.102-6.097.264-1.268.244-1.248.854-1.555 2.603-1.33 11.024-5.3 11.105-5.218zm35.084 1.433v.859c0 4.563-.488 10.824-1.2 15.388l-.244 1.473-1.281-.369a52.26 52.26 0 0 1-9.356-4.03c-1.973-1.084-4.841-2.865-4.759-2.947.02-.02.874-.471 1.871-1.003 3.987-2.087 7.81-4.338 11.126-6.568 1.241-.839 3.112-2.189 3.519-2.558l.325-.246zm-50.44 6.056c.081 0 .061.164-.061.9-.081.532-.183 1.514-.223 2.189-.163 2.987.325 5.197 1.79 8.226.407.839.732 1.534.712 1.554-.143.123-13.606 4.093-17.837 5.259l-2.441.675c-.142.041-.163.021-.102-.327.468-3.008 2.746-6.936 5.919-10.251 2.115-2.21 3.804-3.499 6.692-5.156 2.075-1.186 5.268-2.966 5.512-3.049 0-.02.02-.02.041-.02zm31.728 5.709c.02-.02.508.246 1.098.594 4.353 2.537 10.414 4.891 15.579 6.097l.468.103-.651.367c-2.705 1.515-11.593 5.239-20.684 8.656l-2.868 1.084c-.244.103-.468.164-.468.144s.366-.737.834-1.617c2.542-4.788 5.105-10.619 6.407-14.671.163-.389.265-.736.285-.757zm-3.234 1.064c.021.021-.142.45-.346.941-1.769 4.318-4.088 9.024-7.058 14.303l-1.404 2.435c-.02 0-.63-.368-1.362-.818-4.312-2.66-8.136-5.934-10.637-9.106l-.366-.45 1.851-.512c6.631-1.82 12.264-3.785 17.857-6.199l1.465-.594zm20.095 7.059c.02.471-1.017 4.686-1.871 7.735-.712 2.557-1.322 4.563-2.441 8.103l-.936 2.844c-.02 0-.142-.021-.264-.061-6.04-1.106-11.451-2.64-16.535-4.686-1.424-.573-3.458-1.494-3.58-1.596-.041-.042 1.18-.614 2.725-1.29 9.254-4.071 18.854-8.696 22.149-10.68.386-.246.691-.369.753-.369zm-46.393 1.597c.041.04-2.542 3.785-6.163 8.88l-3.274 4.645c-.549.777-1.383 2.005-1.851 2.742l-.855 1.33-.915-.778a33.95 33.95 0 0 1-3.783-3.888c-1.749-2.189-2.929-4.501-3.396-6.608-.224-.983-.224-1.474-.021-1.535.305-.082 5.735-1.371 10.821-2.558l7.281-1.719 2.156-.511zm2.603 1.002l.651.737c2.929 3.294 5.919 5.729 9.539 7.857.651.369 1.139.696 1.098.717-.142.102-12.569 4.541-18.325 6.547l-5.918 2.066c-.02 0-.203-.122-.407-.266l-.366-.266.59-.859c1.912-2.783 4.312-5.831 9.539-12.174l3.6-4.359zm16.231 11.684c.02-.021.915.306 2.013.716 2.644 1.003 4.739 1.637 7.546 2.353 3.458.88 8.461 1.739 11.41 1.985.448.041.692.082.61.143-.143.082-3.132 1.085-5.329 1.78-3.499 1.105-14.176 4.277-22.881 6.794l-3.071.879c-.203.041-.875-.143-.875-.225 0-.041.488-.675 1.078-1.371 2.928-3.519 5.837-7.448 8.258-11.172l1.241-1.882zm-3.58.102c.02.021-1.424 2.353-3.945 6.363l-2.705 4.297-1.363 2.251-.59 1.044-.305-.082c-.732-.205-5.878-2.026-7.241-2.578-1.688-.676-3.437-1.494-4.739-2.19-1.627-.879-3.661-2.189-3.498-2.23.041-.02 2.827-.778 6.183-1.698l17.085-4.87c.59-.184 1.098-.328 1.119-.307zm25.322 5.975h.02c.081.204-3.213 9.412-4.414 12.318-.264.654-.365.818-.508.797-.346-.02-5.125-.695-8.034-1.125-5.064-.777-13.566-2.271-15.701-2.762l-.488-.102 3.03-.696c6.509-1.474 9.641-2.271 12.813-3.254 4.007-1.227 7.973-2.762 11.98-4.644.63-.287 1.159-.512 1.302-.532z" fill="url(#A)"/><path d="M64.385 3.141c-.447-.061-7.668 2.558-12.325 4.461-6.285 2.579-11.166 5.034-14.176 7.162-1.118.798-2.522 2.21-2.745 2.762-.081.205-.122.45-.122.696l2.726 2.599 6.488 2.087 15.437 2.783 17.654 3.049.183-1.535c-.061 0-.102-.02-.162-.02l-2.319-.368-.468-.839c-2.4-4.256-5.044-9.535-6.59-13.096-1.2-2.762-2.339-5.954-2.97-8.246-.346-1.391-.386-1.473-.61-1.494h0-.001 0zm-.326 1.044h.021c.02.02.101.593.183 1.268.345 2.865.976 5.627 1.973 8.614.752 2.251.752 2.128-.122 1.862-2.075-.573-11.369-2.189-18.101-3.13-1.078-.143-1.993-.287-1.993-.307-.081-.082 4.861-2.681 7.037-3.704C55.843 7.5 63.49 4.287 64.059 4.185zm-19.606 9.167l.794.266c4.311 1.473 15.152 3.561 21.132 4.052l1.261.123c.02.02-.549.327-1.281.675-2.888 1.453-6.061 3.233-8.257 4.604-.651.409-1.241.737-1.322.737s-.508-.082-.956-.143l-.813-.123-2.034-2.005-7.464-7.223-1.058-.961zm-.813.634l2.868 3.601 3.499 4.358c.345.43.63.778.61.798-.082.061-4.149-.737-6.305-1.228-2.217-.512-3.132-.757-4.495-1.187l-1.119-.368v-.287c.02-1.371 1.749-3.417 4.678-5.504l.264-.184zm24.366 4.911c.081 0 .183.184.427.736.692 1.535 2.848 5.668 3.376 6.466.163.266.447.287-2.42-.184l-9.112-1.534c0-.02.203-.164.468-.307 2.136-1.187 4.291-2.701 6.203-4.317l.976-.819c.02-.041.061-.061.081-.041z" fill="url(#B)"/><path d="M35.28 17.239s-.447.716-.02 1.781c.265.654 1.037 1.452 1.912 2.271l10.149 10.149c5.003 5.811 7.18 11.54 7.383 19.438.122 5.075-.834 9.535-3.214 14.712-4.23 9.29-13.159 19.541-26.929 30.918l2.014-.675c1.302-.982 3.071-2.026 7.22-4.317 9.579-5.279 20.359-10.129 33.579-15.121 19.037-7.203 50.338-15.633 68.155-18.375l1.851-.287-.285-.45c-1.627-2.537-2.746-4.113-4.088-5.791-3.905-4.87-8.644-8.819-14.441-12.093-7.972-4.481-18.285-7.98-31.342-10.579-2.461-.491-7.871-1.432-12.264-2.108l-21.966-3.601-8.298-1.534c-1.22-.266-3.559-.819-5.39-1.453-1.464-.573-3.58-1.146-4.027-2.885zm5.248 5.116c.02-.02.345.102.773.246.773.266 1.769.573 2.949.9l2.685.716 2.257.593c.143.143 2.197 6.752 2.888 9.289.264.962.468 1.78.447 1.78-.021.021-.244-.327-.509-.798-2.38-4.215-6.142-8.492-10.495-11.929-.569-.409-.996-.777-.996-.798zm10.007 2.783c.102 0 .549.061 1.098.184 3.458.777 9.661 1.964 13.627 2.64.671.102 1.2.225 1.2.266s-.244.184-.55.348c-.671.348-3.376 1.964-4.271 2.578-2.258 1.514-4.291 3.151-5.756 4.624l-1.099 1.084s-.122-.348-.224-.778c-.732-2.844-2.257-7.059-3.64-10.026-.224-.471-.407-.9-.407-.941 0 .041 0 .02.021.02zm17.613 3.376c.122.041.325.737.732 2.271.753 2.967 1.098 6.282.976 9.372-.041.859-.081 1.657-.122 1.76l-.061.204-1.058-.348c-2.176-.696-5.715-1.739-8.745-2.599-1.729-.471-3.132-.9-3.132-.941 0-.123 2.522-2.66 3.6-3.622 2.054-1.821 7.627-6.159 7.81-6.098zm1.403.204c.061-.061 8.42 1.391 12.224 2.128l7.18 1.514c.122.041-.305.286-1.668.9-5.369 2.435-9.356 4.624-13.321 7.285l-1.932 1.269c-.02 0-.041-.593-.041-1.309 0-3.888-.773-7.816-2.197-11.131-.142-.327-.264-.634-.244-.655zm21.62 4.297c.061.061-.203 1.719-.448 2.701-.732 3.049-2.705 7.571-5.125 11.827-.427.757-.814 1.371-.855 1.391s-.59-.287-1.22-.655c-2.359-1.391-5.044-2.701-7.973-3.929-.813-.348-1.525-.634-1.546-.675-.143-.123 6.407-4.481 9.864-6.568 2.746-1.678 7.22-4.174 7.302-4.092zm1.546.245c.183 0 3.885 1.023 5.817 1.596 4.779 1.432 10.271 3.458 13.85 5.095l1.485.675-1.037.245c-8.746 2.025-16.23 4.358-23.451 7.305-.59.245-1.119.45-1.159.45s.163-.471.427-1.044c2.176-4.645 3.58-9.494 3.925-13.628.021-.389.081-.696.142-.696zm-36.854 8.512c.061-.062 2.888.614 4.413 1.043 2.319.655 7.24 2.312 7.24 2.435 0 .02-.549.491-1.2 1.064-2.664 2.23-5.227 4.583-8.299 7.571-.915.88-1.688 1.596-1.728 1.596s-.061-.123-.041-.287c.468-3.438.366-7.857-.285-12.338-.061-.573-.122-1.064-.102-1.084zm59.41.062c.04.041-1.302 2.169-2.156 3.376-1.22 1.76-3.011 4.093-7.058 9.208l-5.329 6.773-1.505 1.882c-.02 0-.284-.368-.569-.818-2.278-3.438-5.004-6.446-8.237-9.147l-1.505-1.228c-.224-.164-.407-.327-.407-.348 0-.061 3.457-1.555 6.081-2.619 4.597-1.883 10.86-4.133 15.559-5.586 2.461-.777 5.085-1.535 5.126-1.493zm1.566.409c.081-.02.569.225 1.159.573 4.942 2.844 9.783 6.507 13.607 10.272 1.078 1.064 3.742 3.847 3.701 3.867l-2.034.164c-8.562.655-19.525 2.476-30.06 5.033l-1.383.307c-.04 0 .752-.798 1.749-1.759 6.183-5.995 9.01-9.781 12.346-16.533l.915-1.923c-.021 0-.021 0 0 0zm-45.295 4.666c.285.061 2.929 1.31 4.922 2.312 1.831.92 4.576 2.394 4.719 2.517.02.02-.956.532-2.156 1.125a141.56 141.56 0 0 0-10.515 5.831l-1.81 1.085c-.081 0-.061-.082.488-1.085 1.831-3.355 3.295-7.366 4.129-11.274.081-.307.163-.511.223-.511zm-2.644.491c.061.062-.63 2.578-1.057 3.949a50.55 50.55 0 0 1-3.6 8.307l-1.078 1.882-.508.819-1.139-1.105c-1.322-1.289-2.4-2.087-3.783-2.803-.55-.286-.976-.532-.976-.573 0-.164 3.478-3.335 6.142-5.627 1.912-1.657 5.939-4.911 6-4.849zm16.17 6.691l.997.654c2.277 1.494 4.962 3.479 7.017 5.218 1.159.961 3.396 2.988 3.844 3.479l.244.266-1.647.47c-9.315 2.598-16.515 4.911-24.915 8.021-.936.348-1.729.634-1.79.634-.122 0-.224.102 1.871-1.842 5.37-4.972 10.129-10.456 13.668-15.796l.712-1.105zm-4.251 1.064c.04.041-2.746 3.99-4.414 6.22-1.993 2.66-5.532 7.121-7.973 10.026l-1.932 2.231c-.061.02-.081-.286-.081-.757 0-2.476-.63-5.116-1.729-7.366-.468-.941-.549-1.166-.447-1.269.386-.348 6.305-3.745 10.047-5.77 2.522-1.35 6.467-3.356 6.529-3.315zm-25.708 6.343c.061 0 .529.245 1.058.532a22.33 22.33 0 0 1 3.498 2.374c.04.041-.488.471-1.18.982a190.09 190.09 0 0 0-6.569 4.993c-1.79 1.432-1.851 1.473-1.648 1.166 1.342-2.067 2.013-3.233 2.725-4.727.63-1.33 1.261-2.905 1.708-4.276.163-.593.366-1.043.407-1.043zm6.854 5.402c.101-.02.224.164.773.982 1.159 1.739 2.054 4.072 2.278 5.954l.04.409-2.786 1.085c-4.983 1.944-9.58 3.867-12.692 5.299l-3.396 1.637c-.997.511-1.81.9-1.81.88s.63-.491 1.403-1.064c6.082-4.44 11.349-9.31 15.295-14.18l.854-1.003h.041zm-3.153.778c.081.082-2.237 2.721-3.824 4.338-3.925 4.031-7.81 7.182-12.63 10.252l-1.22.778c-.142.082.041-.123 2.156-2.435a55.65 55.65 0 0 0 3.519-4.194c.773-1.002.915-1.146 2.034-1.944 2.99-2.169 9.884-6.875 9.966-6.793z" fill="url(#C)"/><defs><linearGradient id="A" x1="34.864" y1="124.945" x2="44.625" y2="119.212" gradientUnits="userSpaceOnUse"><stop stop-color="#909ca9"/><stop offset="1" stop-color="#ededee"/></linearGradient><linearGradient id="B" x1="35.087" y1="15.9" x2="42.916" y2="15.9" gradientUnits="userSpaceOnUse"><stop stop-color="#939fab"/><stop offset="1" stop-color="#dcdee1"/></linearGradient><radialGradient id="C" cx="0" cy="0" r="1" gradientUnits="userSpaceOnUse" gradientTransform="translate(74.5927 52.0226) rotate(-171.407) scale(10.0951 20.3118)"><stop stop-color="#ee352c"/><stop offset="1" stop-color="#a91d22"/></radialGradient></defs></svg>