<svg xmlns="http://www.w3.org/2000/svg" width="144" height="144" fill="none" xmlns:v="https://vecta.io/nano"><path fill-rule="evenodd" d="M128.428 108.095c-7.294-.183-12.943.547-17.681 2.561-1.367.548-3.552.548-3.739 2.286.734.73.822 1.918 1.465 2.929 1.09 1.829 3 4.294 4.735 5.578 1.915 1.464 3.829 2.922 5.836 4.202 3.552 2.205 7.564 3.479 11.022 5.675 2.011 1.279 4.009 2.924 6.021 4.299.999.732 1.632 1.922 2.913 2.375v-.277c-.643-.821-.822-2.01-1.457-2.93-.909-.907-1.822-1.735-2.735-2.646-2.645-3.566-5.93-6.673-9.476-9.234-2.919-2.017-9.302-4.761-10.482-8.135l-.185-.187c2.006-.186 4.379-.919 6.292-1.473 3.094-.821 5.919-.635 9.109-1.456 1.46-.369 2.919-.829 4.383-1.279v-.829c-1.649-1.642-2.829-3.841-4.56-5.394-4.645-4.023-9.754-7.952-15.039-11.25-2.829-1.83-6.475-3.013-9.483-4.571-1.089-.55-2.909-.821-3.55-1.74-1.642-2.011-2.557-4.66-3.739-7.042-2.64-5.024-5.197-10.602-7.472-15.915-1.64-3.564-2.642-7.129-4.648-10.423-9.392-15.551-19.595-24.965-35.271-34.204-3.373-1.923-7.382-2.745-11.662-3.752l-6.837-.364c-1.46-.643-2.921-2.382-4.194-3.205C22.797 8.404 9.405 1.272 5.575 10.69c-2.461 5.948 3.645 11.799 5.742 14.818 1.548 2.101 3.556 4.483 4.644 6.857.639 1.555.822 3.205 1.462 4.848 1.457 4.024 2.822 8.506 4.74 12.258.999 1.921 2.091 3.935 3.367 5.665.736 1.012 2.008 1.464 2.282 3.115-1.272 1.827-1.371 4.571-2.099 6.859-3.279 10.335-2.006 23.138 2.644 30.728 1.455 2.286 4.923 7.318 9.571 5.392 4.101-1.643 3.19-6.856 4.374-11.426.273-1.105.09-1.83.635-2.561v.185l3.739 7.59c2.829 4.477 7.746 9.142 11.851 12.249 2.181 1.652 3.914 4.483 6.648 5.492v-.276h-.179c-.549-.821-1.367-1.189-2.097-1.827-1.64-1.647-3.458-3.66-4.74-5.488-3.826-5.12-7.203-10.793-10.204-16.646-1.462-2.842-2.736-5.948-3.922-8.782-.545-1.092-.545-2.743-1.459-3.291-1.371 2.01-3.371 3.75-4.372 6.212-1.733 3.937-1.914 8.783-2.557 13.816-.362.096-.179 0-.362.182-2.913-.731-3.916-3.749-5.012-6.301-2.734-6.502-3.193-16.928-.82-24.428.635-1.917 3.377-7.953 2.278-9.782-.551-1.745-2.372-2.742-3.373-4.119-1.182-1.737-2.465-3.928-3.277-5.852-2.189-5.12-3.289-10.792-5.651-15.912-1.094-2.382-3.012-4.852-4.557-7.042-1.735-2.47-3.647-4.207-5.016-7.131-.452-1.008-1.09-2.656-.364-3.75.179-.733.549-1.008 1.279-1.192 1.178-1.006 4.555.272 5.737.821 3.375 1.368 6.2 2.656 9.022 4.573 1.277.916 2.644 2.654 4.282 3.115h1.918c2.915.635 6.198.178 8.934 1.004 4.827 1.553 9.201 3.84 13.123 6.31 11.935 7.592 21.778 18.386 28.428 31.279 1.096 2.101 1.556 4.023 2.557 6.214 1.914 4.491 4.286 9.063 6.196 13.449 1.912 4.299 3.739 8.685 6.477 12.257 1.363 1.917 6.833 2.924 9.295 3.93 1.818.82 4.648 1.553 6.289 2.558 3.098 1.917 6.191 4.115 9.112 6.222 1.454 1.098 6.013 3.382 6.287 5.213" fill="#00758f"/></svg>