<svg xmlns="http://www.w3.org/2000/svg" width="144" height="144" fill="none" xmlns:v="https://vecta.io/nano"><g clip-path="url(#A)"><path d="M294.318 83.601h44.579L315.35 45.485l-43.292 68.844h-19.686l52.652-82.595a12.56 12.56 0 0 1 4.448-3.932 12.52 12.52 0 0 1 5.752-1.446 12.53 12.53 0 0 1 5.773 1.363 12.56 12.56 0 0 1 4.503 3.868l52.798 82.742h-19.686l-9.273-15.393h-45.105l-9.828-15.334m204.552 15.334V27.19h-16.731v78.813a8.11 8.11 0 0 0 .643 3.187c.427 1.008 1.054 1.919 1.843 2.677.792.812 1.739 1.456 2.784 1.895s2.168.661 3.3.656h76.053l9.916-15.393h-77.895m-276.54-12.901a29.36 29.36 0 0 0 20.787-8.631c5.513-5.526 8.611-13.021 8.611-20.836s-3.098-15.31-8.611-20.836a29.36 29.36 0 0 0-20.787-8.631h-73.127v87.14h16.702V42.612h55.401a14.05 14.05 0 0 1 9.949 4.131 14.12 14.12 0 0 1 0 19.945 14.05 14.05 0 0 1-9.949 4.131h-47.123l49.902 43.511h24.249l-33.521-28.206h7.517zM46.474 114.329h50.517a43.42 43.42 0 0 0 30.005-13.149c7.909-8.136 12.335-19.047 12.335-30.406s-4.426-22.27-12.335-30.406a43.42 43.42 0 0 0-30.005-13.149H46.474c-5.801-.151-11.574.864-16.977 2.985s-10.329 5.305-14.485 9.364A43.57 43.57 0 0 0 5.297 53.84a43.66 43.66 0 0 0 0 33.868 43.57 43.57 0 0 0 9.715 14.271c4.156 4.06 9.081 7.244 14.485 9.365s11.176 3.136 16.977 2.985zM95.85 98.994H47.586a28.11 28.11 0 0 1-19.309-8.571 28.24 28.24 0 0 1 0-39.241 28.11 28.11 0 0 1 19.309-8.571H95.85c3.77-.122 7.525.517 11.044 1.879s6.728 3.419 9.437 6.049a28.21 28.21 0 0 1 6.336 9.26 28.27 28.27 0 0 1 0 22.007 28.21 28.21 0 0 1-6.336 9.26c-2.709 2.63-5.919 4.687-9.437 6.049s-7.275 2.001-11.044 1.879zm317.344 15.335h51.57l9.77-15.335h-60.199c-3.77.122-7.525-.517-11.044-1.879s-6.728-3.419-9.437-6.049a28.21 28.21 0 0 1-6.336-9.26 28.27 28.27 0 0 1 0-22.007 28.21 28.21 0 0 1 6.336-9.26c2.709-2.63 5.919-4.687 9.437-6.049s7.274-2.001 11.044-1.879h48.996l9.887-15.393h-60.024c-5.801-.151-11.573.864-16.977 2.985a43.47 43.47 0 0 0-14.485 9.364c-4.156 4.059-7.459 8.912-9.715 14.271S368.6 64.957 368.6 70.774s1.162 11.575 3.417 16.934 5.559 10.212 9.715 14.271a43.46 43.46 0 0 0 14.485 9.365c5.404 2.121 11.176 3.136 16.977 2.985zm204.377-15.335c-6.128.002-12.09-2.001-16.979-5.706s-8.438-8.908-10.107-14.819h71.431l9.828-15.364h-81.259a28.18 28.18 0 0 1 10.102-14.824 28.07 28.07 0 0 1 16.984-5.7h49.025l9.799-15.393h-59.964a43.42 43.42 0 0 0-30.005 13.149c-7.909 8.136-12.335 19.047-12.335 30.406s4.426 22.27 12.335 30.406 18.676 12.854 30.005 13.148H668l9.799-15.334h-60.257" fill="#c74634"/></g><defs><clipPath id="A"><path fill="#fff" transform="translate(0 26)" d="M0 0h144v91H0z"/></clipPath></defs></svg>