<svg xmlns="http://www.w3.org/2000/svg" width="144" height="144" fill="none" xmlns:v="https://vecta.io/nano"><g clip-path="url(#A)"><g fill="#000"><path d="M102.866 103.108c.844-7.042.591-8.075 5.826-6.935l1.329.118c4.026.183 9.293-.649 12.385-2.089 6.66-3.096 10.609-8.267 4.042-6.908-14.98 3.096-16.01-1.985-16.01-1.985 15.819-23.516 22.433-53.365 16.725-60.672-15.567-19.93-42.514-10.506-42.966-10.261l-.144.028c-2.96-.617-6.271-.984-9.993-1.044-6.779-.111-11.923 1.781-15.824 4.746 0 0-48.072-19.843-45.836 24.954.476 9.53 13.634 72.111 29.328 53.209 5.736-6.911 11.279-12.755 11.279-12.755 2.753 1.832 6.048 2.766 9.505 2.43l.267-.228c-.083.858-.047 1.697.108 2.69-4.043 4.528-2.854 5.322-10.938 6.989-8.178 1.689-3.373 4.695-.238 5.481 3.804.954 12.6 2.304 18.545-6.035l-.236.951c1.587 1.271 1.479 9.136 1.703 14.756s.601 10.863 1.745 13.957 2.493 11.056 13.116 8.776c8.877-1.909 15.664-4.652 16.283-30.173z"/><path d="M83.123 138.835c-4.699 0-7.758-1.82-9.617-3.579-2.805-2.651-3.918-6.068-4.582-8.109l-.287-.852c-1.338-3.621-1.791-8.832-2.06-15.542l-.1-3.148-.091-2.872a20.24 20.24 0 0 1-5.339 1.692c-3.313.567-6.874.382-10.587-.548-2.619-.655-5.342-2.015-6.892-4.116-4.521 3.968-8.835 3.428-11.184 2.644-4.145-1.385-7.854-5.276-11.342-11.897-2.483-4.715-4.886-10.861-7.142-18.263-3.927-12.892-6.422-26.47-6.644-30.927-.697-13.955 3.051-23.933 11.14-29.657 12.763-9.032 32.098-3.722 39.147-1.31 4.735-2.86 10.307-4.253 16.603-4.151 3.382.055 6.601.353 9.592.886 3.119-.982 9.282-2.393 16.336-2.306 12.997.155 23.767 5.23 31.144 14.676 5.265 6.74 2.663 20.891.642 28.728-2.841 11.021-7.822 22.746-13.94 32.952 1.661.012 4.067-.189 7.489-.895 6.751-1.397 8.724 2.23 9.26 3.853 2.146 6.514-7.184 11.435-10.095 12.788-3.729 1.735-9.808 2.791-14.788 2.562l-.217-.014-1.308-.115-.13 1.092-.124 1.069c-.334 12.934-2.178 21.124-5.973 26.537-3.977 5.674-9.505 7.265-14.374 8.31-1.49.331-3.01.503-4.536.513zm-9.887-47.074c3.034 2.432 3.299 7.007 3.536 15.559l.095 3.021c.115 2.856.383 9.544 1.428 12.371.148.399.281.806.419 1.234 1.165 3.576 1.75 5.368 6.787 4.287 4.23-.908 6.404-1.723 8.105-4.151 2.474-3.53 3.858-10.627 4.111-21.101l5.145.126-5.11-.614.15-1.278c.49-4.213.843-7.259 3.655-9.272 2.255-1.615 4.826-1.459 6.874-1.089-2.25-1.701-2.872-3.7-3.038-4.519l-.429-2.117 1.205-1.793c6.946-10.326 12.675-23.018 15.718-34.82 3.126-12.128 2.172-18.569 1.22-19.787-12.618-16.155-34.501-9.486-36.785-8.727l-.387.209-1.937.363-.993-.206c-2.734-.569-5.772-.883-9.03-.937-5.117-.086-9.245 1.125-12.629 3.699l-2.348 1.784-2.726-1.125c-5.821-2.385-22.924-7.18-31.948-.776-5.009 3.555-7.29 10.52-6.783 20.704.167 3.362 2.448 16.088 6.207 28.433 5.197 17.058 9.921 22.723 11.892 23.383.343.116 1.237-.579 2.125-1.647 5.779-6.963 11.274-12.767 11.505-13.012l2.98-3.141 3.602 2.398c1.452.968 3.053 1.515 4.699 1.618l8.593-7.342-1.245 12.727c-.028.286-.041.674.071 1.397l.374 2.413-1.62 1.817-.187.21 4.721 2.184 1.98-2.48z"/></g><path d="M126.451 87.294c-14.982 3.096-16.012-1.986-16.012-1.986 15.818-23.515 22.43-53.367 16.724-60.672-15.568-19.93-42.515-10.504-42.965-10.259l-.146.025c-2.96-.614-6.271-.981-9.994-1.041-6.779-.111-11.922 1.78-15.823 4.744 0 0-48.073-19.842-45.837 24.956.476 9.53 13.634 72.111 29.328 53.209 5.736-6.911 11.278-12.755 11.278-12.755 2.753 1.832 6.048 2.766 9.504 2.43l.268-.227c-.083.858-.045 1.697.107 2.69-4.042 4.528-2.856 5.323-10.937 6.989-8.179 1.689-3.374 4.695-.236 5.48 3.803.955 12.6 2.305 18.544-6.034l-.238.952c1.584 1.271 2.697 8.269 2.51 14.612s-.311 10.699.938 14.101 2.492 11.056 13.117 8.775c8.877-1.907 13.478-6.847 14.119-15.085.454-5.858 1.481-4.992 1.547-10.23l.825-2.48c.95-7.942.151-10.503 5.621-9.311l1.329.117c4.026.185 9.294-.649 12.386-2.089 6.66-3.097 10.61-8.267 4.045-6.908z" fill="#336791"/><path d="M83.998 136.078c-8.857.001-11.662-7.026-12.811-9.899-1.679-4.211-2.042-20.554-1.668-33.957.025-.448.223-.868.552-1.171s.764-.466 1.211-.454.872.199 1.184.521.486.752.486 1.2c-.431 15.459.182 29.467 1.424 32.582 1.941 4.861 4.883 9.113 13.207 7.328 7.901-1.699 10.86-4.7 12.177-12.353 1.013-5.874 3.011-22.583 3.257-25.88a1.72 1.72 0 0 1 .592-1.175 1.71 1.71 0 0 1 1.247-.412c.454.034.876.247 1.173.593a1.72 1.72 0 0 1 .411 1.25c-.256 3.432-2.246 20.11-3.297 26.21-1.557 9.04-5.579 13.141-14.841 15.131a20.62 20.62 0 0 1-4.302.487zm-48.021-34.321c-.774-.001-1.543-.128-2.276-.376-5.753-1.923-11.232-11.31-16.287-27.903-3.847-12.631-6.285-25.813-6.498-30.097-.634-12.701 2.631-21.687 9.704-26.709 13.993-9.934 37.534-.474 38.53-.067a1.72 1.72 0 0 1 .926 2.237 1.72 1.72 0 0 1-.918.932c-.417.177-.886.183-1.307.015v.001c-.227-.094-22.801-9.154-35.253-.306-6.048 4.297-8.825 12.279-8.255 23.727.18 3.608 2.458 16.476 6.354 29.265 4.512 14.811 9.648 24.159 14.089 25.642.696.234 2.817.942 5.852-2.711 5.706-6.879 10.949-12.369 11.001-12.424.319-.31.746-.484 1.191-.485s.872.17 1.193.478a1.72 1.72 0 0 1 .528 1.174c.018.445-.137.88-.433 1.213-.052.053-5.215 5.462-10.841 12.243-2.665 3.209-5.22 4.151-7.301 4.151zm74.694-14.493a1.71 1.71 0 0 1-.884-.245 1.72 1.72 0 0 1-.633-.667 1.73 1.73 0 0 1-.198-.898c.017-.312.118-.613.293-.872 15.99-23.774 21.603-52.498 16.795-58.652-6.05-7.746-14.595-11.793-25.395-12.025-7.997-.174-14.353 1.872-15.391 2.23l-.26.106c-1.044.329-1.846-.245-2.148-.915a1.73 1.73 0 0 1-.073-1.22c.125-.402.392-.744.752-.963l.462-.19-.023.007.024-.008c1.764-.646 8.218-2.587 16.212-2.495 11.951.126 21.822 4.744 28.546 13.352 3.182 4.074 3.189 13.46.02 25.749-3.229 12.529-9.307 25.997-16.672 36.947a1.72 1.72 0 0 1-.618.558 1.71 1.71 0 0 1-.808.201zm.817 11.005c-2.731 0-5.178-.384-6.643-1.265-1.507-.903-1.794-2.133-1.831-2.785-.412-7.232 3.571-8.492 5.603-9.066-.283-.428-.687-.933-1.102-1.453-1.185-1.483-2.806-3.514-4.057-6.552-.195-.474-.809-1.578-1.52-2.855-3.851-6.918-11.862-21.314-6.716-28.687 2.383-3.411 7.125-4.754 14.114-4.004-2.056-6.275-11.847-25.907-35.076-26.288-6.987-.118-12.718 2.036-17.023 6.39-9.64 9.755-9.29 27.405-9.286 27.58a1.72 1.72 0 0 1-.471 1.229c-.155.164-.341.295-.547.387s-.428.142-.653.148a1.71 1.71 0 0 1-.66-.114c-.21-.081-.403-.203-.566-.358a1.72 1.72 0 0 1-.386-.548c-.092-.206-.142-.429-.148-.654-.021-.783-.382-19.304 10.279-30.091 4.989-5.048 11.556-7.54 19.518-7.41 14.864.245 24.429 7.814 29.837 14.123 5.894 6.874 8.784 14.456 9.022 16.986.178 1.882-1.17 2.259-1.443 2.314l-.618.015c-6.859-1.1-11.259-.337-13.078 2.268-3.915 5.605 3.664 19.222 6.9 25.039.827 1.483 1.423 2.555 1.695 3.217 1.063 2.583 2.45 4.319 3.564 5.713.979 1.227 1.829 2.29 2.133 3.54.14.248 2.141 3.211 14.009.756 2.975-.614 4.758-.088 5.303 1.563 1.073 3.251-4.945 7.041-8.276 8.592-2.989 1.391-7.754 2.27-11.877 2.27zm-5.051-4.334c.375.381 2.259 1.037 6.161.87 3.467-.15 7.126-.906 9.322-1.926 2.807-1.306 4.68-2.766 5.651-3.763l-.539.099c-7.589 1.57-12.956 1.361-15.952-.622-.201-.133-.395-.277-.581-.432-.324.128-.625.213-.839.273-1.7.478-3.458.972-3.223 5.502zm-49.018 9.608c-1.885 0-3.868-.256-5.895-.766-2.098-.526-5.638-2.109-5.583-4.709.06-2.919 4.296-3.794 5.892-4.123 5.76-1.188 6.135-1.665 7.936-3.955.525-.668 1.178-1.499 2.068-2.496 1.322-1.482 2.768-2.234 4.296-2.234 1.063 0 1.937.363 2.513.601 1.838.763 3.371 2.607 4.002 4.815.569 1.991.298 3.908-.764 5.396-3.484 4.889-8.485 7.471-14.463 7.471zm-7.77-5.327c.518.4 1.555.935 2.708 1.226 1.755.439 3.457.663 5.063.663 4.891 0 8.817-2.031 11.67-6.031.594-.835.417-1.894.258-2.452-.334-1.167-1.162-2.228-2.016-2.584-.464-.193-.847-.34-1.2-.34-.19 0-.765 0-1.736 1.088-.82.918-1.409 1.668-1.931 2.33-2.241 2.852-3.269 3.82-9.939 5.197-1.627.337-2.462.677-2.876.903zm13.2-7.934c-.41-.001-.806-.148-1.117-.415s-.516-.638-.578-1.043c-.044-.286-.072-.573-.085-.862-4.373-.083-8.592-1.962-11.793-5.31-4.049-4.233-5.892-10.098-5.056-16.089.908-6.507.569-12.251.386-15.337a34.19 34.19 0 0 1-.084-1.907c.003-.543.013-1.987 4.829-4.433 1.713-.87 5.147-2.387 8.897-2.777 6.217-.642 10.313 2.131 11.54 7.81 3.31 15.337.262 22.121-1.964 27.074-.415.921-.807 1.793-1.119 2.636l-.276.745c-1.175 3.158-2.192 5.887-1.879 7.927.069.451-.044.911-.313 1.278a1.72 1.72 0 0 1-1.123.683l-.263.019zM47.965 49.794l.068 1.229c.19 3.205.542 9.172-.414 16.018-.689 4.941.818 9.766 4.134 13.233 2.621 2.741 6.072 4.253 9.619 4.253h.074c.398-1.677 1.057-3.446 1.766-5.353l.275-.74c.354-.953.768-1.875 1.206-2.851 2.142-4.77 4.809-10.707 1.738-24.937-.609-2.817-2.084-4.448-4.508-4.986-4.98-1.103-12.4 2.65-13.957 4.134zm10.36-.729c-.086.608 1.113 2.231 2.673 2.448s2.893-1.051 2.977-1.658-1.113-1.278-2.674-1.496-2.893.098-2.976.707zm3.032 3.047l-.438-.031c-.968-.135-1.947-.747-2.617-1.637-.235-.312-.62-.919-.544-1.46.11-.794 1.074-1.267 2.582-1.267.338 0 .688.025 1.042.074.823.115 1.588.353 2.153.669.979.549 1.051 1.159 1.007 1.476-.122.874-1.513 2.176-3.186 2.176zm-2.463-2.946c.05.375.975 1.613 2.183 1.78l.279.02c1.114 0 1.947-.879 2.045-1.167-.103-.195-.819-.684-2.179-.871a6.3 6.3 0 0 0-.883-.064c-.871-.001-1.337.195-1.445.303zm46.913-1.342c.084.609-1.112 2.232-2.673 2.449s-2.895-1.05-2.98-1.66 1.114-1.278 2.674-1.495 2.893.099 2.979.705zm-3.032 2.76c-1.503 0-2.797-1.171-2.904-1.93-.123-.911 1.374-1.605 2.918-1.819a7.14 7.14 0 0 1 1.001-.072c1.331 0 2.213.392 2.301 1.023.058.41-.255 1.04-.795 1.607-.355.375-1.103 1.024-2.121 1.164l-.4.027zm1.013-3.248c-.298 0-.607.023-.921.066-1.552.215-2.475.84-2.431 1.175.052.367 1.042 1.435 2.337 1.435l.319-.023c.847-.119 1.483-.672 1.786-.992.476-.502.666-.973.643-1.135-.028-.21-.6-.526-1.733-.526zm4.267 35.402c-.311 0-.616-.085-.883-.245s-.484-.39-.631-.665a1.73 1.73 0 0 1-.2-.895c.016-.311.115-.612.288-.871 3.655-5.47 2.986-11.049 2.339-16.442-.276-2.299-.561-4.675-.486-6.957.075-2.346.371-4.281.66-6.155.341-2.217.663-4.315.529-6.801a1.72 1.72 0 0 1 .458-1.208c.303-.328.722-.524 1.167-.548s.883.127 1.22.42.546.706.584 1.152c.152 2.842-.213 5.214-.565 7.509-.273 1.771-.555 3.601-.623 5.741-.065 2.02.193 4.165.465 6.435.689 5.737 1.468 12.24-2.894 18.767a1.72 1.72 0 0 1-1.428.764z" fill="#fff"/></g><defs><clipPath id="A"><path fill="#fff" transform="translate(1 4)" d="M0 0h142.296v136H0z"/></clipPath></defs></svg>