<svg xmlns="http://www.w3.org/2000/svg" width="144" height="144" fill="none" xmlns:v="https://vecta.io/nano"><g fill="#000"><path d="M82.716 139.539c-4.752 0-7.845-1.841-9.725-3.619-2.837-2.681-3.962-6.136-4.633-8.2l-.29-.862c-1.353-3.66-1.811-8.93-2.083-15.716l-.101-3.183-.092-2.904a20.45 20.45 0 0 1-5.399 1.711c-3.35.574-6.951.387-10.706-.554-2.649-.663-5.401-2.038-6.97-4.163-4.572 4.013-8.934 3.468-11.309 2.675-4.191-1.401-7.942-5.335-11.469-12.031-2.511-4.768-4.941-10.982-7.222-18.467-3.971-13.036-6.494-26.767-6.718-31.274-.705-14.111 3.085-24.201 11.265-29.989 12.906-9.133 32.457-3.764 39.585-1.325 4.788-2.892 10.422-4.301 16.789-4.198 3.42.055 6.675.357 9.699.896 3.154-.993 9.386-2.42 16.519-2.332 13.142.157 24.033 5.289 31.493 14.84 5.323 6.815 2.692 21.125.648 29.05-2.873 11.144-7.909 23.001-14.096 33.321 1.681.012 4.113-.191 7.574-.905 6.826-1.413 8.821 2.255 9.363 3.896 2.17 6.587-7.264 11.563-10.207 12.931-3.772 1.755-9.919 2.823-14.954 2.592l-.22-.015-1.323-.117-.131 1.105-.125 1.081c-.338 13.078-2.203 21.361-6.041 26.835-4.021 5.736-9.611 7.346-14.535 8.402a21.78 21.78 0 0 1-4.587.519zm-9.998-47.601c3.067 2.459 3.336 7.086 3.575 15.733l.096 3.055c.116 2.887.388 9.651 1.444 12.51a31 31 0 0 1 .424 1.247c1.178 3.616 1.769 5.428 6.863 4.335 4.278-.918 6.475-1.742 8.196-4.197 2.501-3.57 3.901-10.746 4.157-21.337l5.203.127-5.168-.621.151-1.293c.496-4.26.852-7.34 3.695-9.375 2.28-1.633 4.88-1.475 6.951-1.102-2.275-1.72-2.904-3.742-3.072-4.57l-.433-2.141 1.218-1.813c7.024-10.442 12.817-23.276 15.894-35.21 3.161-12.264 2.196-18.777 1.233-20.009-12.759-16.336-34.887-9.592-37.197-8.825l-.392.211-1.959.367-1.004-.208c-2.765-.575-5.836-.893-9.131-.947-5.175-.087-9.348 1.138-12.771 3.741l-2.375 1.804-2.757-1.138c-5.886-2.412-23.181-7.26-32.306-.785-5.065 3.594-7.372 10.638-6.859 20.936.169 3.399 2.476 16.268 6.277 28.751C27.93 88.431 32.706 94.16 34.7 94.827c.347.118 1.251-.586 2.149-1.666 5.843-7.041 11.4-12.91 11.634-13.158l3.014-3.176 3.643 2.425c1.468.978 3.088 1.532 4.752 1.636l8.689-7.424-1.259 12.87c-.028.29-.042.682.072 1.413l.378 2.44-1.638 1.838-.189.212 4.773 2.209 2.002-2.508z"/><path d="M100.308 102.06c.833-7.022.584-8.053 5.748-6.916l1.311.117c3.971.183 9.166-.647 12.217-2.083 6.569-3.087 10.464-8.243 3.987-6.889-14.777 3.087-15.793-1.979-15.793-1.979 15.604-23.449 22.128-53.214 16.498-60.5C108.92 3.937 82.339 13.335 81.893 13.579l-.142.028c-2.92-.615-6.186-.981-9.857-1.041-6.687-.111-11.761 1.776-15.61 4.732 0 0-47.42-19.787-45.214 24.883.469 9.503 13.449 71.906 28.929 53.057 5.658-6.891 11.126-12.719 11.126-12.719 2.716 1.827 5.966 2.758 9.376 2.423l.264-.227c-.082.855-.046 1.692.107 2.682-3.988 4.515-2.816 5.307-10.79 6.969-8.066 1.684-3.327 4.682-.234 5.465 3.753.952 12.429 2.299 18.294-6.017l-.233.949c1.565 1.268 1.459 9.111 1.68 14.714s.593 10.833 1.721 13.918 2.459 11.024 12.938 8.75c8.757-1.903 15.452-4.638 16.061-30.086z"/></g><path d="M123.576 86.291c-14.778 3.087-15.794-1.98-15.794-1.98 15.603-23.449 22.125-53.215 16.496-60.5C108.922 3.937 82.34 13.336 81.896 13.58l-.144.025c-2.92-.613-6.186-.978-9.858-1.038-6.687-.111-11.76 1.775-15.608 4.731 0 0-47.421-19.786-45.215 24.885.469 9.503 13.449 71.906 28.929 53.058 5.658-6.891 11.125-12.719 11.125-12.719 2.716 1.827 5.966 2.758 9.375 2.424l.265-.227c-.082.855-.045 1.692.105 2.682-3.987 4.515-2.817 5.307-10.789 6.969-8.068 1.684-3.328 4.682-.233 5.465 3.751.952 12.429 2.298 18.292-6.017l-.235.949c1.563 1.268 2.66 8.246 2.476 14.571s-.307 10.668.925 14.061 2.459 11.024 12.939 8.75c8.757-1.902 13.295-6.827 13.927-15.043.448-5.841 1.461-4.977 1.526-10.201l.815-2.472c.936-7.919.148-10.474 5.544-9.285l1.311.116c3.971.184 9.168-.647 12.218-2.083 6.57-3.088 10.466-8.243 3.99-6.889z" fill="#336791"/><path d="M81.364 134.516c-8.737.001-11.504-7.006-12.637-9.871-1.656-4.199-2.015-20.496-1.646-33.861.025-.446.22-.865.545-1.168a1.68 1.68 0 0 1 1.194-.452c.441.013.86.199 1.168.519a1.73 1.73 0 0 1 .48 1.197c-.426 15.415.179 29.384 1.405 32.49 1.915 4.847 4.817 9.087 13.027 7.307 7.794-1.694 10.712-4.687 12.011-12.318.999-5.857 2.97-22.518 3.212-25.807.034-.454.244-.875.584-1.172a1.68 1.68 0 0 1 1.231-.411c.448.034.864.246 1.157.591s.439.793.405 1.247c-.253 3.422-2.216 20.053-3.253 26.135-1.535 9.015-5.502 13.104-14.638 15.088a20.14 20.14 0 0 1-4.244.486zm-47.369-34.223c-.764-.001-1.522-.128-2.245-.375C26.074 98 20.669 88.64 15.683 72.094c-3.795-12.595-6.199-25.74-6.41-30.012-.626-12.665 2.596-21.626 9.572-26.633 13.803-9.906 37.025-.472 38.007-.067.412.175.739.507.91.925s.172.887.003 1.306-.494.753-.905.93-.874.182-1.289.015v.001c-.224-.093-22.492-9.128-34.774-.306-5.966 4.285-8.705 12.244-8.143 23.659.178 3.598 2.424 16.429 6.268 29.182 4.451 14.769 9.517 24.091 13.898 25.569.687.234 2.779.939 5.773-2.704 5.629-6.859 10.8-12.333 10.852-12.388.315-.309.736-.483 1.174-.484s.86.17 1.177.477.503.727.521 1.171a1.73 1.73 0 0 1-.427 1.209 259.28 259.28 0 0 0-10.694 12.208c-2.629 3.2-5.149 4.14-7.202 4.14zm73.681-14.452c-.308 0-.609-.084-.873-.244a1.71 1.71 0 0 1-.624-.665 1.74 1.74 0 0 1-.195-.896 1.72 1.72 0 0 1 .289-.869c15.773-23.706 21.309-52.349 16.567-58.485-5.968-7.724-14.397-11.76-25.05-11.991-7.888-.173-14.159 1.867-15.183 2.223l-.257.105c-1.03.328-1.821-.244-2.119-.913-.17-.383-.195-.816-.072-1.217a1.72 1.72 0 0 1 .741-.96l.456-.19-.022.007.024-.008c1.741-.644 8.106-2.58 15.992-2.487 11.788.125 21.526 4.731 28.158 13.314 3.139 4.062 3.146 13.421.02 25.676-3.186 12.494-9.181 25.923-16.446 36.842-.155.233-.364.425-.61.557a1.67 1.67 0 0 1-.796.2zm.805 10.974c-2.693 0-5.107-.383-6.553-1.261-1.486-.901-1.769-2.127-1.806-2.777-.406-7.212 3.523-8.468 5.527-9.04-.279-.427-.677-.93-1.087-1.449-1.168-1.479-2.768-3.504-4.001-6.534-.193-.472-.799-1.573-1.5-2.847-3.799-6.898-11.702-21.254-6.625-28.605 2.351-3.402 7.028-4.74 13.922-3.993-2.028-6.258-11.686-25.833-34.599-26.214-6.892-.117-12.545 2.03-16.792 6.372-9.509 9.727-9.164 27.327-9.16 27.502.006.225-.032.449-.112.659a1.72 1.72 0 0 1-.353.566c-.153.163-.336.294-.54.386s-.422.142-.644.148-.444-.033-.651-.113a1.69 1.69 0 0 1-.559-.357c-.161-.155-.291-.341-.381-.547s-.14-.427-.146-.652c-.021-.781-.377-19.249 10.139-30.005 4.921-5.034 11.399-7.519 19.253-7.389 14.662.244 24.098 7.792 29.433 14.083 5.814 6.854 8.665 14.415 8.899 16.938.176 1.876-1.154 2.253-1.423 2.307l-.61.015c-6.766-1.097-11.106-.336-12.9 2.262-3.862 5.589 3.614 19.168 6.806 24.967.816 1.479 1.404 2.547 1.672 3.208 1.049 2.576 2.417 4.307 3.516 5.697.966 1.224 1.804 2.283 2.104 3.53.138.247 2.112 3.201 13.819.754 2.935-.612 4.694-.088 5.231 1.559 1.058 3.242-4.878 7.021-8.164 8.568-2.949 1.387-7.649 2.263-11.716 2.263zm-4.982-4.321c.37.38 2.228 1.034 6.077.867 3.42-.149 7.029-.903 9.196-1.92 2.769-1.302 4.616-2.758 5.574-3.753l-.532.099c-7.485 1.565-12.78 1.357-15.735-.621a6.36 6.36 0 0 1-.573-.431c-.32.128-.617.212-.828.272-1.677.476-3.411.969-3.179 5.486zm-48.352 9.58c-1.859 0-3.816-.255-5.815-.763-2.07-.525-5.562-2.103-5.508-4.696.059-2.911 4.237-3.783 5.812-4.112 5.682-1.185 6.052-1.66 7.828-3.943.518-.666 1.162-1.495 2.04-2.489 1.304-1.477 2.73-2.227 4.237-2.227 1.049 0 1.911.362 2.479.599 1.813.761 3.326 2.6 3.947 4.802.561 1.986.294 3.897-.754 5.381-3.436 4.875-8.369 7.449-14.267 7.449zm-7.665-5.311c.511.399 1.534.933 2.671 1.222 1.731.438 3.41.661 4.994.661 4.825 0 8.698-2.024 11.512-6.013.586-.833.411-1.888.254-2.445-.329-1.164-1.146-2.222-1.988-2.577-.457-.192-.835-.339-1.183-.339-.187 0-.755 0-1.713 1.085-.809.915-1.39 1.663-1.905 2.323-2.211 2.844-3.224 3.809-9.804 5.182-1.605.336-2.428.675-2.837.901zm13.021-7.911a1.68 1.68 0 0 1-1.101-.414 1.72 1.72 0 0 1-.571-1.04c-.043-.285-.072-.572-.084-.859-4.314-.083-8.475-1.956-11.633-5.295-3.994-4.221-5.812-10.069-4.987-16.044.896-6.488.561-12.216.381-15.293a34.38 34.38 0 0 1-.083-1.902c.003-.542.013-1.982 4.763-4.42 1.689-.867 5.077-2.381 8.777-2.769 6.132-.641 10.173 2.125 11.383 7.788 3.265 15.294.258 22.058-1.937 26.997-.41.918-.796 1.788-1.104 2.629l-.273.743c-1.159 3.15-2.162 5.871-1.854 7.904.068.45-.043.908-.309 1.275s-.664.612-1.108.682l-.26.019zM45.82 48.478l.067 1.225c.187 3.196.535 9.145-.409 15.973-.68 4.927.806 9.738 4.078 13.196 2.585 2.733 5.99 4.241 9.488 4.241h.072c.393-1.672 1.042-3.436 1.742-5.338l.271-.738c.349-.95.758-1.87 1.19-2.843 2.113-4.756 4.743-10.676 1.714-24.866-.601-2.809-2.055-4.436-4.447-4.972-4.912-1.1-12.231 2.642-13.768 4.122zm10.219-.727c-.084.606 1.097 2.225 2.636 2.441s2.854-1.048 2.937-1.653-1.098-1.274-2.638-1.492-2.854.097-2.936.705zm2.991 3.039l-.432-.031c-.955-.135-1.921-.745-2.581-1.632-.232-.311-.611-.917-.536-1.456.108-.791 1.059-1.264 2.547-1.264.333 0 .679.025 1.028.073.812.115 1.567.352 2.124.667.966.547 1.037 1.156.993 1.472-.12.871-1.493 2.17-3.142 2.17zm-2.43-2.937c.049.374.962 1.608 2.153 1.775l.275.02c1.099 0 1.921-.877 2.017-1.164-.102-.195-.808-.682-2.149-.869a6.15 6.15 0 0 0-.871-.064c-.859-.001-1.319.195-1.426.302zm46.276-1.338c.083.607-1.096 2.226-2.636 2.442s-2.856-1.048-2.94-1.655 1.099-1.274 2.638-1.491 2.854.099 2.938.703zm-2.991 2.752c-1.482 0-2.759-1.168-2.864-1.924-.121-.909 1.356-1.6 2.879-1.814.334-.048.666-.072.987-.072 1.313 0 2.183.391 2.27 1.02.056.408-.252 1.037-.784 1.603-.351.374-1.089 1.021-2.093 1.161l-.395.027zm1-3.239c-.294 0-.599.023-.909.065-1.531.215-2.442.838-2.398 1.172.051.366 1.028 1.431 2.306 1.431l.315-.023c.835-.119 1.462-.67 1.761-.989.469-.5.657-.97.634-1.132-.027-.21-.591-.524-1.709-.524zm4.209 35.302a1.68 1.68 0 0 1-.871-.245 1.7 1.7 0 0 1-.622-.663 1.72 1.72 0 0 1-.197-.893c.015-.31.113-.61.284-.868 3.605-5.454 2.945-11.018 2.307-16.396-.273-2.293-.553-4.661-.48-6.937.074-2.339.367-4.269.651-6.137.336-2.211.654-4.303.522-6.782a1.73 1.73 0 0 1 .451-1.204 1.69 1.69 0 0 1 1.152-.547 1.68 1.68 0 0 1 1.203.419 1.72 1.72 0 0 1 .576 1.148c.151 2.834-.209 5.199-.557 7.488-.269 1.766-.547 3.591-.614 5.725-.065 2.014.19 4.153.458 6.416.68 5.721 1.449 12.205-2.855 18.714a1.69 1.69 0 0 1-1.408.762z" fill="#fff"/></svg>