<svg xmlns="http://www.w3.org/2000/svg" width="144" height="144" fill="none" xmlns:v="https://vecta.io/nano"><path d="M143 52.963h-34.701C98.92 34.413 88.994 20 75.488 20c-17.582 0-25.835 15.815-33.822 31.219l-.696 1.351H1v9.147h23.283c8.219 0 9.893 2.855 9.893 2.855C27.73 74.899 19.974 85.106 7.049 85.106H1v9.592h6.098c25.056 0 35.993-20.961 44.776-37.785 8.054-15.507 13.672-24.893 23.631-24.893 10.341 0 21.211 23.201 30.773 43.683l4.258 9.044C73.848 85.943 56.365 94.8 42.147 102.032c-10.407 5.283-18.626 11.831-32.148 11.831H1v9.608h8.915c16.29 0 26.448-5.18 37.253-10.685 14.964-7.591 31.933-16.191 71.936-16.191h23.117v-9.609h-13.058a6.63 6.63 0 0 1-3.149-.513c-.994-.41-1.889-1.06-2.601-1.898-2.287-4.565-4.525-9.369-6.712-14.173l-3.032-6.394s2.17-2.393 8.169-2.393H143v-8.651z" fill="#188fff"/></svg>