<svg xmlns="http://www.w3.org/2000/svg" width="144" height="144" fill="none" xmlns:v="https://vecta.io/nano"><path d="M131.498 58.628H89.902c-1.637-.22-3.137-1.033-4.219-2.286s-1.671-2.86-1.656-4.519V7.948c.025-.903-.13-1.802-.457-2.644s-.818-1.609-1.446-2.257-1.377-1.163-2.206-1.514A6.7 6.7 0 0 0 77.299 1H62.755c-1.784 0-3.495.712-4.757 1.979s-1.97 2.986-1.97 4.778v44.304c-.127 1.62-.819 3.143-1.954 4.301s-2.641 1.876-4.252 2.028H38.877a6.81 6.81 0 0 1-4.058-2.115c-1.07-1.153-1.712-2.641-1.817-4.214V7.948c.025-.903-.13-1.802-.457-2.644A6.76 6.76 0 0 0 31.1 3.046c-.627-.648-1.378-1.163-2.206-1.514A6.7 6.7 0 0 0 26.275 1H11.73a6.7 6.7 0 0 0-2.619.532c-.829.351-1.579.866-2.206 1.514a6.76 6.76 0 0 0-1.445 2.257c-.327.842-.482 1.741-.457 2.644v128.009a6.77 6.77 0 0 0 1.97 4.778c1.262 1.267 2.973 1.979 4.757 1.979h119.816c1.784 0 3.495-.712 4.757-1.979s1.97-2.986 1.97-4.778V65.385c0-.891-.175-1.774-.516-2.597s-.841-1.57-1.471-2.198-1.377-1.125-2.199-1.462-1.701-.507-2.589-.501zm-18.95 48.396a6.77 6.77 0 0 1-1.971 4.778c-1.261 1.267-2.973 1.979-4.757 1.979H91.039c-1.784 0-3.495-.712-4.757-1.979s-1.97-2.986-1.97-4.778v-13.8a6.77 6.77 0 0 1 2.036-4.656 6.71 6.71 0 0 1 4.691-1.911h14.544a6.71 6.71 0 0 1 4.757 1.979 6.77 6.77 0 0 1 1.971 4.778l.237 13.61z" fill="#f60"/></svg>