<svg xmlns="http://www.w3.org/2000/svg" width="144" height="144" fill="none" xmlns:v="https://vecta.io/nano"><mask id="A" maskUnits="userSpaceOnUse" x="2" y="12" width="141" height="120"><path d="M142 12H2V131.94H142V12Z" fill="#fff"/></mask><g mask="url(#A)"><path d="M136.549 104.42c-7.459 3.918-46.189 19.783-54.508 24.179s-12.814 4.205-19.317 1.147-47.623-19.783-55.082-23.319C3.912 104.611 2 103.177 2 101.744V87.599s53.648-11.66 62.254-14.718c8.702-3.154 11.667-3.249 19.03-.478C90.647 75.08 134.732 83.012 142 85.688v13.953c0 1.338-1.626 2.772-5.451 4.779z" fill="#a0252b"/><path d="M136.549 90.371c-7.459 3.918-46.188 19.783-54.508 24.084s-12.814 4.205-19.317 1.147c-6.503-3.154-47.623-19.783-55.082-23.319s-7.555-6.021-.287-8.888l56.899-21.981c8.606-3.058 11.667-3.249 19.03-.478l53.17 20.643c7.268 2.676 7.554 4.874.095 8.792z" fill="#f04937"/><path d="M136.549 81.387c-7.459 3.918-46.189 19.783-54.508 24.084s-12.814 4.205-19.317 1.147S15.101 86.835 7.642 83.299C3.912 81.578 2 80.049 2 78.711V64.567s53.648-11.659 62.254-14.813c8.702-3.154 11.667-3.249 19.03-.478S134.732 59.884 142 62.56v13.953c0 1.433-1.626 2.867-5.451 4.874z" fill="#a0252b"/><path d="M136.549 67.242c-7.459 3.918-46.188 19.783-54.508 24.084s-12.814 4.301-19.317 1.147S15.101 72.785 7.642 69.249s-7.555-6.021-.287-8.793l56.899-21.981c8.606-3.058 11.667-3.345 19.03-.669S129.09 55.87 136.358 58.45c7.364 2.676 7.65 4.874.191 8.792z" fill="#f04937"/><path d="M136.549 57.494c-7.459 3.918-46.189 19.783-54.508 24.084s-12.814 4.205-19.317 1.147S15.101 62.942 7.642 59.406C3.912 57.685 2 56.156 2 54.723V40.578s53.648-11.66 62.254-14.718 11.667-3.249 19.03-.478S134.732 35.991 142 38.667V52.62c0 1.434-1.626 2.867-5.451 4.874z" fill="#a0252b"/><path d="M136.549 43.35c-7.459 3.823-46.188 19.878-54.508 24.084s-12.814 4.205-19.317 1.147S15.101 48.797 7.642 45.261.087 39.24 7.355 36.373l56.899-21.981c8.606-3.058 11.667-3.154 19.03-.478s45.806 17.967 53.074 20.643c7.363 2.676 7.65 4.874.191 8.792z" fill="#f04937"/></g><path d="M74.2 23.285l9.276-3.058-2.582 6.021 9.467 3.441-12.145 1.338-2.678 6.499-4.399-7.263-14.057-1.338 10.519-3.727-3.156-5.83 9.754 3.918zm.574 38.132L52.11 52.051l32.418-4.97-9.754 14.336zM43.408 33.32c9.563 0 17.309 3.058 17.309 6.69s-7.746 6.69-17.309 6.69-17.309-3.058-17.309-6.69 7.746-6.69 17.309-6.69z" fill="#fff"/><path d="M104.704 31.504l19.222 7.55-19.222 7.646V31.504z" fill="#6d0020"/><path d="M104.705 31.504V46.7l-2.104.764-19.125-7.55 21.229-8.41z" fill="#a0252b"/></svg>