<svg xmlns="http://www.w3.org/2000/svg" width="144" height="144" fill="none" xmlns:v="https://vecta.io/nano"><path d="M75.556 4c14.464 4.023 27.641 14.16 33.105 26.551 8.356 20.115 6.428 45.54-2.732 60.665-7.714 12.391-19.606 18.988-33.266 18.828a38.54 38.54 0 0 1-14.757-2.925c-4.679-1.935-8.931-4.773-12.513-8.352a38.54 38.54 0 0 1-11.299-27.263 38.54 38.54 0 0 1 11.299-27.263c3.582-3.579 7.834-6.417 12.513-8.352s9.694-2.928 14.758-2.924c4.951-.002 9.853.986 14.418 2.904 0 0-4.159-2.464-14.841-4.118-30.695-4.023-66.913 19.237-58.556 72.822 7.326 13.043 18.778 23.283 32.556 29.109s29.102 6.908 43.562 3.076a67.48 67.48 0 0 0 36.324-24.244c9.086-11.885 13.965-26.452 13.872-41.412 0-35.723-29.088-66.136-64.443-67.101z" fill="url(#A)"/><path d="M100.786 32.48C95.643 21.698 85.037 13.17 72.019 9.79c-3.049-.777-6.175-1.208-9.321-1.287-4.991.008-9.96.657-14.785 1.931a58.43 58.43 0 0 0-26.194 16.574A67.1 67.1 0 0 0 8.22 50.341c0 .161-.161.322-.161.644-.323 1.004-.591 2.024-.804 3.058-.161.321-.161.804-.321 1.126L6.452 57.1a.59.59 0 0 1-.161.482c-4.178 20.758 2.763 39.386 6.941 46.306l2.763 4.5C6.514 56.894 33.772 32.319 64.788 31.675c16.231-.322 32.462 6.276 40.337 19.471-.482-7.241-.964-11.263-4.339-18.666z" fill="url(#B)"/><defs><linearGradient id="A" x1="137.072" y1="27.141" x2="38.518" y2="113.898" gradientUnits="userSpaceOnUse"><stop stop-color="#f0f"/><stop offset=".404" stop-color="#a0f"/><stop offset="1" stop-color="#1e0a78"/></linearGradient><linearGradient id="B" x1="15.542" y1="25.449" x2="75.442" y2="86.242" gradientUnits="userSpaceOnUse"><stop offset=".035" stop-color="#f0f"/><stop offset=".513" stop-color="#80c"/><stop offset="1" stop-color="#311b92"/></linearGradient></defs></svg>