<svg xmlns="http://www.w3.org/2000/svg" width="144" height="144" fill="none" xmlns:v="https://vecta.io/nano"><path d="M119.751 26.457L55.682 96.102l80.572-37.261c-2.388-12.349-8.213-23.41-16.445-32.189M71.216 5.777a64.79 64.79 0 0 0-25.045 5.014L37.57 83.557 80.477 6.499c-3.048-.443-6.154-.679-9.319-.679" fill="#d93321"/><mask id="A" maskUnits="userSpaceOnUse" x="59" y="62" width="79" height="46"><path d="M59.569 62.356h77.66v44.87h-77.66v-44.87z" fill="#fff"/></mask><g mask="url(#A)"><path d="M137.224 62.743l-76.301 42.918 71.641-8.544a65.36 65.36 0 0 0 5.281-25.751c0-2.887-.204-5.735-.561-8.525" fill="#d93321"/></g><path d="M108.102 125.558c8.523-5.794 15.61-13.578 20.58-22.63l-67.175 13.383 46.596 9.247zM84.805 7.133L47.528 88.484l69.311-64.378c-8.678-8.389-19.609-14.397-31.84-16.953m-7.961 129.331c7.222-.603 14.095-2.361 20.386-5.15l-37.665-4.487 17.279 9.637zM12.969 44.405c-2.932 6.516-4.834 13.617-5.494 21.069L17.59 83.656l-4.621-39.251zm29.123-30.922c-9.203 4.955-17.066 12.037-22.91 20.679l9.455 47.796 13.455-68.475z" fill="#d93321"/></svg>