<svg xmlns="http://www.w3.org/2000/svg" width="144" height="144" fill="none" xmlns:v="https://vecta.io/nano"><path fill-rule="evenodd" d="M36.122 118.233l-24.188-15.087V38.67L71.085 4.865l57.718 33.861v67.821l-58.634 32.921-20.356-12.696V99.587v-3.711l-11.038-6.885V54.026l31.959-18.264 31.228 18.321v36.639l-24.724 13.881V89.847c7.411-2.845 12.731-10.159 12.731-18.79 0-11.125-8.838-20.061-19.6-20.061s-19.6 8.936-19.6 20.061c0 8.631 5.319 15.945 12.731 18.79v27.959l7.069 4.409 43.351-24.34V47.21L70.988 22.024 26.818 47.267v47.661l9.303 5.803v17.503zm34.247-56.394c4.87 0 8.723 4.183 8.723 9.217s-3.853 9.217-8.723 9.217-8.724-4.183-8.724-9.217 3.853-9.217 8.724-9.217z" fill="#123678"/></svg>