<svg xmlns="http://www.w3.org/2000/svg" width="144" height="144" fill="none" xmlns:v="https://vecta.io/nano"><path d="M9.65 8h31.258c2.248.014 3.509.1 4.541.617a5.81 5.81 0 0 1 2.479 2.479c.62 1.203.62 2.807.62 6.015l-.002 41.837c-.015 3.589-.129 5.565-.982 6.829a5.69 5.69 0 0 1-3.755 2.406c-1.516.253-3.334-.48-6.592-1.985l-17.042-7.978c-5.391-2.57-8.504-4.262-10.923-6.623-2.625-2.588-4.63-5.723-5.869-9.186-1.121-3.158-1.335-6.673-1.376-12.656L2 15.637c.014-2.248.1-3.509.617-4.541a5.81 5.81 0 0 1 2.479-2.479C6.128 8.1 7.414 8.014 9.65 8zm93.122 0h31.274c2.248.014 3.508.1 4.541.617 1.057.547 1.932 1.422 2.479 2.479.62 1.203.62 2.807.62 6.015l-.01 12.63c-.041 5.973-.254 9.518-1.376 12.705-1.239 3.463-3.244 6.598-5.868 9.186-2.953 2.916-7.036 4.812-15.129 8.603L95.099 71.499l.003-55.861c.014-2.248.1-3.509.617-4.541a5.81 5.81 0 0 1 2.479-2.479c1.033-.516 2.319-.602 4.575-.617zM70.93 82.763l24.169-11.264-.003 55.861c-.014 2.248-.1 3.509-.617 4.541A5.8 5.8 0 0 1 92 134.38c-1.203.62-2.807.62-6.015.62l-29.797-.003c-2.248-.014-3.509-.1-4.541-.617-1.057-.546-1.932-1.421-2.479-2.479-.62-1.202-.62-2.806-.62-6.014l.01-12.666c.041-5.973.254-9.519 1.376-12.706 1.239-3.463 3.244-6.598 5.869-9.186 2.953-2.916 7.035-4.812 15.128-8.566z" fill="#ff5f3b"/></svg>