<?xml version="1.0" encoding="utf-8"?>
<!-- Generator: Adobe Illustrator 21.0.0, SVG Export Plug-In . SVG Version: 6.00 Build 0)  -->
<svg version="1.1" id="Layer_1" xmlns="http://www.w3.org/2000/svg" xmlns:xlink="http://www.w3.org/1999/xlink" x="0px" y="0px"
	 viewBox="0 0 82.8 80.4" style="enable-background:new 0 0 82.8 80.4;" xml:space="preserve">
<style type="text/css">
	.st0{fill:#193D4B;}
	.st1{fill:#FFFFFF;}
	.st2{fill:#00A651;}
</style>
<g>
	<path id="XMLID_81_" class="st0" d="M79.3,72c0,3.2-2.6,5.8-5.8,5.8H9.9c-3.2,0-5.8-2.6-5.8-5.8V8.4c0-3.2,2.6-5.8,5.8-5.8h63.6
		c3.2,0,5.8,2.6,5.8,5.8V72z"/>
	<g>
		<g>
			<g>
				<g id="XMLID_161_">
					<g id="XMLID_167_">
						<path id="XMLID_171_" class="st1" d="M69.9,50.2c0.1-3.2-2.8-3.9-4.5-3.6c-3.3,0.6-3,3.6-3,3.6l0,0c0,3-0.7,5.2-2.2,6.6
							c-1.5,1.5-3.6,2.2-6.3,2.2c-5.7,0-8.5-2.9-8.5-8.8l0,0c0,4.9-1.3,8.5-3.8,11c0.2,0.2,0.4,0.4,0.6,0.6
							c2.9,2.5,6.8,3.7,11.7,3.7s8.8-1.2,11.7-3.7C68.5,59.3,69.9,55.4,69.9,50.2L69.9,50.2z"/>
						<path id="XMLID_168_" class="st1" d="M53.9,68.1c-5.5,0-10-1.5-13.4-4.3c-0.3-0.2-0.5-0.5-0.8-0.7l-1.9-2l1.9-1.9
							c2-1.9,3-5,3-9.1H48c0,4.5,1.6,6.2,5.9,6.2c2,0,3.5-0.5,4.4-1.4s1.4-2.5,1.4-4.7c-0.2-2.2,1.1-5.6,5.2-6.3
							c0.4-0.1,0.8-0.1,1.2-0.1c1.9,0,3.6,0.7,4.8,1.9c0.7,0.7,1.5,2,1.6,3.9v0.1c0,0.1,0,0.2,0,0.3v0.1c0,6-1.8,10.6-5.3,13.6
							C63.9,66.6,59.4,68.1,53.9,68.1z M45.3,60.8c2.2,1.4,5.1,2.1,8.6,2.1c4.2,0,7.6-1,10-3.1c2.2-1.9,3.4-4.9,3.4-9.1l0,0v-0.5
							c0-0.2,0-0.5-0.1-0.6c-0.2-0.2-0.8-0.4-1.3-0.3c-0.4,0.1-0.8,0.1-0.8,0.7l0,0v0.3c0,3.7-1,6.6-3,8.5c-2,2-4.7,3-8.1,3
							c-3.2,0-5.8-0.9-7.7-2.5C45.9,59.7,45.6,60.3,45.3,60.8z"/>
					</g>
					<g id="XMLID_162_">
						<path id="XMLID_166_" class="st1" d="M62.4,30.2c0-3-0.7-5.2-2.2-6.6c-1.5-1.5-3.6-2.2-6.3-2.2c-5.6,0-8.5,2.9-8.5,8.7
							c0-4.9-1.2-8.5-3.7-11c0.2-0.2,0.4-0.3,0.5-0.5c2.9-2.5,6.8-3.7,11.7-3.7s8.8,1.2,11.7,3.7S70,24.9,70,30.2c0,0,0.3,3.1-3,3.6
							C65.2,34.2,62.3,33.4,62.4,30.2z"/>
						<path id="XMLID_163_" class="st1" d="M66.2,36.6c-1.9,0-3.6-0.7-4.8-1.9c-0.8-0.8-1.7-2.2-1.6-4.5c0-2.1-0.5-3.7-1.4-4.7
							c-1-1-2.4-1.4-4.4-1.4c-4.2,0-6,1.7-6,6.1l-5.2,0c0-4.1-1-7.2-3-9.1l-1.9-2l1.9-1.9c0.2-0.2,0.4-0.4,0.7-0.6
							c3.4-2.9,7.9-4.3,13.4-4.3s10,1.5,13.4,4.3c3.5,3,5.3,7.5,5.3,13.5c0.2,2.2-1.1,5.6-5.2,6.3C67,36.5,66.6,36.6,66.2,36.6z
							 M53.9,18.8c3.4,0,6.2,1,8.1,3c2,2,3,4.8,3,8.5c0,0.3,0,0.6,0.1,0.7c0.2,0.2,0.8,0.4,1.3,0.3c0.3,0,0.9-0.1,0.8-0.8v-0.3
							c0-4.5-1.1-7.6-3.4-9.6c-2.4-2-5.8-3.1-10-3.1c-3.4,0-6.3,0.7-8.5,2c0.3,0.5,0.6,1,0.9,1.6C48.1,19.6,50.7,18.8,53.9,18.8z"/>
					</g>
				</g>
			</g>
			<g>
				<g>
					<path id="XMLID_74_" class="st2" d="M35.7,56.7c-1.5,1.5-3.6,2.2-6.3,2.2c-5.7,0-8.5-2.9-8.5-8.8V30.2c0-5.9,2.8-8.8,8.5-8.8
						c2.7,0,4.8,0.7,6.3,2.2s2.2,3.7,2.2,6.6l0,0c0-4.9,1.3-8.5,3.8-11c-0.2-0.2-0.4-0.4-0.6-0.6c-2.9-2.5-6.8-3.7-11.7-3.7
						s-8.8,1.2-11.7,3.7s-4.3,6.3-4.3,11.6v19.9c0,5.3,1.4,9.1,4.3,11.6c2.9,2.5,6.8,3.7,11.7,3.7s8.8-1.2,11.7-3.7
						c0.2-0.2,0.4-0.3,0.5-0.5c-2.5-2.5-3.7-6.1-3.7-11C37.9,53.1,37.1,55.3,35.7,56.7z"/>
					<path class="st2" d="M29.3,68c-5.5,0-10-1.5-13.4-4.3c-3.5-3-5.2-7.5-5.2-13.6V30.2c0-6,1.8-10.6,5.2-13.6
						c3.4-2.9,7.9-4.3,13.4-4.3s10,1.5,13.4,4.3c0.3,0.2,0.5,0.5,0.8,0.7l1.6,2l-1.6,1.8c-2,1.9-3,5-3,9.1h-5.3
						c0-2.2-0.5-3.8-1.4-4.8c-1-1-2.4-1.4-4.4-1.4c-4.2,0-5.9,1.7-5.9,6.2v19.9c0,4.5,1.6,6.2,5.9,6.2c2,0,3.5-0.5,4.4-1.4
						c0.9-0.9,1.4-2.5,1.4-4.7h5.3c0,4.1,1,7.2,2.9,9.1l1.9,1.9l-1.9,1.9c-0.2,0.2-0.4,0.4-0.7,0.6C39.4,66.5,34.9,68,29.3,68z
						 M29.3,17.5c-4.2,0-7.6,1-10,3.1c-2.3,2-3.4,5.1-3.4,9.6v19.9c0,4.5,1.1,7.6,3.4,9.6c2.4,2,5.7,3.1,10,3.1c3.4,0,6.3-0.7,8.5-2
						c-0.3-0.5-0.6-1.1-0.9-1.6c-1.9,1.6-4.5,2.5-7.6,2.5c-7.1,0-11.1-4.2-11.1-11.5v-20c0-7.3,4.1-11.5,11.1-11.5
						c3.2,0,5.7,0.8,7.7,2.5c0.3-0.6,0.6-1.1,0.9-1.6C35.7,18.2,32.8,17.5,29.3,17.5z"/>
				</g>
				<g>
					<path id="XMLID_71_" class="st2" d="M37.9,30.2v19.9v0.1c0,4.9,1.2,8.5,3.7,11c2.5-2.5,3.8-6.1,3.8-11v-20v-0.1
						c0-4.9-1.2-8.5-3.7-11C39.1,21.6,37.9,25.3,37.9,30.2z"/>
					<path class="st2" d="M41.5,64.5l-1.8-1.4c-3-3-4.5-7.3-4.5-12.9v-20c0-5.6,1.6-9.9,4.6-12.9l1.5-1.5l2.2,1.5
						c3,3,4.5,7.3,4.5,12.9v20c0,5.6-1.6,9.9-4.6,12.9L41.5,64.5z M41.6,23.8c-0.7,1.7-1.1,3.9-1.1,6.4v19.9c0,2.6,0.4,4.7,1.1,6.4
						c0.8-1.7,1.1-3.9,1.1-6.4V30.2C42.8,27.7,42.4,25.5,41.6,23.8z"/>
				</g>
				<g>
					<path id="XMLID_68_" class="st2" d="M37.9,50.8c0,0-0.3,6.1,3.7,10.4c1.6,1.8,4,3.2,7.4,3.8c2.6,0.5,4.5-4.5,1.8-6.3
						c-0.3-0.1-5.4-1.8-5.4-8.5L37.9,50.8z"/>
					<path class="st2" d="M49.3,67.6L49.3,67.6c-0.3,0-0.6,0-0.8-0.1c-3.7-0.7-6.6-2.2-8.8-4.6c-4.7-5-4.4-12-4.4-12.3l0.1-2.3
						l12.4-1l0.3,2.9c-0.1,4.6,3.1,5.8,3.5,5.9l0.4,0.1l0.3,0.2c2.1,1.5,3,4.2,2.1,6.9C53.6,65.9,51.5,67.6,49.3,67.6z M40.7,53.2
						c0.3,1.8,1,4.3,2.8,6.2c1.4,1.5,3.2,2.4,5.6,2.9c0.1-0.2,0.3-0.6,0.3-1c0-0.1,0-0.3-0.1-0.3c-2.2-0.9-5.4-3.3-6.4-7.9
						L40.7,53.2z"/>
				</g>
			</g>
		</g>
	</g>
</g>
</svg>
