<svg xmlns="http://www.w3.org/2000/svg" xmlns:xlink="http://www.w3.org/1999/xlink" viewBox="0 0 374.7 80.4" xmlns:v="https://vecta.io/nano"><g fill="#193d4b"><path d="M106.8 59.3c-.3 1-1.1 1.6-2.2 1.6-1.3 0-2.3-.8-3.4-1.4-.2-.1-.5-.4-.5-.7 0-.5.3-1 .5-1.5l.6-1.6a30.9 30.9 0 0 1 1.4-3.2l1.7-3.8 2-4.4 2.4-4.9.3-.6 4.8-10c1.2-2.5 2.2-5.1 3.2-7.7.6-1.7 1.4-3.4 1.1-5.2-.2-1.3-1.3-2-1.7-3.2-.7-2 4-2.1 5.1-2.3l5.1-.5c1.3-.1 2.7-.1 4-.1 1.1 0 2.5-.1 3.4.5 1.1.7 1.1 2.5 1.3 3.7l.6 5.9c.1 1.1.1 2.2.1 3.4l.2 10.5v7.3c0 5.8.5 9.8 1.5 12.2.4.9.8 1.3 1.1 1.3.8 0 1.5-.3 2.2-.6.5-.2.9-.6 1.3-.9.4-.2.8-.5 1.2 0 .3.3.4.8.6 1.1s.5.6.4 1-.5.6-.8.8l-1.2.9c-.8.6-1.6 1.1-2.5 1.6-.5.3-1 .5-1.5.7-2.2 1-4.2 1.5-6.1 1.5-.9 0-2-.3-2.9-.7-.9-.3-1.6-.9-2.2-1.6-1.7-2.1-2.1-5-2.3-7.6v-2.7c0-.6.1-1.3.2-1.9s.4-1.3.1-1.9c-.2-.5-.8-.6-1.3-.7-3.1-.2-6.2-.1-9.3.2-1.2.1-2.7 0-3.5 1.1-.6.8-.9 2.1-1.3 3.1-.5 1.2-1 2.4-1.4 3.7-.3.7-.5 1.4-.8 2.1l-.9 2.5c-.1 1.2-.3 2.1-.6 3zm19.4-19.8l.1-8.2c0-7.2-.3-12.1-.9-14.6-.4 0-.7 0-.9.1-1.3 3.6-2.6 6.7-3.7 9.3l-3.8 8.1-2.5 5.4 11.7-.1h0z"/><use xlink:href="#B"/><path d="M235.2 50.9c0 3-1.3 5.4-3.9 7.3-1 .7-1.9 1.1-3 1.5l-1.8.6c-1.3.4-2.7.6-4.1.7-2.8.2-6-.2-8.4-1.8-2-1.4-2.8-3.7-1.5-5.9 1.1-2 3.5-3.5 5.8-3.1 2.5.4 3.7 2.9 4.5 4.9l.5 1.4c.2.7.7 1.2 1.4 1s1.4-.8 1.6-1.6c.1-.3.1-.6.1-.9 0-2.2-1.9-5.3-5.8-9.3-3.8-4-5.8-7.2-5.8-9.6s1.1-4.2 3.2-5.5 4.7-2 7.7-2 5.3.5 6.8 1.6 2.3 2.5 2.3 4.3-1.4 4.3-4.3 7.6l1.3 1.3c.5.5 1.2 1.6 2.1 3.1.9 1.7 1.3 3.1 1.3 4.4zm-3.8-16.2c0-1.7-1.1-2.5-3.4-2.5-1.1 0-2 .2-2.7.7s-1.1 1-1.1 1.5c0 1 1 2.5 3.1 4.4l1.1.9c2-1.6 3-3.3 3-5z"/></g><g fill="#00a651"><path d="M255.3 61.1c-4.4 0-8.1-1.8-10.9-5.4-2.9-3.6-4.3-8.2-4.3-14s1-11 3-15.8 4.8-8.6 8.5-11.6 7.6-4.5 11.8-4.5 7.6.9 10.2 2.8 3.9 4.2 3.9 6.8c0 1.2-.2 2.5-.6 3.7-.3.8-.6 1.7-1.2 2.4-.8 1-1.7.6-2.8.4-1-.2-1.9-.5-2.9-.8-1.2-.4-2.5-1-3.5-1.8-1-.7-.6-1.5-.4-2.5.1-.7.3-1.4.4-2.1s.3-1.4.4-2c.2-1.2-.2-1.6-1.3-2-.9-.3-1.9-.4-2.9-.4-2.9 0-5.4 2.5-7.7 7.4-2.2 4.9-3.3 11-3.3 18.3 0 4.8.8 8.2 2.4 10.4s3.5 3.2 5.8 3.2c1.4 0 3-.3 4.3-.8 1.5-.6 3-1.4 4.2-2.5.5-.4.9-.8 1.4-1.2.2-.2.4-.5.8-.6s.6.2.9.4c.5.5.9.9 1.4 1.3.4.3.8.8.4 1.3-.3.4-.7.7-1 1.1l-1.5 1.5c-1.4 1.3-2.7 2.4-4 3.3s-3 1.7-5 2.4c-2.4.9-4.5 1.3-6.5 1.3zm31.6 0c-3.3 0-5.8-1.1-7.7-3.4-1.8-2.3-2.8-5.5-2.8-9.6 0-5.3 1.4-9.8 4.2-13.6s6.7-5.7 11.7-5.7l2.6.1c.8-.4 1.7-.6 2.7-.6 3.7 0 5.6 3.5 5.6 10.6 1.9-.1 3.9-.4 5.9-.8l1.1-.3.4 2.8c-1.6.7-3.7 1.3-6.3 1.8l-1.4.3c-.9 5-2.7 9.3-5.5 13-2.6 3.5-6.2 5.4-10.5 5.4zm3.9-6.1c2 0 3.8-1.3 5.4-3.8 1.6-2.6 2.7-5.3 3.3-8.1-5.1 0-7.6-1.9-7.6-5.7 0-1.5.3-2.9.9-4.3l.4-.7c-.2-.1-.4-.1-.7-.1s-.5 0-.6.1c-1.2.8-2.3 2.5-3.3 5.3s-1.6 6-1.6 9.6c-.1 5.1 1.2 7.7 3.8 7.7z"/><path d="M339.6 55.9c0 .1-.1.2-.2.3-.5.5-1.2 1-1.8 1.4-.8.6-1.6 1.1-2.5 1.6-1.3.7-2.6 1.4-4 1.7l-2.1.2c-3.1 0-4.8-1.5-5.3-4.5a15.82 15.82 0 0 1-4.8 3.3c-1.8.8-3.3 1.2-4.6 1.2-2.3 0-4.2-1-5.8-3s-2.4-5.1-2.4-9.2c0-6.3 1.3-11.2 4-14.7 2.7-3.6 5.6-5.4 9-5.4 3.3 0 6.1.8 8.4 2.3l1.4-8.4c.3-2.3.5-4.5.7-6.8.1-1.6.1-3.1-.1-4.6-.1-.8.1-1.5 1-1.7.4-.1.9-.2 1.3-.4 1.2-.3 2.4-.6 3.7-.8.7-.1 1.4-.2 2-.2 1.1-.1 2.5-.5 2.7 1 .3 2.2.1 4.4-.1 6.6l-.6 4.2c-.2 1.7-.6 3.4-.9 5.1-.4 2-.7 4.1-1.1 6.1-.1.3-.1.5-.2.8-2.1 10.6-3.1 17.8-3.1 21.6 0 1.1.3 1.7.8 1.7.4 0 .8-.3 1.1-.5s.7-.4 1-.6.6-.5.9-.6.5.1.7.3c.2.3.4.7.6 1 .1.3.4.6.3 1zm-17-23c-1.7 0-3.1 1.6-4.3 4.9s-1.8 6.5-1.8 9.7.2 5.2.7 6.1c.4.9 1.1 1.3 2 1.3 1.6 0 3.1-.6 4.6-1.9.1-1.9 1.2-8.2 3.2-18.9-1.6-.7-3.1-1.2-4.4-1.2zm18.8 15c0-5.9 1.8-10.6 5.4-14s7.6-5.1 12.2-5.1c2.8 0 5.1.7 6.9 2.1s2.7 3.2 2.7 5.5-.6 4.2-1.7 5.8c-1.2 1.6-2.6 2.8-4.2 3.6-3.4 1.7-6.4 2.7-9.2 3.1l-1.7.2c.3 4.5 2.2 6.7 5.5 6.7 1.1 0 2.3-.3 3.6-.9.6-.2 1.1-.5 1.6-.8.6-.3 1-.7 1.5-1.1.4-.3.8-.6 1.3-.2.3.3.5.6.8 1 .2.3.6.5.4 1-.1.3-.4.5-.6.7l-1.5 1.2c-1.1.9-2.2 1.6-3.2 2.1-2.7 1.5-5.8 2.3-9 2.3-3.3 0-5.8-1.2-7.7-3.5-2.1-2.3-3.1-5.5-3.1-9.7zm15.9-5.4c1.4-1.6 2.1-3.7 2.1-6.2 0-2.6-.8-3.8-2.3-3.8-1.8 0-3.2 1.5-4.2 4.6s-1.5 5.9-1.5 8.6c2.6-.5 4.5-1.6 5.9-3.2z"/></g><path d="M79.3 72c0 3.2-2.6 5.8-5.8 5.8H9.9c-3.2 0-5.8-2.6-5.8-5.8V8.4c0-3.2 2.6-5.8 5.8-5.8h63.6c3.2 0 5.8 2.6 5.8 5.8V72z" fill="#193d4b"/><g fill="#fff"><path d="M69.9 50.2c.1-3.2-2.8-3.9-4.5-3.6-3.3.6-3 3.6-3 3.6h0c0 3-.7 5.2-2.2 6.6-1.5 1.5-3.6 2.2-6.3 2.2-5.7 0-8.5-2.9-8.5-8.8h0c0 4.9-1.3 8.5-3.8 11l.6.6c2.9 2.5 6.8 3.7 11.7 3.7s8.8-1.2 11.7-3.7 4.3-6.4 4.3-11.6h0z"/><path d="M53.9 68.1c-5.5 0-10-1.5-13.4-4.3-.3-.2-.5-.5-.8-.7l-1.9-2 1.9-1.9c2-1.9 3-5 3-9.1H48c0 4.5 1.6 6.2 5.9 6.2 2 0 3.5-.5 4.4-1.4s1.4-2.5 1.4-4.7c-.2-2.2 1.1-5.6 5.2-6.3.4-.1.8-.1 1.2-.1 1.9 0 3.6.7 4.8 1.9.7.7 1.5 2 1.6 3.9v.1.3.1c0 6-1.8 10.6-5.3 13.6-3.3 2.9-7.8 4.4-13.3 4.4zm-8.6-7.3c2.2 1.4 5.1 2.1 8.6 2.1 4.2 0 7.6-1 10-3.1 2.2-1.9 3.4-4.9 3.4-9.1h0v-.5c0-.2 0-.5-.1-.6-.2-.2-.8-.4-1.3-.3-.4.1-.8.1-.8.7h0v.3c0 3.7-1 6.6-3 8.5-2 2-4.7 3-8.1 3-3.2 0-5.8-.9-7.7-2.5-.4.4-.7 1-1 1.5zm17.1-30.6c0-3-.7-5.2-2.2-6.6-1.5-1.5-3.6-2.2-6.3-2.2-5.6 0-8.5 2.9-8.5 8.7 0-4.9-1.2-8.5-3.7-11 .2-.2.4-.3.5-.5 2.9-2.5 6.8-3.7 11.7-3.7s8.8 1.2 11.7 3.7S70 24.9 70 30.2c0 0 .3 3.1-3 3.6-1.8.4-4.7-.4-4.6-3.6z"/><path d="M66.2 36.6c-1.9 0-3.6-.7-4.8-1.9-.8-.8-1.7-2.2-1.6-4.5 0-2.1-.5-3.7-1.4-4.7-1-1-2.4-1.4-4.4-1.4-4.2 0-6 1.7-6 6.1h-5.2c0-4.1-1-7.2-3-9.1l-1.9-2 1.9-1.9c.2-.2.4-.4.7-.6 3.4-2.9 7.9-4.3 13.4-4.3s10 1.5 13.4 4.3c3.5 3 5.3 7.5 5.3 13.5.2 2.2-1.1 5.6-5.2 6.3-.4.1-.8.2-1.2.2zM53.9 18.8c3.4 0 6.2 1 8.1 3 2 2 3 4.8 3 8.5 0 .3 0 .6.1.7.2.2.8.4 1.3.3.3 0 .9-.1.8-.8v-.3c0-4.5-1.1-7.6-3.4-9.6-2.4-2-5.8-3.1-10-3.1-3.4 0-6.3.7-8.5 2 .3.5.6 1 .9 1.6 1.9-1.5 4.5-2.3 7.7-2.3z"/></g><g fill="#00a651"><path d="M35.7 56.7c-1.5 1.5-3.6 2.2-6.3 2.2-5.7 0-8.5-2.9-8.5-8.8V30.2c0-5.9 2.8-8.8 8.5-8.8 2.7 0 4.8.7 6.3 2.2s2.2 3.7 2.2 6.6h0c0-4.9 1.3-8.5 3.8-11l-.6-.6c-2.9-2.5-6.8-3.7-11.7-3.7s-8.8 1.2-11.7 3.7-4.3 6.3-4.3 11.6v19.9c0 5.3 1.4 9.1 4.3 11.6s6.8 3.7 11.7 3.7 8.8-1.2 11.7-3.7c.2-.2.4-.3.5-.5-2.5-2.5-3.7-6.1-3.7-11 0 2.9-.8 5.1-2.2 6.5z"/><path d="M29.3 68c-5.5 0-10-1.5-13.4-4.3-3.5-3-5.2-7.5-5.2-13.6V30.2c0-6 1.8-10.6 5.2-13.6 3.4-2.9 7.9-4.3 13.4-4.3s10 1.5 13.4 4.3c.3.2.5.5.8.7l1.6 2-1.6 1.8c-2 1.9-3 5-3 9.1h-5.3c0-2.2-.5-3.8-1.4-4.8-1-1-2.4-1.4-4.4-1.4-4.2 0-5.9 1.7-5.9 6.2v19.9c0 4.5 1.6 6.2 5.9 6.2 2 0 3.5-.5 4.4-1.4s1.4-2.5 1.4-4.7h5.3c0 4.1 1 7.2 2.9 9.1l1.9 1.9-1.9 1.9c-.2.2-.4.4-.7.6-3.3 2.8-7.8 4.3-13.4 4.3zm0-50.5c-4.2 0-7.6 1-10 3.1-2.3 2-3.4 5.1-3.4 9.6v19.9c0 4.5 1.1 7.6 3.4 9.6 2.4 2 5.7 3.1 10 3.1 3.4 0 6.3-.7 8.5-2-.3-.5-.6-1.1-.9-1.6-1.9 1.6-4.5 2.5-7.6 2.5-7.1 0-11.1-4.2-11.1-11.5v-20c0-7.3 4.1-11.5 11.1-11.5 3.2 0 5.7.8 7.7 2.5.3-.6.6-1.1.9-1.6-2.2-1.4-5.1-2.1-8.6-2.1z"/><path d="M37.9 30.2v19.9.1c0 4.9 1.2 8.5 3.7 11 2.5-2.5 3.8-6.1 3.8-11v-20-.1c0-4.9-1.2-8.5-3.7-11-2.6 2.5-3.8 6.2-3.8 11.1z"/><path d="M41.5 64.5l-1.8-1.4c-3-3-4.5-7.3-4.5-12.9v-20c0-5.6 1.6-9.9 4.6-12.9l1.5-1.5 2.2 1.5c3 3 4.5 7.3 4.5 12.9v20c0 5.6-1.6 9.9-4.6 12.9l-1.9 1.4zm.1-40.7c-.7 1.7-1.1 3.9-1.1 6.4v19.9c0 2.6.4 4.7 1.1 6.4.8-1.7 1.1-3.9 1.1-6.4V30.2c.1-2.5-.3-4.7-1.1-6.4z"/><path d="M37.9 50.8s-.3 6.1 3.7 10.4c1.6 1.8 4 3.2 7.4 3.8 2.6.5 4.5-4.5 1.8-6.3-.3-.1-5.4-1.8-5.4-8.5l-7.5.6z"/><path d="M49.3 67.6h0c-.3 0-.6 0-.8-.1-3.7-.7-6.6-2.2-8.8-4.6-4.7-5-4.4-12-4.4-12.3l.1-2.3 12.4-1 .3 2.9c-.1 4.6 3.1 5.8 3.5 5.9l.4.1.3.2c2.1 1.5 3 4.2 2.1 6.9-.8 2.6-2.9 4.3-5.1 4.3zm-8.6-14.4c.3 1.8 1 4.3 2.8 6.2 1.4 1.5 3.2 2.4 5.6 2.9.1-.2.3-.6.3-1 0-.1 0-.3-.1-.3-2.2-.9-5.4-3.3-6.4-7.9l-2.2.1z"/></g><use xlink:href="#B" x="33.9" fill="#193d4b"/><defs ><path id="B" d="M146.6 30c.3-.1.6-.1.9-.2l1.7-.3a37.08 37.08 0 0 1 4.7-.3l3.1-.1c.3 0 .7-.1 1 .2.2.3.2.6.3.9l.3 1c.1.3.1.7.2 1.1 0 .2 0 .4.1.6 0 .1.1.5 0 .5 3.6-3 6.7-4.5 9.1-4.5s4.4 1 5.9 3.1c1.5 2 2.2 5 2.2 8.9 0 6.9-1.3 12-3.8 15.3-2.4 3.2-6 5.2-10 5-1.3-.1-2.7-.2-3.9-.6-.5-.2-1.1-.4-1.1-1.1 0-.4.1-.9.4-1.2.2-.2.6-.3.9-.4.3-.2.7-.4 1-.6.7-.4 1.3-.9 1.9-1.5 1.4-1.3 2.4-3 3.2-4.8 1.6-3.8 2.5-8.6 1.2-12.6-.4-1.2-1.1-2.5-2.3-2.9-1-.4-2 0-2.8.7-2.1 1.8-2.6 5-2.9 7.6-.6 4.1-1.2 8.1-2.1 12.2-.6 2.6-1.1 5.3-1.4 8-.3 2.4-.7 4.8-.8 7.1v2c0 .5 0 1-.4 1.3-.5.4-1.2.4-1.8.5-.9.3-1.9.5-2.9.6-.5.1-1.1.2-1.6.2-.6.1-1.3.1-1.9.2-.4.1-.9.1-1.2-.1l-.1-.1c-.4-.3-.4-.9-.4-1.4v-1.8c0-1.2.2-2.4.4-3.6.2-1 .3-2.1.5-3.1.2-1.3.5-2.6.8-3.9.3-1.6.7-3.2 1-4.8 0-.2.1-.4.1-.6 1.8-8.5 2.8-15 2.8-19.6 0-.9-.2-1.9-.6-2.9-.3-.7-.6-1.3-1-1.9l-.6-.9c-.2-.2-.4-.5-.3-.9-.2-.1 0-.2.2-.3z"/></defs></svg>