<?xml version="1.0" encoding="utf-8"?>
<!-- Generator: Adobe Illustrator 21.0.0, SVG Export Plug-In . SVG Version: 6.00 Build 0)  -->
<svg version="1.1" id="Layer_1" xmlns="http://www.w3.org/2000/svg" xmlns:xlink="http://www.w3.org/1999/xlink" x="0px" y="0px"
	 viewBox="0 0 374.7 80.4" style="enable-background:new 0 0 374.7 80.4;" xml:space="preserve">
<style type="text/css">
	.st0{fill:#193D4B;}
	.st1{fill:#00A651;}
	.st2{fill:#FFFFFF;}
</style>
<path id="XMLID_127_" class="st0" d="M106.8,59.3c-0.3,1-1.1,1.6-2.2,1.6c-1.3,0-2.3-0.8-3.4-1.4c-0.2-0.1-0.5-0.4-0.5-0.7
	c0-0.5,0.3-1,0.5-1.5s0.4-1.1,0.6-1.6c0.4-1.1,0.9-2.2,1.4-3.2c0.6-1.3,1.1-2.5,1.7-3.8c0.7-1.5,1.4-2.9,2-4.4
	c0.8-1.6,1.6-3.2,2.4-4.9c0.1-0.2,0.2-0.4,0.3-0.6c1.6-3.3,3.2-6.7,4.8-10c1.2-2.5,2.2-5.1,3.2-7.7c0.6-1.7,1.4-3.4,1.1-5.2
	c-0.2-1.3-1.3-2-1.7-3.2c-0.7-2,4-2.1,5.1-2.3c1.7-0.2,3.4-0.4,5.1-0.5c1.3-0.1,2.7-0.1,4-0.1c1.1,0,2.5-0.1,3.4,0.5
	c1.1,0.7,1.1,2.5,1.3,3.7c0.3,2,0.5,3.9,0.6,5.9c0.1,1.1,0.1,2.2,0.1,3.4c0.1,3.5,0.2,7,0.2,10.5c0,2.4,0,4.9,0,7.3
	c0,5.8,0.5,9.8,1.5,12.2c0.4,0.9,0.8,1.3,1.1,1.3c0.8,0,1.5-0.3,2.2-0.6c0.5-0.2,0.9-0.6,1.3-0.9c0.4-0.2,0.8-0.5,1.2,0
	c0.3,0.3,0.4,0.8,0.6,1.1c0.2,0.3,0.5,0.6,0.4,1s-0.5,0.6-0.8,0.8c-0.4,0.3-0.8,0.6-1.2,0.9c-0.8,0.6-1.6,1.1-2.5,1.6
	c-0.5,0.3-1,0.5-1.5,0.7c-2.2,1-4.2,1.5-6.1,1.5c-0.9,0-2-0.3-2.9-0.7c-0.9-0.3-1.6-0.9-2.2-1.6c-1.7-2.1-2.1-5-2.3-7.6
	c0-0.9,0-1.8,0-2.7c0-0.6,0.1-1.3,0.2-1.9c0.1-0.6,0.4-1.3,0.1-1.9c-0.2-0.5-0.8-0.6-1.3-0.7c-3.1-0.2-6.2-0.1-9.3,0.2
	c-1.2,0.1-2.7,0-3.5,1.1c-0.6,0.8-0.9,2.1-1.3,3.1c-0.5,1.2-1,2.4-1.4,3.7c-0.3,0.7-0.5,1.4-0.8,2.1c-0.3,0.8-0.6,1.7-0.9,2.5
	C107.3,57.5,107.1,58.4,106.8,59.3z M126.2,39.5l0.1-8.2c0-7.2-0.3-12.1-0.9-14.6c-0.4,0-0.7,0-0.9,0.1c-1.3,3.6-2.6,6.7-3.7,9.3
	c-1.2,2.5-2.4,5.2-3.8,8.1c-1.3,2.9-2.2,4.7-2.5,5.4L126.2,39.5L126.2,39.5z"/>
<path id="XMLID_125_" class="st0" d="M146.6,30c0.3-0.1,0.6-0.1,0.9-0.2c0.6-0.1,1.2-0.2,1.7-0.3c1.6-0.2,3.1-0.3,4.7-0.3
	c1,0,2.1,0,3.1-0.1c0.3,0,0.7-0.1,1,0.2c0.2,0.3,0.2,0.6,0.3,0.9s0.2,0.6,0.3,1c0.1,0.3,0.1,0.7,0.2,1.1c0,0.2,0,0.4,0.1,0.6
	c0,0.1,0.1,0.5,0,0.5c3.6-3,6.7-4.5,9.1-4.5c2.4,0,4.4,1,5.9,3.1c1.5,2,2.2,5,2.2,8.9c0,6.9-1.3,12-3.8,15.3c-2.4,3.2-6,5.2-10,5
	c-1.3-0.1-2.7-0.2-3.9-0.6c-0.5-0.2-1.1-0.4-1.1-1.1c0-0.4,0.1-0.9,0.4-1.2c0.2-0.2,0.6-0.3,0.9-0.4c0.3-0.2,0.7-0.4,1-0.6
	c0.7-0.4,1.3-0.9,1.9-1.5c1.4-1.3,2.4-3,3.2-4.8c1.6-3.8,2.5-8.6,1.2-12.6c-0.4-1.2-1.1-2.5-2.3-2.9c-1-0.4-2,0-2.8,0.7
	c-2.1,1.8-2.6,5-2.9,7.6c-0.6,4.1-1.2,8.1-2.1,12.2c-0.6,2.6-1.1,5.3-1.4,8c-0.3,2.4-0.7,4.8-0.8,7.1c0,0.7,0,1.4,0,2
	c0,0.5,0,1-0.4,1.3c-0.5,0.4-1.2,0.4-1.8,0.5c-0.9,0.3-1.9,0.5-2.9,0.6c-0.5,0.1-1.1,0.2-1.6,0.2c-0.6,0.1-1.3,0.1-1.9,0.2
	c-0.4,0.1-0.9,0.1-1.2-0.1l-0.1-0.1c-0.4-0.3-0.4-0.9-0.4-1.4c0-0.6,0-1.2,0-1.8c0-1.2,0.2-2.4,0.4-3.6c0.2-1,0.3-2.1,0.5-3.1
	c0.2-1.3,0.5-2.6,0.8-3.9c0.3-1.6,0.7-3.2,1-4.8c0-0.2,0.1-0.4,0.1-0.6c1.8-8.5,2.8-15,2.8-19.6c0-0.9-0.2-1.9-0.6-2.9
	c-0.3-0.7-0.6-1.3-1-1.9c-0.2-0.3-0.4-0.6-0.6-0.9c-0.2-0.2-0.4-0.5-0.3-0.9C146.2,30.2,146.4,30.1,146.6,30z"/>
<path id="XMLID_122_" class="st0" d="M235.2,50.9c0,3-1.3,5.4-3.9,7.3c-1,0.7-1.9,1.1-3,1.5c-0.6,0.2-1.2,0.4-1.8,0.6
	c-1.3,0.4-2.7,0.6-4.1,0.7c-2.8,0.2-6-0.2-8.4-1.8c-2-1.4-2.8-3.7-1.5-5.9c1.1-2,3.5-3.5,5.8-3.1c2.5,0.4,3.7,2.9,4.5,4.9
	c0.2,0.5,0.3,0.9,0.5,1.4c0.2,0.7,0.7,1.2,1.4,1s1.4-0.8,1.6-1.6c0.1-0.3,0.1-0.6,0.1-0.9c0-2.2-1.9-5.3-5.8-9.3
	c-3.8-4-5.8-7.2-5.8-9.6s1.1-4.2,3.2-5.5c2.1-1.3,4.7-2,7.7-2s5.3,0.5,6.8,1.6s2.3,2.5,2.3,4.3c0,1.8-1.4,4.3-4.3,7.6
	c0.3,0.3,0.8,0.8,1.3,1.3s1.2,1.6,2.1,3.1C234.8,48.2,235.2,49.6,235.2,50.9z M231.4,34.7c0-1.7-1.1-2.5-3.4-2.5
	c-1.1,0-2,0.2-2.7,0.7s-1.1,1-1.1,1.5c0,1,1,2.5,3.1,4.4l1.1,0.9C230.4,38.1,231.4,36.4,231.4,34.7z"/>
<path id="XMLID_120_" class="st1" d="M255.3,61.1c-4.4,0-8.1-1.8-10.9-5.4c-2.9-3.6-4.3-8.2-4.3-14s1-11,3-15.8s4.8-8.6,8.5-11.6
	s7.6-4.5,11.8-4.5c4.2,0,7.6,0.9,10.2,2.8s3.9,4.2,3.9,6.8c0,1.2-0.2,2.5-0.6,3.7c-0.3,0.8-0.6,1.7-1.2,2.4c-0.8,1-1.7,0.6-2.8,0.4
	c-1-0.2-1.9-0.5-2.9-0.8c-1.2-0.4-2.5-1-3.5-1.8c-1-0.7-0.6-1.5-0.4-2.5c0.1-0.7,0.3-1.4,0.4-2.1s0.3-1.4,0.4-2
	c0.2-1.2-0.2-1.6-1.3-2c-0.9-0.3-1.9-0.4-2.9-0.4c-2.9,0-5.4,2.5-7.7,7.4c-2.2,4.9-3.3,11-3.3,18.3c0,4.8,0.8,8.2,2.4,10.4
	c1.6,2.2,3.5,3.2,5.8,3.2c1.4,0,3-0.3,4.3-0.8c1.5-0.6,3-1.4,4.2-2.5c0.5-0.4,0.9-0.8,1.4-1.2c0.2-0.2,0.4-0.5,0.8-0.6
	s0.6,0.2,0.9,0.4c0.5,0.5,0.9,0.9,1.4,1.3c0.4,0.3,0.8,0.8,0.4,1.3c-0.3,0.4-0.7,0.7-1,1.1c-0.5,0.5-1,1-1.5,1.5
	c-1.4,1.3-2.7,2.4-4,3.3c-1.3,0.9-3,1.7-5,2.4C259.4,60.7,257.3,61.1,255.3,61.1z"/>
<path id="XMLID_117_" class="st1" d="M286.9,61.1c-3.3,0-5.8-1.1-7.7-3.4c-1.8-2.3-2.8-5.5-2.8-9.6c0-5.3,1.4-9.8,4.2-13.6
	c2.8-3.8,6.7-5.7,11.7-5.7l2.6,0.1c0.8-0.4,1.7-0.6,2.7-0.6c3.7,0,5.6,3.5,5.6,10.6c1.9-0.1,3.9-0.4,5.9-0.8l1.1-0.3l0.4,2.8
	c-1.6,0.7-3.7,1.3-6.3,1.8l-1.4,0.3c-0.9,5-2.7,9.3-5.5,13C294.8,59.2,291.2,61.1,286.9,61.1z M290.8,55c2,0,3.8-1.3,5.4-3.8
	c1.6-2.6,2.7-5.3,3.3-8.1c-5.1,0-7.6-1.9-7.6-5.7c0-1.5,0.3-2.9,0.9-4.3l0.4-0.7c-0.2-0.1-0.4-0.1-0.7-0.1c-0.3,0-0.5,0-0.6,0.1
	c-1.2,0.8-2.3,2.5-3.3,5.3s-1.6,6-1.6,9.6C286.9,52.4,288.2,55,290.8,55z"/>
<path id="XMLID_114_" class="st1" d="M339.6,55.9c0,0.1-0.1,0.2-0.2,0.3c-0.5,0.5-1.2,1-1.8,1.4c-0.8,0.6-1.6,1.1-2.5,1.6
	c-1.3,0.7-2.6,1.4-4,1.7c-0.7,0.1-1.4,0.2-2.1,0.2c-3.1,0-4.8-1.5-5.3-4.5c-1.4,1.4-3,2.5-4.8,3.3s-3.3,1.2-4.6,1.2
	c-2.3,0-4.2-1-5.8-3c-1.6-2-2.4-5.1-2.4-9.2c0-6.3,1.3-11.2,4-14.7c2.7-3.6,5.6-5.4,9-5.4c3.3,0,6.1,0.8,8.4,2.3
	c0.5-2.8,1-5.6,1.4-8.4c0.3-2.3,0.5-4.5,0.7-6.8c0.1-1.6,0.1-3.1-0.1-4.6c-0.1-0.8,0.1-1.5,1-1.7c0.4-0.1,0.9-0.2,1.3-0.4
	c1.2-0.3,2.4-0.6,3.7-0.8c0.7-0.1,1.4-0.2,2-0.2c1.1-0.1,2.5-0.5,2.7,1c0.3,2.2,0.1,4.4-0.1,6.6c-0.2,1.4-0.4,2.8-0.6,4.2
	c-0.2,1.7-0.6,3.4-0.9,5.1c-0.4,2-0.7,4.1-1.1,6.1c-0.1,0.3-0.1,0.5-0.2,0.8c-2.1,10.6-3.1,17.8-3.1,21.6c0,1.1,0.3,1.7,0.8,1.7
	c0.4,0,0.8-0.3,1.1-0.5c0.3-0.2,0.7-0.4,1-0.6c0.3-0.2,0.6-0.5,0.9-0.6s0.5,0.1,0.7,0.3c0.2,0.3,0.4,0.7,0.6,1
	C339.4,55.2,339.7,55.5,339.6,55.9z M322.6,32.9c-1.7,0-3.1,1.6-4.3,4.9c-1.2,3.3-1.8,6.5-1.8,9.7s0.2,5.2,0.7,6.1
	c0.4,0.9,1.1,1.3,2,1.3c1.6,0,3.1-0.6,4.6-1.9c0.1-1.9,1.2-8.2,3.2-18.9C325.4,33.4,323.9,32.9,322.6,32.9z"/>
<path id="XMLID_111_" class="st1" d="M341.4,47.9c0-5.9,1.8-10.6,5.4-14s7.6-5.1,12.2-5.1c2.8,0,5.1,0.7,6.9,2.1
	c1.8,1.4,2.7,3.2,2.7,5.5s-0.6,4.2-1.7,5.8c-1.2,1.6-2.6,2.8-4.2,3.6c-3.4,1.7-6.4,2.7-9.2,3.1l-1.7,0.2c0.3,4.5,2.2,6.7,5.5,6.7
	c1.1,0,2.3-0.3,3.6-0.9c0.6-0.2,1.1-0.5,1.6-0.8c0.6-0.3,1-0.7,1.5-1.1c0.4-0.3,0.8-0.6,1.3-0.2c0.3,0.3,0.5,0.6,0.8,1
	c0.2,0.3,0.6,0.5,0.4,1c-0.1,0.3-0.4,0.5-0.6,0.7c-0.5,0.4-1,0.8-1.5,1.2c-1.1,0.9-2.2,1.6-3.2,2.1c-2.7,1.5-5.8,2.3-9,2.3
	c-3.3,0-5.8-1.2-7.7-3.5C342.4,55.3,341.4,52.1,341.4,47.9z M357.3,42.5c1.4-1.6,2.1-3.7,2.1-6.2c0-2.6-0.8-3.8-2.3-3.8
	c-1.8,0-3.2,1.5-4.2,4.6s-1.5,5.9-1.5,8.6C354,45.2,355.9,44.1,357.3,42.5z"/>
<g>
	<path id="XMLID_81_" class="st0" d="M79.3,72c0,3.2-2.6,5.8-5.8,5.8H9.9c-3.2,0-5.8-2.6-5.8-5.8V8.4c0-3.2,2.6-5.8,5.8-5.8h63.6
		c3.2,0,5.8,2.6,5.8,5.8V72z"/>
	<g>
		<g>
			<g>
				<g id="XMLID_161_">
					<g id="XMLID_167_">
						<path id="XMLID_171_" class="st2" d="M69.9,50.2c0.1-3.2-2.8-3.9-4.5-3.6c-3.3,0.6-3,3.6-3,3.6l0,0c0,3-0.7,5.2-2.2,6.6
							c-1.5,1.5-3.6,2.2-6.3,2.2c-5.7,0-8.5-2.9-8.5-8.8l0,0c0,4.9-1.3,8.5-3.8,11c0.2,0.2,0.4,0.4,0.6,0.6
							c2.9,2.5,6.8,3.7,11.7,3.7s8.8-1.2,11.7-3.7C68.5,59.3,69.9,55.4,69.9,50.2L69.9,50.2z"/>
						<path id="XMLID_168_" class="st2" d="M53.9,68.1c-5.5,0-10-1.5-13.4-4.3c-0.3-0.2-0.5-0.5-0.8-0.7l-1.9-2l1.9-1.9
							c2-1.9,3-5,3-9.1H48c0,4.5,1.6,6.2,5.9,6.2c2,0,3.5-0.5,4.4-1.4s1.4-2.5,1.4-4.7c-0.2-2.2,1.1-5.6,5.2-6.3
							c0.4-0.1,0.8-0.1,1.2-0.1c1.9,0,3.6,0.7,4.8,1.9c0.7,0.7,1.5,2,1.6,3.9v0.1c0,0.1,0,0.2,0,0.3v0.1c0,6-1.8,10.6-5.3,13.6
							C63.9,66.6,59.4,68.1,53.9,68.1z M45.3,60.8c2.2,1.4,5.1,2.1,8.6,2.1c4.2,0,7.6-1,10-3.1c2.2-1.9,3.4-4.9,3.4-9.1l0,0v-0.5
							c0-0.2,0-0.5-0.1-0.6c-0.2-0.2-0.8-0.4-1.3-0.3c-0.4,0.1-0.8,0.1-0.8,0.7l0,0v0.3c0,3.7-1,6.6-3,8.5c-2,2-4.7,3-8.1,3
							c-3.2,0-5.8-0.9-7.7-2.5C45.9,59.7,45.6,60.3,45.3,60.8z"/>
					</g>
					<g id="XMLID_162_">
						<path id="XMLID_166_" class="st2" d="M62.4,30.2c0-3-0.7-5.2-2.2-6.6c-1.5-1.5-3.6-2.2-6.3-2.2c-5.6,0-8.5,2.9-8.5,8.7
							c0-4.9-1.2-8.5-3.7-11c0.2-0.2,0.4-0.3,0.5-0.5c2.9-2.5,6.8-3.7,11.7-3.7s8.8,1.2,11.7,3.7S70,24.9,70,30.2c0,0,0.3,3.1-3,3.6
							C65.2,34.2,62.3,33.4,62.4,30.2z"/>
						<path id="XMLID_163_" class="st2" d="M66.2,36.6c-1.9,0-3.6-0.7-4.8-1.9c-0.8-0.8-1.7-2.2-1.6-4.5c0-2.1-0.5-3.7-1.4-4.7
							c-1-1-2.4-1.4-4.4-1.4c-4.2,0-6,1.7-6,6.1l-5.2,0c0-4.1-1-7.2-3-9.1l-1.9-2l1.9-1.9c0.2-0.2,0.4-0.4,0.7-0.6
							c3.4-2.9,7.9-4.3,13.4-4.3s10,1.5,13.4,4.3c3.5,3,5.3,7.5,5.3,13.5c0.2,2.2-1.1,5.6-5.2,6.3C67,36.5,66.6,36.6,66.2,36.6z
							 M53.9,18.8c3.4,0,6.2,1,8.1,3c2,2,3,4.8,3,8.5c0,0.3,0,0.6,0.1,0.7c0.2,0.2,0.8,0.4,1.3,0.3c0.3,0,0.9-0.1,0.8-0.8v-0.3
							c0-4.5-1.1-7.6-3.4-9.6c-2.4-2-5.8-3.1-10-3.1c-3.4,0-6.3,0.7-8.5,2c0.3,0.5,0.6,1,0.9,1.6C48.1,19.6,50.7,18.8,53.9,18.8z"/>
					</g>
				</g>
			</g>
			<g>
				<g>
					<path id="XMLID_74_" class="st1" d="M35.7,56.7c-1.5,1.5-3.6,2.2-6.3,2.2c-5.7,0-8.5-2.9-8.5-8.8V30.2c0-5.9,2.8-8.8,8.5-8.8
						c2.7,0,4.8,0.7,6.3,2.2s2.2,3.7,2.2,6.6l0,0c0-4.9,1.3-8.5,3.8-11c-0.2-0.2-0.4-0.4-0.6-0.6c-2.9-2.5-6.8-3.7-11.7-3.7
						s-8.8,1.2-11.7,3.7s-4.3,6.3-4.3,11.6v19.9c0,5.3,1.4,9.1,4.3,11.6c2.9,2.5,6.8,3.7,11.7,3.7s8.8-1.2,11.7-3.7
						c0.2-0.2,0.4-0.3,0.5-0.5c-2.5-2.5-3.7-6.1-3.7-11C37.9,53.1,37.1,55.3,35.7,56.7z"/>
					<path class="st1" d="M29.3,68c-5.5,0-10-1.5-13.4-4.3c-3.5-3-5.2-7.5-5.2-13.6V30.2c0-6,1.8-10.6,5.2-13.6
						c3.4-2.9,7.9-4.3,13.4-4.3s10,1.5,13.4,4.3c0.3,0.2,0.5,0.5,0.8,0.7l1.6,2l-1.6,1.8c-2,1.9-3,5-3,9.1h-5.3
						c0-2.2-0.5-3.8-1.4-4.8c-1-1-2.4-1.4-4.4-1.4c-4.2,0-5.9,1.7-5.9,6.2v19.9c0,4.5,1.6,6.2,5.9,6.2c2,0,3.5-0.5,4.4-1.4
						c0.9-0.9,1.4-2.5,1.4-4.7h5.3c0,4.1,1,7.2,2.9,9.1l1.9,1.9l-1.9,1.9c-0.2,0.2-0.4,0.4-0.7,0.6C39.4,66.5,34.9,68,29.3,68z
						 M29.3,17.5c-4.2,0-7.6,1-10,3.1c-2.3,2-3.4,5.1-3.4,9.6v19.9c0,4.5,1.1,7.6,3.4,9.6c2.4,2,5.7,3.1,10,3.1c3.4,0,6.3-0.7,8.5-2
						c-0.3-0.5-0.6-1.1-0.9-1.6c-1.9,1.6-4.5,2.5-7.6,2.5c-7.1,0-11.1-4.2-11.1-11.5v-20c0-7.3,4.1-11.5,11.1-11.5
						c3.2,0,5.7,0.8,7.7,2.5c0.3-0.6,0.6-1.1,0.9-1.6C35.7,18.2,32.8,17.5,29.3,17.5z"/>
				</g>
				<g>
					<path id="XMLID_71_" class="st1" d="M37.9,30.2v19.9v0.1c0,4.9,1.2,8.5,3.7,11c2.5-2.5,3.8-6.1,3.8-11v-20v-0.1
						c0-4.9-1.2-8.5-3.7-11C39.1,21.6,37.9,25.3,37.9,30.2z"/>
					<path class="st1" d="M41.5,64.5l-1.8-1.4c-3-3-4.5-7.3-4.5-12.9v-20c0-5.6,1.6-9.9,4.6-12.9l1.5-1.5l2.2,1.5
						c3,3,4.5,7.3,4.5,12.9v20c0,5.6-1.6,9.9-4.6,12.9L41.5,64.5z M41.6,23.8c-0.7,1.7-1.1,3.9-1.1,6.4v19.9c0,2.6,0.4,4.7,1.1,6.4
						c0.8-1.7,1.1-3.9,1.1-6.4V30.2C42.8,27.7,42.4,25.5,41.6,23.8z"/>
				</g>
				<g>
					<path id="XMLID_68_" class="st1" d="M37.9,50.8c0,0-0.3,6.1,3.7,10.4c1.6,1.8,4,3.2,7.4,3.8c2.6,0.5,4.5-4.5,1.8-6.3
						c-0.3-0.1-5.4-1.8-5.4-8.5L37.9,50.8z"/>
					<path class="st1" d="M49.3,67.6L49.3,67.6c-0.3,0-0.6,0-0.8-0.1c-3.7-0.7-6.6-2.2-8.8-4.6c-4.7-5-4.4-12-4.4-12.3l0.1-2.3
						l12.4-1l0.3,2.9c-0.1,4.6,3.1,5.8,3.5,5.9l0.4,0.1l0.3,0.2c2.1,1.5,3,4.2,2.1,6.9C53.6,65.9,51.5,67.6,49.3,67.6z M40.7,53.2
						c0.3,1.8,1,4.3,2.8,6.2c1.4,1.5,3.2,2.4,5.6,2.9c0.1-0.2,0.3-0.6,0.3-1c0-0.1,0-0.3-0.1-0.3c-2.2-0.9-5.4-3.3-6.4-7.9
						L40.7,53.2z"/>
				</g>
			</g>
		</g>
	</g>
</g>
<path id="XMLID_109_" class="st0" d="M180.5,30c0.3-0.1,0.6-0.1,0.9-0.2c0.6-0.1,1.2-0.2,1.7-0.3c1.6-0.2,3.1-0.3,4.7-0.3
	c1,0,2.1,0,3.1-0.1c0.3,0,0.7-0.1,1,0.2c0.2,0.3,0.2,0.6,0.3,0.9s0.2,0.6,0.3,1c0.1,0.3,0.1,0.7,0.2,1.1c0,0.2,0,0.4,0.1,0.6
	c0,0.1,0.1,0.5,0,0.5c3.6-3,6.7-4.5,9.1-4.5c2.4,0,4.4,1,5.9,3.1c1.5,2,2.2,5,2.2,8.9c0,6.9-1.3,12-3.8,15.3c-2.4,3.2-6,5.2-10,5
	c-1.3-0.1-2.7-0.2-3.9-0.6c-0.5-0.2-1.1-0.4-1.1-1.1c0-0.4,0.1-0.9,0.4-1.2c0.2-0.2,0.6-0.3,0.9-0.4c0.3-0.2,0.7-0.4,1-0.6
	c0.7-0.4,1.3-0.9,1.9-1.5c1.4-1.3,2.4-3,3.2-4.8c1.6-3.8,2.5-8.6,1.2-12.6c-0.4-1.2-1.1-2.5-2.3-2.9c-1-0.4-2,0-2.8,0.7
	c-2.1,1.8-2.6,5-2.9,7.6c-0.6,4.1-1.2,8.1-2.1,12.2c-0.6,2.6-1.1,5.3-1.4,8c-0.3,2.4-0.7,4.8-0.8,7.1c0,0.7,0,1.4,0,2
	c0,0.5,0,1-0.4,1.3c-0.5,0.4-1.2,0.4-1.8,0.5c-0.9,0.3-1.9,0.5-2.9,0.6c-0.5,0.1-1.1,0.2-1.6,0.2c-0.6,0.1-1.3,0.1-1.9,0.2
	c-0.4,0.1-0.9,0.1-1.2-0.1l-0.1-0.1c-0.4-0.3-0.4-0.9-0.4-1.4c0-0.6,0-1.2,0-1.8c0-1.2,0.2-2.4,0.4-3.6c0.2-1,0.3-2.1,0.5-3.1
	c0.2-1.3,0.5-2.6,0.8-3.9c0.3-1.6,0.7-3.2,1-4.8c0-0.2,0.1-0.4,0.1-0.6c1.8-8.5,2.8-15,2.8-19.6c0-0.9-0.2-1.9-0.6-2.9
	c-0.3-0.7-0.6-1.3-1-1.9c-0.2-0.3-0.4-0.6-0.6-0.9c-0.2-0.2-0.4-0.5-0.3-0.9C180.1,30.2,180.3,30.1,180.5,30z"/>
</svg>
