<svg xmlns="http://www.w3.org/2000/svg" viewBox="0 0 82.8 80.4" xmlns:v="https://vecta.io/nano"><path d="M79.3 72c0 3.2-2.6 5.8-5.8 5.8H9.9c-3.2 0-5.8-2.6-5.8-5.8V8.4c0-3.2 2.6-5.8 5.8-5.8h63.6c3.2 0 5.8 2.6 5.8 5.8V72z" fill="#193d4b"/><g fill="#fff"><path d="M69.9 50.2c.1-3.2-2.8-3.9-4.5-3.6-3.3.6-3 3.6-3 3.6h0c0 3-.7 5.2-2.2 6.6-1.5 1.5-3.6 2.2-6.3 2.2-5.7 0-8.5-2.9-8.5-8.8h0c0 4.9-1.3 8.5-3.8 11l.6.6c2.9 2.5 6.8 3.7 11.7 3.7s8.8-1.2 11.7-3.7 4.3-6.4 4.3-11.6h0z"/><path d="M53.9 68.1c-5.5 0-10-1.5-13.4-4.3-.3-.2-.5-.5-.8-.7l-1.9-2 1.9-1.9c2-1.9 3-5 3-9.1H48c0 4.5 1.6 6.2 5.9 6.2 2 0 3.5-.5 4.4-1.4s1.4-2.5 1.4-4.7c-.2-2.2 1.1-5.6 5.2-6.3.4-.1.8-.1 1.2-.1 1.9 0 3.6.7 4.8 1.9.7.7 1.5 2 1.6 3.9v.1.3.1c0 6-1.8 10.6-5.3 13.6-3.3 2.9-7.8 4.4-13.3 4.4zm-8.6-7.3c2.2 1.4 5.1 2.1 8.6 2.1 4.2 0 7.6-1 10-3.1 2.2-1.9 3.4-4.9 3.4-9.1h0v-.5c0-.2 0-.5-.1-.6-.2-.2-.8-.4-1.3-.3-.4.1-.8.1-.8.7h0v.3c0 3.7-1 6.6-3 8.5-2 2-4.7 3-8.1 3-3.2 0-5.8-.9-7.7-2.5-.4.4-.7 1-1 1.5zm17.1-30.6c0-3-.7-5.2-2.2-6.6-1.5-1.5-3.6-2.2-6.3-2.2-5.6 0-8.5 2.9-8.5 8.7 0-4.9-1.2-8.5-3.7-11 .2-.2.4-.3.5-.5 2.9-2.5 6.8-3.7 11.7-3.7s8.8 1.2 11.7 3.7S70 24.9 70 30.2c0 0 .3 3.1-3 3.6-1.8.4-4.7-.4-4.6-3.6z"/><path d="M66.2 36.6c-1.9 0-3.6-.7-4.8-1.9-.8-.8-1.7-2.2-1.6-4.5 0-2.1-.5-3.7-1.4-4.7-1-1-2.4-1.4-4.4-1.4-4.2 0-6 1.7-6 6.1h-5.2c0-4.1-1-7.2-3-9.1l-1.9-2 1.9-1.9c.2-.2.4-.4.7-.6 3.4-2.9 7.9-4.3 13.4-4.3s10 1.5 13.4 4.3c3.5 3 5.3 7.5 5.3 13.5.2 2.2-1.1 5.6-5.2 6.3-.4.1-.8.2-1.2.2zM53.9 18.8c3.4 0 6.2 1 8.1 3 2 2 3 4.8 3 8.5 0 .3 0 .6.1.7.2.2.8.4 1.3.3.3 0 .9-.1.8-.8v-.3c0-4.5-1.1-7.6-3.4-9.6-2.4-2-5.8-3.1-10-3.1-3.4 0-6.3.7-8.5 2 .3.5.6 1 .9 1.6 1.9-1.5 4.5-2.3 7.7-2.3z"/></g><g fill="#00a651"><path d="M35.7 56.7c-1.5 1.5-3.6 2.2-6.3 2.2-5.7 0-8.5-2.9-8.5-8.8V30.2c0-5.9 2.8-8.8 8.5-8.8 2.7 0 4.8.7 6.3 2.2s2.2 3.7 2.2 6.6h0c0-4.9 1.3-8.5 3.8-11l-.6-.6c-2.9-2.5-6.8-3.7-11.7-3.7s-8.8 1.2-11.7 3.7-4.3 6.3-4.3 11.6v19.9c0 5.3 1.4 9.1 4.3 11.6s6.8 3.7 11.7 3.7 8.8-1.2 11.7-3.7c.2-.2.4-.3.5-.5-2.5-2.5-3.7-6.1-3.7-11 0 2.9-.8 5.1-2.2 6.5z"/><path d="M29.3 68c-5.5 0-10-1.5-13.4-4.3-3.5-3-5.2-7.5-5.2-13.6V30.2c0-6 1.8-10.6 5.2-13.6 3.4-2.9 7.9-4.3 13.4-4.3s10 1.5 13.4 4.3c.3.2.5.5.8.7l1.6 2-1.6 1.8c-2 1.9-3 5-3 9.1h-5.3c0-2.2-.5-3.8-1.4-4.8-1-1-2.4-1.4-4.4-1.4-4.2 0-5.9 1.7-5.9 6.2v19.9c0 4.5 1.6 6.2 5.9 6.2 2 0 3.5-.5 4.4-1.4s1.4-2.5 1.4-4.7h5.3c0 4.1 1 7.2 2.9 9.1l1.9 1.9-1.9 1.9c-.2.2-.4.4-.7.6-3.3 2.8-7.8 4.3-13.4 4.3zm0-50.5c-4.2 0-7.6 1-10 3.1-2.3 2-3.4 5.1-3.4 9.6v19.9c0 4.5 1.1 7.6 3.4 9.6 2.4 2 5.7 3.1 10 3.1 3.4 0 6.3-.7 8.5-2-.3-.5-.6-1.1-.9-1.6-1.9 1.6-4.5 2.5-7.6 2.5-7.1 0-11.1-4.2-11.1-11.5v-20c0-7.3 4.1-11.5 11.1-11.5 3.2 0 5.7.8 7.7 2.5.3-.6.6-1.1.9-1.6-2.2-1.4-5.1-2.1-8.6-2.1z"/><path d="M37.9 30.2v19.9.1c0 4.9 1.2 8.5 3.7 11 2.5-2.5 3.8-6.1 3.8-11v-20-.1c0-4.9-1.2-8.5-3.7-11-2.6 2.5-3.8 6.2-3.8 11.1z"/><path d="M41.5 64.5l-1.8-1.4c-3-3-4.5-7.3-4.5-12.9v-20c0-5.6 1.6-9.9 4.6-12.9l1.5-1.5 2.2 1.5c3 3 4.5 7.3 4.5 12.9v20c0 5.6-1.6 9.9-4.6 12.9l-1.9 1.4zm.1-40.7c-.7 1.7-1.1 3.9-1.1 6.4v19.9c0 2.6.4 4.7 1.1 6.4.8-1.7 1.1-3.9 1.1-6.4V30.2c.1-2.5-.3-4.7-1.1-6.4z"/><path d="M37.9 50.8s-.3 6.1 3.7 10.4c1.6 1.8 4 3.2 7.4 3.8 2.6.5 4.5-4.5 1.8-6.3-.3-.1-5.4-1.8-5.4-8.5l-7.5.6z"/><path d="M49.3 67.6h0c-.3 0-.6 0-.8-.1-3.7-.7-6.6-2.2-8.8-4.6-4.7-5-4.4-12-4.4-12.3l.1-2.3 12.4-1 .3 2.9c-.1 4.6 3.1 5.8 3.5 5.9l.4.1.3.2c2.1 1.5 3 4.2 2.1 6.9-.8 2.6-2.9 4.3-5.1 4.3zm-8.6-14.4c.3 1.8 1 4.3 2.8 6.2 1.4 1.5 3.2 2.4 5.6 2.9.1-.2.3-.6.3-1 0-.1 0-.3-.1-.3-2.2-.9-5.4-3.3-6.4-7.9l-2.2.1z"/></g></svg>