<svg width="143" height="46" viewBox="0 0 143 46" fill="none" xmlns="http://www.w3.org/2000/svg">
<g clip-path="url(#clip0)">
<path d="M4.93551 39.8575H1.46731V42.439H5.52128V43.6029H0V35.2132H5.48068V36.3887H1.46731V38.7051H4.93551V39.8575Z" fill="#FC6011"/>
<path d="M17.8846 37.3683L17.9252 38.0885C18.3892 37.5315 18.9982 37.253 19.7521 37.253C21.059 37.253 21.724 37.9963 21.7472 39.483V43.6029H20.3379V39.5636C20.3379 39.168 20.2509 38.876 20.0769 38.6878C19.9068 38.4957 19.6264 38.3997 19.2359 38.3997C18.6676 38.3997 18.2442 38.6551 17.9658 39.1661V43.6029H16.5565V37.3683H17.8846Z" fill="#FC6011"/>
<path d="M34.9515 35.8528V37.3683H36.0592V38.4054H34.9515V41.8858C34.9515 42.124 34.9979 42.2968 35.0907 42.4044C35.1873 42.5081 35.3575 42.56 35.601 42.56C35.7634 42.56 35.9278 42.5408 36.094 42.5024V43.5856C35.7731 43.674 35.4638 43.7182 35.1661 43.7182C34.0835 43.7182 33.5422 43.1247 33.5422 41.9377V38.4054H32.5098V37.3683H33.5422V35.8528H34.9515Z" fill="#FC6011"/>
<path d="M49.9015 43.7182C49.0083 43.7182 48.2834 43.4397 47.7266 42.8827C47.1737 42.3218 46.8972 41.5766 46.8972 40.6469V40.4741C46.8972 39.8518 47.0171 39.2967 47.2568 38.8088C47.5004 38.3171 47.8407 37.9349 48.2776 37.6621C48.7145 37.3894 49.2016 37.253 49.7391 37.253C50.5936 37.253 51.2528 37.5238 51.7168 38.0655C52.1846 38.6071 52.4185 39.3735 52.4185 40.3646V40.9293H48.3182C48.3607 41.444 48.5327 41.8512 48.8343 42.1509C49.1398 42.4505 49.5226 42.6003 49.9827 42.6003C50.6284 42.6003 51.1542 42.341 51.5602 41.8224L52.3199 42.5427C52.0686 42.9153 51.7322 43.2053 51.3108 43.4128C50.8932 43.6164 50.4234 43.7182 49.9015 43.7182ZM49.7333 38.3766C49.3466 38.3766 49.0335 38.5111 48.7937 38.78C48.5579 39.0489 48.4071 39.4234 48.3414 39.9036H51.0266V39.7999C50.9957 39.3312 50.87 38.9778 50.6496 38.7397C50.4292 38.4976 50.1238 38.3766 49.7333 38.3766Z" fill="#FC6011"/>
<path d="M66.8001 38.6475C66.6146 38.6167 66.4232 38.6014 66.226 38.6014C65.5803 38.6014 65.1453 38.8472 64.9211 39.3389V43.6029H63.5117V37.3683H64.8573L64.8921 38.0655C65.2323 37.5238 65.704 37.253 66.3072 37.253C66.5082 37.253 66.6745 37.2799 66.8059 37.3337L66.8001 38.6475Z" fill="#FC6011"/>
<path d="M83.1826 40.549C83.1826 41.5132 82.9623 42.2834 82.5215 42.8596C82.0807 43.432 81.4891 43.7182 80.7468 43.7182C80.0586 43.7182 79.5076 43.4935 79.0939 43.044V46H77.6846V37.3683H78.9837L79.0417 38.0021C79.4554 37.5027 80.018 37.253 80.7294 37.253C81.4949 37.253 82.0942 37.5373 82.5273 38.1058C82.9642 38.6705 83.1826 39.4561 83.1826 40.4625V40.549ZM81.7791 40.428C81.7791 39.8057 81.6535 39.312 81.4021 38.9471C81.1547 38.5822 80.799 38.3997 80.335 38.3997C79.7589 38.3997 79.3452 38.6359 79.0939 39.1084V41.8743C79.3491 42.3583 79.7666 42.6003 80.3466 42.6003C80.7951 42.6003 81.145 42.4217 81.3963 42.0644C81.6515 41.7033 81.7791 41.1578 81.7791 40.428Z" fill="#FC6011"/>
<path d="M97.6629 38.6475C97.4773 38.6167 97.2859 38.6014 97.0887 38.6014C96.443 38.6014 96.008 38.8472 95.7838 39.3389V43.6029H94.3745V37.3683H95.72L95.7548 38.0655C96.095 37.5238 96.5667 37.253 97.1699 37.253C97.3709 37.253 97.5372 37.2799 97.6687 37.3337L97.6629 38.6475Z" fill="#FC6011"/>
<path d="M110.049 43.6029H108.64V37.3683H110.049V43.6029ZM108.553 35.7491C108.553 35.534 108.621 35.3553 108.756 35.2132C108.895 35.0711 109.092 35 109.348 35C109.603 35 109.8 35.0711 109.939 35.2132C110.078 35.3553 110.148 35.534 110.148 35.7491C110.148 35.9604 110.078 36.1371 109.939 36.2792C109.8 36.4175 109.603 36.4866 109.348 36.4866C109.092 36.4866 108.895 36.4175 108.756 36.2792C108.621 36.1371 108.553 35.9604 108.553 35.7491Z" fill="#FC6011"/>
<path d="M125.104 41.9089C125.104 41.6592 124.999 41.469 124.791 41.3384C124.586 41.2078 124.243 41.0925 123.764 40.9927C123.285 40.8928 122.884 40.766 122.564 40.6124C121.86 40.2743 121.508 39.7845 121.508 39.143C121.508 38.6052 121.736 38.1558 122.192 37.7947C122.649 37.4336 123.229 37.253 123.932 37.253C124.682 37.253 125.287 37.4374 125.748 37.8062C126.212 38.175 126.443 38.6532 126.443 39.241H125.034C125.034 38.9721 124.934 38.7493 124.733 38.5726C124.532 38.392 124.265 38.3017 123.932 38.3017C123.623 38.3017 123.37 38.3728 123.172 38.5149C122.979 38.6571 122.883 38.8472 122.883 39.0854C122.883 39.3005 122.973 39.4676 123.155 39.5867C123.337 39.7058 123.704 39.8268 124.257 39.9497C124.81 40.0688 125.243 40.2129 125.556 40.3819C125.873 40.5471 126.107 40.7468 126.258 40.9811C126.413 41.2155 126.49 41.4997 126.49 41.8339C126.49 42.3948 126.256 42.85 125.788 43.1996C125.32 43.5453 124.707 43.7182 123.95 43.7182C123.435 43.7182 122.977 43.626 122.575 43.4416C122.173 43.2572 121.86 43.0037 121.636 42.681C121.411 42.3583 121.299 42.0107 121.299 41.638H122.668C122.687 41.9684 122.813 42.2239 123.045 42.4044C123.277 42.5811 123.584 42.6695 123.967 42.6695C124.338 42.6695 124.62 42.6003 124.814 42.462C125.007 42.3199 125.104 42.1355 125.104 41.9089Z" fill="#FC6011"/>
<path d="M140.483 43.7182C139.59 43.7182 138.865 43.4397 138.308 42.8827C137.755 42.3218 137.479 41.5766 137.479 40.6469V40.4741C137.479 39.8518 137.599 39.2967 137.838 38.8088C138.082 38.3171 138.422 37.9349 138.859 37.6621C139.296 37.3894 139.783 37.253 140.321 37.253C141.175 37.253 141.834 37.5238 142.298 38.0655C142.766 38.6071 143 39.3735 143 40.3646V40.9293H138.9C138.942 41.444 139.114 41.8512 139.416 42.1509C139.721 42.4505 140.104 42.6003 140.564 42.6003C141.21 42.6003 141.736 42.341 142.142 41.8224L142.901 42.5427C142.65 42.9153 142.314 43.2053 141.892 43.4128C141.475 43.6164 141.005 43.7182 140.483 43.7182ZM140.315 38.3766C139.928 38.3766 139.615 38.5111 139.375 38.78C139.139 39.0489 138.989 39.4234 138.923 39.9036H141.608V39.7999C141.577 39.3312 141.451 38.9778 141.231 38.7397C141.011 38.4976 140.705 38.3766 140.315 38.3766Z" fill="#FC6011"/>
<path d="M36.1469 15.1193C36.1383 13.7365 36.5378 12.3819 37.2952 11.225C38.0503 10.0447 39.106 9.0867 40.3538 8.44932C41.4587 7.86411 42.676 7.52214 43.924 7.44639C45.172 7.37065 46.4218 7.56287 47.5894 8.01015C48.5786 8.3735 49.4873 8.9268 50.2642 9.63891C51.04 10.3385 51.6682 11.186 52.1118 12.1318C52.5443 13.1014 52.7666 14.1515 52.7642 15.2132C52.7617 16.2748 52.5346 17.3239 52.0976 18.2915C51.6648 19.2339 51.0427 20.0772 50.2699 20.7687C49.494 21.4822 48.5851 22.0357 47.5951 22.3975C45.5686 23.1328 43.3482 23.1328 41.3216 22.3975L40.9962 22.2554L40.6707 22.1133V28.0825L36.1525 28.0683L36.1469 15.1193ZM40.665 15.2173C40.6563 15.8602 40.8383 16.4913 41.1881 17.0308C41.5351 17.5862 42.0179 18.044 42.5908 18.3611C43.1518 18.6875 43.7895 18.8587 44.4385 18.8572C45.0942 18.8585 45.7387 18.6875 46.3074 18.3611C46.88 18.044 47.3623 17.5861 47.7088 17.0308C48.0588 16.4915 48.2435 15.8617 48.2403 15.2187C48.242 14.7294 48.1418 14.245 47.9461 13.7965C47.7503 13.3479 47.4633 12.9451 47.1033 12.6136C46.3962 11.9151 45.4423 11.5234 44.4484 11.5234C43.4545 11.5234 42.5006 11.9151 41.7935 12.6136C41.4333 12.9445 41.1467 13.3474 40.9523 13.7962C40.7579 14.245 40.66 14.7297 40.665 15.2187V15.2173Z" fill="#326DE6"/>
<path d="M58.6921 2.40332V8.86008C59.1503 8.40087 59.7005 8.04388 60.3066 7.81261C60.9397 7.56029 61.6149 7.43055 62.2964 7.4303C65.9301 7.4303 67.7469 9.55886 67.7469 13.816V22.5112L63.2159 22.5254V14.1287C63.2159 13.2589 63.0174 12.6074 62.6204 12.1744C62.2234 11.7414 61.6649 11.5245 60.9448 11.5235C60.2455 11.5235 59.6974 11.741 59.3004 12.1759C58.9034 12.6108 58.7006 13.2622 58.6921 14.1301V22.5155L54.1611 22.5439V2.41611L58.6921 2.40332Z" fill="#326DE6"/>
<path d="M81.2545 22.0864C80.9504 22.2185 80.7301 22.3081 80.588 22.355C79.4206 22.801 78.1718 22.9937 76.9243 22.9202C75.6768 22.8467 74.4592 22.5087 73.3524 21.9286C72.1082 21.286 71.0538 20.3291 70.2938 19.1529C69.6374 18.107 69.2499 16.915 69.1658 15.683C69.0817 14.4511 69.3037 13.2175 69.812 12.0921C70.2493 11.1568 70.8704 10.3192 71.6383 9.62908C72.4116 8.92545 73.3162 8.38158 74.3003 8.02874C75.3041 7.64331 76.3704 7.44672 77.4456 7.44887C78.5186 7.44959 79.5828 7.64211 80.588 8.01737C81.5734 8.37506 82.4785 8.92373 83.2514 9.63192C84.0228 10.3207 84.6482 11.1573 85.0905 12.0921C85.5371 13.06 85.7647 14.1145 85.7571 15.1805L85.7429 22.5582L81.2545 22.5156V22.0864ZM74.1866 13.3485C73.8408 13.895 73.6592 14.5295 73.6636 15.1762C73.6606 15.6637 73.7603 16.1464 73.9562 16.5928C74.1521 17.0392 74.4398 17.4393 74.8006 17.7672C75.5121 18.4573 76.4643 18.8432 77.4555 18.8432C78.4467 18.8432 79.3989 18.4573 80.1104 17.7672C80.4712 17.4393 80.7589 17.0392 80.9548 16.5928C81.1507 16.1464 81.2504 15.6637 81.2474 15.1762C81.2513 14.5293 81.0693 13.8949 80.723 13.3485C80.3757 12.7939 79.8936 12.3362 79.3216 12.0182C78.752 11.7021 78.1113 11.5363 77.4598 11.5363C76.8083 11.5363 76.1676 11.7021 75.598 12.0182C75.0225 12.335 74.5369 12.7927 74.1866 13.3485Z" fill="#326DE6"/>
<path d="M94.5957 11.7921C94.319 11.6187 93.9998 11.5253 93.6733 11.5221H93.4189C92.2658 11.5704 91.6902 12.3729 91.692 13.9297V22.5112H87.1597V13.9297C87.1597 9.80521 89.2442 7.63875 93.4132 7.4303H93.6676C93.9766 7.43863 94.2847 7.46711 94.59 7.51557L94.5957 11.7921Z" fill="#326DE6"/>
<path d="M108.828 13.6043V22.5255H104.28V13.6043C104.204 12.2721 103.632 11.5875 102.566 11.5506H102.31C101.161 11.5885 100.586 12.3863 100.585 13.944V22.5255H96.0513V13.9397C96.0513 9.83417 98.1358 7.66771 102.305 7.44031H102.561C104.221 7.53506 105.552 7.93159 106.554 8.6299C107.544 7.93064 108.871 7.53411 110.534 7.44031H110.787C114.961 7.66581 117.045 9.83228 117.04 13.9397V22.5212H112.524V13.9397C112.524 12.382 111.948 11.5842 110.795 11.5463H110.542C109.475 11.5871 108.904 12.273 108.828 13.6043Z" fill="#326DE6"/>
<path d="M133.753 12.1034C134.181 13.0658 134.398 14.1086 134.391 15.1619V15.2884C134.391 15.3408 134.386 15.3931 134.377 15.4447L134.348 15.6849H132.592V15.7148H122.85C122.98 16.576 123.411 17.3632 124.067 17.9359C124.723 18.5087 125.561 18.8296 126.432 18.8415C126.908 18.846 127.38 18.7528 127.818 18.5678C128.257 18.3827 128.653 18.1097 128.982 17.7656L129.009 17.7372L129.053 17.6804L129.095 17.6377L129.122 17.5965L131.558 21.0786C130.918 21.6104 130.202 22.0448 129.435 22.3677C128.479 22.7449 127.46 22.9378 126.432 22.9362C125.06 22.9452 123.709 22.5985 122.511 21.9299C121.302 21.2781 120.29 20.3149 119.579 19.14C118.945 18.0893 118.573 16.9024 118.491 15.6784C118.41 14.4544 118.622 13.2286 119.111 12.1034C119.527 11.173 120.124 10.3351 120.868 9.63891C121.602 8.93453 122.468 8.38115 123.416 8.01016C124.377 7.63457 125.4 7.44177 126.432 7.44165C127.46 7.44071 128.479 7.63358 129.435 8.01016C130.384 8.37844 131.253 8.92668 131.993 9.6247C132.745 10.3201 133.344 11.1642 133.753 12.1034ZM126.432 11.5349C125.805 11.5336 125.189 11.6999 124.648 12.0167C124.272 12.2547 123.936 12.5512 123.653 12.895H129.205C128.922 12.5512 128.586 12.2547 128.21 12.0167C127.67 11.7017 127.057 11.5359 126.432 11.5363V11.5349Z" fill="#326DE6"/>
<path d="M143.23 11.7921C142.953 11.6187 142.634 11.5253 142.307 11.5221H142.053C140.902 11.5704 140.326 12.3729 140.326 13.9297V22.5112H135.794V13.9297C135.794 9.80521 137.878 7.63875 142.047 7.4303H142.302C142.611 7.43863 142.919 7.46711 143.224 7.51557L143.23 11.7921Z" fill="#326DE6"/>
<path d="M15.4334 0.0113703C15.0063 0.0177459 14.5853 0.114627 14.1983 0.295621L4.1188 5.11652C3.72979 5.29878 3.38759 5.56755 3.11836 5.90231C2.84912 6.23707 2.65997 6.62895 2.56537 7.048L0.0753351 17.8652C-0.0237903 18.2859 -0.0251113 18.7238 0.0714727 19.1451C0.168057 19.5664 0.359973 19.96 0.632466 20.2955L7.60514 28.9652C7.87238 29.2926 8.20997 29.5557 8.59282 29.7348C8.97567 29.9139 9.39395 30.0045 9.81661 29.9998H20.9919C21.4162 30.0019 21.8354 29.9082 22.2183 29.7256C22.6012 29.543 22.938 29.2762 23.2034 28.9453L30.1761 20.2756C30.4496 19.9407 30.6422 19.5471 30.7388 19.1256C30.8354 18.7041 30.8335 18.2659 30.7332 17.8453L28.2432 7.0281C28.1486 6.60905 27.9594 6.21718 27.6902 5.88242C27.4209 5.54766 27.0787 5.27888 26.6897 5.09662L16.6571 0.284251C16.2774 0.101164 15.862 0.00410675 15.4405 0L15.4334 0.0113703ZM15.4405 0.935185C15.7227 0.935005 16.0015 0.996105 16.2577 1.11426L26.3387 5.91526C26.5963 6.04124 26.8228 6.22287 27.0018 6.44702C27.1807 6.67118 27.3076 6.93227 27.3734 7.21144L29.8634 18.0286C29.9327 18.3114 29.9345 18.6065 29.8689 18.8901C29.8032 19.1738 29.6718 19.438 29.4853 19.6616L22.5127 28.3313C22.3344 28.5563 22.1073 28.7379 21.8485 28.8623C21.5897 28.9866 21.306 29.0505 21.0189 29.049H9.83509C9.54798 29.0505 9.2643 28.9866 9.00551 28.8623C8.74672 28.7379 8.5196 28.5563 8.34135 28.3313L1.36867 19.6616C1.19041 19.4334 1.06409 19.1691 0.998549 18.887C0.933007 18.605 0.929816 18.312 0.9892 18.0286L3.48208 7.21713C3.54564 6.93704 3.67173 6.67495 3.85091 6.45049C4.03009 6.22603 4.25772 6.04499 4.51675 5.92094L14.5977 1.10005C14.8645 0.997571 15.1476 0.94366 15.4334 0.940869" fill="#326DE6"/>
<path d="M5.45192 19.4584C5.78341 20.6772 6.33072 21.8267 7.06788 22.8523C7.51602 23.4827 8.03696 24.058 8.61989 24.5664C8.97393 24.8833 9.34648 25.179 9.73558 25.4518L11.289 26.2861C12.7732 26.9584 14.3977 27.2626 16.0246 27.1729C16.8846 27.1326 17.7356 26.9797 18.5559 26.7181L20.0226 26.0203C21.1021 25.4438 22.0657 24.6729 22.8651 23.7463C23.6741 22.808 24.3098 21.7334 24.7426 20.5726L25.2187 18.8956C25.3015 18.4155 25.3561 17.9309 25.3822 17.4445C25.4355 15.4325 24.9202 13.4463 23.8955 11.714L24.1514 11.4979L24.1627 11.424C24.1637 11.2872 24.2171 11.156 24.312 11.0574C24.6832 10.7768 25.0763 10.5264 25.4873 10.3084L25.5087 10.2941C25.5826 10.2459 25.6637 10.2095 25.7488 10.1861C25.891 10.1165 26.0331 10.044 26.1923 9.96441L26.3813 9.82228C26.5622 9.69548 26.6859 9.5025 26.7255 9.28516C26.7652 9.06783 26.7176 8.84362 26.5931 8.66112C26.4584 8.48734 26.2619 8.37227 26.0445 8.33991C25.9362 8.32203 25.8254 8.32641 25.7188 8.35281C25.6123 8.3792 25.5122 8.42704 25.4248 8.49341L25.2571 8.61422C25.1214 8.71036 25.0027 8.82854 24.906 8.96384C24.8591 9.03064 24.7952 9.07612 24.727 9.15855L24.7071 9.17277C24.3191 9.51671 23.9879 9.85213 23.6227 10.0497C23.4991 10.1085 23.3577 10.1176 23.2275 10.0753L23.1551 10.0625L22.8708 10.2359C22.5579 9.87256 22.2258 9.52623 21.8759 9.19835C20.3694 7.82866 18.4894 6.93814 16.4752 6.6401L16.4666 6.32031L16.4354 6.27767C16.4055 6.23504 16.3529 6.20661 16.3231 6.16398C16.2744 6.09428 16.2477 6.01162 16.2463 5.92662C16.2495 5.44869 16.3024 4.97238 16.4041 4.50537C16.4254 4.42207 16.4383 4.33684 16.4425 4.25097C16.4821 4.0893 16.5129 3.92562 16.5349 3.76063C16.5349 3.72368 16.5349 3.66683 16.5349 3.59293C16.5349 3.55739 16.5249 3.53608 16.5462 3.52044C16.5577 3.30911 16.4971 3.10014 16.3743 2.92778C16.3084 2.83226 16.2214 2.75313 16.1202 2.69646C16.0189 2.63979 15.906 2.60709 15.7901 2.60089C15.3637 2.58241 14.9914 2.94768 14.9558 3.42806C14.9715 3.44938 14.9558 3.46501 14.9658 3.48633C14.9757 3.5446 14.9487 3.59577 14.9658 3.65404C14.9731 3.82649 14.9912 3.99832 15.0198 4.16853C15.0418 4.25639 15.0533 4.34657 15.0539 4.43715C15.1126 4.91184 15.1278 5.39089 15.0994 5.86835C15.0878 5.93839 15.0604 6.00486 15.0192 6.06273C14.9781 6.1206 14.9244 6.16835 14.862 6.20235L14.8208 6.23219L14.7867 6.58182C14.705 6.57572 14.6229 6.58002 14.5423 6.59461C12.1404 6.71502 9.86561 7.70987 8.14662 9.39164L7.86237 9.17419C7.84105 9.1884 7.82541 9.16708 7.8041 9.18272C7.66676 9.20566 7.52571 9.18056 7.40472 9.11165C7.02896 8.80807 6.68642 8.46553 6.38284 8.08977L6.36863 8.06845C6.31969 7.99405 6.26034 7.92705 6.19239 7.86948C6.08904 7.73444 5.9765 7.6067 5.85556 7.48716C5.82429 7.4431 5.77312 7.4161 5.74185 7.37346C5.73468 7.36079 5.72488 7.3498 5.71311 7.34122C5.70135 7.33265 5.68789 7.32668 5.67363 7.32372C5.51519 7.17337 5.30509 7.08955 5.08666 7.08955C4.86823 7.08955 4.65813 7.17337 4.49968 7.32372C4.25238 7.59802 4.26517 8.01302 4.51105 8.35555C4.54848 8.4159 4.59665 8.46889 4.65317 8.51189C4.66881 8.5332 4.68302 8.55452 4.70434 8.54031C4.73561 8.58295 4.78677 8.60995 4.81804 8.65401C4.95056 8.76243 5.09336 8.85764 5.24442 8.93826C5.31264 8.98801 5.40075 9.02211 5.46755 9.07044L5.48319 9.09318C5.88609 9.34808 6.26017 9.64592 6.59887 9.98146L6.63014 10.0241C6.6982 10.1292 6.73151 10.253 6.72536 10.378C6.741 10.3993 6.72536 10.4149 6.73531 10.4363L6.99398 10.7063C5.80927 12.354 5.14273 14.3175 5.07955 16.3458C5.06994 16.7995 5.08893 17.2533 5.1364 17.7046L5.45192 19.4584ZM15.7915 15.5983L16.5476 16.6486L16.2151 17.8652L15.0781 18.3583L13.9567 17.7301L13.7179 16.4709L14.5309 15.5272L15.7915 15.5983ZM14.4286 8.67249L14.0462 12.8197C14.0394 12.9083 14.0152 12.9947 13.9749 13.074C13.9346 13.1532 13.879 13.2237 13.8114 13.2814C13.7438 13.3391 13.6655 13.3829 13.5809 13.4102C13.4963 13.4376 13.4072 13.448 13.3186 13.4408C13.1875 13.4389 13.0618 13.3882 12.9661 13.2987L9.63325 10.6537C10.9728 9.48789 12.6568 8.79212 14.4286 8.67249ZM6.98403 17.2185C6.87269 15.434 7.34947 13.6621 8.34133 12.1745L11.3601 15.1761C11.4671 15.3054 11.525 15.4683 11.5234 15.6361C11.5218 15.8038 11.461 15.9656 11.3515 16.0929C11.2592 16.1988 11.1375 16.2749 11.0019 16.3117L6.98403 17.2185ZM12.1432 19.7526L10.422 23.4962C10.2202 23.354 10.0241 23.165 9.80806 22.9959C9.34341 22.5806 8.92373 22.1175 8.55594 21.6144C8.03185 20.8772 7.61995 20.0663 7.33366 19.2082L11.5448 18.7478C11.7005 18.7609 11.8475 18.8249 11.9631 18.93C12.0788 19.0351 12.1565 19.1753 12.1844 19.3291C12.1981 19.4716 12.1841 19.6154 12.1432 19.7526ZM15.7247 25.0837C14.5251 25.1405 13.3274 24.9364 12.2142 24.4854L14.4016 20.8612C14.5037 20.7367 14.6462 20.652 14.8043 20.6216C14.9624 20.5912 15.1261 20.6172 15.2671 20.6949C15.3792 20.7581 15.4762 20.8449 15.5513 20.9493L17.4544 24.7867C16.8989 24.9833 16.314 25.0837 15.7247 25.0837ZM16.6116 13.3825C16.545 13.2941 16.5029 13.1897 16.4894 13.0798L16.4254 8.79898C17.9202 9.06352 19.3107 9.74205 20.439 10.7575C20.6508 10.9635 20.8469 11.1483 21.0587 11.353L17.5724 13.5701C17.4187 13.668 17.2333 13.703 17.0545 13.6681C16.8757 13.6332 16.7172 13.531 16.6116 13.3825ZM21.2804 22.3876C20.7083 23.0507 20.0307 23.6149 19.275 24.0576L17.8353 20.115C17.7712 19.947 17.7747 19.7606 17.8449 19.5951C17.9151 19.4295 18.0466 19.2975 18.2119 19.2267C18.3139 19.1845 18.4257 19.1717 18.5346 19.1898L22.6818 20.142C22.3396 20.9616 21.8663 21.72 21.2804 22.3876ZM23.1949 18.2034L19.2281 16.7964C19.0688 16.7302 18.939 16.6084 18.8629 16.4536C18.7868 16.2987 18.7696 16.1215 18.8145 15.955C18.8388 15.8516 18.8914 15.7571 18.9666 15.6821L22.2355 13.0357C23.1222 14.6033 23.4598 16.4221 23.1949 18.2034Z" fill="#326DE6"/>
<path d="M25.3681 17.9405V17.9476C25.3823 17.8353 25.3979 17.7245 25.4093 17.6136C24.7584 18.4195 21.3189 22.3251 16.7752 19.5707C11.2209 16.2051 11.9671 14.1543 8.00604 14.1458C6.98416 14.1458 5.80594 14.6887 5.18911 15.3723C5.00381 16.781 5.12367 18.2131 5.54055 19.5714C5.95743 20.9297 6.66159 22.1824 7.60524 23.2446L7.61804 23.256C7.77295 23.4308 7.93355 23.5985 8.10268 23.7634L8.12969 23.7904C8.30166 23.9567 8.48074 24.1187 8.66692 24.2736L8.68682 24.2907C8.87727 24.4484 9.07482 24.6019 9.27806 24.7469L9.28943 24.7554C9.49693 24.8975 9.71581 25.0397 9.93468 25.1818C10.5197 25.5374 11.1386 25.834 11.7823 26.0672C12.0992 26.1809 12.4205 26.279 12.7431 26.36C14.662 26.8412 16.6785 26.7633 18.5546 26.1354C18.8625 26.0322 19.1657 25.9142 19.4642 25.7816C19.6063 25.7162 19.7598 25.6465 19.9062 25.5726C20.1976 25.4305 20.4818 25.2671 20.7589 25.0922C20.9011 25.0056 21.0347 24.9146 21.1697 24.8208C21.7655 24.4037 22.314 23.9228 22.8056 23.3867L22.8397 23.3484C22.9562 23.2219 23.0685 23.0911 23.1793 22.9561L23.2433 22.8794C23.3456 22.75 23.4465 22.6193 23.5446 22.4842C23.5631 22.4572 23.5844 22.4317 23.6029 22.4047C23.7152 22.2469 23.8246 22.0863 23.9283 21.92C24.0221 21.7708 24.1103 21.6187 24.1941 21.4666L24.2112 21.4368C24.2282 21.4069 24.2424 21.3771 24.2581 21.3472C24.3206 21.2307 24.3817 21.1142 24.44 20.9962C24.4499 20.9763 24.4585 20.955 24.4684 20.9351C24.4784 20.9152 24.4983 20.8697 24.5139 20.8384C24.5651 20.729 24.6134 20.6196 24.656 20.5101C24.6646 20.4874 24.6745 20.4661 24.683 20.4447L24.7001 20.405L24.7257 20.341C24.7711 20.2273 24.8138 20.1136 24.855 19.9985C24.8592 19.9898 24.8625 19.9808 24.865 19.9715C25.0403 19.4814 25.1762 18.9781 25.2714 18.4664C25.269 18.4746 25.2662 18.4826 25.2629 18.4905C25.2629 18.455 25.2743 18.418 25.2814 18.3825C25.2885 18.347 25.2927 18.3257 25.2984 18.2958V18.3043C25.3126 18.2148 25.3269 18.1253 25.3396 18.0357C25.3595 18.0002 25.3652 17.9703 25.3681 17.9405Z" fill="white"/>
<path d="M9.93464 25.7176C14.7186 28.6155 20.9863 27.1559 23.9354 22.4558C24.7563 21.1539 25.2597 19.6773 25.405 18.1451C24.7626 18.9524 21.3175 22.8566 16.7737 20.1036C11.2195 16.7381 11.967 14.6872 8.006 14.6787C6.9827 14.6787 5.80448 15.2216 5.18765 15.9052C4.93695 17.8254 5.25266 19.777 6.09598 21.5202C6.9393 23.2634 8.2735 24.7223 9.93464 25.7176Z" fill="url(#paint0_linear)"/>
<path d="M23.9353 22.4558C24.6956 21.2488 25.1844 19.891 25.3679 18.4763C24.4683 19.9956 21.9967 23.4223 16.107 21.5391C14.1173 20.9024 10.5329 17.1332 8.05845 19.2879C6.64572 20.5172 6.72958 22.1758 7.60649 23.7847C8.28108 24.543 9.06585 25.1955 9.9345 25.7204C14.7184 28.6155 20.9862 27.1573 23.9353 22.4558Z" fill="url(#paint1_linear)"/>
<path d="M23.9437 22.4046C24.6318 21.3119 25.0983 20.0944 25.3167 18.8217C25.0846 19.3487 24.7856 19.8436 24.427 20.2941C23.3951 21.6457 21.016 24.184 15.2101 23.1224C11.1994 22.3904 9.92591 23.9481 10.6962 26.0786C15.3651 28.4037 21.1467 26.8631 23.9437 22.4046Z" fill="url(#paint2_linear)"/>
<path d="M23.9424 22.389C24.6057 21.3336 25.0633 20.1623 25.2912 18.9368C25.1675 19.2793 23.418 22.5354 20.088 23.2588C15.9109 24.1727 15.6025 25.0254 15.6977 26.0317C15.7304 26.3827 15.8527 26.8688 16.0872 27.1076C17.6742 26.9896 19.2114 26.5014 20.5756 25.6819C21.9398 24.8625 23.0929 23.7347 23.9424 22.389Z" fill="url(#paint3_linear)"/>
</g>
<defs>
<linearGradient id="paint0_linear" x1="5.09491" y1="20.928" x2="25.4003" y2="20.9705" gradientUnits="userSpaceOnUse">
<stop stop-color="#0369D3"/>
<stop offset="0.48" stop-color="#00BAFF"/>
<stop offset="1" stop-color="#0043B5"/>
</linearGradient>
<linearGradient id="paint1_linear" x1="3510.63" y1="3478.01" x2="5891.73" y2="3478.01" gradientUnits="userSpaceOnUse">
<stop stop-color="#0369D3"/>
<stop offset="0.48" stop-color="#00BAFF"/>
<stop offset="1" stop-color="#0043B5"/>
</linearGradient>
<linearGradient id="paint2_linear" x1="3202.71" y1="3329.08" x2="4749.57" y2="3329.08" gradientUnits="userSpaceOnUse">
<stop stop-color="#0369D3"/>
<stop offset="0.48" stop-color="#00BAFF"/>
<stop offset="1" stop-color="#0043B5"/>
</linearGradient>
<linearGradient id="paint3_linear" x1="2434.79" y1="3266.58" x2="3083.16" y2="3266.58" gradientUnits="userSpaceOnUse">
<stop stop-color="#0369D3"/>
<stop offset="0.48" stop-color="#00BAFF"/>
<stop offset="1" stop-color="#0043B5"/>
</linearGradient>
<clipPath id="clip0">
<rect width="143" height="46" fill="white"/>
</clipPath>
</defs>
</svg>
