<svg id="Layer_1" data-name="Layer 1" xmlns="http://www.w3.org/2000/svg" xmlns:xlink="http://www.w3.org/1999/xlink" viewBox="0 0 511 511"><defs><style>.cls-1{fill:#fff;}.cls-2{mask:url(#mask);}.cls-3{fill:#326de6;}.cls-4{fill:none;}.cls-5{fill:url(#linear-gradient);}.cls-6{fill:url(#linear-gradient-2);}.cls-7{fill:url(#linear-gradient-3);}.cls-8{fill:url(#linear-gradient-4);}</style><mask id="mask" x="0.51" y="8" width="509.94" height="496.56" maskUnits="userSpaceOnUse"><g id="mask-2"><polygon id="path-1" class="cls-1" points="510.45 504.56 510.45 8 0.51 8 0.51 504.56 510.45 504.56"/></g></mask><linearGradient id="linear-gradient" x1="83.15" y1="366.77" x2="419.23" y2="366.77" gradientTransform="translate(2.47 -12.63) rotate(0.12)" gradientUnits="userSpaceOnUse"><stop offset="0" stop-color="#0369d3"/><stop offset="0.48" stop-color="#00baff"/><stop offset="1" stop-color="#0043b5"/></linearGradient><linearGradient id="linear-gradient-2" x1="114.2" y1="397.87" x2="418.61" y2="397.87" xlink:href="#linear-gradient"/><linearGradient id="linear-gradient-3" x1="172.48" y1="400.31" x2="417.78" y2="400.31" xlink:href="#linear-gradient"/><linearGradient id="linear-gradient-4" x1="258.61" y1="400.86" x2="417.36" y2="400.86" xlink:href="#linear-gradient"/></defs><title>pharmer-512x512</title><g id="border"><g class="cls-2"><path id="Fill-1" class="cls-3" d="M256,8h0a49.89,49.89,0,0,0-20.45,4.62L68.7,92.41a46.63,46.63,0,0,0-25.72,32l-41.22,179A46.76,46.76,0,0,0,11,343.66l115.4,143.42A46.58,46.58,0,0,0,163,504.56H348a46.56,46.56,0,0,0,36.6-17.48L500,343.66a46.52,46.52,0,0,0,9.23-40.23L468,124.39a46.68,46.68,0,0,0-25.72-32L276.09,12.62A47.25,47.25,0,0,0,256,8m0,15.5a32.26,32.26,0,0,1,13.52,3l166.83,79.47c8.58,4.28,15.17,12.2,17.15,21.43l41.21,179a30.82,30.82,0,0,1-6.26,27L373,476.86a31.4,31.4,0,0,1-24.73,11.87h-185a31.38,31.38,0,0,1-24.73-11.87L23.19,333.43a33,33,0,0,1-6.26-27l41.21-179a31.49,31.49,0,0,1,17.15-21.43l166.84-79.8A39.64,39.64,0,0,1,256,23.5"/></g></g><path class="cls-4" d="M188.41,274.27a11.74,11.74,0,0,0,.13-15.16l-49.95-49.7h0a135.11,135.11,0,0,0-22.46,83.48l66.48-15A12,12,0,0,0,188.41,274.27Z"/><path class="cls-4" d="M191.66,318.25,122,325.86a151.48,151.48,0,0,0,20.24,39.82,146.42,146.42,0,0,0,20.64,22.84h0c3.59,2.8,6.84,5.85,10.18,8.3l28.48-62a18.39,18.39,0,0,0,.75-7C201.53,322.46,196.82,318.84,191.66,318.25Z"/><path class="cls-4" d="M221,230.39a11.17,11.17,0,0,0,12-10.29l6.34-68.64A134.71,134.71,0,0,0,160,184.34l55.16,43.78A8.69,8.69,0,0,0,221,230.39Z"/><polygon class="cls-4" points="231.57 301.38 250.08 311.76 250.08 311.76 268.91 303.6 274.41 283.48 261.9 266.1 241.08 264.92 227.61 280.54 231.57 301.38"/><path class="cls-4" d="M253.2,350.44a11.39,11.39,0,0,0-14.31,2.76l-36.21,60a137.24,137.24,0,0,0,58.1,9.89h0a85,85,0,0,0,28.53-4.92l-31.49-63.5A14.28,14.28,0,0,0,253.2,350.44Z"/><path class="cls-4" d="M338.83,186h0a134.3,134.3,0,0,0-66.44-32.43l1.05,70.87a10.67,10.67,0,0,0,2,5,11.84,11.84,0,0,0,15.9,3.1l57.71-36.68C345.57,192.43,342.33,189.38,338.83,186Z"/><path class="cls-4" d="M314.48,267.57a9.4,9.4,0,0,0-2.53,4.52A11.85,11.85,0,0,0,318.8,286l65.66,23.3a134,134,0,0,0-15.82-85.55Z"/><path class="cls-4" d="M302,326.14a11.53,11.53,0,0,0-6.23,14.71l23.82,65.26a131.42,131.42,0,0,0,33.19-27.65h0a135.08,135.08,0,0,0,23.2-37.15l-68.65-15.77A10.09,10.09,0,0,0,302,326.14Z"/><path class="cls-3" d="M90.77,330a174.57,174.57,0,0,0,26.74,56.16,162.66,162.66,0,0,0,25.67,28.38,199.29,199.29,0,0,0,18.48,14.71l25.7,13.81a167.64,167.64,0,0,0,78.39,14.69,163.43,163.43,0,0,0,41.89-7.53l24.28-11.54A164.86,164.86,0,0,0,379,401a173.43,173.43,0,0,0,31.08-52.52l7.89-27.75a209.89,209.89,0,0,0,2.69-24A177,177,0,0,0,396,201.9l4.25-3.59.18-1.21c.27-1.81.29-4,2.46-6.08,5.29-4.34,12-8.11,19.47-12.39l.34-.25a14.65,14.65,0,0,1,4-1.78c2.33-1.14,4.67-2.28,7.35-3.67l3.11-2.24c6.24-4.49,7.86-13.2,3.52-19.23a14.19,14.19,0,0,0-9.08-5.31,13.31,13.31,0,0,0-10.27,2.54l-2.77,2a24.24,24.24,0,0,0-5.81,5.8c-.79,1.1-1.83,1.85-3,3.2l-.34.25c-6.42,5.69-11.89,11.24-17.94,14.52-2.68,1.39-4.74.72-6.54.4l-1.21-.21L379,177.53a222.92,222.92,0,0,0-16.55-17.17A169.65,169.65,0,0,0,273.1,118l-.13-5.29-.51-.71c-.51-.71-1.36-1.17-1.87-1.88a7.1,7.1,0,0,1-1.26-3.94c-.21-6.85,1-14.71,2.6-23.41a20.36,20.36,0,0,0,.64-4.23,70.74,70.74,0,0,0,1.52-8.1c.1-.61-.07-1.57.12-2.77.09-.61-.17-1,.18-1.21a15.51,15.51,0,0,0-2.85-9.8,12.53,12.53,0,0,0-9.68-5.42c-7.06-.31-13.22,5.74-13.8,13.7.26.35-.09.6.16,1,.17,1-.27,1.82-.1,2.78A65.67,65.67,0,0,0,249,77.2a17.74,17.74,0,0,1,.57,4.44c.78,9.13,1.5,16.69.75,23.69-.45,3-2.19,4.27-3.92,5.52l-.69.49-.57,5.8a14.69,14.69,0,0,0-4,.21,163,163,0,0,0-105.74,45.93l-4.7-3.62c-.35.25-.61-.1-1,.14a10,10,0,0,1-6.62-1.16c-5.56-4.07-10.85-10-16.9-16.91l-.26-.36a15.62,15.62,0,0,0-2.9-3.3,60.67,60.67,0,0,0-5.54-6.24c-.51-.71-1.37-1.17-1.88-1.88a1.64,1.64,0,0,0-1.11-.82c-6-5.39-14.68-5.06-19.46,0-4.08,4.55-3.88,11.41.21,17.09a9.58,9.58,0,0,0,2.39,2.58c.25.36.51.71.85.46.51.71,1.37,1.17,1.88,1.88a42.42,42.42,0,0,0,7,4.65c1.11.81,2.57,1.38,3.68,2.19l.26.36c7.27,5,13.69,9.53,18.47,14.71l.51.71a9.87,9.87,0,0,1,1.59,5.86c.25.35-.09.6.16,1l4.27,4.47a168.83,168.83,0,0,0-31.67,93.33,178.9,178.9,0,0,0,.93,22.49Zm171.13-63.9,12.51,17.39-5.5,20.12-18.83,8.16h0l-18.51-10.38-4-20.84,13.47-15.62ZM239.35,151.46,233,220.1a11.17,11.17,0,0,1-12,10.29,8.69,8.69,0,0,1-5.83-2.27L160,184.34A134.71,134.71,0,0,1,239.35,151.46ZM116.13,292.9a135.11,135.11,0,0,1,22.46-83.48h0l49.95,49.7a11.74,11.74,0,0,1-.13,15.16,12,12,0,0,1-5.8,3.64Zm85.38,42-28.48,62c-3.34-2.45-6.59-5.5-10.18-8.3h0a146.42,146.42,0,0,1-20.64-22.84A151.48,151.48,0,0,1,122,325.86l69.69-7.61c5.16.59,9.87,4.21,10.6,9.61A18.39,18.39,0,0,1,201.51,334.86Zm59.27,88.22h0a137.24,137.24,0,0,1-58.1-9.89l36.21-60a11.39,11.39,0,0,1,14.31-2.76,14.28,14.28,0,0,1,4.62,4.22l31.49,63.5A85,85,0,0,1,260.78,423.08Zm14.68-193.67a10.67,10.67,0,0,1-2-5l-1.05-70.87A134.3,134.3,0,0,1,338.82,186h0c3.5,3.41,6.74,6.46,10.24,9.86l-57.71,36.68A11.84,11.84,0,0,1,275.46,229.41Zm77.28,149h0a131.42,131.42,0,0,1-33.19,27.65l-23.82-65.26A11.53,11.53,0,0,1,302,326.14a10.09,10.09,0,0,1,5.34-.61l68.65,15.77A135.08,135.08,0,0,1,352.74,378.45Zm31.72-69.14L318.8,286A11.85,11.85,0,0,1,312,272.09a9.4,9.4,0,0,1,2.53-4.52l54.16-43.81A134,134,0,0,1,384.46,309.31Z"/><path class="cls-1" d="M420.4,304.86l-.06.1c.24-1.84.51-3.68.69-5.52-10.63,13.34-67.66,78-142.86,32.41-91.93-55.71-79.57-89.66-145.13-89.8-16.92,0-36.44,9-46.64,20.3a164,164,0,0,0,40,130.31l0,0,.2.21q3.84,4.31,8,8.38c.15.14.29.3.45.44q4.28,4.14,8.9,8l.32.28q4.73,3.93,9.79,7.56l.18.13q5.16,3.69,10.69,7a170.52,170.52,0,0,0,30.69,14.65q7.88,2.82,15.91,4.85a171.43,171.43,0,0,0,96.18-3.73c5.1-1.71,10.13-3.66,15.05-5.84,2.47-1.09,4.91-2.25,7.32-3.46q7.23-3.63,14.13-8,3.44-2.16,6.78-4.5A165.56,165.56,0,0,0,378.12,395l.57-.63q2.88-3.15,5.62-6.49l1.05-1.28c1.71-2.13,3.37-4.3,5-6.53.32-.45.66-.88,1-1.33,1.85-2.61,3.66-5.27,5.38-8l.05-.09.06-.08c1.55-2.47,3-5,4.41-7.49l.28-.51c.27-.49.51-1,.77-1.47,1-1.93,2.05-3.87,3-5.82.17-.34.33-.68.49-1l.75-1.59q1.26-2.71,2.42-5.44l.44-1.07c.1-.22.19-.45.28-.67s.3-.7.44-1q1.13-2.82,2.14-5.67c.05-.15.11-.29.16-.44a162.83,162.83,0,0,0,6.73-24.91c0,.1-.1.26-.15.39.11-.59.2-1.19.3-1.78s.2-1,.28-1.44l-.06.14c.25-1.48.47-3,.68-4.44C420.24,305.84,420.34,305.35,420.4,304.86Z"/><path class="cls-5" d="M165,433.58c79.17,48,182.92,23.8,231.73-54A162.86,162.86,0,0,0,421,308.25c-10.63,13.35-67.66,78-142.85,32.42C186.22,285,198.58,251,133,250.87c-16.92,0-36.43,9-46.64,20.29C78.05,333.78,106.71,398.28,165,433.58Z"/><path class="cls-6" d="M396.69,379.59a162.88,162.88,0,0,0,23.69-65.91c-14.88,25.13-55.77,81.87-153.27,50.69-32.93-10.53-92.26-72.88-133.21-37.25-23.38,20.34-22,47.79-7.49,74.41A167.61,167.61,0,0,0,165,433.58C244.13,481.55,347.88,457.38,396.69,379.59Z"/><path class="cls-7" d="M396.83,378.75a163,163,0,0,0,22.71-59.31c-2.33,5.68-6.65,13.81-14.71,24.37-17.08,22.36-56.47,64.38-152.56,46.82-66.37-12.13-87.47,13.67-74.71,48.92C254.85,478,350.54,452.53,396.83,378.75Z"/><path class="cls-8" d="M396.8,378.5a163.19,163.19,0,0,0,22.32-57.15c-2,5.66-31,59.57-86.12,71.54-69.12,15-74.23,29.33-72.66,45.89.55,5.8,2.56,13.84,6.43,17.8C318.44,452.51,367.51,425.17,396.8,378.5Z"/></svg>