<svg id="Layer_1" data-name="Layer 1" xmlns="http://www.w3.org/2000/svg" xmlns:xlink="http://www.w3.org/1999/xlink" viewBox="0 0 216 216"><defs><style>.cls-1{fill:#fff;}.cls-2{fill:#486cb4;}.cls-3{mask:url(#mask);}.cls-4{fill:none;}.cls-5{fill:url(#linear-gradient);}.cls-6{fill:url(#linear-gradient-2);}.cls-7{fill:url(#linear-gradient-3);}.cls-8{fill:url(#linear-gradient-4);}</style><mask id="mask" x="40.04" y="20.03" width="133.5" height="130" maskUnits="userSpaceOnUse"><g id="mask-2"><polygon id="path-1" class="cls-1" points="173.54 150.03 173.54 20.03 40.04 20.03 40.04 150.03 173.54 150.03"/></g></mask><linearGradient id="linear-gradient" x1="60.77" y1="124.51" x2="148.75" y2="124.51" gradientTransform="translate(1.62 -13.95) rotate(0.12)" gradientUnits="userSpaceOnUse"><stop offset="0" stop-color="#336ab3"/><stop offset="0.48" stop-color="#43b5e8"/><stop offset="1" stop-color="#294da1"/></linearGradient><linearGradient id="linear-gradient-2" x1="68.9" y1="132.66" x2="148.59" y2="132.66" xlink:href="#linear-gradient"/><linearGradient id="linear-gradient-3" x1="84.16" y1="133.3" x2="148.38" y2="133.3" xlink:href="#linear-gradient"/><linearGradient id="linear-gradient-4" x1="106.7" y1="133.44" x2="148.26" y2="133.44" xlink:href="#linear-gradient"/></defs><title>pharmer</title><path class="cls-2" d="M28.85,183.15a10.23,10.23,0,0,1,1.67-5.65,11.52,11.52,0,0,1,4.44-4,12.74,12.74,0,0,1,10.51-.64,11.66,11.66,0,0,1,3.88,2.37A11.26,11.26,0,0,1,52,178.81a11,11,0,0,1,0,8.95,11,11,0,0,1-2.66,3.6,11.53,11.53,0,0,1-3.88,2.36,13.37,13.37,0,0,1-9.11,0l-.47-.2-.48-.21V202l-6.56,0Zm6.56.15a4.79,4.79,0,0,0,.76,2.63,5.64,5.64,0,0,0,2,1.93,5.32,5.32,0,0,0,2.69.72,5.45,5.45,0,0,0,2.72-.72,5.53,5.53,0,0,0,2-1.93,4.78,4.78,0,0,0,.76-2.63,5.14,5.14,0,0,0-1.64-3.79,5.49,5.49,0,0,0-7.71,0A5.08,5.08,0,0,0,35.41,183.3Z"/><path class="cls-2" d="M61.59,164.69v9.37a6.73,6.73,0,0,1,2.34-1.52,7.88,7.88,0,0,1,2.89-.55q7.91,0,7.91,9.27v12.63l-6.58,0v-12.2a4.09,4.09,0,0,0-.86-2.83,3.14,3.14,0,0,0-2.43-.95,3.1,3.1,0,0,0-2.39.95,4,4,0,0,0-.88,2.83v12.18l-6.58,0V164.71Z"/><path class="cls-2" d="M94.35,193.27q-.66.28-1,.39A12.83,12.83,0,0,1,82.88,193a11.53,11.53,0,0,1-4.44-4,10.83,10.83,0,0,1-.7-10.26,11.09,11.09,0,0,1,2.65-3.57,11.51,11.51,0,0,1,3.87-2.33,12.63,12.63,0,0,1,4.56-.84,13,13,0,0,1,4.57.82,11.47,11.47,0,0,1,3.86,2.35,11.22,11.22,0,0,1,2.67,3.57,10.44,10.44,0,0,1,1,4.49l0,10.71-6.52-.06ZM84.09,180.58a4.9,4.9,0,0,0-.76,2.66A5,5,0,0,0,85,187a5.54,5.54,0,0,0,7.71,0,5.07,5.07,0,0,0,1.64-3.76,4.9,4.9,0,0,0-.76-2.66,5.64,5.64,0,0,0-2-1.93,5.42,5.42,0,0,0-2.71-.7,5.48,5.48,0,0,0-2.69.7A5.64,5.64,0,0,0,84.09,180.58Z"/><path class="cls-2" d="M113.73,178.32a2.68,2.68,0,0,0-1.34-.39H112c-1.68.07-2.51,1.23-2.51,3.5v12.46h-6.58V181.43q0-9,9.09-9.44h.37a10.11,10.11,0,0,1,1.34.12Z"/><path class="cls-2" d="M134.39,181v13h-6.6V181c-.11-1.93-.94-2.92-2.49-3h-.37c-1.67.06-2.5,1.21-2.5,3.48v12.46h-6.59V181.45q0-9,9.09-9.44h.37a11,11,0,0,1,5.8,1.73,11,11,0,0,1,5.78-1.73h.37q9.09.5,9.09,9.44v12.46h-6.58V181.45c0-2.27-.84-3.42-2.51-3.48h-.37C135.33,178,134.5,179,134.39,181Z"/><path class="cls-2" d="M170.59,178.77a10.94,10.94,0,0,1,.92,4.45v.18a2.15,2.15,0,0,1,0,.23l0,.35H168.9v0H154.75a5.18,5.18,0,0,0,1.51,3,5.17,5.17,0,0,0,7.4,0l0,0,.06-.08.06-.07,0-.06,3.54,5.06a12,12,0,0,1-3.09,1.87,11.76,11.76,0,0,1-4.36.82,11.45,11.45,0,0,1-5.69-1.46,11.13,11.13,0,0,1-4.26-4,11.21,11.21,0,0,1-.68-10.22,11.1,11.1,0,0,1,2.55-3.57,11.34,11.34,0,0,1,3.71-2.37A11.93,11.93,0,0,1,160,172a11.76,11.76,0,0,1,4.36.82,11.49,11.49,0,0,1,3.73,2.35A10.87,10.87,0,0,1,170.59,178.77ZM160,178a5.09,5.09,0,0,0-2.59.7,6,6,0,0,0-1.43,1.28H164a6.2,6.2,0,0,0-1.44-1.28A5.1,5.1,0,0,0,160,178Z"/><path class="cls-2" d="M184.35,178.32a2.65,2.65,0,0,0-1.34-.39h-.37c-1.68.07-2.51,1.23-2.51,3.5v12.46h-6.58V181.43q0-9,9.09-9.44H183a10,10,0,0,1,1.34.12Z"/><g id="border"><g class="cls-3"><path id="Fill-1" class="cls-2" d="M106.92,20h0a13.18,13.18,0,0,0-5.35,1.2L57.89,42.13a12.2,12.2,0,0,0-6.73,8.37L40.37,97.37a12.24,12.24,0,0,0,2.42,10.53L73,145.45A12.18,12.18,0,0,0,82.58,150H131a12.18,12.18,0,0,0,9.58-4.58L170.8,107.9a12.17,12.17,0,0,0,2.42-10.53L162.43,50.5a12.21,12.21,0,0,0-6.74-8.37l-43.5-20.9a12.46,12.46,0,0,0-5.27-1.2m0,4a8.41,8.41,0,0,1,3.54.78l43.68,20.8a8.41,8.41,0,0,1,4.49,5.61l10.79,46.88a8.09,8.09,0,0,1-1.64,7.08l-30.21,37.55a8.24,8.24,0,0,1-6.48,3.1H82.67a8.24,8.24,0,0,1-6.48-3.1L46,105.23a8.66,8.66,0,0,1-1.64-7.08L55.13,51.27a8.23,8.23,0,0,1,4.49-5.61L103.3,24.77a10.43,10.43,0,0,1,3.62-.69"/></g></g><path class="cls-4" d="M89.23,89.74a3.07,3.07,0,0,0,0-4l-13.08-13h0a35.35,35.35,0,0,0-5.88,21.85l17.41-3.92A3.12,3.12,0,0,0,89.23,89.74Z"/><path class="cls-4" d="M90.09,101.25l-18.25,2a39.49,39.49,0,0,0,5.3,10.43,38,38,0,0,0,5.4,6h0c.94.73,1.79,1.53,2.67,2.17l7.45-16.22a4.72,4.72,0,0,0,.2-1.83A3.05,3.05,0,0,0,90.09,101.25Z"/><path class="cls-4" d="M97.76,78.25a2.92,2.92,0,0,0,3.15-2.7l1.66-18a35.31,35.31,0,0,0-20.78,8.61L96.23,77.66A2.32,2.32,0,0,0,97.76,78.25Z"/><polygon class="cls-4" points="100.53 96.83 105.38 99.55 105.38 99.55 110.31 97.41 111.75 92.15 108.47 87.6 103.02 87.29 99.5 91.38 100.53 96.83"/><path class="cls-4" d="M106.2,109.68a3,3,0,0,0-3.75.72L93,126.1a35.82,35.82,0,0,0,15.21,2.59h0a22.13,22.13,0,0,0,7.47-1.28l-8.24-16.63A3.81,3.81,0,0,0,106.2,109.68Z"/><path class="cls-4" d="M128.61,66.62h0a35.08,35.08,0,0,0-17.39-8.49l.27,18.55A2.85,2.85,0,0,0,112,78a3.1,3.1,0,0,0,4.17.81l15.11-9.6Z"/><path class="cls-4" d="M122.24,88a2.43,2.43,0,0,0-.66,1.19,3.09,3.09,0,0,0,1.79,3.64l17.19,6.1a35.09,35.09,0,0,0-4.14-22.4Z"/><path class="cls-4" d="M119,103.32a3,3,0,0,0-1.63,3.85l6.23,17.08a34.15,34.15,0,0,0,8.69-7.24h0a35.29,35.29,0,0,0,6.07-9.73l-18-4.12A2.57,2.57,0,0,0,119,103.32Z"/><path class="cls-2" d="M63.67,104.32a45.67,45.67,0,0,0,7,14.71,43.17,43.17,0,0,0,6.72,7.43,52.71,52.71,0,0,0,4.84,3.85L89,133.92a43.93,43.93,0,0,0,20.52,3.85,43.25,43.25,0,0,0,11-2l6.36-3a43.32,43.32,0,0,0,12.31-9.85,45.51,45.51,0,0,0,8.14-13.75l2.06-7.27a52.42,52.42,0,0,0,.71-6.29,46.38,46.38,0,0,0-6.44-24.83l1.11-.94.05-.32a2.31,2.31,0,0,1,.64-1.59,38.67,38.67,0,0,1,5.1-3.24l.09-.07a3.92,3.92,0,0,1,1-.46c.61-.3,1.22-.6,1.92-1l.82-.58a3.65,3.65,0,0,0,.92-5,3.72,3.72,0,0,0-2.38-1.4,3.53,3.53,0,0,0-2.69.67l-.72.52A6.27,6.27,0,0,0,148,58.9c-.21.29-.48.48-.78.84l-.09.06a28,28,0,0,1-4.69,3.8,2.33,2.33,0,0,1-1.72.11l-.31-.06-1.25.76a61.1,61.1,0,0,0-4.33-4.5,44.43,44.43,0,0,0-23.39-11.08l0-1.39-.13-.18c-.13-.19-.36-.31-.49-.5a1.86,1.86,0,0,1-.33-1,30.64,30.64,0,0,1,.68-6.13,4.89,4.89,0,0,0,.17-1.1,20.51,20.51,0,0,0,.4-2.12c0-.16,0-.41,0-.73,0-.16,0-.25,0-.32a4,4,0,0,0-.74-2.56,3.29,3.29,0,0,0-2.54-1.42,3.67,3.67,0,0,0-3.61,3.58c.07.1,0,.16,0,.26,0,.25-.07.47,0,.72a17.37,17.37,0,0,0,.22,2.23,4.8,4.8,0,0,1,.15,1.17,32.66,32.66,0,0,1,.2,6.2,2,2,0,0,1-1,1.44l-.18.13-.15,1.52a3.56,3.56,0,0,0-1,.06,42.69,42.69,0,0,0-27.69,12l-1.23-1c-.09.07-.16,0-.25,0a2.61,2.61,0,0,1-1.73-.31A28.71,28.71,0,0,1,67.71,55l-.07-.1a3.88,3.88,0,0,0-.76-.86,16,16,0,0,0-1.45-1.64c-.14-.18-.36-.3-.49-.49a.46.46,0,0,0-.3-.21,3.67,3.67,0,0,0-5.09,0,3.51,3.51,0,0,0,.06,4.47,2.5,2.5,0,0,0,.62.68c.07.09.13.19.23.12.13.19.35.31.49.49a11.2,11.2,0,0,0,1.83,1.22c.3.21.68.36,1,.57l.07.1a28.12,28.12,0,0,1,4.83,3.85l.14.18A2.61,2.61,0,0,1,69.2,65c.07.09,0,.16,0,.25l1.12,1.17a44.29,44.29,0,0,0-8.29,24.43,48,48,0,0,0,.24,5.89Zm44.8-16.72,3.28,4.55-1.44,5.26-4.93,2.14h0l-4.85-2.72-1-5.45L103,87.29Zm-5.9-30-1.66,18a2.92,2.92,0,0,1-3.15,2.7,2.32,2.32,0,0,1-1.53-.59L81.79,66.19A35.31,35.31,0,0,1,102.57,57.58Zm-32.26,37a35.35,35.35,0,0,1,5.88-21.85h0l13.08,13a3.07,3.07,0,0,1,0,4,3.12,3.12,0,0,1-1.51,1Zm22.35,11-7.45,16.22c-.88-.64-1.73-1.44-2.67-2.17h0a38,38,0,0,1-5.4-6,39.49,39.49,0,0,1-5.3-10.43l18.25-2a3.05,3.05,0,0,1,2.77,2.52A4.72,4.72,0,0,1,92.66,105.6Zm15.52,23.09h0A35.82,35.82,0,0,1,93,126.1l9.48-15.7a3,3,0,0,1,3.75-.72,3.81,3.81,0,0,1,1.21,1.1l8.24,16.63A22.13,22.13,0,0,1,108.18,128.69ZM112,78a2.85,2.85,0,0,1-.53-1.31l-.27-18.55a35.08,35.08,0,0,1,17.39,8.49h0l2.69,2.58-15.11,9.6A3.1,3.1,0,0,1,112,78Zm20.24,39h0a34.15,34.15,0,0,1-8.69,7.24l-6.23-17.08a3,3,0,0,1,1.63-3.85,2.57,2.57,0,0,1,1.4-.16l18,4.12A35.29,35.29,0,0,1,132.26,117Zm8.3-18.1-17.19-6.1a3.09,3.09,0,0,1-1.79-3.64,2.43,2.43,0,0,1,.66-1.19l14.18-11.47A35.09,35.09,0,0,1,140.56,98.91Z"/><path class="cls-1" d="M150,97.75v0c.06-.48.13-1,.17-1.44-2.78,3.49-17.71,20.41-37.4,8.48C88.67,90.23,91.9,81.34,74.74,81.3a17.88,17.88,0,0,0-12.21,5.31A42.92,42.92,0,0,0,73,120.73h0l0,.06q1,1.13,2.1,2.19l.12.12c.74.72,1.52,1.42,2.33,2.1l.08.07c.83.69,1.68,1.35,2.56,2l0,0c.9.65,1.84,1.26,2.8,1.85a44.65,44.65,0,0,0,8,3.83c1.38.49,2.77.92,4.17,1.27a44.81,44.81,0,0,0,25.18-1,40.1,40.1,0,0,0,3.94-1.53c.65-.28,1.28-.58,1.92-.9,1.26-.63,2.49-1.33,3.7-2.08.6-.38,1.19-.78,1.77-1.18a43.43,43.43,0,0,0,7.09-6.22l.15-.16c.5-.55,1-1.12,1.47-1.7l.28-.33c.44-.56.88-1.13,1.3-1.71l.26-.35c.48-.69,1-1.38,1.41-2.1v0l0,0c.4-.65.78-1.31,1.15-2a.54.54,0,0,0,.07-.13l.21-.38q.41-.77.78-1.53c.05-.09.09-.17.13-.26l.2-.42c.22-.47.43-1,.63-1.42l.12-.29s0-.11.07-.17.08-.18.11-.27c.2-.5.39-1,.56-1.49a.76.76,0,0,0,0-.11,42.39,42.39,0,0,0,1.77-6.53s0,.07,0,.11c0-.16.05-.31.08-.47s0-.25.07-.38l0,0c.07-.39.13-.77.18-1.16Z"/><path class="cls-5" d="M83.1,131.44c20.72,12.56,47.88,6.23,60.66-14.13a42.59,42.59,0,0,0,6.37-18.68c-2.78,3.5-17.71,20.42-37.4,8.49-24.07-14.58-20.83-23.47-38-23.51a17.88,17.88,0,0,0-12.21,5.31A43.06,43.06,0,0,0,83.1,131.44Z"/><path class="cls-6" d="M143.76,117.31A42.65,42.65,0,0,0,150,100.05c-3.9,6.58-14.61,21.44-40.13,13.27-8.62-2.75-24.16-19.07-34.88-9.75-6.12,5.33-5.75,12.51-2,19.48a43.79,43.79,0,0,0,10.1,8.39C103.82,144,131,137.67,143.76,117.31Z"/><path class="cls-7" d="M143.8,117.09a42.73,42.73,0,0,0,5.95-15.53,29.1,29.1,0,0,1-3.86,6.38c-4.47,5.86-14.78,16.86-39.94,12.26C88.58,117,83.05,123.78,86.39,133,106.63,143.08,131.68,136.4,143.8,117.09Z"/><path class="cls-8" d="M143.79,117a42.55,42.55,0,0,0,5.84-15c-.53,1.48-8.11,15.6-22.54,18.73-18.1,3.93-19.44,7.68-19,12a8.47,8.47,0,0,0,1.68,4.66A44.15,44.15,0,0,0,143.79,117Z"/></svg>