<svg width="143" height="46" viewBox="0 0 143 46" fill="none" xmlns="http://www.w3.org/2000/svg">
<g clip-path="url(#clip0)">
<path d="M6.74698 39.8078C6.66145 40.6931 6.32711 41.3846 5.74397 41.8824C5.16083 42.3763 4.38524 42.6233 3.41722 42.6233C2.74078 42.6233 2.14403 42.4675 1.62697 42.156C1.11381 41.8406 0.717267 41.3941 0.437358 40.8166C0.157449 40.239 0.0116629 39.5684 0 38.8047V38.0295C0 37.2468 0.141898 36.5572 0.425695 35.9606C0.709492 35.3641 1.11575 34.9043 1.64447 34.5813C2.17707 34.2584 2.79132 34.0969 3.4872 34.0969C4.42412 34.0969 5.17832 34.3458 5.7498 34.8435C6.32128 35.3413 6.65367 36.0442 6.74698 36.9523H5.27745C5.20748 36.3558 5.02865 35.9264 4.74096 35.6642C4.45716 35.3983 4.03924 35.2653 3.4872 35.2653C2.84574 35.2653 2.35201 35.4952 2.00602 35.9549C1.6639 36.4109 1.48896 37.0815 1.48119 37.9668V38.7021C1.48119 39.5988 1.64447 40.2827 1.97103 40.7539C2.30148 41.225 2.78354 41.4606 3.41722 41.4606C3.99648 41.4606 4.4319 41.3333 4.72347 41.0788C5.01504 40.8242 5.1997 40.4005 5.27745 39.8078H6.74698Z" fill="#00A651"/>
<path d="M17.9391 39.3689C17.9391 38.7648 18.0616 38.2214 18.3065 37.7389C18.5514 37.2525 18.8955 36.8801 19.3387 36.6218C19.7819 36.3596 20.2912 36.2285 20.8665 36.2285C21.7179 36.2285 22.408 36.4964 22.9367 37.0321C23.4693 37.5679 23.757 38.2784 23.7997 39.1637L23.8056 39.4886C23.8056 40.0965 23.6851 40.6399 23.444 41.1187C23.2069 41.5974 22.8648 41.9679 22.4177 42.2301C21.9745 42.4922 21.4613 42.6233 20.8782 42.6233C19.9879 42.6233 19.2745 42.3345 18.7381 41.757C18.2054 41.1756 17.9391 40.4024 17.9391 39.4373V39.3689ZM19.3562 39.4886C19.3562 40.1231 19.4903 40.6209 19.7586 40.9819C20.0268 41.339 20.4 41.5176 20.8782 41.5176C21.3564 41.5176 21.7276 41.3352 21.992 40.9705C22.2602 40.6057 22.3944 40.0718 22.3944 39.3689C22.3944 38.7458 22.2564 38.2518 21.9803 37.887C21.7082 37.5223 21.3369 37.3399 20.8665 37.3399C20.4039 37.3399 20.0365 37.5204 19.7644 37.8813C19.4923 38.2385 19.3562 38.7743 19.3562 39.4886Z" fill="#00A651"/>
<path d="M36.6072 36.3425L36.648 36.9865C37.0912 36.4812 37.6977 36.2285 38.4675 36.2285C39.3111 36.2285 39.8884 36.5439 40.1994 37.1746C40.6581 36.5439 41.3035 36.2285 42.1354 36.2285C42.8313 36.2285 43.3484 36.4166 43.6866 36.7927C44.0287 37.1689 44.2036 37.7237 44.2114 38.457V42.5093H42.7944V38.4969C42.7944 38.1055 42.7069 37.8187 42.532 37.6363C42.357 37.4539 42.0674 37.3627 41.6631 37.3627C41.3404 37.3627 41.076 37.4482 40.87 37.6192C40.6678 37.7864 40.526 38.0067 40.4443 38.2803L40.4501 42.5093H39.0331V38.4513C39.0137 37.7256 38.6346 37.3627 37.896 37.3627C37.3284 37.3627 36.926 37.5888 36.6889 38.0409V42.5093H35.2718V36.3425H36.6072Z" fill="#00A651"/>
<path d="M57.2697 36.3425L57.3105 36.9865C57.7537 36.4812 58.3601 36.2285 59.1299 36.2285C59.9735 36.2285 60.5508 36.5439 60.8618 37.1746C61.3206 36.5439 61.9659 36.2285 62.7979 36.2285C63.4937 36.2285 64.0108 36.4166 64.349 36.7927C64.6911 37.1689 64.8661 37.7237 64.8739 38.457V42.5093H63.4568V38.4969C63.4568 38.1055 63.3693 37.8187 63.1944 37.6363C63.0195 37.4539 62.7298 37.3627 62.3255 37.3627C62.0028 37.3627 61.7385 37.4482 61.5324 37.6192C61.3303 37.7864 61.1884 38.0067 61.1067 38.2803L61.1126 42.5093H59.6955V38.4513C59.6761 37.7256 59.297 37.3627 58.5584 37.3627C57.9908 37.3627 57.5884 37.5888 57.3513 38.0409V42.5093H55.9343V36.3425H57.2697Z" fill="#00A651"/>
<path d="M80.4221 41.9052C80.0061 42.3839 79.4152 42.6233 78.6493 42.6233C77.9651 42.6233 77.4461 42.4276 77.0924 42.0363C76.7425 41.6449 76.5675 41.0788 76.5675 40.3378V36.3425H77.9846V40.3207C77.9846 41.1035 78.317 41.4948 78.9817 41.4948C79.6698 41.4948 80.1344 41.2535 80.3755 40.771V36.3425H81.7925V42.5093H80.4571L80.4221 41.9052Z" fill="#00A651"/>
<path d="M94.8216 36.3425L94.8624 37.0549C95.3289 36.504 95.9412 36.2285 96.6993 36.2285C98.0133 36.2285 98.682 36.9637 98.7053 38.4342V42.5093H97.2883V38.514C97.2883 38.1226 97.2008 37.8339 97.0259 37.6477C96.8548 37.4577 96.5729 37.3627 96.1803 37.3627C95.6088 37.3627 95.1831 37.6154 94.9032 38.1207V42.5093H93.4862V36.3425H94.8216Z" fill="#00A651"/>
<path d="M111.933 42.5093H110.516V36.3425H111.933V42.5093ZM110.428 34.7409C110.428 34.5282 110.496 34.3515 110.632 34.2109C110.772 34.0703 110.97 34 111.227 34C111.484 34 111.682 34.0703 111.822 34.2109C111.962 34.3515 112.032 34.5282 112.032 34.7409C112.032 34.9499 111.962 35.1247 111.822 35.2653C111.682 35.4021 111.484 35.4705 111.227 35.4705C110.97 35.4705 110.772 35.4021 110.632 35.2653C110.496 35.1247 110.428 34.9499 110.428 34.7409Z" fill="#00A651"/>
<path d="M125.527 34.8435V36.3425H126.641V37.3684H125.527V40.8109C125.527 41.0465 125.574 41.2174 125.667 41.3238C125.765 41.4264 125.936 41.4777 126.18 41.4777C126.344 41.4777 126.509 41.4587 126.676 41.4207V42.4922C126.353 42.5796 126.042 42.6233 125.743 42.6233C124.655 42.6233 124.11 42.0363 124.11 40.8622V37.3684H123.072V36.3425H124.11V34.8435H125.527Z" fill="#00A651"/>
<path d="M140.207 40.5259L141.49 36.3425H143L140.492 43.444C140.108 44.4813 139.454 45 138.533 45C138.327 45 138.1 44.9658 137.851 44.8974V43.8259L138.119 43.843C138.477 43.843 138.745 43.7784 138.924 43.6492C139.107 43.5238 139.25 43.3111 139.355 43.0109L139.559 42.4808L137.344 36.3425H138.871L140.207 40.5259Z" fill="#00A651"/>
<path d="M36.1469 15.1194C36.1383 13.7366 36.5378 12.382 37.2952 11.2251C38.0503 10.0449 39.106 9.08682 40.3538 8.44944C41.4587 7.86423 42.676 7.52226 43.924 7.44652C45.172 7.37077 46.4218 7.56299 47.5894 8.01027C48.5786 8.37362 49.4873 8.92692 50.2642 9.63903C51.04 10.3386 51.6682 11.1861 52.1118 12.1319C52.5443 13.1015 52.7666 14.1516 52.7642 15.2133C52.7617 16.2749 52.5346 17.3241 52.0976 18.2916C51.6648 19.2341 51.0427 20.0773 50.2699 20.7689C49.494 21.4823 48.5851 22.0358 47.5951 22.3976C45.5686 23.1329 43.3482 23.1329 41.3216 22.3976L40.9962 22.2555L40.6707 22.1134V28.0826L36.1525 28.0684L36.1469 15.1194ZM40.665 15.2174C40.6563 15.8604 40.8383 16.4914 41.1881 17.031C41.5351 17.5863 42.0179 18.0441 42.5908 18.3613C43.1518 18.6876 43.7895 18.8588 44.4385 18.8573C45.0942 18.8587 45.7387 18.6876 46.3074 18.3613C46.88 18.0441 47.3623 17.5863 47.7088 17.031C48.0588 16.4916 48.2435 15.8618 48.2403 15.2189C48.242 14.7295 48.1418 14.2451 47.9461 13.7966C47.7503 13.3481 47.4633 12.9452 47.1033 12.6137C46.3962 11.9152 45.4423 11.5235 44.4484 11.5235C43.4545 11.5235 42.5006 11.9152 41.7935 12.6137C41.4333 12.9446 41.1467 13.3475 40.9523 13.7963C40.7579 14.2451 40.66 14.7298 40.665 15.2189V15.2174Z" fill="#326DE6"/>
<path d="M58.6921 2.40332V8.86008C59.1503 8.40087 59.7005 8.04388 60.3066 7.81261C60.9397 7.56029 61.6149 7.43055 62.2964 7.4303C65.9301 7.4303 67.7469 9.55886 67.7469 13.816V22.5112L63.2159 22.5254V14.1287C63.2159 13.2589 63.0174 12.6074 62.6204 12.1744C62.2234 11.7414 61.6649 11.5245 60.9448 11.5235C60.2455 11.5235 59.6974 11.741 59.3004 12.1759C58.9034 12.6108 58.7006 13.2622 58.6921 14.1301V22.5155L54.1611 22.5439V2.41611L58.6921 2.40332Z" fill="#326DE6"/>
<path d="M81.2545 22.0862C80.9504 22.2184 80.7301 22.308 80.588 22.3549C79.4206 22.8009 78.1718 22.9936 76.9243 22.9201C75.6768 22.8466 74.4592 22.5086 73.3524 21.9285C72.1082 21.2859 71.0538 20.3289 70.2938 19.1528C69.6374 18.1069 69.2499 16.9149 69.1658 15.6829C69.0817 14.451 69.3037 13.2173 69.812 12.092C70.2493 11.1567 70.8704 10.3191 71.6383 9.62896C72.4116 8.92533 73.3162 8.38146 74.3003 8.02862C75.3041 7.64319 76.3704 7.44659 77.4456 7.44875C78.5186 7.44946 79.5828 7.64199 80.588 8.01725C81.5734 8.37494 82.4785 8.92361 83.2514 9.6318C84.0228 10.3206 84.6482 11.1572 85.0905 12.092C85.5371 13.0599 85.7647 14.1144 85.7571 15.1804L85.7429 22.5581L81.2545 22.5155V22.0862ZM74.1866 13.3484C73.8408 13.8949 73.6592 14.5293 73.6636 15.1761C73.6606 15.6636 73.7603 16.1462 73.9562 16.5927C74.1521 17.0391 74.4398 17.4392 74.8006 17.7671C75.5121 18.4571 76.4643 18.8431 77.4555 18.8431C78.4467 18.8431 79.3989 18.4571 80.1104 17.7671C80.4712 17.4392 80.7589 17.0391 80.9548 16.5927C81.1507 16.1462 81.2504 15.6636 81.2474 15.1761C81.2513 14.5292 81.0693 13.8948 80.723 13.3484C80.3757 12.7937 79.8936 12.3361 79.3216 12.0181C78.752 11.702 78.1113 11.5361 77.4598 11.5361C76.8083 11.5361 76.1676 11.702 75.598 12.0181C75.0225 12.3349 74.5369 12.7926 74.1866 13.3484Z" fill="#326DE6"/>
<path d="M94.5957 11.7922C94.319 11.6189 93.9998 11.5254 93.6733 11.5222H93.4189C92.2658 11.5705 91.6902 12.3731 91.692 13.9298V22.5113H87.1597V13.9298C87.1597 9.80533 89.2442 7.63887 93.4132 7.43042H93.6676C93.9766 7.43875 94.2847 7.46724 94.59 7.51569L94.5957 11.7922Z" fill="#326DE6"/>
<path d="M108.828 13.6042V22.5254H104.28V13.6042C104.204 12.272 103.632 11.5874 102.566 11.5505H102.31C101.161 11.5884 100.586 12.3862 100.585 13.9438V22.5254H96.0513V13.9396C96.0513 9.83405 98.1358 7.66759 102.305 7.44019H102.561C104.221 7.53494 105.552 7.93147 106.554 8.62978C107.544 7.93052 108.871 7.53399 110.534 7.44019H110.787C114.961 7.66569 117.045 9.83216 117.04 13.9396V22.5211H112.524V13.9396C112.524 12.3819 111.948 11.5841 110.795 11.5462H110.542C109.475 11.5869 108.904 12.2729 108.828 13.6042Z" fill="#326DE6"/>
<path d="M133.753 12.1034C134.181 13.0658 134.398 14.1086 134.391 15.1619V15.2884C134.391 15.3408 134.386 15.3931 134.377 15.4447L134.348 15.6849H132.592V15.7148H122.85C122.98 16.576 123.411 17.3632 124.067 17.9359C124.723 18.5087 125.561 18.8296 126.432 18.8415C126.908 18.846 127.38 18.7528 127.818 18.5678C128.257 18.3827 128.653 18.1097 128.982 17.7656L129.009 17.7372L129.053 17.6804L129.095 17.6377L129.122 17.5965L131.558 21.0786C130.918 21.6104 130.202 22.0448 129.435 22.3677C128.479 22.7449 127.46 22.9378 126.432 22.9362C125.06 22.9452 123.709 22.5985 122.511 21.9299C121.302 21.2781 120.29 20.3149 119.579 19.14C118.945 18.0893 118.573 16.9024 118.491 15.6784C118.41 14.4544 118.622 13.2286 119.111 12.1034C119.527 11.173 120.124 10.3351 120.868 9.63891C121.602 8.93453 122.468 8.38115 123.416 8.01016C124.377 7.63457 125.4 7.44177 126.432 7.44165C127.46 7.44071 128.479 7.63358 129.435 8.01016C130.384 8.37844 131.253 8.92668 131.993 9.6247C132.745 10.3201 133.344 11.1642 133.753 12.1034ZM126.432 11.5349C125.805 11.5336 125.189 11.6999 124.648 12.0167C124.272 12.2547 123.936 12.5512 123.653 12.895H129.205C128.922 12.5512 128.586 12.2547 128.21 12.0167C127.67 11.7017 127.057 11.5359 126.432 11.5363V11.5349Z" fill="#326DE6"/>
<path d="M143.23 11.7922C142.953 11.6189 142.634 11.5254 142.307 11.5222H142.053C140.902 11.5705 140.326 12.3731 140.326 13.9298V22.5113H135.794V13.9298C135.794 9.80533 137.878 7.63887 142.047 7.43042H142.302C142.611 7.43875 142.919 7.46724 143.224 7.51569L143.23 11.7922Z" fill="#326DE6"/>
<path d="M15.4334 0.0113703C15.0063 0.0177459 14.5853 0.114627 14.1983 0.295621L4.1188 5.11652C3.72979 5.29878 3.38759 5.56755 3.11836 5.90231C2.84912 6.23707 2.65997 6.62895 2.56537 7.048L0.0753351 17.8652C-0.0237903 18.2859 -0.0251113 18.7238 0.0714727 19.1451C0.168057 19.5664 0.359973 19.96 0.632466 20.2955L7.60514 28.9652C7.87238 29.2926 8.20997 29.5557 8.59282 29.7348C8.97567 29.9139 9.39395 30.0045 9.81661 29.9998H20.9919C21.4162 30.0019 21.8354 29.9082 22.2183 29.7256C22.6012 29.543 22.938 29.2762 23.2034 28.9453L30.1761 20.2756C30.4496 19.9407 30.6422 19.5471 30.7388 19.1256C30.8354 18.7041 30.8335 18.2659 30.7332 17.8453L28.2432 7.0281C28.1486 6.60905 27.9594 6.21718 27.6902 5.88242C27.4209 5.54766 27.0787 5.27888 26.6897 5.09662L16.6571 0.284251C16.2774 0.101164 15.862 0.00410675 15.4405 0L15.4334 0.0113703ZM15.4405 0.935185C15.7227 0.935005 16.0015 0.996105 16.2577 1.11426L26.3387 5.91526C26.5963 6.04124 26.8228 6.22287 27.0018 6.44702C27.1807 6.67118 27.3076 6.93227 27.3734 7.21144L29.8634 18.0286C29.9327 18.3114 29.9345 18.6065 29.8689 18.8901C29.8032 19.1738 29.6718 19.438 29.4853 19.6616L22.5127 28.3313C22.3344 28.5563 22.1073 28.7379 21.8485 28.8623C21.5897 28.9866 21.306 29.0505 21.0189 29.049H9.83509C9.54798 29.0505 9.2643 28.9866 9.00551 28.8623C8.74672 28.7379 8.5196 28.5563 8.34135 28.3313L1.36867 19.6616C1.19041 19.4334 1.06409 19.1691 0.998549 18.887C0.933007 18.605 0.929816 18.312 0.9892 18.0286L3.48208 7.21713C3.54564 6.93704 3.67173 6.67495 3.85091 6.45049C4.03009 6.22603 4.25772 6.04499 4.51675 5.92094L14.5977 1.10005C14.8645 0.997571 15.1476 0.94366 15.4334 0.940869" fill="#326DE6"/>
<path d="M5.45192 19.4583C5.78341 20.6771 6.33072 21.8266 7.06788 22.8522C7.51602 23.4826 8.03696 24.0579 8.61989 24.5662C8.97393 24.8832 9.34648 25.1789 9.73558 25.4517L11.289 26.286C12.7732 26.9583 14.3977 27.2625 16.0246 27.1728C16.8846 27.1325 17.7356 26.9796 18.5559 26.718L20.0226 26.0202C21.1021 25.4437 22.0657 24.6728 22.8651 23.7462C23.6741 22.8079 24.3098 21.7333 24.7426 20.5725L25.2187 18.8954C25.3015 18.4154 25.3561 17.9308 25.3822 17.4443C25.4355 15.4324 24.9202 13.4462 23.8955 11.7138L24.1514 11.4978L24.1627 11.4239C24.1637 11.2871 24.2171 11.1558 24.312 11.0572C24.6832 10.7767 25.0763 10.5262 25.4873 10.3082L25.5087 10.294C25.5826 10.2458 25.6637 10.2093 25.7488 10.186C25.891 10.1164 26.0331 10.0439 26.1923 9.96428L26.3813 9.82216C26.5622 9.69535 26.6859 9.50238 26.7255 9.28504C26.7652 9.0677 26.7176 8.8435 26.5931 8.66099C26.4584 8.48722 26.2619 8.37215 26.0445 8.33979C25.9362 8.32191 25.8254 8.32629 25.7188 8.35268C25.6123 8.37908 25.5122 8.42692 25.4248 8.49329L25.2571 8.61409C25.1214 8.71024 25.0027 8.82841 24.906 8.96372C24.8591 9.03052 24.7952 9.076 24.727 9.15843L24.7071 9.17265C24.3191 9.51659 23.9879 9.85201 23.6227 10.0496C23.4991 10.1084 23.3577 10.1175 23.2275 10.0751L23.1551 10.0624L22.8708 10.2357C22.5579 9.87243 22.2258 9.5261 21.8759 9.19823C20.3694 7.82854 18.4894 6.93802 16.4752 6.63997L16.4666 6.32019L16.4354 6.27755C16.4055 6.23491 16.3529 6.20649 16.3231 6.16385C16.2744 6.09416 16.2477 6.0115 16.2463 5.9265C16.2495 5.44856 16.3024 4.97225 16.4041 4.50525C16.4254 4.42195 16.4383 4.33672 16.4425 4.25084C16.4821 4.08918 16.5129 3.9255 16.5349 3.76051C16.5349 3.72356 16.5349 3.66671 16.5349 3.5928C16.5349 3.55727 16.5249 3.53595 16.5462 3.52032C16.5577 3.30899 16.4971 3.10001 16.3743 2.92766C16.3084 2.83214 16.2214 2.753 16.1202 2.69634C16.0189 2.63967 15.906 2.60697 15.7901 2.60077C15.3637 2.58229 14.9914 2.94755 14.9558 3.42794C14.9715 3.44926 14.9558 3.46489 14.9658 3.48621C14.9757 3.54448 14.9487 3.59565 14.9658 3.65392C14.9731 3.82637 14.9912 3.9982 15.0198 4.16841C15.0418 4.25627 15.0533 4.34645 15.0539 4.43703C15.1126 4.91172 15.1278 5.39077 15.0994 5.86823C15.0878 5.93827 15.0604 6.00474 15.0192 6.06261C14.9781 6.12048 14.9244 6.16822 14.862 6.20223L14.8208 6.23207L14.7867 6.5817C14.705 6.5756 14.6229 6.5799 14.5423 6.59449C12.1404 6.7149 9.86561 7.70975 8.14662 9.39152L7.86237 9.17407C7.84105 9.18828 7.82541 9.16696 7.8041 9.18259C7.66676 9.20553 7.52571 9.18044 7.40472 9.11153C7.02896 8.80795 6.68642 8.46541 6.38284 8.08965L6.36863 8.06833C6.31969 7.99393 6.26034 7.92693 6.19239 7.86936C6.08904 7.73432 5.9765 7.60658 5.85556 7.48704C5.82429 7.44298 5.77312 7.41598 5.74185 7.37334C5.73468 7.36067 5.72488 7.34968 5.71311 7.3411C5.70135 7.33252 5.68789 7.32656 5.67363 7.3236C5.51519 7.17324 5.30509 7.08942 5.08666 7.08942C4.86823 7.08942 4.65813 7.17324 4.49968 7.3236C4.25238 7.5979 4.26517 8.0129 4.51105 8.35542C4.54848 8.41578 4.59665 8.46877 4.65317 8.51176C4.66881 8.53308 4.68302 8.5544 4.70434 8.54019C4.73561 8.58283 4.78677 8.60983 4.81804 8.65389C4.95056 8.76231 5.09336 8.85751 5.24442 8.93814C5.31264 8.98788 5.40075 9.02199 5.46755 9.07031L5.48319 9.09306C5.88609 9.34796 6.26017 9.64579 6.59887 9.98134L6.63014 10.024C6.6982 10.129 6.73151 10.2528 6.72536 10.3779C6.741 10.3992 6.72536 10.4148 6.73531 10.4361L6.99398 10.7062C5.80927 12.3538 5.14273 14.3173 5.07955 16.3457C5.06994 16.7994 5.08893 17.2532 5.1364 17.7044L5.45192 19.4583ZM15.7915 15.5981L16.5476 16.6484L16.2151 17.865L15.0781 18.3582L13.9567 17.73L13.7179 16.4708L14.5309 15.5271L15.7915 15.5981ZM14.4286 8.67237L14.0462 12.8196C14.0394 12.9082 14.0152 12.9946 13.9749 13.0738C13.9346 13.1531 13.879 13.2236 13.8114 13.2813C13.7438 13.339 13.6655 13.3828 13.5809 13.4101C13.4963 13.4375 13.4072 13.4479 13.3186 13.4407C13.1875 13.4388 13.0618 13.3881 12.9661 13.2985L9.63325 10.6536C10.9728 9.48777 12.6568 8.792 14.4286 8.67237ZM6.98403 17.2184C6.87269 15.4338 7.34947 13.662 8.34133 12.1743L11.3601 15.176C11.4671 15.3052 11.525 15.4682 11.5234 15.6359C11.5218 15.8037 11.461 15.9655 11.3515 16.0927C11.2592 16.1987 11.1375 16.2748 11.0019 16.3116L6.98403 17.2184ZM12.1432 19.7525L10.422 23.496C10.2202 23.3539 10.0241 23.1649 9.80806 22.9958C9.34341 22.5804 8.92373 22.1174 8.55594 21.6143C8.03185 20.877 7.61995 20.0662 7.33366 19.2081L11.5448 18.7476C11.7005 18.7607 11.8475 18.8248 11.9631 18.9299C12.0788 19.035 12.1565 19.1752 12.1844 19.3289C12.1981 19.4714 12.1841 19.6153 12.1432 19.7525ZM15.7247 25.0836C14.5251 25.1404 13.3274 24.9362 12.2142 24.4852L14.4016 20.861C14.5037 20.7366 14.6462 20.6519 14.8043 20.6215C14.9624 20.5911 15.1261 20.617 15.2671 20.6948C15.3792 20.7579 15.4762 20.8447 15.5513 20.9492L17.4544 24.7865C16.8989 24.9832 16.314 25.0836 15.7247 25.0836ZM16.6116 13.3824C16.545 13.294 16.5029 13.1896 16.4894 13.0797L16.4254 8.79885C17.9202 9.0634 19.3107 9.74193 20.439 10.7573C20.6508 10.9634 20.8469 11.1482 21.0587 11.3528L17.5724 13.57C17.4187 13.6678 17.2333 13.7029 17.0545 13.668C16.8757 13.6331 16.7172 13.5309 16.6116 13.3824ZM21.2804 22.3875C20.7083 23.0505 20.0307 23.6148 19.275 24.0574L17.8353 20.1149C17.7712 19.9468 17.7747 19.7605 17.8449 19.5949C17.9151 19.4294 18.0466 19.2974 18.2119 19.2266C18.3139 19.1844 18.4257 19.1716 18.5346 19.1896L22.6818 20.1419C22.3396 20.9615 21.8663 21.7199 21.2804 22.3875ZM23.1949 18.2033L19.2281 16.7963C19.0688 16.7301 18.939 16.6083 18.8629 16.4534C18.7868 16.2986 18.7696 16.1214 18.8145 15.9549C18.8388 15.8515 18.8914 15.757 18.9666 15.682L22.2355 13.0356C23.1222 14.6032 23.4598 16.422 23.1949 18.2033Z" fill="#326DE6"/>
<path d="M25.3681 17.9405V17.9476C25.3823 17.8353 25.3979 17.7245 25.4093 17.6136C24.7584 18.4195 21.3189 22.3251 16.7752 19.5707C11.2209 16.2051 11.9671 14.1543 8.00604 14.1458C6.98416 14.1458 5.80594 14.6887 5.18911 15.3723C5.00381 16.781 5.12367 18.2131 5.54055 19.5714C5.95743 20.9297 6.66159 22.1824 7.60524 23.2446L7.61804 23.256C7.77295 23.4308 7.93355 23.5985 8.10268 23.7634L8.12969 23.7904C8.30166 23.9567 8.48074 24.1187 8.66692 24.2736L8.68682 24.2907C8.87727 24.4484 9.07482 24.6019 9.27806 24.7469L9.28943 24.7554C9.49693 24.8975 9.71581 25.0397 9.93468 25.1818C10.5197 25.5374 11.1386 25.834 11.7823 26.0672C12.0992 26.1809 12.4205 26.279 12.7431 26.36C14.662 26.8412 16.6785 26.7633 18.5546 26.1354C18.8625 26.0322 19.1657 25.9142 19.4642 25.7816C19.6063 25.7162 19.7598 25.6465 19.9062 25.5726C20.1976 25.4305 20.4818 25.2671 20.7589 25.0922C20.9011 25.0056 21.0347 24.9146 21.1697 24.8208C21.7655 24.4037 22.314 23.9228 22.8056 23.3867L22.8397 23.3484C22.9562 23.2219 23.0685 23.0911 23.1793 22.9561L23.2433 22.8794C23.3456 22.75 23.4465 22.6193 23.5446 22.4842C23.5631 22.4572 23.5844 22.4317 23.6029 22.4047C23.7152 22.2469 23.8246 22.0863 23.9283 21.92C24.0221 21.7708 24.1103 21.6187 24.1941 21.4666L24.2112 21.4368C24.2282 21.4069 24.2424 21.3771 24.2581 21.3472C24.3206 21.2307 24.3817 21.1142 24.44 20.9962C24.4499 20.9763 24.4585 20.955 24.4684 20.9351C24.4784 20.9152 24.4983 20.8697 24.5139 20.8384C24.5651 20.729 24.6134 20.6196 24.656 20.5101C24.6646 20.4874 24.6745 20.4661 24.683 20.4447L24.7001 20.405L24.7257 20.341C24.7711 20.2273 24.8138 20.1136 24.855 19.9985C24.8592 19.9898 24.8625 19.9808 24.865 19.9715C25.0403 19.4814 25.1762 18.9781 25.2714 18.4664C25.269 18.4746 25.2662 18.4826 25.2629 18.4905C25.2629 18.455 25.2743 18.418 25.2814 18.3825C25.2885 18.347 25.2927 18.3257 25.2984 18.2958V18.3043C25.3126 18.2148 25.3269 18.1253 25.3396 18.0357C25.3595 18.0002 25.3652 17.9703 25.3681 17.9405Z" fill="white"/>
<path d="M9.93464 25.7176C14.7186 28.6155 20.9863 27.1559 23.9354 22.4558C24.7563 21.1539 25.2597 19.6773 25.405 18.1451C24.7626 18.9524 21.3175 22.8566 16.7737 20.1036C11.2195 16.7381 11.967 14.6872 8.006 14.6787C6.9827 14.6787 5.80448 15.2216 5.18765 15.9052C4.93695 17.8254 5.25266 19.777 6.09598 21.5202C6.9393 23.2634 8.2735 24.7223 9.93464 25.7176Z" fill="url(#paint0_linear)"/>
<path d="M23.9353 22.4558C24.6956 21.2488 25.1844 19.891 25.3679 18.4763C24.4683 19.9956 21.9967 23.4223 16.107 21.5391C14.1173 20.9024 10.5329 17.1332 8.05845 19.2879C6.64572 20.5172 6.72958 22.1758 7.60649 23.7847C8.28108 24.543 9.06585 25.1955 9.9345 25.7204C14.7184 28.6155 20.9862 27.1573 23.9353 22.4558Z" fill="url(#paint1_linear)"/>
<path d="M23.9437 22.4045C24.6318 21.3117 25.0983 20.0943 25.3167 18.8215C25.0846 19.3485 24.7856 19.8434 24.427 20.294C23.3951 21.6456 21.016 24.1839 15.2101 23.1222C11.1994 22.3903 9.92591 23.948 10.6962 26.0785C15.3651 28.4036 21.1467 26.863 23.9437 22.4045Z" fill="url(#paint2_linear)"/>
<path d="M23.9424 22.389C24.6057 21.3336 25.0633 20.1623 25.2912 18.9368C25.1675 19.2793 23.418 22.5354 20.088 23.2588C15.9109 24.1727 15.6025 25.0254 15.6977 26.0317C15.7304 26.3827 15.8527 26.8688 16.0872 27.1076C17.6742 26.9896 19.2114 26.5014 20.5756 25.6819C21.9398 24.8625 23.0929 23.7347 23.9424 22.389Z" fill="url(#paint3_linear)"/>
</g>
<defs>
<linearGradient id="paint0_linear" x1="5.09491" y1="20.928" x2="25.4003" y2="20.9705" gradientUnits="userSpaceOnUse">
<stop stop-color="#0369D3"/>
<stop offset="0.48" stop-color="#00BAFF"/>
<stop offset="1" stop-color="#0043B5"/>
</linearGradient>
<linearGradient id="paint1_linear" x1="3510.63" y1="3478.01" x2="5891.73" y2="3478.01" gradientUnits="userSpaceOnUse">
<stop stop-color="#0369D3"/>
<stop offset="0.48" stop-color="#00BAFF"/>
<stop offset="1" stop-color="#0043B5"/>
</linearGradient>
<linearGradient id="paint2_linear" x1="3202.71" y1="3329.08" x2="4749.57" y2="3329.08" gradientUnits="userSpaceOnUse">
<stop stop-color="#0369D3"/>
<stop offset="0.48" stop-color="#00BAFF"/>
<stop offset="1" stop-color="#0043B5"/>
</linearGradient>
<linearGradient id="paint3_linear" x1="2434.79" y1="3266.58" x2="3083.16" y2="3266.58" gradientUnits="userSpaceOnUse">
<stop stop-color="#0369D3"/>
<stop offset="0.48" stop-color="#00BAFF"/>
<stop offset="1" stop-color="#0043B5"/>
</linearGradient>
<clipPath id="clip0">
<rect width="143" height="46" fill="white"/>
</clipPath>
</defs>
</svg>
