<svg id="Layer_1" data-name="Layer 1" xmlns="http://www.w3.org/2000/svg" xmlns:xlink="http://www.w3.org/1999/xlink" viewBox="0 0 1279 639"><defs><style>.cls-1{fill:#fff;}.cls-2{mask:url(#mask);}.cls-3{fill:#326de6;}.cls-4{fill:none;}.cls-5{fill:url(#linear-gradient);}.cls-6{fill:url(#linear-gradient-2);}.cls-7{fill:url(#linear-gradient-3);}.cls-8{fill:url(#linear-gradient-4);}</style><mask id="mask" x="524.4" y="100.91" width="234.86" height="228.7" maskUnits="userSpaceOnUse"><g id="mask-2"><polygon id="path-1" class="cls-1" points="759.26 329.61 759.26 100.91 524.4 100.91 524.4 329.61 759.26 329.61"/></g></mask><linearGradient id="linear-gradient" x1="566.01" y1="271.39" x2="720.8" y2="271.39" gradientTransform="translate(-2.2 -12.18) rotate(0.12)" gradientUnits="userSpaceOnUse"><stop offset="0" stop-color="#0369d3"/><stop offset="0.48" stop-color="#00baff"/><stop offset="1" stop-color="#0043b5"/></linearGradient><linearGradient id="linear-gradient-2" x1="580.31" y1="285.71" x2="720.52" y2="285.71" xlink:href="#linear-gradient"/><linearGradient id="linear-gradient-3" x1="607.16" y1="286.83" x2="720.14" y2="286.83" xlink:href="#linear-gradient"/><linearGradient id="linear-gradient-4" x1="646.82" y1="287.09" x2="719.94" y2="287.09" xlink:href="#linear-gradient"/></defs><title>pharmer-1280x640</title><g id="border"><g class="cls-2"><path id="Fill-1" class="cls-3" d="M642.06,100.91h0a23,23,0,0,0-9.42,2.13L555.8,139.79A21.5,21.5,0,0,0,544,154.52L525,237a21.55,21.55,0,0,0,4.26,18.53l53.15,66.05a21.42,21.42,0,0,0,16.85,8.05h85.2a21.45,21.45,0,0,0,16.86-8.05l53.15-66.05A21.43,21.43,0,0,0,758.69,237l-19-82.46a21.45,21.45,0,0,0-11.84-14.73L651.32,103a21.69,21.69,0,0,0-9.26-2.13m0,7.14a14.92,14.92,0,0,1,6.23,1.36L725.13,146a14.75,14.75,0,0,1,7.89,9.87l19,82.46a14.21,14.21,0,0,1-2.89,12.46L696,316.86a14.47,14.47,0,0,1-11.39,5.46H599.39A14.46,14.46,0,0,1,588,316.86L534.85,250.8A15.2,15.2,0,0,1,532,238.34l19-82.46a14.54,14.54,0,0,1,7.9-9.87l76.84-36.75a18.29,18.29,0,0,1,6.38-1.21"/></g></g><path class="cls-4" d="M610.94,223.55a5.42,5.42,0,0,0,.06-7l-23-22.88h0a62.29,62.29,0,0,0-10.34,38.45l30.62-6.91A5.46,5.46,0,0,0,610.94,223.55Z"/><path class="cls-4" d="M612.44,243.8l-32.1,3.51a69.77,69.77,0,0,0,9.32,18.34,67.63,67.63,0,0,0,9.51,10.52h0c1.65,1.29,3.15,2.69,4.68,3.82L617,251.45a8.54,8.54,0,0,0,.35-3.22A5.38,5.38,0,0,0,612.44,243.8Z"/><path class="cls-4" d="M625.93,203.34a5.15,5.15,0,0,0,5.55-4.74L634.4,167a62,62,0,0,0-36.56,15.15l25.41,20.16A4,4,0,0,0,625.93,203.34Z"/><polygon class="cls-4" points="630.82 236.03 639.34 240.81 639.34 240.82 648.01 237.06 650.55 227.79 644.79 219.78 635.2 219.24 628.99 226.43 630.82 236.03"/><path class="cls-4" d="M640.78,258.63a5.24,5.24,0,0,0-6.59,1.27l-16.68,27.63a63.08,63.08,0,0,0,26.76,4.55h0a38.82,38.82,0,0,0,13.14-2.26l-14.5-29.25A6.61,6.61,0,0,0,640.78,258.63Z"/><path class="cls-4" d="M680.22,182.88h0a61.94,61.94,0,0,0-30.61-14.94l.49,32.64a4.88,4.88,0,0,0,.93,2.31,5.47,5.47,0,0,0,7.33,1.43l26.58-16.9C683.32,185.85,681.83,184.45,680.22,182.88Z"/><path class="cls-4" d="M669,220.46a4.4,4.4,0,0,0-1.16,2.08A5.44,5.44,0,0,0,671,229l30.24,10.74A61.77,61.77,0,0,0,694,200.28Z"/><path class="cls-4" d="M663.23,247.44a5.31,5.31,0,0,0-2.87,6.77l11,30.06a60.32,60.32,0,0,0,15.28-12.74h0a62,62,0,0,0,10.69-17.11l-31.62-7.27A4.68,4.68,0,0,0,663.23,247.44Z"/><path class="cls-3" d="M566,249.21a80.36,80.36,0,0,0,12.31,25.86,75.08,75.08,0,0,0,11.83,13.08,90.87,90.87,0,0,0,8.51,6.77l11.84,6.36a77.13,77.13,0,0,0,36.1,6.77,75,75,0,0,0,19.29-3.47L677,299.26a75.75,75.75,0,0,0,21.67-17.33A79.85,79.85,0,0,0,713,257.75L716.65,245a96,96,0,0,0,1.25-11.06,81.57,81.57,0,0,0-11.34-43.68l2-1.66.08-.55a4.09,4.09,0,0,1,1.13-2.8,67.55,67.55,0,0,1,9-5.71l.16-.12a6.91,6.91,0,0,1,1.83-.82c1.07-.52,2.15-1.05,3.38-1.69l1.44-1a6.41,6.41,0,0,0,1.62-8.85,6.52,6.52,0,0,0-4.18-2.45,6.12,6.12,0,0,0-4.73,1.17l-1.28.91a11.55,11.55,0,0,0-2.68,2.68c-.36.5-.84.85-1.36,1.47l-.16.11c-3,2.63-5.47,5.18-8.26,6.69a4.12,4.12,0,0,1-3,.19l-.56-.1L698.72,179a103.17,103.17,0,0,0-7.62-7.91A78.13,78.13,0,0,0,650,151.58l-.06-2.44-.24-.32c-.23-.33-.63-.54-.86-.87a3.31,3.31,0,0,1-.58-1.82,52.23,52.23,0,0,1,1.2-10.78,9.67,9.67,0,0,0,.29-1.95,30.18,30.18,0,0,0,.7-3.73c.05-.28,0-.72.05-1.27,0-.28-.07-.45.09-.56a7.15,7.15,0,0,0-1.31-4.51,5.76,5.76,0,0,0-4.46-2.5c-3.25-.14-6.09,2.64-6.36,6.31.12.16,0,.28.08.44.07.44-.13.83,0,1.28a32.08,32.08,0,0,0,.4,3.92,7.83,7.83,0,0,1,.26,2.05,58.41,58.41,0,0,1,.35,10.91,3.57,3.57,0,0,1-1.81,2.54l-.31.23-.26,2.67a6.66,6.66,0,0,0-1.87.1,75,75,0,0,0-48.7,21.15l-2.16-1.67c-.16.12-.28,0-.44.07a4.63,4.63,0,0,1-3-.54,51.39,51.39,0,0,1-7.78-7.79l-.12-.16a7.17,7.17,0,0,0-1.34-1.52,27.93,27.93,0,0,0-2.55-2.88c-.24-.32-.63-.54-.87-.86a.72.72,0,0,0-.51-.38,6.46,6.46,0,0,0-9,0c-1.88,2.1-1.79,5.25.09,7.87a4.48,4.48,0,0,0,1.11,1.19c.11.16.23.33.39.21.24.33.63.54.86.87a20.36,20.36,0,0,0,3.24,2.14c.51.37,1.18.63,1.69,1l.12.16a50.12,50.12,0,0,1,8.51,6.78l.24.33a4.6,4.6,0,0,1,.73,2.69c.11.17-.05.28.07.45l2,2a77.83,77.83,0,0,0-14.59,43,81.14,81.14,0,0,0,.43,10.36Zm78.82-29.43,5.76,8L648,237.05l-8.67,3.77h0L630.82,236l-1.83-9.6,6.21-7.19ZM634.4,167l-2.92,31.62a5.15,5.15,0,0,1-5.55,4.74,4,4,0,0,1-2.68-1.05l-25.41-20.16A62,62,0,0,1,634.4,167Zm-56.75,65.15A62.29,62.29,0,0,1,588,193.68h0l23,22.88a5.38,5.38,0,0,1-2.73,8.66ZM617,251.45,603.85,280c-1.53-1.13-3-2.53-4.68-3.82h0a67.63,67.63,0,0,1-9.51-10.52,69.77,69.77,0,0,1-9.32-18.34l32.1-3.51a5.38,5.38,0,0,1,4.88,4.43A8.54,8.54,0,0,1,617,251.45Zm27.3,40.63h0a63.08,63.08,0,0,1-26.76-4.55l16.68-27.63a5.24,5.24,0,0,1,6.59-1.27,6.61,6.61,0,0,1,2.13,1.94l14.5,29.25A38.82,38.82,0,0,1,644.27,292.08ZM651,202.89a4.88,4.88,0,0,1-.93-2.31l-.49-32.64a61.94,61.94,0,0,1,30.61,14.94h0c1.61,1.57,3.1,3,4.72,4.54l-26.58,16.9A5.47,5.47,0,0,1,651,202.89Zm35.59,68.64h0a60.32,60.32,0,0,1-15.28,12.74l-11-30.06a5.31,5.31,0,0,1,2.87-6.77,4.68,4.68,0,0,1,2.46-.29l31.62,7.27A62,62,0,0,1,686.62,271.53Zm14.62-31.84L671,229a5.44,5.44,0,0,1-3.16-6.41,4.4,4.4,0,0,1,1.16-2.08l25-20.18A61.77,61.77,0,0,1,701.24,239.69Z"/><path class="cls-1" d="M717.79,237.64l0,0c.11-.84.24-1.69.32-2.54-4.9,6.14-31.17,35.91-65.8,14.93-42.34-25.66-36.65-41.3-66.84-41.36-7.8,0-16.78,4.14-21.48,9.35a75.52,75.52,0,0,0,18.42,60v0l.09.09c1.18,1.33,2.42,2.61,3.7,3.86l.2.21q2,1.9,4.11,3.69l.15.13c1.44,1.2,3,2.36,4.5,3.48l.09.06q2.37,1.69,4.92,3.24a78.65,78.65,0,0,0,14.13,6.74c2.42.87,4.87,1.62,7.33,2.24a78.94,78.94,0,0,0,44.3-1.72q3.52-1.17,6.93-2.69c1.14-.5,2.26-1,3.37-1.59,2.22-1.11,4.4-2.34,6.51-3.67q1.59-1,3.12-2.07a76.3,76.3,0,0,0,12.48-10.93l.26-.29c.88-1,1.75-2,2.59-3l.48-.59c.79-1,1.55-2,2.3-3l.45-.61c.85-1.2,1.68-2.42,2.48-3.69,0,0,0,0,0,0l0,0c.71-1.13,1.38-2.29,2-3.45l.13-.23.35-.68c.48-.89.95-1.78,1.39-2.68.07-.15.15-.31.22-.47s.23-.48.34-.73c.39-.83.77-1.67,1.12-2.51l.21-.49.12-.31c.07-.16.14-.32.2-.48q.53-1.31,1-2.61c0-.07.05-.14.07-.2a74.77,74.77,0,0,0,3.11-11.48l-.08.18c0-.27.09-.54.14-.82s.09-.44.13-.66l0,.07c.12-.69.22-1.37.31-2.05C717.72,238.09,717.76,237.86,717.79,237.64Z"/><path class="cls-5" d="M600.14,296.92c36.46,22.1,84.25,11,106.73-24.87a74.93,74.93,0,0,0,11.2-32.85c-4.9,6.14-31.16,35.91-65.8,14.93-42.34-25.66-36.64-41.3-66.84-41.36-7.79,0-16.78,4.14-21.48,9.35A75.75,75.75,0,0,0,600.14,296.92Z"/><path class="cls-6" d="M706.87,272.05a75.08,75.08,0,0,0,10.91-30.35c-6.85,11.58-25.69,37.71-70.59,23.34-15.17-4.84-42.5-33.56-61.36-17.15-10.76,9.37-10.12,22-3.45,34.27a77.35,77.35,0,0,0,17.76,14.76C636.6,319,684.39,307.88,706.87,272.05Z"/><path class="cls-7" d="M706.93,271.67a75,75,0,0,0,10.46-27.32,50.28,50.28,0,0,1-6.77,11.22c-7.87,10.31-26,29.66-70.27,21.57-30.57-5.59-40.28,6.3-34.41,22.53C641.54,317.39,685.61,305.65,706.93,271.67Z"/><path class="cls-8" d="M706.92,271.55a75.19,75.19,0,0,0,10.28-26.32c-.94,2.61-14.28,27.44-39.67,33-31.83,6.92-34.19,13.51-33.46,21.14.25,2.67,1.18,6.37,3,8.19A77.62,77.62,0,0,0,706.92,271.55Z"/><path class="cls-3" d="M260.74,462.74a49.84,49.84,0,0,1,8.12-27.57,56,56,0,0,1,21.66-19.66,62,62,0,0,1,51.23-3.1,57.29,57.29,0,0,1,18.95,11.53,55.58,55.58,0,0,1,13,17.64,53.32,53.32,0,0,1-.11,43.62,53.69,53.69,0,0,1-12.93,17.54,56.76,56.76,0,0,1-18.95,11.54,65.16,65.16,0,0,1-44.41,0l-2.31-1-2.3-1v42.31l-32-.1Zm32,.7a23,23,0,0,0,3.7,12.83,27.33,27.33,0,0,0,9.93,9.43,26,26,0,0,0,13.14,3.51,26.46,26.46,0,0,0,13.22-3.51,27.33,27.33,0,0,0,9.93-9.43,23.37,23.37,0,0,0,3.71-12.83,24.92,24.92,0,0,0-8-18.45,26.74,26.74,0,0,0-37.59,0A24.68,24.68,0,0,0,292.73,463.44Z"/><path class="cls-3" d="M420.37,372.7v45.72A32.64,32.64,0,0,1,431.8,411a38.31,38.31,0,0,1,14-2.7q38.6,0,38.6,45.21v61.57l-32.08.09V455.72c0-6.15-1.42-10.76-4.22-13.83s-6.75-4.62-11.82-4.62-8.83,1.54-11.64,4.62-4.31,7.68-4.31,13.83v59.36l-32.09.19V372.8Z"/><path class="cls-3" d="M580.11,512.07c-2.14.93-3.71,1.57-4.71,1.9a62.47,62.47,0,0,1-51.23-3,57,57,0,0,1-21.66-19.66,53,53,0,0,1-3.41-50A54.43,54.43,0,0,1,512,423.84a56,56,0,0,1,18.85-11.33,61.74,61.74,0,0,1,22.27-4.11,63.46,63.46,0,0,1,22.25,4,56,56,0,0,1,18.85,11.43,54.59,54.59,0,0,1,13,17.44A51.2,51.2,0,0,1,612,463.14l-.11,52.24-31.78-.3Zm-50-61.87a23.84,23.84,0,0,0-3.7,12.94,24.56,24.56,0,0,0,8,18.35,27,27,0,0,0,37.59,0,24.6,24.6,0,0,0,8-18.35,23.94,23.94,0,0,0-3.71-12.94,27.38,27.38,0,0,0-9.93-9.42,27.18,27.18,0,0,0-26.36,0A27.38,27.38,0,0,0,530.08,450.2Z"/><path class="cls-3" d="M674.58,439.18a12.6,12.6,0,0,0-6.53-1.91h-1.8q-12.24.51-12.23,17v60.77H621.93V454.31q0-43.8,44.32-46h1.8a50.47,50.47,0,0,1,6.53.6Z"/><path class="cls-3" d="M775.35,452v63.16H743.17V452q-.81-14.13-12.13-14.54h-1.81q-12.22.4-12.23,16.95v60.75H684.91V454.42q0-43.62,44.32-46H731q17.63,1,28.27,8.42,10.53-7.43,28.17-8.42h1.8q44.33,2.4,44.32,46v60.75H801.52V454.42q0-16.55-12.24-16.95h-1.8Q776.16,437.88,775.35,452Z"/><path class="cls-3" d="M951.83,441.38A52.58,52.58,0,0,1,956.35,463v.9a6.4,6.4,0,0,1-.11,1.1l-.2,1.71H943.61v.2h-69A26,26,0,0,0,900,489.11a24.66,24.66,0,0,0,18-7.62l.2-.2.3-.4.31-.31.2-.3L936.29,505a59.8,59.8,0,0,1-15,9.12,57.55,57.55,0,0,1-21.26,4A56.32,56.32,0,0,1,872.23,511a54.56,54.56,0,0,1-20.76-19.76,54.49,54.49,0,0,1-3.31-49.83,54.13,54.13,0,0,1,12.43-17.44,55,55,0,0,1,18-11.53,58.4,58.4,0,0,1,21.35-4,57.55,57.55,0,0,1,21.26,4,55.56,55.56,0,0,1,18.16,11.43A52.43,52.43,0,0,1,951.83,441.38Zm-51.84-4a25,25,0,0,0-12.63,3.41,30.08,30.08,0,0,0-7,6.22h39.31a29.85,29.85,0,0,0-7-6.22A25,25,0,0,0,900,437.37Z"/><path class="cls-3" d="M1018.93,439.18a12.6,12.6,0,0,0-6.53-1.91h-1.8q-12.24.51-12.23,17v60.77H966.28V454.31q0-43.8,44.32-46h1.8a50.47,50.47,0,0,1,6.53.6Z"/></svg>