<svg id="Layer_1" data-name="Layer 1" xmlns="http://www.w3.org/2000/svg" xmlns:xlink="http://www.w3.org/1999/xlink" viewBox="0 0 1279 639"><defs><style>.cls-1{fill:#fff;}.cls-2{fill:#326de6;}.cls-3{mask:url(#mask);}.cls-4{fill:none;}.cls-5{fill:url(#linear-gradient);}.cls-6{fill:url(#linear-gradient-2);}.cls-7{fill:url(#linear-gradient-3);}.cls-8{fill:url(#linear-gradient-4);}</style><mask id="mask" x="136.8" y="223.96" width="216.78" height="211.09" maskUnits="userSpaceOnUse"><g id="mask-2"><polygon id="path-1" class="cls-1" points="353.57 435.05 353.57 223.96 136.8 223.96 136.8 435.05 353.57 435.05"/></g></mask><linearGradient id="linear-gradient" x1="177.22" y1="382.98" x2="320.09" y2="382.98" gradientTransform="translate(-3.77 -12.18) rotate(0.12)" gradientUnits="userSpaceOnUse"><stop offset="0" stop-color="#0369d3"/><stop offset="0.48" stop-color="#00baff"/><stop offset="1" stop-color="#0043b5"/></linearGradient><linearGradient id="linear-gradient-2" x1="190.42" y1="396.2" x2="319.83" y2="396.2" xlink:href="#linear-gradient"/><linearGradient id="linear-gradient-3" x1="215.2" y1="397.24" x2="319.48" y2="397.24" xlink:href="#linear-gradient"/><linearGradient id="linear-gradient-4" x1="251.81" y1="397.47" x2="319.3" y2="397.47" xlink:href="#linear-gradient"/></defs><title>pharmer-logo-1280x640</title><path class="cls-2" d="M391.13,330.3a49.46,49.46,0,0,1,8.08-27.4,55.54,55.54,0,0,1,21.52-19.53,61.65,61.65,0,0,1,50.91-3.09,56.87,56.87,0,0,1,18.82,11.46,55.16,55.16,0,0,1,13,17.54,52.92,52.92,0,0,1-.1,43.34,53.16,53.16,0,0,1-12.86,17.43,56.41,56.41,0,0,1-18.82,11.46,64.71,64.71,0,0,1-44.14,0l-2.29-1-2.29-1v42l-31.79-.1Zm31.79.69a22.89,22.89,0,0,0,3.68,12.76,27.13,27.13,0,0,0,9.87,9.36,25.73,25.73,0,0,0,13,3.49,26.31,26.31,0,0,0,13.15-3.49,27.1,27.1,0,0,0,9.86-9.36A23.21,23.21,0,0,0,476.22,331a24.8,24.8,0,0,0-8-18.33,26.58,26.58,0,0,0-37.36,0A24.55,24.55,0,0,0,422.92,331Z"/><path class="cls-2" d="M549.76,240.83v45.43a32.33,32.33,0,0,1,11.36-7.37,37.85,37.85,0,0,1,14-2.69q38.35,0,38.35,44.93v61.18l-31.88.1V323.33q0-9.18-4.19-13.75T565.61,305q-7.38,0-11.57,4.59t-4.28,13.75v59l-31.88.2V240.92Z"/><path class="cls-2" d="M708.51,379.32c-2.14.93-3.69,1.56-4.69,1.89a62,62,0,0,1-50.91-3,56.48,56.48,0,0,1-21.52-19.53A52.67,52.67,0,0,1,628,309a54.12,54.12,0,0,1,12.85-17.33,55.82,55.82,0,0,1,18.73-11.26,61.39,61.39,0,0,1,22.13-4.08,63.34,63.34,0,0,1,22.11,4,56.05,56.05,0,0,1,18.74,11.36A54.4,54.4,0,0,1,735.5,309a51,51,0,0,1,4.69,21.73l-.1,51.91-31.58-.3Zm-49.73-61.48a23.75,23.75,0,0,0-3.68,12.86,24.43,24.43,0,0,0,8,18.23,26.83,26.83,0,0,0,37.36,0,24.43,24.43,0,0,0,8-18.23,23.76,23.76,0,0,0-3.69-12.86,27.27,27.27,0,0,0-9.86-9.36,27,27,0,0,0-26.2,0A27.3,27.3,0,0,0,658.78,317.84Z"/><path class="cls-2" d="M802.38,306.89a12.45,12.45,0,0,0-6.49-1.9H794.1q-12.17.51-12.15,16.94v60.38H750.06V321.93q0-43.53,44-45.73h1.79a50,50,0,0,1,6.49.6Z"/><path class="cls-2" d="M902.52,319.64v62.77h-32V319.64q-.81-14.06-12.06-14.45h-1.8q-12.13.4-12.14,16.84v60.38h-31.9V322q0-43.33,44-45.73h1.8q17.52,1,28.1,8.37,10.45-7.38,28-8.37h1.78q44.05,2.38,44,45.73v60.38H928.52V322q0-16.44-12.16-16.84h-1.78Q903.32,305.59,902.52,319.64Z"/><path class="cls-2" d="M1077.89,309.08a52.07,52.07,0,0,1,4.49,21.52v.89a6.33,6.33,0,0,1-.1,1.1l-.2,1.69h-12.36v.21h-68.54a25.84,25.84,0,0,0,25.2,22,24.5,24.5,0,0,0,17.94-7.57l.19-.2.31-.4.3-.3.19-.29,17.14,24.5a59.53,59.53,0,0,1-14.94,9.07,57.34,57.34,0,0,1-21.13,4,55.86,55.86,0,0,1-27.59-7.08,54.16,54.16,0,0,1-20.63-19.63,54.14,54.14,0,0,1-3.29-49.51,53.78,53.78,0,0,1,12.36-17.34,54.74,54.74,0,0,1,17.93-11.46,58.32,58.32,0,0,1,21.22-4,57.53,57.53,0,0,1,21.13,4,55.56,55.56,0,0,1,18,11.36A52,52,0,0,1,1077.89,309.08Zm-51.51-4a24.74,24.74,0,0,0-12.55,3.39,29.48,29.48,0,0,0-7,6.18h39.06a29.48,29.48,0,0,0-7-6.18A24.79,24.79,0,0,0,1026.38,305.09Z"/><path class="cls-2" d="M1144.57,306.89a12.45,12.45,0,0,0-6.49-1.9h-1.79q-12.15.51-12.15,16.94v60.38h-31.89V321.93q0-43.53,44-45.73h1.79a50,50,0,0,1,6.49.6Z"/><g id="border"><g class="cls-3"><path id="Fill-1" class="cls-2" d="M245.39,224h0a21.26,21.26,0,0,0-8.69,2l-70.92,33.92a19.83,19.83,0,0,0-10.93,13.59l-17.52,76.11a19.89,19.89,0,0,0,3.92,17.1l49.06,61A19.8,19.8,0,0,0,205.87,435H284.5a19.82,19.82,0,0,0,15.56-7.42l49.06-61a19.78,19.78,0,0,0,3.92-17.1l-17.52-76.11a19.83,19.83,0,0,0-10.93-13.59L254,225.92a20.16,20.16,0,0,0-8.56-2m0,6.58a13.71,13.71,0,0,1,5.75,1.26l70.93,33.78a13.63,13.63,0,0,1,7.28,9.12l17.52,76.11a13.08,13.08,0,0,1-2.66,11.49l-49.06,61a13.32,13.32,0,0,1-10.51,5.05H206a13.32,13.32,0,0,1-10.51-5.05l-49.06-61a14,14,0,0,1-2.67-11.49L161.3,274.7a13.4,13.4,0,0,1,7.28-9.12l70.93-33.92a16.86,16.86,0,0,1,5.88-1.12"/></g></g><path class="cls-4" d="M216.67,337.15a5,5,0,0,0,.06-6.45l-21.24-21.12h0a57.52,57.52,0,0,0-9.55,35.49l28.27-6.38A5,5,0,0,0,216.67,337.15Z"/><path class="cls-4" d="M218.06,355.84l-29.63,3.24A64.4,64.4,0,0,0,197,376a62.54,62.54,0,0,0,8.78,9.71h0c1.52,1.19,2.9,2.48,4.32,3.52l12.11-26.34a7.81,7.81,0,0,0,.32-3A5,5,0,0,0,218.06,355.84Z"/><path class="cls-4" d="M230.51,318.49a4.75,4.75,0,0,0,5.12-4.37l2.69-29.18a57.27,57.27,0,0,0-33.74,14L228,317.53A3.71,3.71,0,0,0,230.51,318.49Z"/><polygon class="cls-4" points="235.02 348.67 242.89 353.08 242.89 353.09 250.89 349.62 253.23 341.06 247.91 333.67 239.06 333.17 233.34 339.81 235.02 348.67"/><path class="cls-4" d="M244.22,369.53a4.85,4.85,0,0,0-6.09,1.17l-15.39,25.5a58.42,58.42,0,0,0,24.7,4.21h0a36.47,36.47,0,0,0,12.13-2.09l-13.39-27A6.24,6.24,0,0,0,244.22,369.53Z"/><path class="cls-4" d="M280.61,299.61h0a57.09,57.09,0,0,0-28.24-13.78l.45,30.12a4.44,4.44,0,0,0,.86,2.13,5,5,0,0,0,6.76,1.32L285,303.8C283.48,302.36,282.1,301.06,280.61,299.61Z"/><path class="cls-4" d="M270.26,334.3a4,4,0,0,0-1.07,1.92,5,5,0,0,0,2.91,5.92L300,352a56.86,56.86,0,0,0-6.72-36.36Z"/><path class="cls-4" d="M264.94,359.2a4.9,4.9,0,0,0-2.65,6.25l10.13,27.74a56.07,56.07,0,0,0,14.11-11.75h0a57.6,57.6,0,0,0,9.86-15.8l-29.18-6.7A4.16,4.16,0,0,0,264.94,359.2Z"/><path class="cls-2" d="M175.16,360.83a74.35,74.35,0,0,0,11.37,23.88,69.2,69.2,0,0,0,10.92,12.06A84.45,84.45,0,0,0,205.3,403l10.93,5.87a71.25,71.25,0,0,0,33.32,6.24,69.29,69.29,0,0,0,17.81-3.2L277.68,407a69.91,69.91,0,0,0,20-16,73.55,73.55,0,0,0,13.21-22.33l3.35-11.8a87.64,87.64,0,0,0,1.15-10.21,75.28,75.28,0,0,0-10.46-40.32l1.8-1.52.08-.52a3.76,3.76,0,0,1,1.05-2.58,61.57,61.57,0,0,1,8.27-5.27l.15-.1a6,6,0,0,1,1.69-.76c1-.49,2-1,3.12-1.56l1.33-1a5.91,5.91,0,0,0,1.49-8.17,6,6,0,0,0-3.86-2.26,5.68,5.68,0,0,0-4.36,1.08l-1.18.85a10.49,10.49,0,0,0-2.47,2.46c-.33.47-.78.79-1.26,1.37l-.14.1c-2.73,2.42-5.06,4.78-7.63,6.17a3.76,3.76,0,0,1-2.78.18l-.51-.09-2,1.22a94.71,94.71,0,0,0-7-7.3,72.2,72.2,0,0,0-38-18l-.06-2.25-.22-.3c-.21-.3-.58-.5-.79-.8a3,3,0,0,1-.54-1.67,48.53,48.53,0,0,1,1.11-10,9,9,0,0,0,.27-1.79,32.59,32.59,0,0,0,.65-3.45c0-.26,0-.66,0-1.18,0-.25-.07-.4.08-.51a6.57,6.57,0,0,0-1.21-4.17,5.34,5.34,0,0,0-4.11-2.3c-3-.13-5.62,2.44-5.87,5.82.11.15,0,.26.07.41.07.41-.12.77,0,1.18a29.32,29.32,0,0,0,.38,3.62,8,8,0,0,1,.24,1.89,55.25,55.25,0,0,1,.32,10.07,3.29,3.29,0,0,1-1.67,2.35l-.29.21-.24,2.46a6.81,6.81,0,0,0-1.72.09A69.31,69.31,0,0,0,194.12,290l-2-1.53c-.15.1-.26-.05-.41.06a4.26,4.26,0,0,1-2.81-.5,48.12,48.12,0,0,1-7.19-7.19l-.1-.15a6.56,6.56,0,0,0-1.24-1.4A26,26,0,0,0,178,276.6c-.22-.31-.58-.5-.8-.8a.72.72,0,0,0-.48-.35,6,6,0,0,0-8.26,0c-1.74,1.93-1.65,4.85.08,7.26a4.09,4.09,0,0,0,1,1.1c.11.15.21.3.36.2.22.3.58.49.8.8a18.48,18.48,0,0,0,3,2c.48.35,1.1.59,1.57.93l.11.16a46.41,46.41,0,0,1,7.85,6.25l.22.3a4.2,4.2,0,0,1,.67,2.49c.11.15,0,.26.07.41l1.82,1.9a71.8,71.8,0,0,0-13.47,39.68,76,76,0,0,0,.4,9.56Zm72.75-27.16,5.32,7.39-2.34,8.56-8,3.47h0L235,348.67l-1.68-8.86,5.72-6.64Zm-9.59-48.73-2.69,29.18a4.75,4.75,0,0,1-5.12,4.37,3.71,3.71,0,0,1-2.48-1l-23.45-18.61A57.27,57.27,0,0,1,238.32,284.94Zm-52.38,60.13a57.52,57.52,0,0,1,9.55-35.49h0l21.24,21.12a5,5,0,0,1-.06,6.45,5,5,0,0,1-2.46,1.54Zm36.3,17.83-12.11,26.34c-1.42-1-2.8-2.33-4.32-3.52h0A62.54,62.54,0,0,1,197,376a64.4,64.4,0,0,1-8.6-16.93l29.63-3.24a5,5,0,0,1,4.5,4.09A7.81,7.81,0,0,1,222.24,362.9Zm25.2,37.51h0a58.42,58.42,0,0,1-24.7-4.21l15.39-25.5a4.85,4.85,0,0,1,6.09-1.17,6.24,6.24,0,0,1,2,1.79l13.39,27A36.47,36.47,0,0,1,247.44,400.41Zm6.24-82.33a4.44,4.44,0,0,1-.86-2.13l-.45-30.12a57.09,57.09,0,0,1,28.24,13.78h0c1.49,1.45,2.87,2.75,4.36,4.19l-24.53,15.6A5,5,0,0,1,253.68,318.08Zm32.85,63.36h0a56.07,56.07,0,0,1-14.11,11.75l-10.13-27.74a4.9,4.9,0,0,1,2.65-6.25,4.16,4.16,0,0,1,2.27-.26l29.18,6.7A57.6,57.6,0,0,1,286.53,381.44ZM300,352l-27.91-9.9a5,5,0,0,1-2.91-5.92,4,4,0,0,1,1.07-1.92l23-18.62A56.86,56.86,0,0,1,300,352Z"/><path class="cls-1" d="M315.29,350.15l0,.05c.1-.79.21-1.57.29-2.35C311,353.52,286.8,381,254.83,361.62c-39.08-23.68-33.83-38.11-61.7-38.17-7.19,0-15.48,3.82-19.82,8.63a69.71,69.71,0,0,0,17,55.39v0l.09.08c1.09,1.23,2.22,2.41,3.41,3.57l.19.19c1.21,1.17,2.47,2.31,3.78,3.4l.14.12c1.34,1.11,2.73,2.19,4.16,3.21l.08.06c1.46,1,3,2,4.54,3a72.76,72.76,0,0,0,13,6.23c2.23.8,4.49,1.49,6.76,2.06a72.94,72.94,0,0,0,40.89-1.58q3.25-1.09,6.4-2.49c1-.46,2.08-.95,3.11-1.47,2.05-1,4.05-2.15,6-3.38,1-.61,1.94-1.25,2.89-1.91a70.39,70.39,0,0,0,11.51-10.09l.24-.27c.82-.89,1.61-1.81,2.39-2.76l.45-.54c.72-.91,1.43-1.83,2.12-2.78.13-.19.28-.37.41-.56.79-1.11,1.56-2.24,2.29-3.41a.08.08,0,0,0,0,0l0,0c.66-1.05,1.28-2.12,1.87-3.19l.12-.21c.12-.21.22-.42.33-.63.44-.82.87-1.64,1.28-2.47.07-.14.13-.29.2-.43s.21-.46.32-.68c.36-.77.7-1.54,1-2.31.06-.16.13-.31.19-.46l.12-.28.18-.45c.32-.8.62-1.6.91-2.41a1.07,1.07,0,0,0,.07-.19,68.86,68.86,0,0,0,2.86-10.59,1.77,1.77,0,0,1-.06.17c0-.25.08-.51.13-.76s.08-.4.12-.61l0,.06c.1-.63.2-1.26.29-1.89C315.23,350.57,315.27,350.36,315.29,350.15Z"/><path class="cls-5" d="M206.7,404.87c33.66,20.39,77.76,10.12,98.51-22.95a69.1,69.1,0,0,0,10.34-30.33c-4.52,5.68-28.76,33.15-60.73,13.78-39.08-23.68-33.82-38.11-61.69-38.17-7.2,0-15.49,3.82-19.83,8.63A69.93,69.93,0,0,0,206.7,404.87Z"/><path class="cls-6" d="M305.21,381.92a69.25,69.25,0,0,0,10.08-28c-6.33,10.69-23.72,34.8-65.16,21.55-14-4.48-39.22-31-56.63-15.84-9.94,8.65-9.35,20.32-3.18,31.64a71.23,71.23,0,0,0,16.38,13.62C240.36,425.26,284.46,415,305.21,381.92Z"/><path class="cls-7" d="M305.27,381.56a69.3,69.3,0,0,0,9.66-25.21,47.12,47.12,0,0,1-6.26,10.36c-7.26,9.51-24,27.37-64.85,19.9-28.22-5.15-37.18,5.81-31.76,20.8C244.91,423.77,285.59,412.93,305.27,381.56Z"/><path class="cls-8" d="M305.26,381.45a69.55,69.55,0,0,0,9.49-24.29c-.87,2.41-13.18,25.32-36.61,30.41C248.75,394,246.58,400,247.25,407.08c.23,2.47,1.09,5.89,2.74,7.57A71.64,71.64,0,0,0,305.26,381.45Z"/></svg>