<svg width="64" height="64" viewBox="0 0 64 64" fill="none" xmlns="http://www.w3.org/2000/svg">
<g clip-path="url(#clip0)">
<path d="M31.6646 0.0174344C31.0096 0.0272104 30.3641 0.175761 29.7708 0.453286L14.3155 7.84532C13.719 8.12479 13.1943 8.53692 12.7815 9.05021C12.3687 9.56351 12.0786 10.1644 11.9336 10.8069L8.11551 27.3932C7.96352 28.0384 7.9615 28.7098 8.10959 29.3558C8.25769 30.0018 8.55196 30.6053 8.96978 31.1198L19.6612 44.4132C20.071 44.9154 20.5886 45.3187 21.1757 45.5934C21.7627 45.868 22.4041 46.0069 23.0521 45.9997H40.1876C40.8381 46.0029 41.4809 45.8592 42.0681 45.5792C42.6552 45.2992 43.1716 44.8902 43.5785 44.3827L54.27 31.0893C54.6894 30.5757 54.9847 29.9722 55.1329 29.3259C55.281 28.6796 55.2781 28.0078 55.1242 27.3627L51.3062 10.7764C51.1611 10.1339 50.8711 9.533 50.4583 9.01971C50.0455 8.50641 49.5207 8.09428 48.9243 7.81481L33.5409 0.435851C32.9587 0.155118 32.3218 0.00629702 31.6755 0L31.6646 0.0174344ZM31.6755 1.43395C32.1081 1.43367 32.5356 1.52736 32.9285 1.70854L48.386 9.07007C48.7811 9.26324 49.1283 9.54173 49.4027 9.88544C49.6771 10.2291 49.8717 10.6295 49.9725 11.0575L53.7905 27.6439C53.8967 28.0775 53.8996 28.53 53.7989 28.9649C53.6983 29.3998 53.4968 29.805 53.2109 30.1478L42.5194 43.4413C42.2461 43.7864 41.8979 44.0648 41.5011 44.2555C41.1042 44.4462 40.6693 44.5441 40.229 44.5418H23.0805C22.6402 44.5441 22.2053 44.4462 21.8084 44.2555C21.4116 44.0648 21.0634 43.7864 20.7901 43.4413L10.0986 30.1478C9.82529 29.7979 9.63161 29.3926 9.53111 28.9601C9.43061 28.5276 9.42572 28.0784 9.51677 27.6439L13.3392 11.0663C13.4367 10.6368 13.63 10.2349 13.9047 9.89075C14.1795 9.54657 14.5285 9.26899 14.9257 9.07878L30.3832 1.68675C30.7923 1.52961 31.2263 1.44695 31.6646 1.44267" fill="#326DE6"/>
<path d="M16.3599 29.8362C16.8682 31.7051 17.7074 33.4676 18.8377 35.0403C19.5248 36.0069 20.3236 36.889 21.2174 37.6685C21.7603 38.1545 22.3316 38.6079 22.9282 39.0262L25.3101 40.3054C27.5859 41.3363 30.0768 41.8027 32.5714 41.6652C33.89 41.6034 35.1949 41.369 36.4526 40.9679L38.7016 39.8979C40.3568 39.0139 41.8344 37.8318 43.0601 36.4111C44.3005 34.9724 45.2753 33.3246 45.9389 31.5448L46.669 28.9733C46.796 28.2371 46.8796 27.4942 46.9196 26.7482C47.0013 23.6632 46.2113 20.6177 44.6401 17.9615L45.0324 17.6302L45.0498 17.5169C45.0513 17.3071 45.1332 17.1059 45.2786 16.9547C45.8479 16.5245 46.4505 16.1405 47.0809 15.8062L47.1135 15.7844C47.227 15.7105 47.3512 15.6546 47.4818 15.6188C47.6998 15.512 47.9177 15.4009 48.1618 15.2788L48.4516 15.0609C48.729 14.8665 48.9186 14.5706 48.9794 14.2373C49.0402 13.9041 48.9672 13.5603 48.7763 13.2804C48.5699 13.014 48.2685 12.8375 47.9351 12.7879C47.7691 12.7605 47.5992 12.7672 47.4358 12.8077C47.2724 12.8482 47.119 12.9215 46.985 13.0233L46.7278 13.2085C46.5198 13.3559 46.3378 13.5371 46.1895 13.7446C46.1176 13.847 46.0196 13.9168 45.915 14.0432L45.8845 14.065C45.2895 14.5923 44.7817 15.1067 44.2217 15.4096C44.0322 15.4997 43.8154 15.5138 43.6158 15.4488L43.5047 15.4292L43.0688 15.6951C42.5891 15.138 42.0798 14.6069 41.5434 14.1042C39.2333 12.004 36.3506 10.6385 33.2622 10.1815L33.2491 9.69121L33.2012 9.62582C33.1554 9.56045 33.0748 9.51686 33.029 9.45149C32.9544 9.34462 32.9134 9.21788 32.9113 9.08755C32.9162 8.35471 32.9973 7.62437 33.1532 6.90829C33.1859 6.78057 33.2056 6.64988 33.2121 6.51821C33.2728 6.27032 33.3201 6.01934 33.3537 5.76636C33.3537 5.7097 33.3537 5.62253 33.3537 5.50921C33.3537 5.45473 33.3385 5.42204 33.3712 5.39807C33.3888 5.07402 33.2958 4.7536 33.1075 4.48932C33.0064 4.34286 32.8731 4.22152 32.7179 4.13462C32.5626 4.04773 32.3895 3.9976 32.2118 3.98809C31.558 3.95976 30.9871 4.51983 30.9326 5.25641C30.9565 5.2891 30.9326 5.31308 30.9478 5.34576C30.9631 5.43511 30.9217 5.51357 30.9478 5.60292C30.9591 5.86734 30.9867 6.13081 31.0306 6.39181C31.0644 6.52653 31.082 6.6648 31.0829 6.80369C31.173 7.53154 31.1963 8.2661 31.1527 8.9982C31.1349 9.10559 31.0928 9.20752 31.0298 9.29625C30.9667 9.38498 30.8843 9.45819 30.7887 9.51032L30.7255 9.55609L30.6732 10.0922C30.548 10.0828 30.422 10.0894 30.2984 10.1118C26.6156 10.2964 23.1275 11.8219 20.4918 14.4006L20.0559 14.0671C20.0232 14.0889 19.9992 14.0563 19.9666 14.0802C19.756 14.1154 19.5397 14.0769 19.3542 13.9713C18.778 13.5058 18.2528 12.9805 17.7873 12.4044L17.7655 12.3717C17.6905 12.2576 17.5995 12.1549 17.4953 12.0666C17.3368 11.8595 17.1642 11.6637 16.9788 11.4804C16.9309 11.4128 16.8524 11.3714 16.8045 11.306C16.7934 11.2866 16.7784 11.2698 16.7604 11.2566C16.7423 11.2434 16.7217 11.2343 16.6999 11.2298C16.4569 10.9992 16.1347 10.8707 15.7998 10.8707C15.4649 10.8707 15.1427 10.9992 14.8998 11.2298C14.5206 11.6504 14.5402 12.2867 14.9172 12.8119C14.9746 12.9044 15.0485 12.9857 15.1351 13.0516C15.1591 13.0843 15.1809 13.117 15.2136 13.0952C15.2615 13.1606 15.34 13.202 15.3879 13.2695C15.5911 13.4358 15.8101 13.5818 16.0417 13.7054C16.1463 13.7817 16.2814 13.834 16.3839 13.9081L16.4078 13.9429C17.0256 14.3338 17.5992 14.7905 18.1185 15.305L18.1665 15.3703C18.2709 15.5314 18.3219 15.7213 18.3125 15.913C18.3365 15.9457 18.3125 15.9696 18.3278 16.0023L18.7244 16.4164C16.9078 18.9428 15.8858 21.9535 15.7889 25.0637C15.7742 25.7593 15.8033 26.4551 15.8761 27.147L16.3599 29.8362ZM32.214 23.9174L33.3733 25.5279L32.8634 27.3933L31.12 28.1495L29.4006 27.1863L29.0344 25.2554L30.281 23.8084L32.214 23.9174ZM30.1241 13.2979L29.5378 19.6569C29.5274 19.7928 29.4902 19.9253 29.4284 20.0468C29.3666 20.1683 29.2814 20.2764 29.1778 20.3649C29.0741 20.4533 28.954 20.5205 28.8243 20.5624C28.6946 20.6044 28.5579 20.6203 28.4221 20.6093C28.2211 20.6063 28.0284 20.5286 27.8816 20.3913L22.7713 16.3358C24.8252 14.5482 27.4074 13.4813 30.1241 13.2979V13.2979ZM18.7091 26.4017C18.5384 23.6655 19.2695 20.9487 20.7903 18.6676V18.6676L25.4191 23.2701C25.5832 23.4683 25.6719 23.7181 25.6695 23.9753C25.6671 24.2326 25.5737 24.4807 25.406 24.6758C25.2644 24.8382 25.0778 24.955 24.8699 25.0114L18.7091 26.4017ZM26.6198 30.2873L23.9807 36.0275C23.6713 35.8096 23.3706 35.5197 23.0393 35.2604C22.3268 34.6236 21.6833 33.9136 21.1194 33.1422C20.3158 32.0117 19.6842 30.7684 19.2452 29.4527L25.7024 28.7466C25.9411 28.7667 26.1665 28.8649 26.3438 29.0261C26.521 29.1872 26.6403 29.4022 26.683 29.6379C26.704 29.8565 26.6826 30.077 26.6198 30.2873ZM32.1116 38.4617C30.2721 38.5488 28.4356 38.2358 26.7288 37.5443L30.0827 31.9872C30.2393 31.7964 30.4578 31.6664 30.7002 31.6199C30.9426 31.5733 31.1937 31.613 31.4098 31.7322C31.5817 31.8291 31.7304 31.9622 31.8457 32.1223L34.7637 38.0063C33.912 38.3077 33.0151 38.4618 32.1116 38.4617V38.4617ZM33.4714 20.5199C33.3693 20.3843 33.3047 20.2242 33.284 20.0557L33.1859 13.4918C35.4778 13.8975 37.61 14.9379 39.3401 16.4948V16.4948C39.6648 16.8108 39.9656 17.0941 40.2903 17.4079L34.9446 20.8076C34.709 20.9576 34.4247 21.0114 34.1506 20.9579C33.8764 20.9043 33.6333 20.7476 33.4714 20.5199V20.5199ZM40.6303 34.3277C39.753 35.3444 38.7141 36.2095 37.5553 36.8883L35.3477 30.8431C35.2495 30.5854 35.2548 30.2997 35.3624 30.0458C35.4701 29.792 35.6717 29.5896 35.9252 29.481C36.0816 29.4163 36.253 29.3967 36.4199 29.4244L42.779 30.8845C42.2543 32.1412 41.5285 33.3041 40.6303 34.3277V34.3277ZM43.5657 27.912L37.4834 25.7545C37.2391 25.6531 37.0401 25.4662 36.9234 25.2289C36.8067 24.9915 36.7804 24.7198 36.8493 24.4644C36.8864 24.3059 36.9672 24.1609 37.0824 24.046L42.0947 19.9882C43.4543 22.3918 43.972 25.1806 43.5657 27.912V27.912Z" fill="#326DE6"/>
<path d="M46.8977 27.5087V27.5196C46.9195 27.3474 46.9435 27.1774 46.9609 27.0074C45.9628 28.2431 40.689 34.2317 33.722 30.0083C25.2054 24.8478 26.3495 21.7031 20.2759 21.6901C18.7091 21.6901 16.9025 22.5225 15.9567 23.5708C15.6725 25.7308 15.8563 27.9266 16.4955 30.0093C17.1347 32.0921 18.2144 34.0129 19.6614 35.6417V35.6417L19.681 35.6591C19.9185 35.9271 20.1648 36.1843 20.4241 36.4371L20.4655 36.4785C20.7292 36.7335 21.0038 36.9819 21.2893 37.2194L21.3198 37.2456C21.6118 37.4875 21.9147 37.7228 22.2264 37.9451L22.2438 37.9582C22.562 38.1761 22.8976 38.3941 23.2332 38.612C24.1303 39.1572 25.0793 39.612 26.0662 39.9697C26.5522 40.144 27.0447 40.2944 27.5394 40.4186C30.4817 41.1564 33.5738 41.037 36.4504 40.0743C36.9226 39.9159 37.3875 39.735 37.8451 39.5316C38.063 39.4314 38.2984 39.3246 38.5229 39.2113C38.9696 38.9934 39.4054 38.7427 39.8304 38.4747C40.0483 38.3418 40.2532 38.2023 40.4602 38.0585C41.3738 37.4189 42.2148 36.6815 42.9685 35.8596L43.0208 35.8007C43.1995 35.6068 43.3717 35.4063 43.5417 35.1993L43.6397 35.0816C43.7967 34.8833 43.9514 34.6828 44.1017 34.4758C44.1301 34.4343 44.1628 34.3951 44.1911 34.3537C44.3633 34.1118 44.5311 33.8656 44.6901 33.6106C44.834 33.3818 44.9691 33.1486 45.0977 32.9154L45.1238 32.8696C45.15 32.8239 45.1718 32.7781 45.1957 32.7323C45.2916 32.5536 45.3853 32.375 45.4747 32.1941C45.4899 32.1636 45.503 32.1309 45.5183 32.1004C45.5335 32.0699 45.564 32.0001 45.588 31.9522C45.6665 31.7844 45.7405 31.6166 45.8059 31.4488C45.819 31.4139 45.8343 31.3812 45.8473 31.3485L45.8735 31.2875L45.9127 31.1894C45.9824 31.0151 46.0478 30.8408 46.111 30.6642C46.1174 30.6509 46.1225 30.6371 46.1263 30.6228C46.3951 29.8714 46.6035 29.0996 46.7495 28.315C46.7458 28.3276 46.7415 28.3399 46.7365 28.352C46.7365 28.2976 46.7539 28.2409 46.7648 28.1864C46.7757 28.1319 46.7822 28.0993 46.7909 28.0535V28.0666C46.8127 27.9293 46.8345 27.792 46.8541 27.6547C46.8847 27.6002 46.8934 27.5544 46.8977 27.5087Z" fill="white"/>
<path d="M23.2331 39.4336C30.5685 43.8771 40.179 41.639 44.701 34.4322C45.9596 32.436 46.7315 30.1719 46.9543 27.8225C45.9693 29.0603 40.6868 35.0468 33.7197 30.8255C25.2032 25.6651 26.3495 22.5204 20.2759 22.5073C18.7068 22.5073 16.9002 23.3398 15.9544 24.388C15.57 27.3323 16.0541 30.3247 17.3472 32.9977C18.6403 35.6706 20.6861 37.9075 23.2331 39.4336V39.4336Z" fill="url(#paint0_linear)"/>
<path d="M44.7007 34.4321C45.8664 32.5814 46.616 30.4993 46.8974 28.3302C45.5179 30.6598 41.7282 35.914 32.6973 33.0265C29.6464 32.0502 24.1503 26.2708 20.3562 29.5746C18.19 31.4596 18.3186 34.0028 19.6632 36.4697C20.6976 37.6324 21.9009 38.633 23.2328 39.4379C30.5682 43.877 40.1787 41.6411 44.7007 34.4321Z" fill="url(#paint1_linear)"/>
<path d="M44.7139 34.3538C45.769 32.6782 46.4843 30.8115 46.8191 28.8599C46.4633 29.668 46.0048 30.4268 45.4549 31.1176C43.8727 33.19 40.2247 37.0822 31.3224 35.4543C25.1725 34.332 23.2199 36.7204 24.4011 39.9871C31.5599 43.5524 40.4251 41.1901 44.7139 34.3538Z" fill="url(#paint2_linear)"/>
<path d="M44.7117 34.3298C45.7287 32.7115 46.4304 30.9155 46.7799 29.0364C46.5903 29.5616 43.9076 34.5543 38.8016 35.6635C32.3968 37.0648 31.9239 38.3723 32.0699 39.9152C32.12 40.4535 32.3074 41.1988 32.667 41.5649C35.1004 41.3841 37.4575 40.6354 39.5493 39.3789C41.641 38.1224 43.4092 36.3931 44.7117 34.3298Z" fill="url(#paint3_linear)"/>
<path d="M5.98633 57.9395H2.48242V60.5645H6.57812V61.748H1V53.2168H6.53711V54.4121H2.48242V56.7676H5.98633V57.9395Z" fill="#FC6011"/>
<path d="M9.81875 55.4082L9.85977 56.1406C10.3285 55.5742 10.9438 55.291 11.7055 55.291C13.0258 55.291 13.6977 56.0469 13.7211 57.5586V61.748H12.2973V57.6406C12.2973 57.2383 12.2094 56.9414 12.0336 56.75C11.8617 56.5547 11.5785 56.457 11.184 56.457C10.6098 56.457 10.182 56.7168 9.90078 57.2363V61.748H8.47695V55.4082H9.81875Z" fill="#FC6011"/>
<path d="M17.8113 53.8672V55.4082H18.9305V56.4629H17.8113V60.002C17.8113 60.2441 17.8582 60.4199 17.952 60.5293C18.0496 60.6348 18.2215 60.6875 18.4676 60.6875C18.6316 60.6875 18.7977 60.668 18.9656 60.6289V61.7305C18.6414 61.8203 18.3289 61.8652 18.0281 61.8652C16.9344 61.8652 16.3875 61.2617 16.3875 60.0547V56.4629H15.3445V55.4082H16.3875V53.8672H17.8113Z" fill="#FC6011"/>
<path d="M23.6652 61.8652C22.7629 61.8652 22.0305 61.582 21.468 61.0156C20.9094 60.4453 20.6301 59.6875 20.6301 58.7422V58.5664C20.6301 57.9336 20.7512 57.3691 20.9934 56.873C21.2395 56.373 21.5832 55.9844 22.0246 55.707C22.466 55.4297 22.9582 55.291 23.5012 55.291C24.3645 55.291 25.0305 55.5664 25.4992 56.1172C25.9719 56.668 26.2082 57.4473 26.2082 58.4551V59.0293H22.0656C22.1086 59.5527 22.2824 59.9668 22.5871 60.2715C22.8957 60.5762 23.2824 60.7285 23.7473 60.7285C24.3996 60.7285 24.9309 60.4648 25.341 59.9375L26.1086 60.6699C25.8547 61.0488 25.5148 61.3438 25.0891 61.5547C24.6672 61.7617 24.1926 61.8652 23.6652 61.8652ZM23.4953 56.4336C23.1047 56.4336 22.7883 56.5703 22.5461 56.8438C22.3078 57.1172 22.1555 57.498 22.0891 57.9863H24.802V57.8809C24.7707 57.4043 24.6437 57.0449 24.4211 56.8027C24.1984 56.5566 23.8898 56.4336 23.4953 56.4336Z" fill="#FC6011"/>
<path d="M31.4879 56.709C31.3004 56.6777 31.107 56.6621 30.9078 56.6621C30.2555 56.6621 29.816 56.9121 29.5895 57.4121V61.748H28.1656V55.4082H29.525L29.5602 56.1172C29.9039 55.5664 30.3805 55.291 30.9898 55.291C31.193 55.291 31.3609 55.3184 31.4937 55.373L31.4879 56.709Z" fill="#FC6011"/>
<path d="M38.7891 58.6426C38.7891 59.623 38.5664 60.4062 38.1211 60.9922C37.6758 61.5742 37.0781 61.8652 36.3281 61.8652C35.6328 61.8652 35.0762 61.6367 34.6582 61.1797V64.1855H33.2344V55.4082H34.5469L34.6055 56.0527C35.0234 55.5449 35.5918 55.291 36.3105 55.291C37.084 55.291 37.6895 55.5801 38.127 56.1582C38.5684 56.7324 38.7891 57.5312 38.7891 58.5547V58.6426ZM37.3711 58.5195C37.3711 57.8867 37.2441 57.3848 36.9902 57.0137C36.7402 56.6426 36.3809 56.457 35.9121 56.457C35.3301 56.457 34.9121 56.6973 34.6582 57.1777V59.9902C34.916 60.4824 35.3379 60.7285 35.9238 60.7285C36.377 60.7285 36.7305 60.5469 36.9844 60.1836C37.2422 59.8164 37.3711 59.2617 37.3711 58.5195Z" fill="#FC6011"/>
<path d="M44.1684 56.709C43.9809 56.6777 43.7875 56.6621 43.5883 56.6621C42.9359 56.6621 42.4965 56.9121 42.2699 57.4121V61.748H40.8461V55.4082H42.2055L42.2406 56.1172C42.5844 55.5664 43.0609 55.291 43.6703 55.291C43.8734 55.291 44.0414 55.3184 44.1742 55.373L44.1684 56.709Z" fill="#FC6011"/>
<path d="M47.4324 61.748H46.0086V55.4082H47.4324V61.748ZM45.9207 53.7617C45.9207 53.543 45.9891 53.3613 46.1258 53.2168C46.2664 53.0723 46.4656 53 46.7234 53C46.9813 53 47.1805 53.0723 47.3211 53.2168C47.4617 53.3613 47.532 53.543 47.532 53.7617C47.532 53.9766 47.4617 54.1562 47.3211 54.3008C47.1805 54.4414 46.9813 54.5117 46.7234 54.5117C46.4656 54.5117 46.2664 54.4414 46.1258 54.3008C45.9891 54.1562 45.9207 53.9766 45.9207 53.7617Z" fill="#FC6011"/>
<path d="M53.3918 60.0254C53.3918 59.7715 53.2863 59.5781 53.0754 59.4453C52.8684 59.3125 52.5227 59.1953 52.0383 59.0938C51.5539 58.9922 51.1496 58.8633 50.8254 58.707C50.1145 58.3633 49.759 57.8652 49.759 57.2129C49.759 56.666 49.9895 56.209 50.4504 55.8418C50.9113 55.4746 51.4973 55.291 52.2082 55.291C52.966 55.291 53.5773 55.4785 54.0422 55.8535C54.5109 56.2285 54.7453 56.7148 54.7453 57.3125H53.3215C53.3215 57.0391 53.2199 56.8125 53.0168 56.6328C52.8137 56.4492 52.5441 56.3574 52.2082 56.3574C51.8957 56.3574 51.6398 56.4297 51.4406 56.5742C51.2453 56.7188 51.1477 56.9121 51.1477 57.1543C51.1477 57.373 51.2395 57.543 51.423 57.6641C51.6066 57.7852 51.9777 57.9082 52.5363 58.0332C53.0949 58.1543 53.5324 58.3008 53.8488 58.4727C54.1691 58.6406 54.4055 58.8438 54.5578 59.082C54.7141 59.3203 54.7922 59.6094 54.7922 59.9492C54.7922 60.5195 54.5559 60.9824 54.0832 61.3379C53.6105 61.6895 52.9914 61.8652 52.2258 61.8652C51.7062 61.8652 51.2434 61.7715 50.8371 61.584C50.4309 61.3965 50.1145 61.1387 49.8879 60.8105C49.6613 60.4824 49.548 60.1289 49.548 59.75H50.9309C50.9504 60.0859 51.0773 60.3457 51.3117 60.5293C51.5461 60.709 51.8566 60.7988 52.2434 60.7988C52.6184 60.7988 52.9035 60.7285 53.0988 60.5879C53.2941 60.4434 53.3918 60.2559 53.3918 60.0254Z" fill="#FC6011"/>
<path d="M59.6793 61.8652C58.777 61.8652 58.0445 61.582 57.482 61.0156C56.9234 60.4453 56.6441 59.6875 56.6441 58.7422V58.5664C56.6441 57.9336 56.7652 57.3691 57.0074 56.873C57.2535 56.373 57.5973 55.9844 58.0387 55.707C58.4801 55.4297 58.9723 55.291 59.5152 55.291C60.3785 55.291 61.0445 55.5664 61.5133 56.1172C61.9859 56.668 62.2223 57.4473 62.2223 58.4551V59.0293H58.0797C58.1227 59.5527 58.2965 59.9668 58.6012 60.2715C58.9098 60.5762 59.2965 60.7285 59.7613 60.7285C60.4137 60.7285 60.9449 60.4648 61.3551 59.9375L62.1227 60.6699C61.8688 61.0488 61.5289 61.3438 61.1031 61.5547C60.6813 61.7617 60.2066 61.8652 59.6793 61.8652ZM59.5094 56.4336C59.1188 56.4336 58.8023 56.5703 58.5602 56.8438C58.3219 57.1172 58.1695 57.498 58.1031 57.9863H60.816V57.8809C60.7848 57.4043 60.6578 57.0449 60.4352 56.8027C60.2125 56.5566 59.9039 56.4336 59.5094 56.4336Z" fill="#FC6011"/>
</g>
<defs>
<linearGradient id="paint0_linear" x1="15.8122" y1="32.0896" x2="46.9472" y2="32.1548" gradientUnits="userSpaceOnUse">
<stop stop-color="#0369D3"/>
<stop offset="0.48" stop-color="#00BAFF"/>
<stop offset="1" stop-color="#0043B5"/>
</linearGradient>
<linearGradient id="paint1_linear" x1="5390.96" y1="5332.95" x2="9041.98" y2="5332.95" gradientUnits="userSpaceOnUse">
<stop stop-color="#0369D3"/>
<stop offset="0.48" stop-color="#00BAFF"/>
<stop offset="1" stop-color="#0043B5"/>
</linearGradient>
<linearGradient id="paint2_linear" x1="4918.82" y1="5104.59" x2="7290.68" y2="5104.59" gradientUnits="userSpaceOnUse">
<stop stop-color="#0369D3"/>
<stop offset="0.48" stop-color="#00BAFF"/>
<stop offset="1" stop-color="#0043B5"/>
</linearGradient>
<linearGradient id="paint3_linear" x1="3741.35" y1="5008.76" x2="4735.51" y2="5008.76" gradientUnits="userSpaceOnUse">
<stop stop-color="#0369D3"/>
<stop offset="0.48" stop-color="#00BAFF"/>
<stop offset="1" stop-color="#0043B5"/>
</linearGradient>
<clipPath id="clip0">
<rect width="64" height="64" fill="white"/>
</clipPath>
</defs>
</svg>
