<svg width="64" height="64" viewBox="0 0 64 64" fill="none" xmlns="http://www.w3.org/2000/svg">
<g clip-path="url(#clip0)">
<path d="M31.6646 0.0174344C31.0096 0.0272104 30.3641 0.175761 29.7708 0.453286L14.3155 7.84532C13.719 8.12479 13.1943 8.53692 12.7815 9.05021C12.3687 9.56351 12.0786 10.1644 11.9336 10.8069L8.11551 27.3932C7.96352 28.0384 7.9615 28.7098 8.10959 29.3558C8.25769 30.0018 8.55196 30.6053 8.96978 31.1198L19.6612 44.4132C20.071 44.9154 20.5886 45.3187 21.1757 45.5934C21.7627 45.868 22.4041 46.0069 23.0521 45.9997H40.1876C40.8381 46.0029 41.4809 45.8592 42.0681 45.5792C42.6552 45.2992 43.1716 44.8902 43.5785 44.3827L54.27 31.0893C54.6894 30.5757 54.9847 29.9722 55.1329 29.3259C55.281 28.6796 55.2781 28.0078 55.1242 27.3627L51.3062 10.7764C51.1611 10.1339 50.8711 9.533 50.4583 9.01971C50.0455 8.50641 49.5207 8.09428 48.9243 7.81481L33.5409 0.435851C32.9587 0.155118 32.3218 0.00629702 31.6755 0L31.6646 0.0174344ZM31.6755 1.43395C32.1081 1.43367 32.5356 1.52736 32.9285 1.70854L48.386 9.07007C48.7811 9.26324 49.1283 9.54173 49.4027 9.88544C49.6771 10.2291 49.8717 10.6295 49.9725 11.0575L53.7905 27.6439C53.8967 28.0775 53.8996 28.53 53.7989 28.9649C53.6983 29.3998 53.4968 29.805 53.2109 30.1478L42.5194 43.4413C42.2461 43.7864 41.8979 44.0648 41.5011 44.2555C41.1042 44.4462 40.6693 44.5441 40.229 44.5418H23.0805C22.6402 44.5441 22.2053 44.4462 21.8084 44.2555C21.4116 44.0648 21.0634 43.7864 20.7901 43.4413L10.0986 30.1478C9.82529 29.7979 9.63161 29.3926 9.53111 28.9601C9.43061 28.5276 9.42572 28.0784 9.51677 27.6439L13.3392 11.0663C13.4367 10.6368 13.63 10.2349 13.9047 9.89075C14.1795 9.54657 14.5285 9.26899 14.9257 9.07878L30.3832 1.68675C30.7923 1.52961 31.2263 1.44695 31.6646 1.44267" fill="#326DE6"/>
<path d="M16.3599 29.8362C16.8682 31.7051 17.7074 33.4676 18.8377 35.0403C19.5248 36.0069 20.3236 36.889 21.2174 37.6685C21.7603 38.1545 22.3316 38.6079 22.9282 39.0262L25.3101 40.3054C27.5859 41.3363 30.0768 41.8027 32.5714 41.6652C33.89 41.6034 35.1949 41.369 36.4526 40.9679L38.7016 39.8979C40.3568 39.0139 41.8344 37.8318 43.0601 36.4111C44.3005 34.9724 45.2753 33.3246 45.9389 31.5448L46.669 28.9733C46.796 28.2371 46.8796 27.4942 46.9196 26.7482C47.0013 23.6632 46.2113 20.6177 44.6401 17.9615L45.0324 17.6302L45.0498 17.5169C45.0513 17.3071 45.1332 17.1059 45.2786 16.9547C45.8479 16.5245 46.4505 16.1405 47.0809 15.8062L47.1135 15.7844C47.227 15.7105 47.3512 15.6546 47.4818 15.6188C47.6998 15.512 47.9177 15.4009 48.1618 15.2788L48.4516 15.0609C48.729 14.8665 48.9186 14.5706 48.9794 14.2373C49.0402 13.9041 48.9672 13.5603 48.7763 13.2804C48.5699 13.014 48.2685 12.8375 47.9351 12.7879C47.7691 12.7605 47.5992 12.7672 47.4358 12.8077C47.2724 12.8482 47.119 12.9215 46.985 13.0233L46.7278 13.2085C46.5198 13.3559 46.3378 13.5371 46.1895 13.7446C46.1176 13.847 46.0196 13.9168 45.915 14.0432L45.8845 14.065C45.2895 14.5923 44.7817 15.1067 44.2217 15.4096C44.0322 15.4997 43.8154 15.5138 43.6158 15.4488L43.5047 15.4292L43.0688 15.6951C42.5891 15.138 42.0798 14.6069 41.5434 14.1042C39.2333 12.004 36.3506 10.6385 33.2622 10.1815L33.2491 9.69121L33.2012 9.62582C33.1554 9.56045 33.0748 9.51686 33.029 9.45149C32.9544 9.34462 32.9134 9.21788 32.9113 9.08755C32.9162 8.35471 32.9973 7.62437 33.1532 6.90829C33.1859 6.78057 33.2056 6.64988 33.2121 6.51821C33.2728 6.27032 33.3201 6.01934 33.3537 5.76636C33.3537 5.7097 33.3537 5.62253 33.3537 5.50921C33.3537 5.45473 33.3385 5.42204 33.3712 5.39807C33.3888 5.07402 33.2958 4.7536 33.1075 4.48932C33.0064 4.34286 32.8731 4.22152 32.7179 4.13462C32.5626 4.04773 32.3895 3.9976 32.2118 3.98809C31.558 3.95976 30.9871 4.51983 30.9326 5.25641C30.9565 5.2891 30.9326 5.31308 30.9478 5.34576C30.9631 5.43511 30.9217 5.51357 30.9478 5.60292C30.9591 5.86734 30.9867 6.13081 31.0306 6.39181C31.0644 6.52653 31.082 6.6648 31.0829 6.80369C31.173 7.53154 31.1963 8.2661 31.1527 8.9982C31.1349 9.10559 31.0928 9.20752 31.0298 9.29625C30.9667 9.38498 30.8843 9.45819 30.7887 9.51032L30.7255 9.55609L30.6732 10.0922C30.548 10.0828 30.422 10.0894 30.2984 10.1118C26.6156 10.2964 23.1275 11.8219 20.4918 14.4006L20.0559 14.0671C20.0232 14.0889 19.9992 14.0563 19.9666 14.0802C19.756 14.1154 19.5397 14.0769 19.3542 13.9713C18.778 13.5058 18.2528 12.9805 17.7873 12.4044L17.7655 12.3717C17.6905 12.2576 17.5995 12.1549 17.4953 12.0666C17.3368 11.8595 17.1642 11.6637 16.9788 11.4804C16.9309 11.4128 16.8524 11.3714 16.8045 11.306C16.7934 11.2866 16.7784 11.2698 16.7604 11.2566C16.7423 11.2434 16.7217 11.2343 16.6999 11.2298C16.4569 10.9992 16.1347 10.8707 15.7998 10.8707C15.4649 10.8707 15.1427 10.9992 14.8998 11.2298C14.5206 11.6504 14.5402 12.2867 14.9172 12.8119C14.9746 12.9044 15.0485 12.9857 15.1351 13.0516C15.1591 13.0843 15.1809 13.117 15.2136 13.0952C15.2615 13.1606 15.34 13.202 15.3879 13.2695C15.5911 13.4358 15.8101 13.5818 16.0417 13.7054C16.1463 13.7817 16.2814 13.834 16.3839 13.9081L16.4078 13.9429C17.0256 14.3338 17.5992 14.7905 18.1185 15.305L18.1665 15.3703C18.2709 15.5314 18.3219 15.7213 18.3125 15.913C18.3365 15.9457 18.3125 15.9696 18.3278 16.0023L18.7244 16.4164C16.9078 18.9428 15.8858 21.9535 15.7889 25.0637C15.7742 25.7593 15.8033 26.4551 15.8761 27.147L16.3599 29.8362ZM32.214 23.9174L33.3733 25.5279L32.8634 27.3933L31.12 28.1495L29.4006 27.1863L29.0344 25.2554L30.281 23.8084L32.214 23.9174ZM30.1241 13.2979L29.5378 19.6569C29.5274 19.7928 29.4902 19.9253 29.4284 20.0468C29.3666 20.1683 29.2814 20.2764 29.1778 20.3649C29.0741 20.4533 28.954 20.5205 28.8243 20.5624C28.6946 20.6044 28.5579 20.6203 28.4221 20.6093C28.2211 20.6063 28.0284 20.5286 27.8816 20.3913L22.7713 16.3358C24.8252 14.5482 27.4074 13.4813 30.1241 13.2979V13.2979ZM18.7091 26.4017C18.5384 23.6655 19.2695 20.9487 20.7903 18.6676V18.6676L25.4191 23.2701C25.5832 23.4683 25.6719 23.7181 25.6695 23.9753C25.6671 24.2326 25.5737 24.4807 25.406 24.6758C25.2644 24.8382 25.0778 24.955 24.8699 25.0114L18.7091 26.4017ZM26.6198 30.2873L23.9807 36.0275C23.6713 35.8096 23.3706 35.5197 23.0393 35.2604C22.3268 34.6236 21.6833 33.9136 21.1194 33.1422C20.3158 32.0117 19.6842 30.7684 19.2452 29.4527L25.7024 28.7466C25.9411 28.7667 26.1665 28.8649 26.3438 29.0261C26.521 29.1872 26.6403 29.4022 26.683 29.6379C26.704 29.8565 26.6826 30.077 26.6198 30.2873ZM32.1116 38.4617C30.2721 38.5488 28.4356 38.2358 26.7288 37.5443L30.0827 31.9872C30.2393 31.7964 30.4578 31.6664 30.7002 31.6199C30.9426 31.5733 31.1937 31.613 31.4098 31.7322C31.5817 31.8291 31.7304 31.9622 31.8457 32.1223L34.7637 38.0063C33.912 38.3077 33.0151 38.4618 32.1116 38.4617V38.4617ZM33.4714 20.5199C33.3693 20.3843 33.3047 20.2242 33.284 20.0557L33.1859 13.4918C35.4778 13.8975 37.61 14.9379 39.3401 16.4948V16.4948C39.6648 16.8108 39.9656 17.0941 40.2903 17.4079L34.9446 20.8076C34.709 20.9576 34.4247 21.0114 34.1506 20.9579C33.8764 20.9043 33.6333 20.7476 33.4714 20.5199V20.5199ZM40.6303 34.3277C39.753 35.3444 38.7141 36.2095 37.5553 36.8883L35.3477 30.8431C35.2495 30.5854 35.2548 30.2997 35.3624 30.0458C35.4701 29.792 35.6717 29.5896 35.9252 29.481C36.0816 29.4163 36.253 29.3967 36.4199 29.4244L42.779 30.8845C42.2543 32.1412 41.5285 33.3041 40.6303 34.3277V34.3277ZM43.5657 27.912L37.4834 25.7545C37.2391 25.6531 37.0401 25.4662 36.9234 25.2289C36.8067 24.9915 36.7804 24.7198 36.8493 24.4644C36.8864 24.3059 36.9672 24.1609 37.0824 24.046L42.0947 19.9882C43.4543 22.3918 43.972 25.1806 43.5657 27.912V27.912Z" fill="#326DE6"/>
<path d="M46.8977 27.5088V27.5197C46.9195 27.3475 46.9435 27.1776 46.9609 27.0076C45.9628 28.2432 40.689 34.2318 33.722 30.0084C25.2054 24.8479 26.3495 21.7033 20.2759 21.6902C18.7091 21.6902 16.9025 22.5227 15.9567 23.5709C15.6725 25.7309 15.8563 27.9267 16.4955 30.0095C17.1347 32.0922 18.2144 34.0131 19.6614 35.6418V35.6418L19.681 35.6592C19.9185 35.9273 20.1648 36.1844 20.4241 36.4372L20.4655 36.4786C20.7292 36.7336 21.0038 36.982 21.2893 37.2196L21.3198 37.2457C21.6118 37.4876 21.9147 37.723 22.2264 37.9453L22.2438 37.9583C22.562 38.1763 22.8976 38.3942 23.2332 38.6121C24.1303 39.1573 25.0793 39.6121 26.0662 39.9698C26.5522 40.1441 27.0447 40.2945 27.5394 40.4187C30.4817 41.1566 33.5738 41.0371 36.4504 40.0744C36.9226 39.916 37.3875 39.7351 37.8451 39.5318C38.063 39.4315 38.2984 39.3247 38.5229 39.2114C38.9696 38.9935 39.4054 38.7429 39.8304 38.4748C40.0483 38.3419 40.2532 38.2024 40.4602 38.0586C41.3738 37.419 42.2148 36.6817 42.9685 35.8597L43.0208 35.8009C43.1995 35.6069 43.3717 35.4064 43.5417 35.1994L43.6397 35.0817C43.7967 34.8834 43.9514 34.6829 44.1017 34.4759C44.1301 34.4345 44.1628 34.3952 44.1911 34.3538C44.3633 34.1119 44.5311 33.8657 44.6901 33.6107C44.834 33.3819 44.9691 33.1487 45.0977 32.9155L45.1238 32.8698C45.15 32.824 45.1718 32.7782 45.1957 32.7325C45.2916 32.5538 45.3853 32.3751 45.4747 32.1942C45.4899 32.1637 45.503 32.131 45.5183 32.1005C45.5335 32.07 45.564 32.0002 45.588 31.9523C45.6665 31.7845 45.7405 31.6167 45.8059 31.4489C45.819 31.414 45.8343 31.3813 45.8473 31.3486L45.8735 31.2876L45.9127 31.1896C45.9824 31.0152 46.0478 30.8409 46.111 30.6644C46.1174 30.6511 46.1225 30.6372 46.1263 30.623C46.3951 29.8715 46.6035 29.0997 46.7495 28.3151C46.7458 28.3277 46.7415 28.34 46.7365 28.3522C46.7365 28.2977 46.7539 28.241 46.7648 28.1865C46.7757 28.1321 46.7822 28.0994 46.7909 28.0536V28.0667C46.8127 27.9294 46.8345 27.7921 46.8541 27.6548C46.8847 27.6003 46.8934 27.5546 46.8977 27.5088Z" fill="white"/>
<path d="M23.2331 39.4336C30.5685 43.8771 40.179 41.639 44.701 34.4322C45.9596 32.436 46.7315 30.1719 46.9543 27.8225C45.9693 29.0603 40.6868 35.0468 33.7197 30.8255C25.2032 25.6651 26.3495 22.5204 20.2759 22.5073C18.7068 22.5073 16.9002 23.3398 15.9544 24.388C15.57 27.3323 16.0541 30.3247 17.3472 32.9977C18.6403 35.6706 20.6861 37.9075 23.2331 39.4336V39.4336Z" fill="url(#paint0_linear)"/>
<path d="M44.7007 34.4322C45.8664 32.5815 46.616 30.4995 46.8974 28.3303C45.5179 30.6599 41.7282 35.9141 32.6973 33.0266C29.6464 32.0503 24.1503 26.2709 20.3562 29.5747C18.19 31.4597 18.3186 34.0029 19.6632 36.4698C20.6976 37.6326 21.9009 38.6331 23.2328 39.438C30.5682 43.8771 40.1787 41.6412 44.7007 34.4322Z" fill="url(#paint1_linear)"/>
<path d="M44.7139 34.3538C45.769 32.6782 46.4843 30.8115 46.8191 28.8599C46.4633 29.668 46.0048 30.4268 45.4549 31.1176C43.8727 33.19 40.2247 37.0822 31.3224 35.4543C25.1725 34.332 23.2199 36.7204 24.4011 39.9871C31.5599 43.5524 40.4251 41.1901 44.7139 34.3538Z" fill="url(#paint2_linear)"/>
<path d="M44.7117 34.3298C45.7287 32.7115 46.4304 30.9155 46.7799 29.0364C46.5903 29.5616 43.9076 34.5543 38.8016 35.6635C32.3968 37.0648 31.9239 38.3723 32.0699 39.9152C32.12 40.4535 32.3074 41.1988 32.667 41.5649C35.1004 41.3841 37.4575 40.6354 39.5493 39.3789C41.641 38.1224 43.4092 36.3931 44.7117 34.3298Z" fill="url(#paint3_linear)"/>
<path d="M6.66219 58.9933C6.57773 59.8786 6.2476 60.5702 5.67178 61.0679C5.09597 61.5619 4.33013 61.8089 3.37428 61.8089C2.70633 61.8089 2.11708 61.6531 1.60653 61.3415C1.09981 61.0261 0.708253 60.5797 0.431862 60.0021C0.15547 59.4246 0.0115163 58.7539 0 57.9902V57.2151C0 56.4324 0.140115 55.7427 0.420345 55.1462C0.700576 54.5496 1.10173 54.0899 1.6238 53.7669C2.14971 53.4439 2.75624 53.2824 3.44338 53.2824C4.36852 53.2824 5.11324 53.5313 5.67754 54.0291C6.24184 54.5268 6.57006 55.2298 6.66219 56.1379H5.21113C5.14203 55.5413 4.96545 55.112 4.68138 54.8498C4.40115 54.5838 3.98848 54.4508 3.44338 54.4508C2.80998 54.4508 2.32246 54.6807 1.98081 55.1405C1.64299 55.5964 1.47025 56.2671 1.46257 57.1524V57.8876C1.46257 58.7843 1.6238 59.4683 1.94626 59.9394C2.27255 60.4106 2.74856 60.6462 3.37428 60.6462C3.94626 60.6462 4.3762 60.5189 4.66411 60.2643C4.95202 60.0097 5.13436 59.5861 5.21113 58.9933H6.66219Z" fill="#00A651"/>
<path d="M8.06334 58.5545C8.06334 57.9503 8.18426 57.407 8.4261 56.9244C8.66795 56.4381 9.00768 56.0657 9.4453 55.8073C9.88292 55.5451 10.3858 55.414 10.9539 55.414C11.7946 55.414 12.476 55.6819 12.9981 56.2177C13.524 56.7534 13.8081 57.464 13.8503 58.3493L13.856 58.6741C13.856 59.2821 13.737 59.8254 13.499 60.3042C13.2649 60.783 12.9271 61.1534 12.4856 61.4156C12.048 61.6778 11.5413 61.8089 10.9655 61.8089C10.0864 61.8089 9.38196 61.5201 8.85221 60.9425C8.3263 60.3612 8.06334 59.588 8.06334 58.6229V58.5545ZM9.46257 58.6741C9.46257 59.3087 9.59501 59.8064 9.85988 60.1674C10.1248 60.5246 10.4933 60.7032 10.9655 60.7032C11.4376 60.7032 11.8042 60.5208 12.0653 60.156C12.3301 59.7912 12.4626 59.2574 12.4626 58.5545C12.4626 57.9313 12.3263 57.4374 12.0537 57.0726C11.785 56.7078 11.4184 56.5254 10.9539 56.5254C10.4971 56.5254 10.1344 56.7059 9.86564 57.0669C9.59693 57.4241 9.46257 57.9598 9.46257 58.6741Z" fill="#00A651"/>
<path d="M16.8464 55.528L16.8868 56.1721C17.3244 55.6667 17.9232 55.414 18.6833 55.414C19.5163 55.414 20.0864 55.7294 20.3935 56.3602C20.8464 55.7294 21.4837 55.414 22.3052 55.414C22.9923 55.414 23.5029 55.6021 23.8369 55.9783C24.1747 56.3545 24.3474 56.9092 24.3551 57.6425V61.6949H22.9559V57.6824C22.9559 57.2911 22.8695 57.0042 22.6967 56.8218C22.524 56.6394 22.238 56.5482 21.8388 56.5482C21.5202 56.5482 21.2591 56.6337 21.0557 56.8047C20.856 56.9719 20.7159 57.1923 20.6353 57.4659L20.6411 61.6949H19.2418V57.6368C19.2226 56.9111 18.8484 56.5482 18.119 56.5482C17.5585 56.5482 17.1612 56.7743 16.9271 57.2265V61.6949H15.5278V55.528H16.8464Z" fill="#00A651"/>
<path d="M27.5988 55.528L27.6392 56.1721C28.0768 55.6667 28.6756 55.414 29.4357 55.414C30.2687 55.414 30.8388 55.7294 31.1459 56.3602C31.5988 55.7294 32.2361 55.414 33.0576 55.414C33.7447 55.414 34.2553 55.6021 34.5893 55.9783C34.9271 56.3545 35.0998 56.9092 35.1075 57.6425V61.6949H33.7083V57.6824C33.7083 57.2911 33.6219 57.0042 33.4491 56.8218C33.2764 56.6394 32.9904 56.5482 32.5912 56.5482C32.2726 56.5482 32.0115 56.6337 31.8081 56.8047C31.6084 56.9719 31.4683 57.1923 31.3877 57.4659L31.3935 61.6949H29.9942V57.6368C29.975 56.9111 29.6008 56.5482 28.8714 56.5482C28.3109 56.5482 27.9136 56.7743 27.6795 57.2265V61.6949H26.2802V55.528H27.5988Z" fill="#00A651"/>
<path d="M40.81 61.0907C40.3992 61.5695 39.8157 61.8089 39.0595 61.8089C38.3839 61.8089 37.8714 61.6132 37.5221 61.2218C37.1766 60.8305 37.0038 60.2643 37.0038 59.5234V55.528H38.4031V59.5063C38.4031 60.289 38.7313 60.6804 39.3877 60.6804C40.0672 60.6804 40.5259 60.4391 40.7639 59.9565V55.528H42.1631V61.6949H40.8445L40.81 61.0907Z" fill="#00A651"/>
<path d="M45.3781 55.528L45.4184 56.2405C45.8791 55.6895 46.4837 55.414 47.2322 55.414C48.5297 55.414 49.19 56.1493 49.2131 57.6197V61.6949H47.8138V57.6995C47.8138 57.3082 47.7274 57.0194 47.5547 56.8332C47.3858 56.6432 47.1075 56.5482 46.7198 56.5482C46.1555 56.5482 45.7351 56.8009 45.4587 57.3063V61.6949H44.0595V55.528H45.3781Z" fill="#00A651"/>
<path d="M52.6238 61.6949H51.2246V55.528H52.6238V61.6949ZM51.1382 53.9265C51.1382 53.7137 51.2054 53.537 51.3397 53.3964C51.4779 53.2558 51.6737 53.1855 51.9271 53.1855C52.1804 53.1855 52.3762 53.2558 52.5144 53.3964C52.6526 53.537 52.7217 53.7137 52.7217 53.9265C52.7217 54.1355 52.6526 54.3102 52.5144 54.4508C52.3762 54.5876 52.1804 54.656 51.9271 54.656C51.6737 54.656 51.4779 54.5876 51.3397 54.4508C51.2054 54.3102 51.1382 54.1355 51.1382 53.9265Z" fill="#00A651"/>
<path d="M56.3973 54.0291V55.528H57.4971V56.5539H56.3973V59.9964C56.3973 60.232 56.4434 60.403 56.5355 60.5094C56.6315 60.612 56.8004 60.6633 57.0422 60.6633C57.2035 60.6633 57.3666 60.6443 57.5317 60.6063V61.6778C57.2131 61.7652 56.9059 61.8089 56.6104 61.8089C55.5355 61.8089 54.9981 61.2218 54.9981 60.0477V56.5539H53.9731V55.528H54.9981V54.0291H56.3973Z" fill="#00A651"/>
<path d="M61.2418 59.7115L62.5086 55.528H64L61.524 62.6296C61.144 63.6669 60.499 64.1855 59.5892 64.1855C59.3858 64.1855 59.1612 64.1513 58.9155 64.083V63.0115L59.1804 63.0286C59.5336 63.0286 59.7985 62.964 59.975 62.8348C60.1555 62.7094 60.2975 62.4966 60.4011 62.1964L60.6027 61.6664L58.4146 55.528H59.9232L61.2418 59.7115Z" fill="#00A651"/>
</g>
<defs>
<linearGradient id="paint0_linear" x1="15.8122" y1="32.0896" x2="46.9472" y2="32.1548" gradientUnits="userSpaceOnUse">
<stop stop-color="#0369D3"/>
<stop offset="0.48" stop-color="#00BAFF"/>
<stop offset="1" stop-color="#0043B5"/>
</linearGradient>
<linearGradient id="paint1_linear" x1="5390.96" y1="5332.95" x2="9041.98" y2="5332.95" gradientUnits="userSpaceOnUse">
<stop stop-color="#0369D3"/>
<stop offset="0.48" stop-color="#00BAFF"/>
<stop offset="1" stop-color="#0043B5"/>
</linearGradient>
<linearGradient id="paint2_linear" x1="4918.82" y1="5104.59" x2="7290.68" y2="5104.59" gradientUnits="userSpaceOnUse">
<stop stop-color="#0369D3"/>
<stop offset="0.48" stop-color="#00BAFF"/>
<stop offset="1" stop-color="#0043B5"/>
</linearGradient>
<linearGradient id="paint3_linear" x1="3741.35" y1="5008.76" x2="4735.51" y2="5008.76" gradientUnits="userSpaceOnUse">
<stop stop-color="#0369D3"/>
<stop offset="0.48" stop-color="#00BAFF"/>
<stop offset="1" stop-color="#0043B5"/>
</linearGradient>
<clipPath id="clip0">
<rect width="64" height="64" fill="white"/>
</clipPath>
</defs>
</svg>
