<svg width="64" height="64" viewBox="0 0 64 64" fill="none" xmlns="http://www.w3.org/2000/svg">
<path d="M31.3906 0H31.9579C32.517 0.0476046 33.0633 0.193667 33.5715 0.431444C33.9814 0.632066 34.3913 0.826217 34.8011 1.02252L47.8135 7.26768C48.26 7.4834 48.713 7.6797 49.1466 7.91484C49.7215 8.21879 50.2208 8.64796 50.6076 9.17068C50.9944 9.69341 51.2589 10.2963 51.3815 10.9349C51.8971 13.2087 52.4256 15.4759 52.9477 17.7475C53.6869 20.956 54.4246 24.1645 55.161 27.373C55.3224 28.0183 55.3284 28.6927 55.1784 29.3407C55.0284 29.9888 54.7267 30.5919 54.2981 31.1006C50.7962 35.4539 47.2943 39.8057 43.7924 44.1561C43.2983 44.8196 42.6374 45.3406 41.8768 45.6662C41.328 45.8852 40.7419 45.9958 40.151 45.9919C34.9205 45.9919 29.6892 45.9919 24.4573 45.9919C23.8446 45.9919 23.2298 46.0178 22.6193 45.9768C22.0265 45.9273 21.452 45.7476 20.9367 45.4505C20.4558 45.1823 20.031 44.8242 19.6855 44.3956C16.1117 39.956 12.5386 35.5165 8.96626 31.0769C8.26956 30.2315 7.92778 29.149 8.01276 28.0568C8.07545 27.513 8.18076 26.9749 8.32772 26.4475C9.33442 22.0856 10.3411 17.723 11.3478 13.3597C11.5528 12.4644 11.7448 11.567 11.9713 10.6782C12.1137 10.0628 12.3947 9.48799 12.7928 8.99753C13.1909 8.50707 13.6957 8.11391 14.2687 7.84797C17.5563 6.26241 20.8525 4.69627 24.1466 3.12365L29.6993 0.455174C30.2306 0.201604 30.8038 0.0473416 31.3906 0V0ZM31.6602 44.5293H40.1446C40.621 44.5416 41.0935 44.4399 41.5227 44.2328C41.9519 44.0257 42.3255 43.7191 42.6124 43.3386C44.8329 40.5701 47.0577 37.8053 49.2869 35.044C50.6056 33.4089 51.923 31.7723 53.2389 30.1342C53.5282 29.7902 53.7311 29.3821 53.8309 28.9439C53.9307 28.5056 53.9245 28.0499 53.8127 27.6146C53.5668 26.536 53.3187 25.4574 53.0685 24.3787C52.0632 20.0104 51.0472 15.6463 50.0484 11.2736C49.9591 10.7836 49.7532 10.3223 49.4479 9.9288C49.1426 9.53527 48.747 9.22109 48.2945 9.01287L38.4598 4.33817C36.6348 3.47528 34.8098 2.60736 32.9847 1.7344C32.57 1.53034 32.1139 1.42423 31.6516 1.42423C31.1893 1.42423 30.7332 1.53034 30.3184 1.7344C28.556 2.54983 26.8108 3.39978 25.0591 4.23678C21.6982 5.84463 18.3379 7.45032 14.9784 9.05385C14.5739 9.23351 14.217 9.50543 13.9364 9.84782C13.6558 10.1902 13.4593 10.5936 13.3627 11.0256C12.9528 12.7276 12.5688 14.4383 12.1762 16.1468C11.3133 19.9133 10.4432 23.6791 9.56596 27.4442C9.45803 27.8608 9.43094 28.2943 9.48615 28.7212C9.57761 29.2897 9.82138 29.8227 10.1916 30.2636C11.3306 31.6615 12.4588 33.068 13.5913 34.4767C15.9772 37.4378 18.3645 40.4069 20.7533 43.3839C21.0411 43.7573 21.4137 44.0569 21.8402 44.258C22.2666 44.459 22.7348 44.5557 23.2061 44.5401L31.6602 44.5293Z" fill="#326CE5"/>
<path d="M31.6406 6.6228C28.3011 6.62238 25.0364 7.61227 22.2595 9.46731C19.4825 11.3224 17.3181 13.9592 16.0398 17.0444C14.7615 20.1296 14.4268 23.5246 15.0781 26.8001C15.7293 30.0755 17.3373 33.0842 19.6985 35.4458C22.0598 37.8074 25.0683 39.4157 28.3437 40.0673C31.619 40.719 35.014 40.3848 38.0994 39.1069C41.1848 37.829 43.8219 35.6648 45.6773 32.8882C47.5327 30.1115 48.523 26.8469 48.523 23.5074C48.523 19.0297 46.7444 14.7353 43.5784 11.5689C40.4124 8.40253 36.1183 6.62337 31.6406 6.6228V6.6228ZM43.5571 14.4384C43.6103 14.3997 43.6737 14.3777 43.7393 14.3751C43.805 14.3725 43.87 14.3894 43.926 14.4237C43.9821 14.458 44.0267 14.5082 44.0542 14.5678C44.0818 14.6275 44.091 14.694 44.0807 14.7589C44.0705 14.8238 44.0412 14.8842 43.9966 14.9325C43.952 14.9808 43.894 15.0147 43.8301 15.0301C43.7662 15.0454 43.6992 15.0414 43.6376 15.0187C43.5759 14.9959 43.5224 14.9554 43.4838 14.9022C43.4326 14.8308 43.4116 14.7421 43.4253 14.6553C43.4391 14.5685 43.4864 14.4906 43.5571 14.4384V14.4384ZM40.1724 11.2026C40.2108 11.1498 40.264 11.1097 40.3252 11.0871C40.3864 11.0646 40.453 11.0607 40.5164 11.0759C40.5798 11.0912 40.6373 11.1249 40.6816 11.1728C40.7259 11.2207 40.755 11.2806 40.7652 11.345C40.7755 11.4095 40.7664 11.4755 40.7391 11.5348C40.7119 11.594 40.6677 11.6439 40.6121 11.6781C40.5565 11.7122 40.492 11.7291 40.4268 11.7267C40.3616 11.7242 40.2986 11.7025 40.2458 11.6642C40.2103 11.6388 40.1802 11.6065 40.1573 11.5693C40.1344 11.5321 40.1191 11.4908 40.1122 11.4476C40.1054 11.4045 40.1072 11.3604 40.1176 11.318C40.1279 11.2756 40.1465 11.2356 40.1724 11.2004V11.2026ZM36.3693 8.95476C36.4317 8.97488 36.4869 9.01307 36.5277 9.0645C36.5685 9.11592 36.5931 9.17828 36.5985 9.24371C36.6039 9.30913 36.5898 9.37468 36.5579 9.43209C36.5261 9.48949 36.478 9.53619 36.4196 9.56626C36.3613 9.59634 36.2953 9.60845 36.2301 9.60108C36.1649 9.59371 36.1033 9.56718 36.0531 9.52483C36.003 9.48249 35.9665 9.42623 35.9482 9.36317C35.93 9.3001 35.9309 9.23305 35.9508 9.17048C35.9638 9.12859 35.9849 9.08969 36.0131 9.05603C36.0412 9.02236 36.0757 8.9946 36.1146 8.97434C36.1535 8.95409 36.1961 8.94174 36.2398 8.93801C36.2835 8.93427 36.3275 8.93923 36.3693 8.9526V8.95476ZM31.6406 8.2062C31.7063 8.2062 31.7706 8.22569 31.8252 8.26219C31.8798 8.29869 31.9224 8.35058 31.9476 8.41128C31.9727 8.47199 31.9793 8.53878 31.9665 8.60323C31.9536 8.66767 31.922 8.72686 31.8755 8.77332C31.8291 8.81979 31.7699 8.85143 31.7054 8.86424C31.641 8.87706 31.5742 8.87048 31.5135 8.84534C31.4528 8.8202 31.4009 8.77761 31.3644 8.72298C31.3279 8.66835 31.3084 8.60412 31.3084 8.53842C31.3078 8.49453 31.316 8.45097 31.3325 8.41028C31.349 8.3696 31.3734 8.3326 31.4043 8.30147C31.4352 8.27033 31.4721 8.24568 31.5127 8.22895C31.5532 8.21222 31.5967 8.20376 31.6406 8.20405V8.2062ZM26.912 8.95476C26.9746 8.9349 27.0416 8.93403 27.1047 8.95224C27.1678 8.97046 27.224 9.00695 27.2664 9.05711C27.3087 9.10728 27.3352 9.16886 27.3426 9.23409C27.35 9.29932 27.3379 9.36527 27.3078 9.42362C27.2777 9.48197 27.231 9.5301 27.1736 9.56194C27.1162 9.59377 27.0507 9.60788 26.9852 9.6025C26.9198 9.59711 26.8574 9.57246 26.806 9.53166C26.7546 9.49086 26.7164 9.43574 26.6963 9.37326C26.6822 9.3315 26.6767 9.28735 26.68 9.24341C26.6833 9.19948 26.6953 9.15664 26.7154 9.11744C26.7355 9.07823 26.7633 9.04345 26.7971 9.01514C26.8308 8.98683 26.8699 8.96557 26.912 8.9526V8.95476ZM22.645 11.1292C22.6981 11.0903 22.7616 11.068 22.8274 11.0652C22.8932 11.0624 22.9583 11.0792 23.0145 11.1135C23.0707 11.1478 23.1155 11.198 23.1431 11.2578C23.1707 11.3176 23.18 11.3842 23.1696 11.4492C23.1593 11.5143 23.1299 11.5748 23.0851 11.623C23.0403 11.6713 22.9822 11.7052 22.9181 11.7204C22.854 11.7355 22.7869 11.7313 22.7252 11.7083C22.6635 11.6852 22.6101 11.6444 22.5717 11.5909C22.52 11.5196 22.4986 11.4308 22.5124 11.3438C22.5261 11.2568 22.5738 11.1789 22.645 11.1271V11.1292ZM19.2603 14.5118C19.299 14.4586 19.3525 14.418 19.4141 14.3953C19.4758 14.3725 19.5428 14.3686 19.6067 14.3839C19.6706 14.3993 19.7285 14.4332 19.7731 14.4815C19.8178 14.5297 19.847 14.5901 19.8573 14.6551C19.8676 14.72 19.8584 14.7865 19.8308 14.8461C19.8033 14.9058 19.7587 14.956 19.7026 14.9903C19.6466 15.0246 19.5816 15.0415 19.5159 15.0389C19.4502 15.0363 19.3868 15.0142 19.3337 14.9756C19.263 14.9234 19.2156 14.8455 19.2019 14.7587C19.1882 14.6719 19.2092 14.5832 19.2603 14.5118V14.5118ZM16.6717 23.8374C16.6058 23.8379 16.5413 23.8187 16.4863 23.7823C16.4313 23.746 16.3884 23.6941 16.363 23.6333C16.3376 23.5726 16.3309 23.5056 16.3436 23.4409C16.3563 23.3763 16.388 23.3169 16.4346 23.2703C16.4812 23.2237 16.5406 23.192 16.6052 23.1793C16.6699 23.1665 16.7369 23.1733 16.7977 23.1987C16.8584 23.2241 16.9103 23.267 16.9466 23.322C16.983 23.377 17.0022 23.4415 17.0017 23.5074C17.0012 23.5947 16.9662 23.6783 16.9044 23.7401C16.8427 23.8019 16.759 23.8369 16.6717 23.8374V23.8374ZM17.5065 28.4474C17.4439 28.4674 17.3767 28.4684 17.3135 28.4502C17.2503 28.432 17.194 28.3955 17.1515 28.3452C17.1091 28.295 17.0826 28.2333 17.0753 28.1679C17.0679 28.1026 17.0802 28.0365 17.1104 27.9781C17.1407 27.9197 17.1876 27.8716 17.2452 27.8399C17.3028 27.8082 17.3685 27.7943 17.4341 27.8C17.4996 27.8056 17.5619 27.8306 17.6132 27.8718C17.6645 27.9129 17.7025 27.9683 17.7222 28.0311C17.7356 28.0727 17.7405 28.1166 17.7368 28.1601C17.733 28.2037 17.7206 28.246 17.7004 28.2848C17.6801 28.3235 17.6523 28.3578 17.6187 28.3858C17.585 28.4137 17.5462 28.4346 17.5044 28.4474H17.5065ZM17.2908 19.1951C17.2283 19.175 17.1732 19.1368 17.1324 19.0853C17.0916 19.0339 17.067 18.9716 17.0616 18.9061C17.0562 18.8407 17.0703 18.7752 17.1021 18.7178C17.134 18.6603 17.1821 18.6137 17.2404 18.5836C17.2988 18.5535 17.3647 18.5414 17.43 18.5488C17.4952 18.5561 17.5568 18.5827 17.6069 18.625C17.6571 18.6674 17.6936 18.7236 17.7118 18.7867C17.73 18.8497 17.7292 18.9168 17.7093 18.9794C17.6825 19.0616 17.6247 19.1301 17.5482 19.1704C17.4716 19.2107 17.3824 19.2196 17.2994 19.1951H17.2908ZM19.7155 32.5698C19.6624 32.6088 19.599 32.6311 19.5332 32.6339C19.4674 32.6367 19.4022 32.6199 19.346 32.5856C19.2898 32.5513 19.2451 32.5011 19.2174 32.4413C19.1898 32.3815 19.1806 32.3149 19.1909 32.2499C19.2013 32.1848 19.2307 32.1243 19.2755 32.076C19.3202 32.0278 19.3784 31.9939 19.4424 31.9787C19.5065 31.9635 19.5737 31.9677 19.6353 31.9908C19.697 32.0139 19.7505 32.0547 19.7889 32.1082C19.8153 32.143 19.8345 32.1827 19.8456 32.225C19.8566 32.2673 19.8592 32.3113 19.8532 32.3546C19.8472 32.3979 19.8327 32.4396 19.8105 32.4772C19.7884 32.5149 19.759 32.5479 19.7241 32.5742L19.7155 32.5698ZM23.1002 35.8057C23.0618 35.8592 23.0084 35.9 22.9467 35.9231C22.885 35.9461 22.8179 35.9503 22.7538 35.9352C22.6897 35.92 22.6316 35.8861 22.5868 35.8378C22.542 35.7896 22.5126 35.7291 22.5023 35.664C22.4919 35.599 22.5012 35.5324 22.5288 35.4726C22.5564 35.4128 22.6011 35.3626 22.6574 35.3283C22.7136 35.294 22.7787 35.2772 22.8445 35.28C22.9103 35.2828 22.9738 35.3051 23.0269 35.344C23.0634 35.3691 23.0945 35.4011 23.1185 35.4383C23.1425 35.4756 23.1587 35.5172 23.1664 35.5608C23.174 35.6044 23.1729 35.6491 23.163 35.6923C23.1531 35.7355 23.1347 35.7762 23.1088 35.8121L23.1002 35.8057ZM26.9034 38.0535C26.8407 38.0337 26.7852 37.9958 26.7441 37.9445C26.703 37.8932 26.678 37.8308 26.6723 37.7653C26.6666 37.6998 26.6805 37.6341 26.7122 37.5765C26.744 37.5188 26.792 37.4719 26.8504 37.4417C26.9088 37.4114 26.9749 37.3992 27.0402 37.4065C27.1056 37.4138 27.1673 37.4404 27.2175 37.4828C27.2678 37.5252 27.3043 37.5816 27.3225 37.6448C27.3407 37.708 27.3397 37.7751 27.3197 37.8378C27.2942 37.9207 27.2373 37.9904 27.1611 38.0319C27.0849 38.0735 26.9955 38.0835 26.912 38.06L26.9034 38.0535ZM31.632 38.8021C31.5661 38.8025 31.5016 38.7833 31.4466 38.747C31.3917 38.7106 31.3488 38.6588 31.3233 38.598C31.2979 38.5372 31.2912 38.4702 31.3039 38.4056C31.3167 38.3409 31.3484 38.2815 31.3949 38.2349C31.4415 38.1884 31.5009 38.1567 31.5656 38.1439C31.6302 38.1312 31.6972 38.1379 31.758 38.1633C31.8188 38.1888 31.8706 38.2317 31.907 38.2866C31.9433 38.3416 31.9625 38.4061 31.9621 38.472C31.9632 38.559 31.9302 38.643 31.8701 38.706C31.81 38.7689 31.7276 38.8057 31.6406 38.8085L31.632 38.8021ZM36.3606 38.0535C36.2981 38.0734 36.231 38.0742 36.1679 38.056C36.1049 38.0378 36.0486 38.0013 36.0063 37.9511C35.9639 37.901 35.9374 37.8394 35.93 37.7742C35.9227 37.7089 35.9348 37.643 35.9649 37.5846C35.9949 37.5263 36.0416 37.4782 36.099 37.4463C36.1564 37.4145 36.222 37.4004 36.2874 37.4058C36.3528 37.4112 36.4152 37.4358 36.4666 37.4766C36.518 37.5174 36.5562 37.5725 36.5764 37.635C36.5909 37.6765 36.5972 37.7205 36.5946 37.7644C36.5921 37.8083 36.5809 37.8512 36.5616 37.8908C36.5423 37.9303 36.5154 37.9656 36.4824 37.9946C36.4494 38.0237 36.4109 38.0459 36.3693 38.06L36.3606 38.0535ZM40.6255 35.879C40.5726 35.9173 40.5096 35.939 40.4444 35.9415C40.3792 35.9439 40.3148 35.927 40.2592 35.8928C40.2036 35.8587 40.1594 35.8088 40.1321 35.7496C40.1048 35.6903 40.0958 35.6243 40.106 35.5598C40.1162 35.4954 40.1453 35.4355 40.1896 35.3876C40.2339 35.3397 40.2914 35.306 40.3548 35.2907C40.4183 35.2755 40.4848 35.2794 40.546 35.3019C40.6072 35.3245 40.6604 35.3646 40.6988 35.4174C40.7258 35.4522 40.7456 35.492 40.757 35.5345C40.7684 35.5771 40.7711 35.6215 40.7651 35.6651C40.7591 35.7087 40.7444 35.7507 40.7219 35.7885C40.6994 35.8264 40.6695 35.8594 40.6341 35.8855L40.6255 35.879ZM44.0123 32.4943C43.9739 32.5478 43.9204 32.5887 43.8588 32.6118C43.7971 32.6348 43.7299 32.639 43.6659 32.6238C43.6018 32.6087 43.5437 32.5748 43.4989 32.5265C43.4541 32.4782 43.4247 32.4177 43.4144 32.3527C43.404 32.2877 43.4132 32.221 43.4409 32.1612C43.4685 32.1015 43.5132 32.0512 43.5694 32.017C43.6257 31.9827 43.6908 31.9659 43.7566 31.9687C43.8224 31.9715 43.8858 31.9938 43.9389 32.0327C43.9755 32.0577 44.0066 32.0898 44.0306 32.127C44.0546 32.1642 44.0708 32.2059 44.0785 32.2495C44.0861 32.2931 44.085 32.3378 44.0751 32.381C44.0652 32.4241 44.0468 32.4649 44.0209 32.5008L44.0123 32.4943ZM31.632 37.0245C28.9564 37.0245 26.3409 36.2311 24.1163 34.7446C21.8916 33.2582 20.1577 31.1454 19.1338 28.6735C18.1099 26.2016 17.842 23.4816 18.364 20.8574C18.886 18.2333 20.1744 15.8228 22.0663 13.9309C23.9582 12.039 26.3687 10.7506 28.9928 10.2286C31.617 9.70661 34.337 9.97451 36.8089 10.9984C39.2808 12.0223 41.3936 13.7562 42.8801 15.9809C44.3665 18.2055 45.1599 20.821 45.1599 23.4966C45.1613 25.2733 44.8128 27.0329 44.1341 28.6748C43.4554 30.3168 42.46 31.809 41.2046 33.0662C39.9491 34.3234 38.4584 35.321 36.8174 36.002C35.1764 36.6831 33.4173 37.0342 31.6406 37.0353L31.632 37.0245ZM45.7683 28.4366C45.7056 28.4168 45.6501 28.3789 45.609 28.3276C45.5678 28.2763 45.5429 28.2139 45.5372 28.1484C45.5315 28.0829 45.5454 28.0172 45.5771 27.9596C45.6088 27.902 45.6569 27.8551 45.7153 27.8248C45.7737 27.7946 45.8398 27.7823 45.9051 27.7896C45.9705 27.7969 46.0322 27.8235 46.0824 27.8659C46.1327 27.9083 46.1692 27.9647 46.1874 28.0279C46.2056 28.0911 46.2046 28.1583 46.1846 28.2209C46.1605 28.305 46.1041 28.376 46.0276 28.4185C45.9512 28.461 45.861 28.4714 45.7769 28.4474L45.7683 28.4366ZM45.9732 19.1843C45.9106 19.2043 45.8434 19.2053 45.7802 19.1871C45.717 19.1689 45.6606 19.1324 45.6182 19.0821C45.5758 19.0319 45.5493 18.9702 45.5419 18.9048C45.5346 18.8395 45.5469 18.7734 45.5771 18.715C45.6074 18.6566 45.6543 18.6085 45.7119 18.5768C45.7695 18.5451 45.8352 18.5312 45.9007 18.5369C45.9662 18.5425 46.0286 18.5675 46.0799 18.6087C46.1312 18.6498 46.1691 18.7052 46.1889 18.768C46.2038 18.8096 46.2103 18.8537 46.208 18.8979C46.2056 18.942 46.1944 18.9853 46.1751 19.025C46.1559 19.0648 46.1288 19.1004 46.0956 19.1296C46.0624 19.1588 46.0237 19.181 45.9818 19.1951L45.9732 19.1843ZM46.6031 23.8266C46.5372 23.8271 46.4727 23.8079 46.4177 23.7715C46.3628 23.7352 46.3199 23.6833 46.2945 23.6226C46.269 23.5618 46.2623 23.4948 46.275 23.4301C46.2878 23.3655 46.3195 23.3061 46.3661 23.2595C46.4126 23.2129 46.472 23.1812 46.5367 23.1685C46.6013 23.1557 46.6683 23.1625 46.7291 23.1879C46.7899 23.2133 46.8417 23.2562 46.8781 23.3112C46.9144 23.3662 46.9336 23.4307 46.9332 23.4966C46.9355 23.5843 46.903 23.6694 46.8428 23.7333C46.7825 23.7972 46.6995 23.8346 46.6117 23.8374L46.6031 23.8266Z" fill="#326CE5"/>
<g opacity="0.8">
<path opacity="0.8" d="M31.6407 9.97925C28.9652 9.97925 26.3497 10.7726 24.125 12.2591C21.9004 13.7456 20.1665 15.8584 19.1426 18.3303C18.1187 20.8022 17.8508 23.5222 18.3727 26.1463C18.8947 28.7705 20.1831 31.181 22.075 33.0729C23.967 34.9648 26.3774 36.2532 29.0016 36.7752C31.6257 37.2971 34.3457 37.0292 36.8176 36.0054C39.2895 34.9815 41.4023 33.2475 42.8888 31.0229C44.3753 28.7982 45.1687 26.1827 45.1687 23.5072C45.1687 19.9193 43.7434 16.4785 41.2064 13.9415C38.6694 11.4045 35.2286 9.97925 31.6407 9.97925ZM38.7272 24.0875C38.6094 25.5687 38.0273 26.975 37.064 28.1064L39.5793 30.6217L38.7574 31.4457L36.2421 28.9304C35.11 29.8925 33.7041 30.4744 32.2232 30.5936V34.1509H31.0583V30.5936C29.5774 30.4744 28.1715 29.8925 27.0394 28.9304L24.5241 31.4457L23.7022 30.6217L26.2175 28.1064C25.3247 27.0561 24.7579 25.7681 24.5866 24.4003H20.9862V23.203H24.5305C24.5923 21.6255 25.1792 20.1139 26.1981 18.908L23.7906 16.4897L24.6362 15.6441L27.0631 18.071C28.2684 17.0528 29.7794 16.4666 31.356 16.4056V12.8613H32.5532V16.4531C34.0538 16.6456 35.4533 17.314 36.5462 18.36L39.2622 15.6441L40.11 16.4897L37.3401 19.2596C38.1398 20.3263 38.6208 21.5979 38.7272 22.9269H42.2866V24.0896L38.7272 24.0875Z" fill="#326CE5"/>
<path opacity="0.8" d="M28.0083 27.9618C28.8793 28.673 29.9399 29.1125 31.0586 29.226V28.4537C30.1427 28.3494 29.2744 27.9907 28.5519 27.4182L28.0083 27.9618Z" fill="#326CE5"/>
<path opacity="0.8" d="M25.9697 24.4004C26.126 25.4019 26.5459 26.3437 27.1864 27.1293L27.7279 26.5878C27.2191 25.952 26.8746 25.2008 26.7248 24.4004H25.9697Z" fill="#326CE5"/>
<path opacity="0.8" d="M31.3409 18.5284V17.7712C30.126 17.831 28.9617 18.2761 28.0166 19.0418L28.5602 19.5833C29.3574 18.9556 30.3279 18.5875 31.3409 18.5284Z" fill="#326CE5"/>
<path opacity="0.8" d="M27.7166 20.4289L27.1752 19.8875C26.4089 20.832 25.9644 21.9968 25.9067 23.2117H26.6639C26.7219 22.1983 27.0893 21.227 27.7166 20.4289V20.4289Z" fill="#326CE5"/>
<path opacity="0.8" d="M32.2231 28.4537V29.226C33.3418 29.1126 34.4025 28.673 35.2735 27.9619L34.7298 27.4204C34.0071 27.9921 33.1388 28.35 32.2231 28.4537V28.4537Z" fill="#326CE5"/>
<path opacity="0.8" d="M35.5798 19.3265C34.7406 18.5348 33.682 18.0145 32.5425 17.8337V18.5909C33.4826 18.7628 34.353 19.2025 35.0492 19.8572L35.5798 19.3265Z" fill="#326CE5"/>
<path opacity="0.8" d="M35.8281 20.7718C36.2465 21.4218 36.5073 22.1605 36.5896 22.9291H37.3597C37.2634 21.9622 36.921 21.0361 36.3653 20.239L35.8281 20.7718Z" fill="#326CE5"/>
<path opacity="0.8" d="M35.5542 26.5963L36.0957 27.1377C36.8083 26.2677 37.2481 25.2065 37.3598 24.0874H36.5897C36.4844 25.0037 36.1258 25.8725 35.5542 26.5963V26.5963Z" fill="#326CE5"/>
<path opacity="0.8" d="M32.6458 23.5072C32.6458 23.3084 32.5868 23.114 32.4764 22.9487C32.3659 22.7834 32.2089 22.6546 32.0252 22.5785C31.8415 22.5024 31.6394 22.4825 31.4444 22.5213C31.2494 22.5601 31.0703 22.6558 30.9297 22.7964C30.7891 22.937 30.6934 23.1161 30.6546 23.3111C30.6158 23.5061 30.6357 23.7082 30.7118 23.8919C30.7879 24.0756 30.9167 24.2326 31.082 24.3431C31.2473 24.4535 31.4417 24.5125 31.6405 24.5125C31.9071 24.5125 32.1628 24.4066 32.3514 24.218C32.5399 24.0295 32.6458 23.7738 32.6458 23.5072V23.5072Z" fill="#326CE5"/>
<path opacity="0.8" d="M35.5237 22.9249C35.3867 22.0378 34.9542 21.223 34.2962 20.6124C33.5693 19.9495 32.6244 19.5764 31.6407 19.564C31.5393 19.564 31.4444 19.5855 31.3451 19.5942C30.4079 19.6613 29.5262 20.064 28.8617 20.7284C28.1973 21.3929 27.7946 22.2746 27.7275 23.2118C27.7275 23.3111 27.6973 23.406 27.6973 23.5074C27.7079 24.3485 27.9826 25.165 28.4825 25.8415C28.7145 26.1551 28.9914 26.4327 29.3044 26.6655C29.8204 27.0479 30.4228 27.2968 31.0582 27.3904C31.4426 27.468 31.8387 27.468 32.2231 27.3904C32.8584 27.2964 33.4607 27.0475 33.9769 26.6655C34.2899 26.4327 34.5668 26.1551 34.7988 25.8415C35.1812 25.3255 35.4301 24.723 35.5237 24.0877C35.6013 23.704 35.6013 23.3086 35.5237 22.9249ZM28.5019 23.5074C28.5015 22.8865 28.6852 22.2794 29.0298 21.763C29.3745 21.2465 29.8645 20.8439 30.438 20.606C31.0115 20.3681 31.6427 20.3056 32.2517 20.4265C32.8607 20.5474 33.4202 20.8461 33.8593 21.285C34.2985 21.7239 34.5977 22.2832 34.7189 22.8921C34.8402 23.501 34.7782 24.1322 34.5407 24.7059C34.3032 25.2795 33.9009 25.7698 33.3847 26.1148C32.8685 26.4598 32.2615 26.644 31.6407 26.644C30.8088 26.6434 30.0111 26.3128 29.4226 25.7248C28.8342 25.1367 28.5031 24.3393 28.5019 23.5074Z" fill="#326CE5"/>
</g>
<path d="M6.66219 58.8078C6.57773 59.6931 6.2476 60.3846 5.67178 60.8824C5.09597 61.3763 4.33013 61.6233 3.37428 61.6233C2.70633 61.6233 2.11708 61.4675 1.60653 61.156C1.09981 60.8406 0.708253 60.3941 0.431862 59.8166C0.15547 59.239 0.0115163 58.5684 0 57.8047V57.0295C0 56.2468 0.140115 55.5572 0.420345 54.9606C0.700576 54.3641 1.10173 53.9043 1.6238 53.5813C2.14971 53.2584 2.75624 53.0969 3.44338 53.0969C4.36852 53.0969 5.11324 53.3458 5.67754 53.8435C6.24184 54.3413 6.57006 55.0442 6.66219 55.9523H5.21113C5.14203 55.3558 4.96545 54.9264 4.68138 54.6642C4.40115 54.3983 3.98848 54.2653 3.44338 54.2653C2.80998 54.2653 2.32246 54.4952 1.98081 54.9549C1.64299 55.4109 1.47025 56.0815 1.46257 56.9668V57.7021C1.46257 58.5988 1.6238 59.2827 1.94626 59.7539C2.27255 60.225 2.74856 60.4606 3.37428 60.4606C3.94626 60.4606 4.3762 60.3333 4.66411 60.0788C4.95202 59.8242 5.13436 59.4005 5.21113 58.8078H6.66219Z" fill="#00A651"/>
<path d="M8.06334 58.3689C8.06334 57.7648 8.18426 57.2214 8.4261 56.7389C8.66795 56.2525 9.00768 55.8801 9.4453 55.6218C9.88292 55.3596 10.3858 55.2285 10.9539 55.2285C11.7946 55.2285 12.476 55.4964 12.9981 56.0321C13.524 56.5679 13.8081 57.2784 13.8503 58.1637L13.856 58.4886C13.856 59.0965 13.737 59.6399 13.499 60.1187C13.2649 60.5974 12.9271 60.9679 12.4856 61.2301C12.048 61.4922 11.5413 61.6233 10.9655 61.6233C10.0864 61.6233 9.38196 61.3345 8.85221 60.757C8.3263 60.1756 8.06334 59.4024 8.06334 58.4373V58.3689ZM9.46257 58.4886C9.46257 59.1231 9.59501 59.6209 9.85988 59.9819C10.1248 60.339 10.4933 60.5176 10.9655 60.5176C11.4376 60.5176 11.8042 60.3352 12.0653 59.9705C12.3301 59.6057 12.4626 59.0718 12.4626 58.3689C12.4626 57.7458 12.3263 57.2518 12.0537 56.887C11.785 56.5223 11.4184 56.3399 10.9539 56.3399C10.4971 56.3399 10.1344 56.5204 9.86564 56.8813C9.59693 57.2385 9.46257 57.7743 9.46257 58.4886Z" fill="#00A651"/>
<path d="M16.8464 55.3425L16.8868 55.9865C17.3244 55.4812 17.9232 55.2285 18.6833 55.2285C19.5163 55.2285 20.0864 55.5439 20.3935 56.1746C20.8464 55.5439 21.4837 55.2285 22.3052 55.2285C22.9923 55.2285 23.5029 55.4166 23.8369 55.7927C24.1747 56.1689 24.3474 56.7237 24.3551 57.457V61.5093H22.9559V57.4969C22.9559 57.1055 22.8695 56.8187 22.6967 56.6363C22.524 56.4539 22.238 56.3627 21.8388 56.3627C21.5202 56.3627 21.2591 56.4482 21.0557 56.6192C20.856 56.7864 20.7159 57.0067 20.6353 57.2803L20.6411 61.5093H19.2418V57.4513C19.2226 56.7256 18.8484 56.3627 18.119 56.3627C17.5585 56.3627 17.1612 56.5888 16.9271 57.0409V61.5093H15.5278V55.3425H16.8464Z" fill="#00A651"/>
<path d="M27.5988 55.3425L27.6392 55.9865C28.0768 55.4812 28.6756 55.2285 29.4357 55.2285C30.2687 55.2285 30.8388 55.5439 31.1459 56.1746C31.5988 55.5439 32.2361 55.2285 33.0576 55.2285C33.7447 55.2285 34.2553 55.4166 34.5893 55.7927C34.9271 56.1689 35.0998 56.7237 35.1075 57.457V61.5093H33.7083V57.4969C33.7083 57.1055 33.6219 56.8187 33.4491 56.6363C33.2764 56.4539 32.9904 56.3627 32.5912 56.3627C32.2726 56.3627 32.0115 56.4482 31.8081 56.6192C31.6084 56.7864 31.4683 57.0067 31.3877 57.2803L31.3935 61.5093H29.9942V57.4513C29.975 56.7256 29.6008 56.3627 28.8714 56.3627C28.3109 56.3627 27.9136 56.5888 27.6795 57.0409V61.5093H26.2802V55.3425H27.5988Z" fill="#00A651"/>
<path d="M40.81 60.9052C40.3992 61.3839 39.8157 61.6233 39.0595 61.6233C38.3839 61.6233 37.8714 61.4276 37.5221 61.0363C37.1766 60.6449 37.0038 60.0788 37.0038 59.3378V55.3425H38.4031V59.3207C38.4031 60.1035 38.7313 60.4948 39.3877 60.4948C40.0672 60.4948 40.5259 60.2535 40.7639 59.771V55.3425H42.1631V61.5093H40.8445L40.81 60.9052Z" fill="#00A651"/>
<path d="M45.3781 55.3425L45.4184 56.0549C45.8791 55.504 46.4837 55.2285 47.2322 55.2285C48.5297 55.2285 49.19 55.9637 49.2131 57.4342V61.5093H47.8138V57.514C47.8138 57.1226 47.7274 56.8339 47.5547 56.6477C47.3858 56.4577 47.1075 56.3627 46.7198 56.3627C46.1555 56.3627 45.7351 56.6154 45.4587 57.1207V61.5093H44.0595V55.3425H45.3781Z" fill="#00A651"/>
<path d="M52.6238 61.5093H51.2246V55.3425H52.6238V61.5093ZM51.1382 53.7409C51.1382 53.5282 51.2054 53.3515 51.3397 53.2109C51.4779 53.0703 51.6737 53 51.9271 53C52.1804 53 52.3762 53.0703 52.5144 53.2109C52.6526 53.3515 52.7217 53.5282 52.7217 53.7409C52.7217 53.9499 52.6526 54.1247 52.5144 54.2653C52.3762 54.4021 52.1804 54.4705 51.9271 54.4705C51.6737 54.4705 51.4779 54.4021 51.3397 54.2653C51.2054 54.1247 51.1382 53.9499 51.1382 53.7409Z" fill="#00A651"/>
<path d="M56.3973 53.8435V55.3425H57.4971V56.3684H56.3973V59.8109C56.3973 60.0465 56.4434 60.2174 56.5355 60.3238C56.6315 60.4264 56.8004 60.4777 57.0422 60.4777C57.2035 60.4777 57.3666 60.4587 57.5317 60.4207V61.4922C57.2131 61.5796 56.9059 61.6233 56.6104 61.6233C55.5355 61.6233 54.9981 61.0363 54.9981 59.8622V56.3684H53.9731V55.3425H54.9981V53.8435H56.3973Z" fill="#00A651"/>
<path d="M61.2418 59.5259L62.5086 55.3425H64L61.524 62.444C61.144 63.4813 60.499 64 59.5892 64C59.3858 64 59.1612 63.9658 58.9155 63.8974V62.8259L59.1804 62.843C59.5336 62.843 59.7985 62.7784 59.975 62.6492C60.1555 62.5238 60.2975 62.3111 60.4011 62.0109L60.6027 61.4808L58.4146 55.3425H59.9232L61.2418 59.5259Z" fill="#00A651"/>
</svg>
