<svg xmlns="http://www.w3.org/2000/svg" viewBox="0 0 511 511" xmlns:v="https://vecta.io/nano"><path d="M252.81 7h6.11a51.5 51.5 0 0 1 17.46 4.65l13.28 6.38 140.63 67.48c4.81 2.31 9.71 4.47 14.4 7 13.13 7.07 20.88 18.16 24.16 32.62l16.93 73.62 23.9 104c3.37 14.84.29 28.38-9.29 40.29q-56.76 70.55-113.53 141.09c-5.7 7.09-12.19 13-20.71 16.41a49.48 49.48 0 0 1-18.73 3.5q-84.8-.07-169.59 0c-6.62 0-13.27.29-19.86-.17a43.32 43.32 0 0 1-18.19-5.69 46.29 46.29 0 0 1-13.52-11.39q-57.93-72-115.86-143.94A45.83 45.83 0 0 1 .11 310.19c.39-5.95 2.09-11.63 3.41-17.38q16.23-70.74 32.57-141.45l6.75-29C46.41 108.44 54.71 98 67.66 91.8l106.76-51.08L234.53 12a52.2 52.2 0 0 1 18.28-5zm2.91 481.24q45.84 0 91.69 0c11 0 19.76-4.26 26.66-12.86q36-44.91 72.14-89.65 21.36-26.53 42.72-53.06a30.57 30.57 0 0 0 6.19-27.24q-4-17.47-8-34.94l-32.57-141.62c-2.56-11.28-8.54-19.48-19-24.44L329.12 53.79Q299.54 39.72 270 25.65a32.79 32.79 0 0 0-28.84 0l-56.82 27.06q-54.48 26-109 52.06c-9.17 4.38-15.1 11.49-17.45 21.29l-12.83 55.35Q31 242.45 16.88 303.5a36.61 36.61 0 0 0-.88 13.79A34.4 34.4 0 0 0 23.64 334l36.72 45.49q38.76 48.13 77.49 96.26c6.83 8.51 15.65 12.52 26.5 12.51q45.65-.06 91.37-.01zM255.5 78.6A182.46 182.46 0 1 0 438 261.06 182.46 182.46 0 0 0 255.5 78.6zm128.79 84.46a3.58 3.58 0 1 1-.79 5 3.59 3.59 0 0 1 .79-5zm-36.58-35a3.58 3.58 0 1 1 .79 5 3.57 3.57 0 0 1-.79-5zm-41.11-24.28a3.58 3.58 0 1 1-4.51 2.3 3.58 3.58 0 0 1 4.51-2.3zm-51.1-8.09a3.58 3.58 0 1 1-3.58 3.58 3.58 3.58 0 0 1 3.58-3.58zm-51.1 8.09a3.58 3.58 0 1 1-2.3 4.51 3.58 3.58 0 0 1 2.3-4.51zm-46.1 23.49a3.58 3.58 0 1 1-.79 5 3.58 3.58 0 0 1 .79-5zm-36.59 36.58a3.58 3.58 0 1 1 .79 5 3.59 3.59 0 0 1-.79-5zm-28 100.79a3.58 3.58 0 1 1 3.58-3.58 3.58 3.58 0 0 1-3.58 3.58zm9 49.82A3.58 3.58 0 1 1 105 310a3.58 3.58 0 0 1-2.27 4.46zm-2.21-100a3.58 3.58 0 1 1 4.51-2.29 3.58 3.58 0 0 1-4.49 2.29zm26.19 144.59a3.58 3.58 0 1 1 .79-5 3.58 3.58 0 0 1-.77 5zm36.59 35a3.58 3.58 0 1 1-.79-5 3.57 3.57 0 0 1 .81 5zm41.1 24.28a3.58 3.58 0 1 1 4.51-2.29 3.58 3.58 0 0 1-4.49 2.29zm51.1 8.1a3.58 3.58 0 1 1 3.58-3.58 3.58 3.58 0 0 1-3.56 3.58zm51.1-8.1a3.58 3.58 0 1 1 2.3-4.51 3.58 3.58 0 0 1-2.28 4.51zm46.1-23.49a3.58 3.58 0 1 1 .8-5 3.56 3.56 0 0 1-.78 5zm36.59-36.58a3.58 3.58 0 1 1-.79-5 3.58 3.58 0 0 1 .81 5zm-133.79 49a146.2 146.2 0 1 1 146.22-146.2 146.2 146.2 0 0 1-146.2 146.19zm152.77-92.79a3.58 3.58 0 1 1 4.51-2.3 3.58 3.58 0 0 1-4.49 2.29zm2.21-100a3.58 3.58 0 1 1 2.3-4.51 3.58 3.58 0 0 1-2.28 4.5zm6.81 50.18a3.58 3.58 0 1 1 3.58-3.58 3.58 3.58 0 0 1-3.56 3.57z" fill="#326ce5"/><g opacity=".8" fill="#326ce5"><path d="M255.5 114.86a146.2 146.2 0 1 0 146.2 146.2 146.2 146.2 0 0 0-146.2-146.2zm76.59 152.48a76.47 76.47 0 0 1-18 43.44L341.3 338l-8.89 8.89-27.19-27.18a76.46 76.46 0 0 1-43.43 18v38.39h-12.58v-38.46a76.46 76.46 0 0 1-43.43-18l-27.18 27.21-8.89-8.85 27.18-27.18a76.47 76.47 0 0 1-17.61-40h-38.83v-12.95h38.31a76.45 76.45 0 0 1 18-46.4l-26.23-26.23 9.14-9.15 26.23 26.23a76.57 76.57 0 0 1 46.4-18V146h12.94v38.83a76.59 76.59 0 0 1 43.28 20.6l29.35-29.35 9.14 9.15-29.91 29.93a76.36 76.36 0 0 1 15 39.61h38.46v12.57zM216.25 309.2a61.79 61.79 0 0 0 33 13.67v-8.34a53.52 53.52 0 0 1-27.1-11.19zm-22.04-38.4a61.78 61.78 0 0 0 13.15 29.51l5.86-5.86a53.58 53.58 0 0 1-10.85-23.65zm58.1-63.53v-8.19a61.87 61.87 0 0 0-35.92 13.72l5.86 5.86a53.52 53.52 0 0 1 30.06-11.39zm-39.2 20.54l-5.86-5.81a61.77 61.77 0 0 0-13.72 35.92h8.18a53.6 53.6 0 0 1 11.4-30.11zm48.68 86.72v8.34a61.86 61.86 0 0 0 33-13.67l-5.87-5.86a53.48 53.48 0 0 1-27.13 11.19zm36.29-98.64a61.81 61.81 0 0 0-32.83-16.13v8.17a53.78 53.78 0 0 1 27.1 13.7zm2.67 15.62a53.67 53.67 0 0 1 8.25 23.26h8.34a61.76 61.76 0 0 0-10.76-29.07zm-2.97 62.94l5.87 5.86a61.86 61.86 0 0 0 13.67-33H309a53.53 53.53 0 0 1-11.22 27.14zm-31.42-33.39a10.86 10.86 0 1 0-10.86 10.86 10.86 10.86 0 0 0 10.86-10.86zm31.11-6.29a41.83 41.83 0 0 0-5.18-14.8 43 43 0 0 0-36.79-21.52c-1.09 0-2.11.24-3.19.32a42.19 42.19 0 0 0-21.91 8 42.87 42.87 0 0 0-9.15 9.14 42.27 42.27 0 0 0-8 21.92c-.08 1.07-.32 2.1-.32 3.19a43.45 43.45 0 0 0 8.47 25.24 42.81 42.81 0 0 0 8.89 8.89 42.49 42.49 0 0 0 50.48 0 42.81 42.81 0 0 0 8.89-8.89 39.35 39.35 0 0 0 7.84-31.53zm-75.89 6.29A33.92 33.92 0 1 1 255.5 295a34 34 0 0 1-33.92-33.94z"/></g></svg>