<svg xmlns="http://www.w3.org/2000/svg" width="64" height="64" fill="none" xmlns:v="https://vecta.io/nano"><path d="M31.391 0h.567a4.76 4.76 0 0 1 1.614.431l1.23.591 13.012 6.245 1.333.647a4.34 4.34 0 0 1 2.235 3.02l1.566 6.813 2.213 9.626a4.21 4.21 0 0 1 .017 1.968 4.2 4.2 0 0 1-.88 1.76L43.792 44.156a4.69 4.69 0 0 1-1.916 1.51c-.549.219-1.135.33-1.726.326H24.457c-.613 0-1.227.026-1.838-.015a4.04 4.04 0 0 1-1.683-.526c-.481-.268-.906-.626-1.251-1.055L8.966 31.077a4.23 4.23 0 0 1-.953-3.02 10.47 10.47 0 0 1 .315-1.609l3.02-13.088.624-2.681a4.15 4.15 0 0 1 2.297-2.83l9.878-4.724 5.552-2.67A4.83 4.83 0 0 1 31.391 0h0zm.27 44.529h8.484c.476.012.949-.089 1.378-.297a3.01 3.01 0 0 0 1.09-.894l6.675-8.295 3.952-4.91a2.83 2.83 0 0 0 .592-1.19c.1-.438.094-.894-.018-1.329l-.744-3.236-3.02-13.105a3.1 3.1 0 0 0-1.754-2.261L38.46 4.338l-5.475-2.604a3.02 3.02 0 0 0-2.666 0L25.06 4.236 14.979 9.053a2.84 2.84 0 0 0-1.042.794c-.281.342-.477.746-.574 1.178l-1.187 5.121-2.61 11.297a3.37 3.37 0 0 0-.08 1.277c.091.569.335 1.102.705 1.542l3.4 4.213 7.162 8.907c.288.373.66.673 1.087.874a2.97 2.97 0 0 0 1.366.282l8.454-.011zm-.02-37.906a16.88 16.88 0 0 0-9.381 2.845c-2.777 1.856-4.941 4.492-6.22 7.577a16.88 16.88 0 0 0-.962 9.756c.651 3.276 2.259 6.284 4.62 8.646s5.37 3.97 8.645 4.622a16.89 16.89 0 0 0 9.756-.96c3.086-1.277 5.722-3.442 7.578-6.219a16.88 16.88 0 0 0 2.846-9.381c0-4.478-1.779-8.772-4.945-11.939A16.88 16.88 0 0 0 31.64 6.624h0zm11.917 7.816c.053-.039.117-.061.182-.063s.131.014.187.049.101.085.128.144a.33.33 0 0 1-.058.365c-.045.049-.103.082-.166.098s-.131.011-.193-.011-.115-.063-.154-.117c-.051-.071-.072-.16-.059-.247a.33.33 0 0 1 .132-.217h0zm-3.385-3.236a.33.33 0 0 1 .593.142.33.33 0 0 1-.519.319.33.33 0 0 1-.089-.095c-.023-.037-.038-.079-.045-.122a.33.33 0 0 1 .06-.247v.002zM36.37 8.955c.062.02.118.058.158.11s.065.114.071.179a.33.33 0 0 1-.041.188c-.032.057-.08.104-.138.134s-.124.042-.19.035a.33.33 0 0 1-.177-.076c-.05-.042-.087-.099-.105-.162s-.017-.13.003-.193a.33.33 0 0 1 .062-.114.34.34 0 0 1 .102-.082c.039-.021.081-.033.125-.036s.088.001.13.015v.002zm-4.729-.749a.33.33 0 0 1 .307.205c.025.061.032.127.019.192s-.044.124-.091.17a.33.33 0 0 1-.17.091c-.064.013-.131.006-.192-.019a.33.33 0 0 1-.149-.122c-.036-.054-.056-.119-.056-.185a.33.33 0 0 1 .332-.334v.002zm-4.729.749c.063-.02.13-.021.193-.003s.119.055.162.105.069.112.076.177a.34.34 0 0 1-.035.19.33.33 0 0 1-.134.138c-.057.032-.123.046-.188.041s-.128-.03-.179-.071-.09-.096-.11-.158a.33.33 0 0 1 .216-.421v.002zm-4.267 2.174c.053-.039.117-.061.182-.064s.131.014.187.048a.34.34 0 0 1 .129.144.32.32 0 0 1 .026.191.33.33 0 0 1-.084.174c-.045.048-.103.082-.167.097s-.131.011-.193-.012-.115-.064-.154-.117a.33.33 0 0 1 .074-.464v.002zm-3.385 3.383c.039-.053.092-.094.154-.116s.129-.027.193-.011.122.049.166.098a.33.33 0 0 1-.07.509.34.34 0 0 1-.187.049.33.33 0 0 1-.182-.063c-.071-.052-.118-.13-.132-.217s.007-.175.058-.247h0zm-2.589 9.326a.33.33 0 0 1-.185-.055c-.055-.036-.098-.088-.123-.149s-.032-.128-.019-.192.044-.124.091-.171.106-.078.171-.091a.33.33 0 0 1 .341.142.33.33 0 0 1-.042.418.33.33 0 0 1-.233.097h0zm.835 4.61c-.063.02-.13.021-.193.003s-.12-.055-.162-.105-.069-.112-.076-.177a.34.34 0 0 1 .035-.19.32.32 0 0 1 .135-.138c.058-.031.123-.046.189-.04a.33.33 0 0 1 .303.36.34.34 0 0 1-.036.125.32.32 0 0 1-.082.101.33.33 0 0 1-.114.062h.002zm-.216-9.252a.33.33 0 0 1-.158-.11c-.041-.051-.065-.114-.071-.179s.009-.131.041-.188.08-.104.138-.134.124-.042.19-.035a.33.33 0 0 1 .177.076c.05.042.087.099.105.162s.017.13-.003.193c-.027.082-.085.151-.161.191s-.166.049-.249.025h-.009zm2.425 13.375a.33.33 0 0 1-.369.016c-.056-.034-.101-.084-.129-.144a.33.33 0 0 1 .058-.365c.045-.048.103-.082.167-.097a.33.33 0 0 1 .193.012c.062.023.115.064.154.117.026.035.046.075.057.117s.014.086.008.13a.33.33 0 0 1-.129.22l-.009-.004zm3.385 3.236c-.038.053-.092.094-.154.117s-.129.027-.193.012-.122-.049-.167-.097a.33.33 0 0 1-.084-.174c-.01-.065-.001-.132.026-.191a.33.33 0 0 1 .316-.192.33.33 0 0 1 .274.158c.024.037.04.079.048.123s.006.088-.003.132a.33.33 0 0 1-.054.12l-.009-.006zm3.803 2.248c-.063-.02-.118-.058-.159-.109s-.066-.114-.072-.179a.33.33 0 0 1 .04-.189c.032-.058.08-.105.138-.135s.125-.042.19-.035.127.034.177.076.087.099.105.162.017.13-.003.193a.33.33 0 0 1-.159.194c-.077.041-.166.052-.249.028l-.009-.007zm4.729.749c-.066 0-.13-.019-.185-.055s-.098-.088-.123-.149-.032-.128-.019-.192.045-.124.091-.171.106-.078.171-.091a.33.33 0 0 1 .341.142.34.34 0 0 1 .055.185c.001.087-.032.171-.092.234a.33.33 0 0 1-.23.102l-.009-.006zm4.729-.749c-.062.02-.13.021-.193.002s-.119-.055-.162-.105-.069-.112-.076-.177a.34.34 0 0 1 .035-.19.33.33 0 0 1 .134-.138c.057-.032.123-.046.188-.041s.128.03.179.071.09.096.11.158c.014.041.021.086.018.129a.33.33 0 0 1-.033.126c-.019.04-.046.075-.079.104s-.072.051-.113.065l-.009-.007zm4.265-2.175a.33.33 0 0 1-.519-.319.33.33 0 0 1 .593-.142.33.33 0 0 1-.065.468l-.009-.007zm3.387-3.385c-.038.053-.092.094-.154.117s-.129.027-.193.012a.33.33 0 0 1-.167-.097c-.045-.048-.074-.109-.084-.174a.33.33 0 0 1 .026-.191c.028-.06.072-.11.129-.144s.121-.051.187-.048a.33.33 0 0 1 .274.158.34.34 0 0 1 .048.122c.008.043.007.088-.003.132s-.028.084-.054.12l-.009-.006zm-12.38 4.53c-2.676 0-5.291-.793-7.516-2.28a13.52 13.52 0 0 1-4.982-6.071A13.53 13.53 0 0 1 36.81 10.999a13.53 13.53 0 0 1 8.351 12.498c.001 1.777-.347 3.536-1.026 5.178a13.53 13.53 0 0 1-7.317 7.327c-1.641.681-3.4 1.032-5.177 1.033l-.009-.011zm14.136-8.588c-.063-.02-.118-.058-.159-.109s-.066-.114-.072-.179a.33.33 0 0 1 .04-.189.34.34 0 0 1 .138-.135.32.32 0 0 1 .19-.035c.066.008.127.034.177.076s.087.099.105.162.017.13-.003.193a.33.33 0 0 1-.408.226l-.009-.011zm.205-9.252c-.063.02-.13.021-.193.003s-.12-.055-.162-.105-.069-.112-.076-.177a.34.34 0 0 1 .035-.19.32.32 0 0 1 .135-.138c.058-.031.123-.046.189-.04a.33.33 0 0 1 .179.072c.051.041.089.097.109.159a.34.34 0 0 1 .019.13c-.002.044-.014.087-.033.127a.33.33 0 0 1-.08.105.35.35 0 0 1-.114.066l-.009-.011zm.63 4.642a.33.33 0 0 1-.185-.055c-.055-.036-.098-.088-.123-.149s-.032-.128-.02-.192a.33.33 0 0 1 .262-.262.33.33 0 0 1 .341.142.34.34 0 0 1 .055.185c.002.088-.03.173-.09.237a.33.33 0 0 1-.231.104l-.009-.011z" fill="#326ce5"/><path opacity=".64" d="M31.641 9.979a13.53 13.53 0 0 0-9.566 23.094 13.53 13.53 0 0 0 23.094-9.565A13.53 13.53 0 0 0 31.641 9.979zm7.087 14.108c-.118 1.481-.7 2.888-1.663 4.019l2.515 2.515-.822.824-2.515-2.515c-1.132.962-2.538 1.544-4.019 1.663v3.557h-1.165v-3.557c-1.481-.119-2.887-.701-4.019-1.663l-2.515 2.515-.822-.824 2.515-2.515a7.08 7.08 0 0 1-1.631-3.706h-3.6v-1.197h3.544c.062-1.578.649-3.089 1.668-4.295l-2.407-2.418.846-.846 2.427 2.427c1.205-1.018 2.716-1.604 4.293-1.665v-3.544h1.197v3.592a7.08 7.08 0 0 1 3.993 1.907l2.716-2.716.848.846-2.77 2.77a7.05 7.05 0 0 1 1.387 3.667h3.559v1.163l-3.559-.002zm-10.72 3.875a5.74 5.74 0 0 0 3.05 1.264v-.772a4.93 4.93 0 0 1-2.507-1.036l-.544.544zM25.97 24.4a5.71 5.71 0 0 0 1.217 2.729l.542-.541a4.96 4.96 0 0 1-1.003-2.187h-.755zm5.371-5.872v-.757a5.73 5.73 0 0 0-3.324 1.271l.544.542a4.96 4.96 0 0 1 2.781-1.055zm-3.624 1.901l-.541-.541c-.766.945-1.211 2.109-1.268 3.324h.757a4.96 4.96 0 0 1 1.053-2.783h0zm4.506 8.025v.772a5.74 5.74 0 0 0 3.05-1.264l-.544-.541c-.723.572-1.591.93-2.507 1.033h0zm3.357-9.127c-.839-.792-1.898-1.312-3.037-1.493v.757a4.96 4.96 0 0 1 2.507 1.266l.531-.531zm.248 1.445a4.96 4.96 0 0 1 .761 2.157h.77a5.69 5.69 0 0 0-.994-2.69l-.537.533zm-.274 5.824l.541.541a5.71 5.71 0 0 0 1.264-3.05h-.77a4.96 4.96 0 0 1-1.035 2.509h0zm-2.908-3.089a1.01 1.01 0 0 0-.169-.559c-.11-.166-.267-.294-.451-.37s-.386-.096-.581-.057-.374.134-.515.275-.236.32-.275.515-.019.397.057.581a1 1 0 0 0 .37.451 1.01 1.01 0 0 0 1.269-.125 1 1 0 0 0 .294-.711h0zm2.878-.582a3.98 3.98 0 0 0-1.227-2.312c-.727-.663-1.672-1.036-2.655-1.048-.101 0-.196.021-.296.03-.937.067-1.819.47-2.483 1.134s-1.067 1.546-1.134 2.483c0 .099-.03.194-.03.296.011.841.285 1.658.785 2.334a3.97 3.97 0 0 0 .822.824 3.9 3.9 0 0 0 1.754.725 2.93 2.93 0 0 0 1.165 0 3.91 3.91 0 0 0 1.754-.725 3.97 3.97 0 0 0 .822-.824 3.9 3.9 0 0 0 .725-1.754 2.92 2.92 0 0 0 0-1.163zm-7.022.582a3.14 3.14 0 0 1 5.357-2.222 3.14 3.14 0 0 1-2.219 5.359 3.14 3.14 0 0 1-3.139-3.137z" fill="#326ce5"/><path d="M6.662 58.808c-.084.885-.415 1.577-.99 2.075s-1.342.741-2.297.741c-.668 0-1.257-.156-1.768-.467s-.898-.762-1.175-1.339S.012 58.57 0 57.806v-.775c0-.783.14-1.472.42-2.069s.681-1.056 1.203-1.379 1.132-.484 1.82-.484c.925 0 1.67.249 2.234.747s.893 1.201.985 2.109H5.211c-.069-.596-.246-1.026-.53-1.288s-.693-.399-1.238-.399c-.633 0-1.121.23-1.463.69s-.511 1.127-.518 2.012v.735c0 .897.161 1.581.484 2.052s.802.707 1.428.707c.572 0 1.002-.127 1.29-.382s.47-.678.547-1.271h1.451zm1.401-.439c0-.604.121-1.147.363-1.63a2.61 2.61 0 0 1 1.019-1.117c.438-.262.941-.393 1.509-.393.841 0 1.522.268 2.044.804s.81 1.246.852 2.132l.006.325c0 .608-.119 1.151-.357 1.63s-.572.849-1.013 1.111-.944.393-1.52.393c-.879 0-1.584-.289-2.113-.866s-.789-1.355-.789-2.32v-.068zm1.399.12c0 .635.132 1.132.397 1.493s.633.536 1.106.536.839-.182 1.1-.547.397-.899.397-1.602c0-.623-.136-1.117-.409-1.482a1.29 1.29 0 0 0-1.1-.547c-.457 0-.82.181-1.088.541s-.403.893-.403 1.607zm7.384-3.146l.04.644c.438-.505 1.036-.758 1.796-.758.833 0 1.403.315 1.71.946.453-.631 1.09-.946 1.912-.946.687 0 1.198.188 1.532.564s.511.931.518 1.664v4.052h-1.399v-4.012c0-.391-.086-.678-.259-.861s-.459-.274-.858-.274c-.319 0-.58.086-.783.257a1.32 1.32 0 0 0-.42.661l.006 4.229h-1.399v-4.058c-.019-.726-.393-1.089-1.123-1.089-.561 0-.958.226-1.192.678v4.468h-1.399v-6.167h1.319zm10.753 0l.04.644c.438-.505 1.036-.758 1.797-.758.833 0 1.403.315 1.71.946.453-.631 1.09-.946 1.912-.946.687 0 1.198.188 1.532.564s.511.931.518 1.664v4.052h-1.399v-4.012c0-.391-.086-.678-.259-.861s-.459-.274-.858-.274c-.319 0-.58.086-.783.257a1.32 1.32 0 0 0-.42.661l.006 4.229h-1.399v-4.058c-.019-.726-.393-1.089-1.123-1.089-.561 0-.958.226-1.192.678v4.468H26.28v-6.167h1.319zm13.211 5.562c-.411.479-.994.718-1.751.718-.676 0-1.188-.196-1.537-.587s-.518-.957-.518-1.698v-3.995h1.399v3.978c0 .783.328 1.174.985 1.174.679 0 1.138-.241 1.376-.724v-4.428h1.399v6.167h-1.319l-.034-.604zm4.568-5.562l.04.712c.461-.551 1.065-.826 1.814-.826 1.297 0 1.958.735 1.981 2.206v4.075h-1.399v-3.995c0-.391-.086-.68-.259-.866s-.447-.285-.835-.285c-.564 0-.985.253-1.261.758v4.389H44.06v-6.167h1.319zm7.246 6.166h-1.399v-6.167h1.399v6.167zm-1.486-7.768c0-.213.067-.389.202-.53s.334-.211.587-.211.449.07.587.211.207.317.207.53a.71.71 0 0 1-.207.524c-.138.14-.334.205-.587.205s-.449-.068-.587-.205a.73.73 0 0 1-.202-.524zm5.259.103v1.499h1.1v1.026h-1.1v3.442c0 .236.046.407.138.513s.265.154.507.154c.161 0 .324-.019.489-.057v1.072a3.48 3.48 0 0 1-.921.131c-1.075 0-1.612-.587-1.612-1.761v-3.494h-1.025v-1.026h1.025v-1.499h1.399zm4.845 5.682l1.267-4.183H64l-2.476 7.102C61.144 63.481 60.499 64 59.589 64a2.53 2.53 0 0 1-.674-.103v-1.072l.265.017c.353 0 .618-.065.795-.194s.322-.338.426-.638l.202-.53-2.188-6.138h1.509l1.319 4.183z" fill="#00a651"/></svg>