<svg id="Layer_1" data-name="Layer 1" xmlns="http://www.w3.org/2000/svg" viewBox="0 0 1279 639"><defs><style>.cls-1{fill:#326ce5;}.cls-2{opacity:0.8;}</style></defs><title>kubevault-1280x640</title><path class="cls-1" d="M638.27,109.1h2.8a23.79,23.79,0,0,1,8,2.13c2,1,4.05,2,6.08,2.92L719.46,145c2.2,1.06,4.44,2,6.59,3.2a21.49,21.49,0,0,1,11.05,14.93c2.55,11.23,5.16,22.45,7.74,33.67,3.66,15.87,7.34,31.72,10.94,47.59a20.78,20.78,0,0,1-4.25,18.43q-26,32.28-51.94,64.55a23.41,23.41,0,0,1-9.47,7.51,22.8,22.8,0,0,1-8.57,1.6q-38.79,0-77.58,0c-3,0-6.07.14-9.09-.08a19.67,19.67,0,0,1-8.32-2.6,21.07,21.07,0,0,1-6.18-5.21q-26.5-32.91-53-65.85a20.91,20.91,0,0,1-4.71-14.94,48.8,48.8,0,0,1,1.56-7.95q7.42-32.35,14.9-64.71c1-4.42,2-8.86,3.09-13.26a20.52,20.52,0,0,1,11.35-14q24.39-11.76,48.84-23.37l27.5-13.14A24.08,24.08,0,0,1,638.27,109.1Zm1.33,220.15h41.95a14.8,14.8,0,0,0,12.19-5.88q16.46-20.53,33-41,9.78-12.14,19.54-24.27a14,14,0,0,0,2.84-12.47q-1.83-8-3.68-16-7.47-32.38-14.9-64.79a15.3,15.3,0,0,0-8.67-11.17L673.18,130.5q-13.53-6.44-27.06-12.87a15,15,0,0,0-13.19,0c-8.71,4-17.34,8.24-26,12.38Q582,141.91,557.09,153.82a14,14,0,0,0-8,9.74c-2,8.42-3.92,16.87-5.87,25.32q-6.43,27.93-12.89,55.85a16.86,16.86,0,0,0-.4,6.31,15.73,15.73,0,0,0,3.49,7.63q8.45,10.38,16.8,20.83,17.73,22,35.45,44a14.71,14.71,0,0,0,12.12,5.72Z"/><path class="cls-1" d="M639.5,141.85A83.47,83.47,0,1,0,723,225.32,83.47,83.47,0,0,0,639.5,141.85Zm58.92,38.64a1.64,1.64,0,1,1-.36,2.28A1.63,1.63,0,0,1,698.42,180.49Zm-16.74-16a1.64,1.64,0,1,1,.36,2.28A1.64,1.64,0,0,1,681.68,164.48Zm-18.8-11.11a1.63,1.63,0,1,1-2.07,1A1.63,1.63,0,0,1,662.88,153.37Zm-23.38-3.7a1.64,1.64,0,1,1-1.64,1.63A1.64,1.64,0,0,1,639.5,149.67Zm-23.38,3.7a1.63,1.63,0,1,1-1,2.06A1.64,1.64,0,0,1,616.12,153.37ZM595,164.11a1.64,1.64,0,1,1-.36,2.29A1.63,1.63,0,0,1,595,164.11ZM578.3,180.85a1.64,1.64,0,1,1,.36,2.29A1.63,1.63,0,0,1,578.3,180.85ZM565.49,227a1.64,1.64,0,1,1,1.63-1.63A1.63,1.63,0,0,1,565.49,227Zm4.12,22.8a1.64,1.64,0,1,1,1.06-2.07A1.65,1.65,0,0,1,569.61,249.75Zm-1-45.75a1.63,1.63,0,1,1,2.07-1.05A1.63,1.63,0,0,1,568.6,204Zm12,66.15a1.64,1.64,0,0,1-1.92-2.65,1.64,1.64,0,1,1,1.92,2.65Zm16.74,16a1.64,1.64,0,1,1-.36-2.29A1.64,1.64,0,0,1,597.32,286.16Zm18.8,11.11a1.64,1.64,0,1,1,2.07-1.06A1.64,1.64,0,0,1,616.12,297.27ZM639.5,301a1.64,1.64,0,1,1,1.64-1.64A1.64,1.64,0,0,1,639.5,301Zm23.38-3.7a1.64,1.64,0,1,1-1-3.12,1.64,1.64,0,0,1,1,3.12ZM684,286.52a1.64,1.64,0,1,1,.36-2.29A1.64,1.64,0,0,1,684,286.52Zm16.73-16.74a1.63,1.63,0,1,1-.36-2.28A1.62,1.62,0,0,1,700.7,269.78ZM639.5,292.2a66.88,66.88,0,1,1,66.88-66.88A66.88,66.88,0,0,1,639.5,292.2Zm69.89-42.45a1.64,1.64,0,1,1,2.06-1.06A1.64,1.64,0,0,1,709.39,249.75Zm1-45.75a1.63,1.63,0,1,1,1.05-2.06A1.63,1.63,0,0,1,710.4,204ZM713.51,227a1.64,1.64,0,1,1,1.64-1.63A1.63,1.63,0,0,1,713.51,227Z"/><g class="cls-2"><path class="cls-1" d="M639.5,158.44a66.88,66.88,0,1,0,66.88,66.88A66.88,66.88,0,0,0,639.5,158.44Zm35,69.75a35,35,0,0,1-8.23,19.87l12.44,12.44-4.07,4.07-12.43-12.44a35,35,0,0,1-19.87,8.22V278h-5.76v-17.6a35,35,0,0,1-19.87-8.22l-12.43,12.44-4.07-4.07,12.44-12.44a35,35,0,0,1-8.06-18.29H586.87v-5.91h17.52a35,35,0,0,1,8.24-21.23l-12-12,4.19-4.18,12,12A35,35,0,0,1,638,190.21V172.69H644v17.76a35,35,0,0,1,19.8,9.43l13.43-13.43,4.18,4.18-13.69,13.69a34.92,34.92,0,0,1,6.86,18.12h17.59v5.75Z"/><path class="cls-1" d="M621.54,247.34a28.34,28.34,0,0,0,15.08,6.26v-3.82a24.48,24.48,0,0,1-12.39-5.12Z"/><path class="cls-1" d="M611.46,229.77a28.21,28.21,0,0,0,6,13.5l2.68-2.68a24.47,24.47,0,0,1-5-10.82Z"/><path class="cls-1" d="M638,200.71V197a28.27,28.27,0,0,0-16.43,6.27l2.68,2.68A24.48,24.48,0,0,1,638,200.71Z"/><path class="cls-1" d="M620.11,210.11l-2.68-2.68a28.28,28.28,0,0,0-6.28,16.43h3.74A24.49,24.49,0,0,1,620.11,210.11Z"/><path class="cls-1" d="M642.38,249.78v3.82a28.34,28.34,0,0,0,15.08-6.26l-2.68-2.68A24.55,24.55,0,0,1,642.38,249.78Z"/><path class="cls-1" d="M659,204.65a28.28,28.28,0,0,0-15-7.37V201a24.64,24.64,0,0,1,12.4,6.27Z"/><path class="cls-1" d="M660.2,211.8A24.38,24.38,0,0,1,664,222.44h3.82a28.24,28.24,0,0,0-4.92-13.3Z"/><path class="cls-1" d="M658.84,240.59l2.69,2.68a28.29,28.29,0,0,0,6.25-15.08H664A24.39,24.39,0,0,1,658.84,240.59Z"/><path class="cls-1" d="M644.47,225.32a5,5,0,1,0-5,5A5,5,0,0,0,644.47,225.32Z"/><path class="cls-1" d="M658.7,222.44a19.23,19.23,0,0,0-2.37-6.77,19.66,19.66,0,0,0-16.83-9.84c-.5,0-1,.11-1.46.14a19.34,19.34,0,0,0-10,3.68,19.77,19.77,0,0,0-4.19,4.18,19.28,19.28,0,0,0-3.67,10c0,.49-.15,1-.15,1.46a19.78,19.78,0,0,0,3.88,11.54,18.5,18.5,0,0,0,18.49,7.66,19.38,19.38,0,0,0,8.67-3.59,19.87,19.87,0,0,0,4.07-4.07A21.22,21.22,0,0,0,659,225.32,19.51,19.51,0,0,0,658.7,222.44ZM624,225.32a15.52,15.52,0,1,1,15.52,15.51A15.53,15.53,0,0,1,624,225.32Z"/></g><path class="cls-1" d="M291.09,527.45l-39.24-56.74v56.74h-28V404.85h28v53.24l37.49-53.24h31.87l-41.33,59.72L323,527.45Z"/><path class="cls-1" d="M412,439.88v87.57H385.68v-8.23c-4.73,6.48-13.48,10.69-25,10.69-17.69,0-32.76-12.62-32.76-36.26V439.88h26.28V489.8c0,10.85,6.83,15.93,15.23,15.93,9.64,0,16.29-5.6,16.29-18V439.88Z"/><path class="cls-1" d="M525.46,483.67c0,26.09-18.91,46.24-41.86,46.24-11.73,0-20.31-4-26.09-10.69v8.23H431.23V404.85h26.28v43.26c5.78-6.65,14.36-10.68,26.09-10.68C506.55,437.43,525.46,457.57,525.46,483.67Zm-26.27,0c0-13.14-8.76-21.37-20.84-21.37s-20.84,8.23-20.84,21.37S466.26,505,478.35,505,499.19,496.8,499.19,483.67Z"/><path class="cls-1" d="M584.85,506.44c7.18,0,13.31-2.81,16.81-6.66l21,12.08c-8.58,11.92-21.55,18-38.18,18-30,0-48.51-20.15-48.51-46.24s18.91-46.24,46.58-46.24c25.57,0,44.48,19.79,44.48,46.24a51,51,0,0,1-1,10.51H563.83C567.16,503.28,575.21,506.44,584.85,506.44ZM601,474.56c-2.8-10.16-10.68-13.84-18.57-13.84-10,0-16.63,4.91-19.08,13.84Z"/><path class="cls-1" d="M632.32,404.85H663l27.15,90.2,27.15-90.2h30.65L708,527.45H672.25Z"/><path class="cls-1" d="M836.91,439.88v87.57H810.63v-8.23c-5.78,6.65-14.36,10.69-26.09,10.69-22.95,0-41.86-20.15-41.86-46.24s18.91-46.24,41.86-46.24c11.73,0,20.31,4,26.09,10.68v-8.23Zm-26.28,43.79c0-13.14-8.75-21.37-20.84-21.37S769,470.53,769,483.67,777.7,505,789.79,505,810.63,496.8,810.63,483.67Z"/><path class="cls-1" d="M939,439.88v87.57H912.76v-8.23c-4.73,6.48-13.49,10.69-25,10.69C870,529.91,855,517.29,855,493.65V439.88h26.27V489.8c0,10.85,6.83,15.93,15.24,15.93,9.63,0,16.29-5.6,16.29-18V439.88Z"/><path class="cls-1" d="M958.31,399.6h26.27V527.45H958.31Z"/><path class="cls-1" d="M1037.13,465.1v31c0,7.53,6.48,8.24,18,7.53v23.82c-34.33,3.5-44.31-6.83-44.31-31.35v-31h-14V439.88h14V423.24l26.27-7.88v24.52h18V465.1Z"/></svg>