<svg id="Layer_1" data-name="Layer 1" xmlns="http://www.w3.org/2000/svg" viewBox="0 0 511 511"><defs><style>.cls-1{fill:#326ce5;}.cls-2{opacity:0.8;}</style></defs><title>kubevault-512x512</title><path class="cls-1" d="M252.81,7h6.11a51.5,51.5,0,0,1,17.46,4.65c4.41,2.15,8.85,4.26,13.28,6.38L430.29,85.51c4.81,2.31,9.71,4.47,14.4,7,13.13,7.07,20.88,18.16,24.16,32.62,5.57,24.56,11.28,49.08,16.93,73.62,8,34.67,16,69.33,23.9,104,3.37,14.84.29,28.38-9.29,40.29q-56.76,70.55-113.53,141.09c-5.7,7.09-12.19,13-20.71,16.41a49.48,49.48,0,0,1-18.73,3.5q-84.8-.07-169.59,0c-6.62,0-13.27.29-19.86-.17a43.32,43.32,0,0,1-18.19-5.69,46.29,46.29,0,0,1-13.52-11.39q-57.93-72-115.86-143.94A45.83,45.83,0,0,1,.11,310.19c.39-5.95,2.09-11.63,3.41-17.38q16.23-70.74,32.57-141.45c2.23-9.67,4.29-19.38,6.75-29C46.41,108.44,54.71,98,67.66,91.8c35.54-17.14,71.17-34.07,106.76-51.08L234.53,12A52.2,52.2,0,0,1,252.81,7Zm2.91,481.24q45.84,0,91.69,0c11,0,19.76-4.26,26.66-12.86q36-44.91,72.14-89.65,21.36-26.53,42.72-53.06a30.57,30.57,0,0,0,6.19-27.24q-4-17.47-8-34.94c-10.88-47.2-21.85-94.38-32.57-141.62-2.56-11.28-8.54-19.48-19-24.44L329.12,53.79Q299.54,39.72,270,25.65a32.79,32.79,0,0,0-28.84,0c-19,8.81-37.89,18-56.82,27.06q-54.48,26-109,52.06c-9.17,4.38-15.1,11.49-17.45,21.29-4.43,18.41-8.58,36.89-12.83,55.35Q31,242.45,16.88,303.5A36.61,36.61,0,0,0,16,317.29,34.4,34.4,0,0,0,23.64,334C36,349.08,48.13,364.31,60.36,379.49q38.76,48.13,77.49,96.26c6.83,8.51,15.65,12.52,26.5,12.51Q210,488.2,255.72,488.25Z"/><path class="cls-1" d="M255.5,78.6A182.46,182.46,0,1,0,438,261.06,182.46,182.46,0,0,0,255.5,78.6Zm128.79,84.46a3.58,3.58,0,1,1-.79,5A3.59,3.59,0,0,1,384.29,163.06Zm-36.58-35a3.58,3.58,0,1,1,.79,5A3.57,3.57,0,0,1,347.71,128.06ZM306.6,103.78a3.58,3.58,0,1,1-4.51,2.3A3.58,3.58,0,0,1,306.6,103.78Zm-51.1-8.09a3.58,3.58,0,1,1-3.58,3.58A3.58,3.58,0,0,1,255.5,95.69Zm-51.1,8.09a3.58,3.58,0,1,1-2.3,4.51A3.58,3.58,0,0,1,204.4,103.78Zm-46.1,23.49a3.58,3.58,0,1,1-.79,5A3.58,3.58,0,0,1,158.3,127.27Zm-36.59,36.58a3.58,3.58,0,1,1,.79,5A3.59,3.59,0,0,1,121.71,163.85Zm-28,100.79a3.58,3.58,0,1,1,3.58-3.58A3.58,3.58,0,0,1,93.71,264.64Zm9,49.82A3.58,3.58,0,1,1,105,310,3.58,3.58,0,0,1,102.73,314.46Zm-2.21-100a3.58,3.58,0,1,1,4.51-2.29A3.58,3.58,0,0,1,100.52,214.46Zm26.19,144.59a3.58,3.58,0,1,1,.79-5A3.58,3.58,0,0,1,126.71,359.05Zm36.59,35a3.58,3.58,0,1,1-.79-5A3.57,3.57,0,0,1,163.3,394.05Zm41.1,24.28a3.58,3.58,0,1,1,4.51-2.29A3.58,3.58,0,0,1,204.4,418.33Zm51.1,8.1a3.58,3.58,0,1,1,3.58-3.58A3.58,3.58,0,0,1,255.5,426.43Zm51.1-8.1a3.58,3.58,0,1,1,2.3-4.51A3.58,3.58,0,0,1,306.6,418.33Zm46.1-23.49a3.58,3.58,0,1,1,.8-5A3.56,3.56,0,0,1,352.7,394.84Zm36.59-36.58a3.58,3.58,0,1,1-.79-5A3.58,3.58,0,0,1,389.29,358.26Zm-133.79,49A146.2,146.2,0,1,1,401.7,261.06,146.2,146.2,0,0,1,255.5,407.25Zm152.77-92.79a3.58,3.58,0,1,1,4.51-2.3A3.58,3.58,0,0,1,408.27,314.46Zm2.21-100a3.58,3.58,0,1,1,2.3-4.51A3.58,3.58,0,0,1,410.48,214.46Zm6.81,50.18a3.58,3.58,0,1,1,3.58-3.58A3.58,3.58,0,0,1,417.29,264.64Z"/><g class="cls-2"><path class="cls-1" d="M255.5,114.86a146.2,146.2,0,1,0,146.2,146.2A146.2,146.2,0,0,0,255.5,114.86Zm76.59,152.48a76.47,76.47,0,0,1-18,43.44L341.3,338l-8.89,8.89-27.19-27.18a76.46,76.46,0,0,1-43.43,18V376.1H249.21V337.64a76.46,76.46,0,0,1-43.43-18L178.6,346.85,169.71,338l27.18-27.18a76.47,76.47,0,0,1-17.61-40H140.45V257.87h38.31a76.45,76.45,0,0,1,18-46.4l-26.23-26.23,9.14-9.15,26.23,26.23a76.57,76.57,0,0,1,46.4-18V146h12.94v38.83a76.59,76.59,0,0,1,43.28,20.6l29.35-29.35,9.14,9.15L317.1,215.16a76.36,76.36,0,0,1,15,39.61h38.46v12.57Z"/><path class="cls-1" d="M216.25,309.2a61.79,61.79,0,0,0,33,13.67v-8.34a53.52,53.52,0,0,1-27.1-11.19Z"/><path class="cls-1" d="M194.21,270.8a61.78,61.78,0,0,0,13.15,29.51l5.86-5.86a53.58,53.58,0,0,1-10.85-23.65Z"/><path class="cls-1" d="M252.31,207.27v-8.19a61.87,61.87,0,0,0-35.92,13.72l5.86,5.86A53.52,53.52,0,0,1,252.31,207.27Z"/><path class="cls-1" d="M213.11,227.81,207.25,222a61.77,61.77,0,0,0-13.72,35.92h8.18A53.6,53.6,0,0,1,213.11,227.81Z"/><path class="cls-1" d="M261.79,314.53v8.34a61.86,61.86,0,0,0,33-13.67l-5.87-5.86A53.48,53.48,0,0,1,261.79,314.53Z"/><path class="cls-1" d="M298.08,215.89a61.81,61.81,0,0,0-32.83-16.13v8.17a53.78,53.78,0,0,1,27.1,13.7Z"/><path class="cls-1" d="M300.75,231.51A53.67,53.67,0,0,1,309,254.77h8.34a61.76,61.76,0,0,0-10.76-29.07Z"/><path class="cls-1" d="M297.78,294.45l5.87,5.86a61.86,61.86,0,0,0,13.67-33H309A53.53,53.53,0,0,1,297.78,294.45Z"/><path class="cls-1" d="M266.36,261.06a10.86,10.86,0,1,0-10.86,10.86A10.86,10.86,0,0,0,266.36,261.06Z"/><path class="cls-1" d="M297.47,254.77a41.83,41.83,0,0,0-5.18-14.8,43,43,0,0,0-36.79-21.52c-1.09,0-2.11.24-3.19.32a42.19,42.19,0,0,0-21.91,8,42.87,42.87,0,0,0-9.15,9.14,42.27,42.27,0,0,0-8,21.92c-.08,1.07-.32,2.1-.32,3.19a43.45,43.45,0,0,0,8.47,25.24,42.81,42.81,0,0,0,8.89,8.89,42.49,42.49,0,0,0,50.48,0,42.81,42.81,0,0,0,8.89-8.89,39.35,39.35,0,0,0,7.84-31.53Zm-75.89,6.29A33.92,33.92,0,1,1,255.5,295,34,34,0,0,1,221.58,261.06Z"/></g></svg>