<svg xmlns="http://www.w3.org/2000/svg" width="148" height="46" fill="none" xmlns:v="https://vecta.io/nano"><path d="M15.255 0h.37a3.1 3.1 0 0 1 1.052.281l.802.385 8.486 4.073.87.422c.375.198.7.478.953.819a2.82 2.82 0 0 1 .505 1.151l1.021 4.443 1.444 6.278a2.74 2.74 0 0 1-.563 2.431l-6.852 8.514a3.06 3.06 0 0 1-1.249.985 2.97 2.97 0 0 1-1.125.212H10.733c-.4 0-.801.017-1.199-.01-.387-.032-.761-.149-1.097-.343a2.8 2.8 0 0 1-.816-.688L.63 20.268a2.76 2.76 0 0 1-.622-1.97c.041-.355.11-.706.205-1.049l1.97-8.536.407-1.749a2.71 2.71 0 0 1 1.498-1.846l6.442-3.081 3.621-1.74A3.15 3.15 0 0 1 15.255 0zm.176 29.041h5.533a1.95 1.95 0 0 0 1.61-.777l4.353-5.409 2.577-3.202a1.84 1.84 0 0 0 .374-1.643l-.485-2.11-1.97-8.547a2.02 2.02 0 0 0-1.144-1.474L19.865 2.83l-3.571-1.698a1.97 1.97 0 0 0-1.739 0l-3.43 1.632-6.574 3.142a1.85 1.85 0 0 0-1.054 1.286l-.774 3.34L1.021 17.9c-.07.272-.088.554-.052.833a2.08 2.08 0 0 0 .46 1.006l2.217 2.748 4.671 5.809a1.94 1.94 0 0 0 1.6.754l5.514-.007zm-.013-24.722A11.01 11.01 0 0 0 7.63 23.117a11.01 11.01 0 0 0 18.799-7.786 11.01 11.01 0 0 0-11.01-11.012zm7.772 5.097c.035-.025.076-.04.119-.041s.085.009.122.032.066.055.084.094.024.082.017.125-.026.082-.055.113a.22.22 0 0 1-.109.064c-.042.01-.085.007-.126-.007s-.075-.041-.1-.076a.22.22 0 0 1-.038-.161c.009-.057.04-.107.086-.141zm-2.207-2.11c.025-.034.06-.061.1-.075s.083-.017.125-.007.079.032.108.063.048.07.055.112.001.085-.017.124-.047.071-.083.093-.078.033-.121.032-.084-.016-.118-.041c-.023-.017-.043-.038-.058-.062s-.025-.051-.029-.079-.003-.057.004-.085.019-.054.036-.077v.001zm-2.48-1.466c.041.013.077.038.103.072s.043.074.046.117-.006.085-.026.123-.052.068-.09.088-.081.028-.124.023a.21.21 0 0 1-.115-.05c-.032-.028-.056-.064-.068-.105s-.011-.085.002-.126a.22.22 0 0 1 .041-.075c.019-.022.041-.04.066-.053a.23.23 0 0 1 .082-.024c.029-.003.057.001.084.01v.001zm-3.084-.488c.043 0 .085.013.12.037a.23.23 0 0 1 .08.097c.017.039.021.083.012.125s-.029.081-.059.111-.069.051-.111.059-.086.004-.125-.012a.21.21 0 0 1-.097-.08c-.023-.036-.037-.078-.037-.12a.22.22 0 0 1 .016-.084c.011-.027.027-.051.047-.071s.044-.036.071-.047.055-.016.083-.016v.001zm-3.084.488c.041-.013.085-.014.126-.002s.078.036.105.068.045.073.05.115-.003.086-.023.124-.05.069-.088.09-.08.03-.123.026-.083-.02-.117-.046-.059-.063-.072-.103c-.009-.027-.013-.056-.011-.085a.21.21 0 0 1 .023-.082c.013-.025.031-.048.053-.067s.047-.032.075-.041v.001zM9.551 7.258c.035-.025.076-.04.119-.042s.085.009.122.031.066.055.084.094.024.082.017.125-.026.082-.055.113-.067.054-.109.063-.086.007-.126-.008-.075-.042-.1-.077c-.034-.046-.048-.104-.039-.161s.04-.108.087-.141v.001zM7.344 9.464c.025-.035.06-.061.1-.076s.084-.017.126-.007.079.032.109.064.048.071.055.113.001.086-.017.125-.047.072-.084.094-.079.033-.122.032-.084-.016-.119-.041a.22.22 0 0 1-.048-.302zm-1.688 6.082c-.043 0-.085-.012-.121-.036a.21.21 0 0 1-.08-.097c-.016-.04-.021-.083-.013-.126s.029-.081.059-.111.069-.051.111-.059.086-.004.125.013.073.044.097.08.036.078.036.121c0 .057-.023.111-.063.152s-.095.063-.152.063zm.544 3.006c-.041.013-.085.014-.126.002a.22.22 0 0 1-.106-.069c-.028-.033-.045-.073-.05-.116s.003-.086.023-.124.05-.07.088-.09a.22.22 0 0 1 .123-.026.22.22 0 0 1 .117.047c.034.027.058.063.071.104a.2.2 0 0 1 .009.084.23.23 0 0 1-.024.081c-.013.025-.031.048-.053.066s-.047.032-.075.04H6.2zm-.141-6.034c-.041-.013-.077-.038-.103-.072s-.043-.074-.046-.117.006-.085.026-.123.052-.068.09-.088a.22.22 0 0 1 .124-.023c.043.004.083.022.115.05s.057.064.068.106.011.085-.002.126c-.017.054-.055.098-.105.125s-.108.032-.162.016h-.006zm1.581 8.723c-.035.025-.076.04-.119.042s-.085-.009-.122-.032-.066-.055-.084-.094-.024-.082-.017-.125.026-.082.055-.113.067-.053.109-.063.086-.007.126.008.075.042.1.077c.017.023.03.049.037.076s.009.056.005.084-.013.055-.028.08-.034.046-.056.063l-.006-.003zm2.207 2.11c-.025.035-.06.061-.1.077s-.084.018-.126.008-.08-.032-.109-.063-.048-.071-.055-.113-.001-.086.017-.125.047-.072.084-.094.079-.033.122-.031.084.016.119.042c.024.016.044.037.06.061s.026.052.031.08.004.058-.002.086-.018.055-.035.078l-.006-.004zm2.48 1.466c-.041-.013-.077-.038-.104-.071s-.043-.074-.047-.117a.21.21 0 0 1 .026-.123c.021-.037.052-.068.09-.088s.081-.028.124-.023.083.022.116.05.057.064.068.106.011.085-.002.126c-.017.054-.054.099-.103.127s-.108.034-.162.018l-.006-.004zm3.084.488c-.043 0-.085-.012-.121-.036s-.064-.058-.08-.097-.021-.083-.013-.125.029-.081.059-.111.069-.051.111-.059.086-.004.126.013.073.045.097.08.036.078.036.121c.001.057-.021.111-.06.153s-.093.065-.15.067l-.006-.004zm3.084-.488c-.041.013-.084.014-.126.002s-.078-.036-.105-.068-.045-.073-.05-.115.003-.086.023-.124.05-.069.088-.09.08-.03.123-.026.083.02.117.046a.22.22 0 0 1 .084.187c-.002.028-.009.057-.022.082s-.03.049-.052.068a.24.24 0 0 1-.074.043l-.006-.004zm2.781-1.418c-.034.025-.075.039-.118.041s-.085-.009-.121-.032-.065-.055-.083-.093-.024-.082-.017-.124.026-.081.055-.112.066-.053.108-.063.085-.007.125.007.075.041.1.075c.018.023.03.049.038.076s.009.057.005.085-.014.056-.028.081-.034.046-.057.063l-.006-.004zm2.209-2.207c-.025.035-.06.062-.1.077s-.084.018-.126.008-.08-.032-.109-.063-.048-.071-.055-.113-.001-.086.017-.125.047-.072.084-.094.079-.033.122-.032.084.016.119.042c.024.016.044.037.06.062s.026.051.031.08.004.058-.002.086a.22.22 0 0 1-.035.078l-.006-.004zm-8.074 2.954a8.82 8.82 0 0 1-8.15-5.446c-.668-1.612-.842-3.386-.502-5.097a8.82 8.82 0 0 1 6.932-6.932c1.711-.34 3.485-.166 5.097.502a8.82 8.82 0 0 1 5.446 8.151c.001 1.159-.226 2.306-.669 3.377a8.82 8.82 0 0 1-1.911 2.864 8.84 8.84 0 0 1-2.861 1.915 8.82 8.82 0 0 1-3.376.674l-.006-.007zm9.219-5.601c-.041-.013-.077-.038-.104-.071s-.043-.074-.047-.117a.21.21 0 0 1 .026-.123c.021-.037.052-.068.09-.088s.081-.028.124-.023.083.022.116.05.057.064.069.106.011.085-.002.126a.22.22 0 0 1-.102.129c-.049.028-.109.035-.163.019l-.006-.007zm.134-6.034c-.041.013-.085.014-.126.002a.22.22 0 0 1-.106-.069c-.028-.033-.045-.073-.05-.116s.003-.086.023-.124.05-.069.088-.09.08-.03.123-.026a.22.22 0 0 1 .117.047c.034.027.058.063.071.104.01.027.014.056.012.085s-.009.057-.021.083-.03.049-.052.068a.22.22 0 0 1-.074.043l-.006-.007zm.411 3.028c-.043 0-.085-.012-.121-.036s-.064-.058-.08-.097-.021-.083-.013-.126.029-.081.059-.111.069-.051.111-.059.086-.004.125.013a.23.23 0 0 1 .097.08c.024.035.036.078.036.121.002.057-.02.113-.059.154a.22.22 0 0 1-.151.068l-.006-.007z" fill="#326ce5"/><g opacity=".8" fill="#326ce5"><path opacity=".8" d="M15.418 6.508a8.82 8.82 0 0 0-8.151 5.446c-.667 1.612-.842 3.386-.502 5.098s1.181 3.283 2.415 4.517a8.82 8.82 0 0 0 13.574-1.337c.969-1.451 1.487-3.157 1.487-4.901 0-2.34-.93-4.584-2.584-6.239a8.82 8.82 0 0 0-6.239-2.584zm4.622 9.201c-.077.966-.456 1.883-1.085 2.621l1.64 1.64-.536.537-1.64-1.64a4.62 4.62 0 0 1-2.621 1.085v2.32h-.76v-2.32a4.62 4.62 0 0 1-2.621-1.085l-1.64 1.64-.536-.537 1.64-1.64c-.582-.685-.952-1.525-1.064-2.417H8.469v-.781h2.312a4.62 4.62 0 0 1 1.088-2.801l-1.57-1.577.552-.552 1.583 1.583c.786-.664 1.771-1.046 2.8-1.086V8.388h.781v2.342c.979.126 1.891.561 2.604 1.244l1.771-1.771.553.552-1.806 1.806a4.6 4.6 0 0 1 .905 2.392h2.321v.758l-2.321-.001zm-6.991 2.527a3.75 3.75 0 0 0 1.989.825v-.504a3.22 3.22 0 0 1-1.635-.675l-.355.355zm-1.33-2.323c.102.653.376 1.267.793 1.78l.353-.353a3.24 3.24 0 0 1-.654-1.427h-.492zm3.503-3.829v-.494a3.73 3.73 0 0 0-2.168.829l.354.353c.52-.409 1.153-.649 1.814-.688zm-2.363 1.239l-.353-.353a3.72 3.72 0 0 0-.827 2.168h.494c.038-.661.277-1.294.687-1.815zm2.939 5.234v.504a3.74 3.74 0 0 0 1.989-.824l-.354-.353a3.22 3.22 0 0 1-1.635.674zm2.189-5.953a3.74 3.74 0 0 0-1.981-.973v.494c.613.112 1.181.399 1.635.826l.346-.346zm.161.943a3.24 3.24 0 0 1 .497 1.407h.502a3.71 3.71 0 0 0-.649-1.754l-.35.348zm-.178 3.798l.353.353a3.71 3.71 0 0 0 .824-1.989h-.502c-.069.598-.302 1.164-.675 1.636zm-1.897-2.014c0-.13-.038-.256-.111-.364a.66.66 0 0 0-.294-.242.65.65 0 0 0-.379-.037.67.67 0 0 0-.336.179c-.092.091-.154.208-.179.336s-.012.259.037.379a.65.65 0 0 0 .242.294.66.66 0 0 0 .364.111c.174 0 .341-.069.464-.192s.192-.29.192-.464z"/><path opacity=".8" d="M17.95 14.951a2.6 2.6 0 0 0-.801-1.508 2.62 2.62 0 0 0-1.732-.684c-.066 0-.128.014-.193.02a2.55 2.55 0 0 0-2.359 2.359c0 .065-.02.127-.02.193.007.549.186 1.081.512 1.522a2.59 2.59 0 0 0 .536.537c.337.249.729.412 1.144.473.251.051.509.051.76 0a2.55 2.55 0 0 0 1.144-.473c.204-.152.385-.333.536-.537.249-.337.412-.73.473-1.144.051-.25.051-.508 0-.758zm-4.579.38c0-.405.12-.801.344-1.138s.544-.599.918-.755.786-.196 1.183-.117.762.274 1.048.56.482.651.561 1.048a2.05 2.05 0 0 1-.116 1.183c-.155.374-.417.694-.754.919s-.732.345-1.137.345a2.05 2.05 0 0 1-2.047-2.046z"/></g><path d="M45.511 24.153l-5.259-7.606v7.606h-3.755V7.721h3.755v7.136l5.024-7.136h4.274l-5.54 8.005 5.768 8.427h-4.267zM61.71 12.416v11.738h-3.517V23.05c-.634.868-1.808 1.431-3.357 1.431-2.372 0-4.391-1.688-4.391-4.858v-7.207h3.517v6.691c0 1.455.916 2.136 2.043 2.136 1.291 0 2.184-.751 2.184-2.418v-6.408h3.521zm15.214 5.868c0 3.499-2.532 6.19-5.611 6.19-1.573 0-2.722-.54-3.498-1.431v1.103h-3.517V7.721h3.517v5.801c.775-.892 1.925-1.432 3.498-1.432 3.075-.003 5.611 2.698 5.611 6.195zm-3.517 0c0-1.76-1.173-2.863-2.793-2.863s-2.794 1.103-2.794 2.863 1.173 2.864 2.794 2.864 2.788-1.103 2.788-2.864h.004zm11.476 3.053c.964 0 1.785-.377 2.251-.893l2.814 1.621c-1.151 1.597-2.888 2.417-5.118 2.417-4.014 0-6.501-2.698-6.501-6.19s2.532-6.197 6.242-6.197c3.428 0 5.962 2.653 5.962 6.197.001.473-.046.944-.141 1.407h-8.324c.445 1.216 1.529 1.639 2.815 1.639zm2.16-4.273c-.374-1.362-1.431-1.854-2.487-1.854-1.338 0-2.23.658-2.558 1.856l5.045-.001zm4.203-9.343h4.108l3.64 12.089 3.638-12.089h4.107l-5.346 16.432h-4.784L91.246 7.721zm27.42 4.695v11.738h-3.517V23.05c-.774.891-1.924 1.431-3.497 1.431-3.074 0-5.61-2.698-5.61-6.19s2.533-6.197 5.61-6.197c1.573 0 2.723.54 3.497 1.432v-1.103l3.517-.007zm-3.517 5.868c0-1.76-1.173-2.863-2.792-2.863s-2.794 1.103-2.794 2.863 1.173 2.864 2.794 2.864 2.788-1.103 2.788-2.864h.004zm17.205-5.868v11.738h-3.517V23.05c-.635.868-1.808 1.431-3.357 1.431-2.372 0-4.391-1.688-4.391-4.858v-7.207h3.517v6.691c0 1.455.916 2.136 2.043 2.136 1.29 0 2.183-.751 2.183-2.418v-6.408h3.522zm2.584-5.4h3.517v17.137h-3.517V7.016zm10.562 8.78v4.155c0 1.009.868 1.103 2.418 1.009v3.194c-4.602.468-5.94-.916-5.94-4.202v-4.155H140.1V12.42h1.883v-2.234l3.517-1.057v3.286h2.418v3.377l-2.418.004z" fill="#326ce5"/><path d="M6.757 40.336c-.086.966-.42 1.72-1.005 2.263s-1.361.808-2.33.808c-.677 0-1.275-.17-1.793-.51s-.911-.831-1.191-1.461S.012 40.075 0 39.242v-.846c0-.854.142-1.606.426-2.257s.691-1.152 1.221-1.505 1.149-.529 1.846-.529c.938 0 1.694.272 2.266.815s.905 1.31.999 2.3H5.285c-.07-.651-.249-1.119-.537-1.405s-.703-.435-1.256-.435c-.642 0-1.137.251-1.483.752s-.518 1.229-.526 2.195v.802c0 .978.164 1.724.491 2.238s.814.771 1.448.771c.58 0 1.016-.139 1.308-.417s.477-.74.555-1.386h1.472zm11.807-.479c0-.659.123-1.252.368-1.778s.59-.937 1.034-1.219.954-.429 1.53-.429c.853 0 1.544.292 2.073.877s.822 1.36.864 2.325l.006.354c0 .663-.121 1.256-.362 1.778s-.58.926-1.028 1.212-.958.429-1.542.429c-.892 0-1.606-.315-2.143-.945s-.8-1.478-.8-2.531v-.075zm1.419.131c0 .692.134 1.235.403 1.629s.642.584 1.121.584.851-.199 1.116-.597.403-.98.403-1.747c0-.68-.138-1.219-.415-1.617a1.28 1.28 0 0 0-1.116-.597c-.463 0-.831.197-1.104.591s-.409.974-.409 1.753zm17.876-3.433l.041.703c.444-.551 1.051-.827 1.822-.827.845 0 1.423.344 1.735 1.032.459-.688 1.106-1.032 1.939-1.032.697 0 1.215.205 1.553.615s.518 1.016.526 1.816v4.421h-1.419v-4.377c0-.427-.088-.74-.263-.939s-.465-.298-.87-.298c-.323 0-.588.093-.794.28s-.344.423-.426.721l.006 4.613H40.29v-4.427c-.02-.792-.399-1.188-1.139-1.188-.568 0-.971.247-1.209.74v4.875h-1.419v-6.727h1.337zm21.291 0l.041.703c.444-.551 1.051-.827 1.822-.827.845 0 1.423.344 1.735 1.032.459-.688 1.106-1.032 1.939-1.032.697 0 1.215.205 1.553.615s.518 1.016.526 1.816v4.421h-1.419v-4.377c0-.427-.088-.74-.263-.939s-.465-.298-.87-.298c-.323 0-.588.093-.794.28s-.345.423-.426.721L63 43.283h-1.42v-4.427c-.02-.792-.399-1.188-1.139-1.188-.568 0-.971.247-1.209.74v4.875h-1.419v-6.727h1.337zm23.786 6.069c-.417.522-1.008.783-1.775.783-.685 0-1.205-.213-1.559-.64s-.526-1.045-.526-1.853v-4.359h1.419v4.34c0 .854.333 1.281.999 1.281.689 0 1.154-.263 1.396-.79v-4.831h1.419v6.727h-1.337l-.035-.659zm15.019-6.069l.041.777c.467-.601 1.08-.901 1.84-.901 1.316 0 1.986.802 2.009 2.406v4.446h-1.419v-4.358c0-.427-.087-.742-.263-.945s-.453-.311-.846-.311c-.572 0-.999.276-1.279.827v4.788h-1.419v-6.727h1.337zm17.735 6.728h-1.419v-6.727h1.419v6.727zm-1.507-8.475c0-.232.068-.425.204-.578.141-.153.339-.23.596-.23s.456.077.596.23.21.346.21.578-.07.419-.21.572-.339.224-.596.224-.455-.075-.596-.224a.83.83 0 0 1-.204-.572zm15.72.112v1.635h1.115v1.119h-1.115v3.756c0 .257.047.444.14.559s.269.168.514.168a2.09 2.09 0 0 0 .497-.062v1.169c-.324.095-.635.143-.935.143-1.09 0-1.635-.64-1.635-1.921v-3.811h-1.04v-1.119h1.04V34.92h1.419zm15.3 6.199l1.284-4.564H148l-2.511 7.747c-.386 1.132-1.04 1.697-1.963 1.697a2.4 2.4 0 0 1-.683-.112v-1.169l.269.019c.358 0 .627-.07.806-.211s.327-.369.432-.696l.204-.578-2.219-6.696h1.53l1.338 4.564z" fill="#00a651"/></svg>