<svg id="Layer_1" data-name="Layer 1" xmlns="http://www.w3.org/2000/svg" viewBox="0 0 1279 639"><defs><style>.cls-1{fill:#326ce5;}.cls-2{opacity:0.8;}</style></defs><title>kubevault-logo-1280x640</title><path class="cls-1" d="M222.23,212.89h2.63a22.07,22.07,0,0,1,7.48,2c1.9.93,3.8,1.83,5.7,2.74l60.32,28.95c2.07,1,4.17,1.91,6.18,3a20.13,20.13,0,0,1,10.36,14c2.39,10.54,4.84,21.05,7.26,31.58q5.14,22.31,10.26,44.62a19.48,19.48,0,0,1-4,17.28q-24.35,30.27-48.7,60.52a21.74,21.74,0,0,1-8.88,7,21.21,21.21,0,0,1-8,1.51q-36.37,0-72.75,0c-2.84,0-5.69.12-8.52-.07a18.74,18.74,0,0,1-7.8-2.44,19.9,19.9,0,0,1-5.8-4.89q-24.85-30.87-49.69-61.74a19.62,19.62,0,0,1-4.42-14,48.46,48.46,0,0,1,1.46-7.46q7-30.33,14-60.67c.95-4.15,1.84-8.31,2.89-12.43a19.25,19.25,0,0,1,10.65-13.12c15.24-7.35,30.52-14.61,45.79-21.9L214.39,215A22.38,22.38,0,0,1,222.23,212.89Zm1.25,206.42h39.33a13.88,13.88,0,0,0,11.44-5.52q15.44-19.25,30.94-38.45,9.17-11.37,18.32-22.76a13.09,13.09,0,0,0,2.66-11.68q-1.71-7.5-3.45-15c-4.66-20.25-9.37-40.48-14-60.75a14.37,14.37,0,0,0-8.13-10.48L255,233q-12.69-6-25.38-12.07a14,14,0,0,0-12.36,0c-8.17,3.78-16.26,7.72-24.38,11.6q-23.37,11.18-46.73,22.33a13.14,13.14,0,0,0-7.49,9.14c-1.9,7.89-3.68,15.82-5.5,23.74q-6,26.19-12.1,52.37a15.62,15.62,0,0,0-.37,5.92,14.77,14.77,0,0,0,3.27,7.15c5.28,6.48,10.51,13,15.76,19.53Q156.31,393.3,172.92,414a13.78,13.78,0,0,0,11.37,5.36Z"/><path class="cls-1" d="M223.39,243.59a78.27,78.27,0,1,0,78.26,78.27A78.27,78.27,0,0,0,223.39,243.59Zm55.24,36.23a1.54,1.54,0,1,1-.34,2.15A1.55,1.55,0,0,1,278.63,279.82Zm-15.69-15a1.53,1.53,0,1,1,.34,2.14A1.53,1.53,0,0,1,262.94,264.81Zm-17.63-10.42a1.54,1.54,0,1,1-1.94,1A1.54,1.54,0,0,1,245.31,254.39Zm-21.92-3.47a1.54,1.54,0,1,1-1.54,1.54A1.53,1.53,0,0,1,223.39,250.92Zm-21.92,3.47a1.54,1.54,0,1,1-1,1.94A1.53,1.53,0,0,1,201.47,254.39Zm-19.78,10.08a1.54,1.54,0,1,1-.34,2.14A1.54,1.54,0,0,1,181.69,264.47ZM166,280.16a1.54,1.54,0,1,1,.34,2.15A1.55,1.55,0,0,1,166,280.16Zm-12,43.23a1.54,1.54,0,1,1,1.53-1.53A1.54,1.54,0,0,1,154,323.39Zm3.87,21.37a1.54,1.54,0,1,1,1-1.93A1.53,1.53,0,0,1,157.86,344.76Zm-1-42.89a1.54,1.54,0,1,1,1.94-1A1.54,1.54,0,0,1,156.91,301.87Zm11.24,62a1.54,1.54,0,1,1,.34-2.14A1.54,1.54,0,0,1,168.15,363.89Zm15.69,15a1.54,1.54,0,1,1-.34-2.14A1.54,1.54,0,0,1,183.84,378.9Zm17.63,10.42a1.54,1.54,0,1,1,1.93-1A1.54,1.54,0,0,1,201.47,389.32Zm21.92,3.47a1.54,1.54,0,1,1,1.53-1.53A1.54,1.54,0,0,1,223.39,392.79Zm21.92-3.47a1.54,1.54,0,1,1,1-1.94A1.54,1.54,0,0,1,245.31,389.32Zm19.77-10.08a1.53,1.53,0,1,1,.34-2.14A1.53,1.53,0,0,1,265.08,379.24Zm15.7-15.69a1.54,1.54,0,1,1-.34-2.14A1.54,1.54,0,0,1,280.78,363.55Zm-57.39,21a62.71,62.71,0,1,1,62.71-62.71A62.71,62.71,0,0,1,223.39,384.57Zm65.53-39.81a1.54,1.54,0,1,1,1.93-1A1.53,1.53,0,0,1,288.92,344.76Zm.95-42.89a1.54,1.54,0,1,1,1-1.93A1.54,1.54,0,0,1,289.87,301.87Zm2.92,21.52a1.54,1.54,0,1,1,1.53-1.53A1.54,1.54,0,0,1,292.79,323.39Z"/><g class="cls-2"><path class="cls-1" d="M223.39,259.15a62.71,62.71,0,1,0,62.71,62.71A62.71,62.71,0,0,0,223.39,259.15Zm32.85,65.4a32.74,32.74,0,0,1-7.71,18.63l11.66,11.66-3.81,3.82L244.72,347a32.84,32.84,0,0,1-18.63,7.71V371.2h-5.4V354.71A32.84,32.84,0,0,1,202.06,347L190.4,358.66l-3.81-3.82,11.66-11.66A32.82,32.82,0,0,1,190.69,326H174v-5.55h16.43a32.84,32.84,0,0,1,7.73-19.91L187,289.33l3.92-3.92,11.25,11.25a32.8,32.8,0,0,1,19.9-7.72V272.51h5.55v16.65A32.81,32.81,0,0,1,246.13,298l12.59-12.59,3.93,3.92-12.84,12.84a32.69,32.69,0,0,1,6.43,17h16.5v5.39Z"/><path class="cls-1" d="M206.55,342.51a26.6,26.6,0,0,0,14.14,5.86v-3.58a22.88,22.88,0,0,1-11.62-4.8Z"/><path class="cls-1" d="M197.1,326a26.48,26.48,0,0,0,5.64,12.65l2.51-2.51A23,23,0,0,1,200.6,326Z"/><path class="cls-1" d="M222,298.78v-3.51a26.55,26.55,0,0,0-15.41,5.89l2.52,2.51A23,23,0,0,1,222,298.78Z"/><path class="cls-1" d="M205.2,307.59l-2.51-2.51a26.45,26.45,0,0,0-5.88,15.41h3.51A23,23,0,0,1,205.2,307.59Z"/><path class="cls-1" d="M226.09,344.79v3.58a26.6,26.6,0,0,0,14.14-5.86L237.71,340A22.88,22.88,0,0,1,226.09,344.79Z"/><path class="cls-1" d="M241.65,302.48a26.59,26.59,0,0,0-14.08-6.92v3.51a23,23,0,0,1,11.62,5.87Z"/><path class="cls-1" d="M242.8,309.18a23,23,0,0,1,3.53,10h3.57a26.38,26.38,0,0,0-4.61-12.47Z"/><path class="cls-1" d="M241.53,336.18l2.51,2.51a26.46,26.46,0,0,0,5.86-14.14h-3.57A23,23,0,0,1,241.53,336.18Z"/><path class="cls-1" d="M228.05,321.86a4.66,4.66,0,1,0-4.66,4.66A4.66,4.66,0,0,0,228.05,321.86Z"/><path class="cls-1" d="M241.39,319.16a18.47,18.47,0,0,0-5.69-10.72,18.62,18.62,0,0,0-12.31-4.86c-.47,0-.91.1-1.37.14a18.11,18.11,0,0,0-16.77,16.77c0,.46-.14.9-.14,1.37a18.6,18.6,0,0,0,3.64,10.82,18.4,18.4,0,0,0,3.81,3.82,18.08,18.08,0,0,0,8.13,3.36,13.63,13.63,0,0,0,5.4,0,18.13,18.13,0,0,0,8.13-3.36,18.4,18.4,0,0,0,3.81-3.82,18.08,18.08,0,0,0,3.36-8.13,13.59,13.59,0,0,0,0-5.39Zm-32.55,2.7a14.55,14.55,0,1,1,14.55,14.54A14.56,14.56,0,0,1,208.84,321.86Z"/></g><path class="cls-1" d="M437.29,384.57l-37.38-54.06v54.06H373.22V267.77h26.69v50.72l35.71-50.72H466l-39.38,56.9,41,59.9Z"/><path class="cls-1" d="M552.43,301.14v83.43h-25v-7.84c-4.51,6.17-12.85,10.17-23.86,10.17-16.86,0-31.21-12-31.21-34.53V301.14h25V348.7c0,10.34,6.51,15.18,14.52,15.18,9.18,0,15.52-5.34,15.52-17.19V301.14Z"/><path class="cls-1" d="M660.57,342.85c0,24.87-18,44-39.88,44-11.18,0-19.35-3.84-24.86-10.17v7.84h-25V267.77h25V309c5.51-6.34,13.68-10.18,24.86-10.18C642.55,298.8,660.57,318,660.57,342.85Zm-25,0c0-12.51-8.34-20.35-19.85-20.35s-19.86,7.84-19.86,20.35,8.34,20.36,19.86,20.36S635.54,355.37,635.54,342.85Z"/><path class="cls-1" d="M717.14,364.55c6.85,0,12.69-2.68,16-6.35l20,11.52c-8.18,11.35-20.53,17.18-36.38,17.18-28.53,0-46.21-19.18-46.21-44s18-44.05,44.37-44.05c24.37,0,42.38,18.86,42.38,44.05a49.07,49.07,0,0,1-1,10H697.13C700.29,361.54,708,364.55,717.14,364.55Zm15.35-30.37C729.83,324.5,722.32,321,714.81,321c-9.51,0-15.85,4.68-18.18,13.19Z"/><path class="cls-1" d="M762.37,267.77h29.2l25.87,85.93,25.86-85.93h29.19l-38,116.8h-34Z"/><path class="cls-1" d="M957.27,301.14v83.43h-25v-7.84c-5.5,6.33-13.68,10.17-24.86,10.17-21.85,0-39.87-19.18-39.87-44s18-44.05,39.87-44.05c11.18,0,19.36,3.84,24.86,10.18v-7.84Zm-25,41.71c0-12.51-8.34-20.35-19.85-20.35s-19.86,7.84-19.86,20.35,8.34,20.36,19.86,20.36S932.24,355.37,932.24,342.85Z"/><path class="cls-1" d="M1054.56,301.14v83.43h-25v-7.84c-4.51,6.17-12.85,10.17-23.86,10.17-16.86,0-31.21-12-31.21-34.53V301.14h25V348.7c0,10.34,6.51,15.18,14.52,15.18,9.17,0,15.52-5.34,15.52-17.19V301.14Z"/><path class="cls-1" d="M1072.93,262.76h25V384.57h-25Z"/><path class="cls-1" d="M1148,325.17V354.7c0,7.17,6.17,7.84,17.19,7.17v22.7c-32.71,3.33-42.22-6.51-42.22-29.87V325.17h-13.35v-24H1123V285.29l25-7.51v23.36h17.19v24Z"/></svg>