<svg width="148" height="46" viewBox="0 0 148 46" fill="none" xmlns="http://www.w3.org/2000/svg">
<path d="M15.2547 0H15.6247C15.9893 0.0310465 16.3456 0.126304 16.6771 0.281377C16.9444 0.412217 17.2117 0.538837 17.479 0.666863L25.9653 4.73979C26.2565 4.88048 26.552 5.0085 26.8348 5.16185C27.2097 5.36008 27.5353 5.63998 27.7876 5.98088C28.0398 6.32179 28.2123 6.715 28.2923 7.13149C28.6285 8.61434 28.9732 10.093 29.3137 11.5744C29.7958 13.6669 30.2769 15.7594 30.7572 17.8519C30.8625 18.2728 30.8664 18.7126 30.7685 19.1352C30.6707 19.5579 30.4739 19.9513 30.1944 20.283C27.9106 23.1221 25.6267 25.9603 23.3429 28.7975C23.0206 29.2302 22.5896 29.57 22.0936 29.7823C21.7356 29.9251 21.3534 29.9973 20.9681 29.9947C17.5568 29.9947 14.1452 29.9947 10.733 29.9947C10.3334 29.9947 9.93248 30.0116 9.53433 29.9849C9.14774 29.9526 8.77304 29.8354 8.43696 29.6416C8.12336 29.4667 7.84633 29.2332 7.62097 28.9536C5.29023 26.0583 2.95996 23.1629 0.630166 20.2676C0.175802 19.7162 -0.0470998 19.0102 0.00832451 18.2979C0.0492062 17.9432 0.117886 17.5923 0.213729 17.2484C0.870274 14.4037 1.52682 11.5585 2.18337 8.71283C2.31702 8.12897 2.44223 7.54371 2.58996 6.96407C2.68286 6.5627 2.8661 6.18782 3.12575 5.86795C3.38539 5.54809 3.71459 5.29168 4.08828 5.11824C6.23237 4.08418 8.38209 3.06278 10.5304 2.03717L14.1517 0.296852C14.4982 0.131481 14.872 0.0308749 15.2547 0ZM15.4306 29.0409H20.9638C21.2746 29.0489 21.5827 28.9826 21.8626 28.8475C22.1426 28.7124 22.3862 28.5125 22.5733 28.2643C24.0215 26.4588 25.4724 24.6556 26.9262 22.8548C27.7863 21.7884 28.6454 20.721 29.5036 19.6527C29.6923 19.4284 29.8246 19.1623 29.8897 18.8764C29.9548 18.5906 29.9508 18.2934 29.8779 18.0095C29.7175 17.3061 29.5557 16.6026 29.3925 15.8992C28.7369 13.0502 28.0742 10.2041 27.4228 7.35237C27.3647 7.0328 27.2303 6.73195 27.0312 6.4753C26.8321 6.21865 26.5741 6.01375 26.279 5.87796L19.8651 2.82924C18.6748 2.26649 17.4846 1.70045 16.2944 1.13113C16.0239 0.998051 15.7264 0.928846 15.4249 0.928846C15.1235 0.928846 14.826 0.998051 14.5555 1.13113C13.4061 1.66293 12.2679 2.21725 11.1255 2.76312C8.93359 3.81171 6.74213 4.8589 4.55115 5.90469C4.2873 6.02186 4.05455 6.1992 3.87157 6.42249C3.68858 6.64579 3.56043 6.90885 3.49739 7.19058C3.23009 8.30061 2.97966 9.41627 2.72361 10.5305C2.16086 12.9869 1.59341 15.4429 1.02128 17.8984C0.950891 18.1701 0.933221 18.4528 0.969226 18.7312C1.02888 19.102 1.18786 19.4496 1.42928 19.7372C2.17211 20.6488 2.90791 21.5661 3.64652 22.4848C5.20254 24.416 6.75949 26.3523 8.31737 28.2938C8.50509 28.5374 8.74806 28.7328 9.02619 28.8639C9.30433 28.995 9.60967 29.0581 9.917 29.0479L15.4306 29.0409Z" fill="#326CE5"/>
<path d="M15.4179 4.31909C13.2399 4.31881 11.1108 4.9644 9.29973 6.17421C7.48868 7.38402 6.07707 9.10371 5.24341 11.1158C4.40974 13.1279 4.19148 15.342 4.6162 17.4782C5.04093 19.6143 6.08958 21.5765 7.62954 23.1167C9.16949 24.6568 11.1316 25.7057 13.2677 26.1307C15.4038 26.5557 17.6179 26.3378 19.6301 25.5044C21.6423 24.6709 23.3622 23.2596 24.5722 21.4487C25.7823 19.6378 26.4281 17.5087 26.4281 15.3308C26.4281 12.4105 25.2682 9.60988 23.2034 7.54483C21.1386 5.47978 18.3381 4.31946 15.4179 4.31909ZM23.1895 9.41623C23.2241 9.39101 23.2655 9.37663 23.3083 9.37492C23.3512 9.37321 23.3935 9.38424 23.4301 9.40662C23.4666 9.429 23.4957 9.46171 23.5137 9.50063C23.5317 9.53955 23.5377 9.58292 23.531 9.62525C23.5243 9.66759 23.5052 9.70699 23.4761 9.73846C23.447 9.76994 23.4092 9.79208 23.3675 9.80209C23.3259 9.81209 23.2822 9.80951 23.2419 9.79467C23.2017 9.77983 23.1668 9.75339 23.1417 9.71871C23.1083 9.67212 23.0946 9.61427 23.1035 9.55766C23.1125 9.50105 23.1434 9.45025 23.1895 9.41623ZM20.9821 7.30591C21.0071 7.27151 21.0418 7.2453 21.0817 7.2306C21.1217 7.2159 21.165 7.21336 21.2064 7.2233C21.2478 7.23324 21.2853 7.25522 21.3142 7.28646C21.343 7.3177 21.362 7.3568 21.3687 7.39882C21.3754 7.44084 21.3694 7.48389 21.3517 7.52255C21.3339 7.5612 21.3051 7.59372 21.2688 7.61599C21.2326 7.63827 21.1905 7.6493 21.148 7.64769C21.1055 7.64609 21.0644 7.63192 21.0299 7.60698C21.0068 7.59037 20.9872 7.56933 20.9722 7.54508C20.9573 7.52083 20.9473 7.49387 20.9428 7.46573C20.9384 7.43759 20.9396 7.40885 20.9463 7.38118C20.953 7.3535 20.9652 7.32744 20.9821 7.3045V7.30591ZM18.5018 5.83993C18.5425 5.85306 18.5785 5.87796 18.6051 5.9115C18.6317 5.94504 18.6477 5.98571 18.6513 6.02838C18.6548 6.07104 18.6456 6.11379 18.6248 6.15123C18.604 6.18867 18.5727 6.21912 18.5346 6.23874C18.4965 6.25835 18.4535 6.26626 18.411 6.26145C18.3685 6.25664 18.3283 6.23934 18.2956 6.21172C18.2629 6.1841 18.2391 6.14742 18.2272 6.10629C18.2153 6.06516 18.2159 6.02143 18.2288 5.98062C18.2373 5.9533 18.2511 5.92793 18.2695 5.90598C18.2878 5.88402 18.3103 5.86592 18.3357 5.8527C18.3611 5.83949 18.3888 5.83144 18.4173 5.82901C18.4458 5.82657 18.4745 5.82981 18.5018 5.83853V5.83993ZM15.4179 5.35174C15.4607 5.35174 15.5026 5.36445 15.5382 5.38826C15.5739 5.41206 15.6016 5.4459 15.618 5.48549C15.6344 5.52508 15.6387 5.56864 15.6304 5.61067C15.622 5.6527 15.6014 5.69131 15.5711 5.72161C15.5408 5.75191 15.5022 5.77254 15.4601 5.7809C15.4181 5.78926 15.3745 5.78497 15.335 5.76857C15.2954 5.75217 15.2615 5.7244 15.2377 5.68877C15.2139 5.65314 15.2012 5.61126 15.2012 5.5684C15.2008 5.53978 15.2062 5.51137 15.2169 5.48484C15.2276 5.4583 15.2436 5.43418 15.2637 5.41387C15.2839 5.39357 15.3079 5.37749 15.3344 5.36658C15.3609 5.35567 15.3892 5.35015 15.4179 5.35034V5.35174ZM12.334 5.83993C12.3748 5.82698 12.4185 5.82641 12.4596 5.83829C12.5008 5.85017 12.5375 5.87397 12.5651 5.90669C12.5927 5.9394 12.61 5.97957 12.6148 6.02211C12.6196 6.06465 12.6117 6.10766 12.5921 6.14571C12.5725 6.18377 12.542 6.21516 12.5046 6.23592C12.4672 6.25668 12.4244 6.26588 12.3817 6.26237C12.3391 6.25886 12.2984 6.24278 12.2649 6.21617C12.2313 6.18956 12.2064 6.15362 12.1933 6.11287C12.1841 6.08563 12.1805 6.05684 12.1827 6.02819C12.1848 5.99953 12.1927 5.9716 12.2058 5.94603C12.2189 5.92046 12.237 5.89777 12.259 5.87931C12.281 5.86085 12.3065 5.84698 12.334 5.83853V5.83993ZM9.55117 7.25807C9.58579 7.23267 9.62719 7.21813 9.67009 7.21631C9.713 7.21448 9.75548 7.22544 9.79214 7.2478C9.82881 7.27017 9.858 7.30292 9.876 7.34191C9.89401 7.38089 9.90003 7.42435 9.89329 7.46676C9.88656 7.50918 9.86737 7.54863 9.83816 7.58011C9.80895 7.6116 9.77105 7.63369 9.72926 7.64359C9.68747 7.65349 9.64369 7.65075 9.60346 7.63571C9.56323 7.62068 9.52838 7.59402 9.50333 7.55914C9.4696 7.51268 9.45568 7.45472 9.46465 7.398C9.47362 7.34129 9.50474 7.29045 9.55117 7.25666V7.25807ZM7.34377 9.46406C7.36895 9.42938 7.40386 9.40294 7.44407 9.3881C7.48428 9.37326 7.52798 9.37068 7.56966 9.38068C7.61134 9.39069 7.64911 9.41283 7.6782 9.44431C7.70729 9.47579 7.72639 9.51518 7.73309 9.55752C7.73978 9.59985 7.73377 9.64322 7.71581 9.68214C7.69785 9.72106 7.66876 9.75377 7.6322 9.77615C7.59564 9.79853 7.55327 9.80956 7.51044 9.80785C7.46762 9.80613 7.42626 9.79176 7.3916 9.76654C7.34548 9.73252 7.31461 9.68172 7.30566 9.62511C7.2967 9.56851 7.3104 9.51065 7.34377 9.46406ZM5.65551 15.546C5.61254 15.5463 5.57046 15.5338 5.53461 15.5101C5.49877 15.4864 5.47078 15.4526 5.45421 15.4129C5.43764 15.3733 5.43323 15.3296 5.44154 15.2874C5.44986 15.2453 5.47052 15.2065 5.50091 15.1762C5.53129 15.1458 5.57002 15.1251 5.61218 15.1168C5.65434 15.1085 5.69802 15.1129 5.73767 15.1295C5.77731 15.146 5.81113 15.174 5.83483 15.2099C5.85853 15.2457 5.87104 15.2878 5.87076 15.3308C5.87039 15.3877 5.8476 15.4423 5.80731 15.4826C5.76702 15.5228 5.71248 15.5456 5.65551 15.546ZM6.19997 18.5525C6.15912 18.5656 6.11531 18.5662 6.0741 18.5544C6.03289 18.5425 5.99612 18.5187 5.96846 18.4859C5.9408 18.4531 5.92348 18.4129 5.91871 18.3702C5.91394 18.3276 5.92193 18.2845 5.94166 18.2465C5.96139 18.2084 5.99197 18.177 6.02954 18.1563C6.06712 18.1357 6.10998 18.1266 6.15271 18.1303C6.19543 18.134 6.2361 18.1503 6.26956 18.1771C6.30302 18.2039 6.32776 18.2401 6.34066 18.281C6.34936 18.3081 6.35258 18.3368 6.35013 18.3652C6.34767 18.3936 6.33961 18.4212 6.32639 18.4465C6.31317 18.4717 6.29506 18.4941 6.27312 18.5123C6.25118 18.5305 6.22583 18.5442 6.19857 18.5525H6.19997ZM6.05928 12.5184C6.01853 12.5053 5.98259 12.4804 5.95598 12.4468C5.92937 12.4133 5.91329 12.3726 5.90978 12.33C5.90627 12.2873 5.91547 12.2445 5.93624 12.2071C5.957 12.1697 5.98839 12.1392 6.02644 12.1196C6.06449 12.1 6.10751 12.0921 6.15005 12.0969C6.19259 12.1017 6.23275 12.119 6.26546 12.1466C6.29818 12.1742 6.32198 12.2109 6.33386 12.2521C6.34574 12.2932 6.34517 12.3369 6.33222 12.3777C6.31475 12.4313 6.27704 12.4761 6.22713 12.5023C6.17721 12.5286 6.11902 12.5344 6.06491 12.5184H6.05928ZM7.64062 21.2411C7.60599 21.2665 7.5646 21.281 7.52169 21.2828C7.47879 21.2847 7.43631 21.2737 7.39964 21.2513C7.36298 21.229 7.33379 21.1962 7.31578 21.1572C7.29777 21.1183 7.29175 21.0748 7.29849 21.0324C7.30523 20.99 7.32442 20.9505 7.35363 20.919C7.38283 20.8875 7.42074 20.8655 7.46253 20.8556C7.50431 20.8457 7.5481 20.8484 7.58833 20.8634C7.62855 20.8785 7.6634 20.9051 7.68845 20.94C7.70567 20.9627 7.71824 20.9886 7.72544 21.0162C7.73264 21.0438 7.73433 21.0725 7.73041 21.1007C7.72648 21.1289 7.71703 21.1561 7.70259 21.1807C7.68815 21.2053 7.669 21.2267 7.64625 21.2439L7.64062 21.2411ZM9.84802 23.3514C9.82297 23.3863 9.78812 23.4129 9.74789 23.428C9.70767 23.443 9.66388 23.4457 9.62209 23.4358C9.5803 23.4259 9.5424 23.4039 9.51319 23.3724C9.48399 23.3409 9.4648 23.3014 9.45806 23.259C9.45132 23.2166 9.45734 23.1732 9.47535 23.1342C9.49336 23.0952 9.52255 23.0624 9.55921 23.0401C9.59587 23.0177 9.63835 23.0067 9.68126 23.0086C9.72416 23.0104 9.76556 23.0249 9.80019 23.0503C9.82401 23.0666 9.84433 23.0876 9.85996 23.1118C9.87559 23.1361 9.8862 23.1633 9.89118 23.1917C9.89617 23.2202 9.89541 23.2493 9.88896 23.2775C9.88252 23.3056 9.87051 23.3322 9.85365 23.3556L9.84802 23.3514ZM12.3284 24.8174C12.2875 24.8045 12.2513 24.7797 12.2245 24.7463C12.1976 24.7128 12.1813 24.6721 12.1776 24.6294C12.174 24.5867 12.183 24.5438 12.2037 24.5063C12.2244 24.4687 12.2557 24.4381 12.2938 24.4184C12.3319 24.3986 12.375 24.3907 12.4176 24.3954C12.4602 24.4002 12.5005 24.4175 12.5332 24.4452C12.566 24.4728 12.5898 24.5096 12.6017 24.5508C12.6136 24.592 12.6129 24.6358 12.5999 24.6767C12.5833 24.7308 12.5461 24.7762 12.4965 24.8033C12.4468 24.8304 12.3884 24.837 12.334 24.8216L12.3284 24.8174ZM15.4122 25.3056C15.3693 25.3058 15.3272 25.2933 15.2913 25.2696C15.2555 25.2459 15.2275 25.2121 15.2109 25.1725C15.1944 25.1328 15.19 25.0891 15.1983 25.047C15.2066 25.0048 15.2273 24.9661 15.2576 24.9357C15.288 24.9053 15.3268 24.8847 15.3689 24.8763C15.4111 24.868 15.4548 24.8724 15.4944 24.889C15.534 24.9056 15.5679 24.9336 15.5916 24.9694C15.6153 25.0053 15.6278 25.0473 15.6275 25.0903C15.6283 25.1471 15.6067 25.2018 15.5675 25.2429C15.5283 25.2839 15.4746 25.3079 15.4179 25.3098L15.4122 25.3056ZM18.4961 24.8174C18.4553 24.8303 18.4116 24.8309 18.3705 24.819C18.3293 24.8071 18.2926 24.7833 18.265 24.7506C18.2374 24.7179 18.2201 24.6777 18.2153 24.6352C18.2105 24.5927 18.2184 24.5496 18.238 24.5116C18.2576 24.4735 18.2881 24.4422 18.3255 24.4214C18.363 24.4006 18.4057 24.3914 18.4484 24.3949C18.491 24.3985 18.5317 24.4145 18.5652 24.4411C18.5988 24.4677 18.6237 24.5037 18.6368 24.5444C18.6463 24.5715 18.6504 24.6002 18.6487 24.6288C18.6471 24.6574 18.6398 24.6855 18.6272 24.7112C18.6146 24.737 18.5971 24.76 18.5755 24.779C18.554 24.7979 18.5289 24.8124 18.5018 24.8216L18.4961 24.8174ZM21.2775 23.3992C21.2431 23.4242 21.202 23.4383 21.1595 23.4399C21.1169 23.4416 21.0749 23.4305 21.0387 23.4083C21.0024 23.386 20.9736 23.3535 20.9558 23.3148C20.938 23.2761 20.9321 23.2331 20.9388 23.1911C20.9454 23.1491 20.9644 23.11 20.9933 23.0787C21.0222 23.0475 21.0597 23.0255 21.101 23.0156C21.1424 23.0056 21.1858 23.0082 21.2257 23.0229C21.2657 23.0376 21.3003 23.0638 21.3254 23.0982C21.343 23.1208 21.3559 23.1468 21.3633 23.1746C21.3707 23.2023 21.3725 23.2313 21.3686 23.2597C21.3647 23.2882 21.3551 23.3155 21.3404 23.3402C21.3257 23.3649 21.3063 23.3864 21.2832 23.4035L21.2775 23.3992ZM23.4863 21.1918C23.4613 21.2267 23.4264 21.2534 23.3862 21.2684C23.346 21.2834 23.3022 21.2862 23.2604 21.2763C23.2186 21.2664 23.1807 21.2443 23.1515 21.2128C23.1223 21.1813 23.1031 21.1419 23.0964 21.0995C23.0896 21.057 23.0957 21.0136 23.1137 20.9746C23.1317 20.9356 23.1609 20.9029 23.1975 20.8805C23.2342 20.8581 23.2767 20.8472 23.3196 20.849C23.3625 20.8508 23.4039 20.8654 23.4385 20.8908C23.4623 20.9071 23.4827 20.928 23.4983 20.9523C23.5139 20.9766 23.5245 21.0037 23.5295 21.0322C23.5345 21.0606 23.5337 21.0898 23.5273 21.1179C23.5208 21.146 23.5088 21.1726 23.492 21.1961L23.4863 21.1918ZM15.4122 24.1463C13.6673 24.1463 11.9616 23.6289 10.5107 22.6594C9.05983 21.69 7.92902 20.3121 7.26126 18.7C6.5935 17.0879 6.41878 15.3139 6.7592 13.6025C7.09962 11.8911 7.93989 10.3191 9.17375 9.08524C10.4076 7.85138 11.9796 7.01111 13.691 6.67069C15.4025 6.33027 17.1764 6.50498 18.7885 7.17274C20.4006 7.8405 21.7785 8.97131 22.7479 10.4222C23.7174 11.873 24.2348 13.5788 24.2348 15.3237C24.2357 16.4824 24.0084 17.63 23.5658 18.7008C23.1232 19.7717 22.474 20.7449 21.6552 21.5648C20.8365 22.3847 19.8642 23.0353 18.794 23.4795C17.7238 23.9236 16.5766 24.1526 15.4179 24.1533L15.4122 24.1463ZM24.6315 18.5455C24.5906 18.5326 24.5545 18.5078 24.5277 18.4744C24.5008 18.4409 24.4845 18.4003 24.4808 18.3575C24.4771 18.3148 24.4862 18.2719 24.5069 18.2344C24.5276 18.1968 24.5589 18.1662 24.597 18.1465C24.6351 18.1268 24.6782 18.1188 24.7208 18.1235C24.7634 18.1283 24.8037 18.1456 24.8364 18.1733C24.8692 18.201 24.893 18.2377 24.9049 18.2789C24.9168 18.3201 24.9161 18.3639 24.9031 18.4048C24.8874 18.4596 24.8505 18.506 24.8007 18.5337C24.7508 18.5614 24.692 18.5682 24.6372 18.5525L24.6315 18.5455ZM24.7652 12.5114C24.7243 12.5244 24.6805 12.5251 24.6393 12.5132C24.5981 12.5013 24.5613 12.4775 24.5337 12.4447C24.506 12.412 24.4887 12.3717 24.4839 12.3291C24.4792 12.2865 24.4872 12.2434 24.5069 12.2053C24.5266 12.1672 24.5572 12.1359 24.5948 12.1152C24.6323 12.0945 24.6752 12.0854 24.7179 12.0891C24.7607 12.0928 24.8013 12.1091 24.8348 12.136C24.8682 12.1628 24.893 12.1989 24.9059 12.2398C24.9156 12.267 24.9198 12.2958 24.9183 12.3246C24.9168 12.3534 24.9095 12.3816 24.8969 12.4075C24.8843 12.4335 24.8667 12.4566 24.845 12.4757C24.8234 12.4947 24.7982 12.5092 24.7708 12.5184L24.7652 12.5114ZM25.176 15.539C25.133 15.5393 25.091 15.5268 25.0551 15.5031C25.0193 15.4794 24.9913 15.4455 24.9747 15.4059C24.9581 15.3662 24.9537 15.3226 24.962 15.2804C24.9704 15.2382 24.991 15.1995 25.0214 15.1691C25.0518 15.1387 25.0905 15.1181 25.1327 15.1098C25.1748 15.1014 25.2185 15.1059 25.2582 15.1224C25.2978 15.139 25.3316 15.167 25.3553 15.2028C25.379 15.2387 25.3915 15.2808 25.3913 15.3237C25.3928 15.381 25.3716 15.4365 25.3323 15.4781C25.293 15.5198 25.2389 15.5442 25.1816 15.546L25.176 15.539Z" fill="#326CE5"/>
<g opacity="0.8">
<path opacity="0.8" d="M15.4178 6.5083C13.6728 6.5083 11.9671 7.02574 10.5162 7.99517C9.06536 8.96461 7.93456 10.3425 7.2668 11.9546C6.59904 13.5667 6.42432 15.3407 6.76474 17.0521C7.10516 18.7635 7.94543 20.3355 9.17929 21.5694C10.4131 22.8032 11.9852 23.6435 13.6966 23.9839C15.408 24.3243 17.1819 24.1496 18.794 23.4818C20.4061 22.8141 21.784 21.6833 22.7535 20.2324C23.7229 18.7816 24.2403 17.0758 24.2403 15.3309C24.2403 12.991 23.3108 10.7469 21.6563 9.09237C20.0017 7.43782 17.7577 6.5083 15.4178 6.5083ZM20.0394 15.7093C19.9625 16.6753 19.583 17.5925 18.9547 18.3303L20.5951 19.9708L20.0591 20.5082L18.4187 18.8678C17.6803 19.4952 16.7634 19.8747 15.7976 19.9525V22.2724H15.0379V19.9525C14.0721 19.8747 13.1552 19.4952 12.4169 18.8678L10.7765 20.5082L10.2405 19.9708L11.8809 18.3303C11.2986 17.6454 10.929 16.8053 10.8173 15.9133H8.46919V15.1325H10.7807C10.821 14.1037 11.2037 13.1178 11.8682 12.3314L10.2981 10.7543L10.8496 10.2028L12.4324 11.7855C13.2184 11.1215 14.2038 10.7392 15.2321 10.6994V8.3879H16.0129V10.7304C16.9915 10.8559 17.9042 11.2918 18.617 11.974L20.3883 10.2028L20.9412 10.7543L19.1348 12.5607C19.6563 13.2564 19.97 14.0857 20.0394 14.9524H22.3607V15.7107L20.0394 15.7093Z" fill="#326CE5"/>
<path opacity="0.8" d="M13.0488 18.2361C13.6168 18.6999 14.3086 18.9866 15.0382 19.0606V18.5569C14.4409 18.4889 13.8745 18.2549 13.4034 17.8816L13.0488 18.2361Z" fill="#326CE5"/>
<path opacity="0.8" d="M11.7192 15.9133C11.8212 16.5665 12.095 17.1807 12.5127 17.693L12.8658 17.3399C12.534 16.9253 12.3093 16.4353 12.2116 15.9133H11.7192Z" fill="#326CE5"/>
<path opacity="0.8" d="M15.2222 12.0838V11.59C14.4299 11.629 13.6705 11.9192 13.0542 12.4186L13.4087 12.7718C13.9287 12.3624 14.5616 12.1223 15.2222 12.0838Z" fill="#326CE5"/>
<path opacity="0.8" d="M12.8586 13.3232L12.5055 12.9701C12.0057 13.5861 11.7158 14.3457 11.6782 15.1381H12.172C12.2098 14.4772 12.4495 13.8437 12.8586 13.3232Z" fill="#326CE5"/>
<path opacity="0.8" d="M15.7979 18.5568V19.0605C16.5274 18.9865 17.2192 18.6998 17.7872 18.2361L17.4327 17.8829C16.9613 18.2558 16.395 18.4892 15.7979 18.5568Z" fill="#326CE5"/>
<path opacity="0.8" d="M17.9867 12.6043C17.4394 12.0879 16.749 11.7486 16.0059 11.6307V12.1246C16.619 12.2366 17.1866 12.5234 17.6407 12.9504L17.9867 12.6043Z" fill="#326CE5"/>
<path opacity="0.8" d="M18.1484 13.547C18.4213 13.9708 18.5914 14.4526 18.6451 14.9538H19.1473C19.0845 14.3233 18.8612 13.7193 18.4987 13.1995L18.1484 13.547Z" fill="#326CE5"/>
<path opacity="0.8" d="M17.9697 17.3456L18.3229 17.6987C18.7876 17.1313 19.0745 16.4392 19.1473 15.7094H18.645C18.5764 16.3069 18.3425 16.8735 17.9697 17.3456Z" fill="#326CE5"/>
<path opacity="0.8" d="M16.0734 15.3309C16.0734 15.2012 16.035 15.0745 15.9629 14.9667C15.8909 14.8589 15.7885 14.7748 15.6687 14.7252C15.5489 14.6756 15.4171 14.6626 15.2899 14.6879C15.1627 14.7132 15.0459 14.7756 14.9542 14.8673C14.8625 14.959 14.8001 15.0758 14.7748 15.203C14.7495 15.3302 14.7625 15.462 14.8121 15.5818C14.8617 15.7016 14.9458 15.804 15.0536 15.876C15.1614 15.9481 15.2881 15.9865 15.4178 15.9865C15.5917 15.9865 15.7584 15.9174 15.8814 15.7945C16.0044 15.6715 16.0734 15.5048 16.0734 15.3309Z" fill="#326CE5"/>
<path opacity="0.8" d="M17.9504 14.951C17.861 14.3724 17.579 13.841 17.1498 13.4428C16.6758 13.0105 16.0595 12.7672 15.418 12.759C15.3518 12.759 15.2899 12.7731 15.2252 12.7787C14.614 12.8225 14.039 13.0851 13.6056 13.5185C13.1723 13.9518 12.9097 14.5268 12.8659 15.1381C12.8659 15.2028 12.8462 15.2647 12.8462 15.3308C12.8531 15.8794 13.0323 16.4119 13.3583 16.8531C13.5096 17.0576 13.6902 17.2387 13.8943 17.3905C14.2309 17.6398 14.6237 17.8022 15.0381 17.8632C15.2888 17.9139 15.5471 17.9139 15.7978 17.8632C16.2121 17.8019 16.605 17.6396 16.9416 17.3905C17.1457 17.2387 17.3264 17.0576 17.4776 16.8531C17.727 16.5165 17.8894 16.1236 17.9504 15.7093C18.001 15.459 18.001 15.2012 17.9504 14.951ZM13.371 15.3308C13.3707 14.9259 13.4905 14.53 13.7153 14.1932C13.94 13.8564 14.2596 13.5938 14.6336 13.4386C15.0077 13.2835 15.4193 13.2427 15.8165 13.3216C16.2136 13.4004 16.5785 13.5952 16.8649 13.8815C17.1514 14.1677 17.3465 14.5324 17.4256 14.9295C17.5046 15.3267 17.4642 15.7383 17.3093 16.1124C17.1544 16.4866 16.892 16.8063 16.5554 17.0313C16.2187 17.2563 15.8229 17.3764 15.418 17.3764C14.8754 17.3761 14.3552 17.1605 13.9714 16.777C13.5877 16.3934 13.3717 15.8734 13.371 15.3308Z" fill="#326CE5"/>
</g>
<path d="M45.511 24.1533L40.252 16.5477V24.1533H36.4971V7.72095H40.252V14.8567L45.276 7.72095H49.5501L44.0098 15.7261L49.778 24.1533H45.511Z" fill="#326CE5"/>
<path d="M61.7102 12.4158V24.1534H58.193V23.0504C57.5585 23.9184 56.3852 24.4812 54.8362 24.4812C52.4642 24.4812 50.4453 22.7929 50.4453 19.6232V12.4158H53.9625V19.1069C53.9625 20.5616 54.8784 21.2426 56.0053 21.2426C57.2968 21.2426 58.1888 20.4913 58.1888 18.8241V12.4158H61.7102Z" fill="#326CE5"/>
<path d="M76.9237 18.2838C76.9237 21.7827 74.3913 24.4741 71.3131 24.4741C69.7402 24.4741 68.5907 23.9339 67.8155 23.0433V24.1463H64.2983V7.72095H67.8155V13.5215C68.5907 12.6296 69.7402 12.0893 71.3131 12.0893C74.3885 12.0865 76.9237 14.7877 76.9237 18.2838ZM73.4065 18.2838C73.4065 16.5238 72.2332 15.4208 70.6138 15.4208C68.9945 15.4208 67.8198 16.5238 67.8198 18.2838C67.8198 20.0438 68.9931 21.1482 70.6138 21.1482C72.2346 21.1482 73.4023 20.0452 73.4023 18.2838H73.4065Z" fill="#326CE5"/>
<path d="M84.8828 21.3367C85.8465 21.3367 86.6681 20.9597 87.1338 20.4434L89.9476 22.0641C88.7967 23.6609 87.0592 24.4811 84.8293 24.4811C80.8155 24.4811 78.3281 21.7827 78.3281 18.2908C78.3281 14.7989 80.8605 12.0935 84.5705 12.0935C87.999 12.0935 90.5328 14.7469 90.5328 18.2908C90.5342 18.7634 90.4871 19.2348 90.3921 19.6977H82.0676C82.5122 20.9133 83.5969 21.3367 84.8828 21.3367ZM87.0424 17.064C86.6681 15.7022 85.6116 15.2098 84.555 15.2098C83.217 15.2098 82.3251 15.8682 81.9973 17.0654L87.0424 17.064Z" fill="#326CE5"/>
<path d="M91.2461 7.72095H95.3542L98.9938 19.8103L102.632 7.72095H106.739L101.393 24.1533H96.6091L91.2461 7.72095Z" fill="#326CE5"/>
<path d="M118.666 12.4157V24.1533H115.149V23.0503C114.375 23.9409 113.225 24.4811 111.652 24.4811C108.578 24.4811 106.042 21.7827 106.042 18.2908C106.042 14.7989 108.575 12.0935 111.652 12.0935C113.225 12.0935 114.375 12.6337 115.149 13.5257V12.4227L118.666 12.4157ZM115.149 18.2838C115.149 16.5238 113.976 15.4208 112.357 15.4208C110.737 15.4208 109.563 16.5238 109.563 18.2838C109.563 20.0438 110.736 21.1482 112.357 21.1482C113.977 21.1482 115.145 20.0452 115.145 18.2838H115.149Z" fill="#326CE5"/>
<path d="M132.354 12.4158V24.1534H128.837V23.0504C128.202 23.9184 127.029 24.4812 125.48 24.4812C123.108 24.4812 121.089 22.7929 121.089 19.6232V12.4158H124.606V19.1069C124.606 20.5616 125.522 21.2426 126.649 21.2426C127.939 21.2426 128.832 20.4913 128.832 18.8241V12.4158H132.354Z" fill="#326CE5"/>
<path d="M134.938 7.01611H138.455V24.1534H134.938V7.01611Z" fill="#326CE5"/>
<path d="M145.5 15.7965V19.951C145.5 20.9598 146.368 21.054 147.918 20.9598V24.1534C143.316 24.6219 141.978 23.2375 141.978 19.951V15.7965H140.1V12.42H141.983V10.1858L145.5 9.12927V12.4158H147.918V15.7923L145.5 15.7965Z" fill="#326CE5"/>
<path d="M4.95378 39.8575H1.47275V42.439H5.54172V43.6029H0V35.2132H5.50097V36.3887H1.47275V38.7051H4.95378V39.8575Z" fill="#FC6011"/>
<path d="M18.4476 37.3683L18.4883 38.0885C18.954 37.5315 19.5652 37.253 20.322 37.253C21.6337 37.253 22.3012 37.9963 22.3244 39.483V43.6029H20.9099V39.5636C20.9099 39.168 20.8226 38.876 20.6479 38.6878C20.4772 38.4957 20.1958 38.3997 19.8039 38.3997C19.2334 38.3997 18.8085 38.6551 18.5291 39.1661V43.6029H17.1145V37.3683H18.4476Z" fill="#FC6011"/>
<path d="M36.0743 35.8528V37.3683H37.1862V38.4054H36.0743V41.8858C36.0743 42.124 36.1209 42.2968 36.2141 42.4044C36.3111 42.5081 36.4818 42.56 36.7263 42.56C36.8893 42.56 37.0542 42.5408 37.2211 42.5024V43.5856C36.899 43.674 36.5885 43.7182 36.2897 43.7182C35.2031 43.7182 34.6598 43.1247 34.6598 41.9377V38.4054H33.6236V37.3683H34.6598V35.8528H36.0743Z" fill="#FC6011"/>
<path d="M51.5764 43.7182C50.68 43.7182 49.9523 43.4397 49.3935 42.8827C48.8385 42.3218 48.5611 41.5766 48.5611 40.6469V40.4741C48.5611 39.8518 48.6814 39.2967 48.922 38.8088C49.1665 38.3171 49.508 37.9349 49.9465 37.6621C50.385 37.3894 50.874 37.253 51.4134 37.253C52.2711 37.253 52.9327 37.5238 53.3984 38.0655C53.868 38.6071 54.1028 39.3735 54.1028 40.3646V40.9293H49.9872C50.0299 41.444 50.2026 41.8512 50.5053 42.1509C50.8119 42.4505 51.1961 42.6003 51.6579 42.6003C52.306 42.6003 52.8338 42.341 53.2413 41.8224L54.0038 42.5427C53.7516 42.9153 53.4139 43.2053 52.9909 43.4128C52.5718 43.6164 52.1003 43.7182 51.5764 43.7182ZM51.4076 38.3766C51.0195 38.3766 50.7052 38.5111 50.4646 38.78C50.2278 39.0489 50.0765 39.4234 50.0105 39.9036H52.7057V39.7999C52.6747 39.3312 52.5485 38.9778 52.3273 38.7397C52.1061 38.4976 51.7996 38.3766 51.4076 38.3766Z" fill="#FC6011"/>
<path d="M69.0344 38.6475C68.8481 38.6167 68.656 38.6014 68.4581 38.6014C67.81 38.6014 67.3734 38.8472 67.1483 39.3389V43.6029H65.7338V37.3683H67.0843L67.1192 38.0655C67.4607 37.5238 67.9342 37.253 68.5396 37.253C68.7414 37.253 68.9083 37.2799 69.0402 37.3337L69.0344 38.6475Z" fill="#FC6011"/>
<path d="M85.9743 40.549C85.9743 41.5132 85.7531 42.2834 85.3107 42.8596C84.8682 43.432 84.2745 43.7182 83.5294 43.7182C82.8386 43.7182 82.2856 43.4935 81.8704 43.044V46H80.4558V37.3683H81.7598L81.818 38.0021C82.2332 37.5027 82.7979 37.253 83.5119 37.253C84.2803 37.253 84.8818 37.5373 85.3165 38.1058C85.755 38.6705 85.9743 39.4561 85.9743 40.4625V40.549ZM84.5656 40.428C84.5656 39.8057 84.4394 39.312 84.1872 38.9471C83.9388 38.5822 83.5818 38.3997 83.1161 38.3997C82.5379 38.3997 82.1226 38.6359 81.8704 39.1084V41.8743C82.1265 42.3583 82.5456 42.6003 83.1277 42.6003C83.5779 42.6003 83.9291 42.4217 84.1814 42.0644C84.4375 41.7033 84.5656 41.1578 84.5656 40.428Z" fill="#FC6011"/>
<path d="M101.005 38.6475C100.819 38.6167 100.626 38.6014 100.429 38.6014C99.7804 38.6014 99.3439 38.8472 99.1188 39.3389V43.6029H97.7042V37.3683H99.0547L99.0897 38.0655C99.4312 37.5238 99.9046 37.253 100.51 37.253C100.712 37.253 100.879 37.2799 101.011 37.3337L101.005 38.6475Z" fill="#FC6011"/>
<path d="M113.934 43.6029H112.519V37.3683H113.934V43.6029ZM112.432 35.7491C112.432 35.534 112.5 35.3553 112.636 35.2132C112.776 35.0711 112.973 35 113.23 35C113.486 35 113.684 35.0711 113.823 35.2132C113.963 35.3553 114.033 35.534 114.033 35.7491C114.033 35.9604 113.963 36.1371 113.823 36.2792C113.684 36.4175 113.486 36.4866 113.23 36.4866C112.973 36.4866 112.776 36.4175 112.636 36.2792C112.5 36.1371 112.432 35.9604 112.432 35.7491Z" fill="#FC6011"/>
<path d="M129.541 41.9089C129.541 41.6592 129.436 41.469 129.226 41.3384C129.021 41.2078 128.677 41.0925 128.196 40.9927C127.715 40.8928 127.313 40.766 126.991 40.6124C126.285 40.2743 125.932 39.7845 125.932 39.143C125.932 38.6052 126.161 38.1558 126.619 37.7947C127.077 37.4336 127.659 37.253 128.365 37.253C129.118 37.253 129.725 37.4374 130.187 37.8062C130.653 38.175 130.885 38.6532 130.885 39.241H129.471C129.471 38.9721 129.37 38.7493 129.168 38.5726C128.966 38.392 128.699 38.3017 128.365 38.3017C128.054 38.3017 127.8 38.3728 127.602 38.5149C127.408 38.6571 127.311 38.8472 127.311 39.0854C127.311 39.3005 127.402 39.4676 127.585 39.5867C127.767 39.7058 128.136 39.8268 128.691 39.9497C129.246 40.0688 129.68 40.2129 129.995 40.3819C130.313 40.5471 130.548 40.7468 130.699 40.9811C130.854 41.2155 130.932 41.4997 130.932 41.8339C130.932 42.3948 130.697 42.85 130.228 43.1996C129.758 43.5453 129.143 43.7182 128.382 43.7182C127.866 43.7182 127.406 43.626 127.003 43.4416C126.599 43.2572 126.285 43.0037 126.06 42.681C125.835 42.3583 125.722 42.0107 125.722 41.638H127.096C127.115 41.9684 127.241 42.2239 127.474 42.4044C127.707 42.5811 128.016 42.6695 128.4 42.6695C128.772 42.6695 129.056 42.6003 129.25 42.462C129.444 42.3199 129.541 42.1355 129.541 41.9089Z" fill="#FC6011"/>
<path d="M145.474 43.7182C144.577 43.7182 143.85 43.4397 143.291 42.8827C142.736 42.3218 142.458 41.5766 142.458 40.6469V40.4741C142.458 39.8518 142.579 39.2967 142.819 38.8088C143.064 38.3171 143.405 37.9349 143.844 37.6621C144.282 37.3894 144.771 37.253 145.311 37.253C146.168 37.253 146.83 37.5238 147.296 38.0655C147.765 38.6071 148 39.3735 148 40.3646V40.9293H143.884C143.927 41.444 144.1 41.8512 144.403 42.1509C144.709 42.4505 145.093 42.6003 145.555 42.6003C146.203 42.6003 146.731 42.341 147.138 41.8224L147.901 42.5427C147.649 42.9153 147.311 43.2053 146.888 43.4128C146.469 43.6164 145.998 43.7182 145.474 43.7182ZM145.305 38.3766C144.917 38.3766 144.602 38.5111 144.362 38.78C144.125 39.0489 143.974 39.4234 143.908 39.9036H146.603V39.7999C146.572 39.3312 146.446 38.9778 146.225 38.7397C146.003 38.4976 145.697 38.3766 145.305 38.3766Z" fill="#FC6011"/>
</svg>
