<svg xmlns="http://www.w3.org/2000/svg" width="64" height="64" fill="none" xmlns:v="https://vecta.io/nano"><path d="M31.658 1h.768a6.43 6.43 0 0 1 2.184.584l1.664.8 17.612 8.452 1.804.876a5.88 5.88 0 0 1 1.977 1.7 5.85 5.85 0 0 1 1.047 2.388l2.12 9.22 2.996 13.028a5.69 5.69 0 0 1-1.168 5.045l-14.219 17.67a6.35 6.35 0 0 1-2.593 2.044c-.743.296-1.536.446-2.336.441h-21.24c-.829 0-1.661.035-2.488-.02a5.47 5.47 0 0 1-2.277-.712 5.81 5.81 0 0 1-1.693-1.428L1.308 43.061a5.73 5.73 0 0 1-1.291-4.088 14.15 14.15 0 0 1 .426-2.178l4.088-17.714.844-3.629a5.62 5.62 0 0 1 3.109-3.831l13.369-6.394 7.515-3.612c.719-.343 1.495-.552 2.289-.616zm.365 60.268h11.483a4.05 4.05 0 0 0 1.865-.401c.581-.28 1.087-.695 1.475-1.21L55.88 48.43l5.349-6.645a3.82 3.82 0 0 0 .777-3.41l-1.007-4.38-4.088-17.737a4.2 4.2 0 0 0-.813-1.82c-.413-.532-.949-.958-1.561-1.24L41.226 6.871l-7.41-3.524a4.09 4.09 0 0 0-3.608 0L23.09 6.734l-13.644 6.52a3.82 3.82 0 0 0-1.41 1.075 3.85 3.85 0 0 0-.777 1.594l-1.606 6.931-3.533 15.29a4.56 4.56 0 0 0-.108 1.729 4.31 4.31 0 0 0 .955 2.087l4.601 5.702 9.693 12.055a4.03 4.03 0 0 0 1.471 1.183c.577.272 1.211.403 1.849.382l11.442-.015zm-.027-51.305A22.85 22.85 0 0 0 9.579 37.272c.881 4.433 3.058 8.505 6.254 11.702a22.85 22.85 0 0 0 39.013-16.158c0-6.06-2.407-11.872-6.692-16.158a22.85 22.85 0 0 0-16.157-6.694zm16.128 10.578a.45.45 0 0 1 .708.434.45.45 0 0 1-.808.194.45.45 0 0 1-.079-.334.46.46 0 0 1 .178-.294zm-4.581-4.38c.052-.071.124-.126.207-.156a.45.45 0 0 1 .483.116.45.45 0 0 1 .113.233c.014.087.002.177-.035.257a.45.45 0 0 1-.172.194c-.075.046-.163.069-.251.066a.45.45 0 0 1-.245-.085c-.048-.034-.089-.078-.12-.128a.44.44 0 0 1-.061-.165c-.009-.059-.007-.118.007-.175s.039-.112.074-.159v.003zm-5.147-3.042a.45.45 0 0 1 .068.828.45.45 0 0 1-.635-.536.45.45 0 0 1 .567-.294v.003zm-6.4-1.013a.45.45 0 0 1 .318.768.45.45 0 0 1-.767-.318.43.43 0 0 1 .033-.173c.023-.055.055-.105.097-.147s.092-.075.147-.098a.45.45 0 0 1 .173-.034v.003zm-6.4 1.013a.45.45 0 0 1 .536.635.45.45 0 0 1-.828-.068.45.45 0 0 1 .026-.346c.027-.053.065-.1.11-.138s.099-.067.156-.085v.003zm-5.775 2.943a.45.45 0 0 1 .71.433.45.45 0 0 1-.809.192.45.45 0 0 1 .099-.628v.003zM15.24 20.64a.45.45 0 0 1 .808.194.45.45 0 0 1-.708.434.45.45 0 0 1-.178-.293c-.018-.117.01-.238.079-.334zm-3.504 12.622a.45.45 0 0 1-.321-.767.45.45 0 0 1 .767.321.45.45 0 0 1-.447.447zm1.13 6.239a.45.45 0 0 1-.536-.635.45.45 0 0 1 .828.072.45.45 0 0 1 .02.175c-.005.059-.022.116-.049.169s-.065.099-.111.137a.44.44 0 0 1-.155.083h.003zm-.292-12.522a.45.45 0 0 1-.068-.828.45.45 0 0 1 .635.536.45.45 0 0 1-.555.292h-.012zm3.282 18.102a.45.45 0 0 1-.71-.433.45.45 0 0 1 .809-.192.45.45 0 0 1 .087.333.45.45 0 0 1-.175.297l-.012-.006zm4.581 4.38a.45.45 0 0 1-.809-.192.45.45 0 0 1 .71-.433.45.45 0 0 1 .111.634l-.012-.009zm5.147 3.042a.45.45 0 0 1-.072-.828.45.45 0 0 1 .635.536.45.45 0 0 1-.552.301l-.012-.009zm6.4 1.013a.45.45 0 0 1-.321-.767.45.45 0 0 1 .767.321.45.45 0 0 1-.435.455l-.012-.009zm6.4-1.013a.45.45 0 0 1-.536-.635.45.45 0 0 1 .828.068.45.45 0 0 1-.28.575l-.012-.009zm5.772-2.943c-.072.052-.157.081-.245.084s-.175-.02-.251-.066-.135-.114-.172-.194-.049-.17-.035-.257a.45.45 0 0 1 .337-.364.45.45 0 0 1 .259.015c.083.03.155.085.207.156a.45.45 0 0 1 .079.159.46.46 0 0 1 .011.177c-.008.059-.028.116-.059.167a.45.45 0 0 1-.119.131l-.012-.009zm4.584-4.581a.45.45 0 0 1-.809-.192.45.45 0 0 1 .71-.433.45.45 0 0 1 .111.633l-.012-.009zM31.984 51.11a18.31 18.31 0 0 1-12.947-31.256 18.31 18.31 0 0 1 31.256 12.947 18.31 18.31 0 0 1-18.297 18.324l-.012-.015zm19.133-11.623a.45.45 0 0 1-.072-.828.45.45 0 0 1 .635.536c-.033.114-.109.21-.212.267s-.226.072-.339.039l-.012-.015zm.277-12.522a.45.45 0 0 1-.536-.635.45.45 0 0 1 .828.072.45.45 0 0 1-.281.578l-.012-.015zm.853 6.283a.45.45 0 0 1-.321-.767.45.45 0 0 1 .767.321.45.45 0 0 1-.435.461l-.012-.015z" fill="#326ce5"/><path opacity=".64" d="M31.996 14.507a18.31 18.31 0 0 0-12.947 31.256 18.31 18.31 0 0 0 31.256-12.947 18.31 18.31 0 0 0-18.309-18.309zm9.591 19.095a9.56 9.56 0 0 1-2.251 5.439l3.404 3.404-1.112 1.115-3.404-3.404c-1.532 1.302-3.435 2.09-5.439 2.251v4.815h-1.577v-4.815c-2.004-.161-3.907-.949-5.439-2.251l-3.404 3.404-1.112-1.115 3.404-3.404a9.58 9.58 0 0 1-2.207-5.016h-4.873v-1.62h4.797a9.59 9.59 0 0 1 2.257-5.813l-3.258-3.273 1.145-1.145 3.285 3.285c1.631-1.378 3.676-2.172 5.81-2.254v-4.797h1.62v4.861a9.58 9.58 0 0 1 5.404 2.581l3.676-3.676 1.147 1.145-3.749 3.749a9.55 9.55 0 0 1 1.877 4.963h4.818v1.574l-4.818-.003zM27.08 38.845c1.179.962 2.614 1.557 4.128 1.711v-1.045a6.68 6.68 0 0 1-3.393-1.401l-.736.736zm-2.759-4.82a7.73 7.73 0 0 0 1.647 3.693l.733-.733c-.689-.861-1.155-1.877-1.358-2.961h-1.022zm7.27-7.948v-1.025a7.75 7.75 0 0 0-4.499 1.72l.736.733a6.71 6.71 0 0 1 3.763-1.428zm-4.905 2.573l-.733-.733c-1.037 1.278-1.639 2.855-1.717 4.499h1.025a6.71 6.71 0 0 1 1.425-3.766zm6.099 10.861v1.045c1.514-.154 2.95-.748 4.128-1.711l-.736-.733a6.68 6.68 0 0 1-3.393 1.398zm4.543-12.353c-1.136-1.072-2.569-1.776-4.111-2.02v1.025c1.272.233 2.45.828 3.393 1.714l.718-.718zm.336 1.956a6.73 6.73 0 0 1 1.031 2.92h1.042a7.7 7.7 0 0 0-1.346-3.641l-.727.721zm-.371 7.883l.733.733c.965-1.178 1.56-2.614 1.711-4.128h-1.042a6.72 6.72 0 0 1-1.401 3.396zm-3.936-4.181a1.36 1.36 0 0 0-2.323-.962 1.36 1.36 0 0 0 .962 2.323 1.36 1.36 0 0 0 1.361-1.361zm3.895-.788a5.39 5.39 0 0 0-1.661-3.13 5.44 5.44 0 0 0-3.594-1.419c-.137 0-.266.029-.4.041-1.269.091-2.462.636-3.361 1.535a5.29 5.29 0 0 0-1.535 3.361c0 .134-.041.263-.041.4a5.43 5.43 0 0 0 1.063 3.159 5.39 5.39 0 0 0 1.112 1.115 5.28 5.28 0 0 0 2.374.981 3.98 3.98 0 0 0 1.577 0 5.29 5.29 0 0 0 2.374-.981c.424-.315.798-.691 1.112-1.115a5.28 5.28 0 0 0 .981-2.374 3.97 3.97 0 0 0 0-1.574zm-9.504.788a4.25 4.25 0 0 1 7.251-3.008 4.25 4.25 0 0 1 .922 4.63c-.321.776-.866 1.44-1.565 1.907a4.25 4.25 0 0 1-6.608-3.529z" fill="#326ce5"/></svg>