<svg xmlns="http://www.w3.org/2000/svg" xmlns:xlink="http://www.w3.org/1999/xlink" width="64" height="64" fill="none" xmlns:v="https://vecta.io/nano"><g clip-path="url(#A)"><g fill="#326ce5"><path d="M31.391 0h.567a4.76 4.76 0 0 1 1.614.431l1.23.591 13.012 6.245 1.333.647a4.34 4.34 0 0 1 2.235 3.02l1.566 6.813 2.213 9.626a4.21 4.21 0 0 1 .017 1.968 4.2 4.2 0 0 1-.88 1.76L43.792 44.156a4.69 4.69 0 0 1-1.916 1.51c-.549.219-1.135.33-1.726.326H24.457c-.613 0-1.227.026-1.838-.015a4.04 4.04 0 0 1-1.683-.526c-.481-.268-.906-.626-1.251-1.055L8.966 31.077a4.23 4.23 0 0 1-.953-3.02 10.47 10.47 0 0 1 .315-1.609l3.02-13.088.624-2.681a4.15 4.15 0 0 1 2.297-2.83l9.878-4.724 5.552-2.67A4.83 4.83 0 0 1 31.391 0h0zm.27 44.529h8.484c.476.012.949-.089 1.378-.297a3.01 3.01 0 0 0 1.09-.894l6.675-8.295 3.952-4.91a2.83 2.83 0 0 0 .592-1.19c.1-.438.094-.894-.018-1.329l-.744-3.236-3.02-13.105a3.1 3.1 0 0 0-1.754-2.261L38.46 4.338l-5.475-2.604a3.02 3.02 0 0 0-2.666 0L25.06 4.236 14.979 9.053a2.84 2.84 0 0 0-1.042.794c-.281.342-.477.746-.574 1.178l-1.187 5.121-2.61 11.297a3.37 3.37 0 0 0-.08 1.277c.091.569.335 1.102.705 1.542l3.4 4.213 7.162 8.907c.288.373.66.673 1.087.874a2.97 2.97 0 0 0 1.366.282l8.454-.011zm-.02-37.906a16.88 16.88 0 0 0-9.381 2.845c-2.777 1.856-4.941 4.492-6.22 7.577a16.88 16.88 0 0 0-.962 9.756c.651 3.276 2.259 6.284 4.62 8.646s5.37 3.97 8.645 4.621a16.9 16.9 0 0 0 9.756-.96c3.086-1.277 5.722-3.442 7.578-6.219a16.88 16.88 0 0 0 2.846-9.381c0-4.478-1.779-8.772-4.945-11.938s-7.46-4.946-11.938-4.946h0zm11.917 7.816c.053-.039.117-.061.182-.063a.33.33 0 0 1 .341.384.33.33 0 0 1-.084.174c-.045.049-.103.082-.166.098s-.131.011-.193-.011-.115-.063-.154-.116c-.051-.071-.072-.16-.059-.247a.33.33 0 0 1 .132-.217h0zm-3.385-3.236a.33.33 0 0 1 .593.142.33.33 0 0 1-.519.319.33.33 0 0 1-.089-.095c-.023-.037-.038-.079-.045-.122a.33.33 0 0 1 .06-.247v.002zM36.37 8.955c.062.02.118.058.158.11s.065.114.071.179a.33.33 0 0 1-.041.188c-.032.057-.08.104-.138.134s-.124.042-.19.035a.33.33 0 0 1-.177-.076c-.05-.042-.087-.099-.105-.162s-.017-.13.003-.193a.33.33 0 0 1 .062-.114.34.34 0 0 1 .102-.082c.039-.021.081-.033.125-.036s.088.001.13.015v.002zm-4.729-.749a.33.33 0 0 1 .307.205c.025.061.032.127.019.192s-.044.124-.091.17a.34.34 0 0 1-.17.091c-.064.013-.131.006-.192-.019a.33.33 0 0 1-.149-.122c-.036-.054-.056-.119-.056-.185a.33.33 0 0 1 .332-.334v.002zm-4.729.749c.063-.02.13-.021.193-.003s.119.055.162.105.069.112.076.177a.34.34 0 0 1-.035.19.33.33 0 0 1-.134.138c-.057.032-.123.046-.188.041s-.128-.03-.179-.071-.09-.096-.11-.158a.33.33 0 0 1 .216-.421v.002zm-4.267 2.174c.053-.039.117-.061.182-.064s.131.014.187.048a.34.34 0 0 1 .129.144.33.33 0 0 1 .026.191c-.01.065-.04.126-.084.174a.33.33 0 0 1-.167.097c-.064.015-.131.011-.193-.012s-.115-.064-.154-.117a.33.33 0 0 1 .074-.464v.002zm-3.385 3.383c.039-.053.092-.094.154-.116a.33.33 0 0 1 .193-.011c.064.015.122.049.166.097s.074.109.084.174a.33.33 0 0 1-.155.335.34.34 0 0 1-.187.049.33.33 0 0 1-.182-.063c-.071-.052-.118-.13-.132-.217s.007-.175.058-.247h0zm-2.589 9.326c-.066 0-.13-.019-.185-.055s-.098-.088-.123-.149-.032-.128-.019-.192.044-.124.091-.171.106-.078.171-.091a.33.33 0 0 1 .341.142.33.33 0 0 1-.042.418.33.33 0 0 1-.233.097h0zm.835 4.61c-.063.02-.13.021-.193.003s-.12-.055-.162-.105-.069-.112-.076-.177a.34.34 0 0 1 .035-.19.32.32 0 0 1 .135-.138c.058-.031.123-.046.189-.04a.33.33 0 0 1 .179.072c.051.041.089.097.109.159a.33.33 0 0 1 .015.129.34.34 0 0 1-.036.125.33.33 0 0 1-.196.163h.002zm-.216-9.252c-.062-.02-.118-.058-.158-.11s-.065-.114-.071-.179.009-.131.041-.188.08-.104.138-.134.124-.042.19-.035a.33.33 0 0 1 .282.238c.018.063.017.13-.003.193-.027.082-.085.151-.161.191s-.166.049-.249.025h-.009zm2.425 13.375a.33.33 0 0 1-.369.016.34.34 0 0 1-.129-.144c-.028-.059-.037-.126-.027-.192a.33.33 0 0 1 .085-.174c.045-.049.103-.082.167-.097a.33.33 0 0 1 .193.012c.062.023.115.064.154.117.026.035.046.075.057.117s.014.086.008.13a.33.33 0 0 1-.129.219l-.009-.004zm3.385 3.236c-.038.053-.092.094-.154.117s-.129.027-.193.012a.33.33 0 0 1-.167-.097c-.045-.048-.074-.109-.084-.174a.33.33 0 0 1 .342-.384.33.33 0 0 1 .274.158.34.34 0 0 1 .048.122c.008.043.006.088-.003.132a.31.31 0 0 1-.054.12l-.009-.006zm3.803 2.248c-.063-.02-.118-.058-.159-.109s-.066-.114-.072-.179a.33.33 0 0 1 .04-.189c.032-.058.08-.105.138-.135a.33.33 0 0 1 .19-.035.34.34 0 0 1 .177.076c.05.042.087.099.105.162s.017.13-.003.193a.33.33 0 0 1-.159.194c-.077.041-.166.052-.249.028l-.009-.006zm4.729.749a.33.33 0 0 1-.185-.055c-.055-.036-.098-.088-.123-.149s-.032-.128-.019-.193a.34.34 0 0 1 .091-.171c.046-.047.106-.078.171-.091a.33.33 0 0 1 .341.142.34.34 0 0 1 .055.185c.001.087-.032.171-.092.234s-.143.1-.23.103l-.009-.006zm4.729-.748c-.062.02-.13.021-.193.002s-.119-.055-.162-.105-.069-.112-.076-.177a.34.34 0 0 1 .035-.19.33.33 0 0 1 .134-.138c.057-.032.123-.046.188-.041s.128.03.179.071.09.096.11.158a.33.33 0 0 1-.015.255c-.019.04-.046.075-.079.104s-.072.051-.113.065l-.009-.006zm4.265-2.175a.33.33 0 0 1-.519-.319.33.33 0 0 1 .593-.142.33.33 0 0 1-.065.468l-.009-.006zm3.387-3.385c-.038.053-.092.094-.154.117s-.129.027-.193.012-.122-.049-.167-.097-.074-.109-.084-.174a.33.33 0 0 1 .026-.192c.028-.06.072-.11.129-.144s.121-.051.187-.048a.33.33 0 0 1 .274.158c.024.037.04.079.048.123a.32.32 0 0 1-.003.131c-.01.043-.028.084-.054.12l-.009-.007zm-12.38 4.53c-2.676 0-5.291-.793-7.516-2.28a13.53 13.53 0 0 1 4.877-24.516c2.624-.522 5.344-.254 7.816.77a13.53 13.53 0 0 1 4.396 22.068 13.53 13.53 0 0 1-9.564 3.969l-.009-.011zm14.136-8.588c-.063-.02-.118-.058-.159-.109s-.066-.114-.072-.179a.33.33 0 0 1 .178-.324c.058-.03.124-.043.19-.035s.127.034.177.076.087.099.105.162.017.13-.003.193a.33.33 0 0 1-.408.226l-.009-.011zm.205-9.252c-.063.02-.13.021-.193.003s-.12-.055-.162-.105-.069-.112-.076-.177a.34.34 0 0 1 .035-.19.32.32 0 0 1 .135-.138c.058-.031.123-.046.189-.04s.128.031.179.072.089.097.109.159a.34.34 0 0 1 .019.13c-.002.044-.014.087-.033.127a.33.33 0 0 1-.08.105c-.033.029-.072.052-.114.066l-.009-.011zm.63 4.642c-.066 0-.13-.019-.185-.055s-.098-.088-.123-.149-.032-.128-.02-.192a.33.33 0 0 1 .262-.262.33.33 0 0 1 .341.142c.036.055.055.119.055.185.002.088-.03.173-.09.237a.33.33 0 0 1-.231.104l-.009-.011z"/></g><g opacity=".8" fill="#326ce5"><path opacity=".8" d="M31.641 9.979a13.53 13.53 0 0 0-9.566 23.094 13.53 13.53 0 0 0 23.094-9.565A13.53 13.53 0 0 0 31.641 9.979zm7.087 14.108c-.118 1.481-.7 2.888-1.663 4.019l2.515 2.515-.822.824-2.515-2.515c-1.132.962-2.538 1.544-4.019 1.663v3.557h-1.165v-3.557c-1.481-.119-2.887-.701-4.019-1.663l-2.515 2.515-.822-.824 2.515-2.515a7.08 7.08 0 0 1-1.631-3.706h-3.6v-1.197h3.544c.062-1.578.649-3.089 1.668-4.295l-2.407-2.418.846-.846 2.427 2.427c1.205-1.018 2.716-1.604 4.293-1.665v-3.544h1.197v3.592a7.08 7.08 0 0 1 3.993 1.907l2.716-2.716.848.846-2.77 2.77a7.05 7.05 0 0 1 1.387 3.667h3.559v1.163l-3.559-.002zm-10.72 3.875a5.74 5.74 0 0 0 3.05 1.264v-.772a4.93 4.93 0 0 1-2.507-1.036l-.544.544zM25.97 24.4a5.71 5.71 0 0 0 1.217 2.729l.542-.541a4.96 4.96 0 0 1-1.003-2.187h-.755zm5.371-5.872v-.757a5.73 5.73 0 0 0-3.324 1.271l.544.542a4.96 4.96 0 0 1 2.781-1.055zm-3.624 1.901l-.541-.541c-.766.945-1.211 2.109-1.268 3.324h.757a4.96 4.96 0 0 1 1.053-2.783h0zm4.506 8.025v.772a5.74 5.74 0 0 0 3.05-1.264l-.544-.541c-.723.572-1.591.93-2.507 1.033h0zm3.357-9.127c-.839-.792-1.898-1.312-3.037-1.493v.757a4.96 4.96 0 0 1 2.507 1.266l.531-.531zm.248 1.445a4.96 4.96 0 0 1 .761 2.157h.77a5.69 5.69 0 0 0-.994-2.69l-.537.533zm-.274 5.824l.541.541a5.71 5.71 0 0 0 1.264-3.05h-.77a4.96 4.96 0 0 1-1.035 2.509h0zm-2.908-3.089a1.01 1.01 0 0 0-.169-.559c-.11-.166-.267-.294-.451-.37s-.386-.096-.581-.057-.374.134-.515.275-.236.32-.275.515-.019.397.057.581a1 1 0 0 0 .37.451 1.01 1.01 0 0 0 1.269-.125 1 1 0 0 0 .294-.711h0zm2.878-.582a3.98 3.98 0 0 0-1.227-2.312 4.02 4.02 0 0 0-2.655-1.049c-.101 0-.196.022-.296.03a3.91 3.91 0 0 0-3.617 3.617c0 .099-.03.194-.03.296.011.841.285 1.658.785 2.334a3.97 3.97 0 0 0 .822.824 3.9 3.9 0 0 0 1.754.725 2.94 2.94 0 0 0 1.165 0 3.91 3.91 0 0 0 1.754-.725 3.97 3.97 0 0 0 .822-.824 3.9 3.9 0 0 0 .725-1.754 2.92 2.92 0 0 0 0-1.163zm-7.022.582a3.14 3.14 0 0 1 5.357-2.222 3.14 3.14 0 0 1-2.219 5.359 3.14 3.14 0 0 1-3.139-3.137z"/></g><g fill="#fc6011"><path d="M5.986 57.94H2.482v2.625h4.096v1.183H1v-8.531h5.537v1.195H2.482v2.355h3.504v1.172zm3.833-2.532l.041.732c.469-.566 1.084-.85 1.846-.85 1.32 0 1.992.756 2.016 2.268v4.189h-1.424V57.64c0-.402-.088-.699-.264-.891s-.455-.293-.85-.293c-.574 0-1.002.26-1.283.779v4.512H8.477v-6.34h1.342zm7.992-1.541v1.541h1.119v1.055h-1.119v3.539c0 .242.047.418.141.527s.269.158.516.158a2.19 2.19 0 0 0 .498-.059v1.102a3.5 3.5 0 0 1-.937.135c-1.094 0-1.641-.604-1.641-1.811v-3.592h-1.043v-1.055h1.043v-1.541h1.424zm5.854 7.998c-.902 0-1.635-.283-2.197-.85s-.838-1.328-.838-2.273v-.176c0-.633.121-1.197.363-1.693a2.8 2.8 0 0 1 1.031-1.166 2.72 2.72 0 0 1 1.477-.416c.863 0 1.529.275 1.998.826s.709 1.33.709 2.338v.574h-4.143c.043.523.217.938.521 1.242s.695.457 1.16.457c.652 0 1.184-.264 1.594-.791l.768.732a2.58 2.58 0 0 1-1.02.885 3.19 3.19 0 0 1-1.424.311zm-.17-5.432c-.391 0-.707.137-.949.41s-.391.654-.457 1.142h2.713v-.105c-.031-.477-.158-.836-.381-1.078s-.531-.369-.926-.369z"/><use xlink:href="#B"/><path d="M38.789 58.643c0 .98-.223 1.764-.668 2.35a2.14 2.14 0 0 1-1.793.873c-.695 0-1.252-.229-1.67-.686v3.006h-1.424v-8.777h1.313l.059.645c.418-.508.986-.762 1.705-.762.774 0 1.379.289 1.817.867s.662 1.373.662 2.396v.088zm-1.418-.123c0-.633-.127-1.135-.381-1.506a1.22 1.22 0 0 0-1.078-.557c-.582 0-1 .24-1.254.721v2.813c.258.492.68.738 1.266.738a1.22 1.22 0 0 0 1.061-.545c.258-.367.387-.922.387-1.664zm6.797-1.811a3.52 3.52 0 0 0-.58-.047c-.652 0-1.092.25-1.318.75v4.336h-1.424v-6.34h1.359l.035.709c.344-.551.82-.826 1.43-.826.203 0 .371.027.504.082l-.006 1.336zm3.264 5.039h-1.424v-6.34h1.424v6.34zm-1.512-7.986a.76.76 0 0 1 .205-.545c.141-.145.34-.217.598-.217s.457.072.598.217a.75.75 0 0 1 .211.545.74.74 0 0 1-.211.539c-.141.144-.34.211-.598.211s-.457-.07-.598-.211a.73.73 0 0 1-.205-.539zm7.472 6.263c0-.254-.106-.447-.316-.58s-.553-.25-1.037-.352-.889-.23-1.213-.387c-.711-.344-1.066-.842-1.066-1.494 0-.547.23-1.004.691-1.371s1.047-.551 1.758-.551c.758 0 1.369.188 1.834.563a1.78 1.78 0 0 1 .703 1.459h-1.424a.87.87 0 0 0-.305-.68c-.203-.184-.473-.275-.809-.275-.312 0-.568.072-.768.217s-.293.338-.293.58c0 .219.092.389.275.51s.555.244 1.113.369.996.268 1.313.44.557.371.709.609a1.58 1.58 0 0 1 .234.867c0 .57-.236 1.033-.709 1.389s-1.092.527-1.857.527c-.52 0-.982-.094-1.389-.281s-.723-.445-.949-.774a1.83 1.83 0 0 1-.34-1.06h1.383c.02.336.146.596.381.779s.545.27.932.27c.375 0 .66-.07.855-.211a.67.67 0 0 0 .293-.562zm6.287 1.84c-.902 0-1.635-.283-2.197-.85s-.838-1.328-.838-2.273v-.176c0-.633.121-1.197.363-1.693a2.8 2.8 0 0 1 1.031-1.166 2.72 2.72 0 0 1 1.477-.416c.863 0 1.529.275 1.998.826s.709 1.33.709 2.338v.574H58.08c.043.523.217.938.521 1.242s.695.457 1.16.457c.652 0 1.184-.264 1.594-.791l.768.732a2.58 2.58 0 0 1-1.02.885c-.422.207-.896.311-1.424.311zm-.17-5.432c-.391 0-.707.137-.949.41s-.391.654-.457 1.142h2.713v-.105c-.031-.477-.158-.836-.381-1.078s-.531-.369-.926-.369z"/></g></g><defs><clipPath id="A"><path fill="#fff" d="M0 0h64v64H0z"/></clipPath><path id="B" d="M31.488 56.709a3.52 3.52 0 0 0-.58-.047c-.652 0-1.092.25-1.318.75v4.336h-1.424v-6.34h1.359l.035.709c.344-.551.82-.826 1.43-.826.203 0 .371.027.504.082l-.006 1.336z"/></defs></svg>