<svg xmlns="http://www.w3.org/2000/svg" viewBox="0 0 1279 639" xmlns:v="https://vecta.io/nano"><path d="M638.27 109.1h2.8a23.79 23.79 0 0 1 8 2.13l6.08 2.92L719.46 145l6.59 3.2a21.49 21.49 0 0 1 11.05 14.93l7.74 33.67 10.94 47.59a20.78 20.78 0 0 1-4.25 18.43q-26 32.28-51.94 64.55a23.41 23.41 0 0 1-9.47 7.51 22.8 22.8 0 0 1-8.57 1.6q-38.79 0-77.58 0c-3 0-6.07.14-9.09-.08a19.67 19.67 0 0 1-8.32-2.6 21.07 21.07 0 0 1-6.18-5.21q-26.5-32.91-53-65.85a20.91 20.91 0 0 1-4.71-14.94 48.8 48.8 0 0 1 1.56-7.95q7.42-32.35 14.9-64.71l3.09-13.26a20.52 20.52 0 0 1 11.35-14q24.39-11.76 48.84-23.37l27.5-13.14a24.08 24.08 0 0 1 8.36-2.27zm1.33 220.15h41.95a14.8 14.8 0 0 0 12.19-5.88q16.46-20.53 33-41 9.78-12.14 19.54-24.27a14 14 0 0 0 2.84-12.47q-1.83-8-3.68-16-7.47-32.38-14.9-64.79a15.3 15.3 0 0 0-8.67-11.17l-48.69-23.17q-13.53-6.44-27.06-12.87a15 15 0 0 0-13.19 0l-26 12.38q-24.93 11.9-49.84 23.81a14 14 0 0 0-8 9.74l-5.87 25.32q-6.43 27.93-12.89 55.85a16.86 16.86 0 0 0-.4 6.31 15.73 15.73 0 0 0 3.49 7.63q8.45 10.38 16.8 20.83 17.73 22 35.45 44a14.71 14.71 0 0 0 12.12 5.72zm-.1-187.4a83.47 83.47 0 1 0 83.5 83.47 83.47 83.47 0 0 0-83.5-83.47zm58.92 38.64a1.64 1.64 0 1 1-.36 2.28 1.63 1.63 0 0 1 .36-2.28zm-16.74-16a1.64 1.64 0 1 1 .36 2.28 1.64 1.64 0 0 1-.36-2.29zm-18.8-11.11a1.63 1.63 0 1 1-2.07 1 1.63 1.63 0 0 1 2.07-1.01zm-23.38-3.7a1.64 1.64 0 1 1-1.64 1.63 1.64 1.64 0 0 1 1.64-1.64zm-23.38 3.7a1.63 1.63 0 1 1-1 2.06 1.64 1.64 0 0 1 1-2.07zM595 164.11a1.64 1.64 0 1 1-.36 2.29 1.63 1.63 0 0 1 .36-2.29zm-16.7 16.74a1.64 1.64 0 1 1 .36 2.29 1.63 1.63 0 0 1-.36-2.29zM565.49 227a1.64 1.64 0 1 1 1.63-1.63 1.63 1.63 0 0 1-1.63 1.63zm4.12 22.8a1.64 1.64 0 1 1 1.06-2.07 1.65 1.65 0 0 1-1.06 2.02zm-1-45.75a1.63 1.63 0 1 1 2.07-1.05 1.63 1.63 0 0 1-2.08 1zm12 66.15a1.64 1.64 0 0 1-1.92-2.65 1.64 1.64 0 1 1 1.92 2.65zm16.74 16a1.64 1.64 0 1 1-.36-2.29 1.64 1.64 0 0 1 .33 2.25zm18.8 11.11a1.64 1.64 0 1 1-.03-.04zM639.5 301a1.64 1.64 0 1 1 1.64-1.64 1.64 1.64 0 0 1-1.64 1.64zm23.38-3.7a1.64 1.64 0 1 1-1-3.12 1.64 1.64 0 0 1 1 3.12zM684 286.52a1.64 1.64 0 1 1 .36-2.29 1.64 1.64 0 0 1-.36 2.29zm16.73-16.74a1.63 1.63 0 1 1-.36-2.28 1.62 1.62 0 0 1 .33 2.28zM639.5 292.2a66.88 66.88 0 1 1 66.88-66.88 66.88 66.88 0 0 1-66.88 66.88zm69.89-42.45a1.64 1.64 0 1 1 2.06-1.06 1.64 1.64 0 0 1-2.06 1.06zm1-45.75a1.63 1.63 0 1 1 1.05-2.06 1.63 1.63 0 0 1-1.04 2.06zm3.12 23a1.64 1.64 0 1 1 1.64-1.63 1.63 1.63 0 0 1-1.64 1.63z" fill="#326ce5"/><g opacity=".8" fill="#326ce5"><path d="M639.5 158.44a66.88 66.88 0 1 0 66.88 66.88 66.88 66.88 0 0 0-66.88-66.88zm35 69.75a35 35 0 0 1-8.23 19.87l12.44 12.44-4.07 4.07-12.43-12.44a35 35 0 0 1-19.87 8.22V278h-5.76v-17.6a35 35 0 0 1-19.87-8.22l-12.43 12.44-4.07-4.07 12.44-12.44a35 35 0 0 1-8.06-18.29h-17.72v-5.91h17.52a35 35 0 0 1 8.24-21.23l-12-12 4.19-4.18 12 12a35 35 0 0 1 21.18-8.29v-17.52h6v17.76a35 35 0 0 1 19.8 9.43l13.43-13.43 4.18 4.18-13.69 13.69a34.92 34.92 0 0 1 6.86 18.12h17.59v5.75zm-52.96 19.15a28.34 28.34 0 0 0 15.08 6.26v-3.82a24.48 24.48 0 0 1-12.39-5.12zm-10.08-17.57a28.21 28.21 0 0 0 6 13.5l2.68-2.68a24.47 24.47 0 0 1-5-10.82zM638 200.71V197a28.27 28.27 0 0 0-16.43 6.27l2.68 2.68a24.48 24.48 0 0 1 13.75-5.24zm-17.89 9.4l-2.68-2.68a28.28 28.28 0 0 0-6.28 16.43h3.74a24.49 24.49 0 0 1 5.22-13.75zm22.27 39.67v3.82a28.34 28.34 0 0 0 15.08-6.26l-2.68-2.68a24.55 24.55 0 0 1-12.4 5.12zM659 204.65a28.28 28.28 0 0 0-15-7.37V201a24.64 24.64 0 0 1 12.4 6.27zm1.2 7.15a24.38 24.38 0 0 1 3.8 10.64h3.82a28.24 28.24 0 0 0-4.92-13.3zm-1.36 28.79l2.69 2.68a28.29 28.29 0 0 0 6.25-15.08H664a24.39 24.39 0 0 1-5.16 12.4zm-14.37-15.27a5 5 0 1 0-5 5 5 5 0 0 0 5-5zm14.23-2.88a19.23 19.23 0 0 0-2.37-6.77 19.66 19.66 0 0 0-16.83-9.84c-.5 0-1 .11-1.46.14a19.34 19.34 0 0 0-10 3.68 19.77 19.77 0 0 0-4.19 4.18 19.28 19.28 0 0 0-3.67 10c0 .49-.15 1-.15 1.46a19.78 19.78 0 0 0 3.88 11.54 18.5 18.5 0 0 0 18.49 7.66 19.38 19.38 0 0 0 8.67-3.59 19.87 19.87 0 0 0 4.07-4.07 21.22 21.22 0 0 0 3.86-11.51 19.51 19.51 0 0 0-.3-2.88zm-34.7 2.88a15.52 15.52 0 1 1 15.52 15.51A15.53 15.53 0 0 1 624 225.32z"/></g><path d="M291.09 527.45l-39.24-56.74v56.74h-28v-122.6h28v53.24l37.49-53.24h31.87l-41.33 59.72L323 527.45zM412 439.88v87.57h-26.32v-8.23c-4.73 6.48-13.48 10.69-25 10.69-17.69 0-32.76-12.62-32.76-36.26v-53.77h26.28v49.92c0 10.85 6.83 15.93 15.23 15.93 9.64 0 16.29-5.6 16.29-18v-47.85zm113.46 43.79c0 26.09-18.91 46.24-41.86 46.24-11.73 0-20.31-4-26.09-10.69v8.23h-26.28v-122.6h26.28v43.26c5.78-6.65 14.36-10.68 26.09-10.68 22.95 0 41.86 20.14 41.86 46.24zm-26.27 0c0-13.14-8.76-21.37-20.84-21.37s-20.84 8.23-20.84 21.37S466.26 505 478.35 505s20.84-8.2 20.84-21.33zm85.66 22.77c7.18 0 13.31-2.81 16.81-6.66l21 12.08c-8.58 11.92-21.55 18-38.18 18-30 0-48.51-20.15-48.51-46.24s18.91-46.24 46.58-46.24c25.57 0 44.48 19.79 44.48 46.24a51 51 0 0 1-1 10.51h-62.2c3.33 9.15 11.38 12.31 21.02 12.31zM601 474.56c-2.8-10.16-10.68-13.84-18.57-13.84-10 0-16.63 4.91-19.08 13.84zm31.32-69.71H663l27.15 90.2 27.15-90.2h30.65L708 527.45h-35.75zm204.59 35.03v87.57h-26.28v-8.23c-5.78 6.65-14.36 10.69-26.09 10.69-22.95 0-41.86-20.15-41.86-46.24s18.91-46.24 41.86-46.24c11.73 0 20.31 4 26.09 10.68v-8.23zm-26.28 43.79c0-13.14-8.75-21.37-20.84-21.37S769 470.53 769 483.67 777.7 505 789.79 505s20.84-8.2 20.84-21.33zM939 439.88v87.57h-26.24v-8.23c-4.73 6.48-13.49 10.69-25 10.69-17.76 0-32.76-12.62-32.76-36.26v-53.77h26.27v49.92c0 10.85 6.83 15.93 15.24 15.93 9.63 0 16.29-5.6 16.29-18v-47.85zm19.31-40.28h26.27v127.85h-26.27zm78.82 65.5v31c0 7.53 6.48 8.24 18 7.53v23.82c-34.33 3.5-44.31-6.83-44.31-31.35v-31h-14v-25.22h14v-16.64l26.27-7.88v24.52h18v25.22z" fill="#326ce5"/></svg>