<svg width="64" height="64" viewBox="0 0 64 64" fill="none" xmlns="http://www.w3.org/2000/svg">
<path d="M31.6579 1H32.4258C33.1825 1.06443 33.9218 1.26212 34.6097 1.58394C35.1644 1.85547 35.7192 2.11824 36.2739 2.38393L53.8854 10.8364C54.4898 11.1284 55.103 11.3941 55.6898 11.7123C56.4679 12.1237 57.1436 12.7046 57.6671 13.412C58.1907 14.1195 58.5486 14.9355 58.7146 15.7999C59.4124 18.8772 60.1277 21.9458 60.8343 25.0202C61.8348 29.3628 62.8333 33.7053 63.8299 38.0479C64.0484 38.9212 64.0565 39.834 63.8535 40.7111C63.6504 41.5882 63.2421 42.4046 62.662 43.0931C57.9224 48.985 53.1828 54.875 48.4432 60.763C47.7743 61.661 46.8798 62.3661 45.8505 62.8068C45.1077 63.1032 44.3145 63.2529 43.5147 63.2477C36.4355 63.2477 29.3552 63.2477 22.274 63.2477C21.4448 63.2477 20.6127 63.2827 19.7865 63.2272C18.9842 63.1602 18.2066 62.9169 17.5091 62.5148C16.8583 62.1519 16.2834 61.6672 15.8157 61.0871C10.9787 55.0784 6.14277 49.0697 1.30778 43.061C0.36484 41.9168 -0.0977455 40.4516 0.0172757 38.9734C0.102117 38.2373 0.244646 37.5091 0.443549 36.7953C1.80607 30.8917 3.16859 24.9872 4.53111 19.0816C4.80848 17.8699 5.06833 16.6554 5.3749 15.4524C5.5677 14.6195 5.94799 13.8415 6.48682 13.1777C7.02566 12.5139 7.70884 11.9818 8.48436 11.6218C12.934 9.47584 17.3952 7.35615 21.8536 5.2277L29.3689 1.61605C30.0879 1.27286 30.8637 1.06407 31.6579 1ZM32.0229 61.2681H43.506C44.1508 61.2847 44.7903 61.1471 45.3712 60.8668C45.9522 60.5865 46.4578 60.1715 46.8461 59.6565C49.8514 55.9095 52.8626 52.1675 55.8796 48.4303C57.6645 46.2171 59.4474 44.0021 61.2285 41.7851C61.62 41.3195 61.8947 40.7672 62.0297 40.174C62.1648 39.5809 62.1564 38.9641 62.0051 38.3749C61.6722 36.915 61.3365 35.4552 60.9978 33.9953C59.6372 28.083 58.2621 22.1765 56.9102 16.2583C56.7895 15.5951 56.5107 14.9707 56.0975 14.4381C55.6843 13.9055 55.1489 13.4803 54.5365 13.1984L41.2257 6.87148C38.7556 5.70361 36.2856 4.52892 33.8155 3.34742C33.2541 3.07124 32.6368 2.92762 32.0112 2.92762C31.3855 2.92762 30.7682 3.07124 30.2068 3.34742C27.8214 4.45106 25.4594 5.60142 23.0886 6.73426C18.5398 8.9104 13.9919 11.0836 9.44493 13.2539C8.89736 13.4971 8.41436 13.8651 8.03461 14.3285C7.65485 14.7919 7.38891 15.3378 7.25809 15.9225C6.70335 18.2261 6.18365 20.5414 5.65227 22.8538C4.48439 27.9516 3.30679 33.0484 2.11945 38.1442C1.97337 38.7082 1.9367 39.2949 2.01142 39.8727C2.13521 40.642 2.46515 41.3634 2.96616 41.9602C4.50775 43.8522 6.03474 45.7558 7.56758 47.6624C10.7967 51.6701 14.0279 55.6886 17.2609 59.7178C17.6505 60.2232 18.1547 60.6287 18.7319 60.9008C19.3092 61.1729 19.9428 61.3038 20.5806 61.2827L32.0229 61.2681Z" fill="#326CE5"/>
<path d="M31.9964 9.96346C27.4765 9.96288 23.058 11.3027 19.2995 13.8134C15.5411 16.3241 12.6116 19.8929 10.8815 24.0686C9.1514 28.2443 8.69844 32.8392 9.57987 37.2723C10.4613 41.7054 12.6376 45.7776 15.8334 48.9739C19.0292 52.1701 23.1011 54.3469 27.5341 55.2289C31.9671 56.1109 36.5621 55.6585 40.738 53.9289C44.9139 52.1994 48.4832 49.2703 50.9943 45.5122C53.5055 41.7541 54.8459 37.3357 54.8459 32.8158C54.8459 26.7555 52.4386 20.9434 48.1536 16.6578C43.8686 12.3722 38.0567 9.96423 31.9964 9.96346ZM48.1247 20.5415C48.1967 20.4891 48.2825 20.4593 48.3714 20.4558C48.4602 20.4522 48.5482 20.4751 48.6241 20.5215C48.6999 20.568 48.7603 20.6359 48.7976 20.7166C48.8348 20.7974 48.8473 20.8874 48.8334 20.9753C48.8195 21.0631 48.7799 21.1449 48.7195 21.2102C48.6591 21.2755 48.5808 21.3215 48.4943 21.3422C48.4078 21.363 48.3171 21.3576 48.2336 21.3268C48.1502 21.296 48.0777 21.2412 48.0255 21.1692C47.9562 21.0725 47.9278 20.9525 47.9464 20.835C47.965 20.7175 48.029 20.6121 48.1247 20.5415ZM43.5438 16.1619C43.5957 16.0906 43.6677 16.0362 43.7505 16.0057C43.8334 15.9752 43.9234 15.9699 44.0093 15.9905C44.0951 16.0112 44.173 16.0568 44.2329 16.1216C44.2928 16.1864 44.3322 16.2676 44.3461 16.3548C44.3599 16.442 44.3476 16.5313 44.3107 16.6115C44.2738 16.6918 44.214 16.7592 44.1388 16.8055C44.0635 16.8517 43.9763 16.8746 43.8881 16.8713C43.7998 16.8679 43.7146 16.8385 43.643 16.7868C43.595 16.7523 43.5543 16.7086 43.5233 16.6583C43.4923 16.608 43.4715 16.552 43.4623 16.4936C43.453 16.4352 43.4555 16.3756 43.4695 16.3182C43.4835 16.2607 43.5087 16.2066 43.5438 16.159V16.1619ZM38.3964 13.1196C38.4809 13.1469 38.5555 13.1986 38.6108 13.2682C38.666 13.3378 38.6993 13.4222 38.7066 13.5107C38.7139 13.5993 38.6948 13.688 38.6517 13.7657C38.6086 13.8434 38.5435 13.9066 38.4645 13.9473C38.3855 13.988 38.2963 14.0044 38.208 13.9944C38.1197 13.9844 38.0364 13.9485 37.9685 13.8912C37.9006 13.8339 37.8512 13.7578 37.8265 13.6724C37.8019 13.587 37.8031 13.4963 37.8299 13.4116C37.8475 13.3549 37.8762 13.3023 37.9143 13.2567C37.9523 13.2111 37.999 13.1736 38.0517 13.1461C38.1044 13.1187 38.1619 13.102 38.2211 13.097C38.2802 13.0919 38.3398 13.0986 38.3964 13.1167V13.1196ZM31.9964 12.1065C32.0853 12.1065 32.1723 12.1329 32.2462 12.1823C32.3202 12.2317 32.3778 12.3019 32.4118 12.3841C32.4458 12.4662 32.4548 12.5566 32.4374 12.6439C32.4201 12.7311 32.3772 12.8112 32.3143 12.8741C32.2515 12.937 32.1714 12.9798 32.0841 12.9971C31.9969 13.0145 31.9065 13.0056 31.8243 12.9715C31.7422 12.9375 31.672 12.8799 31.6226 12.8059C31.5732 12.732 31.5468 12.6451 31.5468 12.5561C31.546 12.4967 31.5571 12.4378 31.5794 12.3827C31.6016 12.3276 31.6347 12.2776 31.6766 12.2354C31.7184 12.1933 31.7683 12.1599 31.8232 12.1373C31.8781 12.1147 31.937 12.1032 31.9964 12.1036V12.1065ZM25.5965 13.1196C25.6811 13.0928 25.7719 13.0916 25.8573 13.1162C25.9426 13.1409 26.0187 13.1903 26.0761 13.2582C26.1334 13.3261 26.1693 13.4094 26.1793 13.4977C26.1892 13.586 26.1728 13.6752 26.1321 13.7542C26.0914 13.8332 26.0282 13.8983 25.9505 13.9414C25.8728 13.9845 25.7841 14.0036 25.6956 13.9963C25.607 13.989 25.5226 13.9557 25.453 13.9004C25.3834 13.8452 25.3317 13.7706 25.3045 13.6861C25.2855 13.6295 25.278 13.5698 25.2824 13.5103C25.2869 13.4508 25.3032 13.3929 25.3304 13.3398C25.3576 13.2868 25.3952 13.2397 25.4409 13.2014C25.4866 13.163 25.5395 13.1343 25.5965 13.1167V13.1196ZM19.8213 16.0627C19.8932 16.01 19.9791 15.9798 20.0681 15.976C20.1572 15.9722 20.2453 15.995 20.3214 16.0414C20.3975 16.0878 20.4581 16.1558 20.4955 16.2367C20.5328 16.3176 20.5453 16.4078 20.5313 16.4958C20.5174 16.5838 20.4775 16.6657 20.4169 16.731C20.3563 16.7963 20.2776 16.8422 20.1909 16.8627C20.1042 16.8833 20.0133 16.8776 19.9299 16.8464C19.8464 16.8152 19.774 16.7599 19.7221 16.6875C19.652 16.5911 19.6232 16.4708 19.6418 16.3531C19.6604 16.2354 19.725 16.1299 19.8213 16.0598V16.0627ZM15.2403 20.6407C15.2926 20.5688 15.365 20.5139 15.4485 20.4831C15.5319 20.4523 15.6226 20.4469 15.7091 20.4677C15.7956 20.4885 15.874 20.5344 15.9344 20.5997C15.9948 20.6651 16.0344 20.7468 16.0483 20.8347C16.0622 20.9225 16.0497 21.0126 16.0124 21.0933C15.9752 21.1741 15.9148 21.242 15.8389 21.2884C15.7631 21.3349 15.6751 21.3577 15.5862 21.3542C15.4974 21.3506 15.4115 21.3208 15.3396 21.2685C15.2439 21.1979 15.1798 21.0924 15.1612 20.975C15.1427 20.8575 15.1711 20.7374 15.2403 20.6407ZM11.7367 33.2625C11.6475 33.2631 11.5602 33.2372 11.4858 33.188C11.4114 33.1388 11.3534 33.0686 11.319 32.9863C11.2846 32.904 11.2754 32.8134 11.2927 32.7259C11.3099 32.6384 11.3528 32.558 11.4159 32.495C11.4789 32.4319 11.5593 32.389 11.6468 32.3718C11.7343 32.3545 11.8249 32.3637 11.9072 32.3981C11.9895 32.4325 12.0597 32.4905 12.1089 32.5649C12.1581 32.6393 12.184 32.7266 12.1834 32.8158C12.1827 32.9341 12.1354 33.0472 12.0518 33.1308C11.9681 33.2145 11.855 33.2618 11.7367 33.2625ZM12.8666 39.5019C12.7819 39.529 12.691 39.5303 12.6054 39.5057C12.5199 39.4811 12.4436 39.4316 12.3862 39.3636C12.3288 39.2956 12.2928 39.2121 12.2829 39.1236C12.273 39.0352 12.2896 38.9458 12.3306 38.8668C12.3715 38.7877 12.435 38.7226 12.513 38.6797C12.5909 38.6368 12.6799 38.618 12.7685 38.6256C12.8572 38.6333 12.9416 38.6671 13.0111 38.7228C13.0805 38.7785 13.1318 38.8535 13.1586 38.9384C13.1767 38.9947 13.1833 39.0541 13.1783 39.1131C13.1732 39.172 13.1564 39.2294 13.129 39.2818C13.1016 39.3342 13.064 39.3807 13.0184 39.4185C12.9729 39.4563 12.9203 39.4846 12.8637 39.5019H12.8666ZM12.5747 26.9794C12.4901 26.9521 12.4155 26.9005 12.3603 26.8309C12.3051 26.7612 12.2717 26.6768 12.2644 26.5883C12.2571 26.4998 12.2762 26.411 12.3193 26.3333C12.3624 26.2556 12.4275 26.1924 12.5065 26.1517C12.5855 26.111 12.6747 26.0946 12.763 26.1046C12.8513 26.1146 12.9347 26.1505 13.0026 26.2078C13.0704 26.2651 13.1198 26.3413 13.1445 26.4266C13.1692 26.512 13.168 26.6027 13.1411 26.6874C13.1048 26.7987 13.0266 26.8915 12.923 26.946C12.8194 27.0005 12.6986 27.0125 12.5864 26.9794H12.5747ZM15.8564 45.0814C15.7845 45.1341 15.6986 45.1643 15.6096 45.1681C15.5205 45.1719 15.4324 45.1491 15.3563 45.1027C15.2802 45.0563 15.2196 44.9883 15.1823 44.9074C15.1449 44.8265 15.1324 44.7363 15.1464 44.6483C15.1604 44.5603 15.2002 44.4784 15.2608 44.4131C15.3214 44.3477 15.4001 44.3019 15.4868 44.2813C15.5735 44.2608 15.6644 44.2665 15.7479 44.2977C15.8314 44.3289 15.9037 44.3842 15.9557 44.4566C15.9914 44.5037 16.0175 44.5575 16.0324 44.6147C16.0474 44.6719 16.0509 44.7315 16.0427 44.7901C16.0346 44.8487 16.015 44.9051 15.985 44.9561C15.955 45.0071 15.9153 45.0517 15.8681 45.0873L15.8564 45.0814ZM20.4374 49.4609C20.3854 49.5333 20.3131 49.5886 20.2296 49.6198C20.1461 49.6511 20.0552 49.6567 19.9685 49.6362C19.8818 49.6157 19.8031 49.5698 19.7425 49.5045C19.6819 49.4391 19.6421 49.3572 19.6281 49.2692C19.6141 49.1812 19.6266 49.091 19.664 49.0101C19.7014 48.9292 19.7619 48.8612 19.838 48.8148C19.9141 48.7684 20.0023 48.7457 20.0913 48.7495C20.1803 48.7533 20.2663 48.7834 20.3381 48.8361C20.3876 48.87 20.4297 48.9134 20.4622 48.9638C20.4946 49.0142 20.5166 49.0705 20.527 49.1296C20.5373 49.1886 20.5357 49.2491 20.5224 49.3075C20.509 49.3659 20.4841 49.4211 20.4491 49.4697L20.4374 49.4609ZM25.5848 52.5033C25.4999 52.4765 25.4249 52.4251 25.3692 52.3557C25.3135 52.2863 25.2797 52.2019 25.272 52.1132C25.2644 52.0245 25.2832 51.9356 25.3261 51.8576C25.369 51.7796 25.4341 51.7162 25.5131 51.6752C25.5922 51.6343 25.6816 51.6177 25.77 51.6276C25.8585 51.6375 25.942 51.6734 26.01 51.7308C26.078 51.7882 26.1275 51.8645 26.1521 51.9501C26.1767 52.0356 26.1754 52.1265 26.1483 52.2113C26.1138 52.3236 26.0368 52.4179 25.9336 52.4741C25.8305 52.5303 25.7095 52.5439 25.5965 52.512L25.5848 52.5033ZM31.9847 53.5164C31.8956 53.517 31.8082 53.491 31.7338 53.4418C31.6595 53.3926 31.6014 53.3225 31.567 53.2402C31.5326 53.1579 31.5234 53.0672 31.5407 52.9798C31.5579 52.8923 31.6008 52.8119 31.6639 52.7488C31.7269 52.6858 31.8073 52.6429 31.8948 52.6256C31.9823 52.6084 32.073 52.6175 32.1552 52.6519C32.2375 52.6863 32.3077 52.7444 32.3569 52.8188C32.4061 52.8932 32.432 52.9805 32.4314 53.0697C32.433 53.1874 32.3884 53.3011 32.307 53.3863C32.2257 53.4715 32.1141 53.5213 31.9964 53.5251L31.9847 53.5164ZM38.3847 52.5033C38.3 52.5301 38.2092 52.5313 38.1239 52.5067C38.0385 52.482 37.9624 52.4326 37.9051 52.3647C37.8478 52.2968 37.8119 52.2135 37.8019 52.1252C37.7919 52.0369 37.8083 51.9476 37.849 51.8687C37.8897 51.7897 37.9529 51.7246 38.0306 51.6815C38.1083 51.6384 38.197 51.6193 38.2856 51.6266C38.3741 51.6339 38.4585 51.6672 38.5281 51.7225C38.5977 51.7777 38.6494 51.8523 38.6766 51.9368C38.6964 51.993 38.7048 52.0525 38.7014 52.1119C38.6979 52.1713 38.6828 52.2295 38.6567 52.283C38.6306 52.3365 38.5942 52.3843 38.5495 52.4236C38.5048 52.4629 38.4527 52.493 38.3964 52.512L38.3847 52.5033ZM44.1569 49.5602C44.0854 49.612 44.0001 49.6414 43.9119 49.6447C43.8236 49.648 43.7364 49.6251 43.6612 49.5789C43.5859 49.5327 43.5261 49.4652 43.4892 49.385C43.4523 49.3048 43.44 49.2154 43.4538 49.1282C43.4677 49.041 43.5071 48.9599 43.567 48.895C43.627 48.8302 43.7048 48.7846 43.7906 48.764C43.8765 48.7433 43.9665 48.7486 44.0494 48.7791C44.1322 48.8096 44.2042 48.864 44.2562 48.9354C44.2927 48.9825 44.3195 49.0364 44.3349 49.094C44.3503 49.1515 44.3541 49.2116 44.3459 49.2706C44.3377 49.3297 44.3179 49.3865 44.2874 49.4377C44.2569 49.489 44.2165 49.5336 44.1686 49.569L44.1569 49.5602ZM48.7408 44.9792C48.6888 45.0516 48.6165 45.1069 48.533 45.1381C48.4495 45.1693 48.3587 45.175 48.2719 45.1545C48.1852 45.1339 48.1065 45.0881 48.0459 45.0228C47.9853 44.9574 47.9455 44.8755 47.9315 44.7875C47.9175 44.6995 47.93 44.6093 47.9674 44.5284C48.0048 44.4475 48.0653 44.3795 48.1414 44.3331C48.2175 44.2867 48.3057 44.2639 48.3947 44.2677C48.4838 44.2715 48.5697 44.3017 48.6415 44.3544C48.691 44.3883 48.7332 44.4317 48.7656 44.4821C48.798 44.5325 48.82 44.5888 48.8304 44.6478C48.8407 44.7069 48.8391 44.7674 48.8258 44.8258C48.8124 44.8842 48.7875 44.9393 48.7525 44.988L48.7408 44.9792ZM31.9847 51.1106C28.3635 51.1106 24.8236 50.0367 21.8126 48.0249C18.8017 46.013 16.4549 43.1535 15.0691 39.8079C13.6833 36.4623 13.3207 32.7809 14.0272 29.2293C14.7337 25.6776 16.4775 22.4152 19.0381 19.8546C21.5987 17.294 24.8611 15.5502 28.4128 14.8437C31.9644 14.1372 35.6458 14.4998 38.9914 15.8856C42.337 17.2714 45.1965 19.6181 47.2084 22.6291C49.2202 25.6401 50.2941 29.18 50.2941 32.8012C50.296 35.2059 49.8242 37.5874 48.9057 39.8097C47.9871 42.032 46.6398 44.0516 44.9407 45.7532C43.2415 47.4548 41.2239 48.805 39.0029 49.7267C36.7819 50.6484 34.4011 51.1236 31.9964 51.1252L31.9847 51.1106ZM51.1174 39.4873C51.0325 39.4605 50.9575 39.4092 50.9018 39.3397C50.8462 39.2703 50.8123 39.1859 50.8047 39.0972C50.797 39.0086 50.8158 38.9196 50.8587 38.8417C50.9016 38.7637 50.9667 38.7002 51.0458 38.6593C51.1248 38.6183 51.2142 38.6017 51.3026 38.6116C51.3911 38.6215 51.4746 38.6575 51.5426 38.7149C51.6106 38.7723 51.6601 38.8486 51.6847 38.9341C51.7093 39.0196 51.708 39.1106 51.6809 39.1953C51.6483 39.3091 51.5719 39.4053 51.4684 39.4628C51.365 39.5203 51.2429 39.5343 51.1291 39.5019L51.1174 39.4873ZM51.3948 26.9648C51.31 26.9919 51.2191 26.9932 51.1336 26.9686C51.048 26.9439 50.9717 26.8945 50.9143 26.8265C50.8569 26.7585 50.821 26.6749 50.8111 26.5865C50.8012 26.498 50.8178 26.4087 50.8587 26.3296C50.8997 26.2506 50.9631 26.1855 51.0411 26.1426C51.1191 26.0997 51.208 26.0808 51.2967 26.0885C51.3854 26.0962 51.4698 26.13 51.5392 26.1857C51.6086 26.2414 51.66 26.3164 51.6868 26.4013C51.707 26.4576 51.7157 26.5174 51.7125 26.5771C51.7093 26.6369 51.6942 26.6954 51.6681 26.7492C51.642 26.8031 51.6054 26.8512 51.5605 26.8907C51.5156 26.9302 51.4632 26.9604 51.4065 26.9794L51.3948 26.9648ZM52.2473 33.2479C52.1582 33.2485 52.0708 33.2226 51.9964 33.1734C51.9221 33.1242 51.864 33.054 51.8296 32.9717C51.7952 32.8894 51.786 32.7988 51.8033 32.7113C51.8205 32.6238 51.8634 32.5434 51.9265 32.4804C51.9895 32.4173 52.0699 32.3744 52.1574 32.3572C52.2449 32.3399 52.3356 32.3491 52.4178 32.3835C52.5001 32.4179 52.5703 32.4759 52.6195 32.5503C52.6687 32.6247 52.6946 32.7121 52.694 32.8012C52.6972 32.92 52.6532 33.0352 52.5717 33.1216C52.4902 33.2081 52.3778 33.2587 52.259 33.2625L52.2473 33.2479Z" fill="#326CE5"/>
<g opacity="0.8">
<path opacity="0.8" d="M31.9964 14.5065C28.3751 14.5065 24.8352 15.5803 21.8242 17.5922C18.8133 19.604 16.4665 22.4636 15.0807 25.8091C13.6949 29.1547 13.3324 32.8361 14.0388 36.3878C14.7453 39.9395 16.4891 43.2019 19.0497 45.7625C21.6103 48.3231 24.8727 50.0669 28.4244 50.7734C31.976 51.4798 35.6574 51.1172 39.003 49.7314C42.3486 48.3457 45.2082 45.9989 47.22 42.9879C49.2319 39.977 50.3057 36.4371 50.3057 32.8158C50.3057 27.9599 48.3767 23.3028 44.943 19.8692C41.5093 16.4355 36.8523 14.5065 31.9964 14.5065ZM41.5875 33.6012C41.428 35.606 40.6403 37.5094 39.3364 39.0406L42.7408 42.4449L41.6284 43.5603L38.224 40.1559C36.6918 41.4581 34.789 42.2456 32.7847 42.407V47.2216H31.208V42.407C29.2037 42.2456 27.3009 41.4581 25.7687 40.1559L22.3643 43.5603L21.2519 42.4449L24.6563 39.0406C23.4479 37.6191 22.6808 35.8758 22.449 34.0246H17.576V32.4042H22.3731C22.4567 30.2691 23.251 28.2232 24.63 26.5911L21.3716 23.3181L22.5161 22.1736L25.8008 25.4582C27.432 24.0801 29.4771 23.2867 31.611 23.2042V18.4072H33.2314V23.2685C35.2624 23.5291 37.1564 24.4336 38.6357 25.8495L42.3116 22.1736L43.459 23.3181L39.7102 27.067C40.7926 28.5107 41.4435 30.2318 41.5875 32.0304H46.405V33.6041L41.5875 33.6012Z" fill="#326CE5"/>
<path opacity="0.8" d="M27.0801 38.845C28.2589 39.8075 29.6945 40.4024 31.2085 40.5559V39.5107C29.9689 39.3695 28.7937 38.884 27.8158 38.1092L27.0801 38.845Z" fill="#326CE5"/>
<path opacity="0.8" d="M24.3208 34.0246C24.5323 35.38 25.1006 36.6548 25.9675 37.718L26.7003 36.9852C26.0117 36.1247 25.5454 35.1079 25.3427 34.0246H24.3208Z" fill="#326CE5"/>
<path opacity="0.8" d="M31.5905 26.0772V25.0524C29.9462 25.1333 28.3704 25.7357 27.0913 26.7721L27.8271 27.505C28.9061 26.6554 30.2196 26.1571 31.5905 26.0772Z" fill="#326CE5"/>
<path opacity="0.8" d="M26.6855 28.6495L25.9526 27.9166C24.9154 29.195 24.3139 30.7715 24.2358 32.4159H25.2607C25.3391 31.0442 25.8364 29.7296 26.6855 28.6495Z" fill="#326CE5"/>
<path opacity="0.8" d="M32.7847 39.5107V40.5559C34.2987 40.4024 35.7343 39.8075 36.9131 38.845L36.1773 38.1122C35.1992 38.8859 34.0239 39.3704 32.7847 39.5107Z" fill="#326CE5"/>
<path opacity="0.8" d="M37.3277 27.1575C36.1918 26.0859 34.7591 25.3818 33.2168 25.1371V26.1619C34.4891 26.3945 35.6672 26.9897 36.6095 27.8758L37.3277 27.1575Z" fill="#326CE5"/>
<path opacity="0.8" d="M37.6636 29.1137C38.2299 29.9934 38.5828 30.9932 38.6942 32.0334H39.7365C39.6061 30.7248 39.1427 29.4713 38.3906 28.3925L37.6636 29.1137Z" fill="#326CE5"/>
<path opacity="0.8" d="M37.293 36.9969L38.0258 37.7297C38.9904 36.5522 39.5856 35.1159 39.7367 33.6013H38.6944C38.5519 34.8414 38.0666 36.0172 37.293 36.9969Z" fill="#326CE5"/>
<path opacity="0.8" d="M33.3569 32.8159C33.3569 32.5468 33.2771 32.2837 33.1276 32.06C32.9781 31.8362 32.7656 31.6618 32.517 31.5589C32.2684 31.4559 31.9948 31.429 31.7309 31.4814C31.467 31.5339 31.2245 31.6635 31.0342 31.8538C30.844 32.0441 30.7144 32.2865 30.6619 32.5504C30.6094 32.8144 30.6363 33.0879 30.7393 33.3365C30.8423 33.5852 31.0167 33.7977 31.2404 33.9472C31.4642 34.0967 31.7272 34.1764 31.9963 34.1764C32.3572 34.1764 32.7032 34.0331 32.9584 33.7779C33.2135 33.5228 33.3569 33.1767 33.3569 32.8159Z" fill="#326CE5"/>
<path opacity="0.8" d="M37.2518 32.0275C37.0664 30.8269 36.481 29.724 35.5905 28.8976C34.6066 28.0005 33.3277 27.4956 31.9964 27.4787C31.8591 27.4787 31.7307 27.5079 31.5964 27.5196C30.3278 27.6104 29.1345 28.1554 28.2352 29.0547C27.3359 29.954 26.7909 31.1473 26.7001 32.4159C26.7001 32.5502 26.6592 32.6786 26.6592 32.8159C26.6735 33.9543 27.0453 35.0594 27.7219 35.975C28.0359 36.3994 28.4108 36.7752 28.8343 37.0903C29.5327 37.6077 30.3481 37.9447 31.208 38.0713C31.7283 38.1764 32.2644 38.1764 32.7847 38.0713C33.6444 37.9441 34.4597 37.6072 35.1584 37.0903C35.582 36.7752 35.9568 36.3994 36.2708 35.975C36.7882 35.2766 37.1252 34.4612 37.2518 33.6013C37.3569 33.0819 37.3569 32.5469 37.2518 32.0275ZM27.7482 32.8159C27.7476 31.9755 27.9963 31.1539 28.4627 30.4549C28.9292 29.7559 29.5924 29.211 30.3686 28.889C31.1448 28.567 31.9991 28.4825 32.8233 28.6461C33.6476 28.8097 34.4048 29.214 34.9992 29.808C35.5936 30.402 35.9985 31.159 36.1627 31.9831C36.3268 32.8072 36.2429 33.6615 35.9214 34.438C35.6 35.2144 35.0555 35.878 34.3568 36.3449C33.6581 36.8119 32.8367 37.0611 31.9964 37.0611C30.8704 37.0603 29.7908 36.6129 28.9944 35.817C28.1979 35.0211 27.7498 33.9418 27.7482 32.8159Z" fill="#326CE5"/>
</g>
</svg>
