<svg width="64" height="64" viewBox="0 0 64 64" fill="none" xmlns="http://www.w3.org/2000/svg">
<g clip-path="url(#clip0)">
<path d="M31.3906 0H31.9579C32.517 0.0476046 33.0633 0.193667 33.5715 0.431444C33.9814 0.632066 34.3913 0.826217 34.8011 1.02252L47.8135 7.26768C48.26 7.4834 48.713 7.6797 49.1466 7.91484C49.7215 8.21879 50.2208 8.64796 50.6076 9.17068C50.9944 9.69341 51.2589 10.2963 51.3815 10.9349C51.8971 13.2087 52.4256 15.4759 52.9477 17.7475C53.6869 20.956 54.4246 24.1645 55.161 27.373C55.3224 28.0183 55.3284 28.6927 55.1784 29.3407C55.0284 29.9888 54.7267 30.5919 54.2981 31.1006C50.7962 35.4539 47.2943 39.8057 43.7924 44.1561C43.2983 44.8196 42.6374 45.3406 41.8768 45.6662C41.328 45.8852 40.7419 45.9958 40.151 45.9919C34.9205 45.9919 29.6892 45.9919 24.4573 45.9919C23.8446 45.9919 23.2298 46.0178 22.6193 45.9768C22.0265 45.9273 21.452 45.7476 20.9367 45.4505C20.4558 45.1823 20.031 44.8242 19.6855 44.3956C16.1117 39.956 12.5386 35.5165 8.96626 31.0769C8.26956 30.2315 7.92778 29.149 8.01276 28.0568C8.07545 27.513 8.18076 26.9749 8.32772 26.4475C9.33442 22.0856 10.3411 17.723 11.3478 13.3597C11.5528 12.4644 11.7448 11.567 11.9713 10.6782C12.1137 10.0628 12.3947 9.48799 12.7928 8.99753C13.1909 8.50707 13.6957 8.11391 14.2687 7.84797C17.5563 6.26241 20.8525 4.69627 24.1466 3.12365L29.6993 0.455174C30.2306 0.201604 30.8038 0.0473416 31.3906 0V0ZM31.6602 44.5293H40.1446C40.621 44.5416 41.0935 44.4399 41.5227 44.2328C41.9519 44.0257 42.3255 43.7191 42.6124 43.3386C44.8329 40.5701 47.0577 37.8053 49.2869 35.044C50.6056 33.4089 51.923 31.7723 53.2389 30.1342C53.5282 29.7902 53.7311 29.3821 53.8309 28.9439C53.9307 28.5056 53.9245 28.0499 53.8127 27.6146C53.5668 26.536 53.3187 25.4574 53.0685 24.3787C52.0632 20.0104 51.0472 15.6463 50.0484 11.2736C49.9591 10.7836 49.7532 10.3223 49.4479 9.9288C49.1426 9.53527 48.747 9.22109 48.2945 9.01287L38.4598 4.33817C36.6348 3.47528 34.8098 2.60736 32.9847 1.7344C32.57 1.53034 32.1139 1.42423 31.6516 1.42423C31.1893 1.42423 30.7332 1.53034 30.3184 1.7344C28.556 2.54983 26.8108 3.39978 25.0591 4.23678C21.6982 5.84463 18.3379 7.45032 14.9784 9.05385C14.5739 9.23351 14.217 9.50543 13.9364 9.84782C13.6558 10.1902 13.4593 10.5936 13.3627 11.0256C12.9528 12.7276 12.5688 14.4383 12.1762 16.1468C11.3133 19.9133 10.4432 23.6791 9.56596 27.4442C9.45803 27.8608 9.43094 28.2943 9.48615 28.7212C9.57761 29.2897 9.82138 29.8227 10.1916 30.2636C11.3306 31.6615 12.4588 33.068 13.5913 34.4767C15.9772 37.4378 18.3645 40.4069 20.7533 43.3839C21.0411 43.7573 21.4137 44.0569 21.8402 44.258C22.2666 44.459 22.7348 44.5557 23.2061 44.5401L31.6602 44.5293Z" fill="#326CE5"/>
<path d="M31.6406 6.62268C28.3011 6.62225 25.0364 7.61215 22.2595 9.46719C19.4825 11.3222 17.3181 13.9591 16.0398 17.0443C14.7615 20.1295 14.4268 23.5245 15.0781 26.7999C15.7293 30.0754 17.3373 33.0841 19.6985 35.4457C22.0598 37.8072 25.0683 39.4155 28.3437 40.0672C31.619 40.7189 35.014 40.3846 38.0994 39.1068C41.1848 37.8289 43.8219 35.6647 45.6773 32.888C47.5327 30.1113 48.523 26.8468 48.523 23.5072C48.523 19.0296 46.7444 14.7352 43.5784 11.5688C40.4124 8.40241 36.1183 6.62325 31.6406 6.62268V6.62268ZM43.5571 14.4383C43.6103 14.3996 43.6737 14.3776 43.7393 14.375C43.805 14.3723 43.87 14.3892 43.926 14.4236C43.9821 14.4579 44.0267 14.508 44.0542 14.5677C44.0818 14.6274 44.091 14.6939 44.0807 14.7588C44.0705 14.8237 44.0412 14.8841 43.9966 14.9324C43.952 14.9806 43.894 15.0146 43.8301 15.0299C43.7662 15.0453 43.6992 15.0413 43.6376 15.0186C43.5759 14.9958 43.5224 14.9553 43.4838 14.9021C43.4326 14.8307 43.4116 14.7419 43.4253 14.6552C43.4391 14.5684 43.4864 14.4905 43.5571 14.4383V14.4383ZM40.1724 11.2025C40.2108 11.1497 40.264 11.1095 40.3252 11.087C40.3864 11.0644 40.453 11.0606 40.5164 11.0758C40.5798 11.091 40.6373 11.1247 40.6816 11.1726C40.7259 11.2205 40.755 11.2805 40.7652 11.3449C40.7755 11.4094 40.7664 11.4754 40.7391 11.5346C40.7119 11.5939 40.6677 11.6438 40.6121 11.6779C40.5565 11.7121 40.492 11.729 40.4268 11.7265C40.3616 11.7241 40.2986 11.7023 40.2458 11.6641C40.2103 11.6386 40.1802 11.6064 40.1573 11.5692C40.1344 11.532 40.1191 11.4907 40.1122 11.4475C40.1054 11.4044 40.1072 11.3603 40.1176 11.3179C40.1279 11.2754 40.1465 11.2355 40.1724 11.2003V11.2025ZM36.3693 8.95464C36.4317 8.97476 36.4869 9.01295 36.5277 9.06438C36.5685 9.1158 36.5931 9.17816 36.5985 9.24358C36.6039 9.30901 36.5898 9.37456 36.5579 9.43197C36.5261 9.48937 36.478 9.53606 36.4196 9.56614C36.3613 9.59622 36.2953 9.60833 36.2301 9.60096C36.1649 9.59358 36.1033 9.56705 36.0531 9.52471C36.003 9.48237 35.9665 9.42611 35.9482 9.36304C35.93 9.29998 35.9309 9.23293 35.9508 9.17036C35.9638 9.12847 35.9849 9.08957 36.0131 9.0559C36.0412 9.02224 36.0757 8.99448 36.1146 8.97422C36.1535 8.95396 36.1961 8.94162 36.2398 8.93788C36.2835 8.93415 36.3275 8.93911 36.3693 8.95248V8.95464ZM31.6406 8.20608C31.7063 8.20608 31.7706 8.22556 31.8252 8.26207C31.8798 8.29857 31.9224 8.35046 31.9476 8.41116C31.9727 8.47186 31.9793 8.53866 31.9665 8.6031C31.9536 8.66755 31.922 8.72674 31.8755 8.7732C31.8291 8.81966 31.7699 8.8513 31.7054 8.86412C31.641 8.87694 31.5742 8.87036 31.5135 8.84522C31.4528 8.82007 31.4009 8.77749 31.3644 8.72286C31.3279 8.66823 31.3084 8.604 31.3084 8.53829C31.3078 8.49441 31.316 8.45084 31.3325 8.41016C31.349 8.36947 31.3734 8.33248 31.4043 8.30134C31.4352 8.27021 31.4721 8.24556 31.5127 8.22883C31.5532 8.2121 31.5967 8.20363 31.6406 8.20392V8.20608ZM26.912 8.95464C26.9746 8.93478 27.0416 8.9339 27.1047 8.95212C27.1678 8.97034 27.224 9.00683 27.2664 9.05699C27.3087 9.10715 27.3352 9.16874 27.3426 9.23397C27.35 9.2992 27.3379 9.36515 27.3078 9.4235C27.2777 9.48185 27.231 9.52998 27.1736 9.56181C27.1162 9.59365 27.0507 9.60776 26.9852 9.60237C26.9198 9.59699 26.8574 9.57234 26.806 9.53154C26.7546 9.49074 26.7164 9.43562 26.6963 9.37314C26.6822 9.33138 26.6767 9.28723 26.68 9.24329C26.6833 9.19935 26.6953 9.15652 26.7154 9.11732C26.7355 9.07811 26.7633 9.04333 26.7971 9.01502C26.8308 8.98671 26.8699 8.96544 26.912 8.95248V8.95464ZM22.645 11.1291C22.6981 11.0902 22.7616 11.0679 22.8274 11.0651C22.8932 11.0623 22.9583 11.0791 23.0145 11.1134C23.0707 11.1477 23.1155 11.1979 23.1431 11.2577C23.1707 11.3174 23.18 11.3841 23.1696 11.4491C23.1593 11.5141 23.1299 11.5746 23.0851 11.6229C23.0403 11.6712 22.9822 11.7051 22.9181 11.7202C22.854 11.7354 22.7869 11.7312 22.7252 11.7082C22.6635 11.6851 22.6101 11.6442 22.5717 11.5908C22.52 11.5195 22.4986 11.4306 22.5124 11.3437C22.5261 11.2567 22.5738 11.1788 22.645 11.127V11.1291ZM19.2603 14.5116C19.299 14.4585 19.3525 14.4179 19.4141 14.3952C19.4758 14.3724 19.5428 14.3684 19.6067 14.3838C19.6706 14.3991 19.7285 14.4331 19.7731 14.4813C19.8178 14.5296 19.847 14.59 19.8573 14.6549C19.8676 14.7198 19.8584 14.7863 19.8308 14.846C19.8033 14.9057 19.7587 14.9559 19.7026 14.9902C19.6466 15.0245 19.5816 15.0414 19.5159 15.0388C19.4502 15.0361 19.3868 15.0141 19.3337 14.9754C19.263 14.9233 19.2156 14.8454 19.2019 14.7586C19.1882 14.6718 19.2092 14.5831 19.2603 14.5116V14.5116ZM16.6717 23.8373C16.6058 23.8377 16.5413 23.8186 16.4863 23.7822C16.4313 23.7459 16.3884 23.694 16.363 23.6332C16.3376 23.5724 16.3309 23.5055 16.3436 23.4408C16.3563 23.3762 16.388 23.3168 16.4346 23.2702C16.4812 23.2236 16.5406 23.1919 16.6052 23.1792C16.6699 23.1664 16.7369 23.1732 16.7977 23.1986C16.8584 23.224 16.9103 23.2669 16.9466 23.3219C16.983 23.3768 17.0022 23.4414 17.0017 23.5072C17.0012 23.5946 16.9662 23.6782 16.9044 23.74C16.8427 23.8018 16.759 23.8367 16.6717 23.8373V23.8373ZM17.5065 28.4473C17.4439 28.4673 17.3767 28.4683 17.3135 28.4501C17.2503 28.4319 17.194 28.3954 17.1515 28.3451C17.1091 28.2948 17.0826 28.2331 17.0753 28.1678C17.0679 28.1024 17.0802 28.0364 17.1104 27.978C17.1407 27.9196 17.1876 27.8715 17.2452 27.8398C17.3028 27.8081 17.3685 27.7942 17.4341 27.7999C17.4996 27.8055 17.5619 27.8305 17.6132 27.8716C17.6645 27.9128 17.7025 27.9682 17.7222 28.0309C17.7356 28.0726 17.7405 28.1164 17.7368 28.16C17.733 28.2036 17.7206 28.2459 17.7004 28.2847C17.6801 28.3234 17.6523 28.3577 17.6187 28.3856C17.585 28.4136 17.5462 28.4345 17.5044 28.4473H17.5065ZM17.2908 19.195C17.2283 19.1748 17.1732 19.1366 17.1324 19.0852C17.0916 19.0338 17.067 18.9714 17.0616 18.906C17.0562 18.8406 17.0703 18.775 17.1021 18.7176C17.134 18.6602 17.1821 18.6135 17.2404 18.5835C17.2988 18.5534 17.3647 18.5413 17.43 18.5486C17.4952 18.556 17.5568 18.5825 17.6069 18.6249C17.6571 18.6672 17.6936 18.7235 17.7118 18.7866C17.73 18.8496 17.7292 18.9167 17.7093 18.9792C17.6825 19.0615 17.6247 19.13 17.5482 19.1703C17.4716 19.2106 17.3824 19.2194 17.2994 19.195H17.2908ZM19.7155 32.5697C19.6624 32.6087 19.599 32.631 19.5332 32.6338C19.4674 32.6366 19.4022 32.6198 19.346 32.5855C19.2898 32.5512 19.2451 32.501 19.2174 32.4412C19.1898 32.3814 19.1806 32.3148 19.1909 32.2497C19.2013 32.1847 19.2307 32.1242 19.2755 32.0759C19.3202 32.0276 19.3784 31.9938 19.4424 31.9786C19.5065 31.9634 19.5737 31.9676 19.6353 31.9907C19.697 32.0137 19.7505 32.0546 19.7889 32.1081C19.8153 32.1429 19.8345 32.1826 19.8456 32.2249C19.8566 32.2672 19.8592 32.3112 19.8532 32.3545C19.8472 32.3978 19.8327 32.4394 19.8105 32.4771C19.7884 32.5148 19.759 32.5477 19.7241 32.574L19.7155 32.5697ZM23.1002 35.8056C23.0618 35.859 23.0084 35.8999 22.9467 35.923C22.885 35.946 22.8179 35.9502 22.7538 35.935C22.6897 35.9199 22.6316 35.886 22.5868 35.8377C22.542 35.7894 22.5126 35.7289 22.5023 35.6639C22.4919 35.5989 22.5012 35.5322 22.5288 35.4725C22.5564 35.4127 22.6011 35.3625 22.6574 35.3282C22.7136 35.2939 22.7787 35.2771 22.8445 35.2799C22.9103 35.2827 22.9738 35.305 23.0269 35.3439C23.0634 35.3689 23.0945 35.401 23.1185 35.4382C23.1425 35.4755 23.1587 35.5171 23.1664 35.5607C23.174 35.6043 23.1729 35.649 23.163 35.6922C23.1531 35.7353 23.1347 35.7761 23.1088 35.812L23.1002 35.8056ZM26.9034 38.0534C26.8407 38.0336 26.7852 37.9957 26.7441 37.9444C26.703 37.8931 26.678 37.8307 26.6723 37.7652C26.6666 37.6997 26.6805 37.6339 26.7122 37.5763C26.744 37.5187 26.792 37.4718 26.8504 37.4416C26.9088 37.4113 26.9749 37.3991 27.0402 37.4064C27.1056 37.4137 27.1673 37.4403 27.2175 37.4827C27.2678 37.5251 27.3043 37.5815 27.3225 37.6447C27.3407 37.7078 27.3397 37.775 27.3197 37.8377C27.2942 37.9206 27.2373 37.9903 27.1611 38.0318C27.0849 38.0733 26.9955 38.0834 26.912 38.0599L26.9034 38.0534ZM31.632 38.8019C31.5661 38.8024 31.5016 38.7832 31.4466 38.7468C31.3917 38.7105 31.3488 38.6586 31.3233 38.5979C31.2979 38.5371 31.2912 38.4701 31.3039 38.4054C31.3167 38.3408 31.3484 38.2814 31.3949 38.2348C31.4415 38.1882 31.5009 38.1565 31.5656 38.1438C31.6302 38.131 31.6972 38.1378 31.758 38.1632C31.8188 38.1886 31.8706 38.2315 31.907 38.2865C31.9433 38.3415 31.9625 38.406 31.9621 38.4719C31.9632 38.5589 31.9302 38.6429 31.8701 38.7058C31.81 38.7688 31.7276 38.8056 31.6406 38.8084L31.632 38.8019ZM36.3606 38.0534C36.2981 38.0732 36.231 38.0741 36.1679 38.0559C36.1049 38.0377 36.0486 38.0012 36.0063 37.951C35.9639 37.9009 35.9374 37.8393 35.93 37.7741C35.9227 37.7088 35.9348 37.6429 35.9649 37.5845C35.9949 37.5262 36.0416 37.478 36.099 37.4462C36.1564 37.4144 36.222 37.4003 36.2874 37.4056C36.3528 37.411 36.4152 37.4357 36.4666 37.4765C36.518 37.5173 36.5562 37.5724 36.5764 37.6349C36.5909 37.6764 36.5972 37.7203 36.5946 37.7642C36.5921 37.8081 36.5809 37.8511 36.5616 37.8906C36.5423 37.9302 36.5154 37.9655 36.4824 37.9945C36.4494 38.0236 36.4109 38.0458 36.3693 38.0599L36.3606 38.0534ZM40.6255 35.8789C40.5726 35.9171 40.5096 35.9389 40.4444 35.9413C40.3792 35.9438 40.3148 35.9269 40.2592 35.8927C40.2036 35.8586 40.1594 35.8087 40.1321 35.7494C40.1048 35.6902 40.0958 35.6242 40.106 35.5597C40.1162 35.4953 40.1453 35.4353 40.1896 35.3874C40.2339 35.3395 40.2914 35.3058 40.3548 35.2906C40.4183 35.2754 40.4848 35.2792 40.546 35.3018C40.6072 35.3243 40.6604 35.3645 40.6988 35.4173C40.7258 35.452 40.7456 35.4919 40.757 35.5344C40.7684 35.5769 40.7711 35.6213 40.7651 35.665C40.7591 35.7086 40.7444 35.7506 40.7219 35.7884C40.6994 35.8263 40.6695 35.8592 40.6341 35.8854L40.6255 35.8789ZM44.0123 32.4942C43.9739 32.5477 43.9204 32.5886 43.8588 32.6116C43.7971 32.6347 43.7299 32.6389 43.6659 32.6237C43.6018 32.6085 43.5437 32.5747 43.4989 32.5264C43.4541 32.4781 43.4247 32.4176 43.4144 32.3526C43.404 32.2875 43.4132 32.2209 43.4409 32.1611C43.4685 32.1013 43.5132 32.0511 43.5694 32.0168C43.6257 31.9825 43.6908 31.9657 43.7566 31.9685C43.8224 31.9713 43.8858 31.9936 43.9389 32.0326C43.9755 32.0576 44.0066 32.0897 44.0306 32.1269C44.0546 32.1641 44.0708 32.2058 44.0785 32.2494C44.0861 32.293 44.085 32.3377 44.0751 32.3809C44.0652 32.424 44.0468 32.4648 44.0209 32.5007L44.0123 32.4942ZM31.632 37.0244C28.9564 37.0244 26.3409 36.231 24.1163 34.7445C21.8916 33.258 20.1577 31.1453 19.1338 28.6734C18.1099 26.2015 17.842 23.4815 18.364 20.8573C18.886 18.2331 20.1744 15.8227 22.0663 13.9308C23.9582 12.0389 26.3687 10.7504 28.9928 10.2285C31.617 9.70649 34.337 9.97438 36.8089 10.9983C39.2808 12.0222 41.3936 13.7561 42.8801 15.9807C44.3665 18.2054 45.1599 20.8209 45.1599 23.4965C45.1613 25.2732 44.8128 27.0327 44.1341 28.6747C43.4554 30.3167 42.46 31.8089 41.2046 33.0661C39.9491 34.3233 38.4584 35.3209 36.8174 36.0019C35.1764 36.6829 33.4173 37.034 31.6406 37.0352L31.632 37.0244ZM45.7683 28.4365C45.7056 28.4167 45.6501 28.3788 45.609 28.3275C45.5678 28.2762 45.5429 28.2138 45.5372 28.1483C45.5315 28.0828 45.5454 28.0171 45.5771 27.9595C45.6088 27.9018 45.6569 27.8549 45.7153 27.8247C45.7737 27.7944 45.8398 27.7822 45.9051 27.7895C45.9705 27.7968 46.0322 27.8234 46.0824 27.8658C46.1327 27.9082 46.1692 27.9646 46.1874 28.0278C46.2056 28.091 46.2046 28.1581 46.1846 28.2208C46.1605 28.3048 46.1041 28.3759 46.0276 28.4184C45.9512 28.4608 45.861 28.4712 45.7769 28.4473L45.7683 28.4365ZM45.9732 19.1842C45.9106 19.2042 45.8434 19.2052 45.7802 19.187C45.717 19.1688 45.6606 19.1322 45.6182 19.082C45.5758 19.0317 45.5493 18.97 45.5419 18.9047C45.5346 18.8393 45.5469 18.7733 45.5771 18.7149C45.6074 18.6565 45.6543 18.6084 45.7119 18.5767C45.7695 18.545 45.8352 18.5311 45.9007 18.5367C45.9662 18.5424 46.0286 18.5674 46.0799 18.6085C46.1312 18.6497 46.1691 18.7051 46.1889 18.7678C46.2038 18.8094 46.2103 18.8536 46.208 18.8978C46.2056 18.9419 46.1944 18.9851 46.1751 19.0249C46.1559 19.0647 46.1288 19.1002 46.0956 19.1294C46.0624 19.1586 46.0237 19.1809 45.9818 19.195L45.9732 19.1842ZM46.6031 23.8265C46.5372 23.8269 46.4727 23.8078 46.4177 23.7714C46.3628 23.7351 46.3199 23.6832 46.2945 23.6224C46.269 23.5616 46.2623 23.4947 46.275 23.43C46.2878 23.3654 46.3195 23.306 46.3661 23.2594C46.4126 23.2128 46.472 23.1811 46.5367 23.1684C46.6013 23.1556 46.6683 23.1624 46.7291 23.1878C46.7899 23.2132 46.8417 23.2561 46.8781 23.3111C46.9144 23.366 46.9336 23.4306 46.9332 23.4965C46.9355 23.5842 46.903 23.6693 46.8428 23.7332C46.7825 23.797 46.6995 23.8345 46.6117 23.8373L46.6031 23.8265Z" fill="#326CE5"/>
<g opacity="0.8">
<path opacity="0.8" d="M31.6407 9.97925C28.9652 9.97925 26.3497 10.7726 24.125 12.2591C21.9004 13.7456 20.1665 15.8584 19.1426 18.3303C18.1187 20.8022 17.8508 23.5222 18.3727 26.1463C18.8947 28.7705 20.1831 31.181 22.075 33.0729C23.967 34.9648 26.3774 36.2532 29.0016 36.7752C31.6257 37.2971 34.3457 37.0292 36.8176 36.0054C39.2895 34.9815 41.4023 33.2475 42.8888 31.0229C44.3753 28.7982 45.1687 26.1827 45.1687 23.5072C45.1687 19.9193 43.7434 16.4785 41.2064 13.9415C38.6694 11.4045 35.2286 9.97925 31.6407 9.97925ZM38.7272 24.0875C38.6094 25.5687 38.0273 26.975 37.064 28.1064L39.5793 30.6217L38.7574 31.4457L36.2421 28.9304C35.11 29.8925 33.7041 30.4744 32.2232 30.5936V34.1509H31.0583V30.5936C29.5774 30.4744 28.1715 29.8925 27.0394 28.9304L24.5241 31.4457L23.7022 30.6217L26.2175 28.1064C25.3247 27.0561 24.7579 25.7681 24.5866 24.4003H20.9862V23.203H24.5305C24.5923 21.6255 25.1792 20.1139 26.1981 18.908L23.7906 16.4897L24.6362 15.6441L27.0631 18.071C28.2684 17.0528 29.7794 16.4666 31.356 16.4056V12.8613H32.5532V16.4531C34.0538 16.6456 35.4533 17.314 36.5462 18.36L39.2622 15.6441L40.11 16.4897L37.3401 19.2596C38.1398 20.3263 38.6208 21.5979 38.7272 22.9269H42.2866V24.0896L38.7272 24.0875Z" fill="#326CE5"/>
<path opacity="0.8" d="M28.0083 27.962C28.8793 28.6731 29.9399 29.1127 31.0586 29.2261V28.4538C30.1427 28.3495 29.2744 27.9908 28.5519 27.4183L28.0083 27.962Z" fill="#326CE5"/>
<path opacity="0.8" d="M25.9697 24.4003C26.126 25.4017 26.5459 26.3436 27.1864 27.1292L27.7279 26.5877C27.2191 25.9519 26.8746 25.2007 26.7248 24.4003H25.9697Z" fill="#326CE5"/>
<path opacity="0.8" d="M31.3409 18.5284V17.7712C30.126 17.831 28.9617 18.2761 28.0166 19.0418L28.5602 19.5833C29.3574 18.9556 30.3279 18.5875 31.3409 18.5284Z" fill="#326CE5"/>
<path opacity="0.8" d="M27.7166 20.4289L27.1752 19.8875C26.4089 20.832 25.9644 21.9968 25.9067 23.2117H26.6639C26.7219 22.1983 27.0893 21.227 27.7166 20.4289V20.4289Z" fill="#326CE5"/>
<path opacity="0.8" d="M32.2231 28.4538V29.2261C33.3418 29.1127 34.4025 28.6731 35.2735 27.962L34.7298 27.4205C34.0071 27.9922 33.1388 28.3502 32.2231 28.4538V28.4538Z" fill="#326CE5"/>
<path opacity="0.8" d="M35.5798 19.3265C34.7406 18.5348 33.682 18.0145 32.5425 17.8337V18.5909C33.4826 18.7628 34.353 19.2025 35.0492 19.8572L35.5798 19.3265Z" fill="#326CE5"/>
<path opacity="0.8" d="M35.8281 20.7718C36.2465 21.4218 36.5073 22.1605 36.5896 22.9291H37.3597C37.2634 21.9622 36.921 21.0361 36.3653 20.239L35.8281 20.7718Z" fill="#326CE5"/>
<path opacity="0.8" d="M35.5542 26.5964L36.0957 27.1378C36.8083 26.2678 37.2481 25.2066 37.3598 24.0875H36.5897C36.4844 25.0038 36.1258 25.8726 35.5542 26.5964V26.5964Z" fill="#326CE5"/>
<path opacity="0.8" d="M32.6458 23.5073C32.6458 23.3085 32.5868 23.1142 32.4764 22.9488C32.3659 22.7835 32.2089 22.6547 32.0252 22.5786C31.8415 22.5025 31.6394 22.4826 31.4444 22.5214C31.2494 22.5602 31.0703 22.6559 30.9297 22.7965C30.7891 22.9371 30.6934 23.1162 30.6546 23.3112C30.6158 23.5062 30.6357 23.7084 30.7118 23.892C30.7879 24.0757 30.9167 24.2327 31.082 24.3432C31.2473 24.4536 31.4417 24.5126 31.6405 24.5126C31.9071 24.5126 32.1628 24.4067 32.3514 24.2182C32.5399 24.0296 32.6458 23.7739 32.6458 23.5073V23.5073Z" fill="#326CE5"/>
<path opacity="0.8" d="M35.5237 22.9248C35.3867 22.0377 34.9542 21.2228 34.2962 20.6123C33.5693 19.9494 32.6244 19.5763 31.6407 19.5638C31.5393 19.5638 31.4444 19.5854 31.3451 19.594C30.4079 19.6612 29.5262 20.0639 28.8617 20.7283C28.1973 21.3928 27.7946 22.2744 27.7275 23.2117C27.7275 23.3109 27.6973 23.4059 27.6973 23.5072C27.7079 24.3484 27.9826 25.1649 28.4825 25.8414C28.7145 26.1549 28.9914 26.4326 29.3044 26.6654C29.8204 27.0477 30.4228 27.2967 31.0582 27.3902C31.4426 27.4679 31.8387 27.4679 32.2231 27.3902C32.8584 27.2963 33.4607 27.0473 33.9769 26.6654C34.2899 26.4326 34.5668 26.1549 34.7988 25.8414C35.1812 25.3253 35.4301 24.7229 35.5237 24.0875C35.6013 23.7038 35.6013 23.3085 35.5237 22.9248ZM28.5019 23.5072C28.5015 22.8864 28.6852 22.2793 29.0298 21.7629C29.3745 21.2464 29.8645 20.8438 30.438 20.6059C31.0115 20.368 31.6427 20.3055 32.2517 20.4264C32.8607 20.5472 33.4202 20.846 33.8593 21.2849C34.2985 21.7238 34.5977 22.283 34.7189 22.892C34.8402 23.5009 34.7782 24.1321 34.5407 24.7057C34.3032 25.2794 33.9009 25.7697 33.3847 26.1147C32.8685 26.4597 32.2615 26.6438 31.6407 26.6438C30.8088 26.6433 30.0111 26.3127 29.4226 25.7247C28.8342 25.1366 28.5031 24.3391 28.5019 23.5072Z" fill="#326CE5"/>
</g>
<path d="M5.98633 57.9395H2.48242V60.5645H6.57812V61.748H1V53.2168H6.53711V54.4121H2.48242V56.7676H5.98633V57.9395Z" fill="#FC6011"/>
<path d="M9.81875 55.4082L9.85977 56.1406C10.3285 55.5742 10.9438 55.291 11.7055 55.291C13.0258 55.291 13.6977 56.0469 13.7211 57.5586V61.748H12.2973V57.6406C12.2973 57.2383 12.2094 56.9414 12.0336 56.75C11.8617 56.5547 11.5785 56.457 11.184 56.457C10.6098 56.457 10.182 56.7168 9.90078 57.2363V61.748H8.47695V55.4082H9.81875Z" fill="#FC6011"/>
<path d="M17.8113 53.8672V55.4082H18.9305V56.4629H17.8113V60.002C17.8113 60.2441 17.8582 60.4199 17.952 60.5293C18.0496 60.6348 18.2215 60.6875 18.4676 60.6875C18.6316 60.6875 18.7977 60.668 18.9656 60.6289V61.7305C18.6414 61.8203 18.3289 61.8652 18.0281 61.8652C16.9344 61.8652 16.3875 61.2617 16.3875 60.0547V56.4629H15.3445V55.4082H16.3875V53.8672H17.8113Z" fill="#FC6011"/>
<path d="M23.6652 61.8652C22.7629 61.8652 22.0305 61.582 21.468 61.0156C20.9094 60.4453 20.6301 59.6875 20.6301 58.7422V58.5664C20.6301 57.9336 20.7512 57.3691 20.9934 56.873C21.2395 56.373 21.5832 55.9844 22.0246 55.707C22.466 55.4297 22.9582 55.291 23.5012 55.291C24.3645 55.291 25.0305 55.5664 25.4992 56.1172C25.9719 56.668 26.2082 57.4473 26.2082 58.4551V59.0293H22.0656C22.1086 59.5527 22.2824 59.9668 22.5871 60.2715C22.8957 60.5762 23.2824 60.7285 23.7473 60.7285C24.3996 60.7285 24.9309 60.4648 25.341 59.9375L26.1086 60.6699C25.8547 61.0488 25.5148 61.3438 25.0891 61.5547C24.6672 61.7617 24.1926 61.8652 23.6652 61.8652ZM23.4953 56.4336C23.1047 56.4336 22.7883 56.5703 22.5461 56.8438C22.3078 57.1172 22.1555 57.498 22.0891 57.9863H24.802V57.8809C24.7707 57.4043 24.6437 57.0449 24.4211 56.8027C24.1984 56.5566 23.8898 56.4336 23.4953 56.4336Z" fill="#FC6011"/>
<path d="M31.4879 56.709C31.3004 56.6777 31.107 56.6621 30.9078 56.6621C30.2555 56.6621 29.816 56.9121 29.5895 57.4121V61.748H28.1656V55.4082H29.525L29.5602 56.1172C29.9039 55.5664 30.3805 55.291 30.9898 55.291C31.193 55.291 31.3609 55.3184 31.4937 55.373L31.4879 56.709Z" fill="#FC6011"/>
<path d="M38.7891 58.6426C38.7891 59.623 38.5664 60.4062 38.1211 60.9922C37.6758 61.5742 37.0781 61.8652 36.3281 61.8652C35.6328 61.8652 35.0762 61.6367 34.6582 61.1797V64.1855H33.2344V55.4082H34.5469L34.6055 56.0527C35.0234 55.5449 35.5918 55.291 36.3105 55.291C37.084 55.291 37.6895 55.5801 38.127 56.1582C38.5684 56.7324 38.7891 57.5312 38.7891 58.5547V58.6426ZM37.3711 58.5195C37.3711 57.8867 37.2441 57.3848 36.9902 57.0137C36.7402 56.6426 36.3809 56.457 35.9121 56.457C35.3301 56.457 34.9121 56.6973 34.6582 57.1777V59.9902C34.916 60.4824 35.3379 60.7285 35.9238 60.7285C36.377 60.7285 36.7305 60.5469 36.9844 60.1836C37.2422 59.8164 37.3711 59.2617 37.3711 58.5195Z" fill="#FC6011"/>
<path d="M44.1684 56.709C43.9809 56.6777 43.7875 56.6621 43.5883 56.6621C42.9359 56.6621 42.4965 56.9121 42.2699 57.4121V61.748H40.8461V55.4082H42.2055L42.2406 56.1172C42.5844 55.5664 43.0609 55.291 43.6703 55.291C43.8734 55.291 44.0414 55.3184 44.1742 55.373L44.1684 56.709Z" fill="#FC6011"/>
<path d="M47.4324 61.748H46.0086V55.4082H47.4324V61.748ZM45.9207 53.7617C45.9207 53.543 45.9891 53.3613 46.1258 53.2168C46.2664 53.0723 46.4656 53 46.7234 53C46.9813 53 47.1805 53.0723 47.3211 53.2168C47.4617 53.3613 47.532 53.543 47.532 53.7617C47.532 53.9766 47.4617 54.1562 47.3211 54.3008C47.1805 54.4414 46.9813 54.5117 46.7234 54.5117C46.4656 54.5117 46.2664 54.4414 46.1258 54.3008C45.9891 54.1562 45.9207 53.9766 45.9207 53.7617Z" fill="#FC6011"/>
<path d="M53.3918 60.0254C53.3918 59.7715 53.2863 59.5781 53.0754 59.4453C52.8684 59.3125 52.5227 59.1953 52.0383 59.0938C51.5539 58.9922 51.1496 58.8633 50.8254 58.707C50.1145 58.3633 49.759 57.8652 49.759 57.2129C49.759 56.666 49.9895 56.209 50.4504 55.8418C50.9113 55.4746 51.4973 55.291 52.2082 55.291C52.966 55.291 53.5773 55.4785 54.0422 55.8535C54.5109 56.2285 54.7453 56.7148 54.7453 57.3125H53.3215C53.3215 57.0391 53.2199 56.8125 53.0168 56.6328C52.8137 56.4492 52.5441 56.3574 52.2082 56.3574C51.8957 56.3574 51.6398 56.4297 51.4406 56.5742C51.2453 56.7188 51.1477 56.9121 51.1477 57.1543C51.1477 57.373 51.2395 57.543 51.423 57.6641C51.6066 57.7852 51.9777 57.9082 52.5363 58.0332C53.0949 58.1543 53.5324 58.3008 53.8488 58.4727C54.1691 58.6406 54.4055 58.8438 54.5578 59.082C54.7141 59.3203 54.7922 59.6094 54.7922 59.9492C54.7922 60.5195 54.5559 60.9824 54.0832 61.3379C53.6105 61.6895 52.9914 61.8652 52.2258 61.8652C51.7062 61.8652 51.2434 61.7715 50.8371 61.584C50.4309 61.3965 50.1145 61.1387 49.8879 60.8105C49.6613 60.4824 49.548 60.1289 49.548 59.75H50.9309C50.9504 60.0859 51.0773 60.3457 51.3117 60.5293C51.5461 60.709 51.8566 60.7988 52.2434 60.7988C52.6184 60.7988 52.9035 60.7285 53.0988 60.5879C53.2941 60.4434 53.3918 60.2559 53.3918 60.0254Z" fill="#FC6011"/>
<path d="M59.6793 61.8652C58.777 61.8652 58.0445 61.582 57.482 61.0156C56.9234 60.4453 56.6441 59.6875 56.6441 58.7422V58.5664C56.6441 57.9336 56.7652 57.3691 57.0074 56.873C57.2535 56.373 57.5973 55.9844 58.0387 55.707C58.4801 55.4297 58.9723 55.291 59.5152 55.291C60.3785 55.291 61.0445 55.5664 61.5133 56.1172C61.9859 56.668 62.2223 57.4473 62.2223 58.4551V59.0293H58.0797C58.1227 59.5527 58.2965 59.9668 58.6012 60.2715C58.9098 60.5762 59.2965 60.7285 59.7613 60.7285C60.4137 60.7285 60.9449 60.4648 61.3551 59.9375L62.1227 60.6699C61.8688 61.0488 61.5289 61.3438 61.1031 61.5547C60.6813 61.7617 60.2066 61.8652 59.6793 61.8652ZM59.5094 56.4336C59.1188 56.4336 58.8023 56.5703 58.5602 56.8438C58.3219 57.1172 58.1695 57.498 58.1031 57.9863H60.816V57.8809C60.7848 57.4043 60.6578 57.0449 60.4352 56.8027C60.2125 56.5566 59.9039 56.4336 59.5094 56.4336Z" fill="#FC6011"/>
</g>
<defs>
<clipPath id="clip0">
<rect width="64" height="64" fill="white"/>
</clipPath>
</defs>
</svg>
