<svg xmlns="http://www.w3.org/2000/svg" viewBox="0 0 1279 639" xmlns:v="https://vecta.io/nano"><path d="M222.23 212.89h2.63a22.07 22.07 0 0 1 7.48 2l5.7 2.74 60.32 28.95 6.18 3a20.13 20.13 0 0 1 10.36 14l7.26 31.58q5.14 22.31 10.26 44.62a19.48 19.48 0 0 1-4 17.28q-24.35 30.27-48.7 60.52a21.74 21.74 0 0 1-8.88 7 21.21 21.21 0 0 1-8 1.51q-36.37 0-72.75 0c-2.84 0-5.69.12-8.52-.07a18.74 18.74 0 0 1-7.8-2.44 19.9 19.9 0 0 1-5.8-4.89q-24.85-30.87-49.69-61.74a19.62 19.62 0 0 1-4.42-14 48.46 48.46 0 0 1 1.46-7.46q7-30.33 14-60.67l2.89-12.43a19.25 19.25 0 0 1 10.65-13.12l45.79-21.9L214.39 215a22.38 22.38 0 0 1 7.84-2.11zm1.25 206.42h39.33a13.88 13.88 0 0 0 11.44-5.52q15.44-19.25 30.94-38.45 9.17-11.37 18.32-22.76a13.09 13.09 0 0 0 2.66-11.68q-1.71-7.5-3.45-15l-14-60.75a14.37 14.37 0 0 0-8.13-10.48L255 233q-12.69-6-25.38-12.07a14 14 0 0 0-12.36 0l-24.38 11.6q-23.37 11.18-46.73 22.33a13.14 13.14 0 0 0-7.49 9.14l-5.5 23.74q-6 26.19-12.1 52.37a15.62 15.62 0 0 0-.37 5.92 14.77 14.77 0 0 0 3.27 7.15l15.76 19.53q16.59 20.59 33.2 41.29a13.78 13.78 0 0 0 11.37 5.36zm-.09-175.72a78.27 78.27 0 1 0 78.26 78.27 78.27 78.27 0 0 0-78.26-78.27zm55.24 36.23a1.54 1.54 0 1 1-.34 2.15 1.55 1.55 0 0 1 .34-2.15zm-15.69-15a1.53 1.53 0 1 1 .34 2.14 1.53 1.53 0 0 1-.34-2.15zm-17.63-10.42a1.54 1.54 0 1 1-1.94 1 1.54 1.54 0 0 1 1.94-1.01zm-21.92-3.47a1.54 1.54 0 1 1-1.54 1.54 1.53 1.53 0 0 1 1.54-1.55zm-21.92 3.47a1.54 1.54 0 1 1-1 1.94 1.53 1.53 0 0 1 1-1.95zm-19.78 10.08a1.54 1.54 0 1 1-.34 2.14 1.54 1.54 0 0 1 .34-2.15zM166 280.16a1.54 1.54 0 1 1 .34 2.15 1.55 1.55 0 0 1-.34-2.15zm-12 43.23a1.54 1.54 0 1 1 1.53-1.53 1.54 1.54 0 0 1-1.53 1.53zm3.87 21.37a1.54 1.54 0 1 1 1-1.93 1.53 1.53 0 0 1-1.01 1.93zm-1-42.89a1.54 1.54 0 1 1 .04 0zm11.24 62a1.54 1.54 0 1 1 .04.02zm15.69 15a1.54 1.54 0 1 1-.34-2.14 1.54 1.54 0 0 1 .38 2.17zm17.63 10.42a1.54 1.54 0 1 1 .04.03zm21.92 3.47a1.54 1.54 0 1 1 .04.03zm21.92-3.47a1.54 1.54 0 1 1 .04.03zm19.77-10.08a1.53 1.53 0 1 1 .04.03zm15.7-15.69a1.54 1.54 0 1 1-.34-2.14 1.54 1.54 0 0 1 .38 2.17zm-57.39 21a62.71 62.71 0 1 1 62.71-62.71 62.71 62.71 0 0 1-62.67 62.76zm65.53-39.81a1.54 1.54 0 1 1 1.93-1 1.53 1.53 0 0 1-1.89 1.05zm.95-42.89a1.54 1.54 0 1 1 .04.05zm2.92 21.52a1.54 1.54 0 1 1 1.53-1.53 1.54 1.54 0 0 1-1.49 1.58z" fill="#326ce5"/><g opacity=".8" fill="#326ce5"><path d="M223.39 259.15a62.71 62.71 0 1 0 62.71 62.71 62.71 62.71 0 0 0-62.71-62.71zm32.85 65.4a32.74 32.74 0 0 1-7.71 18.63l11.66 11.66-3.81 3.82L244.72 347a32.84 32.84 0 0 1-18.63 7.71v16.49h-5.4v-16.49a32.84 32.84 0 0 1-18.63-7.71l-11.66 11.66-3.81-3.82 11.66-11.66a32.82 32.82 0 0 1-7.56-17.18H174v-5.55h16.43a32.84 32.84 0 0 1 7.73-19.91L187 289.33l3.92-3.92 11.25 11.25a32.8 32.8 0 0 1 19.9-7.72v-16.43h5.55v16.65a32.81 32.81 0 0 1 18.51 8.84l12.59-12.59 3.93 3.92-12.84 12.84a32.69 32.69 0 0 1 6.43 17h16.5v5.39z"/><path d="M206.55 342.51a26.6 26.6 0 0 0 14.14 5.86v-3.58a22.88 22.88 0 0 1-11.62-4.8zM197.1 326a26.48 26.48 0 0 0 5.64 12.65l2.51-2.51A23 23 0 0 1 200.6 326zm24.9-27.22v-3.51a26.55 26.55 0 0 0-15.41 5.89l2.52 2.51a23 23 0 0 1 12.89-4.89zm-16.8 8.81l-2.51-2.51a26.45 26.45 0 0 0-5.88 15.41h3.51a23 23 0 0 1 4.88-12.9zm20.89 37.2v3.58a26.6 26.6 0 0 0 14.14-5.86l-2.52-2.51a22.88 22.88 0 0 1-11.62 4.79zm15.56-42.31a26.59 26.59 0 0 0-14.08-6.92v3.51a23 23 0 0 1 11.62 5.87zm1.15 6.7a23 23 0 0 1 3.53 10h3.57a26.38 26.38 0 0 0-4.61-12.47zm-1.27 27l2.51 2.51a26.46 26.46 0 0 0 5.86-14.14h-3.57a23 23 0 0 1-4.8 11.63zm-13.48-14.32a4.66 4.66 0 1 0-4.66 4.66 4.66 4.66 0 0 0 4.66-4.66zm13.34-2.7a18.47 18.47 0 0 0-5.69-10.72 18.62 18.62 0 0 0-12.31-4.86c-.47 0-.91.1-1.37.14a18.11 18.11 0 0 0-16.77 16.77c0 .46-.14.9-.14 1.37a18.6 18.6 0 0 0 3.64 10.82 18.4 18.4 0 0 0 3.81 3.82 18.08 18.08 0 0 0 8.13 3.36 13.63 13.63 0 0 0 5.4 0 18.13 18.13 0 0 0 8.13-3.36 18.4 18.4 0 0 0 3.81-3.82 18.08 18.08 0 0 0 3.36-8.13 13.59 13.59 0 0 0 0-5.39zm-32.55 2.7a14.55 14.55 0 1 1 14.55 14.54 14.56 14.56 0 0 1-14.55-14.54z"/></g><path d="M437.29 384.57l-37.38-54.06v54.06h-26.69v-116.8h26.69v50.72l35.71-50.72H466l-39.38 56.9 41 59.9zm115.14-83.43v83.43h-25v-7.84c-4.51 6.17-12.85 10.17-23.86 10.17-16.86 0-31.21-12-31.21-34.53v-51.23h25v47.56c0 10.34 6.51 15.18 14.52 15.18 9.18 0 15.52-5.34 15.52-17.19v-45.55zm108.14 41.71c0 24.87-18 44-39.88 44-11.18 0-19.35-3.84-24.86-10.17v7.84h-25V267.77h25V309c5.51-6.34 13.68-10.18 24.86-10.18 21.86-.02 39.88 19.18 39.88 44.03zm-25 0c0-12.51-8.34-20.35-19.85-20.35s-19.86 7.84-19.86 20.35 8.34 20.36 19.86 20.36 19.82-7.84 19.82-20.36zm81.57 21.7c6.85 0 12.69-2.68 16-6.35l20 11.52c-8.18 11.35-20.53 17.18-36.38 17.18-28.53 0-46.21-19.18-46.21-44s18-44.05 44.37-44.05c24.37 0 42.38 18.86 42.38 44.05a49.07 49.07 0 0 1-1 10h-59.17c3.16 8.64 10.87 11.65 20.01 11.65zm15.35-30.37c-2.66-9.68-10.17-13.18-17.68-13.18-9.51 0-15.85 4.68-18.18 13.19zm29.88-66.41h29.2l25.87 85.93 25.86-85.93h29.19l-38 116.8h-34zm194.9 33.37v83.43h-25v-7.84c-5.5 6.33-13.68 10.17-24.86 10.17-21.85 0-39.87-19.18-39.87-44s18-44.05 39.87-44.05c11.18 0 19.36 3.84 24.86 10.18v-7.84zm-25 41.71c0-12.51-8.34-20.35-19.85-20.35s-19.86 7.84-19.86 20.35 8.34 20.36 19.86 20.36 19.82-7.84 19.82-20.36zm122.29-41.71v83.43h-25v-7.84c-4.51 6.17-12.85 10.17-23.86 10.17-16.86 0-31.21-12-31.21-34.53v-51.23h25v47.56c0 10.34 6.51 15.18 14.52 15.18 9.17 0 15.52-5.34 15.52-17.19v-45.55zm18.37-38.38h25v121.81h-25zm75.07 62.41v29.53c0 7.17 6.17 7.84 17.19 7.17v22.7c-32.71 3.33-42.22-6.51-42.22-29.87v-29.53h-13.35v-24H1123v-15.88l25-7.51v23.36h17.19v24z" fill="#326ce5"/></svg>