<svg xmlns="http://www.w3.org/2000/svg" viewBox="0 0 216 216" xmlns:v="https://vecta.io/nano"><path d="M107.23 15.24H109a14.66 14.66 0 0 1 5 1.33l3.79 1.82 40.14 19.26 4.11 2A13.4 13.4 0 0 1 168.9 49l4.83 21 6.82 29.7a13 13 0 0 1-2.65 11.5q-16.2 20.13-32.4 40.27a14.48 14.48 0 0 1-5.92 4.68 13.92 13.92 0 0 1-5.34 1H85.83h-5.67a12.37 12.37 0 0 1-5.16-1.71 13.25 13.25 0 0 1-3.86-3.25Q54.57 131.66 38 111.1a13.09 13.09 0 0 1-2.94-9.32 30.87 30.87 0 0 1 1-5q4.62-20.19 9.29-40.37l1.93-8.28a12.84 12.84 0 0 1 7.08-8.73l30.48-14.58L102 16.67a15.15 15.15 0 0 1 5.23-1.43zm.83 137.37q13.1 0 26.18 0a9.24 9.24 0 0 0 7.6-3.67q10.28-12.81 20.6-25.59 6.09-7.57 12.19-15.15a8.71 8.71 0 0 0 1.77-7.77q-1.14-5-2.3-10L164.81 50a9.54 9.54 0 0 0-5.42-7L129 28.6q-8.43-4-16.88-8a9.37 9.37 0 0 0-8.23 0l-16.22 7.72q-15.56 7.44-31.1 14.86a8.73 8.73 0 0 0-5 6.08l-3.67 15.8q-4 17.43-8 34.85a10.31 10.31 0 0 0-.25 3.94 9.84 9.84 0 0 0 2.18 4.76l10.48 13Q63.36 135.3 74.42 149a9.14 9.14 0 0 0 7.58 3.61q13-.02 26.06 0zM108 35.68a52.08 52.08 0 1 0 52.08 52.08A52.08 52.08 0 0 0 108 35.68zm36.76 24.11a1 1 0 1 1-.22 1.42 1 1 0 0 1 .22-1.42zm-10.44-10a1 1 0 1 1 .23 1.42 1 1 0 0 1-.23-1.41zm-11.73-6.94a1 1 0 1 1-1.29.66 1 1 0 0 1 1.29-.65zM108 40.55a1 1 0 1 1-1 1 1 1 0 0 1 1-1zm-14.59 2.31a1 1 0 1 1-.65 1.29 1 1 0 0 1 .65-1.29zm-13.16 6.71A1 1 0 1 1 80 51a1 1 0 0 1 .25-1.43zM69.81 60a1.02 1.02 0 1 1 1.65 1.2 1.02 1.02 0 1 1-1.65-1.2zm-8 28.77a1 1 0 1 1 1-1 1 1 0 0 1-.99 1.01zM64.39 103a1 1 0 1 1 .66-1.29 1 1 0 0 1-.66 1.29zm-.63-28.54a1.02 1.02 0 1 1 .63-1.94 1.02 1.02 0 1 1-.63 1.94zm7.48 41.27a1 1 0 0 1-1.43-.23 1 1 0 1 1 1.43.23zm10.44 10a1 1 0 1 1-.22-1.43 1 1 0 0 1 .22 1.42zm11.73 6.93a1 1 0 1 1 1.29-.66 1 1 0 0 1-1.29.65zM108 135a1 1 0 1 1 1-1 1 1 0 0 1-1 1zm14.59-2.31a1 1 0 1 1 0-.04zm13.16-6.7a1.024 1.024 0 1 1 .22-1.43 1 1 0 0 1-.22 1.44zm10.44-10.45a1 1 0 1 1 0-.04zm-38.19 14a41.73 41.73 0 1 1 41.73-41.73A41.73 41.73 0 0 1 108 129.49zM151.61 103a1.02 1.02 0 1 1 .63-1.94 1.02 1.02 0 0 1-.63 1.94zm.63-28.54a1.012 1.012 0 1 1-.58-1.94 1 1 0 0 1 1.28.65 1 1 0 0 1-.7 1.29zm1.94 14.32a1 1 0 0 1 0-2 1 1 0 1 1 0 2z" fill="#486bb3"/><g opacity=".8" fill="#486bb3"><path d="M108 46a41.73 41.73 0 1 0 41.73 41.73A41.73 41.73 0 0 0 108 46zm21.86 43.52a21.81 21.81 0 0 1-5.13 12.4l7.76 7.76-2.49 2.57-7.76-7.76a21.78 21.78 0 0 1-12.4 5.13v11h-3.58v-11a21.78 21.78 0 0 1-12.4-5.13l-7.76 7.76-2.54-2.54 7.71-7.71a21.89 21.89 0 0 1-5-11.41H75.16v-3.74h10.93a21.87 21.87 0 0 1 5.15-13.25l-7.49-7.48 2.61-2.61L93.85 71a21.87 21.87 0 0 1 13.24-5.14V54.92h3.69V66a21.92 21.92 0 0 1 12.36 5.88l8.37-8.37 2.61 2.61-8.54 8.54A21.7 21.7 0 0 1 129.86 86h11v3.59zM96.8 101.5a17.55 17.55 0 0 0 9.41 3.9V103a15.32 15.32 0 0 1-7.74-3.19zm-6.3-10.96A17.62 17.62 0 0 0 94.26 99l1.67-1.67a15.3 15.3 0 0 1-3.09-6.75zm16.59-18.14v-2.33A17.65 17.65 0 0 0 96.84 74l1.67 1.68a15.3 15.3 0 0 1 8.58-3.28zM95.9 78.27l-1.67-1.68a17.64 17.64 0 0 0-3.92 10.26h2.34a15.26 15.26 0 0 1 3.25-8.58zM109.79 103v2.38a17.58 17.58 0 0 0 9.42-3.9l-1.68-1.67a15.28 15.28 0 0 1-7.74 3.19zm10.36-28.13a17.59 17.59 0 0 0-9.37-4.61v2.33a15.41 15.41 0 0 1 7.74 3.91zm.77 4.45a15.36 15.36 0 0 1 2.34 6.68h2.39a17.7 17.7 0 0 0-3.07-8.29zm-.85 17.97l1.67 1.71a17.67 17.67 0 0 0 3.91-9.41h-2.39a15.27 15.27 0 0 1-3.19 7.7zm-8.97-9.53a3.1 3.1 0 1 0-3.1 3.1 3.1 3.1 0 0 0 3.1-3.1zM120 86a12 12 0 0 0-1.48-4.22 11.86 11.86 0 0 0-2.31-2.91 12 12 0 0 0-5.43-2.87 12.16 12.16 0 0 0-2.78-.4c-.31 0-.6.07-.91.09a12 12 0 0 0-6.25 2.31 12.47 12.47 0 0 0-2.62 2.61 12.17 12.17 0 0 0-2.29 6.26c0 .3-.09.6-.09.91a12.16 12.16 0 0 0 .35 2.78A11.9 11.9 0 0 0 98.26 95a12.23 12.23 0 0 0 2.54 2.54 12 12 0 0 0 5.41 2.24 9 9 0 0 0 3.58 0A12.12 12.12 0 0 0 120 89.55a9 9 0 0 0 0-3.55zm-21.66 1.8a9.68 9.68 0 1 1 9.66 9.64 9.69 9.69 0 0 1-9.68-9.68z"/></g><path d="M31.77 200.22l-8.59-12.41v12.41h-6.13V173.4h6.13v11.65l8.2-11.65h7l-9 13.07 9.42 13.75zm26.44-19.16v19.16h-5.75v-1.8a6.53 6.53 0 0 1-5.46 2.34c-3.88 0-7.17-2.76-7.17-7.93v-11.77h5.75V192a3.15 3.15 0 0 0 3.33 3.48c2.11 0 3.56-1.22 3.56-3.94v-10.48zm24.84 9.58c0 5.71-4.14 10.12-9.16 10.12a7.18 7.18 0 0 1-5.71-2.34v1.8h-5.75V173.4h5.75v9.46a7.2 7.2 0 0 1 5.71-2.33c5.02 0 9.16 4.4 9.16 10.11zm-5.75 0a4.56 4.56 0 1 0-4.56 4.68 4.38 4.38 0 0 0 4.56-4.68zm18.7 4.99a5 5 0 0 0 3.68-1.46l4.6 2.64a9.71 9.71 0 0 1-8.28 3.95c-6.56 0-10.62-4.41-10.62-10.12a9.82 9.82 0 0 1 10.19-10.11c5.6 0 9.74 4.33 9.74 10.11a11.35 11.35 0 0 1-.23 2.3H91.44c.73 2 2.49 2.69 4.56 2.69zm3.53-7a4.32 4.32 0 0 0-8.24 0zm6.9-15.23h6.71l5.94 19.73L125 173.4h6.71L123 200.22h-7.81zm44.76 7.66v19.16h-5.75v-1.8a7.18 7.18 0 0 1-5.71 2.34c-5 0-9.15-4.41-9.15-10.12s4.13-10.11 9.15-10.11a7.2 7.2 0 0 1 5.71 2.33v-1.8zm-5.75 9.58a4.56 4.56 0 1 0-4.56 4.68 4.37 4.37 0 0 0 4.56-4.68zm28.1-9.58v19.16h-5.75v-1.8a6.55 6.55 0 0 1-5.48 2.34c-3.87 0-7.17-2.76-7.17-7.93v-11.77h5.75V192a3.16 3.16 0 0 0 3.33 3.48c2.11 0 3.57-1.22 3.57-3.94v-10.48zm4.21-8.81h5.75v28h-5.75zM195 186.58v6.78c0 1.65 1.42 1.81 3.95 1.65v5.21c-7.51.77-9.7-1.49-9.7-6.86v-6.78h-3.06v-5.52h3.06v-3.64l5.75-1.72v5.36h4v5.52z" fill="#486bb3"/></svg>