<?xml version="1.0" encoding="utf-8"?>
<!-- Generator: Adobe Illustrator 21.1.0, SVG Export Plug-In . SVG Version: 6.00 Build 0)  -->
<svg version="1.1" id="Layer_1" xmlns="http://www.w3.org/2000/svg" xmlns:xlink="http://www.w3.org/1999/xlink" x="0px" y="0px"
	 viewBox="0 0 2500 2500" style="enable-background:new 0 0 2500 2500;" xml:space="preserve">
<style type="text/css">
	.st0{fill:#193651;}
	.st1{fill:#FFFFFF;}
	.st2{fill:#FDBF5E;}
	.st3{fill:#2EA2DB;}
	.st4{fill:#F16051;}
</style>
<g>
	<rect x="281.8" y="1388" class="st0" width="73.7" height="73.7"/>
	<rect x="281.8" y="1605.5" class="st0" width="73.7" height="73.7"/>
	<rect x="281.8" y="1826.7" class="st0" width="73.7" height="73.7"/>
</g>
<path class="st1" d="M879.1,1469.1c-7.4,77.4,0,158.5,18.4,235.9L753.7,1812l106.9,206.4l169.6-55.3
	c51.6,62.7,114.3,114.3,180.6,154.8l-25.8,173.3l221.2,70l81.1-158.5c77.4,7.4,158.5,0,235.9-18.4l106.9,143.8l206.4-106.9
	l-55.3-169.6c62.7-51.6,114.3-114.3,151.1-180.6l177,25.8l70-221.2l-158.5-84.8c7.4-77.4,0-158.5-18.4-235.9l143.8-106.9
	l-110.6-206.4l-169.6,55.3c-51.6-62.7-114.3-114.3-180.6-154.8l25.8-177l-221.2-70L1609,857.2c-77.4-7.4-158.5,0-235.9,18.4
	l-106.9-143.8l-206.4,106.9l55.3,169.6c-62.7,51.6-114.3,114.3-151.1,180.6l-177-25.8l-70,221.2L879.1,1469.1z"/>
<ellipse class="st2" cx="1547.3" cy="1531.6" rx="534.6" ry="534.6"/>
<g>
	<path class="st0" d="M1402.5,1723.5h-55.3v-272.8c0-47.9-36.9-84.8-84.8-84.8s-84.8,36.9-84.8,84.8v272.8h-55.3v-272.8
		c0-77.4,62.7-140.1,140.1-140.1s140.1,62.7,140.1,140.1V1723.5z"/>
	<path class="st0" d="M1531.6,1723.5h-55.3v-412.9h147.5c59,0,106.9,47.9,106.9,106.9v47.9c0,59-47.9,106.9-106.9,106.9h-92.2
		V1723.5z M1531.6,1517h92.2c29.5,0,51.6-22.1,51.6-51.6v-47.9c0-29.5-22.1-51.6-51.6-51.6h-92.2V1517z"/>
	<polygon class="st0" points="1948.2,1365.9 1948.2,1310.6 1786,1310.6 1786,1365.9 1841.3,1365.9 1841.3,1694 1786,1694 
		1786,1749.3 1948.2,1749.3 1948.2,1694 1896.6,1694 1896.6,1365.9 	"/>
	<rect x="1148.2" y="1491.2" class="st0" width="224.9" height="55.3"/>
</g>
<path class="st1" d="M1328.8,429.5c0-3.7,0-7.4,0-11.1c0-188-154.8-342.9-342.9-342.9c-129,0-239.6,70-298.6,173.3
	c-40.6-36.9-95.9-59-158.5-59c-132.7,0-243.3,110.6-243.3,243.3v3.7C171.2,481.1,90.1,595.4,90.1,728.1
	c0,173.3,140.1,309.7,309.7,309.7h840.5c173.3,0,309.7-140.1,309.7-309.7C1557.4,588,1461.5,466.4,1328.8,429.5z"/>
<path class="st0" d="M2257.8,1568.7c3.7-66.4,0-132.7-18.4-199.1l147.5-110.6l-136.4-261.7l-177,59c-44.2-51.6-95.9-92.2-154.8-129
	l29.5-184.3L1668,654.4l-81.1,165.9c-3.7,0-7.4,0-7.4,0c7.4-29.5,11.1-59,11.1-92.2c0-143.8-92.2-276.5-224.9-324.4
	c-7.4-202.8-173.3-365-379.7-365c-121.7,0-235.9,59-309.7,158.5c-44.2-25.8-95.9-40.6-147.5-40.6c-147.5,0-269.1,114.3-280.2,258.1
	c-121.7,59-195.4,177-195.4,313.4c0,191.7,154.8,346.5,346.5,346.5H997c-18.4,25.8-36.9,47.9-55.3,77.4l-184.3-29.5l-84.8,283.9
	l165.9,81.1c-3.7,66.4,0,132.7,18.4,199.1l-147.5,110.6L845.9,2059l177-59c44.2,51.6,95.9,92.2,154.8,129l-29.5,184.3l280.2,88.5
	l81.1-165.9c66.4,3.7,132.7-3.7,199.1-18.4l110.6,147.5l261.7-136.4l-59-177c51.6-44.2,92.2-95.9,129-154.8l184.3,29.5l88.5-283.9
	L2257.8,1568.7z M130.7,728.1c0-114.3,66.4-213.8,173.3-254.4l22.1-14.7v-25.8c0-114.3,92.2-206.4,206.4-206.4
	c47.9,0,95.9,18.4,132.7,47.9l33.2,29.5l25.8-36.9c55.3-95.9,154.8-154.8,265.4-154.8c169.6,0,306,136.4,306,306V459l25.8,7.4
	c118,33.2,199.1,143.8,199.1,265.4c0,151.1-121.7,272.8-272.8,272.8H403.5C252.3,1004.6,130.7,879.3,130.7,728.1z M2283.6,1852.5
	l-169.6-25.8l-14.7,22.1c-36.9,66.4-84.8,125.3-143.8,173.3l-18.4,14.7l55.3,162.2l-151.1,77.4L1738,2136.4l-25.8,7.4
	c-73.7,18.4-147.5,25.8-224.9,18.4l-25.8-3.7l-73.7,158.5l-162.2-51.6l25.8-169.6l-22.1-11.1c-66.4-36.9-121.7-84.8-173.3-143.8
	l-14.7-18.4l-162.2,55.3l-77.4-151.1l140.1-103.2l-7.4-25.8c-18.4-73.7-25.8-147.5-18.4-224.9l3.7-25.8l-158.5-77.4l51.6-162.2
	l169.6,25.8l11.1-22.1c29.5-47.9,62.7-95.9,103.2-132.7h143.8c132.7,0,247-73.7,306-184.3c18.4,0,36.9,0,55.3,3.7l25.8,3.7
	l77.4-154.8l162.2,51.6l-22.1,165.9l22.1,11.1c66.4,36.9,121.7,84.8,173.3,143.8l14.7,18.4l162.2-55.3l77.4,151.1l-140.1,103.2
	l7.4,25.8c18.4,73.7,25.8,147.5,18.4,224.9l-3.7,25.8l154.8,77.4L2283.6,1852.5z"/>
<polygon class="st3" points="952.8,746.6 1140.8,746.6 1140.8,558.5 1085.5,613.8 864.3,389 786.9,466.4 1011.8,691.3 "/>
<polygon class="st4" points="672.6,499.6 484.6,499.6 484.6,687.6 543.6,632.3 764.8,857.2 842.2,779.7 617.3,554.9 "/>
</svg>
