<?xml version="1.0" encoding="utf-8"?>
<!-- Generator: Adobe Illustrator 21.1.0, SVG Export Plug-In . SVG Version: 6.00 Build 0)  -->
<svg version="1.1" id="Layer_1" xmlns="http://www.w3.org/2000/svg" xmlns:xlink="http://www.w3.org/1999/xlink" x="0px" y="0px"
	 viewBox="0 0 2500 2500" style="enable-background:new 0 0 2500 2500;" xml:space="preserve">
<style type="text/css">
	.st0{fill:#32969F;}
	.st1{fill:#FDFEFE;}
</style>
<g>
	<path class="st0" d="M187.3,1790.2c0-7.2,0-14.4,0-21.7c10.8-12.3,7-27.4,7-41.4c0.2-319.1,0.2-638.3,0-957.4c0-14,3.7-29-7-41.4
		c0-7.2,0-14.4,0-21.7c24.5-69,66.1-122.4,132.1-158c87.3-47,172.6-97.5,258.7-146.7c104-59.5,208-119.1,311.7-179.1
		c83.3-48.2,166.5-96.7,249.1-146.2c74.1-44.4,150.4-54.9,228.4-13.9c62.5,32.9,123.3,69.3,184.5,104.8
		c220.5,127.6,440.4,256.5,661.6,382.8c86,49.1,133.2,118.8,133.3,218.3c0.3,320.1,0.9,640.3-0.4,960.4
		c-0.3,88.5-34.1,160.8-115.9,205.8c-67.5,37.2-133.8,76.7-200.5,115.4c-220.5,127.8-440.6,256.4-661.8,383.2
		c-61.1,35-125.1,40.6-190.7,6.3c-62.2-32.5-121.6-69.7-182.2-104.9c-76.9-44.6-154.9-87.3-231.9-131.8
		c-128.3-74.1-256.6-148.1-383.9-223.8c-53.4-31.8-114.9-51.5-152.5-107.6C209.6,1845.9,207.7,1813.8,187.3,1790.2z M643.6,796.7
		c14.2,1,21,1.8,27.8,2c50.3,1,50.3,1,50.3,52.8c0,199.7-0.2,399.4,0.2,599.2c0.1,72.3,44.5,121.7,113.9,122.2
		c194.9,1.4,389.8,0.3,584.7,0.9c19,0.1,24.9-5.9,24.6-24.7c-1-55.3-2-110.8,0.4-166c1.3-29.2-8.6-35.8-36.3-35.6
		c-142,1.3-283.9-0.3-425.9,1.3c-30.7,0.4-37.9-9.1-37.6-38.5c1.5-146.8,0.7-293.6,0.7-440.3c0-67.1,0-67.1,64.5-72.5
		c1.7-0.1,3.3-2.9,7.1-6.6c-60.7-85.7-121.5-171.8-185-261.5C769.8,618.3,708.9,704.4,643.6,796.7z M1891.3,1743
		c-15.8-0.7-23-1.2-30.1-1.3c-48.4-0.6-48.4-0.6-48.4-47.4c0-202.1,0.3-404.3-0.2-606.4c-0.2-71.5-45.6-120-115.7-120.4
		c-193.7-1.1-387.4-0.1-581.1-0.9c-20.6-0.1-26.8,6.3-26.4,26.6c1.2,55.3,2,110.7-0.3,166c-1.2,27.9,8.2,33.9,34.5,33.7
		c142-1.2,284,0.5,425.9-1.4c32.7-0.4,39.7,9.5,39.4,40.5c-1.6,144.4-0.5,288.7-1,433.1c-0.1,23.8,9.3,52.1-4.5,70.3
		c-12.5,16.6-40.9,2.5-61.6,7.9c-0.9,0.2-1.4,1.8-4.8,6.7c57.7,81.7,116.3,164.6,174.8,247.7c6.3,9,11.8,10.7,18.8,0.7
		C1769.5,1915.1,1828.3,1832,1891.3,1743z"/>
	<path class="st0" d="M187.3,728.4c10.8,12.3,7,27.4,7,41.4c0.2,319.1,0.2,638.3,0,957.4c0,14,3.7,29-7,41.4
		C187.3,1421.8,187.3,1075.1,187.3,728.4z"/>
	<path class="st1" d="M643.6,796.7c65.3-92.3,126.3-178.3,189.3-267.3c63.5,89.7,124.3,175.7,185,261.5c-3.8,3.7-5.4,6.5-7.1,6.6
		c-64.5,5.4-64.5,5.3-64.5,72.5c0,146.8,0.8,293.6-0.7,440.3c-0.3,29.5,6.9,38.9,37.6,38.5c142-1.6,283.9,0,425.9-1.3
		c27.7-0.3,37.6,6.4,36.3,35.6c-2.4,55.2-1.4,110.7-0.4,166c0.3,18.8-5.6,24.7-24.6,24.7c-194.9-0.6-389.8,0.4-584.7-0.9
		c-69.3-0.5-113.7-49.9-113.9-122.2c-0.4-199.7-0.1-399.4-0.2-599.2c0-51.8,0-51.8-50.3-52.8C664.6,798.5,657.8,797.7,643.6,796.7z"
		/>
	<path class="st1" d="M1891.3,1743c-63,89-121.8,172.1-180.6,255.3c-7,9.9-12.4,8.3-18.8-0.7c-58.5-83.1-117.2-166-174.8-247.7
		c3.4-4.8,4-6.4,4.8-6.7c20.7-5.4,49.1,8.7,61.6-7.9c13.8-18.2,4.4-46.5,4.5-70.3c0.4-144.4-0.7-288.8,1-433.1
		c0.4-31-6.6-41-39.4-40.5c-141.9,1.9-283.9,0.2-425.9,1.4c-26.3,0.2-35.7-5.8-34.5-33.7c2.3-55.3,1.5-110.7,0.3-166
		c-0.4-20.3,5.7-26.7,26.4-26.6c193.7,0.7,387.4-0.3,581.1,0.9c70.1,0.4,115.5,48.9,115.7,120.4c0.5,202.1,0.2,404.3,0.2,606.4
		c0,46.8,0,46.8,48.4,47.4C1868.4,1741.7,1875.5,1742.3,1891.3,1743z"/>
</g>
</svg>
