<?xml version="1.0" encoding="utf-8"?>
<!-- Generator: Adobe Illustrator 21.1.0, SVG Export Plug-In . SVG Version: 6.00 Build 0)  -->
<svg version="1.1" id="Layer_1" xmlns="http://www.w3.org/2000/svg" xmlns:xlink="http://www.w3.org/1999/xlink" x="0px" y="0px"
	 viewBox="0 0 2500 2500" style="enable-background:new 0 0 2500 2500;" xml:space="preserve">
<style type="text/css">
	.st0{fill:#9ABB43;}
	.st1{fill:#FFFFFF;}
</style>
<path class="st0" d="M2352.2,2448.8H157.3c-55,0-100-45-100-100V145.1c0-55,45-100,100-100h2194.9c55,0,100,45,100,100v2203.7
	C2452.2,2403.8,2407.2,2448.8,2352.2,2448.8z"/>
<g id="NoKpRq.tif">
	<g>
		<path class="st1" d="M2176,1253.8c0,146.8-0.6,293.5,0.3,440.3c0.4,72.4-30.5,124.6-92.8,160.5
			c-254.8,146.6-509.4,293.6-763.7,441c-63.1,36.6-124.4,36.8-187-1c-82.2-49.5-165.2-97.8-247.7-146.9
			c-9.9-5.9-25.6-10.3-24.2-23.7c1.2-12.6,17.2-12.4,27.5-16.1c32.8-11.6,64.7-25.2,94.1-43.7c14.6-9.2,26.4-7.8,40.5,0.7
			c59.9,36.3,120.4,71.4,180.3,107.7c16.1,9.8,29.6,10.3,46.3,0.7c254.4-147.3,509-294.2,763.8-440.8c15.6-9,22.6-19.8,22.6-38.3
			c-0.4-294.9-0.4-589.7,0-884.6c0-17.5-6.1-28.4-21.2-37.1c-256-147.2-511.8-294.7-767.4-442.5c-14.5-8.4-26.5-8.2-40.8,0.1
			C950.6,478.1,694.9,625.7,438.9,773c-15.1,8.7-21.1,19.7-21.1,37.1c0.4,294.9,0.4,589.7,0,884.6c0,17.7,6.5,28.3,21.5,36.8
			c66.7,37.9,132.7,76.8,199.4,114.7c34.3,19.5,70.9,31.6,111,23.9c51-9.7,83.5-49.2,83.9-102c0.5-76.7,0.2-153.4,0.2-230.2
			c0-215.5,0-431,0-646.4c0-32.8,4-36.8,36.9-36.9c25.4-0.1,50.7-0.2,76.1,0c25.3,0.2,31.7,6.6,31.7,32.3c0.1,183.5,0,366.9,0,550.4
			c0,112.1,0,224.2,0,336.2c0,39.7-5.4,78.7-20.9,115.4c-37.2,88.4-109.4,122-200.2,127.3c-72.9,4.2-137.9-19.9-199.9-54.2
			c-64.7-35.8-128.5-73.3-192.5-110.5c-58-33.6-87.5-84-87.4-151.3c0-298.9,0-597.7,0.1-896.6c0-66.5,29.2-116.4,86.6-149.6
			c258.6-149.4,517.1-299,775.8-448c57.2-33,116.1-33,173.2-0.1c259.4,149.4,518.5,299.2,777.5,449.2
			c56.7,32.8,85.1,82.8,85.1,148.5C2176.1,953.6,2176,1103.7,2176,1253.8z"/>
		<path class="st1" d="M1446,1699.6c-74.5-2.8-149.9-10.4-221.6-39.2c-109-43.9-168.9-128.4-170.2-240.2
			c-0.3-26.8,5.5-32.6,32.8-32.7c28-0.1,56.1,0.6,84.1-0.2c19.2-0.6,28.4,8.5,30.9,26.4c0.6,4,1,7.9,1.8,11.9
			c11.9,66.5,51.7,107.4,116.9,121.4c94.3,20.3,189.2,20.6,283.9,1.3c17.7-3.6,34.4-10.4,50-19.6c40-23.7,59.6-71.1,47.5-115.7
			c-6.4-23.5-24.4-35.8-45.1-45.1c-40-17.9-82.8-25-125.6-31.8c-83.6-13.3-168.7-15.4-251.3-35.8c-25.9-6.4-51.4-14.1-75.9-24.9
			c-88.3-39.1-129.9-109.4-123.6-205.9c6.5-98.6,59.6-162.5,147-201.6c44.3-19.8,91.1-30.3,139.2-34c95-7.5,189.5-5.4,280.8,26.3
			c111.7,38.7,169.3,119.8,180.1,235.9c2.4,25.9-4.1,32.8-29.7,33.1c-29.4,0.3-58.7-0.2-88.1,0.1c-15.6,0.2-25.3-6.2-28.4-22
			c-1.4-7.2-4-14.1-6-21.1c-16.5-56.1-53.1-92.2-109.9-105c-79.7-17.9-160.1-18.5-240.1-1c-20.3,4.4-39.4,12.5-56.1,25.4
			c-28.9,22.3-42.1,67.6-29.1,101.2c7.1,18.3,22.7,27.3,39.8,34c44.5,17.4,91.5,23.7,138.2,31.1c90.1,14.3,181.5,21.5,269.5,47.7
			c23,6.9,45.4,15.3,67,26.1c61.7,30.8,95.7,80.6,103.8,148.9c13.7,115.2-36.6,207.6-141.3,258c-71.9,34.6-149,44.2-227.5,47.1
			C1475.8,1700,1461.8,1699.6,1446,1699.6z"/>
		<path class="st1" d="M2147.7,227.9c-14.7,43.3-29.5,86.6-44.1,129.9c-3.4,10.3-5.4,19.4-20.5,19.2c-14.5-0.2-15.6-9.7-18.8-18.8
			c-13.5-39-26.7-78.1-40.1-117.1c-1.6-4.8-3.7-9.4-8.8-13.5c0,44.2,0.1,88.4-0.1,132.5c0,6.4,3.5,15-8.7,16.3
			c-13.7,1.4-16.8-4.4-16.7-17c0.6-53.3,0.1-106.6,0.4-159.9c0-6.8-4.5-18.6,8.7-17.9c11.7,0.6,26.9-8.2,33.3,11.7
			c13.6,42.4,28.5,84.5,42.9,126.7c2.1,6.1,4.6,12.1,8.4,22.1c3.6-8.5,6-13.4,7.7-18.6c14.4-42.2,30-84,42.5-126.8
			c6.1-20.7,20-15.2,32.9-15.4c15.8-0.2,10.7,12.5,10.8,20.6c0.4,52.6,0.1,105.3,0.3,157.9c0,9.3,0.2,16.9-13,16.8
			c-12.8-0.1-13.3-6.9-13.2-16.6c0.3-43.9,0.1-87.8,0.1-131.7C2150.5,228.2,2149.1,228.1,2147.7,227.9z"/>
		<path class="st1" d="M1874.2,290.9c0-22.7-0.9-45.4,0.3-68c0.8-15.4-5.1-20.1-19.7-18.9c-11.9,1-24,0.1-36,0.1
			c-7.2,0-10.9-2.6-11.1-10.5c-0.2-8.5,3.1-12.2,11.6-12.2c45.3,0.1,90.7,0.1,136,0c8.4,0,11.7,3.6,11.6,12.1
			c-0.1,9.6-5.6,10.7-13,10.6c-12.7-0.1-25.4,0.6-38-0.1c-12.4-0.7-16.1,4.4-15.9,16.4c0.5,46,0.1,92,0.2,138
			c0,9.7,0.9,18.5-13.8,18.1c-13.9-0.4-12.2-9.1-12.2-17.6C1874.1,336.2,1874.2,313.6,1874.2,290.9z"/>
	</g>
</g>
</svg>
