<?xml version="1.0" encoding="utf-8"?>
<!-- Generator: Adobe Illustrator 21.1.0, SVG Export Plug-In . SVG Version: 6.00 Build 0)  -->
<svg version="1.1" id="Layer_1" xmlns="http://www.w3.org/2000/svg" xmlns:xlink="http://www.w3.org/1999/xlink" x="0px" y="0px"
	 viewBox="0 0 2500 2500" style="enable-background:new 0 0 2500 2500;" xml:space="preserve">
<style type="text/css">
	.st0{fill:#0DBC54;}
	.st1{fill:#00E562;}
	.st2{fill:#009BF9;}
	.st3{fill:#20B7F2;}
	.st4{fill:#FFFFFF;}
</style>
<g>
	<g>
		<path class="st0" d="M1179.5,2428.9l-1064.1-649c-93-56.7-93-191.7,0-248.4l1064.1-649c46.5-28.4,105-28.4,151.5,0l1064.1,649
			c93,56.7,93,191.7,0,248.4l-1064.1,649C1284.5,2457.3,1226,2457.3,1179.5,2428.9z"/>
		<g>
			<path class="st1" d="M1179.5,882.5l-1064.1,649c-93,56.7-93,191.7,0,248.4l1064.1,649c20.3,12.4,43,19.4,65.9,20.9V861.6
				C1222.5,863.1,1199.9,870.1,1179.5,882.5z"/>
		</g>
		<path class="st2" d="M1179.5,1798.3l-1064.1-649c-93-56.7-93-191.7,0-248.4l1064.1-649c46.5-28.4,105-28.4,151.5,0l1064.1,649
			c93,56.7,93,191.7,0,248.4l-1064.1,649C1284.5,1826.7,1226,1826.7,1179.5,1798.3z"/>
		<g>
			<path class="st3" d="M1179.5,251.9l-1064.1,649c-93,56.7-93,191.7,0,248.4l1064.1,649c20.3,12.4,43,19.4,65.9,20.9V231
				C1222.5,232.6,1199.9,239.5,1179.5,251.9z"/>
		</g>
	</g>
	<g>
		<path class="st1" d="M1406.5,1905.3c-0.8-276.1,225.6-503.6,502.1-504.4c278.9-0.8,506.2,224.8,506.9,503.3
			c0.7,278.3-225.7,505.3-504.6,505.7C1633.5,2410.4,1407.3,2184.2,1406.5,1905.3z M1484.1,1906c1.4,236.5,192.9,427.2,428.1,426.3
			c235.5-0.9,427-193.8,425.6-428.8c-1.4-235.8-193.5-426-429.3-425C1674.4,1479.6,1482.8,1672.6,1484.1,1906z"/>
		<path class="st4" d="M1484.1,1906c-1.4-233.5,190.3-426.4,424.4-427.5c235.8-1,428,189.2,429.3,425
			c1.4,235-190.1,427.9-425.6,428.8C1677,2333.2,1485.5,2142.5,1484.1,1906z M1929.1,1594.9c-1-1.2-2-2.4-3-3.7
			c4.4-2.9,9.5-5.1,13-8.9c14.6-15.8,14.1-38.7-0.7-53.5c-14.8-14.9-38.1-16.1-53.5-1.2c-27,26.1-53.6,52.7-79.8,79.7
			c-14.4,14.8-15,36.9-0.9,51.6c26.6,27.7,53.7,54.8,81.4,81.4c14.9,14.3,38.1,12.8,52.6-1.7c14.5-14.5,15.3-37,1.9-52.7
			c-3-3.5-6.3-6.9-11.2-12.3c8.2,0.8,13.8,1,19.2,2c124.8,21.5,209.6,133.7,193.1,258.8c-11.9,90.5-62.2,154.6-146.9,187.5
			c-84.9,33-164.9,18.2-234.7-40.3c-53.7-45-79.9-104.3-81.6-174.3c-0.6-24.5-17.4-41.4-40.2-40.7c-21.9,0.6-37.8,18.3-37.3,42.2
			c0.3,13.3,1,26.7,2.8,39.9c23.5,165.7,173.3,282.3,340.4,265.2c150.6-15.4,270.1-141.5,277.2-292.4
			c7.2-153.8-97.3-288.5-248.2-319.6C1958.5,1598.8,1943.7,1597.2,1929.1,1594.9z M1872.2,1983.3c0,24.2,0,48.5,0,72.7
			c0,25.6,15.8,43.3,38.7,43.4c23,0.1,38.9-17.4,38.9-43.1c0.1-41.2,0.3-82.4-0.1-123.6c-0.1-8.5,2.6-14.2,8.5-19.9
			c19.2-18.5,38-37.4,56.6-56.5c16.6-17,16.8-40.6,0.9-56.2c-15.7-15.3-38.8-15-55.3,1.2c-25.3,24.9-50.3,50.3-75.5,75.3
			c-8.8,8.8-12.9,19.1-12.7,31.6C1872.4,1933.2,1872.2,1958.3,1872.2,1983.3z"/>
		<path class="st1" d="M1929.1,1594.9c14.6,2.3,29.4,3.9,43.9,6.9c150.9,31.1,255.4,165.8,248.2,319.6
			c-7.1,150.9-126.7,277.1-277.2,292.4c-167.2,17.1-317-99.6-340.4-265.2c-1.9-13.2-2.6-26.6-2.8-39.9
			c-0.5-23.9,15.4-41.5,37.3-42.2c22.7-0.6,39.6,16.3,40.2,40.7c1.7,70.1,28,129.4,81.6,174.3c69.8,58.5,149.8,73.3,234.7,40.3
			c84.7-32.9,135-97,146.9-187.5c16.4-125.1-68.3-237.3-193.1-258.8c-5.4-0.9-11-1.1-19.2-2c5,5.4,8.2,8.8,11.2,12.3
			c13.4,15.8,12.6,38.2-1.9,52.7c-14.5,14.5-37.7,16-52.6,1.7c-27.7-26.6-54.8-53.8-81.4-81.4c-14.1-14.7-13.5-36.8,0.9-51.6
			c26.2-27,52.7-53.6,79.8-79.7c15.4-14.9,38.7-13.7,53.5,1.2c14.8,14.8,15.3,37.7,0.7,53.5c-3.5,3.8-8.6,6-13,8.9
			C1927.1,1592.5,1928.1,1593.7,1929.1,1594.9z"/>
		<path class="st1" d="M1872.2,1983.3c0-25,0.2-50.1-0.1-75.1c-0.1-12.4,3.9-22.8,12.7-31.6c25.2-25.1,50.2-50.4,75.5-75.3
			c16.5-16.3,39.7-16.5,55.3-1.2c15.9,15.6,15.8,39.2-0.9,56.2c-18.7,19-37.4,38-56.6,56.5c-5.9,5.7-8.6,11.5-8.5,19.9
			c0.4,41.2,0.2,82.4,0.1,123.6c0,25.7-15.9,43.2-38.9,43.1c-22.9-0.1-38.7-17.8-38.7-43.4
			C1872.2,2031.8,1872.2,2007.6,1872.2,1983.3z"/>
	</g>
</g>
</svg>
