<svg xmlns="http://www.w3.org/2000/svg" viewBox="0 0 1279 639" xmlns:v="https://vecta.io/nano"><style><![CDATA[.L{stroke-miterlimit:10}.M{stroke:#8f8f8f}.N{stroke-width:1.95}.O{fill:#4cba70}]]></style><defs><linearGradient id="A" x1="265.45" y1="311.21" x2="322.66" y2="468.38" gradientUnits="userSpaceOnUse"><stop offset="0" stop-color="#25215c"/><stop offset="1" stop-color="#fff" stop-opacity="0"/></linearGradient><clipPath id="B"><path d="M314.17 375.09a302.93 302.93 0 0 1-9.55-4.82l-16.7-56.5a9.21 9.21 0 1 0-13.7-9.67l-56.49-8.49-3.75-4.72c-9.08 24.48 11.44 48.17 11.44 48.17l-47.15 28.45 48.37 60.66a14.58 14.58 0 0 0 10.2 5.42l20.23-68.58c41.11 24.37 57.1 10.08 57.1 10.08zm-30-60.09h0l15.55 52.63a260.52 260.52 0 0 1-27.27-17.25zm-62.89-14.87l53 8c0 .16.08.33.13.49l-33.31 14.59a302.19 302.19 0 0 1-19.81-23.08zM276.45 312a9.29 9.29 0 0 0 3.74 2.49l-11.06 33.41a233.55 233.55 0 0 1-25-21.73z" fill="none"/></clipPath></defs><path d="M516.15 250.92h29.19l-51.41 135.29H471.7l-51.41-135.29h29.18l33.25 88.71zm22.59 86.97c0-30.15 16-50.25 48.13-50.25s47.93 20.1 47.93 50.25-15.8 50.25-47.93 50.25-48.13-20.14-48.13-50.25zm27.26 0c0 16.62 6.76 27.25 20.87 27.25s20.68-10.63 20.68-27.25-6.57-27.25-20.68-27.25S566 321.27 566 337.89zM674 376l-34.79-86.4h29.59l19.91 57.21 20.1-57.21H738l-54.51 135.26h-29.38zm124.66 10.21a35.9 35.9 0 0 1-1.93-9.47 33.13 33.13 0 0 1-25.51 11.4c-20.68 0-32.09-11-32.09-31.12 0-23.38 18.36-29.18 40.21-29.18a123.35 123.35 0 0 1 17.39 1.36V322c0-7.92-5-11.4-12.37-11.4-6.57 0-10.24 3.67-11.4 8.51l-29.57-3.49c3.09-17.58 20.29-28 41.16-28 21.65 0 39.43 10.63 39.43 33.44V352c0 12.75.39 23 2.13 34.21zm-13.92-39.43c-11 0-18.36 2.32-18.36 10.44 0 5.41 4.06 7.92 10.25 7.92 10.82 0 20.1-7.53 20.1-18.36zm66.67 39.43v-10.63l9.46-23c-11.4-5.61-16.81-16.24-16.81-30.15 0-21.27 12.76-34.79 40.78-34.79a68.92 68.92 0 0 1 16.43 1.93h37.49v20.1h-15.07a38.48 38.48 0 0 1 1.93 12.76c0 21.26-12.56 34.79-40.78 34.79h-1l-3.68 8.89h19.72c24.93 0 32.28 11 32.28 26.87 0 24.54-19.91 33.82-45.62 33.82-19.71 0-33.24-3.67-44.84-10.64l9.86-19.9c13.14 7.15 21.45 8.5 34 8.5 11.21 0 19.33-2.7 19.33-11.21 0-4.25-1.93-7.34-9.08-7.34zm19.9-63.78c0 7.73 4.06 12.76 13.53 12.76 9.66 0 13.53-5 13.53-12.76 0-7.93-3.87-12.76-13.53-12.76-9.47 0-13.53 4.83-13.53 12.76zM1048 350.81c-8.37 12.18-18 21.33-28.42 27.32-28.46 16.42-55.6 10-71.15-17-15.07-26.12-11.05-51.64 16.57-67.58 26.12-15.07 48.67-5.76 62 17.34l7.14 12.38-56.25 32.46c7.76 8 17.81 9.59 30.7 2.15 7-4.06 14.15-11.06 21.15-21.35zm-80.71-14.58l32-18.45c-5.89-8.65-14.4-9.1-22.77-4.27-8.87 5.12-11.59 13.16-9.2 22.72zm140.17-21.34a34.35 34.35 0 0 0-10.63-1.93c-12 0-13.92 9.27-13.92 23.38v49.87h-27.25v-96.64h27.25v9.09c4.83-7.74 11-11 18.56-11a31.85 31.85 0 0 1 10.62 1.93zM277.34 206.77l-82 39.49a14.44 14.44 0 0 0-7.81 9.79l-20.25 88.74a14.43 14.43 0 0 0 2.78 12.2l56.76 71.17a14.4 14.4 0 0 0 11.27 5.43h91a14.4 14.4 0 0 0 11.27-5.43L397.14 357a14.39 14.39 0 0 0 2.78-12.2l-20.25-88.74a14.46 14.46 0 0 0-7.8-9.79l-82-39.49a14.37 14.37 0 0 0-12.53-.01z" fill="#2d2a78"/><path d="M337.48,304V267.21s1-9.29-4.53-9.29H268.41a.84.84,0,0,0-.79.88v14.42a.52.52,0,0,1-.55.67H201.16" fill="none" class="L M N"/><g class="O"><circle cx="337.56" cy="304.02" r="2.06"/><circle cx="201.16" cy="273.9" r="2.06"/></g><path d="M237.84,246.11v33.32s-1,8.42,4.1,8.42h58.43a.76.76,0,0,0,.7-.8V274a.48.48,0,0,1,.51-.6h59.65" fill="none" class="L M N"/><g class="O"><circle cx="237.87" cy="246.14" r="2.06"/><circle cx="361.23" cy="273.43" r="2.06"/></g><path d="M237.77 305.86h36.8c2.28 0 9.3 1.05 9.3-4.53v-64.54" fill="none" class="L M N"/><g class="O"><circle cx="237.77" cy="306.08" r="2.06"/><circle cx="283.87" cy="236.79" r="2.06"/></g><path d="M278.05 305.52l-63.51-7.14 17.23 52.74-14.18 65.14 9.5 11.91a14.57 14.57 0 0 0 11.4 5.49h90.84a14.6 14.6 0 0 0 11.41-5.49l36.66-46-89-80.17z" fill="url(#A)"/><g clip-path="url(#B)"><path d="M277.34 206.91l-82 39.49a14.44 14.44 0 0 0-7.81 9.79l-20.25 88.74a14.43 14.43 0 0 0 2.78 12.2l56.76 71.17a14.4 14.4 0 0 0 11.27 5.43h91a14.4 14.4 0 0 0 11.27-5.43l56.76-71.17a14.39 14.39 0 0 0 2.78-12.2l-20.25-88.74a14.46 14.46 0 0 0-7.8-9.79l-82-39.49a14.37 14.37 0 0 0-12.51 0z" fill="#fff"/></g><g fill="none" stroke="#2e2d77" class="L"><path d="M283.28,303.88l-1.6-1.81" stroke-width=".07"/><path d="M278.24,302.49l1.26,1.82" stroke-width=".03"/><path d="M283.28,303.88l1.58-1.82m.33,3.84,1.89-1.59m-1.89,1.59,1.89,1.65m-2.2,2.07-1.6-1.77m-1.58,1.77,1.58-1.77m-3.78-.38,1.81-1.58m-1.81-1.58,1.81,1.58m2-2-3.78.43m3.78-.43,3.8.43m-1.89,1.59-.33-3.84m.33,3.84-.31,3.72m2.2-2.07-3.8.3m-3.78-.38,3.78.38m-1.58,1.77-.39-3.73m.37-3.82-.37,3.82" stroke-width=".07"/><g stroke-width=".03"><path d="M277.76,304.79l1.74-.48m.36-3.53,1.82,1.29m.42-2.11-.42,2.11m.42-2.11,2.76,2.1m-.41-2.1.41,2.1m1.83-1.28-1.83,1.28m3.45.43-3.45-.43m2.22,2.25,1.23-1.82m-1.23,1.82,1.76.48m-1.76-.48L288.8,307m-4.35-7-2.77,2.11m5.4,2.24-.39-3.53m.39,6.77,1.72-.6m-1.72.6,1.76-2.76m-1.76,2.76,1.24,1.68m-1.24-1.68-.39,3.39m-1.81-1.32,1.81,1.32m-1.81-1.32,3.44-.39m-3.44.39-.42,2.14m.42-2.14-2.77,2.14m-.41-2.14.41,2.14m-.41-2.14,2.76,2.14m-2.76-2.14-1.83,1.32m1.83-1.32-3.45-.37m1.25-1.78-1.25,1.78m1.25-1.78.37,3.47m-.37-3.47-1.75-.54m1.75-2.62-1.75,2.62m1.75.54-1.74-2.68m2.1-4-.36,3.53m-1.26-1.82,3.44-.42"/><path d="M279.86,300.78l-1.33-.64m1.33.64-.1-1.47m2.34.65-2.34-.65m2.34.65-1-1.24m1,1.24.42-1.47m-2.66,2.29,1.24-2.06m3.35,1.24-1.93-1.47m1.93,1.47-.43-1.53M282.1,300l1.92-1.53m.43,1.53,1-1.24m1.24,2.06-1.24-2.06m1.24,2.06.13-1.47m-2.37.65,2.37-.65m-.13,1.47,1.37-.71m-1.37.71,2.38.35m-.76,1.36.76-1.36m-.76,1.36-.25-2.42m.25,2.42,1.57-.13m-1.57.13,2.15,1.22m-1.62,1.08,1-2.43m-1,2.43,1.62-1.08m-1.62,1.08,1.81.37M288.8,307l1.85-1.79M288.8,307l1.9-.36m-1.86-1.8,1.86,1.8m-1.9.36,1.62,1.08m-2.1,1.2,2.1-1.2m-2.1,1.2,1.55.15M288.8,307l1.07,2.43m-1.55-.15.74,1.37m-.74-1.37-.28,2.4m0,0-1.35-.69m0,0,.12,1.51m-.12-1.51,2.37-.34m-2.37.34-1.23,2.1m-1-1.28,1,1.28m-1-1.28,2.35.69m-2.35-.69-.44,1.57m.44-1.57-1.93,1.57m-.42-1.57.42,1.57m-.42-1.57,1.91,1.57m-1.91-1.57-1,1.28m-1.24-2.1,1.24,2.1m1-1.28-2.36.72m.12-1.54-.12,1.54m.12-1.54-1.36.75m-.26-2.44.26,2.44m1.36-.75-2.38-.32m.76-1.37-.76,1.37m.76-1.37-1.56.14m1.56-.14-2.15-1.2m1.65-1.12-1.65,1.12m1.65-1.12-1.87-.34m1.87.34-1.06,2.46m1.07-4.6-1.88,1.8m1.87.34-1.88-1.77m1.89-.37-1.61-1.07m1.61,1.07-1.89.37m1.89-.37-1.06-2.42m1.54.12-1.54-.12m1.54.12-2.09,1.23m2.09-1.23-.73-1.29m.73,1.29.29-2.35m1.33.64-2.35.42"/></g></g><g fill="#2e2d77"><path d="M280.39 306.8V305h1.83v1.82zm2-2V303h1.83v1.82zm0 4V307h1.83v1.83h-1.83zm2-2v-1.82h1.82v1.82zm-.16-4.1v-1.27h1.27v1.27zm-3.17 0v-1.27h1.27v1.27zm-2.2 2.24v-1.26h1.27v1.27zm0 3.17v-1.26h1.27v1.26zm7.58 0v-1.26h1.27v1.27zm0-3.17v-1.27h1.28V305zm-8.62-2.04v-.83h.84v.83zm1.63-1.71v-.83h.84v.83zm2.23-.81v-.84h.83v.83zm-4.34 4.83v-.83h.83v.83zm10.56-3.14h.83v.83h-.83v-.83zm-1.62-1.71h.83v.83h-.83v-.83zm-2.25-.82h.83v.84H284zm4.35 4.84h.83v.84h-.83zm-7.32 5.91V309h1.27v1.26zm3.16 0V309h1.27v1.26zm3.68-.64v-.83h.83v.83zm-1.62 1.72v-.84h.83v.83zm-2.24.81v-.83h.83v.83zm4.35-4.84v-.83h.83v.83zm-10.56 1.48h.83v.83h-.83zm1.62 1.71h.83v.83h-.84zm2.24.81h.83v.83h-.83v-.83zm-4.35-4.83h.83v.84h-.83zm.96-6.16v-.45h.46v.46zm-2.65 5v-.45h.46v.46zm.26-1.44v-.45h.45v.54zm5-5v-.46h.46v.55zm-4.42 3.65v-.45h.45v.45zm.82-1.21v-.46h.45v.45zm2.26-2.32h.43v.46h-.46v-.46zm2.78-.86h.45v.46h-.45zm7.33 4.39v-.45h.45v.45zm.6 1.36v-.46h.46v.54zm-1.41-2.57v-.46h.45v.45zm1.63 4v-.46h.46v.45zm-6.68-6.73v-.45h.46v.46zm1.44.28v-.46h.46v.45z"/><path d="M278.3,300.35v-.45h.46v.46Zm-2.65,5v-.45h.46v.46Zm12.18-5v-.45h.45v.46ZM275.91,304v-.45h.45V304Zm5-5v-.46h.46V299Zm-4.42,3.65v-.45h.45v.45Zm.82-1.21v-.46h.45v.45Zm2.26-2.32H280v.46h-.46v-.46Zm2.78-.86h.45v.46h-.45Zm4.27,1.32v-.45h.45v.46Zm3.88,5.86v-.46h.46v.45Zm-6.68-6.73v-.45h.46v.46Zm1.44.28v-.46h.46v.45Zm2.6,12.92v-.45h.45v.45Zm2.64-5v-.46h.46v.46Zm-12.17,5v-.46h.46v.45Zm11.93-3.6v-.45h.46v.46Zm-5,5.05v-.45h.45v.45Zm4.36-3.69v-.46h.45v.45Zm-.79,1.22v-.45h.46v.45Zm-2.26,1.41H287v.46h-.46v-.45Zm-2.79.84h.45v.45h-.45Zm-4.26-.39v-.45H280v.46Zm-3.08-3.08v-.46h.46v.45Zm-.55-1.36v-.45h.45v.46Zm1.37,2.58v-.45h.45v.45Zm-1.63-4v-.46h.46v.46Zm6.68,6.73v-.46h.46v.45Zm-1.45-.29v-.45h.46v.46Z"/></g></svg>