<svg xmlns="http://www.w3.org/2000/svg" viewBox="0 0 511 511" xmlns:v="https://vecta.io/nano"><style><![CDATA[.L{stroke-miterlimit:10}.M{stroke:#8f8f8f}.N{stroke-width:4.26}.O{fill:#4cba70}]]></style><defs><linearGradient id="A" x1="215.79" y1="236.8" x2="341.04" y2="580.93" gradientUnits="userSpaceOnUse"><stop offset="0" stop-color="#25215c"/><stop offset="1" stop-color="#fff" stop-opacity="0"/></linearGradient><clipPath id="B"><path d="M322.45 376.67a656.76 656.76 0 0 1-20.92-10.56L265 242.4a20.16 20.16 0 1 0-30-21.17l-123.71-18.58-8.22-10.33c-19.88 53.59 25.07 105.46 25.07 105.46L24.89 360.07l105.92 132.82a31.91 31.91 0 0 0 22.32 11.87l44.29-150.16c90.03 53.4 125.03 22.07 125.03 22.07zm-65.67-131.58h0l34.06 115.26a571.1 571.1 0 0 1-59.72-37.79zm-137.69-32.55L235.24 230c.09.35.17.72.28 1.06L162.58 263a665.64 665.64 0 0 1-43.49-50.46zm120.77 26a20.23 20.23 0 0 0 8.19 5.44l-24.22 73.15A510.31 510.31 0 0 1 169 269.6z" fill="none"/></clipPath></defs><path d="M241.81 8.13L62.24 94.6A31.6 31.6 0 0 0 45.15 116L.8 310.33a31.63 31.63 0 0 0 6.1 26.72l124.27 155.82a31.57 31.57 0 0 0 24.68 11.89h199.31a31.6 31.6 0 0 0 24.69-11.89l124.26-155.82a31.59 31.59 0 0 0 6.1-26.72L465.86 116a31.61 31.61 0 0 0-17.08-21.4L269.21 8.13a31.57 31.57 0 0 0-27.4 0z" fill="#2d2a78"/><path d="M373.49,221.05V140.47s2.29-20.36-9.93-20.36H222.25a1.86,1.86,0,0,0-1.72,1.94v31.57a1.15,1.15,0,0,1-1.21,1.47H75" fill="none" class="L M N"/><g class="O"><circle cx="373.66" cy="221.05" r="4.52"/><circle cx="75.02" cy="155.12" r="4.52"/></g><path d="M155.32 94.28v72.94s-2.08 18.43 9 18.43h127.9a1.67 1.67 0 0 0 1.55-1.75v-28.58a1 1 0 0 1 1.11-1.33h130.61" fill="none" class="L M N"/><g class="O"><circle cx="155.38" cy="94.33" r="4.52"/><circle cx="425.49" cy="154.08" r="4.52"/></g><path d="M155.16 225.1h80.58c5 0 20.36 2.29 20.36-9.92V73.86" fill="none" class="L M N"/><g class="O"><circle cx="155.16" cy="225.57" r="4.52"/><circle cx="256.1" cy="73.86" r="4.52"/></g><path d="M243.37,224.35,104.3,208.72,142,324.18,111,466.81l20.8,26.08a32,32,0,0,0,25,12H355.65a31.93,31.93,0,0,0,25-12l80.27-100.66L266,216.54Z" fill="url(#A)"/><g clip-path="url(#B)"><path d="M241.81 8.44L62.24 94.91a31.58 31.58 0 0 0-17.09 21.42L.8 310.64a31.6 31.6 0 0 0 6.1 26.71l124.27 155.83a31.57 31.57 0 0 0 24.68 11.89h199.31a31.6 31.6 0 0 0 24.69-11.89l124.26-155.83a31.56 31.56 0 0 0 6.1-26.71l-44.35-194.31a31.59 31.59 0 0 0-17.08-21.42L269.21 8.44a31.57 31.57 0 0 0-27.4 0z" fill="#fff"/></g><g fill="none" stroke="#2e2d77" class="L"><path d="M254.81,220.75l-3.5-3.95" stroke-width=".15"/><path d="M243.77,217.72l2.76,4" stroke-width=".08"/><path d="M254.81,220.75l3.47-4m.71,8.39,4.14-3.48M259,225.17l4.14,3.62m-4.81,4.54-3.51-3.88m-3.47,3.88,3.47-3.88m-8.28-.83,4-3.46m-4-3.47,4,3.47m4.31-4.41-8.28.94m8.28-.94,8.32.94M259,225.17l-.71-8.39m.71,8.39-.67,8.16m4.81-4.54-8.32.66m-8.28-.83,8.28.83m-3.47,3.88-.84-8.17m.81-8.36-.81,8.36" stroke-width=".15"/><path d="M242.72,222.76l3.81-1.07m.8-7.72,4,2.83m.92-4.63-.92,4.63m.92-4.63,6,4.61m-.9-4.61.9,4.61m4-2.81-4,2.81m7.55.94-7.55-.94m4.85,4.91,2.7-4m-2.7,4,3.86,1.07m-3.86-1.07,3.77,5.79m-9.52-15.31-6.07,4.63m11.82,4.89-.86-7.72m.86,14.82,3.77-1.31m-3.77,1.31,3.86-6m-3.86,6,2.72,3.67m-2.72-3.67-.84,7.42m-4-2.88,4,2.88m-4-2.88,7.53-.87m-7.53.87L257.4,238m.92-4.68L252.24,238m-.9-4.68.9,4.68m-.9-4.68L257.4,238m-6.06-4.68-4,2.88m4-2.88-7.55-.83m2.74-3.88-2.74,3.88m2.74-3.88.82,7.59m-.82-7.59-3.82-1.2m3.82-5.73-3.82,5.73m3.82,1.2-3.81-5.86m4.61-8.79-.8,7.72m-2.76-4,7.54-.92" stroke-width=".08"/><path d="M247.33,214l-2.92-1.41m2.92,1.41-.22-3.23m5.12,1.43-5.12-1.43m5.12,1.43-2.18-2.72m2.18,2.72.91-3.22m-5.81,5,2.72-4.52m7.33,2.72L253.14,209m4.24,3.22-1-3.36m-4.19,3.36,4.19-3.36m1,3.36,2.19-2.72m2.7,4.52-2.7-4.52m2.7,4.52.3-3.23m-5.19,1.43,5.19-1.43m-.3,3.23,3-1.56m-3,1.56,5.23.77m-1.67,3,1.67-3m-1.67,3-.56-5.31m.56,5.31,3.43-.29m-3.43.29,4.71,2.66M267,222.76l2.27-5.33M267,222.76l3.55-2.38M267,222.76l4,.8m-4.05,3.92,4.05-3.92m-4.05,3.92,4.16-.79M267,222.76l4.07,3.93m-4.16.79,3.54,2.36m-4.59,2.62,4.59-2.62m-4.59,2.62,3.39.34m-2.34-5.32,2.34,5.32m-3.39-.34,1.61,3m-1.61-3-.62,5.27m0,0-2.94-1.52m0,0,.24,3.3m-.24-3.3,5.17-.75m-5.17.75-2.7,4.59M257.4,238l2.19,2.79M257.4,238l5.13,1.5M257.4,238l-1,3.43m1-3.43-4.24,3.43m-.92-3.43.92,3.43m-.92-3.43,4.2,3.43m-4.2-3.43-2.17,2.79m-2.72-4.59,2.72,4.59m2.17-2.79-5.15,1.58m.26-3.38-.26,3.38m.26-3.38-3,1.63m-.58-5.34.58,5.34m3-1.63-5.21-.69m1.65-3-1.65,3m1.65-3-3.41.32m3.41-.32-4.7-2.62m3.62-2.46-3.62,2.46m3.62-2.46-4.11-.73m4.11.73-2.33,5.4m2.34-10.06-4.12,3.93m4.11.73-4.13-3.86m4.14-.8-3.52-2.35m3.52,2.35-4.14.8m4.14-.8-2.32-5.31m3.37.27-3.37-.27m3.37.27-4.57,2.69m4.57-2.69-1.59-2.83m1.59,2.83.64-5.16m2.92,1.41-5.15.92" stroke-width=".06"/></g><g fill="#2e2d77"><path d="M248.48 227.14v-4h4v4zm4.32-4.41v-4h4v4h-4zm0 8.74v-4h4v4h-4zm4.32-4.33v-4h4v4h-4zm-.22-8.97v-2.77h2.79v2.77h-2.78zm-6.95 0v-2.77h2.78v2.77zm-4.81 4.91v-2.78h2.78v2.78h-2.78zm0 6.94v-2.77h2.78v2.77h-2.78zm16.59 0v-2.77h2.78v2.77h-2.78zm0-6.94v-2.78h2.78v2.78h-2.78zm-18.88-4.47v-1.82h1.82v1.82zm3.57-3.74v-1.81h1.83v1.82h-1.82zm4.89-1.79v-1.82h1.83v1.81zm-9.51 10.59v-1.82h1.82v1.82zm23.12-6.88h1.82v1.82h-1.82v-1.83zm-3.54-3.74h1.81v1.82h-1.82v-1.83zm-4.93-1.8h1.82v1.82h-1.81zm9.54 10.6h1.82v1.83H266zM250 234.8v-2.78h2.78v2.78H250zm6.93 0v-2.78h2.78v2.78h-2.78zm8-1.41v-1.82h1.82v1.82zm-3.54 3.75v-1.81h1.82v1.82zm-4.91 1.78v-1.82h1.83v1.82zm9.52-10.59v-1.82h1.82v1.82zm-23.11 3.23h1.81v1.83h-1.82zm3.55 3.75h1.81v1.83h-1.82zm4.9 1.78h1.82v1.82h-1.82v-1.82zm-9.52-10.58h1.82v1.82h-1.82zm2.09-13.51v-1h1v1zm-5.81 11v-1h1v1zm.58-3.15v-1h1v1zm10.87-11v-1h1v1zm-9.66 8v-1h1v1zm1.79-2.66v-1h1v1zm4.95-5.06h1v1h-1v-1zm6.07-1.9h1v1h-1zm16.07 9.77v-1h1v1zm1.3 3v-1h1v1zm-3.07-5.71v-1h1v1zm3.57 8.76v-1h1v1zm-14.63-14.72v-1h1v1zm3.15.6v-1h1v1z"/><path d="M243.91 213v-1h1v1zm-5.81 11v-1h1v1zm26.68-11v-1h1v1zm-26.1 7.89v-1h1v1zm10.87-11v-1h1v1zm-9.66 8v-1h1v1zm1.79-2.66v-1h1v1zm4.95-5.06h1v1h-1v-1zm6.07-1.9h1v1h-1zm9.37 2.91v-1h1v1zm8.49 12.81v-1h1v1zm-14.63-14.72v-1h1v1zm3.15.6v-1h1v1zm5.7 28.29v-1h1v1zm5.78-11v-1h1v1zm-26.65 11v-1h1v1zm26.09-7.79v-1h1v1zm-10.8 11.06v-1h1v1zm9.55-8.09v-1h1v1zM267 236v-1h1v1zm-4.95 3.08h1v1h-1v-1zm-6.05 1.86h1v1h-1zm-9.32-.85v-1h1v1zm-6.76-6.75v-1h1v1zm-1.19-3v-1h1v1zm3 5.65v-1h1v1zm-3.58-8.82v-1h1v1zm14.62 14.74v-1h1v1zm-3.17-.62v-1h1v1z"/></g></svg>