<svg id="Layer_1" data-name="Layer 1" xmlns="http://www.w3.org/2000/svg" xmlns:xlink="http://www.w3.org/1999/xlink" viewBox="0 0 216 216"><defs><style>.cls-1,.cls-10,.cls-3,.cls-8,.cls-9{fill:none;}.cls-2{fill:#2d2a78;}.cls-3{stroke:#8f8f8f;stroke-width:1.11px;}.cls-10,.cls-3,.cls-8,.cls-9{stroke-miterlimit:10;}.cls-4{fill:#4cba70;}.cls-5{fill:url(#linear-gradient);}.cls-6{clip-path:url(#clip-path);}.cls-7{fill:#fff;}.cls-10,.cls-8,.cls-9{stroke:#2e2d77;}.cls-8{stroke-width:0.04px;}.cls-9{stroke-width:0.02px;}.cls-10{stroke-width:0.01px;}.cls-11{fill:#2e2d77;}</style><linearGradient id="linear-gradient" x1="97.31" y1="77.17" x2="129.88" y2="166.66" gradientUnits="userSpaceOnUse"><stop offset="0" stop-color="#25215c"/><stop offset="1" stop-color="#fff" stop-opacity="0"/></linearGradient><clipPath id="clip-path"><path class="cls-1" d="M125.05,113.63c-1.9-.9-3.72-1.82-5.49-2.75L110,78.65a5.26,5.26,0,1,0-7.87-5.51L69.66,68.3c-.75-1-1.47-1.85-2.15-2.69-5.22,14,6.57,27.47,6.57,27.47L47,109.31l27.78,34.6A8.38,8.38,0,0,0,80.64,147c1-3.53,5.12-17.15,11.61-39.12C115.87,121.78,125.05,113.63,125.05,113.63ZM107.82,79.35h0l8.94,30a149.42,149.42,0,0,1-15.67-9.84ZM71.71,70.87l30.46,4.55c0,.09,0,.19.08.28L83.12,84A171.25,171.25,0,0,1,71.71,70.87Zm31.68,6.79a5.27,5.27,0,0,0,2.14,1.41L99.18,98.13A134.12,134.12,0,0,1,84.81,85.74Z"/></clipPath></defs><title>voyager</title><path class="cls-2" d="M56,162h6L51.41,189.94H46.82L36.2,162h6l6.86,18.32Z"/><path class="cls-2" d="M60.66,180c0-6.23,3.32-10.38,9.94-10.38s9.9,4.15,9.9,10.38-3.27,10.37-9.9,10.37S60.66,186.19,60.66,180Zm5.63,0c0,3.43,1.4,5.62,4.31,5.62s4.27-2.19,4.27-5.62-1.35-5.63-4.27-5.63S66.29,176.53,66.29,180Z"/><path class="cls-2" d="M88.6,187.83,81.42,170h6.11l4.11,11.81L95.79,170h6L90.56,197.93H84.49Z"/><path class="cls-2" d="M114.34,189.94A7.66,7.66,0,0,1,114,188a6.84,6.84,0,0,1-5.27,2.35c-4.27,0-6.63-2.27-6.63-6.42,0-4.83,3.79-6,8.3-6a25.76,25.76,0,0,1,3.6.28v-1.48c0-1.63-1-2.35-2.56-2.35a2.22,2.22,0,0,0-2.35,1.75l-6.11-.71c.64-3.64,4.19-5.79,8.5-5.79,4.47,0,8.14,2.19,8.14,6.9v6.39a44,44,0,0,0,.44,7.06Zm-2.87-8.14c-2.27,0-3.79.48-3.79,2.16,0,1.12.84,1.63,2.11,1.63A3.93,3.93,0,0,0,114,181.8Z"/><path class="cls-2" d="M125.24,189.94v-2.19l2-4.75c-2.35-1.16-3.47-3.35-3.47-6.23,0-4.39,2.64-7.18,8.42-7.18a14.16,14.16,0,0,1,3.4.4h7.74v4.15h-3.11a7.89,7.89,0,0,1,.4,2.63c0,4.39-2.6,7.19-8.43,7.19h-.2l-.75,1.83h4.07c5.15,0,6.66,2.28,6.66,5.55,0,5.07-4.11,7-9.42,7a17.06,17.06,0,0,1-9.26-2.2l2-4.11a12.65,12.65,0,0,0,7,1.76c2.32,0,4-.56,4-2.32,0-.88-.4-1.52-1.88-1.52Zm4.11-13.17c0,1.6.84,2.64,2.79,2.64s2.8-1,2.8-2.64-.8-2.63-2.8-2.63S129.35,175.13,129.35,176.77Z"/><path class="cls-2" d="M165.85,182.63a18.51,18.51,0,0,1-5.87,5.65c-5.88,3.39-11.49,2.06-14.7-3.51-3.11-5.39-2.28-10.66,3.43-14,5.39-3.12,10-1.19,12.8,3.58L163,177l-11.62,6.7c1.6,1.66,3.68,2,6.34.44a14.15,14.15,0,0,0,4.37-4.41Zm-16.67-3,6.6-3.81c-1.21-1.78-3-1.88-4.7-.88A3.88,3.88,0,0,0,149.18,179.62Z"/><path class="cls-2" d="M178.12,175.22a7.15,7.15,0,0,0-2.2-.4c-2.47,0-2.87,1.91-2.87,4.83v10.29h-5.63V170h5.63v1.87a4.31,4.31,0,0,1,3.83-2.27,6.59,6.59,0,0,1,2.2.4Z"/><path class="cls-2" d="M104.08,17.71,57.38,40.19a8.22,8.22,0,0,0-4.44,5.58L41.4,96.3A8.21,8.21,0,0,0,43,103.24L75.3,143.76a8.21,8.21,0,0,0,6.42,3.09h51.83a8.19,8.19,0,0,0,6.42-3.09l32.32-40.52a8.18,8.18,0,0,0,1.58-6.94L162.34,45.77a8.24,8.24,0,0,0-4.44-5.58L111.2,17.71A8.16,8.16,0,0,0,104.08,17.71Z"/><path class="cls-3" d="M138.32,73.08v-21s.59-5.29-2.58-5.29H99a.48.48,0,0,0-.45.5v8.21a.29.29,0,0,1-.31.38H60.7"/><circle class="cls-4" cx="138.36" cy="73.08" r="1.17"/><circle class="cls-4" cx="60.7" cy="55.93" r="1.17"/><path class="cls-3" d="M81.58,40.11v19s-.53,4.79,2.34,4.79h33.27a.43.43,0,0,0,.4-.45V56a.27.27,0,0,1,.29-.34h34"/><circle class="cls-4" cx="81.6" cy="40.12" r="1.17"/><circle class="cls-4" cx="151.84" cy="55.66" r="1.17"/><path class="cls-3" d="M81.54,74.13s21,0,21,0c1.3,0,5.29.6,5.29-2.58V34.8h0"/><circle class="cls-4" cx="81.54" cy="74.25" r="1.17"/><circle class="cls-4" cx="107.79" cy="34.8" r="1.17"/><path class="cls-5" d="M104.48,73.94,68.32,69.87l9.81,30L70.06,137l5.4,6.78a8.33,8.33,0,0,0,6.5,3.12h51.72a8.3,8.3,0,0,0,6.49-3.12l20.88-26.18L110.37,71.9Z"/><g class="cls-6"><path class="cls-7" d="M103.93,17.69,56.79,40.23a8.26,8.26,0,0,0-4.48,5.6L40.69,96.39a8.25,8.25,0,0,0,1.61,7L74.88,144a8.25,8.25,0,0,0,6.44,3.09h52.34a8.21,8.21,0,0,0,6.43-3.09l32.59-40.58a8.28,8.28,0,0,0,1.61-7L162.67,45.83a8.3,8.3,0,0,0-4.49-5.6L111.05,17.69A8.23,8.23,0,0,0,103.93,17.69Z"/></g><path class="cls-8" d="M107.46,73l-.91-1"/><path class="cls-9" d="M104.59,72.21l.71,1"/><path class="cls-8" d="M107.46,73l.9-1m.18,2.18,1.08-.91m-1.08.91,1.08.94m-1.25,1.18-.91-1m-.9,1,.9-1m-2.16-.21,1-.91m-1-.9,1,.9M107.46,73l-2.16.24m2.16-.24,2.16.24m-1.08.91L108.36,72m.18,2.18-.17,2.12m1.25-1.18-2.16.17m-2.16-.21,2.16.21m-.9,1-.22-2.13m.21-2.17-.21,2.17"/><path class="cls-9" d="M104.31,73.52l1-.28m.21-2,1,.73m.24-1.2-.24,1.2m.24-1.2,1.57,1.2m-.23-1.2.23,1.2m1-.73-1,.73m2,.24-2-.24m1.26,1.27.7-1m-.7,1,1,.28m-1-.28,1,1.51m-2.47-4L106.55,72m3.07,1.27-.22-2m.22,3.85,1-.34m-1,.34,1-1.57m-1,1.57.71,1m-.71-1L109.4,77m-1-.75,1,.75m-1-.75,2-.22m-2,.22-.24,1.22m.24-1.22-1.58,1.22m-.23-1.22.23,1.22m-.23-1.22,1.57,1.22m-1.57-1.22-1,.75m1-.75-2-.21m.71-1-.71,1m.71-1,.22,2m-.22-2-1-.32m1-1.49-1,1.49m1,.32-1-1.53m1.2-2.28-.21,2m-.71-1,2-.24"/><path class="cls-10" d="M105.51,71.24l-.76-.37m.76.37-.05-.84m1.33.37-1.33-.37m1.33.37-.57-.71m.57.71.23-.84m-1.51,1.31.71-1.18m1.91.71L107,69.93m1.11.84-.25-.87m-1.09.87,1.09-.87m.25.87.57-.71m.7,1.18-.7-1.18m.7,1.18.08-.84m-1.35.37,1.35-.37m-.08.84.78-.41m-.78.41,1.36.2m-.44.77.44-.77m-.44.77-.14-1.38m.14,1.38.9-.07m-.9.07,1.23.69m-.92.62.59-1.38m-.59,1.38.92-.62m-.92.62,1,.21m-1.05,1,1.05-1m-1.05,1,1.08-.21m-1.05-1,1.05,1m-1.08.21.92.61m-1.19.69,1.19-.69m-1.19.69.88.08m-.61-1.38.61,1.38m-.88-.08.42.78m-.42-.78-.16,1.36m0,0L109.4,77m0,0,.07.86M109.4,77l1.35-.19M109.4,77l-.7,1.19m-.57-.72.57.72m-.57-.72,1.34.39m-1.34-.39-.25.89m.25-.89-1.1.89m-.24-.89.24.89m-.24-.89,1.09.89m-1.09-.89-.56.72M105.52,77l.71,1.19m.56-.72-1.34.41m.07-.88-.07.88m.07-.88-.78.42m-.15-1.38.15,1.38m.78-.42-1.36-.18m.43-.78-.43.78m.43-.78-.88.08m.88-.08-1.22-.69m.94-.64-.94.64m.94-.64-1.07-.19m1.07.19-.6,1.41m.6-2.62-1.07,1m1.07.19-1.07-1m1.07-.21-.91-.61m.91.61-1.07.21m1.07-.21-.6-1.38m.88.07-.88-.07m.88.07-1.19.7m1.19-.7-.42-.74m.42.74.16-1.34m.76.37-1.34.23"/><path class="cls-11" d="M105.81,74.66v-1h1v1Zm1.13-1.15v-1h1v1h-1Zm0,2.28v-1h1v1Zm1.12-1.13v-1h1v1Z"/><path class="cls-11" d="M108,72.33v-.72h.72v.72Zm-1.81,0V71.6h.72v.72Zm-1.25,1.28v-.72h.72v.72Zm0,1.81v-.73h.72v.72Zm4.32,0v-.72H110v.73Zm0-1.81v-.72H110v.72Z"/><path class="cls-11" d="M104.35,72.44V72h.48v.48Zm.93-1V71h.47v.47Zm1.27-.47v-.47H107V71Zm-2.48,2.76v-.47h.47v.47Zm6-1.79h.47v.47h-.47V72Zm-.93-1h.48v.48h-.47V71Zm-1.28-.47h.48V71h-.47Zm2.49,2.75h.47v.47h-.47Z"/><path class="cls-11" d="M106.19,76.65v-.72h.72v.72Zm1.81,0v-.72h.72v.72H108Z"/><path class="cls-11" d="M110.09,76.29v-.48h.48v.47Zm-.92,1v-.47h.48v.48Zm-1.28.46v-.47h.47v.48ZM110.37,75V74.5h.47V75Zm-6,.84h.48v.47h-.47Zm.93,1h.47v.48h-.47Zm1.27.47H107v.47h-.47v-.47Zm-2.47-2.75h.47V75h-.47Z"/><path class="cls-11" d="M104.62,71v-.26h.26V71Zm-1.51,2.87V73.6h.26v.25Zm.15-.82v-.26h.26V73Zm2.83-2.85v-.26h.26v.26Zm-2.51,2.08V72h.26v.25Zm.46-.69v-.26h.26v.26Zm1.29-1.32h.26v.26h-.26v-.26Zm1.58-.49h.26V70h-.26Zm4.18,2.5V72h.26v.25Zm.34.77v-.26h.26V73Zm-.8-1.46v-.26h.26v.26Zm.92,2.28V73.6h.27v.26ZM107.75,70v-.26H108V70Zm.82.16v-.26h.26v.26Z"/><path class="cls-11" d="M104.62,71v-.26h.26V71Zm-1.51,2.87V73.6h.26v.25ZM110.05,71v-.26h.26V71ZM103.26,73v-.26h.26V73Zm2.83-2.85v-.26h.26v.26Zm-2.51,2.08V72h.26v.25Zm.46-.69v-.26h.26v.26Zm1.29-1.32h.26v.26h-.26v-.26Zm1.58-.49h.26V70h-.26Zm2.43.76v-.26h.26v.26Zm2.21,3.33V73.6h.27v.26ZM107.75,70v-.26H108V70Zm.82.16v-.26h.26v.26Zm1.48,7.35v-.26h.26v.26Zm1.5-2.86v-.26h.27v.26Zm-6.93,2.87v-.26h.26v.26Zm6.8-2v-.26h.26v.25Zm-2.82,2.88v-.26h.26v.26Zm2.48-2.11V76h.26v.25Zm-.45.7v-.26h.26V77Zm-1.29.8h.26V78h-.25v-.26Zm-1.59.48H108v.26h-.25ZM105.33,78v-.26h.26V78Zm-1.76-1.76V76h.27v.25Zm-.31-.77v-.26h.26v.26ZM104,77v-.26h.26V77Zm-.93-2.29v-.26h.26v.26Zm3.81,3.83v-.26h.26v.26Zm-.83-.16v-.26h.26v.26Z"/></svg>