<svg xmlns="http://www.w3.org/2000/svg" viewBox="0 0 1279 639" xmlns:v="https://vecta.io/nano"><style><![CDATA[.L{stroke-miterlimit:10}.M{stroke:#8f8f8f}.N{stroke-width:1.94}.O{fill:#4cba70}]]></style><defs><linearGradient id="A" x1="621.41" y1="203.04" x2="678.45" y2="359.75" gradientUnits="userSpaceOnUse"><stop offset="0" stop-color="#25215c"/><stop offset="1" stop-color="#fff" stop-opacity="0"/></linearGradient><clipPath id="B"><path d="M670 266.74a312.86 312.86 0 0 1-9.53-4.81l-16.65-56.34a9.18 9.18 0 1 0-13.67-9.59l-56.32-8.46-3.75-4.7c-9.05 24.4 11.42 48 11.42 48l-47 28.37 48.23 60.48a14.55 14.55 0 0 0 10.17 5.4l20.17-68.38C654 281 670 266.74 670 266.74zm-29.91-59.92h0l15.51 52.48a259 259 0 0 1-27.19-17.2zM577.38 192l52.89 7.95c0 .17.08.33.13.49L597.18 215c-8.09-8.43-14.48-16.28-19.8-23zm55 11.86a9.17 9.17 0 0 0 3.72 2.48l-11 33.31a234 234 0 0 1-25-21.66z" fill="none"/></clipPath></defs><path d="M633.26 98.91l-81.77 39.38a14.38 14.38 0 0 0-7.78 9.75l-20.2 88.49a14.38 14.38 0 0 0 2.78 12.16l56.59 71a14.37 14.37 0 0 0 11.24 5.41h90.76a14.37 14.37 0 0 0 11.24-5.41l56.59-71a14.38 14.38 0 0 0 2.78-12.16L735.29 148a14.38 14.38 0 0 0-7.78-9.75l-81.77-39.34a14.37 14.37 0 0 0-12.48 0z" fill="#2d2a78"/><path d="M693.23,195.87V159.18s1-9.27-4.52-9.27H624.35a.83.83,0,0,0-.78.88v14.37a.52.52,0,0,1-.55.67H557.31" fill="none" class="L M N"/><g class="O"><circle cx="693.3" cy="195.87" r="2.06"/><circle cx="557.31" cy="165.85" r="2.06"/></g><path d="M593.88,138.14v33.22s-1,8.39,4.09,8.39h58.25a.77.77,0,0,0,.71-.8v-13a.47.47,0,0,1,.5-.61h59.48" fill="none" class="L M N"/><g class="O"><circle cx="593.9" cy="138.16" r="2.06"/><circle cx="716.91" cy="165.37" r="2.06"/></g><path d="M593.81 197.71h36.69c2.27 0 9.27 1 9.27-4.52v-64.35" fill="none" class="L M N"/><g class="O"><circle cx="593.81" cy="197.93" r="2.06"/><circle cx="639.77" cy="128.84" r="2.06"/></g><path d="M634,197.37l-63.33-7.12,17.18,52.58-14.13,64.95,9.47,11.88a14.53,14.53,0,0,0,11.37,5.47H685.1a14.53,14.53,0,0,0,11.37-5.47L733,273.82l-88.73-80Z" fill="url(#A)"/><g clip-path="url(#B)"><path d="M633.26 99.05l-81.77 39.38a14.38 14.38 0 0 0-7.78 9.75l-20.2 88.49a14.38 14.38 0 0 0 2.78 12.16l56.59 71a14.38 14.38 0 0 0 11.24 5.42h90.76a14.38 14.38 0 0 0 11.24-5.42l56.59-71a14.38 14.38 0 0 0 2.78-12.16l-20.2-88.49a14.38 14.38 0 0 0-7.78-9.75l-81.77-39.38a14.37 14.37 0 0 0-12.48 0z" fill="#fff"/></g><g fill="none" stroke="#2e2d77" class="L"><path d="M639.18,195.73l-1.59-1.8" stroke-width=".07"/><path d="M634.16,194.35l1.25,1.81" stroke-width=".03"/><path d="M639.18,195.73l1.58-1.81m.33,3.83,1.88-1.59m-1.88,1.59,1.88,1.64m-2.19,2.07-1.6-1.77m-1.58,1.77,1.58-1.77m-3.77-.37,1.81-1.58m-1.81-1.58,1.81,1.58m2-2-3.77.43m3.77-.43,3.79.43m-1.88,1.59-.33-3.83m.33,3.83-.31,3.71m2.19-2.07-3.79.3m-3.77-.37,3.77.37m-1.58,1.77-.38-3.72m.37-3.81-.37,3.81" stroke-width=".07"/><g stroke-width=".03"><path d="M633.68,196.65l1.73-.49m.37-3.52,1.81,1.29m.42-2.1-.42,2.1m.42-2.1,2.75,2.09m-.41-2.09.41,2.09m1.82-1.28-1.82,1.28m3.44.43-3.44-.43m2.21,2.24,1.23-1.81M643,196.16l1.76.49m-1.76-.49,1.72,2.64m-4.34-7-2.76,2.1m5.38,2.23-.39-3.52m.39,6.75,1.72-.59m-1.72.59,1.76-2.74M643,199.39l1.24,1.68M643,199.39l-.38,3.38m-1.81-1.31,1.81,1.31m-1.81-1.31,3.43-.39m-3.43.39-.42,2.13m.42-2.13L638,203.59m-.41-2.13.41,2.13m-.41-2.13,2.76,2.13m-2.76-2.13-1.81,1.31m1.81-1.31-3.43-.38m1.24-1.76-1.24,1.76m1.24-1.76.38,3.45m-.38-3.45-1.74-.55m1.74-2.61-1.74,2.61m1.74.55-1.73-2.67m2.1-4-.37,3.52m-1.25-1.81,3.43-.42"/><path d="M635.78,192.64l-1.33-.64m1.33.64-.1-1.46m2.33.65-2.33-.65m2.33.65-1-1.24m1,1.24.41-1.47m-2.64,2.28,1.24-2m3.33,1.24-1.93-1.47m1.93,1.47-.43-1.53M638,191.83l1.91-1.53m.43,1.53,1-1.24m1.23,2-1.23-2m1.23,2,.14-1.46m-2.37.65,2.37-.65m-.14,1.46,1.37-.7m-1.37.7L645,193m-.76,1.36L645,193m-.76,1.36-.25-2.41m.25,2.41,1.56-.13m-1.56.13,2.14,1.21m-1.61,1.09,1-2.43m-1,2.43,1.61-1.09m-1.61,1.09,1.8.36m-1.84,1.79,1.84-1.79m-1.84,1.79,1.89-.36m-1.85-1.79,1.85,1.79m-1.89.36,1.61,1.07m-2.09,1.2,2.09-1.2m-2.09,1.2,1.55.15m-1.07-2.42,1.07,2.42m-1.55-.15.73,1.36m-.73-1.36-.28,2.4m0,0-1.34-.7m0,0,.11,1.51m-.11-1.51,2.35-.34m-2.35.34-1.23,2.1m-1-1.28,1,1.28m-1-1.28,2.34.69m-2.34-.69-.43,1.57m.43-1.57-1.93,1.57m-.42-1.57.42,1.57m-.42-1.57,1.92,1.57M638,203.59l-1,1.28m-1.23-2.1,1.23,2.1m1-1.28-2.34.72m.12-1.54-.12,1.54m.12-1.54-1.36.75m-.26-2.44.26,2.44m1.36-.75-2.38-.31m.76-1.38-.76,1.38m.76-1.38-1.56.15m1.56-.15L632,199.89m1.65-1.12L632,199.89m1.65-1.12-1.87-.33m1.87.33-1.06,2.46m1.07-4.58-1.88,1.79m1.87.33L631.79,197m1.89-.36-1.61-1.07m1.61,1.07-1.89.36m1.89-.36-1.06-2.42m1.54.12-1.54-.12m1.54.12-2.09,1.23m2.09-1.23-.73-1.29m.73,1.29.29-2.35m1.33.64-2.35.42"/></g></g><g fill="#2e2d77"><path d="M636.3 198.64v-1.81h1.82v1.82zm2-2v-1.81h1.82v1.82h-1.82zm0 4v-1.82h1.82v1.82h-1.82zm2-2v-1.81h1.82v1.82h-1.83zm-.17-4.08v-1.27h1.27v1.27zm-3.16 0v-1.26h1.27v1.27zm-2.19 2.23v-1.26h1.26v1.26zm0 3.17v-1.27h1.26V200zm7.55 0v-1.26h1.27v1.3zm0-3.16v-1.26h1.27v1.26zm-8.59-2.04v-.83h.83v.82zm1.62-1.7v-.83h.83v.83zm2.23-.82v-.83h.84v.83zm-4.33 4.82v-.83h.83v.83zm10.53-3.13h.83v.83h-.83v-.83zm-1.62-1.7h.83v.83h-.83v-.83zm-2.24-.82h.83v.83h-.82zm4.34 4.82h.83v.83h-.83zm-7.27 5.9v-1.26h1.27v1.27zm3.15 0v-1.26h1.27v1.26zm3.64-.64v-.83h.83v.82zm-1.61 1.71v-.83h.82v.82zm-2.24.81v-.83h.83v.82zm4.34-4.83v-.82h.83v.83zm-10.53 1.48h.83v.83h-.83zm1.62 1.7h.82v.83h-.83zm2.23.81h.83v.83h-.83v-.83zm-4.34-4.81h.83v.83h-.83zm.96-6.14v-.46h.46v.45zm-2.65 5v-.45h.43v.45zm.27-1.43v-.45h.46v.45zm4.95-5v-.46h.46v.45zm-4.4 3.64V194h.46v.45zm.82-1.21v-.45h.45v.45zm2.25-2.31h.45v.46h-.45v-.46zm2.76-.86h.46v.45h-.45zm7.32 4.38V194h.46v.45zm.59 1.35v-.45h.46v.45zm-1.4-2.56v-.45h.46v.45zm1.62 4v-.46h.45v.45zm-6.66-6.71v-.45h.45v.46zm1.44.28v-.45h.46v.45z"/><path d="M634.22,192.22v-.46h.46v.45Zm-2.65,5v-.45H632v.45Zm12.16-5v-.46h.45v.45Zm-11.89,3.59v-.45h.46v.45Zm4.95-5v-.46h.46v.45Zm-4.4,3.64V194h.46v.45Zm.82-1.21v-.45h.45v.45Zm2.25-2.31h.45v.46h-.45v-.46Zm2.76-.86h.46v.45h-.45Zm4.27,1.32V191H643v.45Zm3.86,5.84v-.46h.45v.45Zm-6.66-6.71v-.45h.45v.46Zm1.44.28v-.45h.46v.45Zm2.59,12.88v-.45h.45v.45Zm2.63-5v-.45h.45v.45Zm-12.13,5v-.45h.46v.45Zm11.89-3.58v-.46h.45v.45Zm-4.93,5v-.45h.46v.46Zm4.35-3.69V201H646v.45Zm-.79,1.23v-.46h.46v.45Zm-2.25,1.4h.45v.46h-.45v-.45Zm-2.79.84h.45v.46h-.46Zm-4.24-.39v-.45h.46v.45Zm-3.08-3.08V201h.46v.45Zm-.54-1.34v-.46h.46v.45Zm1.37,2.56v-.45h.45v.45Zm-1.64-4v-.45H632v.45Zm6.66,6.71v-.45h.45v.46Zm-1.44-.28v-.45h.46v.45Z"/></g><path d="M408.07 378.72h27L387.5 504h-20.57l-47.59-125.28h27l30.77 82.11zM429 459.23c0-27.91 14.85-46.52 44.54-46.52s44.37 18.61 44.37 46.52-14.67 46.5-44.37 46.5-44.54-18.6-44.54-46.5zm25.22 0c0 15.38 6.26 25.22 19.32 25.22s19.14-9.84 19.14-25.22-6.1-25.23-19.16-25.23-19.32 9.84-19.32 25.23zm99.97 35.24l-32.2-80h27.37l18.42 52.95 18.61-52.95h27L563 539.72h-27.2zM669.55 504a33 33 0 0 1-1.78-8.77 30.69 30.69 0 0 1-23.62 10.55c-19.14 0-29.69-10.19-29.69-28.8 0-21.64 17-27 37.21-27a114.6 114.6 0 0 1 16.1 1.26v-6.63c0-7.33-4.65-10.55-11.45-10.55-6.09 0-9.48 3.4-10.56 7.87l-27.37-3.22c2.86-16.28 18.78-25.94 38.1-25.94 20 0 36.5 9.84 36.5 31v28.62c0 11.81.36 21.29 2 31.67zm-12.88-36.5c-10.19 0-17 2.15-17 9.66 0 5 3.76 7.34 9.48 7.34 10 0 18.61-7 18.61-17zm61.7 36.5v-9.84l8.77-21.29c-10.55-5.19-15.56-15-15.56-27.91 0-19.68 11.8-32.2 37.74-32.2a63.55 63.55 0 0 1 15.21 1.79h34.7v18.6h-14a35.65 35.65 0 0 1 1.79 11.81c0 19.68-11.63 32.2-37.75 32.2h-.89l-3.4 8.23h18.25c23.07 0 29.87 10.2 29.87 24.87 0 22.71-18.43 31.31-42.22 31.31-18.24 0-30.77-3.4-41.5-9.85l9.12-18.42c12.17 6.62 19.86 7.87 31.49 7.87 10.37 0 17.89-2.5 17.89-10.38 0-3.93-1.79-6.79-8.41-6.79zm18.43-59c0 7.16 3.76 11.81 12.52 11.81 8.95 0 12.52-4.65 12.52-11.81 0-7.34-3.57-11.81-12.52-11.81-8.76-.09-12.52 4.38-12.52 11.72zm163.56 26.18c-7.74 11.28-16.69 19.75-26.3 25.29-26.34 15.2-51.46 9.24-65.85-15.7-14-24.17-10.23-47.8 15.34-62.55 24.17-14 45-5.33 57.38 16l6.61 11.46-52.07 30c7.18 7.43 16.49 8.88 28.42 2 6.5-3.68 13.11-10.15 19.58-19.68zm-74.7-13.49l29.6-17.08c-5.45-8-13.33-8.42-21.08-3.95-8.18 4.74-10.73 12.18-8.52 21.03zm129.71-19.76a32.07 32.07 0 0 0-9.84-1.79c-11.09 0-12.88 8.59-12.88 21.65V504h-25.22v-89.5h25.22v8.41c4.47-7.16 10.2-10.2 17.17-10.2a29.54 29.54 0 0 1 9.84 1.79z" fill="#2d2a78"/></svg>