<svg xmlns="http://www.w3.org/2000/svg" viewBox="0 0 216 216" xmlns:v="https://vecta.io/nano"><style><![CDATA[.L{stroke-miterlimit:10}.M{stroke:#8f8f8f}.N{stroke-width:1.11}.O{fill:#4cba70}]]></style><defs><linearGradient id="A" x1="97.31" y1="77.17" x2="129.88" y2="166.66" gradientUnits="userSpaceOnUse"><stop offset="0" stop-color="#25215c"/><stop offset="1" stop-color="#fff" stop-opacity="0"/></linearGradient><clipPath id="B"><path d="M125.05 113.63l-5.49-2.75L110 78.65a5.26 5.26 0 1 0-7.87-5.51L69.66 68.3l-2.15-2.69c-5.22 14 6.57 27.47 6.57 27.47L47 109.31l27.78 34.6a8.38 8.38 0 0 0 5.86 3.09l11.61-39.12c23.62 13.9 32.8 5.75 32.8 5.75zm-17.23-34.28h0l8.94 30a149.42 149.42 0 0 1-15.67-9.84zm-36.11-8.48l30.46 4.55c0 .09 0 .19.08.28L83.12 84a171.25 171.25 0 0 1-11.41-13.13zm31.68 6.79a5.27 5.27 0 0 0 2.14 1.41l-6.35 19.06a134.12 134.12 0 0 1-14.37-12.39z" fill="none"/></clipPath></defs><path d="M56 162h6l-10.59 27.94h-4.59L36.2 162h6l6.86 18.32zm4.66 18c0-6.23 3.32-10.38 9.94-10.38s9.9 4.15 9.9 10.38-3.27 10.37-9.9 10.37-9.94-4.18-9.94-10.37zm5.63 0c0 3.43 1.4 5.62 4.31 5.62s4.27-2.19 4.27-5.62-1.35-5.63-4.27-5.63-4.31 2.16-4.31 5.63zm22.31 7.83L81.42 170h6.11l4.11 11.81L95.79 170h6l-11.23 27.93h-6.07zm25.74 2.11A7.66 7.66 0 0 1 114 188a6.84 6.84 0 0 1-5.27 2.35c-4.27 0-6.63-2.27-6.63-6.42 0-4.83 3.79-6 8.3-6a25.76 25.76 0 0 1 3.6.28v-1.48c0-1.63-1-2.35-2.56-2.35a2.22 2.22 0 0 0-2.35 1.75l-6.11-.71c.64-3.64 4.19-5.79 8.5-5.79 4.47 0 8.14 2.19 8.14 6.9v6.39a44 44 0 0 0 .44 7.06zm-2.87-8.14c-2.27 0-3.79.48-3.79 2.16 0 1.12.84 1.63 2.11 1.63a3.93 3.93 0 0 0 4.21-3.79zm13.77 8.14v-2.19l2-4.75c-2.35-1.16-3.47-3.35-3.47-6.23 0-4.39 2.64-7.18 8.42-7.18a14.16 14.16 0 0 1 3.4.4h7.74v4.15h-3.11a7.89 7.89 0 0 1 .4 2.63c0 4.39-2.6 7.19-8.43 7.19h-.2l-.75 1.83h4.07c5.15 0 6.66 2.28 6.66 5.55 0 5.07-4.11 7-9.42 7a17.06 17.06 0 0 1-9.26-2.2l2-4.11a12.65 12.65 0 0 0 7 1.76c2.32 0 4-.56 4-2.32 0-.88-.4-1.52-1.88-1.52zm4.11-13.17c0 1.6.84 2.64 2.79 2.64s2.8-1 2.8-2.64-.8-2.63-2.8-2.63-2.79.99-2.79 2.63zm36.5 5.86a18.51 18.51 0 0 1-5.87 5.65c-5.88 3.39-11.49 2.06-14.7-3.51-3.11-5.39-2.28-10.66 3.43-14 5.39-3.12 10-1.19 12.8 3.58L163 177l-11.62 6.7c1.6 1.66 3.68 2 6.34.44a14.15 14.15 0 0 0 4.37-4.41zm-16.67-3l6.6-3.81c-1.21-1.78-3-1.88-4.7-.88a3.88 3.88 0 0 0-1.9 4.68zm28.94-4.41a7.15 7.15 0 0 0-2.2-.4c-2.47 0-2.87 1.91-2.87 4.83v10.29h-5.63V170h5.63v1.87a4.31 4.31 0 0 1 3.83-2.27 6.59 6.59 0 0 1 2.2.4zM104.08 17.71l-46.7 22.48a8.22 8.22 0 0 0-4.44 5.58L41.4 96.3a8.21 8.21 0 0 0 1.6 6.94l32.3 40.52a8.21 8.21 0 0 0 6.42 3.09h51.83a8.19 8.19 0 0 0 6.42-3.09l32.32-40.52a8.18 8.18 0 0 0 1.58-6.94l-11.53-50.53a8.24 8.24 0 0 0-4.44-5.58l-46.7-22.48a8.16 8.16 0 0 0-7.12 0z" fill="#2d2a78"/><path d="M138.32,73.08v-21s.59-5.29-2.58-5.29H99a.48.48,0,0,0-.45.5v8.21a.29.29,0,0,1-.31.38H60.7" fill="none" class="L M N"/><g class="O"><circle cx="138.36" cy="73.08" r="1.17"/><circle cx="60.7" cy="55.93" r="1.17"/></g><path d="M81.58,40.11v19s-.53,4.79,2.34,4.79h33.27a.43.43,0,0,0,.4-.45V56a.27.27,0,0,1,.29-.34h34" fill="none" class="L M N"/><g class="O"><circle cx="81.6" cy="40.12" r="1.17"/><circle cx="151.84" cy="55.66" r="1.17"/></g><path d="M81.54 74.13h21c1.3 0 5.29.6 5.29-2.58V34.8" fill="none" class="L M N"/><g class="O"><circle cx="81.54" cy="74.25" r="1.17"/><circle cx="107.79" cy="34.8" r="1.17"/></g><path d="M104.48 73.94l-36.16-4.07 9.81 30L70.06 137l5.4 6.78a8.33 8.33 0 0 0 6.5 3.12h51.72a8.3 8.3 0 0 0 6.49-3.12l20.88-26.18-50.68-45.7z" fill="url(#A)"/><g clip-path="url(#B)"><path d="M103.93 17.69L56.79 40.23a8.26 8.26 0 0 0-4.48 5.6L40.69 96.39a8.25 8.25 0 0 0 1.61 7L74.88 144a8.25 8.25 0 0 0 6.44 3.09h52.34a8.21 8.21 0 0 0 6.43-3.09l32.59-40.58a8.28 8.28 0 0 0 1.61-7l-11.62-50.59a8.3 8.3 0 0 0-4.49-5.6l-47.13-22.54a8.23 8.23 0 0 0-7.12 0z" fill="#fff"/></g><g fill="none" stroke="#2e2d77" class="L"><path d="M107.46,73l-.91-1" stroke-width=".04"/><path d="M104.59,72.21l.71,1" stroke-width=".02"/><path d="M107.46,73l.9-1m.18,2.18,1.08-.91m-1.08.91,1.08.94m-1.25,1.18-.91-1m-.9,1,.9-1m-2.16-.21,1-.91m-1-.9,1,.9M107.46,73l-2.16.24m2.16-.24,2.16.24m-1.08.91L108.36,72m.18,2.18-.17,2.12m1.25-1.18-2.16.17m-2.16-.21,2.16.21m-.9,1-.22-2.13m.21-2.17-.21,2.17" stroke-width=".04"/><path d="M104.31,73.52l1-.28m.21-2,1,.73m.24-1.2-.24,1.2m.24-1.2,1.57,1.2m-.23-1.2.23,1.2m1-.73-1,.73m2,.24-2-.24m1.26,1.27.7-1m-.7,1,1,.28m-1-.28,1,1.51m-2.47-4L106.55,72m3.07,1.27-.22-2m.22,3.85,1-.34m-1,.34,1-1.57m-1,1.57.71,1m-.71-1L109.4,77m-1-.75,1,.75m-1-.75,2-.22m-2,.22-.24,1.22m.24-1.22-1.58,1.22m-.23-1.22.23,1.22m-.23-1.22,1.57,1.22m-1.57-1.22-1,.75m1-.75-2-.21m.71-1-.71,1m.71-1,.22,2m-.22-2-1-.32m1-1.49-1,1.49m1,.32-1-1.53m1.2-2.28-.21,2m-.71-1,2-.24" stroke-width=".02"/><path d="M105.51,71.24l-.76-.37m.76.37-.05-.84m1.33.37-1.33-.37m1.33.37-.57-.71m.57.71.23-.84m-1.51,1.31.71-1.18m1.91.71L107,69.93m1.11.84-.25-.87m-1.09.87,1.09-.87m.25.87.57-.71m.7,1.18-.7-1.18m.7,1.18.08-.84m-1.35.37,1.35-.37m-.08.84.78-.41m-.78.41,1.36.2m-.44.77.44-.77m-.44.77-.14-1.38m.14,1.38.9-.07m-.9.07,1.23.69m-.92.62.59-1.38m-.59,1.38.92-.62m-.92.62,1,.21m-1.05,1,1.05-1m-1.05,1,1.08-.21m-1.05-1,1.05,1m-1.08.21.92.61m-1.19.69,1.19-.69m-1.19.69.88.08m-.61-1.38.61,1.38m-.88-.08.42.78m-.42-.78-.16,1.36m0,0L109.4,77m0,0,.07.86M109.4,77l1.35-.19M109.4,77l-.7,1.19m-.57-.72.57.72m-.57-.72,1.34.39m-1.34-.39-.25.89m.25-.89-1.1.89m-.24-.89.24.89m-.24-.89,1.09.89m-1.09-.89-.56.72M105.52,77l.71,1.19m.56-.72-1.34.41m.07-.88-.07.88m.07-.88-.78.42m-.15-1.38.15,1.38m.78-.42-1.36-.18m.43-.78-.43.78m.43-.78-.88.08m.88-.08-1.22-.69m.94-.64-.94.64m.94-.64-1.07-.19m1.07.19-.6,1.41m.6-2.62-1.07,1m1.07.19-1.07-1m1.07-.21-.91-.61m.91.61-1.07.21m1.07-.21-.6-1.38m.88.07-.88-.07m.88.07-1.19.7m1.19-.7-.42-.74m.42.74.16-1.34m.76.37-1.34.23" stroke-width=".01"/></g><g fill="#2e2d77"><path d="M105.81 74.66v-1h1v1zm1.13-1.15v-1h1v1h-1zm0 2.28v-1h1v1zm1.12-1.13v-1h1v1zm-.06-2.33v-.72h.72v.72zm-1.81 0v-.73h.72v.72zm-1.25 1.28v-.72h.72v.72zm0 1.81v-.73h.72v.72zm4.32 0v-.72h.74v.73zm0-1.81v-.72h.74v.72zm-4.91-1.17V72h.48v.48zm.93-1V71h.47v.47zm1.27-.47v-.47h.45v.5zm-2.48 2.76v-.47h.47v.47zm6-1.79h.47v.47h-.47V72zm-.93-1h.48v.48h-.47V71zm-1.28-.47h.48V71h-.47zm2.49 2.75h.47v.47h-.47zm-4.16 3.43v-.72h.72v.72zm1.81 0v-.72h.72v.72H108zm2.09-.36v-.48h.48v.47zm-.92 1v-.47h.48v.48zm-1.28.46v-.47h.47v.48zm2.48-2.75v-.5h.47v.5zm-6 .84h.48v.47h-.47zm.93 1h.47v.48h-.47zm1.27.47h.43v.47h-.47v-.47zm-2.47-2.75h.47V75h-.47zm.52-3.56v-.26h.26V71zm-1.51 2.87v-.27h.26v.25zm.15-.82v-.26h.26V73zm2.83-2.85v-.26h.26v.26zm-2.51 2.08V72h.26v.25zm.46-.69v-.26h.26v.26zm1.29-1.32h.26v.26h-.26v-.26zm1.58-.49h.26V70h-.26zm4.18 2.5V72h.26v.25zm.34.77v-.26h.26V73zm-.8-1.46v-.26h.26v.26zm.92 2.28v-.27h.27v.26zm-3.8-3.87v-.26h.25V70zm.82.16v-.26h.26v.26z"/><path d="M104.62 71v-.26h.26V71zm-1.51 2.87v-.27h.26v.25zm6.94-2.87v-.26h.26V71zm-6.79 2v-.26h.26V73zm2.83-2.85v-.26h.26v.26zm-2.51 2.08V72h.26v.25zm.46-.69v-.26h.26v.26zm1.29-1.32h.26v.26h-.26v-.26zm1.58-.49h.26V70h-.26zm2.43.76v-.26h.26v.26zm2.21 3.33v-.22h.27v.26zm-3.8-3.82v-.26h.25V70zm.82.16v-.26h.26v.26zm1.48 7.35v-.26h.26v.26zm1.5-2.86v-.26h.27v.26zm-6.93 2.87v-.26h.26v.26zm6.8-2v-.26h.26v.25zm-2.82 2.88v-.26h.26v.26zm2.48-2.11V76h.26v.25zm-.45.7v-.26h.26V77zm-1.29.8h.26V78h-.25v-.26zm-1.59.48h.25v.26h-.25zm-2.42-.27v-.26h.26V78zm-1.76-1.76V76h.27v.25zm-.31-.77v-.26h.26v.26zM104 77v-.26h.26V77zm-.93-2.29v-.26h.26v.26zm3.81 3.83v-.26h.26v.26zm-.83-.16v-.26h.26v.26z"/></g></svg>